<?xml version="1.0" encoding="utf-8"?>
<!-- Generator: Adobe Illustrator 16.0.0, SVG Export Plug-In . SVG Version: 6.00 Build 0)  -->
<!DOCTYPE svg PUBLIC "-//W3C//DTD SVG 1.1//EN" "http://www.w3.org/Graphics/SVG/1.1/DTD/svg11.dtd">
<svg version="1.1" id="Layer_1" xmlns="http://www.w3.org/2000/svg" xmlns:xlink="http://www.w3.org/1999/xlink" x="0px" y="0px"
	 width="720px" height="720px" viewBox="0 0 720 720" enable-background="new 0 0 720 720" xml:space="preserve">
<g>
	<path fill-rule="evenodd" clip-rule="evenodd" d="M308.47,300.663c0,0,12.633-11.56,40.402,1.907
		c-0.954,3.933-3.933,7.151-3.933,7.151s-9.653-4.529-12.156-1.55c-2.622,2.86-7.151,2.503-7.151,2.503
		C321.103,308.41,308.47,300.663,308.47,300.663L308.47,300.663L308.47,300.663z"/>
	<path fill-rule="evenodd" clip-rule="evenodd" d="M347.918,310.317c0,0,0-3.218,5.602-3.218c-2.265-0.715-4.171-0.715-4.171-0.715
		c1.43-2.145,1.668-3.337,6.555-3.337s7.031,4.767,7.031,4.767c-1.191,1.311-0.952,4.41-0.238,5.363
		c-3.217-0.715-9.176-4.291-9.652-2.86C350.54,310.317,347.918,310.317,347.918,310.317L347.918,310.317L347.918,310.317z"/>
	<path fill-rule="evenodd" clip-rule="evenodd" d="M364.127,307.099c0,0,14.301,5.363,30.746,4.648
		c16.447-0.715,26.34,11.918,26.34,11.918s6.316,5.005,15.254,6.912c-7.031,0-7.746,0.238-9.414,0.596
		c-1.668,0.238-7.27-2.026-11.084-4.648c-3.934-2.622-23.002-3.694-23.002-3.694c-14.777,0-14.777,0-14.777,0
		s-10.727-0.238-12.871-8.223C363.172,306.622,364.127,307.099,364.127,307.099L364.127,307.099L364.127,307.099z"/>
	<path fill-rule="evenodd" clip-rule="evenodd" d="M431.939,332.842c0,0,6.078,2.622,7.508,6.316
		c4.768,1.907,9.654,2.622,11.322,3.575c1.787,0.954,3.932,1.311,5.84,1.668c-1.549-0.715-2.027-2.502-3.457-3.337
		c-2.74-1.668-5.244-0.238-7.865-2.86c-1.906-2.026-3.1-4.767-6.078-5.363C437.062,332.365,433.965,331.888,431.939,332.842
		L431.939,332.842L431.939,332.842z"/>
	<path fill-rule="evenodd" clip-rule="evenodd" d="M352.686,314.25c-5.125,0-5.125,0-5.125,0s-1.311-2.86,6.197-2.86
		C352.686,312.581,352.089,312.939,352.686,314.25L352.686,314.25L352.686,314.25z"/>
	<path fill-rule="evenodd" clip-rule="evenodd" d="M360.193,313.177c0,0-5.721-0.477-6.197,0.238s0.238,1.192,0.238,1.192
		c5.721,0.238,5.721,0.238,5.721,0.238L360.193,313.177L360.193,313.177z"/>
	<path fill-rule="evenodd" clip-rule="evenodd" d="M361.266,316.157c0,0,4.053-1.311,7.51,5.244
		c-0.238,2.741-2.742,6.317-3.219,6.317s-3.337,1.907-4.291,3.694c0-3.218,0.716-4.41,1.906-6.078
		c1.193-1.668,0.955-6.316,0.479-7.032C363.172,317.587,361.266,316.157,361.266,316.157L361.266,316.157L361.266,316.157z"/>
	<path fill-rule="evenodd" clip-rule="evenodd" d="M357.572,301.378c0,0,6.436-0.357,9.057,2.86
		c2.623,3.218,5.125,0.953,5.125,0.953s0.357-2.86-1.906-4.529c3.217,2.265,4.885,4.887,5.123,5.482
		c0.357,0.715,4.291,2.979,4.291-2.86c2.502,2.622,2.859,2.86,3.217,3.814c0.24,1.072,3.457,4.529,6.438,2.026
		c2.859-2.622,3.217-5.84-3.219-8.462c0.953,3.218,0.596,5.84-2.264,2.979c-2.98-2.979-5.84-4.29-9.654-2.979
		C369.252,299.114,363.41,298.399,357.572,301.378L357.572,301.378L357.572,301.378z"/>
	<path fill-rule="evenodd" clip-rule="evenodd" d="M359.717,332.604c0,0,1.787,0.953,3.455-2.265c1.908,0,5.604-1.192,5.842-6.436
		c0.953,4.529,0.953,11.322,0.715,12.275s-0.238,0.953-0.238,0.953s2.383,0.715,3.336-1.43c2.621,1.43,42.428,24.432,42.428,24.432
		c-0.715,0.953-0.715,0.953-0.715,0.953c-43.857-22.167-43.857-22.167-43.857-22.167s-3.457-0.834-5.125-0.834
		c1.906-0.715,1.906-2.383,1.906-2.383s-4.291,1.43-4.529,1.43c0.238-2.145,0-3.575-0.952-3.575c-0.954,0,0.714,3.575-2.265,3.575
		C356.856,337.132,359.479,334.987,359.717,332.604L359.717,332.604L359.717,332.604z"/>
	<path fill-rule="evenodd" clip-rule="evenodd" d="M370.682,332.126c0,0,0-4.886,0-5.839c0-0.954,3.098,2.622,3.574,4.886
		C372.826,331.65,371.635,331.412,370.682,332.126L370.682,332.126L370.682,332.126z"/>
	<path fill-rule="evenodd" clip-rule="evenodd" d="M371.635,334.272c0,0,1.43-3.695,4.646-0.477c3.1,3.099,1.193,2.622,1.193,2.622
		S372.588,334.272,371.635,334.272L371.635,334.272L371.635,334.272z"/>
	<polygon fill-rule="evenodd" clip-rule="evenodd" points="299.293,297.684 298.458,299.353 339.218,321.162 340.171,319.732 
		299.293,297.684 	"/>
	<path fill-rule="evenodd" clip-rule="evenodd" d="M287.613,291.844c5.602,5.84,5.602,5.84,5.602,5.84s4.052,1.668,4.052-1.669
		C297.267,292.559,290.95,293.155,287.613,291.844L287.613,291.844L287.613,291.844z"/>
	<path fill-rule="evenodd" clip-rule="evenodd" d="M306.444,320.686c0,0-5.005,1.668-5.721-4.529
		C304.06,318.779,305.252,319.97,306.444,320.686L306.444,320.686L306.444,320.686z"/>
	<path fill-rule="evenodd" clip-rule="evenodd" d="M300.246,314.727c0,0,5.125,3.098,6.793,3.933
		C305.729,315.918,309.9,315.918,300.246,314.727L300.246,314.727L300.246,314.727z"/>
	<path fill-rule="evenodd" clip-rule="evenodd" d="M305.967,322.116c0,0-3.337,0.477-3.575,4.409
		c2.86,0.954,4.291,1.668,4.291,3.337c-2.145,0.715-4.052-0.715-4.767-1.43c-2.979,0.238-8.224,0.477-8.224,0.477
		s7.032,2.503,10.369,2.503c-0.715,1.668-2.145,2.145-2.145,3.575s-0.239,6.555-0.239,6.555s1.192-1.192,0.954,0.238
		c-0.238,1.431-1.43,1.192-1.43,1.192s-2.264,3.694-0.477,4.886c1.668,1.191,4.052-2.026,4.052-2.026s2.741-0.238,3.456-0.238
		s0.953-3.099,0.238-4.529s0.238-3.933,0.238-3.933c0.715,2.979,1.668,2.979,2.622,2.979c0.953,0,3.099-8.7,3.099-8.7
		s2.502-6.793-4.529-8.581c-2.145,0-3.218,0-3.218,1.311C305.729,323.903,305.967,322.116,305.967,322.116L305.967,322.116
		L305.967,322.116z"/>
	<path fill-rule="evenodd" clip-rule="evenodd" d="M307.755,347.143c0,0-2.265-0.834-3.457,1.192
		C306.205,349.05,307.278,348.573,307.755,347.143L307.755,347.143L307.755,347.143z"/>
	<path fill-rule="evenodd" clip-rule="evenodd" d="M309.423,344.879c0,0,2.383,0.238,2.622-2.146
		c1.668,0.954,3.218,2.622,2.384,3.576c-0.715,1.072-5.005,3.456-1.907,7.031c3.218,3.695,6.078,1.073,7.031,1.073
		c-2.86-0.834-6.316,0-4.767-3.218c1.43-3.099,2.384-3.575,2.384-3.575c-1.192-0.954-1.192-3.933-1.192-3.933
		s-3.218-2.622-6.078-2.622C310.376,342.972,310.615,344.164,309.423,344.879L309.423,344.879L309.423,344.879z"/>
	<path fill-rule="evenodd" clip-rule="evenodd" d="M315.978,333.795c0,0-0.238,2.384-2.026,2.86
		c1.311,2.265,0.834,3.456,0.834,3.456c1.907,0.239,1.669-2.741,1.669-2.741L315.978,333.795L315.978,333.795z"/>
	<path fill-rule="evenodd" clip-rule="evenodd" d="M313.476,323.308c0,0,2.741,3.933,2.979,7.27
		c0.238,3.457,1.191,2.026,1.191,2.026s0.715,12.514,0.715,14.301c0,1.668,1.192,1.668,1.192,1.668
		c6.198-2.503,11.084-9.296,17.4-10.964c-2.86-5.244-6.912-12.275-9.892-13.467C324.201,322.831,318.361,321.162,313.476,323.308
		L313.476,323.308L313.476,323.308z"/>
	<path fill-rule="evenodd" clip-rule="evenodd" d="M312.76,321.877c0,0-0.954,0.954-3.337-1.43
		c-2.384-2.383-2.384-1.787-2.384-1.787s3.099-1.073,3.814-0.835C311.568,318.063,311.568,321.162,312.76,321.877L312.76,321.877
		L312.76,321.877z"/>
	<path fill-rule="evenodd" clip-rule="evenodd" d="M315.024,321.162c0,0-0.834,0.834-2.384-1.668
		c-1.668-2.622-1.668-1.907-1.668-1.907s2.503-0.954,2.979-0.715C314.429,317.229,314.19,320.328,315.024,321.162L315.024,321.162
		L315.024,321.162z"/>
	<path fill-rule="evenodd" clip-rule="evenodd" d="M325.512,322.354c-0.477-2.146-0.477-2.741-0.477-4.052
		c0-1.311-0.596-1.668-3.337-1.907c0.596,1.549,1.073,2.265,0.834,2.979c-0.119,0.834-0.477,0.477-2.026-2.503
		c-1.311-0.953-2.146-0.477-2.146-0.477s1.669,2.86,1.907,4.648l0,0C322.414,321.162,324.797,321.877,325.512,322.354
		L325.512,322.354L325.512,322.354z"/>
	<polygon fill-rule="evenodd" clip-rule="evenodd" points="320.269,321.043 320.269,321.043 320.269,321.043 320.269,321.043 
		320.269,321.043 	"/>
	<path fill-rule="evenodd" clip-rule="evenodd" d="M314.548,316.514c0,0,0,0,0.119,0
		C314.548,316.395,314.548,316.514,314.548,316.514L314.548,316.514L314.548,316.514z"/>
	<path fill-rule="evenodd" clip-rule="evenodd" d="M318.958,320.089c-0.238-0.596-0.834-1.072-1.073-1.668
		c-0.119-0.715,0.119-1.43-0.357-1.907c-0.357-0.357-2.265-0.119-2.86,0c0.119,0.119,0.357,0.715,0.834,2.503
		c0.119,0.596,0.357,1.311,0.834,1.907c0.477,0,1.788,0,2.741,0C319.196,320.686,319.196,320.447,318.958,320.089L318.958,320.089
		L318.958,320.089z"/>
	<path fill-rule="evenodd" clip-rule="evenodd" d="M318.838,350.718c3.575-1.787,6.793-4.291,10.13-6.435
		c2.383-1.55,5.839-4.41,8.819-4.41c1.907,0,0.715,2.86-1.311,2.86c1.311,0.954,1.788,1.43,0.954,1.668
		c-0.715,0.239-2.145,1.907-3.576,1.192c-1.43-0.715-2.383,0.715-1.907,1.788c0.477,0.954-1.668,2.622-4.171,1.907
		c-2.383-0.715-1.907,1.907-1.907,3.099c-2.383,1.192-7.031,0.238-7.031,0.238V350.718L318.838,350.718z"/>
	<path fill-rule="evenodd" clip-rule="evenodd" d="M318.361,351.911c0,0.477-0.477,0.953-1.072,0.953
		c-0.596,0-1.073-0.477-1.073-0.953c0-0.477,0.477-0.834,1.073-0.834C317.885,351.076,318.361,351.434,318.361,351.911
		L318.361,351.911L318.361,351.911z"/>
	<path fill-rule="evenodd" clip-rule="evenodd" d="M339.218,345.832c0,0-5.601,3.457-6.793,4.41c-1.192,0.953-4.648,2.86-5.363,2.86
		c-0.715,0,3.456,1.549,7.27,1.549C334.808,352.864,333.854,351.195,339.218,345.832L339.218,345.832L339.218,345.832z"/>
	<path fill-rule="evenodd" clip-rule="evenodd" d="M339.695,347.858c0,0-3.218,2.145-3.218,5.005
		c3.457,0.715,3.457,0.715,3.457,0.715s1.907-2.146,3.099-2.146C341.125,350.242,340.171,349.765,339.695,347.858L339.695,347.858
		L339.695,347.858z"/>
	<path fill-rule="evenodd" clip-rule="evenodd" d="M338.503,355.605c0,0,2.145-1.192,3.337-2.741
		c1.192-1.43,2.384,0.238,2.384,0.238s-0.238,3.933-0.715,4.886C341.602,357.273,338.503,355.605,338.503,355.605L338.503,355.605
		L338.503,355.605z"/>
	<path fill-rule="evenodd" clip-rule="evenodd" d="M326.585,322.473c0,0,0.715-3.337,0-4.886c1.668,0.834,2.384,1.907,2.384,1.907
		c-0.238,3.814-0.238,3.814-0.238,3.814L326.585,322.473L326.585,322.473z"/>
	<path fill-rule="evenodd" clip-rule="evenodd" d="M328.73,323.308c0,0,2.741,2.383,2.979,3.217
		c1.668-0.834,2.979-2.622,2.979-3.099c-0.835-0.953-1.669-2.264-1.669-2.264c-0.238,2.146-0.834,2.979-1.43,2.979
		s0.12-4.052,0.12-4.052c-0.954-0.357-2.265-0.834-2.265-0.834S329.922,323.308,328.73,323.308L328.73,323.308L328.73,323.308z"/>
	<path fill-rule="evenodd" clip-rule="evenodd" d="M332.901,327.836c0,0,0.834,0.834,1.073,1.43
		c2.145-1.788,2.979-3.933,2.979-3.933c-1.311-0.954-1.311-0.954-1.311-0.954s-1.311,2.265-2.384,2.979L332.901,327.836z"/>
	<path fill-rule="evenodd" clip-rule="evenodd" d="M334.927,330.339c0,0,2.503-2.383,2.503-3.218c1.43,1.549,1.43,2.145,1.43,2.145
		s-2.145,2.265-2.86,2.265C335.166,331.531,334.927,330.339,334.927,330.339L334.927,330.339L334.927,330.339z"/>
	<path fill-rule="evenodd" clip-rule="evenodd" d="M357.095,337.49c0,0-0.477-1.788-1.072,0.953
		c-0.715,2.741-1.192,2.622-1.788,2.384c0,1.311-2.502,3.814-6.316,8.343c0,0,0.954,0.119,2.026,0
		c0.119-0.12,0.238-0.12,0.357-0.238c2.741-0.596,3.337-2.861,3.337-3.814c0.715-1.073,1.43-2.145,2.026-3.099
		c0.357,6.913-7.628,9.296-9.058,9.892c-1.43,0.477-1.43,3.932-1.668,6.913c0,0,2.265,0.119,3.456,0.477
		c0-2.146,3.695-4.529,3.695-4.529c-3.218,0-4.886,2.86-4.886,2.86s-0.954,0.716-1.073,0c-0.119-0.596,0.357-2.86,1.073-4.648
		c10.369-3.575,9.772-8.7,10.249-10.13C357.929,341.422,357.095,337.49,357.095,337.49L357.095,337.49L357.095,337.49z"/>
	<path fill-rule="evenodd" clip-rule="evenodd" d="M354.83,350.6c0,0,1.431-3.457,2.384-3.695c1.073-0.357,2.146-7.27,2.146-8.342
		c1.072-0.477,2.264-0.238,2.86-1.073c0.714,2.384,0.833,7.747,0.238,7.747c-0.716,0-2.026,0.834-2.622,2.145
		c-0.596,1.192-2.384,1.55-2.384,1.55S357.095,350.838,354.83,350.6L354.83,350.6L354.83,350.6z"/>
	<path fill-rule="evenodd" clip-rule="evenodd" d="M358.287,349.765c0,0,2.026-0.954,2.741-1.788
		c0.596-0.834,2.502-0.954,2.502-0.954s2.266,3.576,4.053,4.171c-2.383,1.788-3.336,3.218-4.172,5.005
		c-0.834,1.788-2.145,3.219-2.145,3.219c-1.787,0.238-1.787,0.238-1.787,0.238s-3.337-0.357-5.125,1.549
		c-0.357-3.337-0.477-8.223,2.86-9.295C360.67,350.718,358.287,349.765,358.287,349.765L358.287,349.765L358.287,349.765z"/>
	<path fill-rule="evenodd" clip-rule="evenodd" d="M366.271,347.62c0,0,0.357-2.384-2.025-4.291c0-3.456,0.119-4.41,1.549-4.41
		s4.648,0.715,4.648,2.502C370.443,343.091,367.701,347.62,366.271,347.62L366.271,347.62L366.271,347.62z"/>
	<path fill-rule="evenodd" clip-rule="evenodd" d="M364.008,344.402c0,0,0.238,1.907,1.311,2.146
		c-1.789,0.477-2.86-0.834-2.86-0.834S363.889,345.594,364.008,344.402L364.008,344.402L364.008,344.402z"/>
	<path fill-rule="evenodd" clip-rule="evenodd" d="M370.562,345.117c0,0-1.191,6.197-3.338,7.866
		c-2.025,1.788,1.551,1.073,1.551,1.073s-0.238,1.549-3.1,3.813c-2.742,2.265-0.596,4.887-0.596,4.887s0.834,2.86-2.027,1.191
		c0.477,2.265,0.598,2.741-1.071,2.622c0.952,1.668,4.528,3.695,6.675,0.238c2.025-3.337,3.932-7.865,4.527-8.938
		c-1.906,0.597-1.668,1.073-4.17,0.358c-2.623-0.716,3.932-2.146,5.6-5.959c1.549-2.146,2.266-2.741,2.266-2.741
		c-1.67-0.477-2.266-0.119-1.551-1.549c-1.787,0.238-2.025,1.311-3.217,0.954c-1.191-0.358,1.311-2.146,1.311-2.146
		s1.191-0.477,3.219-0.238c-1.789-1.788-4.291-1.43-5.721-1.43H370.562z"/>
	<path fill-rule="evenodd" clip-rule="evenodd" d="M351.493,363.352c0,0,3.457,0,5.602-2.265c2.86-0.477,4.409,0,4.647,1.788
		c0.239,1.669-1.787,2.146-1.787,2.86s2.265,3.575,1.072,3.575c-1.311,0-2.502,1.072-5.601-1.669
		c-3.218-2.621-3.933-1.43-3.933-1.43V363.352L351.493,363.352z"/>
	<path fill-rule="evenodd" clip-rule="evenodd" d="M358.167,371.218c0,0-1.668-0.715-2.502-2.146
		c-0.835-1.312-4.648-0.835-4.887,0.119c-0.238,1.073-1.668,6.912-2.741,8.104c-1.073,1.072-1.907,6.674-2.383,7.508
		c-0.596,0.953,3.694,2.384,3.694,2.384s1.311-4.887,4.052-7.628C356.022,376.7,358.167,372.052,358.167,371.218L358.167,371.218
		L358.167,371.218z"/>
	<path fill-rule="evenodd" clip-rule="evenodd" d="M353.043,360.253c0,0-2.384-0.715-3.337-1.787
		c-0.954-1.073,1.788-1.431,2.741-0.954C353.52,357.988,353.162,359.3,353.043,360.253L353.043,360.253L353.043,360.253z"/>
	<path fill-rule="evenodd" clip-rule="evenodd" d="M351.136,366.808c0,0-2.384,3.814-2.741,5.363
		c-0.357,1.668-1.668-0.357-1.668-0.357s2.265-4.768,2.741-5.125C349.944,366.331,351.136,366.808,351.136,366.808L351.136,366.808
		L351.136,366.808z"/>
	<path fill-rule="evenodd" clip-rule="evenodd" d="M346.13,374.435c0,0,2.622-0.119,1.549,1.789
		c-0.954,1.906-2.384,0.596-2.384,0.596S346.13,375.866,346.13,374.435L346.13,374.435L346.13,374.435z"/>
	<path fill-rule="evenodd" clip-rule="evenodd" d="M346.011,379.083c0,0-2.741,7.508-2.741,9.773c0,2.264-2.979-1.192-4.052-1.192
		c1.43-2.86,4.529-8.581,5.602-8.581C346.011,379.083,346.011,379.083,346.011,379.083L346.011,379.083L346.011,379.083z"/>
	<path fill-rule="evenodd" clip-rule="evenodd" d="M348.395,388.499c0,0-2.86-0.954-3.456-1.431
		c-0.477-0.478-1.668,4.052,1.073,4.171c2.741,0.119,2.86-0.596,2.741-2.264L348.395,388.499z"/>
	<path fill-rule="evenodd" clip-rule="evenodd" d="M363.053,369.072c0,0-7.388,10.368-8.58,11.202
		c2.265,0.954,5.84,2.623,7.031,1.431c1.072-1.073,5.244-8.343,5.482-10.011C367.105,370.146,364.723,369.787,363.053,369.072
		L363.053,369.072L363.053,369.072z"/>
	<path fill-rule="evenodd" clip-rule="evenodd" d="M350.778,386.83c0,0,0.954-3.813,2.741-3.813s6.316-0.716,8.462,1.43
		c2.026,0.477,3.337,1.191,4.528,1.787c1.072,0.597,2.266,1.669,4.529,1.669c2.145,0,4.17,0.597,4.17,0.597
		c-3.932,0.357-7.15,0.118-8.223,0.477c-1.191,0.357-3.934,1.668-5.363,1.668s-9.176-0.834-10.845-1.668
		c-1.549-0.834-1.549-0.834-1.549-0.834c5.601,0.238,8.819,1.311,10.25,0.238C361.027,387.188,350.778,386.83,350.778,386.83
		L350.778,386.83L350.778,386.83z"/>
	<path fill-rule="evenodd" clip-rule="evenodd" d="M339.695,384.565c0,0-10.726,0.596-11.918,0.357
		c2.979,1.311,10.13,2.384,10.726,2.384C339.218,387.307,339.695,384.565,339.695,384.565L339.695,384.565L339.695,384.565z"/>
	<path fill-rule="evenodd" clip-rule="evenodd" d="M314.429,340.827c0,0,2.264,0.238,2.979,2.026
		c0.596,1.788-1.668-0.238-1.668-0.238L314.429,340.827L314.429,340.827z"/>
	<path fill-rule="evenodd" clip-rule="evenodd" d="M338.384,332.365c0,0-2.622-0.715-2.741-0.238
		c-0.119,0.477,1.311,2.265,1.311,3.576s0-2.622,1.311-2.86L338.384,332.365z"/>
	<path fill-rule="evenodd" clip-rule="evenodd" d="M333.736,359.776c0,0-14.897-0.834-17.043-0.834
		c-2.026,0-5.005,6.197-5.601,7.865c-0.596,1.787-0.596,1.787-0.596,1.787c-0.358-0.238-0.954,0.357-1.669,1.312
		c-0.596,0.953-2.383,1.191-2.383,1.191s-6.198,1.072-9.535-0.238c-3.456-1.192-4.529,4.528-5.125,4.528
		c-0.715,0,0.477,5.005,0.477,5.005s1.668,14.422,2.741,14.541c0.954,0.119,2.503-0.477,3.694,2.383c1.073,2.98,7.27,2.98,7.27,2.98
		c0.12-2.623,0.12-2.623,0.12-2.623s-1.073,0-2.265-1.311c-1.073-1.311-2.383-4.053-5.125-5.125
		c-2.741-1.072,0.954-1.311,0.954-1.311s-1.192-1.549-3.575-3.218c-2.384-1.55-1.311-8.104-0.596-8.581
		c0.596-0.477,1.549-2.026,1.788-2.979c0.119-1.073,10.25,0.596,12.276-0.716c1.907-1.311,2.741,0.119,0.715-2.383
		c-1.907-2.622,8.7-0.357,8.7-0.357s5.959,0.119,8.581,1.311c2.741,1.191,13.587,5.125,15.017,6.316s4.171-11.441,5.839-13.586
		c1.669-2.146-12.871-5.602-12.871-5.602s-5.482,11.203-6.316,11.203C328.492,371.337,328.253,370.741,333.736,359.776
		L333.736,359.776L333.736,359.776z"/>
	<path fill-rule="evenodd" clip-rule="evenodd" d="M327.538,380.394c0,0-4.648-1.43-5.125-2.979
		c-0.477-1.669,6.555,2.979,7.628,2.979c0.953,0,0,2.742-0.715,3.1c-0.596,0.357,3.456-0.357,4.052-0.477
		c0.596-0.119,6.555,0.357,6.555-3.1c-2.86-0.357-5.721,0.238-9.416-3.693c-4.767-0.478-7.508-2.385-9.057-3.338
		c-1.668-1.072-7.032-0.238-7.032-0.238s-0.596,1.787,5.363,1.668c1.907,0.835,2.622,1.551,1.787,1.551
		c-0.834,0-8.342-0.716-14.659,0.477c0,0-3.456,0.357-5.125-0.119c-1.788-0.478-4.529,2.859-4.529,2.859s-1.549,3.1-0.357,4.887
		c1.073,1.787,7.866,9.415,8.224,11.918c3.099,1.787,5.839,2.979,6.555,3.933c0.834,0.954,2.503,0.835,3.099,1.431
		c0.715,0.596,7.747-1.669,7.747-1.669s-0.477-6.078-7.866-6.197c-1.191,1.073-1.311,2.979-2.741,2.265
		c-1.43-0.834,0.357-1.549,0.357-2.503s-1.787-0.835-2.264-0.954c-0.477-0.119-2.264-1.549-2.502-2.621
		c-0.12-0.954-4.291-4.41-4.291-4.41s-1.787-2.86,3.695-1.668c5.482,1.072,5.363,4.052,16.328,2.74
		C327.538,384.327,327.538,380.394,327.538,380.394L327.538,380.394L327.538,380.394z"/>
	<path fill-rule="evenodd" clip-rule="evenodd" d="M364.127,381.229c0,0,4.053-8.462,4.053-10.13c0-1.788,6.076-9.773,5.838-11.203
		c4.172-0.238,27.889,2.502,31.939,6.793c4.172,4.41,6.555,14.54,6.555,20.618c-2.621,0.478-7.27,2.146-9.652,5.005
		c-2.145,0-6.555-1.191-7.986-1.191c-1.43,0-3.098,0.238-5.6-2.145c-4.053-0.238-5.244-0.238-6.555-0.238
		c-1.193,0-3.814-1.431-3.814-1.431s-3.219-2.146-7.984-2.146c-2.74-1.549-4.172-2.502-6.793-2.979V381.229z"/>
	<path fill-rule="evenodd" clip-rule="evenodd" d="M374.732,357.988c0,0,23.24,0.716,31.225,7.509
		c-3.336-4.41-17.877-9.178-30.748-9.178C374.018,357.273,374.732,357.988,374.732,357.988L374.732,357.988L374.732,357.988z"/>
	<path fill-rule="evenodd" clip-rule="evenodd" d="M384.029,389.929c0,0,1.906,4.172,2.621,5.363s7.986,5.602,13.824,6.078
		c5.721,0.477,18.354,0.715,19.309,1.191c0.953,0.477,4.885,9.415,6.793,11.084c0.238,2.502-0.238,3.933,3.098,4.647
		c3.457,0.716,1.312,3.813,5.602,5.124c4.41,1.193,1.191-1.311,3.695-1.311c2.383,0,0.238,0.715,3.336,0.238
		c3.219-0.477-2.145-6.793-3.336-7.27s-3.695,2.026-3.695,2.026s-2.145,1.669-1.668-3.218c-2.145-2.384-2.383-1.191-2.861-3.1
		c-0.477-1.906-5.6-14.062-7.984-17.161c-2.502-3.218-2.979,0.954-8.58-0.477c-5.482-1.55-5.244-2.979-5.244-2.979
		s-2.504,1.906-3.695,2.145c-1.191,0.357-1.906,2.98-1.906,2.98s-2.861-1.431-5.125-1.907c-2.145-0.478-3.812,0.477-3.812,0.477
		s-1.432,0.954-5.602-2.265C385.459,389.929,385.697,389.929,384.029,389.929L384.029,389.929L384.029,389.929z"/>
	<path fill-rule="evenodd" clip-rule="evenodd" d="M410.605,389.929c0,0,1.906,0.715,3.338,1.668
		c1.549,1.072,3.932,0.477,3.932,0.477S415.016,387.068,410.605,389.929L410.605,389.929L410.605,389.929z"/>
	<path fill-rule="evenodd" clip-rule="evenodd" d="M413.467,403.276c0,0,2.025,8.462,2.025,12.037
		c1.906,1.788,3.336,1.549,3.814,3.219c0.477,1.668,2.383,2.859,3.932,1.668c1.43-1.191,1.43,1.906,1.43,1.906
		c3.1,2.027,3.1,2.027,3.1,2.027s0.953-4.41,0-4.887s-3.338-3.695-4.291-5.363c-0.477,1.191-1.549,0.477-2.025-1.669
		s-2.145-6.555-2.145-7.747C419.307,403.276,413.467,403.276,413.467,403.276L413.467,403.276L413.467,403.276z"/>
	<path fill-rule="evenodd" clip-rule="evenodd" d="M384.744,393.385c0,0-1.311-2.741-7.508-3.694
		c0.238,1.668,1.191,0.953,1.906,1.668s3.336,1.788,3.336,2.742C382.479,395.054,384.744,395.769,384.744,393.385L384.744,393.385
		L384.744,393.385z"/>
	<path fill-rule="evenodd" clip-rule="evenodd" d="M408.104,365.259c-0.357,0.119,2.145,2.264,2.383,2.383
		c1.43,0.715,3.695,1.072,5.006-0.119c0.596,0.834,1.549,1.55,2.145,2.385c0.834,1.311,1.432,2.859,1.789,4.408
		c1.072,5.006,5.004,11.084,13.348,11.084c2.621,0.477,4.053,0.953,4.887,1.312c-0.238-1.55-1.67-2.741-4.053-3.099
		c2.383-0.953,3.338-1.549,5.84-1.43c2.383,0.238,4.529,1.43,5.959,3.098c0,0,2.859,0-3.576-5.363
		c-4.051-1.43-6.793-1.787-7.389-2.74c2.742-0.357,5.482-0.953,8.342,1.311c2.98,2.265,2.623,3.218,5.482,3.218
		c-2.264-3.099-1.787-2.86-2.74-4.886c-0.953-1.908-4.053-2.504-8.58-1.669c-4.41,0.716-4.291,0-4.291,0
		c0.477,1.431,0.477,1.431,0.477,1.431s-5.006,0.596-6.912-5.006c-1.191-1.43-1.43-1.907-1.43-1.907
		c2.145,0.954,2.979,2.622,2.979,2.741c0.477,0.834,2.502,1.43,3.338,1.668c2.979,0.834,5.721-0.953,8.699-0.715
		c2.264,0.119,4.172,1.191,6.197,1.907c-1.072-2.622-2.025-3.575-4.291-4.528c-1.668,0-2.264,0.596-4.527,0.834
		c-2.266,0.119-6.438,0.477-12.754-6.316C417.518,361.206,408.104,365.259,408.104,365.259L408.104,365.259L408.104,365.259z"/>
	<path fill-rule="evenodd" clip-rule="evenodd" d="M319.196,357.154c0,0.596-0.715,0.954-1.668,0.954
		c-0.834,0-1.549-0.358-1.549-0.954c0-0.478,0.715-0.954,1.549-0.954C318.481,356.2,319.196,356.677,319.196,357.154
		L319.196,357.154L319.196,357.154z"/>
	<path fill-rule="evenodd" clip-rule="evenodd" d="M321.699,356.319c0,0.478-0.358,0.835-0.954,0.835
		c-0.477,0-0.953-0.357-0.953-0.835c0-0.357,0.477-0.714,0.953-0.714C321.341,355.605,321.699,355.962,321.699,356.319
		L321.699,356.319L321.699,356.319z"/>
	<path fill-rule="evenodd" clip-rule="evenodd" d="M325.036,356.438c0,0.478-0.477,0.954-0.834,0.954
		c-0.477,0-0.834-0.477-0.834-0.954c0-0.477,0.357-0.833,0.834-0.833C324.559,355.605,325.036,355.962,325.036,356.438
		L325.036,356.438L325.036,356.438z"/>
	<path fill-rule="evenodd" clip-rule="evenodd" d="M328.492,356.438c0,0.478-0.477,0.954-1.192,0.954
		c-0.596,0-1.191-0.477-1.191-0.954c0-0.477,0.596-0.833,1.191-0.833C328.015,355.605,328.492,355.962,328.492,356.438
		L328.492,356.438L328.492,356.438z"/>
	<path fill-rule="evenodd" clip-rule="evenodd" d="M332.186,356.797c0,0.357-0.596,0.715-1.311,0.715
		c-0.715,0-1.43-0.357-1.43-0.715c0-0.478,0.715-0.716,1.43-0.716C331.59,356.081,332.186,356.319,332.186,356.797L332.186,356.797
		L332.186,356.797z"/>
	<path fill-rule="evenodd" clip-rule="evenodd" d="M335.643,357.154c0,0.596-0.596,0.954-1.192,0.954
		c-0.715,0-1.192-0.358-1.192-0.954c0-0.478,0.477-0.954,1.192-0.954C335.047,356.2,335.643,356.677,335.643,357.154
		L335.643,357.154L335.643,357.154z"/>
	<path fill-rule="evenodd" clip-rule="evenodd" d="M338.979,359.062c0,0.596-0.477,1.072-1.073,1.072
		c-0.596,0-1.191-0.477-1.191-1.072c0-0.477,0.596-0.953,1.191-0.953C338.503,358.108,338.979,358.585,338.979,359.062
		L338.979,359.062L338.979,359.062z"/>
	<path fill-rule="evenodd" clip-rule="evenodd" d="M341.959,359.657c0,0.477-0.477,0.953-0.953,0.953
		c-0.477,0-0.834-0.477-0.834-0.953s0.357-0.834,0.834-0.834C341.482,358.823,341.959,359.181,341.959,359.657L341.959,359.657
		L341.959,359.657z"/>
	<path fill-rule="evenodd" clip-rule="evenodd" d="M344.938,361.087c0,0.357-0.477,0.596-1.073,0.596
		c-0.596,0-1.073-0.238-1.073-0.596c0-0.238,0.477-0.477,1.073-0.477C344.462,360.61,344.938,360.849,344.938,361.087
		L344.938,361.087L344.938,361.087z"/>
	<path fill-rule="evenodd" clip-rule="evenodd" d="M344.819,361.921c0,0.477,0.715,0.715,1.549,0.715s1.549-0.238,1.549-0.715
		c0-0.357-0.715-0.715-1.549-0.715S344.819,361.563,344.819,361.921L344.819,361.921L344.819,361.921z"/>
	<path fill-rule="evenodd" clip-rule="evenodd" d="M350.54,363.352c0,0.357-0.477,0.715-0.834,0.715
		c-0.477,0-0.834-0.357-0.834-0.715c0-0.477,0.357-0.834,0.834-0.834C350.063,362.518,350.54,362.875,350.54,363.352L350.54,363.352
		L350.54,363.352z"/>
	<path fill-rule="evenodd" clip-rule="evenodd" d="M361.742,317.825c0,0-9.057-1.906-17.996-0.715
		c-1.43,3.337-2.622,5.244-3.099,6.555c2.86,0.238,4.529,0,4.529,1.43c0,1.43-4.291,4.529-5.959,6.078
		c-0.238,3.575,1.907,14.897,2.86,16.685c3.91-1.777,13.471-6.501,19.555-29.618c0.039,0.068,0.091,0.141,0.152,0.217
		c0.15,0.187,0.364,0.41,0.607,0.654c-1.673,5.753-3.634,11.8-6.624,17.088c-2.999,5.305-7.035,9.846-12.859,12.557l0.17,0.366
		c5.911-2.751,10.003-7.353,13.041-12.726c3.027-5.354,5.004-11.475,6.69-17.288l0.035-0.115l-0.084-0.084
		c-0.273-0.272-0.512-0.517-0.663-0.705c-0.103-0.126-0.188-0.167-0.179-0.183l-0.195-0.13
		C361.73,317.87,361.736,317.848,361.742,317.825L361.742,317.825L361.742,317.825z"/>
</g>
</svg>
