<?xml version="1.0" encoding="utf-8"?>
<!-- Generator: Adobe Illustrator 16.0.0, SVG Export Plug-In . SVG Version: 6.00 Build 0)  -->
<!DOCTYPE svg PUBLIC "-//W3C//DTD SVG 1.1//EN" "http://www.w3.org/Graphics/SVG/1.1/DTD/svg11.dtd">
<svg version="1.1" id="Layer_1" xmlns="http://www.w3.org/2000/svg" xmlns:xlink="http://www.w3.org/1999/xlink" x="0px" y="0px"
	 width="720px" height="720px" viewBox="0 0 720 720" enable-background="new 0 0 720 720" xml:space="preserve">
<g>
	<path d="M406.851,286.377l-40.162,94.791l-11.08-24.313l20.466-55.705c1.539-4.309,6.925-6.309,16.004-6.309l3.23-8.464h-47.702
		l-3.078,8.464c6.771,0,9.541,2,8.463,6.309l-10.156,28.314l-20.005-43.087c-3.693-4.616-1.846-6.925,5.386-6.925V269.45h-46.165
		v10.002c8.617,0,14.003,2.309,16.312,6.925l33.854,72.016l-15.85,42.317c-0.309,5.693-9.233,8.463-26.468,8.463l-3.231,8.465
		H418.39l18.312-38.932h-9.54c-8.926,20.158-19.235,30.467-30.776,30.467H335.91l8.925-23.852l7.694,15.389h17.233l48.627-114.333
		c2.309-6.925,8.311-10.618,17.696-10.618v-8.925h-39.701v8.925C408.389,275.76,411.774,279.453,406.851,286.377L406.851,286.377z"
		/>
</g>
</svg>
