<?xml version="1.0" encoding="utf-8"?>
<!-- Generator: Adobe Illustrator 16.0.0, SVG Export Plug-In . SVG Version: 6.00 Build 0)  -->
<!DOCTYPE svg PUBLIC "-//W3C//DTD SVG 1.1//EN" "http://www.w3.org/Graphics/SVG/1.1/DTD/svg11.dtd">
<svg version="1.1" id="Layer_1" xmlns="http://www.w3.org/2000/svg" xmlns:xlink="http://www.w3.org/1999/xlink" x="0px" y="0px"
	 width="800px" height="600px" viewBox="0 0 800 600" enable-background="new 0 0 800 600" xml:space="preserve">
<g>
	<path fill-rule="evenodd" clip-rule="evenodd" fill="#E9A8BF" d="M318.113,285.526c14.086-9.832,30.241-22.771,43.581-36.111
		c13.34-13.34,25.103-29.201,36.111-43.581c11.007,14.674,22.77,30.241,36.111,43.581c13.34,13.34,28.318,25.103,43.58,36.111
		c-15.85,11.301-30.24,22.771-43.581,36.111c-13.34,13.34-24.809,28.023-36.11,43.58c-11.596-14.969-22.771-30.24-36.111-43.58
		C348.354,308.297,330.728,294.475,318.113,285.526L318.113,285.526z M412.651,261.891c-0.179-5.456-2.639-13.416-7.334-24.015
		l-7.737-14.579l-7.245,14.579c-4.964,10.599-7.424,18.559-7.29,24.015c-0.134,3.22,0.984,7.245,3.444,12.075
		c-4.696-2.146-8.899-3.22-12.477-3.041c-5.411-0.179-13.461,2.281-24.06,7.29l-14.176,7.29c1.073,0.447,2.459,1.342,4.338,2.639
		l9.838,4.695c10.599,4.964,18.649,7.424,24.06,7.29c3.578,0,7.781-1.029,12.477-3.041c-2.459,4.605-3.578,8.631-3.444,12.074
		c-0.134,5.412,2.326,13.416,7.29,23.971l7.245,14.623c0.894-1.117,1.789-2.771,2.594-4.785l5.143-9.838
		c4.695-10.555,7.155-18.559,7.334-23.971c-0.179-3.578-1.297-7.602-3.443-12.074c4.562,2.012,8.721,3.041,12.432,3.041
		c5.322,0.135,13.148-2.326,23.658-7.29l10.285-4.695c1.565-1.297,2.952-2.191,4.249-2.639l-14.534-7.29
		c-10.51-5.009-18.336-7.468-23.658-7.29c-3.711,0-7.87,1.029-12.432,3.041C411.354,269.493,412.473,265.468,412.651,261.891
		L412.651,261.891z M404.87,292.39c-2.013,2.146-4.383,3.131-7.29,2.952c-2.683,0-5.009-0.939-6.842-2.952
		c-2.191-1.878-3.131-4.114-2.997-6.887c-0.134-2.952,0.805-5.277,2.997-6.842c1.833-2.146,4.159-3.13,6.842-2.997
		c2.907-0.134,5.277,0.85,7.29,2.997c1.744,1.565,2.639,3.891,2.639,6.842C407.509,288.276,406.614,290.512,404.87,292.39
		L404.87,292.39z"/>
</g>
</svg>
