<?xml version="1.0" encoding="utf-8"?>
<!-- Generator: Adobe Illustrator 16.0.0, SVG Export Plug-In . SVG Version: 6.00 Build 0)  -->
<!DOCTYPE svg PUBLIC "-//W3C//DTD SVG 1.1//EN" "http://www.w3.org/Graphics/SVG/1.1/DTD/svg11.dtd">
<svg version="1.1" id="Layer_1" xmlns="http://www.w3.org/2000/svg" xmlns:xlink="http://www.w3.org/1999/xlink" x="0px" y="0px"
	 width="800px" height="600px" viewBox="0 0 800 600" enable-background="new 0 0 800 600" xml:space="preserve">
<g>
	<g>
		<path fill="#E9A8BF" d="M400.378,303.695c-9.209,0-16.72-7.51-16.72-16.72s7.51-16.72,16.72-16.72
			c9.209,0,16.721,7.511,16.721,16.72S409.587,303.695,400.378,303.695z"/>
		<path fill="#E9A8BF" d="M400.378,270.255c-9.21,0-16.72,7.51-16.72,16.72s7.511,16.72,16.72,16.72s16.721-7.511,16.721-16.72
			S409.587,270.255,400.378,270.255z"/>
		<path fill="#E9A8BF" d="M400.378,205.834c-44.69,0-81.141,36.451-81.141,81.141c0,44.691,36.449,81.142,81.141,81.142
			s81.141-36.452,81.141-81.142C481.519,242.284,445.068,205.834,400.378,205.834z M437.41,311.958
			c-4.986-0.521-9.661-2.685-14.491-4.024c0.806,4.83,2.145,9.602,2.415,14.489c0.925,16.644-8.927,29.787-25.761,29.787
			s-24.151-15.487-24.151-29.787c0-4.104,0-8.854,3.22-14.489c-4.024,2.414-9.66,4.024-15.296,4.024
			c-15.569,0-28.98-9.844-28.98-25.762c0-15.917,14.335-26.451,28.98-24.956c5.245,0.535,10.198,2.683,15.296,4.025
			c-3.22-5.635-3.524-11.213-3.22-16.101c0.861-13.775,7.908-28.177,24.151-28.177c16.244,0,25.761,12.201,25.761,28.177
			c0,6.44-1.609,12.076-2.415,16.101c4.83-1.342,9.505-3.506,14.491-4.025c14.075-1.466,29.786,9.167,29.786,24.956
			S453.899,313.675,437.41,311.958z"/>
	</g>
</g>
</svg>
