<?xml version="1.0" encoding="utf-8"?>
<!-- Generator: Adobe Illustrator 16.0.0, SVG Export Plug-In . SVG Version: 6.00 Build 0)  -->
<!DOCTYPE svg PUBLIC "-//W3C//DTD SVG 1.1//EN" "http://www.w3.org/Graphics/SVG/1.1/DTD/svg11.dtd">
<svg version="1.1" id="Layer_1" xmlns="http://www.w3.org/2000/svg" xmlns:xlink="http://www.w3.org/1999/xlink" x="0px" y="0px"
	 width="841.89px" height="595.28px" viewBox="0 0 841.89 595.28" enable-background="new 0 0 841.89 595.28" xml:space="preserve">
<g>
	<polygon fill-rule="evenodd" clip-rule="evenodd" fill="#FFFFFF" points="324.567,201.262 517.322,201.262 517.322,394.018 
		324.567,394.018 324.567,201.262 	"/>
	<path fill-rule="evenodd" clip-rule="evenodd" fill="#231F20" d="M367.308,272.739c-9.88,11.604-19.355,25.994-19.45,36.75
		c-0.037,4.047,1.255,7.58,4.354,10.258c4.46,3.852,9.374,5.211,14.264,5.219c7.146,0.01,14.242-2.873,19.798-5.096
		c9.357-3.742,112.79-48.659,112.79-48.659c0.998-0.5,0.811-1.123-0.438-0.811c-0.504,0.126-112.603,30.505-112.603,30.505
		c-2.164,0.607-4.374,0.922-6.524,0.934c-8.615,0.051-16.281-4.731-16.219-14.808C363.304,283.086,364.511,278.333,367.308,272.739
		L367.308,272.739z"/>
</g>
</svg>
