<?xml version="1.0" encoding="utf-8"?>
<!-- Generator: Adobe Illustrator 18.1.0, SVG Export Plug-In . SVG Version: 6.00 Build 0)  -->
<!DOCTYPE svg PUBLIC "-//W3C//DTD SVG 1.1//EN" "http://www.w3.org/Graphics/SVG/1.1/DTD/svg11.dtd">
<svg version="1.1" id="Layer_1" xmlns="http://www.w3.org/2000/svg" xmlns:xlink="http://www.w3.org/1999/xlink" x="0px" y="0px"
	 viewBox="0 0 870.6 870.5" enable-background="new 0 0 870.6 870.5" xml:space="preserve">
<g>
	<path fill="#010101" d="M509.1,0.5l48.7,149.7L430.5,57.6l-126.7,92.2l48.6-149L10.7,0v870.5l279.9,0.7L224.5,824h157.8l48.4-148.8
		L479.2,824h157.4l-65.7,47.1l285-0.6V0L509.1,0.5z M135.8,791c0,2.8-2.4,5.2-5.2,5.2H72.2c-2.8,0-5.2-2.4-5.2-5.2v-31.3
		c0-2.8,2.4-5.2,5.2-5.2h58.4c2.8,0,5.2,2.4,5.2,5.2V791z M135.8,676.7c0,2.8-2.4,5.2-5.2,5.2H72.2c-2.8,0-5.2-2.4-5.2-5.2v-31.3
		c0-2.8,2.4-5.2,5.2-5.2h58.4c2.8,0,5.2,2.4,5.2,5.2V676.7z M135.8,562.4c0,2.8-2.4,5.2-5.2,5.2H72.2c-2.8,0-5.2-2.4-5.2-5.2v-31.3
		c0-2.8,2.4-5.2,5.2-5.2h58.4c2.8,0,5.2,2.4,5.2,5.2V562.4z M135.8,448.2c0,2.8-2.4,5.2-5.2,5.2H72.2c-2.8,0-5.2-2.4-5.2-5.2V417
		c0-2.8,2.4-5.2,5.2-5.2h58.4c2.8,0,5.2,2.4,5.2,5.2V448.2z M135.8,333.9c0,2.8-2.4,5.2-5.2,5.2H72.2c-2.8,0-5.2-2.4-5.2-5.2v-31.3
		c0-2.8,2.4-5.2,5.2-5.2h58.4c2.8,0,5.2,2.4,5.2,5.2V333.9z M135.8,219.7c0,2.8-2.4,5.2-5.2,5.2H72.2c-2.8,0-5.2-2.4-5.2-5.2v-31.3
		c0-2.8,2.4-5.2,5.2-5.2h58.4c2.8,0,5.2,2.4,5.2,5.2V219.7z M135.8,105.4c0,2.8-2.4,5.2-5.2,5.2H72.2c-2.8,0-5.2-2.4-5.2-5.2V74.2
		c0-2.8,2.4-5.2,5.2-5.2h58.4c2.8,0,5.2,2.4,5.2,5.2V105.4z M509.1,457.6l48.7,149.6l-127.3-92.6l-126.7,92.2l48.6-149l-127.8-92.5
		h157.8l48.4-148.9l48.4,148.9h157.4L509.1,457.6z M799.6,791c0,2.8-2.4,5.2-5.2,5.2H736c-2.8,0-5.2-2.4-5.2-5.2v-31.3
		c0-2.8,2.4-5.2,5.2-5.2h58.4c2.8,0,5.2,2.4,5.2,5.2V791z M799.6,676.7c0,2.8-2.4,5.2-5.2,5.2H736c-2.8,0-5.2-2.4-5.2-5.2v-31.3
		c0-2.8,2.4-5.2,5.2-5.2h58.4c2.8,0,5.2,2.4,5.2,5.2V676.7z M799.6,562.4c0,2.8-2.4,5.2-5.2,5.2H736c-2.8,0-5.2-2.4-5.2-5.2v-31.3
		c0-2.8,2.4-5.2,5.2-5.2h58.4c2.8,0,5.2,2.4,5.2,5.2V562.4z M799.6,448.2c0,2.8-2.4,5.2-5.2,5.2H736c-2.8,0-5.2-2.4-5.2-5.2V417
		c0-2.8,2.4-5.2,5.2-5.2h58.4c2.8,0,5.2,2.4,5.2,5.2V448.2z M799.6,333.9c0,2.8-2.4,5.2-5.2,5.2H736c-2.8,0-5.2-2.4-5.2-5.2v-31.3
		c0-2.8,2.4-5.2,5.2-5.2h58.4c2.8,0,5.2,2.4,5.2,5.2V333.9z M799.6,219.7c0,2.8-2.4,5.2-5.2,5.2H736c-2.8,0-5.2-2.4-5.2-5.2v-31.3
		c0-2.8,2.4-5.2,5.2-5.2h58.4c2.8,0,5.2,2.4,5.2,5.2V219.7z M799.6,105.4c0,2.8-2.4,5.2-5.2,5.2H736c-2.8,0-5.2-2.4-5.2-5.2V74.2
		c0-2.8,2.4-5.2,5.2-5.2h58.4c2.8,0,5.2,2.4,5.2,5.2V105.4z"/>
</g>
</svg>
