<?xml version="1.0" encoding="utf-8"?>
<!-- Generator: Adobe Illustrator 18.1.0, SVG Export Plug-In . SVG Version: 6.00 Build 0)  -->
<!DOCTYPE svg PUBLIC "-//W3C//DTD SVG 1.1//EN" "http://www.w3.org/Graphics/SVG/1.1/DTD/svg11.dtd">
<svg version="1.1" id="Layer_1" xmlns="http://www.w3.org/2000/svg" xmlns:xlink="http://www.w3.org/1999/xlink" x="0px" y="0px"
	 viewBox="0 0 870.6 870.5" enable-background="new 0 0 870.6 870.5" xml:space="preserve">
<g>
	<path fill="#020202" d="M788.9,742.6c-49.2-110.8-117.6-183.3-172.3-227c41-5.5,87.6-21.9,153.1-58.8l20.5-10.9l-9.6-23.2
		l-51.9-119l-12.2-27.4l-26,15c-1.4,1.4-56,28.7-119,21.9c68.4-17.8,119-79.4,119-153.1c0-88.9-71.1-160-160-160
		c-87.6,0-158.6,71.2-158.6,160c0,35.5,12.3,68.4,32.8,95.8c-86.2,58.7-110.8,155.8-117.6,242c-2.7,21.9-4.1,28.7-4.1,31.4
		c-54.7,112.1-172.3,128.6-177.8,129.9l-34.2,4.1l12.3,31.4l56,151.8l6.8,21.9l23.2-5.5C340.2,827.4,401.7,748,450.9,683.8
		C571.3,743.9,615.1,841,615.1,841c4.1,5.5,13.7,24.6,13.7,24.6l23.2-15l125.8-73.9l21.9-12.3L788.9,742.6z M530.4,57.4
		C587.9,57.4,633,102.6,633,160c0,56-45.1,101.2-102.6,101.2c-56,0-101.2-45.1-101.2-101.2C429.2,102.6,474.4,57.4,530.4,57.4z
		 M650.8,789.1c-21.9-39.6-76.6-112.1-197-164.1c-4.1-2.7-8.2-4.1-12.3-4.1c-6.8,0-13.7,4.1-17.8,8.2l-12.2,16.5
		c-43.7,58.7-93,124.4-229.8,160l-36.9-99.9c47.8-13.6,138.1-51.9,186-153.1c4.1-5.5,6.8-19.1,9.6-49.2C350,391.1,380,331,445.6,294
		c16.4,9.6,34.2,17.8,54.7,21.9c0,1.4,0,4.1,0,6.8c1.4,8.2,1.4,16.4,4.1,23.2l5.5,12.3l12.3,4.1c67.1,23.2,132.7,4.1,168.2-10.9
		l31.4,69.8c-99.9,51.9-143.6,45.1-195.6,36.9c0,0-12.3-1.4-16.4-1.4c-15,0-23.2,10.9-26,26c-2.7,16.4,12.3,23.2,12.3,23.2
		c5.5,5.5,143.6,57.4,233.9,236.6L650.8,789.1z"/>
</g>
</svg>
