<?xml version="1.0" encoding="utf-8"?>
<!-- Generator: Adobe Illustrator 18.0.0, SVG Export Plug-In . SVG Version: 6.00 Build 0)  -->
<!DOCTYPE svg PUBLIC "-//W3C//DTD SVG 1.1//EN" "http://www.w3.org/Graphics/SVG/1.1/DTD/svg11.dtd">
<svg version="1.1" id="Layer_1" xmlns="http://www.w3.org/2000/svg" xmlns:xlink="http://www.w3.org/1999/xlink" x="0px" y="0px"
	 viewBox="0 0 870.6 870.5" enable-background="new 0 0 870.6 870.5" xml:space="preserve">
<rect x="323.5" y="57.1" fill="#9E1D20" width="183.6" height="25.6"/>
<path fill="#9E1D20" d="M254.6,105.6c1.7-0.1,3.7,0.3,6.3,2.1l36.9,25.1c4.6,3.4,7.7,9.6,7.7,14.6l-0.4,34.6v0.1v0.1
	c0,13.6,6.9,25.3,15.8,33.4c5.2,4.8,11.3,8.6,17.7,10.9c-6.4,2.3-12.4,6.1-17.7,10.9c-8.9,8.1-15.8,19.7-15.8,33.4v0.1v0.1l0.4,34.8
	c0,5-3.4,11.3-8,14.7L260.9,345c-3.6,2.4-5.8,2.3-7.8,1.8c-2.1-0.5-4.1-2-5.5-4.1c-2.7-4.2-3.9-9.1,4-14.8l0.1-0.1l0.1-0.1
	l17.7-13.5c6-4.3,14.3-11.5,14.3-23.8v-0.1v-0.1l-0.4-28.3c0-6-2.2-12.9-8.3-17.5c-6.1-4.6-14.8-5.2-23.2-2.5c-6,2-9.9,4.1-13,5.2
	c-3.1,1.2-5.8,1.9-11.5,1.9c-8,0-13-3-16.7-7.4c-3.7-4.3-5.6-10.4-5.6-14.4v-2.1c0-4,1.9-10,5.6-14.4c3.7-4.3,8.7-7.4,16.7-7.4
	c5.7,0,8.4,0.7,11.5,1.9c3.1,1.2,7,3.3,13,5.2c8.3,2.7,17.1,2.2,23.2-2.5c6.1-4.6,8.3-11.6,8.3-17.6l0.4-28.2v-0.1v-0.1
	c0-12.3-8.6-19.7-14.6-24L251.8,125l-0.1-0.1l-0.1-0.1c-7.9-5.7-6.8-10.6-4-14.8c1.4-2.1,3.4-3.6,5.5-4.1
	C253.6,105.8,254.1,105.7,254.6,105.6z"/>
<linearGradient id="SVGID_1_" gradientUnits="userSpaceOnUse" x1="574.2974" y1="678.7516" x2="786.2076" y2="48.6513" gradientTransform="matrix(1 0 0 -1 -197.5601 864.2246)">
	<stop  offset="0" style="stop-color:#1A7139"/>
	<stop  offset="1" style="stop-color:#15532A"/>
</linearGradient>
<path fill="url(#SVGID_1_)" d="M575.5,129.4c20.4,13.4,41.6,28.4,58.2,49c18.6,23.1,31.8,52.9,31.8,96.7
	c0,82.4-76.9,148.5-150.9,148.5H335.8c-5.1,0-10.3,2.3-13.4,5.9s-4.4,7.9-4.4,12.1c0,4.2,1.4,8.4,4.5,11.9c3.1,3.5,8.2,5.9,13.3,5.9
	h174.6c62.8,0,96.2,40.4,96.2,88.1c0,46.5-34.8,90.2-95.8,90.2H330.9c-4.4,0-9,2-11.9,5.2c-2.9,3.2-4.1,7-4,10.7
	c0,3.7,1.2,7.5,4.1,10.6c2.8,3.1,7.5,5.1,11.8,5.1h133.9c28.8,0,53.3,28.1,53.3,54.9c0,13.6-3.9,26.2-12.4,35.3
	c-8.6,9.1-22.2,15.7-45.2,15.7h-80.3c-3.2,0-6.6,0.7-9.7,2.9c-3.1,2.2-5.6,6.5-5.5,10.9c0.1,4.4,2.7,8.2,5.7,10.4s6.3,2.9,9.5,2.9
	h53.3c7.5,0,13.1,3.3,17.5,8.6c4.4,5.3,6.9,12.8,6.9,18.8c0,7.4-2.8,14.3-7.6,18.6c-3.1,2.8-7.5,4.7-13.5,5.2
	c0.3-3.1,0.3-6.6-1.7-10.7c-2.4-5-9.2-8.9-15-8.9h-32c-11.1,0-23.4-4.2-32.5-12.1c-9.1-7.9-15.3-19.1-15.3-35.3
	c0-14.9,6.2-25.5,15-33.1c8.8-7.6,20.5-11.6,29.2-11.6h78.5c3.5,0,7-0.6,10.3-2.6c3.3-2,6.7-6.2,6.7-11.5c0-5.2-3.4-9.5-6.7-11.5
	c-3.3-2-6.7-2.6-10.3-2.6h-123c-47.3,0-73.7-33.5-73.7-69.6c0-32.2,27.6-70.4,69.4-70.4h183.1c5,0,10.1-2.3,13.2-5.9
	c3.1-3.6,4.2-7.8,4.2-11.8c0-4-1.3-8.2-4.3-11.7c-3-3.5-8.1-5.8-13.1-5.8H332.4c-52.1,0-93.4-38.7-93.4-97
	c0-48.8,39.9-98.8,98.9-98.8h169c9.2,0,17.5-4.1,22.6-10.2c5.1-6.1,7.3-13.5,7.4-20.8c0-7.3-2.1-14.9-7.2-21s-13.4-10.2-22.7-10.2
	H326.6l-0.1-10.1c0-6.2,3.4-12.5,8.8-17.5c5.4-5,12.8-7.8,17.2-7.8h101c3.9,0,7.8-0.9,11.6-3.5c3.8-2.6,7.3-8.3,7.3-15.3
	c0-7.3-2.2-10.9-7.3-15.3c-3.8-2.6-7.7-3.5-11.6-3.5h-101c-4.5,0-11.8-2.8-17.2-7.8c-5.4-5-8.8-11.3-8.8-17.6l0.1-6.2h123.3
	c6.8,0,13.1-2.2,18-6c4.9-3.8,8.9-9.5,8.9-16.8V144h60C552.3,144,565.8,138.2,575.5,129.4z"/>
<g>
	<path fill="none" d="M253,346.9c2.1,0.5,4.3,0.5,7.8-1.8l36.7-24.9c4.6-3.4,8-9.7,8-14.7l-0.4-34.8v-0.1v-0.1
		c0-13.6,6.9-25.3,15.8-33.4c5.2-4.8,11.3-8.6,17.7-10.9c-6.4-2.3-12.4-6.1-17.7-10.9c-8.9-8.1-15.8-19.7-15.8-33.4v-0.1V182
		l0.4-34.6c0-5-3.1-11.2-7.7-14.6L261,107.8c-2.7-1.8-4.6-2.2-6.3-2.1c-0.6,0-1.1,0.1-1.6,0.2c-2.1,0.5-4.1,2-5.5,4.1
		c-2.7,4.2-3.9,9.1,4,14.8l0.1,0.1l0.1,0.1l17.4,13.3c6,4.3,14.6,11.6,14.6,24v0.1v0.1l-0.4,28.2c0,6-2.2,13-8.3,17.6
		c-6.1,4.6-14.8,5.2-23.2,2.5c-6-2-9.9-4.1-13-5.2c-3.1-1.2-5.8-1.9-11.5-1.9c-8,0-13,3-16.7,7.4c-3.7,4.3-5.6,10.4-5.6,14.4v2.1
		c0,4,1.9,10,5.6,14.4s8.7,7.4,16.7,7.4c5.7,0,8.4-0.7,11.5-1.9c3.1-1.2,7-3.3,13-5.2c8.3-2.7,17.1-2.2,23.2,2.5
		c6.1,4.6,8.3,11.4,8.3,17.5l0.4,28.3v0.1v0.1c0,12.3-8.4,19.5-14.3,23.8l-17.7,13.5l-0.1,0.1l-0.1,0.1c-7.9,5.7-6.8,10.6-4,14.8
		C248.9,344.9,251,346.4,253,346.9z"/>
	<path fill="none" d="M326.9,305.4c0,6.1-1.5,11.8-4.1,17.1c4.9-0.6,9.9-0.9,15.1-0.9h169c3.5,0,4.8-0.9,6.2-2.6
		c1.3-1.6,2.4-4.4,2.4-7.2c0-2.9-1-5.6-2.3-7.2c-1.3-1.6-2.7-2.6-6.3-2.6H326.9l0.1,3.3V305.4L326.9,305.4z"/>
	<path fill="none" d="M575.5,129.4c-9.7,8.9-23.2,14.6-38.7,14.6h-60v9.2c0,7.3-4,13-8.9,16.8c-4.9,3.8-11.1,6-18,6H326.6l-0.1,6.2
		c0,6.2,3.4,12.6,8.8,17.6c5.4,5,12.8,7.8,17.2,7.8h101c3.9,0,7.8,0.9,11.6,3.5c5.2,4.4,7.3,8.1,7.3,15.3c0,7.1-3.5,12.7-7.3,15.3
		c-3.8,2.6-7.7,3.5-11.6,3.5h-101c-4.5,0-11.8,2.8-17.2,7.8c-5.4,5-8.8,11.2-8.8,17.5l0.1,10.1H507c9.3,0,17.6,4.1,22.7,10.2
		s7.3,13.6,7.2,21s-2.3,14.8-7.4,20.8c-5.1,6.1-13.3,10.2-22.6,10.2H338c-59,0-98.9,50-98.9,98.8c0,58.4,41.2,97,93.4,97h186.5
		c5,0,10.1,2.3,13.1,5.8c3,3.5,4.3,7.6,4.3,11.7c0,4-1.2,8.3-4.2,11.8c-3.1,3.5-8.2,5.9-13.2,5.9H335.8c-41.8,0-69.4,38.2-69.4,70.4
		c0,36.1,26.4,69.6,73.7,69.6h123c3.5,0,7,0.6,10.3,2.6s6.7,6.2,6.7,11.5s-3.4,9.5-6.7,11.5c-3.3,2-6.8,2.6-10.3,2.6h-78.5
		c-8.6,0-20.3,4-29.2,11.6c-8.8,7.6-15,18.2-15,33.1c0,16.2,6.2,27.4,15.3,35.3c9.1,7.9,21.4,12.1,32.5,12.1h32
		c5.8,0,12.6,3.9,15,8.9c2.1,4.2,2,7.7,1.7,10.7c6-0.5,10.3-2.4,13.5-5.2c4.9-4.3,7.6-11.2,7.6-18.6c0-6-2.6-13.5-6.9-18.8
		c-4.4-5.3-10-8.6-17.5-8.6h-53.3c-3.2,0-6.5-0.8-9.5-2.9s-5.5-5.9-5.7-10.4c-0.1-4.4,2.4-8.7,5.5-10.9c3.1-2.2,6.5-2.9,9.7-2.9
		h80.3c23,0,36.6-6.6,45.2-15.7c8.5-9.1,12.4-21.7,12.4-35.3c0-26.8-24.5-54.9-53.3-54.9H330.9c-4.4,0-9-2-11.8-5.1
		c-2.8-3.1-4-6.9-4.1-10.6c0-3.7,1.2-7.6,4-10.7c2.9-3.2,7.5-5.2,11.9-5.2h179.9c61,0,95.8-43.7,95.8-90.2
		c0-47.7-33.5-88.1-96.2-88.1H335.8c-5.1,0-10.2-2.4-13.3-5.9c-3.1-3.5-4.5-7.8-4.5-11.9c0-4.2,1.2-8.5,4.4-12.1
		c3.2-3.6,8.3-5.9,13.4-5.9h178.8c74,0,150.9-66.2,150.9-148.5c0-43.8-13.2-73.6-31.8-96.7C617.2,157.8,596,142.7,575.5,129.4z"/>
	
		<linearGradient id="SVGID_2_" gradientUnits="userSpaceOnUse" x1="2243.3984" y1="1413.2871" x2="3288.1543" y2="520.9365" gradientTransform="matrix(1 0 0 -1 -2342.8662 1027.7148)">
		<stop  offset="0" style="stop-color:#F6F5C1"/>
		<stop  offset="0.5089" style="stop-color:#F8E35E"/>
		<stop  offset="0.75" style="stop-color:#F8D35F"/>
		<stop  offset="1" style="stop-color:#ED8E22"/>
	</linearGradient>
	<rect x="323.5" y="41.3" fill="url(#SVGID_2_)" width="183.6" height="25.6"/>
	
		<linearGradient id="SVGID_3_" gradientUnits="userSpaceOnUse" x1="2296.2542" y1="1475.1699" x2="3341.0103" y2="582.8194" gradientTransform="matrix(1 0 0 -1 -2342.8662 1027.7148)">
		<stop  offset="0" style="stop-color:#F6F5C1"/>
		<stop  offset="0.5089" style="stop-color:#F8E35E"/>
		<stop  offset="0.75" style="stop-color:#F8D35F"/>
		<stop  offset="1" style="stop-color:#ED8E22"/>
	</linearGradient>
	<circle fill="url(#SVGID_3_)" cx="495.8" cy="15.8" r="15.8"/>
	
		<linearGradient id="SVGID_4_" gradientUnits="userSpaceOnUse" x1="2228.3652" y1="1395.6835" x2="3273.1211" y2="503.3329" gradientTransform="matrix(1 0 0 -1 -2342.8662 1027.7148)">
		<stop  offset="0" style="stop-color:#F6F5C1"/>
		<stop  offset="0.5089" style="stop-color:#F8E35E"/>
		<stop  offset="0.75" style="stop-color:#F8D35F"/>
		<stop  offset="1" style="stop-color:#ED8E22"/>
	</linearGradient>
	<circle fill="url(#SVGID_4_)" cx="334.8" cy="15.8" r="15.8"/>
	
		<linearGradient id="SVGID_5_" gradientUnits="userSpaceOnUse" x1="2279.2715" y1="1455.2948" x2="3324.0276" y2="562.9442" gradientTransform="matrix(1 0 0 -1 -2342.8662 1027.7148)">
		<stop  offset="0" style="stop-color:#F6F5C1"/>
		<stop  offset="0.5089" style="stop-color:#F8E35E"/>
		<stop  offset="0.75" style="stop-color:#F8D35F"/>
		<stop  offset="1" style="stop-color:#ED8E22"/>
	</linearGradient>
	<circle fill="url(#SVGID_5_)" cx="455.5" cy="15.8" r="15.8"/>
	
		<linearGradient id="SVGID_6_" gradientUnits="userSpaceOnUse" x1="2262.3193" y1="1435.4265" x2="3307.0752" y2="543.0766" gradientTransform="matrix(1 0 0 -1 -2342.8662 1027.7148)">
		<stop  offset="0" style="stop-color:#F6F5C1"/>
		<stop  offset="0.5089" style="stop-color:#F8E35E"/>
		<stop  offset="0.75" style="stop-color:#F8D35F"/>
		<stop  offset="1" style="stop-color:#ED8E22"/>
	</linearGradient>
	<circle fill="url(#SVGID_6_)" cx="415.3" cy="15.8" r="15.8"/>
	
		<linearGradient id="SVGID_7_" gradientUnits="userSpaceOnUse" x1="2245.3416" y1="1415.5636" x2="3290.0977" y2="523.2137" gradientTransform="matrix(1 0 0 -1 -2342.8662 1027.7148)">
		<stop  offset="0" style="stop-color:#F6F5C1"/>
		<stop  offset="0.5089" style="stop-color:#F8E35E"/>
		<stop  offset="0.75" style="stop-color:#F8D35F"/>
		<stop  offset="1" style="stop-color:#ED8E22"/>
	</linearGradient>
	<circle fill="url(#SVGID_7_)" cx="375.1" cy="15.8" r="15.8"/>
	
		<linearGradient id="SVGID_8_" gradientUnits="userSpaceOnUse" x1="2226.365" y1="1393.3435" x2="3271.1208" y2="500.9937" gradientTransform="matrix(1 0 0 -1 -2342.8662 1027.7148)">
		<stop  offset="0" style="stop-color:#F6F5C1"/>
		<stop  offset="0.5089" style="stop-color:#F8E35E"/>
		<stop  offset="0.75" style="stop-color:#F8D35F"/>
		<stop  offset="1" style="stop-color:#ED8E22"/>
	</linearGradient>
	<rect x="323.5" y="75.8" fill="url(#SVGID_8_)" width="183.6" height="25.6"/>
	
		<linearGradient id="SVGID_9_" gradientUnits="userSpaceOnUse" x1="2057.5305" y1="1195.6749" x2="3102.2866" y2="303.3251" gradientTransform="matrix(1 0 0 -1 -2342.8662 1027.7148)">
		<stop  offset="0" style="stop-color:#F6F5C1"/>
		<stop  offset="0.5089" style="stop-color:#F8E35E"/>
		<stop  offset="0.75" style="stop-color:#F8D35F"/>
		<stop  offset="1" style="stop-color:#ED8E22"/>
	</linearGradient>
	<path fill="url(#SVGID_9_)" d="M650.4,165c-21.2-26.4-48-43.9-70.8-58.5c-1.8-1.2-3.9-1.7-6.1-1.7c-3.3,0.1-6.4,1.7-8.4,4.4
		c-5.3,7.3-15.3,13.5-28.4,13.5h-98.4c-4.9,0-9.6,1.3-13.7,4.3c-4,2.9-7.6,8.2-7.6,14.4v11.2c-0.1,0.1-0.1,0.2-0.6,0.6
		c-1,0.7-2.9,1.5-5,1.5h-84.7l0.1-7.1v-0.1v-0.1c0-12.9-6.6-24.6-16.7-32l-0.2-0.1l-0.1-0.1L272.8,90l-0.1-0.1l-0.1,0
		c-5.9-3.9-12.5-5.7-18.7-5.6c-2.1,0-4.1,0.3-6.1,0.8c-7.8,1.9-14.2,6.9-18.3,13.2c-8.2,12.6-6.3,32.6,9.5,43.9l17.4,13.3l0.1,0.1
		l0.1,0.1c3.7,2.6,5.7,5.8,5.7,6.6l-0.4,28.2v0.1v0.1c0,0.3-0.1,0.4-0.1,0.6c-0.5,0-1.4-0.1-3.4-0.7c-4.1-1.3-7.2-3.1-12.1-4.9
		c-4.8-1.8-11.1-3.3-19-3.3c-14.1,0-25.7,6.4-32.9,14.8c-2.5,3-4.6,6.1-6.3,9.4v-1.1c-1.6,5.6-3,12.9-2.9,21.4
		c0.1,9.3,1.3,15,2.9,19.6v-0.1c1.6,3.3,3.7,6.5,6.2,9.4c7.3,8.5,18.8,14.8,32.9,14.8c8,0,14.2-1.5,19.1-3.3c4.8-1.8,8-3.6,12.1-4.9
		c1.9-0.6,2.9-0.7,3.4-0.7c0,0.1,0.1,0.2,0.1,0.6v0.1v0.1l0.4,28.3c0,0.9-2,3.9-5.7,6.5l-0.1,0.1l-0.1,0.1l-17.6,13.5
		c-15.8,11.3-17.4,31-9.2,43.6c3.5,5.4,8.6,9.7,14.9,12.1c-17.1,21.4-26.9,48.2-26.9,75.1c0,59.3,38.5,104.3,89.5,115.6
		C269,570.2,245,608.4,245,644.2c0,47,37.2,91,95,91h4.2c-0.9,0.7-1.9,1.4-2.8,2.2c-12.8,11.1-22.4,28.1-22.4,49.3
		c0,21.9,9.3,39.8,22.6,51.4c13.3,11.6,30.2,17.4,46.6,17.4h26.7c-0.6,2-1.2,3.8-1.2,3.8c-1.3,3-1.2,6.4,0.3,9.2
		c1.5,2.9,4.2,4.9,7.4,5.5c6.5,1.3,12.6,1.5,18.3,0.9c7.7-1.3,22-5.4,32.4-18.5c-0.4,0.3-0.8,0.5-1.2,0.8c5.7-8.1,8.3-17.8,8.3-27.3
		c0-11.4-4.1-23-11.8-32.4c-0.3-0.4-0.7-0.7-1-1.1c24.3-1.2,42.8-9.4,54.8-22.3c13-13.9,18.2-32.2,18.2-49.9
		c0-26.1-14.6-51.3-36.8-65.2h8.1c71.5,0,117.1-54,117.1-111.5c0-48.7-31.7-92.4-84.4-105.4c75.7-14.2,143.4-82.3,143.4-167.1
		c0-11.5-0.9-22.3-2.5-32.4c-8.8-36.6-21-59.7-30.8-73.7c0.1,0.1,0.1,0.2,0.2,0.3C652.7,167.9,651.5,166.4,650.4,165z M251.6,328
		l0.1-0.1l0.1-0.1l17.7-13.5c6-4.3,14.3-11.5,14.3-23.8v-0.1v-0.1l-0.4-28.3c0-6-2.2-12.9-8.3-17.5c-6.1-4.6-14.8-5.2-23.2-2.5
		c-6,2-9.9,4.1-13,5.2c-3.1,1.2-5.8,1.9-11.5,1.9c-8,0-13-3-16.7-7.4c-3.7-4.3-5.6-10.4-5.6-14.4v-2.1c0-4,1.9-10,5.6-14.4
		c3.7-4.3,8.7-7.4,16.7-7.4c5.7,0,8.4,0.7,11.5,1.9c3.1,1.2,7,3.3,13,5.2c8.3,2.7,17.1,2.2,23.2-2.5c6.1-4.6,8.3-11.6,8.3-17.6
		l0.4-28.2v-0.1v-0.1c0-12.3-8.6-19.7-14.6-24L251.8,125l-0.1-0.1l-0.1-0.1c-7.9-5.7-6.8-10.6-4-14.8c1.4-2.1,3.4-3.6,5.5-4.1
		c0.5-0.1,1-0.2,1.6-0.2c1.7-0.1,3.7,0.3,6.3,2.1l36.9,25.1c4.6,3.4,7.7,9.6,7.7,14.6l-0.4,34.6v0.1v0.1c0,13.6,6.9,25.3,15.8,33.4
		c5.2,4.8,11.3,8.6,17.7,10.9c-6.4,2.3-12.4,6.1-17.7,10.9c-8.9,8.1-15.8,19.7-15.8,33.4v0.1v0.1l0.4,34.8c0,5-3.4,11.3-8,14.7
		L260.9,345c-3.6,2.4-5.8,2.3-7.8,1.8s-4.1-2-5.5-4.1C244.8,338.6,243.6,333.6,251.6,328z M326.9,302H507c3.6,0,5,1,6.3,2.6
		c1.3,1.6,2.3,4.3,2.3,7.2c0,2.9-1,5.6-2.4,7.2c-1.4,1.6-2.7,2.6-6.2,2.6H338c-5.1,0-10.2,0.3-15.1,0.9c2.6-5.2,4.1-11,4.1-17.1
		v-0.1v-0.1L326.9,302z M514.6,423.6H335.8c-5.1,0-10.3,2.3-13.4,5.9s-4.4,7.9-4.4,12.1c0,4.2,1.4,8.4,4.5,11.9
		c3.1,3.5,8.2,5.9,13.3,5.9h174.6c62.8,0,96.2,40.4,96.2,88.1c0,46.5-34.8,90.2-95.8,90.2H330.9c-4.4,0-9,2-11.9,5.2
		c-2.9,3.2-4.1,7-4,10.7c0,3.7,1.2,7.5,4.1,10.6c2.8,3.1,7.5,5.1,11.8,5.1h133.9c28.8,0,53.3,28.1,53.3,54.9
		c0,13.6-3.9,26.2-12.4,35.3c-8.6,9.1-22.2,15.7-45.2,15.7h-80.3c-3.2,0-6.6,0.7-9.7,2.9c-3.1,2.2-5.6,6.5-5.5,10.9
		c0.1,4.4,2.7,8.2,5.7,10.4s6.3,2.9,9.5,2.9h53.3c7.5,0,13.1,3.3,17.5,8.6c4.4,5.3,6.9,12.8,6.9,18.8c0,7.4-2.8,14.3-7.6,18.6
		c-3.1,2.8-7.5,4.7-13.5,5.2c0.3-3.1,0.3-6.6-1.7-10.7c-2.4-5-9.2-8.9-15-8.9h-32c-11.1,0-23.4-4.2-32.5-12.1
		c-9.1-7.9-15.3-19.1-15.3-35.3c0-14.9,6.2-25.5,15-33.1c8.8-7.6,20.5-11.6,29.2-11.6h78.5c3.5,0,7-0.6,10.3-2.6
		c3.3-2,6.7-6.2,6.7-11.5c0-5.2-3.4-9.5-6.7-11.5c-3.3-2-6.7-2.6-10.3-2.6h-123c-47.3,0-73.7-33.5-73.7-69.6
		c0-32.2,27.6-70.4,69.4-70.4h183.1c5,0,10.1-2.3,13.2-5.9c3.1-3.6,4.2-7.8,4.2-11.8c0-4-1.3-8.2-4.3-11.7c-3-3.5-8.1-5.8-13.1-5.8
		H332.4c-52.1,0-93.4-38.7-93.4-97c0-48.8,39.9-98.8,98.9-98.8h169c9.2,0,17.5-4.1,22.6-10.2c5.1-6.1,7.3-13.5,7.4-20.8
		c0-7.3-2.1-14.9-7.2-21s-13.4-10.2-22.7-10.2H326.6l-0.1-10.1c0-6.2,3.4-12.5,8.8-17.5c5.4-5,12.8-7.8,17.2-7.8h101
		c3.9,0,7.8-0.9,11.6-3.5c3.8-2.6,7.3-8.3,7.3-15.3c0-7.3-2.2-10.9-7.3-15.3c-3.8-2.6-7.7-3.5-11.6-3.5h-101
		c-4.5,0-11.8-2.8-17.2-7.8c-5.4-5-8.8-11.3-8.8-17.6l0.1-6.2h123.3c6.8,0,13.1-2.2,18-6c4.9-3.8,8.9-9.5,8.9-16.8V144h60
		c15.5,0,29.1-5.8,38.7-14.6c20.4,13.4,41.6,28.4,58.2,49c18.6,23.1,31.8,52.9,31.8,96.7C665.5,357.5,588.6,423.6,514.6,423.6z"/>
	
		<linearGradient id="SVGID_10_" gradientUnits="userSpaceOnUse" x1="354.0348" y1="707.2648" x2="604.9884" y2="25.8021" gradientTransform="matrix(1 0 0 -1 0 1226)">
		<stop  offset="0" style="stop-color:#FFFFFF"/>
		<stop  offset="1" style="stop-color:#79CED9"/>
	</linearGradient>
	<path fill="url(#SVGID_10_)" d="M473.6,854.6c-0.4,0.6-0.9,1.2-1.4,1.7c3.3-2.2,6.6-4.4,9.9-6.7C478.9,849.8,476,851.3,473.6,854.6
		z"/>
</g>
</svg>
