<?xml version="1.0" encoding="utf-8"?>
<!-- Generator: Adobe Illustrator 18.1.0, SVG Export Plug-In . SVG Version: 6.00 Build 0)  -->
<!DOCTYPE svg PUBLIC "-//W3C//DTD SVG 1.1//EN" "http://www.w3.org/Graphics/SVG/1.1/DTD/svg11.dtd">
<svg version="1.1" id="Layer_1" xmlns="http://www.w3.org/2000/svg" xmlns:xlink="http://www.w3.org/1999/xlink" x="0px" y="0px"
	 viewBox="0 0 870.6 870.5" enable-background="new 0 0 870.6 870.5" xml:space="preserve">
<path fill-rule="evenodd" clip-rule="evenodd" fill="#1D1D1B" d="M869.3,434.6C869.3,183.7,682.6,0,431.6,0C183.6,0,0,183.7,0,434.6
	c0,247.9,183.6,434.7,434.6,434.7C682.6,869.3,869.3,682.5,869.3,434.6L869.3,434.6z M795.8,434.6c0,211.2-153.1,367.3-364.2,367.3
	c-208.1,0-358.1-156.1-358.1-367.3c0-214.3,150-367.3,358.1-367.3C642.8,67.3,795.8,220.4,795.8,434.6L795.8,434.6z M315.3,661.1
	V269.4H251c-33.7,0-49,15.3-49,49v342.8H315.3L315.3,661.1z M550.9,661.1h113.2V318.3c0-33.7-12.2-49-49-49h-64.3V661.1L550.9,661.1
	z M489.7,661.1v-453c0-36.7-12.2-49-49-49H336.7v49h9.2c24.5,0,30.6,6.1,30.6,30.6v422.4H489.7L489.7,661.1z"/>
</svg>
