<?xml version="1.0" encoding="utf-8"?>
<!-- Generator: Adobe Illustrator 18.1.0, SVG Export Plug-In . SVG Version: 6.00 Build 0)  -->
<!DOCTYPE svg PUBLIC "-//W3C//DTD SVG 1.1//EN" "http://www.w3.org/Graphics/SVG/1.1/DTD/svg11.dtd">
<svg version="1.1" id="Layer_1" xmlns="http://www.w3.org/2000/svg" xmlns:xlink="http://www.w3.org/1999/xlink" x="0px" y="0px"
	 viewBox="0 0 870.6 870.5" enable-background="new 0 0 870.6 870.5" xml:space="preserve">
<g>
	<g>
		<path fill-rule="evenodd" clip-rule="evenodd" fill="#F8991D" d="M352.1,497.5c-33,24.3-80.8,37.3-121.9,37.3
			c-57.7,0-109.6-21.3-149-56.8c-3.1-2.8-0.3-6.6,3.4-4.4c42.4,24.7,94.9,39.5,149,39.5c36.5,0,76.7-7.6,113.7-23.3
			C352.9,487.4,357.5,493.4,352.1,497.5z"/>
		<path fill-rule="evenodd" clip-rule="evenodd" fill="#F8991D" d="M365.8,481.8c-4.2-5.4-27.9-2.6-38.5-1.3
			c-3.2,0.4-3.7-2.4-0.8-4.5c18.9-13.3,49.8-9.4,53.4-5c3.6,4.5-0.9,35.5-18.6,50.3c-2.7,2.3-5.3,1.1-4.1-1.9
			C361.1,509.5,370,487.2,365.8,481.8z"/>
	</g>
	<g>
		<path fill-rule="evenodd" clip-rule="evenodd" fill="#010101" d="M328,382.4v-12.9c0-2,1.5-3.3,3.3-3.3l57.7,0
			c1.8,0,3.3,1.3,3.3,3.3l0,11c0,1.9-1.6,4.3-4.3,8.1l-29.9,42.7c11.1-0.3,22.8,1.4,32.9,7.1c2.3,1.3,2.9,3.2,3.1,5v13.7
			c0,1.9-2.1,4.1-4.2,2.9c-17.8-9.3-41.4-10.3-61,0.1c-2,1.1-4.1-1.1-4.1-3v-13.1c0-2.1,0-5.7,2.1-8.9l34.6-49.7l-30.2,0
			C329.5,385.7,328.1,384.3,328,382.4z"/>
		<path fill-rule="evenodd" clip-rule="evenodd" fill="#010101" d="M117.4,462.9H99.9c-1.7-0.1-3-1.4-3.1-3l0-90.1
			c0-1.8,1.5-3.2,3.4-3.2l16.4,0c1.7,0.1,3.1,1.4,3.2,3v11.8h0.3c4.3-11.4,12.3-16.7,23.1-16.7c11,0,17.9,5.3,22.8,16.7
			c4.3-11.4,13.9-16.7,24.3-16.7c7.4,0,15.4,3,20.3,9.9c5.6,7.6,4.4,18.6,4.4,28.3l0,56.9c0,1.8-1.5,3.2-3.4,3.2H194
			c-1.8-0.1-3.2-1.5-3.2-3.2l0-47.8c0-3.8,0.3-13.3-0.5-16.9c-1.3-6.1-5.2-7.8-10.3-7.8c-4.3,0-8.7,2.8-10.5,7.4
			c-1.8,4.6-1.6,12.1-1.6,17.3v47.8c0,1.8-1.5,3.2-3.4,3.2H147c-1.8-0.1-3.2-1.5-3.2-3.2l0-47.8c0-10.1,1.6-24.9-10.8-24.9
			c-12.6,0-12.1,14.4-12.1,24.9l0,47.8C120.8,461.4,119.3,462.9,117.4,462.9z"/>
		<path fill-rule="evenodd" clip-rule="evenodd" fill="#010101" d="M442.1,364.6c26.1,0,40.2,22.4,40.2,50.8
			c0,27.5-15.6,49.3-40.2,49.3c-25.6,0-39.5-22.4-39.5-50.3C402.6,386.4,416.7,364.6,442.1,364.6z M442.2,383
			c-13,0-13.8,17.6-13.8,28.6c0,11-0.2,34.5,13.6,34.5c13.6,0,14.3-19,14.3-30.5c0-7.6-0.3-16.7-2.6-23.9
			C451.7,385.5,447.8,383,442.2,383z"/>
		<path fill-rule="evenodd" clip-rule="evenodd" fill="#010101" d="M516.1,462.9h-17.5c-1.8-0.1-3.2-1.5-3.2-3.2l0-90.2
			c0.1-1.6,1.6-2.9,3.4-2.9l16.3,0c1.5,0.1,2.8,1.1,3.1,2.5v13.8h0.3c4.9-12.3,11.8-18.2,23.9-18.2c7.9,0,15.6,2.8,20.5,10.6
			c4.6,7.2,4.6,19.3,4.6,28.1V460c-0.2,1.6-1.6,2.8-3.4,2.8h-17.6c-1.6-0.1-2.9-1.3-3.1-2.8v-48.9c0-9.9,1.1-24.3-11-24.3
			c-4.3,0-8.2,2.8-10.2,7.2c-2.5,5.5-2.8,11-2.8,17.1v48.5C519.4,461.4,517.9,462.9,516.1,462.9z"/>
		<path fill-rule="evenodd" clip-rule="evenodd" fill="#010101" d="M578.5,455.7c0-4.5,3.9-8.2,8.6-8.2s8.6,3.7,8.6,8.2
			c0,4.5-3.9,8.2-8.6,8.2S578.5,460.2,578.5,455.7z"/>
		<path fill="#010101" d="M764.6,462.9c-1.8-0.1-3.3-1.5-3.3-3.2v-90.2c0.1-1.6,1.5-2.9,3.1-3l6.4,0c1.8,0,3.2,1.3,3.4,3v13.1
			c4.6-10.4,13.1-18.6,23.9-18.6l0.7,0l0.6,0c11.5,0,19.8,8.5,22.9,20.7c4.9-12.1,14-20.7,26.1-20.7l0.6,0l0.7,0
			c8.5,0,16.7,5.5,21,13.8c4.1,8,3.9,18.6,3.9,27.5l0,54.2c0,1.7-1.4,3.1-3.2,3.2h-7.7c-1.7-0.1-3-1.2-3.2-2.8v-54.7
			c0-6.5,0.3-13.3-2.3-19.2c-2.7-6-7.8-9.8-13.3-10c-6.1,0.3-11.8,4.8-15.4,10.8c-4.8,7.8-4.6,14.8-4.6,23.9v49.2
			c-0.2,1.5-1.5,2.7-3.1,2.8h-7.7c-1.8-0.1-3.3-1.5-3.3-3.2l0-57.8c0-5.3-0.3-11.6-2.8-16.3c-2.8-5.5-7.9-9-13.3-9.3
			c-5.5,0.3-11.1,4.5-14.4,9.5c-4.3,6.3-5.1,14-5.1,22l0,52c0,1.7-1.4,3.1-3.2,3.2H764.6z"/>
		<path fill="#010101" d="M711.7,464.8c-24.9,0-36.1-25.4-36.1-50.8c0-26.7,13.1-49.9,38.2-49.9l0.6,0l0.7,0
			c24.4,0,36.6,24.7,36.6,50.1c0,26.9-13.4,50.7-38.7,50.7l-0.6,0L711.7,464.8z M713.5,452.4c8.2-0.3,14.7-5.3,18.5-13.8
			c3.4-7.6,4.1-16.3,4.1-24.7c0-9.1-1-18.6-5.2-26.4c-3.8-6.8-10.4-11.1-17.4-11.4c-7.8,0.3-14.7,5.5-18.2,13.6
			c-3.1,7-4.1,16.3-4.1,24.1c0,8.7,1.1,18.8,4.8,26.4C699.5,447.5,706.2,452.2,713.5,452.4z"/>
		<path fill="#010101" d="M633.8,452.1c11.2-0.4,17.1-9.3,19.5-20.9c0.5-1.4,1.6-2.6,3.2-2.6l7.4,0c1.7,0.1,3.3,1.4,3.2,3.1
			c-3.4,19.8-15.4,33.2-32.4,33.2l-0.7,0l-0.6,0c-24.8,0-35.4-24.9-35.4-50.1c0-25,10.8-50.7,35.6-50.7l0.7,0l0.7,0
			c17.2,0,29.4,13.2,32.1,33c0,1.5-1.4,2.8-3,3l-7.8-0.1c-1.6-0.2-2.7-1.6-2.9-3.2c-1.9-11-8.2-19.8-18.8-20.2
			c-16.8,0.5-21.6,21.3-21.6,37.2C613,429.1,617,451.5,633.8,452.1z"/>
		<path fill-rule="evenodd" clip-rule="evenodd" fill="#010101" d="M282,419.8c0,6.8,0.2,12.5-3.3,18.6c-2.8,4.9-7.2,8-12.2,8
			c-6.7,0-10.7-5.1-10.7-12.7c0-15,13.4-17.7,26.1-17.7V419.8z M299.7,462.6c-1.2,1-2.8,1.1-4.2,0.4c-5.8-4.8-6.9-7.1-10.1-11.7
			c-9.6,9.8-16.5,12.8-29,12.8c-14.8,0-26.3-9.1-26.3-27.4c0-14.3,7.7-24,18.7-28.7c9.5-4.2,22.8-4.9,33-6.1v-2.3
			c0-4.2,0.3-9.1-2.1-12.7c-2.1-3.2-6.2-4.6-9.9-4.6c-6.7,0-12.7,3.4-14.1,10.5c-0.3,1.6-1.5,3.1-3.1,3.2l-17-1.8
			c-1.4-0.3-3-1.5-2.6-3.7c3.9-20.7,22.6-26.9,39.3-26.9c8.5,0,19.7,2.3,26.5,8.7c8.5,8,7.7,18.6,7.7,30.2v27.4
			c0,8.2,3.4,11.8,6.6,16.3c1.1,1.6,1.4,3.5-0.1,4.7C309.6,454,303.3,459.6,299.7,462.6L299.7,462.6z"/>
		<path fill-rule="evenodd" clip-rule="evenodd" fill="#010101" d="M51.8,419.8c0,6.8,0.2,12.5-3.3,18.6c-2.8,4.9-7.2,8-12.2,8
			c-6.7,0-10.7-5.1-10.7-12.7c0-15,13.4-17.7,26.1-17.7V419.8z M69.5,462.6c-1.2,1-2.8,1.1-4.2,0.4c-5.8-4.8-6.9-7.1-10.1-11.7
			c-9.6,9.8-16.5,12.8-29,12.8C11.5,464.1,0,455,0,436.7c0-14.3,7.7-24,18.7-28.7c9.5-4.2,22.8-4.9,33-6.1v-2.3
			c0-4.2,0.3-9.1-2.1-12.7c-2.1-3.2-6.2-4.6-9.9-4.6c-6.7,0-12.7,3.4-14.1,10.5c-0.3,1.6-1.5,3.1-3.1,3.2l-17-1.8
			c-1.4-0.3-3-1.5-2.6-3.7c3.9-20.7,22.6-26.9,39.3-26.9c8.5,0,19.7,2.3,26.5,8.7c8.5,8,7.7,18.6,7.7,30.2v27.4
			c0,8.2,3.4,11.8,6.6,16.3c1.1,1.6,1.4,3.5-0.1,4.7C79.4,454,73,459.6,69.5,462.6L69.5,462.6z"/>
	</g>
</g>
</svg>
