<?xml version="1.0" encoding="utf-8"?>
<!-- Generator: Adobe Illustrator 18.0.0, SVG Export Plug-In . SVG Version: 6.00 Build 0)  -->
<!DOCTYPE svg PUBLIC "-//W3C//DTD SVG 1.1//EN" "http://www.w3.org/Graphics/SVG/1.1/DTD/svg11.dtd">
<svg version="1.1" id="Layer_1" xmlns="http://www.w3.org/2000/svg" xmlns:xlink="http://www.w3.org/1999/xlink" x="0px" y="0px"
	 viewBox="0 0 870.6 870.5" enable-background="new 0 0 870.6 870.5" xml:space="preserve">
<g id="american-airlines">
	<path fill="#04559F" d="M536.8,762L324.1,21.5L297.1,105c0,0-8.1,13.5,2.7,29.6l-16.2,10.8l-13.5,48.5c0,0-5.4,18.9,8.1,29.6
		l-16.1,5.4c0,0-21.5,51.2-8.1,78.1l10.8,5.4l-13.5,13.5l13.5,51.2c0,0-5.4,10.8,16.2,18.8l-10.8,18.8l16.2,53.9
		c0,0,5.4,16.2,18.8,21.5c13.5,5.4-10.8,16.2-10.8,16.2l18.8,53.9c0,0,0,10.8,18.9,10.8L321.4,587l70,237c0,0,24.2-8.1,24.2,5.4
		l5.4,13.5l-37.7,13.5h86.2c0,0-40.4-10.8-37.7-32.3l13.5-51.2c0,0,16.1-18.9,32.3,0l48.5,70c0,0,16.1,10.8,0,24.2
		c0,0,37.7-32.3,21.5-48.5C547.6,818.6,555.6,780.9,536.8,762L536.8,762z"/>
	<path fill="#04559F" d="M325.4,666.2l32.3,117.1c0,0-20.9,2-25.6,0.7c-4.7-1.3-7.4-12.1-7.4-12.1l-4,12.8c0,0-18.2,2-24.2,0.7
		c-6.1-1.3-7.4-15.5-7.4-15.5s-2.7,13.5-7.4,14.1c-4.7,0.7-23.6,0-23.6,0L325.4,666.2L325.4,666.2z"/>
	<path fill="#04559F" d="M441.6,352.7c0,0,78.1,280,86.2,285.4L614,317.7c0,0,18.9-40.4-5.4-80.8L535.9,0l-29.6,119.8
		c0,0,5.4,8.9,5.4,17.5c0,24.2,6.7,8.1,6.7,8.1l-21.5,2.7l-12.1,44.4l10.8,14.8c0,0-12.1,0-17.5,6.7l-9.4,48.5l10.8,16.2
		c0,0-13.5-1.3-20.2,10.8L441.6,352.7L441.6,352.7z"/>
</g>
</svg>
