<?xml version="1.0" encoding="utf-8"?>
<!-- Generator: Adobe Illustrator 18.0.0, SVG Export Plug-In . SVG Version: 6.00 Build 0)  -->
<!DOCTYPE svg PUBLIC "-//W3C//DTD SVG 1.1//EN" "http://www.w3.org/Graphics/SVG/1.1/DTD/svg11.dtd">
<svg version="1.1" id="Layer_1" xmlns="http://www.w3.org/2000/svg" xmlns:xlink="http://www.w3.org/1999/xlink" x="0px" y="0px"
	 viewBox="0 0 870.6 870.5" enable-background="new 0 0 870.6 870.5" xml:space="preserve">
<g>
	<g>
		<path fill="#010101" d="M6.3,123.7c3.1,16.3,1.7,37.1,14,44.3c0.1-22.6-9.6-71.5,5.8-88.5c1.2,23.7,2.8,46.9,15.1,59.4
			c1.4-24.6-6.3-65.3,12.8-78c-4.6,56.2,12,99.3,48.9,117.6c1.7-0.3-1.1-5.8,0-9.3c44.8,51.8,110.9,73.6,158.4,121.1
			c47.3,47.3,59.1,122.3,114.1,164.2c52-18.1,61.3-76,79.2-128.1c13-37.9,34.7-74.9,62.9-102.5c28.2-27.6,68.9-44.4,102.5-62.9
			c34.6-19.1,72.3-36.6,102.5-61.7c6.7-5.6,10.5-15.4,22.1-18.6c-0.7,23.4-19.9,38.3-29.1,57.1c21.1-5,37.6-20.4,53.6-33.8
			c8.4-7.1,16.2-13.9,23.3-22.1c6.8-7.8,11.2-18.3,21-23.3c0.9,28.2-16.7,47-32.6,62.9c-12.3,12.3-28.5,21.2-38.4,34.9
			c12.8,4.1,24.5-5.7,33.8-11.6c20.4-13,37.5-28.5,54.7-45.4C839.4,91,847,80.5,857.7,76c-3.6,48.4-45.6,68.5-71,99
			c30.8-6.9,60.2-31.4,83.9-45.4c-10.6,45.7-63.3,49.3-93.2,75.7c15.2,7.9,31.4-2.8,44.3-8.2c14.3-5.9,27.5-13.3,41.9-16.3
			c-5,43.1-60.2,46.1-90.9,67.5c19.4,8.3,42.5-8.3,62.9-10.5c-5,13.4-18.5,19.8-31.4,25.6c-13.3,6-29.8,6.2-39.6,16.3
			c3.1,9.2,16.8,2.5,24.4,2.3c-1.4,17.6-26,12-38.4,18.6c3.5,6.2,13.8,5.6,21,8.2c-5.2,18.5-43.8,3.5-52.4,18.6c2.5,6.8,14.6,4,21,7
			c-6.1,12.6-34.7,2.6-40.8,15.2c0.1,5.7,9.8,8,9.3,10.5c-3.9,10.4-30-1.3-32.6,10.5c0.5,4.5,5.2,4.9,8.1,7
			c-2.4,10.4-19.9,5.7-25.6,12.8c-1.4,6.7,7,4.9,8.2,5.8c0,10.5-11.6,9.4-15.1,16.3c-1.2,7.7,6.7,6.5,5.8,14
			c-5.3,1.1-13.8-0.7-15.1,7c1.4,7.2,7.8,9.2,5.8,19.8c-6.5-1.3-12.6-0.8-15.1,4.7c1.4,6.7,10.5,5.8,8.1,16.3
			c-5.5-1.6-13.2-1.6-14,4.7c1.8,9.1,13.8,8,11.7,21c-8.8-2.8-19.2-0.7-22.1,5.8c1.9,7.8,9.4,10,8.1,21c-3.1,2.3-6.9-4.6-11.6-1.2
			c-1.3,6.2,8.4,14.3,3.5,24.5c-5.9-1.1-6.9-7.1-15.2-5.8c-3.5,8.8,6.5,15.6,2.3,25.6c-3,1.2-10.5-5.6-15.1,0
			c0.2,9.5,4.7,14.7,3.5,25.6c-9.9,1.4-12.6-4.5-19.8-5.8c-3.4,5.6,2.7,15.7-1.2,22.1c-5.5,1.3-16.7-10.7-24.5-3.5
			c-2.7,7.9,6.1,8.8,3.5,12.8c-32.7,0.8-35.2-28.4-60.6-34.9c21.1,43,42.9,78.1,78,104.8c20.2,15.4,57.3,22.6,55.9,60.6
			c-12.2,0.3-12.1,12.7-24.5,12.8c-3.8,3.6-4.2,10.5-9.3,12.8c-6.2,0.4-9.6-2.1-14-3.5c-6.2,0.8-6.8,7.1-11.6,9.3
			c-14.2-8-20.9,8.4-31.5,9.3c-5.4,0.5-8.6-4.9-15.1-5.8c-7.2-1-15.1,5.3-21,4.7c-9.4-1.1-16.9-20.1-32.6-8.2
			c-7-1.5-6.7-10.4-12.8-12.8c-4.2-0.8-4.5,2.5-8.1,2.3c-4.7-2.9-9-10.3-17.5-5.8c-5.6-3.2-6.3-14-16.3-9.3
			c-1.6-3.1-1.4-7.9-2.3-11.7c-2-3.5-7.2,1.7-8.2-1.1c-5.6-28.8,34.6-39.5,23.3-66.4c-14.1,4.9-20.9,17.1-23.3,33.8
			c-4.5,0.6-3.7-4.1-5.8-5.8c-4.5,8.7-7.9,18.5-8.2,31.4c-3.7-2.5-5.2-7.2-7-11.7c-10.2,7.7-17.8,18-22.1,31.5
			c-3.5-2.7-1.9-10.6-7-11.7c-11.4,2.7-11.6,17.1-8.1,23.3c7,12.6,46.2,15.9,28,40.8c-2.4-4.2-3.1-10.1-7-12.8
			c-12.1,3.2-21.3-4.6-28-10.5c-23.7-1.6-39.1,5.2-40.8,25.6c-6.4-2.5-9.5-15.6-4.7-22.1c-7.8,0.4-12.5,3.8-14,10.5
			c-6.6-2.9-6.1-12.1-2.3-17.5c-9.1-1.1-11,10.4-16.3,9.3c-7.4-23.7,25.8-24.9,44.3-30.3c-2-7.6-8.5-4.2-15.1-7
			c-15.9-6.7-38.8-31.3-51.3-9.3c-6.8-4.6-2.2-16.3,2.3-19.8c-11-2.8-15.7,6.8-19.8,7c-0.6-9.5,3.9-13.9,8.2-18.6
			c-5.7-4.2-15.3-0.3-21,2.3c6.1-20.7,25.9-13.9,41.9-7c5.9,2.5,14.5,9.9,21,9.3c10.5-1,18.2-30.2,23.3-45.4
			c8.9-26.5,24.7-49.6,21-86.2c-2.9-28.5-23.1-44.8-51.3-36.1c-3,0.9-5.1,3.4-8.1,4.7c-13,5.3-33,1.2-43.1,11.7
			c-4.2-4.3,4.1-10.2-1.2-12.8c-9.2,2.1-11.3,11.2-12.8,21c-12.9-7.8-13.3-34.2-1.2-43.1c-1.1-17.8,5.2-27.2,16.3-36.1
			c16.4-13.1,54.2-18.7,57.1-33.8c3.5-18.6-22.9-50.2-31.4-59.4c-44.2-47.4-116.7-68-177-95.5c3.4-2.4,11.2-0.4,15.1-2.3
			C62.8,293.6,45.7,289,38.9,274c5.1,0.3,9,1.9,15.1,1.2c-10.7-12.6-34.4-22.2-41.9-41.9c7.5-0.1,14.9,9.9,24.5,11.7
			c-19.5-18.6-36-53.1-36.1-89.7C0.5,145.6,0.8,131,6.3,123.7z M292.8,734c8.7,3.7,10.4,14.5,14,23.3c9.7-8.3,17.6-24.1,12.8-43.1
			C305.3,715.4,299.6,725.2,292.8,734z"/>
	</g>
</g>
</svg>
