<?xml version="1.0" encoding="utf-8"?>
<!-- Generator: Adobe Illustrator 18.0.0, SVG Export Plug-In . SVG Version: 6.00 Build 0)  -->
<!DOCTYPE svg PUBLIC "-//W3C//DTD SVG 1.1//EN" "http://www.w3.org/Graphics/SVG/1.1/DTD/svg11.dtd">
<svg version="1.1" id="Layer_1" xmlns="http://www.w3.org/2000/svg" xmlns:xlink="http://www.w3.org/1999/xlink" x="0px" y="0px"
	 viewBox="0 0 870.6 870.5" enable-background="new 0 0 870.6 870.5" xml:space="preserve">
<g>
	<path fill="#221E20" d="M737.1,292.2c-3.1,2.4-12.9,9.6-15.5,11.6c-8.6,6.4-33.4,27.1-44.2,46.1c-12.4,21.7-33.9,64.6-21.3,130
		c13.7,70.3,74.2,107.8,82.8,112.8c8.6,5,18.6,10.3,18.6,10.3v0.5L746.9,630c-7.2,17.5-14.4,33.4-22.1,47.3
		c-7.6,14.1-16.5,28.3-26.6,43c-10.1,14.7-19.3,26.9-27.4,36.7c-8.3,9.8-17.2,18.8-22.5,24c-21.7,21.7-52.1,29.7-67.9,29.7
		c-4.8,0-10.6-1-19.2-2.5c-8.4-1.7-21.5-5.5-38.8-11.6c-17.3-6-30.8-10.3-40.8-12.4c-10-2.3-25.6-3.1-36-3.1
		c-28.3-0.2-87,22.7-96.9,25.4c0,0-14.4,5.2-37.2,5.2c-3.2,0-10.3-2.3-12.8-3.3c-7.6-2.9-27.2-9.9-57.2-39.9
		c-45.5-45.4-114.5-196-123.3-271.2c0,0-5.7-74.7,6.6-123.9c10.8-43.2,39.1-82,45.1-89c29.5-40.3,85.7-61,106.1-64.1
		c10.6-1.7,37-6.8,71.7,1.5c19,4.6,79.3,26.1,82.8,26.9s7.6,1.2,12.4,0.8c24.8-1.3,80.2-35,139.6-34.8c51.8-1.7,91.1,21.7,99.4,26.7
		C690.4,246.3,721.8,268.7,737.1,292.2z"/>
</g>
<path fill="#221E20" d="M556.2,146.2c44.2-62,38.2-121.9,38.2-121.9S542.7,11.5,482,80.6s-46.1,125.2-46.1,125.2
	S509.9,211.1,556.2,146.2z"/>
</svg>
