<?xml version="1.0" encoding="utf-8"?>
<!-- Generator: Adobe Illustrator 18.1.0, SVG Export Plug-In . SVG Version: 6.00 Build 0)  -->
<!DOCTYPE svg PUBLIC "-//W3C//DTD SVG 1.1//EN" "http://www.w3.org/Graphics/SVG/1.1/DTD/svg11.dtd">
<svg version="1.1" id="Layer_1" xmlns="http://www.w3.org/2000/svg" xmlns:xlink="http://www.w3.org/1999/xlink" x="0px" y="0px"
	 viewBox="0 0 870.6 870.5" enable-background="new 0 0 870.6 870.5" xml:space="preserve">
<path fill="#004280" d="M365.2,647.8c-3.2,3.6-3.8,10.4-9.1,10.4c-6.6-2.9-2-11.5,3-15.6l-2.3,8.8L365.2,647.8 M373.3,661.4
	l-4.8,11.7l-1.4,1.2L373.3,661.4z M823.2,534.7c7,14.7-21.9,16.7-5.9,29.2c-7.6,6.5-17.1,9.2-27,11c-10.9,12.6-22.6,23.9-41.3,21.1
	c-9.6,15.5-24.1,29.9-44.1,24l-9.8-3.3c-3.1,6.3-6.5,12.6-10,18.8c-43.5,77.3-113.4,144.6-183.7,193.6
	c-26.3,28.6-53.7,47.6-89.7,43.3c-33.8-2.4-122.5-89.3-165.1-204.6l-0.1-0.3c-23-61.6-44.2-124.3-63.7-188
	c-5.4-7.3-11.6-14.6-18.2-21.6c-9.9-10.5-19.8-19.9-30.2-28.2c-12.7,3.9-24,20.6-38.9,9.2c-10.6-9.2-18.8-19.7-20.5-33.2
	c-5.7-22.5,17.9-29.4,30.3-41.1c-1.7-29.3,9.6-48.2,14.8-55.3c10.1-12.2,11.3-15.5,15.9-22.5c3.6-5.4,11.9-12.5,22.9-13.8
	c17.2-21.1,18.4-4.1,35.6-25c5.2-6.3,26.5-12.3,31.7-5.1c11.2,16.5,27.6-11.4,42.4,14.4c57.4-33.5,111.4-69.3,166.6-107
	C424,125.7,411.6,100,410.3,72L517.9,0c26.7,6.6,46.9,34.2,66.1,53.5c14.2-17.7,30.1,2.6,38.7,13.8c6.6,10.2,11.9,21.3,15.2,34
	L625,112.3c11.7,28.7,23.7,59,30.2,91.8c-31.9,29-72.5,46-106.1,73.2c-33.2-4.3-56.6-38.6-75.3-62.4l-11,0.8l-147.2,96.6
	c-7.2,11.9,5.8,19.6,2.4,34.1c-4.4,24.7-9.2,48.8-24.7,69.7c4.2,10.6,8.2,20.8,13.2,31.1c32.2,65,61.3,102.6,120.2,153.4
	c13.1,15.4,13.7,23.8,23.9,30.8c17.4-35,8.2-83.2,28.4-113.9c16-31.5,35.8-35.3,23.9-55.6c-9-5.7-11.4-18.2-9.6-28.3l1.4-5.3
	c12-31.9,55.7-44,58.5-81.5c7.6,2,9.1-7.3,16.2-6.7c-7,5.3-12.4,13.1-15.2,20.7l4.1,0.8c-3,4.6-4.1,9.4-1,12.2
	c17.3,4.3,32.5-1.2,50.4,0.8c28.4-1.3,46.8,27.3,74.2,27.8c5.9-0.8,9.6-5.1,16-7.8c5.2,0,9.3,5.2,11.8,8.8c1.7,2.1-13.7-8.6-8.4,1.8
	l-4.3-1c1.2,4.6,2.2,9.6,3.3,14.4c1.1,5,2.6,9,7.1,13.4c8.8-1,8.2,13.3,16.1,9.8c1.5,11.3,23,4.1,17,19l-14.6,4.5L721,458
	c3.7,14.5,14.5,26.9,22.5,39.6c1.5-8.2-7.8-16.3-9.2-25.1l12,12.7l-2.3-11.5c10.1,16.8,19.3-0.3,27.4,15.4c2.1,4.7-4.9,4.4-5.5,7.7
	l-4.4-3.8l-1.2,5.6l-6.2-9.2c-7.5,6.3-5.7,20.2-2.8,29.9l0.7-0.9l2.2-9.8c3.2,8,2.4,13.1,6.9,18l2-13c2.1,4.3,2.8,10.2,5.3,14
	l4.2-5.1l-0.3-7.2l5.2,0.6l-0.4-6.6l4.8-0.4c2.9-4.6-2-8-2.6-12l6.2-2c-10.3-9.2,6.5-13.2-1.3-23.4c11.6-3.8,6.1-20.8,4.6-31.4
	c-1.4-4-4.5-12.7-4.5-17.5c14,32.2,18,73.9,14,103.8l6.3-14.7c3.4,8.4-3.9,14.4,2.5,16.9l4.8-10.3l2.4,9.1
	c4.2-7.7,5.6-16.2,5.6-25.4c8.7,12.5-4.9,28,0.4,35.6L823.2,534.7z M602.9,67.9l3.2,6.4l0.9-1.8l0.2-0.9L602.9,67.9z M563.2,244
	L546,217.6l-3.4,0.9l-0.3,0.9l17.2,26.4L563.2,244z M573.6,245.4l-41.4-60.2l-3.6,1.9l41.1,61.6l1.6-1.7L573.6,245.4z M517.7,148.7
	c16.5,35.9,40.6,63.6,58.6,97.1l4.1-2L517.7,148.7z M404.2,613.6l2.6-0.2l0.8-8.5L404.2,613.6z M402.9,597.2l-9.6,19.8l5.1-4.1
	L402.9,597.2z M397.2,594.6l-8.9,14.7l5.5-3.4L397.2,594.6z M385,599.5l4-0.1c2.3-4.2,4.7-7.9,4.7-12.7
	C389,588.2,386.5,595,385,599.5z M386.2,580.3l-3.4,9.8l0.5-0.2l4.7-4.2L386.2,580.3z M380.3,575.2l-6.6,11.3l2.8-0.2
	C379.6,583.1,384.5,577.4,380.3,575.2z M370.3,578.2l3.2-0.2l2.1-9.5L370.3,578.2z M363.5,567.3l2.8-4.5l-3.1,0.2L363.5,567.3z
	 M352.9,558.1l3.1-0.2l2.2-6C353.5,550.3,352.6,554.6,352.9,558.1z M317.3,509l2.6-0.2l1.1-5.8L317.3,509z M314.4,490.8l-3.9,4.5
	l2.7-0.2L314.4,490.8z M308.5,488.1l1.5-0.1l1.3-4.4L308.5,488.1z M444.1,98.9l3.2,3.8l1.5-2.1l-3.3-3.8l-1,0.8L444.1,98.9z
	 M291.3,270.5c15.6,11.4,25.3-12.2,37.7-15c9.7-9.5,28.9-13.2,38.2-26.4c41.3-25.1,85.3-49.8,125.5-79.6l-0.2-3l-8.4-3.4l-193,124.8
	L291.3,270.5z M236.9,317.7l-1.1,5.6l-4.3-4.1l-1.2,4.5L226,321c1.9,4.7-3.7,3.6-5.1,5.9c2.3,6.9,7.4,15.7,17.4,11.2
	c7.9-3.5,9-13.2,5.2-19.9L236.9,317.7z M241.8,369.7c-12.1,1.6-23,7.6-30.5,16.2L241.8,369.7z M225.1,383.5l-4.2,4.3l6.7-4.5
	L225.1,383.5z M244.2,362.7l-1,0.1l-2.6,0.1l-1.4,0.1l-3.2,1.6L244.2,362.7z M194.7,255.5c2.6,6,11,9.9,17.4,11.3
	c8.9,1.2,13.6,14.1,23.1,12.3c0.9-6.7-9.7-10.3-2.3-16.4l-7.1-1l6.6-6l-15.4,1.2l5.1-5.9c-6.1-2.9-8.3,6.9-13.4,2.4l5.1-5.9
	C206.3,248,201.1,252.8,194.7,255.5z M167.5,277c20.3,5.9,44.8,18.1,52.8,40.4c3.6-6.2,14.4-9.2,20-8.5l-4.5-6.7l-11,2.3
	c1.6-4.6,6.8-2.7,9.2-6.2l-11.1-0.7l5.2-4.4l-8.5-0.9l4-4.3l-11.1-0.7l6.4-4.5l-11.1-0.6l6.6-4.5l-13.7-0.5l5.3-3l-12.5-0.5l5.3-3
	l-12.6-0.6l5.2-4.4C182.5,271.2,165,262.5,167.5,277z M159.3,301.2c18.4,4.9,29.6,21.8,33.4,37.4c1.4,8.5,5.8,10.1,10.8,10l1.5-0.1
	l7.3-1l1.4-0.1l3.3,0.5c4.8-0.4,2.6-5.7,5-8.5c-3.6-3.7-3.5-12.3-10.9-11.7l2.1,8.4l-4.4-1.1l-1.8,0.1l-8.7,4.6l-1.6-1.4
	c-1.1-9.5,9.5-15.5,16.6-19l-4-3.9l-4.8-1l2.6-4.6l-9.6-0.4l3.8-3.2l-9.7-0.8l-0.1-1.1l3.8-3.2h-1.2l-7.4-0.9l5.2-4.4l-10.9,0.8
	l2.7-2.8l-9.7-0.8l1.7-1.6h0.8l-11.1-0.7l2.7-2.6l1.2-0.2l-0.8,0.1l-0.4,0.2l-9.7,2l3.9-7.2c-4.9,0-8.3,4.4-12.4,4.4l-2.8-0.8
	l1.3-2.6l-5.2,4.4C137.1,301,153.9,297.6,159.3,301.2z M111.2,360.1l2.6-0.1c4.7-5.9,21.2-6.7,14.2-17.7c5.3,1.1,4.5-9.5,9.5-2.2
	l0.9-7.1c17,5,27.9,18.2,45.9,21.7c7,0.3,6.5-6.7,7.3-11.6c-4.5-16.6-13.3,5.8-20.9-2.9c0.7-5.6,1.8-11.2,2.8-16.8l-4,0.3l-0.4-5.5
	l-8.4,2l2.4-7.1l-12.1,5.3l2.4-8.6c-4.4,0.7-8.1,5.8-12.4,2.4l1.2-3.1l-6.9,2l1-7.1l-8,6.2c-8.3,7.6-9.3,19.2-7.5,28.2l-5.8-3.7
	l1,14C110.8,349.1,115.2,358.3,111.2,360.1z M89.8,390.5c8.7,7.8,12.6,20.5,21.7,29c-0.5-6.2-7.8-10.5-5.6-16.1l10.8,11.8l-3.7-9.7
	c-4.4-9.6-15.8-20.2-27.6-18.6c-2.7,2.8-7.9,8.3-3.1,12.8c18.6,1.9,17.7,24.9,30.2,33.6C107.4,418,94.7,406,89.8,390.5z
	 M118.6,424.5l-4.2-1.1c2.7,1.2-0.6,7.8,4.4,5.2L118.6,424.5z M166.5,358.7l-3.2-3.8c-12.7,2.8-21.1,14.2-33,17.5
	c-10.8,3.4-15.2,19.2-28.4,10.6c2,6.9,11.5,10.6,14.9,16.6l0.9-8.2C133.3,379.2,152.7,372.2,166.5,358.7z M179,453.1l21.6-26.5
	c-8-4.2-2.6-16.4-13.8-16.7c-1-7.6,4-15.8,6.7-18.5l-10.6,6.3c-13.9,6.9-26,21.3-29.1,33.8l12.8-14.5c0.9,7.3-9.4,12-7.9,21.1
	l3.7-3.2l0.5,5.5l5.6,1.1l-1.1,5.6l5.3-3.3l1.8,4.3l5.5-0.4L179,453.1z M569.4,684.6l-12.7-7.6c3-4.3,6.4,1.8,11-0.8l-7.6-7.5
	l1.4-1.5c5.2,0.6,12.8,2.7,15.4,2.9l-17.4-9.8c7.6-2,15.5,4.4,24,5.3c-2.8-7.6-13-6.1-18.9-11.2c4.4-5.1,12.7,2.7,18.1,0.1
	l-16.2-9.9c8-2.4,16.9,8,25.4,3.7c-7.7-3.8-17.4-5.7-23-11.9c6.2-0.8,15.9,4.3,22.5,3.9l-13.3-10.1c5.4-2.2,11.9,2,18.3,2.7l-9-7.8
	c4.6-1.4,11.2,1,16.7,1.8L586.4,614c4.4-0.4,12.7,4.6,16.6,1.8l-6-6.6c4.1-3.6,10.4,5.9,14,0.4l-9.1-7.7c4.9-3.7,11.5,5.4,15.6,0.3
	l-7.5-6.5c6.2-6.4,11.8,4.3,16.7,1.7c-2.5-3.5-8.5-4.5-11.7-8.7l11-0.8c0.7-5.9-6.9-3.9-7.6-9.4l12.5,0.6c-0.1-5.9-7-5.4-10.2-8.8
	c5.5-5.2,10.1,1.9,15.3,2.9c1.1-6-13.9-8.6-13.7-15.6c6.8,5.4,18.5,0.9,21.4,9.5l1.4-1.5c-3.8-7.4-19.9-10.3-19.5-19.2
	c7.2,1.3,11.8,10.2,20.2,8.1l-20.4-17.7l-1.6-1.3l5.5,1c6.9,2.7,13.9,9.8,21.7,12.1c-2.9-4.9-9-8.7-14.4-12.7l-0.7-0.7
	c-4.1-2.8-7.1-5-8.7-8.2c5.9,0.3,10.9,5.8,16.1,8.3l8.1,0.9l-1.2-1.4l-0.8-0.7c-8.1-8.7-21.7-11.7-26.3-20.9l17,5.8
	c-4-9.3-19.3-11.1-22.1-19l11.2,1.7c-10.1-7.3-22.1-10.2-32.9-15.6c6.7-4.2,16.4,3.5,25,3.6c-8.1-6-17.9-7.9-27-11.6l15.1-1.1
	l-1.2-1.4c-6.6-3.2-22.3-1.3-18.8-9.6l-41.8-1c-3.6,1.7-5.5,6.3-9.4,2.1l0.5,6.6l-8.4-3.4l3,6.7c-2.5,5.4-8.5-5.9-7-0.9l3.3,5.3
	l-5.6-1.1l0.6,8.4l-5.8-3.6l2.1,7.9l-9.1-5.4l-1.1,1.6l6.2,11.1c-4.8,3.7-5.2-3.8-10.5-6c-0.3,6.4,6.7,8.1,4.5,13.5l-7.3-3.9
	c0.4,4.4,6.1,7.3,3.4,10.9l-7.1-6.1l4.9,10.7l-8.7-2.3l3.7,10.9l-5.7-2.2c0.6,2.8,5.6,5.5,0.6,8l-3.1-2.3c5.7,5.5,2,10.4-0.3,15.1
	l-1,2.7l-2-2.5l-7.3-9l2.5,8.7l1,1.4c2.7,4,5.2,6.9,3.6,11.6c-4.1-0.4-6.4-11.7-7.2-7.9c-7.6,6.9,4.1,15.6,2.7,21.9
	c-6.4-0.6-3.2-6.7-8.5-8.2c1.9,6.6,7.2,11.6,3.6,17l-5-4.8c0,5.1,6.2,6.5,2.8,11.5l-4.1-1.3l7.4,11.1c-9.7,4,5.2,11,2.7,16.4
	l-10.2-7.7l31.7,34.9l-5.6-0.7c-7.9,3.6,0.2,7.8-0.7,11.1c-4.5-0.7-8.2-2.6-11.5-6.1l12.3,15.7c-12.7-6.8-26.8-18.3-30.1-32.4
	l-1.4,1.6l1.6,1.4c2.4,6.5,11.5,15,3.1,21.8l-1.6-1.3l-3.9,2.9l-9.4-13c-0.1,8.8,8.1,14.9,5.7,23.2c-4.3-4.1-6.3-9.9-9.1-14.9
	c0.8,6.9,5,13.7,4,19.3l-2.8-2.7l0.4,5.6c7.9,7.9-2,17.8,3.3,26.3l-4.2,5.1l0.2,0.9l0.6,7.9l-1.1,0.1c0.8,11-11.4,19.7-11.7,31.5
	c-3.3-10.1,3.3-19.8,1.8-30.7c-2.7,9-2.7,18.7-7.6,26.7l-2.8-2.4c3.2-6.9,2.6-15,3.9-22.4l-7.5,13c-3.1-7.1,4-15.4,1.3-22.2
	l-7.3,15.7c-5.3-5.2,4-11.6-0.4-15.9l-0.8-1.1l-0.4,1.1l-5.7,12.2c-0.6-3.6,0-7.7,1-11.8c0.9-4,2.2-8.1,2.7-12l-9.1,6.2
	c0-5.9,3.6-10.6,5.9-15.5c-9.1,1.1-7.7,14.6-14,14.7l6.7-19.6L399.9,693l-1.7-2.8l-5.9,10.1l-2-6.5l-9.8-2.3l7.2-13l1.6,1.4l-1,7
	l5.1-6l1.7,2.5l7-0.5c1.5-4.9,10-9.6,4.4-15.5l-2.8,3.2l-2.6-1.3l1.9-8.6l-1.3,1.5l-5.7-2.1c7.2-6.4-4.4-8.8-1.2-16.5
	c-10.5,3.3-1.7-8.3-4.8-9.6l-2.3,3.2c-6.4-7-6.1-12.1-13.7-15.7c-0.4-4.4-10.5-5.5-4.9-10.8l-5.6-1l1.8-11.2
	c-5.3,3-5.3,13.3-11.8,10.5c-1.3-8,12-13,9.6-19.9l-10.2,11.8c-18.1-0.5,8.4-16.5,2.5-26.3c-10.5-1.1-10.2-10.7-14.4-17.1l-3-4.1
	l-6,4.8l-14.5,12.2l6.9-11.6l4.2-7.3l-8.1,7.6l-4.7,4.4l-0.6-4c1.4-5.9,11.4-11.4,10.2-15.8l-14.5,13.2l-1.2-1l10.9-17.4
	c-8.1,0.6-7.8,14.2-15.8,12.2c-0.7-9.2,9.9-11.4,14.1-19.1c-5.1-19.5-13,9.1-20.6,5.6c1.4-6.4,8.9-9.8,12.8-16
	c6.2-15.3-15.5-19.9-10.9-32.4l-7.9,2l2.2-4.6l-4-0.8l0.7-1.9l0.3-0.4l3.8-6.6l-9.4,3.7l5-7.4l-8.3,2l4.7-10.3
	c-2.6-0.2-3.9,6.1-6.5,2c1.6-3.1,7.3-5.4,4.8-10c-2.9,0.9-4.5,4.7-7,0.6c3.3-10.3-2.7-16.5-7.2-23.2l2-8.2l-9.9-3.7
	c2.3-9,19.5-0.7,22.9-9.8l-3-1.2l5.3-5.1l2.6-2.5l-1.5,0l-1.6,0.1c-6.1,0.6-12.7,3.2-16.6-2.7l1.4-1.6l0.7,0.1l0.8-0.1l1.6-0.2
	l0.7,0l1.8,1.3c0.1-4.5,11.8-4.6,6.3-10.1c4.9-3.3,14.5-3.3,15.9-9.7c-4.7,1.1-8.8,5.9-13.9,2.5c2.1-7.1,11.9-4.2,16-9.2l-12.3-0.6
	l0.9-3l-2.5,0.2c-1.1-5.1,10.5-7,15.8-10.7c-16.5-2.8,5.9-5.2,4.7-11.4l-10.9,2.2l10.4-9.2h-0.8l-2.4,0.5l-0.8,0l-1.8-1.3l5.1-5.9
	l-4.3-4.1l2.4-2.8c-5.7-7.3-3.6-17.4-3.5-27.3l-5.6-1.1l4-5.9l-9.9,0.8l6-5.4c-8.5,4.1-13.6-3.8-19-6.2l3.8-4.3l-1.8-3.9l-6.6,6
	l-3-5.3c-8,0.9-17.6-9-21.8-16.4l2.3-2.7l5.9,3.6c-2.9-1.1-5.7-7.3-10.2-7l-2.8,1c-6.2,5.3-4.1,13.6-4,21
	c5,17.3,23.9,23.7,35.4,30.6c2,6.5-1.8,10.5,4.1,15.2l-5,0.4h-0.5l4.4,3.7c-6.5,0.5-3,8.4-6.9,8.3l-2.2-0.6c5.4,4-5.6,4.2,0.6,8
	l-5.3,3.4l2.7,2.3c-9,2.5,1.3,7.7-7.4,9.1l5.9,5.1l-1.6,1.6l-0.7,0l-2.4-0.2l-0.7,0.1l1.9,4.2c-8.5,5.5-20.1,7.4-25.3,17l3.2,3.8
	l-19.5,15.5l11.9-5.3l-11.9,14.2l0.3,0l10.4-6.2l3.2,0.4l-5.2,5.2l-12.7,12.7c5.2-4,11.1-10.8,17-9.8l-10.2,11.8l12.2-5
	c-0.7,5.6-6.6,5.7-8.8,10.3l9.5-0.7l-6.3,8.9c1.2,1.4,6.2-0.5,4.8,5.2l2.6-0.2c5,3-3,5-2,8.2l8-1.7l-2,6.8l5.6,1l-6.3,10.1l4.1,1.2
	l-1.1,4.1l7.1,1l-4.9,8.8l2,3.5l-3.6,10.2c4.3-0.7,6.2-11.1,11.7-6.4c-4.1,3.6-4.2,8.3-8.7,11.7c4-1.8,7.2-8.6,12.2-5
	c-6.7,8.7-14.5,22.9-24.4,24l0.8-4.2c-12.5,1,5.9-10,0.3-15.5l-7.7,5.1c-5-3,2.6-5.4,2-8.7L228,498l-2-6.8l-4.1-2.7
	c-4.7-5.7-0.6-15.6-4.5-20c-4.4-9.3-11.3-18-10.2-26.9l-5.7-2.5l0.8-4.1c-9.9,5.5-19.6,14.7-21.3,26.3l7.6-7.3
	c4.7,3.4-2.1,6.1-1.9,9.8l7.7-6.1l-2,8.2l5.4-1.5l-3.7,9.9c16.9-7.1-3.4,9.5,4,14.8l2.6-0.2l-0.3,1.2c-1.3,6.3,5.5,8.4,0.4,15.4
	l5.6,1.1c-4.1,8.4,7.1,10.6,1.5,20.5l6.6-0.5l-3.4,8.7l5.2-4.7l-3.2,11.3l7.6-6.2l0.4,5.5l4.5,1.1l-4.8,9.9l6.6-1.5
	c-5.2,5.5-0.1,9.6-1.4,15.2c6.9,4,2.7,8.8,0.6,14.4l6.9-6.8c2.6,5-2.5,9.6-3.6,14.8l6.8-6.6c1.2,4.7-4.3,10.6-4.2,16.9l8.2-4.7
	l-2.9,16.5c5.9-4.9,0.1-9.3,7.2-12.8c3.6,8.9-7,16.3-3.9,23.8c3-4.2,1.5-11.1,7.5-10.4l-4.2,18.4c3.4-4,5-12.6,10.2-11.8l-5.5,16.9
	l6.3-6c2.3,6.5-5,12.9-5.2,20l7.4-9.1c2.7,5.7-3.5,11.6-2.6,18.3l6.3-10c2.9,5.3-3.6,10.6-3.1,16.7l6.7-3.4l-1.8,11.2l6-8.6
	c1.3,8-3.8,11.3-3.8,20.5l6-11c3.2,9.4-3.2,14.2-1.1,23.2l5.8-14c3.6,10-2.5,13.7-1,24.7l8.4-18.3c0.3,8.7-2.1,12.8-3.7,22.4l0,1.6
	l0.7-1.3l9.1-16.1c0.5,6.5-1.5,14-3,21.6l-0.9,4.4l3.3-4.6l2.1-0.2c0.8,4.3,2.9-0.1,5.2,0l1.9,1.4c-1,6.6-2,13-2.7,19.7l5-7.4
	l1.2,1.4c-0.7,5.5-1.7,11.2-2.8,16.8l6-13c2.3,5.7-2.1,16.3,0,19.5l5-7.3c4,3.7-0.5,7.8,0.9,12.5l3.6-5.8c4,4.8-0.3,10.3,1.2,16.5
	l4.9-8.9l0.8,11.1l3.8-7.3c7,3.9-0.7,9.6,2.3,15.3l2.6-4.6c9.8-1.1,6.7,12,8.4,19c1.9-4.2-0.5-10.8,4.6-12.9l2.2,17.8l3.9-8.7
	l3,24.9c3.3-4.3-2-11.7,3.2-15.5l3.7,14.9l3.4-8.7c4.5,5.9-0.9,11.4,1.3,18l6.2-11.6l-0.6,12.6l2.7-1.5c3.5-0.1,1.5,12.3,7.7,7.8
	c-5.4,16.5,13.7,15.9,19.2,25.2l1.4-1.2l7,5l4.1-4.7c2.2,5.4,4.7,4.8,8.3,3.8l6.1,0.4l3.4-0.2c13.5-1.8,28.1-8.5,36.7-20.9
	c12.6-3.8,3.9-17.2,13.2-25.6l0.7-0.1c2.5,0,4.2,4.9,6.3,0.7l-4.5-6.3c4.6-2.6,0.4-5.3,0.9-8.6l6.5-2l-1.5-4l9.5-0.7l-3.2-3.8
	c4.7-4.5,7.7-6.6,12.5-6.7l2.6,0.1l-3.2-2.8l7.8-7.1l4.3,2.2l-0.5-7l7.3-6l3.4,1.2c-6.5-6.6,3.4-8,4.5-14l6,2.4l1.1-0.4
	c-3-5.6-1.9-9.7-2.6-14.9l9.5-2.2l-7.2-3.5l6.7-3.4l-1.7-4l11-0.8l-6-6.6l1.9-1.3l1,0l-0.4-5.5l1.1-0.4l9,2.5l2.4-2l-10.5-7.3
	l9.9-0.7l-5-4.4l-5.5-3.3l9.9-0.7l-6.1-9.2L569.4,684.6z M261.9,322.5c-1.5-5.1-4-9.7-6.7-14.7l0.9,12.5l-7.1-2.4l0.1,1.4
	C251.1,324.7,258.1,325.7,261.9,322.5z M483.7,628.6l4.3,3.7l-8.7-8.9L483.7,628.6z M578.7,695l-1.2,4.1l4-0.3L578.7,695z
	 M597.1,719.8c-4-4.1-10.2-8.1-17-5.8l-0.9,8.6l8.8,4.9l-0.5-5.5L597.1,719.8z M663.9,596.1l3.8-3.3c-1.6-2.1,4-10.2-2-12.4
	c1.2,12.1-17.6,6.1-15.2,19.2c-8.8-5.6,0.3,9.6-9.4,7.7c-0.3,9.6-6.7,13.7-9.4,22.9l-4.3-2.7c1.2,5.5,0.1,10.4-2.8,16.9l-4.1-0.9
	c-1.8,2.7-1.7,7.5-6.6,6.1l2.1,7.9l-10.1-0.7l1.9,5.4c-3.6,5.8-9.1,15.8-15.5,15.1l2,6.9c-8.8,6.1-3.5,22.7-16.4,23.3
	c5.8,3.3,12.1,3.6,18.5,5.3l-3.4-5.3l12.4-1l-10.1-7.3l12.5,0.5l-4.6-4L620,696c-5.6-5.1-13.7-6.4-18.6-11.2c6.1-3,14,4.1,19.4,3
	l-13.2-9c6.2-1.6,14.5,6,21.2,2.8l-13.1-7.6c4.4-5.5,7.2,3.5,12.6,0.6l0.6-7.1l8.5,0.9l-9-7.8l9.9-0.7l-3.1-3.8l9.5-0.7l-4.4-5.3
	c8-1.3,1.2-3.4,4.9-8.5l8.7,2l-3.6-7.8c7,0.3-2.5-4.6,2.4-7.1l9.7,0.7l-10-4.8l2.3-3l1.6,1.4c8.2,1.2,3.5-2.8,6.5-7.5l5.7,1.1
	C665.7,610,676.1,601.8,663.9,596.1z M688.2,519.6l-3.7,0.3l0.7,9.6l3.7-0.3L688.2,519.6z M735.3,547.9l-2.7,0.2l0.6,8.5l2.8-0.2
	L735.3,547.9z M748.5,531.4l-2.6-20.2l-0.1,20.8L748.5,531.4z M762.9,571.5l-8,9.6l6.1,0.5L762.9,571.5z M783.6,555.7
	c-5.4-1.1-10.9,2.8-11,6.7L783.6,555.7z M792.8,489.5c-1.1,11.9-6.3,24.5-3.1,36.1l3-0.2C791.8,513.3,798.6,501.7,792.8,489.5z
	 M308,582.6l-3.7,4.8l3.6-6L308,582.6z M309.8,530.5l-7.7,8.9l5.4-3L309.8,530.5z M366.3,663.2l-3.8,4.8l5.7-14.8L366.3,663.2z
	 M381.5,680.5l-3.8,4.4l6.2-12.9L381.5,680.5z M459.3,833.2l3.2,2.4l-4.3-2.3L459.3,833.2z M299.3,520l2.5-0.2l-3.8,4.4L299.3,520z
	 M464.9,831.3l1.4-1.6l-4.4-3.8L464.9,831.3z M430.7,843.6l7.4,8.1l-1,1.5L430.7,843.6z M437.5,843.2l6.2,6.7l1-0.9l-6.1-6.6
	L437.5,843.2z M379.3,666.7l-3.8,10l-2.4,2.9L379.3,666.7z M342.1,591l7.9-10.4l-1.2-1l-7.9,10.7L342.1,591z M306.2,635.2
	c0.5-4.3,9.2-9,6.3-11.8L306.2,635.2z M342.8,574.4c-2.6,4.7-5,9-7.7,13.3C331.4,584.3,340.1,579.1,342.8,574.4z M328.9,579.9
	l9.3-11.9l0.8,0.7l-8.9,12L328.9,579.9z M306.6,619.6l-7.8,11.9l1.1,0.6l7.8-11.8L306.6,619.6z M291.8,629l7.3-13L291.8,629z
	 M286.9,623.8c-1.4-4.1,3-10.8,7.7-13C294.9,616,288.1,619.2,286.9,623.8z M337.3,652.8c4.9-4.9,8.2-10.4,10.1-16.6
	C343.1,640.3,337,649.1,337.3,652.8z M293.2,520l7.6-9.3l-0.9-1l-8,9.2L293.2,520z M348.3,649l-1.4,0.1l3.5-7.4
	C354.6,642.9,347.3,646,348.3,649z M332.2,562.8l-9.2,13.1l4.2-4.5L332.2,562.8z M333.2,619.2c-2.1,6.9-8,13.8-11.4,18.9
	C324,631.2,327.1,622.3,333.2,619.2z M317.2,630.2l2.2-1.7l8.6-16.1L317.2,630.2z M333.1,637.2l3.7-11.5l-10,17.6l5.4-3l1.5,5.5
	l9.2-13.5L333.1,637.2z M261.9,519.6c-3.8,8.1-8.8,15.1-15,21.8C245.3,534.9,256.5,527,261.9,519.6z M262.7,581.8
	c-5.2-3.4-3.7-8.4-1-13.8l1.3-1.6l-7,2c2-8.8,9.3-17.3,15.2-23.7l-6,14.4l9.8-4.9C281.2,562.4,266.5,572.5,262.7,581.8z
	 M263.8,512.4l-8.1,2.1c0.5-4.1,5.6-6.4,6.4-10.6c-8.2,6.3-18.2,14.6-22.4,23.2l7.1-0.5l-2.4,8.4L263.8,512.4z M269.2,536.1
	c-4.7-1.8-3.1-5.7-0.7-9.7c-5.9,7.2-17.5,13.7-20.8,24.1l9.9-3.8l-6,14.8C261.1,555.6,263.4,544.5,269.2,536.1z M289.6,513.2
	l-0.8-1.1l6.2-7.6l1.2,1L289.6,513.2z M288.6,605.5l-4.9,11.7l3.8-4.8L288.6,605.5z M293.4,579.2l5.1-7.5l-1.2-0.7l-5.2,7.2
	L293.4,579.2z M291.5,568.4l-21.8,29.9l1.2,1l21.9-29.8L291.5,568.4z M264.9,591.5c8.2-7,15.3-21.9,20.4-29.8L264.9,591.5z
	 M286.6,598.6l-6.4,11.7l5.3-6L286.6,598.6z M283.3,590.1l-7.8,11.8l4-2.8L283.3,590.1z M502.9,93.8l-0.2-2.9l-5.6-5.7l4.6,8.2
	L502.9,93.8z M444.4,59.4l-5.9,5.2l4.7,5.5l-0.2-2l-0.1-1.3l1.4-2.4l0.4-0.1l0.7,0.7c2.2,2.2,6.8,6.7,7.2,11.5l0,1.1l-0.2,1.3
	l-5.8-3.6h0c4.3,13,13.1,24.4,21.6,35.5l8,10.7c-0.8-6.2-4.7-11.2-8.5-16c-3.9-5.1-7.6-9.8-8-15.6l-0.2-1.4l1.2,0.6
	c5.4,3.7,8.7,9.6,11.7,15.3c4.5,8.7,8.3,16.2,18.7,14.6l-4.6-7.5c-2.9-4.4-6.2-9.4-6.7-14.4l-0.2-1.8l1.3,1.3
	c5,4.8,8.7,10.9,12.2,16.5c3.7,6.1,7.5,12.3,12.7,17.4l-3.7-7.2l-4.3-9.9l-0.4-2l1.6,1.4c14.4,19,27.1,38.5,40.9,60.2
	c14.4,22.6,29.1,45.8,46.4,67.5v0l-1.6-7c-4.1-18.1-8.7-38.7-20.5-61.5c-10.2-8.8-17.9-20.2-26.2-32.2l-18.2-24.4l-0.5-7.1l-0.1-2.3
	l16,22.9c6.2,9.6,12.5,19.6,20.9,28.3v-0.1c-6.8-19.5-19.8-36.6-32.3-53.1l-11.5-15.5l-40.6-38.8C461.2,44.6,451.8,52.8,444.4,59.4z
	 M467.5,76l-11.7-18.4l12.1,14.2l-0.3,2L467.5,76z M487.9,83.6l-0.2-2.9l-3.7-2.5l2.9,5.3L487.9,83.6z M474.5,99.5l-4.6-6.7l5.6,3.9
	l0.2,2.9L474.5,99.5z M498.2,101.9l18.6,27.8C508.6,122.5,502.3,112.2,498.2,101.9z M517.7,119.2c4.9,0.1,4.8,5,7.3,8
	C520.6,128.4,520.1,121.7,517.7,119.2z M572.1,203l-0.2-3l-43.6-65.7l-1.4,0.9l43.8,68.7L572.1,203z M555.1,191.7l-12.8-22.6
	c5.4,7.3,14.7,13.2,13.6,23.9L555.1,191.7z M579.7,225.8l-0.9-4.8L559.7,194L579.7,225.8z M723.7,471.6c-5.3,0.4-8.7-0.4-10.8-2.5
	l-2.8-7.4l0.1-7.8l0.1-8.3l-4.4-9.8l-2.7,2.7l-0.4,0.3l-0.7-0.5l-5-3.3c-3.8-1.7-6.8-3.1-7.1-8.2l-0.1-0.1l0,0.1l-3.8,4.7l-0.6,0.2
	l-0.1-1.2l-2.9-12.7l-3.6,5.9l-5-7.7l-1,1.5l-6.1-7.9l-0.1,0.2v0.1l-1.6,2.7l-0.7,0.5l-0.9-0.3l-6.3-5.5c-3.2-1.5-6.2-2.9-6.7-7.8
	l-1.7,0.1l-2.2,1.7c-5.2-0.3-9.8-3.8-13.9-6.9l-6.2-4.2l1.1,1l2,4.3c-5.9,0.1-12.7-4.4-18.8-8.3l-6-3.8l3.5-0.1l2.3-0.1l-6.3-3
	l-9-3.2l-1.8,0.4l0.1,0.1l-0.8,3.9l-0.1,0.6l-1-0.3l-5.2-1.1l-5.4-1l-3.8,1.7l5.8,1.2l7.7,3.7l0.7,1h-6.9
	c-5.9,0.4-12.5,0.7-16.7-3.8l-7,3.7l-1.8,0.1l-4.4,2.7l-7.8-0.3c-15.2,3.8-28.5,15.1-38.2,32.9l-3.1,9.8l-3.9,9.8
	c6.2,5.8,12.2,6.4,16.8,6.2l2-0.2l5.6-0.9l6.5-1l4.2-0.3c4.7-0.4,7.1-0.5,12.3,6.1l1.5-2.1l2.3-1.7l2.9-1.1l6.6-2.2l1.5-0.1
	c3.4-0.1,5.8,1.9,7.4,6.3l5-2l9.7,2.9l6.7,3l3.8-2l5.5,0.5l4.4,0.5c2.2-0.4,4.2-1.3,4.7-6.4l0-1l0.9,0.5l8.1,8.9l7.7,8.8l4.1-6.7
	l1.3-3.6l0.7,1.6l6.7,6c3,2.8,6,5.7,11.2,7.6l0.1,0.3l-0.9,5.1l5.9,5.2l7.2,6.5v0l2-7.1l0.3-1l0.8,0.7l4.2,9.2l2.2-4.1l5.9,14.4
	l6.2,15.3l0-0.1l-0.5-4.2l-0.4-3.1l0.8-5l1,1.7l7.4,18.8l0.5,1.1c6.1,3.8,7.7,10.6,8.4,19.6l0.5,9.9l2.4,12.2
	c1.5-8.4,1.3-17.7,1.1-26.7c-0.2-10-0.1-20.5,2.1-29.6l0.6-1.7l0.7,1.7l2.1,10.2l-0.5,19.8l-0.5,21.2l1.5,10l0.1-0.1
	c1.3-18.1,0.6-37.7-0.1-56.6l-0.8-28.6l3.1,2.3l-0.3-2.3l3.6-9l1.6,3.1l0.1-0.2l3.7-4.4c3.7,13.3,5.6,28.1,7.3,42.5l2.9,21.7l0-0.1
	c0-8.5-0.2-17.5-0.9-26.6C732.3,497.9,729.8,483.8,723.7,471.6z M562,400.5c7.1-3.1,6.9-6.8,15.2-3.7
	C570.7,398,568.1,408.5,562,400.5z M571.2,390.2l11.1,0.7l1.3,2.9L571.2,390.2z M622.6,412c4.7-5.9-1.2-10.7-3.9-14.2
	c4.3-1.1,6.5,3.9,10,6.2l2.2,9.5L622.6,412z M681.5,470.9l1.4-8.9l2.6,8.5L681.5,470.9z M697,464l-1.1,5.6l-4.4-3.8l-3.9,1.4
	l-0.4-5.5c4.4,4.9,12.8-10.6,16.4-2.3l1.8-10.1l3.3,24.9C702.2,474.7,700.8,467.4,697,464z"/>
</svg>
