<?xml version="1.0" encoding="utf-8"?>
<!-- Generator: Adobe Illustrator 18.1.0, SVG Export Plug-In . SVG Version: 6.00 Build 0)  -->
<!DOCTYPE svg PUBLIC "-//W3C//DTD SVG 1.1//EN" "http://www.w3.org/Graphics/SVG/1.1/DTD/svg11.dtd">
<svg version="1.1" id="Layer_1" xmlns="http://www.w3.org/2000/svg" xmlns:xlink="http://www.w3.org/1999/xlink" x="0px" y="0px"
	 viewBox="0 0 870.6 870.5" enable-background="new 0 0 870.6 870.5" xml:space="preserve">
<g>
	<path fill="none" d="M429.9,434.6c0,11.2,0.6,21.9,4.8,32.2c3.4-10.3,5.6-21.5,5.6-32.3c0-11-1.7-20.9-5.5-31.1
		C431.5,413.4,429.9,424,429.9,434.6z"/>
	<path fill="none" d="M339.6,334.7c-22.9,0-43.7,7.8-61.6,21.6c16,26,22,54.6,22,85c0,25.3-9.1,51.3-22.2,72.5
		c19.4,15.3,42.2,21.4,66.9,21.4c21.2,0,40.7-8.8,57.3-21.3C386.8,488.6,380,461,380,431.5c0-26.4,9.1-52.4,22.4-75
		C384,343.3,362.5,334.7,339.6,334.7z"/>
	<path fill="none" d="M239.9,433.3c0,11.5,1.3,22.6,4.8,33.4c4-10.5,5.4-21.5,5.4-32.8c0-10.6-2-21-5.2-31
		C241.8,412.7,239.9,422.9,239.9,433.3z"/>
	<path fill="none" d="M146.2,334.6c-55.1,0-96.3,51.1-96.3,103.8c0,53.8,49.2,96.6,101.4,96.6c22.3-0.1,43.1-8.2,60.6-21.4
		c-13.3-22.3-21.9-48.1-21.9-74.2c0-30,6.9-57.6,22.2-83.4C192.7,342.6,170.2,334.6,146.2,334.6z"/>
	<path fill="none" d="M619.9,433.9c0,11.4,1.6,22.3,5.1,33.1c3.4-10.7,5-21.4,5-32.7c0-10.5-1.8-20.8-4.9-30.7
		C622.1,413.5,619.9,423.4,619.9,433.9z"/>
	<path fill="none" d="M529.9,334.9c-22.7,0-44,8.1-62,21.7c15.7,25.7,22.1,51.7,22.1,82.1c0,26.7-8.8,52.8-22.5,75.3
		c19.8,14.7,42,21.5,66.5,21.5c21,0,41.8-8.8,58.1-21.8c-13.7-22.9-22.1-49.1-22.1-75.9c0-28.9,7.6-56.3,22.4-81
		C574.5,342.9,552.5,334.9,529.9,334.9z"/>
	<path fill="none" d="M719.5,335.1c-22.4,0-43.6,8.3-61.4,21.6c13.9,23.6,22.2,50.5,22.2,78.1c0.1,28.2-9.3,54.6-22.1,79.4
		c17.9,13.7,39.7,21.8,62.3,21.8c55.7,0,100-45.5,100-101C820.5,380.7,773.5,335.1,719.5,335.1z"/>
	<path fill="#010101" d="M815.3,319.3c-25-20.5-58-34-90.6-34c-36.5,0-70.7,11.3-99.4,33.7c-26.7-21.5-59.7-33.8-94.1-33.8
		c-35.2,0-69.2,10.6-96,33.9c-26.9-22.5-60.6-34.3-95.6-34.3c-34.2,0-68.1,11.9-94.3,33.7c-27.9-23.7-62.5-33.9-99-33.9
		c-37.4,0-74.6,16.5-101.2,42.7C15.6,356.6,0,397.3,0,438.7c0,80.8,71.7,146.5,151.4,146.4c34.6,0,66.5-12.4,93.5-33.7
		c26.2,23.1,60,34,94.8,33.9c34.8,0,68.1-12.4,95.3-33.8c27.1,23.3,61.2,34.1,96.6,34.1c34,0,67.2-13.1,93.7-34
		c26.7,23.2,60.5,34.2,95.6,34.2c82.9,0,149.3-68.1,149.3-150.8C870.4,390.6,849.8,347.5,815.3,319.3z M211.8,513.7
		c-17.4,13.2-38.3,21.3-60.6,21.4c-52.2,0-101.4-42.8-101.4-96.6c0-52.7,41.2-103.8,96.3-103.8c24,0,46.5,8,65.9,21.5
		c-15.3,25.8-22.2,53.4-22.2,83.4C190,465.6,198.5,491.4,211.8,513.7z M244.8,466.7c-3.5-10.8-4.8-21.9-4.8-33.4
		c0-10.4,1.8-20.6,5-30.4c3.2,10.1,5.2,20.5,5.2,31C250.2,445.2,248.8,456.2,244.8,466.7z M402.1,513.8
		c-16.6,12.5-36.2,21.3-57.3,21.3c-24.7,0-47.5-6-66.9-21.4c13.1-21.2,22.2-47.2,22.2-72.5c0-30.3-5.9-59-22-85
		c17.8-13.8,38.7-21.6,61.6-21.6c22.9,0,44.4,8.6,62.8,21.8c-13.3,22.6-22.4,48.6-22.4,75C380,461,386.8,488.6,402.1,513.8z
		 M434.7,466.9c-4.2-10.4-4.8-21.1-4.8-32.2c0-10.6,1.6-21.2,4.9-31.2c3.8,10.3,5.5,20.2,5.5,31.1
		C440.4,445.4,438.2,456.6,434.7,466.9z M592.1,513.7c-16.3,13-37.2,21.8-58.1,21.8c-24.5,0-46.8-6.8-66.5-21.5
		c13.7-22.5,22.5-48.6,22.5-75.3c0-30.4-6.3-56.4-22.1-82.1c17.9-13.6,39.3-21.7,62-21.7c22.7,0,44.6,8,62.6,21.9
		c-14.8,24.7-22.4,52.1-22.4,81C570.1,464.6,578.4,490.8,592.1,513.7z M625,467c-3.5-10.8-5.1-21.7-5.1-33.1
		c0-10.5,2.2-20.4,5.2-30.3c3.1,10,4.9,20.3,4.9,30.7C630,445.6,628.4,456.3,625,467z M720.5,536c-22.6,0-44.3-8.1-62.3-21.8
		c12.8-24.8,22.2-51.2,22.1-79.4c0-27.6-8.3-54.5-22.2-78.1c17.7-13.3,39-21.6,61.4-21.6c54,0,101,45.5,101,99.9
		C820.5,490.4,776.2,536,720.5,536z"/>
</g>
</svg>
