<?xml version="1.0" encoding="utf-8"?>
<!-- Generator: Adobe Illustrator 18.1.0, SVG Export Plug-In . SVG Version: 6.00 Build 0)  -->
<!DOCTYPE svg PUBLIC "-//W3C//DTD SVG 1.1//EN" "http://www.w3.org/Graphics/SVG/1.1/DTD/svg11.dtd">
<svg version="1.1" id="Layer_1" xmlns="http://www.w3.org/2000/svg" xmlns:xlink="http://www.w3.org/1999/xlink" x="0px" y="0px"
	 viewBox="0 0 870.6 870.5" enable-background="new 0 0 870.6 870.5" xml:space="preserve">
<g>
	<path d="M433.6,1C195.4,1,1,195.4,1,433.6c0,238.2,194.4,432.6,432.6,432.6c238.2,0,432.6-194.4,432.6-432.6
		C866.1,195.4,671.7,1,433.6,1z M435,796.1c-205.1,0-372.4-167.3-372.4-372.4S229.9,51.3,435,51.3c205.1,0,372.4,167.3,372.4,372.4
		S640.1,796.1,435,796.1z"/>
</g>
<path d="M395.6,293.3c-6.6-0.6-12.6-0.5-18.6-1.9c-48.6-11.3-88.5-90.7-118.3-118.6c-8.8-8.2-17.8-14.2-29.1-18.6
	c-6.4-2.5-14-4.7-11.1,4.9c3.3,10.5-3.4,20.1-9,28.6c-10.6,16.1-23.3,31.3-35.6,46.1c-32.5,34.4-49.7,122.1-52.4,137.7
	c-11.8,67.2,4.6,144.9,36.9,204.4c11.4,21.1,26,41.7,44.4,60.1c4.6,3.8,14.9,9.7,6-6c-2.8-4.6-69.9-97.5-46.7-138.1
	c7.9-16.8,38.2,27.2,41.9,33.3c13.3,21.3,12.5,4.3,11.8,2.5c-11.5-28.3-26.7-56-27.8-87.5c-0.4-11.3,1.6-21.5,7.8-28.7
	c11.5-13.2,29,2.3,37.4,11.1c12.9,13.4,24.8,31.7,31.2,49.4c0.4,1.4,12.3,24.3,7-7c-4.1-16-7.8-44.4,16.9-43.3
	c27.1,0.9,39.7,37,42.7,59.3c1.1,7.8,4.8,15.5-4.8,19.4c-8.9,3.5-24,9.6-19.9,21.9c1.8,5.4,4.2,15.1,9.9,17.8
	c12-5.3,24.4-9.9,37.4-12.1c33.9-5.6,46.1,29,55.2,55c10.7,30.6,26.3,118.4,27.5,129.6c1.9-27.2,10.5-49.3,15.4-76.1
	c3.8-21,8.9-42.7,15.5-60.5c7.7-20.5,29.7-58.1,76.8-41c6.4,2.3,7.6,6.8,13.7,1.6c3.7-3.2,9-8.8,10.8-13.4
	c5.6-14.3-14.6-19-23.9-23.8c-6.3-3.2-5.5-11.2-4.1-16.9c5.9-22.2,16.3-55.9,43.8-57.9c24-1.7,24.2,23.4,20.5,40.4
	c-3.8,19.6,4.2,16.5,9.1,1.1c11.7-36.2,39.4-74.7,62.2-54.8c22.6,19.5-0.9,78.9-10.1,101.1c-5.9,16.2-2.7,22.9,6.8,7.6
	c5.6-9.3,26.5-48.6,40.1-29.7c32.6,37.6-36.3,124.3-40.2,130.6c-10.6,17-6.6,19.5,1.9,12.8c60.1-57.8,82.9-144.1,80-225.3
	c-1.1-29.6-23.5-126.9-63.2-175.6c-12.9-14.5-25.9-29-37.2-44.7c-5.9-8.3-12.9-17.6-10-28.1c2.5-9.7-4.9-7.3-11.3-4.5
	c-11.1,4.7-30.5,19-37.1,29.1c-62.6,94.7-88.8,109.2-105.7,112.1c-5.5,1-17.5,3.3-22.7,0.5c-10.9-5.8-11.2-17.3-11.2-28.1
	c6.3-5.9,14.5-15.3,21.6-24.8c7.8-10.3,15.1-36,0.7-36.6c-3.7-0.2-21.9,0.9-37.3,7.2c-3.1,1-6.8,1.1-8.8-1.8
	c-3.6-4.6-14.7-17.1-22.4-16.3c-1.4,0.2-8.7,4.6-9.6,20.8c0,5.4-5.8,9.9-11.3,12.5c-10.9,4.9-39.1,24-24.2,37.2
	c7.2,6.4,20.4,9.8,29.9,10.9c2.4,0.4,3.5,1.4,3.7,3.6C398.7,283.9,399.3,293.5,395.6,293.3z"/>
<path fill="#FFFFFF" d="M167.1,451.5c0,0-20.1-113.2,30.8-204.4c0.6-1.1,5.4-10.8,7.8-9.5c2,1.1,1.2,9.6,1.1,11.4
	c-0.3,3.1,6.1,85.3,13.7,114.6c3.7,14.6,8.5,27.3,14.1,35.4c-5.9-26.1-21.6-108-16-145.4c3.1-20.9,4.1-40.1,11.1-53.4
	c2.8-5.2,5.4-8.8,8.4-9c4.5-0.2,6.1,1.5,9.9,6.7c8.9,12.1,14.7,26.6,19.3,40.8c9.4,28.7,15.9,59,21.1,88.7
	c5.4,31.7,27.3,61.1,62.5,44.7c2.5,23.8,13.3,50.8,27.9,69.4c-12.3-9-26.6-8.8-31.8,7.9c-5.6,18.2-8.7,38.5-9.9,57.6
	c-8.4,2.5-17.4,7.2-23.8,13c-1.4,0.9-2.8,5.4,3.1,3.9c5.9-1.4,28.2-6.2,29.7-6c6,1,5.4-6.1,7-9.9c4.3-11.1,11.4-25.3,25.9-21.9
	c25.6,6.2,34,44.5,39,65.9c4.1,17.9,12.5,77.6,14,77.3c1.8-0.2,3.4-11.8,3.5-13c4.2-25.3,6.6-50.6,12.4-75.6
	c23.9-102.3,52.5-49.5,58.1-30.7c4,9.5,12.6,9.4,21.4,10.7c0.9,0.1,23,5.1,16.9-1.5c-2.3-2.4-6.5-3.3-9.6-4.3
	c-16.9-5.4-14.9-17.7-16.8-33.1c-1.5-11.8-5.6-49.3-24.7-43.6c-4.2,1.2-17.5,8.8-12.3-2.3c0.8-1.6,2.4-5.1,4.3-9.9
	c10.3-25.6,20.4-58.9,12.1-86.5c-1-3.3-5.2-11.1-4.1-11.8c4.8-3.7,17.3,19.4,18.6,22c6,10.7,10.3,25.7,23.1,30
	c15.6,5.2,19.3-17.5,22-27.7c6.3-23.5,22.6-102,34.2-129.3c4.5-10.5,7.1-21.2,14.8-29.9c6.3-7.4,8.5-1.1,10.4,5.2
	c16,24.5,15.5,100.6,13.8,135.7c-0.8,17.2-3.3,33.3-5.8,50.1c-0.1,0.2-2.8,19.7,1.2,12c4.5-8.7,6.3-20.1,8.7-29.4
	c14.6-57,10.3-100.8,8.1-123.9c-0.2-2.4-3.8-17.6,0-18.9c2.6-0.8,5.9,3.6,7.1,5.3c54.3,65.1,52.5,172.5,50.4,193
	c-0.9,7.2,1.5,9.4,2.8,0.6c8.9-70.2,6.9-100.1-18.6-160.1c-16.5-38.9-45.5-63.4-56.6-83.5c-1.4-2.5-2.7-5.3-2.7-8.1
	c0-8.6-10,3.5-11.3,4.5c-30.5,24.7-54.3,93.1-64,115.6c-18.5,43.5-24.9,36.4-67.6,22.2c-5.3-1.9-5.5,0.9-3.4,5
	c8.9,15.9,12.3,33.6,9.8,51.6c-4.4,31-13.2,62.1-28.1,89.2c-11.6,21.1-26.1,122.1-27.6,122.5c-2,0.4-3.5-9.7-3.6-10.5
	c-7.2-50.8-9.1-121.7-67.4-88.7c-3.6,2-18.9,18.1-4.9-13.8c7.7-16.6,16.5-18.2,33.2-18.2c8.5,0,6.3-7.1,4.8-12.9
	c-3.6-11.9-6.3-24.3-9-36.5c-7.4-34.3-17-74.4,19.4-95.6c1.7-1,9.1-5.9,6.1-8.7c-3.8-3.5-17.6,7.1-19.8,7.6
	c-14.1,2.8-24.6,12.2-37.8,16.9c-15.2,5.4-29.5,0.6-38.8-12.5c-3.2-4.3-36.8-98.1-75-135.2c-4.4-4.3-7.8-7.8-11.6-0.2
	c-3.1,6-6.8,11.8-10.3,17.5c-7.9,13.1-16.7,25.4-24,38.8c-13.3,24.4-25.1,50.5-33,77.1c-10.9,36.8-9.7,76.8-3,114.5
	c1.9,10.5,4.7,20.2,7.4,30.5C166.7,457.4,168.4,456.6,167.1,451.5z"/>
<path fill="#FFFFFF" d="M462,231.7c0.8-1.8,0-4.4-0.4-5c-1-1.7-3.2-2-6.1,0.8c-2.9,3.3,2,4.3,1.8,6.3
	C456.9,238.2,460.4,236.7,462,231.7z"/>
<path fill="#FFFFFF" d="M404.7,249.2c3.1,0.2,15.8,0.7,17-0.6c1.4-1.1,0.9-4.2,0.3-5.5c-4.1-8.8-20-8.6-20.8,1.1
	C401.1,245.5,400.4,248.9,404.7,249.2z"/>
<path fill="#FFFFFF" d="M369.1,256.7c2.1,0.1,4.2,3.6,0.6,3.6C367.1,260.3,367.1,256.6,369.1,256.7z"/>
</svg>
