<?xml version="1.0" encoding="utf-8"?>
<!-- Generator: Adobe Illustrator 18.1.0, SVG Export Plug-In . SVG Version: 6.00 Build 0)  -->
<!DOCTYPE svg PUBLIC "-//W3C//DTD SVG 1.1//EN" "http://www.w3.org/Graphics/SVG/1.1/DTD/svg11.dtd">
<svg version="1.1" id="Layer_1" xmlns="http://www.w3.org/2000/svg" xmlns:xlink="http://www.w3.org/1999/xlink" x="0px" y="0px"
	 viewBox="0 0 870.6 870.5" enable-background="new 0 0 870.6 870.5" xml:space="preserve">
<g>
	<path fill="#C84C4D" d="M710.8,163.8C636.2,88.3,545.3,50.6,439,50.6c-107.2,0-198,37.8-273.5,113.2
		C90.9,239.2,52.3,330.1,52.3,436.4s38.6,198,113.2,272.7C241,784.5,331.9,822.3,439,822.3c106.3,0,197.2-37.8,271.8-113.2
		c75.4-74.6,113.1-166.4,113.1-272.7C823.9,330.1,786.3,239.2,710.8,163.8L710.8,163.8z M665.3,167.2l40.4,54
		c29.1,37.8,48.9,78.8,61.7,124.4c12,46.3,13.7,94.3,6,144.1c-9.4,67.7-40.2,129.5-92.6,185.2l-5.2,1.7c-3.5-3.4-2.6-6.8,1.7-10.3
		l7.7-9.4c32.6-48.9,49.7-94.3,52.3-135.5c-2.6-8.6-5.2-13.7-7.6-14.6c-6.9-1.7-14.6,1.8-20.6,8.6l-31.7,46.3H674l-1.8-2.6
		c0-3.4,1.8-7.7,4.3-12l6.8-12c11.1-32.6,18.1-58.3,18.9-78.8l-3.4-19.7c-2.6-6.9-6-12-12-15.4c-8.6-1.8-18.1,0.8-26.6,8.6
		l-18.9,23.1c-11.1,16.3-18.1,30.9-18.9,44.6l-3.4,3.4h-4.3c-2.6-2.6-2.6-6-0.8-9.4l1.7-11.1c2.6-24-1.7-40.4-13.7-47.2
		c-10.3-1.8-19.7,1.8-28.3,11.1c-15.5,18.1-21.5,42-18.9,72.9l18.1,12.9c7.7,4.3,11.1,10.3,9.4,18.1c0,8.6-3.4,15.4-11.1,20.5
		l-28.3-9.4c-11.1-2.6-21.5-2.6-30.9,0c-12.8,5.2-23.1,16.3-31.7,32.6l-17.1,44.6c-12.9,41.2-20.6,90.9-24,150.1
		c-2.6,1.7-5.2,2.6-6.8,1.7l-7.7-56.6c-2.6-24-6-42.8-9.4-56.6l-17.1-58.3c-7.7-21.5-18.1-38.6-30-52.3c-10.3-6-21.5-7.7-36-5.2
		c-5.2,0.8-17.1,4.2-34.3,10.3l-5.2-3.4l-5.2-7.7c-4.3-12-3.4-20.5,4.3-25.7c0.8-2.6,6-5.2,13.7-8.6c6.8-2.6,9.4-6.9,9.4-12
		c-0.8-19.7-4.3-34.3-7.7-45.4c-6-16.3-15.4-27.5-29.1-33.4c-9.4,0-16.3,2.6-19.7,6.8c-7.7,11.1-7.7,30.9-1.8,60.1
		c-3.4,4.3-6,4.3-7.7,0.8c-8.6-32.6-24-58.3-46.3-75.4c-7.7-4.3-14.6-5.2-20.5-4.3c-11.1,6.8-16.3,18.9-15.5,36l6,40.4
		c6.8,25.7,15.4,45.4,24,59.1c0,4.3-0.8,6-3.4,5.2c-3.4-0.8-6-3.4-8.6-8.6l-22.3-34.3c-6.9-8.6-14.6-12.8-23.1-11.1
		c-7.7,5.2-9.4,14.6-7.7,27.5l7.7,30.9c14.6,44.6,33.4,78.8,55.7,103.7c1.8,6,0,8.6-3.4,7.7l-12-11.1l-11.1-12.8
		C128,607.4,103.9,550.9,94.5,484c-10.3-66.9-1.8-129.5,24-186.1c8.6-20.5,20.5-42,36.8-65.1l46.3-60.1l2.6-13.7
		c0.8-5.2,4.3-7.7,9.4-8.6c6,0.8,13.7,4.3,21.5,9.4l18.1,16.3l48,64.3c11.1,14.6,22.3,26.6,33.4,36.8l19.7,14.6l6,3.4
		c12.8,5.2,25.7,7.7,37.8,6.9c2.6-1.8,3.4-4.3,4.2-7.7v-8.7l-26.5-8.6c-9.4-4.3-14.6-10.3-13.7-20.5c4.2-6.8,11.1-12.9,19.7-18.9
		l23.1-12.9l3.4-18.1c1.8-6.8,5.2-11.1,9.4-12c5.2,0,10.3,3.4,15.4,8.6l12,12.9l26.5-7.7l27.5,0.8c1.7,5.2,0.8,11.1-0.8,18
		l-6.8,16.3l-26.6,30l3.4,18.1l2.6,6.9c9.5,6,24,4.3,43.8-5.2c18.1-12.9,36-31.7,54-54.9l45.5-61.7l18.9-18.1c8.6-6,16.3-7.7,24-6
		l6,6L665.3,167.2L665.3,167.2z"/>
	<path fill="#FFCD7D" d="M744.3,127.8C659.3,42.8,556.4,0,436.4,0C315.6,0,212.7,42.8,127.8,127.8C42.8,212.6,0,315.5,0,436.4
		c0,120,42.8,222.9,127.8,307.8C212.6,830,315.5,872,436.4,872c120,0,222.9-42,307.8-127.8c85.7-84.9,127.7-187.8,127.7-307.8
		C871.9,315.5,829.9,212.6,744.3,127.8L744.3,127.8z M438.1,50.6c107.2,0,197.2,37.8,272.7,113.2s113.1,166.4,113.1,272.7
		s-37.7,198-113.1,272.7c-75.4,75.4-165.4,113.2-272.7,113.2c-106.3,0-197.2-37.8-272.7-113.2C90,634.5,52.3,542.7,52.3,436.4
		S90,239.2,165.5,163.8C241,88.3,331.8,50.6,438.1,50.6L438.1,50.6z"/>
	<path fill="#231F20" d="M665.3,167.2l-2.6-8.6l-6-6c-8.6-1.8-16.3,0-24,6L613,176.7l-44.6,61.7c-18.1,23.1-36,42-54.8,54.9
		c-18.9,9.4-33.4,11.1-42.9,5.2l-2.6-6.9l-3.4-18l25.7-30l7.7-16.3c1.7-6.8,1.7-12.9,0.8-18l-27.5-0.8l-26.5,7.7l-12-12.9
		c-5.2-5.2-10.3-8.6-15.4-8.6c-5.2,0.8-7.7,5.2-9.4,12l-3.4,18.1l-23.1,12.9c-8.6,6-16.3,12-20.5,18.9c0,10.3,4.3,16.3,14.6,20.5
		l26.5,8.6v8.6c-0.8,3.4-1.8,6-4.2,7.7c-12,0.8-24.9-1.8-37.8-6.9l-6-3.4l-19.7-14.6c-11.1-10.3-22.3-22.3-33.4-36.8l-48-64.3
		l-18.9-16.3c-6.9-5.2-14.6-8.6-21.5-9.4c-4.2,0.8-7.7,3.4-8.6,8.6l-2.6,13.7l-46.3,60.1c-17.1,23.1-29.1,44.6-36.8,65.1
		c-25.7,56.6-34.3,119.2-24,186.1c8.6,66.9,33.4,123.4,73.7,169.8l11.1,12.8l11.1,11.1c4.2,0.8,5.2-1.8,4.2-7.7
		c-22.3-24.9-41.2-59.1-56.6-103.7l-6.8-30.9c-2.6-12.9,0-22.3,7.7-27.5c8.6-1.7,16.3,2.6,23.1,11.1l22.3,34.3
		c1.8,5.2,5.2,7.7,8.6,8.6c2.6,0.8,3.4-0.8,3.4-5.2c-8.6-13.7-17.1-33.4-24-59.1l-6-40.4c-0.8-17.1,4.3-29.1,15.5-36
		c6-0.8,12.8,0,20.5,4.3c22.3,17.1,37.8,42.8,46.3,75.4c1.8,3.4,3.4,3.4,6.9-0.8c-5.2-29.1-5.2-48.8,2.6-60.1
		c3.4-4.3,10.3-6.8,18.9-6.8c13.7,6,24,17.1,30,33.4c3.4,11.1,6,25.7,7.7,45.4c0,5.2-2.6,9.4-9.4,12c-7.7,3.4-12.9,6-14.6,8.6
		c-6.8,5.2-8.6,13.7-3.4,25.7l4.3,7.7c1.8,2.6,3.4,3.4,6,3.4c17.1-6,28.3-9.4,34.3-10.3c14.6-2.6,25.7-0.8,36,5.2
		c12,13.7,22.3,30.9,30,52.3l17.1,58.3c3.4,13.7,6.8,32.6,9.4,56.6l6.8,56.6c2.6,0.8,4.3,0,6.8-1.7c4.3-59.1,12-108.9,24.9-150.1
		l17.1-44.6c8.6-16.3,18.9-27.5,31.7-32.6c9.4-2.6,18.9-2.6,30.9,0l28.3,9.4c6.8-5.2,11.1-12,11.1-20.5c0.8-7.7-2.6-13.7-9.4-18.1
		l-18.1-12.9c-2.6-30.9,3.4-54.9,18.9-72.9c8.6-9.4,17.1-12.9,28.3-11.1c11.1,6.8,16.3,23.1,13.7,47.2l-2.6,11.1
		c-0.8,3.4-0.8,6.8,0.8,9.4h4.3l3.4-3.4c1.7-13.7,8.6-28.3,18.9-44.6l19.7-23.1c8.6-7.7,18.1-10.3,26.6-8.6c5.2,3.4,9.4,8.6,12,15.4
		l3.4,19.7c-1.7,20.5-7.7,46.3-18.9,78.8l-6.8,12c-2.6,4.3-4.3,8.6-4.3,12l1.8,2.6h3.4l17.1-27.5l14.6-18.9
		c6-6.8,12.9-10.3,20.6-8.6c1.7,0.8,5.2,6,7.6,14.6c-2.6,41.2-19.7,86.6-52.3,135.5l-7.7,9.4c-4.3,3.4-5.2,6.8-2.6,10.3l6-1.7
		c52.3-55.7,83.2-117.4,92.6-185.2c7.7-49.7,5.2-97.7-6.8-144.1c-12-45.4-31.7-86.6-60.9-124.4l-21.5-26.5
		C675.6,184.3,669.7,174.9,665.3,167.2L665.3,167.2z M653.3,169.8v6c38.6,46.3,63.5,89.2,72.9,127.8l8.6,30
		c6,28.3,6.8,59.1,3.4,90.9c-1.7,20.5-7.7,41.2-18.1,61.7h-1.7c0.8-8.6,2.6-17.1,4.2-24.9c6-36.8,7.7-68.6,3.5-94.3l-10.3-46.3
		L697,268.3l-18.8-32.5c-0.8,3.4-0.8,8.6,0,13.7l1.7,12.9c1.8,10.3,0.8,23.1-0.8,38.6l-3.4,36.8c-5.2,36-15.5,66.9-31.8,93.5H643
		l8.6-28.3c0-2.6,0-4.3,1.8-6c9.4-54,12-97.7,8.6-132.9l-6-51.5l-6-13.7c-2.6-5.2-6.8-8.6-11.1-9.4c-14.6,18.1-25.7,43.8-32.6,78
		l-18.9,84c-8.6,21.5-18.1,34.3-30,38.6c-7.7,1.8-17.1-0.8-26.5-8.6c-2.6-1.8-5.2-5.2-7.7-9.4l-6-9.5c-0.8,1.8-0.8,3.4,0,5.2l1.8,6
		c0.8,15.4-1.8,31.7-6,48l-19.7,42.8c1.8,0,3.4,0,7.7-3.4l9.5-4.3l11.1-0.8c6.8,4.2,12,12.9,14.6,24l5.2,42c0,4.3,0.8,7.7,2.6,10.3
		c14.6,4.3,23.1,8.6,24.9,13.7l-1.7,6.9l-25.7-6l-10.3-2.6l-2.6-4.3l-2.6-6l-4.3-11.1c-7.6-10.3-15.4-14.6-25.7-12.9
		c-6.8,2.6-13.7,6-19.7,12l-0.8,0.8c-3.4,3.4-6.8,7.7-9.4,12.8c-5.2,8.6-9.5,22.3-14.6,39.4l-6,28.3c-2.6,11.1-4.3,20.5-4.3,29.1
		c-2.6,10.3-3.4,25.7-3.4,45.5l-3.4,47.2h-0.8v-0.8c-0.8-49.7-4.2-90-10.3-121.8c-1.8-11.1-4.3-20.6-6.8-29.1
		c-6-23.1-14.6-40.4-24.9-52.3l-2.6-2.6l-6-5.2l-22.3-1.7c-13.7,6.8-20.5,18.1-20.5,31.7l-35.1,6.8l-0.8,1.8l-0.8,0.8l-2.6-4.2
		l0.8-6c1.8-2.6,6.9-5.2,13.7-7.7c6.8-2.6,11.1-5.2,12.9-9.4l2.6-36c1.8-13.7,6-24.9,12-31.7l18.1-0.8l16.3,7.7l0.8-0.8
		c-12.9-19.7-22.3-42-27.5-66.9l1.8-34.3c-16.3,21.5-31.7,30-48,25.7c-12-6.9-19.7-18.1-24.9-34.3l-9.4-42.8
		c-5.2-33.4-9.4-54-12-64.3c-6-23.1-15.5-42-26.6-56.6l-4.2-0.8c-1.8,0-3.4,0.8-3.4,2.6c-10.3,17.1-15.5,36-15.5,54.9
		c-3.4,25.7-4.2,57.5-0.8,95.1c0.8,16.3,3.4,34.3,7.7,53.1l9.4,36c-29.1-49.7-41.2-114-34.3-193.8l0.8-3.4l-2.6,0.8
		c0,1.8-0.8,2.6-1.8,2.6c-15.4,26.6-29.1,61.7-40.4,104.6c-8.6,35.2-8.6,72-2.6,108.9l1.8,13.7l3.4,11.1c-1.8,1.8-0.8,3.4,0.8,6
		c0.8,1.8,1.8,3.4,0,4.2c-4.3-4.2-8.6-17.1-14.6-36c-9.4-37.8-10.3-75.4-3.4-112.3c9.4-55.7,36.8-108.9,82.4-161.2l2.6-8.6
		c1.8-2.6,4.2-2.6,7.7-0.8c18.9,17.1,34.3,37.8,46.3,63.5c7.7,16.3,16.3,41.2,25.7,73.7c7.7,19.7,18.9,29.1,33.4,28.3l13.7-1.8
		l34.3-14.6l32.6-6.8c0.8-0.8,1.8-4.3,1.8-8.6c0-4.3,0.8-6.9,2.6-7.7c2.6,0.8,3.4,2.6,2.6,6l1.8,7.7c2.6,5.2,1.8,8.6-0.8,11.1
		c-9.4,1.8-18.1,5.2-25.7,11.1c-6,4.3-10.3,8.6-13.7,14.6l-0.8,2.6l-1.8,6v0.8l-0.8,3.4h-1.8L372,368l-0.8,5.2v0.8l0.8,30
		c2.6,16.3,11.1,42.8,26.5,82.4c-18.9-9.4-31.7-13.7-38.6-14.6h-0.8l-3.4,0.8l-4.3,4.2l-6,9.4l-1.8,5.2l-3.4,22.3
		c5.2-7.6,11.1-12.8,19.7-16.3l25.8-1.8c8.6,3.4,16.3,9.5,22.3,18.9l12,26.6l6,31.7c4.3,18.9,6.8,33.4,6.8,42c0.8-0.8,1.8-2.6,2.6-6
		l0.8-8.6c2.6-36.8,15.5-76.3,36-120l20.5-56.6c6-22.3,8.6-42.8,6.8-63.5c-2.6-10.3-6.8-19.7-11.1-27.5l-0.8-0.8
		c-5.2-7.7-11.1-13.7-18.1-18h14.6l41.2,16.3c17.1,5.2,30.9,0.8,38.6-12c6.9-9.4,11.1-18.9,13.7-29.1l0.8-3.4V285l0.8-0.8V283v-0.8
		l16.3-46.3c6.8-16.3,14.6-30.9,24-42.8c6-8.6,14.6-18.1,25.7-25.7C649.9,166.4,652.5,168,653.3,169.8L653.3,169.8z M457.9,237.5
		c1.8-4.3,6-6.8,12-5.2v0.8c0.8,4.3-1.8,8.6-7.7,13.7c-1.8,0-2.6-0.8-2.6-4.3L457.9,237.5L457.9,237.5z M442.4,242.6l1.8,4.3v4.3
		c-1.8,2.6-5.2,4.3-10.3,4.3h-12l-3.4-3.4l-0.8-3.4c3.4-6.9,6.8-10.3,9.4-11.1C433.8,237.5,439,239.2,442.4,242.6L442.4,242.6z"/>
	<path fill="#FFCD7D" d="M653.3,175.7v-6c-0.8-1.8-3.4-3.4-7.7-2.6c-11.1,7.7-19.7,17.1-25.7,25.7c-9.4,12-17.1,26.5-24,42.8
		L579.6,282v0.8v0.8l-0.8,0.8v0.8l-0.8,3.4c-2.6,10.3-6.8,19.7-13.7,29.1c-7.6,12.9-21.5,17.1-38.6,12l-41.2-16.3h-14.6
		c6.8,4.3,12.8,10.3,18.1,18l2.6,0.8h-1.8c4.3,7.7,8.6,17.1,11.1,27.5c1.8,20.5-0.8,41.2-6.8,63.5l-20.5,56.6
		c-20.5,43.8-33.4,83.2-36,120l-0.8,8.6c-0.8,3.4-1.8,5.2-2.6,6c0-8.6-2.6-23.1-6.8-42l-6-31.7l-12-26.6c-6-9.4-13.7-15.4-22.3-18.9
		l-25.7,1.8c-8.6,3.4-14.6,8.6-19.7,16.3l3.4-22.3l1.8-5.2l6-9.4l4.3-4.2l0.8-1.8l2.6,0.8h0.8c6.8,0.8,19.7,5.2,38.6,14.6
		c-15.4-39.4-24-66-26.5-82.4l-0.8-30v-0.8l0.8-5.2l1.8-11.1h0.8l0.8-3.4V352l1.8-6l0.8-2.6c3.4-6,7.7-10.3,13.7-14.6
		c7.7-6,16.3-9.4,25.7-11.1c2.6-2.6,3.4-6,0.8-11.1l-1.8-7.7c0.8-3.4,0-5.2-2.6-6c-1.8,0.8-2.6,3.4-2.6,7.7s-0.8,7.7-1.8,8.6
		l-32.6,6.8l-34.3,14.6l-13.7,1.8c-14.6,0.8-25.7-8.6-33.4-28.3c-9.4-32.6-18.1-57.5-25.7-73.7c-12-25.7-27.5-46.3-46.3-63.5
		c-3.4-1.8-6-1.8-7.7,0.8l-2.6,8.6c-45.4,52.3-72.9,105.5-82.4,161.2c-6.9,36.8-6,74.6,3.4,112.3c6,18.9,10.3,31.8,14.6,36
		c1.8-0.8,0.8-2.6,0-4.2c-1.8-2.6-2.6-4.3-0.8-6l-3.4-11.1l-1.8-13.7c-6-36.8-6-73.7,2.6-108.9c11.1-42.8,24.9-78,40.4-104.6
		c0.8,0,1.8-0.8,1.8-2.6l2.6-0.8l-0.8,3.4c-6.8,79.8,5.2,144.1,34.3,193.8l-9.4-36c-4.2-18.9-6.8-36.8-7.7-53.1
		c-3.4-37.8-2.6-69.5,0.8-95.1c0-18.9,5.2-37.8,15.5-54.9c0-1.8,1.8-2.6,3.4-2.6l4.2,0.8c11.1,14.6,20.5,33.4,26.6,56.6
		c2.6,10.3,6.8,30.9,12,64.3l9.4,42.8c5.2,16.3,12.9,27.5,24.9,34.3c16.3,4.3,31.7-4.3,48-25.7l-1.8,34.3
		c5.2,24.9,14.6,47.2,27.5,66.9l-0.8,0.8l-16.3-7.7l-18.1,0.8c-6,6.8-10.3,18.1-12,31.7l-2.6,36c-1.8,4.3-6,6.8-12.9,9.4
		c-6.8,2.6-12,5.2-13.7,7.7l-0.8,6l3.4,3.4l0.8-1.8l35.1-6.8c0-13.7,6.8-24.9,20.5-31.7l22.3,1.7l6,5.2l2.6,2.6
		c10.3,12,18.9,29.1,24.9,52.3c2.6,8.6,5.2,18.1,6.8,29.1c6,31.7,9.4,72,10.3,121.8l0.8,0.8l3.4-47.2c0-19.7,0.8-35.1,3.4-45.5
		c0-8.6,1.8-18,4.3-29.1l6-28.3c5.2-17.1,9.4-30.9,14.6-39.4c2.6-5.2,6-9.4,9.4-12.8v-0.8h0.8c6-6,12.8-9.4,19.7-12
		c10.3-1.8,18.1,2.6,25.7,12.9l4.3,11.1l2.6,6l12.8,6.8l25.7,6l1.7-6.9c-1.7-5.2-10.3-9.4-24.9-13.7c-1.7-2.6-2.6-6-2.6-10.3
		l-5.2-42c-2.6-11.1-7.7-19.7-14.6-24l-11.1,0.8l-9.5,4.3c-4.3,3.4-6,3.4-7.7,3.4l19.7-42.8c4.2-16.3,6.8-32.6,6-48l-1.7-6
		c-0.8-1.8-0.8-3.4,0-5.2l6,9.4c2.6,4.3,5.2,7.7,7.7,9.4c9.4,7.7,18.9,10.3,26.5,8.6c12-4.3,21.5-17.1,30-38.6l18.9-84
		c6.8-34.3,18.1-60.1,32.6-78c4.3,0.8,8.6,4.3,11.1,9.4l6,13.7l6,51.5c3.4,35.1,0.8,78.8-8.6,132.9c-1.8,1.8-1.8,3.4-1.8,6
		l-8.6,28.3h0.8c16.3-26.6,26.6-57.5,31.8-93.5l3.4-36.8c1.7-15.4,2.6-28.3,0.8-38.6l-1.7-12.9c-0.8-5.2-0.8-10.3,0-13.7l18.9,32.6
		l18.9,52.3l10.3,46.3c4.2,25.7,2.6,57.5-3.5,94.3c-1.7,7.7-3.4,16.3-4.2,24.9h1.7c10.3-20.5,16.3-41.2,18.1-61.7
		c3.4-31.7,2.6-62.5-3.4-90.9l-8.6-30C716.8,264.9,691.9,222.1,653.3,175.7L653.3,175.7z"/>
	<polygon fill="#C15153" points="488.6,332.7 490.4,332.7 487.9,331.8 	"/>
	<polygon fill="#C15153" points="475,522.2 475,523 475.8,522.2 	"/>
	<polygon fill="#C15153" points="541,547.1 528.2,540.1 530.7,544.5 	"/>
	<path fill="#C15153" d="M391,521.3l-2.6-2.6L391,521.3z"/>
	<polygon fill="#C15153" points="356.7,470.7 355.8,472.4 359.2,471.6 	"/>
	<polygon fill="#C15153" points="303.5,552.2 300.1,548.7 302.7,553 	"/>
	<polygon fill="#C15153" points="433.8,725.4 433,724.5 433,725.4 	"/>
	<path fill="#FFCD7D" d="M469.9,232.3c-6-1.8-10.3,0.8-12,5.2l1.8,5.2c0,3.4,0.8,4.3,2.6,4.3c6-5.2,8.6-9.4,7.7-13.7L469.9,232.3
		L469.9,232.3z"/>
	<path fill="#FFCD7D" d="M444.2,247l-1.8-4.3c-3.4-3.4-8.6-5.2-15.5-5.2c-2.6,0.8-6,4.3-9.4,11.1l0.8,3.4l3.4,3.4h12
		c5.2,0,8.6-1.8,10.3-4.3L444.2,247L444.2,247z"/>
</g>
</svg>
