<?xml version="1.0" encoding="utf-8"?>
<!-- Generator: Adobe Illustrator 18.0.0, SVG Export Plug-In . SVG Version: 6.00 Build 0)  -->
<!DOCTYPE svg PUBLIC "-//W3C//DTD SVG 1.1//EN" "http://www.w3.org/Graphics/SVG/1.1/DTD/svg11.dtd">
<svg version="1.1" id="Layer_1" xmlns="http://www.w3.org/2000/svg" xmlns:xlink="http://www.w3.org/1999/xlink" x="0px" y="0px"
	 viewBox="0 0 870.6 870.5" enable-background="new 0 0 870.6 870.5" xml:space="preserve">
<g>
	<path fill="#532E1A" d="M270.3,59.9c0,0,29.9-40.2,123.1-56.7c0,0,132.6-17.4,179.2,29.3c0,0,58.5,49.4,100.6,131.6
		c0,0,49.4,93.2,49.4,160.9c0,0-20.4,5.8-7.9,18.3c0,0,5.2,5.2-3.7,14l-1.2,129.2c0,0-29.6,26.5-5.5,50.6c0,0,56.1,67,7.9,133.5
		c0,0-7.3,21.3-54.8,62.2c-47.5,40.8-60.3,53-60.3,53s-47.5,29.2-43.9,43.9c0,0-18.9-3.1-32.9,11c0,0-23.2,37.2-54.2,31.1
		c0,0-32.9,6.7-67.7-14c0,0-10.4-10.4-17.1,9.1c0,0-17.1-2.4-43.3-28.7c0,0-10.4-15.8-54.2-13.4c0,0-11,0.6-17.1-5.5
		c0,0-53-53.6-63.4-70.1c0,0-26.2-31.1-39-31.1c0,0-6.7-8.5,7.3-22.5c0,0,3.6-11-3.1-17.7c0,0-4.3-4.3-10.4-10.4
		c0,0-4.3-4.3,7.9-16.5c0,0,2.4-26.2-9.8-68.3c0,0-14-92.6-10.4-129.8c0,0-7.3-35.3,12.8-64c0,0,5.8-25.9-6.7-38.4
		c0,0-7.9-14.6-15.2-14.6c0,0,14.6-22.6,14.6-38.4c0,0,0-11.6-14-19.5c0,0,21.3-11,26.5-26.5c0,0,4-23.5,4-37.5
		c0,0-2.4-23.8,19.5-45.7c0,0,27.4-26.8,24.4-51.2c0,0,15.2,11,31.1-24.4L270.3,59.9z"/>
	<path fill="#D1A761" d="M259.9,211.6c-4.5,6.4-8.1,13.1-9,21.3c-2.1,19.6,13.7,25.6,31,27.5c0,0,123.7-12.8,150.5-9.8
		c20.7-1.1,49.7-3.8,68.8-12.7c6.4-3,10.7-7,10.9-14.3c1-26.3-35.2-50.1-57.1-57.1c0,0-28.7-9.1-70.7-1.2c0,0-47.5,13.4-77.4-3.7
		c0,0-3.1,16.5-7.3,20.7c0,0-6.7,7.9-14-4.9c-4,4.5-8.1,9.3-11.3,14.5C270.1,198.9,264.6,205,259.9,211.6z"/>
	<path fill="#D1A761" d="M247.8,345.1l12.8,12.8c0,0,7.9,12.8,14,0c6.1-12.8,0-2.4,0-2.4s7.3-9.8,0-17.1l-18.3-23.8
		c0,0-4.6-4.6-9.1,0l-6.1,13.4C241.1,328,236.2,333.5,247.8,345.1z"/>
	<path fill="#D1A761" d="M309.9,326.2c0,0,17.7-22.5,34.7-29.9c0,0,33.2-16.8,54.9,4.9c0,0,49.4,53.6,57.9,67.7
		c0,0,9.8,6.7,3.6,12.8l-8.8,8.8c0,0-6.4,2.8-11.9-2.7l-5.5-12.8c0,0-9.5-7-16.5,0c0,0-3.1,13.4-13.4,17.1c0,0-5.5,4.3-2.4,7.3
		c0,0,3.6,19.5-15.8,30.5c0,0-23.2,9.8-36.6,6.7c0,0-34.8,1.8-49.4-12.8c0,0-13.4-14.6-6.1-44.5l0.6-22.5
		C295.3,356.7,302,334.1,309.9,326.2z"/>
	<path fill="#D1A761" d="M336.8,467.6c0,0-20.1-9.1,0-14.6l15.5-4.6c0,0,29.2-7.3,29.2,6.4c0,0,5.5,11.9-11.9,11.9
		C369.7,466.7,342.3,468.5,336.8,467.6z"/>
	<path fill="#532E1A" d="M325.2,354.2c0,0-15.8-11,0-11h11.6c0,0,5.5-1.2,5.5,5.5c0,0,4.9,16.5,29.2,3.7l10.4-5.5l11.6-4.3H405
		l-3.6,9.8c0,0-14.6,15.2-28.6,15.2l-15.2,2.4C357.5,370.1,338.6,367.6,325.2,354.2z"/>
</g>
</svg>
