<?xml version="1.0" encoding="utf-8"?>
<!-- Generator: Adobe Illustrator 18.1.0, SVG Export Plug-In . SVG Version: 6.00 Build 0)  -->
<!DOCTYPE svg PUBLIC "-//W3C//DTD SVG 1.1//EN" "http://www.w3.org/Graphics/SVG/1.1/DTD/svg11.dtd">
<svg version="1.1" id="Layer_1" xmlns="http://www.w3.org/2000/svg" xmlns:xlink="http://www.w3.org/1999/xlink" x="0px" y="0px"
	 viewBox="0 0 870.6 870.5" enable-background="new 0 0 870.6 870.5" xml:space="preserve">
<g>
	<path fill="#5B9F44" d="M116.9,317.9c-30.1-38-50.5-72.8-61.2-104.4c58-9.1,80.6-2.1,120.3,1.1c-13.4-32.4-20.6-71-21.7-115.8
		c39.6,7.5,76.7,21.5,111.4,42c4-49.6,12.3-88.6,24.9-116.9c32.5,21.1,62.1,46.1,88.6,74.9c23.9-51.8,43.5-84.8,58.9-98.9
		c29.3,35.5,49.1,68.8,59.1,100C529.8,66.2,560,41.6,588,26c12.4,51.3,18.1,91,17.1,119.2c46.8-23.5,85-37.1,114.6-40.9
		c-4.5,40.2-12.1,78.8-22.8,115.8c37.6-5.7,82.5-3.7,119.2-1.1c-16.9,41.7-37.3,76.2-61.2,103.4c41.2,9.9,78.6,23.5,112.4,40.9
		c-22.4,23.9-53.4,48.9-93.2,74.9c38.6,24.6,70.5,50.7,95.5,78.3c-30.4,13.6-69,26.4-115.8,38.6c25.9,35.8,46.7,70.2,62.3,103.2
		c-37.2,3.5-78.4,2.7-123.5-2.3c11.3,41.2,19.2,79.7,23.7,115.8c-33-8.1-71.6-22.1-115.8-42c-2.6,47.8-8.7,86.8-18.3,116.9
		c-36.9-23.7-67.5-49.4-91.8-77.2c-21.6,45.1-42.1,79.6-61.4,103.4c-28.9-42.7-48.2-77.5-57.8-104.6c-28.6,30.3-58.8,55.6-90.9,76
		c-10.1-36-16.9-75.4-20.3-118.1c-35.4,16.5-72.8,30.1-112.4,40.9c4-37.8,12.3-76.8,24.9-116.9c-53.2,4-94.5,3.6-123.8-1.1
		c16.9-35.1,37.4-68.4,61.4-99.8C64.9,537.6,28.1,523.2,0,506.3c29.8-32.1,60.4-56.7,92-73.8c-39.1-24-69.4-50.1-90.9-78.3
		C43.3,334.2,81.9,322.1,116.9,317.9L116.9,317.9z"/>
	<path fill="#A9C341" d="M209.7,305.4c-17.2-32.8-30.6-68.8-34.1-94c45.5,1.5,66.5,20.6,96.2,28.8c-5.4-26.2-10-66.7-4.1-100.3
		c28.9,11.3,56.5,33.9,79.8,54.2c10.5-36.5,21.2-71.1,35-90.5c21.6,20.5,39.9,49.1,55.7,74.5c25.9-35.3,46.2-62.8,60-71.1
		c17,30.7,23.2,62.4,26.2,87.2c29.7-20.6,60.2-38.6,83.8-46.2c1.8,40.1,0.2,70.6-4.8,91.5c39.1-10.8,69.8-17.3,92.9-15.8
		c-9.4,29.4-20.6,58.9-34.3,85c29.4,1.2,63.4,6,90.9,13.2c-19.1,28.7-39.9,54.7-62.1,71.6c29.8,13.3,59.6,26.3,82.6,44.2
		c-20.6,14.7-51.3,31.4-85.3,45.1c25.7,23.9,46,48,60.9,72.3c-25.1,5.8-56.4,9.8-93.8,12.2c14.4,30.5,25,59.2,32,86.1
		c-28.8-2.8-55.5-8.4-89.1-18.6c2.4,32.4,3.7,64.6,1.8,92.2c-23.8-10.8-51.9-26.6-82.5-47.8c-9.1,35.3-17,68.3-28.8,89.4
		c-24.5-23-45.6-49.7-60-74c-23.1,30.6-43.5,58.9-61.8,74c-15.6-36.1-21.8-70.1-25.1-91.7c-26.2,18.5-55.8,36.5-83.2,47.1
		c-2.3-28.4,3.7-62.3,7.5-94.7c-29.3,7.2-63.6,18.2-95.2,20.6c8.7-27.7,24.5-60.5,40.1-88.7c-41.1-4.7-76.2-4.3-97.7-12
		c18.1-23.8,39.7-52.1,62.6-72.1c-32.7-15.4-61.8-28.5-80.7-45.2c27.4-19.7,58.1-34.9,84.7-43.1c-26.2-23.5-50.5-47-62.6-71.2
		C152.5,308.6,182.5,303.5,209.7,305.4L209.7,305.4z"/>
	<path fill="#FCDE70" d="M293,316.8c-8.4-26.8-19.2-55.6-18.5-74.9C308,249,322.3,267,343.2,277c-0.6-20.3-3.6-55.1,5.1-79.5
		c19.9,12.3,42.5,39.9,57.1,58.2c12.5-26,18.9-59.4,31.7-72.1c13.3,18.2,22.1,52.6,30.5,73.7c25.4-28.9,43.5-53.1,54.8-57.5
		c8.6,25.3,3.3,59.4,2.3,78.3c24.6-11.5,56.4-33.7,74.9-36.3c-3.9,30.3-19.5,63.3-25.9,78.3c30.3-3,65.4-13.4,82.3-9.3
		c-10.8,20.8-32.8,45.5-52.9,64.5c21.6,4.8,63.5,9.4,83,18.5c-17.9,19-52.8,31.2-71.4,40.9c20.3,13.9,54.4,30.3,69.1,46.7
		c-17.1,8.3-52.5,10.9-79.5,16.6c15.9,21.3,42.3,45,50.2,65.2c-19.3,1-53.9-9.5-81.8-12.7c6.7,24.7,20.8,58.4,22.4,79.5
		c-20.9-5.9-50.2-27.6-73.7-39.7c-2.4,24.6,1.5,62.5-3.5,83c-16.2-11.2-34.9-40.6-54.8-60.6c-11.3,25.3-21.3,62.9-32.8,77.2
		c-15.1-20.5-21.9-58.3-29.3-78.3c-21.1,19.9-40.9,50.6-56.4,59.4c-6.9-29.1-3.9-62.9-3.5-79.5c-21.8,10.4-49.3,30.8-71,35.1
		c2-21.6,17.3-54.6,24.3-78.3c-22.6,1.5-58.1,12.8-81.8,10.4c10-19.6,33.8-45,49-64c-29.7-9-66.9-10.3-81.8-18.9
		c16.5-15.4,51.8-30.1,71.4-42.1c-22.2-15.9-55-29.4-66.8-44.4c22.8-11.1,58.8-17.5,79.5-20.1c-16.3-21.1-44.4-42-50.2-61.7
		C240.6,305.5,273.1,311.7,293,316.8L293,316.8z"/>
	<path fill="#FFFFFF" d="M357.7,388.5c-20-16.3-38.1-37.8-54.2-64.5c31.5,11.6,58.7,28.5,74.8,41.8c-17-34.8-26.3-61.6-27.8-80.4
		c22.2,18,40.1,43,54.5,64.5c-2.9-39.6-2.1-68.5,2.4-86.7c13.5,25.3,23.5,52.1,29.9,80.4c5.8-31.6,15.8-58.2,29.9-79.6
		c4.2,25.3,4.2,53.9,0,85.9c16.7-26.3,34.6-46.7,53.7-61.3c-4.6,28.1-13.5,53.9-26.7,77.2c23.4-18.7,47.8-31.8,73.2-39.4
		c-16,26.1-33.6,45.5-52.9,61.3c32.5-7.8,59.5-11,81.1-9.5c-22.9,16.7-47.1,30.9-72.4,42.6c39.1,2.5,67,8.1,83.5,16.6
		c-22.8,7.1-43.3,11.9-84.3,14c30.7,13.3,55.1,27.7,73.2,43.3c-27.9-1-50.5-3.2-83.5-14c21,19.7,39.1,41.4,54.4,65.3
		c-25.4-9.9-49.3-23.3-71.6-40.2c13.7,32,21.9,58.5,24.3,79.6c-20.9-19.4-39.1-40.9-54.5-64.5c2.4,31.9,1.8,59.2-1.6,81.9
		c-14.1-24-23.8-49.1-29.1-75.1c-11.5,36.7-21.7,62-30.7,75.9c-4.6-26-4.9-54.4-0.8-85.1c-19.9,30.4-38.6,51.9-56,64.5
		c8.7-32.9,18-59.4,27.8-79.6c-22.8,17.6-46.9,30.7-72.4,39.4c16.3-25,33.9-46.2,52.6-63.7c-28.9,8-56,11.9-81.2,11.6
		c20.6-16.6,44-30.5,70.3-41.5c-37-2.9-64.3-7.9-81.9-15.1c26.7-9.1,54.8-13.8,84.3-14.3c-29.8-14.3-53.8-29.5-71.9-45.7
		C306,376,333.8,380.7,357.7,388.5L357.7,388.5z"/>
</g>
</svg>
