<?xml version="1.0" encoding="utf-8"?>
<!-- Generator: Adobe Illustrator 18.1.0, SVG Export Plug-In . SVG Version: 6.00 Build 0)  -->
<!DOCTYPE svg PUBLIC "-//W3C//DTD SVG 1.1//EN" "http://www.w3.org/Graphics/SVG/1.1/DTD/svg11.dtd">
<svg version="1.1" id="Layer_1" xmlns="http://www.w3.org/2000/svg" xmlns:xlink="http://www.w3.org/1999/xlink" x="0px" y="0px"
	 viewBox="700.8 238.8 451.2 426" enable-background="new 700.8 238.8 451.2 426" xml:space="preserve">
<g>
	<polygon fill="#FFFFFF" points="705.8,238.8 1131.8,238.8 1131.8,664.8 705.8,664.8 	"/>
	<path fill="#231F20" d="M979.6,453.5c0.3-0.3,0.5-0.5,0.8-0.8c14-18.6,2.9-43.5-4.7-61.5c-5.3-4.8-13-6.3-18.4-10.7
		c16.9-17.2,40.5-31.5,48.7-54.1c7.2-14.9,6.9-35.9-1.7-50c-4.7-9.1-14.2-17.9-23.5-21.5c-11-5.6-27.3-4.2-37.2,2.7
		c-0.1,0.7,0.1,1.3,0.7,1.6c6.1,1.5,12,3.5,17.5,6.4c13.3,7.6,22.4,21.6,19.8,37.6c-1.7,10.7-9.3,22.2-20.1,25.8
		c-10,3.8-19.6-1.5-26.9-8.4c-14.7-15.8-31.3-30.8-40-49.1c-1.6-3.7-2.4-7.6-4.7-11c-1-0.2-1.8,0.2-2.3,1c-5.6,15.3-0.6,32.1,6,45.3
		c7.8,17.9,28.5,30.4,36.3,48.3c1.3,6.6,3.5,12-2.8,20.5c-6.2,7.4-9.8,9.3-17.9,9.3c-8.6-1.8-12-8.8-13.8-14.6
		c-2.3-18.1-7.1-36.1-20.5-48.7c-12.6-11.3-31.3-16.6-47.7-9.8c-0.8,0.7-0.1,1.8,0.7,2c3.8,0.3,7.5,1,11.1,2
		c15.9,4.5,27.3,21.3,30.2,36.6c2.2,10.5,1.5,22.6-8.1,29.2c-4.1,2.9-10.8,3.2-15.1,0.7c-7.1-3-9.4-10.3-10.1-17.1
		c0.3-2.3-1.3-1.5-2.4-1.4c-4.8,5.4-6.9,11.8-4.1,20.5c5.5,14.5,20.6,22.6,35.3,23.2c12.4,1.3,29.3-6.5,38,5.4c0.7,3,0.4,6.3-2,8.4
		c-3.1,3-8.7,2.9-12.4,1.4c-2.4-0.5-3.9-3.8-6.4-3c-0.7,3,1.1,5.8,2.4,8.4c4,6.7,11.2,7.3,17.5,9.1c1,3.9,2.3,7.6,5,10.7l1,1.1
		c-4.6-0.8-11.5-1.5-16.1-1.4c-2.8,1.8-5.7,3.8-8.5,5.9c-7.3,5.3-14.2,11.4-20.1,18.3v10.8c-7.9,8.1-15.6,16.4-21.8,25.2
		c-3.1,7.3-6.1,14.5-7.7,22.5c-0.8,4.1-1.9,10.1,2.7,12.7c8.3,6.1,17.8,13.5,28.5,9.4l7.7,3.4c7.1,1.9,11.6-4.2,17.5-6.4
		c4.6,1.5,9.9,1.1,14.8,1.6c8-0.6,18.1,0.9,21.8-7c1.1-7.5-0.1-16.1-3-22.5c-10,3.9-22.6,3.9-33.2,1.3c-5.9,4.6-12.2,8.2-18.5,11.8
		c-4.5-1.5-9-2.8-13.1-5.4c7.5-13.1,18.2-25.5,29.9-36.3l1.3-10.7l5.8-5.7c8.4-5.1,14.2-16.4,26.2-13.1c3.2-2.9,5.1-6.2,6.2-9.9
		c0.2-0.6,0.3-1.2,0.5-1.8c-3.1-3.8-2.4-9.6-2-14.4c3.3-13.6,18.1-20.6,28.9-26.6c2.5,2.7,2.9,6.2,4.1,9.4
		c2.8,13.6-5.9,24.1-15.8,31.9c-0.3,0.5-0.5,1-0.7,1.5c-2.3,5.4-2.3,12.6,0,16.7c14.7,10.4,26.3,25.6,31.9,41.6
		c11,34.2-2.1,69-30.3,91.4l-1,2.7l-0.1,43.8c1,1.9,4,3.2,6.1,2.5c13.3-2.5,20.2-25.1,26.5-39.3c15-13.1,23-29.7,27.8-47.3
		c9.2-39.9-3.5-78.8-34.2-105.4C973.1,458.2,976.6,456.4,979.6,453.5L979.6,453.5z"/>
	<path fill="#231F20" d="M982.6,633.8c0-5,3.9-9.1,8.9-9.1s9,3.9,9,9c0,5.1-4,9.1-9,9.1C986.6,642.8,982.6,638.7,982.6,633.8
		L982.6,633.8z M999.5,633.7c0-4.5-3.5-8.1-8-8.1s-8,3.6-8,8.1c0,4.4,3.5,8.1,7.9,8.1C995.9,641.8,999.5,638.3,999.5,633.7
		L999.5,633.7z M987.3,628h4.2c0.9,0,2.2,0,3,0.5c0.7,0.4,1.1,1.3,1.1,2.1c0,1.6-1.4,2.7-2.8,2.8c1.2,0.2,1.8,1.6,2.2,2.6
		c0.2,0.5,0.6,1.3,0.9,1.7c0.2,0.3,0.5,0.3,0.9,0.3v0.5h-0.7c-0.6,0-1.3,0.1-1.7-0.3c-0.5-0.4-0.9-1.5-1.1-2
		c-0.7-1.6-0.8-2.5-2.6-2.5h-0.4v3c0,0.3-0.1,1.3,0.4,1.4l0.8,0v0.5h-4.2v-0.5l0.5,0c0.6,0,0.7-0.2,0.7-0.8v-8.1
		c0-0.5-0.3-0.6-0.8-0.6l-0.4,0L987.3,628L987.3,628z M990.6,633.2c1.7,0,3.3-0.2,3.3-2.3c0-0.7-0.2-1.4-0.8-1.8
		c-0.5-0.4-1-0.4-1.6-0.4c-1,0-1.2,0-1.2,1.1v3.5H990.6L990.6,633.2z"/>
</g>
</svg>
