<?xml version="1.0" encoding="utf-8"?>
<!-- Generator: Adobe Illustrator 18.1.0, SVG Export Plug-In . SVG Version: 6.00 Build 0)  -->
<!DOCTYPE svg PUBLIC "-//W3C//DTD SVG 1.1//EN" "http://www.w3.org/Graphics/SVG/1.1/DTD/svg11.dtd">
<svg version="1.1" id="Layer_1" xmlns="http://www.w3.org/2000/svg" xmlns:xlink="http://www.w3.org/1999/xlink" x="0px" y="0px"
	 viewBox="0 0 870.6 870.5" enable-background="new 0 0 870.6 870.5" xml:space="preserve">
<path fill-rule="evenodd" clip-rule="evenodd" fill="#005BAA" d="M870.8,436c0,4.3-4.3,8.6-4.3,8.6L629.4,680.2
	c-8.6,10.1-14.3,4.3-11.5-2.9c5.7-11.5,14.3-24.4,23-53.2c12.9-41.7,12.9-76.2,7.2-96.3c-4.3-18.7-27.3-57.4-77.6-57.4
	c-64.7,0-83.3,58.9-81.9,80.4c1.5,14.4,0,35.9,23,56c17.2,14.4,33,10.1,37.3,8.6c4.4,0,13-5.8,13,8.6c0,15.8-14.4,36-23,46
	c-10.1,8.6-41.7,33.1-87.7,33.1c-27.3,0-60.3-11.5-83.4-38.8c-17.2-20.1-28.7-43.1-38.8-76.1c-20.1-60.4-23-104.9-23-152.4
	c0-43.1,4.2-90.5,23-150.9c8.6-31.7,24.4-60.4,38.8-79.1c21.6-27.3,56-38.8,83.4-38.8c45.9,0,77.6,24.4,87.7,34.4
	c8.6,8.7,23,28.8,23,46c0,12.9-8.6,7.2-13,7.2c-4.3-1.5-20.1-5.8-37.3,8.6c-23,20.1-21.5,43.1-23,56c-1.4,23.1,17.2,80.5,81.9,80.5
	c50.3,0,73.3-37.4,77.6-57.5c5.8-20.1,5.8-54.6-7.2-94.9c-8.6-30.2-17.2-41.7-23-54.6c-2.9-5.7,2.9-12.9,11.5-2.9l237.1,235.7
	C866.5,425.9,870.8,430.2,870.8,436L870.8,436z"/>
<path fill-rule="evenodd" clip-rule="evenodd" fill="#ED1C24" d="M0,433.1c0,5.7,5.7,10,5.7,10l251.5,241.4c7.2,5.7,8.6,0,7.2-4.3
	c-1.5-2.9-2.9-4.3-10-15.8c-69-99.2-67.6-231.4-67.6-231.4s-1.4-132.2,67.6-229.9c7.1-11.5,8.6-13,10-17.3c1.4-4.3,0-10-7.2-4.3
	L5.7,423C5.7,423,0,427.3,0,433.1L0,433.1z"/>
</svg>
