<?xml version="1.0" encoding="utf-8"?>
<!-- Generator: Adobe Illustrator 18.1.0, SVG Export Plug-In . SVG Version: 6.00 Build 0)  -->
<!DOCTYPE svg PUBLIC "-//W3C//DTD SVG 1.1//EN" "http://www.w3.org/Graphics/SVG/1.1/DTD/svg11.dtd">
<svg version="1.1" id="Layer_1" xmlns="http://www.w3.org/2000/svg" xmlns:xlink="http://www.w3.org/1999/xlink" x="0px" y="0px"
	 viewBox="0 0 870.6 870.5" enable-background="new 0 0 870.6 870.5" xml:space="preserve">
<path fill-rule="evenodd" clip-rule="evenodd" d="M433.6,0C194.1,0,0,194.1,0,433.6C0,673,194.1,867.1,433.6,867.1
	c239.4,0,433.6-194.1,433.6-433.6C867.1,194.1,673,0,433.6,0L433.6,0L433.6,0L433.6,0z M433.6,688.2
	c-178.1-0.8-322.8-117.7-399.5-257.8c77.4-139.4,223-252.4,399.5-252.4c179.6,0,323.6,112.3,399.5,252.4
	C757.2,570.6,614.7,689,433.6,688.2L433.6,688.2L433.6,688.2L433.6,688.2z"/>
<path fill-rule="evenodd" clip-rule="evenodd" d="M433.6,663.5c127,0,229.9-102.9,229.9-229.9c0-127-102.9-229.9-229.9-229.9
	c-127,0-229.9,102.9-229.9,229.9C203.6,560.5,306.6,663.5,433.6,663.5L433.6,663.5L433.6,663.5L433.6,663.5z"/>
</svg>
