<?xml version="1.0" encoding="utf-8"?>
<!-- Generator: Adobe Illustrator 18.1.0, SVG Export Plug-In . SVG Version: 6.00 Build 0)  -->
<!DOCTYPE svg PUBLIC "-//W3C//DTD SVG 1.1//EN" "http://www.w3.org/Graphics/SVG/1.1/DTD/svg11.dtd">
<svg version="1.1" id="Layer_1" xmlns="http://www.w3.org/2000/svg" xmlns:xlink="http://www.w3.org/1999/xlink" x="0px" y="0px"
	 viewBox="0 0 870.6 870.5" enable-background="new 0 0 870.6 870.5" xml:space="preserve">
<g>
	<path fill="#010101" d="M777.1,547.5c-0.4,0.5-0.9,0.9-1.3,1.8c-38.3,62.1-107.1,103.6-185.1,103.6c-25.1,0-49.4-4.4-71-11.5
		c48-55.1,77.1-127.4,77.1-206.3c0-78.5-28.7-150.7-76.3-206.3c21.6-7.5,45.4-11.5,70.1-11.5c77.1,0,148.5,41.4,187.8,108
		c0.4,0.4,0.4,0.9,0.4,1.3l90.4-46.7c-0.4-0.9-0.9-1.8-1.3-2.2c-55.1-96.5-159.1-161.3-277.3-161.3c-57.3,0-111.1,15.4-156.1,41.9
		c-45-26.5-98.7-41.9-156.1-41.9c-118.1,0-222.2,64.8-277.3,161.4c-0.4,0.4-0.9,1.3-1.3,2.2l90.4,46.7c0-0.4,0-0.9,0.4-1.3
		c39.2-66.6,110.6-108,187.8-108c24.7,0,48.5,4,70.1,11.5c-47.6,55.6-76.3,127.9-76.3,206.3c0,78.9,29.1,151.2,77.1,206.3
		c-21.6,7-45.9,11.5-71,11.5c-78,0-146.8-41.4-185.1-103.6c-0.4-0.9-0.9-1.3-1.3-1.8l-45,22.9l-45,23.3c0,0.5,0.4,0.4,0.4,0.9
		s0.4,0.5,0.4,0.9c55.6,94.7,158.3,158.7,275.5,158.7c57.3,0,111.1-15.5,156.1-41.4c45,26,98.7,41.4,156.1,41.5
		c117.3,0,220-63.9,275.5-158.7c0-0.5,0.4-0.4,0.4-0.9s0.4-0.5,0.4-0.9l-45-23.3L777.1,547.5z M434.6,586.2
		c-37-39.2-60.8-92.5-60.8-151.2c0-57.7,22.5-110.2,60.8-149.4c38.4,39.2,60.8,91.7,60.8,149.4C495.5,493.7,471.7,547,434.6,586.2z"
		/>
</g>
</svg>
