<?xml version="1.0" encoding="utf-8"?>
<!-- Generator: Adobe Illustrator 18.1.0, SVG Export Plug-In . SVG Version: 6.00 Build 0)  -->
<!DOCTYPE svg PUBLIC "-//W3C//DTD SVG 1.1//EN" "http://www.w3.org/Graphics/SVG/1.1/DTD/svg11.dtd">
<svg version="1.1" id="Layer_1" xmlns="http://www.w3.org/2000/svg" xmlns:xlink="http://www.w3.org/1999/xlink" x="0px" y="0px"
	 viewBox="0 0 870.6 870.5" enable-background="new 0 0 870.6 870.5" xml:space="preserve">
<g>
	<path fill-rule="evenodd" clip-rule="evenodd" fill="#CE1141" d="M797.8,433.4c46.6-40.3,64.7-107.5,39.9-167.4
		c-24.8-59.9-85.1-94.6-146.6-90.2c4.5-61.4-30.3-121.8-90.2-146.6c-59.9-24.8-127.1-6.7-167.4,39.9
		C393.3,22.5,326.1,4.4,266.2,29.2c-59.9,24.8-94.6,85.1-90.2,146.6c-61.4-4.5-121.7,30.3-146.6,90.2
		c-24.8,59.9-6.7,127.1,39.9,167.4C22.7,473.7,4.6,540.9,29.4,600.8c24.8,59.9,85.1,94.6,146.5,90.2
		c-4.4,61.5,30.3,121.8,90.2,146.6c59.9,24.8,127.1,6.7,167.5-39.9c40.3,46.6,107.5,64.6,167.4,39.8c59.9-24.8,94.6-85.1,90.2-146.6
		c61.4,4.4,121.7-30.3,146.6-90.2C862.5,540.9,844.4,473.7,797.8,433.4L797.8,433.4z"/>
	<path fill-rule="evenodd" clip-rule="evenodd" fill="#FFFFFF" d="M771.9,433.4c44-37.1,61.3-100,38.1-155.9
		c-23.2-55.9-79.8-88.2-137.2-83.3c4.9-57.4-27.4-114-83.3-137.2C533.6,33.8,470.7,51,433.6,95c-37.1-44-100-61.3-155.9-38.1
		c-55.9,23.2-88.2,79.8-83.3,137.2c-57.4-4.9-114,27.4-137.2,83.3C34,333.4,51.2,396.2,95.2,433.4c-44,37.1-61.3,100-38.1,155.9
		c23.2,55.9,79.8,88.2,137.2,83.3c-4.9,57.4,27.4,114,83.3,137.2c55.9,23.2,118.8,5.9,155.9-38.1c37.1,44,100,61.3,155.9,38.1
		c55.9-23.2,88.2-79.8,83.3-137.2c57.4,4.9,114-27.4,137.2-83.3C833.2,533.4,815.9,470.5,771.9,433.4L771.9,433.4z"/>
	<path fill-rule="evenodd" clip-rule="evenodd" fill="#FFF200" d="M760.7,433.4c37.2-37.7,50.4-95.6,28.9-147.5
		c-21.5-51.9-71.7-83.4-124.7-83.8c-0.4-52.9-32-103.2-83.8-124.7c-51.9-21.5-109.7-8.2-147.5,28.9C395.8,69.1,338,55.9,286.1,77.4
		c-51.9,21.5-83.4,71.7-83.8,124.7c-53,0.4-103.2,31.9-124.7,83.8c-21.5,51.9-8.3,109.7,28.9,147.5C69.3,471.1,56.1,529,77.6,580.8
		c21.5,51.9,71.8,83.4,124.7,83.8c0.4,53,32,103.2,83.8,124.7c51.9,21.5,109.7,8.2,147.5-28.9c37.7,37.1,95.6,50.4,147.4,28.9
		c51.9-21.5,83.4-71.8,83.8-124.7c53-0.4,103.2-32,124.7-83.8C811.1,529,797.8,471.1,760.7,433.4L760.7,433.4z"/>
	<path fill-rule="evenodd" clip-rule="evenodd" fill="#CE1141" d="M546,372.5c-3.6,1.9-8.8,0.2-9.7-3.7c-0.8-3.5,1.1-7.4,2.6-10.7
		l22.9-51.9c3.3-7.5,16.2-8.4,17.2-1.7C581.6,320.5,560.3,364.8,546,372.5L546,372.5z M672.3,368.5c-2.2,4.9-8.8,7.2-14.5,4.7
		c-1.7-0.8-3.7-2.7-3.7-4.7c-0.1-17.2,8.7-32.8,16.2-47.7c4.1-8.1,9.2-19.9,19.5-20.9c7.9-0.8,10,6.1,7.4,12.1L672.3,368.5
		L672.3,368.5z M708.9,370.9c-4.3,10.3,2.6,15.7,12.8,14.1c0,7-13.1,12.5-21.5,14.4c-7.3,1.7-17.4,2.5-21.5-4l-5.1-8.1
		c-13.1,9.8-37.6,18-51.1,5.4c-14-13-7.5-32.2-3.7-44.4c-23.8,18.9-43.8,54.4-78.4,48.4c-6-1-9.7-5.8-13.5-10
		c-14,22.9-19.2,59-51.7,64.8c-10.7,1.9-22.5,0.7-29.3-7.3c-0.8-4.9,6.2-2.1,9.4-3.4c18.4-7.9,25.9-36.3,33.6-53.9
		c-12.7,8.8-32.7,16.6-48,7.8c-4.6-2.7-8.7-7.7-9.5-7.2c-11.3,7.5-31,14.2-44.8,7.2c-4.8-2.4-6.8-7.6-8.7-12.1
		c-15,9-35.2,20.2-52.6,8.8c-8.3-5.4-11.4-15.9-7.7-24.6l23.2-54.4c4-9.4-13.5-11-17.1-3.1L285.9,393l-37.7,0l6.3-15.3
		c-23,15.6-45.1,26.2-72.6,15.7c-21.8-8.3-34.5-31.4-35.3-53.6c-1.6-41.6,18.7-79.2,53.6-104.3c22.1-15.8,55-25.1,79.8-8.7
		c9.1,6,14.4,16.1,13.7,26.5c-0.9,12.6-8.4,24.7-20.1,30.9c-9.1,4.8-31.3,4-33.3-8.7c10.6-6.1,27.3-16.2,22.2-30.9
		c-1.5-4.4-6-6.1-9.8-6.4c-22.3-1.7-39.1,21.4-48.7,38.6c-13,23.3-27.2,55.9-10.5,82.2c6.9,10.9,20.2,13.7,33.3,11.4
		c16.4-2.8,35.9-10.7,43.2-26.7l55.3-121.9H362l-26.7,62.2c10.5-6.8,26.8-18.9,43.3-9.2c15.9,9.4,2.9,28.7-2.4,40.7l-17.1,39
		c-1.5,3.4-2.3,7.7-0.7,11.4c4.5,10.5,20.2,2.6,23.2-4.3l38.6-87.5h37.1l-37.4,84.5c-1.1,2.5-1.7,6.3-0.3,9c1.8,3.4,6.1,4.3,9.4,3.1
		c6.6-2.3,12.9-19.7,13.1-20.2l33.4-76.4h37.9l-37.7,85.5c-1.4,3.1-1.4,7,0.7,10c1.7,2.5,4.6,3.8,7.4,3.4c6.3-0.9,13-4.4,15.8-10.8
		l38.9-88.1h35.2l-2.4,6.7c11.8-4.7,27-12.3,38.5-3c15.4,12.6,5.9,38.3,1.6,53.8c24.6-15.7,40.3-66.5,84.5-58
		c5.4,1,10.7,5.8,13.1,11.1l4.5-10.7h37.1C750.4,274.3,722.2,338.9,708.9,370.9L708.9,370.9z M355.6,701.3
		c-11.6-6.8-13-22.2,0.3-28.6c13.5-6.6,29.7-5.2,44.4-4c12.3,1,24.2,3.7,35.8,7.1C420.1,703.4,384.9,718.5,355.6,701.3L355.6,701.3z
		 M552.7,570.4c-3.6,5.5-18.8,8.5-18.8,0v-4.7l28.6-64.3c1.8-4,6-5.5,10.1-6c3.3-0.4,6.3,1.8,7.7,4.3c1.7,3.1,1.3,7.9,0.3,11.1
		C574,531.6,564,553,552.7,570.4L552.7,570.4z M722.4,468.8c-13.3,6.1-20.8,20-19.5,34.6c2.7,29.5,10.9,66.3-15.1,88.6
		c-14.9,12.8-34.6,18.3-53.8,13.4c-9-2.3-18.2-10.2-19.5-19.8c-0.9-6.4,0.5-12.8,4-17.5c3.7-4.9,8.9-8.2,14.9-8.7
		c2.3-0.2,5.9,0.2,8.4,2.3c-5,4.7-9.6,12.8-6.4,19.8c1.8,3.9,5.7,5.9,9.8,5.7c4-0.2,8-1.9,10.4-5.3c10.1-14.4,8.3-34.2,13.1-50.8
		c3.2-11,7.2-21.4,11.1-31.9c0.5-1.4-0.1-2.9-1.4-3.1c-4.3-0.8-8.1,3.9-10.4,6.4l-69.7,76.1c-15,16.3-33.6,31.7-57.1,26.9
		c-7.7-1.5-14-7.1-17.2-14.5l-21.2,46.3c12.7,6,38.4,11.2,52.9,12.5c22,1.8,44.4,2.4,65.6-1.5c8.6-1.6,16.8-4.5,24.2-9.4
		c-1,7-6.4,14.9-7.1,15.8c-39.6,50.1-107.5,41-163.5,29.2c-12.4,15.3-27,28-44,35.8c-28.7,13.1-66.9,13-93.9-3.4
		c-13.5-8.2-21.3-22.7-20.2-39c1.5-21.9,21.4-39.9,40.3-46.4c34.3-11.8,73.8-10.1,108.7-2.7l14-30.7c-13.4,7.4-32.2,16.3-47.6,8.4
		c-5.2-2.7-6.7-8.1-9.1-12.7c-12.5,7.4-25.6,16.5-41.6,13.1c-10.3-2.2-15.6-8.7-17.6-18.4c-14.8,12.7-34.4,25.2-54.3,16.7
		c-8.1-3.5-11.1-12.1-11.1-20.2c0-7.6,2.3-14.2,5.4-21.2l24.2-54.9c5.5-12.6-14.7-14.2-19.1-4.3l-44,99.6l-40.8-0.1l9.1-20.6
		c-24.9,18.1-57,40-92.5,18.3c-30.7-18.8-32.7-60.6-24.2-92.9c11.2-42.2,50.7-81.5,93.9-91.5c19.9-4.6,42.9-2.7,56.4,13.8
		c7.2,8.9,8.8,21.6,5.8,32.6c-2.4,9.1-10.8,17.6-19.5,21.5c-11.4,5.1-34.2,5.8-37.5-9.8c6.3-1.2,13.1-4.5,18.2-10
		c4.4-4.7,7.8-11.7,5-18.5c-2.3-5.5-8-8.8-14.1-8.1c-23.2,2.4-39.3,24.6-51.4,42.5c-12.5,18.5-18.4,40.3-17.8,64.3
		c0.4,13.4,6.7,27.6,19.8,32.9c27,11,54-8.6,73.1-28.9l60.6-135.7l39.9-0.2l-25.8,60.4c13.8-9.1,32.4-17.8,48.1-6.7
		c6.2,4.4,7.3,13.2,5,20.2c-8.7,26.5-22.6,51-32.9,76.9c-1.5,3.7-2.2,7.7,0,10.8c2.1,3,6,3.9,9.7,3c6-1.5,12-6,14.5-11.7l44.4-101.3
		h39.7L410.1,561c-1.1,2.5-1.3,6.5,0.3,8.8c1.7,2.5,4.7,4.5,7.4,4.3c4.3-0.4,8.6-2.6,10.4-6.7l45.3-102.6h40.4l-45.7,102.6
		c-1.2,2.7-0.8,5.5,0.4,8.1c1.3,2.8,4.1,3.8,7,3.7c5.7-0.1,12.7-1.6,15.2-7.4l47.3-106.7H575c0,0-0.9,5.4-1.3,7.4
		c11.3-7.8,27.3-15.9,41-7.7c19.5,11.6,8.5,52.5,7.4,57.1c23.7-14.1,49.3-64.5,88.4-59.5C713.7,462.8,718.8,464.4,722.4,468.8
		L722.4,468.8z M494.1,694c4.7,0,9.3,1.1,13.7,3.4c4.4,2.3,8.1,5.7,11.1,10.3c3,4.6,4.4,9.8,4.4,15.4c0,8-2.9,14.9-8.6,20.6
		c-5.7,5.7-12.6,8.6-20.6,8.6c-8.1,0-14.9-2.9-20.6-8.5c-5.7-5.7-8.6-12.6-8.6-20.7c0-5.6,1.5-10.8,4.4-15.4
		c2.9-4.6,6.6-8.1,11-10.4C484.7,695.1,489.3,694,494.1,694L494.1,694z M494.1,699.7c-6.3,0-11.7,2.2-16.4,6.7
		c-4.7,4.5-7,10.1-7,16.7c0,6.5,2.3,12.1,6.9,16.6c4.6,4.6,10.1,6.9,16.6,6.9c6.4,0,12-2.3,16.6-6.9c4.6-4.6,6.9-10.1,6.9-16.6
		c0-6.7-2.3-12.3-7-16.7C505.9,701.9,500.4,699.7,494.1,699.7L494.1,699.7z M480.9,738.8v-30.9h6.3c6.3,0,10.3,0.1,12,0.3
		c1.7,0.2,3.3,1.1,4.7,2.6c1.4,1.5,2.1,3.5,2.1,5.9c0,2.3-0.8,4.2-2.3,5.8c-1.5,1.5-3.6,2.5-6.1,2.9c1.1,0.4,2,0.9,2.8,1.7
		c0.7,0.7,2,2.6,3.8,5.6l3.7,6.2h-7.8l-2.6-5c-1.5-3-2.9-5.1-4-6.1c-1.1-1-2.7-1.6-4.7-1.6h-1.6v12.7H480.9L480.9,738.8z
		 M487.2,721.2h2.5c3,0,5-0.1,6-0.2c1-0.1,1.9-0.6,2.6-1.3c0.7-0.7,1-1.7,1-2.7c0-1.1-0.4-2-1.1-2.7c-0.7-0.7-1.6-1.1-2.7-1.3
		c-1.1-0.1-3-0.2-5.8-0.2h-2.5V721.2L487.2,721.2z"/>
	<path fill-rule="evenodd" clip-rule="evenodd" fill="#9B804D" d="M847.9,261.7c-25-60.4-83.6-97.1-145.3-97.5
		C702.3,102.6,665.6,44,605.2,19C544.8-6,477.5,9.5,433.6,52.8C389.7,9.5,322.3-6,261.9,19c-60.4,25-97.1,83.6-97.5,145.2
		c-61.7,0.4-120.2,37.1-145.3,97.5c-25,60.4-9.5,127.7,33.8,171.6C9.7,477.3-5.8,544.6,19.2,605c25,60.4,83.6,97.1,145.3,97.5
		c0.4,61.7,37.1,120.2,97.5,145.3c60.4,25,127.8,9.5,171.6-33.8c43.9,43.3,111.2,58.8,171.6,33.8c60.4-25,97.1-83.6,97.5-145.3
		c61.7-0.4,120.3-37.1,145.3-97.5c25-60.4,9.5-127.7-33.8-171.7C857.5,389.5,872.9,322.1,847.9,261.7L847.9,261.7z M827.5,596.5
		c-24.8,59.8-87.7,92.5-149,81.7c10.7,61.3-21.9,124.3-81.7,149c-59.8,24.8-127.4,3.3-163.2-47.6c-35.7,50.9-103.4,72.3-163.2,47.6
		c-59.8-24.8-92.5-87.7-81.7-149c-61.3,10.7-124.3-21.9-149-81.7c-24.8-59.8-3.4-127.4,47.6-163.2C36.3,397.6,14.9,330,39.7,270.2
		c24.8-59.8,87.7-92.5,149-81.7c-10.8-61.3,21.9-124.3,81.7-149c59.8-24.8,127.4-3.4,163.2,47.6C469.3,36.1,537,14.7,596.7,39.5
		c59.8,24.8,92.5,87.7,81.7,149c61.3-10.8,124.3,21.9,149,81.7c24.8,59.8,3.3,127.4-47.6,163.2C830.8,469.1,852.3,536.8,827.5,596.5
		L827.5,596.5z"/>
</g>
</svg>
