<?xml version="1.0" encoding="utf-8"?>
<!-- Generator: Adobe Illustrator 18.1.0, SVG Export Plug-In . SVG Version: 6.00 Build 0)  -->
<!DOCTYPE svg PUBLIC "-//W3C//DTD SVG 1.1//EN" "http://www.w3.org/Graphics/SVG/1.1/DTD/svg11.dtd">
<svg version="1.1" id="Layer_1" xmlns="http://www.w3.org/2000/svg" xmlns:xlink="http://www.w3.org/1999/xlink" x="0px" y="0px"
	 viewBox="0 0 870.6 870.5" enable-background="new 0 0 870.6 870.5" xml:space="preserve">
<g>
	<path fill="#050507" d="M431.7,559.5c110.1,0,375.8,228.2,409.2,257.2c2.3,2,5.3,4.5,11.2,3.9c8.3-1,8.5-13.7,8.5-13.7s2-29,2-58.2
		c0-36.8-28.7-69-28.7-69s-297.8-328-402.1-328c-104.2,0-402,328-402,328S1,711.9,1,748.7c0,29.2,2,58.2,2,58.2s0.2,12.7,8.5,13.7
		c5.7,0.7,8.9-1.9,11.2-3.9C55.9,787.7,321.7,559.5,431.7,559.5L431.7,559.5z"/>
	<path fill="#050507" d="M431.7,257.7c110.1,0,375.8,228.2,409.2,257.2c2.3,2,5.3,4.5,11.2,3.9c8.3-1,8.5-13.7,8.5-13.7s2-29,2-58.2
		c0-36.8-28.7-69-28.7-69S536,49.9,431.7,49.9c-104.2,0-402,328-402,328S1,410.1,1,446.9c0,29.2,2,58.2,2,58.2s0.2,12.7,8.5,13.7
		c5.7,0.7,8.9-1.9,11.2-3.9C55.9,485.9,321.7,257.7,431.7,257.7L431.7,257.7z"/>
	<path fill="#A8AAAD" d="M129.6,328.3C69.3,378,22.8,424.7,6.7,441c-0.9,20,1.7,63.3,1.8,63.6c0,0,0.3,15.6,11.5,5.6l11.1-9.9
		c120.1-109.8,243.4-206,342.2-248.8c7-3.1,18.5-5,12.6-12.7c-3.4-4.3-15-4.7-22.5-4.3C260.8,240.6,134.3,325,129.6,328.3
		L129.6,328.3L129.6,328.3L129.6,328.3z"/>
	<path fill="#A8AAAD" d="M733.9,328.3C794.3,378,840.8,424.7,856.8,441c0.9,20-1.8,63.3-1.8,63.6c0,0-0.3,15.6-11.5,5.6l-11.1-9.9
		c-120.1-109.8-243.4-206-342.2-248.8c-7-3.1-18.5-5-12.6-12.7c3.4-4.3,15-4.7,22.5-4.3C602.6,240.6,729.3,325,733.9,328.3
		L733.9,328.3L733.9,328.3L733.9,328.3z"/>
	<path fill="#A8AAAD" d="M129.6,630.1C69.3,679.8,22.8,726.5,6.7,742.9c-0.9,20,1.7,63.3,1.8,63.5c0,0,0.3,15.6,11.5,5.6l11.1-9.9
		c120.1-109.8,243.4-206,342.2-248.8c7-3.1,18.5-5,12.6-12.7c-3.4-4.3-15-4.7-22.5-4.4C260.8,542.4,134.3,626.8,129.6,630.1
		L129.6,630.1L129.6,630.1z"/>
	<path fill="#A8AAAD" d="M733.9,630.1c60.4,49.7,106.9,96.4,122.9,112.8c0.9,20-1.8,63.3-1.8,63.5c0,0-0.3,15.6-11.5,5.6l-11.1-9.9
		c-120.1-109.8-243.4-206-342.2-248.8c-7-3.1-18.5-5-12.6-12.7c3.4-4.3,15-4.7,22.5-4.4C602.6,542.4,729.3,626.8,733.9,630.1
		L733.9,630.1L733.9,630.1L733.9,630.1z"/>
	<path fill="#818285" d="M829.7,381.6c-3.6-4-297.4-326.2-398-326.2c-100.5,0-394.3,322.3-398,326.2c-0.3,0.4-24.3,27.7-27,59.6
		c15.9-16.4,62.5-63.1,122.9-112.8c0,0,18.2-15.2,45.5-35.8c60.6-45.6,167.4-116.9,256.7-116.9c89.2,0,196.1,71.3,256.7,116.9
		c27.3,20.6,45.5,35.8,45.5,35.8C794.4,378,840.9,424.7,856.9,441C854.1,409.3,830.1,382,829.7,381.6L829.7,381.6z"/>
	<path fill="#818285" d="M829.7,683.4c-3.7-4-297.5-326.2-398-326.2S37.4,679.4,33.8,683.4c-0.3,0.4-24.3,27.7-27,59.6
		c15.9-16.4,62.5-63.1,122.9-112.8c0,0,18.2-15.2,45.5-35.8c60.6-45.6,167.4-117,256.7-117c89.2,0,196.1,71.3,256.7,117
		c27.3,20.6,45.5,35.8,45.5,35.8c60.4,49.7,106.9,96.4,122.9,112.8C854.1,711.1,830.1,683.8,829.7,683.4L829.7,683.4z"/>
	<path fill="#D2D3D4" d="M834.3,402.1C669.4,212.9,489.5,67.6,438,64.9c-7.4-0.4-7.5,6.9-7.5,6.9c-0.1,62.1,3.7,73.1,46.4,89.7
		c5.8,2.3,166.2,50.4,357.2,245.6l2.8,2.8L834.3,402.1L834.3,402.1z"/>
	<path fill="#D2D3D4" d="M834.3,703.9C669.4,514.8,489.5,369.4,438,366.7c-7.4-0.4-7.5,6.9-7.5,6.9c-0.1,62.1,3.7,73.1,46.4,89.7
		c5.8,2.3,166.2,50.4,357.2,245.5l2.8,2.8L834.3,703.9L834.3,703.9z"/>
</g>
</svg>
