<?xml version="1.0" encoding="utf-8"?>
<!-- Generator: Adobe Illustrator 18.0.0, SVG Export Plug-In . SVG Version: 6.00 Build 0)  -->
<!DOCTYPE svg PUBLIC "-//W3C//DTD SVG 1.1//EN" "http://www.w3.org/Graphics/SVG/1.1/DTD/svg11.dtd">
<svg version="1.1" id="Layer_1" xmlns="http://www.w3.org/2000/svg" xmlns:xlink="http://www.w3.org/1999/xlink" x="0px" y="0px"
	 viewBox="0 0 870.6 870.5" enable-background="new 0 0 870.6 870.5" xml:space="preserve">
<g>
	<path fill="#ED1F24" d="M818.6,323.9c3.2-11,2-18.5-3.2-22.1c-4-3.2-11.1-3.2-20.9,0c-21.7,9.1-43.8,28.8-66.3,58.8
		c-30.8,43.4-53.6,86-68.6,127.8l-1.6,2.4c-4,2-9.1,2.8-13.8,2c-1.2-0.8-1.6-1.6-1.6-2.8l5.9-22.9c1.6-9.5,0.4-17.3-4-23.3
		c-3.2-4.7-7.9-6.7-13.8-6.7c-17.4,1.2-35.1,13.4-53.2,37.9c-18.1,26-28,50.9-30,73.4c0,14.2,4.3,23.7,13.4,27.6
		c10.2,2.8,21.7-0.8,34.3-11.4c13.4-12.6,26.4-32,39.5-57.2l2.4-2.8h14.2c1.2,0,2,0.8,2,2c-4,17.3-5.9,26.8-5.9,28.4
		c-2,11.4-1.2,20.9,1.2,29.2c2.8,7.9,7.5,11.8,14.2,12.2c11.4,1.2,24.5-7.5,39.4-25.2l1.2-0.8l0.8,1.6c0.8,12.6,4.3,20.5,10.7,23.3
		c6.3,2,12.6,0.8,19.3-2.4c4-2.4,9.5-6.3,16.6-13c0.8-0.4,1.6-0.4,2,0.4l2.4,7.5c0.8,3.2,2.4,5.5,4.3,7.1c5.1,2.8,11.4,2,20.1-2
		c19.3-10.2,36.7-31.2,51.7-62.3l1.2-5.1l-8.7,0.4l-13,20.5c-5.9,8.3-11.4,14.2-17,17c-2.4,0.8-3.6,0-4-1.2c-0.4-2,0.8-5.9,3.6-11.4
		l45-90.3c0.4-1.6,0.4-2.4,0-2.8l-27.2-0.4c-1.2,0-2,0.4-2.8,2l-2.4,2.4c-1.2,0.8-2.4,0.4-3.2-0.4l-3.2-2c-11-5.1-23.3-2-37.1,8.7
		c-11.4,9.9-23.7,24.8-35.5,44.2c-15,24.1-25.6,39.8-31.5,46.9c-5.1,5.1-9.1,7.1-12.2,5.5c-2-0.8-2.8-2.8-2.8-5.1
		c0.4-9.1,2.8-21.3,7.5-36.7l2.4-7.1c1.2-2.8,2.4-4.7,4-6.3l18.1-15c23.7-21.7,45.7-47.3,66.3-76.1l4.3-8.7h-0.8
		c-6.3,0.4-10.2,1.2-11.8,2c-20.9,28.8-39.8,51.3-57.2,66.7c-5.1,4.3-8.3,6.3-9.1,6.3c-0.4-0.4-0.8-0.8-0.8-1.6
		c2-5.5,7.5-17,15.8-34.7c20.9-40.6,41.4-72.6,60.7-95c9.1-10.6,17-17,22.9-19.7c2.8-0.4,4.7,0,5.5,0.8c0.4,0.4,0.4,2.4,0.4,5.9
		l-3.2,11.8c0,0.4,0,0.4,0.4,0.4C813.9,329.8,818.2,327,818.6,323.9L818.6,323.9z M744.5,523c11.8-29.2,24.4-49.7,37.1-62.3l6.3-5.5
		c2.8-1.6,5.1-2,7.9-0.8c1.2,0.8,1.6,2.8,0.8,6.3c-11.4,28.4-22.9,50.9-33.5,67.8c-6.7,9.1-11.8,14.6-15.4,16.6
		c-2.4,0.8-4,0.8-5.1-0.8c-1.6-1.6-2-4.7-1.6-10.2L744.5,523L744.5,523z M632.1,453.2c2,0.4,3.9,2.4,5.1,5.5
		c1.6,7.9-0.4,17.7-5.5,29.2c-1.2,1.6-2.4,1.6-4.7,0.4c-7.9-2.8-11.8-7.9-12.6-15.4c0.8-8.7,4-14.6,10.3-18.9
		C627.3,452.8,629.7,452.4,632.1,453.2L632.1,453.2z M601.3,486.4c0.4-0.4,1.6,0,2.8,0c5.5,7.1,11.8,12.2,18.9,15.4
		c1.6,0.8,1.6,2.4,0.4,4.7c-9.9,18.9-19.3,31.9-28,38.6c-3.6,1.6-6.3,1.6-8.3,1.2c-4-1.6-5.9-4.3-5.9-9.1c0-7.1,2.8-17,8.3-29.6
		C594.2,497.8,597.8,490.7,601.3,486.4L601.3,486.4z"/>
	<path fill="#ED1F24" d="M867.1,308.9c2-3.9,2.8-7.1,3.2-9.5c-30.8,30.4-60.4,46.1-88.4,46.5l-2,1.2l-21.7,30.8
		c-0.8,2-0.8,2.8,0,3.2l9.9,0.4c20.9-0.4,41-7.5,59.6-22.1C845.4,345.6,858.5,328.6,867.1,308.9L867.1,308.9z"/>
	<path fill="#ED1F24" d="M616.3,326.6c0.4-4.3,1.2-6.3,1.6-6.7c18.5-3.2,37.9,2.4,58.4,16.2l35.9,24.4c1.2,0.8,2.4,0.8,2.8,0
		l21.3-26.4c2-1.6,2-2.8,0-3.5c-21.3-13.4-35.1-21.7-41-24.9c-11.8-5.5-25.6-8.3-41.4-7.9c-14.6,0.8-28.4,3.9-41.4,9.1
		c-1.6,0.4-3.2,0-5.1-1.6c-6.3-5.5-15-7.5-26.8-5.9c-28.8,5.1-58.4,22.9-88.3,53.2c-23.3,23.3-43.8,53.6-61.9,91.5l-8.7,20.1
		c-13.4,39-15,69-5.1,89.5c6.7,14.6,17.7,22.1,33.5,23.7c30.8,2.4,58.4-15.4,83.2-54.4c15-26.4,21.3-48.5,18.9-67
		c-1.6-9.9-6.3-16.2-14.2-18.1c-15-3.6-30,3.5-45,20.9c-16.6,22.5-24.1,45.8-23.3,69.8l0.8,1.2c7.1-8.3,15-15,23.3-21.3l13.4-8.7
		c2-16.6,7.1-29.6,15.4-39c5.9-5.9,10.7-8.3,14.6-6.3c3.2,2,4.7,5.5,5.1,9.9l-1.2,12.2c-5.1,23.7-17,45-35.5,63.9
		c-17.4,14.6-32,18.9-43.4,13c-12.2-8.7-15-28-7.9-58c13.4-45.4,37.1-88.4,71-129.8c24.8-28,45.4-44.6,61.9-50.5l5.9,0.4
		c0.8,0.8,0.4,1.2-0.4,1.6c-16.6,12.6-29.2,26.8-37.9,42.2c-11.8,22.5-14.2,39.4-6.7,50.9c4,5.5,9.5,7.5,16.2,5.9
		c11.1-3.2,22.1-13,33.5-30C610.8,365.3,616.7,345.6,616.3,326.6L616.3,326.6z M599.7,331c0.8-1.2,2.4-1.6,4-1.6
		c0.4,0.8,0.8,4.3,0.8,11c-2.8,22.5-12.2,43-29.2,61.1c-6.7,5.1-12.2,7.1-15.8,6.3c-3.2-1.2-4.7-3.6-5.1-7.5
		c0.4-11.4,5.9-24.8,15.8-40.2C578.8,347.5,588.7,337.7,599.7,331L599.7,331z"/>
	<path fill="#ED1F24" d="M286.6,377.5c-2.4-4.7-6.7-7.5-12.2-8.3c-11.8-1.2-23.3,2.8-34.7,11.8c-3.6,3.2-12.6,12.2-26.8,28
		c-8.7,7.9-17.4,12.2-27.2,12.2c-0.4,0-0.8-0.4-1.6-1.6c7.1-22.1,5.9-37.9-2.8-46.5c-5.9-4.7-13-5.9-21.3-4
		c-22.1,6.7-42.6,27.6-61.5,62.3c-7.1,14.6-11.8,28.4-14.2,41c-1.6,16.2,2,27.6,11,33.9c9.5,5.9,20.9,4.3,33.5-4.7
		c15-11.8,31.2-33.1,47.7-64.3l2-2.4l16.2-1.6c0.8,0,1.2,0.8,1.2,2c-6.3,14.6-10.3,25.2-11.4,32.7c-2.4,13.4-0.4,24.1,6.3,32.7
		c6.3,6.7,14.2,9.5,23.7,8.7c16.2-3.2,33.5-14.2,52.5-32.3c0.8-0.8,1.6-0.8,2,0l-0.4,12.2c0,5.1,0.8,9.1,2.4,11.8
		c2,4.3,5.5,7.1,10.3,8.3c9.9,1.2,21.3-4.3,34.7-16.2c0.4-0.4,1.2,0,2,0.4c2,7.9,3.9,12.6,5.9,14.2c2,1.6,5.9,2.4,11.4,2
		c17.4-4.3,35.1-20.5,53.2-48.5c7.9-14.6,11.8-22.5,12.2-22.9l-7.9-1.2c-1.6,0-3.5,1.2-5.5,3.6c-2.8,5.5-6.3,11.8-10.6,18.1
		c-7.9,9.5-13.4,15.4-17.4,17.3c-2,0.8-3.2,0.4-3.6-0.8l0.4-3.6l50.1-101.8l-0.8-0.8l-26.4-0.8c-1.2,0-3.6,1.6-7.1,5.1
		c-0.8,0.4-2,0-2.8-0.8l-2.8-1.6c-9.9-5.1-21.3-3.2-34.3,5.5c-11.4,8.7-23.7,21.7-35.1,39.4c-16.6,24.8-26.4,39.4-30,43.4
		c-12.6,13.8-24.4,22.5-34.3,26.4c-4.7,1.2-8.7,0-11.4-4c-2.4-3.5-2.4-10.2-0.4-19.7c5.1-16.6,12.6-32.7,22.5-47.7
		c11.4-16.6,20.9-26.8,29.6-30c2.4,0,4.3,0.8,5.5,2c0.4,2.4,0,3.6-2,4l-5.1,1.6c-9.5,6.7-13.4,14.6-11.4,23.7c0.8,2.4,2.4,4,4.7,4.7
		c4,1.2,8.3-0.4,13-4.3C289.7,402.3,292.9,389.7,286.6,377.5L286.6,377.5z M360.7,389.7c1.6,1.2,2,2,2.4,2.8
		c-0.4,2.4-1.6,7.1-4.7,15c-11.8,26-24.4,48.1-37.1,66.3c-5.1,5.5-9.1,8.3-11.8,8.3l-3.6-2.8c-0.8-3.1,0-9.1,2.8-18.5l3.9-9.9
		c13.8-29.2,28-48.9,41.8-59.6C357.2,390.1,359.5,389.7,360.7,389.7L360.7,389.7z M133.6,430.4l6.3-10.2l2.8-2.4l0.8,0.4
		c6.3,6.7,13,11.8,20.9,15c0.4,0.8,0.4,2.4-0.8,4.3c-9.1,17.8-18.5,30.8-28.8,39.4c-3.6,2-6.7,3.2-9.1,2.4c-2.8-0.8-4.7-3.1-5.5-7.1
		C120.1,461.9,124.9,448.1,133.6,430.4L133.6,430.4z M165.1,385.8c2.4-1.2,4.7-1.2,7.5,0c4.3,3.5,5.9,9.9,3.9,19.3
		c-1.6,5.1-3.2,9.9-5.1,13.8c-0.4,0.8-2,0.8-5.1,0.4c-7.9-3.2-12.2-8.3-13-15C153.3,396,157.2,389.7,165.1,385.8L165.1,385.8z"/>
	<path fill="#ED1F24" d="M406.5,402.3c2,0,11.4,0,28,0c2.4,0,4.7-2,6.3-4.7l12.6-26.8l-0.8-0.8l-22.5-0.4c-5.1,0.4-7.9,1.2-9.1,2.8
		l-14.2,26.4C406.5,400.4,406.5,401.6,406.5,402.3L406.5,402.3z"/>
	<path fill="#ED1F24" d="M75.2,347.5c-19.3,19.3-35.9,41.8-49.7,67.4c-7.1,13-12.2,24.4-15.8,34.3c-7.5,18.9-10.6,37.9-9.5,57.2
		c1.2,22.5,7.9,40.2,20.9,52.9c13.4,15.4,37.1,21.3,69.8,18.1c9.5-1.2,33.5-7.1,71.8-17.3c29.2-7.9,54-10.7,74.5-8.3
		c18.9,3.6,32.7,12.6,41.8,26.8l1.6,0.4c23.3-11,58-10.6,103.7,2c0.8,0,0.8,0,0.8-0.8c-11.4-17.3-31.6-32.3-59.2-44.2
		c-35.1-13.8-75.7-14.6-121.9-1.2L143.4,553c-16.2,4.3-28.8,7.1-36.7,7.9c-15,1.2-27.2-0.8-37.5-5.9c-19.3-10.7-28-29.6-26-57.2
		c3.2-26,13.4-55.2,31.2-88c22.9-37.9,46.1-66.3,69.8-85.2c11.4-7.9,20.1-11.4,25.6-10.7c2,0.4,3.6,1.6,5.1,3.9
		c0.8,2.4,0.4,3.6-0.4,4.3c-4.7,0.8-9.1,2.8-13,7.1c-3.6,3.6-5.9,7.5-6.7,12.2c-1.2,5.9-0.4,9.9,2,12.2c2,1.6,3.9,2.8,5.9,2.8
		c12.2-2,19.3-10.7,22.9-27.2c2.4-11.8,0-20.5-7.1-25.6c-6.7-5.1-18.1-5.9-33.9-1.6C120.5,309.7,97.7,325,75.2,347.5L75.2,347.5z"/>
</g>
</svg>
