<?xml version="1.0" encoding="utf-8"?>
<!-- Generator: Adobe Illustrator 18.1.0, SVG Export Plug-In . SVG Version: 6.00 Build 0)  -->
<!DOCTYPE svg PUBLIC "-//W3C//DTD SVG 1.1//EN" "http://www.w3.org/Graphics/SVG/1.1/DTD/svg11.dtd">
<svg version="1.1" id="Layer_1" xmlns="http://www.w3.org/2000/svg" xmlns:xlink="http://www.w3.org/1999/xlink" x="0px" y="0px"
	 viewBox="0 0 870.6 870.5" enable-background="new 0 0 870.6 870.5" xml:space="preserve">
<g>
	<path fill="#020202" d="M418.2,665.1l7.3-0.3c-0.7-1.4-3.2-5.8-3.7-6.8C421.1,659.4,418.9,663.9,418.2,665.1z"/>
	<path fill="#020202" d="M378.5,660.8c0-4.3-4.6-5.7-10.3-5.7v14.3C373.8,668.6,378.5,665.2,378.5,660.8z"/>
	<path fill="#020202" d="M293.1,53.5c-1.6,1.6-237.9,237.9-239.6,239.6c0,2.3,0,284.9,0,287.2c1.6,1.6,237.9,237.9,239.6,239.6
		c2.3,0,284.9,0,287.2,0c1.6-1.6,237.9-237.9,239.6-239.6c0-2.3,0-284.9,0-287.2C818.3,291.5,582,55.2,580.3,53.5
		C578,53.5,295.5,53.5,293.1,53.5z M569.5,161.2c1.6,1.5,57.1,57,59.5,59.4c2.4,2.4,2.9,6.2,1.4,7.7c-1.5,1.7-15,14.9-16.7,16.7
		c-1.7,1.8-5.4,1.5-7.6-0.9c-2.2-2.4-46.6-46.5-48.3-48.4c-3.9-4.5-5.4-7.6-4.4-11.1c1-3.5,8.3-21.8,8.9-23.5
		C562.9,159.4,565.9,157.9,569.5,161.2z M710,308.7c-1.6,0.6-19.3,8.7-22.7,9.7c-3.6,1-6.6-0.5-11.1-4.4c-2-1.7-46.8-46.8-49.2-49
		c-2.4-2.2-2.7-6-0.9-7.6c1.9-1.7,15-15.2,16.7-16.7c1.6-1.5,5.4-1,7.7,1.3c2.4,2.4,57.9,57.9,59.4,59.5
		C713.2,305.1,711.7,308.1,710,308.7z M723.8,329.2c1.7-0.8,5,0.3,5.2,5.2c0.2,4.9,0,193.8,0,198.1c0,4.4-3,6.5-5.5,5
		c-2.5-1.5-20.8-7.5-24-9.6c-3.1-2.1-4.7-5.7-4.7-9.8s-0.4-163.1,0-169.1c0.4-6,1.6-9.2,4.9-11C703,336.3,722.2,330,723.8,329.2z
		 M146,442.6c2.2-0.1,21,0.1,23.4,0c2.4-0.1,4.9,2.8,4.7,6c-0.2,3.3,0,68-0.2,70.6c-0.4,6-1.5,9.2-4.7,11
		c-3.2,1.8-21.2,7.3-22.8,8.1c-1.5,0.8-4.7-0.3-4.9-5.2c-0.1-2.2-0.1-80.6-0.1-84C141.4,445.7,143.7,442.7,146,442.6z M141.3,418.6
		c0-3.4,0-81.8,0.1-84c0.1-4.9,3.3-6,4.9-5.2c1.6,0.8,19.7,6.9,22.8,8.7c3.2,1.8,4.3,5,4.7,11c0.1,2.6,0,66.8,0.2,70
		c0.2,3.3-2.2,6.1-4.7,6c-2.4-0.1-21.2,0.1-23.4,0C143.7,424.9,141.4,422,141.3,418.6z M162.9,561.3c1.7-0.6,19.8-8.4,23.2-9.4
		c3.6-1,6.6,0.5,11.1,4.4c1.9,1.7,46.3,46.5,48.7,48.7c2.4,2.2,2.7,5.9,0.9,7.6c-1.8,1.6-15,15.1-16.6,16.6
		c-1.6,1.5-5.4,1.1-7.8-1.2c-2.4-2.4-57.9-57.9-59.4-59.5C159.8,564.9,161.2,561.9,162.9,561.3z M431.6,594.9
		c-91.4,0-165.6-74.1-165.6-165.6s74.1-165.6,165.6-165.6s165.6,74.1,165.6,165.6S523,594.9,431.6,594.9z M515.7,671.1l-5.1,3
		c-0.8-1.5-3.3-5.9-3.7-6.4l-10.7,0.5c-0.3,0.6-2.1,4.6-2.8,5.9l-4.8-2.7c1.3-2.3,10.8-18.9,13-22.2h0.2
		C505.4,654.6,514,668.6,515.7,671.1z M485.6,672.7l-4.1,0.6c-0.7-2.5-1.6-11.4-1.9-12.2c-0.5,1-5.1,8.9-6.5,11.8h-0.1
		c-1.6-3.7-4.1-10.3-4.6-11.6c-0.4,1.5-2.8,12.3-3.1,13.7l-3.6-2c0.4-1.3,1.3-20.1,2.2-22.8h2.4c1.1,2.7,6.4,12.5,7.1,14.2
		c0.9-1.9,5.3-12.1,6.2-14.2l3.3,1.4C484.2,655.6,484.8,670.2,485.6,672.7z M446.1,673.9h-5.8c0.1-0.8,0.1-11.1,0.1-11.8v-2.7
		c0-1-0.1-7.9-0.2-8.5c3.4,0,7.3,0.1,10.1,0.4c4.8,0.6,7.4,2.4,7.4,5.3c0,2.7-1.8,4.8-4.5,6.6c0.9,1.1,6.4,7.1,7.3,8l-4.7,3.5
		c-0.6-0.9-9-9.4-9.9-10.8C445.9,665.1,446,673.4,446.1,673.9z M435.9,671.9l-5.1,3c-0.8-1.5-3.3-5.9-3.7-6.4l-10.7,0.5
		c-0.3,0.7-2.1,4.6-2.8,5.9l-4.8-2.8c1.3-2.3,10.8-18.9,13-22.2h0.2C425.6,655.3,434.2,669.3,435.9,671.9z M404.6,674h-4.5
		c0-1.1,0.1-6.6,0.1-7.2V664l-8.5,0.6v1.5c0,1.5,0.1,7.2,0.1,7.9h-4.6v-0.1c0-1.4,0.1-9.1,0.1-9.9v-3.5c0-0.6-0.1-8.8-0.1-9.6h4.6
		c0,0.6-0.1,7-0.1,7.6v1.8l8.5-0.6v-1.9c0-0.6,0-6.2-0.1-6.9h4.5c0,0.8-0.1,9.8-0.1,10.6v3.3C404.5,665.2,404.6,673.4,404.6,674z
		 M362.4,651c4.4,0,8.1,0.1,11.1,0.5c9.7,1.2,11.2,5.8,11.2,8.3c0,10.2-12.8,14.4-22.2,14.4c0.1-1.5,0.2-9.6,0.2-10.5v-4
		C362.6,659,362.6,651.9,362.4,651z M588.2,303.2c-1.9-2.1-1.9-6.1-0.1-7.7c1.8-1.6,15-15.2,16.3-16.3c1.3-1.1,3.9-2.4,7.1,0.7
		c3,3.1,43,43,44.5,44.6c3.4,3.6,1.9,6.6,0.2,7.2c-1.7,0.6-19.9,8.1-23.4,9.1c-3.6,1-6.6-0.4-11.1-4.4
		C619.7,334.8,590.1,305.1,588.2,303.2z M592,266.8c-1.1,1.2-14.6,14.5-16.3,16.3c-1.7,1.8-5.7,1.8-7.7-0.1
		c-2-1.8-32.4-32.2-34-34.1c-3.9-4.5-5.4-7.6-4.4-11.1c0.9-3.5,9.2-20.9,9.8-22.6c0.6-1.6,3.6-3.1,7.2,0.2
		c1.5,1.4,41.5,41.4,44.6,44.5C594.3,262.9,593.1,265.5,592,266.8z M538.3,144.7c-0.8,1.6-8.6,19.4-10.4,22.5
		c-1.7,3.2-4.9,4.3-10.9,4.7c-2.5,0.2-65.1,0.3-68.3,0.5c-3.3,0.2-6.1-2.3-6-4.7c0.1-2.4-0.1-21.2,0-23.4c0.1-2.2,3.2-4.6,6.4-4.7
		c3.4,0,81.8,0,84,0.1C538,139.9,539.1,143.1,538.3,144.7z M510.4,195.2c4.3,0,6.4,3,5,5.5c-1.5,2.5-7.6,20.2-9.8,23.4
		c-2.1,3.1-5.7,4.7-9.8,4.7c-4.1,0-116.8,0.2-122.7-0.2c-6-0.4-9.2-1.6-10.9-4.9c-1.8-3.3-8.9-21.6-9.7-23.3s0.3-5,5.2-5.2
		C362.6,195,506.1,195.2,510.4,195.2z M425.2,167.8c0.1,2.4-2.8,4.9-6,4.7c-3.2-0.2-66.7-0.5-69.3-0.7c-5.9-0.4-9.1-1.5-10.9-4.7
		c-1.8-3.2-8.6-20.7-9.4-22.3c-0.8-1.6,0.3-4.8,5.2-5c2.2-0.1,80.6-0.1,84-0.1s6.4,2.4,6.4,4.7C425.3,146.5,425.1,165.4,425.2,167.8
		z M333.3,232.6c0.7,3.7-0.7,7.3-3.6,10.2c-2.9,2.9-82.3,83.6-86.8,87.6c-4.5,3.9-7.6,5.4-11.2,4.3c-3.6-1.1-22.7-8.7-24.4-9.3
		c-1.7-0.6-3.3-3.7,0-7.3c3.3-3.6,107.1-106.5,110.1-109.6c3.1-3.1,6.7-2.4,7.5,0.4C325.7,211.7,332.6,228.9,333.3,232.6z
		 M228.4,497.7c-0.4,6-1.5,9.2-4.7,11c-3.2,1.8-21.1,6.9-22.7,7.7c-1.6,0.8-4.8-0.3-5-5.2c-0.1-2.2-0.1-58.7-0.1-63
		c-0.1-4.4,2.7-5.4,4.4-5.6c1.7-0.1,20.6,0.1,23,0c2.5-0.1,5.3,2.8,5.4,5.5C228.8,450.8,228.6,495.2,228.4,497.7z M223.6,360
		c3.2,1.8,4.3,5,4.7,11c0.1,2.4,0.4,45.9,0.3,48.6c-0.2,2.8-3,5.6-5.4,5.5c-2.4-0.1-21.3,0.1-23,0c-1.6-0.1-4.4-1.1-4.4-5.5
		c0.1-4.4,0-60.9,0.1-63c0.2-4.9,3.4-6,5-5.2C202.4,352.1,220.4,358.2,223.6,360z M215.1,548.2c-3.2-3.2-2.5-6.8,0.3-7.5
		c2.8-0.8,20.3-9,24.1-9.7c3.7-0.7,7.3,0.7,10.2,3.6c2.9,2.9,83.6,83.1,87.6,87.6c3.9,4.5,5.4,7.6,4.3,11.2
		c-1.1,3.6-10.7,20.9-11.3,22.7c-0.6,1.7-3.7,3.3-7.3,0C319.4,652.9,218.2,551.3,215.1,548.2z M329.1,727.2
		c1.5-2.5,6.7-20.8,8.8-23.9c2.2-3.1,5.7-4.7,9.8-4.7c4.1,0,162.7,0,168.7,0.4c6,0.4,9.2,1.6,10.9,4.9c1.8,3.3,9.3,22.1,10.1,23.7
		c0.8,1.7-0.3,5-5.2,5.2s-193.7,0-198.1,0C329.8,732.7,327.7,729.7,329.1,727.2z M531.9,629.3c-0.7-3.7,0.7-7.3,3.6-10.2
		c2.9-2.9,82.4-82.3,86.9-86.3c4.5-3.9,7.6-5.4,11.2-4.3s22.2,10,23.9,10.6c1.7,0.6,3.3,3.7,0,7.3c-3.3,3.6-104.8,104.8-107.9,107.9
		c-3.1,3.2-6.7,2.5-7.4-0.3C541.5,651.3,532.6,633.1,531.9,629.3z M641.2,505.8c-3.2-1.7-4.3-4.9-4.7-10.9
		c-0.2-2.4,0.6-45.8,0.7-48.6c0.1-2.8,2.9-5.6,5.3-5.5c2.4,0.1,21.3-0.1,23,0s4.5,1.1,4.4,5.4c-0.1,4.4,0,60.9-0.1,63
		c-0.1,4.9-3.3,6-4.9,5.2C663.5,513.7,644.4,507.6,641.2,505.8z M665.6,423.4c-1.7,0.1-20.6-0.1-23,0c-2.4,0.1-5.2-2.7-5.3-5.5
		c-0.1-2.7-0.9-46.2-0.7-48.6c0.4-6,1.5-9.2,4.7-11c3.1-1.8,22.1-7.9,23.7-8.7c1.5-0.8,4.7,0.3,4.9,5.2c0.1,2.2,0.1,58.7,0.1,63
		C670.1,422.3,667.3,423.3,665.6,423.4z M311.4,85.6c4.9-0.2,239.2,0,243.6,0c4.4,0.1,6.5,3.1,5,5.6c-1.5,2.5-8.9,21.3-11.1,24.4
		c-2.2,3.1-5.7,4.7-9.8,4.7s-205.1-0.6-211-1c-6-0.4-9.2-1.6-11-4.9c-1.8-3.3-10.2-21.9-11-23.6C305.4,89.2,306.5,85.8,311.4,85.6z
		 M304.3,154.9c0.8,2.8,8.1,20,8.8,23.8c0.7,3.7-0.7,7.3-3.6,10.2c-2.9,2.9-115.3,116.7-119.8,120.7c-4.5,3.9-7.6,5.4-11.2,4.3
		c-3.6-1.1-22.6-8.9-24.3-9.5c-1.7-0.6-3.3-3.7,0-7.3c3.3-3.6,139.6-139.5,142.6-142.5C300,151.5,303.6,152.1,304.3,154.9z
		 M203.7,181.9c2.3-2.1,74.3-74.3,75.9-75.8c3.6-3.4,6.6-1.9,7.2-0.2c0.6,1.7,7.4,19.9,8.4,23.3c1,3.6-0.5,6.6-4.4,11.1
		c-1.8,2-63.1,64.1-64.9,65.8c-1.8,1.7-6.4,2.2-7.9,0.6c-1.5-1.6-14-13.9-16-16C200.1,188.6,201.5,184.1,203.7,181.9z M105.1,280.8
		c1.5-1.6,73.7-73.6,75.8-75.9s6.7-3.7,8.9-1.7c2.1,1.9,14.3,14.5,16,16c1.6,1.5,1.1,6.1-0.6,7.9c-1.7,1.8-64.1,64.1-66.1,65.9
		c-4.5,3.9-7.6,5.4-11.1,4.4c-3.5-1-21.3-8.9-23-9.4C103.3,287.4,101.8,284.4,105.1,280.8z M87.2,557.9c-0.2-4.9,0-239.2,0-243.6
		c0.1-4.3,3.1-6.4,5.6-5c2.5,1.5,20.3,7.4,23.4,9.6s4.7,5.7,4.7,9.8c0,4.1,0.9,207.6,0.5,213.5c-0.4,6-1.6,9.2-4.9,11
		c-3.3,1.8-22.4,9.2-24.1,10C90.8,563.9,87.4,562.8,87.2,557.9z M191.3,668.1c-2.1,2-6.7,0.6-9-1.7c-2.1-2.2-74.3-74.3-75.8-75.9
		c-3.4-3.6-1.9-6.6-0.2-7.2c1.7-0.6,20.2-8,23.7-9c3.6-1,6.6,0.4,11.1,4.4c2.1,1.8,63.8,63.7,65.5,65.5c1.7,1.8,2.2,6.4,0.6,7.9
		C205.6,653.7,193.4,666.1,191.3,668.1z M296.7,742.4c-1,3.5-7.7,21.2-8.3,22.9c-0.5,1.6-3.5,3.1-7.1-0.2
		c-1.6-1.5-73.6-73.7-75.9-75.8c-2.3-2.2-3.7-6.7-1.8-8.9c1.9-2.1,14.5-14.3,16-16c1.5-1.6,6.1-1.1,7.9,0.6
		c1.9,1.7,63,64.2,64.8,66.2C296.2,735.9,297.7,739,296.7,742.4z M244,649.4c-2.4-2.4-2.9-6.2-1.3-7.8c1.5-1.6,15-14.8,16.7-16.6
		c1.7-1.8,5.4-1.5,7.6,0.9c2.2,2.4,47,46.8,48.7,48.7c3.9,4.5,5.4,7.6,4.4,11.1c-1,3.5-8.9,21.5-9.4,23.2c-0.6,1.6-3.6,3.1-7.2-0.2
		C301.9,707.2,246.4,651.8,244,649.4z M423.8,781.7c-0.1,2.9-4.4,5.1-7.5,5s-105,0-107.3-0.1c-4.9-0.2-6-3.4-5.2-5
		c0.8-1.6,7.2-19.8,9-23c1.8-3.2,5-4.3,11-4.7c2.7-0.2,91.6-0.1,94.1,0c2.5,0.1,6.1,3,6,5.2C423.7,761.3,423.9,778.8,423.8,781.7z
		 M556.1,786.5c-2.2,0.1-104.2,0-107.3,0.1c-3.1,0.1-7.4-2.1-7.5-5c-0.1-2.9,0.1-20.4,0-22.6c-0.1-2.2,3.5-5.1,6-5.2
		c2.5,0,91.9,0.4,94.6,0.6c6,0.4,9.2,1.5,11,4.7c1.8,3.1,7.7,20.8,8.5,22.4C562,783.1,560.9,786.3,556.1,786.5z M562.7,707.9
		c-0.7-2.8-9.2-22.5-9.9-26.2c-0.7-3.7,0.7-7.3,3.6-10.2c2.9-2.9,113-113,117.5-116.9c4.5-3.9,7.6-5.3,11.2-4.3
		c3.6,1.1,23.4,10.1,25.1,10.7s3.3,3.7,0,7.3c-3.3,3.6-137.1,137.1-140,140C567.1,711.4,563.5,710.7,562.7,707.9z M767.7,591.2
		c-3.3,3.6-169.2,169.2-172.3,172.3c-3.1,3.1-6.7,2.4-7.4-0.4c-0.7-2.8-9.8-20.7-10.5-24.5c-0.7-3.7,0.7-7.3,3.6-10.2
		c2.9-2.9,147.4-147.4,151.9-151.3c4.5-3.9,7.6-5.4,11.2-4.3c3.6,1.1,21.7,10.6,23.4,11.2C769.4,584.5,771,587.6,767.7,591.2z
		 M785.9,310c0.2,4.9,0,239.2,0,243.6c0,4.3-3,6.4-5.5,5c-2.5-1.4-20.8-7.6-24-9.8c-3.1-2.2-4.7-5.7-4.7-9.8
		c0-4.1,0-208.3,0.4-214.3c0.4-6,1.6-9.2,4.9-11c3.3-1.8,22.1-8.2,23.7-9C782.4,304.1,785.7,305.1,785.9,310z M681.7,201.8
		c2.1-2,6.7-0.5,8.9,1.7c2.1,2.2,74.3,74.3,75.8,75.9c3.4,3.6,1.9,6.6,0.2,7.2c-1.7,0.5-20.4,7.5-23.9,8.5c-3.6,1-6.6-0.4-11.1-4.4
		c-2-1.7-63.5-63.2-65.2-65c-1.7-1.8-2.3-6.4-0.6-7.9C667.4,216.3,679.6,203.8,681.7,201.8z M591.7,104.8
		c1.6,1.5,73.6,73.6,75.9,75.8c2.3,2.2,3.7,6.7,1.8,8.9c-1.9,2.1-14.5,14.3-16,16c-1.5,1.6-6.1,1.1-7.9-0.6
		c-1.9-1.7-64.8-64.7-66.6-66.7c-3.9-4.5-5.4-7.6-4.4-11.1c0.9-3.5,9.5-20.7,10-22.4C585.1,103,588.1,101.5,591.7,104.8z"/>
	<path fill="#020202" d="M497.9,664.4l7.3-0.3c-0.7-1.4-3.2-5.8-3.7-6.8C500.8,658.7,498.6,663.2,497.9,664.4z"/>
	<path fill="#020202" d="M451.7,657.8c0-1.5-1.1-3.3-5.8-3.3v9.5C447.5,663.1,451.7,660.4,451.7,657.8z"/>
	<circle fill="#FFFFFF" cx="431.6" cy="429.3" r="165.6"/>
	<path fill="#020202" d="M599.5,2.9h-1.2H274l-271,271v325.6l271,271h325.6l271-271V273.9L599.5,2.9z M867.7,598.3L598.3,867.6
		H275.2L5.8,598.3V275.1L275.2,5.8h323.2l269.3,269.3V598.3z"/>
	<path fill="#020202" d="M275.2,5.8L5.8,275.1v323.2l269.3,269.3h323.2l269.3-269.3V275.1L598.3,5.8H275.2z M864.9,276.3
		c0,2.3,0,318.5,0,320.9c-1.7,1.7-266,266-267.7,267.7c-2.3,0-318.5,0-320.9,0c-1.6-1.8-265.9-266.1-267.6-267.8
		c0-2.3,0-318.5,0-320.9c1.7-1.6,266-265.9,267.7-267.6c2.3,0,318.5,0,320.8,0C598.8,10.3,863.2,274.6,864.9,276.3z"/>
	<path fill="#020202" d="M291.9,50.7L50.7,291.9v289.6l241.2,241.3h289.6l241.3-241.3V292L581.5,50.7H291.9z M819.9,293.1
		c0,2.3,0,284.9,0,287.2c-1.7,1.7-238,238-239.6,239.6c-2.3,0-284.9,0-287.2,0c-1.7-1.7-238-238-239.6-239.6c0-2.3,0-284.9,0-287.2
		c1.7-1.7,238-238,239.6-239.6c2.4,0,284.9,0,287.2,0C582,55.2,818.3,291.5,819.9,293.1z"/>
	<path fill="#020202" d="M581.5,47.8H290.8l-243,243v291.9l243,243h291.9l243-243V290.8l-243-243H581.5z M822.8,581.5L581.5,822.7
		H291.9L50.7,581.5V291.9L291.9,50.7h289.6L822.8,292V581.5z"/>
	<path fill="#FFFFFF" d="M767.7,583.9c-1.7-0.6-19.8-10.1-23.4-11.2c-3.6-1.1-6.7,0.4-11.2,4.3c-4.5,3.9-149,148.4-151.9,151.3
		c-2.9,2.9-4.3,6.5-3.6,10.2c0.7,3.8,9.8,21.7,10.5,24.5c0.7,2.8,4.3,3.5,7.4,0.4c3.1-3.1,169-168.7,172.3-172.3
		S769.4,584.5,767.7,583.9z"/>
	<path fill="#FFFFFF" d="M710.3,568.3c3.3-3.6,1.7-6.7,0-7.3s-21.5-9.6-25.1-10.7c-3.6-1-6.7,0.4-11.2,4.3
		c-4.5,3.9-114.6,114-117.5,116.9c-2.9,2.9-4.3,6.5-3.6,10.2c0.7,3.7,9.2,23.4,9.9,26.2c0.8,2.8,4.4,3.5,7.5,0.4
		C573.2,705.3,707,571.9,710.3,568.3z"/>
	<path fill="#FFFFFF" d="M549.6,654.4c3.1-3.1,104.6-104.3,107.9-107.9c3.3-3.6,1.7-6.7,0-7.3c-1.7-0.6-20.3-9.5-23.9-10.6
		s-6.7,0.4-11.2,4.3c-4.5,4-84,83.4-86.9,86.3c-2.9,2.9-4.3,6.5-3.6,10.2c0.7,3.8,9.6,21.9,10.3,24.7
		C542.9,656.9,546.5,657.6,549.6,654.4z"/>
</g>
</svg>
