<?xml version="1.0" encoding="utf-8"?>
<!-- Generator: Adobe Illustrator 18.1.0, SVG Export Plug-In . SVG Version: 6.00 Build 0)  -->
<!DOCTYPE svg PUBLIC "-//W3C//DTD SVG 1.1//EN" "http://www.w3.org/Graphics/SVG/1.1/DTD/svg11.dtd">
<svg version="1.1" id="Layer_1" xmlns="http://www.w3.org/2000/svg" xmlns:xlink="http://www.w3.org/1999/xlink" x="0px" y="0px"
	 viewBox="0 0 870.6 870.5" enable-background="new 0 0 870.6 870.5" xml:space="preserve">
<g>
	<path fill="#147BBE" d="M148,434.6c0.2,85,53.2,157.5,128.1,186.3V248.4C201.4,277.2,148.3,349.6,148,434.6z"/>
	<path fill="#147BBE" d="M419.1,248.4V621c74.8-28.8,128-101.2,128.2-186.3C547.3,349.6,493.9,277.2,419.1,248.4z"/>
	<path fill="#147BBE" d="M508.8,91.2H346.9C156.7,91.2,0,233.1,0,438.2C0,626,156.7,780.2,346.9,779.3h161.9
		c188.1,0.9,359.7-153.4,359.7-341.1C868.5,233,696.9,91.2,508.8,91.2z M347.7,749.6c-173.9-0.1-314.9-141-314.9-315
		c0.1-173.9,141-314.8,314.9-314.9c173.9,0.1,314.9,141.1,314.9,315S521.7,749.5,347.7,749.6z"/>
</g>
</svg>
