<?xml version="1.0" encoding="utf-8"?>
<!-- Generator: Adobe Illustrator 18.1.0, SVG Export Plug-In . SVG Version: 6.00 Build 0)  -->
<!DOCTYPE svg PUBLIC "-//W3C//DTD SVG 1.1//EN" "http://www.w3.org/Graphics/SVG/1.1/DTD/svg11.dtd">
<svg version="1.1" id="Layer_1" xmlns="http://www.w3.org/2000/svg" xmlns:xlink="http://www.w3.org/1999/xlink" x="0px" y="0px"
	 viewBox="0 0 870.6 870.5" enable-background="new 0 0 870.6 870.5" xml:space="preserve">
<g>
	<path fill="#3A53A4" d="M0,161.8v408.9c0,0,545.7,22.8,545.7-208.3S0,161.8,0,161.8z"/>
	<path fill="#3A53A4" d="M687,161.8h182.7v408.9H248c0,0,549-52.9,549-272.9C797,297.8,803.3,218.2,687,161.8z"/>
	<path fill="#3A53A4" d="M0,707.5v-88.4h31.9c15.5,0,26.9,1.6,34.1,4.8c7.2,3.2,12.8,8.2,16.8,14.8c4,6.6,6.1,14.7,6.1,24.2
		c0,8.9-1.8,16.7-5.5,23.2c-3.6,6.6-9.2,11.7-16.5,15.6c-7.4,3.8-18.3,5.8-32.9,5.8H0z M15.1,697.8h17.7c10.6,0,18.5-1.2,23.9-3.6
		c5.4-2.4,9.5-6.1,12.4-11.2c2.9-5.1,4.3-11.5,4.3-19.1c0-7.7-1.3-14.3-3.9-19.8c-2.6-5.5-6.6-9.6-11.9-12.2
		c-5.3-2.6-13.7-3.9-25.1-3.9H15.1V697.8z"/>
	<path fill="#3A53A4" d="M161.2,704.2h-14.3v-83.4h14.3V704.2z"/>
	<path fill="#3A53A4" d="M242.4,704.2h-17.2v-83.4H266c10,0,17.5,0.9,22.6,2.7c5,1.8,9,4.5,12,7.9c2.9,3.5,4.4,7.2,4.4,11.2
		c0,3.3-1,6.4-2.9,9.4c-2,3-4.7,5.7-8.3,8.1c-3.6,2.4-9.2,4.6-16.8,6.5c2.9,1,5,1.9,6.5,2.8c1.4,0.9,3.2,2.3,5.3,4.3
		c2.1,2,3.9,3.9,5.4,5.6l20.8,24.8h-19.6l-18.2-22c-4.4-5.3-10.2-10-17.3-14h-17.3V704.2z M242.4,660h16.8c7.1,0,12.5-0.7,16.1-2.1
		c3.7-1.4,6.6-3.4,8.7-6c2.2-2.6,3.2-5.5,3.2-8.5c0-2.6-0.9-5-2.6-7c-1.7-2.1-4.2-3.8-7.5-5.2c-3.3-1.4-8.9-2.1-16.8-2.1h-18V660z"
		/>
	<path fill="#3A53A4" d="M367.3,707.5v-86.8h66.7v9.5h-51.3v27.4h44.9v8.6h-44.9V698h55.5v9.5H367.3z"/>
	<path fill="#3A53A4" d="M561.1,689.3h13.5v0.5c0,3.3-1.5,6.7-4.6,10.2c-3.1,3.4-7.2,6-12.5,7.6c-5.3,1.6-11.5,2.4-18.6,2.4
		c-14.3,0-26-3.7-35.1-11.2c-9.1-7.5-13.6-18.7-13.6-33.6c0-14.8,4.5-26,13.6-33.5c9-7.5,20.8-11.3,35.3-11.3
		c7.1,0,13.2,0.8,18.5,2.4c5.3,1.6,9.4,4.2,12.5,7.7c3.1,3.5,4.6,6.8,4.6,10.1v0.5h-13.5v-0.5c0-2.1-0.9-4.1-2.6-6
		c-1.7-1.9-4.2-3.3-7.4-4.3c-3.2-1-7.1-1.4-11.6-1.4c-11.5,0-20.1,3.4-25.8,10.2c-5.6,6.8-8.5,15.5-8.5,26.1
		c0,10.7,2.8,19.4,8.5,26.2c5.7,6.8,14.2,10.2,25.7,10.2c7.9,0,13.4-1.2,16.7-3.6c3.3-2.4,4.9-5.1,4.9-8.1V689.3z"/>
	<path fill="#3A53A4" d="M625.4,620.6h90.9v21.8h-30.5v66.6h-29.9v-66.6h-30.5V620.6z"/>
	<path fill="#3A53A4" d="M751,620.6h35.4l24.7,63.6l24.2-63.6h34.3l-40.6,88.4h-36.7L751,620.6z"/>
</g>
</svg>
