<?xml version="1.0" encoding="utf-8"?>
<!-- Generator: Adobe Illustrator 18.1.0, SVG Export Plug-In . SVG Version: 6.00 Build 0)  -->
<!DOCTYPE svg PUBLIC "-//W3C//DTD SVG 1.1//EN" "http://www.w3.org/Graphics/SVG/1.1/DTD/svg11.dtd">
<svg version="1.1" id="Layer_1" xmlns="http://www.w3.org/2000/svg" xmlns:xlink="http://www.w3.org/1999/xlink" x="0px" y="0px"
	 viewBox="0 0 870.6 870.5" enable-background="new 0 0 870.6 870.5" xml:space="preserve">
<g>
	<path d="M345.5,336.1v198.2l528.3,0.2V336.1H345.5z M860,520.5H359.5V350H860V520.5z"/>
	<g>
		<path d="M0,336.3v198.2h149.9V336.3H0z M124.9,435.1c0,34.7-19.9,63.7-46.8,72.1c-5.1,1.4-10.3,2.3-15.6,2.3H31.2V360.7h31.2
			c5.3,0,10.5,0.8,15.6,2.5C105,371.4,124.9,400.6,124.9,435.1z"/>
		<path d="M157.5,336.3v198.2h149.9V336.3H157.5z M276.3,509.8H245c-5.3,0-10.7-0.6-15.6-2.3c-26.9-8.2-46.8-37.4-46.8-71.9
			c0-34.7,19.9-63.9,46.8-72.1c4.9-1.4,10.3-2.3,15.6-2.3h31.2V509.8z"/>
	</g>
	<g>
		<path d="M454.6,391.1h-4.9H409v89.4h40.7h8.2c25.1,0,33.1-11.7,33.1-35.9v-18.7C490.9,400.3,479.6,391.1,454.6,391.1z
			 M466.1,444.5c0,9.2-3.3,15.2-12.1,15.2h-4.3H433v-47.9h16.6h4.3c8.4,0,12.1,2.5,12.1,14V444.5z"/>
		<path d="M536.5,390.5c-24.2,0-41.7,5.1-41.7,32.7v25.3c0,27.5,17.5,32.7,41.7,32.7c24.4,0,41.7-5.1,41.7-32.7v-25.3
			C578.2,395.6,561,390.5,536.5,390.5z M553.6,445.7c0,13.3-4.5,14.6-17,14.6c-12.5,0-16.4-1.2-16.8-14.6v-20.1
			c0.4-13.1,4.3-14.4,16.8-14.4c12.5,0,17,1.2,17,14.4V445.7z"/>
		<polygon points="608.2,391.1 584.4,391.1 584.4,480.5 645.6,480.5 645.6,459.7 608.2,459.7 		"/>
		<path d="M711.3,434.6c11.9-2.1,14.2-9.4,14.2-20.7c0-19.5-10.7-22.8-28.6-22.8h-9.5h-37.8v89.4h37.8h10.1
			c18.9,0,29.4-3.1,29.4-24.9C726.9,444.3,724.7,436.3,711.3,434.6z M673.7,410.6h13.8h6.4c6.8,0.2,7.6,2.3,7.6,7.6
			c0,7.2-2.1,8.6-10.5,8.6h-3.5h-13.8V410.6z M691.8,460.9h-4.3h-13.8v-17.7h13.8h4.7c7.8,0,10.7,1.2,10.7,8.6
			C702.9,459.1,699.6,460.9,691.8,460.9z"/>
		<polygon points="785.2,391.1 768.6,425.6 767.8,425.6 751.8,391.1 724.2,391.1 756.3,449 756.3,480.5 780.3,480.5 780.3,449 
			813.2,391.1 		"/>
	</g>
</g>
</svg>
