<?xml version="1.0" encoding="utf-8"?>
<!-- Generator: Adobe Illustrator 18.1.0, SVG Export Plug-In . SVG Version: 6.00 Build 0)  -->
<!DOCTYPE svg PUBLIC "-//W3C//DTD SVG 1.1//EN" "http://www.w3.org/Graphics/SVG/1.1/DTD/svg11.dtd">
<svg version="1.1" id="Layer_1" xmlns="http://www.w3.org/2000/svg" xmlns:xlink="http://www.w3.org/1999/xlink" x="0px" y="0px"
	 viewBox="0 0 870.6 870.5" enable-background="new 0 0 870.6 870.5" xml:space="preserve">
<g>
	<path fill-rule="evenodd" clip-rule="evenodd" fill="#ED1C24" d="M434.1,155.5c239.1,0,434.1,125.7,434.1,279.8
		c0,154.1-195,279.8-434.1,279.8C195,715,0,589.3,0,435.3C0,281.2,195,155.5,434.1,155.5L434.1,155.5z M317.6,293.6
		c0.9,26.5-7.1,44.2-21.2,55.7c-8.6,6.6-8.6,13.3,0,19.9c14.9,9.3,16.1,29.8,18.1,49.6c-4.1,25,6.2,38.5,30.9,40.4
		c18.3,2.8,35.9,11.3,32.2,31.3c-9.9,53.6-93.2,52.8-132.7,97.6c-13.6,14.9-20.6,44.6,4.7,44.6h380.1c26.5,0,17.2-34,3.8-48.3
		c-41.4-44.8-133.4-74-145-117.5c-3.5-19.9,0.9-32.6,22.8-29.4c18.8,5.1,33.9,0.4,43.5-18.6c51.5-15.4,54.7-43.5,35.9-77.3
		c0.3-25.7-9.7-44.7-25.5-60.1c-8.3-29.9-26.1-45.3-50.6-51c-17-22-37.5-32.6-61.4-31.5c-34.9-6.1-68-10.1-89,0
		c-13.7,13.1-27.4,26.2-41.1,39.3C319.7,252.8,319.5,275.2,317.6,293.6L317.6,293.6z"/>
</g>
</svg>
