<?xml version="1.0" encoding="utf-8"?>
<!-- Generator: Adobe Illustrator 18.1.0, SVG Export Plug-In . SVG Version: 6.00 Build 0)  -->
<!DOCTYPE svg PUBLIC "-//W3C//DTD SVG 1.1//EN" "http://www.w3.org/Graphics/SVG/1.1/DTD/svg11.dtd">
<svg version="1.1" id="Layer_1" xmlns="http://www.w3.org/2000/svg" xmlns:xlink="http://www.w3.org/1999/xlink" x="0px" y="0px"
	 viewBox="0 0 870.6 870.5" enable-background="new 0 0 870.6 870.5" xml:space="preserve">
<g>
	<path fill="#FFFFFF" d="M342.3,312.9c0.1-0.1,0.2-0.3,0.3-0.4c0.2-0.3,0.4-0.6,0.7-0.9L342.3,312.9z M824.2,545
		c-0.1,0.1-0.2,0.2-0.3,0.3c-0.1,0.1-0.2,0.3-0.4,0.4L824.2,545z M832.6,410.5c-1.4,0-2.7,0.1-4,0.2c0.4-3.2,0.4-6.3,0.4-9.4v-12.8
		c0.8,0.1,1.6,0.1,2.5,0.1c26.6,0,39-30.4,39-51c0-23.1-16.6-41.1-37.9-41.1c-8,0-15.1,2.8-20.9,7.2c-6.3-4.3-14-6.6-22.4-6.6
		c-10.6,0-21.4,4.6-28.7,12.1c-7.9-8.1-17.1-12.1-28-12.1c-10,0-18.8,3.2-25.6,8.6c-6.8-5.5-15.5-8.6-25.3-8.6
		c-9.1,0-17.7,3-24.4,8.2c-6.7-5.1-15.1-8.2-24.2-8.2c-9.5,0-17.9,3.1-24.8,8.7c-6.9-5.5-16-8.7-25.5-8.7c-9.6,0-18.1,3.2-24.9,8.7
		c-7-5.6-15.6-8.7-24.9-8.7c-11.1,0-21.6,4.5-29,12.3c-7.3-8-16.8-12.3-27.8-12.3c-9.9,0-18.6,3-25.5,8.2
		c-6.9-5.2-15.7-8.2-24.8-8.2c-9.5,0-18.8,3.7-25.8,9.8c-8-7.2-18.5-9.8-26.3-9.8c-12.6,0-24.3,5.7-31.5,15.3
		c-0.6,0.7-1.1,1.4-1.6,2.1c-13.6-11.2-30.6-16.9-50.6-16.9h-21.1c-15.2,0-24.9,5.4-31.2,11.8c-8.5-8.9-20.4-14.5-33.6-14.5h-2.9
		c-0.3-0.1-0.7-0.1-1.1-0.1h-60.4c4.4-6.3,6.7-13.7,6.7-21.7c0-2.6-0.2-5.2-0.7-7.8c-1.6-9-6.6-36.6-41.8-39.9
		c-28-2.7-49.6,19.1-54.2,41.7c-1.1,0-2.2,0.1-3.3,0.2C20,270.1,1.5,292.1,3.7,318.9c0.2,2.8,0.7,5.5,1.4,8.1
		c-0.4,1.1-0.8,2.2-1.1,3.3c-0.9,3.6-1.4,7.4-1.4,11.2v178.4c0,25.6,20.8,46.4,46.4,46.4h68.6c0.5,0,1,0,1.5-0.1h70
		c0.4,0,0.7,0.1,1.1,0.1h14.3c14.4,0,27.4-6.6,35.9-17c2,1.9,3.9,3.2,5.3,4.2l0.7,0.5l0.8,0.5c8.5,5.1,16.6,5.5,25.6,5.5h14
		c7.3,0,14.2-0.5,20.7-1.4l0.6-0.1l0.6-0.1c11.9-2.4,24.2-8.4,34.6-16.9l0.8-0.7l0.7-0.7c0.5-0.5,1-1,1.5-1.6
		c14.1,14.9,34.1,24.3,56.3,24.3c17.7,0,34-6,46.9-16.2c8.2,9.3,18.9,14.4,30.3,14.4c10.8,0,21.5-4.8,28.6-12.6
		c7.6,8.1,17.6,12.6,28.7,12.6c11.6,0,22.2-4.9,29.4-13.5c11.7,9.7,26.3,15.2,41.4,15.2c18.6,0,37.1-8.5,49.7-22.7l0.2-0.2
		c1.4-1.6,2.7-3.3,4-5.1c1,3,2.5,6.1,4.6,9.2l0.8,1.2l0.9,1c8.2,9.5,19.3,14.7,31.1,14.7c12.8,0,24.1-5.9,31.4-16.3
		c11.1,11.1,28.4,18.1,48.2,18.1c19,0,34.1-5.8,44.9-17.3c10.4-10.4,16.3-24.8,16.3-39.4c0-8-1.7-15.7-4.7-22.6
		c18.8-1.5,33.6-17.2,33.6-36.3C869.1,426.9,852.7,410.5,832.6,410.5z"/>
	<g>
		<path fill="#EF7622" d="M25.3,363.9v-22.4c0-2,0.2-3.9,0.7-5.7c2.9,2.6,7.9,8.8,20,8.8C40.1,348.2,25.6,360.6,25.3,363.9z"/>
		<path fill="#EF7622" d="M25.3,377.9v141.9c0,13.1,10.6,23.7,23.7,23.7h68.6l-53.3-99.9c0,0-13.1-2-15.7-8.8s-23.3-58.3-23.3-58.3
			V377.9z"/>
		<path fill="#E51A92" d="M190.3,543.6h14.3c13.1,0,23.7-10.6,23.7-23.7V341.5c0-13.1-10.6-23.7-23.7-23.7h-39.5l23.2,58.6
			c2.6,6.9,1.3,11.5-4.3,19c2.6,9.8,28.5,97.5,28.5,97.5C215.2,499.7,219.8,528.9,190.3,543.6z"/>
		<path fill="#512C1D" d="M204.5,494.8l-30.1-101.4l-0.1,0c4.2-5,6-10.1,5.5-15l0-0.5l-0.2-0.4c-8.8-20.7-17.8-45.8-19-49.1
			c-0.2-2.6-1.6-4.8-3.9-6.4c-8.8-6-32.9-3.4-61.5,6.7c-30.5,10.8-62.8,29.7-62.4,43.4c0,1.8,0.6,3.4,1.7,4.8l0,0l20,50.1l0.1,0.1
			c0.2,0.4,4.3,7.9,15.9,8.8l47.7,94.4c0.1,0.3,11.5,20.7,40.6,15c15-2.9,34.8-9.4,43.4-23.7C206.7,514.1,207.5,505,204.5,494.8z
			 M38.9,372c-0.2-6.9,21.9-24.5,58.2-37.3c28.9-10.2,50-11.5,55.9-7.4c0.2,0.2,0.4,0.3,0.5,0.5c-1.2,1.2-3.7,3.7-8.5,8.5
			c-62.9,11.2-92.5,37.6-92.5,37.6H39.8C39.1,373.1,38.9,372.5,38.9,372z M59.9,424.4c-0.1-0.4-11.7-29.3-17.1-42.8
			c11.5,2.4,31.9-0.9,55.2-9.1c24.5-8.7,50.1-22.5,59.1-34.8c3.5,9.6,10,26.8,16.3,41.8c0,0.2,0,0.4,0,0.6c0,3-1.4,6.1-4.2,9.4
			c-17.8,21.3-83.6,39.5-94.8,40.3C64,430.6,60.3,425,59.9,424.4z M196.6,518.6c-7.9,13-28,18.6-39.3,20.8
			c-24.4,4.7-33.4-11.1-33.8-11.8l-46.4-91.7c14.3-2.2,69-17,92.1-37.4l29.2,98.2C200.9,505,200.3,512.4,196.6,518.6z M87.9,303.7
			c6.2,7.5,3.5,14.5,3.4,14.8c-0.6,1.6,0.2,3.4,1.8,4.1c1.6,0.6,3.4-0.1,4.1-1.7c0.2-0.4,4.2-10.7-4.4-21.2l-4.7-5.3
			c-6.1-6.7-11.4-12.5-9.6-21.2c1.8-8.6,10.8-19.9,23.2-18.8c11.5,1.1,14.1,5.7,16,16.3c0.6,3.5,0.1,6.4-1.8,8.5
			c-2.1,2.5-5.8,4-10.1,4c-1.6,0-5.4-3.3-5.7-6.5c-0.1-0.7-0.2-2.7,4.6-3.6c1.7-0.3,2.8-2,2.5-3.7c-0.3-1.7-2-2.8-3.7-2.5
			c-9.8,1.8-9.9,8.4-9.8,10.4c0.5,6,6.7,12.3,12,12.3c6.2,0,11.6-2.3,14.9-6.2c2.1-2.5,4.3-6.9,3.1-13.7c-1.9-10.4-5-19.8-21.6-21.4
			c-15.2-1.4-27.4,11.2-29.9,23.8c-2.4,11.9,4.5,19.4,11.1,26.7L87.9,303.7z M50.5,337.6c0.1,0,0.1,0,0.2,0
			c4.7-0.6,8.2-2.5,10.5-5.6c2.6-3.5,3.4-8.3,2.3-14.4c-0.8-4.8-4-8.2-8.5-9.3c-4.1-1-8.2,0.3-10.2,3.1c-1,1.4-0.7,3.4,0.7,4.4
			c1.4,1,3.4,0.7,4.4-0.7c0.4-0.5,1.9-1.1,3.7-0.7c1.2,0.3,3.3,1.2,3.8,4.2c0.2,1.4,0.4,2.7,0.4,3.9c0,2.5-0.5,4.4-1.5,5.8
			c-1.2,1.6-3.2,2.6-6.2,3c-11,0.8-16.6-6.9-17.3-14.8c-0.8-9.1,4.8-19,17-20.1c6.1-0.6,10.7,0.8,14,4.2c7.7,7.9,5.9,24.2,5.8,24.4
			c-0.2,1.7,1,3.3,2.7,3.5c1.7,0.2,3.3-1,3.5-2.7c0.1-0.8,2.3-19.4-7.6-29.5c-4.7-4.8-11.1-6.8-19.1-6.1
			c-16.2,1.5-23.7,14.7-22.7,26.9C27.2,327.7,35.2,338.7,50.5,337.6z"/>
		<path fill-rule="evenodd" clip-rule="evenodd" fill="#EF7622" d="M124.9,476.8c-2.3,1.2-3.3,1.5-4.5,1.3c-1.3-0.2-2.4-0.7-3.3-1.7
			c-0.5-0.6-0.8-1.1-1.8-3.1l-8.3-16.1c-1.2-2.3-1.4-2.7-1.5-3.4c-0.3-2.6,0.8-4.4,3.6-5.8l5.9-3c4.2-2.2,8.2-2.8,12.3-1.7
			c4.4,1.3,8.2,4.4,10.4,8.5c2,4,2.3,8.9,0.8,13.1c-0.8,2.7-2.6,5.3-4.8,7.1c-1.1,0.8-2.8,1.8-4.7,2.8L124.9,476.8L124.9,476.8
			L124.9,476.8z M123.5,466.1c3.2-1.8,4-2.3,4.7-3.7c0.8-1.7,0.8-4-0.1-5.8c-1.1-2.2-3.3-3.6-5.7-3.4c-1.1-0.1-2.1,0.3-3.9,1.2
			c-0.2,0.1-0.5,0.3-0.8,0.4L123.5,466.1L123.5,466.1z"/>
		<path fill-rule="evenodd" clip-rule="evenodd" fill="#E51A92" d="M153.8,466.4c-2.3,0.9-3.3,1.2-4.4,0.8c-1.3-0.3-2.3-0.9-3.1-2
			c-0.5-0.6-0.7-1.1-1.5-3.2l-6.9-16.7c-1-2.4-1.1-2.8-1.3-3.5c-0.1-2.6,1.1-4.3,3.8-5.4l5.8-2.4c4.2-1.7,8.1-1.9,11.9-0.5
			c4.1,1.7,7.6,5.1,9.4,9.5c1.7,4.1,1.6,9-0.1,13c-1,2.6-2.9,5-5.1,6.5c-1.1,0.6-2.8,1.6-4.7,2.4L153.8,466.4L153.8,466.4
			L153.8,466.4z M153.2,455.8c3.2-1.5,4-1.8,4.8-3.2c0.9-1.6,1.1-3.9,0.3-5.8c-0.9-2.2-2.9-3.8-5.2-3.9c-1-0.2-2.1,0-3.8,0.8
			c-0.2,0.1-0.5,0.2-0.8,0.3L153.2,455.8L153.2,455.8z"/>
	</g>
	<g>
		<path fill-rule="evenodd" clip-rule="evenodd" fill="#EF7622" d="M829.8,365.5c-12.3-2.3-12.3-17.3-12.3-26.6
			c0-8.7,6.4-19.7,15.2-19.7c9.4,0,15.2,9.2,15.2,18.5c0,8.1-5.3,28.3-16.4,28.3C830.9,366.1,830.4,366.1,829.8,365.5L829.8,365.5z"
			/>
		<path fill-rule="evenodd" clip-rule="evenodd" fill="#EF7622" d="M272.3,422.1c-8.2,0-11.7-0.6-14.6-2.9c-3.5-2.3-5.8-5.2-7-9.2
			c-0.6-2.3-0.6-4-0.6-11v-56.1c0-8.1,0-9.2,0.6-11.6c2.9-7.5,8.8-11,18.7-11h21.1c15.2,0,27.5,4,37.4,12.7
			c10.5,9.8,17,23.7,17,38.2c0,13.9-6.4,27.8-17,37c-6.4,6.4-15.2,11-24,12.7c-4.1,0.6-10.5,1.2-17.5,1.2H272.3L272.3,422.1
			L272.3,422.1z M284,390.9c11.7-0.6,14.6-0.6,18.7-3.5c4.7-3.5,8.2-9.8,8.2-16.2c0-7.5-4.1-14.5-11.1-17.3
			c-2.9-1.7-6.4-2.3-12.9-2.3c-0.6,0-1.8,0-2.9,0V390.9L284,390.9z"/>
		<path fill-rule="evenodd" clip-rule="evenodd" fill="#EF7622" d="M365.3,407.1c-6.4-8.7-8.8-15.6-8.8-29.5v-35.8
			c0-9.3,1.2-12.1,4.1-15.6c2.9-4,8.2-6.4,13.5-6.4c4.1,0,9.4,1.7,12.3,5.2c3.5,3.5,4.7,6.9,4.7,14.5v39.9c0,7.5,3.5,12.1,9.4,12.1
			c5.8,0,8.8-4.6,8.8-11.6v-40.5c0-7.5,1.2-9.8,4.1-13.3c2.9-4,8.2-6.4,12.9-6.4c5.3,0,10.5,2.3,13.5,5.8c2.9,4,4.1,6.9,4.1,16.2
			v35.8c0,13.9-3.5,23.7-11.1,31.8c-8.2,9.8-20.5,15-32.2,15C386.4,424.4,373.5,418.1,365.3,407.1L365.3,407.1z"/>
		<path fill-rule="evenodd" clip-rule="evenodd" fill="#EF7622" d="M519.8,415.8l-26.9-34.1v21.4c0,6.9-1.2,9.8-4.1,13.9
			c-2.9,3.5-8.2,5.8-12.9,5.8c-5.3,0-10.5-2.3-14-6.4c-2.3-4-3.5-6.9-3.5-14.5v-64.2c0-11,7-17.9,18.1-17.9c4.7,0,8.8,1.7,12.3,6.4
			l26.9,33V340c0-6.4,1.2-9.8,3.5-13.3c2.9-4,8.2-6.9,14-6.9c4.7,0,9.4,1.7,12.9,5.8c2.9,3.5,4.1,6.9,4.1,13.3v62.4
			c0,8.1-1.2,11.6-4.1,15c-2.9,4-8.2,6.4-12.9,6.4C527.4,422.7,523.3,420.4,519.8,415.8L519.8,415.8z"/>
		<path fill-rule="evenodd" clip-rule="evenodd" fill="#EF7622" d="M625.6,417.5l-25.2-31.8v17.9c0,11.6-7,19.1-17.6,19.1
			c-10.5,0-17-7.5-17-19.1v-65.3c0-11,7-18.5,17-18.5c4.7,0,9.9,1.7,12.9,5.2c2.9,3.5,4.7,7.5,4.7,13.3v16.2l18.7-27.2
			c3.5-5.2,8.2-7.5,14-7.5c9.4,0,17,7.5,17,16.8c0,2.9-1.2,6.4-2.3,8.7l-17.6,24.9l21.1,26.6c2.3,2.3,2.9,5.8,2.9,9.2
			c0,9.2-7.6,16.8-17,16.8C632.6,422.7,628,421,625.6,417.5L625.6,417.5z"/>
		<path fill-rule="evenodd" clip-rule="evenodd" fill="#EF7622" d="M669.5,417.5c-3.5-3.5-4.1-6.9-4.1-13.9v-63
			c0-8.7,0.6-11.6,4.1-15.6c2.9-3.5,7.6-5.2,12.3-5.2c5.3,0,9.9,1.7,12.9,5.2c3.5,3.5,4.7,6.9,4.7,15.6v63c0,6.4-1.8,10.4-4.7,13.3
			c-2.9,3.5-8.2,5.8-12.3,5.8C677.7,422.7,672.4,420.4,669.5,417.5L669.5,417.5z"/>
		<path fill-rule="evenodd" clip-rule="evenodd" fill="#EF7622" d="M776,415.8l-26.9-34.1v21.4c0,6.9-0.6,9.8-3.5,13.9
			c-3.5,3.5-8.2,5.8-13.5,5.8c-5.3,0-10.5-2.3-13.4-6.4c-2.9-4-3.5-6.9-3.5-14.5v-64.2c0-11,7-17.9,17.5-17.9
			c5.3,0,8.8,1.7,12.9,6.4l26.9,33V340c0-6.4,0.6-9.8,2.9-13.3c2.9-4,8.8-6.9,14-6.9c5.3,0,9.9,1.7,12.9,5.8
			c2.9,3.5,4.1,6.9,4.1,13.3v62.4c0,8.1-0.6,11.6-3.5,15c-3.5,4-8.2,6.4-13.5,6.4C784.2,422.7,779.5,420.4,776,415.8L776,415.8z"/>
		<path fill-rule="evenodd" clip-rule="evenodd" fill="#E51A92" d="M272.9,537.2c-8.2,0-11.1-0.6-14-2.3c-4.1-2.9-6.4-5.2-7-9.3
			c-0.6-2.3-0.6-4-0.6-11v-56.1c0-8.7,0-9.2,0.6-11.6c2.3-7.5,8.8-11,18.1-11H291c15.2,0,27.5,4,37.4,12.7c10.5,9.3,17,23.1,17,37.6
			c0,14.5-6.4,27.7-16.4,37.6c-7,5.8-15.8,10.4-24.6,12.1c-4.1,0.6-9.9,1.2-17.5,1.2H272.9L272.9,537.2L272.9,537.2z M284.6,506.5
			L284.6,506.5c11.7,0,14.6-0.6,18.7-3.5c5.3-3.5,8.8-9.8,8.8-16.2c0-7.5-4.7-15-11.1-17.9c-3.5-1.7-7-2.3-13.5-2.3h-2.9V506.5
			L284.6,506.5z"/>
		<path fill-rule="evenodd" clip-rule="evenodd" fill="#E51A92" d="M348.4,486.3c0-29.5,24-52.6,54.4-52.6
			c29.8,0,53.8,23.7,53.8,52.6c0,29.5-24,53.8-53.8,53.8C372.3,540.1,348.4,515.8,348.4,486.3L348.4,486.3L348.4,486.3z
			 M382.3,486.3c0,11.6,9.4,20.8,20.5,20.8c11.1,0,20.5-9.3,20.5-20.2c0-11-9.4-20.2-20.5-20.2C391.6,466.6,382.3,475.3,382.3,486.3
			L382.3,486.3z"/>
		<path fill-rule="evenodd" clip-rule="evenodd" fill="#E51A92" d="M523.8,531.4l-26.9-34.7v22c0,6.9-1.2,9.8-4.1,13.3
			c-2.9,4-8.2,6.4-12.9,6.4c-5.3,0-9.9-2.9-13.4-6.9c-2.9-3.5-3.5-6.4-3.5-13.9v-64.8c0-10.4,7-17.3,17.6-17.3
			c4.7,0,8.8,1.7,12.3,6.4l27.5,33.5v-19.7c0-6.9,1.2-9.8,3.5-13.3c2.9-4.6,8.2-6.9,13.5-6.9c5.3,0,9.4,1.7,12.9,5.8
			c2.9,3.5,4.1,6.9,4.1,13.3v62.4c0,8.1-1.2,11-4.1,15c-2.9,4-7.6,6.4-12.9,6.4C532,538.3,527.4,536,523.8,531.4L523.8,531.4z"/>
		<path fill-rule="evenodd" clip-rule="evenodd" fill="#E51A92" d="M573.6,522.1c-6.4-8.1-8.2-15.6-8.2-28.9v-35.8
			c0-9.8,0.6-12.1,2.9-15.6c3.5-4,8.8-6.4,13.5-6.4c4.7,0,9.4,1.7,12.3,5.2c3.5,3.5,4.7,6.9,4.7,13.9V495c0,7.5,3.5,12.1,9.4,12.1
			c6.4,0,9.9-4.6,9.9-11.6v-41.1c0-7.5,0.6-9.2,3.5-13.3c2.9-3.5,7.6-5.8,12.9-5.8c4.7,0,9.9,2.3,12.9,5.8c3.5,3.5,4.1,6.9,4.1,15.6
			v36.4c0,13.9-3.5,23.7-10.5,31.8c-8.2,9.2-20.5,15-32.8,15C594.6,540.1,581.8,533.1,573.6,522.1L573.6,522.1z"/>
		<path fill-rule="evenodd" clip-rule="evenodd" fill="#E51A92" d="M685.3,531.4c-2.3-3.5-2.9-6.4-2.9-13.3v-51.5H673
			c-5.9,0-9.4-1.2-12.3-4c-3.5-3.5-5.3-6.9-5.3-11c0-5.8,4.1-12.1,8.8-13.9c3.5-1.7,4.7-1.7,18.7-1.7h33.9c4.7,0,7.6,0,8.8,0
			c1.2,0,1.8,0,2.9,0c8.2,1.2,13.5,7.5,13.5,15c0,4.6-1.8,9.3-5.3,12.1c-2.3,2.3-7,3.5-12.9,3.5h-8.2v50.9c0,6.4-0.6,9.8-2.9,13.3
			c-2.9,4.6-7.6,7.5-13.5,7.5C693.5,538.3,688.8,535.4,685.3,531.4L685.3,531.4z"/>
		<path fill-rule="evenodd" clip-rule="evenodd" fill="#E51A92" d="M740.3,514.6c0-8.7,7-15,15.2-15c4.1,0,7.6,1.2,12.3,4.6
			c7,5.8,8.2,6.4,11.1,6.4c2.3,0,4.1-1.7,4.1-4.6c0-2.3-0.6-3.5-2.3-4.6c-1.2-0.6-1.8-1.2-7-2.9c-2.9-1.2-5.8-1.7-8.2-2.9
			c-15.2-5.2-22.2-15-22.2-28.9c0-19.7,15.2-32.9,37.4-32.9c18.7,0,32.8,9.2,32.8,22c0,7.5-5.3,13.3-12.9,13.3
			c-4.7,0-8.2-1.2-14-5.8c-3.5-2.9-5.3-3.5-7-3.5c-2.3,0-4.7,1.7-4.7,4c0,3.5,2.3,4.6,10.5,7.5c8.8,2.3,17,6.9,21.6,10.4
			c6.4,5.2,10.5,14.4,10.5,24.3c0,8.7-3.5,17.3-9.9,23.7c-6.4,6.9-15.8,10.4-28.7,10.4C757.2,540.1,740.3,528.5,740.3,514.6
			L740.3,514.6z"/>
		<g>
			<path fill="#E51A92" d="M838.9,443.5c0-2.5-1.7-4.4-5.9-4.4h-5.7V454h2.6v-6.1h2.9l3,6.1h3.1l-3.2-6.6
				C837.5,446.9,838.9,445.5,838.9,443.5z M833.1,445.2h-3.2v-3.3h3.2c2.1,0,3.1,0.4,3.1,1.7C836.2,444.8,834.9,445.2,833.1,445.2z"
				/>
			<path fill="#E51A92" d="M832.6,433.2c-7.6,0-13.8,6.2-13.8,13.9c0,7.6,6.2,13.8,13.8,13.8c7.5,0,13.8-6.3,13.8-13.8
				C846.4,439.4,840.2,433.2,832.6,433.2z M832.6,458.3c-6.2,0-11.4-5.2-11.4-11.3c0-6.2,5.1-11.4,11.4-11.4
				c6.2,0,11.4,5.2,11.4,11.4C843.9,453.2,838.8,458.3,832.6,458.3z"/>
		</g>
	</g>
</g>
</svg>
