<?xml version="1.0" encoding="utf-8"?>
<!-- Generator: Adobe Illustrator 18.1.0, SVG Export Plug-In . SVG Version: 6.00 Build 0)  -->
<!DOCTYPE svg PUBLIC "-//W3C//DTD SVG 1.1//EN" "http://www.w3.org/Graphics/SVG/1.1/DTD/svg11.dtd">
<svg version="1.1" id="Layer_1" xmlns="http://www.w3.org/2000/svg" xmlns:xlink="http://www.w3.org/1999/xlink" x="0px" y="0px"
	 viewBox="0 0 870.6 870.5" enable-background="new 0 0 870.6 870.5" xml:space="preserve">
<g>
	<path fill="#EB2227" stroke="#EB2227" stroke-width="0.2619" stroke-miterlimit="2.6131" d="M147.2,325.7
		c-8.1-7.5-18.8-6.1-26.6,13.3c-2.8,6.8-5.5,13.1-5.6,18.9c-0.2,13.1-5.7,21.7-14.1,26.9c-9.7,5.9-15.6,16-16,31.4
		c-0.3,10.4-7.5,19.7-14.2,27.7c-16.4,19.6-32.5,27.2-44-1.4c-4.1-10.1-4.7-16.5-14-13.8c-3.9,1.1-7,7.7-10,19.4
		c-4,15.5-4.4,30.4,4.7,42.4c12.2,16.1,9.9,34.8,6.3,45.6c-2.3,6.9-2.6,18.5,2.9,22.8c9.1,7.1,16.4,8.6,26.9,2.7
		c25.5-14.2,43.4-27.6,91.4-29.4c3.9-0.1,8,1.2,11.8-0.1c23.8-8,34.7-18.4,46.7-25c8.8-4.8,20.9-10.4,28.6-8.5
		c14.8,3.6,20.7,3.8,23.3,0.4c3.3-4.5,8.7-10.6,14-14c11.3-7.4,17-10.7,21.7-21.4c2.9-6.7,10.1-8.5,18.7-5.3c8.9,3.3,17.4,6,27,7.7
		c23.3,4.2,38.5,11.9,33.7,54.6c-1.7,14.9-9.4,42.9-21.5,58.4c-9.3,11.9-13.4,18.5,4,20.2c9,0.9,17.2-0.8,24.3,0.4
		c35.8,6.1,43.2,3.1,44.9-20c0.7-9.6,6.8-22.3,12.3-30.8c9.8-15.4,14-31.8,25.1-49.2c3.6-5.6,9.6-7,16.8-1.9
		c8.8,6.2,18.9,7.6,29.6,8c8.4,0.3,16.5,2.1,24.3,1c11.4-1.6,22-4.2,31.5-7c8.8-2.6,16.8-6.8,24.6-10.8c14-7.2,19.5-8.9,34.9-8.6
		c17.9,0.4,32.2,1,40.4,1.8c9.7,1,12.5-2.5,18-2.3c5.7,0.2,15.3,4.8,16.2,9.1c1.6,7.9,6.3,36.5,13.3,48.5
		c6.1,10.4,5.7,23.2,6.2,32.7c0.4,7.1-4.9,11.6-10,16.3c-12,11.1-5.8,20.4,6.9,24.7c13.2,4.4,23.9,2.6,32.9,0.7
		c23.4-5,36.2-14.8,31.6-26.8c-3-7.8-2.8-14.6-3.7-20c-1.2-7.7,10.1-12.8,8.9-34.1c-0.4-7.2-3.5-14.1-2.5-21.4
		c1-6.9,8.8-15.4,10.4-24.8c3.1-18.1,6.3-13.2,7.6-21.6c0.8-4.8,5.9-8,8.1-12.7c23.6-50.4,8.2-76.3-16.5-98.9
		c-64.8-59.4-134.6-102.4-230.6-70c-19,6.4-38.1,14.4-58.5,9.9c-19.2-4.3-42.9-13-64.3-20.7c-31.3-11.3-39-17.1-74-13.4
		c-40.8,4.3-105.4,21.3-156.9,67.6c-2.3,2-5.5,5.4-16.4,2.2c-5.4-1.6-8.1,1.8-10.4,2.6C155.3,334.4,156.9,334.7,147.2,325.7
		L147.2,325.7z M820.1,391.7c-3.6,2.2-2.9,8.3-0.2,10.8c22.3,20,35.5,39.8,14.6,59.8c-11.7,9.8-23.7,19.5-28.7,29.3
		c-9.4,11.7,1.3,13.7,14.9,14.4c10.7,0.7,19,0,23.8-4.3c3.6-3.2,5.7-7.2,9.2-9.5c7.4-6.7,11.9-13.9,14.6-19.5
		c1.9-4.2,1.9-4.9-0.9-8.6c-2.6-3.4-3.6-11.8-4.2-15.6c-3.3-21.5-14.7-37.6-29.5-51.4C830.3,394,824.8,388.8,820.1,391.7
		L820.1,391.7z M600.1,494.7c-9.9-0.2-13.8,7.7-13.2,21.3c0.5,13.2,1.8,26.7-7.3,36.7c-6.4,7.1-15.8,7.5-18.8,17.8
		c-1.6,5.6,1.9,10.6,17.1,13.4c9.2,0.7,18.1,2.6,25,3.4c20.4,2.2,30.2-4.9,29.2-15.9c-2.1-7.4,1-11.7,4.8-15.7
		c8.8-8.5,15.1-13.3,22.1-19.6c3.6-3.3,7.3-8.8,8-14.4c0.1-1.1,0.3-2.1,0.6-2.9c1.3-3.8,1.8-4.9,1.5-9.4c-0.8-13.4-7-13.4-16.5-13.9
		C634.8,495.4,617.7,494.8,600.1,494.7L600.1,494.7z M322.2,479.3c-3.2,0.3-7.3,3.2-2.7,11.1c2.9,4.9,7.3,11.5,17.6,29.2
		c5,8.7,10,5,12-0.2c2.8-7.3,0.3-15.1-0.2-22.7C347.8,481,335.8,477.8,322.2,479.3L322.2,479.3z M315.5,556.5c7.4-5.4,17-7.7,20.8-5
		c3.8,2.7,1.1,11.6-6.3,17c-7.4,5.4-15.8,5.4-19.6,2.7C306.5,568.5,308.1,562,315.5,556.5L315.5,556.5z"/>
</g>
</svg>
