<?xml version="1.0" encoding="utf-8"?>
<!-- Generator: Adobe Illustrator 18.1.0, SVG Export Plug-In . SVG Version: 6.00 Build 0)  -->
<!DOCTYPE svg PUBLIC "-//W3C//DTD SVG 1.1//EN" "http://www.w3.org/Graphics/SVG/1.1/DTD/svg11.dtd">
<svg version="1.1" id="Layer_1" xmlns="http://www.w3.org/2000/svg" xmlns:xlink="http://www.w3.org/1999/xlink" x="0px" y="0px"
	 viewBox="0 0 870.6 870.5" enable-background="new 0 0 870.6 870.5" xml:space="preserve">
<g>
	<path fill-rule="evenodd" clip-rule="evenodd" fill="#231F20" d="M870.6,674.8V195.7H0v479.1H870.6L870.6,674.8z M842.3,646.6h-814
		V224h814V646.6L842.3,646.6z M814,618.8v-367h-758v367H814L814,618.8z M715.3,535.4h-76.2V335.1h76.2V535.4L715.3,535.4z
		 M601.3,535.4h-68.5V426.2l-36.4,109.2h-46.5L413,426.2v109.2h-68.5V335.1h96.8l33.1,95.3l33.1-95.3h93.9V535.4L601.3,535.4z
		 M309.5,535.4H155.2V335.1h154.3v45h-86.2v33.1h86.2v45.5h-86.2v31.6h86.2V535.4L309.5,535.4z"/>
</g>
</svg>
