<?xml version="1.0" encoding="utf-8"?>
<!-- Generator: Adobe Illustrator 18.1.0, SVG Export Plug-In . SVG Version: 6.00 Build 0)  -->
<!DOCTYPE svg PUBLIC "-//W3C//DTD SVG 1.1//EN" "http://www.w3.org/Graphics/SVG/1.1/DTD/svg11.dtd">
<svg version="1.1" id="Layer_1" xmlns="http://www.w3.org/2000/svg" xmlns:xlink="http://www.w3.org/1999/xlink" x="0px" y="0px"
	 viewBox="0 0 870.6 870.5" enable-background="new 0 0 870.6 870.5" xml:space="preserve">
<path fill="#FFD520" d="M667.3,23.2v50.3V74v38.6H203.2v734.7c0,12.8,10.5,23.3,23.3,23.3H644c12.8,0,23.3-10.5,23.3-23.3V23.2
	C667.3,23.3,667.3,23.2,667.3,23.2z"/>
<path fill="#009D57" d="M644,0H226.5c-12.8,0-23.3,11.2-23.3,24.9v12.4h464.1V24.8C667.3,11.2,656.8,0,644,0z"/>
<polygon fill="#FFFFFF" points="203.2,38.2 203.2,73.5 203.2,73.5 203.2,73.5 "/>
<rect x="203.2" y="38.2" fill="#FFFFFF" width="464.1" height="35.3"/>
<polygon fill="#FFFFFF" points="203.2,34.9 203.2,38.2 203.2,38.2 203.2,38.2 "/>
<rect x="203.2" y="74" fill="#F15A2A" width="0" height="38.6"/>
<rect x="203.2" y="74" fill="#EF3E33" width="464.1" height="38.6"/>
<polygon fill="#F15A2A" points="203.2,73.5 203.2,74 203.2,74 203.2,74 "/>
<rect x="203.2" y="73.5" fill="#F15A2A" width="464.1" height="0.5"/>
<path d="M224.1,834.5v-8.8h4.9c2.5,0,7.3-0.5,7.3-6.4v-52.9c0-3.2-0.2-10.8-6.4-10.8h-5.6l6.4-11.2h376.7v11.2H260.9
	c-3.2,0-7.3,0.7-7.3,7.1v16.7c0.7,1.9,3.7,2.7,5.1,2.7c1.5,0,6.6-0.3,6.6-8.3h7.4v27.2h-7.4c0-2.5-2.7-6.5-6.4-6.9
	c-2.9-0.3-5.4,0.7-5.4,4.7v20.6c0,2.2,2.7,6.4,9.1,6.4h4.4v8.8H224.1L224.1,834.5z"/>
<path d="M441.6,768.3c0,2,2.4,3.9,3.9,4.4c1.7-1.2,10.8-6.4,17.9-6.4c7.1,0,10.8,3.7,10.8,9.3v26.9H457v-20.8c0-2.7-0.7-4.6-3.2-4.9
	c-2.4-0.3-8.8,4.9-10.5,7.3v37.2c0,3.4,3.4,5.9,6.4,5.9v7.1h-29.9v-7.3c2.9,0,6.1-1,6.4-5.4v-41.4c0-1.2-2-4.6-6.4-4.6v-7.4H441.6
	L441.6,768.3z"/>
<path d="M646.6,768.3h-29.9v7.4c4.4,0,6.4,3.4,6.4,4.6v41.4c-0.2,4.4-3.4,5.4-6.4,5.4v7.3h29.9v-7.1c-2.9,0-6.4-2.4-6.4-5.9v-40.6
	c0-2.9,3.2-5.1,6.4-5.1V768.3L646.6,768.3z"/>
<path d="M375.4,768.3c0,2,2.4,3.9,3.9,4.4c1.7-1.2,10.8-6.4,17.9-6.4c7.1,0,10.8,3.7,10.8,9.3v26.9h-17.1v-20.8
	c0-2.7-0.7-4.6-3.2-4.9c-2.5-0.3-8.8,4.9-10.5,7.3v37.2c0,3.4,3.4,5.9,6.4,5.9v7.1h-29.9v-7.3c2.9,0,6.1-1,6.4-5.4v-41.4
	c0-1.2-2-4.6-6.4-4.6v-7.4H375.4L375.4,768.3z"/>
<path d="M574.1,768.3c0,2,2.5,3.9,3.9,4.4c1.7-1.2,10.8-6.4,17.9-6.4s10.8,3.7,10.8,9.3v26.9h-17.1v-20.8c0-2.7-0.7-4.6-3.2-4.9
	c-2.5-0.3-8.8,4.9-10.5,7.3v37.2c0,3.4,3.4,5.9,6.4,5.9v7.1h-29.9v-7.3c2.9,0,6.1-1,6.4-5.4v-41.4c0-1.2-2-4.6-6.4-4.6v-7.4H574.1
	L574.1,768.3z"/>
<path d="M340.7,813.9h-17.1v6.6c0,2.7-0.5,8.3-8.6,8.3c-8.1,0-10.5-5.4-10.5-9.3v-14c0-1.2,1-2.9,2.7-2.9h33.5v-17.9
	c0-8.1-1.7-10.6-5.1-14c-3.4-3.4-15.4-4.4-20.8-4.4c-13.7,0-18.1,1.9-22,5.1c-3.9,3.2-5.4,9.8-5.4,14.7v27.7
	c0,7.3,1.5,12.5,6.1,17.1c4.6,4.6,18.8,4.6,21.8,4.6c2.9,0,12.7,0.3,19.8-4.9C342.2,825.7,340.7,813.9,340.7,813.9L340.7,813.9z
	 M304.5,783.5c0-3.9,1.2-9.8,9.8-9.8c8.6,0,9.3,6.4,9.3,9.8v8.8c0,1.5-1.2,2.9-2.9,2.9h-13.2c-1.5,0-2.9-1.2-2.9-2.7V783.5
	L304.5,783.5z"/>
<path d="M537.1,821.5v-36.7c0-5.6-0.3-11.5-6.1-15.7c-5.9-4.2-15.4-3.9-19.1-3.9c-3.7,0-15.9,0-21.6,6.4c-5.6,6.4-4.6,12.5-4.6,14.9
	h16c0,0,1.1-8.3,3.3-10.5c2.2-2.2,8.1-4.7,12.6-0.7c1.7,1.4,2.3,3.3,2.3,5.4v10.5c0,1-1,2.5-2.2,2.5c0,0-22.3,0.5-26.2,3.4
	c-3.9,2.9-7.3,4.9-7.3,15.7c0,10.8,2.7,14.9,5.9,17.1c3.2,2.2,4.6,4.7,19.1,4.7h34.3v-7.1C540.5,827.3,537.1,824.9,537.1,821.5
	L537.1,821.5z M520,825.7c0,0.6-1,1.5-1.7,1.5h-8.4c-6,0-7.7-5.1-7.7-8.3v-9.4c0-9.2,9.5-9,13.3-9c3.8,0,4.5,3.2,4.5,5.3V825.7
	L520,825.7z"/>
<path d="M630.5,755.5c8.6,0,15.5-2.6,15.5-5.8c0-3.2-6.9-5.8-15.5-5.8c-8.6,0-15.5,2.6-15.5,5.8C615,752.9,622,755.5,630.5,755.5
	L630.5,755.5z"/>
<g>
	<polygon points="415.4,498.5 414.5,500.7 417.1,513.7 420.7,525.7 430.5,547.2 440,563.8 447.6,574.1 447.7,576.6 447.3,578.7 
		445.3,579.4 429.5,579.1 413.9,576.8 397.5,571 390.3,570.5 388.2,571.4 378.6,570.4 374.8,569 349.7,568.4 346.6,569.7 
		344.3,570.4 343.6,571.4 343.7,573.5 349.8,582.4 352.2,583.4 360.2,588.5 364.9,590 377.5,589.5 386.8,587 388.6,587.9 
		389.5,589.7 391,590.1 399.3,590.3 401.7,591 404.5,590.3 420,592.4 437.7,596.8 451.5,602.3 454.1,604.1 460.8,604.4 464.4,603.5 
		468.4,594.9 467.7,591 461.8,579.3 459.2,572 456.4,556.8 457.1,542 458,538 456.9,534.5 447.1,527.3 445,518.4 439.3,510.1 
		425.5,498.9 419.8,496.7 417.4,497.1 415.4,498.5 	"/>
	<polygon points="420.7,195.3 420.3,191 414.2,183.6 412.3,183 411,184.9 411.2,187.1 409.1,189 408.9,191.5 414.7,195.3 
		420.7,195.3 	"/>
	<line fill="none" x1="408.8" y1="190.4" x2="408.9" y2="190.1"/>
	<path d="M618.8,379.7l-2.1-1v3.2l-1.7,1.9l-3,4.5l-1.7,1.1l-6.5,8.6l-2.2,5l-2.4,0.4l-2.2-1.3l-1.3-5.9l0.4-6.9l1.5-6.4l11.2-17.1
		l4.4-9.1l0.6-6.4l-0.7-2l-1.3,1.3l-2.2,5.6l-3.4,5.6l-10.7,9.6l-8.6,10.1l-1.7-0.2l-0.6-1.7l0.4-11.7l2.6-8.5l4.6-9.5l6.2-7.6
		l7.6-6.5l0.7-1.5l-0.9-0.7l-7.1,4.1l-12.1,10.6l-4.8,6.5l-4.7,8.5l-2.6,6.9l-1.1,16.2l4.5,18.1l4.3,13.2l4.4,27.8l-0.7,13.4
		l-3.2,11.9l-7.8,9.9l-8,7.3l-10.3,5.8l-9.8,0.6l-1.3-4.8l-3.5-6.9L529.8,465l-9.1-8.7l-13.4-10.8l-12.8-8.7L476,421.4l-10-12.5
		l-11-18l-3-10.8l0.7-6.7l1.5-1.3l10.1,5.6l5-0.2l11.9,6.4l7.3,5.4l4.2,0.6l1-1.9l-1.1-0.2l-1.3,0.6l-2.1-1.3l-4.4-7.1l-5-4.6
		l-7.8-2.4l0.6-1.5h3.9l4.5,1.5l9.5,5.6l1.1-1.5l-1.9-2.6l-5-4.5l-7.8-4.1l-9.4-3.7l-1.9-1.5l1.9-1.3l4.2,2.1l7.8,1.3l12.8,5.6
		l7.8,1.1l5.6-0.8l7.4-4.1l1.9-1.8l0.2-1.3l-1.7,0.1l-1.7,1.7l-10.4,2.6l-4.1-0.6l-3.9-3.1l-3.5-4.1l-4.2-3.1l-12.5-3.4l-2.6-1.7
		l0.2-1.4l2.4,0.3l19.3-0.9l2.4,2l7.1,1l1.5-1.1l-2.6-0.8l-6.5-5.2l-5.4-2.8l-8.5-1.1l-1.5-0.9l3-1.7h4.8l13.4,5.5l6,0.2l3.2-1.5
		l0.9-2l-2.4-1.1l-5-0.2l-4.3-1.5l-3.7-3.2l-4.1-2.1l-5.4-0.9l-4.6-1.7l-2-2.6l0.4-1.3l6.7,1.7l2.2,1.6l3.2,0.4l0.4-1.7l-3.3-2.6
		l-1-2.4l4.5,0.7l4.2,2.2l5.4,0.6l2.1,3.9l5.5,3.3l0.3-0.1l1.2-0.5l1.5-0.9l-0.7-1.1l-2.1,0.1l-5.6-8.3l-6.5-5.8l-6.7-3l-5.9-7.1
		l-3.7-2l-0.5-1.9l1.7-1.1l15.4,4.4l2.4,3.4l3.9,2h3l4,1.1l4.3-0.8l1.7-1.5l-2.4-2.1l-7.6-1.5l-2.4-2.1l-3.2-4.6l-0.7-3l-13.6-9.6
		l-5.5-5.2l-0.4-1.5h1.3l7.3,5.8l11.4,7.3l5,4.7l7.1,3.2l1.3-2.1l-1.9-0.7l-3.9-3.5l-1.1-3.9l-7.5-7.3l-1.7-4.2l-5.7-8.6l-7.8-6.9
		l-0.4-2.2l2.8,0.3l10.3,4.7l6.5,0.3l4.8,2.3l5.2,0.9l4.4-1.3l-0.3-1.9l-5.1-1.1L494,257l-2.6-3.1l0.9-1.1l1.3,0.9l2,0.7l2.6,0.2
		l13.6-0.8l4.3,1.7l4.4,3.2l1.9,0.6l0.2-1.7l-1.5-1.5l-4.4-4.1l-6.9-3.5l-14.5-1.1l-7.1-7.5l-7.4-5.5l1.7-1.3l12.5,5.4l7.1,1.7h6.1
		l5,5.6l4.1,2.4l1.5-1.5l-5.6-8.2l-8.7-6.3l-7.3-1.7l-6.2-6.5l-5.4-3.2l-7.4-1.9l4.1-3.5l12.7-4.1l1.3-1.7l-0.7-1.3l-5.8-1.3
		l-21,0.4l-3.7-4.1l-9.6-5.2l-7.1-1.1h-6.1l-7.4-8.4l-6.9-6.3l-4.2,7.1l-0.2,2.2l2,2.6l0.2,2.2l-1.5,1.3l-4.7,0.4l-16.9-4.2
		l-10.2,1.5l0.7,2.2l3.5-0.1l1.5,0.3l0,2L396,200l-2.7-0.4l-7.1,1.8l-2.4,0.2l-0.8,1l0.9,1.5l1.8,0.4l1.7-0.5l2-0.9l2-0.1l4.3,0.2
		l7.1,1.9l5.7,2.6l0.5,1.2l-0.6,1l-2.7,1l-1.6,0.8l-12.6,8l-15.3,7.9l-12.8,1.2l-1.9,0.5l-1.1,2.3l-0.9,2.5l-1,1.7l-4.7,7.7l-1.6,2
		l-0.2,2.3l0.2,6.5l2.1,1.9l1.8,1l2.2-0.2l12.9-4.3l2.2,0.1l0.5,1.4l-0.5,1.3l-1.8,1l-9.6,3.3l-0.8,1.4l-0.2,1.5l1.4,1.2l2.9,0.4
		h2.3l6.1-0.9l4.6-2.4l3-0.6l2.6-0.5l2,0.7l5.7,0.2l2.3,1.4l8.4,1.8l2.6,0.4l4-0.7l5.1,0.3l2.2,0.9l1.2,2.1l-2.1,9.7l-6.5,18
		l-13.6,18.9L381,327l-1.8,5.8l-2.5,2.9l-12.7,8.9l-4.9,2.5l-5.4,6.4l-2.2,1.4l-3.1,1.6l-2-0.5l-22.2-11.4l-13.6-10.9l-5.5-2
		l-4.9-0.9l-6.3,1.3l-8.3,5.1l-8.4,23.4l-0.3,6.5L272,383l-2.9,5.6l-1.6,5.6l-0.9,6.9l-4,9.1l-0.4,18.7l-1.1,4l0.7,3.5l-0.3,5.8
		l2,4.7l1.6,1.1l2.9-0.9l6.5-7.1l3.3-5.4l1.3-4.4l-5.4-23.2l0.9-8.5l2.2-6.9l5.8-7.8l2.9-0.3l1.4-0.8l6.2-6.5l1.6-5.8l0.8-6.7l1.6-2
		l1.6-0.5l2,0.7l2.9,1.6l10.3,12.9l7.6,6.5l3.5,1.6l1.1,2.2l-1.1,1.1l-22.7-4h-12.7l-7.4,5.6l-3.1,5.3l-2.4,6l-0.3,4.5l1.4,8
		l3.1,10.2l7.3,32.3l1.4,8.9l1.3,3.1l6.5,5.8l3.5,5.3l2.5,6.3l3.8,5.5l5.5,5.4l4,2.5l2.7,0.2l2.2-0.7l2.9-5.8l0.9-3.8v-8.7l-1.1-2.5
		c-0.2,0-0.2-1.6-0.2-1.8l-0.5-1.6l-5.2-6l-6.2-2.7l-2.3-0.7l-0.4-3.8l0.2-2.4l-4.2-4.9l-2.7-6.2l-4-17.1l-3.1-6.5l-1.1-7.8l1.7-4.7
		l3.1-1.7h2.4l3.6,3.1l5.1,3.1L329,424l6.3,3.6v3.3l5.8,3.3l7.4,2.5h15.4l-1.1,2.9l-0.7,1.6l5.8,9.3l13.4,14l18,14.5l16.6,8.9
		l17.6,12.2l7.3,6.2l7.6,10.2l0.4,4.3l1.7,4.4l4.6,3.3l4.2,1.7l2.6-0.3l5.1-5.2l0.7-4.3l3.5-6.1l1.7-14l1.2-2.6l2.4-1.2h2.3l0.2,1.7
		l-1.7,1.8l-2.6,6.4l-0.4,9.3l-0.9,3.2l-10.3,17.7l-2.2,8.7l-1.1,9.1l1.1,10.2l1.5,6l11.6,24.4l4.8,7.6l5.8,7.1l1.1,2.4v1.7
		l-0.7,2.1L472.8,632l-12.5,13.6l-7.8,3.5l-3.1,3l-1.7,3.4l-13.2,14.7l-3.2,5.5l-3,10.3l0.2,3.7l2.2,2.4l11.7-0.3l8.5-4.4l0.7-1.9
		h1.7l2.6-1.1l2.4-2.3l1.3-8.9l-0.8-1.9l-0.4-1.9l1.3,0.4l1.5,0.4l1.5-1.1l2.4-1.5l5.8-7.8l1.7-4.1l0.4-3.3l2.1-1.5l5.4-3.1l2-4.1
		l12.3-11.9l12.3-7.5l1.5-1.4l0.6-1.5l1.3-1.7l-0.9-2.2l-1-7.9l-1-2.2l-7.2-11l-0.4-7.8l2.8-9.5l2.1-3.3l2.2-1.3l15.4-12.3
		l13.6-15.1l8.7-16.7l1.9-6.4l0.9-10.4l1.5-1.5l1.7-0.4l1.5,1l1.3,3.1l1,8.4l-0.8,16.2l1.1,7.2l1.3,1.9l1.1-0.1l0.6-1.3l-0.7-3v-5.1
		l1.5-4.2l1.4-10.4l1-2h1.1l0.9,0.9l1.7,6.9l-1.5,12.6l-6.5,13.8L555,563v7.6l1.3,3.9h2.4l1.2-1.7l-0.7-1.9l-0.5-3.3l13.9-22.3
		l2.8-15.1v-8.5l-1.7-6l-3.3-4.6l-0.4-2.2l1.5-0.7l1.9,0.9l5.4,8.4l2,14.7l1.9,5.8l0.2,0.1l2.6,5.8l1.7,0.6l0.7-1.5l-0.2-0.9
		l-1.3-4.3v-10.6l1.1-10.6l-0.4-3l-5.5-10.3l0.9-1.7l3.5-0.7l10-5l4.6-4.1l6-8l6.2-13l1.1-19.3l-5.5-36.6l2.2-12.5l3.1-6.9l4.5-7.1
		l1.7-4.5l0.3-2.2L618.8,379.7z M366,245.2l-1.5,1.4l-2.1,1.2l-2.8,0.6l-1-0.6l-0.3-2l0.8-2.8l2-2.7l1.6-0.8l1.5,0.2l1.8,1.5
		l0.8,1.3L366,245.2z M373.3,243.3l-0.5,0.3l-1,0.1l-0.8-0.4l-0.7-0.8l0.1-0.9l0.8-1.2l0.6-0.4h0.8l0.7,0.2l0.3,0.8l0.1,1.3
		L373.3,243.3z M382.2,251.6l-0.8,0.4h-1l-0.5-0.3l-0.3-0.8l0.1-1l0.6-0.6l0.7,0l0.8,0.2l0.4,0.5l0.2,0.9L382.2,251.6z M399.4,225.6
		l-1.2,0.3l-1.4,0.4l-1.6,1.3l-3.5,2.1l-10.6,2.3l-1.5-0.2l2.3-2l12.7-5.9l1.9-0.9l1.4-0.2l1.1,0.3l0.9,1.5L399.4,225.6z
		 M269.5,434.7l-1.5-0.3l-0.8-1.5l1.5-0.8l1.3,0.1l0.4,1.3L269.5,434.7z M289,356.7l-2.4,8.4l-2.4,3.7l-1.3,0.3l-0.5-1v-2l1.2-7.7
		l2.1-3.7l1.1-1.3l1.6-0.5l0.6,0.9L289,356.7z M299.8,341.9l-2.4,0.9l-2.3,0.2l-1.4-0.5l-0.4-1l0.4-1.4l1.2-0.8l2.5-0.3l1.3-0.1
		l0.9,0.3l0.8,0.8l0.1,0.8L299.8,341.9z M319.5,368.5l-0.5,0.1l-1.2-0.8l-1.7-1l-1.5-1.2l-1.4-1.4l-0.6-0.8l-0.2-1.1l0.3-0.6
		l0.5,0.1l0.9,0.1l1,0.9l1.1,1l1.8,1.1l1.1,1.3l0.7,1l0.1,0.8L319.5,368.5z M286.4,395l-0.9,1.3l-0.9,0.3l-0.6-0.5l0-1.8l1.5-2.6
		l0.5-0.8l0.7-0.3l0.7,0.5v1.5l-0.5,1.1L286.4,395z M292.7,441.9l-0.3,0.5H292l-0.7-0.6l-0.5-1l-0.8-1.8l-1.2-2.3l-1.8-7.1l0.5-7.9
		l0.3-0.5h0.5l0.6,0.5l0.5,2.4l0.1,2.4l3.3,13.9L292.7,441.9z M315.2,484.8l0.6-0.1l1.5,0.3l0.7,0.7l0.1,0.8l-0.1,1l-0.9,0.6
		L316,488l-0.8-0.7l-0.3-1.6L315.2,484.8z M329.7,416.9l-1.5,0.1l-2-0.3l-1.4-0.6l-9.8-6.4l-1.2-0.9l1.6-0.1l1.8,0.7l9,3.5l2.3,1.1
		l1.2,1.1l0.2,1L329.7,416.9z M346.6,373.4l-4,11.7l-3.3,4.1l-1.7,1.3l-1.8,0.7l-1-0.7l-0.1-1.3l1.4-1.5l3.3-6.5l2.1-7.7l2-3.7
		l1.3-1.9l1.1-0.3l1,0.4l0.3,1.2L346.6,373.4z M427.5,255.3l1.7-2.1l1.9-1.8l1.7-1.2l1.3-0.1l0.9,0.6v1.6l-0.5,1.7l-4.2,3.2
		l-2.3,0.6l-1.1-0.3l-0.1-0.9L427.5,255.3z M420.7,216.2l1.6-0.5l1.1-0.5l1.4,0.5l0.5,1l-1.1,1.2l-1.5,0.6l-1.8,0.1l-0.7-1.2
		L420.7,216.2z M406.7,229.3l-0.7-1.8l1-1.9l2.1-1.8l3.4-0.1l2.5,0.5l1.9,1.3l0.9,2.3l0.8,2.4l-0.2,2.1l-2.1,0.8h-2.3l-5.1-2.4
		L406.7,229.3z M412.1,255.8h-2.6l-0.5-0.9l0.7-0.9l0.8-0.5l8.1-5.5l1.9-1.2h0.7l0.1,1.4l-1.3,1l-0.6,2.1l-1.6,2.4L412.1,255.8z
		 M381.4,347.4l-0.4-0.5l0.1-1.4l0.9-1l9.8-3.4l10.6-0.8l3.3,0.7l3.1,1.6l2.5,2.4l0.2,1.4l-0.3,1l-1.1,0.2l-1.6-0.2l-2.5-0.7
		l-2.3-0.7l-15.1,0.4l-2.4,0.7l-2.3,0.5l-1.5,0.1L381.4,347.4z M423.2,484.3L398,467.1l-13.2-12.1l-1.5-2.3l-0.6-2.7l0.1-2.5l1-1
		l1.7,0.1l5.4,4.3l11.7,13.3l20.8,18.5l0.6,1l0.5,0.8L423.2,484.3z M425.5,369l-1.1,0.6l-2.6,0l-1.7-0.4l-1-1.3l-0.8-1v-1.6l1.3-1.6
		l1.9-1.5l1.8-0.3l1.7,0.5l0.5,0.9l0.2,2l0.3,2.1L425.5,369z M430.6,285.8l-3.4,10.1l-6.7,11.8l-5.6,7.9l-4.3,4.5l-3,1.2l-0.9-0.1
		l-0.2-0.8l0.9-2.1l14-26.2l4.5-7.2l2.3-2.2l1.8-0.3l0.8,1.2L430.6,285.8z M441,258.9l-0.5,1.4l-2,2.3L433,265l-2.8,0.1h-1.8
		l-0.6-0.8l0.7-1.2l1.6-0.7l5.8-3.2l1.5-1l2.2-1.1l1.4,0.4V258.9z M455.7,344l-1,0.3l-1.3-0.1l-0.9-0.9l0.2-0.7l0.9-0.6l1.3-0.1
		l1.1,0.9l0,0.8L455.7,344z M457.3,339.1h-1.5l-0.8-0.5v-1.1l0.4-0.8l0.8-0.3h1.1l1,0.7l0.1,0.8L457.3,339.1z M460,331.5l-1,0.5
		l-1.1,0.1l-1.1-0.3l-0.4-0.8v-0.9l0.9-0.7l1.1-0.2h1.1l0.6,0.5l0.2,0.9L460,331.5z M461.4,325l-1.4,0.4l-1.5-0.1l-0.8-0.5l-0.1-0.6
		l0.3-0.9l1.2-0.5l1.3-0.2l1.1,0.6l0.4,1L461.4,325z M464.7,316.1l-0.8,1l-0.7,0.9l-1.4,0.3h-1.4l-1.2-0.6l-0.1-1l0.9-0.9l0.7-0.8
		l1-0.3l1.6-0.5h1.2l0.5,0.7L464.7,316.1z M466.7,308.6l-0.7,1l-1.2,0.2l-1.2,0.3l-1.5-0.1l-0.7-0.8l0.1-1.1l0.5-0.8l1-0.7l1.6-0.2
		l1.4,0.3l0.6,0.8V308.6z M468.9,303l-1.6,0.6l-1.2,0.4h-1.5l-0.6-0.1l-0.7-0.3l-0.4-0.8l0.2-1l1-0.9l0.9-0.5l1-0.4l1.4-0.1l1.3,0.5
		l0.5,1.1L468.9,303z M469.1,294.4l-0.5,0.9l-1,0.8l-1.4,0.5l-1.7,0.2l-1.4-0.2l-0.4-0.8l0.2-0.7l0.5-0.4l2.4-1.2l1.2-0.3l1.4,0.1
		l0.5,0.5V294.4z M465.2,273.9l0.5-0.3l0.2-0.9l0.2-0.7l0.4-0.5l0.8-0.1l0.9,0.3l0.8,0.5l0.1,1l-0.1,1.6l-1.2,1l-1.6,0.8l-0.7-0.1
		l-0.6-0.3l-0.7-0.8l-0.1-0.9l0.3-0.5H465.2z M464.4,267.5v-0.7l0.7-0.7l1-0.4l1.3-0.1l0.8,0.3l0.2,0.7l-0.4,0.7l-0.7,0.7l-1.1,0.3
		h-1.1L464.4,267.5z M464.4,287.9l0.9-0.6l1.1-0.3l1.1-0.1l0.8,0.1l0.3,0.5v0.7l-0.4,0.8l-0.7,0.8l-1.8,0.7l-0.9-0.1l-0.8-0.3
		l-0.2-0.8l0.1-1L464.4,287.9z M469,281.7l-0.3,0.7l-1.1,0.8l-1.5,0.6l-0.8-0.2l-0.8-0.5l-0.2-0.8l0.1-1l0.6-0.6l0.9-0.6l1.3-0.3
		l1.1,0l0.7,0.2l0.2,0.7L469,281.7z M469.4,260.3l-0.2,0.9l-0.6,0.8l-0.9,0.3l-0.8,0.2l-0.8,0.1l-1-0.1l-0.3-0.6l0.3-0.8l0.6-0.5
		l0.6-0.4l1.1-0.8l1.2,0.1L469.4,260.3z M467.8,252.9l0.6,0.3l0.1,0.9l0,0.8l-1,0.9l-0.9,0.3l-0.6-0.1l-0.5-0.3V255l0.1-0.8l0.7-0.7
		l0.6-0.4L467.8,252.9z M466.6,248.7l-0.3,0.9l-0.6,0.5l-0.6,0.4l-0.8,0.1l-0.7-0.4l-0.2-0.7l0.3-0.6l0.6-0.8l0.6-0.3l0.8-0.1
		l0.6,0.4L466.6,248.7z M458.4,232.5l1.5-0.1l2.1-0.8l1.9-0.4l1.6-0.1l0.8,0.8l-1.1,1.7l-1.1,0.3l-1.9,0.7l-2.4,1.4l-2.3,1.2
		l-2.7,1.1l-0.9,0.1l-0.8-0.3l0.1-1.1l-0.4-1.1v-1.9l0.9-2.2l1.2-1.3l0.8-1l0.8-1h1.2l0.9,0.8l-0.2,2.1L458.4,232.5z M457.5,212.4
		l0.5,0.4l-0.2,0.5l-0.8,0.9l-1.1,0.1l-1.3-0.2l-0.8-0.4l-0.6-0.7l0.7-0.5l1-0.4l1.5-0.1L457.5,212.4z M450.5,204.5l2.5-0.3l1.4,0.5
		l1.1,0.5l0.1,0.9l-0.9,0.4l-1.4,0.1l-1.4-0.1l-1.1-0.2l-0.9-0.7L450.5,204.5z M470.1,466.6l-1.2,1.1l-1.1,1.3l-1.1,2.3l-0.4,1.6
		l-0.8,0.6l-1.5-0.2l-0.7-0.8l1.1-6.9l0.4-2.1l1-2.7l0.7-0.8l1.1-0.2h1.4l0.6,0.6l1.1,1.6l0.2,3L470.1,466.6z M466.1,426.8l-8.9-8.7
		l-5.1-6.4l-4.4-7.2l-3.5-8.9l-1.5-6.2l0.7-3.5l2-0.6l2.1,1l4.5,14.7l12.3,18.6l8.2,10.6L466.1,426.8z M471.5,542.5l-0.7,1.9
		l-2.3,6.5l-0.3,1l-0.4,0.7h-1l-0.8-2.3l-0.1-2.6l1.8-8.4l3.9-5.3l1.7-0.2l0.5,1.5L471.5,542.5z M480.3,591.4l-0.4,0.1l-0.7-0.3
		l-1.2-1.8l-1.8-3l-0.8-2l-0.5-2.7v-2.5l0.1-1.5l0.4-0.5h0.8l0.8,0.3l1.1,1.3l0.8,2.3l0.5,3l0.1,2.4l0,0.8l0.5,1.2l0.5,2.3
		L480.3,591.4z M443,678.6l-0.7,1.5l-0.9,1.4l-1.5,1l-1.4,0.3h-0.6l-0.7-0.5l-0.2-1.1l0.3-1.3l0.8-1.5l2.1-2.1l1.6-1l1.1-0.1
		l0.6,0.5l0.2,1.1L443,678.6z M456.9,656.3l-0.8,1.1l-1,0.5l-1.2,0.4l-0.9-0.3l-0.5-0.9l0.1-0.9l0.8-1l1.7-1l1.3-0.2l0.6,0.4
		l0.2,0.9L456.9,656.3z M487.7,625.5l-5.2,6.8l-12.9,12.4l-1.5,1l-1-0.1l-0.5-0.7l0.2-1.3l16.8-17.8l1.3-1.4l2-1.3l0.7,0.2l0.6,0.8
		L487.7,625.5z M500.6,615.6l0.9-0.3l1.1,0l0.5,0.3l0.1,0.6l-0.5,0.7l-1,0.9l-0.9,1h-0.6l-0.7-0.4l-0.1-0.9l0.3-0.8L500.6,615.6z
		 M537.8,514.1l-0.2,1.7l-0.5,1.6l-0.3,1.4l-1.1,0.6l-0.9-0.3l-0.5-0.9L534,515l-2.1-2.9l-0.2-2.4l1.2-1.5l1.3-0.4l1.2,0.1l1,0.9
		l1.2,1.5l0.3,1.7V514.1z M600.6,456.4l-0.1,2.4l-3.8,13.5l-4.9,7.9l-8.3,8.8l-2.3,0.6l-1.2-0.6l-0.2-1.6l1-2.2l11-16.7l2.9-7.7
		l1.3-13.8l-1.2-12.6l-0.3-2.4l1.3-1.3l0.8,0.5l0.7,2.1l3.1,13.7V456.4z"/>
</g>
</svg>
