<?xml version="1.0" encoding="utf-8"?>
<!-- Generator: Adobe Illustrator 18.1.0, SVG Export Plug-In . SVG Version: 6.00 Build 0)  -->
<!DOCTYPE svg PUBLIC "-//W3C//DTD SVG 1.1//EN" "http://www.w3.org/Graphics/SVG/1.1/DTD/svg11.dtd">
<svg version="1.1" id="Layer_1" xmlns="http://www.w3.org/2000/svg" xmlns:xlink="http://www.w3.org/1999/xlink" x="0px" y="0px"
	 viewBox="0 0 870.6 870.5" enable-background="new 0 0 870.6 870.5" xml:space="preserve">
<g>
	<path fill="none" d="M261.7,551c-9.6,4.5-17.9,15.7-23.1,22c-5.2,6.3-16.2,28.5-16.2,28.5s-5.7-2.8-12.5-7.1
		c6.8,4.3,12.6,7.2,12.6,7.2s11.1-22.1,16.2-28.5C243.9,566.8,252.2,555.6,261.7,551c0.7-0.2,1.4,0,2,0.7
		C263.1,550.9,262.4,550.7,261.7,551z"/>
	<path fill="none" d="M352.6,778.6c-0.3,0-0.6-0.1-0.9-0.1c-0.3,0.1-0.6,0.1-0.9,0.1c-5.6,0.1-10.8-1.9-15.6-5.5
		c4.9,3.7,10.1,5.7,15.7,5.6c0.3,0,0.6-0.1,0.9-0.1C352.1,778.7,352.4,778.7,352.6,778.6c22,0.4,53.6-31.6,85.2-71.8
		C406.2,746.9,374.6,779,352.6,778.6z"/>
	<path fill="none" d="M608.7,579.3c-17.4,14-39.7,21.6-41.3,22.2c0,0,0,0,0,0S590.7,593.7,608.7,579.3
		c17.6-14.1,29.5-32.4,30.1-33.4c0,0-0.1-0.1-0.1-0.1S626.7,564.8,608.7,579.3z"/>
	<path fill="none" d="M158,560.9c-6.9,9.4-14.5,21.5-14.5,21.5s-9.9-1-18.6-9.9c8.7,9.1,18.7,10,18.7,10S151.1,570.3,158,560.9
		c6.8-8.9,19-14.4,20-14.8c0-0.1,0-0.1,0-0.1S164.9,551.5,158,560.9z"/>
	<path fill="none" d="M695.2,557.5c-18.8,22-38.1,24.6-39.5,24.8c0,0,0,0,0,0S675.7,580.4,695.2,557.5c14.9-15.2,27.8-38,28.3-38.8
		c0,0-0.1,0-0.1,0S710.1,542.1,695.2,557.5z"/>
	<path fill="none" d="M160.3,190.7c-10.6,55,5,94.1,5.1,94.4C165.2,284.8,149.7,245.7,160.3,190.7z"/>
	<path fill="none" d="M791.4,481.4c0,0-0.1,0-0.1-0.1C791.3,481.4,791.4,481.4,791.4,481.4z"/>
	<path fill="none" d="M165.3,285.1L165.3,285.1c0,0-54.6,30-89.6,65.2C110.7,315.1,165.3,285.1,165.3,285.1z"/>
	<path fill="none" d="M51.5,484.2c-6.9,3.9-13.2,8.5-13.2,8.5s-0.5-1.8-1-5c0.6,3.3,1,5.1,1,5.1S44.6,488.1,51.5,484.2
		c6.8-3.6,14.4-6.4,14.6-6.5c0-0.1,0-0.1,0-0.1S58.5,480.4,51.5,484.2z"/>
	<path fill="none" d="M93.7,527.2c-6.2,6-12.9,16.8-12.9,16.8s-1.4-1-3.4-3c2,2,3.5,3.1,3.5,3.1S87.6,533.3,93.7,527.2
		c5.9-5.6,12-8,12.8-8.3c0-0.1,0-0.1,0-0.1S100,521.2,93.7,527.2z"/>
	<path fill="none" d="M532.4,573.2c-0.8,1.2-1.7,2.4-2.6,3.7c-5.8,8.3-12.5,18.2-19.9,29c7.4-10.9,14.2-20.8,20-29.1c0,0,0,0,0,0
		C530.8,575.6,531.6,574.5,532.4,573.2c0.1,0.1,0.3,0.2,0.4,0.2l-2.8,3.9c0,0,0,0,0,0l2.9-4.1C532.8,573.3,532.6,573.2,532.4,573.2
		c9.9-13.7,16.8-22.2,19.6-22.3C549.3,550.8,542.3,559.3,532.4,573.2z"/>
	<path fill="none" d="M778.4,285.1c0,0,34.7-39.2,51-94.4C845.6,135.6,812.6,87,812.6,87s-67,10.3-112,26.2
		c-45,15.8-104.8,54.2-104.8,54.2s-60.7-4.4-94.4-3.8c-33.4-0.6-96.2,3.8-96.2,3.8s-41.1-38.2-78.4-54.2S227.6,87,227.6,87
		s61.9,10.5,99.2,26.3s78.4,54.2,78.4,54.2s62.8-4.4,96.2-3.8c33.7-0.6,94.4,3.8,94.4,3.8s59.8-38.2,104.8-54.2s112-26.2,112-26.2
		s33.1,48.6,16.8,103.7C813.1,246,778.3,285.2,778.4,285.1c-0.1,0.1,71.1,53.3,66,100.8c-2,19-5.8,39.8-13.1,57.9
		c-11.2,27.4-26.8,48.6-26.8,48.6s-0.2-0.3-0.5-0.6c0-0.1-0.2-0.2-0.3-0.3c-1.5-1.5-4.6-4.7-8.4-7.5c-1.2-0.9-2.4-1.7-3.7-2.4
		c1.3,0.8,2.6,1.6,3.8,2.5c3.8,2.9,7,6.1,8.4,7.6c0.1,0.1,0.3,0.2,0.3,0.3c0.2,0.3,0.5,0.6,0.5,0.6s15.6-21.2,26.8-48.6
		c7.4-18.1,11.2-38.9,13.1-57.9C849.5,338.4,778.4,285.1,778.4,285.1z"/>
	<path fill="none" d="M766.9,516.3c-10.3,16.2-28.7,26.8-30,27.5c0,0.1,0,0.1,0,0.1S756.3,533.2,766.9,516.3
		c10.6-16.4,16.8-37.9,17-38.7c-0.1,0-0.1,0-0.1,0S777.5,499.4,766.9,516.3z"/>
	<path fill="none" d="M726.3,520.5c1.3,1,2.9,2.5,4.4,4.5C729.3,523,727.7,521.5,726.3,520.5z"/>
	<path fill="none" d="M532.4,573.3c-0.8,1.1-1.6,2.3-2.5,3.5c0,0.1,0.1,0.3,0.1,0.5l2.8-3.9C532.7,573.4,532.5,573.3,532.4,573.3z"
		/>
	<path fill="none" d="M726.9,317.4c-4.2,0-14.6,8.5-30.4,15.4c-8.2,3.7-41.1,8-76.4,6.6c-34.1-1.4-63.1-3.7-83.5,9.4
		c-20.4,13.1-29.1,29.5-33.6,42.1c-4.5,12.6-29.3,110.8-29.3,110.8h25.7c0,0,10-43,24.4-71.5c14.3-28.5,35.9-40.9,35.9-40.9
		s3.9,5.2,8.2,6.6c4.4,1.4,9.8,0.5,9.8,0.5s6.4-10.8,11.2-16.8c4.8-6.1,5.2-6.1,10.4-6.1c5.2,0,2.9,18.7,10.7,21.5
		c7.8,2.8,12.3,0.9,14.9,0c2.5-0.9,21.7-10.8,29.6-12.1c7.8-1.4,38.9-4.7,47.6-7.5c8.7-2.8,16.7-7.1,26-12.6
		c9.4-5.6,13.2-12.1,14.6-17.7c1.4-5.6-0.6-13-4-18.2C735.3,321.6,731.1,317.4,726.9,317.4z"/>
	<path fill="none" d="M803.7,491.5c0.1,0.1,0.3,0.2,0.3,0.3c0.3,0.3,0.5,0.6,0.5,0.6s15.6-21.2,26.8-48.6
		c7.4-18.1,11.2-38.9,13.1-57.9c5.1-47.5-66.1-100.7-66.1-100.7s34.7-39.2,51-94.4c16.2-55.2-16.8-103.7-16.8-103.7
		s-67,10.3-112,26.2s-104.8,54.2-104.8,54.2s-60.7-4.4-94.4-3.8c-33.4-0.6-96.2,3.8-96.2,3.8s-41.1-38.3-78.4-54.2
		S227.6,87,227.6,87s-56.6,48.6-67.3,103.7c-10.5,55,5,94.1,5.1,94.4c0,0,0,0,0,0l0,0v0c0,0-54.6,30-89.6,65.2
		c-11.6,11.7-21.1,24-25.6,36c-7.3,19-13.6,39.8-15,57.9c-1.5,19.4,0.7,35.6,2.1,43.5c0.6,3.2,1,5,1,5s6.4-4.6,13.2-8.5
		c7-3.8,14.6-6.6,14.6-6.6s0,0,0,0.1c0,0,0,0,0,0s-4.4,22-1.9,38.8c1.6,11.5,8.8,20.2,13.2,24.5c2,1.9,3.4,3,3.4,3
		s6.8-10.9,12.9-16.8c6.3-6,12.7-8.5,12.7-8.5s0,0.1,0,0.1c0.1,0,0.1,0,0.1,0s1.8,23.4,9.3,38.8c2.4,6.4,5.6,11.2,9,14.8
		c8.7,9,18.6,9.9,18.6,9.9s7.7-12.1,14.5-21.5c7-9.4,20-14.9,20-14.9s0,0.1,0,0.1c0,0,0.1,0,0.1,0s4.1,19.8,12.3,31.8
		c4.2,6,12.4,12.1,19.5,16.6c6.8,4.3,12.5,7.1,12.5,7.1s11.1-22.2,16.2-28.5c5.2-6.3,13.5-17.5,23.1-22c0.7-0.3,1.4-0.1,2,0.7
		c12.4,12.3,27,187.6,71.5,221.4c4.8,3.6,10,5.6,15.6,5.5c0.3,0,0.6,0,0.9-0.1c0.3,0,0.6,0.1,0.9,0.1c22,0.4,53.6-31.7,85.2-71.8
		c25.7-32.6,51.4-70.6,72-100.9c7.4-10.9,14.1-20.7,19.9-29c-0.1-2.6,0.5-4,2.6-3.7c9.9-13.9,16.9-22.5,19.6-22.3
		c0.2,0,0.4,0,0.5,0.1c8.2,4.6,10.5,16.2,12.4,22c2,5.6,2.4,27.7,2.4,28.4c1.6-0.5,23.9-8.2,41.3-22.2c18-14.4,30.1-33.5,30.1-33.5
		s0,0,0.1,0.1c0,0,0-0.1,0-0.1s9.9,7.2,12.7,14.9c2.8,7.7,4.1,21.3,4.1,21.5c1.5-0.2,20.8-2.8,39.5-24.8
		c14.9-15.4,28.2-38.8,28.2-38.8s0,0,0.1,0c0,0,0,0,0,0s1.2,0.6,2.9,1.8c1.3,1,3,2.5,4.4,4.5c0.5,0.7,1,1.4,1.4,2.1
		c3.2,5.6,4.6,15.4,4.8,16.7c1.3-0.7,19.7-11.3,30-27.5c10.7-16.8,16.9-38.7,16.9-38.7s0,0,0.1,0c0,0,0,0,0,0s3.5,1.5,7.4,3.8
		c0,0,0.1,0,0.1,0.1c0.1,0.1,0.2,0.1,0.3,0.2c1.2,0.7,2.5,1.5,3.7,2.4C799.1,486.8,802.2,490,803.7,491.5z M762.3,441
		c-8.8,5.3-19,36-19,36s-25.8-6.9-39.6,1.4c-13.8,8.3-24.8,44.4-24.8,44.4s-9-24.8-32.6-20.1c-23.5,4.7-47.4,35.5-47.4,35.5
		s-11.9-37.3-42.4-34.7c-30.7,2.8-39.4,15.8-43.9,21c-2.1,2.4-53.2,87-64.9,103.7c-11.7,16.8-71.6,108.4-85,108.3
		c-13.5-0.2-28.8-91.6-32.4-108.3c-3.6-16.7-12.6-98.2-14.5-103.7c-1.9-5.6-4.5-18.2-33.7-21c-29.2-2.9-59.3,34.5-59.3,34.5
		s-8.9-30.9-30.2-35.5c-21.3-4.7-42.3,20.1-42.3,20.1s5.2-34.5-3.2-44.4c-8.4-9.9-38.9-1.4-38.9-1.4s3-31.3-1.5-35.9
		c-4.5-4.7-26.3,0.5-26.3,0.5s0.2-25.7,24.8-63.5c24.7-37.8,107.5-86.4,107.5-86.4s-14.6-61.2-9.2-102.8s36.9-67.3,36.9-67.3
		s24.6-1.4,60,18.2c35.4,19.6,86.1,66.8,86.1,66.8s44.3-5.2,80.4-7.2c3.3-0.3,25.7-0.8,26.4-0.8s22.9,0.5,26,0.8
		c35.1,2.1,77.1,7.2,77.1,7.2s73.6-47.2,118.6-66.8c44.9-19.6,68.9-18.2,68.9-18.2s18.9,25.7,4.2,67.3
		C773.3,230.2,729,291.5,729,291.5s59.2,48.6,65.4,86.4c6.3,37.9-6.1,63.6-6.1,63.6S771.1,435.8,762.3,441z"/>
	<path fill="none" d="M374.4,349.2c-14.1-13.1-44.1-10.8-79-9.4c-35.9,1.4-66.7-2.9-73.2-6.6c-12.3-7.1-18.7-15.4-22.9-15.4
		c-4.1,0-10.4,4.2-16.2,9.4c-5.9,5.2-11.4,12.6-12.8,18.2c-1.4,5.6-0.6,12.1,6,17.7c6.6,5.7,12.5,9.9,19.8,12.6
		c7.3,2.8,36.8,6.1,44,7.5s21.6,11.3,23.7,12.1c2.1,0.9,5.9,2.8,14.9,0c9.1-2.8,15.9-21.5,21.1-21.5c5.2,0,5.7,0,7.5,6.1
		c1.8,6.1,2.9,16.8,2.9,16.8s5,0.9,10-0.5c5.1-1.4,11.4-6.6,11.4-6.6s15.7,12.1,16.2,40.6c0.6,28.5-10.4,71.5-10.4,71.5h25.7
		c0,0,22.9-98.2,24.6-110.8C389.3,378.4,388.6,362,374.4,349.2z"/>
	<path fill="#231F20" d="M794.4,377.9c-6.2-37.8-65.4-86.4-65.4-86.4s44.3-61.2,59.1-102.8c14.7-41.6-4.2-67.3-4.2-67.3
		s-24-1.4-68.9,18.2c-45,19.6-118.6,66.8-118.6,66.8s-41.9-5.1-77.1-7.2c-3.1-0.3-25.3-0.8-26-0.8s-23.1,0.5-26.4,0.8
		c-36.1,2-80.4,7.2-80.4,7.2s-50.7-47.2-86.1-66.8c-35.4-19.6-60-18.2-60-18.2S209,147,203.6,188.6s9.2,102.8,9.2,102.8
		s-82.8,48.6-107.5,86.4c-24.6,37.8-24.8,63.5-24.8,63.5s21.8-5.2,26.3-0.5c4.5,4.7,1.5,35.9,1.5,35.9s30.6-8.5,38.9,1.4
		c8.4,9.9,3.2,44.4,3.2,44.4s21-24.8,42.3-20.1c21.3,4.7,30.2,35.5,30.2,35.5s30.2-37.4,59.3-34.5c29.2,2.8,31.8,15.4,33.7,21
		c1.9,5.6,11,87,14.5,103.7c3.6,16.7,18.8,108.1,32.4,108.3c13.4,0.1,73.3-91.5,85-108.3c11.7-16.7,62.8-101.4,64.9-103.7
		c4.5-5.2,13.2-18.2,43.9-21c30.5-2.6,42.4,34.7,42.4,34.7s23.9-30.9,47.4-35.5c23.6-4.7,32.6,20.1,32.6,20.1s11-36.1,24.8-44.4
		c13.8-8.3,39.6-1.4,39.6-1.4s10.3-30.8,19-36c8.9-5.2,26.1,0.5,26.1,0.5S800.7,415.8,794.4,377.9z M387.6,391
		c-1.7,12.6-24.6,110.8-24.6,110.8h-25.7c0,0,11-43,10.4-71.5c-0.5-28.5-16.2-40.6-16.2-40.6s-6.4,5.2-11.4,6.6
		c-5,1.4-10,0.5-10,0.5S309,386,307.2,380c-1.8-6.1-2.3-6.1-7.5-6.1c-5.2,0-12,18.7-21.1,21.5c-9.1,2.8-12.8,0.9-14.9,0
		c-2.1-0.9-16.5-10.8-23.7-12.1s-36.7-4.7-44-7.5c-7.3-2.8-13.2-7-19.8-12.6c-6.6-5.6-7.4-12.1-6-17.7c1.4-5.6,7-13,12.8-18.2
		c5.9-5.2,12.1-9.4,16.2-9.4c4.2,0,10.6,8.4,22.9,15.4c6.5,3.7,37.2,8,73.2,6.6c34.9-1.4,64.9-3.8,79,9.4
		C388.6,362,389.3,378.4,387.6,391z M742.7,345c-1.4,5.6-5.3,12.1-14.6,17.7c-9.3,5.6-17.3,9.9-26,12.6c-8.7,2.8-39.8,6.1-47.6,7.5
		c-7.9,1.4-27.1,11.3-29.6,12.1c-2.6,0.9-7.2,2.8-14.9,0c-7.8-2.8-5.5-21.5-10.7-21.5c-5.2,0-5.6,0-10.4,6.1
		c-4.8,6.1-11.2,16.8-11.2,16.8s-5.4,0.9-9.8-0.5c-4.3-1.4-8.2-6.6-8.2-6.6s-21.6,12.4-35.9,40.9c-14.4,28.5-24.4,71.5-24.4,71.5
		h-25.7c0,0,24.8-98.2,29.3-110.8c4.5-12.6,13.1-29,33.6-42.1c20.4-13,49.4-10.8,83.5-9.4c35.2,1.4,68.2-2.9,76.4-6.6
		c15.7-7,26.2-15.4,30.4-15.4c4.2,0,8.4,4.2,11.7,9.4C742.1,332,744.1,339.4,742.7,345z"/>
	<path fill="#231F20" d="M529.8,576.9c0.9-1.3,1.8-2.5,2.6-3.7C530.3,572.9,529.7,574.3,529.8,576.9z"/>
	<path fill="#231F20" d="M815.1,281.1c0,0,32-82.3,28.9-135.9c-3.1-53.5-27.2-84.5-29.5-85.3c-0.1,0,0-0.2,0-0.4
		c-3.1-0.5-6.3-0.6-9.4,0.1c-11.3,1.8-72.5,12-115.2,27.1c-37.6,13.3-84.2,40.8-102.5,52.1c-18.2-1.2-60-3.7-87.3-3.2
		c-26-0.4-66.6,1.8-86.4,3.1c-15.2-13-47-38.3-77.3-51.3C295.9,70,231,59.4,230.8,59.3c-7.5-1.3-14.5,0.6-20.3,4.6
		c-12.1,14.5-6.6,30.3-6.6,30.3s-24.1,22.3-50.5,71.5c-26.4,49.2-7.2,115.5-7.2,115.5s-44.5,10.4-86,44.4c-5.1,4.2-10.2,8.7-15,13.5
		c-3.1,3.1-5.9,6.3-8.5,9.6C5.1,388.2,3.9,441.9,4.1,454.2c0.4-0.3,0.8-0.5,1.1-0.8c-0.5,26.1,4.3,45.5,4.3,45.5
		c2.9,12.3,13.5,20.9,25.6,21.6c4.2,28.2,27.1,45.5,27.2,45.6c8,6.3,18.3,7.5,27.2,4.1c15.2,36.5,49.9,39.9,50,39.9
		c10.9,1.1,20.8-4.2,26.3-12.7l1.5-2.4l0.1,0.1c10.5,12.8,39.3,30.3,39.4,30.3c13.2,8,30.5,3.7,38.4-9.6c0.9-1.4,1.6-2.9,2.2-4.4
		c0.3-0.7,0.7-1.5,1.2-2.5l0.9,4.8c14.9,76.8,37.6,193.7,100.5,192.7h0.3h0.3c0.5,0,1.1,0,1.6,0c0.5,0,1.1,0,1.6,0
		c52.7-2.8,123.9-105.5,172.4-176.8l14.7-16.2c4.4,9.2,13.6,15.7,24.5,15.9c4.4,0.1,8.6-0.8,12.2-2.6c0.1,0,34.9-16.2,49-27.2
		c1.2-0.9,2.4-1.9,3.7-3c5.4,9,15.6,14.4,26.6,13.3c0,0,0.5,0,1.3-0.2c0.4-0.1,0.9-0.1,1.3-0.2c4.4-0.8,13.9-3.1,25.4-9.3
		c0,0,23.7-14.9,35.1-26.2c1.2-1.2,2.4-2.3,3.3-3.4c0.6-0.8,1.7-1.8,2.6-2.8c11.5-2.9,30.7-13.1,56.7-44.6
		c5.2,0.4,13.6-1.4,27.5-8.5c33.1-16.8,52-80.1,55.7-93.3c0.2-0.3,0.3-0.7,0.5-1.1l-0.2,0.2c0,0,0,0,0-0.1c0.3-0.9,0.4-1.6,0.4-1.6
		h-0.1c2.1-10.2,3.6-20.3,4.7-30.2c0-0.5,0.1-1,0.1-1.6C874.6,345.4,839,304,815.1,281.1z M717.9,564.9l-1.3-18.2l8.3-10.1l9.2,10.1
		l1.2,8.9L717.9,564.9z M844.5,386c-2,19-5.8,39.8-13.1,57.9c-11.2,27.4-26.8,48.6-26.8,48.6s-0.3-0.3-0.5-0.6
		c0-0.1-0.2-0.2-0.3-0.3c-1.4-1.5-4.6-4.7-8.4-7.6c-1.2-0.9-2.5-1.7-3.8-2.5c-0.1-0.1-0.2-0.1-0.3-0.2c0,0-0.1,0-0.1-0.1
		c-3.6-2.1-6.8-3.5-7.4-3.8c-0.2,0.8-6.5,22.3-16.9,38.8c-10.7,16.8-30.1,27.6-30.1,27.6s0-0.1,0-0.1c0,0-0.1,0-0.1,0
		S735.4,533,732,527c-0.4-0.7-0.8-1.4-1.3-2c-1.5-2-3.1-3.4-4.4-4.5c-1.5-1.1-2.6-1.7-2.9-1.8c-0.4,0.8-13.4,23.6-28.2,38.8
		c-19.6,22.9-39.6,24.8-39.6,24.8s0,0,0,0c-0.1,0-0.1,0-0.1,0s-1.3-13.7-4.1-21.5c-2.8-7.3-11.8-14.3-12.7-14.9
		c-0.7,1-12.5,19.3-30,33.4c-18,14.4-41.4,22.2-41.4,22.2s0,0,0,0c-0.1,0-0.1,0-0.1,0s-0.4-22.7-2.4-28.5c-2-5.8-4.3-17.4-12.4-22
		c-0.1-0.1-0.3-0.1-0.4-0.1c-2.8,0.1-9.6,8.6-19.5,22.3c0.1,0,0.3,0.1,0.4,0.1l-2.9,4.1c0,0,0,0,0,0l-0.1,0.1c0-0.2,0-0.4-0.1-0.5
		c0-0.1,0.1-0.1,0.1-0.2c0,0,0,0,0,0c-5.9,8.3-12.6,18.2-20,29.1c-20.6,30.3-46.3,68.3-72,100.9c-31.6,40.2-63.2,72.2-85.1,71.9
		c-0.3,0-0.6,0-0.9-0.1c-0.3,0-0.6,0.1-0.9,0.1c-5.6,0.1-10.8-1.9-15.7-5.6c-44.4-33.5-59.1-208.2-71.5-221.4
		c-0.7-0.6-1.3-0.9-1.9-0.6c-9.6,4.5-17.9,15.7-23.1,22c-5.2,6.4-16.2,28.5-16.2,28.5s-5.7-2.9-12.6-7.2
		c-7.1-4.5-15.4-10.6-19.6-16.7c-7.9-11.3-12-30-12.3-31.6c-1,0.4-13.3,5.9-19.9,14.9c-7,9.4-14.5,21.5-14.5,21.5s-9.9-1-18.7-10
		c-3.4-3.6-6.7-8.4-9.1-14.9c-7.2-14.8-9.1-36.9-9.2-38.7c-0.8,0.3-6.9,2.8-12.7,8.4c-6.3,6-12.9,16.8-12.9,16.8s-1.4-1.1-3.5-3.1
		c-4.4-4.3-11.6-13-13.3-24.6c-2.3-16.2,1.7-37.1,2-38.7c-0.2,0.1-7.8,2.8-14.6,6.6c-7,3.8-13.2,8.5-13.2,8.5s-0.5-1.8-1-5.1
		c-1.4-7.8-3.7-24.2-2.1-43.6c1.4-18.1,7.8-38.9,15-57.9c4.5-11.9,14-24.2,25.6-35.9c34.9-35.2,89.6-65.2,89.6-65.2c0,0,0,0,0,0
		c-0.1-0.2-15.7-39.4-5.1-94.4C170.9,135.6,227.6,87,227.6,87s62,10.3,99.3,26.2s78.4,54.2,78.4,54.2s62.8-4.4,96.2-3.8
		c33.7-0.6,94.4,3.8,94.4,3.8s59.8-38.3,104.8-54.2c45-15.9,112-26.2,112-26.2s33.1,48.6,16.8,103.7c-16.2,55.2-51,94.4-51,94.4
		S849.5,338.4,844.5,386z"/>
	<polygon fill="#231F20" points="724.9,536.7 716.6,546.7 717.9,564.9 735.2,555.6 734,546.7 	"/>
	<path fill="#231F20" d="M529.8,577c0.1,0.1,0.1,0.3,0.1,0.5l0.1-0.1c0-0.2-0.1-0.4-0.1-0.5C529.9,576.9,529.9,576.9,529.8,577z"/>
	<polygon fill="#231F20" points="165.3,285.1 165.3,285.1 165.3,285.1 	"/>
	<path fill="#231F20" d="M730.7,525c0.5,0.6,0.9,1.3,1.3,2c3.4,6,4.8,16.8,4.8,16.8s0,0,0.1,0c-0.2-1.3-1.6-11.1-4.8-16.7
		C731.7,526.3,731.2,525.6,730.7,525z"/>
	<path fill="#231F20" d="M509.9,605.9c-20.6,30.3-46.4,68.3-72,100.9C463.6,674.2,489.3,636.2,509.9,605.9z"/>
	<path fill="#231F20" d="M791.7,481.6c-0.1-0.1-0.2-0.1-0.3-0.2C791.5,481.5,791.6,481.5,791.7,481.6z"/>
	<path fill="#231F20" d="M638.8,545.8C638.8,545.8,638.8,545.9,638.8,545.8c0.8,0.7,9.9,7.6,12.6,14.9c2.8,7.8,4.1,21.5,4.1,21.5
		s0,0,0.1,0c0-0.2-1.3-13.8-4.1-21.5C648.7,553,638.8,545.8,638.8,545.8z"/>
	<path fill="#231F20" d="M35.1,444.2c1.4-18.1,7.8-38.9,15-57.9c4.5-12,14-24.3,25.6-36c-11.6,11.7-21.1,24-25.6,35.9
		C42.9,405.2,36.5,426,35.1,444.2c-1.6,19.4,0.7,35.7,2.1,43.5C35.8,479.8,33.6,463.6,35.1,444.2z"/>
	<path fill="#231F20" d="M723.4,518.7c0.3,0.1,1.4,0.7,2.9,1.8C724.7,519.2,723.5,518.7,723.4,518.7
		C723.5,518.7,723.4,518.7,723.4,518.7z"/>
	<path fill="#231F20" d="M190.4,577.8c-8.3-11.9-12.3-31.8-12.3-31.8s0,0-0.1,0C178.4,547.7,182.4,566.4,190.4,577.8
		c4.1,6,12.4,12.1,19.5,16.6C202.9,589.9,194.6,583.8,190.4,577.8z"/>
	<path fill="#231F20" d="M783.9,477.6c0.6,0.2,3.8,1.7,7.4,3.8C787.4,479,783.9,477.5,783.9,477.6
		C783.9,477.5,783.9,477.6,783.9,477.6z"/>
	<path fill="#231F20" d="M263.7,551.7c12.4,13.2,27,187.9,71.5,221.4C290.7,739.2,276.2,564,263.7,551.7z"/>
	<path fill="#231F20" d="M552.5,551c-0.2-0.1-0.3-0.1-0.5-0.1C552.1,550.9,552.3,550.9,552.5,551c8.1,4.6,10.4,16.2,12.3,22
		c2,5.8,2.4,28.5,2.4,28.5s0,0,0.1,0c0-0.7-0.4-22.9-2.4-28.4C563,567.2,560.7,555.6,552.5,551z"/>
	<path fill="#231F20" d="M66.2,477.7C66.2,477.7,66.2,477.7,66.2,477.7c-0.3,1.6-4.3,22.6-2,38.7c1.6,11.6,8.9,20.3,13.3,24.6
		c-4.4-4.3-11.5-13-13.2-24.5C61.8,499.7,66.2,477.7,66.2,477.7z"/>
	<path fill="#231F20" d="M106.6,518.9C106.6,518.9,106.6,518.9,106.6,518.9c0.1,1.8,2,23.9,9.2,38.7c2.4,6.5,5.7,11.3,9.1,14.9
		c-3.4-3.5-6.6-8.3-9-14.8C108.4,542.2,106.6,518.9,106.6,518.9z"/>
</g>
</svg>
