<?xml version="1.0" encoding="utf-8"?>
<!-- Generator: Adobe Illustrator 18.1.0, SVG Export Plug-In . SVG Version: 6.00 Build 0)  -->
<!DOCTYPE svg PUBLIC "-//W3C//DTD SVG 1.1//EN" "http://www.w3.org/Graphics/SVG/1.1/DTD/svg11.dtd">
<svg version="1.1" id="Layer_1" xmlns="http://www.w3.org/2000/svg" xmlns:xlink="http://www.w3.org/1999/xlink" x="0px" y="0px"
	 viewBox="0 0 870.6 870.5" enable-background="new 0 0 870.6 870.5" xml:space="preserve">
<g>
	<polygon fill-rule="evenodd" clip-rule="evenodd" fill="#ED1F24" points="607,239.6 607,509.6 705,509.6 705,239.6 607,239.6 
		607,239.6 	"/>
	<path fill-rule="evenodd" clip-rule="evenodd" fill="#ED1F24" d="M579.5,239.6h-97.9v192.7l0,0c0,47.4-7.1,104.1-85.7,104.1l0,0
		H33.7l117.3,101h276.5l0,0c103-2.1,152-97.9,152-153.5l0,0V239.6L579.5,239.6L579.5,239.6z"/>
	<path fill-rule="evenodd" clip-rule="evenodd" fill="#ED1F24" d="M731.5,216.7V665H180.1l170.4,145.3h465.2l0,0
		c37.7,0,58.2-25.8,58.2-56.7l0,0V340.3L731.5,216.7L731.5,216.7L731.5,216.7z"/>
	<path fill-rule="evenodd" clip-rule="evenodd" fill="#ED1F24" d="M197.9,444.7v-102h-40.8v166.9H0V128.3l0,0
		c0-19.6,22.4-68,65.3-68l0,0h482.6l176.5,150.5H197.9l0,0c-15.3,0-41.8-1-41.8,28.9l0,0h139.8v158.7l0,0c0,40.2,59.2,40.2,59.2-1
		l0,0V239.6H453v208.2l0,0c0,42.3-19.4,61.8-58.2,61.8l0,0H258.1l0,0C220.4,509.6,197.9,490,197.9,444.7L197.9,444.7L197.9,444.7
		L197.9,444.7z"/>
</g>
</svg>
