<?xml version="1.0" encoding="utf-8"?>
<!-- Generator: Adobe Illustrator 18.1.0, SVG Export Plug-In . SVG Version: 6.00 Build 0)  -->
<!DOCTYPE svg PUBLIC "-//W3C//DTD SVG 1.1//EN" "http://www.w3.org/Graphics/SVG/1.1/DTD/svg11.dtd">
<svg version="1.1" id="Layer_1" xmlns="http://www.w3.org/2000/svg" xmlns:xlink="http://www.w3.org/1999/xlink" x="0px" y="0px"
	 viewBox="0 0 870.6 870.5" enable-background="new 0 0 870.6 870.5" xml:space="preserve">
<path fill-rule="evenodd" clip-rule="evenodd" fill="#FFDF1C" d="M133.5,236.3l-1.6,4.7l35.9,59.3l4.7,1.6l112.3-65.5l1.6-4.7
	c-10.9-26.5-1.6-56.2,3.1-82.7C233.3,178.6,181.8,209.8,133.5,236.3L133.5,236.3z"/>
<path fill-rule="evenodd" clip-rule="evenodd" fill="#FFDF1C" d="M216.2,308.1c26.5,1.6,51.5,6.2,78,3.1c1.6-15.6,4.7-35.9,7.8-51.5
	C272.3,272.2,244.2,290.9,216.2,308.1L216.2,308.1z"/>
<path fill-rule="evenodd" clip-rule="evenodd" fill="#FFDF1C" d="M186.5,329.9c1.6,18.7-1.6,40.6-4.7,59.3
	c29.6-12.5,60.8-31.2,92-48.4L186.5,329.9L186.5,329.9z"/>
<path fill-rule="evenodd" clip-rule="evenodd" fill="#FFDF1C" d="M191.2,417.2c21.8,49.9,49.9,98.3,73.3,146.6h4.7
	c49.9-46.8,107.6-84.2,162.2-118.5l-32.8-56.1c-14,12.5-28.1,39-48.4,46.8c-23.4-21.8-39-46.8-46.8-76.4
	C264.5,378.2,227.1,395.4,191.2,417.2L191.2,417.2z"/>
<path fill-rule="evenodd" clip-rule="evenodd" fill="#FFDF1C" d="M166.2,436c-32.8,60.8-57.7,126.3-78,193.4
	c-17.2,34.3-46.8,62.4-71.7,92c-7.8,9.4-15.6,20.3-10.9,34.3c1.6,4.7,4.7,10.9,10.9,9.4c93.6-28.1,160.7-110.7,229.3-180.9
	c-21.8-49.9-49.9-96.7-73.3-145.1L166.2,436L166.2,436z"/>
<path fill-rule="evenodd" clip-rule="evenodd" fill="#FFDF1C" d="M443.9,465.6L369,513.9C258.3,585.7,186.5,707.4,69.5,766.6
	c-15.6,7.8-32.8,12.5-46.8,23.4c4.7,6.2,4.7,15.6,14,14c46.8-18.7,90.5-45.2,129.5-78c88.9-84.2,182.5-185.6,290.1-244.9
	C453.2,475,448.6,468.7,443.9,465.6L443.9,465.6z"/>
<path fill-rule="evenodd" clip-rule="evenodd" fill="#FFDF1C" d="M869.7,66.3c0,26.5-18.7,48.4-39,64
	c-68.6,39-162.2,26.5-241.8,18.7c-1.6,1.6-3.1,1.6-4.7,4.7c6.2,12.5,23.4,15.6,39,20.3c-18.7,20.3-45.2,23.4-73.3,21.8
	c4.7,6.2,12.5,10.9,23.4,12.5c4.7,6.2-15.6,12.5-23.4,14c-21.8,9.4-46.8,3.1-65.5-3.1c-9.4,10.9,1.6,26.5-4.7,42.1
	c-3.1,10.9-7.8,26.5-15.6,34.3c-10.9-1.6-21.8-23.4-25-9.4c1.6,18.7-6.2,32.8-12.5,46.8c-14,3.1-26.5-39-32.7-6.2
	c-6.2,23.4-18.7,45.2-32.8,62.4c-10.9-1.6-17.2-14-21.8-23.4c-17.2-32.8-12.5-76.4-7.8-110.7c-23.4-29.6-26.5-78-10.9-112.3
	c40.6-79.5,137.3-68.6,215.3-68.6C645.1,85,765.2,89.7,869.7,66.3L869.7,66.3z M464.2,108.4c-6.2,6.2-10.9,12.5-18.7,17.2
	c-9.4,4.7-23.4-6.2-29.6,4.7c-6.2,18.7-25,20.3-39,21.8c3.1,9.4,15.6,10.9,25,12.5c14,1.6,26.5-4.7,34.3-14
	c17.2,4.7,31.2-6.2,40.6-20.3c10.9,0,20.3-1.6,28.1-7.8c1.6-3.1,6.2-9.4,0-10.9C490.7,114.6,476.6,110,464.2,108.4L464.2,108.4z
	 M342.5,203.5c-7.8,17.2,21.8,14,20.3,32.8c3.1,7.8,12.5,14,20.3,12.5v-4.7c-1.6-1.6-6.2-25-7.8-34.3
	C362.8,209.8,353.4,205.1,342.5,203.5L342.5,203.5z"/>
</svg>
