<?xml version="1.0" encoding="utf-8"?>
<!-- Generator: Adobe Illustrator 18.1.0, SVG Export Plug-In . SVG Version: 6.00 Build 0)  -->
<!DOCTYPE svg PUBLIC "-//W3C//DTD SVG 1.1//EN" "http://www.w3.org/Graphics/SVG/1.1/DTD/svg11.dtd">
<svg version="1.1" id="Layer_1" xmlns="http://www.w3.org/2000/svg" xmlns:xlink="http://www.w3.org/1999/xlink" x="0px" y="0px"
	 viewBox="0 0 870.6 870.5" enable-background="new 0 0 870.6 870.5" xml:space="preserve">
<g>
	<path fill-rule="evenodd" clip-rule="evenodd" fill="#F37E20" d="M343.7,70.2c69.8-5.2,148.7-2.3,229.1-2.3
		c72.1,0,167.3-10.4,217.4,9.4c44.7,17.6,79.9,55.6,72.5,121.6c-3.7,33.1-26.1,68.2-37.4,95.9c-37.6,91.4-81,196-116.9,282.9
		C653.1,711.4,527.5,817,339,804.3c-102.2-6.9-183.5-57.4-238.5-114.6C42.8,629.7,0,547.4,0,437.3c0-105.6,44.1-191.7,100.5-252.5
		C155.8,125.3,235.8,78.2,343.7,70.2z M773.8,159.1c6.3-65.7-97.1-71.8-95.9-2.3c11.7,0,23.4,0,35.1,0c-5.3-30.4,23.8-29.7,28.1-9.4
		c9,43.2-79.8,78.4-65.5,130.9c33.6-0.1,67.7-0.7,98.2,2.3c3.7-5.4,3.7-22.7,0-28.1c-20.3,0-40.5,0-60.8,0
		C730.3,226.5,770,198.8,773.8,159.1z M154.3,226.9c-43.7,44.7-77.8,99.2-84.2,177.7C58.2,552.2,134.3,646,215.1,694.5
		c83.8,50.2,201.1,57.8,294.6,7c85.9-46.6,138.6-121.2,154.3-215.1c19.2-114.9-33.8-219.7-91.2-271.2
		c-52.2-46.9-129.6-86.7-240.8-74.8C252.3,148.9,195,185.2,154.3,226.9z"/>
	<path fill-rule="evenodd" clip-rule="evenodd" fill="#F37E20" d="M268.9,217.5c35.8,0,71.7,0,107.5,0
		c37.8,110.3,83.8,212.3,121.6,322.6c20.2-4.7,38.5-11.4,56.1-18.7c11.2,16.9,12.9,43.2,23.4,60.8c-37.3,18.1-82,28.7-126.3,39.7
		c-21.8-67-49.4-128.3-72.5-194c-41.6,56.6-76.4,120-116.9,177.7c-26.5,0-53,0-79.5,0c-0.7-11.1,8.1-22.9,14-32.7
		c45.9-76.2,98.8-162.1,144.9-240.8c-4-19.3-13.5-33.2-18.7-51.4c-17.9,0-35.8,0-53.8,0C268.9,259.6,268.9,238.6,268.9,217.5z"/>
</g>
</svg>
