<?xml version="1.0" encoding="utf-8"?>
<!-- Generator: Adobe Illustrator 18.1.0, SVG Export Plug-In . SVG Version: 6.00 Build 0)  -->
<!DOCTYPE svg PUBLIC "-//W3C//DTD SVG 1.1//EN" "http://www.w3.org/Graphics/SVG/1.1/DTD/svg11.dtd">
<svg version="1.1" id="Layer_1" xmlns="http://www.w3.org/2000/svg" xmlns:xlink="http://www.w3.org/1999/xlink" x="0px" y="0px"
	 viewBox="0 0 870.6 870.5" enable-background="new 0 0 870.6 870.5" xml:space="preserve">
<path fill="#E21F26" d="M866.5,481.4c2-16.9,3.1-34,3.1-51.4c0-15.1-0.8-30-2.3-44.7c-22.3,63.4-65.6,115-120,148.5
	c58.6-49.8,99.7-120.4,111.1-201.9c-8.5-36.2-21.5-70.7-38.5-102.8c0.6,13.8,0.4,27.8-0.7,41.9c-7.3,91.1-50.8,170.5-115.1,224.9
	c60.3-59.2,97.6-141.8,97.1-233c-0.2-28.3-4-55.8-10.9-81.9C712.3,71.5,584.3,0,439.6,0C294.9,0,166.9,71.5,89,181
	C82,207.2,78.2,234.6,78,263c-0.5,91.2,36.8,173.8,97.1,233C110.8,441.5,67.3,362.1,60,271c-1.1-14.1-1.3-28.1-0.7-41.9
	c-17,32.1-30,66.5-38.5,102.8c11.4,81.5,52.4,152.2,111.1,201.9c-54.5-33.5-97.7-85.1-120-148.5C10.4,400,9.6,414.9,9.6,430
	c0,17.4,1.1,34.6,3.1,51.4c20.8,42.1,50.5,78.8,86.2,107.8c-29.1-16.1-55.6-36.9-78.2-61.8C64.9,718,235.6,860,439.6,860
	c203.9,0,374.7-142,418.9-332.5c-22.6,24.8-49.1,45.7-78.2,61.8C816,560.2,845.6,523.5,866.5,481.4z M160.9,290.1
	c0-153.9,124.8-278.7,278.7-278.7s278.7,124.8,278.7,278.7c0,58.7-18.2,113.1-49.1,158l-0.5-0.2c-164.8,211.1-419.2-39.5-57.8-243.8
	c-19.3-12.5-61.7-80-109.9-80c-30.8,0-65.5,20.2-73.2,37.6L209,183.9l235.2,12.5c25.1,1.9,38.5,13.5,38.5,33.7s-32.8,43.4-54.9,60.7
	C408.1,306.3,294.3,402.3,309,536.4c1.9,17.5,6,35.6,12.8,54.3c-14.5-12.9-24.9-35.5-31-64.8c-9.3-5.9-18.1-12.2-26.6-19.1
	C201.1,455.6,160.9,377.6,160.9,290.1z"/>
<g>
	<path fill="#FFFFFF" d="M250.9,718.2c10.7,2.7,17.2,2.2,29.3,2.2c8.8,0,23.9-9,31-28.6l27.6-70.3h54.8l-25,69.6
		c-10.9,30.3-25.5,58.7-83.5,58.7c-15.9,0-43.7-2.7-43.7-2.7L250.9,718.2z"/>
	<path fill="#FFFFFF" d="M453.1,621.5h73.5l13.5,123.1H482l-2.1-20.5h-55.1L408,744.6h-61.4L453.1,621.5z M476.9,697.2l1.2-35.3
		l-31.3,35.3H476.9z"/>
	<path fill="#FFFFFF" d="M601,621.5h58.6l-31.5,96.9h71.6l-8.9,26.2h-134L601,621.5z"/>
</g>
</svg>
