<?xml version="1.0" encoding="utf-8"?>
<!-- Generator: Adobe Illustrator 18.1.0, SVG Export Plug-In . SVG Version: 6.00 Build 0)  -->
<!DOCTYPE svg PUBLIC "-//W3C//DTD SVG 1.1//EN" "http://www.w3.org/Graphics/SVG/1.1/DTD/svg11.dtd">
<svg version="1.1" id="Layer_1" xmlns="http://www.w3.org/2000/svg" xmlns:xlink="http://www.w3.org/1999/xlink" x="0px" y="0px"
	 viewBox="0 0 870.6 870.5" enable-background="new 0 0 870.6 870.5" xml:space="preserve">
<g>
	<polygon fill-rule="evenodd" clip-rule="evenodd" fill="#3FBFEA" points="277.7,394.1 603.4,394.1 603.4,337.1 277.7,337.1 
		277.7,394.1 	"/>
	<path fill-rule="evenodd" clip-rule="evenodd" fill="#3FBFEA" d="M275.4,232.4c-23.9,0-43.9,19.3-43.9,43.1
		c0,23.9,20,43.9,43.9,43.9c23.9,0,43.1-20,43.1-43.9C318.5,251.6,299.3,232.4,275.4,232.4L275.4,232.4z"/>
	<path fill-rule="evenodd" clip-rule="evenodd" fill="#3FBFEA" d="M383.2,230.9c-23.9,0-43.1,19.3-43.1,43.9
		c0,23.9,19.3,43.1,43.1,43.1c24.6,0,43.9-19.3,43.9-43.1C427.1,250.1,407.8,230.9,383.2,230.9L383.2,230.9z"/>
	<path fill-rule="evenodd" clip-rule="evenodd" fill="#3FBFEA" d="M489.5,230.9c-23.9,0-43.1,19.3-43.1,43.9
		c0,23.9,19.3,43.1,43.1,43.1c23.9,0,43.9-19.3,43.9-43.1C533.4,250.1,513.3,230.9,489.5,230.9L489.5,230.9z"/>
	<path fill-rule="evenodd" clip-rule="evenodd" fill="#3FBFEA" d="M600.4,230.9c-24.6,0-43.9,19.3-43.9,43.9
		c0,23.9,19.3,43.1,43.9,43.1c23.9,0,43.1-19.3,43.1-43.1C643.5,250.1,624.2,230.9,600.4,230.9L600.4,230.9z"/>
	<polygon fill-rule="evenodd" clip-rule="evenodd" fill="#3FBFEA" points="425.6,233.2 449.4,233.2 449.4,150 425.6,150 
		425.6,233.2 	"/>
	<polygon fill-rule="evenodd" clip-rule="evenodd" fill="#3FBFEA" points="87.5,444.9 6.6,444.9 6.6,659 87.5,659 87.5,572.8 
		171.4,659 270,659 157.6,536.6 249.2,444.9 164.5,444.9 87.5,524.2 87.5,444.9 	"/>
	<polygon fill-rule="evenodd" clip-rule="evenodd" fill="#3FBFEA" points="276.2,444.9 353.2,444.9 353.2,605.1 490.2,605.1 
		490.2,659 276.2,659 276.2,444.9 	"/>
	<polygon fill-rule="evenodd" clip-rule="evenodd" fill="#3FBFEA" points="694.3,566.6 735.1,444.9 865.3,444.9 865.3,659 
		788.2,659 788.2,498.1 732.8,659 653.5,659 600.4,498.1 600.4,659 521,659 521,444.9 653.5,444.9 694.3,566.6 	"/>
	<polygon fill-rule="evenodd" clip-rule="evenodd" fill="#3FBFEA" points="397.8,203.9 481,203.9 481,180 397.8,180 397.8,203.9 	
		"/>
</g>
</svg>
