<?xml version="1.0" encoding="utf-8"?>
<!-- Generator: Adobe Illustrator 18.1.0, SVG Export Plug-In . SVG Version: 6.00 Build 0)  -->
<!DOCTYPE svg PUBLIC "-//W3C//DTD SVG 1.1//EN" "http://www.w3.org/Graphics/SVG/1.1/DTD/svg11.dtd">
<svg version="1.1" id="Layer_1" xmlns="http://www.w3.org/2000/svg" xmlns:xlink="http://www.w3.org/1999/xlink" x="0px" y="0px"
	 viewBox="0 0 870.6 870.5" enable-background="new 0 0 870.6 870.5" xml:space="preserve">
<g>
	<path fill="none" stroke="#FFFFFF" stroke-width="0.216" stroke-miterlimit="2.6131" d="M853.3,521.6c-2.3-1.6-10.1,5.8-13.2,4.7
		c-3.5-1.2-6.2-5.8-9-7c-3.5-1.2-5.5,0.8-9,0c-2.7-0.4-0.8-4.7-3.1-5.8c-3.1-1.2-4.7,1.9-8.2,0.8c-2.7-0.8-4.7-5.8-7-7
		c-2.7-0.8-3.5,2.7-6.6,1.6c-4.3-1.6-5.5-4.7-8.2-5.8c-2.3-1.6-7.4,3.1-10.9,1.2c-3.5-1.6-3.5-13.6-5.9-14.8
		c-2.7-1.2-11.3,8.6-14.8,6.2c-3.1-1.6-2-10.5-4.7-12.1c-2.3-1.6-12.9,7.4-15.6,6.2c-2.3-1.2-2.7-5.8-6.2-6.2
		c-3.1-0.4-8.6,3.9-12.1,2.7c-7-2.7-15.6-1.6-26.1-26.5c-1.2-3.1-3.5-5.1-5.8-3.9c-6.2,2.3-3.9,4.7,4.7,21.8
		c11.7,22.6,26.5,17.9,81.8,37c32.7,11.7,53,15.2,55.7,19.5c2.3,4.3,4.7,10.1-4.7,10.9c-14.8,1.2-18.3-6.6-21-7.8
		c-3.5-1.2-5.8,2.7-12.8,1.6c-7.8-1.2-5.1-4.7-7.8-5.8c-3.5-0.4-10.5,0-15.2-0.8c-4.7-1.2-5.1-7-7.4-5.9c-2.7,1.2-5.1,5.9-13.2,3.5
		c-7.4-3.1-7.4-9.4-10.5-9.7c-2-0.8-12.5,5.1-17.1,3.9c-10.1-3.1-9-11.7-12.1-12.5c-3.5-0.4-4.7,9-26.5,7.4
		c-21.8-2.3-31.2-0.8-44.8-7.8c-18.3-9.7-39.7-8.6-33.5-17.1c7-9,17.9-4.3,24.9-0.8c7,2.7,14.8,8.2,20.3,5.1c2-1.6-2.3-7.8-4.3-16.4
		c-2.7-15.2,10.5-19.9,9.4-22.2c-1.9-2.7-9.4-6.6-27.3-3.9c-12.1,1.9-35.5,20.3-41.3,23c-5.8,3.5-30,16.4-43.2-2.7
		c-13.2-19.5-1.2-39.4,4.3-45.6c5.1-6.2,13.6-10.9,16.7-6.2c4.3,7.4-5.8,9.4-10.1,14.4c-3.9,5.1-10.1,22.2-3.1,30
		c7.4,7.8,21,8.6,36.6-3.1c12.9-9.7,33.9-23.4,54.5-21.8c21,1.2,32,10.9,35.1,11.7c3.1,0.4,5.8-6.6,10.1-8.2
		c3.1-1.2,7.4,2.7,10.1,1.6c2.3-1.6,5.1-7.8,8.2-9c3.5-1.2,12.1,4.7,14.8,2.7c2.3-1.2,1.9-8.6,5.8-9c3.9-0.8,10.5,6.2,13.2,5.1
		c3.5-1.9,3.5-5.8,7-5.8c2.7,0,9,9.4,12.1,8.6c2.3-0.4,1.6-9.7,5.1-10.9c3.5-1.2,12.5,6.2,15.6,5.1c2.3-1.2,2.7-12.5,7-14.8
		c3.9-1.6,7.8,4.7,10.1,3.5c3.1-1.2,5.1-14,8.6-14.4c3.1-0.4,9.4,3.5,12.1,2.7c2.3-0.4,1.2-12.1,5.8-14.4c4.7-1.6,10.5,5.9,12.1,5.5
		c2.3-0.8,3.5-7,5.8-7.4c2.7-0.8,9.7,5.1,13.3,4.3c2.7-1.2,1.6-9.7,4.7-10.1c2.3-0.8,12.1,1.2,11.3-9.7
		c-0.4-10.9-14.4-21.4-27.6-21.4c-24.2,0-48.3,10.5-69,14.4c-20.6,3.5-63.1,16-73.6,17.9c-10.5,1.6-20.6-4.3-11.3-11.7
		c7.4-7,11.3-1.6,11.3-3.9s-4.7-4.7-11.3-5.8c-7-1.2-15.2,5.8-24.1,4.7c-9-1.2-17.9-8.2-27.7-6.2c-23.8,2.7-27.3,13.3-39.3,17.5
		c-12.1,4.7-21,1.2-27.7,2c-16.4,2.3-22.2,12.1-34.3,10.9c-14.4-1.2-21.4-9.4-37-13.6c-14.8-4.7-43.2-9-49.9-11.3
		c-7-2.7-37.8-10.1-45.2-10.9c-8.2-1.2-12.1,1.2-15.6,1.2c-3.9,0-9-2.3-14.4-2.7c-5.1-0.8-13.2-1.2-16.7,0c-3.1,1.6-4.3,1.6-8.6,0.4
		c-3.5-0.4-16.4-2.7-21.8-1.9c-7.8,0.4-10.9,5.5-16.8,6.2c-5.5,0.4-10.9-2.3-17.1-1.2c-6.2,1.2-11.3,3.5-16.8,5.1
		c-5.1,1.9-14.4,0.8-18.7,1.2c-11.7,2.7-13.2,8.6-17.5,8.6c-3.9,0-17.9-2.3-22.2,0c-4.7,2-8.6,5.5-12.1,5.8
		c-4.3,0.4-19.9,2.7-29.6,1.6c-5.5-0.4-14.8,4.3-18.7,5.5c-4.7,1.2-15.6,1.2-18.7-4.3c-3.1-6.6,5.5-16.4,19.9-28.1
		c9.7-7.4,64.7-46,153.9-60.4c69.7-11.7,151.2-40.9,168.3-58.8c7.4-7.4,37.4-32.7,44.8-48.3c7.4-15.6,9.7-24.6,5.8-24.2
		c-3.9,1.2-8.6,9.4-16,12.1c-7,2.3-13.3-1.6-18.7,0.8c-5.1,1.6-10.9,9.7-16.4,10.1c-5.8,0.8-8.2-4.3-12.5-2.3
		c-4.3,3.1-11.3,8.2-16,9.4c-9.7,1.6-10.1-9.7-19.1-5.1c-9.4,4.7-16,12.5-25.3,14.4c-8.6,1.2-7.4-5.5-13.2-5.5
		c-9.4,0-18.3,12.9-22.6,12.9c-4.3,0-7.8-7-13.2-6.2c-5.1,0.4-21,12.5-27.3,14.4c-6.6,1.2-7.8-9-13.3-8.2
		c-6.6,0.4-18.7,12.1-25.3,13.6c-7,1.2-10.9-3.5-15.6-3.5s-19.1,12.1-26.1,14c-10.1,2.3-10.9-10.5-21.8-9.7
		c-7.8,0.4-16,10.9-22.2,11.3c-6.6,0.8-9.4-4.3-16.8-2.7c-8.2,2.3-24.1,13.3-29.6,14.4c-5.1,1.2-9-1.9-15.2,0
		c-11.7,3.5-22.6,19.1-30,23c-8.2,4.7-14,2.3-18.3,5.1c-7.8,5.5-9,16.4-16.4,19.5c-6.6,3.5-6.2-1.6-12.5,2.3
		c-10.5,7.8-6.6,16.4-9.7,20.3c-3.1,3.9-11.7,7-16.8,13.3c-5.1,5.8-5.1,9.4-7,13.2c-2.3,3.9-11.3,15.6-13.2,20.7
		c-1.2,5.1,1.2,10.5-1.2,14.4c-1.6,3.5-5.1,9.4-7,13.6c-3.1,10.1,1.2,20.3,0.8,24.2c-0.8,3.5-4.7,9.4-4.7,14s4.7,13.6,3.5,20.7
		c-1.2,7-15.6,53.4-7.4,74.4c9,21.8,22.2,33.5,26.9,31.6c5.1-1.6,1.9-10.9,7-19.5c5.1-8.2,10.9-18.3,15.6-11.3
		c3.9,6.6-9.3,6.6-10.5,25.7c-1.6,18.3,0.8,10.5,0,16c-0.4,5.9-12.1,16.8-12.1,21.8c0,5.5,1.2,19.1,18.3,33.5
		c10.5,9.4,12.9,15.6,15.6,16c2.3,0.8,4.7-10.9,9.7-13.2c7-3.1,22.2,10.5,24.9,10.1c3.5-1.2,4.7-19.9,10.9-23.4
		c6.2-2.7,21.4,9.4,24.6,7.8c3.1-2.3-0.4-14,1.2-18.7c2-4.3,10.5-5.5,7.8-13.3c-2.3-7.8-3.5-23-31.2-24.9c-8.2-0.8-19.5-2-12.1-10.5
		c8.6-8.6,17.9-40.1-2.3-64.7c-8.6-10.5-28-4.7-33.5-2.3c-9.7,3.5-19.5,16.4-23.4,12.9c-3.5-3.5,7.8-17.9,25.3-23
		c17.1-5.5,39-4.3,47.5,17.1c15.2,37.4,0,54.9,1.9,58.8c2.3,3.9,10.9-0.4,23,7c17.1,11.3,14.8,21,19.1,24.6
		c3.9,3.1,24.5,4.7,43.6,5.8c19.5,1.2,40.9,6.2,49.9,1.2c14.4-7.4,15.6-35.1,49.1-55.3c16.7-10.1,39-20.3,63.9-16
		c27.7,3.9,28.1,7.8,25.7,11.3c-0.4,2-1.2,4.7-1.6,4.3c-13.3-7-32.3-7.8-44-5.5c-17.1,3.1-46.4,7.8-67.8,45.2
		c-21,37.4,12.9,37.8,16.4,39c3.9,1.6,10.1,3.5,9.7,14.4c-0.8,10.9,2.7,17.1,6.6,24.2c4.7,6.2,12.1,11.3,12.1,11.3
		s5.5-12.5,11.7-15.2c6.2-3.5,13.6,2.7,17.1,6.6c10.9,14,6.2-12.1,14-14.8c11.3-3.5,15.6,13.3,21.8,10.1c11.3-5.1,5.1-12.9,13.2-16
		c8.6-2.3,13.6,4.7,17.1,2.3c3.9-2.7,3.5-26.9-3.9-36.6c-8.2-10.1-20.3-27.3-46-27.3c-25.3,0-33.5-3.5-32.3-8.6
		c1.2-5.1,6.2-8.6,12.5-6.2c9.8,3.5,10.9,2.7,26.5,3.5c22.6,0.4,17.5,10.1,36.2,18.3c14,5.8,32.3-3.9,54.9,0c23,3.9,42.1,8.2,63.1,7
		c39.8-1.2,83.8-18.7,92.3-19.9c9-1.6,13.6-0.4,13.6-3.1c0-2.3-38.6-8.2-36.2-17.5c3.1-9,21.4-1.6,46.7,4.3
		c25.3,5.5,79.5,10.1,100.5,9c22.6-0.4,61.2,9.7,92.7,2.3c16-3.9,31.2-13.6,32.7-24.5C870.9,532.1,856.4,524,853.3,521.6
		L853.3,521.6z M635.9,388c6.2-1.2,17.1,1.6,14.4,8.6c-2.3,7-3.5,5.8-8.6,7c-5.1,1.2-15.6,2.3-18.3-2.3
		C621.1,396.5,628.9,389.5,635.9,388L635.9,388z M477.4,208.3c3.9,2,4.3,7.4,3.9,10.9c-1.2,3.1-3.1,6.2-5.1,6.2
		c-3.1,0-3.1-4.3-4.3-8.6C470.8,213.4,473.1,206,477.4,208.3L477.4,208.3z M441.6,219.2c8.2,1.9,5.1,9.4,3.5,17.9
		c-1.2,5.8-6.2,7.4-7,8.6c-2.7,5.1-3.5-17.1-3.5-17.1S436.9,218.1,441.6,219.2L441.6,219.2z M401.8,225.5c3.1-0.4,8.6,11.7,5.5,22.2
		c-3.5,10.1-7.8,10.1-7.8,10.1s-1.2-11.3-2.3-12.5C396,243.4,393.6,227.4,401.8,225.5L401.8,225.5z M366,231.3
		c7.4-2.7,9.4,14,5.8,22.6c-3.1,9-3.1,14.4-8.6,10.9c-6.6-3.1-1.2-14-3.1-17.1C357.8,242.2,359.7,234.4,366,231.3L366,231.3z
		 M326.2,240.7c9.4-1.2,8.2,13.6,5.8,21.8c-2.7,7.4-4.7,10.9-8.6,9.7c-4.3-1.6,1.2-11.3-1.2-15.6C319.2,252.7,321.2,241,326.2,240.7
		L326.2,240.7z M285.3,248.1c5.5,1.2,9.4,9.4,6.6,20.6c-2.3,11.7-5.8,14.4-9,14.4c-3.1,0,1.2-18.3-1.6-18.3
		C279.1,264.8,278.7,246.9,285.3,248.1L285.3,248.1z M245.2,261.7c3.5,0,11.3,6.6,7.4,18.7c-3.9,12.5-3.9,11.3-7.4,12.5
		c-3.9,0.8-1.2-7.4-3.5-12.1C239,276.9,235.5,261.3,245.2,261.7L245.2,261.7z M209,274.6c7-0.4,9.7,14.4,8.2,20.7
		c-1.2,6.2-3.5,14-7.8,12.9c-3.9-0.8,0.8-12.1-2.7-12.1C203.9,296,198.5,275,209,274.6L209,274.6z M186,317
		c-4.7,8.6-4.3,8.6-7.4,8.6c-3.1,0-1.2-12.5-4.7-12.5c-3.1,0-5.8-18.3,3.9-19.1C188.3,293.7,188.7,310.8,186,317L186,317z
		 M170.4,258.6c2.3,0,8.2,3.9,2.7,9.7c-5.1,5.8-5.5,9.7-10.1,7.4C158.3,274.2,163,259,170.4,258.6L170.4,258.6z M38,381.7
		c3.1,0,7,7.8,6.6,10.9c-0.8,2.3-1.2,6.2-5.8,7.4c-4.3,1.2-5.8-5.8-5.8-7C32.5,391.5,31.3,380.9,38,381.7L38,381.7z M42.6,432.8
		c-2.3,0-5.1,0-7-1.6c-1.2-2-9-9.7-3.1-17.5c0.4-1.2,10.1,5.5,12.1,9.7C45.7,426.5,45.7,432.8,42.6,432.8L42.6,432.8z M50.8,367.7
		c-1.2,1.9-4.3,3.1-6.2,1.9c-3.1-1.9-3.1-8.2-1.9-9.4c0.8-0.4,1.2-9.7,7.4-8.6c3.1,0.4-0.4,8.2,0,9
		C50.8,361.9,52.4,366.1,50.8,367.7L50.8,367.7z M310.3,407.4c0.4-2.7,4.7-5.1,9-3.9c5.5,0.4,11.7,5.1,10.5,8.6
		c-0.4,3.5-6.2,6.2-12.1,3.5C312.6,413.3,309.1,411,310.3,407.4L310.3,407.4z M318.1,432.8c3.5-0.4,12.9-1.2,12.1,3.9
		c-0.4,4.7-2.7,5.8-10.1,7c-7.4,1.2-12.1-3.5-12.1-5.8C308.3,433.9,314.2,433.6,318.1,432.8L318.1,432.8z M298.6,379.4
		c4.3,0,8.2,3.5,7,6.2c-1.2,2.7-1.6,6.2-9.3,4.7c-2.7-1.2-6.2-5.1-6.2-7.4C290,378.2,294.7,378.6,298.6,379.4L298.6,379.4z
		 M256.5,389.1c0.8-3.9,8.2-4.7,11.7-3.1c3.9,2,6.2,7,3.9,9.4c-2.7,2-5.5,1.2-10.1,0S256.1,393,256.5,389.1L256.5,389.1z
		 M251.4,407.1c5.8,0,12.9,4.3,9.7,7.4c-2.3,2.3-4.7,3.9-10.9,3.9c-6.2,0-8.6-2.3-8.6-5.8C241.7,409.4,245.6,406.3,251.4,407.1
		L251.4,407.1z M241.3,432.8c6.6-1.2,11.3,2.7,10.9,6.2c0,3.5-5.8,6.6-9.7,6.6c-4.7,0-11.3-1.2-12.1-6.6
		C229.6,434.3,237.8,433.6,241.3,432.8L241.3,432.8z M223.4,464c-1.2-3.5,7-5.1,10.9-5.8c3.5-0.4,10.9,1.2,9.7,4.7
		c-1.2,2.7-3.5,6.2-9.7,6.2C228.1,468.6,224.6,466.7,223.4,464L223.4,464z M233.1,485.8c-1.2,5.1-5.8,5.8-9.4,6.2
		c-3.9,0.8-10.1,0-10.1-3.9c0-4.3,5.5-7.4,8.6-8.6C228.5,478.4,234.3,481.9,233.1,485.8L233.1,485.8z M216,390.3
		c2.3,0.4,9.7,2.3,10.1,5.9c0,2.7,1.9,6.6-6.2,6.6c-7.4,0-10.5-1.2-12.1-5.1C205.5,393,213.7,389.5,216,390.3L216,390.3z M214.8,418
		c7.8,1.6,9,1.6,9.7,5.1c0.4,3.5-5.5,5.8-12.1,7c-7,1.2-10.9-1.9-12.9-5.5C198.5,421.5,207,416.8,214.8,418L214.8,418z M201.6,449.9
		c3.9-0.4,8.6,1.2,8.6,5.5c-0.8,3.5-3.1,5.1-7,6.6c-3.5,1.9-11.3-1.2-12.5-3.9C189.5,455.4,197.3,450.7,201.6,449.9L201.6,449.9z
		 M194.6,482.3c0,3.5-7,6.2-10.5,7c-2.7,0.4-5.1,2.7-7.4,0.4c-2.7-2.3-2.3-4.7-0.4-6.2c1.2-1.6,8.6-5.1,10.1-5.8
		C189.5,476.4,195,479.5,194.6,482.3L194.6,482.3z M178.6,399.3c6.2,0,9,3.5,10.1,6.6c0.8,2.7,0,4.3-1.6,5.5
		c-1.2,1.2-8.2,0.8-12.1-1.6C169.6,407.1,171.6,399.3,178.6,399.3L178.6,399.3z M147.4,313.1c8.6-0.8,10.1,10.9,8.2,21.4
		c-3.1,10.1-4.3,10.1-8.2,9c-3.5-1.2,0-7-2.3-9.8C142.4,331.5,137.7,313.5,147.4,313.1L147.4,313.1z M141.2,269.5
		c7.8-1.2,5.1,8.6,3.5,11.3c-2.3,3.5,0.4,8.6-4.7,8.2c-5.5-0.8-4.7-7.4-5.5-10.9C134.2,274.2,136.5,269.9,141.2,269.5L141.2,269.5z
		 M113.5,304.6c1.6-2.3,2.7-8.2,7.8-8.6c3.5-0.8,2.3,9,1.9,13.6c0,4.7,1.2,10.5-5.1,8.2C111.6,315.5,111.6,307.3,113.5,304.6
		L113.5,304.6z M89.4,305.7c1.2,0,1.2-0.8,1.2-0.8s5.5-9,10.9-6.2c2.3,0.4-3.5,11.7-4.3,13.6c-1.2,3.1-5.1,5.5-8.6,2.3
		C85.1,311.2,88.2,305.7,89.4,305.7L89.4,305.7z M73,326.4c3.1,1.2,0,11.3-1.2,16c-0.4,4.7-3.9,7-7.4,5.8c-3.5-0.4-1.6-8.6-2.7-8.6
		C60.9,338.9,65.6,325.2,73,326.4L73,326.4z M61.7,403.9c2.3,0.8,2.7,5.5,2.7,6.2c0,2,2.3,3.1,3.5,6.6c0.8,2.7-1.2,5.5-3.9,6.2
		c-3.1,0-5.8-5.8-5.8-5.8C58.2,418,55.9,403.6,61.7,403.9L61.7,403.9z M71.5,451.9c-2.3,1.6-5.1,2.7-8.6,2.3
		c-3.5-1.2-7.4-7-4.3-10.5c3.1-2.7,7.8-0.4,10.1,1.2C71.1,446.8,73.8,449.9,71.5,451.9L71.5,451.9z M72.6,386
		c-4.7-0.8-2.7-9.7-3.5-9.7c0,0,4.7-16,9.4-13.2c3.5,2.3,1.6,12.9,1.2,17.9C78.9,385.6,76.5,387.2,72.6,386L72.6,386z M81.2,415.6
		c-1.6-0.8-3.5-10.9,3.5-11.7c2.7,0,7.4,5.5,7.4,8.6c-0.4,3.5,0.8,8.2-5.8,7.8C80,419.5,82.4,416,81.2,415.6L81.2,415.6z
		 M97.9,465.5c-2.3,0-7-0.4-9.7-4.7c-2.3-3.1-3.1-8.6,0-10.1c2.3-1.2,8.6,2.7,11.3,8.2C102.6,464,99.5,465.5,97.9,465.5L97.9,465.5z
		 M106.1,446c-3.1-0.4-6.6-1.6-9.4-5.1c-2.7-3.1-2.7-9.7,1.6-10.5c6.6-1.2,10.5,4.7,12.9,9.7C112.7,445.6,108.1,446,106.1,446
		L106.1,446z M112.4,418.4c-3.1,0-4.7-1.2-6.2-3.5c-2.3-1.6-3.1-8.6,3.1-8.6c3.1,0,7.8,2.3,8.2,5.8C118.2,416,115.1,418,112.4,418.4
		L112.4,418.4z M118.2,339.6c4.3,0,12.1,4.7,9.7,18.3c-3.1,13.3-4.7,8.6-7.4,9.4c-2.3,1.2-0.8-7.4-2.3-9.4
		C115.1,354.4,107.7,339.6,118.2,339.6L118.2,339.6z M126,467.9c-2.7-1.2-6.2-2.7-6.6-7c-1.2-3.9,3.1-5.1,6.6-4.3
		c4.3,0.4,7.4,3.9,7.4,6.6C133.4,466.7,128.3,468.6,126,467.9L126,467.9z M133.4,441c-2,0.4-3.1,1.6-7.4,0.4
		c-3.9-1.6-12.1-10.1-4.7-14.8c2.3-1.9,11.3,0.4,13.2,7C137.7,439,135.7,439.8,133.4,441L133.4,441z M134.2,414.5
		c-1.2-1.2,1.2-7.4,7.4-5.8c5.8,1.2,7.4,5.1,7,8.6c-1.2,3.5-5.1,3.5-8.2,3.1C137.7,419.5,135.7,415.6,134.2,414.5L134.2,414.5z
		 M157.5,482.3c-1.9,1.2-6.2,2.3-12.1,1.6c-5.1-0.4-6.2-2-4.3-5.1c2.3-2.7,3.9-3.5,8.6-5.1c4.7-1.9,10.1,0.4,11.3,2.3
		C162.2,477.6,159.9,481.9,157.5,482.3L157.5,482.3z M165.3,456.9c-3.1,2-9.7,0-11.7-4.7c-1.6-5.1,1.2-6.2,3.5-7.4
		c2.7-0.4,9.4,2.7,10.5,7C168.1,454.6,168.1,455.4,165.3,456.9L165.3,456.9z M171.6,434.3c-2.7,0-12.9-1.6-10.9-6.6
		c1.2-5.5,7-5.5,10.1-4.7c1.9,0,10.1,2.7,8.2,7.4C177.8,435.5,174.3,433.9,171.6,434.3L171.6,434.3z M261.2,526.3
		c0,2.7-1.6,4.7-3.9,4.7c-2.7,0-10.5-2-14.4,1.2c-3.9,2.7-6.2,7.8-5.8,11.3c0.8,2.7,0.8,7-1.2,8.2c-1.6,1.6-9-1.2-12.1-0.8
		c-2.7,0-12.5,2.3-14.8,7.4c-2.7,4.7-0.8,8.2-2.3,9.4c-1.6,2-3.9,2.7-6.2,2.7c-2.3,0.8-12.9-0.8-14.4,0.8c-2.3,1.6-8.2,8.6-9.7,6.2
		c-1.9-2.3-4.7-1.2,0.4-9.7c2.3-3.9,8.6-8.2,9.4-8.2c0.4,0,8.2,0.8,9.7-0.4c1.6-1.6,6.2-10.9,8.2-12.9c7.8-6.2,7.4-3.9,9.7-5.1
		c2.3-0.4,10.1,1.2,10.9-0.4c1.2-2.3,5.8-10.9,9.7-14.4c5.1-4.7,13.2-5.5,14.4-6.2c0.4-1.2,2.3-4.3,3.5-6.6c1.6-2.3,8.6-8.2,13.3-7
		c2.3,0.8-5.8,11.7-5.8,14C258.8,522.8,261.2,523.2,261.2,526.3L261.2,526.3z M267,493.2c-5.8,1.2-12.1,0.8-12.5-2.3
		c-0.8-2.3,1.2-5.9,5.1-7.4c3.5-1.6,7-0.4,9.7-0.4c2.3,0,8.2,0,7.4,1.9C276.4,486.9,272.9,492,267,493.2L267,493.2z M275.2,466.7
		c-6.6,0.8-12.9-1.2-12.1-3.9c1.2-3.1,5.1-5.8,10.9-5.8c5.8-0.4,9.7,1.2,9.7,3.9C283.8,463.2,281.4,466.3,275.2,466.7L275.2,466.7z
		 M288.4,435.1c-1.2,4.7-3.5,5.8-7.8,6.2c-4.3,0-12.9-1.2-12.9-7.8c0-3.1,9-4.7,10.9-4.7C280.7,428.1,288.8,430.4,288.4,435.1
		L288.4,435.1z M294.7,410.2c-0.8,3.5-5.8,6.6-9.7,5.5c-4.3-1.2-9.7-2-9.3-5.8c0-2.3,3.5-5.8,9.7-5.1
		C292,404.7,295.1,407.4,294.7,410.2L294.7,410.2z M315.3,485.8c-1.6,1.6-3.5,5.8-8.2,7c-4.3,0.4-9.7,2.3-12.1-3.1
		c-1.2-2.7,0.8-5.1,4.3-7.4c2.7-1.6,12.1-1.6,12.1-1.6s1.2-3.1,3.5-1.2C317.3,481.1,317.3,483.8,315.3,485.8L315.3,485.8z
		 M326.2,465.1c-3.9,0-13.3,0.4-13.6-4.3c-1.2-1.9,5.1-4.3,9-5.5c4.7-1.2,7.8-1.2,9.4-0.8c1.6,0.8,5.8,2.3,5.8,4.3
		C336.8,460.8,329.7,464.3,326.2,465.1L326.2,465.1z M331.3,387.2c-1.6-3.9-1.9-7.4-0.4-9c2.7-2,12.1,1.6,13.6,5.8
		c2.3,3.9,2.3,8.6-1.6,9.8C339.1,394.2,332.5,390.7,331.3,387.2L331.3,387.2z M345.3,409.8c-0.8-3.5,6.2-6.2,10.9-5.8
		c3.9,0.8,10.9,4.7,9.7,8.6c-1.6,4.3-2.3,5.5-5.8,5.5S345.7,415.6,345.3,409.8L345.3,409.8z M348.8,437.5c-0.8-3.1,6.2-4.7,9-4.7
		c2.3,0,12.9,1.6,9.7,5.8c-2,3.9-6.2,5.8-9.7,5.8C355.1,444.5,350,440.2,348.8,437.5L348.8,437.5z M369.9,470.2
		c-3.9,2.7-6.6,2.7-11.3,2.7c-4.3,0-5.1-2.7-5.1-6.2c0-2.7,4.3-4.7,6.2-5.1c2.3-0.8,5.1,0,7.4-0.8c1.6-0.4,1.6-0.4,3.9-1.2
		c2-0.4,3.1-0.8,3.5,2.3C375.3,465.1,374.2,467.9,369.9,470.2L369.9,470.2z M377.7,391.5c-2,1.2-2,2.3-5.8,1.6
		c-4.7-0.4-7-7.4-8.2-7.8c-1.6-0.8-5.1-4.7-3.5-6.6c2-1.6,10.5-1.6,14.4,1.9C379.2,384.5,379.2,390.3,377.7,391.5L377.7,391.5z
		 M386.2,407.4c1.2-1.2,3.9-2.7,7.4-2.7c3.5,0,8.2,2.3,9.7,4.7c1.2,2.7,1.2,5.1-1.2,7.4c-1.6,1.6-12.1-1.2-13.6-3.1
		C386.2,411.3,385.5,409.4,386.2,407.4L386.2,407.4z M389,442.5c-1.2,1.2-1.6-2.7,0-4.7c2.3-1.6,7.4-4.3,10.5-4.3
		c2.7,0,7.4,0.8,6.6,3.1c-0.4,2.3-1.2,8.2-7.4,8.2C392.5,445.6,390.1,442.1,389,442.5L389,442.5z M401,471.4
		c-5.1,0.4-8.6-0.4-9.3-4.7c-0.4-3.9,3.5-5.1,4.3-5.1c0.4,0,4.7-0.8,5.8-1.2c2.7,0,7.4-3.5,9.7,0C412.7,462.8,406.1,470.2,401,471.4
		L401,471.4z M417.8,392.6c-0.8,1.6-2.3,6.2-8.2,4.7c-5.8-2-8.6-4.7-10.1-7c-1.2-2.3-5.5-5.8-1.9-9.4c1.9-1.6,10.9,1.9,15.2,5.1
		C416.2,389.5,418.2,390.3,417.8,392.6L417.8,392.6z M421.7,409.4c1.2-2.3,5.8-3.5,9.4-3.5c3.5,0.4,8.2,1.6,8.9,5.5
		c0.8,3.5,0,4.7-1.2,6.6c-1.9,1.6-9-0.8-11.7-1.9C424,414.9,420.5,411,421.7,409.4L421.7,409.4z M422.5,436.3c0-2.7,3.9-2.3,5.8-2.7
		c0.8-0.8,1.9-1.9,5.1-2.3c2.3-0.8,7.4-0.8,7.4,1.6c0.8,1.6,0,5.1-6.2,7C427.5,442.1,422.9,439,422.5,436.3L422.5,436.3z M445.1,462
		c0,0-5.1,4.7-6.2,6.6c-1.9,1.2-5.1,4.3-9.7,0.4c-2.7-2.7,0-7.4,2-8.6c1.6-1.6,13.2-8.6,15.6-5.1C448.6,458.9,445.1,462,445.1,462
		L445.1,462z M452.1,393c-2.3,3.5-5.8,3.1-10.1,2.3c-3.9-0.4-10.9-5.1-10.5-9.8c0.8-3.9,7.8-2.7,11.7-1.2
		C447.4,386,454.8,389.5,452.1,393L452.1,393z M498.4,446.8c-2.3,0-8.2-5.8,1.2-7c3.5-0.8,3.9,1.6,3.9,5.1
		C503.5,447.6,500.4,446.8,498.4,446.8L498.4,446.8z M503.5,419.5c-3.9-1.2-5.5-2.7-3.1-5.8c2.7-2.3,3.9-1.6,7.4-0.4
		c2.7,1.2,3.5,3.5,2.7,5.8C510.1,421.9,507.8,420.7,503.5,419.5L503.5,419.5z M525.7,503.7c-5.5-1.2-10.5-7.8-13.2-11.7
		c-2.3-4.7-3.1-13.2-1.2-17.1c1.6-4.7,3.9-5.1,6.2-3.5c2.7,1.6,1.2,13.3,2.7,13.6c1.9,1.2,3.1,9.4,8.2,10.5c1.6,0,3.5,3.9,3.5,3.9
		S530,504.9,525.7,503.7L525.7,503.7z"/>
	<path fill="#08A650" d="M853.3,521.6c-2.3-1.6-10.1,5.8-13.2,4.7c-3.5-1.2-6.2-5.8-9-7c-3.5-1.2-5.5,0.8-9,0
		c-2.7-0.4-0.8-4.7-3.1-5.8c-3.1-1.2-4.7,1.9-8.2,0.8c-2.7-0.8-4.7-5.8-7-7c-2.7-0.8-3.5,2.7-6.6,1.6c-4.3-1.6-5.5-4.7-8.2-5.8
		c-2.3-1.6-7.4,3.1-10.9,1.2c-3.5-1.6-3.5-13.6-5.9-14.8c-2.7-1.2-11.3,8.6-14.8,6.2c-3.1-1.6-2-10.5-4.7-12.1
		c-2.3-1.6-12.9,7.4-15.6,6.2c-2.3-1.2-2.7-5.8-6.2-6.2c-3.1-0.4-8.6,3.9-12.1,2.7c-7-2.7-15.6-1.6-26.1-26.5
		c-1.2-3.1-3.5-5.1-5.8-3.9c-6.2,2.3-3.9,4.7,4.7,21.8c11.7,22.6,26.5,17.9,81.8,37c32.7,11.7,53,15.2,55.7,19.5
		c2.3,4.3,4.7,10.1-4.7,10.9c-14.8,1.2-18.3-6.6-21-7.8c-3.5-1.2-5.8,2.7-12.8,1.6c-7.8-1.2-5.1-4.7-7.8-5.8
		c-3.5-0.4-10.5,0-15.2-0.8c-4.7-1.2-5.1-7-7.4-5.9c-2.7,1.2-5.1,5.9-13.2,3.5c-7.4-3.1-7.4-9.4-10.5-9.7c-2-0.8-12.5,5.1-17.1,3.9
		c-10.1-3.1-9-11.7-12.1-12.5c-3.5-0.4-4.7,9-26.5,7.4c-21.8-2.3-31.2-0.8-44.8-7.8c-18.3-9.7-39.7-8.6-33.5-17.1
		c7-9,17.9-4.3,24.9-0.8c7,2.7,14.8,8.2,20.3,5.1c2-1.6-2.3-7.8-4.3-16.4c-2.7-15.2,10.5-19.9,9.4-22.2c-1.9-2.7-9.4-6.6-27.3-3.9
		c-12.1,1.9-35.5,20.3-41.3,23c-5.8,3.5-30,16.4-43.2-2.7c-13.2-19.5-1.2-39.4,4.3-45.6c5.1-6.2,13.6-10.9,16.7-6.2
		c4.3,7.4-5.8,9.4-10.1,14.4c-3.9,5.1-10.1,22.2-3.1,30c7.4,7.8,21,8.6,36.6-3.1c12.9-9.7,33.9-23.4,54.5-21.8
		c21,1.2,32,10.9,35.1,11.7c3.1,0.4,5.8-6.6,10.1-8.2c3.1-1.2,7.4,2.7,10.1,1.6c2.3-1.6,5.1-7.8,8.2-9c3.5-1.2,12.1,4.7,14.8,2.7
		c2.3-1.2,1.9-8.6,5.8-9c3.9-0.8,10.5,6.2,13.2,5.1c3.5-1.9,3.5-5.8,7-5.8c2.7,0,9,9.4,12.1,8.6c2.3-0.4,1.6-9.7,5.1-10.9
		c3.5-1.2,12.5,6.2,15.6,5.1c2.3-1.2,2.7-12.5,7-14.8c3.9-1.6,7.8,4.7,10.1,3.5c3.1-1.2,5.1-14,8.6-14.4c3.1-0.4,9.4,3.5,12.1,2.7
		c2.3-0.4,1.2-12.1,5.8-14.4c4.7-1.6,10.5,5.9,12.1,5.5c2.3-0.8,3.5-7,5.8-7.4c2.7-0.8,9.7,5.1,13.3,4.3c2.7-1.2,1.6-9.7,4.7-10.1
		c2.3-0.8,12.1,1.2,11.3-9.7c-0.4-10.9-14.4-21.4-27.6-21.4c-24.2,0-48.3,10.5-69,14.4c-20.6,3.5-63.1,16-73.6,17.9
		c-10.5,1.6-20.6-4.3-11.3-11.7c7.4-7,11.3-1.6,11.3-3.9s-4.7-4.7-11.3-5.8c-7-1.2-15.2,5.8-24.1,4.7c-9-1.2-17.9-8.2-27.7-6.2
		c-23.8,2.7-27.3,13.3-39.3,17.5c-12.1,4.7-21,1.2-27.7,2c-16.4,2.3-22.2,12.1-34.3,10.9c-14.4-1.2-21.4-9.4-37-13.6
		c-14.8-4.7-43.2-9-49.9-11.3c-7-2.7-37.8-10.1-45.2-10.9c-8.2-1.2-12.1,1.2-15.6,1.2c-3.9,0-9-2.3-14.4-2.7
		c-5.1-0.8-13.2-1.2-16.7,0c-3.1,1.6-4.3,1.6-8.6,0.4c-3.5-0.4-16.4-2.7-21.8-1.9c-7.8,0.4-10.9,5.5-16.8,6.2
		c-5.5,0.4-10.9-2.3-17.1-1.2c-6.2,1.2-11.3,3.5-16.8,5.1c-5.1,1.9-14.4,0.8-18.7,1.2c-11.7,2.7-13.2,8.6-17.5,8.6
		c-3.9,0-17.9-2.3-22.2,0c-4.7,2-8.6,5.5-12.1,5.8c-4.3,0.4-19.9,2.7-29.6,1.6c-5.5-0.4-14.8,4.3-18.7,5.5
		c-4.7,1.2-15.6,1.2-18.7-4.3c-3.1-6.6,5.5-16.4,19.9-28.1c9.7-7.4,64.7-46,153.9-60.4c69.7-11.7,151.2-40.9,168.3-58.8
		c7.4-7.4,37.4-32.7,44.8-48.3c7.4-15.6,9.7-24.6,5.8-24.2c-3.9,1.2-8.6,9.4-16,12.1c-7,2.3-13.3-1.6-18.7,0.8
		c-5.1,1.6-10.9,9.7-16.4,10.1c-5.8,0.8-8.2-4.3-12.5-2.3c-4.3,3.1-11.3,8.2-16,9.4c-9.7,1.6-10.1-9.7-19.1-5.1
		c-9.4,4.7-16,12.5-25.3,14.4c-8.6,1.2-7.4-5.5-13.2-5.5c-9.4,0-18.3,12.9-22.6,12.9c-4.3,0-7.8-7-13.2-6.2
		c-5.1,0.4-21,12.5-27.3,14.4c-6.6,1.2-7.8-9-13.3-8.2c-6.6,0.4-18.7,12.1-25.3,13.6c-7,1.2-10.9-3.5-15.6-3.5s-19.1,12.1-26.1,14
		c-10.1,2.3-10.9-10.5-21.8-9.7c-7.8,0.4-16,10.9-22.2,11.3c-6.6,0.8-9.4-4.3-16.8-2.7c-8.2,2.3-24.1,13.3-29.6,14.4
		c-5.1,1.2-9-1.9-15.2,0c-11.7,3.5-22.6,19.1-30,23c-8.2,4.7-14,2.3-18.3,5.1c-7.8,5.5-9,16.4-16.4,19.5c-6.6,3.5-6.2-1.6-12.5,2.3
		c-10.5,7.8-6.6,16.4-9.7,20.3c-3.1,3.9-11.7,7-16.8,13.3c-5.1,5.8-5.1,9.4-7,13.2c-2.3,3.9-11.3,15.6-13.2,20.7
		c-1.2,5.1,1.2,10.5-1.2,14.4c-1.6,3.5-5.1,9.4-7,13.6c-3.1,10.1,1.2,20.3,0.8,24.2c-0.8,3.5-4.7,9.4-4.7,14s4.7,13.6,3.5,20.7
		c-1.2,7-15.6,53.4-7.4,74.4c9,21.8,22.2,33.5,26.9,31.6c5.1-1.6,1.9-10.9,7-19.5c5.1-8.2,10.9-18.3,15.6-11.3
		c3.9,6.6-9.3,6.6-10.5,25.7c-1.6,18.3,0.8,10.5,0,16c-0.4,5.9-12.1,16.8-12.1,21.8c0,5.5,1.2,19.1,18.3,33.5
		c10.5,9.4,12.9,15.6,15.6,16c2.3,0.8,4.7-10.9,9.7-13.2c7-3.1,22.2,10.5,24.9,10.1c3.5-1.2,4.7-19.9,10.9-23.4
		c6.2-2.7,21.4,9.4,24.6,7.8c3.1-2.3-0.4-14,1.2-18.7c2-4.3,10.5-5.5,7.8-13.3c-2.3-7.8-3.5-23-31.2-24.9c-8.2-0.8-19.5-2-12.1-10.5
		c8.6-8.6,17.9-40.1-2.3-64.7c-8.6-10.5-28-4.7-33.5-2.3c-9.7,3.5-19.5,16.4-23.4,12.9c-3.5-3.5,7.8-17.9,25.3-23
		c17.1-5.5,39-4.3,47.5,17.1c15.2,37.4,0,54.9,1.9,58.8c2.3,3.9,10.9-0.4,23,7c17.1,11.3,14.8,21,19.1,24.6
		c3.9,3.1,24.5,4.7,43.6,5.8c19.5,1.2,40.9,6.2,49.9,1.2c14.4-7.4,15.6-35.1,49.1-55.3c16.7-10.1,39-20.3,63.9-16
		c27.7,3.9,28.1,7.8,25.7,11.3c-0.4,2-1.2,4.7-1.6,4.3c-13.3-7-32.3-7.8-44-5.5c-17.1,3.1-46.4,7.8-67.8,45.2
		c-21,37.4,12.9,37.8,16.4,39c3.9,1.6,10.1,3.5,9.7,14.4c-0.8,10.9,2.7,17.1,6.6,24.2c4.7,6.2,12.1,11.3,12.1,11.3
		s5.5-12.5,11.7-15.2c6.2-3.5,13.6,2.7,17.1,6.6c10.9,14,6.2-12.1,14-14.8c11.3-3.5,15.6,13.3,21.8,10.1c11.3-5.1,5.1-12.9,13.2-16
		c8.6-2.3,13.6,4.7,17.1,2.3c3.9-2.7,3.5-26.9-3.9-36.6c-8.2-10.1-20.3-27.3-46-27.3c-25.3,0-33.5-3.5-32.3-8.6
		c1.2-5.1,6.2-8.6,12.5-6.2c9.8,3.5,10.9,2.7,26.5,3.5c22.6,0.4,17.5,10.1,36.2,18.3c14,5.8,32.3-3.9,54.9,0c23,3.9,42.1,8.2,63.1,7
		c39.8-1.2,83.8-18.7,92.3-19.9c9-1.6,13.6-0.4,13.6-3.1c0-2.3-38.6-8.2-36.2-17.5c3.1-9,21.4-1.6,46.7,4.3
		c25.3,5.5,79.5,10.1,100.5,9c22.6-0.4,61.2,9.7,92.7,2.3c16-3.9,31.2-13.6,32.7-24.5C870.9,532.1,856.4,524,853.3,521.6
		L853.3,521.6z M635.9,388c6.2-1.2,17.1,1.6,14.4,8.6c-2.3,7-3.5,5.8-8.6,7c-5.1,1.2-15.6,2.3-18.3-2.3
		C621.1,396.5,628.9,389.5,635.9,388L635.9,388z M477.4,208.3c3.9,2,4.3,7.4,3.9,10.9c-1.2,3.1-3.1,6.2-5.1,6.2
		c-3.1,0-3.1-4.3-4.3-8.6C470.8,213.4,473.1,206,477.4,208.3L477.4,208.3z M441.6,219.2c8.2,1.9,5.1,9.4,3.5,17.9
		c-1.2,5.8-6.2,7.4-7,8.6c-2.7,5.1-3.5-17.1-3.5-17.1S436.9,218.1,441.6,219.2L441.6,219.2z M401.8,225.5c3.1-0.4,8.6,11.7,5.5,22.2
		c-3.5,10.1-7.8,10.1-7.8,10.1s-1.2-11.3-2.3-12.5C396,243.4,393.6,227.4,401.8,225.5L401.8,225.5z M366,231.3
		c7.4-2.7,9.4,14,5.8,22.6c-3.1,9-3.1,14.4-8.6,10.9c-6.6-3.1-1.2-14-3.1-17.1C357.8,242.2,359.7,234.4,366,231.3L366,231.3z
		 M326.2,240.7c9.4-1.2,8.2,13.6,5.8,21.8c-2.7,7.4-4.7,10.9-8.6,9.7c-4.3-1.6,1.2-11.3-1.2-15.6C319.2,252.7,321.2,241,326.2,240.7
		L326.2,240.7z M285.3,248.1c5.5,1.2,9.4,9.4,6.6,20.6c-2.3,11.7-5.8,14.4-9,14.4c-3.1,0,1.2-18.3-1.6-18.3
		C279.1,264.8,278.7,246.9,285.3,248.1L285.3,248.1z M245.2,261.7c3.5,0,11.3,6.6,7.4,18.7c-3.9,12.5-3.9,11.3-7.4,12.5
		c-3.9,0.8-1.2-7.4-3.5-12.1C239,276.9,235.5,261.3,245.2,261.7L245.2,261.7z M209,274.6c7-0.4,9.7,14.4,8.2,20.7
		c-1.2,6.2-3.5,14-7.8,12.9c-3.9-0.8,0.8-12.1-2.7-12.1C203.9,296,198.5,275,209,274.6L209,274.6z M186,317
		c-4.7,8.6-4.3,8.6-7.4,8.6c-3.1,0-1.2-12.5-4.7-12.5c-3.1,0-5.8-18.3,3.9-19.1C188.3,293.7,188.7,310.8,186,317L186,317z
		 M170.4,258.6c2.3,0,8.2,3.9,2.7,9.7c-5.1,5.8-5.5,9.7-10.1,7.4C158.3,274.2,163,259,170.4,258.6L170.4,258.6z M38,381.7
		c3.1,0,7,7.8,6.6,10.9c-0.8,2.3-1.2,6.2-5.8,7.4c-4.3,1.2-5.8-5.8-5.8-7C32.5,391.5,31.3,380.9,38,381.7L38,381.7z M42.6,432.8
		c-2.3,0-5.1,0-7-1.6c-1.2-2-9-9.7-3.1-17.5c0.4-1.2,10.1,5.5,12.1,9.7C45.7,426.5,45.7,432.8,42.6,432.8L42.6,432.8z M50.8,367.7
		c-1.2,1.9-4.3,3.1-6.2,1.9c-3.1-1.9-3.1-8.2-1.9-9.4c0.8-0.4,1.2-9.7,7.4-8.6c3.1,0.4-0.4,8.2,0,9
		C50.8,361.9,52.4,366.1,50.8,367.7L50.8,367.7z M310.3,407.4c0.4-2.7,4.7-5.1,9-3.9c5.5,0.4,11.7,5.1,10.5,8.6
		c-0.4,3.5-6.2,6.2-12.1,3.5C312.6,413.3,309.1,411,310.3,407.4L310.3,407.4z M318.1,432.8c3.5-0.4,12.9-1.2,12.1,3.9
		c-0.4,4.7-2.7,5.8-10.1,7c-7.4,1.2-12.1-3.5-12.1-5.8C308.3,433.9,314.2,433.6,318.1,432.8L318.1,432.8z M298.6,379.4
		c4.3,0,8.2,3.5,7,6.2c-1.2,2.7-1.6,6.2-9.3,4.7c-2.7-1.2-6.2-5.1-6.2-7.4C290,378.2,294.7,378.6,298.6,379.4L298.6,379.4z
		 M256.5,389.1c0.8-3.9,8.2-4.7,11.7-3.1c3.9,2,6.2,7,3.9,9.4c-2.7,2-5.5,1.2-10.1,0S256.1,393,256.5,389.1L256.5,389.1z
		 M251.4,407.1c5.8,0,12.9,4.3,9.7,7.4c-2.3,2.3-4.7,3.9-10.9,3.9c-6.2,0-8.6-2.3-8.6-5.8C241.7,409.4,245.6,406.3,251.4,407.1
		L251.4,407.1z M241.3,432.8c6.6-1.2,11.3,2.7,10.9,6.2c0,3.5-5.8,6.6-9.7,6.6c-4.7,0-11.3-1.2-12.1-6.6
		C229.6,434.3,237.8,433.6,241.3,432.8L241.3,432.8z M223.4,464c-1.2-3.5,7-5.1,10.9-5.8c3.5-0.4,10.9,1.2,9.7,4.7
		c-1.2,2.7-3.5,6.2-9.7,6.2C228.1,468.6,224.6,466.7,223.4,464L223.4,464z M233.1,485.8c-1.2,5.1-5.8,5.8-9.4,6.2
		c-3.9,0.8-10.1,0-10.1-3.9c0-4.3,5.5-7.4,8.6-8.6C228.5,478.4,234.3,481.9,233.1,485.8L233.1,485.8z M216,390.3
		c2.3,0.4,9.7,2.3,10.1,5.9c0,2.7,1.9,6.6-6.2,6.6c-7.4,0-10.5-1.2-12.1-5.1C205.5,393,213.7,389.5,216,390.3L216,390.3z M214.8,418
		c7.8,1.6,9,1.6,9.7,5.1c0.4,3.5-5.5,5.8-12.1,7c-7,1.2-10.9-1.9-12.9-5.5C198.5,421.5,207,416.8,214.8,418L214.8,418z M201.6,449.9
		c3.9-0.4,8.6,1.2,8.6,5.5c-0.8,3.5-3.1,5.1-7,6.6c-3.5,1.9-11.3-1.2-12.5-3.9C189.5,455.4,197.3,450.7,201.6,449.9L201.6,449.9z
		 M194.6,482.3c0,3.5-7,6.2-10.5,7c-2.7,0.4-5.1,2.7-7.4,0.4c-2.7-2.3-2.3-4.7-0.4-6.2c1.2-1.6,8.6-5.1,10.1-5.8
		C189.5,476.4,195,479.5,194.6,482.3L194.6,482.3z M178.6,399.3c6.2,0,9,3.5,10.1,6.6c0.8,2.7,0,4.3-1.6,5.5
		c-1.2,1.2-8.2,0.8-12.1-1.6C169.6,407.1,171.6,399.3,178.6,399.3L178.6,399.3z M147.4,313.1c8.6-0.8,10.1,10.9,8.2,21.4
		c-3.1,10.1-4.3,10.1-8.2,9c-3.5-1.2,0-7-2.3-9.8C142.4,331.5,137.7,313.5,147.4,313.1L147.4,313.1z M141.2,269.5
		c7.8-1.2,5.1,8.6,3.5,11.3c-2.3,3.5,0.4,8.6-4.7,8.2c-5.5-0.8-4.7-7.4-5.5-10.9C134.2,274.2,136.5,269.9,141.2,269.5L141.2,269.5z
		 M113.5,304.6c1.6-2.3,2.7-8.2,7.8-8.6c3.5-0.8,2.3,9,1.9,13.6c0,4.7,1.2,10.5-5.1,8.2C111.6,315.5,111.6,307.3,113.5,304.6
		L113.5,304.6z M89.4,305.7c1.2,0,1.2-0.8,1.2-0.8s5.5-9,10.9-6.2c2.3,0.4-3.5,11.7-4.3,13.6c-1.2,3.1-5.1,5.5-8.6,2.3
		C85.1,311.2,88.2,305.7,89.4,305.7L89.4,305.7z M73,326.4c3.1,1.2,0,11.3-1.2,16c-0.4,4.7-3.9,7-7.4,5.8c-3.5-0.4-1.6-8.6-2.7-8.6
		C60.9,338.9,65.6,325.2,73,326.4L73,326.4z M61.7,403.9c2.3,0.8,2.7,5.5,2.7,6.2c0,2,2.3,3.1,3.5,6.6c0.8,2.7-1.2,5.5-3.9,6.2
		c-3.1,0-5.8-5.8-5.8-5.8C58.2,418,55.9,403.6,61.7,403.9L61.7,403.9z M71.5,451.9c-2.3,1.6-5.1,2.7-8.6,2.3
		c-3.5-1.2-7.4-7-4.3-10.5c3.1-2.7,7.8-0.4,10.1,1.2C71.1,446.8,73.8,449.9,71.5,451.9L71.5,451.9z M72.6,386
		c-4.7-0.8-2.7-9.7-3.5-9.7c0,0,4.7-16,9.4-13.2c3.5,2.3,1.6,12.9,1.2,17.9C78.9,385.6,76.5,387.2,72.6,386L72.6,386z M81.2,415.6
		c-1.6-0.8-3.5-10.9,3.5-11.7c2.7,0,7.4,5.5,7.4,8.6c-0.4,3.5,0.8,8.2-5.8,7.8C80,419.5,82.4,416,81.2,415.6L81.2,415.6z
		 M97.9,465.5c-2.3,0-7-0.4-9.7-4.7c-2.3-3.1-3.1-8.6,0-10.1c2.3-1.2,8.6,2.7,11.3,8.2C102.6,464,99.5,465.5,97.9,465.5L97.9,465.5z
		 M106.1,446c-3.1-0.4-6.6-1.6-9.4-5.1c-2.7-3.1-2.7-9.7,1.6-10.5c6.6-1.2,10.5,4.7,12.9,9.7C112.7,445.6,108.1,446,106.1,446
		L106.1,446z M112.4,418.4c-3.1,0-4.7-1.2-6.2-3.5c-2.3-1.6-3.1-8.6,3.1-8.6c3.1,0,7.8,2.3,8.2,5.8C118.2,416,115.1,418,112.4,418.4
		L112.4,418.4z M118.2,339.6c4.3,0,12.1,4.7,9.7,18.3c-3.1,13.3-4.7,8.6-7.4,9.4c-2.3,1.2-0.8-7.4-2.3-9.4
		C115.1,354.4,107.7,339.6,118.2,339.6L118.2,339.6z M126,467.9c-2.7-1.2-6.2-2.7-6.6-7c-1.2-3.9,3.1-5.1,6.6-4.3
		c4.3,0.4,7.4,3.9,7.4,6.6C133.4,466.7,128.3,468.6,126,467.9L126,467.9z M133.4,441c-2,0.4-3.1,1.6-7.4,0.4
		c-3.9-1.6-12.1-10.1-4.7-14.8c2.3-1.9,11.3,0.4,13.2,7C137.7,439,135.7,439.8,133.4,441L133.4,441z M134.2,414.5
		c-1.2-1.2,1.2-7.4,7.4-5.8c5.8,1.2,7.4,5.1,7,8.6c-1.2,3.5-5.1,3.5-8.2,3.1C137.7,419.5,135.7,415.6,134.2,414.5L134.2,414.5z
		 M157.5,482.3c-1.9,1.2-6.2,2.3-12.1,1.6c-5.1-0.4-6.2-2-4.3-5.1c2.3-2.7,3.9-3.5,8.6-5.1c4.7-1.9,10.1,0.4,11.3,2.3
		C162.2,477.6,159.9,481.9,157.5,482.3L157.5,482.3z M165.3,456.9c-3.1,2-9.7,0-11.7-4.7c-1.6-5.1,1.2-6.2,3.5-7.4
		c2.7-0.4,9.4,2.7,10.5,7C168.1,454.6,168.1,455.4,165.3,456.9L165.3,456.9z M171.6,434.3c-2.7,0-12.9-1.6-10.9-6.6
		c1.2-5.5,7-5.5,10.1-4.7c1.9,0,10.1,2.7,8.2,7.4C177.8,435.5,174.3,433.9,171.6,434.3L171.6,434.3z M261.2,526.3
		c0,2.7-1.6,4.7-3.9,4.7c-2.7,0-10.5-2-14.4,1.2c-3.9,2.7-6.2,7.8-5.8,11.3c0.8,2.7,0.8,7-1.2,8.2c-1.6,1.6-9-1.2-12.1-0.8
		c-2.7,0-12.5,2.3-14.8,7.4c-2.7,4.7-0.8,8.2-2.3,9.4c-1.6,2-3.9,2.7-6.2,2.7c-2.3,0.8-12.9-0.8-14.4,0.8c-2.3,1.6-8.2,8.6-9.7,6.2
		c-1.9-2.3-4.7-1.2,0.4-9.7c2.3-3.9,8.6-8.2,9.4-8.2c0.4,0,8.2,0.8,9.7-0.4c1.6-1.6,6.2-10.9,8.2-12.9c7.8-6.2,7.4-3.9,9.7-5.1
		c2.3-0.4,10.1,1.2,10.9-0.4c1.2-2.3,5.8-10.9,9.7-14.4c5.1-4.7,13.2-5.5,14.4-6.2c0.4-1.2,2.3-4.3,3.5-6.6c1.6-2.3,8.6-8.2,13.3-7
		c2.3,0.8-5.8,11.7-5.8,14C258.8,522.8,261.2,523.2,261.2,526.3L261.2,526.3z M267,493.2c-5.8,1.2-12.1,0.8-12.5-2.3
		c-0.8-2.3,1.2-5.9,5.1-7.4c3.5-1.6,7-0.4,9.7-0.4c2.3,0,8.2,0,7.4,1.9C276.4,486.9,272.9,492,267,493.2L267,493.2z M275.2,466.7
		c-6.6,0.8-12.9-1.2-12.1-3.9c1.2-3.1,5.1-5.8,10.9-5.8c5.8-0.4,9.7,1.2,9.7,3.9C283.8,463.2,281.4,466.3,275.2,466.7L275.2,466.7z
		 M288.4,435.1c-1.2,4.7-3.5,5.8-7.8,6.2c-4.3,0-12.9-1.2-12.9-7.8c0-3.1,9-4.7,10.9-4.7C280.7,428.1,288.8,430.4,288.4,435.1
		L288.4,435.1z M294.7,410.2c-0.8,3.5-5.8,6.6-9.7,5.5c-4.3-1.2-9.7-2-9.3-5.8c0-2.3,3.5-5.8,9.7-5.1
		C292,404.7,295.1,407.4,294.7,410.2L294.7,410.2z M315.3,485.8c-1.6,1.6-3.5,5.8-8.2,7c-4.3,0.4-9.7,2.3-12.1-3.1
		c-1.2-2.7,0.8-5.1,4.3-7.4c2.7-1.6,12.1-1.6,12.1-1.6s1.2-3.1,3.5-1.2C317.3,481.1,317.3,483.8,315.3,485.8L315.3,485.8z
		 M326.2,465.1c-3.9,0-13.3,0.4-13.6-4.3c-1.2-1.9,5.1-4.3,9-5.5c4.7-1.2,7.8-1.2,9.4-0.8c1.6,0.8,5.8,2.3,5.8,4.3
		C336.8,460.8,329.7,464.3,326.2,465.1L326.2,465.1z M331.3,387.2c-1.6-3.9-1.9-7.4-0.4-9c2.7-2,12.1,1.6,13.6,5.8
		c2.3,3.9,2.3,8.6-1.6,9.8C339.1,394.2,332.5,390.7,331.3,387.2L331.3,387.2z M345.3,409.8c-0.8-3.5,6.2-6.2,10.9-5.8
		c3.9,0.8,10.9,4.7,9.7,8.6c-1.6,4.3-2.3,5.5-5.8,5.5S345.7,415.6,345.3,409.8L345.3,409.8z M348.8,437.5c-0.8-3.1,6.2-4.7,9-4.7
		c2.3,0,12.9,1.6,9.7,5.8c-2,3.9-6.2,5.8-9.7,5.8C355.1,444.5,350,440.2,348.8,437.5L348.8,437.5z M369.9,470.2
		c-3.9,2.7-6.6,2.7-11.3,2.7c-4.3,0-5.1-2.7-5.1-6.2c0-2.7,4.3-4.7,6.2-5.1c2.3-0.8,5.1,0,7.4-0.8c1.6-0.4,1.6-0.4,3.9-1.2
		c2-0.4,3.1-0.8,3.5,2.3C375.3,465.1,374.2,467.9,369.9,470.2L369.9,470.2z M377.7,391.5c-2,1.2-2,2.3-5.8,1.6
		c-4.7-0.4-7-7.4-8.2-7.8c-1.6-0.8-5.1-4.7-3.5-6.6c2-1.6,10.5-1.6,14.4,1.9C379.2,384.5,379.2,390.3,377.7,391.5L377.7,391.5z
		 M386.2,407.4c1.2-1.2,3.9-2.7,7.4-2.7c3.5,0,8.2,2.3,9.7,4.7c1.2,2.7,1.2,5.1-1.2,7.4c-1.6,1.6-12.1-1.2-13.6-3.1
		C386.2,411.3,385.5,409.4,386.2,407.4L386.2,407.4z M389,442.5c-1.2,1.2-1.6-2.7,0-4.7c2.3-1.6,7.4-4.3,10.5-4.3
		c2.7,0,7.4,0.8,6.6,3.1c-0.4,2.3-1.2,8.2-7.4,8.2C392.5,445.6,390.1,442.1,389,442.5L389,442.5z M401,471.4
		c-5.1,0.4-8.6-0.4-9.3-4.7c-0.4-3.9,3.5-5.1,4.3-5.1c0.4,0,4.7-0.8,5.8-1.2c2.7,0,7.4-3.5,9.7,0C412.7,462.8,406.1,470.2,401,471.4
		L401,471.4z M417.8,392.6c-0.8,1.6-2.3,6.2-8.2,4.7c-5.8-2-8.6-4.7-10.1-7c-1.2-2.3-5.5-5.8-1.9-9.4c1.9-1.6,10.9,1.9,15.2,5.1
		C416.2,389.5,418.2,390.3,417.8,392.6L417.8,392.6z M421.7,409.4c1.2-2.3,5.8-3.5,9.4-3.5c3.5,0.4,8.2,1.6,8.9,5.5
		c0.8,3.5,0,4.7-1.2,6.6c-1.9,1.6-9-0.8-11.7-1.9C424,414.9,420.5,411,421.7,409.4L421.7,409.4z M422.5,436.3c0-2.7,3.9-2.3,5.8-2.7
		c0.8-0.8,1.9-1.9,5.1-2.3c2.3-0.8,7.4-0.8,7.4,1.6c0.8,1.6,0,5.1-6.2,7C427.5,442.1,422.9,439,422.5,436.3L422.5,436.3z M445.1,462
		c0,0-5.1,4.7-6.2,6.6c-1.9,1.2-5.1,4.3-9.7,0.4c-2.7-2.7,0-7.4,2-8.6c1.6-1.6,13.2-8.6,15.6-5.1C448.6,458.9,445.1,462,445.1,462
		L445.1,462z M452.1,393c-2.3,3.5-5.8,3.1-10.1,2.3c-3.9-0.4-10.9-5.1-10.5-9.8c0.8-3.9,7.8-2.7,11.7-1.2
		C447.4,386,454.8,389.5,452.1,393L452.1,393z M498.4,446.8c-2.3,0-8.2-5.8,1.2-7c3.5-0.8,3.9,1.6,3.9,5.1
		C503.5,447.6,500.4,446.8,498.4,446.8L498.4,446.8z M503.5,419.5c-3.9-1.2-5.5-2.7-3.1-5.8c2.7-2.3,3.9-1.6,7.4-0.4
		c2.7,1.2,3.5,3.5,2.7,5.8C510.1,421.9,507.8,420.7,503.5,419.5L503.5,419.5z M525.7,503.7c-5.5-1.2-10.5-7.8-13.2-11.7
		c-2.3-4.7-3.1-13.2-1.2-17.1c1.6-4.7,3.9-5.1,6.2-3.5c2.7,1.6,1.2,13.3,2.7,13.6c1.9,1.2,3.1,9.4,8.2,10.5c1.6,0,3.5,3.9,3.5,3.9
		S530,504.9,525.7,503.7L525.7,503.7z"/>
</g>
</svg>
