<?xml version="1.0" encoding="utf-8"?>
<!-- Generator: Adobe Illustrator 18.1.0, SVG Export Plug-In . SVG Version: 6.00 Build 0)  -->
<!DOCTYPE svg PUBLIC "-//W3C//DTD SVG 1.1//EN" "http://www.w3.org/Graphics/SVG/1.1/DTD/svg11.dtd">
<svg version="1.1" id="Layer_1" xmlns="http://www.w3.org/2000/svg" xmlns:xlink="http://www.w3.org/1999/xlink" x="0px" y="0px"
	 viewBox="0 0 870.6 870.5" enable-background="new 0 0 870.6 870.5" xml:space="preserve">
<g>
	<path fill-rule="evenodd" clip-rule="evenodd" fill="#ED1C24" d="M668.5,469.7c-2.7,0-10,0.8-14.3,1.5c-0.8,2.3-12,7.3-9.3,21.2
		c1.9,8.5,6.2,14.7,4.2,16.2c-5.4,3.1-13.1-2.3-20.1-5c-6.9-3.5-17.7-8.1-24.7,0.8c-6.2,8.5,15,7.3,33.2,17
		c13.5,6.9,22.8,5.4,44.4,7.7c21.6,1.5,22.8-7.7,26.2-7.3c3.1,0.8,1.9,9.3,12,12.3c4.6,1.2,15-4.6,17-3.9c3.1,0.4,3.1,6.6,10.4,9.6
		c8.1,2.3,10.4-2.3,13.1-3.5c2.3-1.2,2.7,4.6,7.3,5.8c4.6,0.8,11.6,0.4,15,0.8c2.7,1.2,0,4.6,7.7,5.8c6.9,1.2,9.3-2.7,12.7-1.5
		c2.7,1.2,6.2,8.9,20.8,7.7c9.3-0.8,7-6.6,4.6-10.8c-2.7-4.2-22.8-7.7-55.2-19.3c-54.8-18.9-69.4-14.3-81-36.7
		c-4.6-9.3-7.3-14.3-8.1-17.4C681.7,470.1,675.9,470.5,668.5,469.7L668.5,469.7z"/>
	<path fill="none" stroke="#FFFFFF" stroke-width="0.216" stroke-miterlimit="2.6131" d="M853,531.9c-2.3-1.5-10,5.8-13.1,4.6
		c-3.5-1.2-6.2-5.8-8.9-6.9c-3.5-1.2-5.4,0.8-8.9,0c-2.7-0.4-0.8-4.6-3.1-5.8c-3.1-1.2-4.6,1.9-8.1,0.8c-2.7-0.8-4.6-5.8-6.9-6.9
		c-2.7-0.8-3.5,2.7-6.5,1.5c-4.2-1.5-5.4-4.6-8.1-5.8c-2.3-1.5-7.3,3.1-10.8,1.2c-3.5-1.5-3.5-13.5-5.8-14.7
		c-2.7-1.2-11.2,8.5-14.7,6.2c-3.1-1.5-1.9-10.4-4.6-12c-2.3-1.5-12.7,7.3-15.4,6.2c-2.3-1.2-2.7-5.8-6.2-6.2
		c-3.1-0.4-8.5,3.9-12,2.7c-6.9-2.7-15.4-1.5-25.8-26.2c-1.2-3.1-3.5-5-5.8-3.9c-6.2,2.3-3.9,4.6,4.6,21.6
		c11.6,22.4,26.2,17.7,81,36.7c32.4,11.6,52.5,15.1,55.2,19.3c2.3,4.2,4.6,10-4.6,10.8c-14.7,1.2-18.1-6.6-20.8-7.7
		c-3.5-1.2-5.8,2.7-12.7,1.5c-7.7-1.2-5-4.6-7.7-5.8c-3.5-0.4-10.4,0-15-0.8c-4.6-1.2-5-6.9-7.3-5.8c-2.7,1.2-5,5.8-13.1,3.5
		c-7.3-3.1-7.3-9.3-10.4-9.6c-1.9-0.8-12.3,5-17,3.9c-10-3.1-8.9-11.6-12-12.3c-3.5-0.4-4.6,8.9-26.2,7.3
		c-21.6-2.3-30.9-0.8-44.4-7.7c-18.1-9.6-39.4-8.5-33.2-17c6.9-8.9,17.7-4.2,24.7-0.8c7,2.7,14.7,8.1,20.1,5
		c1.9-1.5-2.3-7.7-4.2-16.2c-2.7-15,10.4-19.7,9.3-22c-1.9-2.7-9.3-6.6-27-3.9c-12,1.9-35.1,20.1-40.9,22.8
		c-5.8,3.5-29.7,16.2-42.8-2.7c-13.1-19.3-1.2-39,4.2-45.1c5-6.2,13.5-10.8,16.6-6.2c4.2,7.3-5.8,9.3-10,14.3c-3.9,5-10,22-3.1,29.7
		c7.3,7.7,20.8,8.5,36.3-3.1c12.7-9.6,33.6-23.2,54-21.6c20.8,1.2,31.6,10.8,34.7,11.6c3.1,0.4,5.8-6.6,10-8.1
		c3.1-1.2,7.3,2.7,10,1.5c2.3-1.5,5-7.7,8.1-8.9c3.5-1.2,12,4.6,14.7,2.7c2.3-1.2,1.9-8.5,5.8-8.9c3.9-0.8,10.4,6.2,13.1,5
		c3.5-1.9,3.5-5.8,6.9-5.8c2.7,0,8.9,9.3,12,8.5c2.3-0.4,1.5-9.6,5-10.8c3.5-1.2,12.3,6.2,15.4,5c2.3-1.2,2.7-12.3,6.9-14.7
		c3.9-1.5,7.7,4.6,10,3.5c3.1-1.2,5-13.9,8.5-14.3c3.1-0.4,9.3,3.5,12,2.7c2.3-0.4,1.2-12,5.8-14.3c4.6-1.5,10.4,5.8,12,5.4
		c2.3-0.8,3.5-6.9,5.8-7.3c2.7-0.8,9.6,5,13.1,4.2c2.7-1.2,1.5-9.6,4.6-10c2.3-0.8,12,1.2,11.2-9.6c-0.4-10.8-14.3-21.2-27.4-21.2
		c-23.9,0-47.8,10.4-68.3,14.3c-20.4,3.5-62.5,15.8-72.9,17.8c-10.4,1.5-20.4-4.2-11.2-11.6c7.3-6.9,11.2-1.5,11.2-3.9
		c0-2.3-4.6-4.6-11.2-5.8c-6.9-1.2-15,5.8-23.9,4.6c-8.9-1.2-17.7-8.1-27.4-6.2c-23.5,2.7-27,13.1-39,17.4
		c-12,4.6-20.8,1.2-27.4,1.9c-16.2,2.3-22,12-33.9,10.8c-14.3-1.2-21.2-9.3-36.6-13.5c-14.7-4.6-42.8-8.9-49.4-11.2
		c-6.9-2.7-37.4-10-44.7-10.8c-8.1-1.2-12,1.2-15.4,1.2c-3.9,0-8.9-2.3-14.3-2.7c-5-0.8-13.1-1.2-16.6,0c-3.1,1.5-4.2,1.5-8.5,0.4
		c-3.5-0.4-16.2-2.7-21.6-1.9c-7.7,0.4-10.8,5.4-16.6,6.2c-5.4,0.4-10.8-2.3-17-1.2c-6.2,1.2-11.2,3.5-16.6,5
		c-5,1.9-14.3,0.8-18.5,1.2c-11.6,2.7-13.1,8.5-17.4,8.5c-3.9,0-17.7-2.3-22,0c-4.6,1.9-8.5,5.4-12,5.8c-4.2,0.4-19.7,2.7-29.3,1.5
		c-5.4-0.4-14.7,4.2-18.5,5.4c-4.6,1.2-15.4,1.2-18.5-4.2c-3.1-6.6,5.4-16.2,19.7-27.8c9.6-7.3,64-45.5,152.4-59.8
		c69.1-11.6,149.7-40.5,166.7-58.3c7.3-7.3,37-32.4,44.4-47.9c7.3-15.4,9.6-24.3,5.8-23.9c-3.9,1.2-8.5,9.3-15.8,12
		c-7,2.3-13.1-1.5-18.5,0.8c-5,1.5-10.8,9.6-16.2,10c-5.8,0.8-8.1-4.2-12.4-2.3c-4.2,3.1-11.2,8.1-15.8,9.3c-9.6,1.5-10-9.6-18.9-5
		c-9.3,4.6-15.8,12.3-25.1,14.3c-8.5,1.2-7.3-5.4-13.1-5.4c-9.3,0-18.1,12.7-22.4,12.7c-4.2,0-7.7-6.9-13.1-6.2
		c-5,0.4-20.8,12.3-27,14.3c-6.6,1.2-7.7-8.9-13.1-8.1c-6.6,0.4-18.5,12-25.1,13.5c-6.9,1.2-10.8-3.5-15.4-3.5
		c-4.6,0-18.9,12-25.8,13.9c-10,2.3-10.8-10.4-21.6-9.6c-7.7,0.4-15.8,10.8-22,11.2c-6.6,0.8-9.3-4.2-16.6-2.7
		c-8.1,2.3-23.9,13.1-29.3,14.3c-5,1.2-8.9-1.9-15,0c-11.6,3.5-22.4,18.9-29.7,22.8c-8.1,4.6-13.9,2.3-18.1,5
		c-7.7,5.4-8.9,16.2-16.2,19.3c-6.6,3.5-6.2-1.5-12.3,2.3c-10.4,7.7-6.6,16.2-9.6,20.1c-3.1,3.9-11.6,6.9-16.6,13.1
		c-5,5.8-5,9.3-6.9,13.1c-2.3,3.9-11.2,15.4-13.1,20.5c-1.2,5,1.2,10.4-1.2,14.3c-1.5,3.5-5,9.3-6.9,13.5c-3.1,10,1.2,20.1,0.8,23.9
		c-0.8,3.5-4.6,9.3-4.6,13.9c0,4.6,4.6,13.5,3.5,20.4c-1.2,6.9-15.4,52.9-7.3,73.7c8.9,21.6,22,33.2,26.6,31.3
		c5-1.5,1.9-10.8,6.9-19.3c5-8.1,10.8-18.1,15.4-11.2c3.9,6.6-9.3,6.6-10.4,25.5c-1.5,18.1,0.8,10.4,0,15.8
		c-0.4,5.8-12,16.6-12,21.6c0,5.4,1.2,18.9,18.1,33.2c10.4,9.3,12.7,15.4,15.4,15.8c2.3,0.8,4.6-10.8,9.6-13.1
		c6.9-3.1,22,10.4,24.7,10c3.5-1.2,4.6-19.7,10.8-23.2c6.2-2.7,21.2,9.3,24.3,7.7c3.1-2.3-0.4-13.9,1.2-18.5
		c1.9-4.2,10.4-5.4,7.7-13.1c-2.3-7.7-3.5-22.8-30.9-24.7c-8.1-0.8-19.3-1.9-12-10.4c8.5-8.5,17.7-39.7-2.3-64.1
		c-8.5-10.4-27.8-4.6-33.2-2.3c-9.6,3.5-19.3,16.2-23.1,12.7c-3.5-3.5,7.7-17.8,25.1-22.8c17-5.4,38.6-4.2,47.1,17
		c15,37,0,54.4,1.9,58.3c2.3,3.9,10.8-0.4,22.8,6.9c17,11.2,14.7,20.8,18.9,24.3c3.9,3.1,24.3,4.6,43.2,5.8
		c19.3,1.2,40.5,6.2,49.4,1.2c14.3-7.3,15.4-34.7,48.6-54.8c16.6-10,38.6-20.1,63.3-15.8c27.4,3.9,27.8,7.7,25.5,11.2
		c-0.4,1.9-1.2,4.6-1.5,4.2c-13.1-6.9-32-7.7-43.6-5.4c-17,3.1-45.9,7.7-67.1,44.8c-20.8,37,12.7,37.4,16.2,38.6
		c3.9,1.5,10,3.5,9.6,14.3c-0.8,10.8,2.7,17,6.6,23.9c4.6,6.2,12,11.2,12,11.2s5.4-12.3,11.6-15c6.2-3.5,13.5,2.7,17,6.6
		c10.8,13.9,6.2-12,13.9-14.7c11.2-3.5,15.4,13.1,21.6,10c11.2-5,5-12.7,13.1-15.8c8.5-2.3,13.5,4.6,17,2.3
		c3.9-2.7,3.5-26.6-3.9-36.3c-8.1-10-20.1-27-45.5-27c-25.1,0-33.2-3.5-32-8.5c1.2-5,6.2-8.5,12.3-6.2c9.7,3.5,10.8,2.7,26.2,3.5
		c22.4,0.4,17.4,10,35.9,18.1c13.9,5.8,32-3.9,54.4,0c22.8,3.9,41.7,8.1,62.5,6.9c39.4-1.2,83-18.5,91.4-19.7
		c8.9-1.5,13.5-0.4,13.5-3.1c0-2.3-38.2-8.1-35.9-17.4c3.1-8.9,21.2-1.5,46.3,4.2c25.1,5.4,78.7,10,99.5,8.9
		c22.4-0.4,60.6,9.6,91.8,2.3c15.8-3.9,30.9-13.5,32.4-24.3C870.3,542.3,856,534.2,853,531.9L853,531.9z M637.7,399.5
		c6.2-1.2,17,1.5,14.3,8.5c-2.3,6.9-3.5,5.8-8.5,6.9c-5,1.2-15.4,2.3-18.1-2.3C623,408,630.7,401,637.7,399.5L637.7,399.5z
		 M480.7,221.6c3.9,1.9,4.2,7.3,3.9,10.8c-1.2,3.1-3.1,6.2-5,6.2c-3.1,0-3.1-4.2-4.2-8.5C474.1,226.6,476.4,219.3,480.7,221.6
		L480.7,221.6z M445.2,232.4c8.1,1.9,5,9.3,3.5,17.7c-1.2,5.8-6.2,7.3-6.9,8.5c-2.7,5-3.5-17-3.5-17S440.6,231.3,445.2,232.4
		L445.2,232.4z M405.8,238.6c3.1-0.4,8.5,11.6,5.4,22c-3.5,10-7.7,10-7.7,10s-1.2-11.2-2.3-12.3C400,256.3,397.7,240.5,405.8,238.6
		L405.8,238.6z M370.3,244.4c7.3-2.7,9.3,13.9,5.8,22.4c-3.1,8.9-3.1,14.3-8.5,10.8c-6.6-3.1-1.2-13.9-3.1-17
		C362.2,255.2,364.2,247.5,370.3,244.4L370.3,244.4z M331,253.6c9.3-1.2,8.1,13.5,5.8,21.6c-2.7,7.3-4.6,10.8-8.5,9.6
		c-4.2-1.5,1.2-11.2-1.2-15.4C324.1,265.6,326,254,331,253.6L331,253.6z M290.5,261c5.4,1.2,9.3,9.3,6.6,20.5
		c-2.3,11.6-5.8,14.3-8.9,14.3c-3.1,0,1.2-18.1-1.5-18.1C284.3,277.6,283.9,259.8,290.5,261L290.5,261z M250.8,274.5
		c3.5,0,11.2,6.6,7.3,18.5c-3.9,12.3-3.9,11.2-7.3,12.3c-3.9,0.8-1.2-7.3-3.5-12C244.6,289.5,241.1,274.1,250.8,274.5L250.8,274.5z
		 M214.9,287.2c6.9-0.4,9.6,14.3,8.1,20.5c-1.2,6.2-3.5,13.9-7.7,12.7c-3.9-0.8,0.8-12-2.7-12C209.9,308.4,204.5,287.6,214.9,287.2
		L214.9,287.2z M192.1,329.3c-4.6,8.5-4.2,8.5-7.3,8.5c-3.1,0-1.2-12.3-4.6-12.3c-3.1,0-5.8-18.1,3.9-18.9
		C194.4,306.1,194.8,323.1,192.1,329.3L192.1,329.3z M176.7,271.4c2.3,0,8.1,3.9,2.7,9.6c-5,5.8-5.4,9.6-10,7.3
		C164.7,286.8,169.4,271.8,176.7,271.4L176.7,271.4z M45.5,393.3c3.1,0,6.9,7.7,6.6,10.8c-0.8,2.3-1.2,6.2-5.8,7.3
		c-4.2,1.2-5.8-5.8-5.8-6.9C40.1,403,39,392.6,45.5,393.3L45.5,393.3z M50.2,443.9c-2.3,0-5,0-6.9-1.5c-1.2-1.9-8.9-9.6-3.1-17.4
		c0.4-1.2,10,5.4,12,9.6C53.2,437.7,53.2,443.9,50.2,443.9L50.2,443.9z M58.3,379.4c-1.2,1.9-4.2,3.1-6.2,1.9
		c-3.1-1.9-3.1-8.1-1.9-9.3c0.8-0.4,1.2-9.6,7.3-8.5c3.1,0.4-0.4,8.1,0,8.9C58.3,373.6,59.8,377.9,58.3,379.4L58.3,379.4z
		 M315.2,418.8c0.4-2.7,4.6-5,8.9-3.9c5.4,0.4,11.6,5,10.4,8.5c-0.4,3.5-6.2,6.2-12,3.5C317.5,424.6,314,422.3,315.2,418.8
		L315.2,418.8z M322.9,443.9c3.5-0.4,12.7-1.2,12,3.9c-0.4,4.6-2.7,5.8-10,6.9c-7.3,1.2-12-3.5-12-5.8
		C313.3,445,319,444.7,322.9,443.9L322.9,443.9z M303.6,391c4.2,0,8.1,3.5,6.9,6.2c-1.2,2.7-1.5,6.2-9.3,4.6c-2.7-1.2-6.2-5-6.2-7.3
		C295.1,389.9,299.7,390.2,303.6,391L303.6,391z M261.9,400.7c0.8-3.9,8.1-4.6,11.6-3.1c3.9,1.9,6.2,6.9,3.9,9.3
		c-2.7,1.9-5.4,1.2-10,0C262.7,405.7,261.6,404.5,261.9,400.7L261.9,400.7z M256.9,418.4c5.8,0,12.7,4.2,9.6,7.3
		c-2.3,2.3-4.6,3.9-10.8,3.9c-6.2,0-8.5-2.3-8.5-5.8C247.3,420.7,251.1,417.6,256.9,418.4L256.9,418.4z M246.9,443.9
		c6.6-1.2,11.2,2.7,10.8,6.2c0,3.5-5.8,6.6-9.6,6.6c-4.6,0-11.2-1.2-12-6.6C235.3,445.4,243.4,444.7,246.9,443.9L246.9,443.9z
		 M229.2,474.8c-1.2-3.5,6.9-5,10.8-5.8c3.5-0.4,10.8,1.2,9.6,4.6c-1.2,2.7-3.5,6.2-9.6,6.2C233.8,479.4,230.3,477.5,229.2,474.8
		L229.2,474.8z M238.8,496.4c-1.2,5-5.8,5.8-9.3,6.2c-3.9,0.8-10,0-10-3.9c0-4.2,5.4-7.3,8.5-8.5C234.2,489,240,492.5,238.8,496.4
		L238.8,496.4z M221.8,401.8c2.3,0.4,9.6,2.3,10,5.8c0,2.7,1.9,6.6-6.2,6.6c-7.3,0-10.4-1.2-12-5C211.4,404.5,219.5,401,221.8,401.8
		L221.8,401.8z M220.7,429.2c7.7,1.5,8.9,1.5,9.6,5c0.4,3.5-5.4,5.8-12,6.9c-6.9,1.2-10.8-1.9-12.7-5.4
		C204.5,432.7,212.9,428.1,220.7,429.2L220.7,429.2z M207.5,460.9c3.9-0.4,8.5,1.2,8.5,5.4c-0.8,3.5-3.1,5-6.9,6.6
		c-3.5,1.9-11.2-1.2-12.3-3.9C195.6,466.3,203.3,461.6,207.5,460.9L207.5,460.9z M200.6,492.9c0,3.5-6.9,6.2-10.4,6.9
		c-2.7,0.4-5,2.7-7.3,0.4c-2.7-2.3-2.3-4.6-0.4-6.2c1.2-1.5,8.5-5,10-5.8C195.6,487.1,201,490.2,200.6,492.9L200.6,492.9z
		 M184.8,410.7c6.2,0,8.9,3.5,10,6.6c0.8,2.7,0,4.2-1.5,5.4c-1.2,1.2-8.1,0.8-12-1.5C175.9,418.4,177.8,410.7,184.8,410.7
		L184.8,410.7z M153.9,325.4c8.5-0.8,10,10.8,8.1,21.2c-3.1,10-4.2,10-8.1,8.9c-3.5-1.2,0-6.9-2.3-9.6
		C148.9,343.6,144.3,325.8,153.9,325.4L153.9,325.4z M147.7,282.2c7.7-1.2,5,8.5,3.5,11.2c-2.3,3.5,0.4,8.5-4.6,8.1
		c-5.4-0.8-4.6-7.3-5.4-10.8C140.8,286.8,143.1,282.6,147.7,282.2L147.7,282.2z M120.4,316.9c1.5-2.3,2.7-8.1,7.7-8.5
		c3.5-0.8,2.3,8.9,1.9,13.5c0,4.6,1.2,10.4-5,8.1C118.4,327.7,118.4,319.6,120.4,316.9L120.4,316.9z M96.4,318.1
		c1.2,0,1.2-0.8,1.2-0.8s5.4-8.9,10.8-6.2c2.3,0.4-3.5,11.6-4.2,13.5c-1.2,3.1-5,5.4-8.5,2.3C92.2,323.5,95.3,318.1,96.4,318.1
		L96.4,318.1z M80.2,338.5c3.1,1.2,0,11.2-1.2,15.8c-0.4,4.6-3.9,6.9-7.3,5.8c-3.5-0.4-1.5-8.5-2.7-8.5
		C68.3,350.9,72.9,337.4,80.2,338.5L80.2,338.5z M69.1,415.3c2.3,0.8,2.7,5.4,2.7,6.2c0,1.9,2.3,3.1,3.5,6.6
		c0.8,2.7-1.2,5.4-3.9,6.2c-3.1,0-5.8-5.8-5.8-5.8C65.6,429.2,63.3,414.9,69.1,415.3L69.1,415.3z M78.7,462.8
		c-2.3,1.5-5,2.7-8.5,2.3c-3.5-1.2-7.3-6.9-4.2-10.4c3.1-2.7,7.7-0.4,10,1.2C78.3,457.8,81,460.9,78.7,462.8L78.7,462.8z
		 M79.9,397.6c-4.6-0.8-2.7-9.6-3.5-9.6c0,0,4.6-15.8,9.3-13.1c3.5,2.3,1.5,12.7,1.2,17.7C86,397.2,83.7,398.7,79.9,397.6
		L79.9,397.6z M88.3,426.9c-1.5-0.8-3.5-10.8,3.5-11.6c2.7,0,7.3,5.4,7.3,8.5c-0.4,3.5,0.8,8.1-5.8,7.7
		C87.2,430.8,89.5,427.3,88.3,426.9L88.3,426.9z M104.9,476.3c-2.3,0-6.9-0.4-9.6-4.6c-2.3-3.1-3.1-8.5,0-10
		c2.3-1.2,8.5,2.7,11.2,8.1C109.6,474.8,106.5,476.3,104.9,476.3L104.9,476.3z M113,457c-3.1-0.4-6.6-1.5-9.3-5
		c-2.7-3.1-2.7-9.6,1.5-10.4c6.6-1.2,10.4,4.6,12.7,9.6C119.6,456.6,115,457,113,457L113,457z M119.2,429.6c-3.1,0-4.6-1.2-6.2-3.5
		c-2.3-1.5-3.1-8.5,3.1-8.5c3.1,0,7.7,2.3,8.1,5.8C125,427.3,121.9,429.2,119.2,429.6L119.2,429.6z M125,351.7
		c4.2,0,12,4.6,9.6,18.1c-3.1,13.1-4.6,8.5-7.3,9.3c-2.3,1.2-0.8-7.3-2.3-9.3C121.9,366.3,114.6,351.7,125,351.7L125,351.7z
		 M132.7,478.6c-2.7-1.2-6.2-2.7-6.6-6.9c-1.2-3.9,3.1-5,6.6-4.2c4.2,0.4,7.3,3.9,7.3,6.6C140,477.5,135,479.4,132.7,478.6
		L132.7,478.6z M140,452c-1.9,0.4-3.1,1.5-7.3,0.4c-3.9-1.5-12-10-4.6-14.7c2.3-1.9,11.2,0.4,13.1,6.9
		C144.3,450.1,142.3,450.8,140,452L140,452z M140.8,425.7c-1.2-1.2,1.2-7.3,7.3-5.8c5.8,1.2,7.3,5,6.9,8.5c-1.2,3.5-5,3.5-8.1,3.1
		C144.3,430.8,142.3,426.9,140.8,425.7L140.8,425.7z M164,492.9c-1.9,1.2-6.2,2.3-12,1.5c-5-0.4-6.2-1.9-4.2-5
		c2.3-2.7,3.9-3.5,8.5-5c4.6-1.9,10,0.4,11.2,2.3C168.6,488.3,166.3,492.5,164,492.9L164,492.9z M171.7,467.8
		c-3.1,1.9-9.6,0-11.6-4.6c-1.5-5,1.2-6.2,3.5-7.3c2.7-0.4,9.3,2.7,10.4,6.9C174.4,465.5,174.4,466.3,171.7,467.8L171.7,467.8z
		 M177.8,445.4c-2.7,0-12.7-1.5-10.8-6.6c1.2-5.4,6.9-5.4,10-4.6c1.9,0,10,2.7,8.1,7.3C184,446.6,180.5,445,177.8,445.4L177.8,445.4
		z M266.6,536.5c0,2.7-1.5,4.6-3.9,4.6c-2.7,0-10.4-1.9-14.3,1.2c-3.9,2.7-6.2,7.7-5.8,11.2c0.8,2.7,0.8,6.9-1.2,8.1
		c-1.5,1.5-8.9-1.2-12-0.8c-2.7,0-12.3,2.3-14.7,7.3c-2.7,4.6-0.8,8.1-2.3,9.3c-1.5,1.9-3.9,2.7-6.2,2.7c-2.3,0.8-12.7-0.8-14.3,0.8
		c-2.3,1.5-8.1,8.5-9.6,6.2c-1.9-2.3-4.6-1.2,0.4-9.6c2.3-3.9,8.5-8.1,9.3-8.1c0.4,0,8.1,0.8,9.6-0.4c1.5-1.5,6.2-10.8,8.1-12.7
		c7.7-6.2,7.3-3.9,9.6-5c2.3-0.4,10,1.2,10.8-0.4c1.2-2.3,5.8-10.8,9.6-14.3c5-4.6,13.1-5.4,14.3-6.2c0.4-1.2,2.3-4.2,3.5-6.6
		c1.5-2.3,8.5-8.1,13.1-6.9c2.3,0.8-5.8,11.6-5.8,13.9C264.3,533,266.6,533.4,266.6,536.5L266.6,536.5z M272.4,503.7
		c-5.8,1.2-12,0.8-12.3-2.3c-0.8-2.3,1.2-5.8,5-7.3c3.5-1.5,6.9-0.4,9.6-0.4c2.3,0,8.1,0,7.3,1.9
		C281.6,497.5,278.1,502.5,272.4,503.7L272.4,503.7z M280.5,477.5c-6.6,0.8-12.7-1.2-12-3.9c1.2-3.1,5-5.8,10.8-5.8
		c5.8-0.4,9.6,1.2,9.6,3.9C288.9,474,286.6,477.1,280.5,477.5L280.5,477.5z M293.6,446.2c-1.2,4.6-3.5,5.8-7.7,6.2
		c-4.2,0-12.7-1.2-12.7-7.7c0-3.1,8.9-4.6,10.8-4.6C285.9,439.3,294,441.6,293.6,446.2L293.6,446.2z M299.7,421.5
		c-0.8,3.5-5.8,6.6-9.6,5.4c-4.2-1.2-9.6-1.9-9.3-5.8c0-2.3,3.5-5.8,9.6-5C297,416.1,300.1,418.8,299.7,421.5L299.7,421.5z
		 M320.2,496.4c-1.5,1.5-3.5,5.8-8.1,6.9c-4.2,0.4-9.6,2.3-12-3.1c-1.2-2.7,0.8-5,4.2-7.3c2.7-1.5,12-1.5,12-1.5s1.2-3.1,3.5-1.2
		C322.1,491.7,322.1,494.4,320.2,496.4L320.2,496.4z M331,475.9c-3.9,0-13.1,0.4-13.5-4.2c-1.2-1.9,5-4.2,8.9-5.4
		c4.6-1.2,7.7-1.2,9.3-0.8c1.5,0.8,5.8,2.3,5.8,4.2C341.4,471.7,334.5,475.1,331,475.9L331,475.9z M336,398.7
		c-1.5-3.9-1.9-7.3-0.4-8.9c2.7-1.9,12,1.5,13.5,5.8c2.3,3.9,2.3,8.5-1.5,9.6C343.7,405.7,337.2,402.2,336,398.7L336,398.7z
		 M349.9,421.1c-0.8-3.5,6.2-6.2,10.8-5.8c3.9,0.8,10.8,4.6,9.6,8.5c-1.5,4.2-2.3,5.4-5.8,5.4C361.1,429.2,350.3,426.9,349.9,421.1
		L349.9,421.1z M353.4,448.5c-0.8-3.1,6.2-4.6,8.9-4.6c2.3,0,12.7,1.5,9.6,5.8c-1.9,3.9-6.2,5.8-9.6,5.8
		C359.5,455.5,354.5,451.2,353.4,448.5L353.4,448.5z M374.2,480.9c-3.9,2.7-6.6,2.7-11.2,2.7c-4.2,0-5-2.7-5-6.2
		c0-2.7,4.2-4.6,6.2-5c2.3-0.8,5,0,7.3-0.8c1.5-0.4,1.5-0.4,3.9-1.2c1.9-0.4,3.1-0.8,3.5,2.3C379.6,475.9,378.4,478.6,374.2,480.9
		L374.2,480.9z M381.9,403c-1.9,1.2-1.9,2.3-5.8,1.5c-4.6-0.4-6.9-7.3-8.1-7.7c-1.5-0.8-5-4.6-3.5-6.6c1.9-1.5,10.4-1.5,14.3,1.9
		C383.5,396,383.5,401.8,381.9,403L381.9,403z M390.4,418.8c1.2-1.2,3.9-2.7,7.3-2.7c3.5,0,8.1,2.3,9.6,4.6c1.2,2.7,1.2,5-1.2,7.3
		c-1.5,1.5-12-1.2-13.5-3.1C390.4,422.7,389.6,420.7,390.4,418.8L390.4,418.8z M393.1,453.5c-1.2,1.2-1.5-2.7,0-4.6
		c2.3-1.5,7.3-4.2,10.4-4.2c2.7,0,7.3,0.8,6.6,3.1c-0.4,2.3-1.2,8.1-7.3,8.1C396.6,456.6,394.3,453.1,393.1,453.5L393.1,453.5z
		 M405.1,482.1c-5,0.4-8.5-0.4-9.3-4.6c-0.4-3.9,3.5-5,4.2-5c0.4,0,4.6-0.8,5.8-1.2c2.7,0,7.3-3.5,9.6,0
		C416.6,473.6,410.1,480.9,405.1,482.1L405.1,482.1z M421.7,404.1c-0.8,1.5-2.3,6.2-8.1,4.6c-5.8-1.9-8.5-4.6-10-6.9
		c-1.2-2.3-5.4-5.8-1.9-9.3c1.9-1.5,10.8,1.9,15,5C420.1,401,422,401.8,421.7,404.1L421.7,404.1z M425.5,420.7
		c1.2-2.3,5.8-3.5,9.3-3.5c3.5,0.4,8.1,1.5,8.9,5.4c0.8,3.5,0,4.6-1.2,6.6c-1.9,1.5-8.9-0.8-11.6-1.9
		C427.8,426.1,424.4,422.3,425.5,420.7L425.5,420.7z M426.3,447.4c0-2.7,3.9-2.3,5.8-2.7c0.8-0.8,1.9-1.9,5-2.3
		c2.3-0.8,7.3-0.8,7.3,1.5c0.8,1.5,0,5-6.2,6.9C431.3,453.1,426.7,450.1,426.3,447.4L426.3,447.4z M448.7,472.8c0,0-5,4.6-6.2,6.6
		c-1.9,1.2-5,4.2-9.6,0.4c-2.7-2.7,0-7.3,1.9-8.5c1.5-1.5,13.1-8.5,15.4-5C452.1,469.7,448.7,472.8,448.7,472.8L448.7,472.8z
		 M455.6,404.5c-2.3,3.5-5.8,3.1-10,2.3c-3.9-0.4-10.8-5-10.4-9.6c0.8-3.9,7.7-2.7,11.6-1.2C451,397.6,458.3,401,455.6,404.5
		L455.6,404.5z M501.5,457.8c-2.3,0-8.1-5.8,1.2-6.9c3.5-0.8,3.9,1.5,3.9,5C506.5,458.5,503.4,457.8,501.5,457.8L501.5,457.8z
		 M506.5,430.8c-3.9-1.2-5.4-2.7-3.1-5.8c2.7-2.3,3.9-1.5,7.3-0.4c2.7,1.2,3.5,3.5,2.7,5.8C513.1,433.1,510.8,431.9,506.5,430.8
		L506.5,430.8z M528.5,514.1c-5.4-1.2-10.4-7.7-13.1-11.6c-2.3-4.6-3.1-13.1-1.2-17c1.5-4.6,3.9-5,6.2-3.5
		c2.7,1.5,1.2,13.1,2.7,13.5c1.9,1.2,3.1,9.3,8.1,10.4c1.5,0,3.5,3.9,3.5,3.9S532.8,515.3,528.5,514.1L528.5,514.1z"/>
	<path fill-rule="evenodd" clip-rule="evenodd" fill="#00A651" d="M853,531.9c-2.3-1.5-10,5.8-13.1,4.6c-3.5-1.2-6.2-5.8-8.9-6.9
		c-3.5-1.2-5.4,0.8-8.9,0c-2.7-0.4-0.8-4.6-3.1-5.8c-3.1-1.2-4.6,1.9-8.1,0.8c-2.7-0.8-4.6-5.8-6.9-6.9c-2.7-0.8-3.5,2.7-6.5,1.5
		c-4.2-1.5-5.4-4.6-8.1-5.8c-2.3-1.5-7.3,3.1-10.8,1.2c-3.5-1.5-3.5-13.5-5.8-14.7c-2.7-1.2-11.2,8.5-14.7,6.2
		c-3.1-1.5-1.9-10.4-4.6-12c-2.3-1.5-12.7,7.3-15.4,6.2c-2.3-1.2-2.7-5.8-6.2-6.2c-3.1-0.4-8.5,3.9-12,2.7
		c-6.9-2.7-15.4-1.5-25.8-26.2c-1.2-3.1-3.5-5-5.8-3.9c-6.2,2.3-3.9,4.6,4.6,21.6c11.6,22.4,26.2,17.7,81,36.7
		c32.4,11.6,52.5,15.1,55.2,19.3c2.3,4.2,4.6,10-4.6,10.8c-14.7,1.2-18.1-6.6-20.8-7.7c-3.5-1.2-5.8,2.7-12.7,1.5
		c-7.7-1.2-5-4.6-7.7-5.8c-3.5-0.4-10.4,0-15-0.8c-4.6-1.2-5-6.9-7.3-5.8c-2.7,1.2-5,5.8-13.1,3.5c-7.3-3.1-7.3-9.3-10.4-9.6
		c-1.9-0.8-12.3,5-17,3.9c-10-3.1-8.9-11.6-12-12.3c-3.5-0.4-4.6,8.9-26.2,7.3c-21.6-2.3-30.9-0.8-44.4-7.7
		c-18.1-9.6-39.4-8.5-33.2-17c6.9-8.9,17.7-4.2,24.7-0.8c7,2.7,14.7,8.1,20.1,5c1.9-1.5-2.3-7.7-4.2-16.2c-2.7-15,10.4-19.7,9.3-22
		c-1.9-2.7-9.3-6.6-27-3.9c-12,1.9-35.1,20.1-40.9,22.8c-5.8,3.5-29.7,16.2-42.8-2.7c-13.1-19.3-1.2-39,4.2-45.1
		c5-6.2,13.5-10.8,16.6-6.2c4.2,7.3-5.8,9.3-10,14.3c-3.9,5-10,22-3.1,29.7c7.3,7.7,20.8,8.5,36.3-3.1c12.7-9.6,33.6-23.2,54-21.6
		c20.8,1.2,31.6,10.8,34.7,11.6c3.1,0.4,5.8-6.6,10-8.1c3.1-1.2,7.3,2.7,10,1.5c2.3-1.5,5-7.7,8.1-8.9c3.5-1.2,12,4.6,14.7,2.7
		c2.3-1.2,1.9-8.5,5.8-8.9c3.9-0.8,10.4,6.2,13.1,5c3.5-1.9,3.5-5.8,6.9-5.8c2.7,0,8.9,9.3,12,8.5c2.3-0.4,1.5-9.6,5-10.8
		c3.5-1.2,12.3,6.2,15.4,5c2.3-1.2,2.7-12.3,6.9-14.7c3.9-1.5,7.7,4.6,10,3.5c3.1-1.2,5-13.9,8.5-14.3c3.1-0.4,9.3,3.5,12,2.7
		c2.3-0.4,1.2-12,5.8-14.3c4.6-1.5,10.4,5.8,12,5.4c2.3-0.8,3.5-6.9,5.8-7.3c2.7-0.8,9.6,5,13.1,4.2c2.7-1.2,1.5-9.6,4.6-10
		c2.3-0.8,12,1.2,11.2-9.6c-0.4-10.8-14.3-21.2-27.4-21.2c-23.9,0-47.8,10.4-68.3,14.3c-20.4,3.5-62.5,15.8-72.9,17.8
		c-10.4,1.5-20.4-4.2-11.2-11.6c7.3-6.9,11.2-1.5,11.2-3.9c0-2.3-4.6-4.6-11.2-5.8c-6.9-1.2-15,5.8-23.9,4.6
		c-8.9-1.2-17.7-8.1-27.4-6.2c-23.5,2.7-27,13.1-39,17.4c-12,4.6-20.8,1.2-27.4,1.9c-16.2,2.3-22,12-33.9,10.8
		c-14.3-1.2-21.2-9.3-36.6-13.5c-14.7-4.6-42.8-8.9-49.4-11.2c-6.9-2.7-37.4-10-44.7-10.8c-8.1-1.2-12,1.2-15.4,1.2
		c-3.9,0-8.9-2.3-14.3-2.7c-5-0.8-13.1-1.2-16.6,0c-3.1,1.5-4.2,1.5-8.5,0.4c-3.5-0.4-16.2-2.7-21.6-1.9c-7.7,0.4-10.8,5.4-16.6,6.2
		c-5.4,0.4-10.8-2.3-17-1.2c-6.2,1.2-11.2,3.5-16.6,5c-5,1.9-14.3,0.8-18.5,1.2c-11.6,2.7-13.1,8.5-17.4,8.5c-3.9,0-17.7-2.3-22,0
		c-4.6,1.9-8.5,5.4-12,5.8c-4.2,0.4-19.7,2.7-29.3,1.5c-5.4-0.4-14.7,4.2-18.5,5.4c-4.6,1.2-15.4,1.2-18.5-4.2
		c-3.1-6.6,5.4-16.2,19.7-27.8c9.6-7.3,64-45.5,152.4-59.8c69.1-11.6,149.7-40.5,166.7-58.3c7.3-7.3,37-32.4,44.4-47.9
		c7.3-15.4,9.6-24.3,5.8-23.9c-3.9,1.2-8.5,9.3-15.8,12c-7,2.3-13.1-1.5-18.5,0.8c-5,1.5-10.8,9.6-16.2,10
		c-5.8,0.8-8.1-4.2-12.4-2.3c-4.2,3.1-11.2,8.1-15.8,9.3c-9.6,1.5-10-9.6-18.9-5c-9.3,4.6-15.8,12.3-25.1,14.3
		c-8.5,1.2-7.3-5.4-13.1-5.4c-9.3,0-18.1,12.7-22.4,12.7c-4.2,0-7.7-6.9-13.1-6.2c-5,0.4-20.8,12.3-27,14.3
		c-6.6,1.2-7.7-8.9-13.1-8.1c-6.6,0.4-18.5,12-25.1,13.5c-6.9,1.2-10.8-3.5-15.4-3.5c-4.6,0-18.9,12-25.8,13.9
		c-10,2.3-10.8-10.4-21.6-9.6c-7.7,0.4-15.8,10.8-22,11.2c-6.6,0.8-9.3-4.2-16.6-2.7c-8.1,2.3-23.9,13.1-29.3,14.3
		c-5,1.2-8.9-1.9-15,0c-11.6,3.5-22.4,18.9-29.7,22.8c-8.1,4.6-13.9,2.3-18.1,5c-7.7,5.4-8.9,16.2-16.2,19.3
		c-6.6,3.5-6.2-1.5-12.3,2.3c-10.4,7.7-6.6,16.2-9.6,20.1c-3.1,3.9-11.6,6.9-16.6,13.1c-5,5.8-5,9.3-6.9,13.1
		c-2.3,3.9-11.2,15.4-13.1,20.5c-1.2,5,1.2,10.4-1.2,14.3c-1.5,3.5-5,9.3-6.9,13.5c-3.1,10,1.2,20.1,0.8,23.9
		c-0.8,3.5-4.6,9.3-4.6,13.9c0,4.6,4.6,13.5,3.5,20.4c-1.2,6.9-15.4,52.9-7.3,73.7c8.9,21.6,22,33.2,26.6,31.3
		c5-1.5,1.9-10.8,6.9-19.3c5-8.1,10.8-18.1,15.4-11.2c3.9,6.6-9.3,6.6-10.4,25.5c-1.5,18.1,0.8,10.4,0,15.8
		c-0.4,5.8-12,16.6-12,21.6c0,5.4,1.2,18.9,18.1,33.2c10.4,9.3,12.7,15.4,15.4,15.8c2.3,0.8,4.6-10.8,9.6-13.1
		c6.9-3.1,22,10.4,24.7,10c3.5-1.2,4.6-19.7,10.8-23.2c6.2-2.7,21.2,9.3,24.3,7.7c3.1-2.3-0.4-13.9,1.2-18.5
		c1.9-4.2,10.4-5.4,7.7-13.1c-2.3-7.7-3.5-22.8-30.9-24.7c-8.1-0.8-19.3-1.9-12-10.4c8.5-8.5,17.7-39.7-2.3-64.1
		c-8.5-10.4-27.8-4.6-33.2-2.3c-9.6,3.5-19.3,16.2-23.1,12.7c-3.5-3.5,7.7-17.8,25.1-22.8c17-5.4,38.6-4.2,47.1,17
		c15,37,0,54.4,1.9,58.3c2.3,3.9,10.8-0.4,22.8,6.9c17,11.2,14.7,20.8,18.9,24.3c3.9,3.1,24.3,4.6,43.2,5.8
		c19.3,1.2,40.5,6.2,49.4,1.2c14.3-7.3,15.4-34.7,48.6-54.8c16.6-10,38.6-20.1,63.3-15.8c27.4,3.9,27.8,7.7,25.5,11.2
		c-0.4,1.9-1.2,4.6-1.5,4.2c-13.1-6.9-32-7.7-43.6-5.4c-17,3.1-45.9,7.7-67.1,44.8c-20.8,37,12.7,37.4,16.2,38.6
		c3.9,1.5,10,3.5,9.6,14.3c-0.8,10.8,2.7,17,6.6,23.9c4.6,6.2,12,11.2,12,11.2s5.4-12.3,11.6-15c6.2-3.5,13.5,2.7,17,6.6
		c10.8,13.9,6.2-12,13.9-14.7c11.2-3.5,15.4,13.1,21.6,10c11.2-5,5-12.7,13.1-15.8c8.5-2.3,13.5,4.6,17,2.3
		c3.9-2.7,3.5-26.6-3.9-36.3c-8.1-10-20.1-27-45.5-27c-25.1,0-33.2-3.5-32-8.5c1.2-5,6.2-8.5,12.3-6.2c9.7,3.5,10.8,2.7,26.2,3.5
		c22.4,0.4,17.4,10,35.9,18.1c13.9,5.8,32-3.9,54.4,0c22.8,3.9,41.7,8.1,62.5,6.9c39.4-1.2,83-18.5,91.4-19.7
		c8.9-1.5,13.5-0.4,13.5-3.1c0-2.3-38.2-8.1-35.9-17.4c3.1-8.9,21.2-1.5,46.3,4.2c25.1,5.4,78.7,10,99.5,8.9
		c22.4-0.4,60.6,9.6,91.8,2.3c15.8-3.9,30.9-13.5,32.4-24.3C870.3,542.3,856,534.2,853,531.9L853,531.9z M637.7,399.5
		c6.2-1.2,17,1.5,14.3,8.5c-2.3,6.9-3.5,5.8-8.5,6.9c-5,1.2-15.4,2.3-18.1-2.3C623,408,630.7,401,637.7,399.5L637.7,399.5z
		 M480.7,221.6c3.9,1.9,4.2,7.3,3.9,10.8c-1.2,3.1-3.1,6.2-5,6.2c-3.1,0-3.1-4.2-4.2-8.5C474.1,226.6,476.4,219.3,480.7,221.6
		L480.7,221.6z M445.2,232.4c8.1,1.9,5,9.3,3.5,17.7c-1.2,5.8-6.2,7.3-6.9,8.5c-2.7,5-3.5-17-3.5-17S440.6,231.3,445.2,232.4
		L445.2,232.4z M405.8,238.6c3.1-0.4,8.5,11.6,5.4,22c-3.5,10-7.7,10-7.7,10s-1.2-11.2-2.3-12.3C400,256.3,397.7,240.5,405.8,238.6
		L405.8,238.6z M370.3,244.4c7.3-2.7,9.3,13.9,5.8,22.4c-3.1,8.9-3.1,14.3-8.5,10.8c-6.6-3.1-1.2-13.9-3.1-17
		C362.2,255.2,364.2,247.5,370.3,244.4L370.3,244.4z M331,253.6c9.3-1.2,8.1,13.5,5.8,21.6c-2.7,7.3-4.6,10.8-8.5,9.6
		c-4.2-1.5,1.2-11.2-1.2-15.4C324.1,265.6,326,254,331,253.6L331,253.6z M290.5,261c5.4,1.2,9.3,9.3,6.6,20.5
		c-2.3,11.6-5.8,14.3-8.9,14.3c-3.1,0,1.2-18.1-1.5-18.1C284.3,277.6,283.9,259.8,290.5,261L290.5,261z M250.8,274.5
		c3.5,0,11.2,6.6,7.3,18.5c-3.9,12.3-3.9,11.2-7.3,12.3c-3.9,0.8-1.2-7.3-3.5-12C244.6,289.5,241.1,274.1,250.8,274.5L250.8,274.5z
		 M214.9,287.2c6.9-0.4,9.6,14.3,8.1,20.5c-1.2,6.2-3.5,13.9-7.7,12.7c-3.9-0.8,0.8-12-2.7-12C209.9,308.4,204.5,287.6,214.9,287.2
		L214.9,287.2z M192.1,329.3c-4.6,8.5-4.2,8.5-7.3,8.5c-3.1,0-1.2-12.3-4.6-12.3c-3.1,0-5.8-18.1,3.9-18.9
		C194.4,306.1,194.8,323.1,192.1,329.3L192.1,329.3z M176.7,271.4c2.3,0,8.1,3.9,2.7,9.6c-5,5.8-5.4,9.6-10,7.3
		C164.7,286.8,169.4,271.8,176.7,271.4L176.7,271.4z M45.5,393.3c3.1,0,6.9,7.7,6.6,10.8c-0.8,2.3-1.2,6.2-5.8,7.3
		c-4.2,1.2-5.8-5.8-5.8-6.9C40.1,403,39,392.6,45.5,393.3L45.5,393.3z M50.2,443.9c-2.3,0-5,0-6.9-1.5c-1.2-1.9-8.9-9.6-3.1-17.4
		c0.4-1.2,10,5.4,12,9.6C53.2,437.7,53.2,443.9,50.2,443.9L50.2,443.9z M58.3,379.4c-1.2,1.9-4.2,3.1-6.2,1.9
		c-3.1-1.9-3.1-8.1-1.9-9.3c0.8-0.4,1.2-9.6,7.3-8.5c3.1,0.4-0.4,8.1,0,8.9C58.3,373.6,59.8,377.9,58.3,379.4L58.3,379.4z
		 M315.2,418.8c0.4-2.7,4.6-5,8.9-3.9c5.4,0.4,11.6,5,10.4,8.5c-0.4,3.5-6.2,6.2-12,3.5C317.5,424.6,314,422.3,315.2,418.8
		L315.2,418.8z M322.9,443.9c3.5-0.4,12.7-1.2,12,3.9c-0.4,4.6-2.7,5.8-10,6.9c-7.3,1.2-12-3.5-12-5.8
		C313.3,445,319,444.7,322.9,443.9L322.9,443.9z M303.6,391c4.2,0,8.1,3.5,6.9,6.2c-1.2,2.7-1.5,6.2-9.3,4.6c-2.7-1.2-6.2-5-6.2-7.3
		C295.1,389.9,299.7,390.2,303.6,391L303.6,391z M261.9,400.7c0.8-3.9,8.1-4.6,11.6-3.1c3.9,1.9,6.2,6.9,3.9,9.3
		c-2.7,1.9-5.4,1.2-10,0C262.7,405.7,261.6,404.5,261.9,400.7L261.9,400.7z M256.9,418.4c5.8,0,12.7,4.2,9.6,7.3
		c-2.3,2.3-4.6,3.9-10.8,3.9c-6.2,0-8.5-2.3-8.5-5.8C247.3,420.7,251.1,417.6,256.9,418.4L256.9,418.4z M246.9,443.9
		c6.6-1.2,11.2,2.7,10.8,6.2c0,3.5-5.8,6.6-9.6,6.6c-4.6,0-11.2-1.2-12-6.6C235.3,445.4,243.4,444.7,246.9,443.9L246.9,443.9z
		 M229.2,474.8c-1.2-3.5,6.9-5,10.8-5.8c3.5-0.4,10.8,1.2,9.6,4.6c-1.2,2.7-3.5,6.2-9.6,6.2C233.8,479.4,230.3,477.5,229.2,474.8
		L229.2,474.8z M238.8,496.4c-1.2,5-5.8,5.8-9.3,6.2c-3.9,0.8-10,0-10-3.9c0-4.2,5.4-7.3,8.5-8.5C234.2,489,240,492.5,238.8,496.4
		L238.8,496.4z M221.8,401.8c2.3,0.4,9.6,2.3,10,5.8c0,2.7,1.9,6.6-6.2,6.6c-7.3,0-10.4-1.2-12-5C211.4,404.5,219.5,401,221.8,401.8
		L221.8,401.8z M220.7,429.2c7.7,1.5,8.9,1.5,9.6,5c0.4,3.5-5.4,5.8-12,6.9c-6.9,1.2-10.8-1.9-12.7-5.4
		C204.5,432.7,212.9,428.1,220.7,429.2L220.7,429.2z M207.5,460.9c3.9-0.4,8.5,1.2,8.5,5.4c-0.8,3.5-3.1,5-6.9,6.6
		c-3.5,1.9-11.2-1.2-12.3-3.9C195.6,466.3,203.3,461.6,207.5,460.9L207.5,460.9z M200.6,492.9c0,3.5-6.9,6.2-10.4,6.9
		c-2.7,0.4-5,2.7-7.3,0.4c-2.7-2.3-2.3-4.6-0.4-6.2c1.2-1.5,8.5-5,10-5.8C195.6,487.1,201,490.2,200.6,492.9L200.6,492.9z
		 M184.8,410.7c6.2,0,8.9,3.5,10,6.6c0.8,2.7,0,4.2-1.5,5.4c-1.2,1.2-8.1,0.8-12-1.5C175.9,418.4,177.8,410.7,184.8,410.7
		L184.8,410.7z M153.9,325.4c8.5-0.8,10,10.8,8.1,21.2c-3.1,10-4.2,10-8.1,8.9c-3.5-1.2,0-6.9-2.3-9.6
		C148.9,343.6,144.3,325.8,153.9,325.4L153.9,325.4z M147.7,282.2c7.7-1.2,5,8.5,3.5,11.2c-2.3,3.5,0.4,8.5-4.6,8.1
		c-5.4-0.8-4.6-7.3-5.4-10.8C140.8,286.8,143.1,282.6,147.7,282.2L147.7,282.2z M120.4,316.9c1.5-2.3,2.7-8.1,7.7-8.5
		c3.5-0.8,2.3,8.9,1.9,13.5c0,4.6,1.2,10.4-5,8.1C118.4,327.7,118.4,319.6,120.4,316.9L120.4,316.9z M96.4,318.1
		c1.2,0,1.2-0.8,1.2-0.8s5.4-8.9,10.8-6.2c2.3,0.4-3.5,11.6-4.2,13.5c-1.2,3.1-5,5.4-8.5,2.3C92.2,323.5,95.3,318.1,96.4,318.1
		L96.4,318.1z M80.2,338.5c3.1,1.2,0,11.2-1.2,15.8c-0.4,4.6-3.9,6.9-7.3,5.8c-3.5-0.4-1.5-8.5-2.7-8.5
		C68.3,350.9,72.9,337.4,80.2,338.5L80.2,338.5z M69.1,415.3c2.3,0.8,2.7,5.4,2.7,6.2c0,1.9,2.3,3.1,3.5,6.6
		c0.8,2.7-1.2,5.4-3.9,6.2c-3.1,0-5.8-5.8-5.8-5.8C65.6,429.2,63.3,414.9,69.1,415.3L69.1,415.3z M78.7,462.8
		c-2.3,1.5-5,2.7-8.5,2.3c-3.5-1.2-7.3-6.9-4.2-10.4c3.1-2.7,7.7-0.4,10,1.2C78.3,457.8,81,460.9,78.7,462.8L78.7,462.8z
		 M79.9,397.6c-4.6-0.8-2.7-9.6-3.5-9.6c0,0,4.6-15.8,9.3-13.1c3.5,2.3,1.5,12.7,1.2,17.7C86,397.2,83.7,398.7,79.9,397.6
		L79.9,397.6z M88.3,426.9c-1.5-0.8-3.5-10.8,3.5-11.6c2.7,0,7.3,5.4,7.3,8.5c-0.4,3.5,0.8,8.1-5.8,7.7
		C87.2,430.8,89.5,427.3,88.3,426.9L88.3,426.9z M104.9,476.3c-2.3,0-6.9-0.4-9.6-4.6c-2.3-3.1-3.1-8.5,0-10
		c2.3-1.2,8.5,2.7,11.2,8.1C109.6,474.8,106.5,476.3,104.9,476.3L104.9,476.3z M113,457c-3.1-0.4-6.6-1.5-9.3-5
		c-2.7-3.1-2.7-9.6,1.5-10.4c6.6-1.2,10.4,4.6,12.7,9.6C119.6,456.6,115,457,113,457L113,457z M119.2,429.6c-3.1,0-4.6-1.2-6.2-3.5
		c-2.3-1.5-3.1-8.5,3.1-8.5c3.1,0,7.7,2.3,8.1,5.8C125,427.3,121.9,429.2,119.2,429.6L119.2,429.6z M125,351.7
		c4.2,0,12,4.6,9.6,18.1c-3.1,13.1-4.6,8.5-7.3,9.3c-2.3,1.2-0.8-7.3-2.3-9.3C121.9,366.3,114.6,351.7,125,351.7L125,351.7z
		 M132.7,478.6c-2.7-1.2-6.2-2.7-6.6-6.9c-1.2-3.9,3.1-5,6.6-4.2c4.2,0.4,7.3,3.9,7.3,6.6C140,477.5,135,479.4,132.7,478.6
		L132.7,478.6z M140,452c-1.9,0.4-3.1,1.5-7.3,0.4c-3.9-1.5-12-10-4.6-14.7c2.3-1.9,11.2,0.4,13.1,6.9
		C144.3,450.1,142.3,450.8,140,452L140,452z M140.8,425.7c-1.2-1.2,1.2-7.3,7.3-5.8c5.8,1.2,7.3,5,6.9,8.5c-1.2,3.5-5,3.5-8.1,3.1
		C144.3,430.8,142.3,426.9,140.8,425.7L140.8,425.7z M164,492.9c-1.9,1.2-6.2,2.3-12,1.5c-5-0.4-6.2-1.9-4.2-5
		c2.3-2.7,3.9-3.5,8.5-5c4.6-1.9,10,0.4,11.2,2.3C168.6,488.3,166.3,492.5,164,492.9L164,492.9z M171.7,467.8
		c-3.1,1.9-9.6,0-11.6-4.6c-1.5-5,1.2-6.2,3.5-7.3c2.7-0.4,9.3,2.7,10.4,6.9C174.4,465.5,174.4,466.3,171.7,467.8L171.7,467.8z
		 M177.8,445.4c-2.7,0-12.7-1.5-10.8-6.6c1.2-5.4,6.9-5.4,10-4.6c1.9,0,10,2.7,8.1,7.3C184,446.6,180.5,445,177.8,445.4L177.8,445.4
		z M266.6,536.5c0,2.7-1.5,4.6-3.9,4.6c-2.7,0-10.4-1.9-14.3,1.2c-3.9,2.7-6.2,7.7-5.8,11.2c0.8,2.7,0.8,6.9-1.2,8.1
		c-1.5,1.5-8.9-1.2-12-0.8c-2.7,0-12.3,2.3-14.7,7.3c-2.7,4.6-0.8,8.1-2.3,9.3c-1.5,1.9-3.9,2.7-6.2,2.7c-2.3,0.8-12.7-0.8-14.3,0.8
		c-2.3,1.5-8.1,8.5-9.6,6.2c-1.9-2.3-4.6-1.2,0.4-9.6c2.3-3.9,8.5-8.1,9.3-8.1c0.4,0,8.1,0.8,9.6-0.4c1.5-1.5,6.2-10.8,8.1-12.7
		c7.7-6.2,7.3-3.9,9.6-5c2.3-0.4,10,1.2,10.8-0.4c1.2-2.3,5.8-10.8,9.6-14.3c5-4.6,13.1-5.4,14.3-6.2c0.4-1.2,2.3-4.2,3.5-6.6
		c1.5-2.3,8.5-8.1,13.1-6.9c2.3,0.8-5.8,11.6-5.8,13.9C264.3,533,266.6,533.4,266.6,536.5L266.6,536.5z M272.4,503.7
		c-5.8,1.2-12,0.8-12.3-2.3c-0.8-2.3,1.2-5.8,5-7.3c3.5-1.5,6.9-0.4,9.6-0.4c2.3,0,8.1,0,7.3,1.9
		C281.6,497.5,278.1,502.5,272.4,503.7L272.4,503.7z M280.5,477.5c-6.6,0.8-12.7-1.2-12-3.9c1.2-3.1,5-5.8,10.8-5.8
		c5.8-0.4,9.6,1.2,9.6,3.9C288.9,474,286.6,477.1,280.5,477.5L280.5,477.5z M293.6,446.2c-1.2,4.6-3.5,5.8-7.7,6.2
		c-4.2,0-12.7-1.2-12.7-7.7c0-3.1,8.9-4.6,10.8-4.6C285.9,439.3,294,441.6,293.6,446.2L293.6,446.2z M299.7,421.5
		c-0.8,3.5-5.8,6.6-9.6,5.4c-4.2-1.2-9.6-1.9-9.3-5.8c0-2.3,3.5-5.8,9.6-5C297,416.1,300.1,418.8,299.7,421.5L299.7,421.5z
		 M320.2,496.4c-1.5,1.5-3.5,5.8-8.1,6.9c-4.2,0.4-9.6,2.3-12-3.1c-1.2-2.7,0.8-5,4.2-7.3c2.7-1.5,12-1.5,12-1.5s1.2-3.1,3.5-1.2
		C322.1,491.7,322.1,494.4,320.2,496.4L320.2,496.4z M331,475.9c-3.9,0-13.1,0.4-13.5-4.2c-1.2-1.9,5-4.2,8.9-5.4
		c4.6-1.2,7.7-1.2,9.3-0.8c1.5,0.8,5.8,2.3,5.8,4.2C341.4,471.7,334.5,475.1,331,475.9L331,475.9z M336,398.7
		c-1.5-3.9-1.9-7.3-0.4-8.9c2.7-1.9,12,1.5,13.5,5.8c2.3,3.9,2.3,8.5-1.5,9.6C343.7,405.7,337.2,402.2,336,398.7L336,398.7z
		 M349.9,421.1c-0.8-3.5,6.2-6.2,10.8-5.8c3.9,0.8,10.8,4.6,9.6,8.5c-1.5,4.2-2.3,5.4-5.8,5.4C361.1,429.2,350.3,426.9,349.9,421.1
		L349.9,421.1z M353.4,448.5c-0.8-3.1,6.2-4.6,8.9-4.6c2.3,0,12.7,1.5,9.6,5.8c-1.9,3.9-6.2,5.8-9.6,5.8
		C359.5,455.5,354.5,451.2,353.4,448.5L353.4,448.5z M374.2,480.9c-3.9,2.7-6.6,2.7-11.2,2.7c-4.2,0-5-2.7-5-6.2
		c0-2.7,4.2-4.6,6.2-5c2.3-0.8,5,0,7.3-0.8c1.5-0.4,1.5-0.4,3.9-1.2c1.9-0.4,3.1-0.8,3.5,2.3C379.6,475.9,378.4,478.6,374.2,480.9
		L374.2,480.9z M381.9,403c-1.9,1.2-1.9,2.3-5.8,1.5c-4.6-0.4-6.9-7.3-8.1-7.7c-1.5-0.8-5-4.6-3.5-6.6c1.9-1.5,10.4-1.5,14.3,1.9
		C383.5,396,383.5,401.8,381.9,403L381.9,403z M390.4,418.8c1.2-1.2,3.9-2.7,7.3-2.7c3.5,0,8.1,2.3,9.6,4.6c1.2,2.7,1.2,5-1.2,7.3
		c-1.5,1.5-12-1.2-13.5-3.1C390.4,422.7,389.6,420.7,390.4,418.8L390.4,418.8z M393.1,453.5c-1.2,1.2-1.5-2.7,0-4.6
		c2.3-1.5,7.3-4.2,10.4-4.2c2.7,0,7.3,0.8,6.6,3.1c-0.4,2.3-1.2,8.1-7.3,8.1C396.6,456.6,394.3,453.1,393.1,453.5L393.1,453.5z
		 M405.1,482.1c-5,0.4-8.5-0.4-9.3-4.6c-0.4-3.9,3.5-5,4.2-5c0.4,0,4.6-0.8,5.8-1.2c2.7,0,7.3-3.5,9.6,0
		C416.6,473.6,410.1,480.9,405.1,482.1L405.1,482.1z M421.7,404.1c-0.8,1.5-2.3,6.2-8.1,4.6c-5.8-1.9-8.5-4.6-10-6.9
		c-1.2-2.3-5.4-5.8-1.9-9.3c1.9-1.5,10.8,1.9,15,5C420.1,401,422,401.8,421.7,404.1L421.7,404.1z M425.5,420.7
		c1.2-2.3,5.8-3.5,9.3-3.5c3.5,0.4,8.1,1.5,8.9,5.4c0.8,3.5,0,4.6-1.2,6.6c-1.9,1.5-8.9-0.8-11.6-1.9
		C427.8,426.1,424.4,422.3,425.5,420.7L425.5,420.7z M426.3,447.4c0-2.7,3.9-2.3,5.8-2.7c0.8-0.8,1.9-1.9,5-2.3
		c2.3-0.8,7.3-0.8,7.3,1.5c0.8,1.5,0,5-6.2,6.9C431.3,453.1,426.7,450.1,426.3,447.4L426.3,447.4z M448.7,472.8c0,0-5,4.6-6.2,6.6
		c-1.9,1.2-5,4.2-9.6,0.4c-2.7-2.7,0-7.3,1.9-8.5c1.5-1.5,13.1-8.5,15.4-5C452.1,469.7,448.7,472.8,448.7,472.8L448.7,472.8z
		 M455.6,404.5c-2.3,3.5-5.8,3.1-10,2.3c-3.9-0.4-10.8-5-10.4-9.6c0.8-3.9,7.7-2.7,11.6-1.2C451,397.6,458.3,401,455.6,404.5
		L455.6,404.5z M501.5,457.8c-2.3,0-8.1-5.8,1.2-6.9c3.5-0.8,3.9,1.5,3.9,5C506.5,458.5,503.4,457.8,501.5,457.8L501.5,457.8z
		 M506.5,430.8c-3.9-1.2-5.4-2.7-3.1-5.8c2.7-2.3,3.9-1.5,7.3-0.4c2.7,1.2,3.5,3.5,2.7,5.8C513.1,433.1,510.8,431.9,506.5,430.8
		L506.5,430.8z M528.5,514.1c-5.4-1.2-10.4-7.7-13.1-11.6c-2.3-4.6-3.1-13.1-1.2-17c1.5-4.6,3.9-5,6.2-3.5
		c2.7,1.5,1.2,13.1,2.7,13.5c1.9,1.2,3.1,9.3,8.1,10.4c1.5,0,3.5,3.9,3.5,3.9S532.8,515.3,528.5,514.1L528.5,514.1z"/>
</g>
</svg>
