<?xml version="1.0" encoding="utf-8"?>
<!-- Generator: Adobe Illustrator 18.1.0, SVG Export Plug-In . SVG Version: 6.00 Build 0)  -->
<!DOCTYPE svg PUBLIC "-//W3C//DTD SVG 1.1//EN" "http://www.w3.org/Graphics/SVG/1.1/DTD/svg11.dtd">
<svg version="1.1" id="Layer_1" xmlns="http://www.w3.org/2000/svg" xmlns:xlink="http://www.w3.org/1999/xlink" x="0px" y="0px"
	 viewBox="0 0 870.6 870.5" enable-background="new 0 0 870.6 870.5" xml:space="preserve">
<g>
	<path fill="#7C7D7F" d="M512.4,224.8c5,0,10-4.1,10-10c0-5.8-5-10-10-10c-5.8,0-9.9,4.1-9.9,10
		C502.4,220.6,506.6,224.8,512.4,224.8L512.4,224.8z"/>
	<path fill="#7C7D7F" d="M376.4,207.4c5,0,8.3-4.1,8.3-8.3c0-5-3.3-9.1-8.3-9.1c-5,0-8.3,4.1-8.3,9.1
		C368.1,203.2,371.4,207.4,376.4,207.4L376.4,207.4z"/>
	<path fill="#7C7D7F" d="M274.4,415.5l-4.1-5c11.6-10.8,24-27.4,25.7-37.3c1.7-9.9,15.8-8.3,13.3,1.7
		C305.9,388.1,289.4,403.9,274.4,415.5L274.4,415.5z"/>
	<path fill="#7C7D7F" d="M188.2,210.7c-20.7,9.1-24,30.7-9.1,43.9c17.4,15.8,47.3,2.5,44.8-21.6c24,0.8,39.8-24,35.7-41.5
		c10.8-9.1,11.6-29-0.8-36.5c-14.1-8.3-27.4-5-35.6,10.8C201.5,164.3,179.9,181.7,188.2,210.7l-10-4.1c-13.3-28.2,10-57.2,39-50.6
		c5.8-14.1,27.4-29,50.6-14.9c19.1,11.6,22.4,40.6,3.3,54.7c9.1,27.4-10,49.7-38.1,47.3c-3.3,34.8-35.7,39-57.2,22.4
		c-12.4-9.1-17.4-22.4-19.1-32.3c-2.5-10-2.5-19.1-13.3-29.8c-7.5-8.3-20.7-8.3-20.7-8.3c0-24.9-24-48.1-53.9-37.3
		c-10-8.3-23.2-9.1-32.3,1.7c-5,6.6-8.3,23.2,8.3,31.5c-0.8,22.4,16.6,37.3,42.3,35.6c1.7,12.4,14.9,23.2,27.4,24.9l-0.8,6.6
		c-12.4-1.7-19.9,3.3-28.2,13.3c-29.9-0.8-51.4,12.4-50.6,34c-20.7,4.2-24.9,26.5-13.3,38.1c12.4,11.6,29.9,7.5,35.7-6.6
		c21.6,4.1,40.6-11.6,41.5-29c19.9,0,29-8.3,32.3-26.5l7.5,0.8c2.5,19.9-6.6,38.1-30.7,36.5c-0.8,23.2-24,36.5-45.6,28.2
		c-10,19.1-32.3,26.5-52.2,8.3c-5.6-5.3-8.8-11.9-10-18.7v-10.6c1.9-11.6,10-22.2,23.2-26.2c0-23.2,17.4-44.8,50.6-36.5
		c0,0,4.1-10.8,14.9-11.6c-7.5-2.5-12.4-6.6-14.1-13.3c-24.9,5-46.4-18.2-40.6-41.5c-22.4-11.6-23.2-34-11.6-47.3
		c11.6-14.1,31.5-17.4,48.9-2.5c29-15.8,63,4.1,60.5,37.3c20.7-0.8,33.2,17.4,31.5,35.6c3.3-8.3,7.5-11.6,14.9-13.3L188.2,210.7
		L188.2,210.7z"/>
	<path fill="#7C7D7F" d="M239.6,170.1l5,4.1c-10,19.9-27.4,42.3-42.3,53.9l-5-4.1C207.3,206.5,229.7,179.2,239.6,170.1L239.6,170.1z
		"/>
	<path fill="#7C7D7F" d="M94.5,282.8l3.3,5c-12.4,12.4-34.8,29-47.3,34.8l-4.1-5C58,305.2,79.6,288.6,94.5,282.8L94.5,282.8z"/>
	<path fill="#7C7D7F" d="M123.5,222.3l-5.8,6.6C102,219,70.5,190.8,63,180l5-5C82.9,182.5,113.6,209.9,123.5,222.3L123.5,222.3z"/>
	<path fill="#7C7D7F" d="M93.7,490.9c2.5,9.1,0.8,19.1,9.1,29c2.5,3.3,19.1,24.9,30.7,35.6c-15.7,5.8-48.1,19.1-70.5,21.6
		c-5,0.8-10,4.1-14.1,6.6c-3.3,5-5.8,13.3-7.5,23.2c-0.8,7.5,0,14.9,0,23.2c0,6.6,3.3,29,11.6,43.9c7.5,14.9,14.9,21.6,24,25.7
		c2.5-0.8,5.8-1.7,12.4-1.7c17.4-0.8,30.7,9.1,36.5,17.4c2.5,3.3,7.5,3.3,13.3,3.3c14.1,0,29-4.1,43.1-10
		c3.3-2.5,12.4-8.3,20.7-14.9c8.3-6.6,56.4-47.3,77.9-57.2c10.8,5.8,29,13.3,48.1,13.3c0.8,0,5,0,8.3-0.8c5.8-0.8,14.1-4.1,23.2-5.8
		c17.4-3.3,37.3-5.8,43.1-5.8c15.8,0,61.4,0.8,72.1,0.8c11.6,0,28.2-0.8,34-1.7c10-2.5,31.5-8.3,52.2-18.2c19.9-9.1,63-39,70.5-45.6
		c3.3-3.3,6.6-6.6,8.3-10c0.8-0.8,1.7-1.7,1.7-2.5c0-0.8-0.8-29.8-0.8-29.8s10.8-11.6,14.9-15.8v-0.8c-1.7-5.8-3.3-24-2.5-43.1
		l-10.8-5c0,23.2-8.3,43.1-16.6,54.7c-14.9,2.5-44.8,12.4-55.6,24l5.8,1.7c9.9-5,20.7-9.1,33.2-9.1c10.8,0,15.7,2.5,15.7,5.8
		c0,2.5-2.5,7.5-3.3,9.1c-0.8,1.7-1.7,4.1-3.3,5.8c-14.1,15.8-30.7,29.8-51.4,40.6c-13.3,7.5-26.5,13.3-46.4,18.2
		c-5.8,1.7-14.1,4.1-19.9,6.6c-7.5-0.8-46.4-1.7-69.6-1.7c-23.2,0-71.3,3.3-86.2,7.5c-6.6,1.7-8.3,4.1-16.6,4.1
		c-14.9,0-34-7.5-46.4-13.3c-1.7,0.8-5.8,2.5-9.9,4.1c-9.1,5-28.2,30.7-39,23.2c-5.8,11.6-29.8,22.4-38.1,34
		c0.8-5.8,10.8-46.4,11.6-54.7c0-1.7,0-2.5-0.8-4.1c-8.3-14.9-33.2-24-47.3-27.4c-4.1-0.8-6.6-0.8-9.1-1.7l-22.4-6.6l-19.9,6.6
		l23.2,4.1l-29.8,19.9c5-1.7,37.3-10.8,39.8-11.6s6.6-1.7,10,0c5,1.7,17.4,4.1,24.9,6.6c4.1,1.7,10.8,10,13.3,14.1
		c0.8,1.7,0.8,5.8,0.8,14.1c0.8,5-0.8,12.4-1.7,18.2c-3.3,14.1-10,25.7-12.4,29.9c-2.5,5.8-6.6,7.5-10.8,9.1
		c-6.6,3.3-14.9,5.8-23.2,5.8c-6.6,0-10.8-0.8-13.3-4.1c-8.3-10.8-28.2-21.6-48.9-17.4c-12.4-8.3-24.9-32.3-24.9-52.2
		c0-11.6,5.8-30.7,9.1-39.8c20.7-3.3,61.4-18.2,82.1-27.4c4.1-0.8,15.8-5,26.5-5c26.5,0,53.9,24,69.6,39.8
		c3.3-4.1,8.3-10.8,21.6-10.8c19.1,0,29.8,17.4,35.6,34.8l9.9-6.6c-1.7-10.8-6.6-21.6-14.9-29.8c-6.6-6.6-19.1-12.4-29-12.4
		c-5.8,0-12.4,1.7-15.8,1.7c-14.1,0-19.9-5.8-29.8-13.3c-10.8-7.5-30.7-18.2-45.6-18.2c-9.1,0-13.3,3.3-20.7,4.1
		c-11.6,0-15.8-5-20.7-11.6c-2.5-3.3-14.1-13.3-17.4-17.4c-1.7-2.5-5-11.6-5.8-16.6L93.7,490.9L93.7,490.9z"/>
	<path fill="#7C7D7F" d="M109.4,501.7c3.3,3.3,6.6,7.5,10.8,10.8c4.1,2.5,9.1,5,13.3,8.3c6.6,3.3,14.1,7.5,21.6,10
		c6.6,2.5,14.9,3.3,23.2,3.3c11.6,0,24.9-2.5,35.7,2.5c7.5,3.3,8.3,11.6,14.1,13.3c9.1,4.1,34.8,5,48.9,5c28.2,0,58-4.1,76.3-8.3
		l-9.1-9.1c-12.4,1.7-48.1,5.8-65.5,5.8c-23.2,0-45.6-4.1-45.6-14.1c0-6.6,7.5-15.8,21.6-15.8c14.1,0,36.5,8.3,40.6,10
		c4.1,0.8,5.8,0.8,9.1,0l8.3-5c-11.6-5-51.4-19.1-65.5-19.1c-6.6,0-10,0.8-14.1,6.6c-5.8,6.6-19.9,13.3-43.1,13.3
		c-12.4,0-29.8-2.5-34-4.1c-6.6-2.5-20.7-10.8-29-16.6c-10.8-8.3-20.7-17.4-27.4-27.4c-2.5-3.3-3.3-6.6-3.3-9.9c0-2.5,0.8-5,1.7-7.5
		c1.7,2.5,4.1,5,6.6,7.5c11.6,11.6,29.8,20.7,48.1,24c5,0.8,10,1.7,14.9,1.7c7.5,0,14.9-4.1,19.9-8.3l-7.5-8.3
		c-2.5,0.8-7.5,0.8-9.9,0.8c-26.5,0-60.5-17.4-68-37.3c-0.8-2.5-1.7-3.3-1.7-5c0.8-1.7,2.5-5.8,2.5-9.1c1.7,1.7,5,4.1,9.1,6.6
		c10,6.6,29,14.9,32.3,17.4c9.1-2.5,16.6-5.8,22.4-9.1c5-2.5,13.3-5,21.6-5c19.9,0,42.3,10.8,63,21.6l14.1-5.8
		c-18.2-13.3-58.9-31.5-81.3-31.5c-13.3,0-25.7,10-34.8,10c-10.8,0-42.3-15.8-42.3-28.2c0-10,19.9-14.9,53.1-19.1
		c-5.8,8.3-11.6,16.6-16.6,25.7l8.3,4.1c51.4-73.8,104.5-121,149.2-150.9c15.8-10,19.1-16.6,24.9-28.2
		c14.1-28.2,27.4-49.7,49.7-49.7c10.8,0,19.1,5.8,24.9,13.3l16.6,5l-16.6,10.8l17.4,7.5c-22.4,5.8-53.1,27.4-64.7,58.9
		c-24,1.7-35.6,20.7-43.1,36.5c-5,10.8-13.3,14.9-25.7,23.2l-96.2,67.2l13.3,1.7l88.7-59.7c18.2-11.6,26.5-19.9,30.7-29
		c8.3-15.8,17.4-28.2,34.8-28.2c8.3,0,17.4,3.3,24.9,10.8l15.8,5l-17.4,10l14.1,9.1c-40.6,12.4-65.5,42.3-80.4,97.8l10.8,2.5
		c5-18.2,10.8-35.6,19.9-50.6c24,0,48.1-0.8,71.3-0.8c63,0,115.2,2.5,143.4,10.8l-9.9-17.4c-29.8-5-73.8-7.5-133.5-7.5
		c-19.9,0-39.8,0.8-59.7,0.8c12.4-14.1,31.5-24.9,59.7-34l-19.9-11.6l22.4-12.4l-30.7-11.6c-5-4.1-12.4-9.1-20.7-10.8
		c10-30.7,43.9-48.1,76.3-60.5l-23.2-9.1l23.2-12.4l-34.8-10.8c-9.1-10.8-18.2-15.8-31.5-15.8c-33.2,0-46.4,28.2-59.7,53.1
		c-6.6,13.3-10.8,18.2-22.4,25.7c-24.9,16.6-56.4,41.5-87.1,73.8c-15.8-11.6-48.1-44.8-57.2-63c-3.3,4.1-6.6,13.3-6.6,13.3
		c3.3,3.3,41.5,42.3,55.6,58.9c-0.8,0.8-1.7,2.5-3.3,3.3c-14.9,3.3-53.9,6.6-68,5l-7.5,13.3c10-0.8,49.7-5.8,65.5-6.6
		c-5,5.8-10,12.4-14.1,18.2c-50.6,5.8-83.7,16.6-83.7,34.8c0,3.3,0.8,6.6,0.8,10c0,7.5-2.5,10.8-8.3,14.1c-3.3,2.5-4.1,4.1-2.5,5.8
		c1.7,2.5,9.1,14.1,9.1,15.8c0,4.1-3.3,7.5-6.6,10.8c-2.5,3.3-2.5,4.1,0,7.5l14.1,31.5L109.4,501.7L109.4,501.7z"/>
	<path fill="#7C7D7F" d="M731.3,329.2c-3.3,3.3-5.8,6.6-8.3,10.8l-8.3-11.6c27.4-35.7,98.7-52.2,141-55.5v-19.1
		c-5.8,1.7-11.6,3.3-16.6,4.1c-7.5,2.5-14.9,4.1-20.7,3.3c-5.8,0-9.9-2.5-12.4-5c-5.8-8.3-0.8-20.7,18.2-31.5l-14.9-12.4
		C798.4,227.3,786.8,243,776,253c-10,8.3-20.7,12.4-29.9,5.8c-4.1-3.3-5.8-5-6.6-14.1c0.8-13.3,8.3-33.2,15.8-46.4l-17.4-1.7
		c-2.5,19.9-10.8,36.5-19.9,50.6c-10.8,18.2-24.9,30.7-39.8,40.6l-9.1-10c11.6-6.6,26.5-18.2,36.5-33.2
		c11.6-18.2,21.6-40.6,21.6-60.5l48.9,4.1c-6.6,9.1-18.2,29-22.4,43.9c-2.5,7.5-2.5,13.3,0.8,15.8c5,4.1,14.1-2.5,23.2-12.4
		c12.4-13.3,24.9-34,30.7-40.6l35.7,29.8c-15.8,8.3-31.5,17.4-28.2,23.2c2.5,5,12.4,3.3,24,0c9.1-2.5,19.1-7.5,26.5-11.6v48.9
		c-17.4-0.8-46.4,2.5-74.6,11.6c6.6,9.1,25.7,12.4,38.1,14.1l-6.6,39.8C792.6,337.5,768.6,330.1,731.3,329.2l12.4-10.8
		c28.2,0.8,55.6,9.1,71.3,16.6l2.5-14.9c-14.9-1.7-32.3-9.9-39.8-19.1c-12.4,5-24,10.8-34,17.4L731.3,329.2L731.3,329.2z"/>
	<path fill="#7C7D7F" d="M583.7,454.4l11.6-24.9c-12.4-14.1-25.7-32.3-37.3-50.6l-9.9-17.4c-23.2-43.9-14.9-64.7-27.4-83.7
		c-10-15.8-58.9-5.8-67.2-4.1l14.1-24l-28.2,2.5l24-28.2c2.5-3.3,4.1-7.5,6.6-16.6c4.1-14.9,16.6-40.6,54.7-40.6
		c41.5,0,53.9,34,72.1,48.1c20.7,16.6,48.1,39.8,72.1,63l9.1,10c12.4,12.4,24.9,25.7,36.5,40.6L723,340
		c50.6,73,112.8,213.1,140.1,276.9c2.5,6.6,4.1,12.4,5.8,17.4c-18.2-9.9-39-23.2-60.5-37.3l-11.6-9.1c-8.3-5.8-15.8-10.8-23.2-17.4
		l-13.3-9.9c-7.5-5.8-14.9-11.6-22.4-18.2l24.9,145.9c2.5,8.3,9.9,6.6,15.8-0.8c5.8-7.5,8.3-9.1,5.8-19.1l-24-107.8l13.3,9.9
		l22.4,91.2c2.5,8.3,5.8,10.8,14.9,11.6c10,0,11.6-3.3,10-9.9l-24-75.4l11.6,9.1l23.2,67.2c5.8,17.4,0,19.9-9.9,19.9
		c-10.8,0-19.9-2.5-25.7,0.8c-5.8,4.1-13.3,14.1-21.6,23.2c-7.5,7.5-18.2,5-20.7-9.1l-28.2-167.5C708,515,690.6,498.4,674.9,481
		c-6.6-3.3-14.1-6.6-20.7-10l-10.8-5c-3.3-1.7-5.8-2.5-7.5-3.3c-7.5,9.9-14.9,19.9-23.2,27.4c-5,3.3-7.5,5.8-14.9,5.8
		c-1.7,0-4.1,0-6.6-0.8c-2.5-1.7-5-5-7.5-9.1c-2.5-2.5-5-6.6-8.3-11.6c-5-9.1-10.8-20.7-16.6-29.8c-5.8-9.9-10.8-18.2-11.6-19.1
		c-0.8-2.5-4.1-5-4.1-5c-2.5,5-5,14.1-5,19.1l-10-3.3c0.8-6.6,4.1-15.8,5-19.9c0-4.1-4.1-9.1-7.5-9.1c-4.2,0-9.1,5.8-11.6,15.8
		l-10.8,4.1c1.7-15.8,6.6-34,22.4-34c13.3,0,21.6,10,27.4,19.1C558.8,421.3,579.5,449.5,583.7,454.4l7.5,10
		c1.7,6.6,4.1,9.9,5.8,12.4c2.5,4.1,5.8,4.1,9.9,0c1.7-1.7,7.5-6.6,14.1-13.3c5-5,10-11.6,11.6-14.9c5.8,2.5,16.6,8.3,25.7,11.6
		c-38.1-46.4-73.8-102-89.5-141c-6.6-15.8,6.6-20.7,12.4-5c16.6,42.3,64.7,116.9,100.3,155.9c41.5,45.6,116.9,111.1,165.8,137.6
		c-7.5-14.1-16.6-34-27.4-57.2c-59.7-33.2-120.2-95.3-148.4-148.4L684,403c26.5,46.4,88.7,108.6,126,126
		c-34-71.3-77.9-162.5-111.9-201.5C655,279.5,608.6,242.2,587,222.3c-22.4-19.1-31.5-43.1-63-43.1c-25.7,0-39,19.1-44.8,37.3
		c-0.8,4.1-1.7,5.8-4.1,9.9l-12.4,14.9l26.5-3.3l-14.9,21.6c0,0,41.5-9.1,56.4,10c14.9,21.6,5,45.6,30.7,92
		c11.6,20.7,39,57.2,48.1,65.5l-18.2,37.3L583.7,454.4L583.7,454.4z"/>
	<path fill="#7C7D7F" d="M174.9,461.1l-6.6-4.1c4.1-3.3,10.8-7.5,17.4-10.8c4.1-1.7,7.5-2.5,10.8-2.5c6.6,0,13.3,3.3,19.1,6.6
		c9.1,5,19.9,10.8,28.2,10.8c2.5,0,5.8-0.8,9.1-0.8c8.3,0,15.8,3.3,19.9,3.3c2.5,0,5-2.5,6.6-5c4.1-5.8,9.9-10.8,18.2-14.1
		c8.3-3.3,18.2-5,29-5c8.3,0,16.6,1.7,21.6,2.5c0,0-6.6,7.5-8.3,9.9c-9.1,0-25.7-0.8-35.7,3.3c-6.6,3.3-9.1,6.6-9.1,12.4
		c0,7.5,8.3,10.8,18.2,13.3c5.8,1.7,12.4,2.5,17.4,2.5c6.6,0,19.9-2.5,32.3-5.8c14.9-3.3,29.9-6.6,34-8.3l5,9.9
		c-16.6,5.8-34,10.8-50.6,14.1c-9.1,1.7-17.4,3.3-24.9,3.3c-13.3,0-27.4-5.8-39-10.8c-9.9-5-18.2-10-26.5-10
		c-8.3,0-16.6,3.3-24.9,8.3c-4.1,1.7-15.8,9.9-26.5,14.1c-8.3,3.3-14.9,5-23.2,5c-7.5,0-11.6-0.8-14.9-3.3l12.4-8.3
		c1.7,1.7,5,1.7,6.6,1.7c1.7,0,4.1,0,9.1-1.7c2.5-1.7,6.6-4.1,9.1-5.8c5-3.3,6.6-5,9.1-6.6c3.3-3.3,5-7.5,0-11.6
		c-2.5-1.7-5-4.1-7.5-5.8c-5-2.5-8.3-5.8-15.8-5.8C184.9,456.1,178.3,459.4,174.9,461.1L174.9,461.1z"/>
	<path fill="#7C7D7F" d="M353.2,466c0,0-7.5-2.5-9.9-2.5c5-6.6,11.6-12.4,17.4-16.6c10-6.6,20.7-10.8,37.3-11.6
		c4.1,0,13.3-0.8,19.1-0.8c4.1,0,12.4,0.8,19.1,1.7c5,0.8,9.9,2.5,14.1,3.3c2.5,0,10.8,0,13.3-0.8c11.6-1.7,25.7-5.8,33.2-9.9
		l3.3,11.6c-15.8,7.5-34,15.8-50.6,15.8c-7.5,0-16.6-0.8-24.9-1.7c-14.1-1.7-27.4-3.3-31.5-3.3C381.4,451.1,364.8,456.1,353.2,466
		L353.2,466z"/>
	<path fill="#7C7D7F" d="M341.6,528.2l-14.9-6.6c20.7-10.8,52.2-20.7,64.7-23.2c13.3-1.7,28.2-3.3,36.5-5.8
		c4.1,9.1,11.6,19.9,22.4,19.9c4.1,0,10.8-3.3,17.4-5.8c7.5-3.3,14.9-6.6,19.1-9.1c4.1-1.7,17.4-7.5,29-12.4
		c5-2.5,16.6-8.3,17.4-8.3l8.3,4.1c-2.5,10-6.6,22.4-10.8,31.5c-1.7,4.1-3.3,6.6-5.8,9.1c-3.3,3.3-8.3,8.3-15.8,13.3
		c-7.5,5.8-17.4,11.6-27.4,17.4c-7.5,4.1-15.8,9.1-23.2,12.4l-4.1-7.5c12.4-6.6,24.9-15.8,35.6-24c5-3.3,10-7.5,14.1-10.8
		c2.5-2.5,4.1-4.1,5-6.6c3.3-5,9.1-14.1,10.8-18.2c-5,1.7-22.4,9.9-29.9,14.1c-9.1,5-23.2,11.6-30.7,15.8c-6.6,3.3-12.4,5-16.6,5
		c-8.3,0-12.4-6.6-14.9-10.8c-5.8-10-11.6-10.8-27.4-10.8C382.2,510,356.5,518.3,341.6,528.2L341.6,528.2z"/>
	<path fill="#7C7D7F" d="M427.8,481.8c0,0-1.7-8.3-2.5-11.6c0,0,2.5-0.8,5.8-0.8c5,0,19.1,1.7,24.9,1.7c20.7,0,29-6.6,34.8-12.4
		c5.8-5,10.8-9.1,25.7-9.1c12.4,0,27.4,5.8,31.5,7.5l-0.8,11.6c-6.6-3.3-14.9-5.8-22.4-5.8c-5,0-10,0.8-13.3,2.5
		c-4.1,1.7-6.6,5-10,7.5c-3.3,3.3-9.1,5.8-15.8,8.3c-6.6,2.5-14.9,4.1-27.4,4.1C441.9,485.1,433.6,482.6,427.8,481.8L427.8,481.8z"
		/>
	<path fill="#7C7D7F" d="M293.5,569.7l9.9-4.1c8.3,4.1,21.6,7.5,30.7,7.5c5.8,0,9.9-1.7,13.3-3.3c3.3-1.7,35.7-17.4,52.2-23.2
		c5-1.7,10.8-3.3,13.3-3.3c3.3,0,4.1,2.5,5,4.1c3.3,5,27.4,39,29.8,41.5c19.9-5.8,41.5-14.9,53.1-26.5
		c12.4-12.4,23.2-26.5,33.2-37.3c4.1-4.1,9.1-8.3,11.6-9.1c9.9-5.8,43.1-6.6,56.4-5.8l-8.3,11.6c-24,0-37.3,2.5-43.1,7.5
		c-2.5,1.7-6.6,5.8-10.8,10c-8.3,10.8-16.6,25.7-20.7,29c7.5,4.1,14.9,9.1,27.4,9.1c20.7,0,34.8-13.3,43.1-20.7l6.6,4.1
		c-5,6.6-10.8,13.3-18.2,19.1c-8.3,5-18.2,9.1-24.9,10.8c-11.6-2.5-37.3-7.5-43.9-9.1c-22.4,9.1-59.7,24-71.3,28.2
		c-2.5,0-5,0.8-8.3,0.8c-10,0.8-24,0.8-36.5,0.8c-8.3,0-16.6,0-20.7-0.8l-10.8-11.6c9.1,1.7,13.3,2.5,22.4,2.5c20.7,0,34.8-3.3,39-5
		c4.1-0.8,5-3.3,3.3-6.6c-1.7-5-5-10.8-10-15.8c-2.5-3.3-8.3-8.3-10.8-9.9c-2.5-1.7-5-2.5-13.3,0c-7.5,2.5-30.7,14.9-40.6,20.7
		c-5,2.5-9.1,3.3-17.4,0.8C325,583.8,302.6,575.5,293.5,569.7L293.5,569.7z"/>
	<path fill="#7C7D7F" d="M357.3,313.5c4.1,0,8.3-3.3,8.3-8.3c0-4.1-4.1-8.3-8.3-8.3c-5,0-8.3,4.1-8.3,8.3
		C349.1,310.2,352.4,313.5,357.3,313.5L357.3,313.5z"/>
</g>
</svg>
