<?xml version="1.0" encoding="utf-8"?>
<!-- Generator: Adobe Illustrator 18.1.0, SVG Export Plug-In . SVG Version: 6.00 Build 0)  -->
<!DOCTYPE svg PUBLIC "-//W3C//DTD SVG 1.1//EN" "http://www.w3.org/Graphics/SVG/1.1/DTD/svg11.dtd">
<svg version="1.1" id="Layer_1" xmlns="http://www.w3.org/2000/svg" xmlns:xlink="http://www.w3.org/1999/xlink" x="0px" y="0px"
	 viewBox="0 0 870.6 870.5" enable-background="new 0 0 870.6 870.5" xml:space="preserve">
<path fill="#E01E26" d="M516,407.9c-1-9.3-2.5-18.5-4.4-27.4l-158.4,0c2-9.3,4.5-18.4,7.6-27.4l143.4,0c-3.1-9.3-6.8-18.5-11-27.4
	l-121.4,0c4.4-9.4,9.4-18.6,14.9-27.4l91.6,0c-6-9.5-12.6-18.7-19.7-27.4l-52.2,0c8-9.7,16.7-18.9,26.1-27.4
	c-46-41.7-106.8-67-173.7-67C115.8,176.5,0,292.4,0,435.3C0,578.2,115.8,694,258.7,694c66.9,0,127.8-25.3,173.7-66.9
	c9.3-8.5,19-17.6,27-27.4l-53,0c-7.2-8.6-13.7-17.8-19.7-27.4l91.6,0c5.5-8.8,10.5-18,14.9-27.4l-121.4,0c-4.2-8.9-7.9-18-11.1-27.4
	l143.5,0c2.9-9,5.5-18,7.5-27.4c1.9-9,3.4-18.1,4.4-27.4c0.9-9,1.5-18.1,1.4-27.4C517.4,426,517,416.9,516,407.9"/>
<path fill="#F19220" d="M432.4,627.1C478.3,668.6,539.2,694,606,694c142.9,0,258.7-115.8,258.7-258.7
	c0-142.9-115.8-258.7-258.7-258.7c-66.8,0-127.7,25.3-173.6,67c-9.4,8.5-18.1,17.6-26.1,27.4l52.2,0c7.1,8.7,13.8,17.9,19.7,27.4
	l-91.6,0c-5.5,8.8-10.5,18-14.9,27.4l121.4,0c4.2,8.9,7.9,18,11,27.4l-143.4,0c-3,9-5.6,18.1-7.6,27.4l158.4,0
	c1.9,8.9,3.4,18.1,4.4,27.4c1,9,1.4,18.1,1.4,27.4c0.1,9.2-0.5,18.4-1.4,27.4c-1,9.3-2.4,18.4-4.4,27.4c-2,9.4-4.5,18.4-7.5,27.4
	l-143.5,0c3.1,9.4,6.9,18.5,11.1,27.4l121.4,0c-4.4,9.4-9.4,18.6-14.9,27.4l-91.6,0c6,9.6,12.5,18.7,19.7,27.4l53,0L432.4,627.1"/>
<path fill="#1D1D1B" d="M421.3,431.1c0-8.6-4.9-13.7-13.3-13.7c-6.4,0-11.6,3.6-14.9,10.3c2.3-1.4,4.9-2.1,7.8-2.1
	c7.4,0,12.1,4,13,10.9l7.1,0C421.3,434.3,421.4,432.5,421.3,431.1"/>
<path fill="#1D1D1B" d="M388.2,458c-0.2,1.7-0.3,2.4-0.3,3.3c0,1.7,0.2,3.4,0.5,4.9l49.2,0c0.7-2.9,1.3-5.6,1.7-8.2L388.2,458"/>
<path fill="#1D1D1B" d="M408.2,504.1c-31.3,0-47.6-16.3-47.6-47.6c0-15.7,3.8-29.7,10.5-40.5c-10.4,11.4-16.6,28.6-16.7,48.7
	c0,31.3,18.1,47.7,47.6,47.7c9.8,0,19.1-1.4,28.7-4.3l1.2-6.8C424.1,503.1,416.3,504.1,408.2,504.1"/>
<path fill="#1D1D1B" d="M572.9,396.7c-10.9,0-20,5.4-26.4,14.7c5.4-4.2,11.7-6.4,18.7-6.5c7.8,0,15,2,25,7.1l1.8-10.9
	C585,398,579.1,396.7,572.9,396.7"/>
<path fill="#1D1D1B" d="M557.6,504.5c-30.2,0-49-21.6-48.9-56.4c0-29.9,10.6-54,27.9-67.5c-7.3,4-13.2,8.7-19.6,15.5l-3.3-1l-2,3.8
	c-3.7,7.6-6.5,16.1-8.7,27.1c-1.1-0.1-1.1-0.1-2-0.1c-6.7,0-10.7,2.8-14.3,13.7c2.9-2.8,6.2-3.6,10.1-3.6c0.7,0,3.4,0,4.8,0.1
	c-1,6.4-1.4,13.1-1.4,19.8c0.2,34.8,19.7,56.9,49.9,56.9c7.8,0,14.4-1,24.7-3.8l1.1-6.6C569,503.9,563.6,504.5,557.6,504.5"/>
<path fill="#1D1D1B" d="M446.9,502.1l15.7-98.2h-5.8l-17.1,106.4l28,0c0.5-2.8,0.9-5.6,1.3-8.2H446.9"/>
<path fill="#1D1D1B" d="M803.9,408.6l4.8-29.1h-6.7l-3.7,22.8C800.2,404.1,802,406.2,803.9,408.6"/>
<path fill="#1D1D1B" d="M797.2,441.2c-0.1-13.5-5.2-20.8-14.9-20.8c-6.7,0-12.4,4.1-16.2,11.1c2.7-1.9,5.7-2.9,9.1-2.9
	c9.6,0,14.8,7.3,14.8,20.8c0,9.9-2,18.3-5.5,24.6C792.3,468.6,797.2,456.6,797.2,441.2"/>
<path fill="#1D1D1B" d="M677.5,502.1l15.7-98.2l-5.8,0.1l-17.1,106.4l28,0c0.5-2.9,0.9-5.6,1.4-8.2L677.5,502.1"/>
<path fill="#1D1D1B" d="M789.8,502.1l1.3-10.4c-7.6,8.2-15.6,11.8-25.9,11.8c-20.4,0-33.8-17.6-33.8-44.2c0-20.2,6.8-38.6,17.2-50.7
	c-6.2,4.1-11.3,10.1-15.3,17.4c-1-0.1-1.1-0.1-1.9-0.1c-7.4,0-11.5,3.4-15.5,17.5c3.9-5.4,8.1-7.1,12.9-7.3
	c-3.3,9.4-5.1,20.2-5.1,31.5c0.1,26.6,14,44.2,34.3,44.2c10.3,0,18.2-3.7,25.9-11.8l-1.4,10.4h26.5l1.3-8.2H789.8"/>
<polyline fill="#1D1D1B" points="25.3,502.1 45.8,379.5 39.1,379.5 17.2,510.4 44.4,510.4 45.7,502.1 25.3,502.1 "/>
<polyline fill="#1D1D1B" points="88.5,452.2 113,379.5 107.7,379.5 88.4,437 88.5,452.2 "/>
<polyline fill="#1D1D1B" points="109.5,502.1 125.6,401.5 115,431.1 102.5,510.4 130.4,510.4 131.8,502.1 109.5,502.1 "/>
<polyline fill="#1D1D1B" points="70.7,502.1 68.3,402.1 61.9,440.2 63.6,510.4 82.7,510.4 85.6,502.1 70.7,502.1 "/>
<path fill="#1D1D1B" d="M162.7,429.3c6.2-1.8,15.3-3,23.2-3c11.8,0,16.9,2.2,17.8,7.8c2,0.1,4.1,0.4,6.2,0.6c0.9-3.4,1.1-5,1.1-6.9
	c0-7.1-4.8-9.7-17.9-9.7c-8,0-17,1.1-23.3,2.9l-3.9,1.1l-2.5,0.7l2.8-17.3c-2,0.5-3.9,1.1-6,1.6l-3.9,23.9l2.5-0.7L162.7,429.3"/>
<path fill="#1D1D1B" d="M206.6,454.7c-3-0.3-4.3-0.4-6.3-0.4c-13.1,0-20.8,3.7-23.1,11c3.6-1.9,8.5-2.8,14.6-2.8
	c1.9,0,3.2,0.1,5.9,0.5c-0.2,6.3-1.1,11.8-2.9,16.1C201.6,475.2,206.2,466.2,206.6,454.7"/>
<path fill="#1D1D1B" d="M203.7,502.1l0.5-11.1c-7.1,8.7-16.5,12.9-29.4,12.9c-15.2,0-25.5-11.8-25.5-29.1c0-8.9,2.1-16.5,6.2-22.7
	c-6.4,4.9-10.1,11.4-12.2,19.4l-1.2,7.7c-0.1,1.3-0.2,2.5-0.2,3.9c0,17.2,10.7,29.1,25.9,29.1c12.8,0,22.2-4.2,28.4-12.9l-0.5,11.1
	l24.2,0l0.3-2.9l0.7-5.4L203.7,502.1"/>
<path fill="#1D1D1B" d="M286.3,418.5c-9,0-13.7,2.9-13.7,8.7c0,0.1,0,0.2,0,0.3c1.9-0.5,4-0.7,6.6-0.7c5.5,0,12.9,0.6,20.1,1.6
	l1.5-9C295.5,418.8,290.3,418.5,286.3,418.5"/>
<path fill="#1D1D1B" d="M262.3,503.9c-3.6,0-8.8-0.4-15.4-1c-3.2-0.2-5.7-0.6-7.3-0.9l-5.1-1.1l-1.3-0.2l2.2-14.5
	c-2-0.6-4.1-1.1-6.4-1.8l-3.3,24.6l1.6,0.2l5.1,1.1c1.7,0.3,4.1,0.6,7.4,0.9c6.6,0.6,11.7,0.9,15.4,0.9c20.2,0,32.8-5.2,38.9-16.3
	C286.9,501.2,276.4,503.8,262.3,503.9"/>
<path fill="#1D1D1B" d="M265.1,459c-14.8-7-21.3-16.2-21.3-29.6c0-7.1,1.4-13.7,4.6-19.3c-6,4.8-9.5,11.2-10.9,18.5
	c-0.1,2.2-0.4,4.6-0.8,7.8c0,0.4,0,0.8,0,1.2c0,13.5,6.5,22.7,21.3,29.7c11.3,5.3,13.1,6.9,13.1,11.7c0,0.1,0,0.3,0,0.4
	c4.9-1.4,7.1-4.2,7.1-8.6C278.1,465.9,276.4,464.4,265.1,459"/>
<polyline fill="#1D1D1B" points="345.8,421.5 344.3,430.8 354.4,430.8 355.8,421.6 345.8,421.5 "/>
<path fill="#1D1D1B" d="M331.2,504.3c-14.4-0.1-22.1-8.2-22.1-23.4c0-3,0.3-6.2,0.9-9.5l1.7-10.4l1.3-8.4l10.8-64.4l-5.8,0
	l-12.1,72.6l-0.6,3.5c0.2,1.3,0.2,2.7,0.2,4.1c0,6.9-1.1,12.7-3.3,17.5c-0.1,1.1-0.1,2.1-0.1,3.2c0,15.1,7.9,23.4,22.1,23.4
	c6.5,0,12.4-1.1,20.1-3.5l1.1-6.6C340.3,503.7,335.9,504.3,331.2,504.3"/>
<path fill="#1D1D1B" d="M603.9,429.3c6.2-1.8,15.2-2.9,23.2-3c11.8,0,16.9,2.2,17.8,7.8c1.9,0.1,4.1,0.3,6.2,0.6
	c0.8-3.5,1.1-5,1.1-6.9c0-7-4.9-9.7-18-9.7c-8,0-17,1.2-23.2,3l-3.9,1.1l-2.5,0.7l2.8-17.4c-1.9,0.5-3.9,1.1-6,1.7l-3.9,23.9
	l2.5-0.7L603.9,429.3"/>
<path fill="#1D1D1B" d="M647.7,454.7c-2.9-0.3-4.3-0.5-6.3-0.5c-13,0.1-20.7,3.7-23.1,11c3.6-1.8,8.5-2.7,14.7-2.7
	c1.9,0,3.1,0.1,5.9,0.4c-0.1,6.3-1,11.8-2.9,16.2C642.8,475.1,647.4,466.3,647.7,454.7"/>
<path fill="#1D1D1B" d="M644.8,502.1l0.6-11c-7.1,8.7-16.6,12.8-29.4,12.9c-15.2,0-25.6-11.9-25.6-29.1c0-8.9,2.2-16.6,6.2-22.7
	c-6.7,5.1-11.1,12-13.1,20.5c1.2-0.6,2.5-1.1,3.8-1.8l-3.6,21.9c3.4,11.9,13.1,19.4,25.3,19.5c12.8,0,22.2-4.2,28.4-12.9l-0.5,11.1
	l24.2,0l0.3-2.9l0.7-5.4L644.8,502.1"/>
<path fill="#FFFFFF" d="M351.3,500.8c-7.7,2.4-13.6,3.5-20.1,3.5c-14.4-0.1-22.1-8.2-22.1-23.4c0-3,0.3-6.2,0.9-9.5l1.7-10.4
	l1.3-8.4l12.1-72.6l27.9,0l-3.2,15.8l14.3,0l-3.9,25.9l-14.3-0.1l-7.4,44.4c-0.3,1.9-0.5,3.4-0.5,4.4c0,5.5,2.9,7.9,9.6,7.9
	c3.2,0,5.6-0.3,7.6-1L351.3,500.8"/>
<path fill="#FFFFFF" d="M243.7,429.3c0,13.4,6.5,22.6,21.3,29.6c11.3,5.4,13.1,6.9,13.1,11.7c0,6.6-5,9.6-16.1,9.6
	c-8.4,0-16.1-1.3-25-4.3l-3.9,24.6l1.3,0.2l5.1,1.1c1.6,0.3,4.1,0.6,7.3,0.9c6.7,0.6,11.8,0.9,15.4,1c29.5,0,43.1-11.3,43.1-35.5
	c0-14.6-5.6-23.2-19.6-29.7c-11.7-5.4-13.1-6.6-13.1-11.5c0-5.7,4.7-8.7,13.7-8.7c5.5,0,12.9,0.6,20.1,1.6l4-24.7
	c-7.3-1.1-18.3-2-24.7-2C254.5,393.4,243.6,409.7,243.7,429.3"/>
<path fill="#FFFFFF" d="M602.5,375.3l-4.6,28.4c-10-5-17.2-7.1-25-7.1c-20.9,0-35.5,20.2-35.6,49c0,19.8,9.9,31.9,26.2,31.9
	c6.9,0,14.5-2.1,23.8-6.7l-4.9,29.8c-10.4,2.8-17,3.8-24.7,3.8c-30.2,0-49-21.6-48.9-56.4c0-46.8,25.9-79.5,63.1-79.5
	c4.8,0,9,0.5,12.5,1.4l11.5,2.9C599.3,374,600,374.3,602.5,375.3"/>
<path fill="#FFFFFF" d="M816.3,502.1h-26.4l1.3-10.4c-7.6,8.2-15.6,11.8-25.9,11.8c-20.4,0-33.8-17.6-33.8-44.2
	c0-35.4,20.8-65.3,45.6-65.2c10.9,0,19.1,4.4,26.8,14.6l6.1-37.4l27.6,0L816.3,502.1L816.3,502.1z M775,477.1
	c13-0.1,22.2-14.8,22.2-35.9c-0.1-13.5-5.2-20.8-14.9-20.8c-12.7,0-21.7,14.8-21.7,35.7C760.6,470,765.5,477,775,477.1"/>
<path fill="#FFFFFF" d="M436.9,499.8c-9.6,2.9-18.9,4.4-28.7,4.3c-31.3,0-47.6-16.3-47.6-47.6c0-36.6,20.7-63.4,48.9-63.4
	c23.1,0,37.7,15.1,37.7,38.7c0.1,7.8-1,15.5-3.4,26.3l-55.6,0c-0.2,1.7-0.3,2.4-0.3,3.3c0,12.3,8.3,18.6,24.6,18.6
	c10,0.1,19-2.1,29.1-6.7L436.9,499.8L436.9,499.8z M421.1,436.5c0.2-2.2,0.2-4,0.2-5.4c0-8.6-4.9-13.7-13.3-13.7
	c-8.8,0-15.2,6.8-17.8,19L421.1,436.5"/>
<path fill="#FFFFFF" d="M512.6,394.8c-0.9-0.2-1.8-0.3-2.8-0.3c-9.2,0-14.4,4.7-23,17.3l2.5-16.2l-25.4,0l-17,106.4l28,0
	c10-65.1,12.7-76.3,26.1-76.3c0.9,0,1-0.1,2,0.1c2.5-12.9,6-22.3,10.7-30.9L512.6,394.8"/>
<path fill="#FFFFFF" d="M743.2,394.8c-0.9-0.1-1.8-0.3-2.8-0.3c-9.2,0-14.4,4.7-23,17.3l2.5-16.1l-25.4,0l-17,106.4l28-0.1
	c10-65,12.7-76.3,26.1-76.3c0.9,0,0.8,0,1.9,0.1c2.5-12.9,6-22.3,10.7-30.9L743.2,394.8"/>
<polyline fill="#FFFFFF" points="137.6,502.1 109.5,502.1 125.6,401.5 89.8,502.1 70.7,502.1 68.3,402.1 51.5,502.1 25.3,502.1 
	47.2,371.3 87.4,371.3 88.5,452.2 115.8,371.3 159.3,371.3 137.6,502.1 "/>
<path fill="#FFFFFF" d="M206.6,454.7c-3-0.3-4.3-0.4-6.3-0.4c-15.9,0-23.9,5.4-23.9,16.1c0,6.7,3.9,10.9,10,10.9
	C197.8,481.3,206.1,470.5,206.6,454.7L206.6,454.7z M226.9,502.1l-23.2,0l0.5-11.1c-7.1,8.7-16.5,12.9-29.4,12.9
	c-15.2,0-25.5-11.8-25.5-29.1c0-25.9,18.1-41,49.1-41c3.2,0,7.3,0.3,11.4,0.8c0.9-3.4,1.1-5,1.1-6.9c0-7.1-4.8-9.7-17.9-9.7
	c-8,0-17,1.1-23.3,2.9l-3.9,1.1l-2.5,0.7l3.8-23.9c13.9-4,23.2-5.6,33.5-5.6c24.1,0,36.8,10.8,36.8,31.2c0,5.3-0.4,9.2-2.3,21.1
	l-5.8,37.7l-1,6.8l-0.8,5.4l-0.5,3.7L226.9,502.1"/>
<path fill="#FFFFFF" d="M627.6,481.3c-6.1,0-10.1-4.2-10-10.8c0-10.7,8-16.2,23.9-16.2c2,0,3.4,0.1,6.3,0.5
	C647.2,470.4,639,481.3,627.6,481.3L627.6,481.3z M668.4,499.2l0.5-3.7l0.7-5.4l1-6.7l5.8-37.8c1.9-11.8,2.3-15.8,2.3-21.1
	c0-20.4-12.8-31.2-36.8-31.2c-10.3,0-19.5,1.5-33.4,5.6l-3.9,23.9l2.5-0.7l3.9-1.1c6.2-1.8,15.3-3,23.2-3c13.1,0,18,2.7,18,9.7
	c0,2-0.3,3.4-1.1,6.9c-4.2-0.5-8.2-0.8-11.4-0.8c-31.1,0-49.1,15.1-49.2,41c0,17.2,10.4,29,25.6,29.1c12.8,0,22.3-4.2,29.4-12.9
	l-0.6,11l23.3,0L668.4,499.2"/>
</svg>
