<?xml version="1.0" encoding="utf-8"?>
<!-- Generator: Adobe Illustrator 18.1.0, SVG Export Plug-In . SVG Version: 6.00 Build 0)  -->
<!DOCTYPE svg PUBLIC "-//W3C//DTD SVG 1.1//EN" "http://www.w3.org/Graphics/SVG/1.1/DTD/svg11.dtd">
<svg version="1.1" id="Layer_1" xmlns="http://www.w3.org/2000/svg" xmlns:xlink="http://www.w3.org/1999/xlink" x="0px" y="0px"
	 viewBox="0 0 870.6 870.5" enable-background="new 0 0 870.6 870.5" xml:space="preserve">
<path fill-rule="evenodd" clip-rule="evenodd" d="M282.8,430.4C349.4,458.1,393.8,497,434,584.3c40.2-87.3,83.2-131.7,151.1-159.4
	c56.9-20.4,113.9-40.8,170.8-61.2c0.4,1.5,0.7,2.9,1.1,4.3c2.8,19.4,4.2,43,4.2,66.6c0,241.2-159.4,289.8-327.2,288.4
	c-167.8,1.4-325.8-47.1-325.8-288.4c0-18,0-36.1,2.8-51.3c0.8-3.4,1.6-6.8,2.5-10.2C169.9,392.2,226.4,411.3,282.8,430.4
	L282.8,430.4z M719.2,263.1c-1.2-2-2.5-4-3.7-6C655.8,168.4,547.6,147.6,434,147.6s-224.6,22.2-282.8,112.3
	c-2.1,3.6-4.2,7.2-6.3,10.8c100,57.2,213.5,58.2,289.1,202.7C503.4,324.5,618.1,322.4,719.2,263.1L719.2,263.1z M800,211.4
	c-3.2-3.7-6.5-7.4-9.7-11.1C701.5,104.6,556,83.8,434,83.8c-123.4,0-273.1,20.8-360.5,122c-1.4,1.9-2.8,3.7-4.2,5.6
	C26.3,262.7,0,336.1,0,434.6c0,303.6,246.8,352.2,434,352.2c188.6,0,435.3-48.5,435.3-352.2C869.3,336.1,843,262.7,800,211.4
	L800,211.4z"/>
</svg>
