<?xml version="1.0" encoding="utf-8"?>
<!-- Generator: Adobe Illustrator 18.1.0, SVG Export Plug-In . SVG Version: 6.00 Build 0)  -->
<!DOCTYPE svg PUBLIC "-//W3C//DTD SVG 1.1//EN" "http://www.w3.org/Graphics/SVG/1.1/DTD/svg11.dtd">
<svg version="1.1" id="Layer_1" xmlns="http://www.w3.org/2000/svg" xmlns:xlink="http://www.w3.org/1999/xlink" x="0px" y="0px"
	 viewBox="0 0 870.6 870.5" enable-background="new 0 0 870.6 870.5" xml:space="preserve">
<g>
	<path fill-rule="evenodd" clip-rule="evenodd" fill="#D0432F" d="M584.8,121.1l-115.9,0c-29.7-8.1-39.7,7.9-53.5,9.2
		c-2.8,0.3-3.1,3.6,0,4.5l27.6,7.2c5.9,1.5,4.7,8.3-0.8,8l-26.1-1.3c-3.3-0.2-5.1,2.2-5.5,5.4c-0.9,7.1-1.4,14.1-1.5,20.9l29.2-5.4
		c4.9-1.2,6.6,6.2,1.7,7.4l-30.8,7.3c0.2,5,0.7,10,1.4,14.9l29.1-6.9c4.9-1.2,6.6,6.2,1.7,7.4l-29.6,7c0.9,4.5,2,9,3.4,13.4
		l32.6-7.7c4.9-1.2,6.6,6.2,1.7,7.4l-29.5,7c3.6,3.2,6.9,6.9,10.1,11.4l27.3-6.4c4.9-1.2,6.6,6.2,1.7,7.4l-24.6,5.8
		c2.4,4.1,4.8,8.6,7,13.6l27-6.4c4.9-1.2,6.6,6.2,1.7,7.4l-25.4,6c2.2,4.5,4.4,8.7,6.7,12.6l29.9-7.1c4.9-1.2,6.6,6.2,1.7,7.4
		l-27.4,6.5c2.8,4.2,5.7,8,8.8,11.4c0.5,0.5,1,1,1.4,1.4l31.4-7.4c4.9-1.2,6.6,6.2,1.7,7.4l-26.6,6.3c0.6,0.6,1.2,1.1,1.8,1.7
		c1.8,1.4,3.6,2.7,5.5,3.9c0.6,0.4,1.3,0.8,1.9,1.2c8.7,3.4,23.5,3.8,35.6-0.5c9-3.3,10.2,5.8,4.1,7.7c-19.3,6.3-36,4.8-50.5-4.3
		c-14.5-9.1-27-25.8-37.8-50.1c-18.9-42.1-42.3-51.5-85.7-41.6L7.9,299.3c-10.3,2.3,6.1,10.7,20.4,13.2c7.9,8.6,17.5,15.2,30.4,17.7
		c9.6,10.4,20.4,16.6,34,13.8c14.2,11.2,29.5,20.6,52.8,17.6c8.6,8.5,25.3,12.9,54.1,11.3c3.4,7.1,18.3,8.5,36.1,8.3
		c24.4-0.2,46.4-1.8,70.2-10.5c16.2,1.9,30.1-7.5,39.8-7.3c13.4,0.3,14.2,11.8,52.6,11.9c18.2,0.1,38-4.6,49.1-10.1
		c4.6-2.3,7.6,3.4,2.5,6.3c-12,6.7-28.3,10.6-56.5,10.6c-34.9,0.1-33.2-9.2-45.4-9.4c-10.4-0.1-21,4.2-32,8.3
		c-13.9,5.3-26.8,17.3-35.7,28.1c-12,14.6-26.3,26.6-41.3,30.9c-36.4,10.4-59.8,15.1-87.3,18.5c-47,5.8-78.5,34.5-78.6,66.3
		c0,24.3,13.2,32.2,41.5,31.5c4.1-0.1,5-3.7,2-6.3c-3.7-3.2-6.2-11.1-6-16.1c0.4-12.6,12.3-24.4,21.5-24.9c16.4-1,47.9-13,73.1-30.7
		c15.1-10.6,31.5-25.4,42.6-26.1c7.8-0.5,9.3,7.9,9.5,13.8c0.5,10.6-0.5,20.6-0.5,31.1c0,14.3,2,27.5,2,42.8c0,8.6-8,17.6-17.2,17.4
		c-8.2-0.2-17.6,4.3-18,15.3c-0.5,17.1-17.2,14.4-17.2,36.5c0,20.5-3,31.7-12.2,37.2c-5.8,3.5-10.8,8.7-13.4,16.9
		c-3.2,10.1-7.8,10.9-13.8,7.3c-2.6-1.6-7.1,0-8.8,2.5l-12.6,18.9c-4.1,6.1-3.3,7.6,2.5,7.5c9.5,0,17-3.4,24.7-10.3
		c5.2-4.7,12.4-5.7,12.8,3.4c0.2,5.2-4.7,5-4.7,16.1c-0.1,18.7-13.5,5.3-17.6,15.1l-8.1,19.4c-2.2,5.3,0.1,8.4,3.5,8.4
		c5.7,0,11.9-3.4,16.9-8.6l16.2-17c5.6-5.9,9.2-13.4,10.8-21.2l12.6-60.7c2.4-11.4,14.5-31.5,28.7-36.3c27.2-9.1,42-16.8,60.3-28.7
		c20.5-13.3,38.9-24.9,45.3-45.3c7.1-22.3,17.2-38,28.9-48.4c4.3-3.8,7.7-5.6,10.7-5.5c4.5,0,6.2,4.4,3.1,7.3
		c-1.7,1.6-2.3,3.6,2.9,3.6c33.4-0.2,65.5,9.1,91.5,9.1c20.9,0,45.4-6,53.6-7.8c17.9-4.1,32.2-6.5,46.9-15.6
		c5-3.1,20.4-12,25.6-14.7c2.1-1.1,3.2-3.8,0.6-5.9c-4-3.2-11.5-5.6-11.5-11.8c0-2.6,2-4.7,5.3-4.7c5.3,0,10.8,5.1,15.9,13.4
		c2.4,4,6.1,9,11.5,9.1c12.3,0.2,16.1-9.6,33.3-10c9.5-0.2,22-6.8,28-7.2c19-1.3,20.4-11.7,31.1-11.7c6.5,0,8.7,3.3,8.1,7.2
		c-2,15-6.7,24.6-13.6,31.6c-2.5,2.5-2.8,4.3-1.5,6.5c2.6,4.5-7,13.5-11.1,9.6c-3.2-3-7.8-4.8-10.3,0.6l-9.4,21.2
		c-2.7,6.1-0.3,9.4,5,6.7c14-7,27.6-16,38.6-27.3c5.7-5.8,7.8-13.2,9.2-21.8c5.8-35,6-52.8,22.6-52.8c14.8,0,36.9,38.8,60.4,86.8
		c5.2,10.6,12.4,6.3,17.9,12c3.4,3.5,4.1,9.4,0.8,12.8c-2.3,2.4-2.5,6.4,0.5,8.4l21.7,14.3c2.8,1.8,4.5,1.2,4.6-3.7
		c0.1-8-3.1-19.4-8.7-25c-3.3-3.3-10.6-10.7-10.7-15.3c-0.2-7.1-3.1-12.1-8.4-16.3c-16.2-13-36.3-44.2-47.3-69.6
		c-6.9-16-13.7-30.8-26.1-27.4c-8.3,2.3-16.2-2-11.9-10.1c2.7-5,3.4-9.6,0.1-12.6l-13.7-12.6c-4.5-4.2-8.4-4-13.2-1.6l-58.8,29.6
		c-9.5,4.8-14.1,0.4-15.7-10.2c-4.9-33.4-6.6-47.8-22.4-50.7c-21.4-3.9-32.2-6.2-32.2-12c0-3.2,1.9-0.4,1.9-7
		c-0.1-25.5-31.4-65.5-77.5-90.2c-6.4-3.4-2.9-12,5.2-7.6c26.7,14.6,76.3,54.6,84.3,102.5c0.7,4.1,17,4.5,16.3,1.2
		c-9.6-45.3-36.2-70.8-63.2-89.9l-26.7-18.9c-8.2-5.8-7.8-12.5-1.7-18.7c2.5-2.5,6-6.2,10.6-8.5c15.2-8.8,20.4-10.4,30.2-10.4
		l15.1,0c8.4-0.2,12.4-2.2,12.4-6c0-2.8-1.6-4.5-6.6-4.5c-7.2,0-7.2,4.3-13.2,4.3c-3.7,0-7.7-1.8-7.7-5.4c0.1-4.6,3.1-6.2,9.2-6.2
		l19.4,0c3.2,0,4.9-3.6,3.4-6.6l-5.5-10.9C604.4,122.8,598.9,121.1,584.8,121.1L584.8,121.1z M498.2,133.2c5.2-5.6,6.7-6.5,11-6.9
		c4.7-0.5,9.6,1.7,9.7,6.3c0,2-1.5,2.5-6.6,2.7c-2,0-3.1,0.7-8.6,4.5C499.5,142.5,494.1,137.5,498.2,133.2L498.2,133.2z
		 M171.2,350.8l121.3-25.6c3.8-0.8,5,4.9,1.2,5.7l-121.3,25.6C168.6,357.3,167.4,351.6,171.2,350.8L171.2,350.8z M120.9,338.8
		l145.8-30.7c3.8-0.8,5,4.9,1.2,5.7l-145.8,30.7C118.4,345.4,117.2,339.6,120.9,338.8L120.9,338.8z M92.7,322.3l149.8-31.6
		c3.8-0.8,5,4.9,1.2,5.7L93.9,328C90.1,328.8,88.9,323,92.7,322.3L92.7,322.3z M59.5,306.7l163.8-34.5c3.8-0.8,5,4.9,1.2,5.7
		L60.7,312.4C56.9,313.2,55.7,307.5,59.5,306.7L59.5,306.7z M226.2,361.7l87.6-18.5c3.8-0.8,5,4.9,1.2,5.7l-87.6,18.5
		C223.6,368.2,222.4,362.5,226.2,361.7L226.2,361.7z M242.7,272.1c1.1,6,6.5,12.1,24.2,8.4l2.1-0.5c-1.8,2.5-2.7,5.4-2,8.8
		c1.1,6,6.5,12.1,24.2,8.4l2.1-0.5c-1.8,2.5-2.7,5.4-2,8.8c1.1,6,6.5,12.1,24.2,8.4l2.1-0.5c-1.8,2.5-2.7,5.4-2,8.8
		c1.1,6,6.5,12.1,24.2,8.4l2.1-0.5c-1.8,2.5-2.7,5.4-2,8.8c1.1,6,6.5,12.1,24.2,8.4L398,340c3.8-0.8,2.6-6.5-1.2-5.7l-29.2,6
		c-10.5,2.1-17.2,2.6-18.6-4.3c-1-4.7,3.3-8.1,10.1-9.5l14.6-3.1c1.6-0.3,2.3-1.6,2.3-2.8c0-1.7-1.3-3.4-3.5-3l-29.2,6
		c-10.5,2.2-17.2,2.6-18.6-4.3c-1-4.7,3.3-8.1,10.1-9.5l14.6-3.1c1.6-0.3,2.3-1.6,2.3-2.8c0-1.7-1.3-3.4-3.5-3l-29.2,6
		c-10.5,2.1-17.2,2.6-18.6-4.3c-1-4.7,3.3-8.1,10.1-9.5l14.6-3.1c1.6-0.3,2.3-1.6,2.3-2.8c0-1.7-1.3-3.4-3.5-3l-29.2,6
		c-10.5,2.2-17.2,2.6-18.6-4.3c-1-4.7,3.3-8.1,10.1-9.5l14.6-3.1c1.6-0.3,2.3-1.6,2.3-2.8c0-1.7-1.3-3.5-3.5-3l-29.2,6
		c-10.5,2.1-17.2,2.6-18.6-4.3c-1-4.7,3.3-8.1,10.1-9.5l14.6-3.1c3.8-0.8,2.6-6.5-1.2-5.7l-15.4,3.3
		C251.6,256,240.9,262.2,242.7,272.1L242.7,272.1z M119.9,151.5l248.6,40.6c3.8,0.6,2.9,6.4-0.9,5.8L119,157.2
		C115.1,156.6,116,150.9,119.9,151.5L119.9,151.5z M145.5,177.7l174.1,28.3c3.8,0.6,2.9,6.4-0.9,5.8l-174.1-28.3
		C140.8,182.8,141.7,177,145.5,177.7L145.5,177.7z M171.2,203.8l82.8,13.4c3.8,0.6,2.9,6.4-0.9,5.8l-82.8-13.4
		C166.5,209,167.4,203.2,171.2,203.8L171.2,203.8z M403.4,217.4c-1.8-29.2-12.5-39.7-40.3-44.1L78.3,127.8
		c-10.4-1.4,0.8,13.7,13.4,21.1c4.4,10.8,15.6,21.9,26.8,28.9c5.3,13.1,13.2,22.8,26.9,25c4.7,11.4,10.6,20.5,29.8,25.9
		c3.2,7,10.1,13.7,21.9,19.8l150.5-34.4C371.4,208.7,389.1,209.1,403.4,217.4L403.4,217.4z"/>
</g>
</svg>
