<?xml version="1.0" encoding="utf-8"?>
<!-- Generator: Adobe Illustrator 18.0.0, SVG Export Plug-In . SVG Version: 6.00 Build 0)  -->
<!DOCTYPE svg PUBLIC "-//W3C//DTD SVG 1.1//EN" "http://www.w3.org/Graphics/SVG/1.1/DTD/svg11.dtd">
<svg version="1.1" id="Layer_1" xmlns="http://www.w3.org/2000/svg" xmlns:xlink="http://www.w3.org/1999/xlink" x="0px" y="0px"
	 viewBox="0 0 870.6 870.5" enable-background="new 0 0 870.6 870.5" xml:space="preserve">
<path id="path10142" fill="#F37024" d="M253.8,310.7l124.9,285.4L121.2,419.8C56.7,377,69.8,303.7,105.5,271.4
	C156.1,228.7,227.7,243.5,253.8,310.7"/>
<path id="path10146" fill="#C9234B" d="M424.9,243.5l-45.4,319.3L250.4,259.2c-27.9-75.9,34.8-125.7,76.8-126.5
	C375.1,127.4,435.4,164.1,424.9,243.5"/>
<path id="path10150" fill="#6560AB" d="M621.2,258.3L493,562.9l-41-274.9c-3.5-41.9,22.7-42.7,32.2-50.5c-1.7-6.1-14.9-6.1-14.9-6.1
	h-24.5c-2.5-71.6,53.3-103.1,98.7-99.6C592.4,133.5,647.4,190.3,621.2,258.3"/>
<path id="path10154" fill="#1589CA" d="M752.1,418L494.8,595.2l121.2-282c36.6-88.9,122.2-71.6,152.7-37.5
	C801.8,308.9,811.5,376.2,752.1,418"/>
<path id="path10158" fill="#12B24B" d="M779.2,626.5H481.5l241.7-168.4c59.4-39.2,122.3-3.5,138.8,48
	C879.5,563.7,840.2,626.5,779.2,626.5"/>
<path id="path10162" fill="#FCB918" d="M8.7,502.6c22.7-59.4,85.5-80.3,141.3-44.5l241.7,168.4H98.6
	C37.5,626.5-10.5,570.7,8.7,502.6"/>
</svg>
