<?xml version="1.0" encoding="utf-8"?>
<!-- Generator: Adobe Illustrator 18.1.0, SVG Export Plug-In . SVG Version: 6.00 Build 0)  -->
<!DOCTYPE svg PUBLIC "-//W3C//DTD SVG 1.1//EN" "http://www.w3.org/Graphics/SVG/1.1/DTD/svg11.dtd">
<svg version="1.1" id="Layer_1" xmlns="http://www.w3.org/2000/svg" xmlns:xlink="http://www.w3.org/1999/xlink" x="0px" y="0px"
	 viewBox="0 0 870.6 870.5" enable-background="new 0 0 870.6 870.5" xml:space="preserve">
<g>
	<polygon fill="#1D1D1B" points="255,509.9 82.4,516.1 246.3,525.2 255,509.9 	"/>
	<polygon fill="#1D1D1B" points="234.4,546.2 61.3,552.4 225.9,561.5 234.4,546.2 	"/>
	<polygon fill="#1D1D1B" points="213.7,582.8 40.9,588.9 205.2,598 213.7,582.8 	"/>
	<polygon fill="#1D1D1B" points="193.5,619.2 20.4,625.4 184.6,634.5 193.5,619.2 	"/>
	<polygon fill="#1D1D1B" points="405.1,326.8 184.7,334.6 405.7,346.9 405.1,326.8 	"/>
	<polygon fill="#1D1D1B" points="403.7,290.8 205.7,297.7 404.3,309.1 403.7,290.8 	"/>
	<polygon fill="#1D1D1B" points="402.3,256.1 225.9,261.9 403.1,271.7 402.3,256.1 	"/>
	<polygon fill="#1D1D1B" points="401.1,220.4 246.5,225.6 401.7,234.7 401.1,220.4 	"/>
	<polygon fill="#1D1D1B" points="400.1,191.6 265.6,191.6 400.3,198.7 400.1,191.6 	"/>
	<polygon fill="#1D1D1B" points="172.6,655.6 0,661.8 169.1,661.8 172.6,655.6 	"/>
	<path fill="#1D1D1B" d="M757.8,192.7H508.9l-7.1,12.5l124.5,6.6l0,0c1.5,0,1.5,2.1-0.6,2.1l0,0l-131.1,4.4L482,240.4l123.7,7.3l0,0
		c1.7,0.2,1.2,2.5-0.2,2.5l0,0l-131.4,4.3l-12.2,21.2l123.5,6.9l0,0c2.7,0.2,2.7,2.5,0,2.5l0,0l-131.1,4.6l-12.5,22.2l123.1,7.1l0,0
		c2.7,0.2,2.5,2.7,0,2.7l0,0l-131.2,4.7L421,348.2l123.3,6.8l0,0c1.9,0.2,2.1,2.5-0.4,2.5l0,0l-377.9,12.7l358.6,19.9l0,0
		c2.3,0,2.1,2.9-0.4,2.9l0,0l-378.5,13.5l358.6,19.9l0,0c1.7,0,2.1,2.7-0.4,2.7l0,0l-379.1,13.7l358.6,19.9l0,0
		c1.5,0.2,2.9,2.9-0.2,3.1l0,0l-378.5,13.5l358.6,19.9l0,0c1,0.2,2.1,2.9-0.4,2.9l0,0l-190.5,6.8l0.6,17.2l169.7,9.4l0,0
		c1.2,0.2,1.9,2.7-0.4,2.7l0,0l-168.7,6l0.8,19.2l147.3,8.2l0,0c1.5,0.2,2.1,3.1-0.4,3.1l0,0l-146.1,5.1l0.6,21.1l125.5,7l0,0
		c1.5,0.2,1.9,2.9-0.6,2.9l0,0l-124.3,4.4l0.8,23.2l103.8,5.8l0,0c1.5,0.2,1.5,2.7-0.6,2.7l0,0l-102.7,3.7l0.4,10h334.9l0,0
		c88.8,0,168.5-64.7,183.4-116.2s14.9-97.9-56.4-121.2c39.8-9.1,109.1-54.1,122.8-116.2C875.2,250.6,854.5,192.9,757.8,192.7
		L757.8,192.7L757.8,192.7L757.8,192.7z M589.3,553.2H486.4l58.1-102.9h76.4l0,0C699.7,450.2,661.5,553.2,589.3,553.2L589.3,553.2
		L589.3,553.2L589.3,553.2z M722.5,332.3c-3.3,12.4-28.2,44-59.8,44l0,0h-76.4l49-86.3h39l0,0C724.2,291.7,725.8,319.9,722.5,332.3
		L722.5,332.3L722.5,332.3L722.5,332.3z"/>
</g>
</svg>
