<?xml version="1.0" encoding="utf-8"?>
<!-- Generator: Adobe Illustrator 18.0.0, SVG Export Plug-In . SVG Version: 6.00 Build 0)  -->
<!DOCTYPE svg PUBLIC "-//W3C//DTD SVG 1.1//EN" "http://www.w3.org/Graphics/SVG/1.1/DTD/svg11.dtd">
<svg version="1.1" id="Layer_1" xmlns="http://www.w3.org/2000/svg" xmlns:xlink="http://www.w3.org/1999/xlink" x="0px" y="0px"
	 viewBox="0 0 870.6 870.5" enable-background="new 0 0 870.6 870.5" xml:space="preserve">
<path fill="#010101" d="M76.3,351.8C31.2,433.7-7.7,532.1,5,596.7c4.6,24.5,16.9,43.9,38.8,56.2c31.7,17.7,62.9,19.8,92,13.5
	c43.1-8.9,81.9-35,112.7-55.3c51.5-34.2,617.7-432.3,617.7-432.3c5.5-4.2,3.4-7.6-3.8-4.2c-3,1.3-639.2,323-639.2,323
	c-12.2,6.3-25.3,11-38,13.5c-51.9,11-103.9-8.4-115.7-68.8C64.9,418.9,66.2,389,76.3,351.8L76.3,351.8z"/>
</svg>
