<?xml version="1.0" encoding="utf-8"?>
<!-- Generator: Adobe Illustrator 18.1.0, SVG Export Plug-In . SVG Version: 6.00 Build 0)  -->
<!DOCTYPE svg PUBLIC "-//W3C//DTD SVG 1.1//EN" "http://www.w3.org/Graphics/SVG/1.1/DTD/svg11.dtd">
<svg version="1.1" id="Layer_1" xmlns="http://www.w3.org/2000/svg" xmlns:xlink="http://www.w3.org/1999/xlink" x="0px" y="0px"
	 viewBox="0 0 870.6 870.5" enable-background="new 0 0 870.6 870.5" xml:space="preserve">
<g>
	<path fill="#EB292C" d="M352.9,408.9c0-5-2.3-12.4-13.9-12.4h-24.7v25.4h23.3C347.9,421.9,352.9,418.3,352.9,408.9z"/>
	<path fill="#EB292C" d="M239.4,461.1c10.7,0,25.8-6.6,25.8-33.3c0-26.6-15.1-33.3-25.8-33.3c-10.7,0-25.9,6.7-25.9,33.3
		C213.5,454.4,228.6,461.1,239.4,461.1z"/>
	<path fill="#EB292C" d="M0,0v870.6h870.6V0H0z M462.2,380.2H482v36h37.2v-36h19.9v95.2h-19.9v-42.7H482v42.7h-19.8V380.2z
		 M382.6,275.6h19.9v36.1h37.1v-36.1h19.9v95.2h-19.9v-42.7h-37.1v42.7h-19.9V275.6z M377.6,380.2H455V397h-28.7v78.4h-19.9V397
		h-28.8V380.2z M300,275.6h77.5v16.8h-28.8v78.4h-19.9v-78.4H300V275.6z M294.7,380.1h0.1h48c25.3,0,29.9,18.6,29.9,26.9
		c0,10.5-5.3,19.5-14.7,22.6c7.8,3.4,12.1,6.3,12.1,24.1c0,13.9,0,17.3,4.2,18.9v2.5h-22c-1.3-4.5-2.1-9.4-2.1-19.2
		c0-13-0.8-18-15.5-18h-20.5v37.2h-19.5V380.1z M239.4,377.7c12.6,0,45.7,5.4,45.7,50.1s-33.1,50.1-45.7,50.1
		c-12.6,0-45.8-5.4-45.8-50.1S226.8,377.7,239.4,377.7z M183.9,475.4H164l-38.9-67.9h-0.3v67.9h-18.5v-95.2h20.9l37.8,66.3h0.3
		v-66.3h18.6V475.4z M206.3,579.9c-7.2,0-13-5.8-13-13s5.8-13,13-13s13,5.8,13,13S213.5,579.9,206.3,579.9z M255.2,580h-19.9v-95.2
		h67.8v16.8h-47.9v21.5h41.9V540h-41.9V580z M360,580l-6.1-19.6h-35.1l-6.7,19.6h-21l34-95.2H348l33.5,95.2H360z M421.6,565.3
		c11,0,18.7-6.3,21.1-17.9h19.9c-4,20.7-17.5,35.1-41.4,35.1c-25.3,0-43.5-17.1-43.5-50c0-33.3,19.2-50.3,43.8-50.3
		c28.5,0,40,19.6,41.1,33.7h-19.9c-1.6-5.7-4.6-16.4-21.1-16.4c-9.5,0-23.6,6.4-23.6,33.3C398,549.9,404.8,565.3,421.6,565.3z
		 M539.2,580h-68.7v-95.2h68.6v16.8h-50v20h44v16.9h-44v24.7h50.1V580z M539.2,370.8h-68.7v-95.2h68.6v16.8h-50v20h44v16.9h-44v24.6
		h50.1V370.8z M773.4,580h-89v3.6h-7.3V580h-71v3.6h-7.3V580h-46.8v-96.4l-3.6,0l0-7.3l3.6,0V379h-3.6v-7.3h3.6v-96.4h0.1
		c122.4,0,221.1,99.3,221.1,221.7V580z"/>
	<polygon fill="#EB292C" points="336.3,506.2 324.1,543.9 348.3,543.9 336.5,506.2 	"/>
	<rect x="677.1" y="580" fill="#EA2A2F" width="7.3" height="3.6"/>
	<rect x="548.5" y="371.7" fill="#EA2A2F" width="3.6" height="7.3"/>
	<polygon fill="#EA2A2F" points="548.5,476.4 548.5,483.7 552.1,483.7 552.1,476.4 	"/>
	<rect x="598.9" y="580" fill="#EA2A2F" width="7.3" height="3.6"/>
	<path fill="#EA2A2F" d="M562.1,371.7h-10v7.3h10c63.4,0,115,51.6,115,115V580h7.3v-86.1C684.4,426.5,629.5,371.7,562.1,371.7z"/>
	<path fill="#EA2A2F" d="M569,476.3l-16.9,0.1v7.3l16.9-0.1c16.5,0,29.9,13.4,29.9,29.9V580h7.3v-66.6
		C606.2,493,589.5,476.3,569,476.3z"/>
	<path fill="#EB292C" d="M207.5,560.9h-5.3v6.5h5.8c2.1,0,3.8-0.9,3.8-3.3C211.8,562.1,210.7,560.9,207.5,560.9z"/>
	<path fill="#EB292C" d="M206.3,553.9c-7.2,0-13,5.8-13,13s5.8,13,13,13s13-5.8,13-13S213.5,553.9,206.3,553.9z M208.1,567.4
		l3.6,5.5L208.1,567.4z M208,567.4h-5.8v5.7v-5.7v-6.5h5.3c3.2,0,4.3,1.2,4.3,3.2C211.8,566.5,210.1,567.4,208,567.4z"/>
</g>
</svg>
