<?xml version="1.0" encoding="utf-8"?>
<!-- Generator: Adobe Illustrator 18.1.0, SVG Export Plug-In . SVG Version: 6.00 Build 0)  -->
<!DOCTYPE svg PUBLIC "-//W3C//DTD SVG 1.1//EN" "http://www.w3.org/Graphics/SVG/1.1/DTD/svg11.dtd">
<svg version="1.1" id="Layer_1" xmlns="http://www.w3.org/2000/svg" xmlns:xlink="http://www.w3.org/1999/xlink" x="0px" y="0px"
	 viewBox="0 0 870.6 870.5" enable-background="new 0 0 870.6 870.5" xml:space="preserve">
<g>
	<g>
		<path fill="#0D73BB" d="M145.8,510.3c-2.1,0.1-4.3,0.3-6.2,0.3C64.6,510.6,4,449.8,4,374.9c0-74.9,60.6-135.6,135.6-135.6
			c75,0,135.7,60.8,135.7,135.6c0,60.7-39.7,111.9-94.6,129.4c0-2.1-0.7-19.3,1.9-24.6c41.2-16.9,70.2-57.5,70.2-104.7
			c0-62.5-50.6-113.3-113.2-113.3c-62.6,0-113.3,50.8-113.3,113.3c0,62.6,50.7,113.3,113.3,113.3c2,0,4,0,6-0.3
			C144.7,495,144.5,506,145.8,510.3"/>
		<path fill="#231F20" d="M433.9,239.3c-69.2,0-126.4,52-134.6,119.1c4.7-0.3,20.2,3.1,22.2,3.7c6.4-56.6,54.4-100.4,112.5-100.4
			c62.6,0,113.4,50.8,113.4,113.3c0,47.4-29.3,88-70.4,105c-0.9,5.5-2.4,12-1.8,24.4c54.8-17.4,94.6-68.7,94.6-129.4
			C569.7,300.1,509,239.3,433.9,239.3 M440.1,488c-2.1,0.3-4.2,0.3-6.2,0.3c-53.8,0-99.1-38-110.4-88.6c-8.1-3.4-19.7-5.5-23.9-5.5
			c9.4,66,66,116.5,134.3,116.5c2.2,0,4.3-0.1,6.3-0.3C438.8,498.6,439.9,492,440.1,488"/>
		<path fill="#ED3750" d="M618,399.7c11.3,50.5,56.4,88.5,110.5,88.5c62.5,0,113.3-50.7,113.3-113.3c0-62.5-50.8-113.3-113.3-113.3
			c-58.3,0-106.3,44-112.5,100.6c-3.9-1.6-17.2-3.7-22.1-3.8c8.2-67.2,65.3-119.1,134.7-119.1c74.9,0,135.6,60.8,135.6,135.6
			c0,74.9-60.8,135.7-135.6,135.7c-68.5,0-125.1-50.6-134.3-116.6C598.4,394.1,609.9,396.4,618,399.7"/>
		<path fill="#FAB030" d="M286.9,386.2c54,0,99.1,37.8,110.4,88.4c5.7,2.6,19.6,5.9,24,5.9c-9.3-66.1-65.8-116.7-134.3-116.7
			c-2.1,0-4,0-6.1,0.1c0.6,4.9,0.8,16.9-0.2,22.4C282.7,386.3,284.7,386.2,286.9,386.2 M399.4,512.3
			c-6.5,56.5-54.4,100.4-112.5,100.4c-62.6,0-113.3-50.7-113.3-113.3c0-47.4,29.1-88,70.5-104.9c1.7-9.3,2.2-18.9,1.9-24.4
			c-54.9,17.4-94.8,68.8-94.8,129.3c0,74.9,60.8,135.7,135.8,135.7c69.2,0,126.5-52,134.7-119.2C416.4,515.8,405,514.1,399.4,512.3"
			/>
		<path fill="#029C57" d="M693.7,512.3c-6.4,56.5-54.3,100.4-112.5,100.4C518.6,612.7,468,562,468,499.4
			c0-47.1,29.4-87.8,70.5-104.9c1.3-3.8,2.4-18.2,1.6-24.4c-54.8,17.4-94.4,68.8-94.4,129.3c0,74.9,60.7,135.7,135.6,135.7
			c69.4,0,126.7-52,134.7-119.2C708.5,515.7,696.9,513.4,693.7,512.3 M575.2,386.3c2.1-0.1,4-0.1,6-0.1c54.1,0,99.3,37.9,110.5,88.5
			c4.9,2.1,16.8,5.3,23.8,5.8c-9.2-66.1-65.8-116.7-134.3-116.7c-2,0-4,0-6,0.1C575.8,369.5,575.8,380.5,575.2,386.3z"/>
	</g>
</g>
</svg>
