<?xml version="1.0" encoding="utf-8"?>
<!-- Generator: Adobe Illustrator 18.1.0, SVG Export Plug-In . SVG Version: 6.00 Build 0)  -->
<!DOCTYPE svg PUBLIC "-//W3C//DTD SVG 1.1//EN" "http://www.w3.org/Graphics/SVG/1.1/DTD/svg11.dtd">
<svg version="1.1" id="Layer_1" xmlns="http://www.w3.org/2000/svg" xmlns:xlink="http://www.w3.org/1999/xlink" x="0px" y="0px"
	 viewBox="0 0 870.6 870.5" enable-background="new 0 0 870.6 870.5" xml:space="preserve">
<g>
	<path fill="#EF4043" d="M790.3,624.8c8.9,0.6,10.4,5.1,2.1,3.9c0,0-396.2-27.6-586.6-72.1C-223,456.3,113.1,341.9,413.5,319.4
		c193.6-14.5,448.2,2.2,458.7,59.5c5,27.1-87,57-131.5,60.5c-3.4,1.1-6.9-0.8-4.1-1.8c48.8-18,92.5-81.3-58.3-94.3
		c-3.2-0.3-2.6,1.5-0.9,2c55.4,13.5,87.8,58.1,8.1,90.2c-2.2,0.8-3.2-1.8-2.6-2.5c37-160.6-520.5-95-603.1,0.3
		c-37.9,43.7,102,92.8,129,102.5c109.8,40.4,492.3,79.2,488.1,78.4c-601.4-72.1-617.1-246-197.7-275.6c2.7,0.7,0,2.3-2.5,1.8
		C443.9,347.8,209.8,532.3,790.3,624.8L790.3,624.8z"/>
</g>
</svg>
