<?xml version="1.0" encoding="utf-8"?>
<!-- Generator: Adobe Illustrator 18.1.0, SVG Export Plug-In . SVG Version: 6.00 Build 0)  -->
<!DOCTYPE svg PUBLIC "-//W3C//DTD SVG 1.1//EN" "http://www.w3.org/Graphics/SVG/1.1/DTD/svg11.dtd">
<svg version="1.1" id="Layer_1" xmlns="http://www.w3.org/2000/svg" xmlns:xlink="http://www.w3.org/1999/xlink" x="0px" y="0px"
	 viewBox="0 0 870.6 870.5" enable-background="new 0 0 870.6 870.5" xml:space="preserve">
<g>
	<path fill-rule="evenodd" clip-rule="evenodd" d="M140.2,423.4c0,4.3,0,7.9,0,11.6c0,163,132.6,296.2,295.5,296.2
		c135.6,0,249.9-91.2,284.6-215.3l-474.3,5.5l114.3-88.2L140.2,423.4L140.2,423.4z M151.2,355.9c34.7-125.3,149-216.5,284.6-216.5
		c163,0,295.5,132.6,295.5,295.5c0,5.5,0,9.7,0,14.6l-220.1-9.7l117.4-89.4L151.2,355.9L151.2,355.9z M101.9,421.6l-103.4-4.3v-60.2
		l112.5-1.2C146.9,210,278.9,101.1,435.8,101.1c184.3,0,333.9,149.6,333.9,333.9c0,5.5,0,10.3-0.6,15.8l104,4.3v59.6l-112.5,1.2
		C724,661.2,592.7,769.4,435.8,769.4c-184.9,0-334.5-149.6-334.5-334.5C101.3,430.7,101.3,426.4,101.9,421.6L101.9,421.6z"/>
</g>
</svg>
