<?xml version="1.0" encoding="utf-8"?>
<!-- Generator: Adobe Illustrator 18.1.0, SVG Export Plug-In . SVG Version: 6.00 Build 0)  -->
<!DOCTYPE svg PUBLIC "-//W3C//DTD SVG 1.1//EN" "http://www.w3.org/Graphics/SVG/1.1/DTD/svg11.dtd">
<svg version="1.1" id="Layer_1" xmlns="http://www.w3.org/2000/svg" xmlns:xlink="http://www.w3.org/1999/xlink" x="0px" y="0px"
	 viewBox="0 0 870.6 870.5" enable-background="new 0 0 870.6 870.5" xml:space="preserve">
<g>
	<path fill-rule="evenodd" clip-rule="evenodd" d="M494.4,57.9c0,12.7-17,12.7-17,0C477.4,45.2,494.4,45.2,494.4,57.9L494.4,57.9
		L494.4,57.9z"/>
	<polygon fill-rule="evenodd" clip-rule="evenodd" fill="#ED1C24" points="246.5,66.4 274,41 295.2,30.4 343.9,30.4 367.3,30.4 
		352.4,21.9 335.5,21.9 331.2,21.9 356.7,9.2 384.2,9.2 405.4,17.7 405.4,9.2 392.7,0.7 441.4,5 469,17.7 432.9,30.4 420.2,53.7 
		409.6,62.2 380,70.6 343.9,66.4 303.7,74.9 314.3,57.9 322.8,53.7 310,49.5 282.5,49.5 246.5,66.4 	"/>
	<path fill-rule="evenodd" clip-rule="evenodd" d="M702,233.8c-20.9-9.6-30.1-12.7-53-12.7c78.4,51.1,96.3,96,84.8,188.6
		c-13.4-62.7-14.5-104.8-76.3-135.6c-7.1-1.4-14.1-2.8-21.2-4.2c-4.9,12-9.9,24-14.8,36c-11-23.9-17.8-31.8-38.1-48.7
		c14,25,27,42.2,33.9,69.9c9.2-14.8,18.4-29.7,27.5-44.5c54.9,37.6,80,91,67.2,151c-2.1,9.8-5.2,19.8-9.4,29.9
		c-31.8,77.2-84.5,115.9-155.3,183.6c-24.2,38.4-42.3,70.9-47.8,117.5c-4.7,39.8,1.3,81.5,30.9,107.1h-27.5
		c-16.1-32.3-21.2-59.3-21.2-95.4c-2.8-2.1-5.6-4.2-8.5-6.4c-6.7,30.5-5.1,66,12.7,101.7h-23.3c-14.9-34.7-17-57.6-17-95.4
		c-5.3-13.4-12-17.3-25.4-10.6c7.3-14.5,8.6-21.2,25.4-21.2c7.8-24.7,15.5-49.4,23.3-74.2c9.5-21.9,17.4-44.8,19.3-66.3
		c3.2-35.8-10.1-67.7-59.5-84.2c-58.6,0-80.4,14-89,74.2c4.5,33.7,14,50.6,36,76.3c-46.2-27.7-73.2-59.4-75.9-93.5
		c-2.5-32,16.7-66.2,52.6-101.5c-53.2,0-78.8,42.7-91.1,89c0,72.5,14.4,102.8,69.9,139.8C268.7,677,222,648.4,212.6,572.9
		c0-62.2,20.7-119.2,74.2-154.7c-67.9,9.7-95.2,54.5-112.3,118.7c0,105,19.9,141.6,108.1,199.2c-100.7-39.7-162.7-80.5-172.8-194.4
		c-11.6-133.4,114.3-259,245.1-259c71,0,107.8,12.6,156.5,61.5c6.8-15.5,14.9-31.1,13.9-45.5c-0.6-8.7-4.5-16.9-13.9-24.4
		c-7,2.3-11.7,3.2-17,8.5c2.7-20.9-0.9-35.8-4.2-53c-21.1-35.9-63.2-88.1-61.5-132.2c0.9-23.3,17-42.2,48.8-66.9
		c-17.9,21.2-25.4,34.5-26.1,53.7c-1.7,46.6,38.2,81.9,79.1,96.8c38.7,0,68.7-2.8,105.9-12.7c-1.4,5.7-2.8,11.3-4.2,17
		C662.8,197,686.8,203.4,702,233.8L702,233.8z M490.1,712.7c-1.4,10.6-2.8,21.2-4.2,31.8c-2.8,0-5.6,0-8.5,0
		C477.4,731.9,485.5,719.4,490.1,712.7L490.1,712.7z"/>
</g>
</svg>
