<?xml version="1.0" encoding="utf-8"?>
<!-- Generator: Adobe Illustrator 18.1.0, SVG Export Plug-In . SVG Version: 6.00 Build 0)  -->
<!DOCTYPE svg PUBLIC "-//W3C//DTD SVG 1.1//EN" "http://www.w3.org/Graphics/SVG/1.1/DTD/svg11.dtd">
<svg version="1.1" id="Layer_1" xmlns="http://www.w3.org/2000/svg" xmlns:xlink="http://www.w3.org/1999/xlink" x="0px" y="0px"
	 viewBox="0 0 870.6 870.5" enable-background="new 0 0 870.6 870.5" xml:space="preserve">
<g>
	<path fill="#231F20" d="M658,519.6c13.4-27,21.4-48.1,29.8-70.8c20.2-3.7,46.3-10.9,69.9-22.4c49.7-24.2,101.2-71.1,108.7-135.1
		c8-68.9-21.1-123-68.3-132.3c-43.9-8.7-77,0-100,9.3C673.8,120.9,613,92,580.7,78.9c-29.8-12-94.4-24.5-144.7-24.5
		c-50.3,0-115,12.4-144.7,24.5c-32.3,13-93.2,41.9-117.4,89.4c-23-9.3-56.1-18-100-9.3c-47.2,9.3-76.3,63.4-68.3,132.3
		c7.5,64,59,110.9,108.7,135.1c23.6,11.5,49.7,18.6,69.9,22.4c8.4,22.7,16.5,43.8,29.8,70.8H658L658,519.6z"/>
	<path fill="#EACAAE" d="M157.1,199.4c-20.5-12.4-68.3-7.5-91.3,14.3c-27.5,26-24.2,85.4-6.8,116.2c24.8,44.1,72.7,75.2,111.8,72.7
		c-13-44.7-18.6-75.1-21.1-110.6C147.1,257.2,149,226.8,157.1,199.4L157.1,199.4z"/>
	<path fill="#EACAAE" d="M435.9,822.2c90.7,0,180.1-12.2,244.7-29.6c64.6-17.4,125.5-36,168.9-88.2c43.5-52.2,12-102.2-39.8-137.9
		c-47.8-32.9-135.4-52.8-193.2-57.8c6.2-16.8,16.8-49.1,23-74.5c6.2-25.5,20.9-111.3,11.2-161.5c-8.7-44.7-31.7-86.1-75.8-106.8
		c-41-19.3-71.4-28.2-139.1-28.2c-67.7,0-98.1,8.9-139.1,28.2c-44.1,20.7-67.1,62.1-75.8,106.8c-9.8,50.2,5,136,11.2,161.5
		c6.2,25.5,16.8,57.8,23,74.5c-57.8,5-145.3,24.9-193.2,57.8c-51.8,35.6-83.2,85.7-39.8,137.9c43.5,52.2,104.4,70.8,168.9,88.2
		C255.8,810,345.3,822.2,435.9,822.2L435.9,822.2z"/>
	<path fill="#EACAAE" d="M714.8,199.4c20.5-12.4,68.3-7.5,91.3,14.3c27.5,26,24.2,85.4,6.8,116.2c-24.8,44.1-72.7,75.2-111.8,72.7
		c13-44.7,18.6-75.1,21.1-110.6C724.8,257.2,722.9,226.8,714.8,199.4L714.8,199.4z"/>
	<path fill="#DF605F" d="M435.9,739.6c-48.7,0-127.6-6.3-180.4-14.5c-52.5-8.2-144.4-31.2-193.3-54c-7.3-3.4-10.2-9.7,1.7-13.2
		c26.2-7.8,160.2-33.5,201.2-39.1c41-5.6,137.6-12,170.8-12c33.2,0,129.8,6.5,170.8,12c41,5.6,175,31.4,201.2,39.1
		c11.9,3.5,9.1,9.8,1.7,13.2c-48.9,22.8-140.9,45.9-193.3,54C563.6,733.3,484.7,739.6,435.9,739.6L435.9,739.6z"/>
	<path fill="#231F20" d="M393.2,337.6c-8.2-32.1-30.9-54-50.8-48.9c-19.9,5.1-29.4,35.2-21.2,67.3c8.2,32.1,30.9,54,50.8,48.9
		C391.8,399.8,401.3,369.7,393.2,337.6L393.2,337.6z"/>
	<path fill="#231F20" d="M393.3,496.8c-10.3,0-18.6,7.1-18.6,15.8c0,8.8,8.3,15.8,18.6,15.8c10.3,0,18.6-7.1,18.6-15.8
		C411.9,503.9,403.5,496.8,393.3,496.8L393.3,496.8z"/>
	<path fill="#231F20" d="M478.7,337.6c8.2-32.1,30.9-54,50.9-48.9c19.9,5.1,29.4,35.2,21.2,67.3c-8.2,32.1-30.9,54-50.9,48.9
		C480.1,399.8,470.6,369.7,478.7,337.6L478.7,337.6z"/>
	<path fill="#231F20" d="M478.7,496.8c10.3,0,18.6,7.1,18.6,15.8c0,8.8-8.3,15.8-18.6,15.8c-10.3,0-18.6-7.1-18.6-15.8
		C460,503.9,468.4,496.8,478.7,496.8L478.7,496.8z"/>
	<path fill="#231F20" d="M844.6,899.3c0.1,0.1,0.1,0.2,0.2,0.3c0-0.1,0.1-0.2,0.1-0.3C844.8,899.3,844.7,899.3,844.6,899.3
		L844.6,899.3z"/>
</g>
</svg>
