<?xml version="1.0" encoding="utf-8"?>
<!-- Generator: Adobe Illustrator 18.1.0, SVG Export Plug-In . SVG Version: 6.00 Build 0)  -->
<!DOCTYPE svg PUBLIC "-//W3C//DTD SVG 1.1//EN" "http://www.w3.org/Graphics/SVG/1.1/DTD/svg11.dtd">
<svg version="1.1" id="Layer_1" xmlns="http://www.w3.org/2000/svg" xmlns:xlink="http://www.w3.org/1999/xlink" x="0px" y="0px"
	 viewBox="0 0 870.6 870.5" enable-background="new 0 0 870.6 870.5" xml:space="preserve">
<path fill="#010101" d="M0,438.1C0,196.1,196.2,0,438.1,0c242,0,438.1,196.1,438.1,438.1c0,241.9-196.2,438.1-438.1,438.1
	C196.2,876.2,0,680,0,438.1 M689.3,441.2h47.4L630.3,198.6h-69.7l106.8,242.6h-48.6v64.4c0.1,39-16.3,55.7-69.3,55v124.3h69.1V560.6
	h22.8c20.2,0.6,47.6-15.8,48-47.7L689.3,441.2L689.3,441.2z M354.6,198.6c-106.7,0-194.5,74.5-194.5,185c0,92.9,56,159.3,139.5,172
	v129.3h173.8V560.6h24.2c28.2-2.7,47.3-21.3,47.6-47.5v-71.9h47.4L484.8,198.6H354.6z M450.6,409.1c24.8,0,44.8-20,44.8-44.9
	c0-24.7-20-44.8-44.8-44.8c-24.7,0-44.8,20-44.8,44.8C405.8,389.1,425.9,409.1,450.6,409.1"/>
</svg>
