<?xml version="1.0" encoding="utf-8"?>
<!-- Generator: Adobe Illustrator 18.1.0, SVG Export Plug-In . SVG Version: 6.00 Build 0)  -->
<!DOCTYPE svg PUBLIC "-//W3C//DTD SVG 1.1//EN" "http://www.w3.org/Graphics/SVG/1.1/DTD/svg11.dtd">
<svg version="1.1" id="Layer_1" xmlns="http://www.w3.org/2000/svg" xmlns:xlink="http://www.w3.org/1999/xlink" x="0px" y="0px"
	 viewBox="0 0 870.6 870.5" enable-background="new 0 0 870.6 870.5" xml:space="preserve">
<g>
	<g>
		<path fill="#D25A27" d="M445.7,860.1c-1.8,0-3.6-0.4-5.3-1.2l-132.5-62.5c-4.2-2-7-6.2-7.1-10.9L295.5,550l-22.9-8
			c-4.8-1.7-8.1-6.2-8.2-11.2l-9.2-290.8c-0.2-6.4,4.5-11.8,10.8-12.6l95.2-11.9c0.5-0.1,1-0.1,1.5-0.1c0.7,0,1.4,0.1,2.1,0.2
			l179.9,31.1c3.5,0.6,6.5,2.7,8.3,5.6l43.7,7.9c6.1,1.1,10.4,6.5,10.1,12.7L592.5,590c-0.2,4.4-2.7,8.4-6.7,10.4l-52.3,27
			c-1.8,0.9-3.7,1.4-5.7,1.4c-1.4,0-2.7-0.2-4-0.7l-0.6-0.2l-4.6,179.5c-0.1,4-2.1,7.7-5.5,9.9L452.6,858
			C450.5,859.4,448.1,860.1,445.7,860.1z"/>
	</g>
	<g>
		<path fill="#010101" d="M362.7,227.6l68.1,11.8l111.7,19.3l-4.8,3.2l56.7,10.3l-14.4,317.3l-52.3,27l-16.5-5.7l-5.1,196.3
			l-60.6,40.6l-132.5-62.5l-5.6-244.1l-30.9-10.9l-9.2-290.8L362.7,227.6 M362.7,203c-1,0-2,0.1-3,0.2L264.5,215
			c-12.6,1.6-22,12.5-21.6,25.2l9.2,290.8c0.3,10.2,6.9,19.1,16.5,22.5l14.8,5.2l5.2,227c0.2,9.3,5.7,17.8,14.1,21.7l132.5,62.5
			c3.3,1.6,6.9,2.4,10.5,2.4c4.8,0,9.6-1.4,13.7-4.2l60.6-40.6c6.6-4.5,10.7-11.8,10.9-19.8l4.3-167.8c1.3-0.4,2.7-1,3.9-1.6
			l52.3-27c7.8-4,12.9-12,13.3-20.8l14.4-317.3c0.6-12.3-8.1-23.2-20.2-25.4l-39.4-7.1c-3.5-3.3-7.8-5.5-12.7-6.4l-111.7-19.3
			l-68.1-11.8C365.5,203.1,364.1,203,362.7,203L362.7,203z"/>
	</g>
</g>
<g>
	<polygon fill="#F9BF1A" points="321.1,252.6 294,246 267.5,239.5 276.7,530.3 314.7,543.7 	"/>
</g>
<g>
	<polygon fill="#FFE4B7" points="267.5,239.5 362.7,227.6 430.9,239.4 542.6,258.7 537.8,261.9 594.5,272.2 563.5,280.6 
		535.6,288.2 504.9,282.4 476.9,277 462.5,281.5 452.2,284.7 367.1,269.5 301.2,257.8 321.1,252.6 294,246 	"/>
</g>
<g>
	<defs>
		<polygon id="SVGID_1_" points="321.1,252.6 294,246 267.5,239.5 276.7,530.3 314.7,543.7 		"/>
	</defs>
	<clipPath id="SVGID_2_">
		<use xlink:href="#SVGID_1_"  overflow="visible"/>
	</clipPath>
	<g clip-path="url(#SVGID_2_)">
		<polygon fill="#D25A27" points="315.6,548.3 298.6,543.7 291.4,259.8 301.2,257.8 310,259.4 		"/>
	</g>
</g>
<g>
	<polyline fill="#F9BF1A" points="452.2,284.7 448.1,637.7 445.7,847.8 313.2,785.3 301.2,257.8 367.1,269.5 452.2,284.7 	"/>
</g>
<g>
	<path fill="#D25A27" d="M430.9,239.4l-17.7-3.1l-103.8,22.9l58.6,162.5c0,0,0.4,1.5,2.4,1.7s2.7-1.5,2.7-1.5l57.9-141.1l94.4-25.2
		L430.9,239.4z"/>
</g>
<g>
	<polygon fill="#D25A27" points="502.5,344.9 512.8,555.2 506.3,807.2 445.7,847.8 448.1,637.7 452.2,284.7 462.5,281.5 476.9,277 	
		"/>
</g>
<g>
	<polyline fill="#F9BF1A" points="535.6,288.2 504.9,282.4 476.9,277 470.2,596.7 527.9,616.5 531.8,449.3 535.6,288.2 	"/>
</g>
<g>
	<polygon fill="#D25A27" points="535.6,288.2 563.5,280.6 594.5,272.2 580.2,589.5 527.9,616.5 531.8,449.3 	"/>
</g>
<g>
	<defs>
		<polygon id="SVGID_3_" points="563.5,280.6 535.6,288.2 504.9,282.4 476.9,277 462.5,281.5 452.2,284.7 367.1,269.5 301.2,257.8 
			313.2,785.3 445.7,847.8 506.3,807.2 511.4,610.9 527.9,616.5 580.2,589.5 594.5,272.2 		"/>
	</defs>
	<clipPath id="SVGID_4_">
		<use xlink:href="#SVGID_3_"  overflow="visible"/>
	</clipPath>
	<g clip-path="url(#SVGID_4_)">
		<polygon fill="#FFFFFF" points="449.8,859.5 441.6,859.4 444,637.7 448.1,275.1 456.3,275.2 452.2,637.7 		"/>
	</g>
	<g clip-path="url(#SVGID_4_)">
		<polygon fill="#FFFFFF" points="532,634.8 523.8,634.6 527.7,449.2 531.4,277.9 539.7,278.1 535.9,449.4 		"/>
	</g>
</g>
<g>
	<g>
		<g>
			<path fill="#F9BF1A" d="M417.8,247.8c-65.4,0-118.7-53.2-118.7-118.7c0-65.4,53.2-118.7,118.7-118.7
				c65.4,0,118.7,53.2,118.7,118.7C536.5,194.6,483.2,247.8,417.8,247.8z"/>
		</g>
		<g>
			<path fill="#010101" d="M417.8,22.8c58.7,0,106.4,47.6,106.4,106.4c0,58.7-47.6,106.4-106.4,106.4
				c-58.7,0-106.4-47.6-106.4-106.4C311.4,70.4,359,22.8,417.8,22.8 M417.8-1.9c-72.2,0-131,58.8-131,131c0,72.2,58.8,131,131,131
				c72.2,0,131-58.8,131-131C548.8,56.9,490-1.9,417.8-1.9L417.8-1.9z"/>
		</g>
	</g>
	<g>
		<path fill="#D25A27" d="M472.5,64.2c0,0,50.9,38.5,26.9,103.8c-26.3,71.5-83.9,60.8-111.7,50.6c0,0,62.4-4.1,80.7-59.8
			C486.7,103.2,472.5,64.2,472.5,64.2z"/>
	</g>
	<g>
		<path fill="#FFE4B7" d="M337.3,121c-0.9,0-1.8-0.1-2.7-0.4c-5.5-1.5-8.7-7-7.3-12.5c0.7-2.5,16.9-61.1,88.4-67.7
			c5.6-0.5,10.6,3.6,11.2,9.3c0.5,5.6-3.6,10.6-9.3,11.2c-56.9,5.2-69.9,50.6-70.5,52.6C346,118,341.8,121,337.3,121z"/>
	</g>
</g>
</svg>
