<?xml version="1.0" encoding="utf-8"?>
<!-- Generator: Adobe Illustrator 18.1.0, SVG Export Plug-In . SVG Version: 6.00 Build 0)  -->
<!DOCTYPE svg PUBLIC "-//W3C//DTD SVG 1.1//EN" "http://www.w3.org/Graphics/SVG/1.1/DTD/svg11.dtd">
<svg version="1.1" id="Layer_1" xmlns="http://www.w3.org/2000/svg" xmlns:xlink="http://www.w3.org/1999/xlink" x="0px" y="0px"
	 viewBox="0 0 870.6 870.5" enable-background="new 0 0 870.6 870.5" xml:space="preserve">
<g>
	<path fill="#010101" d="M327.9,94.9c38.1,7.1,75.6,17.3,112.9,27.8c21.3,6.2,42.6,12.6,63.8,19.4c33.2,10.6,66.3,22.6,96.4,40.4
		c13.5,8.2,26.4,17.4,37.5,28.7c12,11.7,21.8,25.6,29,40.7c13.1,27.4,17.6,58,18.9,88.1c0.6,19.6,0.6,39.4-3.1,58.8
		c-3,16.8-8.5,33.4-17.5,48.1c-8,12.9-19,24.1-32.4,31.3c-12.9,6.9-27.6,10.2-42.2,9.9c-22.1,0.2-43.6-6.8-63.5-16.1
		c-0.4-66.1-0.1-132.2-0.2-198.3c-0.1-12,0.7-24-1.7-35.8c-1.7-9.1-5.4-18.4-12.6-24.5c-4.8-4.3-10.9-6.7-17.1-8
		c-6.3-1.2-13,1.5-16.8,6.5c-6.5,8.1-8.1,18.8-8.4,28.8c-0.1,176.9,0.1,353.9-0.1,530.8c-47.6-15.1-95.2-30.2-142.8-45.3
		C327.8,515.8,327.9,305.4,327.9,94.9z"/>
	<path fill="#010101" d="M114,542.7c62.1-22,124-44.1,186.1-66c0.1,24.4,0,48.7,0,73.1c0,3.3,0.2,6.6-0.2,9.9
		c-49.1,17.4-98,35.1-147.1,52.6c-6.8,2.6-13.8,5.5-19,10.7c-2.4,2.4-4.4,6-3.1,9.5c1.7,4.1,5.9,6.3,9.7,8c10.8,4.4,22.5,5,34,5.5
		c12.8-0.2,25.6-1.2,38.1-3.9c8.5-1.7,16.6-4.5,24.7-7.5c20.9-7.6,41.9-15.2,62.9-22.7c0.2,20.6,0,41.2,0.1,61.9
		c-0.1,4.1,0.2,8.3-0.2,12.4c-25.8,4.6-51.8,7.8-78,8.2c-52.7,1.2-105.6-7-155.7-23.5c-16.4-4.8-32.8-11.1-46.5-21.5
		C12.2,643.4,5.4,636.1,2,627c-2.9-7.7-2.7-16.5,0.9-23.9c3.5-7.4,9.5-13.2,16.1-17.7c15.4-10.6,32.4-18.7,49.6-26
		C83.4,553.1,98.8,548.2,114,542.7z"/>
	<path fill="#010101" d="M613.2,514.9c14.1-1.6,28.2-2,42.4-2.5c46.5,0.2,93.3,6,137.9,19.9c8.7,2.6,17.2,6.1,25.9,8.9
		c15.5,5.7,31,12.5,43.5,23.7c7.5,6.8,13.9,16,14,26.5c0.4,8.5-3.4,16.7-8.9,23c-10.5,11.8-24.4,19.9-38.4,27
		c-14.9,7.6-30.8,12.5-46.4,18.2C688,693.7,592.8,727.8,497.7,762c0-26.6,0-53.3,0-79.9c0.1-1.1-0.4-2.9,1.1-3.2
		c72.4-25.8,144.7-51.6,217.1-77.4c9.8-3.6,20.3-6.3,28.6-12.9c3.4-2.7,6.7-6.9,5.1-11.5c-1.7-4-5.9-6.2-9.7-7.9
		c-10.8-4.3-22.6-5.1-34.1-5.4c-18,0.1-36.2,2.3-53.4,8.1c-51.5,18.1-103,36.3-154.6,54.3c0-28.6,0-57.2,0-85.8
		C535.1,527.4,574,519.4,613.2,514.9z"/>
</g>
</svg>
