<?xml version="1.0" encoding="utf-8"?>
<!-- Generator: Adobe Illustrator 18.1.0, SVG Export Plug-In . SVG Version: 6.00 Build 0)  -->
<!DOCTYPE svg PUBLIC "-//W3C//DTD SVG 1.1//EN" "http://www.w3.org/Graphics/SVG/1.1/DTD/svg11.dtd">
<svg version="1.1" id="Layer_1" xmlns="http://www.w3.org/2000/svg" xmlns:xlink="http://www.w3.org/1999/xlink" x="0px" y="0px"
	 viewBox="0 0 870.6 870.5" enable-background="new 0 0 870.6 870.5" xml:space="preserve">
<polygon fill="#010101" points="0,394.8 244.1,394.8 286,180.3 "/>
<polygon fill="#010101" points="322.1,180.3 280.2,394.8 514.2,394.8 "/>
<polygon fill="#010101" points="238.3,426.6 0,426.6 196.5,643.9 "/>
<path fill="#010101" d="M232.6,649.7L273,426.6h82.3c0,0,74.4,10.2,66.4,72.9c-10.1,79.4-78,80.9-78,80.9h-41.9L286,649.7H232.6z"/>
<path fill="#FFFFFF" d="M320.7,480.7l-7.2,44.8c0,0,47.7,13,52-18.8C369.8,474.9,320.7,480.7,320.7,480.7z"/>
<polygon fill="#010101" points="443.5,426.6 498.4,426.6 468,594.8 525.8,594.8 517.1,649.7 401.6,649.7 "/>
<path fill="#010101" d="M560.5,426.6h54.9l-26,143.7c0,0-4.3,30.3,24.6,30.3c28.9,0,30.3-33.2,30.3-33.2l27.4-140.8h53.4
	l-24.6,140.8c0,0-11.3,84.8-91,82.3c-95.3-2.9-75.1-85.2-75.1-85.2L560.5,426.6z"/>
<path fill="#010101" d="M813.3,498h53.4c0,0,14.4-67.1-56.3-71.4s-86.2,49.7-86.7,67.1c-1.4,54.9,73.7,57.8,73.7,83.8
	s-15.9,24.6-15.9,24.6c-28.9-1.4-20.2-28.9-20.2-28.9h-54.9c0,0-14.4,74.6,66.4,76.6c60.7,1.4,79.5-40.5,80.9-60.7
	c4.3-65-71.7-71.6-73.7-96.8c-1.4-18.8,10.1-20.2,20.2-20.2C813.3,472,813.3,498,813.3,498z"/>
</svg>
