<?xml version="1.0" encoding="utf-8"?>
<!-- Generator: Adobe Illustrator 18.1.0, SVG Export Plug-In . SVG Version: 6.00 Build 0)  -->
<!DOCTYPE svg PUBLIC "-//W3C//DTD SVG 1.1//EN" "http://www.w3.org/Graphics/SVG/1.1/DTD/svg11.dtd">
<svg version="1.1" id="Layer_1" xmlns="http://www.w3.org/2000/svg" xmlns:xlink="http://www.w3.org/1999/xlink" x="0px" y="0px"
	 viewBox="0 0 870.6 870.5" enable-background="new 0 0 870.6 870.5" xml:space="preserve">
<g>
	<path fill-rule="evenodd" clip-rule="evenodd" d="M847.4,452.2c-0.4-0.7-0.7-1.4-1.1-2.1c-97.1-178.3-291.1-164-378.7-113.4
		c-55.1,31.8-89.6,73.2-111.5,115.4c-9.7,18.8-17,37.7-22.5,56c-6.4-3.5-12.3-7.2-18.4-11.1c-3.7-2.4-7.3-4.9-11-7.6
		c3.6-12.8,7.9-25.2,12.9-37.3c24.5-59.8,65.6-111.5,129.3-150.4c90.2-55.1,274.2-50.7,359.1,75.9c0.8,1.3,3.5,1.6,2-0.9
		C703,203.9,516.2,218.5,428.5,269.1c-84.9,49-121,120.6-137.5,183.1c-2,7.4-3.7,14.7-5.1,21.9c-7-6.7-13.9-14-20.5-21.9
		c-2-2.4-4-4.9-6-7.4c-0.2-0.2-0.3-0.4-0.5-0.6c18.9-85.4,64-158.5,148.3-210c90.2-55.1,274.2-50.7,359.1,75.9
		c0.8,1.3,3.5,1.6,2-0.9C664,136.2,477.1,150.8,389.4,201.4c-97.8,56.4-130.6,143.1-143.7,211.1c-0.5,3.2-1.6,5.8-2,9.6
		c-9.1-14.2-16.8-28.1-23.8-44.2c18.8-85.9,63.6-159.6,148.3-211.3c90.2-55.1,274.2-50.7,359.1,75.9c0.8,1.3,3.5,1.6,2-0.9
		C624.9,68.5,438,83.1,350.4,133.7c-96.7,55.8-129.9,141.4-143.3,209.1c-4.1-13.6-7.3-27.5-9.4-41.7C192,250,219,210.9,227.9,195.4
		c24.4-37.2,57.5-69.9,101.2-96.6c90.2-55.1,274.2-50.7,359.1,75.9c0.8,1.3,3.5,1.6,2-0.9C585.8,0.9,399,15.5,311.3,66.1
		c-37.2,21.5-67.1,45.8-85.9,74.8c-77.1,119.4-53.5,234-3.6,311.3c21.1,32.6,46.8,58.6,71.7,75.3c81.2,54.8,162.2,55.6,225.7,43.1
		c-0.2,11.1-1.4,22.6-3.6,34.4c-81.7,17.4-164.3,7.9-244.1-43.1c-35.1-22.4-68.2-61.9-90.8-109.7c-34.8-73.5-44.8-166.4,1.6-246.3
		c0.9-1.3-0.1-3.8-1.7-1.4c-57.9,89.6-58.7,176.9-34.3,247.8c21.9,63.3,63.3,114.3,103.6,140.1c87.3,56,184.7,57.8,251.6,39.7
		c2.2-0.7,5.1-1.6,8-2.4c-3.4,12.2-6.6,21.4-11.9,33.7c-90.1,25.3-181.5,19.8-269.8-36.6c-50-32-96.1-98.7-113.4-174.5
		c-13.5-59.1-9.4-123.8,24.2-181.6c0.9-1.3-0.1-3.8-1.7-1.4c-41.3,63.9-53.5,126.6-48.3,183c8.6,93.5,64.3,171.2,117.6,204.9
		c92.8,58.7,184.7,57.7,251.5,39.6c7.7-1.8,18.7-4.7,27.8-7.5c-7.2,13.6-14.3,23.9-23.6,36.7c-92.4,27.7-187.1,23.6-277.8-34.4
		C120.1,650.5,62.6,552.8,63.5,452.2c0.4-39.6,9.8-79.6,31.4-116.8c0.9-1.3-0.1-3.8-1.7-1.4c-26,40.3-40.5,80.1-46.4,118.2
		C28,574.5,96.8,681.2,162.5,721.8c94.8,58.7,182.8,57.8,249.6,39.7c7.3-2.5,16.9-4.8,26.3-7.7c-4.1,4.6-5.3,5.9-9.8,10.2
		c-43.1,46.6-98.5,43.1-121.2,43.2c-56.2-0.6-112.3-16-167.1-51.1C62.7,706.5-5.6,572.9,29,452.2c5.1-17.7,12.4-35.1,22.2-52
		c0.9-1.3-0.1-3.8-1.7-1.4c-11.6,17.9-20.9,35.8-28.2,53.4C-40.2,601.4,43.7,736,118.8,786.6c53.6,36.1,106.7,49.5,154.9,50.3
		c202,3.5,282.8-171.8,282.8-273c0-42.9-8.5-79.9-21.8-111.7c-13.4-32-31.8-58.8-51.6-81.2c0.8-0.5,1.6-1,2.3-1.4
		c8.8-5.4,18.5-10.2,28.9-14.4c25.9,28.6,46.8,60.8,61.1,97.1c13.2,33.3,20.9,70.1,21.9,110.8c2.6,105.6-93.2,262.8-245.3,273
		c-1.6,0-3.1,2.2-0.2,2.2c202-4,282.8-173.1,282.8-274.4c0-42.9-8.5-79.9-21.8-111.7c-18.5-44.3-46.6-78.7-74.6-105.2
		c12.1-3.5,25-6.2,38.2-8c33.2,32.6,59.7,70,77,113.2c13.3,33.3,21,70.1,22,110.8c2.6,105.6-93.2,262.8-245.3,273
		c-1.6,0-3.1,2.2-0.2,2.2c202-4,282.8-173.1,282.8-274.4c0-42.9-8.5-79.9-21.9-111.7c-21.3-50.7-55-88.3-86.7-116.2
		c16.3-0.8,32.8-0.1,49.5,1.6c33.9,32.9,60.8,70.7,78.1,114.5c13.2,33.3,20.8,70.1,21.8,110.8c2.6,105.6-93.2,262.8-245.3,273
		c-1.6,0-3.1,2.2-0.2,2.2c202-4,282.8-173.1,282.8-274.4c0-43-8.6-80-22-111.7c-19.5-46.2-49.2-81.4-78.4-108.4
		c14.6,3.3,20.6,5,34.6,10.6c9.3,4.3,48.1,24.7,62.2,52.3c8.7,14.4,16.1,29.5,22.5,45.5c13.2,33.3,20.8,70.1,21.8,110.8
		c2.6,105.6-93.2,262.8-245.3,273c-1.6,0-3.1,2.2-0.2,2.2c202-4,282.8-173.1,282.8-274.4C869,521,862.4,483.2,847.4,452.2
		L847.4,452.2L847.4,452.2L847.4,452.2z M499.1,452.2c11.4,29.1,20.5,63.5,19.7,94.4c-54.5,5.4-109-2-162.7-26.9
		c9.8-23.9,22.3-46.5,37.8-67.5c18.1-24.4,40.2-46.7,67.1-66.3C468.7,390.6,485.5,417.6,499.1,452.2L499.1,452.2L499.1,452.2
		L499.1,452.2z"/>
</g>
</svg>
