<?xml version="1.0" encoding="utf-8"?>
<!-- Generator: Adobe Illustrator 18.0.0, SVG Export Plug-In . SVG Version: 6.00 Build 0)  -->
<!DOCTYPE svg PUBLIC "-//W3C//DTD SVG 1.1//EN" "http://www.w3.org/Graphics/SVG/1.1/DTD/svg11.dtd">
<svg version="1.1" id="Layer_1" xmlns="http://www.w3.org/2000/svg" xmlns:xlink="http://www.w3.org/1999/xlink" x="0px" y="0px"
	 viewBox="0 0 870.6 870.5" enable-background="new 0 0 870.6 870.5" xml:space="preserve">
<g id="redbull">
	<path fill="#FEE606" d="M40.5,436.4c-4.4-4-6.9-8.7-8.3-12.5c-1.4-4-3.2-9-3.2-13.2c0.1-19.1,11.3-33.4,23.3-39.9
		c5.5-3,7.5-5,8.3-6.1c-0.4-0.2-0.9-0.3-1.3-0.3c-16.4,0-24.8-6.4-28.9-11.7c-3.9-5-5.9-11.5-5.9-18.6c0-3.5,0.5-7.1,1.4-10.8
		c4.6-7.6,9-5.5,11.7-1.6c1.7,2.4,13.4,10.7,27.9,12.1c10.5,1,16.2,6.1,19.1,10.2c3.4,4.8,4.7,10.5,4.7,15.4c0,2-0.2,3.9-0.7,5.5
		c-1.6,6.4-8.3,12.2-17.8,19.6l-5.3,4.4c-7.8,6.8-12.1,14.5-12.1,20.9c0,1.6,0.3,3.2,0.8,4.6c0.2,0.6,0.5,1.2,0.8,1.7
		c3.5,5.9,13.4,9.6,27.7,4.6c6.6-2.3,19.4-10.3,27.2-18c9.2-9.1,21.4-11.3,33.2-12.3c10.2-0.8,16.5-3.3,20.9-8.3
		c13.1-14.7,25.7-16.8,37.5-17.7c4.5-0.3,4.8-0.7,5.3-1.5c6.5-8.7,13.2-13.2,19.2-15.9c4.6-2,8.7-3,12.1-3.7l4.1-1l1-0.4
		c6.6-2.1,11.6-3.9,25-12.9l0.6-0.4l0,0l0.6-0.3l0,0l0.6-0.3l0,0l0.6-0.3l0,0l0.6-0.3l0,0l0.6-0.3l0,0l0.6-0.3l0,0l0.6-0.3l0,0
		l0.6-0.2l0,0l0.6-0.2l0,0l0.6-0.2l0,0l0.6-0.2l0.6-0.2l0,0l0.6-0.2l0,0l0.6-0.2l0,0l0.6-0.2l0,0l0.6-0.1l0,0l0.6-0.1l0,0l0.6-0.1
		l0,0l0.6-0.1l0,0l0.6-0.1l0.1,0l0.6-0.1l0.1,0l0.6-0.1l0.1,0l0.5-0.1h0.1l0.6-0.1l0.1,0l0.5,0l0.1,0l0.5,0l0.1,0l0.6,0l0.6,0h0.1
		l0.5,0h0.6h0.1l0.5,0l0.1,0h0.1c0.4,0,0.8,0,1.2,0.1l0.5,0l0.1,0l0.5,0l0.1,0l0.5,0.1l0.1,0l0.5,0.1l0.1,0l0.5,0.1l0.1,0l0.5,0.1
		l0.1,0l0.5,0.1l0.1,0l0.5,0.1l0.1,0l0.5,0.1l0.1,0l0.5,0.1l0.1,0c0.8,0.1,1.6,0.3,2.4,0.5l0.5,0.1l0.1,0c0.8,0.2,1.5,0.4,2.3,0.6
		l0.5,0.1l0.1,0c1.5,0.5,2.9,1,4.3,1.6l0.4,0.2l0.5,0.2c28.5-38.8,73.7-64.6,125-66.9v0c0.8,0,1.7-0.1,2.5-0.1c0.8,0,1.7,0,2.5-0.1
		c0.8,0,1.7,0,2.5,0c0.8,0,1.7,0,2.5,0c0.8,0,1.7,0,2.5,0.1c0.8,0,1.7,0.1,2.5,0.1h0c0.8,0,1.7,0.1,2.5,0.1l0,0
		c49.6,3,93.3,28,121.5,65.3c4-1.4,8.4-2.4,12.9-2.7l0.1,0l0.4,0l0.4,0l0.1,0l0.1,0l0.4,0l0.1,0l0.4,0l0.1,0l0.4,0h0.1l0.4,0h0.1
		l0.5,0l0.4,0l0.1,0l0.4,0l0.1,0l0.5,0l0.1,0l0.5,0l0.1,0l0.5,0l0.1,0c1.1,0.1,2.2,0.3,3.2,0.5l0.5,0.1l0.1,0l0.5,0.1l0.1,0l0.5,0.1
		l0.1,0l0.5,0.1l0.1,0l0.5,0.1l0,0l0.5,0.1l0.1,0l0.5,0.2l0,0l0.5,0.2l0.5,0.2l0,0l0.5,0.2l0,0l0.5,0.2l0,0c0.9,0.4,1.7,0.8,2.6,1.2
		l0,0l0.5,0.3l0,0l0.5,0.3l0,0l0.5,0.3h0l0.5,0.3v0l0.5,0.3c9.2,6.2,14.5,9,19,10.8c2,0.8,3.9,1.4,5.9,2.1l1.1,0.4l4.2,1
		c2.3,0.5,4.9,1.1,7.7,2c7,2.3,15.4,6.7,23.6,17.6c0.6,0.8,0.9,1.1,5.4,1.5c11.8,0.9,24.3,2.9,37.5,17.7c4.4,5,10.7,7.5,20.9,8.3
		c11.8,0.9,24,3.1,33.2,12.3c7.8,7.7,20.5,15.7,27.2,18c14.3,5,24.3,1.3,27.7-4.6c0.7-1.2,1.3-2.6,1.5-4.1c0.1-0.7,0.2-1.5,0.2-2.3
		c0-6.5-4.3-14.1-12.1-20.9l-1-0.8l-4.4-3.6c-9.4-7.4-16.1-13.2-17.8-19.6c-0.4-1.7-0.6-3.5-0.6-5.5c0-4.9,1.3-10.6,4.7-15.4
		c3-4.1,8.7-9.2,19.1-10.2c14.5-1.3,26.2-9.6,27.9-12.1c2.7-3.9,7.1-6,11.7,1.6c1,3.7,1.5,7.3,1.5,10.8c0,7.1-2,13.6-5.9,18.6
		c-4.1,5.4-12.5,11.7-28.9,11.7c-0.4,0-0.8,0.2-1.2,0.3c0.8,1.1,2.8,3.1,8.3,6.1c12,6.6,23.2,20.8,23.3,39.9c0,4.2-1.8,9.2-3.2,13.2
		c-1.2,3.5-3.4,7.5-6.9,11.3c-0.4,0.4-0.9,0.9-1.3,1.3c-6.8,6.3-18.1,11.2-36.9,10.1c-1.9-0.1-3.9-0.3-5.9-0.5
		c-0.5,9.5-3.1,20.8-6.8,26.4c-1.1,1.8-1.3,3-1.3,3.6c0,0.2,0,0.4,0,0.5c0.1,0,8.3,4.9,8.3,4.9l1.3,0.7c0,0,0.8,0.4,0.9,0.4
		c0.1,0,2.8-0.2,2.8-0.2l0.5-0.1l0.1,0c5.1-0.5,13-3,16.3,6.3c0.9,2.5,1.4,4.6,1.9,6.5c1,3.9,1.9,6.8,5.3,9.4c0,0,1.7-1.4,3.6-3.2
		c1.6-1.4,3.3-3,4.4-4c2.4-2.4,6.8-1.2,10,0c3.2,1.2,7.2,4,10,5.6c2.8,1.6,4.4,3.6,5.2,6c0.8,2.4,2.8,4,5.8,5.6c2.9,1.6,7,6.9,7,14
		c0,1.1,0.1,2,0.4,3c0.2,0.7,0.5,1.3,0.9,2.1c4,8.1,0.8,12.2-1.5,14c-3.1,2.4-8.7,3.3-13.9,2.5l0,1.3l-7.6-1
		c-2.9-0.4-6.8,0.4-9.2,0.9l-0.6,0.1c-5.4,1.1-12.5-0.8-16.5-7.2c-0.2-0.2-0.3-0.5-0.4-0.7c-2-3.6-5.2-6.9-6.7-7.8
		c-2.2,0.6-5.8,1.4-10,1c-3.9-0.4-8.4-1.9-13-5.7c-0.8-0.6-1.5-1.3-2.3-2.1c-6.7-6.7-15.6-8.1-21.2-7.3l-3.3,0.6
		c-6.9,1.2-15.4,2.8-23.4-2c-2-1.2-4.8-2.4-7.6-3.6c-7.2-3.1-14.6-6.4-15.6-13.2c-0.2-1.2-1.5-3.4-2.6-5.2c-1-1.6-2-3.3-2.8-5.1
		c-0.8-1.7-1.3-3.6-1.4-5.5c-2.3,0.6-4.7,0.9-7.2,0.7c-0.8,0-1.7-0.1-2.6-0.3l-3.1-0.5c-5.3-0.9-16.3-2.7-19.8-1.4
		c-7,2.5-29,3.7-35,2.4c0,0-2.2-0.5-4.3-0.9c-2,2.1-4.2,4-6.6,5.7c4.4,0.2,8.3-0.3,11,0.4l5.5,1.5c1.8-0.5,6.1-0.5,8.5-0.2l6.5,0.5
		l7.4,0.7c3.6,0.7,7.4,2.3,6.7,9.2c-0.3,2.2-1.5,5.2-3.3,7c-1,1.1-4.9,6.7-5.7,8.5l-0.3,0.5c-1.5,3.2-3.7,6.2-10.2,6.2
		c-0.8,0-1.9,0-2.5,0.1c-0.2,0.5-0.7,1.5-0.7,1.5c-1.5,3.3-3.6,8-7.6,10.6l-1.1,0.8c-3.2,2.3-8.7,6.1-16.9,3.1l-2.8-1
		c-7.2-2.6-18.1-6.5-23.6-9.5l-0.8-0.4c-5.1-2.8-6.3-3.4-8.1-3.1l-1,0.2c-3.9,0.5-11.3,1.5-16.5-6.9l-0.5-0.7
		c-24.3,33.4-60.8,57.2-103,65l-0.2,0c-1.4,0.3-2.9,0.5-4.3,0.7l-0.5,0.1l-2,0.3c-0.8,0.1-1.5,0.2-2.3,0.3l-1.4,0.2l-2.2,0.2
		l-1.5,0.2c-1,0.1-2,0.2-3,0.3l-1,0.1c-0.9,0.1-1.8,0.1-2.8,0.2l-1,0.1c-1.1,0.1-2.1,0.1-3.2,0.1l-1.1,0c-1.1,0-2.3,0-3.4,0
		c-1.2,0-2.3,0-3.5,0l-1,0c-1,0-2.1-0.1-3.1-0.1l-1.3-0.1c-0.9,0-1.7-0.1-2.6-0.2l-1.1-0.1c-1-0.1-2.1-0.2-3.1-0.3l-1.5-0.2l-2-0.2
		l-1.1-0.1c-1.1-0.1-2.1-0.3-3.2-0.4l-1.3-0.2l-2.3-0.4l-1.2-0.2c-0.9-0.2-1.8-0.3-2.7-0.5l-2-0.4l-1-0.2c-1.3-0.3-2.7-0.6-4-0.9
		l-0.4-0.1l-2.1-0.5l-1.1-0.3c-1.3-0.3-2.5-0.7-3.7-1l-0.4-0.1c-37-10.7-68.5-33.9-89.8-64.9l-2.8,4.3c-5.1,8.5-12.5,7.5-16.5,6.9
		l-1-0.2c-1.9-0.3-3,0.3-8.1,3.1l-0.8,0.4c-5.5,3-16.4,6.9-23.6,9.5l-2.9,1c-8.3,3-13.7-0.8-16.9-3.1l-1.1-0.8
		c-4-2.7-6.1-7.3-7.6-10.6c0,0-0.5-1-0.7-1.5c-0.6-0.1-1.7-0.1-2.5-0.1c-6.4,0-8.7-2.9-10.2-6.2l-0.3-0.5c-0.9-1.8-4.7-7.4-5.7-8.5
		c-1.8-1.8-3.1-4.8-3.3-7c-0.7-7,3.2-8.5,6.7-9.2l7.4-0.7l6.5-0.5c2.4-0.2,6.7-0.3,8.5,0.2l5.5-1.5c2.6-0.7,6.6-0.1,10.9-0.4
		c-2.3-1.7-4.5-3.7-6.6-5.7c-2.1,0.4-4.3,0.9-4.3,0.9c-6,1.4-28,0.2-34.9-2.4c-3.5-1.3-14.5,0.5-19.8,1.4l-3.2,0.5
		c-3.4,0.5-6.7,0.3-9.7-0.5c-0.2,4-2.3,7.6-4.2,10.6c-1.1,1.8-2.4,4-2.6,5.2c-1,6.8-8.5,10-15.6,13.2c-2.8,1.2-5.6,2.4-7.6,3.6
		c-7.9,4.8-16.5,3.2-23.4,2l-3.3-0.6c-5.5-0.9-14.4,0.5-21.2,7.3c-10.3,10.3-20.6,8-25.2,6.7c-1.5,0.9-4.7,4.2-6.7,7.8
		c-3.9,7.1-11.3,9.1-16.9,8l-0.6-0.1c-2.3-0.5-6.1-1.2-9.1-0.9l-7.7,1l0.1-1.3c-5.2,0.9-10.8-0.1-14-2.5c-2.3-1.7-5.6-5.8-1.5-14
		c1-2,1.3-3.3,1.3-5.1c0-7.1,4.1-12.4,7-14c3-1.6,5-3.2,5.8-5.6c0.8-2.4,2.4-4.4,5.2-6c2.8-1.6,6.8-4.4,10-5.6c3.2-1.2,7.6-2.4,10,0
		c2.4,2.4,8,7.2,8,7.2c5.1-3.9,4.6-8.5,7.2-16c3.3-9.3,11.2-6.8,16.3-6.3l0.6,0.1c0,0,2.8,0.1,2.8,0.2c0.1-0.1,0.9-0.4,0.9-0.4
		l1.3-0.7c0,0,8.3-4.9,8.3-4.9c0-0.1,0-0.2,0-0.5c0-0.6-0.2-1.8-1.3-3.6c-3.7-5.7-6.3-17-6.7-26.4c-1.3,0.2-2.6,0.3-3.9,0.4
		C59.3,447.9,47.4,442.9,40.5,436.4L40.5,436.4z M794.8,482.2l-0.6,0.1L794.8,482.2L794.8,482.2z M592.7,324.4
		c-1.1-0.2-2.2-0.4-3.3-0.5L592.7,324.4L592.7,324.4z M601.2,327.4c-0.8-0.5-1.7-0.9-2.6-1.2L601.2,327.4L601.2,327.4z M459.2,588.6
		c0.8-0.1,1.6-0.2,2.3-0.3L459.2,588.6L459.2,588.6z M451,589.4c1-0.1,2-0.2,3-0.3L451,589.4L451,589.4z M447.2,589.6
		c0.9-0.1,1.9-0.1,2.8-0.2L447.2,589.6L447.2,589.6z M443,589.8c1.1,0,2.2-0.1,3.2-0.1L443,589.8L443,589.8z M435,589.8
		c1.2,0,2.3,0,3.5,0c1.1,0,2.3,0,3.4,0L435,589.8L435,589.8z M430.8,589.7c1,0,2.1,0.1,3.1,0.1L430.8,589.7L430.8,589.7z
		 M426.9,589.5c0.9,0.1,1.7,0.1,2.6,0.2L426.9,589.5L426.9,589.5z M422.7,589.1c1,0.1,2.1,0.2,3.1,0.3L422.7,589.1L422.7,589.1z
		 M414.9,588.2c1.1,0.2,2.1,0.3,3.2,0.4L414.9,588.2L414.9,588.2z M407.4,586.9c0.9,0.2,1.8,0.3,2.7,0.5L407.4,586.9L407.4,586.9z"
		/>
	<path fill="#EE2F3B" d="M292.7,382.5c-1.2-2.1-0.7-4.2,0.5-6.3c2.6-4,5.1,0.4,5.1,0.4c9.1,12.7,2.4,31.7,2.4,31.7
		C299.8,390.9,292.7,382.5,292.7,382.5L292.7,382.5z M371.3,466.7c0.1-3.7,0.5-12-3.3-15c-1.4-1.1-6.9-7.2-6.9-7.2
		c-0.8-1.5-1.5-1.6-1.5-1.6c-1.1-0.1-2.6,2.5-2.6,2.5c-3.9,7.6-7.9,6.7-7.9,6.7c0-1.4,0.9-2.9,0.9-2.9c1.1-2,5.7-11.1,5.7-11.1
		c0.6-1.3,1.1-3.1,1.1-3.1c3.8-5.9,7.4-1.4,7.4-1.4c1.6,3.1,10.1,13.3,10.1,13.3c1.9,2.3,2.1,4.7,2.1,4.7
		C378.3,465.6,371.3,466.7,371.3,466.7L371.3,466.7L371.3,466.7z M348.9,502.3c-1.6,0-2-0.6-1.8-2.4c1.1-5,5.1-7.1,5.1-7.1
		c7.5-4.5,8.4,0,8.4,0c1.4,8-4.9,9-4.9,9C354.3,502.1,348.9,502.3,348.9,502.3L348.9,502.3L348.9,502.3z M24.6,525.3
		c0,0,1.6,1.2,0.8,3.6c0,0-4.2,11.4-4,15.2c0,0-9.2,1.6-10.5-2.9c0,0-0.2-1.8,1.3-4.3c0,0,1.6-2.4,2-6.7c0,0-0.1-10.9,6.9-8
		C22.5,523,23.6,524.1,24.6,525.3L24.6,525.3L24.6,525.3z M35.8,507.2c1.5-1.3,3.7-2,5.7-1.5c4.5,1,1.8,4.8,1.8,4.8
		c-1.8,3.4-7.7,9.1-7.7,9.1c-5.2,3.9-9.4-0.7-9.4-0.7c-3.9-3.8,1.2-5.7,1.2-5.7C30.3,512,35.8,507.2,35.8,507.2L35.8,507.2
		L35.8,507.2z M89.7,439c0,0-1.7,16.1,5.6,30.4c0,0,5.4,7.6-0.2,12.5L84,488.4c0,0-1.5,1.1-6.5,0.7c0,0-6.9-1.7-9.2,1.3
		c0,0-2,5.8-4.5,10.6c0,0-5.1,11.7-13.5,15.4c0,0-6.7,1.5-8.7,7.3c0,0-2.2,4.1-6.5,4.3c0,0-3.2,1-5.4,8.2c0,0-1.2,4.6-1.1,8.2
		c0,0,5.5-0.7,9.1,0.6c0,0,8.8,3,12.7-4.3c0,0,7.6-13,13.2-11.1c0,0,11.3,3.8,19.3-4.5c0,0,11-12,26.5-9.5c0,0,17.5,3.5,22.9-0.5
		c0,0,11-5.8,15.2-7.2c0,0,5.1-1.5,5.6-7c0,0,3.1-7.8,5.3-10.4l-8.3-0.1c0,0-7.6,12.7-20.4,16.5c0,0-7,2.8-21.1,0.5
		c0,0-20.2-4.6-38,14.6c0,0-2.4,3.5-5.9,2.1c0,0,9.8-16.7,31.4-20.7c0,0,7.1-1.5,12.9-0.5c0,0,29,0.9,42.5-27.7c0,0-1.5-24.4,5-30.1
		c0,0,2.5-0.8,2,4c0,0-4.4,25.5,3.9,30.5c0,0,4.8,3.8,13.7,2.4c0,0,13.5-3.2,24.5-1.3c0,0,16.9,4,31.4,2.2c0,0-3.8-5.8-3-12.7
		c0,0,2.1-4.9,4.5-1.8c0,0,5.6,18.4,20.8,24c0,0,13.6,5,13.4,22.3c0,0-2.1,2.4-20.2,8.8c0,0-6.8,2.1-8.9-2.9c0,0-8.7-18.7-16.3-18.1
		l-14.2,1.2c0,0-4.9,1.2-1.3,5.1c0,0,4.9,6.5,6.9,10.4c0,0,0.6,3.3,5.2,2.6c0,0,6.4-3.2,9.9,8.7c0,0,3.3,5.9,8.8,7.8
		c0,0,5.2,1.7,10.1-1c0,0,23.5-8.6,27.6-11.7c0,0,5.1-2.8,9.1-1.5c0,0,7.1,1.7,10-3.9l7.3-11.3c0,0,1.6-2.8,1.4-6.3
		c0,0,0.7-3.5-2.3-7c0,0-2.8-2.9-3.2-5l-5.2-12.2c0,0-2.1-3.3-4.4-4.6l-6.9,0.5c0,0,4.8,12.2,8.3,17.2c0,0,4.7,7.2,4.5,11.8
		c0,0-0.3,3.2-1.6,4.6c0,0-1.6,2.6-2.2,3.8c0,0-2.1,4.6-3.8,5.6c0,0-3,1.7-3.7,1.8c0,0-1.3,0.4-0.3-1.9c0,0,3.9-8.2,3.6-12.6
		c0,0,0.8-4.6-2.5-7.2c0,0-7.6-11.9-8.6-15.5c0,0-2.4-4.8-3.6-5.6c0,0-2.6-3.5,1.6-5.1c0,0,10.6-2.4,12.5-3.7c0,0,5.1-1.5,8.4-12.2
		c0,0,4.6-12.4,4.5-20.1c0,0,9,17.3-5.3,34.8c0,0,11.3,3.3,16,0c0,0,14.1-2.1,16.8-2.8c0,0,3.5-0.9,1.5,1.7c0,0-4.2,6-4.6,10
		c0,0-0.3,3.1-2.9,5c0,0-8,5.6-8.7,11c0,0-1.7,5.2,1.8,3.9c0,0,4.8-2.2,6.5,0c0,0,0.5,0.2-1.4,2.3c0,0-4.8,4.2-5.2,9.8
		c0,0,0.9,6.5,2.6,8.6c0,0,2.2,3,5.6,2c0,0,0.9-0.7,2.5-0.2c0,0,1.7,0,6.1-1.5c0,0,6.7-1.8,8.9-2.6c0,0,8.5-3.1,12.7-2.8
		c0,0,2.7-0.3,6.2,0.4c0,0,10.7,1.2,17.8-6.6c0,0,5.4-4.3,7.2-0.1c0,0,13,17.4,34,12.8c0,0-16.7-6.9-21-16.2c0,0-0.6-7.9-9.3-19
		c0,0-2.7-3.7-0.1-4.6c0,0,1.5-1.1,4.8,2.2c0,0,8.3,8,11.3,15.3c0,0,10.3,15.6,25.2,10.4c0,0-11.7-4.5-17.2-12.9
		c0,0-3.4-11.4-14.8-19.8c0,0-0.5-12.8-5.8-20c0,0-2.7-12-3.4-14.8c0,0-2.9-10.5-2.8-13.5c0,0,0.9-13.8-7.9-24.5
		c0,0-5.9-11.5-15.2-19.5c0,0-7-8.7-12.3-14c0,0-6.9-8.1-21.9-18.6c0,0-6.8-4.9-11.8-10.3c0,0-26.5-19.1-45.6-3.8
		c0,0-13.2,9-24.3,11.8c0,0-22.7,2.6-32.4,18.4c0,0-0.8,2.9-10,4c0,0-20.1-2.4-34.9,17.3c0,0-6.9,6.7-20.5,8.3
		c0,0-22.2-2.3-36.6,14.7c0,0-36.4,31.8-58.2,11.2c0,0-11.3-10.7,1.6-30c0,0,8.2-9.9,22.1-20.1c0,0,11.3-8,6.1-20.3
		c0,0-2.7-12-19.7-12.3c0,0-21.2-4.1-29.8-14.8c0,0-9.6,33.8,28.1,33.2c0,0,9.8,1.5,6.4,9.2c0,0-4.8,6.7-11.3,9.1
		c0,0-11.4,5-16.5,21.5c0,0-11.5,29,16.5,40.1C66.2,442,78.6,440.9,89.7,439L89.7,439L89.7,439z"/>
	<path fill="#EE2F3B" d="M579.4,382.5c1.2-2.1,0.7-4.2-0.5-6.3c-2.6-4-5.1,0.4-5.1,0.4c-9.1,12.7-2.4,31.7-2.4,31.7
		C572.3,390.9,579.4,382.5,579.4,382.5L579.4,382.5z M500.8,466.7c-0.1-3.7-0.5-12,3.3-15c1.4-1.1,6.9-7.2,6.9-7.2
		c0.8-1.5,1.5-1.6,1.5-1.6c1.1-0.1,2.6,2.5,2.6,2.5c3.9,7.6,7.9,6.7,7.9,6.7c0-1.4-0.9-2.9-0.9-2.9c-1.1-2-5.7-11.1-5.7-11.1
		c-0.6-1.3-1.1-3.1-1.1-3.1c-3.8-5.9-7.4-1.4-7.4-1.4c-1.6,3.1-10.1,13.3-10.1,13.3c-1.9,2.3-2.1,4.7-2.1,4.7
		C493.8,465.6,500.8,466.7,500.8,466.7L500.8,466.7L500.8,466.7z M523.3,502.3c1.6,0,2-0.6,1.8-2.4c-1.1-5-5.1-7.1-5.1-7.1
		c-7.5-4.5-8.4,0-8.4,0c-1.4,8,4.9,9,4.9,9C517.9,502.1,523.3,502.3,523.3,502.3L523.3,502.3L523.3,502.3z M847.5,525.3
		c0,0-1.6,1.2-0.8,3.6c0,0,4.2,11.4,4,15.2c0,0,9.2,1.6,10.5-2.9c0,0,0.3-1.8-1.3-4.3c0,0-1.6-2.4-2-6.7c0,0,0.1-10.9-6.9-8
		C849.6,523,848.5,524.1,847.5,525.3L847.5,525.3L847.5,525.3z M836.3,507.2c-1.5-1.3-3.7-2-5.7-1.5c-4.5,1-1.8,4.8-1.8,4.8
		c1.8,3.4,7.7,9.1,7.7,9.1c5.2,3.9,9.4-0.7,9.4-0.7c3.9-3.8-1.2-5.7-1.2-5.7C841.8,512,836.3,507.2,836.3,507.2L836.3,507.2
		L836.3,507.2z M782.4,439c0,0,1.7,16.1-5.6,30.4c0,0-5.4,7.6,0.2,12.5l11.1,6.5c0,0,1.5,1.1,6.5,0.7c0,0,6.9-1.7,9.2,1.3
		c0,0,2,5.8,4.5,10.6c0,0,5.1,11.7,13.5,15.4c0,0,6.7,1.5,8.7,7.3c0,0,2.2,4.1,6.5,4.3c0,0,3.2,1,5.4,8.2c0,0,1.2,4.6,1.1,8.2
		c0,0-5.5-0.7-9.1,0.6c0,0-8.8,3-12.7-4.3c0,0-7.6-13-13.2-11.1c0,0-11.3,3.8-19.3-4.5c0,0-11-12-26.5-9.5c0,0-17.5,3.5-22.9-0.5
		c0,0-11-5.8-15.2-7.2c0,0-5.1-1.5-5.6-7c0,0-3.1-7.8-5.3-10.4l8.3-0.1c0,0,7.6,12.7,20.4,16.5c0,0,7,2.8,21.1,0.5
		c0,0,20.2-4.6,38,14.6c0,0,2.4,3.5,5.9,2.1c0,0-9.8-16.7-31.4-20.7c0,0-7.1-1.5-12.9-0.5c0,0-29,0.9-42.5-27.7c0,0,1.5-24.4-5-30.1
		c0,0-2.5-0.8-2,4c0,0,4.4,25.5-3.9,30.5c0,0-4.8,3.8-13.7,2.4c0,0-13.5-3.2-24.5-1.3c0,0-16.9,4-31.4,2.2c0,0,3.8-5.8,3-12.7
		c0,0-2.1-4.9-4.5-1.8c0,0-5.6,18.4-20.8,24c0,0-13.6,5-13.4,22.3c0,0,2.1,2.4,20.2,8.8c0,0,6.8,2.1,8.9-2.9c0,0,8.7-18.7,16.3-18.1
		l14.3,1.2c0,0,4.9,1.2,1.3,5.1c0,0-4.9,6.5-6.9,10.4c0,0-0.6,3.3-5.2,2.6c0,0-6.4-3.2-9.9,8.7c0,0-3.3,5.9-8.8,7.8
		c0,0-5.2,1.7-10.1-1c0,0-23.5-8.6-27.6-11.7c0,0-5.1-2.8-9.1-1.5c0,0-7.1,1.7-10-3.9l-7.3-11.3c0,0-1.6-2.8-1.4-6.3
		c0,0-0.7-3.5,2.3-7c0,0,2.8-2.9,3.2-5l5.2-12.2c0,0,2.1-3.3,4.4-4.6l6.9,0.5c0,0-4.8,12.2-8.3,17.2c0,0-4.7,7.2-4.5,11.8
		c0,0,0.3,3.2,1.6,4.6c0,0,1.6,2.6,2.3,3.8c0,0,2.1,4.6,3.8,5.6c0,0,3,1.7,3.7,1.8c0,0,1.3,0.4,0.3-1.9c0,0-3.9-8.2-3.6-12.6
		c0,0-0.8-4.6,2.5-7.2c0,0,7.6-11.9,8.6-15.5c0,0,2.4-4.8,3.6-5.6c0,0,2.6-3.5-1.6-5.1c0,0-10.6-2.4-12.5-3.7c0,0-5.1-1.5-8.4-12.2
		c0,0-4.6-12.4-4.5-20.1c0,0-9,17.3,5.3,34.8c0,0-11.3,3.3-16,0c0,0-14.1-2.1-16.8-2.8c0,0-3.5-0.9-1.5,1.7c0,0,4.2,6,4.6,10
		c0,0,0.3,3.1,2.9,5c0,0,8,5.6,8.7,11c0,0,1.7,5.2-1.8,3.9c0,0-4.8-2.2-6.5,0c0,0-0.5,0.2,1.4,2.3c0,0,4.8,4.2,5.2,9.8
		c0,0-0.9,6.5-2.6,8.6c0,0-2.2,3-5.6,2c0,0-0.9-0.7-2.6-0.2c0,0-1.7,0-6.1-1.5c0,0-6.7-1.8-8.9-2.6c0,0-8.5-3.1-12.7-2.8
		c0,0-2.7-0.3-6.2,0.4c0,0-10.7,1.2-17.8-6.6c0,0-5.4-4.3-7.2-0.1c0,0-13,17.4-34,12.8c0,0,16.7-6.9,21-16.2c0,0,0.6-7.9,9.3-19
		c0,0,2.7-3.7,0.1-4.6c0,0-1.5-1.1-4.8,2.2c0,0-8.3,8-11.3,15.3c0,0-10.3,15.6-25.2,10.4c0,0,11.7-4.5,17.2-12.9
		c0,0,3.4-11.4,14.8-19.8c0,0,0.4-12.8,5.8-20c0,0,2.7-12,3.4-14.8c0,0,2.9-10.5,2.9-13.5c0,0-0.9-13.8,7.9-24.5
		c0,0,6-11.5,15.2-19.5c0,0,7-8.7,12.3-14c0,0,6.9-8.1,21.9-18.6c0,0,6.8-4.9,11.8-10.3c0,0,26.5-19.1,45.6-3.8
		c0,0,13.2,9,24.3,11.8c0,0,22.7,2.6,32.4,18.4c0,0,0.8,2.9,10,4c0,0,20.1-2.4,34.9,17.3c0,0,6.9,6.7,20.5,8.3
		c0,0,22.2-2.3,36.6,14.7c0,0,36.4,31.8,58.2,11.2c0,0,11.3-10.7-1.6-30c0,0-8.2-9.9-22.1-20.1c0,0-11.3-8-6.1-20.3
		c0,0,2.7-12,19.7-12.3c0,0,21.2-4.1,29.8-14.8c0,0,9.6,33.8-28.1,33.2c0,0-9.8,1.5-6.4,9.2c0,0,4.8,6.7,11.3,9.1
		c0,0,11.4,5,16.5,21.5c0,0,11.5,29-16.5,40.1C805.9,442,793.5,440.9,782.4,439L782.4,439L782.4,439z"/>
</g>
</svg>
