<?xml version="1.0" encoding="utf-8"?>
<!-- Generator: Adobe Illustrator 18.1.0, SVG Export Plug-In . SVG Version: 6.00 Build 0)  -->
<!DOCTYPE svg PUBLIC "-//W3C//DTD SVG 1.1//EN" "http://www.w3.org/Graphics/SVG/1.1/DTD/svg11.dtd">
<svg version="1.1" id="Layer_1" xmlns="http://www.w3.org/2000/svg" xmlns:xlink="http://www.w3.org/1999/xlink" x="0px" y="0px"
	 viewBox="0 0 870.6 870.5" enable-background="new 0 0 870.6 870.5" xml:space="preserve">
<g>
	<path fill-rule="evenodd" clip-rule="evenodd" fill="#ED1C24" d="M290.2,199.6H26c-13.6,0-21.5,11.1-17.5,24.8l59.9,205.3
		c4,13.6,18.4,24.8,32,24.8h264.2c13.6,0,21.5-11.1,17.5-24.8l-59.9-205.3C318.2,210.8,303.8,199.6,290.2,199.6L290.2,199.6z"/>
	<path fill-rule="evenodd" clip-rule="evenodd" fill="#ED1C24" d="M558,436.2H373.8c-10.9,0-17.1,8.9-13.7,19.8l39.8,129.7
		c3.3,10.9,15,19.8,25.9,19.8h184.1c10.9,0,17.1-8.9,13.7-19.8L583.8,456C580.5,445.1,568.8,436.2,558,436.2L558,436.2z"/>
	<path fill-rule="evenodd" clip-rule="evenodd" fill="#ED1C24" d="M681.7,302.2H532.8c-8.2,0-13,6.7-10.7,14.9l32.7,116.5
		c2.3,8.2,10.8,14.9,19,14.9h148.9c8.2,0,13-6.7,10.7-14.9l-32.7-116.5C698.4,308.9,689.9,302.2,681.7,302.2L681.7,302.2z"/>
	<path fill-rule="evenodd" clip-rule="evenodd" fill="#ED1C24" d="M796.5,437.4h-64.7c-5.4,0-8.4,4.5-6.6,9.9l21.2,63
		c1.8,5.4,7.8,9.9,13.2,9.9h64.7c5.4,0,8.4-4.5,6.6-9.9l-21.2-63C807.9,441.9,802,437.4,796.5,437.4L796.5,437.4z"/>
	<path fill-rule="evenodd" clip-rule="evenodd" fill="#ED1C24" d="M848,631.1h-39.6c-2.7,0-4.1,2.2-3.1,5l15.2,41.3
		c1,2.7,4.1,4.9,6.8,4.9h39.6c2.7,0,4.1-2.2,3.1-4.9l-15.2-41.3C853.8,633.4,850.8,631.1,848,631.1L848,631.1z"/>
</g>
</svg>
