<?xml version="1.0" encoding="utf-8"?>
<!-- Generator: Adobe Illustrator 18.1.0, SVG Export Plug-In . SVG Version: 6.00 Build 0)  -->
<!DOCTYPE svg PUBLIC "-//W3C//DTD SVG 1.1//EN" "http://www.w3.org/Graphics/SVG/1.1/DTD/svg11.dtd">
<svg version="1.1" id="Layer_1" xmlns="http://www.w3.org/2000/svg" xmlns:xlink="http://www.w3.org/1999/xlink" x="0px" y="0px"
	 viewBox="0 0 870.6 870.5" enable-background="new 0 0 870.6 870.5" xml:space="preserve">
<path fill="#AF9B6D" d="M832.3,214.5c-6.4-15-19.3-25.7-32.1-32.1c-19.3-4.3-38.5-2.1-51.4,15c-10.7,12.9-17.1,34.3-6.4,51.4
	c4.3,15,19.3,19.3,19.3,36.4L626.8,593.5c-8.6,10.7-8.6,27.8-19.3,34.3c-4.3-2.1-8.6-6.4-8.6-10.7l15-254.8l10.7-173.4
	c2.2-12.8-4.3-32.1,6.4-42.8c19.3-4.3,32.1-12.8,40.7-27.8c6.4-17.1,6.4-42.8-6.4-55.7c-12.9-12.8-27.8-17.1-47.1-15
	c-17.1,6.4-36.4,19.3-38.5,42.8c-2.1,23.5,10.7,42.8,27.8,51.4c4.3,0,6.4,4.3,8.6,8.6L511.1,608.5c-2.1,8.6-8.6,15-12.9,12.8
	c-2.1-2.1-6.4-6.4-6.4-10.7l-47.1-503.1c8.6-19.3,32.1-17.1,38.5-38.5c6.4-10.7,4.3-30,2.2-42.8C476.9,13.3,464,4.7,449,0.4
	c-12.8-2.2-27.8,4.3-38.5,8.6c-12.8,10.7-23.5,27.8-19.3,49.2c2.1,12.9,8.6,21.4,17.1,27.8c6.4,8.6,23.6,6.4,23.6,21.4l-21.4,252.6
	l-21.4,254.8l-4.3,8.6c-4.3,4.3-10.7-2.1-10.7-4.3L256.3,167.4c-2.1-6.4-2.1-15,2.1-21.4c17.1-10.7,30-36.4,25.7-59.9
	c-8.6-21.4-23.5-34.3-47.1-34.3c-19.3,2.1-38.5,10.7-45,30c-8.6,19.3-4.3,42.8,8.6,55.7c10.7,12.8,36.4,4.3,42.8,21.4l8.6,83.5
	l40.7,381.1c0,10.7,4.3,21.4-2.1,30c-2.1,2.1-8.6,2.1-10.7-2.1c-53.5-113.5-107-233.4-160.6-349c-2.1-8.6-8.6-19.3-4.3-30
	c6.4-8.6,15-17.1,19.3-27.8c2.1-12.8,2.1-25.7-6.4-36.4c-4.3-10.7-15-17.1-27.8-21.4c-17.1-4.3-40.7,2.1-53.5,15
	c-10.7,12.8-10.7,36.4-4.3,53.5c6.4,12.8,17.1,21.4,30,23.6c12.8,4.3,25.7,0,32.1,12.8c51.4,169.1,98.5,338.3,145.6,507.4l25.7,19.3
	c53.5,32.1,115.6,60,182,55.6c27.8-2.1,51.4-10.7,72.8-19.3c21.4-6.4,38.5-15,55.7-25.7c15-4.3,25.7-15,38.5-23.5l107-372.6
	l40.7-143.4c8.6-21.4,40.7-10.7,51.4-32.1C828,244.5,834.4,229.5,832.3,214.5L832.3,214.5z M607.5,801.2
	c-40.7,19.3-83.5,34.2-134.9,36.4c-68.5,10.7-149.9-12.9-203.4-40.7c-4.3,0-2.1-4.3,0-6.4c42.8-30,92.1-47.1,149.9-53.5
	c70.6-2.1,137,10.7,188.4,51.4C613.9,792.6,613.9,799,607.5,801.2L607.5,801.2z"/>
</svg>
