<?xml version="1.0" encoding="utf-8"?>
<!-- Generator: Adobe Illustrator 18.1.0, SVG Export Plug-In . SVG Version: 6.00 Build 0)  -->
<!DOCTYPE svg PUBLIC "-//W3C//DTD SVG 1.1//EN" "http://www.w3.org/Graphics/SVG/1.1/DTD/svg11.dtd">
<svg version="1.1" id="Layer_1" xmlns="http://www.w3.org/2000/svg" xmlns:xlink="http://www.w3.org/1999/xlink" x="0px" y="0px"
	 viewBox="0 0 870.6 870.5" enable-background="new 0 0 870.6 870.5" xml:space="preserve">
<path fill-rule="evenodd" clip-rule="evenodd" fill="#1C155C" d="M438,4.8c108.9,0,202.5,67.7,240.8,163.2
	c-25.1-7.9-51.8-12.1-79.4-12.1c-147.2,0-267.3,120.1-267.3,267.3c0,29,4.7,56.9,13.3,83.1c-97.3-37.4-166.7-131.9-166.7-242.1
	C178.7,121.3,295.2,4.8,438,4.8L438,4.8z"/>
<path fill-rule="evenodd" clip-rule="evenodd" fill="#1C155C" d="M6,434.8C6,325.9,73.7,232.3,169.2,194
	c-7.9,25.1-12.1,51.8-12.1,79.4c0,147.2,120.1,267.3,267.3,267.3c29,0,56.9-4.7,83.1-13.3c-37.4,97.3-131.9,166.7-242.1,166.7
	C122.5,694.1,6,577.6,6,434.8L6,434.8z"/>
<path fill-rule="evenodd" clip-rule="evenodd" fill="#1C155C" d="M437.5,866.5c-108.9,0-202.5-67.7-240.8-163.2
	c25.1,7.9,51.8,12.1,79.4,12.1c147.2,0,267.3-120.1,267.3-267.3c0-29-4.7-56.9-13.3-83.1c97.3,37.4,166.7,131.9,166.7,242.1
	C696.9,750,580.4,866.5,437.5,866.5L437.5,866.5z"/>
<path fill-rule="evenodd" clip-rule="evenodd" fill="#1C155C" d="M869.6,436.5c0,108.9-67.7,202.5-163.2,240.8
	c7.9-25.1,12.1-51.8,12.1-79.4c0-147.2-120.1-267.3-267.3-267.3c-29,0-56.9,4.7-83.1,13.3c37.4-97.3,131.9-166.7,242.1-166.7
	C753.1,177.2,869.6,293.7,869.6,436.5L869.6,436.5z"/>
</svg>
