<?xml version="1.0" encoding="utf-8"?>
<!-- Generator: Adobe Illustrator 18.1.0, SVG Export Plug-In . SVG Version: 6.00 Build 0)  -->
<!DOCTYPE svg PUBLIC "-//W3C//DTD SVG 1.1//EN" "http://www.w3.org/Graphics/SVG/1.1/DTD/svg11.dtd">
<svg version="1.1" id="Layer_1" xmlns="http://www.w3.org/2000/svg" xmlns:xlink="http://www.w3.org/1999/xlink" x="0px" y="0px"
	 viewBox="0 0 870.6 870.5" enable-background="new 0 0 870.6 870.5" xml:space="preserve">
<g>
	<g>
		<path fill="#B2B3B6" d="M858.5,246.5c-20.7-30.8-63.9-45.2-132.3-45.2c-70.6,0-234-0.7-280.1-0.7c-48,0-151.4-0.6-206.6,9.3
			c-83.3,14.9-128.1,61.7-149.8,108.2c-15.2,32.6-28.1,86,5.7,118.1c-34.2,0-57.1,0-57.1,0S22.3,459.3,13.5,476
			c-16.9,32.2-21.2,70.2,6,94.4c20,17.7,60.1,30.9,115.2,30.9c24.3,0,296.2,1.4,405.9,0c148.6,0,203.2-31.6,253.6-113.1
			c14-22.6,43.5-86-13-123.4c23.2,0,52.6,0,52.6,0s10.8-19,18.4-32.3C873.3,295.8,875.7,272.1,858.5,246.5z M777,338
			c-5.3,9.2-13.8,24.7-13.8,24.7s-24,0-42.9,0c21.8,16.4,27.7,41.3,27.7,56c0,17.4-5.8,36.7-17.2,57.6
			c-41,75-83.9,100.9-176.7,106.5c0,0-0.3,0-0.4,0c-43.8,2-109.4,2-176.3,2s-166.8-0.1-189.3-1.3c-44.1-2.2-80.2-8.2-97.2-36.3
			c-17.7-29.1-4.5-63,2.9-77.3c4.2-8.1,18.7-34.4,18.7-34.4s37,0,64.8,0c-31.8-19.8-46.3-62.9-23.1-108.7
			c26.8-52.8,55.7-88.9,124.4-101.8c41.4-8,137.5-8,178.6-8l217.8,0.8c29.8,0.3,91,1.4,112.9,45.6C801.6,290.8,788.6,317.9,777,338z
			"/>
		<path fill="#152F55" d="M306.8,456.4c0,0-0.9,2.1-2.2,5.3c-12.2,28.4,22.2,28.2,46.9,28.3c44.6,0.3,102.3,0.3,129.3-1.1
			c26.3-0.9,50.3-0.7,62.3-26.9c11.3-24.8-16.3-27.1-41.6-27.1c0,0-147.1,0.8-209.3-3.2c-73.3-4.1-83.9-31.3-57.6-88.7
			c20.8-45.5,45.5-76.8,112-89.2c44.8-8.7,131.7-9.2,175.9-9.2l81.1,0.9c46.9,0.5,99.5,0.9,110.4,37.3c4.4,17.9-5.8,39.1-14.1,58.4
			H585.9c8.8-23-6.1-28.1-31.6-29c-36.4-0.7-103.9-0.4-146.1,1.8c-21.1,0.9-44.6,4.6-53,23c-13.7,29.9,29.1,26.6,55,27.6
			c0,0,120.7,1.4,153.3,1.4c89,0,134.9,13.8,98.5,93.4c-34.5,75.4-82.1,89.2-173.1,94.7c-63.6,3.5-167.3,4.4-222.1,1.9
			c-71.8-3.3-115.5-11-83.5-80.9l8.4-18.4C191.8,456.4,306.8,456.4,306.8,456.4z"/>
	</g>
</g>
</svg>
