<?xml version="1.0" encoding="utf-8"?>
<!-- Generator: Adobe Illustrator 18.1.0, SVG Export Plug-In . SVG Version: 6.00 Build 0)  -->
<!DOCTYPE svg PUBLIC "-//W3C//DTD SVG 1.1//EN" "http://www.w3.org/Graphics/SVG/1.1/DTD/svg11.dtd">
<svg version="1.1" id="Layer_1" xmlns="http://www.w3.org/2000/svg" xmlns:xlink="http://www.w3.org/1999/xlink" x="0px" y="0px"
	 viewBox="0 0 870.6 870.5" enable-background="new 0 0 870.6 870.5" xml:space="preserve">
<g>
	
		<linearGradient id="SVGID_1_" gradientUnits="userSpaceOnUse" x1="455.4994" y1="1044.0087" x2="455.4994" y2="550.3" gradientTransform="matrix(1 0 0 -1 -20.96 1228.3398)">
		<stop  offset="0" style="stop-color:#F7991D"/>
		<stop  offset="1" style="stop-color:#EF3924"/>
	</linearGradient>
	<path fill="url(#SVGID_1_)" d="M11.3,409.3c-1.8,0-3.2,1.4-3.5,3.4l-6.3,48.1l6.3,47.3c0.2,2,1.7,3.4,3.5,3.4
		c1.8,0,3.2-1.4,3.5-3.4l0,0v0c0,0,0,0,0,0l7.5-47.3l-7.5-48.1C14.5,410.7,13.1,409.3,11.3,409.3z M46.9,383
		c-0.3-2.1-1.8-3.5-3.6-3.5c-1.8,0-3.4,1.5-3.6,3.5c0,0-8.5,77.8-8.5,77.8l8.5,76.1c0.2,2,1.8,3.5,3.6,3.5c1.8,0,3.3-1.4,3.6-3.5
		l9.7-76.1L46.9,383z M181.1,311.3c-3.5,0-6.4,2.9-6.5,6.5l-6.8,143.1l6.8,92.5c0.2,3.6,3,6.5,6.5,6.5c3.5,0,6.4-2.9,6.6-6.5v0
		l7.7-92.5l-7.7-143.1C187.4,314.1,184.6,311.3,181.1,311.3z M111.7,361c-2.7,0-4.9,2.1-5.1,5l-7.6,94.8l7.6,91.7
		c0.2,2.8,2.4,5,5.1,5c2.6,0,4.8-2.1,5.1-5l8.7-91.7l-8.7-94.8C116.5,363.1,114.3,361,111.7,361z M251.6,559.8c4.3,0,7.9-3.5,8-8
		l6.6-90.9l-6.6-190.5c-0.2-4.5-3.7-8-8-8c-4.4,0-7.9,3.5-8,8c0,0-5.9,190.5-5.9,190.5l5.9,91C243.8,556.3,247.3,559.8,251.6,559.8z
		 M396.1,560.2c6,0,10.9-4.9,11-11v0.1v-0.1l4.6-88.3l-4.6-220c-0.1-6-5-10.9-11-10.9c-6,0-10.9,4.9-11,11L381,460.9
		c0,0.1,4.1,88.4,4.1,88.4C385.2,555.3,390.2,560.2,396.1,560.2z M323.3,559.9c5.2,0,9.4-4.2,9.5-9.5v0.1l5.6-89.6L332.8,269
		c-0.1-5.3-4.3-9.5-9.5-9.5c-5.2,0-9.4,4.2-9.5,9.5l-5,191.9l5,89.5C313.9,555.7,318.1,559.9,323.3,559.9z M146.2,559
		c3.1,0,5.6-2.5,5.8-5.7l8.2-92.5l-8.2-88c-0.2-3.2-2.7-5.7-5.8-5.7c-3.1,0-5.6,2.5-5.8,5.7l-7.2,88l7.2,92.5
		C140.6,556.6,143.1,559,146.2,559z M77.3,554c2.3,0,4.1-1.8,4.3-4.2l9.2-88.9l-9.2-92.3c-0.3-2.5-2.1-4.2-4.3-4.2
		c-2.3,0-4.1,1.8-4.3,4.2c0,0-8.1,92.3-8.1,92.3l8.1,88.9C73.2,552.2,75,554,77.3,554z M359.6,265.8c-5.6,0-10.2,4.5-10.3,10.2
		l-4.6,184.9l4.6,89c0.1,5.7,4.6,10.1,10.3,10.1c5.6,0,10.1-4.5,10.3-10.2v0.1l5.1-89L369.8,276
		C369.7,270.3,365.2,265.8,359.6,265.8z M216.2,560c3.9,0,7.1-3.2,7.3-7.2l7.1-91.9L223.5,285c-0.2-4.1-3.4-7.2-7.3-7.2
		c-3.9,0-7.1,3.2-7.3,7.2c0,0-6.3,175.8-6.3,175.8l6.3,91.9C209.1,556.8,212.3,560,216.2,560z M296.1,551.3L296.1,551.3l6.1-90.4
		L296.1,264c-0.1-4.9-4-8.7-8.8-8.7c-4.8,0-8.6,3.8-8.8,8.7l-5.5,196.9l5.5,90.4c0.1,4.8,4,8.7,8.8,8.7
		C292.1,560,296,556.1,296.1,551.3L296.1,551.3z M761.1,347.4c-14.6,0-28.5,3-41.2,8.3c-8.5-96-89-171.3-187.2-171.3
		c-24,0-47.5,4.7-68.1,12.7c-8,3.1-10.2,6.3-10.3,12.5v338.1c0.1,6.5,5.1,11.9,11.5,12.6c0.3,0,293.4,0.2,295.3,0.2
		c58.8,0,106.5-47.7,106.5-106.5C867.6,395.1,819.9,347.4,761.1,347.4z M432.5,209.3c-6.4,0-11.7,5.3-11.7,11.7l-4.8,240l4.8,87.1
		c0.1,6.4,5.3,11.6,11.7,11.6c6.4,0,11.6-5.2,11.7-11.7v0.1l5.2-87.1l-5.2-240C444.1,214.5,438.9,209.3,432.5,209.3z M87.5,628.2
		c-12.6-3-16-4.5-16-9.5c0-3.5,2.8-7.2,11.4-7.2c7.3,0,13,3,18.1,8.2l11.5-11.1c-7.5-7.8-16.6-12.5-28.9-12.5
		c-15.7,0-28.4,8.9-28.4,23.3c0,15.7,10.2,20.3,24.9,23.7c15,3.4,17.7,5.7,17.7,10.8c0,6-4.4,8.6-13.8,8.6c-7.6,0-14.8-2.6-20.3-9.1
		L52,663.6c6,8.9,17.6,14.4,30.9,14.4c21.7,0,31.2-10.2,31.2-25.3C114.1,635.5,100.1,631.2,87.5,628.2z M160.7,596.1
		c-21.7,0-34.5,16.8-34.5,41c0,24.2,12.8,41,34.5,41c21.7,0,34.5-16.8,34.5-41C195.2,612.9,182.4,596.1,160.7,596.1z M160.7,662.3
		c-12.8,0-18.2-11-18.2-25.2c0-14.2,5.3-25.2,18.2-25.2c12.8,0,18.2,11,18.2,25.2C178.9,651.2,173.5,662.3,160.7,662.3z
		 M259.4,641.9c0,12.7-6.3,20.6-16.4,20.6c-10.1,0-16.2-8.1-16.2-20.8v-44.4h-15.9v44.6c0,23.2,13,36.1,32.1,36.1
		c20.2,0,32.3-13.3,32.3-36.3v-44.4h-15.9V641.9z M343.9,630.9c0,4.4,0.2,14.4,0.2,17.4c-1-2-3.6-6-5.6-9l-28.2-42h-15.2v79.5h15.7
		v-35c0-4.4-0.2-14.4-0.2-17.4c1,2,3.6,6,5.6,9l29.2,43.4h14.2v-79.5h-15.7V630.9z M404.8,597.3H380v79.5h23.7
		c20.4,0,40.7-11.8,40.7-39.8C444.4,608,427.5,597.3,404.8,597.3z M403.7,661.4h-7.8v-48.6h8.4c16.8,0,23.7,8,23.7,24.3
		C428,651.6,420.4,661.4,403.7,661.4z M493.5,611.8c7.1,0,11.7,3.2,14.5,8.6l14.8-6.8c-5-10.3-14.1-17.6-29.1-17.6
		c-20.8,0-35.3,16.8-35.3,41c0,25.1,14,41,34.7,41c14.4,0,24-6.7,29.4-17.9l-13.4-7.9c-4.2,7-8.4,10.1-15.6,10.1
		c-11.9,0-18.9-10.9-18.9-25.2C474.8,622.3,481.6,611.8,493.5,611.8z M552.5,597.3h-15.9v79.5h47.8v-15.7h-31.9V597.3z M626.3,596.1
		c-21.7,0-34.5,16.8-34.5,41c0,24.2,12.8,41,34.5,41c21.7,0,34.5-16.8,34.5-41C660.8,612.9,647.9,596.1,626.3,596.1z M626.3,662.3
		c-12.9,0-18.2-11-18.2-25.2c0-14.2,5.3-25.2,18.2-25.2c12.8,0,18.1,11,18.1,25.2C644.4,651.2,639.1,662.3,626.3,662.3z
		 M724.9,641.9c0,12.7-6.2,20.6-16.3,20.6c-10.1,0-16.2-8.1-16.2-20.8v-44.4h-15.9v44.6c0,23.2,12.9,36.1,32.1,36.1
		c20.2,0,32.2-13.3,32.2-36.3v-44.4h-15.9V641.9z M785.6,597.3h-24.9v79.5h23.7c20.5,0,40.7-11.8,40.7-39.8
		C825.1,608,808.3,597.3,785.6,597.3z M784.4,661.4h-7.8v-48.6h8.4c16.8,0,23.7,8,23.7,24.3C808.7,651.6,801.1,661.4,784.4,661.4z"
		/>
</g>
</svg>
