<?xml version="1.0" encoding="utf-8"?>
<!-- Generator: Adobe Illustrator 18.1.0, SVG Export Plug-In . SVG Version: 6.00 Build 0)  -->
<!DOCTYPE svg PUBLIC "-//W3C//DTD SVG 1.1//EN" "http://www.w3.org/Graphics/SVG/1.1/DTD/svg11.dtd">
<svg version="1.1" id="Layer_1" xmlns="http://www.w3.org/2000/svg" xmlns:xlink="http://www.w3.org/1999/xlink" x="0px" y="0px"
	 viewBox="0 0 870.6 870.5" enable-background="new 0 0 870.6 870.5" xml:space="preserve">
<g>
	<path fill-rule="evenodd" clip-rule="evenodd" fill="#FFFFFF" d="M229.4,738.1c1.5,3.1,2.3,6.6,2.2,10.8l-99,0
		c-3,0-7.8,1.7-9.5,5.7c-2.2,4.9,0.3,10.6,5.2,12.7c2,0.9,5.4,0.7,5.4,0.7h72c12.9,0.9,24.4,9.2,28.8,22.8c3.9,11.9,1.9,21.7-6,31.4
		c-9.1,11.2-21.5,11.3-35.2,11.3l-79.7-0.1c-8.6,0-15.9-8.5-17.2-17.3l-0.1-4.4l105.2,0.1c3.5,0,8-4.9,8.2-9.8
		c0.1-5.4-3.6-10.5-8.9-10.5h-75.8c-13.1,0-26.5-12.3-28.6-27.7c-1.7-12.4,2.3-21.9,12-29.9c7.3-6.1,12.8-7.8,23-7.8l70.1-0.1
		C212.6,725.9,224.4,727.8,229.4,738.1L229.4,738.1L229.4,738.1z"/>
	<path fill-rule="evenodd" clip-rule="evenodd" fill="#FFFFFF" d="M393.3,726.6c16.9,0,30.7,17.4,30.2,35.7
		c-0.4,17.6-15.8,33.8-29.8,33.8h-59.1c-8.7-1.1-15.3-7.3-18.7-14.6c-1.2-2.8-1.2-6.8-1.6-9.8l3.1,0.1h71.5c3.1,0,6-2.8,7.5-6.4
		c1.3-3.2,1.2-5.9-0.4-9c-1.8-3.4-5-5.6-8.2-5.6H308l-0.7,0.7v70.6c0,6.6-5.7,11.4-12.5,11.3c-5.9-0.1-11.4-4.9-11.4-11.1v-75.5
		c0-6.2,2.4-9.9,6.8-14.1c4.6-4.4,10.8-6.1,15.3-6.1L393.3,726.6L393.3,726.6L393.3,726.6z"/>
	<path fill-rule="evenodd" clip-rule="evenodd" fill="#FFFFFF" d="M521.6,755.1c7.9,10.9,16.5,21.4,24,32.8h-52.9l26.3-32.9
		c0,0,0.7-1.1,1.4-1C521,753.9,521.6,755.1,521.6,755.1L521.6,755.1L521.6,755.1L521.6,755.1z M543.2,742.8
		c13.6,19,41.2,54.5,55.1,74.6c1.8,4.5-0.3,9.4-2.6,13.1c-3.8,3.5-9.9,4.3-14.2,2.2c-6.7-6-11.4-13.5-16.8-20.2l-90.9-0.2L463,826.9
		c-3.4,4.6-7.7,7.7-14.3,6.6c-3.4-0.7-6.7-3.6-7.9-6.7c-1.8-4.1-1.6-7.9,0.7-11.6l57.6-76.3c4.8-7.2,10.1-12.4,19.1-12.3
		C532.4,726.7,533.4,730.2,543.2,742.8L543.2,742.8L543.2,742.8z"/>
	<path fill-rule="evenodd" clip-rule="evenodd" fill="#FFFFFF" d="M747.6,726.6c12.5,0,24.2,9.5,28.9,23.1
		c5,14.6,0.4,27.6-10.9,38.1c-2.5,2.3-7.1,5.2-7.1,5.2l15.6,22.4c1.4,2,1.9,6.1,0.6,9.6c-1.2,3.3-2.9,5.2-6.1,6.5
		c-4.4,1.9-10.1,0.1-12-2.1c0,0-14.9-18.2-23.2-28.5c-1.5-1.5-2.2-2.9-3.7-4.5l-39.8,0.2c-9.9,0-21.5-11.8-21.5-21.2v-3.6l74.2-0.1
		c2.8,0,5.9-2.6,7.4-6c1.4-3.1,1.3-5.5,0-8.6c-1.6-3.7-5.3-6.3-8.1-6.3l-80.7,0.2l-0.2,0.8v71.9c0,4.8-6.6,10.9-13.1,10.3
		c-6-0.6-10.9-6.7-10.9-10.9l0.1-76.2c0-7.9,2.3-11,7.3-15.4c4.9-4.3,9.3-5.2,15.8-5.2L747.6,726.6L747.6,726.6L747.6,726.6z"/>
	<path fill-rule="evenodd" clip-rule="evenodd" fill="#008348" d="M197,533.9c-12.4,16.3-25,32.2-37.8,47.8l231-0.5
		c-1.4,30.7,5.9,68.1-8.4,94.4c-14.4,28.9-48.1,43.2-79.3,43.8c-93.2-8.6-155.1-90-190.5-166.9c-2.7-6.1-5.1-12.3-7.3-18.6
		c-31.9-92.4-14.7-210.9,46-286.6c90.2-118.9,249.5-167,397.9-121.4c90.5,28.2,171,98.1,210.8,187.2c28.7,67.2,29.6,148.3,6.2,220.8
		c-14.9,46.5-39.8,89.5-73.7,123.2c-41.8,35.2-86.9,72.3-145,60.7c-31.7-7.4-54.4-29.3-62.4-59c-6.8-25.9-5.1-50.8-1.7-77.6
		l235.7-0.4l-6.4-8c-10.9-12.8-21.7-25.8-32.2-38.9h0c-103.9-129.4-187-272.8-244.3-423.1C375.5,259.4,293.8,406.5,197,533.9
		L197,533.9L197,533.9L197,533.9z M13.1,533.9c36.7,137.6,148.2,250.5,286,290.1c173.6,54.6,370-3.6,482.2-136.6
		c36.1-43.8,62.2-97,76.6-153.5c24.2-94.9,15.7-199.4-32.8-284.9c-34.7-60.3-85.7-117.2-143.3-153.4C552.4,10.4,360.3,3.6,225,75.3
		C86.3,146.1-9.3,294,0.7,454.7C2.1,481.7,6.3,508.2,13.1,533.9L13.1,533.9z"/>
</g>
</svg>
