<?xml version="1.0" encoding="utf-8"?>
<!-- Generator: Adobe Illustrator 18.1.0, SVG Export Plug-In . SVG Version: 6.00 Build 0)  -->
<!DOCTYPE svg PUBLIC "-//W3C//DTD SVG 1.1//EN" "http://www.w3.org/Graphics/SVG/1.1/DTD/svg11.dtd">
<svg version="1.1" id="Layer_1" xmlns="http://www.w3.org/2000/svg" xmlns:xlink="http://www.w3.org/1999/xlink" x="0px" y="0px"
	 viewBox="0 0 870.6 870.5" enable-background="new 0 0 870.6 870.5" xml:space="preserve">
<rect y="286.9" fill="#EC2227" width="870.6" height="264"/>
<path fill="#FFFFFF" d="M137.2,356.4c-4.5-7.9-11.2-12.8-21.3-12.8c-9.7,0-20.2,7.4-21.8,17.6c-4.2,26.3,59.4,15.3,51.1,67.6
	c-4.9,31.2-27.9,53.3-59.7,53.3c-21.5,0-35.2-12.4-43.1-30.4L65,432.5c2.2,12,11.5,22.7,24.5,22.7c12.4,0,21.7-10.5,23.6-22.5
	c2.6-16.1-11.6-20.7-23.1-25.4c-18.7-8.3-31.8-18.4-28-42.6C66.2,338.9,88.7,318,115,318c13.9,0,32,6.8,39.8,17.4L137.2,356.4z"/>
<path fill="#FFFFFF" d="M196.8,376.5l-8.7,55c-1.8,11.6-2.2,25.4,12.5,25.4c14.7,0,18.7-13.8,20.6-25.4l8.7-55h28.9l-9.5,59.7
	c-4.7,29.6-22.4,45.1-52.6,45.1s-43-15.5-38.3-45.1l9.5-59.7H196.8z"/>
<path fill="#FFFFFF" d="M310.6,385.2c7.8-7.9,19.3-12.8,30-12.9c28.7-0.2,42.3,26.5,38.3,53.2c-4.2,27.7-25.2,54.8-55.1,55
	c-10.3,0.1-20.6-4.4-25.2-12.6l-0.4,0l-9.6,63.7l-28.9,0.2l23.4-155.9l28.9-0.2L310.6,385.2z M349.5,426.2
	c2.1-13.7-4.8-28.3-19.7-28.2c-14.9,0.1-26.2,14.9-28.2,28.6c-2.1,13.7,4.8,28.5,19.7,28.4C336.1,454.9,347.4,439.9,349.5,426.2z"/>
<path fill="#FFFFFF" d="M427.2,385.5l0.4,0c7.1-8.9,16.6-14,27.3-14.1c4.1,0,8.1,1,11.6,2.4l-7.6,26.9c-3.1-2.5-7.1-3.7-11.4-3.6
	c-20.1,0.2-24.8,18-27.2,33.7l-6.9,45.7l-28.9,0.2l15.3-101.6l28.9-0.2L427.2,385.5z"/>
<path fill="#FFFFFF" d="M494.9,429.8c-1.9,12.8,0.9,27.3,15.9,27.2c9.5-0.1,16.4-5.9,21.5-14l26,4.1c-10.1,20.3-29.6,31.9-50.9,32
	c-31.4,0.3-47.3-21.9-42.7-52.8s24.6-55.2,57.5-55.4c33.3-0.3,44.5,24.2,39.9,54.9l-0.5,3.5L494.9,429.8z M537.1,411.5
	c0.1-10.3-5-20.4-16.1-20.3c-11.6,0.1-19.5,10.1-22.5,20.6L537.1,411.5z"/>
<path fill="#FFFFFF" d="M618,385.6h0.4c6.9-8.1,17.5-12.4,26.8-12.4c12.6,0,21.7,5.2,26.6,15.9c7.8-9.9,20.3-15.9,32.1-15.9
	c25.8,0,29.2,19.4,25.7,41.6l-10,63.3h-28.9l8.5-53.3c1.6-9.9,5.1-28.3-9.2-28.3c-15.7,0-18.9,21.3-20.5,31.8l-7.9,49.8h-28.9
	l8.2-51.5c1.6-9.9,6-30.2-9.1-30.2c-16.1,0-18.6,21.1-20.3,31.8l-7.9,49.8h-28.9l16.1-101.5h28.9L618,385.6z"/>
<path fill="#FFFFFF" d="M770.9,431.9c-2,12.8,0.6,27.3,15.7,27.3c9.5,0,16.4-5.8,21.6-13.9l26,4.3c-10.2,20.3-29.8,31.6-51.1,31.6
	c-31.4,0-47.1-22.3-42.2-53.1c4.9-30.8,25-55,57.9-55c33.3,0,44.3,24.6,39.4,55.2l-0.6,3.5L770.9,431.9L770.9,431.9z M813.2,413.9
	c0.2-10.3-4.8-20.5-16-20.5c-11.6,0-19.6,9.9-22.7,20.5H813.2z"/>
</svg>
