<?xml version="1.0" encoding="utf-8"?>
<!-- Generator: Adobe Illustrator 18.1.0, SVG Export Plug-In . SVG Version: 6.00 Build 0)  -->
<!DOCTYPE svg PUBLIC "-//W3C//DTD SVG 1.1//EN" "http://www.w3.org/Graphics/SVG/1.1/DTD/svg11.dtd">
<svg version="1.1" id="Layer_1" xmlns="http://www.w3.org/2000/svg" xmlns:xlink="http://www.w3.org/1999/xlink" x="0px" y="0px"
	 viewBox="0 0 870.6 870.5" enable-background="new 0 0 870.6 870.5" xml:space="preserve">
<g>
	<path fill-rule="evenodd" clip-rule="evenodd" fill="#ED1C2E" d="M96.2,312.9l-25.4-0.1H31.5c-2.7,0-23.8,0.2-23.8,0.2l-0.4,34.1
		l-3.8,0.1l0.2-38.3l-0.1-15.8c13.4,0.7,61.8,1.1,112.1,1.1c58.6,0,96.4-0.6,111.2-1l-0.2,17.4l0.3,38.8l-4,0c0-3.2-0.7-16-0.6-17.3
		c0-0.5-0.8-17.8-1-19l-16.8-0.2l-50.4,0l-19.3,0.1l0,239.2c0,0.3,0.4,15.7,0.4,18.9c1.9,0.3,20.6,1.6,24,1.6l1.3,0v6.5
		c-1,0-2.3,0.1-3.3,0.1c-10.6-0.1-27.8-1.4-39.9-1.4c-12,0-28.9,1.2-41.4,1.4c-0.3,0-2.9,0-3.9-0.1l0-6.9c0.1,0,0.9,0,2.1-0.1
		c5.3-0.2,18.3-1.1,21.7-1.4l0.5-0.1L96.2,312.9L96.2,312.9z M322.6,579.3c-9.8,0-26.6-1.6-39.1-1.6c-12.4,0-29.2,1.6-41.3,1.6
		c-1,0-2.8-0.2-3.8-0.2v-6.8c2.4,0,13.1-1,16.1-1.2c3.5-0.3,6.7-0.4,8.1-0.9c0,0,0-8.2,0.1-20.9c0.1-43.9,0.4-168,0-224.1
		c0-5.9-0.1-20.9-0.1-23.1c-2.3-0.2-5.4-0.5-7.7-0.8c-2.8-0.2-14.5-1.3-16.5-1.4l-0.1-6.8c11.6,0,28.8,1.2,42.8,1.2
		c13.3,0,31.5-1.2,45.2-1.2l0,7.1c-2.2,0.1-7.5,0.5-7.6,0.5c-4,0.4-15.2,1.6-17.9,1.8c0,4.2,0,12.1,0,21.8
		c0,50.3-0.1,181.8-0.1,226.1c0,5.8,0,11.1,0,14.4c0,3.4,0,5.4,0.1,5.5c0.1,0.3,7.1,0.9,8.7,1c3.1,0.4,15.8,0.9,16.2,1h0.9l0,6.8
		C325.5,579.1,323.4,579.3,322.6,579.3L322.6,579.3z M410.9,388.4c0,0-6.3,35-15.5,84.4c-4.8,26.7-14.9,93.4-15.5,97.8
		c5.8,0.9,17.2,1.8,20.3,1.7c0.7,0,1.9,0,2.8,0l0,6.8c-1.3,0.2-4.3,0.2-4.4,0.2c-11-0.2-18.9-1.1-30.7-1.1c-3.1,0-19.6,0.9-25.4,1.1
		c-2.4,0.1-5.8-0.2-6.5-0.1l0-6.7c0.6,0,1.7-0.2,2.4-0.3c5.2-0.2,13.3-1,20.1-1.9c0.6-3.3,6.5-36.2,8.3-47.8
		c7.3-38.6,28.7-167.4,31.3-184.8c2.3-18.8,5.1-42.1,5.3-44.7c5.7,0.1,15.5-0.1,15.5-0.1s18.9,58.9,22,67.5
		c3.1,8.6,61,157.6,61,157.6s27.2-64.2,51.4-133c4.9-13.9,11.3-32.1,16.1-46.8c6.9-21.5,14.6-45.2,14.6-45.2H599c0,0,3.7,26.3,5,38
		c3.8,34.1,28.7,172.6,37.4,218.2c2.2,11.4,3.8,21.3,3.8,21.3c2.6,0.2,12.6,1.2,18.6,1.7c1.2,0.1,4.6,0.3,5.4,0.3l0,6.9
		c0,0-2.7,0.1-4.2,0.1c-13.3-0.1-34.1-1.3-47-1.3c-11.4,0-22.4,1-33.8,1.2c-1.9,0-3.9-0.1-5.9-0.1v-6.8c0.1,0,1.6-0.1,2.4-0.1
		c5.6-0.3,20.4-1.7,21.8-1.8c0-2.5-0.8-11.1-2-19.9c-0.8-6.2-2.2-16.8-3.7-27.3c-3.3-20.4-18.3-104.8-22.8-128.2
		c-0.7-3.8-1.2-6-1.2-6s-46.6,119.6-56,143.1c-0.9,2.3-1.6,3.9-1.8,4.5c-9,22.7-16.5,42.9-16.5,42.9l-13.3-0.1l-72.6-186.7
		L410.9,388.4L410.9,388.4z M872.1,349l-3.8,0l0-2c-0.4-5-1.2-19.1-2.3-31c-0.1-1.1-0.3-1.9-0.3-1.9c-2.3-0.1-11.7-0.4-11.8-0.5
		c-0.2-0.1-7.6-0.2-7.8-0.3c-0.1,0-24.6-0.2-49.9-0.2c-17.3,0-34.2,0.1-44.7,0.1c-2.6,0-11.7,0.4-11.7,0.4l0,112.6l72.3,0.2
		c0.3,0,19.1-0.6,19.6-0.6c1.1,0,14-0.7,14.5-0.9c0,0,0.2-1.2,0.5-2c1-6.8,2.4-13.3,2.7-18.3c0,0,0.3-2.2,0.4-3.6l4.1-0.1
		c0,0.5,0.2,1.8,0.2,3.7c0,6.8-0.5,20.9-0.5,30.1c0,13.3,0.4,25.3,0.5,31.3c0.1,1.7-0.1,4.5-0.1,4.5h-4.5c-0.1-0.6-0.2-1.3-0.2-2
		c-0.8-7.7-1.4-13.1-2.6-20.9c0-0.4-0.3-1.8-0.4-2.7c-2.3-0.2-8.4-0.4-11.6-0.5c-1.4,0-19-0.2-38.9-0.2c-8.1,0-22.7,0.4-28.9,0.4
		c-7.2,0-19.2,0.5-27,0.7l0.1,102.1l0.3,13.2l43.9,0.8l62.5-0.1c0.3,0,14.3-0.6,18.7-0.5c0.9,0,2.8-0.1,2.8-0.1
		c0.4-3.3,0.9-10,1.4-16.4c0-0.8,1.6-17.7,1.6-22.2l3.8,0c0,4.3-0.8,57.8-0.8,57.8c-7,0-28.7,0-55.4-0.4c-16.2-0.2-34.2-0.2-52-0.5
		c-14.4-0.2-28.7-0.7-41.7-0.7c-18.5,0-36.6,1.2-43.7,1.2c-1.6,0-4.5-0.1-5.1-0.1v-6.7h1.3c4.3,0,17.1-0.8,23.8-2
		c0-1.4,0.4-18,0.4-18.3c0,0,0-211.4,0-220.9c0-10.2-0.2-27.2-0.2-28.7c-3.8-0.4-5.1-0.7-5.9-0.8c-4-0.6-11.9-1.3-16.1-1.6
		c-1.2,0-2.5-0.1-3.2-0.2c0,0,0-6.6-0.1-6.7c1,0.1,2.9-0.1,6.5-0.1c7.5,0,21.2,1.1,37.9,1.2c10.5,0,27.5-0.5,39.7-0.7
		c17.4,0,30.5-0.2,47.3-0.3c27.4-0.2,50.8-0.4,60-0.4c2.7,0,4.1,0,4.1,0c0,0.5,0,1.1,0,1.8c0,2.1-0.1,5.9-0.1,10.4
		C871.7,319.3,872.1,341.7,872.1,349L872.1,349z"/>
</g>
</svg>
