<?xml version="1.0" encoding="utf-8"?>
<!-- Generator: Adobe Illustrator 18.1.0, SVG Export Plug-In . SVG Version: 6.00 Build 0)  -->
<!DOCTYPE svg PUBLIC "-//W3C//DTD SVG 1.1//EN" "http://www.w3.org/Graphics/SVG/1.1/DTD/svg11.dtd">
<svg version="1.1" id="Layer_1" xmlns="http://www.w3.org/2000/svg" xmlns:xlink="http://www.w3.org/1999/xlink" x="0px" y="0px"
	 viewBox="0 0 870.6 870.5" enable-background="new 0 0 870.6 870.5" xml:space="preserve">
<g>
	<path fill="#010101" stroke="#010101" stroke-width="0.5" stroke-miterlimit="2.6131" d="M270.5,444.2h125.7
		c22.2,0,40.3,18.2,40.3,40.3c0-22.2,18.1-40.3,40.3-40.3h125.7c20.6,0,37.6,15.6,40,35.5c2.4-19.9,19.5-35.5,40-35.5h25.1v132.1
		h-40.3h-24.6h-0.6h-62.7c10.9-9.4,17.7-23,17.7-38.1c0-28.4-24.2-51.5-54.1-51.5c-29.9,0-54.1,23.1-54.1,51.5
		c0,17.7,9.4,33.3,23.7,42.6c-14.3,8.7-23.7,23.3-23.7,39.8c0,26.6,24.2,48.1,54.1,48.1h27.2v42h-93.5c-22.2,0-40.3-18.2-40.3-40.3
		c0,22.2-18.2,40.3-40.3,40.3h-93.5v-42h27.2c29.9,0,54.1-21.5,54.1-48.1c0-16.5-9.4-31.1-23.7-39.8c14.3-9.3,23.7-24.9,23.7-42.6
		c0-28.4-24.2-51.5-54.1-51.5c-29.9,0-54.1,23.1-54.1,51.5c0,15.1,6.8,28.6,17.7,38.1h-62.7h-0.6h-24.6h-40.3V444.2h25.1
		c20.6,0,37.6,15.6,40,35.5C232.9,459.8,250,444.2,270.5,444.2L270.5,444.2z"/>
	<path fill="#010101" stroke="#010101" stroke-width="0.5" stroke-miterlimit="2.6131" d="M270.5,429.6h125.7
		c22.2,0,40.3-18.2,40.3-40.3c0,22.2,18.1,40.3,40.3,40.3h125.7c20.6,0,37.6-15.6,40-35.5c2.4,19.9,19.5,35.5,40,35.5h25.1V297.4
		h-40.3h-24.6h-0.6h-62.7c10.9,9.4,17.7,23,17.7,38.1c0,28.4-24.2,51.5-54.1,51.5c-29.9,0-54.1-23.1-54.1-51.5
		c0-17.7,9.4-33.3,23.7-42.6c-14.3-8.7-23.7-23.2-23.7-39.8c0-26.6,24.2-48.1,54.1-48.1h27.2v-42h-93.5c-22.2,0-40.3,18.2-40.3,40.3
		c0-22.2-18.2-40.3-40.3-40.3h-93.5v42h27.2c29.9,0,54.1,21.5,54.1,48.1c0,16.5-9.4,31.1-23.7,39.8c14.3,9.3,23.7,24.9,23.7,42.6
		c0,28.4-24.2,51.5-54.1,51.5c-29.9,0-54.1-23.1-54.1-51.5c0-15.1,6.8-28.6,17.7-38.1h-62.7h-0.6h-24.6h-40.3v132.1h25.1
		c20.6,0,37.6-15.6,40-35.5C232.9,414,250,429.6,270.5,429.6L270.5,429.6z"/>
	<g>
		<path fill="#010101" stroke="#BDBEC0" stroke-width="0.5" stroke-miterlimit="2.6131" d="M436.6,0C195.5,0,0,195.5,0,436.6
			c0,241.1,195.5,436.6,436.6,436.6c241.1,0,436.6-195.5,436.6-436.6C873.2,195.5,677.6,0,436.6,0z M436.6,814.9
			c-208.9,0-378.3-169.4-378.3-378.3c0-208.9,169.4-378.3,378.3-378.3c208.9,0,378.3,169.4,378.3,378.3
			C814.9,645.5,645.5,814.9,436.6,814.9z"/>
	</g>
</g>
</svg>
