<?xml version="1.0" encoding="utf-8"?>
<!-- Generator: Adobe Illustrator 18.1.0, SVG Export Plug-In . SVG Version: 6.00 Build 0)  -->
<!DOCTYPE svg PUBLIC "-//W3C//DTD SVG 1.1//EN" "http://www.w3.org/Graphics/SVG/1.1/DTD/svg11.dtd">
<svg version="1.1" id="Layer_1" xmlns="http://www.w3.org/2000/svg" xmlns:xlink="http://www.w3.org/1999/xlink" x="0px" y="0px"
	 viewBox="0 0 870.6 870.5" enable-background="new 0 0 870.6 870.5" xml:space="preserve">
<g>
	<polygon fill="#FFFFFF" points="751.7,705.3 866.5,165.2 114.8,165.2 0,705.3 	"/>
	<path fill="#164E9E" d="M130.4,187.6c0,0,418,85.9,426.2,87.3c96,16.9,93.1,35.5,93.1,35.5c67.2-0.4,75.5,2.4,87.3,12.2
		c35.4,29.6-22.1,116.6-22.1,116.6c-8.2,6.2-629.9,246.3-629.9,246.3h650.5l106.4-500.2l-710.9,0.1L130.4,187.6L130.4,187.6z"/>
	<path fill="#164E9E" d="M617.1,349.6c-9.4,4.7-34.1,7.2-45.6,8.2c-11.2,0.9-14.1,2-14.3,6.3c-0.2,3.8,1.6,6,17.5,6
		c36.5,0,102.3-13.8,122.1-7.5c10.4,3.3,2,22-6.5,46.5c-3.3,9.5,3.2,8.8,7,4.6c3.8-4.1,20.8-35.3,22.7-51.3
		c2.6-22.6-16.7-26-43.5-26H634c-2.2,0-4.1,1.5-6.7,5C625,344.6,623.1,346.5,617.1,349.6L617.1,349.6z"/>
	<path fill="#164E9E" d="M106.3,300.9L24.7,685.5c0,0,250.1-122.8,280.7-138.5C368,514.9,454.7,472.3,534.8,445
		c15.3-5.2,80.7-25.3,118.7-32.1c14.8-2.7,21-5.1,20.8-7.9c-0.5-7.9-15.3-8.4-40.5-7.2c-76.7,3.6-223.6,62.1-265.9,84.4l-47.7-147.9
		h305c13.6-38.4-180.5-33.1-186.6-33.4L106.3,300.9L106.3,300.9L106.3,300.9z"/>
</g>
</svg>
