<?xml version="1.0" encoding="utf-8"?>
<!-- Generator: Adobe Illustrator 18.1.0, SVG Export Plug-In . SVG Version: 6.00 Build 0)  -->
<!DOCTYPE svg PUBLIC "-//W3C//DTD SVG 1.1//EN" "http://www.w3.org/Graphics/SVG/1.1/DTD/svg11.dtd">
<svg version="1.1" id="Layer_1" xmlns="http://www.w3.org/2000/svg" xmlns:xlink="http://www.w3.org/1999/xlink" x="0px" y="0px"
	 viewBox="0 0 870.6 870.5" enable-background="new 0 0 870.6 870.5" xml:space="preserve">
<g>
	<path fill="#E11F26" d="M850.6,292.7c-6,14,5.7,36.2-11.3,40.5l-526.7-1.7l-55.9,1.1l-7.9,11.9l-65.9,246.2l-9.1,4.1l-89-1.5
		l-8.4-17.1C51.7,475.8,23.8,377.1,0,276.9c22.8-3,49.4-4.6,72.5,0.2c24.1,73.3,35.1,151.4,56.1,227.3l2.7,2.2l6.5-7.2l56.7-219
		l6.3-5.2l598.2,1C816.3,281.3,852.1,264,850.6,292.7"/>
	<path fill="#E11F26" d="M850.9,393.4c1.5,15.3-14.9,29.3-27,38.2c-22.5-8.8-50.2-26.9-77.8-13.8c-8.6,5.7-14.7,15.9-8.4,24.4
		c38.2,25.2,106.5,11.5,120.8,62.6c7.1,22,1.4,50.2-18.4,65.7c-31.9,26.2-78.1,31.7-122.6,20.4c-19.6-7.7-41.4-12.8-58.3-26.6
		c6.5-15.6,18-29,30.2-40.7c24.9,5.4,46.5,23.2,77.2,20c10.1-0.1,22.9-6.3,27.9-15.9c3.6-38.1-51.6-23.4-77-34.2
		c-25.8-5.4-46.3-24.9-51.3-46.6c-5-22.8,2.2-44.6,21.9-59.2C734.4,359.9,807,364.3,850.9,393.4"/>
	<path fill="#E11F26" d="M647.8,375.4c1.8,70.5,1.5,143.8-0.6,213.9c-23.1,5.9-49.1,0.8-73.5,0.8c-19.7-32.4-31.8-63.4-54.5-96
		c-2.9-1.2-4.2,2.6-6.2,3.3l-1.9,90.6c-15.4,8.3-37.2,0.8-55.1,4.1l-3.9-11.9c0.7-66.4-1.9-139,3.5-204c20-4.1,42.5-4.2,64.9-3.4
		l6.5,4.4l50.2,88.9l7-1.3c-1.7-26.2,4.1-59.4,2.6-88.5C604.3,368.9,629.4,372.9,647.8,375.4"/>
	<path fill="#E11F26" d="M341.3,490.9c-1.5-17.5-8.9-34.4-16.3-49.5c-10,13.6-9.7,32.9-14.1,49C319.2,497.8,332.2,494.1,341.3,490.9
		 M394.5,428.8l40.3,160.5c-17.2,6.2-39.4,1.5-58.9,1.8c-9.7-13.3-3.6-38.8-25.8-41.6c-20.7,1.2-47.5-6.7-61.5,9.4l-9.6,32.9
		c-18.8,2.4-41.4,2.5-58.6-1.9c18.9-72.7,40.6-144.1,63.3-215.5c28-5.4,64-3.4,93,0L394.5,428.8z"/>
</g>
</svg>
