<?xml version="1.0" encoding="utf-8"?>
<!-- Generator: Adobe Illustrator 18.1.0, SVG Export Plug-In . SVG Version: 6.00 Build 0)  -->
<!DOCTYPE svg PUBLIC "-//W3C//DTD SVG 1.1//EN" "http://www.w3.org/Graphics/SVG/1.1/DTD/svg11.dtd">
<svg version="1.1" id="Layer_1" xmlns="http://www.w3.org/2000/svg" xmlns:xlink="http://www.w3.org/1999/xlink" x="0px" y="0px"
	 viewBox="0 0 870.6 870.5" enable-background="new 0 0 870.6 870.5" xml:space="preserve">
<polygon fill-rule="evenodd" clip-rule="evenodd" fill="#007BB3" points="869.1,707.2 869.1,163.3 0,163.3 0,707.2 869.1,707.2 "/>
<polygon fill-rule="evenodd" clip-rule="evenodd" fill="#FFFFFF" points="10.1,697 10.1,173.5 859,173.5 859,697 10.1,697 "/>
<polygon fill-rule="evenodd" clip-rule="evenodd" fill="#007BB3" points="832,312.3 832,198.7 35.4,198.7 35.4,312.3 832,312.3 "/>
<polygon fill-rule="evenodd" clip-rule="evenodd" fill="#F1C14B" points="832,671 832,557.5 35.4,557.5 35.4,671 832,671 "/>
<polygon fill-rule="evenodd" clip-rule="evenodd" fill="#007BB3" points="308.1,525 362.5,345.4 411.1,345.4 356.7,525 308.1,525 
	"/>
<path fill-rule="evenodd" clip-rule="evenodd" fill="#007BB3" d="M286.4,345.5l-43.7,76.1c-11.1,20-17.6,30-20.7,42.6h-0.7
	c0.8-16-1.5-35.5-1.6-46.7l-4.8-72H133l-0.8,4.8c21,0,33.5,10.6,36.9,32.1L185,525h50.3l101.8-179.5H286.4L286.4,345.5z"/>
<path fill-rule="evenodd" clip-rule="evenodd" fill="#007BB3" d="M664.2,525l-1.3-26.7l-60.6,0L589.7,525H537l95.6-179.2h64.7
	L713.6,525H664.2L664.2,525z M658.6,419c-0.5-13.3-1-31.3-0.1-42.2h-0.7c-2.9,8.9-15.6,35.7-21.3,48.9l-18.1,39.4h42.6L658.6,419
	L658.6,419z"/>
<path fill-rule="evenodd" clip-rule="evenodd" fill="#007BB3" d="M462.1,530c-34.3,0-57.1-10.9-73.3-20.6l23.1-35.4
	c14.6,8.2,26,17.6,52.4,17.6c8.4,0,16.6-2.2,21.3-10.3c6.8-11.7-1.6-18-20.5-28.7l-9.4-6.1c-28.1-19.2-40.3-37.5-27.1-69.4
	c8.5-20.4,30.8-35.8,67.7-35.8c25.4,0,49.3,11,63.2,21.8l-26.6,31.2c-13.6-11-24.8-16.5-37.7-16.5c-10.2,0-18.1,4-20.7,9.3
	c-5.1,10,1.6,16.9,16.4,26l11.2,7.1c34.2,21.5,42.3,44.1,33.7,65.2C521.1,521.9,492.3,530,462.1,530L462.1,530z"/>
</svg>
