<?xml version="1.0" encoding="utf-8"?>
<!-- Generator: Adobe Illustrator 18.1.0, SVG Export Plug-In . SVG Version: 6.00 Build 0)  -->
<!DOCTYPE svg PUBLIC "-//W3C//DTD SVG 1.1//EN" "http://www.w3.org/Graphics/SVG/1.1/DTD/svg11.dtd">
<svg version="1.1" id="Layer_1" xmlns="http://www.w3.org/2000/svg" xmlns:xlink="http://www.w3.org/1999/xlink" x="0px" y="0px"
	 viewBox="0 0 870.6 870.5" enable-background="new 0 0 870.6 870.5" xml:space="preserve">
<path fill-rule="evenodd" clip-rule="evenodd" fill="#FFFFFF" d="M4.3,434.6C4.3,197,197,4.3,434.6,4.3
	c237.6,0,430.3,192.6,430.3,430.3c0,237.6-192.6,430.3-430.3,430.3C197,864.9,4.3,672.2,4.3,434.6L4.3,434.6z"/>
<g>
	<defs>
		<path id="SVGID_1_" d="M0,434.6C0,194.6,194.6,0,434.6,0c240,0,434.6,194.6,434.6,434.6c0,240-194.6,434.6-434.6,434.6
			C194.6,869.2,0,674.6,0,434.6L0,434.6z"/>
	</defs>
	<clipPath id="SVGID_2_">
		<use xlink:href="#SVGID_1_"  overflow="visible"/>
	</clipPath>
	<g clip-path="url(#SVGID_2_)">
		<defs>
			<rect id="SVGID_3_" width="869.2" height="869.2"/>
		</defs>
		<clipPath id="SVGID_4_">
			<use xlink:href="#SVGID_3_"  overflow="visible"/>
		</clipPath>
		<g clip-path="url(#SVGID_4_)">
			
				<image overflow="visible" width="104" height="103" xlink:href="809B2F075A5A96E8.png"  transform="matrix(8.8282 0 0 -8.8282 -20.4857 893.1932)">
			</image>
		</g>
	</g>
	<g clip-path="url(#SVGID_2_)">
		<defs>
			<rect id="SVGID_5_" width="869.2" height="869.2"/>
		</defs>
		<clipPath id="SVGID_6_">
			<use xlink:href="#SVGID_5_"  overflow="visible"/>
		</clipPath>
		<g clip-path="url(#SVGID_6_)">
			
				<image overflow="visible" width="104" height="103" xlink:href="809B2F075A5A96E9.png"  transform="matrix(8.8282 0 0 -8.8282 -20.4857 893.1932)">
			</image>
		</g>
	</g>
</g>
<path fill-rule="evenodd" clip-rule="evenodd" fill="#33346E" d="M440.7,137.8c27.4,0,53.9,3.7,79.1,10.5l-84,187.9l-82.4-185.5
	C381.8,141.8,409.5,137.8,440.7,137.8L440.7,137.8z M387.9,443.7l-57.5,127.8L194.1,265.3c23-32.6,52.3-60.4,86.1-81.7l110.4,248.8
	h99.1l110.9-248.8c27.2,17,51.6,38.2,72.1,62.7c2.9,3.6,5.7,7.3,8.4,11L540.9,571.5l-57.1-127.8H387.9L387.9,443.7z M299.8,708.8
	c-96.2-50.8-162-151.9-162-268.1c0-28,3.4-54.3,10.5-80l156,350.4C302.5,710.2,301.6,709.7,299.8,708.8L299.8,708.8z M435.4,740.8
	c-26.6,0-53-3.4-78.4-10.2l82.7-187l82.8,184.8C494.7,736.5,464.6,740.8,435.4,740.8L435.4,740.8z M578.8,704.8L730.6,364
	c5.8,23.7,8.8,48.1,8.8,72.8C739.4,549.2,677,652.2,578.8,704.8L578.8,704.8z M440.4,815.9c206.8,0,375.1-168.3,375.1-375.1
	c0-206.8-168.3-375.1-375.1-375.1C233.6,65.7,65.3,234,65.3,440.8C65.3,647.6,233.6,815.9,440.4,815.9L440.4,815.9z"/>
<path fill-rule="evenodd" clip-rule="evenodd" fill="#FFFFFF" d="M127.6,434.6c0,124.6,74.2,231.8,180.8,280L142.1,341.1
	C132.7,370.6,127.6,402,127.6,434.6L127.6,434.6z M185.2,255.5l144.3,324.1l59.8-134.2h90.6l59.9,134.1l144.3-324
	c-24.4-34-55.6-62.7-91.6-84.3L479.9,423.8h-90.6L276.8,171.2C240.8,192.8,209.6,221.6,185.2,255.5L185.2,255.5z M727.1,341.1
	L560.8,714.6c106.6-48.1,180.8-155.4,180.8-280C741.7,402,736.6,370.6,727.1,341.1L727.1,341.1z M524.8,728.2l-90.1-202.4
	l-90.1,202.5c28.5,8.7,58.7,13.4,90.1,13.4C466,741.7,496.3,737,524.8,728.2L524.8,728.2z M344.5,141l90.1,202.5L524.8,141
	c-28.5-8.7-58.8-13.5-90.2-13.5C403.3,127.6,373,132.3,344.5,141L344.5,141z M63.8,434.6c0-204.8,166-370.8,370.8-370.8
	c204.8,0,370.8,166,370.8,370.8c0,204.8-166,370.8-370.8,370.8C229.8,805.4,63.8,639.4,63.8,434.6L63.8,434.6z"/>
</svg>
