<?xml version="1.0" encoding="utf-8"?>
<!-- Generator: Adobe Illustrator 18.1.0, SVG Export Plug-In . SVG Version: 6.00 Build 0)  -->
<!DOCTYPE svg PUBLIC "-//W3C//DTD SVG 1.1//EN" "http://www.w3.org/Graphics/SVG/1.1/DTD/svg11.dtd">
<svg version="1.1" id="Layer_1" xmlns="http://www.w3.org/2000/svg" xmlns:xlink="http://www.w3.org/1999/xlink" x="0px" y="0px"
	 viewBox="0 0 870.6 870.5" enable-background="new 0 0 870.6 870.5" xml:space="preserve">
<g>
	<linearGradient id="SVGID_1_" gradientUnits="userSpaceOnUse" x1="200.5491" y1="816.3173" x2="200.5491" y2="468.2656">
		<stop  offset="0" style="stop-color:#A41E22"/>
		<stop  offset="0.2281" style="stop-color:#9C1C1F"/>
		<stop  offset="0.6491" style="stop-color:#861316"/>
		<stop  offset="1" style="stop-color:#72090A"/>
	</linearGradient>
	<polygon fill="url(#SVGID_1_)" points="338.7,878.3 62.4,593 62.4,71.2 338.7,290.7 	"/>
	<path fill="#E31837" d="M768.8,0H62.4v593.3h706.4c21.7,0,39.4-17.7,39.4-39.4V39.4C808.2,17.8,790.5,0,768.8,0z"/>
</g>
<path fill="#FFFFFF" d="M404.5,483.7C527.8,506.5,618.1,387,676,283.6c23.2-41.5,58.3-149.9,18.9-190.9
	c-36-39.6-63.9,12.4-85.2,29.8l16.4,19.5c32.9,41.6,4.3,120.7-15.2,162.9c-29.4,52-84.7,130.7-149.3,119.7
	c-14-3.2-25.6-16.9-30.5-31.2c34.8-34.5,76-95,99.2-135.3c19.5-32.8,53.1-96.1,22.1-122.2c-25.7-17.9-77.4,7.9-105,31.1
	c-16.8,15.2-28.2,27.6-41.3,45.3c-35.5,48.3-69.5,131-65.9,194.7c-17.1,12.4-36.6,24.7-59.8,17.6c-23-5.1-27.1-24.7-30.4-40
	c-14.6-92.3,77.8-208.8,129.7-275.8c0,0-41,11.1-70.8,12.4c-68.7,3-119.7-29-156.8,16.9c-11.2,16.3-17.6,33.5-19.8,53.8
	c15.2-13,37.8-9.9,59.4-8.6c37.2,3.3,55.6,7.7,89.2-1.3c-29.9,42.1-79.8,125.4-89,177.4c-4.8,34.5-4.4,88.8,25,113.2
	c48.8,32.5,97.3,9.8,140.7-20.2C370.3,467.4,386.2,480.4,404.5,483.7z M487.4,195.4c13-6.3,9.1,13,9.1,13
	c-1.8,21.9-17.7,47.9-29,67.9c-11.7,20.5-52.4,68.7-70.1,79.1c0.8-29.2,32-92.9,48-117.3C453.5,223.8,474.4,201.7,487.4,195.4z"/>
</svg>
