<?xml version="1.0" encoding="utf-8"?>
<!-- Generator: Adobe Illustrator 18.1.0, SVG Export Plug-In . SVG Version: 6.00 Build 0)  -->
<!DOCTYPE svg PUBLIC "-//W3C//DTD SVG 1.1//EN" "http://www.w3.org/Graphics/SVG/1.1/DTD/svg11.dtd">
<svg version="1.1" id="Layer_1" xmlns="http://www.w3.org/2000/svg" xmlns:xlink="http://www.w3.org/1999/xlink" x="0px" y="0px"
	 viewBox="0 0 870.6 870.5" enable-background="new 0 0 870.6 870.5" xml:space="preserve">
<g>
	<g>
		<g>
			<g>
				<path fill="#FFB819" d="M776.2,403.5c4.9,0,9-2.6,9.5-5.9l4.9-54.9c0-5.4-6.4-9.9-14.4-9.9c-8,0-14.3,4.5-14.3,9.9l4.9,54.9
					C767.2,400.9,771.3,403.5,776.2,403.5L776.2,403.5z"/>
				<path fill="#FFB819" d="M746.5,420.7c2.5-4.3,2.3-9-0.3-11.2L701,377.8c-4.7-2.7-11.7,0.6-15.7,7.5c-4,6.9-3.3,14.7,1.4,17.4
					l50,23.3C739.8,427.1,744,424.9,746.5,420.7L746.5,420.7z"/>
				<path fill="#FFB819" d="M805.9,420.6c2.5,4.3,6.7,6.5,9.8,5.3l50-23.3c4.7-2.7,5.4-10.4,1.4-17.4c-4-6.9-11.1-10.2-15.8-7.5
					l-45.2,31.7C803.6,411.6,803.4,416.4,805.9,420.6L805.9,420.6z"/>
			</g>
			<g>
				<path fill="#FFB819" d="M776.2,472.1c4.9,0,9,2.5,9.5,5.8l4.9,54.9c0,5.4-6.4,9.9-14.4,9.9c-8,0-14.3-4.5-14.3-9.9l4.9-54.9
					C767.2,474.7,771.3,472.1,776.2,472.1L776.2,472.1z"/>
				<path fill="#FFB819" d="M805.9,455c2.5-4.3,6.7-6.5,9.8-5.3l50,23.3c4.7,2.7,5.4,10.5,1.4,17.4c-4,6.9-11.1,10.2-15.8,7.5
					l-45.2-31.7C803.6,464,803.4,459.2,805.9,455L805.9,455z"/>
				<path fill="#FFB819" d="M746.5,455c2.5,4.3,2.3,9-0.3,11.2L701,497.8c-4.7,2.7-11.7-0.6-15.7-7.5c-4-6.9-3.3-14.7,1.4-17.4
					l50-23.3C739.8,448.5,744,450.7,746.5,455L746.5,455z"/>
			</g>
		</g>
	</g>
	<g>
		<path fill="#0071CE" d="M516,444.1c0-20.8-8.9-39-38.8-39c-15.4,0-27.6,4.3-34.2,8.2l4.9,16.7c6.1-3.8,15.8-7,25-7
			c15.2,0,17.7,8.6,17.7,14.1v1.3c-33.1,0-54.1,11.4-54.1,34.8c0,14.3,10.7,27.6,29.2,27.6c11.4,0,20.9-4.5,26.6-11.8h0.6
			c0,0,3.8,15.8,24.6,9.8c-1.1-6.6-1.4-13.6-1.4-22.1V444.1z M491.3,466c0,1.7-0.1,3.4-0.6,5c-1.9,6.3-8.5,11.7-16.7,11.7
			c-6.9,0-12.3-3.9-12.3-12.1c0-12.6,13.8-16.1,29.6-16V466z"/>
		<path fill="#0071CE" d="M0,376.9c0,0,21.6,88.7,25.1,103.1c4,16.8,11.3,23,32.2,18.8l13.5-55c3.4-13.7,5.7-23.4,7.9-37.3h0.4
			c1.5,14,3.8,23.7,6.6,37.3c0,0,5.5,25,8.3,38.1c2.8,13.1,10.7,21.4,31.2,16.9l32.2-121.9h-26l-11,52.7c-3,15.3-5.6,27.3-7.7,41.4
			h-0.4c-1.9-13.9-4.3-25.4-7.3-40.3l-11.4-53.7H66.6l-12.2,52.4c-3.5,15.9-6.7,28.8-8.8,42.3h-0.4c-2.1-12.8-4.9-28.9-8-44.3
			c0,0-7.3-37.4-9.8-50.4H0z"/>
		<path fill="#0071CE" d="M231.3,444.1c0-20.8-8.9-39-38.8-39c-15.4,0-27.6,4.3-34.2,8.2l4.9,16.7c6.1-3.8,15.8-7,25-7
			c15.2,0,17.7,8.6,17.7,14.1v1.3c-33.1,0-54.1,11.4-54.1,34.8c0,14.3,10.7,27.6,29.2,27.6c11.4,0,20.9-4.5,26.7-11.8h0.6
			c0,0,3.8,15.8,24.6,9.8c-1.1-6.6-1.4-13.6-1.4-22.1V444.1z M206.6,466c0,1.7-0.1,3.4-0.6,5c-1.9,6.3-8.5,11.7-16.7,11.7
			c-6.8,0-12.3-3.9-12.3-12.1c0-12.6,13.8-16.1,29.6-16V466z"/>
		<polygon fill="#0071CE" points="272.6,472.9 272.6,376.9 247.8,376.9 247.8,498.7 272.6,498.7 		"/>
		<path fill="#0071CE" d="M596.4,376.9c0,11.7,0,89.9,0,89.9c0,12.4,2.3,21.1,7.3,26.4c4.4,4.6,11.5,7.6,20.2,7.6
			c7.3,0,14.5-1.4,17.9-2.7l-0.3-19.3c-2.5,0.6-5.4,1.1-9.4,1.1c-8.4,0-11.3-5.4-11.3-16.5V429h21.6v-23.3h-21.6v-28.8H596.4z"/>
		<path fill="#0071CE" d="M532.5,407.2v91.6H558v-46.9c0-2.5,0.2-4.7,0.6-6.8c1.9-9.8,9.4-16.1,20.2-16.1c3,0,5.1,0.3,7.4,0.7v-24
			c-1.9-0.4-3.2-0.6-5.6-0.6c-9.5,0-20.4,6.2-24.9,19.3h-0.7v-17.3H532.5z"/>
		<path fill="#0071CE" d="M289.9,407.2v91.6h24.9v-53.7c0-2.5,0.3-5.2,1.2-7.5c2.1-5.4,7.1-11.7,15.1-11.7c10,0,14.7,8.5,14.7,20.7
			v52.2h24.9v-54.3c0-2.4,0.3-5.3,1-7.4c2-6.1,7.5-11.2,14.9-11.2c10.2,0,15.1,8.3,15.1,22.8c0,0,0,38.7,0,50.2h24.9v-53.9
			c0-28.4-14.4-39.7-30.7-39.7c-7.2,0-12.9,1.8-18.1,5c-4.3,2.7-8.2,6.4-11.6,11.4h-0.4c-3.9-9.9-13.2-16.4-25.2-16.4
			c-15.5,0-22.4,7.8-26.7,14.5h-0.4v-12.4H289.9z"/>
	</g>
</g>
</svg>
