<?xml version="1.0" encoding="utf-8"?>
<!-- Generator: Adobe Illustrator 18.1.0, SVG Export Plug-In . SVG Version: 6.00 Build 0)  -->
<!DOCTYPE svg PUBLIC "-//W3C//DTD SVG 1.1//EN" "http://www.w3.org/Graphics/SVG/1.1/DTD/svg11.dtd">
<svg version="1.1" id="Layer_1" xmlns="http://www.w3.org/2000/svg" xmlns:xlink="http://www.w3.org/1999/xlink" x="0px" y="0px"
	 viewBox="0 0 870.6 870.5" enable-background="new 0 0 870.6 870.5" xml:space="preserve">
<g>
	<path fill="#010101" d="M524.2,228.5c-0.2,0.3-0.5,0.6-0.8,0.8c35.2,7.5,69.1,21.5,99.6,41.2c30.5,19.7,57.6,45.1,79.5,74.6
		c22,29.5,38.9,63.1,49.5,98.7c10.6,35.6,15.1,73.2,13.2,110.3l0,0h4.7l0,0c2.6-38-1.5-76.4-12.1-112.8s-27.6-70.8-50.1-100.9
		c-22.5-30.1-50.2-56-81.5-75.7C594.9,244.8,560,231,524,224C525.1,225.3,525.3,226.8,524.2,228.5L524.2,228.5z"/>
	<path fill="#010101" d="M138.8,453.3c2.5-7.3,4-11.4,6.1-17c2.2-5.6,4.7-10.9,8.9-20.6s10.2-23.4,17.3-36.6s15.1-25.8,23.9-38
		c8.7-12.1,18.2-23.8,34.5-38.9s39.5-33.8,64.8-48.5s52.9-25.3,81.3-31.9c28.4-6.6,57.8-8.9,86.9-7.2l0,0l-2.5,5.1l0,0
		c-28.4-1.2-57.1,1.7-84.8,8.4c-27.7,6.8-54.6,17.6-79.2,32.1c-24.7,14.5-47.2,32.9-63.1,47.7s-25.1,26.2-33.7,38.1
		c-8.5,11.8-16.5,24.2-23.5,37.1c-7,12.8-13,26.2-17,35.9c-4.1,9.5-6.1,15.4-8,21.2c-3.8,11.8-6.9,23.7-9.1,35.6l-7.8-5.7
		C133.7,470.2,136.3,460.6,138.8,453.3z"/>
	<path fill="#010101" d="M131.1,497.7c-1.5,17.7-0.5,37.8-0.4,55.5l0,0h3.7l0,0c0.4-15.2-0.1-32.4,0.9-47.5L131.1,497.7z"/>
	<path fill="#010101" d="M136.5,507.7"/>
</g>
<g>
	<polygon fill="#010101" points="554.4,322 548.6,338.7 561,338.7 	"/>
	<polygon fill="#010101" points="263.8,448.9 250.8,419.1 239.8,419.1 224.2,448.9 	"/>
	<polygon fill="#010101" points="241.3,412.5 248.9,412.6 245.7,403.7 	"/>
	<polygon fill="#010101" points="289.5,418.5 283.8,449.7 661.1,449.8 650.4,418.6 639.3,418.6 632.3,427 624.5,418.6 	"/>
	<polygon fill="#010101" points="345,381.4 326,343.1 312.2,343.1 290.1,381.3 	"/>
	<polygon fill="#010101" points="649.3,413.9 645,401.8 640.4,413.9 	"/>
	<polygon fill="#010101" points="524.4,338.7 524.4,302.2 515.5,302.2 515.5,290.5 467.5,290.5 467.5,302.3 459.5,302.3 
		456.8,310.8 449.7,298.6 436.6,328.6 429.6,328.6 431.6,320.6 419.1,290.3 412.3,290.4 398.6,320.8 400.2,328.6 394.9,328.6 
		398.4,338.7 	"/>
	<polygon fill="#010101" points="415.7,279.2 413.3,285.3 418.1,285.3 	"/>
	<polygon fill="#010101" points="515.5,286.5 515.5,268.3 521.8,253.9 515.5,247 515.5,230.7 467.9,230.7 467.9,247 461.8,253.9 
		467.5,268.2 467.5,286.5 	"/>
	<polygon fill="#010101" points="314,340.1 325,340.1 319.7,329 	"/>
	<polygon fill="#010101" points="245,391.6 245,381.6 223.8,387.4 	"/>
	<polygon fill="#010101" points="319.9,316.1 319.8,306 298.7,311.9 	"/>
	<polygon fill="#010101" points="415.1,266.2 415.1,256.1 393.9,262 	"/>
	<polygon fill="#010101" points="554.2,311.1 554.2,301.1 532.9,306.9 	"/>
	<polygon fill="#010101" points="605,343.9 605,333.9 583.8,339.7 	"/>
	<path fill="#010101" d="M291.5,404.5c-0.1,3.2-0.5,6.4-1.1,9.4c96.3,0,192.5-0.1,288.9-0.1c-2.1-2.8-4-5.7-5.6-8.6
		c-3.4-6.3-5.7-12.8-7.1-19.5l0,0h-22l-2.5,3.5l-4.1-3.5H366.6l-6.7,17h-13.6l7.3-17.1h-64.3l0,0C291,391.8,291.7,398.2,291.5,404.5
		L291.5,404.5z"/>
	<polygon fill="#010101" points="605.1,356.4 595.6,381.1 613,381.1 	"/>
	<polygon fill="#010101" points="614.2,385.8 593.9,385.8 584.7,413.9 623.3,413.9 	"/>
	<path fill="#010101" d="M678.3,554l-6.8-25.9h-67.1l0,0c-1.8,3.7-4,7.2-6.4,10.3c-2.5,3.2-5.3,6.2-8.3,8.7
		c-3.1,2.6-6.4,4.9-9.8,6.9l0,0H678.3L678.3,554z"/>
	<path fill="#010101" d="M492.1,162l-30,62.5l0,0c-0.4,0.9-0.6,1.9,0.5,3c0.4,0.4,1,0.5,1.5,0.5c18.4,0,36.8,0,55.2,0
		c0.7,0,1.2,0,2.1-1.2c0.4-0.7,0.5-1.6,0-2.4l0,0L492.1,162L492.1,162z"/>
	<polygon fill="#010101" points="492.1,141.8 470.9,147.7 492.1,151.9 	"/>
	<polygon fill="#010101" points="389.1,381.3 378.8,347.5 367.8,381.3 	"/>
	<path fill="#010101" d="M544.6,381.1H567v-11.7l4.6-5.7l-9.3-20.3H547l-7.2,20.3l4.8,5.7l0,0C544.6,373.2,544.7,377.2,544.6,381.1
		L544.6,381.1z"/>
	<path fill="#010101" d="M400.1,381.4h136.2l0,0c-2-4-3.9-8-5.5-12.1c-3.2-8.4-5.4-17.2-6.5-25.8l0,0h-124l0,0
		C403.7,355.6,403.8,368.6,400.1,381.4L400.1,381.4z"/>
	<path fill="#010101" d="M212.6,550.6c0.7,0.7,1.4,1.5,1.8,2.4l0,0l170.1,0.1l-0.1-25.8L213,527.3l-5.9,21.3l0,0c1,0,2,0.1,2.9,0.5
		C211,549.4,211.9,549.9,212.6,550.6L212.6,550.6z"/>
	<path fill="#010101" d="M300.9,491.5c-29.4,0-58.9,0-88.4,0l0,0l0.1,25.4h171.8l0,0c0.8-4.5,2.1-8.9,3.9-13.3
		c-19.7-6.5-40.2-8.4-60.4-6.1c-0.2,1.8-0.7,3.5-1.6,5c-0.8,1.6-1.9,3-3.2,4.1c-4.1,3.5-9.2,4.5-14.3,2.3c-1.6-0.7-3-1.7-4.2-2.9
		c-2.6-2.6-4-6.1-4.2-9.3C300.3,494.9,300.5,493.2,300.9,491.5L300.9,491.5z"/>
	<path fill="#010101" d="M558.8,491.4L558.8,491.4l-67-0.1l0,0c2.1,2.5,4,5.2,5.8,8c3.7,5.8,6.6,11.7,8.7,17.8l0,0l13.9-0.1l0,0
		c3.3-4.2,7-8,11-11.2c4.1-3.4,8.4-6.3,13-8.6C549,494.7,553.8,492.7,558.8,491.4L558.8,491.4z"/>
	<path fill="#010101" d="M342.1,475.5c10.5-1.8,21.2-2.3,31.8-1.5c10.6,0.8,21.2,2.9,31.3,6.3c7.2-4.8,14.5-8.7,21.8-10.4
		c2.6-0.6,5.1-1.1,7.7-1.5c2.6-0.4,5.2-0.6,9.1-0.4c3.9,0.1,9.1,0.7,14.2,1.9c5.1,1.2,10,3.1,14.6,5.6c4.7,2.5,9,5.5,13,8.9l0,0
		h201.9l-24.2-28.1L220,455.6l-20.2,28.9l111.6,0.1l0,0C321.3,480.3,331.6,477.2,342.1,475.5L342.1,475.5z"/>
	<path fill="#010101" d="M671.5,491.3l-83.8,0.1l0,0c2.9,0.6,5.8,1.6,8.3,3.2c2.6,1.5,4.9,3.5,6.9,5.8c2,2.3,3.6,5,4.7,7.8
		c1.1,2.9,1.8,5.9,2,8.9l0,0l61.8,0.1L671.5,491.3L671.5,491.3z"/>
	<path fill="#010101" d="M517.8,528.1l-8.6-0.3l12.3,26.2l0,0C518.4,545.6,517.2,536.8,517.8,528.1L517.8,528.1L517.8,528.1
		L517.8,528.1z"/>
</g>
<g>
	<path fill="#010101" d="M535.8,636.7c0.1,1.2,0.4,2.3,0.8,3.4c0.5,1.1,1.1,2.1,1.8,3c2.7,3,6,3.9,9.2,3.4c1.8-0.4,3.7-1.1,5.6-2.5
		c2.2-1.7,2.9-3.7,3.1-5.7c0.3-5.5,0.5-10.9,0.5-16.4s-0.1-10.9-0.2-15.5c-0.1-4.6-0.3-8.3-0.5-12c-0.2-3.7-0.4-7.5-0.6-9.8
		c-0.2-2.4-0.3-3.5-0.4-4.5c-0.1-1.1-0.3-2.1-0.6-3.1c-0.2-1-0.5-2.1-0.8-2.9c-0.7-2.2-1.6-3.9-3.5-5.9c-1.8-1.9-4.1-2.4-6.4-1.6
		c-0.7,0.3-1.4,0.7-2,1.2c-1.4,1.2-1.8,3-2.3,4.6c-0.3,0.9-0.5,1.8-0.7,2.7c-0.2,0.9-0.3,1.9-0.5,3.3c-0.2,1.5-0.3,3.4-0.5,5.4
		c-0.1,2-0.2,4-0.3,6.3c-0.2,4.7-0.6,10.3-1.3,15.5C535,616,534.7,626.3,535.8,636.7L535.8,636.7z"/>
	<path fill="#010101" d="M696.4,589.8l2,8.6l0,0c0.9,4,1.8,8,1.3,8.6s-2.3-2-4.2-4.7c-1.3-1.6-2.6-3.3-5.5-7.1
		c-2.9-3.8-7.3-9.6-9.8-13c-2.6-3.5-3.5-4.5-4.4-5.6c-1.9-2.2-3.8-4-5.8-5.7c-2.3-1.7-5.1-2.2-7.9-0.8c-0.9,0.4-1.6,1-2.3,1.7
		c-0.7,0.7-1.2,1.5-1.6,2.4c-3.6,7.9-5.8,16-6.8,24.1l0,0l-2.6,15.4l0,0c-1.7,7.9-1.6,16.1,1.2,24.3c0.4,0.8,0.9,1.7,1.7,2.5
		c2.4,2.2,5.5,2.8,8.4,1.9c1-0.3,1.9-0.8,2.7-1.4c2.6-2,3.2-4.7,3.6-7.3c1.4-11,2.6-22.1,3.9-33.1c4.6,10,10.3,20.2,18.2,30.2
		c2.8,3.2,5.5,6.2,8.3,7.4c4.2,1.7,8.3,1,13-2.2c1-0.7,1.9-1.5,2.7-2.4c1.6-1.8,3-3.8,4.2-6c3.8-6.8,4.4-14.1,4.1-21.4
		c-0.2-4.9-0.8-9.7-1.9-14.5c-1-4.4-2.4-8.5-4-12.7c-1.7-4.1-3.6-8.1-5.9-11.9c-2.3-3.8-4.8-7.4-7.7-10.7c-2.5-2.8-5.1-4.1-7.9-3.9
		c-0.7,0.1-1.4,0.3-2,0.7c-2.3,1.5-2.8,3.5-2.7,5.5c0.3,2.6,0.8,5.2,1.4,7.8l0,0L696.4,589.8L696.4,589.8z"/>
	<path fill="#010101" d="M726,580.6c2.8,3.2,5.9,4.6,8.9,5.2l0,0l-4.4,10l0,0c-0.7,0.2-1.4,0.5-2.1,1c-3,2.4-3.6,5.3-2.7,8.3
		c0.3,0.7,0.6,1.4,1.1,2.1c-3,5.4-5.6,10.7-6.4,16.1c-0.7,4.3,1,8.8,2.7,13.2c0.7,1.8,1.6,3.5,2.5,5.2c0.7,1.3,1.6,2.5,2.7,3.6
		c1.1,1,2.3,1.9,3.6,2.6c5.7,2.5,12.2,2,18.7-0.3c4.7-1.9,9.3-4,13.9-6.3c4.6-2.3,8.9-4.8,11.5-6.3c2.5-1.5,3.1-1.9,3.5-2.5
		c2.3-2.9,2.1-6.2,0.3-9.7c-0.5-0.9-1.1-1.6-1.9-2.3c-3.7-3.3-8.1-2.4-12.2-1.9c-4.5,1-8.7,2.2-13.2,3.3c-4.6,1.7-9.1,3.4-10,1.6
		c-0.9-1.9,1.9-7.4,4.6-12.7c1.5,0.3,3,0.4,4.6,0.4c5,0,10,0.1,15,0c0.1,0,0.2,0,0.9-0.2c1.5-0.4,4.6-1.3,7-2.1c1.3-0.3,3-1.7,3.5-3
		c0.8-1.7,1-3.7,0.4-5.6c-0.3-0.9-0.7-1.8-1.3-2.6c-1.7-2.4-4.1-2.9-6.3-3.3c-5.4-0.5-10.7-0.6-16.1-0.9l0,0l0.5-5.7l0,0
		c4.3,0.3,8.6,0.2,12.9-0.3c6.2-0.7,12-2,17.8-3.2c1.3-0.3,2.6-0.8,3.8-1.9c2.3-2.2,2.8-4.4,1.6-7c-1.1-2-2.4-3.8-3.8-5.7
		c-1.5-1.7-3.2-3.1-5.1-4.3c-3.8-2.4-8.3-3.4-12.5-3.1c-11.6,0.6-23,0.7-34.9,4.4c-2.9,0.9-5.7,1.9-8.3,3.2
		c-1.3,0.7-2.1,1.6-2.5,2.6C723.5,574.9,723.7,577.7,726,580.6L726,580.6z"/>
	<path fill="#010101" d="M587.3,587.1c17.7-2.2,35.3-4.2,53-6.5c1.8-0.4,3.9-0.9,6.2-3c2.4-2.4,2.9-4.4,2.2-6.7
		c-0.3-1-1.3-2.3-2.8-3.7c-0.8-0.7-1.6-1.2-2.5-1.7c-0.9-0.5-1.8-0.8-3.1-1.1c-2.7-0.7-6.3-1.3-9.5-1.6c-1.7-0.1-3.3-0.3-6.5-0.3
		s-8,0.1-12.6,0.5c-9.2,0.8-18.5,2.8-27.7,6c-3,1.1-6,2.6-8.8,4.6c-1.4,1-2.7,2-3.8,3c-3.7,3.4-5.2,6.6-6.1,10
		c-0.3,1.7-0.4,3.6-0.1,5.3c0.3,1.7,0.9,3.4,1.9,4.9c0.9,1.5,2.1,2.8,3.5,3.9c2.7,2.1,6.1,2.7,9.1,3.3c6.2,1.2,12.4-0.2,18.7-0.2
		c5.7,0.1,11.5,0,17.3,1.2c2.6,0.5,5.2,1.3,7.6,2.3c2.5,1,4.9,2.2,7.1,3.6c1.6,1.2,1.9,2.7,1.3,4.4c-0.5,1.2-3.2,3.4-5.2,4.7
		c-0.8,0.5-1.7,1-2.5,1.4c-13.3,6.1-27.5,6.5-41.5,1.6c-0.4-0.2-0.8-0.4-1.3-1.3c-0.3-1-0.6-2.1,0.9-3.3c1.4-0.7,2.9-1,4.4-1.1
		c2.7-0.1,6.4,0.6,9.7,2.2c5.5,2.5,11.7,3.4,17.6,2.5c3-0.5,5.9-1.3,8.6-2.6c0.6-0.3,1.2-0.7,1.7-1.8c0.4-0.8,0.5-1.6,0.3-2.5
		c-0.2-1.2-1.3-3-3.4-4.8c-2.2-1.8-5-2.9-7.8-3.6c-1-0.3-2-0.5-4-0.7c-1.9-0.2-4.8-0.5-7.6-0.6s-5.7-0.1-8.4,0
		c-2.9,0.1-5.7,0.4-7.7,0.7c-2,0.3-3.2,0.5-4.3,0.9c-1.1,0.3-2.3,0.8-3.3,1.3c-1.1,0.5-2.1,1.1-3,1.7c-4.3,3.2-5.6,6.4-5.9,9.8
		c-0.1,1,0,2.1,0.2,3.1s0.6,2,1.4,3.4c0.8,1.4,2.1,3.3,3.5,5c1.5,1.7,3.1,3.2,4.9,4.6c1.8,1.3,3.7,2.5,6.6,3.6
		c2.9,1.2,6.7,2.4,10.4,3.2c3.9,0.9,7.8,1.4,11.6,1.5c3.9,0.1,7.9-0.2,10.6-0.5c2.8-0.3,4.5-0.7,6.2-1.2c1.7-0.5,3.3-1,5-1.7
		c1.6-0.6,3.2-1.4,4.5-2.1c1.3-0.7,2.4-1.4,3.4-2.1c1-0.7,2-1.6,2.9-2.4c3-2.9,4.6-5.5,5.6-8.3c0.4-1,0.6-2,0.8-3.7
		c0.4-3.5,0.3-9-1.4-13.6c-0.8-2.3-1.9-4.5-3.2-6.4c-1.3-1.9-2.8-3.5-4.5-4.9c-3.5-2.8-7.7-4.3-11.7-4.7c-9.1-1.1-18.4-1.7-27.6-3.3
		C594.7,588.8,591,588,587.3,587.1L587.3,587.1z"/>
	<path fill="#010101" d="M245.9,604.9c0.7-4.8,1.5-10.2,2.8-15.7c0.7-2.8,1.5-5.6,2.2-8.1c0.7-2.5,1.4-4.7,2-6.9
		c0.6-2.2,1.1-4.4,1.5-5.9c0.6-2.8,0.6-3.6,0.6-5.2c0-1.4-0.2-2.8-1.1-4.2c-2-2.9-4.6-3.3-7.2-3c-2,0.3-3.6,2.2-4.9,4
		c-0.5,0.7-1,1.5-1.5,2.2c-0.5,0.8-1,1.6-1.8,3.3c-0.8,1.8-2.1,4.5-3.2,7.3c-3.3,8-5.7,16.8-7.3,24.9c-0.5,2.7-0.9,5.4-1.1,8.2
		c-0.5,5.3-0.5,10.3-0.5,15.1c0,2.3,0.1,4.7,0.3,6.7c0.2,2,0.6,3.8,1.2,5.4c0.6,1.7,1.5,3.2,2.5,4.6c2.1,2.6,4.4,4.4,6.3,5.4
		c3.3,1.6,6.2,1.8,9.6,1.4c4.6-0.5,8.9-3,13.5-6.2c1.1-0.8,2.1-1.5,3.6-2.8c3.1-2.5,7.6-6.4,11.3-10c-0.1,3.7-0.1,7.4,0.1,11.1
		c0.2,3.7,0.6,7.4,0.9,9.8c0.3,2.6,0.6,3.9,1,5.3c0.8,2.9,1.8,5.3,3.5,8c0.9,1.4,2,2.9,3.4,4.2c1.4,1.3,3,2.2,4.7,2.9
		c1.7,0.7,3.5,1,4.8,1.1c1.2,0.1,1.9-0.1,2.5-0.3c1-0.5,2-1.1,2.9-2.6c0.8-1.4,1.3-3.2,1.4-4.9c0-0.9,0-1.8-0.1-3.4
		c0-1.7,0-4.1,0-6.6c0-2.4-0.1-4.9-0.1-8.6c0-3.8,0.1-8.7,0.3-13.8c0.6-9.9,2.1-20,4.4-29.8c5-1.3,10-2.7,12.7-3.5
		c2.7-0.8,3.2-0.9,3.6-1.1c0.4-0.2,0.8-0.4,1.2-0.6c0.8-0.5,2.2-1.7,3.6-3.2c5.6-6.1,6.9-12.6,4.1-19.5c-0.8-2-1.7-4-3.1-6
		c-0.6-0.9-1.4-1.7-2.2-2.4c-0.8-0.7-1.7-1.3-2.7-1.7c-0.9-0.5-2-0.8-3.4-1c-2.9-0.5-7.1-0.5-10.6,1c-1.8,0.7-3.4,1.7-6,3.6
		c-2.6,2-6.1,4.9-9.4,8.1c-3.9-0.3-7.9-1.1-11.7-2.4c-1.9-0.6-3.8-1.3-5.2-2c-1.4-0.6-2.3-1.2-3.1-2c-0.8-0.7-1.5-1.6-2-2.6
		s-0.8-2.1-1.2-2.7c-0.7-1.4-1.4-1.4-2.1-1.7c-1-0.3-1.6-0.3-2.6,0c-1.2,0.5-2.5,0.9-3.7,2.9c-0.7,1.1-1.4,2.8-1.8,4
		c-0.3,1.3-0.3,2.1-0.1,3.5c0.1,1.4,0.3,3.2,0.8,5c1.1,3.6,3,6.3,6.9,9c1.9,1.4,4.4,3,6.9,4.5c2.5,1.5,5,3,7.6,4.4
		c-1.8,6.6-3.2,13.2-4.3,19.9l0,0l-7.4-0.7l-17.1,6l0,0c-2,0.9-4.2,1-6.4-0.1c-1.5-1.1-1.8-2.6-0.7-4.2l0,0l0.2-0.8l0,0
		C245.3,609.5,245.6,607.3,245.9,604.9L245.9,604.9z"/>
	<path fill="#010101" d="M225.3,623.5c-0.1-2.9-0.1-5.7-0.2-7.6s-0.1-2.7-0.2-3.6c-0.1-0.9-0.2-1.7-1.4-8.3
		c-1.2-6.6-3.4-18.7-4.8-25.8c-1.4-7.2-1.9-9.2-2.5-11.4c-1.2-4.2-2.7-8.3-4.7-12.3c-0.4-0.6-0.9-1.1-1.4-1.5
		c-0.6-0.4-1.2-0.7-1.9-0.9c-1.4-0.4-3.4-0.1-5.5,0.7c-1.1,0.4-2.1,1.1-3,1.9c-2,1.8-3.2,4.7-5.1,7.1c-1,1.4-2.1,2.7-3.4,4.2
		c-1.2,1.5-2.6,3.2-3.9,5c-1.3,1.8-2.5,3.6-4.3,6.6c-1.8,3-4.2,7-6.5,11.1c-2.3,4.2-4.4,8.3-6.4,12.6l0,0l-5.4-0.5l0,0
		c3-9.3,5-18.9,6-28.3c1-9.8,1-20.2-0.3-30.8c-0.7-5.4-1.8-10.7-3.3-15.9s-3.4-10.2-5-13.9c-1.5-3.6-2.7-5.8-3.9-8
		c-1.2-2.1-2.5-4.2-3.9-6.2s-2.9-3.9-4.8-6.2s-4.2-4.9-6.6-7.5c-2.3-2.6-4.7-5.2-6.5-7.1c-1.8-1.8-3.1-2.9-4.5-3.8
		c-1.4-0.9-2.9-1.6-4.5-2.2c-1.6-0.5-3.2-0.9-4.3-1c-1.9-0.2-2.4,0-3.5,0.6c-1.5,1.1-2,2.5-1.5,3.9c0.1,0.3,0.3,0.6,1.3,1.9
		c1,1.3,2.8,3.5,4.7,5.7c3.5,4.3,6.5,8.3,8.4,12.1c1,1.8,1.9,3.7,3.1,6.1c1.1,2.5,2.5,5.5,3.8,8.5c2.5,5.9,4.9,11.5,6.3,16.8
		c0.7,2.6,1.3,5.3,1.7,7.9c0.4,2.7,0.7,5.4,0.8,8.3c0.4,9.1,0,19.3-1.5,28.9c-1.4,9.3-4.1,18.8-8.6,28.2c-2.2,4.4-4.8,8.5-7.8,12.3
		c-3,3.9-6.4,7.4-9.9,10.5c-3.7,3.2-7.6,6-11.7,8.3c-3,1.7-6.2,2.9-9.3,3.4c-1.7,0.3-3.3,0.4-4.7,0.4c-2.6,0-4.6-0.4-6.8-1.3
		c-1-0.4-2-0.9-3-1.6c-1-0.7-1.9-1.5-2.6-2.5c-1.5-2-2.3-4.5-2.3-6.8c2.4-2.1,4.8-4.3,7-6.6c2.3-2.3,4.4-4.7,6.5-7.1
		c4-4.8,7.5-9.4,10-13.7c1.3-2.1,2.5-4.3,3.6-6.5s2.2-4.5,3.3-7.7c1.1-3.2,2.1-7.3,2.6-11.4c0.5-4.2,0.4-8.3-0.3-12.5
		c-0.7-4.2-1.9-8.2-3-10.8s-1.9-4.1-2.9-5.4c-1-1.3-2.2-2.4-3.6-3.3c-4.3-2.9-9.3-3.5-14.3-3c-1.7,0.2-3.4,0.5-6.2,1.6
		c-2.9,1.1-7,2.9-10.5,5.4c-3.7,2.5-7,5.6-9.6,9.1s-4.9,7.6-6.4,10.7c-1.5,3.2-2.2,5.7-2.9,8.1c-1.9,7-3.5,14.6-3.7,21.7
		c-0.1,2.3,0,4.7,0.3,7c0.2,2.3,0.6,4.6,1.3,8.9c0.6,4.3,1.5,10.6,2.3,17c-1.6,1.9-3.7,3-5.7,3.5c-1.1,0.3-2.2,0.3-4.1,0
		c-1.8-0.3-4.4-0.9-6.7-2.1c-2.3-1.1-4.5-2.7-6.3-4.6c-1.8-1.9-3.4-4.1-4.5-6.5c-2.4-5-2.4-10.6-2.6-16.1c0-2.8,0.1-5.7,0.3-8.4
		s0.6-5.6,1.3-9.2c0.7-3.7,1.7-8.3,2.8-12.7c1.1-4.5,2.3-9,4-14.1c1.7-5.1,3.9-10.7,6.5-16.2s5.6-10.6,8.9-15.6
		c3.4-5,7.3-9.5,9.7-12.5s3.8-4.2,5-5.4c1.2-1.2,2.5-2.5,3.4-3.4c1.8-1.7,2.4-2.5,3.3-3.7c2.1-2.7,2.9-4.4,1.4-6.9
		c-0.9-1.4-2.2-1.7-3.5-1.7c-0.4,0-0.9,0-1.9,0.3c-2.1,0.6-5.8,2.1-8.7,4c-3.5,2.2-6.7,4.8-9.9,7.4c-1.9,1.5-3.7,3.1-5.3,4.5
		c-3.3,3-5.7,5.5-8,8.3c-1.2,1.5-2.4,3-4.2,5.7s-4.3,6.7-6.6,10.7c-2.3,4.1-4.4,8.3-6.3,12.5s-3.5,8.6-4.9,12.7
		c-1.4,4.1-2.4,7.8-3.4,11.5s-1.9,7.5-2.5,10.5c-1.2,6-1.7,9.9-2.1,14.8c-0.7,9.1-0.1,18.2,3.1,27.5c0.8,2.2,1.7,4.3,2.9,6.2
		c1.2,2,2.6,3.8,4.2,5.4c3.3,3.3,6.9,5.5,10.3,7.1c1.8,0.8,3.6,1.6,5.4,2.3c5.2,1.8,9.9,2.8,14.7,1.9c4.2-0.9,7.7-2.8,11.2-3.5
		c1.2-0.3,2.3-0.5,3.5-0.7c1.4,1.6,2.8,3.3,4.1,4.9c1.4,1.6,2.8,3.2,4.8,5.1c2,1.9,4.5,4.2,7.3,6c2.8,1.8,5.8,3.3,8.9,4.3
		c3.2,1,6.5,1.6,10.8,1.7c4.5,0,10-0.5,15.6-1.7c5.5-1.3,10.8-3.2,15.8-5.9s9.6-6,12.8-8.5c3.2-2.6,5-4.4,6.7-6.2
		c1.7-1.8,3.4-3.7,5.1-5.6c1.6-1.9,3.2-3.9,4.4-5.5c2.3-3.1,3.4-4.9,4.7-7.4c0.6-1.2,1.2-2.4,1.8-3.7l0,0l5,1.5l-4.9,16.1l0,0
		c-0.8,2.8-1,5.8-0.3,8.6c0.3,1.4,0.8,2.8,1.5,4c0.6,1.2,1.4,2.2,2.3,3.1c1.9,1.7,4.5,2.5,6.8,2.3c1.2-0.1,2.4-0.5,3.3-0.9
		c0.9-0.4,1.4-0.8,1.9-1.3c2.4-2.2,3-4.6,4-7c1.9-5,3.8-10,5.5-15c0.2-0.7,0.4-1.4,0.6-2l0,0l20.1-0.4l0,0c0.2,2.5,0.5,5,0.6,6.5
		c0.1,1.4,0.2,1.8,0.3,2.2c0.1,0.4,0.2,0.7,0.3,1.1c0.1,0.3,0.2,0.7,0.6,1.5c0.3,0.8,0.9,2,1.4,3.2c0.6,1.2,1.2,2.3,1.7,3.2
		c1.2,2,2.1,2.7,3.3,3.5c2.5,1.4,5,2.2,7.7-1.6c0.8-1.2,1.1-2,1.5-3.2c0.4-1.4,0.8-3.3,0.9-4.9c0.1-0.9,0.1-1.7,0.1-3.6
		C225.3,629.3,225.3,626.4,225.3,623.5L225.3,623.5L225.3,623.5L225.3,623.5z M75.5,603c-0.7-2.6-1.2-5.3-1.5-8
		c-0.6-5.5-0.6-10.5,0.1-16.5c0.4-3,1-6.4,1.6-9.6c0.7-3.3,1.5-6.7,2-8.7c0.6-2.2,0.9-3.2,1.3-4.2c0.7-2,1.6-4,2.6-5.9
		c0.2-0.5,0.6-0.9,0.9-1.2c0.9-0.8,1.5-1.4,2.9-1.3l0,0l-0.2-0.1l0,0c1.2-0.2,2.4,0.2,3.3,1.4c0.9,1.3,1.5,2.6,1.9,4.1
		c0.7,3.9,0.7,7.4,0.5,11.1c-0.1,1.5-0.2,3-0.5,5.3c-0.3,2.2-0.8,5.2-1.3,8.2c-0.6,3-1.2,5.9-2,8.4c-0.8,2.6-1.6,4.8-2.7,6.8
		c-1.1,2.1-2.4,4-3.9,5.8C79.1,600.2,77.4,601.7,75.5,603L75.5,603L75.5,603L75.5,603z M203.1,601.1c-2.2,1.7-4.3,1.3-5.9-0.8
		c1.6-3.2,3.1-6.4,4.7-9.5l0,0l2,9.2l0,0C203.7,600.4,203.4,600.8,203.1,601.1L203.1,601.1L203.1,601.1L203.1,601.1z"/>
	<path fill="#010101" d="M533.8,583.2c-2.9-8.7-6.8-17.7-13.5-26.3c-2.7-3.9-5.6-7.6-8.6-11c-3.1-3.6-6.3-6.9-9.6-10
		c-3.4-3.2-7-6.2-10.6-9c-3.8-3.2-7.7-6.3-11.6-9.2c-4-3-8.1-5.7-12.2-8.3c-4.2-2.6-8.4-5.1-12.7-7.5c-10.5-5.6-21.6-10.2-32.9-13.9
		c-22.8-7.4-46.6-10.7-70.2-9.9c-8.2,0.1-16.4,1.3-24.9,4.1c-2.7,0.9-5.2,2-7.7,3.2c-2.5,1.2-4.9,2.6-7.3,4.1
		c-2.3,1.5-4.6,3.2-6.8,5c-2.6,2-3.1,4.5-2.1,7.3c0.5,1.5,2.2,2.8,3.9,3.6c0.9,0.4,2.1,0.8,3.5,0.9c3.6,0.2,7.8-1,11.7-3.5
		c0.9-0.7,2.4-2,2-3.3c-0.1-0.6-0.8-1.6-1.6-1.7c-1.4-0.4-2.8-0.3-4.2,0.3c2.6-1.8,5.4-3,8.2-3.8c1.5-0.4,2.9-0.6,6.6-0.8
		c3.6-0.2,9.3-0.4,15-0.2c11.2,0.3,22.6,2.1,33.8,5.1c9.6,2.9,19.3,6.1,28.7,9.6c9.4,3.6,18.8,7.6,25.2,10.4
		c6.6,2.9,10.2,4.8,13.9,6.9c3.7,2.1,7.3,4.3,10.6,6.7c3.5,2.4,6.9,4.9,10,7.6c4.1,3.5,8.1,7,11.9,10.6c3.8,3.7,7.5,7.7,11,11.5
		c1.9,2.2,3.7,4.5,5.4,6.9c3.5,5,6.2,10.1,8.2,15.4c1.4,3.4,2.2,7.1,2.4,10.7c0.2,3.7-0.3,7.4-1.4,10.9c-1.1,3.5-2.8,6.9-5,9.7
		c-2.2,2.9-4.9,5.4-9.2,8.1c-4.3,2.7-10.2,5.6-16.4,7.9c-12.3,4.6-25.4,6.8-38.4,6.3c-8.5-0.3-17.1-1.2-25.5-2.4l0,0l-0.4-47.8l0,0
		c16.5,1.4,33.1,4.9,49.6,10.7c-0.8,1.6-1.7,3.2-3.8,4.8c-1.2,0.9-2.3,2-3.4,3.1c-0.7,0.9-0.8,2.1-0.4,3.2c0.1,0.3,0.4,0.7,0.8,1.1
		c0.4,0.4,1.1,1,1.8,1.4c1.9,1.2,4.6,1.7,7.4,1.6c4.2-0.4,8.1-2.6,12.1-6.7c1.2-1.2,2.1-2.6,2.9-4.2c2.6-5.6,2.5-12.2-2.2-18.6
		c-0.9-1.1-1.8-2.2-2.9-3.2c-1-1-2.2-1.8-3.4-2.6c-6.6-3.9-13.4-6.7-20.3-8.5c-3.6-0.9-7.2-1.6-11.1-2.2c-8.2-1.2-17.4-2.1-26.2-2.2
		c-0.2-5.2-0.7-10.4-1.6-15.6c-0.4-2.6-1-5.2-1.4-7c-0.4-1.8-0.7-2.9-1-3.9s-0.7-2.1-1-2.8c-0.6-1.4-1-2.2-1.5-3.2
		c-0.6-1.4-2.4-3.1-3.9-3.8c-1.6-0.7-3.3-0.9-5.3,1c-0.3,0.4-0.6,0.8-0.8,1.2c-1.7,4.2-2.9,8.5-3.8,12.8c-0.4,2.2-0.7,4.4-1.1,7.1
		c-0.7,5.4-1.4,11.8-2.4,17.8c-7.9,0.9-15.7,2.6-23.5,4.9c-3.7,1.1-7.3,2.5-10.8,4.2c-1.8,0.8-3.5,1.7-4.9,2.6c-2.8,1.6-4.9,3-7.2,5
		c-1.1,0.9-2.1,1.9-3.1,2.9c-3,3.4-4,7.4-3.5,11.2c0.5,3.2,1.9,6.1,4.1,9.1c0.6,0.8,1.2,1.6,2.4,2.9c1.2,1.3,3,3.2,4.8,5.1
		c3.5,3.6,6.8,6.8,9.7,9.2c1.5,1.2,3,2.4,4.5,3.6c1.5,1.1,3.1,2.2,5.8,3.9c2.6,1.7,6.3,3.9,9.8,6.2c3.7,2.2,7.3,4.5,10.9,6.7
		c0.2,0.9,0.4,1.7,0.6,2.7s0.4,2,0.8,3.5c0.3,1.5,0.8,3.4,1.2,5.3c0.3,1.2,0.8,2.3,1.4,3.3s1.4,1.9,2.3,2.6c3,2.4,6.7,2.9,9.9,1.6
		c1.2-0.5,2.5-1.2,3.6-2.1c1.1-0.9,2.1-2,2.9-3.3s1.4-2.6,1.7-4.1c4.5,0.7,9,1.2,13.6,1.6c4.6,0.4,9.1,0.7,12.9,0.9
		c7.6,0.3,13.1,0.1,19.5-0.6c8.7-1,18.2-2.9,26.9-6.4c5.8-2.2,11.2-5.1,16.4-8.3c5.2-3.4,10.1-7.2,14.6-11.4
		c1.6-1.6,3.2-3.3,4.7-5.1c3.1-3.7,5.6-7.6,7.6-11.4C535.6,604.7,536.9,593.9,533.8,583.2L533.8,583.2L533.8,583.2L533.8,583.2z
		 M371.9,621.1c-2.7-1.4-5.3-3.1-7.6-4.6c-2.3-1.6-4.3-3.1-6.2-4.7c-1.9-1.6-3.8-3.3-5.6-5.1c-1.8-1.8-3.5-3.7-4.4-4.8
		s-1.1-1.5-1.2-1.9c-0.3-1.2-0.1-2.4,0.9-3.4c0.3-0.3,0.6-0.5,2.2-1.1c1.5-0.6,4.3-1.6,7-2.5c2.8-0.9,5.6-1.6,8-2.1
		c2.4-0.5,4.4-0.9,5.9-1.1c1.4-0.2,2.3-0.3,3.9-0.5c1.7-0.1,4.2-0.4,6.7-0.5s5-0.2,7.6-0.3l0,0V627l0,0
		C383.2,626,377.4,624,371.9,621.1L371.9,621.1L371.9,621.1L371.9,621.1z"/>
	<path fill="#010101" d="M604.8,510.5c-0.2-1.9-0.7-3.2-1.3-4.3c-0.6-1.2-1.4-2.2-2.3-3.1c-3.1-3-6.9-3.9-10.5-3.1
		c-0.4-1-0.9-1.9-1.5-2.7c-1.4-1.8-3.2-2.8-5-3.2c-3.3-0.9-6.6-1.3-9.8-1.3c-1.7,0-3.3,0.1-6.4,0.5c-3.1,0.4-7.5,1.3-11.7,2.6
		c-4.3,1.3-8.4,3.1-12.4,5.2c-4,2.2-7.8,4.7-11.2,7.6c-1.4,1.2-2.8,2.6-4.1,4c-5.4,6.2-8.5,13-8.6,19.6c0,1.7,0.1,3.5,0.3,4.9
		c0.4,2.7,1,4.7,1.9,6.9c0.9,2.3,2.3,4.9,3.8,7.7c0.8,1.5,1.6,3.1,2.1,4.1c0.5,1,0.8,1.6,1.1,2c0.4,0.5,0.8,0.8,1.3,1.1
		c1.1,0.7,3,0.8,5,0.6c1.1-0.2,2.2-0.5,3.2-1c1-0.5,1.9-1.2,2.7-2.1c0.8-0.9,1.3-2.1,2.1-2.4c0.7-0.2,1.6,0.5,2.5,1
		c0.9,0.5,1.8,0.8,2.8,1c0.9,0.2,1.9,0.3,3.4,0.3c1.5,0,3.6-0.1,5.5-0.2c1.8-0.1,3.3-0.3,4.4-0.4c1.1-0.1,1.6-0.2,2.9-0.5
		c2.6-0.5,7.2-1.5,10.8-3.1c3.7-1.5,8.1-4.1,12.4-7.7c4.6-3.8,8.5-8.3,11.4-12.8c3.2-4.7,4.9-9.2,5.5-14.1
		C605,515,605,512.4,604.8,510.5L604.8,510.5L604.8,510.5L604.8,510.5z M544.4,522.7c-3.3,3.1-6.4,6.4-9.1,9.8
		c0.6-2.7,1.6-5.3,2.9-7.7s2.9-4.7,4.8-6.6c1.9-2,4-3.7,6.4-5c5.7-3.3,11.3-5.2,16.9-6.2c-4,2.1-7.8,4.4-11.3,7
		C551.1,516.8,547.7,519.6,544.4,522.7L544.4,522.7L544.4,522.7L544.4,522.7z M587.6,521.1c-0.4,2.1-1.3,4.2-2.8,6.1
		c-0.7,0.9-1.5,1.6-2.4,2.3c-2.3,1.5-4.5,3.1-6.9,4.4c-4.7,2.6-9.2,5.2-14.1,6.2s-9.9,0.8-14.6-0.6c2.3-3.5,5-6.7,8-9.5
		c3-2.9,6.3-5.4,9.7-7.6c3.5-2.1,7.3-3.9,11.1-5.2c3-1,5.9-1.1,8.7-0.7c0.7,0.1,1.5,0.5,2.1,1.2C587.7,518.9,587.7,520,587.6,521.1
		L587.6,521.1L587.6,521.1L587.6,521.1z"/>
	<path fill="#010101" d="M870.5,595.7c-0.1-2.9-0.5-5.9-1.3-8.6c-0.8-2.8-2-5.5-3.5-8c-1.5-2.5-3.3-4.8-5.3-6.8
		c-4-3.5-8.8-4.5-13.6-3c-1.5,0.5-3,1.3-6.8,4.2c-3.8,2.9-9.8,8-15.6,13.2c-5.9,5.3-11.5,10.8-16.9,16.5c1.2-3.7,2.6-7.4,4.2-10.9
		c1.6-3.6,3.4-7.1,4.7-9.5c1.3-2.6,2.2-4.2,3.1-6c0.8-1.7,1.5-3.5,2-4.7c0.9-2.4,0.9-3.4,0.9-5.1c0-0.8-0.2-1.5-0.3-2.1
		c-0.2-0.6-0.3-1-0.6-1.4c-1.8-2.3-4.3-1.4-6.5,0.1c-0.5,0.3-0.9,0.7-1.9,1.7c-1,1-2.5,2.6-3.9,4.3c-1.5,1.7-2.9,3.4-4.3,5.1
		c-2.2,2.7-4.2,5.5-6,8.3c-1.8,2.9-3.5,6-5,9c-1.5,3.1-2.7,6.4-3.5,8.5c-0.8,2.2-1.1,3.5-1.4,4.7c-0.3,1.2-0.4,2.5-0.5,3.8
		c-0.1,1.3-0.1,2.6,0,4.2c0.2,3.3,0.8,7.8,1.8,11.6c0.5,2,1.1,3.9,1.8,5.8c-2.7,5.9-5,11.8-7,17.9s-3.8,12.3-5.2,18.6
		c-1.4,6.3-2.4,12.6-3,16.5c-0.5,3.9-0.5,5.2-0.5,6.5c0.3,5.8,3,11.6,8.3,17.6c3.7,3.6,8.3,3.4,12.8-0.6c2.4-9.7,4.9-19.5,7.2-29.2
		l0,0l2.3-7.8l0,0c0.8-2.6,1.9-5.1,3.4-8.8c1.5-3.8,3.5-8.8,5.5-13.9c2.3-0.4,4.6-0.9,6.9-1.5c2.3-0.5,4.5-1.1,6.4-1.6
		c3.6-1,6.3-2.1,9.2-3.8c1.4-0.8,2.8-1.7,4.6-3c1.8-1.3,4.1-3.1,6.3-4.9s4.4-3.7,6.2-5.5c3.8-3.6,6.2-6.6,8.4-9.9
		C868.8,610.1,870.9,603.1,870.5,595.7L870.5,595.7L870.5,595.7L870.5,595.7z M851.7,606.5c-1.2,2-2.8,3.9-4.5,5.4
		c-3.2,2.7-6.4,5.1-9.6,7.3c-2.8,1.8-5.5,1.7-7.8,0.6c1.5-3.7,3.3-7.2,5.3-10.5c2-3.4,4.2-6.7,6.6-9.7c2.4-3.1,5-6.1,7.8-8.8
		c1.4-1.3,2.5-1.2,3.6-0.9c1.1,0.3,2.3,2,2.2,3.1C855.3,597.5,854.2,602.3,851.7,606.5L851.7,606.5L851.7,606.5L851.7,606.5z"/>
</g>
</svg>
