<?xml version="1.0" encoding="utf-8"?>
<!-- Generator: Adobe Illustrator 16.0.0, SVG Export Plug-In . SVG Version: 6.00 Build 0)  -->
<!DOCTYPE svg PUBLIC "-//W3C//DTD SVG 1.1//EN" "http://www.w3.org/Graphics/SVG/1.1/DTD/svg11.dtd">
<svg version="1.1" id="Layer_1" xmlns="http://www.w3.org/2000/svg" xmlns:xlink="http://www.w3.org/1999/xlink" x="0px" y="0px"
	 width="94.797px" height="117.782px" viewBox="0 0 94.797 117.782" enable-background="new 0 0 94.797 117.782"
	 xml:space="preserve">
<g>
	<g>
		<g>
			<path fill="#522D18" d="M27.775,26.184c0,0,3.364-4.533,13.872-6.388c0,0,14.938-1.957,20.193,3.297
				c0,0,6.592,5.563,11.331,14.835c0,0,5.563,10.508,5.563,18.132c0,0-2.301,0.652-0.893,2.06c0,0,0.582,0.583-0.413,1.58
				L77.292,74.26c0,0-3.331,2.987-0.618,5.7c0,0,6.318,7.554,0.893,15.041c0,0-0.824,2.404-6.18,7.006
				c-5.358,4.602-6.8,5.976-6.8,5.976s-5.358,3.296-4.944,4.944c0,0-2.13-0.344-3.709,1.236c0,0-2.61,4.189-6.113,3.503
				c0,0-3.709,0.755-7.624-1.58c0,0-1.167-1.167-1.923,1.03c0,0-1.924-0.275-4.876-3.229c0,0-1.168-1.785-6.112-1.51
				c0,0-1.236,0.068-1.924-0.619c0,0-5.975-6.043-7.143-7.897c0,0-2.953-3.503-4.395-3.503c0,0-0.756-0.962,0.824-2.541
				c0,0,0.411-1.236-0.345-1.991c0,0-0.479-0.481-1.167-1.169c0,0-0.48-0.48,0.893-1.854c0,0,0.275-2.953-1.099-7.692
				c0,0-1.579-10.44-1.167-14.629c0,0-0.824-3.983,1.441-7.211c0,0,0.652-2.919-0.755-4.327c0,0-0.894-1.648-1.718-1.648
				c0,0,1.648-2.542,1.648-4.327c0,0,0-1.305-1.579-2.197c0,0,2.403-1.237,2.987-2.988c0,0,0.446-2.644,0.446-4.224
				c0,0-0.274-2.678,2.198-5.15c0,0,3.09-3.022,2.747-5.77c0,0,1.717,1.237,3.503-2.747L27.775,26.184z"/>
			<path fill="#D0A660" d="M26.604,43.284c-0.505,0.716-0.918,1.478-1.018,2.397c-0.24,2.213,1.543,2.882,3.492,3.099
				c0,0,13.942-1.443,16.964-1.099c2.336-0.121,5.604-0.432,7.748-1.433c0.72-0.336,1.202-0.789,1.232-1.614
				c0.112-2.963-3.968-5.642-6.438-6.431c0,0-3.229-1.03-7.967-0.137c0,0-5.357,1.511-8.723-0.412c0,0-0.344,1.854-0.824,2.335
				c0,0-0.755,0.892-1.58-0.55c-0.452,0.512-0.912,1.051-1.269,1.635C27.747,41.849,27.126,42.542,26.604,43.284z"/>
			<path fill="#D0A660" d="M25.233,58.326l1.442,1.442c0,0,0.894,1.442,1.579,0c0.688-1.442,0-0.275,0-0.275s0.824-1.099,0-1.923
				l-2.06-2.678c0,0-0.515-0.515-1.03,0l-0.687,1.511C24.478,56.403,23.928,57.021,25.233,58.326z"/>
			<path fill="#D0A660" d="M32.239,56.197c0,0,1.991-2.541,3.914-3.365c0,0,3.744-1.89,6.182,0.55c0,0,5.562,6.043,6.525,7.624
				c0,0,1.099,0.754,0.411,1.442l-0.995,0.995c0,0-0.723,0.31-1.34-0.309l-0.617-1.442c0,0-1.065-0.79-1.855,0
				c0,0-0.344,1.511-1.512,1.923c0,0-0.617,0.481-0.273,0.824c0,0,0.411,2.198-1.786,3.434c0,0-2.61,1.1-4.12,0.756
				c0,0-3.916,0.206-5.564-1.443c0,0-1.51-1.648-0.687-5.014l0.069-2.541C30.59,59.631,31.345,57.09,32.239,56.197z"/>
			<path fill="#D0A660" d="M35.26,72.131c0,0-2.266-1.031,0-1.649l1.752-0.514c0,0,3.296-0.824,3.296,0.721
				c0,0,0.618,1.339-1.339,1.339C38.969,72.028,35.878,72.234,35.26,72.131z"/>
			<path fill="#522D18" d="M33.956,59.356c0,0-1.785-1.236,0-1.236h1.305c0,0,0.618-0.138,0.618,0.618c0,0,0.55,1.854,3.296,0.412
				l1.168-0.619l1.305-0.48h1.305l-0.411,1.099c0,0-1.647,1.717-3.228,1.717l-1.717,0.275
				C37.596,61.142,35.467,60.867,33.956,59.356z"/>
		</g>
		<g>
			<path fill="#D0A660" d="M88.317,13.545c0,0-0.688,0.83-0.832,1.005c0-0.003,0-0.006-0.002-0.009
				c-0.104-0.625-0.414-1.237-0.92-1.819c-0.418-0.481-1.039-0.984-1.898-1.537L80.672,8.62c0,0-1.475,2.294-1.874,2.915
				c0.356-1.194,0.987-3.309,0.987-3.309L73.204,5.14l-0.364,0.57L72.473,6.28l-6.168,9.608l1.451-5.639
				c0,0-0.036,0.024-0.041,0.027c0.072-0.186,0.135-0.397,0.203-0.659l0.162-0.63c0.242-0.941,0.361-1.728,0.361-2.388
				c0-0.147-0.006-0.289-0.018-0.423c-0.08-0.912-0.497-1.77-1.24-2.551c-0.699-0.735-1.652-1.262-2.834-1.565
				c-1.238-0.319-2.373-0.274-3.371,0.13c-0.662,0.27-1.191,0.632-1.607,1.067c0.044-0.402,0.233-2.152,0.233-2.152l-5.72-0.62
				c-0.539-0.058-4.422-0.479-4.422-0.479s-0.012,0.099-0.016,0.141c-0.043,0-4.984,0-5.031,0C44.412,0.101,44.401,0,44.401,0
				l-0.77,0.084l-8.68,0.952L34.94,0.99l-0.342,0.084l-0.53,0.058l0.007,0.071l-8.872,2.2c0,0,0.022,0.087,0.03,0.119
				c-0.003,0-6.214,2.313-6.214,2.313s0.511,2.237,0.837,3.669c-0.463-0.63-0.949-1.094-1.477-1.372
				c-0.827-0.438-1.695-0.569-2.58-0.388c-0.684,0.14-1.513,0.478-2.535,1.031l-4.142,2.242l6.1,11.269l-9.577-8.758l-0.518,0.419
				l-0.518,0.42l0,0L0,18.105l8.072,13.186l8.448-6.852l4.491-2.432c1.166-0.632,1.784-1.054,2.154-1.363
				c0.03-0.012,6.874-2.56,7.618-2.837c0.109-0.026,0.688-0.168,0.688-0.168l5.35-1.326c0,0-0.006-0.025-0.016-0.063
				c1.997-0.219,6.186-0.678,7.107-0.779c0.171,0,5.83,0,6.021,0c0.909,0.099,3.6,0.39,3.6,0.39l0,0
				c0.747,0.081,4.422,0.479,4.422,0.479s0.009-0.087,0.013-0.118c0.561,0.514,1.213,0.881,1.953,1.072
				c0.482,0.124,0.943,0.131,1.396,0.084c0.141,0.036,3.473,0.894,4.184,1.077c1.973,0.924,7.797,3.656,7.871,3.692
				c0.086,0.054,4.301,2.763,4.301,2.763s2.131-3.316,2.697-4.196c0.534,0.277,1.052,0.488,1.548,0.564
				c-1.271,1.534-3.372,4.075-3.372,4.075l6.629,5.487l3.53-4.265c0,0-0.132-0.109-0.261-0.216c0.123-0.149,2.712-3.278,2.712-3.278
				c0.034,0.029,0.112,0.093,0.112,0.093l3.529-4.265L88.317,13.545z M34.464,6.811c0.063-0.016,0.138-0.034,0.22-0.054l0.186,1.685
				C34.68,7.678,34.533,7.084,34.464,6.811z"/>
			<g>
				<path fill="#522D18" d="M5.659,15.492l9.128,8.346l-2.521,2.044l-1.519-1.6l-0.903,0.731l1.248,1.82l-2.549,2.067L2.102,18.377
					L5.659,15.492z M9.307,22.65c-0.982-0.98-2.187-2.211-3.615-3.693c1.239,2.026,2.16,3.487,2.763,4.383L9.307,22.65z"/>
				<path fill="#522D18" d="M11.295,11.565l2.782-1.505c0.879-0.477,1.582-0.768,2.107-0.876c0.527-0.107,1.043-0.028,1.547,0.239
					c0.505,0.267,1.009,0.865,1.512,1.794c0.34,0.628,0.479,1.12,0.416,1.473c-0.062,0.355-0.348,0.754-0.855,1.201
					c0.729-0.205,1.303-0.202,1.719,0.012c0.415,0.213,0.812,0.671,1.191,1.372l0.541,0.998c0.394,0.728,0.602,1.311,0.625,1.751
					c0.024,0.44-0.11,0.823-0.404,1.147c-0.292,0.325-1.001,0.792-2.125,1.4l-3.232,1.75L11.295,11.565z M15.102,11.895l1.289,2.381
					c0.113-0.067,0.203-0.119,0.268-0.154c0.268-0.145,0.402-0.304,0.402-0.479c0-0.174-0.171-0.578-0.516-1.214
					c-0.181-0.334-0.338-0.554-0.472-0.655c-0.133-0.102-0.258-0.145-0.374-0.127C15.584,11.666,15.384,11.748,15.102,11.895z
					 M17.3,15.956l1.622,2.997c0.377-0.221,0.588-0.415,0.635-0.583c0.045-0.167-0.049-0.467-0.283-0.899l-0.541-1
					c-0.248-0.459-0.445-0.711-0.594-0.757C17.993,15.669,17.712,15.75,17.3,15.956z"/>
				<path fill="#522D18" d="M25.197,5.138l5.985,10.823l-3.041,1.132l-0.929-2.001l-1.089,0.406l0.602,2.123l-3.075,1.145
					L20.905,6.736L25.197,5.138z M26.368,13.085c-0.617-1.242-1.366-2.794-2.246-4.654c0.527,2.315,0.934,3.995,1.219,5.037
					L26.368,13.085z"/>
				<path fill="#522D18" d="M33.886,2.788l0.587,2.37l-1.807,0.447l2.355,9.503l-3.098,0.768L29.57,6.373l-1.831,0.454l-0.587-2.37
					L33.886,2.788z"/>
				<path fill="#522D18" d="M43.107,1.631L44.44,13.79l-3.172,0.348l-0.562-5.119l-0.913,0.1l0.561,5.118l-3.172,0.348L35.85,2.426
					l3.172-0.348l0.474,4.325l0.913-0.1l-0.474-4.325L43.107,1.631z"/>
				<path fill="#522D18" d="M48.606,1.616v12.232h-3.191V1.616H48.606z"/>
				<path fill="#522D18" d="M57.975,2.399l-1.317,12.16l-2.788-0.302l-1.035-5.705l-0.599,5.528l-2.644-0.286l1.318-12.161
					l2.643,0.287l1.186,5.668l0.593-5.476L57.975,2.399z"/>
				<path fill="#522D18" d="M66.526,9.038l-3.091-0.795L63.71,7.17c0.175-0.677,0.255-1.106,0.243-1.291
					c-0.014-0.185-0.126-0.305-0.337-0.36c-0.185-0.047-0.327-0.006-0.431,0.124c-0.104,0.129-0.233,0.497-0.389,1.101l-1.463,5.686
					c-0.137,0.532-0.194,0.89-0.172,1.076c0.023,0.185,0.133,0.303,0.332,0.354c0.216,0.056,0.389-0.001,0.515-0.172
					c0.128-0.171,0.262-0.532,0.403-1.085l0.363-1.409l-0.609-0.156l0.464-1.803l3.606,0.928l-1.639,6.367l-1.949-0.501
					l-0.068-0.923c-0.303,0.312-0.637,0.521-1.004,0.625c-0.365,0.104-0.764,0.101-1.195-0.011
					c-0.514-0.132-0.964-0.382-1.348-0.748c-0.383-0.367-0.644-0.767-0.781-1.197c-0.138-0.432-0.184-0.858-0.137-1.282
					c0.047-0.422,0.176-1.042,0.386-1.857l0.907-3.524c0.291-1.133,0.563-1.941,0.817-2.423s0.724-0.861,1.41-1.141
					c0.687-0.279,1.488-0.301,2.403-0.065c0.9,0.231,1.6,0.609,2.099,1.133c0.497,0.524,0.771,1.064,0.819,1.62
					c0.049,0.557-0.051,1.321-0.301,2.292L66.526,9.038z"/>
				<path fill="#522D18" d="M77.996,8.985L74.46,20.837l-2.938-1.378l0.779-2.065l-1.052-0.493l-1.095,1.917l-2.971-1.394
					L73.849,7.04L77.996,8.985z M73.143,15.386c0.454-1.311,1.037-2.932,1.749-4.863c-1.284,1.998-2.198,3.464-2.741,4.397
					L73.143,15.386z"/>
				<path fill="#522D18" d="M81.211,10.682l2.69,1.729c0.728,0.467,1.25,0.884,1.568,1.25c0.317,0.366,0.505,0.72,0.563,1.062
					c0.057,0.343,0.023,0.689-0.105,1.042c-0.127,0.352-0.397,0.85-0.811,1.493l-0.576,0.896c-0.422,0.656-0.797,1.091-1.125,1.305
					s-0.724,0.286-1.188,0.215c-0.463-0.072-0.985-0.293-1.566-0.667l-0.713-0.458l-2.668,4.148l-2.685-1.726L81.211,10.682z
					 M82.758,14.176l-1.668,2.596c0.07,0.052,0.135,0.096,0.188,0.13c0.242,0.155,0.445,0.202,0.617,0.143
					c0.17-0.06,0.377-0.279,0.62-0.657l0.539-0.839c0.224-0.348,0.315-0.61,0.275-0.784C83.289,14.591,83.099,14.395,82.758,14.176z
					"/>
				<path fill="#522D18" d="M88.597,15.647l4.097,3.391l-1.557,1.881l-1.639-1.356l-1.479,1.788l1.527,1.264l-1.479,1.788
					l-1.527-1.264l-1.727,2.085l1.788,1.479l-1.558,1.881l-4.244-3.514L88.597,15.647z"/>
			</g>
		</g>
	</g>
</g>
</svg>
