<?xml version="1.0" encoding="utf-8"?>
<!-- Generator: Adobe Illustrator 16.0.0, SVG Export Plug-In . SVG Version: 6.00 Build 0)  -->
<!DOCTYPE svg PUBLIC "-//W3C//DTD SVG 1.1//EN" "http://www.w3.org/Graphics/SVG/1.1/DTD/svg11.dtd">
<svg version="1.1" id="Layer_1" xmlns="http://www.w3.org/2000/svg" xmlns:xlink="http://www.w3.org/1999/xlink" x="0px" y="0px"
	 width="279.635px" height="70.06px" viewBox="0 0 279.635 70.06" enable-background="new 0 0 279.635 70.06" xml:space="preserve">
<g>
	<g>
		<g id="XMLID_2_">
			<g>
				<path fill="#1D1D1B" d="M230.07,53.51V37.14c0-1.81-0.601-3.52-1.811-5.13c-0.4-0.3-0.84-0.63-1.32-0.98
					c-0.479-0.35-1.02-0.73-1.619-1.13v17.65c0,1.41,0.449,2.72,1.359,3.93c0.5,0.351,1.021,0.69,1.54,1.021
					C228.75,52.82,229.37,53.161,230.07,53.51z M230.45,37.14v16.98c-4.98-2.311-7.471-5.16-7.471-8.53V27.26
					c1.311,0.85,2.391,1.61,3.24,2.26c0.86,0.66,1.49,1.23,1.89,1.74C229.67,32.97,230.45,34.93,230.45,37.14z"/>
				<path fill="#FFFFFF" d="M230.45,54.121V37.14c0-2.21-0.78-4.17-2.341-5.88c-0.399-0.51-1.029-1.08-1.89-1.74
					c-0.85-0.65-1.93-1.41-3.24-2.26l-2.409-0.76c3.47-1.61,5.979-3.77,7.539-6.49c1.061,1.87,3.24,3.78,6.561,5.74
					c3.27,1.91,5.99,2.92,8.15,3.02c-2.711,0.7-4.07,3.37-4.07,7.99v8.46c0,4.02,1.38,6.74,4.149,8.14
					c-3.77,0.11-7.119,0.83-10.04,2.19c-0.42,0.2-0.819,0.4-1.21,0.62L230.45,54.121z"/>
				<path fill="#FFFFFF" d="M210.68,28.77c3.32,0,6.62-0.76,9.891-2.27l2.409,0.76v18.33c0,3.37,2.49,6.22,7.471,8.53l1.199,2.05
					c-2.729,1.52-4.829,3.609-6.329,6.25c-1.11-1.91-3.301-3.9-6.57-5.96c-3.16-1.96-5.88-2.99-8.141-3.101
					c1.2-0.05,2.211-1.08,3.011-3.09c0.71-1.71,1.06-3.24,1.06-4.6v-8.45C214.68,33.09,213.35,30.28,210.68,28.77z"/>
				<path fill="#1D1D1B" d="M210.609,53.36c2.261,0.11,4.98,1.141,8.141,3.101c3.27,2.06,5.46,4.05,6.57,5.96
					c1.5-2.641,3.6-4.73,6.329-6.25c0.391-0.22,0.79-0.42,1.21-0.62c2.921-1.36,6.271-2.08,10.04-2.19l0.08,0.021l-0.01,0.06
					c0.51,0.7,1.19,1.23,2.04,1.58l-0.15,0.681c-3.67,0.1-6.97,0.829-9.88,2.189c-3.37,1.561-5.939,3.95-7.699,7.17
					c-0.4-0.76-1.011-1.54-1.811-2.34c-0.05,0.05-0.08,0.1-0.08,0.15c0,0.05-0.02,0.13-0.069,0.229c-0.2-0.3-0.4-0.61-0.601-0.91
					c-0.21-0.3-0.43-0.6-0.68-0.899c-0.561-0.41-1.11-0.83-1.66-1.29c-0.56-0.45-1.19-0.88-1.89-1.28
					c-3.12-1.91-5.761-2.92-7.92-3.02v-0.75c0.35,0,0.75-0.181,1.199-0.53c-0.6-0.25-1.17-0.41-1.689-0.49
					c-0.53-0.08-1.021-0.14-1.471-0.19V53.36z"/>
				<path fill="#1D1D1B" d="M210.68,28.77c2.67,1.51,4,4.32,4,8.45v8.45c0,1.359-0.35,2.89-1.06,4.6
					c-0.8,2.01-1.811,3.04-3.011,3.09v-0.37c1-0.1,1.881-1.06,2.641-2.869c0.7-1.71,1.05-3.19,1.05-4.45v-8.45
					c0-2.47-0.53-4.45-1.58-5.96c-0.1-0.05-0.17-0.1-0.189-0.15c-0.03-0.05-0.091-0.1-0.19-0.16l0.08-0.22
					c-0.66-0.76-1.34-1.33-2.04-1.74l0.15-0.6c3.319,0,6.609-0.75,9.88-2.26c3.52-1.66,6.09-3.93,7.699-6.79
					c0.351,0.75,0.931,1.53,1.74,2.33c0.05-0.05,0.12-0.17,0.221-0.37c0.199,0.45,0.56,0.98,1.06,1.58
					c1.05,0.91,2.31,1.76,3.77,2.57c3.271,1.91,5.94,2.89,8,2.94l0.07,0.75c-0.25,0.11-0.47,0.19-0.67,0.27
					c-0.21,0.07-0.41,0.19-0.61,0.34c1.21,0.4,2.271,0.6,3.17,0.6l0.08,0.76c-2.569,0.7-3.85,3.24-3.85,7.62v8.45
					c0,1.15,0.1,2.18,0.3,3.09s0.53,1.71,0.98,2.41c0.3,0.21,0.529,0.33,0.68,0.38l-0.07,0.32l-0.08-0.021
					c-2.77-1.399-4.149-4.12-4.149-8.14v-8.46c0-4.62,1.359-7.29,4.07-7.99c-2.16-0.1-4.881-1.11-8.15-3.02
					c-3.32-1.96-5.5-3.87-6.561-5.74c-1.56,2.72-4.069,4.88-7.539,6.49C217.3,28.01,214,28.77,210.68,28.77z"/>
				<path fill="#1D1D1B" d="M209.1,28.92l0.221-0.05l0.079,0.35c-0.149,0.1-0.38,0.2-0.68,0.3c0.95,0.66,1.79,0.98,2.49,0.98
					l0.149,0.67v0.01c-2.56,1.16-3.85,3.25-3.85,6.26v10.04c0,2.16,0.18,3.7,0.53,4.601l0.229,0.449c0.25,0.21,0.57,0.381,0.98,0.53
					v0.38h-0.15c-1.76-0.8-2.899-1.859-3.399-3.17c-0.351-0.91-0.53-2.49-0.53-4.75V35.48C205.17,32.31,206.479,30.13,209.1,28.92z"
					/>
				<path fill="#FFFFFF" d="M193.399,28.91c1.631-0.15,3.221-1.22,4.761-3.24c1.25-1.66,2.229-3.54,2.939-5.66
					c0.601,1.77,1.63,3.6,3.09,5.51c1.71,2.17,3.351,3.3,4.91,3.4c-2.62,1.21-3.93,3.39-3.93,6.56v10.04c0,2.26,0.18,3.84,0.53,4.75
					c0.5,1.311,1.64,2.37,3.399,3.17c-1.96,1.061-3.55,2.34-4.76,3.851c-0.7,0.85-1.78,2.56-3.24,5.13
					c-0.76-1.311-1.399-2.391-1.92-3.25c-0.53-0.851-0.97-1.48-1.32-1.88c-1.21-1.511-2.8-2.79-4.76-3.851
					c1.71-0.8,2.84-1.859,3.4-3.17c0.35-0.91,0.53-2.49,0.53-4.75V35.48c0-3.07-1.221-5.19-3.631-6.38V28.91z"/>
				<path fill="#1D1D1B" d="M194.84,30.58c-0.46-0.39-0.94-0.72-1.44-1.01V29.1c2.41,1.19,3.631,3.31,3.631,6.38v10.04
					c0,2.26-0.181,3.84-0.53,4.75c-0.561,1.311-1.69,2.37-3.4,3.17c1.96,1.061,3.55,2.34,4.76,3.851
					c0.351,0.399,0.79,1.029,1.32,1.88c0.521,0.859,1.16,1.939,1.92,3.25c1.46-2.57,2.54-4.28,3.24-5.13
					c1.21-1.511,2.8-2.79,4.76-3.851h0.15v0.3c0.45,0.5,1.1,0.931,1.96,1.28v0.681c-1.811,0.96-3.351,2.22-4.601,3.779
					c-0.409,0.45-0.899,1.13-1.47,2.03c-0.58,0.91-1.27,2.09-2.08,3.55c-0.3-0.55-0.58-1.05-0.83-1.47
					c-0.25-0.43-0.5-0.82-0.75-1.17c-0.1,0.1-0.17,0.21-0.189,0.34c-0.03,0.12-0.09,0.24-0.19,0.34
					c-0.859-1.46-1.56-2.66-2.109-3.59c-0.561-0.93-1.03-1.59-1.44-2h-0.07c-0.449-0.4-0.939-0.78-1.47-1.13
					c-0.53-0.351-1.12-0.7-1.78-1.05c0.101-0.051,0.2-0.101,0.311-0.15c0.1-0.05,0.2-0.11,0.3-0.16c-0.71-0.55-1.56-1.1-2.57-1.66
					c2.011-1,3.301-2.08,3.851-3.239c0.35-0.91,0.529-2.44,0.529-4.601V35.48c0-0.75-0.09-1.43-0.27-2.03
					c-0.17-0.61-0.41-1.19-0.71-1.74c-0.15-0.1-0.3-0.19-0.45-0.26c-0.16-0.08-0.33-0.17-0.53-0.27L194.84,30.58z"/>
				<path fill="#1D1D1B" d="M193.399,28.91v0.19c-0.119-0.07-0.239-0.12-0.369-0.18C193.149,28.92,193.28,28.91,193.399,28.91z"/>
				<path fill="#FFFFFF" d="M201.1,19.49c-1.66-4.23-4.33-7.05-8-8.45c3.931-1.86,6.59-4.86,8-8.98c1.76,4.47,4.431,7.47,8,8.98
					C205.53,12.65,202.859,15.46,201.1,19.49z"/>
				<path fill="#1D1D1B" d="M202.68,21.75c-0.3-0.8-0.67-1.56-1.13-2.26c0,0.05-0.01,0.1-0.04,0.15c-0.02,0.05-0.03,0.1-0.03,0.15
					c0.25,0.75,0.601,1.56,1.051,2.41C202.63,22,202.68,21.85,202.68,21.75z M193.1,11.04c3.67,1.4,6.34,4.22,8,8.45
					c1.76-4.03,4.431-6.84,8-8.45c-3.569-1.51-6.24-4.51-8-8.98C199.689,6.18,197.03,9.18,193.1,11.04z M192.05,11.11
					c4.47-2.11,7.49-5.53,9.05-10.26c0.25,0.6,0.5,1.17,0.75,1.7c0.26,0.53,0.51,1.04,0.76,1.54c0.101-0.2,0.171-0.4,0.23-0.6
					c0.04-0.2,0.12-0.43,0.22-0.68c0.91,2.47,2.04,4.53,3.4,6.19c0.899,0.75,1.83,1.31,2.79,1.66v0.75c-0.05,0-0.08,0.03-0.08,0.08
					h-0.07c0.7,0.5,1.41,0.88,2.11,1.13v0.75c-3.271,1.41-5.86,4.21-7.771,8.38c0.851,2.11,1.86,3.95,3.021,5.51
					c0,0.05,0.02,0.1,0.07,0.15c0.96,0.75,1.859,1.13,2.72,1.13l0.07,0.33l-0.221,0.05c-1.56-0.1-3.2-1.23-4.91-3.4
					c-1.46-1.91-2.489-3.74-3.09-5.51c-0.71,2.12-1.689,4-2.939,5.66c-1.54,2.02-3.13,3.09-4.761,3.24v-0.4
					c1.57-0.18,3.051-1.2,4.46-3.06c0.551-0.71,1.061-1.54,1.54-2.49c0.48-0.96,0.921-2.01,1.32-3.17c-0.7-1.71-1.56-3.14-2.56-4.3
					c-1.21-1.01-2.59-1.81-4.15-2.42l0.9-0.45c-0.45-0.3-0.9-0.57-1.36-0.79C193.1,11.6,192.6,11.36,192.05,11.11z"/>
				<path fill="#1D1D1B" d="M193.03,28.92c0.13,0.06,0.25,0.11,0.369,0.18v0.47c-0.22-0.13-0.449-0.24-0.68-0.35l0.16-0.68
					c0.17,0,0.35-0.01,0.52-0.03v0.4C193.28,28.91,193.149,28.92,193.03,28.92z"/>
				<path fill="#1D1D1B" d="M184.24,61.97c-0.631,0.85-1.301,1.91-2,3.16c-0.301-0.5-0.591-0.96-0.87-1.391
					c-0.28-0.43-0.54-0.84-0.79-1.25l-0.26-0.149c0.59-1.08,1.18-2,1.77-2.79c0.6-0.8,1.18-1.48,1.73-2.04
					c0.96-0.9,2.64-2.01,5.06-3.32l0.37,0.16c0.66,0.7,1.46,1.28,2.42,1.73c-2.72,1.46-4.6,2.689-5.66,3.699h0.08
					C185.479,60.38,184.87,61.11,184.24,61.97z"/>
				<path fill="#FFFFFF" d="M175.67,28.01h-5.13v-3.39h5.13v-7.85c0-1.31-0.7-2.59-2.11-3.85c-0.399-0.35-0.79-0.68-1.17-0.98
					c-0.38-0.3-0.77-0.6-1.17-0.9l0.08-0.08c1.15-0.15,2.86-0.53,5.13-1.13c0.7-0.25,1.62-0.76,2.75-1.51s2.5-1.71,4.11-2.87
					c2.67-1.91,5.21-3.04,7.62-3.39l-0.07,0.98c-4.18,1.31-6.26,5.86-6.26,13.65v7.93c2.359,0,3.79-0.33,4.3-0.98
					c0.35-0.41,0.53-1.86,0.53-4.38h1.649v16h-1.649V33.9c0.04-0.3,0.069-0.56,0.069-0.76c0-0.25,0-0.45,0-0.6
					c0-1.86-0.35-3.08-1.06-3.66c-0.7-0.58-1.98-0.87-3.84-0.87v17.13c0,4.68,1.43,7.7,4.3,9.05c-2.42,1.311-4.1,2.42-5.06,3.32
					c-0.551,0.56-1.131,1.24-1.73,2.04c-0.59,0.79-1.18,1.71-1.77,2.79c-0.011,0.02-0.021,0.05-0.04,0.08
					c-1.311-2.271-2.49-3.931-3.551-4.98c-0.81-0.76-2.52-1.84-5.13-3.25c1.71-0.8,2.87-2.06,3.471-3.77
					c0.399-1.21,0.6-2.97,0.6-5.28V28.01z"/>
				<path fill="#1D1D1B" d="M170.54,28.01h5.13v17.13c0,2.311-0.2,4.07-0.6,5.28c-0.601,1.71-1.761,2.97-3.471,3.77
					c2.61,1.41,4.32,2.49,5.13,3.25c1.061,1.05,2.24,2.71,3.551,4.98c0.02-0.03,0.029-0.061,0.04-0.08l0.26,0.149
					c-0.05,0.101-0.101,0.221-0.15,0.341c-0.05,0.13-0.1,0.239-0.149,0.34c-0.561-0.9-1.07-1.71-1.551-2.41
					c-0.479-0.71-0.939-1.33-1.399-1.89c-0.55-0.4-1.2-0.83-1.96-1.28c-0.75-0.45-1.63-0.96-2.641-1.51
					c0.101-0.101,0.23-0.16,0.38-0.19c0.15-0.02,0.271-0.09,0.37-0.189c-0.399-0.25-0.83-0.5-1.279-0.75
					c-0.12-0.07-0.24-0.141-0.37-0.211c-0.34-0.189-0.69-0.399-1.061-0.619c2.11-1.061,3.42-2.341,3.92-3.851
					c0.4-1.21,0.61-2.92,0.61-5.13V30.35h-3.17v-1.96h-1.96v-4.15h5.13v-7.47c0-0.75-0.26-1.48-0.76-2.19
					c-0.351-0.25-0.7-0.51-1.061-0.79c-0.35-0.28-0.649-0.54-0.899-0.79l0.229-0.23c-0.41-0.3-0.8-0.6-1.17-0.9
					c-0.38-0.31-0.72-0.58-1.02-0.83l0.45-0.46c1.26-0.2,3.02-0.57,5.279-1.13h-0.069c0.75-0.25,1.68-0.74,2.79-1.47
					c1.1-0.73,2.439-1.67,4-2.83c2.659-1.91,5.399-3.09,8.22-3.55l-0.07,1.74c-1.16,0.35-2.17,0.96-3.02,1.81
					c1.659-0.75,3.34-1.28,5.05-1.58l-0.07,1.73c-4.18,1.31-6.26,5.76-6.26,13.36v5.5c0.8-0.15,1.35-0.4,1.66-0.75
					c0.3-0.35,0.45-1.86,0.45-4.53h2.409v1.96h1.96v7.67c-0.17,0.02-0.35,0.03-0.52,0.03l-0.16,0.68c0.23,0.11,0.46,0.22,0.68,0.35
					v8.02h-2.409v-1.81v-0.15h-1.96v-1.81c0.05-0.3,0.069-0.55,0.069-0.75c0-0.2,0-0.38,0-0.53c0-0.76-0.069-1.41-0.22-1.96
					c-0.56-0.15-1.21-0.23-1.96-0.23V47.1c0,2.62,0.52,4.75,1.58,6.41c0.2,0.11,0.39,0.21,0.57,0.31c0.17,0.101,0.38,0.2,0.64,0.301
					l-0.46,0.229l-0.37-0.16c-2.87-1.35-4.3-4.37-4.3-9.05V28.01c1.859,0,3.14,0.29,3.84,0.87c0.71,0.58,1.06,1.8,1.06,3.66
					c0,0.15,0,0.35,0,0.6c0,0.2-0.029,0.46-0.069,0.76v1.36h1.649v-16h-1.649c0,2.52-0.181,3.97-0.53,4.38
					c-0.51,0.65-1.94,0.98-4.3,0.98v-7.93c0-7.79,2.08-12.34,6.26-13.65l0.07-0.98c-2.41,0.35-4.95,1.48-7.62,3.39
					c-1.61,1.16-2.98,2.12-4.11,2.87s-2.05,1.26-2.75,1.51c-2.27,0.6-3.979,0.98-5.13,1.13l-0.08,0.08c0.4,0.3,0.79,0.6,1.17,0.9
					c0.38,0.3,0.771,0.63,1.17,0.98c1.41,1.26,2.11,2.54,2.11,3.85v7.85h-5.13V28.01z"/>
				<path fill="#FFFFFF" d="M153.45,26.69c3.27-1.48,5.899-3.71,7.89-6.68c0.65,1.21,1.25,2.26,1.81,3.14
					c0.551,0.88,1.061,1.59,1.511,2.15c1.26,1.4,2.939,2.61,5.05,3.62c-1.811,0.8-3.39,2.94-4.75,6.41c-0.55,1.31-0.99,2.64-1.32,4
					c-0.33,1.359-0.59,2.72-0.79,4.069H162.7c-0.41-3.21-1.091-6.229-2.04-9.05c-1.551-4.03-3.37-6.05-5.44-6.05L153.45,26.69z"/>
				<path fill="#FFFFFF" d="M162.62,56.911c-1.21,0.909-3.271,2.739-6.19,5.51c-0.95-1.66-3.17-3.57-6.64-5.74
					c-3.37-2.06-6.03-3.14-7.99-3.24c1.35-0.05,2.49-1.029,3.39-2.939c0.761-1.66,1.131-3.25,1.131-4.761v-8.45
					c0-3.87-1.53-6.66-4.601-8.37c4.55,0,8.46-0.74,11.73-2.23l1.77,1.61c-0.07,0-0.149,0-0.22,0.01v16.83
					c0,5.53,4.899,8.3,14.71,8.3C167.899,53.541,165.54,54.701,162.62,56.911z"/>
				<path fill="#1D1D1B" d="M156.43,62.42c2.92-2.771,4.98-4.601,6.19-5.51c2.92-2.21,5.279-3.37,7.09-3.471v0.38
					c-0.45,0.051-0.94,0.141-1.47,0.261c-0.53,0.13-1.07,0.34-1.62,0.64c0.75,0.1,1.55,0.18,2.38,0.23
					c0.83,0.05,1.72,0.069,2.67,0.069v0.76c-1.71,0.051-3.99,1.181-6.86,3.391c-1.109,0.81-3.27,2.75-6.489,5.81
					c-0.25-0.399-0.521-0.76-0.79-1.09c-0.28-0.33-0.591-0.689-0.94-1.09l-0.23,0.22c-0.149-0.25-0.3-0.46-0.449-0.64
					c-0.15-0.18-0.311-0.391-0.46-0.641c-0.551-0.449-1.15-0.909-1.811-1.359c-0.649-0.45-1.359-0.93-2.109-1.43
					c-3.32-2.011-5.91-3.07-7.771-3.171v-0.76c0.4,0,0.8-0.12,1.2-0.37c-0.601-0.25-1.18-0.439-1.73-0.569
					c-0.409-0.091-0.79-0.16-1.12-0.221c-0.109-0.01-0.21-0.029-0.31-0.04v-0.38c1.96,0.101,4.62,1.181,7.99,3.24
					C153.26,58.85,155.479,60.76,156.43,62.42z"/>
				<path fill="#1D1D1B" d="M141.8,53.06c1.2-0.1,2.21-1,3.01-2.71c0.761-1.66,1.141-3.2,1.141-4.61v-8.45
					c0-2.26-0.561-4.12-1.66-5.58c-0.16-0.1-0.311-0.2-0.46-0.3c-0.15-0.1-0.3-0.2-0.45-0.3l0.08-0.38
					c-0.26-0.3-0.561-0.58-0.91-0.83c-0.02-0.01-0.04-0.03-0.06-0.04c-0.33-0.24-0.69-0.47-1.07-0.72l0.15-0.6
					c9.05,0,15.64-3.07,19.77-9.2c0.25,0.5,0.49,0.96,0.71,1.39c0.23,0.43,0.47,0.84,0.72,1.25c0.101-0.1,0.19-0.22,0.271-0.34
					c0.069-0.13,0.16-0.24,0.26-0.34c1.16,2.16,2.16,3.85,3.021,5.05c0.55,0.41,1.21,0.83,1.96,1.29
					c0.56,0.34,1.159,0.66,1.779,0.97c0.21,0.11,0.42,0.21,0.63,0.31c-0.399,0.2-0.68,0.35-0.83,0.45c0.41,0.25,0.83,0.5,1.29,0.76
					c0.45,0.25,0.95,0.5,1.511,0.75c-2.17,0.96-3.95,3.14-5.36,6.56c-0.56,1.41-1.01,2.81-1.36,4.19
					c-0.35,1.39-0.63,2.76-0.83,4.109h-0.829c-0.101-0.8-0.21-1.579-0.341-2.34c-0.119-0.75-0.26-1.479-0.409-2.18
					c-0.11,0.45-0.181,0.89-0.23,1.32c-0.05,0.42-0.1,0.84-0.15,1.239h-0.829c-0.4-3.47-1.08-6.56-2.04-9.28
					c-0.25-0.7-0.511-1.34-0.79-1.92c-0.28-0.58-0.57-1.1-0.87-1.55c-0.25-0.1-0.48-0.18-0.681-0.23c-0.199-0.05-0.399-0.1-0.6-0.15
					V47.1c0,1.41,0.33,2.62,0.98,3.62c2.31,1.56,6.109,2.34,11.39,2.34v0.38c-9.811,0-14.71-2.77-14.71-8.3V28.31
					c0.07-0.01,0.149-0.01,0.22-0.01c2.07,0,3.89,2.02,5.44,6.05c0.949,2.82,1.63,5.84,2.04,9.05h0.149
					c0.2-1.35,0.46-2.71,0.79-4.069c0.33-1.36,0.771-2.69,1.32-4c1.36-3.47,2.939-5.61,4.75-6.41c-2.11-1.01-3.79-2.22-5.05-3.62
					c-0.45-0.56-0.96-1.27-1.511-2.15c-0.56-0.88-1.159-1.93-1.81-3.14c-1.99,2.97-4.62,5.2-7.89,6.68
					c-3.271,1.49-7.181,2.23-11.73,2.23c3.07,1.71,4.601,4.5,4.601,8.37v8.45c0,1.511-0.37,3.101-1.131,4.761
					c-0.899,1.91-2.04,2.89-3.39,2.939V53.06z"/>
				<path fill="#1D1D1B" d="M136.82,50.27c-0.36-0.91-0.53-2.49-0.53-4.75V35.48c0-3.17,1.31-5.35,3.92-6.56l0.22-0.05l0.08,0.35
					c-0.15,0.1-0.37,0.2-0.67,0.3c0.83,0.58,1.57,0.89,2.22,0.96c0.09,0.01,0.181,0.02,0.271,0.02l0.149,0.68
					c-2.569,1.16-3.85,3.25-3.85,6.26v10.04c0,2.16,0.17,3.7,0.53,4.601l0.22,0.449c0.25,0.21,0.58,0.381,0.979,0.53v0.38h-0.149
					C138.45,52.64,137.32,51.581,136.82,50.27z"/>
				<path fill="#FFFFFF" d="M132.22,19.49c-1.66-4.23-4.33-7.05-8-8.45c3.92-1.86,6.59-4.86,8-8.98c1.76,4.47,4.42,7.47,7.99,8.98
					C136.64,12.65,133.98,15.46,132.22,19.49z"/>
				<path fill="#FFFFFF" d="M128.14,45.52V35.48c0-3.22-1.33-5.4-4-6.56c1.76,0,3.47-1.08,5.13-3.25c1.26-1.66,2.24-3.54,2.95-5.66
					c0.6,1.77,1.63,3.6,3.09,5.51c1.71,2.17,3.34,3.3,4.9,3.4c-2.61,1.21-3.92,3.39-3.92,6.56v10.04c0,2.26,0.17,3.84,0.53,4.75
					c0.5,1.311,1.63,2.37,3.39,3.17c-1.96,1.061-3.54,2.34-4.75,3.851c-0.71,0.85-1.79,2.56-3.24,5.13
					c-0.76-1.311-1.4-2.391-1.93-3.25c-0.53-0.851-0.97-1.48-1.32-1.88c-1.21-1.511-2.79-2.79-4.75-3.851
					c1.71-0.8,2.84-1.859,3.39-3.17C127.96,49.36,128.14,47.78,128.14,45.52z"/>
				<path fill="#1D1D1B" d="M125.95,55.02c-0.7-0.55-1.56-1.1-2.56-1.66c0.01,0,0.01-0.01,0.02-0.01c2-1,3.27-2.07,3.83-3.229
					c0.35-0.91,0.52-2.44,0.52-4.601V35.48c0-0.75-0.09-1.43-0.26-2.03c-0.18-0.61-0.42-1.19-0.72-1.74
					c-0.15-0.1-0.3-0.19-0.45-0.26c-0.15-0.08-0.33-0.17-0.53-0.27l0.15-0.6c-0.65-0.56-1.36-1.01-2.11-1.36l0.08-0.35l0.22,0.05
					c2.67,1.16,4,3.34,4,6.56v10.04c0,2.26-0.18,3.84-0.53,4.75c-0.55,1.311-1.68,2.37-3.39,3.17c1.96,1.061,3.54,2.34,4.75,3.851
					c0.35,0.399,0.79,1.029,1.32,1.88c0.53,0.859,1.17,1.939,1.93,3.25c1.45-2.57,2.53-4.28,3.24-5.13
					c1.21-1.511,2.79-2.79,4.75-3.851h0.149v0.3c0.12,0.131,0.24,0.25,0.381,0.36c0.42,0.351,0.939,0.66,1.59,0.92v0.681
					c-1.82,0.96-3.35,2.22-4.61,3.779c-0.4,0.45-0.89,1.13-1.47,2.03c-0.58,0.91-1.27,2.09-2.07,3.55c-0.3-0.55-0.58-1.05-0.83-1.47
					c-0.26-0.43-0.51-0.82-0.76-1.17c-0.1,0.1-0.16,0.21-0.19,0.34c-0.02,0.12-0.08,0.24-0.18,0.34c-0.86-1.46-1.56-2.66-2.12-3.59
					c-0.55-0.93-1.03-1.59-1.43-2h-0.08c-0.45-0.4-0.94-0.78-1.47-1.13c-0.53-0.351-1.12-0.7-1.77-1.05
					c0.1-0.051,0.2-0.101,0.3-0.15S125.85,55.07,125.95,55.02z"/>
				<path fill="#1D1D1B" d="M133.8,21.75c-0.3-0.8-0.68-1.56-1.13-2.26c0,0.05-0.02,0.1-0.04,0.15c-0.03,0.05-0.04,0.1-0.04,0.15
					c0.25,0.75,0.61,1.56,1.06,2.41C133.75,22,133.8,21.85,133.8,21.75z M124.22,11.04c3.67,1.4,6.34,4.22,8,8.45
					c1.76-4.03,4.42-6.84,7.99-8.45c-3.57-1.51-6.23-4.51-7.99-8.98C130.81,6.18,128.14,9.18,124.22,11.04z M124.67,11.83
					c-0.45-0.23-0.95-0.47-1.51-0.72c4.48-2.11,7.5-5.53,9.06-10.26c0.25,0.6,0.5,1.17,0.75,1.7c0.25,0.53,0.5,1.04,0.75,1.54
					c0.1-0.2,0.18-0.4,0.23-0.6c0.05-0.2,0.13-0.43,0.23-0.68c0.9,2.47,2.03,4.53,3.39,6.19c0.91,0.75,1.84,1.31,2.79,1.66v0.75
					c-0.05,0-0.069,0.03-0.069,0.08h-0.08c0.71,0.5,1.41,0.88,2.12,1.13v0.75c-3.28,1.41-5.87,4.21-7.78,8.38
					c0.86,2.11,1.86,3.95,3.02,5.51c0,0.05,0.03,0.1,0.08,0.15c0.95,0.75,1.86,1.13,2.709,1.13l0.07,0.33l-0.22,0.05
					c-1.56-0.1-3.19-1.23-4.9-3.4c-1.46-1.91-2.49-3.74-3.09-5.51c-0.71,2.12-1.69,4-2.95,5.66c-1.66,2.17-3.37,3.25-5.13,3.25
					l-0.22-0.05l0.07-0.33c1.76,0,3.42-1.03,4.98-3.09c0.55-0.71,1.07-1.54,1.55-2.49c0.47-0.96,0.91-2.01,1.32-3.17
					c-0.71-1.71-1.56-3.14-2.57-4.3c-1.2-1.01-2.59-1.81-4.15-2.42l0.91-0.45C125.58,12.32,125.12,12.05,124.67,11.83z"/>
				<path fill="#FFFFFF" d="M115.92,6.74c3.82-2.72,6.84-4.28,9.05-4.68v1.2c-2.16,0.61-3.85,2.49-5.05,5.66
					c-0.96,2.42-1.44,5.03-1.44,7.85v28.37c0,2.26,0.23,3.87,0.68,4.83c0.61,1.26,1.79,2.31,3.55,3.17c-1.06,0.55-2,1.17-2.83,1.85
					c-0.83,0.681-1.57,1.37-2.23,2.07c-0.95,1.11-2.13,2.891-3.54,5.36c-0.71-1.26-1.35-2.33-1.93-3.21s-1.12-1.59-1.62-2.15
					c-1.36-1.51-3.07-2.82-5.13-3.92c1.76-0.81,2.92-1.86,3.47-3.17c0.4-1.06,0.61-2.67,0.61-4.83v-8.53c0-4.27-1.39-7.19-4.15-8.75
					c1.86-1.1,3.06-2.36,3.62-3.77c0.4-1.06,0.6-2.79,0.6-5.21c0-4.62-1.46-7.42-4.38-8.37c0.26,0.05,0.48,0.07,0.68,0.07
					c0.25,0,0.51,0,0.76,0C109.2,10.58,112.3,9.3,115.92,6.74z"/>
				<path fill="#1D1D1B" d="M119.92,8.92c1.2-3.17,2.89-5.05,5.05-5.66v-1.2c-2.21,0.4-5.23,1.96-9.05,4.68
					c-3.62,2.56-6.72,3.84-9.28,3.84c-0.25,0-0.51,0-0.76,0c-0.2,0-0.42-0.02-0.68-0.07c2.92,0.95,4.38,3.75,4.38,8.37
					c0,2.42-0.2,4.15-0.6,5.21c-0.56,1.41-1.76,2.67-3.62,3.77c2.76,1.56,4.15,4.48,4.15,8.75v8.53c0,2.16-0.21,3.771-0.61,4.83
					c-0.55,1.31-1.71,2.36-3.47,3.17c2.06,1.1,3.77,2.41,5.13,3.92c0.5,0.561,1.04,1.271,1.62,2.15s1.22,1.95,1.93,3.21
					c1.41-2.47,2.59-4.25,3.54-5.36c0.66-0.7,1.4-1.39,2.23-2.07c0.83-0.68,1.77-1.3,2.83-1.85c-1.76-0.86-2.94-1.91-3.55-3.17
					c-0.45-0.96-0.68-2.57-0.68-4.83V16.77C118.48,13.95,118.96,11.34,119.92,8.92z M122.18,5.53c1.01-0.56,1.94-0.98,2.79-1.28
					c0.86-0.31,1.64-0.53,2.34-0.68v1.66l-0.3,0.37c-2.06,0.56-3.65,2.37-4.75,5.44c-0.96,2.41-1.44,4.98-1.44,7.69V47.1
					c0,2.22,0.23,3.771,0.68,4.68c0,0.101,0.03,0.181,0.08,0.23c0.55,0.4,1.2,0.75,1.96,1.05c-0.08,0.05-0.15,0.101-0.21,0.141
					c-0.2,0.119-0.36,0.199-0.47,0.239c0.7,0.65,1.58,1.181,2.64,1.58c-1.26,0.71-2.34,1.41-3.24,2.12
					c-0.91,0.7-1.69,1.41-2.34,2.11c-0.96,1.06-2.24,2.989-3.85,5.81c-0.3-0.55-0.58-1.03-0.83-1.43c-0.25-0.41-0.5-0.811-0.76-1.21
					c-0.05,0.05-0.17,0.27-0.37,0.68c-0.71-1.16-1.34-2.189-1.89-3.1c-0.55-0.9-1.08-1.66-1.58-2.261
					c-0.56-0.449-1.17-0.899-1.85-1.359c-0.68-0.45-1.42-0.9-2.23-1.36c0.1-0.05,0.22-0.1,0.34-0.149
					c0.13-0.051,0.24-0.101,0.34-0.15c-0.4-0.3-0.82-0.59-1.24-0.87c-0.43-0.27-0.9-0.54-1.4-0.79c2.06-0.95,3.37-2.04,3.92-3.24
					c0.41-1.06,0.61-2.619,0.61-4.68v-8.53c0-2.56-0.58-4.65-1.74-6.26c-0.1-0.1-0.22-0.19-0.37-0.26
					c-0.16-0.08-0.28-0.17-0.38-0.27l0.3-0.15c-0.3-0.4-0.65-0.74-1.06-1.02c-0.4-0.27-0.8-0.54-1.2-0.79
					c2.06-1.26,3.37-2.56,3.92-3.92c0.4-1.06,0.6-2.74,0.6-5.06c0-2.36-0.4-4.2-1.2-5.51c-0.21-0.15-0.56-0.32-1.06-0.52l0.15-0.68
					c-0.65-0.61-1.36-1.03-2.11-1.28l0.22-0.76c0.26,0.05,0.48,0.08,0.68,0.08c0.25,0,0.51,0,0.76,0c2.46,0,5.48-1.26,9.05-3.78
					c2.01-1.46,3.82-2.56,5.43-3.32c1.61-0.75,3.02-1.25,4.23-1.51v1.66l-0.3,0.38C123.94,3.94,122.99,4.57,122.18,5.53z"/>
				<path fill="#1D1D1B" d="M90.27,17.07c-0.86-2.36-2.77-4.55-5.74-6.56c2.77-0.05,5.26,1.08,7.47,3.39
					c2.21,2.37,3.42,4.91,3.62,7.62c0.05,1.01,0.09,1.87,0.12,2.57c0.02,0.7,0.03,1.31,0.03,1.81H91.1
					C91.1,21.67,90.82,18.73,90.27,17.07z M86.57,11.26c0.05-0.05,0.12-0.1,0.22-0.15c-0.4-0.1-0.75-0.15-1.05-0.15
					c0.1,0.1,0.2,0.18,0.3,0.23c0.1,0.05,0.2,0.12,0.3,0.22C86.44,11.36,86.52,11.31,86.57,11.26z M88.08,12.92
					c0.1,0.15,0.21,0.29,0.34,0.42c0.12,0.12,0.23,0.26,0.34,0.41c1.86,1.51,3.14,3.22,3.84,5.13c0.2,0.66,0.37,1.54,0.49,2.64
					c0.13,1.11,0.22,2.44,0.27,4h2.04c0-0.3,0-0.65,0-1.05c0-0.41-0.03-0.88-0.08-1.44c0-0.25-0.01-0.5-0.04-0.75
					c-0.02-0.25-0.03-0.5-0.03-0.76c-0.26-2.46-1.26-4.7-3.02-6.71C90.97,13.8,89.59,13.17,88.08,12.92z"/>
				<path fill="#FFFFFF" d="M92,13.9c-2.21-2.31-4.7-3.44-7.47-3.39l-0.3-0.66c0.52-0.22,1.02-0.49,1.51-0.78
					c3.02-1.71,4.9-4.04,5.66-7.01c2.36,4.37,6.69,7.29,12.97,8.75c-4.02,1.76-6.13,5.33-6.33,10.71l-0.18,4.47l-2.09-0.09
					c0-0.5-0.01-1.11-0.03-1.81c-0.03-0.7-0.07-1.56-0.12-2.57C95.42,18.81,94.21,16.27,92,13.9z"/>
				<path fill="#FFFFFF" d="M82.19,28.62h-5.2V25.9h5.2v-1.96c0.05-0.4,0.08-0.76,0.08-1.06c0-0.35,0-0.65,0-0.9
					c0-2.77-0.33-4.83-0.98-6.19c-0.86-1.96-2.34-3.42-4.45-4.38c2.69,0,5.16-0.52,7.39-1.56l0.3,0.66c2.97,2.01,4.88,4.2,5.74,6.56
					c0.55,1.66,0.83,4.6,0.83,8.83h4.67l2.09,0.09l-0.35,8.51h-1.36l-0.23-5.88H91.1v16.67c0,5.13,3.09,7.699,9.28,7.699
					c0.45,0,0.86-0.02,1.24-0.039c0.38-0.03,0.74-0.061,1.1-0.11v0.6c-1.46,0-2.9,0.21-4.31,0.641c-1.4,0.43-2.71,1.05-3.92,1.85
					s-2.31,1.75-3.32,2.83c-1.01,1.08-1.81,2.3-2.41,3.66c-0.51-1.061-1.16-2.08-1.97-3.061c-0.8-0.979-1.69-1.87-2.67-2.68
					c-0.98-0.8-2.03-1.5-3.13-2.11c-1.11-0.6-2.24-1.06-3.4-1.359c1.56-0.3,2.74-1.28,3.55-2.94c0.7-1.51,1.05-3.069,1.05-4.68
					V28.62z"/>
				<path fill="#1D1D1B" d="M78.04,12.39l0.02,0.17c-0.13-0.08-0.26-0.16-0.39-0.24c-0.01-0.01-0.02-0.01-0.03-0.02
					C77.77,12.34,77.91,12.36,78.04,12.39z"/>
				<path fill="#1D1D1B" d="M76.99,28.62h5.2v16.97c0,1.61-0.35,3.17-1.05,4.68c-0.81,1.66-1.99,2.641-3.55,2.94
					c1.16,0.3,2.29,0.76,3.4,1.359c1.1,0.61,2.15,1.311,3.13,2.11c0.98,0.81,1.87,1.7,2.67,2.68c0.81,0.98,1.46,2,1.97,3.061
					c0.6-1.36,1.4-2.58,2.41-3.66c1.01-1.08,2.11-2.03,3.32-2.83s2.52-1.42,3.92-1.85c1.41-0.431,2.85-0.641,4.31-0.641v-0.6
					c-0.36,0.05-0.72,0.08-1.1,0.11c-0.38,0.02-0.79,0.039-1.24,0.039c-6.19,0-9.28-2.569-9.28-7.699V28.62h4.82l0.23,5.88h1.36
					l0.35-8.51l0.18-4.47c0.2-5.38,2.31-8.95,6.33-10.71C98.09,9.35,93.76,6.43,91.4,2.06c-0.76,2.97-2.64,5.3-5.66,7.01
					c-0.49,0.29-0.99,0.56-1.51,0.78c-2.23,1.04-4.7,1.56-7.39,1.56c2.11,0.96,3.59,2.42,4.45,4.38c0.65,1.36,0.98,3.42,0.98,6.19
					c0,0.25,0,0.55,0,0.9c0,0.3-0.03,0.66-0.08,1.06v1.96h-5.2V28.62z M79.32,55.48V54.8c0.11,0,0.23-0.03,0.38-0.08
					s0.28-0.1,0.38-0.15c-0.76-0.38-1.45-0.67-2.1-0.88c-0.21-0.069-0.42-0.13-0.62-0.18v-0.67c1.56-0.311,2.72-1.21,3.47-2.72
					h-0.07c0.35-0.7,0.61-1.42,0.79-2.15s0.27-1.52,0.27-2.38V30.95h-3.25v-1.96h-1.96v-3.47h5.21v-1.58
					c0.04-0.4,0.07-0.76,0.07-1.06c0-0.35,0-0.65,0-0.9c0-2.67-0.33-4.68-0.98-6.04c-0.1-0.25-0.22-0.46-0.34-0.64
					c-0.13-0.18-0.24-0.39-0.34-0.64c-0.25-0.2-0.53-0.38-0.83-0.53c-0.3-0.15-0.6-0.3-0.9-0.45L78.65,13
					c-0.19-0.15-0.39-0.3-0.59-0.44l-0.02-0.17c-0.13-0.03-0.27-0.05-0.4-0.09c-0.35-0.19-0.71-0.39-1.11-0.58l0.15-0.68
					c3.32,0,6.27-0.76,8.83-2.27c2.92-1.71,4.83-4.27,5.74-7.69c0.25,0.5,0.51,0.98,0.79,1.43c0.27,0.45,0.59,0.88,0.94,1.28
					c0.05-0.1,0.09-0.22,0.11-0.37c0.03-0.16,0.07-0.28,0.12-0.38c0.55,1.11,1.25,2.16,2.11,3.17c2.36,1.96,5.41,3.37,9.13,4.22
					l0.08,0.76l-0.91,0.45c0.45,0.15,0.91,0.29,1.36,0.41c0.45,0.13,0.93,0.24,1.43,0.34l0.05,0.51l0.03,0.25
					c-3.88,1.66-5.91,5.1-6.11,10.34l-0.53,13.35h-2.11l-0.08-1.96h-1.89l-0.15-3.93h-2.19v16.3c0,1.609,0.31,2.97,0.91,4.08
					c1.36,0.85,3.37,1.279,6.04,1.279c0.3,0,0.69-0.01,1.17-0.04c0.47-0.02,0.99-0.09,1.54-0.189v1.439c-1.36,0-2.59,0.17-3.69,0.53
					c0.8,0.15,1.78,0.22,2.94,0.22c0.3,0,0.69-0.01,1.17-0.04c0.47-0.02,0.99-0.079,1.54-0.18v1.43c-1.46,0-2.9,0.23-4.33,0.681
					c-1.44,0.45-2.78,1.1-4.04,1.96c-1.26,0.859-2.4,1.87-3.43,3.05c-1.04,1.19-1.88,2.48-2.53,3.89
					c-0.45-0.96-0.98-1.859-1.59-2.72c-0.2,0.311-0.32,0.561-0.37,0.76c-0.71-1.41-1.66-2.84-2.87-4.3
					C83.78,57.291,81.59,56.081,79.32,55.48z"/>
				<path fill="#1D1D1B" d="M58.2,11.26c0.05-0.05,0.12-0.1,0.23-0.15c-0.41-0.1-0.76-0.15-1.06-0.15c0.1,0.1,0.2,0.18,0.3,0.23
					c0.1,0.05,0.2,0.12,0.3,0.22C58.07,11.36,58.15,11.31,58.2,11.26z M60.05,13.34c0.12,0.12,0.24,0.26,0.34,0.41
					c1.86,1.51,3.14,3.22,3.85,5.13c0.2,0.66,0.36,1.54,0.49,2.64c0.12,1.11,0.21,2.44,0.26,4h2.04c0-0.3,0-0.65,0-1.05
					c0-0.41-0.03-0.88-0.08-1.44c0-0.25-0.01-0.5-0.04-0.75c-0.02-0.25-0.03-0.5-0.03-0.76c-0.26-2.46-1.26-4.7-3.02-6.71
					c-1.26-1.01-2.64-1.64-4.15-1.89C59.81,13.07,59.92,13.21,60.05,13.34z M56.16,10.51c2.77-0.05,5.26,1.08,7.47,3.39
					c2.21,2.37,3.42,4.91,3.62,7.62c0.05,1.01,0.09,1.87,0.12,2.57c0.02,0.7,0.03,1.31,0.03,1.81h-4.67c0-4.23-0.28-7.17-0.83-8.83
					C61.04,14.71,59.13,12.52,56.16,10.51z"/>
				<path fill="#FFFFFF" d="M63.63,13.9c-2.21-2.31-4.7-3.44-7.47-3.39l-0.3-0.66c0.52-0.22,1.02-0.49,1.51-0.78
					c3.02-1.71,4.9-4.04,5.66-7.01c2.36,4.37,6.69,7.29,12.98,8.75c-4.03,1.76-6.14,5.33-6.34,10.71l-0.18,4.47L67.4,25.9
					c0-0.5-0.01-1.11-0.03-1.81c-0.03-0.7-0.07-1.56-0.12-2.57C67.05,18.81,65.84,16.27,63.63,13.9z"/>
				<path fill="#FFFFFF" d="M52.92,15.79c-0.86-1.96-2.34-3.42-4.45-4.38c2.7,0,5.16-0.51,7.39-1.56l0.3,0.66
					c2.97,2.01,4.88,4.2,5.74,6.56c0.55,1.66,0.83,4.6,0.83,8.83h4.67l2.09,0.09l-0.35,8.51h-1.36l-0.22-5.88h-4.83v16.67
					c0,2.96,1.03,5.069,3.09,6.3c1.51,0.939,3.57,1.399,6.19,1.399c0.45,0,0.86-0.02,1.24-0.039c0.38-0.03,0.74-0.061,1.1-0.11v0.6
					c-1.46,0-2.9,0.21-4.3,0.641c-1.41,0.43-2.72,1.05-3.93,1.85c-1.21,0.8-2.31,1.75-3.32,2.83c-1,1.08-1.81,2.3-2.41,3.66
					c-0.51-1.061-1.16-2.08-1.96-3.061c-0.81-0.979-1.7-1.87-2.68-2.68c-0.98-0.8-2.03-1.5-3.13-2.11
					c-0.65-0.35-1.3-0.649-1.97-0.899v-0.38h-0.9c-0.1,0-0.19,0-0.28-0.011c-0.08-0.029-0.17-0.05-0.25-0.069
					c1.56-0.3,2.74-1.28,3.55-2.94c0.7-1.51,1.05-3.069,1.05-4.68V28.62h-5.2V25.9h5.2v-1.96c0.05-0.4,0.08-0.76,0.08-1.06
					c0-0.35,0-0.65,0-0.9C53.9,19.21,53.57,17.15,52.92,15.79z"/>
				<path fill="#1D1D1B" d="M50.96,55.48V54.8c0.1,0,0.22-0.03,0.37-0.08c0.15-0.05,0.28-0.1,0.38-0.15
					c-0.37-0.18-0.72-0.34-1.06-0.479v-0.42c0.67,0.25,1.32,0.55,1.97,0.899c1.1,0.61,2.15,1.311,3.13,2.11
					c0.98,0.81,1.87,1.7,2.68,2.68c0.8,0.98,1.45,2,1.96,3.061c0.6-1.36,1.41-2.58,2.41-3.66c1.01-1.08,2.11-2.03,3.32-2.83
					c1.21-0.8,2.52-1.42,3.93-1.85c1.4-0.431,2.84-0.641,4.3-0.641v-0.6c-0.36,0.05-0.72,0.08-1.1,0.11
					c-0.38,0.02-0.79,0.039-1.24,0.039c-2.62,0-4.68-0.46-6.19-1.399l0.15-0.26c1.36,0.85,3.37,1.279,6.04,1.279
					c0.3,0,0.69-0.01,1.17-0.04c0.47-0.02,0.99-0.09,1.54-0.189v1.439c-1.36,0-2.59,0.17-3.69,0.53c0.8,0.15,1.78,0.22,2.94,0.22
					c0.3,0,0.69-0.01,1.17-0.04c0.48-0.02,0.99-0.079,1.54-0.18v1.43c-1.45,0-2.9,0.23-4.33,0.681c-1.44,0.45-2.78,1.1-4.04,1.96
					c-1.26,0.859-2.4,1.87-3.43,3.05c-1.04,1.19-1.88,2.48-2.53,3.89c-0.45-0.96-0.98-1.859-1.59-2.72
					c-0.2,0.311-0.32,0.561-0.37,0.76c-0.71-1.41-1.66-2.84-2.87-4.3C55.41,57.291,53.22,56.081,50.96,55.48z"/>
				<path fill="#1D1D1B" d="M49.75,53.291h0.9v0.38c-0.39-0.15-0.78-0.28-1.18-0.391C49.56,53.291,49.65,53.291,49.75,53.291z"/>
				<path fill="#1D1D1B" d="M49.47,53.28c0.4,0.11,0.79,0.24,1.18,0.391v0.42c-0.59-0.26-1.14-0.45-1.66-0.58v-0.28
					C49.12,53.26,49.28,53.28,49.47,53.28z"/>
				<path fill="#1D1D1B" d="M48.47,11.41c2.11,0.96,3.59,2.42,4.45,4.38c0.65,1.36,0.98,3.42,0.98,6.19c0,0.25,0,0.55,0,0.9
					c0,0.3-0.03,0.66-0.08,1.06v1.96h-5.2v2.72h5.2v16.97c0,1.61-0.35,3.17-1.05,4.68c-0.81,1.66-1.99,2.641-3.55,2.94
					c0.08,0.02,0.17,0.04,0.25,0.069c-0.19,0-0.35-0.02-0.48-0.05v-0.39c1.56-0.311,2.72-1.21,3.47-2.72h-0.07
					c0.35-0.7,0.62-1.42,0.79-2.15c0.18-0.73,0.27-1.52,0.27-2.38V30.95H50.2v-1.96h-1.96v-3.47h5.21v-1.58
					c0.05-0.4,0.07-0.76,0.07-1.06c0-0.35,0-0.65,0-0.9c0-2.67-0.33-4.68-0.98-6.04c-0.1-0.25-0.21-0.46-0.34-0.64
					c-0.13-0.18-0.24-0.39-0.34-0.64c-0.25-0.2-0.53-0.38-0.83-0.53c-0.3-0.15-0.6-0.3-0.9-0.45L50.28,13
					c-0.31-0.25-0.63-0.48-0.98-0.68c-0.36-0.2-0.73-0.4-1.14-0.6l0.16-0.68c3.31,0,6.26-0.76,8.82-2.27
					c2.92-1.71,4.83-4.27,5.74-7.69c0.25,0.5,0.51,0.98,0.79,1.43c0.28,0.45,0.59,0.88,0.94,1.28c0.05-0.1,0.09-0.22,0.12-0.37
					c0.02-0.16,0.06-0.28,0.11-0.38c0.55,1.11,1.26,2.16,2.11,3.17c2.37,1.96,5.41,3.37,9.13,4.22l0.08,0.76l-0.91,0.45
					c0.45,0.15,0.91,0.29,1.36,0.41c0.33,0.09,0.67,0.18,1.03,0.25c0.01,0.01,0.02,0.01,0.03,0.02c0.13,0.08,0.26,0.16,0.39,0.24
					l0.06,0.59c-3.88,1.66-5.91,5.1-6.11,10.34l-0.53,13.35h-2.11l-0.08-1.96H67.4l-0.15-3.93h-2.18v16.3c0,1.609,0.3,2.97,0.9,4.08
					l-0.15,0.26c-2.06-1.23-3.09-3.34-3.09-6.3V28.62h4.83l0.22,5.88h1.36l0.35-8.51l0.18-4.47c0.2-5.38,2.31-8.95,6.34-10.71
					c-6.29-1.46-10.62-4.38-12.98-8.75c-0.76,2.97-2.64,5.3-5.66,7.01c-0.49,0.29-0.99,0.56-1.51,0.78
					C53.63,10.9,51.17,11.41,48.47,11.41z"/>
				<path fill="#1D1D1B" d="M38.05,62.27c2.37-4.63,5.79-7.62,10.27-8.979v-1.59c-0.8,0.09-1.57-0.04-2.3-0.4l0.15-0.28
					c0.46,0.21,1,0.311,1.62,0.311h0.9v1.81c0.08,0.04,0.18,0.07,0.3,0.09v0.28c0.52,0.13,1.07,0.32,1.66,0.58v1.16l-0.3,0.38
					c-4.32,1.359-7.72,4.399-10.18,9.13c-0.71-0.36-1.53-0.93-2.46-1.74c-0.93-0.8-1.99-1.81-3.2-3.02l-0.3-0.3l-0.16-0.15
					l-1.5-1.51c-1.61-1.36-3.27-2.16-4.98-2.41v-1.36h0.15c-0.76-0.35-1.46-0.55-2.12-0.6v-1.36c2.82-0.76,4.23-3.12,4.23-7.09
					c0-0.61-0.11-1.73-0.34-3.36c-0.03-0.21-0.06-0.42-0.09-0.64l0.35-0.04c0.31,1.99,0.46,3.33,0.46,4.04
					c0,4.17-1.41,6.63-4.23,7.39v0.681c2.01,0.25,4.1,1.529,6.26,3.85C34.96,60,36.9,61.71,38.05,62.27z"/>
				<path fill="#1D1D1B" d="M28.32,33.37c0.65,3.22,1.13,5.82,1.43,7.81l-0.35,0.04c-0.24-1.54-0.6-3.45-1.08-5.74h-0.07
					c-3.32,0-5.76,1.28-7.32,3.851c-1.31,2.159-1.97,5.01-1.97,8.529c0,2.311,0.43,4.07,1.29,5.28c0.53,0.34,1.09,0.59,1.71,0.76
					l-0.09,0.36c-3.49-0.95-5.24-3.74-5.24-8.37c0-1.36,0.09-2.62,0.28-3.77c0.32-1.94,0.9-3.591,1.75-4.98
					c1.66-2.65,4.18-3.99,7.59-4c0.01,0,0.02,0,0.03,0C26.94,33.14,27.62,33.22,28.32,33.37z"/>
				<path fill="#1D1D1B" d="M20.47,6.58c1.11,0.81,1.97,1.82,2.57,3.02c-0.35-1.1-0.88-2.11-1.59-3.02
					c-0.55-0.4-1.18-0.75-1.88-1.05c0.2,0.15,0.36,0.31,0.49,0.49C20.18,6.2,20.32,6.38,20.47,6.58z M24.1,14.2
					c0,1.56-0.33,3.68-0.99,6.34c-0.6,2.72-0.9,4.76-0.9,6.11c0,1.51,0.23,2.75,0.68,3.7c0.7,0.35,1.63,0.53,2.79,0.53
					c0.25,0,0.53,0,0.83,0c0.3,0,0.63-0.05,0.98-0.15L24.1,13.6V14.2z M13.15,2.66c3.02-0.25,5.46,0.48,7.32,2.19
					c1.86,1.71,3.1,4.1,3.7,7.17l3.77,19.01c-0.64,0.11-1.22,0.19-1.75,0.22c-0.18,0-0.35,0.01-0.51,0.01
					c-3.87,0-5.81-2.19-5.81-6.57c0-1.41,0.3-3.47,0.91-6.18c0.65-2.67,0.98-4.76,0.98-6.27c0-3.77-1.41-6.41-4.23-7.92
					c-0.8-0.25-1.58-0.51-2.34-0.79c-0.07-0.03-0.14-0.05-0.21-0.07c-0.68-0.26-1.39-0.49-2.13-0.72L13.15,2.66z"/>
				<path fill="#FFFFFF" d="M15.19,38.121c0-2.46-1.88-4.57-5.66-6.34c5.13-1.1,8.43-7.14,9.89-18.1c0.05-0.25,0.07-0.48,0.07-0.68
					c0-0.25,0-0.48,0-0.68c0-2.11-0.7-3.9-2.11-5.36c-0.85-0.97-1.82-1.65-2.93-2.01l0.53-1.49c0.07,0.02,0.14,0.04,0.21,0.07
					c0.76,0.28,1.54,0.54,2.34,0.79c2.82,1.51,4.23,4.15,4.23,7.92c0,1.51-0.33,3.6-0.98,6.27c-0.61,2.71-0.91,4.77-0.91,6.18
					c0,4.38,1.94,6.57,5.81,6.57c0.16,0,0.33-0.01,0.51-0.01l0.06,1.89c-3.41,0.01-5.93,1.35-7.59,4c-0.85,1.39-1.43,3.04-1.75,4.98
					l-2.13-0.08c0.06-0.311,0.1-0.61,0.15-0.9C15.1,39.98,15.19,38.98,15.19,38.121z"/>
				<path fill="#FFFFFF" d="M5.65,13.98c-0.88-1.21-1.32-2.59-1.32-4.15c0-2.72,1.18-4.98,3.54-6.79c2.22-1.61,4.71-2.42,7.47-2.42
					c3.32,0,6.67,1.16,10.04,3.47c1.86,1.26,3.43,2.28,4.71,3.06c1.29,0.78,2.31,1.3,3.06,1.55c2.01,0.75,5,1.13,8.98,1.13v1.51
					c-0.2-0.05-0.51-0.08-0.91-0.08c-3.42,0-5.13,1.89-5.13,5.66c0,1.16,0.15,2.44,0.46,3.85l4.3,22.03
					c0.45,2.11,1.25,4.08,2.41,5.89c0.86,1.261,1.78,2.13,2.76,2.61c0.73,0.36,1.5,0.49,2.3,0.4v1.59
					c-4.48,1.359-7.9,4.35-10.27,8.979c-1.15-0.56-3.09-2.27-5.81-5.13c-2.16-2.32-4.25-3.6-6.26-3.85V52.61
					c2.82-0.76,4.23-3.22,4.23-7.39c0-0.71-0.15-2.05-0.46-4.04c-0.3-1.99-0.78-4.59-1.43-7.81c-0.7-0.15-1.38-0.23-2.04-0.23
					c-0.01,0-0.02,0-0.03,0l-0.06-1.89c0.53-0.03,1.11-0.11,1.75-0.22l-3.77-19.01c-0.6-3.07-1.84-5.46-3.7-7.17
					c-1.86-1.71-4.3-2.44-7.32-2.19l-0.3,0.08c0.74,0.23,1.45,0.46,2.13,0.72l-0.53,1.49c-0.66-0.22-1.37-0.33-2.13-0.33
					c-0.75,0-1.49,0.17-2.22,0.49C9.37,5.44,8.72,5.87,8.14,6.4C7.56,6.92,7.11,7.54,6.78,8.24c-0.33,0.71-0.49,1.44-0.49,2.19
					c0,1.16,0.34,2.17,1.02,3.02c0.68,0.86,1.57,1.28,2.68,1.28c0.25,0,0.59-0.05,1.01-0.15c0.43-0.1,0.75-0.15,0.95-0.15
					c0.2,0,0.35,0.05,0.45,0.15c-0.11,0.2-0.26,0.38-0.45,0.53c-0.57,0.46-1.47,0.68-2.72,0.68C7.72,15.79,6.53,15.19,5.65,13.98z"
					/>
				<path fill="#1D1D1B" d="M4.7,13.26c-0.5-1.03-0.75-2.17-0.75-3.43c0-2.82,1.23-5.18,3.7-7.09c2.26-1.66,4.83-2.49,7.69-2.49
					c3.42,0,6.84,1.18,10.26,3.54c1.82,1.21,3.35,2.2,4.61,2.98c1.25,0.78,2.29,1.3,3.09,1.55c2.01,0.75,5.08,1.13,9.21,1.13v1.96
					h1.96v2.42c-0.46-0.1-0.76-0.17-0.91-0.19c-0.15-0.03-0.28-0.04-0.38-0.04c-3.16,0-4.75,1.76-4.75,5.28
					c0,1.11,0.15,2.37,0.45,3.78l4.3,22.03c0.26,1.101,0.57,2.12,0.95,3.05c0.38,0.931,0.84,1.83,1.39,2.681
					c0.05,0.1,0.09,0.17,0.12,0.189c0.02,0.03,0.06,0.091,0.11,0.19c0.13,0.08,0.27,0.16,0.42,0.22l-0.15,0.28
					c-0.98-0.48-1.9-1.35-2.76-2.61c-1.16-1.81-1.96-3.779-2.41-5.89l-4.3-22.03c-0.31-1.41-0.46-2.69-0.46-3.85
					c0-3.77,1.71-5.66,5.13-5.66c0.4,0,0.71,0.03,0.91,0.08V9.83c-3.98,0-6.97-0.38-8.98-1.13c-0.75-0.25-1.77-0.77-3.06-1.55
					c-1.28-0.78-2.85-1.8-4.71-3.06c-3.37-2.31-6.72-3.47-10.04-3.47c-2.76,0-5.25,0.81-7.47,2.42C5.51,4.85,4.33,7.11,4.33,9.83
					c0,1.56,0.44,2.94,1.32,4.15c0.88,1.21,2.07,1.81,3.58,1.81c1.25,0,2.15-0.22,2.72-0.68l0.16,0.2
					c-0.41,0.36-0.92,0.59-1.52,0.71c0.35,0.2,0.8,0.3,1.36,0.3c0.2,0,0.55-0.05,1.05-0.15c0.2-0.05,0.37-0.09,0.49-0.12
					c0.13-0.02,0.27-0.03,0.42-0.03c0.2,0,0.38,0.03,0.53,0.11c0.15,0.07,0.27,0.16,0.38,0.26c-0.66,1.16-1.87,1.74-3.63,1.74
					c-0.95,0-1.8-0.24-2.52-0.72c-0.73-0.48-1.32-1.09-1.78-1.85C5.94,15.06,5.21,14.29,4.7,13.26z"/>
				<path fill="#FFFFFF" d="M3.42,54.19c1.86-1.66,4.05-2.489,6.57-2.489c0.8,0,1.63,0.079,2.49,0.229c0.25-1.16,0.52-2.3,0.83-3.43
					c0.3-1.13,0.57-2.28,0.83-3.44c0.26-1.09,0.47-2.1,0.64-3.02l2.13,0.08c-0.19,1.149-0.28,2.409-0.28,3.77
					c0,4.63,1.75,7.42,5.24,8.37c0.11,0.03,0.22,0.06,0.34,0.09v0.67c-1.86,0.41-3.72,1.36-5.58,2.87
					c-2.07,1.71-3.22,3.4-3.48,5.061c-1.15-2.82-2.96-4.23-5.43-4.23c-1.2,0-2.34,0.38-3.39,1.13c-1.06,0.76-1.59,1.71-1.59,2.87
					c0,1.01,0.53,1.96,1.59,2.87c1.05,0.899,1.58,1.46,1.58,1.66l-0.3,0.22c-1.21,0-2.39-0.88-3.55-2.64
					c-0.95-1.561-1.43-3.021-1.43-4.37C0.63,57.94,1.56,55.85,3.42,54.19z"/>
				<path fill="#1D1D1B" d="M2.06,64.831c1.16,1.76,2.34,2.64,3.55,2.64l0.3-0.22c0-0.2-0.53-0.761-1.58-1.66
					c-1.06-0.91-1.59-1.86-1.59-2.87c0-1.16,0.53-2.11,1.59-2.87c1.05-0.75,2.19-1.13,3.39-1.13c2.47,0,4.28,1.41,5.43,4.23
					c0.26-1.66,1.41-3.351,3.48-5.061c1.86-1.51,3.72-2.46,5.58-2.87v-0.67c-0.12-0.03-0.23-0.06-0.34-0.09l0.09-0.36
					c0.2,0.061,0.42,0.101,0.63,0.141v1.29c0.5,0.3,1.15,0.52,1.96,0.68v1.28c-0.96,0.25-1.91,0.6-2.87,1.05
					c-0.96,0.46-1.91,1.06-2.87,1.81c-2.06,1.66-3.24,3.75-3.54,6.271c-0.56-1.311-1.13-2.391-1.74-3.25
					c-0.15,0.46-0.22,0.88-0.22,1.29c-0.51-1.21-0.99-2.12-1.44-2.721c-0.7-0.449-1.43-0.68-2.19-0.68c-1.15,0-2.21,0.34-3.16,1.021
					c-0.96,0.68-1.44,1.55-1.44,2.6c0,0.66,0.15,1.16,0.45,1.51c0.1,0.101,0.19,0.2,0.27,0.3c0.07,0.101,0.16,0.2,0.26,0.301
					l0.46,0.46c1.15,1,1.73,1.729,1.73,2.18l-0.53,0.38c-0.75,0-1.43-0.21-2.03-0.64C5.08,68.74,4.5,68.13,3.95,67.32
					C3.2,66.92,2.47,66.17,1.76,65.06c-1-1.56-1.51-3.09-1.51-4.6c0-2.62,0.98-4.811,2.95-6.57c1.91-1.71,4.17-2.56,6.79-2.56
					c0.4,0,0.76,0.01,1.09,0.029c0.33,0.03,0.69,0.07,1.09,0.12L13,48.01c0.1-0.51,0.23-1.01,0.38-1.51s0.28-1.011,0.38-1.511
					c0.35-1.46,0.61-2.75,0.79-3.89c0.18-1.13,0.27-2.12,0.27-2.979c0-0.75-0.28-1.53-0.83-2.34c-0.51-0.4-1.06-0.76-1.67-1.09
					c-0.6-0.33-1.28-0.69-2.03-1.09c0.15-0.05,0.31-0.09,0.49-0.12c0.17-0.02,0.36-0.08,0.56-0.19c-0.45-0.25-0.93-0.51-1.43-0.79
					c-0.5-0.27-1.03-0.56-1.58-0.87c5.68-1.25,9.25-7.26,10.71-18.03c0.05-0.25,0.08-0.48,0.08-0.68c0-0.2,0-0.4,0-0.6
					c0-1.56-0.48-3.02-1.44-4.38c-1.05-0.65-2.19-0.98-3.39-0.98c-1.46,0-2.77,0.54-3.93,1.62c-1.15,1.09-1.73,2.36-1.73,3.81
					c0,0.76,0.1,1.36,0.3,1.81c0.2,0.11,0.55,0.16,1.06,0.16c0.2,0,0.55-0.05,1.05-0.16c0.2-0.04,0.37-0.08,0.49-0.11
					c0.13-0.02,0.27-0.04,0.42-0.04c0.2,0,0.37,0.04,0.53,0.12c0.15,0.07,0.27,0.16,0.37,0.26c-0.2,0.35-0.45,0.65-0.74,0.88
					l-0.16-0.2c0.19-0.15,0.34-0.33,0.45-0.53c-0.1-0.1-0.25-0.15-0.45-0.15c-0.2,0-0.52,0.05-0.95,0.15
					c-0.42,0.1-0.76,0.15-1.01,0.15c-1.11,0-2-0.42-2.68-1.28c-0.68-0.85-1.02-1.86-1.02-3.02c0-0.75,0.16-1.48,0.49-2.19
					c0.33-0.7,0.78-1.32,1.36-1.84c0.58-0.53,1.23-0.96,1.96-1.29c0.73-0.32,1.47-0.49,2.22-0.49c0.76,0,1.47,0.11,2.13,0.33
					c1.11,0.36,2.08,1.04,2.93,2.01c1.41,1.46,2.11,3.25,2.11,5.36c0,0.2,0,0.43,0,0.68c0,0.2-0.02,0.43-0.07,0.68
					c-1.46,10.96-4.76,17-9.89,18.1c3.78,1.77,5.66,3.88,5.66,6.34c0,0.859-0.09,1.859-0.26,3.02c-0.05,0.29-0.09,0.59-0.15,0.9
					c-0.17,0.92-0.38,1.93-0.64,3.02c-0.26,1.16-0.53,2.311-0.83,3.44c-0.31,1.13-0.58,2.27-0.83,3.43
					c-0.86-0.15-1.69-0.229-2.49-0.229c-2.52,0-4.71,0.829-6.57,2.489s-2.79,3.75-2.79,6.271C0.63,61.81,1.11,63.27,2.06,64.831z"/>
			</g>
			<g>
				<path fill="none" stroke="#1D1D1B" stroke-width="0.25" d="M49.47,53.28c0.09,0.011,0.18,0.011,0.28,0.011h0.9v0.38"/>
				<path fill="none" stroke="#1D1D1B" stroke-width="0.25" d="M50.65,54.09v1.16l-0.3,0.38c-4.32,1.359-7.72,4.399-10.18,9.13
					c-0.71-0.36-1.53-0.93-2.46-1.74c-0.93-0.8-1.99-1.81-3.2-3.02l-0.3-0.3l-0.16-0.15l-1.5-1.51c-1.61-1.36-3.27-2.16-4.98-2.41
					v-1.36h0.15c-0.76-0.35-1.46-0.55-2.12-0.6v-1.36c2.82-0.76,4.23-3.12,4.23-7.09c0-0.61-0.11-1.73-0.34-3.36
					c-0.03-0.21-0.06-0.42-0.09-0.64c-0.24-1.54-0.6-3.45-1.08-5.74h-0.07c-3.32,0-5.76,1.28-7.32,3.851
					c-1.31,2.159-1.97,5.01-1.97,8.529c0,2.311,0.43,4.07,1.29,5.28c0.53,0.34,1.09,0.59,1.71,0.76c0.2,0.061,0.42,0.101,0.63,0.141
					v1.29c0.5,0.3,1.15,0.52,1.96,0.68v1.28c-0.96,0.25-1.91,0.6-2.87,1.05c-0.96,0.46-1.91,1.06-2.87,1.81
					c-2.06,1.66-3.24,3.75-3.54,6.271c-0.56-1.311-1.13-2.391-1.74-3.25c-0.15,0.46-0.22,0.88-0.22,1.29
					c-0.51-1.21-0.99-2.12-1.44-2.721c-0.7-0.449-1.43-0.68-2.19-0.68c-1.15,0-2.21,0.34-3.16,1.021c-0.96,0.68-1.44,1.55-1.44,2.6
					c0,0.66,0.15,1.16,0.45,1.51c0.1,0.101,0.19,0.2,0.27,0.3c0.07,0.101,0.16,0.2,0.26,0.301l0.46,0.46
					c1.15,1,1.73,1.729,1.73,2.18l-0.53,0.38c-0.75,0-1.43-0.21-2.03-0.64C5.08,68.74,4.5,68.13,3.95,67.32
					C3.2,66.92,2.47,66.17,1.76,65.06c-1-1.56-1.51-3.09-1.51-4.6c0-2.62,0.98-4.811,2.95-6.57c1.91-1.71,4.17-2.56,6.79-2.56
					c0.4,0,0.76,0.01,1.09,0.029c0.33,0.03,0.69,0.07,1.09,0.12L13,48.01c0.1-0.51,0.23-1.01,0.38-1.51s0.28-1.011,0.38-1.511
					c0.35-1.46,0.61-2.75,0.79-3.89c0.18-1.13,0.27-2.12,0.27-2.979c0-0.75-0.28-1.53-0.83-2.34c-0.51-0.4-1.06-0.76-1.67-1.09
					c-0.6-0.33-1.28-0.69-2.03-1.09c0.15-0.05,0.31-0.09,0.49-0.12c0.17-0.02,0.36-0.08,0.56-0.19c-0.45-0.25-0.93-0.51-1.43-0.79
					c-0.5-0.27-1.03-0.56-1.58-0.87c5.68-1.25,9.25-7.26,10.71-18.03c0.05-0.25,0.08-0.48,0.08-0.68c0-0.2,0-0.4,0-0.6
					c0-1.56-0.48-3.02-1.44-4.38c-1.05-0.65-2.19-0.98-3.39-0.98c-1.46,0-2.77,0.54-3.93,1.62c-1.15,1.09-1.73,2.36-1.73,3.81
					c0,0.76,0.1,1.36,0.3,1.81c0.2,0.11,0.55,0.16,1.06,0.16c0.2,0,0.55-0.05,1.05-0.16c0.2-0.04,0.37-0.08,0.49-0.11
					c0.13-0.02,0.27-0.04,0.42-0.04c0.2,0,0.37,0.04,0.53,0.12c0.15,0.07,0.27,0.16,0.37,0.26c-0.2,0.35-0.45,0.65-0.74,0.88
					c-0.41,0.36-0.92,0.59-1.52,0.71c0.35,0.2,0.8,0.3,1.36,0.3c0.2,0,0.55-0.05,1.05-0.15c0.2-0.05,0.37-0.09,0.49-0.12
					c0.13-0.02,0.27-0.03,0.42-0.03c0.2,0,0.38,0.03,0.53,0.11c0.15,0.07,0.27,0.16,0.38,0.26c-0.66,1.16-1.87,1.74-3.63,1.74
					c-0.95,0-1.8-0.24-2.52-0.72c-0.73-0.48-1.32-1.09-1.78-1.85c-0.95-0.5-1.68-1.27-2.19-2.3c-0.5-1.03-0.75-2.17-0.75-3.43
					c0-2.82,1.23-5.18,3.7-7.09c2.26-1.66,4.83-2.49,7.69-2.49c3.42,0,6.84,1.18,10.26,3.54c1.82,1.21,3.35,2.2,4.61,2.98
					c1.25,0.78,2.29,1.3,3.09,1.55c2.01,0.75,5.08,1.13,9.21,1.13v1.96h1.96v2.42c-0.46-0.1-0.76-0.17-0.91-0.19
					c-0.15-0.03-0.28-0.04-0.38-0.04c-3.16,0-4.75,1.76-4.75,5.28c0,1.11,0.15,2.37,0.45,3.78l4.3,22.03
					c0.26,1.101,0.57,2.12,0.95,3.05c0.38,0.931,0.84,1.83,1.39,2.681c0.05,0.1,0.09,0.17,0.12,0.189
					c0.02,0.03,0.06,0.091,0.11,0.19c0.13,0.08,0.27,0.16,0.42,0.22c0.46,0.21,1,0.311,1.62,0.311h0.9v1.81
					c0.08,0.04,0.18,0.07,0.3,0.09"/>
				<path fill="none" stroke="#1D1D1B" stroke-width="0.25" d="M29.75,41.18c0.31,1.99,0.46,3.33,0.46,4.04
					c0,4.17-1.41,6.63-4.23,7.39v0.681c2.01,0.25,4.1,1.529,6.26,3.85c2.72,2.86,4.66,4.57,5.81,5.13
					c2.37-4.63,5.79-7.62,10.27-8.979v-1.59c-0.8,0.09-1.57-0.04-2.3-0.4c-0.98-0.48-1.9-1.35-2.76-2.61
					c-1.16-1.81-1.96-3.779-2.41-5.89l-4.3-22.03c-0.31-1.41-0.46-2.69-0.46-3.85c0-3.77,1.71-5.66,5.13-5.66
					c0.4,0,0.71,0.03,0.91,0.08V9.83c-3.98,0-6.97-0.38-8.98-1.13c-0.75-0.25-1.77-0.77-3.06-1.55c-1.28-0.78-2.85-1.8-4.71-3.06
					c-3.37-2.31-6.72-3.47-10.04-3.47c-2.76,0-5.25,0.81-7.47,2.42C5.51,4.85,4.33,7.11,4.33,9.83c0,1.56,0.44,2.94,1.32,4.15
					c0.88,1.21,2.07,1.81,3.58,1.81c1.25,0,2.15-0.22,2.72-0.68c0.19-0.15,0.34-0.33,0.45-0.53c-0.1-0.1-0.25-0.15-0.45-0.15
					c-0.2,0-0.52,0.05-0.95,0.15c-0.42,0.1-0.76,0.15-1.01,0.15c-1.11,0-2-0.42-2.68-1.28c-0.68-0.85-1.02-1.86-1.02-3.02
					c0-0.75,0.16-1.48,0.49-2.19c0.33-0.7,0.78-1.32,1.36-1.84c0.58-0.53,1.23-0.96,1.96-1.29c0.73-0.32,1.47-0.49,2.22-0.49
					c0.76,0,1.47,0.11,2.13,0.33c1.11,0.36,2.08,1.04,2.93,2.01c1.41,1.46,2.11,3.25,2.11,5.36c0,0.2,0,0.43,0,0.68
					c0,0.2-0.02,0.43-0.07,0.68c-1.46,10.96-4.76,17-9.89,18.1c3.78,1.77,5.66,3.88,5.66,6.34c0,0.859-0.09,1.859-0.26,3.02
					c-0.05,0.29-0.09,0.59-0.15,0.9c-0.17,0.92-0.38,1.93-0.64,3.02c-0.26,1.16-0.53,2.311-0.83,3.44
					c-0.31,1.13-0.58,2.27-0.83,3.43c-0.86-0.15-1.69-0.229-2.49-0.229c-2.52,0-4.71,0.829-6.57,2.489s-2.79,3.75-2.79,6.271
					c0,1.35,0.48,2.81,1.43,4.37c1.16,1.76,2.34,2.64,3.55,2.64l0.3-0.22c0-0.2-0.53-0.761-1.58-1.66
					c-1.06-0.91-1.59-1.86-1.59-2.87c0-1.16,0.53-2.11,1.59-2.87c1.05-0.75,2.19-1.13,3.39-1.13c2.47,0,4.28,1.41,5.43,4.23
					c0.26-1.66,1.41-3.351,3.48-5.061c1.86-1.51,3.72-2.46,5.58-2.87v-0.67c-0.12-0.03-0.23-0.06-0.34-0.09
					c-3.49-0.95-5.24-3.74-5.24-8.37c0-1.36,0.09-2.62,0.28-3.77c0.32-1.94,0.9-3.591,1.75-4.98c1.66-2.65,4.18-3.99,7.59-4
					c0.01,0,0.02,0,0.03,0c0.66,0,1.34,0.08,2.04,0.23C28.97,36.59,29.45,39.19,29.75,41.18z"/>
				<path fill="none" stroke="#1D1D1B" stroke-width="0.25" d="M14.98,3.46c-0.68-0.26-1.39-0.49-2.13-0.72l0.3-0.08
					c3.02-0.25,5.46,0.48,7.32,2.19c1.86,1.71,3.1,4.1,3.7,7.17l3.77,19.01c-0.64,0.11-1.22,0.19-1.75,0.22
					c-0.18,0-0.35,0.01-0.51,0.01c-3.87,0-5.81-2.19-5.81-6.57c0-1.41,0.3-3.47,0.91-6.18c0.65-2.67,0.98-4.76,0.98-6.27
					c0-3.77-1.41-6.41-4.23-7.92c-0.8-0.25-1.58-0.51-2.34-0.79C15.12,3.5,15.05,3.48,14.98,3.46z"/>
				<path fill="none" stroke="#1D1D1B" stroke-width="0.25" d="M20.06,6.02c0.12,0.18,0.26,0.36,0.41,0.56
					c1.11,0.81,1.97,1.82,2.57,3.02c-0.35-1.1-0.88-2.11-1.59-3.02c-0.55-0.4-1.18-0.75-1.88-1.05C19.77,5.68,19.93,5.84,20.06,6.02
					z"/>
				<path fill="none" stroke="#1D1D1B" stroke-width="0.25" d="M26.51,30.88c0.3,0,0.63-0.05,0.98-0.15L24.1,13.6v0.6
					c0,1.56-0.33,3.68-0.99,6.34c-0.6,2.72-0.9,4.76-0.9,6.11c0,1.51,0.23,2.75,0.68,3.7c0.7,0.35,1.63,0.53,2.79,0.53
					C25.93,30.88,26.21,30.88,26.51,30.88z"/>
				<path fill="none" stroke="#1D1D1B" stroke-width="0.25" d="M78.06,12.56l0.06,0.59c-3.88,1.66-5.91,5.1-6.11,10.34l-0.53,13.35
					h-2.11l-0.08-1.96H67.4l-0.15-3.93h-2.18v16.3c0,1.609,0.3,2.97,0.9,4.08c1.36,0.85,3.37,1.279,6.04,1.279
					c0.3,0,0.69-0.01,1.17-0.04c0.47-0.02,0.99-0.09,1.54-0.189v1.439c-1.36,0-2.59,0.17-3.69,0.53c0.8,0.15,1.78,0.22,2.94,0.22
					c0.3,0,0.69-0.01,1.17-0.04c0.48-0.02,0.99-0.079,1.54-0.18v1.43c-1.45,0-2.9,0.23-4.33,0.681c-1.44,0.45-2.78,1.1-4.04,1.96
					c-1.26,0.859-2.4,1.87-3.43,3.05c-1.04,1.19-1.88,2.48-2.53,3.89c-0.45-0.96-0.98-1.859-1.59-2.72
					c-0.2,0.311-0.32,0.561-0.37,0.76c-0.71-1.41-1.66-2.84-2.87-4.3c-2.11-1.81-4.3-3.02-6.56-3.62V54.8c0.1,0,0.22-0.03,0.37-0.08
					c0.15-0.05,0.28-0.1,0.38-0.15c-0.37-0.18-0.72-0.34-1.06-0.479c-0.59-0.26-1.14-0.45-1.66-0.58v-0.28v-0.39
					c1.56-0.311,2.72-1.21,3.47-2.72h-0.07c0.35-0.7,0.62-1.42,0.79-2.15c0.18-0.73,0.27-1.52,0.27-2.38V30.95H50.2v-1.96h-1.96
					v-3.47h5.21v-1.58c0.05-0.4,0.07-0.76,0.07-1.06c0-0.35,0-0.65,0-0.9c0-2.67-0.33-4.68-0.98-6.04c-0.1-0.25-0.21-0.46-0.34-0.64
					c-0.13-0.18-0.24-0.39-0.34-0.64c-0.25-0.2-0.53-0.38-0.83-0.53c-0.3-0.15-0.6-0.3-0.9-0.45L50.28,13
					c-0.31-0.25-0.63-0.48-0.98-0.68c-0.36-0.2-0.73-0.4-1.14-0.6l0.16-0.68c3.31,0,6.26-0.76,8.82-2.27
					c2.92-1.71,4.83-4.27,5.74-7.69c0.25,0.5,0.51,0.98,0.79,1.43c0.28,0.45,0.59,0.88,0.94,1.28c0.05-0.1,0.09-0.22,0.12-0.37
					c0.02-0.16,0.06-0.28,0.11-0.38c0.55,1.11,1.26,2.16,2.11,3.17c2.37,1.96,5.41,3.37,9.13,4.22l0.08,0.76l-0.91,0.45
					c0.45,0.15,0.91,0.29,1.36,0.41c0.33,0.09,0.67,0.18,1.03,0.25"/>
				<path fill="none" stroke="#1D1D1B" stroke-width="0.25" d="M69.49,25.99l0.18-4.47c0.2-5.38,2.31-8.95,6.34-10.71
					c-6.29-1.46-10.62-4.38-12.98-8.75c-0.76,2.97-2.64,5.3-5.66,7.01c-0.49,0.29-0.99,0.56-1.51,0.78
					c-2.23,1.05-4.69,1.56-7.39,1.56c2.11,0.96,3.59,2.42,4.45,4.38c0.65,1.36,0.98,3.42,0.98,6.19c0,0.25,0,0.55,0,0.9
					c0,0.3-0.03,0.66-0.08,1.06v1.96h-5.2v2.72h5.2v16.97c0,1.61-0.35,3.17-1.05,4.68c-0.81,1.66-1.99,2.641-3.55,2.94
					c0.08,0.02,0.17,0.04,0.25,0.069c0.4,0.11,0.79,0.24,1.18,0.391c0.67,0.25,1.32,0.55,1.97,0.899c1.1,0.61,2.15,1.311,3.13,2.11
					c0.98,0.81,1.87,1.7,2.68,2.68c0.8,0.98,1.45,2,1.96,3.061c0.6-1.36,1.41-2.58,2.41-3.66c1.01-1.08,2.11-2.03,3.32-2.83
					c1.21-0.8,2.52-1.42,3.93-1.85c1.4-0.431,2.84-0.641,4.3-0.641v-0.6c-0.36,0.05-0.72,0.08-1.1,0.11
					c-0.38,0.02-0.79,0.039-1.24,0.039c-2.62,0-4.68-0.46-6.19-1.399c-2.06-1.23-3.09-3.34-3.09-6.3V28.62h4.83l0.22,5.88h1.36
					L69.49,25.99z"/>
				<path fill="none" stroke="#1D1D1B" stroke-width="0.25" d="M67.4,25.9h-4.67c0-4.23-0.28-7.17-0.83-8.83
					c-0.86-2.36-2.77-4.55-5.74-6.56c2.77-0.05,5.26,1.08,7.47,3.39c2.21,2.37,3.42,4.91,3.62,7.62c0.05,1.01,0.09,1.87,0.12,2.57
					C67.39,24.79,67.4,25.4,67.4,25.9z"/>
				<path fill="none" stroke="#1D1D1B" stroke-width="0.25" d="M57.67,11.19c0.1,0.05,0.2,0.12,0.3,0.22
					c0.1-0.05,0.18-0.1,0.23-0.15c0.05-0.05,0.12-0.1,0.23-0.15c-0.41-0.1-0.76-0.15-1.06-0.15C57.47,11.06,57.57,11.14,57.67,11.19
					z"/>
				<path fill="none" stroke="#1D1D1B" stroke-width="0.25" d="M60.05,13.34c0.12,0.12,0.24,0.26,0.34,0.41
					c1.86,1.51,3.14,3.22,3.85,5.13c0.2,0.66,0.36,1.54,0.49,2.64c0.12,1.11,0.21,2.44,0.26,4h2.04c0-0.3,0-0.65,0-1.05
					c0-0.41-0.03-0.88-0.08-1.44c0-0.25-0.01-0.5-0.04-0.75c-0.02-0.25-0.03-0.5-0.03-0.76c-0.26-2.46-1.26-4.7-3.02-6.71
					c-1.26-1.01-2.64-1.64-4.15-1.89C59.81,13.07,59.92,13.21,60.05,13.34z"/>
				<path fill="none" stroke="#1D1D1B" stroke-width="0.25" d="M106.46,12.9l0.03,0.25c-3.88,1.66-5.91,5.1-6.11,10.34l-0.53,13.35
					h-2.11l-0.08-1.96h-1.89l-0.15-3.93h-2.19v16.3c0,1.609,0.31,2.97,0.91,4.08c1.36,0.85,3.37,1.279,6.04,1.279
					c0.3,0,0.69-0.01,1.17-0.04c0.47-0.02,0.99-0.09,1.54-0.189v1.439c-1.36,0-2.59,0.17-3.69,0.53c0.8,0.15,1.78,0.22,2.94,0.22
					c0.3,0,0.69-0.01,1.17-0.04c0.47-0.02,0.99-0.079,1.54-0.18v1.43c-1.46,0-2.9,0.23-4.33,0.681c-1.44,0.45-2.78,1.1-4.04,1.96
					c-1.26,0.859-2.4,1.87-3.43,3.05c-1.04,1.19-1.88,2.48-2.53,3.89c-0.45-0.96-0.98-1.859-1.59-2.72
					c-0.2,0.311-0.32,0.561-0.37,0.76c-0.71-1.41-1.66-2.84-2.87-4.3c-2.11-1.81-4.3-3.02-6.57-3.62V54.8
					c0.11,0,0.23-0.03,0.38-0.08s0.28-0.1,0.38-0.15c-0.76-0.38-1.45-0.67-2.1-0.88c-0.21-0.069-0.42-0.13-0.62-0.18v-0.67
					c1.56-0.311,2.72-1.21,3.47-2.72h-0.07c0.35-0.7,0.61-1.42,0.79-2.15s0.27-1.52,0.27-2.38V30.95h-3.25v-1.96h-1.96v-3.47h5.21
					v-1.58c0.04-0.4,0.07-0.76,0.07-1.06c0-0.35,0-0.65,0-0.9c0-2.67-0.33-4.68-0.98-6.04c-0.1-0.25-0.22-0.46-0.34-0.64
					c-0.13-0.18-0.24-0.39-0.34-0.64c-0.25-0.2-0.53-0.38-0.83-0.53c-0.3-0.15-0.6-0.3-0.9-0.45L78.65,13
					c-0.19-0.15-0.39-0.3-0.59-0.44c-0.13-0.08-0.26-0.16-0.39-0.24c-0.01-0.01-0.02-0.01-0.03-0.02c-0.35-0.19-0.71-0.39-1.11-0.58
					l0.15-0.68c3.32,0,6.27-0.76,8.83-2.27c2.92-1.71,4.83-4.27,5.74-7.69c0.25,0.5,0.51,0.98,0.79,1.43
					c0.27,0.45,0.59,0.88,0.94,1.28c0.05-0.1,0.09-0.22,0.11-0.37c0.03-0.16,0.07-0.28,0.12-0.38c0.55,1.11,1.25,2.16,2.11,3.17
					c2.36,1.96,5.41,3.37,9.13,4.22l0.08,0.76l-0.91,0.45c0.45,0.15,0.91,0.29,1.36,0.41c0.45,0.13,0.93,0.24,1.43,0.34L106.46,12.9
					z"/>
				<path fill="none" stroke="#1D1D1B" stroke-width="0.25" d="M97.86,25.99l0.18-4.47c0.2-5.38,2.31-8.95,6.33-10.71
					C98.09,9.35,93.76,6.43,91.4,2.06c-0.76,2.97-2.64,5.3-5.66,7.01c-0.49,0.29-0.99,0.56-1.51,0.78c-2.23,1.04-4.7,1.56-7.39,1.56
					c2.11,0.96,3.59,2.42,4.45,4.38c0.65,1.36,0.98,3.42,0.98,6.19c0,0.25,0,0.55,0,0.9c0,0.3-0.03,0.66-0.08,1.06v1.96h-5.2v2.72
					h5.2v16.97c0,1.61-0.35,3.17-1.05,4.68c-0.81,1.66-1.99,2.641-3.55,2.94c1.16,0.3,2.29,0.76,3.4,1.359
					c1.1,0.61,2.15,1.311,3.13,2.11c0.98,0.81,1.87,1.7,2.67,2.68c0.81,0.98,1.46,2,1.97,3.061c0.6-1.36,1.4-2.58,2.41-3.66
					c1.01-1.08,2.11-2.03,3.32-2.83s2.52-1.42,3.92-1.85c1.41-0.431,2.85-0.641,4.31-0.641v-0.6c-0.36,0.05-0.72,0.08-1.1,0.11
					c-0.38,0.02-0.79,0.039-1.24,0.039c-6.19,0-9.28-2.569-9.28-7.699V28.62h4.82l0.23,5.88h1.36L97.86,25.99z"/>
				<path fill="none" stroke="#1D1D1B" stroke-width="0.25" d="M95.77,25.9H91.1c0-4.23-0.28-7.17-0.83-8.83
					c-0.86-2.36-2.77-4.55-5.74-6.56c2.77-0.05,5.26,1.08,7.47,3.39c2.21,2.37,3.42,4.91,3.62,7.62c0.05,1.01,0.09,1.87,0.12,2.57
					C95.76,24.79,95.77,25.4,95.77,25.9z"/>
				<path fill="none" stroke="#1D1D1B" stroke-width="0.25" d="M86.04,11.19c0.1,0.05,0.2,0.12,0.3,0.22
					c0.1-0.05,0.18-0.1,0.23-0.15s0.12-0.1,0.22-0.15c-0.4-0.1-0.75-0.15-1.05-0.15C85.84,11.06,85.94,11.14,86.04,11.19z"/>
				<path fill="none" stroke="#1D1D1B" stroke-width="0.25" d="M88.42,13.34c0.12,0.12,0.23,0.26,0.34,0.41
					c1.86,1.51,3.14,3.22,3.84,5.13c0.2,0.66,0.37,1.54,0.49,2.64c0.13,1.11,0.22,2.44,0.27,4h2.04c0-0.3,0-0.65,0-1.05
					c0-0.41-0.03-0.88-0.08-1.44c0-0.25-0.01-0.5-0.04-0.75c-0.02-0.25-0.03-0.5-0.03-0.76c-0.26-2.46-1.26-4.7-3.02-6.71
					c-1.26-1.01-2.64-1.64-4.15-1.89C88.18,13.07,88.29,13.21,88.42,13.34z"/>
				<path fill="none" stroke="#1D1D1B" stroke-width="0.25" d="M106.94,12.85l0.15-0.68c-0.65-0.61-1.36-1.03-2.11-1.28l0.22-0.76
					c0.26,0.05,0.48,0.08,0.68,0.08c0.25,0,0.51,0,0.76,0c2.46,0,5.48-1.26,9.05-3.78c2.01-1.46,3.82-2.56,5.43-3.32
					c1.61-0.75,3.02-1.25,4.23-1.51v1.66l-0.3,0.38c-1.11,0.3-2.06,0.93-2.87,1.89c1.01-0.56,1.94-0.98,2.79-1.28
					c0.86-0.31,1.64-0.53,2.34-0.68v1.66l-0.3,0.37c-2.06,0.56-3.65,2.37-4.75,5.44c-0.96,2.41-1.44,4.98-1.44,7.69V47.1
					c0,2.22,0.23,3.771,0.68,4.68c0,0.101,0.03,0.181,0.08,0.23c0.55,0.4,1.2,0.75,1.96,1.05c-0.08,0.05-0.15,0.101-0.21,0.141
					c-0.2,0.119-0.36,0.199-0.47,0.239c0.7,0.65,1.58,1.181,2.64,1.58c-1.26,0.71-2.34,1.41-3.24,2.12
					c-0.91,0.7-1.69,1.41-2.34,2.11c-0.96,1.06-2.24,2.989-3.85,5.81c-0.3-0.55-0.58-1.03-0.83-1.43c-0.25-0.41-0.5-0.811-0.76-1.21
					c-0.05,0.05-0.17,0.27-0.37,0.68c-0.71-1.16-1.34-2.189-1.89-3.1c-0.55-0.9-1.08-1.66-1.58-2.261
					c-0.56-0.449-1.17-0.899-1.85-1.359c-0.68-0.45-1.42-0.9-2.23-1.36c0.1-0.05,0.22-0.1,0.34-0.149
					c0.13-0.051,0.24-0.101,0.34-0.15c-0.4-0.3-0.82-0.59-1.24-0.87c-0.43-0.27-0.9-0.54-1.4-0.79c2.06-0.95,3.37-2.04,3.92-3.24
					c0.41-1.06,0.61-2.619,0.61-4.68v-8.53c0-2.56-0.58-4.65-1.74-6.26c-0.1-0.1-0.22-0.19-0.37-0.26
					c-0.16-0.08-0.28-0.17-0.38-0.27l0.3-0.15c-0.3-0.4-0.65-0.74-1.06-1.02c-0.4-0.27-0.8-0.54-1.2-0.79
					c2.06-1.26,3.37-2.56,3.92-3.92c0.4-1.06,0.6-2.74,0.6-5.06c0-2.36-0.4-4.2-1.2-5.51C107.79,13.22,107.44,13.05,106.94,12.85z"
					/>
				<path fill="none" stroke="#1D1D1B" stroke-width="0.25" d="M124.97,2.06c-2.21,0.4-5.23,1.96-9.05,4.68
					c-3.62,2.56-6.72,3.84-9.28,3.84c-0.25,0-0.51,0-0.76,0c-0.2,0-0.42-0.02-0.68-0.07c2.92,0.95,4.38,3.75,4.38,8.37
					c0,2.42-0.2,4.15-0.6,5.21c-0.56,1.41-1.76,2.67-3.62,3.77c2.76,1.56,4.15,4.48,4.15,8.75v8.53c0,2.16-0.21,3.771-0.61,4.83
					c-0.55,1.31-1.71,2.36-3.47,3.17c2.06,1.1,3.77,2.41,5.13,3.92c0.5,0.561,1.04,1.271,1.62,2.15s1.22,1.95,1.93,3.21
					c1.41-2.47,2.59-4.25,3.54-5.36c0.66-0.7,1.4-1.39,2.23-2.07c0.83-0.68,1.77-1.3,2.83-1.85c-1.76-0.86-2.94-1.91-3.55-3.17
					c-0.45-0.96-0.68-2.57-0.68-4.83V16.77c0-2.82,0.48-5.43,1.44-7.85c1.2-3.17,2.89-5.05,5.05-5.66V2.06z"/>
				<path fill="none" stroke="#1D1D1B" stroke-width="0.25" d="M140.74,54.1c0.42,0.351,0.939,0.66,1.59,0.92v0.681
					c-1.82,0.96-3.35,2.22-4.61,3.779c-0.4,0.45-0.89,1.13-1.47,2.03c-0.58,0.91-1.27,2.09-2.07,3.55c-0.3-0.55-0.58-1.05-0.83-1.47
					c-0.26-0.43-0.51-0.82-0.76-1.17c-0.1,0.1-0.16,0.21-0.19,0.34c-0.02,0.12-0.08,0.24-0.18,0.34c-0.86-1.46-1.56-2.66-2.12-3.59
					c-0.55-0.93-1.03-1.59-1.43-2h-0.08c-0.45-0.4-0.94-0.78-1.47-1.13c-0.53-0.351-1.12-0.7-1.77-1.05
					c0.1-0.051,0.2-0.101,0.3-0.15s0.2-0.11,0.3-0.16c-0.7-0.55-1.56-1.1-2.56-1.66c0.01,0,0.01-0.01,0.02-0.01
					c2-1,3.27-2.07,3.83-3.229c0.35-0.91,0.52-2.44,0.52-4.601V35.48c0-0.75-0.09-1.43-0.26-2.03c-0.18-0.61-0.42-1.19-0.72-1.74
					c-0.15-0.1-0.3-0.19-0.45-0.26c-0.15-0.08-0.33-0.17-0.53-0.27l0.15-0.6c-0.65-0.56-1.36-1.01-2.11-1.36l0.08-0.35l0.07-0.33
					c1.76,0,3.42-1.03,4.98-3.09c0.55-0.71,1.07-1.54,1.55-2.49c0.47-0.96,0.91-2.01,1.32-3.17c-0.71-1.71-1.56-3.14-2.57-4.3
					c-1.2-1.01-2.59-1.81-4.15-2.42l0.91-0.45c-0.45-0.3-0.91-0.57-1.36-0.79c-0.45-0.23-0.95-0.47-1.51-0.72
					c4.48-2.11,7.5-5.53,9.06-10.26c0.25,0.6,0.5,1.17,0.75,1.7c0.25,0.53,0.5,1.04,0.75,1.54c0.1-0.2,0.18-0.4,0.23-0.6
					c0.05-0.2,0.13-0.43,0.23-0.68c0.9,2.47,2.03,4.53,3.39,6.19c0.91,0.75,1.84,1.31,2.79,1.66v0.75c-0.05,0-0.069,0.03-0.069,0.08
					h-0.08c0.71,0.5,1.41,0.88,2.12,1.13v0.75c-3.28,1.41-5.87,4.21-7.78,8.38c0.86,2.11,1.86,3.95,3.02,5.51
					c0,0.05,0.03,0.1,0.08,0.15c0.95,0.75,1.86,1.13,2.709,1.13l0.07,0.33l0.08,0.35c-0.15,0.1-0.37,0.2-0.67,0.3
					c0.83,0.58,1.57,0.89,2.22,0.96c0.09,0.01,0.181,0.02,0.271,0.02l0.149,0.68c-2.569,1.16-3.85,3.25-3.85,6.26v10.04
					c0,2.16,0.17,3.7,0.53,4.601l0.22,0.449c0.25,0.21,0.58,0.381,0.979,0.53v0.38v0.3C140.479,53.871,140.6,53.99,140.74,54.1z"/>
				<path fill="none" stroke="#1D1D1B" stroke-width="0.25" d="M140.21,53.44c-1.76-0.8-2.89-1.859-3.39-3.17
					c-0.36-0.91-0.53-2.49-0.53-4.75V35.48c0-3.17,1.31-5.35,3.92-6.56c-1.56-0.1-3.19-1.23-4.9-3.4c-1.46-1.91-2.49-3.74-3.09-5.51
					c-0.71,2.12-1.69,4-2.95,5.66c-1.66,2.17-3.37,3.25-5.13,3.25c2.67,1.16,4,3.34,4,6.56v10.04c0,2.26-0.18,3.84-0.53,4.75
					c-0.55,1.311-1.68,2.37-3.39,3.17c1.96,1.061,3.54,2.34,4.75,3.851c0.35,0.399,0.79,1.029,1.32,1.88
					c0.53,0.859,1.17,1.939,1.93,3.25c1.45-2.57,2.53-4.28,3.24-5.13C136.67,55.78,138.25,54.5,140.21,53.44z"/>
				<path fill="none" stroke="#1D1D1B" stroke-width="0.25" d="M132.22,2.06c-1.41,4.12-4.08,7.12-8,8.98c3.67,1.4,6.34,4.22,8,8.45
					c1.76-4.03,4.42-6.84,7.99-8.45C136.64,9.53,133.98,6.53,132.22,2.06z"/>
				<path fill="none" stroke="#1D1D1B" stroke-width="0.25" d="M133.65,22.2c0.1-0.2,0.15-0.35,0.15-0.45
					c-0.3-0.8-0.68-1.56-1.13-2.26c0,0.05-0.02,0.1-0.04,0.15c-0.03,0.05-0.04,0.1-0.04,0.15C132.84,20.54,133.2,21.35,133.65,22.2z
					"/>
				<path fill="none" stroke="#1D1D1B" stroke-width="0.25" d="M171.67,55.02v0.76c-1.71,0.051-3.99,1.181-6.86,3.391
					c-1.109,0.81-3.27,2.75-6.489,5.81c-0.25-0.399-0.521-0.76-0.79-1.09c-0.28-0.33-0.591-0.689-0.94-1.09l-0.23,0.22
					c-0.149-0.25-0.3-0.46-0.449-0.64c-0.15-0.18-0.311-0.391-0.46-0.641c-0.551-0.449-1.15-0.909-1.811-1.359
					c-0.649-0.45-1.359-0.93-2.109-1.43c-3.32-2.011-5.91-3.07-7.771-3.171v-0.76c0.4,0,0.8-0.12,1.2-0.37
					c-0.601-0.25-1.18-0.439-1.73-0.569c-0.409-0.091-0.79-0.16-1.12-0.221c-0.109-0.01-0.21-0.029-0.31-0.04v-0.38v-0.38
					c1.2-0.1,2.21-1,3.01-2.71c0.761-1.66,1.141-3.2,1.141-4.61v-8.45c0-2.26-0.561-4.12-1.66-5.58c-0.16-0.1-0.311-0.2-0.46-0.3
					c-0.15-0.1-0.3-0.2-0.45-0.3l0.08-0.38c-0.26-0.3-0.561-0.58-0.91-0.83c-0.02-0.01-0.04-0.03-0.06-0.04
					c-0.33-0.24-0.69-0.47-1.07-0.72l0.15-0.6c9.05,0,15.64-3.07,19.77-9.2c0.25,0.5,0.49,0.96,0.71,1.39
					c0.23,0.43,0.47,0.84,0.72,1.25c0.101-0.1,0.19-0.22,0.271-0.34c0.069-0.13,0.16-0.24,0.26-0.34c1.16,2.16,2.16,3.85,3.021,5.05
					c0.55,0.41,1.21,0.83,1.96,1.29c0.56,0.34,1.159,0.66,1.779,0.97c0.21,0.11,0.42,0.21,0.63,0.31c-0.399,0.2-0.68,0.35-0.83,0.45
					c0.41,0.25,0.83,0.5,1.29,0.76c0.45,0.25,0.95,0.5,1.511,0.75c-2.17,0.96-3.95,3.14-5.36,6.56c-0.56,1.41-1.01,2.81-1.36,4.19
					c-0.35,1.39-0.63,2.76-0.83,4.109h-0.829c-0.101-0.8-0.21-1.579-0.341-2.34c-0.119-0.75-0.26-1.479-0.409-2.18
					c-0.11,0.45-0.181,0.89-0.23,1.32c-0.05,0.42-0.1,0.84-0.15,1.239h-0.829c-0.4-3.47-1.08-6.56-2.04-9.28
					c-0.25-0.7-0.511-1.34-0.79-1.92c-0.28-0.58-0.57-1.1-0.87-1.55c-0.25-0.1-0.48-0.18-0.681-0.23c-0.199-0.05-0.399-0.1-0.6-0.15
					V47.1c0,1.41,0.33,2.62,0.98,3.62c2.31,1.56,6.109,2.34,11.39,2.34v0.38v0.38c-0.45,0.051-0.94,0.141-1.47,0.261
					c-0.53,0.13-1.07,0.34-1.62,0.64c0.75,0.1,1.55,0.18,2.38,0.23C169.83,55,170.72,55.02,171.67,55.02z"/>
				<path fill="none" stroke="#1D1D1B" stroke-width="0.25" d="M169.71,53.44c-9.811,0-14.71-2.77-14.71-8.3V28.31
					c0.07-0.01,0.149-0.01,0.22-0.01c2.07,0,3.89,2.02,5.44,6.05c0.949,2.82,1.63,5.84,2.04,9.05h0.149
					c0.2-1.35,0.46-2.71,0.79-4.069c0.33-1.36,0.771-2.69,1.32-4c1.36-3.47,2.939-5.61,4.75-6.41c-2.11-1.01-3.79-2.22-5.05-3.62
					c-0.45-0.56-0.96-1.27-1.511-2.15c-0.56-0.88-1.159-1.93-1.81-3.14c-1.99,2.97-4.62,5.2-7.89,6.68
					c-3.271,1.49-7.181,2.23-11.73,2.23c3.07,1.71,4.601,4.5,4.601,8.37v8.45c0,1.511-0.37,3.101-1.131,4.761
					c-0.899,1.91-2.04,2.89-3.39,2.939c1.96,0.101,4.62,1.181,7.99,3.24c3.47,2.17,5.689,4.08,6.64,5.74
					c2.92-2.771,4.98-4.601,6.19-5.51C165.54,54.701,167.899,53.541,169.71,53.44z"/>
				<line fill="none" stroke="#1D1D1B" stroke-width="0.25" x1="193.399" y1="28.91" x2="193.399" y2="29.1"/>
				<path fill="none" stroke="#1D1D1B" stroke-width="0.25" d="M193.399,29.57v8.02h-2.409v-1.81v-0.15h-1.96v-1.81
					c0.05-0.3,0.069-0.55,0.069-0.75c0-0.2,0-0.38,0-0.53c0-0.76-0.069-1.41-0.22-1.96c-0.56-0.15-1.21-0.23-1.96-0.23V47.1
					c0,2.62,0.52,4.75,1.58,6.41c0.2,0.11,0.39,0.21,0.57,0.31c0.17,0.101,0.38,0.2,0.64,0.301l-0.46,0.229
					c0.66,0.7,1.46,1.28,2.42,1.73c-2.72,1.46-4.6,2.689-5.66,3.699h0.08c-0.61,0.601-1.22,1.33-1.85,2.19
					c-0.631,0.85-1.301,1.91-2,3.16c-0.301-0.5-0.591-0.96-0.87-1.391c-0.28-0.43-0.54-0.84-0.79-1.25
					c-0.05,0.101-0.101,0.221-0.15,0.341c-0.05,0.13-0.1,0.239-0.149,0.34c-0.561-0.9-1.07-1.71-1.551-2.41
					c-0.479-0.71-0.939-1.33-1.399-1.89c-0.55-0.4-1.2-0.83-1.96-1.28c-0.75-0.45-1.63-0.96-2.641-1.51
					c0.101-0.101,0.23-0.16,0.38-0.19c0.15-0.02,0.271-0.09,0.37-0.189c-0.399-0.25-0.83-0.5-1.279-0.75
					c-0.12-0.07-0.24-0.141-0.37-0.211c-0.34-0.189-0.69-0.399-1.061-0.619c2.11-1.061,3.42-2.341,3.92-3.851
					c0.4-1.21,0.61-2.92,0.61-5.13V30.35h-3.17v-1.96h-1.96v-4.15h5.13v-7.47c0-0.75-0.26-1.48-0.76-2.19
					c-0.351-0.25-0.7-0.51-1.061-0.79c-0.35-0.28-0.649-0.54-0.899-0.79l0.229-0.23c-0.41-0.3-0.8-0.6-1.17-0.9
					c-0.38-0.31-0.72-0.58-1.02-0.83l0.45-0.46c1.26-0.2,3.02-0.57,5.279-1.13h-0.069c0.75-0.25,1.68-0.74,2.79-1.47
					c1.1-0.73,2.439-1.67,4-2.83c2.659-1.91,5.399-3.09,8.22-3.55l-0.07,1.74c-1.16,0.35-2.17,0.96-3.02,1.81
					c1.659-0.75,3.34-1.28,5.05-1.58l-0.07,1.73c-4.18,1.31-6.26,5.76-6.26,13.36v5.5c0.8-0.15,1.35-0.4,1.66-0.75
					c0.3-0.35,0.45-1.86,0.45-4.53h2.409v1.96h1.96v7.67"/>
				<path fill="none" stroke="#1D1D1B" stroke-width="0.25" d="M188.88,54.19c-2.87-1.35-4.3-4.37-4.3-9.05V28.01
					c1.859,0,3.14,0.29,3.84,0.87c0.71,0.58,1.06,1.8,1.06,3.66c0,0.15,0,0.35,0,0.6c0,0.2-0.029,0.46-0.069,0.76v1.36h1.649v-16
					h-1.649c0,2.52-0.181,3.97-0.53,4.38c-0.51,0.65-1.94,0.98-4.3,0.98v-7.93c0-7.79,2.08-12.34,6.26-13.65l0.07-0.98
					c-2.41,0.35-4.95,1.48-7.62,3.39c-1.61,1.16-2.98,2.12-4.11,2.87s-2.05,1.26-2.75,1.51c-2.27,0.6-3.979,0.98-5.13,1.13
					l-0.08,0.08c0.4,0.3,0.79,0.6,1.17,0.9c0.38,0.3,0.771,0.63,1.17,0.98c1.41,1.26,2.11,2.54,2.11,3.85v7.85h-5.13v3.39h5.13
					v17.13c0,2.311-0.2,4.07-0.6,5.28c-0.601,1.71-1.761,2.97-3.471,3.77c2.61,1.41,4.32,2.49,5.13,3.25
					c1.061,1.05,2.24,2.71,3.551,4.98c0.02-0.03,0.029-0.061,0.04-0.08c0.59-1.08,1.18-2,1.77-2.79c0.6-0.8,1.18-1.48,1.73-2.04
					C184.78,56.61,186.46,55.5,188.88,54.19z"/>
				<path fill="none" stroke="#1D1D1B" stroke-width="0.25" d="M211.21,55.701c-1.811,0.96-3.351,2.22-4.601,3.779
					c-0.409,0.45-0.899,1.13-1.47,2.03c-0.58,0.91-1.27,2.09-2.08,3.55c-0.3-0.55-0.58-1.05-0.83-1.47
					c-0.25-0.43-0.5-0.82-0.75-1.17c-0.1,0.1-0.17,0.21-0.189,0.34c-0.03,0.12-0.09,0.24-0.19,0.34
					c-0.859-1.46-1.56-2.66-2.109-3.59c-0.561-0.93-1.03-1.59-1.44-2h-0.07c-0.449-0.4-0.939-0.78-1.47-1.13
					c-0.53-0.351-1.12-0.7-1.78-1.05c0.101-0.051,0.2-0.101,0.311-0.15c0.1-0.05,0.2-0.11,0.3-0.16c-0.71-0.55-1.56-1.1-2.57-1.66
					c2.011-1,3.301-2.08,3.851-3.239c0.35-0.91,0.529-2.44,0.529-4.601V35.48c0-0.75-0.09-1.43-0.27-2.03
					c-0.17-0.61-0.41-1.19-0.71-1.74c-0.15-0.1-0.3-0.19-0.45-0.26c-0.16-0.08-0.33-0.17-0.53-0.27l0.15-0.6
					c-0.46-0.39-0.94-0.72-1.44-1.01c-0.22-0.13-0.449-0.24-0.68-0.35l0.16-0.68c0.17,0,0.35-0.01,0.52-0.03
					c1.57-0.18,3.051-1.2,4.46-3.06c0.551-0.71,1.061-1.54,1.54-2.49c0.48-0.96,0.921-2.01,1.32-3.17c-0.7-1.71-1.56-3.14-2.56-4.3
					c-1.21-1.01-2.59-1.81-4.15-2.42l0.9-0.45c-0.45-0.3-0.9-0.57-1.36-0.79c-0.45-0.23-0.95-0.47-1.5-0.72
					c4.47-2.11,7.49-5.53,9.05-10.26c0.25,0.6,0.5,1.17,0.75,1.7c0.26,0.53,0.51,1.04,0.76,1.54c0.101-0.2,0.171-0.4,0.23-0.6
					c0.04-0.2,0.12-0.43,0.22-0.68c0.91,2.47,2.04,4.53,3.4,6.19c0.899,0.75,1.83,1.31,2.79,1.66v0.75c-0.05,0-0.08,0.03-0.08,0.08
					h-0.07c0.7,0.5,1.41,0.88,2.11,1.13v0.75c-3.271,1.41-5.86,4.21-7.771,8.38c0.851,2.11,1.86,3.95,3.021,5.51
					c0,0.05,0.02,0.1,0.07,0.15c0.96,0.75,1.859,1.13,2.72,1.13l0.07,0.33l0.079,0.35c-0.149,0.1-0.38,0.2-0.68,0.3
					c0.95,0.66,1.79,0.98,2.49,0.98l0.149,0.67v0.01c-2.56,1.16-3.85,3.25-3.85,6.26v10.04c0,2.16,0.18,3.7,0.53,4.601l0.229,0.449
					c0.25,0.21,0.57,0.381,0.98,0.53v0.38v0.3c0.45,0.5,1.1,0.931,1.96,1.28V55.701z"/>
				<path fill="none" stroke="#1D1D1B" stroke-width="0.25" d="M209.1,53.44c-1.76-0.8-2.899-1.859-3.399-3.17
					c-0.351-0.91-0.53-2.49-0.53-4.75V35.48c0-3.17,1.31-5.35,3.93-6.56c-1.56-0.1-3.2-1.23-4.91-3.4
					c-1.46-1.91-2.489-3.74-3.09-5.51c-0.71,2.12-1.689,4-2.939,5.66c-1.54,2.02-3.13,3.09-4.761,3.24
					c-0.119,0-0.25,0.01-0.369,0.01c0.13,0.06,0.25,0.11,0.369,0.18c2.41,1.19,3.631,3.31,3.631,6.38v10.04
					c0,2.26-0.181,3.84-0.53,4.75c-0.561,1.311-1.69,2.37-3.4,3.17c1.96,1.061,3.55,2.34,4.76,3.851
					c0.351,0.399,0.79,1.029,1.32,1.88c0.521,0.859,1.16,1.939,1.92,3.25c1.46-2.57,2.54-4.28,3.24-5.13
					C205.55,55.78,207.14,54.5,209.1,53.44z"/>
				<path fill="none" stroke="#1D1D1B" stroke-width="0.25" d="M201.1,2.06c-1.41,4.12-4.069,7.12-8,8.98c3.67,1.4,6.34,4.22,8,8.45
					c1.76-4.03,4.431-6.84,8-8.45C205.53,9.53,202.859,6.53,201.1,2.06z"/>
				<path fill="none" stroke="#1D1D1B" stroke-width="0.25" d="M202.53,22.2c0.1-0.2,0.149-0.35,0.149-0.45
					c-0.3-0.8-0.67-1.56-1.13-2.26c0,0.05-0.01,0.1-0.04,0.15c-0.02,0.05-0.03,0.1-0.03,0.15
					C201.729,20.54,202.08,21.35,202.53,22.2z"/>
				<path fill="none" stroke="#1D1D1B" stroke-width="0.25" d="M242.979,53.38l-0.01,0.06c0.51,0.7,1.19,1.23,2.04,1.58l-0.15,0.681
					c-3.67,0.1-6.97,0.829-9.88,2.189c-3.37,1.561-5.939,3.95-7.699,7.17c-0.4-0.76-1.011-1.54-1.811-2.34
					c-0.05,0.05-0.08,0.1-0.08,0.15c0,0.05-0.02,0.13-0.069,0.229c-0.2-0.3-0.4-0.61-0.601-0.91c-0.21-0.3-0.43-0.6-0.68-0.899
					c-0.561-0.41-1.11-0.83-1.66-1.29c-0.56-0.45-1.19-0.88-1.89-1.28c-3.12-1.91-5.761-2.92-7.92-3.02v-0.75
					c0.35,0,0.75-0.181,1.199-0.53c-0.6-0.25-1.17-0.41-1.689-0.49c-0.53-0.08-1.021-0.14-1.471-0.19v-0.38v-0.37
					c1-0.1,1.881-1.06,2.641-2.869c0.7-1.71,1.05-3.19,1.05-4.45v-8.45c0-2.47-0.53-4.45-1.58-5.96c-0.1-0.05-0.17-0.1-0.189-0.15
					c-0.03-0.05-0.091-0.1-0.19-0.16l0.08-0.22c-0.66-0.76-1.34-1.33-2.04-1.74l0.15-0.6c3.319,0,6.609-0.75,9.88-2.26
					c3.52-1.66,6.09-3.93,7.699-6.79c0.351,0.75,0.931,1.53,1.74,2.33c0.05-0.05,0.12-0.17,0.221-0.37
					c0.199,0.45,0.56,0.98,1.06,1.58c1.05,0.91,2.31,1.76,3.77,2.57c3.271,1.91,5.94,2.89,8,2.94l0.07,0.75
					c-0.25,0.11-0.47,0.19-0.67,0.27c-0.21,0.07-0.41,0.19-0.61,0.34c1.21,0.4,2.271,0.6,3.17,0.6l0.08,0.76
					c-2.569,0.7-3.85,3.24-3.85,7.62v8.45c0,1.15,0.1,2.18,0.3,3.09s0.53,1.71,0.98,2.41c0.3,0.21,0.529,0.33,0.68,0.38
					L242.979,53.38z"/>
				<path fill="none" stroke="#1D1D1B" stroke-width="0.25" d="M242.899,53.36c-2.77-1.399-4.149-4.12-4.149-8.14v-8.46
					c0-4.62,1.359-7.29,4.07-7.99c-2.16-0.1-4.881-1.11-8.15-3.02c-3.32-1.96-5.5-3.87-6.561-5.74c-1.56,2.72-4.069,4.88-7.539,6.49
					c-3.271,1.51-6.57,2.27-9.891,2.27c2.67,1.51,4,4.32,4,8.45v8.45c0,1.359-0.35,2.89-1.06,4.6c-0.8,2.01-1.811,3.04-3.011,3.09
					c2.261,0.11,4.98,1.141,8.141,3.101c3.27,2.06,5.46,4.05,6.57,5.96c1.5-2.641,3.6-4.73,6.329-6.25
					c0.391-0.22,0.79-0.42,1.21-0.62C235.78,54.19,239.13,53.47,242.899,53.36z"/>
				<path fill="none" stroke="#1D1D1B" stroke-width="0.25" d="M230.45,54.121c-4.98-2.311-7.471-5.16-7.471-8.53V27.26
					c1.311,0.85,2.391,1.61,3.24,2.26c0.86,0.66,1.49,1.23,1.89,1.74c1.561,1.71,2.341,3.67,2.341,5.88V54.121z"/>
				<path fill="none" stroke="#1D1D1B" stroke-width="0.25" d="M228.22,52.5c0.53,0.319,1.15,0.66,1.851,1.01V37.14
					c0-1.81-0.601-3.52-1.811-5.13c-0.4-0.3-0.84-0.63-1.32-0.98c-0.479-0.35-1.02-0.73-1.619-1.13v17.65
					c0,1.41,0.449,2.72,1.359,3.93C227.18,51.831,227.7,52.17,228.22,52.5z"/>
			</g>
		</g>
		<g id="XMLID_1_">
			<g>
				<path fill="#1D1D1B" d="M272.66,61.32c-0.58,0.94-1.29,2.181-2.15,3.74c-0.3-0.55-0.58-1.05-0.83-1.47
					c-0.25-0.43-0.5-0.82-0.75-1.17c-0.1,0.1-0.17,0.21-0.189,0.34c-0.03,0.12-0.091,0.24-0.19,0.34c-0.86-1.46-1.56-2.66-2.11-3.59
					c-0.229-0.38-0.449-0.72-0.64-1.01l0.271-0.19c0.18,0.25,0.359,0.54,0.56,0.86c0.53,0.859,1.17,1.939,1.92,3.25
					c1.71-2.97,2.79-4.7,3.25-5.21c1.05-1.36,2.65-2.61,4.81-3.771h0.011h0.16v0.3c0.449,0.5,1.1,0.931,1.96,1.28v0.681
					c-1.92,1.01-3.471,2.239-4.681,3.699C273.71,59.75,273.24,60.39,272.66,61.32z"/>
				<path fill="#FFFFFF" d="M271.64,25.3c1.061,1.2,2.72,2.39,4.98,3.54c-2.66,1.31-3.99,3.5-3.99,6.57v10.11
					c0,2.061,0.2,3.62,0.6,4.681c0.5,1.3,1.63,2.39,3.38,3.239c-2.159,1.16-3.76,2.41-4.81,3.771c-0.46,0.51-1.54,2.24-3.25,5.21
					c-0.75-1.311-1.39-2.391-1.92-3.25c-0.2-0.32-0.38-0.61-0.56-0.86c-0.29-0.43-0.54-0.77-0.761-1.02
					c-1.21-1.511-2.8-2.79-4.76-3.851c1.76-0.85,2.89-1.939,3.4-3.239c0.35-0.86,0.529-2.421,0.529-4.681V35.41
					c0-1.46-0.33-2.74-0.979-3.85c-0.76-1.31-1.82-1.96-3.17-1.96v-1.36c2.76,0,5.51-2.74,8.22-8.23c0.65,1.26,1.23,2.33,1.74,3.21
					C270.79,24.1,271.24,24.79,271.64,25.3z"/>
				<path fill="#FFFFFF" d="M252.1,20.01c2.721,5.49,5.46,8.23,8.23,8.23v1.36c-1.36,0-2.42,0.65-3.17,1.96
					c-0.66,1.11-0.98,2.39-0.98,3.85v10.11c0,2.11,0.2,3.69,0.601,4.75c0.5,1.311,1.63,2.37,3.399,3.17
					c-1.92,1.061-3.53,2.34-4.83,3.851c-0.71,0.85-1.79,2.56-3.25,5.13c-0.7-1.311-1.319-2.391-1.85-3.25
					c-0.521-0.851-0.99-1.51-1.391-1.96c-1.26-1.46-2.84-2.71-4.76-3.771c1.71-0.8,2.851-1.859,3.4-3.17
					c0.399-1.06,0.6-2.64,0.6-4.75V35.41c0-1.31-0.37-2.58-1.13-3.81c-0.75-1.24-1.71-2.15-2.87-2.76c1.11-0.55,2.07-1.12,2.87-1.7
					c0.811-0.57,1.49-1.19,2.04-1.84C249.859,24.29,250.899,22.53,252.1,20.01z"/>
				<path fill="#1D1D1B" d="M262.21,54.951c-0.25-0.2-0.51-0.391-0.79-0.57c-0.28-0.17-0.57-0.36-0.87-0.561
					C261.05,54.22,261.609,54.6,262.21,54.951z M264.1,45.52V35.41c0-1.21-0.25-2.29-0.76-3.25c-0.3-0.15-0.65-0.22-1.05-0.22
					c-1.26,0-2.22,0.6-2.87,1.81c-0.6,1.05-0.9,2.26-0.9,3.62v10.11c0,2.01,0.2,3.54,0.601,4.601c0,0.05,0.01,0.1,0.04,0.149
					c0.02,0.05,0.029,0.101,0.029,0.15l1.141,0.68c1.71-0.899,2.79-1.91,3.24-3.02C263.92,49.19,264.1,47.68,264.1,45.52z
					 M275.79,52.53c0.26,0.21,0.58,0.381,0.99,0.53v0.38h-0.16h-0.011c-1.75-0.85-2.88-1.939-3.38-3.239
					c-0.399-1.061-0.6-2.62-0.6-4.681V35.41c0-3.07,1.33-5.26,3.99-6.57c-2.261-1.15-3.92-2.34-4.98-3.54
					c-0.399-0.51-0.85-1.2-1.35-2.08c-0.51-0.88-1.09-1.95-1.74-3.21c-2.71,5.49-5.46,8.23-8.22,8.23c-2.771,0-5.51-2.74-8.23-8.23
					c-1.2,2.52-2.24,4.28-3.09,5.29c-0.55,0.65-1.229,1.27-2.04,1.84c-0.8,0.58-1.76,1.15-2.87,1.7c1.16,0.61,2.12,1.52,2.87,2.76
					c0.76,1.23,1.13,2.5,1.13,3.81v10.11c0,2.11-0.2,3.69-0.6,4.75c-0.55,1.311-1.69,2.37-3.4,3.17c1.92,1.061,3.5,2.311,4.76,3.771
					c0.4,0.45,0.87,1.109,1.391,1.96c0.53,0.859,1.149,1.939,1.85,3.25c1.46-2.57,2.54-4.28,3.25-5.13
					c1.3-1.511,2.91-2.79,4.83-3.851c-1.77-0.8-2.899-1.859-3.399-3.17c-0.4-1.06-0.601-2.64-0.601-4.75V35.41
					c0-1.46,0.32-2.74,0.98-3.85c0.75-1.31,1.81-1.96,3.17-1.96c1.35,0,2.41,0.65,3.17,1.96c0.649,1.11,0.979,2.39,0.979,3.85v10.11
					c0,2.26-0.18,3.82-0.529,4.681c-0.511,1.3-1.641,2.39-3.4,3.239c1.96,1.061,3.55,2.34,4.76,3.851
					c0.221,0.25,0.471,0.59,0.761,1.02L265.8,58.5c-0.3-0.42-0.55-0.75-0.79-0.99h-0.08c-0.399-0.35-0.82-0.66-1.25-0.94
					c-0.42-0.27-0.89-0.56-1.39-0.869c-1.01,0.56-1.9,1.149-2.681,1.779c-0.779,0.63-1.449,1.29-2,2
					c-0.399,0.45-0.89,1.13-1.47,2.03c-0.58,0.91-1.27,2.09-2.08,3.55c-0.3-0.55-0.569-1.05-0.83-1.47
					c-0.25-0.43-0.5-0.851-0.75-1.25c-0.1,0.1-0.159,0.22-0.189,0.34c-0.03,0.13-0.09,0.271-0.19,0.42c-0.75-1.31-1.42-2.42-2-3.32
					c-0.58-0.909-1.069-1.64-1.47-2.189c-0.45-0.4-0.97-0.79-1.54-1.17c-0.58-0.38-1.2-0.74-1.85-1.09
					c0.1-0.051,0.21-0.101,0.34-0.15c0.12-0.05,0.229-0.11,0.34-0.16c-0.86-0.6-1.74-1.149-2.65-1.66
					c2.021-1,3.301-2.08,3.851-3.239c0.399-1.061,0.609-2.591,0.609-4.601V35.41c0-1.31-0.479-2.64-1.439-4
					c-0.15-0.1-0.311-0.2-0.49-0.3c-0.17-0.1-0.34-0.2-0.49-0.31c0.05-0.05,0.101-0.07,0.15-0.07s0.1-0.03,0.149-0.08
					c-0.55-0.7-1.31-1.3-2.26-1.81c1.26-0.65,2.33-1.28,3.21-1.88c0.88-0.61,1.59-1.24,2.15-1.89c0.85-1.01,1.979-2.94,3.39-5.81
					c0.25,0.55,0.5,1.07,0.76,1.55c0.25,0.48,0.5,0.92,0.75,1.32l0.45-0.91c1.16,2.37,2.271,4.23,3.32,5.59
					c1.01,0.7,1.99,1.05,2.95,1.05c2.66,0,5.399-2.87,8.22-8.6c0.25,0.55,0.5,1.07,0.76,1.55c0.25,0.48,0.5,0.92,0.75,1.32
					l0.45-0.91c0.561,1.16,1.07,2.18,1.55,3.06c0.48,0.88,0.92,1.6,1.32,2.15c1.11,0.8,2.44,1.61,4,2.41
					c-0.15,0.1-0.29,0.17-0.42,0.19c-0.12,0.03-0.24,0.09-0.34,0.19c0.76,0.55,1.66,1.08,2.72,1.58c-2.92,1.36-4.38,3.55-4.38,6.57
					v10.11c0,1.061,0.05,1.95,0.16,2.681c0.1,0.729,0.25,1.34,0.45,1.85C275.62,52.161,275.689,52.331,275.79,52.53z"/>
			</g>
			<g>
				<path fill="none" stroke="#1D1D1B" stroke-width="0.25" d="M276.78,53.44v0.3c0.449,0.5,1.1,0.931,1.96,1.28v0.681
					c-1.92,1.01-3.471,2.239-4.681,3.699c-0.35,0.351-0.819,0.99-1.399,1.92c-0.58,0.94-1.29,2.181-2.15,3.74
					c-0.3-0.55-0.58-1.05-0.83-1.47c-0.25-0.43-0.5-0.82-0.75-1.17c-0.1,0.1-0.17,0.21-0.189,0.34c-0.03,0.12-0.091,0.24-0.19,0.34
					c-0.86-1.46-1.56-2.66-2.11-3.59c-0.229-0.38-0.449-0.72-0.64-1.01c-0.3-0.42-0.55-0.75-0.79-0.99h-0.08
					c-0.399-0.35-0.82-0.66-1.25-0.94c-0.42-0.27-0.89-0.56-1.39-0.869c-1.01,0.56-1.9,1.149-2.681,1.779
					c-0.779,0.63-1.449,1.29-2,2c-0.399,0.45-0.89,1.13-1.47,2.03c-0.58,0.91-1.27,2.09-2.08,3.55c-0.3-0.55-0.569-1.05-0.83-1.47
					c-0.25-0.43-0.5-0.851-0.75-1.25c-0.1,0.1-0.159,0.22-0.189,0.34c-0.03,0.13-0.09,0.271-0.19,0.42c-0.75-1.31-1.42-2.42-2-3.32
					c-0.58-0.909-1.069-1.64-1.47-2.189c-0.45-0.4-0.97-0.79-1.54-1.17c-0.58-0.38-1.2-0.74-1.85-1.09
					c0.1-0.051,0.21-0.101,0.34-0.15c0.12-0.05,0.229-0.11,0.34-0.16c-0.86-0.6-1.74-1.149-2.65-1.66
					c2.021-1,3.301-2.08,3.851-3.239c0.399-1.061,0.609-2.591,0.609-4.601V35.41c0-1.31-0.479-2.64-1.439-4
					c-0.15-0.1-0.311-0.2-0.49-0.3c-0.17-0.1-0.34-0.2-0.49-0.31c0.05-0.05,0.101-0.07,0.15-0.07s0.1-0.03,0.149-0.08
					c-0.55-0.7-1.31-1.3-2.26-1.81c1.26-0.65,2.33-1.28,3.21-1.88c0.88-0.61,1.59-1.24,2.15-1.89c0.85-1.01,1.979-2.94,3.39-5.81
					c0.25,0.55,0.5,1.07,0.76,1.55c0.25,0.48,0.5,0.92,0.75,1.32l0.45-0.91c1.16,2.37,2.271,4.23,3.32,5.59
					c1.01,0.7,1.99,1.05,2.95,1.05c2.66,0,5.399-2.87,8.22-8.6c0.25,0.55,0.5,1.07,0.76,1.55c0.25,0.48,0.5,0.92,0.75,1.32
					l0.45-0.91c0.561,1.16,1.07,2.18,1.55,3.06c0.48,0.88,0.92,1.6,1.32,2.15c1.11,0.8,2.44,1.61,4,2.41
					c-0.15,0.1-0.29,0.17-0.42,0.19c-0.12,0.03-0.24,0.09-0.34,0.19c0.76,0.55,1.66,1.08,2.72,1.58c-2.92,1.36-4.38,3.55-4.38,6.57
					v10.11c0,1.061,0.05,1.95,0.16,2.681c0.1,0.729,0.25,1.34,0.45,1.85c0.05,0.15,0.119,0.32,0.22,0.52
					c0.26,0.21,0.58,0.381,0.99,0.53V53.44z"/>
				<path fill="none" stroke="#1D1D1B" stroke-width="0.25" d="M276.62,53.44h-0.011c-1.75-0.85-2.88-1.939-3.38-3.239
					c-0.399-1.061-0.6-2.62-0.6-4.681V35.41c0-3.07,1.33-5.26,3.99-6.57c-2.261-1.15-3.92-2.34-4.98-3.54
					c-0.399-0.51-0.85-1.2-1.35-2.08c-0.51-0.88-1.09-1.95-1.74-3.21c-2.71,5.49-5.46,8.23-8.22,8.23c-2.771,0-5.51-2.74-8.23-8.23
					c-1.2,2.52-2.24,4.28-3.09,5.29c-0.55,0.65-1.229,1.27-2.04,1.84c-0.8,0.58-1.76,1.15-2.87,1.7c1.16,0.61,2.12,1.52,2.87,2.76
					c0.76,1.23,1.13,2.5,1.13,3.81v10.11c0,2.11-0.2,3.69-0.6,4.75c-0.55,1.311-1.69,2.37-3.4,3.17c1.92,1.061,3.5,2.311,4.76,3.771
					c0.4,0.45,0.87,1.109,1.391,1.96c0.53,0.859,1.149,1.939,1.85,3.25c1.46-2.57,2.54-4.28,3.25-5.13
					c1.3-1.511,2.91-2.79,4.83-3.851c-1.77-0.8-2.899-1.859-3.399-3.17c-0.4-1.06-0.601-2.64-0.601-4.75V35.41
					c0-1.46,0.32-2.74,0.98-3.85c0.75-1.31,1.81-1.96,3.17-1.96c1.35,0,2.41,0.65,3.17,1.96c0.649,1.11,0.979,2.39,0.979,3.85v10.11
					c0,2.26-0.18,3.82-0.529,4.681c-0.511,1.3-1.641,2.39-3.4,3.239c1.96,1.061,3.55,2.34,4.76,3.851
					c0.221,0.25,0.471,0.59,0.761,1.02c0.18,0.25,0.359,0.54,0.56,0.86c0.53,0.859,1.17,1.939,1.92,3.25
					c1.71-2.97,2.79-4.7,3.25-5.21c1.05-1.36,2.65-2.61,4.81-3.771"/>
				<path fill="none" stroke="#1D1D1B" stroke-width="0.25" d="M260.33,53.06c1.71-0.899,2.79-1.91,3.24-3.02
					c0.35-0.851,0.529-2.36,0.529-4.521V35.41c0-1.21-0.25-2.29-0.76-3.25c-0.3-0.15-0.65-0.22-1.05-0.22
					c-1.26,0-2.22,0.6-2.87,1.81c-0.6,1.05-0.9,2.26-0.9,3.62v10.11c0,2.01,0.2,3.54,0.601,4.601c0,0.05,0.01,0.1,0.04,0.149
					c0.02,0.05,0.029,0.101,0.029,0.15L260.33,53.06z"/>
				<path fill="none" stroke="#1D1D1B" stroke-width="0.25" d="M261.42,54.38c-0.28-0.17-0.57-0.36-0.87-0.561
					c0.5,0.4,1.06,0.78,1.66,1.131C261.96,54.75,261.7,54.56,261.42,54.38z"/>
			</g>
		</g>
	</g>
</g>
</svg>
