<?xml version="1.0" encoding="utf-8"?>
<!-- Generator: Adobe Illustrator 16.0.0, SVG Export Plug-In . SVG Version: 6.00 Build 0)  -->
<!DOCTYPE svg PUBLIC "-//W3C//DTD SVG 1.1//EN" "http://www.w3.org/Graphics/SVG/1.1/DTD/svg11.dtd">
<svg version="1.1" id="Layer_1" xmlns="http://www.w3.org/2000/svg" xmlns:xlink="http://www.w3.org/1999/xlink" x="0px" y="0px"
	 width="350.81px" height="327.254px" viewBox="0 0 350.81 327.254" enable-background="new 0 0 350.81 327.254"
	 xml:space="preserve">
<g>
	<path d="M190.569,22.305c-0.135-0.713-0.226-1.451-0.277-2.198c-0.719-10.353,7.074-19.331,17.427-20.061
		c10.363-0.722,19.339,7.082,20.062,17.436s-7.073,19.332-17.426,20.061c-0.654,0.049-1.303,0.059-1.938,0.034
		c-0.42,0.108-0.672,0.159-1.033,0.478c-1.064,1.661,2.71,1.351,0.144,8.608c0,0-0.017,0.796-0.303,1.594
		c-0.201,2.786-1.273,11.042-1.426,15.438c0.545,0.637,0.698,0.948,0.638,2.492c-0.242,2.089-0.723,7.208-1.493,10.488
		c-0.653,2.811-1.802,3.347-2.726,4.036c-1.301,5.823-1.645,10.647-4.982,17.72c-0.303,5.361-0.68,6.822-1.805,9.44
		c-0.125,7.895,0.42,9.07-4.907,21.571c-1.376,5.847-0.067,9.891,1.385,15.966c1.484,6.243,5.604,8.852,6.216,15.245
		c1.443,15.057,1.082,25.309-2.148,37.114l2.82,6.678c3.498,1.604,12.182,5.993,7.367,12.938
		c6.779,3.564,17.023,7.349,25.471,14.575c3.399,2.829,6.989,5.915,10.211,9.538c6.134,0.956,5.479,1.443,10.025,4.236
		c13.366,8.196,34.803,24.455,47.229,35.967c2.14,1.25,3.012,2.149,4.74,3.056c0.269,0.519,0.345,0.637,0.284,0.778
		c-0.594,1.503-0.571,1.546-1.107,2.743c0.671,0.741,1.921,1.435,2.668,2.083c0.698,0.218,0.698-0.117,1.896-0.411
		c1.561,1.46,3.492,2.637,4.186,2.567c2.116-0.536,1.755-0.1,3.542-2.098c0.644-0.663,1.72,0.008,1.72,0.008
		c0.671-0.787,2.114-2.357,4.037-3.491c1.534-0.905,4.464-1.005,4.464-1.005c0.98,0.009,0.796,1.015,0.712,1.342
		c-1.107,0.571-3.456,1.2-4.773,2.173c-2.87,2.969-5.119,6.973-5.119,6.973c5.78-0.789,9.33,0.646,14.146,0.093
		c2.626-0.151,4.565,0.018,7.324-1.979c0,0,2.65-1.887,5.026-2.888c2.307-1.006,4.496-0.47,6.526,1.007
		c1.435,1.618,2.298,1.627,0.117,3.911c-0.788,0.888-1.931,1.879-3.381,3.313c-2.551,2.519-5.983,5.879-9.539,8.658
		c-3.601,2.811-7.686,5.336-10.236,6.494c-6.436,4.623-4.917,3.414-9.976,7.996c-0.638,0.571-2.332,1.593-3.154,2.139
		c-1.996,1.311-2.618,0.218-3.919-2.182c0,0-0.595-0.896-1.577-2.811c-1.073-2.088-1.879-4.478-1.553-4.438
		c-1.199-0.151-6.595-6.478-6.609-7.836c-1.142-0.261-6.01-4.975-6.184-5.874l-4.312-3.457c-4.934,1.025-6.065-2.038-19.095-11.284
		c-1.486-0.025-3.783-0.829-7.075-3.271c-5.879-4.709-19.984-15.363-22.375-16.581c-2.568-1.308-5.637-2.541-7.519-4.094
		c-2.819-0.52-4.362-0.813-5.772-1.208c-1.441-0.394-2.752-0.904-6.4-1.393c-5.939-0.738-12.1-3.196-17.963-6.133
		c-2.777-1.315-5.193-1.986-7.584-3.013c-5.362-2.265-9.96-4.304-13.521-5.126c-1.359-0.135-7.82-2.073-11.209-4.052
		c-1.174-0.605-1.854-1.184-2.626-1.36c-1.778-0.409-2.921,0.294-3.724,0.564c-4.347,2.264-8.416,4.219-12.175,6.242
		c-3.5,1.871-6.721,3.815-10.136,5.781c-3.08,1.778-6.638,3.455-10.295,5.201c0,0-10.43,5.228-16.126,7.259
		c-4.942,4.034-15.044,11.015-21.209,14.472c-3.053,1.451-8.985,5.21-11.722,6.05c-1.561,1.257-7.123,5.226-11.478,8.499
		c-3.364,2.517-5.907,4.639-5.907,4.639c-1.954,1.753-1.821,2.584-5.537,1.005c-1.032,0.848-1.829,1.376-2.492,1.863
		c-2.684,1.947-2.912,1.478-3.893,1.426c-1.872,1.62-2.106,0.782-3.742,2.646c-1.074,1.662,0.025,1.266-2.241,2.072
		c-0.477,0.185-0.704,0.761-1.073,1.082c-1.821,1.5-1.828,5.738-6.191,6.041c-2.526,1.803-1.88,3.979-3.809,3.884
		c0.118,1.87-3.415,4.598-4.052,4.59c-5.563,1.92-5.95-2.172-12.628,0.881c-0.865,0.395-2.131,1.487-3.801,1.804
		c-2.937,0.554-6.486-0.025-8.65-1.703c-3.407-2.626-6.544-7.693-6.544-7.693c-1.083-2.56-0.453-4.179,2.928-6.597
		c1.409-0.896,1.669-1.567,4.036-1.729c1.175-0.444,0.855,0.235,2.954-0.519c1.216-0.437,1.216-0.125,3.666-0.335
		c0.562-0.378,1.35-0.513,2.407-0.856c1.938-0.639,3.827-1.351,3.827-1.351s0.494-0.495,2.357-0.318
		c1.577-0.646,3.197-1.604,4.027-1.898c-0.21-2.498,0.058-2.381,1.216-3.388c1.443-1.243,1.703-1.04,2.778-0.27
		c0.453-0.261,0.671-0.352,0.621-0.73c-0.177-1.301-1.292-1.913-0.956-4.781c-0.496-1.148-1.226-2.566-1.065-3.423
		c0.235-0.924,0.462-1.369,1.023-1.663c0.597-0.316,0.789,0.111,1.108,0.47c0.569,0.664,1.032,2.628,1.032,2.628
		c0.201,2.216,0.889,5.085,3.079,3.466c1.292-1.311,1.543-4.799,4.177-4.053l1.88,1.635c1.595-1.5,1.67-1.5,2.626-2.104
		c0,0-1.494-1.511-0.184-2.686c0.897-0.798,1.979-1.369,3.901-3.499c5.276-5.831,7.986-8.407,13.693-13.106
		c11.385-9.364,24.339-15.932,32.57-19.196c2.684-3.407,5.294-5.672,11.251-6.244c7.081-11.956,20.639-22.635,23.753-24.338
		c2.533-4.591,3.632-4.103,6.946-5.024c2.625-2.106,3.221-2.106,4.396-4.304c1.141-4.538-2.634-16.663,7.004-17.275
		c2.048-2.894,1.536-2.198,3.818-4.933c-1.543-3.81-2.181-6.996-2.6-9.741c-0.076-0.318-3.826-2.962-2.762-6.411
		c-1.593-1.896-4.572-6.321-5.502-8.394c-0.427,0.009-0.781-0.151-1.25-0.217c-0.487-0.077-1.092-0.05-1.771-0.108
		c-1.501,3.874-3.137,4.161-5.806,5.016c-4.766,10.156-6.443,14.454-19.927,22.851c-5.352,5.992-7.064,12.67-7.04,12.57
		c-0.922,1.978-0.596,4.749-0.109,6.233c-0.705,2.198-0.521,2.417-0.521,2.417c0.293,0.831,1.058,1.93,1.997,2.164
		c1.619,0.429,3.239,0.36,3.145,2.164c-0.217,2.257-3.179,1.888-4.581,1.636c-5.395-0.856-3.69-4.372-7.14-3.198
		c-2.643,1.729-3.633,6.83-7.946,6.168c-0.57-0.377-0.395-1.493-0.009-2.299c0.605-1.259,1.678-2.299,1.041-2.771
		c-2.803,0.882-8.424,2.745-8.424,2.745c-2.643,0.721-5.539-0.597-2.937-2.334c1.209-0.47,2.937-1.058,5.068-2.424
		c0,0,1.098-1.495-1.007-0.746c-2.3,0.822-5.689,1.333-8.122,1.064c0,0-5.042-0.662-5.689-1.058
		c-0.655-0.396-1.25-1.954,0.328-1.946c1.997,0.017,6.997-0.571,10.874-1.603c1.872-0.729,5.429-2.835,7.426-3.825
		c0,0,2.165-3.155,3.356-3.776c1.988-2.29,3.667-3.642,5.427-5.982c1.721-3.55,3.499-9.17,9.195-17.871
		c2.635-4.011,5.907-8.683,10.027-12.86c0,0,1.065-6.686,6.427-11.443c1.184-2.787,2.979-6.066,4.75-9.104
		c0.688-1.166,1.342-2.181,1.996-3.289c1.662-2.609,3.407-7.467,9.884-8.231c0,0,2.769-2.047,3.834-3.5
		c1.661-1.417,1.283-3.623,2.633-5.177c-2.064-2.013-7.34-5.797-7.854-11.058c-0.545-5.579,1.443-10.168,4.816-13.565
		c3.742-3.742,7.686-5.613,12.476-5.328c5.982,0.889,7.114,2.869,9.018,4.833c1.829,1.862,2.51,0.664,3.281,2.844
		c5.018,1.334,4.74,0.748,4.697,4.439c0.772,1.039,2.064,2.005,2.047,4.162c1.688-3.5,2.021-4.145,6.527-7.996
		c1.066-3.13,1.789-6.208,2.726-9.338c0.878-2.894,1.97-5.873,2.816-8.114c-0.897-6.326,0.946-7.374,3.406-12.92
		c-0.436-0.764-0.343-0.981-0.159-2.232c0.957-3.666,2.45-8.516,3.34-11.679c0,0,0.293-1.258,1.594-1.351
		c1.125-4.002,2.812-11.453,3.096-12.971c1.158-4.186,0.412-5.529-0.478-7.887c-0.286-0.772-0.151-1.872-0.646-2.728
		c-1.401-2.441-2.91-5.613-3.934-7.879c-0.664-1.442-1.713-6.88-1.713-6.88C189.788,19.528,190.569,22.305,190.569,22.305"/>
</g>
</svg>
