<?xml version="1.0" encoding="utf-8"?>
<!-- Generator: Adobe Illustrator 16.0.0, SVG Export Plug-In . SVG Version: 6.00 Build 0)  -->
<!DOCTYPE svg PUBLIC "-//W3C//DTD SVG 1.1//EN" "http://www.w3.org/Graphics/SVG/1.1/DTD/svg11.dtd">
<svg version="1.1" id="Layer_1" xmlns="http://www.w3.org/2000/svg" xmlns:xlink="http://www.w3.org/1999/xlink" x="0px" y="0px"
	 width="389.813px" height="98.263px" viewBox="0 0 389.813 98.263" enable-background="new 0 0 389.813 98.263"
	 xml:space="preserve">
<g>
	<path fill="#1D1D1B" d="M49.227,36.623c-1.312-1.119-2.961-2.115-4.915-3.023c1.495-1.27,2.766-2.706,3.728-4.348
		c1.619-2.748,2.441-5.832,2.441-9.166c0-3.564-0.944-6.855-2.803-9.792c-1.873-2.948-4.456-5.161-7.675-6.581
		c-3.143-1.387-7.418-2.061-13.063-2.061H2.116H0V72.48h25.023l19.674-2.854c1.685-0.889,3.235-1.96,4.615-3.266
		c4.337-4.096,6.538-9.169,6.538-15.084c0-2.914-0.587-5.664-1.743-8.184C52.948,40.569,51.308,38.395,49.227,36.623z M10.84,12.391
		c3.357,0,17.279,0,17.279,0c4.152,0,7.145,0.719,8.89,2.137c1.632,1.329,2.424,3.143,2.424,5.549c0,1.844-0.502,3.484-1.543,5.002
		c-1.038,1.511-2.421,2.598-4.221,3.311c-1.925,0.758-5.108,1.14-9.46,1.14c0,0-10.215,0-13.369,0
		C10.84,26.471,10.84,15.453,10.84,12.391z M43.104,56.785c-1.154,1.69-2.643,2.898-4.544,3.692
		c-2.001,0.839-5.331,1.263-9.903,1.263c0,0-14.436,0-17.816,0c0-3.238,0-18.028,0-21.268c3.152,0,13.326,0,13.326,0
		c5.455,0,9.285,0.256,11.385,0.758c2.93,0.703,5.244,2.002,6.876,3.859c1.599,1.815,2.372,3.892,2.372,6.333
		C44.799,53.354,44.245,55.111,43.104,56.785z"/>
	<polygon fill="#1D1D1B" points="68.934,18.998 66.812,18.998 58.399,18.998 58.399,67.766 68.934,66.24 	"/>
	<polygon fill="#1D1D1B" points="83.283,0 81.167,0 72.754,0 72.754,65.686 83.283,64.158 	"/>
	<polygon fill="#1D1D1B" points="87.11,0 87.11,63.602 97.638,62.079 97.638,0 95.521,0 	"/>
	<path fill="#1D1D1B" d="M116.482,59.346c-1.482-1.307-2.769-2.854-3.795-4.678c-1.601-2.869-2.383-5.776-2.383-8.895
		c0-3.109,0.793-6.1,2.359-8.893c1.561-2.775,3.685-4.961,6.305-6.488c2.663-1.555,5.495-2.309,8.656-2.309
		c4.907,0,8.92,1.664,12.271,5.092c3.363,3.441,4.995,7.625,4.995,12.779c0,3.345-0.747,6.385-2.223,9.027
		c-0.125,0.221-0.281,0.416-0.411,0.629l12.86-1.863v-34.75h-10.529c0,0,0,3.938,0,5.563c-1.706-1.608-3.534-2.962-5.504-3.993
		c-3.557-1.862-7.569-2.811-11.928-2.811c-7.537,0-14.072,2.754-19.43,8.182c-5.34,5.422-8.053,12.033-8.053,19.666
		c0,5.803,1.498,11.004,4.461,15.533L116.482,59.346z"/>
	<path fill="#1D1D1B" d="M240.678,17.758c-8.211,0-15.105,3.018-20.491,8.971c-3.129,3.449-5.255,7.34-6.389,11.615
		c-1.205-4.633-3.551-8.781-7.073-12.377c-5.335-5.443-11.866-8.209-19.418-8.209c-4.242,0-8.203,0.889-11.778,2.639
		c-2.08,1.018-4.043,2.387-5.893,4.01c0-6.838,0-24.406,0-24.406h-2.118H159.1v53.171l11.035-1.601
		c-0.601-1.85-0.914-3.844-0.914-6.024c0-3.335,0.758-6.368,2.242-9.007c1.479-2.621,3.635-4.738,6.403-6.295
		c2.789-1.57,5.773-2.365,8.869-2.365c3.068,0,5.868,0.768,8.564,2.348c2.671,1.557,4.827,3.773,6.419,6.582
		c1.592,2.816,2.397,5.822,2.397,8.916c0,0.314-0.041,0.619-0.058,0.932l8.263-1.197c0,0.02,0.002,0.039,0.002,0.059l11.272-1.693
		c0.429-4.02,2.056-7.457,4.963-10.436c3.407-3.501,7.365-5.203,12.1-5.203c4.699,0,8.651,1.702,12.075,5.204
		c1.693,1.728,2.953,3.606,3.8,5.659l10.742-1.553c-1.18-3.965-3.224-7.584-6.152-10.814
		C255.738,20.758,248.859,17.758,240.678,17.758z"/>
	<path fill="#1D1D1B" d="M315.875,29.398c-1.527-3.543-3.924-6.396-7.128-8.489c-3.193-2.091-6.896-3.151-10.989-3.151
		c-3.973,0-7.707,0.929-11.095,2.752c-1.864,1.011-3.643,2.342-5.327,3.927c0-1.56,0-5.438,0-5.438H270.8v17.984l13.274-1.926
		c0.895-1.42,2.024-2.707,3.425-3.875c2.67-2.223,5.607-3.303,8.976-3.303c2.862,0,5.17,0.676,6.863,2.009
		c0.718,0.562,1.32,1.286,1.854,2.112l11.061-1.604C316.132,30.055,316.01,29.711,315.875,29.398z"/>
	<path fill="#1D1D1B" d="M359.743,20.237c-3.46-1.644-7.226-2.479-11.2-2.479c-4.787,0-9.396,1.256-13.695,3.723
		c-3.35,1.916-6.147,4.421-8.383,7.434l38.143-5.525C363.015,22.098,361.391,21.025,359.743,20.237z"/>
	<path fill="#1D1D1B" d="M375.583,59.412l-0.244-4.238c0-0.486-0.463-1.09-1-1.527c1.815-1.117,1.098-3.244,1.098-4.658
		c-0.436-0.537,0-1.123,0-1.755c0.195-7.062-0.292-14.177-0.436-21.292c-0.338-0.762-0.448-1.525-0.479-2.287l-8.669,1.457
		l-3.198,0.537l-16.458,2.765c0.636,0.02,1.291,0.114,2.004,0.354c2.146-0.494,3.069,0.146,4.584,0.244
		c1.852,1.462,4.238,2.191,5.699,3.945c4.287,4.045,8.036,8.965,8.088,15.004c-0.151,0.783-0.295,1.854,0.096,2.535
		c-0.289,6.627-3.751,12.719-9.55,16.275c-2.386,0.971-4.916,1.41-7.504,1.85c-1.36-0.439-3.477,0.088-4.886-0.449
		c-0.102-0.728-0.877-1.119-1.172-1.17c-1.314-0.684-2.628-0.144-3.895-0.973c-1.414,0-2.293-1.268-3.701-1.606
		c-3.462-2.778-6.125-5.349-7.489-9.587c-0.195-0.978-1.608-1.756-0.972-2.781c-0.049-1.168,0.092-2.58,0.39-3.749
		c-0.491-1.511,0.631-2.487,0.582-4.091c0.049-2.586,2.29-5.096,1.312-7.609c0.193,0.099,1.465,0.203,1.37,0.008
		c0-0.344,0.582-0.436,0.677-0.733c1.511-2.483,4.003-3.472,6.151-5.421c0.534,0,1.318-0.432,1.793-0.967l-13.867,2.33
		c-2.316,3.279-4.349,6.734-5.184,10.734c-0.486,0.584,1.937,1.451-0.438,1.658c-1.411,7.986,0.876,15.734,5.114,22.311
		c2.826,6.432,9.549,9.016,15.687,10.088c0.832,0.191,1.609,0,2.341,0.336c3.556-0.68,6.628-0.438,9.793-1.996
		c2.484-0.778,4.434-2.041,6.819-3.018c1.658-1.222,3.557-2.391,5.604-3.071c0.44,0.147,0.534,0.636,0.826,0.925
		c0.394,3.461-0.583,6.824-1.41,10.186c-0.729,1.703-2.046,2.969-3.069,4.434c-3.508,5.555-10.722,7.256-16.954,6.67
		c-3.607-0.434-6.53-2.48-8.771-5.258c-2.58-1.217-3.753-3.654-5.019-6.09c-0.437,0.145-0.636-0.194-0.925-0.439
		c-2.975-0.684-5.459,0.195-8.184,0.584c-0.05,2.436,0.921,4.971,1.41,7.457c0.926,1.949,2.63,3.607,3.949,5.406
		c0.922,1.025,2.336,1.51,3.654,1.607c0.335,0.293,0.191,1.123,0.925,0.83c1.118,1.217,2.972,1.119,4.433,1.752
		c2.386,0.195,4.626,1.074,6.917,1.074c3.214,0.777,6.577-0.439,9.793-0.342c1.461-0.83,3.606-0.586,4.923-1.998
		c0.482-0.441,1.362-0.145,1.652-0.734c1.172,0.148,1.709-1.359,2.777-1.51c1.899-1.896,4.631-3.604,6.338-5.939
		c0.436-2.191,2.434-2.143,3.505-3.752c-0.437-0.977,1.12-0.83,1.169-1.756c0.049-1.27,1.852-2.145,1.07-3.408
		c-1.574-1.172,0.103-5.362,1.27-5.117c0.244-4.141-0.39-8.576-0.342-12.768C375.876,60.144,375.001,59.801,375.583,59.412z"/>
	<path fill="#1D1D1B" d="M315.337,35.299c-0.146-0.55-0.333-1.082-0.521-1.616l-9.177,1.542c1.343,3.602,1.699,7.631,2.587,11.423
		c2.389,9.698-0.21,18.708,0.764,28.403c0.583,0.586,1.074,0.197,1.755,0.49c1.704-0.539,4.18-0.113,5.788-0.646
		c0.537-3.066-0.15-6.332,0.438-9.547l0.242-0.389c0.438-7.895,0.293-15.641,0.491-23.242
		C316.934,42.193,316.096,41.773,315.337,35.299z"/>
	<path fill="#1D1D1B" d="M268.324,47.826c-0.491,3.703-0.491,7.018-0.438,10.621l-0.244,0.49c0.777,3.311-0.051,7.158,0.244,10.377
		c-0.099,2.191-0.437,5.016,0.583,6.818c2.678-0.096,5.75,0.086,8.432-0.836c0.537-0.537-0.194-1.707,0.244-2.34
		c0.147-0.684-0.635-1.217,0-1.852c-0.583-2.387,0.681-5.018-0.39-7.354c0.39-1.509,0.244-2.923,0.244-4.481
		c0.049-2.049,0.438-4.434,0.146-6.625c0.244-4.046,1.17-8.337,2.339-12.277c0.15-0.27,0.268-0.541,0.374-0.811l-11.03,1.852
		C268.762,43.502,268.226,45.713,268.324,47.826z"/>
	<path fill="#1D1D1B" d="M256.833,43.424c0.593,2.824,1.314,5.457,0.944,8.631c-0.438,1.414-1.153,3.06-1.881,4.524
		c-1.903,5.841-7.262,9.691-12.522,12.274c-4.922,1.268-9.955,3.371-14.926,0.936c-4.238-2.092-7.553-6.381-9.6-10.62
		c-0.193-2.093-1.701-3.851-1.264-6.089c-0.777-0.631,0.537-1.318-0.244-1.996c-0.075-0.34-0.112-0.674-0.127-1.008l-7.448,1.25
		l-0.499,0.086l-7.508,1.26c-0.166,1.783-0.502,3.516-1.064,5.086c-1.069,3.07-2.58,5.893-5.262,8.086
		c-1.119,0.682-1.899,1.27-3.071,1.854c-3.162,2.141-5.622,2.011-9.373,2.011c-1.853-0.586-3.699-0.05-5.404-1.021
		c-1.609,0.191-5.351,0.463-5.78-0.409c-2.921-1.165-5.018-2.968-6.575-5.699c-0.069-1.14-0.533-2.435-1.052-3.592l-9.328,1.565
		c0,0.04,0,0.084,0,0.125l0.244,0.587c-0.049,2.044-0.632,4.189-0.244,6.188c0.293,2.873-0.595,5.883,0.136,8.854
		c2.436,0.487,5.982-0.749,8.275-0.942c1.511-0.928,0.826-2.58,1.169-4.095c0.293-0.729,0.115-0.067,0.359-0.993
		c0.73,0.293,1.464,1.315,2.096,1.852h0.487c3.556,3.557,8.329,6.043,13.298,6.576c4.823-0.049,10.089,0.488,14.177-2.68
		c1.757-0.096,2-2.242,3.945-1.754c1.414-1.461,3.363-2.679,4.584-4.335c1.02-1.755,3.117-2.483,3.607-4.433
		c1.48-2.051,2.11-4.39,2.432-6.857c0.147,2.436,0.992,4.555,1.838,6.709c3.752,5.215,8.866,10.137,14.858,12.279
		c1.511,0.293,2.877,1.119,4.433,1.314c3.409,1.074,8.282,1.463,11.596,0.098c1.803,0,3.506-0.925,5.118-1.755
		c1.896-0.046,3.505-1.606,5.26-2.339c-0.392-1.613,3.52-1.055,2.541-2.592c1.513-0.488,2.185-1.891,3.794-1.986
		c0.678-1.218,1.705-2.584,2.679-3.705c0.928-2.242,1.849-4.137,2.825-6.334c-0.635-0.68,0.777-1.116,0-1.75
		c1.07-1.947,0.729-4.189,1.172-6.336c1.189-3.419,0.942-6.957-0.135-10.264L256.833,43.424z"/>
	<path fill="#1D1D1B" d="M150.096,66.088c-0.055-1.599-0.096-3.155-0.143-4.713l-13.28,2.23c-0.299,0.402-0.62,0.797-0.995,1.168
		c-6.187,5.697-15.153,7.846-23.145,4.58c-0.535-0.539-1.157-0.98-1.8-1.393l-10.57,1.779c0.226,0.406,0.454,0.811,0.675,1.221
		c0.504,0.939,1.471,1.818,2.213,2.572c1.408,1.43,3.004,2.693,4.756,3.678c0.745,0.418,1.619,0.981,2.49,1.041
		c0.762,0.052,1.556-0.173,1.758,0.764c0.496,0.168,0.868-0.461,1.384-0.248c0.225,0.091,0.364,0.262,0.514,0.43
		c0.144,0.162,0.296,0.322,0.543,0.404c0.594,0.199,1.249,0.176,1.866,0.149c0.541-0.024,1.155,0.037,1.675-0.021
		c7.115-0.781,14.032-2.926,19.393-7.213c0.896,0.066,1.349-0.697,1.901-1.262c0.472-0.481,0.789-0.972,1.172-1.521
		c0.047,0.811,0.191,1.723-0.346,2.395c-0.391,0.49,0.096,0.734,0.441,0.971c-0.197,0.195,0.484,0.684-0.098,0.928
		c0,1.27-0.195,2.83,1.022,3.363c2.583,1.023,5.31,0.098,8.086-0.099c-0.243-1.267,0.392-2.433,0.342-3.753
		C150.536,71.105,149.316,68.424,150.096,66.088z"/>
	<path fill="#1D1D1B" d="M93.955,74.279c-0.032-0.545,0.662-0.948,0.805-1.459c0.064-0.229,0.017-2.117,0.026-2.119
		c-0.004,0.002-12.271,2.003-12.271,2.003c-0.029,1.29-0.088,4.685-0.232,5.97c2.144,0.924,9.349,0.42,11.637-0.068
		c0.194-0.357,0.597-3.84,1.008-3.73C94.488,74.76,93.986,74.773,93.955,74.279z"/>
	<path fill="#1D1D1B" d="M67.125,79.34c1.047,0.324,3.608,0.23,4.695,0.209c0.854-0.016,2.199-0.041,2.97-0.373
		c0.162-0.07,0.566-0.477,0.647-0.486c0.453-0.051,0.866,0.449,1.355,0.469c0.173,0.006,1.835-0.249,1.867-0.402
		c0.221-1.037,0.342-4.206,0.412-5.287L66.99,75.396C67.039,76.006,67.072,78.732,67.125,79.34z"/>
	<path fill="#1D1D1B" d="M388.977,67.729c-0.538-0.536-1.707,0.195-2.341-0.243c-0.684-0.147-1.217,0.636-1.852,0
		c-1.489,0.364-3.074,0.009-4.623-0.05v9.352c0.977,0.033,1.929,0.039,2.832-0.043c2.191,0.098,5.016,0.436,6.819-0.582
		C389.716,73.482,389.899,70.411,388.977,67.729z"/>
	<path fill="#1D1D1B" d="M365.997,23.119l10.887-1.579v-2.763h-10.887C365.997,18.777,365.997,21.248,365.997,23.119z"/>
</g>
</svg>
