<?xml version="1.0" encoding="utf-8"?>
<!-- Generator: Adobe Illustrator 16.0.0, SVG Export Plug-In . SVG Version: 6.00 Build 0)  -->
<!DOCTYPE svg PUBLIC "-//W3C//DTD SVG 1.1//EN" "http://www.w3.org/Graphics/SVG/1.1/DTD/svg11.dtd">
<svg version="1.1" id="Layer_1" xmlns="http://www.w3.org/2000/svg" xmlns:xlink="http://www.w3.org/1999/xlink" x="0px" y="0px"
	 width="175.756px" height="51.628px" viewBox="0 0 175.756 51.628" enable-background="new 0 0 175.756 51.628"
	 xml:space="preserve">
<g>
	<path fill-rule="evenodd" clip-rule="evenodd" fill="#1D1D1B" d="M8.952,51.628c-25.05-7.26,9.679-35.299,16.795-41.419
		c7.971-5.124,18.646-14.945,28.894-7.543c0,7.543-5.836,3.131-9.679,3.131c-9.394,4.697-38.571,26.474-37.148,37.86
		c3.559,5.408,30.602-2.42,37.006-3.701c7.686-0.854,7.686-0.854,14.091-0.854c2.135,3.559,2.135,3.559,2.989,6.404
		c-0.285,0.143-0.569,0.428-0.711,0.711C43.112,47.074,26.032,50.49,8.952,51.628L8.952,51.628z M153.81,48.845
		c-3.647-4.07-5.688-7.486-7.823-11.045c-2.461,1.262-3.572,2.922-5.145,4.262c-0.498,1.691-0.449,4.324-0.803,6.268
		c-1.708,0.143-3.278-0.174-4.987-0.031c-0.142-4.412,0.087-9.328,0.087-13.74c-5.267,8.539-7.768,13.369-18.3,9.668
		c-1.565-3.984-2.135-6.262-2.277-9.109c-0.427,0-0.854,0-1.281,0.143c-4.554,6.832-11.386,17.08-19.499,7.971
		c-7.401,5.266-11.386,6.404-16.51-0.285c-9.251,6.121-12.525,4.697-15.087-4.695c0.427-9.965,1.708-25.051,7.259-32.31
		c0.712,0,1.423,0,2.277,0c1.139,1.281,2.277,2.562,3.416,3.843c-0.712,5.836-9.251,26.901-4.981,31.17
		c9.251,0,12.227-16.523,27.741-12.111c1.048,2.793-1.434,12.301,4.192,12.152c3.778-0.1,7.572-11.631,8.631-14.701
		c3.231-0.729,5.978,2.705,9.394,5.125c0.143,2.561,0.143,4.412,1.851,7.828c7.971,0,11.671-13.664,14.375-19.5
		c0.712-3.273,1.565-6.547,2.42-9.678c1.993-0.285,3.559-1.708,5.124,2.135c-0.569,6.263-2.812,14.879-2.409,22.661
		c3.415-2.846,14.507-14.263,19.773-13.267c0.143,2.989,0.143,2.989-0.285,5.55c-5.203,1.928-8.305,4.67-10.1,6.574
		c-0.183,3.732,7.098,8.223,7.095,11.766c0,1.125-0.932,2.104-2.261,3.438C155.281,49.339,154.242,49.33,153.81,48.845
		L153.81,48.845z M160.819,47.927c-1.281-1.709-1.281-1.992-0.997-3.131c2.848-0.996,6.975-1.709,9.252-4.697
		c-1.424-4.555-8.113-1.281-8.113-8.682c2.989-5.125,8.113-7.259,14.233-5.551c0.143,0.854,0.284,1.707,0.427,2.703
		c-3.558,0.996-5.551-0.143-7.971,1.709c0,2.846,4.128,2.561,7.544,4.98C178.326,44.796,167.65,46.789,160.819,47.927
		L160.819,47.927z M87.179,42.234c-1.958,0.066-3.158-1.576-3.131-2.848c0.088-3.994,6.383-7.076,7.984-6.275
		c0.143,2.135-0.015,4.014,0.128,6.291C91.45,39.953,89.313,42.164,87.179,42.234L87.179,42.234z"/>
</g>
</svg>
