<?xml version="1.0" encoding="utf-8"?>
<!-- Generator: Adobe Illustrator 16.0.0, SVG Export Plug-In . SVG Version: 6.00 Build 0)  -->
<!DOCTYPE svg PUBLIC "-//W3C//DTD SVG 1.1//EN" "http://www.w3.org/Graphics/SVG/1.1/DTD/svg11.dtd">
<svg version="1.1" id="Layer_1" xmlns="http://www.w3.org/2000/svg" xmlns:xlink="http://www.w3.org/1999/xlink" x="0px" y="0px"
	 width="125.709px" height="143.746px" viewBox="0 0 125.709 143.746" enable-background="new 0 0 125.709 143.746"
	 xml:space="preserve">
<g>
	<g>
		<g>
			<g>
				<path fill="#231F20" d="M11.958,127.016c1.639,0,3.219,0.863,4.091,2.071c0.02,0.032,0.041,0.062,0.062,0.093
					c0.032,0.049,0.077,0.096,0.105,0.146l0.003-0.004c0.581,0.722,1.472,1.184,2.473,1.184c1.754,0,3.175-1.422,3.175-3.175
					c0-0.823-0.316-1.569-0.825-2.134c-2.186-2.693-4.789-4.238-9.084-4.238C5.133,120.959,0,125.68,0,132.302
					c0,6.721,5.133,11.444,11.958,11.444c4.361,0,6.928-1.54,9.084-3.951l-0.004-0.005c0.483-0.55,0.778-1.267,0.778-2.056
					c0-1.718-1.392-3.108-3.108-3.108c-0.941,0-1.78,0.418-2.352,1.077c-1.021,1.021-2.202,2.037-4.398,2.037
					c-3.131,0-4.878-2.257-4.878-5.438C7.08,129.223,8.827,127.016,11.958,127.016z M108.921,129.632
					c-2.979-0.667-4.363-0.821-4.363-2.052c0-0.871,0.77-1.282,2.359-1.282c1.645,0,3.183,0.769,4.209,1.642l0.005-0.006
					c0.482,0.455,1.13,0.736,1.844,0.736c1.496,0,2.71-1.213,2.71-2.712c0-0.8-0.354-1.513-0.906-2.009
					c-1.794-1.824-4.346-2.99-7.91-2.99c-4.672,0-8.469,2.004-8.469,6.929c0,4.567,3.335,6.208,6.312,6.981
					c3.54,0.922,4.926,0.922,4.926,2.104c0,0.923-0.716,1.334-2.975,1.334c-1.769,0-3.417-0.648-4.792-1.745l0.066,0.062
					c-0.005-0.004-0.007-0.004-0.008-0.008c-1.104-1.004-2.811-0.959-3.85,0.123c-0.846,0.883-0.98,2.179-0.435,3.203
					c0.019,0.036,0.04,0.072,0.06,0.107c0.051,0.086,0.1,0.167,0.161,0.248c0.042,0.057,0.091,0.109,0.138,0.164
					c0.052,0.059,0.096,0.125,0.155,0.182c0.044,0.043,0.095,0.07,0.141,0.111c1.903,1.71,4.651,2.992,8.825,2.992
					c6.875,0,8.979-3.284,8.979-7.287C116.103,131.842,112.1,130.352,108.921,129.632z M56.991,120.959
					c-6.775,0-12.061,4.773-12.061,11.445c0,6.618,5.285,11.342,12.061,11.342c6.772,0,12.008-4.724,12.008-11.342
					C68.999,125.732,63.764,120.959,56.991,120.959z M56.991,137.896c-3.079,0-4.979-2.259-4.979-5.491
					c0-3.283,1.899-5.492,4.979-5.492c3.078,0,4.926,2.209,4.926,5.492C61.917,135.637,60.069,137.896,56.991,137.896z
					 M84.634,127.016c1.639,0,3.222,0.863,4.09,2.071c0.021,0.032,0.045,0.062,0.068,0.097c0.031,0.047,0.072,0.093,0.104,0.143
					l0.002-0.004c0.583,0.722,1.472,1.184,2.471,1.184c1.752,0,3.177-1.422,3.177-3.175c0-0.826-0.315-1.573-0.831-2.138
					c-2.185-2.691-4.785-4.234-9.08-4.234c-6.825,0-11.955,4.721-11.955,11.343c0,6.721,5.13,11.444,11.955,11.444
					c4.363,0,6.93-1.54,9.084-3.951l-0.004-0.005c0.482-0.55,0.779-1.267,0.779-2.056c0-1.718-1.393-3.108-3.109-3.108
					c-0.94,0-1.78,0.418-2.352,1.077c-1.022,1.021-2.203,2.037-4.398,2.037c-3.129,0-4.876-2.257-4.876-5.438
					C79.758,129.223,81.505,127.016,84.634,127.016z"/>
			</g>
			<path fill="#231F20" d="M41.499,122.367c-1.065-0.564-1.827-0.681-3.408-0.547c-2.858,0.24-5.076,2.246-5.48,2.75v0.146
				c-0.002-0.045-0.008-0.09-0.013-0.133c-0.002,0-0.002,0-0.002,0v-0.02c-0.139-1.834-1.66-3.277-3.532-3.277
				c-1.93,0-3.497,1.539-3.546,3.46v15.486c0.064,1.905,1.624,3.431,3.546,3.431c1.941,0,3.515-1.557,3.547-3.49v-4.211
				c0-5.746,3.32-7.193,5.18-7.232c0.492-0.01,1.755,0.472,2.744,0.293c1.929-0.355,3.206-2.204,2.853-4.134
				C43.18,123.756,42.452,122.852,41.499,122.367z"/>
		</g>
	</g>
	<g>
		<path d="M118.177,121.195h0.1v-0.545c0-0.145,0.004-0.261,0.012-0.344c0.008-0.082,0.03-0.154,0.063-0.215
			c0.035-0.061,0.087-0.112,0.153-0.15c0.064-0.039,0.139-0.059,0.219-0.059c0.115,0,0.219,0.043,0.311,0.131
			c0.062,0.057,0.1,0.128,0.117,0.211c0.017,0.082,0.024,0.201,0.024,0.354v0.617h0.331c0.128,0,0.226,0.031,0.293,0.092
			c0.066,0.061,0.102,0.139,0.102,0.234c0,0.12-0.049,0.205-0.145,0.254s-0.232,0.073-0.412,0.073h-0.169v1.655
			c0,0.141,0.007,0.248,0.015,0.326c0.011,0.075,0.037,0.137,0.078,0.184c0.045,0.047,0.115,0.07,0.211,0.07
			c0.054,0,0.125-0.01,0.215-0.028c0.092-0.017,0.163-0.027,0.213-0.027c0.074,0,0.137,0.03,0.197,0.087
			c0.059,0.06,0.088,0.131,0.088,0.219c0,0.146-0.08,0.257-0.239,0.335c-0.159,0.077-0.386,0.115-0.685,0.115
			c-0.281,0-0.494-0.047-0.641-0.141c-0.143-0.097-0.238-0.228-0.284-0.394c-0.046-0.168-0.067-0.391-0.067-0.672v-1.729h-0.119
			c-0.13,0-0.229-0.03-0.297-0.093c-0.069-0.062-0.104-0.142-0.104-0.234c0-0.096,0.037-0.174,0.107-0.234
			C117.937,121.227,118.04,121.195,118.177,121.195z"/>
		<path d="M123.593,123.015v1.201c0,0.19-0.045,0.331-0.13,0.428c-0.085,0.094-0.198,0.141-0.342,0.141
			c-0.136,0-0.247-0.047-0.333-0.141c-0.086-0.097-0.127-0.237-0.127-0.428v-1.44c0-0.227-0.008-0.402-0.023-0.529
			c-0.015-0.125-0.057-0.229-0.125-0.309s-0.176-0.121-0.324-0.121c-0.293,0-0.488,0.102-0.58,0.305
			c-0.096,0.203-0.141,0.496-0.141,0.874v1.221c0,0.188-0.042,0.329-0.127,0.425c-0.086,0.096-0.197,0.144-0.338,0.144
			c-0.137,0-0.25-0.048-0.336-0.144c-0.088-0.096-0.131-0.238-0.131-0.425v-2.587c0-0.169,0.04-0.299,0.117-0.387
			c0.08-0.088,0.184-0.132,0.311-0.132c0.123,0,0.227,0.04,0.311,0.124c0.082,0.082,0.123,0.197,0.123,0.344v0.086
			c0.155-0.188,0.324-0.326,0.502-0.416c0.179-0.088,0.378-0.133,0.598-0.133c0.226,0,0.421,0.047,0.584,0.139
			c0.16,0.088,0.297,0.227,0.402,0.41c0.15-0.186,0.315-0.324,0.488-0.412c0.176-0.09,0.369-0.137,0.581-0.137
			c0.247,0,0.459,0.051,0.639,0.148c0.179,0.096,0.312,0.236,0.4,0.417c0.079,0.163,0.117,0.42,0.117,0.772v1.763
			c0,0.19-0.044,0.331-0.13,0.428c-0.088,0.094-0.2,0.141-0.342,0.141c-0.138,0-0.248-0.048-0.336-0.144s-0.131-0.237-0.131-0.425
			v-1.518c0-0.196-0.01-0.351-0.027-0.468c-0.016-0.116-0.059-0.215-0.133-0.295c-0.073-0.079-0.183-0.119-0.33-0.119
			c-0.119,0-0.232,0.035-0.34,0.107c-0.106,0.068-0.188,0.164-0.248,0.283C123.626,122.359,123.593,122.628,123.593,123.015z"/>
	</g>
	<g>
		<g>
			<path d="M18.856,52.873c0,0-0.76,1.154-1.341,1.038c-0.583-0.117-0.87-0.33-0.454-1.101c0,0,0.781-0.563,1.165-0.531
				c0.384,0.029,0.526-0.055,0.626-0.203C18.951,51.928,19.342,52.408,18.856,52.873z"/>
			<g>
				<circle cx="56.195" cy="55.563" r="55.565"/>
				<path fill="#FFFFFF" d="M4.598,55.581c0,28.423,23.122,51.548,51.547,51.548c28.423,0,51.547-23.125,51.547-51.548
					c0-28.421-23.124-51.544-51.547-51.544C27.72,4.037,4.598,27.16,4.598,55.581z M7.376,55.581
					c0-26.89,21.877-48.767,48.769-48.767c26.891,0,48.769,21.877,48.769,48.767c0,26.892-21.878,48.771-48.769,48.771
					C29.253,104.352,7.376,82.473,7.376,55.581z"/>
				<g>
					<g>
						<path fill="#FFFFFF" d="M90.048,53.951h0.139v-0.767c0-0.206,0.006-0.368,0.017-0.483c0.011-0.117,0.042-0.219,0.091-0.302
							c0.05-0.087,0.121-0.157,0.215-0.213c0.094-0.055,0.197-0.082,0.312-0.082c0.162,0,0.307,0.062,0.438,0.183
							c0.086,0.08,0.142,0.18,0.165,0.297s0.035,0.282,0.035,0.498v0.869h0.466c0.179,0,0.317,0.041,0.411,0.127
							c0.096,0.084,0.143,0.191,0.143,0.323c0,0.169-0.068,0.288-0.202,0.355c-0.136,0.067-0.327,0.101-0.581,0.101H91.46v2.346
							c0,0.199,0.007,0.354,0.021,0.459c0.014,0.107,0.051,0.195,0.111,0.262c0.061,0.068,0.158,0.102,0.295,0.102
							c0.075,0,0.176-0.014,0.303-0.04s0.228-0.04,0.299-0.04c0.102,0,0.194,0.041,0.275,0.123c0.083,0.08,0.125,0.182,0.125,0.301
							c0,0.203-0.111,0.357-0.336,0.465c-0.224,0.107-0.545,0.162-0.963,0.162c-0.398,0-0.699-0.068-0.904-0.201
							s-0.341-0.318-0.404-0.553c-0.064-0.236-0.096-0.551-0.096-0.945v-2.439H90.02c-0.184,0-0.323-0.043-0.419-0.129
							c-0.097-0.085-0.145-0.195-0.145-0.327s0.05-0.239,0.15-0.323C89.708,53.992,89.854,53.951,90.048,53.951z"/>
						<path fill="#FFFFFF" d="M97.683,56.499v1.694c0,0.267-0.06,0.468-0.181,0.602c-0.12,0.133-0.28,0.201-0.479,0.201
							c-0.191,0-0.347-0.068-0.466-0.201c-0.12-0.134-0.18-0.335-0.18-0.602v-2.03c0-0.319-0.011-0.567-0.032-0.747
							c-0.021-0.176-0.08-0.322-0.176-0.436c-0.098-0.113-0.25-0.171-0.458-0.171c-0.415,0-0.69,0.144-0.823,0.431
							c-0.131,0.285-0.197,0.696-0.197,1.23v1.723c0,0.264-0.059,0.465-0.178,0.599c-0.119,0.136-0.277,0.204-0.473,0.204
							c-0.191,0-0.348-0.068-0.471-0.203s-0.184-0.334-0.184-0.598v-3.635c0-0.238,0.056-0.421,0.165-0.545
							c0.11-0.123,0.255-0.186,0.435-0.186c0.173,0,0.317,0.057,0.434,0.173c0.116,0.114,0.175,0.274,0.175,0.476v0.12
							c0.221-0.261,0.455-0.453,0.706-0.575c0.252-0.123,0.531-0.184,0.839-0.184c0.319,0,0.594,0.062,0.823,0.188
							c0.229,0.127,0.42,0.316,0.568,0.571c0.213-0.258,0.443-0.448,0.688-0.572c0.245-0.125,0.517-0.187,0.814-0.187
							c0.349,0,0.647,0.066,0.899,0.202c0.251,0.136,0.439,0.328,0.562,0.579c0.109,0.23,0.163,0.592,0.163,1.086v2.486
							c0,0.268-0.06,0.469-0.183,0.602c-0.121,0.133-0.281,0.201-0.479,0.201c-0.193,0-0.353-0.068-0.474-0.204
							c-0.123-0.134-0.185-0.335-0.185-0.599v-2.143c0-0.273-0.011-0.492-0.034-0.657s-0.086-0.304-0.189-0.415
							c-0.103-0.112-0.258-0.169-0.465-0.169c-0.168,0-0.326,0.052-0.477,0.149c-0.15,0.1-0.268,0.234-0.35,0.401
							C97.729,55.576,97.683,55.955,97.683,56.499z"/>
					</g>
					<g>
						<g>
							<path fill="#FFFFFF" d="M67.173,72.467c-0.4-0.994-2.948-0.178-2.948-0.178c-14.278,0.785-19.212-1.305-19.212-1.305
								s-1.58-0.495-1.88-0.442c-0.301,0.053-1.799,0.028-1.847,1.806c-0.052,1.781,2.417,1.881,2.768,1.881
								c0.348,0,1.298,0.156,1.298,0.156c5.192,1.779,17.423,1.256,17.423,1.256s1.02-0.109,1.556-0.199
								C66.552,75.07,67.572,73.462,67.173,72.467z M97.575,62.692c-3.398-1.09-7.764-0.122-7.764-0.122s-0.634-1.502-2.549-2.542
								c-1.221-0.663-3.665-1.267-5.7-1.331c-0.981-0.03-4.63,0.658-6.08,1.198c-0.215,0.079-1.019,0.253-0.862-0.565
								c0.123-0.63,1.629-1.607,2.753-1.904c2.477-0.65,5.402-0.96,6.744-0.354c2.295,1.036,0.849-2.865,1.614-4.883
								c0.771-2.011-2.111-2.615-3.07-3.018c-0.961-0.403-1.346-1.609-0.77-2.215c0.574-0.604,1.151-1.609,0.961-3.019
								c-0.191-1.41-2.305-1.41-3.264-1.812c-0.963-0.401-0.577-1.61,0.574-2.416c1.152-0.804,2.113-3.22,1.729-4.427
								c-0.385-1.209-1.729-0.807-2.688-0.807s-1.537-0.402-1.92-1.207c-0.387-0.807,0.575-1.209,0.961-2.215
								c0.381-1.006-0.037-1.879-1.539-2.013c-0.955-0.087-1.918-0.403-1.918-1.409c0-1.007,1.918-2.415,1.342-3.825
								c-0.576-1.409-2.301-0.604-3.07-0.604c-0.768,0-0.578-0.604-0.191-3.423c0.383-2.818-1.111-2.671-2.893-2.314
								c-1.318,0.262-2.293,1.711-3.637,1.509c-1.346-0.201-4.215-4.459-5.559-5.466c-1.344-1.006-3.147-3.651-6.146-0.912
								c-0.471,0.432-1.437,1.555-2.17,2.145c-0.247,0.131-0.499,0.278-0.761,0.447c-1.302,0.838-2.799,1.17-3.604,1.17
								c-1.728,0-2.993-4.473-5.106-4.876c-2.112-0.403-3.536,1.591-5.264,5.394c-0.519,1.141-1.082,2.494-0.729,3.803
								c0.429,1.598,1.253-1.389,3.542-1.389c1.067,0,1.89,0.271,2.503,0.685c1.231,0.829,1.87,2.188,1.745,3.367
								c-0.129,1.256-0.139,2.491-1.729,3.806c-1.73,1.037-3.599,0.691-4.36,0.277c-0.397-0.195-0.552-0.271-0.899-0.674
								c-0.109-0.129-0.359-0.402-0.503-0.833c-0.111-0.337-0.319-0.524-0.553-0.231c-0.252,0.314-0.329,0.801-0.327,0.793
								c-0.242,1.233-1.378,4.373-2.338,5.782c-0.961,1.409-3.841,2.817-4.993,3.824c-1.151,1.007-3.416,3.028-4.226,5.638
								c-0.807,2.608-1.731,4.234-2.688,5.031c-0.955,0.799-5.388,3.166-6.522,4.934c-0.725,1.127-0.264,0.809-0.773,2.113
								c-1.111,2.834,2.495,4.428,3.648,5.031c1.15,0.605,3.436,1.626,4.5,3.451c0.362,0.617,1.646,1.783,5.103,0.977
								c3.455-0.803,4.553-4.323,4.553-4.323c0.192-0.604,0.438-1.312,1.206-1.312c0.768,0,1.344,0.404,2.304,0.404
								s1.642-1.527,1.581-2.937c-0.037-0.846-0.246-0.543-0.368-1.25c-0.062-0.355,0.645-0.351,0.811-0.123
								c0.165,0.229,0.06,0.345,2.394,1.289c2.772,1.123,4.268-4.097,4.843-5.507c0.578-1.409,0.533-4.155,0.533-5.163
								c0-1.006,0.193-1.207,0.961-1.609s1.345,0.604,4.608,0.604c3.265,0,2.111-3.824,2.305-5.837
								c0.126-1.329-0.113-2.029-1.007-2.362c-0.396-0.148-1.135-0.764-0.801-1.16c0.74-0.872,1.235,0.324,2.004,0.524
								c0.767,0.202,1.191,0.348,2.447-0.277c0.979-0.491,1.956-2.652,2.445-3.211c0.632-0.721,1.436,2.259,0.667,3.466
								c-0.768,1.208-2.74,1.964-3.51,3.777c-0.767,1.81-0.615,5.548-0.659,6.438c-0.05,1.065-1.704,1.203-2.235,1.167
								c-2.186-0.153-3.37-1.116-4.522-1.116c-1.151,0-1.423,2.846-1.423,3.65c0,0.807,0.424,1.709-0.343,2.717
								c-0.769,1.006-1.728,1.822-2.112,3.027c-0.384,1.208-0.456,2.07-1.609,2.875c-1.152,0.805-2.659-0.525-3.447-0.629
								c-1.05-0.14-1.627,1.965-2.062,3.168c-0.271,0.758-2.163,2.486-3.892,3.09c-2.929,1.025-2.818,1.918-2.927,2.479
								c-0.192,1.006,0.472,2.239,3.262,2.632c1.156,0.163,4.06-1.173,4.634-2.082c1.218-1.925,1.633-1.563,2.594-1.964
								c0.96-0.402,2.376-0.693,3.261-1.115c5.684-2.707,9.468-5.434,10.618-6.439c1.154-1.006,1.517-2.135,1.321-2.941
								c-0.189-0.806,0.289-1.162,0.864-0.761c0.577,0.403,3.754,0.942,7.213-1.875c3.455-2.819,3.426-9.856,3.426-10.863
								s0.383-1.812,1.535-0.603c1.152,1.207,0.633,7.366-1.58,11.253c-1.018,1.79-2.26,2.436-3.029,4.246
								c-0.768,1.812,2.689,5.034,3.074,6.04c0.383,1.006,0.191,3.422,0,6.039c-0.193,2.615,0.176,3.277,1.52,3.881
								c1.346,0.605,1.258-0.221,2.428-0.998c1.471-0.977,4.434-1.426,5.605-1.395c5.707,0.146,7.213,1.726,6.961,2.539
								c-0.293,0.937-3.063-0.721-7.672-0.52c-4.607,0.201-8.061,4.616-8.74,5.555c-0.811,1.12-1.367,2.273-1.781,4.699
								c-0.213,1.244,0,1.941,0.623,2.214c0.848,0.369,2.406-0.675,2.865-2.032c0.416-1.232,1.492-2.846,2.078-3.433
								c0.897-0.897,1.479-1.474,1.875-1.651c0.812-0.371,0.74,0.533,0.117,1.792c-0.359,0.724-0.537,1.202-0.855,2.302
								c-0.259,1.023-0.343,1.394-0.445,1.926c-0.123,0.641-0.252,0.941-0.143,1.998c0.094,0.908,0.518,1.814,1.403,1.686
								c0.792-0.117,1.858-1.542,2.364-2.494c0.268-0.5,0.33-1.393,0.752-2.854c0.453-1.562,0.371-1.691,0.631-2.428
								c0.402-1.139,0.781-1.727,1.551-1.928c0.766-0.201,0.743,1.408,0.743,1.408c0,0.447-0.097,0.652-0.543,2.211
								c-0.238,0.83-0.663,2.809-0.78,4.002c-0.138,1.404,0.451,2.131,1.564,1.799c2.098-0.627,2.234-2.744,2.586-4.068
								c0.145-0.541,0.371-1.98,0.547-2.459c0.264-0.72,0.38-1.266,0.763-2.004c0.382-0.738,0.81-1.207,1.93-0.969
								c1.119,0.238,4.345,1.486,9.012,0.562c3.763-0.745,7.797-3.457,8.373-7.282C103.976,64.919,100.952,63.775,97.575,62.692z
								 M27.969,55.188c-0.198,0.141-0.366,1.248-0.388,1.551c-0.023,0.302-0.5,1.328-1.397,1.273
								c-0.281-0.019-0.597,0.094-0.775-0.857c-0.177-0.955,1.815-2.23,1.815-2.23C27.692,54.746,28.17,55.048,27.969,55.188z
								 M56.77,25.568c-0.417,0.869-0.996,1.688-1.731,1.91c-0.712,0.215-2.015,0.494-3.135,0.293
								c-0.996-0.182-1.472-0.604-2.172-1.379c-1.12-1.24-1.128-5.39,0.961-6.977c0.303-0.232,1.377-0.756,1.547-0.795
								c0.871-0.055,2.063,0.105,2.941,0.744c0.985,0.719,0.943,0.928,1.528,1.846C57.294,22.59,57.272,24.524,56.77,25.568z
								 M49.852,61.544c-0.584,0.858-0.455,2.368,2.341,2.525c2.797,0.158,10.283,0.054,11.033,0.106
								c0.748,0.052,2.847,0.367,3.146-0.576c0.3-0.941,0.649-2.617-1.448-2.671c-2.097-0.05-3.496,0.42-7.187,0.368
								c-3.696-0.053-5.451-0.462-5.451-0.462S50.519,60.562,49.852,61.544z M60.681,59.307c1.136-0.17,2.627-0.292,2.965-0.391
								c0.855-0.243,0.415-1.127,0.268-1.809c-0.152-0.679-0.818-1.453-1.615-1.243c-0.803,0.21-1.57,0.304-2.617,0.511
								c-1.049,0.21-2.594,0.419-2.594,0.419s-1.277,0.279-1.591,1.016c-0.303,0.71-0.914,1.886,0.332,1.938
								C57.076,59.801,60.032,59.402,60.681,59.307z M43.398,66.669c-0.099,1.099,0.765,1.466,1.499,1.622
								c0.892,0.19,1.723,0.523,1.723,0.523c3.885,0.719,10.93,1.217,15.807,1.016c0.996-0.041,1.047,0.264,2.545,0.105
								c1.499-0.158,1.712-1.204,1.612-2.566c-0.101-1.359-2.461-0.992-2.461-0.992C53.041,66.897,46.047,65.1,46.047,65.1
								C44.25,64.627,43.498,65.57,43.398,66.669z"/>
						</g>
					</g>
				</g>
			</g>
			<path fill="#FFFFFF" d="M40.905,20.105c-1.635,0-2.962,1.558-2.962,3.479c0,1.924,0.918,3.484,2.554,3.484
				c0.02,0,0.16-0.012,0.176-0.171c0.037-0.134-0.088-0.282-0.069-0.282c-0.364-0.184-0.851-0.688-0.851-1.648
				c0-0.723,0.303-1.359,0.765-1.77l0.416-0.199c0,0,0.501-0.26,0.677,0.117c0.085,0.184,0.191,0.586,0.198,0.906
				s-0.097,0.879,0.067,0.785c0.256-0.146,0.312-0.425,0.35-0.633c0.017-0.092,0.112-0.516,0.093-0.925
				c0.004-0.093,0.05-0.183,0.142-0.19c0.101-0.006,0.149,0.025,0.191,0.057c0.069,0.054,0.191,0.172,0.265,0.247
				c0.221,0.346,0.333,0.827,0.274,1.458c-0.057,0.424-0.315,0.615-0.019,0.807c0.316,0.039,0.554-0.575,0.585-0.691
				c0.08-0.314,0.114-1.002,0.114-1.352C43.871,21.663,42.544,20.105,40.905,20.105z"/>
			<path fill="#FFFFFF" d="M52.962,19.467c-1.762,0-3.191,1.679-3.191,3.748c0,2.072,0.99,3.75,2.751,3.75
				c0.02,0,0.173-0.012,0.191-0.184c0.038-0.145-0.098-0.303-0.076-0.303c-0.393-0.197-0.917-0.742-0.917-1.775
				c0-0.779,0.326-1.465,0.824-1.906l0.449-0.215c0,0,0.539-0.279,0.727,0.126c0.093,0.2,0.206,0.632,0.215,0.978
				c0.006,0.346-0.104,0.945,0.072,0.844c0.275-0.157,0.337-0.456,0.377-0.681c0.017-0.099,0.12-0.557,0.101-0.996
				c0.003-0.102,0.051-0.196,0.15-0.204c0.108-0.008,0.162,0.027,0.206,0.06c0.075,0.058,0.206,0.188,0.285,0.267
				c0.24,0.373,0.358,0.891,0.297,1.571c-0.062,0.455-0.34,0.661-0.02,0.869c0.339,0.04,0.597-0.621,0.629-0.746
				c0.086-0.339,0.123-1.079,0.123-1.454C56.155,21.146,54.725,19.467,52.962,19.467z"/>
			<path fill="#231F20" d="M17.735,53.648c0,0-1.521,0.339-1.236-0.574c0.286-0.912,0.838-1.176,1.111-1.223
				c0.273-0.045,0.512-0.084,0.712-0.204c0.198-0.12,0.361-0.456,0.446,0.056C18.854,52.214,17.982,53.822,17.735,53.648z"/>
		</g>
		<path fill="#FFFFFF" d="M40.994,67.324c-0.582-0.691-1.72,1.285-2.907,1.829c-0.456,0.208-1.124,0.727-3.36,0.597
			c-2.624-0.366-6.267-1.094-9.536-0.95c-4.412,0.192-7.638,3.982-8.175,4.954c-0.591,1.068-1.013,1.66-1.526,4.141
			c-0.202,0.971,0.243,2.049,0.84,2.311c0.811,0.354,1.688-0.112,2.127-1.412c0.398-1.181,1.522-3.28,2.086-3.842
			c0.859-0.86,0.905-0.802,1.28-0.98c0.509-0.244,1.314-0.01,0.734,0.898c-0.433,0.672-0.828,1.351-1.367,2.305
			c-0.391,0.69-0.761,1.137-0.992,1.894c-0.238,0.772-0.503,2.074-0.535,3.091c-0.031,0.932,1.315,1.884,2.269,1.17
			c0.612-0.461,1.24-1.701,1.797-2.855c0.496-1.029,0.897-1.949,1.206-2.72c0.533-1.335,0.877-2.033,1.36-2.432
			c0.708-0.583,0.699-0.774,1.437-0.968c0.733-0.193,0.539,0.93,0.539,0.93c-0.18,0.494-0.744,1.229-1.028,1.711
			c-0.354,0.602-0.737,1.306-1.078,2.611c-0.342,1.307-0.744,3.559-0.114,4.189c0.833,0.832,2.271-0.195,2.529-0.803
			c0.999-2.34,1.009-3.562,1.255-4.496c0.179-0.666,0.744-1.928,1.044-2.354c0.178-0.254,0.833-1.424,1.328-1.594
			c0.628-0.215,1.039-0.303,1.772-0.117c0.488,0.125,0.474,0.373,1.198,0.5c1.616,0.285,2.642-0.913,3.036-2.016
			c0.595-1.665,1.217-2.148,1.649-2.608C40.756,69.36,41.578,68.014,40.994,67.324z"/>
	</g>
</g>
</svg>
