<?xml version="1.0" encoding="utf-8"?>
<!-- Generator: Adobe Illustrator 16.0.0, SVG Export Plug-In . SVG Version: 6.00 Build 0)  -->
<!DOCTYPE svg PUBLIC "-//W3C//DTD SVG 1.1//EN" "http://www.w3.org/Graphics/SVG/1.1/DTD/svg11.dtd">
<svg version="1.1" id="Layer_1" xmlns="http://www.w3.org/2000/svg" xmlns:xlink="http://www.w3.org/1999/xlink" x="0px" y="0px"
	 width="172.22px" height="97.363px" viewBox="0 0 172.22 97.363" enable-background="new 0 0 172.22 97.363" xml:space="preserve">
<g>
	<path fill-rule="evenodd" clip-rule="evenodd" fill="#00539E" d="M171.531,34.892c-1.038-1.877-3.086-2.998-5.479-2.998h-17.81
		C138.733,13.854,114.823,0,86.81,0C58.798,0,34.888,13.854,25.379,31.894h-3.693c-3.179,0-6.714,1.955-8.404,4.646L1.065,55.998
		c-1.272,2.025-1.414,4.357-0.375,6.234c1.038,1.875,3.085,2.994,5.479,2.994h18.555C33.75,83.945,58.132,97.363,86.81,97.363
		s53.061-13.418,62.087-32.137h1.638c3.179,0,6.713-1.953,8.404-4.645l12.216-19.458C172.427,39.098,172.568,36.767,171.531,34.892
		L171.531,34.892L171.531,34.892z"/>
	<path fill-rule="evenodd" clip-rule="evenodd" fill="#FFFFFF" d="M169.33,39.979l-12.216,19.457
		c-1.303,2.074-4.131,3.637-6.579,3.637h-3.008c-8.162,18.609-32.291,32.137-60.717,32.137c-20.364,0-39.672-7.148-51.646-19.125
		c-4.012-4.01-7.054-8.393-9.078-13.012H6.168c-1.622,0-2.931-0.688-3.593-1.885c-0.662-1.197-0.547-2.672,0.315-4.045
		l12.216-19.456c1.302-2.074,4.13-3.637,6.579-3.637h5.002C32.994,21.039,52.227,2.042,86.81,2.155
		c47.557,0.156,60.697,32.092,60.338,32.244c-0.021,0.01-0.096-0.102-0.215-0.35h19.118c1.622,0,2.931,0.686,3.593,1.884
		C170.306,37.131,170.192,38.605,169.33,39.979L169.33,39.979L169.33,39.979z"/>
	<path fill-rule="evenodd" clip-rule="evenodd" fill="#EE3E33" d="M57.269,29.136l0.246-0.035l-0.069-0.238l-2.397-8.277
		l-0.047-0.162l-0.168,0.007c-4.75,0.185-8.321-0.091-8.356-0.093l-0.311-0.025l0.087,0.301l2.586,8.907l0.044,0.151l0.158,0.004
		C51.604,29.739,54.219,29.567,57.269,29.136L57.269,29.136L57.269,29.136z M134.373,33.929
		c-14.077-17.221-31.308-19.232-39.637-19.52c-8.333-0.287-18.391,2.299-27.874,4.598c-3.02,0.732-6.184,1.143-9.096,1.363
		l2.314,7.993c7.492-1.297,15.74-3.417,28.62-3.609c18.788-0.28,28.541,8.738,29.001,9.175H28.465
		c1.912-4.059,4.663-7.924,8.228-11.488C48.272,10.86,67.01,3.947,86.815,3.947c27.126,0,50.19,12.581,58.353,29.981H134.373
		L134.373,33.929L134.373,33.929z"/>
	<path fill-rule="evenodd" clip-rule="evenodd" fill="#EE3E33" d="M57.264,68.054c-3.05-0.432-5.665-0.602-8.228-0.539l-0.158,0.006
		l-0.044,0.15l-2.586,8.908l-0.087,0.299l0.311-0.025c0.036-0.002,3.606-0.275,8.356-0.092l0.168,0.006l0.047-0.162l2.396-8.277
		l0.07-0.238L57.264,68.054L57.264,68.054L57.264,68.054L57.264,68.054z M134.368,63.054h10.795
		C137,80.455,113.936,93.037,86.81,93.037c-19.806,0-38.543-6.914-50.122-18.492c-3.564-3.564-6.315-7.432-8.228-11.49h89.236
		c-0.46,0.438-10.213,9.455-29.001,9.176c-12.879-0.193-21.128-2.312-28.62-3.609l-2.315,7.992c2.913,0.223,6.076,0.631,9.096,1.363
		c9.482,2.299,19.54,4.887,27.873,4.598C103.061,82.287,120.291,80.277,134.368,63.054L134.368,63.054L134.368,63.054z"/>
	<path fill-rule="evenodd" clip-rule="evenodd" fill="#EE3E33" d="M117.928,74.298l4.53-2.928c0.931-0.648,0.802-1.443-0.288-1.762
		c0,0-1.605-0.473-3.604,0.893c-1.904,1.299-2.117,2.82-2.117,2.82C116.291,74.447,116.957,74.886,117.928,74.298L117.928,74.298
		L117.928,74.298z"/>
	<path fill-rule="evenodd" clip-rule="evenodd" fill="#EE3E33" d="M99.748,80.07l4.408-0.666c0.923-0.172,1.095-0.814,0.383-1.426
		c0,0-1.049-0.9-3.019-0.553c-1.876,0.33-2.555,1.404-2.555,1.404C98.464,79.623,98.816,80.179,99.748,80.07L99.748,80.07
		L99.748,80.07z"/>
	<path fill-rule="evenodd" clip-rule="evenodd" fill="#EE3E33" d="M90.904,80.564l4.046-0.242c0.849-0.08,1.057-0.648,0.462-1.26
		c0,0-0.876-0.902-2.688-0.748c-1.727,0.146-2.428,1.064-2.428,1.064C89.778,80.056,90.051,80.589,90.904,80.564L90.904,80.564
		L90.904,80.564z"/>
	<path fill-rule="evenodd" clip-rule="evenodd" fill="#EE3E33" d="M108.583,78.298l4.606-1.678c0.957-0.389,1.003-1.117,0.102-1.621
		c0,0-1.328-0.742-3.375,0.062c-1.951,0.768-2.447,2.072-2.447,2.072C107.1,78.099,107.602,78.623,108.583,78.298L108.583,78.298
		L108.583,78.298z"/>
	<path fill-rule="evenodd" clip-rule="evenodd" fill="#00539E" d="M166.051,36.204c1.707,0,2.361,1.183,1.453,2.629l-12.216,19.456
		c-0.908,1.445-3.047,2.629-4.754,2.629H6.168c-1.707,0-2.361-1.184-1.453-2.629l12.216-19.456c0.908-1.446,3.047-2.629,4.754-2.629
		H166.051L166.051,36.204L166.051,36.204z"/>
	<path fill-rule="evenodd" clip-rule="evenodd" fill="#FFFFFF" d="M60.949,42.987c2.042,0,3.955-0.742,4.272-1.659
		s-1.08-1.661-3.122-1.661s-3.955,0.744-4.272,1.661C57.509,42.245,58.907,42.987,60.949,42.987L60.949,42.987L60.949,42.987z"/>
	<path fill-rule="evenodd" clip-rule="evenodd" fill="#FFFFFF" d="M76.134,54.779l1.745-3.193h-2.945l-0.432,0.646
		c-0.884,0.814-1.439,1.221-2.658,1.221c-0.926,0-1.862,0.053-2.227-1.15c-0.19-0.625-0.165-1.459,0.231-2.254
		c0.854-1.717,2.354-2.918,4.077-3.338c1.076-0.264,1.924,0.482,2.182,1.29l0.088,0.276h2.944l2.402-4.826h-3.061
		c0,0-0.004,0.77-0.262,0.559c-0.717-0.588-1.747-0.902-2.997-0.902c-4.023,0-8.911,1.078-10.922,6.467
		c-0.693,1.856-0.372,3.446,0.574,4.67c1.221,1.58,2.586,2.154,4.382,2.297C74.319,56.947,76.134,54.779,76.134,54.779
		L76.134,54.779L76.134,54.779z"/>
	<polygon fill-rule="evenodd" clip-rule="evenodd" fill="#FFFFFF" points="93.385,47.112 91.058,48.217 95.976,40.054 
		88.518,40.054 86.438,43.506 88.636,43.474 82.917,52.931 80.76,52.931 78.68,56.384 86.524,56.384 88.951,51.65 92.118,56.384 
		97.749,56.384 99.829,52.931 96.681,52.9 94.456,49.976 100.176,47.255 102.351,47.245 104.388,43.917 100.156,43.892 
		93.385,47.112 93.385,47.112 	"/>
	<polygon fill-rule="evenodd" clip-rule="evenodd" fill="#FFFFFF" points="110.044,52.896 115.526,43.88 108.098,43.88 
		106.019,47.333 108.189,47.297 104.816,52.896 102.637,52.896 100.557,56.349 110.164,56.349 112.244,52.896 110.044,52.896 
		110.044,52.896 	"/>
	<path fill-rule="evenodd" clip-rule="evenodd" fill="#FFFFFF" d="M112.539,42.987c2.041,0,3.954-0.742,4.272-1.659
		c0.317-0.917-1.08-1.661-3.122-1.661c-2.043,0-3.955,0.744-4.272,1.661C109.098,42.245,110.497,42.987,112.539,42.987
		L112.539,42.987L112.539,42.987z"/>
	<path fill-rule="evenodd" clip-rule="evenodd" fill="#FFFFFF" d="M122.059,48.551h4.813c0,0,1.509-2.499-1.281-2.499
		C123.381,46.052,122.059,48.551,122.059,48.551L122.059,48.551L122.059,48.551z M130.967,44.903
		c1.293,1.796,0.79,3.232,0.499,4.383c-0.015,0.043-0.531,1.338-0.531,1.338h-9.594c0,0-1.365,2.9,1.425,3.043
		c1.252,0.064,2.116-0.477,2.981-1.26l0.193-0.174h3.661c0,0-1.221,4.451-7.469,4.416c-2.123-0.012-3.921-0.676-5.062-1.904
		c-1.15-1.236-1.503-2.898-0.993-4.674c1.052-3.665,5.21-6.821,9.502-6.821C127.622,43.251,129.972,43.521,130.967,44.903
		L130.967,44.903L130.967,44.903z"/>
	<path fill-rule="evenodd" clip-rule="evenodd" fill="#FFFFFF" d="M138.133,52.566l0.265-0.551h-4.401l-2.611,4.334h4.377
		l0.251-0.416c0,0,1.196,0.717,3.252,0.717c3.158,0,7.315-1.258,8.979-4.021c1.915-3.18-1.987-3.862-4.338-4.273
		c-1.47-0.259-1.757-0.439-1.467-0.923c0.308-0.51,1.25-0.786,1.979-0.786c0.385,0,0.933-0.038,1.465,0.223
		c0.78,0.382,0.338,1.13,0.338,1.13h3.815l2.481-4.119h-4.283l-0.146,0.291c0,0-1.58-0.526-2.865-0.526
		c-3.104,0-7.048,1.33-8.579,3.872c-1.82,3.022,1.804,3.745,4.195,4.221l0.249,0.051c1.398,0.281,1.62,0.439,1.316,0.943
		c-0.372,0.619-1.465,1.002-2.263,1.002c-0.369,0-0.832,0.164-1.509-0.152C138.004,53.289,138.007,52.83,138.133,52.566
		L138.133,52.566L138.133,52.566z"/>
	<path fill-rule="evenodd" clip-rule="evenodd" fill="#FFFFFF" d="M32.016,52.703h2.496c2.11,0,3.096-0.115,4.979-1.125
		c1.515-0.814,2.443-2.188,3.197-3.44c0.86-1.428,0.539-2.523,0.036-3.312c-0.363-0.572-1.078-1.006-2.42-1.205h-2.829
		L32.016,52.703L32.016,52.703L32.016,52.703z M25.068,52.841l5.654-9.385l-3.459,0.014l2.08-3.453H41.53
		c3.654,0,5.759,0.659,7.038,2.204c1.268,1.534,2.013,4.657,0.57,7.052c-1.286,2.135-2.545,4.327-5.388,5.819
		c-3.148,1.668-8.091,1.258-11.863,1.258H19.504l2.081-3.453L25.068,52.841L25.068,52.841L25.068,52.841z"/>
	<polygon fill-rule="evenodd" clip-rule="evenodd" fill="#FFFFFF" points="58.334,52.896 63.815,43.88 56.388,43.88 54.308,47.333 
		56.478,47.297 53.105,52.896 50.927,52.896 48.847,56.349 58.453,56.349 60.533,52.896 58.334,52.896 58.334,52.896 	"/>
	<path fill-rule="evenodd" clip-rule="evenodd" fill="#FFF100" d="M57.269,29.136l0.246-0.035l-0.069-0.238l-2.397-8.277
		l-0.047-0.162l-0.168,0.007c-4.75,0.185-8.321-0.091-8.356-0.093l-0.311-0.025l0.087,0.301l2.586,8.907l0.044,0.151l0.158,0.004
		C51.604,29.739,54.219,29.567,57.269,29.136L57.269,29.136L57.269,29.136z"/>
	<path fill-rule="evenodd" clip-rule="evenodd" fill="#FFF100" d="M57.264,68.054c-3.05-0.432-5.665-0.602-8.228-0.539l-0.158,0.006
		l-0.044,0.15l-2.586,8.908l-0.087,0.299l0.311-0.025c0.036-0.002,3.606-0.275,8.356-0.092l0.168,0.006l0.047-0.162l2.396-8.277
		l0.07-0.238L57.264,68.054L57.264,68.054L57.264,68.054z"/>
	<path fill-rule="evenodd" clip-rule="evenodd" fill="#FFF100" d="M134.373,33.929c-14.077-17.221-31.308-19.232-39.637-19.52
		c-8.333-0.287-18.391,2.299-27.874,4.598c-3.02,0.732-6.184,1.143-9.096,1.363l2.314,7.993c7.492-1.297,15.74-3.417,28.62-3.609
		c18.788-0.28,28.541,8.738,29.001,9.175H134.373L134.373,33.929L134.373,33.929z"/>
	<path fill-rule="evenodd" clip-rule="evenodd" fill="#FFF100" d="M134.368,63.054h-16.671c-0.46,0.438-10.213,9.455-29.001,9.176
		c-12.879-0.193-21.128-2.312-28.62-3.609l-2.315,7.992c2.913,0.223,6.076,0.631,9.096,1.363c9.482,2.299,19.54,4.887,27.873,4.598
		C103.061,82.287,120.291,80.277,134.368,63.054L134.368,63.054L134.368,63.054z"/>
	<path fill-rule="evenodd" clip-rule="evenodd" fill="#EE3E33" d="M108.583,18.767c-0.98-0.324-1.482,0.201-1.114,1.166
		c0,0,0.496,1.305,2.447,2.072c2.047,0.805,3.375,0.062,3.375,0.062c0.901-0.504,0.855-1.232-0.102-1.621L108.583,18.767
		L108.583,18.767L108.583,18.767z"/>
	<path fill-rule="evenodd" clip-rule="evenodd" fill="#EE3E33" d="M122.458,25.696l-4.53-2.93c-0.972-0.586-1.638-0.146-1.479,0.979
		c0,0,0.213,1.521,2.117,2.82c1.999,1.364,3.604,0.893,3.604,0.893C123.26,27.138,123.389,26.345,122.458,25.696L122.458,25.696
		L122.458,25.696z"/>
	<path fill-rule="evenodd" clip-rule="evenodd" fill="#EE3E33" d="M90.904,16.503c-0.853-0.025-1.126,0.508-0.607,1.186
		c0,0,0.701,0.916,2.428,1.064c1.812,0.153,2.688-0.748,2.688-0.748c0.595-0.612,0.387-1.179-0.462-1.26L90.904,16.503
		L90.904,16.503L90.904,16.503z"/>
	<path fill-rule="evenodd" clip-rule="evenodd" fill="#EE3E33" d="M99.748,16.998c-0.932-0.111-1.283,0.446-0.782,1.239
		c0,0,0.679,1.074,2.555,1.404c1.97,0.348,3.019-0.553,3.019-0.553c0.712-0.612,0.54-1.254-0.383-1.426L99.748,16.998L99.748,16.998
		L99.748,16.998z"/>
	<path fill-rule="evenodd" clip-rule="evenodd" fill="#EE3E33" d="M117.928,74.298l4.53-2.928c0.931-0.648,0.802-1.443-0.288-1.762
		c0,0-1.605-0.473-3.604,0.893c-1.904,1.299-2.117,2.82-2.117,2.82C116.291,74.447,116.957,74.886,117.928,74.298L117.928,74.298
		L117.928,74.298z"/>
	<path fill-rule="evenodd" clip-rule="evenodd" fill="#EE3E33" d="M99.748,80.07l4.408-0.666c0.923-0.172,1.095-0.814,0.383-1.426
		c0,0-1.049-0.9-3.019-0.553c-1.876,0.33-2.555,1.404-2.555,1.404C98.464,79.623,98.816,80.179,99.748,80.07L99.748,80.07
		L99.748,80.07z"/>
	<path fill-rule="evenodd" clip-rule="evenodd" fill="#EE3E33" d="M90.904,80.564l4.046-0.242c0.849-0.08,1.057-0.648,0.462-1.26
		c0,0-0.876-0.902-2.688-0.748c-1.727,0.146-2.428,1.064-2.428,1.064C89.778,80.056,90.051,80.589,90.904,80.564L90.904,80.564
		L90.904,80.564z"/>
	<path fill-rule="evenodd" clip-rule="evenodd" fill="#EE3E33" d="M108.583,78.298l4.606-1.678c0.957-0.389,1.003-1.117,0.102-1.621
		c0,0-1.328-0.742-3.375,0.062c-1.951,0.768-2.447,2.072-2.447,2.072C107.1,78.099,107.602,78.623,108.583,78.298L108.583,78.298
		L108.583,78.298z"/>
	<polygon fill-rule="evenodd" clip-rule="evenodd" fill="#FFF100" points="62.368,33.927 69.408,33.927 69.408,28.464 
		62.368,29.612 62.368,33.927 62.368,33.927 	"/>
	<polygon fill-rule="evenodd" clip-rule="evenodd" fill="#FFF100" points="62.363,63.07 69.403,63.07 69.403,68.533 62.363,67.384 
		62.363,63.07 62.363,63.07 	"/>
</g>
</svg>
