<?xml version="1.0" encoding="utf-8"?>
<!-- Generator: Adobe Illustrator 16.0.0, SVG Export Plug-In . SVG Version: 6.00 Build 0)  -->
<!DOCTYPE svg PUBLIC "-//W3C//DTD SVG 1.1//EN" "http://www.w3.org/Graphics/SVG/1.1/DTD/svg11.dtd">
<svg version="1.1" id="Layer_1" xmlns="http://www.w3.org/2000/svg" xmlns:xlink="http://www.w3.org/1999/xlink" x="0px" y="0px"
	 width="165.509px" height="93.663px" viewBox="0 0 165.509 93.663" enable-background="new 0 0 165.509 93.663"
	 xml:space="preserve">
<g>
	
		<path fill-rule="evenodd" clip-rule="evenodd" fill="#1D1D1B" stroke="#1D1D1B" stroke-width="0.1778" stroke-miterlimit="2.6131" d="
		M63.546,87.645h0.851c0.601,0.057,0.807,0.623,0.88,1.492c0.074,0.869,0.015,2.039,0.059,3.285
		c0.015,0.283,0.073,0.549,0.147,0.812H68.3v-0.188c-0.117-0.133-0.19-0.303-0.249-0.492c-0.147-0.906-0.162-3.344-0.235-4.477
		c-0.044-0.982-0.557-1.625-1.276-1.832v-0.037c1.086-0.643,1.364-1.719,1.364-3.23c0-2.814-1.056-3.91-3.168-3.91h-3.771v14.166
		h2.582V87.645L63.546,87.645z M138.562,87.645h0.852c0.602,0.057,0.807,0.623,0.88,1.492s0.015,2.039,0.06,3.285
		c0.014,0.283,0.073,0.549,0.146,0.812h2.816v-0.188c-0.117-0.133-0.19-0.303-0.249-0.492c-0.146-0.906-0.162-3.344-0.234-4.477
		c-0.045-0.982-0.558-1.625-1.277-1.832v-0.037c1.086-0.643,1.365-1.719,1.365-3.23c0-2.814-1.057-3.91-3.17-3.91h-3.771v14.166
		h2.582V87.645L138.562,87.645z M134.794,82.959c0-2.719-1.218-4.23-3.477-4.23c-2.261,0-3.521,1.512-3.521,4.23v5.762
		c0,3.191,0.909,4.854,3.521,4.854c2.61,0,3.477-1.662,3.477-4.854V82.959L134.794,82.959z M15.331,82.959
		c0-2.719-1.218-4.23-3.477-4.23c-2.26,0-3.522,1.512-3.522,4.23v5.762c0,3.191,0.91,4.854,3.522,4.854
		c2.611,0,3.477-1.662,3.477-4.854V82.959L15.331,82.959z M3.742,93.234c0.792,0,1.614-0.094,2.289-0.66
		c0.749-0.605,1.086-1.645,1.101-3.061v-6.291c0-1.359-0.162-2.738-1.159-3.494c-0.837-0.623-1.966-0.66-2.905-0.66H0.265v14.166
		H3.742L3.742,93.234z M2.847,81.619c1.262,0.037,1.687,0.131,1.702,1.793v4.629c0.044,1.889,0.029,2.795-1.702,2.645V81.619
		L2.847,81.619z M12.749,89.004c0,0.812-0.059,2.02-0.895,2.02c-0.837,0-0.939-1.207-0.939-2.02v-5.818
		c0-0.869,0.103-1.906,0.924-1.906c0.851,0,0.91,1.037,0.91,1.906V89.004L12.749,89.004z M20.788,93.234h2.641V79.068h-2.45
		l0.25,7.914h-0.044l-1.995-7.914h-2.656v14.166h2.45l-0.235-7.895l0.029-0.037L20.788,93.234L20.788,93.234z M28.943,93.234h2.641
		V79.068h-2.451l0.25,7.914h-0.043l-1.996-7.914h-2.656v14.166h2.451l-0.235-7.895l0.029-0.037L28.943,93.234L28.943,93.234z
		 M34.941,93.234l0.309-2.758h2.025l0.367,2.758h2.612l-2.392-14.166h-3.111l-2.406,14.166H34.941L34.941,93.234z M37.025,87.984
		h-1.497l0.749-6.348h0.03L37.025,87.984L37.025,87.984z M47.264,93.234V89.74l0.572-1.436l1.423,4.93h2.729l-2.495-7.914
		l2.348-6.252h-2.641l-1.907,5.666h-0.029v-5.666h-2.583v14.166H47.264L47.264,93.234z M54.921,93.234l0.308-2.758h2.025
		l0.367,2.758h2.612l-2.392-14.166h-3.11l-2.406,14.166H54.921L54.921,93.234z M57.004,87.984h-1.496l0.748-6.348h0.029
		L57.004,87.984L57.004,87.984z M63.546,81.619c1.262-0.039,1.805,0.037,1.805,1.719c0,0.867-0.176,1.756-0.924,1.756h-0.881V81.619
		L63.546,81.619z M71.232,93.234l0.308-2.758h2.025l0.366,2.758h2.612l-2.392-14.166h-3.111l-2.406,14.166H71.232L71.232,93.234z
		 M73.315,87.984h-1.497l0.749-6.348h0.029L73.315,87.984L73.315,87.984z M81.545,93.234h2.641V79.068h-2.45l0.25,7.914h-0.043
		l-1.996-7.914H77.29v14.166h2.45l-0.235-7.895l0.029-0.037L81.545,93.234L81.545,93.234z M93.368,93.234h2.642V79.068h-2.45
		l0.249,7.914h-0.044l-1.996-7.914h-2.655v14.166h2.45l-0.234-7.895l0.029-0.037L93.368,93.234L93.368,93.234z M103.402,93.234V90.4
		h-3.507v-3.059h3.228v-2.834h-3.228v-2.605h3.33v-2.834h-5.912v14.166H103.402L103.402,93.234z M110.957,79.068h-2.494
		l-1.041,9.916l-0.029,0.039l-0.778-9.955h-2.494l1.849,14.166h2.861l0.851-9.973h0.03l0.792,9.973h2.905l1.834-14.166h-2.45
		l-0.808,9.936h-0.029L110.957,79.068L110.957,79.068z M121.826,79.068h-2.612l2.598,8.217v5.949h2.582v-5.949l2.655-8.217h-2.582
		l-1.32,4.627h-0.029L121.826,79.068L121.826,79.068z M132.212,89.004c0,0.812-0.059,2.02-0.895,2.02
		c-0.837,0-0.939-1.207-0.939-2.02v-5.818c0-0.869,0.103-1.906,0.924-1.906c0.852,0,0.91,1.037,0.91,1.906V89.004L132.212,89.004z
		 M138.562,81.619c1.262-0.039,1.805,0.037,1.805,1.719c0,0.867-0.176,1.756-0.924,1.756h-0.881V81.619L138.562,81.619z
		 M146.748,93.234V89.74l0.572-1.436l1.423,4.93h2.729l-2.495-7.914l2.348-6.252h-2.641l-1.907,5.666h-0.029v-5.666h-2.583v14.166
		H146.748L146.748,93.234z"/>
	
		<path fill-rule="evenodd" clip-rule="evenodd" fill="#1D1D1B" stroke="#1D1D1B" stroke-width="3.2604" stroke-miterlimit="2.6131" d="
		M19.31,73.467c4.028,0,8.206-0.479,11.637-3.352c3.804-3.064,5.52-8.334,5.595-15.518V22.703c0-6.896-0.82-13.889-5.893-17.72
		C26.397,1.822,20.653,1.63,15.878,1.63H1.63v71.836H19.31L19.31,73.467z M14.759,14.561c6.416,0.191,8.579,0.67,8.654,9.1v23.466
		c0.224,9.578,0.149,14.176-8.654,13.41V14.561L14.759,14.561z"/>
	
		<polygon fill-rule="evenodd" clip-rule="evenodd" fill="#1D1D1B" stroke="#1D1D1B" stroke-width="3.2604" stroke-miterlimit="2.6131" points="
		56.081,73.467 56.081,55.748 58.99,48.469 66.227,73.467 80.102,73.467 67.42,33.334 79.355,1.63 65.928,1.63 56.23,30.365 
		56.081,30.365 56.081,1.63 42.952,1.63 42.952,73.467 56.081,73.467 	"/>
	
		<polygon fill-rule="evenodd" clip-rule="evenodd" fill="#1D1D1B" stroke="#1D1D1B" stroke-width="3.2604" stroke-miterlimit="2.6131" points="
		105.981,73.467 119.409,73.467 119.409,1.63 106.951,1.63 108.219,41.763 107.995,41.763 97.851,1.63 84.348,1.63 84.348,73.467 
		96.807,73.467 95.612,33.43 95.761,33.239 105.981,73.467 	"/>
	
		<polygon fill-rule="evenodd" clip-rule="evenodd" fill="#1D1D1B" stroke="#1D1D1B" stroke-width="3.2604" stroke-miterlimit="2.6131" points="
		136.71,1.63 123.433,1.63 136.636,43.296 136.636,73.467 149.765,73.467 149.765,43.296 163.267,1.63 150.138,1.63 143.424,25.097 
		143.275,25.097 136.71,1.63 	"/>
</g>
</svg>
