<?xml version="1.0" encoding="utf-8"?>
<!-- Generator: Adobe Illustrator 16.0.0, SVG Export Plug-In . SVG Version: 6.00 Build 0)  -->
<!DOCTYPE svg PUBLIC "-//W3C//DTD SVG 1.1//EN" "http://www.w3.org/Graphics/SVG/1.1/DTD/svg11.dtd">
<svg version="1.1" id="Layer_1" xmlns="http://www.w3.org/2000/svg" xmlns:xlink="http://www.w3.org/1999/xlink" x="0px" y="0px"
	 width="187.086px" height="90.323px" viewBox="0 0 187.086 90.323" enable-background="new 0 0 187.086 90.323"
	 xml:space="preserve">
<g>
	<path fill-rule="evenodd" clip-rule="evenodd" d="M0,2.603h19.891c4.763,0,9.438,0.353,14.069,1.102
		c4.586,0.706,8.909,2.735,12.966,5.998c3.793,3.22,6.748,7.322,8.865,12.305c2.161,4.983,3.352,10.1,3.528,15.392
		c0.088,0.353,0.132,0.75,0.132,1.146c0,0.353,0,0.75,0,1.147c0,0.132,0,0.265,0,0.397c0,0.088,0,0.22,0,0.397
		c-0.132,5.512-1.279,10.805-3.44,15.965c-2.117,5.117-5.248,9.307-9.394,12.613c-3.66,2.691-7.542,4.41-11.731,5.205
		c-4.146,0.838-8.423,1.279-12.746,1.455c-0.706,0-1.456,0-2.205,0c-0.75,0-1.5,0-2.293,0H0V2.603L0,2.603z M14.554,62.538
		c0.485,0,1.015,0,1.588,0.045c0.573,0.043,1.191,0.043,1.808,0.043c0.221,0,0.397,0,0.618,0c0.176,0,0.353,0,0.573,0
		c0.441,0.09,0.838,0.133,1.279,0.133c0.441,0,0.838,0,1.19,0c0.706,0,1.411-0.043,2.117-0.088c0.706,0,1.411-0.088,2.161-0.133
		c2.117-0.176,4.234-0.572,6.307-1.146c2.029-0.617,3.837-1.543,5.336-2.777c2.337-1.984,4.102-4.676,5.292-8.027
		s1.808-6.836,1.853-10.453c0-0.088,0-0.176,0-0.265c0-0.132,0-0.265,0-0.441c0-0.132,0-0.265,0-0.397c0-0.088,0-0.221,0-0.397
		c-0.044-3.572-0.662-7.057-1.809-10.364c-1.146-3.352-2.867-6.086-5.116-8.203c-1.631-1.543-3.528-2.603-5.689-3.176
		c-2.117-0.573-4.322-0.882-6.616-0.97c-0.485-0.088-1.014-0.132-1.5-0.132c-0.485,0-1.014,0-1.5,0h-7.895V62.538L14.554,62.538z
		 M100.423,74.534l-4.454-5.248c-1.896,1.766-4.102,3.221-6.571,4.322c-2.47,1.146-5.028,1.809-7.586,2.029
		c-0.265,0.043-0.529,0.088-0.794,0.088s-0.529,0-0.793,0c-0.574,0-1.103-0.045-1.676-0.088c-0.573-0.045-1.103-0.133-1.676-0.176
		c-1.103-0.221-2.205-0.529-3.308-0.928c-1.103-0.396-2.117-0.881-3.132-1.498c-1.808-1.236-3.219-2.867-4.322-4.852
		c-1.103-2.029-1.764-4.102-1.985-6.219c-0.044-0.266-0.044-0.529-0.044-0.75s0-0.441,0-0.662c0-0.176,0-0.352,0-0.572
		c0.044-0.221,0.044-0.441,0.044-0.662c0-0.088,0.044-0.133,0.044-0.176c0.044-0.09,0.044-0.133,0.044-0.266
		c0-0.088,0.044-0.221,0.044-0.396c0.044-0.133,0.044-0.266,0.044-0.354c0.573-3.131,1.896-5.732,4.013-7.807
		c2.117-2.072,4.455-3.881,6.968-5.512c-1.587-1.676-2.867-3.484-3.925-5.425c-1.059-1.896-1.588-3.925-1.588-5.954
		c0-0.397,0-0.794,0.088-1.235c0.044-0.396,0.088-0.838,0.133-1.19c0.088-0.309,0.132-0.573,0.22-0.838
		c0.088-0.309,0.176-0.573,0.22-0.838c0.882-2.778,2.603-4.763,5.116-6.042c2.514-1.279,5.16-1.94,8.027-1.94
		c3.572,0,6.836,0.97,9.791,2.911c2.955,1.896,4.455,4.763,4.455,8.467v0.926c-0.221,2.338-1.103,4.366-2.603,6.042
		c-1.5,1.676-3.131,3.175-4.851,4.542c-0.397,0.221-0.794,0.441-1.147,0.75c-0.353,0.266-0.706,0.529-1.059,0.75l8.953,10.453
		c0.485-0.441,0.927-0.883,1.367-1.324c0.441-0.441,0.838-0.881,1.235-1.367c0.926-0.881,1.808-1.809,2.69-2.734
		c0.882-0.971,1.72-1.896,2.514-2.867l5.954,6.309c-0.662,0.705-1.367,1.41-2.029,2.115c-0.661,0.707-1.323,1.412-1.984,2.162
		c-0.75,0.705-1.455,1.41-2.117,2.117c-0.661,0.705-1.323,1.41-1.984,2.117l9.791,11.818H100.423L100.423,74.534z M75.02,63.554
		c0.573,0.75,1.147,1.367,1.676,1.852c0.573,0.529,1.146,0.883,1.764,1.191c0.574,0.309,1.103,0.572,1.676,0.705
		s1.103,0.221,1.676,0.221c1.191,0,2.293-0.264,3.308-0.705c1.015-0.486,1.985-1.059,2.823-1.676c0.75-0.529,1.632-1.279,2.558-2.25
		L80.489,50.94c-0.221,0.131-0.441,0.309-0.706,0.439c-0.22,0.133-0.397,0.309-0.573,0.441c-1.059,0.926-2.073,1.941-2.999,3.088
		c-0.97,1.146-1.632,2.338-2.029,3.572c-0.088,0.309-0.176,0.617-0.221,0.926c-0.088,0.309-0.088,0.662-0.088,0.971
		c0,0.572,0.088,1.102,0.309,1.631S74.711,63.067,75.02,63.554L75.02,63.554z M83.047,40.62c0.088-0.044,0.132-0.088,0.177-0.132
		c0.088-0.044,0.132-0.044,0.264-0.132c0.044-0.044,0.132-0.088,0.177-0.177c0.044-0.044,0.088-0.044,0.176-0.044
		c1.103-0.794,2.117-1.632,3.087-2.47c0.926-0.882,1.543-2.029,1.852-3.396v-1.014c0-1.456-0.529-2.646-1.543-3.528
		c-0.97-0.882-2.073-1.412-3.264-1.588c-0.088,0-0.221,0-0.309,0c-0.132,0-0.221,0-0.353,0c-0.044,0-0.132,0-0.22,0
		c-0.044,0-0.177,0-0.265,0c-0.882,0.088-1.764,0.485-2.558,1.146c-0.793,0.618-1.279,1.588-1.367,2.867
		c0,0.044-0.044,0.133-0.044,0.221c-0.044,0.088-0.044,0.176-0.044,0.309c0,0.044-0.044,0.088-0.044,0.176
		c-0.044,0.088-0.044,0.177-0.044,0.309c0,1.103,0.309,2.161,0.926,3.087c0.617,0.97,1.279,1.897,1.985,2.779
		c0.309,0.265,0.529,0.529,0.75,0.794C82.606,40.09,82.826,40.355,83.047,40.62L83.047,40.62z M187.086,35.9v2.426
		c0,6.615-1.103,12.79-3.308,18.567s-6.438,10.453-12.834,14.025c-2.028,1.322-4.233,2.293-6.703,3.043
		c-2.426,0.705-4.852,1.234-7.277,1.543c-0.883,0.045-1.721,0.133-2.514,0.176c-0.839,0-1.632,0.045-2.426,0.045
		c-0.485,0-0.927,0-1.411,0c-0.485,0-0.927-0.045-1.412-0.133c-5.909-0.352-11.555-1.984-17.067-4.852
		c-5.469-2.822-9.924-6.658-13.275-11.467c-1.676-2.557-2.999-5.336-4.014-8.246c-1.014-2.912-1.676-5.867-2.028-8.865
		c-0.044-0.574-0.133-1.235-0.177-1.853c0-0.661-0.044-1.323-0.044-1.984c0-7.013,1.809-13.672,5.469-20.023
		c3.661-6.351,8.821-11.158,15.48-14.422c1.411-0.706,2.867-1.279,4.366-1.72c1.499-0.485,2.999-0.882,4.587-1.279
		c1.499-0.309,2.955-0.529,4.454-0.662c1.5-0.176,2.955-0.221,4.366-0.221c0.133,0,0.309,0,0.529,0c0.177,0,0.353,0,0.529,0
		c5.733,0.132,11.29,1.5,16.716,4.014c5.38,2.558,10.055,6.086,13.98,10.584l-10.585,7.718c-2.911-2.867-5.954-5.072-9.218-6.66
		c-3.264-1.543-6.748-2.337-10.408-2.337c-1.19,0-2.426,0.088-3.661,0.221c-1.278,0.176-2.558,0.396-3.881,0.706
		c-5.425,1.676-9.482,4.808-12.261,9.394c-2.734,4.631-4.102,9.482-4.102,14.687c0,0.353,0,0.75,0.044,1.191
		c0.045,0.396,0.133,0.793,0.177,1.19c0,0.221,0.044,0.441,0.088,0.618s0.044,0.397,0.044,0.617
		c0.089,0.177,0.133,0.353,0.177,0.574c0.044,0.22,0.044,0.441,0.044,0.573c0.971,5.689,3.396,10.188,7.365,13.408
		c3.97,3.219,8.248,5.203,12.878,5.865c0.618,0.176,1.323,0.264,2.029,0.309s1.367,0.045,1.984,0.045
		c4.411,0,8.292-1.191,11.776-3.529c3.439-2.381,5.159-5.732,5.159-10.143l0.221-0.486h-17.994V35.9H187.086L187.086,35.9z
		 M50.896,82.298h1.103h0.088h1.587c1.941,0,3.573,1.719,3.573,3.881c0,2.117-1.632,3.836-3.573,3.881h-1.587l0,0h-0.132h-1.059
		V82.298L50.896,82.298z M52.086,83.224v5.91h1.279c1.764-0.045,2.646-1.455,2.646-2.912c0-1.5-0.882-2.734-2.337-2.955
		L52.086,83.224L52.086,83.224z M61.921,82.12c2.382,0,4.278,1.809,4.278,4.059c0,2.248-1.896,4.057-4.278,4.057
		c-2.337,0-4.278-1.809-4.278-4.057C57.644,83.929,59.584,82.12,61.921,82.12L61.921,82.12z M61.921,83.091
		c1.72,0,3.131,1.367,3.131,3.088c0,1.676-1.411,3.043-3.131,3.043c-1.676,0-3.087-1.367-3.087-3.043
		C58.834,84.458,60.246,83.091,61.921,83.091L61.921,83.091z M66.552,82.298h1.146v6.836h2.205v0.926h-2.205H67.17h-0.618V82.298
		L66.552,82.298z M73.609,82.077c0.882,0,1.72,0.264,2.426,0.705v1.412c-0.574-0.707-1.456-1.148-2.426-1.148
		c-1.72,0-3.087,1.412-3.087,3.133c0,1.676,1.367,3.086,3.087,3.086c0.97,0,1.852-0.439,2.426-1.146v1.455
		c-0.706,0.441-1.544,0.707-2.426,0.707c-2.337,0-4.278-1.854-4.278-4.102C69.331,83.929,71.271,82.077,73.609,82.077L73.609,82.077
		z M77.578,89.134h2.779v0.926h-2.779h-1.191v-0.926v-2.734v-0.928v-2.293v-0.881h1.191h2.779v0.881h-2.779v2.293h2.779v0.928
		h-2.779V89.134L77.578,89.134z M84.723,89.53c-0.132,0.133-0.265,0.221-0.441,0.309c-0.132,0.088-0.309,0.133-0.485,0.176
		c-0.044,0-0.088,0-0.132,0.045c-0.044,0-0.088,0-0.132,0c-0.132,0-0.221-0.045-0.353-0.045c-0.132-0.043-0.221-0.088-0.353-0.176
		c-0.088-0.088-0.176-0.221-0.264-0.354c-0.044-0.131-0.088-0.264-0.132-0.396v-0.045c0-0.043,0-0.043,0-0.043
		c0-0.045,0-0.045,0-0.045c0-0.043,0-0.043,0-0.088l0,0h0.044c0-0.043,0-0.043,0-0.043s0,0,0-0.045
		c0.044-0.221,0.132-0.396,0.309-0.574c0.176-0.131,0.353-0.264,0.529-0.396c-0.088-0.131-0.177-0.264-0.265-0.396
		c-0.088-0.088-0.132-0.264-0.132-0.396v-0.045c0-0.043,0-0.043,0-0.088l0,0l0,0c0-0.045,0-0.045,0-0.045
		c0.044,0,0.044-0.043,0.044-0.043c0.044-0.176,0.133-0.309,0.265-0.441c0.176-0.088,0.309-0.133,0.485-0.133c0,0,0,0,0.044,0l0,0
		h0.044c0,0,0,0,0.044,0c0.176,0,0.397,0.09,0.574,0.221c0.132,0.133,0.22,0.309,0.22,0.574c0,0.221-0.044,0.396-0.177,0.529
		c-0.176,0.176-0.309,0.309-0.485,0.396l0.838,1.014c0.044-0.088,0.132-0.176,0.221-0.309c0.088-0.088,0.132-0.176,0.221-0.264
		l0.264,0.264c-0.044,0.088-0.132,0.178-0.176,0.266s-0.132,0.176-0.221,0.264c0,0,0,0-0.044,0.045c0,0,0,0.043-0.044,0.043
		l0.617,0.707H85.12L84.723,89.53L84.723,89.53z M83.708,89.663c0.132,0,0.265-0.045,0.397-0.133
		c0.088-0.088,0.22-0.176,0.309-0.266c0.043,0,0.043,0,0.043,0s0,0,0.044-0.043l-0.97-1.104l0,0c0,0.045,0,0.045-0.044,0.045l0,0
		c-0.044,0.043-0.044,0.043-0.044,0.043c-0.088,0.045-0.132,0.09-0.22,0.133c-0.089,0.088-0.132,0.133-0.177,0.221
		c-0.044,0-0.044,0.045-0.044,0.088c-0.044,0.045-0.044,0.088-0.044,0.133c-0.044,0.045-0.044,0.088-0.044,0.088
		c0,0.045,0,0.088,0,0.133c0,0.176,0.044,0.309,0.177,0.484c0.176,0.133,0.309,0.178,0.529,0.178l0,0h0.044l0,0l0,0
		C83.665,89.663,83.665,89.663,83.708,89.663L83.708,89.663z M83.355,86.929c0,0.043,0,0.043,0,0.043l0,0v0.045l0,0
		c0,0.088,0,0.176,0.044,0.264c0.044,0.088,0.132,0.178,0.176,0.221c0.044,0.045,0.044,0.045,0.088,0.088l0.044,0.045h0.044
		c0,0,0.044,0,0.044-0.045c0.088-0.043,0.177-0.088,0.265-0.176c0.088-0.088,0.132-0.176,0.176-0.309l0,0c0-0.045,0-0.045,0-0.045
		l0,0c0-0.043,0-0.043,0-0.043c0-0.133-0.044-0.221-0.132-0.309c-0.088-0.045-0.176-0.088-0.265-0.088c-0.044,0-0.044,0-0.044,0
		s0,0-0.044,0l0,0l0,0c-0.088,0-0.176,0-0.265,0.088C83.4,86.751,83.355,86.839,83.355,86.929L83.355,86.929z M91.868,82.032
		c1.543,0,2.91,0.795,3.705,1.941l-1.015,0.529c-0.573-0.883-1.544-1.457-2.646-1.457c-1.764,0-3.131,1.412-3.131,3.133
		c0,1.719,1.367,3.086,3.131,3.086c1.456,0,2.603-0.705,2.69-2.205h-2.514v-0.926h2.426c0,0,1.234,0,1.323,0c0,0,0-2.381,0,0.045
		s-1.323,4.145-3.97,4.145s-4.322-1.852-4.322-4.145C87.545,83.884,89.486,82.032,91.868,82.032L91.868,82.032z M95.175,90.06
		l3.22-7.762h0.75l3.219,7.762h-1.234l-0.882-2.205h-2.955l-0.882,2.205H95.175L95.175,90.06z M97.734,86.884l1.058-2.779
		l1.015,2.779H97.734L97.734,86.884z M113.655,90.06l3.176-7.762h0.749l3.22,7.762h-1.234l-0.882-2.205h-2.956l-0.882,2.205H113.655
		L113.655,90.06z M116.168,86.884l1.059-2.779l1.059,2.779H116.168L116.168,86.884z M129.002,90.06l3.22-7.762h0.75l3.22,7.762
		h-1.235l-0.926-2.205h-2.911l-0.882,2.205H129.002L129.002,90.06z M131.561,86.884l1.015-2.779l1.058,2.779H131.561L131.561,86.884
		z M105.143,83.179c0.794,0.088,1.058,0.396,1.058,1.191c0,0.75-0.529,1.146-1.19,1.146h-1.015v-2.338H105.143L105.143,83.179
		L105.143,83.179z M105.231,86.442h0.044c0.573,0,1.588,0.133,1.588,1.412c0,1.014-0.882,1.279-1.72,1.279h0.176h-1.323v-2.691
		h1.015H105.231L105.231,86.442z M103.732,90.06h0.264h1.721l0,0c1.367,0,2.382-0.926,2.382-2.205c0-1.016-0.618-1.764-1.5-2.072
		c0.485-0.311,0.75-0.883,0.75-1.588c0-1.148-0.75-1.896-1.94-1.896c-0.618-0.045-1.279,0-1.896,0h-0.045c0,0,0,0-0.044,0l0,0
		h-0.617v7.762H103.732L103.732,90.06z M111.052,83.179c0.75,0.088,1.015,0.396,1.059,1.191c0,0.75-0.529,1.146-1.19,1.146h-1.015
		v-2.338H111.052L111.052,83.179L111.052,83.179z M111.097,86.442c0.044,0,0.044,0,0.044,0c0.573,0,1.587,0.133,1.587,1.412
		c0,1.014-0.882,1.279-1.72,1.279h0.221h-1.323v-2.691h1.015H111.097L111.097,86.442z M109.597,90.06h0.309h1.721l0,0
		c1.367,0,2.337-0.926,2.337-2.205c0-1.016-0.617-1.764-1.499-2.072c0.529-0.311,0.793-0.883,0.793-1.588
		c0-1.148-0.793-1.896-1.94-1.896c-0.661-0.045-1.278,0-1.94,0l0,0c-0.044,0-0.044,0-0.044,0h-0.044h-0.617v7.762H109.597
		L109.597,90.06z M121.329,82.298h0.75l5.425,5.732v-5.732h1.059v7.762h-0.794l-5.337-5.689v5.689h-1.103V82.298L121.329,82.298z"/>
</g>
</svg>
