<?xml version="1.0" encoding="utf-8"?>
<!-- Generator: Adobe Illustrator 16.0.0, SVG Export Plug-In . SVG Version: 6.00 Build 0)  -->
<!DOCTYPE svg PUBLIC "-//W3C//DTD SVG 1.1//EN" "http://www.w3.org/Graphics/SVG/1.1/DTD/svg11.dtd">
<svg version="1.1" id="Layer_1" xmlns="http://www.w3.org/2000/svg" xmlns:xlink="http://www.w3.org/1999/xlink" x="0px" y="0px"
	 width="175.748px" height="108.238px" viewBox="0 0 175.748 108.238" enable-background="new 0 0 175.748 108.238"
	 xml:space="preserve">
<g>
	<path fill-rule="evenodd" clip-rule="evenodd" fill="#EC1C24" d="M56.229,0h63.291c30.926,0,56.229,24.354,56.229,54.119l0,0
		c0,29.766-25.303,54.119-56.229,54.119H56.229C25.303,108.238,0,83.885,0,54.119l0,0C0,24.354,25.303,0,56.229,0L56.229,0z"/>
	
		<path fill-rule="evenodd" clip-rule="evenodd" fill="#FFFFFF" stroke="#EC1C24" stroke-width="0.2239" stroke-miterlimit="2.6131" d="
		M54.544,2.981h33.324v17.767H54.896c-17.323,0-31.681,13.337-33.317,30.249H3.409C5.088,24.303,27.445,2.981,54.544,2.981
		L54.544,2.981z M21.426,54.581c0.194,18.247,15.181,33.116,33.47,33.116h32.973v17.766H54.544
		c-28.063,0-51.042-22.863-51.236-50.882H21.426L21.426,54.581z M91.452,2.981h30.099c27.1,0,49.457,21.321,51.136,48.016h-18.17
		c-1.636-16.912-15.994-30.249-33.317-30.249H91.452V2.981L91.452,2.981z M172.787,54.581
		c-0.194,28.019-23.173,50.882-51.236,50.882H91.452V87.697h29.747c18.289,0,33.275-14.869,33.47-33.116H172.787L172.787,54.581z"/>
	
		<path fill-rule="evenodd" clip-rule="evenodd" fill="#FFFFFF" stroke="#EC1C24" stroke-width="0.2239" stroke-miterlimit="2.6131" d="
		M47.034,37.314c-1.171-1.082-2.707-0.874-3.839,1.922c-0.4,0.986-0.788,1.889-0.803,2.723c-0.032,1.883-0.824,3.13-2.033,3.871
		c-1.392,0.853-2.252,2.307-2.314,4.524c-0.042,1.494-1.081,2.848-2.042,3.991c-2.372,2.822-4.685,3.922-6.349-0.198
		c-0.587-1.454-0.678-2.374-2.024-1.986c-0.563,0.162-1.011,1.117-1.448,2.804c-0.579,2.236-0.641,4.389,0.671,6.112
		c1.763,2.316,1.426,5.017,0.914,6.581c-0.328,1.002-0.368,2.669,0.421,3.288c1.308,1.025,2.366,1.234,3.88,0.394
		c3.683-2.045,6.26-3.978,13.186-4.239c0.556-0.021,1.151,0.168,1.7-0.016c3.437-1.147,5.012-2.66,6.738-3.603
		c1.269-0.692,3.011-1.493,4.133-1.219c2.135,0.521,2.992,0.554,3.36,0.057c0.479-0.646,1.258-1.521,2.02-2.021
		c1.633-1.071,2.458-1.544,3.125-3.082c0.419-0.966,1.458-1.227,2.705-0.763c1.291,0.48,2.509,0.865,3.89,1.113
		c3.357,0.604,5.557,1.715,4.864,7.868c-0.242,2.147-1.356,6.179-3.102,8.415c-1.337,1.711-1.94,2.67,0.582,2.915
		c1.3,0.127,2.485-0.109,3.503,0.063c5.171,0.88,6.231,0.441,6.477-2.878c0.103-1.388,0.981-3.208,1.77-4.443
		c1.417-2.219,2.027-4.589,3.625-7.089c0.518-0.81,1.383-1.013,2.429-0.276c1.274,0.898,2.723,1.09,4.271,1.153
		c1.213,0.049,2.386,0.301,3.5,0.144c1.643-0.23,3.179-0.609,4.541-1.006c1.275-0.371,2.426-0.98,3.547-1.559
		c2.025-1.045,2.813-1.284,5.036-1.234c2.584,0.057,4.647,0.139,5.832,0.263c1.393,0.146,1.808-0.359,2.597-0.332
		c0.829,0.03,2.206,0.691,2.332,1.311c0.233,1.144,0.904,5.266,1.922,6.991c0.883,1.496,0.817,3.346,0.902,4.716
		c0.062,1.028-0.708,1.67-1.444,2.353c-1.726,1.598-0.835,2.947,0.99,3.558c1.911,0.638,3.445,0.379,4.749,0.103
		c3.379-0.716,5.221-2.14,4.559-3.858c-0.435-1.126-0.408-2.111-0.534-2.887c-0.179-1.108,1.455-1.846,1.285-4.915
		c-0.058-1.034-0.51-2.039-0.354-3.083c0.147-0.988,1.269-2.225,1.502-3.582c0.449-2.61,0.903-1.898,1.093-3.114
		c0.107-0.696,0.854-1.155,1.167-1.826c3.405-7.272,1.186-10.996-2.376-14.258c-9.346-8.561-19.43-14.768-33.27-10.1
		c-2.746,0.926-5.494,2.083-8.434,1.429c-2.767-0.615-6.195-1.872-9.28-2.986c-4.52-1.633-5.626-2.462-10.671-1.932
		c-5.893,0.62-15.207,3.073-22.635,9.739c-0.328,0.294-0.792,0.779-2.373,0.318c-0.778-0.227-1.173,0.255-1.503,0.373
		C48.206,38.565,48.433,38.605,47.034,37.314L47.034,37.314z M144.132,46.826c-0.516,0.312-0.425,1.202-0.027,1.557
		c3.219,2.88,5.12,5.746,2.104,8.626c-1.682,1.408-3.424,2.816-4.139,4.226c-1.361,1.68,0.189,1.974,2.155,2.069
		c1.538,0.098,2.733-0.007,3.427-0.616c0.522-0.459,0.816-1.033,1.329-1.371c1.069-0.963,1.715-2.009,2.104-2.809
		c0.271-0.612,0.279-0.708-0.131-1.24c-0.382-0.495-0.522-1.707-0.605-2.242c-0.473-3.104-2.123-5.424-4.26-7.418
		C145.608,47.16,144.813,46.413,144.132,46.826L144.132,46.826z M112.379,61.674c-1.428-0.028-1.985,1.113-1.907,3.079
		c0.068,1.904,0.255,3.849-1.049,5.296c-0.925,1.025-2.285,1.088-2.721,2.564c-0.236,0.802,0.271,1.522,2.475,1.937
		c1.333,0.097,2.616,0.383,3.603,0.49c2.944,0.322,4.363-0.699,4.206-2.297c-0.309-1.062,0.139-1.691,0.695-2.258
		c1.269-1.227,2.179-1.915,3.184-2.833c0.518-0.474,1.055-1.267,1.155-2.075c0.02-0.159,0.05-0.299,0.092-0.423
		c0.186-0.546,0.254-0.707,0.216-1.351c-0.113-1.928-1.011-1.932-2.389-2.004C117.392,61.786,114.927,61.688,112.379,61.674
		L112.379,61.674z M72.283,59.456c-0.462,0.051-1.054,0.454-0.386,1.598c0.413,0.706,1.056,1.651,2.534,4.214
		c0.727,1.26,1.446,0.718,1.735-0.028c0.41-1.059,0.048-2.183-0.027-3.277C75.983,59.699,74.247,59.238,72.283,59.456L72.283,59.456
		z M71.323,70.597c1.074-0.785,2.448-1.118,2.999-0.724c0.551,0.396,0.157,1.675-0.917,2.459c-1.074,0.785-2.282,0.785-2.832,0.391
		C70.022,72.327,70.249,71.381,71.323,70.597L71.323,70.597z"/>
</g>
</svg>
