<?xml version="1.0" encoding="utf-8"?>
<!-- Generator: Adobe Illustrator 16.0.0, SVG Export Plug-In . SVG Version: 6.00 Build 0)  -->
<!DOCTYPE svg PUBLIC "-//W3C//DTD SVG 1.1//EN" "http://www.w3.org/Graphics/SVG/1.1/DTD/svg11.dtd">
<svg version="1.1" id="Layer_1" xmlns="http://www.w3.org/2000/svg" xmlns:xlink="http://www.w3.org/1999/xlink" x="0px" y="0px"
	 width="175.748px" height="45.588px" viewBox="0 0 175.748 45.588" enable-background="new 0 0 175.748 45.588"
	 xml:space="preserve">
<g>
	<path fill-rule="evenodd" clip-rule="evenodd" fill="#1D1D1B" d="M173.053,31.83l0.059-0.059v-1.545
		c-1.837,2.128-3.353,3.848-4.548,5.159c-1.224,1.341-2.186,2.361-2.914,3.09c-3.382,3.206-6.005,4.81-7.899,4.81
		c-0.467,0-0.874-0.117-1.166-0.379c-0.32-0.292-0.467-0.642-0.467-1.05c0-1.078,0.379-2.36,1.137-3.848l6.413-11.63h7.287
		l0.116-0.962h-6.966l4.255-8.016h-7.928l-4.372,8.016h-4.197v0.991h4.197l-6.268,11.164c-0.466,0.874-0.699,1.486-0.699,1.924
		c0,2.099,0.438,3.526,1.312,4.284c0.758,0.671,2.216,0.991,4.372,0.991c3.731,0,7.229-1.429,10.522-4.285
		C166.465,39.496,169.06,36.61,173.053,31.83L173.053,31.83z"/>
	<path fill-rule="evenodd" clip-rule="evenodd" fill="#1D1D1B" d="M154.281,31.771l0.116,0.116v-1.545
		c-2.273,3.235-4.692,6.121-7.229,8.599c-2.711,2.682-4.751,3.994-6.092,3.994c-0.699,0-1.05-0.875-1.05-2.653l8.453-15.914h-6.791
		c-2.391,3.905-4.052,6.616-5.014,8.19c-0.933,1.574-1.545,2.594-1.837,3.061c-0.291,0.437-0.466,0.729-0.553,0.874
		c-0.467,0.729-0.7,1.895-0.7,3.557c0,1.224,0.379,2.331,1.195,3.293c0.816,0.991,1.895,1.486,3.235,1.486
		c2.856,0,5.684-1.282,8.54-3.847C148.626,39.116,151.221,36.056,154.281,31.771L154.281,31.771z"/>
	<path fill-rule="evenodd" clip-rule="evenodd" fill="#1D1D1B" d="M153.115,10.931l0.116,0.087c0-2.419-1.107-3.614-3.322-3.614
		c-2.799,0-4.197,1.225-4.197,3.673s1.078,3.673,3.294,3.673C151.745,14.749,153.115,13.467,153.115,10.931L153.115,10.931z"/>
	<path fill-rule="evenodd" clip-rule="evenodd" fill="#1D1D1B" d="M138.046,31.626l0.116-0.117v-1.428
		c-6.704,9.094-11.018,13.641-12.854,13.641c-0.292,0-0.525-0.175-0.729-0.554s-0.32-0.729-0.32-1.049
		c0-1.021,0.437-2.157,1.37-3.323c0.583-0.67,1.049-1.195,1.428-1.603c0.35-0.438,0.758-0.875,1.195-1.37
		c1.457-1.662,2.186-3.585,2.244-5.742c0-3.498-1.253-5.276-3.73-5.276c-3.614,0-7.171,2.157-10.668,6.471h-0.351l3.294-5.8h-7.462
		l-10.639,19.5l6.791,0.116c3.848-6.908,7.754-12.213,11.688-15.943c1.399-1.37,2.77-2.041,4.11-2.041
		c0.35,0,0.611,0.175,0.815,0.496c0.233,0.32,0.35,0.641,0.35,0.99c0,0.555-0.495,1.37-1.486,2.479
		c-0.35,0.378-0.815,0.874-1.341,1.486c-0.524,0.583-1.049,1.137-1.516,1.632c-0.524,0.612-0.99,1.661-1.37,3.119
		c-0.35,1.341-0.524,2.565-0.524,3.673c0,2.886,1.545,4.343,4.635,4.343c2.536,0,5.218-1.604,8.074-4.839
		c1.137-1.486,2.273-2.973,3.439-4.431C135.743,34.569,136.909,33.083,138.046,31.626L138.046,31.626z"/>
	<path fill-rule="evenodd" clip-rule="evenodd" fill="#1D1D1B" d="M109.393,7.725l0.233-0.059v-0.35c0-0.699-0.175-1.05-0.495-1.05
		h-6.908l-17.401,27.05c-1.953,2.303-4.052,4.401-6.354,6.296c-2.244,1.865-3.877,2.798-4.926,2.798
		c-1.749,0-2.624-0.787-2.624-2.303c0-1.137,2.478-5.625,7.433-13.495c5.014-7.899,7.521-12.737,7.521-14.458
		c0-5.042-2.536-7.578-7.608-7.578c-3.76,0-7.433,1.399-11.047,4.168c-4.081,3.178-6.121,6.938-6.121,11.339
		c0,1.224,0.466,2.273,1.37,3.206c0.904,0.903,1.982,1.341,3.177,1.341c1.341,0,2.944-0.729,4.78-2.186
		c1.312-1.021,2.332-2.012,3.061-2.974V18.51c-0.729,0.874-1.661,1.748-2.798,2.623c-1.341,1.02-2.419,1.544-3.235,1.544
		c-1.866,0-2.799-1.224-2.799-3.614c0-3.061,1.108-5.975,3.294-8.715s4.547-4.109,7.083-4.109c2.944,0,4.431,1.428,4.431,4.284
		c0,2.303-1.341,5.538-3.994,9.706c-1.69,2.303-4.197,5.83-7.549,10.493c-2.681,3.818-4.022,6.5-4.022,8.016
		c0,4.052,1.633,6.092,4.926,6.092c2.565,0,5.451-1.136,8.715-3.352c2.361-1.603,4.285-3.322,5.83-5.101h0.875
		c-0.496,0.787-0.729,1.953-0.729,3.556c0,3.265,1.895,4.896,5.654,4.896c3.906,0,7.783-1.544,11.572-4.604
		c2.535-2.128,5.275-5.188,8.22-9.24v-0.758c-7.754,8.832-13.233,13.233-16.439,13.233c-1.662,0-2.478-0.875-2.478-2.652
		c0-0.525,0.262-1.312,0.845-2.273L109.393,7.725L109.393,7.725z"/>
	<path fill-rule="evenodd" clip-rule="evenodd" fill="#1D1D1B" d="M50.339,9.327l-0.583,0.175c0-2.244-0.641-3.789-1.982-4.635
		c-1.312-0.845-3.644-1.253-7.054-1.253c-6.559,0-12.155,1.37-16.79,4.168c-0.233-0.815-0.35-1.573-0.35-2.244
		c0-1.895,0.845-3.731,2.536-5.538l-1.428,0.204c-1.516,1.37-2.273,3.147-2.273,5.363c0,1.107,0.058,2.04,0.175,2.798
		c-3.876,2.478-6.617,4.693-8.278,6.588c-2.682,3.09-4.081,6.703-4.227,10.872c0,5.713,2.623,8.599,7.899,8.599
		c3.323,0,6.267-0.933,8.832-2.77h0.087l0.496,0.351c-1.399,3.09-3.323,5.771-5.801,8.074c-3.089,2.885-6.267,4.313-9.502,4.313
		c-1.808,0-3.469-0.524-4.926-1.545c-1.545-1.137-2.332-2.565-2.332-4.313c0.292,0.116,0.467,0.175,0.525,0.175
		c0.758,0,1.428-0.467,1.982-1.429c0.583-0.962,0.875-2.011,0.875-3.09c0-2.419-1.224-3.614-3.673-3.614H4.431
		c-1.253,0-2.303,0.524-3.148,1.604C0.437,33.229,0,34.395,0,35.677c0,3.119,1.166,5.567,3.498,7.346
		c2.245,1.72,5.188,2.565,8.919,2.565c13.466,0,22.677-7.462,27.662-22.415c0-0.933-0.175-1.399-0.524-1.399h-4.576
		c-0.787,0-1.691,0.291-2.624,0.875c-1.137,0.729-1.807,1.632-1.982,2.682c-0.292,1.603-1.049,3.031-2.245,4.313
		c-1.166,1.254-2.507,1.895-4.022,1.895c-1.37,0-2.536-0.524-3.498-1.604c-0.962-1.078-1.458-2.302-1.458-3.672
		c0-4.314,2.157-9.007,6.5-14.05c2.011,1.545,3.469,2.507,4.314,2.856c1.982,0.933,4.605,1.37,7.87,1.37
		c3.644,0,6.587-0.583,8.832-1.778C49.115,13.35,50.339,11.572,50.339,9.327L50.339,9.327z M44.16,8.541l0.058,0.058
		c0,2.128-1.137,3.789-3.352,4.984c-1.778,1.021-3.906,1.545-6.296,1.545c-4.256,0-7.142-1.166-8.57-3.498
		c1.399-1.69,3.323-3.206,5.771-4.547c2.682-1.487,5.188-2.216,7.52-2.216c2.157,0,3.527,0.292,4.168,0.904
		C43.926,6.209,44.16,7.141,44.16,8.541L44.16,8.541z"/>
	<path fill-rule="evenodd" clip-rule="evenodd" fill="#1D1D1B" d="M175.297,19.354h-0.379l-0.35-0.466h-0.116v0.466h-0.292V18.13
		h0.496c0.058,0,0.116,0,0.175,0c0.058,0,0.087,0.029,0.146,0.059c0.029,0.029,0.059,0.058,0.087,0.116
		c0.029,0.029,0.059,0.088,0.059,0.146c0,0.087-0.029,0.174-0.087,0.232c-0.029,0.059-0.088,0.117-0.146,0.146L175.297,19.354
		L175.297,19.354z M174.802,18.51c0-0.029,0-0.059-0.029-0.088c0-0.029-0.029-0.029-0.059-0.059c-0.028,0-0.028,0-0.058,0
		s-0.059-0.029-0.088-0.029h-0.116v0.35h0.087c0.059,0,0.088,0,0.117,0c0.029-0.029,0.058-0.029,0.087-0.059
		c0,0,0.029-0.029,0.029-0.058C174.802,18.567,174.802,18.538,174.802,18.51L174.802,18.51z"/>
	<path fill="#1D1D1B" d="M174.568,17.475L174.568,17.475L174.568,17.475c0.32,0.001,0.616,0.145,0.831,0.371l0,0
		c0.214,0.225,0.348,0.533,0.348,0.865h0.001v0.002v0.001h-0.001c0,0.333-0.135,0.642-0.348,0.867
		c-0.215,0.226-0.51,0.369-0.829,0.37l0,0h-0.002h-0.001l0,0c-0.334,0-0.638-0.145-0.855-0.371
		c-0.217-0.225-0.352-0.533-0.353-0.865l0,0v-0.002l0,0l0,0c0.001-0.334,0.136-0.643,0.354-0.868s0.521-0.369,0.854-0.369v-0.001
		H174.568L174.568,17.475z M174.569,17.678L174.569,17.678L174.569,17.678h-0.003l0,0c-0.276,0-0.526,0.119-0.709,0.307
		c-0.183,0.189-0.296,0.449-0.296,0.729l0,0l0,0v0.002l0,0c0,0.277,0.113,0.537,0.296,0.727c0.182,0.188,0.434,0.308,0.71,0.308
		v-0.001h0.001h0.002v0.001c0.261-0.001,0.505-0.12,0.683-0.308c0.18-0.189,0.293-0.449,0.293-0.728l0,0v-0.001v-0.002l0,0
		c0-0.277-0.113-0.537-0.292-0.727l0,0C175.075,17.796,174.832,17.678,174.569,17.678L174.569,17.678z"/>
</g>
</svg>
