<?xml version="1.0" encoding="utf-8"?>
<!-- Generator: Adobe Illustrator 16.0.0, SVG Export Plug-In . SVG Version: 6.00 Build 0)  -->
<!DOCTYPE svg PUBLIC "-//W3C//DTD SVG 1.1//EN" "http://www.w3.org/Graphics/SVG/1.1/DTD/svg11.dtd">
<svg version="1.1" id="Layer_1" xmlns="http://www.w3.org/2000/svg" xmlns:xlink="http://www.w3.org/1999/xlink" x="0px" y="0px"
	 width="187.086px" height="66.815px" viewBox="0 0 187.086 66.815" enable-background="new 0 0 187.086 66.815"
	 xml:space="preserve">
<g>
	<polygon fill-rule="evenodd" clip-rule="evenodd" fill="#53668C" points="0,0 187.086,0 187.086,66.815 0,66.815 0,0 	"/>
	<path fill-rule="evenodd" clip-rule="evenodd" fill="#FFFFFF" d="M178.831,22.766l-0.023-0.353l-0.023-0.33v-0.329l-0.023-0.353
		l-0.023-0.306v-0.353l-0.023-0.329v-0.33l-0.023-0.353V19.45v-0.306l0.023-0.329v-0.353l0.023-0.329l0.023-0.306l0.117-1.505
		h-1.505h-21.684h-1.411l0.018,1.057l-0.088-0.046l-0.635-0.282l-0.588-0.212l-0.589-0.188l-0.635-0.188l-0.611-0.141l-0.588-0.118
		l-0.635-0.094l-0.588-0.094l-0.611-0.071l-0.659-0.023l-0.564-0.023l-0.611-0.023h-0.611l-0.588,0.023h-0.588l-0.658,0.023
		l-0.588,0.047l-0.589,0.023l-0.611,0.047l-0.564,0.047l-0.588,0.023l-0.611,0.047l-0.564,0.047l-0.541,0.023l-0.588,0.023
		l-0.588,0.023l-0.564,0.024h-0.564h-1.623l0.259,1.599l0.142,0.87l0.117,0.846l0.095,0.847l0.094,0.87l0.094,0.847l0.029,0.364
		l-0.053-0.082l-0.658-0.87l-0.729-0.8l-0.775-0.729l-0.8-0.683l-0.87-0.611l-0.894-0.541l-0.918-0.494l-0.94-0.423l-0.988-0.376
		l-0.987-0.306l-1.035-0.258l-1.034-0.165l-1.035-0.141l-1.011-0.071l-1.059-0.023l-1.059,0.023l-1.059,0.094l-1.011,0.165
		l-1.035,0.165l-1.034,0.258l-1.035,0.306l-0.987,0.376l-0.941,0.4l-0.94,0.47l-0.94,0.518l-0.87,0.588l-0.823,0.588l-0.823,0.682
		l-0.747,0.725l-0.24-0.396l-0.353-0.588l-0.377-0.494l-0.4-0.47l-0.493-0.423v-0.023l-0.518-0.329l-0.564-0.353l-0.518-0.305
		l-0.564-0.259l-0.564-0.235l-0.564-0.212l-0.541-0.165l-0.611-0.188l-0.611-0.165l-0.564-0.094l-0.611-0.117l-0.611-0.094
		l-0.588-0.071l-0.588-0.047l-0.589-0.047l-0.635-0.023l-0.564-0.023l-0.611-0.023h-0.611h-0.588h-0.611l-0.611,0.023l-0.564,0.023
		h-0.564l-0.612,0.023l-0.588,0.023l-0.541,0.024h-0.565l-0.564,0.023h-0.541h-0.564h-0.518l-1.411-0.023v1.411v1.434L87.77,19.05
		l-0.729-0.612l-0.776-0.564l-0.847-0.471l-0.847-0.423l-0.894-0.376l-0.894-0.306l-0.917-0.282l-0.917-0.212l-0.917-0.141
		l-0.917-0.141l-0.917-0.07l-0.894-0.023h-0.847l-0.87,0.047l-0.823,0.071l-0.047,0.023H74.67l0.094-0.023l-0.118,0.023
		l-0.635,0.141l-0.659,0.165l-0.729,0.188l-0.658,0.211l-0.635,0.212l-0.706,0.259l-0.659,0.306l-0.587,0.306l-0.635,0.329
		l-0.612,0.4l-0.587,0.447l-0.165,0.157v-0.98v-1.388h-1.387h-6.068h-1.388v1.388v9.518l-9.383-10.412l-0.423-0.47h-0.612
		l-6.279-0.023h-1.387v1.388l0.027,10.646l-4.332-11.14l-0.353-0.894h-0.941h-7.032h-0.964l-0.329,0.894l-3.113,8.306l0.149-7.789
		l0.023-1.411h-1.411h-9.831h-1.458l0.071,1.458l0.07,1.341l0.071,1.293l0.047,1.246l0.07,1.223l0.047,1.176l0.047,1.129
		l0.046,1.105l0.047,1.082l0.047,1.035l0.023,1.012l0.047,0.964l0.023,0.941l0.023,0.941l0.024,0.894l0.024,0.893l0.023,0.848
		l0.023,0.846v0.824l0.023,0.799v0.801l0.024,0.775v0.729v0.754v0.752l0.023,0.729v0.682v0.73v0.705v0.705v0.682v0.707v0.705
		l-0.047,1.199l-0.118,0.988l-0.188,0.775l-0.235,0.635l-0.235,0.447l-0.259,0.328l-0.306,0.26l-0.259,0.188l-0.305,0.141
		l-0.306,0.096l-0.376,0.07l-0.353,0.023l-0.4,0.023l-0.353,0.023H7.62l-0.423,0.047l-1.2,0.141v1.223v4.703v1.295l1.293,0.094
		l1.412,0.023l1.387-0.07l1.364-0.188l1.388-0.307l1.317-0.447l1.27-0.564l1.223-0.682l1.153-0.822l1.082-0.941l0.988-1.035
		l0.894-1.199l0.776-1.316l0.682-1.412l0.494-1.551l0.423-1.623l0.076-0.518h0.653l0.329-0.895l2.368-6.303h6.254L35.324,46
		l0.008-0.002l0.345,0.873h0.94h10.772h1.387v-1.389v-9.574l9.407,10.492l0.423,0.471h0.635l5.95-0.104v1.82v7.268v0.846l0.753,0.4
		l0.658,0.307l0.659,0.305l0.682,0.33l0.729,0.305l0.682,0.281l0.706,0.283l0.729,0.26l0.729,0.234l0.729,0.211l0.729,0.213
		l0.729,0.164l0.729,0.141l0.729,0.117l0.682,0.072l0.706,0.023h0.682l0.353-0.023l0.306-0.025l0.447-0.021l0.376-0.072l0.329-0.047
		l0.353-0.047l0.4-0.047l0.376-0.07l0.376-0.07l0.353-0.07l0.4-0.07l0.376-0.119l0.353-0.07l0.353-0.094l0.353-0.07l0.4-0.094
		l0.047-0.023h0.047l1.128-0.447l1.082-0.518l1.035-0.564l0.988-0.658l0.894-0.705l0.87-0.777l0.776-0.822l0.753-0.871l0.635-0.939
		l0.588-0.965l0.517-1.012l0.447-1.035l0.353-1.057l0.282-1.105l0.186-0.99L98,46.754l1.575-0.047l-0.234-1.529l-0.095-0.658
		l-0.094-0.658l-0.095-0.635l-0.094-0.66l-0.094-0.658l-0.07-0.611l-0.071-0.635l-0.094-0.635l-0.071-0.611l-0.07-0.635l-0.07-0.564
		l-0.047-0.564l-0.047-0.541l-0.007-0.143l0.642-0.021l0.705-0.023l0.729-0.049l0.753-0.07l0.752-0.117l0.729-0.141l0.776-0.211
		l0.775-0.26l0.729-0.283l0.753-0.352l0.606-0.371l0.027,0.16l0.118,0.422l0.094,0.354l0.118,0.471l0.164,0.447l0.142,0.352
		l0.142,0.377l0.188,0.447l0.188,0.398l0.188,0.4l0.424,0.822l0.493,0.754l0.494,0.729l0.541,0.705l0.589,0.682l0.635,0.66
		l0.658,0.611l0.705,0.564l0.706,0.541l0.753,0.516l0.775,0.447l0.823,0.424l0.823,0.33l0.847,0.305l0.894,0.26l0.894,0.188
		l0.399,0.07l0.377,0.07l0.399,0.07l0.4,0.072l0.446,0.045l0.377,0.049l0.399,0.07l0.424,0.047l0.446,0.023l0.447,0.023h0.423h0.424
		l0.518-0.023l0.47-0.07l0.424-0.07l0.47-0.072l0.895-0.211l0.847-0.258l0.822-0.236l0.823-0.305l0.8-0.307l0.776-0.328l0.822-0.4
		l0.729-0.424l0.729-0.447l0.682-0.494l0.658-0.516l0.612-0.518l0.61-0.611l0.565-0.635l0.493-0.637l0.106-0.158l-0.059,0.723
		l-0.095,0.871l-0.07,0.869l-0.095,0.824l-0.094,0.869l-0.141,1.529h1.528h8.913h1.411l-0.023-1.436l-0.162-5.363l3.667,6.117
		l0.423,0.682h0.776h18.438h1.482l-0.095-1.48l-0.423-5.574h-0.001l-0.086-15.429l0.416-0.023l0.424-0.023l0.399-0.024h0.4h0.446
		l0.424-0.023l0.399,0.023h0.446l0.447,0.024h0.399l0.4,0.047l0.446,0.023l0.447,0.047l1.552,0.141l-0.023-1.552V22.766
		L178.831,22.766z M76.575,24.482v-0.165l0.047-0.259l0.071-0.329l0.047-0.165l0.07-0.141l0.023-0.047h0.023l0.023-0.047l0.118-0.07
		l0.141-0.095l0.188-0.07l0.188-0.094l0.188-0.047l0.259-0.07l0.259-0.047l0.282-0.047l0.235-0.047h0.165h0.282l0.259-0.024h0.164
		l0.142,0.024l0.587,0.094l0.541,0.118l0.471,0.188l0.47,0.259l0.494,0.329l0.423,0.353l0.471,0.423l0.447,0.447l0.399,0.494
		l0.423,0.541l0.423,0.564l0.376,0.541l0.377,0.588l0.423,0.611l0.353,0.588l0.4,0.588l1.035,1.578v4.673l-0.047-0.043l-0.941-0.775
		l-0.964-0.775l-0.94-0.801l-1.011-0.799l-0.964-0.823l-0.964-0.847l-0.941-0.8l-0.917-0.87l-0.87-0.894l-0.799-0.893l-0.706-0.941
		l-0.659-0.964l-0.564-0.926V24.482L76.575,24.482z M48.423,31.373l-2.422-2.657v3.575v11.806h-8.435l-2.501-6.326l-0.013-0.008
		l-0.34-0.863h-0.94h-8.161h-0.964l-0.329,0.895l-2.368,6.303h-1.183l-0.142,1.246l-0.211,1.529l-0.33,1.387l-0.447,1.271
		l-0.541,1.176l-0.635,1.033l-0.706,0.965l-0.8,0.848l-0.847,0.752l-0.917,0.635l-0.988,0.541L13.17,55.95l-1.082,0.354
		l-1.105,0.258l-1.129,0.141l-1.082,0.064V54.76l0.211-0.01l0.542-0.07l0.611-0.119l0.635-0.188l0.682-0.328l0.635-0.424
		l0.588-0.541l0.541-0.705l0.47-0.824l0.329-0.965l0.282-1.104l0.165-1.271l0.047-1.387V46.12v-0.707v-0.682v-0.705v-0.705v-0.73
		v-0.729l-0.023-0.729v-0.705v-0.754v-0.775l-0.024-0.777v-0.799l-0.023-0.799V35.7l-0.023-0.846l-0.023-0.848l-0.024-0.893
		l-0.023-0.894l-0.023-0.94l-0.023-0.988l-0.047-0.964l-0.024-1.011l-0.047-1.082l-0.047-1.082l-0.047-1.105l-0.047-1.129
		l-0.047-1.176l-0.071-1.223l-0.047-1.246l-0.064-1.176h6.951l-0.279,14.464l0.047,7.148l2.634-6.631l5.615-14.981h5.127
		l6.685,17.19l2.681,6.609v-7.104L43.23,19.102l4.275,0.016L58.889,31.75l2.422,2.681v-3.598V19.097h3.292v2.281v1.717v5.362v0.87
		l-0.021,14.675l-4.761,0.082L48.423,31.373L48.423,31.373z M66.727,46.741l0.629-0.01v-1.365l0.016-10.787l0.032,0.039l0.494,0.564
		l0.494,0.541l0.494,0.541l0.564,0.518l0.517,0.471l0.518,0.447l0.541,0.447l0.588,0.469l0.564,0.4l0.564,0.424l0.564,0.424
		l0.564,0.398l0.541,0.4l0.564,0.4l0.494,0.375l0.542,0.424l0.541,0.4l0.518,0.4l0.47,0.398l0.494,0.424l0.47,0.424l0.447,0.447
		l0.447,0.445l0.4,0.471l0.326,0.365l0.144,0.246l0.141,0.26l0.118,0.234l0.141,0.283l0.118,0.328l0.094,0.307l0.118,0.281
		l0.07,0.26l0.047,0.281l0.023,0.283l0.023,0.211v0.234l-0.023,0.189l-0.047,0.328l-0.047,0.166l-0.07,0.188h0.002l-0.073,0.117
		l-0.141,0.236l-0.118,0.164l-0.165,0.188l-0.211,0.213l-0.188,0.188l-0.164,0.141l-0.235,0.141l-0.212,0.143l-0.211,0.117
		l-0.258,0.117l-0.259,0.117l-0.306,0.119l-0.258,0.094l-0.212,0.07l-0.282,0.07l0.047-0.023l-0.658,0.094l-0.706,0.023
		l-0.682-0.023l-0.682-0.094l-0.706-0.143l-0.682-0.211l-0.682-0.258l-0.706-0.307l-0.658-0.305l-0.658-0.377l-0.612-0.4
		l-0.588-0.424l-0.612-0.469l-0.541-0.447l-0.494-0.471l-0.471-0.471L66.727,46.741L66.727,46.741z M133.747,40.309l-0.423,0.494
		l-0.471,0.424l-0.518,0.471l-0.518,0.424l-0.588,0.398l-0.588,0.354l-0.635,0.377l-0.635,0.305l-0.682,0.33l-0.706,0.258
		l-0.729,0.26l-0.776,0.234l-0.752,0.211l-0.753,0.166l-0.376,0.07l-0.377,0.07l-0.329,0.023l-0.282,0.023h-0.376h-0.376
		l-0.353-0.023l-0.307-0.023l-0.376-0.047l-0.399-0.023l-0.376-0.047l-0.354-0.047l-0.353-0.07l-0.4-0.072l-0.376-0.07l-0.399-0.07
		l-0.706-0.141l-0.705-0.211l-0.705-0.26l-0.683-0.281l-0.635-0.33l-0.636-0.354l-0.61-0.422l-0.612-0.447l-0.564-0.471
		l-0.564-0.518l-0.493-0.518l-0.494-0.588l-0.494-0.611l-0.399-0.588l-0.4-0.658l-0.329-0.635l-0.188-0.354l-0.141-0.352
		l-0.141-0.307l-0.142-0.377l-0.142-0.352l-0.117-0.307l-0.07-0.281l-0.094-0.354l-0.071-0.328l-0.07-0.354l-0.07-0.33l-0.023-0.305
		l-0.023-0.307l-0.023-0.328v-0.33l0.023-0.353l0.188-3.834l-2.61,2.822l-0.518,0.518l-0.47,0.447l-0.541,0.376l-0.541,0.306
		l-0.518,0.258l-0.588,0.234l-0.588,0.213l-0.588,0.117l-0.635,0.141l-0.611,0.07l-0.659,0.072l-0.635,0.047l-0.658,0.023
		l-0.683,0.023l-0.658,0.023h-0.635h-1.388v1.387v0.541l0.023,0.541l0.023,0.611l0.047,0.588l0.047,0.611l0.071,0.611l0.07,0.588
		l0.07,0.66l0.094,0.635l0.071,0.635l0.117,0.658l0.094,0.658l0.095,0.658l0.061,0.41l-3.87,0.084L91.25,44.12l-0.094,1.27
		l-0.094,0.941l-0.165,0.895l-0.235,0.916l-0.306,0.871l-0.353,0.846l-0.423,0.824l-0.494,0.822l-0.541,0.752l-0.612,0.73
		l-0.635,0.682l-0.729,0.635l-0.753,0.564l-0.8,0.564l-0.846,0.471l-0.894,0.424l-0.941,0.352l0.094-0.023l-0.306,0.094l-0.353,0.07
		l-0.353,0.096l-0.353,0.07l-0.329,0.07l-0.353,0.07l-0.353,0.07l-0.376,0.07l-0.329,0.07l-0.306,0.047l-0.353,0.047l-0.376,0.049
		l-0.282,0.023l-0.259,0.023l-0.306,0.023l-0.306,0.023h-0.541l-0.517-0.023l-0.588-0.07l-0.588-0.07l-0.634-0.143l-0.635-0.117
		L73,56.985l-0.635-0.213l-0.683-0.234l-0.635-0.211l-0.658-0.283l-0.682-0.281l-0.635-0.26l-0.635-0.281l-0.47-0.236v-3.307
		l0.047,0.039l0.729,0.516l0.752,0.447l0.8,0.471l0.8,0.4l0.799,0.352l0.87,0.307l0.871,0.258l0.893,0.189l0.917,0.141l0.917,0.023
		l0.94-0.023l0.941-0.141h0.023l0.023-0.025l0.329-0.07l0.447-0.117l0.353-0.141l0.353-0.117l0.353-0.166l0.353-0.164l0.4-0.211
		l0.353-0.236l0.329-0.234l0.353-0.281l0.329-0.283l0.259-0.307l0.306-0.328l0.258-0.354l0.235-0.375l0.211-0.424l0.024-0.023
		l0.023-0.047l0.165-0.471l0.094-0.447l0.047-0.375l0.071-0.471v-0.471l-0.024-0.447l-0.07-0.424l-0.094-0.422l-0.118-0.447
		l-0.118-0.424L83.372,46l-0.165-0.375l-0.142-0.377l-0.211-0.424l-0.188-0.352l-0.212-0.33l-0.047-0.07l-0.047-0.047l-0.447-0.588
		l-0.494-0.518l-0.494-0.541l-0.541-0.494l-0.518-0.471l-0.494-0.469l-0.564-0.447l-0.564-0.447l-0.541-0.4l-0.541-0.422
		l-0.588-0.424l-0.564-0.4l-0.542-0.4l-0.564-0.398l-0.517-0.377l-0.564-0.424l-0.518-0.398l-0.494-0.377l-0.494-0.447L71.8,35.135
		l-0.517-0.422L70.86,34.29l-0.447-0.447l-0.447-0.494l-0.399-0.47l-0.376-0.517l-0.376-0.518l-0.376-0.564l-0.306-0.541
		l-0.305-0.588l-0.282-0.635l-0.235-0.658l-1.154-3.193l1.06-1.911l0.588-1.105l0.023-0.047l0.023-0.047l0.212-0.424l0.258-0.399
		l0.306-0.376l0.329-0.353l0.376-0.353l0.4-0.306l0.423-0.259l0.494-0.282l0.541-0.258l0.518-0.259l0.517-0.164l0.588-0.212
		l0.611-0.212l0.541-0.141l0.611-0.118l0.54-0.12l0.66-0.068l0.729-0.047h0.753l0.8,0.023l0.776,0.071l0.776,0.094l0.776,0.141
		l0.776,0.165l0.776,0.235l0.752,0.259l0.706,0.282l0.706,0.376l0.658,0.376l0.588,0.423l0.588,0.471l0.173,0.173l0.16,2.478
		l-0.051-0.064l-0.541-0.635l-0.541-0.541l-0.565-0.565l-0.659-0.494l-0.635-0.423l-0.752-0.4l-0.847-0.329l-0.823-0.212
		l-0.87-0.141l-0.282-0.024H79.35l-0.259,0.024h-0.282l-0.447,0.047l-0.329,0.047l-0.33,0.046l-0.353,0.094l-0.353,0.071
		l-0.423,0.141l-0.376,0.141l-0.329,0.165l-0.329,0.188l-0.306,0.212l-0.353,0.282l-0.273,0.336L74.6,21.731l-0.236,0.423
		l-0.211,0.423l-0.141,0.494l-0.117,0.424l-0.095,0.541v0.588l0.095,0.564l0.217,0.609l-0.005,0.002l0.023,0.047l-0.005-0.016
		l0.664,1.168l0.753,1.105l0.847,1.082l0.894,0.988l0.964,0.988l0.964,0.917l0.987,0.894l1.012,0.846l1.011,0.824l0.964,0.799
		l0.988,0.799l0.917,0.777l0.894,0.775l0.823,0.705l0.752,0.73l0.635,0.729l2.446,2.752v-3.67V19.097h0.306l0.564-0.024h0.564
		l0.588-0.023l0.588-0.023l0.564-0.023h0.565l0.611-0.024l0.564-0.023h0.564h0.588h0.564l0.564,0.023l0.564,0.024l0.541,0.023
		l0.541,0.047l0.541,0.047l0.541,0.07l0.517,0.047l0.518,0.117l0.518,0.094l0.471,0.118l0.47,0.141l0.494,0.165l0.471,0.165
		l0.423,0.188l0.424,0.212l0.423,0.211l0.424,0.258l0.376,0.283v-0.023l0.165,0.141l0.211,0.282l0.283,0.353l0.258,0.4l0.282,0.494
		l0.235,0.494l0.282,0.518l0.259,0.517l0.987,2.07l1.364-1.834l0.564-0.682l0.564-0.635l0.635-0.612l0.683-0.541l0.729-0.541
		l0.729-0.494l0.752-0.423l0.8-0.376l0.847-0.353l0.847-0.33l0.847-0.258l0.894-0.212l0.894-0.165l0.918-0.117l0.87-0.094
		l0.917-0.023l0.917,0.023l0.917,0.07l0.894,0.094l0.847,0.165l0.847,0.211l0.847,0.259l0.8,0.282l0.8,0.376l0.776,0.4l0.753,0.447
		l0.682,0.518l0.658,0.541l0.635,0.588l0.589,0.659l0.517,0.682l0.481,0.7l-0.011,0.006l0.212,0.447l0.235,0.423l0.188,0.423
		l0.165,0.423l0.141,0.471l0.142,0.423l0.117,0.471l0.141,0.47l0.071,0.4l0.094,0.47l0.047,0.471l0.048,0.47l0.047,0.47l0.023,0.423
		v0.47v0.47l-0.047,0.424l-0.023,0.494l-0.048,0.446l-0.07,0.518l-0.07,0.447l-0.095,0.447l-0.117,0.469l-0.117,0.471l-0.142,0.471
		l-0.141,0.447l-0.165,0.447l-0.188,0.471l-0.188,0.469l-0.188,0.447l-0.235,0.447l-0.177,0.393l-0.364,0.502L133.747,40.309
		L133.747,40.309z M148.657,36.477l-0.094-0.189l-0.141-0.258l-0.188-0.258l-0.188-0.213l-0.164-0.164l-0.307-0.236l-0.164-0.07
		l-0.188-0.141l-1.128-0.141l1.104,0.117l-0.541-0.307l-0.588,0.189l0.002,0.006l-0.354,0.111l-0.988,1.363l0.239,7.879h-5.93
		l0.023-0.211l0.07-0.871l0.095-0.869l0.069-0.871l0.071-0.869l0.07-0.871l0.07-0.869l0.048-0.895l0.046-0.869l0.048-0.871
		l0.047-0.869l0.047-0.871l0.023-0.918l0.023-0.916v-0.871l0.023-0.87v-0.87l-0.023-0.87v-0.87l-0.023-0.941l-0.047-0.87
		l-0.023-0.894l-0.071-0.894l-0.046-0.87l-0.071-0.894l-0.07-0.87l-0.094-0.894l-0.095-0.917l-0.141-0.893l-0.026-0.204l0.214-0.008
		l0.589-0.023l0.635-0.024l0.611-0.047l0.564-0.047l0.588-0.023l0.611-0.047l0.564-0.047l0.588-0.023l0.588-0.047l0.518-0.023h0.588
		l0.588-0.024h0.518l0.564,0.024l0.564,0.023l0.518,0.024l0.518,0.07l0.541,0.047l0.493,0.094l0.541,0.118l0.518,0.094l0.446,0.141
		l0.541,0.188l0.494,0.165l0.447,0.188l0.494,0.259l0.446,0.259l0.494,0.306l0.47,0.306l1.793,1.264l0.23,1.464l0.07,0.376
		l0.07,0.376l0.07,0.329l0.071,0.353l0.07,0.282l0.047,0.353l0.07,0.305v0.235l2.775-0.188l-2.775,0.211l0.023,0.071v0.07
		l0.07,0.517l0.024,0.494l-0.024,0.494l-0.094,0.423l-0.141,0.447l-0.165,0.424l-0.212,0.423l-0.235,0.424l-0.281,0.353l-0.354,0.4
		l-0.329,0.399l-0.376,0.33l-0.4,0.376l-0.423,0.353l-0.399,0.282l-0.447,0.306l-1.129,0.753l0.729,1.152l6.01,9.359h-5.994
		l-4.695-7.83L148.657,36.477L148.657,36.477z M161.099,24.883l0.023,0.682v0.635v0.706l0.023,0.658v0.683l0.023,0.682v0.658
		l0.023,0.682v0.683l0.023,0.658v0.659v0.682v0.682v0.635l-0.023,0.658l-0.023,0.705v0.658l-0.047,0.66l-0.023,0.682l-0.047,0.635
		l-0.047,0.682l-0.047,0.658l-0.071,0.658l-0.07,0.684l-0.042,0.387l-4.456-6.941l0.406-0.312l0.493-0.424l0.471-0.471l0.471-0.494
		l0.399-0.494l0.424-0.588l0.376-0.611l0.306-0.612l0.259-0.658l0.188-0.682l0.141-0.753l0.07-0.775l-0.023-0.776l-0.096-0.651
		l-0.045-0.455l-0.07-0.353l-0.048-0.353l-0.012-0.064L161.099,24.883L161.099,24.883z M175.21,21.613h-0.447l-0.446-0.023
		l-0.471,0.023h-0.399h-0.447l-0.494,0.023l-0.424,0.023l-0.423,0.023l-0.446,0.024l-0.424,0.023l-0.447,0.023l-1.316,0.094v1.293
		l0.094,16.839v0.047v0.047l0.311,4.092h-6.26l0.022-0.141l0.118-0.705l0.094-0.682l0.118-0.707l0.07-0.705l0.07-0.682l0.07-0.705
		l0.047-0.707l0.048-0.682l0.047-0.682l0.023-0.682l0.047-0.707v-0.705l0.023-0.658l0.023-0.705v-0.682v-0.682v-0.682v-0.706
		l-0.023-0.659v-0.682l-0.023-0.682V28.88l-0.023-0.682v-0.682l-0.023-0.659v-0.659v-0.682l-0.023-0.682V24.2v-0.682v-1.364
		l-1.364-0.024l-4.163-0.07l-1.184-0.017l-0.039-2.241l-0.016-0.705h18.807v0.353v0.376l0.023,0.353v0.329l0.023,0.329v0.353
		l0.023,0.353l0.008,0.094h-0.337L175.21,21.613L175.21,21.613z"/>
	<polygon fill-rule="evenodd" clip-rule="evenodd" fill="#FFFFFF" points="144.707,35.231 144.729,36.288 145.694,34.924 
		144.707,35.231 	"/>
	<path fill-rule="evenodd" clip-rule="evenodd" fill="#FFFFFF" d="M151.598,24.882l-0.118-0.423l-0.117-0.494l-0.188-0.494
		l-0.211-0.423l-0.235-0.423l-0.354-0.47l-0.376-0.4h-0.023l-0.659-0.447l-0.682-0.235l-0.611-0.118l-0.564-0.094l-0.518-0.047
		l-0.47-0.023h-0.33h-0.094h-1.388v1.388v8.02v1.388h1.388h0.329l0.282-0.023h0.329l0.424-0.071l0.329-0.047l0.329-0.046
		l0.329-0.094l0.424-0.094l0.399-0.165l0.259-0.141l0.377-0.188l0.399-0.306l0.282-0.282l0.282-0.33l0.259-0.447l0.164-0.447
		l-0.016-0.004l0.11-0.396l0.117-0.423l0.071-0.376l0.07-0.447l0.07-0.447l0.023-0.494V25.87l-0.023-0.494L151.598,24.882
		L151.598,24.882z M148.563,28.198l-0.047,0.047l-0.094,0.094l-0.024,0.024l-0.094,0.046l-0.259,0.094l-0.117,0.071l-0.142,0.047
		l-0.282,0.047l-0.07,0.014v-5.016l0.165,0.016l0.329,0.071l0.152,0.034l0.177,0.154l0.117,0.188l0.142,0.235l0.117,0.235
		l0.095,0.212l0.07,0.258l0.07,0.33l0.023,0.258l0.023,0.259v0.353l-0.023,0.259l-0.023,0.306l-0.07,0.353l-0.07,0.33l-0.071,0.329
		l-0.07,0.282l-0.023,0.023l-0.023,0.07L148.563,28.198L148.563,28.198z"/>
	<path fill-rule="evenodd" clip-rule="evenodd" fill="#FFFFFF" d="M102.374,24.482l-0.142-0.517l-0.188-0.494l-0.235-0.447
		l-0.282-0.447l-0.306-0.423l-0.399-0.4l-0.004,0.004l-0.655-0.451l-0.658-0.235l-0.611-0.141l-0.611-0.094l-0.541-0.023
		l-0.424-0.023h-0.329h-0.117l-1.364,0.023v1.364v8.02v1.388h1.388h0.329l0.282-0.023h0.329l0.399-0.071l0.329-0.023l0.354-0.07
		l0.329-0.071l0.376-0.118l0.377-0.118l0.376-0.188l0.353-0.211l0.353-0.259l0.307-0.283l0.281-0.353l0.259-0.399l0.165-0.447
		v-0.023l0.117-0.424l0.118-0.423l0.07-0.376l0.07-0.447l0.07-0.518v-0.447v-0.4v-0.518l-0.094-0.494L102.374,24.482L102.374,24.482
		z M99.458,28.104l-0.023,0.071l-0.024,0.023l-0.046,0.07l-0.071,0.047l-0.07,0.07l-0.118,0.071l-0.141,0.047l-0.188,0.071
		l-0.188,0.07l-0.235,0.023l-0.07,0.02v-5.044l0.141,0.016l0.329,0.094l0.206,0.041l0.146,0.147l0.165,0.235l0.141,0.211
		l0.095,0.212l0.094,0.212l0.048,0.235l0.07,0.353l0.047,0.258v0.235v0.4v0.306l-0.023,0.235l-0.071,0.353l-0.07,0.33l-0.07,0.329
		l-0.065,0.26L99.458,28.104L99.458,28.104z"/>
	<path fill-rule="evenodd" clip-rule="evenodd" fill="#FFFFFF" d="M30.926,27.046l-1.317-3.434l-1.27,3.457l-2.234,6.044
		l-0.682,1.857h1.976h4.516h1.999l-0.706-1.881L30.926,27.046L30.926,27.046z M29.91,32.196h-0.532l0.263-0.711L29.91,32.196
		L29.91,32.196z"/>
	<path fill-rule="evenodd" clip-rule="evenodd" fill="#FFFFFF" d="M130.572,29.703l-0.07-0.893l-0.142-0.917l-0.164-0.917
		l-0.188-0.823v-0.023v-0.023l-0.282-0.894l-0.424-0.847l-0.47-0.729l-0.589-0.706l-0.658-0.588l-0.658-0.494l-0.776-0.447
		l-0.799-0.353l-0.823-0.212l-0.87-0.188l-0.895-0.047l-0.869,0.047L121,20.813l-0.87,0.235l-0.847,0.353l-0.823,0.494l-0.94,0.682
		l-0.775,0.776l-0.683,0.87l-0.541,0.917l-0.447,0.988l-0.329,0.987l-0.258,0.988l-0.165,1.035l-0.117,1.035l-0.048,1.058
		l0.023,1.012l0.047,1.011l0.095,1.012l0.141,0.965l0.165,0.916l0.165,0.871l0.141,0.539l0.164,0.494l0.212,0.564l0.259,0.518
		l0.259,0.518l0.282,0.447l0.353,0.494l0.354,0.471l0.376,0.375l0.423,0.424l0.447,0.4l0.47,0.328l0.494,0.283l0.541,0.258
		l0.564,0.189l0.588,0.164h-0.023l0.518,0.094l0.518,0.023l0.494,0.023l0.54-0.023l0.541-0.07l0.518-0.094l0.518-0.117l0.494-0.166
		l0.518-0.164l0.493-0.234l0.447-0.236l0.494-0.281l0.423-0.307l0.447-0.422l0.329-0.377l0.329-0.424l0.494-0.846l0.423-0.871
		l0.353-0.871l0.307-0.916l0.258-0.941l0.188-0.916l0.141-0.941l0.118-0.939l0.047-0.941l0.023-0.941l-0.023-0.964L130.572,29.703
		L130.572,29.703z M125.821,39.393l-0.188,0.234l-0.164,0.143l-0.235,0.164l-0.259,0.188l-0.306,0.141l-0.353,0.143l-0.329,0.117
		l-0.353,0.117l-0.377,0.07l-0.376,0.094l-0.353,0.023l-0.306,0.023l-0.354-0.023l-0.329-0.023l-0.282-0.047h-0.023l-0.306-0.07
		l-0.282-0.094l-0.306-0.164l-0.306-0.189l-0.282-0.188l-0.259-0.211l-0.282-0.283l-0.282-0.328l-0.259-0.283l-0.212-0.354
		l-0.234-0.352l-0.212-0.377l-0.165-0.328l-0.117-0.33l-0.118-0.4l-0.094-0.352l-0.165-0.824l-0.164-0.822l-0.094-0.871
		l-0.095-0.869l-0.047-0.917l-0.023-0.917l0.047-0.87l0.071-0.847l0.164-0.847l0.165-0.799l0.282-0.753l0.306-0.705l0.399-0.635
		l0.447-0.588l0.541-0.494l0.611-0.494l0.541-0.306l0.564-0.212l0.54-0.188l0.564-0.071l0.588-0.047l0.565,0.047l0.54,0.094
		l0.541,0.165l0.518,0.212l0.447,0.259l0.47,0.353l0.424,0.353l0.306,0.424l0.329,0.494l0.235,0.47l0.188,0.564v-0.047l0.142,0.776
		l0.165,0.776l0.094,0.776l0.07,0.846l0.07,0.823l0.023,0.823l-0.023,0.8l-0.047,0.846l-0.07,0.799l-0.141,0.848l-0.142,0.775
		l-0.212,0.754l-0.259,0.729l-0.306,0.729l-0.329,0.682l-0.399,0.658L125.821,39.393L125.821,39.393z"/>
	<path fill-rule="evenodd" clip-rule="evenodd" fill="#A55C45" d="M177.443,23.142c-0.047-1.788-0.235-3.551-0.07-5.433h-18.838
		h-2.846l0.047,2.116c-2.375-1.693-4.915-2.328-7.549-2.493c-3.41-0.235-6.962,0.353-10.489,0.353c-0.07,0.024-0.142,0.024-0.212,0
		c0.07,0.541,0.142,1.082,0.212,1.599c1.105,8.02,0.776,16.063,0,23.989c-0.07,0.752-0.142,1.527-0.212,2.281h0.212h8.701
		l-0.282-9.314l0.377-0.117c0.493,0.307,0.705,0.494,0.894,0.918l0.8,1.387l4.304,7.127h6.044h12.394l-0.423-5.574l-0.094-16.839
		C172.764,23.001,174.95,22.883,177.443,23.142L177.443,23.142z M149.904,28.527c-0.235,0.753-0.894,1.176-1.717,1.411
		c-0.683,0.211-1.481,0.259-2.141,0.259v-8.02c0,0,1.224,0,2.141,0.235c0.353,0.07,0.658,0.188,0.847,0.353
		C150.61,24.271,150.469,26.67,149.904,28.527L149.904,28.527z M161.569,45.155l-3.034-4.68l-4.092-6.422
		c1.646-1.104,3.363-2.633,4.092-4.608c0.376-0.964,0.494-2.046,0.282-3.246c-0.047-0.517-0.165-1.058-0.282-1.576
		c-0.07-0.376-0.165-0.776-0.212-1.176l0.212,0.023l3.951,0.047C162.486,30.667,163.074,37.911,161.569,45.155L161.569,45.155z"/>
	<path fill-rule="evenodd" clip-rule="evenodd" fill="#A55C45" d="M137.698,29.021c-0.259-1.67-0.8-3.316-1.623-4.915
		c-2.916-4.751-8.278-6.915-13.664-6.727c-5.057,0.165-10.112,2.375-13.1,6.397c-0.658-1.387-1.552-3.081-2.398-3.715
		c-2.258-1.624-5.01-2.234-7.879-2.399c-3.27-0.211-6.702,0.118-9.783,0.047v21.33c-3.598-4.139-10.842-7.972-13.923-13.875
		c-0.376-0.659,0.047-2.164,0.376-2.587c0.729-1.035,3.057-1.317,4.163-1.223c3.998,0.353,6.115,4.304,8.114,7.361l-0.518-8.02
		c-3.081-3.363-8.584-4.257-12.535-3.763c-3.387,0.682-6.961,1.999-8.349,5.057l-0.588,1.105v-5.385h-6.068v13.123l-11.806-13.1
		l-6.279-0.023l0.047,18.084l-7.032-18.084h-5.197h-1.835l-5.95,15.875l0.306-15.875h-9.831c0.776,14.463,0.776,21.637,0.776,29.115
		c0,7.455-4.375,6.42-5.738,6.607v4.703c6.914,0.473,13.734-3.598,14.628-12.652h0.894l2.704-7.195h4.045h4.116l2.845,7.195h10.772
		V32.291l11.829,13.192l6.75-0.117l0.024-16.039c2.799,7.832,10.818,9.902,15.287,15.544c0.988,1.6,1.67,3.693,0.988,5.363
		c-0.8,1.693-2.61,2.682-4.28,3.057c-4.281,0.824-8.796-1.928-11.406-4.703v7.268c3.293,1.67,7.455,3.246,10.607,3.104
		c1.669-0.07,3.763-0.494,5.597-0.965c5.644-1.928,9.384-6.961,9.76-12.512l5.433-0.117c-0.494-3.48-1.082-7.078-1.082-9.76
		c0.682,0,1.411,0,2.14-0.023c2.94-0.117,5.974-0.611,8.42-3.292c-0.118,2.093,0.423,3.974,1.435,5.997
		c1.952,3.904,5.715,7.008,10.042,7.785c1.152,0.211,2.305,0.445,3.48,0.516c0.94,0.049,1.858,0,2.846-0.211
		c4.398-0.965,8.35-3.033,10.442-6.396c1.011-1.953,1.693-3.998,1.999-6.068C137.957,32.291,137.957,30.644,137.698,29.021
		L137.698,29.021z M29.656,33.584h-2.258l2.234-6.045l0.023,0.141l2.258,5.904H29.656L29.656,33.584z M100.774,28.527
		c-0.259,0.753-0.94,1.2-1.74,1.411c-0.682,0.211-1.481,0.259-2.14,0.259v-8.02c0,0,1.223-0.023,2.14,0.212
		c0.354,0.094,0.659,0.211,0.847,0.376C101.48,24.271,101.339,26.67,100.774,28.527L100.774,28.527z M127.139,39.958
		c-0.87,1.363-2.893,2.188-4.728,2.281c-0.493,0.023-0.987-0.023-1.435-0.117c-2.375-0.447-4.304-3.035-4.821-5.387
		c-0.964-4.374-1.316-10.818,3.058-13.687c0.987-0.658,2.117-0.988,3.198-1.035c2.799-0.118,5.504,1.576,6.256,4.445
		C129.655,30.715,129.631,36.077,127.139,39.958L127.139,39.958z"/>
	<path fill-rule="evenodd" clip-rule="evenodd" fill="#FFFFFF" d="M178.056,38.829v-0.023c-5.574,0-5.457,8.443,0,8.443
		C183.512,47.225,183.559,38.852,178.056,38.829L178.056,38.829z M178.056,46.213c-4.14,0-4.21-6.373,0-6.373v0.023
		C182.218,39.887,182.171,46.19,178.056,46.213L178.056,46.213z"/>
	<path fill-rule="evenodd" clip-rule="evenodd" fill="#FFFFFF" d="M179.466,41.461c-0.234-0.375-0.799-0.492-1.41-0.516
		c-0.565-0.025-1.2,0.023-1.529,0.023v4.139h0.776v-1.717c0.306,0,0.564,0.117,0.753,0.258c0.446,0.354,0.705,0.965,1.011,1.459
		h0.894c-0.376-0.635-0.752-1.293-1.27-1.811C179.514,43.131,179.913,42.215,179.466,41.461L179.466,41.461z M178.056,42.709
		c-0.235,0.023-0.518,0-0.753,0v-1.035c0.141,0,0.446,0,0.753,0.023c0.353,0.023,0.682,0.07,0.729,0.141
		C178.949,42.52,178.573,42.686,178.056,42.709L178.056,42.709z"/>
</g>
</svg>
