<?xml version="1.0" encoding="utf-8"?>
<!-- Generator: Adobe Illustrator 16.0.0, SVG Export Plug-In . SVG Version: 6.00 Build 0)  -->
<!DOCTYPE svg PUBLIC "-//W3C//DTD SVG 1.1//EN" "http://www.w3.org/Graphics/SVG/1.1/DTD/svg11.dtd">
<svg version="1.1" id="Layer_1" xmlns="http://www.w3.org/2000/svg" xmlns:xlink="http://www.w3.org/1999/xlink" x="0px" y="0px"
	 width="180.625px" height="41.337px" viewBox="0 0 180.625 41.337" enable-background="new 0 0 180.625 41.337"
	 xml:space="preserve">
<polygon fill-rule="evenodd" clip-rule="evenodd" fill="#1D1D1B" points="0,40.868 9.186,40.868 9.186,1.125 0,1.125 0,40.868 "/>
<polygon fill-rule="evenodd" clip-rule="evenodd" fill="#1D1D1B" points="25.776,0 10.123,15.561 15.091,20.528 9.936,25.777 
	25.495,41.337 31.4,35.432 16.778,20.81 31.4,6.093 25.776,0 "/>
<polygon fill-rule="evenodd" clip-rule="evenodd" fill="#1D1D1B" points="44.898,9.655 65.145,9.655 65.145,1.125 44.898,1.125 
	44.898,9.655 "/>
<polygon fill-rule="evenodd" clip-rule="evenodd" fill="#1D1D1B" points="43.68,1.125 34.494,1.125 34.494,40.868 43.68,40.868 
	43.68,1.125 "/>
<polygon fill-rule="evenodd" clip-rule="evenodd" fill="#1D1D1B" points="44.898,40.868 65.145,40.868 65.145,32.339 44.898,32.339 
	44.898,40.868 "/>
<polygon fill-rule="evenodd" clip-rule="evenodd" fill="#1D1D1B" points="107.886,9.655 130.101,9.655 110.511,29.245 
	113.792,32.339 107.886,32.339 107.886,40.868 139.57,40.868 139.57,32.339 118.759,32.339 137.882,13.217 134.601,9.655 
	139.57,9.655 139.57,1.125 107.886,1.125 107.886,9.655 "/>
<path fill-rule="evenodd" clip-rule="evenodd" fill="#1D1D1B" d="M180.625,20.996c0-10.873-8.904-19.871-19.871-19.871
	c-10.873,0-19.779,8.998-19.779,19.871c0,10.874,8.906,19.872,19.779,19.872C171.72,40.868,180.625,31.87,180.625,20.996
	L180.625,20.996L180.625,20.996z M160.753,34.025c-7.031,0-12.936-5.905-12.936-13.029c0-7.029,5.904-12.935,12.936-12.935
	c7.123,0,13.029,5.905,13.029,12.935C173.783,28.12,167.876,34.025,160.753,34.025L160.753,34.025L160.753,34.025z"/>
<polygon fill-rule="evenodd" clip-rule="evenodd" fill="#1D1D1B" points="63.551,16.966 44.898,16.966 44.898,25.496 63.551,25.496 
	63.551,16.966 "/>
<polygon fill-rule="evenodd" clip-rule="evenodd" fill="#1D1D1B" points="96.359,33.557 76.486,1.125 67.301,1.125 67.301,40.868 
	76.486,40.868 76.486,7.499 97.013,40.868 105.826,40.868 105.826,0.938 96.359,0.938 96.359,33.557 "/>
</svg>
