<?xml version="1.0" encoding="utf-8"?>
<!-- Generator: Adobe Illustrator 16.0.0, SVG Export Plug-In . SVG Version: 6.00 Build 0)  -->
<!DOCTYPE svg PUBLIC "-//W3C//DTD SVG 1.1//EN" "http://www.w3.org/Graphics/SVG/1.1/DTD/svg11.dtd">
<svg version="1.1" id="Layer_1" xmlns="http://www.w3.org/2000/svg" xmlns:xlink="http://www.w3.org/1999/xlink" x="0px" y="0px"
	 width="192.756px" height="192.756px" viewBox="0 0 192.756 192.756" enable-background="new 0 0 192.756 192.756"
	 xml:space="preserve">
<g>
	<polygon fill-rule="evenodd" clip-rule="evenodd" fill="#FFFFFF" points="0,0 192.756,0 192.756,192.756 0,192.756 0,0 	"/>
	<path fill-rule="evenodd" clip-rule="evenodd" fill="#ED1C24" d="M146.441,84.635c-0.588,0-2.181,0.168-3.103,0.335
		c-0.169,0.504-2.6,1.594-2.014,4.614c0.419,1.847,1.343,3.188,0.923,3.523c-1.174,0.671-2.85-0.503-4.361-1.09
		c-1.508-0.755-3.856-1.762-5.367,0.168c-1.342,1.845,3.271,1.593,7.213,3.69c2.936,1.511,4.949,1.175,9.645,1.679
		c4.697,0.334,4.947-1.679,5.701-1.595c0.673,0.168,0.421,2.013,2.602,2.685c1.007,0.25,3.271-1.008,3.69-0.84
		c0.671,0.084,0.671,1.426,2.264,2.098c1.762,0.504,2.265-0.504,2.851-0.756c0.505-0.252,0.588,1.008,1.595,1.26
		c1.005,0.168,2.516,0.084,3.271,0.168c0.587,0.252,0,1.006,1.678,1.258c1.508,0.252,2.012-0.588,2.766-0.336
		c0.588,0.252,1.344,1.93,4.529,1.678c2.014-0.168,1.511-1.426,1.007-2.348c-0.588-0.924-4.948-1.68-11.992-4.195
		c-11.908-4.11-15.096-3.103-17.612-7.969c-1.005-2.013-1.593-3.104-1.76-3.775C149.292,84.719,148.034,84.803,146.441,84.635
		L146.441,84.635z"/>
	<path fill="none" stroke="#FFFFFF" stroke-width="0.216" stroke-miterlimit="2.6131" d="M186.529,98.141
		c-0.505-0.336-2.182,1.258-2.852,1.006c-0.756-0.252-1.342-1.258-1.929-1.51c-0.755-0.25-1.175,0.168-1.929,0
		c-0.588-0.082-0.168-1.006-0.671-1.258c-0.673-0.251-1.008,0.418-1.762,0.168c-0.588-0.168-1.007-1.258-1.511-1.51
		c-0.586-0.167-0.754,0.587-1.424,0.336c-0.924-0.336-1.175-1.007-1.762-1.258c-0.504-0.336-1.594,0.671-2.348,0.251
		c-0.756-0.335-0.756-2.935-1.26-3.188c-0.586-0.251-2.431,1.845-3.186,1.342c-0.672-0.335-0.42-2.266-1.007-2.6
		c-0.503-0.336-2.767,1.594-3.354,1.342c-0.502-0.252-0.587-1.258-1.342-1.342c-0.671-0.084-1.845,0.839-2.601,0.587
		c-1.509-0.587-3.354-0.335-5.619-5.704c-0.251-0.671-0.753-1.091-1.256-0.839c-1.343,0.503-0.84,1.006,1.005,4.698
		c2.517,4.866,5.704,3.858,17.612,7.969c7.044,2.516,11.404,3.271,11.992,4.195c0.504,0.922,1.007,2.18-1.007,2.348
		c-3.186,0.252-3.941-1.426-4.529-1.678c-0.754-0.252-1.258,0.588-2.766,0.336c-1.678-0.252-1.091-1.006-1.678-1.258
		c-0.755-0.084-2.266,0-3.271-0.168c-1.007-0.252-1.09-1.512-1.595-1.26c-0.586,0.252-1.089,1.26-2.851,0.756
		c-1.593-0.672-1.593-2.014-2.264-2.098c-0.42-0.168-2.684,1.09-3.69,0.84c-2.181-0.672-1.929-2.517-2.602-2.685
		c-0.754-0.084-1.004,1.929-5.701,1.595c-4.695-0.504-6.709-0.168-9.645-1.679c-3.941-2.097-8.555-1.845-7.213-3.69
		c1.511-1.931,3.859-0.923,5.367-0.168c1.512,0.587,3.188,1.762,4.361,1.09c0.42-0.335-0.504-1.677-0.923-3.523
		c-0.586-3.271,2.267-4.278,2.014-4.781c-0.419-0.588-2.014-1.426-5.869-0.839c-2.602,0.419-7.633,4.361-8.892,4.95
		c-1.258,0.754-6.456,3.522-9.308-0.588c-2.851-4.193-0.252-8.472,0.922-9.814c1.09-1.342,2.937-2.349,3.606-1.342
		c0.924,1.594-1.258,2.013-2.181,3.104c-0.84,1.091-2.179,4.781-0.672,6.46c1.595,1.677,4.529,1.845,7.884-0.671
		c2.767-2.097,7.297-5.034,11.74-4.698c4.528,0.251,6.878,2.348,7.55,2.517c0.671,0.084,1.257-1.426,2.179-1.761
		c0.671-0.252,1.593,0.586,2.181,0.335c0.503-0.335,1.091-1.678,1.762-1.929c0.755-0.252,2.601,1.006,3.188,0.587
		c0.503-0.252,0.418-1.845,1.258-1.93c0.838-0.168,2.264,1.343,2.851,1.091c0.755-0.419,0.755-1.259,1.509-1.259
		c0.588,0,1.93,2.014,2.601,1.846c0.503-0.083,0.336-2.097,1.091-2.349c0.754-0.252,2.684,1.342,3.354,1.09
		c0.503-0.251,0.587-2.685,1.509-3.188c0.839-0.335,1.678,1.007,2.182,0.755c0.671-0.252,1.089-3.02,1.845-3.104
		c0.67-0.084,2.012,0.754,2.599,0.587c0.503-0.084,0.251-2.601,1.258-3.105c1.008-0.334,2.266,1.26,2.6,1.176
		c0.504-0.168,0.755-1.51,1.259-1.594c0.587-0.168,2.096,1.09,2.852,0.923c0.586-0.252,0.336-2.097,1.006-2.182
		c0.504-0.167,2.601,0.252,2.432-2.097c-0.084-2.35-3.102-4.614-5.953-4.614c-5.201,0-10.399,2.264-14.845,3.103
		c-4.444,0.755-13.585,3.44-15.851,3.86c-2.263,0.335-4.445-0.923-2.432-2.518c1.595-1.51,2.432-0.334,2.432-0.838
		c0-0.504-1.007-1.007-2.432-1.259c-1.51-0.251-3.271,1.259-5.199,1.007c-1.929-0.252-3.857-1.761-5.953-1.342
		c-5.116,0.587-5.871,2.853-8.47,3.774c-2.602,1.007-4.53,0.252-5.956,0.42c-3.521,0.503-4.78,2.601-7.379,2.349
		c-3.103-0.252-4.613-2.013-7.968-2.937c-3.187-1.006-9.308-1.929-10.735-2.432c-1.508-0.587-8.133-2.182-9.727-2.349
		c-1.761-0.252-2.6,0.251-3.354,0.251c-0.84,0-1.93-0.503-3.104-0.587c-1.091-0.168-2.852-0.251-3.605,0
		c-0.672,0.336-0.923,0.336-1.846,0.084c-0.754-0.084-3.522-0.587-4.696-0.419c-1.678,0.084-2.349,1.175-3.606,1.343
		c-1.174,0.084-2.348-0.504-3.689-0.252c-1.342,0.252-2.432,0.755-3.606,1.09c-1.09,0.419-3.103,0.167-4.025,0.251
		c-2.516,0.587-2.852,1.845-3.774,1.845c-0.839,0-3.857-0.503-4.78,0c-1.007,0.42-1.845,1.174-2.6,1.258
		c-0.922,0.084-4.277,0.588-6.374,0.336c-1.174-0.084-3.187,0.923-4.025,1.174c-1.006,0.252-3.355,0.252-4.026-0.923
		c-0.671-1.426,1.174-3.523,4.278-6.04c2.096-1.594,13.921-9.899,33.125-13.003c15.012-2.517,32.538-8.809,36.229-12.667
		c1.594-1.594,8.052-7.047,9.644-10.403c1.593-3.355,2.096-5.285,1.259-5.201c-0.838,0.252-1.845,2.013-3.438,2.6
		c-1.511,0.503-2.852-0.335-4.025,0.168c-1.091,0.335-2.348,2.097-3.521,2.181c-1.258,0.167-1.762-0.923-2.686-0.504
		c-0.922,0.671-2.431,1.762-3.438,2.013c-2.095,0.336-2.179-2.096-4.108-1.09c-2.013,1.006-3.438,2.684-5.45,3.103
		c-1.846,0.252-1.595-1.174-2.852-1.174c-2.014,0-3.941,2.768-4.864,2.768c-0.922,0-1.678-1.51-2.851-1.342
		c-1.091,0.084-4.529,2.685-5.871,3.104c-1.426,0.252-1.677-1.93-2.852-1.762c-1.425,0.084-4.025,2.601-5.451,2.937
		c-1.509,0.251-2.348-0.755-3.354-0.755c-1.006,0-4.109,2.601-5.619,3.02c-2.18,0.503-2.348-2.264-4.696-2.097
		c-1.677,0.084-3.438,2.35-4.779,2.434c-1.427,0.167-2.014-0.923-3.607-0.587c-1.761,0.503-5.199,2.852-6.374,3.104
		c-1.09,0.251-1.929-0.419-3.271,0c-2.516,0.755-4.863,4.11-6.458,4.95c-1.76,1.006-3.018,0.502-3.941,1.09
		c-1.677,1.174-1.928,3.523-3.522,4.195c-1.425,0.755-1.341-0.336-2.684,0.503c-2.263,1.677-1.425,3.524-2.096,4.363
		c-0.671,0.838-2.517,1.509-3.606,2.852c-1.091,1.258-1.091,2.013-1.51,2.852c-0.503,0.839-2.432,3.356-2.851,4.446
		C6.56,66.6,7.062,67.774,6.56,68.613c-0.336,0.755-1.09,2.014-1.51,2.935c-0.671,2.182,0.252,4.363,0.168,5.202
		c-0.168,0.754-1.007,2.013-1.007,3.02c0,1.007,1.007,2.936,0.755,4.446c-0.251,1.51-3.355,11.493-1.593,16.023
		c1.929,4.697,4.78,7.215,5.786,6.795c1.09-0.336,0.419-2.35,1.51-4.193c1.09-1.764,2.348-3.945,3.354-2.434
		c0.839,1.426-2.012,1.426-2.265,5.535c-0.335,3.943,0.168,2.266,0,3.439c-0.084,1.26-2.6,3.609-2.6,4.699
		c0,1.174,0.252,4.111,3.941,7.213c2.265,2.014,2.768,3.355,3.354,3.439c0.503,0.17,1.007-2.348,2.097-2.852
		c1.51-0.672,4.781,2.266,5.367,2.182c0.755-0.252,1.006-4.279,2.348-5.033c1.343-0.588,4.613,2.012,5.285,1.678
		c0.67-0.504-0.085-3.021,0.25-4.027c0.42-0.922,2.264-1.174,1.677-2.852c-0.502-1.678-0.755-4.949-6.708-5.369
		c-1.762-0.168-4.193-0.42-2.6-2.264c1.845-1.848,3.857-8.641-0.504-13.926c-1.844-2.265-6.038-1.007-7.212-0.504
		c-2.096,0.755-4.193,3.524-5.031,2.769c-0.755-0.755,1.677-3.858,5.45-4.95c3.69-1.174,8.387-0.922,10.232,3.692
		c3.27,8.052,0,11.828,0.419,12.666c0.503,0.84,2.347-0.084,4.948,1.512c3.69,2.432,3.187,4.529,4.109,5.285
		c0.838,0.67,5.283,1.006,9.393,1.258c4.193,0.252,8.805,1.342,10.734,0.252c3.103-1.594,3.354-7.551,10.566-11.914
		c3.606-2.18,8.386-4.361,13.753-3.439c5.955,0.84,6.039,1.68,5.535,2.434c-0.084,0.42-0.25,1.006-0.335,0.922
		c-2.852-1.508-6.96-1.676-9.477-1.174c-3.69,0.672-9.98,1.68-14.592,9.732c-4.529,8.053,2.767,8.137,3.522,8.389
		c0.839,0.336,2.181,0.754,2.097,3.104c-0.168,2.348,0.587,3.691,1.426,5.201c1.006,1.342,2.6,2.432,2.6,2.432
		s1.174-2.684,2.516-3.271c1.342-0.754,2.935,0.588,3.69,1.426c2.348,3.021,1.343-2.6,3.019-3.186
		c2.433-0.756,3.354,2.852,4.697,2.18c2.432-1.09,1.09-2.768,2.852-3.439c1.844-0.504,2.935,1.006,3.689,0.504
		c0.838-0.588,0.755-5.789-0.839-7.885c-1.761-2.182-4.36-5.873-9.896-5.873c-5.451,0-7.212-0.756-6.961-1.846
		c0.252-1.09,1.342-1.846,2.684-1.342c2.098,0.754,2.348,0.586,5.702,0.754c4.864,0.084,3.774,2.182,7.8,3.943
		c3.02,1.258,6.96-0.84,11.825,0c4.946,0.84,9.056,1.762,13.584,1.51c8.557-0.252,18.032-4.027,19.876-4.279
		c1.931-0.334,2.936-0.084,2.936-0.67c0-0.504-8.301-1.762-7.8-3.775c0.671-1.928,4.613-0.336,10.063,0.924
		c5.452,1.174,17.109,2.18,21.638,1.93c4.865-0.084,13.167,2.096,19.959,0.502c3.439-0.838,6.709-2.936,7.045-5.283
		C190.303,100.406,187.199,98.645,186.529,98.141L186.529,98.141z M139.732,69.368c1.342-0.252,3.69,0.335,3.104,1.846
		c-0.505,1.51-0.755,1.258-1.846,1.51c-1.092,0.251-3.354,0.503-3.942-0.504C136.545,71.213,138.223,69.703,139.732,69.368
		L139.732,69.368z M105.602,30.695c0.838,0.42,0.923,1.595,0.838,2.35c-0.252,0.671-0.671,1.342-1.09,1.342
		c-0.672,0-0.672-0.923-0.922-1.846C104.174,31.786,104.678,30.192,105.602,30.695L105.602,30.695z M97.887,33.044
		c1.76,0.419,1.089,2.013,0.753,3.858c-0.252,1.258-1.341,1.594-1.51,1.846c-0.586,1.091-0.753-3.691-0.753-3.691
		S96.88,32.792,97.887,33.044L97.887,33.044z M89.332,34.386c0.671-0.084,1.846,2.517,1.174,4.782
		c-0.754,2.181-1.677,2.181-1.677,2.181s-0.251-2.433-0.504-2.685C88.074,38.245,87.571,34.806,89.332,34.386L89.332,34.386z
		 M81.616,35.645c1.595-0.587,2.015,3.019,1.259,4.865c-0.671,1.93-0.671,3.104-1.846,2.349c-1.426-0.671-0.251-3.02-0.671-3.691
		C79.855,37.993,80.275,36.316,81.616,35.645L81.616,35.645z M73.062,37.658c2.013-0.252,1.761,2.935,1.258,4.698
		c-0.587,1.593-1.006,2.348-1.844,2.097c-0.923-0.336,0.251-2.434-0.252-3.355C71.553,40.259,71.972,37.742,73.062,37.658
		L73.062,37.658z M64.257,39.252c1.174,0.251,2.013,2.013,1.426,4.446c-0.503,2.517-1.258,3.104-1.929,3.104
		s0.251-3.943-0.336-3.943C62.915,42.859,62.832,39,64.257,39.252L64.257,39.252z M55.619,42.188c0.755,0,2.432,1.426,1.593,4.026
		c-0.838,2.685-0.838,2.434-1.593,2.685c-0.839,0.168-0.251-1.595-0.755-2.601C54.277,45.459,53.522,42.104,55.619,42.188
		L55.619,42.188z M47.82,44.956c1.51-0.084,2.097,3.104,1.761,4.446c-0.251,1.342-0.755,3.021-1.677,2.768
		c-0.839-0.167,0.167-2.6-0.587-2.6C46.73,49.57,45.556,45.04,47.82,44.956L47.82,44.956z M42.872,54.1
		c-1.006,1.846-0.923,1.846-1.593,1.846c-0.671,0-0.252-2.685-1.006-2.685c-0.671,0-1.258-3.942,0.838-4.11
		C43.375,49.067,43.459,52.757,42.872,54.1L42.872,54.1z M39.518,41.517c0.503,0,1.761,0.839,0.587,2.098
		c-1.09,1.258-1.174,2.097-2.18,1.594C36.918,44.872,37.924,41.601,39.518,41.517L39.518,41.517z M11.004,68.026
		c0.67,0,1.509,1.677,1.426,2.349c-0.168,0.503-0.251,1.342-1.258,1.594c-0.922,0.251-1.258-1.258-1.258-1.51
		C9.83,70.123,9.578,67.858,11.004,68.026L11.004,68.026z M12.011,79.014c-0.503,0-1.091,0-1.51-0.335
		c-0.252-0.42-1.929-2.097-0.671-3.775c0.084-0.251,2.181,1.175,2.6,2.097C12.682,77.672,12.682,79.014,12.011,79.014L12.011,79.014
		z M13.771,65.005c-0.252,0.419-0.922,0.671-1.341,0.419c-0.671-0.419-0.671-1.761-0.419-2.012c0.167-0.084,0.25-2.097,1.592-1.847
		c0.671,0.084-0.084,1.762,0,1.93C13.771,63.747,14.107,64.67,13.771,65.005L13.771,65.005z M69.624,73.562
		c0.084-0.587,1.006-1.09,1.929-0.838c1.174,0.084,2.516,1.09,2.265,1.845c-0.084,0.755-1.342,1.342-2.6,0.755
		C70.127,74.82,69.373,74.317,69.624,73.562L69.624,73.562z M71.301,79.014c0.755-0.084,2.768-0.251,2.6,0.839
		c-0.083,1.006-0.587,1.258-2.18,1.51c-1.594,0.251-2.6-0.755-2.6-1.258C69.205,79.267,70.463,79.182,71.301,79.014L71.301,79.014z
		 M67.108,67.522c0.922,0,1.761,0.754,1.509,1.341c-0.251,0.588-0.335,1.342-2.012,1.007c-0.587-0.252-1.342-1.091-1.342-1.594
		C65.264,67.271,66.27,67.355,67.108,67.522L67.108,67.522z M58.051,69.619c0.167-0.839,1.761-1.006,2.516-0.671
		c0.839,0.42,1.342,1.51,0.839,2.014c-0.587,0.42-1.174,0.252-2.181,0C58.219,70.71,57.968,70.458,58.051,69.619L58.051,69.619z
		 M56.961,73.479c1.258,0,2.768,0.922,2.096,1.593c-0.503,0.503-1.006,0.839-2.348,0.839s-1.845-0.503-1.845-1.258
		C54.864,73.981,55.703,73.311,56.961,73.479L56.961,73.479z M54.78,79.014c1.426-0.251,2.432,0.587,2.349,1.343
		c0,0.755-1.258,1.426-2.097,1.426c-1.006,0-2.432-0.252-2.6-1.426C52.265,79.351,54.026,79.182,54.78,79.014L54.78,79.014z
		 M50.923,85.726c-0.251-0.755,1.509-1.09,2.348-1.258c0.755-0.084,2.348,0.252,2.097,1.007c-0.251,0.587-0.755,1.342-2.097,1.342
		C51.929,86.733,51.174,86.312,50.923,85.726L50.923,85.726z M53.019,90.423c-0.251,1.091-1.257,1.258-2.012,1.342
		c-0.839,0.168-2.181,0-2.181-0.838c0-0.923,1.175-1.594,1.846-1.846C52.014,88.83,53.271,89.584,53.019,90.423L53.019,90.423z
		 M49.33,69.871c0.502,0.084,2.096,0.504,2.18,1.259c0,0.587,0.419,1.426-1.342,1.426c-1.593,0-2.264-0.252-2.6-1.091
		C47.065,70.458,48.826,69.703,49.33,69.871L49.33,69.871z M49.078,75.827c1.677,0.335,1.929,0.335,2.096,1.09
		c0.084,0.755-1.173,1.258-2.6,1.51c-1.51,0.252-2.348-0.419-2.768-1.174C45.556,76.582,47.401,75.575,49.078,75.827L49.078,75.827z
		 M46.227,82.706c0.838-0.083,1.845,0.251,1.845,1.175c-0.167,0.755-0.67,1.09-1.509,1.426c-0.755,0.419-2.432-0.252-2.684-0.839
		S45.304,82.874,46.227,82.706L46.227,82.706z M44.717,89.668c0,0.755-1.509,1.342-2.264,1.51c-0.587,0.084-1.09,0.587-1.593,0.084
		c-0.587-0.503-0.503-1.007-0.084-1.342c0.251-0.336,1.845-1.09,2.181-1.258C43.626,88.41,44.801,89.081,44.717,89.668
		L44.717,89.668z M41.279,71.8c1.342,0,1.929,0.755,2.181,1.426c0.167,0.587,0,0.922-0.336,1.174
		c-0.251,0.252-1.761,0.168-2.6-0.335C39.35,73.479,39.769,71.8,41.279,71.8L41.279,71.8z M34.57,53.261
		c1.845-0.168,2.18,2.349,1.761,4.614c-0.671,2.18-0.923,2.18-1.761,1.929c-0.755-0.252,0-1.511-0.504-2.098
		C33.479,57.204,32.473,53.345,34.57,53.261L34.57,53.261z M33.227,43.866c1.678-0.251,1.091,1.845,0.755,2.433
		c-0.503,0.755,0.084,1.846-1.005,1.761c-1.175-0.167-1.007-1.593-1.175-2.349C31.718,44.872,32.222,43.949,33.227,43.866
		L33.227,43.866z M27.273,51.416c0.336-0.503,0.587-1.761,1.677-1.845c0.754-0.168,0.503,1.929,0.419,2.936
		c0,1.006,0.252,2.264-1.09,1.761C26.854,53.765,26.854,52.003,27.273,51.416L27.273,51.416z M22.074,51.667
		c0.251,0,0.251-0.168,0.251-0.168s1.174-1.929,2.348-1.343c0.503,0.084-0.755,2.517-0.922,2.937
		c-0.251,0.671-1.09,1.174-1.845,0.503C21.152,52.841,21.823,51.667,22.074,51.667L22.074,51.667z M18.552,56.113
		c0.671,0.251,0,2.433-0.252,3.439c-0.083,1.007-0.838,1.51-1.593,1.258c-0.755-0.083-0.336-1.845-0.588-1.845
		C15.952,58.797,16.958,55.862,18.552,56.113L18.552,56.113z M16.119,72.808c0.504,0.167,0.588,1.174,0.588,1.341
		c0,0.42,0.503,0.671,0.755,1.426c0.167,0.587-0.252,1.175-0.839,1.342c-0.671,0-1.257-1.258-1.257-1.258
		C15.366,75.827,14.862,72.724,16.119,72.808L16.119,72.808z M18.217,83.125c-0.504,0.336-1.091,0.587-1.846,0.503
		c-0.755-0.251-1.593-1.509-0.922-2.265c0.67-0.587,1.677-0.084,2.18,0.251C18.133,82.035,18.72,82.706,18.217,83.125L18.217,83.125
		z M18.468,68.948c-1.006-0.168-0.587-2.097-0.755-2.097c0,0,1.007-3.438,2.013-2.852c0.755,0.503,0.336,2.769,0.252,3.859
		C19.81,68.864,19.307,69.2,18.468,68.948L18.468,68.948z M20.312,75.324c-0.335-0.168-0.755-2.349,0.755-2.516
		c0.587,0,1.594,1.174,1.594,1.845c-0.083,0.755,0.168,1.761-1.258,1.677C20.062,76.163,20.564,75.408,20.312,75.324L20.312,75.324z
		 M23.919,86.062c-0.503,0-1.51-0.084-2.096-1.007c-0.503-0.671-0.671-1.845,0-2.18c0.503-0.252,1.844,0.587,2.432,1.761
		C24.925,85.726,24.255,86.062,23.919,86.062L23.919,86.062z M25.68,81.867c-0.671-0.084-1.425-0.336-2.013-1.09
		c-0.587-0.671-0.587-2.097,0.336-2.265c1.425-0.252,2.263,1.007,2.767,2.098C27.106,81.783,26.1,81.867,25.68,81.867L25.68,81.867z
		 M27.021,75.911c-0.671,0-1.006-0.252-1.341-0.755c-0.503-0.336-0.671-1.845,0.67-1.845c0.671,0,1.678,0.503,1.762,1.258
		C28.28,75.408,27.609,75.827,27.021,75.911L27.021,75.911z M28.28,58.965c0.922,0,2.6,1.007,2.096,3.943
		c-0.671,2.852-1.006,1.846-1.593,2.013c-0.503,0.252-0.167-1.594-0.503-2.013C27.609,62.153,26.016,58.965,28.28,58.965
		L28.28,58.965z M29.957,86.564c-0.587-0.252-1.341-0.587-1.426-1.51c-0.251-0.839,0.671-1.09,1.426-0.922
		c0.923,0.083,1.594,0.838,1.594,1.426C31.551,86.312,30.46,86.733,29.957,86.564L29.957,86.564z M31.551,80.776
		c-0.42,0.083-0.671,0.335-1.594,0.083c-0.839-0.335-2.6-2.181-1.006-3.188c0.503-0.419,2.432,0.084,2.851,1.51
		C32.473,80.357,32.053,80.525,31.551,80.776L31.551,80.776z M31.718,75.072c-0.252-0.252,0.251-1.593,1.593-1.258
		c1.259,0.251,1.594,1.09,1.51,1.845c-0.251,0.755-1.091,0.755-1.762,0.671C32.473,76.163,32.053,75.324,31.718,75.072
		L31.718,75.072z M36.75,89.668c-0.419,0.252-1.342,0.503-2.6,0.336c-1.091-0.084-1.342-0.42-0.923-1.09
		c0.503-0.588,0.839-0.755,1.846-1.091c1.006-0.419,2.181,0.084,2.433,0.503C37.756,88.662,37.253,89.584,36.75,89.668L36.75,89.668
		z M38.427,84.215c-0.671,0.42-2.096,0-2.516-1.006c-0.335-1.09,0.252-1.343,0.755-1.595c0.587-0.084,2.013,0.588,2.265,1.51
		C39.015,83.712,39.015,83.88,38.427,84.215L38.427,84.215z M39.769,79.351c-0.587,0-2.768-0.336-2.348-1.426
		c0.251-1.174,1.51-1.174,2.181-1.007c0.419,0,2.18,0.587,1.761,1.594C41.111,79.602,40.356,79.267,39.769,79.351L39.769,79.351z
		 M59.057,99.146c0,0.588-0.335,1.008-0.838,1.008c-0.587,0-2.264-0.42-3.103,0.252c-0.839,0.586-1.342,1.678-1.258,2.434
		c0.168,0.586,0.168,1.508-0.251,1.76c-0.335,0.336-1.929-0.252-2.6-0.168c-0.587,0-2.684,0.504-3.187,1.594
		c-0.587,1.008-0.167,1.762-0.503,2.014c-0.335,0.42-0.839,0.588-1.342,0.588c-0.503,0.168-2.768-0.168-3.103,0.168
		c-0.503,0.334-1.761,1.846-2.097,1.342c-0.419-0.504-1.006-0.252,0.084-2.098c0.503-0.838,1.845-1.76,2.013-1.76
		c0.084,0,1.761,0.166,2.097-0.084c0.335-0.338,1.342-2.35,1.762-2.77c1.677-1.342,1.593-0.84,2.096-1.092
		c0.504-0.084,2.181,0.252,2.348-0.084c0.252-0.502,1.258-2.348,2.097-3.104c1.09-1.006,2.852-1.174,3.103-1.342
		c0.083-0.25,0.503-0.922,0.755-1.426c0.335-0.503,1.845-1.761,2.852-1.509c0.503,0.167-1.258,2.517-1.258,3.019
		C58.554,98.393,59.057,98.477,59.057,99.146L59.057,99.146z M60.315,92.017c-1.258,0.252-2.6,0.168-2.684-0.502
		c-0.168-0.504,0.252-1.26,1.09-1.594c0.755-0.336,1.509-0.084,2.096-0.084c0.503,0,1.762,0,1.594,0.419
		C62.328,90.675,61.573,91.765,60.315,92.017L60.315,92.017z M62.077,86.312c-1.426,0.168-2.767-0.251-2.6-0.838
		c0.251-0.671,1.09-1.259,2.348-1.259c1.258-0.083,2.097,0.252,2.097,0.839C63.922,85.558,63.418,86.229,62.077,86.312
		L62.077,86.312z M64.928,79.519c-0.251,1.006-0.755,1.258-1.677,1.341c-0.923,0-2.768-0.251-2.768-1.678
		c0-0.671,1.929-1.007,2.348-1.007C63.251,78.008,65.012,78.511,64.928,79.519L64.928,79.519z M66.27,74.149
		c-0.167,0.755-1.258,1.426-2.097,1.175c-0.922-0.252-2.096-0.42-2.012-1.258c0-0.504,0.754-1.258,2.096-1.091
		C65.683,72.975,66.354,73.562,66.27,74.149L66.27,74.149z M70.714,90.423c-0.335,0.336-0.755,1.258-1.761,1.51
		c-0.922,0.083-2.097,0.503-2.6-0.671c-0.251-0.587,0.168-1.09,0.922-1.594c0.587-0.335,2.6-0.335,2.6-0.335
		s0.251-0.671,0.754-0.252C71.133,89.417,71.133,90.004,70.714,90.423L70.714,90.423z M73.062,85.978
		c-0.839,0-2.852,0.084-2.936-0.923c-0.251-0.419,1.091-0.922,1.929-1.174c1.006-0.252,1.677-0.252,2.013-0.168
		c0.335,0.168,1.258,0.503,1.258,0.923C75.327,85.054,73.818,85.81,73.062,85.978L73.062,85.978z M74.153,69.2
		c-0.335-0.839-0.419-1.595-0.084-1.929c0.587-0.42,2.6,0.334,2.935,1.258c0.504,0.839,0.504,1.846-0.335,2.098
		C75.83,70.71,74.404,69.955,74.153,69.2L74.153,69.2z M77.171,74.065c-0.168-0.755,1.342-1.342,2.349-1.258
		c0.838,0.167,2.349,1.006,2.096,1.845c-0.334,0.922-0.502,1.174-1.258,1.174C79.603,75.827,77.255,75.324,77.171,74.065
		L77.171,74.065z M77.926,80.021c-0.168-0.671,1.343-1.007,1.929-1.007c0.503,0,2.769,0.336,2.098,1.259
		c-0.42,0.839-1.343,1.258-2.098,1.258C79.269,81.531,78.178,80.609,77.926,80.021L77.926,80.021z M82.455,87.068
		c-0.839,0.587-1.426,0.587-2.432,0.587c-0.922,0-1.091-0.587-1.091-1.342c0-0.587,0.923-1.006,1.343-1.09
		c0.503-0.168,1.09,0,1.594-0.168c0.335-0.084,0.335-0.084,0.838-0.251c0.42-0.084,0.671-0.168,0.755,0.503
		C83.63,85.978,83.377,86.564,82.455,87.068L82.455,87.068z M84.132,70.123c-0.42,0.251-0.42,0.503-1.258,0.335
		c-1.006-0.083-1.51-1.594-1.761-1.678c-0.336-0.167-1.091-1.006-0.756-1.425c0.42-0.336,2.266-0.336,3.104,0.419
		C84.468,68.613,84.468,69.871,84.132,70.123L84.132,70.123z M85.977,73.562c0.252-0.251,0.839-0.587,1.594-0.587
		c0.754,0,1.761,0.504,2.097,1.007c0.252,0.587,0.252,1.09-0.252,1.594c-0.336,0.335-2.6-0.251-2.936-0.671
		C85.977,74.4,85.81,73.981,85.977,73.562L85.977,73.562z M86.564,81.112c-0.25,0.252-0.335-0.587,0-1.006
		c0.504-0.336,1.594-0.923,2.265-0.923c0.587,0,1.593,0.168,1.427,0.671c-0.085,0.503-0.253,1.761-1.594,1.761
		C87.319,81.783,86.816,81.028,86.564,81.112L86.564,81.112z M89.164,87.319c-1.09,0.084-1.845-0.083-2.012-1.007
		c-0.084-0.838,0.755-1.09,0.922-1.09c0.084,0,1.006-0.168,1.258-0.252c0.588,0,1.593-0.755,2.097,0
		C91.679,85.475,90.255,87.068,89.164,87.319L89.164,87.319z M92.77,70.375c-0.168,0.335-0.503,1.342-1.762,1.007
		c-1.257-0.42-1.845-1.007-2.18-1.511c-0.251-0.503-1.175-1.258-0.419-2.013c0.419-0.335,2.348,0.419,3.27,1.09
		C92.435,69.703,92.854,69.871,92.77,70.375L92.77,70.375z M93.609,73.981c0.252-0.503,1.258-0.755,2.014-0.755
		c0.754,0.084,1.76,0.335,1.926,1.174c0.169,0.755,0,1.007-0.25,1.427c-0.419,0.335-1.929-0.168-2.516-0.419
		C94.112,75.156,93.357,74.317,93.609,73.981L93.609,73.981z M93.777,79.77c0-0.587,0.839-0.503,1.258-0.587
		c0.168-0.168,0.419-0.419,1.09-0.503c0.503-0.168,1.593-0.168,1.593,0.335c0.169,0.336,0,1.091-1.341,1.511
		C94.867,81.028,93.861,80.357,93.777,79.77L93.777,79.77z M98.64,85.306c0,0-1.091,1.006-1.341,1.427
		c-0.419,0.251-1.09,0.922-2.096,0.083c-0.587-0.587,0-1.594,0.42-1.846c0.335-0.335,2.85-1.845,3.353-1.09
		C99.395,84.635,98.64,85.306,98.64,85.306L98.64,85.306z M100.149,70.458c-0.503,0.755-1.259,0.671-2.179,0.503
		c-0.841-0.084-2.348-1.091-2.265-2.098c0.168-0.838,1.677-0.587,2.515-0.251C99.145,68.948,100.737,69.703,100.149,70.458
		L100.149,70.458z M110.128,82.035c-0.502,0-1.76-1.259,0.252-1.51c0.757-0.168,0.841,0.335,0.841,1.09
		C111.221,82.203,110.549,82.035,110.128,82.035L110.128,82.035z M111.221,76.163c-0.841-0.252-1.176-0.587-0.672-1.259
		c0.588-0.503,0.838-0.335,1.592-0.084c0.588,0.252,0.756,0.755,0.588,1.259C112.645,76.667,112.141,76.414,111.221,76.163
		L111.221,76.163z M115.999,94.283c-1.174-0.252-2.263-1.678-2.851-2.518c-0.504-1.006-0.671-2.851-0.252-3.69
		c0.336-1.007,0.84-1.091,1.343-0.755c0.586,0.335,0.252,2.853,0.586,2.936c0.419,0.252,0.67,2.015,1.762,2.266
		c0.334,0,0.755,0.839,0.755,0.839S116.921,94.534,115.999,94.283L115.999,94.283z"/>
	<path fill-rule="evenodd" clip-rule="evenodd" fill="#00A651" d="M186.529,98.141c-0.505-0.336-2.182,1.258-2.852,1.006
		c-0.756-0.252-1.342-1.258-1.929-1.51c-0.755-0.25-1.175,0.168-1.929,0c-0.588-0.082-0.168-1.006-0.671-1.258
		c-0.673-0.251-1.008,0.418-1.762,0.168c-0.588-0.168-1.007-1.258-1.511-1.51c-0.586-0.167-0.754,0.587-1.424,0.336
		c-0.924-0.336-1.175-1.007-1.762-1.258c-0.504-0.336-1.594,0.671-2.348,0.251c-0.756-0.335-0.756-2.935-1.26-3.188
		c-0.586-0.251-2.431,1.845-3.186,1.342c-0.672-0.335-0.42-2.266-1.007-2.6c-0.503-0.336-2.767,1.594-3.354,1.342
		c-0.502-0.252-0.587-1.258-1.342-1.342c-0.671-0.084-1.845,0.839-2.601,0.587c-1.509-0.587-3.354-0.335-5.619-5.704
		c-0.251-0.671-0.753-1.091-1.256-0.839c-1.343,0.503-0.84,1.006,1.005,4.698c2.517,4.866,5.704,3.858,17.612,7.969
		c7.044,2.516,11.404,3.271,11.992,4.195c0.504,0.922,1.007,2.18-1.007,2.348c-3.186,0.252-3.941-1.426-4.529-1.678
		c-0.754-0.252-1.258,0.588-2.766,0.336c-1.678-0.252-1.091-1.006-1.678-1.258c-0.755-0.084-2.266,0-3.271-0.168
		c-1.007-0.252-1.09-1.512-1.595-1.26c-0.586,0.252-1.089,1.26-2.851,0.756c-1.593-0.672-1.593-2.014-2.264-2.098
		c-0.42-0.168-2.684,1.09-3.69,0.84c-2.181-0.672-1.929-2.517-2.602-2.685c-0.754-0.084-1.004,1.929-5.701,1.595
		c-4.695-0.504-6.709-0.168-9.645-1.679c-3.941-2.097-8.555-1.845-7.213-3.69c1.511-1.931,3.859-0.923,5.367-0.168
		c1.512,0.587,3.188,1.762,4.361,1.09c0.42-0.335-0.504-1.677-0.923-3.523c-0.586-3.271,2.267-4.278,2.014-4.781
		c-0.419-0.588-2.014-1.426-5.869-0.839c-2.602,0.419-7.633,4.361-8.892,4.95c-1.258,0.754-6.456,3.522-9.308-0.588
		c-2.851-4.193-0.252-8.472,0.922-9.814c1.09-1.342,2.937-2.349,3.606-1.342c0.924,1.594-1.258,2.013-2.181,3.104
		c-0.84,1.091-2.179,4.781-0.672,6.46c1.595,1.677,4.529,1.845,7.884-0.671c2.767-2.097,7.297-5.034,11.74-4.698
		c4.528,0.251,6.878,2.348,7.55,2.517c0.671,0.084,1.257-1.426,2.179-1.761c0.671-0.252,1.593,0.586,2.181,0.335
		c0.503-0.335,1.091-1.678,1.762-1.929c0.755-0.252,2.601,1.006,3.188,0.587c0.503-0.252,0.418-1.845,1.258-1.93
		c0.838-0.168,2.264,1.343,2.851,1.091c0.755-0.419,0.755-1.259,1.509-1.259c0.588,0,1.93,2.014,2.601,1.846
		c0.503-0.083,0.336-2.097,1.091-2.349c0.754-0.252,2.684,1.342,3.354,1.09c0.503-0.251,0.587-2.685,1.509-3.188
		c0.839-0.335,1.678,1.007,2.182,0.755c0.671-0.252,1.089-3.02,1.845-3.104c0.67-0.084,2.012,0.754,2.599,0.587
		c0.503-0.084,0.251-2.601,1.258-3.105c1.008-0.334,2.266,1.26,2.6,1.176c0.504-0.168,0.755-1.51,1.259-1.594
		c0.587-0.168,2.096,1.09,2.852,0.923c0.586-0.252,0.336-2.097,1.006-2.182c0.504-0.167,2.601,0.252,2.432-2.097
		c-0.084-2.35-3.102-4.614-5.953-4.614c-5.201,0-10.399,2.264-14.845,3.103c-4.444,0.755-13.585,3.44-15.851,3.86
		c-2.263,0.335-4.445-0.923-2.432-2.518c1.595-1.51,2.432-0.334,2.432-0.838c0-0.504-1.007-1.007-2.432-1.259
		c-1.51-0.251-3.271,1.259-5.199,1.007c-1.929-0.252-3.857-1.761-5.953-1.342c-5.116,0.587-5.871,2.853-8.47,3.774
		c-2.602,1.007-4.53,0.252-5.956,0.42c-3.521,0.503-4.78,2.601-7.379,2.349c-3.103-0.252-4.613-2.013-7.968-2.937
		c-3.187-1.006-9.308-1.929-10.735-2.432c-1.508-0.587-8.133-2.182-9.727-2.349c-1.761-0.252-2.6,0.251-3.354,0.251
		c-0.84,0-1.93-0.503-3.104-0.587c-1.091-0.168-2.852-0.251-3.605,0c-0.672,0.336-0.923,0.336-1.846,0.084
		c-0.754-0.084-3.522-0.587-4.696-0.419c-1.678,0.084-2.349,1.175-3.606,1.343c-1.174,0.084-2.348-0.504-3.689-0.252
		c-1.342,0.252-2.432,0.755-3.606,1.09c-1.09,0.419-3.103,0.167-4.025,0.251c-2.516,0.587-2.852,1.845-3.774,1.845
		c-0.839,0-3.857-0.503-4.78,0c-1.007,0.42-1.845,1.174-2.6,1.258c-0.922,0.084-4.277,0.588-6.374,0.336
		c-1.174-0.084-3.187,0.923-4.025,1.174c-1.006,0.252-3.355,0.252-4.026-0.923c-0.671-1.426,1.174-3.523,4.278-6.04
		c2.096-1.594,13.921-9.899,33.125-13.003c15.012-2.517,32.538-8.809,36.229-12.667c1.594-1.594,8.052-7.047,9.644-10.403
		c1.593-3.355,2.096-5.285,1.259-5.201c-0.838,0.252-1.845,2.013-3.438,2.6c-1.511,0.503-2.852-0.335-4.025,0.168
		c-1.091,0.335-2.348,2.097-3.521,2.181c-1.258,0.167-1.762-0.923-2.686-0.504c-0.922,0.671-2.431,1.762-3.438,2.013
		c-2.095,0.336-2.179-2.096-4.108-1.09c-2.013,1.006-3.438,2.684-5.45,3.103c-1.846,0.252-1.595-1.174-2.852-1.174
		c-2.014,0-3.941,2.768-4.864,2.768c-0.922,0-1.678-1.51-2.851-1.342c-1.091,0.084-4.529,2.685-5.871,3.104
		c-1.426,0.252-1.677-1.93-2.852-1.762c-1.425,0.084-4.025,2.601-5.451,2.937c-1.509,0.251-2.348-0.755-3.354-0.755
		c-1.006,0-4.109,2.601-5.619,3.02c-2.18,0.503-2.348-2.264-4.696-2.097c-1.677,0.084-3.438,2.35-4.779,2.434
		c-1.427,0.167-2.014-0.923-3.607-0.587c-1.761,0.503-5.199,2.852-6.374,3.104c-1.09,0.251-1.929-0.419-3.271,0
		c-2.516,0.755-4.863,4.11-6.458,4.95c-1.76,1.006-3.018,0.502-3.941,1.09c-1.677,1.174-1.928,3.523-3.522,4.195
		c-1.425,0.755-1.341-0.336-2.684,0.503c-2.263,1.677-1.425,3.524-2.096,4.363c-0.671,0.838-2.517,1.509-3.606,2.852
		c-1.091,1.258-1.091,2.013-1.51,2.852c-0.503,0.839-2.432,3.356-2.851,4.446C6.56,66.6,7.062,67.774,6.56,68.613
		c-0.336,0.755-1.09,2.014-1.51,2.935c-0.671,2.182,0.252,4.363,0.168,5.202c-0.168,0.754-1.007,2.013-1.007,3.02
		c0,1.007,1.007,2.936,0.755,4.446c-0.251,1.51-3.355,11.493-1.593,16.023c1.929,4.697,4.78,7.215,5.786,6.795
		c1.09-0.336,0.419-2.35,1.51-4.193c1.09-1.764,2.348-3.945,3.354-2.434c0.839,1.426-2.012,1.426-2.265,5.535
		c-0.335,3.943,0.168,2.266,0,3.439c-0.084,1.26-2.6,3.609-2.6,4.699c0,1.174,0.252,4.111,3.941,7.213
		c2.265,2.014,2.768,3.355,3.354,3.439c0.503,0.17,1.007-2.348,2.097-2.852c1.51-0.672,4.781,2.266,5.367,2.182
		c0.755-0.252,1.006-4.279,2.348-5.033c1.343-0.588,4.613,2.012,5.285,1.678c0.67-0.504-0.085-3.021,0.25-4.027
		c0.42-0.922,2.264-1.174,1.677-2.852c-0.502-1.678-0.755-4.949-6.708-5.369c-1.762-0.168-4.193-0.42-2.6-2.264
		c1.845-1.848,3.857-8.641-0.504-13.926c-1.844-2.265-6.038-1.007-7.212-0.504c-2.096,0.755-4.193,3.524-5.031,2.769
		c-0.755-0.755,1.677-3.858,5.45-4.95c3.69-1.174,8.387-0.922,10.232,3.692c3.27,8.052,0,11.828,0.419,12.666
		c0.503,0.84,2.347-0.084,4.948,1.512c3.69,2.432,3.187,4.529,4.109,5.285c0.838,0.67,5.283,1.006,9.393,1.258
		c4.193,0.252,8.805,1.342,10.734,0.252c3.103-1.594,3.354-7.551,10.566-11.914c3.606-2.18,8.386-4.361,13.753-3.439
		c5.955,0.84,6.039,1.68,5.535,2.434c-0.084,0.42-0.25,1.006-0.335,0.922c-2.852-1.508-6.96-1.676-9.477-1.174
		c-3.69,0.672-9.98,1.68-14.592,9.732c-4.529,8.053,2.767,8.137,3.522,8.389c0.839,0.336,2.181,0.754,2.097,3.104
		c-0.168,2.348,0.587,3.691,1.426,5.201c1.006,1.342,2.6,2.432,2.6,2.432s1.174-2.684,2.516-3.271
		c1.342-0.754,2.935,0.588,3.69,1.426c2.348,3.021,1.343-2.6,3.019-3.186c2.433-0.756,3.354,2.852,4.697,2.18
		c2.432-1.09,1.09-2.768,2.852-3.439c1.844-0.504,2.935,1.006,3.689,0.504c0.838-0.588,0.755-5.789-0.839-7.885
		c-1.761-2.182-4.36-5.873-9.896-5.873c-5.451,0-7.212-0.756-6.961-1.846c0.252-1.09,1.342-1.846,2.684-1.342
		c2.098,0.754,2.348,0.586,5.702,0.754c4.864,0.084,3.774,2.182,7.8,3.943c3.02,1.258,6.96-0.84,11.825,0
		c4.946,0.84,9.056,1.762,13.584,1.51c8.557-0.252,18.032-4.027,19.876-4.279c1.931-0.334,2.936-0.084,2.936-0.67
		c0-0.504-8.301-1.762-7.8-3.775c0.671-1.928,4.613-0.336,10.063,0.924c5.452,1.174,17.109,2.18,21.638,1.93
		c4.865-0.084,13.167,2.096,19.959,0.502c3.439-0.838,6.709-2.936,7.045-5.283C190.303,100.406,187.199,98.645,186.529,98.141
		L186.529,98.141z M139.732,69.368c1.342-0.252,3.69,0.335,3.104,1.846c-0.505,1.51-0.755,1.258-1.846,1.51
		c-1.092,0.251-3.354,0.503-3.942-0.504C136.545,71.213,138.223,69.703,139.732,69.368L139.732,69.368z M105.602,30.695
		c0.838,0.42,0.923,1.595,0.838,2.35c-0.252,0.671-0.671,1.342-1.09,1.342c-0.672,0-0.672-0.923-0.922-1.846
		C104.174,31.786,104.678,30.192,105.602,30.695L105.602,30.695z M97.887,33.044c1.76,0.419,1.089,2.013,0.753,3.858
		c-0.252,1.258-1.341,1.594-1.51,1.846c-0.586,1.091-0.753-3.691-0.753-3.691S96.88,32.792,97.887,33.044L97.887,33.044z
		 M89.332,34.386c0.671-0.084,1.846,2.517,1.174,4.782c-0.754,2.181-1.677,2.181-1.677,2.181s-0.251-2.433-0.504-2.685
		C88.074,38.245,87.571,34.806,89.332,34.386L89.332,34.386z M81.616,35.645c1.595-0.587,2.015,3.019,1.259,4.865
		c-0.671,1.93-0.671,3.104-1.846,2.349c-1.426-0.671-0.251-3.02-0.671-3.691C79.855,37.993,80.275,36.316,81.616,35.645
		L81.616,35.645z M73.062,37.658c2.013-0.252,1.761,2.935,1.258,4.698c-0.587,1.593-1.006,2.348-1.844,2.097
		c-0.923-0.336,0.251-2.434-0.252-3.355C71.553,40.259,71.972,37.742,73.062,37.658L73.062,37.658z M64.257,39.252
		c1.174,0.251,2.013,2.013,1.426,4.446c-0.503,2.517-1.258,3.104-1.929,3.104s0.251-3.943-0.336-3.943
		C62.915,42.859,62.832,39,64.257,39.252L64.257,39.252z M55.619,42.188c0.755,0,2.432,1.426,1.593,4.026
		c-0.838,2.685-0.838,2.434-1.593,2.685c-0.839,0.168-0.251-1.595-0.755-2.601C54.277,45.459,53.522,42.104,55.619,42.188
		L55.619,42.188z M47.82,44.956c1.51-0.084,2.097,3.104,1.761,4.446c-0.251,1.342-0.755,3.021-1.677,2.768
		c-0.839-0.167,0.167-2.6-0.587-2.6C46.73,49.57,45.556,45.04,47.82,44.956L47.82,44.956z M42.872,54.1
		c-1.006,1.846-0.923,1.846-1.593,1.846c-0.671,0-0.252-2.685-1.006-2.685c-0.671,0-1.258-3.942,0.838-4.11
		C43.375,49.067,43.459,52.757,42.872,54.1L42.872,54.1z M39.518,41.517c0.503,0,1.761,0.839,0.587,2.098
		c-1.09,1.258-1.174,2.097-2.18,1.594C36.918,44.872,37.924,41.601,39.518,41.517L39.518,41.517z M11.004,68.026
		c0.67,0,1.509,1.677,1.426,2.349c-0.168,0.503-0.251,1.342-1.258,1.594c-0.922,0.251-1.258-1.258-1.258-1.51
		C9.83,70.123,9.578,67.858,11.004,68.026L11.004,68.026z M12.011,79.014c-0.503,0-1.091,0-1.51-0.335
		c-0.252-0.42-1.929-2.097-0.671-3.775c0.084-0.251,2.181,1.175,2.6,2.097C12.682,77.672,12.682,79.014,12.011,79.014L12.011,79.014
		z M13.771,65.005c-0.252,0.419-0.922,0.671-1.341,0.419c-0.671-0.419-0.671-1.761-0.419-2.012c0.167-0.084,0.25-2.097,1.592-1.847
		c0.671,0.084-0.084,1.762,0,1.93C13.771,63.747,14.107,64.67,13.771,65.005L13.771,65.005z M69.624,73.562
		c0.084-0.587,1.006-1.09,1.929-0.838c1.174,0.084,2.516,1.09,2.265,1.845c-0.084,0.755-1.342,1.342-2.6,0.755
		C70.127,74.82,69.373,74.317,69.624,73.562L69.624,73.562z M71.301,79.014c0.755-0.084,2.768-0.251,2.6,0.839
		c-0.083,1.006-0.587,1.258-2.18,1.51c-1.594,0.251-2.6-0.755-2.6-1.258C69.205,79.267,70.463,79.182,71.301,79.014L71.301,79.014z
		 M67.108,67.522c0.922,0,1.761,0.754,1.509,1.341c-0.251,0.588-0.335,1.342-2.012,1.007c-0.587-0.252-1.342-1.091-1.342-1.594
		C65.264,67.271,66.27,67.355,67.108,67.522L67.108,67.522z M58.051,69.619c0.167-0.839,1.761-1.006,2.516-0.671
		c0.839,0.42,1.342,1.51,0.839,2.014c-0.587,0.42-1.174,0.252-2.181,0C58.219,70.71,57.968,70.458,58.051,69.619L58.051,69.619z
		 M56.961,73.479c1.258,0,2.768,0.922,2.096,1.593c-0.503,0.503-1.006,0.839-2.348,0.839s-1.845-0.503-1.845-1.258
		C54.864,73.981,55.703,73.311,56.961,73.479L56.961,73.479z M54.78,79.014c1.426-0.251,2.432,0.587,2.349,1.343
		c0,0.755-1.258,1.426-2.097,1.426c-1.006,0-2.432-0.252-2.6-1.426C52.265,79.351,54.026,79.182,54.78,79.014L54.78,79.014z
		 M50.923,85.726c-0.251-0.755,1.509-1.09,2.348-1.258c0.755-0.084,2.348,0.252,2.097,1.007c-0.251,0.587-0.755,1.342-2.097,1.342
		C51.929,86.733,51.174,86.312,50.923,85.726L50.923,85.726z M53.019,90.423c-0.251,1.091-1.257,1.258-2.012,1.342
		c-0.839,0.168-2.181,0-2.181-0.838c0-0.923,1.175-1.594,1.846-1.846C52.014,88.83,53.271,89.584,53.019,90.423L53.019,90.423z
		 M49.33,69.871c0.502,0.084,2.096,0.504,2.18,1.259c0,0.587,0.419,1.426-1.342,1.426c-1.593,0-2.264-0.252-2.6-1.091
		C47.065,70.458,48.826,69.703,49.33,69.871L49.33,69.871z M49.078,75.827c1.677,0.335,1.929,0.335,2.096,1.09
		c0.084,0.755-1.173,1.258-2.6,1.51c-1.51,0.252-2.348-0.419-2.768-1.174C45.556,76.582,47.401,75.575,49.078,75.827L49.078,75.827z
		 M46.227,82.706c0.838-0.083,1.845,0.251,1.845,1.175c-0.167,0.755-0.67,1.09-1.509,1.426c-0.755,0.419-2.432-0.252-2.684-0.839
		S45.304,82.874,46.227,82.706L46.227,82.706z M44.717,89.668c0,0.755-1.509,1.342-2.264,1.51c-0.587,0.084-1.09,0.587-1.593,0.084
		c-0.587-0.503-0.503-1.007-0.084-1.342c0.251-0.336,1.845-1.09,2.181-1.258C43.626,88.41,44.801,89.081,44.717,89.668
		L44.717,89.668z M41.279,71.8c1.342,0,1.929,0.755,2.181,1.426c0.167,0.587,0,0.922-0.336,1.174
		c-0.251,0.252-1.761,0.168-2.6-0.335C39.35,73.479,39.769,71.8,41.279,71.8L41.279,71.8z M34.57,53.261
		c1.845-0.168,2.18,2.349,1.761,4.614c-0.671,2.18-0.923,2.18-1.761,1.929c-0.755-0.252,0-1.511-0.504-2.098
		C33.479,57.204,32.473,53.345,34.57,53.261L34.57,53.261z M33.227,43.866c1.678-0.251,1.091,1.845,0.755,2.433
		c-0.503,0.755,0.084,1.846-1.005,1.761c-1.175-0.167-1.007-1.593-1.175-2.349C31.718,44.872,32.222,43.949,33.227,43.866
		L33.227,43.866z M27.273,51.416c0.336-0.503,0.587-1.761,1.677-1.845c0.754-0.168,0.503,1.929,0.419,2.936
		c0,1.006,0.252,2.264-1.09,1.761C26.854,53.765,26.854,52.003,27.273,51.416L27.273,51.416z M22.074,51.667
		c0.251,0,0.251-0.168,0.251-0.168s1.174-1.929,2.348-1.343c0.503,0.084-0.755,2.517-0.922,2.937
		c-0.251,0.671-1.09,1.174-1.845,0.503C21.152,52.841,21.823,51.667,22.074,51.667L22.074,51.667z M18.552,56.113
		c0.671,0.251,0,2.433-0.252,3.439c-0.083,1.007-0.838,1.51-1.593,1.258c-0.755-0.083-0.336-1.845-0.588-1.845
		C15.952,58.797,16.958,55.862,18.552,56.113L18.552,56.113z M16.119,72.808c0.504,0.167,0.588,1.174,0.588,1.341
		c0,0.42,0.503,0.671,0.755,1.426c0.167,0.587-0.252,1.175-0.839,1.342c-0.671,0-1.257-1.258-1.257-1.258
		C15.366,75.827,14.862,72.724,16.119,72.808L16.119,72.808z M18.217,83.125c-0.504,0.336-1.091,0.587-1.846,0.503
		c-0.755-0.251-1.593-1.509-0.922-2.265c0.67-0.587,1.677-0.084,2.18,0.251C18.133,82.035,18.72,82.706,18.217,83.125L18.217,83.125
		z M18.468,68.948c-1.006-0.168-0.587-2.097-0.755-2.097c0,0,1.007-3.438,2.013-2.852c0.755,0.503,0.336,2.769,0.252,3.859
		C19.81,68.864,19.307,69.2,18.468,68.948L18.468,68.948z M20.312,75.324c-0.335-0.168-0.755-2.349,0.755-2.516
		c0.587,0,1.594,1.174,1.594,1.845c-0.083,0.755,0.168,1.761-1.258,1.677C20.062,76.163,20.564,75.408,20.312,75.324L20.312,75.324z
		 M23.919,86.062c-0.503,0-1.51-0.084-2.096-1.007c-0.503-0.671-0.671-1.845,0-2.18c0.503-0.252,1.844,0.587,2.432,1.761
		C24.925,85.726,24.255,86.062,23.919,86.062L23.919,86.062z M25.68,81.867c-0.671-0.084-1.425-0.336-2.013-1.09
		c-0.587-0.671-0.587-2.097,0.336-2.265c1.425-0.252,2.263,1.007,2.767,2.098C27.106,81.783,26.1,81.867,25.68,81.867L25.68,81.867z
		 M27.021,75.911c-0.671,0-1.006-0.252-1.341-0.755c-0.503-0.336-0.671-1.845,0.67-1.845c0.671,0,1.678,0.503,1.762,1.258
		C28.28,75.408,27.609,75.827,27.021,75.911L27.021,75.911z M28.28,58.965c0.922,0,2.6,1.007,2.096,3.943
		c-0.671,2.852-1.006,1.846-1.593,2.013c-0.503,0.252-0.167-1.594-0.503-2.013C27.609,62.153,26.016,58.965,28.28,58.965
		L28.28,58.965z M29.957,86.564c-0.587-0.252-1.341-0.587-1.426-1.51c-0.251-0.839,0.671-1.09,1.426-0.922
		c0.923,0.083,1.594,0.838,1.594,1.426C31.551,86.312,30.46,86.733,29.957,86.564L29.957,86.564z M31.551,80.776
		c-0.42,0.083-0.671,0.335-1.594,0.083c-0.839-0.335-2.6-2.181-1.006-3.188c0.503-0.419,2.432,0.084,2.851,1.51
		C32.473,80.357,32.053,80.525,31.551,80.776L31.551,80.776z M31.718,75.072c-0.252-0.252,0.251-1.593,1.593-1.258
		c1.259,0.251,1.594,1.09,1.51,1.845c-0.251,0.755-1.091,0.755-1.762,0.671C32.473,76.163,32.053,75.324,31.718,75.072
		L31.718,75.072z M36.75,89.668c-0.419,0.252-1.342,0.503-2.6,0.336c-1.091-0.084-1.342-0.42-0.923-1.09
		c0.503-0.588,0.839-0.755,1.846-1.091c1.006-0.419,2.181,0.084,2.433,0.503C37.756,88.662,37.253,89.584,36.75,89.668L36.75,89.668
		z M38.427,84.215c-0.671,0.42-2.096,0-2.516-1.006c-0.335-1.09,0.252-1.343,0.755-1.595c0.587-0.084,2.013,0.588,2.265,1.51
		C39.015,83.712,39.015,83.88,38.427,84.215L38.427,84.215z M39.769,79.351c-0.587,0-2.768-0.336-2.348-1.426
		c0.251-1.174,1.51-1.174,2.181-1.007c0.419,0,2.18,0.587,1.761,1.594C41.111,79.602,40.356,79.267,39.769,79.351L39.769,79.351z
		 M59.057,99.146c0,0.588-0.335,1.008-0.838,1.008c-0.587,0-2.264-0.42-3.103,0.252c-0.839,0.586-1.342,1.678-1.258,2.434
		c0.168,0.586,0.168,1.508-0.251,1.76c-0.335,0.336-1.929-0.252-2.6-0.168c-0.587,0-2.684,0.504-3.187,1.594
		c-0.587,1.008-0.167,1.762-0.503,2.014c-0.335,0.42-0.839,0.588-1.342,0.588c-0.503,0.168-2.768-0.168-3.103,0.168
		c-0.503,0.334-1.761,1.846-2.097,1.342c-0.419-0.504-1.006-0.252,0.084-2.098c0.503-0.838,1.845-1.76,2.013-1.76
		c0.084,0,1.761,0.166,2.097-0.084c0.335-0.338,1.342-2.35,1.762-2.77c1.677-1.342,1.593-0.84,2.096-1.092
		c0.504-0.084,2.181,0.252,2.348-0.084c0.252-0.502,1.258-2.348,2.097-3.104c1.09-1.006,2.852-1.174,3.103-1.342
		c0.083-0.25,0.503-0.922,0.755-1.426c0.335-0.503,1.845-1.761,2.852-1.509c0.503,0.167-1.258,2.517-1.258,3.019
		C58.554,98.393,59.057,98.477,59.057,99.146L59.057,99.146z M60.315,92.017c-1.258,0.252-2.6,0.168-2.684-0.502
		c-0.168-0.504,0.252-1.26,1.09-1.594c0.755-0.336,1.509-0.084,2.096-0.084c0.503,0,1.762,0,1.594,0.419
		C62.328,90.675,61.573,91.765,60.315,92.017L60.315,92.017z M62.077,86.312c-1.426,0.168-2.767-0.251-2.6-0.838
		c0.251-0.671,1.09-1.259,2.348-1.259c1.258-0.083,2.097,0.252,2.097,0.839C63.922,85.558,63.418,86.229,62.077,86.312
		L62.077,86.312z M64.928,79.519c-0.251,1.006-0.755,1.258-1.677,1.341c-0.923,0-2.768-0.251-2.768-1.678
		c0-0.671,1.929-1.007,2.348-1.007C63.251,78.008,65.012,78.511,64.928,79.519L64.928,79.519z M66.27,74.149
		c-0.167,0.755-1.258,1.426-2.097,1.175c-0.922-0.252-2.096-0.42-2.012-1.258c0-0.504,0.754-1.258,2.096-1.091
		C65.683,72.975,66.354,73.562,66.27,74.149L66.27,74.149z M70.714,90.423c-0.335,0.336-0.755,1.258-1.761,1.51
		c-0.922,0.083-2.097,0.503-2.6-0.671c-0.251-0.587,0.168-1.09,0.922-1.594c0.587-0.335,2.6-0.335,2.6-0.335
		s0.251-0.671,0.754-0.252C71.133,89.417,71.133,90.004,70.714,90.423L70.714,90.423z M73.062,85.978
		c-0.839,0-2.852,0.084-2.936-0.923c-0.251-0.419,1.091-0.922,1.929-1.174c1.006-0.252,1.677-0.252,2.013-0.168
		c0.335,0.168,1.258,0.503,1.258,0.923C75.327,85.054,73.818,85.81,73.062,85.978L73.062,85.978z M74.153,69.2
		c-0.335-0.839-0.419-1.595-0.084-1.929c0.587-0.42,2.6,0.334,2.935,1.258c0.504,0.839,0.504,1.846-0.335,2.098
		C75.83,70.71,74.404,69.955,74.153,69.2L74.153,69.2z M77.171,74.065c-0.168-0.755,1.342-1.342,2.349-1.258
		c0.838,0.167,2.349,1.006,2.096,1.845c-0.334,0.922-0.502,1.174-1.258,1.174C79.603,75.827,77.255,75.324,77.171,74.065
		L77.171,74.065z M77.926,80.021c-0.168-0.671,1.343-1.007,1.929-1.007c0.503,0,2.769,0.336,2.098,1.259
		c-0.42,0.839-1.343,1.258-2.098,1.258C79.269,81.531,78.178,80.609,77.926,80.021L77.926,80.021z M82.455,87.068
		c-0.839,0.587-1.426,0.587-2.432,0.587c-0.922,0-1.091-0.587-1.091-1.342c0-0.587,0.923-1.006,1.343-1.09
		c0.503-0.168,1.09,0,1.594-0.168c0.335-0.084,0.335-0.084,0.838-0.251c0.42-0.084,0.671-0.168,0.755,0.503
		C83.63,85.978,83.377,86.564,82.455,87.068L82.455,87.068z M84.132,70.123c-0.42,0.251-0.42,0.503-1.258,0.335
		c-1.006-0.083-1.51-1.594-1.761-1.678c-0.336-0.167-1.091-1.006-0.756-1.425c0.42-0.336,2.266-0.336,3.104,0.419
		C84.468,68.613,84.468,69.871,84.132,70.123L84.132,70.123z M85.977,73.562c0.252-0.251,0.839-0.587,1.594-0.587
		c0.754,0,1.761,0.504,2.097,1.007c0.252,0.587,0.252,1.09-0.252,1.594c-0.336,0.335-2.6-0.251-2.936-0.671
		C85.977,74.4,85.81,73.981,85.977,73.562L85.977,73.562z M86.564,81.112c-0.25,0.252-0.335-0.587,0-1.006
		c0.504-0.336,1.594-0.923,2.265-0.923c0.587,0,1.593,0.168,1.427,0.671c-0.085,0.503-0.253,1.761-1.594,1.761
		C87.319,81.783,86.816,81.028,86.564,81.112L86.564,81.112z M89.164,87.319c-1.09,0.084-1.845-0.083-2.012-1.007
		c-0.084-0.838,0.755-1.09,0.922-1.09c0.084,0,1.006-0.168,1.258-0.252c0.588,0,1.593-0.755,2.097,0
		C91.679,85.475,90.255,87.068,89.164,87.319L89.164,87.319z M92.77,70.375c-0.168,0.335-0.503,1.342-1.762,1.007
		c-1.257-0.42-1.845-1.007-2.18-1.511c-0.251-0.503-1.175-1.258-0.419-2.013c0.419-0.335,2.348,0.419,3.27,1.09
		C92.435,69.703,92.854,69.871,92.77,70.375L92.77,70.375z M93.609,73.981c0.252-0.503,1.258-0.755,2.014-0.755
		c0.754,0.084,1.76,0.335,1.926,1.174c0.169,0.755,0,1.007-0.25,1.427c-0.419,0.335-1.929-0.168-2.516-0.419
		C94.112,75.156,93.357,74.317,93.609,73.981L93.609,73.981z M93.777,79.77c0-0.587,0.839-0.503,1.258-0.587
		c0.168-0.168,0.419-0.419,1.09-0.503c0.503-0.168,1.593-0.168,1.593,0.335c0.169,0.336,0,1.091-1.341,1.511
		C94.867,81.028,93.861,80.357,93.777,79.77L93.777,79.77z M98.64,85.306c0,0-1.091,1.006-1.341,1.427
		c-0.419,0.251-1.09,0.922-2.096,0.083c-0.587-0.587,0-1.594,0.42-1.846c0.335-0.335,2.85-1.845,3.353-1.09
		C99.395,84.635,98.64,85.306,98.64,85.306L98.64,85.306z M100.149,70.458c-0.503,0.755-1.259,0.671-2.179,0.503
		c-0.841-0.084-2.348-1.091-2.265-2.098c0.168-0.838,1.677-0.587,2.515-0.251C99.145,68.948,100.737,69.703,100.149,70.458
		L100.149,70.458z M110.128,82.035c-0.502,0-1.76-1.259,0.252-1.51c0.757-0.168,0.841,0.335,0.841,1.09
		C111.221,82.203,110.549,82.035,110.128,82.035L110.128,82.035z M111.221,76.163c-0.841-0.252-1.176-0.587-0.672-1.259
		c0.588-0.503,0.838-0.335,1.592-0.084c0.588,0.252,0.756,0.755,0.588,1.259C112.645,76.667,112.141,76.414,111.221,76.163
		L111.221,76.163z M115.999,94.283c-1.174-0.252-2.263-1.678-2.851-2.518c-0.504-1.006-0.671-2.851-0.252-3.69
		c0.336-1.007,0.84-1.091,1.343-0.755c0.586,0.335,0.252,2.853,0.586,2.936c0.419,0.252,0.67,2.015,1.762,2.266
		c0.334,0,0.755,0.839,0.755,0.839S116.921,94.534,115.999,94.283L115.999,94.283z"/>
	<path fill="none" stroke="#FFFFFF" stroke-width="0.216" stroke-miterlimit="2.6131" d="M27.442,169.82h4.041
		c1.121,0,2.061-0.732,2.336-1.82l0.869-3.436c0.137-0.545,0.607-0.91,1.168-0.91h7.571c0.561,0,1.031,0.365,1.168,0.91L45.465,168
		c0.275,1.088,1.215,1.82,2.336,1.82h4.041c1.613,0,2.771-1.557,2.308-3.102l-8.484-28.363c-0.311-1.037-1.224-1.717-2.308-1.717
		h-7.431c-1.084,0-1.998,0.68-2.309,1.717l-8.484,28.363C24.671,168.264,25.829,169.82,27.442,169.82L27.442,169.82z M41.932,156.91
		h-4.58c-0.363,0-0.639-0.355-0.55-0.707l2.586-10.229c0.06-0.234,0.447-0.234,0.506,0l2.587,10.229
		C42.571,156.555,42.294,156.91,41.932,156.91L41.932,156.91z M96.922,170.619c8.729,0,15.807-7.738,15.807-17.281
		s-7.077-17.279-15.807-17.279c-8.731,0-15.808,7.736-15.808,17.279S88.191,170.619,96.922,170.619L96.922,170.619z M96.922,162.914
		c-4.216,0-6.472-4.287-6.472-9.576s2.01-9.576,6.472-9.576c4.461,0,6.473,4.287,6.473,9.576S101.137,162.914,96.922,162.914
		L96.922,162.914z M130.309,160.336c0,1.986-1.56,3.068-3.679,3.068c-2.673,0-4.404-1.598-6.006-3.238
		c-0.847-0.869-2.267-0.84-3.162-0.021l-1.987,1.809c-0.776,0.707-1.358,1.893-0.7,2.707c2.146,2.654,5.346,5.668,13.066,5.668
		c6.854,0,11.134-4.777,11.134-9.926c0-4.201-1.774-6.98-6.792-9.545l-5.196-2.469c-2.209-0.586-3.15-1.385-3.15-2.828
		c0-1.533,1.075-2.471,2.833-2.471c2.071,0,3.817,1.285,5.389,2.547c0.922,0.74,2.279,0.564,3.083-0.305l2.075-2.246
		c0.722-0.781,0.989-2.082,0.226-2.822c-2.503-2.43-6.242-4.254-11.358-4.254c-7.242,0-11.508,4.49-11.508,9.945
		c0,4.602,2.235,6.992,7.092,9.207l5.969,2.553C129.529,158.301,130.309,159.029,130.309,160.336L130.309,160.336z M54.146,153.338
		v0.002c0,9.543,7.078,17.279,15.808,17.279c4.167,0,7.957-1.762,10.78-4.643c0.497-0.506,0.485-1.326,0.006-1.85l-3.175-3.467
		c-0.635-0.691-1.611-0.492-2.288,0.158c-1.545,1.488-2.768,2.098-5.324,2.098c-4.462,0-6.472-4.289-6.472-9.576v-0.002l0,0
		c0-5.289,2.01-9.576,6.472-9.576c2.556,0,3.779,0.609,5.324,2.096c0.677,0.652,1.653,0.852,2.288,0.16l3.175-3.467
		c0.479-0.521,0.491-1.344-0.006-1.852c-2.823-2.879-6.614-4.641-10.78-4.641C61.223,136.059,54.146,143.795,54.146,153.338
		L54.146,153.338L54.146,153.338z M184.479,149.307h-5.888c-0.666,0-1.205-0.541-1.205-1.205v-2.414
		c0-0.666,0.539-1.205,1.205-1.205h8.678c1.331,0,2.41-1.08,2.41-2.41v-3.025c0-1.33-1.079-2.408-2.41-2.408h-16.627
		c-1.33,0-2.408,1.078-2.408,2.408v28.363c0,1.33,1.078,2.41,2.408,2.41h16.627c1.331,0,2.41-1.08,2.41-2.41v-3.025
		c0-1.33-1.079-2.41-2.41-2.41h-8.678c-0.666,0-1.205-0.539-1.205-1.205v-2.414c0-0.664,0.539-1.205,1.205-1.205h3.261h2.627
		c1.332,0,2.41-1.078,2.41-2.41v-3.023C186.889,150.385,185.811,149.307,184.479,149.307L184.479,149.307z M150.616,169.82h4.334
		c1.331,0,2.411-1.08,2.411-2.41v-21.723c0-0.666,0.537-1.205,1.204-1.205h4.867c1.33,0,2.409-1.08,2.409-2.41v-3.025
		c0-1.33-1.079-2.408-2.409-2.408h-21.296c-1.332,0-2.411,1.078-2.411,2.408v3.025c0,1.33,1.079,2.41,2.411,2.41h4.866
		c0.665,0,1.205,0.539,1.205,1.205v21.723C148.208,168.74,149.287,169.82,150.616,169.82L150.616,169.82z M20.966,161.955h-6.473
		c-0.665,0-1.204-0.541-1.204-1.207v-21.701c0-1.33-1.079-2.408-2.41-2.408H6.545c-1.33,0-2.409,1.078-2.409,2.408v28.359
		c0,1.332,1.08,2.412,2.412,2.41l12.515-0.014l1.906-0.002c1.329-0.002,2.406-1.08,2.406-2.41v-3.025
		C23.375,163.033,22.297,161.955,20.966,161.955L20.966,161.955z"/>
	<path fill-rule="evenodd" clip-rule="evenodd" fill="#00A651" d="M96.922,170.619c8.729,0,15.807-7.738,15.807-17.281
		s-7.077-17.279-15.807-17.279c-8.731,0-15.808,7.736-15.808,17.279S88.191,170.619,96.922,170.619L96.922,170.619z M96.922,162.914
		c-4.216,0-6.472-4.287-6.472-9.576s2.01-9.576,6.472-9.576c4.461,0,6.473,4.287,6.473,9.576S101.137,162.914,96.922,162.914
		L96.922,162.914z M27.442,169.82h4.041c1.121,0,2.061-0.732,2.336-1.82l0.869-3.436c0.137-0.545,0.607-0.91,1.168-0.91h7.571
		c0.561,0,1.031,0.365,1.168,0.91L45.465,168c0.275,1.088,1.215,1.82,2.336,1.82h4.041c1.613,0,2.771-1.557,2.308-3.102
		l-8.484-28.363c-0.311-1.037-1.224-1.717-2.308-1.717h-7.431c-1.084,0-1.998,0.68-2.309,1.717l-8.484,28.363
		C24.671,168.264,25.829,169.82,27.442,169.82L27.442,169.82z M41.932,156.91h-4.58c-0.363,0-0.639-0.355-0.55-0.707l2.586-10.229
		c0.06-0.234,0.447-0.234,0.506,0l2.587,10.229C42.571,156.555,42.294,156.91,41.932,156.91L41.932,156.91z M54.146,153.338v0.002
		c0,9.543,7.078,17.279,15.808,17.279c4.167,0,7.957-1.762,10.78-4.643c0.497-0.506,0.485-1.326,0.006-1.85l-3.175-3.467
		c-0.635-0.691-1.611-0.492-2.288,0.158c-1.545,1.488-2.768,2.098-5.324,2.098c-4.462,0-6.472-4.289-6.472-9.576v-0.002l0,0
		c0-5.289,2.01-9.576,6.472-9.576c2.556,0,3.779,0.609,5.324,2.096c0.677,0.652,1.653,0.852,2.288,0.16l3.175-3.467
		c0.479-0.521,0.491-1.344-0.006-1.852c-2.823-2.879-6.614-4.641-10.78-4.641C61.223,136.059,54.146,143.795,54.146,153.338
		L54.146,153.338L54.146,153.338z M130.309,160.336c0,1.986-1.56,3.068-3.679,3.068c-2.673,0-4.404-1.598-6.006-3.238
		c-0.847-0.869-2.267-0.84-3.162-0.021l-1.987,1.809c-0.776,0.707-1.358,1.893-0.7,2.707c2.146,2.654,5.346,5.668,13.066,5.668
		c6.854,0,11.134-4.777,11.134-9.926c0-4.201-1.774-6.98-6.792-9.545l-5.196-2.469c-2.209-0.586-3.15-1.385-3.15-2.828
		c0-1.533,1.075-2.471,2.833-2.471c2.071,0,3.817,1.285,5.389,2.547c0.922,0.74,2.279,0.564,3.083-0.305l2.075-2.246
		c0.722-0.781,0.989-2.082,0.226-2.822c-2.503-2.43-6.242-4.254-11.358-4.254c-7.242,0-11.508,4.49-11.508,9.945
		c0,4.602,2.235,6.992,7.092,9.207l5.969,2.553C129.529,158.301,130.309,159.029,130.309,160.336L130.309,160.336z M184.479,149.307
		h-5.888c-0.666,0-1.205-0.541-1.205-1.205v-2.414c0-0.666,0.539-1.205,1.205-1.205h8.678c1.331,0,2.41-1.08,2.41-2.41v-3.025
		c0-1.33-1.079-2.408-2.41-2.408h-16.627c-1.33,0-2.408,1.078-2.408,2.408v28.363c0,1.33,1.078,2.41,2.408,2.41h16.627
		c1.331,0,2.41-1.08,2.41-2.41v-3.025c0-1.33-1.079-2.41-2.41-2.41h-8.678c-0.666,0-1.205-0.539-1.205-1.205v-2.414
		c0-0.664,0.539-1.205,1.205-1.205h3.261h2.627c1.332,0,2.41-1.078,2.41-2.41v-3.023
		C186.889,150.385,185.811,149.307,184.479,149.307L184.479,149.307z M150.616,169.82h4.334c1.331,0,2.411-1.08,2.411-2.41v-21.723
		c0-0.666,0.537-1.205,1.204-1.205h4.867c1.33,0,2.409-1.08,2.409-2.41v-3.025c0-1.33-1.079-2.408-2.409-2.408h-21.296
		c-1.332,0-2.411,1.078-2.411,2.408v3.025c0,1.33,1.079,2.41,2.411,2.41h4.866c0.665,0,1.205,0.539,1.205,1.205v21.723
		C148.208,168.74,149.287,169.82,150.616,169.82L150.616,169.82z M20.966,161.955h-6.473c-0.665,0-1.204-0.541-1.204-1.207v-21.701
		c0-1.33-1.079-2.408-2.41-2.408H6.545c-1.33,0-2.409,1.078-2.409,2.408v28.359c0,1.332,1.08,2.412,2.412,2.41l12.515-0.014
		l1.906-0.002c1.329-0.002,2.406-1.08,2.406-2.41v-3.025C23.375,163.033,22.297,161.955,20.966,161.955L20.966,161.955z"/>
</g>
</svg>
