<?xml version="1.0" encoding="utf-8"?>
<!-- Generator: Adobe Illustrator 16.0.0, SVG Export Plug-In . SVG Version: 6.00 Build 0)  -->
<!DOCTYPE svg PUBLIC "-//W3C//DTD SVG 1.1//EN" "http://www.w3.org/Graphics/SVG/1.1/DTD/svg11.dtd">
<svg version="1.1" id="Layer_1" xmlns="http://www.w3.org/2000/svg" xmlns:xlink="http://www.w3.org/1999/xlink" x="0px" y="0px"
	 width="187.089px" height="62.415px" viewBox="0 0 187.089 62.415" enable-background="new 0 0 187.089 62.415"
	 xml:space="preserve">
<g>
	<path fill-rule="evenodd" clip-rule="evenodd" fill="#EF3E42" d="M145.261,45.522c1.308,0.086,1.526,0.744,0.312,0.576
		c0,0-58.124-4.051-86.045-10.58C-3.378,20.813,45.925,4.032,89.983,0.726c28.403-2.131,65.744,0.327,67.294,8.734
		c0.731,3.97-12.762,8.365-19.29,8.873c-0.497,0.161-1.009-0.121-0.606-0.27c7.157-2.642,13.564-11.931-8.555-13.832
		c-0.468-0.04-0.386,0.215-0.13,0.291c8.123,1.986,12.874,8.53,1.191,13.237c-0.322,0.123-0.464-0.263-0.378-0.365
		c5.431-23.56-76.349-13.941-88.473,0.049C35.474,23.86,55.995,31.06,59.952,32.486c16.101,5.922,72.223,11.622,71.607,11.508
		C43.339,33.419,41.04,7.911,102.564,3.562c0.402,0.108,0.004,0.338-0.372,0.258C94.451,4.892,60.098,31.964,145.261,45.522
		L145.261,45.522z"/>
	<path fill-rule="evenodd" clip-rule="evenodd" fill="#1D1D1B" d="M121.234,60.708l5.737-11.582
		c0.636-1.232-9.347-1.502-10.157-0.125l-5.799,11.582C110.213,62.19,120.379,62.19,121.234,60.708L121.234,60.708z"/>
	<path fill-rule="evenodd" clip-rule="evenodd" fill="#1D1D1B" d="M0.458,54.116c2.3-3.998,12.625-6.795,23.062-6.248
		c10.437,0.547,17.509,4.23,15.208,8.229c-2.3,4-13.102,6.797-23.539,6.25C4.753,61.799-1.843,58.114,0.458,54.116L0.458,54.116z
		 M12.899,54.54c1.292-2.248,6.661-3.65,12.773-3.328c6.113,0.32,9.544,2.242,8.252,4.488s-6.819,3.648-12.932,3.328
		C14.879,58.708,11.606,56.786,12.899,54.54L12.899,54.54z"/>
	<path fill-rule="evenodd" clip-rule="evenodd" fill="#1D1D1B" d="M63.875,60.868c1.899,1.162,9.024,1.471,9.683-0.107l5.737-11.582
		c0.538-1.365-9.549-1.523-10.28-0.125l-3.698,7.715l-11.694-7.662c-2.043-1.451-9.042-1.451-9.966-0.066L37.92,60.622
		c-0.738,1.488,9.746,1.648,10.598,0.125l3.857-7.557L63.875,60.868L63.875,60.868z"/>
	<path fill-rule="evenodd" clip-rule="evenodd" fill="#1D1D1B" d="M154.069,60.979c0.699-0.082,1.667-2.053,1.014-2.027
		c-5.762,0.227-17.402,0.088-19.873-1.209c-0.195-0.188-0.27-0.529-0.116-0.824l3.969-7.855c0.664-1.203-9.397-1.479-10.056-0.174
		l-5.097,10.359C123.651,61.481,144.245,62.663,154.069,60.979L154.069,60.979z"/>
	<path fill-rule="evenodd" clip-rule="evenodd" fill="#1D1D1B" d="M109.334,60.379c0.496-0.199,1.317-2.16,0.832-2.107
		c-4.801,1.795-22.994,1.891-21.511-0.889c0.401-0.742,1.371-0.811,1.371-0.811l20.991-0.527c0.563-0.002,1.259-1.586,0.784-1.68
		c-0.351-0.014-19.885-0.908-19.885-0.908s-1.354-0.039-1.033-0.779c1.288-2.947,17.468-2.365,22.412-0.912
		c0.368,0.105,1.246-1.426,0.929-1.609c-17.395-5.6-35.185-0.516-36.693,4.082C74.978,62.032,97.888,64.334,109.334,60.379
		L109.334,60.379z"/>
	<path fill-rule="evenodd" clip-rule="evenodd" fill="#1D1D1B" d="M185.86,60.979c0.698-0.082,1.667-2.053,1.013-2.027
		c-5.762,0.227-17.401,0.088-19.873-1.209c-0.195-0.188-0.27-0.529-0.115-0.824l3.969-7.855c0.664-1.203-9.398-1.479-10.056-0.174
		l-5.097,10.359C155.442,61.481,176.035,62.663,185.86,60.979L185.86,60.979z"/>
	<path fill-rule="evenodd" clip-rule="evenodd" fill="#1D1D1B" d="M35.818,49.913c-0.315-0.486,2.779-1.584,2.92-2.838
		c0-0.16,0.126-0.277,0.392-0.297C49.73,46.612,37.04,51.797,35.818,49.913L35.818,49.913z"/>
</g>
</svg>
