<?xml version="1.0" encoding="utf-8"?>
<!-- Generator: Adobe Illustrator 16.0.0, SVG Export Plug-In . SVG Version: 6.00 Build 0)  -->
<!DOCTYPE svg PUBLIC "-//W3C//DTD SVG 1.1//EN" "http://www.w3.org/Graphics/SVG/1.1/DTD/svg11.dtd">
<svg version="1.1" id="Layer_1" xmlns="http://www.w3.org/2000/svg" xmlns:xlink="http://www.w3.org/1999/xlink" x="0px" y="0px"
	 width="192.756px" height="192.756px" viewBox="0 0 192.756 192.756" enable-background="new 0 0 192.756 192.756"
	 xml:space="preserve">
<g>
	<polygon fill-rule="evenodd" clip-rule="evenodd" fill="#FFFFFF" points="0,0 192.756,0 192.756,192.756 0,192.756 0,0 	"/>
	<path fill-rule="evenodd" clip-rule="evenodd" fill="#AF9B6D" d="M123.893,57.728c-0.399-0.933-1.199-1.599-1.998-1.999
		c-1.199-0.267-2.398-0.133-3.198,0.932c-0.666,0.8-1.066,2.132-0.399,3.198c0.267,0.933,1.199,1.199,1.199,2.265l-8.395,19.187
		c-0.533,0.667-0.533,1.732-1.199,2.132c-0.267-0.133-0.533-0.4-0.533-0.666l0.933-15.856l0.666-10.793
		c0.134-0.799-0.266-1.999,0.4-2.665c1.199-0.266,1.998-0.799,2.531-1.732c0.399-1.066,0.399-2.665-0.399-3.464
		c-0.8-0.799-1.732-1.066-2.932-0.933c-1.066,0.4-2.265,1.199-2.398,2.665c-0.133,1.465,0.666,2.665,1.732,3.198
		c0.267,0,0.399,0.266,0.533,0.533l-6.529,28.514c-0.133,0.533-0.533,0.933-0.8,0.799c-0.133-0.133-0.399-0.399-0.399-0.666
		l-2.932-31.312c0.533-1.199,1.999-1.066,2.398-2.398c0.399-0.667,0.267-1.866,0.134-2.665c-0.533-0.799-1.333-1.333-2.266-1.599
		c-0.799-0.134-1.731,0.266-2.398,0.533c-0.799,0.666-1.465,1.732-1.199,3.064c0.133,0.8,0.533,1.333,1.066,1.732
		c0.399,0.533,1.466,0.399,1.466,1.333l-1.333,15.723l-1.332,15.856l-0.267,0.533c-0.267,0.267-0.666-0.133-0.666-0.266
		L88.05,54.796c-0.133-0.4-0.133-0.933,0.133-1.333c1.066-0.666,1.865-2.265,1.599-3.73c-0.533-1.333-1.465-2.132-2.931-2.132
		c-1.199,0.133-2.398,0.666-2.798,1.865c-0.533,1.199-0.267,2.665,0.533,3.464c0.667,0.799,2.265,0.267,2.665,1.333l0.533,5.196
		l2.531,23.717c0,0.667,0.267,1.333-0.133,1.866c-0.133,0.133-0.533,0.133-0.666-0.133c-3.331-7.062-6.662-14.523-9.994-21.719
		c-0.133-0.533-0.533-1.199-0.266-1.866c0.399-0.533,0.933-1.065,1.199-1.732c0.133-0.799,0.133-1.599-0.4-2.265
		c-0.267-0.667-0.933-1.066-1.732-1.333c-1.066-0.266-2.532,0.133-3.332,0.933c-0.666,0.799-0.666,2.265-0.266,3.331
		c0.4,0.799,1.066,1.332,1.865,1.466c0.799,0.266,1.599,0,1.999,0.799c3.198,10.526,6.129,21.052,9.061,31.579l1.599,1.199
		c3.331,1.999,7.195,3.731,11.326,3.463c1.732-0.133,3.198-0.666,4.53-1.199c1.332-0.398,2.398-0.932,3.465-1.598
		c0.932-0.267,1.599-0.933,2.397-1.465l6.662-23.185l2.532-8.927c0.533-1.333,2.531-0.666,3.198-1.999
		C123.626,59.593,124.026,58.66,123.893,57.728L123.893,57.728z M109.902,94.236c-2.532,1.199-5.196,2.131-8.395,2.266
		c-4.264,0.666-9.327-0.8-12.658-2.532c-0.266,0-0.133-0.267,0-0.4c2.665-1.865,5.729-2.931,9.327-3.331
		c4.396-0.133,8.527,0.666,11.726,3.198C110.302,93.703,110.302,94.103,109.902,94.236L109.902,94.236z"/>
	<path fill-rule="evenodd" clip-rule="evenodd" fill="#496364" d="M92.847,138.473c0,0.533,0.4,0.934,0.799,1.199h1.333
		c3.332-0.133,4.664,0.268,7.862-0.266c1.065-0.533,2.131-1.066,2.531-2.531c0.533-2.133,0.533-4.531,0.8-6.797h2.798v12.658
		l-27.182,0.133v-3.197c1.732-0.133,2.132,0.133,4.131-0.133c0.267-0.266,0.933-0.666,0.799-1.332v-19.721
		c-0.133-0.799,0-1.998-0.799-2.531c-1.199-0.666-3.331-0.268-3.998-0.533v-2.932h16.256v2.666
		c-1.199,0.398-3.331,0.133-4.397,0.531c-0.4,0-0.933,0.533-0.933,1.066V138.473L92.847,138.473z"/>
	<path fill-rule="evenodd" clip-rule="evenodd" fill="#496364" d="M118.43,116.754c0-0.398-0.133-0.932-0.533-1.066
		c-1.599-0.133-2.664,0-4.396-0.133v-3.064h29.047v12.125h-2.932c0-3.197-0.133-7.061-2.798-8.527c-0.8-0.266-1.599-0.4-2.531-0.533
		l-8.661,0.133c-0.133,0.135-1.199-0.133-1.332,0.4v8.928l0.399,0.4c2.132,0,4.93,0.398,5.996-2.266
		c0.399-1.066,0.533-3.598,0.533-3.598h2.664v15.59h-3.064c-0.133-1.865,0.267-4.664-1.332-5.73
		c-1.199-1.066-3.064-0.932-4.797-0.666l-0.399,0.268v10.26c0.133,0.531,0.799,0.398,1.199,0.398
		c2.931-0.133,5.596,0.133,9.593-0.133c1.999-0.4,3.598-1.998,3.997-4.396c0.267-1.732,0.267-3.465,0.4-5.197h3.064l-0.134,12.924
		h-29.047v-3.197c1.866,0,3.598,0.268,4.53-0.266c0.533-0.4,0.667-1.334,0.533-2V116.754L118.43,116.754z"/>
	<path fill-rule="evenodd" clip-rule="evenodd" fill="#496364" d="M184.252,142.869h-17.455v-3.064
		c0.933-0.266,3.064,0.268,4.131-0.398c0.399-0.268,0.533-0.934,0.533-1.467c-1.732-2.398-3.598-4.662-5.463-6.928
		c-0.533,0-0.934,0.4-1.333,0.932l-4.797,5.598c-0.133,0.531-0.267,0.932,0,1.465c0.267,0.4,0.667,0.666,1.199,0.799h2.932v3.064
		l-15.323-0.133v-2.932c1.333-0.133,1.732,0.135,3.198-0.133c0.933-0.266,1.732-0.799,2.531-1.6
		c2.798-3.463,5.863-6.928,8.928-10.393l-0.267-0.398c-2.531-3.465-5.196-6.93-7.995-10.395c-0.666-1.064-2.265-1.199-3.73-1.199
		h-1.466v-3.197h16.39v3.064c-0.533,0.268-1.466,0-2.133,0.133c-0.532,0-0.799,0.268-1.198,0.533c-0.268,0.4-0.4,1.066-0.134,1.467
		l4.131,5.33h0.399c1.599-1.732,3.198-3.732,4.797-5.73c0.267-0.4,0.267-1.066-0.134-1.465l-0.532-0.135l-2.665-0.133l-0.133-3.064
		h14.257v3.064c0,0-4.131-0.266-5.197,1.066c-2.664,3.332-5.463,6.396-8.127,9.727l0.532,0.799l8.794,11.193
		c1.066,1.465,3.198,1.332,5.33,1.332V142.869L184.252,142.869z"/>
	<path fill-rule="evenodd" clip-rule="evenodd" fill="#496364" d="M39.95,134.609h-2.398c-0.133,1.465,0.133,2.932-0.4,4.264
		c-0.267,0.533-0.799,0.666-1.333,0.533c-0.533-0.133-0.933-0.4-1.199-0.934c-0.4-2.398-0.133-5.062-0.666-7.461
		c-0.667-2.398-2.798-2.932-4.797-3.465c-0.133,0-0.267-0.4,0-0.4c2.265-0.531,4.13-0.799,5.729-2.398
		c1.732-1.465,2.532-4.795,1.732-7.461c-1.199-3.598-4.664-4.664-7.728-4.797H8.771v2.799c1.466,0.133,3.064,0,4.264,0.398
		c0.4,0.135,0.533,0.668,0.667,1.066v18.121l-0.267,3.73c-0.799,1.865-3.464,1.066-4.93,1.334v2.93H24.36v-3.064h-3.331
		l-0.933-0.133c-0.4-0.266-0.533-0.799-0.533-1.332v-9.461l0.4-0.266c1.732-0.133,2.798-0.268,5.063,0
		c1.332,0.266,2.265,1.199,2.931,2.398c0.933,2.799,0.533,5.863,1.066,8.928c0.267,1.732,1.333,2.797,2.665,3.33
		c2.132,0.799,5.196,0.799,6.795-0.533C40.349,140.738,39.816,137.273,39.95,134.609L39.95,134.609z M26.758,124.748
		c-3.464,0.135-4.397,0.135-6.928,0.135l-0.267-0.268v-8.66c0-0.268,0.533-0.4,0.8-0.4c1.999,0.4,6.662-0.666,8.527,1.066
		c1.066,1.066,1.866,2.932,1.466,4.93C29.689,123.283,28.491,124.615,26.758,124.748L26.758,124.748z"/>
	<path fill-rule="evenodd" clip-rule="evenodd" fill="#496364" d="M72.728,116.887c-2.532-2.797-5.597-4.396-9.727-4.93
		c-1.066-0.133-1.066,0-2.265-0.133c-3.464,0.133-6.662,1.332-9.46,3.332c-4.397,3.197-7.195,10.26-5.463,16.654
		c1.599,5.996,5.596,9.861,10.66,11.459c1.466,0.266,3.998,0.533,5.33,0.533c6.129-0.133,10.926-3.598,13.724-9.326
		C78.057,128.746,76.591,120.885,72.728,116.887L72.728,116.887z M67.664,136.209c-1.466,2.264-4.13,3.73-6.662,3.596
		c-1.333,0-2.931-0.266-3.998-1.064c-3.864-2.266-4.93-7.996-4.53-13.059c0.266-3.998,2.131-8.127,5.33-9.461
		c1.332-0.666,2.798-0.533,4.663-0.533c2.265,0.4,4.264,1.867,5.463,4.131C70.329,124.482,70.329,131.678,67.664,136.209
		L67.664,136.209z"/>
</g>
</svg>
