<?xml version="1.0" encoding="utf-8"?>
<!-- Generator: Adobe Illustrator 16.0.0, SVG Export Plug-In . SVG Version: 6.00 Build 0)  -->
<!DOCTYPE svg PUBLIC "-//W3C//DTD SVG 1.1//EN" "http://www.w3.org/Graphics/SVG/1.1/DTD/svg11.dtd">
<svg version="1.1" id="Layer_1" xmlns="http://www.w3.org/2000/svg" xmlns:xlink="http://www.w3.org/1999/xlink" x="0px" y="0px"
	 width="244.126px" height="244.146px" viewBox="0 0 244.126 244.146" enable-background="new 0 0 244.126 244.146"
	 xml:space="preserve">
<g>
	<rect fill="#ED1E27" width="244.126" height="244.146"/>
	<path fill="#FFFFFF" d="M154.839,162.655l62.03,0.005v-23.261c0-34.338-27.678-62.181-62.001-62.181h-0.029V162.655"/>
	<polyline fill="#FFFFFF" points="97.786,103.987 92.208,103.987 92.208,82.012 84.133,82.012 84.133,77.282 105.859,77.282 
		105.859,82.012 97.786,82.012 97.786,103.987 	"/>
	<polyline fill="#FFFFFF" points="112.887,92.01 112.887,103.987 107.31,103.987 107.31,77.282 112.887,77.282 112.887,87.41 
		123.294,87.41 123.294,77.282 128.874,77.282 128.874,103.987 123.294,103.987 123.294,92.01 112.887,92.01 	"/>
	<polyline fill="#FFFFFF" points="151.192,82.012 137.164,82.012 137.164,87.623 149.519,87.623 149.519,92.344 137.164,92.344 
		137.164,99.266 151.221,99.266 151.221,103.987 131.96,103.987 131.96,77.282 151.192,77.282 151.192,82.012 	"/>
	<polyline fill="#FFFFFF" points="46.356,106.623 51.568,106.623 51.568,133.323 45.991,133.323 35.093,114.285 35.013,114.285 
		35.013,133.323 29.808,133.323 29.808,106.623 35.678,106.623 46.276,125.217 46.356,125.217 46.356,106.623 	"/>
	<path fill="#FFFFFF" d="M67.136,129.31c3.011,0,7.246-1.857,7.246-9.336c0-7.469-4.235-9.336-7.246-9.336
		c-3.014,0-7.258,1.867-7.258,9.336C59.878,127.452,64.122,129.31,67.136,129.31 M67.136,105.917
		c3.526,0,12.823,1.528,12.823,14.057c0,12.533-9.297,14.057-12.823,14.057c-3.538,0-12.835-1.523-12.835-14.057
		C54.301,107.445,63.598,105.917,67.136,105.917z"/>
	<polyline fill="#FFFFFF" points="119.55,133.323 113.966,133.323 113.966,111.344 105.897,111.344 105.897,106.623 
		127.606,106.623 127.606,111.344 119.55,111.344 119.55,133.323 	"/>
	<polyline fill="#FFFFFF" points="135.19,121.357 135.19,133.323 129.618,133.323 129.618,106.623 135.19,106.623 135.19,116.732 
		145.601,116.732 145.601,106.623 151.192,106.623 151.192,133.323 145.601,133.323 145.601,121.357 135.19,121.357 	"/>
	<polyline fill="#FFFFFF" points="71.579,162.66 66.001,162.66 66.001,135.965 84.997,135.965 84.997,140.686 71.579,140.686 
		71.579,146.713 83.333,146.713 83.333,151.434 71.579,151.434 71.579,162.66 	"/>
	<path fill="#FFFFFF" d="M90.886,152.551h6.801l-3.309-10.563h-0.07L90.886,152.551 M87.536,162.66h-5.879l9.526-26.695h6.434
		l9.4,26.695h-6.063l-1.708-5.499h-9.853L87.536,162.66z"/>
	<path fill="#FFFFFF" d="M124.15,144.7c-0.44-1.596-1.301-4.609-5.914-4.609c-2.675,0-6.622,1.785-6.622,9.331
		c0,4.798,1.896,9.117,6.622,9.117c3.091,0,5.246-1.756,5.914-5.021h5.574c-1.112,5.8-4.899,9.853-11.597,9.853
		c-7.103,0-12.206-4.788-12.206-14.018c0-9.335,5.396-14.095,12.286-14.095c7.996,0,11.217,5.504,11.517,9.441H124.15"/>
	<polyline fill="#FFFFFF" points="151.192,140.686 137.164,140.686 137.164,146.297 149.519,146.297 149.519,151.018 
		137.164,151.018 137.164,157.944 151.221,157.944 151.221,162.66 131.96,162.66 131.96,135.965 151.192,135.965 151.192,140.686 	
		"/>
	<path fill="#FFFFFF" d="M94.685,118.338c2.893,0,4.303-1.006,4.303-3.637c0-1.408-0.639-3.483-3.899-3.483H88.15v7.12H94.685
		 M82.692,106.613h13.474c7.088,0,8.38,5.229,8.38,7.536c0,2.932-1.485,5.457-4.121,6.342c2.194,0.962,3.384,1.775,3.384,6.748
		c0,3.898,0,4.865,1.183,5.311v0.706h-6.16c-0.373-1.257-0.59-2.632-0.59-5.379c0-3.632-0.217-5.045-4.343-5.045H88.15v10.424
		h-5.458V106.613z"/>
	<path fill="none" stroke="#EC2229" stroke-width="0.229" stroke-linecap="square" d="M168.987,162.655l-0.005-18.689
		c0-5.186-4.208-9.395-9.394-9.395l-4.75,0.02 M154.839,105.25h2.796c18.371,0,33.255,14.898,33.255,33.274v24.137"/>
	<path fill="none" stroke="#FFFFFF" stroke-width="0.115" d="M57.854,155.352c-2.017,0-3.657,1.635-3.657,3.657
		c0,2.021,1.64,3.651,3.657,3.651c2.029,0,3.659-1.63,3.659-3.651C61.513,156.986,59.883,155.352,57.854,155.352z M56.719,160.721
		v-3.435h1.5c0.907,0,1.214,0.339,1.214,0.91c0,0.667-0.467,0.924-1.074,0.938h-1.64 M58.369,159.144l1.003,1.538"/>
</g>
</svg>
