<?xml version="1.0" encoding="utf-8"?>
<!-- Generator: Adobe Illustrator 16.0.0, SVG Export Plug-In . SVG Version: 6.00 Build 0)  -->
<!DOCTYPE svg PUBLIC "-//W3C//DTD SVG 1.1//EN" "http://www.w3.org/Graphics/SVG/1.1/DTD/svg11.dtd">
<svg version="1.1" id="Layer_1" xmlns="http://www.w3.org/2000/svg" xmlns:xlink="http://www.w3.org/1999/xlink" x="0px" y="0px"
	 width="187.086px" height="122.627px" viewBox="0 0 187.086 122.627" enable-background="new 0 0 187.086 122.627"
	 xml:space="preserve">
<g>
	<polygon fill-rule="evenodd" clip-rule="evenodd" fill="#0C1B49" points="187.072,122.627 187.072,92.283 0,92.283 0,122.627 
		187.072,122.627 	"/>
	<polygon fill-rule="evenodd" clip-rule="evenodd" fill="#FFFFFF" points="24.093,113.934 23.101,113.934 23.101,107.891 
		14.589,107.891 14.589,113.934 13.598,113.934 13.598,101.176 14.589,101.176 14.589,107.068 23.101,107.068 23.101,101.176 
		24.093,101.176 24.093,113.934 	"/>
	<polygon fill-rule="evenodd" clip-rule="evenodd" fill="#FFFFFF" points="40.835,113.934 39.844,113.934 39.844,101.176 
		40.835,101.176 40.835,113.934 	"/>
	<polygon fill-rule="evenodd" clip-rule="evenodd" fill="#FFFFFF" points="57.56,113.109 63.864,113.109 63.864,113.934 
		56.568,113.934 56.568,101.176 57.56,101.176 57.56,113.109 	"/>
	<polygon fill-rule="evenodd" clip-rule="evenodd" fill="#FFFFFF" points="84.704,101.998 79.129,101.998 79.129,106.844 
		84.162,106.844 84.162,107.666 79.129,107.666 79.129,113.934 78.138,113.934 78.138,101.176 84.704,101.176 84.704,101.998 	"/>
	<polygon fill-rule="evenodd" clip-rule="evenodd" fill="#FFFFFF" points="100.137,113.934 99.146,113.934 99.146,101.176 
		100.137,101.176 100.137,113.934 	"/>
	<path fill-rule="evenodd" clip-rule="evenodd" fill="#FFFFFF" d="M126.552,103.215c-1.553-0.881-2.994-1.291-4.528-1.291
		c-3.235,0-5.63,2.395-5.63,5.631c0,2.861,1.889,5.631,5.911,5.631c1.478,0,2.488-0.281,3.498-0.787v-3.441h-2.693v-0.822h3.686
		v4.883c-1.516,0.729-3.05,1.084-4.527,1.084c-3.966,0-6.94-2.807-6.94-6.584c0-3.742,2.899-6.51,6.847-6.51
		c1.44,0,2.581,0.279,4.378,1.084V103.215L126.552,103.215z"/>
	<polygon fill-rule="evenodd" clip-rule="evenodd" fill="#FFFFFF" points="149.112,101.998 143.145,101.998 143.145,107.105 
		148.963,107.105 148.963,107.928 143.145,107.928 143.145,113.109 149.262,113.109 149.262,113.934 142.153,113.934 
		142.153,101.176 149.112,101.176 149.112,101.998 	"/>
	<path fill-rule="evenodd" clip-rule="evenodd" fill="#FFFFFF" d="M165.107,101.998h2.076c2.338,0,3.367,1.047,3.367,2.488
		c0,1.533-1.085,2.506-3.33,2.506h-2.113V101.998L165.107,101.998z M164.115,101.176v12.758h0.992v-6.117h1.721
		c1.533,0,2.021,0.205,3.554,2.619l2.227,3.498h1.16l-2.881-4.416c-0.599-0.896-1.104-1.627-1.703-1.943
		c1.628-0.6,2.432-1.629,2.432-3.107c0-1.701-1.103-3.291-4.228-3.291H164.115L164.115,101.176z"/>
	<polygon fill-rule="evenodd" clip-rule="evenodd" fill="#FFFFFF" points="0.125,30.343 0.125,92.283 93.105,92.283 93.105,30.343 
		0.125,30.343 	"/>
	<polygon fill-rule="evenodd" clip-rule="evenodd" fill="#D2072A" points="93.105,92.283 187.072,92.283 187.072,98.172 
		187.086,98.172 187.086,30.343 93.105,30.343 93.105,92.283 	"/>
	<polygon fill-rule="evenodd" clip-rule="evenodd" fill="#0C1B49" points="187.086,30.343 187.086,0 0.014,0 0.014,30.343 
		187.086,30.343 	"/>
	<polygon fill-rule="evenodd" clip-rule="evenodd" fill="#FFFFFF" points="24.021,10.28 19.231,10.28 19.231,22.215 18.24,22.215 
		18.24,10.28 13.451,10.28 13.451,9.457 24.021,9.457 24.021,10.28 	"/>
	<path fill-rule="evenodd" clip-rule="evenodd" fill="#FFFFFF" d="M60.033,15.836c0,3.18-2.469,5.63-5.668,5.63
		c-3.199,0-5.706-2.45-5.706-5.63s2.506-5.631,5.706-5.631C57.563,10.205,60.033,12.656,60.033,15.836L60.033,15.836z
		 M61.099,15.836c0-3.667-2.975-6.548-6.771-6.548c-3.779,0-6.735,2.881-6.735,6.548c0,3.666,2.956,6.547,6.735,6.547
		C58.125,22.383,61.099,19.502,61.099,15.836L61.099,15.836z"/>
	<polygon fill-rule="evenodd" clip-rule="evenodd" fill="#FFFFFF" points="98.14,9.457 99.131,9.457 99.131,22.215 98.14,22.215 
		98.14,10.897 98.103,10.897 93.276,16.865 88.45,10.897 88.412,10.897 88.412,22.215 87.42,22.215 87.42,9.457 88.412,9.457 
		93.276,15.387 98.14,9.457 	"/>
	<polygon fill-rule="evenodd" clip-rule="evenodd" fill="#FFFFFF" points="136.695,9.457 137.687,9.457 137.687,22.215 
		136.695,22.215 136.695,10.897 136.657,10.897 131.831,16.865 127.005,10.897 126.967,10.897 126.967,22.215 125.976,22.215 
		125.976,9.457 126.967,9.457 131.831,15.387 136.695,9.457 	"/>
	<polygon fill-rule="evenodd" clip-rule="evenodd" fill="#FFFFFF" points="169.039,15.368 169.039,22.215 168.048,22.215 
		168.048,15.368 163.091,9.457 164.288,9.457 168.553,14.507 172.8,9.457 173.997,9.457 169.039,15.368 	"/>
</g>
</svg>
