<?xml version="1.0" encoding="utf-8"?>
<!-- Generator: Adobe Illustrator 16.0.0, SVG Export Plug-In . SVG Version: 6.00 Build 0)  -->
<!DOCTYPE svg PUBLIC "-//W3C//DTD SVG 1.1//EN" "http://www.w3.org/Graphics/SVG/1.1/DTD/svg11.dtd">
<svg version="1.1" id="Layer_1" xmlns="http://www.w3.org/2000/svg" xmlns:xlink="http://www.w3.org/1999/xlink" x="0px" y="0px"
	 width="228.813px" height="207.133px" viewBox="0 0 228.813 207.133" enable-background="new 0 0 228.813 207.133"
	 xml:space="preserve">
<g>
	<path d="M47.876,189.39H58.76c0.658,0,1.296,0.08,1.914,0.238c0.618,0.159,1.208,0.384,1.769,0.674
		c0.61,0.332,1.112,0.76,1.505,1.28c0.671,0.89,0.984,2.174,0.966,3.442c-0.029,2.039-1.401,4.679-3.259,5.217l3.364,6.52h-5.994
		l-2.576-5.441h-3.273v5.441h-5.298V189.39L47.876,189.39z M57.65,197.346c1.215,0,2.182-0.604,2.182-1.98
		c0-1.421-1.1-1.98-2.206-1.98h-4.451v3.961H57.65L57.65,197.346z M108.083,206.761V189.39h11.435c1.154,0,2.264,0.246,3.322,0.738
		c0.803,0.376,1.451,0.94,1.949,1.693c0.145,0.217,0.27,0.449,0.373,0.695c0.105,0.246,0.172,0.499,0.205,0.76
		c0.08,0.594,0.031,1.18-0.145,1.759s-0.475,1.1-0.891,1.563c-0.369,0.42-0.859,0.745-1.469,0.977
		c0.898,0.29,1.637,0.753,2.215,1.39c0.256,0.275,0.457,0.576,0.602,0.901c0.145,0.326,0.25,0.662,0.312,1.01
		c0.129,0.854,0.018,1.68-0.336,2.476s-0.908,1.455-1.662,1.976c-0.674,0.463-1.4,0.818-2.178,1.064s-1.576,0.369-2.395,0.369
		H108.083L108.083,206.761z M113.333,195.903h5.437c0.416,0,0.773-0.141,1.059-0.434c0.277-0.285,0.396-0.623,0.361-0.999
		c-0.029-0.305-0.182-0.576-0.457-0.804c-0.285-0.235-0.604-0.348-0.939-0.348h-5.46V195.903L113.333,195.903z M113.333,202.743
		h5.677c0.465,0,0.846-0.156,1.156-0.456c0.316-0.308,0.465-0.666,0.432-1.085c-0.029-0.392-0.186-0.725-0.48-0.978
		c-0.314-0.269-0.691-0.391-1.107-0.391h-5.677V202.743L113.333,202.743z M134.071,189.39h5.154v10.922
		c0,0.549,0.201,1.028,0.602,1.434c0.578,0.585,1.676,0.872,2.775,0.89c1.102,0.019,2.207-0.231,2.805-0.717
		c0.531-0.431,0.795-0.962,0.795-1.585V189.39h5.178v10.965c0,0.927-0.229,1.807-0.686,2.639c-0.459,0.832-1.072,1.553-1.842,2.16
		c-0.354,0.29-0.738,0.528-1.156,0.717c-0.416,0.188-0.857,0.34-1.324,0.456c-1.492,0.377-3,0.521-4.525,0.435
		c-0.48-0.029-0.955-0.076-1.42-0.142s-0.932-0.162-1.396-0.293c-0.738-0.202-1.412-0.496-2.021-0.879
		c-0.611-0.384-1.133-0.84-1.564-1.368c-0.434-0.528-0.771-1.111-1.012-1.748s-0.361-1.303-0.361-1.998V189.39L134.071,189.39z
		 M193.68,189.042c1.01-0.029,1.994,0.072,2.953,0.304c0.961,0.231,1.861,0.594,2.705,1.086c1.092,0.651,1.977,1.47,2.656,2.454
		c0.607,0.881,0.996,1.832,1.166,2.854h-5.779c-0.113-0.478-0.338-0.908-0.656-1.293c-0.404-0.485-0.912-0.831-1.502-1.051
		c-0.602-0.239-1.234-0.326-1.883-0.271c-0.648,0.054-1.254,0.254-1.797,0.613c-0.359,0.252-0.678,0.549-0.949,0.889
		c-0.268,0.336-0.48,0.711-0.629,1.114c-0.191,0.608-0.307,1.23-0.342,1.859c-0.035,0.617-0.008,1.236,0.076,1.85
		c0.107,0.756,0.373,1.458,0.807,2.088c0.541,0.761,1.303,1.216,2.201,1.427c0.664,0.139,1.336,0.158,2,0.048
		c0.744-0.124,1.398-0.44,1.924-0.984c0.424-0.438,0.701-0.948,0.812-1.529h5.682c-0.133,0.695-0.365,1.364-0.697,2.007
		c-0.389,0.753-0.906,1.44-1.551,2.062c-0.613,0.608-1.316,1.111-2.109,1.509c-0.795,0.398-1.639,0.677-2.531,0.836
		c-0.596,0.116-1.199,0.185-1.812,0.207c-0.611,0.021-1.215,0.018-1.811-0.011c-0.895-0.059-1.754-0.221-2.582-0.489
		c-0.826-0.268-1.588-0.629-2.283-1.085c-0.693-0.457-1.311-0.992-1.848-1.607c-0.539-0.615-0.965-1.292-1.277-2.03
		c-0.465-1.086-0.729-2.196-0.795-3.333s0.09-2.262,0.471-3.377c0.314-0.955,0.799-1.846,1.451-2.67
		c0.654-0.826,1.453-1.521,2.396-2.085c0.811-0.478,1.688-0.825,2.631-1.042C191.719,189.172,192.688,189.057,193.68,189.042
		L193.68,189.042z M209.704,206.761V189.39h5.441v6.908h8.273v-6.908h5.395v17.371h-5.395v-6.263h-8.273v6.263H209.704
		L209.704,206.761z M77.469,206.761v-6.188l-6.958-11.183h5.684l3.741,6.413l4.063-6.413h5.657l-7.077,11.183v6.188H77.469
		L77.469,206.761z M24.702,205.87c-0.818-0.405-1.533-0.904-2.142-1.498c-0.931-0.955-1.609-2.034-2.035-3.235
		c-0.425-1.202-0.573-2.439-0.445-3.713c0.064-0.638,0.172-1.264,0.325-1.879c0.152-0.614,0.381-1.212,0.686-1.791
		c0.369-0.709,0.838-1.36,1.408-1.954s1.24-1.078,2.01-1.455c1.541-0.796,3.186-1.237,4.935-1.324
		c1.749-0.087,3.434,0.181,5.055,0.803c1.139,0.435,2.126,1.061,2.961,1.879c0.834,0.817,1.444,1.755,1.83,2.812
		c0.353,0.912,0.562,1.843,0.626,2.79c0.064,0.948,0,1.9-0.193,2.855c-0.272,1.303-0.847,2.476-1.721,3.519
		c-0.875,1.042-1.962,1.859-3.262,2.453c-0.754,0.348-1.537,0.604-2.347,0.771c-0.811,0.167-1.641,0.235-2.492,0.207
		c-0.369-0.015-0.742-0.037-1.119-0.065c-0.377-0.029-0.75-0.08-1.12-0.152C26.62,206.688,25.633,206.348,24.702,205.87
		L24.702,205.87z M27.846,202.677c1.014,0.465,2.075,0.589,3.184,0.372c0.708-0.124,1.338-0.376,1.893-0.755
		c0.554-0.38,0.965-0.841,1.233-1.383c0.249-0.526,0.416-1.064,0.501-1.614s0.11-1.104,0.072-1.661
		c-0.038-0.496-0.119-0.983-0.244-1.464s-0.321-0.945-0.588-1.395c-0.21-0.325-0.482-0.615-0.817-0.871
		c-0.334-0.255-0.703-0.461-1.104-0.616c-0.401-0.154-0.832-0.259-1.291-0.312c-0.459-0.055-0.918-0.043-1.377,0.034
		c-0.688,0.093-1.314,0.31-1.878,0.65c-0.564,0.341-1,0.768-1.305,1.278c-0.268,0.449-0.468,0.918-0.602,1.405
		c-0.134,0.488-0.22,0.979-0.259,1.476c-0.057,1.131,0.211,2.223,0.804,3.275C26.45,201.795,27.043,202.321,27.846,202.677
		L27.846,202.677z M10.787,206.761H5.513v-12.877H0v-4.494h16.396v4.494h-5.609V206.761L10.787,206.761z M160.26,189.39h10.883
		c0.658,0,1.297,0.08,1.914,0.238c0.617,0.159,1.207,0.384,1.768,0.674c0.611,0.332,1.113,0.76,1.506,1.28
		c0.67,0.89,0.984,2.174,0.967,3.442c-0.029,2.039-1.402,4.679-3.26,5.217l3.363,6.52h-5.994l-2.576-5.441h-3.273v5.441h-5.297
		V189.39L160.26,189.39z M170.034,197.346c1.215,0,2.182-0.604,2.182-1.98c0-1.421-1.1-1.98-2.207-1.98h-4.451v3.961H170.034
		L170.034,197.346z"/>
	<path fill-rule="evenodd" clip-rule="evenodd" stroke="#000000" stroke-width="0.5" stroke-miterlimit="2.6131" d="M81.658,85.319
		h24.073c4.25,0,7.726,3.477,7.726,7.726c0-4.249,3.476-7.726,7.726-7.726h24.074c3.936,0,7.209,2.982,7.67,6.8
		c0.461-3.817,3.732-6.8,7.67-6.8h4.814v25.305h-7.727h-4.703h-0.111h-12.006c2.08-1.805,3.385-4.402,3.385-7.29
		c0-5.447-4.643-9.864-10.367-9.864c-5.727,0-10.369,4.417-10.369,9.864c0,3.39,1.799,6.381,4.537,8.156
		c-2.738,1.659-4.537,4.453-4.537,7.619c0,5.088,4.643,9.214,10.369,9.214h5.217v8.053h-17.916c-4.248,0-7.726-3.477-7.726-7.726
		c0,4.249-3.477,7.726-7.726,7.726H87.816v-8.053h5.216c5.726,0,10.368-4.126,10.368-9.214c0-3.166-1.799-5.96-4.537-7.619
		c2.738-1.775,4.537-4.767,4.537-8.156c0-5.447-4.643-9.864-10.368-9.864c-5.725,0-10.367,4.417-10.367,9.864
		c0,2.888,1.305,5.485,3.384,7.29H74.044h-0.112h-4.703h-7.726V85.319h4.815c3.936,0,7.208,2.982,7.669,6.8
		C74.448,88.302,77.721,85.319,81.658,85.319L81.658,85.319z"/>
	<path fill-rule="evenodd" clip-rule="evenodd" stroke="#000000" stroke-width="0.5" stroke-miterlimit="2.6131" d="M81.658,82.52
		h24.073c4.25,0,7.726-3.477,7.726-7.726c0,4.249,3.476,7.726,7.726,7.726h24.074c3.936,0,7.209-2.983,7.67-6.8
		c0.461,3.816,3.732,6.8,7.67,6.8h4.814V57.215h-7.727h-4.703h-0.111h-12.006c2.08,1.804,3.385,4.401,3.385,7.289
		c0,5.448-4.643,9.865-10.367,9.865c-5.727,0-10.369-4.417-10.369-9.865c0-3.39,1.799-6.381,4.537-8.156
		c-2.738-1.659-4.537-4.452-4.537-7.619c0-5.088,4.643-9.214,10.369-9.214h5.217v-8.053h-17.916c-4.248,0-7.726,3.477-7.726,7.726
		c0-4.249-3.477-7.726-7.726-7.726H87.816v8.053h5.216c5.726,0,10.368,4.126,10.368,9.214c0,3.167-1.799,5.96-4.537,7.619
		c2.738,1.775,4.537,4.767,4.537,8.156c0,5.448-4.643,9.865-10.368,9.865c-5.725,0-10.367-4.417-10.367-9.865
		c0-2.888,1.305-5.485,3.384-7.289H74.044h-0.112h-4.703h-7.726V82.52h4.815c3.936,0,7.208-2.983,7.669-6.8
		C74.448,79.536,77.721,82.52,81.658,82.52L81.658,82.52z"/>
	<path fill-rule="evenodd" clip-rule="evenodd" stroke="#BCBEC0" stroke-width="0.5" stroke-miterlimit="2.6131" d="M113.457,0.25
		c46.167,0,83.614,37.447,83.614,83.613s-37.447,83.613-83.614,83.613c-46.166,0-83.613-37.447-83.613-83.613
		S67.291,0.25,113.457,0.25L113.457,0.25z M113.457,11.41c40.007,0,72.454,32.446,72.454,72.453
		c0,40.006-32.447,72.453-72.454,72.453c-40.006,0-72.453-32.447-72.453-72.453S73.45,11.41,113.457,11.41L113.457,11.41z"/>
</g>
</svg>
