<?xml version="1.0" encoding="utf-8"?>
<!-- Generator: Adobe Illustrator 16.0.0, SVG Export Plug-In . SVG Version: 6.00 Build 0)  -->
<!DOCTYPE svg PUBLIC "-//W3C//DTD SVG 1.1//EN" "http://www.w3.org/Graphics/SVG/1.1/DTD/svg11.dtd">
<svg version="1.1" id="Layer_1" xmlns="http://www.w3.org/2000/svg" xmlns:xlink="http://www.w3.org/1999/xlink" x="0px" y="0px"
	 width="68.019px" height="68.164px" viewBox="0 0 68.019 68.164" enable-background="new 0 0 68.019 68.164" xml:space="preserve">
<g>
	<rect fill="#EF4236" width="68.019" height="68.164"/>
	<path fill-rule="evenodd" clip-rule="evenodd" fill="#FFFFFF" d="M8.555,9.39h4.35v14.346c0,1.548,1.27,2.816,2.818,2.816
		c1.553,0,2.82-1.268,2.82-2.816V9.39h4.354v14.404c0,3.879-3.172,7.05-7.049,7.05H15.6c-3.877,0-7.045-3.17-7.045-7.05V9.39"/>
	<polyline fill-rule="evenodd" clip-rule="evenodd" fill="#FFFFFF" points="32.885,30.843 28.533,30.843 28.533,9.39 32.885,9.39 
		38.646,21.589 38.646,9.39 42.877,9.39 42.877,30.843 38.645,30.843 32.885,18.769 32.885,30.843 	"/>
	<rect x="50.047" y="9.328" fill="#FFFFFF" width="4.291" height="21.513"/>
	<path fill-rule="evenodd" clip-rule="evenodd" fill="#FFFFFF" d="M52.231,37.256c3.987,0,7.246,3.262,7.246,7.246v7.07
		c0,3.984-3.259,7.246-7.246,7.246c-3.983,0-7.242-3.262-7.242-7.246v-7.07C44.989,40.518,48.248,37.256,52.231,37.256
		 M52.204,41.627c1.565,0,2.845,1.281,2.845,2.844v7.072c0,1.568-1.279,2.848-2.845,2.848c-1.566,0-2.845-1.279-2.845-2.848v-7.072
		C49.359,42.908,50.638,41.627,52.204,41.627z"/>
	<path fill-rule="evenodd" clip-rule="evenodd" fill="#FFFFFF" d="M15.709,37.256c3.947,0,7.176,3.262,7.176,7.246v7.07
		c0,2-0.81,3.812-2.116,5.127l2.192,6.404H18.55l-1.464-4.422c-0.447,0.09-0.908,0.137-1.377,0.137
		c-3.951,0-7.181-3.262-7.181-7.246v-7.07C8.528,40.518,11.758,37.256,15.709,37.256 M15.678,41.627L15.678,41.627
		c1.554,0,2.82,1.281,2.82,2.844v7.072c0,1.568-1.267,2.848-2.82,2.848c-1.55,0-2.818-1.279-2.818-2.848v-7.072
		C12.859,42.908,14.128,41.627,15.678,41.627z"/>
	<path fill-rule="evenodd" clip-rule="evenodd" fill="#FFFFFF" d="M28.522,37.236h4.292v17.293h10.053v4.223
		c-4.781,0-9.562,0-14.345,0V37.236"/>
</g>
</svg>
