<?xml version="1.0" encoding="utf-8"?>
<!-- Generator: Adobe Illustrator 16.0.0, SVG Export Plug-In . SVG Version: 6.00 Build 0)  -->
<!DOCTYPE svg PUBLIC "-//W3C//DTD SVG 1.1//EN" "http://www.w3.org/Graphics/SVG/1.1/DTD/svg11.dtd">
<svg version="1.1" id="Layer_1" xmlns="http://www.w3.org/2000/svg" xmlns:xlink="http://www.w3.org/1999/xlink" x="0px" y="0px"
	 width="131.705px" height="164.41px" viewBox="0 0 131.705 164.41" enable-background="new 0 0 131.705 164.41"
	 xml:space="preserve">
<g>
	<path fill-rule="evenodd" clip-rule="evenodd" fill="#1D1D1B" d="M0.049,67.732C0,66.949,0,66.183,0,65.401
		c0-0.506,0.016-1.027,0.016-1.533C0.57,49.473,5.542,36.545,14.183,25.33C28.676,7.283,49.656-1.928,73.033,0.338
		c14.966,1.63,28.139,7.841,39.159,18.633c12.177,12.21,18.861,27.909,19.464,44.896c0.049,0.766,0.049,1.548,0.049,2.315
		c0,0.505,0,1.027-0.016,1.549c-0.555,14.378-5.527,27.305-14.167,38.522c-14.493,18.047-35.457,27.258-58.834,25.008
		c-14.982-1.631-28.154-7.842-39.175-18.65C7.336,100.4,0.668,84.703,0.049,67.732L0.049,67.732z M130.4,67.732
		c0.816-26.002-14.688-50.896-39.108-61.329C83.646,3.142,75.397,1.3,66.447,1.153c-2.331,0.065-5.004,0.147-7.335,0.408
		c-21.291,2.07-41.538,16.09-50.994,35.571C3.961,45.3,1.695,54.201,1.271,63.868c-0.766,26.001,14.721,50.896,39.142,61.312
		c7.646,3.262,15.895,5.119,24.845,5.268c2.331-0.082,5.004-0.148,7.336-0.408c21.307-2.07,41.538-16.09,50.993-35.588
		c4.157-8.168,6.439-17.069,6.847-26.719H130.4L130.4,67.732z M117.294,30.693l-3.407,2.331l-0.651-0.293
		c-0.994-1.174-1.875-2.836-3.114-3.848h-0.18l-1.743,1.517l0.358,0.44c-0.326-0.098-0.652-0.179-1.011-0.245
		c-0.294-0.033-0.571-0.114-0.848-0.212l-0.131-0.163l3.554-3.146c1.402,1.402,2.413,3,3.636,4.516
		c0.7-0.293,1.369-0.815,1.988-1.336c-1.581-2.511-3.668-5.021-5.804-7.141l-0.26,0.049c-1.81,1.614-3.358,3.391-5.136,4.907
		c-2.299-2.135-4.548-4.32-7.141-6.016l-0.228-0.261c0.929-1.337,1.809-2.673,2.771-3.961c1.37,1.026,2.854,2.151,4.337,3.26
		c0.521-0.489,1.027-1.157,1.435-1.711v-0.212c-2.103-1.891-4.353-3.521-6.684-5.004h-0.311c-1.255,1.972-2.624,3.896-3.684,5.917
		l-0.196,0.147c-2.656-1.614-5.396-3.179-8.281-4.353c0.587-1.483,1.076-3.033,1.81-4.483c1.744,0.701,3.375,1.663,5.103,2.364
		l1.076-2.021c-0.44-0.521-1.108-0.75-1.695-1.076c-1.973-0.962-3.994-1.858-6.064-2.56l-0.196,0.114l-2.363,6.651l-0.146,0.081
		c-1.549-0.489-3.114-0.994-4.663-1.401c-1.435-0.457-2.999-0.604-4.516-0.897c0.147-1.582,0.555-3.179,0.75-4.809l0.147-0.065
		c1.728,0.44,3.554,0.701,5.249,1.141c0.212-0.782,0.473-1.548,0.619-2.364c-2.657-0.782-5.396-1.336-8.249-1.598
		c-0.293,2.168-0.538,4.369-0.848,6.553c-0.31-0.407-0.555-0.896-0.766-1.353c-0.017-0.13-0.05-0.228-0.099-0.342
		c0.261-2.005,0.343-4.108,0.686-6.032c0.375-0.147,0.586,0.032,0.961,0.032c3.408,0.408,6.701,1.076,9.88,2.005
		c-0.44,1.467-0.896,2.951-1.305,4.434c-0.994-0.082-1.988-0.521-3.032-0.668c-0.7-0.179-1.467-0.326-2.249-0.408
		c-0.294,0.734-0.294,1.598-0.489,2.397c0.636,0.228,1.336,0.261,1.973,0.489c1.777,0.44,3.537,0.88,5.281,1.435
		c0.848-2.25,1.451-4.613,2.299-6.879c3.619,1.076,6.994,2.673,10.352,4.45l0.114,0.114c-0.75,1.353-1.516,2.771-2.266,4.141
		c-1.581-0.782-3.13-1.712-4.793-2.332c-0.261,0.033-0.261,0.327-0.375,0.506l-0.75,1.712c2.152,1.141,4.369,2.07,6.439,3.407
		c1.402-2.005,2.56-4.189,3.88-6.178c3.195,1.875,6.228,4.206,9.146,6.684l-0.032,0.228l-2.935,3.293h-0.326
		c-1.142-1.044-2.511-2.152-3.733-3.065l-0.228-0.049l-1.402,1.891c1.891,1.598,3.912,3.293,5.804,5.07l5.151-5.102
		c2.837,2.771,5.396,5.869,7.646,9.064L117.294,30.693L117.294,30.693z M118.745,35.258l-0.717,0.391
		c-0.343-0.261-0.701-0.505-1.044-0.766c0.783-0.44,1.549-0.897,2.314-1.37c1.55,2.413,2.87,4.939,3.962,7.548
		c-0.195-0.261-0.391-0.505-0.619-0.702c-0.555-0.945-1.418-1.776-2.185-2.608c-0.456-0.847-0.93-1.711-1.483-2.494H118.745
		L118.745,35.258z M13.335,34.703l3.636,2.136c-0.212,0.293-0.539,0.554-0.783,0.848c-1.5-0.831-2.983-1.63-4.451-2.51
		c0.44-0.962,0.995-1.891,1.598-2.804c1.614-2.592,3.505-5.005,5.543-7.336h0.179c1.043,1.011,2.299,2.005,3.326,2.967
		c-1.027,1.582-2.429,3.146-3.505,4.728l0.032,0.146l0.277,0.196c-0.342,0.277-0.685,0.57-0.978,0.896
		c-0.342-0.228-0.685-0.473-1.027-0.717v-0.179c1.142-1.598,2.364-3.228,3.538-4.776c-0.408-0.587-1.06-0.93-1.663-1.435h-0.293
		C16.693,29.34,14.737,31.916,13.335,34.703L13.335,34.703z M12.275,59.141c-0.098,0.685-0.179,1.385-0.245,2.119
		c-0.44,0.146-1.027,0.065-1.516,0.033l-3.211-0.293c-0.033-1.663,0.359-3.31,0.587-4.972l0.13-0.049
		c0.195,0.668,0.359,1.369,0.685,1.989c-0.082,0.62-0.146,1.239-0.179,1.842c0.767,0.179,1.548,0.261,2.364,0.293l0.131-0.815h0.26
		C11.672,59.417,11.982,59.287,12.275,59.141L12.275,59.141z M12.031,40.491c-0.261-0.098-0.538-0.195-0.733-0.359
		c-0.261-0.065-0.555-0.261-0.815-0.179c-0.505,0.994-0.978,2.005-1.418,3.032c-0.717,0.701-1.402,1.402-2.005,2.185
		c0.848-2.38,1.809-4.711,2.983-6.961l0.179-0.065c0.962,0.538,1.989,1.011,3,1.516C12.813,39.92,12.422,40.197,12.031,40.491
		L12.031,40.491z M69.365,11.978c-1.988-0.098-4.01-0.098-5.917-0.033c-0.18-1.663-0.229-3.326-0.229-4.842
		c1.858-0.228,3.488,0.033,5.364-0.032c0.146-0.783,0.26-1.63,0.081-2.413l-0.081-0.114c-2.544-0.147-5.397-0.147-7.989,0.195
		l-0.18,0.179c0.18,2.299,0.375,4.695,0.668,6.961l-0.293,0.293c-3.114,0.18-6.032,0.962-8.885,1.549
		c-0.554-1.516-0.88-3.064-1.336-4.581l0.228-0.195c1.582-0.293,3.179-0.62,4.728-1.06c-0.098-0.815-0.293-1.598-0.506-2.38
		c-2.706,0.375-5.216,1.076-7.694,1.924v0.457c0.652,2.217,1.516,4.353,2.021,6.619c-2.168,0.766-4.271,1.582-6.325,2.543
		c-0.293-0.179-0.62-0.179-0.864-0.065c-0.505,0.44-1.027,0.832-1.483,1.256c-0.864-1.37-1.598-2.853-2.298-4.288
		c1.614-0.864,3.293-1.565,4.907-2.332c-0.098-0.815-0.473-1.662-0.994-2.331c-2.625,1.109-5.217,2.283-7.662,3.913
		c1.157,2.119,2.478,4.141,3.75,6.211c-2.478,1.745-5.07,3.293-7.336,5.331l-0.962,0.848c-1.06-1.06-2.07-2.282-3.179-3.505
		c0.815-0.995,1.891-1.744,2.886-2.56c0.554-0.473,1.304-0.88,1.809-1.435c-0.407-0.668-0.88-1.255-1.402-1.891
		c-2.69,1.745-5.07,3.782-7.434,6.293c1.548,1.581,3.554,3.586,5.103,5.135l-0.701,0.766c-0.261,0.098-0.505,0.196-0.75,0.277
		c-0.619,0.277-1.239,0.555-1.842,0.848c0.326-0.391,0.668-0.766,1.011-1.141l0.652-0.75c-1.663-1.81-3.391-3.179-5.103-5.135
		c2.82-3.114,6.113-5.56,9.292-7.956h0.212l2.478,3.619v0.342c-1.517,1.108-3.065,2.25-4.434,3.505V22.2
		c0.489,0.652,0.962,1.108,1.516,1.728c2.152-1.663,4.288-3.391,6.554-4.875c-1.304-2.038-2.527-4.108-3.782-6.146
		c3.375-1.989,6.7-3.847,10.221-5.25c0.587,1.402,1.207,2.886,1.696,4.369l-0.033,0.146c-1.63,0.702-3.342,1.37-4.891,2.283
		c0.229,0.783,0.75,1.418,1.109,2.152c2.331-1.076,4.548-2.038,6.912-2.951c-0.701-2.332-1.581-4.564-2.25-6.928
		c3.407-1.027,6.88-2.038,10.434-2.543c0.326,1.467,0.375,3.098,0.848,4.548c-0.962,0.359-2.038,0.359-3,0.669
		c-0.701,0.097-1.402,0.244-2.022,0.586l0.506,2.298c1.076,0,2.038-0.521,3.113-0.554c1.37-0.342,2.804-0.489,4.173-0.75
		c-0.065-2.396-0.505-4.809-0.701-7.173l0.082-0.146c3.554-0.261,7.173-0.44,10.727-0.147c0.146,1.484-0.261,3.065-0.196,4.516
		c0.082,0.212-0.179,0.18-0.326,0.212c-1.516-0.065-3.407-0.212-4.809-0.033c-0.114,0.668-0.082,1.63,0,2.396
		c1.842,0.098,3.619,0.163,5.396,0.244l-0.049,0.13C69.725,11.31,69.545,11.652,69.365,11.978L69.365,11.978z M124.386,59.108
		l0.131,0.782c0.814-0.049,1.662-0.114,2.396-0.342l-0.048-0.505c0.195-0.098,0.439-0.13,0.619-0.261
		c0.098-0.13,0.18-0.359,0.326-0.391c0.179,0.88,0.261,1.695,0.326,2.494c-1.549,0.115-3.18,0.375-4.663,0.261
		c-0.081-0.864-0.163-1.744-0.276-2.608c0.081-0.016,0.162-0.049,0.228-0.065C123.652,58.766,123.994,59.01,124.386,59.108
		L124.386,59.108z M119.919,65.14c-0.017-2.673-0.277-5.314-0.717-7.874c0.424,0.408,0.863,0.815,1.32,1.043
		c0.261,1.81,0.488,3.62,0.505,5.56l0.131,1.923l0.146,0.098l6.732,0.049c0.114,0.098,0.326,0.033,0.359,0.212
		c-0.033,4.255-0.62,8.331-1.354,12.21l-0.114,0.114c-1.483-0.375-3.032-0.603-4.516-0.929c-0.294-0.44,0.18-0.848,0.114-1.336
		c0.326-1.435,0.555-2.951,0.669-4.434c-0.783-0.18-1.565-0.261-2.381-0.293c-0.473,2.853-0.913,5.689-1.663,8.396
		c0.555,0.44,1.402,0.407,2.119,0.701c1.614,0.408,3.18,0.848,4.761,1.336l0.081,0.114c-1.223,3.88-2.559,7.728-4.434,11.347
		l-0.195,0.082c-1.288-0.75-2.69-1.338-3.994-2.039c0.587-1.744,1.516-3.324,2.103-5.102c-0.766-0.342-1.516-0.75-2.314-0.848
		c-0.962,2.543-2.267,4.988-3.521,7.434c2.07,1.223,4.173,2.281,6.211,3.506c-0.44,0.961-0.994,1.891-1.581,2.818
		c-1.631,2.576-3.521,4.99-5.56,7.32h-0.179c-1.044-0.994-2.299-2.004-3.326-2.967c1.027-1.582,2.429-3.131,3.505-4.727
		l-0.032-0.148l-1.842-1.303c-1.565,1.924-3.146,3.961-4.81,5.818l-0.669,0.734c1.663,1.811,3.392,3.18,5.104,5.135
		c-2.82,3.115-6.113,5.559-9.292,7.955h-0.213l-2.478-3.619v-0.342c1.517-1.107,3.064-2.25,4.434-3.504v-0.18
		c-0.488-0.668-0.962-1.109-1.516-1.744c-2.152,1.662-4.287,3.406-6.554,4.873c1.305,2.039,2.527,4.109,3.782,6.146
		c-3.375,2.006-6.7,3.848-10.205,5.25c-0.604-1.402-1.223-2.887-1.712-4.354l0.033-0.162c1.63-0.701,3.342-1.354,4.891-2.283
		c-0.229-0.781-0.733-1.402-1.109-2.15c-2.331,1.074-4.548,2.037-6.911,2.965c0.701,2.332,1.581,4.549,2.249,6.914
		c-3.407,1.043-6.88,2.037-10.434,2.559c-0.325-1.484-0.358-3.113-0.848-4.564c0.962-0.359,2.038-0.359,3-0.652
		c0.701-0.115,1.401-0.262,2.038-0.604l-0.522-2.281c-1.075,0-2.037,0.506-3.113,0.553c-1.369,0.326-2.804,0.475-4.173,0.734
		c0.064,2.412,0.521,4.809,0.7,7.174l-0.081,0.146c-3.538,0.26-7.173,0.455-10.727,0.146c-0.146-1.467,0.261-3.064,0.195-4.5
		c-0.082-0.229,0.18-0.195,0.327-0.229c1.516,0.082,3.407,0.229,4.809,0.033c0.114-0.668,0.082-1.631,0-2.396
		c-2.396-0.113-4.695-0.195-6.993-0.342c-0.408,2.33-0.44,4.891-0.848,7.189c-0.375,0.146-0.587-0.049-0.961-0.049
		c-3.408-0.408-6.701-1.076-9.879-1.99c0.457-1.482,0.896-2.967,1.304-4.449c0.995,0.08,1.989,0.521,3.032,0.668
		c0.701,0.195,1.483,0.342,2.25,0.406c0.293-0.732,0.293-1.58,0.489-2.395c-0.636-0.229-1.337-0.262-1.973-0.49
		c-1.76-0.439-3.538-0.881-5.282-1.434c-0.848,2.25-1.435,4.613-2.299,6.879c-3.619-1.076-6.977-2.674-10.352-4.434l-0.114-0.115
		c0.75-1.369,1.517-2.771,2.266-4.141c1.582,0.766,3.146,1.695,4.809,2.332c0.245-0.049,0.245-0.344,0.359-0.521l0.75-1.713
		c-2.152-1.141-4.369-2.07-6.439-3.391c-1.402,1.99-2.56,4.174-3.88,6.178c-3.179-1.891-6.228-4.221-9.146-6.699l0.049-0.229
		l2.918-3.293h0.326c1.157,1.043,2.511,2.152,3.733,3.082l0.228,0.031l1.402-1.891c-1.891-1.58-3.913-3.293-5.804-5.07l-5.135,5.119
		c-2.853-2.787-5.413-5.885-7.662-9.064l0.114-0.26l3.652-2.479c1.19,1.174,2.119,3.146,3.521,4.287h0.179l1.744-1.516
		c-1.744-2.152-3.407-4.336-4.744-6.668l-0.146-0.098c-2.071,1.256-4.173,2.396-6.211,3.652c-2.217-3.439-3.961-7.092-5.217-10.939
		c0.293-0.26,0.75-0.26,1.011-0.488c1.06-0.408,2.217-0.768,3.326-1.109c0.668,1.744,1.32,3.521,2.25,5.186
		c0.848,0,1.516-0.637,2.298-0.963c-1.157-2.592-2.185-5.217-3.081-7.923c-2.282,0.669-4.581,1.337-6.879,2.071
		c-1.402-4.109-2.136-8.723-2.543-13.206c1.549-0.097,3.179-0.358,4.663-0.26c0.212,2.038,0.359,4.189,0.88,6.146l0.114,0.147
		c0.847-0.033,1.63-0.261,2.364-0.473c-0.359-2.869-0.88-5.542-0.913-8.526l-0.13-1.924l-0.146-0.114l-6.733-0.033
		c-0.098-0.114-0.326-0.049-0.359-0.228c0.016-2.755,0.277-5.429,0.652-8.021c0.424-0.033,0.847-0.18,1.239-0.277
		c-0.195,1.173-0.31,2.38-0.457,3.521c-0.032,1.255-0.293,2.478-0.065,3.733c2.331,0.163,4.695,0.114,7.091,0.228l0.016,1.826
		c0.033,3.7,0.505,7.336,1.288,10.775l-0.146,0.147c-1.549,0.212-3.114,0.554-4.63,0.913c-0.44-2.136-0.734-4.435-1.109-6.57
		c-0.815,0.032-1.663,0.098-2.396,0.326c0.326,3.586,1.027,6.847,1.957,10.171c2.038-0.293,3.961-1.042,5.95-1.515
		c0.408-0.033,0.864-0.489,1.255-0.146c0.75,3.439,2.233,6.585,3.782,9.683l-0.082,0.195l-4.092,2.07l-0.196-0.049
		c-0.88-1.76-1.695-3.586-2.478-5.428l-2.217,0.814c0.375,1.777,1.288,3.408,2.07,5.07c0.636,1.141,1.223,2.363,2.005,3.439h0.212
		l6.113-3.439l0.098,0.064c1.712,2.918,3.783,5.771,5.967,8.396l-3.554,3.146c-1.402-1.402-2.413-3-3.619-4.516
		c-0.717,0.293-1.37,0.814-2.005,1.336c1.597,2.512,3.668,5.037,5.803,7.141l0.261-0.033c1.81-1.629,3.375-3.406,5.135-4.922
		c2.298,2.135,4.565,4.32,7.141,6.031l0.228,0.26c-0.929,1.322-1.81,2.658-2.771,3.945c-1.37-1.025-2.853-2.135-4.337-3.244
		c-0.505,0.475-1.027,1.143-1.434,1.697v0.227c2.103,1.875,4.369,3.506,6.7,4.988h0.293c1.255-1.955,2.625-3.879,3.701-5.916
		l0.18-0.148c0.57,0.344,1.141,0.686,1.728,1.027c0.163,0.213,0.342,0.424,0.554,0.604c0.179,0.082,0.228,0.277,0.358,0.424
		c0.033,0.066,0.163,0.066,0.163,0.164c0.994,0.75,1.989,1.482,3.179,1.824c0.636,0.262,1.337,0.311,1.973,0.457l0.26,0.018
		c-0.554,1.434-1.027,2.934-1.744,4.318c-1.744-0.699-3.358-1.662-5.103-2.363l-1.076,2.037c0.44,0.506,1.108,0.734,1.695,1.061
		c1.973,0.961,3.994,1.859,6.081,2.561l0.179-0.115l2.364-6.65l0.147-0.082c1.549,0.488,3.114,1.01,4.663,1.418
		c1.451,0.439,3,0.586,4.516,0.881c-0.147,1.598-0.554,3.178-0.75,4.809l-0.147,0.064c-1.728-0.439-3.538-0.701-5.249-1.141
		c-0.212,0.783-0.473,1.549-0.62,2.363c2.657,0.783,5.396,1.338,8.249,1.598c0.326-2.412,0.587-4.842,0.962-7.254
		c2.918,0.293,6.097,0.375,9.015,0.262c0.196,1.662,0.229,3.324,0.229,4.842c-1.858,0.227-3.472-0.033-5.364,0.049
		c-0.146,0.766-0.26,1.613-0.081,2.396l0.081,0.113c2.543,0.146,5.396,0.146,7.989-0.18l0.179-0.195
		c-0.179-2.299-0.358-4.695-0.668-6.945l0.31-0.309c3.098-0.18,6.016-0.963,8.869-1.549c0.554,1.516,0.896,3.064,1.336,4.598
		l-0.228,0.178c-1.582,0.295-3.18,0.621-4.729,1.076c0.114,0.816,0.294,1.582,0.521,2.363c2.69-0.373,5.201-1.074,7.679-1.922
		v-0.441c-0.651-2.217-1.516-4.369-2.021-6.617c1.419-0.506,2.82-1.027,4.19-1.615c0.325-0.049,0.668-0.113,1.01-0.129
		c0.538-0.051,1.044-0.375,1.565-0.523c0.733-0.326,1.451-0.75,2.103-1.271c0.75,1.338,1.451,2.723,2.12,4.092
		c-1.631,0.848-3.294,1.549-4.924,2.316c0.114,0.814,0.473,1.678,0.994,2.33c2.625-1.107,5.217-2.281,7.662-3.912
		c-1.157-2.104-2.478-4.141-3.732-6.211c2.478-1.744,5.053-3.293,7.319-5.332l0.962-0.848c1.076,1.076,2.07,2.299,3.179,3.506
		c-0.815,1.01-1.891,1.744-2.886,2.559c-0.554,0.473-1.287,0.881-1.809,1.436c0.407,0.668,0.88,1.271,1.401,1.891
		c2.706-1.729,5.07-3.766,7.434-6.293c-1.549-1.58-3.554-3.586-5.103-5.135c2.299-2.479,4.695-5.217,6.651-8.102h0.293
		c1.224,0.848,2.527,1.598,3.75,2.477v0.197c-1.157,1.58-2.38,3.211-3.554,4.76c0.408,0.604,1.076,0.93,1.663,1.451h0.293
		c2.07-2.479,4.027-5.07,5.445-7.842l-6.113-3.586v-0.344c1.81-2.836,3.114-5.918,4.336-8.982l0.146-0.113
		c1.436,0.586,2.951,1.043,4.435,1.598c-0.555,1.777-1.401,3.439-2.152,5.168c0.311,0.488,0.963,0.488,1.37,0.814
		c0.261,0.082,0.555,0.262,0.815,0.195c1.418-2.82,2.592-5.738,3.407-8.852c-2.299-0.701-4.63-1.402-6.913-2.103
		c0.913-3.407,1.631-6.7,1.957-10.352c0.439-0.147,1.043-0.082,1.516-0.049l3.212,0.31c0.049,1.956-0.506,3.88-0.701,5.836
		c0.701,0.261,1.483,0.326,2.217,0.489c0.636-1.891,0.782-4.043,1.044-6c0.032-1.255,0.293-2.478,0.081-3.733
		c-2.331-0.146-4.711-0.114-7.107-0.229L119.919,65.14L119.919,65.14z M51.792,114.404c8.754,2.43,18.846,2.512,27.583,0.098
		c0.098,0.049,0.196,0.098,0.311,0.131c0.505,0.115,0.945,0.408,1.483,0.506c-8.738,2.756-18.243,3.129-27.845,0.881
		c-1.06-0.244-2.103-0.521-3.146-0.848C50.732,114.943,51.27,114.682,51.792,114.404L51.792,114.404z M15.356,63.868
		c-0.701,16.986,7.564,33.239,21.013,43.005c0.033,0.229,0.082,0.439,0.147,0.637c0,0.309,0.033,0.619,0.098,0.912
		c-8.445-5.9-15.373-14.361-18.845-23.736c-2.038-5.249-3.358-10.971-3.587-16.954h-0.114c-0.049-1.793,0-3.554,0.13-5.298
		c0.408,0.277,0.783,0.554,1.19,0.815L15.356,63.868L15.356,63.868z M116.332,67.732c0.147-3.261-0.049-6.489-0.537-9.651
		c0.391-0.033,0.766-0.245,1.092-0.505c0.343,2.054,0.555,4.157,0.636,6.292h0.114c0.293,12.569-3.799,24.03-11.135,33.729
		c-3.619,4.482-7.776,8.281-12.324,11.297c0.065-0.211,0.195-0.408,0.261-0.635c0.032-0.408,0.195-0.768,0.294-1.158
		c0.799-0.57,1.598-1.141,2.38-1.744c11.705-9.473,18.454-22.645,19.236-37.625H116.332L116.332,67.732z M55.818,16.266
		c-3.488,0.668-6.831,1.728-9.863,3.146c-0.261,0.114-0.521,0.245-0.782,0.359c-0.196-0.114-0.358-0.228-0.538-0.326
		c-0.114-0.082-0.212-0.212-0.293-0.278c-0.098-0.048-0.195-0.114-0.261-0.179c4.532-2.152,9.357-3.619,14.346-4.353
		c-0.668,0.359-1.32,0.718-1.972,1.125C56.259,15.939,56.047,16.102,55.818,16.266L55.818,16.266z M85.929,63.526
		c-0.277,0.049-0.456,0.228-0.587,0.407c-0.049,0.082-0.114,0.18-0.163,0.277l-0.098,0.212c-0.636,0.652-1.271,1.19-2.104,1.288
		c-0.961-0.146-1.809-0.636-2.607-1.239c-0.147-0.049-0.31-0.13-0.506-0.228c-0.179-0.098-0.358-0.212-0.538-0.31
		c-1.418-0.994-3.424-0.766-5.054-0.521c-0.831,0-1.564,0.359-2.2,0.799c-0.229,0.049-0.424,0.163-0.587,0.31
		c-0.163,0.13-0.326,0.277-0.473,0.424c-0.065,0.049-0.147,0.114-0.213,0.196c-0.064,0.082-0.162,0.196-0.195,0.326l-0.016,0.082
		c0,0.049-0.017,0.098-0.017,0.163c0.017,0.18,0.163,0.31,0.424,0.245l0.114-0.016l0.212-0.082l0.261,0.13l0.016-0.407
		c0-0.017,0.05-0.049,0.131-0.098c0.082-0.049,0.18-0.098,0.277-0.146c0.505-0.359,0.962-0.571,1.5-0.734
		c0.521-0.179,1.125-0.293,1.891-0.457c1.353,0.049,2.201,0.18,3.13,0.538c0.62,0.293,1.093,0.62,1.483,0.929l0.229,0.212
		l-0.195-0.082c-0.163-0.065-0.326-0.114-0.44-0.13c-1.564-0.505-3.228-0.782-4.972-0.603c-1.451,0.261-2.886,0.978-3.832,2.054
		c-0.016,0.032-0.032,0.048-0.081,0.163c-0.049,0.065-0.13,0.179-0.163,0.294c-0.032,0.13-0.032,0.261,0.049,0.423
		c-0.049,0.017-0.098,0.049-0.163,0.114c-0.098,0.147-0.098,0.31-0.081,0.44c0.017,0.114,0.065,0.228,0.081,0.342
		c0.114,0.293,0.311,0.391,0.489,0.457c0.065,0.033,0.146,0.049,0.229,0.081c0.065,0.017,0.13,0.049,0.261,0.13
		c0.962,0.163,1.81,0.489,2.755,0.702c1.777,0.538,3.831,0.342,5.412-0.489c0.897-0.375,1.794-0.913,2.608-1.5l0.163-0.163
		l0.163-0.114c0.049-0.065,0.065-0.081,0.163-0.179l0.146-0.244c-0.016-0.163-0.049-0.277-0.146-0.375l-0.098-0.081l-0.163-0.114
		l-0.098-0.065l-0.212-0.13l-0.098-0.065c0.538,0.016,1.19,0,1.45-0.033c0.359-0.18,0.701-0.261,0.995-0.392
		c0.326-0.13,0.619-0.326,0.848-0.717c0.049-0.032,0.098-0.065,0.13-0.097l0.098-0.131c0.065-0.082,0.114-0.147,0.245-0.245
		c0.065-0.13,0.163-0.26,0.244-0.391c0.082-0.146,0.18-0.293,0.229-0.457c0.114-0.245-0.017-0.505-0.229-0.685L85.929,63.526
		L85.929,63.526z M71.974,68.531c-0.13-0.033-0.276-0.049-0.407-0.098c-0.212-0.065-0.358-0.163-0.473-0.342l0.081-0.082
		c0.131-0.277,0.375-0.457,0.718-0.668l0.163-0.146c-0.065,0.245-0.065,0.473-0.049,0.717c0.032,0.212,0.081,0.44,0.13,0.652
		L71.974,68.531L71.974,68.531z M79.896,68.514c-0.065,0.033-0.13,0.049-0.179,0.081l-0.212,0.114
		c-0.065,0.033-0.131,0.065-0.229,0.098l-0.13,0.033c-1.337,0.88-3.228,0.75-4.891,0.391c-0.555-0.082-0.962-0.538-1.224-1.06
		c-0.032-0.081-0.032-0.163-0.016-0.293c0-0.146,0.032-0.277,0.049-0.424c0.016-0.261-0.017-0.571-0.358-0.733
		c1.826-1.092,4.401-1.044,6.275-0.212c0.099,0.065,0.196,0.131,0.311,0.18c0.098,0.048,0.229,0.098,0.326,0.146
		c0.211,0.114,0.342,0.212,0.424,0.327c0,0.277,0.065,0.586,0.065,0.863C80.109,68.302,80.061,68.449,79.896,68.514L79.896,68.514z
		 M81.055,67.813c-0.114,0.065-0.196,0.016-0.229-0.115c-0.049-0.277,0.229-0.065,0.358-0.081
		C81.185,67.683,81.087,67.764,81.055,67.813L81.055,67.813z M86.287,61.782c-0.391,0.048-0.766,0.13-1.141,0.195
		c-0.375,0.065-0.75,0.114-1.108,0.065c-0.538-0.016-1.093-0.114-1.582-0.228c-0.179-0.098-0.358-0.179-0.521-0.245
		c-0.179-0.065-0.358-0.114-0.538-0.179c-0.358-0.098-0.717-0.212-1.043-0.423c-0.913-0.359-1.892-0.571-2.82-0.946
		c-0.685-0.098-1.32-0.049-2.054,0.065c-0.44,0.179-0.93,0.326-1.419,0.473c-0.473,0.163-0.962,0.358-1.401,0.701
		c-0.082,0.195-0.261,0.31-0.44,0.424l-0.146,0.098c-0.05,0.032-0.099,0.065-0.131,0.098c-0.081,0.081-0.163,0.163-0.212,0.277
		c-0.342,0.293-0.668,0.636-1.027,0.93c-0.342,0.31-0.733,0.57-1.189,0.701c-0.082,0.049-0.245,0.146-0.294,0.326
		c0.114,0.195,0.343,0.228,0.521,0.212h0.311c0.098,0,0.179,0,0.31,0.016c0.392-0.13,0.717-0.359,1.011-0.636
		c0.293-0.277,0.57-0.57,0.863-0.847c0.571-0.652,1.256-1.19,2.12-1.467c0.277-0.016,0.505-0.114,0.717-0.229l0.326-0.163
		c0.098-0.049,0.195-0.082,0.31-0.13c0.195,0.048,0.392,0.048,0.587,0.048c0.212-0.016,0.424-0.033,0.636-0.033
		c0.408-0.016,0.799,0.017,1.141,0.245c0.783,0.146,1.419,0.457,2.3,0.685c0.212,0.146,0.456,0.245,0.685,0.342
		c0.229,0.098,0.456,0.179,0.619,0.277l0.114,0.016h0.114c0.032,0,0.065,0,0.179,0.049c0.686,0.098,1.354,0.229,2.006,0.261
		c0.636,0.033,1.271-0.049,1.924-0.358c0.113,0.033,0.179,0,0.228-0.065l0.098-0.081l0.099-0.131c0-0.032,0.016-0.082,0.016-0.114
		C86.45,61.928,86.435,61.847,86.287,61.782L86.287,61.782z M59.34,83.691c0.31-0.064,0.62-0.146,0.913-0.229
		c0.31-0.082,0.603-0.131,0.896-0.146c0.326-0.082,0.668-0.049,0.995,0.049c0.342,0.082,0.668,0.229,1.027,0.342
		c0.163-0.031,0.229-0.26,0.195-0.424c-0.098-0.129-0.245-0.26-0.407-0.342c-0.962-0.945-2.625-0.701-3.75-0.293
		c-0.196,0.016-0.407,0.098-0.619,0.131c-0.196,0.031-0.359,0.016-0.49-0.164c-0.261-0.211-0.31-0.587-0.261-0.962
		c-0.179-0.195-0.473-0.13-0.668,0.049c-0.195,0.62,0.098,1.174,0.44,1.565C58.117,83.789,58.736,83.805,59.34,83.691L59.34,83.691z
		 M70.54,91.516c-0.995,0.326-2.071,0.652-3.195,0.701c-0.538,0.131-1.076,0.115-1.631,0.033c-0.538-0.082-1.076-0.211-1.598-0.293
		c-0.407-0.033-0.799-0.033-1.19,0c-0.375,0.031-0.75,0.098-1.125,0.146c-0.75,0.098-1.483,0.162-2.282-0.016
		c-0.228,0-0.407-0.1-0.603-0.195c-0.098-0.066-0.196-0.115-0.293-0.164c-0.098-0.033-0.212-0.082-0.343-0.082
		c-0.212-0.113-0.343,0.115-0.358,0.229c-0.065,0.146-0.017,0.262,0.049,0.359c0.033,0.031,0.065,0.08,0.098,0.129
		c0.032,0.033,0.065,0.066,0.098,0.131c1.043,0.848,2.658,0.896,3.913,0.588c0.457-0.18,0.929-0.195,1.435-0.164
		c0.489,0.033,0.995,0.098,1.467,0.098c0.913,0.277,1.842,0.246,2.755,0.1c0.896-0.148,1.81-0.408,2.674-0.637
		c0.163-0.064,0.375-0.115,0.538-0.195c0.195-0.082,0.358-0.229,0.392-0.521C71.24,91.484,70.816,91.24,70.54,91.516L70.54,91.516z
		 M74.094,88.762c-0.099-0.115-0.196-0.229-0.311-0.342c-0.228-0.229-0.521-0.424-0.961-0.424l-0.098,0.031
		c-0.376,0.244-0.213,0.57-0.115,0.734l0.065,0.098c0.017,0.033,0.017,0.064,0,0.113c-0.505,0.229-1.076,0.375-1.63,0.473
		c-0.717,0.131-1.418,0-2.136-0.178c-0.358-0.1-0.717-0.197-1.076-0.295c-0.375-0.08-0.75-0.162-1.141-0.178
		c-0.457,0.016-0.832,0.195-1.158,0.357c-0.146,0.082-0.31,0.164-0.473,0.229c-0.147,0.064-0.277,0.098-0.457,0.131
		c-0.44-0.195-0.896-0.393-1.402-0.521c-0.505-0.131-1.06-0.18-1.63-0.066c-0.473,0.066-0.929,0.195-1.369,0.311
		c-0.424,0.113-0.832,0.229-1.223,0.262c-0.423,0-0.848,0.064-1.255,0.049c-0.293,0-0.57-0.049-0.832-0.262
		c0.017-0.049,0.032-0.146,0.017-0.229c0-0.098-0.049-0.244-0.18-0.326c-0.326-0.146-0.587-0.064-0.799,0.098
		c-0.098,0.066-0.179,0.146-0.261,0.229l-0.114,0.113l-0.098,0.1l-0.064,0.08c-0.033,0.082-0.065,0.148-0.131,0.213
		c-0.065,0.08-0.13,0.146-0.195,0.213c-0.146,0.162-0.31,0.373-0.229,0.781c0.114,0.18,0.342,0.375,0.636,0.342l0.114-0.049
		c0.097-0.098,0.179-0.18,0.26-0.26c0.065-0.066,0.147-0.131,0.245-0.18c0.13-0.033,0.277,0,0.424,0.082
		c0.929,0.553,1.858,0.455,2.739,0.211c0.424-0.113,0.848-0.277,1.271-0.424c0.424-0.131,0.832-0.244,1.288-0.293
		c0.424-0.115,0.815-0.033,1.207,0.113c0.424,0.146,0.815,0.375,1.206,0.555c0.408,0.146,0.767,0.098,1.092-0.033
		c0.163-0.064,0.31-0.146,0.44-0.227c0.13-0.082,0.261-0.18,0.375-0.277c0.407-0.359,1.125-0.246,1.728-0.033
		c0.864,0.604,2.2,0.717,3.261,0.49c0.407-0.131,0.863-0.229,1.304-0.328c0.424-0.098,0.848-0.195,1.271-0.357l0.424,0.244
		c0.277,0.164,0.555,0,0.652-0.229l0.016-0.146c-0.098-0.244-0.212-0.521-0.439-0.717C74.272,88.957,74.175,88.859,74.094,88.762
		L74.094,88.762z M63.139,82.502c0.212,0.098,0.456,0.18,0.701,0.244s0.489,0.113,0.766,0.162c0.506-0.049,1.043-0.162,1.533-0.424
		l0.082-0.129c0-0.049,0-0.131,0-0.229c0-0.099-0.033-0.229-0.245-0.359c-0.31-0.016-0.635,0.017-0.945,0.017
		c-0.31,0.016-0.62,0.033-0.929-0.017c-0.848-0.081-1.369-0.668-1.598-1.467c-0.358-1.092-0.228-2.103,0.016-3.113
		c0.114-0.522,0.245-1.027,0.359-1.549c0.098-0.505,0.18-1.027,0.212-1.679c-0.032-0.701-0.146-1.467-0.196-2.25
		c-0.049-0.767-0.049-1.533,0.164-2.266c-0.049-0.603-0.017-1.174,0.016-1.728c0.033-0.554,0.049-1.092-0.016-1.646
		c0.114-0.195,0.098-0.392,0.049-0.554c-0.017-0.082-0.049-0.163-0.065-0.261c-0.033-0.082-0.033-0.147-0.033-0.229l-0.049-0.114
		c-0.082-0.065-0.114-0.13-0.147-0.244l-0.048-0.082h-0.098c-0.114,0-0.195,0.016-0.261,0.065l-0.114,0.098l-0.277,0.13l0.18,0.082
		l-0.049,0.114c-0.065,1.092,0.098,2.136,0.032,3.097c-0.016,0.685-0.163,1.305-0.228,1.924c-0.098,0.636-0.114,1.271,0.082,1.94
		c0.033,0.423,0.082,0.848,0.114,1.271c0.049,0.408,0.065,0.831,0.016,1.239c-0.082,0.408-0.147,0.848-0.244,1.288
		c-0.082,0.424-0.18,0.848-0.343,1.272c-0.228,1.484-0.391,3.048,0.457,4.369C62.258,81.98,62.666,82.307,63.139,82.502
		L63.139,82.502z M88.961,19.477l0.245,0.212c1.336,0.995,2.787,1.712,4.336,2.429C92.059,21.156,90.526,20.276,88.961,19.477
		L88.961,19.477z M70.54,71.986c0.113,0.082,0.26,0,0.26-0.146c-0.113-0.212-0.064-0.391-0.146-0.62
		c-0.098-0.277-0.358-0.456-0.424-0.75c-0.505-0.848-0.766-1.777-1.043-2.706c-0.114-0.228-0.293-0.424-0.538-0.44
		c-0.082,0.065-0.146,0.13-0.18,0.212c0.033,0.75,0.229,1.532,0.522,2.233C69.398,70.552,69.725,71.514,70.54,71.986L70.54,71.986z
		 M66.562,83.137c0.05,0.033,0.114,0.066,0.229,0.049c0.146-0.064,0.326-0.098,0.555-0.098c0.211,0,0.423,0,0.619,0
		c0.521-0.033,1.076-0.033,1.598-0.098c0.538-0.082,1.06-0.229,1.467-0.57c0.685-0.342,0.701-1.174,0.604-1.858l-0.18-0.245
		c-0.375-0.033-0.538,0.163-0.603,0.424c-0.033,0.114-0.065,0.245-0.082,0.375c-0.032,0.114-0.049,0.229-0.081,0.31
		c-0.604,0.832-1.777,0.881-2.771,0.814l-1.271,0.311c-0.032,0.033-0.065,0.049-0.099,0.082l-0.113,0.08
		c-0.081,0.082-0.131,0.18-0.017,0.342L66.562,83.137L66.562,83.137z M64.328,84.85c-0.212,0.031-0.179,0.26-0.244,0.408
		c0.603,0.342,1.467,0.684,2.103,0.129c0.082-0.162,0.26-0.293,0.211-0.506c0.017-0.146-0.098-0.162-0.211-0.162
		C65.73,85.027,64.899,84.996,64.328,84.85L64.328,84.85z M68.354,86.545c-0.228-0.131-0.456-0.277-0.7-0.408
		c-0.245-0.113-0.489-0.211-0.782-0.244c-0.425-0.131-0.767-0.033-1.093,0.113c-0.146,0.066-0.31,0.146-0.457,0.229
		c-0.146,0.066-0.277,0.131-0.424,0.164c-0.701-0.441-1.402-0.359-2.07-0.115c-0.342,0.131-0.668,0.277-1.011,0.441
		C61.492,86.871,61.166,87,60.839,87.1c-0.097,0.064-0.211,0.08-0.326,0.08s-0.245-0.031-0.358-0.049
		c-0.245-0.049-0.538-0.082-0.733,0.18c-0.065,0.082-0.049,0.162-0.017,0.229c0,0.033,0.017,0.064,0.114,0.18
		c0.652,0.277,1.32,0.26,1.973,0.016c0.196-0.049,0.375-0.131,0.554-0.213c0.18-0.08,0.343-0.162,0.505-0.244
		c0.326-0.146,0.636-0.277,0.995-0.26L63.627,87c0.114-0.016,0.229,0.018,0.358,0.082l0.212,0.082
		c0.065,0.033,0.146,0.064,0.245,0.064c0.048,0,0.114,0.018,0.179,0.033c0.065,0.016,0.146,0.049,0.211,0.082
		c0.147,0.049,0.326,0.098,0.538,0.031c0.668-0.553,1.304-0.424,1.973-0.162c0.342,0.131,0.685,0.293,1.043,0.424
		c0.358,0.113,0.733,0.195,1.142,0.162l0.113-0.064l0.146-0.016c0.05,0,0.099,0,0.164-0.018c0.064-0.016,0.113-0.049,0.162-0.146
		c0.033-0.162-0.016-0.439-0.261-0.537C69.268,87.066,68.812,86.838,68.354,86.545L68.354,86.545z M128.461,55.554
		c0-0.864-0.293-1.744-0.407-2.608c-0.244-0.326-0.163-0.767-0.343-1.076c-0.065-0.832-0.636-1.435-0.799-2.217
		c-0.488-1.222-1.075-2.282-1.76-3.472c-0.065-0.896-0.163-1.663-0.392-2.478c-0.147-0.146-0.179-0.261-0.294-0.408
		c-0.032-0.146-0.146-0.277-0.179-0.456c-0.098-0.082-0.114-0.245-0.212-0.359c-0.358-0.734-0.832-1.582-1.435-2.12
		c-0.587-0.994-1.517-1.858-2.299-2.722c-0.18-0.147-0.506-0.31-0.604-0.506c-0.88-0.913-1.988-1.695-3.031-2.494
		c-0.262-0.098-0.506-0.261-0.718-0.424c-0.587-0.391-1.271-0.766-1.907-1.109c-1.369-0.57-2.608-1.206-4.043-1.728
		c-0.815-0.293-1.614-0.636-2.494-0.782c-0.767-0.065-1.386-0.522-2.054-0.766c-0.62-0.179-1.044-0.685-1.55-0.978
		c-0.505-0.473-1.108-0.767-1.581-1.19c-0.44-0.293-0.896-0.521-1.223-0.896c-1.467-1.141-2.608-3.016-4.336-3.929
		c-1.076-0.309-2.218-0.864-3.293-0.717c-1.517-0.717-2.968-1.435-4.304-2.429c-0.44-0.408-0.897-0.75-1.387-1.108
		c-1.874-1.907-4.287-3.244-7.042-3.277c-0.44,0.065-0.881,0.245-1.305,0.147c-1.189-2.038-3.635-2.25-5.656-2.967
		c-1.027-0.391-1.582-1.386-2.005-2.332c-0.033-0.276-0.213-0.489-0.229-0.814c-0.098-0.212-0.31-0.359-0.506-0.457
		c-0.293-0.131-0.603,0.049-0.815,0.228c-0.211,0.62-0.13,1.304-0.357,1.875c-0.245,0.424-0.489,0.913-0.718,1.304
		c-0.473,0.718-1.337,1.288-2.021,1.402c-0.668-0.375-1.418-0.489-2.152-0.652c-0.277-0.049-0.652,0-0.913-0.065
		c-1.63,0.065-3.309,0.358-4.581,1.092c-1.076,0.57-2.054,1.076-3.064,1.695c-0.848,0.815-1.94,1.173-2.788,1.939
		c-0.619,0.359-1.027,0.686-1.63,1.011c-1.467,1.043-3.407,1.826-5.282,1.614c-0.799,0.114-1.5-0.538-2.119-0.88
		c-0.114-0.082-0.212-0.212-0.293-0.278c-0.603-0.293-0.668-1.01-1.027-1.451c-0.293-0.147-0.114-0.538-0.358-0.734
		c-0.228-0.114-0.554-0.114-0.799,0c-1.043,0.897-2.136,1.614-2.641,2.837c-0.456,1.093-1.01,2.217-0.815,3.57
		c-0.44,0.375-1.043,0.587-1.516,0.962c-0.326,0.293-0.832,0.57-1.19,0.945c-0.424,0.473-0.962,0.962-1.255,1.533
		c0.049,0.146-0.114,0.146-0.163,0.195c-1.092,0.033-2.332,0.049-3.538,0.179c-1.646,0.212-3.113,0.946-4.63,1.467
		c-1.467,0.636-2.918,1.337-4.238,2.185c-0.636,0.293-1.223,0.815-1.761,1.223c-0.717,0.668-1.598,1.174-2.233,1.94
		c-0.473,0.457-0.929,0.913-1.239,1.517c0.164,0.44-0.358,0.88,0.082,1.222c-0.293,0.473-0.946,0.864-1.142,1.451
		c-2.038,0.848-3.733,2.168-5.461,3.521c-1.614,1.5-3.179,2.934-4.288,4.841c-0.245,0.13-0.114,0.424-0.359,0.489
		c-0.049,0.146-0.195,0.228-0.276,0.358c-0.359,0.848-0.864,1.598-1.142,2.495c-0.212,0.26-0.229,0.603-0.359,0.896
		c-0.048,0.147-0.114,0.326-0.146,0.489L3.717,52c-0.065,0.163,0.049,0.375-0.147,0.473c-0.082,0.196-0.212,0.473-0.065,0.668
		c-0.098,0.521,0.146,0.88,0.342,1.255c-0.016,0.342-0.359,0.57-0.489,0.864c-0.229,0.278-0.424,0.636-0.652,0.913
		C2.559,56.646,3,57.037,3.276,57.331c0.717,0.229,1.451-0.082,2.136-0.261c0.945-0.211,1.728-0.733,2.625-1.076
		c0.277,1.043,0.538,2.217,1.5,2.934c0.505,0.293,1.158,0.375,1.744,0.359c0.603,0.212,1.027-0.228,1.484-0.391
		c0.065,0,0.098,0.049,0.082,0.114c-0.131,1.19,0.342,2.266,0.978,3.163c0.733,0.473,1.304,0.961,2.086,1.402
		c-0.065,0.603,0.082,1.173,0.18,1.679c0.195,0.293,0.195,0.717,0.407,1.01c0.701,1.484,2.103,2.315,3.457,3.082
		c1.027,0.358,1.891,0.489,3.016,0.163c0.065-0.065,0.212-0.114,0.293-0.081c0.212,0.783,0.489,1.516,0.848,2.233
		c0.212,0.244,0.375,0.505,0.522,0.717c0.163,0.473,0.57,0.798,0.847,1.19c0.424,0.587,1.141,0.799,1.517,1.451
		c0.31,0.913,1.076,1.728,2.005,2.038c0.098,0.179,0.424,0.098,0.375,0.358c-0.31,0.343-0.31,0.848-0.554,1.255
		c0.032,0.799-0.049,1.826,0.326,2.56c-0.017,0.277,0.179,0.408,0.228,0.684c0.017,0.017,0.065,0.082,0.13,0.082
		c0.131,0.637,0.668,0.93,1.076,1.305c0.163,0.652,0.652,1.156,1.141,1.598c0.326,0.211,0.75,0.342,1.125,0.488
		c0,0.195,0,0.375,0.065,0.539c0.114,0.553,0.261,1.092,0.44,1.613c0.065,0.408,0.326,0.799,0.538,1.092
		c0.13,0.391,0.457,0.686,0.604,1.043c-0.229,0.359-0.391,0.783-0.571,1.158c-0.326,1.061-0.359,1.973-0.082,3.049
		c0.065,0.146,0.065,0.326,0.212,0.455c0.424,1.223,1.565,2.137,2.723,2.691c0.293,0.406,0.456,0.83,0.489,1.336
		c0.18,0.863-0.114,1.695-0.261,2.527c-0.033,0.439-0.098,0.994-0.228,1.402c-0.017,0.098,0.016,0.18-0.049,0.244
		c-0.016,0.652-0.163,1.174-0.244,1.793c-0.017,0.213,0.016,0.311-0.065,0.439c0,0.881-0.212,1.908,0.098,2.74
		c-0.032,0.896,0.359,1.711,0.538,2.543c0.636,0.979,1.174,2.086,2.087,3.016c0.179,0,0.228,0.195,0.358,0.342
		c0.033,0.066,0.163,0.066,0.163,0.164c0.994,0.75,1.989,1.482,3.179,1.824c0.636,0.262,1.337,0.311,1.973,0.457
		c1.157,0.066,2.575,0.146,3.668-0.162c3.309-0.701,5.689-3.049,8.688-4.436c0.979-0.309,1.908-0.814,3.033-0.766
		c0.244,0.213,0.277,0.668,0.538,0.783c0.326,0.717,1.027,1.189,1.728,1.467c0.538,0.229,1.222,0.229,1.891,0.293
		c0.799,0.016,1.663-0.131,2.347-0.555c0.425-0.08,0.489-0.488,0.864-0.699c0.718,0.537,1.68,0.65,2.608,0.65
		c0.392,0.18,0.864,0.213,1.32,0.164c0.93-0.311,1.631-0.994,2.104-1.842c0.179-0.311,0.358,0.049,0.505,0.146
		c0.131,0.113,0.343,0.146,0.392,0.293c0.832,0.766,1.614,1.5,2.56,2.152l1.223,0.717c0.505,0.082,0.929,0.424,1.402,0.57
		c0.636,0.146,1.157,0.555,1.891,0.555c0.065,0,0.13,0.113,0.195,0.016c0.392,0.082,0.815,0.131,1.206,0.277
		c0.587-0.033,1.175,0.146,1.761,0.113c0.294-0.016,0.555-0.047,0.832,0.033c0.668-0.049,1.304-0.229,1.988-0.275
		c0.538-0.051,1.044-0.375,1.565-0.523c1.19-0.537,2.364-1.32,3.162-2.363c0.571-0.195,0.522-0.863,0.913-1.189
		c0.18-0.652,0.489-1.32,0.881-1.891c-0.065-0.066,0.017-0.131,0.065-0.148c-0.017-0.373,0.195-0.65,0.293-0.977
		c0.049-0.539,0.31-1.012,0.358-1.549c0.343-1.354,0.44-3.049,0.424-4.289c0.196-0.65,0.049-1.074,0.131-1.744
		c-0.065-0.342-0.065-0.635-0.114-0.994c-0.065-0.406,0.032-0.781,0.13-1.174c0.147-0.391,0.343-0.717,0.49-1.107
		c0-0.229,0.228-0.359,0.228-0.604c0.506-0.686,0.799-1.484,1.305-2.104c0.049-0.277,0.211-0.488,0.261-0.75
		c0.212-0.424,0.391-0.83,0.456-1.32c0.065-0.146-0.016-0.375,0.082-0.537c-0.033-0.652,0.049-1.42-0.082-2.055
		c-0.016-0.686-0.358-1.207-0.392-1.859c0.457-0.504,0.588-1.156,0.815-1.775c0.017-0.539,0.212-1.045,0.131-1.582
		c0.179-0.326,0.456-0.424,0.57-0.799c0.212-0.881,0.424-1.956,0.18-2.902c0.032-0.358-0.229-0.636-0.18-0.978
		c0.326,0.016,0.652,0.13,1.011,0.179c0.88-0.033,1.793,0.229,2.657-0.098c0.392-0.309,0.815,0.131,1.288,0.098
		c0.473-0.13,0.815,0.229,1.337,0.098c0.277-0.082,0.261-0.375,0.325-0.636c-0.685-0.359-0.749-1.043-1.157-1.598
		c-0.456-0.88,0.261-1.792,0.359-2.706c0-0.114,0.146-0.164,0.113-0.31c0.392-0.652,0.57-1.419,0.864-2.087
		c0.033-0.147,0.195-0.293,0.18-0.44c0.293-0.44,0.473-0.946,0.652-1.451c0.211-0.49,0.293-1.109,0.439-1.614
		c0.245-0.815,0.212-1.549,0.146-2.445c-0.016-0.75-0.261-1.451-0.521-2.086c-0.113-0.098-0.146-0.277-0.179-0.392
		c0.098,0.114,0.325-0.114,0.488,0c1.239-0.033,2.104-0.978,2.805-1.94c-0.032-0.098,0.065-0.13,0.114-0.196
		c0.049-0.309,0.293-0.57,0.358-0.913c-0.18-0.587,0.521-0.767,0.798-1.125c0.44-0.995,0.816-2.07,0.669-3.293
		c0.082-0.261,0.359-0.277,0.555-0.489c0.081-0.049,0.229-0.098,0.326-0.016c0.113-0.065,0.276,0.082,0.424,0.13
		c0.651,0.587,1.223,1.663,2.298,1.271c0.686,0.049,1.338-0.457,1.761-0.962c0.017-0.277,0.359-0.342,0.359-0.619
		c0.032-0.18,0.049-0.408,0.228-0.521c0.18,0.163,0.392,0.424,0.538,0.636c0.75,0.587,1.468,1.5,2.299,1.809
		c0.358,0.293,0.929,0.147,1.353,0.343c0.44-0.147,0.881-0.147,1.305-0.293c0.261,0.326,0.685,0.603,1.125,0.668
		c0.244,0.114,0.57,0.163,0.799,0.261c0.456,0.016,0.848-0.18,1.32-0.212c0.196-0.244,0.57-0.244,0.815-0.407
		c0.098-0.13,0.18-0.359,0.326-0.391c0.179,0.196,0.44,0.407,0.766,0.407c0.196,0.196,0.343-0.098,0.489-0.146
		C128.934,57.608,128.445,56.679,128.461,55.554L128.461,55.554z M104.774,31.182c1.027,0.408,3.26,0.049,5.185,1.043
		c1.743,0.896,3.504,1.305,5.118,2.494c0.93,0.685,1.907,1.37,2.853,2.038c0.718,0.75,1.777,1.712,2.608,2.299
		c0.848,0.766,1.288,1.826,2.087,2.56c0.146,0.505,0.652,0.815,0.701,1.353c0.244,0.13,0.131,0.424,0.358,0.57
		c0.261,0.44,0.44,0.929,0.44,1.451c-3.293-2.739-5.901-6.162-9.928-7.972c-6.766-4.124-20.867-1.989-24.226-7.01v-0.212
		c3.424,2.168,6.667,1.483,10.58,1.304c0.717,0.049,1.369,0.114,2.005,0C103.062,30.889,104.253,30.986,104.774,31.182
		L104.774,31.182z M103.291,29.943c-1.957,0.261-13.335,1.109-13.124-2.135c2.608-0.701,5.266-1.255,7.988-0.962
		C99.068,26.634,102.818,29.177,103.291,29.943L103.291,29.943z M98.53,25.542c-0.896,0.326-1.988,0.049-2.935,0.146
		c-1.353,0.131-2.689,0.538-4.026,0.62c-0.358,0.032-2.723,0.586-2.82,0.75c-0.065,0.114,0.343,1.108,0.375,1.386
		c-0.685,0.832-3.098,1.826-4.189,1.695c-1.32,0.115-2.511-0.668-3.814-0.603c-2.69,0.13-4.5,1.614-6.831,2.054
		c0.93-1.418,2.674-2.918,3.978-3.995c5.592-4.597,6.081-0.685,11.9-3.211C93.591,22.884,95.824,22.607,98.53,25.542L98.53,25.542z
		 M109.485,45.625c-0.229,0.212-0.587,0.196-0.831,0.408c-0.326-0.961-0.979-0.864-1.517-1.483c0.767-0.049,2.968,0.245,3.456,0.864
		C110.203,45.398,109.877,45.642,109.485,45.625L109.485,45.625z M114.556,50.68c-3.098,0-4.255,2.722-6.798,3.651
		c-0.065-1.907-1.68-3.489,0.064-6.113c0.343-0.489,0.864-0.896,1.402-1.173C112.354,45.381,113.676,48.218,114.556,50.68
		L114.556,50.68z M103.633,42.985c-0.016,0-0.195-0.065-0.195-0.016c-0.848-0.343-3.032-0.326-3.913-0.082
		c-5.054,1.37-9.504-1.907-12.683-5.461c-0.44-0.505-0.979-0.668-1.402-1.092c1.631-0.44,3.277-1.174,4.989-1.272
		c1.793-0.098,3.717,0.603,5.493,0.848c1.843,0.245,3.636,0.147,5.478,0.277c1.419,0.098,3.685,0.603,4.81,1.467
		c0.521,0.408,1.287,0.783,1.728,1.271c1.011,1.125,1.712,2.38,3.032,3.228C109.127,44.093,105.948,43.556,103.633,42.985
		L103.633,42.985z M89.238,41.437c0.587,0.521,1.304,0.831,1.956,1.288c1.646,0.88,6.7,2.25,8.347,1.255
		c0,0.065,0.098-0.033,0.114-0.065c2.739-0.815,6.537,0.31,7.891,2.902c-1.305,1.255-2.494,6.896-0.62,7.858
		c-2.983,2.266-3.88-3.587-7.841-3.081c-0.506-0.636-2.723-2.413-3.554-2.168c-0.424,0.13-0.734,0.734-1.142,0.929
		c-0.962,0.473-4.092,0.229-4.923-0.489c-0.31-0.261-0.163-0.913-0.212-1.288c-0.146-0.995-2.087-6.798-2.576-7.695
		c-0.767-1.402-1.777-2.315-2.657-3.619C85.75,37.654,87.853,40.181,89.238,41.437L89.238,41.437z M90.396,54.005
		c-0.685-0.13-1.043-0.783-1.63-1.06c0.032-0.473,0.343-1.353,0.505-1.81c1.973,0.979,5.119,1.109,6.766-0.538
		c0.358,0.13,1.891,1.32,2.152,1.63c-0.017,0.293,0.325,0.44,0.391,0.718c0.212,0.163,0.245,0.473,0.457,0.636
		c0.146,0.44,0.228,0.929,0.228,1.401l-0.13,0.147c-0.669-0.733-1.076-1.5-1.892-2.168c-0.325-0.261-0.7-0.375-0.863-0.815
		l-0.521-0.18c-0.425,0.18-0.408,0.668-0.652,0.979C95.515,54.331,91.357,54.82,90.396,54.005L90.396,54.005z M90.396,90.311
		c0.163,0.016,0.375-0.033,0.506-0.146c0.799-0.75,1.157-1.762,1.891-2.479c0.261,0.213-0.098,0.359-0.13,0.586
		c-0.115,0.49-0.44,0.865-0.604,1.322c-0.277,0.57-0.733,1.074-0.881,1.744c-0.896,1.205-1.972,2.396-2.836,3.504
		c-0.358,0.441-0.75,0.896-1.093,1.369c-0.081,0.098-0.212,0.262-0.293,0.424c-0.229,0.262-0.457,0.457-0.652,0.734
		c-0.065,0.244,0.065,0.391,0.195,0.57c0.196,0.064,0.408,0.082,0.652,0.033c1.32-1.5,2.494-3.162,3.766-4.711
		c0.489-0.277,0.669-0.898,0.995-1.289c0.358-0.635,0.945-1.223,1.238-1.973c0.147,0.049,0.131,0.262,0.114,0.408
		c-0.098,0.408-0.343,0.586-0.489,0.945c-0.375,0.652-0.88,1.287-1.271,1.939c-0.619,0.914-1.401,1.549-1.907,2.494
		c-0.701,0.865-1.271,1.729-1.988,2.396c-0.555,0.588-1.06,1.338-1.646,1.811c-0.881,0.961-1.826,2.037-2.805,2.787
		c-0.31,0.342-0.733,0.57-1.027,0.881c-0.505,0.668-1.287,0.994-1.858,1.613c-0.407,0.146-0.733-0.195-1.124-0.293
		c-0.229-0.195-0.669-0.213-0.686-0.604c0.718-0.555,1.517-1.174,2.185-1.777c0.588-0.668,1.419-1.4,2.006-2.152
		c0.016-0.211,0.276-0.406,0.146-0.65c-0.131-0.164-0.294-0.326-0.489-0.18c-0.815,0.717-1.695,1.777-2.527,2.494
		c-0.293,0.18-0.521,0.457-0.799,0.586c-0.016,0.164-0.244,0.195-0.342,0.277c-0.375,0.375-0.831,0.686-1.255,0.994
		c-0.44,0.146-0.979-0.146-1.369-0.309c-0.343-0.098-0.864-0.18-1.044-0.457c1.011-0.604,1.728-1.418,2.625-2.104
		c1.108-0.766,1.858-2.053,2.935-2.852c1.891-1.941,3.325-3.799,4.923-5.887c1.141-1.695,2.168-3.178,3.146-4.955
		c0.081-0.211,0.163-0.473,0.358-0.668c0.098-0.277,0.245-0.521,0.31-0.848c0.212-0.359,0.277-0.75,0.538-1.109
		c0.114-0.18,0.147-0.439,0.407-0.504c0.213,0.146,0.245,0.309,0.457,0.504c0.456,0.57,1.043,1.045,1.402,1.68
		c-0.065,0.375-0.359,0.701-0.522,1.059c-0.488,0.783-0.978,1.615-1.418,2.479C90.2,90.115,90.266,90.244,90.396,90.311
		L90.396,90.311z M90.135,102.553c0.032,1.207-0.293,2.396-0.521,3.586c-0.114,0.1-0.229,0.295-0.196,0.506
		c-0.016,0.131-0.113,0.244-0.162,0.375c-0.196,0.555-0.571,1.076-1.158,1.24c-0.929,0.098-2.005,0.098-2.804-0.262
		c-0.407-0.113-0.733-0.342-1.076-0.408c-0.848-0.488-1.988-1.074-2.771-1.598c0.604-0.57,1.207-0.945,1.729-1.516
		c1.581-1.205,2.918-2.787,4.271-4.156c0.896-1.076,1.825-2.006,2.657-3.146c0.375-0.539,0.929-1.109,1.223-1.664
		c-0.033,0.359-0.277,0.457-0.294,0.816c-0.195,0.504-0.392,1.027-0.505,1.549c-0.098,0.717-0.261,1.531-0.261,2.281
		C90.103,100.924,90.266,101.754,90.135,102.553L90.135,102.553z M48.042,103.254c0.245,0.439,0.521,0.814,0.962,1.174
		c0.782,0.768,1.565,1.564,2.38,2.217c0,0.18-0.228,0.277-0.375,0.344c-0.424,0-0.767-0.344-1.125-0.523
		c-0.603-0.619-1.321-0.766-1.793-1.482c-0.31-0.342-0.62-0.637-0.913-0.896c0-0.164-0.065-0.082-0.147-0.213
		c-0.211-0.326-0.57-0.57-0.88-0.896c-0.293-0.293-0.555-0.717-0.88-1.01c0.017-0.146-0.163-0.195-0.179-0.326
		c-0.358-0.473-0.75-0.717-1.027-1.223c-0.375-0.359-0.603-0.865-0.945-1.256c-0.245-0.57-0.685-1.107-0.962-1.662
		c-0.065-0.213-0.196-0.359-0.228-0.57c-0.195-0.131-0.13-0.393-0.327-0.539c-0.097-0.537-0.537-0.961-0.668-1.549
		c-0.179-0.391-0.326-0.863-0.424-1.352c-0.13-0.49-0.375-1.061-0.489-1.451c0.131-0.311,0.359-0.572,0.522-0.832h0.163
		c0.228,0.912,0.733,1.662,0.946,2.527c0.456,0.961,0.863,1.939,1.32,2.869c0.261,0.08,0.358,0.57,0.701,0.424
		c0.212-0.066,0.31-0.277,0.375-0.49c-0.065-0.375-0.179-0.732-0.359-1.027c-0.065-0.439-0.342-0.814-0.521-1.205
		c0-0.229-0.261-0.277-0.228-0.506c-0.065-0.293-0.277-0.604-0.326-0.945c-0.212-0.506-0.44-1.158-0.668-1.664
		c-0.049-0.422-0.211-0.797-0.26-1.221c0.603-0.506,1.222-1.127,1.792-1.6c0.18,0.246,0.114,0.604,0.359,0.832
		c0.391,1.826,1.418,3.359,2.168,5.006c1.353,2.07,2.787,4.238,4.646,6.047c1.027,1.174,2.135,2.299,3.391,3.244
		c0.473,0.375,1.043,0.734,1.483,1.094c0.016,0.064,0,0.146-0.066,0.146c-0.554,0.277-1.141,0.619-1.711,0.896
		c-0.065,0-0.147,0.016-0.131,0.082c-0.163-0.082-0.146,0.227-0.31,0.146c-0.195,0.146-0.473,0-0.701-0.098
		c-0.733-0.457-1.19-0.963-1.908-1.582c-0.245-0.277-0.489-0.457-0.815-0.637c-0.229-0.244-0.538-0.406-0.75-0.586
		c-0.293-0.098-0.571-0.195-0.88-0.18C48.091,102.895,47.994,103.059,48.042,103.254L48.042,103.254z M41.685,101.461
		c-0.017-0.75-0.164-1.369-0.083-2.152l0.083-0.113c0.848,1.141,1.614,2.363,2.657,3.488c0.473,0.588,0.979,1.256,1.614,1.744
		c0.88,1.027,1.892,2.104,3.114,2.854c0.195,0.211,0.457,0.326,0.636,0.473c-0.293,0.408-0.782,0.555-1.207,0.717
		c-0.146,0.195-0.424,0.244-0.635,0.342c-0.946,0.344-1.663,0.881-2.625,1.125l-0.245,0.18c-0.717,0.293-1.663,0.326-2.331-0.064
		c-0.195-0.066-0.179-0.246-0.358-0.262c-0.114-0.098-0.229-0.211-0.359-0.309c-0.554-1.158-0.424-2.463-0.407-3.848
		C41.668,104.346,41.473,102.766,41.685,101.461L41.685,101.461z M37.788,91.695c0.114-0.406,0.261-0.781,0.31-1.189
		c0.31-0.604,0.408-1.061,0.848-1.613c0.049-0.115,0.114-0.197,0.196-0.262c1.043-1.451,2.25-2.656,3.831-3.635l0.146,0.082v1.01
		c-0.032,0.164-0.082,0.359-0.163,0.521v0.115c-0.082,0.064-0.163,0.162-0.146,0.293c-1.043,1.369-2.723,2.217-3.636,3.75
		c-0.309,0.309-0.521,0.766-0.62,1.205c-0.195,0.164-0.048,0.506-0.245,0.637c-0.016,0.146-0.048,0.26-0.048,0.457
		c-0.13,0.049-0.065,0.129-0.163,0.195C37.544,93.066,37.902,92.25,37.788,91.695L37.788,91.695z M54.873,102.473
		c-1.483-1.158-2.722-2.576-4.026-3.896c-1.353-1.746-2.69-3.277-3.733-5.152c-0.604-1.336-1.223-2.314-1.712-3.65
		c-0.13-0.506-0.31-1.012-0.521-1.502c-0.277-0.814-0.652-1.693-0.358-2.623c0.016-0.391,0-0.768-0.065-1.125
		c0.114-0.244-0.18-0.359-0.114-0.67l0.114,0.1l0.016-0.018c0.065,0.066,0.017,0.213,0.082,0.344c0.082,0.064,0.18,0.211,0.18,0.373
		c0.391,1.207,1.239,2.219,1.728,3.408c0.506,1.027,1.125,1.939,1.793,2.854c0.229,0.26,0.408,0.586,0.668,0.814
		c0.375,0.049,0.456,0.488,0.733,0.686c1.5,1.646,3.277,2.672,4.973,4.01c0.635,0.684,1.467,1.158,1.988,1.875
		c0.799,0.652,1.37,1.451,2.233,2.037c1.598,1.695,4.141,1.207,6.342,1.369c1.858-0.082,3.636-0.424,5.233-1.141
		c0.717-0.033,1.223-0.457,1.842-0.734c0.604-0.488,1.125-1.01,1.549-1.662l0.179-0.064c0.767-0.637,1.468-1.469,2.152-2.137
		c0.896-0.766,1.776-1.531,2.641-2.348c0.783-0.424,1.337-1.189,1.94-1.793c1.06-0.863,1.826-2.152,2.706-3.211
		c0.375-0.604,0.864-1.207,1.174-1.875c0.31-0.439,0.407-1.061,0.848-1.289c0.212,0.131,0.081,0.424,0.294,0.588
		c0.146,0.18,0.146,0.506,0.391,0.635c0.114,0.295,0.163,0.621,0.358,0.865c0.05,0.408,0.555,0.848,0.05,1.156
		c-0.799,1.402-1.843,2.625-2.739,3.963c-0.603,0.766-1.239,1.434-1.875,2.217c-1.011,1.223-2.038,2.314-3.261,3.424
		c-0.978,1.32-2.331,2.248-3.569,3.342c-0.392,0.277-0.652,0.57-1.142,0.766c-0.391,0.213-0.733,0.604-1.238,0.668
		c-1.663,0.131-3.392,0.539-4.875,1.418c-0.505-0.113-0.881-0.309-1.369-0.439c-0.848-0.18-1.728-0.195-2.429,0.211
		c-0.359,0-0.587-0.357-0.896-0.471c-0.979-0.375-2.071-0.588-3.082-0.375c-0.733,0.08-1.532,0.211-2.233,0.455
		c-0.44,0.213-0.782-0.244-1.206-0.26C55.981,103.287,55.493,102.848,54.873,102.473L54.873,102.473z M88.993,84.131
		c-0.098-0.064-0.016,0.033-0.081,0.082c-0.13,0.229-0.277,0.457-0.326,0.75c-0.195,0.391-0.358,0.766-0.555,1.125
		c-0.048,0.244-0.309,0.391-0.423,0.637c-0.277-0.246-0.555-0.49-0.604-0.832c-0.18-0.393-0.31-0.814-0.359-1.256
		c-0.276-0.473,0.099-1.01-0.13-1.516c0.212-0.555,0.392-1.125,0.685-1.679c0.114-0.293,0.18-0.652,0.408-0.864l0.016,0.098
		c0.114,0.032,0.114,0.196,0.212,0.293c0.326,0.815,0.93,1.533,1.419,2.265C89.255,83.561,89.026,83.805,88.993,84.131
		L88.993,84.131z M87.967,71.742c-0.049,1.06-0.311,2.282-0.457,3.408c-0.146,0.684-0.276,1.32-0.489,2.005
		c-0.13,0.945-0.521,1.81-0.685,2.755l-0.374,1.451c-0.131,0.277-0.277,0.587-0.359,0.897c-0.212,0.406-0.44,0.945-0.685,1.336
		c-0.049,0.18-0.163,0.326-0.244,0.473c-0.375,0.686-1.011,1.305-1.19,2.086c-0.065,0.131-0.18,0.229-0.195,0.359
		c-0.146,0.098-0.196,0.244-0.311,0.391c-0.032,0.146-0.195,0.326-0.276,0.441c-1.076,1.402-1.94,2.82-3.342,3.945
		c-0.311,0.391-0.718,0.75-1.027,1.074c-0.195,0.131-0.343,0.246-0.489,0.295c-0.864,0.896-1.81,1.549-2.738,2.428
		c-1.224,0.979-2.43,2.268-3.652,3.311c-0.831,0.717-1.825,1.238-2.967,1.434c-2.331,0.717-4.793,0.57-7.173,0.441
		c-1.108-0.146-1.842-0.93-2.592-1.646c-0.456-0.539-1.157-1.092-1.614-1.729c-0.652-0.686-1.647-1.338-2.298-2.006
		c-0.277-0.162-0.538-0.326-0.799-0.521c-0.31-0.342-0.685-0.521-1.043-0.814c-1.304-0.945-2.38-1.988-3.457-3.211
		c-0.391-0.131-0.456-0.523-0.733-0.783c-0.114-0.326-0.424-0.506-0.506-0.896c-0.146-0.295-0.407-0.637-0.554-0.979
		c-0.016-0.164-0.146-0.229-0.212-0.391c-0.391-0.75-0.799-1.631-1.239-2.414c-0.31-0.537-0.375-1.156-0.669-1.711
		c-0.179-0.506-0.456-0.979-0.603-1.483c-0.228-0.489-0.44-0.995-0.603-1.5c-0.587-2.119-1.304-4.304-1.516-6.586
		c-0.114-0.098,0.016-0.326-0.13-0.456c-0.13-1.092-0.261-1.94-0.293-2.983c-0.163-1.109-0.114-2.625-0.049-3.717
		c0.848-0.31,1.712-0.701,2.332-1.467c0.358-0.229,0.587-0.603,0.978-0.864c0.245-0.082,0.505-0.115,0.766-0.146
		c-0.065,0.342-0.358,0.635-0.521,0.945c-0.391,0.75-1.076,1.402-1.06,2.348c0.196,0.277,0.392,0.489,0.734,0.522
		c0.424,0.065,0.766,0.114,1.206,0.049c-0.163,0.098-0.065,0.244-0.065,0.375c0.212,0.212,0.505,0.081,0.766,0.081
		c-0.033,0.115-0.049,0.293,0,0.408c1.418,1.679,3.358,2.511,5.657,2.511c0.114,0.163,0.342,0.016,0.505,0.016
		c0.114-0.065,0.212-0.032,0.343-0.032c1.809-0.359,3.586-1.06,5.363-1.614c0.375-0.277,1.011-0.473,0.88-1.043
		c-0.701-1.043-1.858-1.533-2.804-2.185c-0.652-0.211-1.369-0.521-2.038-0.603c-1.223-0.196-2.771-0.114-4.06,0.245
		c-1.288,0.473-2.461,1.125-3.668,1.565c-0.098,0.017-0.228,0.082-0.31,0.065c-0.049-0.098,0.13-0.163,0.212-0.212
		c0.913-0.619,0.88-0.603,1.76-1.222c0.082-0.049,1.272-0.799,1.402-0.832c1.093-0.538,1.728-0.832,3.309-0.685
		c0.489,0.195,0.995,0.277,1.435,0.505c0.098,0.017,0.245-0.016,0.326-0.13c0.033-0.505-0.163-0.685-0.57-1.027
		c-0.766-0.196-1.321-0.424-2.396-0.359c-0.717,0.146-1.435,0.212-2.103,0.57c-0.407,0.13-0.75,0.326-1.06,0.555
		c-0.652,0.326-0.766,0.62-1.402,0.913c-0.261,0.261-0.93,0.668-1.19,0.913c-0.342,0.114-0.848,0.342-1.157,0.293
		c-0.017-0.31,0.293-0.457,0.358-0.783c0.082-0.098,0.229-0.146,0.164-0.342c0.26-0.31,0.57-0.685,0.766-1.043
		c0.62-0.538,1.011-1.011,1.875-1.451c1.304-0.554,2.722-0.505,3.75-0.538c2.315,0.212,3.684,0.538,5.2,0.473
		c1.043-0.195,2.152-0.261,2.983-0.961c0.146-0.147,0.13-0.375,0.212-0.555c-0.196-0.245-0.407-0.245-0.636-0.114
		c-1.386,0.684-1.875,0.521-3.065,0.603c-1.174,0.049-2.038-0.082-2.901-0.114c-1.207-0.146-2.136-0.521-3.342-0.31
		c-0.375-0.065-1.239,0.392-1.565,0.294c0.016-1.272,1.092-2.364,1.81-3.472c0.734-0.539,1.516-1.109,2.396-1.451
		c0.539-0.424,1.272-0.685,1.615-1.32c0.521-0.392,0.864-0.995,1.255-1.516c0.13-0.293,0.13-0.571,0.13-0.93l0.049-0.146
		c0.913-0.554,1.745-1.157,2.625-1.761c0.065-0.081,0.261-0.211,0.277-0.326c0.424-0.342,0.946-0.75,1.239-1.206
		c0.261-0.293,0.392,0.082,0.636,0.163c0.13,0.326,0.505,0.358,0.783,0.489c0.488,0.195,1.026,0.26,1.532,0.407
		c1.565,0.082,3.31,0.261,4.891,0.326h0.131c1.011,0.131,2.136,0.147,3.163,0.359c1.548,0.293,3.097,0.408,4.646,0.897
		c1.239,0.326,2.462,0.717,3.668,1.19c0.521,0.261,1.174,0.554,1.598,0.961c0.962,0.604,1.858,1.337,2.706,2.185
		c0.18,0.26,0.375,0.489,0.555,0.766c0.424,0.44,0.685,0.913,0.994,1.369c0.195,0.375,0.538,0.717,0.587,1.158
		c0.244,0.179,0.032,0.538,0.277,0.733c-0.033,0.228,0.228,0.261,0.358,0.375l0.342,0.048c0.05,1.224,0.245,2.592,0.213,3.897
		c0.179,2.005-0.131,3.929-0.213,5.95C87.967,71.367,87.967,71.628,87.967,71.742L87.967,71.742z M42.076,63.232
		c0.277-0.995,2.185-4.924,3.245-5.038c0.228-0.033,0.114,0.342,0.081,0.44c-0.179,0.57-0.326,1.141-0.424,1.728
		c-0.13,0.75-0.13,1.484-0.016,2.233c0.13,0.848-1.223,1.533-1.288,1.907c-0.277,0.18-1.206,0.864-1.271,0.245L42.32,64.52
		C42.467,63.998,41.896,63.819,42.076,63.232L42.076,63.232z M40.821,70.698c-0.065-0.016,0.033-0.228-0.065-0.293
		c-0.179-0.554-0.392-1.076-0.62-1.565c-0.179,0.016-0.098-0.229-0.244-0.293c-0.017-0.277,0.195-0.408,0.293-0.636
		c0.097,0.017,0.114-0.081,0.195-0.097l0.147-0.049c0,0.065-0.017,0.146,0.016,0.196c0.049-0.033,0.049-0.065,0.098-0.13
		c-0.114,0-0.049-0.065-0.049-0.114c0-0.017-0.016-0.017,0-0.032c0,0,0,0.016,0,0.032c0.033,0.017,0.114,0.033,0.13,0.033
		c0.017,0.082,0.098,0.033,0.163,0.082c0.212,0.13,0.049,0.505,0.18,0.733c-0.049,0.913,0.032,1.598,0.114,2.461
		c0.114,0.18,0.033,0.571,0.082,0.832c0,0.147-0.163,0.098-0.229,0.082C40.755,71.595,41.016,71.024,40.821,70.698L40.821,70.698z
		 M40.527,64.667c-0.489,0.228-0.685,0.88-1.288,0.88c-4.711,0.033-1.973-4.613,0.277-4.45c0.571,0.049,1.256,0.26,1.81,0.146
		l0.098,0.18C40.983,62.189,40.788,64.357,40.527,64.667L40.527,64.667z M41.424,54.021c-0.603,0.864-1.092,1.712-1.614,2.625
		c0-0.032-0.13,0-0.147,0c0.017-0.31-0.098-0.75,0.114-1.027c0.685-5.413,8.575-5.282,12.553-5.461
		c1.125-0.049,2.413-0.392,3.488-0.229c1.5,0.195,2.707-0.555,4.092-0.848c-0.065,0.408-0.457,0.669-0.685,0.979l-0.179,0.146
		c-0.244,0.147-0.929,0.62-1.043,0.783C53.031,56.141,45.043,48.789,41.424,54.021L41.424,54.021z M55.346,54.119
		c-0.962,1.549-2.413,1.989-3.814,2.951c-1.533-0.424-3.163,5.673-5.201,5.543l-0.179-0.179c-0.359-3.114,1.386-7.711,4.907-8.266
		c1.435-0.228,2.69,0.277,4.206-0.277L55.346,54.119L55.346,54.119z M42.076,50.631c-3.097,2.103-8.999,4.972-12.227,1.483
		c2.445-0.31,3.375-0.212,5.543-1.63c2.885-1.907,7.385-6.162,11.249-4.287l0.114,0.081c1.255,0.114,3.733,1.744,4.956,2.413
		C49.64,49.75,45.417,48.349,42.076,50.631L42.076,50.631z M40.511,59.857c-0.407-0.277,0.065-1.597,0.212-1.989
		c1.533-4.075,2.771-4.32,6.782-4.467v0.049c0.424-0.017,0.832,0.114,1.223,0.195c-0.131,0.212-0.44,0.342-0.669,0.457
		c-0.587,0.31-0.815,0.929-1.353,1.271c-1.891,1.19-2.902,2.706-4.417,4.239C41.685,59.385,41.065,60.233,40.511,59.857
		L40.511,59.857z M48.189,68.27c0.229-0.049,0.522-0.277,0.668-0.065v0.586c-0.065-0.016-0.163-0.016-0.195-0.098
		C48.499,68.612,48.303,68.433,48.189,68.27L48.189,68.27z M56.65,68.449c0.033,0.31,0.017,0.57-0.114,0.799
		c-0.082,0.114-0.114,0.179-0.131,0.211c-0.228,0.261-0.456,0.359-0.733,0.424c-0.293,0.082-0.603,0.146-0.848,0.212
		c-1.207,0.456-2.901,0.146-4.076-0.245c-0.163-0.082-0.326-0.147-0.489-0.229c-0.098-0.049-0.179-0.098-0.245-0.179
		c0.049-0.131,0.082-0.293,0.033-0.457c-0.065-0.228-0.098-0.456-0.163-0.685c0-0.098,0.016-0.179,0.049-0.277
		c0.033-0.098,0.082-0.195,0.114-0.277c1.043-0.586,2.185-1.108,3.456-1.174c0.587-0.033,1.174,0.033,1.745,0.163
		c0.505,0.114,1.011,0.278,1.5,0.425c-0.131,0.081-0.196,0.228-0.212,0.293C56.552,67.796,56.617,68.139,56.65,68.449L56.65,68.449z
		 M57.546,67.976c0-0.13-0.049-0.326-0.13-0.489c0.571,0.326,1.093,0.717,1.598,1.19c-0.033,0.032-0.065,0.049-0.114,0.065
		c-0.049,0.033-0.097,0.049-0.163,0.082c-0.048,0.017-0.113,0.049-0.179,0.082c-0.147,0.065-0.293,0.114-0.44,0.147
		c-0.13,0.032-0.261,0.065-0.391,0.098c-0.049-0.179-0.033-0.359-0.033-0.521C57.693,68.417,57.677,68.188,57.546,67.976
		L57.546,67.976z M73.458,47.044c4.238,2.037,8.737,0.717,11.981,4.662c1.157,1.402,2.006,3.31,1.875,5.201l0.049,0.277l0.017,0.277
		l-0.146,0.179c-0.701-0.489-1.142-1.272-1.777-1.858c-4.271-3.929-8.868-4.777-14.525-5.494c-1.206-0.146-8.493-0.375-8.64-1.483
		c-0.016-0.081,1.81-3.521,2.021-4.092c0.131-0.31,0.31-0.587,0.359-0.913c0.114-0.391,0.31-0.733,0.342-1.141l0.245-0.587
		c1.598,0.783,3.342,4.336,7.205,3.88C72.512,46.522,73.181,46.62,73.458,47.044L73.458,47.044z M73.082,44.24
		c5.527,0.375,6.342-1.858,12.341,0.783c1.076,0.473,2.283,1.483,2.561,2.673c0.276,1.125,0.505,3.929-0.392,4.809
		c-0.407-0.848-1.37-1.777-1.973-2.527C83.043,46.62,73.637,48.104,73.082,44.24L73.082,44.24z M84.299,39.35
		c0.391,0.408,0.848,0.782,1.141,1.288c0.311,0.521,1.483,3.162,1.305,3.667c-2.755-1.125-5.005-2.347-8.118-1.728
		c-3.407,0.668-8.494,1.223-10.124-2.771c-0.392-0.962-1.125-4.402-1.174-4.516c0.032-0.62,0.017-1.256,0.13-1.875
		c0.392,0.457,0.637,1.043,1.19,1.336c0.668,0.701,1.565,1.256,2.479,1.5c4.01,1.141,9.047-1.728,12.291,1.957
		C83.729,38.567,83.973,38.991,84.299,39.35L84.299,39.35z M67.98,31.867c0.016-0.244-0.294-0.424-0.196-0.652
		c0.733-1.614,1.663-2.771,2.12-4.565c0.848-3.407,0.228-3.684,0-6.781c1.679-0.767,5.021,2.657,5.2,4.271
		c-0.147,0.978-0.277,1.956-0.311,2.934C74.713,30.024,71.028,35.176,67.98,31.867L67.98,31.867z M88.586,20.7
		c0.896,0.685,1.875,1.125,2.771,1.777l-0.163,0.13c-2.38,1.043-5.461,2.462-8.118,1.418c-2.267,0.44-3.701,0.896-5.348,2.625
		c-0.603,0.457-1.06,1.076-1.76,1.37c0.407-2.56,0.26-5.364,1.157-7.825C79.864,12.826,84.592,17.716,88.586,20.7L88.586,20.7z
		 M70.621,12.598c0.163-0.277,0.244-0.587,0.424-0.848c0.261,0.098,0.424,0.424,0.604,0.636c1.939,2.038,5.184,1.141,6.554,3.554
		c-0.017,0.016-0.114,0.179-0.065,0.195c-1.093,0.832-1.957,2.201-2.185,3.554l-0.571,1.467c-0.261,0.065-0.391-0.163-0.554-0.326
		c-0.979-0.995-3.179-2.201-4.598-2.331c-0.685-0.065-1.401,0.13-2.086-0.065C63.741,17.146,69.839,13.836,70.621,12.598
		L70.621,12.598z M65.975,14.651l0.049,0.114c-0.342,0.962-0.701,1.027-0.701,2.25c0,1.174,1.94,3.212,3.146,2.87
		c1.565,2.119-0.13,7.548-1.223,9.651c-0.782,0.913-2.608,0.473-3.276-0.359c-0.114-0.277-0.359-0.489-0.505-0.766
		c-0.521-1.239-1.37-1.924-2.657-2.282c-0.896-0.408-1.793,0.114-2.413-1.06c-0.473-0.832-0.783-1.826-1.402-2.608
		c-1.174-1.5-4.581-1.565-4.841-2.348C56.976,17.081,59.894,13.69,65.975,14.651L65.975,14.651z M51.563,21.988
		c0.082-0.196,0.261-0.098,0.408-0.033c0.815,0.326,1.549,0.424,2.413,0.636c2.103,0.488,2.462,2.983,4.092,4.564
		c0.489,0.473,1.288,0.293,1.891,0.359l-0.13,0.326c-1.337,0.946-3.75,1.598-4.646-0.456c-0.62-1.386-3.358-0.766-3.913-3.521
		C51.58,23.39,51.368,22.46,51.563,21.988L51.563,21.988z M50.276,21.156l0.016,0.668c0,0.146-0.146,0.196-0.211,0.277
		c-0.131-0.065-0.343-0.18-0.522-0.261c-0.196-0.065-0.358-0.179-0.489-0.245C49.428,21.417,49.868,21.319,50.276,21.156
		L50.276,21.156z M39.712,24.889c0.538-0.261,0.505-1.108,0.18-1.5c0.049-0.636,0.016-1.141,0.13-1.777l0.017-0.131
		c0.44-1.435,1.19-1.891,2.266-2.755c0.375,0.359,0.473,0.897,0.88,1.239c1.386,1.157,2.918,1.5,4.304,2.445
		c0.359,0.293,2.315,1.108,2.788,1.207c0.163,0.75,0.245,1.597,0.734,2.217c1.239,1.467,1.744,1.549,3.309,2.266
		c1.076,2.005,3.668,2.901,5.608,1.565c0.261-0.179,1.5-1.19,1.598-1.223c0.392,0.424,1.255,0.521,1.207,1.239
		c0.864,1.63,2.201,2.103,3.961,1.908c0.049,0.179,0.016,0.424-0.065,0.603c-0.016,0.294-0.098,0.554-0.163,0.831
		c-0.554,2.592,0.456,7.32,2.315,9.292c1.06,1.125,1.939,1.336,3.374,1.777c-0.146,0.277,0.163,0.652-0.131,0.799
		c-3.569-0.505-5.396-3.489-5.787-3.586c-0.391-0.408-0.766-0.864-0.651-1.451c0.537-4.939-6.423-5.625-8.869-2.299
		c-0.343,0.473-2.413-0.326-3.016-0.538c-0.521-1.076-3.179-2.168-4.255-2.755c0.114-4.06-5.689-9.944-9.798-7.173
		c-0.163,0.375-0.782,0.897-1.026,1.37c0,0-1.924-1.027-2.479-1.125l-0.146-0.245C37.283,25.868,38.163,25.574,39.712,24.889
		L39.712,24.889z M51.434,38.453c1.239-0.228,2.608-0.033,3.766,0.473c0.554,0.228,0.88,1.32,1.565,0.603
		c0.245-0.261,0.44-0.57,0.652-0.864c1.043-1.402,4.353-2.559,5.771-1.255c0.196,0.179,0.767,0.717,0.669,1.027
		c-0.017,0.048-0.082,0.048-0.131,0.048l-0.049,0.082c-0.489-0.147-1.011,0.033-1.5,0.163c-5.559,1.516-2.967,8.102-12.373,4.386
		c-0.505-0.196-2.641-1.174-2.951-1.468C48.352,40.475,49.461,38.828,51.434,38.453L51.434,38.453z M46.771,40.002
		c-1.483,0.88-5.885-1.598-7.76-1.924c0.619-1.011,2.853-2.266,4.043-2.136c1.614,0.179,4.613-0.962,5.82-0.407
		c0.962,0.423,1.891,0.88,2.771,1.467C47.879,38.078,48.89,38.746,46.771,40.002L46.771,40.002z M38.62,31.606l-0.326,0.082
		c-1.288-0.278-2.495-0.848-3.798-0.995c-3.228-0.358-6.994,0.049-10.01,1.255c-1.435,0.57-2.788,1.483-4.223,2.07
		C21.486,31.149,36.81,24.482,38.62,31.606L38.62,31.606z M34.137,31.899c0.962,0.082,4.189,1.239,4.483,1.222l0.048,0.294
		c-3.521,6.064-10.71,4.564-16.628,4.239c-1.353-0.065-2.674-0.016-4.026-0.016C22.725,33.416,27.681,31.361,34.137,31.899
		L34.137,31.899z M4.728,53.092c0-2.478,1.793-5.038,3.163-6.961c1.842-2.56,5.689-5.625,8.624-6.782
		c6.326-2.494,17.917,4.369,22.986-5.168c-0.033-0.88,0.587-1.793,0.392-2.804c-0.131-0.799-0.604-1.386-0.734-2.086
		c0.897-0.082,0.929-1.321,1.908-1.451c3.717-0.538,6.178,3.082,7.156,6.195c-1.418,0-2.771,0.62-4.157,0.653
		c-2.51,0.049-4.809,0.521-6.406,2.787c-0.212,0.098-1.337,1.451-1.386,1.679c-0.392,0.277,0.097,0.978,0.587,0.88
		c0.994-0.179,1.63-0.668,2.706-0.407c1.581,0.358,2.95,1.337,4.532,1.729c0,0.391,0.179,0.978,0.587,1.157
		c0.896,0.375,1.956,0.424,2.853,0.962c2.478,1.5,7.32,3.439,9.798,1.19c0.896-0.815,5.852-6.766,7.108-3.978l-0.147,0.538
		c-0.962,3.961-4.223,7.825-8.771,7.222c-5.722-0.734-8.086-6.162-15.145-3.016c-4.157,1.875-6.032,6.081-11.232,5.102
		c-0.864-0.146-1.891-0.473-2.527-1.108c1.271-3.472,2.527-6.244,6.048-7.956c0.799-0.375,2.119-1.06,3.032-0.929
		c0.212-0.13,0.212-0.473,0.163-0.685l-0.407-0.358c-1.696,0.13-2.332,0.75-3.733,1.092c-0.587,0.62-1.728,0.717-2.478,1.223
		c-0.196,0.147-1.516,0.766-1.728,0.766c-2.396,0-3.717-1.483-6.961-0.847c-0.962,0.195-2.266,0.391-3.114,0.896
		c-2.168,1.304-4.304,2.38-6.407,3.831C8.999,47.843,5.07,52.896,4.728,53.092L4.728,53.092z M11.33,57.771
		c-0.554,0.049-1.288,0.097-1.565-0.457c-0.456-0.603-0.505-1.467-0.57-2.217c0.424-0.229,0.57-0.701,0.962-0.979
		c0.245-0.212,0.407-0.505,0.586-0.782c0.31-0.196,0.278-0.538,0.587-0.685c-0.424,1.011-0.457,2.087-0.457,3.13
		C10.906,56.5,11.183,57.07,11.33,57.771L11.33,57.771z M12.503,56.141c-0.717-4.582,2.739-3.799,3.407-4.435
		c0.603,0.587,0.815,1.369,1.582,1.907c-2.103-1.174-4.271,1.956-2.739,2.38c0.815,0.228,1.076-1.418,2.021-0.896
		c1.255,0.701-0.717,3.048-2.266,2.901C13.645,57.918,12.65,57.021,12.503,56.141L12.503,56.141z M15.34,50.06
		c-0.946,0.228-1.94,0.457-2.641,1.157c-0.13-0.065-0.13,0.147-0.146,0.082c0.375-0.62,0.945-1.158,1.435-1.68
		c0.44-0.261,0.799-0.75,1.223-1.075l0.016,0.016C15.21,49.066,15.21,49.555,15.34,50.06L15.34,50.06z M14.085,59.548
		c3.391,0.392,5.298-2.918,3.57-5.754c1.288,0.717,3.733,1.598,4.076,3.114C23.165,63.297,14.167,63.917,14.085,59.548
		L14.085,59.548z M22.595,68.074c-2.217,0.636-5.706-1.76-5.298-4.189c5.184,0.864,7.662-7.091,4.157-9.651
		c-1.255-0.913-2.983-1.223-3.961-2.511c-3.554-4.662,2.853-5.575,2.967-5.983c0.065-0.228-0.049-0.701-0.229-0.848
		c-1.271-1.076-6.912,3.391-7.988,4.32c-0.13,0.407-0.603,0.571-0.75,0.961c-1.973,1.712-3.489,5.429-6.635,5.56
		c2.347-5.054,12.487-13.775,18.356-12.765c1.516,0.261,3.309,1.027,4.809,0.995v0.163c-0.587,0.685-2.396,4.304-2.364,5.168
		c-1.173,0.945,1.533,2.07,2.087,2.282c0.212,0.539,0.734,0.816,1.077,1.239c-3.245,0.685-4.043-4.238-5.82-2.364
		c-0.717,0.766-0.424,1.321-0.652,2.234c-0.114,0.799,0.668,1.94,1.043,2.575c0.978,0.864,1.353,2.136,2.07,3.179
		c0.065,2.201,1.353,2.119,0.033,5.787c-0.114,0.326-0.359,0.636-0.359,0.995C24.47,66.134,23.752,67.748,22.595,68.074
		L22.595,68.074z M27.941,74.089c-1.206-1.173-3.896-3.651-3.358-5.673c0.163-0.554,1.353-1.728,1.695-2.739
		c0.815-2.364,1.418-4.124,0.636-6.635c-0.766-2.413-2.511-4.026-3.293-6.293c0.179-0.407,0.049-0.896,0.343-1.255l0.146-0.18
		c0.718,0.734,0.88,1.614,1.858,2.217c1.076,0.668,3.048,1.174,4.125,0.261c2.299,1.353,6.504,1.663,8.835,0.228h0.098
		c-0.424,2.347-0.75,3.179-0.033,5.592c-3.456,0.945-4.826,6.309-1.728,7.271c0.277,0.505,0.946,0.359,1.402,0.521
		c0.033,0.293-0.456,0.93-0.603,1.174c-0.913,1.549-0.832,4.858-3.457,4.923c-2.005,0.049-1.565-5.151-4.255-4.173
		c-3.032,1.092-0.57,4.776,2.021,4.988c0.277,0.033,0.522-0.065,0.799-0.033c0.065,1.435-1.5,2.657-2.82,1.842
		C28.725,76.192,28.773,74.904,27.941,74.089L27.941,74.089z M31.903,72.818c-0.065,0.098-0.229,0.065-0.31,0.033
		c-0.635-0.359-0.994-1.011-1.271-1.695c0.082-0.359,0.326-0.505,0.62-0.717c0.571,0.114,0.44,0.848,0.652,1.271
		C31.659,72.084,31.757,72.459,31.903,72.818L31.903,72.818z M31.023,80.415c-0.065,0.163-0.146,0.31-0.212,0.424
		c-0.065,0.131-0.098,0.245-0.212,0.277c-0.016-0.049-0.245-0.212-0.245-0.408c-0.31-0.815-0.211-1.956,0.229-2.82
		c0.016-0.179,0.098-0.326,0.211-0.44c0.718-0.098,1.598,0.114,2.299-0.196c0.538-0.31,0.88-0.766,1.158-1.353
		c0.016-0.163,0.13-0.228,0.179-0.375c0.114-0.016,0.13-0.163,0.179-0.277c0.017-0.212-0.082-0.505,0.098-0.604
		c0.848-0.114,1.761-0.195,2.348-0.814c0.946-0.832,1.517-2.054,1.891-3.212c0.13-0.114,0.147-0.326,0.212-0.505
		c0.049-0.098,0.13,0.081,0.13-0.049c0.033,0.293,0.212,0.44,0.245,0.733c0.065,0.913-0.049,1.582-0.408,2.282
		c-0.457,0.75-1.386,1.321-1.907,2.087c-0.375,0.424-0.929,0.636-1.353,0.929c-0.896,0.717-1.81,1.418-2.755,2.086
		C32.408,78.898,31.626,79.632,31.023,80.415L31.023,80.415z M33.517,82.453c-0.196,0.357-0.211,0.814-0.424,1.141
		c-0.032,0.146-0.065,0.342-0.146,0.424c-0.212,0.064-0.457-0.064-0.62-0.164c-0.098-0.195-0.196-0.211-0.228-0.473
		c-0.261-0.473-0.359-0.977-0.293-1.531c0.423-1.239,1.467-1.924,2.331-2.82c0.913-0.685,1.875-1.402,2.739-2.119
		c0.391-0.114,0.571-0.44,0.929-0.62c0.767-0.701,1.32-1.288,2.038-2.071c0.293-0.326,0.521-0.766,0.701-1.125
		c0.538-0.033,0.685,0.44,0.913,0.766c0.311,0.782,0.408,1.711-0.032,2.445c-0.065,0.098-0.212,0.13-0.196,0.245
		c-0.733,0.896-1.94,1.158-2.967,1.728c-0.88,0.359-1.826,0.75-2.429,1.435C34.919,80.545,33.811,81.181,33.517,82.453
		L33.517,82.453z M34.479,87.262c-0.065-0.213-0.098-0.439-0.228-0.604c-0.049-0.635-0.261-1.238-0.114-1.842
		c0.049-0.506,0.326-0.896,0.359-1.385c0.049-0.051,0.114-0.051,0.114-0.115c0.13-0.18,0.146-0.457,0.277-0.652
		c0.913-1.255,2.201-2.51,3.685-3.13c0.88-0.326,1.581-0.798,2.445-1.141c0.098-0.229,0.408-0.196,0.505-0.375
		c0.277-0.196,0.375-0.489,0.652-0.636c0.114,0.098,0.163,0.31,0.277,0.489c0.13,0.832,0.424,1.614,0.668,2.413
		c0.114,0.539,0.424,1.076,0.195,1.663c-0.048,0.488-0.114,1.01-0.44,1.354c-0.277,0.473-0.636,0.717-1.141,0.945
		c0.016,0.146-0.212,0.131-0.278,0.244c-1.81,1.223-3.358,2.885-4.417,4.891v0.146c-0.049,0.082-0.13,0.213-0.179,0.311
		c-0.163,0.424-0.294,0.83-0.359,1.271c-0.065,0.016-0.065,0.098-0.131,0.098c0.033,0.064-0.097,0.016-0.016,0.113
		c-0.245-0.211-0.229-0.537-0.342-0.896c-0.18-0.537,0.064-1.467-0.685-1.729C34.919,88.305,34.642,87.816,34.479,87.262
		L34.479,87.262z M60.008,106.385c-0.75,0.064-1.435,0.473-2.103,0.75c-0.554,0.357-1.271,0.521-1.842,0.896
		c-0.864,0.293-1.614,0.863-2.314,1.336c-0.636,0.262-1.174,0.686-1.859,0.881c0.033,0.064-0.081,0.064-0.13,0.064
		c-0.619,0.277-1.108,0.637-1.744,0.848c-0.212,0.164-0.457,0.293-0.717,0.359c-0.229,0.033-0.44,0.146-0.685,0.195
		c-0.18,0.098-0.457-0.016-0.62,0.115c-0.652,0.047-1.239,0.309-1.858,0.455c-0.163,0.066-0.392,0.244-0.293,0.457
		c0.016,0.049,0.082,0.082,0.13,0.049c0.375,0.311,0.896,0.391,1.418,0.311c0.897-0.148,1.957-0.277,2.69-0.686
		c1.174-0.635,2.38-1.158,3.586-1.729c0.212-0.031,0.424-0.293,0.652-0.293c0.146-0.146,0.375-0.211,0.554-0.408
		c1.19-0.863,2.739-1.369,4.043-2.102c0.31-0.018,0.554-0.277,0.88-0.229c0.049,0.098-0.147,0.162-0.065,0.309
		c-0.147,0.277-0.293,0.604-0.163,0.832v0.439c-0.701,0.197-1.37,0.555-2.071,0.67c-0.685,0.277-1.369,0.635-2.021,0.977
		c-0.065,0.164-0.375,0.164-0.457,0.311c-1.06,0.488-1.842,1.158-2.853,1.662c-0.065,0.195-0.293,0.131-0.375,0.246
		c-0.375,0.195-0.831,0.521-1.207,0.602c-0.587,0.359-1.108,0.49-1.777,0.719c-1.581,0.439-3.261,0.455-4.939,0.129
		c-0.668-0.064-1.354-0.504-2.038-0.766c-0.815-0.668-1.939-1.043-2.396-2.086c-0.277-0.246-0.473-0.637-0.799-0.816
		c-0.016-0.178-0.18-0.227-0.196-0.357c-0.587-0.588-0.603-1.582-0.848-2.363c0.033-0.979-0.391-2.023-0.098-2.967
		c0.049-0.555,0.082-1.225,0.244-1.777c0.18-0.783,0.277-1.598,0.408-2.365c0.114-0.031,0.016-0.211,0.082-0.293
		c0-0.359,0.179-0.652,0.147-1.01c0.114-0.164,0.114-0.344,0.13-0.555c0.048-0.018,0.114-0.033,0.114-0.082
		c0.195,0.164,0.473,0.521,0.815,0.439c0.211-0.08,0.375-0.357,0.375-0.602c-0.017-0.049-0.098-0.131,0-0.148
		c-0.082-0.113-0.017-0.357-0.147-0.391c-0.163-1.238-1.597-1.988-2.69-2.625c-1.19-0.553-2.135-1.58-2.087-3.064
		c0-0.229,0.017-0.521,0.082-0.783c0.016,0.066,0.13-0.016,0.13,0.1c0.114,0.455,0.521,1.092,0.978,1.531
		c0.359,0.229,0.539,0.588,0.962,0.701c0.734,0.619,1.76,0.814,2.25,1.729c0.392,0.504,0.652,1.027,0.88,1.613
		c0.179,0.75,0.195,1.418,0.277,2.137c0.049,0.717,0.163,1.531,0,2.314c0,0.18,0.016,0.342-0.017,0.537
		c-0.244,0.098,0.033,0.326,0.017,0.506c-0.049,0.408-0.017,0.914-0.098,1.32c0.163,1.385-0.358,2.885,0.18,4.174
		c-0.033,0.342,0.277,0.521,0.195,0.912c0.212,0.375,0.293,0.816,0.701,1.076c0.082,0.146,0.082,0.375,0.31,0.326
		c0.195,0.131,0.244,0.359,0.505,0.359c0.571,0.064,1.141,0.293,1.729,0.277c2.103-0.375,3.928-1.582,5.869-2.381
		c1.402-0.863,2.804-1.744,4.287-2.396c1.158-0.766,2.494-1.125,3.766-1.711c0.668-0.262,1.369-0.326,2.054-0.555
		c0.717,0.049,1.581-0.213,2.266,0.18c0.423,0.08,0.782,0.309,1.222,0.455c-0.032,0.49,0.098,1.061,0.147,1.484
		C62.307,106.857,61.28,106.09,60.008,106.385L60.008,106.385z M62.389,111.178c-0.31-0.164-0.62-0.424-0.799-0.734
		c-0.457-0.488-0.734-1.109-0.783-1.777c0.913-0.717,2.217-0.619,3.375-0.488c0.261,0.342,0.293,0.799,0.636,1.076
		c0.048,0.131,0.195,0.26,0.277,0.375c0.358,0.521,0.815,0.928,1.288,1.385C65.225,111.715,63.546,111.682,62.389,111.178
		L62.389,111.178z M72.463,109.938c-0.162,0.18-0.244,0.393-0.31,0.619c-0.358,0.408-0.848,0.686-1.418,0.652
		c-1.761-0.049-3.31-0.83-4.467-2.102c-0.636-0.588-1.027-1.24-1.288-2.088c-0.163-0.488-0.521-1.107-0.18-1.58
		c0.669-0.164,1.354-0.148,1.957,0.162c0.162-0.049,0.146,0.131,0.31,0.098c1.141,0.506,1.793,1.973,2.95,2.527
		c0.098,0.131,0.212,0.211,0.359,0.293c0.7,0.359,1.435,0.734,2.184,1.012C72.626,109.629,72.447,109.791,72.463,109.938
		L72.463,109.938z M95.205,95.641c-0.571,0.734-0.767,1.533-1.108,2.363c-0.065,0.652-0.44,1.256-0.18,1.957
		c0.146,1.598-0.114,3.016-0.131,4.68c-0.13,1.156-0.456,2.217-0.701,3.293c-0.358,0.814-0.538,1.695-1.141,2.396
		c-0.261,0.928-0.962,1.58-1.695,2.217c-0.44,0.357-0.979,0.57-1.402,0.912c-1.19,0.555-2.673,0.896-4.108,0.668
		c-1.222,0.066-2.38-0.357-3.668-0.504c-0.961-0.375-2.021-0.783-2.934-1.223c-0.604-0.424-1.337-0.848-1.794-1.369
		c-0.88-0.686-1.581-1.713-2.673-2.137c-0.848-0.652-1.55-1.207-2.527-1.533c-0.146-0.08-0.229-0.227-0.31-0.26
		c0.032-0.113,0.261-0.016,0.44-0.016c0.276-0.164,0.587,0.146,0.929,0.08c0.081,0.146,0.163,0.049,0.261,0.115
		c0.718,0.211,1.32,0.473,1.973,0.832c0.146,0.064,0.277,0.342,0.489,0.357c0.294,0.424,0.766,0.701,1.255,0.963
		c0.506,0.439,1.011,0.75,1.565,1.092c0.521,0.439,1.223,0.799,1.761,1.174c0.408,0.082,0.668,0.406,1.108,0.473
		c1.695,0.684,3.554,1.254,5.526,1.125c0.538,0.049,1.125,0.064,1.63-0.195c0.408-0.457,1.125-0.621,1.125-1.289
		c-0.44-0.359-0.848,0.229-1.337,0.082c-1.385,0.244-2.755,0.098-4.042-0.213c-0.539-0.016-1.027-0.277-1.565-0.406
		c-0.457-0.229-1.011-0.359-1.516-0.652c-0.864-0.457-1.68-0.945-2.479-1.549c-0.587-0.424-1.207-0.766-1.729-1.223
		c-0.488-0.393-0.994-0.848-1.548-1.061c-1.044-0.57-2.25-0.994-3.489-0.945c-0.619,0-1.206-0.049-1.712,0.229
		c-0.228-0.113-0.473-0.293-0.586-0.488c0,0.016-0.05-0.082,0-0.131c0.537-0.213,1.075-0.457,1.662-0.521
		c0.489-0.293,1.142-0.277,1.663-0.424c1.354-0.164,2.526,0.277,3.766,0.586c1.386,0.539,2.771,1.174,4.076,1.793
		c2.103,0.914,3.879,2.414,6.243,2.805c-0.017,0.064,0.032,0.098,0.065,0.113c0.18,0,0.326,0,0.473,0.018
		c0.261,0.016,0.456,0.162,0.685,0c0.212,0.064,0.505-0.082,0.718-0.146c0.439-0.098,1.011-0.098,1.255-0.57
		c0.244-0.67,0.717-1.223,1.027-1.859c0.179-0.26,0.049-0.717,0.358-0.961c0.473-1.582,0.506-3.375,0.652-5.086
		c-0.114-0.295-0.049-0.67,0-1.027c0.081-0.375,0.032-0.734,0.032-1.125c0.131-0.295,0.18-0.604,0.261-0.896
		c0.146-1.076,0.717-1.99,1.174-2.936c0.343-0.781,0.521-1.629,0.782-2.43c0.017-0.178,0.017-0.309,0.229-0.424
		c0.261-0.375,0.555-0.879,0.979-1.043c0.587-0.553,1.092-0.977,1.646-1.5c0.049,0.148,0.114,0.359,0.114,0.506
		C97.112,92.363,96.216,94.076,95.205,95.641L95.205,95.641z M96.606,87.539c-0.326,0.424-0.603,0.979-0.929,1.385
		c-0.359,0.277-0.733,0.572-1.076,0.881c-0.082-0.131,0.032-0.26-0.032-0.473c-0.065-0.521-0.262-1.027-0.375-1.564
		c-0.392-1.369-1.483-2.414-2.364-3.457c-1.19-1.256-2.38-2.575-3.081-4.173c-0.343-0.604-0.489-1.304-0.587-2.07
		c0.326-1.451,0.668-2.902,0.881-4.418c0.081-0.636,0.276-1.288,0.228-1.924c-0.016-0.033,0.114-0.082,0-0.098
		c0.065,0,0.114-0.065,0.065-0.13l0.049,0.065v0.146c0.032,0.489,0.18,0.864,0.245,1.288c0.179,0.456,0.049,0.799,0.342,1.222
		c0.017,0.375,0.212,0.685,0.31,1.043c0.294,0.832,0.995,1.582,1.614,2.25c0.407,0.44,0.815,0.913,1.304,1.239
		c0.832,0.962,1.875,1.891,2.723,2.951c0.571,0.635,0.979,1.37,1.271,2.168C97.731,85.061,97.504,86.658,96.606,87.539
		L96.606,87.539z M96.606,70.226c-0.064,0.245,0.18,0.717-0.228,0.717c-1.158,0-2.43-1.092-3.358-1.728
		c-0.636,0.358-1.32,2.348-1.271,3.081c0,0.62-0.31,1.304-0.245,1.989c-0.064,0.033-0.032,0.13-0.098,0.163
		c-1.435-1.973,0.212-6.782-1.239-8.64c0.962-2.054,1.305-1.337,2.104-2.282c2.543,0,3.929,1.19,5.119,3.277
		c-0.424,0.456-0.522,1.157-1.093,1.467C96.166,68.873,96.313,69.688,96.606,70.226L96.606,70.226z M98.188,82.859
		c-0.033-0.031-0.114-0.031-0.163-0.049c-0.489-1.434-3.081-3.944-4.223-5.119c-0.065-0.586-1.288-2.673-0.864-3.113
		C94.944,76.877,98.971,79.192,98.188,82.859L98.188,82.859z M98.155,78.132c-0.733-1.663-3.423-2.82-4.679-5.363
		c0.033-0.407-0.163-0.636,0-1.043c0.147-0.375-0.358-0.358-0.179-0.701c0.814,0.164,1.435,0.864,2.266,1.076
		c0.636,0.179,1.256,0.065,1.907,0.163c0.799-0.522,0.277-1.435,0.506-2.103c2.934,0.537,2.347,4.564,2.804,6.602
		c0.229,1.027,0.814,1.565,1.141,2.429C100.797,79.453,98.645,79.257,98.155,78.132L98.155,78.132z M106.16,68.922
		c-0.343,1.842-1.435,3.277-1.777,4.972c-0.244,1.729-1.761,3.065-0.815,4.924c-1.679-0.196-1.646-4.858-1.874-6.048
		c-0.147-0.75-0.392-1.435-0.848-2.054c-0.343-0.473-1.5-1.337-2.07-1.533c-0.473-0.179-0.881-0.114-1.224-0.424
		c0.229-0.587,0.686-1.06,0.962-1.63c0.995-2.07-0.766-2.706,1.908-4.353C103.633,61.797,106.828,65.661,106.16,68.922
		L106.16,68.922z M100.047,61.569c-0.489,0.391-0.946,0.375-1.321,0.945c-0.212,0.31-0.439,0.701-0.7,0.946
		c0.049,0.163-0.049,0.31-0.196,0.359l-0.179,0.293l-0.196,0.358c-0.261-0.033-0.603-0.342-0.782-0.522
		c-0.521-0.896-3.782-1.875-4.744-1.646c-0.586,0.146-1.712,1.288-2.217,1.663l-0.18-0.065l-0.049-0.293l-0.016,0.146
		c-0.18-1.957-0.408-6.798-0.945-8.478c0.13-0.13,0.244-0.326,0.244-0.521c0.326,0.082,0.554,0.392,0.913,0.375
		c1.891,1.19,5.184,0.62,6.423-1.288c0.244,0.065,0.586,0.196,0.701,0.457c0.863,0.554,1.238,1.597,1.711,2.478
		c-0.081,0.391,0.262,0.685,0.229,1.059l0.358,0.31c0.669-0.212,0.718-1.043,1.174-1.5c0.311-1.5,0.18-2.315-0.31-3.766
		c0.881-0.065,2.625,1.239,2.592,2.152c-0.064,1.614,1.565,6.097,3.261,6.456c0.163,0.211,0.489,0.114,0.604,0.375
		c0.424,0.196,0.929,0.13,1.386,0.277c0.358-0.163,0.782,0.033,1.141-0.18C106.535,65.759,103.192,60.07,100.047,61.569
		L100.047,61.569z M115.452,56.826c-0.881,0.277-1.32-1.435-2.396-1.565c-0.57-0.065-1.745,0.457-1.94,1.011
		c-0.309,0.896,0.033,2.511-0.586,3.277c-1.957,2.38-5.087,1.679-6.114-1.141c-0.391-1.076-0.766-1.32-0.782-2.56
		c2.201,0.408,2.608,0.896,4.81-0.375c1.793-1.043,4.793-4.499,6.993-3.146c0.359-0.049,1.239,1.809,1.419,2.152
		C116.609,55.375,117.066,56.646,115.452,56.826L115.452,56.826z M125.689,58.211c-1.793-0.229-1.223-0.832-3.276-0.636
		l-0.375,0.048c-2.657-0.098-6.798-8.167-7.906-10.352c-0.913-1.793-3.489-2.608-4.124-3.309c0.407-0.164,2.656-1.875,2.559-2.152
		c-2.592-1.5-2.526-2.559-4.418-4.042c3.668,0.651,7.695,6.357,9.455,9.553c0.718,1.272,2.381,3.016,2.869,4.238
		c1.027,0.75,1.859,1.957,2.854,2.821c1.076,0.799,2.119,1.663,3.163,2.478C127.174,57.413,126.342,58.293,125.689,58.211
		L125.689,58.211z M127.238,56.043c-0.276-0.065-2.135-1.728-2.412-2.038c-0.213-0.245-0.62-0.164-0.783-0.473
		c-0.261-0.081-0.439-0.31-0.685-0.44c-0.229-0.375-0.668-0.554-0.864-0.978c-1.434-0.864-1.76-2.625-2.967-3.521
		c-0.081-0.196-1.516-2.527-1.662-2.69c-0.082-0.472-0.718-0.586-0.652-1.125c-0.505-0.408-0.457-1.337-1.19-1.517
		c-2.2-2.983-4.238-5.2-7.906-6.26c-1.011-0.293-1.761-0.505-2.755-0.945c-2.006-0.652-3.668-0.913-5.755-0.946
		c-3.228-0.065-6.944-1.141-9.554-0.945c-1.793,0.13-6.472,1.956-7.107,1.907c-0.521,0.278-0.912-0.244-1.369-0.423
		c-2.299-0.848-11.559,0.733-12.178-1.891c0.456,0.228,1.027,0.179,1.516,0.163c3.131-0.065,6.081-2.609,9.276-3.228
		c2.771-0.521,4.304,2.07,8.412-0.473c9.667,8.819,19.645-0.733,33.681,14.297c2.967,3.146,4.776,6.602,5.069,11.003L127.238,56.043
		L127.238,56.043z"/>
	<path fill-rule="evenodd" clip-rule="evenodd" fill="#1D1D1B" d="M81.896,142.719l3.266,5.637c0.493,0.82,0.977,1.605,1.395,2.443
		l-5.878,1.303l0.033-0.199l0.569-4.434L81.896,142.719L81.896,142.719z M96.881,159.061c-1.178-1.988-2.31-3.947-3.487-5.936
		l-2.593-4.352l-3.426-5.834l-2.522-4.211l-0.87-1.477l-0.168-0.234l-3.513,0.779l-0.004,0.156c-0.256,1.996-0.52,3.955-0.775,5.951
		l-0.871,6.746l-0.723,5.666c-0.285,2.393-0.615,4.752-0.937,7.152l2.255-0.5c0.169-1.164,0.33-2.361,0.441-3.434l0.623-4.715
		l0.062-0.246l7.432-1.646c1.431,2.436,2.743,4.861,4.196,7.215L96.881,159.061L96.881,159.061z"/>
	<path fill-rule="evenodd" clip-rule="evenodd" fill="#1D1D1B" d="M47.909,139.119c1.606,0.447,3.557,0.582,4.388,2.211
		c0.353,0.664,0.533,1.404,0.556,2.148c0.013,0.623-0.041,1.193-0.176,1.785c-0.207,0.73-0.498,1.322-0.761,1.961
		c-0.648,1.133-1.839,2.26-3.241,2.443c-1.052,0.186-2.089-0.207-3.205-0.424l2.365-10.141L47.909,139.119L47.909,139.119z
		 M51.692,151.758c1.033-0.268,2.045-0.619,2.896-1.277c2.084-1.465,3.039-4.277,2.843-6.809c-0.363-3.502-3.674-5.154-6.811-5.873
		l-7.123-1.633l-5.441,23.73l4.724,1.084l2.286-9.965l2.029,0.465l-0.009,0.037l1.443,6.586l0.968,4.418l4.724,1.082
		c-0.811-3.916-1.742-7.818-2.562-11.697C51.659,151.906,51.61,151.777,51.692,151.758L51.692,151.758z"/>
	<polygon fill-rule="evenodd" clip-rule="evenodd" fill="#1D1D1B" points="30.154,142.148 33.631,134.412 40.815,137.641 
		41.777,135.5 30.208,130.299 20.226,152.508 31.693,157.662 32.655,155.52 25.575,152.338 29.192,144.291 34.788,146.805 
		35.749,144.664 30.154,142.148 	"/>
	<path fill-rule="evenodd" clip-rule="evenodd" fill="#1D1D1B" d="M8.707,145.373c2.531-1.957,5.299-4.117,7.883-6.082l4.499-3.525
		l7.419-5.76l0.239-0.203l-1.874-1.35l-5,3.959l-5.228,4.211l-5.165,4.121c-0.029-0.021-0.065,0.092-0.084-0.014l2.069-5.135
		c1.085-2.674,2.149-5.314,3.264-7.963l2.032-5.025l-4.024-2.898c-0.431,1.182-0.929,2.457-1.406,3.699l-1.615,4.252l-0.37,0.9
		l-2.575,6.684l-2.12,5.662c-0.289,0.725-0.604,1.615-0.863,2.363L8.707,145.373L8.707,145.373z"/>
	<path fill-rule="evenodd" clip-rule="evenodd" fill="#1D1D1B" d="M97.889,131.332c-1.636,0.709-3.236,1.656-4.409,2.938
		c-1.309,1.35-2.07,3.354-2.018,5.283c0.012,3.1,1.327,6.17,2.86,9c1.48,2.646,3.195,5.002,5.782,6.314
		c2.467,1.248,5.241,0.934,7.701-0.324c1.736-0.93,3.437-2.012,4.42-3.664c1.034-1.805,0.913-3.955-0.069-5.791l-2.764,1.414
		c0.741,1.533,0.959,3.123,0.211,4.654c-0.281,0.611-0.888,1.092-1.493,1.488c-0.539,0.275-1.096,0.518-1.688,0.607
		c-2.555,0.412-4.302-1.756-5.655-3.572c-1.769-2.625-3.253-5.609-4.432-8.58c-0.66-1.873-1.271-3.729-0.95-5.68
		c0.195-1.035,0.899-1.736,1.826-2.252c0.572-0.295,1.131-0.367,1.673-0.389c0.778,0.027,1.46,0.445,1.989,0.896
		c0.888,0.822,1.575,1.832,2.144,2.943l3.844-1.965c-0.984-2.008-2.643-3.668-4.914-3.951c-0.374-0.066-0.745-0.045-1.084-0.041
		c-0.677,0.006-1.285,0.146-1.91,0.34L97.889,131.332L97.889,131.332z"/>
	<path fill-rule="evenodd" clip-rule="evenodd" fill="#1D1D1B" d="M73.59,142.062c-1.06-0.984-2.348-1.893-3.635-2.422
		c-0.985-0.418-2.121-0.455-3.219-0.455c-1.136,0.037-2.196,0.266-3.181,0.719c-2.234,0.871-3.787,3.143-4.052,5.566
		c-0.303,2.424,0.076,4.998,1.856,6.588c1.931,1.818,4.771,1.629,6.967,2.84c1.438,0.682,2.536,2.084,2.461,3.674
		c0.038,0.645-0.113,1.25-0.303,1.818c-0.379,0.908-1.25,1.514-2.083,1.855c-0.189,0.074-0.416,0.074-0.568,0.15
		c-0.644,0.113-1.4,0.113-2.044-0.076c-1.931-0.492-3.408-2.309-4.278-4.014l-2.802,2.727c1.325,1.666,3.294,2.764,5.339,3.105
		c0.909,0.189,2.044,0.303,3.143,0.264c2.878-0.037,5.681-1.59,6.74-4.277c0.984-2.234,1.061-5.377-0.151-7.535
		c-1.136-1.932-3.294-2.84-5.339-3.369c-2.121-0.645-5.036-1.213-5.528-3.787c-0.076-0.795-0.038-1.666,0.265-2.348
		c0.568-1.326,1.894-1.779,3.257-1.818c2.12-0.15,3.521,1.855,4.506,3.408L73.59,142.062L73.59,142.062z"/>
	<polygon fill-rule="evenodd" clip-rule="evenodd" fill="#1D1D1B" points="120.363,129.877 121.753,131.768 116.81,135.4 
		122.032,142.51 128.288,137.914 129.678,139.807 119.547,147.248 105.134,127.625 115.356,120.117 116.746,122.008 
		110.398,126.672 115.419,133.508 120.363,129.877 	"/>
</g>
</svg>
