<?xml version="1.0" encoding="utf-8"?>
<!-- Generator: Adobe Illustrator 16.0.0, SVG Export Plug-In . SVG Version: 6.00 Build 0)  -->
<!DOCTYPE svg PUBLIC "-//W3C//DTD SVG 1.1//EN" "http://www.w3.org/Graphics/SVG/1.1/DTD/svg11.dtd">
<svg version="1.1" id="Layer_1" xmlns="http://www.w3.org/2000/svg" xmlns:xlink="http://www.w3.org/1999/xlink" x="0px" y="0px"
	 width="196.03px" height="34.727px" viewBox="0 0 196.03 34.727" enable-background="new 0 0 196.03 34.727" xml:space="preserve">
<path d="M116.86,17.635h4.189l-1.564-5.82L116.86,17.635 M110.347,27.482c0.206-0.209,0.659-0.861,0.882-1.239l9.713-19.076
	l4.432,18.768c0,0,0.529,1.37,0.784,1.548c-0.323,0-1.889,0-2.319,0c-0.162-0.537-2.507-8.851-2.507-8.851h-4.954
	c0,0-3.918,8.608-4.027,8.851C112.026,27.482,110.456,27.482,110.347,27.482z M129.616,22.042c0.027,6.68,7.974,6.896,7.988-0.379
	l0.013-13.39l2.211,0.002c-0.553,0.442-0.755,2.446-0.862,4.093c-0.038,0.564-0.432,8.916-0.479,9.736
	c-0.599,8.963-10.539,7.666-10.999,0.769c-0.05-0.754-0.217-12.257-0.27-12.662c-0.055-0.941-0.27-1.724-0.672-1.938
	c0.294,0,3.043,0,3.043,0L129.616,22.042 M141.823,8.327c16.756-2.453,12.596,9.053,6.786,10.157c0,0,7.032,8.621,7.301,8.998
	c0-0.055-0.201-17.243-0.201-17.243c-0.041-1.388-0.636-1.965-0.636-1.965h10.038v1.965c0,0-2.128-1.049-6.828-1.076l-0.19,8.392
	h7.019v1.158h-7.019v7.64c0,0.606,0.511,0.563,0.89,0.563c4.582,0,7.437-1.023,7.437-1.023l-0.811,1.82c0,0-8.809,0.014-9.414,0
	c0.281,0.471,2.627,2.977,4.161,3.921c-0.755-0.3-3.906-1.43-5.064-2.694c-0.372-0.41-8.823-9.324-9.443-10.051
	c8.606-1.576,5.697-11.667-0.794-9.968l-0.918,18.562h-2.613c0.197-0.277,0.358-0.9,0.434-1.545l0.458-15.564
	C142.401,9.277,142.129,8.709,141.823,8.327 M74.608,27.511c0-0.004-0.309-17.62-0.309-17.62c-0.002-0.629-0.367-1.331-0.73-1.697
	h3.141L76.51,26.394c-0.031,0.248,0.309,1.053,0.457,1.117C76.93,27.507,74.608,27.511,74.608,27.511 M79.068,8.195h3.353
	L94.652,25.06V8.195H109.5l1.236-5.643c0.131-0.756,0.131-1.215-0.218-1.658h3.478l-7.385,30.954
	c-0.184,0.712-0.134,1.333,1.057,1.35c3.66,0.052,11.207-0.609,14.223-1.643l-1.4,2.449h-16.92c0.268-0.349,0.513-0.996,0.755-1.883
	l4.786-22.214c-1.814-0.669-4.035-0.711-6.077-0.709l-0.589,16.818c-0.004,0.627,0.1,1.088,0.211,1.496c-0.01,0-2.572,0-2.584,0
	c0.186-0.486,0.244-0.891,0.266-1.581l-0.135-16.738h-3.205c-1.052,0.027-0.834,0.969-0.864,1.373L95.3,29.076L81.312,11.164
	l0.005,16.348c0,0-1.873,0-1.845,0c0.174-0.267,0.436-1.109,0.472-1.775l0.525-15.737L79.068,8.195 M196.03,8.382v1.376
	c-1.859-0.559-3.164-0.559-5.245-0.559c0-0.002-0.622,17.191-0.622,17.191c-0.024,0.613,0.037,0.854,0.162,1.305
	c0,0-2.471-0.004-2.471-0.008c0.139-0.464,0.219-0.643,0.26-1.307L188,9.199c0,0-3.475,0-3.488,0c-1.089,0-1.089,1.123-1.089,1.527
	c0,0-0.665,17.857-0.694,18.531c-0.24-0.352-13.989-17.91-13.989-17.91l0.007,16.348c0,0-1.275,0-1.663,0
	c0.239-0.532,0.257-1.074,0.289-1.78c0,0,0.526-15.248,0.526-15.734c-0.149-0.214-1.225-1.589-1.401-1.803c0.527,0,3.354,0,3.354,0
	l12.231,16.866V8.382H196.03 M64.127,17.542h3.99l-1.428-5.496L64.127,17.542 M63.632,18.749l-5.038,10.706
	c-3.403,6.966-11.48,6.535-16.919,1.594l0.864-2.746c7.224,11.681,19.322,2.5,12.906-5.628l-9.404-11.133
	c-6.408-7.396-10.269,0.437-6.709,3.287l5.28,3.987c3.881,2.754,2.583,8.612-2.438,9.133c-2.319,0.243-4.971-0.777-6.561-1.868
	l-0.432,1.479H24.892c0.18-0.335,0.379-0.954,0.377-1.428l-0.027-17.06c0.01-0.313-0.191-0.332-0.311-0.075l-9.062,19.413l-4-17.595
	c-0.133-0.43-0.405-0.027-0.405-0.027c-0.673,0.931-3.632,5.079-4.162,5.792c-0.393,0.526-0.554,0.877-0.85,1.741
	C6.301,18.751,3.054,31.805,2.91,32.315c-0.133,0.464,0.049,1.406,0.295,1.642H0c0.111-0.09,0.632-0.699,0.756-1.178l2.552-13.18
	c0.568-2.597-0.156-5.228-0.156-5.228C1.574,5.154,1.229,1.175,0.404,0.549h2.667c0.082,0.486,3.151,15.006,3.34,15.707
	c-0.189,0.298,10.21-15.578,10.21-15.578h2.695c0,0-1.348,1.271-1.588,1.597c-0.209,0.275-3.449,4.7-3.853,5.253l3.097,16.676
	L23.68,8.148h11.153v1.818c-1.223-0.61-5.462-1.351-7.139-1.132l-0.161,8.095c0.008,0.443,0.001,0.478,0.403,0.478l6.912-0.005
	v1.119h-7.397l-0.229,7.826c0,0.537,0.39,0.593,0.727,0.605c2.893,0.111,5.621-0.268,7.633-1.146l0.477-1.75
	c2.225,2.721,4.023,3.691,6.371,3.004c2.256-0.658,4.416-3.74,0.267-6.629l-4.036-2.854c-5.59-4.222-0.864-13.35,7.056-8.782
	C45.691,0.847,55.813-3.121,62.961,2.948L62.26,5.562c-6.312-10.248-17.872-1.821-12.526,5.493l7.568,9.89
	c1.699,2.133,1.988,3.672,1.988,3.672l8.908-17.042l4.431,18.526c0.159,0.584,0.481,1.183,0.715,1.41c-0.003,0-2.543,0-2.546,0
	c0.003,0-2.357-8.756-2.357-8.756L63.632,18.749z"/>
</svg>
