<?xml version="1.0" encoding="utf-8"?>
<!-- Generator: Adobe Illustrator 16.0.0, SVG Export Plug-In . SVG Version: 6.00 Build 0)  -->
<!DOCTYPE svg PUBLIC "-//W3C//DTD SVG 1.1//EN" "http://www.w3.org/Graphics/SVG/1.1/DTD/svg11.dtd">
<svg version="1.1" id="Layer_1" xmlns="http://www.w3.org/2000/svg" xmlns:xlink="http://www.w3.org/1999/xlink" x="0px" y="0px"
	 width="291.854px" height="68.054px" viewBox="0 0 291.854 68.054" enable-background="new 0 0 291.854 68.054"
	 xml:space="preserve">
<g>
	<path fill-rule="evenodd" clip-rule="evenodd" fill="#004685" d="M57.55,57.202c0,4.584-3.831,8.303-6.717,8.303l0,0H18.229
		L59.241,0H4.404v10.851h2.818l0,0c0-4.586,2.968-8.303,5.854-8.303l0,0h28.175L0,68.054h59.484l0.004-10.853H57.55L57.55,57.202
		L57.55,57.202L57.55,57.202z"/>
	<path fill-rule="evenodd" clip-rule="evenodd" fill="#004685" d="M105.345,65.926c3.979,0,7.846-1.646,6.976-3.175l0,0
		l-7.624-15.123H77.869l-6.991,15.165l0,0c-0.736,1.703,2.333,3.133,5.21,3.133l0,0v2.128H60.614l-0.002-2.128l0,0
		c3.978,0,6.775-1.742,7.287-3.12l0,0L96.974,0l31.731,62.751l0,0c1.014,1.651,3.988,3.175,8.864,3.175l0,0l-0.006,2.128h-32.217
		V65.926L105.345,65.926L105.345,65.926L105.345,65.926z M79.035,45.175l11.607-25.472l12.959,25.472H79.035L79.035,45.175
		L79.035,45.175L79.035,45.175z"/>
	<path fill-rule="evenodd" clip-rule="evenodd" fill="#004685" d="M141.266,2.628c4.722,0,8.614,1.217,8.614,2.687
		c0,11.672-0.026,57.381,0,57.381c0,1.562-3.848,3.3-8.565,3.3l0,0l-0.007,2.058h31.539v-1.916l0,0c-4.684,0-8.48-1.873-8.48-3.432
		l0,0V2.048h9.093l0,0c8.763,0,15.853,7.275,15.853,15.532c0,8.259-7.099,14.953-15.861,14.953l0,0h-6.293l0,0
		c0,0,21.322,32.276,21.352,32.276c0.842,1.223,1.257,3.245,1.257,3.245l0,0h22.985v-1.916l0,0c-4.425,0-6.74-1.838-8.02-3.438l0,0
		l-20.528-26.777l0,0c9.849-0.652,17.481-8.622,17.481-18.072C201.685,7.975,193.2,0,182.726,0l0,0h-41.46V2.628L141.266,2.628
		L141.266,2.628L141.266,2.628z"/>
	<path fill-rule="evenodd" clip-rule="evenodd" fill="#004685" d="M259.625,65.997c3.984,0,7.851-1.716,6.979-3.245l0,0
		l-7.626-15.123h-26.826l-6.991,15.165l0,0c-0.736,1.703,2.333,3.345,5.211,3.345l0,0v1.916h-15.478v-2.058l0,0
		c3.979,0,6.776-1.812,7.285-3.19l0,0L251.259,0l31.73,62.751l0,0c1.014,1.651,3.986,3.316,8.865,3.316l0,0l-0.008,1.986h-32.222
		V65.997L259.625,65.997L259.625,65.997L259.625,65.997z M233.319,45.175l11.605-25.472l12.961,25.472H233.319L233.319,45.175
		L233.319,45.175L233.319,45.175z"/>
</g>
</svg>
