<?xml version="1.0" encoding="utf-8"?>
<!-- Generator: Adobe Illustrator 16.0.0, SVG Export Plug-In . SVG Version: 6.00 Build 0)  -->
<!DOCTYPE svg PUBLIC "-//W3C//DTD SVG 1.1//EN" "http://www.w3.org/Graphics/SVG/1.1/DTD/svg11.dtd">
<svg version="1.1" id="Layer_1" xmlns="http://www.w3.org/2000/svg" xmlns:xlink="http://www.w3.org/1999/xlink" x="0px" y="0px"
	 width="800px" height="600px" viewBox="0 0 800 600" enable-background="new 0 0 800 600" xml:space="preserve">
<g>
	<path fill-rule="evenodd" clip-rule="evenodd" fill="#1D1D1B" d="M443.281,238.512c15.69,24.123,22.702,55.307,15.445,85.412
		c-4.07,16.818-11.131,32.361-22.897,45.992c-11.817,13.875-28.782,20.543-46.629,15.836c-23.633-6.57-37.803-31.969-44.766-53.002
		c-5.884-17.455-7.061-39.863-2.403-58.25c4.609-18.485,12.552-35.597,26.918-49.914c11.13-10.934,26.477-15.592,42.068-11.768
		C424.11,215.908,435.779,226.94,443.281,238.512L443.281,238.512z"/>
	<path fill-rule="evenodd" clip-rule="evenodd" fill="#FFFFFF" d="M438.918,237.874c9.315,15.886,14.17,33.586,16.229,52.512
		c1.716,21.672-2.746,41.825-10.738,60.014c-5.639,13.336-17.112,28.684-31.87,32.803c-17.21,5.148-34.714-0.883-45.746-15.15
		c-11.816-15.348-17.112-33.439-20.348-52.316c-3.824-25.742,1.667-50.748,12.111-72.125c5.638-11.719,16.72-24.565,29.615-28.095
		c16.573-4.903,33.586,0.441,44.619,13.876C435.094,232.137,437.104,234.981,438.918,237.874L438.918,237.874z"/>
	<path fill-rule="evenodd" clip-rule="evenodd" fill="#1D1D1B" d="M372.039,234.05c0.147,2.304,0.393,4.854,2.599,6.227
		c1.765,0.98,4.07,0.294,5.835-0.246c3.579-1.569,7.649-3.187,11.865-1.863c2.893,0.637,5.541,1.863,7.943,3.579
		c4.217-2.844,9.364-4.805,14.808-3.628c3.284,0.833,6.178,3.04,9.904,2.55c1.813-0.245,2.99-2.108,3.334-3.727
		c0.196-0.932,0.294-1.863,0.245-2.893l1.029-0.049v26.673h-1.373c-0.588-8.237-3.922-17.798-12.797-20.201
		c-4.363-0.883-8.924-0.049-11.816,3.383c9.806,7.698,12.11,19.27,14.905,30.252c2.55,8.188,2.55,17.504,10.052,23.535l2.255,1.716
		c-4.314,2.844-7.551,7.256-8.924,11.865c-3.922,13.043-5.05,27.213-13.091,38.49c-1.422,1.863-3.236,3.824-5.197,5.098
		c3.089,3.826,8.58,4.512,13.042,3.09c8.188-3.188,10.885-11.914,11.571-19.857h1.373v26.674c-0.294-0.1-0.687-0.051-1.029-0.051
		c0.049-2.254-0.294-4.412-2.011-5.883c-1.912-1.568-4.805-0.588-6.815,0.098c-2.893,1.129-5.785,2.551-9.267,2.061
		c-3.727-0.492-7.109-1.766-10.149-3.973c-4.364,3.041-9.953,5.002-15.494,3.432c-2.991-0.932-5.737-2.744-9.169-2.354
		c-1.177,0.197-2.305,1.275-2.795,2.354c-0.588,1.275-0.784,2.746-0.833,4.266l-0.932,0.051v-26.674h1.373
		c0.588,7.746,3.089,15.787,10.591,19.514c4.609,1.863,10.64,1.373,14.023-2.646l-0.049-0.1c-8.335-6.471-11.179-15.982-13.63-25.25
		l-4.462-17.945c-1.422-4.707-4.56-9.268-9.071-12.258c5.589-3.678,8.728-9.414,9.904-15.445l4.217-17.112
		c2.5-8.384,5.344-17.062,13.091-22.897c-2.991-3.628-7.992-4.462-12.503-3.285c-8.483,2.893-11.522,11.963-12.111,20.053h-1.373
		V234L372.039,234.05L372.039,234.05z"/>
	<path fill-rule="evenodd" clip-rule="evenodd" fill="#FFFFFF" d="M407.538,261.066c3.187,12.013,4.707,24.663,5.147,37.754
		c-0.294,12.797-1.716,25.153-4.608,36.92c-1.716,5.834-3.188,11.816-7.747,16.426c-4.364-4.314-5.786-9.953-7.453-15.445
		c-3.04-12.061-4.56-24.76-4.903-37.95c0.638-14.759,2.255-29.125,6.619-42.363c1.373-3.481,2.697-7.061,5.737-9.855
		C404.449,250.622,405.92,255.869,407.538,261.066L407.538,261.066z"/>
</g>
</svg>
