<?xml version="1.0" encoding="utf-8"?>
<!-- Generator: Adobe Illustrator 16.0.0, SVG Export Plug-In . SVG Version: 6.00 Build 0)  -->
<!DOCTYPE svg PUBLIC "-//W3C//DTD SVG 1.1//EN" "http://www.w3.org/Graphics/SVG/1.1/DTD/svg11.dtd">
<svg version="1.1" id="Layer_1" xmlns="http://www.w3.org/2000/svg" xmlns:xlink="http://www.w3.org/1999/xlink" x="0px" y="0px"
	 width="144.28px" height="157.435px" viewBox="0 0 144.28 157.435" enable-background="new 0 0 144.28 157.435"
	 xml:space="preserve">
<path fill-rule="evenodd" clip-rule="evenodd" fill="#FFFFFF" d="M81.98,150.465c-0.55-2.92-2.011-7.9-4.25-10.82
	c-0.57-0.74-1.57-1.229-2.5-1.229H5.04c-3.71,0-5.04-1.331-5.04-5.04V21.024c0-1.22,0.99-2.2,2.2-2.2h139.88
	c1.21,0,2.2,0.98,2.2,2.2v112.351c0,3.709-1.32,5.02-5.03,5.04l-46.101,0.189c-0.569,0-0.629,1-0.68,1.57
	c-0.25,2.55,1.051,5.729,2.19,7.689c1.2,2.081,1.46,4.49,0.42,6.32c-1.2,2.11-4.01,3.73-6.95,3.12
	C85.11,156.745,82.67,154.185,81.98,150.465z"/>
<path fill-rule="evenodd" clip-rule="evenodd" fill="#FCFCFC" d="M0.32,133.314c0.07,3.59,1.43,4.881,5.09,4.881h69.82
	c0.93,0,1.93,0.479,2.51,1.199c2.28,2.841,3.79,7.73,4.38,10.73c0.689,3.709,3.061,6.3,5.98,6.959c2.899,0.561,5.67-1.02,6.88-3.079
	c0.959-1.87,0.649-4.29-0.561-6.391c-1.14-2.05-2.42-5.21-2.14-7.71c0.06-0.55,0.13-1.52,0.7-1.529l45.939-0.18
	c3.67-0.021,5.03-1.291,5.101-4.881c0.039-1.1,0.08-2.23,0.08-3.36V21.305c0-1.21-0.99-2.2-2.211-2.2H2.45c-1.21,0-2.2,0.99-2.2,2.2
	v108.641C0.25,131.084,0.28,132.215,0.32,133.314z"/>
<path fill-rule="evenodd" clip-rule="evenodd" fill="#F7F7F7" d="M0.64,133.255c0.15,3.47,1.54,4.71,5.15,4.71h69.45
	c0.93,0,1.92,0.47,2.51,1.17c2.32,2.77,3.88,7.58,4.51,10.64c0.68,3.711,2.98,6.33,5.82,7.08c2.851,0.53,5.58-1.029,6.8-3.04
	c0.88-1.899,0.53-4.34-0.699-6.46c-1.131-2.13-2.4-5.279-2.08-7.72c0.069-0.54,0.14-1.48,0.709-1.48l45.78-0.189
	c3.63-0.011,5.021-1.24,5.181-4.71c0.08-1.06,0.14-2.18,0.14-3.32V21.584c0-1.21-0.99-2.2-2.2-2.2H2.7c-1.21,0-2.2,0.99-2.2,2.2
	v108.34C0.5,131.075,0.57,132.195,0.64,133.255z"/>
<path fill-rule="evenodd" clip-rule="evenodd" fill="#F5F5F5" d="M0.97,133.195c0.22,3.359,1.63,4.55,5.2,4.55h69.08
	c0.92,0,1.91,0.459,2.51,1.14c2.36,2.699,3.971,7.41,4.65,10.54c0.66,3.7,2.89,6.359,5.649,7.21c2.801,0.479,5.49-1.04,6.721-3.01
	c0.79-1.93,0.4-4.38-0.83-6.53c-1.141-2.21-2.391-5.34-2.04-7.73c0.08-0.53,0.16-1.439,0.729-1.439l45.62-0.18
	c3.591-0.01,5.021-1.19,5.25-4.55c0.12-1.021,0.221-2.141,0.221-3.28V21.865c0-1.21-0.99-2.2-2.21-2.2H2.95
	c-1.21,0-2.2,0.99-2.2,2.2v108.04C0.75,131.055,0.85,132.175,0.97,133.195z"/>
<path fill-rule="evenodd" clip-rule="evenodd" fill="#F0F0F0" d="M1.29,133.145c0.29,3.23,1.74,4.38,5.26,4.38H75.26
	c0.921,0,1.9,0.44,2.5,1.101c2.41,2.63,4.07,7.25,4.79,10.459c0.65,3.69,2.82,6.381,5.48,7.32c2.76,0.45,5.409-1.05,6.65-2.97
	c0.709-1.96,0.279-4.42-0.971-6.601c-1.14-2.289-2.37-5.409-1.99-7.739c0.09-0.52,0.19-1.399,0.74-1.399l45.471-0.171
	c3.55-0.01,5.009-1.149,5.329-4.38c0.15-0.99,0.28-2.11,0.28-3.25V22.155c0-1.22-0.99-2.21-2.2-2.21H3.21c-1.22,0-2.2,0.99-2.2,2.21
	v107.73C1.01,131.034,1.13,132.154,1.29,133.145z"/>
<path fill-rule="evenodd" clip-rule="evenodd" fill="#EBEBEB" d="M1.61,133.084c0.37,3.111,1.84,4.221,5.32,4.221h68.33
	c0.921,0,1.91,0.431,2.511,1.07c2.449,2.55,4.16,7.079,4.919,10.36c0.641,3.689,2.741,6.409,5.32,7.449
	c2.71,0.399,5.32-1.06,6.57-2.939c0.63-1.99,0.15-4.471-1.1-6.67c-1.141-2.371-2.36-5.48-1.94-7.75c0.09-0.5,0.2-1.351,0.75-1.36
	l45.311-0.16c3.51-0.01,5.01-1.109,5.399-4.221c0.2-0.959,0.351-2.069,0.351-3.209V22.435c0-1.22-0.98-2.2-2.201-2.2H3.46
	c-1.22,0-2.2,0.98-2.2,2.2v107.43C1.26,131.015,1.42,132.125,1.61,133.084z"/>
<path fill-rule="evenodd" clip-rule="evenodd" fill="#E8E8E8" d="M1.93,133.024c0.44,2.99,1.95,4.06,5.38,4.06h67.96
	c0.919,0,1.899,0.411,2.51,1.041c2.49,2.47,4.24,6.92,5.06,10.26c0.62,3.69,2.65,6.44,5.141,7.58c2.669,0.36,5.239-1.08,6.5-2.91
	c0.54-2.021,0.029-4.51-1.24-6.729c-1.14-2.461-2.341-5.551-1.89-7.771c0.1-0.49,0.22-1.31,0.77-1.31l45.15-0.161
	c3.47-0.02,5-1.069,5.47-4.06c0.24-0.92,0.43-2.02,0.43-3.17V22.715c0-1.22-0.989-2.2-2.2-2.2H3.71c-1.22,0-2.2,0.98-2.2,2.2v107.13
	C1.51,131.005,1.7,132.104,1.93,133.024z"/>
<path fill-rule="evenodd" clip-rule="evenodd" fill="#E3E3E3" d="M2.26,132.965c0.51,2.869,2.05,3.899,5.43,3.899h67.59
	c0.909,0,1.89,0.4,2.51,1c2.53,2.41,4.33,6.761,5.19,10.181c0.609,3.68,2.569,6.46,4.979,7.69c2.63,0.319,5.15-1.081,6.42-2.86
	c0.46-2.061-0.1-4.57-1.38-6.811c-1.13-2.54-2.319-5.619-1.83-7.78c0.101-0.479,0.229-1.27,0.78-1.27l45-0.15
	c3.42-0.02,4.989-1.03,5.54-3.899c0.27-0.881,0.49-1.979,0.49-3.131V22.995c0-1.21-0.98-2.2-2.2-2.2H3.96c-1.21,0-2.2,0.99-2.2,2.2
	v106.831C1.76,130.985,1.98,132.084,2.26,132.965z"/>
<path fill-rule="evenodd" clip-rule="evenodd" fill="#E0E0E0" d="M2.58,132.904c0.58,2.75,2.15,3.74,5.49,3.74h67.21
	c0.92,0,1.89,0.38,2.52,0.97c2.57,2.331,4.42,6.59,5.32,10.081c0.6,3.669,2.5,6.489,4.819,7.819c2.581,0.27,5.061-1.1,6.341-2.83
	c0.38-2.09-0.221-4.609-1.51-6.88c-1.141-2.609-2.311-5.68-1.79-7.79c0.12-0.46,0.25-1.23,0.8-1.23l44.84-0.14
	c3.38-0.02,4.98-0.99,5.61-3.74c0.31-0.84,0.569-1.939,0.569-3.09V23.274c0-1.21-0.99-2.2-2.199-2.2H4.21c-1.21,0-2.2,0.99-2.2,2.2
	v106.53C2.01,130.965,2.27,132.064,2.58,132.904z"/>
<path fill-rule="evenodd" clip-rule="evenodd" fill="#DBDBDB" d="M2.9,132.845c0.66,2.63,2.26,3.57,5.55,3.57h66.84
	c0.91,0,1.88,0.38,2.52,0.939c2.61,2.26,4.511,6.44,5.461,10c0.58,3.66,2.41,6.51,4.64,7.93c2.54,0.24,4.979-1.1,6.271-2.789
	c0.289-2.12-0.351-4.65-1.65-6.95c-1.141-2.69-2.29-5.75-1.73-7.8c0.12-0.45,0.271-1.19,0.811-1.19l44.68-0.14
	c3.34-0.011,4.98-0.94,5.68-3.57c0.36-0.8,0.641-1.899,0.641-3.05V23.555c0-1.21-0.98-2.2-2.2-2.2H4.46c-1.21,0-2.2,0.99-2.2,2.2
	v106.229C2.26,130.945,2.55,132.045,2.9,132.845z"/>
<path fill-rule="evenodd" clip-rule="evenodd" fill="#D6D6D6" d="M3.22,132.784c0.74,2.511,2.36,3.411,5.61,3.411H75.3
	c0.91,0,1.87,0.359,2.521,0.909c2.649,2.19,4.6,6.271,5.59,9.9c0.58,3.66,2.33,6.54,4.479,8.06c2.49,0.19,4.891-1.119,6.19-2.76
	c0.21-2.15-0.47-4.7-1.79-7.021c-1.13-2.77-2.27-5.81-1.68-7.81c0.13-0.44,0.289-1.141,0.829-1.141l44.521-0.139
	c3.3-0.011,4.979-0.9,5.76-3.411c0.391-0.77,0.711-1.85,0.711-3.01V23.845c0-1.22-0.991-2.2-2.2-2.2H4.72
	c-1.22,0-2.21,0.98-2.21,2.2v105.92C2.51,130.935,2.83,132.015,3.22,132.784z"/>
<path fill-rule="evenodd" clip-rule="evenodd" fill="#D4D4D4" d="M3.55,132.725c0.8,2.4,2.46,3.25,5.66,3.25H75.3
	c0.92,0,1.87,0.351,2.53,0.88c2.69,2.11,4.69,6.1,5.72,9.8c0.57,3.66,2.26,6.57,4.32,8.19c2.439,0.15,4.8-1.13,6.11-2.73
	c0.13-2.18-0.601-4.739-1.921-7.08c-1.14-2.859-2.26-5.89-1.629-7.83c0.129-0.42,0.3-1.1,0.84-1.1l44.359-0.13
	c3.26-0.01,4.971-0.85,5.83-3.25c0.43-0.729,0.78-1.81,0.78-2.979V24.125c0-1.22-0.98-2.2-2.2-2.2H4.97c-1.22,0-2.2,0.98-2.2,2.2
	v105.621C2.77,130.915,3.12,131.995,3.55,132.725z"/>
<path fill-rule="evenodd" clip-rule="evenodd" fill="#CFCFCF" d="M3.87,132.665c0.88,2.28,2.57,3.09,5.72,3.09H75.31
	c0.91,0,1.86,0.329,2.53,0.84c2.73,2.04,4.78,5.939,5.85,9.72c0.561,3.65,2.181,6.59,4.15,8.3c2.4,0.11,4.71-1.129,6.04-2.689
	c0.04-2.21-0.72-4.78-2.06-7.15c-1.14-2.94-2.24-5.949-1.58-7.84c0.14-0.41,0.319-1.06,0.86-1.06l44.199-0.12
	c3.221-0.01,4.971-0.81,5.91-3.09c0.471-0.69,0.85-1.771,0.85-2.94V24.405c0-1.21-0.989-2.2-2.199-2.2H5.22
	c-1.22,0-2.2,0.99-2.2,2.2v105.32C3.02,130.895,3.4,131.975,3.87,132.665z"/>
<path fill-rule="evenodd" clip-rule="evenodd" fill="#CCCCCC" d="M4.19,132.604c0.95,2.16,2.67,2.93,5.78,2.93h65.35
	c0.91,0,1.85,0.32,2.53,0.811c2.76,1.97,4.869,5.78,5.989,9.62c0.54,3.64,2.091,6.619,3.98,8.43c2.35,0.07,4.619-1.149,5.96-2.649
	c-0.04-2.25-0.85-4.841-2.19-7.23c-1.14-3.02-2.229-6.02-1.54-7.85c0.15-0.4,0.34-1.021,0.881-1.021l44.05-0.11
	c3.169-0.01,4.95-0.77,5.97-2.93c0.51-0.65,0.92-1.729,0.92-2.9V24.685c0-1.21-0.99-2.2-2.2-2.2H5.47c-1.22,0-2.2,0.99-2.2,2.2
	v105.02C3.27,130.875,3.68,131.954,4.19,132.604z"/>
<path fill-rule="evenodd" clip-rule="evenodd" fill="#C7C7C7" d="M4.51,132.555c1.03,2.029,2.78,2.76,5.84,2.76h64.97
	c0.91,0,1.85,0.3,2.54,0.77c2.8,1.901,4.96,5.62,6.12,9.53c0.529,3.641,2.02,6.65,3.819,8.551c2.301,0.03,4.53-1.15,5.881-2.61
	c-0.121-2.28-0.971-4.88-2.33-7.3c-1.141-3.101-2.211-6.08-1.48-7.86c0.16-0.39,0.36-0.97,0.89-0.979l43.89-0.101
	c3.131-0.01,4.951-0.73,6.04-2.76c0.551-0.63,1-1.69,1-2.87V24.965c0-1.21-0.989-2.2-2.199-2.2H5.72c-1.21,0-2.2,0.99-2.2,2.2
	v104.72C3.52,130.864,3.97,131.925,4.51,132.555z"/>
<path fill-rule="evenodd" clip-rule="evenodd" fill="#C2C2C2" d="M4.84,132.495c1.09,1.909,2.87,2.6,5.89,2.6h64.6
	c0.91,0,1.84,0.29,2.54,0.739c2.84,1.82,5.05,5.45,6.25,9.44c0.52,3.63,1.939,6.671,3.65,8.671c2.26-0.011,4.449-1.171,5.81-2.581
	c-0.21-2.31-1.1-4.93-2.47-7.359c-1.141-3.19-2.19-6.16-1.43-7.88c0.17-0.37,0.379-0.93,0.909-0.93l43.73-0.101
	c3.09-0.011,4.939-0.69,6.119-2.6c0.581-0.591,1.061-1.65,1.061-2.83V25.255c0-1.22-0.99-2.21-2.2-2.21H5.97
	c-1.21,0-2.2,0.99-2.2,2.21v104.41C3.77,130.845,4.25,131.904,4.84,132.495z"/>
<path fill-rule="evenodd" clip-rule="evenodd" fill="#BFBFBF" d="M5.16,132.435c1.17,1.79,2.98,2.43,5.94,2.43h64.24
	c0.9,0,1.83,0.28,2.54,0.72c2.88,1.75,5.141,5.28,6.391,9.341c0.5,3.63,1.85,6.7,3.479,8.8c2.21-0.06,4.36-1.18,5.73-2.55
	c-0.291-2.35-1.221-4.971-2.601-7.43c-1.14-3.271-2.18-6.221-1.38-7.881c0.17-0.369,0.39-0.899,0.92-0.899l43.57-0.101
	c3.05,0,4.94-0.64,6.19-2.43c0.629-0.55,1.14-1.609,1.14-2.79V25.535c0-1.22-0.99-2.2-2.21-2.2H6.22c-1.21,0-2.2,0.98-2.2,2.2
	v104.11C4.02,130.825,4.53,131.885,5.16,132.435z"/>
<path fill-rule="evenodd" clip-rule="evenodd" fill="#BABABA" d="M5.48,132.375c1.24,1.67,3.09,2.27,6,2.27h63.871
	c0.899,0,1.819,0.271,2.539,0.681c2.92,1.68,5.23,5.129,6.521,9.25c0.489,3.629,1.771,6.729,3.31,8.92
	c2.17-0.091,4.28-1.19,5.66-2.51c-0.38-2.381-1.35-5.011-2.74-7.5c-1.14-3.351-2.159-6.29-1.33-7.891
	c0.181-0.359,0.41-0.859,0.94-0.859l43.41-0.091c3.01,0,4.93-0.6,6.26-2.27c0.67-0.511,1.21-1.57,1.21-2.75V25.814
	c0-1.22-0.99-2.2-2.199-2.2H6.48c-1.22,0-2.21,0.98-2.21,2.2v103.811C4.27,130.805,4.82,131.864,5.48,132.375z"/>
<path fill-rule="evenodd" clip-rule="evenodd" fill="#B5B5B5" d="M5.8,132.314c1.32,1.561,3.19,2.11,6.06,2.11h63.49
	c0.899,0,1.83,0.25,2.549,0.65c2.961,1.6,5.311,4.959,6.65,9.16c0.48,3.619,1.7,6.75,3.15,9.039c2.12-0.14,4.189-1.199,5.58-2.479
	c-0.46-2.41-1.471-5.06-2.881-7.57c-1.129-3.43-2.14-6.35-1.27-7.899c0.18-0.34,0.42-0.82,0.95-0.82l43.25-0.08
	c2.97-0.01,4.93-0.55,6.34-2.11c0.7-0.48,1.28-1.52,1.28-2.71V26.095c0-1.21-0.99-2.2-2.21-2.2H6.73c-1.22,0-2.2,0.99-2.2,2.2
	v103.51C4.53,130.795,5.1,131.834,5.8,132.314z"/>
<path fill-rule="evenodd" clip-rule="evenodd" fill="#B3B3B3" d="M6.13,132.255c1.39,1.44,3.29,1.949,6.11,1.949h63.12
	c0.899,0,1.82,0.241,2.55,0.621c3,1.52,5.399,4.789,6.79,9.06c0.47,3.61,1.609,6.78,2.98,9.17c2.069-0.18,4.1-1.221,5.509-2.44
	c-0.55-2.449-1.609-5.109-3.02-7.649c-1.14-3.511-2.13-6.42-1.23-7.91c0.19-0.33,0.45-0.771,0.971-0.771l43.1-0.08
	c2.921-0.009,4.921-0.509,6.4-1.949c0.739-0.44,1.35-1.48,1.35-2.671V26.375c0-1.21-0.989-2.2-2.2-2.2H6.98
	c-1.22,0-2.2,0.99-2.2,2.2v103.209C4.78,130.774,5.38,131.814,6.13,132.255z"/>
<path fill-rule="evenodd" clip-rule="evenodd" fill="#ADADAD" d="M6.45,132.195c1.46,1.319,3.39,1.79,6.17,1.79h62.75
	c0.89,0,1.811,0.219,2.55,0.579c3.04,1.46,5.49,4.64,6.92,8.98c0.46,3.6,1.53,6.8,2.81,9.28c2.04-0.221,4.021-1.221,5.44-2.4
	c-0.64-2.479-1.729-5.15-3.159-7.71c-1.141-3.601-2.11-6.5-1.181-7.931c0.2-0.319,0.47-0.729,0.99-0.729l42.94-0.069
	c2.879-0.011,4.909-0.471,6.469-1.79c0.79-0.4,1.421-1.44,1.421-2.631V26.655c0-1.21-0.98-2.2-2.2-2.2H7.23
	c-1.21,0-2.2,0.99-2.2,2.2v102.91C5.03,130.755,5.67,131.795,6.45,132.195z"/>
<path fill-rule="evenodd" clip-rule="evenodd" fill="#ABABAB" d="M6.77,132.135c1.54,1.199,3.5,1.63,6.23,1.63h62.37
	c0.9,0,1.811,0.2,2.561,0.55c3.079,1.381,5.579,4.47,7.05,8.881c0.45,3.6,1.459,6.829,2.649,9.409c1.99-0.26,3.93-1.24,5.36-2.369
	c-0.72-2.511-1.86-5.201-3.29-7.781c-1.141-3.68-2.1-6.56-1.13-7.939c0.21-0.311,0.479-0.689,1-0.689l42.78-0.061
	c2.839-0.01,4.909-0.431,6.549-1.63c0.82-0.36,1.49-1.399,1.49-2.59v-102.6c0-1.22-0.99-2.21-2.2-2.21H7.48
	c-1.21,0-2.2,0.99-2.2,2.21v102.6C5.28,130.735,5.95,131.774,6.77,132.135z"/>
<path fill-rule="evenodd" clip-rule="evenodd" fill="#A6A6A6" d="M7.09,132.075c1.61,1.079,3.61,1.47,6.29,1.47h62
	c0.9,0,1.801,0.19,2.551,0.51c3.129,1.31,5.68,4.31,7.199,8.79c0.43,3.601,1.37,6.859,2.48,9.53c1.939-0.3,3.84-1.24,5.279-2.33
	c-0.8-2.54-1.979-5.24-3.43-7.85c-1.14-3.761-2.08-6.631-1.08-7.95c0.221-0.291,0.5-0.65,1.01-0.65l42.631-0.05
	c2.8-0.011,4.899-0.391,6.619-1.47c0.86-0.33,1.561-1.351,1.561-2.551v-102.3c0-1.22-0.98-2.2-2.2-2.2H7.73
	c-1.21,0-2.2,0.98-2.2,2.2v102.3C5.53,130.725,6.23,131.745,7.09,132.075z"/>
<path fill-rule="evenodd" clip-rule="evenodd" fill="#A1A1A1" d="M7.42,132.024c1.68,0.95,3.7,1.301,6.34,1.301H75.39
	c0.891,0,1.791,0.17,2.55,0.479c3.171,1.24,5.771,4.141,7.331,8.7c0.419,3.59,1.289,6.88,2.31,9.649c1.9-0.34,3.76-1.26,5.21-2.3
	c-0.891-2.57-2.109-5.29-3.57-7.92c-1.14-3.84-2.06-6.689-1.02-7.96c0.22-0.279,0.51-0.6,1.02-0.6l42.47-0.05
	c2.761-0.011,4.9-0.351,6.7-1.301c0.9-0.3,1.631-1.32,1.631-2.52v-102c0-1.21-0.99-2.2-2.2-2.2H7.98c-1.21,0-2.2,0.99-2.2,2.2v102
	C5.78,130.704,6.52,131.725,7.42,132.024z"/>
<path fill-rule="evenodd" clip-rule="evenodd" fill="#9E9E9E" d="M7.74,131.965c1.75,0.83,3.81,1.13,6.4,1.13h61.25
	c0.9,0,1.791,0.17,2.561,0.46c3.21,1.16,5.859,3.979,7.46,8.6c0.41,3.581,1.22,6.9,2.149,9.78c1.851-0.39,3.671-1.27,5.13-2.27
	c-0.97-2.601-2.229-5.331-3.699-7.99c-1.14-3.92-2.051-6.76-0.98-7.971c0.23-0.27,0.54-0.56,1.04-0.56l42.311-0.05
	c2.72,0,4.89-0.3,6.77-1.13c0.94-0.261,1.7-1.28,1.7-2.479V27.785c0-1.21-0.979-2.2-2.2-2.2H8.24c-1.22,0-2.2,0.99-2.2,2.2v101.701
	C6.04,130.685,6.8,131.704,7.74,131.965z"/>
<path fill-rule="evenodd" clip-rule="evenodd" fill="#999999" d="M8.06,131.904c1.83,0.721,3.91,0.971,6.46,0.971h60.879
	c0.891,0,1.781,0.149,2.561,0.42c3.25,1.09,5.95,3.819,7.6,8.51c0.391,3.58,1.13,6.931,1.971,9.899c1.81-0.42,3.59-1.279,5.06-2.229
	c-1.05-2.63-2.359-5.37-3.84-8.05c-1.14-4.01-2.03-6.83-0.92-7.99c0.229-0.25,0.55-0.52,1.05-0.52l42.16-0.04
	c2.67,0,4.88-0.25,6.83-0.971c0.98-0.22,1.779-1.239,1.779-2.439v-101.4c0-1.21-0.989-2.2-2.199-2.2H8.49c-1.22,0-2.2,0.99-2.2,2.2
	v101.4C6.29,130.665,7.08,131.685,8.06,131.904z"/>
<path fill-rule="evenodd" clip-rule="evenodd" fill="#969696" d="M8.38,131.845c1.9,0.601,4.02,0.81,6.52,0.81h60.51
	c0.89,0,1.771,0.141,2.56,0.391c3.29,1.02,6.04,3.65,7.73,8.42c0.38,3.569,1.05,6.95,1.81,10.021c1.761-0.471,3.5-1.29,4.98-2.19
	c-1.14-2.67-2.48-5.431-3.98-8.13c-1.14-4.09-2.01-6.9-0.87-8c0.24-0.24,0.57-0.48,1.07-0.48l42-0.03c2.63,0,4.87-0.209,6.91-0.81
	c1.01-0.18,1.84-1.19,1.84-2.399V28.345c0-1.21-0.979-2.2-2.2-2.2H8.74c-1.22,0-2.2,0.99-2.2,2.2v101.101
	C6.54,130.654,7.37,131.665,8.38,131.845z"/>
<path fill-rule="evenodd" clip-rule="evenodd" fill="#919191" d="M8.71,131.784c1.97,0.48,4.12,0.65,6.57,0.65h60.13
	c0.89,0,1.771,0.12,2.57,0.35c3.329,0.951,6.13,3.5,7.859,8.33c0.38,3.57,0.97,6.98,1.65,10.141c1.71-0.5,3.409-1.301,4.899-2.15
	c-1.22-2.7-2.609-5.47-4.109-8.2c-1.141-4.169-2-6.959-0.82-8.01c0.25-0.229,0.58-0.44,1.08-0.44l41.84-0.02
	c2.59,0,4.87-0.17,6.98-0.65c1.06-0.149,1.92-1.149,1.92-2.359V28.635c0-1.22-0.99-2.2-2.2-2.2H8.99c-1.21,0-2.2,0.98-2.2,2.2
	v100.79C6.79,130.635,7.65,131.635,8.71,131.784z"/>
<path fill-rule="evenodd" clip-rule="evenodd" fill="#8C8C8C" d="M9.03,131.725c2.05,0.359,4.22,0.49,6.63,0.49h59.76
	c0.89,0,1.761,0.11,2.57,0.319c3.36,0.87,6.22,3.33,7.99,8.23c0.37,3.569,0.899,7.01,1.479,10.27c1.67-0.549,3.33-1.31,4.83-2.119
	c-1.3-2.73-2.73-5.511-4.25-8.271c-1.141-4.24-1.98-7.03-0.77-8.02c0.26-0.21,0.6-0.39,1.1-0.39l41.68-0.021
	c2.551,0,4.86-0.131,7.051-0.49c1.1-0.11,1.989-1.11,1.989-2.32V28.915c0-1.22-0.989-2.2-2.2-2.2H9.24c-1.21,0-2.2,0.98-2.2,2.2
	v100.49C7.04,130.614,7.93,131.614,9.03,131.725z"/>
<path fill-rule="evenodd" clip-rule="evenodd" fill="#8A8A8A" d="M9.35,131.665c2.12,0.239,4.33,0.33,6.69,0.33h59.391
	c0.879,0,1.75,0.089,2.569,0.289c3.399,0.791,6.3,3.161,8.13,8.141c0.351,3.55,0.81,7.029,1.31,10.39
	c1.62-0.59,3.241-1.319,4.75-2.09c-1.39-2.76-2.859-5.56-4.38-8.33c-1.14-4.33-1.97-7.1-0.729-8.04c0.271-0.2,0.63-0.35,1.12-0.35
	l41.52-0.01c2.511,0,4.86-0.091,7.131-0.33c1.13-0.07,2.06-1.07,2.06-2.28V29.195c0-1.21-0.99-2.2-2.2-2.2H9.49
	c-1.21,0-2.2,0.99-2.2,2.2v100.19C7.29,130.595,8.22,131.595,9.35,131.665z"/>
<path fill-rule="evenodd" clip-rule="evenodd" fill="#858585" d="M9.67,131.604c2.2,0.12,4.43,0.17,6.75,0.17h59.02
	c0.881,0,1.75,0.08,2.57,0.25c3.44,0.73,6.39,3,8.261,8.051c0.34,3.55,0.729,7.06,1.149,10.509c1.57-0.63,3.15-1.329,4.67-2.05
	c-1.47-2.789-2.979-5.6-4.52-8.399c-1.14-4.41-1.95-7.17-0.671-8.051c0.271-0.189,0.641-0.31,1.131-0.31h41.359
	c2.471-0.01,4.86-0.05,7.2-0.17c1.181-0.029,2.13-1.021,2.13-2.24v-99.89c0-1.21-0.989-2.2-2.199-2.2H9.75
	c-1.22,0-2.21,0.99-2.21,2.2v99.89C7.54,130.584,8.5,131.575,9.67,131.604z"/>
<path fill-rule="evenodd" clip-rule="evenodd" fill="#828282" d="M87.39,150.364l-0.979-10.629c-2.36-6.351-6.41-8.19-10.971-8.19
	H10c-1.22,0-2.2-0.98-2.2-2.2v-99.59c0-1.21,0.98-2.2,2.2-2.2h126.34c1.21,0,2.2,0.99,2.2,2.2v99.59c0,1.22-0.99,2.2-2.2,2.2H87.86
	c-2.78,0-1.91,2.88-0.53,8.33l4.66,8.47L87.39,150.364z"/>
<linearGradient id="SVGID_1_" gradientUnits="userSpaceOnUse" x1="99.7646" y1="18.8145" x2="99.7646" y2="131.4546">
	<stop  offset="0" style="stop-color:#DEF0FA"/>
	<stop  offset="1" style="stop-color:#9ED1EB"/>
</linearGradient>
<path fill-rule="evenodd" clip-rule="evenodd" fill="url(#SVGID_1_)" d="M58.63,84.564h26.01c-4.01,15.66-3.02,31.28-0.149,46.89
	h56.409V18.814H80.55C69.52,37.215,59.54,56.615,58.63,84.564z"/>
<linearGradient id="SVGID_2_" gradientUnits="userSpaceOnUse" x1="139.5107" y1="46.8271" x2="139.6617" y2="131.2034">
	<stop  offset="0" style="stop-color:#BAE3FA"/>
	<stop  offset="1" style="stop-color:#9ED1EB"/>
</linearGradient>
<polygon fill-rule="evenodd" clip-rule="evenodd" fill="url(#SVGID_2_)" points="140.899,131.454 140.899,21.365 138.23,21.485 
	138.23,131.325 "/>
<linearGradient id="SVGID_3_" gradientUnits="userSpaceOnUse" x1="104.1904" y1="21.3345" x2="104.1904" y2="46.3495">
	<stop  offset="0" style="stop-color:#F2FAFA"/>
	<stop  offset="1" style="stop-color:#E3F0F5"/>
</linearGradient>
<path fill-rule="evenodd" clip-rule="evenodd" fill="url(#SVGID_3_)" d="M67.47,42.774c24.52-0.19,48.45,1.02,73.44,4.08v-28.05
	H80.22L67.47,42.774z"/>
<linearGradient id="SVGID_4_" gradientUnits="userSpaceOnUse" x1="109.8447" y1="18.8945" x2="109.8447" y2="46.4345">
	<stop  offset="0" style="stop-color:#EDF5FA"/>
	<stop  offset="1" style="stop-color:#D6E8F7"/>
</linearGradient>
<polygon fill-rule="evenodd" clip-rule="evenodd" fill="url(#SVGID_4_)" points="140.899,46.854 138.23,46.575 138.23,21.485 
	78.79,21.485 80.21,18.814 140.899,18.814 "/>
<rect x="84.49" y="130.175" fill-rule="evenodd" clip-rule="evenodd" fill="#82B5D4" width="56.409" height="1.279"/>
<linearGradient id="SVGID_5_" gradientUnits="userSpaceOnUse" x1="43.5898" y1="18.8145" x2="43.5898" y2="131.4546">
	<stop  offset="0" style="stop-color:#8FD4FF"/>
	<stop  offset="1" style="stop-color:#0873F7"/>
</linearGradient>
<path fill-rule="evenodd" clip-rule="evenodd" fill="url(#SVGID_5_)" d="M2.89,18.814v112.64h81.4c-4-15.93-4.08-31.859-0.04-47.79
	c-2.72,2.06-22.46-1.56-25.25,0.51c0.87-24.88,10.34-45.46,21.17-65.36H2.89z"/>
<linearGradient id="SVGID_6_" gradientUnits="userSpaceOnUse" x1="4.1719" y1="46.8276" x2="4.3228" y2="131.2035">
	<stop  offset="0" style="stop-color:#2B9EFA"/>
	<stop  offset="1" style="stop-color:#0A73F7"/>
</linearGradient>
<polygon fill-rule="evenodd" clip-rule="evenodd" fill="url(#SVGID_6_)" points="5.56,131.454 5.56,21.365 2.89,21.485 
	2.89,131.325 "/>
<rect x="2.89" y="130.175" fill-rule="evenodd" clip-rule="evenodd" fill="#0054E5" width="80.38" height="1.279"/>
<linearGradient id="SVGID_7_" gradientUnits="userSpaceOnUse" x1="41.6499" y1="21.4746" x2="41.6499" y2="46.3496">
	<stop  offset="0" style="stop-color:#CFF5F5"/>
	<stop  offset="1" style="stop-color:#6ED4FF"/>
</linearGradient>
<path fill-rule="evenodd" clip-rule="evenodd" fill="url(#SVGID_7_)" d="M2.89,47.055c22.95-3.06,42.78-4.11,64.26-4.27l13.26-23.97
	H2.89V47.055z"/>
<linearGradient id="SVGID_8_" gradientUnits="userSpaceOnUse" x1="41.645" y1="19.4932" x2="41.388" y2="46.7782">
	<stop  offset="0" style="stop-color:#B3EDFC"/>
	<stop  offset="1" style="stop-color:#45B3FA"/>
</linearGradient>
<polygon fill-rule="evenodd" clip-rule="evenodd" fill="url(#SVGID_8_)" points="2.89,47.055 2.89,18.814 80.41,18.814 
	78.931,21.485 5.56,21.485 5.56,46.745 "/>
<line fill-rule="evenodd" clip-rule="evenodd" fill="none" stroke="#000000" stroke-width="7.2" stroke-linecap="square" x1="39.96" y1="39.615" x2="39.96" y2="49.455"/>
<line fill-rule="evenodd" clip-rule="evenodd" fill="none" stroke="#000000" stroke-width="7.2" stroke-linecap="square" x1="99.23" y1="39.615" x2="99.23" y2="49.455"/>
<path fill-rule="evenodd" clip-rule="evenodd" fill="none" stroke="#000000" stroke-width="6.66" d="M24.9,97.995
	c0.96,0.7,5.39,2.82,8.27,3.92c5.87,2.24,17.77,6.32,38.65,6.52h0.14c20.88-0.2,32.78-4.28,38.65-6.52c2.88-1.1,7.31-3.22,8.27-3.92
	"/>
<path fill-rule="evenodd" clip-rule="evenodd" fill="none" stroke="#000000" stroke-width="6.66" d="M93.021,2.135
	c-19.641,23.51-32.95,51.03-34.28,81.33h25.14c-6.23,25.24-2.91,46.73,7.02,66.71"/>
</svg>
