<?xml version="1.0" encoding="utf-8"?>
<!-- Generator: Adobe Illustrator 16.0.0, SVG Export Plug-In . SVG Version: 6.00 Build 0)  -->
<!DOCTYPE svg PUBLIC "-//W3C//DTD SVG 1.1//EN" "http://www.w3.org/Graphics/SVG/1.1/DTD/svg11.dtd">
<svg version="1.1" xmlns="http://www.w3.org/2000/svg" xmlns:xlink="http://www.w3.org/1999/xlink" x="0px" y="0px"
	 width="161.656px" height="141.656px" viewBox="0 0 161.656 141.656" enable-background="new 0 0 161.656 141.656"
	 xml:space="preserve">
<g id="fond">
</g>
<g id="logo">
	<line fill="#003333" x1="15.937" y1="69.786" x2="15.937" y2="69.786"/>
	<path fill="#003333" d="M0,121.043"/>
	<path fill="#333300" d="M86.023,68.2L82.8,69.825c7.004,4.671,16.73,9.925,26.97,11.124c15.465,1.812,32.014-4.326,36.809-6.958
		l-3.224-1.624L86.023,68.2z"/>
	<path fill="#990000" d="M22.083,61.036c5.65-2.758,16.013-6.642,29.324-5.723c9.592,0.66,16.824,4.534,23.722,8.9l2.922-1.507
		c0,0-15.062-13.247-25.438-13.974c-20.388-1.432-33.557,10.665-33.557,10.665L22.083,61.036z"/>
	<line fill="none" stroke="#231F20" stroke-width="1.6181" x1="17.012" y1="67.078" x2="17.012" y2="67.078"/>
	<path fill="none" stroke="#231F20" stroke-width="1.6181" d="M1.075,118.335"/>
	
		<linearGradient id="SVGID_1_" gradientUnits="userSpaceOnUse" x1="462.0884" y1="305.0195" x2="430.2944" y2="295.9355" gradientTransform="matrix(1.6112 0 0 1.6112 -597.0306 -438.4614)">
		<stop  offset="0" style="stop-color:#669900"/>
		<stop  offset="0.1838" style="stop-color:#66C82F"/>
		<stop  offset="0.4157" style="stop-color:#66FF66"/>
		<stop  offset="0.5674" style="stop-color:#99CC33"/>
		<stop  offset="0.6403" style="stop-color:#93C630"/>
		<stop  offset="0.7349" style="stop-color:#83B628"/>
		<stop  offset="0.8415" style="stop-color:#689B1B"/>
		<stop  offset="0.9561" style="stop-color:#437608"/>
		<stop  offset="1" style="stop-color:#336600"/>
	</linearGradient>
	<path fill="url(#SVGID_1_)" d="M110.844,78.242c15.465,1.812,28.614-3.94,32.511-5.875l15.078-52.623
		c0,0-15.038,8.667-33.298,6.501c-9.992-1.187-17.421-5.276-24.269-9.881L86.023,68.2C93.027,72.871,100.606,77.042,110.844,78.242z
		"/>
	
		<linearGradient id="SVGID_2_" gradientUnits="userSpaceOnUse" x1="388.0688" y1="287.6895" x2="419.5132" y2="296.7734" gradientTransform="matrix(1.6112 0 0 1.6112 -597.0306 -438.4614)">
		<stop  offset="0" style="stop-color:#FF6600"/>
		<stop  offset="0.1838" style="stop-color:#FF7D2F"/>
		<stop  offset="0.4157" style="stop-color:#FF9966"/>
		<stop  offset="0.6124" style="stop-color:#FF6600"/>
		<stop  offset="0.6776" style="stop-color:#F96000"/>
		<stop  offset="0.7624" style="stop-color:#E95000"/>
		<stop  offset="0.8579" style="stop-color:#CE3500"/>
		<stop  offset="0.9606" style="stop-color:#A91000"/>
		<stop  offset="1" style="stop-color:#990000"/>
	</linearGradient>
	<path fill="url(#SVGID_2_)" d="M52.651,52.24C64.81,53.342,78.05,62.707,78.05,62.707l14.823-51.912
		C85.573,5.74,78.028,1.193,67.669,0.244C47.316-1.622,33.835,7.826,33.835,7.826L19.056,59.397
		C22.011,57.584,34.682,50.614,52.651,52.24z"/>
	<polygon fill="#99CC33" points="97.645,17.99 82.8,69.825 86.023,68.2 100.867,16.365 	"/>
	<path fill="#333300" d="M158.433,19.745l-15.078,52.623c1.106,0.519,2.172,1.109,3.224,1.624l15.077-52.622L158.433,19.745z"/>
	<path fill="#663300" d="M68.881,128.578l-3.222,1.624c7.003,4.673,16.729,9.925,26.968,11.125
		c15.465,1.812,32.014-4.327,36.808-6.958l-3.222-1.625L68.881,128.578z"/>
	<path fill="#000099" d="M4.94,121.414c5.65-2.758,16.013-6.643,29.325-5.724c9.59,0.662,16.823,4.537,23.721,8.902l2.921-1.507
		c0,0-15.061-13.247-25.435-13.974c-20.389-1.432-33.558,10.665-33.558,10.665L4.94,121.414z"/>
	
		<linearGradient id="SVGID_3_" gradientUnits="userSpaceOnUse" x1="451.3862" y1="342.4756" x2="419.5923" y2="333.3916" gradientTransform="matrix(1.6112 0 0 1.6112 -597.0306 -438.4614)">
		<stop  offset="0" style="stop-color:#FF9900"/>
		<stop  offset="0.1838" style="stop-color:#FFC82F"/>
		<stop  offset="0.4157" style="stop-color:#FFFF66"/>
		<stop  offset="0.5618" style="stop-color:#FFCC33"/>
		<stop  offset="0.6356" style="stop-color:#F9C630"/>
		<stop  offset="0.7314" style="stop-color:#E9B628"/>
		<stop  offset="0.8394" style="stop-color:#CE9B1B"/>
		<stop  offset="0.9555" style="stop-color:#A97608"/>
		<stop  offset="1" style="stop-color:#996600"/>
	</linearGradient>
	<path fill="url(#SVGID_3_)" d="M93.702,138.62c15.465,1.812,28.614-3.94,32.512-5.875l15.077-52.621c0,0-15.038,8.666-33.298,6.5
		C98,85.438,90.572,81.349,83.725,76.741l-14.844,51.836C75.884,133.249,83.463,137.42,93.702,138.62z"/>
	
		<linearGradient id="SVGID_4_" gradientUnits="userSpaceOnUse" x1="377.2573" y1="325.1143" x2="408.7017" y2="334.1982" gradientTransform="matrix(1.6112 0 0 1.6112 -597.0306 -438.4614)">
		<stop  offset="0" style="stop-color:#0066FF"/>
		<stop  offset="0.1838" style="stop-color:#0095FF"/>
		<stop  offset="0.4157" style="stop-color:#00CCFF"/>
		<stop  offset="0.6124" style="stop-color:#3399FF"/>
		<stop  offset="0.6632" style="stop-color:#3193FD"/>
		<stop  offset="0.7292" style="stop-color:#2C83F8"/>
		<stop  offset="0.8037" style="stop-color:#2368EF"/>
		<stop  offset="0.8842" style="stop-color:#1643E2"/>
		<stop  offset="0.9688" style="stop-color:#0613D2"/>
		<stop  offset="1" style="stop-color:#0000CC"/>
	</linearGradient>
	<path fill="url(#SVGID_4_)" d="M35.509,112.619c12.159,1.101,25.397,10.466,25.397,10.466l14.825-51.912
		c-7.301-5.055-14.847-9.603-25.204-10.551c-20.354-1.868-33.835,7.583-33.835,7.583L1.914,119.776
		C4.868,117.962,17.539,110.992,35.509,112.619z"/>
	<polygon fill="#FFFF66" points="80.501,78.367 65.66,130.202 68.881,128.578 83.725,76.741 	"/>
	<path fill="#663300" d="M141.291,80.123l-15.077,52.621c1.105,0.521,2.171,1.109,3.222,1.625l15.079-52.621L141.291,80.123z"/>
	<g>
		<text transform="matrix(1.3913 0 0 1 137.4888 133.3965)" fill="#FFFFFF" font-family="'ArialMT'" font-size="11.0693">TM</text>
	</g>
</g>
</svg>
