<?xml version="1.0" encoding="utf-8"?>
<!-- Generator: Adobe Illustrator 16.0.0, SVG Export Plug-In . SVG Version: 6.00 Build 0)  -->
<!DOCTYPE svg PUBLIC "-//W3C//DTD SVG 1.1//EN" "http://www.w3.org/Graphics/SVG/1.1/DTD/svg11.dtd">
<svg version="1.1" id="Layer_1" xmlns="http://www.w3.org/2000/svg" xmlns:xlink="http://www.w3.org/1999/xlink" x="0px" y="0px"
	 width="210.058px" height="225.734px" viewBox="312.439 207.067 210.058 225.734"
	 enable-background="new 312.439 207.067 210.058 225.734" xml:space="preserve">
<g>
	<ellipse opacity="0.01" fill="#FFFFFF" enable-background="new    " cx="417.456" cy="318.082" rx="71.641" ry="100.58"/>
	<g opacity="0.85">
		<defs>
			<filter id="Adobe_OpacityMaskFilter" filterUnits="userSpaceOnUse" x="340.208" y="406.077" width="155.182" height="26.724">
				<feColorMatrix  type="matrix" values="1 0 0 0 0  0 1 0 0 0  0 0 1 0 0  0 0 0 1 0"/>
			</filter>
		</defs>
		<mask maskUnits="userSpaceOnUse" x="340.208" y="406.077" width="155.182" height="26.724" id="SVGID_1_">
			<g filter="url(#Adobe_OpacityMaskFilter)">
			</g>
		</mask>
		<g mask="url(#SVGID_1_)">
			
				<linearGradient id="SVGID_2_" gradientUnits="userSpaceOnUse" x1="138.6987" y1="279.7129" x2="138.6987" y2="291.2056" gradientTransform="matrix(2.3253 0 0 2.3253 95.2827 -244.3392)">
				<stop  offset="0" style="stop-color:#000000;stop-opacity:0"/>
				<stop  offset="1" style="stop-color:#000000"/>
			</linearGradient>
			<path fill="url(#SVGID_2_)" d="M340.211,420.443c0-7.312,34.181-14.366,77.07-14.366c42.888,0,78.108,7.054,78.108,14.366
				c0,6.708-31.44,12.357-78.108,12.357c-46.672,0-77.073-6.15-77.073-12.358L340.211,420.443z"/>
		</g>
	</g>
	<g opacity="0.85">
		<defs>
			<filter id="Adobe_OpacityMaskFilter_1_" filterUnits="userSpaceOnUse" x="360.384" y="406.077" width="114.823" height="26.724">
				<feColorMatrix  type="matrix" values="1 0 0 0 0  0 1 0 0 0  0 0 1 0 0  0 0 0 1 0"/>
			</filter>
		</defs>
		<mask maskUnits="userSpaceOnUse" x="360.384" y="406.077" width="114.823" height="26.724" id="SVGID_3_">
			<g filter="url(#Adobe_OpacityMaskFilter_1_)">
			</g>
		</mask>
		<g mask="url(#SVGID_3_)">
			
				<linearGradient id="SVGID_4_" gradientUnits="userSpaceOnUse" x1="138.6973" y1="279.7129" x2="138.6973" y2="291.2056" gradientTransform="matrix(2.3253 0 0 2.3253 95.2827 -244.3392)">
				<stop  offset="0" style="stop-color:#000000;stop-opacity:0"/>
				<stop  offset="1" style="stop-color:#000000"/>
			</linearGradient>
			<path fill="url(#SVGID_4_)" d="M360.388,420.443c0-7.312,25.293-14.366,57.027-14.366s57.792,7.054,57.792,14.366
				c0,6.708-23.262,12.357-57.792,12.357c-34.537,0-57.031-6.15-57.031-12.358L360.388,420.443z"/>
		</g>
	</g>
	
		<linearGradient id="SVGID_5_" gradientUnits="userSpaceOnUse" x1="130.5103" y1="195.6289" x2="147.1543" y2="290.0223" gradientTransform="matrix(2.3253 0 0 2.3253 95.2827 -244.3392)">
		<stop  offset="0" style="stop-color:#FF8C8F"/>
		<stop  offset="0.3804" style="stop-color:#F21818"/>
		<stop  offset="0.4461" style="stop-color:#E51515"/>
		<stop  offset="0.5683" style="stop-color:#C20E0E"/>
		<stop  offset="0.7324" style="stop-color:#8A0202"/>
		<stop  offset="0.7607" style="stop-color:#800000"/>
	</linearGradient>
	<path fill="url(#SVGID_5_)" d="M417.052,408.923c36.841,0,40.16-55.803,40.16-93.353c0-43.219-6.467-90.366-40.16-90.366
		c-33.688,0-39.33,50.127-39.33,90.366c-0.005,37.205,3.015,93.355,39.33,93.355V408.923z M417.042,207.067
		c60.317,0,105.455,43.62,105.455,110.369c0,58.938-42.762,112.438-105.445,112.438c-62.076,0-104.612-53.514-104.612-112.438
		C312.438,251.216,356.178,207.067,417.042,207.067z"/>
	
		<linearGradient id="SVGID_6_" gradientUnits="userSpaceOnUse" x1="138.458" y1="279.5991" x2="138.458" y2="288.9922" gradientTransform="matrix(2.3253 0 0 2.3253 95.2827 -244.3392)">
		<stop  offset="0" style="stop-color:#FF444C;stop-opacity:0"/>
		<stop  offset="0.2367" style="stop-color:#FF393F;stop-opacity:0.2367"/>
		<stop  offset="0.6708" style="stop-color:#FF1B1E;stop-opacity:0.6708"/>
		<stop  offset="1" style="stop-color:#FF0000"/>
	</linearGradient>
	<path opacity="0.5" fill="url(#SVGID_6_)" enable-background="new    " d="M479.345,405.732
		c-15.689,13.849-36.398,21.715-62.293,21.715c-25.665,0-46.27-7.866-61.917-21.715l53.09-0.127
		c2.722,0.751,5.657,1.146,8.826,1.146c3.214,0,6.19-0.264,8.942-1.014h53.346L479.345,405.732z"/>
	
		<linearGradient id="SVGID_7_" gradientUnits="userSpaceOnUse" x1="138.1318" y1="279.9458" x2="139.1158" y2="199.4689" gradientTransform="matrix(2.3253 0 0 2.3253 95.2827 -244.3392)">
		<stop  offset="0" style="stop-color:#E60000"/>
		<stop  offset="0.3568" style="stop-color:#DC0B0A"/>
		<stop  offset="0.9811" style="stop-color:#C02825"/>
		<stop  offset="1" style="stop-color:#BF2926"/>
	</linearGradient>
	<path opacity="0.8" fill="url(#SVGID_7_)" enable-background="new    " d="M417.033,406.197c-37.556,0-39.119-53.346-39.119-90.742
		c0-43.869,4.248-86.002,39.119-86.002c34.875,0,40.181,42.663,40.181,85.957c-0.01,37.467-2.1,90.784-40.185,90.784
		L417.033,406.197z M417.042,223.904c-41.022,0-45.124,54.78-45.124,91.526c0,41.6,8.182,95.628,45.124,95.628
		c39.348,0,46.24-54.104,46.24-95.628c0-36.161-4.371-91.528-46.238-91.528L417.042,223.904z"/>
	
		<linearGradient id="SVGID_8_" gradientUnits="userSpaceOnUse" x1="138.6758" y1="279.3687" x2="138.6758" y2="200.1348" gradientTransform="matrix(2.3253 0 0 2.3253 95.2827 -244.3392)">
		<stop  offset="0" style="stop-color:#B80000"/>
		<stop  offset="1" style="stop-color:#990000"/>
	</linearGradient>
	<path fill="url(#SVGID_8_)" d="M417.052,404.863c-36.292,0-37.737-52.488-37.737-89.274c0-43.163,4.039-84.544,37.737-84.544
		c33.701,0,38.789,41.905,38.789,84.5c-0.01,36.848-1.982,89.314-38.792,89.314L417.052,404.863z M417.062,225.403
		c-40.391,0-43.261,54.311-43.261,90.16c0,40.926,6.816,94.081,43.261,94.081c38.021,0,44.625-53.229,44.625-94.081
		c0-35.272-4.169-90.161-44.622-90.161L417.062,225.403z"/>
	<g opacity="0.5">
		<defs>
			<filter id="Adobe_OpacityMaskFilter_2_" filterUnits="userSpaceOnUse" x="377.597" y="229.617" width="80.004" height="84.994">
				<feColorMatrix  type="matrix" values="1 0 0 0 0  0 1 0 0 0  0 0 1 0 0  0 0 0 1 0"/>
			</filter>
		</defs>
		<mask maskUnits="userSpaceOnUse" x="377.597" y="229.617" width="80.004" height="84.994" id="SVGID_9_">
			<g filter="url(#Adobe_OpacityMaskFilter_2_)">
			</g>
		</mask>
		<g mask="url(#SVGID_9_)">
			
				<linearGradient id="SVGID_10_" gradientUnits="userSpaceOnUse" x1="138.6128" y1="239.5083" x2="138.6128" y2="202.9565" gradientTransform="matrix(2.3253 0 0 2.3253 95.2827 -244.3392)">
				<stop  offset="0" style="stop-color:#CF0000;stop-opacity:0"/>
				<stop  offset="0.1308" style="stop-color:#BF0000;stop-opacity:0.1308"/>
				<stop  offset="0.5151" style="stop-color:#960000;stop-opacity:0.5151"/>
				<stop  offset="0.8181" style="stop-color:#7C0000;stop-opacity:0.8181"/>
				<stop  offset="1" style="stop-color:#730000"/>
			</linearGradient>
			<path fill="url(#SVGID_10_)" d="M377.597,314.611c0-38.631,5.173-83.56,39.449-83.56c34.279,0,40.555,46.92,40.555,82.95
				c0-32.546-4.411-84.385-40.504-84.385c-36.013-0.005-39.493,51.881-39.493,84.994H377.597L377.597,314.611z"/>
		</g>
	</g>
	<g opacity="0.15">
		<defs>
			<filter id="Adobe_OpacityMaskFilter_3_" filterUnits="userSpaceOnUse" x="378.857" y="321.516" width="77.297" height="84.975">
				<feColorMatrix  type="matrix" values="1 0 0 0 0  0 1 0 0 0  0 0 1 0 0  0 0 0 1 0"/>
			</filter>
		</defs>
		<mask maskUnits="userSpaceOnUse" x="378.857" y="321.516" width="77.297" height="84.975" id="SVGID_11_">
			<g filter="url(#Adobe_OpacityMaskFilter_3_)">
			</g>
		</mask>
		<g mask="url(#SVGID_11_)">
			
				<linearGradient id="SVGID_12_" gradientUnits="userSpaceOnUse" x1="138.5728" y1="279.0249" x2="138.5728" y2="242.4814" gradientTransform="matrix(2.3253 0 0 2.3253 95.2827 -244.3392)">
				<stop  offset="0" style="stop-color:#730000"/>
				<stop  offset="0.1819" style="stop-color:#7C0000;stop-opacity:0.8181"/>
				<stop  offset="0.4849" style="stop-color:#960000;stop-opacity:0.5151"/>
				<stop  offset="0.8692" style="stop-color:#BF0000;stop-opacity:0.1308"/>
				<stop  offset="1" style="stop-color:#CF0000;stop-opacity:0"/>
			</linearGradient>
			<path fill="url(#SVGID_12_)" d="M456.154,321.516c0,38.631-5.682,83.538-38.838,83.538c-33.161,0-38.459-44.452-38.459-82.93
				c0,34.996,3.493,84.366,38.407,84.366c34.854,0.01,38.889-51.866,38.889-84.973L456.154,321.516z"/>
		</g>
	</g>
	
		<linearGradient id="SVGID_13_" gradientUnits="userSpaceOnUse" x1="94.6108" y1="265.2266" x2="182.8091" y2="265.2266" gradientTransform="matrix(2.3253 0 0 2.3253 95.2827 -244.3392)">
		<stop  offset="0" style="stop-color:#E8000F"/>
		<stop  offset="1" style="stop-color:#E0000F"/>
	</linearGradient>
	<path opacity="0.8" fill="url(#SVGID_13_)" enable-background="new    " d="M315.281,316.748
		c0,57.011,38.852,111.287,102.002,111.287c63.607,0,103.085-55.822,103.085-111.287c0,54.964-40.396,110.396-103.085,110.396
		C355.065,427.134,315.281,373.229,315.281,316.748z"/>
	
		<linearGradient id="SVGID_14_" gradientUnits="userSpaceOnUse" x1="138.6616" y1="232.9932" x2="138.6616" y2="190.1493" gradientTransform="matrix(2.3253 0 0 2.3253 95.2827 -244.3392)">
		<stop  offset="0" style="stop-color:#FFFFFF;stop-opacity:0"/>
		<stop  offset="1" style="stop-color:#FFFFFF"/>
	</linearGradient>
	<path opacity="0.65" fill="url(#SVGID_14_)" enable-background="new    " d="M315.656,314.156
		c0-46.932,32.196-104.758,101.393-104.758c57.636,0,102.718,44.705,102.718,104.758c0-60.65-41.19-106.934-102.718-106.934
		C355.042,207.215,315.656,252.241,315.656,314.156L315.656,314.156z"/>
</g>
</svg>
