<?xml version="1.0" encoding="utf-8"?>
<!-- Generator: Adobe Illustrator 16.0.0, SVG Export Plug-In . SVG Version: 6.00 Build 0)  -->
<!DOCTYPE svg PUBLIC "-//W3C//DTD SVG 1.1//EN" "http://www.w3.org/Graphics/SVG/1.1/DTD/svg11.dtd">
<svg version="1.1" id="Layer_1" xmlns="http://www.w3.org/2000/svg" xmlns:xlink="http://www.w3.org/1999/xlink" x="0px" y="0px"
	 width="26.495px" height="26.496px" viewBox="340.794 286.752 26.495 26.496"
	 enable-background="new 340.794 286.752 26.495 26.496" xml:space="preserve">
<g id="Layer_x0020_1">
	<path id="path2572" fill="#DD3E31" d="M352.742,301.039c1.86-0.086,4.287-0.953,4.287-3.16c0-2.425-2.165-3.464-4.243-3.464h-8.355
		v0.953h1.775v11.948h-1.732v0.953h6.93v-0.953h-1.732v-5.844h0.779c1.039,0,1.816,0.821,2.078,2.076
		c0.52,1.774,1.082,3.811,1.082,3.854c0,0,0.261,0.865,1.299,0.865h3.81v-0.953h-1.471l-0.823-3.334
		c-0.477-1.902-1.429-2.898-3.68-2.898C352.7,301.039,352.7,300.996,352.742,301.039L352.742,301.039z M350.621,300.52h-0.952
		v-5.106h1.169c1.948-0.043,2.251,0.606,2.251,1.515v1.905C353.089,300.13,352.526,300.52,350.621,300.52z"/>
	<path id="path2574" fill="#DD3E31" d="M354.042,286.752c-7.316,0-13.248,5.932-13.248,13.248c0,7.273,5.932,13.205,13.248,13.248
		c7.316-0.043,13.247-5.975,13.247-13.248C367.289,292.684,361.358,286.752,354.042,286.752z M354.042,312.035
		c-6.624,0-11.992-5.412-11.992-12.035c0-6.624,5.368-11.992,11.992-11.992c6.667,0,12.035,5.368,12.035,11.992
		C366.077,306.625,360.709,312.035,354.042,312.035L354.042,312.035z"/>
</g>
</svg>
