<?xml version="1.0" encoding="utf-8"?>
<!-- Generator: Adobe Illustrator 16.0.0, SVG Export Plug-In . SVG Version: 6.00 Build 0)  -->
<!DOCTYPE svg PUBLIC "-//W3C//DTD SVG 1.1//EN" "http://www.w3.org/Graphics/SVG/1.1/DTD/svg11.dtd">
<svg version="1.1" id="Livello_1" xmlns="http://www.w3.org/2000/svg" xmlns:xlink="http://www.w3.org/1999/xlink" x="0px" y="0px"
	 width="390.614px" height="396.154px" viewBox="0 0 390.614 396.154" enable-background="new 0 0 390.614 396.154"
	 xml:space="preserve">
<path fill="#00AAF1" d="M379.374,240.131c2.816-12.881,4.314-26.252,4.314-39.977c0-102.89-83.411-186.302-186.305-186.302
	c-10.863,0-21.507,0.939-31.861,2.725C148.872,6.089,129.173,0,108.041,0C48.371,0,0,48.375,0,108.04
	c0,19.945,5.427,38.613,14.851,54.648c-2.471,12.104-3.77,24.633-3.77,37.467c0,102.892,83.41,186.304,186.303,186.304
	c11.654,0,23.054-1.079,34.113-3.126c15.21,8.175,32.599,12.821,51.075,12.821c59.672,0,108.042-48.371,108.042-108.041
	C390.614,270.874,386.557,254.59,379.374,240.131z"/>
<linearGradient id="SVGID_1_" gradientUnits="userSpaceOnUse" x1="195.3071" y1="381.4292" x2="195.3071" y2="14.7256">
	<stop  offset="0" style="stop-color:#FFFFFF"/>
	<stop  offset="0.0645" style="stop-color:#CDEEFC"/>
	<stop  offset="0.1357" style="stop-color:#9DDEFA"/>
	<stop  offset="0.2111" style="stop-color:#73D0F7"/>
	<stop  offset="0.2896" style="stop-color:#4FC4F5"/>
	<stop  offset="0.3717" style="stop-color:#33BBF4"/>
	<stop  offset="0.459" style="stop-color:#1CB3F3"/>
	<stop  offset="0.5536" style="stop-color:#0CAEF2"/>
	<stop  offset="0.6611" style="stop-color:#03ABF1"/>
	<stop  offset="0.809" style="stop-color:#00AAF1"/>
</linearGradient>
<path fill="url(#SVGID_1_)" d="M14.724,108.04c0,16.6,4.434,32.915,12.822,47.188l2.862,4.872l-1.13,5.535
	c-2.304,11.284-3.473,22.897-3.473,34.521c0,94.608,76.97,171.579,171.579,171.579c10.531,0,21.106-0.968,31.434-2.879l5.091-0.943
	l4.561,2.451c13.47,7.239,28.721,11.066,44.104,11.066c51.456,0,93.318-41.862,93.318-93.316c0-14.53-3.265-28.47-9.703-41.432
	l-2.304-4.637l1.106-5.059c2.637-12.061,3.975-24.452,3.975-36.831c0-94.609-76.971-171.578-171.581-171.578
	c-9.819,0-19.698,0.844-29.359,2.51l-5.568,0.959l-4.781-3.011c-14.864-9.362-32.028-14.311-49.635-14.311
	C56.585,14.725,14.724,56.584,14.724,108.04z"/>
<linearGradient id="SVGID_2_" gradientUnits="userSpaceOnUse" x1="14.7236" y1="128.52" x2="364.3291" y2="128.52">
	<stop  offset="0" style="stop-color:#FFFFFF"/>
	<stop  offset="1" style="stop-color:#00AAF1"/>
</linearGradient>
<path opacity="0.83" fill="url(#SVGID_2_)" d="M30.408,160.099l-1.13,5.535c-2.304,11.284-3.473,22.897-3.473,34.521
	c0,14.544,1.833,28.664,5.256,42.16c84.403-39.888,194.074-72.71,333.268-81.638c-17.885-75.633-85.923-132.1-166.945-132.1
	c-9.819,0-19.698,0.844-29.359,2.51l-5.568,0.959l-4.781-3.011c-14.864-9.362-32.028-14.311-49.635-14.311
	c-51.455,0-93.317,41.859-93.317,93.314c0,16.6,4.434,32.915,12.822,47.188L30.408,160.099z"/>
<path fill="#FFFFFF" stroke="#00AAF1" d="M141.483,77.685L141.483,77.685c-15.665,5.793-27.832,14.24-36.163,25.105
	c-8.394,10.943-12.651,23.628-12.651,37.702c0,14.766,4.056,27.327,12.056,37.337c7.876,9.861,18.645,17.74,32.004,23.423
	c13.065,5.556,29.492,10.472,48.826,14.613c14.218,2.977,25.713,5.823,34.182,8.463c8.121,2.532,14.809,6.222,19.878,10.963
	c4.842,4.535,7.195,10.316,7.195,17.672c0,9.309-4.509,16.912-13.788,23.246c-9.498,6.485-22.124,9.774-37.526,9.774
	c-11.201,0-20.305-1.621-27.059-4.819c-6.714-3.175-11.972-7.239-15.625-12.076c-3.801-5.03-7.403-11.414-10.704-18.975
	c-2.955-6.945-6.634-12.322-10.923-15.956c-4.488-3.794-10.01-5.716-16.411-5.716c-7.799,0-14.339,2.433-19.443,7.233
	c-5.156,4.844-7.771,10.763-7.771,17.59c0,10.923,4.014,22.249,11.928,33.664c7.835,11.302,18.156,20.459,30.674,27.22
	c17.51,9.289,39.945,13.995,66.702,13.995c22.294,0,41.882-3.443,58.221-10.234c16.497-6.86,29.231-16.523,37.85-28.72
	c8.649-12.243,13.035-26.231,13.035-41.577c0-12.826-2.548-23.864-7.575-32.807c-5.014-8.909-12.08-16.372-21.004-22.184
	c-8.742-5.688-19.465-10.585-31.87-14.556c-12.253-3.916-26.11-7.542-41.187-10.778c-11.912-2.753-20.601-4.882-25.779-6.319
	c-5.053-1.396-10.099-3.352-14.996-5.813c-4.721-2.362-8.455-5.201-11.103-8.435c-2.501-3.052-3.716-6.601-3.716-10.845
	c0-6.921,3.777-12.763,11.548-17.858c8.063-5.288,18.924-7.968,32.28-7.968c14.379,0,24.843,2.417,31.103,7.179
	c6.45,4.902,12.074,11.862,16.72,20.688c4.014,6.913,7.632,11.718,11.118,14.8c3.748,3.319,9.147,5.003,16.047,5.003
	c7.595,0,14.032-2.69,19.134-7.996c5.071-5.272,7.644-11.32,7.644-17.978c0-6.917-1.962-14.068-5.828-21.252
	c-3.826-7.114-9.922-13.964-18.114-20.364c-8.135-6.355-18.487-11.519-30.768-15.344c-12.21-3.796-26.838-5.72-43.477-5.72
	C175.336,69.067,156.945,71.967,141.483,77.685z"/>
</svg>
