<?xml version="1.0" encoding="utf-8"?>
<!-- Generator: Adobe Illustrator 16.0.0, SVG Export Plug-In . SVG Version: 6.00 Build 0)  -->
<!DOCTYPE svg PUBLIC "-//W3C//DTD SVG 1.1//EN" "http://www.w3.org/Graphics/SVG/1.1/DTD/svg11.dtd">
<svg version="1.1" id="Layer_1" xmlns="http://www.w3.org/2000/svg" xmlns:xlink="http://www.w3.org/1999/xlink" x="0px" y="0px"
	 width="175.134px" height="150.43px" viewBox="12.749 21.707 175.134 150.43"
	 enable-background="new 12.749 21.707 175.134 150.43" xml:space="preserve">
<g>
	<path fill="#FFFFFF" d="M75.335,98.711c7.31-5.269,26.417-21.158,34.231-48.136l0.082-0.375c0.39-2.521,0.473-9.987,0.223-15.666
		c-0.064-1.475-0.15-2.836-0.262-3.951c2.029-1.88,3.701-2.887,5.838-2.891c2.389,0.333,15.474,10.007,13.824,30.396
		c-1.125,13.917-3.562,21.812-3.679,22.183c-0.002,0.007-0.01,0.031-0.01,0.033l-1.271,3.916h34.215h8.166
		c7.514,0,15.17,6.071,15.17,12.031l0.013,0.271c0.003,0.04,0.274,4.099-2.883,7.807l-1.308,1.535l0.934,1.788
		c1.27,2.429,4.82,10.74-2.793,15.658l-1.633,1.054l0.297,1.913c1.794,11.656,0.001,13.824-6.016,17.505l-1.85,1.131l0.496,2.106
		c0.861,3.658,0.025,7.654-2.182,10.435c-1.961,2.469-4.826,3.774-8.285,3.774h-8.155l-60.945-0.002
		c-2.132,0-9.146-2.197-12.22-4.737L75.335,98.711L75.335,98.711z"/>
	<g>
		<path fill="#E2ECEF" d="M111.227,80.272h14.367c0.117-0.371,2.555-8.266,3.68-22.183c1.647-20.39-11.438-30.063-13.825-30.396
			c-2.138,0.003-3.81,1.011-5.839,2.891c0.111,1.115,0.197,2.476,0.263,3.951C111.854,36.477,122.074,48.453,111.227,80.272z"/>
		<path fill="#E2ECEF" d="M164.941,157.455c2.207-2.779,3.043-6.775,2.182-10.434l-0.496-2.107l1.85-1.131
			c6.017-3.68,7.81-5.848,6.016-17.504l-0.297-1.914l1.633-1.053c7.613-4.918,4.062-13.23,2.793-15.658l-0.934-1.789l1.308-1.535
			c3.157-3.708,2.886-7.767,2.883-7.807l-0.013-0.271c0-5.959-7.656-12.031-15.17-12.031h-8.166
			c4.188,1.648,13.382,7.111,6.015,21.808c1.913,7.156,3.586,13.356-4.063,19.318c0.957,8.348,0.479,15.504-6.935,20.75
			c0.224,5.321-0.183,9.409-5.044,15.133h8.156C160.116,161.23,162.98,159.924,164.941,157.455z"/>
	</g>
	<g>
		<g>
			<path fill="#788CB0" d="M65.498,86.48H22.586c-2.118,0-3.841,1.716-3.841,3.824v72.014c0,2.106,1.723,3.822,3.841,3.822h42.912
				c2.118,0,3.841-1.716,3.841-3.822V90.304C69.339,88.196,67.616,86.48,65.498,86.48z"/>
			<g>
				<path fill="none" d="M87.556,161.229l60.945,0.002h8.156c3.459,0,6.323-1.307,8.284-3.774c2.207-2.779,3.043-6.774,2.182-10.435
					l-0.496-2.106l1.85-1.131c6.017-3.681,7.81-5.849,6.016-17.504l-0.297-1.914l1.633-1.054c7.613-4.918,4.062-13.229,2.793-15.657
					l-0.934-1.789l1.308-1.535c3.157-3.708,2.886-7.767,2.883-7.807l-0.013-0.271c0-5.959-7.656-12.031-15.17-12.031h-8.166h-34.215
					l1.271-3.916c0-0.001,0.008-0.025,0.011-0.033c0.116-0.371,2.553-8.266,3.678-22.183c1.648-20.39-11.437-30.063-13.824-30.396
					c-2.137,0.003-3.809,1.011-5.838,2.891c0.109,1.115,0.195,2.476,0.262,3.951c0.25,5.679,0.167,13.145-0.223,15.666l-0.082,0.375
					c-7.781,26.869-26.855,42.803-34.231,48.136v57.779C78.444,159.008,85.438,161.229,87.556,161.229z"/>
				<path fill="#355A9D" d="M187.868,96.152c-0.074-9.225-10.329-17.92-21.175-17.92h-34.354c0.904-3.862,2.179-10.509,2.918-19.661
					c1.312-16.21-5.499-26.204-9.673-30.718c-3.507-3.791-7.359-6.146-10.055-6.146c-5.119,0-8.471,2.915-11.209,5.647
					c0,0-1.103,1.23-0.838,2.609c0.572,2.978,0.649,16.116,0.258,19.149c-6.195,21.174-20.28,35.272-28.405,41.972v-0.781
					c0-5.415-4.414-9.82-9.838-9.82H22.586c-5.424,0-9.837,4.405-9.837,9.82v72.014c0,5.414,4.413,9.82,9.837,9.82h42.912
					c5.02,0,9.166-3.775,9.758-8.629c4.925,2.568,10.751,3.709,12.3,3.709h69.102c5.281,0,9.895-2.146,12.99-6.045
					c2.937-3.697,4.256-8.578,3.692-13.396c7.052-4.807,8.778-9.748,7.347-20.586c7.063-5.655,6.811-14.114,4.084-20.557
					C187.996,101.887,187.922,97.124,187.868,96.152z M69.339,162.318c0,2.106-1.723,3.822-3.841,3.822H22.586
					c-2.118,0-3.841-1.716-3.841-3.822V90.304c0-2.108,1.723-3.824,3.841-3.824h42.912c2.118,0,3.841,1.716,3.841,3.824V162.318z
					 M178.994,104.33l-1.309,1.535l0.935,1.789c1.271,2.428,4.821,10.74-2.793,15.658l-1.632,1.053l0.296,1.914
					c1.794,11.656,0.001,13.824-6.015,17.504l-1.851,1.131l0.496,2.107c0.86,3.658,0.026,7.653-2.183,10.434
					c-1.961,2.469-4.824,3.775-8.283,3.775l-69.102-0.002c-2.117,0-9.112-2.222-12.22-4.738V98.711
					c7.375-5.333,26.45-21.267,34.23-48.136l0.084-0.375c0.389-2.521,0.472-9.987,0.222-15.666
					c-0.065-1.475-0.151-2.836-0.263-3.951c2.029-1.88,3.701-2.887,5.838-2.891c2.39,0.333,15.475,10.007,13.826,30.396
					c-1.125,13.917-3.688,22.214-3.688,22.216l-1.271,3.916h42.381c7.514,0,15.17,6.071,15.17,12.031l0.013,0.271
					C181.88,96.563,182.152,100.622,178.994,104.33z"/>
			</g>
		</g>
		<ellipse fill="#FFFFFF" cx="55.956" cy="148.064" rx="4.77" ry="4.76"/>
		<path fill="#95A7C4" d="M24.266,166.162c0,0,0-60.586,0-63.646c0-3.058,1.704-4.757,4.089-4.757c2.385,0,28.964,0,31.009,0
			c2.045,0,4.43,1.359,4.43,4.757c0,3.4,0,63.623,0,63.623s0.664,0,1.251,0c0.688,0,1.564,0,2.407-0.545c0,0,0-66.003,0-70.82
			s-3.869-4.419-4.903-4.419c-1.034,0-35.148,0-36.92,0S19.87,92.563,19.87,96.1c0,3.536,0,68.312,0,68.901
			c0.821,0.774,1.813,1.162,2.699,1.162C23.455,166.163,24.266,166.162,24.266,166.162z"/>
	</g>
</g>
</svg>
