<?xml version="1.0" encoding="utf-8"?>
<!-- Generator: Adobe Illustrator 16.0.0, SVG Export Plug-In . SVG Version: 6.00 Build 0)  -->
<!DOCTYPE svg PUBLIC "-//W3C//DTD SVG 1.1//EN" "http://www.w3.org/Graphics/SVG/1.1/DTD/svg11.dtd">
<svg version="1.1" id="Layer_1" xmlns="http://www.w3.org/2000/svg" xmlns:xlink="http://www.w3.org/1999/xlink" x="0px" y="0px"
	 width="166.41px" height="66.174px" viewBox="280.842 325.433 166.41 66.174"
	 enable-background="new 280.842 325.433 166.41 66.174" xml:space="preserve">
<g>
	<path fill="#040607" d="M406.185,391.607c14.015,0,25.497-11.482,25.497-25.496V350.93c0-14.013-11.482-25.497-25.497-25.497
		h-99.846c-14.013,0-25.497,11.484-25.497,25.497v15.181c0,14.014,11.484,25.496,25.497,25.496H406.185L406.185,391.607z"/>
	<path fill="#FFFFFF" d="M359.668,366.111V350.93c0-11.483,9.342-20.63,20.631-20.63h25.886c11.289,0,20.438,9.147,20.438,20.63
		v15.181c0,11.289-9.147,20.631-20.438,20.631c0,0-37.952,0-57.025,0C355.581,382.072,359.668,374.676,359.668,366.111
		L359.668,366.111z"/>
	<path fill="#FFFFFF" d="M326.191,374.092h-8.563l-1.557-7.201c-0.974-5.061-1.946-11.289-2.142-13.625
		c-0.193,2.335-1.168,8.564-2.335,13.625l-1.557,7.201h-8.369l-7.786-33.087h9.342l0.973,5.644
		c0.778,4.671,1.557,10.316,1.946,14.208c0.39-3.893,1.361-9.538,2.529-14.208l1.168-5.644h8.369l1.168,5.644
		c0.973,4.671,1.946,10.316,2.335,14.208c0.391-3.893,1.363-9.538,2.142-14.208l0.778-5.644h9.342L326.191,374.092L326.191,374.092z
		"/>
	<path fill="#FFFFFF" d="M342.346,347.427c-2.725,0-4.865-1.558-4.865-4.087c0-2.53,2.141-4.087,4.865-4.087
		c2.919,0,5.062,1.557,5.062,4.087C347.406,345.87,345.265,347.427,342.346,347.427L342.346,347.427z M338.064,350.152h8.563v23.939
		h-8.563V350.152L338.064,350.152z"/>
	<polygon fill="#040607" points="380.493,348.79 380.493,356.186 398.01,356.186 398.01,363.971 380.493,363.971 380.493,374.092 
		371.346,374.092 371.346,341.004 399.957,341.004 399.957,348.79 	"/>
	<path fill="#040607" d="M409.493,347.427c-2.726,0-4.865-1.558-4.865-4.087c0-2.53,2.141-4.087,4.865-4.087
		c2.92,0,5.061,1.557,5.061,4.087C414.554,345.87,412.413,347.427,409.493,347.427L409.493,347.427z M405.211,350.152h8.564v23.939
		h-8.564V350.152L405.211,350.152z"/>
	<polygon fill="#040607" points="436.353,330.494 436.353,336.723 434.796,336.723 434.796,330.494 432.46,330.494 432.46,328.937 
		438.493,328.937 438.493,330.494 	"/>
	<path fill="#040607" d="M445.695,336.723v-2.92c0-0.389,0-1.362,0-1.751c-0.195,0.389-0.391,0.973-0.584,1.362l-1.559,3.504
		l-1.557-3.504c-0.194-0.389-0.391-0.973-0.584-1.362c0,0.389,0,1.362,0,1.751v2.92h-1.362v-7.786h1.362l1.558,3.503
		c0.194,0.39,0.583,0.973,0.583,1.362c0.195-0.389,0.391-0.973,0.584-1.362l1.559-3.503h1.557v7.786H445.695L445.695,336.723z"/>
</g>
</svg>
