<?xml version="1.0" encoding="utf-8"?>
<!-- Generator: Adobe Illustrator 16.0.0, SVG Export Plug-In . SVG Version: 6.00 Build 0)  -->
<!DOCTYPE svg PUBLIC "-//W3C//DTD SVG 1.1//EN" "http://www.w3.org/Graphics/SVG/1.1/DTD/svg11.dtd">
<svg version="1.1" id="Layer_1" xmlns="http://www.w3.org/2000/svg" xmlns:xlink="http://www.w3.org/1999/xlink" x="0px" y="0px"
	 width="365.758px" height="112.054px" viewBox="0 0 365.758 112.054" enable-background="new 0 0 365.758 112.054"
	 xml:space="preserve">
<g>
	<path fill="#F7941E" d="M95.673,33.315c1.417-2.5,2.75-5.5-1.75-8.084s-35.917-21-40.25-23.666l-0.167,0.083
		c-2-1-6.083-2.917-9.917-0.417S10.506,20.897,5.256,23.981s-3.667,7.167-1,8.75s10.083,6.084,12.417,7.666
		c2.333,1.584,4.417,3.5,2.417,6.918c-2,3.416-15,26.082-17.667,30.416S0.09,85.565,3.34,87.565s34.75,20.166,38.5,22.333
		s7.417,3,11,1.083s35.75-20.916,39.75-23.334c4-2.416,2.083-6.416,0.333-7.5c-1.75-1.083-10.667-6.916-14.083-9.082
		c-3.417-2.167-3.083-3.584-1.25-6.834C79.353,61.106,94.256,35.815,95.673,33.315z M19.765,36.878
		c-1.652-0.883-7.748-4.447-9.301-5.414c-2.916-1.812-1.992-4.613,0.015-5.635c2.008-1.02,22.564-12.766,24.984-13.884
		c2.048-0.946,4.023,0.72,2.607,3.319c-0.896,1.645-10.035,17.111-11.703,19.945C24.702,38.043,22.477,38.325,19.765,36.878z
		 M11.555,70.084c0.875-1.655,9.822-17.234,11.454-20.089c1.631-2.854,3.853-3.164,6.583-1.75c1.663,0.863,7.802,4.352,9.367,5.299
		c2.937,1.776,2.049,4.588,0.055,5.634c-1.995,1.044-22.405,13.044-24.811,14.192C12.167,74.343,10.171,72.7,11.555,70.084z
		 M45.91,101.538c-0.177,2.999-2.551,4.387-6.867,1.795c-4.315-2.593-25.961-14.841-28.673-16.344
		c-2.713-1.502-4.143-3.947-0.432-6.021c3.711-2.073,27.101-15.562,30.44-17.609c3.339-2.051,5.732-1.039,5.696,3.136
		C46.026,72.025,46.086,98.538,45.91,101.538z M46.061,46.739c0.086,2.25-1.912,4.419-4.914,2.756
		c-1.601-0.888-7.683-4.477-9.256-5.489c-2.585-1.664-3.422-3.746-1.758-6.581c1.663-2.836,10.726-18.348,11.726-19.932
		c1.581-2.501,3.998-1.588,4.168,0.662C46.227,20.813,45.975,44.489,46.061,46.739z M50.756,11.315
		c-0.083-3.917,1.999-5.473,5.583-3.334c4.75,2.834,27.667,16.167,30.167,17.834c2.5,1.666,2.5,4.416-1.917,6.833
		s-25.917,14.917-28.583,16.5s-5.5,1.583-5.417-2.667S50.839,15.231,50.756,11.315z M50.756,94.315
		c-0.197-2.66,0.083-26.334,0-28.584s1.917-4.417,4.917-2.75c1.599,0.889,7.677,4.484,9.25,5.5c2.583,1.667,3.417,3.75,1.75,6.584
		c-1.667,2.833-10.748,18.334-11.75,19.916C53.34,97.481,50.923,96.565,50.756,94.315z M77.041,75.624
		c1.651,0.885,7.742,4.457,9.294,5.426c2.913,1.816,1.986,4.615-0.022,5.635c-2.009,1.017-22.58,12.736-25.001,13.854
		c-2.049,0.943-4.022-0.726-2.603-3.323c0.898-1.644,10.055-17.099,11.726-19.931C72.104,74.453,74.33,74.173,77.041,75.624z
		 M73.813,62.503c-1.635,2.852-3.857,3.159-6.585,1.742c-1.662-0.865-7.796-4.361-9.361-5.311c-2.935-1.779-2.043-4.59-0.048-5.633
		c1.996-1.043,22.421-13.018,24.828-14.164c2.037-0.969,4.03,0.676,2.644,3.29C84.413,44.082,75.448,59.65,73.813,62.503z"/>
	<g>
		<path fill="#A7B0B5" d="M114.881,33.606h40.125c0,0-38.75,43.75-40,45s-1.25,3.125-1.25,3.125s0,2.625,0,3.375
			s0,1.875,2.625,1.875s46.625,0,48.625,0s2.75-0.875,2.75-1.75s0-3.5,0-4.5s-0.5-1.688-1.688-1.688s-35.062,0-36.562,0s-3,0-3,0
			s38.375-43.562,39.5-45.062s1.745-2.15,1.745-3.65s-0.022-2.102-0.022-3.102s-0.391-2.123-2.098-2.123c-1.875,0-46.125,0-46.125,0
			L114.881,33.606z"/>
		<path fill="#A7B0B5" d="M179.744,25.093c1.5,0,4.138,0.014,5.012,0.014c1.454,0,1.938,0.625,1.938,1.938s0,40.688,0,43.312
			s1.806,10.094,10.094,10.094c7.094,0,15.719,0,18.094,0c5.06,0,10.109-3.375,10.109-10.109s0-42.109,0-43.359
			s0.539-1.625,1.547-1.625s3.844-0.008,5.469-0.008c0.578,0,1.625,0.133,1.625,1.633s0,37.625,0,41
			c0,8.249-4.56,19.951-19.06,19.951s-9.19-0.076-17.44-0.076c-11.07,0-19.375-7.875-19.375-20.75s0.013-38.602,0.013-39.977
			S178.746,25.093,179.744,25.093z"/>
		<path fill="#A7B0B5" d="M296.688,87.933c-1.5,0-4.138-0.014-5.013-0.014c-1.454,0-1.938-0.625-1.938-1.938s0-40.688,0-43.312
			s-1.806-10.094-10.094-10.094c-7.094,0-15.719,0-18.094,0c-5.06,0-10.109,3.375-10.109,10.109s0,42.109,0,43.359
			s-0.539,1.625-1.547,1.625s-3.844,0.008-5.469,0.008c-0.578,0-1.625-0.133-1.625-1.633s0-37.625,0-41
			c0-8.249,4.56-19.951,19.06-19.951s9.19,0.076,17.44,0.076c11.07,0,19.375,7.875,19.375,20.75s-0.013,38.602-0.013,39.977
			S297.687,87.933,296.688,87.933z"/>
		<path fill="#A7B0B5" d="M360.374,30.579c-4.396-4.615-10.879-6.482-16.923-6.482s-11.099,0-13.846,0s-13.079,0.658-18.463,9.23
			c-5.384,8.57-4.285,19.01-4.285,22.307s-1.076,17.875,7.802,26.043c5.494,5.055,12.527,5.385,16.483,5.385s26.593,0,26.593,0
			l4.836-7.582c0,0-25.055,0-31.647,0s-15.164-4.615-15.164-13.956c0-4.615,0-6.483,0-6.483s42.087,0,45.273,0
			s4.725-1.099,4.725-3.516c0-2.418,0-6.044,0-9.23C365.758,43.106,364.77,35.194,360.374,30.579z M357.515,50.14h-41.438
			c0,0,0.049-1.331,0.049-4.518c0-7.521,5.563-13.064,14.226-13.064c6.923,0,1.131,0.082,13.878,0.082
			c10.318,0,13.285,8.655,13.285,11.984C357.515,46.162,357.515,50.14,357.515,50.14z"/>
	</g>
</g>
</svg>
