<?xml version="1.0" encoding="utf-8"?>
<!-- Generator: Adobe Illustrator 16.0.0, SVG Export Plug-In . SVG Version: 6.00 Build 0)  -->
<!DOCTYPE svg PUBLIC "-//W3C//DTD SVG 1.1//EN" "http://www.w3.org/Graphics/SVG/1.1/DTD/svg11.dtd">
<svg version="1.1" id="Layer_1" xmlns="http://www.w3.org/2000/svg" xmlns:xlink="http://www.w3.org/1999/xlink" x="0px" y="0px"
	 width="81.532px" height="113.479px" viewBox="0 0 81.532 113.479" enable-background="new 0 0 81.532 113.479"
	 xml:space="preserve">
<g>
	<path fill="none" d="M81.52,61.223c-0.021-2.498-0.073-4.657-0.146-6.313c-0.067-1.539-0.17-3.047-0.293-4.506
		c-0.049,0.029-0.099,0.058-0.146,0.087C81.222,53.903,81.409,57.494,81.52,61.223z"/>
	<path fill="#008AD1" d="M81.52,61.223c-0.111-3.729-0.298-7.319-0.586-10.732c0.048-0.029,0.098-0.058,0.146-0.087
		c-0.787-9.282-2.496-16.529-2.496-16.529c-0.584-2.89-1.289-5.615-2.06-8.172C71.327,8.567,62.467,0,49.95,0
		c-1.27,0-2.496,0.104-3.682,0.291c-2.723,0.653-7.979,2.41-11.958,7.265c-7.974,9.729-8.58,19.021-10.418,23.06
		c-0.187,0.581-0.373,1.1-0.581,1.576c-1.186,2.766-3.078,5.303-5.656,7.59c-0.541,0.479-4.949,3.868-13.226,10.169
		C1.539,52.133,0.063,54.398,0,56.687v0.042v0.188c0,1.56,0.375,2.869,1.144,3.95c1.081,1.539,2.579,2.309,4.512,2.309
		c0.749,0,1.685-0.188,2.787-0.541c0.188-0.062,0.333-0.104,0.437-0.146c0.666,0.021,1.352,0.125,2.059,0.312
		c-1.893,2.246-2.828,4.533-2.828,6.884v0.062c0,3.326,1.684,5.926,5.074,7.777c2.558,1.393,5.386,2.08,8.463,2.08
		c0.749,0,1.498-0.043,2.246-0.105c0,0,10.479-1.005,19.229-9.005c0.309,11.673-4.876,28.594-10.146,42.984h1.396
		c0.853,0,1.602-0.499,1.934-1.29c3.307-8.005,10.959-27.698,9.025-46.436c-0.584,0.458-1.166,0.896-1.769,1.353
		c-4.014,3.017-7.944,5.47-11.812,7.341c-5.407,2.662-11.853,3.764-17.322,0.79c-2.454-1.353-3.702-3.181-3.723-5.489v-0.021v-0.041
		c0-2.269,1.29-4.575,3.868-6.926h0.021l1.04-0.895c-1.144-0.562-2.059-0.935-2.724-1.185c-1.498-0.521-2.911-0.791-4.263-0.791
		c-0.125,0-0.458,0.084-1.019,0.271c-0.832,0.271-1.497,0.415-1.976,0.415c-1.019,0-1.83-0.415-2.391-1.206
		C2.829,58.746,2.6,57.934,2.6,56.916V56.77c0.042-1.477,1.165-3.058,3.411-4.763c4.471-3.41,12.727-9.711,13.371-10.272
		c2.87-2.559,4.97-5.406,6.322-8.525c0.749-1.789,1.373-4.097,1.851-6.945C29.51,14.556,37.079,2.599,49.952,2.599
		c25.452,0,29.092,41.548,29.092,66.231c0,13.351-0.396,26.741-3.285,39.802c-0.188,0.853,0.166,1.726,0.894,2.203
		c0.349,0.225,0.709,0.418,1.067,0.619C80.846,100.51,81.646,75.31,81.52,61.223z"/>
	<ellipse fill="#008AD1" cx="60.327" cy="22.798" rx="2.869" ry="4.211"/>
	<path fill="#FFDC00" d="M46.206,34.457c-0.416-3.722-0.687-8.65-1.768-10.022c-0.208-0.229-0.458-0.354-0.77-0.354
		c-3.017,0.104-3.391,3.66-7.299,3.66c-3.431,0-2.101-4.388-4.158-4.388c-2.829,0,0.582,10.584-10.751,20.712
		C16.241,48.722,4.741,53.775,4.679,56.81c-0.062,3.059,2.225,0.999,3.972,0.999c6.758,0,11.333,5.303,16.761,5.303
		c6.965,0,14.099-6.155,20.543-10.439l1.27-0.853c0.416-0.271,0.957-0.208,1.311,0.125l0.479,0.457
		c0.416,0.416,0.416,1.103-0.021,1.519l-2.83,2.559c-7.152,6.487-17.488,14.016-24.953,14.016c-2.495,0-6.758-0.79-3.473-4.201
		l1.269-1.289c0.499-0.52,0.333-1.393-0.333-1.684l-0.416-0.188c-0.375-0.166-0.811-0.104-1.102,0.166l-1.186,1.021
		c-1.497,1.352-3.202,3.348-3.182,5.406c0.042,3.266,4.492,4.907,7.548,4.907c11.083,0,34.416-18.424,34.416-24.933
		C54.752,44.21,47.267,43.669,46.206,34.457z"/>
</g>
</svg>
