<?xml version="1.0" encoding="utf-8"?>
<!-- Generator: Adobe Illustrator 16.0.0, SVG Export Plug-In . SVG Version: 6.00 Build 0)  -->
<!DOCTYPE svg PUBLIC "-//W3C//DTD SVG 1.1//EN" "http://www.w3.org/Graphics/SVG/1.1/DTD/svg11.dtd">
<svg version="1.1" id="Layer_1" xmlns="http://www.w3.org/2000/svg" xmlns:xlink="http://www.w3.org/1999/xlink" x="0px" y="0px"
	 width="162.49px" height="140.737px" viewBox="0 0 162.49 140.737" enable-background="new 0 0 162.49 140.737"
	 xml:space="preserve">
<g>
	<g>
		<path fill-rule="evenodd" clip-rule="evenodd" d="M1.088,12.182c0.58,3.044,0.323,6.928,2.609,8.267
			c0.02-4.214-1.802-13.346,1.088-16.533c0.219,4.422,0.53,8.752,2.828,11.094c0.262-4.588-1.176-12.195,2.393-14.573
			c-0.862,10.504,2.233,18.547,9.136,21.969c0.312-0.049-0.203-1.083,0-1.74c8.362,9.667,20.703,13.744,29.583,22.622
			c8.826,8.825,11.043,22.845,21.316,30.669c9.716-3.373,11.445-14.186,14.791-23.927c2.434-7.074,6.484-13.992,11.748-19.142
			c5.258-5.146,12.877-8.3,19.141-11.747c6.469-3.559,13.504-6.83,19.145-11.527c1.25-1.044,1.959-2.87,4.131-3.481
			c-0.127,4.377-3.715,7.158-5.438,10.66c3.941-0.943,7.027-3.812,10.006-6.309c1.572-1.319,3.02-2.602,4.35-4.133
			c1.262-1.452,2.092-3.417,3.916-4.351c0.176,5.272-3.127,8.783-6.09,11.746c-2.293,2.292-5.318,3.958-7.18,6.527
			c2.389,0.768,4.576-1.068,6.309-2.175c3.805-2.431,6.996-5.321,10.225-8.482c1.57-1.538,2.998-3.499,5-4.351
			c-0.68,9.034-8.52,12.793-13.268,18.489c5.754-1.284,11.25-5.858,15.664-8.482c-1.975,8.539-11.828,9.2-17.402,14.138
			c2.834,1.479,5.863-0.53,8.266-1.523c2.664-1.102,5.129-2.479,7.83-3.044c-0.932,8.058-11.248,8.616-16.969,12.615
			c3.627,1.551,7.936-1.552,11.748-1.959c-0.939,2.499-3.455,3.697-5.873,4.787c-2.492,1.121-5.57,1.15-7.395,3.045
			c0.576,1.71,3.137,0.459,4.564,0.434c-0.256,3.295-4.861,2.244-7.178,3.48c0.656,1.159,2.574,1.052,3.918,1.523
			c-0.977,3.447-8.189,0.656-9.791,3.48c0.473,1.268,2.732,0.748,3.918,1.303c-1.135,2.347-6.486,0.479-7.613,2.83
			c0.021,1.071,1.824,1.5,1.738,1.958c-0.734,1.948-5.609-0.243-6.09,1.958c0.1,0.841,0.975,0.91,1.521,1.305
			c-0.445,1.944-3.721,1.063-4.785,2.392c-0.27,1.26,1.305,0.919,1.523,1.088c0.002,1.962-2.164,1.752-2.826,3.045
			c-0.215,1.444,1.252,1.21,1.086,2.61c-0.994,0.206-2.586-0.132-2.828,1.305c0.256,1.34,1.465,1.725,1.088,3.698
			c-1.215-0.25-2.357-0.144-2.826,0.87c0.268,1.255,1.969,1.076,1.52,3.045c-1.023-0.292-2.465-0.302-2.609,0.871
			c0.336,1.695,2.572,1.489,2.176,3.915c-1.637-0.525-3.586-0.133-4.131,1.088c0.348,1.465,1.754,1.871,1.521,3.915
			c-0.582,0.421-1.297-0.866-2.174-0.218c-0.246,1.167,1.578,2.672,0.652,4.569c-1.104-0.203-1.293-1.317-2.83-1.088
			c-0.646,1.642,1.223,2.914,0.434,4.785c-0.551,0.218-1.963-1.047-2.826,0c0.045,1.769,0.881,2.745,0.654,4.787
			c-1.854,0.258-2.359-0.832-3.699-1.089c-0.627,1.052,0.506,2.935-0.217,4.133c-1.021,0.24-3.113-1.996-4.568-0.653
			c-0.51,1.469,1.135,1.64,0.654,2.394c-6.104,0.154-6.582-5.311-11.312-6.527c3.934,8.038,8.018,14.589,14.574,19.578
			c3.766,2.869,10.701,4.222,10.441,11.312c-2.271,0.048-2.26,2.379-4.568,2.393c-0.707,0.67-0.793,1.961-1.738,2.393
			c-1.166,0.074-1.793-0.386-2.613-0.653c-1.16,0.145-1.273,1.335-2.172,1.739c-2.643-1.496-3.906,1.578-5.877,1.74
			c-1.002,0.085-1.602-0.923-2.826-1.087c-1.354-0.183-2.818,0.994-3.918,0.87c-1.758-0.199-3.162-3.749-6.088-1.523
			c-1.309-0.287-1.248-1.941-2.395-2.392c-0.793-0.146-0.832,0.471-1.52,0.434c-0.887-0.546-1.678-1.915-3.264-1.087
			c-1.052-0.592-1.174-2.609-3.046-1.739c-0.296-0.575-0.257-1.483-0.435-2.179c-0.376-0.646-1.345,0.313-1.523-0.214
			c-1.046-5.388,6.47-7.37,4.351-12.399c-2.638,0.917-3.911,3.195-4.351,6.309c-0.832,0.104-0.682-0.77-1.088-1.089
			c-0.844,1.621-1.476,3.455-1.523,5.873c-0.699-0.46-0.97-1.349-1.304-2.176c-1.899,1.438-3.319,3.355-4.133,5.875
			c-0.66-0.5-0.348-1.975-1.306-2.179c-2.131,0.509-2.168,3.195-1.521,4.352c1.311,2.354,8.624,2.963,5.22,7.615
			c-0.444-0.788-0.582-1.884-1.305-2.393c-2.267,0.601-3.972-0.855-5.221-1.958c-4.426-0.292-7.298,0.969-7.613,4.785
			c-1.192-0.46-1.774-2.907-0.87-4.132c-1.455,0.067-2.328,0.719-2.61,1.956c-1.24-0.534-1.145-2.253-0.435-3.263
			c-1.696-0.201-2.058,1.945-3.045,1.74c-1.381-4.435,4.811-4.647,8.266-5.655c-0.372-1.426-1.582-0.782-2.827-1.306
			c-2.971-1.246-7.25-5.854-9.572-1.742c-1.269-0.867-0.406-3.045,0.436-3.696c-2.048-0.521-2.939,1.263-3.699,1.309
			c-0.108-1.779,0.733-2.604,1.524-3.483c-1.067-0.78-2.858-0.048-3.915,0.436c1.131-3.867,4.841-2.587,7.83-1.303
			c1.099,0.469,2.711,1.854,3.916,1.739c1.953-0.187,3.398-5.64,4.351-8.485c1.654-4.944,4.615-9.254,3.915-16.097
			c-0.546-5.331-4.305-8.371-9.572-6.742c-0.556,0.171-0.957,0.639-1.522,0.869c-2.433,0.992-6.163,0.227-8.048,2.176
			c-0.781-0.802,0.757-1.911-0.218-2.393c-1.717,0.384-2.106,2.1-2.394,3.915c-2.407-1.463-2.476-6.382-0.216-8.048
			c-0.212-3.315,0.964-5.084,3.045-6.743c3.061-2.44,10.131-3.484,10.658-6.309c0.646-3.465-4.27-9.375-5.873-11.093
			c-8.25-8.846-21.798-12.708-33.064-17.836c0.637-0.454,2.096-0.082,2.827-0.436c-1.85-2.208-5.053-3.066-6.306-5.873
			c0.958,0.057,1.682,0.346,2.827,0.217c-1.994-2.359-6.433-4.153-7.831-7.831c1.396-0.018,2.785,1.852,4.567,2.176
			C3.107,31.335,0.022,24.888,0,18.055C-0.006,16.269,0.048,13.55,1.088,12.182z M54.598,126.163
			c1.625,0.697,1.943,2.699,2.61,4.352c1.807-1.559,3.288-4.505,2.393-8.05C56.931,122.696,55.86,124.526,54.598,126.163z"/>
	</g>
</g>
</svg>
