<?xml version="1.0" encoding="utf-8"?>
<!-- Generator: Adobe Illustrator 16.0.0, SVG Export Plug-In . SVG Version: 6.00 Build 0)  -->
<!DOCTYPE svg PUBLIC "-//W3C//DTD SVG 1.1//EN" "http://www.w3.org/Graphics/SVG/1.1/DTD/svg11.dtd">
<svg version="1.1" id="Layer_1" xmlns="http://www.w3.org/2000/svg" xmlns:xlink="http://www.w3.org/1999/xlink" x="0px" y="0px"
	 width="88.891px" height="207.555px" viewBox="0 0 88.891 207.555" enable-background="new 0 0 88.891 207.555"
	 xml:space="preserve">
<g>
	<path fill="#00539F" d="M68.741,182.414L17.82,5.156l-6.445,19.98c0,0-1.934,3.223,0.646,7.089l-3.87,2.58L4.928,46.408
		c0,0-1.29,4.513,1.933,7.093l-3.865,1.286c0,0-5.156,12.249-1.938,18.694l2.58,1.29l-3.223,3.225l3.223,12.248
		c0,0-1.287,2.576,3.869,4.51l-2.579,4.51l3.869,12.893c0,0,1.287,3.869,4.51,5.155c3.223,1.29-2.576,3.87-2.576,3.87l4.51,12.893
		c0,0,0,2.575,4.513,2.575l-2.58,3.866l16.762,56.725c0,0,5.799-1.934,5.799,1.29l1.29,3.224l-9.021,3.223h20.625
		c0,0-9.669-2.58-9.026-7.735l3.228-12.245c0,0,3.865-4.514,7.731,0l11.604,16.759c0,0,3.865,2.579,0,5.803
		c0,0,9.024-7.74,5.158-11.603C71.321,195.952,73.25,186.926,68.741,182.414L68.741,182.414z"/>
	<path fill="#00539F" d="M18.142,159.479l7.736,28.038c0,0-4.997,0.484-6.125,0.162c-1.127-0.321-1.774-2.901-1.774-2.901
		l-0.965,3.062c0,0-4.351,0.488-5.803,0.163c-1.449-0.322-1.771-3.707-1.771-3.707s-0.644,3.223-1.773,3.385
		c-1.127,0.159-5.641,0-5.641,0L18.142,159.479L18.142,159.479z"/>
	<path fill="#00539F" d="M45.964,84.438c0,0,18.69,67.036,20.628,68.326l20.625-76.705c0,0,4.516-9.666-1.287-19.335L68.526,0
		l-7.093,28.682c0,0,1.29,2.129,1.29,4.191c0,5.803,1.611,1.933,1.611,1.933l-5.153,0.646L56.28,46.087l2.576,3.544
		c0,0-2.896,0-4.188,1.612L52.41,62.845l2.58,3.87c0,0-3.228-0.322-4.839,2.58L45.964,84.438L45.964,84.438z"/>
</g>
</svg>
