<?xml version="1.0" encoding="utf-8"?>
<!-- Generator: Adobe Illustrator 16.0.0, SVG Export Plug-In . SVG Version: 6.00 Build 0)  -->
<!DOCTYPE svg PUBLIC "-//W3C//DTD SVG 1.1//EN" "http://www.w3.org/Graphics/SVG/1.1/DTD/svg11.dtd">
<svg version="1.1" id="Layer_1" xmlns="http://www.w3.org/2000/svg" xmlns:xlink="http://www.w3.org/1999/xlink" x="0px" y="0px"
	 width="46.786px" height="62.276px" viewBox="0 0 46.786 62.276" enable-background="new 0 0 46.786 62.276" xml:space="preserve">
<g>
	
		<path fill-rule="evenodd" clip-rule="evenodd" fill="#DDDFAB" stroke="#DDDFAB" stroke-width="0.216" stroke-miterlimit="2.6131" d="
		M6.648,15.852c3.86-6.763,14.269-12.721,24.079-14.224c1.763-0.271,4.349-0.488,6.363-0.904c1.056-0.221,1.529-0.137,1.8-0.038
		c2.486,0.912,3.7,1.915,3.963,5.142l0.096,4.741l-0.358,3.551l1.781,2.899l1.987,1.392l-0.058,1.064l-2.86,1.633l-6.988,1.231
		l-5.897,1.85l-3.013,3.025l-2.788,3.135l-3.517,2.011l-3.253,3.41l-2.617,2.838l-1.339,1.594l3.406,3.86l4.306,0.659l1.595,1.328
		l0.065,2.315c-0.694,1.644-0.618,2.151,0.629,4.363c0.576,1.022,0.557,1.709,0.675,2.94l-0.587,2.297l-1.507,2.468l-1.201,0.861
		l-1.45,0.107l-1.617-2.228l-1.11-2.583l-1.03-5.637l-2.937-3.288l-3.761-2.373L7.59,45.909l-4.337-7.922L2.826,23.984l-2.602-4.611
		l2.239-2.06L6.648,15.852L6.648,15.852z"/>
	<path fill-rule="evenodd" clip-rule="evenodd" fill="#39674E" d="M19.918,51.112L19.918,51.112h0.275l0.271,0.054l0.385,0.053
		l0.382,0.168l0.438,0.218l0.438,0.327l0.382,0.492l0,0l0.438,0.604l0.603,0.655l0.709,0.714l0,0l-0.164-0.274l-0.435-0.656
		l-0.222-0.438l-0.217-0.439l-0.164-0.492l-0.057-0.438l0,0l-0.164-0.438l-0.164-0.381l-0.217-0.382l-0.217-0.274l-0.275-0.218
		l-0.274-0.167l-0.217-0.054l-0.275,0.054l0,0l-0.274,0.11l-0.217,0.11l-0.222,0.218l-0.164,0.163l-0.217,0.386L19.918,51.112
		L19.918,51.112L19.918,51.112z M20.246,47.282L20.246,47.282l0.328-0.057h0.164l0.11,0.057l0.164,0.164l0.111,0.218l0.107,0.328
		l0.164,0.328l0.274,0.274l0.328,0.328l0,0l0.385,0.164l0.271,0.053h0.164l0.111-0.106l0.11-0.164v-0.164l-0.057-0.438l0,0
		l-0.271-0.274l-0.057-0.11L22.6,47.717V47.61l0.053-0.164l0.111-0.221l0.217-0.274l0,0l0.111-0.218v-0.274l-0.111-0.271
		l-0.217-0.221l-0.217-0.275l-0.328-0.217l-0.328-0.218l-0.385-0.164l0,0l-0.438-0.11l-0.381-0.054h-0.328l-0.275,0.054
		l-0.381,0.164L19.59,45.2l0,0l-0.053,0.385v0.767l0.053,0.382l0.165,0.328l0.053,0.11l0.11,0.11h0.164H20.246L20.246,47.282
		L20.246,47.282z M20.246,54.174L20.246,54.174l0.492,1.148l0.438,1.041l0.328,1.095l0,0l0.111,1.148l0.106,1.152l0.057,0.435
		l0.111,0.274l0.053,0.054h0.054l0.053-0.107l0.111-0.164l0,0l0.438-0.713l0.328-0.492l0.381-0.438l0.438-0.436l0,0l0.111-0.057
		l0.11-0.164l0.054-0.328V57.13l-0.054-0.491l-0.11-0.55l-0.217-0.546l-0.222-0.492l-0.328-0.438l0,0l-0.603-0.819l-0.328-0.386
		l-0.328-0.328l-0.381-0.328l-0.328-0.164l-0.385-0.11h-0.164l-0.164,0.058l0,0l-0.217,0.053l-0.111,0.111l-0.11,0.11l-0.054,0.106
		l-0.053,0.275l0.053,0.274l0.054,0.271l0.11,0.222L20.246,54.174L20.246,54.174L20.246,54.174z M17.02,52.207L17.02,52.207v0.053
		l-0.058,0.164l-0.053,0.439l0.053,0.603l0.058,0.656l0.164,0.819l0.217,0.767l0.274,0.82l0.328,0.767l0,0l0.328,0.71l0.328,0.767
		l0.275,0.656l0.328,0.659l0.328,0.492l0.165,0.218l0.217,0.221l0.164,0.107l0.221,0.11l0.274,0.054l0.271-0.054l0,0l-0.82-1.369
		l-0.603-1.259l-0.492-1.095l0,0l-0.217-0.599l-0.221-0.878l-0.492-1.968l-0.274-0.877l-0.217-0.656l-0.164-0.275l-0.111-0.11
		l-0.106-0.054L17.02,52.207L17.02,52.207L17.02,52.207z M38.467,3.501L38.467,3.501l0.332-0.767l0.218-0.492l0.053-0.164V1.972
		l-0.053-0.111l-0.111-0.11l0,0l-0.106-0.054h-0.164h-0.168l-0.164,0.111l-0.164,0.164l-0.163,0.164l-0.382,0.545l-0.274,0.713
		L37.208,3.83l-0.106,0.438L37.048,4.76L36.991,5.31v0.545v0.603l0,0l0.057,0.603l0.107,0.492l0.11,0.439l0.11,0.381l0.271,0.656
		l0.328,0.492l0.327,0.385l0.222,0.381l0.053,0.164l0.058,0.221v0.217v0.275l0,0l-0.058,0.381l0.111,0.385l0.11,0.381l0.218,0.385
		l0.217,0.381l0.275,0.328l0.713,0.713l0,0l0.382,0.381l0.492,0.438l1.258,0.931l1.095,0.656l0.328,0.164l0.054,0.053l0.058-0.053
		l0,0l0,0v-0.111l-0.222-0.217l-0.873-0.713l-0.439-0.381l-0.438-0.492l-0.164-0.221l-0.164-0.217l-0.053-0.217l-0.054-0.221l0,0
		l0.106-0.328l0.058-0.164l0.106-0.053h0.164h0.11l0.164-0.111l0.111-0.164l0.164-0.274l0,0l0.164-0.767l0.053-0.435v-0.385v-0.438
		l-0.11-0.492l-0.164-0.492l-0.271-0.492l0,0l-0.275-0.492l-0.11-0.438l-0.106-0.328V7.716l0.106-0.275l0.11-0.217l0.218-0.221
		l0.222-0.217l0,0l0.106-0.164l0.11-0.217l0.054-0.275V5.801l-0.054-0.767l-0.11-0.767l-0.271-0.656l-0.111-0.328l-0.164-0.217
		l-0.164-0.168l-0.163-0.107H41.37l-0.222,0.053l0,0l-0.053,0.111L40.984,3.12l-0.053,0.328V3.83L40.82,4.158l0,0v0.385
		l-0.106,0.381l-0.058,0.164l-0.053,0.11l-0.111,0.054h-0.106l0,0l-0.164-0.054l-0.11-0.11l-0.054-0.164V4.707l0.054-0.439
		l0.11-0.438l0,0l0.164-0.435l0.054-0.328l-0.054-0.168l-0.058-0.054l-0.106-0.053l-0.164-0.057l0,0h-0.164l-0.168,0.11
		l-0.164,0.164l-0.106,0.164l-0.222,0.549l-0.164,0.656l0,0v0.545l-0.053,0.492l-0.054,0.221l-0.058,0.164l-0.106,0.054
		l-0.164,0.057l0,0l-0.221-0.057L38.25,5.691l-0.111-0.274l-0.106-0.271V4.76l0.106-0.435L38.25,3.94L38.467,3.501L38.467,3.501
		L38.467,3.501z M34.638,21.177L34.638,21.177l-0.164,0.164v0.11l0.11,0.054l0.164,0.057h0.546l0.767-0.057l1.808-0.218l1.529-0.218
		l0,0h0.988l1.095-0.057h0.545l0.439-0.054l0.381-0.164l0.111-0.057l0.11-0.107l0,0l0.106-0.057v-0.054l-0.053-0.11l-0.054-0.054
		l-0.222-0.053l-0.381-0.058l-0.931-0.054l-0.492,0.054l-0.492,0.058l0,0l-0.222,0.053h-0.271l-0.603-0.11l-0.714-0.107l-0.819-0.11
		H37.54h-0.438l-0.438,0.054l-0.381,0.11l-0.439,0.111l-0.438,0.217l-0.382,0.328L34.638,21.177L34.638,21.177L34.638,21.177z
		 M23.583,24.023L23.583,24.023l0.877,0.057l0.709-0.057l0.656-0.164l0.496-0.164l0.435-0.218l0.274-0.222l0.164-0.217l0.054-0.218
		l0,0l-0.054-0.11l-0.053-0.164l-0.111-0.054l-0.111-0.057l-0.271-0.054l-0.438,0.054l-1.148,0.221l-1.48,0.271l0,0l-0.709,0.058
		l-0.931,0.054l-1.972-0.054l-2.46-0.164l0,0l0.603,0.164l1.476,0.382l1.969,0.381l1.041,0.168L23.583,24.023L23.583,24.023
		L23.583,24.023z M13.682,14.449L13.682,14.449l-0.167,0.106l-0.107,0.221l-0.057,0.218l-0.054,0.217v0.221l0.054,0.275l0.221,0.599
		l0.271,0.603l0.439,0.603l0.549,0.656l0.603,0.603l0,0l0.656,0.546l0.709,0.438l0.713,0.385l0.82,0.328l0.874,0.271l0.824,0.164
		l0.931,0.11l0.874,0.057l0,0h0.877h0.767l0.656-0.11l0.492-0.11l0.438-0.164l0.218-0.164l0.053-0.054v-0.057l-0.053-0.054
		l-0.111-0.053l0,0l-0.328-0.058h-0.438h-0.927h-0.439l-0.385-0.107l-0.164-0.057l-0.107-0.054l-0.057-0.11v-0.164l0,0v-0.107
		l0.11-0.11l0.111-0.058l0.106-0.053l0.439-0.11l0.549-0.054h0.599l0.713-0.111l0.767-0.106l0.767-0.275l0,0l0.328-0.217
		l0.328-0.328l0.271-0.274l0.221-0.328l0.111-0.221v-0.107l-0.057-0.057h-0.107H27.47l-0.385,0.11l0,0l-0.546,0.275l-0.603,0.164
		l-0.656,0.164l-0.656,0.053l-0.713,0.11h-0.656H22.6l-0.603-0.11l0,0l-0.82-0.164l-0.877-0.217l-0.82-0.328l-0.767-0.385
		l-0.709-0.328l-0.656-0.381l-0.549-0.385l-0.381-0.271l0,0l-0.713-0.603l-0.381-0.328l-0.328-0.222l-0.328-0.164l-0.328-0.053
		h-0.164l-0.164,0.053l-0.168,0.058L13.682,14.449L13.682,14.449L13.682,14.449z M35.404,4.051L35.404,4.051l-0.11,0.438
		L35.13,4.817l-0.271,0.217l-0.385,0.218l-0.328,0.164L33.707,5.58l-0.82,0.221l0,0l-0.328,0.164l-0.054,0.054l-0.057,0.11v0.054
		l0.057,0.11l0.218,0.111l0.274,0.107l0.328,0.11l0.328,0.053h0.328l0,0l0.274,0.057l0.107,0.107L34.42,7.06v0.218l-0.11,0.221
		l-0.218,0.217l-0.274,0.217l-0.328,0.164l0,0l-0.385,0.164l-0.328,0.221l-0.328,0.274l-0.271,0.328l-0.164,0.382L31.85,9.795
		l-0.058,0.385l-0.054,0.328l0,0l0.054,0.107h0.058h0.106l0.164-0.054l0.274-0.217l0.382-0.274l0.221-0.054l0.164-0.057h0.218
		l0.222,0.057l0.163,0.107l0.218,0.275l0.164,0.328l0.164,0.439l0,0l0.274,0.603l0.274,0.545l0.328,0.549l0.382,0.492l0.767,0.931
		l0.82,0.927l0,0l0.492,0.438l0.491,0.439l0.496,0.381l0.546,0.385l1.041,0.603l1.091,0.545l1.095,0.385l0.988,0.328l1.586,0.492
		l0,0l0.492,0.107h0.328l0.218-0.107l0.11-0.164v-0.164l-0.11-0.221l-0.218-0.217l-0.328-0.218l0,0l-1.147-0.549l-0.824-0.381
		l-0.931-0.492l-0.984-0.549l-0.983-0.656l-0.878-0.713l-0.435-0.381l-0.386-0.381l0,0l-0.545-0.713l-0.549-0.82l-0.492-0.984
		l-0.492-1.042l-0.382-1.094l-0.163-0.603l-0.111-0.545l-0.11-0.603l-0.054-0.603V6.511l0.054-0.599l0,0l0.11-0.713l0.111-0.656
		l0.327-1.148l0.328-0.877l0.328-0.709l0.274-0.496l0.271-0.328l0.164-0.217V0.713V0.656l0,0l-0.107,0.058l-0.221,0.164
		l-0.382,0.218l-0.385,0.438l-0.436,0.492l-0.438,0.545l-0.328,0.713l-0.164,0.381L35.404,4.051L35.404,4.051L35.404,4.051z
		 M21.341,10.615L21.341,10.615l-0.164-0.107l-0.11-0.11l-0.054-0.164v-0.218l0.111-0.438l0.217-0.438l0.164-0.492l0.164-0.438
		l0.053-0.217l-0.053-0.164l-0.053-0.164l-0.111-0.111l0,0l-0.11-0.111h-0.107h-0.221l-0.218,0.111l-0.217,0.164L20.41,7.991
		l-0.111,0.271l-0.217,0.496l0,0l-0.11,0.218l-0.164,0.328l-0.107,0.381l-0.057,0.496l-0.054,0.492l0.054,0.599l0.057,0.603
		l0.217,0.603l0,0l0.164,0.275l0.275,0.381l0.435,0.385l0.549,0.381l0.275,0.164l0.381,0.164l0.385,0.111l0.435,0.111l0.439,0.053
		h0.492h0.549l0.603-0.053l0,0l2.079-0.328l0.82-0.221l0.655-0.164L29,13.571l0.438-0.217l0.386-0.221l0.328-0.218l0,0l0.545-0.438
		l0.386-0.275l0.164-0.164l0,0h0.271h0.274l0.274-0.107l0,0l0.274-0.164l0.218-0.164l0.054-0.11l-0.054-0.221l0,0l-0.11-0.107
		l-0.054-0.057H32.23l-0.11,0.11l-0.328,0.111l-0.218,0.053h-0.163l0,0l-0.164-0.11l-0.111-0.107L31.083,11l-0.058-0.221v-0.435
		l0.058-0.603l0,0l0.164-0.328l0.164-0.221l0.274-0.381l0.217-0.328v-0.11V8.208l0,0l-0.11-0.054h-0.106l-0.274,0.218l-0.222,0.221
		h-0.106l-0.164-0.057l0,0V8.426V8.319l0.053-0.221l0.111-0.271l0.164-0.328l0.327-0.496l0.054-0.217V6.732l-0.054-0.057l0,0
		l-0.11-0.053h-0.11l-0.218,0.11l-0.274,0.164l-0.271,0.275l-0.274,0.328L30.095,7.88l-0.164,0.328l-0.106,0.328l0,0l-0.11,0.549
		L29.66,9.742L29.55,11l-0.054,0.545l-0.058,0.438l-0.106,0.275l-0.058,0.106h-0.106l0,0l-0.222-0.106l-0.164-0.164l-0.11-0.164
		l-0.054-0.164l-0.11-0.385v-0.439l0.058-0.545l-0.058-0.546l-0.054-0.66l-0.11-0.328l-0.106-0.328l0,0l-0.222-0.328l-0.217-0.275
		l-0.275-0.217L27.25,7.499l-0.271-0.221L26.65,7.171L26.322,7.06l-0.328-0.11h-0.332h-0.328h-0.328l-0.271,0.11l-0.275,0.111
		l-0.274,0.164l-0.218,0.164L23.748,7.77l0,0l-0.164,0.275l-0.106,0.274l-0.168,0.492v0.545l0.057,0.549l0.164,0.492l0.164,0.492
		l0.274,0.439l0.271,0.438l0.496,0.763l0.381,0.603l0.053,0.221v0.164l-0.164,0.106l-0.271,0.057l0,0l-0.275-0.057l-0.221-0.053
		l-0.164-0.164l-0.217-0.164l-0.328-0.381l-0.385-0.549l-0.381-0.492l-0.381-0.492l-0.221-0.221L21.89,10.89l-0.274-0.164
		L21.341,10.615L21.341,10.615L21.341,10.615z M11.927,20.739L11.927,20.739h-0.328h-0.435l-1.041,0.057l-1.259,0.218l-1.312,0.221
		l-2.354,0.382l-0.767,0.11l-0.217-0.057l-0.111-0.054l0,0l0.053-0.11l0.222-0.107l0.82-0.274l1.095-0.274l1.312-0.274l2.354-0.6
		l0.767-0.221l0.218-0.107V19.59l0.053-0.053l0,0l-0.107-0.111l-0.164-0.11l-0.221-0.054l-0.271-0.053H9.578l-0.713,0.053H8.151
		l-0.656,0.054l-0.271-0.054L6.95,19.209l-0.164-0.058l-0.111-0.164l0,0v-0.053l0.111-0.053l0.381-0.164l1.259-0.221l1.095-0.218
		l0.274-0.11v-0.054l-0.11-0.11l0,0l-0.656-0.164l-0.877-0.217l-0.984-0.221l-0.82-0.164l0,0L5.035,17.13H4.047l-0.381,0.053
		l-0.275,0.054l-0.271,0.11l-0.164,0.111l0,0l-0.275,0.435l-0.328,0.274l-0.275,0.221L1.75,18.606l-0.492,0.218l-0.222,0.164
		l-0.106,0.111l0,0l-0.058,0.275v0.274l0.058,0.381l0.106,0.382l0.222,0.492l0.274,0.438l0.435,0.549l0.549,0.492l0,0l0.217,0.274
		l0.221,0.271l0.106,0.222l0.111,0.271l0.053,0.496l0.058,0.435v0.164l0.053,0.111l0.053,0.11l0.164,0.053h0.164l0.274-0.053
		l0.767-0.274l0,0l3.284-1.095l1.694-0.546l1.259-0.438l0,0l0.438-0.058l0.385,0.058l0.328,0.11l0.328,0.106l0.709,0.386
		l0.385,0.164l0.438,0.106l0,0l0.492,0.058h0.328l0.217-0.11l0.053-0.111v-0.164l-0.164-0.164l-0.271-0.217l-0.328-0.274l0,0
		l-0.385-0.164l-0.217-0.11l-0.164-0.054h-0.164l-0.164,0.11h-0.164h-0.164l0,0h-0.057v-0.11l0.057-0.164l-0.057-0.218l-0.054-0.221
		l-0.164-0.218l-0.275-0.164L11.927,20.739L11.927,20.739L11.927,20.739z M23.419,27.307L23.419,27.307l-0.053-0.164l-0.11-0.054
		l-0.218-0.058l-0.221,0.058l-0.545,0.106l-0.603,0.222l-0.656,0.106l-0.274,0.058l-0.275-0.058l-0.271-0.054l-0.221-0.163
		l-0.107-0.218l-0.11-0.328l0,0l-0.111-0.222l-0.107-0.164l-0.164-0.11l-0.221-0.054h-0.217l-0.221,0.054l-0.545,0.11l-0.492,0.111
		l-0.438,0.053H17.02l-0.111-0.053l-0.111-0.111l-0.053-0.164l0,0l-0.217-0.545l-0.168-0.438l-0.164-0.274l-0.217-0.218l-0.164-0.11
		l-0.164-0.054h-0.381l0,0l-0.221,0.054l-0.164,0.11l-0.438,0.382l-0.435,0.491l-0.438,0.603l-0.492,0.604l-0.492,0.603
		l-0.549,0.545l-0.274,0.222l-0.328,0.217l0,0l-0.545,0.328l-0.385,0.218l-0.328,0.057l-0.271,0.054H9.578l-0.385,0.054L8.59,29.279
		l-0.82,0.328l0,0l-0.545,0.217l-0.496,0.382L6.183,30.59l-0.438,0.546l-0.438,0.549l-0.382,0.656l-0.274,0.71l-0.217,0.823l0,0
		l-0.217,0.71l-0.222,0.713l-0.11,0.763L3.83,36.774l0.053,0.767l0.164,0.709l0.274,0.824l0.439,0.763l0,0l0.381,0.66l0.496,0.492
		l0.435,0.492l0.549,0.381l0.492,0.328l0.603,0.328l0.656,0.222l0.656,0.164l0,0L9.41,43.01l0.385,0.168l0.709,0.492l0.767,0.545
		l0.767,0.656l0.767,0.767l0.767,0.877l1.529,1.751l0,0l0.332,0.274l0.328,0.271l0.328,0.222l0.382,0.164l0.713,0.271l0.599,0.164
		h0.549h0.217l0.164-0.107l0.11-0.057l0.054-0.107v-0.164l-0.054-0.164l0,0l-0.274-0.328l-0.271-0.274l-0.438-0.385l-0.164-0.164
		l-0.11-0.164v-0.271l0.11-0.274l0,0l0.053-0.164v-0.164l-0.11-0.164l-0.107-0.164l-0.385-0.274l-0.492-0.274l-0.492-0.275
		l-0.439-0.381l-0.164-0.164l-0.164-0.218l-0.054-0.221l-0.053-0.271l0,0l-0.057-0.496l-0.111-0.435l-0.164-0.386l-0.271-0.328
		l-0.328-0.328L14.01,42.19l-0.824-0.709l0,0l-0.435-0.275l-0.221-0.11l-0.274-0.054l-0.271-0.053H11.71l-0.713,0.053l0,0
		l-0.599,0.164l-0.603,0.111l-0.438,0.106H9.192V41.37l0,0l1.259-0.438l0.931-0.381l0.767-0.386l0.545-0.271l0.385-0.328
		l0.381-0.275l0.549-0.549l0,0l0.328-0.271l0.328-0.164l0.328-0.222l0.381-0.217l0.385-0.328l0.435-0.438l0.496-0.71l0.492-0.877
		l0,0l0.545-0.984l0.492-0.82l0.492-0.659l0.549-0.492l0.492-0.436l0.545-0.274l0.603-0.274l0.603-0.218l0,0l1.042-0.274
		l0.763-0.217l0.332-0.164l0.271-0.222l0.221-0.217l0.271-0.328l0,0l0.385-0.55l0.492-0.546l0.545-0.491l0.496-0.438l0.763-0.656
		l0.164-0.164l0.057-0.058l-0.057-0.053l0,0h-0.271h-0.275l-0.274,0.11l-0.328,0.106l-0.603,0.328l-0.545,0.328l-0.549,0.222
		l-0.217,0.053h-0.218l-0.164-0.053l-0.164-0.164l-0.111-0.275L23.419,27.307L23.419,27.307L23.419,27.307z M31.083,3.501
		L31.083,3.501v0.164L30.972,3.83l-0.11,0.11l-0.164,0.111l-0.492,0.164L29.66,4.268l0,0L29,4.215l-0.271-0.057l-0.222-0.107
		L28.344,3.94L28.18,3.83l-0.106-0.164V3.501l0,0V3.337l0.106-0.164l0.164-0.106l0.164-0.168l0.222-0.107L29,2.735l0.332-0.054
		l0.328-0.053l0,0l0.271,0.053l0.274,0.054l0.275,0.057l0.217,0.107l0.164,0.168l0.11,0.106l0.111,0.164V3.501L31.083,3.501
		L31.083,3.501z M29.66,2.079L29.66,2.079l-0.492,0.057l-0.496,0.054l-0.435,0.164l-0.386,0.164l-0.328,0.218l-0.217,0.221
		L27.143,3.23l-0.057,0.271l0,0l0.057,0.274l0.164,0.275l0.217,0.217l0.328,0.164l0.386,0.164l0.435,0.111l0.496,0.11h0.492l0,0
		h0.492l0.438-0.11l0.381-0.111l0.382-0.164l0.274-0.164l0.222-0.217l0.163-0.275l0.054-0.274l0,0L32.013,3.23L31.85,2.956
		l-0.222-0.221l-0.274-0.218l-0.382-0.164l-0.381-0.164l-0.438-0.054L29.66,2.079L29.66,2.079L29.66,2.079z M7.113,12.915
		L7.113,12.915L8.7,11l0.767-0.82l0.767-0.824l0.82-0.763l0.82-0.66l0.93-0.709l1.038-0.656l0,0l0.603-0.328l0.603-0.328
		l1.259-0.549l1.259-0.438l1.148-0.328l1.042-0.271l0.877-0.167l0.709-0.107l0,0l1.587-0.549l1.808-0.603l2.243-0.709l0,0
		l0.767-0.217l0.82-0.164l1.423-0.275l1.365-0.221l1.369-0.217l0,0l0.656-0.111l0.713-0.107l1.365-0.164l0.988-0.058h0.382l0,0
		l0.328-0.106l0.385-0.221l0.599-0.218l0,0l0.438-0.057L39.017,0h0.438l0.492,0.11l0.492,0.218l0.492,0.328l0.491,0.492l0.55,0.713
		l0,0l0.217,0.381l0.218,0.438l0.164,0.492l0.168,0.549l0.271,1.202l0.164,1.259l0.111,1.258l0.053,1.206l0.058,1.968l0,0
		l-0.058,1.423v1.258l0.058,1.259l0,0l0.053,0.221l0.218,0.599l0.222,0.385l0.217,0.274l0.274,0.271l0.328,0.221l0,0l0.656,0.328
		l0.492,0.328l0.386,0.382l0.327,0.385l0.164,0.381l0.054,0.385l-0.054,0.381l-0.11,0.328l0,0l-0.274,0.438l-0.271,0.274
		l-0.328,0.271l-0.386,0.164l-0.328,0.11l-0.274,0.054h-0.218l0,0l-0.11,0.164l-0.381,0.331l-0.328,0.218l-0.328,0.164l-0.438,0.218
		l-0.492,0.11l0,0l-3.776,0.492l-2.354,0.385l-1.041,0.218l-0.984,0.217l0,0l-0.767,0.275l-1.095,0.549l-1.365,0.763l-1.587,1.041
		l0,0l-0.931,0.768l-1.042,0.983l-0.603,0.604l-0.599,0.655l-0.66,0.82l-0.656,0.877l0,0l-0.271,0.275l-0.332,0.271l-0.381,0.221
		l-0.328,0.218l-0.656,0.218l-0.221,0.11l0,0l-0.107,0.164l-0.164,0.385l-0.164,0.656l-0.057,0.328v0.438l0,0v0.931l-0.107,0.927
		l-0.168,0.824l-0.217,0.763l-0.492,1.423l-0.274,0.713l-0.164,0.71l0,0l-0.054,0.222l-0.057,0.164l-0.106,0.163l-0.111,0.054
		l-0.111,0.058h-0.106l-0.275-0.111l-0.328-0.217l-0.328-0.332l-0.328-0.381l-0.275-0.493l0,0l-0.328-0.491l-0.218-0.492
		L17.95,37.43l-0.222-0.603l-0.053-0.218l0,0l-0.385,0.545l-0.435,0.603l-0.439,0.55l0,0l-0.274,0.271l-0.217,0.222l-0.492,0.327
		l-0.332,0.164h-0.106l0,0l0.274,0.439l0.217,0.492l0.275,0.709l0,0l0.106,0.274l0.164,0.275l0.439,0.491l0.492,0.546l0.603,0.438
		l0.984,0.767l0.438,0.274l0,0h1.095h0.984l0.438,0.054l0.328,0.054l0,0l0.328,0.11l0.328,0.164l0.385,0.222l0.328,0.327
		l0.275,0.382l0.217,0.438l0.053,0.274l0.058,0.271v0.328l-0.058,0.328l0,0l-0.164,1.479l-0.053,1.259v0.546l0.053,0.438
		l0.058,0.438l0.106,0.328l0,0l0.111,0.217l0.11,0.164l0.271,0.328l0.328,0.328l0.168,0.274l0.164,0.328l0,0l0.054,0.492v0.714
		v0.983l0.053,1.148l0,0l0.057,0.603l-0.057,0.549l-0.164,0.382l-0.217,0.385l-0.549,0.764l-0.271,0.385l-0.222,0.438l0,0
		l-0.106,0.218l-0.168,0.274l-0.435,0.435l-0.549,0.386l-0.546,0.381l-0.603,0.275l-0.545,0.217l-0.438,0.111l-0.164,0.057
		l-0.111-0.057l0,0l-0.164-0.054l-0.165-0.164l-0.385-0.55l-0.492-0.819l-0.492-1.037L17.729,58.5l-0.438-1.094l-0.381-1.095
		l-0.164-0.932l0,0l-0.274-1.258l-0.275-1.095l-0.271-1.042l0,0l-0.549-0.656l-1.259-1.422l-0.767-0.82l-0.709-0.714l-0.656-0.545
		l-0.328-0.218l-0.221-0.11l0,0l-1.148-0.492l-0.656-0.328l-0.328-0.221l-0.11-0.054l0,0v0.382l-0.164,0.877l-0.164,0.603
		L8.7,48.869l-0.274,0.656l-0.328,0.603l0,0l-0.164,0.218l-0.217,0.217l-0.164,0.111l-0.164,0.11l-0.164,0.054H7.06l-0.167-0.054
		l-0.164-0.11l-0.218-0.275l-0.217-0.381l-0.164-0.549l-0.11-0.657l0,0l-0.111-1.476l-0.053-1.587v-1.751l0,0L5.58,43.723
		l-0.603-0.819l-0.82-1.096l-0.381-0.655l-0.328-0.656l0,0l-0.439-0.931l-0.381-1.042l-0.385-1.147l-0.381-1.48l0,0L1.75,34.531
		l-0.11-1.259v-1.369l0.057-1.64l0,0l0.107-0.984l0.11-0.931l0.275-1.645l0.106-0.767l0.058-0.763l-0.058-0.767l-0.106-0.824l0,0
		l-0.164-0.381l-0.164-0.382l-0.439-0.66l-0.82-1.091l0,0l-0.221-0.331l-0.217-0.382l-0.111-0.438L0,19.479v-0.381l0.11-0.381
		l0.054-0.164l0.11-0.11l0.164-0.111l0.164-0.107l0,0l0.545-0.274l0.328-0.221l0.274-0.271l0.164-0.221l0.217-0.164l0.222-0.164
		l0.381-0.164l0.549-0.11l0,0l0.381-0.107l0.328-0.111l0.275-0.164l0.328-0.328l0.438-0.439l0.492-0.603L7.113,12.915L7.113,12.915
		L7.113,12.915z"/>
</g>
</svg>
