<?xml version="1.0" encoding="utf-8"?>
<!-- Generator: Adobe Illustrator 16.0.0, SVG Export Plug-In . SVG Version: 6.00 Build 0)  -->
<!DOCTYPE svg PUBLIC "-//W3C//DTD SVG 1.1//EN" "http://www.w3.org/Graphics/SVG/1.1/DTD/svg11.dtd">
<svg version="1.1" id="Layer_1" xmlns="http://www.w3.org/2000/svg" xmlns:xlink="http://www.w3.org/1999/xlink" x="0px" y="0px"
	 width="100.355px" height="99.352px" viewBox="0 0 100.355 99.352" enable-background="new 0 0 100.355 99.352"
	 xml:space="preserve">
<path fill-rule="evenodd" clip-rule="evenodd" fill="#2E3191" d="M74.603,22.272c-1.919,5.402-10.846,3.09-13.395,0.74
	c-3.998-3.678-1.156-14.467-5.097-19.724c-2.212-2.953-8.98-4.967-14.581-1.335c-4.273-1-11.979,3.357-10.171,6.905
	c4.041-1.396,9.507-1.648,10.831,3.235c2.995,11.025-10.735,17.9-16.439,10.179c8.908-6.127-2.594-14.131-11.884-9.98
	c-20.224,9.026-15.928,45.171-2.396,60.469c3.365-3.35,6.348-6.89,8.809-10.682c2.728,4.883-7.042,14.497-4.631,16.474
	c5.498,0.107,11.812-10.164,17.954-18.206c0.324,6.15-3.514,13.856-11.918,23.272c9.877,8.256,19.491,12.262,28.46,15.733h0.069
	c8.965-3.472,18.583-7.478,28.457-15.733c-8.405-9.416-12.239-17.122-11.919-23.272c6.146,8.042,12.46,18.312,17.954,18.206
	c2.415-1.977-7.359-11.59-4.628-16.474c2.461,3.792,5.444,7.333,8.81,10.682c13.532-15.298,17.824-51.443-2.396-60.469
	C77.205,8.141,65.694,16.145,74.603,22.272L74.603,22.272z"/>
</svg>
