<?xml version="1.0" encoding="utf-8"?>
<!-- Generator: Adobe Illustrator 16.0.0, SVG Export Plug-In . SVG Version: 6.00 Build 0)  -->
<!DOCTYPE svg PUBLIC "-//W3C//DTD SVG 1.1//EN" "http://www.w3.org/Graphics/SVG/1.1/DTD/svg11.dtd">
<svg version="1.1" id="Layer_1" xmlns="http://www.w3.org/2000/svg" xmlns:xlink="http://www.w3.org/1999/xlink" x="0px" y="0px"
	 width="97.688px" height="101.193px" viewBox="0 0 97.688 101.193" enable-background="new 0 0 97.688 101.193"
	 xml:space="preserve">
<g>
	<path fill="#FFFFFF" d="M45.109,101.193l-5.672-0.587c-3.86-0.396-6.252-2.806-7.681-4.243c-0.255-0.255-0.49-0.523-0.756-0.729
		c-3.908-2.905-4.823-6.825-5.312-9.355C18.115,80.65,12.697,73.485,9.524,64.912c-2.305-0.603-4.18-1.82-5.249-2.638l-1.047-0.798
		l-0.666-1.142c-4.096-7.026-2.383-15.014-0.999-19.148c0.881-3.37,2.882-6.746,5.924-9.922c-0.042-0.611-0.031-1.165-0.005-1.622
		l-1.362-1.389l0.668-3.439c0.145-0.749,0.387-1.358,0.626-1.854l-0.05-0.22c-0.556-2.525,0.211-5.386,2.511-7.211l-1.033-3.685
		l4.131-0.97l-0.756-3.908h7.37c1.213-1.138,3.071-2.422,5.76-2.571l5.178-2.858l1.355-1.187l0.276,0.283L33.311,0l0.878,2.714
		l1.324,1.352c0.068,0.015,0.137,0.028,0.208,0.044c0.046,0.01,0.095,0.02,0.142,0.029c0.856-0.339,1.833-0.773,2.738-1.176
		c1.375-0.613,2.711-1.198,3.864-1.606l1.084-0.388l1.404-0.036c6.296,0,10.377,4.024,20.573,40.807
		c5.204,18.777,9.59,37.888,10.115,40.638l0.933,4.864l-4.388,2.305c-7.556,3.954-17.292,5.07-25.1,2.889
		c-0.06,1.047-0.218,2.129-0.515,3.243L45.109,101.193z M39.327,75.217c2.55,0,4.736,1.023,6.541,2.026l0.622,0.392
		c3.017,2.14,6.649,2.59,9.168,2.59c1.918,0,3.86-0.256,5.723-0.734c-3.65-16.12-13.162-52.742-18.408-63.866
		c-1.72,0.756-3.477,1.48-5.227,1.928l-1.999,0.512l-1.94-0.708c-0.245-0.081-0.536-0.127-0.825-0.187
		c-0.015-0.005-0.028-0.007-0.044-0.01l-0.436,0.382l-2.28-0.59l-2.499,1.38L27.22,18.2c-0.485,0.413-1.045,0.829-1.706,1.201
		c-0.938,1.188-1.979,1.987-2.983,2.535c-0.421,0.67-0.844,1.169-1.107,1.479l-0.337,0.628c-0.083,0.619-0.23,1.271-0.45,1.958
		c0.245,1.064,0.286,2.046,0.267,2.841l5.511,4.051l-6.874,5.427c-2.833,2.239-4.632,4.551-5.197,6.689
		c-0.878,2.657-1.153,5.02-0.861,6.79l0.427,0.107l5.38-1.39l1.695,6.415c2.131,8.061,6.567,14.373,13.552,19.271l2.391-0.666
		C37.695,75.325,38.505,75.217,39.327,75.217z"/>
	<g>
		<path d="M93.156,30.75c-3.812,0.335-4.898,5.001-7.404,7.557c-3.156,2.554-6.533,4.775-10.237,6
			c-2.178,4.887-8.168,7.666-11.868,11.11c5.335,3.445,2.395,11.774,1.852,17.108l-5.335,0.444c3.156,3.773,7.84,4.997,8.927,10.664
			c-7.84,4.11-18.944,4.776-26.461-0.559c-1.199-0.665-2.721-1.438-3.92-1.105c0.436,3.998,2.506,7.885,1.415,12
			c-2.179-0.226-3.484-2.446-5.114-3.671c-2.834-2.108-2.506-5.222-3.377-7.996c-8.823-5.893-14.485-13.78-17.099-23.667
			c-0.437,0.113-0.979-0.106-1.194,0l-0.44-0.106c-1.414,0.333-3.264-0.558-4.57-1.556c-2.398-4.111-1.851-9.448-0.437-13.669
			c1.086-4.11,4.135-7.554,7.512-10.221c-2.721-2,0.112-4.778-2.064-7c0.106-0.556,2.178-3.109,0.543-4.775
			c-0.22-1.001,1.199-0.666,1.742-1.222c0.543-1.11,1.958-1.778,1.521-3.335c1.419-0.333,2.397-0.442,3.27-1.667l0.107-0.333
			l-0.215-1.11h0.323c-0.108,0.333,0.763,0,0.983,0.223c2.393-0.778,2.284-3.445,5.227-2.667l2.613-1.443
			c0.215,0.666,0.871,0.333,1.307,0.445l0.764-0.668c0.979,1,3.05,1,4.57,1.556c2.613-0.668,4.904-2.222,7.517-3.109
			c6.421-1.89,12.954-3.556,19.928-3.778l0,0c5.77-1.333,11.432,1.777,16.223,1.444c3.049,3.444,0.437,8.554,0.871,13.333
			c0.221,2.887,1.415,5.665,3.377,7.664c2.834-0.556,5.334-0.11,7.947-2.223c2.834-0.775,3.705-0.775,4.468,1.446
			C96.098,28.751,94.683,29.639,93.156,30.75L93.156,30.75z"/>
		<path d="M41.047,95.311l-1.052-0.107c-1.932-0.2-3.232-1.512-4.383-2.672c-0.442-0.445-0.878-0.891-1.348-1.243
			c-2.438-1.814-2.904-4.267-3.312-6.425c-0.113-0.598-0.226-1.199-0.383-1.781c-8.51-5.8-14.216-13.591-16.974-23.188l-0.11,0.055
			l-0.624-0.152c-2.062,0.279-4.468-1.209-5.284-1.84l-0.318-0.361c-2.205-3.778-2.4-9.13-0.541-14.685
			c0.913-3.46,3.228-6.817,6.866-9.932c-0.827-1.222-0.719-2.555-0.634-3.598c0.093-1.169,0.114-1.808-0.494-2.432L12,26.485
			l0.123-0.637c0.061-0.307,0.208-0.58,0.413-0.961c0.683-1.271,0.999-2.166,0.463-2.714l-0.25-0.252l-0.076-0.348
			c-0.181-0.822-0.021-1.892,1.781-2.317c0.075-0.017,0.174-0.042,0.252-0.062c0.212-0.34,0.46-0.631,0.685-0.896
			c0.585-0.685,0.663-0.854,0.563-1.214l-0.348-1.243l1.668-0.389c1.058-0.24,1.527-0.367,1.955-0.861l-0.423-2.188h3.002
			c0.345-0.232,0.624-0.546,0.93-0.888c0.742-0.827,1.901-1.955,3.91-1.627l3.52-1.942l0.287,0.878l1.135-0.996l0.82,0.837
			c0.368,0.379,1.297,0.575,2.194,0.761c0.52,0.11,1.04,0.224,1.524,0.37C37.348,9.44,38.52,8.88,39.755,8.29
			c1.099-0.525,2.237-1.068,3.458-1.484c7.331-2.159,13.558-3.63,20.287-3.845c0.827-0.216,1.921-0.333,3.109-0.333
			c2.417,0,4.724,0.499,6.949,0.981c2.204,0.479,4.245,0.954,6.117,0.797l0.609-0.042l0.402,0.458
			c2.339,2.643,1.896,5.965,1.472,9.178c-0.217,1.623-0.437,3.301-0.294,4.862c0.184,2.415,1.12,4.722,2.599,6.442
			c0.575-0.089,1.138-0.146,1.693-0.203c1.829-0.187,3.412-0.349,5.021-1.646l0.451-0.231c1.157-0.316,2.022-0.515,2.767-0.515
			c1.997,0,2.762,1.472,3.198,2.753l0.094,0.265l-0.032,0.275c-0.373,3.291-2.062,4.513-3.556,5.591l-0.275,0.198l-0.562,0.191
			c-1.918,0.169-3.005,1.916-4.263,3.938c-0.704,1.128-1.432,2.297-2.365,3.25c-3.759,3.052-6.996,4.987-10.229,6.135
			c-1.681,3.337-4.856,5.646-7.933,7.884c-1.021,0.744-2.007,1.463-2.896,2.188c3.475,3.416,2.483,9.143,1.674,13.825
			c-0.213,1.229-0.416,2.397-0.523,3.45l-0.103,1.021l-3.695,0.31c0.512,0.436,1.035,0.847,1.549,1.258
			c2.471,1.952,5.021,3.969,5.826,8.157l0.174,0.904l-0.813,0.427c-4.188,2.196-9.161,3.405-14.006,3.405
			c-5.262,0-10.014-1.398-13.747-4.052c-0.341-0.182-1.058-0.577-1.747-0.798c0.156,0.798,0.359,1.605,0.569,2.441
			c0.681,2.722,1.386,5.534,0.585,8.56L41.047,95.311z M15.167,57.101l0.562,1.219c2.53,9.572,8.111,17.294,16.59,22.956l0.362,0.24
			l0.132,0.416c0.252,0.808,0.414,1.64,0.57,2.467c0.372,1.967,0.692,3.665,2.364,4.908c0.562,0.426,1.091,0.948,1.622,1.481
			c0.6,0.603,1.177,1.186,1.789,1.558c0.188-1.969-0.309-3.944-0.827-6.016c-0.344-1.365-0.695-2.779-0.854-4.229l-0.113-1.042
			l1.014-0.284c1.473-0.416,3.275,0.348,4.852,1.219c3.426,2.423,7.684,3.665,12.429,3.665c4.122,0,8.346-0.954,11.997-2.691
			c-0.798-2.69-2.626-4.14-4.711-5.783c-1.268-1.003-2.575-2.036-3.73-3.421l-1.529-1.83l6.707-0.559
			c0.115-0.821,0.266-1.692,0.421-2.594c0.812-4.698,1.732-10.018-1.835-12.327l-1.336-0.861l1.162-1.081
			c1.253-1.165,2.691-2.213,4.216-3.323c2.963-2.153,6.027-4.382,7.365-7.388l0.223-0.499l0.52-0.171
			c3.109-1.027,6.239-2.864,9.849-5.786c0.639-0.663,1.263-1.669,1.926-2.73c1.352-2.173,2.875-4.623,5.792-5.055
			c1.375-1.001,2.19-1.688,2.47-3.559c-0.312-0.814-0.497-0.814-0.765-0.814c-0.423,0-1.057,0.142-1.871,0.359
			c-2.106,1.61-4.143,1.818-6.114,2.02c-0.702,0.073-1.422,0.144-2.163,0.289l-0.653,0.129l-0.468-0.478
			c-2.123-2.163-3.483-5.238-3.728-8.437c-0.166-1.818,0.074-3.636,0.308-5.39c0.354-2.678,0.665-5.02-0.526-6.773
			c-2.038-0.039-4.008-0.414-6.145-0.876c-3.078-0.668-6.442-1.265-9.218-0.624c-6.706,0.236-12.76,1.669-19.857,3.757
			c-1.035,0.354-2.056,0.842-3.141,1.36c-1.396,0.668-2.841,1.357-4.421,1.762l-0.369,0.096l-0.359-0.132
			c-0.485-0.176-1.033-0.286-1.574-0.398c-0.855-0.182-1.731-0.364-2.488-0.751l-0.525,0.462l-0.663-0.164l-0.306,0.026
			c-0.333,0-0.609-0.062-0.838-0.158l-2.272,1.255l-0.479-0.127c-0.865-0.229-1.068-0.203-1.938,0.769
			c-0.58,0.65-1.299,1.46-2.591,1.879L21.7,15.139l-0.277,0.662c-0.891,1.254-1.906,1.649-2.983,1.918
			c-0.132,0.975-0.729,1.675-1.165,2.186c-0.223,0.26-0.433,0.507-0.541,0.725l-0.225,0.323c-0.309,0.313-0.67,0.479-1.006,0.587
			c0.678,1.646-0.21,3.438-0.714,4.382c0.818,1.272,0.709,2.628,0.626,3.661c-0.105,1.292-0.115,1.89,0.722,2.503l1.309,0.962
			l-1.274,1.009c-3.82,3.017-6.203,6.234-7.083,9.564c-0.783,2.347-2.264,8.053,0.186,12.517c1.229,0.886,2.577,1.354,3.34,1.188
			l0.289-0.069l0.492,0.118l0.117-0.006c0.132,0,0.291,0.016,0.462,0.04L15.167,57.101z"/>
	</g>
	<g>
		<path fill="#22945F" d="M91.199,29.975c-0.437,0-0.871-0.113-0.984,0.333c-2.285-1.779-3.156,2.222-5.228,2.108
			c-1.634,0.556-3.155,1.557-5.006,1.557c-4.468,2.667-8.932,4.999-14.05,5.776c0.327,0.113,0.543-0.109,0.763-0.223
			c-1.091-0.22-2.833-0.333-4.026,0.113l0.871,1.442l-0.328,0.333c0.871,0.445,1.958-0.442,3.049-0.556
			c1.635-0.555,3.593-0.11,5.335-0.11c4.903-4.221,11.651-3.109,16.12-8.222c-1.635,2.667-3.705,5.777-6.318,7.221l0.216-0.109
			l0.327,0.333l-0.215,0.223l-0.328-0.445c-2.285,1.225-4.354,2.891-6.86,3.556c0.655-2.332,3.265-1.443,4.141-2.888
			c-0.436-0.668-1.307-0.335-1.963-0.444l-0.327,0.333c-0.979-0.666-2.07,0.777-3.157,1.223c-2.505,0.333-4.463,0.221-6.641,0.333
			c-1.854,2.555-4.575,4.556-7.625,4.443c1.962-0.333,3.812-2.555,6.206-2.777c0-0.445,0.112-0.888-0.323-1
			c-0.655,0-1.419,1.111-2.07,0.223c-0.979,0-1.85-0.109-2.939-0.555c-1.308-0.778-1.199-2.667-2.614-2.777
			c-0.979,2.556-4.791,0.445-7.076,1.333c-4.14-2.89-6.317-7.556-7.082-12.222l0.328,0.335c1.091-1.333,0.871-3.778,0.543-5.444
			c0.328,0.11,0.437-0.111,0.656-0.333c0-0.335,0.107-0.777-0.221-1.001l0.655-0.668c-0.221-0.22-0.436-0.333-0.327-0.666
			l0.327-0.333c0.216,0.445,0.65,0.333,0.979,0.333c0.106-0.777,0.436-1.889,0.543-3c-0.107,1.89-0.65,4.557,1.419,5.112
			c-2.178,3.998-0.871,9.11-0.548,13.331c1.635,1.556,1.199,5.555,4.468,4l0.758-1c0.113-0.666-0.322,0.888,0.221,1
			c0.436-0.112,1.086,0.333,1.415-0.223c-0.871-3.778-5.556-6.11-5.662-10.221c-1.522,3.11,0.871,5.555,1.414,8.332
			c-2.065-3.444-2.5-8.776-1.521-12.774v-0.335h0.328c-1.199,4.557,2.829,7.999,4.897,11.557c1.308,0.666,3.157,1.111,4.685,0.556
			c0.106-0.335-0.108-0.556-0.328-0.668c-0.107-1.442-1.962-0.333-2.613-1.221c-1.741,0.333-2.505-1.889-3.592-3.223l-0.548-1.444
			c1.199-0.555,2.726,0.999,3.269,2.222c-0.106,0.666,0.543,1.001,0.871,1.444c0.437,0,0.871,0.11,0.979-0.333
			c-1.522-5.444-10.233-4.999-6.749-12.222v-0.666c0.323,0,0.758,0.109,1.086-0.333c-1.086-0.778-0.328-2.223-0.979-3.113
			L48.839,19.2c-0.113-0.445,0.323-1.113-0.328-1.336c1.742-0.22,0.328-1.331,0.763-2.442c0.323,0.11,0.543-0.112,0.651-0.223
			c-0.651-0.668,0.22-1.889-0.543-2.445c-0.108,0.224-0.437,0.333-0.328,0.666l-0.651-0.109c0.979,0,0.979-1.001,1.415-1.557
			c0.764,1.667-0.979,6.333,2.07,6.223c0.215-1.333-1.527-2.777,0.107-3.778c0.764,0-0.107,1.556,0.979,1.444
			c0.107-1.89,1.199-2.109,2.505-3.333c0.437,0,0.871,0.891,1.308,0.112l0.107-1c2.07,2.223,0.656-1.889,2.07-2.332
			c2.505-3.111,4.576,2.223,7.405-0.335c-1.958,1.446,2.721,3,0.106,4.779c-1.087,1.221-1.958,2.222-3.483,2.555
			c2.178-1.001,3.377-3.109,2.94-5.667l-0.65-0.666c-0.221,0.11-0.437,0.333-0.328,0.556c-0.655-0.224-1.092-1-1.962-0.666
			l-0.76,0.556c0.979,0.333,1.958,0.888,2.613,1.886c0.437,1.334-1.199,1.779-1.854,2.667c-0.979,0.112-1.631-0.333-2.179-1.11
			c-1.521-1.558,3.377-4.333-0.216-3.778l-0.979-1.111c-0.764,1.333-1.527,3.113-0.876,4.779h0.327
			c-0.436,0.22-0.327,0.556-0.327,0.999c-1.303-0.333-0.107-3.888-1.629-1.777c-0.984,1.777,1.741,2.223,1.521,3.778
			c1.091,0.555,3.161,0.443,2.178,2.555c-0.216-0.556-0.543-1.334-1.193-1.443c-0.221,0.22-0.437,0.333-0.437,0.666
			c-0.328-0.224-0.439-0.889-0.982-0.778c-0.76,0.778,0.436,1.669,0.655,2.444c0.437-0.11,1.086,0.333,1.307-0.224
			c-0.655-0.998,0.328,0.892,0.979,0.335v0.333c-0.216-0.445-0.65-0.333-0.979-0.333c-1.092,0.443,0.436,0.889-0.107,1.667
			l0.651,0.666c-0.979,0.668,0.106,1.444,0.22,2.112l-0.22-0.223l0.327-0.333L61.25,24.2l-0.323,0.333l0.651,0.665
			c1.197-2.554,0.543-6.888,3.812-9l2.07-1.999c-1.419,3.888-3.812,7.221-3.598,11.887l0.765,5.444
			c-1.415,0.112-3.049,0.778-3.7,2.224c-0.112,1.887-0.655,3.998,1.414,5.22c0.764-1.667-1.414-4.667,0.871-5.777
			c1.199,0.445,3.049,0.891,4.028-0.223c-1.308-1.331-1.636-2.997-1.742-4.776c0.763-1.889,2.833-2.111,4.14-3.223
			c-1.419-2.665-0.871-5.997-1.307-8.997c1.414-0.224,0.328-2.225,1.193-3c-0.216-0.224-0.322-0.445-0.65-0.335L68.111,13.2
			c0.327-1.113,1.742-2.334,0.871-3.667c-0.322-1.111-1.415-0.333-1.958-1.111l0.323-0.333l-4.679-0.556
			c1.087-0.333,2.064-0.778,3.372-0.555c0.548,1.221,1.962,0,3.049,0.442c-1.63,0.559-0.107,2.444,0.871,2.78
			c0.328,0,0.436,0.22,0.655,0.443c0.436-1.222,1.741-2.777,3.156-3c-1.415,3-5.227,4.556-4.464,8.667
			c1.415,3.223-0.649,7.775,1.199,10.666c-1.635,2.332,0.436,7.889-3.92,7.331c-0.655,1.556,0.759,2.334,1.087,3.556
			c5.882-1.221,7.188-3.11,12.631-4.889c1.634-0.443,2.727-2.223,4.468-2.223l-0.328,0.335l0.651,0.666
			c2.618-2.332,6.317-3,9.259-5.332C95.118,28.751,92.393,29.196,91.199,29.975L91.199,29.975z"/>
		<path fill="#22945F" d="M59.208,47.548l-0.291-0.005l-0.162-2.459c0.653-0.109,1.419-0.587,2.229-1.094
			c0.063-0.042,0.13-0.081,0.198-0.123c-0.614-0.103-1.193-0.274-1.814-0.528c-1.053-0.608-1.483-1.427-1.797-2.023
			c-0.026-0.049-0.054-0.104-0.086-0.159c-0.938,0.795-2.524,0.881-4.32,0.702c-0.973-0.093-2.021-0.162-2.572,0.044l-0.614,0.24
			l-0.543-0.377c-3.974-2.774-6.673-7.406-7.593-13.037l0.854-0.434l-0.262-0.215c0.583-0.714,0.69-2.366,0.287-4.421l-0.411-2.092
			l0.626,0.213l0.528-0.539c-0.056-0.25-0.051-0.538,0.057-0.871l0.296-0.487l1.375-1.396c0.053-0.279,0.097-0.568,0.123-0.854
			l2.47,0.191l-0.062,0.814c-0.002,0.021-0.002,0.047-0.005,0.07c0.085,0.122,0.228,0.268,0.392,0.325l0.027-0.25l-0.365-0.213
			l0.467-0.797l0.118-1.142c-0.007,0.039-0.208,0.37-0.186,0.596c-0.181-0.744-0.362-1.461-0.049-2.262l0.167-0.423l-0.09-0.015
			l0.07-0.856L47.877,13.8c-0.201-0.622-0.044-1.195,0.462-1.715c-0.073-0.005-0.018-0.137,0.021-0.229
			c0.112-0.255,0.25-0.57,0.482-0.866l0.142-0.238l0.027,0.022l1.084-1.382l0.846,1.845c0.261,0.567,0.326,1.232,0.331,1.952
			c0.024-0.018,0.049-0.032,0.076-0.046l0.296-0.184h0.351c0.14,0,0.4,0.021,0.673,0.143c0.342-0.395,0.733-0.697,1.104-0.983
			c0.266-0.206,0.557-0.429,0.859-0.712l0.356-0.335h0.489c0.071,0,0.141,0.005,0.206,0.015l0.268-2.49l1.147,1.229
			c0.137-0.673,0.423-1.37,1.104-1.75c0.245-0.271,0.501-0.499,0.768-0.683l0.433-0.756l0.328,0.371
			c0.874-0.312,1.857-0.111,2.655,0.245l-0.081-0.904l0.492-0.157c0.949-0.312,2.061-0.67,3.45-0.437l0.649,0.113l0.188,0.416
			c0.106-0.017,0.218-0.042,0.33-0.063c0.738-0.145,1.52-0.2,2.141,0.054l-0.023,0.827l0.444,0.052l-0.46,0.475l-0.015,0.489
			c0.184,0.157,0.37,0.372,0.517,0.673c0.042,0.035,0.081,0.069,0.117,0.1c0.801-1.189,2.053-2.251,3.443-2.473l2.31-0.361
			L74.893,8.17c-0.575,1.214-1.434,2.168-2.269,3.091c-1.539,1.705-2.464,2.852-2.1,4.823c0.702,1.521,0.587,3.504,0.476,5.425
			c-0.073,1.263-0.146,2.475,0.056,3.497l0.144,0.268l-0.066,0.056c0.096,0.357,0.229,0.686,0.418,0.979l0.448,0.699l-0.479,0.679
			c-0.399,0.574-0.491,1.69-0.579,2.771c-0.156,1.901-0.385,4.71-3.132,5.084c0.068,0.127,0.166,0.279,0.293,0.473
			c0.088,0.135,0.183,0.273,0.271,0.423c2.643-0.637,4.226-1.419,6.028-2.312c1.537-0.761,3.127-1.546,5.519-2.329
			c0.549-0.148,1.048-0.514,1.573-0.899c0.886-0.648,1.89-1.383,3.278-1.383h1.292c1.032-0.632,2.124-1.136,3.193-1.63
			c1.556-0.722,3.023-1.399,4.328-2.432l1.393-1.105l0.554,1.69c0.933,2.852-1.604,4.003-2.821,4.558
			c-0.312,0.143-0.609,0.27-0.837,0.419l-0.31,0.2h-0.303l-0.311,1.236l-1.498-1.165c-0.198-0.154-0.323-0.195-0.364-0.195
			c-0.198,0-0.729,0.559-1.016,0.856c-0.131,0.137-0.266,0.279-0.409,0.421l1.104,0.81c-1.522,2.488-3.205,4.966-5.258,6.63
			l0.159,0.16l-2.073,2.145l-0.548-0.741c-0.369,0.218-0.733,0.443-1.102,0.668c-1.57,0.964-3.194,1.962-5.095,2.466l-2.097,0.556
			l0.587-2.087c0.021-0.073,0.044-0.146,0.066-0.219l-0.019,0.002c-1.731,0.23-3.205,0.258-4.629,0.281
			c-0.512,0.01-1.021,0.018-1.539,0.037c-0.37,0.468-0.764,0.913-1.183,1.332l-0.002,0.002c-0.003,0.002-0.005,0.005-0.009,0.007
			l-2.104,2.092v-0.4C62.426,47.054,60.825,47.548,59.208,47.548z M58.242,38.426c0.812,0.396,1.223,1.176,1.52,1.735
			c0.225,0.428,0.421,0.8,0.708,0.969c0.342,0.135,0.675,0.226,1.008,0.284l0.507-0.514L61.3,39.77
			c-0.993-0.723-1.45-1.625-1.639-2.556c-0.016,0.083-0.035,0.166-0.062,0.25l-0.186,0.578l-0.57,0.205
			C58.648,38.318,58.447,38.379,58.242,38.426z M78.177,38.781c0.387,0.056,0.883,0.215,1.289,0.648
			c0.443-0.265,0.886-0.524,1.339-0.767c0.606-0.337,1.188-0.78,1.744-1.304c-1.013,0.382-2.038,0.698-3.054,1.011
			C79.05,38.504,78.612,38.641,78.177,38.781z M49.942,38.348c0.237,0.569,0.445,0.961,0.651,0.961c0.081,0,0.237-0.018,0.504-0.12
			l0.34-0.45l0.112-0.742l0.382-0.071c-0.311-0.433-0.656-0.863-1.015-1.299c0.134,0.395,0.249,0.798,0.33,1.218L49.942,38.348z
			 M64.721,38.096c0.583,0,1.197,0.049,1.771,0.139l-0.016-0.054c-0.061-0.23-0.244-0.51-0.439-0.803
			c-0.387-0.587-0.928-1.401-0.854-2.479c-0.533-0.027-1.116-0.134-1.734-0.321c-0.128,0.257-0.099,0.726,0.094,1.765
			c0.104,0.572,0.215,1.189,0.205,1.802C64.056,38.113,64.379,38.096,64.721,38.096z M59.218,35.734
			c0.14,0.15,0.252,0.32,0.331,0.501c-0.024-0.629,0.032-1.246,0.081-1.796l0.169-1.197c0.671-1.49,2.061-2.336,3.438-2.718
			l-0.599-4.271c-0.005-0.125-0.011-0.252-0.013-0.376l-0.687,1.458l-2.973-3.026l0.345-0.353c-0.208-0.545-0.24-0.994-0.164-1.363
			l-0.694-0.71l0.356-0.509c-0.013-0.02-0.023-0.039-0.034-0.059l-0.772,0.192l-0.338-1.198c-0.027-0.078-0.169-0.296-0.263-0.438
			c-0.389-0.589-1.297-1.97-0.088-3.208l0.096-0.309c-0.032-0.11-0.33-0.401-0.51-0.572c-0.398-0.39-1.082-1.05-1.219-1.97
			c-0.015-0.005-0.027-0.013-0.039-0.018c-0.123,0.097-0.242,0.188-0.356,0.276c-0.791,0.612-1.028,0.795-1.077,1.637l-0.06,1.052
			l-1.05,0.107c-0.023,0-0.062-0.005-0.073,0c0.102,0.399,0.157,0.834,0.081,1.302l-0.162,1.003l-1.016,0.037
			c-0.167-0.106-0.377-0.012-0.543-0.032c0.021,0.299,0.054,0.401,0.13,0.455l1.021,0.732l-0.746,1.01
			c-0.188,0.254-0.485,0.541-0.923,0.705l-0.044,0.096c-0.284,0.585-0.476,1.1-0.586,1.557h0.203l-0.306,1.165
			c0.135,1.385,1.299,2.196,2.956,3.35c1.793,1.246,3.824,2.66,4.556,5.281l0.088,0.311l-0.075,0.313
			c-0.018,0.062-0.044,0.156-0.089,0.264C58.193,34.525,58.934,34.836,59.218,35.734z M80.34,35.201
			c-0.385,0.229-0.77,0.452-1.146,0.67c1.001-0.308,1.979-0.621,2.919-1C81.558,35.04,80.969,35.164,80.34,35.201z M44.498,29.453
			c0.328,1.517,0.805,2.938,1.415,4.238c-0.005-0.024-0.009-0.049-0.011-0.074c-0.395-3.284-0.832-6.961,0.452-10.218
			c-0.203-0.174-0.372-0.369-0.514-0.582c-0.002,0.051-0.005,0.095-0.007,0.137l-0.027,0.47l-0.34,0.539
			c-0.047,0.049-0.098,0.108-0.159,0.167C45.555,25.917,45.528,28.017,44.498,29.453z M66.755,28.431
			c0.1,1.322,0.369,2.656,1.367,3.675l0.091,0.093c0.11-0.428,0.188-1.047,0.259-1.943c0.094-1.131,0.188-2.291,0.627-3.283
			c-0.021-0.05-0.047-0.102-0.065-0.149c-0.143,0.073-0.281,0.145-0.418,0.213C67.699,27.498,67.09,27.831,66.755,28.431z
			 M67.261,17.848c-1.187,2.623-2.305,5.102-2.163,8.18l0.06,0.406c0.697-0.775,1.58-1.225,2.34-1.607
			c0.203-0.101,0.4-0.201,0.587-0.304c-0.646-1.747-0.709-3.614-0.773-5.431C67.295,18.677,67.283,18.26,67.261,17.848z
			 M47.661,19.504c-0.068,1.356,0.054,2.013,0.626,2.163l0.046,0.014c0.042-0.104,0.088-0.208,0.137-0.316v-1.627h0.487
			c-0.002-0.015-0.005-0.031-0.005-0.049L47.661,19.504z M62.38,17.402v0.362c0.189-0.372,0.413-0.732,0.672-1.072l-0.229-0.689
			L62.7,16.008c-1.084,0-1.979-0.468-2.73-1.427v1.113c0.748,0.228,1.717,0.556,2.15,1.521c0.044,0.101,0.083,0.206,0.111,0.313
			L62.38,17.402z M62.509,11.649c-0.034,0.052-0.07,0.103-0.107,0.151c-0.205,0.289-0.639,0.889-0.652,1.121
			c0.317,0.383,0.538,0.526,0.717,0.58c0.206-0.188,0.421-0.353,0.622-0.504c0.168-0.132,0.436-0.335,0.553-0.468
			C63.354,12.177,62.979,11.887,62.509,11.649z"/>
	</g>
	<polygon points="89.344,26.862 91.742,25.641 89.672,26.862 	"/>
	<polygon points="84.445,30.084 85.532,29.752 85.532,30.084 	"/>
	<path fill="#FFFFFF" d="M75.406,29.639l0.436-0.333l-0.327-0.333c0.983-0.333,3.376-0.668,4.355,0.556
		c1.741-0.778,3.269-2.445,5.339-2.222C82.596,29.639,79.219,30.197,75.406,29.639L75.406,29.639z"/>
	<path fill="#FFFFFF" d="M80.961,26.862c0.328-2.332-1.414-4.666-2.07-6.998l0.437-10.889c0.327,0.112,0.544-0.11,0.764-0.333
		L79.762,8.31l0.544,1.11c0.327,5.665-2.064,12.333,1.634,16.776L80.961,26.862L80.961,26.862z"/>
	<path d="M68.438,36.529c-0.871,0-0.654-1-0.871-1.446l5.008-1.443c-0.651-0.778-1.851-0.333-2.613-0.11
		c1.091,0.443,0.764-1.001,1.419-1.333c-0.22,0.443,0.323,0.666,0.543,0.998c0.328,0.113,0.544-0.11,0.651-0.223
		c-0.76-3.665-0.543-8.441,0.548-11.997c-0.328-4.779,1.193-9.445,3.265-13.443c1.091-0.112,2.069-1.221,3.049-0.223
		c-5.771,2.555-4.791,9.555-6.312,14.665c-0.328,3.444,2.94,6.333,0.543,9.667l0.328,0.333c0.322-0.668,0.979-0.224,1.414-0.333
		c1.741,0.442,3.704-0.892,5.661-0.778C77.257,33.862,72.466,34.085,68.438,36.529L68.438,36.529z"/>
	<g>
		<path fill="#E42728" d="M78.563,26.307l-0.544-0.666c-0.22,0.223-0.543,0.333-0.436,0.666c-0.979-0.666-2.722-0.224-2.94-1.776
			c0.655-2-0.871-3.556,0.22-5.222c0.871,1.999,0.651,4.333,2.507,6c0.431-1.446-0.656-3-0.871-4.443
			c0.106-2.334,0.106-5.557,1.086-7.889l0.656,0.109c-0.222,3.778-0.765,7.779,1.193,10.89
			C79.219,24.863,79.654,25.974,78.563,26.307L78.563,26.307z"/>
		<path fill="#E42728" d="M78.13,27.733l-0.764-0.764l-0.478,0.359c-0.148-0.1-0.492-0.176-0.796-0.242
			c-0.841-0.184-2.412-0.527-2.677-2.383l-0.039-0.286l0.088-0.273c0.203-0.617,0.084-1.22-0.054-1.918
			c-0.198-1.014-0.447-2.276,0.416-3.595l1.256-1.916l0.34,0.778c0.127-1.706,0.387-3.489,1.021-4.997l0.38-0.903l2.716,0.455
			l-0.146,2.398c-0.223,3.315-0.436,6.448,1.089,8.87l0.279,0.439l-0.123,0.51c-0.034,0.135-0.039,0.353-0.044,0.562
			c-0.015,0.705-0.046,2.168-1.669,2.662L78.13,27.733z"/>
	</g>
	<path fill="#FFFFFF" d="M75.515,27.64l0.112-0.778l2.613,0.445C77.369,27.417,76.277,26.975,75.515,27.64L75.515,27.64z"/>
	<path fill="#22945F" d="M61.577,55.305l-1.308-0.113c-0.65,3.887-0.979,7.781-2.506,11.222c0.979-3.439,1.527-7.442,1.527-10.889
		c-2.727,0.783-1.635,4.443-3.049,6.333c0-2.109,1.85-3.778,1.307-5.774c-3.92,1.443-8.275,4.11-10.673,7.443
		c0.106,0.553-0.328,1.336,0.22,1.669c-2.505,1.218-5.119,1.996-7.517,3.438l0.328,0.333c-0.328-0.777-0.871,0.112-1.308,0
		l-0.764,0.672l0.328-0.227l0.215,0.333l-0.215,0.226c-0.328-0.782-0.871,0-1.308-0.112c-0.764,0.554-1.526,1.552-0.764,2.335
		l0.656,0.777l3.483-3.226c-1.307,2.002-4.032,3.005-3.27,5.561c0.436-0.113,0.328-0.56,0.328-1.005
		c0.543,0.892-0.979,1.111,0,1.776c0.764-0.558,1.521-1.556,0.764-2.329c-0.113,0.221,0.107,0.44,0.323,0.666
		c0.548-0.666,0.871-1.337,1.742-2.002c0.436,1.336-0.437,2.222,0.112,3.445c0.216-0.338-0.112-0.445-0.221-0.666
		c-0.436,0.221-0.436,0.554-0.436,0.999c0.221,0.22,0.327,0.444,0.655,0.332c-0.112,0.554,0.215,1.336-0.436,1.669l0.323,0.439
		c1.526-0.439,0.763-2.329,1.526-3.439c-0.543-0.445-0.22-1.336-0.22-2.001l0.656-0.666c-0.656,1.557-0.107,3.553-0.871,5.108
		c3.377,3.221,8.496,4.11,13.174,5.334l0.328-0.332c4.248,1.224,8.711,0.332,12.415-1.115c-0.107,0.338,0.107,0.449,0.328,0.665
		c-8.389,2.56-18.733,1.78-25.595-3.886c-0.65,0.332-0.322,1.115-0.436,1.668c3.925,2.556,8.167,4.225,12.851,5.109
		c0.437-0.445,1.199,0.221,1.962,0.112c4.028,0.107,7.62-0.778,11.217-2.001c-5.228,2.892-12.637,3.776-18.186,0.891
		c-3.376-0.445-6.317-2.002-8.824-4.443l-3.376-0.112c0.221-1.443,0-2.888-0.758-3.554c-0.221,1.331,0.107,3.666-0.655,5.109
		c3.27,0.226,1.741,4.443,3.483,6.332l-0.649-0.998c-1.308-2.334-3.162-4.443-2.727-7.331c-0.323-0.45-0.651-0.891-1.307-0.782
		l-0.323,0.332c0.215,0.227,0.323,0.45,0.65,0.333c-1.414,1.669,0.764,3.671,1.092,5.561c1.629,2.44,3.156,4.889,3.699,7.663
		c-0.764-1.443-1.414-2.995-2.179-4.557c-1.521,0.559,0,1.669-0.106,2.441c-0.871-0.998-2.07-1.884-1.527-3.553
		c0.113,0.666,0.763,1.224,0.984,1.78c1.521-1.78-1.527-3.558-1.742-5.559c0.215-0.559-0.328-0.999-0.656-1.331
		c-1.307,0.998,0.328,2.667,0.108,4.11c-0.871-1.996-0.108-5.774-3.376-5.667c-1.087-0.559-2.179-2.223-3.266-1.776l0.871,1.336
		l0.437-0.333c-0.221,0.333,0.107,0.554,0.328,0.666c-1.308-1.336-2.941-1.669-3.598-3.226c-0.107,0,1.419,1.776,2.29,1.11
		l-4.791-4.557c0.437-0.107,1.086,0.338,1.308-0.327l0.322,0.327c0.655-0.327,0.328-1.11,0.437-1.668l-0.323-0.333l0.323-0.333
		l-1.308-1.105l-0.322,0.332l-1.527-1.78c-0.543,0.226-0.436,0.666-0.436,0.999l-0.651-0.666l0.323-0.333l-1.851-1.776l0.328-0.333
		l-0.979-1.11c1.521-0.998-1.527-0.665,0.106-1.663c-0.328-0.445-0.871-0.783-0.654-1.448c2.726,1.556,0.87,5.108,3.812,6.332
		c1.091-0.772,1.962,1.89,3.269,0.777c-0.327-0.333-0.87-0.659-0.655-1.331l0.436-0.333c-0.763-2.334-3.592-3.111-3.812-5.667
		c-0.323-0.111-0.543,0.222-0.651,0.333l-0.106,1.004l-0.656-0.671c2.069-1.11-0.871-2.002-0.871-3.106
		c-0.651,0.332-0.215,1.104-0.328,1.664c-0.436-0.333-0.543-0.892-0.651-1.332l0.328,0.333c0.215-0.782-1.526-2.779-1.199-3.892
		c-0.436-0.332-0.436-0.886-0.543-1.336c0.107,0.227,0.323,0.45,0.651,0.339c0.437-0.445-0.436-1.337-0.651-2.002l0.323,0.332
		c1.091-0.772-0.979-1.663,0.107-2.44c-0.543-0.338-0.215-1.111-0.215-1.669l0.655-0.666c-0.328-0.333,0.437,0.999,0.979,1.443
		c0.871-0.998-0.107-2.108-0.22-3.109c0.327,0.112,0.436-0.11,0.654-0.333c-1.198-0.555-0.328-1.889-0.543-2.777l0.979,1.111
		l0.328-0.333l0.322,0.333l-1.307,0.666l0.871,1.446c-0.323-0.224-0.437,0.109-0.651,0.221c0.328,0.668,1.308,0.888,0.871,1.778
		c-0.22-0.11-0.436,0.112-0.655,0.333c0,1.557,0.983,2.888,1.854,4.11c0.759-0.221,1.307,1.003,1.958,0.112
		c-0.763-0.666-1.958-1.336-2.178-2.78c1.307,1.891,3.156-0.225,4.248,1.891c0.436-0.227,0.328-0.666,0.436-0.999l0.328,0.333
		l0.651-0.665c-2.179-0.892,0.436-3.004-2.179-3.113c-0.215-1.999-2.069-2.555-2.178-4.221c-1.307,0.442-1.85-1.111-2.286-1.779
		l-0.655,0.555l0.112-3.777c0.651,3.223,3.484,5.11,4.679,7.777c0.549,0.776,1.308,1.111,1.963,1.444
		c0.979-0.668-0.107-1.333-0.221-1.999c1.091,0.999,3.049,1.221,4.248,1.221c-0.65-0.999-2.393-2.222-2.178-3.889l0.328,0.333
		c0.543-0.888-0.655-2.111-0.107-3.443c-0.871-0.223-1.307-1.223-1.962-1.779L27.6,37.75c-0.979-0.109-0.871-1.221-1.307-1.778
		c1.742,0.668,1.634,2.557,2.505,3.891c0.436-0.223,0.328-0.668,0.436-1.111c0.328,0.556,0.871,0.556,1.199,1.111
		c0.328-0.445,0.651-0.223,1.092-0.335c0.437,1.556,2.394,0.891,2.179,2.557l0.979,1.111c0.437-0.223,0.328-0.668,0.437-1
		c-0.871-0.999,0.215,0.445,0.65,0l0.548,0.668c0.759-0.778-1.198-2.225,0.543-3c-1.091-2.334-2.94-3.891-3.812-6
		c-0.543-1.556-2.394-0.891-2.505-2.557c-0.437,0.223-0.323,0.668-0.437,1c-0.65-1.222-0.758-3.666-2.829-3.556
		c0-0.333,0.107-0.777-0.327-1.001l-0.328,0.335l0.763-2.334c-0.543,1.999,1.199,3.557,2.506,4.557
		c0.979-0.778-0.106-1.667-0.22-2.444c0.328,0.11,0.436-0.113,0.656-0.333c-0.328-0.445,0-1.223-0.543-1.667
		c1.193-0.891,0.543-2.777,0.758-4.11l0.983,1.111c0.437-0.223,0.323-0.668,0.437-1.001c1.521,0.888-0.437,2.445,0.106,4.111
		c-0.106-0.224-0.327-0.445-0.655-0.445c-0.651,1.111-0.215,2.557-0.108,3.778c0.871,0.555,0.656,1.556,1.527,2.11l-0.656,0.666
		c1.307,3.556,4.463,2.667,6.426,5.444c0.437,0,0.765,0.113,1.086-0.333c-1.086-1.111-0.215-2.89-0.871-4.111
		c1.742-1.001-0.436-2.555,0.871-3.777l-0.322,0.333l-0.984-1.111l0.328-0.223c0.107,0.223,0.328,0.444,0.656,0.335
		c1.086-1.446-0.984-1.666-1.199-3.112c-0.221,0.223-0.437,0.335-0.437,0.668l-0.655-0.668c-0.108,0.112-0.437,0.335-0.323,0.668
		c-0.328-0.112-0.765,0-0.984-0.445c-0.107-0.998,1.091-0.333,1.419-0.888l-1.963-2.222l-0.65,1.333
		c-0.436-0.333-0.87-0.778-0.655-1.333c0.328,0.109,0.436-0.11,0.655-0.333c-0.221-0.335-0.764-0.556-0.548-1.111l0.328-0.223
		c0.108,0.777,0.979,1.333,1.527,2.111c1.307-0.112,1.629,1.111,2.285,2.109c0.65-0.442,0.328-1.333,0.436-1.999
		c0.979,0.11,0.328-1.111,1.086-1.333c0.113,0.223,0.328,0.445,0.656,0.333c1.635-3.11,3.592-6.555,7.297-7.443v0.668
		c-2.506,0.556-2.726,2.332-4.904,3.889c-1.958,2.222-3.483,4.889-3.049,8.332c1.199,5.11,2.833,10.109,4.684,14.887l0.983,0.778
		c-1.747,0.223-3.597,0.445-5.339,0.777l0.221-0.223l0.323,0.335l-0.215,0.22c-1.85-0.556-4.027,0.224-6.098,0.445
		c-3.05,0.333-3.377,3.778-6.21,4.781c-1.087,0.772-0.866,2.437-0.543,3.439c1.415,2.108,4.354,1.551,5.227,3.998
		c0.871-0.333,1.307,0.998,1.962,0.112c0.215-0.338-0.106-0.559-0.22-0.778c2.726,0.56,5.227,2.447,8.274,1.444
		c0.984-0.554,1.855-1.444,2.833-2.223l-0.327-0.445c-0.871,0,0.327,0,0.327,0.445c0.543-0.666,1.527-1.219,1.742-2.002
		l-0.328-0.333c0.222-0.22,0.437-0.332,0.328-0.665l-0.328-0.333L45.57,53.86l0.221-0.227l0.436,0.333l-0.328,0.339L45.57,53.86
		c-1.198,1.33-2.94,2.887-5.118,2.554l4.575-5.001l-0.327-0.333c-1.199,0.666-1.963,1.558-3.156,2.222l0.323-0.106l0.327,0.333
		l-0.215,0.22l-0.436-0.445l-0.656,0.666l0.221-0.221l0.323,0.445l-0.215,0.226l-0.328-0.45c-0.65,0.783-1.742,1.448-2.07,2.34
		l-1.629-0.45c1.521-2.223,4.027-3.778,6.205-5.109c-1.307-0.665-2.721,0.778-4.026,1.116c-0.656,1.438-2.613,2.104-2.834,3.66
		c-1.742-1.663-4.355-3.66-4.791-6c0.327-1.776,1.963-2.665,3.483-3.33c-1.086,1.111-3.592,1.667-3.156,3.33
		c0.323,0.118,0.437-0.108,0.651-0.333c0.113,0.558-0.758,0.998,0,1.331l-0.215-0.222l0.651-0.659l0.22,0.327
		c-0.328,0.333-0.871,0.671-0.765,1.224l0.328,0.445l2.179-1.996c-0.437,0.881-1.742,1.771-1.199,2.662
		c2.286-3.221,5.99-5.223,9.689-6l-0.758,0.668l0.323,0.333c-2.829,1.556-6.206,3.668-7.62,6.779l0.328,0.44
		c2.936-3.112,6.533-6.11,10.345-7.443c0.108-0.333-0.112-0.444-0.328-0.666v0.333l-0.983-0.111v-0.333
		c-0.866,0.223,1.091,0.223,1.312-0.224c0.651,0.892-0.656,1.779-1.091,2.667c-0.328,0-0.764-0.109-0.979,0.335
		c-0.108,0.22,0.106,0.44,0.327,0.666c1.415-0.666,3.157-1.669,3.808-2.89c-0.215-0.224-0.323-0.443-0.65-0.333V45.75
		c0.65-0.109,0.871,0.333,1.308,0.778c0.436-0.223,0.327-0.668,0.327-1l-0.655-0.666c0.22-0.223,0.543-0.445,0.436-0.778
		c2.613,2.891,6.861,3.557,10.889,3.998c0.328-0.109,0.437,0.113,0.655,0.335c0.437-0.335,1.199,0.224,1.958,0.11
		c3.161-0.888,6.861-0.223,9.476-2.667C69.853,49.305,64.953,52.745,61.577,55.305L61.577,55.305z"/>
	<path fill="#22945F" d="M38.146,92.933l-2.158-2.452c-0.832-0.887-2.085-2.228-1.396-4.34l0.85,0.062
		c-0.096-0.146-0.195-0.289-0.289-0.426l-1.824,0.239c-0.318-0.729-0.448-1.562-0.573-2.363c-0.337-2.153-0.583-2.564-1.534-2.564
		l-0.7-0.132c-0.343-0.177-0.656-0.406-0.954-0.65l-0.673,0.543c-0.008-0.006-0.018-0.006-0.024-0.011l-0.271,0.206l-1.441-1.513
		c-0.889-0.582-1.894-1.238-2.438-2.529l0.595-0.353l-4.426-4.209l2.643-0.616c0.045,0,0.091,0,0.138,0.005l0.023-0.079
		l-0.744-0.865l-0.044,0.792l-3.449-3.15l0.296-0.31l-1.864-1.785l0.401-0.401l-1.152-1.316l0.398-0.259
		c-0.083-0.162-0.143-0.348-0.154-0.562c-0.016-0.249,0.032-0.466,0.112-0.655c-0.279-0.47-0.445-1.042-0.214-1.762l0.154-0.479
		c-0.208-0.396-0.303-0.798-0.375-1.087l0.528-0.317l-0.213-0.059c-0.046-0.016-0.289-0.412-0.447-0.729
		c-0.382-0.755-0.803-1.592-0.834-2.424c-0.284-0.439-0.367-0.909-0.426-1.231l1.068-0.495l-0.304-0.312
		c-0.085,0.187-0.083,0.372-0.059,0.445c-0.027-0.089-0.164-0.318-0.254-0.476c-0.167-0.283-0.357-0.611-0.471-0.959l1.074-0.646
		l-0.289-0.411c-0.154,0.117-0.245,0.455-0.171,0.646c-0.534-0.915-0.612-1.595-0.468-2.1c-0.145-0.523-0.071-1.043-0.027-1.341
		c0.015-0.107,0.035-0.21,0.035-0.308v-0.507l1.145-1.446l0.309-0.03c-0.012-0.067-0.022-0.139-0.032-0.21l-0.218-1.944l0.196,0.065
		l-0.06-0.093l0.115-0.059c0.015-0.146,0.034-0.274,0.051-0.383c0.027-0.183,0.069-0.46,0.054-0.55l0.698-0.362l0.139-4.739
		l2.452-0.208c0.291,1.443,1.134,2.612,2.075,3.808l0.675-0.228l0.073,1.175c0.637,0.81,1.255,1.661,1.708,2.623l1.51-0.822
		c0.125,0.112,0.274,0.215,0.438,0.303c-0.335-0.639-0.538-1.373-0.431-2.217l0.166-1.285c-0.065-0.311-0.114-0.65-0.103-1.016
		c-0.365-0.293-0.648-0.641-0.898-0.949c-0.155-0.19-0.303-0.387-0.479-0.536l-1.289-1.094l1.521-0.954
		c-0.076-0.176-0.133-0.34-0.178-0.47c-0.039-0.117-0.098-0.291-0.129-0.345l1.426-1.904c1.685,0.643,2.195,2.092,2.569,3.148
		c0.034,0.099,0.069,0.193,0.104,0.289l0.893-0.132c0.12,0.081,0.237,0.159,0.35,0.237c0.191-0.032,0.354-0.032,0.466-0.032
		l1.172-0.301l0.428,1.167c0.039,0.134,0.068,0.179,0.548,0.396c0.34,0.151,0.95,0.429,1.336,1.006h0.292
		c0.024-0.353,0.134-0.723,0.393-1.062c-0.414-0.692-0.894-1.333-1.363-1.96c-0.744-0.993-1.516-2.021-2.02-3.239
		c-0.093-0.26-0.176-0.323-0.675-0.536c-0.085-0.037-0.179-0.077-0.275-0.125l-0.591,1.742l-1.346-2.526
		c-0.193-0.362-0.353-0.815-0.511-1.287c-0.167-0.494-0.338-1.006-0.562-1.324c-0.081-0.076-0.158-0.152-0.234-0.232
		c-0.062-0.034-0.149-0.061-0.298-0.061h-1.236l-0.135-1.233l0.156-0.057c0.052,0.063,0.115,0.12,0.191,0.157l0.198-0.296
		c-0.007-0.016-0.018-0.029-0.024-0.045l0.051-0.103l-0.098-0.059l-0.031,0.002c-0.008-0.013-0.013-0.022-0.018-0.032l-1.021-0.619
		l0.765-2.334l1.57,0.47l1.266-0.964c0.269-0.203,0.264-0.822,0.229-1.676c-0.021-0.575-0.034-1.14,0.046-1.642l0.416-2.579
		l1.37,1.549l0.167-0.494l1.312,0.763c0.079,0.046,0.153,0.097,0.225,0.146c0.019-0.062,0.037-0.125,0.062-0.188l0.139-0.359
		l2.295-1.56l0.274,1.976c0.031,0.125,0.353,0.465,0.543,0.668c0.139,0.145,0.278,0.296,0.416,0.449
		c0.372,0.079,0.685,0.211,0.954,0.383l0.075-0.473l0.565,0.064c0.154-0.474,0.472-1.006,1.206-1.222l0.487-0.145
		c1.468-2.696,3.65-6.053,7.523-6.983l1.527-0.364v3.229l-0.972,0.215c-1.12,0.25-1.57,0.773-2.319,1.643
		c-0.541,0.631-1.157,1.348-2.131,2.045c-2.017,2.337-2.865,4.604-2.54,7.169c1.045,4.426,2.562,9.269,4.487,14.28l2.556,2.021
		c-0.039,0.054-0.081,0.146-0.104,0.262l0.299,0.147l-0.315,0.039c0.002,0.073,0.012,0.148,0.04,0.229l0.379-0.22l0.401,0.196
		l0.056-0.049l-0.286-0.247l1.544-0.892c2.273,2.514,6.134,3.157,9.924,3.578l0.206-0.017c0.359,0,0.645,0.115,0.858,0.257
		c0.33,0,0.629,0.076,0.896,0.142c0.183,0.044,0.367,0.091,0.484,0.091c1.03-0.293,2.21-0.422,3.353-0.549
		c2.082-0.229,4.047-0.447,5.491-1.798l1.895,1.563c-2.057,3.25-6.221,6.372-9.564,8.877l-1.568,1.18l-0.635-0.054
		c-0.062,0.406-0.124,0.812-0.186,1.218c-0.465,3.089-0.944,6.279-2.229,9.176l-2.321-0.841c0.343-1.204,0.631-2.477,0.86-3.769
		c-0.062,0.098-0.129,0.194-0.201,0.294l-2.229-0.744c0-1.194,0.439-2.217,0.83-3.117l0.171-0.406
		c0.017-0.098,0.037-0.195,0.054-0.294c-2.831,1.312-5.973,3.343-7.933,5.883c-0.01,0.151-0.03,0.293-0.046,0.421l0,0l1.6,0.975
		l-2.043,0.988c-0.998,0.488-2.016,0.904-3.029,1.325c-1.505,0.616-2.926,1.199-4.273,1.997l0.938,0.793
		c-0.106,0.166-0.223,0.322-0.342,0.476l0.254,0.776l0.021-0.02l2.021,1.351c-0.201,0.477-0.25,1.087-0.281,1.742l0.512,0.421
		l-0.559,0.515c-0.033,0.515-0.093,1.053-0.234,1.581c2.66,2.168,6.421,3.103,10.068,4.013l1.272,0.317l0.347-0.353l0.708,0.206
		c3.359,0.974,7.352,0.592,11.622-1.082l2.418-0.944l-0.644,2.026l1.128,1.13l-1.763,0.793c-0.049,0.015-0.096,0.029-0.142,0.044
		l0.379,0.856c-5.843,3.239-13.756,3.715-19.162,1.009c-3.311-0.485-6.319-1.968-8.958-4.42l-1.923-0.068
		c0.93,0.939,1.15,2.374,1.312,3.445c0.104,0.681,0.202,1.326,0.414,1.825l0.439,0.676l-1.015,0.788
		c0.733,1.398,1.317,2.853,1.627,4.424l-2.309,0.817c-0.085-0.157-0.168-0.318-0.25-0.479L38.146,92.933z M31.451,78.633
		c0.504,0.039,0.935,0.144,1.307,0.3l-0.201-0.23l1.299-1.556l0.798-0.099c0.118,0,0.23,0.005,0.338,0.024
		c0.015-0.484,0.042-0.93,0.103-1.302l0.365-2.197l0.198,0.171c0.007-0.039,0.015-0.078,0.023-0.122l-0.534-0.632
		c-0.421-0.426-0.655-1.062-0.6-1.718c0.037-0.411,0.176-0.782,0.362-1.105l-0.022-0.005l0.044-0.029
		c0.372-0.627,0.913-1.066,1.199-1.276l0.472-0.343l0.301,0.077c0.136-0.059,0.274-0.111,0.422-0.15l0.949-0.832l0.318,0.078
		c0.171-0.088,0.35-0.171,0.545-0.226c1.485-0.871,3.029-1.508,4.527-2.119c0.639-0.265,1.276-0.527,1.914-0.808
		c0.005-0.21,0.028-0.392,0.046-0.523l-0.101-0.527l0.346-0.682c2.293-3.186,6.499-6.132,11.251-7.879l1.268-0.47l0.022,0.078
		c0.171-0.078,0.35-0.142,0.538-0.195l0.22-0.063l0.067-0.41l1.051,0.088l0.241-0.068v0.094l0.684,0.059l0.814-0.616
		c1.77-1.321,3.777-2.829,5.522-4.395c-0.536,0.078-1.069,0.137-1.586,0.195c-1.089,0.122-2.121,0.235-3.075,0.505l-0.549,0.059
		c-0.423,0-0.79-0.093-1.086-0.166c-0.047-0.01-0.091-0.024-0.135-0.035l-0.632,0.485l-0.771-0.778
		c-0.015-0.015-0.024-0.029-0.029-0.034c-3.414-0.353-6.717-0.886-9.337-2.503c-0.14,0.33-0.394,0.653-0.842,0.881l-0.345,0.179
		c-0.629,0.937-1.729,1.811-3.335,2.657l0.6,0.611l0.519-0.572l1.542,1.752c0.108,0.333,0.113,0.621,0.06,0.871l0.146,0.146
		l-0.188,0.689c-0.235,0.856-0.894,1.443-1.419,1.913c-0.201,0.183-0.404,0.354-0.559,0.543c-0.488,0.427-0.779,0.677-1.065,0.927
		c-0.661,0.566-1.344,1.153-2.119,1.59c-2.922,1.043-4.774,0.172-6.788-0.572c-0.318-0.117-0.636-0.235-0.957-0.343
		c-1.228,1.468-2.122,0.592-2.559,0.323l-1.183,0.449l-0.306-1.297c-0.272-0.769-0.859-1.042-1.96-1.498
		c-1.011-0.421-2.269-0.943-3.127-2.227l-0.149-0.309c-0.007-0.02-0.012-0.039-0.02-0.059l-0.323,0.332l-0.071-0.073
		c-0.039,0.024-0.083,0.049-0.127,0.073l-1.099,0.568l-0.237-0.461l-0.303,0.41c-1.136,1.566-2.229,0.729-2.707,0.456l-0.844,0.244
		l-0.413-0.822c-0.575-0.808-1.199-1.684-1.613-2.656l-0.017-0.016l-0.198,0.143c0.416,0.86,0.396,1.493,0.181,1.953
		c0.258,0.522,0.476,1.219,0.138,1.868l0.194,0.146l-0.303,0.749c-0.002,0.211,0.377,0.964,0.58,1.37
		c0.022,0.039,0.042,0.083,0.062,0.122l1.259-0.642v2.021c0.015-0.104,0.271,0.132,0.431,0.272c0.281,0.261,0.619,0.573,0.859,0.955
		l0.922,0.309l0.067,0.798c0.076,0.891,0.645,1.479,1.563,2.358c0.82,0.787,1.75,1.679,2.193,3.028l0.271,0.837l-0.392,0.299
		l0.987,0.988L26.343,69.9l0.888,0.754l-0.504,0.519l-0.091,0.471c0.021,0.655,0.059,1.604-0.644,2.235l3.319,3.157
		c0.543,0.259,1.019,0.665,1.456,1.047C31.003,78.285,31.243,78.491,31.451,78.633z M22.681,66.81c0.409,0,0.761,0.128,1.067,0.299
		l0.039-0.122c-0.307-0.451-0.731-0.861-1.201-1.312c-0.268-0.255-0.539-0.515-0.803-0.798l-0.089,0.837l-0.026-0.023
		c0.145,0.527,0.326,0.891,0.688,1.148C22.463,66.819,22.573,66.81,22.681,66.81z M32.503,54.752l1.75,0.356
		c-1.64-1.512-3.333-3.226-3.729-5.358l-0.039-0.201c-0.497,0.466-1.082,0.882-1.812,1.175c-0.281,0.322-0.25,1.102-0.054,1.801
		c0.449,0.573,1.138,0.86,1.926,1.185C31.169,53.974,31.876,54.267,32.503,54.752z M20.733,50.249
		c0.029,0.083,0.062,0.167,0.097,0.25l1.146-0.455c0.206,0.298,0.342,0.337,0.739,0.337l0.766-0.02c0.296,0,0.637,0.024,0.988,0.118
		c-0.068-0.411-0.037-0.793-0.015-1.047c-0.021,0-0.042,0-0.063,0l-1.063-0.044l-0.115-1.062c-0.066-0.622-0.381-1.023-0.892-1.625
		c-0.271-0.32-0.576-0.68-0.821-1.116l-0.808,0.411l0.607,0.281l-0.776,0.666c0.409,0.387,1.211,1.26,0.568,2.572L20.733,50.249z
		 M34.279,48.729l0.705,0.53c2.228-2.019,5.148-3.488,8.374-4.167l0.164,0.328l1.911-0.527l0.187-0.375l-0.648,0.083
		c-1.169,0.148-2.378,0.301-3.56,0.491l-0.49,0.505L39.988,45.6c-0.917-0.27-2.256-0.076-3.662,0.184
		c-0.326,0.061-0.653,0.12-0.979,0.174l0.763,1.104c-0.47,0.479-1.059,0.832-1.627,1.169c-0.146,0.088-0.353,0.213-0.556,0.343
		l0.201,0.298L34.279,48.729z M29.337,44.462c0.22,0.414,0.599,0.837,0.971,1.25c0.037,0.039,0.071,0.081,0.105,0.12
		c0.738-0.878,1.669-1.767,3.093-2.099l-1.104-1.253l0.069-0.539c-0.037-0.012-0.142-0.06-0.225-0.095
		c-0.331-0.149-0.791-0.357-1.189-0.744l-0.736,1.001l-0.749-1.264c-0.062,0.044-0.134,0.086-0.21,0.123l-0.107,0.057
		c-0.051,0.257,0.029,0.567,0.157,1.016C29.594,42.693,29.846,43.589,29.337,44.462z M37.387,40.983
		c0.024,0.049,0.062,0.157,0.091,0.24c0.146,0.4,0.401,1.13,0.146,1.843c0.58-0.071,1.169-0.105,1.728-0.069l0.005-0.007l0.894-0.9
		l0.572,0.596c0.715-0.12,1.439-0.224,2.161-0.321c-0.652-1.715-1.263-3.414-1.822-5.087l-0.471,0.646
		c-0.411,0.567-0.976,0.856-1.681,0.856h-0.641l-0.776-0.536c-0.203-0.289-0.423-0.526-0.658-0.729
		c0.377,0.56,0.737,1.156,1.047,1.825l0.534,1.144L37.387,40.983z M40.331,34.702c0,0.074,0,0.147-0.002,0.218
		c-0.005,0.714,0.002,1.165,0.245,1.41l0.41,0.423C40.759,36.064,40.541,35.382,40.331,34.702z M33.655,32.344
		c0.562,0.963,1.368,1.337,2.417,1.821c0.573,0.265,1.183,0.548,1.779,0.944c0-0.073,0.003-0.146,0.003-0.213
		c0.005-0.501,0.007-0.973-0.13-1.229l-0.568-1.06l1.043-0.6c0.101-0.093,0.031-0.361-0.013-0.539
		c-0.095-0.382-0.225-0.907-0.164-1.479l-1.502-1.695l0.85-0.578l-1.021-0.352c-0.387-0.044-1.243-0.159-1.69-1.067l-0.123-0.416
		c-0.016-0.137-0.018-0.267-0.011-0.387l-0.705-0.539c-0.174-0.132-0.322-0.264-0.449-0.394c-0.127,0.392-0.219,0.751-0.127,1.024
		l-1.022,0.414l0.257,0.152c-0.286,0.492-0.169,1.329-0.054,2.139c0.02,0.129,0.037,0.257,0.054,0.384
		c0.396,0.413,0.59,0.871,0.729,1.204s0.192,0.432,0.289,0.492l1.29,0.825L33.655,32.344z"/>
	<path fill="#FFFFFF" d="M64.733,5.976c-18.186,0.444-38.328,9.108-45.297,27.219c-1.199,1.779-1.742,4.111-2.29,5.777
		c0.107-0.557,0.107-1.555,0.437-3c0-0.11,0.111-0.221,0.328-0.889C23.899,17.197,43.063,6.421,60.49,5.42
		c1.307,0.224,3.265-0.333,5.007-0.109l7.624,0.666C70.508,7.419,67.782,5.42,64.733,5.976L64.733,5.976z"/>
	<polygon points="65.281,70.529 65.717,69.858 65.604,70.529 	"/>
	<polygon points="59.507,66.193 59.835,66.193 59.727,67.191 59.399,67.191 	"/>
	<path d="M57.985,22.751c-0.543-1.889-0.543-2.554-0.764-4.554C58.856,19.641,57.877,20.752,57.985,22.751L57.985,22.751z"/>
	<path d="M57.221,26.419c-0.328,0.333-1.091,0.999-0.436,1.331l-0.656-0.998c-0.651,0.998-0.323,2.444-0.437,3.665
		c-0.106-1.109-0.215-2.667-1.521-3.109l-0.437,0.333c-0.327,0.333-0.22-1.557-0.22-2.445c0.871-0.333,0.764-1.221,0.764-1.999
		c-1.741-1.443-0.436-2.667-1.086-4.443c-0.655-1.778,1.194-1.333,1.414-2.667l1.522,2.444c-0.107-0.445-0.543-0.445-0.979-0.445
		c-0.543,0.224-0.215,0.892-0.328,1.333c-0.322-0.109-0.543,0.224-0.65,0.333c0.107,0.668,0.979,1.225-0.107,1.779
		c0.437,0.333,0.651,1,1.308,1c0.106-0.335,0-1.556,0.106-2.334c-0.106,0.888,0.543,1.666,0.871,2.444
		c-0.328,0-0.436-0.224-0.656-0.445c-0.65,0.223-0.215,0.891-0.436,1.446c0.22,0.109,0.328,0.442,0.656,0.333l0.764-0.668
		c-0.113,1.778,1.307,2.001,1.086,3.777L57.221,26.419L57.221,26.419z"/>
	<path d="M57.549,17.197c-0.984,0.445-1.635-0.778-1.855-1.444c0.113-0.444,0.221-1,0.656-1.333
		C56.022,15.641,57.006,16.641,57.549,17.197L57.549,17.197z"/>
	<g>
		<path fill="#22945F" d="M52.43,63.639c-0.106-0.666,0.328-4.004,2.286-4.337L52.43,63.639L52.43,63.639z"/>
		<path fill="#22945F" d="M53.524,64.216l-2.314-0.382c-0.191-1.174,0.465-5.271,3.298-5.75l2.471-0.421L53.524,64.216z"/>
	</g>
	<g>
		<polygon fill="#22945F" points="66.476,80.414 66.695,80.747 65.717,81.413 65.497,81.08 		"/>
		<polygon fill="#22945F" points="65.377,83.141 63.789,80.742 66.815,78.687 68.403,81.085 		"/>
	</g>
	<g>
		<path fill="#22945F" d="M50.145,80.747c5.549,0.892,10.346-0.445,15.136-1.664l0.651,0.666
			C61.361,82.186,55.372,81.413,50.145,80.747L50.145,80.747z"/>
		<path fill="#22945F" d="M57.982,82.65c-2.202,0-4.392-0.229-6.433-0.479c-0.526-0.049-1.059-0.116-1.6-0.199l0.353-2.452
			l1.515,0.19c4.446,0.411,8.529-0.642,12.498-1.659l1.354-0.343l2.305,2.354l-1.458,0.776C64.231,82.059,61.439,82.65,57.982,82.65
			z"/>
	</g>
	<g>
		<path fill="#22945F" d="M65.497,65.748c0.543-3.106-0.108-5.779-1.958-8.002v-0.998C66.26,58.969,66.368,62.641,65.497,65.748
			L65.497,65.748z"/>
		<path fill="#22945F" d="M66.688,66.08l-2.41-0.548c0.482-2.76-0.07-5.05-1.69-6.993l-0.286-0.343V54.14l2.021,1.648
			C67.038,58.006,67.899,61.76,66.688,66.08z"/>
	</g>
	<g>
		<path fill="#22945F" d="M64.846,72.193h-0.548l-3.7-0.892c0.764-1.557,1.087-3.333,1.522-5.002
			c0.436,0.892,0.328,2.008,1.198,2.779c0.764-2.222-0.979-4.218-0.65-6.558c0.106,1.89,0.871,3.562,1.414,5.227
			c-0.107-1.224,0.436-3.443-0.107-4.775c-0.22-1.115-0.871-1.89-0.548-3.112c1.419,3.666,0.655,8.108,1.526,12L64.846,72.193
			L64.846,72.193z"/>
		<path fill="#22945F" d="M65.746,73.431h-1.448l-5.491-1.287l0.681-1.386c0.536-1.096,0.838-2.328,1.154-3.641l0.282-1.131
			l0.959-0.098c-0.294-1.037-0.627-2.218-0.44-3.538l1.069,0.044c-0.003-0.005-0.005-0.011-0.008-0.021
			c-0.262-0.729-0.59-1.635-0.273-2.833l2.352-0.128c0.887,2.286,0.988,4.781,1.09,7.199c0.073,1.757,0.142,3.421,0.491,4.977
			l0.072,0.328L65.746,73.431z"/>
	</g>
	<g>
		<path fill="#22945F" d="M42.849,77.302l0.437-0.333c6.312,0.892,13.394,2.78,19.056-0.444l0.979,1.004
			C57.221,80.635,49.161,79.416,42.849,77.302L42.849,77.302z"/>
		<path fill="#22945F" d="M54.579,80.645c-4.661,0-9.166-1.181-12.125-2.168l-2.212-0.744l2.701-2.062l0.515,0.074
			c0.967,0.132,1.95,0.293,2.943,0.455c2.717,0.44,5.525,0.896,8.188,0.896c2.857,0,5.191-0.538,7.14-1.649l0.829-0.47l2.821,2.888
			l-1.497,0.763C61.254,79.969,58.124,80.645,54.579,80.645z"/>
	</g>
	<g>
		<path fill="#22945F" d="M56.786,73.524c3.812-4.669,4.683-10.776,4.792-17.217C62.448,62.415,60.813,69.306,56.786,73.524
			L56.786,73.524z"/>
		<path fill="#22945F" d="M57.682,74.381l-1.854-1.64c3.812-4.669,4.421-10.938,4.512-16.453l2.464-0.156
			C63.774,62.943,61.763,70.104,57.682,74.381z"/>
	</g>
	<g>
		<polygon fill="#22945F" points="61.033,82.304 61.033,82.637 60.378,82.637 60.49,82.186 		"/>
		<polygon fill="#22945F" points="62.271,83.874 58.792,83.874 59.58,80.723 62.271,81.305 		"/>
	</g>
	<g>
		<path fill="#22945F" d="M42.628,75.638v-0.665c0.764,0.106,1.854-0.227,2.397,0.439c1.414-0.106,3.92,0.445,5.662-0.106
			c1.199-0.113,2.178,0.439,3.699-0.227l0.328-0.225c-1.415-1.106-3.592,0.337-5.662-0.333c2.941-0.222,1.962-0.554,4.683-1.106
			c0.216,0.216,0.328,0.44,0.651,0.333l-0.323,0.333c0.323,0.22,0.543,0.892,0.979,0.773c1.199,0.117,3.157,0.117,4.354-0.887
			l0.656,0.777c-3.049,1.89-7.409,1.331-10.673,1.224c2.393,1.664,6.533,1.558,9.254,0.773l2.397-1.331
			C56.35,78.633,48.075,77.077,42.628,75.638L42.628,75.638z"/>
		<path fill="#22945F" d="M53.446,78.545c-3.137,0-6.777-0.558-11.133-1.708l-0.922-0.244v-3.044l1.965,0.205l0.406-0.01
			c0.318,0,1.05,0,1.698,0.416c0.444,0,0.957,0.034,1.5,0.073c0.604,0.044,1.263,0.088,1.879,0.083l0.123-1.027
			c1.487-0.112,1.791-0.233,2.251-0.421c0.445-0.181,0.998-0.406,2.278-0.665l0.652-0.133l0.47,0.47c0.125,0.147-0.098,0-0.379,0
			l0.374,0.744l0.154-0.226c0.264,0.182,0.445,0.411,0.583,0.588c1.651,0.098,2.65-0.112,3.259-0.627l0.947-0.792l2.374,2.817
			l-0.759,0.471l0.568,0.915c-0.493,0.343-1.021,0.637-1.583,0.886l-0.917,0.51c-1.593,0.494-3.151,0.704-4.642,0.704h-0.245
			C54.05,78.54,53.749,78.545,53.446,78.545z"/>
	</g>
	<g>
		<path fill="#22945F" d="M60.49,57.972l0.322,0.333c-0.871,2.112-0.216,4.775-0.979,6.891l0.979-7.89
			C60.926,57.639,60.706,57.746,60.49,57.972L60.49,57.972z"/>
		<path fill="#22945F" d="M60.999,65.615l-2.394-0.572l0.45-3.636c0.034-0.896,0.093-1.845,0.345-2.78l-0.629-0.649l0.817-0.853
			l0.203-1.648l1.463,1.508l0.729-0.073c0.104,0.303,0.122,0.603,0.062,0.891l0.11,0.112l-0.199,0.861
			c-0.046,0.111-0.088,0.225-0.122,0.343l-0.32,2.804C61.477,63.145,61.433,64.412,60.999,65.615z"/>
	</g>
	<g>
		<path fill="#22945F" d="M55.807,72.858l0.323,0.333c-4.027-1.331-6.205-5.334-7.947-8.887c0.328-0.227,0.543-0.778,0.979-0.666
			c0.112,0.439-0.437,0.666-0.65,0.997c0.107,0.445,0.543,0.333,0.979,0.333c0.436-0.333,0.436-0.997,0.979-1.224
			c0.221-0.886-0.215,0.56,0.328,0.666c1.307-0.439,0.543-1.89,0.763-2.775c0.979,2.003-0.871,4.664-0.871,6.445
			c2.178-2.779,4.355-6.225,5.119-10.003l1.086-0.998c-1.307,4.336-3.049,8.446-5.006,12.444l0.323,0.333
			c3.049-2.223,4.033-5.446,5.119-8.555c-0.323,2.555-0.651,5.222-1.958,7.443l0.215,1.331c0.106-0.333-0.108-0.554-0.328-0.666
			c-0.543,0.666-1.194,1.89-0.758,2.667c1.414-0.777,3.592-4.11,4.354-6.665C58.092,67.969,57.657,70.744,55.807,72.858
			L55.807,72.858z"/>
		<path fill="#22945F" d="M55.741,74.365c-0.562-0.186-1.09-0.416-1.587-0.685l-0.134,0.077l-0.123-0.22
			c-3.264-1.88-5.224-5.423-6.827-8.69L46.6,63.889l0.883-0.607c0.296-0.348,0.771-0.896,1.566-0.896l0.564,0.094l0.671-0.187
			c-0.016-0.304-0.008-0.627,0.073-0.954l2.312-0.245c0.184,0.372,0.296,0.749,0.354,1.132c0.764-1.514,1.282-2.972,1.568-4.391
			l0.081-0.396l1.382-1.269l2.021,1.269c-0.357,1.188-0.759,2.396-1.206,3.626l1.686,0.396c-0.157,1.238-0.312,2.481-0.57,3.694
			l2.057,0.612c-0.147,0.488-0.282,0.987-0.417,1.486c-0.594,2.212-1.211,4.503-2.888,6.421l-0.363-0.317L55.741,74.365z"/>
	</g>
	<g>
		<polygon fill="#22945F" points="55.479,64.305 55.151,64.191 55.259,63.526 55.587,63.526 		"/>
		<polygon fill="#22945F" points="56.5,65.963 53.764,65.023 54.204,62.288 57.008,62.288 		"/>
	</g>
	<g>
		<path fill="#22945F" d="M43.063,73.632c2.941-0.333,5.662-1.438,8.496-2.441l0.871,1.442
			C49.709,73.969,46.44,73.749,43.063,73.632L43.063,73.632z"/>
		<path fill="#22945F" d="M46.406,74.958c-0.896,0-1.809-0.028-2.73-0.062L43.02,74.87l-0.095-2.467
			c2.374-0.271,4.62-1.081,6.996-1.942l2.178-0.772l2.09,3.46l-1.211,0.597C50.796,74.816,48.43,74.958,46.406,74.958z"/>
	</g>
	<path d="M51.016,21.64c0.437-1.111-0.656-1.555-0.22-2.665l1.634,1.775c-0.328-0.109-0.543,0.11-0.656,0.333
		c1.308,0.889-0.322,2.891,1.092,3.778C51.452,24.417,51.667,22.751,51.016,21.64L51.016,21.64z"/>
	<path d="M50.468,50.416c-2.178-0.999-1.85,1.663-2.828,2.556c-0.543-1.558,1.851-3,1.521-4.332
		c-1.194,0.553-2.179,1.776-3.372,2.222c0.979-1.111,2.393-3.668,3.807-2.89c0.548,0-0.107,1.778,1.199,1.333l1.091-0.889
		C52.103,49.417,50.903,49.75,50.468,50.416L50.468,50.416z"/>
	<path d="M41.321,45.859l0.222-0.22l0.323,0.333l-0.323,0.223c-1.527-0.778-3.162,0.888-4.685,1.554
		c-1.091,0.113-1.962,0.668-2.833,1.557c2.833-3.666,7.841-4.555,10.674-4.333C43.392,44.861,42.413,45.527,41.321,45.859
		L41.321,45.859z"/>
	<path d="M65.717,46.638c1.194-1.667,3.484-3.333,5.442-3.889C70.18,44.861,67.895,46.417,65.717,46.638L65.717,46.638z"/>
	<polygon points="43.284,24.085 43.499,24.085 43.499,25.751 43.171,25.751 	"/>
	<path d="M42.413,42.862c-0.222-0.668-0.871-0.335-1.308-0.445c0-1.889-2.506-1.889-1.526-4.11l1.963,2.11l-0.437,0.333
		C41.214,41.528,42.3,41.972,42.413,42.862L42.413,42.862z"/>
	<path d="M41.865,39.75c-0.108-1.999-2.722-2.332-2.179-4.553C40.558,36.973,42.085,37.528,41.865,39.75L41.865,39.75z"/>
	<path d="M34.573,53.083l-0.328-0.338l3.155-2.329C36.966,51.864,35.224,51.972,34.573,53.083L34.573,53.083z"/>
	<path d="M30.976,44.306c-0.543-1.333-3.049-1.225-2.613-3.11l2.941,2.777c0.543-1.333-1.742-2.445-1.521-4.111
		c0,0.555,0.322,0.888,0.543,1.443l0.759-0.333c0.439,0.333,0.439,0.999,0.982,1.33l1.308,0.113
		c-0.871,0.665,0.106,1.333,0.215,1.999C32.718,44.416,31.412,42.862,30.976,44.306L30.976,44.306z"/>
	<polygon points="30.433,80.189 30.976,80.522 30.325,80.522 	"/>
	<polygon points="30.976,57.972 31.739,58.079 30.976,58.637 	"/>
	<path d="M29.347,58.305l0.323,0.332l-0.979-1.443l0.328-0.338l-0.22,0.226l-0.328-0.333l0.22-0.22l1.308,1.443
		C29.669,57.859,29.562,58.079,29.347,58.305L29.347,58.305z"/>
	<polygon points="27.6,60.972 27.927,60.634 28.471,61.969 28.255,62.19 26.077,59.748 26.293,59.527 	"/>
	<path d="M27.492,69.525c-0.651,0.113-0.871-0.445-1.308-0.777c0.871-0.333,0-0.891,0.108-1.331
		C26.405,68.189,27.056,69.08,27.492,69.525L27.492,69.525z"/>
	<path d="M27.056,56.855c0.22,0.118,0.437,0.338,0.328,0.671c-0.763-0.553-2.285-0.445-1.962-1.889l1.962,0.891L27.056,56.855
		L27.056,56.855z"/>
	<path d="M26.405,56.748c-0.655-0.778,0,0.333,0.323,0H26.405L26.405,56.748z"/>
	<g>
		<path fill="#22945F" d="M26.948,35.639c-0.107-0.556-0.107-1-0.544-1.443c0.437-0.333,0-1.224-0.327-1.667l-0.328-0.333
			c-0.437,0.998,0.22,2.667-0.764,3.665l-0.107,1.779l-0.979-0.113c0.108-1.556-1.634-1.556-2.285-2.777
			c1.087-0.666-0.327-1.11-0.22-1.778c0.656,0.668,1.199,3.223,2.613,2.446v-0.556l0.328,0.333c0.543-0.891,0.65-2.557,0.107-3.445
			c0.764-0.444,1.092,1.111,1.742,0.112c-0.436-0.778-0.328-1.889-1.307-2.111l0.107-1.11c0.983,1.11,1.742,2.222,1.854,3.556
			c-0.983,0.888,0.106,1.889,0.215,2.777l0.22,0.333L26.948,35.639L26.948,35.639z"/>
		<path fill="#22945F" d="M26.036,39.021l-3.453-0.399l0.081-1.179c0.012-0.154,0.015-0.191-0.573-0.575
			c-0.487-0.315-1.152-0.751-1.568-1.534l-0.55-1.027l0.47-0.289c-0.206-0.341-0.35-0.746-0.27-1.243l0.389-2.417l1.715,1.75
			c0.328,0.333,0.557,0.781,0.795,1.253c0.101,0.196,0.253,0.494,0.392,0.722c0.148-0.58,0.135-1.338-0.078-1.684l-0.658-1.079
			l0.268-0.154L22.833,31l0.447-0.005l0.476-0.276L23.45,30.65l0.306-2.128l0.273-2.829l1.885,2.129
			c0.982,1.111,2.011,2.488,2.161,4.27l0.051,0.612l-0.074,0.066l0.519,0.528l-0.785,0.042c0.002,0.016,0.005,0.029,0.008,0.047
			l0.09,0.21c0.122,0.269,0.257,0.567,0.34,0.897l0.639,0.966l-2.682,2.722l-0.071-0.372L26.036,39.021z"/>
	</g>
	<path d="M24.115,61.417c-0.323,0.553,0.436,1.443,0.654,2.109c-0.328-0.113-0.543,0.112-0.763,0.332
		c0.22,0.221,0.436,0.446,0.763,0.333l-0.106,0.333c-1.419,0.444-0.548-0.886-1.199-1.443c0.764-0.333-0.107-0.891,0-1.331
		c-3.592-0.112-2.833-4.775-5.771-5.667c0.437-0.226,1.086-1.224,0.107-1.775c0.328,0,0.764,0.111,0.979-0.222
		c-0.327-0.558,0-1.341-0.543-1.78c1.522,1.78,3.812,4.109,5.442,5.667l0.328-0.227v1.004c-0.328-0.112-0.543,0.112-0.763,0.22
		c1.854,0.227,0.327,2.223,1.634,2.889C24.663,61.637,24.443,61.417,24.115,61.417L24.115,61.417z"/>
	<g>
		<path fill="#22945F" d="M21.83,38.083c-0.543-0.223-0.215-0.888-0.215-1.333C21.502,37.305,22.05,37.528,21.83,38.083
			L21.83,38.083z"/>
		<path fill="#22945F" d="M22.52,39.703l-1.16-0.475c-0.874-0.357-1.216-1.134-1.013-2.301h0.012l-0.002-0.083l0.044-0.34
			l2.452,0.328l-0.005,0.057c0.154,0.241,0.445,0.863,0.132,1.648L22.52,39.703z"/>
	</g>
	<g>
		<polygon fill="#22945F" points="21.179,39.084 21.722,40.528 21.066,39.75 		"/>
		<polygon fill="#22945F" points="20.775,41.325 19.75,40.109 19.958,38.878 22.336,38.648 22.879,40.092 		"/>
	</g>
	<g>
		<path fill="#22945F" d="M12.791,39.417c0.328-1.556,1.962-1.001,3.049-1.556L12.791,39.417L12.791,39.417z"/>
		<path fill="#22945F" d="M11.046,41.697l0.534-2.535c0.396-1.876,1.999-2.099,2.859-2.219c0.318-0.044,0.646-0.091,0.832-0.185
			l0.005-0.003l1.125,2.205v0.002L11.046,41.697z"/>
	</g>
	<g>
		<polygon fill="#22945F" points="11.376,41.416 15.732,39.194 14.753,40.195 		"/>
		<polygon fill="#22945F" points="11.797,42.581 10.813,40.312 15.169,38.091 16.618,40.061 15.174,41.36 		"/>
	</g>
	<g>
		<polygon fill="#22945F" points="15.188,37.195 15.188,37.528 14.533,37.418 14.533,37.085 		"/>
		<polygon fill="#22945F" points="16.427,38.991 13.295,38.465 13.295,35.622 16.427,36.148 		"/>
	</g>
	<g>
		<polygon fill="#22945F" points="32.718,10.974 35.116,11.42 35.116,11.752 		"/>
		<polygon fill="#22945F" points="36.354,13.456 32.336,12.151 32.943,9.758 36.354,10.39 		"/>
	</g>
	<g>
		<path fill="#22945F" d="M31.96,12.641c-1.199-0.889-2.613-1.331-4.248-1.222C29.126,9.976,31.304,11.31,31.96,12.641L31.96,12.641
			z"/>
		<path fill="#22945F" d="M31.223,13.634c-0.903-0.668-1.894-0.992-3.023-0.992l-0.404,0.015l-0.966-2.102
			c0.639-0.651,1.445-0.996,2.337-0.996c1.725,0,3.298,1.307,3.904,2.534L31.223,13.634z"/>
	</g>
	<g>
		<path fill="#22945F" d="M27.384,12.085c1.307,0.668,3.377,0.224,3.92,1.89C29.89,13.419,28.906,12.085,27.384,12.085
			L27.384,12.085z"/>
		<path fill="#22945F" d="M33.293,16.086l-2.441-0.959c-0.678-0.267-1.248-0.659-1.752-1.003c-0.223-0.154-0.446-0.309-0.673-0.442
			c-0.494-0.094-1.072-0.221-1.605-0.494l0.562-2.339c0.627,0,1.241,0.153,1.877,0.47c1.14,0.21,2.665,0.57,3.22,2.272
			L33.293,16.086z"/>
	</g>
	<g>
		<path fill="#22945F" d="M23.899,13.309c1.522-2.334,4.137,0.109,5.662,1.221l0.328,0.668
			C27.927,14.642,26.185,13.419,23.899,13.309L23.899,13.309z"/>
		<path fill="#22945F" d="M32.224,17.146l-2.672-0.756c-0.758-0.216-1.487-0.521-2.224-0.832c-1.157-0.489-2.249-0.952-3.487-1.014
			l-2.158-0.103l1.18-1.809c0.829-1.271,1.903-1.539,2.66-1.539c1.578,0,3.052,1.129,4.236,2.033l0.915,0.856L32.224,17.146z"/>
	</g>
	<g>
		<path fill="#22945F" d="M26.513,15.085c0.764,0.668,2.178-0.109,2.613,1.111C28.255,16.864,27.6,14.975,26.513,15.085
			L26.513,15.085z"/>
		<path fill="#22945F" d="M28.745,17.576c-0.801,0-1.361-0.519-1.771-0.898c-0.135-0.125-0.362-0.335-0.456-0.371l0.088-2.465
			c0.947,0,1.61,0.614,2.05,1.021c0.108,0.101,0.274,0.254,0.341,0.291L28.745,17.576z"/>
	</g>
	<g>
		<path fill="#22945F" d="M27.056,19.198c-2.286-1.669-5.227-1.892-7.948-2.447c1.958,0.112,5.99,0.224,8.275,1.779
			C27.169,18.753,26.948,18.863,27.056,19.198L27.056,19.198z"/>
		<path fill="#22945F" d="M26.327,20.199c-1.615-1.18-3.67-1.547-5.849-1.933c-0.543-0.097-1.084-0.193-1.618-0.302l0.318-2.448
			l0.426,0.023c2.269,0.12,6.062,0.323,8.477,1.967l1.213,0.827l-1.021,1.058c-0.078,0.026,0.049-0.294-0.039-0.573L26.327,20.199z"
			/>
	</g>
	<g>
		<path fill="#22945F" d="M20.851,15.863c0.651-0.333,0.651-1.111,1.087-1.667l4.575,2.667
			C24.551,16.531,22.921,15.641,20.851,15.863L20.851,15.863z"/>
		<path fill="#22945F" d="M26.305,18.085c-0.722-0.122-1.402-0.314-2.075-0.506c-1.104-0.312-2.099-0.612-3.247-0.485l-0.694-2.331
			c0.002-0.022,0.081-0.211,0.132-0.336c0.123-0.285,0.271-0.646,0.543-0.992l0.666-0.85l5.508,3.21L26.305,18.085z"/>
	</g>
	<g>
		<polygon fill="#22945F" points="24.878,14.31 24.878,14.642 24.228,14.642 24.228,14.31 		"/>
		<rect x="22.989" y="13.071" fill="#22945F" width="3.128" height="2.809"/>
	</g>
	<g>
		<path fill="#22945F" d="M23.899,22.196c-3.155-0.333-6.205-1.554-9.365-0.778c2.178,0.335,4.468,0.778,5.882,2.667
			c-0.437-0.223-0.655,0.333-0.979,0.556c-0.22-0.556-0.871-0.224-1.307-0.333l-0.328,0.333c-0.763-0.224-2.178-0.224-3.049,0.223
			l-0.328,0.223c0.543-1.11,0.543-2.89,0.108-4c0.436-0.109,1.091,0.333,1.419-0.333C16.711,21.197,22.157,20.197,23.899,22.196
			L23.899,22.196z"/>
		<path fill="#22945F" d="M18.859,26.542l-0.343-0.864l-0.353,0.357l-0.709-0.206c-0.536-0.154-1.682-0.098-2.14,0.135l-0.195,0.146
			l-1.807-1.566c0.328-0.675,0.395-1.891,0.146-2.77l-0.521-1.338l0.127-0.055l-0.13-0.465l0.894,0.141l0.874-0.226
			c0.101,0,0.208,0.007,0.315,0.021l0.414-0.839l1.135,0.668c-0.078-0.055,0.117-0.032,0.705-0.032l1.308-0.007
			c2.459,0,4.921,0.21,6.254,1.744l-1.062,2.044c-0.883-0.094-1.762-0.253-2.633-0.422c0.09,0.107,0.181,0.221,0.269,0.337
			l-1.078,1.28l-0.107,0.648c0.257,0,0.443-0.11,0.506-0.169c-0.208,0.229-0.367,0.405-0.587,0.556L18.859,26.542z"/>
	</g>
	<g>
		<path fill="#22945F" d="M16.275,20.086c0.979-0.555,0.979-1.556,1.419-2.334c-0.111-0.223-0.439-0.333-0.327-0.666
			c2.285,0.557,4.247,1.89,6.312,3C20.743,20.086,19.001,19.641,16.275,20.086L16.275,20.086z"/>
		<path fill="#22945F" d="M23.68,21.325c-1.067,0-1.979-0.056-2.839-0.11c-1.437-0.088-2.708-0.173-4.365,0.094l-0.812-2.299
			c0.25-0.142,0.34-0.348,0.536-0.896c0.023-0.068,0.049-0.135,0.072-0.203c-0.238-0.436-0.189-0.893-0.078-1.221l0.362-1.074
			l1.102,0.267c1.938,0.473,3.618,1.428,5.243,2.353c0.453,0.257,0.905,0.516,1.365,0.763L23.68,21.325z"/>
	</g>
	<g>
		<path fill="#22945F" d="M16.388,25.528l5.006,0.335C19.979,26.752,18.237,25.195,16.388,25.528L16.388,25.528z"/>
		<path fill="#22945F" d="M20.381,27.378c-0.675,0-1.312-0.181-1.926-0.356c-0.541-0.157-1.055-0.304-1.521-0.304v-2.474
			c0.815,0,1.552,0.21,2.203,0.396c0.47,0.137,0.915,0.264,1.243,0.264V27.378z"/>
	</g>
	<g>
		<polygon fill="#22945F" points="17.582,28.751 19.979,28.085 18.565,28.751 		"/>
		<polygon fill="#22945F" points="18.842,29.989 17.582,29.989 17.251,27.56 19.649,26.894 20.506,29.206 		"/>
	</g>
	<g>
		<path fill="#22945F" d="M14.533,29.196l-0.217-2.667l4.355,0.555C17.254,27.75,15.732,27.973,14.533,29.196L14.533,29.196z"/>
		<path fill="#22945F" d="M13.518,32l-0.556-6.893l5.868,0.749l0.37,2.349c-0.46,0.215-0.928,0.389-1.396,0.562
			c-0.935,0.343-1.745,0.641-2.388,1.297L13.518,32z"/>
	</g>
	<g>
		<path fill="#22945F" d="M9.962,41.306c0,0.556-0.548,0.777-0.328,1.334l0.651,0.777c1.635-1,3.269-2.001,5.118-2.557l-0.107,0.335
			c-1.742,1.111-3.812,1.667-5.447,3.22c0.437-0.556,0.437-1.334-0.215-1.775c-1.742,3-2.178,6.885-2.178,10.223
			c2.178-2.892,5.989-5.669,8.06-6.78l-5.23,4.779l0.548,0.777l0.436-0.332c-0.871,1.223-2.069,2.222-2.506,3.665
			c0.328-1.337,1.415-2.228,2.07-3.333l-0.548-0.777c-1.194,1.218-1.851,2.667-2.5,3.998c-2.179-7.776,1.521-15.665,6.855-20.887
			l3.812-2.109C15.84,34.75,11.705,37.528,9.962,41.306L9.962,41.306z"/>
		<path fill="#22945F" d="M8.896,55.402l-2.303-0.211c-2.442-8.72,2.109-17.139,7.182-22.104l0.268-0.197l3.812-2.109l1.518,1.914
			c-0.861,0.952-1.883,1.894-2.933,2.86c-1.96,1.801-3.98,3.66-5.121,5.802c1.165-0.666,2.387-1.277,3.731-1.68l2.253-0.678
			l-0.964,3l-0.377,0.243c-0.688,0.438-1.421,0.795-2.163,1.155c-1.135,0.553-2.209,1.074-3.095,1.918l-0.46-0.418l-0.224,0.135
			l-0.1-0.12c-0.507,1.312-0.856,2.838-1.05,4.566c2.163-2.039,4.632-3.72,6.061-4.485l1.419,2.004l-4.426,4.042l0.382,0.543
			l-0.179,0.299l0.148,0.146c-0.291,0.406-0.616,0.798-0.941,1.18c-0.598,0.71-1.162,1.375-1.389,2.124L9.05,55.086
			c-0.002,0.005-0.005,0.011-0.01,0.021L8.896,55.402z"/>
	</g>
	<g>
		<path fill="#22945F" d="M15.404,32.417c-0.322-0.666-0.216-1.332-0.87-1.776l2.612-0.224L15.404,32.417L15.404,32.417z"/>
		<path fill="#22945F" d="M15.108,34.641l-0.816-1.685c-0.149-0.306-0.235-0.608-0.313-0.905c-0.034-0.13-0.085-0.329-0.12-0.371
			l0.57-2.273l2.613-0.223l1.038,2.045L15.108,34.641z"/>
	</g>
	<g>
		<path fill="#22945F" d="M9.091,47.083C8,46.082,12.898,43.86,14.969,42.527L9.091,47.083L9.091,47.083z"/>
		<path fill="#22945F" d="M9.025,48.7l-0.771-0.705c-0.409-0.377-0.609-0.9-0.546-1.436c0.157-1.361,1.903-2.405,4.742-3.999
			c0.696-0.39,1.354-0.759,1.847-1.074l1.429,2.019L9.025,48.7z"/>
	</g>
	<g>
		<path fill="#22945F" d="M11.705,47.193l-3.484,3.33c0.543-3.551,4.463-4.219,6.641-6.218
			C14.969,46.195,12.683,46.082,11.705,47.193L11.705,47.193z"/>
		<path fill="#22945F" d="M9.076,51.419l-2.08-1.082c0.458-2.984,2.833-4.34,4.745-5.429c0.86-0.492,1.676-0.957,2.282-1.515
			l1.923-1.768l0.149,2.608c0.117,2.041-1.488,2.762-2.447,3.192c-0.407,0.185-0.832,0.372-1.015,0.583L9.076,51.419z"/>
	</g>
	<g>
		<polygon fill="#22945F" points="14.098,53.528 14.425,54.193 14.317,56.528 		"/>
		<polygon fill="#22945F" points="13.084,56.621 12.864,53.621 15.208,52.98 15.676,53.935 15.553,56.587 		"/>
	</g>
	<g>
		<path fill="#22945F" d="M11.592,58.196c1.307-1.223,0.548-3.225,0.876-4.78C12.898,54.859,14.317,57.639,11.592,58.196
			L11.592,58.196z"/>
		<path fill="#22945F" d="M11.839,59.41l-1.094-2.119c0.428-0.399,0.433-1.065,0.403-2.123c-0.017-0.655-0.033-1.326,0.108-2.007
			l2.396-0.098l0.198,0.592c0.424,1.224,1.006,2.902,0.222,4.282C13.64,58.701,12.886,59.195,11.839,59.41z"/>
	</g>
	<g>
		<path fill="#22945F" d="M11.376,56.415c0.107,0.221,0.436,0.44,0.215,0.666c-0.323,0-0.758,0.112-0.979-0.333l0.871-3
			C11.376,54.634,11.376,55.969,11.376,56.415L11.376,56.415z"/>
		<path fill="#22945F" d="M11.242,58.334c-1.067,0-1.548-0.65-1.737-1.038l-0.216-0.431l1.006-3.465l2.417,0.5
			c-0.081,0.655-0.095,1.58-0.099,2.147c0.64,0.97,0.063,1.692-0.137,1.898l-0.364,0.372L11.242,58.334z"/>
	</g>
	<g>
		<path fill="#22945F" d="M9.962,56.083c-1.308-0.559,0-1.997,0.543-2.78L9.962,56.083L9.962,56.083z"/>
		<path fill="#22945F" d="M10.885,57.82l-1.409-0.598c-0.82-0.354-1.131-0.931-1.243-1.352c-0.312-1.146,0.473-2.207,1.045-2.985
			l0.21-0.287l2.232,0.943L10.885,57.82z"/>
	</g>
	<g>
		<path fill="#22945F" d="M9.634,57.081c-0.22-0.445-0.656-0.445-0.979-0.445h0.979V57.081L9.634,57.081z"/>
		<polygon fill="#22945F" points="9.634,57.874 8.837,57.874 8.814,57.561 8.656,57.6 8.656,57.081 8.396,57.081 8.396,56.635 
			8.656,56.635 8.656,55.397 10.873,55.397 10.873,57.081 9.634,57.369 		"/>
	</g>
	<path fill="#FFFFFF" d="M77.257,7.199c-0.651,0.22-1.194,0.555-1.522,1.221c-0.106,0.333-0.106,0.668-0.22,0.889
		c-0.544,1.11-0.871,2.222-1.307,3.222c-0.871,1.779-0.871,3.666-0.979,5.667c-0.106,1.001,0.216,2.109-0.215,3.11
		c-0.328,0.888-0.656,1.666-0.764,2.555c0,0.223,0.106,0.555,0.106,0.891c-0.654,3.221-0.543,6.442,1.087,8.997
		c0.328,0.445,1.526,0.556,1.747-0.333c0.216-0.555-0.328-1.11-0.764-1.666c-0.112,0.112-0.22-0.109-0.436,0
		c-0.107-0.444,0.436-0.777,0.436-1.11c0-0.665,0.543-1.224,0.328-1.89c-0.221-0.666-0.221-1.443-0.328-1.999
		c-0.543-1.778-1.091-3.556-0.983-5.443c0,0,0.328,0,0.328-0.11c0.327-1-0.107-1.999,0.221-3c0.436-1.223-0.107-2.777,0.322-4.11
		c0.44-1.445,1.092-2.557,1.747-4.001c0.871-1.442,2.285-2.222,3.699-2.887c-1.086-0.223-2.721-0.668-3.376,0.443L77.257,7.199
		L77.257,7.199z"/>
	<path fill="#FFFFFF" d="M61.469,11.087c-0.543,0.333-0.979,0.778-1.091,1.443c0,1.001,0.764,1.889,1.525,2.112
		c1.088,0.333,2.395-0.224,3.05-1.224c0.544-0.777,0.216-1.775-0.437-2.332c-1.091-1.224-3.049-1.11-3.704,0.443L61.469,11.087
		L61.469,11.087z"/>
	<path d="M62.577,15.692c-0.32,0-0.642-0.046-0.951-0.141c-1.074-0.312-2.2-1.531-2.2-3.021c0.074-0.47,0.223-0.871,0.448-1.221
		l0.062-0.149c0.413-0.98,1.24-1.642,2.27-1.812c1.084-0.185,2.248,0.239,3.021,1.105c0.854,0.717,1.385,2.253,0.507,3.511
		C65.026,15.043,63.794,15.692,62.577,15.692z M61.322,12.768c0.066,0.414,0.52,0.863,0.85,0.962
		c0.654,0.19,1.552-0.174,1.987-0.832c0.267-0.382,0.008-0.861-0.258-1.086c-0.389-0.423-0.873-0.609-1.239-0.603l0.116,0.191
		l-0.812,0.5c-0.187,0.112-0.318,0.223-0.413,0.323L61.322,12.768z"/>
	<path d="M62.775,13.974c-1.307,0-1.525-0.776-1.307-2.109c0.436-0.335,0.764-0.778,1.415-0.556
		c-0.108,0.333,0.107,0.442,0.327,0.666c0.107-0.224,0.436-0.333,0.328-0.666C64.733,12.085,63.975,14.197,62.775,13.974
		L62.775,13.974z"/>
	<path fill="#FFFFFF" d="M51.995,45.859c3.264,1.557,6.641,1.446,9.909,2.443c3.484-0.441,7.186-0.555,10.238-2.664
		c0.107,0.999-0.656,1.887-1.312,2.555c-2.722,2.554-5.442,4.889-8.6,6.998c-0.328,0.226-0.764-0.439-1.307-0.332
		c-0.655,0.225-1.199,0.332-1.307,0.998c-0.112-0.333-0.328-0.44-0.437-0.553c-0.656-0.222-0.982,0.444-1.527,0.664
		c0-0.22-0.215-0.111-0.215-0.331c-3.925,2.222-8.716,3.558-11.001,7.889c-0.106,0.22-0.328,0.778,0,1.109
		c-2.178,1.331-4.576,2.33-6.641,3.998c0.215,1.005-1.092,1.005-1.307,1.669c0,0.227,0.436,0.666,0.106,0.887
		c-1.091,0.671-2.178,1.889-2.178,3.333c0,0.225-0.328,0.333-0.437,0.558c-0.327,0.666,0,1.443-0.655,1.889
		c0.22-0.111,0.112,0.227,0.22,0.227c-0.656,0.333,0,0.772,0.215,1.105c-0.651-0.333-2.064-0.333-1.958,0.332
		c0,1.005,0.215,2.556-0.22,3.554c-0.108-0.44-0.108-0.881-0.437-1.105c-0.322-0.333-0.763-0.666-1.086-0.891
		c-0.871-0.44-1.742-0.773-2.721-1.331c-0.656-0.445-0.221-1.111-0.221-1.781c0-0.221,0.436,0,0.436-0.108
		c0-1.109,0.221-2.222-0.328-3.22c-0.215-0.333-0.328-0.671-0.543-0.998c0.765,0.327,1.308-0.226,1.963-0.45
		c-0.436-0.997-0.871-1.996-1.419-2.994c0.656,0.22,1.634,0.333,1.851,0c0.763-1.558-1.087-3.006-1.087-4.669
		c-0.107-0.998-0.107-1.996-0.328-2.888c1.091,0.44,1.962,1.443,3.162,0.772c-0.328-0.332-0.113-0.665-0.328-0.998
		c1.086,0.112,2.069,1.448,3.155,0.333c0.222-0.221-0.106-0.886-0.327-1.225c0.436-0.106,0.871-0.106,1.307-0.106
		c0.548,0,1.091,0.891,1.634,0.225c0.221-0.333-0.215-0.891-0.106-1.336c0.106-0.337,0.764,0,1.198-0.337
		c-0.436,0.226-0.112-0.328-0.327-0.328c0-0.221,0.215-0.221,0.327-0.221c0.543,0.107,1.086,0.439,1.629,0.439
		c0.984,0,1.963-0.664,2.833-1.224c1.414-0.891,2.507-2.107,3.705-3.327c0.979-1.224,1.415-3.111,2.829-3.671
		c0.437-0.106,1.527,0.113,1.742-0.332c0.328-0.772,0.871-2.335-0.436-2.667c0.106,0,0.106,0,0.106,0
		c-0.323-0.223-0.543,0.333-0.758,0c-0.436-0.442-0.436-0.999-0.113-1.554c0.113-0.223,0.548-0.335,0.871-0.445
		C51.887,45.75,51.887,45.859,51.995,45.859L51.995,45.859z"/>
	<path fill="#FFFFFF" d="M54.608,39.75c-0.871-0.109,3.05,3.778,4.463,4.333c1.526,0.445,3.05-0.333,4.575-0.666
		c1.522-0.335,2.723-1.668,4.248-1.889c1.522-0.112,2.938-0.333,4.463-0.333c1.415-0.113,2.723-0.668,3.92-1.113
		c3.377-1.331,6.643-2.332,9.582-4.664c0.437-0.335-0.649,0.442-0.763-0.335c-3.372,1.224-4.791,1.446-8.275,2.667
		c-1.087,0.333-1.958,0.889-2.937,1.667c-0.871,0.556-1.854,0.778-2.726,0.778c-0.979,0-2.07,0.11-3.05,0.11
		c-0.979,0.111-1.958,0.333-2.94,0.668c-0.651,0.333-1.742,0.333-2.065-0.445c-0.22-0.445-0.111-1.556,0.651-1.444
		c0.763,0.11,1.525,0.11,2.396,0.224c0.979,0.22,2.065,0.333,3.156,0c2.722-0.778,5.119-2.223,7.732-3.224
		c0.65-0.223,1.742-0.333,1.958-1.333c-0.544-0.111-1.087,0.11-1.63,0.333c-2.179,0.668-4.248,1.779-6.427,2.444
		c-1.307,0.445-2.506,0.778-3.92,0.778c-0.654-0.11-1.307-0.333-1.962-0.445c-0.436-0.11-1.087-0.556-1.415-0.22
		c-0.22,0.22-0.436,0.666-0.436,1.11c-0.327-0.556-2.505,0.666-2.94,0.775C59.071,39.972,56.894,40.195,54.608,39.75L54.608,39.75z"
		/>
	<path fill="#FFFFFF" d="M61.361,46.638c1.851-0.778,3.372-2.109,5.334-2.888l0.108,0.333
		C64.518,45.859,64.518,45.639,61.361,46.638L61.361,46.638z"/>
	<path fill="#FFFFFF" d="M57.006,45.75c1.194-0.444,2.178-0.999,3.372-1.333c0.112,0,0.22,0.224,0.22,0.224
		c-1.854,1.221-2.07,1.11-3.919,1.442C56.678,46.195,56.786,45.859,57.006,45.75L57.006,45.75z"/>
	<path fill="#FFFFFF" d="M68.653,46.417c1.308-0.444,2.29-1.667,3.598-1.889c0.106,0-0.221,0.443-0.328,0.553
		C70.831,45.639,70.072,46.75,68.653,46.417L68.653,46.417z"/>
	<path fill="#FFFFFF" d="M49.054,65.302c0.437,0.112,1.091-0.665,1.414-0.997c-0.215,0.332-0.107,0.332,0,0.664
		c0.221-0.106,0.113,0.112,0.113,0.227c0,0.22,0.65-0.783,0.758-0.891c-0.107,0.997-0.979,2.661-0.65,3.553
		c0,0.111-0.107,0.665,0.107,0.45c0.22-0.118,0.436-0.118,0.656-0.339c0.436-0.553,2.284-3.891,2.828-4.557
		c0.221-0.22-0.107,0.227,0.107,0.333c-0.543,0.778-2.5,4.669-2.613,5.561c0,0.333,0.328,0.886,0.656,0.772
		c0.764-0.107,2.613-2.33,4.028-5.441c0.106,0.332-2.07,4.669-2.286,5.002c0.107,0,0.871-0.783,0.979-0.783
		c-0.215,0.558-1.198,1.889-1.086,2.672c0.107,0.439,0.543,0.553,0.979,0.439c0.65-0.22,1.086-0.891,1.635-1.33
		c-0.22,0.665-0.548,1.33-0.984,1.775c-0.106,0.112-0.436,0.112-0.65,0c-0.979-0.333-1.634-1.003-2.505-1.669
		c-0.979-0.665-1.522-1.556-2.179-2.555c-0.764-0.887-1.414-1.89-1.635-2.994C48.838,65.195,48.946,65.195,49.054,65.302
		L49.054,65.302z"/>
	<path fill="#FFFFFF" d="M60.926,71.189c0.543-0.66,0.651-2.223,1.087-2.882c0.107,0.548,0.327,0.998,0.22,1.551
		c0.437-0.22,0-0.22,0.323-0.445c0.112-0.106-0.106-0.998,0.112-0.891c0.216,0.111,0.543,0.891,0.65,0.891
		c0.543,0.227,0.543-0.998,0.764-1.442c0.216,0.997,0.216,2.888,0.107,3.891C63.211,71.527,61.904,71.527,60.926,71.189
		L60.926,71.189z"/>
	<path fill="#FFFFFF" d="M61.577,56.19c0,0,0.436,11.112-4.899,17.334C56.678,73.524,63.319,67.417,61.577,56.19L61.577,56.19z"/>
	<path fill="#FFFFFF" d="M63.539,57.526c0,0,1.958,1.552,2.064,4.775c0,0,0.328-2.667-1.958-5.108L63.539,57.526L63.539,57.526z"/>
	<g>
		<path fill="#E42728" d="M42.628,29.196c0.983,4.333,2.94,9.555,6.969,11.887c1.742,1.001,4.468,0.778,6.098-0.109
			c0.549-0.335,1.855-0.113,2.07,0.442c0.112,0.889,0.656,1.557,1.307,2.111c0.112,0.333-0.327,0.778-0.65,1.001
			c-0.764,0.443-1.635,0.888-2.398,1.221c-1.415,0.556-2.721-0.333-4.135-0.556c-0.548-0.112-0.871-0.555-1.307-0.666
			c-0.437,0-0.656-0.333-0.984-0.445c-0.65-0.109-1.307-0.666-1.85-1.11c-0.651-0.333-1.742-0.889-2.179-1.557
			c-2.178-3.109-2.612-5.443-3.705-8.887c-0.543-1.889-1.307-3.666-0.436-6.11C42.085,27.084,42.3,28.195,42.628,29.196
			L42.628,29.196z"/>
		<path d="M55.056,47.836c-0.91,0-1.705-0.25-2.408-0.472c-0.347-0.11-0.696-0.229-1.057-0.286c-0.761-0.154-1.24-0.481-1.526-0.678
			l0.002-0.012c-0.58-0.11-0.982-0.388-1.2-0.536c-0.713-0.078-1.61-0.815-2.267-1.354c-0.551-0.252-1.918-0.952-2.628-2.041
			c-1.936-2.763-2.616-5.027-3.406-7.653l-0.73-2.405c-0.524-1.73-1.181-3.881-0.203-6.622l1.021-2.865l2.137,2.168
			c0.855,0.869,1.187,1.978,1.478,2.954l0.174,0.567c0.9,3.925,2.644,8.82,6.112,10.83c0.448,0.259,1.106,0.4,1.847,0.4l0,0
			c0.861,0,1.774-0.206,2.382-0.536c1.068-0.652,3.946-0.68,4.762,1.43c0.134,0.616,0.225,0.888,0.766,1.351l0.401,0.34l0.169,0.499
			c0.376,1.118-0.149,2.339-1.375,3.185c-0.952,0.558-1.895,1.04-2.719,1.398C56.193,47.731,55.633,47.836,55.056,47.836z
			 M53.395,43.599c0.135,0.042,0.271,0.083,0.406,0.127c0.634,0.2,1.177,0.382,1.524,0.248c0.35-0.152,0.749-0.346,1.151-0.557
			c-0.101-0.174-0.19-0.35-0.269-0.527C55.411,43.239,54.422,43.496,53.395,43.599z"/>
	</g>
	<path fill="#FFFFFF" d="M31.96,49.643c0.215,0.106,0.431,0.106,0.543-0.118c-0.22,0.333-0.437,0.666-0.22,0.891
		c0.22,0.107,0.436-0.226,0.655-0.333c0,0.22-0.106,0.22-0.22,0.22c-0.108,0.113-0.108,0.339-0.108,0.445
		c-0.106,0.227-0.106,0.445,0.108,0.666c0.113,0.226,0.328,0.333,0.548,0.112c0.215-0.22,0.437-0.445,0.758-0.665
		c-0.322,0.445-0.436,1.11-0.107,1.551c0,0,0.107,0.117,0.221,0c0.215-0.333,0.543-0.665,0.871-0.998
		c0.215-0.221,0.65-0.221,0.979-0.333c-0.22,0.227-0.436,0.333-0.655,0.445c-0.323,0.338-0.651,0.553-0.871,0.886
		c-0.108,0.117-0.215,0.227-0.108,0.333c0,0.227,0.222,0.45,0.437,0.338c0.871-0.554,1.526-1.219,2.397-1.669
		c-0.221,0.45-0.764,0.665-1.092,1.115c-0.215,0.333-0.436,0.666-0.65,1.105c-0.112,0.112-0.112,0.559,0,0.672
		c0.216,0,0.216,0.444,0.437,0.326c0.436-0.326,0.649-0.771,1.086-0.998c0.221-0.22,0.328-0.333,0.543-0.553
		c0.763-0.671,1.419-1.557,2.398-1.89c0.215,0,0.327-0.22,0.543-0.22c-0.107,0.333-0.543,0.553-0.764,0.665
		c-0.107,0.107-0.322,0.107-0.436,0.226c-0.651,0.998-1.522,1.664-2.394,2.442c-0.22,0.326-0.436,0.665-0.328,0.997
		c0.108,0.333,0.656,0.554,1.093,0.445c0.215-0.112,0.322-0.226,0.322-0.445c0.549-0.777,1.092-1.336,1.855-1.889
		c0.436-0.221,0.758-0.554,1.194-0.887c0.655-0.337,1.307-0.559,1.962-0.782c0.215-0.107,0-0.221,0.106,0.117
		c-1.521,0.772-2.393,1.664-3.483,2.995c-0.328,0.332-0.764,0.665-0.764,1.109c0.437,0.222,1.199,0.339,1.635,0.222
		c0.655-0.222,1.198-0.666,1.741-1.106c0.543-0.45,0.979-1.115,1.527-1.556c0.436-0.333,0.65-0.892,1.194-1.116
		c0.328-0.22,0.763-0.333,1.312-0.439c0.108,0,0.437,0,0.437,0.221c0,0.337-0.437,0.444-0.656,0.777
		c-0.328,0.445-0.543,0.777-0.979,1.115c-0.764,0.666-1.307,1.219-2.178,1.771c-0.328,0.226-0.548,0.226-0.871,0.333
		c-0.764,0.117-1.419,0.117-2.069,0.117c-0.871,0.106-1.636-0.226-2.613-0.45c-0.22,0-0.543,0-0.765-0.221
		c-0.87-0.886-1.413-1.669-2.284-2.441c-0.543-0.559-1.199-1.003-1.636-1.669c-0.327-0.553-0.543-1.225-0.543-1.884
		C31.96,49.643,31.96,49.643,31.96,49.643L31.96,49.643z"/>
	<path fill="#FFFFFF" d="M67.459,83.076c0,0-11.216,6.666-26.573-3.66c-0.107-0.117-0.328-0.333-0.65-0.333
		c-0.112-0.117-0.327-0.117-0.327-0.225c-0.543-0.559-0.656-1.225-1.414-1.664c-0.328-0.227-0.765-0.559-1.093-0.783
		c-0.87-0.333-1.307-1.556-2.178-1.556c-0.436,0-0.215,0.891-0.436,1.447c-0.107,0.333-0.215,0.773,0.107,0.998
		c0.221,0.227,0.656,0.227,0.871,0c0.548-0.333,1.091-0.444,1.419,0.112c0.323,0.445,0.323,0.778,0.758,1.111
		c0.549,0.333,0.437,0.221,0.871,0.558c0.328,0.216,1.091,0.886,1.419,1.106C40.235,80.189,53.409,89.742,67.459,83.076
		L67.459,83.076z"/>
	<path fill="#FFFFFF" d="M35.987,81.188c0.107,0.117,0.216,0.333,0.328,0.45c0.65,0.772,0.979,0.999,1.194,1.552
		c0.328,1.556,1.527,2.667,1.199,4.223c-0.979-1.443-1.199-3-2.179-4.443C36.095,82.411,35.767,81.858,35.987,81.188L35.987,81.188z
		"/>
	<path fill="#FFFFFF" d="M57.985,81.08c0,0,3.157,0,5.227-0.666C63.211,80.414,61.469,81.521,57.985,81.08L57.985,81.08z"/>
	<path fill="#FFFFFF" d="M75.95,39.75c0.548,0.557,1.307,0.445,1.85,0.557c0.112,0,0.548,0.111,0.328,0.333
		c-0.871,0.777-1.958,0.891-2.829,1.667c-0.328,0.112-0.764,0.668-0.437,0.777c0.979,0.224,1.851-0.665,2.829-0.888
		c0.655-0.223,1.419-0.445,1.962-0.999c0.217-0.223,0.437-0.558,0.765-0.778c0.871-0.444,1.63-1.11,2.501-1.666
		c0.548-0.223,0.763-0.668,1.198-1.001s0.436-0.666,0.764-0.888c0.436-0.223,0.651-0.223,0.543-0.778
		c0,0.11-0.437-0.665-0.107-0.777c-0.543,0.223-0.979,0.555-1.525,0.777c-0.651,0.333-1.308,0.557-1.852,0.778
		c-1.634,0.666-3.155,1.221-4.683,1.999c-0.216,0.11-0.323,0.556-0.651,0.666L75.95,39.75L75.95,39.75z"/>
	<path fill="#FFFFFF" d="M85.532,32.529c-1.631,0.223-3.266,0.666-4.791,1.111c-0.108,0,0,0.223,0,0.333
		c0.326,0,0.654,0.111,0.87,0.111c1.526,0,2.833-0.777,4.141-1.445C85.645,32.639,85.645,32.529,85.532,32.529L85.532,32.529z"/>
</g>
</svg>
