<?xml version="1.0" encoding="utf-8"?>
<!-- Generator: Adobe Illustrator 16.0.0, SVG Export Plug-In . SVG Version: 6.00 Build 0)  -->
<!DOCTYPE svg PUBLIC "-//W3C//DTD SVG 1.1//EN" "http://www.w3.org/Graphics/SVG/1.1/DTD/svg11.dtd">
<svg version="1.1" id="Layer_1" xmlns="http://www.w3.org/2000/svg" xmlns:xlink="http://www.w3.org/1999/xlink" x="0px" y="0px"
	 width="121.918px" height="64.24px" viewBox="0 0 121.918 64.24" enable-background="new 0 0 121.918 64.24" xml:space="preserve">
<g>
	<path fill="#F7941D" stroke="#231F20" stroke-width="1.1896" d="M21.075,25.88c0,0-6.081,3.593-11.333,3.593
		s-7.394-4.354-8.848-5.805s2.626,2.35,7.462,0.415C13.196,22.149,17.344,22.149,21.075,25.88z"/>
	<path fill="#F7941D" stroke="#231F20" stroke-width="1.9067" d="M12.919,4.453c0,0-0.276,11.06,9.677,11.06
		c9.953,0,21.652-7.096,29.188,0.437c0,0-15.211,1.223-25.366,6.509C19.384,24.46,9.296,18.258,12.919,4.453z"/>
	<path fill="#F7941D" stroke="#231F20" stroke-width="1.9067" d="M56.783,15.237l16.592,1.104c0,0-8.572-15.388-23.501-15.388
		c-9.034,0-18.615,5.712-18.615,5.712s-4.514,1.936-9.034-2.579c-0.642,7.188,6.267,8.293,8.386,8.293s11.982-4.055,16.868-4.055
		C52.359,8.325,56.783,12.473,56.783,15.237z"/>
	<path fill="#FFFFFF" stroke="#231F20" stroke-width="1.1896" d="M121.137,48.987c-1.668-2.249-1.218-6.166-1.218-7.135
		c-2.378-2.379-18.767-11.247-19.606-12.081c-0.834-0.837,0.829-1.403,0.829-1.403s-6.695-2.832-10.309-4.286
		c-5.483-7.003-9.456-7.693-14.703-7.025c2.874,0.324,3.967,3.294,3.967,3.294C43.054,9.708,11.122,34.45,11.122,34.45
		c1.815,3.524,16.439,6.247,16.439,6.247s10.539-6.042,17.482-8.42c6.938-2.378,17.223-1.992,17.223-1.992s-1.223-1.801-3.021-4.565
		c3.854,0.386,14.912,5.208,16.456,5.85c1.539,0.643,1.353,0.893,1.539,2.956c0,2.252,2.688,9.581,10.735,9.581
		c5.591,0,6.65-2.992,7.135-2.514c0.479,0.484,7.389,5.275,7.389,5.275l-6.943-2.959c0,0-1.064,1.426-8.16,2.249
		c-9.575,0-13.368-8.031-13.757-12.016c-3.212-1.736-10.99-1.544-16.067-0.837c-5.078,0.707-18.699,8.93-18.446,9.961
		c5.912,1.031,11.762,6.042,11.762,6.042c2.576-3.343,8.037-6.425,15.814-7.006c-5.208,1.353-12.083,8.353-12.083,10.088
		c0,1.736,2.542,6.223,5.652,10.348c1.866-13.171,14.078-16.58,16.777-17.865c1.572,1.578,4.177,2.959,9.576,3.539
		c5.398,0.575,5.398-2.062,8.166-2.062c7.518,1.42,10.409,9.389,10.409,9.389l6.171,0.26c0,0,1.285,0.383,1.798-1.736
		c-4.948-0.389-6.425-2.254-7.135-2.958c-0.705-0.705-0.958-3.984,2.638-4.757c3.601-0.772,9.129,3.854,10.155,4.886l1.454,1.494
		C120.281,52.926,120.708,49.42,121.137,48.987z"/>
	<path fill="#231F20" d="M117.705,42.021c0,0-3.076-0.451-3.076,0.727c0.456,0.451,1.087,2.44,3.076,3.522
		C117.705,46.27,114.628,42.838,117.705,42.021z"/>
	<path fill="#231F20" d="M110.384,38.679c0,0-12.832-10.212-20.063-11.838c0,0.451,5.692,5.422,6.144,5.875
		c0,0,2.26-0.995,2.711-0.544C99.631,32.626,108.035,37.777,110.384,38.679z"/>
	<path fill="#231F20" d="M83.542,19.16c0,0,4.249,2.53,4.249,3.345l-5.422-1.175l2.17-0.454L83.542,19.16z"/>
	<path fill="#F7941D" d="M97.946,30.239c0.243,0.747-0.169,1.544-0.913,1.784c-0.749,0.24-1.544-0.169-1.786-0.913
		c-0.236-0.747,0.169-1.544,0.919-1.784L97.946,30.239z"/>
</g>
</svg>
