<?xml version="1.0" encoding="utf-8"?>
<!-- Generator: Adobe Illustrator 16.0.0, SVG Export Plug-In . SVG Version: 6.00 Build 0)  -->
<!DOCTYPE svg PUBLIC "-//W3C//DTD SVG 1.1//EN" "http://www.w3.org/Graphics/SVG/1.1/DTD/svg11.dtd">
<svg version="1.1" id="Layer_1" xmlns="http://www.w3.org/2000/svg" xmlns:xlink="http://www.w3.org/1999/xlink" x="0px" y="0px"
	 width="175.002px" height="191.743px" viewBox="0 0 175.002 191.743" enable-background="new 0 0 175.002 191.743"
	 xml:space="preserve">
<g>
	<path fill="#FFFFFF" d="M23.986,21.695L16.148,0l8.103,7.958l0.811-6.71l9.129,8.699l7.456-8.542l7.39,8.634l9.108-8.708
		l0.84,6.738l7.842-7.261l-7.505,21.128c0.704,0.431,1.346,0.939,1.898,1.538c2.432-0.668,5.03-0.385,6.674,1.823
		c1.148,1.542,1.43,3.612,0.944,5.448l-0.469,1.776l0.216,0.231l-0.601,1.01c-0.423,0.712-0.648,1.449-0.551,2.279
		c0.239,2.048,2.605,4.623,3.858,6.209c2.11,2.675,3.971,5.555,3.417,9.123l-0.313,2.017l-1.086-0.48
		c1.029,1.462,1.887,3.042,2.709,4.732c1.141,2.344,2.277,5.143,4.011,7.104c0.61,0.69,1.299,1.28,2.093,1.751l2.079,1.238
		l-1.981,1.39c-1.106,0.777-2.467,1.052-3.86,1.053c3.928,3.843,9.489,7.031,13.892,9.434c3.271,1.786,6.595,3.472,9.875,5.24
		c2.837,1.528,5.772,3.161,8.366,5.075c6.906,4.75,14.697,6.678,22.898,7.677l0.059,0.006l0.057,0.012
		c5.811,1.146,14.92,3.275,19.131,8.057c2.816-0.322,6.18-0.848,8.309-2.693c1.158-1.005,3.248-3.044,2.679-4.811
		c-0.774-2.399-5.618-4.014-7.837-4.612c-7.201-1.74-13.825-1.068-21.071-1.383c-1.124-0.049-2.247-0.126-3.366-0.244
		c-4.703-0.499-11.937-1.601-15.588-4.946c-2.082-1.904-2.332-3.509-2.646-6.103c-0.141-1.153,0.004-2.288,0.457-3.36
		c1.648-3.908,6.904-5.855,10.59-7.76c1.704-4.563,5.432-6.202,10.177-6.445l3.233-0.166l-0.739,1.039
		c5.452-1.376,10.431-0.794,15.664,2.364l5.64,3.404l-6.568-0.502c-0.352-0.026-0.7-0.009-1.047,0.05
		c-4.561,0.768-8.717,8.138-14.479,9.632c-3.823,1.047-6.965,0.493-10.003-1.79c-0.938,0.149-1.693,0.486-2.492,1.144
		c-0.4,0.33-1.72,1.501-1.539,2.153c0.272,0.97,2.869,1.838,3.717,2.08c1.344,0.382,3.5,0.828,4.905,0.794
		c7.569-0.182,15.423-0.129,22.948,0.783c4.243,0.515,9.004,1.373,12.919,3.156c4.604,2.096,7.112,4.952,7.608,10.008
		c0.258,2.645-0.094,5.236-1.266,7.635c-2.708,5.545-8.939,8.406-14.732,9.938c3.17,7.815,2.844,16.924,2.586,25.181
		c0.062,2.948,0.352,8.858,2.158,11.319c2.674,3.649,3.176,7.193,3.215,11.568c0.431,4.493,1.252,8.848,3.025,13.01
		c2.436,2.176,5.215,5.168,5.789,8.446l0.004,0.029l0.006,0.028c0.248,1.812,0.258,4.088-1.619,5.062
		c-0.695,0.358-1.356,0.392-2.11,0.464l-0.088,0.008l-14.651-0.265c-1.546-0.015-3.031-0.495-3.97-1.795
		c-2.222-3.077,0.313-8.591,2.392-11.255c0.477-0.783,0.24-1.643-0.104-2.443c-2.072-4.852-4.589-9.648-7.779-13.861
		c-3.583-2.998-6.958-6.185-10.071-9.668c-2.437-2.729-4.646-5.586-6.856-8.494c-0.235-0.311-0.47-0.619-0.705-0.928
		c-0.19-0.215-0.821-0.875-1.073-0.873c-0.234,0.021-0.955,0.824-1.171,1.063c-0.995,1.226-1.584,2.587-1.578,4.183
		c0.017,4.92,5.789,10.588,8.466,14.487l0.09,0.127l0.062,0.146c1.237,2.914,1.078,6.062-1.345,8.287
		c-3.957,4.226-5.963,7.787-8.127,13.047l-0.135,0.324l-0.264,0.236c-1.229,1.115-2.52,2.374-3.878,3.35
		c-0.935,1.885-2.329,3.312-4.479,3.769l-0.158,0.034H98.556l-0.106-0.016c-2.175-0.308-3.347-1.775-2.851-3.918
		c0.592-3.668,2.072-5.742,5.229-7.602l0.055-0.032l0.056-0.028c2.838-1.377,6.082-1.164,9.142-1.482
		c3.257-2.096,4.335-6.334,5.353-9.842c0.023-0.877-0.138-1.385-0.998-1.74l-0.158-0.066l-0.142-0.1
		c-5.657-3.986-12.909-9.434-17.062-15.069c-0.934-1.269-1.758-2.624-2.325-4.101c-0.174-0.448-0.371-1.279-0.563-1.699
		l-0.142-0.123l-0.138-0.285c-0.006-0.011-0.014-0.025-0.021-0.04c-0.15,0.017-0.335,0.052-0.492,0.075
		c-2.642,0.648-5.357,1.025-8.079,1.007c-0.16,0.312-0.342,0.603-0.548,0.872c7.777,4.377,12.986,12.291,12.986,21.34
		c0,3.834-0.941,7.571-2.738,10.961c-4.712,8.895-14.345,14.002-24.276,14.002c-7.774,0-15.364-3.129-20.556-8.754
		c0.248,0.325,0.502,0.653,0.763,0.982l0.278,0.352l0.05,0.446c0.249,2.2-0.741,3.897-2.911,4.535l-0.219,0.062l-24.513-0.111
		l-0.301-1.172c-0.704-2.732-0.799-5.728,0.953-8.104c2.626-3.563,8.235-4.062,12.338-4.058c0.105-0.035,0.207-0.09,0.272-0.178
		c0.343-0.455,0.227-1.822,0.15-2.523c-3.15-7.891-4.435-15.061-5.046-23.491l-0.003-0.046l-0.001-0.045
		c-0.023-1.559-0.304-3.04-1.224-4.325c-4.496-5.866-5.245-12.067-6.004-18.862c-2.718,1.649-5.68,1.738-9.131,1.188l-2.572-0.41
		l1.568-2.079c3.865-5.124,6.192-10.779,5.715-16.962c-2.048,2.103-4.575,3.198-8.087,2.674l-2.731-0.407l1.753-2.134
		c2.785-3.392,3.607-6.752,2.776-10.503c-0.114,0.245-0.22,0.496-0.321,0.752l-1.18,2.999l-1.628-2.782
		C7.382,92.728,6.581,85.442,8.04,78.642c-0.49,0.858-0.911,1.763-1.286,2.675L5.05,85.471l-1.249-4.312
		c-1.358-4.694-1.3-9.726,0.2-14.378c0.702-2.181,1.836-4.554,3.344-6.514c-2.051-0.359-3.994-1.153-5.488-2.702L0,55.64
		l2.583-0.679c7.782-2.041,7.413-16.976,11.559-21.887l-0.208-1.51c-0.39-2.819-0.122-6.305,2.858-7.617
		c1.136-0.5,2.413-0.536,3.62-0.308l-0.191-0.241l1.789-0.843C22.666,22.246,23.325,21.959,23.986,21.695L23.986,21.695z"/>
	<path fill="#2E3191" d="M24.843,187.695c7.692,0.035,15.384,0.071,23.076,0.104c1.458-0.428,1.956-1.439,1.795-2.855
		c-11.156-14.078-12.33-28.018,6.232-41.676c1.443,1.102,2.828,2.223,5.551,1.044c0.299-0.198,1.002-0.334,1.327-0.163
		c0.247,0.314,0.375,0.389,0.621,0.707c2.06,0.846,4.298,1.139,6.853,0.436c0.233-0.258,0.466-0.514,0.699-0.77
		c0.409-0.021,0.819-0.045,1.228-0.066c0.405,0.467,0.811,0.938,1.214,1.402c3.106,0.383,5.849,0.245,8.461-0.08
		c1.038-0.486,1.9-1.292,2.376-2.803c2.701,0.126,5.625-0.162,8.819-0.953c0.777-0.064,1.592-0.467,2.219,0.82
		c1.27,1.113-1.146,5.978,19.722,20.682c1.167,0.486,2.056,1.329,1.956,3.438c-0.764,2.611-2.039,8.562-6.391,11.108
		c-3.041,0.359-6.387,0.116-8.979,1.374c-1.979,1.165-3.855,2.553-4.487,6.559c-0.262,1.059,0.028,1.853,1.531,2.062
		c5.631,0,11.265,0,16.897,0c1.371-0.29,2.612-1.155,3.562-3.28c1.271-0.854,3.025-2.52,4.066-3.466
		c2.029-4.924,3.9-8.688,8.476-13.563c1.603-1.444,2.22-3.701,1.005-6.559c-3.816-5.561-12.652-13.402-6.785-20.574
		c1.219-1.345,2.424-2.748,4.646-0.16c4.418,5.793,8.549,11.479,17.557,18.992c2.828,3.701,5.534,8.373,8.08,14.332
		c0.6,1.383,0.756,2.725-0.053,3.967c-2.613,3.299-5.252,10.521,0.314,10.576c4.859,0.088,9.717,0.176,14.576,0.266
		c1.357-0.127,2.833-0.031,2.323-3.756c-0.429-2.441-2.442-5.049-5.546-7.775c-1.992-4.542-2.848-9.186-3.289-13.869
		c-0.029-3.549-0.264-7.104-2.915-10.727c-1.468-2-2.331-5.949-2.461-12.252c0.29-9.291,0.547-18.567-3.216-26.248
		c10.99-2.452,17.478-7.744,16.635-16.344c-0.555-5.66-3.348-13.459-41.879-12.535c-2.508,0.06-15.203-1.958-8.116-7.8
		c1.269-1.044,2.492-1.45,3.947-1.565c2.25,1.847,4.911,3.062,9.136,1.909c5.896-1.53,10.189-10.18,16.053-9.732
		c-4.492-2.711-9.742-4.171-17.688-1.164c-0.207-0.636-0.007-1.25,0.422-1.852c-4.103,0.21-7.556,1.463-8.978,5.977
		c-4.476,2.425-11.405,4.625-10.771,9.838c0.314,2.594-0.201,7.874,16.846,9.678c7.902,0.836,15.682-0.508,24.66,1.667
		c4.961,1.332,14.025,4.98,5.797,12.122c-2.102,1.824-4.826,2.597-10.015,3.162c-2.931-3.988-9.919-6.431-18.753-8.17
		c-8.34-1.017-16.407-2.989-23.619-7.957c-9.04-6.679-28.184-13.222-35.154-23.2c3.212,0.864,5.508,0.812,6.891-0.158
		c-5.947-3.539-5.827-11.839-12.331-17.397c1.424-0.106,2.818,0.09,4.172,0.688c1.134-7.298-10.38-11.684-6.521-18.172
		c-1.434-1.533-3.196-1.773-5.545,0.291c-0.194-0.123-0.387-0.246-0.581-0.37c1.443-3.399,3.411-5.424,6.812-2.538
		c0.849-3.211-1.381-7.148-6.652-5.039c-1.547-2.359-5.01-3.889-11.273-4.204c-2.057,1.538-3.984,3.282-5.547,5.597
		c-0.177-1.956,0.211-3.913,0.74-5.871c-6.033,0.003-13.158-0.984-21.916,3.143c0.635,0.798,1.393,1.145,1.69,3.172
		c0.042,0.33-0.085,0.439-0.291,0.451c-0.554-2.038-9.932-5.948-8.59,3.754c2.038-3.902,6.908-1.662,6.716,2.698
		c-1.666-1.306-2.887-1.959-5.756-0.82c-4.856,1.929-3.793,20.713-13.465,23.25c1.503,1.559,3.892,2.534,7.858,2.468
		C6.805,61.941,2.447,70.86,5.303,80.722c1.43-3.487,3.367-6.421,6.416-8.145c-2.023,4.308-5.439,15.17,0.556,25.417
		c0.518-1.314,1.173-2.565,2.324-3.598c1.984,4.85,2.101,9.784-2.113,14.915c4.488,0.669,6.872-1.821,8.819-4.972
		c1.877,7.693-0.263,14.904-5.427,21.75c3.479,0.556,6.922,0.634,10.119-2.635c0.858,7.18,1.077,14.475,6.028,20.924
		c0.88,1.219,1.497,2.812,1.532,5.234c0.507,7,1.404,14.244,5.017,23.217c0.25,2.176,0.271,4.18-1.742,4.655
		C28.16,177.446,22.829,179.866,24.843,187.695L24.843,187.695z M25.317,20.772c10.55-2.168,21.363-2.654,32.689,0.185
		c1.738-4.892,3.477-9.785,5.214-14.678c-1.804,1.671-3.607,3.341-5.412,5.012c-0.277-2.226-0.554-4.452-0.832-6.677
		c-2.686,2.566-5.37,5.133-8.055,7.699c-2.429-2.837-4.858-5.676-7.287-8.514c-2.447,2.803-4.894,5.606-7.34,8.409
		c-2.685-2.557-5.369-5.116-8.055-7.673c-0.272,2.256-0.545,4.513-0.818,6.77c-1.821-1.79-3.643-3.58-5.465-5.369
		C21.744,10.881,23.53,15.827,25.317,20.772L25.317,20.772z"/>
	<path fill="#EC1C24" d="M83.749,146.67c7.445,4.08,12.434,11.562,12.434,20.108c0,12.919-11.396,23.397-25.448,23.397
		c-14.052,0-25.45-10.479-25.45-23.397c0-8.715,5.186-16.319,12.874-20.348l4.017-0.308l0.903,0.783h0.002H63.08l1.473,0.455
		c-0.381,1.49-0.651,3.034-0.819,4.631c-3.832,1.062-7.144,2.742-10.271,4.653c-0.205-0.532-0.466-1.022-0.78-1.47
		c-1.984,3.023-3.125,6.562-3.125,10.34c0,1.238,0.123,2.449,0.358,3.628c0.556-1.104,1.067-2.22,1.541-3.374
		c3.432,2.012,6.865,3.479,10.296,4.15c-0.233,3.547,0.096,7.174,0.371,10.791c-1.7-0.094-3.362-0.092-4.993,0.004
		c3.898,3.109,9,5.008,14.589,5.029c-0.684-0.998-1.427-1.979-2.205-2.945c3.723-1.766,6.628-3.74,8.45-6.004
		c2.668,0.77,5.288,1.263,7.815,1.22c-0.447,1.301-0.778,2.626-1.033,3.962c3.525-2.295,6.285-5.497,7.859-9.236
		c-0.625-3.062-1.576-6.185-3.605-9.48c1.236-1.741,2.4-3.527,3.415-5.404c-1.371-3.042-3.535-5.715-6.258-7.803l-4.391-0.377
		l-1.531-2.102l1.751-0.07L83.749,146.67L83.749,146.67z M85.57,163.102c-1.122-4.533-3.278-7.721-5.809-10.42
		c-4.4-0.37-8.52,0.388-12.356,2.273c0.118,3.871-0.31,7.658-1.531,11.319c3.983,2.417,8.023,4.208,12.145,5.076
		C81.358,169.049,83.779,166.249,85.57,163.102L85.57,163.102z"/>
	<path fill="#FFFFFF" d="M50.191,17.347l4.807,0.767l0.078-4.773L50.191,17.347L50.191,17.347z M81.688,138.163
		c-0.883,0.271-0.858,2.871-1.801,3.389c-1.57,0.863-5.317,0.396-5.959-0.293c-0.348-0.377-0.521-2.485-1.164-2.487
		c-0.877-0.005-1.087,1.802-2.522,2.378c-1.442,0.579-4.396,0.678-5.849-0.115c-0.761-0.416-0.228-2.552-0.975-2.738
		c-0.782-0.194-1.62,1.692-2.41,1.847c-1.146,0.224-2.947,0.015-3.554-1.129c-0.364-0.687,0.388-2.794,0.551-3.203
		c2.764-6.944,10.573-4.37,17.136-5.024c4.016-0.4,5.146-3.429,2.535-4.047c-6.317-1.494-3.76-2.634-1.292-3.992
		c4.214-2.322,6.255-3.785,4.396-4.787c-5.296-2.852-1.881-4.883-1.018-7.11c2.1-5.417-1.247-8.646-2.377-12.882
		C74.277,86.314,83.597,86.1,88.951,87.149c4.55,0.892,19.741,10.711,25.319,12.587c10.176,3.423,26.836,3.897,32.237,9.735
		c5.365,5.797,8.669,12.505,7.368,21.154c-0.352,2.322-2.877,2.983-3.697,0.051c-3.394-12.125-9.929-16.123-15.658-18.666
		c-2.69-1.195-2.785,0.49-2.006,1.744c2.129,3.427,2.678,7.211,2.43,11.264c-0.146,2.374-1.104,2.914-2.351,0.636
		c-3.827-6.995-8.01-6.454-12.12-5.763c-7.519,1.266-12.693,2.961-14.943,1.375c-6.047-4.266-3.901-7.525-3.537-10.525
		c0.277-2.289-1.461-2.111-2.693-1.164c-3.441,2.649-1.963,8.193-2.164,12.377c-0.135,2.778,1.288,3.94-1.057,5.764
		c-2.814,2.191-5.405,4.666-7.921,7.193c-1.841,1.85-3.428,1.945-5.122,2.17C82.464,137.157,82.238,137.993,81.688,138.163
		L81.688,138.163z M51.926,98.042c0.653-12.312,18.986-9.285,17.801-26.707c7.03,11.75-3.615,20.089-5.333,28.722
		C62,96.515,63.123,90.052,64.183,88.541c-8.266,1.876-6.646,27.684-17.844,27.327c4.426-8.02,4.427-13.701,1.95-17.84
		c-3.647,1.328-6.925,7.125-7.537,10.566c-5.042-9.403,6.935-19.337,9.698-28.668C52.843,83.412,46.576,95.453,51.926,98.042
		L51.926,98.042z M43.142,53.273c-0.702,0.594-0.953,1.741-0.409,2.34c2.347,2.585,5.408,3.832,8.3,3.213
		c1.799-0.204,2.948-1.035,2.403-3.385c-0.362-1.561-0.952-3.081-1.954-4.576c-0.76-1.133-0.145-1.936,0.581-2.539
		c1.52-1.263,3.41-2.023,5.296-3.014c1.578-0.83,1.069-1.847,0.911-2.724c-0.223-1.926-0.822-2.847-1.678-3.081
		c-1.315,0.44-1.997,1.833-3.471,2.354c-6.16-1.906-4.918,1.803-5.835,2.446c-2.672-3.582,2.016-6.154,3.271-6.426
		c0.45-0.097,4.445,0.642,6.126,0.582c1.116-0.04,1.041-0.245,0.936-0.873c-0.513-3.105-1.563-4.87-2.943-5.435
		c-3.015-1.233-5.15-1.574-7.472-2.155c-1.38-0.268-3.582,3.811-5.518,5.739c-1.466-2.444-3.216-4.458-5.384-5.845
		c-2.389-0.021-3.822,0.825-5.336,1.613c-0.344,0.18-0.478,0.486-0.476,0.82c0.004,0.705,0.128,1.412,0.08,2.116
		c-0.043,0.615-0.371,0.864-0.687,0.952c-1.828,0.506-3.324,1.031-4.41,1.904c-0.583,0.47-0.332,0.924-0.119,0.925
		c1.94,0.017,3.834-0.377,5.769-0.502c1.432-0.092,1.967,0.166,2.456,0.397c1.564,0.738,3.092,1.49,3.855,3.12
		c0.124,2.229-0.784,6.365-0.106,6.611c2.568-0.257,4.886-0.366,6.812-0.079c1.074,0.16,2.182,0.248,3.195,0.634
		c1.13,0.432,1.064,1.298,0.238,1.904C46.142,51.362,44.499,52.125,43.142,53.273L43.142,53.273z M40.896,65.888
		c0.094,1.424,0.187,2.863-0.634,4.746c-3.202-3.246-6.844-2.736-7.419-5.276c-0.117-1.141-0.116-2.831,0.634-3.325
		c1.691-0.261,3.474-1.308,4.938-3.047c2.06,0.581,3.994,0.68,5.703-0.08c2.173,0.817,4.048,2.834,6.099,3.623
		c0.022,1.799-0.875,3.597-2.191,5.395c-1.591,0.737-2.943,1.774-4.198,2.936c-0.433-1.917-0.236-4.117-2.508-5.21
		C41.127,65.633,40.925,65.598,40.896,65.888L40.896,65.888z M40.383,53.326c0.195,0.84,0.209,1.654,0.159,2.459
		c-3.438,2.712-6.373,3.661-8.755,2.671c-2.709-0.838-1.9-1.91-1.796-2.936c0.51-1.549,1.076-3.06,1.796-4.468
		c1.204-1.836,2.451-1.955,3.723-1.111C37.088,51.174,38.664,52.414,40.383,53.326L40.383,53.326z M25.223,38.829
		c2.193,1.074,2.957,2.607,4.001,2.57c1.618,0.099,2.598,0.209,3.302-0.185c2.101-0.281,1.729,2.042,2.139,3.543
		c0.097,0.229-0.054,0.274-0.237,0.291c-0.46-0.53-1.048-0.846-1.823-0.847c-2.566-0.125-2.782,1.39-6.114,1.449
		C23.846,44.813,23.08,42.486,25.223,38.829L25.223,38.829z M30.397,97.844c-5.309-9.571,5.298-11.967,10.355-16.654
		C38.266,86.952,30.34,91.764,30.397,97.844L30.397,97.844z M83.273,162.202c-1.105-3.14-2.617-5.465-4.357-7.83
		c-3.379,0.188-6.469,0.762-9.426,1.508c2.649,0.302,5.299,0.603,7.948,0.898C79.424,158.122,81.358,159.872,83.273,162.202
		L83.273,162.202z M78.678,178.622c1.611,0.338,3.222,0.672,4.833,1.008c-0.281,1.689-1.088,3.238-1.792,4.721
		c-0.162-1.301-0.062-2.973-0.505-3.426C80.728,180.018,79.648,179.34,78.678,178.622L78.678,178.622z M91.589,162.676
		c0.582-0.779,1.139-1.744,1.402-2.631c0.979,3.396,1.214,7.119,0.361,10.586C92.978,167.816,92.608,164.991,91.589,162.676
		L91.589,162.676z M28.265,17.837l4.871-0.794l-4.567-3.781L28.265,17.837L28.265,17.837z M37.479,16.792l8.462,0.04l-4.352-4.454
		L37.479,16.792L37.479,16.792z"/>
</g>
</svg>
