<?xml version="1.0" encoding="utf-8"?>
<!-- Generator: Adobe Illustrator 16.0.0, SVG Export Plug-In . SVG Version: 6.00 Build 0)  -->
<!DOCTYPE svg PUBLIC "-//W3C//DTD SVG 1.1//EN" "http://www.w3.org/Graphics/SVG/1.1/DTD/svg11.dtd">
<svg version="1.1" id="Layer_1" xmlns="http://www.w3.org/2000/svg" xmlns:xlink="http://www.w3.org/1999/xlink" x="0px" y="0px"
	 width="107.618px" height="128.632px" viewBox="0 0 107.618 128.632" enable-background="new 0 0 107.618 128.632"
	 xml:space="preserve">
<g>
	<path fill="#807F83" d="M10.749,24.915c0,0,0,0,0.008,0h12.071c0.691,0,1.249-0.564,1.249-1.25c0-0.004-0.145-10.351-0.145-13.228
		v-0.034c0-2.363,0.495-4.423,1.358-6.15l0.413-0.775c-0.043,0.008-0.09,0.03-0.136,0.077L2.11,26.813
		c-0.046,0.038-0.074,0.087-0.09,0.138c0.487-0.24,1.151-0.568,1.244-0.609C5.308,25.419,7.783,24.915,10.749,24.915z
		 M104.686,22.382c-0.959-5.134-4.012-7.663-6.771-8.658c-2.977-1.076-9.014-2.19-16.597-3.084
		c-6.103-0.719-13.276-0.661-17.608-0.527c-0.52-3.562-3.017-6.815-5.813-7.941c-7.447-2.998-18.953-2.274-21.907-1.446
		c-2.348,0.656-4.944,2-6.392,4.073c-0.97,1.384-1.596,3.157-1.602,5.634c0,1.402,0.039,4.705,0.074,7.638
		c0.036,2.943,0.077,5.577,0.077,5.594c-0.003,2.621-2.126,4.752-4.758,4.756H11.314c-2.577,0-4.545,0.434-6.048,1.115
		c-1.506,0.685-2.572,1.605-3.381,2.696C0.273,34.396-0.008,37.068,0,39.796c0,0,0.022,2.227,0.561,6.538
		c0.445,3.337,4.063,26.646,7.501,33.734c1.331,2.758,2.219,3.905,4.837,5.122c5.832,2.497,19.155,5.274,25.399,6.069
		c6.233,0.798,10.144,2.474,12.476-2.413c0.008-0.014,0.467-1.216,1.099-2.981c2.025-6.136,2.306-11.576,2.306-15.515
		c0-0.401,0.588-0.418,0.588,0c0,2.779-0.53,12.617,6.9,15.258c2.935,1.041,9.021,1.968,15.206,2.694
		c5.594,0.643,9.65,2.842,9.65,17.189c0,8.729-1.831,9.926-11.415,9.926c-7.77,0-10.732,0.2-10.732-5.971
		c0-4.99,4.933-4.466,8.589-4.466c1.634,0,0.448-1.216,0.448-4.293c0-3.062,1.916-4.832,0.104-4.876
		c-12.642-0.35-20.084-0.017-20.084,15.799c0,14.354,5.496,17.021,23.44,17.021c14.072,0,19.032-0.459,24.839-18.488
		c1.151-3.558,3.933-14.418,5.613-32.652C108.392,65.963,106.322,31.165,104.686,22.382z M80.158,60.844
		c-1.738-0.06-3.411,0.05-4.971,0.301c0.44-3.544,1.902-7.893,7.083-7.711c5.736,0.198,6.54,5.619,6.559,9.291
		C86.414,61.646,83.418,60.959,80.158,60.844z"/>
</g>
</svg>
