<?xml version="1.0" encoding="utf-8"?>
<!-- Generator: Adobe Illustrator 16.0.0, SVG Export Plug-In . SVG Version: 6.00 Build 0)  -->
<!DOCTYPE svg PUBLIC "-//W3C//DTD SVG 1.1//EN" "http://www.w3.org/Graphics/SVG/1.1/DTD/svg11.dtd">
<svg version="1.1" id="Layer_1" xmlns="http://www.w3.org/2000/svg" xmlns:xlink="http://www.w3.org/1999/xlink" x="0px" y="0px"
	 width="185.541px" height="260.8px" viewBox="0 0 185.541 260.8" enable-background="new 0 0 185.541 260.8" xml:space="preserve">
<g>
	<g>
		<path d="M90.82,7.809c0.913,0.146,1.36-0.018,1.3-1.027c-0.027-0.43-0.208-0.786-0.409-1.163c-0.825-1.53-3.366-5.403-3.64-5.545
			c-0.229-0.119-0.383,1.866-1.016,2.911c-0.32,0.527-0.762,1.114-0.89,1.54c-0.054,0.179,0.072,0.487,0.206,0.725
			C86.905,6.204,89.452,7.59,90.82,7.809z"/>
		<path d="M184.308,106.134c-0.443,0.363-1.736,3.942-2.875,6.363c-0.298,0.631-3.867,5.253-4.545,5.884
			c-1.299,1.21-2.361,2.071-3.05,0.548c-0.835-1.839-0.618-4.729-0.137-6.364c0.321-1.1,0.752-2.188,1.366-3.284
			c1.273-2.271,4.609-6.172,5.817-8.349c0.825-1.483,2.706-5.789,2.188-7.389c-0.318-0.991-0.868-0.86-1.506-0.109
			c-0.68,0.806-2.229,3.459-3.215,5.145c-0.586,1.001-1.32,2.026-1.986,2.661c-1.125,1.083-2.912,2.348-3.281,3.032
			c-0.072,0.137-0.111,0.268-0.206,0.424c-0.427,0.699-4.414,3.784-4.414,3.784s-0.202-2.494-0.174-4.125
			c0.069-3.742,2.774-9.958,5.134-12.694c2.026-2.349,6.027-6.086,6.157-6.602c0.134-0.514-0.051-0.84-0.685-0.686
			c-0.567,0.142-1.16,0.552-1.75,0.958c-3.01,2.086-4.754,3.25-6.871,5.502c-2.401,2.556-4.42,5.479-5.61,8.388
			c-1.906,4.648-2.239,10.063-1.508,14.849c0.51,3.335,2.04,8.331,2.876,12.451c1.146,5.665,1.726,15.436,0.271,21.212
			c-1.119,4.453-3.5,8.229-7.009,11.291c-2.521,2.205-4.956,3.304-8.526,4.583c-0.475,0.171-0.9,0.318-1.574,0.413
			c-1.233,0.168-3.28,0.151-3.28,0.151s-1.831-6.09-3.086-8.946c-2.192-5.007-8.538-12.304-12.112-15.812
			c-1.418-1.395-5.637-4.953-7.008-5.912c-1.921-1.344-4.363-2.883-5.586-3.927c-4.25-3.632-10.027-12.094-12.249-17.557
			c-1.72-4.234-2.388-8.116-1.368-12.386c0.309-1.285,0.688-1.622,1.918-1.095c0.85,0.366,1.57,1.135,2.465,1.643
			c0.918,0.524,4.041,0.99,5.812,1.643c0.633,0.232,1.193,0.544,1.779,0.958c2.052,1.449,5.658,4.512,6.367,4.721
			c0.361,0.107,0.84,0.149,1.096-0.136c0.535-0.6-0.523-1.034-1.133-1.438c-0.479-0.319-1.08-1.025-1.472-1.676
			c-1.44-2.412-1.491-2.938-3.653-4.551c-0.254-0.188-0.496-0.358-0.793-0.479c-0.693-0.281-1.957-0.299-2.326-0.848
			c-0.137-0.205-0.071-0.344,0.178-0.451c0.861-0.372,3.582,0.575,4.136,0.89c1.472,0.838,3.661,2.987,4.312,3.146
			c0.293,0.073,0.508-0.026,0.615-0.479c0.164-0.705-0.225-1.269-0.615-1.71c-1.576-1.762-5.166-4.765-7.459-5.405
			c-1.545-0.431-1.877-0.231-3.562-1.164c-0.695-0.385-1.023-0.827-0.568-1.095c0.188-0.11,5.229,1.043,5.978,1.369
			c2.062,0.896,7.614,3.782,10.882,3.764c1.82-0.01,4.866-0.724,6.193-1.917c0.25-0.224,0.76-0.697,0.785-1.025
			c0.024-0.276-0.064-0.686-0.064-0.686s-0.337,0.015-0.619,0.069c-0.38,0.073-1.255,0.821-1.849,1.232
			c-0.325,0.227-2.384,0.684-3.075,0.684c-1.396-0.002-2.796-0.33-3.799-1.163c-1.374-1.137-3.18-3.54-4.512-4.516
			c-1.283-0.941-2.959-1.142-5.246-1.917c-1.389-0.473-3.375-1.382-4.479-2.053c-0.119-0.073-0.693-0.469-0.384-0.639
			c0.051-0.028,0.131-0.038,0.142-0.114c0.008-0.03,0-0.068,0-0.068s2.854,0.979,5.075,1.279c1.614,0.217,7.362-0.42,8.138-0.184
			c1.426,0.437,3.039,1.623,4.17,1.847c0.568,0.113,0.836-0.087,0.721-0.643c-0.032-0.135-0.047-0.16-0.151-0.247
			c-2.769-2.247-5.054-4.651-8.299-5.062c-0.642-0.081-2.92,0.02-2.924-0.541c0-0.222,0.876-0.495,1.483-0.622
			c1.433-0.298,2.912,0.01,4.381,0.822c1.985,1.095,1.981,1.455,3.629,1.847c1.433,0.341,3.976,0.785,5.098,0.067
			c0.38-0.241,0.273-0.997-0.033-1.23c-0.38-0.287-1.501-0.372-2.261-0.616c-0.329-0.107-0.593-0.246-0.854-0.411
			c-1.363-0.859-3.125-2.616-4.279-3.146c-2.836-1.312-4.739-0.392-6.639-2.696c-0.388-0.473-0.392-0.846-0.021-1
			c0.242-0.101,1.636,0.21,2.146,0.479c1.082,0.57,3.356,2.508,4.242,1.505c0.717-0.809-1.96-1.903-3.216-3.175
			c-0.321-0.326-0.61-0.906-0.344-1.136c0.087-0.074,0.235-0.051,0.413,0c1.197,0.344,3.627,1.974,5.271,2.53
			c0.741,0.252,1.32,0.285,1.914,0.616c0.792,0.444,3.233,3.905,4.695,3.216c0.807-0.38-0.38-1.22-0.864-1.669
			c-0.669-0.623-1.604-2.69-2.393-3.974c-1.2-1.949-2.451-2.824-4.217-3.524c-0.857-0.341-1.856-0.89-2.389-1.369
			c-1.18-1.058-2.068-2.843-3.007-3.557c-0.524-0.403-1.125-0.594-1.929-0.959c-1.271-0.575-1.562-0.775-1.327-1.258
			c0.265-0.544,0.597-0.557,1.487-0.526c0.141,0.004,0.17,0.01,0.304,0.05c2.29,0.706,6.476,1.866,6.866,2.146
			c0.82,0.588,1.39,1.413,2.188,2.12c2.025,1.792,4.454,2.672,6.881,2.463c0.955-0.081,2.223-0.229,2.053-0.958
			c-0.072-0.312-0.365-0.593-0.713-0.821c-0.963-0.63-3.365-0.981-4.592-1.71c-1.604-0.95-1.646-2.017-2.348-3.812
			c-0.561-1.426-1.744-2.75-2.916-3.647c-1.581-1.209-3.748-2.203-5.141-3.42c-0.504-0.442-2.494-2.493-1.812-3.012
			c0.126-0.097,0.365-0.061,0.618,0c1.346,0.328,4.052,2.08,6.227,2.807c1.62,0.542,3.494,0.756,4.446,1.299
			c1.295,0.736,2.684,2.343,3.628,2.737c0.358,0.149,3.05,0.833,3.868,0.273c0.499-0.34-0.012-0.957-0.539-1.3
			c-0.785-0.508-1.898-0.667-2.609-1.163c-0.228-0.16-0.416-0.354-0.582-0.574c-0.38-0.501-0.662-1.14-1.096-1.65
			c-0.746-0.877-2.884-1.85-3.625-2.729c-0.626-0.733-0.865-1.734-1.439-2.546c-0.92-1.293-3.42-2.851-4.858-3.448
			c-1.933-0.801-4.953-1.662-4.953-1.662s0.019-0.341,0.095-0.569c0.182-0.544,1.276-0.657,1.779-0.643
			c1.411,0.036,2.58,1.02,4.038,1.847c0.922,0.524,2.265,1.048,3.147,1.232c0.838,0.174,1.646,0.204,2.531,0.411
			c3.646,0.848,5.059,2.501,7.358,1.163c0.554-0.321,0.694-0.831,0.194-1.095c-0.435-0.229-1.232-0.166-1.938-0.342
			c-0.813-0.202-2.206-1.371-3.22-1.984c-1.153-0.699-2.944-0.836-4.627-1.711c-0.445-0.233-4.258-4.018-4.338-4.311
			c-0.076-0.283,0.127-0.523,0.48-0.411c0.658,0.211,1.672,1.257,2.598,1.848c1.477,0.939,3.994,1.168,5.887,0.82
			c1.469-0.268,1.942-0.573,2.875-0.547c0.457,0.013,2.129,0.653,2.505,0.958c0.067,0.054,2.271,2.891,2.851,2.253
			c0.044-0.047,0.083-0.114,0.119-0.132c0.029-0.012,0.051,0.001,0.068,0c0.115-0.01,0.052-0.591-0.068-0.958
			c-0.253-0.793-2.268-2.495-2.97-2.942c-3.646-2.324-4.58-1.834-8.853-2.607c-1.896-0.343-2.062-1.26-3.785-3.266
			c-0.621-0.724-1.287-1.301-2.008-1.722c-1.513-0.883-4.975-1.807-4.421-3.079c0.166-0.383,0.361-0.301,1.011-0.278
			c0.137,0.004,0.17,0.01,0.299,0.05c3.293,1.035,6.99,2.577,9.504,2.623c2.845,0.051,4.617-0.69,6.363,0.068
			c1.014,0.438,2.196,1.388,3.285,1.779c0.857,0.308,2.366,0.61,2.188-0.137c-0.181-0.774-1.732-1.457-2.496-1.984
			c-0.89-0.615-1.644-1.576-2.456-2.19c-0.916-0.692-3.047-1.488-4.284-1.642c-0.922-0.114-1.639,0.058-2.463-0.137
			c-0.789-0.187-3.978-2.469-5.685-3.489c-0.496-0.299-0.955-0.51-1.707-0.753c-1.506-0.484-4.196-1.099-4.196-1.099
			s0.72-0.503,1.389-0.884c1.097-0.625,5.564-1.917,6.64-1.711c1.078,0.207,2.041,1.099,2.808,0.821
			c0.864-0.314,0.76-0.835,0.271-1.471c-0.97-1.261-2.492-2.089-3.557-2.224c-2.011-0.253-8.834,0.254-9.377,0
			c-0.104-0.047-0.199-0.103-0.3-0.14c-0.282-0.109-0.615-0.106-0.931-0.202c-0.317-0.095-2.02-1.915-3.119-3.01
			c-1.291-1.291-2.951-2.01-4.412-2.189c-0.999-0.123-2.312-0.1-3.475-0.133c-0.137-0.004-0.162-0.016-0.257-0.118
			c-1.2-1.292-2.456-2.813-3.62-3.856c-1.119-1-2.148-1.559-3.767-3.079C96.151,1.189,95.026,0,95.026,0s-1.154,3.356-1.469,4.797
			c-0.096,0.435-0.113,0.696,0,1.029c0.563,1.66,1.428,1.944,0.383,2.804c-0.839,0.69-1.662,0.634-2.9,0.391
			c-1.574-0.311-4.674-1.992-6.449-2.374c-0.798-0.173-1.899-0.219-2.876-0.138c-1.737,0.146-4.595,0.697-4.595,0.697
			s0.409,0.411,0.832,0.671c0.727,0.448,2.214,0.366,2.943,0.752c0.329,0.175,0.383,0.353,0.11,0.547
			c-0.897,0.639-3.426,0.024-4.286,0.07c-0.481,0.025-2.93,0.659-3.42,1.232c-0.118,0.134-0.138,0.284,0.033,0.427
			c0.056,0.047,0.076,0.051,0.215,0.04c1.239-0.098,2.928-0.358,3.721-0.262c1.649,0.199,4.521,1.532,5.611,1.574
			c0.552,0.022,1.36-0.055,1.368,0.315c0.003,0.094-0.074,0.202-0.201,0.313c-0.298,0.263-0.847,0.582-0.688,0.809
			c0.033,0.045,0.107,0.06,0.206,0.068c0.946,0.079,1.939-0.295,2.12,0.3c0.036,0.115,0.069,0.275,0.069,0.275
			s-2.936,1.111-4.927,2.094c-2.287,1.129-3.325,2.087-4.859,3.01c-1.1,0.662-8.245,3.913-10.813,4.448
			c-3.563,0.742-5.385,0.465-7.255,2.285c-1.396,1.362-3.681,5.414-3.902,7.5c-0.102,0.98,0.183,3.353,0.619,4.077
			c0.284,0.48,0.637,0.571,1.23,0.574c0.803,0.006,4.276-0.634,5.202-0.958c1.29-0.451,3.088-1.427,3.627-0.437
			c0.506,0.93-1.934,1.673-2.875,1.874c-1.518,0.326-3.824,0.518-3.628,1.711c0.167,1.011,1.903,1.562,2.806,1.642
			c0.658,0.057,1.346,0.06,2.053-0.068c1.621-0.292,3.699-1.452,5.34-1.847c0.696-0.168,1.916-0.198,2.806-0.069
			c3.25,0.47,9.869,2.374,11.497,2.463c1.588,0.087,3.301-0.122,4.953-0.199c0.139-0.005,0.167,0.005,0.266,0.099
			c1.754,1.625,0.714,3.421-0.292,6.054c-0.736,1.933-4.149,9.233-4.927,10.538c-0.688,1.157-1.395,2.208-2.189,3.325
			c-0.982,1.377-4.864,5.92-5.638,6.596c-1.324,1.152-2.224,1.704-3.464,3.312c-2.241,2.899-2.934,5.161-5.819,6.883
			c-1.33,0.794-3.262,1.298-4.721,1.917c-0.952,0.403-1.974,1.024-3.258,1.983c-1.874,1.399-4.681,3.67-4.681,3.67
			s-12.746-8.123-13.312-8.802c-0.376-0.45-0.631-0.874-0.991-1.334c-2.22-2.833-5.373-4.642-8.831-5.166
			c-5.171-0.785-7.794,4.09-10.468,8.723c-1.946,3.371-4.531,7.597-5.75,10.025c-0.845,1.679-1.572,3.364-2.465,5.063
			c-1.874,3.571-4.479,7.213-6.295,10.469c-0.431,0.771-0.814,1.519-1.026,2.327c-0.373,1.425-0.199,3.033-0.615,4.516
			c-0.411,1.454-1.451,2.871-1.986,4.173c-0.324,0.784-0.496,1.704-0.664,3.095c-0.195,1.605-0.433,3.953-0.433,3.953H0
			c0,0,0.022,0.956,0.14,1.437c0.27,1.124,2.729,0.247,3.882-0.182c3.084-1.144,7.942-3.786,8.437-7.071
			c0.233-1.559-0.708-1.504-1.711-4.105c-0.266-0.686-0.168-1.222,0.273-1.958c0.338-0.563,0.81-1.084,1.094-1.667
			c0.219-0.45,0.326-0.935,0.411-1.437c0.631-3.743,0.642-4.809,3.218-7.972c2.243-2.759,6.036-6.712,7.322-8.615
			c1.06-1.573,1.943-3.279,2.67-4.598c0.23-0.418,0.474-0.812,0.819-0.992c0.268-0.142,1.76-0.092,2.261,0.075
			c0.727,0.245,1.148,0.609,1.778,1.396c1.583,1.977,3.38,5.347,4.448,6.446c2.744,2.824,7.299,6.783,7.187,7.029
			c-0.407,0.9-3.225-0.807-4.175-1.323c-0.57-0.308-7.617-2.201-9.171-2.463c-4.777-0.804-6.644-1.553-10.164,1.506
			c-2.261,1.966-3.612,4.525-3.865,6.979c-0.069,0.667,2.843,24.147,3.079,24.837c0.448,1.306,0.951,3.119,0.958,3.765
			c0.029,2.185-0.411,2.763,0.959,4.968c0.761,1.229,1.868,2.237,2.668,3.476c0.805,1.245,1.698,4.196,2.668,6.296
			c0.611,1.314,3.589,6.266,5.369,7.771c1.61,1.369,2.703,0.821,4.008-0.982c1.992-2.758,2.055-9.564,0.912-12.135
			c-0.443-0.99-1.185-1.819-2.212-2.276c-1.352-0.603-4.058-1.218-4.058-1.218s-0.399-4.502-0.868-5.967
			c-0.302-0.94-0.801-1.67-1.233-2.465c-2.192-4.035-1.927-8.043-2.12-12.864c-0.045-1.08-0.126-2.181-0.412-3.216
			c-0.4-1.46-1.041-3.793-0.959-4.104c0.221-0.833,1.158-1.503,2.053-1.438c2.1,0.155,3.634,1.809,5.298,3.08
			c0.948,0.725,5.933,3.497,8.844,5.133c1.035,0.581,2.268,1.458,2.737,1.984c0.439,0.494,0.771,1.06,1.19,1.608
			c1.06,1.379,2.811,2.842,4.242,3.386c3.692,1.4,4.365,0.635,5.819,2.217c0.72,0.783,2.151,2.926,3.149,4.592
			c1.067,1.778,1.988,3.389,3.01,4.926c0.749,1.125,5.656,6.974,6.803,8.107c2.462,2.434,21.017,17.578,24.165,20.598
			c0.696,0.664,4.008,3.822,4.416,5.336c0.102,0.377,0.084,0.836-0.249,0.959c-0.142,0.051-0.308-0.002-0.478-0.068
			c-0.344-0.143-4.874-4.785-5.536-5.68c-0.346-0.467-6.805-5.598-7.152-5.682c-0.375-0.09-0.772-0.166-0.772-0.166
			s-0.293,1.016-0.459,1.81c-0.537,2.563-0.056,8.341,0.273,10.264c1.212,7.038,4.171,14.326,7.873,20.938
			c1.917,3.427,4.848,8.156,4.848,8.156s-0.689,1.832-1.29,2.859c-0.962,1.643-1.812,1.867-3.9,1.916
			c-3.813,0.085-9.26,0.15-11.363,0c-5.195-0.373-13.655-1.408-15.397-1.301c-0.943,0.058-1.858,0.178-2.737,0.41
			c-0.546,0.146-1.078,0.336-1.644,0.479c-1.465,0.369-7.185,0.31-9.58,0.753c-2.515,0.465-6.897,2.049-8.489,4.062
			c-1.19,1.515-0.463,2.428,1.098,3.531c0.633,0.447,4.88,2.354,5.953,2.67c2.273,0.668,5.747,1.592,7.187-0.438
			c0.38-0.536,0.669-1.224,1.096-1.787c0.834-1.106,1.93-1.815,3.077-1.606c0.896,0.162,1.753,0.75,2.67,0.957
			c0.523,0.121,1.869,0.039,2.753-0.164c5.141-1.188,5.789-1.32,12.577-0.725c2.182,0.19,8.786,1.233,10.405,1.643
			c3.71,0.937,9.755,2.609,10.88,2.736c1.676,0.19,3.043,0.184,3.97-0.916c0.364-0.435,1.646-3.23,1.711-3.736
			c0.073-0.539-0.202-2.33-0.479-3.147c-1.812-5.351-3.194-7.321-3.9-11.427c-0.188-1.122-0.441-8.059-0.34-9.376
			c0.242-3.11,1.18-6.81,2.531-9.851c2.055-4.631,5.103-8.004,6.228-12.182c0.491-1.822,1.026-4.723,1.026-4.723
			s0.283-0.002,0.479,0.07c0.613,0.219,0.383,2.709,0.344,3.078c-0.098,0.893-0.464,2.086-0.891,3.146
			c-1.219,3.052-4.721,9.021-6.227,12.658c-2.274,5.494-2.381,11.561-1.026,18.064c0.752,3.633,2.952,10.359,4.587,13.207
			c1.867,3.262,5.195,8.312,5.404,9.167c0.305,1.253-0.328,2.472-1.233,3.873c-0.438,0.679-4.131,4.57-5.028,5.296
			c-5.197,4.206-14.577,11.747-14.817,12.141c-0.692,1.121-1.103,2.297-1.919,3.367c-0.66,0.871-4.696,3.774-7.1,5.813
			c-0.695,0.592-2.715,2.983-3.026,3.585c-0.633,1.223-1.253,2.746-0.139,3.354c1.069,0.582,4.751,0.916,5.408,0.959
			c4.043,0.258,6.789,0.037,10.128-1.303c1.43-0.57,2.424-1.461,1.987-3.01c-0.345-1.201-0.927-1.988-0.481-3.146
			c0.232-0.6,0.768-1.043,1.395-1.396c2.119-1.197,3.062-1.197,3.878-3.395c0.166-0.447,0.239-0.883,0.409-1.299
			c0.252-0.617,0.863-1.359,1.438-2.025c4.396-5.09,5.412-6.402,10.361-10.223c1.315-1.02,5.454-3.654,6.335-4.037
			c1.667-0.724,3.859-1.478,4.178-3.215c0.293-1.623,0.12-5.397-0.48-6.844c-0.467-1.122-1.477-2.296-2.123-3.49
			c-1.668-3.082-1.562-6.683-0.135-9.646c0.571-1.19,1.121-2.093,1.85-2.943c0.744-0.881,9.511-6.86,12.97-9.784
			c2.769-2.345,8.526-9.279,9.612-13.412c0.64-2.426,1.33-6.838,1.711-7.354c0.496-0.671,1.494-0.573,2.055,0.267
			c0.764,1.137,0.706,2.93,0.547,4.282c-0.293,2.567-1.133,6.55-1.574,9.034c-0.129,0.736-0.098,2.012,0.069,2.598
			c0.278,0.993,0.89,2.33,0.89,2.33s0.203-1.941,0.547-3.355c0.492-1.993,1.276-2.932,1.643-4.311
			c0.312-1.15,0.246-4.595,1.85-4.859c0.887-0.145,1.117,1.49,1.229,2.533c0.308,2.778-0.127,4.959-1.356,7.971
			c-1.22,2.984-5.658,8.486-5.076,11.873c0.117,0.662,0.488,1.849,0.895,2.367c0.354,0.461,1.023,1.104,1.023,1.104v-2.84
			c0-0.138,0.004-0.168,0.051-0.3c0.561-1.623,1.22-2.809,2.412-4.41c3.404-4.567,4.236-4.569,6.023-8.854
			c1.133-2.713,1.52-4.562,1.85-7.459c0.091-0.812-0.159-4.33-0.344-4.789c-0.138-0.35-2.515-3.824-1.574-4.516
			c0.817-0.604,2.66,2.479,2.877,2.941c1.426,3.062,0.99,4.627,1.093,8.279c0.062,2.135,0.694,4.358,2.257,6.402
			c0.219,0.279,0.489,0.564,0.688,0.439c0.072-0.049,0.108-0.158,0.135-0.275c0.174-0.749-0.807-4.84-0.752-6.566
			c0.039-1.084,1.096-3.664,1.438-5.201c0.146-0.658,0.152-1.39,0-2.121c-0.448-2.17-2-6.211-1.849-6.608
			c0.203-0.535,1.77-0.787,3.693-1.534c6.271-2.436,11.026-8.961,12.594-14.301c1.133-3.854,1.513-7.875,1.097-12.111
			c-0.938-9.597-2.544-10.51-0.851-19.366c0.17-0.89,0.348-1.648,0.713-2.462c0.734-1.624,3.838-5.537,4.75-7.442
			c0.923-1.92,1.1-3.124,0.796-5.489C185.252,106.27,184.905,105.646,184.308,106.134z"/>
	</g>
	<path fill="#FFFFFF" d="M109.671,14.171c0.15,0.527-0.753,0.397-0.887,0.374c-0.561-0.097-3.078-0.694-2.539-1.646
		c0.488-0.853,1.906-0.526,2.431-0.095C109.017,13.084,109.522,13.671,109.671,14.171L109.671,14.171z"/>
	<path fill="#FFFFFF" d="M112.396,20.09c0.019,0.105-0.148,0.234-0.289,0.309c-0.604,0.315-2.924-0.631-3.19-1.136
		c-0.308-0.595,0.217-0.957,0.894-1.054c0.9-0.129,1.482,0.25,2.119,1.06C112.135,19.531,112.362,19.857,112.396,20.09
		L112.396,20.09z"/>
	<path fill="#FFFFFF" d="M93.04,20.536c0.021,0.088-0.055,0.249-0.138,0.342c-0.39,0.432-0.863-0.593-1.191-0.89
		c-0.328-0.296-0.767-0.417-1.23-0.528c-0.483-0.117-1.413-0.313-1.275-0.799c0.085-0.301,0.622-0.394,0.959-0.383
		C91.532,18.317,92.667,19.014,93.04,20.536L93.04,20.536z"/>
	<path fill="#FFFFFF" d="M70.202,25.609c-0.074,0.007-0.154,0.047-0.228-0.01c-0.106-0.084-0.204-0.383-0.204-0.383
		s2.105-0.776,3.626-1.328c1.473-0.534,3.697-1.593,4.312-2.053c0.481-0.36,2.614-2.312,3.12-1.947
		c0.561,0.405-0.447,1.574-1.027,2.221c-2.415,2.689-4.645,2.833-9.332,3.468C70.331,25.596,70.307,25.6,70.202,25.609
		L70.202,25.609z"/>
	<path fill="#FFFFFF" d="M86.605,23.341v0.068l-0.709-0.056c-0.138-0.011-0.161-0.018-0.237-0.082
		c-0.726-0.603,0.209-1.832,0.835-2.257c0.624-0.423,2.438-0.773,3.053-0.615c1.378,0.35,2.998,2.674,2.67,4.104
		c-0.177,0.769-0.718,1.228-1.3,1.026c-0.623-0.214-1.565-1.427-2.218-1.983c-0.286-0.243-0.639-0.364-1.067-0.343
		C87.208,23.224,86.605,23.341,86.605,23.341L86.605,23.341z"/>
	<path fill="#FFFFFF" d="M110.04,25.052l5.77,0.534c0.143,0.012,0.168,0.022,0.279,0.103c0.432,0.304,0.73,0.471,0.561,0.663
		c-0.383,0.433-2.435,0.218-2.734,0.274c-0.939,0.174-4.109,2.64-4.52,0.821c-0.104-0.471,0.037-1.441,0.275-1.848
		C109.815,25.353,110.04,25.052,110.04,25.052L110.04,25.052z"/>
	<path fill="#FFFFFF" d="M60.463,31.484c0.268,0.558-0.114,0.91-0.487,1.09c-0.425,0.208-0.957,0.454-1.398,0.824
		c-1.053,0.886-1.874,2.411-2.361,0.958c-0.318-0.956,0.642-3.879,1.986-4.175C59.09,29.988,59.986,30.492,60.463,31.484
		L60.463,31.484z"/>
	<path fill="#FFFFFF" d="M115.76,33.194c0.083,0.185-0.163,0.383-0.25,0.411c-0.321,0.102-1.874-0.241-2.069-0.304
		c-0.422-0.138-1.562-0.593-1.31-1.089c0.313-0.606,1.57-0.715,1.986-0.592C114.808,31.822,115.408,32.417,115.76,33.194
		L115.76,33.194z"/>
	<path fill="#FFFFFF" d="M93.011,33.451L89.342,38c-0.087,0.108-0.108,0.127-0.233,0.187c-0.26,0.124-0.506,0.251-0.791,0.344
		c-0.883,0.283-2.612,0.24-3.252-0.137c-0.331-0.194-0.166-0.476,0.199-0.752c0.94-0.713,2.653-1.14,4.113-2.121
		c1.44-0.969,2.746-2.515,3.434-2.737c0.305-0.099,0.33,0.027,0.305,0.394C93.108,33.315,93.098,33.344,93.011,33.451L93.011,33.451
		z"/>
	<path fill="#FFFFFF" d="M69.907,35.019c0.297,0.595-0.637,1.395-1.029,1.529c-0.486,0.167-1.043-0.281-0.957-0.89
		c0.096-0.648,0.926-1.253,1.507-1.026C69.629,34.71,69.837,34.881,69.907,35.019L69.907,35.019z"/>
	<path fill="#FFFFFF" d="M98.237,36.684c0.16,0.954-0.592,2.042-1.229,2.394c-0.412,0.23-2.714,1.077-3.216,0.822
		c-0.091-0.045-0.099-0.126-0.073-0.232c0.065-0.236,4.272-3.364,4.385-3.257C98.185,36.487,98.228,36.608,98.237,36.684
		L98.237,36.684z"/>
	<path fill="#FFFFFF" d="M116.172,38.189c0.166,0.609-0.34,0.657-0.821,0.547c-0.82-0.186-3.479-0.783-3.082-1.643
		c0.416-0.883,2.041-0.804,2.638-0.343c0.29,0.224,0.601,0.545,0.923,0.925C115.978,37.853,116.128,38.041,116.172,38.189
		L116.172,38.189z"/>
	<path fill="#FFFFFF" d="M99.679,39.353c0.34,0.711-0.645,1.851-1.057,2.189c-0.145,0.122-0.278,0.205-0.452,0.273
		c-0.392,0.163-4.334,0.273-4.858,0.139c-0.317-0.083-0.409-0.203-0.138-0.479c0.365-0.369,2.897-0.669,4.251-1.217
		c0.674-0.273,1.133-0.687,1.922-0.905C99.49,39.311,99.644,39.278,99.679,39.353L99.679,39.353z"/>
	<path fill="#FFFFFF" d="M116.787,43.526h-0.069v0.069c0,0-0.361,0.006-0.684,0c-0.891-0.016-4.092-0.755-3.422-1.938
		c0.455-0.812,2.029-0.802,2.768-0.294c0.395,0.269,0.816,0.812,1.137,1.165c0.125,0.146,0.241,0.257,0.271,0.52
		C116.81,43.246,116.787,43.526,116.787,43.526L116.787,43.526z"/>
	<path fill="#FFFFFF" d="M116.718,48.932c0.156,0.548-0.593,0.504-0.883,0.441c-0.51-0.111-4.02-0.782-3.359-1.919
		c0.563-0.97,2.166-0.8,2.84-0.301C115.962,47.632,116.517,48.206,116.718,48.932L116.718,48.932z"/>
	<path fill="#FFFFFF" d="M116.993,54.816c0.134,0.248-0.178,0.522-0.25,0.548c-0.73,0.25-4.033-1.131-4.164-1.209
		c-0.658-0.397-0.883-0.807-0.213-1.392c0.689-0.601,2.102-0.531,2.847-0.137C115.899,52.991,116.481,53.881,116.993,54.816
		L116.993,54.816z"/>
	<path fill="#FFFFFF" d="M97.692,54.201c0.039,0.34,0.031,0.863,0,1.368c-0.047,0.727-1.209,4.898-1.573,5.653
		c-1.19,2.452-3.581,5.899-5.681,8.34c-1.653,1.924-3.279,3.498-3.558,2.908c-0.078-0.162,3.435-5.796,5.407-8.895
		c0.757-1.191,1.271-2.207,1.64-3.284c1.188-3.442,1.312-5.767,2.604-7.561c0.235-0.328,0.651-0.478,0.839-0.129
		C97.526,52.894,97.649,53.795,97.692,54.201L97.692,54.201z"/>
	<path fill="#FFFFFF" d="M115.966,60.084c0.115,0.239-0.178,0.46-0.25,0.48c-0.523,0.136-2.721-0.562-2.967-0.685
		c-0.994-0.493-1.521-1.031-0.654-1.643c1.027-0.727,2.555-0.179,3.256,0.78C115.601,59.36,115.835,59.807,115.966,60.084
		L115.966,60.084z"/>
	<path fill="#FFFFFF" d="M115.075,64.806c0.238,0.616-0.676,0.517-0.958,0.479c-0.765-0.106-2.896-0.726-2.529-1.598
		c0.308-0.746,1.649-0.714,2.259-0.387C114.12,63.45,114.869,64.281,115.075,64.806L115.075,64.806z"/>
	<path fill="#FFFFFF" d="M113.64,69.801c-0.807-0.089-1.873-0.259-2.396-0.855c-0.308-0.353-0.101-0.753,0.547-0.923
		c0.412-0.109,0.908,0.041,1.272,0.274c0.377,0.24,0.832,0.829,0.851,1.093c0.004,0.096-0.015,0.189-0.119,0.23
		c-0.065,0.026-0.159,0.045-0.155,0.113C113.64,69.762,113.657,69.803,113.64,69.801L113.64,69.801z"/>
	<path fill="#FFFFFF" d="M112.681,73.701c0.068,0.15-0.078,0.301-0.162,0.343c-0.578,0.274-2.012-0.388-2.302-0.849
		c-0.155-0.247-0.071-0.497,0.246-0.657C111.276,72.131,112.294,72.841,112.681,73.701L112.681,73.701z"/>
	<path fill="#FFFFFF" d="M30.964,75.479c0,0-0.023,0.282-0.069,0.452c-0.062,0.24-0.161,0.264-0.318,0.302
		c-1.373,0.314-2.281,0.455-2.981,0.012c-0.4-0.253-0.139-0.62,0.393-0.971c0.854-0.569,2.08-0.917,2.78-0.027
		c0.038,0.046,0.072,0.096,0.094,0.15c0.031,0.074,0.034,0.082,0.054,0.082H30.964L30.964,75.479z"/>
	<path fill="#FFFFFF" d="M111.588,77.26c0.044,0.093,0.009,0.296-0.071,0.41c-0.254,0.355-1.64-0.263-1.953-0.479
		c-0.306-0.206-0.485-0.44-0.373-0.707c0.293-0.693,1.267-0.484,1.679-0.114C111.132,76.607,111.458,77.004,111.588,77.26
		L111.588,77.26z"/>
	<path fill="#FFFFFF" d="M109.877,80.844c0.25,0.336,0.313,0.636-0.047,0.727c-0.29,0.072-1.422-0.268-1.601-0.593
		c-0.228-0.422,0.326-0.654,0.686-0.64C109.263,80.354,109.631,80.515,109.877,80.844L109.877,80.844z"/>
	<path fill="#FFFFFF" d="M83.868,84.786c0.152,0.217-0.121,0.459-0.167,0.478c-0.546,0.269-1.029-0.25-2.093-0.82
		c-1.407-0.757-4.976-1.102-6.021-1.163c-0.812-0.048-4.284,0.399-4.792,0.616c-0.966,0.413-2.475,1.297-2.19-0.138
		c0.336-1.688,5.428-2.289,6.572-2.326c2.724-0.088,5.589,0.518,7.91,2.533C83.399,84.234,83.706,84.554,83.868,84.786
		L83.868,84.786z"/>
	<path fill="#FFFFFF" d="M21.452,83.417c0.018,0.136,0.02,0.339,0,0.548c-0.033,0.331-3.341,5.541-4.106,6.466
		c-0.523,0.631-1.348,1.566-1.709,0.964c-0.453-0.744,0.807-2.983,1.23-3.736c0.431-0.766,2.418-4.806,3.697-4.925
		C21.092,82.684,21.365,82.787,21.452,83.417L21.452,83.417z"/>
	<path fill="#FFFFFF" d="M108.368,84.763c0.105,0.193-0.072,0.394-0.182,0.433c-0.312,0.117-1.189-0.169-1.324-0.479
		c-0.071-0.165,0.033-0.38,0.25-0.479C107.433,84.096,108.138,84.335,108.368,84.763L108.368,84.763z"/>
	<path fill="#FFFFFF" d="M37.643,92.792c-1.282-1.204-3.015-3.204-3.187-4.585c-0.087-0.697,0.119-0.948,0.711-0.752
		c0.962,0.321,4.023,3.98,3.462,5.104C38.594,92.629,38.03,93.155,37.643,92.792L37.643,92.792z"/>
	<path fill="#FFFFFF" d="M106.795,88.481c0.111,0.187-0.104,0.382-0.183,0.411c-0.328,0.121-1.12-0.124-1.254-0.524
		c-0.103-0.306,0.285-0.545,0.615-0.502C106.256,87.902,106.617,88.179,106.795,88.481L106.795,88.481z"/>
	<path fill="#FFFFFF" d="M53.599,93.055l-6.233,8.916c-0.08,0.114-0.098,0.126-0.165,0.135c-0.942,0.107,0.518-2.605,0.941-3.431
		c1.259-2.434,2.257-4.736,4.066-6.021c0.49-0.348,1.496-0.859,1.547-0.296c0.011,0.115-0.017,0.28-0.042,0.419
		C53.688,92.913,53.678,92.941,53.599,93.055L53.599,93.055z"/>
	<path fill="#FFFFFF" d="M21.316,101.14c0.029,0.081,0.02,0.214,0,0.341c-0.071,0.43-1.091,2.216-1.689,2.396
		c-0.474,0.141-0.536-0.385-0.434-0.89c0.161-0.791,0.627-1.855,1.371-2.19C20.896,100.647,21.177,100.76,21.316,101.14
		L21.316,101.14z"/>
	<path fill="#FFFFFF" d="M7.147,105.792c0.134,0.803-1.04,3.271-1.532,3.558c-0.301,0.177-0.606,0.103-0.728-0.178
		c-0.472-1.088,0.812-3.159,1.688-3.654C6.592,105.51,7.082,105.404,7.147,105.792L7.147,105.792z"/>
	<path fill="#FFFFFF" d="M113.483,132.167c0.151,0.181-0.68,0.016-1.354-0.236c-1.643-0.616-6.986-5.608-7.525-6.187
		c-2.816-3.018-5.965-9.408-6.638-13.931c-0.269-1.804-0.317-3.647,1.097-3.353c0.274,0.059,0.42,0.212,0.543,0.438
		c0.427,0.76,0.879,4.766,1.576,7.293c0.688,2.506,3.102,6.475,4.791,8.451C108.104,127.139,111.769,130.139,113.483,132.167
		L113.483,132.167z"/>
	<path fill="#FFFFFF" d="M40.682,115.234c0.06,0.327-0.215,0.578-0.3,0.617c-0.175,0.079-0.393,0.093-0.659,0.067
		c-0.391-0.037-9.285-4.753-9.373-4.972c-0.089-0.212-0.038-0.522,0.3-0.708c1-0.547,5.051,1.558,6.063,2.122
		c0.118,0.067,3.212,1.764,3.766,2.491C40.573,114.978,40.665,115.128,40.682,115.234L40.682,115.234z"/>
	<path fill="#FFFFFF" d="M19.84,117.392c0.016,0.315-0.034,0.775-0.031,1.264c0.011,1.589,1.554,7.668,1.369,8.098
		c-0.099,0.227-0.353,0.389-0.727,0.181c-0.546-0.302-1.438-2.142-1.601-2.598c-0.351-0.981-1.006-6.186-0.34-7.664
		c0.152-0.339,0.474-0.509,0.861-0.274C19.543,116.501,19.818,116.964,19.84,117.392L19.84,117.392z"/>
	<path fill="#FFFFFF" d="M3.589,119.682c0.172,0.8-0.289,2.429-0.848,2.806c-0.402,0.272-0.809-0.298-0.932-0.82
		c-0.13-0.567,0.13-2.785,1.026-2.737C3.179,118.948,3.502,119.277,3.589,119.682L3.589,119.682z"/>
	<path fill="#FFFFFF" d="M85.608,154.442c0.078,0.149-0.376,0.103-0.781,0c-0.465-0.114-2.312-1.286-2.918-1.849
		c-2.187-2.031-5.589-4.473-8.102-6.672c-1.213-1.062-2.219-2.071-3.285-3.209c-0.418-0.446-8.773-9.744-9.58-12.835
		c-0.159-0.604-0.094-1.065,0.476-0.958c0.251,0.047,0.485,0.219,0.72,0.411c1.051,0.85,8.118,10.019,11.832,14.026
		c2.078,2.24,6.172,5.485,9.692,8.854C84.453,152.966,85.312,153.871,85.608,154.442L85.608,154.442z"/>
	<path fill="#FFFFFF" d="M171.331,135.105c0.004-0.084,0.145-0.176,0.25-0.232c1.204-0.627,1.447,5.436,1.465,6.5
		c0.092,6.176-0.467,11.553-4.242,15.91c-1.015,1.168-4.936,5.135-6.438,5.713c-0.191,0.076-0.376,0.119-0.499-0.008
		c-0.04-0.047-0.079-0.113-0.115-0.13c-0.024-0.009-0.051,0.004-0.069,0c-0.058-0.011-0.004-0.21,0.069-0.409
		c0.233-0.65,4.235-4.557,5.954-6.738c2.471-3.144,3.727-8.894,3.831-12.694C171.612,140.337,171.319,137.083,171.331,135.105
		L171.331,135.105z"/>
	<path fill="#FFFFFF" d="M113.296,147.188c0.036,0.112-0.04,0.29-0.134,0.453c-0.333,0.563-3.354,2.185-3.835,2.86
		c-0.967,1.356-0.385,4.473-1.918,3.803c-1.96-0.857-0.381-4.598,1.328-6.088c0.887-0.774,3.361-1.899,4.146-1.438
		C113.063,146.882,113.252,147.052,113.296,147.188L113.296,147.188z"/>
	<path fill="#FFFFFF" d="M31.788,153.759c0,0-0.047,0.318-0.14,0.52c-0.177,0.393-0.839,0.45-1.094,0.37
		c-0.603-0.194-1.503-1.655-1.711-2.261c-0.092-0.268-0.145-0.559,0.007-0.702c0.047-0.043,0.118-0.079,0.129-0.117
		c0.011-0.022-0.002-0.049,0-0.069c0.012-0.088,0.304-0.069,0.55,0c0.546,0.156,2.067,1.295,2.174,2.129
		c0.013,0.117,0.019,0.131,0.038,0.131H31.788L31.788,153.759z"/>
	<path fill="#FFFFFF" d="M141.286,170.317c0.238,2.628-0.688,5.726-1.846,7.218c-0.478,0.612-1.149,0.947-1.508,0.336
		c-0.143-0.246-0.135-0.66-0.065-1.055c0.17-1,0.737-1.876,0.89-2.943c0.297-2.08-0.958-4.752,0.686-5.541
		c0.541-0.26,1.302,0.31,1.642,1.137C141.194,169.744,141.269,170.1,141.286,170.317L141.286,170.317z"/>
	<path fill="#FFFFFF" d="M105.769,183.384c-0.258,1.207-1.158,3.201-1.438,4.722c-0.127,0.709-0.119,1.312-0.068,1.985
		c0.09,1.146,0.344,2.888-0.207,3.285c-0.586,0.426-1.066-0.592-1.299-1.643c-0.593-2.703-0.604-5.25,0.547-7.15
		c0.385-0.631,1.512-2.057,2.146-1.676C105.61,183.001,105.796,183.246,105.769,183.384L105.769,183.384z"/>
	<path fill="#FFFFFF" d="M95.706,207.22v0.045c0,0-0.325-0.004-0.518-0.068c-0.578-0.195,0.035-0.89,0.348-1.16
		c0.416-0.367,1.402-0.84,1.609,0.067c0.015,0.063,0.019,0.13,0.012,0.196c-0.012,0.09-0.025,0.109-0.135,0.191
		c-0.518,0.393-0.598,0.451-1.172,0.653C95.726,207.192,95.706,207.201,95.706,207.22L95.706,207.22z"/>
	<path fill="#FFFFFF" d="M66.416,208.498c0.102,0.168-0.078,0.358-0.165,0.41c-0.383,0.215-1.257,0.211-1.546-0.068
		c-0.441-0.43,0.067-0.594,0.479-0.684C65.783,208.024,66.136,208.031,66.416,208.498L66.416,208.498z"/>
	<path fill="#FFFFFF" d="M86.115,209.251c0.391,0.322,0.179,0.631-0.083,0.818c-0.839,0.604-5.07,0.583-5.997,0.617
		c-2.634,0.096-4.918,0.148-7.187-0.959c-0.306-0.15-0.953-0.711-0.684-1.188c0.038-0.064,0.099-0.123,0.159-0.174
		c0.083-0.068,0.106-0.076,0.244-0.062c2.966,0.325,6.932,0.887,8.905,0.942c1.489,0.045,2.936-0.033,4.403-0.064
		C86.015,209.183,86.039,209.188,86.115,209.251L86.115,209.251z"/>
	<path fill="#FFFFFF" d="M47.459,209.522c0.275,0.606-0.845,1.382-1.165,1.507c-0.642,0.248-1.006,0.092-1.472-0.275
		c-0.617-0.481-0.463-0.944,0.242-1.299c0.411-0.207,1.841-0.396,2.053-0.271C47.273,209.272,47.409,209.414,47.459,209.522
		L47.459,209.522z"/>
	<path fill="#FFFFFF" d="M119.457,225.808c0,0,0.021,0.178,0,0.342c-0.036,0.277-0.481,0.807-0.757,0.896
		c-0.094,0.031-0.188,0.047-0.202,0.131c-0.004,0.029,0,0.068,0,0.068h-0.326c-0.137,0-0.157-0.006-0.221-0.047
		c-0.376-0.269-0.289-0.998-0.206-1.186c0.242-0.539,1.137-0.946,1.527-0.434c0.031,0.041,0.067,0.092,0.086,0.146
		c0.025,0.073,0.033,0.081,0.055,0.081h0.044V225.808z"/>
	<path fill="#FFFFFF" d="M110.899,229.572c-1.338,1.664-8.775,9.441-10.311,9.784c-0.186,0.041-0.438,0.037-0.503-0.183
		c-0.114-0.387,0.608-1.385,0.813-1.662c0.511-0.684,8.024-7.744,8.455-7.939c0.289-0.134,0.927-0.46,1.201-0.343
		C110.724,229.3,110.978,229.478,110.899,229.572L110.899,229.572z"/>
	<path fill="#FFFFFF" d="M93.586,242.824v-0.048c0,0,0.293-0.04,0.478,0c0.354,0.076,0.445,0.646,0.345,0.915
		c-0.188,0.5-1.407,1.252-1.848,1.348c-0.519,0.104-0.702-0.199-0.548-0.756c0.183-0.654,0.747-0.886,1.448-1.352
		C93.571,242.856,93.586,242.841,93.586,242.824L93.586,242.824z"/>
	<path fill="#FFFFFF" d="M81.209,257.565l-0.883,0.052c-0.139,0.01-0.165,0.002-0.257-0.064c-0.11-0.082-0.228-0.203-0.275-0.322
		c-0.029-0.074-0.034-0.082-0.058-0.082h-0.043c0,0-0.038-0.445,0-0.754c0.072-0.582,1.299-1.973,1.534-2.188
		c0.807-0.75,2.109-1.082,2.366,0.271c0.181,0.955-0.537,0.749-1.471,1.302c-0.116,0.069-0.195,0.145-0.241,0.25
		c-0.106,0.264,0.007,0.738-0.135,1.049c-0.065,0.143-0.179,0.25-0.281,0.365C81.374,257.546,81.349,257.557,81.209,257.565
		L81.209,257.565z"/>
</g>
</svg>
