<?xml version="1.0" encoding="utf-8"?>
<!-- Generator: Adobe Illustrator 16.0.0, SVG Export Plug-In . SVG Version: 6.00 Build 0)  -->
<!DOCTYPE svg PUBLIC "-//W3C//DTD SVG 1.1//EN" "http://www.w3.org/Graphics/SVG/1.1/DTD/svg11.dtd">
<svg version="1.1" id="Layer_1" xmlns="http://www.w3.org/2000/svg" xmlns:xlink="http://www.w3.org/1999/xlink" x="0px" y="0px"
	 width="139.423px" height="32.461px" viewBox="0 0 139.423 32.461" enable-background="new 0 0 139.423 32.461"
	 xml:space="preserve">
<g>
	<path fill-rule="evenodd" clip-rule="evenodd" d="M3.202,29.38c-0.909-0.027-0.852-0.078-1.306-0.254
		c-0.929-0.359-1.373-0.707-1.669-0.98c-0.376-0.35-0.229-0.666,0.032-0.869c0.704-0.547,2.473-1.414,3.965-1.523
		c0.322-0.023,0.929,0.049,1.388,0.201c0.324,0.107,0.653-0.072,0.962-0.244c0.362-0.201,0.461-0.242,0.808-0.289
		c1.068-0.148,1.213-0.117,2.218-0.406c2.682-0.77,4.534-1.924,7.694-3.326c1.502-0.666,1.93-0.809,3.143-0.578
		c0.756,0.143,3.021,0.984,3.488,1.135c0.596-0.201,2.491-1.557,2.946-1.863c0.467-0.312,0.787-0.211,1.168-0.104
		c0.776,0.217,1.911,0.703,2.236,0.82c0.157,0.057,1.643,0.541,2.549,0.664c0.445,0.059,0.648,0.049,0.928-0.287
		c0.755-0.904,2.261-3.887,2.533-4.367c0.879-1.555,2.581-4.258,4.242-5.334c0.478-0.309,1.163-0.723,1.555-0.971
		c0.451-0.287,0.424-0.488-0.283-0.434c-0.296,0.023-1.694,0.195-2.222,0.416c-4.291,1.795-9.935,3.508-15.148,4.057
		c-3.083,0.322-8.285,0.602-10.516,0.143c-2.084-0.428-4.686-1.693-5.643-2.898c-0.226-0.285-0.072-0.52,0.343-0.41
		c1.018,0.27,2.921,0.814,4.973,1.166c6.273,1.08,13.916-0.76,18.607-2.291c2.835-0.926,4.803-1.693,6.221-2.15
		c1.208-0.391,3.554-0.949,4.505-0.975c2.578-0.068,4.877-0.959,7.645-2.395c7.339-3.808,18.057-2.868,21.75-2.963
		c1.133-0.029,3.808-0.282,5.288-0.698c9.566-2.688,13.511-0.592,16.217-0.616c2.255-0.02,3.449-0.018,6.018-0.207
		c2.238-0.165,4.926,0.195,6.715,0.352c0.941-0.918,2.206-0.263,2.623-0.217c0.232,0.025,2.484-0.175,2.787-0.153
		c0.881,0.063,3.785,1.378,4.556,1.773c1.415,0.727,2.352,0.674,2.696,0.799c0.393,0.145,0.329,0.23,0.665,0.992
		c0.43,0.971,1.039,1.266,1.515,1.535c2.14,1.211,5.145,2.219,6.323,2.725c0.868,0.373,1.455,0.764,1.752,0.934
		c0.342,0.195,0.654,0.373,0.892,0.553c0.648,0.49,0.661,1.141-0.085,1.801c-0.223,0.197-1.458,0.514-2.13,0.971
		c-0.343,0.234-1.48,0.469-2.771,0.4c-0.923-0.049-4.092-0.426-5.541-0.525c-2.018-0.137-5.269-0.238-6.084-0.303
		c-1.024-0.084-1.244-0.1-2.287-0.877c-2.167-1.615-5.258-1.693-7.949-0.973c-0.391,0.105-1.209,0.379-1.685,0.645
		c-0.182,0.102-0.525,0.227-0.339,0.76c0.464,1.33,0.902,0.9,1.48,3.08c0.442,1.662,0.291,2.674,0.788,3.76
		c0.589,1.287,2.666,1.154,3.989,1.213c1.475,0.064,8.937,1.395,10.883,1.865c1.251,0.301,2.205,1.176,2.96,1.428
		c0.284,0.018,0.702,0.029,1.076,0.045c1.683,0.064,2.805,0.598,4.483,1.463c1.186,0.611,4.331,1.662,6.362,2.469
		c1.447,0.574,2.526,0.398,3.21,0.373c0.429-0.018,0.685,0.049,0.965,0.217c0.429,0.26,1.278,1.186,1.536,1.551
		c0.291,0.41,0.285,0.662-0.173,0.891c-0.628,0.316-1.91,0.596-2.316,0.697c-1.422,0.355-2.304,0.51-3.813-0.402
		c-0.543-0.328-0.672-0.238-1.221-0.332c-0.355-0.061-0.621-0.234-0.856-0.377c-0.678-0.414-1.375-0.928-1.953-1.254
		c-0.356-0.199-3.615-1.625-3.981-1.428c-0.027,0.223,0.504,0.877,1.958,1.512c1.178,0.514,2.249,0.523,3.117,1.006
		c0.922,0.512,1.463,1.641,1.567,1.928c0.357,0.975-0.365,0.922-0.655,0.973c-0.229,0.041-2.616,0.064-2.915,0.027
		c-0.634-0.074-0.78-0.139-1.188-0.479c-0.247-0.207-0.364-0.266-0.692-0.34c-0.309-0.07-0.74-0.158-1.018-0.227
		c-0.457-0.115-0.75-0.396-0.883-0.518c-0.313-0.287-2.471-3.174-2.953-3.602c-0.355-0.316-0.66-0.387-1.219-0.449
		c-1.576-0.176-4.619-0.189-6.952,0.146c-5.299,0.764-12.879,0.881-16.413-0.215c-0.208-0.066-0.366-0.098-0.56-0.379
		c-0.177-0.258-0.413-0.643-0.542-0.885c-0.055-0.105-0.102-0.258-0.08-0.406c0.025-0.172,0.325-0.947-1.086-2.17
		c-0.27-0.234-0.422-0.119-0.466-0.098c-0.886,0.422-3.286,1.705-5.095,2.094c-2.133,0.459-5.21,0.754-9.206-0.846
		c-0.207-0.082-11.277-5.875-13.137-6.568c-2.218-0.826-4.872-2.123-8.617,0.236c-0.851,0.535-2.932,2.059-3.672,2.738
		c-3.246,2.98-5.441,5.529-8.99,7.199c-0.935,0.439-2.948,1.055-4.989,0.533c-1.181,0.705-2.247,1.203-3.268,1.525
		c-1.512,0.477-4.062,0.752-7.091-0.289c-2.303-0.791-5.904-2.574-6.519-2.9c-1.039,0.266-7.887,4.406-8.437,4.648
		c-1.073,0.471-2.244,0.441-2.897,0.582c-0.611,0.131-0.811,0.262-1.232,0.201c-0.727-0.104-1.149-0.414-1.408-0.539
		c-0.249-0.119-0.419-0.162-0.572-0.215c-0.532-0.184-0.961-0.891-0.166-1.357c0.381-0.225,0.937-0.33,1.377-0.512
		c0.303-0.123,0.878-0.605,2.007-0.84c0.437-0.09,0.64-0.123,1.025-0.432c0.382-0.307,0.666-0.377,1.118-0.473
		c2.873-0.605,4.347-1.783,4.132-2.004c-0.458-0.105-1.596,0.088-2.895,0.365c-1.768,0.379-6.539,2.6-6.947,2.766
		c-1.478,0.596-1.934,0.74-3.038,0.707L3.202,29.38L3.202,29.38z M124.226,26.067c0.377,0.004,1.118,0.16,1.369,0.23
		c0.925,0.26,4.156,1.744,4.527,2.02c1.013,0.752,1.301,0.979,2.57,1.135c0.445,0.057,0.692,0.256,1.192,0.537
		c1.064,0.596,2.157,0.219,2.52,0.15c-0.053,0.01,1.933-0.346,2.068-0.678c0.052-0.127-0.23-0.445-0.288-0.52
		c-0.344-0.436-0.442-0.559-0.866-0.729c-0.629-0.254-1.037-0.002-1.691,0.012c-0.303,0.006-2.744-0.516-3.402-0.93
		c-0.425-0.27-0.41-0.297-1.103-0.383c-0.166-0.02-3.41-1.215-3.705-1.363c-3.334-1.689-3.89-1.602-7.456-1.684
		c-0.4-0.01-5.067-0.568-5.677-0.68c-1.846-0.338-4.042-0.818-5.923-1.02c-0.987-0.107-4.006-0.287-5.454-1.057
		c-0.833-0.439-1.944-1.967-2.519-3.553c-0.161-0.445-0.808-3.43-2.397-5.502c-0.068-0.088-0.431-0.418-0.604-0.705
		c-0.12-0.201-0.106-0.338-0.03-0.389c0.092-0.061,0.306,0.025,0.491,0.141c0.219,0.135,1.116,1.266,1.172,1.342
		c1.38,1.9,1.771,4.021,2.048,4.812c0.12,0.344,0.653,1.438,0.792,1.662c0.738,1.195,1.329,1.729,2.581,1.912
		c1.438,0.209,3.873,0.43,4.482,0.543c0.441,0.08,0.867,0.182,1.286,0.27c0.543,0.115,4.898,0.691,8.646,1.227
		c0.214,0.029,0.689,0.035,0.688,0.008c0-0.174-0.385-0.287-0.854-0.412c-1.694-0.453-5.238-1.141-7.181-1.4
		c-2.009-0.27-5.636-0.656-6.305-0.766c-1.714-0.279-2.053-1.617-2.326-3.16c-0.157-0.887-0.316-2.422-1.062-3.564
		c-0.215-0.33-0.722-0.848-0.847-1.238c-0.102-0.318-0.121-0.635-0.55-0.346c-0.2,0.137-0.283,0.219-0.537,0.393
		c-0.241-0.182-0.143-0.311-0.046-0.49c0.154-0.289,0.345-0.549,0.593-0.764c0.648-0.561,1.112-0.861,1.802-1.133
		c2.887-1.135,4.67-0.949,7.196-0.578c0.084-0.381-0.615-1.242-1.126-1.654c-0.153-0.123-0.222-0.285-0.112-0.322
		c0.026-0.008,0.138-0.08,0.308-0.064c0.113,0.012,0.342,0.045,0.515,0.17c0.197,0.143,0.504,0.436,0.76,0.711
		c1.175,1.268,1.907,2.492,3.448,2.955c0.289,0.088,1.127,0.217,1.327,0.23c0.665,0.043,2.744,0.029,3.438,0.049
		c0.121,0.004,0.232,0.014,0.364,0.082c0.557,0.289,0.422,0.295,0.779,0.027c0.495-0.369,1.23-0.135,1.586-0.068
		c0.951,0.178,4.2,0.992,6.33,0.729c0.916-0.113,1.297-0.584,1.743-0.854c0.404-0.244,0.912-0.387,1.04-0.633
		c0.108-0.209,0.069-0.355-0.276-0.584c-0.533-0.354-1.619-0.877-1.675-0.902c-0.526-0.25-6.46-2.379-7.707-3.654
		c-0.061-0.062-0.285-0.344-0.463-0.406c-0.136-0.047-0.188,0.068-0.224,0.133c-0.223,0.387-0.291,0.742-0.528,0.844
		c-0.158,0.066-0.293-0.02-0.404-0.201c-0.122-0.197-0.113-0.258-0.408-0.314c-0.064-0.012-0.624-0.057-1.155-0.225
		c-0.117-0.037-0.118-0.139,0.024-0.221c0.151-0.088,0.424-0.086,0.704-0.129c0.609-0.094,1.092-0.441,1.299-0.602
		c0.214-0.166,0.204-0.412-0.041-0.609c-0.104-0.084-0.404-0.08-0.568-0.043c-0.156,0.035-0.461,0.145-0.73,0.207
		c-0.218,0.053-0.383,0.062-0.502,0.023c-0.004-0.133,0.006-0.189,0.035-0.244c0.069-0.129,0.227-0.209,0.306-0.285
		c0.08-0.076,0.046-0.123-0.023-0.172c-0.281-0.201-4.64-1.955-5.203-2.058c-0.286-0.053-1.292-0.119-1.377,0.295
		c-0.059,0.287-0.018,0.324-0.292,0.424c-0.192-0.013-1.125-0.396-1.715-0.665c-0.646-0.295-1.125-0.405-1.738,0.209
		c-0.526,0.527-1.348,1.457-1.479,1.537c-0.117,0.072-0.403,0.207-0.497,0.369c-0.023,0.043-0.025,0.133-0.001,0.148
		c0.062,0.041,0.418-0.012,0.492-0.025c0.246-0.045,0.583-0.211,0.736-0.305c0.244-0.15,1.021-0.875,1.488-1.143
		c0.207-0.119,0.392-0.131,0.622-0.088c0.222,0.041,0.827,0.289,0.979,0.41c0.19,0.152,0.332,0.418,0.146,0.648
		c-0.092,0.111-0.182,0.197-0.361,0.24c-0.183,0.047-0.35,0.053-0.501-0.189c-0.059-0.094-0.116-0.219-0.181-0.309
		c-0.107-0.154-0.178-0.16-0.287-0.127c-0.173,0.053-0.555,0.361-0.696,0.467c-0.156,0.115-0.115,0.273-0.1,0.324
		c0.185,0.607,0.963,0.697,1.591,0.693c0.007,0.039,0.046,0.262-0.041,0.377c-0.185,0.246-0.686,0.355-1.105,0.348
		c-0.512-0.008-0.929-0.211-1.256-0.598c-0.368-0.436-0.627-0.141-0.981-0.012c-0.69,0.254-1.469-0.027-2.047-0.178
		c-0.521-0.137-0.473-0.525-0.007-0.693c0.428-0.152,1.792-1.295,1.854-1.354c0.125-0.117,0.209-0.243-0.079-0.361
		c-0.459-0.187-2.417-0.389-2.943-0.433c-1.592-0.133-4.432,0.186-4.979,0.131c-1.921-0.193-1.325,0.518-2.887,0.233
		c-1.223-0.223-7.343-1.482-11.997-0.649c-0.576,0.103-6.931,1.933-11.965,1.894c-8.959-0.072-12.162-0.359-23.28,4.316
		c-2.069,0.871-3.176,0.658-5.608,1.045c-1.083,0.172-4,0.965-5.552,1.535c-3.237,1.191-8.487,3.09-14.19,3.666
		c-6.47,0.652-10.669-0.516-11.243-0.479c0.417,0.627,3.24,1.635,7.607,1.592c6.863-0.068,13.576-1.547,18.984-3.844
		c0.968-0.41,3.434-1.105,4.637-1.146c0.404-0.014,1.058,0.033,1.523,0.17c0.15,0.045,0.348,0.084,0.381,0.26
		c0.062,0.334-0.306,0.582-0.398,0.654c-1.261,0.977-2.583,1.635-3.553,2.525c-0.236,0.217-2.043,2.492-2.251,2.799
		c-2.261,3.33-2.061,3.893-3.708,6.037c-1.081,1.408-2.344,2.111-5.905,1.725c-1.854-0.201-5.957-1.229-7.678-1.883
		c-1.249-0.477-1.559-0.297-2.486,0.201c-1.958,1.049-5.116,2.535-7.047,3.24c-0.523,0.191-1.416,0.502-1.974,0.592
		c-0.575,0.096-1.498,0.16-1.725,0.227c-0.759,0.225-0.973,0.486-1.579,0.383c-0.722-0.125-0.745-0.279-1.397-0.201
		c-0.758,0.092-2.391,0.59-3.001,0.998c-0.274,0.184-0.296,0.355-0.001,0.59c0.581,0.463,1.243,0.807,2.042,0.807
		c0.225,0,1.02-0.092,1.937,0.072c0.455,0.082,0.759,0.115,1.619-0.135c0.319-0.094,5.774-2.371,6.224-2.57
		c2.28-1.006,4.663-1.711,7.05-1.365c1.821,0.266,4.009,1.387,4.722,1.715c1.139,0.523,3.894,1.902,5.968,2.436
		c2.956,0.756,5.52,0.836,8.559-1.012c1.21-0.734,2.117-1.619,3.473-2.574c1.581-1.113,6.219-4.201,6.418-4.367
		c2.42-2.031,4.751-3.898,7.521-4.729c2.454-0.738,5.445-1.037,8.365-0.152c3.149,0.955,13.412,6.523,14.066,6.801
		c3.025,1.281,7.205,2.064,10.487,0.932c0.406-0.141,2.364-0.865,2.963-1.252c0.753-0.486,0.674-0.725,0.383-1.111
		c-1.404-1.867-4.84-3.523-7.096-4.049c-0.14-0.033-0.245-0.145-0.215-0.232c0.037-0.107,0.163-0.199,0.319-0.244
		c0.119-0.033,0.256-0.035,0.384-0.018c1.021,0.139,4.284,1.182,6.163,2.977c1.521,1.451,3.414,2.857,3.823,5.109
		c0.161,0.887,1.388,1.34,2.918,1.5c4.151,0.43,7.373,0.289,11.563-0.301c4.285-0.604,9.17-0.172,10.087-0.162L124.226,26.067
		L124.226,26.067z M130.575,31.735c0.01-0.537-0.268-0.988-0.432-1.16c-0.614-0.646-1.301-0.789-2.201-0.982
		c-1.363-0.291-2.588-0.807-3.345-1.533c-0.356-0.34-0.811-0.916-0.979-1.047c-0.197-0.152-0.328-0.174-0.539-0.168
		c-0.084,0.004-0.592,0.021-0.676,0.027c-0.269,0.02-0.241,0.148-0.181,0.279c0.171,0.373,1.308,1.734,1.596,2.1
		c0.331,0.42,0.951,1.236,1.479,1.471c0.246,0.109,0.635,0.152,0.953,0.174c0.271,0.02,0.61,0.086,0.886,0.369
		c0.362,0.375,0.513,0.504,0.936,0.498L130.575,31.735L130.575,31.735z M21.759,26.372c0.284-0.172,0.177-0.346-0.06-0.455
		c-0.155-0.07-0.846-0.25-1.128-0.285c-0.209-0.027-0.435-0.043-0.714,0.102c-0.286,0.148-1.456,0.965-2.225,1.402
		c-2.258,1.287-3.171,1.191-3.791,1.396c-0.542,0.18-2.017,0.736-2.354,0.9c-0.363,0.174-0.475,0.434-0.982,0.525
		c-0.331,0.061-0.947,0.131-1.18,0.312c-0.195,0.15-0.333,0.338,0.044,0.555c0.196,0.111,0.816,0.391,1.02,0.457
		c0.255,0.086,0.729,0.045,1.108-0.035c0.381-0.08,0.765-0.219,1.171-0.293c1.19-0.221,1.263-0.053,1.94-0.316
		c0.882-0.346,0.893-0.488,1.456-0.938c0.533-0.424,1.271-0.686,1.853-1.012C19.404,27.856,20.786,26.964,21.759,26.372
		L21.759,26.372z M28.857,23.081c1.384,0.133,3.063,0.055,3.659-0.41c0.146-0.113,0.164-0.25-0.193-0.35
		c-0.914-0.26-2.956-0.742-3.28-0.867c-0.483-0.188-1.143-0.451-1.311-0.477c-0.267-0.039-0.448,0.025-0.642,0.146
		c-0.277,0.172-1.349,0.84-1.593,1.119c-0.146,0.168-0.118,0.242,0.024,0.307C26.055,22.79,28.327,23.03,28.857,23.081
		L28.857,23.081z M57.072,17.128c-0.483-0.072-3.313,0.895-6.717,3.982c-0.98,0.656-2.563,1.494-4.863,3.395
		c-0.837,0.551-3.198,2.01-3.801,2.629c-0.106,0.111-0.231,0.221,0.028,0.311c0.737,0.256,1.986-0.016,2.807-0.295
		c0.713-0.24,1.995-1.031,2.953-1.828c0.195-0.162,0.538-0.354,0.822-0.531c1.072-0.676,2.456-2.176,3.307-2.988
		C53.692,19.81,57.111,17.286,57.072,17.128L57.072,17.128z"/>
</g>
</svg>
