<?xml version="1.0" encoding="utf-8"?>
<!-- Generator: Adobe Illustrator 16.0.0, SVG Export Plug-In . SVG Version: 6.00 Build 0)  -->
<!DOCTYPE svg PUBLIC "-//W3C//DTD SVG 1.1//EN" "http://www.w3.org/Graphics/SVG/1.1/DTD/svg11.dtd">
<svg version="1.1" id="Layer_1" xmlns="http://www.w3.org/2000/svg" xmlns:xlink="http://www.w3.org/1999/xlink" x="0px" y="0px"
	 width="33.979px" height="35.591px" viewBox="0 0 33.979 35.591" enable-background="new 0 0 33.979 35.591" xml:space="preserve">
<g>
	<path fill-rule="evenodd" clip-rule="evenodd" fill="#105293" d="M33.736,28.749l-0.134-0.533c-2.757-1.199-3.246-4-4.802-6.313
		c-0.178-0.267-0.578-0.756-0.534-0.756c1.2,0.134,2.535-0.133,3.602-0.661c1.245-0.667,2.268-2.223,2.09-3.868
		c-0.444-4.446-7.063-5.292-10.621-6.536c-1.112-0.4-2.001-0.89-2.445-1.957c-0.401-0.978,0.266-2.172,1.244-2.573
		c0.667-0.312,1.378-0.133,2.001,0.089c1.69,0.667,3.157,2.039,5.151,1.728c2.268-0.356,3.78-2.484,4.402-4.662
		c-0.356,0.044-0.222,0.088-0.578,0.088c-2.979,0.178-6.619-0.178-9.509,0.222c-1.734,0.222-3.424,1.067-4.136,2.757
		c-0.311,0.712-0.399,1.506-0.178,2.262c0.979,3.557,5.158,3.779,8.353,4.891c2.001,0.711,5.024,1.957,4.758,4.447
		c-0.133,1.245-1.868,2.178-3.113,2.267c-3.417,0.178-7.419-0.533-10.131-3.779c-1.112-1.334-1.912-4.313-3.78-6.937
		c0.711,0.134,1.646,0.178,2.09-0.044C17.335,7.724,16.846,7.28,16.4,6.708c0.756-0.801,1.068-1.912,0.935-3.024
		c-0.222-1.512-0.978-2.89-2.446-3.424c-0.533-0.222-1.111-0.356-1.683-0.178c-0.312,0.089-0.756,0.223-1.067,0.489
		c0.667,0.178,1.156,0.845,1.156,1.468c0,0.578-0.355,1.2-1.067,1.111c0,0-0.356-0.044-0.8-0.4H7.159
		C6.67,3.329,6.136,3.062,6.136,3.062c-0.267-0.133-0.444-0.4-0.489-0.667C5.38,1.639,6.136,0.927,6.892,0.616
		c0.044,0-0.133-0.133-0.178-0.133C4.846-0.495,2.49,0.216,1.467,2.04c-0.8,1.378-0.355,2.935,0.534,4.269
		c0.044,0.088-0.223,0.355-0.356,0.578C1.289,7.502,1.112,8.302,1.334,9.014c0.756,0,1.334-0.312,2-0.534
		c-0.844,3.29-2.267,6.358-3.156,9.694C0,18.751,0,19.375,0,19.997c0.044,1.239,0.444,2.217,1.201,3.374
		c-1.022,2,0.088,4.135,0.623,6.135c0.578,2.047,0.089,4.137-0.445,6.086c1.378,0,2.935,0,4.313,0c0-0.666-0.089-1.594,0.044-2.35
		c0.223-1.334,0.4-2.09,0.667-3.514c0.578,0.533,1.645,0.533,2.134,0.045c1.111,2.4,4.046,3.068,6.44,3.334
		c0,0,0.4-0.889,0.312-3.957c0.711-0.311,1.29-0.355,1.29-0.355s0.667-0.088,0.622,0.934c0.4-0.045,1.467-0.178,1.467-0.178
		c-0.089,2.268-1.334,4.27-2.757,6.041c1.645,0,3.468,0,5.113,0c0.623-1.771,1.868-3.996,2.534-4.752
		c0.223-0.311,0.356-0.266,0.579,0c0.444,0.445,0.622,0.668,1.245,0.891c0.712,0.221,1.423,0.088,2.09-0.223
		c-0.267,0.889-0.667,1.512-1.112,2.223c-0.445,0.713-0.8,1.195-1.245,1.861c1.912,0,3.951,0,5.863,0
		C31.38,32.929,32.357,30.974,33.736,28.749L33.736,28.749L33.736,28.749z M4.846,21.413c0.801,0,1.201,0,1.201,0
		c-0.267-1.906-0.978-2.617-1.289-3.017c-1.023-1.291-2.446-1.69-2.312-2.224c-0.222-0.489,2.401-6.003,2.802-9.776
		C5.024,6.352,4.846,6.308,4.669,6.263C3.69,5.907,2.979,5.196,2.757,4.173C2.624,3.773,2.712,3.284,2.89,2.928
		c0.222-0.489,0.89-0.978,1.334-0.934C3.69,3.017,4.402,4.396,5.469,4.751c0.623,0.223,1.334,0.044,1.779-0.489
		c1.379-0.044,2.802,0.045,4.181,0.089c0.622,0.578,1.6,0.534,2.35,0.178c0.889-0.4,1.2-1.512,0.8-2.535
		c0-0.044,0.133,0,0.178,0.045c0.8,0.489,1.022,1.378,0.934,2.223c-0.045,0.8-0.534,1.601-1.29,1.823c0,0-0.972,0.311-3.062,0.223
		c-0.89,0.927-0.979,1.994-0.979,1.994c-0.089,0.667,0.089,1.334,0.222,1.689c0.089,0.223,0.044,0.312-0.088,0.401
		c-0.89,0.4-1.379,0.4-2.446-0.044c-0.4-0.134-0.845,0.444-0.845,0.666c-0.044,0.223,0.355,0.756,0.489,0.711
		c1.111-0.444,2.401-0.444,3.824,0.134c0.267,0.088,0.533-0.267,0.623-0.534c0.133-0.4-0.223-0.8-0.178-1.2
		c0.088-0.756,0.667-1.334,1.245-1.778c2.217,3.513,5.507,8.048,2.617,11.649c-0.889,1.061-2.929,2.083-4.084,3.329
		c-1.201,1.334-1.957,2.623-3.024,4.135c-0.445,0.623-1.423,1.557-2.135,0.49c-1.734-2.58-3.468-4.49-4.357-6.003
		c-0.623-1.061-1.29-3.462,0.178-3.595C3.468,18.396,4.713,20.085,4.846,21.413L4.846,21.413L4.846,21.413z M2.801,25.237
		c0.934,0.934,2.401,2.4,2.001,4.713c0,0-0.222,1.557-0.756,4.27H3.202c0.444-2.357,0.311-3.559,0.311-3.559
		c-0.267-2.178-1.245-3.779-1.156-5.334C2.401,25.104,2.624,25.06,2.801,25.237L2.801,25.237z M14.4,27.372
		c-1.017,0.977-2.261,1.021-3.462,1.557c-0.4,0.133,0,0.533,0.222,0.621c0.268,0.09,0.579,0.133,0.801,0.133c0,0,0.8,0,1.772-0.133
		c0.089,1.023,0.044,1.689,0.044,1.689c-0.661,0.045-1.505-0.178-2.172-0.443c-0.845-0.357-1.468-0.756-1.689-1.557
		c-0.4-1.334,1.601-3.201,2.268-3.602c0.4-0.223,1.022-0.4,1.467-0.268c0.439,0.133,0.794,0.355,0.973,0.801
		C14.845,26.571,14.756,27.017,14.4,27.372L14.4,27.372L14.4,27.372z M18.847,26.481c-0.89,0.223-1.646,0.4-2.58,0.578
		c0.045-0.623-0.088-1.244-0.4-1.822c-0.222-0.4-0.533-0.713-0.933-1.021c-0.356-0.268-0.756-0.402-1.328-0.49
		c1.238-1.156,3.15-2.09,4.04-3.773c0.444-0.845,0.533-1.601,0.667-2.623c0.933,1.022,2.179,1.689,3.379,2.356
		c-2.534,1.595-1.823,5.462,0.044,7.332c-0.844,0.178-1.734,0.398-2.712,0.533c-0.044,0,0.088-0.4,0.133-0.891
		C19.203,26.526,19.025,26.437,18.847,26.481L18.847,26.481L18.847,26.481z M26.717,21.902c0.178,0.178,0.312,0.312,0.489,0.534
		c1.684,2.223,2.217,4.713,4.484,6.713c-0.845,1.646-1.556,3.379-2.223,5.07c0,0-0.533,0-1.689,0c0-0.045,0.044-0.09,0.044-0.09
		c1.022-1.557,2.624-4.225,1.022-5.381c-2.572-1.512-7.641-2.09-7.241-6.313c0.088-0.801,0.578-1.55,1.422-1.772
		C24.316,20.308,25.872,20.886,26.717,21.902L26.717,21.902L26.717,21.902z M26.05,4.707c0-0.222,0.133-0.312,0.4-0.312
		c0,0,0.534-0.088,4.841,0c-1.423,2.09-3.818,1.334-3.818,1.334C26.984,5.552,26.05,5.019,26.05,4.707L26.05,4.707L26.05,4.707z
		 M6.136,6.797c0-0.089,0.355,0,0.534,0.044c0.667,0.261,1.067,0.928,0.934,1.594C6.759,8.569,5.825,7.546,6.136,6.797L6.136,6.797
		L6.136,6.797z M12.272,6.93c0.178-0.089,0.489-0.133,0.489-0.089c0.267,0.661-0.667,1.594-1.467,1.55
		C11.205,7.769,11.605,7.146,12.272,6.93L12.272,6.93L12.272,6.93z M7.781,12.304c0.267-0.178,0.533-0.4,1.29-0.444
		c0.489-0.045,0.889,0,1.378,0.178c0.489,0.133,0.89,0.489,0.623,0.8c-0.222,0.267-0.845-0.267-1.646-0.223
		c-0.711,0-0.844,0.044-1.29,0.223C7.604,13.016,7.426,12.527,7.781,12.304L7.781,12.304L7.781,12.304z M22.804,28.884
		c0.134,0.133,0.044,0.223-0.044,0.443c0,0-1.556,2.09-2.89,4.893h-1.156c1.512-2.713,1.69-5.07,1.69-5.07
		c0.444-0.088,0.711-0.133,0.711-0.133C22.226,28.794,22.671,28.661,22.804,28.884L22.804,28.884z M24.805,29.106
		c-0.044-0.135-0.044-0.312,0-0.312c0.801,0.312,1.512,0.533,2.135,0.801c0.445,0.133,0,0.488-0.222,0.623
		C25.828,30.573,24.983,29.95,24.805,29.106L24.805,29.106L24.805,29.106z"/>
</g>
</svg>
