<?xml version="1.0" encoding="utf-8"?>
<!-- Generator: Adobe Illustrator 16.0.0, SVG Export Plug-In . SVG Version: 6.00 Build 0)  -->
<!DOCTYPE svg PUBLIC "-//W3C//DTD SVG 1.1//EN" "http://www.w3.org/Graphics/SVG/1.1/DTD/svg11.dtd">
<svg version="1.1" id="Layer_1" xmlns="http://www.w3.org/2000/svg" xmlns:xlink="http://www.w3.org/1999/xlink" x="0px" y="0px"
	 width="176.907px" height="83.59px" viewBox="0 0 176.907 83.59" enable-background="new 0 0 176.907 83.59" xml:space="preserve">
<g>
	<g>
		<path fill="none" d="M10.696,25.637l-0.07-0.073L10.696,25.637z"/>
		<path fill="none" d="M11.569,29.123l0.073,0.144L11.569,29.123z"/>
		<g>
			<path fill="#1D1D1B" d="M34.156,1.894c0.435,0.508,0.797,1.162,1.087,1.815l-0.07,0.219c-1.308,0.869-2.616,2.176-3.123,3.556
				l0.072,0.074C35.316,3.635,39.819,1.82,44.83,2.04c3.558,0.58,6.243,3.266,8.571,6.027c4.644-0.22,8.494,2.684,10.814,6.462
				l0.948,1.233c-1.673-0.218-3.339-0.218-4.866,0.219c1.812,0.435,3.778,0.361,5.519,0.944c3.338,0.798,5.956,3.122,8.422,5.664
				c2.18,1.452,5.086,0.873,7.626,1.452c1.453,0.217,2.761,0.87,4.355,0.583c4.431-0.944,9.151-1.962,13.944-2.034
				c10.455-0.218,19.896,3.122,29.121,6.39c3.922,1.524,7.698,4.139,10.309,7.771c4.578,5.956,10.314,12.776,17.646,14.597
				c1.816,0.361,3.854,0,5.38-0.873c1.957-1.451,2.688-4.357,2.102-6.973c-0.584-1.741-1.525-3.41-2.979-4.573
				c-2.322-2.033-6.027-3.849-5.445-7.407c1.09-2.832,3.414-5.156,5.229-7.698l0.146,0.073c0,1.743,0.435,3.339,1.232,4.721
				c0.289-0.289,0.145-0.945,0.289-1.381c0.293-0.724,0.58-1.453,1.238-1.959c0.436,1.163,0.723,2.323,1.012,3.559
				c0.297,1.669,0.363,3.633-0.072,5.302c0,0.07,0,0.292,0.146,0.146c0.51-0.728,1.09-1.454,1.889-1.744
				c-2.467,5.229,1.596,10.385-0.074,15.832c-0.508,2.324-2.613,4.648-4.936,5.225c-1.451,0.582-3.195,0.729-4.721,0.438
				c-4.791-0.508-9.076-2.613-13.215-4.865c-0.508-0.145-0.801-0.652-1.236-0.725c1.016,1.812,2.541,3.342,4.141,4.863
				c3.703,3.193,7.912,5.737,12.926,6.39c2.465,0.512,5.373,0.291,7.115,2.18c0.941,1.813,0.436,4.142,0.723,6.103
				c0.293,3.412,1.968,6.242,3.42,9.222c0.357,1.088-0.44,1.89-1.239,2.616c-1.813,0.797-2.104,2.76-3.343,3.848
				c-1.227,0.073-2.832,0.073-4.062,0c0-0.578,0.365-1.234,0.582-1.744c0.438-0.652,1.231-0.797,1.668-1.379
				c-1.09,0.146-2.465,0.582-2.829,1.814l-0.509,1.236c-1.162,0.071-2.397,0.071-3.418,0c0-0.584,0.582-1.017,0.804-1.597
				c0.293-1.165,1.672-0.873,2.25-1.673c-0.437-0.146-0.726,0.218-1.16,0.146c-0.652,0.22-1.312,0.291-1.742,0.871
				c-0.291,0.802-0.945,1.453-1.312,2.253c-0.799,0.071-1.524,0.071-2.323,0c-0.359-0.076-0.287-0.507-0.146-0.728
				c0.655-0.945,1.017-2.034,1.817-2.905c1.162-0.509,2.687,0,3.849-0.65c1.017-0.584,2.254-1.088,2.758-2.326
				c0.147-2.469-1.088-4.646-2.178-6.684c-1.453-1.887-3.56-2.902-5.81-3.047c-5.301-0.727-11.037-0.654-15.975-2.324
				c-5.305-1.599-10.096-4.43-14.379-8.279c-2.904-2.903-5.662-6.315-9.514-7.479c-3.486-0.58-6.683,1.088-9.729,2.324
				c-5.521,2.687-10.819,5.884-16.775,7.334c-3.921,1.235-8.425,1.161-12.635,1.09c-1.383-3.34,1.354-8.276-2.351-10.672
				c-2.468-1.454-5.349-3.632-6.361-6.103c-0.075,0,0,0.146,0,0.217l-0.075-0.217l-0.075,0.072c0.438,3.123,3.269,5.735,5.809,7.481
				c2.98,2.538,0.511,7.403,2.761,10.235c-0.795,0.146-1.38-0.51-1.812-1.088l-0.147,0.144c-0.146,1.528-0.073,3.125,0.728,4.356
				c-0.58-0.218-1.165-0.798-1.528-1.306c-0.067,1.671,0.585,3.34,1.091,4.864c1.02,3.632,2.833,7.115,3.125,10.968
				c0,2.542-2.98,2.468-4.216,4.137c-0.362,0.363-0.577,0.8-1.16,0.729c-1.885,0-3.848,0.147-5.663-0.073
				c-0.29-0.363-0.07-0.799,0-1.235c0.22-1.232,1.598-1.453,2.396-1.959c-1.158,0-2.466,0.29-3.121,1.379
				c-0.29,0.655-0.362,1.381-0.798,1.89c-0.797,0-1.817,0.071-2.543-0.073c-0.147-0.436,0.218-0.871,0.438-1.309
				c0.51-1.16,1.74-1.742,2.827-2.252c0.075-0.071,0-0.145,0.147-0.217c-0.797,0-1.455,0.363-2.25,0.582
				c-0.8,0.653-1.525,1.601-2.107,2.396c-0.146,0.291,0,0.651-0.29,0.872h-1.886c-0.365-0.872,0.436-1.453,0.942-2.108
				c0.798-0.798,1.308-2.03,2.468-2.394c2.105,0,4.722,0.216,5.812-1.817c0.726-1.813-0.583-3.122-1.021-4.647
				c-2.758-6.1-8.711-10.166-13.649-14.959c-2.906-3.269-5.156-6.974-5.084-11.473c-0.145-2.542,0.58-5.301,0-7.771
				c-0.072-0.073-0.145-0.144-0.218-0.144c-0.069,0.873,0,1.67,0,2.467c-0.364,3.704-1.575,7.431-0.194,10.771
				c0.8,2.325,3.101,5.062,4.769,7.021c-2.831-0.943-5.517-1.5-7.189-4.477c-0.362-0.8-0.725-2.352-0.215-3.075
				c0.146-0.293,0.58-0.293,0.798-0.653c-2.178-1.525-2.761-4.213-2.978-6.681v-0.071c-0.29,0.651-0.073,1.379-0.218,2.178
				c0.073,1.74,0.508,3.484,1.818,4.721c-0.8,0.798-1.383,2.251-1.02,3.338c0.51,1.893,2.087,2.997,4.266,3.905
				c1.092,0.581,2.053,0.743,3.143,1.106c-2.323,0.362-5.083,0.943-7.334-0.146c-1.96-0.727-3.703-2.54-3.996-4.648
				c-0.365-1.887-0.435-3.774-2.033-5.078c1.16,0.287,1.963,1.447,2.833,2.172c0.07,0,0.07-0.215,0.07-0.287
				c-0.94-2.033-2.998-2.953-4.451-4.404c-1.818-2.783-0.995-5.542-0.775-8.447c0.215-1.453,0.653-2.762,0.94-4.139
				c-0.215-0.073-0.215,0.215-0.36,0.361c-1.38,3.196-2.233,6.119-2.015,9.895c0.145,1.812,1.508,4.266,3.105,5.428
				c1.813,1.743,1.09,4.502,2.25,6.534c1.305,2.325,3.851,3.562,5.884,5.085v0.145c-1.673-0.435-3.413-0.653-5.156-0.799
				c0.363,2.035,0.795,4.431-0.078,6.465c-1.45-3.416-4.718-5.811-7.624-8.135c-2.248-2.324-2.756-6.028-1.523-9.002
				c0.65,3.051,3.486,5.59,5.516,7.914c0.585,0.725,0.948,1.596,1.31,2.324c0.073-2.979-1.938-4.527-3.533-6.85
				c-1.093-1.601-2.42-3.754-2.493-5.644c-0.075-0.36-0.15-0.727-0.292-1.016l-0.07,0.218l0,0c-0.145,0.438-0.145,0.872-0.292,1.309
				c-1.598,2.471-3.511,3.922-0.652,9.004c-3.198-2.397-5.156-5.737-5.376-9.588c-0.07-1.018-0.07-1.812,0.145-2.756
				c0.513,0.217,0.871,0.727,1.383,0.942l0.073-0.146c-1.166-4.721-0.17-9.273,0.8-14.671l-0.078-0.07
				c-0.58,0.944-0.795,2.034-1.23,3.051c-0.077,0.436-0.147,1.018-0.295,1.451h0.075c-0.145,0.29-0.145,0.727-0.215,1.017
				c-0.365,2.323-0.585,5.012-0.223,7.335c-1.667-2.252-2.175-5.156-1.743-8.062l0.22-1.597c-0.435,0.07-0.653,0.653-1.018,0.873
				c0.365-1.527,0.797-3.85-0.725-5.012c-0.943-0.075-1.453,1.087-1.963,1.814c-0.578,1.526-2.176,2.472-3.631,2.759
				c-0.653,0.364-1.015,1.018-1.163,1.744c-1.16-0.29-2.393-0.945-2.686-2.252c-0.292-0.725-0.65-1.524-1.163-2.178
				c0-0.289-0.145-0.654-0.36-0.944c0.215-0.364-0.072-1.019,0.435-1.089c1.38,0.07,2.396,0.942,3.556,1.522
				c0.8,0.074,1.453-0.434,1.818-1.087l0.145-0.58c-0.217,0-0.217-0.364-0.438-0.508c-1.525-1.453-3.773-0.51-5.588-0.729
				c-1.528-0.361-1.743-2.031-2.471-3.194c-0.365-0.509-1.018-0.87-0.945-1.596c0.363-0.364,1.163-0.073,1.746-0.146
				c0.435-0.146,0.942-0.29,1.448-0.434c-0.14,0.216,0,0.651-0.288,0.724v0.073c-0.363,0.145-0.798-0.216-1.09,0.074
				c-0.507,0.289-0.435,0.871-0.507,1.306c0.145,0.073,0.365-0.072,0.438-0.217c0.362-0.508,1.16-0.508,1.595-1.018
				c0.29-0.654,0.655-1.234,0.29-1.962c-0.725,0.728-1.958,0.44-2.903,0.51c0.507-1.09,1.595-2.034,2.465-2.978
				c1.31-1.017,2.69-2.178,3.416-3.629L16,14.674c0.508-1.452,1.453-3.051,3.123-3.341c0.728-0.29,1.601-0.29,2.326-0.725
				c2.393-2.25,5.588-3.051,7.404-5.956c1.02-1.453,1.673-3.048,2.18-4.648C32.268-0.069,33.21,1.094,34.156,1.894z M41.634,4.652
				c-0.797,0.291-1.525,0.581-2.25,0.872c-2.763,1.309-4.283,4.283-4.141,7.333c0,1.744,0.728,3.125,1.018,4.722
				c-1.16-1.889-1.96-3.775-2.54-5.81c-0.148,1.087,0.215,1.888,0.435,2.904h-0.075c-1.453-0.87-3.196-2.107-3.848-3.777
				c-0.073,0.364,0.072,0.654,0.147,0.947c0.87,1.888,2.078,3.363,3.896,4.234l1.985,2.517c1.453,2.761,0.726,6.1-1.018,8.425
				c-1.015,1.379-2.105,2.832-3.338,4.064c0.507-1.598,0.652-3.338,1.018-5.009c-0.147,0.144-0.295,0.364-0.365,0.58
				c-0.945,3.485-2.398,6.244-3.848,9.952c0-2.179,0.655-4.288,0.58-6.32c-1.38,3.414-2.105,7.917-0.945,11.691h0.072
				c0.075,0-0.072-0.218,0.147-0.289c-0.147-2.688,1.595-5.082,2.686-7.336c1.673-3.342,4.863-5.664,6.171-9.077
				c1.672-4.357-1.05-8.207-0.905-12.708c0.07-2.903,1.415-5.517,4.101-6.607l0.075,0.071c-0.363,0.944-0.896,2.129-0.968,3.148
				c-0.317,1.912,0.095,4.116-0.56,6.076c-0.07,0.508-0.438,0.944-0.438,1.453c1.383-2.253,2.253-4.576,2.238-7.498
				c0-1.6,0.67-3.033,1.108-4.487C41.924,4.723,41.707,4.723,41.634,4.652z M43.012,10.17c-0.653,0.873-1.233,1.743-1.378,2.76
				c-1.455,4.283,2.323,7.697,1.235,11.98c0,0.147-0.072,0.365-0.072,0.513h0.072c1.523-2.981,0.413-6.103-0.243-8.861
				c-0.438-2.251-0.703-4.431,0.46-6.32L43.012,10.17z M18.542,13.003c-0.435,0.436-0.58,1.087-0.58,1.67
				c0.215,0.217,0.363-0.144,0.58,0c0.07,0.071,0.22,0.217,0.143,0.362c-0.942,0.364-1.667,0.945-2.613,1.09
				c-0.145,0.072-0.363,0.072-0.363,0.29c0.58,0.07,1.233,0,1.743-0.145c1.815-0.651,3.34-1.598,5.301-1.742
				c-0.145-0.075,0.145-0.147,0-0.219c-0.145,0-0.072-0.22-0.29-0.292C21.158,13.731,19.485,14.091,18.542,13.003z M54.925,13.947
				c-0.221,1.888-1.815,3.196-3.196,4.43c-1.742,1.816-3.485,4.551-3.41,7.02c-0.147,4.285,3.266,7.07,2.538,11.498l-0.073,0.071
				c-1.308-3.777-4.883-6.044-4.738-10.329c0-3.196,1.615-6.01,3.578-8.335c0.29-0.579,0.798-1.303,0.58-1.959
				c-0.435,1.308-1.308,2.396-2.396,3.339c-1.67,1.453-3.173,4.02-3.245,6.199c-0.58,4.431,3.025,7.018,4.913,10.578
				c0.438,0.942,0.655,2.033,0.873,3.049c0.145,0.29-0.072,0.729,0.145,0.944c0.801-2.249,1.235-4.646,1.016-7.263
				c-0.58-2.903-1.886-5.519-1.596-8.713c0.073-1.09,0.218-2.178,0.798-2.905c-0.397,2.524-0.58,3.523,0.945,6.827
				c0.146,0.144-0.072,0.436,0.29,0.436c0.583-0.726,0.942-1.672,1.527-2.469c1.886-2.469,4.354-5.01,7.622-5.01
				c-4.211-1.162-7.114,2.541-9.225,5.52c-0.798-1.599-0.095-4.139,0.198-5.956c0.725-2.179,2.2-3.268,2.855-5.519
				C54.925,14.891,55.215,14.311,54.925,13.947z M30.042,15.835c-3.558-0.654-6.489,2.397-9.614,3.268
				c-0.433,0.218-1.085-0.072-1.306,0.218c3.341,0.726,5.591-2.178,8.714-2.542c1.015-0.144,2.035,0.146,2.613,0.944
				c0.873,1.744,0.075,3.294-0.652,4.888c-1.163,2.396-3.561,4.408-4.646,6.804c-0.438,1.162-1.018,2.542-0.51,3.703h0.073
				c-0.073-2.688,1.89-4.72,3.703-6.535c2.253-2.326,4.646-5.714,3.196-9.053C31.323,16.804,30.695,16.126,30.042,15.835z
				 M39.967,17.433c-0.51,1.019-0.51,2.651-0.365,3.668c0.292,1.088,0.943,1.924,1.523,2.939c-0.218-2.25-1.088-4.358-1.088-6.534
				L39.967,17.433z M18.252,22.519c-0.362,0.216-1.018,0.07-0.873,0.651c2.795-0.256,5.153-1.163,7.406-2.688
				C22.608,20.991,20.428,21.862,18.252,22.519z M15.417,22.226c-0.143,1.017,0.218,2.032-0.07,3.049
				c-0.073,0.799-0.728,1.453-0.728,2.25c0.145-0.217,0.435-0.144,0.583-0.364C16.545,25.457,16.29,23.606,15.417,22.226z
				 M17.672,24.258c-0.075,0.147-0.075,0.292-0.075,0.437l1.397,0.127c2.178,0.11,3.903-0.634,5.719-1.506
				C22.318,23.533,19.996,23.969,17.672,24.258z M18.47,25.782c-0.292,0-1.163-0.289-0.945,0.365l1.563,0.582
				c1.635,0.361,2.505,0.146,3.666,0.146C21.373,26.365,19.851,26.147,18.47,25.782z M103.26,26.729
				c-2.395-0.51-6.438-0.947-8.834-0.654c2.107,0.364,4.684,0.873,6.719,1.38c4.352,1.307,8.314,2.252,11.945,5.012
				c-6.174-1.165-12.225-0.656-17.816,0.8c-6.682,1.957-13.339,5.007-19.366,8.71c4.065-1.525,8.622-3.208,12.713-4.842
				c11.979-3.721,15.52-5.051,24.611-4.307c0.367,0,0.804,0.219,1.162,0.146c-0.072-0.292-0.504-0.764-0.726-0.981
				C110.04,29.379,107.399,27.818,103.26,26.729z M135.458,38.782c-0.293-0.144-0.512-0.579-0.871-0.508
				c2.465,1.962,3.99,4.865,4.72,7.916c0.651,2.322,1.547,4.89,2.928,6.927c2.033,2.61,3.533,4.837,3.756,8.106l-0.053,0.133
				c-4.281,0.364-8.028-0.733-11.66-2.402c-4.899-2.359-8.713-6.173-12.707-10.167c-1.307-0.945-2.887-1.942-4.34-2.306
				c0.069,0.072,0.217,0.143,0.36,0.218c4.791,2.76,7.188,8.423,12.056,11.255c4.722,3.27,11.112,4.865,16.994,3.848
				c0-2.468-0.509-4.502-1.453-6.607c-1.381-3.409-4.479-6.606-5.131-10.31C139.325,42.34,137.635,40.599,135.458,38.782z
				 M111.348,40.381c-1.674,0.438-3.199,1.09-4.723,1.889c-7.771,4.21-14.232,11.688-22.731,14.015c0.585,0,1.311-0.075,1.891-0.219
				c4.069-1.381,8.301-3.002,11.788-5.617c4.721-3.704,8.912-7.963,14.355-9.996L111.348,40.381z M52.382,48.514
				c-0.36,0.871,0.074,1.887,0.292,2.614c-0.652-0.435-1.09-1.161-1.38-1.886c-0.146-0.076-0.072-0.363-0.221-0.363
				c0.075,1.666,1.291,3.41,2.599,4.354c2.686,2.104,6.046,2.396,8.876,4.283L62.4,57.299c-1.305-2.178-4.355-2.396-4.936-5.081
				h-0.072c-0.072,0.802,0.365,1.449,0.652,2.104c-1.74-0.364-2.54-2.324-2.978-3.629c-0.213,0.359-0.073,0.725,0,1.09
				c0.072,0.435,0.292,0.869,0.22,1.234C53.614,52.068,52.744,50.254,52.382,48.514L52.382,48.514z M63.929,50.764
				c0.435,2.471,2.59,4.77,4.841,5.496c1.333,1.574,1.355,4.26,1.575,5.566c0.65,4.792,2.298,6.73,3.823,11.23
				c0.435,1.453,0.36,2.979,0.435,4.504l0.073,0.072c1.232-3.195-0.365-6.318-1.378-9.15c-1.022-2.613-1.24-5.445-1.603-8.205
				c-0.36-1.815-0.216-3.922-1.883-5.084C67.489,54.322,65.454,52.939,63.929,50.764z M150.922,61.947l0.146,0.361
				c1.093,0.801,2.611,0.729,3.994,1.019c3.754,0.68,5.844,0.138,9.315,3.825c1.33,2.539,2.229,4.523,3.605,6.851l0.221,0.073
				c-0.943-2.251-1.818-4.575-2.615-6.899c-0.58-1.961-2.467-3.559-4.43-3.922C157.75,62.818,154.188,62.674,150.922,61.947z"/>
			<path fill="#1D1D1B" d="M122.092,54.757v0.222c-3.922,3.629-8.492,7.26-11.475,11.689c-0.507,0.869-0.871,1.814-1.308,2.688
				c0.608-5.472,1.815-8.062,3.196-11.908c-2.469,3.558-4.065,7.695-4.215,12.345c0,1.959,0.293,3.847,0.58,5.664
				c0,1.67-1.742,2.251-2.832,2.763c-0.795,0.288-1.52,0.725-2.246,1.016c0.508-1.092,1.283-1.43,1.765-3.85
				c0.146-2.471-0.526-4.794,0.269-7.044c-0.072-0.22,0.073-0.293,0-0.438c-0.509,0.51-0.65,1.381-0.873,2.107
				c-0.795,3.413-0.144,7.553-3.052,10.021c-1.668,1.234-3.264,2.182-4.937,3.34l-1.309,0.365l-4.5-0.073
				c0.146-0.799,0.51-1.744,1.381-2.181c0.51-0.217,1.164-0.36,1.449-0.942c-0.215-0.218-0.578,0.29-0.867,0.362
				c-1.236,0.22-2.69,1.017-2.979,2.326c-0.072,0.865-1.234,0.362-1.818,0.508c-0.504-0.073-1.084,0.07-1.379-0.146
				c-0.067-0.942,1.168-1.673,1.602-2.47c0.434-0.51,1.234-0.582,1.523-1.163c-1.09,0.291-2.47,0.362-2.98,1.599
				c-0.288,0.799-1.306,1.234-1.376,2.105c-0.652,0.145-1.31,0.072-1.963,0.072c-0.295-0.221-0.295-0.58-0.145-0.871
				c0.287-0.651,0.798-1.236,1.232-1.742l-0.075-0.073c0.511-0.944,1.53-1.89,2.764-1.96c2.035,0.146,4.066-0.074,5.811-1.018
				c2.541-1.524,5.951-3.34,6.682-6.536c0.873-3.413-0.15-7.115-0.508-10.529c-0.223-1.671-0.365-3.343-0.223-5.155l0.149-0.219
				c4.498-2.396,8.854-5.229,14.086-5.809C117.229,49.604,119.7,52.436,122.092,54.757z"/>
			<path fill="#1D1D1B" d="M37.569,64.779c-0.583,0.51-1.38,0.652-1.96,1.162c-3.416,2.322-6.829,4.938-9.442,8.276
				c-1.815,2.255-4.066,4.287-6.463,5.738l-0.073-0.072c2.25-4.212,1.743-9.442,4.938-13.289c0.652-0.798,1.598-1.38,2.105-2.253
				c-2.248,1.309-4.621,3.246-5.349,5.715c-1.308,3.123-1.04,7.213-3.073,10.045c-0.873,0.869-1.745,1.6-2.905,1.892
				c-1.235,0.073-2.253,0.653-2.976,1.597l-0.658,0.217c-1.523,0-2.831,0.147-4.208-0.072v-0.072c0.36-0.729,0.725-1.668,1.52-2.105
				l-0.07-0.074c0.362-0.289,0.945-0.435,1.305-0.725c0-0.07-0.07-0.291-0.215-0.219c-0.22,0-0.362,0.29-0.507,0.072
				c-0.873,0.146-1.818,0.654-2.326,1.307c0,0,0,0.076,0,0.148l0.145-0.148c-0.217,0.584-0.652,1.236-1.09,1.816
				c-0.87,0.148-1.453,0.072-2.25,0.072l-0.07-0.146h0.07c-0.07-0.216,0.143-0.363,0.143-0.655c0.438-0.433,0.803-0.939,1.02-1.38
				c0.218,0,0.145-0.36,0.288-0.506c0.145-0.073,0.218-0.435,0.438-0.435c0.363-0.512,1.088-0.512,1.525-0.802
				c-0.365-0.146-0.653,0-1.018-0.071v0.071c-0.073-0.071-0.218,0.072-0.29,0c-0.288,0-0.583,0.218-0.798,0.146
				c-0.652,0.58-1.018,1.451-1.67,2.182c-0.507,0.362-0.873,1.087-1.087,1.596c-0.655,0.147-1.453,0-2.181,0
				c-0.22-0.58,0.218-1.017,0.435-1.524c1.09-1.161,2.033-2.976,3.776-3.56c2.323-0.072,4.863,0.436,6.681-0.942
				c2.033-1.382,2.833-3.995,4.503-5.595c0.072-0.436,0.435-0.651,0.725-1.017c1.745-2.25,3.561-4.792,5.301-7.26
				c1.891-2.905,3.706-5.812,4.796-9.007C29.872,58.68,34.156,61.223,37.569,64.779z"/>
		</g>
		<path fill="none" d="M-30.104,98.389"/>
	</g>
</g>
</svg>
