<?xml version="1.0" encoding="utf-8"?>
<!-- Generator: Adobe Illustrator 16.0.0, SVG Export Plug-In . SVG Version: 6.00 Build 0)  -->
<!DOCTYPE svg PUBLIC "-//W3C//DTD SVG 1.1//EN" "http://www.w3.org/Graphics/SVG/1.1/DTD/svg11.dtd">
<svg version="1.1" id="Layer_1" xmlns="http://www.w3.org/2000/svg" xmlns:xlink="http://www.w3.org/1999/xlink" x="0px" y="0px"
	 width="160.24px" height="160.242px" viewBox="0 0 160.24 160.242" enable-background="new 0 0 160.24 160.242"
	 xml:space="preserve">
<g>
	<path fill="#1D1D1B" d="M80.12,7.223c40.15,0,72.896,32.747,72.896,72.896c0,19.009-7.343,36.355-19.332,49.355
		c1.215-2.859,2.133-5.211,2.481-6.525c1.565-5.887,1.351-11.881-2.214-19.117c-3.564-7.233-12.366-14.418-17.496-16.899
		c-5.13-2.483-13.446-3.513-21.979-2.701c-8.533,0.812-19.278,2.431-27.271,1.297c-7.992-1.135-13.824-7.291-14.634-12.367
		c-0.81-5.076,1.026-8.748,1.836-9.721c0.81-0.972,0.108-1.295-0.648-1.89c-0.756-0.594-1.89-1.944-2.106-4.266
		c-0.216-2.322,0.594-6.103,0.918-6.21c0.324-0.108,0.324,0.324,0.216,0.864c-0.108,0.541-0.594,3.024,1.35,7.993
		c1.944,4.968,8.748,4.806,13.123,3.888c4.374-0.918,9.558-4.536,11.826-4.914c2.268-0.378,6.805,1.296,12.475,4.428
		s7.938,7.075,11.231,10.152c3.294,3.078,5.562,2.592,7.074,2.646c1.512,0.054,3.618,0.648,5.399,0.918s4.752,0.702,6.103,0.324
		c1.35-0.378,3.294-2.916,4.266-3.132c0.974-0.216,1.458,4.104,2.16,8.1c0.702,3.996,2.054,9.504,5.726,14.258
		c3.672,4.752,6.804,6.209,10.205,5.994c3.402-0.217,6.103-4.105,6.426-4.861c0.324-0.756-0.971-0.162-2.213,0.486
		s-4.481,1.404-6.805,0.756c-2.322-0.648-3.402-3.133-3.188-3.564c0.216-0.431,1.675,0.055,2.863,0.379
		c1.188,0.324,4.049,0.539,6.75-0.865c2.699-1.401,4.318-4.696,4.481-7.774c0.161-3.078-2.106-5.614-4.052-6.371
		c-1.944-0.756-2.268,0.377-1.997,0.757c0.271,0.377,2.321,1.239,2.7,2.969c0.377,1.729,0.055,5.238-1.351,6.858
		c-1.403,1.619-5.832,2.269-9.019,0.539s-5.293-7.344-5.993-10.746c-0.703-3.401-2.917-8.478-4.321-10.638
		c-1.402-2.16-4.266-3.726-4.104-4.212c0.162-0.486,1.08-0.594,3.078-0.216s2.482,2.376,2.537,3.24
		c0.055,0.864,0.485,0.81,1.404,0.432c0.917-0.378,1.457-1.782,1.457-3.186c0-1.404,0.596-2.052,1.026-2.7s-0.107-2.052,0.108-2.592
		c0.215-0.54,1.188-1.836,1.35-2.592c0.162-0.756-1.404-2.214-1.242-2.484s1.188,0,1.998-0.216c0.811-0.216-0.107-2.268-1.242-3.726
		c-1.134-1.458-2.482-3.024-4.59-3.348c-2.105-0.324-2.321,1.35-3.996,1.458c-1.674,0.107-3.4-0.486-5.346-1.944
		s-3.402-2.376-6.049-2.322c-2.646,0.055-4.319-0.81-6.155-2.646s-3.618-3.023-3.456-4.374c0.162-1.35,2.754-1.728,4.266-1.836
		c1.514-0.108,1.188-1.296,0.162-3.564c-1.025-2.268-4.212-4.914-6.642-5.886c-2.431-0.972-4.753-0.054-5.94-0.486
		s-1.188-2.646-2.376-4.158c-1.188-1.512-5.347-1.35-9.504-1.296c-4.158,0.054-6.102,0-7.128-0.81
		c-1.026-0.81,0.054-1.836,0.486-2.7c0.432-0.864-0.108-0.918-1.026-0.594c-0.918,0.324-2.484,1.566-3.186,2.754
		s-1.296,1.403-1.89,1.565c-0.594,0.162-0.324-0.756-1.134-1.512c-0.81-0.756-1.998-0.486-3.726-0.864s-5.94-1.35-6.372-4.698
		C60.346,11.656,63.1,9.01,66.611,8.74c3.51-0.271,5.015,3.135,5.562,3.132c0.518-0.003,0.288-2.161-0.649-4.137
		C74.347,7.4,77.213,7.223,80.12,7.223L80.12,7.223z M29.909,132.886C15.947,119.591,7.223,100.843,7.223,80.12
		c0-26.252,14.002-49.338,34.918-62.175c0.134,0.757,0.163,1.716,0.573,2.792c0.716,1.88,3.67,2.506,5.639,3.223
		c1.97,0.716,4.477,0.537,4.477,0.537s-0.089,0.448-1.253,0.895c-1.164,0.448-5.014,0.716-9.848,0.985s-9.221,3.85-12.264,7.52
		c-3.044,3.671-4.834,7.699-6.356,8.147c-1.522,0.447-2.417-2.775-2.955-2.596c-0.536,0.179-1.163,1.611-0.895,3.67
		c0.269,2.059,2.596,2.775,2.954,3.671c0.358,0.895-1.343,2.238-2.865,3.849c-1.522,1.611-4.028,5.46-3.581,17.278
		c0.448,11.817-1.253,16.74-2.506,18.978c-1.253,2.238-2.955,1.791-3.939,2.061c-0.984,0.269-0.178,1.521,0.985,2.596
		c1.164,1.074,4.208,1.611,6.536,0.984c2.327-0.627,3.67-4.117,4.207-3.85c0.537,0.27,0.627,2.238,2.328,6.088
		s4.923,8.146,6.624,10.295c1.702,2.148,1.433,2.148,0.806,3.043c-0.627,0.896-0.448,2.775-0.269,5.461
		c0.18,2.686,1.165,6.178-0.268,7.52c-1.432,1.345-5.282-0.356-5.999-0.268c-0.716,0.09-0.895,0.717,0.627,2.416
		c1.522,1.701,3.85,2.865,6.804,2.418s4.296-4.297,4.476-6.178c0.179-1.879,0.984-5.191,3.401-4.744s3.312,3.939,3.402,6.355
		c0.09,2.418,1.075,3.312,1.433,5.014c0.358,1.701-1.611,1.701-1.433,2.775c0.179,1.074,1.791,0.627,2.955-0.537
		s1.522-3.85,1.969-5.191c0.447-1.344,1.433-0.896,2.865-0.18c1.433,0.717,4.118,0.807,7.609,1.521
		c3.491,0.717,8.415,2.147,8.594,6.625c0.179,4.477-3.402,6.715-10.653,7.43c-7.251,0.717-17.994-1.252-24.798-4.744
		C30.96,133.514,30.423,133.208,29.909,132.886L29.909,132.886z M51.892,12.926c1.138-0.481,2.291-0.932,3.457-1.356
		c-0.173,1.532,0.263,3.424,0.973,5.317c1.074,2.865,5.55,4.118,5.55,4.745c0,0.626-1.432,0.716-2.864,0.269
		c-1.433-0.447-3.492-1.074-6.446-1.432c-2.955-0.358-5.729-0.985-5.998-2.06c-0.269-1.074,1.432-2.685,3.223-3.312
		c1.791-0.626,3.223,1.164,3.76,1.074c0.537-0.089,0.447-0.806-0.358-2.059C52.872,13.62,52.376,13.225,51.892,12.926L51.892,12.926
		z M77.602,37.209c-0.762-0.762,1.089-3.592,5.008-3.375c3.918,0.217,5.225,1.851,7.619,3.266c2.396,1.415,3.483,1.959,2.939,2.178
		c-0.545,0.217-3.92-0.109-6.75-0.871c-2.83-0.762-3.811-1.416-5.443-1.307C79.344,37.209,78.364,37.972,77.602,37.209
		L77.602,37.209z M112.528,54.725c-0.684-1.637,1-3.184,2.91-2.819c1.91,0.363,3.184,1,3.093,1.591s-1.593,0.637-2.773,1.183
		C114.574,55.225,113.211,56.362,112.528,54.725L112.528,54.725z M79.779,52.559c-0.217-0.653,4.464-5.77,9.58-4.898
		c5.117,0.871,10.451,5.443,15.023,9.471c4.572,4.028,7.402,5.77,9.579,6.423c2.179,0.653,2.972,0.337,3.149,0.715
		s0.332,7.264-0.022,7.486c-0.354,0.222-6.175-0.254-12.487-4.5c-6.314-4.246-13.392-9.798-17.527-11.431
		C82.937,54.192,79.997,53.212,79.779,52.559L79.779,52.559z M120.296,68.52c0.984-1.459,4.997,0.693,3.83,2.663
		C122.959,73.153,119.312,69.979,120.296,68.52L120.296,68.52z M80.12,0c44.129,0,80.12,35.992,80.12,80.12
		c0,44.129-35.991,80.122-80.12,80.122S0,124.25,0,80.12C0,35.992,35.991,0,80.12,0L80.12,0z"/>
</g>
</svg>
