<?xml version="1.0" encoding="utf-8"?>
<!-- Generator: Adobe Illustrator 16.0.0, SVG Export Plug-In . SVG Version: 6.00 Build 0)  -->
<!DOCTYPE svg PUBLIC "-//W3C//DTD SVG 1.1//EN" "http://www.w3.org/Graphics/SVG/1.1/DTD/svg11.dtd">
<svg version="1.1" id="Layer_1" xmlns="http://www.w3.org/2000/svg" xmlns:xlink="http://www.w3.org/1999/xlink" x="0px" y="0px"
	 width="126.5px" height="120.293px" viewBox="0 0 126.5 120.293" enable-background="new 0 0 126.5 120.293" xml:space="preserve">
<g>
	<ellipse fill="#372C7C" cx="63.832" cy="59.375" rx="59.336" ry="59.375"/>
	
		<radialGradient id="SVGID_1_" cx="10.646" cy="85.3594" r="104.221" gradientTransform="matrix(1 0 0 -1 54 92.5859)" gradientUnits="userSpaceOnUse">
		<stop  offset="0" style="stop-color:#5EBFE7"/>
		<stop  offset="0.1796" style="stop-color:#5DBCE5"/>
		<stop  offset="0.313" style="stop-color:#5BB3DE"/>
		<stop  offset="0.4315" style="stop-color:#58A2D2"/>
		<stop  offset="0.5412" style="stop-color:#538CC1"/>
		<stop  offset="0.645" style="stop-color:#4C6FAB"/>
		<stop  offset="0.7429" style="stop-color:#444B91"/>
		<stop  offset="0.8146" style="stop-color:#3D2C7A"/>
		<stop  offset="1" style="stop-color:#6282BD"/>
	</radialGradient>
	<ellipse fill="url(#SVGID_1_)" cx="63.832" cy="59.375" rx="58.215" ry="58.254"/>
	
		<radialGradient id="SVGID_2_" cx="10.6279" cy="78.417" r="52.2361" gradientTransform="matrix(1 0 0 -1 54 92.5859)" gradientUnits="userSpaceOnUse">
		<stop  offset="0" style="stop-color:#008CCD"/>
		<stop  offset="0.3798" style="stop-color:#0F6EAC"/>
		<stop  offset="1" style="stop-color:#2B366E"/>
	</radialGradient>
	<path fill="url(#SVGID_2_)" d="M55.482,89.445c-0.072-0.315-0.857-1.231-1.458-1.438c-0.599-0.203-1.188,0.885-1.574-0.924
		c-1.266,0.727-1.812-0.2-1.812-0.2s-1.365,0.08-1.629,1.751c-0.65,0.77-2.316,3.566-1.431,0.657c0.891-2.927-0.94-0.229-1.11,1.24
		c-0.318,0.653-0.855,0.719-0.517-2.218c-1.173-0.405-1.772-3.127-1.129-3.18c-0.747-1.041-0.16-2.634,0.462-2.549
		c0.622,0.08,1.69-1.359,1.657-1.693c-0.033-0.332,0.482-0.096,0.45-2.336c-0.033-2.246,0.847-2.804,0.919-0.925
		c0.076,1.872,1.194-0.612,1.079-1.565c-0.116-0.948,0.112-3.094,0.793-1.826c-0.793-3.137-0.167-3.262,0.309-1.174
		c1.193,0.095,1.234,0.73,1.234,0.73c1.321-0.324,1.954,0.67,2.056,1.229c1.224-1.444,2.46,0.113,2.46,0.113
		s0.853-0.283,0.445,1.199c-0.41,1.479,1.772,0.68,1.251-0.384c1.073-0.543,2.666,1.103,3.168,2.224
		c0.502,1.129-0.86,2.725,0.202,3.109c1.068,0.384,0.6,2.24,0.6,2.24s2.232,1.238,0.683,2.303l-0.528,1.265
		c0,0,1.01,1.128,1.354,0.456c0.344-0.673,0.466,0.684,0.466,0.684c-0.129-0.24,0.248,1.396,1.64,1.74
		c1.397,0.34,2.283,2.549,0.731,2.577c-1.546,0.025-1.667-0.017-2.086,0.886c-0.417,0.899-2.391,0.932-3.413-0.232
		c-1.087,0.368-3.021-0.105-2.452-0.977c-0.938,0.547-1.824-0.922-1.091-1.576c0.733-0.652-0.412-1.498-0.797-0.562
		c-0.381,0.936-2.404,1.396-2.263-0.195c0.042-0.473,1.12-0.748,1.134-0.354C55.483,89.996,55.563,89.505,55.482,89.445z"/>
	<g>
		
			<radialGradient id="SVGID_3_" cx="10.6396" cy="78.4102" r="52.2205" gradientTransform="matrix(1 0 0 -1 54 92.5859)" gradientUnits="userSpaceOnUse">
			<stop  offset="0" style="stop-color:#008CCD"/>
			<stop  offset="0.3798" style="stop-color:#0F6EAC"/>
			<stop  offset="1" style="stop-color:#2B366E"/>
		</radialGradient>
		<path fill="url(#SVGID_3_)" d="M103.618,43.916c0.309,0.306,0.916,0.238,1.254,0.144c0.339-0.097,0.29-0.337,0.582-0.431
			c0.287-0.097,1.397,0.431,1.106,1.584c-0.672,0.094-0.916,0.912-0.916,0.912s-0.674,0.287-1.014,0.144
			c-0.338-0.144-0.338-0.097-0.82-0.05c-0.482,0.05-1.643-0.622-0.388-0.622c1.257,0-0.144-0.577-0.675-0.577
			s-0.098-0.528,0.531-0.384C102.846,43.916,103.086,43.385,103.618,43.916z"/>
		
			<radialGradient id="SVGID_4_" cx="10.6226" cy="78.4102" r="52.2386" gradientTransform="matrix(1 0 0 -1 54 92.5859)" gradientUnits="userSpaceOnUse">
			<stop  offset="0" style="stop-color:#008CCD"/>
			<stop  offset="0.3798" style="stop-color:#0F6EAC"/>
			<stop  offset="1" style="stop-color:#2B366E"/>
		</radialGradient>
		<path fill="url(#SVGID_4_)" d="M99.266,46.524c-0.338,0.334,0.049,1.344,0.482,1.294c0.434-0.047,1.109-0.238,1.109-0.238
			s0.336,0.672,0,0.866c-0.338,0.19-1.319,0.106-0.047,0.575c1.304,0.479,1.641,0.334,1.736,0.094
			c0.098-0.238,0.53-1.054,0.773-1.006c0.193-0.431-0.676-0.815-0.192-1.105c0.479-0.288,0.097-1.343,0.097-1.343
			s-0.678,0.047-0.967,0.528c-0.291,0.48-0.675-0.047-0.965-0.047c-0.049,0.287-0.243,0.527-0.243,0.527l-0.192-0.434
			C100.857,46.234,99.505,46.188,99.266,46.524z"/>
	</g>
	
		<radialGradient id="SVGID_5_" cx="11.4824" cy="73.4648" r="57.382" gradientTransform="matrix(1 0 0 -1 54 92.5859)" gradientUnits="userSpaceOnUse">
		<stop  offset="0" style="stop-color:#008CCD"/>
		<stop  offset="0.2788" style="stop-color:#0972AC"/>
		<stop  offset="0.8906" style="stop-color:#212F58"/>
		<stop  offset="1" style="stop-color:#252348"/>
	</radialGradient>
	<path fill="url(#SVGID_5_)" d="M90.241,47.314c-0.041-0.123,0.385-0.62,0.27,0.024c-0.262,0.458,1.06,0.87,1.429,0.36
		c1.242-1.7-1.17-2.522-2.215-1.732c-1.058,0.797-1.639-0.912-0.426-1.155c1.21-0.245,1.312-2.43-0.021-2.438
		c1.177-0.58-0.452-2.318-1.799-2.615c-0.217-1.87-2.188-3.059-3.227-2.38c-1.047,0.681-1.137,0.561-2.671-0.37
		c-1.528-0.927-2.265,1.928-1.14,3.175c1.131,1.256,0.311,3.281,0.356,2.935c0,0-0.426,0.766-0.397,1.053
		c-1.293,0.439-1.672-1.383-2.476-1.786c-0.585,0.763-1.528,1.17-1.528,1.17l0.069-1.553c0,0-4.017-2.188-5.252-1.575
		c-1.521,0.47-1.881,3.991-0.499,4.506c1.383,0.521-1.734,1.818,1.393,5.116c3.213,3.386,4.455,3.483,5.111,2.932
		c0.162-0.139,0.442-0.347,0.784-0.578c0.03,0.13,0.082,0.255,0.162,0.373c0.804,1.209-1.869,2.162-2.242,3.894
		c-0.379,1.751-0.028,5.007,1.558,5.118c0.301-1.736,3.27-1.122,1.653,0.449c-1.643,1.603-0.489,1.886-0.489,1.886
		s0.078,3.004,2.592,2.044c-0.072,0.172-0.131,0.392-0.166,0.632c-0.703-0.142-2.422-0.355-2.842,0.842
		c-0.529,1.512-2.773-0.513-4.344,0.168c-1.562,0.674-3.844,2.887-3.074,4.441c1.475-0.699,2.604,2.456,0.543,1.809
		c-2.068-0.65-1.666,0.582-1.666,0.582s-2.154,1.699-0.138,3.51c-0.774,0.117-2.151,0.98-1.688,2.873c0,0-0.884,0.033-1.003,1.727
		c-2.887,0.582-2.711,1.479,1.633,0.496c-1.752,0.909,1.227,1.338,2.547,1.217c1.321-0.12,4.791,1.592,2.185,1.607
		c-2.611,0.017-1.834,1.294,1.295,1.354c3.123,0.064,2.795,0.787,3.26,0.757c0.465-0.033,2.483,1.561,2.373,2.443
		c-0.113,0.885,2.117,1.802,3.565,0.788c0.074,0.919,3.888,0.202,4.45-1.455c4.128,0.632,4.031-0.14,3.113-0.629
		c-2.067-0.315-5.859-3.063-1.745-1.649c4.093,1.41,0.149-1.109-0.931-2.078c-2.35-0.457-2.471-2.416-2.471-2.416
		s1.299-0.738,0.274-2.586c2.538-0.472,1.007-1.365,1.29-2.216c0.285-0.854,1.574-1.942,2.017-2.03
		c0.085-0.114,0.774,0.023,0.134,0.282c-0.554,0.007-0.16,1.566,0.502,1.646c2.242,0.272,1.588-2.654,0.271-3.243
		c-1.32-0.594-0.136-2.204,0.791-1.12c0.928,1.082,2.993-0.133,2.219-1.504c1.231,0.854,1.896-1.909,1.371-3.495
		c1.647-1.429,1.597-4.277,0.319-4.915c-0.627-0.313-0.93-0.516-1.082-0.904c0.759-0.358,1.763-0.622,2.156-0.269
		c0.642,0.579,2.424-1.019,2.312-2.885c0.752,0.412,1.946-3.396,0.933-4.727c2.325-3.252,1.698-3.547,0.922-3.002
		c-1.17,1.622-5.015,3.563-2.035,0.688c2.893-2.791-0.769-0.675-1.993-0.222c-1.44,1.805-2.97,0.938-2.97,0.938
		s0.064-1.479-1.797-1.509c0.859-2.373-0.525-1.516-1.012-2.164C90.27,49.301,90.093,47.719,90.241,47.314z"/>
	
		<radialGradient id="SVGID_6_" cx="10.6279" cy="78.4131" r="52.2333" gradientTransform="matrix(1 0 0 -1 54 92.5859)" gradientUnits="userSpaceOnUse">
		<stop  offset="0" style="stop-color:#008CCD"/>
		<stop  offset="0.3798" style="stop-color:#0F6EAC"/>
		<stop  offset="1" style="stop-color:#2B366E"/>
	</radialGradient>
	<path fill="url(#SVGID_6_)" d="M60.084,23.541c-0.361,0.941,1.178,2.47,1.951,1.978c0.775-0.495,1.885-1.482,1.885-1.482
		s1.177,0.945,0.701,1.619c-0.479,0.672-2.386,1.428,0.374,1.122c2.831-0.313,3.347-0.897,3.333-1.437
		c-0.016-0.538,0.141-2.469,0.631-2.603c0.016-0.99-1.926-0.898-1.254-1.889c0.673-0.986-0.904-2.606-0.904-2.606
		s-1.229,0.719-1.382,1.888c-0.155,1.167-1.304,0.538-1.848,0.806c0.141,0.584-0.026,1.212-0.026,1.212l-0.711-0.629
		C62.835,21.519,60.263,22.688,60.084,23.541z"/>
	
		<radialGradient id="SVGID_7_" cx="10.6289" cy="78.4053" r="52.228" gradientTransform="matrix(1 0 0 -1 54 92.5859)" gradientUnits="userSpaceOnUse">
		<stop  offset="0" style="stop-color:#008CCD"/>
		<stop  offset="0.3798" style="stop-color:#0F6EAC"/>
		<stop  offset="1" style="stop-color:#2B366E"/>
	</radialGradient>
	<path fill="url(#SVGID_7_)" d="M64.688,72.966c-0.337,0.335,0.05,1.345,0.483,1.298c0.434-0.051,1.109-0.24,1.109-0.24
		s0.338,0.672,0,0.863c-0.339,0.19-1.319,0.108-0.049,0.575c1.303,0.479,1.642,0.337,1.74,0.097c0.094-0.24,0.528-1.057,0.771-1.01
		c0.194-0.431-0.677-0.814-0.193-1.102c0.484-0.291,0.101-1.346,0.101-1.346s-0.678,0.047-0.967,0.528
		c-0.291,0.479-0.677-0.05-0.968-0.05c-0.049,0.288-0.24,0.527-0.24,0.527l-0.193-0.431C66.28,72.68,64.928,72.631,64.688,72.966z"
		/>
	<g>
		<g>
			<defs>
				<ellipse id="SVGID_8_" cx="63.832" cy="59.375" rx="58.215" ry="58.254"/>
			</defs>
			<clipPath id="SVGID_9_">
				<use xlink:href="#SVGID_8_"  overflow="visible"/>
			</clipPath>
			
				<linearGradient id="SVGID_10_" gradientUnits="userSpaceOnUse" x1="22.4507" y1="75.9932" x2="39.3106" y2="74.5558" gradientTransform="matrix(1 0 0 -1 54 92.5859)">
				<stop  offset="0" style="stop-color:#008CCD"/>
				<stop  offset="0.3798" style="stop-color:#0F6EAC"/>
				<stop  offset="1" style="stop-color:#2B366E"/>
			</linearGradient>
			<path clip-path="url(#SVGID_9_)" fill="url(#SVGID_10_)" d="M65.138,1.002c-0.912,0.203,0.613,3.503,0.613,3.503
				s-0.055,2.216,0.32,2.329c0.375,0.113,2.852,0.733,4.148,2.345c1.301,1.614,0.625,2.463-0.457,1.997
				c-1.085-0.465-0.798,0.959-0.798,0.959s3.271,1.063,0.8,0.995c-2.475-0.066,1.666,1.741,1.394,1.93
				c-0.273,0.191-0.429,1.231-0.429,1.231s-2.184,0.182-0.334,0.959c6.262,2.637-0.668,1.925-0.668,1.925l-0.885,1.087l1.748,2.194
				l1.346,0.962c0,0,2.832-0.945,3.715-1.093c0.886-0.146,3.115-1.815,3.115-1.815s0.668,0.478,0.17-0.497
				c-0.502-0.976,1.84-0.54,2.424,0.186l4.136,1.867c0.055,0.144,0.146,0.274,0.293,0.375c0.805,0.565-0.729,1.535-0.573,2.562
				c0.155,1.016,1.094,2.704,2.121,2.526c-0.18-0.969,1.852-1.086,1.145-0.006c-0.705,1.077,0.076,1.056,0.076,1.056
				s0.653,1.521,2.034,0.676c-0.057,0.464,0.228,1.397,1.412,1.459c0,0-0.125,0.506,0.849,0.865
				c-0.131,1.737,0.426,1.792,0.562-0.846c0.244,1.157,0.99-0.471,1.141-1.25c0.15-0.784,1.756-2.505,1.322-0.984
				c-0.432,1.508,4.734,2.06,5.307,0.259c0.578-1.815,2.637-2.763,2.699-3.038c0.062-0.281-4.584-0.712-4.07-0.493
				c0.515,0.219,1.472-0.948,1.115-1.986c0.575,0.116,0.83-2.301-0.084-2.927c1.145-2.405,0.652-2.48,0.184-2.001
				c-0.569,1.205-2.924,3.023-1.327,0.783c1.608-2.263-0.652-0.284-1.438,0.208c-0.689,1.341-1.9,1.08-1.9,1.08
				s-0.221-0.911-1.516-0.607c0.152-1.612-0.652-0.838-1.119-1.154c-0.285-0.193-0.559-0.627-0.727-0.999
				c1.115,0.452,2.613,0.933,2.355,0.104c-0.168-0.542,2.11,0.643,2.19,0.396l2.849-0.396l2.77-1.75
				C85.465,0.164,65.138,1.002,65.138,1.002z"/>
		</g>
		<g>
			<defs>
				<ellipse id="SVGID_11_" cx="63.832" cy="59.375" rx="58.215" ry="58.254"/>
			</defs>
			<clipPath id="SVGID_12_">
				<use xlink:href="#SVGID_11_"  overflow="visible"/>
			</clipPath>
			
				<linearGradient id="SVGID_13_" gradientUnits="userSpaceOnUse" x1="-15.4316" y1="73.4395" x2="-24.7494" y2="59.7542" gradientTransform="matrix(1 0 0 -1 54 92.5859)">
				<stop  offset="0" style="stop-color:#008CCD"/>
				<stop  offset="0.3798" style="stop-color:#0F6EAC"/>
				<stop  offset="1" style="stop-color:#2B366E"/>
			</linearGradient>
			<path clip-path="url(#SVGID_12_)" fill="url(#SVGID_13_)" d="M38.829,6.095c-10.573,4.747-18.551,14.531-18.551,14.531
				s0.938,2.145,1.265,1.987c0.33-0.156-2.361,5.628-0.386,5.954c1.985,0.325,7.696-3.578,6.637-3.22
				c-1.056,0.356,0.595-2.112,0.595-2.112s2.972-1.318,1.214,0.202c-1.743,1.511,2.318,0.187,2.255,0.496
				c-0.064,0.311,0.525,1.147,0.525,1.147s-1.393,1.494,0.406,0.892c6.172-2.075,0.812,1.779,0.812,1.779l0.106,1.312l2.67,0.464
				l1.578-0.15c0,0,1.381-2.436,1.914-3.098c0.535-0.663,1.028-3.284,1.028-3.284s0.803-0.084-0.213-0.468
				c-1.016-0.385,0.972-1.583,1.886-1.434l4.303-1.336c0.138,0.068,0.292,0.103,0.47,0.082c0.985-0.114,0.489,1.603,1.294,2.25
				c0.796,0.644,2.627,1.264,3.283,0.469c-0.784-0.594,0.674-2.011,0.86-0.751c0.187,1.249,0.767,0.723,0.767,0.723
				s1.543-2.654,2.036-4.177c0.27,0.377,2.788-3.309,2.025-5.067c-0.771-1.78,0.479-3.456,0.34-3.715
				c-0.143-0.256-0.896,0.528-0.34,0.34c0.561-0.192-1.589,0.772-1.874-2.061c-0.288-2.89-0.707,0.243-0.985,1.169
				c0.377,1.508,4.29-6.093,4.29-6.093l5.044-2.057C64.083,0.873,52.603-0.088,38.829,6.095z"/>
		</g>
	</g>
	
		<linearGradient id="SVGID_14_" gradientUnits="userSpaceOnUse" x1="8.729" y1="58.0391" x2="8.729" y2="80.6906" gradientTransform="matrix(1 0 0 -1 54 92.5859)">
		<stop  offset="0.0137" style="stop-color:#1D1D1B"/>
		<stop  offset="0.8224" style="stop-color:#CDE1EB"/>
		<stop  offset="0.8296" style="stop-color:#CFE2EC"/>
		<stop  offset="0.9369" style="stop-color:#EAF1F6"/>
		<stop  offset="1" style="stop-color:#F4F7FA"/>
	</linearGradient>
	<ellipse opacity="0.5" fill="url(#SVGID_14_)" enable-background="new    " cx="62.729" cy="23.271" rx="30.826" ry="19.971"/>
	<g>
		<g>
			
				<linearGradient id="SVGID_15_" gradientUnits="userSpaceOnUse" x1="10.5547" y1="36.2852" x2="24.5431" y2="44.5005" gradientTransform="matrix(1 0 0 -1 54 92.5859)">
				<stop  offset="0" style="stop-color:#DE8A30"/>
				<stop  offset="0.5449" style="stop-color:#DE8A30"/>
				<stop  offset="0.6506" style="stop-color:#E49528"/>
				<stop  offset="0.8353" style="stop-color:#ECA21F"/>
				<stop  offset="1" style="stop-color:#EFA71C"/>
			</linearGradient>
			<path fill="url(#SVGID_15_)" d="M125.398,43.084l-1.426,9.15c0,0-2.039-16.94-4.539-23.273c-3.83-9.704-5.533-9.626-5.545-9.612
				c2.565,6.519,2.1,10.021,2.1,10.021s-4.545-12.387-16.562-16.328c-14.231-4.665-21.481-2.979-21.428-2.914
				c0.054,0.066,14.709,2.562,17.308,6.133c0,0-6.225,0-12.42,1.785c-0.279,0.08,22.793,2.882,27.51,25.938
				c0,0-2.528-5.277-5.656-6.173c2.057,6.258,1.529,18.133-0.43,24.035c-0.252,0.76-0.511-3.281-4.369-5.021
				c1.235,8.856-0.074,22.905-6.219,26.774c-0.479,0.303,3.852-13.867,0.87-8.39c-17.797,27.286-38.956,11.039-47.538,5.248
				c6.888,1.688,14.205,0.474,18.442-2.423c4.274-2.922,6.803-5.059,9.073-4.555c2.271,0.508,3.781-1.771,2.019-3.791
				c-1.766-2.025-6.051-4.809-11.849-3.291c-4.089,1.07-9.156,5.596-16.891,1.015c-6.599-3.91-6.554-7.086-6.554-9.108
				c0-2.024,1.8-5.1,5.076-4.595c2.934,0.453,1.388-1.27,4.545,0c0.86,0.346-0.086-4.129-1.31-6.996
				c2.357-4.919,10.004-6.381,10.575-6.812c1.034-0.782,0.465-1.172,0.818-2.35c0.33-1.097,0.541-4.062-8.017-3.243
				c-3.938,0.377-6.443-4.726-7.264-5.965c0.266-1.577,0.693-3.018,1.271-4.338c0.587-1.203,1.228-2.305,1.868-3.139
				c0.2-0.261,0.374-0.49,0.532-0.703c1.276-1.488,2.842-2.76,4.722-3.818c0.981-0.554-10.969-0.035-16.346,6.974
				c-1.443,0.188-3.423-0.228-5.636-0.228c-2.774,0-4.953,0.303-6.97,0.81c-0.323,0.081-0.844,0.037-1.481-0.115
				c-1.775-1.839-6.797-6.259-7.027-12.254c0,0-7.302,5.612-6.209,20.912c-0.096,8.461-2.594,6.042-3.879,10.634
				c-0.598,2.176,0.899,3.815,0.899,3.879c-0.002,0.033,1.796-1.946,1.796-1.946s-11.323,19.617,3.3,44.661
				c12.604,21.589,33.755,31.13,55.704,29.272c3.838-0.25,7.705-0.822,11.563-1.756C130.958,104.828,125.398,43.084,125.398,43.084z
				"/>
		</g>
	</g>
	
		<linearGradient id="SVGID_16_" gradientUnits="userSpaceOnUse" x1="-12.0845" y1="55.624" x2="-1.2265" y2="54.6937" gradientTransform="matrix(1 0 0 -1 54 92.5859)">
		<stop  offset="0.0112" style="stop-color:#9F351D"/>
		<stop  offset="0.8972" style="stop-color:#DF7523"/>
	</linearGradient>
	<path fill="url(#SVGID_16_)" d="M45.546,27.61c0,0,2.21,6.039,7.167,6.019c9.457-0.038,9.646,0.093,9.707,1.243
		c0.188,3.5-1.54,4.647-2.201,5.145c-0.663,0.497-9.668,5.718-9.999,7.211C49.89,48.72,39.829,33.03,39.829,33.03L45.546,27.61z"/>
	
		<linearGradient id="SVGID_17_" gradientUnits="userSpaceOnUse" x1="-29.4697" y1="58.6343" x2="9.7197" y2="53.7356" gradientTransform="matrix(1 0 0 -1 54 92.5859)">
		<stop  offset="0.0112" style="stop-color:#9F351D"/>
		<stop  offset="0.3946" style="stop-color:#BF5520"/>
		<stop  offset="0.7496" style="stop-color:#D66C22"/>
		<stop  offset="0.972" style="stop-color:#DF7523"/>
	</linearGradient>
	<path fill="url(#SVGID_17_)" d="M50.581,34.12c0,0,3.072,3.922,0.749,5.491c-2.838,1.916,4.012,2.335,6.494,0.942
		c2.482-1.393,4.006-3.44,4.093-3.745c0.087-0.305,0.902-3.054-4.279-2.096C54.362,35.318,53.163,35.458,50.581,34.12z"/>
	
		<linearGradient id="SVGID_18_" gradientUnits="userSpaceOnUse" x1="-5.1909" y1="48.2666" x2="-2.0654" y2="49.6418" gradientTransform="matrix(1 0 0 -1 54 92.5859)">
		<stop  offset="0" style="stop-color:#F1D4BF"/>
		<stop  offset="1" style="stop-color:#F8F5DA"/>
	</linearGradient>
	<path fill="url(#SVGID_18_)" d="M60.22,40.017c0.502-0.378,1.616-1.137,2.042-3.011c-0.311,0.126-0.34-0.23-0.707-0.076
		c-6.955,7.255-7.221,2.203-11.017,3.22c-3.46,0.947-4.237,2.246-4.383,2.347c0.051,0.073,0.104,0.148,0.155,0.221
		c0.997,0.506,1.953,2.122,2.671,3.564c0.702,0.836,1.173,1.248,1.241,0.945C50.552,45.734,59.557,40.513,60.22,40.017z"/>
	
		<linearGradient id="SVGID_19_" gradientUnits="userSpaceOnUse" x1="-15.1562" y1="10.0029" x2="37.4148" y2="7.8382" gradientTransform="matrix(1 0 0 -1 54 92.5859)">
		<stop  offset="0" style="stop-color:#B52223"/>
		<stop  offset="1" style="stop-color:#DE8A30"/>
	</linearGradient>
	<path fill="url(#SVGID_19_)" d="M8.257,45.782c-1.419,2.979-10.531,18.377,4.339,44.005c14.552,25.084,39.737,33.275,65.45,27.71
		c7.341-1.588,15.804-7.331,21.195-11.545c-3.466-8.74-1.413-8.412-3.271-7.263c-20.715,12.824-37.181,0.175-49.925-1.442
		C-0.836,91.307,8.422,45.689,8.422,45.689L8.257,45.782z"/>
	
		<linearGradient id="SVGID_20_" gradientUnits="userSpaceOnUse" x1="-2.6455" y1="18.1616" x2="24.7648" y2="8.3747" gradientTransform="matrix(1 0 0 -1 54 92.5859)">
		<stop  offset="0" style="stop-color:#9F351D"/>
		<stop  offset="1" style="stop-color:#DD8930"/>
	</linearGradient>
	<path fill="url(#SVGID_20_)" d="M47.296,80.934c4.419,1.324,14.06,0.183,18.201-2.896c2.789-2.074,4.897-3.639,6.67-4.293
		c-3.133-2.129-3.185,0.889-9.774,2.415C48.665,79.343,42,72.464,42,72.464c0.972,5.444,4.372,8.095,5.902,9.036
		C47.497,81.141,47.284,80.93,47.296,80.934z"/>
	
		<linearGradient id="SVGID_21_" gradientUnits="userSpaceOnUse" x1="-28.127" y1="20.5771" x2="-1.4053" y2="20.5771" gradientTransform="matrix(0.9988 0.049 0.049 -0.9988 33.7106 107.9421)">
		<stop  offset="0.0562" style="stop-color:#B42223"/>
		<stop  offset="1" style="stop-color:#D97620"/>
	</linearGradient>
	<path fill="url(#SVGID_21_)" d="M32.409,105.794c0,0-11.428-12.896-14.618-27.338c-4.704-4.442-8.042-8.199-10.259-10.917
		C8.812,77.816,14.052,93.771,32.409,105.794z"/>
	
		<linearGradient id="SVGID_22_" gradientUnits="userSpaceOnUse" x1="202.2432" y1="261.3477" x2="216.7821" y2="216.3057" gradientTransform="matrix(0.9929 0.1186 0.1186 -0.9929 -215.2628 311.9424)">
		<stop  offset="0.0562" style="stop-color:#DC8726"/>
		<stop  offset="1" style="stop-color:#F3CDA9"/>
	</linearGradient>
	<path fill="url(#SVGID_22_)" d="M22.876,94.082c0,0-7.887-11.229-4.93-20.762c2.66-8.571-0.565-3.473-2.441-1.641
		c-1.895,1.852-2.869-5.465-2.821-6.307c0.003-0.02,0.001-0.025-0.001-0.027C12.564,65.32,8.929,82.872,22.876,94.082z"/>
	
		<linearGradient id="SVGID_23_" gradientUnits="userSpaceOnUse" x1="-23.4233" y1="45.1978" x2="-23.4233" y2="-5.1496" gradientTransform="matrix(0.999 0.0448 0.0448 -0.999 34.4047 107.1113)">
		<stop  offset="0.0562" style="stop-color:#DC8726"/>
		<stop  offset="1" style="stop-color:#F3CDA9"/>
	</linearGradient>
	<path fill="url(#SVGID_23_)" d="M11.192,84.295c0,0-1.798-22.788,3.885-26.01c9.025-5.115,0.753-3.919-1.864-2.499
		c-2.645,1.433-2.4-8-2.026-8.896C11.554,46.007,1.873,55.808,11.192,84.295z"/>
	<path fill="#AA2A21" d="M50.678,17.239c0,0-7.145,7.257-7.092,7.282c0.054,0.026,0.205,9.315,0.438,11.948
		c0.856,1.011,3.524,7.588,1.482,6.128c-2.086-1.49-0.582-1.522-0.4-0.765c0.005,0.025,0.005,0.037,0,0.037
		C44.968,41.933,39.921,30.946,50.678,17.239z"/>
	
		<linearGradient id="SVGID_24_" gradientUnits="userSpaceOnUse" x1="-35.5752" y1="61.7393" x2="-41.0372" y2="75.7359" gradientTransform="matrix(1 0 0 -1 54 92.5859)">
		<stop  offset="0.0112" style="stop-color:#9F351D"/>
		<stop  offset="0.4719" style="stop-color:#DF7523"/>
		<stop  offset="1" style="stop-color:#F5C77E"/>
	</linearGradient>
	<path fill="url(#SVGID_24_)" d="M16.69,11.647c0,0-7.594,5.825-6.143,21.805c5.878-5.277,14.19-9.222,14.19-9.222
		C23.342,23.352,16.943,18.233,16.69,11.647z"/>
	
		<linearGradient id="SVGID_25_" gradientUnits="userSpaceOnUse" x1="-12.2192" y1="58.5278" x2="0.8695" y2="75.732" gradientTransform="matrix(1 0 0 -1 54 92.5859)">
		<stop  offset="0.1966" style="stop-color:#DC8726"/>
		<stop  offset="0.8427" style="stop-color:#F5C77E"/>
		<stop  offset="1" style="stop-color:#F8F5DC"/>
	</linearGradient>
	<path fill="url(#SVGID_25_)" d="M35.405,29.122l11.406,14.185c-3.291-13.93-0.761-22.288,7.34-26.847
		C55.35,15.784,37.227,16.703,35.405,29.122z"/>
	
		<linearGradient id="SVGID_26_" gradientUnits="userSpaceOnUse" x1="-19.1387" y1="35.0454" x2="-5.8697" y2="8.5075" gradientTransform="matrix(1 0 0 -1 54 92.5859)">
		<stop  offset="0.0169" style="stop-color:#A0351D"/>
		<stop  offset="0.5" style="stop-color:#DC6C1F"/>
		<stop  offset="1" style="stop-color:#DE8A30"/>
	</linearGradient>
	<path fill="url(#SVGID_26_)" d="M27.37,64.164C29.314,51.908,46.371,53.71,46.371,53.71c-0.761,0.565-3.683,0.903-4.52,3.241
		c-2.762,7.719-0.128,24.582,17.078,31.654C60.745,89.352,24.495,82.275,27.37,64.164z"/>
	
		<linearGradient id="SVGID_27_" gradientUnits="userSpaceOnUse" x1="0.9038" y1="51.3184" x2="4.2166" y2="48.3161" gradientTransform="matrix(1 0 0 -1 54 92.5859)">
		<stop  offset="0" style="stop-color:#ECB48E"/>
		<stop  offset="0.2094" style="stop-color:#EDB893"/>
		<stop  offset="0.456" style="stop-color:#EFC4A1"/>
		<stop  offset="0.7216" style="stop-color:#F3D9B9"/>
		<stop  offset="0.9987" style="stop-color:#F8F5DA"/>
		<stop  offset="1" style="stop-color:#F8F5DA"/>
	</linearGradient>
	<path fill="url(#SVGID_27_)" d="M62.165,37.338c-0.084-0.015-0.158-0.013-0.195,0.037c-0.21,0.281-1.021,1.239-2.95,2.81
		c-3.583,2.915-5.093,2.177-7.762,2.774c-1.215,0.271-2.37,1.087-3.148,1.741c0.315,0.509,0.609,1.057,0.871,1.582
		c0.702,0.836,1.173,1.248,1.241,0.945c0.331-1.493,9.336-6.714,9.999-7.211C60.69,39.663,61.688,38.962,62.165,37.338z"/>
	
		<linearGradient id="SVGID_28_" gradientUnits="userSpaceOnUse" x1="-18.4229" y1="44.2271" x2="-3.2004" y2="28.694" gradientTransform="matrix(1 0 0 -1 54 92.5859)">
		<stop  offset="0.1966" style="stop-color:#DE8A30"/>
		<stop  offset="0.8427" style="stop-color:#F5C77E"/>
		<stop  offset="1" style="stop-color:#F8F5DC"/>
	</linearGradient>
	<path fill="url(#SVGID_28_)" d="M51.167,55.865c0.1-2.59-0.081-8.881-2.774-11.611c-2.057-2.085-2.54-4.474-2.816-7.201
		c-22.363,8.354-25.556,19.272-23.32,18.917C40.143,53.135,45.171,52.788,51.167,55.865z"/>
	
		<linearGradient id="SVGID_29_" gradientUnits="userSpaceOnUse" x1="887.6143" y1="1246.3564" x2="887.6143" y2="1189.2943" gradientTransform="matrix(0.9673 0.2537 0.2537 -0.9673 -1161.4244 1020.4539)">
		<stop  offset="0.0562" style="stop-color:#DC8726"/>
		<stop  offset="1" style="stop-color:#F3CDA9"/>
	</linearGradient>
	<path fill="url(#SVGID_29_)" d="M3.488,71.171c0,0,1.554-20.192,11.661-27.582c7.935-5.805,1.773-3.696-1.291-3.456
		c-3.231,0.256-4.954,2.221-4.331,1.498c0.027-0.03,0.036-0.047,0.031-0.055C9.452,41.451,1.975,47.726,3.488,71.171z"/>
	
		<linearGradient id="SVGID_30_" gradientUnits="userSpaceOnUse" x1="-70.1621" y1="98.3252" x2="-89.4549" y2="66.9056" gradientTransform="matrix(0.9897 -0.0801 -0.0949 -1.1727 94.1762 146.1714)">
		<stop  offset="0.0562" style="stop-color:#DC8726"/>
		<stop  offset="1" style="stop-color:#F1CA8C"/>
	</linearGradient>
	<path fill="url(#SVGID_30_)" d="M2.424,55.658c0,0,5.416-17.192,16.362-17.047c7.259,0.097,1.501-6.134-0.695-7.081
		c-2.291-0.981-2.839-0.943-3.374-0.469C13.916,31.771,6.713,31.497,2.424,55.658z"/>
	
		<linearGradient id="SVGID_31_" gradientUnits="userSpaceOnUse" x1="27.0049" y1="24.7412" x2="6.5105" y2="20.8265" gradientTransform="matrix(1 0 0 -1 54 92.5859)">
		<stop  offset="0.0047" style="stop-color:#FBF9F3"/>
		<stop  offset="0.2757" style="stop-color:#F5EFB3"/>
		<stop  offset="0.3048" style="stop-color:#F3E8AA"/>
		<stop  offset="0.4626" style="stop-color:#ECC77F"/>
		<stop  offset="0.6152" style="stop-color:#E6AC5C"/>
		<stop  offset="0.7592" style="stop-color:#E19944"/>
		<stop  offset="0.8912" style="stop-color:#DF8E35"/>
		<stop  offset="1" style="stop-color:#DE8A30"/>
	</linearGradient>
	<path fill="url(#SVGID_31_)" d="M76.264,72.486c0.821-0.809,0.248-3.903-4.926-5.78c-4.694-1.705-12.021,2.63-14.195,3.485
		c0,0,8.299-1.556,11.412-1.037C72.771,69.857,74.255,74.456,76.264,72.486z"/>
	
		<linearGradient id="SVGID_32_" gradientUnits="userSpaceOnUse" x1="-415.9702" y1="-294.3242" x2="-415.9702" y2="-342.0174" gradientTransform="matrix(0.992 0.1261 0.1261 -0.992 464.9896 -199.5623)">
		<stop  offset="0.0562" style="stop-color:#DC8726"/>
		<stop  offset="1" style="stop-color:#F1CA8C"/>
	</linearGradient>
	<path fill="url(#SVGID_32_)" d="M10.419,66.822c0,0-0.899-16.902,6.676-24.122c5.947-5.67,1.069-3.255-1.444-2.724
		c-2.65,0.562-3.865,2.377-3.426,1.71c0.019-0.028,0.023-0.043,0.019-0.049C12.141,41.547,6.625,47.557,10.419,66.822z"/>
	
		<linearGradient id="SVGID_33_" gradientUnits="userSpaceOnUse" x1="-340.5552" y1="-194.9951" x2="-340.5552" y2="-242.6842" gradientTransform="matrix(0.9324 0.3616 0.3616 -0.9324 403.7776 -22.1313)">
		<stop  offset="0.0562" style="stop-color:#DC8726"/>
		<stop  offset="1" style="stop-color:#F1CA8C"/>
	</linearGradient>
	<path fill="url(#SVGID_33_)" d="M4.585,61.453c0,0,3.201-16.621,12.293-21.801c7.138-4.069,1.823-2.901-0.745-2.991
		c-2.708-0.093-4.324,1.375-3.738,0.834c0.025-0.022,0.033-0.037,0.03-0.042C12.35,37.338,5.547,41.842,4.585,61.453z"/>
	
		<linearGradient id="SVGID_34_" gradientUnits="userSpaceOnUse" x1="-336.0991" y1="-59.6689" x2="-349.3782" y2="-79.5875" gradientTransform="matrix(0.8104 -0.5859 -0.5859 -0.8104 252.8681 -187.8392)">
		<stop  offset="0.0562" style="stop-color:#DC8726"/>
		<stop  offset="1" style="stop-color:#F1CA90"/>
	</linearGradient>
	<path fill="url(#SVGID_34_)" d="M15.38,68.275c0,0-1.75-10.074,2.021-15.033c3.01-3.957,0.367-2.021-1.03-1.451
		c-1.458,0.596-2.011,1.771-1.812,1.34C14.752,52.71,8.071,57.887,15.38,68.275z"/>
	
		<linearGradient id="SVGID_35_" gradientUnits="userSpaceOnUse" x1="-328.9116" y1="-53.1406" x2="-342.1915" y2="-73.0603" gradientTransform="matrix(0.8104 -0.5859 -0.5859 -0.8104 252.8681 -187.8392)">
		<stop  offset="0.0562" style="stop-color:#DC8726"/>
		<stop  offset="1" style="stop-color:#F1CA90"/>
	</linearGradient>
	<path fill="url(#SVGID_35_)" d="M17.38,58.775c0,0-1.75-10.074,2.021-15.033c3.01-3.957,0.367-2.021-1.03-1.451
		c-1.458,0.596-2.011,1.771-1.812,1.34C16.752,43.21,10.071,48.387,17.38,58.775z"/>
	
		<linearGradient id="SVGID_36_" gradientUnits="userSpaceOnUse" x1="-41.6104" y1="54.7197" x2="-47.4198" y2="43.8758" gradientTransform="matrix(1 0 0 -1 54 92.5859)">
		<stop  offset="0.0562" style="stop-color:#DC8726"/>
		<stop  offset="1" style="stop-color:#F0DDBC"/>
	</linearGradient>
	<path fill="url(#SVGID_36_)" d="M6.802,45.003c0,0,4.087-8.375,9.52-10.024c4.336-1.315,1.35-1.296,0.014-1.622
		c-1.396-0.338-2.431,0.234-2.054,0.022C14.65,33.172,6.952,33.428,6.802,45.003z"/>
	
		<linearGradient id="SVGID_37_" gradientUnits="userSpaceOnUse" x1="-42.1924" y1="48.0942" x2="-48.0018" y2="37.2503" gradientTransform="matrix(1 0 0 -1 54 92.5859)">
		<stop  offset="0.0562" style="stop-color:#DC8726"/>
		<stop  offset="1" style="stop-color:#F0DDBC"/>
	</linearGradient>
	<path fill="url(#SVGID_37_)" d="M6.219,51.631c0,0,4.087-8.375,9.52-10.024c4.336-1.315,1.35-1.296,0.014-1.622
		c-1.396-0.338-2.431,0.234-2.054,0.022C14.066,39.799,6.368,40.056,6.219,51.631z"/>
	
		<linearGradient id="SVGID_38_" gradientUnits="userSpaceOnUse" x1="-35.6099" y1="52.6963" x2="-41.2251" y2="38.7543" gradientTransform="matrix(1 0 0 -1 54 92.5859)">
		<stop  offset="0.0562" style="stop-color:#DC8726"/>
		<stop  offset="1" style="stop-color:#F1CA90"/>
	</linearGradient>
	<path fill="url(#SVGID_38_)" d="M9.187,49.803c0,0,7.209-14.774,16.794-17.684c7.65-2.32,2.382-2.287,0.024-2.86
		c-2.462-0.597-4.288,0.414-3.624,0.039C23.03,28.931,9.45,29.383,9.187,49.803z"/>
	
		<linearGradient id="SVGID_39_" gradientUnits="userSpaceOnUse" x1="-33.4761" y1="59.4814" x2="-46.7554" y2="39.5625" gradientTransform="matrix(1 0 0 -1 54 92.5859)">
		<stop  offset="0.0562" style="stop-color:#DC8726"/>
		<stop  offset="1" style="stop-color:#F1CA90"/>
	</linearGradient>
	<path fill="url(#SVGID_39_)" d="M14.114,41.846c0,0,4.484-9.189,10.445-10.999c4.758-1.443,1.481-1.422,0.015-1.779
		c-1.532-0.371-2.667,0.257-2.254,0.024C22.724,28.864,14.278,29.145,14.114,41.846z"/>
	
		<linearGradient id="SVGID_40_" gradientUnits="userSpaceOnUse" x1="-32.5825" y1="55.46" x2="-44.6862" y2="37.3045" gradientTransform="matrix(1 0 0 -1 54 92.5859)">
		<stop  offset="0.0562" style="stop-color:#DC8726"/>
		<stop  offset="1" style="stop-color:#F1CA90"/>
	</linearGradient>
	<path fill="url(#SVGID_40_)" d="M15.576,45.092c0,0,4.087-8.375,9.52-10.024c4.336-1.315,1.35-1.296,0.014-1.622
		c-1.396-0.338-2.431,0.234-2.054,0.022C23.423,33.26,15.725,33.517,15.576,45.092z"/>
	
		<linearGradient id="SVGID_41_" gradientUnits="userSpaceOnUse" x1="6.3633" y1="58.2891" x2="7.3222" y2="56.5803" gradientTransform="matrix(1 0 0 -1 54 92.5859)">
		<stop  offset="0" style="stop-color:#9CA0A5"/>
		<stop  offset="1" style="stop-color:#2F231E"/>
	</linearGradient>
	<path fill="url(#SVGID_41_)" d="M62.421,34.872c-0.047-0.873-0.176-1.158-4.356-1.229c0.479,0.217,1.305,0.652,2.214,1.398
		c1.201,0.984,1.396,2.081,1.52,3.217C62.207,37.484,62.504,36.417,62.421,34.872z"/>
	
		<linearGradient id="SVGID_42_" gradientUnits="userSpaceOnUse" x1="-31.3647" y1="64.0933" x2="-31.3647" y2="69.3403" gradientTransform="matrix(1 0 0 -1 54 92.5859)">
		<stop  offset="0.0562" style="stop-color:#DC8726"/>
		<stop  offset="1" style="stop-color:#F3CDA9"/>
	</linearGradient>
	<path fill="url(#SVGID_42_)" d="M37.879,23.206l-3.625,5.833c0,0-14.496-2.273-26.785,9.616
		C6.454,39.637,15.507,17.632,37.879,23.206z"/>
	
		<linearGradient id="SVGID_43_" gradientUnits="userSpaceOnUse" x1="-14.8613" y1="69.9766" x2="-3.88" y2="82.8095" gradientTransform="matrix(0.9992 0.0398 0.0398 -0.9992 34.7469 104.821)">
		<stop  offset="0.0562" style="stop-color:#DC8726"/>
		<stop  offset="1" style="stop-color:#F3CDA9"/>
	</linearGradient>
	<path fill="url(#SVGID_43_)" d="M24.861,33.646c0,0,3.863-7.172,8.872-9.339C31.145,24.389,25.331,26.413,24.861,33.646z"/>
	
		<linearGradient id="SVGID_44_" gradientUnits="userSpaceOnUse" x1="-38.415" y1="59.0781" x2="-44.2241" y2="48.2349" gradientTransform="matrix(1 0 0 -1 54 92.5859)">
		<stop  offset="0.0562" style="stop-color:#DC8726"/>
		<stop  offset="1" style="stop-color:#F0DDBC"/>
	</linearGradient>
	<path fill="url(#SVGID_44_)" d="M9.997,40.646c0,0,4.087-8.375,9.52-10.024c4.336-1.315,1.35-1.296,0.014-1.622
		c-1.396-0.338-2.431,0.234-2.054,0.022C17.845,28.815,10.146,29.071,9.997,40.646z"/>
	
		<linearGradient id="SVGID_45_" gradientUnits="userSpaceOnUse" x1="3.3115" y1="89.8613" x2="14.0393" y2="102.398" gradientTransform="matrix(0.9946 0.1039 0.1039 -0.9946 3.7634 124.2858)">
		<stop  offset="0.0562" style="stop-color:#DC8726"/>
		<stop  offset="1" style="stop-color:#F3CDA9"/>
	</linearGradient>
	<path fill="url(#SVGID_45_)" d="M18.56,34.745c0,0,4.217-6.751,9.235-8.548C25.267,26.114,19.471,27.723,18.56,34.745z"/>
	
		<linearGradient id="SVGID_46_" gradientUnits="userSpaceOnUse" x1="-4.8145" y1="98.1992" x2="8.0705" y2="96.4345" gradientTransform="matrix(0.9959 0.0903 0.0903 -0.9959 9.6032 119.8745)">
		<stop  offset="0.0562" style="stop-color:#DC8726"/>
		<stop  offset="1" style="stop-color:#F3CDA9"/>
	</linearGradient>
	<path fill="url(#SVGID_46_)" d="M25.79,23.214c0,0-3.18,1.389-8.787-0.942l4.999,2.513L25.79,23.214z"/>
	
		<linearGradient id="SVGID_47_" gradientUnits="userSpaceOnUse" x1="-46.939" y1="69.4775" x2="-28.744" y2="66.9857" gradientTransform="matrix(1 0 0 -1 54 92.5859)">
		<stop  offset="0.0562" style="stop-color:#DC8726"/>
		<stop  offset="1" style="stop-color:#F3CDA9"/>
	</linearGradient>
	<path fill="url(#SVGID_47_)" d="M24.252,24.105c0,0-4.238,1.642-12.394-0.802l6.977,2.776
		C19.698,25.281,24.252,24.105,24.252,24.105z"/>
	
		<linearGradient id="SVGID_48_" gradientUnits="userSpaceOnUse" x1="-2.3081" y1="98.8486" x2="9.5369" y2="97.2264" gradientTransform="matrix(0.9959 0.0903 0.0903 -0.9959 9.6032 119.8745)">
		<stop  offset="0.0562" style="stop-color:#DC8726"/>
		<stop  offset="1" style="stop-color:#F3CDA9"/>
	</linearGradient>
	<path fill="url(#SVGID_48_)" d="M27.345,22.759c0,0-2.813,0.856-8.009-1.154l4.999,2.513
		C24.863,23.651,27.345,22.759,27.345,22.759z"/>
	
		<linearGradient id="SVGID_49_" gradientUnits="userSpaceOnUse" x1="-38.7222" y1="65.6475" x2="-49.4004" y2="66.7436" gradientTransform="matrix(1 0 0 -1 54 92.5859)">
		<stop  offset="0.0562" style="stop-color:#DC8726"/>
		<stop  offset="1" style="stop-color:#F3CDA9"/>
	</linearGradient>
	<path fill="url(#SVGID_49_)" d="M18.573,25.993c0,0-2.09,1.735-7.443,1.806l4.63,0.151L18.573,25.993z"/>
	
		<linearGradient id="SVGID_50_" gradientUnits="userSpaceOnUse" x1="-2.0835" y1="88.5693" x2="12.6906" y2="105.8345" gradientTransform="matrix(0.9946 0.1039 0.1039 -0.9946 3.7634 124.2858)">
		<stop  offset="0.0562" style="stop-color:#DC8726"/>
		<stop  offset="1" style="stop-color:#F3CDA9"/>
	</linearGradient>
	<path fill="url(#SVGID_50_)" d="M13.488,34.871c0,0,7.153-9.318,13.044-11.428C23.564,23.346,14.558,26.629,13.488,34.871z"/>
	
		<linearGradient id="SVGID_51_" gradientUnits="userSpaceOnUse" x1="34.4087" y1="-24.7817" x2="63.3425" y2="19.845" gradientTransform="matrix(1 0 0 -1 54 92.5859)">
		<stop  offset="0" style="stop-color:#D97620"/>
		<stop  offset="0.736" style="stop-color:#FFE700"/>
		<stop  offset="0.739" style="stop-color:#FFE703"/>
		<stop  offset="0.7967" style="stop-color:#FEEB3F"/>
		<stop  offset="0.8497" style="stop-color:#FCEE6D"/>
		<stop  offset="0.8964" style="stop-color:#FCF08F"/>
		<stop  offset="0.935" style="stop-color:#FBF2A4"/>
		<stop  offset="0.9607" style="stop-color:#FBF2AB"/>
	</linearGradient>
	<path fill="url(#SVGID_51_)" d="M124.275,50.76c0,0,0.771,17.288-23.243,41.305c-2.669,2.668-17.16,16.244-16.65,20.316
		C84.562,113.82,122.402,106.576,124.275,50.76z"/>
	
		<linearGradient id="SVGID_52_" gradientUnits="userSpaceOnUse" x1="51.2344" y1="69.8477" x2="32.2892" y2="78.1682" gradientTransform="matrix(1 0 0 -1 54 92.5859)">
		<stop  offset="0" style="stop-color:#EFA71C"/>
		<stop  offset="0.736" style="stop-color:#FFE700"/>
		<stop  offset="0.739" style="stop-color:#FFE703"/>
		<stop  offset="0.7967" style="stop-color:#FEEB3F"/>
		<stop  offset="0.8497" style="stop-color:#FCEE6D"/>
		<stop  offset="0.8964" style="stop-color:#FCF08F"/>
		<stop  offset="0.935" style="stop-color:#FBF2A4"/>
		<stop  offset="0.9607" style="stop-color:#FBF2AB"/>
	</linearGradient>
	<path fill="url(#SVGID_52_)" d="M77.718,10.096c28.927,2.222,34.527,23.021,34.529,21.748
		C112.32,11.624,84.805,10.089,77.718,10.096z"/>
	
		<linearGradient id="SVGID_53_" gradientUnits="userSpaceOnUse" x1="63.9595" y1="50.8569" x2="37.4358" y2="75.4805" gradientTransform="matrix(1 0 0 -1 54 92.5859)">
		<stop  offset="0" style="stop-color:#D97620"/>
		<stop  offset="0.736" style="stop-color:#FFE700"/>
		<stop  offset="0.739" style="stop-color:#FFE703"/>
		<stop  offset="0.7967" style="stop-color:#FEEB3F"/>
		<stop  offset="0.8497" style="stop-color:#FCEE6D"/>
		<stop  offset="0.8964" style="stop-color:#FCF08F"/>
		<stop  offset="0.935" style="stop-color:#FBF2A4"/>
		<stop  offset="0.9607" style="stop-color:#FBF2AB"/>
	</linearGradient>
	<path fill="url(#SVGID_53_)" d="M86.525,18.003c0,0,20.054,4.099,25.709,25.354c0.75,2.815-2.416-17.267-1.438-15.361
		C111.771,29.912,102.727,18.638,86.525,18.003z"/>
	
		<linearGradient id="SVGID_54_" gradientUnits="userSpaceOnUse" x1="-64.4365" y1="-61.0757" x2="-75.5423" y2="-49.5896" gradientTransform="matrix(0.9996 -0.0282 -0.0282 -0.9996 172.7854 -22.1354)">
		<stop  offset="0" style="stop-color:#EFA71C"/>
		<stop  offset="0.736" style="stop-color:#FFE700"/>
		<stop  offset="0.739" style="stop-color:#FFE703"/>
		<stop  offset="0.7967" style="stop-color:#FEEB3F"/>
		<stop  offset="0.8497" style="stop-color:#FCEE6D"/>
		<stop  offset="0.8964" style="stop-color:#FCF08F"/>
		<stop  offset="0.935" style="stop-color:#FBF2A4"/>
		<stop  offset="0.9607" style="stop-color:#FBF2AB"/>
	</linearGradient>
	<path fill="url(#SVGID_54_)" d="M94.541,17.483c0,0,18.109,3.775,18.29,32.509c0.127,20.338,3.142,7.635,6.131,3.064
		c2.578-3.948,0.815-8.76,0.754-8.748c-0.01,0.003-1.305-3.743-0.432-2.156c0.039,0.07-1.216-1.034-1.207-1.035
		C118.277,41.087,117.38,20.465,94.541,17.483z"/>
	
		<linearGradient id="SVGID_55_" gradientUnits="userSpaceOnUse" x1="59.5137" y1="36.7524" x2="65.7642" y2="58.2541" gradientTransform="matrix(1 0 0 -1 54 92.5859)">
		<stop  offset="0" style="stop-color:#EFA71C"/>
		<stop  offset="0.736" style="stop-color:#FFE700"/>
		<stop  offset="0.739" style="stop-color:#FFE703"/>
		<stop  offset="0.7967" style="stop-color:#FEEB3F"/>
		<stop  offset="0.8497" style="stop-color:#FCEE6D"/>
		<stop  offset="0.8964" style="stop-color:#FCF08F"/>
		<stop  offset="0.935" style="stop-color:#FBF2A4"/>
		<stop  offset="0.9607" style="stop-color:#FBF2AB"/>
	</linearGradient>
	<path fill="url(#SVGID_55_)" d="M114.936,21.376c0,0,6.504,16.945-0.39,25.371c-2.25,2.75-2.502,16.84,0.247,15.545
		c2.756-1.296,2.157,7.481,1.796,8.479c-0.008,0.02-0.01,0.028-0.006,0.031C116.762,70.914,130.174,49.143,114.936,21.376z"/>
	
		<linearGradient id="SVGID_56_" gradientUnits="userSpaceOnUse" x1="-123.0083" y1="-132.0747" x2="-123.2363" y2="-115.7201" gradientTransform="matrix(0.9992 -0.0412 -0.0412 -0.9992 226.285 -76.1815)">
		<stop  offset="0" style="stop-color:#EFA71C"/>
		<stop  offset="0.736" style="stop-color:#FFE700"/>
		<stop  offset="0.739" style="stop-color:#FFE703"/>
		<stop  offset="0.7967" style="stop-color:#FEEB3F"/>
		<stop  offset="0.8497" style="stop-color:#FCEE6D"/>
		<stop  offset="0.8964" style="stop-color:#FCF08F"/>
		<stop  offset="0.935" style="stop-color:#FBF2A4"/>
		<stop  offset="0.9607" style="stop-color:#FBF2AB"/>
	</linearGradient>
	<path fill="url(#SVGID_56_)" d="M105.893,39.215c0,0,4.094,11.989-0.193,20.56l3.244,7.247
		C111.32,61.176,114.352,48.817,105.893,39.215z"/>
	
		<linearGradient id="SVGID_57_" gradientUnits="userSpaceOnUse" x1="-256.3135" y1="-259.4727" x2="-245.0483" y2="-237.2838" gradientTransform="matrix(0.9975 -0.0707 -0.0707 -0.9975 343.1932 -201.9506)">
		<stop  offset="0" style="stop-color:#EFA71C"/>
		<stop  offset="0.736" style="stop-color:#FFE700"/>
		<stop  offset="0.739" style="stop-color:#FFE703"/>
		<stop  offset="0.7967" style="stop-color:#FEEB3F"/>
		<stop  offset="0.8497" style="stop-color:#FCEE6D"/>
		<stop  offset="0.8964" style="stop-color:#FCF08F"/>
		<stop  offset="0.935" style="stop-color:#FBF2A4"/>
		<stop  offset="0.9607" style="stop-color:#FBF2AB"/>
	</linearGradient>
	<path fill="url(#SVGID_57_)" d="M113.093,37.789c0,0,2.832,19.03-7.387,36.209c0.157,3.973-0.539,7.568-1.496,10.531
		c0.444,0.587,1.041,0.986,1.827,1.057c-0.348,0.32-0.691,0.62-1.025,0.904c-0.615,0.271-1.244,0.559-1.853,0.853
		c-0.13,0.304-0.261,0.597-0.39,0.88c0.681-0.478,1.438-1.057,2.24-1.731c2.088-0.923,3.965-1.638,3.961-1.642
		c0,0-0.383,0.143-1.303,0.479c-0.619,0.225-1.16,0.301-1.632,0.259C113.928,78.395,124.742,62.312,113.093,37.789z M101.188,88.38
		c-0.902,0.529-1.559,1.025-1.699,1.408c-0.102,0.278,0.513,0.116,1.576-0.479C101.118,88.989,101.163,88.677,101.188,88.38z"/>
	
		<linearGradient id="SVGID_58_" gradientUnits="userSpaceOnUse" x1="15.6147" y1="-15.1382" x2="17.1298" y2="9.4395" gradientTransform="matrix(0.9975 -0.0707 -0.0707 -0.9975 77.6263 80.1705)">
		<stop  offset="0" style="stop-color:#D97620"/>
		<stop  offset="0.736" style="stop-color:#FFE700"/>
		<stop  offset="0.739" style="stop-color:#FFE703"/>
		<stop  offset="0.7967" style="stop-color:#FEEB3F"/>
		<stop  offset="0.8497" style="stop-color:#FCEE6D"/>
		<stop  offset="0.8964" style="stop-color:#FCF08F"/>
		<stop  offset="0.935" style="stop-color:#FBF2A4"/>
		<stop  offset="0.9607" style="stop-color:#FBF2AB"/>
	</linearGradient>
	<path fill="url(#SVGID_58_)" d="M100.488,58.065c0,0,8.058,22.932-17.692,44.432c-1.521,1.269,10.451,0.728,11.5,0.25
		c3.086-1.402,6.733-10.757,6.304-9.638C100.172,94.229,112.557,76.574,100.488,58.065z"/>
	
		<linearGradient id="SVGID_59_" gradientUnits="userSpaceOnUse" x1="4.4463" y1="-21.2744" x2="51.953" y2="7.1204" gradientTransform="matrix(1 0 0 -1 54 92.5859)">
		<stop  offset="0" style="stop-color:#B92A27"/>
		<stop  offset="0.0894" style="stop-color:#BB3026"/>
		<stop  offset="0.2089" style="stop-color:#C14122"/>
		<stop  offset="0.3455" style="stop-color:#CC5D1D"/>
		<stop  offset="0.4948" style="stop-color:#DA8414"/>
		<stop  offset="0.6524" style="stop-color:#ECB50A"/>
		<stop  offset="0.7921" style="stop-color:#FFE700"/>
		<stop  offset="0.8126" style="stop-color:#FFE707"/>
		<stop  offset="0.8429" style="stop-color:#FEE91B"/>
		<stop  offset="0.8793" style="stop-color:#FDEB3C"/>
		<stop  offset="0.9203" style="stop-color:#FCEE6A"/>
		<stop  offset="0.9648" style="stop-color:#FAF2A3"/>
		<stop  offset="1" style="stop-color:#F8F5D6"/>
	</linearGradient>
	<path fill="url(#SVGID_59_)" d="M111.757,72.609c0,0-4.86,29.744-38.461,32.138c-13.157,0.938-32.048-2.142-30.375,2.878
		c0.519,1.557,2.992,8.043,8.636,9.548C66.833,121.247,107.473,119.913,111.757,72.609z"/>
	
		<linearGradient id="SVGID_60_" gradientUnits="userSpaceOnUse" x1="39.3237" y1="30.3882" x2="87.9911" y2="23.7946" gradientTransform="matrix(0.9951 0.0989 0.0989 -0.9951 13.0461 118.7629)">
		<stop  offset="0.0562" style="stop-color:#DC8726"/>
		<stop  offset="1" style="stop-color:#F3CDA9"/>
	</linearGradient>
	<path fill="url(#SVGID_60_)" d="M83.734,95.119c0,0-20.56,4.697-33.878-6.641c-12.187-10.377-6.141-1.644-4.488,2.664
		c1.698,4.42-7.853,1.043-9.289,0.332C34.648,90.773,58.703,105.859,83.734,95.119z"/>
	
		<linearGradient id="SVGID_61_" gradientUnits="userSpaceOnUse" x1="41.1846" y1="50.0317" x2="97.6916" y2="32.2724" gradientTransform="matrix(0.9895 0.1448 0.1448 -0.9895 -8.0493 132.3038)">
		<stop  offset="0.0562" style="stop-color:#DC8726"/>
		<stop  offset="1" style="stop-color:#F3CDA9"/>
	</linearGradient>
	<path fill="url(#SVGID_61_)" d="M70.484,106.325c0,0-24.524-4.82-32.29-21.438c-6.635-14.197-4.879-3.779-5.178,0.963
		c-0.314,4.877-7.191-1.783-8.11-2.942c-0.026-0.027-0.044-0.048-0.046-0.041C24.724,82.955,37.51,102.999,70.484,106.325z"/>
	
		<linearGradient id="SVGID_62_" gradientUnits="userSpaceOnUse" x1="-733.8394" y1="-583.1309" x2="-706.9695" y2="-634.5742" gradientTransform="matrix(0.9837 -0.1799 -0.1799 -0.9837 639.487 -622.4578)">
		<stop  offset="0.0562" style="stop-color:#DC8726"/>
		<stop  offset="1" style="stop-color:#F3CDA9"/>
	</linearGradient>
	<path fill="url(#SVGID_62_)" d="M43.694,104.176c0,0-11.714-9.072-16.995-21.514c-4.438-1.542-10.339-5.066-10.456-5.67
		C18.118,86.659,27.989,97.945,43.694,104.176z"/>
</g>
</svg>
