<?xml version="1.0" encoding="utf-8"?>
<!-- Generator: Adobe Illustrator 16.0.0, SVG Export Plug-In . SVG Version: 6.00 Build 0)  -->
<!DOCTYPE svg PUBLIC "-//W3C//DTD SVG 1.1//EN" "http://www.w3.org/Graphics/SVG/1.1/DTD/svg11.dtd">
<svg version="1.1" id="Layer_1" xmlns="http://www.w3.org/2000/svg" xmlns:xlink="http://www.w3.org/1999/xlink" x="0px" y="0px"
	 width="160.242px" height="157.283px" viewBox="0 0 160.242 157.283" enable-background="new 0 0 160.242 157.283"
	 xml:space="preserve">
<g>
	<path d="M112.832,37.29c0.723-0.802,1.363-1.604,2.086-2.646c0.399-2.485,1.281-3.046,3.365-4.088
		c0.081-0.321,0.321-0.722,0.562-1.043c4.408-4.168,8.979-6.733,13.468-8.096c0.24,0,0.722-0.16,0.722,0
		c0,0.08,0.079,0.16-0.08,0.321c-0.722,0.882-1.443,1.844-1.925,2.806c-0.479,1.042-0.962,1.924-1.604,2.646
		c-0.479,0.721-0.801,1.443-1.041,2.164c0.962-0.16,2.084-0.24,3.285-0.08c0.883,0.16,1.523,0.24,2.486,0.32
		c1.042,0.081,2.324,0.16,3.446,0.16c0.08,0,1.042-0.561,1.362-0.801c2.646-2.164,5.052-3.527,7.056-4.329
		c2.726-1.122,4.81-1.363,6.573-1.523c0.24,0,0.4,0,0.4,0.08c0,0.241,0,0.722-0.24,0.882c-1.685,1.764-3.287,3.447-4.649,5.691
		c-0.241,0.962-1.042,2.405-2.485,3.127c-0.16,0.08-0.16,0.08-0.16,0.24c0,0.401,0,0.802-0.32,0.962c-0.24,0.08-0.32,0.16-0.4,0.48
		c0,0.16,0,0.16-0.16,0.16c-0.24,0-0.479,0-0.32,0.241c1.925,2.325,3.606,4.97,5.451,8.017c0.4,0.722,0.642,0.722,0.562,1.684
		c-0.16,1.123,0.08,2.405,0.321,3.447c0.641,3.287,6.732,8.738,9.539,13.789c0.08,0.401,0.24,0.721-0.08,1.202
		c-0.32,0.4-1.043,1.042-1.764,1.203c-0.16,0.721-0.642,1.203-1.283,1.523c-0.722,1.764-1.442,2.565-3.207,2.485
		c-4.168,2.165-12.185,1.122-16.514-1.443c-0.642,0.642-1.441,1.123-2.806,1.042c-0.722,1.363-1.283,2.084-1.845,2.485
		c-0.399,0.241-0.801,0.161-1.442,0.161c-0.479,1.844-1.042,2.806-1.924,2.565c-0.399,0.642-1.042,1.123-1.122,0l-0.962,0.722
		c0.319,2.244,0.721,4.408,1.362,6.172c0.4,1.764,0.32,3.205,0.48,5.61c0.08,2.004,0.561,2.806,0.4,4.409
		c-0.16,2.324-1.684,4.648-3.047,7.615c-0.801,1.684-1.764,3.768-2.084,5.611c-0.24,1.844,0.16,4.329-0.4,6.975
		c-0.32,1.684-0.962,3.047-1.361,4.648c-0.643,2.728-0.723,5.692-1.363,8.338c-0.562,3.287-0.963,5.051-1.123,7.215
		c-0.32,2.887-0.159,4.971,0.24,6.254c0.481,1.281,0.481,2.404,0.723,3.688c0.08,0.883,0.16,1.684,0.882,2.565
		c0.319,0.479,0.722,0.962,1.362,1.362c0.562,0.399,0.802,0.32,1.363,0.48c0.961,0.16,1.684,0.962,1.924,2.084
		c0.642,0.4,1.361,1.443,1.604,2.404c0.16,1.043-0.161,2.404-1.604,2.564c-0.963,1.123-2.244,1.523-4.008,1.043
		c-0.884,0.641-2.246,0.641-3.85-0.4c-0.803-0.562-1.202-1.282-1.684-2.484c-0.643-0.562-2.406-1.443-2.406-2.165
		c0-0.399,0.082-1.122,0.242-1.522c0.08-0.722-1.123-1.282-1.203-2.084c0.08-1.282,0.32-2.485,0.16-3.769
		c-0.24-1.604-0.16-2.966,0-4.329c0.24-2.164-0.24-5.211-0.562-7.615c-0.08-1.363-0.16-2.886-0.239-4.488
		c0-0.883-0.242-1.604-0.4-2.405c-1.283-4.892-2.166-9.62-1.123-13.147l-0.16-0.08c-0.32,0.08-0.721,0.08-1.122,0
		c-1.685,1.123-3.287,0.803-4.972,0.401c-0.881,1.362-2.243,2.324-5.049,2.084c-1.846,1.443-2.808,3.047-2.887,3.929
		c-0.08,1.604,0.641,2.324,0.721,4.569c0,0.961,0.08,1.763,0.24,2.726c0.401,2.484,0.562,5.291,1.203,7.455
		c1.362,4.088,2.404,7.295,3.605,10.342c0.884,2.164,1.846,3.447,2.808,4.49c0.962,1.361,1.604,2.645,2.565,4.008
		c0.802,0.562,1.121,0.562,1.844,0.802c1.201,0.479,2.404,0.962,2.404,2.563c1.363,1.685,1.043,3.447,0.48,3.93
		c-0.641,0.641-0.641,0.4-1.523,0.722c-0.801,0.962-1.844,1.202-3.526,0.319c-0.962,0.883-2.084,0.562-3.286,0
		c-1.202-0.641-2.245-1.522-2.727-2.403c-0.48-0.562-0.4-1.522-0.721-2.245c-0.082-0.32-0.242-0.32-0.48-0.4
		c-0.803-0.48-1.123-0.802-1.123-1.362c-0.16-0.882,0.32-2.165-0.32-3.447c-1.203-2.966-3.127-4.971-4.408-7.937
		c-1.604-3.287-2.406-7.056-4.33-9.779c-1.283-1.926-2.646-3.93-3.848-6.494c-0.802-1.844-1.042-4.568-2.245-6.652
		c-1.122-1.765-1.684-3.048-1.844-4.33c-0.24-1.924,0.962-2.886,1.042-6.013c-3.526-1.442-7.294-3.366-10.02-5.61
		c-5.532-3.929-9.94-8.258-15.071-11.145c-0.802,2.807-3.688,5.854-7.055,8.498c-5.05,3.688-10.021,7.215-10.501,10.342
		c-0.08,2.646-0.16,5.131,0.24,7.455c0.562,3.206,1.684,5.854,2.566,8.018c0.48,1.201,1.684,1.603,2.324,2.726
		c0.802,1.362,1.844,1.844,2.806,2.084c0.882,0.24,1.523,0.399,2.405,0.562c0.882,0.32,1.523,1.203,1.604,2.004
		c0.481,0.883,0.802,1.925,0.481,2.565c-0.161,0.479-0.642,0.802-1.443,0.882c-0.882,1.122-1.764,1.362-2.726,1.043
		c-1.844,1.281-4.65,0.641-8.417-2.085c-0.882-0.963-0.962-5.29-1.684-7.296c-0.561-1.521-1.684-1.763-2.245-3.206
		c-0.481-3.768-1.764-7.215-3.046-10.582c-0.802-2.645-3.047-6.653-2.325-7.937c0.24-0.963,3.848-2.565,5.13-5.29
		c1.042-1.845,1.603-4.249,1.684-7.296c0.08-1.122,0-2.646-0.241-4.168c-3.287,2.404-6.413,5.131-9.459,8.337
		c-0.562,0.562-1.123,1.202-1.604,1.844c-2.565,3.287-3.848,5.291-7.536,7.937c-3.287,3.367-6.413,8.338-8.417,13.228
		c-1.844,4.489-2.805,9.62-2.084,15.713c0.882,2.004,2.084,3.606,4.489,3.929c0.961,0.079,1.122-0.08,1.924,0.723
		c0.962,0.961,1.443,2.244,1.523,3.525c0.081,1.122-0.722,1.926-2.084,1.846c-1.042,0.881-2.886,1.041-3.768,0.32
		c-1.443,0.641-4.409,0.159-6.092-1.123c-1.042-0.722-0.802-1.523-0.962-2.727c-1.042-1.282-1.684-2.244-1.523-4.729
		c0-0.723-0.401-0.883-0.722-1.443c-0.562-0.883-0.401-2.645-0.16-4.729c0-2.887,0.962-5.531,1.523-8.658
		c0.161-3.688,0-5.131,0.561-7.055c0.481-1.684,1.523-2.084,3.046-5.211c2.886-7.775,1.603-9.779,6.814-17.877
		c3.527-8.979,3.207-16.514,6.333-23.729c1.363-3.126,4.008-5.371,6.253-7.936c-8.097,0-16.594-3.208-22.206-8.819
		c-4.329-5.21-5.372-12.506-2.565-16.754c1.123-2.165,3.447-3.928,5.691-5.13c3.608-1.924,7.295-2.245,11.384-1.523
		c2.565,0.641,3.848,1.763,5.21,3.848c0.161,0.24,0.321,0.48,0.481,0.722c-0.321,0-0.481,0.08-0.722,0.24
		c-0.16,0.561-0.561,1.122-2.325,1.122c-1.684,0.882-2.886,0.642-4.088-0.161c-1.042-0.4-2.646-0.4-4.009-0.08
		c-3.286,0.641-6.573,2.966-6.493,7.295c0.561,8.898,14.43,14.029,27.977,11.143c3.929-2.806,8.899-5.451,17.557-4.329
		c7.375,0.961,17.155,5.852,22.687,6.733c0.722-0.321,1.684-0.802,2.566-1.523c0.16-1.604-0.321-3.929-1.123-5.692
		c-5.771,0.802-13.388-0.641-16.193-4.087c-1.683-0.481-2.165-1.523-2.245-3.447c-0.48-0.401-0.801-1.042-0.721-1.764
		c-0.642-0.4-1.123-1.282-1.283-1.763c-0.08-0.562,0.16-0.802,0.321-1.203c4.329-3.768,11.944-6.974,13.548-9.861
		c0.641-0.881,1.202-2.003,1.443-3.207c0.24-0.881,0.401-0.801,1.042-1.363c2.725-2.244,5.291-4.168,7.856-5.771
		c0.08-0.16-0.081-0.241-0.241-0.321c-0.24-0.08-0.24-0.08-0.16-0.24c0.08-0.321,0-0.401-0.161-0.562c-0.24-0.24-0.16-0.641,0-1.042
		c0-0.16,0.081-0.16-0.08-0.24c-1.203-1.123-1.443-2.806-1.363-3.769c-0.481-2.565-1.523-4.729-2.565-6.894
		c-0.081-0.241,0.08-0.722,0.161-0.882c0-0.161,0.16-0.08,0.32,0c1.684,0.721,3.527,1.684,5.611,3.607
		c1.685,1.443,3.287,3.367,5.131,6.253c0.24,0.321,1.122,1.122,1.122,1.122c1.122,0.321,2.404,0.962,3.447,1.203
		c0.882,0.241,1.521,0.321,2.404,0.561c1.203,0.241,2.244,0.642,3.127,1.042c0-0.722-0.08-1.522-0.322-2.325
		c-0.319-0.882-0.479-1.844-0.641-2.967c-0.16-1.122-0.561-2.244-0.882-3.287c-0.079-0.24,0-0.32,0-0.401
		c0.08-0.16,0.481,0.161,0.642,0.241c3.849,2.806,7.295,6.654,10.182,12.105c0.08,0.321,0.16,0.802,0.16,1.122
		c1.684,1.684,2.244,2.485,1.844,5.051C108.182,24.783,111.309,32.319,112.832,37.29L112.832,37.29z"/>
</g>
</svg>
