<?xml version="1.0" encoding="utf-8"?>
<!-- Generator: Adobe Illustrator 16.0.0, SVG Export Plug-In . SVG Version: 6.00 Build 0)  -->
<!DOCTYPE svg PUBLIC "-//W3C//DTD SVG 1.1//EN" "http://www.w3.org/Graphics/SVG/1.1/DTD/svg11.dtd">
<svg version="1.1" id="Layer_1" xmlns="http://www.w3.org/2000/svg" xmlns:xlink="http://www.w3.org/1999/xlink" x="0px" y="0px"
	 width="348.074px" height="131.855px" viewBox="0 0 348.074 131.855" enable-background="new 0 0 348.074 131.855"
	 xml:space="preserve">
<path d="M116.949,124.033L116.949,124.033C116.994,123.991,116.987,123.995,116.949,124.033L116.949,124.033z"/>
<path d="M31.001,33.884c0,0,0.006-0.003,0.014-0.007C31.009,33.879,31.007,33.881,31.001,33.884L31.001,33.884z"/>
<path d="M173.296,31.588c-0.001,0.001-0.002,0.002-0.002,0.004C173.3,31.592,173.3,31.59,173.296,31.588L173.296,31.588z"/>
<path d="M31.015,33.877c0.029-0.016,0.048-0.023,0.059-0.028C31.057,33.856,31.031,33.87,31.015,33.877L31.015,33.877z"/>
<path d="M31.074,33.848C31.09,33.839,31.087,33.84,31.074,33.848L31.074,33.848z"/>
<path d="M130.179,130.903c0.009-0.102,0.501-1.044,1.859-1.044h4.029c0.421,0.112,2.127,0.429,3.915-0.948
	c0.046-0.027,0.094-0.062,0.192-0.135c3.044-2.282,5.939-2.998,8.153-2.021c0,0,3.335,0.495,6.942,3.362
	c0,0,1.479,0.917,3.656,1.075c0.182,0.012,2.546,0.236,4.094,0.406c0,0,0.781,0.097,1.058-0.379
	c0.258-0.317,6.146-7.014,7.428-9.233c0.421-0.216,0.954-0.669,1.038-1.21c0.071-0.46-0.108-1.091-1.368-1.489
	c-0.212-0.078-5.761-2.093-10.914-2.312c-0.244-0.078-0.32-0.388-0.03-0.573c0.102-0.054,0.239-0.135,0.494-0.29
	c4.643-2.805,7.847-4.282,9.526-4.396c0.123,0.013,0.241,0.009,0.355-0.003c0.286-0.03,0.766-0.085,1.799,0.341l0.409,0.089
	c0.226,0.058,0.573,0.146,0.945,0.248c2.608,0.688,8.683,2.29,13.217,2.464c0.773,0.397,2.947,0.929,4.355,0.46
	c0,0,2.201-0.445,2.754-2.758c0.008-0.042,1.275-4.003,5.535-10.03c0.101-0.104,0.221-0.251,0.418-0.503
	c4.297-5.462,8.594-9.048,12.857-10.681c1.001-0.243,7.291-2.63,9.939-4.395c0,0-0.015,0.008,0,0
	c2.369-1.628,10.887-8.258,20.209-24.36c0.097-0.249,2.472-6.154,9.976-5.976c0.013,0,14.707-0.182,15.423-0.19
	c0.762,0.17,7.646,1.484,10.831-4.623c0.008-0.011,4.228-9.532,9.241-8.751c0.656,0,3.615,0.38,13.504,3.222
	c0,0,23.521,5.01,35.033-3.912c3.061-1.545,12.9-7.76,10.699-22.334c-0.293-1.367-1.01-2.381-2.016-2.848
	c-1.244-0.577-2.883-0.339-4.857,0.7c-0.271,0.067-0.674,0.201-1.316,0.416c-3.695,1.235-14.918,4.981-19.975,4.706
	c-0.162-0.034-0.406-0.045-0.859-0.064c-7.016-0.28-15.572-1.858-25.43-4.689c0,0-0.532-0.146-0.646-0.18
	c-11.837-3.644-21.414-3.16-27.692,1.396c-5.283,3.835-8.062,10.506-8.281,19.81c-0.639,0.43-3.655,0.906-11.145-2.058
	c-0.371-0.326-1.389-0.939-4.345-2.716c-3.628-2.179-8.591-5.163-11.701-7.383l-0.514-0.368
	c-4.913-3.645-22.011-14.28-49.374-10.046v0.001c-0.449,0.014-1.296,0.149-3.02,0.426c-3.188,0.515-8.504,1.369-13.279,1.851
	c-0.271-0.025-0.799,0.022-2.076,0.142c-3.352,0.314-11.193,1.049-20.042,0.632c-0.182-0.034-0.451-0.033-0.967-0.021
	c-1.993,0.043-7.257,0.149-10.328-2.195c-0.071-0.103-0.161-0.203-0.27-0.32c-0.297-0.317-0.794-0.852-0.717-1.312
	c0.069-0.412,0.59-0.77,1.014-0.994l-0.002-0.002c0.587-0.24,1.263-1.223,1.281-2.006c0.021-0.902-0.588-1.995-3.552-2.121
	c-0.938-0.294-4.361-0.128-8.111,1.293c-0.557-0.188-0.811-0.499-0.914-0.74c-0.23-0.535-0.079-1.339,0.426-2.324
	c0.918-0.657,2.495-2.595,2.78-2.991c0.935-1.295,1.539-3.044,1.054-3.895c-0.635-1.109-2.602-2.467-9.502-2.044
	c-0.058-0.002-9.535,0.764-22.991,5.86c0,0-1.889,0.679-2.542,0.303c-0.125-0.073-0.26-0.226-0.295-0.58
	c0.258-0.647,0.338-1.549-0.238-2.261c-1.216-1.499-4.657-1.487-10.522,0.037l0.022,0.018c-0.612,0.128-2.267,0.823-7.836,3.16
	c-0.515,0.221-0.764,0.193-0.831,0.143c-0.093-0.069-0.13-1.009-0.178-1.023c-0.223-1.144-0.699-1.998-1.447-2.509
	c-1.115-0.764-2.37-0.473-2.422-0.459c-4.206,1.164-8.668,3.52-11.676,5.292c-1.765,1.04-3.176,1.962-4.049,2.553
	c-0.955,0.646-1.398,0.959-1.611,1.163l0.001-0.003c-0.241,0.208-0.467,0.274-0.735,0.217c-1.21-0.265-2.592-2.777-2.866-3.381
	c-1.333-3.643-4.216-3.564-5.042-3.445c-7.007,3.104-6.588,12.548-6.265,15.348c0.003,0.021,0.001,0.014,0.001,0.007
	c0.104,0.64,0.013,1.026-0.043,1.169c-1.464,0.747-13.687,7.165-14.547,13.71c0,0,0.087,0.274,0.096,0.289
	c0.076,0.36,0.011,2.885-2.11,7.137C14.013,44.54,1.673,63.637,1.619,63.722c-1.999,3.147-2.13,5.9-0.488,8.056
	c0.328,0.538,1.566,3.024,1.566,4.789c0,0,0.077,0.127,0.081,0.143c0.391,1.926,2.123,3.191,3.565,3.938
	c0.268,0.231,0.931,0.397,2.562,0.649c0.064,0.004,2.219,0.179,3.669,0.824l0.163,0.046c0.958,0.225,5.778-1.493,5.81-1.509
	c2.331-1.079,3.091-2.568,3.317-3.625l0.039-0.178c0.524-1.374,5.145-9.847,10.643-13.512l1.063-0.71
	c1.691-1.058,5.207-3.184,8.273-4.996c0.436-0.242,10.994-6.151,14.371-11.576c0.029-0.03,0.106-0.113,0.121-0.128
	c0.102,0.016,1.583,0.72,1.583,0.72c1.947,0.579,22.266,9.914,24.687,21.532l0.216,1.032c0.044,1.177-0.081,3.594-0.947,7.807
	c-0.636,3.342-2.382,12.234-2.835,13.369c-0.062,0.154-1.585,3.915-0.984,6.917l0.011,0.039c0.005,0.022,0.024,0.107,0.044,0.2
	c0.677,3.063,1.763,7.11,3.097,9.188c0.02,0.064,0.519,1.644,3.542,1.54l0.226-0.012c0,0,0.161-0.047,0.223-0.051
	c0.47-0.026,1.278-0.085,2.041-0.363c0.659-0.179,8.692-1.582,10.816-1.775c-0.013,0.004,0.002,0,0.135-0.016
	c2.528-0.294,11.115-1.099,16.188,0.797c0.148,0.128,0.369,0.255,0.672,0.426c1.063,0.6,3.275,1.841,3.789,3.903l-0.017-0.14
	c0,0.499,1.374,2.597,4.414,3.029c0.131,0.05,1.335,0.503,3.543,1.149c0.187,0.05,0.666,0.255,0.798,0.61
	c0.125,0.345-0.086,0.786-0.304,1.122c-0.092,0.077-0.178,0.162-0.255,0.248c-2.168,2.425-5.513,3.756-9.942,3.965l-0.129,0.004
	c-0.525-0.065-1.24,0.094-2.089,1.331c-1.507,1.39-4.873,4.801-4.559,7.304c0.102,0.809,0.577,1.462,1.374,1.892
	c0.614,0.306,14.929,0.143,17.98-0.344C130.096,131.329,130.179,130.903,130.179,130.903L130.179,130.903z"/>
<path fill="#FFFFFF" d="M336.417,41.412c-11.752,9.143-34.138,3.764-34.138,3.764c-5.129-1.478-11.62-3.23-13.649-3.264
	c-6.256-0.958-9.899,8.26-10.154,8.949c-2.824,6.128-9.543,4.504-9.829,4.432l-15.612,0.174c-7.994-0.189-10.787,6.068-11.017,6.617
	c-9.435,16.282-18.177,22.784-19.824,23.918c-0.039,0.027,0.021-0.016,0,0c-2.661,1.771-8.979,4.046-9.59,4.239
	c-4.456,1.706-9.035,5.446-13.465,11.075c0,0,0,0,0,0.004l-0.435,0.515c-4.394,6.212-5.662,10.212-5.713,10.378
	c-0.459,1.518-1.988,1.992-2.033,2.021c-1.166,0.375-3.139-0.217-3.455-0.387l-0.344-0.124c-4.418-0.147-10.508-1.753-13.106-2.441
	c-0.672-0.178-1.051-0.274-1.291-0.313c-1.247-0.499-1.921-0.433-2.281-0.391c-0.04,0.004-0.276-0.007-0.276-0.007
	c-2.805,0.17-8.274,3.477-10.071,4.561c-0.148,0.094-0.518,0.306-0.518,0.306c-0.706,0.453-1.41,1.002-1.283,1.675
	c0.123,0.646,1.762,1.002,1.762,1.002c5.003,0.186,10.654,2.239,10.712,2.259c0.558,0.163,0.304,0.53,0.157,0.607h-0.213l-0.16,0.31
	c-0.938,1.787-6.467,8.119-7.27,9.032l-0.312,0.104c-3.904-0.371-4.007-0.375-4.04-0.375c-1.948-0.143-2.994-0.843-3.034-0.862
	c-3.534-2.792-6.565-3.404-7.229-3.509c-2.596-1.103-5.863-0.333-9.218,2.183c-0.045,0.031-1.773,1.455-3.166,0.882l-4.285-0.027
	c-1.564,0-2.488,0.92-2.86,1.57c-3.823,0.495-15.758,0.441-16.99,0.356c-0.419-0.244-0.658-0.554-0.712-0.972
	c-0.204-1.629,2.136-4.421,4.201-6.324l0.01-0.009c0.038-0.035,0.117-0.131,0.117-0.131c0.435-0.654,0.807-0.952,1.104-0.882
	c0.062,0.011,0.196,0.015,0.343-0.016c4.663-0.232,8.225-1.667,10.592-4.271l0.092,0.046l0.282-0.414
	c0.562-0.823,0.72-1.573,0.473-2.238c-0.365-0.972-1.444-1.277-1.564-1.312c-2.222-0.646-3.461-1.122-3.474-1.125l-0.064-0.022
	l-0.068-0.013c-2.629-0.336-3.535-2.077-3.543-2.096l0.001,0.004c-0.653-2.511-3.129-3.907-4.324-4.58
	c-0.117-0.065-0.229-0.131-0.324-0.186v-0.128l-0.366-0.14c-5.3-2.054-14.249-1.215-16.866-0.909
	c-0.043,0.005-0.089,0.013-0.1,0.013c-1.387,0.127-5.193,0.758-6.327,0.947c-3.076,0.519-4.308,0.713-4.816,0.917
	c-0.608,0.222-1.253,0.244-1.688,0.275c-0.203,0.012-0.358,0.023-0.487,0.054c-1.922,0.051-2.36-0.801-2.364-0.809
	c-0.994-1.466-2.095-4.723-3.043-9.017c-0.014-0.062-0.031-0.14-0.056-0.218h0.005c-0.531-2.656,0.91-6.224,0.924-6.259
	c0.588-1.474,2.804-13.082,2.897-13.577c0.823-4.007,1.302-8.208,0.702-9.388C81.477,57.357,66.056,49.162,61.37,46.897
	c-1.948-0.941-5.088-2.679-5.884-1.684c-0.026,0.031-0.162,0.19-0.162,0.19c-3.177,5.184-13.9,11.183-14.009,11.243
	c-6.583,3.891-8.735,5.171-9.396,5.766c-3.291,2.194-6.156,5.881-7.977,8.605c-0.032,0.05-2.922,4.352-3.176,5.794
	c-0.25,1.164-1.171,2.1-2.698,2.808c-0.034,0.016-4.118,1.586-5.032,1.447c-1.629-0.716-3.901-0.901-3.996-0.905
	c-0.693-0.107-1.537-0.273-1.857-0.371l-0.186-0.093c-1.24-0.619-2.783-1.679-3.095-3.211c-0.021-0.102-0.051-0.174-0.085-0.244
	c-0.123-1.516-1.044-4.379-1.845-5.214c-1.99-2.615-0.023-5.684,0.616-6.691c0.095-0.148,0.189-0.307,0.237-0.468
	c1.448-2.347,12.964-19.852,13.406-20.451c1.788-3.578,2.531-6.777,2.203-7.983c0.958-6.18,13.92-12.736,14.051-12.803l0.177-0.137
	c0.096-0.11,0.552-0.774,0.335-2.105c-0.3-2.596-0.789-11.3,5.432-14.118c0.812-0.108,2.74,0.021,3.723,2.83
	c0.337,0.926,1.74,3.037,2.9,3.712c0.871,0.509,1.793,0.407,2.511-0.213c0.862-0.699,9.391-6.663,16.825-8.724
	c-0.013,0.004,0.812-0.176,1.5,0.304c0.54,0.375,0.882,1.068,1.021,2.058c-0.036,0.366,0.041,0.879,0.342,1.239
	c0.316,0.379,0.95,0.72,2.176,0.194c2.678-1.124,7.063-2.938,7.612-3.112c7.222-1.877,8.981-0.933,9.385-0.436
	c0.388,0.48,0.065,1.162,0.026,1.237l-0.06,0.28c0.049,1.219,0.895,1.926,2.262,1.89c0.02-0.001,1.445-0.09,2.143-0.52v0.002
	c12.807-4.852,22.548-5.786,22.629-5.789c6.085-0.372,7.738,0.714,8.236,1.123c0.255,0.209,0.189,0.777,0.189,0.777
	c0.373,1.122-2.715,4.411-3.456,4.977c0,0-1.583,2.696-0.822,3.688c0.322,0.42,0.687,1.131,1.769,1.434c0,0,0.702-0.034,0.715-0.115
	c3.207-1.196,5.939-1.364,6.922-1.3l0.554,0.113c2.141,0.077,2.461,0.639,2.508,0.811c0.097,0.351-0.222,0.819-0.438,1.051
	l-0.218,0.116c-0.948,0.506-1.488,1.118-1.604,1.817c-0.17,1.019,0.597,1.841,1.01,2.282c0.035,0.04,0.319,0.391,0.319,0.391
	c3.382,2.656,9.018,2.535,11.14,2.489c0.246-0.005,0.838,0.02,0.838,0.02c8.951,0.427,16.871-0.317,20.253-0.634
	c0.752-0.07,1.986-0.133,1.986-0.133c4.834-0.482,10.225-1.351,13.444-1.869c0.488-0.079,3.011-0.426,3.011-0.426
	c27.325-4.229,44.218,6.584,48.747,10c0.112,0.087,0.213,0.154,0.307,0.211l-0.004,0.002c3.145,2.247,8.328,4.947,11.773,7.435
	c2.12,1.53,4.406,2.761,4.406,2.761c8.766,3.214,11.257,2.62,12.143,2.097c0,0,0.611-0.061,0.661-0.715
	c0.151-9.104,2.781-15.575,7.825-19.233c5.977-4.336,15.201-4.762,26.684-1.229c0.312,0.097,0.514,0.152,0.678,0.183l-0.012,0.003
	c9.943,2.855,18.594,4.448,25.699,4.733c0.23,0.01,0.781,0.062,0.781,0.062c5.252,0.317,16.301-3.373,20.463-4.764
	c0.615-0.206,1.424-0.46,1.424-0.46c1.646-0.879,3.002-1.123,3.906-0.701c0.678,0.314,1.152,1.02,1.365,2.009
	C348.699,34.021,339.302,39.955,336.417,41.412L336.417,41.412z"/>
<path d="M42.151,9.1C42.148,9.093,42.153,9.105,42.151,9.1L42.151,9.1z"/>
<path d="M32.996,20.388C33.002,20.444,32.993,20.361,32.996,20.388L32.996,20.388z"/>
<path d="M336.417,41.412C336.501,41.346,336.359,41.441,336.417,41.412L336.417,41.412z"/>
<polygon points="66.908,6.19 66.908,6.19 66.908,6.19 "/>
<path d="M288.56,41.906c0.02,0,0.051,0.006,0.07,0.006c0.007,0.001,0.011,0,0.019,0.001L288.56,41.906L288.56,41.906z"/>
<path d="M106.01,91.896c0,0-1.584-1.652-2.495-2.607c-1.283-1.342-2.737-2.866-3.731-3.859c-0.541-0.495-1.928-1.075-3.45,0.158
	c-0.135,0.116-3.308,2.839-4.009,6.046l-0.013,0.062V91.7c-0.005,0.015-0.01,0.031-0.014,0.046
	c-0.109,0.391-0.399,1.423,0.149,2.387c0.386,0.674,1.094,1.152,2.104,1.424l0.024,0.008l0.021,0.004
	c0.156,0.026,3.813,0.677,5.617,0.387c1.079,0.124,4.049,0.004,5.361-1.141C106.049,94.399,106.736,93.471,106.01,91.896
	L106.01,91.896z"/>
<polygon points="100.142,95.958 100.141,95.942 100.154,95.946 "/>
<path fill="#FFFFFF" d="M105.02,93.734c-0.739,1.06-5.307,1.079-5.307,1.079s-4.618-0.321-4.885-0.368
	c-0.692-0.189-1.158-0.487-1.385-0.882c-0.312-0.545-0.123-1.219-0.043-1.504c0.033-0.116,0.057-0.201,0.057-0.303l-0.013,0.12
	c0.618-2.824,3.602-5.388,3.621-5.408c1.089-0.882,1.849-0.277,1.931-0.209c0.962,0.964,2.411,2.483,3.69,3.822
	c1.362,1.428,1.983,2.077,2.313,2.375C105.344,93.258,105.103,93.614,105.02,93.734L105.02,93.734z"/>
<path d="M175.102,73.917c-0.021-0.104-0.558-2.6-2.124-3.478c-0.66-0.371-1.389-0.417-2.168-0.14l-0.381,0.14
	c0,0-20.52,8.567-31.446,9.094c0,0-5.35,0.425-7.684,0.568c-0.342-0.046-1.781-0.183-2.742,0.699
	c-0.63,0.577-0.903,1.436-0.816,2.55c-0.051,1.257-0.166,7.303,2.255,8.354c0,0,1.951,0.438,3.108-1.625
	c1.565-2.785,2.882-3.129,3.515-3.102l12.129,0.097c0.195-0.004,0.616,0.058,0.714,0.259c0.047,0.098,0.212,0.661-1.154,2.34h0.006
	c-0.071,0.085-0.124,0.179-0.162,0.251c-1.552,2.828-3.021,3.978-3.992,4.441c-0.444,0.116-2.968,0.847-3.902,2.6
	c-0.038,0.055-0.09,0.132-0.192,0.29c-1.241,1.931-1.907,2.604-2.258,2.812c-0.355,0.089-0.994,0.41-2.304,1.148
	c-0.333,0.027-1.003,0.151-1.224,0.731c-0.273,0.712,0.39,1.416,0.911,1.884l0.29,0.259l0.076-0.039
	c0.029,0.023,0.061,0.047,0.089,0.065c0.723,0.549,2.414,1.834,4.109,0.94l0.163-0.085l0.024-0.051
	c0.274-0.182,1.226-0.727,2.237-1.307c2.097-1.199,5.265-3.01,7.367-4.414l0.048-0.031l0.016-0.016
	c0.128-0.089,2.205-1.47,5.982-1.385c0.523,0.058,5.698,0.577,10.248-1.984l-0.103,0.027c0.652-0.264,2.162-1.684,2.876-2.445
	C171.321,90.48,175.763,84.075,175.102,73.917L175.102,73.917z"/>
<path fill="#FFFFFF" d="M149.182,90.43C149.202,90.392,149.168,90.454,149.182,90.43L149.182,90.43z"/>
<path fill="#FFFFFF" d="M173.965,74.072c-0.135-0.6-0.646-2.127-1.55-2.634c-0.356-0.197-0.749-0.217-1.199-0.062
	c-0.419,0.24-1.328,0.607-3.32,1.404c-1.846,0.739-4.77,1.868-8.227,3.056c-5.953,2.042-14.355,4.53-20.622,4.832
	c-0.543,0.116-1.632,0.183-3.866,0.333l-3.871,0.251l-0.132-0.008c-0.013-0.003-1.087-0.046-1.85,0.406
	c-0.813,0.483-0.441,1.725-0.441,1.725c-0.111,2.692,0.301,6.728,1.563,7.28c0.021,0.008,0.839,0.329,1.563-0.99
	c0,0,0.076-0.116,0.101-0.163c1.462-2.499,2.985-3.732,4.533-3.667c-0.02,0,12.108,0.098,12.085,0.098
	c0.133-0.005,1.305-0.017,1.755,0.894c0.41,0.828-0.034,2.042-1.306,3.605c-1.723,3.141-3.455,4.472-4.582,4.998
	c0,0-2.629,0.664-3.358,2.123c0,0-0.161,0.248-0.214,0.329c-0.896,1.394-1.935,2.87-2.831,3.276l-0.361,0.167
	c0,0-1.219,0.58-1.886,0.959l-0.279,0.073c-0.081,0-0.062,0.302,0.199,0.545c0.149,0.07,0.299,0.182,0.468,0.306
	c0.63,0.479,1.796,1.361,2.833,0.859c0.235-0.178,0.81-0.511,2.439-1.443c2.078-1.188,5.216-2.981,7.286-4.363
	c0.504-0.391,2.899-1.726,6.745-1.633h0.028l0.028,0.004c0.052,0.004,5.223,0.611,9.58-1.841l0.036-0.019
	C165.688,94.523,174.857,88.098,173.965,74.072L173.965,74.072z"/>
<path d="M35.695,23.333l-0.777-1.291l0.19-2.96c0,0,0.764-1.526,1.146,0.191c0.19,0,0.764,2.481,0.096,4.01
	c0.095,0-0.573-0.19-0.668,1.051c0-0.19,0.381,0.572-0.669,1.241c-0.095,0.096-5.539,2.102-8.499,5.062c0,0-1.146,0.859-1.911,1.05
	c0,0-1.146,0.478-1.814,2.579c0.095,0-0.574,0.285-0.574,0.285l0.287,0.574c0,0,0.859,0.765,0.19,2.004c0,0-1.337,3.534-2.578,4.489
	c-0.191,0.095-1.337,0.19-0.669-1.72c-0.095,0.096,1.051-3.246,1.051-3.246s0-1.815,1.146-2.103c-0.096,0,0.572,0.574,0.286-1.146
	c0,0,0.19-1.432,1.91-3.151c0-0.096,6.479-4.538,9.169-5.729c0,0,1.527-0.765,2.1-0.479C35.012,24.047,35.695,23.333,35.695,23.333
	L35.695,23.333z"/>
<path d="M37.973,8.577c0,0,1.242-1.527,1.624,0.573c0-0.19,0.956,2.674,1.91,4.202c0.096,0.191-0.477,0.382,0.574,1.146
	c-0.096-0.096,1.909,0.86,0.668,2.578c0.096,0-1.336,2.771-0.955,4.299l3.438-0.765c0,0,1.91-0.572,0.573,1.337
	c-0.095-0.096-0.764,1.432-3.152,1.432c0,0-0.763,0-1.432,0.574c0,0-1.432,0.478-1.432-1.051c-0.096,0-0.383-3.82,0.478-5.443
	c-0.191,0.098,0.668-0.287,0-1.146c0.095,0-1.528-2.77-2.005-2.292c0.19,0.19-1.051,0.956-0.668,1.814
	c0.095,0,1.336,0.765-0.383,0.86c0.096,0-2.196-1.147-1.624-4.395c0-0.096,0.765-1.337,1.147-1.146
	C36.828,11.156,36.254,9.054,37.973,8.577L37.973,8.577z"/>
<path d="M47.523,20.515c0,0-2.389,2.101,0.477,1.624c0,0-0.191-0.573,0.573-1.147C48.573,20.896,50.292,19.177,47.523,20.515
	L47.523,20.515z"/>
<path d="M64.617,7.049c0,0,0.955-2.005-2.006-0.765c0-0.19-10.6,5.635-12.796,8.787c0.095,0-0.956,0.955,1.528,0.668
	c0.096,0,2.196-0.956,4.106-1.624c0.096,0,1.624-0.86,2.77-0.86c-0.191,0.097,0.954,0.383,2.004-0.858
	C60.128,12.301,64.617,7.049,64.617,7.049L64.617,7.049z"/>
<path d="M13.335,50.691c0,0-5.157,9.073-7.736,12.225c0.096,0.095-0.381,0.764-0.381,0.764l-0.479,1.146l0.669,0.669l1.05-1.624
	c0,0,0-0.668,1.242-1.719c0.096-0.096,1.241-1.529,1.241-1.529s2.292-2.769,3.438-5.634c0.096,0,0.956-1.146,0.956-1.146
	s2.005-2.674,2.291-3.151c0.096-0.097,0.478-0.668,0.383-1.91c0-0.095-0.383-1.338-0.86-0.382c-0.096,0-0.669,0.955-0.669,0.955
	L13.335,50.691L13.335,50.691z"/>
<path d="M87.632,76.954c0,0-1.623-3.628-2.387-1.911c0,0.098-0.669,4.777-1.624,9.071c0.095-0.093-0.286,1.532-0.286,1.532
	s-0.286,4.011-1.242,6.015c0.096,0.286-0.765,2.003-0.765,2.003s-0.476,0.097-0.572,1.814c0,0.097,0.097,2.39,1.241,4.49
	c0,0.094,0.86,0.38,0.955,2.576c0.097,0.098,0.574,2.294,2.675,2.294c0,0,3.246,0.189,3.533-0.479c0-0.093,2.864-0.477,2.864-0.477
	s4.489-0.285,6.876-0.669c0-0.189,6.112-0.858,9.933-0.097c0,0.193,1.623,0.097,1.623,0.097s2.006,0.669,2.483,0.193
	c0.19-0.193,1.336-0.193,0.669-1.242c0.189,0.093-0.669-0.956-1.052-1.148c-0.095-0.189-0.955-2.771-1.909-3.343
	c0.095-0.093-0.765-1.62-2.102-1.145c0.096-0.097-0.667-0.286-1.624,0.573c0-0.098-1.336,1.338-2.196,0.766
	c0-0.097-0.668-0.193-0.668-0.193h-8.595c0,0-0.955,0.669-2.292-0.188c0.096-0.097-3.057-1.528-2.482-4.87
	c0.096,0,0.382-1.911,0.382-1.911s-0.096,0.189,0.477-0.669c0.096,0,0.286-0.572,0.765-1.334c0,0.189-0.191-0.479,0.382-0.669
	c0.097-0.097,0.573-0.097,0.669-0.859c0,0.094,0.478-0.766,0.478-0.766s-0.287-0.476,0.286-0.762c0.19,0,1.242-1.149-0.096-2.392
	c0-0.093-1.05-0.956-1.05-0.956s-0.096-0.093-1.242-0.951C91.833,81.348,89.351,79.913,87.632,76.954L87.632,76.954z"/>
<path d="M156.773,118.111l-1.528-0.19c0,0-0.669-0.383-1.146,0.48c-0.097-0.097-0.191,0.379-1.052,0.665
	c0.095-0.189-0.955,0.383-0.955,0.383s-0.858,0.383-1.336,1.052c-0.097,0-0.765,0.093-0.765,0.093s-0.955,0.384-2.006,1.723
	c0.096,0,0.573,0.286-0.573,0.669c0,0-1.05,1.048,0.287,1.242c0,0,1.337-0.098,3.247,0.666c0-0.094,0.573,0,0.573,0
	s0.286,0.097,1.241,0.571c0.095,0.098,0.669,0.577,0.669,0.577l0.858,0.286l1.146,1.242c0,0,2.102,1.621,4.871,1.048
	c0,0.097,1.337-0.956,2.388-0.286c0,0.098,0.574-0.476,0.574-0.476s1.718-1.052,2.482-2.197l0.191-0.766l0.668-0.189
	c0,0-0.096-0.286,0.478-1.052c0.095-0.093,0.859-0.093,1.05-0.952c0.096,0,0.669-0.956-0.382-1.625
	c-0.096-0.097-1.337-1.052-2.483-1.052c0-0.093-1.05,0.479-1.05,0.479l0.669,0.859c0.571-0.097,1.91,0.762,1.051,1.625
	c0-0.097-0.956,0.476-1.243,1.621c-0.096,0.192,0,0,0,0l-0.763,0.479l-0.097,0.666h-4.584c0,0-1.433-0.093-0.858-1.237
	c0.096-0.098,0.955-2.483-0.191-1.723c0-0.093-1.432,1.338-1.91,0.669c0.096-0.097-0.765-0.858-2.482-1.527
	c0,0-0.956,0.097-0.096-0.859c0.096-0.097,0.954-1.145,0.954-1.145l0.669-0.384l0.955-0.192c0,0,1.051,0.29,1.051-0.287
	C157.346,118.974,157.633,118.305,156.773,118.111L156.773,118.111z"/>
<path d="M163.839,119.736c0,0,0.764,0.857-0.189,1.338l-1.052-0.193c0,0-2.005-0.572-0.573-1.431c0-0.097,0.859,0.097,0.859,0.097
	L163.839,119.736L163.839,119.736z"/>
<path d="M124.017,123.364c0,0,1.528,0,0.478,1.052c0,0-1.051,0.669-1.337,0C122.966,124.513,122.297,123.844,124.017,123.364
	L124.017,123.364z"/>
<path d="M160.496,100.828c0,0,2.962-1.242-0.096-1.625c0.096-0.093-0.668,0-2.1-0.379c0-0.097-2.006,0-2.866,0.093
	c0-0.093,0.096,0.287-1.526,0.193c-0.096-0.097-2.197-0.097-3.344,1.432l-2.1,0.477l-1.815,0.669c0,0-0.477,0.286-1.91,1.527
	c0-0.097-1.432,1.528-3.15,2.101c-0.096,0-1.434,0.862-1.434,0.862s-0.668,0,0,1.238c0,0,0.479,1.911,2.102,1.242
	c0.096,0,1.433-1.048,1.433-1.048s1.91-1.625,5.921-3.056c-0.095-0.098,2.005-0.48,2.005-0.48s-0.189,0.383,0.955-0.286
	c0.096,0,2.197-0.956,2.197-0.956L160.496,100.828L160.496,100.828z"/>
<path d="M134.999,89.463c0,0-0.57,3.369-4.68,3.915c0.094-0.012-0.859,0.286-0.096,1.436c0.096,0.188,0.67,1.431,0.383,2.576
	c0.096,0-0.669,1.052,0.859,2.387c0,0,0.382,0.479,0.763,1.052c0,0,0.192,0.383,1.339,0.189c0,0-0.096-0.286,1.24-0.859
	c0-0.097,0.286-0.476,1.434-0.476c-0.191,0,0.382,0.476,1.527-1.722c0.095,0.098,1.051-2.29,2.961-3.342
	c0.096,0,0.286-0.093,1.813-0.379c0.096,0,2.77-0.956,3.82-3.439c0-0.192,2.102-2.579,0.382-2.963
	c-0.096-0.093-1.049-0.188-3.246-0.093c-0.096,0-4.68,0-4.68,0S135.954,86.98,134.999,89.463L134.999,89.463z"/>
<path d="M200.891,94.716c0,0,4.681-1.813,1.241,0.956c0.098,0.094-5.729,2.862-9.07,11.079c-0.098,0-1.241,3.726-2.959,5.632
	c0,0.098-0.766,0.193-2.482,0.098c0.092,0.097-4.012-0.189-5.826-0.767c0,0-4.68-1.048-7.164-1.335c0-0.097-4.583,0-1.908-1.147
	c0,0,4.105-0.573,9.166-0.666c0,0,2.865,0.093,4.205-2.102C186.188,106.464,194.589,96.627,200.891,94.716L200.891,94.716z"/>
<path fill="#FFFFFF" d="M89.542,81.727c0,0,4.202,2.293,3.343,3.249c0,0.097-0.287,0.188-0.765,1.718
	c-0.096,0,0.191,0.383-0.573,1.145c0,0-0.477,0.098-0.858,1.149c-0.191,0.093-0.574,0.189-0.574,1.242c0,0-0.858,0.093-0.954,0.762
	c-0.096,0.097-2.102,0.766-2.388-1.242c0.096,0,0.19-0.572,0-1.527c0.096,0.097-0.764,0.383-0.096-1.528
	c0-0.097,0.191-2.29,0.191-2.29l0.381-0.577l0.479-1.238C87.728,82.589,87.919,79.723,89.542,81.727L89.542,81.727z"/>
<path fill="#FFFFFF" d="M85.053,95.099c0,0,0.574,0,2.006,0.476c-0.096,0.097,0.096-0.762,1.434,0.383c0.19,0,1.05,0.762,1.05,0.762
	s0.096,0.098,0.382,0.862c0,0.093,0.478-0.29,0.383,0.952c0,0.097,0,0.956,0,0.956l-0.479,0.572l-0.382,1.052l-0.573-0.097
	c0,0-1.624,0.956-2.864,0l-0.764-0.573l-0.573-0.286c0,0,0-0.286-0.478-0.762c0.095,0-1.337-1.814,0.095-1.911
	c0.096,0.097,0.478-0.286,0.573-1.052c0.19,0.192,0.479-0.669-0.19-0.572C84.48,95.861,84.289,94.813,85.053,95.099L85.053,95.099z"
	/>
<path fill="#FFFFFF" d="M136.623,90.419c0,0,0.19-1.242,2.387-0.858c0,0.097,0.955-0.193,2.197,0.286
	c0.19,0.097,1.527-0.286,1.527,1.048c0-0.189,0.383,1.241-1.146,1.338c0,0-0.191,0.669-2.006,0.669
	c-0.096,0-0.382-0.383-0.859,0.476c-0.096,0.098-0.572,0.669-0.572,0.669s0.19-0.571-0.956-1.048
	c0.096-0.193-1.146,0.286-0.859-1.148C136.336,91.85,135.954,90.895,136.623,90.419L136.623,90.419z"/>
<path fill="#FFFFFF" d="M133.567,94.813c0,0,1.24-1.053,1.432-0.098c-0.096,0.098,0.573,0,0.573,0s0.095,0.189,0,1.146
	c0.095,0,0.382,0.956,0.859,1.338c0,0,0.286,0.286-0.668,0.859c0.095-0.098-1.051,1.052-1.051,1.052s-0.287,0.476-1.337-0.479
	c0-0.097-0.86-0.188-0.669-1.241c0.096,0,0.573-0.189-0.286-0.956C132.516,96.341,130.51,95.861,133.567,94.813L133.567,94.813z"/>
<path fill="#FFFFFF" d="M191.055,108.17v-0.012c-0.013-0.042-0.261-1.013-0.824-1.145c-0.274-0.065-0.567,0.081-0.866,0.433
	c-0.012,0.016-1.148,1.229-2.445,1.694v0.004c-0.004,0-0.016,0.004-0.022,0.004c-0.519,0.135-0.812,0.352-0.878,0.646
	c-0.068,0.321,0.158,0.704,0.682,1.133c0,0,0.247,0.031,0.297,0.051c0.299,0.111,0.849,0.32,1.586,0.259
	c0,0,0.108-0.023,0.168-0.027c0.238-0.004,0.646-0.012,1.326-0.77C190.08,110.44,191.144,109.814,191.055,108.17L191.055,108.17z"/>
<path d="M65.764,12.969c0.095-0.096-2.579,0.86-0.86,2.483c0.095,0,0,0.19,1.623,0c-0.096,0.095,6.781-1.051,10.696-0.573
	c-0.287,0.097,13.084,0.287,22.919,2.483c0.192,0.192,4.394,0.764,5.826,0.955c0.19,0.096,2.006-0.286,1.146-2.101
	c0.096,0.096-0.286-0.478-1.527-0.764c0.096-0.096-1.242,0.19-0.383-1.051c-0.096,0.19,0.86-1.146-0.668-1.432
	c-0.096-0.19-1.911-0.479-3.343-0.097c0-0.095-1.814,0.382,0-0.955c0.096-0.096,3.151-1.242,7.259-1.242
	c0,0.097,1.146,0.19,1.146-0.668c0,0.19,0.477-0.859,0.477-0.859s-0.096-0.096,1.146-0.382c-0.096,0.096,2.102-0.383,3.342-1.433
	c-0.095-0.096,1.815-0.956,3.248-2.77c0,0,1.909-0.859,0.572-1.242c0.096-0.096-5.92-3.246-28.554,7.449
	c0.096,0-4.87,2.481-6.589,2.387c0.096-0.095-5.253-0.381-5.253-0.381s-2.577,0.286-0.477-1.243c0,0,3.533-2.769,5.92-3.82
	c0.191,0.097,2.771-1.336,1.433-2.291c0-0.096-0.19-0.285-1.91,0C82.952,5.426,73.02,7.908,65.764,12.969L65.764,12.969z"/>
<path d="M111.793,10.01c0,0,1.91-1.624,1.528,0.955c0.096,0-0.382,0.479-0.382,0.479s-0.192,2.481-1.72,2.578
	c0,0-2.674-0.382-1.623-2.483C109.691,11.442,110.647,10.391,111.793,10.01L111.793,10.01z"/>
<path d="M344.142,22.806c0,0-0.193-3.056-6.688,0.19c0.383-0.19-11.459,5.73-32.471,1.146c-0.572-0.191-10.312-1.91-20.625-4.584
	c0-0.117-4.947-0.312-4.947-0.312c-8.022,0.23-11.94,3.755-12.541,4.341c-5.33,4.529-5.047,16.569-5.047,16.406
	c0.567,5.158-5.545,3.628-5.545,3.628s-6.49-1.718-6.49-1.526c-11.269-2.294-25.213-12.226-25.213-12.226
	c-11.279-6.683-20.369-8.492-24.063-8.909c-7.945-0.5-19.005,1.938-18.911,1.938c-10.216,2.482-21.295,3.057-21.2,3.151
	c-5.347,1.146-25.02,0.286-25.02,0.286c-7.161-0.381-16.14-2.388-16.235-2.388c-1.433,0.191-1.719-1.623-1.719-1.623l-0.096-0.859
	c0,0-0.285-0.668-0.285-0.764c-0.287-1.05,1.624-1.813,1.718-1.813c0.287-0.765,0.955-0.384,0.859-0.384
	c2.102-0.858,4.871-1.433,4.871-1.337c1.146-0.382,1.528-0.858,1.528-0.954c0.096-0.956,0.763-1.624,0.573-1.434
	c0.858-1.91-1.051-1.24-1.146-1.24c-3.534,0-8.596,2.101-8.596,2.101c-1.24-0.286-1.623,0.573-1.623,0.668
	c-0.858,0.572-2.483,1.242-2.483,1.242l-0.668,0.572c0,0-0.096,1.05,0,0.955c-0.573,1.05,1.814,2.483,1.719,2.388
	c1.337,1.624-0.954,1.433-0.858,1.433c-1.528,0-0.956,0.382-0.956,0.382h-2.101c0,0-1.718-0.572-1.814-0.478
	c-7.162-3.056-28.554-5.062-28.554-4.966c-2.005-0.19-8.595-0.286-8.689-0.383c-2.388-0.095-2.771,0.479-2.866,0.479
	c-2.005,0.478-3.629,0.285-3.629,0.285l-1.528,0.191c0,0-8.69,0-8.786,0.095c-0.955,0.097-0.859,0.384-0.859,0.384
	c-0.478,0.668-1.624,0.953-1.624,0.953l-0.572,0.383c0,0,0,1.433-0.096,1.527c1.242,0.956,2.864,6.78,2.864,6.78
	c0.86,3.343,0.096,7.067,0.096,7.163c-0.382,1.432-3.629,3.724-3.724,3.724c-0.668-0.096-2.96,0.668-2.96,0.765
	c-1.242,0.096-1.051-0.383-1.146-0.383c-0.764-0.668-2.102-0.478-2.196-0.478c0-0.667-1.624-0.572-1.624-0.572
	s-1.719-0.955-1.91-0.955c-0.191-0.669-1.242-1.05-1.337-0.956c-1.05-0.478-1.05-1.05-1.05-1.05s-0.859-1.624-1.719-1.051
	c0,0.096-0.764,1.147-2.196-0.572c0-0.19-0.382-0.19-2.961-0.286c0,0,0.669,0.858-1.718,0c0.095-0.096-2.769-0.573-4.489,3.246
	c0,0,0.383,1.91-1.146,1.91c0.096,0-1.718,0-0.477,2.388c0.095,0.097,1.146,1.146,0.382,2.006c0-0.097-4.68,8.021-5.92,9.55
	c0,0.287-1.815,2.865-1.815,2.865s-1.337,1.146-1.528,2.195c0.096,0.097-0.191,0.765-0.86,1.528c0,0-3.724,4.298-3.151,5.252
	c0,0.096-1.623,0.764-1.337,1.72c0-0.096-2.483-0.096-4.203,1.146c0,0-2.96,1.148-0.859,2.387c0.096,0,1.242,1.052,1.146-0.093
	c0-0.193,0.382-1.052,1.528,1.334c0.095,0.097,0.286,0.956-0.192,1.338c0,0-0.572,0.383,0.192,1.718
	c-0.096,0,0.478,0.766,0.19,2.007c0,0.19,0,1.242,1.433,1.625c0.382,0,0.668-0.383,2.291-0.291c0-0.093,1.433,0.383,2.197,0.291
	c0.096-0.097,1.433-2.008,2.006-0.383c0.19,0,0,0.477,1.146,0.19c0.096,0,2.482-0.573,2.482-0.573s1.433,0.286,1.337-2.959
	c0,0,0.86-1.911,0.955-3.056c0,0,0.382-0.384,0.478-0.956c0.191-0.286,0.478-0.767,2.578-2.387c0,0.094,3.248-3.344,5.826-6.113
	c0-0.096,4.68-3.438,8.595-5.73c-0.096,0,6.589-2.864,7.831-4.392c0.096-0.097,1.91-0.479,4.296-3.344
	c0,0.191,4.871-4.393,5.541-9.357c0,0,0.668-3.057,1.05,0.381c0-0.095,0.095,0.669-0.096,2.483l0.573,0.383
	c0,0,12.415,6.779,17.477,10.504c0.096,0.096,8.881,5.538,9.645,7.257c0,0,1.242,2.771,0.096,6.876c0,0.19-0.191,1.052,0.765,2.197
	c0,0.097,0.286,0.955,0.286,0.955s1.623,4.201,6.111,8.499c-0.096,0,0.573,0.858,2.388,1.911c0.096,0,1.72,1.048,1.72,1.048
	l1.718,0.383c0,0,0.86,0,2.196,1.338c0.191,0.189,7.354,5.729,10.027,10.885c0.191,0.194,0.573,0.573,0.573,0.573
	s0.191,1.814,1.528,2.294c0.095,0.093,1.624,0.858,1.624,0.858s0.858,1.625,2.388,2.866c0,0.094-0.191,2.101,1.145,3.915
	c0.097,0.189,1.91,2.674,3.63,4.012c0.19,0,0.096,0,1.146,1.145c0.287,0.189,0.572,1.052,3.056,1.052
	c0.096,0,2.005-0.479,3.821,1.621c0.095,0.098,0.668,0.767,0.668,0.767l1.813,1.048c0,0,0.383,0.573,1.146-0.286
	c0.097,0,0.383-0.956,1.529-1.146c0.191,0.098,1.146-0.188,0.381-1.338c-0.095-0.093-2.291-2.575-2.291-2.575
	s0.955,0.093-0.19-0.859c-0.096-0.097-1.242-0.193-2.006-1.721c0-0.189-0.191-0.859-2.578-0.286c0-0.093-1.146,0.286-3.343-1.625
	c-0.287-0.093,0.286-0.287-2.674-1.335c0-0.098-1.528-1.432-1.528-1.432s-0.478,0.477-0.955-1.531c0-0.094-2.578-5.156-4.012-7.641
	c0,0.286-7.066-10.025-11.649-13.844c-0.192-0.193-5.54-6.877-7.64-5.156c0.19,0-1.146,3.628-4.966-5.922
	c0.19,0,3.246,4.012,2.674,0.762c0.19-0.188-1.147-2.862,0.954-5.346c0.191,0,2.102-4.967,3.247-2.293
	c0.19,0.191,1.337,0.191,1.337,0.191l3.247-4.012c0,0-1.527-0.955-1.72-3.819c0,0,0.192-2.482-2.292-1.91
	c0-0.19-0.382,0.956-3.246-2.483c-0.191,0-6.493-5.729-15.279-10.122c-0.191,0.192-4.775-2.674-13.37-4.774
	c-0.382-0.382-5.921-2.865-5.921-2.865s-5.156-2.483,0.191,1.528c-0.382-0.191,11.269,8.213,20.914,13.561
	c0.097,0,4.681,3.82,4.681,3.82s1.526,0.955,1.623,1.146c2.196,2.292,3.629,2.102,3.533,2.196c1.814,0.382,1.911,1.624,2.006,1.528
	c0.764,1.624-0.287,2.006-0.479,2.195c-0.477,0.191-0.859,0.766-0.859,0.766s-0.763,0.477-0.668,0.477
	c-2.482,1.242-1.528,5.253-1.528,5.443c-0.572,2.674-2.005-3.343-2.102-3.247c-0.858-1.432-0.286-3.247-0.381-3.342
	c-0.191-2.005-0.859-3.152-1.051-3.057c-2.96-2.102-5.825-4.105-5.825-4.012c-0.861-0.954-14.326-9.072-14.326-8.976
	c-2.578-1.242-2.96-2.293-3.056-2.389c-0.955-1.241-1.718-1.432-1.718-1.432c-1.72-0.573-1.91-1.146-2.006-1.242
	c-0.19-1.051-2.005-2.101-2.005-2.101s-0.764-0.668-0.859-0.668c0-4.966-2.006-9.264-1.91-9.073
	c-0.669-1.432-0.191-1.813-0.191-2.005c0.478-1.242,1.624-1.242,1.72-1.242c1.432,0.286,2.769-0.573,2.769-0.573
	s1.242-0.095,1.147-0.095c1.718-0.192,2.864-0.478,2.864-0.574c2.388-1.05,5.252,0.097,5.348-0.096
	c2.006,0.86,4.298,0.86,4.298,0.86s4.297,0.096,4.392,0.096c6.304,0.382,17.858,2.578,17.764,2.481
	c7.64,0.479,12.319,4.681,12.414,4.681c1.624,1.527,2.483,1.337,2.483,1.337s1.91,0.189,2.101,0.189
	c6.017-0.382,6.973,1.434,7.067,1.624c0.286,1.433,1.241,1.72,1.241,1.815c1.338,0.667,3.438-0.859,3.342-0.955
	c2.196-1.528,6.113-0.574,6.113-0.574c2.482,0.287,12.032,0.86,11.937,0.86c10.314,0.096,17.764-0.668,17.858-0.764
	c2.579-0.478,10.408,0.859,10.408,0.859c2.484,0.668,2.579,0.097,2.675,0c0.355-0.534,1.374-0.322,1.435-0.29
	c0.291-0.856,1.908-1.046,1.812-1.046c9.359-7.449,17.668-8.595,17.762-8.5c4.75-1.287,8.818,0,8.979,0
	c10.695,2.293,20.436,8.787,20.629,8.978c17.38,12.987,29.986,14.897,29.986,14.897c9.551,1.91,10.123-3.82,10.312-4.011
	c0.837-8.638,3.808-14.323,5.351-16.771c3.295-5.101,10.938-4.145,10.938-4.145c0.938,0.075,1.896,0.169,2.812,0.289
	c0.189-0.191,14.324,4.202,28.27,5.92c0.189,0,16.424,2.866,27.311-0.764c-0.189,0.189,8.787-4.584,1.527,6.303
	c-0.189,0-7.064,8.786-20.055,8.595c0.189-0.191-12.605,0.954-27.502-4.203c0,0-2.482-1.145-5.35-1.145
	c-7.067-1.147-9.935,10.313-10.123,10.504c-2.862,5.348-7.446,4.393-7.641,4.393c-9.167-0.382-19.863-0.382-19.863-0.19
	c-6.301,0.382-6.494,2.102-6.494,2.102c-1.334,2.102-6.49,1.91-6.49,1.91c-8.596,0-11.271,13.18-11.271,13.18
	c-0.572,1.814-2.576,4.201-2.673,4.297c-1.053,1.432-2.196,2.479-2.196,2.576c-1.529,0.956-2.197,2.483-2.197,2.483l-1.049,0.766
	c0,0-1.338,0.665-1.527,0.665c-2.008,1.242-0.669-0.572-0.766-0.572c0.766-1.527,0.571-2.387,0.383-2.387
	c-1.432-1.625-3.057,1.625-3.057,1.432c-0.67,1.052-2.101,1.813-2.101,2.008c-2.771,1.242-4.681,3.342-4.681,3.342
	s-2.387,1.718-2.387,1.813c-4.013,2.483-5.729,2.866-5.826,3.057c-3.629,2.197-2.867,4.201-2.867,4.201
	c-0.092,0.956-0.955,1.527-0.955,1.625c-0.475,1.052-5.059,6.111-5.059,6.208c-1.049,0.762-1.814,1.621-1.814,1.527
	c-0.572,1.718-4.012,1.814-4.012,1.814c-1.146-0.097-2.672,0.093-2.77,0.188c-2.961,0.19-4.584-0.285-4.68-0.285
	c-3.342-1.242-1.527-2.959-1.432-3.057c1.527-2.004,6.111-7.354,6.111-7.354c2.196-2.29,4.967-4.773,4.967-4.773
	c1.527-1.528,0.858-4.107,0.763-4.011c-0.477-1.911-0.379-3.822-0.477-3.918c-0.383-7.257,1.812-13.941,1.812-13.941
	s0.098-0.189,0.098,0c1.146-5.155,2.29-6.684,2.29-6.494c0.956-4.773-4.968,0.765-4.968,0.573c-1.717,1.719-3.244,0.573-3.244,0.764
	c-1.719-1.337-5.634-1.337-5.921-1.337c-3.724-0.189-7.448,4.394-7.544,4.489c-0.956,1.814-2.291,1.814-2.387,1.91
	c-1.911,0.478-2.007,1.241-1.911,1.241c-0.668,0.765-2.196,0.954-2.388,0.954c-2.674-0.286-4.869,0.766-4.869,0.766
	c-1.433,0.093-2.293,0.476-2.389,0.573c-3.724,1.334-11.555,1.145-11.555,1.145c-1.91-0.097-2.005,0.287-1.91,0.383
	c-2.101,0.67-7.162-0.766-7.162-0.669c-2.101-0.285-3.819-1.338-3.819-1.338c-1.051-0.665-2.579-0.665-2.579-0.665
	c-3.629,0.189-2.195,3.915-2.195,3.818c0.571,1.813-1.816,2.959-1.816,2.959c-2.96,2.008-2.387,3.346-2.387,3.439
	c0,2.387-0.287,2.007-0.478,2.1c-0.667,1.052,0.097,1.625,0.19,1.528c0.287,0.669,0.478,1.147,0.478,1.241
	c0.096,1.053,1.338,2.104,1.434,2.104c0.572,0.762,0.572,1.048,0.572,0.952c0.573,0.766,1.05,2.101,1.05,2.101
	s0.573,1.818,0.669,1.818c1.146,1.431,0.859,2.004,0.859,2.004s1.433,3.915,1.527,7.066c0.097,0.098-0.19,0.763,0.861,1.911
	c0.096,0.094,0.954,0.956,0.954,0.956s1.338,0.286,2.77,1.432c0.096-0.098,0.572,0.097,0.956,0.669
	c0.189,0.093,1.718,1.242,1.718,1.242s0.286,0.572,1.242,0.669c0.096,0,2.864,0.858,0.859-0.767c0-0.097-2.006-2.673-4.585-4.201
	c-0.19-0.097-0.572-1.435-0.572-1.435s-0.096-4.391-1.911-6.874c-0.096-0.193-1.718-4.297-2.578-7.354
	c0,0.098,0.191-1.241-1.05-1.813c0-0.097-2.005-0.479-1.338-1.911c0,0.097-0.478-0.573,0.191-1.242c0.191,0,0.479-1.241,0.573-2.482
	c0,0-0.189-1.242,0.382-1.242c-0.095,0.192,0.573,0.669,0.287-1.146c0.096,0.098-0.858-0.858,0.573-0.766
	c0.19-0.093,0.667,0,1.051-0.189c0.19-0.097,1.432,0.286,1.432,0.286s0.86,0,0.381,1.146c0.096,0.192-0.858,0.956,0,1.721
	c0.096,0,0.192,0.573,0.957,0.287c0,0.097,1.336-1.052,2.577-1.722c-0.095,0,2.866-1.146,4.967,0.097
	c0.096,0.097-0.669,0.573,1.909,0.19c0-0.094,3.63-0.094,6.112-0.952c0-0.098,9.454-2.102,12.605-3.536
	c-0.095,0,0.956-0.477,2.675-0.286c0.095,0,1.049-0.287,1.049-0.287s0.86-0.669,3.535-0.762c0.286,0,0.955-0.29,0.955-0.29
	l0.764-0.093l0.955-0.384c0,0,1.146-0.383,2.388-0.571c0.095,0,0.572-0.098,1.146-0.477c0.19,0.093,0-0.29,0.86-0.383
	c0.095,0,0.763,0.189,0.858-0.956c0-0.19-0.954-3.057,1.337-3.821c0.096,0,1.051-0.477,1.051-0.477l0.764,0.096
	c0,0,4.104,0.286,4.012,1.05c0,0.096,0.383,0.478,0,2.006l0.189,1.24c0,0,0.857,3.151-0.189,5.538c0.094,0,0,1.149-0.859,2.483
	c0,0.192,0.094,1.052,0.094,1.052l-0.094,0.858c0,0,0.478,0.287,0.19,1.625l-0.287,1.048c0,0-0.188,2.294-1.241,3.725
	c0,0.098-0.381,1.149-0.381,2.673l-0.287,0.862l-2.388,3.532l-0.478,0.766l-1.051,0.951l-0.19,0.669c0,0-1.433,0.572-1.433,2.007
	c-0.096,0,0,0.573-1.146,0.669c0-0.097-2.578,0.952-4.583,3.057c0-0.098-1.527,2.192-3.343,2.862c0-0.093-1.434,0.669-1.434,0.669
	s-3.819,1.814-6.779,2.866c-0.096,0.093-1.338,0.956-2.675,1.621c0-0.093-0.573,0.097-1.909,0.956c-0.191,0-1.146,0.383-1.814,1.146
	l-1.434,0.575l-1.146,0.859l-1.91,0.669c0,0-1.718,1.242-2.864,2.29c-0.096-0.097-5.157,1.435-9.646,5.636
	c-0.096,0.19-2.578,2.771-4.201,3.628c0.096-0.097-2.102,1.048-0.287,1.625c0.096,0,0.191-0.479,0.765,0.189
	c0.096,0.097,0.19,0.383,0.859,0.286c0,0.097,1.91,0,0.189,0.858c0-0.097-0.478-0.097-1.336,1.149c-0.095,0-0.574,1.048-2.77,0.476
	c0,0-0.382-0.383-2.291-0.286c-0.097,0-3.535,0-3.535,0s-0.954,0.189-0.382-0.766c0,0,0-1.334,1.624-1.528
	c0,0.098,1.91,0.098,2.102-0.572c0-0.094,0.668-0.955-1.242-0.858c-0.096,0-1.432-0.097-2.482,0.572
	c-0.067,0.07-0.261,0.259-0.668,0.669c-0.191,0-1.434,1.625-1.434,1.625l-0.477,0.573l-0.574,0.188c0,0-1.528,2.197-0.189,2.197
	c0.189,0.097,3.438,0.097,3.438,0.097s3.915-0.955,5.155-0.286c0.192,0.094,1.242,0.094,2.102,0.189c0,0.097,0.478,0.097,1.72-0.477
	c0.096,0.094,2.197-1.241,5.252-1.625c-0.095-0.097,5.253-0.188,5.253-0.188s0.859,0.093,1.527-1.052
	c0.097-0.098,3.629-3.532,7.162-4.108c0.096,0.097,1.051,0.097,2.483-1.621l0.19-0.669l1.91-1.242c0,0-0.096,0.763,1.242-0.479
	c0-0.093,1.719-1.432,1.719-1.432s1.433-1.625,3.343-2.387c0.095,0,4.966-1.625,7.64-4.107l0.954-0.477l7.832-1.625
	c0,0,3.629-0.476,4.869-0.669c0-0.093,2.388-0.093,2.388-0.093l0.857,0.093l1.053-0.476l2.102-0.189l0.479-0.572
	c0,0,6.971-7.735,15.852-12.605c0.094,0,0.572-0.097,1.719-0.767c0,0,12.417-4.869,16.904-7.159
	c0.097,0.093,8.881-4.108,14.608-14.042c0.193,0,8.218-15.66,13.562-16.807c0.572,0,5.923-1.718,17.953-0.955
	c-0.189,0,9.36,0.573,12.228-6.875c0,0.19,3.435-8.595,10.312-7.259c0.383,0.191,20.246,5.731,29.986,5.539
	c0.383,0.192,16.234,0.192,24.83-11.651C342.037,33.119,345.669,27.771,344.142,22.806L344.142,22.806z"/>
<path fill="#FFFFFF" d="M11.078,66.719c0,0,2.388-0.954,1.338,0.765c0,0.097,0,0,0,0s-1.338,2.482-1.338,0.857
	C10.983,68.25,10.314,67.388,11.078,66.719L11.078,66.719z"/>
<path fill="#FFFFFF" d="M36.194,44.469c0.668-1.24,0.191-3.056,0.191-3.056l-0.287-0.858c0,0-0.668-0.479-0.859-0.479
	c-0.955-0.955-1.719-0.095-1.719-0.095s-0.096-0.097,0,0c-1.432,1.242-3.342,1.337-3.342,1.337l-1.051,0.477
	c0,0-0.573,0.956-0.573,1.146c-0.382,0.859-1.432,1.624-1.432,1.624s-0.478,1.242-0.573,1.146c-0.574,0.573-1.146,1.624-1.146,1.624
	l-0.382,0.765c0,0-0.191,0.764-0.382,0.668c-0.859,0.571-1.146,1.909-1.146,1.909s0.191,0.479-2.005,2.389
	c-0.19,0.095-1.624,1.719-1.624,1.719l-1.05,1.147l-1.146,1.336l-1.05,1.527c0,0-2.292,2.771-2.579,3.533
	c-0.095,0-0.573,0.574-0.573,0.574l-0.668,1.049l-0.382,0.764l-0.668,0.669c0,0,0.381,0.286,1.91-0.478
	c0.095,0,0.572-0.192,0.572-0.192s1.05-1.05,1.146-2.387c0,0.096,0.668-0.764,0.668-0.764l0.86-0.382c0,0,4.584-4.585,5.539-5.922
	c0.096,0,0.764-0.382,0.764-1.146c0-0.096-0.478-1.146,0.764-1.528c0.095-0.096,4.106-1.91,4.106-1.91
	C34.379,49.626,36.29,44.279,36.194,44.469L36.194,44.469z"/>
<path fill="#FFFFFF" d="M48.896,43.324c0,0-3.056,2.005-4.488,4.392c0,0.098-2.483,2.865,0.477,1.72
	c-0.095-0.097,0.287-0.286,1.529-0.383c0.095-0.095,0.572,0.191,1.718-1.432c0-0.095,1.433-2.388,1.433-2.388
	S52.62,41.414,48.896,43.324L48.896,43.324z"/>
<path fill="#FFFFFF" d="M28.745,52.777c0,0,4.107,0.287,0.287,1.91c0.095-0.19-0.764,0.191-1.433,0.669
	c-0.095-0.097-0.955,0.668-0.955,0.668s-0.574-0.191-1.91,1.241c0.096-0.097-3.056,3.533-4.583,3.533
	c-0.097-0.096-2.196,0.383,0-0.955c-0.097,0,4.488-2.96,4.87-5.348C25.021,54.401,27.408,52.491,28.745,52.777L28.745,52.777z"/>
<path fill="#FFFFFF" d="M162.508,106.24c0,0,0.764,0.576-2.292,1.814c0,0-0.573-0.477-1.337,0.479
	c-0.191-0.097-0.286-0.573-1.434,0.669c-0.096,0-1.335,1.717-3.15,1.911c0.095,0-2.864,0.379-4.107,1.717
	c0-0.097-1.336,1.146-2.96,2.673c-0.096-0.097-2.483,1.528-3.818,1.432c0-0.094-0.192,0.766-1.146,1.148
	c-0.097,0,0.571,0.383-0.956,1.146c0-0.098-2.578,3.151-9.454,2.482l-0.764,0.286l-0.19-1.145c0,0-0.287-0.193,1.146-1.053
	c0,0.098,0.954-1.145,2.292-1.625c0.095,0,2.578-1.62,2.578-1.62s0.286-0.286,1.528-0.479c0.191-0.093,1.241-0.379,2.388-1.335
	c-0.096,0-0.383-0.479,2.195-1.242c0.096,0,0.669-0.479,0.669-0.479s4.487-2.388,5.062-3.148c0.096-0.097,0.859-0.291,0.859-0.291
	l0.859-0.762c0,0,0.86-0.097,1.91-0.956c0,0,0.191-0.383,1.146-0.762c0-0.098,4.297-1.528,4.297-1.528s0-0.576,0.956-0.576
	C158.784,104.998,162.793,104.236,162.508,106.24L162.508,106.24z"/>
<path fill="#FFFFFF" d="M164.8,104.236c0,0,2.006-0.286,1.528,1.145c0-0.097-0.574,0.286-0.574,0.286S163.654,106.433,164.8,104.236
	L164.8,104.236z"/>
</svg>
