<?xml version="1.0" encoding="utf-8"?>
<!-- Generator: Adobe Illustrator 16.0.0, SVG Export Plug-In . SVG Version: 6.00 Build 0)  -->
<!DOCTYPE svg PUBLIC "-//W3C//DTD SVG 1.1//EN" "http://www.w3.org/Graphics/SVG/1.1/DTD/svg11.dtd">
<svg version="1.1" id="Layer_1" xmlns="http://www.w3.org/2000/svg" xmlns:xlink="http://www.w3.org/1999/xlink" x="0px" y="0px"
	 width="123.572px" height="173.92px" viewBox="0 0 123.572 173.92" enable-background="new 0 0 123.572 173.92"
	 xml:space="preserve">
<g>
	<path fill-rule="evenodd" clip-rule="evenodd" fill="#FAAB54" d="M61.958,171.448C19.08,171.536,7.515,125.945,7.441,86.89
		C7.417,74.018,5.248,2.148,61.445,2.038c56.197-0.11,54.656,72.132,54.684,85.008C116.2,126.101,104.833,171.364,61.958,171.448
		L61.958,171.448z"/>
	<path fill-rule="evenodd" clip-rule="evenodd" d="M90.229,67.22c-5.039-8.022-12.101-17.498-12.891-27.252
		c-0.496-6.119-0.137-12.958-4.254-18.012c-1.197-1.472-2.891-2.831-4.572-3.707c-1.795-0.934-4.108-1.526-6.14-1.526
		c-1.916,0-3.834,0.299-5.67,0.853c-2.165,0.652-4.316,1.424-6.564,1.741c-2.603,0.365-4.708,0.236-7.245-0.329
		c-1.518-0.338-1.931-0.467-3.449-0.793c-0.83-0.176-3.116-0.834-3.827-0.123c-1.705,1.703,1.928,3.776,3.004,4.557
		c2.371,1.723,3.369,2.292,5.621,4.246c3.058,2.651,5.487,5.811,6.418,9.769c0.269,1.146,0.354,2.298,0.369,3.474
		c0.221,17.088-28.292,33.861-27.895,64.117c0.138,10.697,5.852,12.465,5.776,6.521c-0.091-7.047,2.409-14.652,5.001-21.184
		c0.6-1.512,2.516-1.963,2.087,0.646c-0.684,4.152-2.372,11.312-2.219,23.011c0.037,2.816,0.205,5.661,0.612,8.45
		c0.329,2.25,0.813,4.481,1.474,6.66c0.553,1.828,1.254,3.608,2.154,5.293c0.709,1.329,1.53,2.6,2.5,3.752
		c0.957,1.14,1.986,1.97,3.139,2.879c0.67,0.526,1.421,0.995,1.742,1.837c0.468,1.227-1.1,1.726-1.925,2.101
		c-0.908,0.409-1.708,0.861-2.569,1.28c-1.234,0.604-2.451,1.239-3.65,1.909c-0.744,0.415-1.566,0.667-2.279,1.146
		c-0.705,0.473-1.062,1.225,0.031,1.403c0.507,0.084,1.046-0.054,1.556-0.077c0.866-0.036,1.779-0.156,2.607,0.167
		c1.121,0.438,1.062,1.509,1.109,2.552c0.053,1.131,0.835,1.49,1.825,1.219c1.165-0.321,1.975-1.213,2.868-1.969
		c0.646-0.549,1.361-1.125,2.126-1.502c1.54-0.764,3.377-0.515,5.032-0.425c0.916,0.048,2.217,0.431,2.961-0.315
		c0.761-0.76,0.217-2.079-0.12-2.908c-0.325-0.804-0.712-1.573-1.104-2.348c-0.18-0.354-0.437-0.665-0.597-1.029
		c-0.649-1.49,4.547-2.619,5.298-2.822c2.515-0.677,5.15-1.269,7.752-1.492c2.466-0.214,5.188-0.222,7.52,0.744
		c0.99,0.41,1.81,1.125,2.474,1.963c0.378,0.47,1.236,1.861,0.468,2.427c-1.194,0.87-2.43,1.636-3.597,2.55
		c-0.736,0.576-1.451,1.179-2.068,1.879c-0.469,0.532-0.595,1.46,0.356,1.408c1.254-0.056,2.514-0.132,3.771-0.14
		c0.897-0.004,1.864,0.122,2.627,0.637c1.238,0.842,1.505,2.633,2.89,3.321c0.396,0.195,0.865,0.191,1.284,0.065
		c0.916-0.275,1.334-1.227,1.822-1.957c0.451-0.676,0.909-1.324,1.634-1.726c0.448-0.245,0.96-0.347,1.469-0.347
		c0.919,0,1.849,0.021,2.768,0.125c0.725,0.084,1.718,0.419,2.357-0.075c1.222-0.939-1.98-3.036-2.618-3.435
		c-1.469-0.928-3.554-1.876-4.012-3.755c-0.533-2.202,0.56-4.494,1.479-6.437c0.975-2.055,2.301-3.945,3.061-6.104
		c0.7-1.986,1.232-4.052,1.525-6.14c1.607-11.45-1.047-23.619-4.389-34.546c-0.401-1.311-0.916-2.604-1.293-3.92
		c-0.58-2.059,1.418-2.552,2.438-0.535c0.979,1.93,7.382,14.238,9.255,23.398c1.185,5.828,5.574,6.062,5.451-4.295
		C102.819,89.104,97.153,78.249,90.229,67.22L90.229,67.22z"/>
	<path fill-rule="evenodd" clip-rule="evenodd" d="M61.635,0C2.48,0.12-0.025,73.904,0,87.455
		c0.076,41.108,16.827,86.558,61.96,86.465c45.131-0.087,61.689-45.881,61.611-86.988C123.548,73.38,120.79-0.117,61.635,0L61.635,0
		z M61.958,171.448C19.08,171.536,7.515,125.945,7.441,86.89C7.417,74.018,5.248,2.148,61.445,2.038
		c56.197-0.11,54.656,72.132,54.684,85.008C116.2,126.101,104.833,171.364,61.958,171.448L61.958,171.448z"/>
	<path fill-rule="evenodd" clip-rule="evenodd" fill="#FFFFFF" d="M84.939,112.383c0.78,7.554,1.615,20.588-7.601,21.024
		c-2.447,0.117-5.475-1.595-10.002-1.283c-7.684,0.523-9.965,3.461-16.243,2.334c-3.589-0.645-6.243-2.66-7.75-6.146
		c-1.711-3.956-1.872-8.444-2.136-12.687c-0.297-4.755-0.297-9.53-0.01-14.284c0.208-3.433,0.573-6.857,1.025-10.269
		c0.749-5.665,1.951-11.256,3.244-16.819c1.14-4.909,2.317-9.82,4.435-14.416c1.55-3.363,3.861-6.594,7.271-8.303
		c3.723-1.867,8.946-2.008,12.617-0.125c8.294,4.255,8.085,14.152,8.352,22.207c0.203,6.196,0.98,12.561,2.094,18.659
		C81.474,99.05,84.226,105.503,84.939,112.383L84.939,112.383z"/>
	<path fill-rule="evenodd" clip-rule="evenodd" fill="#FFFFFF" d="M71.519,29.358c1.696,1.99,1.601,10.2-1.179,13.051
		c-1.631,1.669-4.384,1.882-6.559,2.19c-2.414,0.341-4.753,0.876-7.121,1.46c-2.248,0.553-2.102-1.834,0.075-3.54
		c3.243-2.543,11.391-3.686,13.345-13.162C70.155,28.996,70.553,28.224,71.519,29.358L71.519,29.358z"/>
	<path fill-rule="evenodd" clip-rule="evenodd" fill="#FFFFFF" d="M59.71,31.51c2.275,1.478,5.523,0.523,7.25-2.134
		c1.724-2.657,1.277-6.011-1-7.492c-2.277-1.478-5.523-0.524-7.249,2.133C56.984,26.674,57.433,30.028,59.71,31.51L59.71,31.51z"/>
	<path fill-rule="evenodd" clip-rule="evenodd" d="M61.85,26.339c0.852-1.248,2.351-1.706,3.347-1.026
		c0.996,0.682,1.113,2.244,0.264,3.489c-0.85,1.248-2.347,1.706-3.345,1.026C61.119,29.146,61.001,27.584,61.85,26.339L61.85,26.339
		z"/>
</g>
</svg>
