<?xml version="1.0" encoding="utf-8"?>
<!-- Generator: Adobe Illustrator 16.0.0, SVG Export Plug-In . SVG Version: 6.00 Build 0)  -->
<!DOCTYPE svg PUBLIC "-//W3C//DTD SVG 1.1//EN" "http://www.w3.org/Graphics/SVG/1.1/DTD/svg11.dtd">
<svg version="1.1" id="Calque_1" xmlns="http://www.w3.org/2000/svg" xmlns:xlink="http://www.w3.org/1999/xlink" x="0px" y="0px"
	 width="136.098px" height="142.117px" viewBox="0 0 136.098 142.117" enable-background="new 0 0 136.098 142.117"
	 xml:space="preserve">
<g>
	<g>
		<g>
			<g>
				<g>
					<g>
						<path d="M135.778,131.287c-2.625-7.834-13.217-27.498-21.539-38.562c-1.801-2.411-1.127-3.65-0.164-4.432
							c0.957-0.78,4.057-3.457,7.721-7.648c3.703-4.236,4.597-9.021,1.978-15.947c-2.605-6.859-11.211-23.166-13.019-28.568
							c-2.071-6.228-2.28-8.999-1.03-12.394c1.471-3.995,3.616-4.165,5.235-4.139c0.869,0.017,1.519,0.933,1.521,1.353
							c0.045,1.762,0.135,3.936,1.852,8.488c2.746,7.247,9.785,11.98,12.006,12.936c1.548,0.668,1.824-0.529,1.689-1.108
							c-0.144-0.574-2.435-9.555-4.154-16.307c-1.797-7.074-2.703-8.608-4.301-10.107c-2.549-2.419-6.426-3.714-9.703-3.59
							c-7.311,0.285-10.543,7.35-10.94,8.005c-0.351,0.585-0.484,0.999-1.229,0.483c-2.09-1.461-8.197-6.558-8.758-9.753
							c-0.33-1.886-0.658-2.151-2.543-2.882c-7.338-2.862-13.694-5.38-20.728-6.622c-2.822-0.495-2.974-0.741-6.266-0.128
							C57.817,1.408,54.39,2.696,50.192,4.9c-2.317,1.224-2.586,2.047-3.035,2.63c-0.348,0.455-0.724,1.002-1.56,1.276
							c-1.396,0.454-6.581,2.386-8.361,3.42c-1.109,0.644-1.712,1.324-1.146,2.578c0.994,2.211,3.98,6.819,5.284,7.98
							c0.788,0.698,2.773,1.18,3.244,1.279c0.47,0.117,0.801,0.252,0.979-0.099c0.193-0.385,0.266-0.949,1.193-1.601
							c1.392-0.975,3.98-1.652,5.358-1.774c1.054-0.087,1.697-0.122,2.243,0.269c0.54,0.397,1.787,1.729,2.223,3.067
							c0.431,1.337,0.16,1.839-0.587,2.155c-0.751,0.312-3,0.823-5.604,1.034c-2.595,0.21-3.335-0.51-3.519-0.67
							c-0.136-0.146-0.48-0.37-0.744-0.02c-0.435,0.61-1.091,1.002-2.105,1.508c-0.578,0.278-0.887,0.892-0.339,1.847
							c1.655,2.86,3.835,6.072,5.855,6.686c1.609,0.5,2.472-0.027,4.283-1.32c1.616-1.17,2.669-1.163,3.113-0.836
							c0.484,0.366,1.464,1.194,1.212,2.018c-0.43,1.438-3.322,4.859-3.879,5.565c-0.521,0.667-1.016,1.023-1.95,0.575
							c-1.369-0.654-22.146-11.432-24.919-12.514c-3.024-1.161-5.014-1.445-7.99-1.582c-2.408-0.106-5.621,0.127-7.633,0.49
							c-1.466,0.271-2.302,0.967-3.667,2.229c-1.881,1.739-3.869,3.963-4.056,5.817c-0.135,1.332,1.351,4.054,1.511,4.244
							c0.164,0.205,0.436,0.579,1.241,0.491c0.82-0.092,2.876-1.159,5.329-0.735c2.225,0.385,2.448,2.131,2.563,3.47
							c0.018,0.23,0.298,0.749,0.926,0.74c0.886-0.012,2.271,0.017,3.869,0.782c1.974,0.936,5.875,3.959,6.473,4.629
							c0.487,0.545,0.456,1.039-0.471,1.129c-4.957,0.439-12.495,1.912-15.983,3.056C7.07,55.525,4.152,56.637,3.12,58.43
							c-1.171,2.031-2.649,5.294-3.072,7.622c-0.424,2.317,2.056,5.19,2.719,5.829c0.446,0.435,0.75,0.707,1.541,0.272
							c1.21-0.695,4.143-2.5,6.946-2.668c1.701-0.1,2.385,1.504,2.791,2.093c0.412,0.578,0.805,0.178,2.328-0.231
							c2.702-0.726,17.776-0.452,23.097-0.201c2.434,0.104,5.82,0.465,8.312,1.841c2.478,1.363,6.96,5.596,6.96,5.596
							s-5.955,9.985-9.16,15.903c-2.97,5.468-5.138,9.576-6.207,11.954c-0.983,2.176-1.785,5.264-1.607,7.693
							c0.268,3.556,0.36,5.381,0.316,6.99c-0.047,1.418-1.365,1.572-3.24,2.033c-2.583,0.657-7.729,1.131-11.903,2.157
							c-3.793,0.944-5.207,1.838-5.895,4.771c-0.527,2.281-1.312,7.955-1.404,10.584c-0.046,1.062-0.063,1.58,1.282,1.301
							c0.773-0.149,3.007-0.473,5.849-0.68c3.521-0.271,7.332-0.215,10.277-0.225c5.42-0.031,21.425,0.904,22.501,1.01
							c1.368,0.135,1.645-0.031,1.553-0.986c-0.13-1.262-0.36-5.282-0.416-7.682c-0.068-2.406-0.432-4.846,1.737-7.186
							c2.158-2.346,18.47-20.534,19.372-21.467c0.79-0.793,1.319-1.637,2.529-0.526c1.227,1.126,14.652,10.808,17.383,12.786
							c2.729,1.979,5.265,2.65,8.371,2.695c2.217,0.039,2.834,3.904,0.949,4.27c-1.937,0.369-4.883,0.975-6.941,1.445
							c-3.18,0.742-4.151,1.779-5.108,3.922c-0.816,1.809-1.715,10.693-1.746,11.461c-0.023,0.551-0.058,1.354,0.817,1.17
							c3.916-0.793,10.132-1.02,16.773-0.811c7.627,0.235,15.035,0.867,16.074,0.926c1.121,0.078,1.229-0.088,1.795-0.965
							c0.965-1.508,3.834-4.824,6.332-6.871C136.271,133.242,136.298,132.817,135.778,131.287z M106.479,77.562
							c-1.937,0.632-3.193,0.086-4.138-0.812c-0.946-0.902-8.643-10.164-11.116-12.995c-1.246-1.43-2.181-4.688,1.571-6.076
							c3.08-1.12,8.599-2.892,10.132-3.7c1.532-0.809,2.34-1.641,2.483-3.21c0.121-1.58,0.137-3.35,0.146-3.94
							c0.01-0.595,0.778-1.07,1.174-0.373c0.271,0.495,1.653,3.191,3.338,6.305c2.52,4.68,5.697,10.533,6.731,13.048
							c0.978,2.401,0.498,4.233-0.991,6.08C113.79,74.386,107.897,77.098,106.479,77.562z"/>
					</g>
				</g>
				
					<linearGradient id="SVGID_1_" gradientUnits="userSpaceOnUse" x1="79.49" y1="87.9478" x2="37.0975" y2="23.0187" gradientTransform="matrix(1 0 0 -1 54 107.1162)">
					<stop  offset="0.2033" style="stop-color:#D1D3D4"/>
					<stop  offset="0.2274" style="stop-color:#B2B4B6"/>
					<stop  offset="0.2583" style="stop-color:#929496"/>
					<stop  offset="0.2885" style="stop-color:#7A7B7E"/>
					<stop  offset="0.3174" style="stop-color:#68696B"/>
					<stop  offset="0.3446" style="stop-color:#5C5D5F"/>
					<stop  offset="0.3681" style="stop-color:#58595B"/>
					<stop  offset="0.4381" style="stop-color:#5D5E60"/>
					<stop  offset="0.5311" style="stop-color:#6B6C6F"/>
					<stop  offset="0.637" style="stop-color:#808284"/>
					<stop  offset="0.7516" style="stop-color:#9C9FA1"/>
					<stop  offset="0.8132" style="stop-color:#AFB1B4"/>
					<stop  offset="1" style="stop-color:#000000"/>
				</linearGradient>
				<path fill="url(#SVGID_1_)" d="M114.421,12.703c-0.016-0.005-0.039-0.005-0.071,0c-6.004-0.03-12.091,6.935-10.931,17.311
					c0.722,6.354,1.689,9.25,3.57,13.358c0.938,2.025,11.188,21.543,11.662,23.611c0.639,2.954,0.072,4.804-2.193,6.869
					c-2.51,2.267-6.658,4.842-9.455,5.806c-0.666,0.227-1.274,0.34-1.823,0.34c-0.638,0-2.22-0.219-5.22-3.912l13.248,17.678
					c-1.692-2.262-2.563-3.971-2.258-5.467c0.301-1.476,2.717-3.086,5.49-5.271c2.783-2.16,5.856-4.891,7.27-8.58
					c0.41-1.051,0.59-2.143,0.59-3.282c0-3.524-1.709-7.516-3.762-11.843c-2.647-5.614-10.158-17.863-12.442-26.449
					c-0.556-2.107-0.808-4.002-0.808-5.685c0-4.868,2.074-7.954,4.605-9.002c1.213-0.491,2.305-0.659,3.207-0.659
					c1.395,0,2.362,0.39,2.762,0.598c0.707,0.402,0.812,1.25,0.812,1.918c0,0.046,0,0.095,0,0.148
					c-0.006,0.15-0.022,0.513-0.022,1.048c0,2.004,0.268,6.403,2.6,10.676c2.947,5.421,7.894,8.45,9.838,9.266
					c0.17,0.071-4.551-17.411-5.395-20.705C124.712,16.63,122.003,12.78,114.421,12.703z"/>
				
					<linearGradient id="SVGID_2_" gradientUnits="userSpaceOnUse" x1="-39.5842" y1="40.8174" x2="-31.9033" y2="58.4092" gradientTransform="matrix(1 0 0 -1 54 107.1162)">
					<stop  offset="0.031" style="stop-color:#B1B3B6"/>
					<stop  offset="0.2" style="stop-color:#B1B3B6"/>
					<stop  offset="0.9897" style="stop-color:#6D6E71"/>
				</linearGradient>
				<path fill="url(#SVGID_2_)" d="M31.911,51.542c1.158,1.157-0.854,1.092-6.96,1.622c-6.223,0.541-12.485,1.796-15.76,3.026
					c-2.397,0.903-3.849,1.541-4.808,3.742c0,0-1.992,4.328-2.258,6.038c-0.13,0.811-0.088,1.276,0.338,1.953
					c0.232,0.364,0.807-11.281,15.833-12.048c13.3-0.678,16.572-2.074,13.975-4.614L31.911,51.542z"/>
				
					<linearGradient id="SVGID_3_" gradientUnits="userSpaceOnUse" x1="65.3108" y1="83.0767" x2="55.8469" y2="83.972" gradientTransform="matrix(1 0 0 -1 54 107.1162)">
					<stop  offset="0.1966" style="stop-color:#58595B"/>
					<stop  offset="0.2597" style="stop-color:#5A5B5D"/>
					<stop  offset="0.2825" style="stop-color:#5F6163"/>
					<stop  offset="0.2987" style="stop-color:#696A6D"/>
					<stop  offset="0.3118" style="stop-color:#76787A"/>
					<stop  offset="0.323" style="stop-color:#86888B"/>
					<stop  offset="0.333" style="stop-color:#9B9DA0"/>
					<stop  offset="0.342" style="stop-color:#B5B7B9"/>
					<stop  offset="0.3503" style="stop-color:#D4D6D7"/>
					<stop  offset="0.3576" style="stop-color:#F7F7F8"/>
					<stop  offset="0.3586" style="stop-color:#FFFFFF"/>
					<stop  offset="0.8241" style="stop-color:#58595B"/>
					<stop  offset="1" style="stop-color:#414042"/>
				</linearGradient>
				<path fill="url(#SVGID_3_)" d="M108.056,27.636c0,0,0.286-3.044,0.823-4.478c1.334-3.877,3.82-4.683,5.533-4.683
					c1.135,0,1.656,0.272,2.146,0.788c0.375,0.411,0.629,0.792,0.674,1.376c0.045,1.731,0.11,3.72,1.793,8.206
					c0.104,0.273,0.209,0.543,0.324,0.806c-1.425-3.624-1.601-6.988-1.601-8.706c-0.004-0.551,0.023-1.189,0.023-1.194
					c0.008-1.312-1.441-1.697-2.74-1.693c-0.812,0-1.789,0.145-2.891,0.601c-2.097,0.85-4.021,3.478-4.109,7.955L108.056,27.636z"/>
				
					<linearGradient id="SVGID_4_" gradientUnits="userSpaceOnUse" x1="-19.8279" y1="31.521" x2="-12.0428" y2="49.3515" gradientTransform="matrix(1 0 0 -1 54 107.1162)">
					<stop  offset="0" style="stop-color:#D1D3D4"/>
					<stop  offset="0.1219" style="stop-color:#C1C3C5"/>
					<stop  offset="0.2537" style="stop-color:#B5B7BA"/>
					<stop  offset="0.3681" style="stop-color:#B1B3B6"/>
					<stop  offset="0.9897" style="stop-color:#000000"/>
				</linearGradient>
				<path fill="url(#SVGID_4_)" d="M32.435,52.049c0.453,1.228-1.34,0.939-7.448,1.47c-6.221,0.54-12.489,1.745-15.764,2.975
					c-2.402,0.904-3.85,1.541-4.81,3.743c0,0-1.994,4.332-2.263,6.043c-0.126,0.806,0.074,1.276,0.498,1.952
					c0.64,1.006,1.047,1.223,1.977,0.688c0.755-0.433,4.08-2.316,6.257-2.356c1.99-0.046,2.859,1.167,3.153,2.202
					c0.179,0.645,1.056,0.312,1.205,0.273c0.872-0.221,1.722-0.481,4.827-0.708c3.691-0.272,18.099-0.147,23.386-0.024
					c4.755,0.11,23.484,14.808,23.764,14.879l0.943-1.899c-6.362-5.259-30.001-24.001-35.718-29.591L32.435,52.049z"/>
				
					<linearGradient id="SVGID_5_" gradientUnits="userSpaceOnUse" x1="55.9109" y1="-52.5337" x2="-83.1672" y2="88.9531" gradientTransform="matrix(1 0 0 -1 54 107.1162)">
					<stop  offset="0.0769" style="stop-color:#939598"/>
					<stop  offset="0.1209" style="stop-color:#9D9FA2"/>
					<stop  offset="0.1703" style="stop-color:#808285"/>
					<stop  offset="0.3077" style="stop-color:#939598"/>
					<stop  offset="0.4725" style="stop-color:#F1F2F2"/>
					<stop  offset="0.6978" style="stop-color:#F1F2F2"/>
					<stop  offset="0.7209" style="stop-color:#E4E5E6"/>
					<stop  offset="0.7655" style="stop-color:#C3C5C7"/>
					<stop  offset="0.8268" style="stop-color:#909294"/>
					<stop  offset="0.8407" style="stop-color:#848689"/>
					<stop  offset="0.9615" style="stop-color:#58595B"/>
				</linearGradient>
				<path fill="url(#SVGID_5_)" d="M86.407,63.66c2.85,3.424,11.338,13.732,18.605,23.046
					c11.336,14.519,18.329,25.889,25.688,42.641c0.734,1.668,0.178,1.852-0.99,2.793c-2.256,1.832-1.78,2.572-3.459,5.469
					c-0.188,0.332-0.621,0.869-1.151,0.82c-1.554-0.121-13.604-1.143-21.525-0.861c-4.703,0.158-5.922,0.504-6.961,0.748
					c-0.84,0.209-1.127,0.121-1.107-0.975c0.019-0.42,0.9-5.375,1.582-7.199c0.675-1.812,1.734-2.521,3.318-2.955
					c1.572-0.436,6.041-1.264,7.848-1.713c1.816-0.449,1.894-2.176,1.726-3.477s-1.201-3.047-2.386-3.262
					c-1.569-0.273-2.639-0.505-4.389-1.27c-1.719-0.771-26.327-20.59-28.577-22.416c-0.569-0.475-1.018-0.813-1.193-0.604
					c-0.185,0.208,0.29,0.8,0.504,1.034c0.421,0.439,4.136,4.273,4.949,5.059c0.59,0.569,0.278,0.851-0.014,1.139
					c-0.437,0.398-12.08,11.88-16.907,16.888c-4.816,4.991-8.292,7.92-8.252,11.908c0.048,3.995,0.217,7.12,0.229,7.812
					c0.006,0.6-0.617,0.592-1.135,0.545c-1.499-0.135-13.053-1.274-19.538-1.412c-6.479-0.129-11.186,0.488-14.229,1.252
					c-0.721,0.183-0.939-0.246-0.896-0.864c0.064-1.007,0.777-5.123,1.66-7.8c0.613-1.848,1.949-2.571,3.543-2.957
					c2.113-0.516,10.417-2.012,14.15-2.588c2.036-0.326,2.456-1.015,2.435-2.727c-0.029-1.749-0.229-5.473-0.32-7.342
					c-0.092-1.859,0.505-3.924,1.194-5.564c2.948-6.91,10.188-21.49,16.474-30.177c0.718-1.004,1.451-1.177,2.148-1.003
					c0.825,0.204,4.602,3.168,4.909,3.318c0.661,0.338,1.543,0.035,1.136-0.373c-2.194-2.198-8.849-6.243-12.9-9.47
					c-8.019-6.397-16.378-15.688-23.103-21.893c-3.473-3.191-7.192-5.55-9.955-6.156c-0.984-0.219-1.907-0.219-2.754-0.337
					c-0.414-0.061-0.481-0.421-0.483-0.608c-0.025-0.43,0.031-1.252-0.824-2.246c-0.64-0.729-2.029-0.973-2.996-0.987
					c-1.356-0.041-3.599,0.252-4.857,0.594c-0.621,0.173-0.919,0.045-1.144-0.223c-0.209-0.249-0.566-1.052-0.688-1.816
					c-0.081-0.537,0.079-0.949,0.393-1.541c0.818-1.566,2.93-3.105,4.148-4.236c1.235-1.154,2.036-1.209,3.213-1.357
					c2.825-0.343,6.58-0.574,10.392,0.291c2.788,0.628,4.992,1.733,7.724,3.079c2.723,1.354,18.539,9.447,20.564,10.409
					L86.407,63.66z"/>
				
					<radialGradient id="SVGID_6_" cx="-4.2722" cy="70.4937" r="31.7156" gradientTransform="matrix(1 0 0 -1 54 107.1162)" gradientUnits="userSpaceOnUse">
					<stop  offset="0.0357" style="stop-color:#FFFFFF"/>
					<stop  offset="0.467" style="stop-color:#FFFFFF"/>
					<stop  offset="0.5179" style="stop-color:#F9F9F9"/>
					<stop  offset="0.5707" style="stop-color:#EEEEEF"/>
					<stop  offset="0.6243" style="stop-color:#DCDEDF"/>
					<stop  offset="0.6785" style="stop-color:#C4C6C8"/>
					<stop  offset="0.7326" style="stop-color:#A6A8AB"/>
					<stop  offset="0.7473" style="stop-color:#9D9FA2"/>
					<stop  offset="0.8462" style="stop-color:#808285"/>
					<stop  offset="1" style="stop-color:#58595B"/>
				</radialGradient>
				<path fill="url(#SVGID_6_)" d="M60.133,34.871c0.31,1.969-0.957,3.256-1.724,4.472c-0.752,1.19-2.297,2.967-3.09,3.959
					c-1.006,1.276-2.935,0.886-2.935,0.886s9.109,4.631,14.353,7.266c2.079,1.05,5.337,0.075,7.549-4.069
					c0.518-0.96,3.797-7.896,4.612-9.959c0.82-2.059,1.986-4.348,0.115-8.277c-1.881-3.922-7.699-11.169-10.015-13.95
					c-1.214-1.454-2.646-2.343-5.716-2.51c-3.031-0.164-6.794,0.281-11.631,1.585c-4.922,1.325-11.214,3.89-11.44,4.018
					c-0.133,0.088-0.111,0.209-0.046,0.359c0.061,0.133,0.719,1.271,0.719,1.271s0.329,0.774,1.278,1.308
					c0.942,0.53,1.867,0.756,2.107,0.81c0.243,0.052,0.354-0.051,0.439-0.18c0.074-0.11,1.002-1.885,4.405-2.768
					c1.843-0.467,3.016-0.522,3.585-0.521c0.887,0.021,2.262,0.458,3.023,1.206c1.247,1.226,2.338,3.258,2.524,4.232
					c0.201,0.944,0.043,2.12-0.897,2.61c-0.942,0.482-3.695,1.135-5.419,1.306c-1.792,0.175-3.531,0.09-4.564-0.505
					c-0.162-0.09-0.281-0.106-0.438,0.018c-0.392,0.325-0.624,0.59-1.391,1.044c-0.171,0.098-0.281,0.314-0.113,0.645
					c0.162,0.328,2.322,3.911,3.629,4.871c1.301,0.977,1.994,0.538,3.552-0.324c1.563-0.861,2.62-1.918,4.236-1.866
					C58.487,31.854,59.877,33.248,60.133,34.871z"/>
				
					<radialGradient id="SVGID_7_" cx="2.845" cy="52.0981" r="11.1954" gradientTransform="matrix(1 0 0 -0.9636 54 80.4251)" gradientUnits="userSpaceOnUse">
					<stop  offset="0.0357" style="stop-color:#FFFFFF"/>
					<stop  offset="0.2276" style="stop-color:#FFFFFF"/>
					<stop  offset="0.2932" style="stop-color:#F4F4F5"/>
					<stop  offset="0.4021" style="stop-color:#DFE0E1"/>
					<stop  offset="0.5409" style="stop-color:#BCBEC0"/>
					<stop  offset="0.7042" style="stop-color:#8F9193"/>
					<stop  offset="0.886" style="stop-color:#565759"/>
					<stop  offset="1" style="stop-color:#000000"/>
				</radialGradient>
				<path opacity="0.85" fill="url(#SVGID_7_)" enable-background="new    " d="M57.217,26.977c-0.92,0.444-3.619,1.047-5.309,1.205
					c-1.756,0.162-3.459,0.083-4.471-0.465c-0.16-0.083-0.276-0.099-0.428,0.016c-0.387,0.301-0.613,0.546-1.363,0.964
					c-0.168,0.09-0.276,0.29-0.111,0.594c0.159,0.304,2.107,3.577,3.435,4.517c1.324,0.956,2.029,0.527,3.612-0.317
					c1.59-0.844,2.661-1.879,4.306-1.828L57.217,26.977z"/>
				
					<radialGradient id="SVGID_8_" cx="-4.1536" cy="94.478" r="13.1726" gradientTransform="matrix(1 0 0 -1 54 107.1162)" gradientUnits="userSpaceOnUse">
					<stop  offset="0.2308" style="stop-color:#FFFFFF"/>
					<stop  offset="0.5714" style="stop-color:#F3F4F4"/>
					<stop  offset="0.8626" style="stop-color:#000000"/>
				</radialGradient>
				<path opacity="0.85" fill="url(#SVGID_8_)" enable-background="new    " d="M51.406,14.806
					c-4.674,1.204-10.649,3.533-10.866,3.649c-0.124,0.08-0.104,0.333-0.042,0.469c0.058,0.121,0.684,1.155,0.684,1.155
					s0.312,0.703,1.214,1.187c0.895,0.48,1.637,0.718,1.877,0.772c0.243,0.052,0.354-0.051,0.439-0.18
					c0.074-0.11,1.002-1.885,4.405-2.768c1.843-0.467,3.016-0.522,3.585-0.521L51.406,14.806z"/>
				
					<radialGradient id="SVGID_9_" cx="17.9114" cy="68.7788" r="44.3584" gradientTransform="matrix(1 0 0 -1 54 107.1162)" gradientUnits="userSpaceOnUse">
					<stop  offset="0.0357" style="stop-color:#FFFFFF"/>
					<stop  offset="0.2527" style="stop-color:#FFFFFF"/>
					<stop  offset="0.2708" style="stop-color:#F9F9F9"/>
					<stop  offset="0.2894" style="stop-color:#EEEEEF"/>
					<stop  offset="0.3084" style="stop-color:#DDDEDF"/>
					<stop  offset="0.3275" style="stop-color:#C5C6C8"/>
					<stop  offset="0.3462" style="stop-color:#A7A9AC"/>
					<stop  offset="0.4121" style="stop-color:#808285"/>
					<stop  offset="0.4725" style="stop-color:#58595B"/>
					<stop  offset="0.8571" style="stop-color:#58595B"/>
				</radialGradient>
				<path opacity="0.85" fill="url(#SVGID_9_)" enable-background="new    " d="M60.165,35.151c0.311,1.969-0.957,3.391-1.723,4.604
					c-0.752,1.19-2.299,2.968-3.089,3.96c-1.008,1.276-2.479,0.722-2.479,0.722s8.62,4.382,13.862,7.017
					c2.078,1.05,5.217,0.334,7.428-3.81c0.517-0.961,3.799-7.897,4.609-9.958L60.165,35.151z"/>
				<g>
					
						<linearGradient id="SVGID_10_" gradientUnits="userSpaceOnUse" x1="-13.0789" y1="43.5396" x2="-34.7959" y2="38.1103" gradientTransform="matrix(1 0 0 -1 54 107.1162)">
						<stop  offset="0" style="stop-color:#F1F2F2"/>
						<stop  offset="0.0806" style="stop-color:#DFE1E2"/>
						<stop  offset="0.2582" style="stop-color:#BCBEC0"/>
						<stop  offset="0.2996" style="stop-color:#CCCECF"/>
						<stop  offset="0.3578" style="stop-color:#DCDEDF"/>
						<stop  offset="0.4245" style="stop-color:#E8E9EA"/>
						<stop  offset="0.5065" style="stop-color:#EFF0F0"/>
						<stop  offset="0.6484" style="stop-color:#F1F2F2"/>
						<stop  offset="0.8956" style="stop-color:#FFFFFF"/>
					</linearGradient>
					<path fill="url(#SVGID_10_)" d="M17.239,67.583c-0.4-0.16-0.408-0.636,0.131-1.201c0.312-0.333,2.693-2.274,4.131-2.61
						c1.479-0.335,6.658-0.812,8.863-0.938c0.622-0.032,8.635-0.748,9.374-0.714c0.729,0.033,2.558,2.886,4.716,5.233
						c-0.25,0.02-7.229-0.134-13.152-0.12c-5.599,0.011-10.537,0.165-12.354,0.318C18.333,67.604,17.582,67.718,17.239,67.583z"/>
					<path fill="#848689" d="M17.198,67.684l0.041-0.101L17.198,67.684c-0.219-0.084-0.359-0.279-0.355-0.509l0,0
						c0.002-0.26,0.152-0.554,0.449-0.866l0,0c0.335-0.354,2.693-2.285,4.186-2.643l0,0c1.496-0.338,6.67-0.813,8.881-0.94l0,0
						c0.604-0.032,8.267-0.716,9.317-0.717l0,0c0.025,0,0.049,0,0.067,0.002l0,0c0.247,0.02,0.496,0.222,0.812,0.533l0,0
						c0.312,0.314,0.679,0.75,1.089,1.256l0,0c0.818,1.013,1.812,2.312,2.889,3.48l0,0l0.151,0.165l-0.225,0.016
						c-0.021,0.001-0.059,0.001-0.119,0.001l0,0c-0.912,0-6.867-0.123-12.249-0.123l0,0c-0.266,0-0.527,0.001-0.79,0.002l0,0
						c-5.598,0.01-10.535,0.165-12.346,0.317l0,0c-0.397,0.035-0.858,0.097-1.235,0.097l0,0
						C17.52,67.754,17.342,67.738,17.198,67.684L17.198,67.684z M17.721,67.538c0.354,0,0.812-0.059,1.218-0.095l0,0
						c1.824-0.155,6.762-0.309,12.362-0.318l0,0c0.263-0.001,0.525-0.001,0.791-0.001l0,0c5.17,0,10.871,0.112,12.117,0.122l0,0
						c-1.556-1.725-2.929-3.667-3.808-4.549l0,0c-0.299-0.307-0.553-0.472-0.67-0.471l0,0c-0.015-0.001-0.032-0.001-0.058-0.001l0,0
						c-1.021,0-8.694,0.684-9.306,0.715l0,0c-2.198,0.126-7.388,0.604-8.846,0.937l0,0c-1.385,0.315-3.788,2.265-4.076,2.58l0,0
						c-0.276,0.288-0.391,0.547-0.39,0.718l0,0c0.004,0.149,0.065,0.24,0.221,0.307l0,0l0,0
						C17.374,67.521,17.533,67.539,17.721,67.538L17.721,67.538z"/>
				</g>
				<g>
					<g>
						
							<linearGradient id="SVGID_11_" gradientUnits="userSpaceOnUse" x1="1131.7498" y1="-672.3867" x2="1358.4607" y2="-948.6033" gradientTransform="matrix(0.4383 0 0 -0.4383 -456.092 -285.6044)">
							<stop  offset="0" style="stop-color:#FFFFFF"/>
							<stop  offset="0.069" style="stop-color:#E0E1E2"/>
							<stop  offset="0.1565" style="stop-color:#FFFFFF"/>
							<stop  offset="0.2033" style="stop-color:#FFFFFF"/>
							<stop  offset="0.2785" style="stop-color:#E0E1E2"/>
							<stop  offset="0.3297" style="stop-color:#D1D3D4"/>
							<stop  offset="0.3357" style="stop-color:#D6D7D8"/>
							<stop  offset="0.3647" style="stop-color:#E6E7E8"/>
							<stop  offset="0.3976" style="stop-color:#F3F3F3"/>
							<stop  offset="0.4372" style="stop-color:#FBFBFB"/>
							<stop  offset="0.502" style="stop-color:#FFFFFF"/>
							<stop  offset="0.8852" style="stop-color:#FFFFFF"/>
							<stop  offset="0.9797" style="stop-color:#BABCBE"/>
						</linearGradient>
						<path fill="url(#SVGID_11_)" d="M132.671,130.024c-2.424-6.103-9.268-19.342-18.641-33.106
							c-9.199-13.543-24.797-31.884-26.951-34.933c-2.108-2.984-2.934-6.343,1.461-7.732c2.869-0.913,9.779-2.341,12.607-3.133
							c2.752-0.755,2.951-1.648,3.182-3.776c0.234-2.302-0.395-13.472-1.781-20.129c-0.289-1.381-1.217-2.534-2.323-3.32
							c-0.98-0.686-4.777-3.993-6.877-6.391c-2.408-2.751-3.502-5.345-3.896-7.34c0,0-0.07-0.427-0.541-0.876
							c-0.177-0.186-0.312-0.273-0.609-0.445c-4.133-2.544-18.741-6.542-21.727-6.799c-2.039-0.182-9.27,0.744-15.86,4.705
							c-1.934,1.173-2.019,2.615-3.374,3.398c-1.346,0.786-4.444,1.492-7.699,2.951c-1.801,0.798-1.807,0.933-1.378,1.945
							c0.168,0.424,1.339,2.552,1.933,2.552c0.586,0.019,1.299-0.287,2.02-0.577c0.964-0.379,7.384-2.866,12.48-3.952
							c5.681-1.218,11.785-1.32,13.953,0.972c3.3,3.493,9.091,11.319,10.844,14.715c1.729,3.358,1.552,4.989,0.405,8.434
							c-1.057,3.185-5.06,11.459-6.236,13.176c-1.184,1.715-2.614,2.667-6.037,1.268c-3.673-1.511-17.195-8.447-20.137-9.932
							c-1.991-1.005-10.349-5.236-16.673-8.408c-2.335-1.172-4.265-2.023-6.363-2.556c-4.648-1.181-9.646-0.649-11.952-0.269
							c-1.049,0.174-1.707,1.865-1.658,2.549c0.068,0.854,2.521,0.246,4.56,0.392c1.646,0.113,7.283,0.725,10.538,2.041
							c3.434,1.391,20.632,10.654,24.974,12.99c33.085,18.003,47.243,29.59,72.812,72.558c1.141,1.92,1.69,4.276-0.115,4.813
							c-2.617,0.763-13.525,2.84-16.822,3.922c-2.772,0.912-3.143,1.131-3.549,2.502c-0.455,1.565-1.156,4.668-0.988,5.293
							c0.07,0.257-0.147,0.589,0.416,0.589c3.066,0,14.07,0.014,22.549,0.815c1.021,0.104,1.076,0.077,1.724-0.897
							c0.74-1.14,3.674-4.496,5.604-5.921C133.349,131.509,132.806,130.388,132.671,130.024z"/>
					</g>
				</g>
				
					<linearGradient id="SVGID_12_" gradientUnits="userSpaceOnUse" x1="-39.3899" y1="74.6187" x2="62.2806" y2="-21.9471" gradientTransform="matrix(1 0 0 -1 54 107.1162)">
					<stop  offset="0" style="stop-color:#DCDDDE"/>
					<stop  offset="0.043" style="stop-color:#CACCCE"/>
					<stop  offset="0.1571" style="stop-color:#A0A2A5"/>
					<stop  offset="0.2643" style="stop-color:#828486"/>
					<stop  offset="0.3616" style="stop-color:#6C6D70"/>
					<stop  offset="0.4457" style="stop-color:#5D5E61"/>
					<stop  offset="0.5069" style="stop-color:#58595B"/>
					<stop  offset="0.5726" style="stop-color:#5C5D60"/>
					<stop  offset="0.6507" style="stop-color:#686A6C"/>
					<stop  offset="0.735" style="stop-color:#7B7C7F"/>
					<stop  offset="0.8238" style="stop-color:#939698"/>
					<stop  offset="0.915" style="stop-color:#B5B7B9"/>
					<stop  offset="1" style="stop-color:#DCDDDE"/>
				</linearGradient>
				<path fill="url(#SVGID_12_)" d="M124.888,123.658c-0.177-1.746-1.773-4.339-4.621-8.793
					c-2.861-4.486-6.459-10.613-11.246-17.392c-8.502-12.036-16.873-21.435-27.273-29.663c-7.682-6.072-15.734-10.943-21.648-14.405
					C54.188,49.941,29.23,36.29,25.36,35.076c-3.521-1.103-6.316-1.462-8.814-1.716c-1.703-0.173-3.126-0.048-4.636-0.048
					c-1.431,0-0.927-1.16-0.727-1.62c-0.149,0.328-1.005,1.926,0.403,1.926c1.023,0,3.41-0.08,5.013,0.099
					c3.08,0.337,6.968,1.191,9.413,2.134c3.47,1.35,19.761,11.065,23.974,13.418c12.688,7.192,22.339,13.803,31.392,21.098
					c13.845,11.151,25.791,24.079,40.771,50.314c0.588,1.02,0.906,1.798,0.906,2.746c0.055,1.467-1.209,1.996-1.636,2.113
					c-2.578,0.774-13.151,3.158-16.285,4.237c-2.657,0.938-3.151,1.527-3.53,2.759c-0.142,0.516-0.595,3.01-1.117,3.676
					c-0.521,0.68-1.742,0.822-3.039,0.822c-0.799,0-1.193,0.043-1.113-0.843c0.078-0.887,0.603-3.284,0.902-4.664
					c0.299-1.385,0.873-2.42,2.133-3.18c1.262-0.771,5.646-1.479,8.113-2.087c2.461-0.604,2.598-1.747,2.553-3.605
					c0,1.973-0.686,2.448-3.158,3.004c-2.512,0.561-6.735,1.104-8.125,2.053c-1.346,0.918-1.871,2.201-2.116,3.213
					c-0.847,3.506-1.419,6.074-1.322,6.932c0.082,0.768,0.387,0.875,1.24,0.779c0.852-0.1,2.979-0.396,6.168-0.518
					c0.942,0,0.881-1.146,0.864-2.41c0-0.461,0.025-1.826,0.263-2.498c0.233-0.664,0.739-1.277,1.549-1.521
					c1.771-0.553,11.598-3.205,16.59-4.693C124.175,126.345,125.089,125.651,124.888,123.658z"/>
				
					<linearGradient id="SVGID_13_" gradientUnits="userSpaceOnUse" x1="9.6072" y1="27.8882" x2="-30.0112" y2="-31.3412" gradientTransform="matrix(1 0 0 -1 54 107.1162)">
					<stop  offset="0" style="stop-color:#C7C8CA"/>
					<stop  offset="0.1" style="stop-color:#FFFFFF"/>
					<stop  offset="0.3492" style="stop-color:#EDEDEE"/>
					<stop  offset="0.4228" style="stop-color:#F4F4F5"/>
					<stop  offset="0.5385" style="stop-color:#FFFFFF"/>
					<stop  offset="0.5442" style="stop-color:#F2F3F3"/>
					<stop  offset="0.5799" style="stop-color:#BCBEC0"/>
					<stop  offset="0.6139" style="stop-color:#909395"/>
					<stop  offset="0.6453" style="stop-color:#717275"/>
					<stop  offset="0.6735" style="stop-color:#58595B"/>
					<stop  offset="0.6974" style="stop-color:#474749"/>
					<stop  offset="0.7143" style="stop-color:#414042"/>
					<stop  offset="0.7229" style="stop-color:#5C5D5F"/>
					<stop  offset="0.7398" style="stop-color:#848689"/>
					<stop  offset="0.757" style="stop-color:#A7A9AC"/>
					<stop  offset="0.7741" style="stop-color:#C5C7C9"/>
					<stop  offset="0.7912" style="stop-color:#DDDEDF"/>
					<stop  offset="0.8081" style="stop-color:#EEEFEF"/>
					<stop  offset="0.8249" style="stop-color:#F9F9FA"/>
					<stop  offset="0.8414" style="stop-color:#FFFFFF"/>
					<stop  offset="0.85" style="stop-color:#F8F9F9"/>
					<stop  offset="0.8597" style="stop-color:#EDEDEE"/>
					<stop  offset="0.87" style="stop-color:#DADBDC"/>
					<stop  offset="0.8806" style="stop-color:#BFC1C3"/>
					<stop  offset="0.8915" style="stop-color:#9FA1A3"/>
					<stop  offset="0.9025" style="stop-color:#7A7C7E"/>
					<stop  offset="0.9103" style="stop-color:#5A5B5D"/>
					<stop  offset="0.9451" style="stop-color:#5A5B5D"/>
					<stop  offset="1" style="stop-color:#8A8C8E"/>
				</linearGradient>
				<path fill="url(#SVGID_13_)" d="M59.314,77.609c0.684,0.217,1.919,1.102,2.897,1.816C62.999,80,63.62,80.46,63.62,80.46
					c-6.623,8.271-16.437,22.555-19.594,28.592c-1.637,3.141-1.604,4.439-1.559,7.349c0.046,2.774,0.374,6.188,0.193,7.784
					c-0.175,1.611-1.205,2.301-2.813,2.746c-1.608,0.441-11.127,1.973-13.232,2.594c-2.102,0.621-2.582,1.801-2.936,3.32
					c-0.358,1.52-0.482,2.508-0.655,3.096c-0.189,0.654-0.063,1.113-0.686,1.158c-0.594,0.043-2.059,0.172-2.742,0.27
					c-0.691,0.092-0.785-0.055-0.768-0.793c0.027-0.756,0.713-4.068,1.187-5.812c0.465-1.755,1.21-2.937,3.601-3.517
					c2.382-0.58,12.061-2.205,13.884-2.531c2.146-0.391,2.671-1.299,2.564-3.36c-0.104-2.155-0.414-5.149-0.47-6.993
					c-0.061-1.854,0.05-3.369,0.662-5.016c0.67-1.805,4.112-9.266,6.986-14.523c3.97-7.263,8.864-15.039,9.823-16.195
					C57.836,77.684,58.367,77.315,59.314,77.609z"/>
				
					<linearGradient id="SVGID_14_" gradientUnits="userSpaceOnUse" x1="5.1848" y1="-2.9634" x2="15.6418" y2="-9.123" gradientTransform="matrix(1 0 0 -1 54 107.1162)">
					<stop  offset="0.2" style="stop-color:#FFFFFF"/>
					<stop  offset="0.3197" style="stop-color:#FBFBFB"/>
					<stop  offset="0.3903" style="stop-color:#F3F3F4"/>
					<stop  offset="0.4482" style="stop-color:#E7E8E9"/>
					<stop  offset="0.4989" style="stop-color:#D6D8D9"/>
					<stop  offset="0.5207" style="stop-color:#CDCFD0"/>
					<stop  offset="0.8189" style="stop-color:#5F6062"/>
					<stop  offset="0.8352" style="stop-color:#58595B"/>
					<stop  offset="0.9389" style="stop-color:#4B4B4D"/>
					<stop  offset="1" style="stop-color:#414042"/>
				</linearGradient>
				<path fill="url(#SVGID_14_)" d="M53.717,130.765c-0.087-1.715,0.551-3.283,1.642-4.854c1.462-2.104,3.724-4.254,6.499-7.131
					c4.854-5.039,16.694-16.63,17.119-17.053c0.266-0.266,0.589-0.639-0.068-1.271c-1.173-1.127-1.789-1.853-3.64-3.703
					c-1.13-1.129-1.912-1.813-1.87-2.209c0.006-0.055-13.229,14.822-17.561,25.82c-1.782,3.926-2.291,6.161-2.291,8.108
					C53.547,130.169,53.717,130.765,53.717,130.765z"/>
				
					<linearGradient id="SVGID_15_" gradientUnits="userSpaceOnUse" x1="11.0486" y1="25.3564" x2="22.0513" y2="38.5292" gradientTransform="matrix(1 0 0 -1 54 107.1162)">
					<stop  offset="0.022" style="stop-color:#FFFFFF"/>
					<stop  offset="0.1828" style="stop-color:#FFFFFF"/>
					<stop  offset="0.2088" style="stop-color:#FFFFFF"/>
					<stop  offset="0.3037" style="stop-color:#F5F6F6"/>
					<stop  offset="0.4491" style="stop-color:#E3E4E5"/>
					<stop  offset="0.5" style="stop-color:#DCDDDE"/>
					<stop  offset="0.5971" style="stop-color:#CCCDCF"/>
					<stop  offset="0.8268" style="stop-color:#AAACAE"/>
					<stop  offset="0.9451" style="stop-color:#9D9FA2"/>
					<stop  offset="1" style="stop-color:#97999C"/>
				</linearGradient>
				<path fill="url(#SVGID_15_)" d="M11.759,33.619c1.85-0.018,3.564-0.062,5.165,0.136c3.139,0.39,6.987,1.218,9.412,2.232
					c1.264,0.527,4.255,2.151,7.743,4.123c6.052,3.42,13.607,7.875,16.287,9.377c9.345,5.317,17.063,10.323,24.093,15.536
					c2.534,1.878,4.964,3.814,7.366,5.757c13.879,11.217,25.281,23.633,40.51,50.242c0.592,1.032,0.769,1.851,0.709,2.749
					c-0.057,0.788-0.742,1.596-1.856,1.841L11.759,33.619z"/>
				
					<linearGradient id="SVGID_16_" gradientUnits="userSpaceOnUse" x1="35.3313" y1="98.8511" x2="49.6574" y2="84.1955" gradientTransform="matrix(1 0 0 -1 54 107.1162)">
					<stop  offset="0" style="stop-color:#000000"/>
					<stop  offset="0.0435" style="stop-color:#0A0A0A"/>
					<stop  offset="0.0684" style="stop-color:#232324"/>
					<stop  offset="0.0886" style="stop-color:#403F41"/>
					<stop  offset="0.1064" style="stop-color:#525355"/>
					<stop  offset="0.1224" style="stop-color:#68696C"/>
					<stop  offset="0.1373" style="stop-color:#808285"/>
					<stop  offset="0.1513" style="stop-color:#9D9FA1"/>
					<stop  offset="0.1646" style="stop-color:#C0C2C4"/>
					<stop  offset="0.1768" style="stop-color:#E8E9EA"/>
					<stop  offset="0.1793" style="stop-color:#F1F2F2"/>
					<stop  offset="0.1929" style="stop-color:#E5E6E7"/>
					<stop  offset="0.2458" style="stop-color:#BCBEC0"/>
					<stop  offset="0.2999" style="stop-color:#999B9E"/>
					<stop  offset="0.3543" style="stop-color:#7F8183"/>
					<stop  offset="0.4091" style="stop-color:#6A6C6E"/>
					<stop  offset="0.4645" style="stop-color:#5A5B5E"/>
					<stop  offset="0.5207" style="stop-color:#505153"/>
					<stop  offset="0.5793" style="stop-color:#4D4D4F"/>
					<stop  offset="0.7135" style="stop-color:#464648"/>
					<stop  offset="0.911" style="stop-color:#252526"/>
					<stop  offset="1" style="stop-color:#000000"/>
				</linearGradient>
				<path fill="url(#SVGID_16_)" d="M102.435,21.148h-0.021h-0.045c-0.52-0.007-0.897-0.228-1.213-0.445
					c-2.193-1.636-8.34-6.417-9.225-10.475c-0.558-1.897,0.143-1.032-1.83-2.031c-0.552-0.215-1.084-0.43-1.629-0.633
					C88.661,7.663,88.838,7.759,89,7.856c0.293,0.175,0.566,0.352,0.777,0.574c0.736,0.688,0.896,1.368,0.92,1.517
					c0.359,1.793,1.354,4.206,3.637,6.807c1.967,2.266,6.025,5.623,6.873,6.213c0.539,0.364,1.074,0.734,1.523,1.242
					c0.264-1.364,0.69-2.86,1.299-4.331c-0.1,0.159-0.197,0.367-0.379,0.604C103.446,20.759,103.036,21.12,102.435,21.148z"/>
				
					<linearGradient id="SVGID_17_" gradientUnits="userSpaceOnUse" x1="37.0505" y1="37.9482" x2="53.3545" y2="48.6529" gradientTransform="matrix(1 0 0 -1 54 107.1162)">
					<stop  offset="0" style="stop-color:#000000"/>
					<stop  offset="0.0435" style="stop-color:#0A0A0A"/>
					<stop  offset="0.0684" style="stop-color:#232324"/>
					<stop  offset="0.0886" style="stop-color:#403F41"/>
					<stop  offset="0.1064" style="stop-color:#525355"/>
					<stop  offset="0.1224" style="stop-color:#68696C"/>
					<stop  offset="0.1373" style="stop-color:#808285"/>
					<stop  offset="0.1513" style="stop-color:#9D9FA1"/>
					<stop  offset="0.1646" style="stop-color:#C0C2C4"/>
					<stop  offset="0.1768" style="stop-color:#E8E9EA"/>
					<stop  offset="0.1793" style="stop-color:#F1F2F2"/>
					<stop  offset="0.1929" style="stop-color:#E5E6E7"/>
					<stop  offset="0.2458" style="stop-color:#BCBEC0"/>
					<stop  offset="0.2999" style="stop-color:#999B9E"/>
					<stop  offset="0.3543" style="stop-color:#7F8183"/>
					<stop  offset="0.4091" style="stop-color:#6A6C6E"/>
					<stop  offset="0.4645" style="stop-color:#5A5B5E"/>
					<stop  offset="0.5207" style="stop-color:#505153"/>
					<stop  offset="0.5793" style="stop-color:#4D4D4F"/>
					<stop  offset="0.7135" style="stop-color:#464648"/>
					<stop  offset="0.911" style="stop-color:#252526"/>
					<stop  offset="1" style="stop-color:#000000"/>
				</linearGradient>
				<path fill="url(#SVGID_17_)" d="M89.007,55.359c-2.049,0.738-2.311,1.39-2.373,2.413v0.012
					c-0.002,0.946,0.435,2.424,1.355,3.693c1.062,1.52,6.221,7.381,11.971,14.606c0.664,0.809,0.937,1.117,1.486,1.678
					c-0.211-0.275-8.332-10.549-10.82-13.385c-0.709-0.834-1.521-1.952-1.528-3.417c-0.011-1.465,1.108-3.548,3.424-4.343
					c3.088-1.127,8.705-2.949,9.981-3.643c1.242-0.714,1.615-1.027,1.8-1.875c-0.644,0.518-1.474,0.856-2.527,1.153
					C98.88,53.048,91.755,54.5,89.007,55.359z"/>
				<g>
					
						<linearGradient id="SVGID_18_" gradientUnits="userSpaceOnUse" x1="50.1335" y1="89.9956" x2="71.5437" y2="89.9956" gradientTransform="matrix(1 0 0 -1 54 107.1162)">
						<stop  offset="0" style="stop-color:#6D6E71"/>
						<stop  offset="0.2857" style="stop-color:#D1D3D4"/>
						<stop  offset="0.2991" style="stop-color:#C7C9CB"/>
						<stop  offset="0.3504" style="stop-color:#A5A7AA"/>
						<stop  offset="0.4006" style="stop-color:#8C8E91"/>
						<stop  offset="0.4488" style="stop-color:#7B7D80"/>
						<stop  offset="0.4939" style="stop-color:#717275"/>
						<stop  offset="0.533" style="stop-color:#6D6E71"/>
						<stop  offset="0.7582" style="stop-color:#414042"/>
						<stop  offset="1" style="stop-color:#000000"/>
					</linearGradient>
					<path fill="url(#SVGID_18_)" d="M104.134,21.694c1.115-3.893,4.656-8.493,10.277-8.493c7.152,0,10.133,2.703,11.133,6.729
						c-1.28-5.714-6.282-7.493-11.155-7.378C108.899,12.679,105.206,17.337,104.134,21.694z"/>
				</g>
				
					<linearGradient id="SVGID_19_" gradientUnits="userSpaceOnUse" x1="-37.2512" y1="-21.3413" x2="12.116" y2="-21.3413" gradientTransform="matrix(1 0 0 -1 54 107.1162)">
					<stop  offset="0" style="stop-color:#000000"/>
					<stop  offset="0.0512" style="stop-color:#0A0A0A"/>
					<stop  offset="0.0805" style="stop-color:#232324"/>
					<stop  offset="0.1043" style="stop-color:#403F41"/>
					<stop  offset="0.1252" style="stop-color:#525355"/>
					<stop  offset="0.144" style="stop-color:#68696C"/>
					<stop  offset="0.1615" style="stop-color:#808285"/>
					<stop  offset="0.1777" style="stop-color:#9C9EA0"/>
					<stop  offset="0.1793" style="stop-color:#9FA1A4"/>
					<stop  offset="0.1944" style="stop-color:#999B9E"/>
					<stop  offset="0.2688" style="stop-color:#7F8183"/>
					<stop  offset="0.3444" style="stop-color:#6A6C6E"/>
					<stop  offset="0.4208" style="stop-color:#5A5B5E"/>
					<stop  offset="0.4984" style="stop-color:#505153"/>
					<stop  offset="0.5793" style="stop-color:#4D4D4F"/>
					<stop  offset="0.7135" style="stop-color:#464648"/>
					<stop  offset="0.911" style="stop-color:#252526"/>
					<stop  offset="1" style="stop-color:#000000"/>
				</linearGradient>
				<path fill="url(#SVGID_19_)" d="M57.543,125.453c0.95-1.031,4.653-5.144,8.573-9.502c-1.284,1.293-2.444,2.484-3.354,3.424
					c-5.543,5.666-8.057,7.43-7.944,10.951c0.064,2.08,0.229,7.2,0.24,7.963c0,0.52,0.048,1.014-0.829,1.471
					c-0.431,0.234-1.178,0.232-1.558,0.232c-1.507,0-16.11-1.423-21.233-1.423c-5.124,0-9.521,0.57-12.158,1.231
					c-0.435,0.103-1.542,0.031-1.989-0.631c-0.232-0.344-0.313-0.696-0.334-0.998c-0.11,0.998-0.207,2.166-0.207,2.67
					c0.923-0.182,3.099-0.479,5.899-0.692c3.589-0.278,7.652-0.229,10.36-0.229s22.805,1.043,22.881,1.045
					c-0.133-1.545-0.334-5.219-0.391-7.519c-0.019-0.592-0.019-0.586-0.066-2.228C55.432,129.423,55.776,127.326,57.543,125.453z"/>
				
					<linearGradient id="SVGID_20_" gradientUnits="userSpaceOnUse" x1="25.5662" y1="-2.395" x2="47.6462" y2="-2.395" gradientTransform="matrix(1 0 0 -1 54 107.1162)">
					<stop  offset="0" style="stop-color:#000000"/>
					<stop  offset="0.0512" style="stop-color:#0A0A0A"/>
					<stop  offset="0.0805" style="stop-color:#232324"/>
					<stop  offset="0.1043" style="stop-color:#403F41"/>
					<stop  offset="0.1252" style="stop-color:#525355"/>
					<stop  offset="0.144" style="stop-color:#68696C"/>
					<stop  offset="0.1615" style="stop-color:#808285"/>
					<stop  offset="0.1777" style="stop-color:#9C9EA0"/>
					<stop  offset="0.1793" style="stop-color:#9FA1A4"/>
					<stop  offset="0.1944" style="stop-color:#999B9E"/>
					<stop  offset="0.2688" style="stop-color:#7F8183"/>
					<stop  offset="0.3444" style="stop-color:#6A6C6E"/>
					<stop  offset="0.4208" style="stop-color:#5A5B5E"/>
					<stop  offset="0.4984" style="stop-color:#505153"/>
					<stop  offset="0.5793" style="stop-color:#4D4D4F"/>
					<stop  offset="0.7135" style="stop-color:#464648"/>
					<stop  offset="0.911" style="stop-color:#252526"/>
					<stop  offset="1" style="stop-color:#000000"/>
				</linearGradient>
				<path fill="url(#SVGID_20_)" d="M98.343,116.096c1.146,0.813,2.205,1.389,3.304,1.769c-0.92-0.645-2.277-1.678-4.058-3.041
					c-2.588-2.004-5.896-4.611-9.225-7.252c-2.807-2.229-5.627-4.48-8.023-6.414c-0.041,0.846-0.562,1.295-0.774,1.426
					c0.565,0.084,1.061,0.406,1.5,0.809C82.103,104.355,95.651,114.151,98.343,116.096z"/>
				
					<linearGradient id="SVGID_21_" gradientUnits="userSpaceOnUse" x1="40.3503" y1="-5.3599" x2="80.906" y2="-5.3599" gradientTransform="matrix(1 0 0 -1 54 107.1162)">
					<stop  offset="0" style="stop-color:#000000"/>
					<stop  offset="0.0512" style="stop-color:#0A0A0A"/>
					<stop  offset="0.0805" style="stop-color:#232324"/>
					<stop  offset="0.1043" style="stop-color:#403F41"/>
					<stop  offset="0.1252" style="stop-color:#525355"/>
					<stop  offset="0.144" style="stop-color:#68696C"/>
					<stop  offset="0.1615" style="stop-color:#808285"/>
					<stop  offset="0.1777" style="stop-color:#9C9EA0"/>
					<stop  offset="0.1793" style="stop-color:#9FA1A4"/>
					<stop  offset="0.1944" style="stop-color:#999B9E"/>
					<stop  offset="0.2688" style="stop-color:#7F8183"/>
					<stop  offset="0.3444" style="stop-color:#6A6C6E"/>
					<stop  offset="0.4208" style="stop-color:#5A5B5E"/>
					<stop  offset="0.4984" style="stop-color:#505153"/>
					<stop  offset="0.5793" style="stop-color:#4D4D4F"/>
					<stop  offset="0.7135" style="stop-color:#464648"/>
					<stop  offset="0.911" style="stop-color:#252526"/>
					<stop  offset="1" style="stop-color:#000000"/>
				</linearGradient>
				<path fill="url(#SVGID_21_)" d="M134.261,133.371c0.465-0.369,0.645-0.343,0.645-0.701c0-0.25-0.137-0.711-0.361-1.34
					c-2.733-7.828-13.157-27.15-21.26-37.896c-0.77-1.027-1.289-2.398-1.289-3.354c-0.002-1.242,0.648-2.149,1.312-2.662
					c0.561-0.463,1.938-1.64,3.739-3.428c-2.799,2.098-4.758,3.768-5,4.52c-0.141,0.354-0.313,0.83-0.313,1.511
					c0,0.84,0.274,2.007,1.352,3.567c0.648,0.916,1.277,1.818,1.875,2.688c9.414,13.854,15.974,27.257,18.453,33.511
					c0.545,1.514,0.435,2.262-0.055,2.938c0,0-4.904,5.015-5.492,5.95c-0.256,0.375-0.445,0.691-0.783,0.984
					c-0.332,0.305-1.196,0.498-2.018,0.432c-7.24-0.682-15.101-0.967-19.039-0.967c-5.123,0-8.113,0.494-9.816,0.539
					c-0.92,0.025-1.565-0.188-1.678-0.344c-0.012-0.023-0.023-0.049-0.045-0.066c-0.074,0.72-0.121,1.261-0.137,1.5
					c3.104-0.559,7.284-0.799,11.93-0.799c1.477,0,2.992,0.025,4.547,0.066c7.646,0.236,16.523,0.941,16.547,0.941
					C127.394,140.953,131.634,135.552,134.261,133.371z"/>
				
					<linearGradient id="SVGID_22_" gradientUnits="userSpaceOnUse" x1="-39.4211" y1="34.2471" x2="2.8552" y2="34.2471" gradientTransform="matrix(1 0 0 -1 54 107.1162)">
					<stop  offset="0" style="stop-color:#808285"/>
					<stop  offset="0.0568" style="stop-color:#828487"/>
					<stop  offset="0.0893" style="stop-color:#888A8D"/>
					<stop  offset="0.1157" style="stop-color:#939597"/>
					<stop  offset="0.1388" style="stop-color:#A2A4A7"/>
					<stop  offset="0.1596" style="stop-color:#B6B8BB"/>
					<stop  offset="0.1787" style="stop-color:#D0D2D3"/>
					<stop  offset="0.1793" style="stop-color:#D1D3D4"/>
					<stop  offset="0.2072" style="stop-color:#C5C7C9"/>
					<stop  offset="0.3158" style="stop-color:#9D9FA2"/>
					<stop  offset="0.4268" style="stop-color:#7D7E81"/>
					<stop  offset="0.5384" style="stop-color:#616265"/>
					<stop  offset="0.6508" style="stop-color:#4A4A4C"/>
					<stop  offset="0.7644" style="stop-color:#2E2E2F"/>
					<stop  offset="0.8798" style="stop-color:#101010"/>
					<stop  offset="1" style="stop-color:#000000"/>
				</linearGradient>
				<path fill="url(#SVGID_22_)" d="M56.855,76.765c-2.298-1.617-4.729-3.266-6.936-4.612c-2.904-1.818-5.67-3.075-6.489-3.051
					c-8.842-0.139-8.844-0.139-14.042-0.139c-4.055,0-7.901,0.152-9.428,0.268c-3.086,0.224-4.588,0.6-4.888,0.671
					c-0.3,0.07-0.481,0.051-0.494,0.051c0.073,0.12,0.191,0.354,0.245,0.446c0.081-0.028,0.202-0.076,0.43-0.142
					c1.854-0.528,5.992-0.78,11.156-0.796c4.922,0,10.298,0.037,13.078,0.167c2.493,0.121,6.013,0.454,8.819,1.991
					C50.921,73.076,56.585,77.003,56.855,76.765z"/>
				
					<linearGradient id="SVGID_23_" gradientUnits="userSpaceOnUse" x1="-38.4885" y1="59.9727" x2="-23.4426" y2="59.9727" gradientTransform="matrix(1 0 0 -1 54 107.1162)">
					<stop  offset="0" style="stop-color:#4D4D4F"/>
					<stop  offset="0.0489" style="stop-color:#4F4F51"/>
					<stop  offset="0.0769" style="stop-color:#565759"/>
					<stop  offset="0.0996" style="stop-color:#626366"/>
					<stop  offset="0.1195" style="stop-color:#727376"/>
					<stop  offset="0.1376" style="stop-color:#85878A"/>
					<stop  offset="0.1543" style="stop-color:#9D9FA2"/>
					<stop  offset="0.1697" style="stop-color:#BBBCBF"/>
					<stop  offset="0.1793" style="stop-color:#D1D3D4"/>
					<stop  offset="0.2072" style="stop-color:#C5C7C9"/>
					<stop  offset="0.3158" style="stop-color:#9D9FA2"/>
					<stop  offset="0.4268" style="stop-color:#7D7E81"/>
					<stop  offset="0.5384" style="stop-color:#616265"/>
					<stop  offset="0.6508" style="stop-color:#4A4A4C"/>
					<stop  offset="0.7644" style="stop-color:#2E2E2F"/>
					<stop  offset="0.8798" style="stop-color:#101010"/>
					<stop  offset="1" style="stop-color:#000000"/>
				</linearGradient>
				<path fill="url(#SVGID_23_)" d="M30.188,51.115c-3.354-3.113-8.421-6.702-10.807-7.193c-0.839-0.196-2.02-0.287-2.977-0.33
					c-0.733-0.042-0.681-0.897-0.894-1.057c0.023,0.149,0.066,1.435,0.513,1.464c0.595,0.046,2.466-0.216,4.116,0.576
					c2.243,1.109,7.961,5.336,8.839,6.25C30.06,52.074,31.146,51.947,30.188,51.115z"/>
				
					<linearGradient id="SVGID_24_" gradientUnits="userSpaceOnUse" x1="-51.3401" y1="38.0317" x2="-41.4377" y2="38.0317" gradientTransform="matrix(1 0 0 -1 54 107.1162)">
					<stop  offset="0" style="stop-color:#808285"/>
					<stop  offset="0.062" style="stop-color:#828487"/>
					<stop  offset="0.0976" style="stop-color:#888A8D"/>
					<stop  offset="0.1264" style="stop-color:#939597"/>
					<stop  offset="0.1516" style="stop-color:#A2A4A7"/>
					<stop  offset="0.1743" style="stop-color:#B6B8BB"/>
					<stop  offset="0.1793" style="stop-color:#BCBEC0"/>
					<stop  offset="0.182" style="stop-color:#BBBDBF"/>
					<stop  offset="0.3133" style="stop-color:#999B9E"/>
					<stop  offset="0.4469" style="stop-color:#7F8183"/>
					<stop  offset="0.5816" style="stop-color:#6A6C6E"/>
					<stop  offset="0.7176" style="stop-color:#5A5B5E"/>
					<stop  offset="0.856" style="stop-color:#505153"/>
					<stop  offset="1" style="stop-color:#4D4D4F"/>
				</linearGradient>
				<path fill="url(#SVGID_24_)" d="M11.119,68.037c0.694,0,0.897,0.021,1.443,0.242c-0.34-0.58-0.721-0.839-1.798-0.816
					c-1.577,0.035-5.577,2.021-6.188,2.425c-0.932,0.517-1.333,0.529-1.916-0.106c0.266,0.646,0.717,1.037,1.126,0.897
					C4.194,70.537,8.994,68.037,11.119,68.037z"/>
				
					<linearGradient id="SVGID_25_" gradientUnits="userSpaceOnUse" x1="0.7332" y1="99.4175" x2="1.8201" y2="97.0264" gradientTransform="matrix(1 0 0 -1 54 107.1162)">
					<stop  offset="0" style="stop-color:#FFFFFF"/>
					<stop  offset="0.1154" style="stop-color:#EBEBEC"/>
					<stop  offset="0.9066" style="stop-color:#636466"/>
				</linearGradient>
				<path fill="url(#SVGID_25_)" d="M57.632,7.175c0.732-0.118,1.358-0.276,1.433,0.325c0.032,0.295,0,0.665-0.108,0.947
					c-0.064,0.174-0.205,0.34-0.531,0.448c-0.758,0.241-5.069,1.828-5.81,2.133c-0.538,0.226-0.888-0.031-0.99-0.378
					c-0.104-0.332,0.004-1.199,0.252-1.594c0.246-0.402,0.445-0.524,0.821-0.645C53.063,8.286,56.543,7.35,57.632,7.175z"/>
				<path d="M57.51,7.543c0.482-0.087,0.721-0.039,0.745,0.226c0.021,0.276,0,0.444-0.02,0.549
					c-0.026,0.146-0.086,0.227-0.323,0.317c-0.496,0.171-3.646,1.297-4.407,1.613c-0.697,0.293-1.051,0.131-1.112-0.161
					c-0.061-0.3,0.05-0.771,0.169-0.979c0.125-0.209,0.307-0.35,0.565-0.433C53.694,8.472,56.617,7.707,57.51,7.543z"/>
				
					<linearGradient id="SVGID_26_" gradientUnits="userSpaceOnUse" x1="-12.8801" y1="74.7817" x2="27.1238" y2="74.7817" gradientTransform="matrix(1 0 0 -1 54 107.1162)">
					<stop  offset="0.6868" style="stop-color:#FFFFFF"/>
					<stop  offset="0.7158" style="stop-color:#F8F8F8"/>
					<stop  offset="0.7521" style="stop-color:#EAEBEC"/>
					<stop  offset="0.7922" style="stop-color:#D5D6D8"/>
					<stop  offset="0.8351" style="stop-color:#B7B9BC"/>
					<stop  offset="0.8803" style="stop-color:#939598"/>
					<stop  offset="0.9273" style="stop-color:#696A6D"/>
					<stop  offset="0.9751" style="stop-color:#191919"/>
					<stop  offset="0.9797" style="stop-color:#000000"/>
				</linearGradient>
				<path fill="url(#SVGID_26_)" d="M75.124,48.692c0.524-0.956,4.014-8.334,4.854-10.461c0.535-1.336,1.146-2.66,1.146-4.354
					c0-1.113-0.307-2.82-1.063-4.402c-1.922-4.05-8.002-11.747-10.43-14.651c-2.057-2.429-3.914-2.807-7.418-2.717
					c-8.934,0.233-16.72,4.018-21.093,5.804c3.118-1.07,10.688-4.171,19.136-4.678c4.642-0.283,6.5,0.111,8.202,2.019
					c2.468,2.72,8.217,10.441,10.264,14.357c0.811,1.554,1.169,2.945,1.058,4.134c-0.164,1.798-0.808,3.119-1.316,4.305
					c-0.889,2.044-4.18,8.723-4.748,9.694c-2.396,4.147-4.688,4.002-7.129,3.439c0.128,0.067,1.244,0.596,2.272,1.016
					C71.697,53.357,73.5,51.74,75.124,48.692z"/>
				
					<linearGradient id="SVGID_27_" gradientUnits="userSpaceOnUse" x1="-15.5027" y1="-24.2471" x2="-0.6723" y2="28.2021" gradientTransform="matrix(1 0 0 -1 54 107.1162)">
					<stop  offset="0" style="stop-color:#E6E7E8"/>
					<stop  offset="0.0659" style="stop-color:#636466"/>
					<stop  offset="0.075" style="stop-color:#656668"/>
					<stop  offset="0.2588" style="stop-color:#86888B"/>
					<stop  offset="0.3517" style="stop-color:#939598"/>
					<stop  offset="0.4902" style="stop-color:#A8AAAC"/>
					<stop  offset="0.6044" style="stop-color:#B6B8BA"/>
					<stop  offset="0.7298" style="stop-color:#9A9D9F"/>
					<stop  offset="0.8783" style="stop-color:#818285"/>
					<stop  offset="0.9586" style="stop-color:#77787B"/>
					<stop  offset="1" style="stop-color:#B1B3B6"/>
				</linearGradient>
				<path fill="url(#SVGID_27_)" d="M64.34,80.968c-0.095-0.047-0.521-0.361-1.09-0.781c-1.341,1.509-7.368,9.038-11.573,15.74
					c-3.171,5.049-7.74,12.578-8.455,14.234c-0.66,1.523-0.878,2.903-0.898,4.703c0,0.018,0.26,8.143,0.26,8.191
					c0,1.005-0.146,1.831-0.687,2.466c-0.548,0.629-1.375,0.94-2.519,1.104c-1.885,0.274-10.762,1.646-13.199,2.141
					c-2.365,0.51-3.349,1.598-3.872,3.166c-0.384,1.131-0.821,3.055-0.816,3.898c0,0-0.03,0.463,0,0.463
					c-0.068,0.897,0.257,0.848,0.257,0.848s10.275-0.791,16.392-0.424c6.119,0.357,14.564,1.156,14.564,1.156
					s-8.887-1.664-14.933-2.039c-6.046-0.361-14.058,0.297-14.129-0.07c-0.051-0.254-0.206-0.633-0.143-1.375
					c0.102-0.479,0.227-1.027,0.394-1.602c0.393-1.506,1.095-2.83,3.438-3.373c2.24-0.57,10.87-1.998,12.507-2.396
					c1.614-0.41,2.664-1.015,2.888-2.332c0.062-0.401,0.113-1.313,0.109-2.153c0-1.734-0.305-6.332-0.295-6.621
					c0.055-2.83,0.175-4.33,2.027-7.387c2.868-4.77,13.658-21.174,19.027-26.869c0.341-0.359,0.498-0.664,1.097-0.57
					C64.572,81.063,64.453,81.026,64.34,80.968z"/>
			</g>
		</g>
	</g>
</g>
</svg>
