<?xml version="1.0" encoding="utf-8"?>
<!-- Generator: Adobe Illustrator 16.0.0, SVG Export Plug-In . SVG Version: 6.00 Build 0)  -->
<!DOCTYPE svg PUBLIC "-//W3C//DTD SVG 1.1//EN" "http://www.w3.org/Graphics/SVG/1.1/DTD/svg11.dtd">
<svg version="1.1" id="Layer_1" xmlns="http://www.w3.org/2000/svg" xmlns:xlink="http://www.w3.org/1999/xlink" x="0px" y="0px"
	 width="81.732px" height="125.146px" viewBox="0 0 81.732 125.146" enable-background="new 0 0 81.732 125.146"
	 xml:space="preserve">
<path fill="#1D1D1B" d="M30.436,77.669c2.99,0,5.414-2.424,5.414-5.413s-2.424-5.413-5.414-5.413c-2.989,0-5.413,2.424-5.413,5.413
	S27.447,77.669,30.436,77.669L30.436,77.669z M46.259,110.478c-1.273-0.46-0.234-4.196,0.439-4.941
	c0.674-0.744,0.963-1.675-0.049-2.284c-1.013-0.609-2.394,0.512-3.474,1.055c-1.079,0.541-5.273,3.008-7.88,4.196
	c-2.604,1.188-3.084,0.746-3.9-2.342c-1-3.779,1.413-6.211,2.327-7.633c-9.798-1.361-21.151-8.854-21.79-16.505
	c-0.433-5.19,2.738-14.352,13.192-20.195c4.752-2.656,10.771-5.104,19.061-5.344c0.104-0.093,0.199-0.609-0.229-0.731
	C27.198,50.985,2.243,35.344,0,0.291c7.396,4.081,23.188,16.8,28.543,22.155c7.012,5.507,18.973,23.393,24.838,33.595
	c0.345,0.352,1.889,2.218,2.06-0.891c0.545-9.869,1.031-20.879,4.741-29.797C64.519,14.922,72.624,6.012,81.732,0
	c-0.611,5.545-1.192,11.125-1.645,16.438c-0.659,7.767-0.968,14.692-2.461,20.091c-3.273,11.833-7.965,17.446-15.176,24.369
	c8.216,7.369,12.069,18.079,6.245,36.793c-1.067,3.429-1.276,4.221-4.551,5.877C58.286,106.53,47.095,110.638,46.259,110.478
	L46.259,110.478z M23.513,107.284l0.687,14.615c1.766-1.201,3.143-2.599,4.908-3.8c3.795-2.583,4.428-1.46,7.811,1.537l5.212,5.509
	l-0.117-16.861c-1.437,0.958-2.58,2.014-4.016,2.971c-5.04,3.361-4.942,3.721-9.749,0.038L23.513,107.284L23.513,107.284z
	 M45.908,114.361l0.23,3.907l20.076-5.556l-0.127-3.569L45.908,114.361L45.908,114.361z"/>
</svg>
