<?xml version="1.0" encoding="utf-8"?>
<!-- Generator: Adobe Illustrator 16.0.0, SVG Export Plug-In . SVG Version: 6.00 Build 0)  -->
<!DOCTYPE svg PUBLIC "-//W3C//DTD SVG 1.1//EN" "http://www.w3.org/Graphics/SVG/1.1/DTD/svg11.dtd">
<svg version="1.1" id="Layer_1" xmlns="http://www.w3.org/2000/svg" xmlns:xlink="http://www.w3.org/1999/xlink" x="0px" y="0px"
	 width="90.018px" height="95.854px" viewBox="0 0 90.018 95.854" enable-background="new 0 0 90.018 95.854" xml:space="preserve">
<g>
	<path fill="none" d="M4.192,11.033c0.498-0.315,0.994-0.63,1.612-1.281c0.616-0.649,1.354-1.638,2.092-2.625L4.353,7.5
		c0,0-3.917,9.896-4.042,11.021c-0.032,0.285-0.067,0.771-0.104,1.336l0.005-0.002C0.766,17.218,2.25,14.227,4.192,11.033z"/>
	<path fill="none" d="M31.728,2l-0.28-0.064c-0.01,0-0.021,0.001-0.03,0.001c1.121,0.423,1.364,0.436,2.106,0.597
		c1.619,0.946,3.26,1.549,4.924,1.847c1.662,0.016,3.32,0.035,4.975,0.062l-3.194-1.274L31.728,2z"/>
	<path fill="#312782" d="M8.263,31.956c-0.005,0-0.009,0.003-0.013,0.005c0.004,0.005,0.007,0.011,0.012,0.015
		c0.003-0.007,0.004-0.016,0.007-0.021C8.267,31.954,8.265,31.954,8.263,31.956z"/>
	<path fill="#FFFFFF" d="M82.801,24.449c-0.042-0.239,0.082-1.545-0.237-2.144C82.507,22.167,81.519,21.28,81,20.87
		c-0.341-0.277-1.257-0.978-2.178-1.671c-0.096-0.293-0.184-0.587-0.284-0.976c-0.1-0.39-0.213-0.869-0.295-1.166
		c-0.082-0.298-0.132-0.411-0.196-0.516c-1.329-0.812-2.275-0.4-3.587-0.317c-1.285-0.514-2.501-0.947-3.278-1.193
		c-0.529-0.174-1.762-0.552-3.015-0.928c-1.149-0.158-2.304-0.305-3.194-0.404c-1.652-0.184-2.689-0.25-3.979-0.333
		c-0.581-0.035-1.124-0.062-1.813-0.093c-0.689-0.032-1.527-0.066-3.179-0.114c-1.65-0.048-4.115-0.11-6.582-0.162
		c-0.072-0.057-0.178-0.132-0.21-0.223c0.527-0.281,0.604-0.288,1.104-0.359c0.325-0.036,0.796-0.055,1.266-0.046
		c0.072-0.778-0.521-1.542-1.703-2.299c-1.856-1.15-3.863-1.82-5.929-2.357c-1.432,0.021-2.549,0.086-3.702,0.201
		c-0.315,0.031-0.605,0.062-0.979,0.104c-0.375,0.042-0.833,0.095-1.755,0.212c-0.923,0.118-2.308,0.299-3.691,0.485
		c0.044-0.413,0.282-0.685,1.017-1.166c0.451-0.282,0.824-0.479,1.354-0.757c-0.784-0.584-1.104-0.732-1.898-1.062
		c-2.265-0.893-5.399-1.569-7.807-1.82c-2.457-0.21-5.378-0.467-7.771,0.249c-1.411,0.499-3.786,1.114-6.004,2.78
		c-0.729,0.502-1.421,1.029-2.05,1.56c-2.115,1.813-2.991,2.96-4.041,4.415c-0.845,1.232-1.735,2.662-2.088,3.92
		c-0.226,0.518-0.421,1.008-0.546,1.421c-0.138,0.427-0.321,1.234-0.472,2.126c-0.21,1.354-0.285,2.222-0.312,3.425
		c-0.031,1.604,0.083,3.416,0.376,5.196c0.156,0.985,0.364,2.076,0.643,3.325c0.937,4.18,2.555,9.642,4.386,14.771
		c0.16,1.224,0.296,2.448,0.372,3.303c0.128,1.529,0.103,2.029,0.076,2.861c-0.019,0.354-0.049,0.712-0.094,1.115
		c-0.046,0.402-0.105,0.849-0.257,1.577C8.555,56.684,8.316,57.697,8.05,58.7c0.025,1.581,0.163,3.441,1.374,4.913
		c1.363,1.36,2.029,1.274,3.362,1.344c0.02-0.539,0.02-0.862,0.09-1.455c0.037-0.178,0.086-0.77,0.532-0.822
		c0.464,0.729,1.071,1.9,2.001,2.635c0.657,0.442,1.119,0.523,1.87,0.608c0.003-0.62-0.004-0.509-0.058-1.012
		c-0.112-0.876-0.265-1.978-0.371-3.028c-0.04-0.372-0.083-0.773-0.124-1.176c-0.887-0.715-1.481-0.544-2.38-0.661
		c-0.47-0.036-1.042-0.079-1.614-0.116c-0.424-0.643-0.627-1.338,0.232-1.479c0.497-0.241,1.154-0.167,1.642-1.005
		c0.361-0.588,0.315-0.974,0.352-1.765c-0.06-1.347-0.347-2.595-0.837-4.369c-0.069-0.242-0.121-0.417-0.186-0.629
		c-0.064-0.215-0.141-0.463-0.394-1.249c-0.253-0.785-0.682-2.109-1.048-3.233c-0.366-1.128-0.668-2.058-1.371-4.225
		c-0.702-2.169-1.806-5.576-2.909-8.98c-0.021-0.362-0.08-0.785,0.049-1.021c-0.005-0.005-0.008-0.01-0.012-0.015
		c0.004-0.002,0.008-0.005,0.013-0.005c0.002-0.002,0.004-0.002,0.006-0.002c-0.003,0.006-0.004,0.015-0.007,0.021
		c0.949,1.003,1.313,2.041,2.021,3.348c0.397,0.484,0.821,0.948,1.198,1.318c2.185,2.085,3.284,1.866,5.016,1.007
		c0.334-0.198,0.676-0.451,0.989-0.735c0.133-0.287,0.458-0.736,0.588-0.356c0.33,0.458,0.362,1.979,0.429,2.914
		c0.073,1.229,0.097,1.762,0.14,2.688c0.022,0.507,0.048,1.102,0.097,2.406c0.048,1.305,0.121,3.316,0.19,5.329
		c-0.19,2.049-0.372,4.099-0.483,5.454c-0.194,2.421-0.208,2.883-0.254,3.963c-0.034,1.143-0.046,1.928,0.012,2.956
		c0.034,0.604,0.097,1.352,0.177,2.099c1.116,3.174,2.204,5.654,3.719,8.841c1.034,2.176,2.299,4.674,3.652,7.289
		c0.692,1.333,1.36,2.593,1.961,3.696c0.602,1.102,1.135,2.049,1.553,2.759c0.931,1.553,1.394,2.275,2.42,3.371
		c2,1.95,3.773,2.331,5.857,2.141v-1.106c0.594,0.069,1.291,1.111,2.327,1.599c0.495,0.204,0.517,0.191,0.916,0.31
		c0.273,0.045,0.709,0.3,1.121,0.198c0.322-0.067,1.033-0.377,0.961-0.854c0.055-0.114-0.184-0.857-0.201-1.478
		c0.542-0.087,1.901,0.546,2.591,0.715c0.986,0.289,1.213,0.256,1.731,0.154c0.365-0.097,0.697-0.273,1.069-0.589
		c0.023-0.489,0.101-1.007-0.336-1.689c-0.001-0.227-0.468-0.259,0.336-0.394c0.292-0.098,1.029,0.047,2.015,0.092
		c0.111-0.004,0.18-0.021,0.244-0.049c-0.006-0.543-0.031-1.084-0.069-1.517c-0.212-1.407-0.085-1.986-1.33-3.22
		c-0.082-0.06-0.152-0.099-0.229-0.13c-2.756,0.254-6.074,0.636-9.062,0.392c-0.331-0.045-1.001-0.054-1.784-0.365
		c-0.146-0.082-0.284-0.188-0.423-0.347c1.44-0.194,3.423-0.068,5.043-1.257c0.401-0.314,0.625-0.63,0.842-0.979
		c-0.132-1.07-0.3-2.138-0.461-2.945c-0.298-1.476-0.607-2.331-1.005-3.424c-0.182-0.483-0.366-0.931-0.609-1.494
		c-0.244-0.562-0.548-1.236-1.2-2.549c-0.652-1.311-1.653-3.258-2.679-5.188c-1.506-1.178-3.692-2.701-5.376-4.609
		c-0.549-0.695-0.833-1.339-0.888-1.95c0.475,0.088,1.126,0.349,1.593,0.514c0.183,0.068,0.421,0.153,0.959,0.356
		c0.538,0.201,1.378,0.518,2.218,0.834h2.067c0.29-0.374,0.234-0.353,0.287-0.647c0.082-0.814,0.04-1.639-0.022-2.438
		c-0.183-2.192-0.543-4.994-0.952-7.847c0.154-0.291,0.307-0.587,0.398-0.769c0.149-0.298,0.159-0.33,0.205-0.438
		c3.602-4.358,3.71-8.515,3.354-13.101c1.254,0.674,1.501,2.329,1.801,3.625c0.298,1.82,0.516,3.576,0.269,5.587
		c-0.083,0.275-0.271,0.838-0.329,1.105c-0.273,0.807,0.19,1.326,0.833,1.508c0.522,0.118,0.47,0.104,0.952,0.054
		c1.145-0.163,2.735-0.71,4.037-1.301c2.056-0.911,4.273-2.201,6.692-3.452c-1.418,2.188-3.626,4.472-5.754,6.13
		c-0.866,0.147-1.692,0.244-2.265,0.301c-0.381,0.041-1.558,0.146-2.729,0.246c-0.657,0.757-0.695,1.41-0.259,2.166
		c0.77,0.086,2.91-0.382,4.173-0.508c0.771-0.308,1.529-0.646,2.072-0.917c1.334-0.681,1.974-1.229,2.754-1.936
		c0.278-0.259,0.604-0.571,1.178-1.2c0.573-0.629,1.396-1.574,2.196-2.537c0.94-0.72,1.823-1.037,2.481-1.28
		c0.229-0.082,0.513-0.182,1.108-0.375c1.031-0.335,2.812-0.83,4.304-1.595c0.623-0.287,1.243-0.58,1.778-0.839
		c1.464-0.78,2.703-1.114,4.094-2.552c0.062-0.099,0.126-0.218,0.183-0.344c-1.099,0.062-1.15,0.076-2.119,0.389
		c-0.622,0.214-1.546,0.586-2.353,0.918c-0.806,0.331-1.493,0.624-1.963,0.821c-0.982,0.403-1.07,0.428-1.532,0.595
		c-0.719,0.257-1.569,0.501-2.311,0.588c-0.169-0.336,0.725-0.622,1.091-1.071c1.428-1.346,1.737-2.865,1.197-4.083
		c-0.141-0.631-0.311-1.756,0.104-2.624c0.067-0.115,0.159-0.257,0.261-0.39c0.505,0.137,0.623,0.194,1.074,0.481
		c0.605,0.409,1.154,0.831,1.476,1.084c0.812,0.64,1.807,1.413,2.627,2.049c0.93-0.04,1.859-0.083,2.473-0.115
		c1.479-0.079,1.62-0.097,2.393-0.18c0.681-0.038,1.536-0.395,2.282-0.113c0.292,0.056,0.631,0.12,1.28,0.248
		c0.65,0.131,1.611,0.327,2.362,0.473c0.753,0.147,1.298,0.242,1.702,0.299c1.342,0.086,1.829,0.475,2.851-0.438
		c0.021-0.062,0.023-0.12,0.009-0.18c-0.339-0.375-0.673-0.757-0.877-0.997c-0.514-0.6-0.457-0.629-0.592-0.915
		c-0.202-0.58-0.086-1.036,0.431-1.559c0.707-0.065,1.413-0.144,1.877-0.199c1.245-0.161,1.229-0.175,1.95-0.38
		c0.353-0.112,0.628-0.253,0.929-0.471c0.053-0.577,0-1.062-0.161-1.576c-0.161-0.687-1.281-2.557-2.216-3.713
		C84.38,26.269,83.598,25.324,82.801,24.449z M25.872,78.045c-1.733-4.021-3.548-8.121-5.283-12.222
		c-0.079-1.655-0.235-3.469-0.394-5.203c0.314-2.603,0.552-5.283,0.867-7.962c1.577,0,1.498,9.224,1.498,10.485
		c1.183,4.967,2.364,9.854,3.548,14.9C26.03,78.045,25.951,78.045,25.872,78.045z M45.188,38.781
		c-0.236-0.316-1.341-3.313-2.604-5.834c-0.473-0.553-0.944-1.104-1.419-1.735c-0.472-0.552-2.68-1.972-2.68-3.153
		c2.129-1.498,4.257-3.312,6.702-4.259c0,0.079,0,0.237-0.078,0.396c-2.603,3.076-2.209,4.336-0.552,8.042
		C44.795,33.182,46.135,38.307,45.188,38.781z M58.355,22.618c-2.05-2.602-2.522-5.755,2.129-4.257
		C60.484,19.385,59.064,22.46,58.355,22.618z M73.256,25.377c-0.864-0.551-0.709-0.631-0.63-1.733
		c1.025-0.946,2.604-0.236,3.312,0.71C75.938,25.535,74.125,25.377,73.256,25.377z"/>
	<path fill="#FFFFFF" d="M21.062,52.658c-0.315,2.679-0.553,5.359-0.867,7.962c0.158,1.734,0.314,3.548,0.394,5.203
		c1.734,4.101,3.549,8.2,5.283,12.222c0.079,0,0.158,0,0.236,0c-1.184-5.046-2.365-9.935-3.548-14.9
		C22.561,61.882,22.64,52.658,21.062,52.658z"/>
	<path fill="#FFFFFF" d="M47.159,53.841c-1.104,0.631-2.129,1.26-3.153,1.892c-1.184,2.917-1.655,6.229-2.286,9.224
		c-0.157,4.102,1.183,7.413,2.603,11.197c1.734-0.315,4.1-4.102,5.44-5.598c3.547-5.362,5.677-10.249,7.253-16.479
		C56.621,51.396,48.815,53.365,47.159,53.841z"/>
	<path fill="#312782" d="M45.11,24.194c0.078-0.157,0.078-0.315,0.078-0.396c-2.444,0.946-4.572,2.761-6.702,4.259
		c0,1.183,2.208,2.603,2.68,3.153c0.475,0.631,0.946,1.184,1.419,1.735c1.263,2.521,2.366,5.518,2.604,5.834
		c0.945-0.475-0.395-5.6-0.63-6.545C42.901,28.53,42.509,27.271,45.11,24.194z"/>
	<path fill="#312782" d="M72.626,23.643c-0.079,1.104-0.234,1.184,0.63,1.733c0.869,0,2.683,0.158,2.683-1.023
		C75.229,23.406,73.651,22.696,72.626,23.643z"/>
	<path fill="#312782" d="M58.355,22.618c0.709-0.158,2.129-3.232,2.129-4.257C55.833,16.862,56.306,20.016,58.355,22.618z"/>
	<path fill="#FFFFFF" d="M69.814,8.466l0.252-1.012c-5.005-0.975-10.01-1.95-15.279-2.462c-3.688-0.359-7.508-0.486-11.364-0.55
		l3.087,1.23c3.644,0.267,7.286,0.532,11.171,0.997C61.562,7.135,65.688,7.801,69.814,8.466z"/>
	<g>
		<path fill="none" d="M82.801,24.449c-0.042-0.239,0.082-1.545-0.237-2.144C82.507,22.167,81.519,21.28,81,20.87
			c-0.341-0.277-1.257-0.978-2.178-1.671c-0.096-0.293-0.184-0.587-0.284-0.976c-0.1-0.39-0.213-0.869-0.295-1.166
			c-0.082-0.298-0.132-0.411-0.196-0.516c-1.329-0.812-2.275-0.4-3.587-0.317c-1.285-0.514-2.501-0.947-3.278-1.193
			c-0.529-0.174-1.762-0.552-3.015-0.928c-1.149-0.158-2.304-0.305-3.194-0.404c-1.652-0.184-2.689-0.25-3.979-0.333
			c-0.581-0.035-1.124-0.062-1.813-0.093c-0.689-0.032-1.527-0.066-3.179-0.114c-1.65-0.048-4.115-0.11-6.582-0.162
			c-0.072-0.057-0.178-0.132-0.21-0.223c0.527-0.281,0.604-0.288,1.104-0.359c0.325-0.036,0.796-0.055,1.266-0.046
			c0.072-0.778-0.521-1.542-1.703-2.299c-1.856-1.15-3.863-1.82-5.929-2.357c-1.432,0.021-2.549,0.086-3.702,0.201
			c-0.315,0.031-0.605,0.062-0.979,0.104c-0.375,0.042-0.833,0.095-1.755,0.212c-0.923,0.118-2.308,0.299-3.691,0.485
			c0.044-0.413,0.282-0.685,1.017-1.166c0.451-0.282,0.824-0.479,1.354-0.757c-0.784-0.584-1.104-0.732-1.898-1.062
			c-2.265-0.893-5.399-1.569-7.807-1.82c-2.457-0.21-5.378-0.467-7.771,0.249c-1.411,0.499-3.786,1.114-6.004,2.78
			c-0.729,0.502-1.421,1.029-2.05,1.56c-2.115,1.813-2.991,2.96-4.041,4.415c-0.845,1.232-1.735,2.662-2.088,3.92
			c-0.226,0.518-0.421,1.008-0.546,1.421c-0.138,0.427-0.321,1.234-0.472,2.126c-0.21,1.354-0.285,2.222-0.312,3.425
			c-0.031,1.604,0.083,3.416,0.376,5.196c0.156,0.985,0.364,2.076,0.643,3.325c0.937,4.18,2.555,9.642,4.386,14.771
			c0.16,1.224,0.296,2.448,0.372,3.303c0.128,1.529,0.103,2.029,0.076,2.861c-0.019,0.354-0.049,0.712-0.094,1.115
			c-0.046,0.402-0.105,0.849-0.257,1.577C8.555,56.684,8.316,57.697,8.05,58.7c0.025,1.581,0.163,3.441,1.374,4.913
			c1.363,1.36,2.029,1.274,3.362,1.344c0.02-0.539,0.02-0.862,0.09-1.455c0.037-0.178,0.086-0.77,0.532-0.822
			c0.464,0.729,1.071,1.9,2.001,2.635c0.657,0.442,1.119,0.523,1.87,0.608c0.003-0.62-0.004-0.509-0.058-1.012
			c-0.112-0.876-0.265-1.978-0.371-3.028c-0.04-0.372-0.083-0.773-0.124-1.176c-0.887-0.715-1.481-0.544-2.38-0.661
			c-0.47-0.036-1.042-0.079-1.614-0.116c-0.424-0.643-0.627-1.338,0.232-1.479c0.497-0.241,1.154-0.167,1.642-1.005
			c0.361-0.588,0.315-0.974,0.352-1.765c-0.06-1.347-0.347-2.595-0.837-4.369c-0.069-0.242-0.121-0.417-0.186-0.629
			c-0.064-0.215-0.141-0.463-0.394-1.249c-0.253-0.785-0.682-2.109-1.048-3.233c-0.366-1.128-0.668-2.058-1.371-4.225
			c-0.702-2.169-1.806-5.576-2.909-8.98c-0.021-0.362-0.08-0.785,0.049-1.021c0.949,1.003,1.313,2.041,2.021,3.348
			c0.397,0.484,0.821,0.948,1.198,1.318c2.185,2.085,3.284,1.866,5.016,1.007c0.334-0.198,0.676-0.451,0.989-0.735
			c0.133-0.287,0.458-0.736,0.588-0.356c0.33,0.458,0.362,1.979,0.429,2.914c0.073,1.229,0.097,1.762,0.14,2.688
			c0.022,0.507,0.048,1.102,0.097,2.406c0.048,1.305,0.121,3.316,0.19,5.329c-0.19,2.049-0.372,4.099-0.483,5.454
			c-0.194,2.421-0.208,2.883-0.254,3.963c-0.034,1.143-0.046,1.928,0.012,2.956c0.034,0.604,0.097,1.352,0.177,2.099
			c1.116,3.174,2.204,5.654,3.719,8.841c1.034,2.176,2.299,4.674,3.652,7.289c0.692,1.333,1.36,2.593,1.961,3.696
			c0.602,1.102,1.135,2.049,1.553,2.759c0.931,1.553,1.394,2.275,2.42,3.371c2,1.95,3.773,2.331,5.857,2.141v-1.106
			c0.594,0.069,1.291,1.111,2.327,1.599c0.495,0.204,0.517,0.191,0.916,0.31c0.273,0.045,0.709,0.3,1.121,0.198
			c0.322-0.067,1.033-0.377,0.961-0.854c0.055-0.114-0.184-0.857-0.201-1.478c0.542-0.087,1.901,0.546,2.591,0.715
			c0.986,0.289,1.213,0.256,1.731,0.154c0.365-0.097,0.697-0.273,1.069-0.589c0.023-0.489,0.101-1.007-0.336-1.689
			c-0.001-0.227-0.468-0.259,0.336-0.394c0.292-0.098,1.029,0.047,2.015,0.092c0.111-0.004,0.18-0.021,0.244-0.049
			c-0.006-0.543-0.031-1.084-0.069-1.517c-0.212-1.407-0.085-1.986-1.33-3.22c-0.082-0.06-0.152-0.099-0.229-0.13
			c-2.756,0.254-6.074,0.636-9.062,0.392c-0.331-0.045-1.001-0.054-1.784-0.365c-0.146-0.082-0.284-0.188-0.423-0.347
			c1.44-0.194,3.423-0.068,5.043-1.257c0.401-0.314,0.625-0.63,0.842-0.979c-0.132-1.07-0.3-2.138-0.461-2.945
			c-0.298-1.476-0.607-2.331-1.005-3.424c-0.182-0.483-0.366-0.931-0.609-1.494c-0.244-0.562-0.548-1.236-1.2-2.549
			c-0.652-1.311-1.653-3.258-2.679-5.188c-1.506-1.178-3.692-2.701-5.376-4.609c-0.549-0.695-0.833-1.339-0.888-1.95
			c0.475,0.088,1.126,0.349,1.593,0.514c0.183,0.068,0.421,0.153,0.959,0.356c0.538,0.201,1.378,0.518,2.218,0.834h2.067
			c0.29-0.374,0.234-0.353,0.287-0.647c0.082-0.814,0.04-1.639-0.022-2.438c-0.183-2.192-0.543-4.994-0.952-7.847
			c0.154-0.291,0.307-0.587,0.398-0.769c0.149-0.298,0.159-0.33,0.205-0.438c3.602-4.358,3.71-8.515,3.354-13.101
			c1.254,0.674,1.501,2.329,1.801,3.625c0.298,1.82,0.516,3.576,0.269,5.587c-0.083,0.275-0.271,0.838-0.329,1.105
			c-0.273,0.807,0.19,1.326,0.833,1.508c0.522,0.118,0.47,0.104,0.952,0.054c1.145-0.163,2.735-0.71,4.037-1.301
			c2.056-0.911,4.273-2.201,6.692-3.452c-1.418,2.188-3.626,4.472-5.754,6.13c-0.866,0.147-1.692,0.244-2.265,0.301
			c-0.381,0.041-1.558,0.146-2.729,0.246c-0.657,0.757-0.695,1.41-0.259,2.166c0.77,0.086,2.91-0.382,4.173-0.508
			c0.771-0.308,1.529-0.646,2.072-0.917c1.334-0.681,1.974-1.229,2.754-1.936c0.278-0.259,0.604-0.571,1.178-1.2
			c0.573-0.629,1.396-1.574,2.196-2.537c0.94-0.72,1.823-1.037,2.481-1.28c0.229-0.082,0.513-0.182,1.108-0.375
			c1.031-0.335,2.812-0.83,4.304-1.595c0.623-0.287,1.243-0.58,1.778-0.839c1.464-0.78,2.703-1.114,4.094-2.552
			c0.062-0.099,0.126-0.218,0.183-0.344c-1.099,0.062-1.15,0.076-2.119,0.389c-0.622,0.214-1.546,0.586-2.353,0.918
			c-0.806,0.331-1.493,0.624-1.963,0.821c-0.982,0.403-1.07,0.428-1.532,0.595c-0.719,0.257-1.569,0.501-2.311,0.588
			c-0.169-0.336,0.725-0.622,1.091-1.071c1.428-1.346,1.737-2.865,1.197-4.083c-0.141-0.631-0.311-1.756,0.104-2.624
			c0.067-0.115,0.159-0.257,0.261-0.39c0.505,0.137,0.623,0.194,1.074,0.481c0.605,0.409,1.154,0.831,1.476,1.084
			c0.812,0.64,1.807,1.413,2.627,2.049c0.93-0.04,1.859-0.083,2.473-0.115c1.479-0.079,1.62-0.097,2.393-0.18
			c0.681-0.038,1.536-0.395,2.282-0.113c0.292,0.056,0.631,0.12,1.28,0.248c0.65,0.131,1.611,0.327,2.362,0.473
			c0.753,0.147,1.298,0.242,1.702,0.299c1.342,0.086,1.829,0.475,2.851-0.438c0.021-0.062,0.023-0.12,0.009-0.18
			c-0.339-0.375-0.673-0.757-0.877-0.997c-0.514-0.6-0.457-0.629-0.592-0.915c-0.202-0.58-0.086-1.036,0.431-1.559
			c0.707-0.065,1.413-0.144,1.877-0.199c1.245-0.161,1.229-0.175,1.95-0.38c0.353-0.112,0.628-0.253,0.929-0.471
			c0.053-0.577,0-1.062-0.161-1.576c-0.161-0.687-1.281-2.557-2.216-3.713C84.38,26.269,83.598,25.324,82.801,24.449z"/>
		<path fill="none" d="M47.159,53.841c-1.104,0.631-2.129,1.26-3.153,1.892c-1.184,2.917-1.655,6.229-2.286,9.224
			c-0.157,4.102,1.183,7.413,2.603,11.197c1.734-0.315,4.1-4.102,5.44-5.598c3.547-5.362,5.677-10.249,7.253-16.479
			C56.621,51.396,48.815,53.365,47.159,53.841z"/>
		<path fill="#312782" d="M84.624,21.146c-0.375-1.062-1.875-2.312-1.875-2.312l0.088-0.139c-0.049-0.022-0.097-0.043-0.146-0.065
			c-0.328-0.646-0.905-1.309-1.446-1.44c-0.297-0.688-0.653-1.352-0.967-1.832c-0.946-1.38-1.781-1.838-3.436-1.941
			c-0.705-0.054-1.67-0.074-2.63-0.039c-1.767-0.538-3.532-1.099-5.301-1.636c-1.748-0.271-3.495-0.542-5.709-0.689
			c-2.214-0.146-4.892-0.171-7.57-0.194c-0.393-0.244-0.539-0.361-1.454-0.956c-0.536-0.347-1.37-0.878-2.208-1.405
			c-1.358-0.697-2.719-1.394-3.629-1.864c-0.909-0.47-1.37-0.714-1.833-0.958l-3.087-1.23c-1.653-0.027-3.312-0.047-4.975-0.062
			c-1.664-0.297-3.305-0.899-4.924-1.847c-0.742-0.161-0.986-0.174-2.106-0.597c0.01,0,0.021-0.001,0.03-0.001l-3.991-0.933
			c0,0-7.521-2.045-11.938-0.295S7.896,7.126,7.896,7.126C7.158,8.114,6.42,9.102,5.804,9.752c-0.618,0.651-1.114,0.966-1.612,1.281
			c-1.942,3.193-3.426,6.185-3.979,8.821l-0.005,0.002C0.104,21.523,0,23.889,0,23.889c0.374,5.269,1.435,10.537,3.341,15.768
			c0.537,1.574,1.146,3.219,1.407,4.328c0.182,0.315,0.34,0.647,0.449,0.924c0.208,0.542,0.194,0.709,0.384,1.649
			c0.207,0.989,0.494,2.099,0.767,2.331c0.229,0.976,0.324,1.977,0.247,3.436c-0.078,1.456-0.33,3.372-0.534,4.651
			c-0.204,1.28-0.36,1.93-0.434,2.761c-0.132,1.66-0.009,3.465,0.386,4.203c0.321,0.787,1.14,1.645,2.357,2.509
			c0.515,0.045,1.026,0.129,1.522,0.248c1.81,0.342,4.157,1.895,5.242,3.352c0.491,0.769,0.93,0.415,1.545,1.013
			c0.627,0.533,0.718,0.881,1.099,1.771c0.24,0.603,0.54,1.432,0.807,2.271l2.135,3.082c0.446,1.255,0.849,2.403,1.097,3.228
			c1.101,1.589,1.979,3.05,2.115,4.173c0.589,0.726,1.178,1.45,2.085,2.654c0.906,1.204,2.133,2.887,3.357,4.572
			c0.436,0.236,0.869,0.475,1.401,0.83c0.792,0.511,1.994,1.521,2.588,1.609c0.365,0.19,0.507,0.068,0.979,0.541
			c3.546,0.055,7.092,0.104,9.529-0.002s3.777-0.318,5.096-0.64l0.192-0.047c0.406-0.479,0.808-0.956,1.078-1.296
			c0.271-0.339,0.413-0.537,0.771-0.993c0.36-0.457,0.912-1.195,1.521-1.886l0.161-0.186v-3.811
			c-0.303-0.885-0.604-1.766-1.235-2.988c-0.63-1.223-1.589-2.787-2.548-4.352c0.021-1.066,0.166-2.15,0.424-3.253
			c1.012-1.6,2.022-3.2,2.925-5.02c0.903-1.819,1.695-3.854,2.488-5.888c1.16-1.719,2.321-3.436,3.132-5.641
			c0.812-2.205,1.273-4.899,1.735-7.593c0.51-1.188,1.021-2.374,1.329-3.073c0.309-0.696,0.418-0.909,0.525-1.119l1.997-1.997
			c1.11-0.57,2.162-1.098,2.624-1.876c2.167-1.269,4.216-2.567,6.073-3.942c0.188-0.711,0.4-1.417,0.623-1.66
			c0.405-0.471,0.913-0.43,1.45-0.447c0.505,0.167,1.008,0.334,1.821,0.426c0.811,0.093,1.933,0.109,3.054,0.127
			c0.786,0.351,1.508,0.678,2.034,0.944h3.927c0.902-0.401,1.771-0.886,2.4-1.316c1.25-0.853,1.729-1.68,2.16-2.814
			c0.481-1.328,0.438-2.971,0.248-4.329c-0.115-0.768-0.309-1.418-0.947-2.628c-0.641-1.211-1.729-2.981-2.912-4.675
			c0.017,0.008,0.031,0.016,0.049,0.022C85.491,23.18,84.943,22.051,84.624,21.146z M49.762,70.555
			c-1.342,1.496-3.706,5.281-5.44,5.598c-1.42-3.784-2.76-7.097-2.603-11.197c0.631-2.994,1.104-6.307,2.286-9.224
			c1.024-0.632,2.051-1.261,3.153-1.892c1.656-0.476,9.462-2.444,9.855,0.234C55.438,60.306,53.309,65.192,49.762,70.555z
			 M87.224,30.791c0.162,0.514,0.214,0.999,0.162,1.576c-0.302,0.218-0.577,0.357-0.93,0.471c-0.721,0.205-0.705,0.219-1.95,0.38
			c-0.464,0.057-1.17,0.134-1.877,0.199c-0.517,0.521-0.633,0.979-0.431,1.559c0.135,0.285,0.078,0.315,0.592,0.915
			c0.204,0.24,0.538,0.622,0.877,0.997c0.016,0.06,0.014,0.116-0.009,0.18c-1.021,0.913-1.509,0.524-2.851,0.438
			c-0.404-0.057-0.949-0.15-1.702-0.299c-0.751-0.146-1.712-0.342-2.362-0.473c-0.648-0.128-0.988-0.192-1.28-0.248
			c-0.746-0.28-1.603,0.075-2.282,0.113c-0.771,0.083-0.913,0.101-2.393,0.18c-0.611,0.032-1.543,0.075-2.473,0.115
			c-0.82-0.636-1.813-1.409-2.627-2.049c-0.32-0.253-0.869-0.675-1.476-1.085c-0.45-0.286-0.569-0.345-1.074-0.48
			c-0.102,0.133-0.192,0.272-0.261,0.39c-0.414,0.868-0.244,1.993-0.104,2.624c0.54,1.217,0.229,2.737-1.197,4.083
			c-0.366,0.449-1.26,0.735-1.091,1.071c0.74-0.087,1.592-0.331,2.311-0.588c0.463-0.167,0.55-0.19,1.532-0.595
			c0.47-0.197,1.157-0.49,1.963-0.821c0.807-0.332,1.729-0.704,2.353-0.918c0.969-0.312,1.021-0.325,2.119-0.389
			c-0.057,0.126-0.121,0.245-0.183,0.344c-1.391,1.438-2.63,1.771-4.094,2.552c-0.535,0.259-1.155,0.552-1.778,0.839
			c-1.492,0.764-3.271,1.26-4.304,1.595c-0.597,0.193-0.881,0.293-1.108,0.375c-0.658,0.243-1.541,0.562-2.481,1.28
			c-0.801,0.963-1.623,1.908-2.196,2.537c-0.574,0.629-0.897,0.941-1.178,1.2c-0.78,0.707-1.42,1.255-2.754,1.936
			c-0.543,0.271-1.302,0.609-2.072,0.917c-1.263,0.126-3.403,0.594-4.173,0.507c-0.438-0.755-0.398-1.408,0.259-2.166
			c1.172-0.101,2.349-0.204,2.729-0.245c0.571-0.057,1.397-0.152,2.265-0.301c2.128-1.658,4.336-3.94,5.754-6.13
			c-2.419,1.251-4.638,2.541-6.692,3.452c-1.302,0.591-2.894,1.138-4.036,1.301c-0.483,0.052-0.431,0.064-0.953-0.054
			c-0.643-0.182-1.106-0.701-0.833-1.508c0.06-0.269,0.246-0.83,0.329-1.105c0.248-2.011,0.029-3.767-0.269-5.587
			c-0.3-1.296-0.547-2.951-1.801-3.625c0.354,4.586,0.246,8.741-3.354,13.101c-0.045,0.108-0.055,0.142-0.204,0.438
			c-0.093,0.182-0.245,0.478-0.399,0.769c0.409,2.853,0.771,5.653,0.952,7.847c0.062,0.8,0.104,1.623,0.022,2.438
			c-0.053,0.296,0.003,0.273-0.287,0.647h-2.067c-0.839-0.316-1.679-0.633-2.218-0.834c-0.539-0.203-0.776-0.288-0.959-0.356
			c-0.466-0.165-1.118-0.426-1.593-0.514c0.056,0.611,0.34,1.255,0.888,1.95c1.684,1.908,3.871,3.433,5.376,4.609
			c1.024,1.931,2.025,3.878,2.679,5.188c0.652,1.312,0.956,1.987,1.2,2.549c0.243,0.563,0.429,1.011,0.609,1.494
			c0.396,1.093,0.707,1.948,1.006,3.424c0.16,0.809,0.328,1.875,0.46,2.945c-0.217,0.349-0.439,0.663-0.842,0.979
			c-1.619,1.188-3.603,1.062-5.043,1.257c0.14,0.159,0.277,0.265,0.424,0.347c0.781,0.312,1.452,0.32,1.783,0.365
			c2.988,0.243,6.307-0.138,9.062-0.392c0.077,0.031,0.147,0.07,0.229,0.13c1.245,1.232,1.118,1.812,1.33,3.22
			c0.038,0.433,0.063,0.974,0.069,1.517c-0.064,0.027-0.133,0.045-0.244,0.049c-0.984-0.045-1.723-0.188-2.015-0.092
			c-0.804,0.135-0.337,0.167-0.336,0.394c0.437,0.684,0.359,1.2,0.336,1.689c-0.372,0.314-0.704,0.492-1.069,0.589
			c-0.52,0.102-0.745,0.135-1.73-0.154c-0.689-0.169-2.05-0.802-2.592-0.715c0.019,0.619,0.256,1.362,0.201,1.478
			c0.072,0.479-0.639,0.787-0.961,0.854c-0.412,0.102-0.848-0.153-1.121-0.199c-0.398-0.116-0.421-0.104-0.916-0.309
			c-1.036-0.486-1.732-1.528-2.327-1.599v1.106c-2.083,0.19-3.857-0.189-5.857-2.141c-1.026-1.096-1.489-1.818-2.42-3.371
			c-0.418-0.71-0.952-1.657-1.553-2.759c-0.601-1.104-1.269-2.363-1.961-3.696c-1.354-2.615-2.617-5.113-3.652-7.289
			c-1.515-3.187-2.603-5.667-3.719-8.841c-0.08-0.747-0.143-1.495-0.177-2.099c-0.058-1.028-0.045-1.813-0.012-2.956
			c0.046-1.08,0.06-1.542,0.254-3.964c0.111-1.354,0.292-3.404,0.483-5.453c-0.069-2.013-0.143-4.024-0.19-5.329
			c-0.049-1.306-0.074-1.899-0.097-2.406c-0.042-0.926-0.065-1.459-0.14-2.688c-0.066-0.935-0.1-2.457-0.429-2.914
			c-0.13-0.38-0.455,0.069-0.588,0.356c-0.313,0.284-0.655,0.537-0.989,0.735c-1.731,0.859-2.832,1.078-5.016-1.007
			c-0.377-0.37-0.8-0.834-1.198-1.318c-0.707-1.307-1.072-2.345-2.021-3.348c-0.128,0.235-0.069,0.658-0.049,1.021
			c1.104,3.404,2.207,6.812,2.909,8.98c0.703,2.167,1.005,3.097,1.371,4.225c0.366,1.124,0.795,2.448,1.048,3.233
			c0.253,0.786,0.329,1.034,0.394,1.249c0.064,0.212,0.117,0.387,0.186,0.629c0.491,1.774,0.777,3.022,0.837,4.369
			c-0.035,0.79,0.011,1.177-0.352,1.765c-0.487,0.838-1.145,0.764-1.642,1.005c-0.859,0.142-0.656,0.837-0.232,1.479
			c0.572,0.038,1.145,0.081,1.614,0.117c0.898,0.117,1.495-0.054,2.38,0.661c0.041,0.401,0.083,0.804,0.124,1.176
			c0.106,1.052,0.259,2.152,0.371,3.028c0.054,0.503,0.062,0.392,0.058,1.012c-0.751-0.085-1.213-0.166-1.87-0.608
			c-0.93-0.733-1.537-1.905-2.001-2.636c-0.446,0.055-0.496,0.646-0.532,0.823c-0.07,0.593-0.07,0.916-0.09,1.455
			c-1.333-0.068-1.999,0.018-3.362-1.344c-1.21-1.472-1.349-3.332-1.373-4.913c0.266-1.003,0.505-2.017,0.654-2.745
			c0.15-0.729,0.211-1.175,0.257-1.577c0.045-0.403,0.076-0.761,0.094-1.116c0.025-0.831,0.052-1.331-0.076-2.86
			c-0.076-0.854-0.212-2.079-0.372-3.303c-1.833-5.127-3.451-10.589-4.388-14.769c-0.278-1.249-0.486-2.34-0.643-3.325
			c-0.293-1.78-0.408-3.593-0.376-5.196c0.025-1.204,0.102-2.07,0.312-3.425c0.149-0.892,0.333-1.699,0.472-2.126
			c0.125-0.413,0.32-0.903,0.546-1.421c0.354-1.259,1.244-2.688,2.088-3.92c1.05-1.455,1.926-2.602,4.041-4.415
			c0.629-0.53,1.32-1.058,2.05-1.56c2.218-1.666,4.593-2.281,6.004-2.78c2.394-0.716,5.314-0.459,7.771-0.249
			c2.407,0.251,5.542,0.929,7.807,1.82c0.796,0.33,1.114,0.479,1.898,1.062c-0.53,0.277-0.903,0.475-1.354,0.757
			c-0.734,0.48-0.972,0.754-1.017,1.166c1.384-0.187,2.769-0.367,3.691-0.485c0.922-0.117,1.38-0.17,1.755-0.212
			c0.374-0.042,0.665-0.073,0.979-0.104c1.153-0.115,2.271-0.18,3.702-0.201c2.064,0.538,4.071,1.208,5.928,2.356
			c1.182,0.757,1.775,1.521,1.703,2.299c-0.47-0.009-0.939,0.01-1.266,0.046c-0.5,0.072-0.576,0.079-1.104,0.359
			c0.032,0.09,0.138,0.166,0.21,0.223c2.466,0.052,4.932,0.113,6.582,0.162c1.65,0.048,2.488,0.083,3.179,0.114
			c0.689,0.031,1.232,0.059,1.813,0.093c1.288,0.083,2.325,0.149,3.979,0.333c0.892,0.101,2.045,0.246,3.194,0.404
			c1.253,0.376,2.484,0.754,3.015,0.928c0.777,0.247,1.993,0.681,3.278,1.193c1.312-0.083,2.258-0.495,3.587,0.317
			c0.064,0.104,0.114,0.218,0.196,0.516c0.082,0.297,0.194,0.777,0.295,1.166c0.102,0.388,0.188,0.683,0.284,0.976
			c0.921,0.693,1.837,1.394,2.178,1.671c0.52,0.411,1.507,1.297,1.562,1.437c0.319,0.598,0.195,1.903,0.237,2.144
			c0.798,0.875,1.579,1.819,2.208,2.629C85.942,28.234,87.062,30.104,87.224,30.791z"/>
	</g>
</g>
</svg>
