<?xml version="1.0" encoding="utf-8"?>
<!-- Generator: Adobe Illustrator 16.0.0, SVG Export Plug-In . SVG Version: 6.00 Build 0)  -->
<!DOCTYPE svg PUBLIC "-//W3C//DTD SVG 1.1//EN" "http://www.w3.org/Graphics/SVG/1.1/DTD/svg11.dtd">
<svg version="1.1" id="Layer_1" xmlns="http://www.w3.org/2000/svg" xmlns:xlink="http://www.w3.org/1999/xlink" x="0px" y="0px"
	 width="133.569px" height="133.453px" viewBox="0 0 133.569 133.453" enable-background="new 0 0 133.569 133.453"
	 xml:space="preserve">
<g>
	<g>
		<g>
			<path stroke="#292627" stroke-width="0.216" stroke-miterlimit="2.6131" d="M129.364,65.79c-0.601-0.354-1.179-0.797-1.634-1.381
				c-0.438-0.478-0.887-1.471-0.011-2.066c1.056-0.438,3.009-2.931,3.807-4.784c0.415-0.987,0.511-2.565-0.028-3.318
				c-0.062-0.224-0.247-0.246-0.376,0.006c-1.067,1.589-2.095,2.662-3.588,3.65c-0.837,0.477-1.915,0.572-2.858,0.005
				c-0.539-0.298-0.96-0.752-1.291-1.229c-0.69-0.87-0.674-2.032,0.006-2.734c2.111-0.32,4.497,0.174,6.9-3.7v-1.881
				c-0.253-1.146-0.747-1.066-1.106-0.286c-0.274,0.398-0.606,0.727-1.038,0.963c-1.701,0.674-3.178,0.648-3.532-0.323
				c-0.438-0.876-1.021-1.763-1.842-2.493c-0.354-0.494-0.382-0.786-0.09-1.179c1.46-1.28,2.746-2.397,3.808-4.082
				c1.207-2.333,0.235-3.801-0.557-5.438c-0.247-0.385-0.831-0.441-1.095,0.008c-0.045,2.37-0.713,4.61-2.998,6.322
				c-0.545,0.503-1.398,0.778-2.095-0.011c-0.477-0.601-0.836-1.16-1.369-2.218c-0.686-1.14-0.512-2.285-0.028-2.791
				c1.083-0.966,1.976-2.116,2.857-3.995c0.438-1.073,0.943-1.85,1.562-2.501c0.993-0.758,1.617-1.252,2.515-2.201
				c0.59-0.865,1.376-1.977,1.208-4.188c-0.18-0.489-1.163-0.433-1.539,0.295c-0.629,1.507-0.825,1.996-1.887,2.523
				c-2.392,0.795-4.356,1.398-6.676,3.091c-0.909,0.727-2.111,1.732-2.134,2.858c-0.764,2.029-1.005,6.308-1.577,6.704
				c-0.488,0.367-0.988,0.479-1.511,0c-0.595-0.958-1.224-1.855-1.909-3.282c-0.235-0.701-0.039-2.481-0.28-2.791
				c-0.163-0.432-0.449-0.421-1.067,0c-0.803,0.977-1.207,2.021-1.432,2.875c-0.37,1.045-0.23,2.059-0.039,3.465
				c0.286,1.926,1.505,3.7,2.465,5.064c2.763,3.604,5.822,7.142,7.513,11.269c0.365,0.714,0.314,1.433,0.758,2.14
				c0.298,0.988,0.225,1.965-0.118,2.942c-0.764,1.797-1.662,3.38-3.121,4.823c-0.202,0.258-0.949,0.404-1.337-0.012
				c-1.87-2.628-5.991-6.002-10.854-6.845l-8.274,0.022c-3.639,0.32-10.68,0.809-16.985,0.359c-2.645-0.746-4.772-1.297-7.049-4.722
				c-1.748-2.185-0.511-8.823,0.334-10.856c1.111-1.794,2.263-3.354,4.329-4.23c1.264-0.354,2.723-0.371,4.082,0.017
				c1.336,0.365,2.555,1.662,3.75,3.145c0.242,0.455,0.449,0.482,0.674,0.011l0.006-4.121l-0.264-1.303
				c-0.91-2.158-1.646-2.841-3.2-4.351c-0.775-1.224-0.337-1.375,0.527-1.786h1.909c2.257,0.848,3.734,2.019,5.34,3.751
				c0.46,0.343,0.685,0.373,1.354-0.304c0.039-0.517-0.124-0.679-0.371-1.021c-0.517-1.69-1.111-3.307-2.189-4.964
				c-1.146-0.929-1.999-1.847-3.981-2.347c-0.354-0.264-0.388-0.758-0.039-1.039l1.168-0.969c0.505-0.323,1.258-0.326,1.926-0.011
				c1.354,0.393,2.763,1.261,3.937,2.201c0.415,0.446,0.758,0.44,1.1-0.003c0.13-0.77-0.387-1.738-0.954-2.605
				c-0.825-1.064-2.583-2.097-4.043-3.133c-0.999-0.713-2.167-2.083-3.515-2.707c-0.286-0.764-0.449-1.524-0.848-2.285
				c-0.208-0.562-0.696-1.011-1.303-1.477c-0.623-0.699-0.5-1.502-0.017-2.207c0.932-0.958,1.914-1.991,3.543-2.516l3.447,0.135
				c0.455-0.368,0.994-0.775,0.292-1.154c-0.831-0.604-1.516-0.918-3.408-1.277l-4.268,0.017c-1.808,0.011-4.609,1.21-6.929,1.977
				l-3.652,0.011c-1.159-0.421-2.114-1-2.848-2.128c-0.227-0.674-0.112-1.345,0.049-2.016c0.699-2.016,2.152-3.616,3.681-4.093
				c0.585-0.163,0.55-0.719,0.033-0.977l-2.174,0.011c-2.74,0.904-3.754,1.539-6.459,4.565c-1.019,1.628-3.563,2.549-4.818,2.942
				c-0.997,0.447-2.027,0.904-2.879,1.665c-1.088,1.008-2.482,1.698-3.981,2.299l-3.388,0.005c-0.564-0.483-2.044-0.859-3.174-1.14
				h-1.046c-0.349,0.264-0.531,0.724,0.014,1.348l4.179,4.104c0.115,0.663-0.065,0.812-0.292,1.168l-5.132-0.062
				c-2.314,1.488-4.715,2.571-6.942,4.096c-0.513,0.508-0.817,1.474-1.115,1.979c-1.791,1.14-3.443,1.954-4.544,2.976L27.073,26.5
				c0.595,0.747,1.446,1.294,2.242,1.617l1.482,0.009c0.474-0.191,0.696-0.317,1.217-0.719c0.65-0.225,1.301-0.191,1.988,0.05
				c0.196,0.177,0.213,0.606,0.032,0.848c-0.63,0.362-1.232,0.797-1.61,1.297c-0.272,0.348-0.261,0.592-0.042,0.98
				c0.368,0.339,0.757,0.463,1.268,0.66c0.329,0.168,0.622,0.292,1.21,0.011c1.456-1.275,2.505-0.657,4.385-2.864
				c0.693,0.121,1.811,0.115,2.079,0.359c1.044,0.48,2.542,0.34,3.374,0.949c0.528,0.505,0.529,1.112-0.042,1.747
				c-0.839,0.786-1.419,1.65-1.926,3.324c-0.157,1.078-0.351,1.948-1.537,2.605c-5.014,2.847-7.619,7.339-9.686,12.622
				c-0.626,1.566-1.127,3.268-1.876,4.705c-0.532,0.455-1.564,0.842-2.695,0c-0.509-0.421-1.363-0.887-2.178-1.274
				c-0.715-0.713-1.793-1.387-1.989-2.442c-0.637-1.646-1.544-3.288-2.763-4.787c-1.125-0.867-2.213-0.427-3.359,0.295
				c-1.125,0.635-2.261,1.758-2.832,3.257l-1.708,2.1c-0.713,0.343-0.74,1.921-1.301,2.442c-1.438,2.258-3.053,4.026-4.284,6.34
				l-1.661,5.3c-0.272,1.364-1.531,1.858-1.308,4.166l-1.244,1.432c-0.747,0.849-1.418,2.089-1.861,3.038
				c-0.383,0.819-0.508,2.358-0.02,3.071c0.393,0.359,1.69,0.482,1.903,0.067c1.691-1.207,3.041-1.746,4.781-2.285
				c0.511-0.466,0.71-1.404,0.323-1.909c-0.367-0.354-0.691-0.64-1.14-0.864c-0.363-0.916-0.368-1.887,0.025-2.959l0.4-1.078
				c1.236-0.708,2.108-2.14,2.912-3.853c0.374-0.499,0.191-1.724,0.541-2.375c0.4-1.185,0.816-2.139,1.658-3.638
				c1.732-2.729,2.939-4.57,4.708-6.188c0.434-0.629,1.711-0.803,2.152-0.079l4.949,6.935c0.574,0.882,0.465,3.037,0.922,3.723
				c0.663,1.746,1.098,3.335,3.895,3.633l1.877,0.27c0.663,0.746,1.119,1.583,1.396,2.431c0.364,0.382,0.538,1.409,0.107,1.668
				c-4.478,2.055-7.594,1.219-10.369,2.476c-0.616,0.338-2.211,0.107-2.791,0.186c-1.967,0.68-2.396,2.847-1.646,5.048
				c0.751,1.022,0.423,6.002,0.684,8.854c0.061,3.964-0.05,7.445,0.446,11.017c0.28,1.277,0.966,2.249,2.1,2.737
				c2.107,0.707,2.906,2.981,4.396,4.958c0.838,0.741,1.23,0.685,1.946,0.067l3.655-4.189c0.686-1.185,0.188-1.897-0.585-2.206
				h-2.306c-0.928,0.668-1.833,0.567-2.043-0.022c-0.126-0.641-0.682-0.898-1.337-1.112c-0.646-0.123-0.824-0.435-0.889-0.727
				l-0.074-2.549c-0.275-2.746-1.304-5.183-1.205-8.282l0.152-5.935l0.505-0.635c0.977-0.819,0.595-2.021,1.322-2.571
				c1.617,0.106,3.978,0.117,4.851,0.319c1.346,0.281,2.396,0.916,3.94,1.235c2.287,0.118,3.043,0.606,4.245,0.904
				c1.55,0.32,2.843,0.494,4.52,0.051c2.14-0.562,3.494-1.527,5.112-2.83c1.376-1.123,2.096-1.011,2.927,0.022
				c1.714,1.724,3.692,3.104,6.429,4.155l4.315,1.477c5.688,0.685,11.669-0.163,15.863,0.297c0.893,0.528,1.848,0.32,0.988,2.848
				c-0.478,1.521-0.601,3.127-0.034,4.693c0.478,1.685,2.393,3.914,4.055,5.732c0.432,0.741,0.791,0.966,0.977,2.614
				c0.135,1.409-0.506,1.937-1.358,2.498c-1.864,1.702-2.55,3.01-3.645,4.357c-0.651,1.072-1.258,1.589-2.51,2.577
				c-3.11,2.134-5.974,4.026-9.165,5.969c-1.639,1.174-3.22,2.358-3.914,4.031c-1.315,2.477-2.707,3.784-3.006,4.363
				c-0.301,0.583-0.029,1.971,1.646,1.701l5.354-1.55c0.212-0.371,0.4-0.635-0.033-1.752c-0.475-1.982,0.571-2.695,1.604-3.56
				c3.123-2.072,6.268-4.021,9.653-5.738c3.975-2.044,7.731-4.352,11.566-6.996c0.556-0.584,1.162-0.894,1.589-1.735
				c0.022-2.414-0.494-4.807-0.567-7.24c0.629-0.505,1.162-1.101,1.685-1.803c0.663-0.566,1.313-0.679,1.942-0.011
				c2.105,3.257,4.464,4.781,9.848,6.605c0.589,0.612,1.628,0.949,1.156,2.724c-1.291,4.48-2.571,7.562-4.962,10.909
				c-2.33,2.387-4.503,4.492-6.945,6.873c-1.056,0.943-1.831,2.071-2.291,3.638c-1.241,1.482-2.291,2.92-3.347,4.503
				c-0.842,0.927-0.898,2.409,0.006,2.679c0.78,0.292,1.426,0.482,2.342-0.017c1.302-1.135,4.626-0.388,5.457-2.162
				c0.208-0.415,0.208-0.836,0-1.398c-0.343-1.005-0.707-2.51,0.096-3.362c2.588-1.668,4.615-3.661,8.151-4.998
				c1.516-0.881,1.981-1.571,2.51-2.992c0.337-0.819,0.702-1.544,1.173-2.218c1.725-2.808,3.089-4.043,5.172-6.081
				c0.651-0.415,1.19-0.398,1.24-2.499c0.292-1.117,0.696-1.347,1.19-1.589c0.567-0.398,0.427-1.218,0.034-1.875
				c-0.837-1.69-1.746-2.252-2.583-3.571c-1.387-1.529-2.403-3.293-3.392-5.207c-0.472-1.954-0.724-3.645-0.078-5.936
				c1.937-5.3,6.176-7.58,7.586-13.082c0.409-1.943,0.533-3.986-0.028-5.812c-0.163-0.365-0.124-0.68,0.387-1.129
				c1.028-1.05,1.887-2.043,3.206-2.521c0.696-0.309,1.404-0.304,2.207,0c1.96,0.55,3.526,1.442,5.396,2.195l2.959-0.028
				c1.556-0.466,2.869-1.286,3.684-2.768L129.364,65.79z M67.425,36.508c-0.286,1.693-1.049,2.376-1.896,3.167
				c-0.816,0.539-1.904,0.78-2.793,0.034c-0.542-0.888-0.147-1.999-0.375-3.004c0.046-9.843-0.708-14.335-2.366-18.467
				c-0.506-1.373-1.535-2.457-2.553-3.234c-0.596-0.604-0.572-1.648,0.25-2.532c0.594-0.196,1.551-0.191,2.089,0.031
				c3.735,0.935,6.531,4.284,7.73,9.891C68.1,27.177,67.968,31.854,67.425,36.508z"/>
		</g>
	</g>
</g>
</svg>
