<?xml version="1.0" encoding="utf-8"?>
<!-- Generator: Adobe Illustrator 16.0.0, SVG Export Plug-In . SVG Version: 6.00 Build 0)  -->
<!DOCTYPE svg PUBLIC "-//W3C//DTD SVG 1.1//EN" "http://www.w3.org/Graphics/SVG/1.1/DTD/svg11.dtd">
<svg version="1.1" id="Logo" xmlns="http://www.w3.org/2000/svg" xmlns:xlink="http://www.w3.org/1999/xlink" x="0px" y="0px"
	 width="235.42px" height="216.523px" viewBox="0 0 235.42 216.523" enable-background="new 0 0 235.42 216.523"
	 xml:space="preserve">
<g>
	<polygon fill="#ED1C24" points="0.009,216.523 235.42,216.515 0,0 	"/>
</g>
<g>
	<path fill="#FFFFFF" d="M0,55.989c0.055,1.659,0.349,5.231,0.962,7.148c9.379,29.391,62.56,17.773,97.208,67.289
		c0.029,0,6.574,0.726,11.013-7.253c0,0-9.188-0.704-9.747-7.636c0,0,18.815,3.758,30.128,12.928c0,0,0.152,4.089-13.01,4.163
		c-2.623,0.174-3.737,0.347-7.904,4.446c0,0-10.544,11.451-21.254,11.277c-3.264-0.119-5.757-1.357-5.922-2.329
		c0,0-0.44-1.384,2.017-0.881c0,0,5.729,1.533,8.417-0.942c0,0-2.439-3.504-6.694-3.467c-2.558-0.146-5.263,0.716-6.968,3.036
		c0,0-8.49,10.699,15.752,21.958c35.251,15.422,54.872,38.145,52.028,44.047c0.041,0.019,0,0,0,0
		c-3.428-2.476-32.071-38.141-81.46-42.231c0,0,0.256-0.752,0.458-1.771c5.153-24.7-6.345-41.424-19.336-50.968
		C32.567,104.215,7.519,95.465,0,71.985V55.989z"/>
</g>
</svg>
