<?xml version="1.0" encoding="utf-8"?>
<!-- Generator: Adobe Illustrator 16.0.0, SVG Export Plug-In . SVG Version: 6.00 Build 0)  -->
<!DOCTYPE svg PUBLIC "-//W3C//DTD SVG 1.1//EN" "http://www.w3.org/Graphics/SVG/1.1/DTD/svg11.dtd">
<svg version="1.1" id="Layer_1" xmlns="http://www.w3.org/2000/svg" xmlns:xlink="http://www.w3.org/1999/xlink" x="0px" y="0px"
	 width="192.756px" height="192.756px" viewBox="0 0 192.756 192.756" enable-background="new 0 0 192.756 192.756"
	 xml:space="preserve">
<g>
	<polygon fill="#FFFFFF" points="0,0 192.756,0 192.756,192.756 0,192.756 	"/>
	<path d="M103.235,72.039c-3.35-6.203-7.583-11.514-10.07-12.628c-1.614-0.724-3.667-1.425-5.219-0.42
		c-1.313,0.851-1.899,2.603-1.899,5.683c0,2.877-0.516,3.917-0.75,4.239c-1.255-0.761-2.155-0.534-2.732-0.136
		c-1.311,0.903-1.404,3.18-1.407,3.713l-45.985,31.713c-2.212,0.854-3.786,3-3.786,5.508c0,0.207,0.012,0.412,0.032,0.615
		c-5.77,0.149-9.827,0.625-9.827,2.002c0,0.297,0.191,0.582,0.541,0.854c1.817,1.414,8.036,2.457,15.432,2.457
		c0.185,0,0.368-0.002,0.551-0.002v1.006c-0.183,0.002-0.366,0.002-0.551,0.002c-8.233,0-15.01-1.291-15.876-2.948l-0.376,0.422
		h-1.515v-6.062c0-0.188-0.064-0.371-0.183-0.518c-0.183-0.229-1.64-2.033-2.365-2.838v-2.725c0.485-0.693,0.808-1.902,0.808-3.279
		c0-2.152-0.785-2.805-1.753-2.805c-0.968,0-1.753,0.653-1.753,2.805c0,1.592,0.43,2.959,1.046,3.564v2.766
		c0,0.219,0.087,0.43,0.242,0.584c0.385,0.385,1.66,1.938,2.306,2.738v8.108h-4.407v10.563c-3.612,0.744-5.113,5.521-5.18,5.738
		c-0.103,0.338-0.058,0.701,0.124,1.002l5.234,8.678h0.001c0.219,0.363,0.615,0.601,1.061,0.601H67.73
		c0.61,0,1.129-0.442,1.225-1.047c0.026-0.166,0.238-1.687-0.445-3.478c-0.636-1.662-2.184-3.869-5.952-4.934
		c-3.372-0.953-4.251-1.402-4.456-2.008c4.957-0.408,8.869-4.988,9.632-5.941c0.342-0.428,0.73-1.061,1.222-1.863
		c1.457-2.377,3.659-5.969,6.854-7.905c3.601-2.183,7.882-1.679,8.832-1.529c0.202,0.226,0.446,0.424,0.73,0.588
		c1.06,0.611,2.453,0.629,3.466,0.045c0.853-0.491,1.273-1.354,1.273-2.366v-4.683h-5.338c1.308-2.082,0.853-4.92,0.475-6.397
		l7.998-1.494c0.22,0.502,0.584,0.916,1.069,1.197c0.904,0.521,2.1,0.506,3.047-0.041c0.337-0.195,0.619-0.441,0.843-0.73
		c0.289,0.227,0.633,0.521,1.017,0.904c3.506,3.506,5.9,3.555,7.293,2.979c2.262-0.938,3.362-3.91,3.362-9.088
		C109.875,85.754,105.715,76.632,103.235,72.039L103.235,72.039z"/>
	<path fill="#FFFFFF" d="M86.461,110.399H87.7v1.652c0,0.146-0.353,0.385-0.582,0.385c-0.377,0-0.657-0.246-0.657-0.385V110.399
		L86.461,110.399z"/>
	<path fill="#FFFFFF" d="M82.391,107.515c-0.145,0.108-0.252,0.252-0.32,0.407H50.967l32.237-6.019
		C83.551,103.228,84.095,106.215,82.391,107.515L82.391,107.515z"/>
	<path fill="#FFFFFF" d="M14.297,138.274l-3.185-5.278c0.441-1.084,1.669-4.117,3.589-4.117l4.8,4.908
		C16.371,134.854,14.945,136.748,14.297,138.274L14.297,138.274z"/>
	<path fill="#FFFFFF" d="M61.882,135.974c3.618,1.021,4.455,3.248,4.617,4.592H16.206c0.161-1.34,0.997-3.568,4.618-4.592
		c2.385-0.675,3.812-1.209,4.724-1.785c0.099,0.024,0.203,0.041,0.311,0.041H56.71c0.142,0,0.277-0.025,0.404-0.068
		C58.024,134.748,59.458,135.287,61.882,135.974L61.882,135.974z"/>
	<path fill="#FFFFFF" d="M47.522,106.463c-0.401-2.317-1.96-4.944-2.851-6.301l37.604-25.933
		c2.296,1.976,10.836,10.242,10.744,23.741L47.522,106.463L47.522,106.463z"/>
	<path fill="#FFFFFF" d="M96.599,99.142c-0.197,0.305-0.585,0.399-0.822,0.399c-0.21,0-0.399-0.062-0.519-0.166
		c-0.046-0.043-0.188-0.168-0.189-0.541c0.285-8.945-3.011-15.722-5.828-19.834c-2.564-3.743-5.163-5.985-6.013-6.669
		c-0.668-1.093,0.21-1.844,0.564-1.817c0.037-0.001,0.38-0.021,1.263,0.827c2.845,2.736,11.42,10.982,11.66,26.68
		C96.721,98.278,96.781,98.819,96.599,99.142L96.599,99.142z"/>
	<path fill="#FFFFFF" d="M105.562,102.049c-0.951,0.394-2.668-0.521-4.59-2.44c-0.931-0.931-1.707-1.476-2.193-1.769
		c-0.281-15.333-8.108-23.891-11.596-27.315c0.12-0.148,0.239-0.318,0.354-0.519c0.657-1.149,0.99-2.943,0.99-5.332
		c0-2.803,0.537-3.453,0.767-3.602c0.232-0.15,0.911-0.271,2.858,0.601c3.572,1.601,15.245,18.231,15.245,33.577
		C107.396,100.854,105.992,101.869,105.562,102.049L105.562,102.049z"/>
	<path fill="#FFFFFF" d="M41.951,125.867c0,0.489-0.398,0.889-0.887,0.889c-0.237,0-0.46-0.092-0.627-0.26
		c-0.168-0.168-0.26-0.392-0.26-0.629c0-0.236,0.092-0.459,0.26-0.627c0.167-0.168,0.391-0.261,0.627-0.261s0.459,0.093,0.627,0.261
		S41.951,125.631,41.951,125.867L41.951,125.867z"/>
	<polygon fill="#FFFFFF" points="41.766,122.178 40.113,122.178 40.113,115.151 41.766,115.151 	"/>
	<path d="M184.233,130.875c-0.195-1.961-1.926-3.479-2.867-4.166c3.9-8.149,2.802-11.36,1.553-15.004
		c-0.126-0.369-0.257-0.748-0.382-1.136c-1.56-4.819-10.738-23.835-13.642-28.257c-3.043-4.638-15.262-10.648-15.779-10.901
		c-0.082-0.04-0.166-0.069-0.252-0.09c-3.239-5.921-12.441-13.325-12.879-13.675c-0.215-0.171-0.467-0.259-0.723-0.269
		c-0.713-2.097-1.955-4.057-3.697-5.798c-3.168-3.169-7.229-4.879-9.438-4.879c-0.233,0-0.472,0.011-0.711,0.03
		c-0.896-0.408-1.806-1.396-2.457-1.614c-0.826-0.275-2.203-0.826-2.894-1.102c-0.688-0.276-2.892-1.653-3.719-1.515
		c-0.826,0.138-1.652,0.688-2.203,1.515c-0.551,0.826-2.893,4.407-4.545,5.371c-1.652,0.964,0.139,1.791,1.516,1.653
		c1.378-0.138,2.893-0.964,3.58-1.791c0.652-0.782,2.166-0.207,1.509,0.792c-1.669,0.965-2.984,1.954-3.566,2.71
		c-1.305,1.695-1.372,2.553-1.325,3.578c0.004,0.123,0.01,0.239,0.01,0.357c0,1.016-0.045,1.615-0.978,2.123
		c-0.35,0.19-0.862,0.454-1.458,0.759c-3.302,1.691-4.859,2.564-5.359,3.267c-0.252,0.351-0.453,0.828-0.565,1.415
		c-0.022,0.078-0.035,0.16-0.039,0.244c-0.2,1.438,0.123,3.47,1.511,5.923c1.603,2.836,5.908,4.224,8.223,4.968
		c0.49,0.159,1,0.322,1.166,0.406c1.455,0.727,2.332,0.13,2.912-0.265c0.097-0.065,0.188-0.126,0.276-0.181
		c0.409-0.189,1.966-0.051,2.411,0.47c0.658,0.767,1.788,3.942,1.549,6.1c-0.285,2.569,0.365,11.944,1.535,17.012l1.082,4.502
		c1.083,4.479,2.721,11.25,2.902,12.254c0.262,1.438,0.809,10.109,0.539,12.939c-0.127,1.328-0.676,1.512-2.016,1.836
		c-0.515,0.125-1.877,0.664-2.059,0.75c-1.508,0.711-3.782,1.787-3.782,4.262c0,2.203,1.819,3.027,3.006,3.201
		c0.974,0.609,2.063,0.658,2.685,0.623c1.048,0.715,1.994,0.504,3.574,0.146c0.597-0.133,1.332-0.34,2.287-0.478
		c4.817-0.696,4.332-5.592,4.332-5.592c0.43-3.543,0.678-4.609,0.812-4.879c0.507-1.015,1.276-4.597,0.598-6.464
		c-0.378-1.039-0.887-4.551-1.19-6.647c-0.11-0.764-0.205-1.424-0.275-1.844c-0.128-0.769,0.195-2.66,0.557-4.298
		c0.127,0.107,0.256,0.203,0.385,0.283c1.021,0.64,3.914,2.267,4.496,2.592c0.469,1.748,0.941,3.523,1.062,4.354
		c0.255,1.787-0.006,12.554-0.146,14.943c-0.09,1.521-0.56,1.666-2.17,1.936c-2.252,0.375-4.582,2.404-4.582,5.15
		c0,0.869,0.311,1.625,0.895,2.182c0.951,0.91,2.357,1.043,2.951,1.056c0.879,0.735,2.517,0.752,2.599,0.768
		c2.552,1.729,5.298,0.193,6.976-0.746c0.272-0.152,0.529-0.297,0.748-0.406c0.896-0.447,1.274-1.445,1.364-2.789
		c0.563,0.322,1.308,0.707,2.291,1.154c6.659,3.025,14.913,1.268,20.375,0.105l1.472-0.312c2.383-0.487,3.948-1.375,4.664-2.637
		c0.739-0.156,1.861-0.775,3.815-2.574C184.132,133.024,184.319,131.733,184.233,130.875L184.233,130.875z"/>
	<path fill="#FFFFFF" d="M115.954,73.567c-0.145,0.086-0.271,0.173-0.385,0.25c-0.455,0.31-0.455,0.31-0.825,0.125
		c-0.201-0.101-0.478-0.202-0.83-0.32c0.3-0.072,0.595-0.162,0.881-0.272c0.531-0.207,0.795-0.806,0.588-1.337
		c-0.207-0.531-0.806-0.795-1.337-0.588c-2.143,0.833-5.277,0.103-5.309,0.096l0,0c-0.061-0.015-0.121-0.022-0.182-0.026
		c-0.545-0.314-1.048-0.662-1.469-1.049c0.096-0.602,0.328-2.019,0.635-3.653c0.197-1.057-0.176-1.758-0.523-2.159
		c-0.422-0.486-1.008-0.765-1.57-0.924c0.956-0.641,3.077-1.728,4.2-2.303c0.606-0.312,1.133-0.58,1.506-0.784
		c2.054-1.12,2.054-2.953,2.054-3.937c0-0.165-0.008-0.316-0.014-0.45c-0.027-0.622-0.045-0.998,0.9-2.226
		c1.099-1.428,7.836-5.244,11.853-5.244c1.494,0,5.062,1.358,7.979,4.274c1.731,1.732,3.797,4.631,3.797,8.604
		c0,0.571,0.463,1.033,1.033,1.033c0.139,0,0.271-0.028,0.391-0.077c-0.131,2.799-1.205,6.012-2.943,8.552
		c-0.115,0.088-0.384,0.51-0.432,0.597c-1.157,1.523-2.564,2.748-4.156,3.4c-5.047,2.07-10.236-0.356-11.18-1.194
		c-0.195-0.173-0.438-0.258-0.68-0.26C118.594,73.06,116.767,73.08,115.954,73.567L115.954,73.567z"/>
	<path fill="#FFFFFF" d="M122.882,79.345c-0.137-0.776-0.34-1.543-0.578-2.243c1.887,0.661,4.36,1.118,6.942,0.812
		c-1.252,0.612-2.312,0.948-2.877,1.104C124.49,79.531,123.292,79.472,122.882,79.345L122.882,79.345z"/>
	<path fill="#FFFFFF" d="M157.489,132.776c0.201,0.115,0.406,0.229,0.615,0.334c-1.437-0.008-2.652-0.022-3.43-0.053
		c-1.705-0.063-2.668,0.615-3.176,1.195c-0.577,0.66-0.827,1.463-0.924,2.166c-0.332-0.215-0.48-0.344-0.525-0.387
		c-0.049-0.512-0.113-1.047-0.188-1.598C153.108,131.601,157.435,132.781,157.489,132.776L157.489,132.776z"/>
	<path fill="#FFFFFF" d="M149.985,129.961c0.164,0.613,0.369,1.201,0.623,1.697c-0.369,0.153-0.693,0.313-0.979,0.471
		C149.681,131.651,149.812,130.856,149.985,129.961L149.985,129.961z"/>
	<path fill="#FFFFFF" d="M181.347,132.778c-0.99,0.912-1.671,1.423-2.119,1.707c-0.041-0.143-0.94-1.021-1.461-0.786
		c-0.521,0.233-0.617,2.131-0.623,2.141c-0.225,0.408-0.951,1.166-3.293,1.646l-1.485,0.312c-4.36,0.928-10.593,2.254-16.054,1.035
		c-0.096-0.35-0.145-0.818-0.013-1.01c0.093-0.133,0.38-0.152,0.543-0.152c0.456,0,0.826-0.371,0.826-0.826
		c0-0.457-0.37-0.826-0.826-0.826c-1.083,0-1.635,0.476-1.907,0.873c-0.307,0.447-0.383,0.979-0.363,1.451
		c-0.439-0.15-0.872-0.318-1.297-0.512c-0.241-0.109-0.467-0.215-0.676-0.314c-0.035-0.51,0.008-1.395,0.461-1.908
		c0.312-0.354,0.816-0.514,1.541-0.485c2.09,0.076,7.147,0.067,11.256,0.047c3.295,0.295,5.916-0.026,6.131-0.055
		c0.543-0.07,0.937-0.552,0.897-1.099c-0.038-0.545-0.493-0.965-1.041-0.961c-0.059,0.002-2.61,0.027-5.78,0.045
		c-3.058-0.27-6.709-1.098-9.229-3.315c-2.052-1.806-3.092-4.343-3.092-7.539c0-3.375,0.778-5.81,2.317-7.231
		c2.336-2.166,6.144-1.873,9.201-1.64c0.842,0.062,1.637,0.125,2.323,0.125c0.569,0,1.032-0.463,1.032-1.033
		c0-0.569-0.463-1.032-1.032-1.032c-0.606,0-1.364-0.06-2.165-0.119c-3.277-0.252-7.766-0.596-10.766,2.184
		c-1.977,1.83-2.834,4.557-2.834,8.529c0,3.477,0.918,6.537,3.006,8.69c-0.812,0.058-1.545,0.169-2.197,0.312
		c-0.615-0.738-1.111-3.386-1.229-5.537v0.002c-0.01-0.188-0.069-0.358-0.164-0.504c0.604-1.668,0.433-6.263-0.039-7.519
		c-0.297-0.819-0.359-6.77-0.088-8.266c0.322-1.771,1.65-7.324,1.975-7.988c0.622-1.246-0.25-2.965-0.432-3.297
		c-0.272-0.502-0.9-0.686-1.4-0.412c-0.501,0.271-0.686,0.9-0.413,1.4c0-0.002,0,0-0.001-0.002c0.27,0.498,0.464,1.189,0.395,1.395
		c-0.516,1.047-1.926,7.275-2.154,8.533c-0.275,1.518-0.335,7.973,0.188,9.363c0.354,0.943,0.434,5.182,0.022,6.104
		c-0.617,1.389-1.741,6.873-1.741,8.133c0,0.324,0.072,0.84,0.173,1.556c0.457,3.243,0.489,5.102,0.097,5.522
		c-0.252,0.127-4.289,2.236-5.703,1.215c0.111-0.537,0.361-1.133,0.929-1.264c0.444-0.104,0.722-0.547,0.619-0.99
		c-0.103-0.444-0.546-0.723-0.991-0.621c-1.295,0.299-1.909,1.373-2.156,2.42c-0.25-0.059-0.576-0.157-0.977-0.319
		c0.086-0.58,0.322-1.33,0.966-1.479c0.444-0.102,0.722-0.547,0.618-0.99c-0.104-0.444-0.546-0.723-0.99-0.618
		c-1.429,0.327-2.029,1.602-2.223,2.741c-0.355-0.065-0.747-0.19-0.99-0.426c-0.117-0.113-0.252-0.293-0.252-0.686
		c0-1.799,1.704-2.922,2.855-3.113c1.562-0.26,3.701-0.617,3.893-3.85c0.128-2.188,0.424-13.291,0.129-15.357
		c-0.141-0.979-1.216-5.607-1.455-5.889c-0.368-1.393-0.734-2.834-0.738-3.195c0-1.293-1.007-5.814-1.312-6.58
		c-0.143-0.354-0.422-0.736-0.746-1.182c-0.26-0.355-0.786-1.078-0.857-1.381c0.113-0.51-0.176-1.033-0.682-1.201
		c-0.541-0.182-1.126,0.111-1.307,0.652c-0.353,1.053,0.461,2.166,1.177,3.146c0.188,0.258,0.444,0.608,0.497,0.731
		c0.253,0.636,1.164,4.886,1.164,5.814c0,0.334,0.104,0.893,0.289,1.68c-0.899-0.512-1.842-1.057-2.316-1.354
		c-0.562-0.352-1.579-1.975-2.417-3.861c-0.606-1.365-4.303-4.438-5.864-5.695c-0.533-0.43-1.312-0.346-1.742,0.188
		c-0.431,0.534-0.346,1.314,0.188,1.744c2.23,1.797,4.835,4.146,5.157,4.776c0.317,0.716,0.788,1.693,1.35,2.613
		c-0.256,0.979-1.251,4.959-0.963,6.689c0.065,0.398,0.16,1.047,0.271,1.799c0.443,3.068,0.877,5.916,1.293,7.061
		c0.414,1.138-0.147,4.119-0.504,4.832c-0.375,0.748-0.666,2.683-1.014,5.556c0,0-0.084,0.791-0.094,0.985
		c-0.062,1.166-0.125,2.371-2.564,2.822c-0.986,0.182-1.75,0.355-2.363,0.492c-1.412,0.32-1.688,0.357-1.954,0.172
		c-0.095-0.295-0.187-0.781-0.019-1.15c0.137-0.299,0.461-0.524,0.965-0.676c0.547-0.164,0.856-0.74,0.691-1.287
		c-0.163-0.547-0.738-0.856-1.286-0.692c-1.383,0.416-1.993,1.221-2.261,1.821c-0.234,0.531-0.29,1.068-0.262,1.541
		c-0.211-0.049-0.418-0.129-0.604-0.246c-0.013-0.491,0.083-1.065,0.32-1.153c0.428-0.162,0.645-0.64,0.484-1.063
		c-0.162-0.429-0.638-0.646-1.064-0.484c-0.979,0.367-1.288,1.316-1.369,2.096c-0.222-0.174-0.389-0.436-0.389-0.83
		c0-1.08,1.126-1.697,2.598-2.395c0.193-0.09,1.241-0.508,1.663-0.609c1.319-0.318,3.313-0.801,3.585-3.648
		c0.289-3.037-0.283-11.965-0.562-13.504c-0.193-1.063-1.772-7.598-2.928-12.371l-1.076-4.479
		c-1.107-4.799-1.76-13.938-1.496-16.319c0.025-0.219,0.039-0.445,0.043-0.676c0.295,0.029,0.617,0.038,0.97,0.024
		c3.522-0.139,10.265-2.622,13.683-8.667c2.305-3.117,3.667-7.211,3.691-10.716c3.812,3.402,9.006,8.612,9.973,11.997
		c0.188,0.658,0.874,1.04,1.532,0.852c0.299-0.085,0.54-0.274,0.696-0.516c4.062,2.119,11.285,6.292,13.216,9.232
		c2.761,4.207,11.872,23.078,13.354,27.662c0.131,0.406,0.266,0.797,0.396,1.174c1.343,3.918,2.313,6.748-3.464,16.979
		c-0.336,0.596-0.127,1.354,0.47,1.688c0.597,0.336,1.353,0.127,1.688-0.471c0.416-0.736,0.801-1.44,1.152-2.115
		c0.742,0.597,1.664,1.545,1.758,2.494C182.235,131.658,181.963,132.213,181.347,132.778L181.347,132.778z"/>
	<polygon fill="#FFFFFF" points="16.217,120.181 16.217,126.651 20.211,130.371 20.211,123.76 	"/>
	<polygon fill="#FFFFFF" points="20.625,118.938 22.553,121.006 22.553,127.894 23.792,129.133 23.792,118.803 20.625,116.047 	"/>
	<path d="M115.521,62.332c0,0,4.408,1.24,5.097,3.995c0.688,2.754,1.929-0.413,1.103-1.377c-0.826-0.964-2.751-3.719-5.096-3.719
		C115.384,61.23,115.521,62.332,115.521,62.332L115.521,62.332z"/>
	<path d="M116.071,63.848c0,0,0.689,2.204,2.066,2.892c1.377,0.688-0.275,0.964-0.826,0.688c-0.551-0.276-2.203-0.964-2.203-3.443
		C115.108,63.021,116.071,62.746,116.071,63.848L116.071,63.848z"/>
	<path d="M117.312,64.123c0,0-0.431,2.204,1.791,2.204c1.515,0,0.274-1.24-0.275-1.653C118.276,64.26,117.588,63.434,117.312,64.123
		L117.312,64.123z"/>
	<path d="M121.444,58.613c0,0,2.203,0.138,2.341,0.689c0.139,0.551-1.103,1.102-0.826,2.066c0.276,0.964,1.791,6.611,1.929,7.575
		c0.139,0.964,0.688,0.275,1.652,0s3.855-1.24,4.684-2.479c0.826-1.24,1.928-3.581,2.479-3.994c0.552-0.414,1.929-1.929,0.138-2.617
		c-1.79-0.688-2.754-2.204-3.029-2.617c-0.274-0.414-1.791-0.551-2.342-0.689c-0.551-0.138-3.994-0.138-4.684-0.138
		c-0.688,0-1.516,0.276-1.928,0.827C121.444,57.787,120.756,58.751,121.444,58.613L121.444,58.613z"/>
	<path fill="#FFFFFF" d="M37.29,105.688c-2.259,0-4.091,1.832-4.091,4.093c0,0.43,0.067,0.844,0.19,1.233l2.391-1.088
		c0.053-0.812,0.727-1.455,1.553-1.455c0.86,0,1.559,0.697,1.559,1.56c0,0.858-0.698,1.557-1.559,1.557
		c-0.279,0-0.54-0.073-0.767-0.2l-2.365,1.073c0.75,0.863,1.855,1.41,3.088,1.41c2.259,0,4.09-1.832,4.09-4.09
		C41.38,107.521,39.549,105.688,37.29,105.688L37.29,105.688z"/>
	<path fill="#FFFFFF" d="M31.231,111.996l0.687,1.504l2.283-1.039c-0.362-0.416-0.642-0.905-0.812-1.444L31.231,111.996
		L31.231,111.996z"/>
	<path d="M37.333,111.588c0.86,0,1.559-0.696,1.559-1.557c0-0.861-0.698-1.56-1.559-1.56c-0.826,0-1.5,0.644-1.553,1.455
		l-2.391,1.088c0.17,0.539,0.45,1.029,0.812,1.445l2.365-1.074C36.793,111.515,37.054,111.588,37.333,111.588L37.333,111.588z"/>
	<path fill="#FFFFFF" d="M43.832,119.215v2.963h0.414v2.064h-1.232c0.381,0.457,0.591,1.022,0.591,1.625
		c0,0.68-0.265,1.315-0.744,1.797c-0.48,0.479-1.118,0.744-1.796,0.744c-0.678,0-1.317-0.265-1.796-0.744
		c-0.48-0.479-0.744-1.117-0.744-1.797c0-0.617,0.222-1.185,0.59-1.625H37.29v-2.064h0.757v-2.963h-10.95
		c0,0,0.065,12.166,0.034,12.535H55.47v-12.535H43.832L43.832,119.215z"/>
	<path fill="#FFFFFF" d="M51.218,110.951c1.47,0.309,2.259,0.752,2.32,1.377c0.037,0.375-0.391,0.729-0.396,0.733
		c-1.134,1.039-4.623,1.894-9.241,2.308v1.008c4.922-0.44,8.56-1.383,9.433-2.515l3.901,2.99c0.422,0.199,0.714,0.625,0.714,1.123
		v11.127c3.256-0.309,6.428-3.242,7.847-5.016c0.245-0.307,0.616-0.91,1.044-1.609c1.486-2.426,3.973-6.481,7.683-8.729
		c3.525-2.138,7.443-2.16,9.458-1.985v-0.812H51.218L51.218,110.951z"/>
</g>
</svg>
