<?xml version="1.0" encoding="utf-8"?>
<!-- Generator: Adobe Illustrator 16.0.0, SVG Export Plug-In . SVG Version: 6.00 Build 0)  -->
<!DOCTYPE svg PUBLIC "-//W3C//DTD SVG 1.1//EN" "http://www.w3.org/Graphics/SVG/1.1/DTD/svg11.dtd">
<svg version="1.1" id="Layer_1" xmlns="http://www.w3.org/2000/svg" xmlns:xlink="http://www.w3.org/1999/xlink" x="0px" y="0px"
	 width="160.24px" height="139.778px" viewBox="0 0 160.24 139.778" enable-background="new 0 0 160.24 139.778"
	 xml:space="preserve">
<g>
	<path fill-rule="evenodd" clip-rule="evenodd" fill="#EE3524" d="M0.039,61.984l0.125,73.337c0.428-0.032,0.428,0.444,0,0.412
		l34.53,0.089l0.033-27.344l43.67-0.077l-0.1,27.421l32.695,0.125l0.017-36.469l1.562,0.42c1.964,2.327,3.474,6.135,4.5,11.423
		c3.259,16.705,10.271,26.081,21.03,28.124c4.117,0.776,8.136,0.138,10.821-1.35c6.737-3.658,11.317-8.287,11.317-20.797v-9.911
		h-14.299l0.033,11.159c0.004,1.16-0.033,2.92-2.46,4.16c-0.985,0.492-1.474,0.187-2.061,0.009
		c-3.409-3.377-5.352-11.924-5.812-25.628c-0.012-0.319-0.873-4.241-0.965-10.986v-24.21L0.039,61.984L0.039,61.984z"/>
	<path fill-rule="evenodd" clip-rule="evenodd" fill="#004785" d="M0.079,58.32h133.995V32.075c0-11.807-10.172-18.676-21.12-24.156
		c-15.087-7.55-38.322-9.593-65.668-6.592C14.204,4.956,2.908,17.958,0,33.971l0.079,27.352V58.32z"/>
	<g>
		<path fill="#FFFFFF" d="M72.706,28.665h12.65L75.08,36.511l4.145,12.542l-11.381-7.405l-11.382,7.405l3.593-12.542l-9.725-7.846
			h12.708l4.806-12.485L72.706,28.665z"/>
	</g>
	<g>
		<path fill="#FFFFFF" d="M113.908,28.665h12.651l-10.278,7.846l4.146,12.542l-11.382-7.405l-11.383,7.405l3.593-12.542
			l-9.725-7.846h12.708l4.807-12.485L113.908,28.665z"/>
	</g>
	<g>
		<path fill="#FFFFFF" d="M31.503,28.665h12.651l-10.277,7.846l4.145,12.542l-11.382-7.405l-11.382,7.405l3.593-12.542l-9.725-7.846
			h12.708l4.806-12.485L31.503,28.665z"/>
	</g>
</g>
</svg>
