<?xml version="1.0" encoding="utf-8"?>
<!-- Generator: Adobe Illustrator 16.0.0, SVG Export Plug-In . SVG Version: 6.00 Build 0)  -->
<!DOCTYPE svg PUBLIC "-//W3C//DTD SVG 1.1//EN" "http://www.w3.org/Graphics/SVG/1.1/DTD/svg11.dtd">
<svg version="1.1" id="Layer_1" xmlns="http://www.w3.org/2000/svg" xmlns:xlink="http://www.w3.org/1999/xlink" x="0px" y="0px"
	 width="69.934px" height="95.368px" viewBox="0 0 69.934 95.368" enable-background="new 0 0 69.934 95.368" xml:space="preserve">
<g>
	<path fill="#E3E3E2" d="M0,36.536c1.686,1.499,4.309,4.31,8.244,4.31c4.122,0,7.119-1.499,9.931-1.499
		c2.061,0,5.621,1.124,7.307,4.684c-0.937-0.75-2.811-1.688-5.996-1.688c-2.248,0-6.183,2.249-9.556,2.249
		C4.684,44.593,1.686,40.283,0,36.536L0,36.536z"/>
	<path fill="#E8B427" d="M28.479,21.734L19.111,0c3.936,0,7.87,1.687,7.87,4.872c0,0.937-0.375,2.061-1.124,3.185
		c0,0.188,0,0.188,0.188,0.188l0,0c0.75-0.75,1.686-1.312,2.811-1.312c2.062,0,3.561,1.686,3.561,3.747
		c0,1.874-1.499,3.56-3.561,3.56c-0.188,0-0.562,0-0.75,0c0.188,0.75,2.812,2.248,5.81,2.248c2.248,0,4.871-0.937,6.37-3.934
		c-0.562,0.562-1.499,0.749-2.249,0.749c-2.062,0-3.747-1.499-3.747-3.56s1.687-3.747,3.747-3.747c0.75,0,1.499,0.187,2.061,0.562
		c-0.75-0.562-1.312-1.499-1.312-2.623c0-1.874,1.687-3.56,3.748-3.56c2.061,0,3.746,1.687,3.746,3.56
		c0,0.937-0.374,1.874-1.124,2.436c0.562-0.188,1.124-0.375,1.688-0.375c2.061,0,3.747,1.686,3.747,3.747s-1.688,3.56-3.747,3.56
		c-0.938,0-1.688-0.375-2.436-0.749c0.562,1.499,3.371,4.122,6.744,4.122c1.873,0,3.936-0.75,5.809-2.436c-0.188,0-0.374,0-0.562,0
		c-2.249,0-3.935-1.686-3.935-3.56c0-2.061,1.686-3.747,3.935-3.747c0.938,0,1.873,0.562,2.623,1.312c0,0,0,0,0.188,0
		c0,0,0.188,0,0.188-0.188c-0.937-1.124-1.312-2.249-1.312-3.185C58.083,1.687,62.018,0,65.765,0l-8.994,21.547H29.604
		C29.229,21.547,28.854,21.547,28.479,21.734L28.479,21.734z"/>
	<path fill="#E3E3E2" d="M25.669,26.418c0.375-2.249,2.061-4.872,3.935-4.872h27.167c0.562,0.562,1.124,1.312,1.688,2.061
		c1.874-0.75,3.747-0.937,5.246-0.937c1.312,0,2.249,0.188,2.437,0.188c0,0,1.123,0.188,1.312,0.562
		c-1.312,2.998-2.248,4.684-3.372,6.183c4.684,4.872,6.558,10.867,5.621,18.549c-1.312-0.75-3.936-1.874-5.435-2.249
		c2.437,3.748,3.186,7.12,3.186,10.867c0,2.623-0.562,5.434-1.687,8.057l-0.75,2.062c-1.499-2.062-2.623-3.56-4.31-4.872
		c0.375,1.312,0.938,4.122,0.938,5.996c0,5.059-2.062,9.556-6.745,12.553c-0.937-2.436-2.811-5.995-4.685-8.242
		c0.188,4.684,0,10.116-1.874,13.676c-3.561,4.686-8.431,7.496-16.113,9.369c1.312-3.186,2.437-11.617,1.874-21.734
		c-1.499,2.248-3.185,6.559-3.747,11.992c-1.874-1.5-7.495-5.621-7.495-12.93c0-2.998,1.124-5.996,2.998-8.992
		c-2.624,1.123-4.497,2.81-6.371,6.557c-0.562-5.245,0.375-10.866,2.998-14.988c-6.745-0.188-8.618-4.122-8.243-10.118
		c1.873,1.686,3.935,2.811,6.744,2.811c2.811,0,6.37-1.125,9.931-5.808c-1.688-0.937-3.187-1.499-4.31-1.874
		c-1.312-0.375-3.373-0.749-5.434-3.373c-0.75-0.937-2.062-1.124-3.561-1.124c-1.874,0-4.684,0.375-8.993,2.623
		c0.562-10.867,5.809-14.24,9.93-14.24C20.61,24.17,23.046,24.919,25.669,26.418L25.669,26.418z"/>
	<path fill="#CA0538" d="M33.726,29.791c0,0.75-0.937,1.874-2.623,1.874c-1.499,0-2.249-0.937-2.436-1.686
		c-0.375,0-0.75,0-1.124-0.188c0,2.623,1.874,3.373,3.747,3.373c1.312,0,3.373-0.375,3.935-3.373
		C34.85,29.791,34.288,29.791,33.726,29.791L33.726,29.791z"/>
	<path fill="#CA0538" d="M25.481,29.042c-2.623-1.499-5.059-2.436-6.933-2.436c-4.497,0-6.37,5.059-7.12,7.87
		c2.436-0.75,4.497-1.124,6.183-1.124c2.437,0,4.122,0.562,5.435,2.061c1.312,1.874,2.998,2.249,3.56,2.249
		c2.437,0.75,6.745,2.249,6.745,4.31c0,0.375,0,0.937-0.562,1.499c-4.311,5.434-8.244,6.932-11.617,6.932
		c-1.687,0-2.998-0.375-4.122-0.749c0.937,2.623,3.56,3.185,5.621,3.185c1.687,0,3.186-0.188,6.371-0.937
		c-3.373,2.623-6.184,5.996-6.934,11.242c2.998-2.249,6.184-2.812,9.557-2.812c-3.936,4.123-6.184,8.244-6.184,12.367
		c0,4.309,1.874,6.744,3.186,8.243c1.499-6.933,5.059-11.241,7.308-13.489c1.312,9.742,0.562,20.234-0.188,24.356
		c4.122-1.499,7.682-3.372,10.491-7.12c1.688-2.811,1.874-11.055,1.312-17.799c3.561,2.249,6.745,6.371,8.244,9.742
		c2.061-2.061,3.186-4.87,3.186-8.618c0-4.122-1.312-7.869-2.623-10.681c2.997,0.938,5.621,2.25,7.683,4.685
		c0.562-1.874,0.937-3.56,0.937-5.435c0-6.558-3.56-11.242-5.995-13.676c3.936,0,6.184,0.75,8.432,1.499
		c0.188-4.122-0.938-8.994-4.685-12.928c-3.373,3.934-6.558,6.183-12.929,8.431c5.621,4.31,3.936,10.867-1.312,17.424
		c-0.562-2.811-1.312-5.246-3.185-7.307c0.375,3.561-0.562,10.118-7.87,13.678c0.188-2.811-0.188-5.246-0.749-7.682
		c-0.562,0.562-1.499,1.312-2.436,2.061c-0.188-0.75-0.375-2.061-0.188-2.998c1.312-1.123,2.437-2.623,3.747-4.121
		c1.125,2.811,1.688,6.558,1.874,8.244c2.623-2.437,4.685-6.933,2.061-14.99c3.936,2.062,5.996,4.123,7.495,7.496
		c4.122-6.933-0.188-10.493-6.558-12.929c7.494-0.937,16.675-4.309,21.359-13.677c-3.187-0.188-8.058,0.937-12.741,6.933
		c-0.562-0.375-1.312-0.937-1.499-1.499c1.874-2.623,4.123-4.685,6.559-5.996c-0.188-0.375-0.375-0.75-0.562-0.75H29.791
		c-0.938,0-1.874,1.686-2.248,3.56c0.562,0.188,1.499,0.188,2.436,0.188c0.938,0,1.874,0,2.998,0c1.874,0,4.685,0.188,6.37,1.312
		c-0.187,0.75-0.562,1.312-0.937,1.687c-0.375-0.188-0.75-0.188-1.125-0.375c-0.938,4.31-3.936,5.246-5.996,5.246
		C26.043,35.412,25.107,31.29,25.481,29.042L25.481,29.042z"/>
</g>
</svg>
