<?xml version="1.0" encoding="utf-8"?>
<!-- Generator: Adobe Illustrator 16.0.0, SVG Export Plug-In . SVG Version: 6.00 Build 0)  -->
<!DOCTYPE svg PUBLIC "-//W3C//DTD SVG 1.1//EN" "http://www.w3.org/Graphics/SVG/1.1/DTD/svg11.dtd">
<svg version="1.1" id="Layer_1" xmlns="http://www.w3.org/2000/svg" xmlns:xlink="http://www.w3.org/1999/xlink" x="0px" y="0px"
	 width="39.762px" height="46.421px" viewBox="0 0 39.762 46.421" enable-background="new 0 0 39.762 46.421" xml:space="preserve">
<g>
	<path d="M18.688,46.392c-5.574-0.279-13.122-2.188-12.26-9.477c0.33-2.793,3.512-4.043,6.295-3.248
		c3.978,1.192,6.76,3.977,10.736,4.771c5.169,0.796,10.734-0.397,14.313-3.976C35.389,43.21,26.641,46.789,18.688,46.392
		L18.688,46.392L18.688,46.392L18.688,46.392z"/>
	<path d="M25.846,36.451c-4.761-0.316-8.748-3.182-13.122-4.771c-4.771-1.192-8.748,2.783-8.748,7.556
		c-3.579-3.183-4.374-8.351-3.181-12.726c2.783-6.759,11.929-5.963,16.7-1.987c6.361,5.17,15.904,7.556,22.267,1.987
		C38.967,32.873,31.81,36.849,25.846,36.451L25.846,36.451L25.846,36.451L25.846,36.451z"/>
	<path d="M38.172,17.364c-0.397-3.977-3.203-6.969-6.76-8.747c-1.591-0.796-3.033-1.704-3.977-2.784
		c-3.181-3.645-5.234-6.494-9.608-5.699c3.181,1.657,3.181,5.117,2.782,5.103C7.157,4.773,0.861,13.057,0,23.329
		c2.386-1.591,4.771-3.977,7.953-3.579c-0.795-1.987-1.591-4.374-0.397-5.964c3.579-3.579,10.338-1.988,12.724,1.988
		c0.796,0.795,0.033,2.65,1.227,3.445c0.795,0.398,2.75-0.265,3.545,0.53c3.579,2.784,7.952,7.555,11.928,5.567
		c0.898-0.449,1.08-1.16,1.003-2.451C37.878,21.143,38.42,19.101,38.172,17.364L38.172,17.364L38.172,17.364L38.172,17.364z
		 M21.77,15.442c-0.497,0.432-1.126-0.464-1.126-0.464c-2.75-3.313-7.189-3.811-7.189-3.811c-1.16-0.298-0.857-1.682-0.857-1.682
		c0.096-0.477,0.436-1.022,0.924-1.268c0.397,0,0.798-0.049,1.193,0c3.181,0.398,5.566,3.182,7.157,5.965
		C22.267,15.012,21.77,15.442,21.77,15.442L21.77,15.442L21.77,15.442L21.77,15.442z M31.81,14.581
		c0.398-1.193,1.988-1.591,2.783-0.397c0.796,1.192,0.398,2.783,0.398,3.976c0,0.398-0.797,1.193-1.193,0.796
		C32.208,18.159,31.413,16.172,31.81,14.581L31.81,14.581L31.81,14.581L31.81,14.581z M36.184,24.919
		c-2.854,0.356-6.551-1.882-8.675-4.352c-0.896-0.663,0.07-1.271,0.07-1.271c0.742-0.773,0.981-1.756,1.447-2.331
		c1.954-2.414,2.783,2.386,3.579,3.977C33.402,22.534,36.979,24.257,36.184,24.919L36.184,24.919L36.184,24.919L36.184,24.919z"/>
</g>
</svg>
