<?xml version="1.0" encoding="utf-8"?>
<!-- Generator: Adobe Illustrator 16.0.0, SVG Export Plug-In . SVG Version: 6.00 Build 0)  -->
<!DOCTYPE svg PUBLIC "-//W3C//DTD SVG 1.1//EN" "http://www.w3.org/Graphics/SVG/1.1/DTD/svg11.dtd">
<svg version="1.1" id="Layer_1" xmlns="http://www.w3.org/2000/svg" xmlns:xlink="http://www.w3.org/1999/xlink" x="0px" y="0px"
	 width="128.553px" height="134.621px" viewBox="0 0 128.553 134.621" enable-background="new 0 0 128.553 134.621"
	 xml:space="preserve">
<g>
	<g>
		<path d="M126.426,51.179c-1.42,0-1.424,0.712-1.896,2.13c-0.473,1.422-2.894,11.047-4.735,17.753
			c-1.671,6.09-11.123,30.536-13.253,30.536s-6.629-3.785-9.941-9.233c-3.314-5.443-23.197-46.628-23.907-48.759
			s-1.182-3.787-0.71-4.733c0.474-0.948,1.894-2.843,2.365-5.682c0.477-2.844,1.187-14.205,2.605-19.172
			c1.417-4.972,7.101-13.494,7.101-13.494c-5.442-1.42-11.599,0-16.807,4.736c-5.209,4.732-7.92,13.635-8.283,15.147
			c-0.36,1.5-0.948,3.314-2.13,3.314c-1.184,0-1.658-1.422-1.658-2.603c0-1.184,0.71-5.682,0.473-8.76
			c-0.234-3.077-2.841-5.207-5.442-5.207c-2.603,0-8.996,1.341-17.041,5.443c-6.232,3.177-16.808,10.417-16.808,10.417
			c3.316-0.236,21.54,0.71,21.54,0.71c1.655,0.236,1.42,1.42,0.477,2.365c-0.948,0.949-10.961,9.599-17.992,13.968
			c-7.025,4.368-20.12,10.179-20.12,10.179s-1.42,5.917,2.371,11.833c3.785,5.918,10.647,6.864,16.566,6.864
			c5.918,0,16.097-0.946,16.097-0.946c-1.42,14.438-8.524,49.237-9.706,52.077c-1.183,2.844-2.604,4.025-4.257,4.736
			c-1.655,0.709-4.026,0.709-6.866,2.599c-2.84,1.896-1.896,7.224-1.896,7.224H40.27c4.023-1.658,3.785-8.641,3.785-8.641v-15.861
			c5.442,12.78,22.012,9.943,22.012,9.943s-4.025-10.417,2.604-15.621c6.628-5.208,15.387,0.234,15.387,0.234
			c-4.971-0.711-12.781-0.477-14.677,5.681c-1.894,6.151,2.604,15.151,2.604,15.151c-5.441-1.42-14.438-1.893-18.227,0.707
			c-3.788,2.603-2.365,8.404-2.365,8.404h60.831c4.498-5.445,8.523-23.315,10.65-34.205c2.13-10.89,5.681-41.897,5.681-44.975
			C128.553,52.363,127.846,51.179,126.426,51.179z M50.939,52.285l-6.647-4.832l-6.655,4.832l2.543-7.819l-6.651-4.83h8.221
			l2.543-7.819l2.536,7.819h8.223l-6.651,4.83L50.939,52.285z"/>
	</g>
</g>
</svg>
