<?xml version="1.0" encoding="utf-8"?>
<!-- Generator: Adobe Illustrator 16.0.0, SVG Export Plug-In . SVG Version: 6.00 Build 0)  -->
<!DOCTYPE svg PUBLIC "-//W3C//DTD SVG 1.1//EN" "http://www.w3.org/Graphics/SVG/1.1/DTD/svg11.dtd">
<svg version="1.1" id="Layer_1" xmlns="http://www.w3.org/2000/svg" xmlns:xlink="http://www.w3.org/1999/xlink" x="0px" y="0px"
	 width="145.074px" height="201.888px" viewBox="0 0 145.074 201.888" enable-background="new 0 0 145.074 201.888"
	 xml:space="preserve">
<g>
	<path fill-rule="evenodd" clip-rule="evenodd" d="M41.31,0c-0.182,3.523-1.644,6.678-2.617,10.144
		c-0.941,3.351-1.805,6.951-2.618,10.471c-2.122,9.178-4.106,18.215-3.927,30.104c7.244,1.397,16.374,0.359,22.905-0.982
		c3.571,2.318,5.863,5.917,9.162,8.507c-0.623-4.44,2.354-5.281,4.908-6.544c-1.135,1.92-2.895,3.214-2.291,6.872
		c1.489,0.993,1.73-1.64,2.945-1.963c1.686,1.917,3.82,1.815,5.563,0c1.251,0.275,0.912,2.141,2.29,2.291
		c1.942-2.543-0.831-5.302-1.638-7.199c2.428,1.282,5.193,2.225,4.91,6.217c2.644-1.611,5.862-5.479,8.506-8.18
		c6.816,1.437,15.532,2.104,23.561,1.309c-0.269-19.91-5.104-35.252-9.816-50.717c1.308-0.167,1.296,1.556,1.636,2.29
		c4.869,10.53,9.199,22.558,12.762,35.339c0.517,1.856,1.389,4.384,1.962,6.872c0.504,2.179,1.565,5.974,1.31,7.199
		c-0.561,2.685-4.993,3.588-5.89,5.89c-2.725-3.218-10.573-2.292-17.996-2.618c-2.104-0.093-4.925-0.697-6.217-0.328
		c-2.853,0.816-4.101,4.979-5.562,7.199c4.032,0.278,7.214-3.63,10.798-3.927c2.271-0.188,5.594,1.519,8.506,2.291
		c8.438,2.237,17.847,4.121,25.524,6.544c0.463-26.314-6.296-48.24-15.379-66.097c9.026,12.457,15.106,27.038,19.632,44.174
		c0.782,2.96,1.453,5.787,1.964,8.834c0.717,4.287,0.746,9.581,2.944,12.761c-2.714,2.958-5.979,5.365-8.835,8.181
		c-8.041-4.794-23.573-11.713-36.647-10.471c-3.13,0.298-5.897,1.856-8.181,3.927c3.995,1.597,6.762,1.748,12.106,1.636
		c1.329-0.028,3.252-0.582,4.254-0.326c1.137,0.288,2.959,2.632,4.581,4.253c9.45,9.451,17.904,16.375,29.122,23.886
		c3.505,2.347,5.479,4.735,9.489,1.636c0.665,31.056-7.585,53.972-17.67,74.929c-1.175,2.441-1.921,5.281-3.925,7.199
		c7.585-17.895,13.414-39.189,13.414-64.131c0-2.62,0.501-5.875,0-8.18c-0.711-3.271-5.857-6.743-8.835-9.49
		c-8.456-7.803-15.181-13.284-24.541-20.613c-1.833-1.437-3.391-3.377-4.907-3.927c-1.594-0.577-4.108-0.697-5.891-0.981
		c-2.229-0.356-4.373-0.448-6.217-0.655c3.618,3.886,9.354,8.708,14.397,12.435c0.92,0.823,1.881-0.295,2.945-0.328
		c1.196,36.476-1.51,72.199-11.779,98.815c-2.453,6.356-5.169,12.593-9.489,17.343c13.953-25.188,15.003-68.438,12.106-106.342
		c2.964-2.572,1.677-4.706-0.981-7.853c-2.906-3.44-8.069-8.459-11.452-10.144c-0.239,1.705,0.344,3.374,0.98,4.908
		c0.64,1.54,2.058,2.873,2.291,4.253c0.495,2.934-0.698,9.354-1.31,12.761c-2.023,11.288-6.289,23.683-10.143,32.066
		c-1.357-0.17-0.405-2.647-1.309-3.271c-1.453,0.074-0.572,2.481-1.31,3.271c-4.505-7.685-8.353-20.408-10.471-32.066
		c-0.757-4.167-1.934-9.179-1.309-12.761c0.496-2.844,3.56-5.423,3.272-8.834c-2.995,0.688-5.788,3.666-8.181,6.217
		c-2.383,2.542-4.857,5.278-6.544,8.18c0.202,1.433,1.597,1.675,1.963,2.945c-2.146,38.355-2.075,81.527,12.435,106.343
		c-1.531-0.209-2.242-2.147-2.945-3.273c-13.508-21.605-17.138-54.912-18.651-89.327c-0.334-7.604-0.679-15.043,0.327-22.577
		c0.277-1.58,1.961,0.76,2.945-0.327c5.163-3.89,9.815-8.291,14.725-12.435c-4.274,0.658-8.918,0.446-12.762,1.963
		c-3.336,1.317-6.985,4.954-10.144,7.526c-9.605,7.823-19.725,16.32-27.813,25.194c-1.651,29.2,5.037,52.726,13.089,73.294
		C9.733,158.956-1.044,133.773,0.081,99.472c4.425,4.198,11.166-2.632,14.725-5.235c9.907-7.248,20.487-16.598,28.141-24.541
		c5.542,0.816,12.05,0.157,16.688-0.982c-5.779-7.376-20.601-3.674-29.449-0.981c-5.938,1.807-11.479,4.399-15.052,7.199
		c-3.397-2.274-5.996-5.348-9.162-7.854c2.316-5.82,2.811-15.598,4.581-22.25C14.877,28.582,21.624,14.2,29.856,0.981
		c-0.217,2.513-1.958,4.678-2.943,6.872c-7.172,15.95-11.893,35.719-12.107,58.898c7.562-1.717,16.589-3.829,25.522-6.217
		c2.912-0.778,5.929-2.371,8.18-2.291c3.638,0.129,7.056,3.883,11.126,3.927c-0.966-3.07-2.812-5.26-4.908-7.199
		c-6.739,0.771-14.268-0.436-20.287,0.654c-0.613,0.111-1.418,0.47-2.291,0.982c0.079-0.047-1.944,1.306-1.635,1.309
		c-1.362-0.013-4.685-4.734-6.218-5.235C27.439,32.594,34.536,16.459,41.31,0z"/>
</g>
</svg>
