<?xml version="1.0" encoding="utf-8"?>
<!-- Generator: Adobe Illustrator 16.0.0, SVG Export Plug-In . SVG Version: 6.00 Build 0)  -->
<!DOCTYPE svg PUBLIC "-//W3C//DTD SVG 1.1//EN" "http://www.w3.org/Graphics/SVG/1.1/DTD/svg11.dtd">
<svg version="1.1" id="Layer_1" xmlns="http://www.w3.org/2000/svg" xmlns:xlink="http://www.w3.org/1999/xlink" x="0px" y="0px"
	 width="145.829px" height="160.241px" viewBox="0 0 145.829 160.241" enable-background="new 0 0 145.829 160.241"
	 xml:space="preserve">
<g>
	<path fill-rule="evenodd" clip-rule="evenodd" fill="#22221D" d="M56.448,47.716h38.869c0,0-3.767,10.616-5.08,14.155h-8.104
		v49.085H68.548c0-7.134,0-49.142,0-49.142s-4.11,0.057-5.137,0c-0.742,1.998-1.94,5.479-3.082,8.733c0,0-7.021,0-11.986,0
		C49.656,66.95,55.42,50.227,56.448,47.716L56.448,47.716z M88.125,0c7.306,0,9.703,15.411,9.703,15.411s-8.22-5.194-10.103,0.114
		c-0.8,3.196-1.199,4.68-1.998,8.504c3.196,3.196,10.388,10.788,10.388,10.788s0.913,1.712,2.911,1.712
		c1.997,0,4.509-0.229,5.821-2.112c1.37-1.884,3.996-14.897,3.996-14.897s1.369-5.822,11.586-6.393c5.594-0.285,15.297,0,15.297,0
		s10.102,0.685,10.102,8.904v112.611l-29.508-27.396c0,0-2.169-1.998-4.28-0.229c-2.112,1.713-0.114,4.11-0.114,4.11
		s4.224,9.588,5.593,12.385c1.313,2.74-0.97,4.738-0.97,4.738l0.97,2.682c0,0,4.51-1.598,6.507,1.484
		c1.998,3.025,4.396,8.104,4.396,8.104s-2.684-0.97-5.194-1.598c-2.512-0.686-1.998,0.913-1.713,1.826
		c0.229,0.97,1.199,4.509,1.199,4.509s-3.367-1.427-4.966-2.34c-1.598-0.971-1.826-0.399-1.997,0.514
		c-0.114,0.913-1.027,3.995-1.027,3.995s-2.512-4.109-3.996-7.191s1.884-5.708,1.884-5.708l-1.37-3.195c0,0-3.196,0.685-6.107-2.684
		c-2.91-3.31-5.308-6.62-7.99-9.018c-2.625-2.397-3.596,0.799-3.196,1.998c0.399,1.198,5.594,17.522,6.563,19.805
		c0.914,2.283,3.025,7.991-0.799,9.989c-3.881,1.997-11.586,4.908-11.586,4.908s-4.281-15.297-5.309-18.607
		c-1.084-3.367-3.481-1.997-3.311,0.114c0.114,2.112,1.827,15.183,2.227,18.207c0.399,3.083,0,3.882-3.196,4.11
		c-1.256,0.113-9.361,0.113-10.616,0c-3.197-0.229-3.596-1.027-3.197-4.11c0.4-3.024,2.112-16.095,2.284-18.207
		c0.114-2.111-2.284-3.481-3.368-0.114c-1.027,3.311-5.308,18.607-5.308,18.607s-7.705-2.911-11.529-4.908
		c-3.881-1.998-1.769-7.706-0.799-9.989c0.914-2.282,6.107-18.606,6.507-19.805c0.399-1.199-0.571-4.396-3.196-1.998
		c-2.683,2.397-5.08,5.708-7.991,9.018c-2.911,3.368-6.107,2.684-6.107,2.684l-1.313,3.195c0,0,3.311,2.626,1.827,5.708
		c-1.427,3.082-3.996,7.191-3.996,7.191s-0.913-3.082-1.027-3.995c-0.171-0.913-0.399-1.484-1.998-0.514
		c-1.598,0.913-4.909,2.34-4.909,2.34s0.914-3.539,1.199-4.509c0.229-0.913,0.799-2.512-1.769-1.826
		c-2.511,0.628-5.137,1.598-5.137,1.598s2.34-5.079,4.338-8.104c1.998-3.082,6.563-1.484,6.563-1.484l0.914-2.682
		c0,0-2.283-1.998-0.914-4.738c1.313-2.797,5.537-12.385,5.537-12.385s1.998-2.397-0.114-4.11c-2.112-1.77-4.224,0.229-4.224,0.229
		L0,133.33c0,0,0.627-103.022,0.627-111.298c0-8.219,10.103-8.904,10.103-8.904h15.296c5.594,0,9.988,7.591,9.988,7.591
		s6.107,11.7,7.42,13.584c1.37,1.827,1.998,2.226,3.996,2.226c1.998,0,2.968-1.712,2.968-1.712S62.327,9.703,63.24,7.192
		c0.97-2.568-0.514-3.482-0.514-3.482L59.702,0H88.125L88.125,0L88.125,0z"/>
</g>
</svg>
