<?xml version="1.0" encoding="utf-8"?>
<!-- Generator: Adobe Illustrator 16.0.0, SVG Export Plug-In . SVG Version: 6.00 Build 0)  -->
<!DOCTYPE svg PUBLIC "-//W3C//DTD SVG 1.1//EN" "http://www.w3.org/Graphics/SVG/1.1/DTD/svg11.dtd">
<svg version="1.1" id="Layer_1" xmlns="http://www.w3.org/2000/svg" xmlns:xlink="http://www.w3.org/1999/xlink" x="0px" y="0px"
	 width="228.72px" height="228.72px" viewBox="0 0 228.72 228.72" enable-background="new 0 0 228.72 228.72" xml:space="preserve">
<g>
	<path fill="#FF0000" d="M221.863,133.998c-3.994-3.598-8.484-6.704-13.547-8.973c-4.734-2.121-9.097-2.762-14.325-2.777
		c-0.078,0-5.521,0.477-5.604,0.477c0.295-6.428,0.545-10.516-0.219-14.522c-2.016-10.563-6.11-18.084-14.606-25.539
		c-7.361-6.461-14.848-7.028-22.322-7.511c-6.668-0.431-12.641-0.499-24.088,3.242c15.891-3.411,36.619-1.479,46.045,7.372
		c12.824,14.549,13.087,27.711,11.164,37.622c-1.305,6.715-4.318,12.195-7.35,16.299c-4.178,5.66-7.482,8.803-13.475,12.531
		c-4.698,2.924-11.507,4.701-14.694,9.455c-2.43,3.625-6.696,12.516-2.707,16.936c2.907,3.225,10.993-0.109,17.626-3.508
		c-5.442,7.207-10.072,16.111-11.836,18.354c-1.969,2.494-5.643,4.869-8.203,6.721c-6.385,4.617-13.42,7.549-20.957,6.27
		c-13.938-2.369-13.605,1.689-16.988,0.5c-2.852-1.51-2.62-3.389-2.48-4.535c-5.045-1.523-9.558-5.133-12.479-9.783
		c5.287-0.039,11.706-0.463,13.446-0.961c6.278-1.789,14.239-10.592,17.147-15.996c4.186-7.781,5.947-15.9,7.43-24.527
		c1.647-9.59,0.155-21.109-9.175-26.746c-7.573-4.576-18.057-5.492-26.181-1.332c-13.792,7.064-31.342,16.707-34.872,32.766
		c-1.812,8.234,1.851,18.01,8.233,23.619c2.611,2.291,7.346,5.756,12.111,7.969c-8.48,1.246-17.525,1.1-24.991-2.23
		c-5.169-2.305-9.528-6.467-13.565-10.195c-1.424-1.311-2.734-3.578-4.725-4.135c-1.476-0.412-2.543,1.309-4.09,0.498
		c-2.299-1.199-4.858-8.465-6.225-10.832c-1.709-2.963-3.27-6.531-5.815-8.648c-3.169-2.635-6.085-2.84-5.327-7.99
		c0.484-3.264,0.395-6.404,3.404-8.428c10.199-6.857,14.979-15.623,21.82-22.018c3.752-3.504,21.623-17.283,25.841-21.971
		c7.199-8.004,9.612-18.084,18.123-25.018c4.472-3.644,24.716-15.089,29.913-17.771c8.448-4.358,18.012-8.775,27.061-11.692
		c7.277-2.345,15.195-2.478,22.644-4.657c4.233-1.238,10.487-2.673,12.863-6.668c0.175,4.932-1.92,10.281-5.249,14.624
		c-2.692,3.515-6.19,6.368-9.961,7.786c-5.843,2.193-17.207,4.021-25.449,3.227c12.698,3.553,23.455,0.578,28.239-1.945
		c5.959-3.146,9.243-5.262,11.515-12.061c2.858-1.366,6.56-1.766,11.966-4.701C152.692,2.227,101.461-4.445,59.692,19.67
		C7.48,49.815-10.473,116.818,19.67,169.03c30.144,52.211,97.147,70.164,149.36,40.02
		C197.891,192.386,216.275,164.46,221.863,133.998z"/>
	<path fill="#FF0000" d="M70.187,94.745c-0.943,2.105-2.01,3.199-1.787,3.555c0.915,1.457,1.37-1.992,3.209-2.756
		c4.139-1.717,8.846-4.167,12.207-7.116c6.227-5.462,1.266-7.576,11.047-18.058c-5.961,2.249-11.24,6.555-16.062,11.23
		C73.976,86.278,73.205,88.017,70.187,94.745z"/>
	<path d="M213.418,57.169C181.882,2.549,111.79-16.233,57.169,15.301c-54.62,31.536-73.402,101.63-41.869,156.25
		c31.535,54.621,101.63,73.402,156.252,41.867C226.173,181.882,244.953,111.79,213.418,57.169z M19.67,169.03
		C-10.473,116.818,7.48,49.815,59.692,19.67c41.769-24.115,93-17.443,127.257,12.921c0.726-0.394,1.479-0.83,2.269-1.323
		c8.469,7.65,15.918,16.721,21.931,27.146c14.078,24.414,17.893,51.928,12.834,77.572c-0.688-0.68-1.398-1.339-2.119-1.988
		c-5.588,30.463-23.973,58.389-52.833,75.052C116.817,239.194,49.814,221.241,19.67,169.03z"/>
	<path d="M163.469,49.353c-4.784,2.523-15.541,5.498-28.239,1.945c8.242,0.795,19.606-1.033,25.449-3.227
		c3.771-1.418,7.269-4.271,9.961-7.786c3.329-4.343,5.424-9.692,5.249-14.624c-2.376,3.995-8.63,5.43-12.863,6.668
		c-7.448,2.18-15.366,2.312-22.644,4.657c-9.049,2.917-18.612,7.334-27.061,11.692c-5.197,2.683-25.441,14.128-29.913,17.771
		c-8.511,6.934-10.924,17.014-18.123,25.018c-4.218,4.688-22.089,18.467-25.841,21.971c-6.842,6.395-11.621,15.161-21.82,22.018
		c-3.01,2.023-2.92,5.164-3.404,8.428c-0.758,5.15,2.158,5.355,5.327,7.99c2.546,2.117,4.106,5.686,5.815,8.648
		c1.366,2.367,3.926,9.633,6.225,10.832c1.547,0.811,2.614-0.91,4.09-0.498c1.99,0.557,3.301,2.824,4.725,4.135
		c4.037,3.729,8.396,7.891,13.565,10.195c7.466,3.33,16.511,3.477,24.991,2.23c-4.766-2.213-9.5-5.678-12.111-7.969
		c-6.383-5.609-10.045-15.385-8.233-23.619c3.53-16.059,21.08-25.701,34.872-32.766c8.124-4.16,18.607-3.244,26.181,1.332
		c9.33,5.637,10.822,17.156,9.175,26.746c-1.482,8.627-3.244,16.746-7.43,24.527c-2.908,5.404-10.869,14.207-17.147,15.996
		c-1.74,0.498-8.159,0.922-13.446,0.961c2.921,4.65,7.434,8.26,12.479,9.783c-0.14,1.146-0.371,3.025,2.48,4.535
		c3.383,1.189,3.051-2.869,16.988-0.5c7.537,1.279,14.572-1.652,20.957-6.27c2.561-1.852,6.234-4.227,8.203-6.721
		c1.764-2.242,6.394-11.146,11.836-18.354c-6.633,3.398-14.719,6.732-17.626,3.508c-3.989-4.42,0.277-13.311,2.707-16.936
		c3.188-4.754,9.996-6.531,14.694-9.455c5.992-3.729,9.297-6.871,13.475-12.531c3.031-4.104,6.045-9.584,7.35-16.299
		c1.923-9.911,1.66-23.073-11.164-37.622c-9.426-8.852-30.154-10.783-46.045-7.372c11.447-3.741,17.42-3.673,24.088-3.242
		c7.475,0.482,14.961,1.05,22.322,7.511c8.496,7.455,12.591,14.976,14.606,25.539c0.764,4.006,0.514,8.094,0.219,14.522
		c0.083,0,5.526-0.477,5.604-0.477c5.229,0.016,9.591,0.656,14.325,2.777c5.062,2.269,9.553,5.375,13.547,8.973
		c0.721,0.649,1.431,1.309,2.119,1.988c5.059-25.644,1.244-53.158-12.834-77.572c-6.013-10.426-13.462-19.496-21.931-27.146
		c-0.789,0.494-1.543,0.93-2.269,1.323c-5.406,2.935-9.107,3.335-11.966,4.701C172.712,44.091,169.428,46.206,163.469,49.353z
		 M83.815,88.428c-3.361,2.949-8.068,5.399-12.207,7.116c-1.839,0.764-2.294,4.213-3.209,2.756
		c-0.223-0.355,0.844-1.449,1.787-3.555c3.019-6.729,3.789-8.467,8.613-13.145c4.822-4.676,10.102-8.981,16.062-11.23
		C85.081,80.852,90.042,82.966,83.815,88.428z"/>
</g>
</svg>
