<?xml version="1.0" encoding="utf-8"?>
<!-- Generator: Adobe Illustrator 18.0.0, SVG Export Plug-In . SVG Version: 6.00 Build 0)  -->
<!DOCTYPE svg PUBLIC "-//W3C//DTD SVG 1.1//EN" "http://www.w3.org/Graphics/SVG/1.1/DTD/svg11.dtd">
<svg version="1.1" id="Layer_1" xmlns="http://www.w3.org/2000/svg" xmlns:xlink="http://www.w3.org/1999/xlink" x="0px" y="0px"
	 viewBox="-74.5 -74.5 185 185" enable-background="new -74.5 -74.5 185 185" xml:space="preserve">
<g transform="translate(0, 0) scale(1) rotate(0)">
	<g id="mcdonalds">
		<path fill="#F5AF24" d="M0-20.9c0-13.3,5.9-33.2,11.8-33.2c5.8,0,7.8,15.1,7.8,15.1s2.3-15.1,7.7-15.1c5.8,0,11.9,18.2,11.9,33.2
			h-5c0-12-3.2-30-6.7-30c-5.5,0-5.5,28.1-5.5,28.1h-5C17.1-38,15-51,11.9-51C8.1-51,5-34.2,5-20.9H0z"/>
	</g>
</g>
<g transform="translate(0, 0) scale(1) rotate(0)">
	<g id="mcdonalds_1_">
		<path fill="#F5AF24" d="M37.2-21.5c9.4-9.4,27.7-19.3,31.8-15.2c4.1,4.1-5.2,16.2-5.2,16.2s12.3-9,16.1-5.2
			c4.1,4.1-4.5,21.3-15.1,31.9l-3.5-3.5c8.5-8.5,19-23.5,16.5-25.9c-3.9-3.9-23.8,16-23.8,16l-3.5-3.5
			c10.7-10.7,18.4-21.3,16.2-23.6c-2.7-2.7-16.7,7-26.1,16.4L37.2-21.5z"/>
	</g>
</g>
<g transform="translate(0, 0) scale(1) rotate(0)">
	<g id="mcdonalds_2_">
		<path fill="#F5AF24" d="M63.9,4.3c13.3,0,33.2,5.9,33.2,11.8c0,5.8-15.1,7.8-15.1,7.8s15.1,2.3,15.1,7.7
			c0,5.8-18.2,11.9-33.2,11.9v-5c12,0,30-3.2,30-6.7c0-5.5-28.1-5.5-28.1-5.5v-5C81,21.4,94,19.4,94,16.2c0-3.8-16.7-6.9-30-6.9V4.3
			z"/>
	</g>
</g>
<g transform="translate(0, 0) scale(1) rotate(0)">
	<g id="mcdonalds_3_">
		<path fill="#F5AF24" d="M64.5,41.5c9.4,9.4,19.3,27.7,15.2,31.8c-4.1,4.1-16.2-5.2-16.2-5.2s9,12.3,5.2,16.1
			c-4.1,4.1-21.3-4.5-31.9-15.1l3.5-3.5c8.5,8.5,23.5,19,25.9,16.5c3.9-3.9-16-23.8-16-23.8l3.5-3.5c10.7,10.7,21.3,18.4,23.6,16.2
			c2.7-2.7-7-16.7-16.4-26.1L64.5,41.5z"/>
	</g>
</g>
<g transform="translate(0, 0) scale(1) rotate(0)">
	<g id="mcdonalds_4_">
		<path fill="#F5AF24" d="M38.7,68.3c0,13.3-5.9,33.2-11.8,33.2c-5.8,0-7.8-15.1-7.8-15.1s-2.3,15.1-7.7,15.1
			c-5.8,0-11.9-18.2-11.9-33.2h5c0,12,3.2,30,6.7,30c5.5,0,5.5-28.1,5.5-28.1h5c0,15.2,2.1,28.1,5.2,28.1c3.8,0,6.9-16.7,6.9-30
			H38.7z"/>
	</g>
</g>
<g transform="translate(0, 0) scale(1) rotate(0)">
	<g id="mcdonalds_5_">
		<path fill="#F5AF24" d="M1.5,68.9C-7.9,78.3-26.2,88.2-30.4,84c-4.1-4.1,5.2-16.2,5.2-16.2s-12.3,9-16.1,5.2
			c-4.1-4.1,4.5-21.3,15.1-31.9l3.5,3.5c-8.5,8.5-19,23.5-16.5,25.9c3.9,3.9,23.8-16,23.8-16l3.5,3.5
			c-10.7,10.7-18.4,21.3-16.2,23.6c2.7,2.7,16.7-7,26.1-16.4L1.5,68.9z"/>
	</g>
</g>
<g transform="translate(0, 0) scale(1) rotate(0)">
	<g id="mcdonalds_6_">
		<path fill="#F5AF24" d="M-25.3,43c-13.3,0-33.2-5.9-33.2-11.8c0-5.8,15.1-7.8,15.1-7.8s-15.1-2.3-15.1-7.7
			c0-5.8,18.2-11.9,33.2-11.9v5c-12,0-30,3.2-30,6.7c0,5.5,28.1,5.5,28.1,5.5v5c-15.2,0-28.1,2.1-28.1,5.2c0,3.8,16.7,6.9,30,6.9V43
			z"/>
	</g>
</g>
<g transform="translate(0, 0) scale(1) rotate(0)">
	<g id="mcdonalds_7_">
		<path fill="#F5AF24" d="M-25.9,5.8C-35.3-3.6-45.2-21.9-41-26c4.1-4.1,16.2,5.2,16.2,5.2s-9-12.3-5.2-16.1
			c4.1-4.1,21.3,4.5,31.9,15.1l-3.5,3.5c-8.5-8.5-23.5-19-25.9-16.5c-3.9,3.9,16,23.8,16,23.8l-3.5,3.5
			c-10.7-10.7-21.3-18.4-23.6-16.2c-2.7,2.7,7,16.7,16.4,26.1L-25.9,5.8z"/>
	</g>
</g>
</svg>
