<?xml version="1.0" encoding="utf-8"?>
<!-- Generator: Adobe Illustrator 16.0.0, SVG Export Plug-In . SVG Version: 6.00 Build 0)  -->
<!DOCTYPE svg PUBLIC "-//W3C//DTD SVG 1.1//EN" "http://www.w3.org/Graphics/SVG/1.1/DTD/svg11.dtd">
<svg version="1.1" id="Layer_1" xmlns="http://www.w3.org/2000/svg" xmlns:xlink="http://www.w3.org/1999/xlink" x="0px" y="0px"
	 width="335.049px" height="279.344px" viewBox="0 0 335.049 279.344" enable-background="new 0 0 335.049 279.344"
	 xml:space="preserve">
<g>
	<path fill="#2B326B" d="M282.111,229.269c-4.275-10.688-6.413-37.624-6.413-37.624c-0.428-16.674-12.398-33.348-12.398-33.348
		c-8.123-5.559-5.985-24.37-5.985-24.37c6.84-28.645-5.131-38.906-5.131-38.906c-8.551-11.543-49.595-6.84-49.595-6.84
		c-31.21,0.855-38.906-11.116-38.906-11.116c-3.42-7.696-27.79-6.413-27.79-6.413c-9.406,0.428-10.261-4.703-10.261-4.703
		c0-7.269,3.848-8.124,3.848-8.124c24.797-9.833,49.595-28.218,49.595-28.218c8.123-7.268-1.282-11.116-1.282-11.116
		c1.71-12.826-2.993-11.544-2.993-11.544c-7.268-0.855-5.985,9.406-5.985,9.406c-0.428,5.13-5.131,3.848-5.131,3.848
		c1.283-5.13,1.283-11.543,1.283-11.543c2.138-10.261-3.848-8.551-3.848-8.551c-5.558-0.428-4.703,5.985-4.703,5.985
		c0,7.696-5.558,20.522-5.558,20.522c-2.993,10.261-6.84,0.428-6.84,0.428c-2.138-9.833-0.428-16.674-0.428-16.674
		c4.703-9.833-3.848-6.84-3.848-6.84c-9.406-1.283-4.275,36.768-4.275,36.768c-2.138,4.275-5.558,1.283-5.558,1.283
		c0.428-11.543-2.993-10.261-2.993-10.261c-5.558,0.427-3.42,18.384-3.42,18.384c-3.848,2.138-8.979,10.261-8.979,10.261
		C108.102,55.687,91,59.535,91,59.535c-10.688,0.427-8.123-5.558-8.123-5.558c6.413-8.551,23.087-12.399,23.087-12.399
		c15.392-5.13,11.116-10.688,11.116-10.688c-0.766-3.063-4.792-3.637-9.002-3.34c-5.212-4.998-9.717-0.696-12.042,2.526
		c-7.748,2.5-5.463-1.324-5.463-1.324c4.275-7.696-1.71-7.268-1.71-7.268c-9.833,0-7.695,11.543-7.695,11.543
		c1.282,8.979-3.42,9.406-3.42,9.406c-6.413,1.283-8.979-7.695-8.979-7.695C64.493,27.897,61.5,30.89,61.5,30.89
		c-3.42,3.848-0.428,7.268-0.428,7.268c4.703,5.986,0,7.269,0,7.269c-8.123,2.565-5.558-7.696-5.558-7.696
		c-1.71-2.138-3.42-1.71-3.42-1.71c-11.544,6.413-4.275,16.247-4.275,16.247c5.558,11.116,27.79,8.551,27.79,8.551
		s6.84,0,6.413,4.703c-0.428,4.703-5.558,4.275-5.558,4.275c-26.08-3.848-31.21,15.819-31.21,15.819
		c-3.848,12.399,4.703,11.116,4.703,11.116c8.123,3.848,17.102,0.427,17.102,0.427c3.848-3.42,6.84,1.71,6.84,1.71
		c8.408,13.539,24.37,12.398,24.37,12.398c1.424,6.556,11.686,15.962,11.686,15.962c2.281,8.551,16.247,25.082,16.247,25.082
		c12.542,12.256,8.835,36.485,8.835,36.485c-5.13,5.13-3.135,15.105-3.135,15.105l-1.425,22.232
		c0.855,13.967-10.261,17.102-10.261,17.102c-6.555,1.995-4.561,5.699-4.561,5.699c2.28,4.275,9.548,2.565,9.548,2.565
		c8.979-1.71,13.254-12.398,13.254-12.398c-1.283-10.688,2.993-37.196,2.993-37.196c3.848-8.978,3.848-27.362,3.848-27.362
		c-2.565-20.949,4.275-17.957,4.275-17.957c11.116-2.138,14.964,27.791,14.964,27.791c0,9.833,4.275,18.384,4.275,18.384
		c10.261,15.819,8.979,33.775,8.979,33.775c-8.979,7.696-6.413,10.688-6.413,10.688c6.413,3.421,13.253-5.558,13.253-5.558
		c6.841-3.848,2.139-11.544,2.139-11.544c-10.689-20.521-14.537-60.711-14.537-60.711c0-13.253,7.269-9.405,7.269-9.405
		c9.405,3.848,20.949-1.71,20.949-1.71c10.688-5.559,11.116,1.282,11.116,1.282c3.42,8.979,2.565,35.059,2.565,35.059
		c0.428,29.928-13.682,39.761-13.682,39.761c-12.398,9.406-7.695,11.544-7.695,11.544c14.108,3.42,20.094-13.254,20.094-13.254
		c7.696-12.826,11.972-41.044,11.972-41.044c5.985-5.558,3.848-10.261,3.848-10.261c-2.138-5.558-2.993-19.239-2.993-19.239
		c0.855-18.385,7.269-14.964,7.269-14.964c20.095,6.841,33.348,43.608,33.348,43.608c11.116,31.639,3.421,44.465,3.421,44.465
		c-7.696,2.565-4.703,7.695-4.703,7.695c4.703,2.565,10.261-1.282,10.261-1.282C287.668,235.682,282.111,229.269,282.111,229.269z"
		/>
	<g>
		<path fill-rule="evenodd" clip-rule="evenodd" fill="#2B326B" d="M17.479,270.691H7.479l-1.176,2.785
			c-0.774,1.844-1.164,2.979-1.164,3.394c0,0.266,0.078,0.454,0.219,0.571c0.142,0.112,0.508,0.205,1.099,0.279l1.66,0.187v1.089
			c-1.104-0.076-2.351-0.118-3.739-0.118c-1.66,0-3.119,0.042-4.377,0.118v-1.089l0.519-0.019c0.81-0.02,1.33-0.104,1.566-0.245
			c0.236-0.15,0.491-0.504,0.756-1.068c0.815-1.66,1.653-3.459,2.51-5.383l4.755-10.782c1.27-2.859,2.139-4.94,2.599-6.232h1.176
			l8.755,20.375c0.59,1.381,0.98,2.216,1.182,2.5c0.194,0.283,0.419,0.482,0.673,0.603c0.254,0.122,0.821,0.205,1.713,0.252v1.089
			c-1.5-0.076-2.93-0.118-4.294-0.118c-1.27,0-2.96,0.042-5.068,0.118v-1.089l1.712-0.104c0.608-0.042,0.975-0.105,1.086-0.19
			c0.177-0.122,0.261-0.288,0.261-0.483c0-0.207-0.172-0.75-0.515-1.626L17.479,270.691L17.479,270.691z M8.116,269.271h8.726
			l-4.361-10.42L8.116,269.271L8.116,269.271z"/>
		<path fill-rule="evenodd" clip-rule="evenodd" fill="#2B326B" d="M27.137,255.371v-0.97c1.005-0.099,2.044-0.264,3.113-0.503
			c0.739-0.146,1.525-0.381,2.357-0.708c0.124-0.052,0.236-0.084,0.325-0.084c0.242,0,0.367,0.221,0.367,0.657l-0.089,0.863
			c-0.078,0.659-0.124,1.15-0.136,1.476c-0.036,1.483-0.054,3.516-0.054,6.093v3.668l2.114-2.126
			c0.449-0.444,1.041-0.799,1.773-1.069c0.732-0.273,1.512-0.411,2.345-0.411c1.854,0,3.385,0.646,4.584,1.93
			c1.199,1.275,1.801,2.982,1.801,5.102c0,1.164-0.212,2.3-0.631,3.403c-0.42,1.101-0.934,1.991-1.53,2.671
			c-0.278,0.325-1.052,0.947-2.31,1.86c-1.265,0.915-2.086,1.467-2.452,1.639c-0.691,0.325-1.519,0.482-2.476,0.482
			c-0.862,0-1.642-0.112-2.327-0.348c-0.685-0.23-1.406-0.626-2.156-1.193l-1.382,1.282l-0.59-0.224
			c0.218-1.782,0.331-3.646,0.331-5.608v-10.996c0-1.693-0.054-3.43-0.154-5.204c-0.047-0.819-0.148-1.304-0.295-1.451
			c-0.154-0.153-0.49-0.23-1.022-0.23H27.137L27.137,255.371z M33.021,273.354c0,1.248,0.048,1.963,0.142,2.148
			c0.183,0.379,0.679,0.816,1.495,1.313c0.815,0.495,1.707,0.744,2.675,0.744c1.685,0,2.984-0.674,3.911-2.02
			c0.922-1.353,1.383-2.989,1.383-4.917c0-2.009-0.449-3.544-1.341-4.594c-0.892-1.06-2.098-1.585-3.61-1.585
			c-1.004,0-1.92,0.283-2.758,0.861c-0.838,0.58-1.412,1.251-1.725,2.025c-0.113,0.303-0.172,0.992-0.172,2.076V273.354
			L33.021,273.354z"/>
		<path fill-rule="evenodd" clip-rule="evenodd" fill="#2B326B" d="M50.777,270.624c0.053,2.269,0.639,3.995,1.75,5.176
			c1.104,1.176,2.558,1.761,4.359,1.761c0.81,0,1.607-0.131,2.404-0.396c0.798-0.267,1.59-0.663,2.37-1.192l0.294,0.261
			l-0.555,1.449c-0.957,0.559-1.943,0.973-2.958,1.25c-1.01,0.275-2.057,0.412-3.132,0.412c-2.338,0-4.229-0.74-5.664-2.221
			c-1.435-1.483-2.157-3.499-2.157-6.033c0-1.938,0.402-3.62,1.211-5.038c0.532-0.934,1.512-1.802,2.942-2.594
			c1.429-0.797,2.823-1.201,4.17-1.201c2.044,0,3.663,0.604,4.855,1.804c1.193,1.201,1.791,2.876,1.791,5.039l-0.036,1.023
			c-0.761,0.183-1.489,0.301-2.179,0.361c-1.235,0.095-2.948,0.14-5.14,0.14H50.777L50.777,270.624z M50.824,269.323
			c1.791,0.077,3.764,0.12,5.92,0.12c0.868,0,1.701-0.043,2.51-0.12v-0.967c0-1.018-0.201-1.98-0.603-2.895
			c-0.254-0.562-0.702-1.035-1.335-1.406c-0.631-0.379-1.363-0.567-2.196-0.567c-1.294,0-2.328,0.478-3.095,1.423
			C51.25,265.857,50.848,267.329,50.824,269.323L50.824,269.323z"/>
		<path fill-rule="evenodd" clip-rule="evenodd" fill="#2B326B" d="M70.053,266.177c0.461-0.444,0.963-1.017,1.506-1.731
			c0.649-0.846,1.246-1.423,1.801-1.732c0.555-0.312,1.135-0.466,1.75-0.466c0.631,0,1.116,0.07,1.452,0.224
			c0.16,0.065,0.242,0.179,0.242,0.327l-0.018,0.176c-0.171,0.934-0.271,2.239-0.295,3.928h-0.78
			c-0.265-0.588-0.578-1.002-0.938-1.245c-0.367-0.242-0.804-0.366-1.311-0.366c-0.68,0-1.312,0.23-1.891,0.689
			c-0.584,0.463-0.974,1.111-1.169,1.939c-0.194,0.833-0.295,2.463-0.295,4.903c0,1.602,0.066,2.954,0.189,4.048
			c0.047,0.406,0.166,0.655,0.348,0.76c0.438,0.242,1.082,0.368,1.938,0.368h1.041v0.998c-1.767-0.076-3.439-0.118-5.022-0.118
			c-1.536,0-3.048,0.042-4.548,0.118v-0.998l1.661-0.145c0.59-0.045,0.963-0.153,1.117-0.328c0.153-0.172,0.254-0.733,0.3-1.679
			c0.083-1.658,0.124-3.631,0.124-5.921c0-2.775-0.112-4.412-0.33-4.896c-0.148-0.307-0.621-0.466-1.418-0.466h-1.454v-1.005
			c1.116-0.122,2.115-0.289,2.995-0.491c0.875-0.199,1.654-0.46,2.333-0.773c0.16-0.077,0.296-0.117,0.396-0.117
			c0.13,0,0.219,0.035,0.26,0.101c0.048,0.071,0.07,0.229,0.07,0.471L70.053,266.177L70.053,266.177z"/>
		<path fill-rule="evenodd" clip-rule="evenodd" fill="#2B326B" d="M93.731,276.536l0.467,0.421l-0.709,1.104
			c-0.786,0.431-1.59,0.749-2.421,0.963c-0.833,0.214-1.679,0.319-2.547,0.319c-1.695,0-3.136-0.326-4.318-0.967
			c-1.181-0.645-2.097-1.585-2.741-2.808c-0.644-1.223-0.969-2.677-0.969-4.36c0-1.49,0.248-2.782,0.745-3.887
			c0.495-1.101,1.187-1.962,2.084-2.587c0.893-0.619,2.009-1.235,3.35-1.832c0.946-0.424,2.003-0.645,3.167-0.645
			c0.885,0,1.653,0.077,2.291,0.221c0.639,0.146,1.33,0.4,2.068,0.767c-0.291,1.524-0.443,3.049-0.467,4.574h-1.092v-0.87
			c0-0.738-0.106-1.258-0.319-1.566c-0.213-0.301-0.696-0.608-1.458-0.909c-0.763-0.297-1.595-0.449-2.493-0.449
			c-1.56,0-2.759,0.479-3.604,1.429c-0.838,0.953-1.258,2.376-1.258,4.265c0,2.437,0.62,4.386,1.867,5.851
			c1.116,1.328,2.563,1.991,4.324,1.991c0.697,0,1.375-0.084,2.043-0.26C92.409,277.129,93.077,276.877,93.731,276.536
			L93.731,276.536z"/>
		<path fill-rule="evenodd" clip-rule="evenodd" fill="#2B326B" d="M102.02,266.177c0.461-0.444,0.962-1.017,1.506-1.731
			c0.649-0.846,1.246-1.423,1.801-1.732c0.555-0.312,1.135-0.466,1.749-0.466c0.632,0,1.116,0.07,1.453,0.224
			c0.16,0.067,0.243,0.179,0.243,0.327l-0.019,0.176c-0.171,0.936-0.271,2.239-0.295,3.928h-0.78
			c-0.266-0.588-0.578-1.002-0.939-1.245c-0.365-0.242-0.803-0.366-1.311-0.366c-0.68,0-1.312,0.23-1.89,0.689
			c-0.585,0.463-0.976,1.111-1.169,1.939c-0.195,0.833-0.295,2.463-0.295,4.903c0,1.602,0.065,2.954,0.189,4.048
			c0.046,0.406,0.165,0.655,0.348,0.76c0.438,0.242,1.081,0.368,1.937,0.368h1.041v0.998c-1.767-0.076-3.438-0.118-5.022-0.118
			c-1.535,0-3.047,0.042-4.548,0.118v-0.998l1.661-0.145c0.591-0.045,0.963-0.149,1.116-0.328c0.154-0.172,0.255-0.733,0.302-1.679
			c0.083-1.658,0.124-3.631,0.124-5.921c0-2.775-0.112-4.412-0.33-4.896c-0.148-0.307-0.62-0.466-1.418-0.466h-1.454v-1.005
			c1.117-0.122,2.115-0.288,2.995-0.491c0.875-0.199,1.654-0.46,2.333-0.773c0.159-0.075,0.295-0.117,0.396-0.117
			c0.13,0,0.219,0.035,0.261,0.101c0.047,0.071,0.071,0.229,0.071,0.471L102.02,266.177L102.02,266.177z"/>
		<path fill-rule="evenodd" clip-rule="evenodd" fill="#2B326B" d="M112.483,270.691c0-1.592,0.366-3.033,1.104-4.319
			c0.737-1.282,1.778-2.293,3.107-3.021c1.335-0.726,2.847-1.093,4.542-1.093c2.458,0,4.425,0.733,5.901,2.187
			c1.478,1.454,2.215,3.392,2.215,5.814c0,2.859-0.963,5.131-2.888,6.816c-1.719,1.511-3.78,2.268-6.179,2.268
			c-2.304,0-4.183-0.775-5.63-2.326C113.204,275.464,112.483,273.354,112.483,270.691L112.483,270.691z M115.738,269.46
			c0,2.38,0.484,4.413,1.459,6.103c0.975,1.688,2.38,2.533,4.217,2.533c1.395,0,2.522-0.529,3.379-1.588
			c0.863-1.062,1.293-2.677,1.293-4.833c0-1.742-0.254-3.248-0.762-4.524c-0.507-1.275-1.175-2.204-2.008-2.787
			c-0.833-0.581-1.76-0.875-2.788-0.875c-0.91,0-1.73,0.237-2.463,0.698s-1.276,1.075-1.618,1.849
			C115.973,267.087,115.738,268.226,115.738,269.46L115.738,269.46z"/>
		<path fill-rule="evenodd" clip-rule="evenodd" fill="#2B326B" d="M138.221,265.379l2.321-2.08c0.366-0.33,0.756-0.567,1.176-0.708
			c0.596-0.207,1.193-0.313,1.778-0.313c1.305,0,2.351,0.237,3.143,0.703c0.791,0.466,1.518,1.305,2.173,2.517l2.234-2.039
			c0.377-0.349,0.844-0.614,1.398-0.797c0.728-0.254,1.431-0.384,2.115-0.384c1.035,0,1.98,0.242,2.818,0.727
			c0.845,0.484,1.47,1.115,1.879,1.891c0.407,0.773,0.614,1.818,0.614,3.149l-0.054,6.769c0,1.507,0.089,2.4,0.261,2.671
			c0.171,0.273,0.62,0.428,1.334,0.463l1.264,0.052v0.998l-0.833-0.048c-1.34-0.07-2.244-0.105-2.717-0.105
			c-0.726,0-1.576,0.054-2.545,0.153c0.164-2.109,0.242-4.579,0.242-7.401c0-2.394-0.101-3.96-0.307-4.71
			c-0.213-0.751-0.609-1.341-1.2-1.767c-0.584-0.425-1.322-0.644-2.215-0.644c-0.998,0-1.86,0.271-2.576,0.811
			c-0.714,0.538-1.158,1.176-1.334,1.926c-0.112,0.473-0.171,2.505-0.171,6.094c0,2.111,0.018,3.316,0.054,3.607
			c0.035,0.294,0.129,0.501,0.284,0.623c0.16,0.12,0.655,0.232,1.5,0.318l1.158,0.145v0.998c-2.043-0.1-3.544-0.153-4.501-0.153
			c-0.762,0-2.239,0.054-4.43,0.153v-0.998h1.157c0.697,0,1.146-0.103,1.353-0.294c0.207-0.197,0.332-0.663,0.367-1.392
			c0.088-1.889,0.135-3.863,0.135-5.92c0-1.829-0.124-3.095-0.372-3.795c-0.249-0.698-0.667-1.249-1.264-1.651
			c-0.597-0.406-1.305-0.606-2.139-0.606c-0.886,0-1.696,0.247-2.422,0.743c-0.726,0.498-1.222,1.101-1.488,1.802
			c-0.171,0.482-0.26,1.857-0.26,4.117c0,2.481,0.023,4.309,0.071,5.471c0.023,0.545,0.106,0.887,0.26,1.042
			c0.148,0.147,0.644,0.259,1.488,0.339l1.194,0.145v0.998c-1.442-0.076-2.806-0.118-4.083-0.118c-1.459,0-3.036,0.042-4.743,0.118
			v-0.998h1.317c0.745,0,1.2-0.199,1.347-0.595c0.147-0.404,0.225-2.574,0.225-6.507c0-2.884-0.019-4.583-0.054-5.104
			c-0.034-0.521-0.129-0.847-0.29-0.987c-0.165-0.137-0.656-0.207-1.477-0.207h-1.069v-0.95c1.695-0.23,3.154-0.55,4.376-0.952
			l1.264-0.484c0.208,0,0.313,0.137,0.313,0.414l-0.035,0.62C138.221,263.884,138.208,264.592,138.221,265.379L138.221,265.379z"/>
		<path fill-rule="evenodd" clip-rule="evenodd" fill="#2B326B" d="M165.402,255.371v-0.97c1.003-0.099,2.043-0.264,3.112-0.503
			c0.738-0.146,1.524-0.381,2.357-0.708c0.124-0.052,0.236-0.082,0.324-0.082c0.242,0,0.366,0.219,0.366,0.655l-0.087,0.864
			c-0.078,0.66-0.125,1.149-0.137,1.475c-0.035,1.483-0.054,3.516-0.054,6.093v3.669l2.114-2.127
			c0.449-0.444,1.04-0.799,1.773-1.069c0.731-0.273,1.512-0.409,2.345-0.409c1.854,0,3.384,0.645,4.585,1.928
			c1.197,1.275,1.8,2.982,1.8,5.102c0,1.164-0.212,2.3-0.631,3.403c-0.419,1.101-0.934,1.991-1.532,2.671
			c-0.275,0.325-1.05,0.947-2.308,1.86c-1.265,0.915-2.086,1.467-2.451,1.639c-0.691,0.325-1.519,0.482-2.476,0.482
			c-0.861,0-1.642-0.112-2.328-0.348c-0.685-0.23-1.406-0.626-2.156-1.193l-1.383,1.282l-0.59-0.224
			c0.219-1.777,0.331-3.646,0.331-5.608v-10.994c0-1.693-0.054-3.432-0.154-5.204c-0.047-0.821-0.146-1.306-0.295-1.453
			c-0.153-0.153-0.49-0.23-1.022-0.23H165.402L165.402,255.371z M171.285,273.354c0,1.248,0.048,1.963,0.142,2.151
			c0.183,0.376,0.679,0.813,1.493,1.311c0.816,0.495,1.709,0.744,2.678,0.744c1.683,0,2.984-0.674,3.911-2.02
			c0.922-1.353,1.383-2.989,1.383-4.917c0-2.009-0.451-3.544-1.343-4.594c-0.891-1.06-2.096-1.585-3.609-1.585
			c-1.004,0-1.921,0.283-2.757,0.861c-0.841,0.581-1.413,1.256-1.728,2.025c-0.111,0.303-0.17,0.992-0.17,2.076V273.354
			L171.285,273.354z"/>
		<path fill-rule="evenodd" clip-rule="evenodd" fill="#2B326B" d="M191.222,254.526c0.531,0,0.987,0.193,1.364,0.578
			c0.384,0.391,0.574,0.852,0.574,1.395c0,0.544-0.19,1.005-0.574,1.381c-0.377,0.386-0.833,0.574-1.364,0.574
			c-0.543,0-1.004-0.188-1.383-0.574c-0.383-0.376-0.573-0.837-0.573-1.381c0-0.543,0.19-1.004,0.573-1.395
			C190.218,254.72,190.679,254.526,191.222,254.526L191.222,254.526z M192.605,262.195l0.419,0.259
			c-0.082,0.862-0.137,1.813-0.16,2.853c-0.077,3.369-0.117,5.857-0.117,7.462c0,1.5,0.054,2.782,0.152,3.841
			c0.048,0.418,0.16,0.702,0.332,0.867c0.172,0.16,0.585,0.284,1.246,0.36l1.176,0.161v0.998c-1.684-0.076-3.22-0.118-4.603-0.118
			c-1.365,0-2.736,0.042-4.124,0.118v-0.998l1.49-0.161c0.579-0.046,0.934-0.155,1.068-0.318c0.131-0.165,0.212-0.727,0.247-1.672
			c0.061-1.465,0.091-3.483,0.091-6.054c0-1.791-0.03-3.169-0.091-4.137c-0.021-0.359-0.122-0.615-0.299-0.762
			c-0.184-0.155-0.579-0.226-1.206-0.226h-1.301v-1.021c1.413-0.207,2.447-0.402,3.108-0.574
			C190.703,262.903,191.559,262.607,192.605,262.195L192.605,262.195z"/>
		<path fill-rule="evenodd" clip-rule="evenodd" fill="#2B326B" d="M201.29,270.624c0.052,2.269,0.636,3.995,1.748,5.176
			c1.104,1.176,2.557,1.761,4.359,1.761c0.808,0,1.606-0.131,2.403-0.396c0.796-0.267,1.59-0.663,2.369-1.192l0.296,0.261
			l-0.556,1.449c-0.957,0.559-1.942,0.973-2.96,1.25c-1.009,0.275-2.056,0.412-3.131,0.412c-2.339,0-4.229-0.74-5.664-2.221
			c-1.436-1.483-2.157-3.499-2.157-6.033c0-1.938,0.402-3.62,1.212-5.038c0.531-0.934,1.512-1.802,2.941-2.594
			c1.43-0.797,2.822-1.199,4.17-1.199c2.045,0,3.663,0.602,4.857,1.802c1.192,1.201,1.788,2.876,1.788,5.039l-0.035,1.023
			c-0.762,0.183-1.489,0.301-2.18,0.361c-1.233,0.095-2.947,0.14-5.14,0.14H201.29L201.29,270.624z M201.336,269.323
			c1.788,0.077,3.762,0.12,5.918,0.12c0.869,0,1.7-0.043,2.511-0.12v-0.967c0-1.018-0.2-1.98-0.604-2.895
			c-0.254-0.562-0.703-1.035-1.332-1.406c-0.634-0.379-1.366-0.567-2.198-0.567c-1.296,0-2.328,0.478-3.097,1.423
			C201.762,265.857,201.358,267.329,201.336,269.323L201.336,269.323z"/>
		<path fill-rule="evenodd" clip-rule="evenodd" fill="#2B326B" d="M236.869,266.313l1.051-1.578
			c1.193,0.07,2.115,0.105,2.771,0.105l2.179-0.052c2.151-0.061,3.93-0.09,5.353-0.102c-0.188,0.98-0.318,1.8-0.4,2.473
			c-1.235-0.198-2.896-0.328-4.986-0.398c0.142,0.603,0.212,1.11,0.212,1.524c0,0.932-0.224,1.889-0.667,2.871
			c-0.443,0.98-1.204,2.036-2.274,3.165c1.176,0.868,2.292,1.489,3.355,1.86c1.063,0.379,2.025,0.567,2.888,0.567
			c0.439,0,1.105-0.277,1.99-0.833l0.263,0.833c-1.455,1.034-2.477,1.827-3.068,2.37c-0.461,0.146-0.932,0.224-1.416,0.224
			c-1.767,0-3.828-0.957-6.197-2.871c-1.323,1.081-2.527,1.831-3.616,2.252c-1.08,0.412-2.274,0.619-3.561,0.619
			c-2.128,0-3.864-0.666-5.209-2.008c-1.353-1.336-2.027-3.001-2.027-4.988c0-1.682,0.498-3.175,1.488-4.476
			c0.68-0.894,1.997-1.933,3.947-3.137c-0.668-1.748-1.007-3.231-1.007-4.444c0-0.938,0.137-1.748,0.414-2.446
			c0.189-0.471,0.545-0.938,1.076-1.397c1.357-1.164,2.221-1.839,2.576-2.026c0.519-0.267,1.128-0.396,1.819-0.396
			c0.979,0,1.748,0.301,2.31,0.896c0.562,0.604,0.837,1.413,0.837,2.422c0,2.37-1.688,4.727-5.067,7.083
			c1.891,3.499,4.277,6.523,7.165,9.085c0.656-0.795,1.112-1.528,1.359-2.197c0.249-0.674,0.372-1.373,0.372-2.113
			c0-0.803-0.142-1.477-0.419-2.009c-0.124-0.242-0.308-0.396-0.55-0.466c-0.419-0.112-1.376-0.164-2.877-0.154L236.869,266.313
			L236.869,266.313z M231.309,263.234c2.127-1.712,3.185-3.393,3.185-5.039c0-0.727-0.177-1.308-0.531-1.738
			c-0.36-0.436-0.81-0.648-1.353-0.648c-0.645,0-1.176,0.253-1.583,0.769c-0.408,0.513-0.615,1.3-0.615,2.361
			C230.412,260.114,230.712,261.544,231.309,263.234L231.309,263.234z M236.869,275.569c-2.735-2.51-5.181-5.695-7.337-9.553
			c-1.11,0.773-1.891,1.558-2.34,2.364c-0.447,0.802-0.675,1.692-0.675,2.674c0,1.612,0.557,3.057,1.681,4.326
			c1.115,1.268,2.515,1.902,4.187,1.902C233.826,277.283,235.321,276.715,236.869,275.569L236.869,275.569z"/>
		<path fill-rule="evenodd" clip-rule="evenodd" fill="#2B326B" d="M259.087,267.228v5.955c0,2.368,0.123,3.746,0.376,4.146
			c0.254,0.397,0.904,0.6,1.938,0.6h1.228v1.068c-2.189-0.076-3.938-0.118-5.239-0.118c-1.315,0-3.018,0.042-5.11,0.118v-1.068h1.39
			c0.992,0,1.6-0.189,1.825-0.574c0.224-0.378,0.336-1.774,0.336-4.171v-13.068c0-2.34-0.122-3.702-0.371-4.081
			c-0.248-0.386-0.892-0.575-1.932-0.575h-1.248v-1.085c1.921,0.076,3.646,0.118,5.176,0.118l9.954-0.188
			c1.04,0,2.021,0.052,2.942,0.153c-0.367,1.234-0.573,2.983-0.608,5.244h-1.106c-0.07-1.199-0.206-2.271-0.413-3.218
			c-1.583-0.414-3.178-0.622-4.796-0.622c-1.406,0-2.789,0.07-4.134,0.226c-0.142,1.495-0.207,2.859-0.207,4.084v5.506
			c0.689,0.035,1.369,0.045,2.037,0.045c1.73,0,3.248-0.042,4.555-0.137c0.436-0.021,0.733-0.115,0.892-0.282
			c0.153-0.17,0.282-0.614,0.389-1.341l0.173-1.318h1.092c-0.105,2.111-0.16,3.468-0.16,4.067l0.02,4.086h-1.124v-1.336
			c0-1.059-0.2-1.706-0.607-1.937c-0.4-0.229-1.95-0.341-4.636-0.341C260.976,267.183,260.103,267.192,259.087,267.228
			L259.087,267.228z"/>
		<path fill-rule="evenodd" clip-rule="evenodd" fill="#2B326B" d="M276.531,254.526c0.53,0,0.985,0.193,1.363,0.578
			c0.386,0.391,0.574,0.852,0.574,1.395c0,0.544-0.188,1.005-0.574,1.381c-0.378,0.386-0.833,0.574-1.363,0.574
			c-0.544,0-1.005-0.188-1.383-0.574c-0.384-0.376-0.572-0.837-0.572-1.381c0-0.543,0.188-1.004,0.572-1.395
			C275.526,254.72,275.987,254.526,276.531,254.526L276.531,254.526z M277.913,262.195l0.419,0.259
			c-0.082,0.862-0.137,1.813-0.159,2.853c-0.076,3.369-0.118,5.857-0.118,7.462c0,1.5,0.054,2.782,0.153,3.841
			c0.047,0.418,0.159,0.702,0.331,0.867c0.172,0.16,0.586,0.284,1.246,0.36l1.176,0.161v0.998c-1.684-0.076-3.219-0.118-4.602-0.118
			c-1.366,0-2.735,0.042-4.123,0.118v-0.998l1.489-0.161c0.578-0.046,0.933-0.155,1.069-0.318c0.129-0.165,0.212-0.727,0.247-1.672
			c0.059-1.465,0.089-3.483,0.089-6.054c0-1.791-0.03-3.169-0.089-4.137c-0.023-0.359-0.124-0.615-0.303-0.762
			c-0.182-0.155-0.577-0.226-1.204-0.226h-1.299v-1.021c1.411-0.207,2.446-0.402,3.106-0.574
			C276.01,262.903,276.867,262.607,277.913,262.195L277.913,262.195z"/>
		<path fill-rule="evenodd" clip-rule="evenodd" fill="#2B326B" d="M288.091,265.396v6.779c0,1.771,0.057,2.896,0.171,3.394
			c0.118,0.498,0.347,0.887,0.703,1.164c0.347,0.275,0.798,0.412,1.341,0.412c0.337,0,0.661-0.062,0.976-0.198
			c0.318-0.131,0.631-0.334,0.943-0.597l0.503,0.606l-1.679,1.991c-0.371,0.127-0.725,0.224-1.074,0.294
			c-0.344,0.066-0.68,0.102-1.004,0.102c-0.85,0-1.573-0.153-2.162-0.459c-0.586-0.301-1.018-0.705-1.281-1.194
			c-0.268-0.491-0.397-1.228-0.397-2.223l0.054-3.344v-6.575c-0.893,0-1.808,0.042-2.753,0.127v-0.746
			c0.992-0.383,1.907-0.778,2.753-1.192c-0.012-1.655-0.061-3.446-0.143-5.37c1.343-0.562,2.305-1.023,2.895-1.365l0.449,0.342
			c-0.095,0.905-0.193,3.031-0.294,6.394c1.404,0,2.557-0.018,3.444-0.052l1.383-0.072l-0.19,1.783l-0.71-0.018l-3.325,0.018
			H288.091L288.091,265.396z"/>
		<path fill-rule="evenodd" clip-rule="evenodd" fill="#2B326B" d="M311.455,276.536l0.467,0.421l-0.709,1.104
			c-0.785,0.431-1.589,0.749-2.422,0.963c-0.832,0.214-1.677,0.319-2.545,0.319c-1.695,0-3.139-0.326-4.319-0.967
			c-1.181-0.645-2.096-1.585-2.74-2.808c-0.644-1.223-0.969-2.677-0.969-4.36c0-1.49,0.249-2.782,0.745-3.887
			c0.495-1.101,1.187-1.962,2.084-2.587c0.892-0.619,2.009-1.235,3.35-1.832c0.945-0.424,2.003-0.645,3.167-0.645
			c0.887,0,1.653,0.077,2.291,0.221c0.639,0.146,1.33,0.4,2.067,0.767c-0.29,1.524-0.442,3.049-0.467,4.574h-1.093v-0.87
			c0-0.738-0.106-1.258-0.319-1.566c-0.213-0.301-0.696-0.608-1.459-0.909c-0.762-0.297-1.595-0.449-2.492-0.449
			c-1.56,0-2.757,0.479-3.604,1.429c-0.839,0.953-1.26,2.376-1.26,4.265c0,2.437,0.621,4.386,1.869,5.851
			c1.115,1.328,2.563,1.991,4.323,1.991c0.697,0,1.375-0.084,2.043-0.26C310.131,277.129,310.799,276.877,311.455,276.536
			L311.455,276.536z"/>
		<path fill-rule="evenodd" clip-rule="evenodd" fill="#2B326B" d="M320.872,265.549l2.269-1.99c0.532-0.495,1.05-0.832,1.566-1.021
			c0.513-0.186,1.134-0.279,1.858-0.279c1.283,0,2.395,0.261,3.334,0.773c0.939,0.516,1.595,1.171,1.953,1.974
			c0.366,0.804,0.552,2.17,0.552,4.094l-0.107,5.124c0,1.148,0.047,2.067,0.143,2.733c0.028,0.277,0.123,0.484,0.283,0.62
			c0.152,0.144,0.489,0.231,1.009,0.276l1.318,0.145v0.998c-1.124-0.076-2.21-0.118-3.271-0.118c-0.912,0-1.814,0.042-2.72,0.118
			c0.207-2.894,0.314-5.743,0.314-8.547c0-1.879-0.119-3.155-0.355-3.825c-0.234-0.673-0.66-1.197-1.268-1.595
			c-0.616-0.389-1.392-0.584-2.323-0.584c-0.957,0-1.831,0.224-2.61,0.68c-0.785,0.459-1.331,0.985-1.63,1.585
			c-0.207,0.431-0.314,1.446-0.314,3.044v3.015c0,2.747,0.065,4.259,0.195,4.55c0.124,0.29,0.585,0.466,1.383,0.535l1.505,0.145
			v0.998c-1.802-0.076-3.25-0.118-4.341-0.118c-1.146,0-2.642,0.042-4.483,0.118v-0.998l1.087-0.145
			c0.685-0.08,1.109-0.175,1.281-0.283c0.172-0.112,0.289-0.357,0.349-0.754c0.077-0.619,0.117-2.016,0.117-4.188v-11.68
			c0-3.085-0.075-4.811-0.241-5.175c-0.1-0.255-0.565-0.386-1.4-0.386h-1.192v-1.05c1.79-0.19,3.22-0.442,4.288-0.78l1.423-0.485
			c0.185,0,0.277,0.118,0.277,0.36l-0.052,0.71l-0.105,3.119c-0.06,1.565-0.09,2.781-0.09,3.651V265.549L320.872,265.549z"/>
	</g>
</g>
</svg>
