<?xml version="1.0" encoding="utf-8"?>
<!-- Generator: Adobe Illustrator 16.0.0, SVG Export Plug-In . SVG Version: 6.00 Build 0)  -->
<!DOCTYPE svg PUBLIC "-//W3C//DTD SVG 1.1//EN" "http://www.w3.org/Graphics/SVG/1.1/DTD/svg11.dtd">
<svg version="1.1" id="Layer_1" xmlns="http://www.w3.org/2000/svg" xmlns:xlink="http://www.w3.org/1999/xlink" x="0px" y="0px"
	 width="192.267px" height="182.156px" viewBox="0 0 192.267 182.156" enable-background="new 0 0 192.267 182.156"
	 xml:space="preserve">
<path fill-rule="evenodd" clip-rule="evenodd" fill="#005497" d="M167.446,162.711c-4.454-0.707-8.421-0.925-8.421-3.314
	c0-0.923,0.544-1.901,1.414-2.553c0.76-0.597,2.769-0.815,4.128-0.815c1.412,0,2.823,0.707,3.693,1.63
	c0.541,0.653,1.195,1.686,1.304,2.771l0,0h7.225l0,0c-0.164-2.661-1.304-5.271-3.369-6.735c-2.011-1.467-4.618-3.26-8.201-3.26
	c-3.423,0-6.79,0.108-9.124,1.848c-2.338,1.683-4.021,4.507-4.021,6.951c0,1.412-0.109,3.097,0.434,4.128
	c0.598,1.032,2.336,3.15,3.695,3.966c1.9,1.086,6.354,1.521,8.798,2.174c2.011,0.487,4.455,0.597,4.997,2.605
	c0.325,1.195-0.055,2.282-1.141,2.988c-1.031,0.705-2.605,1.194-4.345,1.194c-1.794,0-3.531-0.544-4.399-1.63
	c-0.761-1.031-1.196-2.009-1.794-3.583l0,0h-7.223l0,0c0.163,3.312,2.009,6.572,4.291,8.418c2.227,1.792,5.215,2.662,9.017,2.662
	c3.801,0,7.113-0.652,9.56-2.392c2.389-1.737,3.694-4.996,3.694-7.658c0-2.281-0.651-4.073-1.685-5.486
	C173.855,163.852,170.052,163.09,167.446,162.711L167.446,162.711L167.446,162.711L167.446,162.711z"/>
<polygon fill-rule="evenodd" clip-rule="evenodd" fill="#005497" points="73.26,181.286 80.593,181.286 80.593,150.869 
	73.26,150.869 73.26,181.286 73.26,181.286 "/>
<polygon fill-rule="evenodd" clip-rule="evenodd" fill="#005497" points="73.26,148.806 80.647,148.806 80.647,141.473 
	73.26,141.473 73.26,148.806 73.26,148.806 "/>
<path fill-rule="evenodd" clip-rule="evenodd" fill="#005497" d="M62.561,154.889c-2.717-2.119-6.193-3.583-9.994-3.694
	c-0.109,0-0.218,0-0.381,0c-8.419,0-15.264,6.845-15.264,15.208c0,8.42,6.844,15.317,15.264,15.317c0.163,0,0.271,0,0.381,0
	c3.801-0.053,7.277-1.574,9.94-4.182l0,0l0.054,3.748h6.952v-39.813h-6.952V154.889L62.561,154.889L62.561,154.889z M52.621,175.474
	h-0.054l0,0c-4.998,0-9.071-4.072-9.071-9.071c0-4.941,4.073-9.07,9.071-9.07l0,0h0.054l0,0c4.943,0,9.07,4.075,9.07,9.07
	C61.691,171.401,57.564,175.474,52.621,175.474L52.621,175.474L52.621,175.474L52.621,175.474z"/>
<path fill-rule="evenodd" clip-rule="evenodd" fill="#005497" d="M108.077,154.78c-2.715-2.119-6.191-3.586-9.993-3.693
	c-0.109,0-0.271,0-0.381,0c-8.419,0-15.316,6.897-15.316,15.263c0,8.419,6.897,15.317,15.316,15.317c0.109,0,0.271,0,0.381,0
	c3.802-0.109,7.224-1.63,9.94-4.236l0,0v3.748h6.952v-39.761h-6.952L108.077,154.78L108.077,154.78L108.077,154.78z M98.083,175.419
	c-4.998,0-9.125-4.127-9.125-9.123c0-4.943,4.127-9.019,9.125-9.019c4.997,0,9.125,4.075,9.125,9.019
	C107.208,171.292,103.081,175.419,98.083,175.419L98.083,175.419L98.083,175.419L98.083,175.419z"/>
<path fill-rule="evenodd" clip-rule="evenodd" fill="#005497" d="M27.146,150.869v2.88l0,0c-1.412-1.521-2.063-2.01-3.693-2.609
	c-1.467-0.542-3.476-1.03-5.432-1.085c-0.109,0-0.218,0-0.326,0c-2.335,0-4.399,0.38-6.246,1.14
	c-1.793,0.761-3.477,1.956-4.998,3.586c-1.357,1.412-2.445,3.15-3.259,5.053c-0.707,1.9-1.086,3.855-1.086,5.972
	c0,4.619,1.521,8.476,4.562,11.463c2.987,3.042,6.79,4.615,11.352,4.615c0,0,0,0,0.055,0c1.846,0,3.855-0.544,5.485-1.14
	c1.629-0.598,2.824-1.087,3.584-2.173l0,0v2.769l7.061-0.053l-0.053-30.471L27.146,150.869L27.146,150.869L27.146,150.869z
	 M18.076,174.984c-0.055,0-0.055,0-0.055,0c-4.997,0-9.017-4.019-9.017-9.016c0-4.942,4.02-9.016,9.017-9.016c0,0,0,0,0.055,0
	c4.942,0,9.016,4.073,9.016,9.016C27.092,170.966,23.018,174.984,18.076,174.984L18.076,174.984L18.076,174.984L18.076,174.984z"/>
<path fill-rule="evenodd" clip-rule="evenodd" fill="#005497" d="M142.35,150.761l0.055,2.879l0,0
	c-1.413-1.465-2.118-1.956-3.692-2.608c-1.521-0.541-3.478-0.977-5.434-1.03c-0.108,0-0.217,0-0.324,0
	c-2.336,0-4.399,0.379-6.246,1.086c-1.848,0.76-3.532,2.011-4.997,3.585c-1.414,1.412-2.499,3.15-3.26,5.106
	c-0.706,1.845-1.14,3.855-1.14,5.972c0,4.565,1.574,8.421,4.615,11.463c2.934,2.987,6.791,4.562,11.352,4.562
	c1.902,0,3.912-0.488,5.486-1.14c1.63-0.598,2.881-1.086,3.64-2.172l0,0v2.771l7.062-0.055l-0.111-30.418H142.35L142.35,150.761
	L142.35,150.761z M133.279,174.93c-4.995-0.053-9.069-4.071-9.069-9.069c0-4.941,4.074-8.962,9.069-9.017
	c5,0,9.071,4.075,9.071,9.017C142.35,170.858,138.279,174.93,133.279,174.93L133.279,174.93L133.279,174.93L133.279,174.93z"/>
<path fill-rule="evenodd" clip-rule="evenodd" fill="#005497" d="M183.794,134.683c-0.055,0-0.108-0.053-0.108-0.053
	c-4.727,0-8.583,3.854-8.583,8.58s3.856,8.529,8.583,8.529c0,0,0.054,0,0.108,0c4.671-0.056,8.473-3.858,8.473-8.529
	S188.465,134.737,183.794,134.683L183.794,134.683L183.794,134.683L183.794,134.683z M183.794,150.38c-3.966,0-7.17-3.205-7.17-7.17
	c0-3.855,3.204-7.115,7.17-7.061c3.966,0,7.17,3.205,7.17,7.117C190.964,147.175,187.76,150.38,183.794,150.38L183.794,150.38
	L183.794,150.38L183.794,150.38z"/>
<path fill-rule="evenodd" clip-rule="evenodd" fill="#005497" d="M186.292,144.622c-0.271-0.271-0.597-0.542-1.03-0.814
	c0.814-0.107,1.467-0.434,1.846-0.923c0.38-0.381,0.653-0.978,0.653-1.63c0-0.543-0.218-1.085-0.436-1.52
	c-0.271-0.381-0.705-0.706-1.087-0.87c-0.434-0.163-1.14-0.217-2.171-0.217l0,0h-0.272H180.1v9.287h1.9v-3.91h0.326l0,0
	c0.436,0,0.761,0.055,0.979,0.108c0.218,0.055,0.326,0.163,0.489,0.325c0,0.056,0.055,0.056,0.055,0.11
	c0.218,0.107,0.544,0.598,1.033,1.302l0,0l1.355,2.064h2.228l-1.141-1.792l0,0C186.891,145.438,186.509,144.841,186.292,144.622
	L186.292,144.622L186.292,144.622L186.292,144.622z M183.794,142.559c-0.108,0-0.271,0-0.435,0l0,0H182v-2.334h1.414l0,0
	c0.163,0,0.271,0,0.38,0c0.543,0,0.922,0,1.033,0.054c0.271,0,0.541,0.162,0.704,0.327c0.218,0.161,0.272,0.432,0.272,0.704
	c0,0.271-0.055,0.598-0.218,0.761c-0.162,0.109-0.325,0.271-0.488,0.381C184.882,142.504,184.446,142.504,183.794,142.559
	L183.794,142.559L183.794,142.559L183.794,142.559z"/>
<path fill-rule="evenodd" clip-rule="evenodd" fill="#005497" d="M78.093,115.6H46.156l0,0c9.544,5.906,20.712,9.825,33.42,12.456
	l0,0L78.093,115.6L78.093,115.6L78.093,115.6L78.093,115.6z M102.444,115.627l-1.903,11.7l0,0
	c12.764-2.351,24.016-6.046,33.785-11.7l0,0H102.444L102.444,115.627L102.444,115.627L102.444,115.627z M98.778,115.571
	l-17.55,0.028l0,0c2.463,5.122,5.598,9.433,9.181,13.548C93.935,124.948,96.287,120.609,98.778,115.571L98.778,115.571
	L98.778,115.571L98.778,115.571L98.778,115.571z M145.998,107.79l-111.709-0.056l0,0c-3.723-2.967-6.242-4.507-9.237-8.453l0,0
	h130.322l0,0C152.462,102.472,149.132,105.354,145.998,107.79L145.998,107.79L145.998,107.79L145.998,107.79L145.998,107.79z
	 M162.651,89.597L18.278,89.652l0,0c-1.932-2.687-4.143-6.466-5.514-9.46l0,0h155.402l0,0
	C166.709,83.551,164.75,86.657,162.651,89.597L162.651,89.597L162.651,89.597L162.651,89.597L162.651,89.597z M59.339,69.948
	l-50.41,0.028l0,0C4.311,59.312,1.4,48.312,0,34.652C25.975,39.27,46.016,49.935,59.339,69.948L59.339,69.948L59.339,69.948
	L59.339,69.948L59.339,69.948z M110.981,70.032H69.528l0,0C68.604,43.357,75.994,16.29,90.269,0
	C104.767,15.871,112.269,42.825,110.981,70.032L110.981,70.032L110.981,70.032L110.981,70.032L110.981,70.032z M172.419,69.976
	l-51.39,0.028l0,0c14.191-19.957,34.568-31.237,60.963-35.24C180.341,48.115,177.262,59.451,172.419,69.976L172.419,69.976
	L172.419,69.976L172.419,69.976z"/>
</svg>
