<?xml version="1.0" encoding="utf-8"?>
<!-- Generator: Adobe Illustrator 16.0.0, SVG Export Plug-In . SVG Version: 6.00 Build 0)  -->
<!DOCTYPE svg PUBLIC "-//W3C//DTD SVG 1.1//EN" "http://www.w3.org/Graphics/SVG/1.1/DTD/svg11.dtd">
<svg version="1.1" id="Layer_1" xmlns="http://www.w3.org/2000/svg" xmlns:xlink="http://www.w3.org/1999/xlink" x="0px" y="0px"
	 width="175.748px" height="51.408px" viewBox="0 0 175.748 51.408" enable-background="new 0 0 175.748 51.408"
	 xml:space="preserve">
<g>
	<polygon fill-rule="evenodd" clip-rule="evenodd" fill="#074C81" points="0,0 175.748,0 175.748,51.408 0,51.408 0,0 	"/>
	<path fill-rule="evenodd" clip-rule="evenodd" fill="#FFFFFF" d="M139.154,39.505l0.127-0.634l0.127-20.132
		c0-0.126-0.127-0.38-0.127-0.38h3.799l-0.254,0.507v17.347h3.926l0.381-0.254v3.546H139.154L139.154,39.505z"/>
	<path fill-rule="evenodd" clip-rule="evenodd" fill="#FFFFFF" d="M131.432,39.505l0.127-0.38l-0.508-5.065h-3.164l-0.508,4.938
		v0.507h-4.051l0.252-0.507l1.395-8.736l1.645-11.27l-0.127-0.633h6.332c-0.254,0.76,0,1.52,0.127,2.279l2.531,18.36l0.254,0.507
		H131.432L131.432,39.505L131.432,39.505z M130.799,30.388l-0.887-8.23c-0.254,0-0.381,0-0.506,0l-1.141,8.23H130.799
		L130.799,30.388z"/>
	<path fill-rule="evenodd" clip-rule="evenodd" fill="#FFFFFF" d="M25.831,39.378l0.126-0.38l-0.506-5.064h-3.166l-0.506,4.938
		v0.507h-3.925l0.126-0.507l1.393-8.736l1.646-11.143l-0.127-0.76h6.331c-0.253,0.76,0,1.52,0.127,2.279l2.532,18.359l0.253,0.507
		H25.831L25.831,39.378L25.831,39.378z M25.197,30.262l-0.886-8.104c-0.253-0.126-0.38-0.126-0.506,0l-1.14,8.104H25.197
		L25.197,30.262z"/>
	<polygon fill-rule="evenodd" clip-rule="evenodd" fill="#FFFFFF" points="121.555,21.398 120.922,21.145 119.148,21.145 
		119.148,38.999 119.275,39.505 115.477,39.505 115.604,38.999 115.73,21.145 113.832,21.145 113.451,21.398 113.451,18.359 
		121.555,18.359 121.555,21.398 	"/>
	<path fill-rule="evenodd" clip-rule="evenodd" fill="#FFFFFF" d="M106.74,24.184c0.127-0.126,0.127-0.253,0.127-0.38
		c0-0.253,0-1.013,0-1.519c0-0.127,0-0.253-0.127-0.507c-0.254-0.38-0.76-0.506-1.266-0.506c-0.381,0-0.76,0.38-1.014,0.76
		c-0.127,0.38-0.127,0.633-0.127,1.139c0,0-0.127,1.646-0.127,2.406c0,0.634,0.762,0.76,1.014,0.887l3.799,1.013
		c0.381,0,0.76,0.254,0.887,0.507c0.254,0.253,0.506,0.633,0.506,1.013l-0.127,7.724c-0.125,1.267-1.52,2.279-2.658,2.532
		c-2.279,0.634-5.064,0.507-6.584-1.646c-0.127-0.38-0.254-0.76-0.254-1.267v-3.545c0-0.127-0.127-0.127-0.127-0.38h3.672
		c0,0.126-0.127,0.38-0.127,0.38s0,1.14,0,1.646c0,0.507,0.127,1.267,0.762,1.646c0.252,0.127,0.633,0.127,0.885,0
		c1.268-0.38,1.014-2.279,1.014-3.672c0-0.633,0.127-1.52-0.506-1.899c-0.254-0.253-0.887-0.38-0.887-0.38l-3.672-0.887
		c0,0-0.127-0.126-0.508-0.126c-0.252-0.127-0.506-0.38-0.506-0.634v-7.47c0.127-1.013,1.141-2.026,2.025-2.406
		c2.027-0.633,4.686-0.633,6.332,0.506c1.139,0.76,1.266,1.899,1.266,3.166c0,0.38,0,1.139,0,1.519c0,0.126,0,0.253,0.127,0.38
		H106.74L106.74,24.184z"/>
	<path fill-rule="evenodd" clip-rule="evenodd" fill="#FFFFFF" d="M67.995,37.226c-1.013,1.899-2.912,2.405-4.938,2.405
		c-1.646-0.126-3.166-0.76-4.052-2.279c-0.253-0.379-0.38-0.886-0.38-1.393V21.525c0.253-1.519,1.772-2.786,3.166-3.166
		c1.899-0.633,4.178-0.126,5.571,1.393c0.506,0.633,1.013,1.266,0.886,2.152v13.929C68.248,35.833,68.248,36.593,67.995,37.226
		L67.995,37.226L67.995,37.226z M64.829,32.415v-9.876c0-0.38-0.126-0.633-0.379-0.886c-0.38-0.253-1.14-0.38-1.52-0.127
		c-0.38,0.127-0.633,0.507-0.633,0.887L62.17,34.314c0,0.633,0.126,1.013,0.506,1.266c0.38,0.254,1.013,0.38,1.393,0.127
		c0.253-0.127,0.759-0.507,0.759-0.887V32.415L64.829,32.415z"/>
	<path fill-rule="evenodd" clip-rule="evenodd" fill="#FFFFFF" d="M54.826,39.378h-3.292c-0.253-0.253-0.253-0.76-0.38-1.14
		c-0.126-2.279,0.127-4.685,0-6.964c-0.126-0.253-0.253-0.633-0.506-0.76c-0.506-0.253-0.76-0.253-1.267-0.253h-0.633v8.356
		c0,0.38,0.127,0.507,0.127,0.76h-3.672l0.127-0.76V18.866l-0.127-0.633h6.838c1.013,0.126,1.899,0.76,2.406,1.646
		c0.253,0.633,0.253,1.646,0.253,1.646v3.419c0,0,0,1.899-0.506,2.912c-0.253,0.38-0.886,0.76-1.393,0.76v0.507
		c0.253,0,0.507,0,0.76,0.126c1.013,0.38,1.013,1.52,1.14,2.533v7.217C54.7,39.125,54.7,39.251,54.826,39.378L54.826,39.378
		L54.826,39.378z M51.281,24.058v-2.279c-0.253-0.76-0.76-0.633-1.013-0.633h-1.52v5.698h1.393c0.38,0,1.14,0,1.14-0.633V24.058
		L51.281,24.058z"/>
	<path fill-rule="evenodd" clip-rule="evenodd" fill="#FFFFFF" d="M33.808,39.378l0.253-0.633V18.739c0-0.126,0-0.253-0.127-0.38
		v-0.126h7.091v3.039l-0.38-0.127h-3.039v5.698h3.039l0.38-0.127v3.419c-0.126-0.127-0.38-0.253-0.633-0.253h-2.786v6.457h3.039
		c0.126,0,0.38-0.126,0.38-0.126v3.165H33.808L33.808,39.378z"/>
	<path fill-rule="evenodd" clip-rule="evenodd" fill="#FFFFFF" d="M150.805,39.505l0.127-0.634V18.866c0-0.127,0-0.253-0.127-0.507
		h0.127h7.09v3.039l-0.506-0.126h-2.914l-0.125,5.698h3.164l0.381-0.127v3.419c-0.254-0.127-0.506-0.254-0.76-0.254h-2.785v6.458
		h3.039c0.125,0,0.379-0.127,0.379-0.127v3.166H150.805L150.805,39.505z"/>
	<path fill-rule="evenodd" clip-rule="evenodd" fill="#FFFFFF" d="M95.979,37.226c-0.887,1.899-2.912,2.532-4.812,2.405
		c-1.646-0.126-3.292-0.76-4.178-2.152c-0.253-0.506-0.253-1.013-0.38-1.52l0.126-14.435c0.127-1.519,1.646-2.786,3.039-3.166
		c1.898-0.506,4.178-0.126,5.57,1.393c0.635,0.633,1.014,1.266,1.014,2.152L96.23,35.833C96.23,35.833,96.357,36.719,95.979,37.226
		L95.979,37.226L95.979,37.226z M92.812,32.415v-9.876c0-0.253-0.127-0.633-0.381-0.76c-0.379-0.38-1.139-0.38-1.52-0.126
		c-0.379,0.126-0.633,0.38-0.633,0.76v11.902c0,0.633,0,1.013,0.381,1.393c0.506,0.127,1.012,0.253,1.393,0
		c0.379-0.127,0.76-0.507,0.76-0.887V32.415L92.812,32.415z"/>
	<path fill-rule="evenodd" clip-rule="evenodd" fill="#FFFFFF" d="M81.417,30.515c-1.52,0.76-3.292,0.507-5.064,0.633v7.978
		c0,0.126,0,0.253,0.126,0.253H72.68c0-0.127,0.126-0.127,0.126-0.253v-2.912V18.866c0-0.127-0.126-0.38-0.253-0.633h6.078
		c1.393,0.126,3.166,0.126,3.672,1.773c0.127,0.253,0.127,4.052,0.127,4.052v4.811C82.303,29.502,82.049,30.262,81.417,30.515
		L81.417,30.515L81.417,30.515z M78.758,24.438v-2.279c-0.253-0.76-0.76-0.633-1.013-0.633h-1.393v6.331h1.266
		c0.38,0,1.14,0.127,1.14-0.633V24.438L78.758,24.438z"/>
	<polygon fill-rule="evenodd" clip-rule="evenodd" fill="#E4494B" points="41.405,11.775 41.405,11.775 33.301,15.954 
		41.405,15.954 41.405,11.775 	"/>
</g>
</svg>
