<?xml version="1.0" encoding="utf-8"?>
<!-- Generator: Adobe Illustrator 16.0.0, SVG Export Plug-In . SVG Version: 6.00 Build 0)  -->
<!DOCTYPE svg PUBLIC "-//W3C//DTD SVG 1.1//EN" "http://www.w3.org/Graphics/SVG/1.1/DTD/svg11.dtd">
<svg version="1.1" id="Layer_1" xmlns="http://www.w3.org/2000/svg" xmlns:xlink="http://www.w3.org/1999/xlink" x="0px" y="0px"
	 width="354.317px" height="246.583px" viewBox="0 0 354.317 246.583" enable-background="new 0 0 354.317 246.583"
	 xml:space="preserve">
<g>
	<path fill-rule="evenodd" clip-rule="evenodd" fill="#B8378B" d="M92.527,212.603c-5.015,10.704-7.433,13.861-10.659,13.861
		c-1.792,0-2.91-0.916-2.91-2.424c0-2.06,1.79-5.49,4.431-8.602c3.048-3.569,5.376-5.262,11.785-8.419L92.527,212.603z
		 M41.6,196.539c-3,4.669-6.268,7.69-8.374,7.69c-1.121,0-1.659-0.413-1.659-1.281c0-1.558,1.792-5.631,4.659-10.662
		c1.792-3.157,3-4.989,4.434-6.771c1.882-2.381,2.822-3.111,3.987-3.111c1.344,0,2.464,1.236,2.464,2.788
		c0,0.596-0.223,1.375-0.762,2.611C45.497,189.77,43.124,194.208,41.6,196.539z M103.695,202.307l4.972-9.7
		c0.76-1.557,1.747-3.433,3-5.721l3.045-5.492l-7.481,0.551c-2.819,5.079-2.819,5.125-6.09,9.932c-2.464,3.659-3,4.438-4.033,5.715
		c-3.627,4.398-5.955,6.451-7.344,6.451c-0.313,0-0.582-0.226-0.582-0.501c0-0.503,0.401-1.189,1.88-3.477l1.521-2.241
		c3.542-5.217,5.108-8.83,5.108-11.896c0-2.656-1.566-4.715-3.494-4.715c-1.614,0-2.867,0.731-5.015,3.02
		c-2.017,2.058-3.722,4.208-7.348,9.197c-1.579,2.173-3.708,5.101-6.083,5.101c-0.382,0-0.648-0.045-1.092-0.204
		c-0.026-0.012-0.045-0.015-0.074-0.025c0.738-0.877,1.965-2.588,3.271-4.515c2.219-3.28,4.671-7.194,5.352-8.723h-1.187
		c-0.197,0.553-0.862,1.746-1.749,3.206c-0.947,1.555-2.144,3.411-3.302,5.129c-1.041,1.545-2.313,3.432-3.266,4.534
		c-0.21,0.243-0.528,0.61-0.636,0.727c-3.2,3.427-6.475,5.544-8.516,5.544c-0.852,0-1.21-0.229-1.21-0.868
		c0-0.979,0.694-2.752,1.21-4.073c0.895-2.288,2.642-6.039,5.105-10.707c1.388-2.563,2.822-5.308,4.255-7.913
		c4.809-9.051,7.229-13.269,12.356-21.626c0.033-0.054,0.064-0.104,0.095-0.156l-6.807,0.594c-1.837,2.929-3.09,5.034-5.644,9.518
		l-5.06,8.925l-1.21,2.15l-9.867,12.561l-0.895,1.14l-1.249,1.602c-2.236,3.156-4.07,5.2-6.093,6.911
		c-1.256,0.962-2.554,1.65-3.181,1.65c-0.223,0-0.313-0.048-0.313-0.277c0-0.685,0.491-1.876,2.687-6.404
		c1.747-3.753,2.867-5.948,5.958-11.394l2.418-4.348l-7.301,0.596l-1.747,3.157c-0.269-2.791-1.747-4.026-4.569-4.026
		c-3.805,0-7.928,2.15-12.183,6.449c-1.738,1.858-3.245,3.579-5.293,6.188c-1.57,2-3.659,4.659-5.905,4.659
		c-0.403,0-0.672-0.047-1.166-0.229c1.999-2.369,7.541-10.812,8.623-13.24h-1.187c-0.631,1.773-6.031,10.06-8.241,12.784
		l-0.626,0.73c-3.226,3.478-6.541,5.628-8.601,5.628c-0.85,0-1.208-0.23-1.208-0.868c0-0.642,0.358-1.785,1.208-4.073
		c0.897-2.288,2.644-6.041,5.105-10.705c1.391-2.562,2.825-5.309,4.256-7.918c4.837-9.106,7.256-13.317,12.454-21.779l-6.81,0.594
		c-1.837,2.929-3.09,5.034-5.644,9.518l-5.061,8.922l-1.21,2.151L0,195.305l0.719,0.594l8.376-10.569l-1.346,2.516
		c-1.745,3.252-2.732,5.354-3.313,6.864c-0.762,2.061-1.163,3.845-1.163,5.217c0,3.204,1.925,5.263,4.837,5.263
		c3,0,6.135-1.83,10.21-6.129c0.807,0.363,1.21,0.456,1.837,0.456c1.875,0,3.957-1.5,5.796-4.132
		c0.999-1.228,1.348-1.714,2.357-2.915c-0.985,2.378-1.301,3.795-1.301,5.811c0,4.072,2.375,6.909,5.644,6.909
		c3.045,0,5.554-2.059,9.9-8.281c-0.449,1.832-0.629,2.881-0.629,3.705c0,2.793,1.434,4.438,3.765,4.438
		c1.657,0,3.178-0.776,5.644-3.157c2.027-1.885,4.992-5.977,4.992-5.977l-0.005-0.002l0.748-0.893l7.664-9.672l-0.194,0.368
		l-1.148,2.15c-1.745,3.248-2.732,5.354-3.313,6.861c-0.58,1.566-0.95,2.972-1.094,4.158c-0.043,0.352-0.071,0.705-0.071,1.059
		c0,1.601,0.482,2.91,1.324,3.826c0.845,0.919,2.056,1.437,3.513,1.437c3.002,0,6.136-1.83,10.213-6.129
		c0.807,0.363,1.208,0.456,1.834,0.456c1.813,0,3.717-1.312,5.511-3.781c0.392-0.539,0.811-1.057,1.203-1.595
		c6.269-8.604,9.404-11.986,11.286-11.986c0.358,0,0.491,0.135,0.491,0.458c0,0.458-0.268,0.959-1.564,2.651
		c-2.734,3.612-3.854,5.262-4.659,6.726c-1.614,2.973-2.376,5.493-2.376,8.009c0,2.929,1.524,4.989,3.719,4.989
		c1.343,0,2.687-0.688,4.566-2.565c2.822-2.699,3.945-4.118,7.885-9.929l0.897-1.282l-7.033,14.508
		c-3,1.416-4.659,2.197-5.913,2.881c-3.002,1.465-5.375,2.882-6.899,4.025c-3.985,2.927-5.958,5.996-5.958,9.197
		c0,3.295,2.108,5.583,5.198,5.583c2.687,0,5.597-1.279,8.419-3.66c3.494-2.884,6.316-7.277,10.885-16.792l1.479-3.064
		c4.927-2.749,8.466-6.179,10.93-10.662l-0.762-0.46C110.459,197.045,107.502,200.065,103.695,202.307z"/>
	<path fill-rule="evenodd" clip-rule="evenodd" fill="#B8378B" d="M311.52,198.556c-2.964,4.609-6.195,7.591-8.23,7.591
		c-1.104,0-1.679-0.403-1.679-1.263c0-1.536,1.769-5.562,4.601-10.531c1.768-3.121,2.919-4.928,4.379-6.691
		c1.857-2.352,2.786-3.07,3.939-3.07c1.326,0,2.433,1.219,2.433,2.755c0,0.586-0.266,1.355-0.753,2.575
		C315.373,191.866,313.025,196.251,311.52,198.556z M348.434,174.423l5.66-9.763l-6.633,0.542c-2.402,3.617-3.822,5.881-5.729,9.221
		h-3.271l-0.577,1.13h3.209c-0.669,1.185-1.4,2.507-2.262,4.068l-11.3,14.92c-2.556,3.374-5.983,7.899-8.214,9.67
		c-1.194,0.946-2.479,1.628-3.098,1.628c-0.221,0-0.309-0.047-0.309-0.273c0-0.676,0.486-1.851,2.61-6.325
		c1.769-3.71,2.919-5.877,6.017-11.255l2.346-4.251l-7.301,0.544l-1.681,3.118c-0.312-2.758-1.729-3.98-4.517-3.98
		c-3.758,0-7.83,2.125-11.988,6.375c-1.664,1.7-3.053,3.295-4.852,5.573l-0.28,0.354c-0.388,0.49-0.729,1.016-1.102,1.518
		c-4.419,5.942-7.651,8.964-9.653,8.964c-0.398,0-0.664-0.226-0.664-0.496c0-0.36,0.179-0.722,0.753-1.718l1.462-2.258l2.611-4.025
		c1.945-3.028,3.094-6.418,3.094-9.131c0-2.846-1.459-4.927-3.448-4.927c-1.284,0-2.834,0.769-4.382,2.217
		c-3.14,2.891-5.043,5.15-10.972,12.564l-1.55,2.032l1.193-2.26c1.018-2.031,1.638-3.116,3.453-6.465
		c1.769-3.297,3.496-6.459,5.265-9.67c3.273-6.192,6.415-11.935,9.114-16.904l2.037-3.843l-7.035,0.496l-5.93,11.525l-16.656,21.812
		c-2.204,2.886-4.441,5.814-7.15,8.203c-1.945,1.717-3.009,2.35-4.027,2.35c-0.441,0-0.75-0.228-0.75-0.588
		c0-0.226,0.176-0.679,0.442-1.085l0.885-1.583c0.267-0.451,0.886-1.355,1.813-2.666c3.541-5.152,4.91-8.316,4.91-11.573
		c0-2.801-1.592-4.925-3.626-4.925c-1.372,0-2.656,0.586-4.337,2.124c-1.815,1.626-4.559,4.609-8.23,9.041l-2.654,3.164
		l16.328-30.194l-5.576-0.09l-4.248,7.864l-16.505,21.109l0.797,0.541l12.257-15.731l-24.557,43.849l6.99-0.363l12.124-22.553
		l4.557-5.517c2.832-3.435,4.337-5.198,5.929-6.962c1.994-2.124,3.101-3.256,3.983-3.932c0.841-0.725,2.167-1.355,2.743-1.355
		c0.356,0,0.574,0.18,0.574,0.496c0,0.681-0.973,2.259-3.405,5.561c-2.079,2.758-3.185,4.656-3.763,6.328
		c-0.664,1.763-1.061,3.752-1.061,5.242c0,2.849,1.594,4.838,3.76,4.838c1.773,0,3.453-0.951,6.064-3.482
		c1.887-1.787,3.008-3.035,4.691-5.366l0.041,0.035l14.557-19.03c-1.768,3.39-2.608,4.97-3.98,7.503
		c-3.098,5.741-7.08,12.791-10.266,18.307l-1.416,2.303l7.654-0.313c1.507-2.308,2.214-3.392,3.541-5.153
		c2.565-3.662,6.107-8.049,8.582-10.804c3.539-3.979,6.062-6.103,7.346-6.103c0.312,0,0.444,0.183,0.444,0.453
		c0,0.496-0.487,1.4-1.638,3.071l-3.095,4.475c-2.26,3.349-3.496,6.647-3.496,9.496c0,3.073,1.545,5.016,3.847,5.016
		c1.992,0,3.848-1.085,6.637-4.066c2.082-2.217,3.808-4.386,5.663-7.145l-0.005-0.005c0.332-0.405,0.67-0.816,1.156-1.396
		c-0.973,2.348-1.326,3.75-1.326,5.739c0,4.021,2.39,6.826,5.619,6.826c3.008,0,5.485-2.033,9.777-8.182
		c-0.441,1.81-0.619,2.849-0.619,3.661c0,2.76,1.416,4.386,3.719,4.386c1.593,0,3.14-0.77,5.617-3.119
		c2.137-1.951,3.717-3.901,5.93-7.216l8.451-11.093l-1.238,2.396c-4.732,8.905-5.708,11.256-5.708,13.924
		c0,2.936,1.638,4.975,4.027,4.975c1.769,0,3.363-0.862,5.663-3.257c2.078-2.127,4.16-4.79,6.637-8.452l-0.708-0.498
		c-3.805,5.333-5.573,7.505-7.744,9.401c-1.282,1.085-2.478,1.762-3.141,1.762c-0.398,0-0.619-0.227-0.619-0.585
		c0-0.453,0.133-0.858,0.707-2.124c0.886-2.084,2.701-5.744,5.841-11.709c2.744-5.288,4.379-8.318,8.586-15.821h6.062l0.396-1.13
		H348.434z"/>
	<path fill-rule="evenodd" clip-rule="evenodd" fill="#B8378B" d="M151.005,104.985c0,0,1.021-1.877,4.094-3.392
		c0,0,2.112-0.964,2.02,1.787c0,0-0.458,3.164-2.292,4.218c0,0-2.12,0.589-3.399-0.071
		C151.427,107.527,149.749,106.357,151.005,104.985z M235.336,172.282l-0.01,0.057l-0.01,0.062
		c-1.039,8.774-31.508,35.775-48.202,49.675c11.808-26.059,15.902-53.129,16.591-58.196c10.855-4.583,21.646-2.563,21.758-2.542
		l0.059,0.015l0.062,0.007c3.861,0.43,6.636,1.756,8.242,3.949c1.357,1.854,1.629,3.999,1.629,5.414
		C235.456,171.651,235.339,172.265,235.336,172.282z M181.274,240.974c-0.118,0.327-0.93,2.146-4.099,2.635
		c-0.638-0.029-3.489-0.328-3.84-3.393c0.007-0.272,0.29-9.966,0.313-10.78c1.991-2.881,13.879-21.395,21.088-62.041
		c0.014-0.088,0.023-0.174,0.023-0.262c0-0.704-0.505-1.331-1.225-1.459c-0.807-0.143-1.578,0.396-1.721,1.203
		c-6.111,34.466-15.824,53.013-19.427,58.998c-3.415-9.214-3.994-30.034-4.001-30.262c-0.79-14.865,12.155-34.884,12.285-35.083
		c0.448-0.687,0.257-1.604-0.432-2.054c-0.684-0.448-1.604-0.256-2.052,0.43c-0.555,0.853-13.606,21.025-12.766,36.823
		c0.026,1.002,0.703,25.194,5.262,33.573l-0.311,10.759c-0.07,2.41-2.822,2.707-4.771,2.887c-1.011,0.093-2.162,0.104-2.875-0.715
		c-1.405-1.614-0.807-5.563-0.486-6.821c1.552-6.202,0.396-11.813,0.344-12.048c-1.733-11.521-2.096-18.557-2.11-18.855
		c-0.007-0.405-0.012-0.81-0.012-1.215c0-8.873,1.528-17.961,1.624-18.504c7.083-23.154,14.072-34.217,14.141-34.326
		c4.108-7.42,4.21-9.195,4.69-17.721l0.158-2.771c0.029-0.479,0.043-0.939,0.043-1.388c0-6.387-2.791-9.8-5.226-11.564
		c-0.189-0.14-0.396-0.249-0.601-0.358c0.798-0.586,1.56-1.191,2.236-1.799c0.02-0.017,1.989-1.854,1.949-3.396l0.04-0.783
		c0.074-0.971,0.194-2.592,0.076-5.583c-0.093-2.331-0.428-3.584-0.465-3.72c-0.222-0.788-1.036-1.244-1.821-1.027
		c-0.66,0.18-1.092,0.781-1.092,1.431c0,0.131,0.017,0.259,0.052,0.39c0.002,0.009,0.282,1.063,0.36,3.045
		c0.036,0.859,0.047,1.597,0.047,2.233c0,1.455-0.069,2.378-0.116,3.007c0,0-0.028,0.622-0.04,0.886
		c-0.09,0.249-0.562,0.942-0.973,1.31c-1.403,1.258-3.261,2.54-4.975,3.625c-0.124,0.047-0.242,0.097-0.33,0.149
		c-11.523,7.111-16.79,6.81-17.445,6.738c-6.97-0.757-14.309-7.809-8.967-14.44l0.069-0.085l0.057-0.1
		c7.877-13.548,22.373-19.586,22.518-19.646l0.923-0.375c0,0,0.002-8.917,0.002-14.801c3.347,7.448,6.292,16.92,6.328,17.042
		l0.178,0.577l0.532,0.29c24.188,13.182,26.566,51.111,26.566,65.495c0,3.315-0.123,5.362-0.14,5.587
		c-0.104,0.874-4.246,34.184-19.157,63.803l-0.289,1.099c0.006,0.05,0.313,3.143,0.313,6.798
		C181.73,236.576,181.616,238.93,181.274,240.974z M236.25,163.59c-2.1-2.889-5.541-4.624-10.227-5.165
		c-0.594-0.113-10.961-1.943-22.083,2.253c0.04-1.116,0.078-2.578,0.078-4.36c0-15.366-2.688-52.82-27.61-66.947
		c-0.866-2.734-5.117-15.876-9.223-22.565l-2.746-4.479v24.229c-3.456,1.59-15.648,7.882-22.971,20.384
		c-0.42,0.532-2.514,3.318-2.514,6.221c0,0.302,0.052,0.603,0.102,0.907c-0.007,0.081-0.017,0.133-0.017,0.254
		c0,6.962,6.923,10.246,12.938,11.713l0.097,0.024c0.532,0.121,4.949,0.868,14.794-4.284c0.135-0.029,0.271-0.066,0.399-0.135
		c0.147-0.079,2.183-1.146,4.597-2.656c0.463-0.076,1.55-0.1,2.297,0.441c1.863,1.351,3.995,4.023,3.995,9.181
		c0,0.382-0.012,0.78-0.035,1.191l-0.162,2.781c-0.468,8.341-0.541,9.622-4.272,16.368c-0.244,0.375-7.229,11.404-14.461,35.063
		l-0.024,0.088l-0.016,0.091c-0.069,0.398-1.569,9.161-1.664,18.19c-9.014-3.763-46.456-21.915-48.623-64.558
		c0.124-1.253,3.634-32.861,34.748-59.556c1.315-1.173,31.684-28.473,37.841-44.943l0.054-0.185c0.013-0.05,0.271-1.261,0.271-3.221
		c0-6.634-2.979-21.863-28.638-29.85c-0.781-0.242-1.612,0.195-1.856,0.978c-0.045,0.145-0.067,0.294-0.067,0.441
		c0,0.631,0.406,1.218,1.042,1.415c23.808,7.41,26.618,20.771,26.618,26.667c0,1.502-0.176,2.482-0.24,2.791
		c-5.969,15.801-36.669,43.397-36.98,43.678c-32.533,27.908-35.645,60.271-35.761,61.635l-0.007,0.1l0.002,0.1
		c2.305,46.495,44.745,65.022,51.649,67.731c0.152,2.326,0.657,8.715,2.101,18.292c0.023,0.136,1.075,5.283-0.304,10.79
		c-0.164,0.639-1.552,6.411,1.12,9.492c0.821,0.947,2.376,2.003,5.108,1.747c1.585,0.159,4.179-0.214,5.995-2.132
		c1.548,2.134,4.149,2.791,5.699,2.791c3.101,0,6.175-1.744,6.876-4.896l0.014-0.064l0.012-0.062c0.39-2.269,0.51-4.849,0.51-7.187
		c0-2.706-0.16-5.067-0.26-6.254c7.666-6.227,52.357-43.002,53.822-55.37l-0.02,0.126
		C238.292,172.667,239.263,167.735,236.25,163.59z"/>
</g>
</svg>
