<?xml version="1.0" encoding="utf-8"?>
<!-- Generator: Adobe Illustrator 16.0.0, SVG Export Plug-In . SVG Version: 6.00 Build 0)  -->
<!DOCTYPE svg PUBLIC "-//W3C//DTD SVG 1.1//EN" "http://www.w3.org/Graphics/SVG/1.1/DTD/svg11.dtd">
<svg version="1.1" id="Layer_1" xmlns="http://www.w3.org/2000/svg" xmlns:xlink="http://www.w3.org/1999/xlink" x="0px" y="0px"
	 width="25.906px" height="16.921px" viewBox="0 0 25.906 16.921" enable-background="new 0 0 25.906 16.921" xml:space="preserve">
<g>
	<path fill-rule="evenodd" clip-rule="evenodd" fill="#FFFFFF" d="M25.906,0c0,5.64,0,11.281,0,16.921c-8.636,0-17.271,0-25.906,0
		C0,11.281,0,5.64,0,0C8.636,0,17.271,0,25.906,0z M10.943,4.056c-0.024,1.103-0.292,2.709,0.664,2.972
		c0.799,0.219,1.327-0.458,1.468-1.119c0.114-0.532,0.035-1.22,0.035-1.993c0-0.583,0.083-1.549,0-2.098
		c-0.081-0.535-0.543-1.352-1.328-1.154C10.709,0.935,10.973,2.723,10.943,4.056z M13.705,0.664
		c-0.051,0.02-0.086,0.055-0.105,0.105c-0.089,1.792,0.087,4.071-0.034,6.083c0.261-0.054,0.598-0.031,0.908-0.035
		c0.041-0.892-0.088-2.162,0.07-3.042c0.163,0.484,0.398,1.055,0.595,1.608c0.17,0.481,0.175,1.413,0.839,1.364
		c0.107-1.864-0.116-3.666,0-5.734c-0.329-0.021-0.57-0.129-0.874-0.175c-0.087,0.694,0.021,1.583-0.07,2.272
		c-0.431-0.676-0.591-1.623-0.909-2.412C13.948,0.724,13.881,0.64,13.705,0.664z M9.614,0.769c-0.081,2.496-0.077,4.542-0.21,6.922
		c0.327-0.069,0.618-0.174,0.944-0.245c0.029-2.204,0.106-4.457,0.14-6.748C10.18,0.705,9.899,0.739,9.614,0.769z M7.622,1.014
		C7.525,3.492,7.391,5.939,7.307,8.355c0.555-0.122,1.005-0.347,1.539-0.489C8.851,7.475,8.825,7.054,8.88,6.712
		c-0.213,0.027-0.449,0.193-0.629,0.14c0.087-1.929,0.126-3.616,0.21-5.524c0.005-0.117,0.157-0.363-0.07-0.419
		C8.145,0.954,7.887,0.987,7.622,1.014z M6.503,1.224c-0.298,0.063-0.55,0.173-0.874,0.21C5.47,3.997,5.311,6.682,5.175,9.16
		c0.544-0.167,1.007-0.415,1.538-0.594C6.77,8.275,6.729,7.734,6.782,7.342c-0.23,0.02-0.436,0.231-0.629,0.175
		C6.241,5.508,6.387,3.24,6.503,1.224z M18.6,3.741c-0.017-0.373,0.071-0.798,0-1.188c-0.141-0.77-1.123-1.608-1.888-1.084
		c-0.49,0.336-0.316,1.405-0.28,2.238c0.045,1.019,0.013,2.013,0,3.076c0.311,0.04,0.656,0.043,0.944,0.105
		c0.032-0.816-0.139-1.702,0.035-2.482c0.112-0.008,0.147,0.062,0.279,0.035c0.081,0.951,0.039,1.52,0.07,2.447
		c0.282,0.079,0.628,0.095,0.908,0.175C18.68,5.901,18.647,4.825,18.6,3.741z M4.126,1.923C3.975,4.488,3.752,7.085,3.636,9.58
		c-1.44,0.411-1.944,2.715-1.224,4.266c0.044-0.576-0.229-1.145-0.034-1.645c-0.041,0.303,0.118,0.572,0.314,0.525
		c-0.154-0.441,0.053-0.762,0-1.154c0.688-0.198,2.3-0.486,2.308,0.56c0.702,0.021,0.383,0.889,0.489,1.364
		c-0.513,0.494-1.28,0.79-2.308,0.629c-0.238-0.357-0.331-0.858-0.629-1.154c0.012,0.42,0.021,0.841,0.175,1.119
		c0.516,0.197,1.28,0.011,1.538,0.314c-0.07,0.069-0.114,0.166-0.21,0.21c-0.753,0.019-1.323-0.146-1.888-0.315
		c0.339,0.384,1.113,0.332,1.713,0.455c0.077,0.295,0.414,0.332,0.489,0.629c-0.858,0.312-1.859-0.068-2.377-0.35
		c0.212,0.383,0.749,0.439,1.224,0.561c0.089,0.085,0.053,0.296,0.244,0.279c0.187-0.021-0.008-0.214,0.175-0.21
		c0.308-0.085,0.251,0.192,0.42,0.245c0.315,0.054,0.759-0.055,1.049-0.141c0.104,0.081-0.215,0.293,0.035,0.314
		c0.396-0.061,0.683-0.41,1.049-0.664c0.331-0.229,0.786-0.455,1.014-0.77c0.218-0.299,0.3-0.948,0.42-1.293
		c-0.197-0.238-0.385-0.408-0.28-0.874c-0.002-0.161-0.199-0.127-0.175-0.314c0.049-1.89-0.695-2.987-2.587-2.937
		c0.053-2.627,0.289-5.071,0.454-7.586C4.709,1.713,4.434,1.835,4.126,1.923z M19.159,7.132c0.339,0.034,0.611,0.134,0.943,0.175
		c-0.055-1.698-0.081-3.29-0.104-5.244c-0.291-0.104-0.58-0.212-0.909-0.279C19.067,3.752,19.164,5.268,19.159,7.132z M20.592,7.412
		c0.271,0.125,0.581,0.212,0.909,0.28c0.088-0.75-0.194-1.659,0.07-2.203c0.719,0.417,0.332,1.536,0.489,2.413
		c0.328,0.068,0.555,0.238,0.909,0.279c-0.113-0.913,0.104-2.156-0.385-2.692c0.512-0.361,0.206-1.296-0.104-1.818
		c-0.425-0.711-1.159-1.233-1.958-1.434C20.51,3.999,20.614,5.642,20.592,7.412z M2.587,9.544c0.458-0.84,1.043-2.507,0.56-3.601
		c0.633-0.898,0.476-3.288-0.769-3.426C2.222,2.5,1.562,2.755,1.469,2.902c-0.201,0.316-0.144,1.47-0.175,1.993
		C1.212,6.264,1.118,7.642,0.979,9.02c-0.071,0.699-0.215,1.374-0.141,1.993C1.766,10.826,2.157,10.335,2.587,9.544z M23.424,8.391
		c0.525,0.244,1.067,0.471,1.573,0.734c0.011-0.314-0.005-0.601-0.035-0.874c-0.22-0.106-0.489-0.163-0.629-0.35
		c0.028-0.635-0.127-1.271-0.035-1.853c0.146,0.018,0.204,0.122,0.35,0.14c0-0.209,0-0.419,0-0.629
		c-0.108-0.112-0.317-0.125-0.419-0.245c0.003-0.245-0.042-0.439,0.034-0.664c0.224,0.044,0.344,0.193,0.56,0.245
		c-0.02-0.248-0.051-0.485-0.035-0.769c-0.477-0.281-0.975-0.541-1.503-0.769C23.307,5.002,23.374,6.651,23.424,8.391z
		 M14.439,7.377c-0.181,0.763,0.051,1.939-0.42,2.412c-0.268-0.575,0.042-1.646,0.07-2.377c-0.317-0.026-0.543,0.041-0.84,0.035
		c-0.029,0.942-0.411,2.191,0,2.937c0.129,0.046,0.301,0.049,0.35,0.175c-0.066,0.924-0.17,1.811-0.244,2.727
		c0.3-0.037,0.555-0.12,0.839-0.174c0.045-0.93,0.121-1.807,0.245-2.728c0.943-0.339,0.586-1.977,0.839-3.006
		C14.998,7.377,14.719,7.377,14.439,7.377z M15.278,10.208c0.146-0.008,0.292-0.013,0.314,0.105
		c-0.077,0.715,0.066,1.65-0.524,1.853c0.016,0.267-0.1,0.567,0,0.804c1.285-0.229,1.343-1.687,1.363-3.182
		c-0.123-0.051-0.323-0.025-0.35-0.174c0.102-0.391-0.02-0.887,0.14-1.189c0.095-0.18,0.242-0.136,0.315-0.315
		c-0.033-0.257,0.183-0.676-0.07-0.734C15.247,7.498,15.312,8.902,15.278,10.208z M17.655,8.251
		c-0.116,0.346-0.066,1.254-0.035,1.958c0.027,0.583-0.028,1.189,0.035,1.539c0.123,0.67,0.821,1.016,1.469,0.838
		c0.072-0.125,0.018-0.377,0.035-0.559c-0.234-0.166-0.605-0.131-0.699-0.455c-0.098-0.334-0.021-0.957-0.035-1.434
		c-0.017-0.555-0.006-1.073,0-1.503c0.129-0.197,0.391-0.261,0.664-0.314c-0.018-0.192,0.038-0.458-0.035-0.594
		C18.513,7.527,17.822,7.754,17.655,8.251z M10.698,11.083c-0.124,1.028-0.479,2.466,0.245,2.728
		c0.644,0.232,1.386-0.496,1.573-1.26c0.141-0.576,0.136-1.286,0.209-1.957c0.121-1.098,0.407-2.948-0.664-2.867
		C10.78,7.823,10.856,9.772,10.698,11.083z M19.368,12.621c0.399-0.02,0.876-0.035,1.398,0.035c0-0.191-0.048-0.468-0.034-0.77
		c-0.212,0.002-0.43,0.01-0.56-0.069c-0.021-1.274-0.095-2.613-0.105-3.916c-0.269-0.046-0.538-0.091-0.804-0.14
		C19.295,9.326,19.327,11.184,19.368,12.621z M20.907,11.921c0.252,0.281,0.533,0.842,1.014,0.909
		c0.459,0.063,0.78-0.228,1.014-0.56c-0.056-1.333-0.11-2.457-0.14-3.706c-0.297-0.053-0.522-0.177-0.805-0.245
		c0.025,0.974,0.025,2.046,0.07,2.937c0.012,0.227,0.158,0.553-0.104,0.664c-0.321-0.082-0.235-0.525-0.245-0.804
		c-0.031-0.917-0.075-2.011-0.104-2.902c-0.301-0.026-0.502-0.151-0.805-0.175C20.813,9.368,20.889,10.585,20.907,11.921z
		 M8.915,14.509c0.703-0.372,1.858-2.23,1.329-3.496c0.683-0.769,0.368-2.809-0.665-2.833C9.331,8.175,9.012,8.363,8.775,8.46
		c-0.206,2.09-0.558,4.221-0.734,6.223C8.314,14.664,8.646,14.652,8.915,14.509z M25.207,11.222c0.185-1.07-1.165-2.465-2.133-2.482
		c0.034,1.49,0.109,2.89,0.175,4.265c0.319,0.167,0.611,0.376,1.014,0.385c0.991,0.021,1.312-1.088,0.734-1.854
		C25.179,11.474,25.18,11.384,25.207,11.222z M4.195,12.131c0.174-0.048,0.421-0.021,0.489-0.175
		C4.536,11.89,4.182,11.919,4.195,12.131z M2.797,12.236c0.055,0.137,0.386,0.069,0.42-0.035
		C3.126,12.146,2.821,12.054,2.797,12.236z M4.091,12.341c0,0.035,0,0.07,0,0.105c0.091,0.072,0.298,0.039,0.279-0.105
		C4.29,12.319,4.159,12.272,4.091,12.341z M2.902,12.621c0.09,0.072,0.288,0.03,0.314-0.07C3.113,12.485,2.922,12.437,2.902,12.621z
		 M3.356,13.32c0.134,0.018,0.224-0.01,0.279-0.07c-0.075-0.18-0.181-0.33-0.209-0.559C3.327,12.841,3.231,13.15,3.356,13.32z
		 M3.496,13.74c0.159,0.012,0.424,0.184,0.455-0.07C3.918,13.507,3.448,13.507,3.496,13.74z M1.993,14.824
		c0.153,0.034,0.345,0.213,0.524,0.104c-0.062-0.066-0.032-0.224-0.105-0.28C2.197,14.558,2.032,14.644,1.993,14.824z"/>
	<path fill-rule="evenodd" clip-rule="evenodd" d="M11.782,0.664c0.785-0.198,1.247,0.619,1.328,1.154c0.083,0.549,0,1.515,0,2.098
		c0,0.772,0.079,1.46-0.035,1.993c-0.141,0.661-0.669,1.338-1.468,1.119c-0.956-0.262-0.688-1.869-0.664-2.972
		C10.973,2.723,10.709,0.935,11.782,0.664z M11.887,1.224c0.102,0.05,0.055,0.249,0.21,0.245c0.115-0.166,0.139-0.432-0.07-0.524
		C12.004,1.061,11.918,1.115,11.887,1.224z M11.957,1.923c-0.051,0.02-0.086,0.055-0.105,0.105c0.032,1.054-0.034,1.979-0.034,2.832
		c0,0.294-0.091,0.646,0.104,0.909c0.395,0.021,0.236-0.487,0.245-0.734c0.034-0.977,0.075-2.221,0-3.111
		C12.097,1.923,12.026,1.923,11.957,1.923z M12.691,3.077c0.142-0.144,0.192-0.435-0.035-0.524
		C12.517,2.702,12.547,2.952,12.691,3.077z M11.433,3.146c0.013-0.115,0.081-0.175,0.14-0.245c-0.059-0.104-0.07-0.256-0.21-0.28
		C11.263,2.793,11.201,3.069,11.433,3.146z M12.621,5.034c0.244-0.062,0.25-0.43,0.035-0.524
		C12.524,4.683,12.498,4.834,12.621,5.034z M11.397,5.209c0.018-0.146,0.122-0.204,0.14-0.35c-0.077-0.051-0.069-0.187-0.175-0.209
		C11.214,4.793,11.171,5.111,11.397,5.209z M11.957,6.678c0.24-0.083,0.25-0.45,0.035-0.56C11.861,6.296,11.829,6.478,11.957,6.678z
		"/>
	<path fill-rule="evenodd" clip-rule="evenodd" d="M14.124,0.699c0.318,0.789,0.479,1.736,0.909,2.412
		c0.092-0.689-0.017-1.578,0.07-2.272c0.304,0.045,0.545,0.154,0.874,0.175c-0.116,2.068,0.107,3.87,0,5.734
		c-0.664,0.049-0.669-0.883-0.839-1.364c-0.196-0.553-0.432-1.124-0.595-1.608c-0.158,0.88-0.029,2.149-0.07,3.042
		c-0.311,0.004-0.647-0.019-0.908,0.035c0.121-2.013-0.055-4.292,0.034-6.083c0.02-0.05,0.055-0.085,0.105-0.105
		C13.881,0.64,13.948,0.724,14.124,0.699z M13.915,1.643c0.136-0.016,0.143-0.16,0.209-0.245c-0.089-0.051-0.067-0.212-0.175-0.245
		C13.791,1.294,13.81,1.457,13.915,1.643z M15.558,1.888c0.136-0.015,0.144-0.16,0.21-0.245c-0.118-0.021-0.056-0.224-0.21-0.209
		C15.413,1.577,15.481,1.716,15.558,1.888z M13.81,6.048c0.059,0.104,0.07,0.256,0.21,0.28c0.119-0.148,0.144-0.421-0.07-0.49
		C13.912,5.917,13.87,5.992,13.81,6.048z M15.488,6.083c0.089,0.051,0.067,0.212,0.175,0.245c0.157-0.124,0.171-0.398-0.035-0.49
		C15.596,5.934,15.521,5.988,15.488,6.083z"/>
	<path fill-rule="evenodd" clip-rule="evenodd" d="M10.488,0.699c-0.033,2.291-0.11,4.544-0.14,6.748
		c-0.326,0.07-0.617,0.175-0.944,0.245c0.133-2.38,0.129-4.426,0.21-6.922C9.899,0.739,10.18,0.705,10.488,0.699z M10.034,1.818
		c0.044-0.119,0.124-0.202,0.175-0.314c-0.102-0.051-0.055-0.249-0.21-0.245C9.902,1.428,9.844,1.7,10.034,1.818z M9.72,6.782
		C9.82,6.833,9.774,7.031,9.929,7.027c0.018-0.146,0.123-0.204,0.141-0.35C9.995,6.611,9.99,6.477,9.895,6.433
		C9.836,6.55,9.777,6.666,9.72,6.782z"/>
	<path fill-rule="evenodd" clip-rule="evenodd" d="M8.391,0.909c0.228,0.056,0.075,0.303,0.07,0.419
		c-0.084,1.908-0.123,3.595-0.21,5.524c0.18,0.053,0.416-0.113,0.629-0.14C8.825,7.054,8.851,7.475,8.846,7.866
		C8.312,8.008,7.861,8.234,7.307,8.355c0.084-2.416,0.219-4.863,0.315-7.342C7.887,0.987,8.145,0.954,8.391,0.909z M7.972,2.098
		c0.221-0.064,0.286-0.486,0.034-0.56C7.884,1.724,7.838,1.892,7.972,2.098z M7.797,7.656c0.146-0.161,0.263-0.509,0-0.629
		C7.691,7.23,7.589,7.487,7.797,7.656z"/>
	<path fill-rule="evenodd" clip-rule="evenodd" fill="#FFFFFF" d="M12.026,0.944c0.209,0.093,0.186,0.358,0.07,0.524
		c-0.155,0.004-0.108-0.194-0.21-0.245C11.918,1.115,12.004,1.061,12.026,0.944z"/>
	<path fill-rule="evenodd" clip-rule="evenodd" fill="#FFFFFF" d="M13.949,1.154c0.107,0.033,0.086,0.194,0.175,0.245
		c-0.066,0.085-0.073,0.229-0.209,0.245C13.81,1.457,13.791,1.294,13.949,1.154z"/>
	<path fill-rule="evenodd" clip-rule="evenodd" d="M6.153,7.517c0.193,0.056,0.398-0.155,0.629-0.175
		C6.729,7.734,6.77,8.275,6.713,8.565C6.182,8.745,5.719,8.993,5.175,9.16C5.311,6.682,5.47,3.997,5.629,1.434
		c0.324-0.037,0.576-0.147,0.874-0.21C6.387,3.24,6.241,5.508,6.153,7.517z M5.943,2.587c0.106-0.17,0.302-0.527,0-0.629
		C5.836,2.163,5.744,2.41,5.943,2.587z M5.629,8.426c0.103-0.203,0.292-0.537,0-0.665C5.49,8,5.412,8.223,5.629,8.426z"/>
	<path fill-rule="evenodd" clip-rule="evenodd" fill="#FFFFFF" d="M9.999,1.259c0.155-0.004,0.108,0.194,0.21,0.245
		c-0.051,0.112-0.131,0.196-0.175,0.314C9.844,1.7,9.902,1.428,9.999,1.259z"/>
	<path fill-rule="evenodd" clip-rule="evenodd" d="M18.669,7.062c-0.28-0.08-0.626-0.096-0.908-0.175
		c-0.031-0.928,0.011-1.497-0.07-2.447c-0.132,0.027-0.167-0.042-0.279-0.035c-0.174,0.78-0.003,1.666-0.035,2.482
		c-0.288-0.062-0.634-0.065-0.944-0.105c0.013-1.063,0.045-2.058,0-3.076c-0.036-0.833-0.21-1.902,0.28-2.238
		c0.765-0.524,1.747,0.314,1.888,1.084c0.071,0.391-0.017,0.815,0,1.188C18.647,4.825,18.68,5.901,18.669,7.062z M17.411,2.098
		c0.128-0.012,0.159-0.12,0.209-0.21c-0.075-0.064-0.092-0.187-0.175-0.245C17.271,1.763,17.319,1.918,17.411,2.098z M17.341,3.636
		c0.078,0.051,0.169,0.088,0.314,0.07c0.004-0.569,0.048-0.839,0-1.224c-0.087-0.03-0.188-0.046-0.314-0.035
		C17.341,2.843,17.341,3.24,17.341,3.636z M16.887,4.16c0.15-0.112,0.116-0.403-0.07-0.454C16.657,3.827,16.727,4.082,16.887,4.16z
		 M18.04,4.16c0.061,0.056,0.103,0.131,0.14,0.21c0.117-0.011,0.14-0.117,0.175-0.21c-0.086-0.053-0.062-0.217-0.21-0.209
		C18.131,4.042,18.041,4.056,18.04,4.16z M16.921,6.398c0.009-0.132,0.132-0.148,0.141-0.28c-0.119-0.021-0.057-0.224-0.21-0.21
		C16.711,6.077,16.76,6.278,16.921,6.398z M18.04,6.293c0.056,0.073,0.114,0.143,0.14,0.245c0.239-0.043,0.191-0.394,0-0.455
		C18.137,6.157,18.083,6.22,18.04,6.293z"/>
	<path fill-rule="evenodd" clip-rule="evenodd" fill="#FFFFFF" d="M15.558,1.434c0.154-0.014,0.092,0.188,0.21,0.209
		c-0.066,0.085-0.074,0.229-0.21,0.245C15.481,1.716,15.413,1.577,15.558,1.434z"/>
	<path fill-rule="evenodd" clip-rule="evenodd" fill="#FFFFFF" d="M8.006,1.538c0.252,0.074,0.187,0.496-0.034,0.56
		C7.838,1.892,7.884,1.724,8.006,1.538z"/>
	<path fill-rule="evenodd" clip-rule="evenodd" fill="#FFFFFF" d="M17.445,1.643c0.083,0.058,0.1,0.18,0.175,0.245
		c-0.05,0.09-0.081,0.198-0.209,0.21C17.319,1.918,17.271,1.763,17.445,1.643z"/>
	<path fill-rule="evenodd" clip-rule="evenodd" d="M19.089,1.783c0.329,0.067,0.618,0.175,0.909,0.279
		c0.023,1.954,0.05,3.546,0.104,5.244c-0.332-0.041-0.604-0.141-0.943-0.175C19.164,5.268,19.067,3.752,19.089,1.783z M19.543,2.762
		c0.189-0.114,0.135-0.349-0.034-0.454C19.338,2.414,19.431,2.654,19.543,2.762z M19.438,6.538c0.071,0.057,0.088,0.168,0.14,0.245
		C19.966,6.725,19.556,6.105,19.438,6.538z"/>
	<path fill-rule="evenodd" clip-rule="evenodd" fill="#FFFFFF" d="M12.167,1.923c0.075,0.891,0.069,2.309,0.034,3.286
		c-0.008,0.248,0.115,0.58-0.279,0.56c-0.195-0.263-0.104-0.615-0.104-0.909c0-0.853,0.066-1.777,0.034-2.832
		c0.02-0.05,0.055-0.085,0.105-0.105C12.026,1.923,12.097,1.923,12.167,1.923z"/>
	<path fill-rule="evenodd" clip-rule="evenodd" fill="#FFFFFF" d="M5.943,1.958c0.302,0.102,0.106,0.458,0,0.629
		C5.744,2.41,5.836,2.163,5.943,1.958z"/>
	<path fill-rule="evenodd" clip-rule="evenodd" d="M20.522,2.237c0.799,0.2,1.533,0.722,1.958,1.434
		c0.311,0.521,0.616,1.457,0.104,1.818c0.489,0.536,0.271,1.779,0.385,2.692c-0.354-0.042-0.581-0.211-0.909-0.279
		c-0.157-0.876,0.229-1.995-0.489-2.413c-0.265,0.543,0.018,1.453-0.07,2.203c-0.328-0.067-0.638-0.155-0.909-0.28
		C20.614,5.642,20.51,3.999,20.522,2.237z M21.361,3.007c0.021,0.13,0.132,0.171,0.14,0.314c0.096-0.032,0.146-0.11,0.175-0.21
		c-0.094-0.046-0.069-0.21-0.21-0.209C21.446,2.952,21.412,2.987,21.361,3.007z M21.536,4.72c0.082,0.011,0.131,0.055,0.245,0.035
		c0.229-0.375-0.066-0.961-0.315-1.189C21.503,3.937,21.387,4.461,21.536,4.72z M20.802,3.881c0.008,0.132,0.11,0.169,0.14,0.279
		c0.11,0.017,0.093-0.094,0.175-0.104C21.079,3.873,20.938,3.681,20.802,3.881z M22.34,4.65c0.011-0.083,0.122-0.065,0.105-0.175
		c-0.054-0.087-0.072-0.208-0.175-0.245C22.103,4.334,22.194,4.575,22.34,4.65z M21.501,5.034c0.024,0.207,0.25,0.448,0.314,0.14
		C21.738,5.035,21.646,4.83,21.501,5.034z M20.872,6.887c0.044,0.107,0.053,0.25,0.175,0.28c0.18-0.078,0.073-0.369-0.07-0.419
		C20.941,6.794,20.919,6.853,20.872,6.887z M22.306,7.342c0.022,0.117,0.108,0.171,0.14,0.28c0.109,0.017,0.092-0.094,0.175-0.105
		c-0.042-0.122-0.076-0.25-0.21-0.28C22.391,7.287,22.355,7.322,22.306,7.342z"/>
	<path fill-rule="evenodd" clip-rule="evenodd" fill="#FFFFFF" d="M19.509,2.308c0.169,0.105,0.224,0.34,0.034,0.454
		C19.431,2.654,19.338,2.414,19.509,2.308z"/>
	<path fill-rule="evenodd" clip-rule="evenodd" fill="#FFFFFF" d="M4.51,2.377c0.258,0.176,0.1,0.418,0,0.664
		C4.247,2.895,4.373,2.571,4.51,2.377z"/>
	<path fill-rule="evenodd" clip-rule="evenodd" fill="#FFFFFF" d="M17.341,2.447c0.127-0.011,0.228,0.005,0.314,0.035
		c0.048,0.384,0.004,0.655,0,1.224c-0.146,0.018-0.236-0.02-0.314-0.07C17.341,3.24,17.341,2.843,17.341,2.447z"/>
	<path fill-rule="evenodd" clip-rule="evenodd" d="M0.944,11.048C0.869,10.429,0.908,9.719,0.979,9.02
		c0.139-1.378,0.232-2.756,0.314-4.125c0.031-0.523-0.026-1.676,0.175-1.993C1.562,2.755,2.222,2.5,2.378,2.517
		c1.244,0.138,1.401,2.528,0.769,3.426c0.483,1.094-0.102,2.761-0.56,3.601C2.157,10.335,1.87,10.861,0.944,11.048z M1.854,3.985
		c0.068-0.232,0.253-0.537-0.035-0.664C1.723,3.503,1.56,3.892,1.854,3.985z M2.133,5.838c0.664-0.163,0.438-1.5,0.14-1.888
		C2.176,4.529,2.126,5.155,2.133,5.838z M3.042,4.895c0.101-0.181,0.306-0.56,0-0.664C2.924,4.431,2.846,4.723,3.042,4.895z
		 M1.504,7.202C1.7,7.085,1.845,6.663,1.608,6.503C1.475,6.693,1.389,6.942,1.504,7.202z M2.168,6.992
		c-0.374,0.407-0.28,1.468-0.28,2.133c0.296-0.497,0.439-1.146,0.56-1.818C2.354,7.203,2.313,7.044,2.168,6.992z M2.832,7.971
		C2.875,7.816,2.968,7.71,3.007,7.552c-0.063-0.088-0.072-0.23-0.175-0.28C2.752,7.479,2.586,7.825,2.832,7.971z M1.329,10.279
		c0.106-0.242,0.323-0.554,0.034-0.734C1.246,9.755,1.092,10.087,1.329,10.279z"/>
	<path fill-rule="evenodd" clip-rule="evenodd" fill="#FFFFFF" d="M12.656,2.552c0.228,0.089,0.177,0.38,0.035,0.524
		C12.547,2.952,12.517,2.702,12.656,2.552z"/>
	<path fill-rule="evenodd" clip-rule="evenodd" fill="#FFFFFF" d="M11.362,2.622c0.14,0.024,0.151,0.175,0.21,0.28
		c-0.059,0.07-0.127,0.129-0.14,0.245C11.201,3.069,11.263,2.793,11.362,2.622z"/>
	<path fill-rule="evenodd" clip-rule="evenodd" fill="#FFFFFF" d="M21.466,2.902c0.141,0,0.116,0.164,0.21,0.209
		c-0.028,0.1-0.079,0.178-0.175,0.21c-0.008-0.143-0.118-0.184-0.14-0.314C21.412,2.987,21.446,2.952,21.466,2.902z"/>
	<path fill-rule="evenodd" clip-rule="evenodd" fill="#FFFFFF" d="M1.818,3.321c0.288,0.127,0.104,0.432,0.035,0.664
		C1.56,3.892,1.723,3.503,1.818,3.321z"/>
	<path fill-rule="evenodd" clip-rule="evenodd" d="M23.284,3.356c0.528,0.229,1.026,0.488,1.503,0.769
		c-0.016,0.284,0.016,0.521,0.035,0.769c-0.216-0.052-0.336-0.2-0.56-0.245c-0.076,0.225-0.031,0.419-0.034,0.664
		c0.102,0.12,0.311,0.132,0.419,0.245c0,0.21,0,0.42,0,0.629c-0.146-0.018-0.204-0.122-0.35-0.14c-0.092,0.582,0,1.083,0.035,1.853
		c0.14,0.187,0.409,0.243,0.629,0.35c0.03,0.273,0.046,0.56,0.035,0.874c-0.506-0.264-1.048-0.491-1.573-0.734
		C23.374,6.651,23.307,5.002,23.284,3.356z M23.563,3.881c0.045,0.118,0.104,0.222,0.175,0.314c0.024-0.081,0.116-0.094,0.141-0.175
		c-0.102-0.05-0.079-0.224-0.21-0.245C23.635,3.812,23.6,3.847,23.563,3.881z M23.599,5.419c0.093,0.07,0.085,0.242,0.21,0.28
		c0.161-0.123,0.055-0.342-0.104-0.419C23.693,5.351,23.609,5.348,23.599,5.419z M23.913,8.181c0.05-0.008,0.06-0.058,0.105-0.07
		c-0.054-0.121-0.062-0.288-0.21-0.314C23.644,7.897,23.766,8.108,23.913,8.181z"/>
	<path fill-rule="evenodd" clip-rule="evenodd" fill="#FFFFFF" d="M21.466,3.566c0.249,0.228,0.545,0.814,0.315,1.189
		c-0.114,0.02-0.163-0.024-0.245-0.035C21.387,4.461,21.503,3.937,21.466,3.566z"/>
	<path fill-rule="evenodd" clip-rule="evenodd" fill="#FFFFFF" d="M16.816,3.706c0.187,0.051,0.221,0.342,0.07,0.454
		C16.727,4.082,16.657,3.827,16.816,3.706z"/>
	<path fill-rule="evenodd" clip-rule="evenodd" fill="#FFFFFF" d="M21.116,4.056c-0.082,0.011-0.064,0.121-0.175,0.104
		c-0.029-0.11-0.132-0.147-0.14-0.279C20.938,3.681,21.079,3.873,21.116,4.056z"/>
	<path fill-rule="evenodd" clip-rule="evenodd" fill="#FFFFFF" d="M23.669,3.776c0.131,0.021,0.108,0.195,0.21,0.245
		c-0.024,0.081-0.116,0.094-0.141,0.175c-0.07-0.093-0.13-0.196-0.175-0.314C23.6,3.847,23.635,3.812,23.669,3.776z"/>
	<path fill-rule="evenodd" clip-rule="evenodd" fill="#FFFFFF" d="M2.272,3.951c0.298,0.388,0.524,1.725-0.14,1.888
		C2.126,5.155,2.176,4.529,2.272,3.951z"/>
	<path fill-rule="evenodd" clip-rule="evenodd" fill="#FFFFFF" d="M18.145,3.951c0.147-0.007,0.124,0.156,0.21,0.209
		c-0.035,0.093-0.058,0.199-0.175,0.21c-0.037-0.079-0.079-0.154-0.14-0.21C18.041,4.056,18.131,4.042,18.145,3.951z"/>
	<path fill-rule="evenodd" clip-rule="evenodd" fill="#FFFFFF" d="M3.042,4.23c0.306,0.104,0.101,0.483,0,0.664
		C2.846,4.723,2.924,4.431,3.042,4.23z"/>
	<path fill-rule="evenodd" clip-rule="evenodd" fill="#FFFFFF" d="M22.271,4.23c0.103,0.037,0.121,0.158,0.175,0.245
		c0.017,0.11-0.095,0.092-0.105,0.175C22.194,4.575,22.103,4.334,22.271,4.23z"/>
	<path fill-rule="evenodd" clip-rule="evenodd" fill="#FFFFFF" d="M12.656,4.51c0.215,0.094,0.209,0.462-0.035,0.524
		C12.498,4.834,12.524,4.683,12.656,4.51z"/>
	<path fill-rule="evenodd" clip-rule="evenodd" fill="#FFFFFF" d="M11.362,4.65c0.105,0.022,0.098,0.159,0.175,0.209
		c-0.018,0.146-0.122,0.204-0.14,0.35C11.171,5.111,11.214,4.793,11.362,4.65z"/>
	<path fill-rule="evenodd" clip-rule="evenodd" fill="#FFFFFF" d="M21.815,5.174c-0.064,0.308-0.29,0.066-0.314-0.14
		C21.646,4.83,21.738,5.035,21.815,5.174z"/>
	<path fill-rule="evenodd" clip-rule="evenodd" fill="#FFFFFF" d="M23.704,5.279c0.159,0.078,0.266,0.297,0.104,0.419
		c-0.125-0.038-0.117-0.209-0.21-0.28C23.609,5.348,23.693,5.351,23.704,5.279z"/>
	<path fill-rule="evenodd" clip-rule="evenodd" fill="#FFFFFF" d="M13.949,5.838c0.214,0.068,0.189,0.342,0.07,0.49
		c-0.14-0.024-0.151-0.175-0.21-0.28C13.87,5.992,13.912,5.917,13.949,5.838z"/>
	<path fill-rule="evenodd" clip-rule="evenodd" fill="#FFFFFF" d="M15.628,5.838c0.206,0.091,0.192,0.366,0.035,0.49
		c-0.107-0.033-0.086-0.194-0.175-0.245C15.521,5.988,15.596,5.934,15.628,5.838z"/>
	<path fill-rule="evenodd" clip-rule="evenodd" fill="#FFFFFF" d="M16.852,5.908c0.153-0.014,0.091,0.188,0.21,0.21
		c-0.009,0.132-0.132,0.148-0.141,0.28C16.76,6.278,16.711,6.077,16.852,5.908z"/>
	<path fill-rule="evenodd" clip-rule="evenodd" fill="#FFFFFF" d="M18.18,6.083c0.191,0.061,0.239,0.412,0,0.455
		c-0.025-0.102-0.084-0.172-0.14-0.245C18.083,6.22,18.137,6.157,18.18,6.083z"/>
	<path fill-rule="evenodd" clip-rule="evenodd" fill="#FFFFFF" d="M11.992,6.118c0.215,0.11,0.205,0.476-0.035,0.56
		C11.829,6.478,11.861,6.296,11.992,6.118z"/>
	<path fill-rule="evenodd" clip-rule="evenodd" fill="#FFFFFF" d="M19.578,6.782c-0.052-0.076-0.068-0.188-0.14-0.245
		C19.556,6.105,19.966,6.725,19.578,6.782z"/>
	<path fill-rule="evenodd" clip-rule="evenodd" fill="#FFFFFF" d="M9.895,6.433c0.096,0.044,0.101,0.179,0.175,0.245
		c-0.018,0.146-0.123,0.204-0.141,0.35C9.774,7.031,9.82,6.833,9.72,6.782C9.777,6.666,9.836,6.55,9.895,6.433z"/>
	<path fill-rule="evenodd" clip-rule="evenodd" fill="#FFFFFF" d="M1.608,6.503C1.845,6.663,1.7,7.085,1.504,7.202
		C1.389,6.942,1.475,6.693,1.608,6.503z"/>
	<path fill-rule="evenodd" clip-rule="evenodd" fill="#FFFFFF" d="M20.977,6.748c0.144,0.051,0.25,0.342,0.07,0.419
		c-0.122-0.03-0.131-0.172-0.175-0.28C20.919,6.853,20.941,6.794,20.977,6.748z"/>
	<path fill-rule="evenodd" clip-rule="evenodd" fill="#FFFFFF" d="M2.447,7.307c-0.12,0.672-0.264,1.321-0.56,1.818
		c0-0.665-0.094-1.726,0.28-2.133C2.313,7.044,2.354,7.203,2.447,7.307z"/>
	<path fill-rule="evenodd" clip-rule="evenodd" fill="#FFFFFF" d="M7.797,7.027c0.263,0.12,0.146,0.468,0,0.629
		C7.589,7.487,7.691,7.23,7.797,7.027z"/>
	<path fill-rule="evenodd" clip-rule="evenodd" fill="#FFFFFF" d="M22.41,7.237c0.134,0.03,0.168,0.158,0.21,0.28
		c-0.083,0.011-0.065,0.122-0.175,0.105c-0.031-0.109-0.117-0.163-0.14-0.28C22.355,7.322,22.391,7.287,22.41,7.237z"/>
	<path fill-rule="evenodd" clip-rule="evenodd" fill="#FFFFFF" d="M2.832,7.272c0.103,0.049,0.111,0.192,0.175,0.28
		C2.968,7.71,2.875,7.816,2.832,7.971C2.586,7.825,2.752,7.479,2.832,7.272z"/>
	<path fill-rule="evenodd" clip-rule="evenodd" d="M15.278,7.377c-0.253,1.029,0.104,2.667-0.839,3.006
		c-0.124,0.921-0.2,1.798-0.245,2.728c-0.284,0.054-0.539,0.137-0.839,0.174c0.074-0.916,0.178-1.803,0.244-2.727
		c-0.049-0.126-0.221-0.129-0.35-0.175c-0.411-0.745-0.029-1.995,0-2.937c0.297,0.005,0.522-0.061,0.84-0.035
		c-0.028,0.731-0.338,1.802-0.07,2.377c0.471-0.472,0.239-1.648,0.42-2.412C14.719,7.377,14.998,7.377,15.278,7.377z M14.719,8.076
		c0.136-0.016,0.144-0.16,0.21-0.245c-0.078-0.038-0.062-0.171-0.14-0.209C14.673,7.741,14.606,7.904,14.719,8.076z M13.565,8.181
		c0.106-0.165,0.197-0.351,0-0.489C13.444,7.829,13.365,8.067,13.565,8.181z M14.579,9.474c0.146-0.006,0.122-0.181,0.21-0.245
		c-0.079-0.038-0.062-0.171-0.141-0.209C14.533,9.139,14.467,9.303,14.579,9.474z M13.25,9.439c0.069,0.024,0.094,0.093,0.105,0.175
		c0.139-0.024,0.15-0.176,0.21-0.28c-0.086-0.031-0.038-0.195-0.175-0.175C13.383,9.292,13.28,9.33,13.25,9.439z M13.984,10.664
		c0.098-0.139,0.229-0.395,0-0.49C13.892,10.338,13.775,10.54,13.984,10.664z M13.774,12.831c0.071-0.092,0.12-0.206,0.175-0.314
		c-0.082-0.034-0.058-0.175-0.175-0.175C13.695,12.519,13.558,12.699,13.774,12.831z"/>
	<path fill-rule="evenodd" clip-rule="evenodd" d="M16.467,7.377c0.253,0.058,0.037,0.477,0.07,0.734
		c-0.073,0.179-0.221,0.135-0.315,0.315c-0.159,0.302-0.038,0.798-0.14,1.189c0.026,0.148,0.227,0.123,0.35,0.174
		c-0.021,1.495-0.078,2.952-1.363,3.182c-0.1-0.236,0.016-0.537,0-0.804c0.591-0.202,0.447-1.138,0.524-1.853
		c-0.022-0.118-0.168-0.113-0.314-0.105C15.312,8.902,15.247,7.498,16.467,7.377z M16.188,8.041
		c0.163-0.028,0.267-0.389,0.034-0.419C16.1,7.724,16.107,7.898,16.188,8.041z M15.907,10.314c0.031-0.109,0.117-0.164,0.14-0.28
		c-0.085-0.03-0.037-0.195-0.175-0.175C15.768,10.002,15.733,10.212,15.907,10.314z M15.313,12.621
		c0.223-0.039,0.261-0.354,0.069-0.454C15.298,12.298,15.18,12.458,15.313,12.621z"/>
	<path fill-rule="evenodd" clip-rule="evenodd" fill="#FFFFFF" d="M14.789,7.622c0.078,0.038,0.062,0.171,0.14,0.209
		c-0.066,0.085-0.074,0.229-0.21,0.245C14.606,7.904,14.673,7.741,14.789,7.622z"/>
	<path fill-rule="evenodd" clip-rule="evenodd" fill="#FFFFFF" d="M16.222,7.622c0.232,0.031,0.129,0.392-0.034,0.419
		C16.107,7.898,16.1,7.724,16.222,7.622z"/>
	<path fill-rule="evenodd" clip-rule="evenodd" d="M19.054,7.727c0.073,0.136,0.018,0.402,0.035,0.594
		c-0.273,0.053-0.535,0.117-0.664,0.314c-0.006,0.43-0.017,0.948,0,1.503c0.014,0.477-0.062,1.1,0.035,1.434
		c0.094,0.324,0.465,0.289,0.699,0.455c-0.018,0.182,0.037,0.434-0.035,0.559c-0.647,0.178-1.346-0.168-1.469-0.838
		c-0.063-0.35-0.008-0.956-0.035-1.539c-0.031-0.703-0.081-1.611,0.035-1.958C17.822,7.754,18.513,7.527,19.054,7.727z
		 M17.865,8.426c0,0.116,0.113,0.119,0.104,0.245c0.118-0.011,0.14-0.117,0.175-0.21C18.08,8.409,18.093,8.28,17.97,8.286
		C17.936,8.332,17.938,8.416,17.865,8.426z M18.11,11.851c0.113-0.137,0.115-0.313-0.07-0.384
		C17.927,11.58,17.893,11.821,18.11,11.851z"/>
	<path fill-rule="evenodd" clip-rule="evenodd" d="M12.062,7.727c1.071-0.081,0.785,1.769,0.664,2.867
		c-0.073,0.671-0.068,1.381-0.209,1.957c-0.188,0.764-0.93,1.492-1.573,1.26c-0.724-0.262-0.369-1.699-0.245-2.728
		C10.856,9.772,10.78,7.823,12.062,7.727z M11.817,8.321c0.091,0.025,0.033,0.199,0.14,0.209c0.059-0.104,0.139-0.188,0.175-0.314
		c-0.082-0.034-0.059-0.175-0.175-0.175C11.949,8.173,11.847,8.211,11.817,8.321z M11.817,8.95c-0.286,1.078-0.306,2.42-0.455,3.635
		c0.445,0.08,0.355-0.437,0.385-0.699c0.11-0.973,0.286-2.078,0.279-2.936C11.954,8.874,11.927,8.967,11.817,8.95z M12.376,9.684
		c0.192-0.075,0.28-0.374,0.07-0.489C12.329,9.348,12.281,9.476,12.376,9.684z M11.258,9.929c0.075-0.148,0.242-0.398,0-0.49
		C11.124,9.564,11.066,9.824,11.258,9.929z M12.201,11.957c0.071-0.092,0.121-0.206,0.175-0.314
		c-0.085-0.031-0.037-0.195-0.175-0.175C12.108,11.632,11.992,11.833,12.201,11.957z M10.943,12.236
		c0.183-0.049,0.299-0.414,0.069-0.488C10.918,11.878,10.811,12.065,10.943,12.236z M11.397,13.425
		c0.209-0.084,0.32-0.391,0.07-0.49C11.381,13.058,11.251,13.269,11.397,13.425z"/>
	<path fill-rule="evenodd" clip-rule="evenodd" fill="#FFFFFF" d="M13.565,7.691c0.197,0.138,0.106,0.324,0,0.489
		C13.365,8.067,13.444,7.829,13.565,7.691z"/>
	<path fill-rule="evenodd" clip-rule="evenodd" fill="#FFFFFF" d="M5.629,7.761c0.292,0.128,0.103,0.462,0,0.665
		C5.412,8.223,5.49,8,5.629,7.761z"/>
	<path fill-rule="evenodd" clip-rule="evenodd" d="M19.264,7.761c0.266,0.049,0.535,0.094,0.804,0.14
		c0.011,1.302,0.085,2.641,0.105,3.916c0.13,0.079,0.348,0.071,0.56,0.069c-0.014,0.302,0.034,0.578,0.034,0.77
		c-0.522-0.07-0.999-0.055-1.398-0.035C19.327,11.184,19.295,9.326,19.264,7.761z M19.474,8.391
		c0.082,0.034,0.058,0.175,0.175,0.175c0.065-0.004,0.024-0.116,0.104-0.105c-0.029-0.11-0.064-0.215-0.175-0.245
		C19.547,8.278,19.494,8.318,19.474,8.391z M19.578,11.992c-0.009,0.125,0.105,0.128,0.105,0.244
		c0.133,0.006,0.113-0.143,0.175-0.209c-0.083-0.035-0.059-0.176-0.175-0.176C19.648,11.898,19.626,11.957,19.578,11.992z"/>
	<path fill-rule="evenodd" clip-rule="evenodd" fill="#FFFFFF" d="M23.809,7.796c0.148,0.026,0.156,0.194,0.21,0.314
		c-0.046,0.012-0.056,0.062-0.105,0.07C23.766,8.108,23.644,7.897,23.809,7.796z"/>
	<path fill-rule="evenodd" clip-rule="evenodd" fill="#FFFFFF" d="M11.957,8.041c0.116,0,0.093,0.141,0.175,0.175
		c-0.036,0.127-0.116,0.21-0.175,0.314c-0.106-0.01-0.049-0.185-0.14-0.209C11.847,8.211,11.949,8.173,11.957,8.041z"/>
	<path fill-rule="evenodd" clip-rule="evenodd" d="M20.802,8.041c0.303,0.024,0.504,0.148,0.805,0.175
		c0.029,0.891,0.073,1.985,0.104,2.902c0.01,0.278-0.076,0.722,0.245,0.804c0.263-0.111,0.116-0.438,0.104-0.664
		c-0.045-0.891-0.045-1.962-0.07-2.937c0.282,0.068,0.508,0.191,0.805,0.245c0.029,1.249,0.084,2.373,0.14,3.706
		c-0.233,0.332-0.555,0.623-1.014,0.56c-0.48-0.067-0.762-0.628-1.014-0.909C20.889,10.585,20.813,9.368,20.802,8.041z
		 M21.012,8.496c0.03,0.109,0.087,0.193,0.175,0.245c0.132-0.13,0.086-0.292-0.104-0.35C21.084,8.451,21.055,8.48,21.012,8.496z
		 M22.34,9.055c0.228-0.005,0.124-0.336-0.034-0.35C22.162,8.814,22.303,8.932,22.34,9.055z M21.082,10.943
		c0.077,0.051,0.068,0.188,0.175,0.209c0.011-0.082,0.121-0.064,0.104-0.174c-0.062-0.056-0.072-0.16-0.175-0.176
		C21.176,10.875,21.092,10.872,21.082,10.943z M22.306,11.187c0.08,0.049,0.082,0.175,0.175,0.211
		c0.02-0.051,0.054-0.086,0.104-0.105c-0.03-0.109-0.087-0.193-0.175-0.244C22.4,11.119,22.315,11.117,22.306,11.187z
		 M21.781,12.341c0.08,0.048,0.082,0.174,0.175,0.209c0.03-0.073,0.106-0.103,0.104-0.209c-0.064-0.053-0.087-0.146-0.175-0.175
		C21.854,12.228,21.802,12.269,21.781,12.341z"/>
	<path fill-rule="evenodd" clip-rule="evenodd" d="M8.041,14.683c0.177-2.002,0.528-4.133,0.734-6.223
		c0.236-0.097,0.556-0.285,0.804-0.28c1.033,0.024,1.348,2.064,0.665,2.833c0.529,1.266-0.626,3.124-1.329,3.496
		C8.646,14.652,8.314,14.664,8.041,14.683z M8.95,9.055c0.027,0.113,0.073,0.207,0.14,0.28c0.059-0.117,0.117-0.232,0.175-0.35
		C9.18,8.954,9.227,8.79,9.09,8.81C9.077,8.925,9.009,8.985,8.95,9.055z M9.335,10.802c0.59-0.083,0.476-1.188,0.14-1.468
		C9.434,9.83,9.353,10.285,9.335,10.802z M10.139,10.103c0.135-0.051,0.153-0.219,0.21-0.35c-0.077-0.027-0.046-0.164-0.14-0.174
		C10.1,9.715,10.015,9.919,10.139,10.103z M8.671,11.607c0.078,0.038,0.062,0.172,0.14,0.21c0.047-0.128,0.133-0.216,0.175-0.35
		c-0.051-0.065-0.052-0.182-0.14-0.21C8.804,11.39,8.718,11.479,8.671,11.607z M9.335,11.712c-0.341,0.311-0.232,1.072-0.35,1.607
		C9.275,13.011,9.867,12.076,9.335,11.712z M9.859,12.516c0.187-0.046,0.303-0.411,0.069-0.489
		C9.852,12.174,9.727,12.345,9.859,12.516z M8.355,13.949c0.092,0.025,0.034,0.2,0.141,0.211c0.09-0.143,0.295-0.42,0.034-0.525
		C8.48,13.748,8.4,13.831,8.355,13.949z"/>
	<path fill-rule="evenodd" clip-rule="evenodd" fill="#FFFFFF" d="M19.578,8.216c0.11,0.03,0.146,0.135,0.175,0.245
		c-0.08-0.011-0.039,0.101-0.104,0.105c-0.117,0-0.093-0.141-0.175-0.175C19.494,8.318,19.547,8.278,19.578,8.216z"/>
	<path fill-rule="evenodd" clip-rule="evenodd" fill="#FFFFFF" d="M17.97,8.286c0.123-0.006,0.11,0.123,0.175,0.175
		c-0.035,0.093-0.057,0.199-0.175,0.21c0.009-0.125-0.104-0.128-0.104-0.245C17.938,8.416,17.936,8.332,17.97,8.286z"/>
	<path fill-rule="evenodd" clip-rule="evenodd" fill="#FFFFFF" d="M4.126,8.321c0.106,0.033,0.086,0.194,0.175,0.245
		c-0.047,0.163-0.119,0.3-0.175,0.455C4.027,8.955,3.991,8.829,3.951,8.705C4.023,8.592,4.07,8.452,4.126,8.321z"/>
	<path fill-rule="evenodd" clip-rule="evenodd" fill="#FFFFFF" d="M21.082,8.391c0.19,0.058,0.236,0.22,0.104,0.35
		c-0.088-0.052-0.145-0.135-0.175-0.245C21.055,8.48,21.084,8.451,21.082,8.391z"/>
	<path fill-rule="evenodd" clip-rule="evenodd" fill="#FFFFFF" d="M22.306,8.705c0.158,0.013,0.262,0.345,0.034,0.35
		C22.303,8.932,22.162,8.814,22.306,8.705z"/>
	<path fill-rule="evenodd" clip-rule="evenodd" d="M24.997,11.537c0.578,0.766,0.257,1.875-0.734,1.854
		c-0.402-0.009-0.694-0.218-1.014-0.385c-0.065-1.375-0.141-2.775-0.175-4.265c0.968,0.017,2.317,1.412,2.133,2.482
		C25.18,11.384,25.179,11.474,24.997,11.537z M23.563,9.509c0.008-0.039,0.039-0.054,0.07-0.07c-0.03-0.11-0.064-0.215-0.175-0.245
		C23.334,9.286,23.421,9.488,23.563,9.509z M24.263,10.873c0.169-0.36-0.097-0.814-0.314-1.014
		C24.049,10.202,23.794,10.9,24.263,10.873z M24.787,10.802c0.02-0.05,0.055-0.084,0.105-0.104c-0.043-0.109-0.077-0.227-0.21-0.246
		C24.564,10.575,24.693,10.707,24.787,10.802z M23.634,11.257c0.131-0.099,0.03-0.314-0.104-0.35
		C23.387,11.017,23.527,11.194,23.634,11.257z M24.123,12.55c0.34-0.226,0.447-0.943-0.069-1.049
		C23.993,11.8,23.983,12.337,24.123,12.55z M24.893,12.481c0.01-0.071,0.095-0.068,0.104-0.14c-0.094-0.046-0.069-0.21-0.21-0.21
		C24.656,12.23,24.784,12.418,24.893,12.481z M23.529,12.621c0,0.117,0.113,0.119,0.104,0.245c0.103-0.003,0.13-0.08,0.175-0.14
		c-0.08-0.049-0.082-0.175-0.175-0.21C23.614,12.566,23.579,12.601,23.529,12.621z"/>
	<path fill-rule="evenodd" clip-rule="evenodd" fill="#FFFFFF" d="M9.09,8.81C9.227,8.79,9.18,8.954,9.265,8.985
		C9.207,9.102,9.148,9.218,9.09,9.334c-0.066-0.073-0.112-0.167-0.14-0.28C9.009,8.985,9.077,8.925,9.09,8.81z"/>
	<path fill-rule="evenodd" clip-rule="evenodd" fill="#FFFFFF" d="M12.026,8.95c0.007,0.858-0.169,1.963-0.279,2.936
		c-0.029,0.263,0.061,0.779-0.385,0.699c0.149-1.215,0.169-2.558,0.455-3.635C11.927,8.967,11.954,8.874,12.026,8.95z"/>
	<path fill-rule="evenodd" clip-rule="evenodd" fill="#FFFFFF" d="M14.648,9.02c0.079,0.038,0.062,0.171,0.141,0.209
		c-0.088,0.064-0.064,0.239-0.21,0.245C14.467,9.303,14.533,9.139,14.648,9.02z"/>
	<path fill-rule="evenodd" clip-rule="evenodd" fill="#FFFFFF" d="M13.391,9.16c0.137-0.021,0.089,0.144,0.175,0.175
		c-0.06,0.104-0.071,0.256-0.21,0.28c-0.012-0.082-0.036-0.151-0.105-0.175C13.28,9.33,13.383,9.292,13.391,9.16z"/>
	<path fill-rule="evenodd" clip-rule="evenodd" fill="#FFFFFF" d="M12.446,9.195c0.21,0.116,0.122,0.414-0.07,0.489
		C12.281,9.476,12.329,9.348,12.446,9.195z"/>
	<path fill-rule="evenodd" clip-rule="evenodd" fill="#FFFFFF" d="M23.459,9.195c0.11,0.03,0.145,0.135,0.175,0.245
		c-0.031,0.016-0.062,0.031-0.07,0.07C23.421,9.488,23.334,9.286,23.459,9.195z"/>
	<path fill-rule="evenodd" clip-rule="evenodd" fill="#FFFFFF" d="M9.475,9.334c0.336,0.28,0.45,1.385-0.14,1.468
		C9.353,10.285,9.434,9.83,9.475,9.334z"/>
	<path fill-rule="evenodd" clip-rule="evenodd" fill="#FFFFFF" d="M5.874,9.789c0.557,0.07,1.033,0.984,1.118,1.748
		c0.022,0.196,0.012,0.428-0.035,0.63c-0.254-0.113-0.112-0.45-0.35-0.524c-0.75-0.232-0.439,1.152-0.384,1.678
		c-0.056,0.103-0.041-0.439-0.141-0.523c-0.139,0.781-0.628,1.398-1.293,1.537c0.094-0.287,0.465-0.352,0.664-0.559
		c0.229-0.238,0.449-0.563,0.42-0.944c-0.1-0.006,0.028,0.216-0.07,0.21c-0.155-0.057-0.04-0.4-0.035-0.524
		c0.077,0.005,0.075,0.088,0.07,0.175c0.048-0.724-0.372-1.283-1.049-1.398C4.716,11.358,4.958,11.402,5,11.467
		c-0.663-0.268-1.985-0.259-2.588,0.175c0.024,0.176-0.059,0.244-0.034,0.42c-0.066,0.006-0.004-0.415-0.141-0.455
		c0.214-0.771,1.739-0.982,2.692-0.734c0.472,0.123,0.792,0.496,1.119,0.455C5.75,10.75,4.61,10.548,3.741,10.628
		c0.348-0.27,0.557-0.678,0.839-1.014c0.016-0.109-0.074-0.112-0.175-0.105c0.813-0.354,1.243,0.613,1.469,1.224
		c0.086,0.234,0.495,0.874,0.629,0.315C6.623,10.548,5.948,10.169,5.874,9.789z M4.476,10.349c0.034-0.094,0.141-0.115,0.209-0.176
		C4.66,10.07,4.676,9.927,4.58,9.894C4.427,9.941,4.332,10.208,4.476,10.349z"/>
	<path fill-rule="evenodd" clip-rule="evenodd" fill="#FFFFFF" d="M11.258,9.439c0.242,0.091,0.075,0.341,0,0.49
		C11.066,9.824,11.124,9.564,11.258,9.439z"/>
	<path fill-rule="evenodd" clip-rule="evenodd" fill="#FFFFFF" d="M1.363,9.544c0.289,0.181,0.072,0.492-0.034,0.734
		C1.092,10.087,1.246,9.755,1.363,9.544z"/>
	<path fill-rule="evenodd" clip-rule="evenodd" fill="#FFFFFF" d="M10.209,9.58c0.094,0.01,0.062,0.146,0.14,0.174
		c-0.057,0.131-0.075,0.299-0.21,0.35C10.015,9.919,10.1,9.715,10.209,9.58z"/>
	<path fill-rule="evenodd" clip-rule="evenodd" fill="#FFFFFF" d="M4.23,9.65c-0.008,0.154-0.17,0.155-0.245,0.244
		C3.854,9.835,4.062,9.626,4.23,9.65z"/>
	<path fill-rule="evenodd" clip-rule="evenodd" fill="#FFFFFF" d="M3.566,9.719c0.055,0.3-0.315,0.478-0.524,0.63
		c0.02,0.166,0.18,0.192,0.21,0.35c-0.272-0.004-0.456,0.08-0.63,0.174C2.578,10.501,2.953,10.248,3.146,10
		c0.076-0.007,0.016,0.123,0.035,0.174c0.098,0.002,0.211-0.159,0.104-0.244C3.342,9.822,3.49,9.806,3.566,9.719z"/>
	<path fill-rule="evenodd" clip-rule="evenodd" fill="#FFFFFF" d="M15.872,9.859c0.138-0.021,0.09,0.145,0.175,0.175
		c-0.022,0.116-0.108,0.171-0.14,0.28C15.733,10.212,15.768,10.002,15.872,9.859z"/>
	<path fill-rule="evenodd" clip-rule="evenodd" fill="#FFFFFF" d="M23.948,9.859c0.218,0.199,0.483,0.653,0.314,1.014
		C23.794,10.9,24.049,10.202,23.948,9.859z"/>
	<path fill-rule="evenodd" clip-rule="evenodd" d="M4.58,9.894c0.096,0.033,0.08,0.176,0.104,0.279
		c-0.068,0.061-0.175,0.082-0.209,0.176C4.332,10.208,4.427,9.941,4.58,9.894z"/>
	<path fill-rule="evenodd" clip-rule="evenodd" fill="#FFFFFF" d="M3.846,10.034c-0.079,0.224-0.165,0.44-0.454,0.454
		c0.001-0.059-0.026-0.09-0.07-0.104C3.54,10.31,3.618,10.097,3.846,10.034z"/>
	<path fill-rule="evenodd" clip-rule="evenodd" fill="#FFFFFF" d="M13.984,10.173c0.229,0.096,0.098,0.352,0,0.49
		C13.775,10.54,13.892,10.338,13.984,10.173z"/>
	<path fill-rule="evenodd" clip-rule="evenodd" fill="#FFFFFF" d="M24.683,10.453c0.133,0.02,0.167,0.137,0.21,0.246
		c-0.051,0.02-0.086,0.054-0.105,0.104C24.693,10.707,24.564,10.575,24.683,10.453z"/>
	<path fill-rule="evenodd" clip-rule="evenodd" fill="#FFFFFF" d="M21.187,10.802c0.103,0.016,0.113,0.12,0.175,0.176
		c0.017,0.109-0.094,0.092-0.104,0.174c-0.106-0.021-0.098-0.158-0.175-0.209C21.092,10.872,21.176,10.875,21.187,10.802z"/>
	<path fill-rule="evenodd" clip-rule="evenodd" fill="#FFFFFF" d="M23.529,10.908c0.135,0.035,0.235,0.251,0.104,0.35
		C23.527,11.194,23.387,11.017,23.529,10.908z"/>
	<path fill-rule="evenodd" clip-rule="evenodd" fill="#FFFFFF" d="M22.41,11.048c0.088,0.051,0.145,0.135,0.175,0.244
		c-0.051,0.02-0.085,0.055-0.104,0.105c-0.093-0.036-0.095-0.162-0.175-0.211C22.315,11.117,22.4,11.119,22.41,11.048z"/>
	<path fill-rule="evenodd" clip-rule="evenodd" fill="#FFFFFF" d="M8.846,11.257c0.088,0.028,0.089,0.145,0.14,0.21
		c-0.042,0.134-0.128,0.222-0.175,0.35c-0.078-0.038-0.062-0.172-0.14-0.21C8.718,11.479,8.804,11.39,8.846,11.257z"/>
	<path fill-rule="evenodd" clip-rule="evenodd" fill="#FFFFFF" d="M12.201,11.467c0.138-0.021,0.09,0.144,0.175,0.175
		c-0.054,0.108-0.104,0.223-0.175,0.314C11.992,11.833,12.108,11.632,12.201,11.467z"/>
	<path fill-rule="evenodd" clip-rule="evenodd" fill="#FFFFFF" d="M18.04,11.467c0.186,0.07,0.184,0.247,0.07,0.384
		C17.893,11.821,17.927,11.58,18.04,11.467z"/>
	<path fill-rule="evenodd" clip-rule="evenodd" fill="#FFFFFF" d="M24.054,11.501c0.517,0.105,0.409,0.823,0.069,1.049
		C23.983,12.337,23.993,11.8,24.054,11.501z"/>
	<path fill-rule="evenodd" clip-rule="evenodd" fill="#FFFFFF" d="M8.985,13.32c0.117-0.535,0.009-1.297,0.35-1.607
		C9.867,12.076,9.275,13.011,8.985,13.32z"/>
	<path fill-rule="evenodd" clip-rule="evenodd" fill="#FFFFFF" d="M11.013,11.748c0.229,0.074,0.113,0.439-0.069,0.488
		C10.811,12.065,10.918,11.878,11.013,11.748z"/>
	<path fill-rule="evenodd" clip-rule="evenodd" fill="#FFFFFF" d="M19.684,11.851c0.116,0,0.092,0.141,0.175,0.176
		c-0.062,0.066-0.042,0.215-0.175,0.209c0-0.116-0.114-0.119-0.105-0.244C19.626,11.957,19.648,11.898,19.684,11.851z"/>
	<path fill-rule="evenodd" clip-rule="evenodd" d="M4.685,11.957c-0.068,0.153-0.315,0.127-0.489,0.175
		C4.182,11.919,4.536,11.89,4.685,11.957z"/>
	<path fill-rule="evenodd" clip-rule="evenodd" fill="#FFFFFF" d="M9.929,12.027c0.233,0.078,0.117,0.443-0.069,0.489
		C9.727,12.345,9.852,12.174,9.929,12.027z"/>
	<path fill-rule="evenodd" clip-rule="evenodd" d="M3.217,12.201c-0.034,0.104-0.365,0.172-0.42,0.035
		C2.821,12.054,3.126,12.146,3.217,12.201z"/>
	<path fill-rule="evenodd" clip-rule="evenodd" fill="#FFFFFF" d="M24.787,12.131c0.141,0,0.116,0.164,0.21,0.21
		c-0.01,0.071-0.095,0.068-0.104,0.14C24.784,12.418,24.656,12.23,24.787,12.131z"/>
	<path fill-rule="evenodd" clip-rule="evenodd" fill="#FFFFFF" d="M15.383,12.167c0.191,0.101,0.153,0.415-0.069,0.454
		C15.18,12.458,15.298,12.298,15.383,12.167z"/>
	<path fill-rule="evenodd" clip-rule="evenodd" fill="#FFFFFF" d="M21.886,12.167c0.088,0.028,0.11,0.122,0.175,0.175
		c0.002,0.106-0.074,0.136-0.104,0.209c-0.093-0.035-0.095-0.161-0.175-0.209C21.802,12.269,21.854,12.228,21.886,12.167z"/>
	<path fill-rule="evenodd" clip-rule="evenodd" fill="#FFFFFF" d="M6.538,12.201c0.237-0.029,0.263,0.375,0.14,0.49
		C6.481,12.691,6.465,12.357,6.538,12.201z"/>
	<path fill-rule="evenodd" clip-rule="evenodd" d="M4.37,12.341c0.019,0.145-0.188,0.178-0.279,0.105c0-0.035,0-0.07,0-0.105
		C4.159,12.272,4.29,12.319,4.37,12.341z"/>
	<path fill-rule="evenodd" clip-rule="evenodd" fill="#FFFFFF" d="M13.774,12.341c0.117,0,0.093,0.141,0.175,0.175
		c-0.055,0.108-0.104,0.223-0.175,0.314C13.558,12.699,13.695,12.519,13.774,12.341z"/>
	<path fill-rule="evenodd" clip-rule="evenodd" d="M3.217,12.55c-0.026,0.101-0.225,0.143-0.314,0.07
		C2.922,12.437,3.113,12.485,3.217,12.55z"/>
	<path fill-rule="evenodd" clip-rule="evenodd" fill="#FFFFFF" d="M7.167,12.481c0.262,0.374-0.356,0.694-0.664,0.839
		C6.51,12.962,7.146,12.939,7.167,12.481z"/>
	<path fill-rule="evenodd" clip-rule="evenodd" fill="#FFFFFF" d="M23.634,12.516c0.093,0.035,0.095,0.161,0.175,0.21
		c-0.045,0.06-0.072,0.137-0.175,0.14c0.009-0.126-0.104-0.128-0.104-0.245C23.579,12.601,23.614,12.566,23.634,12.516z"/>
	<path fill-rule="evenodd" clip-rule="evenodd" d="M3.427,12.691c0.028,0.229,0.134,0.379,0.209,0.559
		C3.58,13.31,3.49,13.337,3.356,13.32C3.231,13.15,3.327,12.841,3.427,12.691z"/>
	<path fill-rule="evenodd" clip-rule="evenodd" fill="#FFFFFF" d="M11.468,12.935c0.25,0.1,0.139,0.406-0.07,0.49
		C11.251,13.269,11.381,13.058,11.468,12.935z"/>
	<path fill-rule="evenodd" clip-rule="evenodd" fill="#FFFFFF" d="M6.923,13.215c0.034,0,0.069,0,0.104,0
		c0.343,1.567-1.117,1.632-1.713,2.378c0.008-0.146,0.249-0.198,0.14-0.35c-0.28-0.059-0.526,0.218-0.909,0.174
		c0.106-0.465,0.841-0.301,1.049-0.664c-0.209-0.033-0.474,0.179-0.699,0.244c-0.127-0.068,0.094-0.301,0.07-0.488
		c0.493-0.265,0.817-0.697,1.188-1.084c0.031,0.116-0.238,0.436-0.035,0.629c-0.036,0.324-0.355,0.366-0.454,0.629
		c0.472-0.088,0.933-0.488,1.259-0.838C6.967,13.605,6.844,13.377,6.923,13.215z"/>
	<path fill-rule="evenodd" clip-rule="evenodd" d="M3.951,13.669c-0.031,0.254-0.296,0.082-0.455,0.07
		C3.448,13.507,3.918,13.507,3.951,13.669z"/>
	<path fill-rule="evenodd" clip-rule="evenodd" fill="#FFFFFF" d="M8.53,13.634c0.261,0.105,0.056,0.383-0.034,0.525
		c-0.106-0.011-0.049-0.186-0.141-0.211C8.4,13.831,8.48,13.748,8.53,13.634z"/>
	<path fill-rule="evenodd" clip-rule="evenodd" d="M2.412,14.648c0.073,0.057,0.043,0.214,0.105,0.28
		c-0.18,0.108-0.371-0.07-0.524-0.104C2.032,14.644,2.197,14.558,2.412,14.648z"/>
	<path fill-rule="evenodd" clip-rule="evenodd" d="M5.034,1.643C4.869,4.159,4.633,6.603,4.58,9.229
		c1.892-0.05,2.636,1.047,2.587,2.937c-0.024,0.188,0.173,0.153,0.175,0.314c-0.104,0.466,0.083,0.636,0.28,0.874
		c-0.12,0.345-0.202,0.994-0.42,1.293c-0.228,0.314-0.683,0.541-1.014,0.77c-0.366,0.254-0.653,0.604-1.049,0.664
		c-0.25-0.021,0.069-0.233-0.035-0.314c-0.29,0.086-0.733,0.194-1.049,0.141c-0.169-0.053-0.112-0.33-0.42-0.245
		c-0.183-0.004,0.012,0.189-0.175,0.21c-0.191,0.017-0.155-0.194-0.244-0.279c-0.475-0.121-1.012-0.178-1.224-0.561
		c0.518,0.281,1.519,0.662,2.377,0.35c-0.075-0.297-0.412-0.334-0.489-0.629c-0.6-0.123-1.374-0.071-1.713-0.455
		c0.564,0.17,1.135,0.334,1.888,0.315c0.096-0.044,0.14-0.141,0.21-0.21c-0.258-0.304-1.022-0.117-1.538-0.314
		c-0.153-0.278-0.163-0.699-0.175-1.119c0.298,0.296,0.391,0.797,0.629,1.154c1.027,0.161,1.795-0.135,2.308-0.629
		C5.383,13.02,5.702,12.152,5,12.131c-0.008-1.046-1.62-0.758-2.308-0.56c0.053,0.393-0.154,0.713,0,1.154
		c-0.196,0.047-0.355-0.223-0.314-0.525c-0.195,0.5,0.078,1.068,0.034,1.645C1.691,12.294,2.195,9.991,3.636,9.58
		c0.116-2.494,0.339-5.092,0.49-7.657C4.434,1.835,4.709,1.713,5.034,1.643z M4.51,3.042c0.1-0.246,0.258-0.488,0-0.664
		C4.373,2.571,4.247,2.895,4.51,3.042z M3.951,8.705c0.04,0.124,0.076,0.25,0.175,0.315c0.056-0.154,0.128-0.292,0.175-0.455
		C4.212,8.515,4.232,8.354,4.126,8.321C4.07,8.452,4.023,8.592,3.951,8.705z M6.503,11.048c-0.134,0.559-0.543-0.081-0.629-0.315
		c-0.226-0.61-0.655-1.577-1.469-1.224c0.101-0.007,0.19-0.004,0.175,0.105c-0.282,0.336-0.491,0.744-0.839,1.014
		c0.869-0.08,2.009,0.121,2.308,0.699c-0.327,0.041-0.647-0.332-1.119-0.455c-0.953-0.248-2.479-0.037-2.692,0.734
		c0.137,0.04,0.074,0.461,0.141,0.455c-0.024-0.176,0.059-0.244,0.034-0.42C3.015,11.208,4.337,11.2,5,11.467
		c-0.042-0.065-0.284-0.109-0.21-0.175c0.677,0.115,1.097,0.675,1.049,1.398c0.005-0.087,0.007-0.17-0.07-0.175
		c-0.005,0.124-0.12,0.468,0.035,0.524c0.099,0.006-0.029-0.216,0.07-0.21c0.029,0.381-0.19,0.706-0.42,0.944
		c-0.199,0.207-0.57,0.271-0.664,0.559c0.665-0.139,1.154-0.756,1.293-1.537c0.1,0.084,0.085,0.626,0.141,0.523
		c-0.056-0.525-0.366-1.91,0.384-1.678c0.237,0.074,0.096,0.411,0.35,0.524c0.047-0.202,0.058-0.434,0.035-0.63
		c-0.085-0.764-0.562-1.678-1.118-1.748C5.948,10.169,6.623,10.548,6.503,11.048z M3.985,9.894C4.061,9.805,4.223,9.804,4.23,9.65
		C4.062,9.626,3.854,9.835,3.985,9.894z M3.286,9.929c0.106,0.085-0.007,0.246-0.104,0.244C3.162,10.123,3.223,9.993,3.146,10
		c-0.193,0.248-0.568,0.502-0.524,0.873c0.174-0.094,0.357-0.178,0.63-0.174c-0.03-0.157-0.19-0.184-0.21-0.35
		c0.209-0.152,0.579-0.33,0.524-0.63C3.49,9.806,3.342,9.822,3.286,9.929z M3.321,10.383c0.044,0.015,0.071,0.046,0.07,0.104
		c0.289-0.014,0.375-0.23,0.454-0.454C3.618,10.097,3.54,10.31,3.321,10.383z M6.678,12.691c0.123-0.115,0.098-0.52-0.14-0.49
		C6.465,12.357,6.481,12.691,6.678,12.691z M6.503,13.32c0.308-0.145,0.926-0.465,0.664-0.839C7.146,12.939,6.51,12.962,6.503,13.32
		z M6.923,13.845c-0.326,0.35-0.787,0.75-1.259,0.838c0.099-0.263,0.418-0.305,0.454-0.629c-0.203-0.193,0.066-0.513,0.035-0.629
		c-0.371,0.387-0.695,0.819-1.188,1.084c0.023,0.188-0.197,0.42-0.07,0.488c0.226-0.065,0.49-0.277,0.699-0.244
		c-0.208,0.363-0.942,0.199-1.049,0.664c0.383,0.044,0.629-0.232,0.909-0.174c0.109,0.151-0.132,0.203-0.14,0.35
		c0.596-0.746,2.056-0.811,1.713-2.378c-0.035,0-0.07,0-0.104,0C6.844,13.377,6.967,13.605,6.923,13.845z"/>
</g>
</svg>
