<?xml version="1.0" encoding="utf-8"?>
<!-- Generator: Adobe Illustrator 16.0.0, SVG Export Plug-In . SVG Version: 6.00 Build 0)  -->
<!DOCTYPE svg PUBLIC "-//W3C//DTD SVG 1.1//EN" "http://www.w3.org/Graphics/SVG/1.1/DTD/svg11.dtd">
<svg version="1.1" id="Livello_1" xmlns="http://www.w3.org/2000/svg" xmlns:xlink="http://www.w3.org/1999/xlink" x="0px" y="0px"
	 width="282.033px" height="354.771px" viewBox="0 0 282.033 354.771" enable-background="new 0 0 282.033 354.771"
	 xml:space="preserve">
<g opacity="0.4">
	<g>
		<rect fill="none" width="282.033" height="354.771"/>
		<polygon points="173.862,222.486 182.743,213.25 258.839,290.008 279.819,290.008 193.047,202.233 261.972,131.178 
			241.367,131.178 173.862,200.813 173.862,2.214 157.876,2.214 157.876,290.008 173.862,290.008 		"/>
		<path d="M276.375,350.718v-17.835c0-4.439-3.45-8.043-7.896-8.043c-4.444,0-7.994,3.125-7.994,8.043v17.835h-3.405v-28.236h3.405
			l-0.046,2.745c1.799-2.463,4.916-3.643,8.04-3.643c6.245,0,11.304,5.059,11.304,11.299v17.835H276.375z M247.29,350.718
			 M247.29,322.481h3.404v28.236h-3.404V322.481z M249.041,309.612c-1.133,0-2.079-0.895-2.079-2.08c0-1.13,0.946-2.072,2.079-2.072
			c1.185,0,2.082,0.942,2.082,2.072C251.123,308.718,250.225,309.612,249.041,309.612 M227.047,324.84
			c-5.34,0-9.832,3.604-11.207,8.519v-0.047h22.324l0.094,0.047C236.885,328.443,232.345,324.84,227.047,324.84 M215.467,336.766
			h-0.051c0.096,6.291,5.297,11.349,11.631,11.349c4.544,0,8.517-2.598,10.411-6.431l2.98,1.373
			c-2.414,4.959-7.524,8.365-13.392,8.365c-8.273,0-14.938-6.669-14.938-14.898c0-8.275,6.664-14.939,14.938-14.939
			c8.234,0,14.898,6.664,14.898,14.939v0.242H215.467z M203.309,350.765 M203.309,305.503h3.407v45.262h-3.407V305.503z
			 M180.231,325.129l17.877,25.636h-4.117l-16.125-23.083l-3.121,3.453v-0.044v19.674h-3.404v-45.262h3.404v20.57l18.917-20.525
			h4.637L180.231,325.129z M151.428,350.718v-17.835c0-4.439-3.452-8.043-7.898-8.043c-4.397,0-7.994,3.125-7.994,8.043v17.835h-3.4
			v-28.236h3.4v2.745c1.755-2.463,4.872-3.643,7.994-3.643c6.242,0,11.305,5.059,11.305,11.299v17.835H151.428z M122.627,350.718
			 M122.627,322.481h3.4v28.236h-3.4V322.481z M124.426,309.612c-1.185,0-2.082-0.895-2.082-2.08c0-1.13,0.897-2.072,2.082-2.072
			c1.133,0,2.082,0.942,2.082,2.072C126.508,308.718,125.559,309.612,124.426,309.612 M104.419,352.557l-13.906-30.075h3.833
			l10.074,22.038l10.028-22.038h3.783L104.419,352.557z M83.706,350.765 M83.706,305.503h3.4v45.262h-3.4V305.503z M62.138,324.894
			c-6.431,0-11.634,5.201-11.634,11.63c0,6.434,5.203,11.637,11.634,11.637c6.386,0,11.635-5.203,11.635-11.637
			C73.773,330.095,68.524,324.894,62.138,324.894 M73.963,350.718v-5.014v-0.097c-2.743,3.538-7,5.86-11.825,5.86
			c-8.275,0-14.944-6.66-14.944-14.944c0-8.226,6.669-14.895,14.944-14.895c4.825,0,9.129,2.271,11.87,5.863h-0.045v-4.968h3.407
			v28.193H73.963z M31.777,351.468c-12.674,0-22.938-10.452-22.938-23.074c0-12.675,10.264-23.129,22.938-23.129
			c5.53,0,10.549,1.939,14.521,5.156l-2.464,2.599c-3.31-2.645-7.471-4.205-12.056-4.205c-10.688,0-19.345,8.844-19.345,19.579
			c0,10.686,8.658,19.531,19.345,19.531c4.585,0,8.747-1.562,12.056-4.212l2.464,2.599
			C42.326,349.528,37.307,351.468,31.777,351.468"/>
		<path d="M80.978,277.029c-36.533,0-63.68-31.842-63.68-67.035c0-35.19,27.48-66.36,64.017-66.36
			c17.473,0,32.218,5.666,44.916,15.969l9.713-10.057v-0.886c-15.415-13.07-33.851-19.105-53.961-19.105
			c-45.582,0-79.77,35.528-79.77,80.439c0,45.249,33.515,81.112,79.432,81.112c20.755,0,40.506-7.691,56.248-21.403l-10.183-10.186
			C114.636,270.487,98.222,277.029,80.978,277.029"/>
	</g>
</g>
</svg>
