<?xml version="1.0" encoding="utf-8"?>
<!-- Generator: Adobe Illustrator 16.0.0, SVG Export Plug-In . SVG Version: 6.00 Build 0)  -->
<!DOCTYPE svg PUBLIC "-//W3C//DTD SVG 1.1//EN" "http://www.w3.org/Graphics/SVG/1.1/DTD/svg11.dtd">
<svg version="1.1" id="Layer_1" xmlns="http://www.w3.org/2000/svg" xmlns:xlink="http://www.w3.org/1999/xlink" x="0px" y="0px"
	 width="175.958px" height="30.526px" viewBox="0 0 175.958 30.526" enable-background="new 0 0 175.958 30.526"
	 xml:space="preserve">
<g>
	<path fill="none" stroke="#1D1D1B" stroke-width="0.4203" stroke-miterlimit="2.6131" d="M172.109,7.53
		c2.009,0,3.639-1.639,3.639-3.66c0-2.021-1.63-3.66-3.639-3.66c-2.01,0-3.64,1.639-3.64,3.66C168.47,5.891,170.1,7.53,172.109,7.53
		L172.109,7.53z"/>
	<path fill-rule="evenodd" clip-rule="evenodd" fill="#1D1D1B" d="M170.964,2.062h1.408c0.33,0,0.571,0.068,0.725,0.205
		c0.152,0.136,0.229,0.31,0.229,0.521c0,0.145-0.039,0.279-0.118,0.402c-0.079,0.123-0.194,0.212-0.347,0.269
		c-0.151,0.056-0.361,0.084-0.631,0.084h-1.266V2.062L170.964,2.062L170.964,2.062z M170.964,6.042V4.055h0.684
		c0.151,0,0.261,0.007,0.327,0.022c0.092,0.021,0.181,0.061,0.269,0.119c0.089,0.056,0.188,0.156,0.299,0.299
		c0.112,0.142,0.253,0.348,0.425,0.617l0.59,0.931h0.739l-0.772-1.217c-0.154-0.238-0.317-0.438-0.489-0.595
		c-0.081-0.073-0.2-0.147-0.355-0.223c0.428-0.06,0.743-0.198,0.947-0.416s0.307-0.485,0.307-0.803c0-0.246-0.062-0.47-0.186-0.674
		c-0.123-0.204-0.288-0.346-0.494-0.426c-0.207-0.081-0.509-0.121-0.905-0.121h-1.972v4.475H170.964L170.964,6.042z"/>
	<path fill-rule="evenodd" clip-rule="evenodd" fill="#1D1D1B" d="M17.799,30.511H6.563C6.563,30.654,0,29.935,0,20.701
		c0-9.234,6.547-8.948,6.547-8.948l11.189-0.059c0,0,1.34,0.079,1.34,1.89c0,2.076-1.345,2.072-1.345,2.072h-10.3
		c0,0-3.1-0.178-3.061,4.551c0.024,2.914,0,1.488,0,1.488s0.37,4.6,3.318,4.801h10.112c0,0,1.277,0.043,1.277,2.045
		C19.076,30.509,17.799,30.511,17.799,30.511L17.799,30.511z"/>
	<path fill-rule="evenodd" clip-rule="evenodd" fill="#1D1D1B" d="M25.078,15.615h14.355c1.045,0.023,0.797,0.947,0.797,0.947
		s0,6.83,0,8.691c0,1.305-1.612,1.279-1.612,1.279s-7.475,0-10.644,0c-2.354,0-2.384-2.182-2.384-2.182
		c0-2.387,2.384-2.186,2.384-2.186h9.854c0,0,1.212-0.002,1.212-1.922c0-2.031-1.212-2.07-1.212-2.07s-7.854-0.018-11.982,0.006
		c-5.54,0.031-5.543,6.092-5.543,6.092c0,6.154,5.494,6.254,5.494,6.254s14.504-0.018,16.995-0.018c2.389,0,2.242-2.363,2.242-2.363
		s0-9.59,0-13.098s-3.025-3.293-3.025-3.293L25.04,11.746c0,0-1.477,0.043-1.49,1.94C23.537,15.666,25.078,15.615,25.078,15.615
		L25.078,15.615z"/>
	<path fill-rule="evenodd" clip-rule="evenodd" fill="#1D1D1B" d="M48.442,13.304c0,0,0.143-1.621,2.348-1.621
		c2.207,0,2.349,1.549,2.349,1.549v15.343c0,0-0.009,1.861-2.282,1.861c-2.371,0-2.415-1.861-2.415-1.861V13.304L48.442,13.304z"/>
	<path fill-rule="evenodd" clip-rule="evenodd" fill="#1D1D1B" d="M54.239,12.698c-0.004-0.125,0.085-0.156,0.085-0.156
		s2.016-0.86,5.361-0.86s7.331,1.074,7.401,6.228c0,0-0.125,2.686-0.86,3.648c0,0-0.044,0.117-0.124,0.104
		c-0.321-0.047-2.766-0.816-3.719-1.283c-0.113-0.055-0.065-0.141-0.065-0.18c0,0,0.997-2.361-0.355-4.08
		c-1.297-1.646-5.906-1.268-6.859-0.721c0,0-0.11,0.049-0.167-0.086C54.818,15.017,54.251,13.073,54.239,12.698L54.239,12.698z"/>
	<path fill-rule="evenodd" clip-rule="evenodd" fill="#1D1D1B" d="M70.121,9.104c0,0,0.023-1.597,2.428-1.594
		c2.313,0.003,2.371,1.594,2.371,1.594v19.722c0,0-0.035,1.682-2.367,1.682c-2.402,0-2.432-1.645-2.432-1.645V9.104L70.121,9.104z"
		/>
	<path fill-rule="evenodd" clip-rule="evenodd" fill="#1D1D1B" d="M75.692,13.018c0,0-0.026-0.062,0.301-0.265
		c0,0,1.031-0.78,5.553-0.966c4.593,0.004,9.035,1.552,9.035,8.747c0,0-0.339,5.283-2.033,9.297c0,0-0.112,0.566-0.79,0.566
		c-0.675,0-3.84,0-3.84,0s-0.941,0.189-0.565-0.643c0.377-0.834,2.485-5.814,2.485-8.617c0-2.699-0.753-5.791-6.099-5.791
		c0,0-1.811-0.004-3.087,0.643c0,0-0.564,0.303-0.678-0.189C75.862,15.309,75.58,13.7,75.692,13.018L75.692,13.018z"/>
	<path fill-rule="evenodd" clip-rule="evenodd" fill="#1D1D1B" d="M144.809,9.336c0,0,0.009-1.812,2.089-1.826
		c2.035-0.014,2.107,1.826,2.107,1.826v2.411h5.421c0,0,1.236,0.026,1.236,1.943c0,1.888-1.198,1.925-1.198,1.925h-5.459v12.99
		c0,0-0.072,1.91-2.107,1.912c-2.08,0-2.108-1.912-2.108-1.912V15.632h-2.339c0,0-1.181-0.021-1.181-1.943
		c0-1.917,1.147-1.987,1.147-1.987l2.392,0.044V9.336L144.809,9.336z"/>
	<path fill-rule="evenodd" clip-rule="evenodd" fill="#1D1D1B" d="M162.125,9.336c0,0,0.009-1.812,2.089-1.826
		c2.036-0.014,2.108,1.826,2.108,1.826v2.386h5.95c0,0,1.628-0.031,1.628,1.944c0,1.912-1.59,1.951-1.59,1.951h-5.988v12.988
		c0,0-0.072,1.91-2.108,1.912c-2.08,0-2.107-1.912-2.107-1.912V15.636h-2.34c0,0-1.181-0.025-1.181-1.986
		c0-1.894,1.148-1.948,1.148-1.948l2.391,0.044V9.336L162.125,9.336z"/>
	<path fill-rule="evenodd" clip-rule="evenodd" fill="#1D1D1B" d="M120.376,13.304c0,0,0.143-1.621,2.348-1.621
		c2.206,0,2.349,1.549,2.349,1.549v15.343c0,0-0.009,1.861-2.281,1.861c-2.371,0-2.415-1.861-2.415-1.861V13.304L120.376,13.304z"/>
	<path fill-rule="evenodd" clip-rule="evenodd" fill="#1D1D1B" d="M126.172,12.698c-0.004-0.125,0.086-0.156,0.086-0.156
		s2.016-0.86,5.361-0.86c3.345,0,7.33,1.074,7.401,6.228c0,0-0.126,2.686-0.86,3.648c0,0-0.044,0.117-0.124,0.104
		c-0.322-0.047-2.766-0.816-3.719-1.283c-0.114-0.055-0.064-0.141-0.065-0.18c0,0,0.997-2.361-0.355-4.08
		c-1.297-1.646-5.906-1.268-6.859-0.721c0,0-0.109,0.049-0.167-0.086C126.752,15.017,126.185,13.073,126.172,12.698L126.172,12.698z
		"/>
	<path fill-rule="evenodd" clip-rule="evenodd" fill="#1D1D1B" d="M96.974,15.615h14.354c1.045,0.023,0.797,0.947,0.797,0.947
		s0,6.83,0,8.691c0,1.305-1.611,1.279-1.611,1.279s-7.475,0-10.644,0c-2.354,0-2.384-2.182-2.384-2.182
		c0-2.387,2.384-2.186,2.384-2.186h9.854c0,0,1.211-0.002,1.211-1.922c0-2.031-1.211-2.07-1.211-2.07s-7.855-0.018-11.983,0.006
		c-5.54,0.031-5.543,6.092-5.543,6.092c0,6.078,5.499,6.242,5.499,6.242s14.499-0.006,16.99-0.006c2.388,0,2.242-2.363,2.242-2.363
		s0-9.59,0-13.098s-3.025-3.293-3.025-3.293l-16.969-0.007c0,0-1.478,0.043-1.49,1.94C95.432,15.666,96.974,15.615,96.974,15.615
		L96.974,15.615z"/>
</g>
</svg>
