<?xml version="1.0" encoding="utf-8"?>
<!-- Generator: Adobe Illustrator 16.0.0, SVG Export Plug-In . SVG Version: 6.00 Build 0)  -->
<!DOCTYPE svg PUBLIC "-//W3C//DTD SVG 1.1//EN" "http://www.w3.org/Graphics/SVG/1.1/DTD/svg11.dtd">
<svg version="1.1" id="Layer_1" xmlns="http://www.w3.org/2000/svg" xmlns:xlink="http://www.w3.org/1999/xlink" x="0px" y="0px"
	 width="41.462px" height="30.424px" viewBox="0 0 41.462 30.424" enable-background="new 0 0 41.462 30.424" xml:space="preserve">
<path fill-rule="evenodd" clip-rule="evenodd" d="M20.73,28.447c-2.145,1.24-4.709,1.977-7.443,1.977
	c-5.592,0-10.49-3.049-13.141-7.568c0-0.021-0.021-0.021-0.021-0.043s-0.021-0.021-0.021-0.043l2.145-1.113l2.145-1.094
	c0.021,0.021,0.042,0.043,0.062,0.084c1.83,2.965,5.109,4.941,8.83,4.941c1.199,0,2.355-0.211,3.386-0.547
	c-2.292-2.629-3.679-6.076-3.679-9.84c0-3.742,1.366-7.189,3.637-9.84c-1.03-0.357-2.166-0.547-3.344-0.547
	c-3.679,0-7.084,1.977-8.955,5.152c-0.021,0.021-0.021,0.041-0.021,0.062L0,7.801c0.021-0.043,0.043-0.084,0.063-0.105
	C2.691,3.092,7.653,0,13.287,0c2.734,0,5.299,0.736,7.443,1.998C22.875,0.736,25.44,0,28.174,0c5.635,0,10.597,3.092,13.225,7.695
	c0.021,0.021,0.042,0.062,0.063,0.105l-4.311,2.229c0-0.021,0-0.041-0.021-0.062c-1.871-3.176-5.277-5.152-8.956-5.152
	c-1.178,0-2.312,0.189-3.344,0.547c2.271,2.65,3.638,6.098,3.638,9.84c0,3.764-1.388,7.211-3.679,9.84
	c1.029,0.336,2.186,0.547,3.385,0.547c3.721,0,7.001-1.977,8.83-4.941c0.021-0.041,0.042-0.062,0.063-0.084l2.145,1.094l2.145,1.113
	c0,0.021-0.021,0.021-0.021,0.043s-0.021,0.021-0.021,0.043c-2.649,4.52-7.548,7.568-13.141,7.568
	C25.44,30.424,22.875,29.688,20.73,28.447L20.73,28.447z M20.73,22.412c-1.766-1.871-2.9-4.414-2.9-7.211
	c0-2.754,1.072-5.256,2.9-7.127c1.83,1.871,2.902,4.373,2.902,7.127C23.633,17.998,22.497,20.541,20.73,22.412L20.73,22.412z"/>
</svg>
