<?xml version="1.0" encoding="utf-8"?>
<!-- Generator: Adobe Illustrator 16.0.0, SVG Export Plug-In . SVG Version: 6.00 Build 0)  -->
<!DOCTYPE svg PUBLIC "-//W3C//DTD SVG 1.1//EN" "http://www.w3.org/Graphics/SVG/1.1/DTD/svg11.dtd">
<svg version="1.1" id="Layer_1" xmlns="http://www.w3.org/2000/svg" xmlns:xlink="http://www.w3.org/1999/xlink" x="0px" y="0px"
	 width="123.879px" height="123.899px" viewBox="0 0 123.879 123.899" enable-background="new 0 0 123.879 123.899"
	 xml:space="preserve">
<g>
	<polygon fill-rule="evenodd" clip-rule="evenodd" fill="#FFFFFF" points="102.837,108.513 99.259,107.747 99.287,111.405 
		95.775,110.376 95.532,114.027 92.106,112.742 91.594,116.364 88.273,114.829 87.495,118.404 84.296,116.628 83.256,120.136 
		80.197,118.128 78.9,121.549 75.998,119.322 74.453,122.638 71.723,120.202 69.937,123.394 67.394,120.763 65.377,123.816 
		63.036,121.004 60.799,123.899 58.672,120.922 56.227,123.645 54.325,120.518 51.686,123.052 50.021,119.794 47.201,122.127 
		45.781,118.754 42.798,120.873 41.63,117.405 38.498,119.296 37.59,115.752 34.327,117.408 33.684,113.806 30.307,115.214 
		29.931,111.576 26.46,112.732 26.354,109.075 22.807,109.97 22.971,106.317 19.367,106.948 19.801,103.316 16.16,103.68 
		16.861,100.089 13.203,100.184 14.167,96.654 10.513,96.479 11.735,93.03 8.103,92.584 9.577,89.235 5.988,88.523 7.705,85.292 
		4.178,84.317 6.129,81.221 2.684,79.989 4.858,77.045 1.513,75.562 3.899,72.788 0.673,71.06 3.257,68.469 0.168,66.509 
		2.936,64.117 0,61.934 2.937,59.752 0.171,57.357 3.261,55.399 0.679,52.807 3.905,51.081 1.521,48.305 4.867,46.823 2.694,43.879 
		6.139,42.648 4.19,39.552 7.717,38.579 6.002,35.346 9.591,34.636 8.12,31.287 11.751,30.843 10.532,27.394 14.186,27.22 
		13.224,23.69 16.881,23.787 16.183,20.195 19.823,20.562 19.392,16.929 22.994,17.562 22.832,13.908 26.379,14.806 26.487,11.149 
		29.958,12.308 30.336,8.668 33.712,10.08 34.358,6.478 37.619,8.135 38.529,4.591 41.66,6.484 42.829,3.018 45.812,5.137 
		47.234,1.766 50.052,4.099 51.72,0.842 54.357,3.378 56.261,0.253 58.703,2.976 60.832,0 63.068,2.896 65.41,0.086 67.426,3.14 
		69.97,0.509 71.755,3.704 74.485,1.27 76.028,4.586 78.933,2.36 80.227,5.782 83.287,3.776 84.326,7.284 87.525,5.51 88.302,9.085 
		91.623,7.552 92.134,11.175 95.561,9.891 95.801,13.542 99.313,12.515 99.285,16.173 102.862,15.409 102.562,19.055 
		106.188,18.556 105.62,22.17 109.272,21.941 108.438,25.504 112.098,25.545 111.003,29.035 114.648,29.346 113.301,32.748 
		116.913,33.327 115.316,36.619 118.877,37.462 117.042,40.628 120.529,41.734 118.466,44.754 121.862,46.115 119.581,48.975 
		122.868,50.582 120.383,53.265 123.542,55.111 120.864,57.604 123.879,59.677 121.024,61.965 123.877,64.256 120.862,66.328 
		123.538,68.823 120.378,70.667 122.863,73.351 119.575,74.957 121.854,77.818 118.456,79.176 120.519,82.199 117.031,83.3 
		118.863,86.468 115.303,87.31 116.897,90.603 113.284,91.18 114.631,94.583 110.986,94.891 112.077,98.383 108.419,98.421 
		109.25,101.984 105.599,101.752 106.164,105.369 102.539,104.867 102.837,108.513 	"/>
	<path fill-rule="evenodd" clip-rule="evenodd" fill="#2E3191" d="M5.003,61.942c0-31.446,25.503-56.949,56.949-56.949
		c31.462,0,56.966,25.503,56.966,56.949c0,31.463-25.504,56.966-56.966,56.966C30.506,118.908,5.003,93.405,5.003,61.942
		L5.003,61.942L5.003,61.942z M7.727,61.924c0-29.955,24.269-54.243,54.243-54.243c29.955,0,54.242,24.288,54.242,54.243
		c0,29.956-24.287,54.243-54.242,54.243C31.996,116.167,7.727,91.88,7.727,61.924L7.727,61.924z"/>
	
		<path fill="none" stroke="#2E3191" stroke-width="1.2736" stroke-linejoin="round" stroke-miterlimit="2.6131" stroke-dasharray="1.7054,1.7054" d="
		M10.216,61.942c0-28.567,23.169-51.736,51.737-51.736c28.583,0,51.751,23.169,51.751,51.736c0,28.583-23.168,51.751-51.751,51.751
		C33.385,113.693,10.216,90.525,10.216,61.942L10.216,61.942L10.216,61.942z M12.69,61.927c0-27.214,22.048-49.278,49.278-49.278
		c27.214,0,49.277,22.063,49.277,49.278c0,27.214-22.063,49.278-49.277,49.278C34.739,111.206,12.69,89.141,12.69,61.927
		L12.69,61.927L12.69,61.927z"/>
	<polygon fill-rule="evenodd" clip-rule="evenodd" fill="#2E3191" points="62.142,30.641 69.112,52.084 91.653,52.084 
		73.411,65.342 80.382,86.785 62.142,73.528 43.9,86.785 50.871,65.342 32.614,52.084 55.171,52.084 62.142,30.641 	"/>
	<path fill-rule="evenodd" clip-rule="evenodd" fill="#2E3191" d="M62.176,76.611c0.463,0,0.891,0.12,1.318,0.343
		c0.429,0.239,0.771,0.565,1.011,0.992c0.24,0.429,0.359,0.892,0.359,1.354c0,0.479-0.119,0.925-0.359,1.353
		c-0.239,0.412-0.564,0.754-0.993,0.993c-0.429,0.24-0.873,0.36-1.336,0.36c-0.48,0-0.925-0.12-1.354-0.36
		c-0.427-0.239-0.753-0.581-0.992-0.993C59.59,80.225,59.47,79.78,59.47,79.3c0-0.463,0.12-0.926,0.359-1.354
		c0.257-0.427,0.581-0.753,1.01-0.992C61.268,76.731,61.713,76.611,62.176,76.611L62.176,76.611L62.176,76.611z M62.176,77.142
		c-0.378,0-0.736,0.085-1.062,0.274c-0.342,0.188-0.616,0.445-0.822,0.788c-0.187,0.358-0.29,0.719-0.29,1.096
		s0.104,0.736,0.29,1.079c0.189,0.342,0.463,0.616,0.806,0.805c0.343,0.189,0.701,0.291,1.079,0.291
		c0.377,0,0.736-0.102,1.078-0.291c0.343-0.188,0.601-0.463,0.806-0.805c0.188-0.343,0.274-0.702,0.274-1.079
		s-0.086-0.737-0.291-1.096c-0.188-0.343-0.463-0.6-0.805-0.788C62.895,77.227,62.535,77.142,62.176,77.142L62.176,77.142
		L62.176,77.142z M60.942,80.739v-2.859h0.583c0.548,0,0.855,0,0.923,0.017c0.19,0.017,0.344,0.05,0.446,0.119
		c0.103,0.052,0.188,0.138,0.274,0.274c0.069,0.12,0.103,0.257,0.103,0.394c0,0.206-0.068,0.394-0.205,0.531
		c-0.137,0.154-0.326,0.24-0.565,0.274c0.086,0.034,0.155,0.068,0.206,0.12c0.033,0.033,0.103,0.103,0.188,0.204
		c0.018,0.035,0.086,0.155,0.206,0.36l0.343,0.565h-0.72l-0.24-0.462c-0.153-0.309-0.291-0.497-0.393-0.583
		c-0.121-0.085-0.241-0.12-0.412-0.12h-0.153v1.165H60.942L60.942,80.739L60.942,80.739z M61.525,79.112h0.239
		c0.343,0,0.548,0,0.634-0.035c0.067-0.017,0.137-0.067,0.188-0.137c0.052-0.051,0.069-0.137,0.069-0.222
		c0-0.068-0.018-0.138-0.069-0.206s-0.121-0.103-0.188-0.138c-0.086-0.016-0.308-0.033-0.634-0.033h-0.239V79.112L61.525,79.112z"/>
	<path fill-rule="evenodd" clip-rule="evenodd" fill="#2E3191" d="M102.306,67.396c-0.6-0.719-1.439,0.189-1.439,0.189
		c-0.324,0.205-0.702-0.034-0.702-0.034c-0.051-0.36-0.599-0.565-0.599-0.565c-2.741-1.166-4.66,3.168-4.66,3.168
		c-0.854,1.404-1.694,0.993-1.694,0.993c-0.497-0.428,1.233-2.09,1.233-2.09c1.062-0.633,2.997-3.904,2.997-3.904
		c0.994-1.765-0.171-1.987-0.171-1.987c-0.908-0.496-3.632,4.094-3.632,4.094l-0.53,0.069c-0.993-0.104-1.97,2.021-1.97,2.021
		c-0.634,1.062-1.268,1.147-1.268,1.147c-0.548-0.137,0.874-1.799,0.874-1.799c0.736-0.564-0.104-0.977-0.104-0.977
		c-0.702-0.308-2.278,2.604-2.278,2.604c-0.599,1.096-0.821,0.771-0.821,0.771c-1.012-0.104-0.172-1.404-0.172-1.404
		c1.045-2.106-0.034-2.741-0.034-2.741c-2.226-0.615-3.801,2.278-3.801,2.278c-0.258,0.359-0.721,0.154-0.721,0.154
		c0.634-0.565,1.935-5.053,1.935-5.053c0.532,0,2.057-0.805,2.057-0.805c1.438-0.6,0.771-1.696,0.771-1.696
		c-0.908-0.684-3.631,1.456-3.631,1.456c-0.737,0.635-2.673,0.274-2.673,0.274c-0.65-0.172-1.268,0-1.268,0
		c-0.565,0.325-0.034,0.771-0.034,0.771c0.925,0.445,3.409,0.172,3.409,0.172c0.36-0.069,0.326,0.085,0.326,0.085
		c0.204,1.114-1.971,4.573-1.971,4.573c-0.565,0.892-0.926,0.668-0.926,0.668c-0.839-0.068-1.062-0.874-1.062-0.874
		c0.068-0.907-0.702-1.164-0.702-1.164c-1.422-0.139-1.404,2.432-1.404,2.432c0.103,2.775,2.141,2.759,2.141,2.759l0.326-0.121
		c0.993-0.171,1.404-1.336,1.404-1.336c0.137-0.41,0.6-0.703,0.6-0.703c0.821-0.324,0.873,0.275,0.873,0.275
		c0.498,1.729,2.449,0.291,2.449,0.291c0.412-0.24,0.703-0.068,0.703-0.068c0.239,1.232,1.301,0.873,1.301,0.873
		c0.943-0.29,0.635,0.429,0.635,0.429c-0.188,0.274-0.343,0.53-0.463,0.771c-1.08,2.005-0.034,2.501-0.034,2.501
		c1.729,1.301,3.202-2.501,3.202-2.501c0.497-1.199,1.132-1.524,1.132-1.524c0.957,1.593,2.893-0.188,2.893-0.188
		c1.303,0.942,2.827-0.754,2.827-0.754c0.171-0.205,0.377-0.171,0.377-0.171l0.137,1.113c0.241,0.891,0.96-0.309,0.96-0.309
		c0.068-0.343,1.232-2.397,1.232-2.397c0.514-0.617,1.233-0.634,1.233-0.634c0.395,0.839,0.667,0.36,0.667,0.36
		C103.333,68.493,102.306,67.396,102.306,67.396L102.306,67.396L102.306,67.396z M95.763,65.153c0,0,1.011-1.559,1.148-0.822
		c0,0-0.497,2.347-2.142,3.494c0,0-0.359,0.188-0.359,0C94.41,67.652,94.854,66.3,95.763,65.153L95.763,65.153L95.763,65.153z
		 M80.245,71.558l-0.206,0.069c0,0-1.267,0.239-1.232-0.908c0,0-0.258-1.097,0.479-0.428c0,0,0.53,0.529,0.924,0.529
		C80.21,70.821,80.64,71.215,80.245,71.558L80.245,71.558L80.245,71.558z M86.549,68.733c0,0-1.336,2.021-1.868,2.055
		c-0.514,0.033-0.94,0.326-0.273-1.131c0,0,1.062-1.884,2.09-1.763C86.497,67.894,87.113,67.927,86.549,68.733L86.549,68.733
		L86.549,68.733z M88.604,75.018c0,0-0.24,0.138-0.273,0c-0.034-0.137-0.48-0.292,0.154-1.13c0,0,0.273-0.292,0.53-0.497
		c0.291-0.24,0.582-0.394,0.582-0.068c0,0.017,0,0.051-0.017,0.068C89.563,73.991,89.236,74.641,88.604,75.018L88.604,75.018
		L88.604,75.018z M96.944,70.326c0,0-0.444,0.531-0.6,0.531c-0.137,0-0.907,0.033-0.068-1.474c0,0,1.354-1.815,1.592-1.062
		C97.868,68.322,97.801,69.366,96.944,70.326L96.944,70.326z"/>
	<path fill-rule="evenodd" clip-rule="evenodd" fill="#2E3191" d="M44.209,67.807c0,0,1.354-1.062,1.541-2.568
		c0,0,0.634-1.799-0.805-1.696c0,0-1.388,0.085-3.734,4.796c-0.102,0.205-0.222,0.428-0.325,0.668c0,0-0.428,0.908-0.736,0.24
		c0,0-0.153-1.028-2.312-0.103c0,0-0.581,0.444-1.147,1.096c-0.325,0.394-0.667,0.874-0.856,1.37c0,0-0.736,1.422-0.891,0
		c0,0-0.069-0.582,0.446-1.318c0,0,0-0.018,0.017-0.052c0.085-0.239,0.394-1.198-0.308-1.183c0,0-0.547,0.069-1.096,1.183
		c-0.069,0.154-0.137,0.325-0.206,0.514c0,0-0.907,1.747-1.421,1.508c0,0-0.531-0.274,0.274-1.456c0,0,0.223-0.257,0.411-0.565
		c0.292-0.445,0.549-1.027,0.085-1.148c0,0-0.41-0.291-1.404,1.114l-0.034,0.034l-0.891,1.336c0,0-0.736,0.788-0.617-0.034
		c0,0,0.103-0.377,0.703-1.285c0,0,0,0,0.016-0.017c0.103-0.154,0.789-1.079,0.189-1.336c0,0-0.325-0.257-0.223-0.565
		c0.034-0.12,0.12-0.239,0.325-0.343c0,0,3.117-2.106,3.528-4.676c0,0,0.171-1.421-1.284-1.301c0,0-1.884,0.513-2.912,2.688
		c0,0-0.274,0.737-0.411,0.548l-0.051-0.119c0,0-0.257-2.158-2.158-2.056c0,0-3.066-0.24-6.08,5.258
		c-0.069,0.137-0.138,0.274-0.206,0.411c0,0-0.24,0.65-0.394,1.49c-0.24,1.405-0.257,3.356,1.473,3.699c0,0,1.713,0.104,3.717-1.131
		l0.393-0.358c0,0-0.428,1.403,0.462,1.403c0,0,0.583-0.137,0.685-0.941c0,0,0.514-1.32,0.651-0.771c0,0-0.068,1.422,0.942,1.422
		c0,0,0.565,0.102,0.874-0.257c0,0,0.531-0.686,0.925,0.051c0,0,0.839,0.411,1.679-0.103c0,0,0.839-1.062,1.199-0.343
		c0,0,0.411,1.113,1.645,0.496l0.308-0.291c0,0,0.993,0.908,2.997,0.138c0,0,0.445-0.121,0.445,0.257c0,0,0.65,0.257,0.925-0.309
		l0.634-0.96c0,0,0,1.696,1.85,1.56c0,0,1.747-0.463,2.312-1.713c0,0,0.788-1.541-0.616-1.438c0,0,0.051-0.172,0.051-0.411
		c0-0.463-0.154-1.165-1.182-1.183c0,0-0.103-0.308,0.137-0.719C43.849,68.184,43.986,67.996,44.209,67.807L44.209,67.807
		L44.209,67.807z M30.986,65.889c0,0,1.61-2.843,2.21-2.415c0,0,0.427,0.326-0.428,1.473c0,0-1.079,1.576-1.662,1.782l-0.171,0.085
		C30.935,66.814,30.456,66.746,30.986,65.889L30.986,65.889L30.986,65.889z M27.75,68.937c0,0-0.292,0.601-0.822,1.303
		c-0.685,0.925-1.815,2.055-3.271,2.261h-0.377c0,0-1.166-0.394-0.754-2.261c0.103-0.445,0.292-0.977,0.617-1.609
		c0,0,0.052-0.104,0.171-0.292c0.737-1.131,3.46-5.104,5.293-3.871c0,0,0.633,0.565,0.051,1.524c0,0-0.326,0.359-0.326-0.257
		c0,0,0.103-0.821-0.616-0.633c0,0-0.925,0.357-1.011,2.209c0,0,0.034,1.079,0.891,0.924c0,0,0.343-0.051,0.428,0.104
		C28.075,68.441,28.023,68.613,27.75,68.937L27.75,68.937L27.75,68.937z M39.567,71.798c0,0-0.445,0.188-0.668,0.36
		c0,0-0.788,0.462-1.062,0.375L37.632,72.5c0,0-1.336-0.206-0.376-1.628c0,0,0.239-0.324,0.581-0.633
		c0.411-0.36,0.977-0.719,1.456-0.479c0,0,0.359,0.137,0.257,0.479c0,0.052-0.017,0.086-0.052,0.137c0,0-0.427,0.583,0.189,0.737
		C39.688,71.114,40.218,71.524,39.567,71.798L39.567,71.798L39.567,71.798z M42.565,70.256c0,0,0,0,0.016-0.017
		c0.104-0.086,0.498-0.395,0.737,0c0.017,0.017,0.017,0.017,0.017,0.017s0.36,0.309-0.239,0.583c0,0-0.206,0.24-0.36,0.188
		C42.599,70.959,41.931,70.821,42.565,70.256L42.565,70.256L42.565,70.256z M43.849,71.987l-0.051,0.172
		c0,0-0.856,0.496-0.891,0.103c0,0-0.239-0.24,0.239-0.377C43.146,71.884,43.884,71.558,43.849,71.987L43.849,71.987L43.849,71.987z
		 M42.685,67.071c0,0,1.456-2.979,2.277-2.518c0,0,0.138,0.496-0.205,1.097c0,0-1.199,2.432-2.004,2.654l-0.137-0.035
		C42.616,68.269,42.051,68.304,42.685,67.071L42.685,67.071z"/>
	<path fill="#EC1C24" d="M34.226,43.719c-0.019,0.521-0.287,1.483-0.887,2.55c-1.391,2.473-3.992,3.441-6.88,1.816
		c-2.758-1.552-3.56-4.451-2.029-7.171c0.607-1.08,1.236-1.65,1.561-1.862l0.763,0.806c-0.442,0.3-0.942,0.823-1.353,1.553
		c-1.156,2.056-0.611,4.16,1.692,5.456c2.16,1.216,4.221,0.749,5.415-1.373c0.395-0.703,0.647-1.485,0.683-2.065L34.226,43.719
		L34.226,43.719z"/>
	<path fill="#EC1C24" d="M39.504,38.245c-2.011,1.759-4.761,1.427-6.766-0.865c-2.103-2.406-1.995-5.276,0.028-7.045
		c2.08-1.818,4.802-1.402,6.768,0.845c2.271,2.596,1.904,5.375-0.019,7.056L39.504,38.245L39.504,38.245z M38.852,37.407
		c1.551-1.355,1.18-3.549-0.324-5.269c-1.317-1.505-3.479-2.391-5.108-0.966c-1.63,1.425-1.112,3.649,0.322,5.29
		c1.396,1.596,3.56,2.303,5.099,0.955L38.852,37.407L38.852,37.407z"/>
	<path fill="#EC1C24" d="M45.543,33.156l-3.674-9.367l1.335-0.523l4.847,3.567c1.111,0.83,2.049,1.584,2.86,2.389l0.037-0.03
		c-0.602-1.208-1.077-2.336-1.644-3.782l-1.543-3.933l1.141-0.447l3.674,9.367l-1.224,0.48l-4.838-3.586
		c-1.062-0.786-2.107-1.61-2.964-2.445l-0.036,0.03c0.532,1.153,0.987,2.274,1.599,3.831l1.57,4.002L45.543,33.156L45.543,33.156z"
		/>
	<path fill="#EC1C24" d="M58.088,29.332l-3.9-9.845l1.416-0.085l1.863,4.853c0.5,1.331,0.947,2.545,1.3,3.69l0.03-0.001
		c0.213-1.18,0.539-2.47,0.921-3.81l1.399-5.065l1.386-0.083l-2.984,10.261L58.088,29.332L58.088,29.332z"/>
	<polygon fill="#EC1C24" points="71.625,25.674 67.826,24.81 67.021,28.347 71.272,29.314 71.03,30.376 65.499,29.119 
		67.729,19.308 73.043,20.516 72.802,21.578 68.769,20.661 68.064,23.762 71.863,24.626 71.625,25.674 	"/>
	<path fill="#EC1C24" d="M79.312,22.684c0.638,0.208,1.512,0.603,2.277,1.038c1.207,0.687,1.865,1.371,2.13,2.174
		c0.214,0.62,0.134,1.364-0.256,2.052c-0.651,1.143-1.826,1.487-2.911,1.281l-0.022,0.039c0.528,0.61,0.576,1.461,0.28,2.496
		c-0.408,1.382-0.681,2.343-0.704,2.777l-1.168-0.664c-0.002-0.328,0.231-1.192,0.618-2.415c0.427-1.354,0.205-2.081-0.798-2.703
		l-1.063-0.605l-2.156,3.789L74.41,31.3L79.312,22.684L79.312,22.684z M78.183,27.297l1.154,0.657
		c1.207,0.687,2.349,0.46,2.918-0.539c0.642-1.129,0.104-2.087-1.089-2.767c-0.545-0.31-0.951-0.472-1.175-0.531L78.183,27.297
		L78.183,27.297z"/>
	<path fill="#EC1C24" d="M83.982,35.387c0.152,0.675,0.549,1.464,1.186,2.094c0.945,0.934,1.979,0.989,2.704,0.257
		c0.65-0.658,0.656-1.429,0.046-2.745c-0.749-1.579-0.863-2.908,0.123-3.906c1.102-1.116,2.844-1.032,4.235,0.342
		c0.723,0.713,1.096,1.418,1.226,1.903l-1,0.502c-0.086-0.358-0.364-1.032-1.013-1.672c-0.978-0.965-1.926-0.748-2.408-0.259
		c-0.661,0.669-0.552,1.429,0.06,2.787c0.739,1.674,0.778,2.845-0.261,3.896c-1.091,1.105-2.853,1.274-4.542-0.394
		c-0.689-0.682-1.235-1.639-1.365-2.271L83.982,35.387L83.982,35.387z"/>
	<polygon fill="#EC1C24" points="94.819,43.799 92.812,40.46 89.704,42.33 91.95,46.066 91.017,46.627 88.092,41.765 96.714,36.581 
		99.523,41.25 98.589,41.811 96.458,38.268 93.732,39.907 95.741,43.246 94.819,43.799 	"/>
	<path fill="#EC1C24" d="M29.405,85.65L26.3,86.861l-0.856-1.035l9.934-3.775l0.998,1.208l-5.567,9.057l-0.886-1.069l1.755-2.845
		L29.405,85.65L29.405,85.65z M32.29,87.546l1.595-2.616c0.373-0.579,0.738-1.075,1.091-1.561l-0.028-0.034
		c-0.534,0.267-1.122,0.539-1.717,0.78l-2.871,1.095L32.29,87.546L32.29,87.546z"/>
	<polygon fill="#EC1C24" points="39.993,87.242 41.073,87.989 35.966,95.366 39.5,97.813 38.88,98.709 34.266,95.514 39.993,87.242 
			"/>
	<polygon fill="#EC1C24" points="47.399,92.132 48.639,92.569 45.658,101.032 49.713,102.46 49.351,103.487 44.057,101.624 
		47.399,92.132 	"/>
	<path fill="#EC1C24" d="M59.238,103.742c0.585,0.37,1.423,0.648,2.318,0.643c1.328-0.009,2.101-0.7,2.094-1.73
		c-0.005-0.926-0.547-1.475-1.908-1.974c-1.646-0.586-2.667-1.445-2.676-2.849c-0.01-1.567,1.281-2.74,3.237-2.753
		c1.015-0.007,1.778,0.228,2.212,0.479l-0.351,1.062c-0.315-0.192-0.989-0.472-1.9-0.466c-1.372,0.009-1.89,0.833-1.886,1.52
		c0.007,0.941,0.621,1.399,2.014,1.928c1.706,0.661,2.561,1.463,2.571,2.939c0.01,1.553-1.116,2.919-3.49,2.934
		c-0.971,0.007-2.032-0.285-2.571-0.64L59.238,103.742L59.238,103.742z"/>
	<polygon fill="#EC1C24" points="68.713,95.748 65.751,96.519 65.473,95.45 72.682,93.574 72.961,94.643 69.984,95.417 
		72.24,104.086 70.968,104.417 68.713,95.748 	"/>
	<path fill="#EC1C24" d="M80.029,97.944l0.688,3.261l-1.161,0.676L77.45,91.465l1.355-0.789l8.028,6.969l-1.2,0.698l-2.521-2.194
		L80.029,97.944L80.029,97.944z M82.37,95.407l-2.321-2c-0.512-0.462-0.94-0.903-1.362-1.331l-0.038,0.021
		c0.176,0.571,0.35,1.196,0.49,1.823l0.611,3.012L82.37,95.407L82.37,95.407z"/>
	<path fill="#EC1C24" d="M83.455,87.93c0.35-0.571,0.938-1.33,1.539-1.974c0.947-1.015,1.767-1.496,2.608-1.566
		c0.652-0.064,1.358,0.187,1.937,0.727c0.959,0.897,1.021,2.12,0.569,3.129l0.033,0.03c0.716-0.372,1.556-0.221,2.492,0.308
		c1.25,0.718,2.121,1.206,2.537,1.329l-0.918,0.981c-0.319-0.073-1.104-0.502-2.203-1.161c-1.218-0.73-1.977-0.684-2.815,0.147
		l-0.836,0.895l3.185,2.977L90.695,94.7L83.455,87.93L83.455,87.93z M87.679,90.101l0.908-0.97c0.946-1.015,0.993-2.179,0.153-2.963
		c-0.949-0.887-2.005-0.588-2.944,0.415c-0.428,0.459-0.68,0.816-0.789,1.02L87.679,90.101L87.679,90.101z"/>
</g>
</svg>
