<?xml version="1.0" encoding="utf-8"?>
<!-- Generator: Adobe Illustrator 16.0.0, SVG Export Plug-In . SVG Version: 6.00 Build 0)  -->
<!DOCTYPE svg PUBLIC "-//W3C//DTD SVG 1.1//EN" "http://www.w3.org/Graphics/SVG/1.1/DTD/svg11.dtd">
<svg version="1.1" id="Layer_1" xmlns="http://www.w3.org/2000/svg" xmlns:xlink="http://www.w3.org/1999/xlink" x="0px" y="0px"
	 width="187.086px" height="73.863px" viewBox="0 0 187.086 73.863" enable-background="new 0 0 187.086 73.863"
	 xml:space="preserve">
<g>
	<path fill-rule="evenodd" clip-rule="evenodd" fill="#231F20" d="M7.596,1.753L4.053,1.569l-1.46-0.291L2.3,0.729
		C2.3,0.219,2.666,0,3.396,0h36.626c17.163,0,29.214,5.222,36.225,15.702c4.017,6.062,6.025,13.256,6.025,21.582
		c0,4.346-0.657,8.545-2.008,12.598c-1.534,4.273-3.652,8.033-6.391,11.395c-2.995,3.541-6.646,6.279-10.846,8.289
		c-4.491,2.045-9.531,3.104-15.191,3.104H1.132C0.365,72.669,0,72.413,0,71.976c0-0.475,0.547-0.73,1.57-0.73l8.947-0.549
		c1.388-0.182,2.374-0.584,2.849-1.131l0.913-1.279c0.329-0.875,0.511-2.189,0.548-3.98V6.39c0-2.264-1.278-3.65-3.761-4.199
		L7.596,1.753L7.596,1.753z M27.314,2.739l-0.255,1.46v64.306c0,0.73,0.146,1.242,0.438,1.426l1.461,0.219h4.82l11.174-0.402
		c2.995-0.328,5.551-0.803,7.56-1.461c2.008-0.73,3.907-1.789,5.55-3.066c1.461-1.205,2.958-2.922,4.601-5.113
		c2.739-3.578,4.711-8.143,5.916-13.73c0.73-3.65,1.095-7.193,1.095-10.59c0-2.994-0.438-6.207-1.351-9.677
		C67.045,21.106,65.11,16.725,62.371,13c-5.295-7.23-13.986-10.81-26-10.81h-7.413C28.118,2.118,27.57,2.3,27.314,2.739
		L27.314,2.739z M89.467,72.122c-0.073-0.439,0.292-0.621,1.096-0.621l2.556-0.074c1.387-0.182,2.227-0.656,2.556-1.387l0.475-2.629
		V46.194c0-0.803-0.292-1.424-0.84-1.789l-1.899-0.184l-2.556,0.693l-1.388-0.072c-0.183-0.438,0.365-0.84,1.644-1.205
		c3.031-0.803,5.696-1.826,7.961-3.104c1.387-0.803,2.373-1.242,2.812-1.424l1.096-0.109c0.365,0.072,0.548,0.803,0.548,2.117v26.73
		c0,1.277,0.292,2.191,0.84,2.738c0.657,0.658,2.19,0.986,4.564,0.986c0.84,0,1.277,0.184,1.351,0.584
		c0,0.328-0.255,0.439-0.693,0.439H90.124C89.686,72.597,89.467,72.413,89.467,72.122L89.467,72.122z M175.647,45.829
		c-1.789,1.861-2.994,4.053-3.651,6.682v15.521c0,1.387,0.475,2.373,1.46,2.994l2.228,0.4l2.338,0.256
		c0.548,0.074,0.767,0.184,0.767,0.475l-0.109,0.256l-0.621,0.184h-19.537c-0.584,0-0.912-0.184-0.912-0.475l0.547-0.439
		l3.287-0.256c1.278-0.219,2.081-0.656,2.52-1.314l0.548-1.643V46.56l-0.365-1.607l-0.621-0.365
		c-0.183-0.182-0.475-0.291-0.912-0.365c-0.548-0.037-1.206,0.074-1.899,0.365l-1.862,0.512l-1.059-0.256
		c-0.183-0.256-0.11-0.438,0.146-0.547l1.57-0.658c3.578-1.059,6.464-2.154,8.472-3.287l2.483-1.35l1.096,0.072l0.438,0.912v8.035
		c2.738-4.455,4.93-7.195,6.427-8.107c0.913-0.547,1.789-0.986,2.446-1.168l1.278-0.109c0.804-0.074,1.717,0.182,2.739,0.84
		c1.388,0.803,2.117,2.008,2.19,3.541c0.073,1.279-0.292,2.264-1.096,3.031c-0.729,0.621-1.46,0.803-2.117,0.621
		c-0.621-0.109-1.096-0.365-1.425-0.73l-1.022-1.277c-0.804-1.17-1.57-1.535-2.483-1.205
		C177.875,43.747,176.779,44.55,175.647,45.829L175.647,45.829z M99.326,15.812c-1.351,0-2.446,0.475-3.359,1.388
		c-0.985,0.913-1.461,2.081-1.388,3.433c-0.073,1.278,0.402,2.373,1.388,3.287c0.913,0.912,2.009,1.387,3.359,1.387
		c1.278,0,2.41-0.475,3.323-1.387c0.913-0.914,1.424-2.009,1.424-3.287c0-1.352-0.511-2.52-1.424-3.433
		S100.604,15.812,99.326,15.812L99.326,15.812z M118.681,44.952c1.314-1.752,2.958-3.213,4.93-4.381
		c1.753-1.023,3.506-1.682,5.331-2.01l6.756-0.402c2.447,0.111,4.711,0.586,6.756,1.498c4.93,2.191,8.034,6.209,9.202,12.051
		c1.205,5.916,0.183,10.918-3.03,14.973c-2.739,3.432-6.354,5.623-10.919,6.572c-4.784,1.059-9.238,0.73-13.256-0.912
		c-5.222-2.119-8.398-6.318-9.421-12.453C114.116,54.081,115.321,49.151,118.681,44.952L118.681,44.952z M140.08,43.31
		c-2.228-2.484-5.04-3.578-8.436-3.287c-3.287,0.328-5.807,2.154-7.45,5.623c-1.497,3.141-2.045,6.975-1.497,11.504
		c0.401,4.49,1.826,8.07,4.127,10.809c2.446,2.885,5.222,4.09,8.326,3.543c3.25-0.621,5.623-2.375,7.193-5.295
		c1.534-2.994,2.081-6.865,1.717-11.795C143.622,49.481,142.344,45.829,140.08,43.31L140.08,43.31z"/>
	<path fill-rule="evenodd" clip-rule="evenodd" fill="#231F20" d="M89.211,44.915v0.365l-0.803-0.51v0.182l0.073,0.328h-0.11
		c0-0.072,0-0.256,0-0.438v-0.256h0.037l0.73,0.549v-0.549h0.146L89.211,44.915L89.211,44.915z"/>
	<polygon fill-rule="evenodd" clip-rule="evenodd" fill="#231F20" points="90.562,44.661 90.124,44.661 90.124,44.915 
		90.489,44.915 90.489,44.952 90.124,44.952 90.124,45.208 90.562,45.208 90.562,45.28 90.015,45.28 90.015,44.587 90.562,44.587 
		90.562,44.661 	"/>
	<path fill-rule="evenodd" clip-rule="evenodd" fill="#231F20" d="M92.571,44.587h0.037l-0.365,0.693h-0.109l-0.292-0.547
		l-0.329,0.547h-0.037c-0.183-0.328-0.329-0.547-0.365-0.693h0.182l0.219,0.549l0.329-0.549h0.109l0.255,0.549l0.292-0.549H92.571
		L92.571,44.587z"/>
	<polygon fill-rule="evenodd" clip-rule="evenodd" fill="#231F20" points="93.593,44.952 93.667,45.28 93.484,45.28 93.484,45.024 
		93.119,44.587 93.301,44.587 93.593,44.952 93.886,44.587 94.031,44.587 93.593,44.952 	"/>
	<path fill-rule="evenodd" clip-rule="evenodd" fill="#231F20" d="M94.615,44.733c0.073-0.072,0.256-0.146,0.438-0.146
		s0.292,0.074,0.438,0.146c0.036,0.037,0.109,0.109,0.109,0.219l-0.109,0.256c-0.146,0.072-0.256,0.072-0.438,0.072
		s-0.365,0-0.438-0.072l-0.182-0.256C94.434,44.843,94.506,44.771,94.615,44.733L94.615,44.733z M95.346,44.733l-0.292-0.072
		l-0.292,0.072c-0.073,0.037-0.146,0.109-0.146,0.219c0,0.072,0.073,0.146,0.146,0.184l0.292,0.145c0.11,0,0.256-0.072,0.292-0.145
		c0.073-0.037,0.146-0.111,0.146-0.184C95.492,44.843,95.419,44.771,95.346,44.733L95.346,44.733z"/>
	<path fill-rule="evenodd" clip-rule="evenodd" fill="#231F20" d="M96.441,44.661l-0.036,0.254h0.109
		c0.183,0,0.292-0.072,0.292-0.145c0-0.037-0.036-0.109-0.219-0.109H96.441L96.441,44.661z M96.624,44.587
		c0.183,0,0.329,0.074,0.329,0.184l-0.146,0.145l-0.183,0.037l0.438,0.328H96.88l-0.438-0.328h-0.036l0.036,0.328h-0.183v-0.693
		H96.624L96.624,44.587z"/>
	<polygon fill-rule="evenodd" clip-rule="evenodd" fill="#231F20" points="98.45,44.587 97.976,44.915 98.45,45.28 98.268,45.28 
		97.866,44.952 97.866,44.915 97.793,44.952 97.866,45.28 97.684,45.28 97.684,44.587 97.866,44.587 97.793,44.915 97.866,44.915 
		98.341,44.587 98.45,44.587 	"/>
</g>
</svg>
