<?xml version="1.0" encoding="utf-8"?>
<!-- Generator: Adobe Illustrator 16.0.0, SVG Export Plug-In . SVG Version: 6.00 Build 0)  -->
<!DOCTYPE svg PUBLIC "-//W3C//DTD SVG 1.1//EN" "http://www.w3.org/Graphics/SVG/1.1/DTD/svg11.dtd">
<svg version="1.1" id="Layer_1" xmlns="http://www.w3.org/2000/svg" xmlns:xlink="http://www.w3.org/1999/xlink" x="0px" y="0px"
	 width="175.748px" height="104.252px" viewBox="0 0 175.748 104.252" enable-background="new 0 0 175.748 104.252"
	 xml:space="preserve">
<g>
	<g>
		<path fill="#4C4C4C" d="M7.546,382.919l1.198,6.043c0.255,1.326,0.51,2.651,0.663,3.927h0.102
			c0.179-1.275,0.484-2.703,0.766-3.876l1.428-6.094h1.504l1.352,5.915c0.306,1.377,0.587,2.678,0.79,4.055h0.103
			c0.152-1.301,0.382-2.575,0.663-3.978l1.173-5.992h1.963l-3.11,12.341h-1.606l-1.428-5.992c-0.307-1.198-0.484-2.295-0.688-3.697
			h-0.051c-0.204,1.454-0.434,2.602-0.714,3.774l-1.479,5.915H8.515l-3.009-12.341H7.546z"/>
		<path fill="#4C4C4C" d="M23.764,382.919l1.198,6.043c0.255,1.326,0.51,2.651,0.663,3.927h0.102
			c0.179-1.275,0.484-2.703,0.766-3.876l1.428-6.094h1.504l1.352,5.915c0.306,1.377,0.587,2.678,0.79,4.055h0.103
			c0.152-1.301,0.382-2.575,0.663-3.978l1.173-5.992h1.963l-3.11,12.341H30.75l-1.428-5.992c-0.307-1.198-0.484-2.295-0.688-3.697
			h-0.051c-0.204,1.454-0.434,2.602-0.714,3.774l-1.479,5.915h-1.657l-3.009-12.341H23.764z"/>
		<path fill="#4C4C4C" d="M39.981,382.919l1.199,6.043c0.255,1.326,0.51,2.651,0.662,3.927h0.103
			c0.179-1.275,0.484-2.703,0.765-3.876l1.428-6.094h1.505l1.352,5.915c0.306,1.377,0.586,2.678,0.79,4.055h0.102
			c0.153-1.301,0.383-2.575,0.663-3.978l1.173-5.992h1.964l-3.111,12.341h-1.606l-1.428-5.992c-0.306-1.198-0.484-2.295-0.688-3.697
			H44.8c-0.204,1.454-0.434,2.602-0.714,3.774l-1.479,5.915h-1.657l-3.009-12.341H39.981z"/>
		<path fill="#4C4C4C" d="M53.471,393.985c0-0.867,0.586-1.479,1.3-1.479c0.765,0,1.301,0.587,1.301,1.479
			c0,0.892-0.484,1.479-1.326,1.479C54.032,395.464,53.471,394.877,53.471,393.985z"/>
		<path fill="#4C4C4C" d="M59.82,377.615h1.964v17.645H59.82V377.615z"/>
		<path fill="#4C4C4C" d="M73.539,389.09c0,4.768-2.193,6.374-4.105,6.374c-2.218,0-4.003-2.015-4.003-6.349
			c0-4.488,2.015-6.375,4.131-6.375C71.779,382.74,73.539,384.806,73.539,389.09z M67.393,389.09c0,2.039,0.357,4.818,2.142,4.818
			c1.684,0,2.04-2.881,2.04-4.818c0-1.888-0.356-4.794-2.091-4.794C67.725,384.296,67.393,387.202,67.393,389.09z"/>
		<path fill="#4C4C4C" d="M84.453,393.679c0,3.238-0.408,4.462-1.225,5.38c-0.739,0.816-1.887,1.301-3.289,1.301
			c-1.045,0-2.065-0.255-2.702-0.612l0.459-1.529c0.484,0.255,1.3,0.535,2.294,0.535c1.556,0,2.524-0.969,2.524-3.773v-1.25h-0.051
			c-0.408,0.97-1.326,1.505-2.371,1.505c-2.193,0-3.621-2.474-3.621-6.094c0-4.539,2.065-6.4,3.901-6.4
			c1.301,0,1.912,0.867,2.295,1.556h0.051l0.103-1.377h1.733c-0.025,0.842-0.102,1.938-0.102,3.851V393.679z M82.514,387.177
			c0-0.306-0.025-0.637-0.102-0.892c-0.204-0.842-0.663-1.861-1.785-1.861c-1.428,0-2.192,1.912-2.192,4.64
			c0,3.137,0.994,4.564,2.192,4.564c0.612,0,1.377-0.28,1.76-1.76c0.102-0.382,0.127-0.765,0.127-1.121V387.177z"/>
		<path fill="#4C4C4C" d="M96.028,389.09c0,4.768-2.193,6.374-4.105,6.374c-2.217,0-4.002-2.015-4.002-6.349
			c0-4.488,2.014-6.375,4.131-6.375C94.269,382.74,96.028,384.806,96.028,389.09z M89.884,389.09c0,2.039,0.357,4.818,2.141,4.818
			c1.684,0,2.041-2.881,2.041-4.818c0-1.888-0.357-4.794-2.092-4.794C90.216,384.296,89.884,387.202,89.884,389.09z"/>
		<path fill="#4C4C4C" d="M100.874,389.268c0,3.8,1.504,4.59,2.906,4.59c0.867,0,1.557-0.204,2.041-0.459l0.33,1.428
			c-0.688,0.357-1.732,0.587-2.727,0.587c-2.959,0-4.488-2.423-4.488-6.196c0-3.978,1.709-6.477,4.182-6.477
			c2.498,0,3.518,2.652,3.518,5.405c0,0.485-0.025,0.816-0.051,1.122H100.874z M104.749,387.814
			c0.025-2.447-0.893-3.544-1.836-3.544c-1.299,0-1.938,1.861-2.014,3.544H104.749z"/>
		<path fill="#4C4C4C" d="M110.003,386.77c0-1.888-0.076-2.983-0.102-3.851h1.734l0.102,1.581h0.051
			c0.688-1.301,1.656-1.76,2.625-1.76c2.168,0,3.57,2.27,3.57,6.323c0,4.59-1.887,6.4-3.824,6.4c-1.174,0-1.836-0.739-2.168-1.428
			h-0.051v6.119h-1.938V386.77z M111.94,390.747c0,0.356,0.025,0.714,0.102,1.02c0.383,1.76,1.275,2.065,1.811,2.065
			c1.633,0,2.168-2.244,2.168-4.717c0-2.55-0.611-4.691-2.193-4.691c-0.893,0-1.707,1.096-1.811,2.218
			c-0.051,0.28-0.076,0.612-0.076,0.943V390.747z"/>
		<path fill="#4C4C4C" d="M121.146,393.22c0.434,0.28,1.199,0.638,1.99,0.638c1.096,0,1.811-0.688,1.811-1.785
			c0-0.943-0.332-1.58-1.582-2.422c-1.605-1.02-2.473-2.091-2.473-3.493c0-2.015,1.479-3.417,3.391-3.417
			c0.969,0,1.684,0.332,2.193,0.638l-0.51,1.479c-0.484-0.331-0.994-0.561-1.658-0.561c-1.045,0-1.58,0.765-1.58,1.581
			c0,0.815,0.305,1.274,1.529,2.116c1.428,0.918,2.551,2.04,2.551,3.748c0,2.474-1.684,3.672-3.723,3.672
			c-0.893,0-1.889-0.281-2.424-0.714L121.146,393.22z"/>
		<path fill="#4C4C4C" d="M129.663,393.985c0-0.867,0.586-1.479,1.301-1.479c0.764,0,1.301,0.587,1.301,1.479
			c0,0.892-0.484,1.479-1.326,1.479C130.224,395.464,129.663,394.877,129.663,393.985z"/>
		<path fill="#4C4C4C" d="M142.03,394.954c-0.434,0.255-1.174,0.459-2.041,0.459c-2.701,0-4.512-2.168-4.512-6.247
			c0-3.544,1.785-6.426,4.869-6.426c0.664,0,1.377,0.179,1.734,0.383l-0.383,1.606c-0.256-0.128-0.766-0.332-1.402-0.332
			c-1.988,0-2.855,2.346-2.855,4.769c0,2.881,1.096,4.615,2.906,4.615c0.51,0,0.969-0.103,1.402-0.332L142.03,394.954z"/>
		<path fill="#4C4C4C" d="M152.407,389.09c0,4.768-2.191,6.374-4.104,6.374c-2.219,0-4.004-2.015-4.004-6.349
			c0-4.488,2.014-6.375,4.131-6.375C150.649,382.74,152.407,384.806,152.407,389.09z M146.263,389.09
			c0,2.039,0.357,4.818,2.143,4.818c1.682,0,2.039-2.881,2.039-4.818c0-1.888-0.357-4.794-2.09-4.794
			C146.595,384.296,146.263,387.202,146.263,389.09z"/>
		<path fill="#4C4C4C" d="M155.876,386.106c0-1.454-0.076-2.193-0.102-3.188h1.709l0.102,1.53h0.051
			c0.535-0.995,1.479-1.709,2.779-1.709c1.148,0,2.117,0.536,2.576,1.887h0.051c0.33-0.611,0.764-1.121,1.223-1.402
			c0.484-0.331,1.072-0.484,1.709-0.484c1.658,0,2.957,1.198,2.957,4.36v8.159h-1.938v-7.726c0-1.606-0.229-3.162-1.734-3.162
			c-0.814,0-1.529,0.688-1.809,1.861c-0.053,0.307-0.078,0.688-0.078,1.097v7.93h-1.938v-8.083c0-1.351-0.229-2.805-1.707-2.805
			c-0.816,0-1.607,0.688-1.836,2.015c-0.051,0.306-0.078,0.663-0.078,1.045v7.828h-1.938V386.106z"/>
	</g>
	<g>
		<path fill="#898989" d="M-181.447,371.528v-1.101l1.188-1.628c1.716-2.376,3.719-5.061,3.719-7.745
			c0-1.584-0.683-2.552-2.024-2.552c-1.034,0-1.717,0.55-2.068,0.792l-0.418-1.276c0.484-0.418,1.496-0.969,2.794-0.969
			c2.377,0,3.389,1.761,3.389,3.917c0,2.685-1.738,5.28-3.521,7.701l-0.946,1.32v0.044h4.753v1.496H-181.447z"/>
		<path fill="#898989" d="M-164.726,364.355c0,5.215-1.649,7.349-3.718,7.349c-2.223,0-3.564-2.641-3.564-7.305
			c0-4.818,1.43-7.35,3.762-7.35C-165.936,357.05-164.726,359.801-164.726,364.355z M-170.314,364.377
			c-0.022,3.455,0.571,5.875,1.979,5.875c1.364,0,1.915-2.442,1.915-5.875c0-3.344-0.551-5.874-1.915-5.874
			C-169.72,358.503-170.314,360.923-170.314,364.377z"/>
		<path fill="#898989" d="M-155.156,364.355c0,5.215-1.65,7.349-3.719,7.349c-2.222,0-3.564-2.641-3.564-7.305
			c0-4.818,1.431-7.35,3.763-7.35C-156.366,357.05-155.156,359.801-155.156,364.355z M-160.745,364.377
			c-0.022,3.455,0.572,5.875,1.98,5.875c1.364,0,1.914-2.442,1.914-5.875c0-3.344-0.55-5.874-1.914-5.874
			C-160.151,358.503-160.745,360.923-160.745,364.377z"/>
		<path fill="#898989" d="M-153.089,374.301c0.462-1.276,1.057-3.608,1.276-5.127l1.914-0.22c-0.506,1.782-1.43,4.225-2.024,5.192
			L-153.089,374.301z"/>
		<path fill="#898989" d="M-140.218,364.355c0,5.215-1.65,7.349-3.719,7.349c-2.222,0-3.564-2.641-3.564-7.305
			c0-4.818,1.431-7.35,3.763-7.35C-141.428,357.05-140.218,359.801-140.218,364.355z M-145.807,364.377
			c-0.022,3.455,0.572,5.875,1.98,5.875c1.364,0,1.914-2.442,1.914-5.875c0-3.344-0.55-5.874-1.914-5.874
			C-145.213,358.503-145.807,360.923-145.807,364.377z"/>
		<path fill="#898989" d="M-130.649,364.355c0,5.215-1.649,7.349-3.718,7.349c-2.223,0-3.564-2.641-3.564-7.305
			c0-4.818,1.43-7.35,3.762-7.35C-131.859,357.05-130.649,359.801-130.649,364.355z M-136.237,364.377
			c-0.022,3.455,0.571,5.875,1.979,5.875c1.364,0,1.915-2.442,1.915-5.875c0-3.344-0.551-5.874-1.915-5.874
			C-135.643,358.503-136.237,360.923-136.237,364.377z"/>
		<path fill="#898989" d="M-121.079,364.355c0,5.215-1.649,7.349-3.718,7.349c-2.223,0-3.564-2.641-3.564-7.305
			c0-4.818,1.43-7.35,3.762-7.35C-122.289,357.05-121.079,359.801-121.079,364.355z M-126.667,364.377
			c-0.022,3.455,0.571,5.875,1.979,5.875c1.364,0,1.915-2.442,1.915-5.875c0-3.344-0.551-5.874-1.915-5.874
			C-126.073,358.503-126.667,360.923-126.667,364.377z"/>
		<path fill="#898989" d="M-112.191,359.801v5.236h5.062v1.21h-5.062v5.281h-1.254v-5.281h-5.038v-1.21h5.038v-5.236H-112.191z"/>
		<path fill="#898989" d="M-99.454,356.302h1.672v5.854h0.044c0.551-1.057,1.343-1.431,2.267-1.431c1.672,0,2.904,1.893,2.904,5.391
			c0,3.829-1.584,5.589-3.234,5.589c-1.122,0-1.694-0.66-2.112-1.562h-0.088l-0.11,1.386h-1.43c0.021-0.616,0.088-1.826,0.088-2.553
			V356.302z M-97.782,367.788c0,0.242,0.022,0.462,0.066,0.66c0.396,1.562,1.122,1.848,1.606,1.848c1.364,0,1.848-1.848,1.848-4.114
			c0-2.135-0.506-4.005-1.892-4.005c-0.793,0-1.431,0.969-1.585,1.893c-0.021,0.242-0.044,0.484-0.044,0.726V367.788z"/>
		<path fill="#898989" d="M-89.576,363.629c0-0.901-0.066-1.958-0.088-2.75h1.518l0.089,1.694h0.044
			c0.352-1.013,1.254-1.849,2.244-1.849c0.132,0,0.242,0,0.352,0.022v1.716c-0.109,0-0.22,0-0.352,0c-1.078,0-1.87,0.99-2.047,2.2
			c-0.044,0.286-0.065,0.616-0.065,0.969v5.896h-1.694V363.629z"/>
		<path fill="#898989" d="M-77.52,369.108c0,0.813,0.022,1.738,0.11,2.42h-1.519l-0.109-1.122h-0.066
			c-0.462,0.814-1.21,1.298-2.134,1.298c-1.408,0-2.509-1.188-2.509-3.036c0-2.685,2.135-3.851,4.533-3.873v-0.33
			c0-1.43-0.375-2.397-1.694-2.397c-0.66,0-1.255,0.197-1.761,0.55l-0.374-1.188c0.462-0.33,1.431-0.704,2.486-0.704
			c2.135,0,3.036,1.387,3.036,3.763V369.108z M-79.169,366.006c-0.881,0-2.927,0.176-2.927,2.486c0,1.408,0.704,1.892,1.298,1.892
			c0.748,0,1.364-0.55,1.562-1.605c0.044-0.198,0.066-0.418,0.066-0.616V366.006z"/>
		<path fill="#898989" d="M-74.022,363.629c0-1.254-0.066-1.892-0.088-2.75h1.474l0.089,1.298h0.044
			c0.462-0.857,1.319-1.452,2.442-1.452c1.474,0,2.574,1.078,2.574,3.652v7.151h-1.694v-6.843c0-1.276-0.242-2.53-1.475-2.53
			c-0.704,0-1.386,0.594-1.584,1.716c-0.066,0.265-0.088,0.594-0.088,0.968v6.689h-1.694V363.629z"/>
		<path fill="#898989" d="M-57.609,356.302v12.674c0,0.727,0.065,1.937,0.088,2.553h-1.452l-0.11-1.32h-0.066
			c-0.352,0.748-1.1,1.496-2.244,1.496c-1.782,0-3.08-1.936-3.08-5.457c0-3.762,1.562-5.522,3.19-5.522
			c0.792,0,1.54,0.353,1.958,1.254h0.044v-5.677H-57.609z M-59.282,364.949c0-0.22,0-0.484-0.021-0.704
			c-0.11-1.122-0.771-2.068-1.585-2.068c-1.408,0-1.892,1.959-1.892,4.07c0,2.245,0.572,4.049,1.804,4.049
			c0.528,0,1.255-0.286,1.629-1.826c0.044-0.198,0.065-0.439,0.065-0.704V364.949z"/>
		<path fill="#898989" d="M-49.581,356.302h1.694v15.227h-1.694V356.302z"/>
		<path fill="#898989" d="M-37.744,366.203c0,4.115-1.893,5.501-3.543,5.501c-1.914,0-3.454-1.738-3.454-5.479
			c0-3.873,1.738-5.501,3.564-5.501C-39.262,360.725-37.744,362.507-37.744,366.203z M-43.046,366.203
			c0,1.761,0.308,4.159,1.848,4.159c1.452,0,1.761-2.486,1.761-4.159c0-1.628-0.309-4.136-1.805-4.136
			C-42.76,362.067-43.046,364.575-43.046,366.203z"/>
		<path fill="#898989" d="M-28.328,370.164c0,2.795-0.353,3.851-1.057,4.643c-0.638,0.704-1.628,1.122-2.838,1.122
			c-0.902,0-1.782-0.22-2.333-0.527l0.396-1.32c0.418,0.22,1.122,0.462,1.98,0.462c1.342,0,2.178-0.836,2.178-3.257v-1.078h-0.044
			c-0.352,0.836-1.144,1.298-2.046,1.298c-1.893,0-3.125-2.134-3.125-5.259c0-3.916,1.782-5.522,3.367-5.522
			c1.122,0,1.649,0.748,1.979,1.343h0.044l0.089-1.188h1.496c-0.022,0.726-0.088,1.672-0.088,3.322V370.164z M-30,364.554
			c0-0.265-0.021-0.551-0.088-0.771c-0.176-0.727-0.572-1.606-1.54-1.606c-1.232,0-1.893,1.65-1.893,4.005
			c0,2.706,0.858,3.938,1.893,3.938c0.528,0,1.188-0.242,1.519-1.519c0.088-0.33,0.109-0.66,0.109-0.968V364.554z"/>
		<path fill="#898989" d="M-18.34,366.203c0,4.115-1.892,5.501-3.542,5.501c-1.915,0-3.455-1.738-3.455-5.479
			c0-3.873,1.738-5.501,3.564-5.501C-19.858,360.725-18.34,362.507-18.34,366.203z M-23.643,366.203
			c0,1.761,0.309,4.159,1.849,4.159c1.452,0,1.76-2.486,1.76-4.159c0-1.628-0.308-4.136-1.804-4.136
			C-23.357,362.067-23.643,364.575-23.643,366.203z"/>
		<path fill="#898989" d="M-15.635,369.769c0.374,0.241,1.034,0.55,1.716,0.55c0.946,0,1.562-0.595,1.562-1.54
			c0-0.814-0.286-1.364-1.364-2.091c-1.386-0.88-2.134-1.804-2.134-3.015c0-1.738,1.276-2.948,2.926-2.948
			c0.837,0,1.452,0.286,1.893,0.55l-0.44,1.276c-0.418-0.286-0.857-0.483-1.43-0.483c-0.902,0-1.364,0.66-1.364,1.363
			c0,0.705,0.264,1.101,1.32,1.827c1.232,0.792,2.2,1.76,2.2,3.234c0,2.134-1.452,3.168-3.213,3.168c-0.77,0-1.628-0.242-2.09-0.616
			L-15.635,369.769z"/>
		<path fill="#898989" d="M-1.511,358.128c0,0.66-0.396,1.101-1.034,1.101c-0.55,0-0.968-0.44-0.968-1.101
			c0-0.659,0.439-1.1,0.99-1.1C-1.908,357.028-1.511,357.469-1.511,358.128z M-3.337,371.528v-10.649h1.694v10.649H-3.337z"/>
		<path fill="#898989" d="M1.81,363.629c0-1.254-0.066-1.892-0.088-2.75h1.474l0.089,1.298h0.044
			c0.462-0.857,1.319-1.452,2.442-1.452c1.474,0,2.574,1.078,2.574,3.652v7.151H6.651v-6.843c0-1.276-0.242-2.53-1.475-2.53
			c-0.704,0-1.386,0.594-1.584,1.716c-0.066,0.265-0.088,0.594-0.088,0.968v6.689H1.81V363.629z"/>
		<path fill="#898989" d="M17.232,360.879l1.343,5.984c0.153,0.727,0.33,1.673,0.462,2.597h0.065c0.11-0.88,0.286-1.782,0.44-2.597
			l1.32-5.984h1.672l-2.794,10.649h-1.496l-2.772-10.649H17.232z"/>
		<path fill="#898989" d="M26.01,366.357c0,3.278,1.298,3.961,2.509,3.961c0.748,0,1.342-0.176,1.76-0.396l0.286,1.232
			c-0.594,0.308-1.496,0.506-2.354,0.506c-2.552,0-3.872-2.09-3.872-5.347c0-3.433,1.474-5.589,3.608-5.589
			c2.156,0,3.036,2.288,3.036,4.665c0,0.418-0.021,0.704-0.044,0.968H26.01z M29.355,365.104c0.021-2.112-0.771-3.059-1.584-3.059
			c-1.122,0-1.673,1.606-1.738,3.059H29.355z"/>
		<path fill="#898989" d="M39.101,371.265c-0.374,0.22-1.013,0.396-1.761,0.396c-2.332,0-3.895-1.87-3.895-5.391
			c0-3.059,1.54-5.545,4.203-5.545c0.572,0,1.188,0.154,1.496,0.33l-0.33,1.387c-0.22-0.11-0.66-0.286-1.21-0.286
			c-1.717,0-2.465,2.024-2.465,4.114c0,2.486,0.946,3.982,2.509,3.982c0.439,0,0.836-0.088,1.21-0.286L39.101,371.265z"/>
		<path fill="#898989" d="M44.05,358.393v2.486h2.046v1.276H44.05v6.337c0,1.386,0.483,1.76,1.1,1.76
			c0.286,0,0.506-0.021,0.683-0.065l0.088,1.298c-0.309,0.11-0.704,0.176-1.254,0.176c-0.683,0-1.277-0.176-1.673-0.638
			c-0.44-0.484-0.639-1.21-0.639-2.685v-6.183h-1.298v-1.276h1.298v-1.805L44.05,358.393z"/>
		<path fill="#898989" d="M55.05,366.203c0,4.115-1.892,5.501-3.542,5.501c-1.914,0-3.454-1.738-3.454-5.479
			c0-3.873,1.737-5.501,3.564-5.501C53.533,360.725,55.05,362.507,55.05,366.203z M49.748,366.203c0,1.761,0.309,4.159,1.849,4.159
			c1.452,0,1.761-2.486,1.761-4.159c0-1.628-0.309-4.136-1.805-4.136C50.034,362.067,49.748,364.575,49.748,366.203z"/>
		<path fill="#898989" d="M58.019,363.629c0-0.901-0.065-1.958-0.088-2.75h1.519l0.088,1.694h0.044
			c0.352-1.013,1.254-1.849,2.244-1.849c0.132,0,0.242,0,0.353,0.022v1.716c-0.11,0-0.221,0-0.353,0c-1.078,0-1.87,0.99-2.046,2.2
			c-0.044,0.286-0.066,0.616-0.066,0.969v5.896h-1.694V363.629z"/>
		<path fill="#898989" d="M69.503,371.528v-9.373h-1.342v-1.276h1.342v-0.639c0-1.166,0.176-2.332,0.946-3.212
			c0.616-0.683,1.475-0.902,2.135-0.902c0.571,0,1.012,0.11,1.319,0.264l-0.264,1.32c-0.22-0.088-0.506-0.176-0.946-0.176
			c-1.21,0-1.496,1.298-1.496,2.662v0.683h1.937v1.276h-1.937v9.373H69.503z"/>
		<path fill="#898989" d="M81.736,366.203c0,4.115-1.892,5.501-3.542,5.501c-1.914,0-3.454-1.738-3.454-5.479
			c0-3.873,1.737-5.501,3.564-5.501C80.218,360.725,81.736,362.507,81.736,366.203z M76.433,366.203
			c0,1.761,0.309,4.159,1.849,4.159c1.452,0,1.761-2.486,1.761-4.159c0-1.628-0.309-4.136-1.805-4.136
			C76.719,362.067,76.433,364.575,76.433,366.203z"/>
		<path fill="#898989" d="M84.706,363.629c0-0.901-0.065-1.958-0.088-2.75h1.519l0.088,1.694h0.044
			c0.352-1.013,1.254-1.849,2.244-1.849c0.132,0,0.242,0,0.353,0.022v1.716c-0.11,0-0.221,0-0.353,0c-1.078,0-1.87,0.99-2.046,2.2
			c-0.044,0.286-0.066,0.616-0.066,0.969v5.896h-1.694V363.629z"/>
		<path fill="#898989" d="M91.284,363.629c0-1.254-0.066-1.892-0.088-2.75h1.473l0.088,1.32h0.045
			c0.463-0.858,1.275-1.475,2.398-1.475c0.99,0,1.826,0.462,2.223,1.628h0.043c0.287-0.527,0.66-0.968,1.057-1.21
			c0.418-0.286,0.924-0.418,1.475-0.418c1.43,0,2.553,1.034,2.553,3.763v7.041h-1.674v-6.667c0-1.386-0.197-2.729-1.496-2.729
			c-0.703,0-1.32,0.595-1.562,1.606c-0.043,0.264-0.064,0.594-0.064,0.946v6.843h-1.672v-6.975c0-1.167-0.199-2.421-1.475-2.421
			c-0.705,0-1.387,0.595-1.584,1.738c-0.045,0.265-0.066,0.572-0.066,0.902v6.755h-1.672V363.629z"/>
		<path fill="#898989" d="M111.634,369.108c0,0.813,0.021,1.738,0.109,2.42h-1.518l-0.109-1.122h-0.066
			c-0.463,0.814-1.211,1.298-2.135,1.298c-1.408,0-2.508-1.188-2.508-3.036c0-2.685,2.133-3.851,4.531-3.873v-0.33
			c0-1.43-0.373-2.397-1.693-2.397c-0.66,0-1.254,0.197-1.76,0.55l-0.375-1.188c0.463-0.33,1.43-0.704,2.486-0.704
			c2.135,0,3.037,1.387,3.037,3.763V369.108z M109.983,366.006c-0.881,0-2.926,0.176-2.926,2.486c0,1.408,0.703,1.892,1.297,1.892
			c0.748,0,1.365-0.55,1.562-1.605c0.045-0.198,0.066-0.418,0.066-0.616V366.006z"/>
		<path fill="#898989" d="M117.001,358.393v2.486h2.047v1.276h-2.047v6.337c0,1.386,0.484,1.76,1.1,1.76
			c0.287,0,0.506-0.021,0.684-0.065l0.088,1.298c-0.309,0.11-0.705,0.176-1.254,0.176c-0.684,0-1.277-0.176-1.674-0.638
			c-0.439-0.484-0.637-1.21-0.637-2.685v-6.183h-1.299v-1.276h1.299v-1.805L117.001,358.393z"/>
		<path fill="#898989" d="M131.808,369.108c0,0.813,0.021,1.738,0.109,2.42h-1.518l-0.109-1.122h-0.066
			c-0.463,0.814-1.211,1.298-2.135,1.298c-1.408,0-2.508-1.188-2.508-3.036c0-2.685,2.133-3.851,4.531-3.873v-0.33
			c0-1.43-0.373-2.397-1.693-2.397c-0.66,0-1.254,0.197-1.76,0.55l-0.375-1.188c0.463-0.33,1.43-0.704,2.486-0.704
			c2.135,0,3.037,1.387,3.037,3.763V369.108z M130.157,366.006c-0.881,0-2.926,0.176-2.926,2.486c0,1.408,0.703,1.892,1.297,1.892
			c0.748,0,1.365-0.55,1.562-1.605c0.045-0.198,0.066-0.418,0.066-0.616V366.006z"/>
		<path fill="#898989" d="M135.942,360.879l1.344,5.984c0.154,0.727,0.33,1.673,0.461,2.597h0.066
			c0.109-0.88,0.285-1.782,0.439-2.597l1.32-5.984h1.672l-2.793,10.649h-1.496l-2.773-10.649H135.942z"/>
		<path fill="#898989" d="M149.231,369.108c0,0.813,0.023,1.738,0.111,2.42h-1.52l-0.109-1.122h-0.066
			c-0.461,0.814-1.209,1.298-2.135,1.298c-1.408,0-2.508-1.188-2.508-3.036c0-2.685,2.135-3.851,4.533-3.873v-0.33
			c0-1.43-0.375-2.397-1.695-2.397c-0.66,0-1.254,0.197-1.76,0.55l-0.373-1.188c0.461-0.33,1.43-0.704,2.486-0.704
			c2.133,0,3.035,1.387,3.035,3.763V369.108z M147.581,366.006c-0.879,0-2.926,0.176-2.926,2.486c0,1.408,0.705,1.892,1.299,1.892
			c0.748,0,1.363-0.55,1.562-1.605c0.043-0.198,0.064-0.418,0.064-0.616V366.006z"/>
		<path fill="#898989" d="M154.556,358.128c0,0.66-0.396,1.101-1.035,1.101c-0.549,0-0.969-0.44-0.969-1.101
			c0-0.659,0.441-1.1,0.99-1.1C154.159,357.028,154.556,357.469,154.556,358.128z M152.729,371.528v-10.649h1.693v10.649H152.729z"
			/>
		<path fill="#898989" d="M157.876,356.302h1.695v15.227h-1.695V356.302z"/>
		<path fill="#898989" d="M168.79,369.108c0,0.813,0.021,1.738,0.109,2.42h-1.518l-0.109-1.122h-0.066
			c-0.463,0.814-1.211,1.298-2.135,1.298c-1.408,0-2.508-1.188-2.508-3.036c0-2.685,2.133-3.851,4.531-3.873v-0.33
			c0-1.43-0.373-2.397-1.693-2.397c-0.66,0-1.254,0.197-1.76,0.55l-0.375-1.188c0.463-0.33,1.43-0.704,2.486-0.704
			c2.135,0,3.037,1.387,3.037,3.763V369.108z M167.14,366.006c-0.881,0-2.926,0.176-2.926,2.486c0,1.408,0.703,1.892,1.297,1.892
			c0.748,0,1.365-0.55,1.562-1.605c0.045-0.198,0.066-0.418,0.066-0.616V366.006z"/>
		<path fill="#898989" d="M172.265,356.302h1.672v5.854h0.045c0.549-1.057,1.342-1.431,2.266-1.431c1.672,0,2.904,1.893,2.904,5.391
			c0,3.829-1.584,5.589-3.234,5.589c-1.123,0-1.695-0.66-2.113-1.562h-0.088l-0.109,1.386h-1.43
			c0.021-0.616,0.088-1.826,0.088-2.553V356.302z M173.937,367.788c0,0.242,0.021,0.462,0.066,0.66
			c0.396,1.562,1.121,1.848,1.605,1.848c1.365,0,1.85-1.848,1.85-4.114c0-2.135-0.508-4.005-1.893-4.005
			c-0.793,0-1.432,0.969-1.584,1.893c-0.023,0.242-0.045,0.484-0.045,0.726V367.788z"/>
		<path fill="#898989" d="M182.165,356.302h1.693v15.227h-1.693V356.302z"/>
		<path fill="#898989" d="M188.653,366.357c0,3.278,1.299,3.961,2.51,3.961c0.748,0,1.342-0.176,1.76-0.396l0.285,1.232
			c-0.594,0.308-1.496,0.506-2.354,0.506c-2.553,0-3.873-2.09-3.873-5.347c0-3.433,1.475-5.589,3.609-5.589
			c2.156,0,3.035,2.288,3.035,4.665c0,0.418-0.021,0.704-0.043,0.968H188.653z M191.999,365.104c0.021-2.112-0.77-3.059-1.584-3.059
			c-1.123,0-1.672,1.606-1.738,3.059H191.999z"/>
		<path fill="#898989" d="M203.175,358.393v2.486h2.045v1.276h-2.045v6.337c0,1.386,0.482,1.76,1.1,1.76
			c0.285,0,0.506-0.021,0.682-0.065l0.088,1.298c-0.309,0.11-0.703,0.176-1.254,0.176c-0.682,0-1.275-0.176-1.672-0.638
			c-0.439-0.484-0.639-1.21-0.639-2.685v-6.183h-1.299v-1.276h1.299v-1.805L203.175,358.393z"/>
		<path fill="#898989" d="M214.175,366.203c0,4.115-1.893,5.501-3.543,5.501c-1.914,0-3.453-1.738-3.453-5.479
			c0-3.873,1.738-5.501,3.564-5.501C212.657,360.725,214.175,362.507,214.175,366.203z M208.872,366.203
			c0,1.761,0.309,4.159,1.848,4.159c1.453,0,1.762-2.486,1.762-4.159c0-1.628-0.309-4.136-1.805-4.136
			C209.157,362.067,208.872,364.575,208.872,366.203z"/>
		<path fill="#898989" d="M228.122,356.302v12.674c0,0.727,0.066,1.937,0.088,2.553h-1.451l-0.109-1.32h-0.066
			c-0.352,0.748-1.1,1.496-2.244,1.496c-1.783,0-3.08-1.936-3.08-5.457c0-3.762,1.561-5.522,3.189-5.522
			c0.793,0,1.541,0.353,1.959,1.254h0.043v-5.677H228.122z M226.45,364.949c0-0.22,0-0.484-0.021-0.704
			c-0.109-1.122-0.77-2.068-1.584-2.068c-1.408,0-1.893,1.959-1.893,4.07c0,2.245,0.572,4.049,1.805,4.049
			c0.527,0,1.254-0.286,1.627-1.826c0.045-0.198,0.066-0.439,0.066-0.704V364.949z"/>
		<path fill="#898989" d="M238.132,366.203c0,4.115-1.893,5.501-3.543,5.501c-1.914,0-3.453-1.738-3.453-5.479
			c0-3.873,1.738-5.501,3.564-5.501C236.614,360.725,238.132,362.507,238.132,366.203z M232.829,366.203
			c0,1.761,0.309,4.159,1.848,4.159c1.453,0,1.762-2.486,1.762-4.159c0-1.628-0.309-4.136-1.805-4.136
			C233.114,362.067,232.829,364.575,232.829,366.203z"/>
		<path fill="#898989" d="M241.827,360.879l1.033,5.215c0.221,1.144,0.441,2.288,0.572,3.389h0.088
			c0.154-1.101,0.418-2.333,0.66-3.345l1.232-5.259h1.299l1.166,5.104c0.264,1.188,0.506,2.311,0.682,3.499h0.088
			c0.133-1.122,0.33-2.223,0.572-3.433l1.012-5.171h1.695l-2.686,10.649h-1.385l-1.232-5.171c-0.264-1.034-0.418-1.98-0.594-3.19
			h-0.045c-0.176,1.254-0.373,2.244-0.615,3.257l-1.277,5.104h-1.43l-2.596-10.649H241.827z"/>
		<path fill="#898989" d="M254.522,363.629c0-1.254-0.066-1.892-0.088-2.75h1.473l0.088,1.298h0.045
			c0.463-0.857,1.32-1.452,2.441-1.452c1.475,0,2.574,1.078,2.574,3.652v7.151h-1.693v-6.843c0-1.276-0.242-2.53-1.475-2.53
			c-0.703,0-1.385,0.594-1.584,1.716c-0.066,0.265-0.088,0.594-0.088,0.968v6.689h-1.693V363.629z"/>
		<path fill="#898989" d="M264.532,356.302h1.693v15.227h-1.693V356.302z"/>
		<path fill="#898989" d="M276.368,366.203c0,4.115-1.893,5.501-3.543,5.501c-1.914,0-3.453-1.738-3.453-5.479
			c0-3.873,1.738-5.501,3.564-5.501C274.851,360.725,276.368,362.507,276.368,366.203z M271.065,366.203
			c0,1.761,0.309,4.159,1.848,4.159c1.453,0,1.762-2.486,1.762-4.159c0-1.628-0.309-4.136-1.805-4.136
			C271.351,362.067,271.065,364.575,271.065,366.203z"/>
		<path fill="#898989" d="M284.97,369.108c0,0.813,0.021,1.738,0.109,2.42h-1.518l-0.109-1.122h-0.066
			c-0.463,0.814-1.211,1.298-2.135,1.298c-1.408,0-2.508-1.188-2.508-3.036c0-2.685,2.133-3.851,4.531-3.873v-0.33
			c0-1.43-0.373-2.397-1.693-2.397c-0.66,0-1.254,0.197-1.76,0.55l-0.375-1.188c0.463-0.33,1.43-0.704,2.486-0.704
			c2.135,0,3.037,1.387,3.037,3.763V369.108z M283.319,366.006c-0.881,0-2.926,0.176-2.926,2.486c0,1.408,0.703,1.892,1.297,1.892
			c0.748,0,1.365-0.55,1.562-1.605c0.045-0.198,0.066-0.418,0.066-0.616V366.006z"/>
		<path fill="#898989" d="M294.87,356.302v12.674c0,0.727,0.066,1.937,0.088,2.553h-1.453l-0.109-1.32h-0.066
			c-0.352,0.748-1.1,1.496-2.244,1.496c-1.781,0-3.08-1.936-3.08-5.457c0-3.762,1.562-5.522,3.191-5.522
			c0.791,0,1.539,0.353,1.957,1.254h0.045v-5.677H294.87z M293.198,364.949c0-0.22,0-0.484-0.023-0.704
			c-0.109-1.122-0.77-2.068-1.584-2.068c-1.408,0-1.893,1.959-1.893,4.07c0,2.245,0.572,4.049,1.805,4.049
			c0.529,0,1.254-0.286,1.629-1.826c0.043-0.198,0.066-0.439,0.066-0.704V364.949z"/>
		<path fill="#898989" d="M303.251,371.528v-9.373h-1.342v-1.276h1.342v-0.639c0-1.166,0.176-2.332,0.945-3.212
			c0.617-0.683,1.475-0.902,2.135-0.902c0.572,0,1.012,0.11,1.32,0.264l-0.264,1.32c-0.221-0.088-0.506-0.176-0.947-0.176
			c-1.209,0-1.496,1.298-1.496,2.662v0.683h1.938v1.276h-1.938v9.373H303.251z"/>
		<path fill="#898989" d="M315.483,366.203c0,4.115-1.893,5.501-3.543,5.501c-1.914,0-3.453-1.738-3.453-5.479
			c0-3.873,1.738-5.501,3.564-5.501C313.966,360.725,315.483,362.507,315.483,366.203z M310.181,366.203
			c0,1.761,0.309,4.159,1.848,4.159c1.453,0,1.762-2.486,1.762-4.159c0-1.628-0.309-4.136-1.805-4.136
			C310.466,362.067,310.181,364.575,310.181,366.203z"/>
		<path fill="#898989" d="M318.452,363.629c0-0.901-0.064-1.958-0.088-2.75h1.52l0.088,1.694h0.043
			c0.352-1.013,1.254-1.849,2.244-1.849c0.133,0,0.242,0,0.354,0.022v1.716c-0.111,0-0.221,0-0.354,0c-1.078,0-1.869,0.99-2.045,2.2
			c-0.045,0.286-0.066,0.616-0.066,0.969v5.896h-1.695V363.629z"/>
		<path fill="#898989" d="M329.937,371.528v-9.373h-1.342v-1.276h1.342v-0.639c0-1.166,0.176-2.332,0.945-3.212
			c0.617-0.683,1.475-0.902,2.135-0.902c0.572,0,1.012,0.11,1.32,0.264l-0.264,1.32c-0.221-0.088-0.506-0.176-0.947-0.176
			c-1.209,0-1.496,1.298-1.496,2.662v0.683h1.938v1.276h-1.938v9.373H329.937z"/>
		<path fill="#898989" d="M335.679,363.629c0-0.901-0.066-1.958-0.088-2.75h1.518l0.088,1.694h0.045
			c0.352-1.013,1.254-1.849,2.244-1.849c0.131,0,0.242,0,0.352,0.022v1.716c-0.109,0-0.221,0-0.352,0c-1.078,0-1.871,0.99-2.047,2.2
			c-0.043,0.286-0.066,0.616-0.066,0.969v5.896h-1.693V363.629z"/>
		<path fill="#898989" d="M343.136,366.357c0,3.278,1.299,3.961,2.51,3.961c0.748,0,1.342-0.176,1.76-0.396l0.285,1.232
			c-0.594,0.308-1.496,0.506-2.354,0.506c-2.553,0-3.873-2.09-3.873-5.347c0-3.433,1.475-5.589,3.609-5.589
			c2.156,0,3.035,2.288,3.035,4.665c0,0.418-0.021,0.704-0.043,0.968H343.136z M346.481,365.104c0.021-2.112-0.77-3.059-1.584-3.059
			c-1.123,0-1.672,1.606-1.738,3.059H346.481z"/>
		<path fill="#898989" d="M352.222,366.357c0,3.278,1.299,3.961,2.51,3.961c0.748,0,1.342-0.176,1.76-0.396l0.285,1.232
			c-0.594,0.308-1.496,0.506-2.354,0.506c-2.553,0-3.873-2.09-3.873-5.347c0-3.433,1.475-5.589,3.609-5.589
			c2.156,0,3.035,2.288,3.035,4.665c0,0.418-0.021,0.704-0.043,0.968H352.222z M355.567,365.104c0.021-2.112-0.77-3.059-1.584-3.059
			c-1.123,0-1.672,1.606-1.738,3.059H355.567z"/>
	</g>
</g>
<g>
	<path fill-rule="evenodd" clip-rule="evenodd" fill="#000002" d="M134.698,86.771v-7.297c0.053,0,0.104,0,0.21,0
		c0,2.415,0,4.83,0,7.297C134.803,86.771,134.751,86.771,134.698,86.771L134.698,86.771z M134.698,37.69
		c3.307,6.929,6.667,13.806,9.974,20.682c-0.053,8.137-0.053,16.221-0.053,24.305c-0.787-0.21-1.521-0.367-2.257-0.524
		c-0.053-3.832-0.105-7.664-0.157-11.444c-1.785-0.42-3.518-0.84-5.25-1.207c-0.21,6.037-0.42,12.021-0.577,18.005
		c3.675,1.47,7.297,2.939,10.919,4.357c1.574-0.157,3.097-0.315,4.619-0.473c0.053-12.021,0.053-24.042,0.053-36.062
		c-2.939-6.09-5.827-12.179-8.714-18.268c-0.525-1.732-0.998-3.412-1.47-5.092c0-3.832,0-7.664,0-11.496
		c0.787-0.211,1.574-0.42,2.361-0.631c0.105,2.888,0.158,5.775,0.211,8.609c1.941-0.524,3.884-0.997,5.826-1.47
		c-0.157-5.249-0.314-10.446-0.473-15.644c-1.102-0.052-2.204-0.104-3.254-0.104c-3.202,0.997-6.353,1.995-9.502,2.94
		c-0.787,0.524-1.521,1.049-2.257,1.521V37.69L134.698,37.69z M169.187,102.047c-3.989-2.1-7.979-4.199-12.021-6.299
		c0.105-2.468,0.21-4.987,0.315-7.507c0.787,0.157,1.627,0.367,2.467,0.577c0.053-24.409,0.158-48.871,0.263-73.333
		c-0.84,0.21-1.68,0.473-2.572,0.735c-0.053,2.834-0.104,5.669-0.157,8.557c-1.68,0.472-3.359,0.944-5.092,1.469
		c0-5.564,0-11.128,0-16.744c6.247-2.783,12.546-5.617,18.845-8.452c1.47-0.315,2.992-0.683,4.515-1.05c0,6.037,0,12.126,0,18.215
		c-1.942,0.473-3.885,0.945-5.879,1.47c-0.053-2.624-0.105-5.249-0.211-7.874c-0.524,0.211-1.049,0.42-1.627,0.631
		c-0.052,26.613-0.104,53.28-0.157,79.946c0.893,0.315,1.784,0.63,2.729,0.945c0,2.888,0,5.774,0,8.714
		C170.131,102.047,169.658,102.047,169.187,102.047L169.187,102.047z M134.698,15.695V37.69c-0.104-0.157-0.157-0.315-0.21-0.473
		c0-7.14,0.053-14.278,0.105-21.47C134.594,15.748,134.646,15.748,134.698,15.695L134.698,15.695z M134.698,79.475
		c-0.683,0-1.365,0-1.995,0c-2.204-20.944-4.409-41.837-6.562-62.729c-1.207,0.315-2.362,0.577-3.569,0.84v34.961
		c0.105-0.944,0.21-1.942,0.314-2.992c0.683,7.927,0.683,7.927,0.368,13.123c-0.21-0.104-0.42-0.21-0.683-0.314v7.874
		c0.524,0.104,0.997,0.157,1.522,0.262c0.21,2.521,0.42,5.04,0.577,7.507c-0.473,0-0.945,0-1.417,0c0,2.467,0,4.882,0,7.297
		c2.677,0.524,5.354,0.997,7.979,1.47c1.155,0,2.31,0,3.465,0V79.475L134.698,79.475z M122.572,17.585v34.961
		c-0.263,3.149-0.525,6.299-0.788,9.448c0.263,0.105,0.525,0.263,0.788,0.368v7.874c-0.473-0.105-0.997-0.158-1.522-0.263
		c-0.21,2.415-0.473,4.829-0.735,7.297c0.473,0,0.945,0,1.47,0c0,2.414,0,4.829,0,7.296c-3.621-0.473-7.296-0.944-10.971-1.47
		c0-2.152,0-4.356,0-6.562c0.735,0,1.47,0,2.205,0c2.152-19.423,4.356-38.845,6.562-58.32
		C120.577,18.006,121.575,17.795,122.572,17.585L122.572,17.585z M78.425,82.362v-3.99c0.105,1.312,0.21,2.625,0.315,3.99
		C78.635,82.362,78.53,82.362,78.425,82.362L78.425,82.362z M78.425,53.229c0.367,0,0.735,0,1.05,0
		c0.368,8.504,0.735,17.008,1.103,25.512c0.63,0.892,1.26,1.731,1.837,2.572c2.152,0.682,2.152,0.682,6.562,1.05
		c0-2.415,0-4.83,0-7.244c-0.578-0.21-1.155-0.42-1.68-0.578c-0.315-7.611-0.63-15.223-0.893-22.781
		c-0.263-0.525-0.525-0.997-0.735-1.47c0-1.418,0-1.418,0.735-2.152c0-8.031,0-16.063,0-24.095c-0.63-0.84-1.26-1.68-1.837-2.52
		c-1.208-0.525-2.415-0.997-3.623-1.47c-0.84-0.053-1.68-0.105-2.52-0.158v7.087c0.578,0,1.208,0,1.785,0c0,6.036,0,12.126,0,18.216
		c-0.577,0-1.207,0-1.785,0V53.229L78.425,53.229z M104.252,83.097c-4.567-0.21-9.187-0.473-13.806-0.734c0-2.152,0-4.357,0-6.562
		c0.683,0,1.417,0,2.152,0c0-16.273,0-32.546,0-48.819c-0.945,0-1.89,0-2.888,0c0-2.415,0-4.829,0-7.297c4.357,0,8.714,0,13.123,0
		c0,2.153,0,4.357,0,6.562c-0.787,0.158-1.574,0.315-2.414,0.525c-0.157,16.326-0.314,32.65-0.525,49.029c0.945,0,1.942,0,2.939,0
		c0-3.885,0-7.77,0-11.654c2.152,0,4.357,0,6.562,0c0,6.3,0,12.599,0,18.95C107.717,83.097,105.984,83.097,104.252,83.097
		L104.252,83.097z M0,104.252c0.158-3.202,0.315-6.404,0.525-9.659c1.05-0.42,2.1-0.84,3.15-1.26c0-27.717,0-55.433,0-83.149
		c-1.05-0.42-2.1-0.84-3.15-1.26c0-2.887,0-5.826,0-8.766c6.667,2.781,13.333,5.563,20.053,8.398
		c0.157,5.406,0.367,10.813,0.577,16.221c-1.942-0.211-3.884-0.473-5.827-0.735c-0.157-3.202-0.367-6.404-0.578-9.659
		c-0.577-0.367-1.207-0.734-1.837-1.102c-0.158,9.396-0.315,18.845-0.525,28.293c0.945,0,1.942,0,2.939,0c0-1.68,0-3.412,0-5.144
		c1.68,0,3.359,0,5.092,0c0.21,6.089,0.473,12.179,0.735,18.268c-1.942,0-3.884,0-5.827,0c0-1.681,0-3.412,0-5.145
		c-1.208,0-2.415,0-3.622,0c0.105,11.653,0.21,23.307,0.315,35.013c0.262,1.365,0.577,2.729,0.893,4.147
		c0.577-0.315,1.207-0.683,1.837-1.05c0.368-4.252,0.735-8.505,1.103-12.756c1.995-0.893,3.99-1.785,6.037-2.73
		c-0.157,7.087-0.367,14.174-0.577,21.312C14.226,97.061,7.139,100.63,0,104.252L0,104.252z M78.425,19.895v7.087
		c-0.63,0-1.208,0-1.837,0c0,6.089,0,12.179,0,18.216c0.629,0,1.207,0,1.837,0v8.031c-0.578,0-1.208,0-1.837,0
		c0,7.506,0,15.013,0,22.572c0.524-0.158,1.049-0.315,1.575-0.525c0.104,0.997,0.157,2.047,0.262,3.097v3.99
		c-3.779,0.21-7.559,0.472-11.338,0.734c0-2.152,0-4.356,0-6.562c0.735,0,1.47,0,2.205,0c0-17.008,0-34.016,0-51.023
		c-0.945,0-1.942,0-2.94,0c0-2.152,0-4.357,0-6.562C70.341,19.266,74.383,19.58,78.425,19.895L78.425,19.895z M30.656,90.394
		c2.467-0.525,4.882-0.997,7.296-1.47c1.942-22.1,3.885-44.199,5.827-66.299c0.472,0,0.945,0,1.417,0c0-2.205,0-4.41,0-6.562
		c-3.675-0.734-7.297-1.47-10.919-2.204c0,2.468,0,4.882,0,7.296c0.735,0,1.47,0,2.205,0c-0.63,9.239-1.26,18.479-1.837,27.717
		c-0.262-0.262-0.524-0.524-0.735-0.734c-0.84-9.239-1.68-18.479-2.52-27.717c0.735,0,1.47,0,2.152,0c0-2.467,0-4.882,0-7.297
		c-2.887-0.367-7.296-2.572-11.653-3.621c0.21,2.467,0.368,4.934,0.525,7.4c0.578,0.211,1.155,0.42,1.68,0.578
		C26.299,41.785,28.504,66.089,30.656,90.394L30.656,90.394z M45.932,86.771c0.158-2.258,0.315-4.515,0.525-6.771
		c0.788-0.158,1.575-0.315,2.415-0.525c0-18.688,0-37.428,0-56.168c-0.525-0.157-1.103-0.314-1.68-0.524
		c-0.158-1.995-0.315-3.989-0.525-6.037c5.826,0.735,11.653,1.47,17.533,2.205c0,4.095,0,8.241,0,12.389c-1.68,0-3.412,0-5.145,0
		c0-2.415,0-4.829,0-7.297c-0.945,0-1.89,0-2.887,0c0,6.3,0,12.599,0,18.95c0.945,0,1.89,0,2.887,0c0-0.945,0-1.891,0-2.887
		c1.942,0,3.884,0,5.827,0c-0.21,4.356-0.42,8.713-0.682,13.123c-1.68,0-3.412,0-5.145,0c0-0.945,0-1.942,0-2.939
		c-0.945,0-1.89,0-2.887,0c0,9.238,0,18.478,0,27.716c0.945,0,1.89,0,2.887,0c0-3.359,0-6.771,0-10.184c2.152,0,4.357,0,6.562,0
		c0,5.302,0,10.656,0,16.011C59.055,84.776,52.493,85.774,45.932,86.771L45.932,86.771z"/>
</g>
</svg>
