<?xml version="1.0" encoding="utf-8"?>
<!-- Generator: Adobe Illustrator 16.0.0, SVG Export Plug-In . SVG Version: 6.00 Build 0)  -->
<!DOCTYPE svg PUBLIC "-//W3C//DTD SVG 1.1//EN" "http://www.w3.org/Graphics/SVG/1.1/DTD/svg11.dtd">
<svg version="1.1" id="Layer_1" xmlns="http://www.w3.org/2000/svg" xmlns:xlink="http://www.w3.org/1999/xlink" x="0px" y="0px"
	 width="239.903px" height="79.032px" viewBox="0 0 239.903 79.032" enable-background="new 0 0 239.903 79.032"
	 xml:space="preserve">
<g>
	<path fill-rule="evenodd" clip-rule="evenodd" fill="#FFFFFF" d="M10.65,1.682h49.326c5.793,0,10.465,4.484,10.465,10.276v0.747
		c0,5.792-4.672,10.463-10.465,10.463H10.65C4.858,23.168,0,18.497,0,12.705v-0.747C0,6.166,4.858,1.682,10.65,1.682L10.65,1.682z"
		/>
	<path fill-rule="evenodd" clip-rule="evenodd" fill="#1E355B" d="M0,39.423c0-5.604,5.231-9.715,11.024-9.715h43.721
		c5.792,0,10.463,4.671,10.463,10.463v0.561c0,5.791-4.671,10.463-10.463,10.463H25.037c-1.495,0-2.803,1.308-2.803,2.802v14.575
		c0,5.792-4.671,10.461-10.462,10.461h-1.308C4.672,79.032,0,74.363,0,68.571V39.423L0,39.423z"/>
	<path fill-rule="evenodd" clip-rule="evenodd" fill="#1E355B" d="M77.166,68.571L76.979,10.65C76.979,4.857,81.464,0,87.442,0
		h1.121c5.791,0,10.463,4.857,10.463,10.65l0.187,57.921c0,5.792-4.671,10.461-10.463,10.461h-1.308
		C81.649,79.032,77.166,74.363,77.166,68.571L77.166,68.571z"/>
	<path fill-rule="evenodd" clip-rule="evenodd" fill="#1E355B" d="M210.198,6.913l23.353,38.117
		c5.233,8.22,6.353,10.275,6.353,16.44c0,9.529-8.781,16.815-16.44,16.815h-31.576c-5.791,0-10.464-3.923-10.464-9.715v-0.561
		c0-5.791,4.673-10.464,10.464-10.464h19.43c1.122,0,1.868-0.188,2.244-0.934c0.373-0.935,0.185-1.308-0.376-2.244l-13.823-22.232
		c-0.188-0.374-0.376-0.935-0.749-0.935c-0.561,0-0.746,0.561-0.934,0.935l-21.113,36.247c-3.362,5.791-7.289,9.902-12.892,9.902
		h-40.546c-7.847,0-15.507-7.474-15.507-15.321V10.65c0-5.793,4.671-10.464,10.463-10.464h1.308c5.792,0,10.462,4.671,10.462,10.464
		v42.785c0,1.495,1.122,2.802,2.805,2.802h20.179c3.551,0,5.604-1.307,7.474-4.481l27.092-44.843
		c2.617-4.297,6.726-6.539,11.583-6.539C203.657,0.374,207.394,2.429,210.198,6.913L210.198,6.913z"/>
	<path fill-rule="evenodd" clip-rule="evenodd" fill="#ED1C24" d="M10.65,1.682h49.326c5.793,0,10.465,4.484,10.465,10.276v0.747
		c0,5.792-4.672,10.463-10.465,10.463H10.65C4.858,23.168,0,18.497,0,12.705v-0.747C0,6.166,4.858,1.682,10.65,1.682L10.65,1.682z"
		/>
</g>
</svg>
