<?xml version="1.0" encoding="utf-8"?>
<!-- Generator: Adobe Illustrator 16.0.0, SVG Export Plug-In . SVG Version: 6.00 Build 0)  -->
<!DOCTYPE svg PUBLIC "-//W3C//DTD SVG 1.1//EN" "http://www.w3.org/Graphics/SVG/1.1/DTD/svg11.dtd">
<svg version="1.1" id="Layer_1" xmlns="http://www.w3.org/2000/svg" xmlns:xlink="http://www.w3.org/1999/xlink" x="0px" y="0px"
	 width="154.369px" height="84.821px" viewBox="0 0 154.369 84.821" enable-background="new 0 0 154.369 84.821"
	 xml:space="preserve">
<g>
	<path fill-rule="evenodd" clip-rule="evenodd" fill="#231F20" d="M56.306,83.224c-1.449,0.881-3.109,1.174-4.69,0.941
		c-2.031-0.297-3.933-1.459-5.077-3.346c-1.341,0.49-2.727,0.625-4.033,0.438c-2.876-0.408-5.378-2.363-6.236-5.449
		c-1.856,1.924-4.252,2.607-6.483,2.307c-3.262-0.439-6.176-2.975-6.556-6.795l-0.398-0.035l0.27-1.249
		c-1.236,0.826-2.186,0.76-3.688,0.809c0.595-2.799,0.51-4.352-0.267-4.944c-0.883-0.675-2.657-0.115-5.354,1.256
		c-0.549-1.486-1.061-2.151-1.786-2.333c-0.728-0.18-1.667,0.129-3.069,0.585c-1.906-2.676-3.748-0.954-6.171,0.433
		c-0.45-2.781-0.822-3.885-2.368-6.146c1.133-0.728,1.992-1.48,2.574-2.261c0.969-1.301,1.171-2.681,0.608-4.135
		c1.458-0.556,1.744-0.534,0.794-1.955c0.028-1.93-1.505-1.497-3.132-1.44C1.466,47.472,1.167,46.714,0,44.643
		c1.81-1.654,1.746-1.688,1.44-4.075c3.215,0.064,6.667,0.062,8.965-2.572c1.956-2.492,2.204-4.222,1.123-7.032
		c0.686-0.372,1.369-0.749,2.067-1.097c-1.994-0.068-4.585,0.184-4.318-2.598c0.245-1.67-0.601-3.099-0.244-4.561
		c0.056-1.377-2.07-5.949-2.39-6.833c2.404,1.038,4.81,2.142,7.321,2.909c1.978,0.565,1.53-0.961,1.349-2.388
		c0.099-0.008,6.082-0.737,3.791-2.263c-1.07-0.484-2.982-0.025-3.983,0.039c1.755-2.447,3.421-4.008,5.641-4.525
		c1.332-0.31,2.866-0.247,4.736,0.224c4.432,1.32,5.763,4.64,8.675,7.759c0.689,0.691,1.396,1.432,2.379,0.758
		c2.519-2.732-3.5-5.385-5.056-6.369l1.688-1.406c0.663,0.081,2.599,0.488,3.164,0.003c-0.3-1.353-2.511-3.493-3.258-4.347
		c1.452-0.176,2.899-0.479,4.361-0.309c4.292,1.051,2.543,6.672,8.21,4.52c2.234,2.99,3.454,2.202,5.943,0.027l2.029,2.499
		c5.993-7.448,15.06-11.388,24.137-11.171c5.267,0.125,10.538,1.652,15.213,4.704c1.691-1.183,3.666-1.769,5.616-1.714
		c1.947,0.057,3.871,0.754,5.461,2.143c0.983-4.713,4.838-7.024,8.75-6.967c3.672,0.057,7.396,2.203,8.838,6.415
		c4.737,0.104,8.265,3.878,8.536,8.093c0.106,1.648-0.287,3.367-1.298,4.961c0.87,1.012,1.518,2.113,1.937,3.384
		c1.661-0.224,2.265-0.519,3.718-1.358l2.622,0.547c0.798,2.48,1.678,1.055,3.453,3.01c2.515,0.482,2.126,2.479,4.903,1.172
		c2.222,3.338,2.883,3.472,6.837,3.752c-1.979,2.691-3.905,5.543-7.627,5.531c1.283,0.631,2.447,1.473,3.627,2.273l-1.167,0.943
		c1.678,0.84,0.896,3.277,2.611,3.785c2.813,1.033,3.855,2.456,4.567,5.562c-0.129,0-5.131-0.842-4.608,0.798
		c0.522,0.952,2.27,0.52,1.891,2.38l-0.056,0.664c-0.694,0.32-1.448,0.603-2.071,1.053c2.99,4.804,0.067,10.727-5.508,11.57
		c-0.288,5.414-4.479,8.811-9.114,8.985c-1.958,0.07-3.997-0.43-5.856-1.6l-1.387-1.194c-1.717,5.061-5.75,7.204-9.767,7.104
		c-5.871-0.146-11.706-5.072-10.218-12.653c-0.424-0.229-0.782-0.425-1.14-0.736c-1.667,2.367-4.374,3.705-7.155,3.852
		c-1.669,0.088-3.363-0.251-4.877-1.054c-0.39,0.69-0.872,1.243-1.477,1.753c1.662,4.454-1.818,8.493-5.817,8.731
		c-1.331,0.078-2.723-0.266-3.998-1.154c-0.785,2.748-3.072,4.035-5.405,4.02c-2.334-0.02-4.715-1.338-5.683-3.805
		c-1.407,1.594-3.675,2.576-5.791,2.057c0.021,3.727-2.905,6.021-5.989,5.979C58.942,84.8,57.509,84.294,56.306,83.224
		L56.306,83.224z M137.732,35.15c-1.799-0.235-4.174-0.677-5.021-0.61c-1.603,0.127-2.353,0.723-2.339,1.33
		c0.017,0.689,1.021,1.635,2.307,1.338C134.002,36.902,135.82,35.454,137.732,35.15L137.732,35.15z"/>
	<path fill-rule="evenodd" clip-rule="evenodd" fill="#C65498" d="M139.12,51.108c-0.063,0-0.063,0.061-0.125,0.061h0.062
		c-0.367,0.43-0.677,0.801-1.105,1.171c-0.31-1.171-0.863-2.341-1.602-3.266h0.122c0.308,0,0.556-0.245,0.556-0.491
		c0-0.309-0.248-0.494-0.556-0.494h-0.861h-0.062c-0.062,0-0.062,0-0.062,0c-0.678-0.678-1.478-1.294-2.339-1.662h2.4
		c0.308,0,0.491-0.247,0.491-0.555c0-0.244-0.184-0.431-0.491-0.431h-5.787c-0.245,0-0.553,0-0.8,0
		c-0.678,0-1.354,0.062-2.031,0.187c0.062-0.494,0.122-0.987,0.122-1.541h6.218c0.308,0,0.554-0.186,0.554-0.492
		c0-0.246-0.246-0.434-0.554-0.434h-6.218c1.354-2.153,3.695-3.51,6.218-3.51c1.972,0,3.757,0.74,5.109,2.095
		c1.293,1.415,2.095,3.202,2.095,5.112C140.475,48.397,139.981,49.876,139.12,51.108L139.12,51.108z"/>
	<path fill-rule="evenodd" clip-rule="evenodd" fill="#C65498" d="M126.684,62.686c-0.431-0.676-0.861-1.353-1.416-1.972h1.17
		c0.246,0,0.493-0.182,0.493-0.492c0-0.246-0.247-0.492-0.493-0.492h-2.155c-0.676-0.492-1.355-0.924-2.092-1.293h3.632
		c0.246,0,0.431-0.184,0.431-0.492c0-0.248-0.185-0.493-0.431-0.493h-4.002c0-0.555,0-1.171-0.062-1.725h3.078
		c0.247,0,0.431-0.245,0.431-0.493c0-0.246-0.184-0.492-0.431-0.492h-3.324c-0.123-0.494-0.308-1.047-0.492-1.601h2.832
		c0.307,0,0.491-0.185,0.491-0.433c0-0.307-0.185-0.491-0.491-0.491h-2.032c0.924-0.433,1.786-1.048,2.523-1.785
		c1.047-1.047,1.848-2.343,2.34-3.758c0.74-0.187,1.539-0.31,2.401-0.31c0.061,0,0.061,0.062,0.124,0.062h0.553
		c1.908,0.124,3.693,0.984,5.048,2.341c1.601,1.602,2.463,3.634,2.463,5.851c0,4.619-3.694,8.375-8.311,8.375
		c-0.739,0-1.538-0.121-2.278-0.369V62.686L126.684,62.686z"/>
	<path fill-rule="evenodd" clip-rule="evenodd" fill="#C65498" d="M113.941,38.481c-0.803-0.8-1.662-1.418-2.71-1.785
		c-1.045-0.492-2.155-0.678-3.384-0.678c-0.616,0-1.172,0.061-1.726,0.123c-0.431,2.464-1.046,4.928-2.092,7.207h1.907
		c0.247,0,0.431,0.184,0.431,0.492c0,0.246-0.184,0.432-0.431,0.432H103.6c-0.31,0.614-0.555,1.169-0.802,1.6h5.05
		c0.244,0,0.489,0.308,0.489,0.555s-0.245,0.432-0.489,0.432h-5.604c-0.309,0.493-0.614,0.984-0.923,1.416h8.189
		c0.308,0,0.491,0.185,0.491,0.493c0,0.245-0.184,0.431-0.491,0.431h-8.806c0.125,0.246,0.247,0.432,0.433,0.615
		c0.061,0,0.122,0,0.122,0v0.124c0.186,0.308,0.37,0.494,0.676,0.74h5.974c0.307,0,0.491,0.245,0.491,0.491s-0.185,0.43-0.491,0.43
		h-4.803c1.355,0.986,3.017,1.48,4.742,1.48c4.74,0,8.618-3.756,8.618-8.502C116.466,42.3,115.543,40.083,113.941,38.481
		L113.941,38.481z"/>
	<path fill-rule="evenodd" clip-rule="evenodd" fill="#C65498" d="M106.307,34.479h1.785c0.308,0,0.493-0.186,0.493-0.494
		c0-0.246-0.186-0.553-0.493-0.553h-1.724c0-0.434,0.062-0.986,0.062-1.418h2.277c0.309,0,0.493-0.246,0.493-0.554
		c0-0.247-0.185-0.493-0.493-0.493h-2.277c0-0.491-0.062-1.107-0.123-1.662h3.264c0.307,0,0.491-0.186,0.491-0.432
		c0-0.307-0.185-0.553-0.491-0.553h-3.324c-0.062-0.557-0.124-1.049-0.185-1.602h0.553c0.247,0,0.432-0.247,0.432-0.555
		c0-0.249-0.185-0.433-0.432-0.433h-0.74c-0.429-2.155-1.105-4.249-2.029-6.158c1.17-0.554,2.401-0.802,3.631-0.802
		c2.401,0,4.557,0.926,6.28,2.589c1.663,1.661,2.524,3.879,2.524,6.28c0,3.389-1.97,6.469-5.049,7.947
		c-1.045-0.372-2.155-0.617-3.384-0.617c-0.557,0-1.05,0.121-1.602,0.185C106.246,34.911,106.307,34.665,106.307,34.479
		L106.307,34.479z"/>
	<path fill-rule="evenodd" clip-rule="evenodd" fill="#C65498" d="M113.572,14.956c0.923,0,1.723,0.123,2.585,0.43
		c0.062,0,0.123,0.062,0.246,0.062c1.293,0.367,2.464,1.108,3.387,2.094c1.661,1.664,2.646,3.88,2.646,6.221
		c0,4.002-2.646,7.451-6.279,8.499c0.43-0.862,0.8-1.847,0.983-2.895h0.186c0.247,0,0.492-0.185,0.492-0.432
		c0-0.308-0.245-0.492-0.492-0.492h-0.123c0.062-0.246,0.062-0.554,0.062-0.802c0-0.922-0.124-1.785-0.308-2.648h0.062
		c0.246,0,0.432-0.183,0.432-0.492c0-0.245-0.186-0.432-0.432-0.432h-0.432c-0.184-0.554-0.43-1.107-0.798-1.539h0.06
		c0.309,0,0.493-0.245,0.493-0.491c0-0.247-0.185-0.493-0.493-0.493h-0.738c-0.186-0.309-0.43-0.555-0.739-0.861
		c-0.246-0.248-0.494-0.494-0.861-0.74c0.308-0.062,0.492-0.246,0.492-0.492c0-0.311-0.185-0.494-0.492-0.494h-1.478
		c-1.354-0.738-2.893-1.108-4.557-1.108c-0.185,0-0.307,0-0.43,0C108.707,16.002,111.108,14.956,113.572,14.956L113.572,14.956z"/>
	<path fill-rule="evenodd" clip-rule="evenodd" fill="#C65498" d="M116.649,33.124c-0.43,0.123-0.86,0.246-1.293,0.309
		c-0.739,1.107-1.847,2.031-2.956,2.709c0.125,0.062,0.188,0.062,0.31,0.123c1.477-1.048,3.199-1.664,5.108-1.664
		c1.231,0,2.4,0.186,3.511,0.678c0-0.122,0-0.367,0.061-0.492C119.666,34.726,118.065,34.11,116.649,33.124L116.649,33.124z"/>
	<path fill-rule="evenodd" clip-rule="evenodd" fill="#C65498" d="M114.617,51.292c0.369-0.369,0.739-0.799,0.985-1.17h3.017
		c0.248,0,0.491-0.246,0.491-0.492c0-0.245-0.243-0.556-0.491-0.556h-2.339c0.123-0.245,0.307-0.615,0.43-0.925h3.941
		c0.308,0,0.491-0.184,0.491-0.553c0-0.245-0.184-0.432-0.491-0.432h-3.571c0.061-0.431,0.185-0.861,0.246-1.354h1.047
		c0.31,0,0.554-0.183,0.554-0.431c0-0.307-0.244-0.555-0.554-0.555h-0.985c0-0.062,0-0.185,0-0.248c0-0.49,0-0.922-0.062-1.354
		h1.047c0.31,0,0.494-0.186,0.494-0.492c0-0.246-0.185-0.432-0.494-0.432h-1.232c-0.431-1.662-1.292-3.201-2.523-4.495
		c-0.368-0.431-0.74-0.741-1.169-0.985c1.292-0.801,2.832-1.294,4.37-1.294c2.216,0,4.31,0.863,5.848,2.465
		c1.602,1.538,2.463,3.632,2.463,5.911c0,4.496-3.692,8.254-8.311,8.254c-1.169,0-2.275-0.248-3.323-0.74
		C114.556,51.354,114.556,51.354,114.617,51.292L114.617,51.292z"/>
	<path fill-rule="evenodd" clip-rule="evenodd" fill="#3CAF4E" d="M133.578,23.516c0.246-0.245,0.862-0.554,1.171-0.739l1.478,0.309
		c0.123,0.431,0.431,1.049,0.861,1.416c0.431,0.31,0.8,0.371,1.292,0.31c0.37-0.124,1.602,1.354,1.602,1.354l1.293,0.244
		c0.306,0.432,0.923,1.109,1.908,1.48c0.861,0.308,1.414,0.121,1.908-0.125c0.369,0.557,0.924,1.418,1.725,2.096
		c0.984,0.801,2.152,1.107,3.261,1.17c-0.922,1.293-2.708,3.264-5.17,3.264c-4.741,0-7.079-0.431-8.866-0.739
		c-1.23-0.246-2.216-0.431-3.631-0.431c-2.524,0-3.632,1.416-3.632,2.588c0,0.677,0.308,1.416,0.861,1.97
		c0.43,0.431,1.293,1.047,2.833,1.047c-2.157,0.187-4.249,1.354-5.603,3.079c-0.37-1.662-1.232-3.266-2.525-4.557
		c-0.554-0.493-1.229-1.047-1.907-1.479c-0.246-0.37-0.124-0.801-0.124-0.986c2.278-0.061,4.432-0.984,6.095-2.586
		c0.738-0.801,1.415-1.724,1.787-2.649c0.8,0.062,3.63,0.249,5.293,1.049c0.246,0.062,0.553,0,0.678-0.247
		c0.062-0.309,0-0.553-0.248-0.678c-1.66-0.739-4.247-1.047-5.293-1.107c0.247-0.926,0.37-1.848,0.37-2.835
		c0-0.554,0-1.169-0.123-1.663C131.795,23.946,133.024,23.824,133.578,23.516L133.578,23.516z"/>
	<path fill-rule="evenodd" clip-rule="evenodd" fill="#C65498" d="M121.944,33.863c-1.478,0-2.956-0.431-4.188-1.232
		c1.047-0.431,2.033-1.108,2.833-1.97h1.046c0.246,0,0.492-0.185,0.492-0.494c0-0.246-0.246-0.431-0.492-0.431h-0.246
		c0.492-0.616,0.801-1.231,1.169-1.909h1.54c0.245,0,0.492-0.186,0.492-0.432c0-0.308-0.247-0.555-0.492-0.555h-1.231
		c0.185-0.432,0.368-1.047,0.431-1.601h1.662c0.246,0,0.431-0.185,0.431-0.554c0-0.248-0.185-0.431-0.431-0.431h-1.601
		c0.061-0.122,0.061-0.31,0.061-0.493c0-2.279-0.8-4.373-2.215-6.16c0.246,0,0.554,0,0.739,0c2.215,0,4.185,0.803,5.726,2.342
		c1.539,1.539,2.398,3.633,2.398,5.788C130.068,30.167,126.438,33.863,121.944,33.863L121.944,33.863z"/>
	<path fill-rule="evenodd" clip-rule="evenodd" fill="#C65498" d="M128.962,15.017c0,1.418-0.369,2.71-1.107,3.819
		c-1.602-1.417-3.695-2.216-5.91-2.216c-0.555,0-0.985,0.061-1.54,0.121c-0.555-0.492-1.106-0.926-1.722-1.293h0.615
		c0.244,0,0.492-0.248,0.492-0.492c0-0.247-0.248-0.557-0.492-0.557h-2.771c-0.737-0.183-1.54-0.307-2.34-0.369
		c0.494-3.694,3.632-6.404,7.326-6.404c2.032,0,3.878,0.74,5.294,2.095C128.223,11.138,128.962,13.046,128.962,15.017
		L128.962,15.017z"/>
	<path fill-rule="evenodd" clip-rule="evenodd" fill="#C65498" d="M112.956,1.099c3.447,0,6.525,2.279,7.511,5.605
		c-3.757,0.431-6.834,3.448-7.265,7.326c-2.832,0.062-5.419,1.418-7.141,3.512c0.614-1.17,0.861-2.525,0.861-3.879
		c0-0.187,0-0.431,0-0.617h3.631c0.246,0,0.432-0.246,0.432-0.492s-0.186-0.492-0.432-0.492h-3.756
		c-0.06-0.371-0.184-0.803-0.368-1.17h2.277c0.309,0,0.493-0.248,0.493-0.556c0-0.247-0.185-0.431-0.493-0.431h-2.646
		c-0.245-0.553-0.616-1.17-0.985-1.602C105.445,4.177,108.83,1.099,112.956,1.099L112.956,1.099z"/>
	<path fill-rule="evenodd" clip-rule="evenodd" fill="#C65498" d="M98.305,6.024c2.092,0,3.938,0.801,5.417,2.279
		c1.476,1.354,2.277,3.326,2.277,5.359c0,1.723-0.554,3.324-1.601,4.619c-0.309,0.123-0.615,0.307-0.923,0.431
		c-0.678-1.417-1.479-2.772-2.339-4.004h0.429c0.309,0,0.494-0.247,0.494-0.492s-0.186-0.433-0.494-0.433h-1.169
		c-0.367-0.552-0.739-1.045-1.171-1.477h3.079c0.245,0,0.493-0.246,0.493-0.492s-0.248-0.433-0.493-0.433h-3.94
		c-0.183-0.245-0.368-0.431-0.613-0.677c-1.17-1.232-2.525-2.279-3.941-3.264C95.164,6.456,96.702,6.024,98.305,6.024L98.305,6.024z
		"/>
	<path fill-rule="evenodd" clip-rule="evenodd" fill="#E1352D" d="M97.134,11.444c-5.417-5.42-12.62-8.438-20.254-8.438
		s-14.835,3.018-20.192,8.438c-3.324,3.265-5.726,7.269-7.078,11.518h0.923c0.245,0,0.492,0.309,0.492,0.554
		c0,0.247-0.248,0.431-0.492,0.431H49.3c-0.122,0.555-0.246,1.109-0.369,1.664h1.478c0.309,0,0.492,0.246,0.492,0.49
		c0,0.309-0.184,0.495-0.492,0.495h-1.663c-0.124,0.492-0.185,1.046-0.248,1.663h3.079c0.247,0,0.494,0.185,0.494,0.432
		c0,0.307-0.247,0.492-0.494,0.492h-3.14c-0.061,0.554-0.122,1.046-0.122,1.662h4.554c0.248,0,0.433,0.186,0.433,0.493
		c0,0.246-0.186,0.431-0.433,0.431h-2.646c1.047,0.432,1.97,0.986,2.77,1.664h1.172c0.306,0,0.553,0.246,0.553,0.492
		s-0.247,0.492-0.553,0.492h-0.248c0.43,0.494,0.801,1.047,1.107,1.662h1.479c0.307,0,0.553,0.186,0.553,0.431
		c0,0.31-0.246,0.554-0.553,0.554h-1.048c0.185,0.496,0.31,1.049,0.371,1.603h2.093c0.246,0,0.494,0.185,0.494,0.493
		c0,0.247-0.248,0.492-0.494,0.492h-2.03c0,0.062,0,0.248,0,0.369c0,0.371,0,0.864-0.062,1.232h4.248
		c0.246,0,0.432,0.247,0.432,0.555c0,0.246-0.186,0.492-0.432,0.492H55.64c-0.122,0.432-0.307,0.924-0.553,1.355
		c0.616-0.123,1.232-0.186,1.848-0.186c0.923,0,1.786,0.125,2.646,0.432h3.879c0.247,0,0.494,0.246,0.494,0.493
		c0,0.308-0.247,0.492-0.494,0.492h-1.908c0.368,0.247,0.8,0.616,1.168,0.985c0.186,0.185,0.433,0.432,0.617,0.679h2.587
		c0.246,0,0.494,0.184,0.494,0.493c0,0.244-0.248,0.428-0.494,0.428h-1.911c0.247,0.555,0.494,1.111,0.74,1.666h5.54
		c0.246,0,0.432,0.247,0.432,0.492c0,0.246-0.187,0.492-0.432,0.492h-5.354c0.123,0.492,0.183,1.047,0.183,1.662h10.22
		c0.248,0,0.494,0.186,0.494,0.433c0,0.307-0.247,0.491-0.494,0.491h-10.28c-0.123,0.617-0.248,1.109-0.431,1.662h18.776
		c0.309,0,0.493,0.186,0.493,0.494c0,0.247-0.185,0.432-0.493,0.432H64.569c0.861,0.494,1.538,0.984,2.154,1.661h17.054
		c0.246,0,0.431,0.187,0.431,0.494c0,0.245-0.185,0.493-0.431,0.493h-2.463c0.491,0.309,1.046,0.615,1.477,1.107
		c0.185,0.186,0.369,0.31,0.492,0.555c12.867-2.955,22.163-14.658,22.163-27.961C105.445,23.946,102.49,16.802,97.134,11.444
		L97.134,11.444z"/>
	<path fill-rule="evenodd" clip-rule="evenodd" fill="#E3B238" d="M83.468,63.117c0,2.587-2.033,4.681-4.679,4.681
		c-0.062,0-0.062,0-0.124,0c0.309-0.617,0.431-1.293,0.431-2.031c0-1.541-0.616-2.895-1.662-4.004
		c-0.677-0.679-1.478-1.172-2.401-1.479c0.863-1.169,2.155-1.909,3.756-1.909c1.294,0,2.4,0.493,3.387,1.418
		c0.245,0.184,0.43,0.491,0.614,0.799v0.062l0,0c0.309,0.431,0.492,0.924,0.615,1.479c0,0,0,0.061-0.061,0.061l0.061,0.062
		C83.468,62.501,83.468,62.81,83.468,63.117L83.468,63.117z"/>
	<path fill-rule="evenodd" clip-rule="evenodd" fill="#E3B238" d="M73.74,70.507c-0.308,0-0.739,0-1.045-0.061
		c-0.739-1.477-2.094-2.588-3.693-3.02c-0.188-0.492-0.31-1.046-0.31-1.66c0-1.234,0.493-2.402,1.355-3.327
		c0.985-0.862,2.094-1.417,3.386-1.417c1.232,0,2.463,0.555,3.325,1.417c0.861,0.925,1.293,2.093,1.293,3.327
		c0,1.23-0.369,2.338-1.171,3.203C75.649,69.214,74.602,69.708,73.74,70.507L73.74,70.507z"/>
	<path fill-rule="evenodd" clip-rule="evenodd" fill="#C4D88F" d="M38.096,69.581h3.879c0.246,0,0.492-0.182,0.492-0.43
		c0-0.307-0.247-0.553-0.492-0.553h-4.803c-0.492-0.494-0.799-1.048-1.169-1.725h5.11c0.246,0,0.492-0.246,0.492-0.493
		c0-0.245-0.247-0.431-0.492-0.431h-4.556c0.615-0.432,1.171-0.925,1.662-1.418l0,0h2.155c0.247,0,0.432-0.184,0.432-0.49
		c0-0.248-0.185-0.432-0.432-0.432h-1.293c1.232-1.601,1.848-3.572,1.848-5.543c0.861,0.186,1.722,0.307,2.647,0.307
		c1.417,0,2.832-0.307,4.125-0.923c1.909,1.416,3.139,3.757,3.139,6.22c0,4.25-3.446,7.7-7.756,7.7
		C41.238,71.371,39.514,70.755,38.096,69.581L38.096,69.581z"/>
	<path fill-rule="evenodd" clip-rule="evenodd" fill="#C4D88F" d="M38.651,41.253c-0.124-0.368-0.185-0.861-0.185-1.232
		c0-1.17,0.246-2.216,0.615-3.201c-1.353-0.31-2.584-0.863-3.571-1.727c-0.984-0.367-1.908-0.553-2.831-0.553
		c-2.094,0-4,0.862-5.481,2.279c-1.414,1.355-2.216,3.264-2.277,5.173h4.74c0.309,0,0.494,0.248,0.494,0.493
		c0,0.246-0.185,0.553-0.494,0.553h-4.74c0.061,0.617,0.186,1.356,0.491,1.973h5.111c0.308,0,0.491,0.246,0.491,0.554
		c0,0.246-0.183,0.432-0.491,0.432h-4.679c0.37,0.678,0.801,1.292,1.354,1.847c1.48,1.48,3.387,2.279,5.481,2.279
		c0.491,0,0.983-0.123,1.6-0.246c0-0.246,0-0.491,0-0.802C34.279,45.811,36.003,42.917,38.651,41.253L38.651,41.253z"/>
	<path fill-rule="evenodd" clip-rule="evenodd" fill="#C4D88F" d="M39.944,57.696c-1.046-0.43-2.031-1.107-3.017-2.031
		c-1.294-1.295-2.156-2.957-2.524-4.866c-0.677,0.186-1.17,0.247-1.723,0.247c-1.355,0-2.586-0.309-3.816-0.863
		c-1.786,0.616-3.388,2.034-4.311,3.635c-0.616,1.047-1.046,2.279-1.168,3.449h4.861c0.309,0,0.555,0.247,0.555,0.492
		c0,0.309-0.246,0.494-0.555,0.494h-4.861c0,0.738,0.122,1.539,0.431,2.215h5.355c0.306,0,0.491,0.246,0.491,0.494
		c0,0.309-0.185,0.492-0.491,0.492h-5.049c0.185,0.432,0.492,0.924,0.8,1.355h5.233c0.246,0,0.43,0.184,0.43,0.492
		s-0.184,0.492-0.43,0.492h-4.433c0.062,0,0.062,0.061,0.062,0.061c1.599,1.604,3.692,2.465,5.909,2.465
		c4.618,0,8.311-3.756,8.311-8.375C40.004,57.884,39.944,57.759,39.944,57.696L39.944,57.696z"/>
	<path fill-rule="evenodd" clip-rule="evenodd" fill="#C4D88F" d="M25.413,35.093H22.83c0-0.367,0-0.676,0-1.045h1.784
		c0.248,0,0.43-0.185,0.43-0.432c0-0.308-0.183-0.555-0.43-0.555h-1.601c0.31-1.047,0.862-2.031,1.662-2.833
		c1.17-1.231,2.894-1.907,4.557-1.907c1.169,0,2.338,0.307,3.324,0.924c0.062,1.662,0.677,3.201,1.6,4.494
		c-0.493-0.061-0.985-0.123-1.476-0.123c-3.756,0-6.958,2.34-8.127,5.666c-0.801-0.924-1.354-2.154-1.601-3.264h2.461
		c0.249,0,0.432-0.246,0.432-0.493S25.662,35.093,25.413,35.093L25.413,35.093z"/>
	<path fill-rule="evenodd" clip-rule="evenodd" fill="#C4D88F" d="M35.633,23.886c1.294-1.293,3.079-2.032,4.926-2.032
		c1.908,0,3.693,0.739,4.988,2.032c1.106,1.17,1.846,2.587,2.031,4.004c-0.124,1.107-0.185,2.217-0.248,3.324
		c0,0.062,0,0.062,0,0.062h-0.122c-3.325,0-6.156,1.848-7.634,4.619c-2.093-0.307-3.877-1.479-4.986-3.141h2.832
		c0.246,0,0.493-0.309,0.493-0.555s-0.247-0.494-0.493-0.494h-3.264c-0.368-0.553-0.493-1.291-0.615-1.97h2.215
		c0.247,0,0.555-0.308,0.555-0.554c0-0.247-0.308-0.492-0.555-0.492h-2.215c0-0.432,0.062-0.926,0.122-1.295h2.34
		c0.308,0,0.493-0.308,0.493-0.555c0-0.245-0.186-0.432-0.493-0.432h-1.97C34.342,25.486,34.895,24.626,35.633,23.886L35.633,23.886
		z"/>
	<path fill-rule="evenodd" clip-rule="evenodd" fill="#C4D88F" d="M52.687,34.54c1.479,1.479,2.277,3.387,2.277,5.48
		c0,2.279-0.984,4.374-2.708,5.852c-0.494-1.17-1.231-2.34-2.156-3.324c-1.723-1.725-4.063-2.71-6.524-2.71
		c-1.478,0-2.832,0.308-4.062,0.924c0-0.495,0-1.049,0-1.542h3.199c0.247,0,0.492-0.246,0.492-0.491
		c0-0.247-0.245-0.433-0.492-0.433h-3.016c0.307-1.416,0.985-2.771,2.092-3.756c1.416-1.479,3.388-2.278,5.418-2.278
		C49.3,32.262,51.271,33.062,52.687,34.54L52.687,34.54z"/>
	<path fill-rule="evenodd" clip-rule="evenodd" fill="#C4D88F" d="M61.983,46.551c1.416,1.354,2.156,3.141,2.156,5.048
		c0,3.389-2.28,6.16-5.418,6.961c0.306-0.801,0.491-1.663,0.491-2.525c0-1.047-0.307-2.154-0.677-3.078h1.785
		c0.247,0,0.494-0.186,0.494-0.433c0-0.307-0.247-0.491-0.494-0.491h-2.34l0,0c-0.245-0.434-0.553-0.74-0.861-1.048h1.663
		c0.245,0,0.494-0.247,0.494-0.491c0-0.248-0.249-0.556-0.494-0.556c0,0-2.648,0.062-2.709,0.062
		c-0.985-0.614-2.092-1.108-3.324-1.293c0-0.617-0.062-1.234-0.247-1.848c0.801-0.494,1.416-1.23,1.97-1.972
		c0.801-0.246,1.601-0.492,2.463-0.492C58.843,44.395,60.627,45.134,61.983,46.551L61.983,46.551z"/>
	<path fill-rule="evenodd" clip-rule="evenodd" fill="#C96D4E" d="M73.986,60.1c-2.092-0.186-4.124-0.615-6.093-1.232
		c-0.186-0.369-0.309-0.614-0.494-0.923h8.989C75.404,58.437,74.541,59.175,73.986,60.1L73.986,60.1z"/>
	<path fill-rule="evenodd" clip-rule="evenodd" fill="#C4D88F" d="M67.462,61.515c0,2.465-1.785,4.742-4.125,5.605
		c-0.492-0.123-0.984-0.186-1.478-0.186c-0.061-1.107-0.307-2.094-0.799-2.955c0.246-0.062,0.368-0.247,0.368-0.555
		c0-0.246-0.186-0.432-0.431-0.432h-0.553c-0.186-0.308-0.432-0.554-0.74-0.738h0.185c0.309,0,0.494-0.245,0.494-0.556
		c0-0.245-0.186-0.429-0.494-0.429h-1.415c-0.371-0.248-0.679-0.371-1.048-0.494c0.369-0.309,0.553-0.677,0.799-1.047
		c2.526-0.555,4.435-1.908,5.542-3.695C65.983,56.957,67.462,59.114,67.462,61.515L67.462,61.515z"/>
	<path fill-rule="evenodd" clip-rule="evenodd" fill="#C4D88F" d="M51.702,62.501c-0.062-0.677-0.185-1.293-0.431-1.91
		c0.246,0,0.491-0.184,0.491-0.491c0-0.246-0.185-0.493-0.429-0.493h-0.556c-0.183-0.432-0.491-0.924-0.798-1.294h1.599
		c0.247,0,0.494-0.185,0.494-0.491c0-0.246-0.247-0.432-0.494-0.432h-2.461c-0.124-0.246-0.37-0.369-0.555-0.493
		c0.555-0.308,1.048-0.8,1.539-1.231c1.602-1.601,2.525-3.695,2.648-5.974c3.078,0.491,5.417,3.202,5.417,6.343
		C58.165,59.606,55.333,62.501,51.702,62.501C51.702,62.501,51.762,62.501,51.702,62.501L51.702,62.501z"/>
	<path fill-rule="evenodd" clip-rule="evenodd" fill="#C4D88F" d="M38.466,55.727h6.094c0.247,0,0.494-0.245,0.494-0.493
		c0-0.246-0.247-0.492-0.494-0.492h-7.14c-0.37-0.431-0.74-0.924-0.986-1.354h6.587c0.247,0,0.554-0.246,0.554-0.493
		c0-0.246-0.307-0.492-0.554-0.492h-7.08c-0.185-0.432-0.369-0.925-0.431-1.355h6.279c0.249,0,0.493-0.247,0.493-0.491
		c0-0.247-0.244-0.433-0.493-0.433h-6.524c-0.062-0.492-0.062-0.984-0.062-1.416h5.479c0.246,0,0.555-0.247,0.555-0.493
		c0-0.247-0.309-0.431-0.555-0.431h-5.357c0.308-1.786,1.108-3.326,2.34-4.559c1.538-1.539,3.632-2.4,5.91-2.4
		c2.216,0,4.248,0.861,5.787,2.4c1.6,1.602,2.462,3.635,2.462,5.851c0,4.62-3.693,8.377-8.249,8.377
		C41.667,57.451,39.944,56.836,38.466,55.727L38.466,55.727z"/>
	<path fill-rule="evenodd" clip-rule="evenodd" fill="#C4D88F" d="M26.461,48.459c0.492,0.432,0.861,0.739,1.354,1.109
		c-1.661,0.801-3.015,1.971-3.999,3.511h-4.434c-0.062-0.371-0.124-0.803-0.124-1.172h2.338c0.247,0,0.495-0.184,0.495-0.492
		c0-0.246-0.248-0.431-0.495-0.431h-2.338c0.308-2.896,2.277-5.356,4.987-6.221C24.675,46.18,25.476,47.411,26.461,48.459
		L26.461,48.459z"/>
	<path fill-rule="evenodd" clip-rule="evenodd" fill="#C4D88F" d="M23.323,54.064c-0.493,1.047-0.802,2.216-0.863,3.449
		c-0.062,0.062-0.062,0.062-0.062,0.062c-1.292-0.863-2.216-2.094-2.708-3.511H23.323L23.323,54.064z"/>
	<path fill-rule="evenodd" clip-rule="evenodd" fill="#C4D88F" d="M50.224,71.496h0.677c0.246,0,0.493-0.311,0.493-0.555
		c0-0.248-0.247-0.494-0.493-0.494h-1.354c-0.125-0.184-0.248-0.369-0.309-0.555c0.184-0.311,0.493-0.555,0.678-0.74
		c0,0,0,0,0.062,0h2.215c0.246,0,0.431-0.307,0.431-0.553s-0.185-0.494-0.431-0.494h-1.6c0.124-0.246,0.307-0.492,0.431-0.861h1.416
		c0.247,0,0.553-0.184,0.553-0.432c0-0.307-0.307-0.492-0.553-0.492h-1.046c0.245-0.861,0.368-1.725,0.368-2.648
		c0-0.061,0-0.123,0-0.246c1.911,0,3.632-0.615,4.925-1.848c2.339,0.74,4.064,2.955,4.25,5.42c-2.772,0.369-4.865,2.711-4.865,5.604
		c0,0.248,0.061,0.492,0.061,0.738c-0.43,0.062-0.861,0.123-1.355,0.123C53.056,73.462,51.395,72.662,50.224,71.496L50.224,71.496z"
		/>
	<path fill-rule="evenodd" clip-rule="evenodd" fill="#E3B238" d="M57.057,72.601c0-1.293,0.431-2.463,1.418-3.325
		c0.861-0.861,2.031-1.418,3.323-1.418c0.801,0,1.601,0.186,2.341,0.617c-1.419,1.047-2.28,2.648-2.28,4.557
		c0,1.418,0.616,2.895,1.664,4.002c-0.554,0.188-1.109,0.311-1.725,0.311c-1.292,0-2.462-0.494-3.323-1.418
		C57.488,75.066,57.057,73.896,57.057,72.601L57.057,72.601z"/>
	<path fill-rule="evenodd" clip-rule="evenodd" fill="#3CAF4E" d="M11.318,28.567c-0.432,0-0.802-0.37-0.863-0.494
		c0-0.246,0-0.615,0.061-0.862c0.062-0.677,0.125-1.417,0.062-1.907c-0.123-0.432-0.367-1.234-0.553-1.788c0-0.062,0-0.062,0-0.062
		c0.491-0.738,0.062-1.662-0.125-2.032C9.779,21.114,9.655,20.62,9.47,20.19c-0.245-0.678-0.491-1.418-0.738-2.094
		c1.969,0.861,4.618,1.848,5.602,2.031c0.925,0.062,1.601-0.246,1.972-0.738c0.43-0.493,0.492-1.107,0.369-1.91
		c1.476-0.123,3.94-0.678,4-2.646c0-0.861-0.43-1.356-0.738-1.601c-0.616-0.493-1.541-0.493-2.34-0.433
		c0.618-0.924,2.094-2.094,5.234-2.094c1.845,0,4.554,0.738,6.341,2.647c0.553,0.618,1.169,1.417,1.845,2.341
		c1.972,2.588,3.326,4.188,4.681,4.188c1.97,0,2.461-1.662,2.647-2.525l0.061-0.184c0.37-1.357-0.984-2.895-4.863-5.297
		c2.524,0.369,3.754,0,4.001-0.984c0.061-0.186,0.187-0.68-0.985-2.403c-0.246-0.369-0.616-0.802-1.047-1.293
		c0.924-0.122,1.97-0.185,2.525,0.308c0.739,0.557,1.169,1.355,1.6,2.095c0.309,0.677,0.678,1.23,1.108,1.661
		c0.8,0.68,2.646,1.48,4.494,0.68c0.431,0.615,1.292,1.538,2.462,1.725c1.231,0.244,2.462-0.248,3.753-1.418l1.603,1.972
		c-1.909,2.464-3.262,5.296-4.31,8.313c-1.107-2.586-3.263-4.681-4.924-6.096c-0.187-0.186-0.433-0.124-0.678,0.061
		c-0.185,0.186-0.123,0.555,0.061,0.678c1.849,1.54,4.188,3.88,5.05,6.713c0,0,0.061,0.061,0.061,0.184
		c-0.124,0.494-0.309,1.047-0.433,1.663c-0.369-0.922-0.922-1.786-1.661-2.462c-1.476-1.541-3.51-2.342-5.664-2.342
		c-2.586,0-4.926,1.232-6.403,3.205c-1.538-1.541-2.954-2.095-4.124-2.156c-0.431-2.033-1.6-3.881-3.571-5.482
		c-0.186-0.123-0.553-0.123-0.677,0.062c-0.186,0.245-0.123,0.554,0.061,0.739c1.724,1.417,2.771,3.018,3.203,4.743
		c-1.048,0.122-1.91,0.677-2.833,1.046c-1.171,0.678-2.279,1.294-3.571,1.109c-0.739-0.125-1.354-0.309-2.031-0.555
		c-0.247-0.124-0.554,0-0.615,0.246c-0.124,0.309,0,0.553,0.246,0.615c0.677,0.31,1.477,0.492,2.278,0.615
		c1.601,0.249,2.892-0.49,4.125-1.17c2.155-1.046,3.939-2.031,6.957,0.986c-0.493,0.983-0.923,2.032-0.985,3.265
		c-1.047-0.556-2.216-0.802-3.386-0.802c-0.494,0-1.047,0-1.478,0.123c-0.801-0.123-3.202-0.492-5.049-0.492
		c-2.646,0-5.294,0.801-7.387,1.664C13.84,28.69,11.808,28.567,11.318,28.567L11.318,28.567z"/>
	<path fill-rule="evenodd" clip-rule="evenodd" fill="#3CAF4E" d="M20.059,64.78c-1.601-1.109-4.186-0.061-5.602,0.678
		c-0.246-0.801-0.799-1.292-1.231-1.54c-1.232-0.677-2.894-0.247-3.819,0.062c-0.428-0.678-1.044-0.986-1.414-1.107
		c-1.417-0.494-3.14,0.369-4.31,1.046c-0.246-1.725-0.984-3.019-1.538-3.818c1.292-0.678,2.153-1.54,2.646-2.648
		c0.493-1.294,0.369-2.526,0.184-3.387c0.555-0.185,0.861-0.494,1.047-0.924c0.369-0.801-0.124-1.726-0.433-2.156
		c0.062-0.802-0.305-1.293-0.552-1.6c-0.616-0.617-1.601-0.802-2.462-0.741c0.185-1.416-0.555-2.895-1.048-3.757
		c0.618-0.554,1.109-1.046,1.233-1.786c0.122-0.493,0.122-0.86,0.06-1.293c2.155,0.062,6.404-0.186,8.742-3.326
		c2.587-3.57,1.971-5.727,1.479-6.959c1.476-0.8,5.602-2.955,9.664-2.955c0.922,0,1.724,0.061,2.277,0.123
		c-1.908,1.354-3.2,3.571-3.2,6.096c0,1.972,0.922,4.064,2.4,5.544c-0.184,0.678-0.247,1.354-0.247,2.031
		c-1.845,0.124-3.14,0.862-4.431,1.603c-1.417,0.8-2.893,1.664-5.541,1.969c-1.846,0.31-3.571,0.124-5.233-0.43
		c-0.309-0.062-0.553,0.062-0.615,0.308c-0.123,0.246,0,0.554,0.246,0.616c1.848,0.617,3.756,0.801,5.788,0.555
		c0.183-0.123,0.307-0.123,0.491-0.187c-0.368,0.739-0.982,2.034-1.783,4.251c-0.062,0.246,0.06,0.493,0.307,0.553
		c0.246,0.186,0.553,0,0.615-0.244c0.738-1.97,1.725-4.311,2.154-4.681c0.062,0,0.124-0.062,0.186-0.187
		c1.662-0.491,2.832-1.046,3.879-1.662c1.292-0.738,2.338-1.355,4.002-1.477c0,0.121,0.059,0.307,0.059,0.492
		c-3.385,1.046-5.785,4.186-5.785,7.758c0,0.248,0.061,0.495,0.061,0.678c-0.615,0.063-1.108,0.309-1.539,0.617
		c-0.248,0.186-0.248,0.493-0.123,0.677c0.187,0.247,0.431,0.247,0.677,0.124c0.307-0.246,0.737-0.369,1.108-0.492
		c0.492,2.34,1.846,4.373,4.001,5.604c0.184,2.156,1.168,4.188,2.647,5.727c0.245,0.188,0.431,0.371,0.615,0.617
		c-0.8,0.617-1.416,1.602-1.786,2.525c-1.477,1.602-2.401,1.906-3.016,1.906C21.476,67.181,21.106,65.581,20.059,64.78L20.059,64.78
		z"/>
	<path fill-rule="evenodd" clip-rule="evenodd" fill="#C4D88F" d="M37.236,70.138c-1.049-0.924-1.847-2.156-2.341-3.387
		c-0.985,0.309-2.092,0.492-3.202,0.492c-1.906,0-3.694-0.492-5.17-1.601c-0.678,0.614-1.171,1.354-1.602,2.094h2.277
		c0.248,0,0.556,0.245,0.556,0.556c0,0.244-0.308,0.43-0.556,0.43h-2.584c-0.122,0.492-0.185,0.924-0.308,1.479h3.448
		c0.245,0,0.43,0.184,0.43,0.492c0,0.248-0.185,0.432-0.43,0.432H24.43c0.063,0.801,0.246,1.477,0.492,2.215
		c0.061-0.061,3.879-0.061,3.879-0.061c0.247,0,0.493,0.184,0.493,0.432c0,0.309-0.246,0.555-0.493,0.555h-3.262
		c0.184,0.246,0.37,0.555,0.677,0.801c1.231,1.232,2.833,1.969,4.617,1.969c2.277,0,4.308-1.416,5.479-3.201c0,0.062,0,0.062,0,0
		c0.493-0.984,0.925-2.154,0.925-3.327C37.236,70.384,37.236,70.263,37.236,70.138L37.236,70.138z"/>
	<path fill-rule="evenodd" clip-rule="evenodd" fill="#C4D88F" d="M39.081,78.269c-0.245-0.246-0.554-0.492-0.737-0.801h1.661
		c0.309,0,0.555-0.246,0.555-0.555c0-0.246-0.246-0.432-0.555-0.432H37.85c-0.247-0.432-0.37-0.801-0.493-1.295h1.354
		c0.246,0,0.433-0.184,0.433-0.43c0-0.307-0.187-0.492-0.433-0.492h-1.476c0,0,0,0,0-0.061c0.614-0.986,0.922-2.156,0.983-3.327
		c1.416,0.924,3.079,1.54,4.864,1.54c1.97,0,3.817-0.678,5.354-1.911c0.37,0.74,0.924,1.481,1.541,2.034
		c0.06,0.369,0.121,0.799,0.121,1.17c0,3.572-2.892,6.467-6.464,6.467C41.913,80.177,40.313,79.56,39.081,78.269L39.081,78.269z"/>
	<path fill-rule="evenodd" clip-rule="evenodd" fill="#C4D88F" d="M48.377,81.164h2.156c0.245,0,0.492-0.186,0.492-0.492
		c0-0.248-0.248-0.43-0.492-0.43h-2.894c0-0.064-0.062-0.064-0.125-0.188c0.369-0.246,0.741-0.43,1.047-0.801l0,0h1.971
		c0.245,0,0.492-0.186,0.492-0.432s-0.248-0.492-0.492-0.492h-1.047c1.047-1.295,1.54-2.895,1.54-4.619c0-0.123,0-0.248,0-0.371
		c1.169,0.74,2.401,1.051,3.753,1.051c0.556,0,1.048,0,1.542-0.125c0.061,0.186,0.123,0.43,0.185,0.617
		c-1.109,1.045-1.785,2.525-1.785,4.125c0,1.17,0.368,2.34,1.107,3.326c-0.924,0.492-1.908,0.738-2.956,0.738
		C51.086,83.072,49.485,82.394,48.377,81.164L48.377,81.164z"/>
	<path fill-rule="evenodd" clip-rule="evenodd" fill="#E3B238" d="M65.121,79.007c0,2.525-2.091,4.68-4.737,4.68
		c-1.172,0-2.404-0.553-3.327-1.416c-0.86-0.861-1.354-2.029-1.354-3.264c0-1.23,0.493-2.402,1.292-3.266
		c0.246,0.309,0.431,0.617,0.739,0.863c1.108,1.172,2.524,1.664,4.063,1.664c0.862,0,1.725-0.186,2.523-0.615
		c0.248,0.244,0.491,0.369,0.739,0.43C65.121,78.39,65.121,78.699,65.121,79.007L65.121,79.007z"/>
	<path fill-rule="evenodd" clip-rule="evenodd" fill="#E3B238" d="M67.584,77.777c-1.23,0-2.464-0.555-3.325-1.418
		c-0.923-0.861-1.415-2.094-1.415-3.326c0-1.293,0.492-2.526,1.415-3.387c0.861-0.924,2.095-1.354,3.325-1.354
		c2.585,0,4.495,2.648,4.74,4.309c-0.245,0.617-0.368,1.355-0.368,2.094c0,0.062,0,0.188,0,0.248
		C71.155,76.482,69.246,77.777,67.584,77.777L67.584,77.777z"/>
	<path fill-rule="evenodd" clip-rule="evenodd" fill="#E3B238" d="M77.619,79.437c-1.23,0-2.401-0.553-3.263-1.414
		c-0.923-0.926-1.415-2.096-1.415-3.328c0-1.293,0.492-2.521,1.415-3.387c0.862-0.924,2.033-1.356,3.263-1.356
		c1.108,0,2.277,0.371,3.14,1.172c0,0.061,0,0.061,0,0.123c0,1.54,0.555,2.958,1.539,4.067
		C81.866,77.654,79.959,79.437,77.619,79.437L77.619,79.437z"/>
	<path fill-rule="evenodd" clip-rule="evenodd" fill="#E3B238" d="M86.977,76.544c-1.415,0-2.77-0.555-3.757-1.541
		c-0.982-0.984-1.537-2.342-1.537-3.756c0-1.355,0.555-2.711,1.537-3.696c0.987-1.046,2.342-1.538,3.757-1.538
		c1.354,0,2.708,0.492,3.693,1.538c1.047,0.985,1.538,2.341,1.538,3.696C92.208,74.205,89.87,76.544,86.977,76.544L86.977,76.544z"
		/>
	<path fill-rule="evenodd" clip-rule="evenodd" fill="#E3B238" d="M92.271,68.044c-0.246-0.369-0.492-0.801-0.923-1.17
		c-1.169-1.231-2.709-1.849-4.371-1.849c-1.23,0-2.277,0.372-3.2,0.925c0.431-0.925,0.737-1.848,0.737-2.833
		c0-0.308,0-0.616-0.122-0.862c0.86-1.787,2.646-3.018,4.615-3.018c1.355,0,2.648,0.555,3.571,1.477
		c0.985,0.926,1.479,2.218,1.479,3.512C94.057,65.704,93.441,67.12,92.271,68.044L92.271,68.044z"/>
	<path fill-rule="evenodd" clip-rule="evenodd" fill="#C65498" d="M98.858,67.12c-1.417,0-2.833-0.369-4.063-1.107
		c0.185-0.555,0.246-1.172,0.246-1.787c0-0.246,0-0.493-0.062-0.678h1.232c0.307,0,0.553-0.307,0.553-0.555
		c0-0.308-0.246-0.492-0.553-0.492h-1.417c-0.184-0.368-0.369-0.802-0.554-1.168h0.554c0.246,0,0.431-0.249,0.431-0.494
		c0-0.248-0.185-0.556-0.431-0.556h-1.231c-0.122-0.062-0.185-0.184-0.246-0.245c-0.615-0.616-1.293-0.986-1.97-1.355h3.447
		c0.246,0,0.431-0.185,0.431-0.43c0-0.309-0.185-0.494-0.431-0.494h-3.94c0.924-0.492,1.908-1.107,2.832-1.786
		c0,0.062,0.062,0.062,0.062,0.062h5.292c0.247,0,0.494-0.244,0.494-0.553c0-0.248-0.247-0.432-0.494-0.432h-4.062
		c1.723-1.355,3.264-2.833,4.678-4.495c0.309,0,0.617,0.06,0.925,0.123c0.923,1.169,2.216,2.03,3.508,2.647
		c-0.49,1.17-0.8,2.465-0.8,3.695c0,2.401,0.861,4.619,2.526,6.344C104.276,65.704,101.629,67.12,98.858,67.12L98.858,67.12z"/>
	<path fill-rule="evenodd" clip-rule="evenodd" fill="#C65498" d="M106.983,63.241c-0.061-0.124-0.186-0.186-0.245-0.31
		c-0.432-0.431-0.801-0.799-1.108-1.292h3.016c0.247,0,0.494-0.186,0.494-0.432c0-0.309-0.247-0.555-0.494-0.555h-3.569
		c-0.247-0.432-0.37-0.861-0.493-1.292h3.077c0.248,0,0.432-0.247,0.432-0.494c0-0.308-0.184-0.493-0.432-0.493h-3.262
		c-0.062-0.43-0.122-0.86-0.122-1.354c0-0.063,0-0.124,0-0.185h1.047c0.245,0,0.493-0.185,0.493-0.493
		c0-0.246-0.248-0.494-0.493-0.494h-0.925c0.062-0.737,0.247-1.479,0.616-2.217c0.923,0.248,1.847,0.494,2.833,0.494
		c2.153,0,4.122-0.739,5.785-1.971c1.292,0.615,2.709,0.924,4.186,0.924c0.678,0,1.292-0.062,1.909-0.186
		c0.739,1.293,1.17,2.771,1.17,4.127c0,4.619-3.757,8.377-8.372,8.377c-1.047,0-2.155-0.186-3.141-0.678h3.141
		c0.245,0,0.555-0.188,0.555-0.494c0-0.246-0.31-0.432-0.555-0.432h-4.742c0,0-0.06,0-0.123,0
		C107.476,63.671,107.231,63.425,106.983,63.241L106.983,63.241L106.983,63.241z"/>
	<path fill-rule="evenodd" clip-rule="evenodd" fill="#C65498" d="M117.818,76.728c-2.462,0-4.738-0.922-6.464-2.648
		c-0.123-0.061-0.246-0.184-0.308-0.246h4.862c0.311,0,0.494-0.246,0.494-0.494c0-0.246-0.184-0.49-0.494-0.49h-5.602
		c-0.431-0.676-0.86-1.354-1.107-2.094h3.88c0.246,0,0.492-0.248,0.492-0.492c0-0.248-0.246-0.555-0.492-0.555h-4.25
		c-0.123-0.617-0.245-1.355-0.245-2.096c0-0.678,0.122-1.416,0.245-2.031c1.171,0.492,2.401,0.738,3.695,0.738
		c2.461,0,4.801-0.922,6.585-2.648c1.232-1.293,2.095-2.832,2.525-4.496c3.201,1.479,5.295,4.805,5.295,8.438
		C126.931,72.601,122.867,76.728,117.818,76.728L117.818,76.728z"/>
	<path fill-rule="evenodd" clip-rule="evenodd" fill="#C65498" d="M134.563,72.417c-1.724,0-3.385-0.553-4.802-1.477h0.986
		c0.246,0,0.49-0.248,0.49-0.557c0-0.246-0.244-0.432-0.49-0.432c0,0-2.032,0-2.155,0c-0.247-0.307-0.493-0.615-0.802-0.982
		c0.063-0.186,0.063-0.434,0.063-0.617h1.168c0.309,0,0.556-0.248,0.556-0.494s-0.247-0.492-0.556-0.492h-1.046
		c0-0.369-0.122-0.801-0.122-1.109h0.245c0.246,0,0.431-0.184,0.431-0.49c0-0.248-0.185-0.493-0.431-0.493h-0.43
		c-0.125-0.554-0.246-1.048-0.433-1.479c0.492,0.061,1.108,0.124,1.725,0.124c2.46,0,4.801-0.925,6.525-2.71
		c0.43-0.369,0.739-0.801,1.046-1.232c1.108,2.464,3.573,4.19,6.279,4.373C142.69,68.784,139.057,72.417,134.563,72.417
		L134.563,72.417z"/>
	<path fill-rule="evenodd" clip-rule="evenodd" fill="#C65498" d="M143.244,63.364c-0.8,0-1.539-0.123-2.217-0.371
		c0.124-0.062,0.247-0.308,0.247-0.43c0-0.246-0.247-0.495-0.492-0.495h-1.354c0,0,0,0-0.062,0c-0.37-0.369-0.8-0.735-1.169-1.229
		h3.016c0.309,0,0.493-0.186,0.493-0.432c0-0.308-0.185-0.493-0.493-0.493h-3.385c-0.062,0-0.123,0-0.186,0
		c-0.184-0.246-0.369-0.677-0.431-0.985c0.062-0.123,0.124-0.369,0.247-0.492h3.139c0.246,0,0.431-0.184,0.431-0.492
		c0-0.248-0.185-0.493-0.431-0.493h-2.77c0.246-0.862,0.43-1.786,0.43-2.833c0-0.371,0-0.801-0.061-1.17
		c0.554-0.492,1.108-1.047,1.599-1.602c0.987-0.678,2.155-1.109,3.449-1.109c1.662,0,3.262,0.678,4.495,1.91
		c1.107,1.17,1.784,2.709,1.784,4.373C149.523,60.591,146.691,63.364,143.244,63.364L143.244,63.364z"/>
	<path fill-rule="evenodd" clip-rule="evenodd" fill="#3CAF4E" d="M148.538,48.336c-0.185,0.987,0.43,1.786,1.354,2.096
		c0.246,0.062,0.492,0.183,0.553,0.306c0.064,0.186,0,0.309,0,0.371c-0.121,0.061-0.307,0.122-0.553,0.246
		c-0.369,0.185-0.861,0.43-1.294,0.801c-0.061-0.062-0.121-0.123-0.245-0.248c-1.354-1.353-3.202-2.094-5.109-2.094
		c-0.861,0-1.724,0.124-2.522,0.432c0.43-1.047,0.735-2.219,0.735-3.387c0-2.156-0.86-4.251-2.4-5.789
		c-1.538-1.541-3.632-2.403-5.786-2.403c-0.122,0-0.185,0-0.308,0c0.924-0.124,1.725-0.614,2.586-1.106
		c1.415-0.802,2.955-1.848,5.54-1.848c1.909,0,4.062,1.352,5.233,2.154c-0.186,0.124-1.293,1.232-1.6,1.416
		c0.368-0.062,2.215,0.556,2.277,0.738c0.123,0.432,0.307,0.924,0.431,1.295c0.246,0.492,0.369,0.984,0.43,1.17
		c0.124,0.676,0.801,0.924,1.294,1.109c0.369,0.061,0.678,0.246,1.047,0.432c0.123,0.061,0.244,0.121,0.43,0.185
		c0.864,0.491,1.97,0.983,2.217,2.647h-2.463C149.401,46.858,148.661,47.472,148.538,48.336L148.538,48.336z"/>
	<path fill-rule="evenodd" clip-rule="evenodd" fill="#231F20" d="M86.667,29.306c0.432,0,0.865,0,1.295-0.061
		c0.246,0,0.493-0.248,0.493-0.555c-0.124-0.247-0.311-0.432-0.555-0.369c-0.431,0-0.802,0.061-1.233,0.061
		c-1.721,0-3.322-0.371-4.862-1.109h6.034c0.246,0,0.432-0.246,0.432-0.493c0-0.245-0.186-0.492-0.432-0.492h-7.633
		c-0.371-0.308-0.802-0.616-1.171-0.983h7.387c0.245,0,0.555-0.188,0.555-0.432c0-0.309-0.31-0.493-0.555-0.493h-8.371
		c-0.245-0.31-0.432-0.679-0.678-0.985h7.879c0.248,0,0.432-0.246,0.432-0.493c0-0.245-0.184-0.431-0.432-0.431h-1.354
		c2.155-1.725,6.588-5.789,7.572-12.195c0-0.122,0.185-0.862,0-1.17c-0.245-0.985-1.663-1.602-4.188-0.862
		c-1.169,0.308-1.968,0.985-2.277,1.786c0,0.184,0,0.615,0,0.678c0.062,4.373-3.14,7.822-5.539,9.793h-3.449
		c-0.062-0.247-0.122-0.555-0.184-0.801h0.923c0.184,0,0.369-0.186,0.369-0.492c0-0.248-0.185-0.493-0.369-0.493h-1.108
		c-0.062-0.185-0.062-0.37-0.062-0.556h0.616c0.246,0,0.554-0.246,0.554-0.555c0-0.246-0.308-0.43-0.554-0.43h-0.678l0,0
		c0-0.123,0-0.371,0-0.492h1.046c0.248,0,0.432-0.186,0.432-0.432c0-0.309-0.184-0.555-0.432-0.555h-0.983
		c0.062-0.123,0.062-0.246,0.062-0.309h1.169c0.184,0,0.37-0.307,0.37-0.553c0-0.248-0.186-0.494-0.37-0.494h-0.923
		c0-0.185-0.123-0.432-0.371-0.493c-0.246-0.062-0.492,0.126-0.615,0.371c-0.246,0.923-0.369,1.972-0.369,2.956
		c0,3.264,1.293,6.281,3.51,8.621C80.328,28.073,83.405,29.306,86.667,29.306L86.667,29.306z"/>
	<path fill-rule="evenodd" clip-rule="evenodd" fill="#231F20" d="M52.256,26.596h1.6c0.246,0,0.431-0.187,0.431-0.495
		c0-0.244-0.185-0.49-0.431-0.49h-1.6c-0.308,0-0.494,0.246-0.494,0.49C51.762,26.409,51.948,26.596,52.256,26.596L52.256,26.596z"
		/>
	<path fill-rule="evenodd" clip-rule="evenodd" fill="#231F20" d="M37.603,27.396h1.109c0.246,0,0.433-0.308,0.433-0.555
		c0-0.245-0.187-0.432-0.433-0.432h-1.109c-0.246,0-0.431,0.187-0.431,0.432C37.172,27.088,37.357,27.396,37.603,27.396
		L37.603,27.396z"/>
	<path fill-rule="evenodd" clip-rule="evenodd" fill="#231F20" d="M26.461,34.048h1.107c0.246,0,0.431-0.185,0.431-0.432
		c0-0.308-0.185-0.555-0.431-0.555h-1.107c-0.246,0-0.431,0.247-0.431,0.555C26.03,33.863,26.215,34.048,26.461,34.048
		L26.461,34.048z"/>
	<path fill-rule="evenodd" clip-rule="evenodd" fill="#231F20" d="M37.603,29.736h1.109c0.246,0,0.433-0.308,0.433-0.554
		c0-0.247-0.187-0.492-0.433-0.492h-1.109c-0.246,0-0.431,0.245-0.431,0.492C37.172,29.429,37.357,29.736,37.603,29.736
		L37.603,29.736z"/>
	<path fill-rule="evenodd" clip-rule="evenodd" fill="#231F20" d="M38.774,32.2c0,0.246,0.246,0.555,0.492,0.555h1.108
		c0.247,0,0.432-0.309,0.432-0.555s-0.185-0.494-0.432-0.494h-1.108C39.021,31.706,38.774,31.954,38.774,32.2L38.774,32.2z"/>
	<path fill-rule="evenodd" clip-rule="evenodd" fill="#231F20" d="M45.484,38.296h-1.046c-0.246,0-0.555,0.186-0.555,0.433
		c0,0.245,0.309,0.491,0.555,0.491h1.046c0.308,0,0.492-0.246,0.492-0.491C45.976,38.481,45.792,38.296,45.484,38.296L45.484,38.296
		z"/>
	<path fill-rule="evenodd" clip-rule="evenodd" fill="#231F20" d="M33.11,42.485c0-0.245-0.307-0.493-0.554-0.493h-1.109
		c-0.245,0-0.432,0.248-0.432,0.493c0,0.246,0.187,0.553,0.432,0.553h1.109C32.803,43.038,33.11,42.731,33.11,42.485L33.11,42.485z"
		/>
	<path fill-rule="evenodd" clip-rule="evenodd" fill="#231F20" d="M33.417,45.011h-1.046c-0.308,0-0.492,0.246-0.492,0.554
		c0,0.246,0.185,0.432,0.492,0.432h1.046c0.246,0,0.556-0.186,0.556-0.432C33.973,45.257,33.663,45.011,33.417,45.011L33.417,45.011
		z"/>
	<path fill-rule="evenodd" clip-rule="evenodd" fill="#231F20" d="M44.068,48.213c0-0.247-0.186-0.431-0.433-0.431H42.59
		c-0.308,0-0.492,0.184-0.492,0.431c0,0.246,0.185,0.493,0.492,0.493h1.046C43.883,48.706,44.068,48.459,44.068,48.213
		L44.068,48.213z"/>
	<path fill-rule="evenodd" clip-rule="evenodd" fill="#231F20" d="M45.177,50.555c0-0.247-0.185-0.433-0.493-0.433h-1.048
		c-0.246,0-0.491,0.186-0.491,0.433c0,0.244,0.245,0.491,0.491,0.491h1.048C44.992,51.046,45.177,50.799,45.177,50.555
		L45.177,50.555z"/>
	<path fill-rule="evenodd" clip-rule="evenodd" fill="#231F20" d="M46.408,52.894c0-0.246-0.185-0.492-0.432-0.492h-1.105
		c-0.248,0-0.433,0.246-0.433,0.492c0,0.247,0.186,0.493,0.433,0.493h1.105C46.223,53.387,46.408,53.141,46.408,52.894
		L46.408,52.894z"/>
	<path fill-rule="evenodd" clip-rule="evenodd" fill="#231F20" d="M45.792,55.233c0,0.248,0.184,0.493,0.431,0.493h1.107
		c0.248,0,0.493-0.245,0.493-0.493c0-0.246-0.246-0.492-0.493-0.492h-1.107C45.976,54.741,45.792,54.987,45.792,55.233
		L45.792,55.233z"/>
	<path fill-rule="evenodd" clip-rule="evenodd" fill="#231F20" d="M54.532,57.39h-1.106c-0.248,0-0.432,0.186-0.432,0.432
		c0,0.307,0.185,0.491,0.432,0.491h1.106c0.246,0,0.432-0.185,0.432-0.491C54.964,57.575,54.778,57.39,54.532,57.39L54.532,57.39z"
		/>
	<path fill-rule="evenodd" clip-rule="evenodd" fill="#231F20" d="M54.166,59.606h-1.048c-0.248,0-0.493,0.247-0.493,0.493
		c0,0.308,0.245,0.491,0.493,0.491h1.048c0.306,0,0.553-0.184,0.553-0.491C54.719,59.854,54.472,59.606,54.166,59.606L54.166,59.606
		z"/>
	<path fill-rule="evenodd" clip-rule="evenodd" fill="#231F20" d="M31.693,57.759c0-0.245-0.246-0.492-0.491-0.492h-1.047
		c-0.308,0-0.494,0.247-0.494,0.492c0,0.309,0.186,0.494,0.494,0.494h1.047C31.447,58.253,31.693,58.067,31.693,57.759
		L31.693,57.759z"/>
	<path fill-rule="evenodd" clip-rule="evenodd" fill="#231F20" d="M32.556,60.962c0-0.248-0.185-0.494-0.493-0.494h-1.048
		c-0.244,0-0.491,0.246-0.491,0.494c0,0.309,0.247,0.492,0.491,0.492h1.048C32.371,61.454,32.556,61.271,32.556,60.962
		L32.556,60.962z"/>
	<path fill-rule="evenodd" clip-rule="evenodd" fill="#231F20" d="M33.11,63.794c0.246,0,0.431-0.184,0.431-0.492
		s-0.185-0.492-0.431-0.492h-1.108c-0.247,0-0.555,0.184-0.555,0.492s0.308,0.492,0.555,0.492H33.11L33.11,63.794z"/>
	<path fill-rule="evenodd" clip-rule="evenodd" fill="#231F20" d="M43.76,64.042c0-0.248-0.246-0.432-0.555-0.432h-1.046
		c-0.246,0-0.493,0.184-0.493,0.432c0,0.307,0.247,0.49,0.493,0.49h1.046C43.515,64.532,43.76,64.349,43.76,64.042L43.76,64.042z"/>
	<path fill-rule="evenodd" clip-rule="evenodd" fill="#231F20" d="M30.155,68.722c0.246,0,0.43-0.186,0.43-0.43
		c0-0.311-0.184-0.556-0.43-0.556h-1.107c-0.247,0-0.431,0.245-0.431,0.556c0,0.244,0.184,0.43,0.431,0.43H30.155L30.155,68.722z"/>
	<path fill-rule="evenodd" clip-rule="evenodd" fill="#231F20" d="M31.14,70.692c0-0.309-0.245-0.492-0.554-0.492H29.54
		c-0.246,0-0.492,0.184-0.492,0.492c0,0.248,0.246,0.432,0.492,0.432h1.046C30.895,71.124,31.14,70.94,31.14,70.692L31.14,70.692z"
		/>
	<path fill-rule="evenodd" clip-rule="evenodd" fill="#231F20" d="M31.693,73.279h-1.108c-0.245,0-0.43,0.184-0.43,0.432
		c0,0.309,0.185,0.555,0.43,0.555h1.108c0.248,0,0.493-0.246,0.493-0.555C32.186,73.462,31.941,73.279,31.693,73.279L31.693,73.279z
		"/>
	<path fill-rule="evenodd" clip-rule="evenodd" fill="#231F20" d="M42.96,76.482h-1.047c-0.308,0-0.492,0.186-0.492,0.432
		c0,0.309,0.185,0.555,0.492,0.555h1.047c0.245,0,0.492-0.246,0.492-0.555C43.452,76.667,43.205,76.482,42.96,76.482L42.96,76.482z"
		/>
	<path fill-rule="evenodd" clip-rule="evenodd" fill="#231F20" d="M54.287,67.243h1.108c0.246,0,0.432-0.184,0.432-0.432
		c0-0.307-0.186-0.492-0.432-0.492h-1.108c-0.246,0-0.431,0.186-0.431,0.492C53.855,67.06,54.041,67.243,54.287,67.243
		L54.287,67.243z"/>
	<path fill-rule="evenodd" clip-rule="evenodd" fill="#231F20" d="M58.657,78.33h-0.553c-0.246,0-0.493,0.246-0.493,0.492
		s0.247,0.432,0.493,0.432h0.553c0.248,0,0.555-0.186,0.555-0.432S58.904,78.33,58.657,78.33L58.657,78.33z"/>
	<path fill-rule="evenodd" clip-rule="evenodd" fill="#231F20" d="M87.715,72.849h-0.554c-0.248,0-0.555,0.307-0.555,0.553
		c0,0.248,0.307,0.494,0.555,0.494h0.554c0.247,0,0.493-0.246,0.493-0.494C88.208,73.156,87.962,72.849,87.715,72.849L87.715,72.849
		z"/>
	<path fill-rule="evenodd" clip-rule="evenodd" fill="#231F20" d="M87.839,61.208h-0.617c-0.245,0-0.491,0.184-0.491,0.432
		c0,0.246,0.246,0.493,0.491,0.493h0.617c0.246,0,0.432-0.247,0.432-0.493C88.271,61.392,88.085,61.208,87.839,61.208L87.839,61.208
		z"/>
	<path fill-rule="evenodd" clip-rule="evenodd" fill="#231F20" d="M63.153,61.699c0-0.245-0.247-0.429-0.493-0.429h-1.046
		c-0.309,0-0.494,0.184-0.494,0.429c0,0.311,0.186,0.556,0.494,0.556h1.046C62.906,62.255,63.153,62.01,63.153,61.699L63.153,61.699
		z"/>
	<path fill-rule="evenodd" clip-rule="evenodd" fill="#231F20" d="M63.954,62.993h-1.109c-0.246,0-0.431,0.186-0.431,0.432
		c0,0.308,0.185,0.555,0.431,0.555h1.109c0.245,0,0.43-0.247,0.43-0.555C64.384,63.179,64.199,62.993,63.954,62.993L63.954,62.993z"
		/>
	<path fill-rule="evenodd" clip-rule="evenodd" fill="#231F20" d="M63.275,64.72h-1.108c-0.248,0-0.492,0.246-0.492,0.554
		c0,0.245,0.244,0.431,0.492,0.431h1.108c0.247,0,0.432-0.186,0.432-0.431C63.707,64.966,63.522,64.72,63.275,64.72L63.275,64.72z"
		/>
	<path fill-rule="evenodd" clip-rule="evenodd" fill="#231F20" d="M54.041,69.151h1.046c0.308,0,0.493-0.307,0.493-0.553
		s-0.186-0.494-0.493-0.494h-1.046c-0.246,0-0.554,0.248-0.554,0.494S53.795,69.151,54.041,69.151L54.041,69.151z"/>
	<path fill-rule="evenodd" clip-rule="evenodd" fill="#231F20" d="M53.673,70.446h-1.11c-0.246,0-0.491,0.246-0.491,0.494
		c0,0.244,0.246,0.555,0.491,0.555h1.11c0.245,0,0.429-0.311,0.429-0.555C54.102,70.692,53.918,70.446,53.673,70.446L53.673,70.446z
		"/>
	<path fill-rule="evenodd" clip-rule="evenodd" fill="#231F20" d="M44.499,66.381c0-0.245-0.184-0.431-0.492-0.431H42.96
		c-0.247,0-0.493,0.186-0.493,0.431c0,0.247,0.246,0.493,0.493,0.493h1.047C44.315,66.874,44.499,66.628,44.499,66.381
		L44.499,66.381z"/>
	<path fill-rule="evenodd" clip-rule="evenodd" fill="#231F20" d="M43.39,69.151c0,0.248,0.186,0.43,0.433,0.43h1.048
		c0.307,0,0.49-0.182,0.49-0.43c0-0.307-0.184-0.553-0.49-0.553h-1.048C43.576,68.599,43.39,68.845,43.39,69.151L43.39,69.151z"/>
	<path fill-rule="evenodd" clip-rule="evenodd" fill="#231F20" d="M75.525,13.415h1.293c0.184,0,0.37-0.246,0.37-0.553
		c0-0.247-0.186-0.432-0.37-0.432h-1.293c-0.246,0-0.43,0.185-0.43,0.432C75.095,13.169,75.279,13.415,75.525,13.415L75.525,13.415z
		"/>
	<path fill-rule="evenodd" clip-rule="evenodd" fill="#231F20" d="M52.749,28.69c0,0.307,0.245,0.492,0.492,0.492h1.354
		c0.247,0,0.492-0.186,0.492-0.492c0-0.247-0.246-0.432-0.492-0.432H53.24C52.994,28.259,52.749,28.443,52.749,28.69L52.749,28.69z"
		/>
	<path fill-rule="evenodd" clip-rule="evenodd" fill="#231F20" d="M54.102,31.338c0,0.246,0.185,0.431,0.493,0.431h1.17
		c0.307,0,0.492-0.185,0.492-0.431c0-0.308-0.185-0.493-0.492-0.493h-1.17C54.287,30.845,54.102,31.03,54.102,31.338L54.102,31.338z
		"/>
	<path fill-rule="evenodd" clip-rule="evenodd" fill="#231F20" d="M55.58,33.925c0,0.246,0.185,0.492,0.492,0.492h1.416
		c0.308,0,0.492-0.246,0.492-0.492s-0.184-0.492-0.492-0.492h-1.416C55.765,33.433,55.58,33.679,55.58,33.925L55.58,33.925z"/>
	<path fill-rule="evenodd" clip-rule="evenodd" fill="#231F20" d="M57.305,36.51c0,0.31,0.183,0.554,0.491,0.554h1.047
		c0.247,0,0.493-0.244,0.493-0.554c0-0.245-0.246-0.431-0.493-0.431h-1.047C57.488,36.079,57.305,36.265,57.305,36.51L57.305,36.51z
		"/>
	<path fill-rule="evenodd" clip-rule="evenodd" fill="#231F20" d="M59.704,39.651h1.478c0.247,0,0.494-0.245,0.494-0.492
		c0-0.309-0.248-0.493-0.494-0.493h-1.478c-0.246,0-0.429,0.185-0.429,0.493C59.275,39.406,59.458,39.651,59.704,39.651
		L59.704,39.651z"/>
	<path fill-rule="evenodd" clip-rule="evenodd" fill="#231F20" d="M61.182,41.808c0,0.246,0.186,0.492,0.494,0.492h1.661
		c0.246,0,0.431-0.246,0.431-0.492c0-0.308-0.186-0.555-0.431-0.555h-1.661C61.367,41.253,61.182,41.5,61.182,41.808L61.182,41.808z
		"/>
	<path fill-rule="evenodd" clip-rule="evenodd" fill="#231F20" d="M65.43,44.887h1.354c0.31,0,0.554-0.185,0.554-0.492
		c0-0.247-0.244-0.493-0.554-0.493H65.43c-0.247,0-0.433,0.246-0.433,0.493C64.998,44.702,65.183,44.887,65.43,44.887L65.43,44.887z
		"/>
	<path fill-rule="evenodd" clip-rule="evenodd" fill="#231F20" d="M67.771,47.472h1.537c0.308,0,0.494-0.184,0.494-0.428
		c0-0.31-0.187-0.493-0.494-0.493h-1.537c-0.248,0-0.433,0.184-0.433,0.493C67.338,47.288,67.523,47.472,67.771,47.472
		L67.771,47.472z"/>
	<path fill-rule="evenodd" clip-rule="evenodd" fill="#231F20" d="M72.263,50.122h1.354c0.247,0,0.431-0.246,0.431-0.492
		c0-0.245-0.184-0.492-0.431-0.492h-1.354c-0.245,0-0.433,0.247-0.433,0.492C71.831,49.876,72.019,50.122,72.263,50.122
		L72.263,50.122z"/>
	<path fill-rule="evenodd" clip-rule="evenodd" fill="#231F20" d="M79.343,51.784h-1.724c-0.246,0-0.493,0.186-0.493,0.433
		c0,0.307,0.247,0.491,0.493,0.491h1.724c0.245,0,0.553-0.185,0.553-0.491C79.896,51.97,79.588,51.784,79.343,51.784L79.343,51.784z
		"/>
	<path fill-rule="evenodd" clip-rule="evenodd" fill="#231F20" d="M88.085,54.37h-2.217c-0.246,0-0.493,0.186-0.493,0.494
		c0,0.247,0.247,0.432,0.493,0.432h2.217c0.246,0,0.492-0.185,0.492-0.432C88.577,54.556,88.331,54.37,88.085,54.37L88.085,54.37z"
		/>
	<path fill-rule="evenodd" clip-rule="evenodd" fill="#231F20" d="M97.319,57.759h-0.862c-0.308,0-0.493,0.186-0.493,0.494
		c0,0.245,0.186,0.43,0.493,0.43h0.862c0.246,0,0.491-0.185,0.491-0.43C97.811,57.944,97.565,57.759,97.319,57.759L97.319,57.759z"
		/>
	<path fill-rule="evenodd" clip-rule="evenodd" fill="#231F20" d="M110.924,46.427c0-0.247-0.245-0.555-0.554-0.555h-0.86
		c-0.247,0-0.434,0.308-0.434,0.555s0.187,0.432,0.434,0.432h0.86C110.679,46.858,110.924,46.674,110.924,46.427L110.924,46.427z"/>
	<path fill-rule="evenodd" clip-rule="evenodd" fill="#231F20" d="M110.124,34.479h0.861c0.246,0,0.493-0.186,0.493-0.494
		c0-0.246-0.247-0.553-0.493-0.553h-0.861c-0.247,0-0.493,0.307-0.493,0.553C109.631,34.294,109.877,34.479,110.124,34.479
		L110.124,34.479z"/>
	<path fill-rule="evenodd" clip-rule="evenodd" fill="#231F20" d="M110.8,32.015h0.863c0.245,0,0.491-0.246,0.491-0.554
		c0-0.247-0.246-0.493-0.491-0.493H110.8c-0.246,0-0.553,0.246-0.553,0.493C110.247,31.769,110.554,32.015,110.8,32.015
		L110.8,32.015z"/>
	<path fill-rule="evenodd" clip-rule="evenodd" fill="#231F20" d="M115.543,19.944h0.923c0.244,0,0.491-0.246,0.491-0.492
		c0-0.311-0.247-0.494-0.491-0.494h-0.923c-0.248,0-0.495,0.184-0.495,0.494C115.048,19.698,115.295,19.944,115.543,19.944
		L115.543,19.944z"/>
	<path fill-rule="evenodd" clip-rule="evenodd" fill="#231F20" d="M117.881,22.53h0.861c0.246,0,0.556-0.245,0.556-0.491
		c0-0.247-0.31-0.493-0.556-0.493h-0.861c-0.308,0-0.493,0.246-0.493,0.493C117.388,22.285,117.573,22.53,117.881,22.53
		L117.881,22.53z"/>
	<path fill-rule="evenodd" clip-rule="evenodd" fill="#231F20" d="M118.558,24.501c0,0.31,0.185,0.492,0.431,0.492h0.861
		c0.307,0,0.493-0.183,0.493-0.492c0-0.245-0.187-0.432-0.493-0.432h-0.861C118.742,24.069,118.558,24.256,118.558,24.501
		L118.558,24.501z"/>
	<path fill-rule="evenodd" clip-rule="evenodd" fill="#231F20" d="M119.05,26.534h-0.862c-0.245,0-0.491,0.186-0.491,0.431
		c0,0.308,0.246,0.493,0.491,0.493h0.862c0.31,0,0.492-0.186,0.492-0.493C119.542,26.72,119.359,26.534,119.05,26.534L119.05,26.534
		z"/>
	<path fill-rule="evenodd" clip-rule="evenodd" fill="#231F20" d="M120.281,11.075h-2.955c-0.246,0-0.432,0.308-0.432,0.555
		c0,0.246,0.186,0.432,0.432,0.432h2.955c0.246,0,0.431-0.186,0.431-0.432C120.712,11.383,120.527,11.075,120.281,11.075
		L120.281,11.075z"/>
	<path fill-rule="evenodd" clip-rule="evenodd" fill="#231F20" d="M110.679,10.892h1.291c0.31,0,0.493-0.248,0.493-0.556
		c0-0.247-0.184-0.431-0.493-0.431h-1.291c-0.309,0-0.492,0.184-0.492,0.431C110.187,10.644,110.37,10.892,110.679,10.892
		L110.679,10.892z"/>
	<path fill-rule="evenodd" clip-rule="evenodd" fill="#231F20" d="M103.6,14.709h0.861c0.245,0,0.43-0.247,0.43-0.492
		s-0.185-0.433-0.43-0.433H103.6c-0.31,0-0.494,0.188-0.494,0.433S103.29,14.709,103.6,14.709L103.6,14.709z"/>
	<path fill-rule="evenodd" clip-rule="evenodd" fill="#231F20" d="M126.56,26.841c-0.307,0-0.554,0.247-0.554,0.555
		c0,0.246,0.247,0.432,0.554,0.432h0.864c0.246,0,0.431-0.186,0.431-0.432c0-0.308-0.185-0.555-0.431-0.555H126.56L126.56,26.841z"
		/>
	<path fill-rule="evenodd" clip-rule="evenodd" fill="#231F20" d="M124.529,29.736h-0.863c-0.246,0-0.431,0.185-0.431,0.431
		c0,0.31,0.185,0.494,0.431,0.494h0.863c0.308,0,0.493-0.185,0.493-0.494C125.022,29.921,124.837,29.736,124.529,29.736
		L124.529,29.736z"/>
	<path fill-rule="evenodd" clip-rule="evenodd" fill="#231F20" d="M121.451,45.38c0-0.307-0.186-0.555-0.431-0.555h-0.864
		c-0.307,0-0.49,0.248-0.49,0.555c0,0.248,0.184,0.431,0.49,0.431h0.864C121.266,45.811,121.451,45.628,121.451,45.38L121.451,45.38
		z"/>
	<path fill-rule="evenodd" clip-rule="evenodd" fill="#231F20" d="M122.744,48.149h0.615c0.247,0,0.431-0.184,0.431-0.553
		c0-0.245-0.184-0.432-0.431-0.432h-0.615c-0.246,0-0.492,0.187-0.492,0.432C122.252,47.966,122.498,48.149,122.744,48.149
		L122.744,48.149z"/>
	<path fill-rule="evenodd" clip-rule="evenodd" fill="#231F20" d="M120.712,50.122h0.924c0.246,0,0.432-0.246,0.432-0.492
		c0-0.245-0.186-0.556-0.432-0.556h-0.924c-0.308,0-0.493,0.311-0.493,0.556C120.219,49.876,120.404,50.122,120.712,50.122
		L120.712,50.122z"/>
	<path fill-rule="evenodd" clip-rule="evenodd" fill="#231F20" d="M127.3,52.708c0-0.307-0.247-0.491-0.493-0.491h-0.862
		c-0.245,0-0.491,0.185-0.491,0.491c0,0.248,0.246,0.433,0.491,0.433h0.862C127.053,53.141,127.3,52.956,127.3,52.708L127.3,52.708z
		"/>
	<path fill-rule="evenodd" clip-rule="evenodd" fill="#231F20" d="M137.149,45.872c0,0.308,0.186,0.555,0.492,0.555h0.862
		c0.246,0,0.491-0.247,0.491-0.555c0-0.244-0.245-0.431-0.491-0.431h-0.862C137.335,45.441,137.149,45.628,137.149,45.872
		L137.149,45.872z"/>
	<path fill-rule="evenodd" clip-rule="evenodd" fill="#231F20" d="M128.223,55.233c0-0.246-0.185-0.492-0.493-0.492h-0.86
		c-0.246,0-0.432,0.246-0.432,0.492c0,0.248,0.186,0.493,0.432,0.493h0.86C128.038,55.727,128.223,55.481,128.223,55.233
		L128.223,55.233z"/>
	<path fill-rule="evenodd" clip-rule="evenodd" fill="#231F20" d="M143.984,57.944c0-0.248-0.187-0.493-0.493-0.493h-0.862
		c-0.246,0-0.432,0.245-0.432,0.493c0,0.309,0.186,0.492,0.432,0.492h0.862C143.798,58.437,143.984,58.253,143.984,57.944
		L143.984,57.944z"/>
	<path fill-rule="evenodd" clip-rule="evenodd" fill="#231F20" d="M144.167,59.914h-0.86c-0.248,0-0.494,0.186-0.494,0.493
		c0,0.246,0.246,0.432,0.494,0.432h0.86c0.247,0,0.556-0.186,0.556-0.432C144.723,60.1,144.414,59.914,144.167,59.914
		L144.167,59.914z"/>
	<path fill-rule="evenodd" clip-rule="evenodd" fill="#231F20" d="M129.209,57.944c0-0.248-0.187-0.493-0.432-0.493h-0.923
		c-0.246,0-0.431,0.245-0.431,0.493c0,0.309,0.185,0.492,0.431,0.492h0.923C129.022,58.437,129.209,58.253,129.209,57.944
		L129.209,57.944z"/>
	<path fill-rule="evenodd" clip-rule="evenodd" fill="#231F20" d="M129.885,60.222c0-0.246-0.185-0.492-0.493-0.492h-0.861
		c-0.308,0-0.492,0.246-0.492,0.492c0,0.311,0.185,0.492,0.492,0.492h0.861C129.7,60.714,129.885,60.532,129.885,60.222
		L129.885,60.222z"/>
	<path fill-rule="evenodd" clip-rule="evenodd" fill="#231F20" d="M132.532,67.858c0-0.246-0.186-0.492-0.433-0.492h-0.921
		c-0.308,0-0.495,0.246-0.495,0.492s0.188,0.494,0.495,0.494h0.921C132.347,68.353,132.532,68.104,132.532,67.858L132.532,67.858z"
		/>
	<path fill-rule="evenodd" clip-rule="evenodd" fill="#231F20" d="M133.763,69.952h-0.861c-0.31,0-0.492,0.186-0.492,0.432
		c0,0.309,0.183,0.557,0.492,0.557h0.861c0.247,0,0.494-0.248,0.494-0.557C134.257,70.138,134.01,69.952,133.763,69.952
		L133.763,69.952z"/>
	<path fill-rule="evenodd" clip-rule="evenodd" fill="#231F20" d="M110.739,48.768c0,0.245,0.185,0.431,0.431,0.431h0.862
		c0.31,0,0.493-0.186,0.493-0.431c0-0.309-0.184-0.493-0.493-0.493h-0.862C110.924,48.274,110.739,48.459,110.739,48.768
		L110.739,48.768z"/>
	<path fill-rule="evenodd" clip-rule="evenodd" fill="#231F20" d="M110.247,59.361c0.307,0,0.492-0.247,0.492-0.494
		c0-0.308-0.186-0.493-0.492-0.493h-0.924c-0.247,0-0.493,0.186-0.493,0.493c0,0.247,0.246,0.494,0.493,0.494H110.247
		L110.247,59.361z"/>
	<path fill-rule="evenodd" clip-rule="evenodd" fill="#231F20" d="M109.877,61.208c0,0.246,0.185,0.432,0.431,0.432h0.862
		c0.309,0,0.493-0.186,0.493-0.432c0-0.309-0.185-0.555-0.493-0.555h-0.862C110.062,60.653,109.877,60.899,109.877,61.208
		L109.877,61.208z"/>
	<path fill-rule="evenodd" clip-rule="evenodd" fill="#231F20" d="M115.664,69.708h-0.862c-0.246,0-0.491,0.307-0.491,0.555
		c0,0.244,0.245,0.492,0.491,0.492h0.862c0.245,0,0.493-0.248,0.493-0.492C116.157,70.015,115.909,69.708,115.664,69.708
		L115.664,69.708z"/>
	<path fill-rule="evenodd" clip-rule="evenodd" fill="#231F20" d="M118.496,72.849h-0.923c-0.247,0-0.433,0.244-0.433,0.49
		c0,0.248,0.186,0.494,0.433,0.494h0.923c0.246,0,0.431-0.246,0.431-0.494C118.927,73.093,118.742,72.849,118.496,72.849
		L118.496,72.849z"/>
	<path fill-rule="evenodd" clip-rule="evenodd" fill="#231F20" d="M97.319,60.283h-0.862c-0.308,0-0.493,0.308-0.493,0.556
		c0,0.245,0.186,0.494,0.493,0.494h0.862c0.246,0,0.491-0.249,0.491-0.494C97.811,60.591,97.565,60.283,97.319,60.283L97.319,60.283
		z"/>
	<path fill-rule="evenodd" clip-rule="evenodd" fill="#231F20" d="M88.515,22.9c0-0.245-0.244-0.431-0.491-0.431h-1.047
		c-0.31,0-0.555,0.186-0.555,0.431c0,0.247,0.245,0.493,0.555,0.493h1.047C88.271,23.394,88.515,23.147,88.515,22.9L88.515,22.9z"/>
	<path fill-rule="evenodd" clip-rule="evenodd" fill="#231F20" d="M88.208,25.304h1.107c0.248,0,0.431-0.188,0.431-0.432
		c0-0.309-0.183-0.493-0.431-0.493h-1.107c-0.246,0-0.493,0.185-0.493,0.493C87.715,25.116,87.962,25.304,88.208,25.304
		L88.208,25.304z"/>
	<path fill-rule="evenodd" clip-rule="evenodd" fill="#231F20" d="M90.608,27.272c0.309,0,0.493-0.246,0.493-0.493
		c0-0.245-0.185-0.492-0.493-0.492h-1.045c-0.248,0-0.495,0.247-0.495,0.492c0,0.247,0.247,0.493,0.495,0.493H90.608L90.608,27.272z
		"/>
	<path fill-rule="evenodd" clip-rule="evenodd" fill="#231F20" d="M91.102,28.136h-1.047c-0.309,0-0.491,0.246-0.491,0.492
		c0,0.308,0.183,0.492,0.491,0.492h1.047c0.246,0,0.492-0.185,0.492-0.492C91.594,28.382,91.348,28.136,91.102,28.136L91.102,28.136
		z"/>
	<path fill-rule="evenodd" clip-rule="evenodd" fill="#231F20" d="M87.715,56.957h-1.969c-0.246,0-0.431,0.187-0.431,0.494
		c0,0.245,0.185,0.493,0.431,0.493h1.969c0.247,0,0.493-0.248,0.493-0.493C88.208,57.144,87.962,56.957,87.715,56.957L87.715,56.957
		z"/>
	<path fill-rule="evenodd" clip-rule="evenodd" fill="#231F20" d="M18.889,22.655c-0.615-0.494-0.923-0.802-0.923-0.802
		c-0.185-0.187-0.43-0.308-0.615-0.124c-0.309,0.186-0.309,0.432-0.185,0.74c0,0,0.37,0.369,1.108,0.924
		c0.184,0.184,0.431,0.122,0.676-0.062C19.074,23.085,19.074,22.776,18.889,22.655L18.889,22.655z"/>
	<path fill-rule="evenodd" clip-rule="evenodd" fill="#231F20" d="M22.583,15.325c0,0,0.554,0.185,1.233,0.555
		c0.243,0.122,0.491,0.061,0.677-0.186c0.122-0.185,0.06-0.555-0.186-0.678c-0.8-0.432-1.293-0.678-1.354-0.678
		c-0.247-0.061-0.554,0-0.616,0.309C22.213,14.895,22.336,15.14,22.583,15.325L22.583,15.325z"/>
	<path fill-rule="evenodd" clip-rule="evenodd" fill="#231F20" d="M40.313,15.079c0,0,0.37,0.307,1.046,0.678
		c0.185,0.123,0.493,0.059,0.679-0.125c0.121-0.184,0.06-0.553-0.125-0.676c-0.675-0.494-1.107-0.678-1.107-0.678
		c-0.247-0.124-0.493-0.062-0.677,0.121C40.004,14.709,40.067,14.956,40.313,15.079L40.313,15.079z"/>
	<path fill-rule="evenodd" clip-rule="evenodd" fill="#231F20" d="M7.316,45.503c0.062-0.309,0-0.555-0.185-0.678
		c-0.986-0.553-1.479-0.984-1.479-0.984c-0.184-0.186-0.553-0.186-0.676,0.061c-0.184,0.186-0.184,0.432,0,0.676
		c0,0,0.614,0.496,1.662,1.111C6.822,45.811,7.193,45.688,7.316,45.503L7.316,45.503z"/>
	<path fill-rule="evenodd" clip-rule="evenodd" fill="#231F20" d="M6.146,60.532c-0.8,0-1.23-0.064-1.23-0.064
		c-0.246,0-0.555,0.186-0.555,0.432c0,0.309,0.123,0.492,0.432,0.555c0.062,0,0.554,0.061,1.354,0c0.308,0,0.493-0.184,0.493-0.492
		C6.638,60.714,6.454,60.532,6.146,60.532L6.146,60.532z"/>
	<path fill-rule="evenodd" clip-rule="evenodd" fill="#231F20" d="M15.626,55.356c-0.246-0.123-0.492,0-0.617,0.309
		c-1.475,3.326-4.738,4.373-7.199,4.742c-0.309,0.061-0.494,0.246-0.433,0.492c0,0.309,0.246,0.492,0.554,0.434
		c2.71-0.371,6.342-1.541,8.002-5.299C15.996,55.79,15.934,55.481,15.626,55.356L15.626,55.356z"/>
	<path fill-rule="evenodd" clip-rule="evenodd" fill="#231F20" d="M12.24,57.327c0.247-0.061,0.432-0.307,0.432-0.553
		c-0.061-0.246-0.307-0.494-0.553-0.494c-1.663,0.309-5.049-0.061-5.049-0.061c-0.308,0-0.554,0.245-0.554,0.492
		c0,0.245,0.123,0.555,0.371,0.555C7.131,57.267,10.455,57.575,12.24,57.327L12.24,57.327z"/>
	<path fill-rule="evenodd" clip-rule="evenodd" fill="#231F20" d="M137.581,31.399c0.37,0.123,0.799,0.246,1.23,0.307
		c0.309,0.062,0.554-0.061,0.616-0.307c0-0.246-0.123-0.555-0.371-0.616c-0.43-0.122-0.8-0.184-1.229-0.307
		c-0.186-0.062-0.492,0.06-0.616,0.307C137.149,31.03,137.272,31.338,137.581,31.399L137.581,31.399z"/>
	<path fill-rule="evenodd" clip-rule="evenodd" fill="#231F20" d="M141.829,32.2c0.983,0.123,2.4,0.186,3.509-0.062
		c0.245-0.062,0.431-0.369,0.368-0.615c-0.061-0.246-0.307-0.369-0.615-0.309c-0.739,0.124-1.847,0.186-3.2,0.062
		c-0.247,0-0.494,0.185-0.494,0.43C141.396,32.015,141.58,32.2,141.829,32.2L141.829,32.2z"/>
	<path fill-rule="evenodd" clip-rule="evenodd" fill="#C09756" d="M85.93,10.274c0.185-0.369,0.615-0.862,1.603-1.109
		c1.906-0.553,2.954-0.246,3.017,0.188c0.121,0.368-0.433,1.229-2.094,1.6c-1.233,0.431-2.033,0.186-2.279-0.124
		C85.93,10.706,85.93,10.46,85.93,10.274L85.93,10.274z"/>
	<path fill-rule="evenodd" clip-rule="evenodd" fill="#C09756" d="M85.868,11.815c0.738,0.43,1.664,0.43,2.833,0.061
		c0.676-0.123,1.169-0.37,1.598-0.676c-0.799,3.57-2.645,6.219-4.492,8.128c-2.093,0.431-2.771-0.37-3.017-0.679
		C84.329,16.802,85.622,14.585,85.868,11.815L85.868,11.815z"/>
	<path fill-rule="evenodd" clip-rule="evenodd" fill="#4A5252" d="M78.235,21.422c-0.739,0.556-1.417,0.925-1.417,0.925
		c-0.124-0.247-0.248-0.555-0.43-0.925H78.235L78.235,21.422z"/>
	<path fill-rule="evenodd" clip-rule="evenodd" fill="#231F20" d="M97.453,73.242c0-1.906,1.522-3.204,3.354-3.204
		c1.751,0,3.276,1.297,3.276,3.204s-1.525,3.201-3.276,3.201C98.976,76.443,97.453,75.148,97.453,73.242L97.453,73.242z
		 M100.807,75.986c1.446,0,2.666-1.219,2.666-2.744c0-1.602-1.22-2.668-2.666-2.668c-1.525,0-2.669,1.067-2.669,2.668
		C98.138,74.767,99.281,75.986,100.807,75.986L100.807,75.986z M100.119,75.148h-0.534v-3.812h1.373
		c0.914,0,1.295,0.305,1.295,1.066c0,0.689-0.381,0.992-0.99,0.992l1.066,1.754h-0.533l-1.066-1.678h-0.61V75.148L100.119,75.148z
		 M100.807,73.013c0.456,0,0.914-0.152,0.914-0.688c0-0.455-0.458-0.531-0.841-0.531h-0.761v1.219H100.807L100.807,73.013z"/>
	<path fill-rule="evenodd" clip-rule="evenodd" fill="#FFFFFF" d="M65.111,13.191c-0.061,0.635-0.448,0.847-0.896,0.747
		c-0.448-0.099-1.99-0.797-2.388-0.996c-0.397-0.199-0.348-0.393-0.397-0.748c-0.052-0.368,0.542-1.114,1.403-1.865
		c1.436-1.253,3.798-2.611,6.458-2.918c0.9-0.103,1.208,0.35,0.199,0.697C68.224,8.546,65.167,12.624,65.111,13.191L65.111,13.191z"
		/>
</g>
</svg>
