<?xml version="1.0" encoding="utf-8"?>
<!-- Generator: Adobe Illustrator 16.0.0, SVG Export Plug-In . SVG Version: 6.00 Build 0)  -->
<!DOCTYPE svg PUBLIC "-//W3C//DTD SVG 1.1//EN" "http://www.w3.org/Graphics/SVG/1.1/DTD/svg11.dtd">
<svg version="1.1" id="Layer_1" xmlns="http://www.w3.org/2000/svg" xmlns:xlink="http://www.w3.org/1999/xlink" x="0px" y="0px"
	 width="35.742px" height="29.287px" viewBox="0 0 35.742 29.287" enable-background="new 0 0 35.742 29.287" xml:space="preserve">
<g>
	<path fill-rule="evenodd" clip-rule="evenodd" fill="#1D1D1B" d="M2.053,6.486h33.556c0,0,0-2.608,0-3.878
		c0-1.27-0.802-2.607-2.808-2.607c-2.005,0-11.898,0-19.652,0S2.053,6.486,2.053,6.486L2.053,6.486z"/>
	<path fill-rule="evenodd" clip-rule="evenodd" fill="#1D1D1B" d="M0.716,9.228c0,0-0.936,4.546-0.668,7.488
		c0.267,2.942,2.807,12.571,13.435,12.571c10.628,0,17.714,0,18.917,0s3.342-0.669,3.342-2.675s0-9.361,0-11.166
		c0-1.806-0.936-2.943-2.875-2.943s-15.708,0-20.654,0c-4.947,0-2.941,7.088-2.941,7.088H7.4c0,0-1.136-3.945-2.808-6.353
		C2.922,10.833,0.716,9.228,0.716,9.228L0.716,9.228z"/>
</g>
</svg>
