<?xml version="1.0" encoding="utf-8"?>
<!-- Generator: Adobe Illustrator 16.0.0, SVG Export Plug-In . SVG Version: 6.00 Build 0)  -->
<!DOCTYPE svg PUBLIC "-//W3C//DTD SVG 1.1//EN" "http://www.w3.org/Graphics/SVG/1.1/DTD/svg11.dtd">
<svg version="1.1" id="Layer_1" xmlns="http://www.w3.org/2000/svg" xmlns:xlink="http://www.w3.org/1999/xlink" x="0px" y="0px"
	 width="187.086px" height="186.979px" viewBox="0 0 187.086 186.979" enable-background="new 0 0 187.086 186.979"
	 xml:space="preserve">
<g>
	<polygon fill-rule="evenodd" clip-rule="evenodd" fill="#FFFFFF" points="-2.835,-2.888 189.921,-2.888 189.921,189.868 
		-2.835,189.868 -2.835,-2.888 	"/>
	<polygon fill-rule="evenodd" clip-rule="evenodd" fill="#002C5C" points="187.086,186.979 187.086,0 0,0 0,186.979 
		187.086,186.979 	"/>
	<path fill-rule="evenodd" clip-rule="evenodd" fill="#FFFFFF" d="M134.368,48.325h3.857c3.75-0.106,5.357,3.322,5.357,6.001v40.183
		c0.107,2.893-1.607,5.57-4.929,5.57h-4.286V48.325L134.368,48.325z M138.332,46.825h-15.43v1.5h4.072v90.33h-4.072v1.607h17.358
		v-1.607h-5.893v-36.754h5.143c7.286,0,11.466-3.857,11.466-9.107v-36.11C150.977,51.432,147.44,46.825,138.332,46.825
		L138.332,46.825z"/>
	<path fill-rule="evenodd" clip-rule="evenodd" fill="#FFFFFF" d="M56.683,48.004c0,1.5-0.857,1.393-1.5,0.856
		c-2.572-1.714-5.572-3-8.358-3c-4.5,0-10.823,2.25-10.93,11.68v69.22c0.107,12.107,5.894,14.357,11.572,14.357
		c4.5,0.107,6.644-2.25,8.358-3.107c0.964-0.32,2.036,0.537,2.036,2.357h1.821V96.329h3.75v-1.5H47.789v1.5h4.5v37.824
		c0,3.107-2.036,5.465-4.714,5.465c-2.572,0-4.5-2.463-4.5-5.465V54.754c0-2.143,0.429-7.18,3.75-7.18
		c6.429,0,9.858,18.859,9.858,28.609h1.821V46.717h-1.821V48.004L56.683,48.004z"/>
	<path fill-rule="evenodd" clip-rule="evenodd" fill="#FFFFFF" d="M85.078,100.186l4.5-40.396l4.607,40.396H85.078L85.078,100.186z
		 M94.4,101.793l4.179,36.861h-4.071v1.607h15.43v-1.607h-4.072L95.579,46.717h-6.536l-9.644,86.793
		c-0.536,3.107-0.75,5.037-5.25,5.145v1.607h11.572v-1.607c-3.321,0-4.822-2.145-4.5-4.287l3.643-32.574H94.4L94.4,101.793z"/>
</g>
</svg>
