<?xml version="1.0" encoding="utf-8"?>
<!-- Generator: Adobe Illustrator 16.0.0, SVG Export Plug-In . SVG Version: 6.00 Build 0)  -->
<!DOCTYPE svg PUBLIC "-//W3C//DTD SVG 1.1//EN" "http://www.w3.org/Graphics/SVG/1.1/DTD/svg11.dtd">
<svg version="1.1" id="Layer_1" xmlns="http://www.w3.org/2000/svg" xmlns:xlink="http://www.w3.org/1999/xlink" x="0px" y="0px"
	 width="192.756px" height="192.756px" viewBox="0 0 192.756 192.756" enable-background="new 0 0 192.756 192.756"
	 xml:space="preserve">
<g>
	<polygon fill-rule="evenodd" clip-rule="evenodd" fill="#46454C" points="0,0 192.756,0 192.756,192.756 0,192.756 0,0 	"/>
	<path fill-rule="evenodd" clip-rule="evenodd" fill="#FFFFFF" d="M96.833,80.25v6.93h11.21V75.998h-11.21v2.637h8.559v5.895h-5.88
		V82.9h2.181v-2.65H96.833L96.833,80.25z M94.238,80.223v6.957H83.056V75.998h11.182v2.637h-8.531v5.895h5.881v-1.656h-2.208v-2.65
		H94.238L94.238,80.223z M99.483,66.901h2.182v2.65h-4.832v-6.931h11.182v11.182H96.833v-2.636h8.545v-5.895h-5.895V66.901
		L99.483,66.901z M94.238,62.621H83.056v11.182h11.182v-2.636h-8.531v-5.895h5.881v1.629h-2.181v2.65h4.832V62.621L94.238,62.621z"
		/>
	<polygon fill-rule="evenodd" clip-rule="evenodd" fill="#FFFFFF" points="11.382,100.461 182.415,100.461 182.415,103.004 
		11.382,103.004 11.382,100.461 	"/>
	<path fill-rule="evenodd" clip-rule="evenodd" fill="#FFFFFF" d="M27.444,112.668c0,0-2.148-3.191-7.358-3.191
		c-5.21,0-8.596,4.037-8.596,7.945c0,3.906,3.907,7.619,8.531,7.619c4.559,0,7.424-3.125,7.424-3.125l0,0v-4.951h-7.358v2.475h4.753
		v1.174c0,0-1.237,1.758-4.753,1.758c-3.582,0-5.861-2.801-5.861-4.949s1.759-5.34,5.861-5.34c4.038,0,5.405,2.213,5.405,2.213l0,0
		L27.444,112.668L27.444,112.668z"/>
	<polygon fill-rule="evenodd" clip-rule="evenodd" fill="#FFFFFF" points="36.691,109.803 39.361,109.803 39.361,124.779 
		36.691,124.779 36.691,109.803 	"/>
	<polygon fill-rule="evenodd" clip-rule="evenodd" fill="#FFFFFF" points="47.632,109.803 50.367,109.803 55.382,121.59 
		60.526,109.803 63.457,109.803 56.945,124.779 53.753,124.779 47.632,109.803 	"/>
	<polygon fill-rule="evenodd" clip-rule="evenodd" fill="#FFFFFF" points="71.597,124.715 71.597,109.803 83.905,109.803 
		83.905,112.342 74.071,112.342 74.071,115.793 83.905,115.793 83.905,118.268 74.071,118.268 74.071,122.305 83.905,122.305 
		83.905,124.715 71.597,124.715 	"/>
	<polygon fill-rule="evenodd" clip-rule="evenodd" fill="#FFFFFF" points="94.195,124.779 94.195,109.803 96.669,109.803 
		105.525,120.613 105.525,109.803 108,109.803 108,124.779 105.525,124.779 96.669,113.709 96.669,124.715 94.195,124.779 	"/>
	<path fill-rule="evenodd" clip-rule="evenodd" fill="#FFFFFF" d="M131.641,114.426l1.822-1.693c0,0-2.084-3.191-7.229-3.191
		s-8.4,3.973-8.4,7.881c0,3.906,3.517,7.684,8.4,7.684c5.601,0,7.555-3.582,7.555-3.582l0,0l-2.084-1.627c0,0-1.563,2.67-5.471,2.67
		c-4.559-0.064-5.86-3.908-5.86-5.145c0-1.238,1.172-5.211,5.86-5.211C130.337,112.211,131.641,114.426,131.641,114.426
		L131.641,114.426L131.641,114.426z"/>
	<polygon fill-rule="evenodd" clip-rule="evenodd" fill="#FFFFFF" points="143.297,109.736 145.901,109.736 145.901,115.533 
		155.214,115.533 155.214,109.803 157.754,109.803 157.754,124.779 155.214,124.779 155.214,118.072 145.901,118.072 
		145.901,124.715 143.297,124.715 143.297,109.736 	"/>
	<polygon fill-rule="evenodd" clip-rule="evenodd" fill="#FFFFFF" points="166.675,109.736 169.736,109.736 173.774,115.467 
		177.746,109.803 180.677,109.803 174.946,118.139 174.946,124.715 172.536,124.715 172.536,118.139 166.675,109.736 	"/>
</g>
</svg>
