<?xml version="1.0" encoding="utf-8"?>
<!-- Generator: Adobe Illustrator 16.0.0, SVG Export Plug-In . SVG Version: 6.00 Build 0)  -->
<!DOCTYPE svg PUBLIC "-//W3C//DTD SVG 1.1//EN" "http://www.w3.org/Graphics/SVG/1.1/DTD/svg11.dtd">
<svg version="1.1" id="Layer_1" xmlns="http://www.w3.org/2000/svg" xmlns:xlink="http://www.w3.org/1999/xlink" x="0px" y="0px"
	 width="157.87px" height="109.366px" viewBox="0 0 157.87 109.366" enable-background="new 0 0 157.87 109.366"
	 xml:space="preserve">
<g>
	<path fill-rule="evenodd" clip-rule="evenodd" d="M157.87,54.684c0,30.2-24.482,54.683-54.683,54.683
		c-8.712,0-16.947-2.037-24.257-5.66c-7.292,3.603-15.562,5.66-24.247,5.66C24.483,109.366,0,84.884,0,54.684S24.483,0,54.684,0
		c8.715,0,16.925,2.029,24.237,5.642C86.233,2.029,94.471,0,103.187,0C133.387,0,157.87,24.483,157.87,54.684L157.87,54.684
		L157.87,54.684L157.87,54.684z M147.078,54.684c0-24.24-19.651-43.891-43.891-43.891c-4.616,0-9.065,0.712-13.245,2.034
		c8.384,7.011,14.488,16.388,17.472,27.237l0,0L96.089,40.09l0,0c-3.198-9.073-9.291-16.753-17.173-21.981
		c-7.863,5.228-13.943,12.924-17.136,21.981l0,0l-11.325-0.026l0,0c2.976-10.819,9.193-20.278,17.542-27.285
		c-4.172-1.316-8.707-1.986-13.314-1.986c-24.24,0-43.891,19.65-43.891,43.891c0,24.239,19.651,43.89,43.891,43.89
		c4.579,0,8.994-0.7,13.143-2.002C56.95,87.425,49.874,74.101,48.678,59.084l0,0h26.017v10.727l-12.658,0.176l0,0
		c3.261,8.765,9.243,16.206,16.918,21.298c7.704-5.093,13.607-12.511,16.877-21.298l0,0l-12.657-0.176V59.084h26.017l0,0
		c-1.195,15.02-8.446,28.284-19.327,37.432c4.201,1.337,8.678,2.058,13.322,2.058C127.426,98.573,147.078,78.923,147.078,54.684
		L147.078,54.684L147.078,54.684L147.078,54.684z"/>
</g>
</svg>
