<?xml version="1.0" encoding="utf-8"?>
<!-- Generator: Adobe Illustrator 16.0.0, SVG Export Plug-In . SVG Version: 6.00 Build 0)  -->
<!DOCTYPE svg PUBLIC "-//W3C//DTD SVG 1.1//EN" "http://www.w3.org/Graphics/SVG/1.1/DTD/svg11.dtd">
<svg version="1.1" id="Layer_1" xmlns="http://www.w3.org/2000/svg" xmlns:xlink="http://www.w3.org/1999/xlink" x="0px" y="0px"
	 width="187.086px" height="33.564px" viewBox="0 0 187.086 33.564" enable-background="new 0 0 187.086 33.564"
	 xml:space="preserve">
<g>
	<path fill-rule="evenodd" clip-rule="evenodd" fill="#1D1D1B" d="M169.308,31.729c-0.391,0.469-0.703,0.781-0.977,0.898
		c-0.234,0.156-0.547,0.195-0.899,0.195c-0.703,0-1.289-0.234-1.719-0.703s-0.625-1.25-0.625-2.346v-3.086
		c0-1.133,0.195-1.914,0.625-2.383s1.016-0.705,1.719-0.705c0.548,0,0.978,0.156,1.368,0.432c0.352,0.273,0.625,0.742,0.82,1.406
		c0.195,0.703,0.391,1.133,0.625,1.367c0.43,0.469,1.212,0.938,2.306,1.445c1.094,0.469,2.306,0.703,3.634,0.703
		c2.071,0,3.751-0.469,5.08-1.445c0.82-0.586,1.25-1.289,1.25-2.148c0-0.586-0.234-1.094-0.625-1.604
		c-0.391-0.508-1.055-0.938-1.954-1.25c-0.625-0.234-1.953-0.547-4.024-0.938c-2.54-0.469-4.415-1.016-5.705-1.68
		c-1.289-0.664-2.344-1.562-3.087-2.775c-0.742-1.21-1.094-2.5-1.094-3.906c0-2.188,0.898-4.103,2.735-5.783
		c1.875-1.641,4.259-2.462,7.189-2.462c1.211,0,2.306,0.117,3.321,0.392c0.977,0.234,1.915,0.664,2.735,1.172
		c0.586-0.586,1.211-0.859,1.797-0.859c0.665,0,1.212,0.234,1.642,0.703s0.664,1.25,0.664,2.344v3.479
		c0,1.094-0.234,1.875-0.664,2.383c-0.43,0.431-0.977,0.703-1.642,0.703c-0.586,0-1.055-0.195-1.484-0.546
		c-0.312-0.235-0.586-0.743-0.742-1.524c-0.156-0.742-0.352-1.289-0.626-1.642c-0.43-0.547-1.094-1.055-1.953-1.445
		s-1.876-0.547-3.009-0.547c-1.68,0-2.97,0.352-3.946,1.133s-1.445,1.563-1.445,2.423c0,0.586,0.195,1.133,0.586,1.641
		c0.391,0.548,0.977,0.978,1.758,1.251c0.508,0.195,1.915,0.546,4.298,1.015c2.345,0.471,4.182,0.979,5.432,1.525
		c1.251,0.547,2.306,1.406,3.165,2.617c0.82,1.172,1.25,2.578,1.25,4.221c0,2.266-0.781,4.102-2.383,5.471
		c-2.149,1.797-4.846,2.695-8.167,2.695c-1.25,0-2.5-0.156-3.712-0.469C171.613,32.783,170.44,32.314,169.308,31.729L169.308,31.729
		z M104.249,14.262v13.949h1.876c1.25,0,2.148,0.195,2.657,0.625c0.547,0.469,0.82,1.016,0.82,1.721c0,0.664-0.273,1.25-0.82,1.68
		c-0.509,0.43-1.407,0.625-2.657,0.625h-6.76c-1.251,0-2.149-0.195-2.657-0.625c-0.547-0.43-0.781-1.016-0.781-1.721
		c0-0.664,0.234-1.211,0.742-1.68c0.547-0.43,1.367-0.625,2.423-0.625V9.886c-0.898-0.078-1.563-0.312-2.032-0.742
		c-0.469-0.431-0.703-0.977-0.703-1.603c0-0.703,0.273-1.25,0.82-1.68c0.508-0.469,1.407-0.665,2.618-0.665h5.666l7.033,14.106
		l6.916-14.106h5.704c1.251,0,2.11,0.234,2.657,0.665c0.509,0.43,0.782,0.977,0.782,1.68c0,0.626-0.234,1.172-0.703,1.603
		c-0.47,0.43-1.134,0.664-2.032,0.742v18.325c1.094,0,1.875,0.195,2.423,0.664c0.508,0.43,0.781,0.977,0.781,1.682
		c0,0.664-0.273,1.25-0.82,1.68c-0.509,0.43-1.407,0.625-2.657,0.625h-6.76c-1.251,0-2.11-0.195-2.657-0.625
		c-0.508-0.43-0.781-1.016-0.781-1.721c0-0.664,0.273-1.211,0.781-1.68c0.547-0.43,1.406-0.625,2.657-0.625h1.875V14.262
		l-5.938,13.676h-4.455L104.249,14.262L104.249,14.262z M72.56,16.566h3.595c1.329,0,2.5-0.233,3.556-0.624
		c1.406-0.547,2.344-0.586,2.853-1.211c0.469-0.587,0.742-0.665,0.742-1.251c0-0.898-0.469-1.72-1.407-2.462
		c-0.938-0.742-2.266-1.133-4.064-1.133H72.56V16.566L72.56,16.566z M72.56,20.709v7.502h1.642c1.133,0,1.915,0.195,2.383,0.625
		s0.703,1.016,0.703,1.721c0,0.664-0.234,1.25-0.703,1.68s-1.25,0.625-2.383,0.625h-6.995c-1.094,0-1.875-0.195-2.344-0.625
		s-0.704-1.016-0.704-1.721c0-0.664,0.235-1.25,0.704-1.68s1.25-0.625,2.344-0.625h0.743V9.886h-0.743
		c-1.094,0-1.875-0.195-2.344-0.664c-0.469-0.43-0.704-0.978-0.704-1.681s0.235-1.289,0.704-1.719s1.25-0.626,2.344-0.626H77.64
		c3.986,0,10.277,1.524,10.277,6.564c0,4.884-0.821,4.611-3.986,6.331c2.462,1.602,3.556,3.828,3.751,10.119
		c1.173,0,3.009,0.078,3.4,0.352c0.664,0.469,0.977,1.133,0.977,1.994c0,0.664-0.234,1.25-0.664,1.68
		c-0.469,0.43-1.25,0.664-2.384,0.625l-6.916-0.273c-0.235-9.066-0.625-12.074-5.002-11.879H72.56L72.56,20.709z M42.317,21.529
		v6.721h11.41v-2.461c0-1.133,0.234-1.916,0.625-2.385c0.43-0.469,0.977-0.703,1.641-0.703c0.625,0,1.172,0.234,1.602,0.703
		s0.625,1.252,0.625,2.385v7.072H37.159c-1.094,0-1.875-0.195-2.306-0.625c-0.469-0.43-0.703-0.977-0.703-1.68
		c0-0.666,0.234-1.213,0.703-1.643c0.469-0.43,1.212-0.664,2.306-0.664h0.665V10.237h-0.665c-1.094,0-1.875-0.195-2.306-0.625
		c-0.469-0.43-0.703-0.977-0.703-1.681c0-0.703,0.234-1.25,0.703-1.68c0.43-0.43,1.212-0.625,2.306-0.625h20.084v7.033
		c0,1.094-0.234,1.875-0.625,2.345c-0.391,0.469-0.938,0.703-1.602,0.703c-0.704,0-1.211-0.234-1.641-0.703
		c-0.43-0.47-0.625-1.251-0.625-2.345v-2.423H42.317v6.681h3.947l5.001-0.078l0.235,4.494l-5.236,0.195H42.317L42.317,21.529z
		 M144.065,21.529v6.721h11.449v-2.461c0-1.133,0.195-1.916,0.586-2.385c0.43-0.469,0.977-0.703,1.642-0.703
		c0.664,0,1.172,0.234,1.602,0.703s0.625,1.252,0.625,2.385v7.072h-21.061c-1.094,0-1.837-0.195-2.306-0.625
		s-0.703-0.977-0.703-1.68c0-0.666,0.234-1.213,0.703-1.643s1.251-0.664,2.306-0.664h0.703V10.237h-0.703
		c-1.094,0-1.837-0.195-2.306-0.625s-0.703-0.977-0.703-1.681c0-0.703,0.234-1.25,0.703-1.68s1.212-0.625,2.306-0.625h20.084v7.033
		c0,1.094-0.195,1.875-0.625,2.345c-0.391,0.469-0.938,0.703-1.603,0.703s-1.211-0.234-1.641-0.703
		c-0.391-0.47-0.625-1.251-0.625-2.345v-2.423h-10.434v6.681h3.947l5.001-0.078l0.273,4.494l-5.274,0.195H144.065L144.065,21.529z
		 M19.38,21.217H8.674v6.877h0.781c1.211,0,2.071,0.234,2.579,0.703c0.508,0.43,0.781,1.016,0.781,1.719
		c0,0.705-0.273,1.252-0.781,1.682c-0.508,0.469-1.368,0.664-2.579,0.664H3.321c-1.173,0-2.032-0.195-2.579-0.664
		C0.234,31.768,0,31.182,0,30.477c0-0.859,0.391-1.523,1.172-2.031c0.391-0.234,1.25-0.352,2.501-0.352V9.495
		C2.813,9.417,2.148,9.144,1.68,8.713c-0.43-0.43-0.664-0.977-0.664-1.641c0-0.703,0.273-1.289,0.782-1.719
		c0.508-0.431,1.367-0.665,2.579-0.665l5.08,0.039c1.211,0,2.071,0.195,2.579,0.626c0.508,0.469,0.781,1.016,0.781,1.719
		c0,0.742-0.273,1.329-0.781,1.759c-0.508,0.43-1.368,0.664-2.579,0.664H8.674v6.954H19.38V9.495h-0.781
		c-1.211,0-2.071-0.234-2.579-0.664s-0.782-1.017-0.782-1.759c0-0.703,0.274-1.289,0.782-1.719c0.508-0.431,1.368-0.665,2.579-0.665
		l5.08,0.039c1.211,0,2.071,0.195,2.579,0.626c0.508,0.469,0.781,1.016,0.781,1.719c0,0.664-0.234,1.211-0.665,1.641
		c-0.469,0.431-1.133,0.704-1.993,0.782v18.599c1.29,0,2.11,0.156,2.462,0.352c0.82,0.508,1.211,1.172,1.211,2.07
		c0,0.705-0.273,1.252-0.781,1.682c-0.508,0.469-1.368,0.664-2.54,0.664h-6.135c-1.211,0-2.071-0.195-2.579-0.664
		c-0.508-0.43-0.782-1.016-0.782-1.721c0-0.703,0.274-1.25,0.782-1.68c0.508-0.469,1.368-0.703,2.579-0.703h0.781V21.217
		L19.38,21.217z M144.809,0.039l5.939,1.016c0.703,0.117,1.172,0.391,1.406,0.782c0.195,0.312,0.234,0.664,0.117,1.055
		c-0.117,0.352-0.352,0.625-0.664,0.82c-0.273,0.156-0.704,0.195-1.329,0.078l-5.939-1.016c-0.703-0.117-1.172-0.352-1.406-0.742
		c-0.195-0.353-0.234-0.704-0.117-1.056s0.312-0.664,0.664-0.82C143.753,0,144.184-0.039,144.809,0.039L144.809,0.039z"/>
</g>
</svg>
