<?xml version="1.0" encoding="utf-8"?>
<!-- Generator: Adobe Illustrator 16.0.0, SVG Export Plug-In . SVG Version: 6.00 Build 0)  -->
<!DOCTYPE svg PUBLIC "-//W3C//DTD SVG 1.1//EN" "http://www.w3.org/Graphics/SVG/1.1/DTD/svg11.dtd">
<svg version="1.1" id="Layer_1" xmlns="http://www.w3.org/2000/svg" xmlns:xlink="http://www.w3.org/1999/xlink" x="0px" y="0px"
	 width="187.087px" height="72.981px" viewBox="0 0 187.087 72.981" enable-background="new 0 0 187.087 72.981"
	 xml:space="preserve">
<g>
	<path fill-rule="evenodd" clip-rule="evenodd" fill="#1D1D1B" d="M102.035,15.512c0.097,4.072,2.714,5.72,4.847,5.624
		c3.781,0,4.849-5.624,4.267-11.149c-0.291-3.103-1.261-6.399-4.945-6.399c-1.842,0-3.878,1.939-4.168,4.072V15.512L102.035,15.512z
		 M98.834,4.266c-1.163,0-3.394,0.291-3.394-1.551c0-1.067,0.582-1.455,1.261-1.455c1.357,0,2.618,0,4.169-0.097
		c0.291,0,0.775,1.648,1.164,1.648c0.29,0,1.454-1.26,1.744-1.357c2.424-1.163,4.654-0.775,6.593,0.291
		c2.23,1.357,3.685,3.975,3.976,6.884c0.775,7.95-0.873,12.701-3.588,14.252c-3.102,1.939-5.913,1.551-8.628-0.097l-0.097,5.914
		c2.035,0,4.944-0.484,4.944,1.455c0,0.97-0.873,1.454-1.552,1.454c-2.908,0-5.914,0-8.822,0c-0.582,0-1.164-0.679-1.164-1.551
		c0.098-1.842,2.134-1.358,3.394-1.358V4.266L98.834,4.266z M82.45,31.606c-0.97,0-2.521-0.388-2.521-1.454
		c0.097-1.648,0.872-1.648,3.103-1.648c0-4.459,0.291-13.088-0.388-14.931c-0.485-1.357-1.454-2.327-3.878-2.327
		c-2.521,0-5.041,1.454-4.944,5.429l-0.097,11.925c1.163,0,3.781-0.485,3.878,1.357c0,1.164-0.485,1.648-1.454,1.648h-6.593
		c-0.582,0-2.327,0-2.327-1.357c-0.097-1.648,1.746-1.842,3.103-1.746V11.828c-1.551,0-3.199,0.194-3.296-1.454
		c0-2.23,2.133-1.648,5.236-1.648c0.872,0.097,1.066,0.484,1.454,1.551c0.775-0.388,0.873-0.678,1.939-1.26
		c1.164-0.582,2.521-0.97,3.781-0.97c2.229,0,5.332,0,6.302,3.103c0.582,1.648,0.873,3.49,0.873,5.43v11.925
		c1.648,0,3.2-0.097,3.2,1.552c0,1.163-0.776,1.551-2.036,1.551H82.45L82.45,31.606z M53.364,28.504
		c2.036-0.097,3.878-1.357,4.363-3.587v-4.751c-2.617-0.097-8.144,0.097-7.853,4.654C50.067,27.631,51.813,28.601,53.364,28.504
		L53.364,28.504z M58.696,28.989c-3.587,3.975-12.022,4.072-12.022-4.363c0-5.332,3.199-6.399,8.726-7.271
		c1.551-0.291,2.327-1.066,2.23-2.036c0-2.618-0.097-5.138-3.2-5.138c-1.163,0-2.908,0-3.199,1.842
		c-0.097,1.648,2.23,4.266-1.648,4.266c-1.066,0-2.036-1.939-2.036-3.103c0-4.072,3.975-5.526,6.787-5.623
		c2.036,0,5.139,0.193,5.914,3.005c1.357,4.654,0.873,11.343,0.969,16.191c0.097,1.648,1.842,1.066,1.939,0.291
		c0.194-2.909-0.194-4.169,0.194-4.751c0.485-0.872,0.873-0.678,1.454-0.678c0.873,0,1.357,0.678,1.455,1.454
		c0.291,2.327,0,6.205-1.455,7.465c-0.485,0.485-1.648,0.776-2.424,0.776C61.023,31.316,59.763,31.025,58.696,28.989L58.696,28.989z
		 M123.073,28.504c2.036-0.097,3.781-1.357,4.363-3.587v-4.751c-2.715-0.097-8.145,0.097-7.95,4.654
		C119.679,27.631,121.522,28.601,123.073,28.504L123.073,28.504z M128.308,28.989c-3.49,3.975-11.925,4.072-11.925-4.363
		c0-5.332,3.103-6.399,8.726-7.271c1.551-0.291,2.229-1.066,2.229-2.036c0-2.618-0.193-5.138-3.199-5.138
		c-1.163,0-3.006,0-3.296,1.842c-0.098,1.648,2.326,4.266-1.552,4.266c-1.163,0-2.133-1.939-2.133-3.103
		c0-4.072,3.975-5.526,6.884-5.623c2.036,0,5.139,0.193,5.914,3.005c1.261,4.654,0.872,11.343,0.97,16.191
		c0.097,1.648,1.842,1.066,1.938,0.291c0.194-2.909-0.29-4.169,0.098-4.751c0.484-0.872,0.969-0.678,1.551-0.678
		c0.775,0,1.357,0.678,1.454,1.454c0.291,2.327-0.097,6.205-1.454,7.465c-0.582,0.485-1.745,0.776-2.521,0.776
		C130.732,31.316,129.375,31.025,128.308,28.989L128.308,28.989z M39.984,17.063c0-4.459-1.745-6.399-4.363-6.302
		c-2.812-0.097-4.848,2.133-4.75,6.302H39.984L39.984,17.063z M30.774,20.263c0.097,5.429,2.133,8.144,4.654,8.144
		s4.459-1.551,4.557-4.072c0.097-0.775,0.776-2.133,1.745-2.133c2.133,0,2.521,3.587,0.194,6.205
		c-2.327,2.618-3.684,3.199-6.399,3.199c-2.327,0-4.847-0.969-6.302-3.49c-1.551-2.521-2.23-5.817-2.23-9.017
		c0-6.399,3.394-11.44,8.726-11.44c5.527,0,8.047,5.817,8.047,9.889c0,1.357,0,2.327-0.679,2.424
		C42.214,20.457,35.428,20.263,30.774,20.263L30.774,20.263z M23.987,25.305c0,3.781-1.939,6.302-5.817,6.302
		c-2.812,0-5.817-0.873-5.817-4.459c0-1.552,0.679-2.327,2.327-2.327c1.842,0,2.133,1.261,1.842,2.133
		c-0.582,2.036-0.194,1.842,1.551,1.842c2.23,0,2.424-1.357,2.424-4.557L20.594,4.75c-0.097-1.066-0.484-1.842-1.066-1.842
		c-1.745,0-2.327-0.194-2.327-1.551C17.201,0.097,18.073,0,18.946,0h5.042V25.305L23.987,25.305z M160.788,2.424
		c0-1.455,3.297-1.261,5.817-1.261h0.193c0.291,0,0.485,0.194,0.582,0.485c0.097,0.388,0.194,0.776,0.194,1.164v24.335
		c0,1.551,0.484,2.036,1.163,2.036h-0.194h1.939c0.388,0,0.679,0.194,0.872,0.485c0.194,0.291,0.194,0.291,0.194,0.582v0.097l0,0
		c0,0.388-0.097,0.582-0.291,0.873c-0.193,0.291-0.484,0.388-0.873,0.388h-8.531c-0.291,0-0.484-0.097-0.679-0.388
		c-0.193-0.194-0.291-0.485-0.388-0.679c0-0.097,0-0.097,0-0.194l0.097,0.194c0-0.097,0-0.097,0-0.194c0,0,0,0,0-0.097
		c0.098-0.291,0.194-0.485,0.388-0.679c0.194-0.291,0.485-0.388,0.679-0.388c1.066,0,1.939,0.194,2.327-0.873
		c0.194-0.291,0.194-0.679,0.097-1.163V6.205c0-1.745-0.581-2.23-1.454-2.327C161.272,3.781,160.884,3.684,160.788,2.424
		L160.788,2.424z M156.231,27.922c0.582,0,3.49-0.873,3.49,0.679c0,1.939-4.169,2.909-5.333,2.909
		c-1.163-0.194-0.969-1.842-0.969-3.006c-1.357,1.746-3.103,3.2-6.69,3.103c-3.393-0.097-4.944-2.327-5.429-4.459
		c-1.066-3.975-0.388-9.986-0.485-13.961c0-1.745-0.581-1.745-1.356-1.842c-0.776,0-1.843-0.291-1.843-1.163
		c-0.097-1.357,1.357-1.26,2.812-1.26c0.582,0,2.036-0.194,3.588,0c0.193,0.291,0.388,0.582,0.388,0.969
		c-0.098,3.103-0.098,10.762,0,15.318c0,3.006,1.647,3.878,3.587,3.878c1.842-0.097,3.781-1.648,5.041-3.103V13.767
		c0-1.066,0.098-2.23-0.484-2.618c-0.872-0.485-3.103,0.291-3.199-1.163c0-0.97,0.291-1.455,1.454-1.455c1.745,0,2.618,0,4.46,0
		c0.291,0,0.582,0.194,0.679,0.582c0.193,0.291,0.291,0.775,0.291,1.26V27.922L156.231,27.922z"/>
	<path fill-rule="evenodd" clip-rule="evenodd" fill="#1D1D1B" d="M99.125,31.413c-0.775,0.775-1.26,1.746-1.454,3.006
		c-0.291,0.872-0.388,2.036-0.388,3.394c0,0.582,0,1.066-0.097,1.357c-0.194,0.387-0.485,0.678-0.97,0.775
		c-0.388-0.098-0.679-0.098-0.97-0.484l-0.291-0.486l-1.066-9.016l4.848-0.679L99.125,31.413L99.125,31.413z M108.821,27.631
		l3.103,24.335c0.097,0.873,0.194,1.26,0.388,1.455c0.097,0.193,0.484,0.387,1.066,0.484s0.873,0.389,0.97,0.873
		c0,0.484-0.194,0.871-0.485,1.066c-0.29,0.193-0.581,0.291-0.678,0.291l-9.793,1.648c-0.872,0.096-1.356-0.291-1.454-0.971
		c-0.097-0.582,0.194-0.969,0.582-1.164c0.581-0.289,0.97-0.58,1.066-0.871c0-0.098,0-0.582-0.097-1.455l-3.103-24.335
		L108.821,27.631L108.821,27.631z M120.261,28.698c-0.194-0.194-0.582-0.388-1.163-0.388c-0.485-0.194-0.775-0.485-0.775-1.066
		c-0.098-0.485,0.097-0.775,0.484-1.066c0.097-0.194,0.291-0.291,0.679-0.291l9.695-1.552c0.872-0.097,1.357,0.194,1.357,0.97
		c0.097,0.484-0.098,0.97-0.582,1.164c-0.582,0.291-0.872,0.582-0.872,0.775c-0.098,0.291-0.098,0.679-0.098,1.454l2.618,20.167
		c0.097,0.775,0.193,1.162,0.29,1.357c0.194,0.193,0.485,0.387,1.164,0.582c0.582,0,0.775,0.387,0.872,0.775
		c0.098,0.484-0.097,0.871-0.484,1.162l-0.679,0.291l-9.695,1.551h-0.679c-0.484-0.096-0.679-0.484-0.775-0.969
		s0.194-0.873,0.582-1.164c0.581-0.291,0.969-0.58,0.969-0.871c0.098-0.098,0.098-0.582,0-1.455l-2.617-19.972
		C120.552,29.377,120.358,28.892,120.261,28.698L120.261,28.698z M110.663,29.571l-0.291-2.23l4.945-0.776l1.163,8.92
		c0.097,0.194,0,0.388-0.097,0.582c-0.194,0.388-0.485,0.679-0.873,0.679c-0.388,0.096-0.775-0.098-0.969-0.485
		c-0.291-0.194-0.291-0.582-0.582-1.164c-0.388-1.26-0.679-2.327-1.066-3.103C112.311,30.928,111.536,30.152,110.663,29.571
		L110.663,29.571z M154.97,20.166l1.066,7.854c0,0.582-0.291,0.872-0.97,0.969c-0.388,0.097-0.775-0.097-1.066-0.775
		c-1.454-3.006-3.49-4.557-6.398-4.557l-0.291-2.23L154.97,20.166L154.97,20.166z M159.915,21.717
		c-0.581-0.194-0.872-0.485-0.969-0.969c-0.098-0.679,0.29-1.164,1.163-1.454l9.113-1.455l3.103,24.529
		c0.097,0.678,0.194,1.066,0.291,1.357c0.194,0.096,0.582,0.387,1.163,0.484c0.485,0,0.776,0.389,0.873,0.873
		c0.097,0.678-0.291,1.162-1.066,1.453l-9.792,1.553l-0.679-0.098c-0.485-0.098-0.776-0.389-0.776-0.873
		c-0.097-0.582,0.098-0.969,0.582-1.26c0.582-0.291,0.873-0.484,1.066-0.775c0.098-0.195,0-0.68-0.193-1.455L161.37,23.56
		c-0.194-0.775-0.291-1.164-0.388-1.455C160.788,21.911,160.497,21.814,159.915,21.717L159.915,21.717z M135.58,24.529
		c-0.193-0.678,0.194-1.163,1.066-1.357l9.113-1.455l3.685,28.601l-9.113,1.553l-0.775-0.098c-0.388-0.193-0.582-0.484-0.679-0.969
		c-0.098-0.486,0.193-0.873,0.582-1.164c0.678-0.291,0.969-0.484,1.066-0.775c0-0.195,0-0.68-0.098-1.455l-2.617-20.069
		c0-0.776-0.194-1.26-0.291-1.454c-0.194-0.194-0.582-0.292-1.066-0.485C135.871,25.305,135.58,25.014,135.58,24.529L135.58,24.529z
		 M152.934,30.54l1.164,8.338v0.969c-0.098,0.484-0.291,0.775-0.776,0.873c-0.484,0-0.97-0.291-1.26-1.164
		c-0.679-1.744-1.648-2.811-2.812-2.908l-0.29-2.424c1.163-0.582,1.745-1.745,1.938-3.781c0.098-0.873,0.388-1.357,0.97-1.357
		c0.484-0.194,0.775,0,0.873,0.485L152.934,30.54L152.934,30.54z M157.976,41.109l0.872,7.756l-7.95,1.26l-0.193-2.23
		c1.357-0.387,2.521-1.26,3.394-2.326c0.969-1.164,1.454-2.617,1.745-4.17l0.29-0.871c0.098-0.291,0.291-0.484,0.68-0.484
		C157.491,39.945,157.782,40.332,157.976,41.109L157.976,41.109z M174.361,17.161c1.261,0,2.424,0.097,3.394,0.388
		c2.424,0.97,3.878,2.812,4.362,5.72c0.291,2.036-0.097,3.781-1.066,5.235c-0.969,1.164-2.326,2.133-4.169,3.006v0.097
		c1.939,0,3.394,0.291,4.46,0.776c1.261,0.679,2.133,2.036,2.424,3.781l0.484,4.168c0,0.195,0.194,0.389,0.291,0.291
		c0.194-0.096,0.389-0.193,0.679-0.58c0.194-0.486,0.485-0.68,0.776-0.777c0.193,0,0.388,0.098,0.775,0.291
		c0.193,0.195,0.291,0.389,0.291,0.68c0.097,0.484-0.098,1.066-0.389,1.842c-0.388,0.582-0.678,1.164-1.066,1.648
		c-0.969,1.066-2.133,1.744-3.78,2.035c-1.648,0.193-2.909-0.193-4.072-0.969c-0.679-0.582-1.066-1.26-1.357-2.133
		c-0.291-0.68-0.485-1.455-0.582-2.521l-0.388-2.715c-0.193-1.163-0.291-2.036-0.581-2.521c-0.389-0.873-1.067-1.26-2.036-1.163
		l-0.291-2.327c0.872-0.291,1.454-0.679,1.647-1.357c0.194-0.388,0.194-1.261,0-2.327l-0.581-4.654
		c-0.098-0.97-0.388-1.745-0.582-2.133c-0.388-0.485-1.066-0.873-1.938-1.066l-0.291-2.327h0.193L174.361,17.161L174.361,17.161z
		 M96.217,58.947l-7.272,1.066l-0.194-2.229c2.521-0.775,3.878-3.201,4.169-7.369c0.097-0.775,0.485-1.26,1.164-1.357
		c0.388,0,0.581,0.098,0.775,0.389l0.291,0.969L96.217,58.947L96.217,58.947z M18.364,41.496c0.582-0.098,0.97,0.291,1.164,1.164
		l1.066,8.531c0,0.873-0.291,1.455-0.969,1.551c-0.485,0-0.776-0.096-0.97-0.387c-0.194-0.098-0.388-0.484-0.485-0.971
		c-0.873-2.229-1.939-3.877-3.296-5.041c-1.26-0.969-2.617-1.455-4.169-1.26l-0.291-2.328c1.454,0,2.812,0,4.266,0.195l1.746,0.291
		c0.388,0,0.678-0.291,0.969-0.777C17.685,41.884,17.976,41.593,18.364,41.496L18.364,41.496z M38.239,38.974l8.144,23.367
		l0.582,1.26c0.194,0.389,0.582,0.775,0.97,0.775c0.679,0.193,0.97,0.582,0.97,1.164c0.097,0.387-0.097,0.678-0.485,0.969
		c-0.291,0-0.679,0.193-1.261,0.291l-8.532,1.357c-1.163,0.193-1.745-0.098-1.842-0.775c0-0.291,0-0.582,0-0.775l0.485-0.484
		c0.484-0.291,0.679-0.68,0.775-0.873c0.097-0.291-0.097-0.873-0.291-1.551l-1.066-2.812l-5.042,0.775l0.194-2.23l4.169-0.678
		l-5.623-16.385l0.097-2.133L38.239,38.974L38.239,38.974z M48.613,37.23l9.792-1.551c0.872-0.097,1.357,0.291,1.454,1.067
		c0,0.387-0.097,0.871-0.679,1.066c-0.485,0.291-0.775,0.582-0.873,0.871c-0.097,0.195-0.097,0.68,0,1.359l2.327,18.518
		c0.194,0.871,0.291,1.551,0.388,1.842c0.485,1.164,1.261,1.842,2.424,2.035l0.388,2.23l-3.878,0.389
		c-1.26,0-2.521-0.291-3.684-0.775c-1.454-0.582-2.521-1.262-3.199-2.037c-0.388-0.678-0.679-1.551-0.97-2.617l-2.23-18.131
		c-0.097-0.775-0.291-1.357-0.388-1.453c-0.097-0.195-0.485-0.389-1.066-0.486c-0.485-0.096-0.873-0.387-0.873-0.873
		c-0.097-0.484,0.097-0.871,0.485-1.162L48.613,37.23L48.613,37.23z M64.901,37.132l-0.873-0.387
		c-0.291-0.098-0.291-0.485-0.388-0.776c-0.097-0.775,0.388-1.163,1.648-1.357l3.878-0.679h1.066c0.582,0,0.872,0.388,0.969,0.873
		c0,0.291-0.097,0.582-0.388,0.873l-0.775,0.678c-0.679,0.68-1.066,1.939-1.066,3.781l1.938,14.543
		c0.097,2.812-0.388,5.236-1.842,7.078c-0.97,1.453-2.327,2.326-3.781,2.617l-0.291-2.23c1.551-0.775,2.618-1.842,3.103-2.908
		c0.582-1.162,0.873-2.617,0.679-4.363l-1.842-14.348C66.549,38.683,65.871,37.521,64.901,37.132L64.901,37.132z M75.566,35.873
		c-0.194-0.194-0.582-0.388-1.163-0.485c-0.582-0.097-0.873-0.388-0.97-0.873c0-0.775,0.388-1.26,1.164-1.454l9.792-1.551
		l0.679,0.097c0.485,0.097,0.679,0.388,0.775,0.873c0.097,0.485-0.194,0.873-0.678,1.164c-0.485,0.291-0.873,0.582-0.873,0.873
		c-0.097,0.097-0.097,0.679,0,1.454l3.103,24.335l-9.114,1.455h-0.679c-0.485-0.193-0.679-0.484-0.775-0.971
		c-0.097-0.484,0.097-0.871,0.679-1.162c0.484-0.291,0.872-0.484,0.969-0.775c0.097-0.195,0-0.68-0.097-1.455l-2.521-20.068
		C75.663,36.455,75.663,36.066,75.566,35.873L75.566,35.873z M30.095,45.761l1.454,4.17l-1.648,13.572
		c-0.097,1.262-0.097,2.037,0.194,2.521c0.291,0.389,0.679,0.678,1.357,0.969l0.775,0.291c0.194,0.195,0.291,0.486,0.388,0.775
		c0.097,0.486-0.097,0.873-0.484,0.971l-1.066,0.387L26.993,70c-1.26,0.193-1.939,0-2.036-0.873c0-0.387,0.097-0.678,0.291-0.871
		l0.873-0.582c0.97-0.775,1.551-2.23,1.745-4.363l2.133-17.549H30.095L30.095,45.761z M14.098,60.013
		c-0.194-0.096-0.679-0.291-1.357-0.291c-0.679-0.096-0.97-0.387-0.97-0.969c-0.097-0.678,0.291-1.164,1.164-1.26l8.338-1.357
		c0.776-0.195,1.164,0.193,1.357,0.969c0,0.389-0.194,0.775-0.485,1.26c-0.291,0.195-0.485,0.486-0.485,0.777v0.387l0.97,7.66
		c-1.066,1.357-2.327,2.617-3.684,3.586c-1.551,0.971-3.103,1.553-4.654,1.842l-0.291-2.229c0.97-0.484,1.454-1.357,1.26-2.715
		l-0.872-6.885C14.292,60.304,14.195,60.111,14.098,60.013L14.098,60.013z M1.882,48.669c1.745-3.199,3.975-5.041,6.98-5.623
		l0.291,2.23c-1.067,0.582-1.455,1.842-1.261,3.781l2.424,18.324c0.291,1.939,0.873,3.006,2.036,3.297l0.388,2.229
		c-1.648,0.195-3.005,0-4.363-0.58c-1.455-0.582-2.618-1.455-3.781-2.619c-2.424-2.52-3.975-5.914-4.363-9.986
		C-0.348,55.554,0.137,51.871,1.882,48.669L1.882,48.669z"/>
</g>
</svg>
