<?xml version="1.0" encoding="utf-8"?>
<!-- Generator: Adobe Illustrator 16.0.0, SVG Export Plug-In . SVG Version: 6.00 Build 0)  -->
<!DOCTYPE svg PUBLIC "-//W3C//DTD SVG 1.1//EN" "http://www.w3.org/Graphics/SVG/1.1/DTD/svg11.dtd">
<svg version="1.1" id="Layer_1" xmlns="http://www.w3.org/2000/svg" xmlns:xlink="http://www.w3.org/1999/xlink" x="0px" y="0px"
	 width="78.138px" height="38.232px" viewBox="0 0 78.138 38.232" enable-background="new 0 0 78.138 38.232" xml:space="preserve">
<g>
	<path fill="#A50716" d="M46.71,30.402c-3.618,0.918-5.994,1.836-7.56,2.7C34.236,30.888,28.89,29.7,23.76,29.7
		c-6.318,0-12.042,1.62-16.902,3.942L0,0h46.71 M46.71,30.402 M46.71,0 M13.932,8.424H9.774v12.312h8.316V17.82h-4.158V8.424z
		 M25.326,18.846c-1.89,0-2.322-0.81-2.322-3.078h8.478c0-5.454-1.296-7.722-6.156-7.722c-5.292,0-6.696,1.836-6.696,6.588
		c0,4.644,1.944,6.858,6.426,6.858c4.428,0,6.048-1.62,6.156-4.158h-3.888C27.324,18.36,26.946,18.846,25.326,18.846z
		 M23.004,13.338c0-1.836,0.378-2.862,2.16-2.862c1.728,0,2.16,0.81,2.16,2.862H23.004z M36.126,8.424H31.59l4.698,12.312h5.13
		l4.806-12.312h-4.428l-2.862,8.046L36.126,8.424z"/>
	<path fill="#A50716" d="M46.656,0 M46.656,0h31.482L70.74,33.642c-4.86-2.808-9.288-3.996-15.714-3.996
		c-3.51,0-5.886,0.324-8.37,0.756 M47.412,8.37v12.366h4.05V8.37H47.412z M54.54,9.18l-0.216,1.242
		c1.296-0.81,1.836-1.512,1.836-2.43c0-1.026-0.702-1.566-1.728-1.566c-1.026,0-1.674,0.594-1.674,1.458
		C52.758,9.018,53.514,9.18,54.54,9.18z M60.318,16.848h-4.374c0.054,2.97,1.62,4.158,6.372,4.158c4.428,0,6.21-0.972,6.21-4.05
		c0-4.86-8.208-2.43-8.208-5.346c0-0.702,0.81-1.296,1.89-1.296c1.134,0,1.566,0.486,1.836,1.512h4.158
		c-0.054-2.592-1.566-3.78-5.724-3.78c-4.32,0-6.318,1.188-6.318,3.888c0,5.346,8.208,2.484,8.208,5.508
		c0,0.918-0.486,1.35-1.674,1.35C61.29,18.792,60.426,18.252,60.318,16.848z M63.666,33.479c1.296,0,2.376,1.08,2.376,2.376
		c0,1.296-1.08,2.376-2.376,2.376s-2.376-1.026-2.376-2.376C61.29,34.56,62.37,33.479,63.666,33.479z M65.664,35.856
		c0-1.08-0.864-1.944-1.998-1.944c-1.134,0-1.998,0.864-1.998,1.944c0,1.08,0.918,1.998,1.998,1.998
		C64.8,37.854,65.664,36.936,65.664,35.856z M62.856,37.044v-2.376h0.648c0.648,0,1.134,0.162,1.134,0.756
		c0,0.27-0.162,0.486-0.54,0.702l0.432,0.918h-0.432l-0.378-0.702h-0.378v0.702H62.856z M64.098,35.424
		c0-0.162-0.216-0.27-0.756-0.27v0.594C63.72,35.748,64.098,35.748,64.098,35.424z"/>
</g>
</svg>
