<?xml version="1.0" encoding="utf-8"?>
<!-- Generator: Adobe Illustrator 16.0.0, SVG Export Plug-In . SVG Version: 6.00 Build 0)  -->
<!DOCTYPE svg PUBLIC "-//W3C//DTD SVG 1.1//EN" "http://www.w3.org/Graphics/SVG/1.1/DTD/svg11.dtd">
<svg version="1.1" id="Layer_1" xmlns="http://www.w3.org/2000/svg" xmlns:xlink="http://www.w3.org/1999/xlink" x="0px" y="0px"
	 width="187.086px" height="86.607px" viewBox="0 0 187.086 86.607" enable-background="new 0 0 187.086 86.607"
	 xml:space="preserve">
<g>
	<polygon fill-rule="evenodd" clip-rule="evenodd" fill="#1D1D1B" points="77.488,39.661 55.979,40.427 76.402,41.562 
		77.488,39.661 77.488,39.661 	"/>
	<polygon fill-rule="evenodd" clip-rule="evenodd" fill="#1D1D1B" points="74.916,44.181 53.354,44.948 73.855,46.087 
		74.916,44.181 74.916,44.181 	"/>
	<polygon fill-rule="evenodd" clip-rule="evenodd" fill="#1D1D1B" points="72.343,48.739 50.808,49.495 71.283,50.633 
		72.343,48.739 72.343,48.739 	"/>
	<polygon fill-rule="evenodd" clip-rule="evenodd" fill="#1D1D1B" points="69.823,53.272 48.262,54.042 68.712,55.178 
		69.823,53.272 69.823,53.272 	"/>
	<polygon fill-rule="evenodd" clip-rule="evenodd" fill="#1D1D1B" points="96.18,16.846 68.725,17.823 96.257,19.353 96.18,16.846 
		96.18,16.846 	"/>
	<polygon fill-rule="evenodd" clip-rule="evenodd" fill="#1D1D1B" points="96.004,12.359 71.342,13.224 96.083,14.643 
		96.004,12.359 96.004,12.359 	"/>
	<polygon fill-rule="evenodd" clip-rule="evenodd" fill="#1D1D1B" points="95.831,8.033 73.855,8.755 95.934,9.981 95.831,8.033 
		95.831,8.033 	"/>
	<polygon fill-rule="evenodd" clip-rule="evenodd" fill="#1D1D1B" points="95.681,3.59 76.421,4.234 95.758,5.376 95.681,3.59 
		95.681,3.59 	"/>
	<polygon fill-rule="evenodd" clip-rule="evenodd" fill="#1D1D1B" points="95.557,0 78.805,0 95.583,0.89 95.557,0 95.557,0 	"/>
	<polygon fill-rule="evenodd" clip-rule="evenodd" fill="#1D1D1B" points="67.224,57.807 45.716,58.586 66.785,58.586 
		67.224,57.807 67.224,57.807 	"/>
	<path fill-rule="evenodd" clip-rule="evenodd" fill="#1D1D1B" d="M140.118,0.144h-30.997L108.242,1.7l15.512,0.823l0,0
		c0.181,0,0.181,0.258-0.078,0.258l0,0l-16.338,0.546l-1.577,2.757l15.408,0.91l0,0c0.206,0.026,0.155,0.311-0.026,0.311l0,0
		l-16.364,0.538l-1.525,2.641l15.382,0.854l0,0c0.337,0.026,0.337,0.31,0,0.31l0,0l-16.338,0.573l-1.552,2.761l15.33,0.879l0,0
		c0.337,0.026,0.311,0.336,0,0.336l0,0L99.737,16.78l-1.577,2.728l15.356,0.853l0,0c0.232,0.026,0.258,0.31-0.052,0.31l0,0
		l-47.077,1.577l44.673,2.481l0,0c0.284,0,0.259,0.362-0.052,0.362l0,0l-47.154,1.68l44.673,2.482l0,0
		c0.206,0,0.258,0.336-0.052,0.336l0,0l-47.232,1.706l44.673,2.482l0,0c0.181,0.025,0.361,0.362-0.026,0.387l0,0l-47.154,1.681
		l44.673,2.482l0,0c0.129,0.026,0.259,0.362-0.052,0.362l0,0l-23.732,0.845l0.078,2.142l21.146,1.175l0,0
		c0.155,0.026,0.233,0.336-0.052,0.336l0,0L79.78,43.936l0.102,2.395l18.356,1.021l0,0c0.181,0.025,0.258,0.388-0.053,0.388l0,0
		l-18.2,0.639l0.079,2.629l15.64,0.868l0,0c0.181,0.026,0.232,0.362-0.077,0.362l0,0l-15.485,0.552l0.103,2.893l12.926,0.718l0,0
		c0.181,0.026,0.181,0.336-0.077,0.336l0,0l-12.797,0.464l0.052,1.243h41.725l0,0c11.065,0,20.992-8.066,22.854-14.478
		s1.861-12.202-7.031-15.098c4.963-1.138,13.597-6.737,15.304-14.478C154.75,7.357,152.165,0.17,140.118,0.144L140.118,0.144
		L140.118,0.144L140.118,0.144z M119.13,45.045h-12.822l7.238-12.823h9.514l0,0C132.884,32.222,128.127,45.045,119.13,45.045
		L119.13,45.045L119.13,45.045L119.13,45.045z M135.725,17.536c-0.413,1.551-3.516,5.481-7.445,5.481l0,0h-9.514l6.102-10.755h4.86
		l0,0C135.932,12.469,136.139,15.985,135.725,17.536L135.725,17.536L135.725,17.536L135.725,17.536z"/>
	<path fill-rule="evenodd" clip-rule="evenodd" fill="#1D1D1B" d="M187.086,77.024c0-4.969-4.13-9.131-9.099-9.131
		c-5.098,0-9.26,4.227-9.26,9.421c0,5.163,4.13,9.293,9.292,9.293c3.775,0,7.356-2.581,8.421-6.099l0,0h-4.71l0,0
		c-0.936,1.484-2.162,2.162-3.84,2.162c-2.129,0-4.033-1.452-4.646-3.517l0,0h13.615l0,0
		C187.022,78.153,187.086,77.67,187.086,77.024L187.086,77.024L187.086,77.024L187.086,77.024z M173.117,75.781
		c0.613-2.42,2.549-3.969,4.937-3.969s4.259,1.517,4.84,3.969l0,0H173.117L173.117,75.781L173.117,75.781z"/>
	<path fill-rule="evenodd" clip-rule="evenodd" fill="#1D1D1B" d="M125.922,68.755v1.449l0,0c-1.355-1.452-3.317-2.278-5.414-2.278
		c-4.646,0-8.608,3.968-8.608,9.13c0,4.872,3.504,9.24,8.699,9.24c2.29,0,4.032-0.528,5.678-2.399l0,0v2.291h3.937V68.755H125.922
		L125.922,68.755L125.922,68.755z M121.114,82.602c-2.988,0-5.411-2.422-5.411-5.411c0-2.988,2.423-5.41,5.411-5.41
		s5.411,2.422,5.411,5.41C126.525,80.18,124.102,82.602,121.114,82.602L121.114,82.602L121.114,82.602L121.114,82.602z"/>
	<path fill-rule="evenodd" clip-rule="evenodd" fill="#1D1D1B" d="M8.583,67.893c-1.774,0-3.13,0.613-4.614,2.129l0,0v-1.709H0
		v17.874h4.292v-8.421l0,0c0-2.291,0.193-5.937,3.355-5.937c2.968,0,3.291,3.42,3.291,5.614l0,0v8.743h4.291v-9.583l0,0
		c0-2.517-0.193-3.71-0.871-5.13C13.358,69.345,11.002,67.893,8.583,67.893L8.583,67.893L8.583,67.893L8.583,67.893z"/>
	<path fill-rule="evenodd" clip-rule="evenodd" fill="#1D1D1B" d="M35.247,77.024c0-4.969-4.13-9.131-9.099-9.131
		c-5.098,0-9.26,4.227-9.26,9.421c0,5.163,4.13,9.293,9.292,9.293c3.775,0,7.356-2.581,8.421-6.099l0,0h-4.71l0,0
		c-0.936,1.484-2.162,2.162-3.839,2.162c-2.129,0-4.033-1.452-4.646-3.517l0,0h13.616l0,0C35.182,78.153,35.247,77.67,35.247,77.024
		L35.247,77.024L35.247,77.024L35.247,77.024z M21.276,75.781c0.613-2.42,2.549-3.969,4.937-3.969s4.259,1.517,4.84,3.969l0,0
		H21.276L21.276,75.781L21.276,75.781z"/>
	<polygon fill-rule="evenodd" clip-rule="evenodd" fill="#1D1D1B" points="105.851,86.173 110.143,86.173 110.143,62.329 
		105.851,62.329 105.851,86.173 105.851,86.173 	"/>
	<path fill-rule="evenodd" clip-rule="evenodd" fill="#1D1D1B" d="M141.536,67.893c-1.774,0-3.129,0.613-4.613,2.129l0,0v-1.709
		h-3.969v17.874h4.291v-8.421l0,0c0-2.291,0.194-5.937,3.355-5.937c2.969,0,3.291,3.42,3.291,5.614l0,0v8.743h4.292v-9.583l0,0
		c0-2.517-0.194-3.71-0.872-5.13C146.311,69.345,143.956,67.893,141.536,67.893L141.536,67.893L141.536,67.893L141.536,67.893z"/>
	<path fill-rule="evenodd" clip-rule="evenodd" fill="#1D1D1B" d="M158.893,71.83c1.969,0,3.098,0.645,4.162,2.452l0,0h4.84l0,0
		c-1.322-3.84-4.711-6.389-8.84-6.389c-5.228,0-9.422,4.162-9.422,9.292c0,5.162,4.227,9.422,9.422,9.422
		c2.646,0,5.259-1.162,7.033-3.13c0.903-1,1.226-1.581,1.807-3.162l0,0h-4.84l0,0c-1,1.549-2.29,2.355-3.904,2.355
		c-3,0-5.227-2.323-5.227-5.421C153.924,74.121,156.054,71.83,158.893,71.83L158.893,71.83L158.893,71.83L158.893,71.83z"/>
	<polygon fill-rule="evenodd" clip-rule="evenodd" fill="#1D1D1B" points="51.649,79.219 48.609,68.312 45.157,68.312 
		42.085,79.219 38.452,68.312 34.665,68.312 40.633,86.188 43.382,86.188 46.867,74.604 50.255,86.188 53.14,86.188 58.862,68.312 
		55.314,68.312 51.649,79.219 51.649,79.219 	"/>
	<path fill-rule="evenodd" clip-rule="evenodd" fill="#1D1D1B" d="M74.64,67.911c-2.097,0-4.059,0.826-5.414,2.278l0,0v-7.86h-4.292
		v23.844h3.937v-2.291l0,0c1.646,1.871,3.388,2.4,5.679,2.4c5.194,0,8.699-4.368,8.699-9.24
		C83.249,71.88,79.286,67.911,74.64,67.911L74.64,67.911L74.64,67.911L74.64,67.911z M74.034,82.602
		c-2.988,0-5.411-2.422-5.411-5.411c0-2.988,2.423-5.41,5.411-5.41s5.411,2.422,5.411,5.41
		C79.445,80.18,77.022,82.602,74.034,82.602L74.034,82.602L74.034,82.602L74.034,82.602z"/>
	<path fill-rule="evenodd" clip-rule="evenodd" fill="#1D1D1B" d="M98.693,68.755v1.449l0,0c-1.355-1.452-3.317-2.278-5.414-2.278
		c-4.646,0-8.609,3.968-8.609,9.13c0,4.872,3.505,9.24,8.7,9.24c2.29,0,4.032-0.528,5.678-2.399l0,0v2.291h3.937V68.755H98.693
		L98.693,68.755L98.693,68.755z M93.884,82.602c-2.988,0-5.411-2.422-5.411-5.411c0-2.988,2.422-5.41,5.411-5.41
		s5.411,2.422,5.411,5.41C99.295,80.18,96.873,82.602,93.884,82.602L93.884,82.602L93.884,82.602L93.884,82.602z"/>
</g>
</svg>
