<?xml version="1.0" encoding="utf-8"?>
<!-- Generator: Adobe Illustrator 16.0.0, SVG Export Plug-In . SVG Version: 6.00 Build 0)  -->
<!DOCTYPE svg PUBLIC "-//W3C//DTD SVG 1.1//EN" "http://www.w3.org/Graphics/SVG/1.1/DTD/svg11.dtd">
<svg version="1.1" id="Layer_1" xmlns="http://www.w3.org/2000/svg" xmlns:xlink="http://www.w3.org/1999/xlink" x="0px" y="0px"
	 width="192.755px" height="192.755px" viewBox="0 0 192.755 192.755" enable-background="new 0 0 192.755 192.755"
	 xml:space="preserve">
<g>
	<polygon fill-rule="evenodd" clip-rule="evenodd" fill="#FFFFFF" points="0,0 192.755,0 192.755,192.755 0,192.755 0,0 	"/>
	<path fill="#231F20" d="M139.718,104.732c2.455-4.967,3.939-8.847,5.48-13.015c3.711-0.686,8.506-1.998,12.844-4.11
		c9.135-4.446,18.611-13.073,19.982-24.833c1.475-12.661-3.883-22.606-12.561-24.319c-8.074-1.594-14.158,0-18.381,1.712
		c-4.453-8.734-15.643-14.043-21.58-16.441c-5.469-2.208-17.354-4.496-26.604-4.496c-9.247,0-21.133,2.288-26.601,4.496
		c-5.937,2.397-17.126,7.707-21.579,16.441c-4.225-1.712-10.309-3.306-18.382-1.712c-8.677,1.712-14.034,11.658-12.559,24.319
		c1.37,11.76,10.848,20.387,19.98,24.833c4.339,2.112,9.134,3.425,12.845,4.11c1.542,4.168,3.026,8.048,5.48,13.015H139.718
		L139.718,104.732z"/>
	<path fill="#E9C9AD" d="M47.637,45.876c-3.767-2.284-12.559-1.371-16.783,2.626c-5.057,4.783-4.44,15.698-1.256,21.351
		c4.567,8.106,13.358,13.815,20.552,13.358c-2.398-8.22-3.417-13.814-3.882-20.322C45.81,56.494,46.152,50.899,47.637,45.876
		L47.637,45.876z"/>
	<path fill="#E9C9AD" d="M98.9,160.347c16.67,0,33.111-2.238,44.986-5.436c11.873-3.195,23.062-6.621,31.055-16.213
		c7.992-9.59,2.213-18.795-7.307-25.346c-8.791-6.051-24.891-9.705-35.508-10.619c1.141-3.082,3.082-9.019,4.225-13.701
		c1.141-4.681,3.85-20.452,2.055-29.685c-1.6-8.22-5.822-15.83-13.93-19.637c-7.535-3.54-13.129-5.183-25.576-5.183
		c-12.443,0-18.038,1.643-25.574,5.183c-8.106,3.808-12.331,11.417-13.929,19.637c-1.795,9.233,0.914,25.004,2.056,29.685
		c1.141,4.682,3.083,10.619,4.224,13.701c-10.618,0.914-26.717,4.568-35.508,10.619c-9.519,6.551-15.3,15.756-7.308,25.346
		c7.993,9.592,19.182,13.018,31.056,16.213C65.791,158.109,82.232,160.347,98.9,160.347L98.9,160.347z"/>
	<path fill="#E9C9AD" d="M150.166,45.876c3.768-2.284,12.559-1.371,16.783,2.626c5.057,4.783,4.441,15.698,1.256,21.351
		c-4.566,8.106-13.357,13.815-20.551,13.358c2.398-8.22,3.418-13.814,3.881-20.322C151.992,56.494,151.65,50.899,150.166,45.876
		L150.166,45.876z"/>
	<path fill="#DE605F" d="M98.9,145.162c-8.961,0-23.461-1.152-33.166-2.666c-9.643-1.504-26.545-5.738-35.537-9.934
		c-1.349-0.629-1.867-1.781,0.314-2.426c4.824-1.428,29.457-6.166,36.992-7.193c7.536-1.027,25.29-2.215,31.396-2.215
		c6.109,0,23.863,1.188,31.398,2.215s32.168,5.766,36.992,7.193c2.182,0.645,1.664,1.797,0.314,2.426
		c-8.99,4.195-25.895,8.43-35.537,9.934C122.363,144.009,107.865,145.162,98.9,145.162L98.9,145.162z"/>
	<path fill="#231F20" d="M91.037,71.267c-1.503-5.9-5.688-9.927-9.346-8.996c-3.66,0.932-5.408,6.47-3.906,12.371
		c1.502,5.9,5.688,9.927,9.347,8.996C90.791,82.705,92.539,77.167,91.037,71.267L91.037,71.267z"/>
	<path fill="#231F20" d="M91.052,100.537c-1.892,0-3.425,1.303-3.425,2.91c0,1.609,1.533,2.912,3.425,2.912
		c1.892,0,3.425-1.303,3.425-2.912C94.477,101.839,92.943,100.537,91.052,100.537L91.052,100.537z"/>
	<path fill="#231F20" d="M106.765,71.267c1.504-5.9,5.688-9.927,9.348-8.996c3.658,0.932,5.408,6.47,3.906,12.371
		c-1.504,5.9-5.688,9.927-9.348,8.996C107.011,82.705,105.263,77.167,106.765,71.267L106.765,71.267z"/>
	<path fill="#231F20" d="M106.75,100.537c1.893,0,3.426,1.303,3.426,2.91c0,1.609-1.533,2.912-3.426,2.912
		c-1.891,0-3.424-1.303-3.424-2.912C103.326,101.839,104.859,100.537,106.75,100.537L106.75,100.537z"/>
	<path fill="#231F20" d="M151.208,161.132c0.477,0.029,0.596,0.266,0.822,0.535c0.076,1.801-0.225,3.855-0.617,5.594
		c-0.178,0.617-0.355,1.234-0.533,1.852c-0.049,0.656-0.107,1.266-0.289,1.975c-0.295,1.166-1.52,2.996-0.699,4.482
		c1.76,0.299,2-1.869,3.084-2.096c0.014,0.039,0.027,0.082,0.041,0.123c0.441,0.842-1.693,3.814-3.412,3.248
		c-0.748-0.246-0.682-0.896-0.988-1.604c-0.012,0-0.025,0-0.039,0c-0.396,0.473-1.107,1.35-2.303,0.945
		c-0.252-0.084-0.336-0.359-0.617-0.453c-0.244,0.57-1.268,1.004-1.975,0.578c-0.059-0.229-0.135-0.328-0.287-0.453
		c-0.486,0.256-1.355,1.086-2.098,0.945c-0.365-0.068-0.436-0.373-0.822-0.451c-0.5,0.623-1.498,0.525-2.014,0.082
		c-0.037-0.949,0.613-1.807,1.561-1.605c0.082,0.221,0.105,0.41,0.289,0.535c0.174-0.068,0.328-0.082,0.535-0.041
		c0.164,0.205,0.328,0.412,0.492,0.617c1.039,0.02,1.838-0.369,2.098-1.152c0.494,0.139,1.025,0.988,1.768,0.699
		c0.309-0.146,0.383-0.445,0.617-0.658c0.344,0.115,0.822,0.578,1.316,0.453c1.406-0.355,1.428-3.174,1.768-4.771
		c0.479-2.248,0.76-4.883,1.521-6.869C150.718,162.886,150.697,161.863,151.208,161.132L151.208,161.132z"/>
	<path fill="#231F20" d="M176.949,162.367c0.67,0.221,0.77,1.607,0.535,2.469c-0.441,1.617-0.787,3.469-1.193,5.141
		c-0.068,0.891-0.137,1.783-0.205,2.674c-0.15,0.576-0.303,1.152-0.453,1.729c0.014,0,0.027,0,0.043,0
		c0.039-0.041,0.082-0.084,0.123-0.125c0.391-0.143,0.652-0.791,1.109-0.656c0.281,0.115,0.635,0.451,0.699,0.781
		c-0.307,0.307-0.713,0.389-0.781,0.945c0.525,0.574,1.309,0.855,2.139,0.453c0.084,0.18,0.215,0.266,0.369,0.369
		c-0.09,0.264-0.189,0.42-0.328,0.617c-1.514,0.449-1.941-0.955-2.756-0.658c-0.365,0.176-0.418,0.545-0.66,0.822h-0.141
		c-0.418-0.176-0.762-0.424-0.762-1.027c-0.354,0.322-0.422,0.773-1.027,0.863c-0.324-0.182-0.695-0.273-1.152-0.371
		c-0.055-0.238-0.121-0.365-0.287-0.492c-0.311,0.129-1.604,0.988-1.809,0.945c-0.232-0.191-0.467-0.383-0.699-0.576
		c-0.596-0.139-1.738,0.053-2.303,0.248c-0.219,0.074-0.344,0.352-0.781,0.246c-0.273-0.178-0.549-0.357-0.822-0.535
		c-0.357-0.174-0.689,0.055-1.027-0.041c-0.367-0.102-0.361-0.381-0.865-0.41c-0.445,0.215-1.141,0.572-1.645,0.658
		c-0.199-0.164-0.719-0.332-0.574-0.701c0.143-0.26,0.203-0.09,0.451-0.246c0.416-0.26,0.871-0.918,1.234-1.275
		c0.92,0.041,1.367,0.807,2.303,0.988c0.375-0.406,1.152-0.379,1.85-0.371c0.068,0.221,0.137,0.439,0.205,0.658
		c0.232-0.027,0.467-0.055,0.699-0.082c0.158,0.039,0.221,0.201,0.494,0.164c0.182-0.023,0.568-0.164,0.863-0.082
		c0.162,0.047,0.223,0.258,0.494,0.205c0.662-0.123,1.551-0.611,2.219-0.492c0.137,0.137,0.275,0.273,0.412,0.41
		c0.416,0,0.594-0.119,0.822-0.287c0.01-1.184,1.043-2.375,1.357-3.578c0.535-2.051,0.58-3.896,1.027-6.006
		c0.137-0.494,0.275-0.986,0.41-1.48C176.652,163.613,176.648,162.935,176.949,162.367L176.949,162.367z"/>
	<path fill="#231F20" d="M162.556,164.587c0.371,0.014,0.742,0.027,1.111,0.041c0,0.055,0,0.111,0,0.166c-0.027,0-0.055,0-0.082,0
		c-1.053,0.406-2.084,0.25-3.125,0.533c-0.9,0.246-2.035,0.561-3.002,0.824c-0.246,0.014-0.494,0.027-0.74,0.039
		c-0.541,0.23-0.994,0.592-1.727,0.207c0.014-0.123,0.027-0.246,0.041-0.371c1.227-0.6,2.125-0.848,3.783-1.109
		C159.878,164.75,161.779,164.914,162.556,164.587L162.556,164.587z"/>
	<path fill="#231F20" d="M136.529,165.369c1.287-0.027,2.93,0.023,3.494,0.742c1.756,2.23-2.119,5.887-3.535,6.334
		c0.166,1.227,0.24,2.387,0.227,3.188c-0.014,0,0.32,0.803-0.021,0.926c-0.236-0.025-0.334-0.293-0.473-0.391
		c-0.174-0.996-0.209-2.211-0.555-3.23c-0.055,0.057-0.396,0.213-0.453,0.27c-0.574,0.15-1.32,0.586-1.891,0.35
		c0-0.016,0-0.029,0-0.043c0.014-0.039,0.027-0.082,0.041-0.123c0.076-0.139,1.668-0.902,2.262-1.439
		c-0.01-1.383-0.328-3.129-0.494-4.523c0.027-0.029,0.055-0.057,0.082-0.084c0.332-0.059,0.377,0.047,0.576,0.207
		c0.197,0.674,0.299,1.762,0.432,2.445c0.092,0.471-0.045,1.143,0.186,1.461c1.674-1.166,2.143-1.926,2.961-3.332
		c0.279-0.482,0.451-1.408-0.084-1.768c-0.496-0.334-1.445-0.051-2.178-0.166c-1.42-0.219-3.143,0.48-4.072,1.029
		c-0.494,0.295-0.955,0.797-1.645,0.865c-0.201-0.121-0.338-0.174-0.492-0.33c0.094-1.109,2.637-1.861,3.701-2.139
		C135.24,165.535,135.884,165.453,136.529,165.369L136.529,165.369z"/>
	<path fill="#231F20" d="M159.021,169.318c1.203-0.09,2.365-0.268,3.742-0.123c-0.141,0.426-2.834,0.857-3.537,1.357
		c-0.037,1.645,0.443,4.834,1.193,5.717c-0.027,0.043-0.055,0.084-0.082,0.123c-0.082-0.027-0.164-0.055-0.246-0.08
		c-0.234-0.344-0.467-0.686-0.701-1.029c-0.705-1.432-1.176-4.07-1.15-5.924c0.014-0.891-0.422-2.451,0.082-3.002
		c0.236,0.006,0.398,0.053,0.494,0.205C159.244,167.283,158.958,168.226,159.021,169.318L159.021,169.318z"/>
	<path fill="#231F20" d="M151.224,161.138c0.422-0.004,0.686,0.324,0.799,0.537c0,0.094,0,0.186,0,0.277
		c0.014,0.039,0.096,0.172,0.049,0.277c-0.025,0.057-0.096,0.293-0.098,0.359c-0.004,0.133,0.141,0.486,0.049,0.717
		c-0.043,0.064-0.088,0.129-0.131,0.195c-0.078,0.215,0.004,0.402-0.082,0.602c-0.121,0.289,0.092,0.568-0.031,0.85
		c-0.1,0.221,0.01,0.656-0.082,0.863c-0.143,0.32-0.146,0.781-0.293,1.125c-0.012,0.156-0.021,0.314-0.033,0.471
		c-0.129,0.271-0.133,0.689-0.244,0.945c-0.111,0.254-0.182,0.514-0.26,0.768c0,0,0.076,0.242,0.047,0.309
		c-0.062,0.145-0.016,0.34-0.08,0.488c-0.02,0.045-0.109,0.141-0.131,0.195c-0.08,0.203-0.043,0.393-0.113,0.555
		c0,0.137,0,0.271,0,0.408c-0.078,0.172-0.213,0.352-0.293,0.504c-0.1,0.188-0.051,0.438-0.115,0.637
		c-0.092,0.281-0.225,0.51-0.342,0.766c-0.174,0.379-0.266,2.002-0.082,2.412c0.047,0.102,0.156,0.164,0.244,0.229
		c0.475,0.006,0.723-0.209,1.01-0.375c0.131-0.055,0.262-0.109,0.393-0.162c0.463-0.271,0.926-1.064,1.221-1.533
		c0.109-0.027,0.219-0.055,0.326-0.082c0.07,0.1,0.139,0.215,0.146,0.375c-0.164,0.244-0.219,0.525-0.324,0.799
		c-0.045,0.049-0.088,0.098-0.131,0.146c-0.09,0.188-0.098,0.402-0.211,0.57c-0.256,0.377-0.885,1.146-1.271,1.354
		c-0.203,0.027-0.402,0.055-0.604,0.08c-1.154,0.312-1.855-0.426-1.842-1.465c-0.039-0.033-0.076-0.066-0.113-0.1
		c-0.15,0.09-0.115,0.115-0.197,0.277c-0.201,0.402-0.881,0.668-1.531,0.668c-0.195,0-0.391,0-0.586,0
		c-0.217-0.08-0.355-0.332-0.539-0.457c-0.031,0.006-0.064,0.012-0.098,0.018c-0.086,0.402-1.297,1.047-1.873,0.65
		c-0.127-0.084-0.205-0.406-0.359-0.535c-0.305,0.061-0.732,0.455-0.977,0.619c-0.123,0.08-0.252,0.02-0.408,0.08
		c-0.158,0.062-0.342,0.189-0.506,0.244c-0.441,0.152-0.668-0.443-1.043-0.455c-0.352,0.48-1.691,0.719-2.02,0.082
		c0-0.158,0-0.316,0-0.475c0.092-0.07,0.074-0.213,0.129-0.324c0.213-0.439,0.648-0.834,1.338-0.832
		c0.049,0.057,0.133,0.088,0.162,0.164c0.062,0.154-0.008,0.246,0.098,0.342c0.107,0.111,0.482-0.084,0.766,0.113
		c0.1,0.6,0.623,0.613,1.125,0.375c0.064,0,0.131,0,0.195,0c0.096-0.037,0.312,0,0.457-0.049c0.117-0.041,0.359-0.322,0.424-0.424
		c0.082-0.133,0.199-0.506,0.406-0.521c0.021,0.018,0.043,0.033,0.066,0.049c0.023,0.109,0.119,0.189,0.178,0.277
		c0.412,0.014,0.893,0.625,1.385,0.424c0.26-0.105,0.471-0.645,0.588-0.701c0.027-0.014,0.85,0.363,0.945,0.408
		c0.395,0.184,1.053-0.385,1.207-0.57c-0.008-0.525,0.541-1.289,0.699-1.68c-0.006-0.125-0.01-0.25-0.016-0.375
		c0.018-0.047,0.109-0.217,0.129-0.26c0.09-0.182-0.008-0.568,0.049-0.717c0.012-0.186,0.023-0.369,0.033-0.555
		c0.234-0.527,0.115-1.275,0.375-1.775c0.012-0.186,0.023-0.369,0.033-0.555c0.379-1.057,0.359-2.451,0.83-3.57
		c0.029-0.199,0.055-0.4,0.082-0.602c-0.02-0.055-0.104-0.285-0.049-0.408c0.1-0.219,0.262-0.369,0.342-0.553
		c0.074-0.17,0.023-0.486,0.033-0.521c0.109-0.365,0.293-0.793,0.457-1.125c0.01-0.131,0.021-0.262,0.031-0.391
		C151.048,161.402,151.113,161.285,151.224,161.138L151.224,161.138z"/>
	<path fill="#231F20" d="M167.521,174.843c0.008,0.213,0.141,0.527,0.229,0.652c0.006,0,0.01,0,0.016,0
		c0.227-0.002,0.463-0.174,0.668-0.082c0.127,0.057,0.248,0.227,0.49,0.162c0.152-0.039,0.609-0.186,0.863-0.08
		c0.121,0.051,0.271,0.287,0.488,0.211c0.092-0.031,0.203-0.131,0.311-0.162c0.217,0.012,0.434,0.021,0.65,0.031
		c0.287-0.107,0.707-0.654,1.289-0.373c0.148,0.072,0.248,0.318,0.391,0.424c0.426,0.01,0.607-0.135,0.83-0.311
		c-0.006-0.459,0.146-0.533,0.244-0.799c-0.125-0.26,0.244-0.561,0.344-0.732c0.068-0.121,0.078-0.355,0.146-0.539
		c0.059-0.152,0.229-0.283,0.293-0.424c0.082-0.178-0.008-0.377,0.082-0.57c0.072-0.156,0.17-0.34,0.244-0.504
		c0-0.146,0-0.293,0-0.439c0.102-0.234,0.127-0.576,0.211-0.799c0.033-0.088,0.07-0.377,0.033-0.424
		c0.191-0.396,0.164-1,0.342-1.434c0.012-0.158,0.021-0.316,0.033-0.475c0.223-0.51,0.234-1.252,0.424-1.76
		c-0.006-0.217-0.012-0.434-0.018-0.65c0.115-0.453,0.266-1.018,0.426-1.516c0.02-0.066-0.059-0.424,0-0.604
		c0.076-0.232,0.148-0.363,0.244-0.537c0.123-0.229,0.008-0.514,0.162-0.734c0.037,0,0.076,0,0.113,0
		c0.064,0.119,0.191,0.262,0.244,0.375c0.012,0.088,0.023,0.174,0.035,0.262c0.086,0.092,0.172,0.184,0.26,0.275
		c0.059,0.15-0.088,0.832-0.098,1.043c-0.018,0.385-0.135,0.84-0.277,1.158c-0.09,0.203-0.018,0.461-0.131,0.619
		c-0.008,0.014,0.088,0.361,0.049,0.473c-0.033,0.092-0.023,0.305-0.082,0.424c-0.045,0.098-0.16,0.203-0.211,0.293
		c-0.064,0.117-0.016,0.58-0.08,0.734c-0.232,0.527-0.234,1.367-0.49,1.938c0,0.164,0,0.326,0,0.49
		c-0.131,0.297-0.164,0.859-0.164,1.271c0,0.189,0,0.379,0,0.57c-0.172,0.445-0.172,0.934-0.342,1.352
		c0.006,0.027,0.012,0.055,0.018,0.082c-0.074,0.141-0.211,0.492-0.164,0.652c0.021,0,0.045,0,0.066,0
		c0.109-0.148,0.369-0.156,0.473-0.295c0.154-0.207,0.301-0.533,0.699-0.537c0.285,0.203,0.465,0.48,0.734,0.686
		c-0.131,0.486-0.764,0.438-0.799,1.043c0.215,0.389,0.588,0.549,1.043,0.699c0.092,0,0.186,0,0.277,0
		c0.053,0.021,0.203,0.09,0.326,0.049c0.193-0.064,0.316-0.178,0.504-0.244c0.033,0.156,0.236,0.291,0.359,0.359
		c-0.119,0.396-0.396,0.703-0.795,0.779h-0.422c-0.105-0.018-0.215-0.049-0.332-0.096c-0.141-0.135-0.281-0.271-0.422-0.406
		c-0.598-0.275-1.084-0.693-1.518,0.08l-0.225,0.422h-0.135c-0.107-0.045-0.168-0.121-0.26-0.178
		c-0.443-0.273-0.398-0.287-0.537-0.863c-0.039,0.033-0.076,0.064-0.113,0.098c-0.045,0.223-0.594,0.871-0.93,0.766
		c-0.135-0.043-0.24-0.188-0.393-0.244c-0.246-0.094-0.555,0.006-0.732-0.146c-0.018-0.17-0.135-0.371-0.277-0.473
		c-0.021,0-0.043,0-0.064,0c-0.191,0.154-0.488,0.309-0.701,0.424c-0.076,0.012-0.152,0.021-0.229,0.033
		c-0.176,0.092-0.299,0.299-0.455,0.406c-0.432,0.297-0.836-0.27-0.994-0.488c-0.5-0.09-0.6,0.117-1.027,0.082
		c-0.186-0.016-0.332-0.193-0.57-0.082c-0.143,0.066-0.293,0.189-0.455,0.244c-0.105,0-0.207,0-0.311,0
		c-0.209,0.076-0.363,0.363-0.783,0.244c-0.424-0.119-0.682-0.488-1.107-0.619c-0.348-0.107-0.447,0.17-0.75,0.049
		c-0.49-0.195-0.295-0.42-1.025-0.375c-0.049,0.07-0.098,0.143-0.148,0.213c-0.295-0.004-0.66,0.051-0.846,0.162
		c-0.166,0.1-0.221,0.234-0.49,0.246c-0.16-0.189-0.418-0.277-0.619-0.424c0-0.082,0-0.164,0-0.246
		c0.174-0.166,0.209-0.201,0.506-0.275c0.043-0.201,0.375-0.363,0.488-0.521c0.062-0.086,0.086-0.26,0.164-0.326
		c0.092-0.027,0.186-0.055,0.275-0.082c0.123-0.074,0.125-0.229,0.277-0.293c0.006-0.012,0.012-0.021,0.016-0.033
		c0.301-0.117,0.482,0.172,0.621,0.246c0.498,0.264,1.018,0.67,1.662,0.732c0.119-0.07,0.193-0.191,0.326-0.244
		C166.423,174.779,167.003,174.843,167.521,174.843L167.521,174.843z"/>
	<path fill="#231F20" d="M163.66,164.642c0,0.049,0,0.098,0,0.146c-0.104,0.014-0.379-0.016-0.506,0.033
		c-0.119,0.07-0.24,0.141-0.359,0.211c-0.137,0.059-0.277-0.031-0.359,0c-0.104,0.041-0.336,0.098-0.439,0.131
		c-0.086-0.018-0.174-0.033-0.26-0.049c-0.039,0.02-0.098,0.111-0.146,0.131c-0.236,0.09-0.568-0.035-0.719,0.031
		c-0.027,0.014-0.166,0.074-0.211,0.082c-0.033,0.006-0.115-0.059-0.195-0.033c-0.154,0.051-0.389,0.18-0.555,0.246
		c-0.242,0.094-0.531,0.006-0.75,0.113c-0.037,0.043-0.074,0.088-0.113,0.131c-0.18,0.01-0.357,0.021-0.537,0.031
		c-0.082,0.031-0.215,0.1-0.326,0.131c-0.131,0-0.262,0-0.391,0c-0.094,0.037-0.252,0.133-0.344,0.164
		c-0.244,0.016-0.488,0.031-0.732,0.049c-0.055,0.064-0.109,0.129-0.162,0.195c-0.414,0.234-1.145,0.291-1.549,0
		c-0.018-0.049-0.033-0.098-0.049-0.146c0.074-0.057,0.039-0.186,0.129-0.246c0.201-0.131,0.381-0.258,0.572-0.375
		c0.303-0.186,0.799-0.254,1.156-0.357c0.217-0.062,0.408,0.037,0.604-0.049c0.178-0.078,0.43-0.139,0.635-0.211
		c0.227-0.082,0.572-0.008,0.783-0.082c0.346,0,0.693,0,1.043,0c0.238-0.066,0.471-0.125,0.717-0.195
		c0.223-0.064,0.531,0.018,0.699-0.051c0.25-0.096,0.459,0.123,0.67,0.051C162.455,164.556,163.087,164.642,163.66,164.642
		L163.66,164.642z"/>
	<path fill="#231F20" d="M136.541,165.375c1.273-0.008,2.822,0.062,3.439,0.701c0.074,0.078,0.062,0.166,0.113,0.277
		c0.084,0.188,0.217,0.359,0.293,0.504c0.098,0.189-0.047,1.354-0.049,1.549c0,0.35-0.48,0.965-0.684,1.271
		c-0.098,0.088-0.197,0.174-0.293,0.262c-0.168,0.275-0.4,0.604-0.652,0.797c-0.086,0.066-0.203,0.107-0.262,0.197
		c-0.113,0.178-0.23,0.301-0.439,0.439c-0.174,0.113-0.244,0.387-0.375,0.488c-0.143,0.113-0.314,0.121-0.488,0.213
		c-0.229,0.117-0.404,0.271-0.668,0.375c0.049,0.279,0.096,0.635,0.178,0.879c0.039,0.115-0.004,0.389,0.033,0.49
		c0,0.195,0,0.391,0,0.586c0,0.623-0.008,1.256,0.164,1.58c0.115,0.219-0.018,0.463-0.148,0.57c-0.064,0-0.129,0-0.195,0
		c-0.135-0.184-0.262-0.402-0.342-0.586c0-0.094,0-0.186,0-0.277c-0.057-0.143-0.098-0.48-0.162-0.619c0-0.109,0-0.217,0-0.326
		c-0.07-0.156-0.066-0.387-0.131-0.555c-0.119-0.305-0.018-1.076-0.229-1.254c-0.48,0.359-1.367,0.73-2.184,0.732
		c-0.043-0.047-0.088-0.098-0.131-0.146c0.021-0.395,0.402-0.346,0.668-0.488c0.584-0.311,1.033-0.787,1.629-1.074
		c0.006-0.434-0.037-0.879-0.211-1.143c0.023-0.098,0.021-1.932-0.082-2.102c0.006-0.109,0.012-0.217,0.018-0.326
		c-0.096-0.258-0.207-0.641-0.213-0.961c0.131-0.062,0.17-0.117,0.393-0.115c0.137,0.186,0.283,0.314,0.375,0.488
		c0.08,0.154-0.023,0.25,0.031,0.424c0.184,0.588,0.09,1.316,0.342,1.844c0,0.102,0,0.205,0,0.309c0,0.334-0.049,0.877,0.098,1.092
		c0.008,0,0.012,0,0.018,0c0.01,0,0.021,0,0.031,0c0.197-0.248,0.502-0.404,0.768-0.588c0.086-0.059,0.125-0.18,0.195-0.26
		c0.152-0.174,0.338-0.258,0.537-0.391c0.07-0.047,0.084-0.182,0.18-0.244c0.617-0.404,0.863-1.121,1.189-1.811
		c0.055-0.059,0.109-0.119,0.162-0.178c0.311-0.596,0.252-1.383-0.26-1.695c-0.342-0.209-1.111-0.113-1.629-0.113
		c-0.148,0-0.295,0-0.441,0c-0.309-0.107-0.939-0.029-1.238,0.08c-0.131,0-0.262,0-0.391,0c-0.219,0.074-0.416,0.207-0.619,0.277
		c-0.184,0.027-0.369,0.055-0.555,0.082c-0.492,0.197-1.025,0.443-1.482,0.701c-0.076,0.07-0.152,0.141-0.229,0.211
		c-0.105,0.061-0.201,0.029-0.311,0.082c-0.102,0.049-0.172,0.184-0.26,0.244c-0.393,0.268-0.891,0.246-1.141-0.146
		c0.004-0.562,0.387-0.641,0.766-0.865c0.217-0.127,0.477-0.322,0.668-0.486c0.076-0.066,0.215-0.043,0.311-0.082
		c0.584-0.246,1.361-0.438,1.973-0.67c0.102,0,0.205,0,0.309,0c0.229-0.074,0.605-0.123,0.83-0.195
		C135.986,165.353,136.394,165.523,136.541,165.375L136.541,165.375z"/>
	<path fill="#231F20" d="M159.013,169.32c0.275,0,0.414-0.096,0.604-0.164c0.158,0.016,0.314,0.033,0.473,0.049
		c0.576-0.244,2.008-0.184,2.674,0.018c0,0.025,0,0.055,0,0.08c-0.219,0.139-0.428,0.27-0.701,0.375
		c-0.096,0.037-0.189-0.041-0.246-0.031c-0.154,0.021-0.309,0.119-0.422,0.162c-0.082,0.029-0.09-0.039-0.115-0.049
		c-0.096-0.039-0.184,0.059-0.244,0.082c-0.029-0.057-0.031-0.061-0.098-0.082c-0.203,0.125-0.391,0.143-0.619,0.244
		c-0.049,0.055-0.098,0.109-0.146,0.162c-0.088,0-0.174,0-0.262,0c-0.266,0.084-0.533,0.205-0.684,0.408
		c-0.006,0.838-0.012,1.746,0.244,2.428c0.01,0.141,0.021,0.283,0.033,0.424c0.209,0.518,0.4,1.303,0.406,1.744
		c0.006,0.428,0.555,1.016,0.408,1.221c-0.006,0-0.01,0-0.016,0c-0.039,0-0.076,0-0.115,0c-0.15-0.246-0.416-0.475-0.586-0.748
		c-0.195-0.311-0.18-0.594-0.326-0.93c-0.055-0.076-0.107-0.15-0.164-0.229c-0.084-0.244-0.074-0.438-0.162-0.65
		c0-0.066,0-0.131,0-0.195c-0.096-0.215-0.188-0.543-0.293-0.75c0-0.164,0-0.326,0-0.488c-0.051-0.146-0.17-0.344-0.213-0.475
		c-0.057-0.176,0.084-0.324,0.018-0.455c-0.104-0.201-0.256-1.891-0.213-2.037c0.041-0.143-0.02-0.352-0.049-0.424
		c0-0.24,0-0.479,0-0.717c-0.037-0.135-0.16-0.795-0.082-0.979c0.025-0.057,0.094-0.246,0.049-0.373
		c-0.018-0.055-0.098-0.24-0.049-0.359c0.041-0.098,0.137-0.162,0.229-0.211c0.592-0.012,0.416,0.273,0.588,0.602
		c0.055,0.104,0.152,0.066,0.162,0.244c-0.109,0.07-0.064,0.354-0.049,0.604c0.006,0.105-0.033,0.432-0.082,0.57
		C158.863,168.681,159.009,169.076,159.013,169.32L159.013,169.32z"/>
	<path fill="#231F20" d="M174.023,174.535c0.012,0.021,0.021,0.043,0.033,0.064c0.006-0.021,0.01-0.043,0.016-0.064
		C174.056,174.535,174.041,174.535,174.023,174.535L174.023,174.535z"/>
</g>
</svg>
