<?xml version="1.0" encoding="utf-8"?>
<!-- Generator: Adobe Illustrator 16.0.0, SVG Export Plug-In . SVG Version: 6.00 Build 0)  -->
<!DOCTYPE svg PUBLIC "-//W3C//DTD SVG 1.1//EN" "http://www.w3.org/Graphics/SVG/1.1/DTD/svg11.dtd">
<svg version="1.1" id="Layer_1" xmlns="http://www.w3.org/2000/svg" xmlns:xlink="http://www.w3.org/1999/xlink" x="0px" y="0px"
	 width="175.749px" height="104.268px" viewBox="0 0 175.749 104.268" enable-background="new 0 0 175.749 104.268"
	 xml:space="preserve">
<g>
	<path fill-rule="evenodd" clip-rule="evenodd" fill="#1D1D1B" d="M102.827,46.75c-3.671-3.182-3.793-5.874-3.793-5.874
		c0-3.916,4.038-2.937,4.527-2.325s4.161,4.772,4.161,4.772l3.549-7.098c0,0-1.469-3.182-8.444-3.182
		c-6.975,0-12.359,5.507-12.359,11.87c0,6.364,6.608,13.216,7.954,14.318c1.347,1.102,4.772,4.16,4.772,7.221
		c0,3.059-3.304,3.426-3.304,3.426c-3.916,0-8.688-8.32-8.688-8.32s-3.06,7.219-6.609,7.219c-3.548,0-3.916-3.67-3.916-3.67
		c0-5.998,4.528-13.34,4.528-13.34l-0.734-1.101c-1.591,0.857-4.772,0.979-4.772,0.979c-6.486,0-8.812-7.22-8.812-7.22l-0.979,0.123
		c-0.123,0.857-3.052,13.464-3.052,13.464c-0.761,3.281-6.571,27.531-12.276,27.531c-6.118,0-5.262-6.484-5.262-6.484l12.727-9.547
		c0,0,1.468-12.236-6.486-12.236c-7.587,0-17.622,8.076-17.622,23.25c0,0-0.122,12.115,10.892,12.115
		c10.805,0,17.016-15.781,21.292-33.48l5.417,1.908c-6.608,10.77-5.997,20.805,1.224,20.805c7.22,0,13.339-9.914,13.339-9.914
		s4.038,2.082,8.811,2.082s11.993-3.672,11.993-11.26S106.499,49.932,102.827,46.75L102.827,46.75z"/>
	<path fill-rule="evenodd" clip-rule="evenodd" fill="#1D1D1B" d="M35.123,33.29c-18.724,0-35.25,17.255-35.122,31.695
		C0.123,78.812,13.83,78.936,13.83,78.936s2.937-0.244,1.591-2.08s-5.262-8.445-5.262-14.809s6.072-25.54,22.226-25.54
		c0,0,14.241-0.281,9.469,19.299c0,0,12.116-1.102,12.116-11.626S35.123,33.29,35.123,33.29L35.123,33.29z"/>
	<path fill-rule="evenodd" clip-rule="evenodd" fill="#1D1D1B" d="M37.204,42.223c0,0-15.787,4.65-16.276,27.168
		c0,0-0.489,12.115,1.347,22.027c0,0,0,8.199-4.773,8.199S10.159,92.641,7.221,86.4L0.98,94.844c0,0,3.916,8.934,13.461,8.934
		S35.49,95.211,35.49,68.166c0,0-0.734-8.076-0.857-12.727C34.553,52.381,36.347,43.691,37.204,42.223L37.204,42.223z"/>
	<path fill-rule="evenodd" clip-rule="evenodd" fill="#FFFFFF" d="M48.462,74.775l5.017-3.305l-0.367-5.629
		c0,0,0.04-4.316-2.448-3.672C47.361,63.027,47.605,72.449,48.462,74.775L48.462,74.775z"/>
	<path fill-rule="evenodd" clip-rule="evenodd" fill="#1D1D1B" d="M123.631,64.129c8.199,0,16.889-11.627,16.889-23.864
		c0-12.238-10.035-13.217-11.382-13.217c-1.346,0-15.174,3.916-15.174,23.619C113.964,50.667,113.597,64.129,123.631,64.129
		L123.631,64.129z"/>
	<path fill-rule="evenodd" clip-rule="evenodd" fill="#FFFFFF" d="M121.918,38.551c-0.33,4.884,3.182,17.744,6.854,17.744
		c3.671,0,1.534-14.85-0.123-18.845C126.568,32.433,122.53,29.496,121.918,38.551L121.918,38.551z"/>
	<path fill-rule="evenodd" clip-rule="evenodd" fill="#1D1D1B" d="M157.896,0.003c-8.566,0-13.339,13.706-13.339,23.251
		s0,29.371,0,29.371s0.489,3.793,4.283,3.793s10.157-3.549,13.584-5.629c3.427-2.081,6.976-3.182,8.566-3.182
		s1.713,1.101,1.713,1.713c0,0.611-0.734,1.468-4.772,2.937S43.23,102.799,41.028,104.268h23.863c0,0,61.188-29.738,75.873-36.469
		c14.686-6.73,27.168-12.727,31.084-14.686c3.916-1.957,3.794-3.915,3.794-5.384s-1.347-2.57-4.406-2.57s-7.22,1.101-10.769,3.427
		c-3.549,2.325-6.731-0.367-6.731-4.895c0-4.528,0.123-9.423,2.815-12.728c2.692-3.304,9.301-8.199,9.301-19.825
		C165.852-0.487,157.896,0.003,157.896,0.003L157.896,0.003z"/>
	<path fill-rule="evenodd" clip-rule="evenodd" fill="#FFFFFF" d="M156.918,3.429c-2.081,0-2.938,4.283-2.938,8.322
		s0,13.829,0,13.829s0.429,3.212,2.203-0.245c1.624-3.165,3.426-6.485,3.426-13.339C159.609,5.143,158.631,3.429,156.918,3.429
		L156.918,3.429z"/>
	<path fill-rule="evenodd" clip-rule="evenodd" fill="#1D1D1B" d="M169.001,4.327c0-1.912,1.551-3.321,3.383-3.321
		c1.814,0,3.365,1.41,3.365,3.321c0,1.929-1.551,3.338-3.365,3.338C170.552,7.666,169.001,6.256,169.001,4.327L169.001,4.327z"/>
	<path fill-rule="evenodd" clip-rule="evenodd" fill="#FFFFFF" d="M172.384,7.111c1.507,0,2.695-1.181,2.695-2.784
		c0-1.577-1.188-2.766-2.695-2.766c-1.523,0-2.713,1.189-2.713,2.766C169.671,5.93,170.86,7.111,172.384,7.111L172.384,7.111z"/>
	<path fill-rule="evenodd" clip-rule="evenodd" fill="#1D1D1B" d="M171.679,6.256h-0.581V2.416h1.463
		c0.907,0,1.356,0.335,1.356,1.092c0,0.687-0.432,0.987-0.995,1.057l1.092,1.691h-0.652l-1.013-1.665h-0.67V6.256L171.679,6.256z"/>
	<path fill-rule="evenodd" clip-rule="evenodd" fill="#FFFFFF" d="M172.375,4.098c0.493,0,0.934-0.035,0.934-0.625
		c0-0.476-0.432-0.564-0.837-0.564h-0.793v1.189H172.375L172.375,4.098z"/>
</g>
</svg>
