<?xml version="1.0" encoding="utf-8"?>
<!-- Generator: Adobe Illustrator 16.0.0, SVG Export Plug-In . SVG Version: 6.00 Build 0)  -->
<!DOCTYPE svg PUBLIC "-//W3C//DTD SVG 1.1//EN" "http://www.w3.org/Graphics/SVG/1.1/DTD/svg11.dtd">
<svg version="1.1" id="Livello_1" xmlns="http://www.w3.org/2000/svg" xmlns:xlink="http://www.w3.org/1999/xlink" x="0px" y="0px"
	 width="205.806px" height="118.28px" viewBox="0 0 205.806 118.28" enable-background="new 0 0 205.806 118.28"
	 xml:space="preserve">
<g>
	<g>
		<rect x="0.057" y="0.057" fill="#ED1C24" stroke="#ED1C24" stroke-width="0.1135" width="205.693" height="118.167"/>
		<path fill="#ED1C24" d="M102.903,59.139"/>
	</g>
	<path fill="#FFFFFF" d="M110.339,58.048c2.359,0,3.949,1.469,3.949,3.125c0,2.292-2.361,5.666-6.883,5.666
		c-3.38,0-3.881-2.168-3.881-3.122C103.525,61.997,106.004,58.048,110.339,58.048z"/>
	<path fill="#FFFFFF" d="M119.382,68.495c0-1.082,0.258-4.205,0.258-5.924l-0.385-28.985c0-7.512,2.26-12.492,4.506-15.74
		c2.221-3.207,7.352-9.17,14.48-9.17c5.486,0,8.344,4.455,8.344,9.365c0,5.417-1.844,9.74-8.152,15.606
		c-6.307,5.864-7.834,6.05-7.834,7.71c0,1.593,2.031,2.615,3.117,3.38c1.086,0.764,5.352,3.697,7.453,5.542s2.742,3.118,2.742,4.903
		c0,3.063-1.334,4.765-2.611,6.688c-2.041,3.064-9.627,10.764-13.51,18.157c-0.896,1.462-1.619,1.444-2.229,0.64
		c-1.098-1.445-1.977-2.557-2.293-3.572c-0.314-1.016-0.895-2.677,0.127-4.264c1.021-1.59,8.219-10.513,10.762-13.762
		c2.229-2.842,2.168-6.879,0.514-8.474c-1.654-1.595-5.434-4.964-6.559-6.306c-0.955-1.148-1.654-3.554,0-5.478
		c5.221-6.055,10.828-12.87,10.828-19.625c0-3.822-2.49-6.432-4.461-6.432c-4.77,0-8.918,8.917-9.107,17.01l0.891,31.6
		c0,2.359,0.053,3.487-1.717,5.548c-1.689,1.965-3.379,2.604-4.336,2.604C119.705,69.515,119.382,69.132,119.382,68.495z"/>
	<path fill="#FFFFFF" d="M186.396,36.592c0,1.079,0.879,1.96,1.961,1.96c1.08,0,1.959-0.882,1.959-1.96
		c0-1.08-0.879-1.96-1.959-1.96C187.275,34.632,186.396,35.512,186.396,36.592z M186.96,36.592c0-0.901,0.609-1.526,1.396-1.526
		c0.775,0,1.395,0.625,1.395,1.526c0,0.906-0.619,1.526-1.395,1.526C187.57,38.118,186.96,37.498,186.96,36.592z M187.57,37.67
		h0.467v-0.921h0.221l0.521,0.921h0.48l-0.576-0.944c0.336-0.026,0.576-0.183,0.576-0.579c0-0.489-0.318-0.652-0.871-0.652h-0.818
		V37.67z M188.037,36.391v-0.537h0.332c0.184,0,0.42,0.026,0.42,0.249c0,0.25-0.15,0.289-0.373,0.289H188.037z"/>
	<path fill="#FFFFFF" d="M60.553,81.526c0-4.969,4.587-12.328,8.886-12.328c0.765,0,1.244,0.191,2.103,0.191
		c1.051,0,1.625-2.198,3.25-2.198c1.433,0,2.801,0.478,2.801,4.014c0,1.72,1.373,4.491,2.454,4.491c2.39,0,3.925-6.747,5.065-9.939
		c0.292-0.823,1.146-1.624,1.816-1.624c1.278,0,1.881,0.981,2.006,2.066c0.126,1.088,0.312,5.992,1.59,5.992
		c1.54,0,2.937-4.461,4.143-6.946c1.207-2.484,2.545-4.586,3.501-4.586c0.956,0,0.848,0.896,0.831,1.659
		c-0.192,7.005-0.515,38.475-0.449,39.048s-0.256,1.021-0.764,1.021s-3.316,0.067-3.822,0.067c-0.508,0-0.831-0.574-0.831-1.088
		l0.323-25.734c0-1.464-0.872-1.195-1.464-0.316c-1.787,2.669-2.926,4.396-4.778,4.396c-3.13,0-1.779-4.014-3.125-4.014
		c-1.344,0-3.379,6.625-7.135,6.625c-3.631,0-2.742-4.081-4.014-4.081c-1.464,0-4.331,7.204-9.108,7.204
		C62.427,85.444,60.553,84.901,60.553,81.526z"/>
	<path fill="#ED1C24" stroke="#ED1C24" stroke-width="0.1135" d="M66,79.96c0-1.911,3.56-7.705,5.22-7.705
		c0.573,0,0.956,0.569,0.956,1.214c0,1.72-3.751,7.638-5.22,7.638C66.442,81.107,66,80.85,66,79.96z"/>
	<path fill="#FFFFFF" d="M145.888,58.496c0-5.034,4.975-13.825,10.387-13.825c0.766,0,1.654-0.191,2.16-0.765
		c0.508-0.571,0.963-1.272,1.979-1.272c1.713,0,2.09,1.594,2.293,2.927c0.316,2.102,0.578,5.607,2.102,5.607
		c1.148,0,1.547-1.092,2.17-2.604c0.57-1.397,2.793-6.251,3.625-7.782c0.828-1.529,1.777-1.91,2.482-1.91s1.721,0.704,1.721,1.659
		c0,0.955,0.133,3.184,0.133,3.184c0,1.145,0.918,1.354,1.658-0.449c0.891-2.168,2.678-6.749,5.031-6.749
		c1.648,0,2.16,1.589,2.736,3.756c0.572,2.168,1.533,6.624,3.951,6.624c0.766,0,2.104-1.205,2.674-0.632
		c0.527,0.524-0.822,2.412-1.908,3.69c-1.086,1.279-2.295,2.484-4.014,2.484c-1.723,0-2.98-0.656-3.824-2.735
		c-0.697-1.726-1.086-4.718-2.102-4.718c-0.895,0-1.473,1.463-2.555,3.822s-3.238,6.756-5.473,6.756
		c-1.475,0-1.783-1.148-1.783-3.059c0-0.765-0.533-1.535-1.404,0.066c-1.465,2.675-2.803,5.793-5.604,5.793
		c-2.42,0-3.291-1.966-3.697-3.44c-0.191-0.697-0.697-1.277-1.271-0.382s-3.439,4.651-4.779,5.798
		c-1.338,1.146-2.424,2.036-4.145,2.036C146.712,62.377,145.888,61.106,145.888,58.496z"/>
	<path fill="#ED1C24" stroke="#ED1C24" stroke-width="0.1135" d="M151.623,54.991c0-1.719,3.504-6.689,5.158-6.689
		c0.568,0,0.764,0.387,0.764,0.832c0,1.276-3.248,7.129-4.969,7.129C152.003,56.262,151.623,55.629,151.623,54.991z"/>
	<path fill="#FFFFFF" d="M43.744,87.496c0-0.964-0.869-1.288-0.869-1.288l-8.41-3.917c-1.433-0.669-1.242-1.337,0-2.104l8.218-5.159
		c0.957-0.573,1.052-1.337,1.052-2.388L43.64,45.693c0-0.862,0.095-1.436,0.858-1.914l3.25-2.101c1.338-0.67,2.579-0.67,2.579,0.955
		v24.558c0,1.148,0.557,2.014,2.007,0.86c7.836-6.211,15.482-12.708,15.482-22.647c0-5.733-3.632-9.269-8.696-9.269
		c-12.327,0-32.843,14.028-40.421,19.208c-1.715,1.168-5.83,4.681-6.595,5.445c-0.764,0.765-1.528,1.051-1.528-0.477
		c0-1.529,0.095-3.632,0.095-5.352c0-1.719,0.621-5.237,3.059-6.785c17.009-10.798,32.968-17.39,44.053-17.39
		s14.908,7.452,14.908,12.803c0,10.033-7.358,19.017-21.693,29.911c-0.669,0.571-0.669,1.623-0.669,1.911v5.065
		c0,1.146,0.575,1.815,1.625,2.295l22.266,10.508c2.197,1.054,2.005,2.485,1.624,3.25c-0.382,0.764-0.735,1.826-1.241,2.293
		c-1.148,1.051-2.104,1.336-4.015,0.574l-18.443-8.791c-1.051-0.67-1.816-0.191-1.911,0.668l0.19,4.684
		c0,1.145-0.382,2.39-1.624,3.152c-1.243,0.764-2.677,1.721-3.44,2.104c-0.764,0.383-1.529,0.572-1.529-0.764
		c0-1.34-0.115-12.243-0.096-12.244C43.734,88.204,43.744,88.456,43.744,87.496z"/>
</g>
</svg>
