<?xml version="1.0" encoding="utf-8"?>
<!-- Generator: Adobe Illustrator 16.0.0, SVG Export Plug-In . SVG Version: 6.00 Build 0)  -->
<!DOCTYPE svg PUBLIC "-//W3C//DTD SVG 1.1//EN" "http://www.w3.org/Graphics/SVG/1.1/DTD/svg11.dtd">
<svg version="1.1" id="Layer_1" xmlns="http://www.w3.org/2000/svg" xmlns:xlink="http://www.w3.org/1999/xlink" x="0px" y="0px"
	 width="187.01px" height="124.682px" viewBox="0 0 187.01 124.682" enable-background="new 0 0 187.01 124.682"
	 xml:space="preserve">
<g>
	<polygon fill-rule="evenodd" clip-rule="evenodd" fill="#312782" points="0,0 187.01,0 187.01,124.682 0,124.682 0,0 0,0 	"/>
	<path fill-rule="evenodd" clip-rule="evenodd" fill="#FFFFFF" d="M137.392,61.439c-14.413,1.729-28.852,3.965-43.01,6.481l0,0
		l18.353,10.295l0,0c8.592-3.99,16.802-7.371,24.657-10.219c3.228-1.169,6.354-2.236,9.456-3.228
		c8.922-2.822,17.412-4.982,25.546-6.559c-8.438,0.508-16.98,1.246-25.546,2.161C143.696,60.702,140.543,61.058,137.392,61.439
		L137.392,61.439L137.392,61.439L137.392,61.439z"/>
	<path fill-rule="evenodd" clip-rule="evenodd" fill="#FFFFFF" d="M146.848,34.443c0.203,0.051,0.381,0.076,0.584,0.076
		c1.602,0,2.898-1.322,2.898-2.898c0-1.601-1.297-2.897-2.898-2.897c-0.203,0-0.381,0.025-0.584,0.051
		c-1.297,0.279-2.313,1.449-2.313,2.847C144.535,33.02,145.551,34.189,146.848,34.443L146.848,34.443L146.848,34.443L146.848,34.443
		z M146.848,29.385c0.813-0.229,1.729-0.025,2.389,0.763c0.382,0.534,0.56,1.017,0.509,1.729c-0.203,1.448-1.525,2.313-2.897,1.982
		c-0.102-0.025-0.204-0.051-0.306-0.102c-0.966-0.482-1.474-1.271-1.424-2.364C145.272,30.325,146.009,29.614,146.848,29.385
		L146.848,29.385L146.848,29.385L146.848,29.385z"/>
	<path fill-rule="evenodd" clip-rule="evenodd" fill="#FFFFFF" d="M168.225,42.578c2.848-0.432,4.372-2.415,5.313-5.109l0,0v-2.873
		h-7.575l0,0c0.127,2.44-0.687,4.321-3.609,5.288l0,0h-3.712l-0.025-11.617h-7.448v26.589h7.448v-9.43h3.89l0,0
		c2.364,1.22,3.355,2.923,3.457,5.312l0,0v4.118h7.575v-6.329l0,0C173.716,46.619,170.869,42.806,168.225,42.578L168.225,42.578
		L168.225,42.578L168.225,42.578z"/>
	<path fill-rule="evenodd" clip-rule="evenodd" fill="#FFFFFF" d="M146.771,32.003h0.077h0.33l1.017,1.347h0.56l-1.093-1.373l0,0
		c0.254,0,0.508-0.127,0.711-0.305c0.229-0.204,0.355-0.458,0.355-0.763c0-0.28-0.126-0.508-0.406-0.712
		c-0.254-0.178-0.585-0.305-0.966-0.305l0,0h-0.508h-0.636v3.482h0.559V32.003L146.771,32.003L146.771,32.003z M146.771,30.275
		h0.077h0.508l0,0c0.229,0,0.433,0.076,0.585,0.203c0.152,0.102,0.254,0.28,0.254,0.432c0,0.203-0.102,0.356-0.254,0.458
		c-0.152,0.152-0.355,0.203-0.585,0.203l0,0h-0.508h-0.077V30.275L146.771,30.275L146.771,30.275z"/>
	<path fill-rule="evenodd" clip-rule="evenodd" fill="#FFFFFF" d="M137.188,54.855c0.076,0,0.153,0,0.204,0
		c3.889-0.051,7.32-1.678,9.456-4.194c1.448-1.678,2.312-3.762,2.312-5.999s-0.864-4.322-2.312-5.999
		c-2.136-2.491-5.567-4.144-9.456-4.194c-0.051,0-0.128,0-0.204,0c-6.583,0-11.973,4.576-11.973,10.193
		S130.605,54.855,137.188,54.855L137.188,54.855L137.188,54.855L137.188,54.855z M137.392,40.036h0.025l0,0
		c2.999,0,5.439,2.033,5.439,4.576c0,2.491-2.44,4.55-5.439,4.55l0,0h-0.025l0,0c-3,0-5.44-2.059-5.44-4.55
		C131.952,42.069,134.392,40.036,137.392,40.036L137.392,40.036L137.392,40.036L137.392,40.036z"/>
	<path fill-rule="evenodd" clip-rule="evenodd" fill="#FFFFFF" d="M54.931,54.855h14.312v-6.329H56.457l0,0
		c-4.448-1.602-4.524-6.024-0.127-7.753l0,0h5.211l-4.067,6.71l7.295-0.051l4.474-6.914v-5.923H54.601l0,0
		C42.908,37.519,42.501,52.669,54.931,54.855L54.931,54.855L54.931,54.855L54.931,54.855z"/>
	<path fill-rule="evenodd" clip-rule="evenodd" fill="#FFFFFF" d="M112.303,54.855c15.658-1.525,13.04-18.683,1.881-20.259l0,0
		h-6.686v6.177h4.805l0,0c4.396,1.245,4.448,5.262,0.152,7.753l0,0h-6.508v-20.26h-7.575l0.025,26.589H112.303L112.303,54.855
		L112.303,54.855z"/>
	<path fill-rule="evenodd" clip-rule="evenodd" fill="#FFFFFF" d="M84.926,77.351L74.53,74.047l-3.076-0.992l0,0
		C56.609,78.038,44.967,85.283,35.46,94.052l0,0l20.208,2.719l0,0c4.88-5.77,11.159-10.676,18.861-14.768
		C77.758,80.325,81.215,78.75,84.926,77.351L84.926,77.351L84.926,77.351L84.926,77.351z"/>
	<path fill-rule="evenodd" clip-rule="evenodd" fill="#FFFFFF" d="M42.501,61.235l0.051-8.185l0,0c0-4.321-3.127-6.024-4.83-6.762
		c8.007-2.821,8.592-16.649-3.812-18.073l0,0l-18.76,0.051v26.589h7.321v-20.31l8.388,0.102l0,0c6.075,0.279,6.38,8.337,0.178,8.439
		l0,0l-6.507,0.076l0.051,5.668h5.77l0,0c2.847,0.508,4.397,2.135,4.576,4.881l0,0v7.601L42.501,61.235L42.501,61.235L42.501,61.235
		z"/>
	<path fill-rule="evenodd" clip-rule="evenodd" fill="#FFFFFF" d="M74.53,88.154c-3.991,2.873-7.499,6.127-10.397,9.762
		c0.077-0.152,5.237,0.56,10.397,1.271c5.211,0.712,10.396,1.424,10.396,1.297c0.711-5.999,12.735-13.701,18.606-17.133l0,0
		L91.51,78.927l0,0C85.206,81.545,79.486,84.57,74.53,88.154L74.53,88.154L74.53,88.154L74.53,88.154z"/>
	<path fill-rule="evenodd" clip-rule="evenodd" fill="#FFFFFF" d="M81.647,54.855h14.285v-6.329h-12.76l0,0
		c-4.449-1.602-4.525-6.024-0.127-7.753l0,0h5.236l-4.093,6.71l7.27-0.051l4.473-6.914v-5.923H81.317l0,0
		c-3.025,0.763-5.288,2.339-6.787,4.296c-2.746,3.635-2.822,8.592,0,12.074C76.055,52.847,78.419,54.296,81.647,54.855
		L81.647,54.855L81.647,54.855L81.647,54.855z"/>
	<polygon fill-rule="evenodd" clip-rule="evenodd" fill="#FFFFFF" points="168.378,64.133 168.378,61.896 168.962,61.896 
		169.293,63.447 169.649,61.896 170.233,61.896 170.233,64.133 169.877,64.133 169.877,62.379 169.497,64.133 169.115,64.133 
		168.734,62.379 168.734,64.133 168.378,64.133 168.378,64.133 	"/>
	<polygon fill-rule="evenodd" clip-rule="evenodd" fill="#FFFFFF" points="167.183,64.133 167.183,62.278 166.624,62.278 
		166.624,61.896 168.124,61.896 168.124,62.278 167.564,62.278 167.564,64.133 167.183,64.133 167.183,64.133 	"/>
	<path fill-rule="evenodd" clip-rule="evenodd" fill="#E20613" d="M26.004,66.65c0.152,0.152,48.043-8.719,47.738-8.719
		c-0.279,0,57.346,34.85,57.346,34.85C91.205,74.403,55.186,63.701,26.004,66.65L26.004,66.65L26.004,66.65L26.004,66.65z"/>
</g>
</svg>
