<?xml version="1.0" encoding="utf-8"?>
<!-- Generator: Adobe Illustrator 16.0.0, SVG Export Plug-In . SVG Version: 6.00 Build 0)  -->
<!DOCTYPE svg PUBLIC "-//W3C//DTD SVG 1.1//EN" "http://www.w3.org/Graphics/SVG/1.1/DTD/svg11.dtd">
<svg version="1.1" id="Layer_1" xmlns="http://www.w3.org/2000/svg" xmlns:xlink="http://www.w3.org/1999/xlink" x="0px" y="0px"
	 width="333.896px" height="141.342px" viewBox="0 0 333.896 141.342" enable-background="new 0 0 333.896 141.342"
	 xml:space="preserve">
<g>
	<g>
		<g>
			<path fill="#002D56" d="M65.212,110.017c1.791-3.948-0.667-5.477-6.502-5.477l-9.754,0.009c-2.121-0.005-2.568-0.175-2.096-1.196
				l0.701-1.521c0.429-0.985,1.053-1.177,3.178-1.179l12.777-0.005c2.639-0.003,3.752,0.345,5.178,0.895l1.268-5.392l-25.488,0.004
				c-4.861-0.003-8.637,2.201-10.567,6.453l-2.741,6.068c-2.113,4.525-0.596,5.873,4.869,5.874l11.209,0.003
				c2.145-0.002,2.496,0.211,2.042,1.194l-0.854,1.864c-0.445,1.01-0.999,1.176-3.131,1.18H32.023
				c-2.734-0.002-3.814-0.507-4.925-1.013l-1.367,5.528l24.8-0.006c6.598-0.004,9.685-2.393,11.635-6.648L65.212,110.017z"/>
			<path fill="#002D56" d="M131.742,111.478c3.176-0.002,4.57,0.389,5.887,0.729l2.721-5.925c-1.631,0.318-3.369,0.708-6.531,0.705
				l-9.811-0.001l2.928-6.345l11.176-0.007c3.232,0.006,4.627,0.369,5.941,0.721l1.271-5.217l-31.205-0.003
				c0.209,1.072,0.16,2.079-1.008,4.655l-8.145,17.822c-0.743,1.607-1.378,2.598-2.03,3.385c-0.832-1.441-1.445-3.085-1.848-4.268
				l-4.385-13.578l9.1-5.333c2.596-1.54,4.02-1.999,5.959-2.683l-12.569,0.006c-0.102,0.348-0.178,0.678-0.332,1.016
				c-0.414,0.908-1.084,1.566-3.262,2.943l-13.183,8.227l3.435-7.531c1.178-2.584,2.101-3.584,3.264-4.659l-16.014,0.011
				c0.215,1.068,0.191,2.068-0.994,4.648l-8.145,17.828c-1.175,2.577-2.081,3.58-3.254,4.679l15.981,0.001
				c-0.167-1.099-0.165-2.108,1.001-4.683l1.879-4.071l4.524-2.767l2.793,11.513l46.558-0.012l3.639-5.229
				c-1.568,0.331-3.316,0.718-6.506,0.72h-11.959l3.354-7.295L131.742,111.478z"/>
			<path fill="#002D56" d="M172.91,116.691c0,0-4.348,1.018-9.809,1.015c0,0-5.332,0.015-6.436-0.001
				c-1.395-0.008-1.822-0.391-1.293-1.725c0.525-1.336,5.836-12.75,5.836-12.75c0.188-0.412,0.852-1.539,2.564-1.539l10.098,0.003
				c2.512-0.007,4.766,0.843,4.766,0.843l1.605-6.246l-0.082,0.007l0.047-0.168l-21.639,0.003c-5.885,0-10.109,2.117-12.793,7.982
				l-5.109,11.191c-2.684,5.83-0.367,7.979,5.473,7.979l22.217-0.009L172.91,116.691z"/>
			<path fill="#002D56" d="M212.211,118.591l8.156-17.825c1.166-2.573,2.094-3.577,3.238-4.649l-15.992,0.008
				c0.195,1.067,0.186,2.068-1.002,4.645l-2.824,6.21l-10.268-0.001l2.852-6.203c1.193-2.586,2.092-3.587,3.27-4.652l-16.006,0.009
				c0.197,1.065,0.178,2.062-1.027,4.646l-8.131,17.829c-1.191,2.563-2.102,3.585-3.285,4.671l16.008-0.006
				c-0.184-1.084-0.176-2.099,1.029-4.67l3.266-7.132l10.234-0.005l-3.256,7.135c-1.182,2.569-2.096,3.583-3.262,4.673l15.98-0.002
				C211,122.183,211.023,121.167,212.211,118.591z"/>
			<path fill="#002D56" d="M241.066,118.753l-11.924-0.002l3.322-7.291l9.801-0.002c3.141-0.006,4.568,0.384,5.867,0.722l2.717-5.92
				c-1.637,0.323-3.367,0.71-6.506,0.708l-9.828-0.001l2.92-6.354l11.199-0.002c3.234,0.003,4.617,0.372,5.936,0.718l1.254-5.216
				l-31.189,0.008c0.184,1.07,0.162,2.071-1.027,4.654l-8.129,17.816c-1.195,2.576-2.121,3.59-3.266,4.676l31.746-0.006l3.633-5.229
				C246.053,118.374,244.271,118.759,241.066,118.753z"/>
			<path fill="#002D56" d="M285.465,111.449c3.012-0.152,5.695-0.371,7.529-4.354l2.271-5c2.08-4.551-0.301-5.99-6.602-5.99
				l-29.623,0.005c0.527,1.075,0.51,2.069-0.682,4.657l-8.139,17.824c-1.178,2.572-2.08,3.582-3.277,4.672l16.002-0.004
				c-0.188-1.087-0.174-2.102,1.006-4.672l3.248-7.131l4.236-0.007l1.131,11.808l15.371,0.002c-0.736-1.031-0.752-2.439-1.066-4.17
				L285.465,111.449z M281.502,102.122l-1.494,3.317c-0.6,1.314-1.203,1.523-2.98,1.525l-7.764,0.002l2.947-6.354l7.732-0.006
				C281.703,100.603,282.125,100.802,281.502,102.122z"/>
			<path fill="#002D56" d="M310.973,101.783c0.463-0.986,1.059-1.184,3.213-1.189l12.768,0.004c2.656,0.004,3.725,0.35,5.17,0.895
				l1.773-5.402l-26.014,0.015c-4.848-0.001-8.6,2.2-10.553,6.454l-2.736,6.068c-2.104,4.528-0.582,5.877,4.871,5.877l11.211-0.004
				c2.127-0.002,2.512,0.209,2.041,1.201l-0.854,1.861c-0.443,1.008-0.982,1.178-3.158,1.181l-13.268,0.003
				c-2.682,0-3.816-0.51-4.934-1.015l-1.328,5.524l24.77-0.004c6.607-0.005,9.701-2.401,11.66-6.658l3.035-6.629
				c1.809-3.947-0.645-5.476-6.508-5.473l-9.75,0.001c-2.148-0.001-2.582-0.163-2.104-1.191L310.973,101.783z"/>
		</g>
		<path fill="#002D56" d="M332.867,122.81c0,1.559-1.279,2.826-2.85,2.826c-1.588,0-2.867-1.268-2.867-2.826
			c0-1.574,1.279-2.846,2.867-2.846C331.588,119.964,332.867,121.236,332.867,122.81 M327.672,122.81
			c0,1.283,1.051,2.332,2.346,2.332c1.279,0,2.328-1.049,2.328-2.332c0-1.299-1.037-2.334-2.328-2.334
			C328.723,120.476,327.672,121.511,327.672,122.81 M330.146,121.322c0.729,0,1.121,0.291,1.121,0.832
			c0,0.264-0.076,0.406-0.318,0.615l0.012,0.143l0.133,0.158c0.027,0.031,0.043,0.088,0.07,0.188
			c0.027,0.076,0.047,0.148,0.047,0.223l0.027,0.205l0.016,0.188l0.014,0.119c0,0.057,0,0.07,0.059,0.246h-0.523
			c-0.061-0.133-0.074-0.162-0.092-0.48c-0.039-0.611-0.129-0.715-0.709-0.715h-0.641v1.182h-0.555v-2.902H330.146 M329.348,122.634
			h0.654c0.508,0,0.74-0.146,0.74-0.439c0-0.303-0.219-0.438-0.682-0.438h-0.713V122.634z"/>
	</g>
	<g>
		<path fill="#B1B3B6" d="M182.486,9.755c-4.4-6.538-13.58-9.602-28.117-9.602c-15.006,0-49.736-0.152-59.534-0.152
			c-10.194,0-32.184-0.129-43.922,1.974c-17.713,3.171-27.229,13.12-31.846,23.009c-3.231,6.921-5.969,18.271,1.221,25.104
			c-7.264,0-12.134,0-12.134,0s-3.413,4.904-5.276,8.443c-3.602,6.848-4.498,14.916,1.283,20.059
			c4.245,3.773,12.766,6.57,24.479,6.57c5.162,0,62.955,0.291,86.292,0.01c31.578,0,43.191-6.727,53.916-24.034
			c2.982-4.811,9.238-18.271-2.76-26.231c4.928,0,11.178,0,11.178,0s2.291-4.045,3.908-6.863
			C185.648,20.24,186.145,15.192,182.486,9.755z M165.172,29.203c-1.123,1.956-2.93,5.26-2.93,5.26s-5.109,0-9.111,0
			c4.637,3.482,5.887,8.787,5.891,11.901c0.008,3.698-1.23,7.812-3.648,12.247c-8.715,15.938-17.836,21.441-37.555,22.647
			c0,0-0.072,0.006-0.084,0.006c-9.305,0.427-23.254,0.427-37.485,0.427s-35.459-0.029-40.242-0.268
			c-9.385-0.464-17.046-1.751-20.671-7.715c-3.758-6.18-0.958-13.393,0.608-16.432c0.887-1.72,3.984-7.309,3.984-7.309
			s7.862,0,13.775,0c-6.75-4.215-9.84-13.379-4.9-23.106C38.501,15.64,44.634,7.964,59.253,5.225
			c8.805-1.705,29.238-1.698,37.963-1.698l46.305,0.167c6.342,0.066,19.35,0.305,24.006,9.685
			C170.4,19.166,167.627,24.933,165.172,29.203z"/>
		<path fill="#002D56" d="M65.222,54.365c0,0-0.184,0.457-0.469,1.117c-2.596,6.035,4.714,5.986,9.976,6.018
			c9.473,0.059,21.745,0.061,27.489-0.232c5.59-0.193,10.684-0.156,13.237-5.726c2.41-5.278-3.463-5.766-8.838-5.766
			c0,0-31.279,0.178-44.485-0.687c-15.584-0.878-17.826-6.645-12.236-18.865c4.432-9.678,9.666-16.321,23.811-18.967
			c9.525-1.85,27.998-1.95,37.395-1.95l17.244,0.194c9.967,0.097,21.15,0.193,23.469,7.92c0.945,3.804-1.236,8.305-2.99,12.416
			h-24.287c1.867-4.895-1.305-5.97-6.707-6.16c-7.746-0.15-22.096-0.083-31.06,0.386c-4.483,0.2-9.48,0.977-11.269,4.888
			c-2.912,6.354,6.195,5.66,11.701,5.857c0,0,25.667,0.301,32.598,0.301c18.918,0,28.682,2.931,20.939,19.846
			c-7.336,16.025-17.461,18.964-36.795,20.128C90.423,75.83,68.39,76.017,56.736,75.48c-15.268-0.703-24.557-2.348-17.757-17.203
			l1.791-3.912H65.222z"/>
	</g>
	<g>
		<g>
			<path fill="#002D56" d="M171.053,141.342c0.548-0.633,0.86-1.201,1.14-1.811l4.547-9.854c0.28-0.613,0.491-1.18,0.527-1.814
				h13.429l-0.534,2.045c-0.641-0.275-1.667-0.316-2.384-0.316h-6.191l-1.884,4.084h5.397c0.716,0,1.784-0.041,2.678-0.316
				l-1.086,2.359c-0.644-0.271-1.672-0.314-2.388-0.314h-5.397l-1.901,4.127c-0.282,0.609-0.494,1.178-0.529,1.811H171.053z"/>
			<path fill="#002D56" d="M189.9,141.342c-2.123,0-2.877-0.863-2.014-2.738l3.69-8.002c0.864-1.873,2.414-2.738,4.536-2.738h9.669
				c2.121,0,2.876,0.865,2.011,2.738l-3.688,8.002c-0.868,1.875-2.414,2.738-4.537,2.738H189.9z M197.909,139.614
				c0.689,0,1.008-0.188,1.289-0.799l3.884-8.424c0.281-0.611,0.139-0.799-0.551-0.799h-4.76c-0.688,0-1.007,0.188-1.288,0.799
				l-3.886,8.424c-0.279,0.611-0.136,0.799,0.554,0.799H197.909z"/>
			<path fill="#002D56" d="M208.366,141.342c-2.124,0-2.876-0.863-2.011-2.738l3.688-8.002c0.865-1.873,2.413-2.738,4.537-2.738
				h9.669c2.122,0,2.876,0.865,2.011,2.738l-3.688,8.002c-0.865,1.875-2.414,2.738-4.537,2.738H208.366z M216.374,139.614
				c0.692,0,1.007-0.188,1.29-0.799l3.885-8.424c0.281-0.611,0.138-0.799-0.553-0.799h-4.756c-0.69,0-1.009,0.188-1.29,0.799
				l-3.884,8.424c-0.282,0.611-0.141,0.799,0.551,0.799H216.374z"/>
			<path fill="#002D56" d="M243.251,127.864l-0.531,2.045c-0.643-0.275-1.671-0.316-2.387-0.316h-2.506l-4.584,9.939
				c-0.281,0.609-0.491,1.178-0.528,1.811h-5.422c0.546-0.633,0.86-1.201,1.142-1.811l4.582-9.939h-2.505
				c-0.719,0-1.785,0.041-2.678,0.316l1.351-2.045H243.251z"/>
			<path fill="#002D56" d="M242.18,141.342l1.322-10.971c0.212-1.621,0.16-2.066,0.005-2.508h6.013
				c-0.374,0.424-0.569,0.738-0.706,1.033c-0.195,0.422-0.313,0.844-0.399,1.475l-1.109,8.062h0.052l8.222-10.57h3.787l-1.472,10.57
				h0.052l6.179-8.021c0.333-0.445,0.833-1.137,1.046-1.602c0.182-0.398,0.279-0.713,0.257-0.947h3.323
				c-1.118,0.822-1.779,1.645-2.422,2.488l-8.572,10.99h-4.861l1.133-8.781h-0.049l-6.837,8.781H242.18z"/>
			<path fill="#002D56" d="M262.947,141.342c0.549-0.633,0.861-1.201,1.144-1.811l4.541-9.854c0.282-0.613,0.496-1.18,0.529-1.814
				h13.427l-0.531,2.045c-0.641-0.275-1.67-0.316-2.385-0.316h-6.191l-1.882,4.084h5.394c0.718,0,1.788-0.041,2.68-0.316
				l-1.089,2.359c-0.641-0.271-1.667-0.314-2.384-0.314h-5.396l-1.943,4.209h6.19c0.716,0,1.783-0.041,2.675-0.316l-1.349,2.045
				H262.947z"/>
			<path fill="#002D56" d="M283.464,137.51l-1.982,2.021c-0.491,0.504-0.95,1.117-1.27,1.811h-3.146
				c0.934-0.693,1.749-1.41,2.933-2.59l10.06-10.002l-0.283-0.887h5.348l1,10.93c0.106,1.266,0.192,2.127,0.562,2.549h-6.036
				c0.063-0.084,0.138-0.191,0.197-0.318c0.193-0.418,0.26-1.006,0.19-1.914l-0.13-1.6H283.464z M290.758,135.782l-0.442-5.094
				l-5.083,5.094H290.758z"/>
			<path fill="#002D56" d="M303.273,139.532c-0.281,0.609-0.49,1.178-0.528,1.811h-5.423c0.546-0.633,0.86-1.201,1.144-1.811
				l4.546-9.854c0.277-0.613,0.489-1.18,0.526-1.814h12.967c2.044,0,2.861,0.844,2.043,2.611l-1.262,2.738
				c-0.552,1.203-1.52,2.02-3.569,2.256l0.074,4.441c0.02,0.568,0.181,1.053,0.515,1.432h-5.474l-0.074-5.938h-3.582
				L303.273,139.532z M305.974,133.676h5.602c0.612,0,0.949-0.23,1.26-0.904l1.05-2.275c0.312-0.672,0.186-0.904-0.428-0.904h-5.602
				L305.974,133.676z"/>
		</g>
	</g>
</g>
</svg>
