<?xml version="1.0" encoding="utf-8"?>
<!-- Generator: Adobe Illustrator 16.0.0, SVG Export Plug-In . SVG Version: 6.00 Build 0)  -->
<!DOCTYPE svg PUBLIC "-//W3C//DTD SVG 1.1//EN" "http://www.w3.org/Graphics/SVG/1.1/DTD/svg11.dtd">
<svg version="1.1" id="Layer_1" xmlns="http://www.w3.org/2000/svg" xmlns:xlink="http://www.w3.org/1999/xlink" x="0px" y="0px"
	 width="154.678px" height="137.976px" viewBox="0 0 154.678 137.976" enable-background="new 0 0 154.678 137.976"
	 xml:space="preserve">
<g>
	<path fill-rule="evenodd" clip-rule="evenodd" d="M65.422,18.167c5.631-1.209,6.667,5.645,4.729,9.458
		c-2.446,1.035-2.25-0.213-5.517,0c-1.437-1.604-2.492-6.391-0.789-8.67C64.762,19.083,65.248,18.78,65.422,18.167z"/>
	<path fill-rule="evenodd" clip-rule="evenodd" d="M80.398,22.107c0.458,3.085-0.678,4.577-1.576,6.306
		c-3.009,0.382-5.031-0.223-6.306-1.576C71.059,21.073,77.511,18.778,80.398,22.107z"/>
	<path fill-rule="evenodd" clip-rule="evenodd" d="M58.328,1.614c0.749,9.412-4.458,18.291-4.729,29.164
		c20.846,1.937,48.75,4.127,67.786,0c3.591,3.231,2.731,10.308-2.364,11.035c-2.276-0.612-2.902-2.877-4.729-3.94
		c-20.713,0.609-43.996-1.507-59.904-1.576c-3.793,9.081-1.89,23.859-2.365,36.258c8.773-4.889,3.678-23.647,11.823-29.164
		c9.444,4.081-2.984,21.976,3.153,29.952c7.227-7.223,4.584-24.316,11.823-31.529c8.484,4.601-1.451,18.074,0.789,26.8
		c9.953,1.456,15.06-12.7,25.223-11.035c2.331,7.695-8.888,8.372-12.612,12.612c0.571,2.844,6.006,0.825,7.883,2.364
		c9.188-6.313,9.086-21.917,22.07-24.435c5.359,9.502-8.19,11.079-10.247,18.129c2.839,2.678,9.345,1.69,11.823,4.729
		c5.669-4.314,5.463-14.504,11.035-18.917c8.68,1.834-0.117,16.767,3.941,23.646c8.939-6.556,3.414-25.18,11.822-30.74
		c6.094,2.109,2.732,7.573,2.365,11.035c-2.39,22.486-0.112,42.838-0.788,69.363c0.74,2.938,3.253,4.104,2.364,8.67
		c-1.729,1.688-2.855,3.977-6.306,3.941c-4.23-2.424-2.165-6.199-1.576-11.035c1.899-15.587-0.377-37.205,0.788-55.176
		c-2.285,5.329-5.451,14.104-7.094,21.281c-0.855,3.744,1.684,10.621-4.73,10.248c-4.265-2.172-2.211-4.846-1.576-9.459
		c-5.725,1.369-8.32,5.867-14.188,7.094c-0.021-0.766-0.965-0.611-1.576-0.787c-3.695-7.097,0.941-18.132,3.941-23.647
		c-3.447-2.721-11.324-4.796-16.553-3.152c2.943,3.1,8.646,3.438,11.035,7.093c-3.348,10.579-14.688,13.163-24.436,17.341
		c-4.127-6.358,1.73-14.612,4.729-18.916c-2.388-3.918-10.777-1.835-16.553-2.365c-2.755,12.095,12.112,29.255-2.364,31.528
		c-3.439-9.32-0.47-20.668-3.153-29.951c-1.343,3.648-5.005,4.979-6.306,8.67c0.311,6.616,0.817,13.428-7.094,11.822
		c-2.237-1.887-0.778-2.902-0.788-6.305c-10.183,0.553-4.56,13.525-7.882,19.706c-1.839,0-3.678,0-5.517,0
		c-2.247-3.056-1.296-6.884,0-10.247c-6.087,0.48-5.882,7.255-14.188,5.517c-0.712-1.39-1.763-2.44-3.153-3.153
		c2.46-8.575,4.128-17.941,7.094-26.01C25.918,75.697,9.024,81.653,0,78.859C0.488,71,10.104,69.371,15.765,67.036
		c6.735-2.779,13.829-5.36,20.494-7.094c2.145,0.482,3.089,2.166,3.153,4.729c3.815-7.482,4.445-18.15,7.094-26.8
		c-10.248-2.9-28.321,2.074-39.411,0.788c-1.367-2.244-2.584-6.866,0-8.671c0.917,0.129,1.403-0.173,1.577-0.788
		c7.898,5.718,23.064,2.231,37.046,3.152c5.564-7.309,2.74-23.008,6.306-32.316C54.911-0.223,56.402,0.912,58.328,1.614z
		 M44.929,72.554c3.905,0.463,2.575-8.425,1.576-10.247C45.854,65.364,43.275,69.708,44.929,72.554z M16.553,73.342
		c7.645,0.024,13.895-1.344,22.07-0.788C38.206,69.247,40,68.15,40.199,65.46C33.287,69.058,22.681,68.961,16.553,73.342z
		 M130.844,73.342c3.365,0.929,3.164-6.23,0.789-6.306C131.583,69.448,128.739,71.143,130.844,73.342z M122.174,93.046
		c7.729-0.754,12.729-6.387,11.035-14.187C124.991,71.776,123.067,85.603,122.174,93.046z M37.834,97.775
		c2.982,1.341,6.338-2.881,9.459-3.94c0-5.255,0-10.51,0-15.764C37.525,78.022,41.272,91.493,37.834,97.775z M56.751,86.741
		c4.705,1.172,5.596-8.16,1.577-8.67C58.582,81.739,56.757,83.331,56.751,86.741z M97.739,89.105
		c5.447-0.595,9.217-2.87,11.035-7.093c-2.23-1.187-3.644-3.188-7.094-3.153C100.778,82.687,98.129,84.767,97.739,89.105z"/>
</g>
</svg>
