<?xml version="1.0" encoding="utf-8"?>
<!-- Generator: Adobe Illustrator 16.0.0, SVG Export Plug-In . SVG Version: 6.00 Build 0)  -->
<!DOCTYPE svg PUBLIC "-//W3C//DTD SVG 1.1//EN" "http://www.w3.org/Graphics/SVG/1.1/DTD/svg11.dtd">
<svg version="1.1" id="Layer_1" xmlns="http://www.w3.org/2000/svg" xmlns:xlink="http://www.w3.org/1999/xlink" x="0px" y="0px"
	 width="631.61px" height="191.525px" viewBox="0 0 631.61 191.525" enable-background="new 0 0 631.61 191.525"
	 xml:space="preserve">
<rect y="0" fill="#ED1C24" width="631.61" height="191.525"/>
<path fill="#FFFFFF" d="M99.526,50.469c-3.297-5.698-8.126-9.299-15.475-9.299c-7.049,0-14.653,5.398-15.817,12.748
	c-3.018,19.047,43.085,11.099,37.075,49.043c-3.587,22.646-20.228,38.694-43.324,38.694c-15.598,0-25.571-8.999-31.303-22.047
	l16.458-13.948c1.622,8.699,8.335,16.498,17.784,16.498c8.999,0,15.76-7.648,17.138-16.348c1.853-11.698-8.423-14.998-16.725-18.447
	c-13.598-6-23.082-13.348-20.302-30.896c2.97-18.745,19.317-33.895,38.364-33.895c10.049,0,23.213,4.949,28.9,12.598L99.526,50.469z
	"/>
<path fill="#FFFFFF" d="M142.815,65.017l-6.319,39.895c-1.331,8.399-1.572,18.447,9.076,18.447c10.648,0,13.59-10.048,14.92-18.447
	l6.319-39.895h20.997l-6.866,43.344c-3.397,21.447-16.278,32.695-38.175,32.695s-31.213-11.248-27.816-32.695l6.866-43.344H142.815z
	"/>
<path fill="#FFFFFF" d="M225.378,71.342c5.656-5.744,13.974-9.261,21.772-9.323c20.846-0.167,30.661,19.251,27.753,38.623
	c-3.022,20.123-18.252,39.74-39.999,39.916c-7.499,0.061-14.95-3.18-18.248-9.151l-0.3,0.002l-6.945,46.25l-20.998,0.169
	l16.982-113.075l20.997-0.168L225.378,71.342z M253.563,101.112c1.488-9.912-3.51-20.521-14.309-20.435
	c-10.798,0.088-18.998,10.802-20.486,20.715c-1.488,9.908,3.485,20.668,14.285,20.581
	C243.85,121.888,252.073,111.023,253.563,101.112z"/>
<path fill="#FFFFFF" d="M309.977,71.57l0.302-0.002c5.17-6.489,12.009-10.146,19.808-10.207c2.998-0.023,5.885,0.703,8.428,1.73
	l-5.48,19.543c-2.279-1.782-5.143-2.658-8.293-2.634c-14.547,0.117-17.988,13.043-19.702,24.455l-4.982,33.188l-20.997,0.168
	l11.074-73.732l20.995-0.167L309.977,71.57z"/>
<path fill="#FFFFFF" d="M359.077,103.739c-1.398,9.311,0.623,19.792,11.57,19.705c6.9-0.055,11.879-4.295,15.607-10.174
	l18.875,2.999c-7.311,14.756-21.447,23.118-36.895,23.241c-22.797,0.184-34.311-15.922-30.949-38.297s17.848-40.038,41.695-40.229
	c24.143-0.194,32.258,17.588,28.92,39.812l-0.385,2.555L359.077,103.739z M389.684,90.444c0.076-7.499-3.615-14.819-11.717-14.754
	c-8.396,0.067-14.129,7.312-16.328,14.979L389.684,90.444z"/>
<path fill="#FFFFFF" d="M448.389,71.616h0.299c4.977-5.85,12.674-8.998,19.424-8.998c9.148,0,15.754,3.749,19.316,11.548
	c5.641-7.199,14.729-11.548,23.277-11.548c18.746,0,21.162,14.098,18.621,30.146l-7.271,45.895h-20.998l6.131-38.695
	c1.141-7.198,3.703-20.547-6.645-20.547c-11.396,0-13.695,15.447-14.908,23.098l-5.725,36.146h-20.998l5.916-37.346
	c1.141-7.198,4.369-21.896-6.58-21.896c-11.697,0-13.52,15.298-14.756,23.098l-5.727,36.146H416.77l11.664-73.641h20.998
	L448.389,71.616z"/>
<path fill="#FFFFFF" d="M559.301,105.212c-1.473,9.299,0.465,19.797,11.412,19.797c6.9,0,11.914-4.198,15.691-10.049l18.848,3.15
	c-7.428,14.697-21.633,22.945-37.08,22.945c-22.797,0-34.18-16.197-30.639-38.545c3.539-22.347,18.168-39.894,42.014-39.894
	c24.146,0,32.117,17.847,28.602,40.043l-0.404,2.551L559.301,105.212L559.301,105.212z M590.014,92.163
	c0.139-7.498-3.496-14.848-11.596-14.848c-8.398,0-14.188,7.199-16.449,14.848H590.014z"/>
</svg>
