<?xml version="1.0" encoding="utf-8"?>
<!-- Generator: Adobe Illustrator 16.0.0, SVG Export Plug-In . SVG Version: 6.00 Build 0)  -->
<!DOCTYPE svg PUBLIC "-//W3C//DTD SVG 1.1//EN" "http://www.w3.org/Graphics/SVG/1.1/DTD/svg11.dtd">
<svg version="1.1" id="Layer_1" xmlns="http://www.w3.org/2000/svg" xmlns:xlink="http://www.w3.org/1999/xlink" x="0px" y="0px"
	 width="175.748px" height="111.641px" viewBox="0 0 175.748 111.641" enable-background="new 0 0 175.748 111.641"
	 xml:space="preserve">
<g>
	<path fill-rule="evenodd" clip-rule="evenodd" fill="#1D1D1B" d="M4.143,3.967C4.146,14.307,3.917,24.99,3.919,35.33
		c4.076,1.493,8.385,2.643,12.46,4.135c-0.197,22.463-0.395,44.927-0.592,67.39c0.468,0.239,0.936,0.479,1.403,0.718
		c4.801-7.935,11.991-16.132,27.689-22.151l1.274-7.062l3.98-0.713l0.686,5.688c8.506-2.849,16.695-4.188,24.568-4.014
		c0.085-4.323,0.17-8.646,0.255-12.97c6.802-0.218,11.39-0.611,14.158-8.197c0.163,5.976-1.773,15.167,3.692,18.903
		c5.663,3.873,15.016,2.653,20.441-2.963c0.438,1.601,0.328,3.625,2.479,5.587c5.858,3.963,10.802,5.098,17.9,6.634
		c1.59,0.278,5.533,0.062,6.677-1.038c0.13,1.271-0.03,2.938-0.13,4.207c6.403,1.728,11.938,5.573,17.399,9.6
		c0.708-0.37,1.416-0.74,2.124-1.109c0.176-19.973,0.352-39.946,0.526-59.918c3.772-1.424,7.545-2.848,11.317-4.272
		c-0.067-8.366-0.135-16.732-0.202-25.099c-16.25,13.77-34.246,24.95-57.075,28.966c-0.157,1.832-0.314,3.664-0.472,5.495
		c-7.855-7.272-19.755-6.357-24.575,4.719c-1.342-3.573-3.907-5.946-7.692-7.117C36.286,32.831,10.326,20.336,4.143,3.967
		L4.143,3.967L4.143,3.967z M0,0l6.585,0.058l0.313,0.6c5.962,11.44,16.556,18.951,29.594,24.387
		c13.176,5.493,28.85,8.872,44.787,12.027c0.102,0.02,0.202,0.04,0.301,0.059c1.38,0.271,2.491,0.489,3.849,1.152
		c1.222,0.597,2.242,1.261,3.115,2.07c0.47,0.436,0.895,0.911,1.279,1.437c1.812-2.277,3.85-3.757,5.978-4.715
		c2.519-1.133,5.124-1.525,7.618-1.647h-0.014c1.745-0.105,3.455-0.006,5.108,0.42c0.885,0.228,1.995,0.585,2.826,1.017
		c-0.067-0.502,0.066-1.184-0.018-1.808l0.984-0.237c15.392-3.705,26.79-8.458,36.394-13.939
		c9.585-5.471,16.931-11.64,23.295-18.113l0.338-0.344l3.415,0.03l-0.301,34.173l-0.767,0.253c-3.312,1.095-6.623,2.19-9.935,3.285
		c-0.102,20.019-0.202,40.037-0.303,60.056l-0.004,0.62l-0.541,0.329c-1.599,0.969-3.196,1.939-4.794,2.909l-0.722,0.438
		l-0.618-0.563c-3.156-2.875-6.413-5.234-9.744-7.221c-3.35-1.998-6.773-3.621-10.243-5.011l-0.714-0.285l0.008-0.971
		c-0.301-0.008-0.601-0.023-0.897-0.047c-0.65-0.051-1.322-0.143-2.002-0.253l-0.005-0.005c-5.101-0.851-9.28-1.849-12.539-2.992
		c-3.376-1.186-5.817-2.545-7.325-4.079l0.052,0.044c-0.673-0.604-1.188-1.304-1.601-2.065c-0.152-0.279-0.29-0.563-0.416-0.852
		c-2.377,1.505-5.724,2.355-9.219,2.498c-2.738,0.11-5.597-0.211-8.167-0.991c-2.628-0.799-4.958-2.084-6.572-3.888
		c-1.366-1.526-2.216-3.403-2.308-5.646l0-0.039c-0.001-0.404-0.001-0.83-0.001-1.256c0-0.901,0-1.812-0.019-2.728
		c-0.707,0.44-1.472,0.808-2.283,1.102c-1.244,0.449-2.589,0.722-3.991,0.807c-0.012,1.671-0.029,3.254-0.045,4.837
		c-0.021,1.929-0.042,3.857-0.052,5.942l-0.005,1.01L78.66,81.96c-15.052,1.443-27.846,4.363-37.858,9.1
		c-9.894,4.68-17.059,11.136-20.983,19.7l-0.404,0.881l-0.929-0.269c-1.888-0.546-3.775-1.093-5.663-1.64l-0.82-0.237l0.59-67.213
		L1.186,39.005l-0.809-0.232l-0.008-0.839L0.011,1.143L0,0L0,0L0,0z M2.272,2.27l0.339,34.811l12.248,3.518l-0.59,67.215
		c1.309,0.379,2.618,0.757,3.927,1.137c4.236-8.641,11.613-15.173,21.649-19.921c2.314-1.094,3.881-1.949,6.478-2.844l0.975-6.325
		l1.739-0.019l0.016,5.561c8.229-2.684,17.751-4.503,28.386-5.576c0.012-1.707,0.028-3.321,0.045-4.937
		c0.021-1.922,0.042-3.845,0.052-5.923l0.006-1.126l1.129,0.011c1.557,0.016,3.028-0.22,4.335-0.692
		c1.263-0.456,2.386-1.139,3.295-2.032l1.754-1.724l0.16,2.457c0.105,1.62,0.105,3.344,0.105,5.034c0,0.406,0.002,0.812,0.002,1.228
		l0.001-0.021c0.068,1.683,0.706,3.091,1.73,4.236c1.323,1.479,3.296,2.551,5.55,3.235c2.312,0.703,4.913,0.99,7.429,0.889
		c3.696-0.15,7.141-1.138,9.087-2.88l1.289-1.153l0.53,1.648c0.222,0.688,0.472,1.341,0.784,1.917
		c0.3,0.553,0.666,1.054,1.132,1.472l0.053,0.046c1.268,1.29,3.422,2.468,6.46,3.534c3.156,1.108,7.211,2.076,12.162,2.902
		l-0.004-0.005c0.584,0.095,1.184,0.176,1.817,0.225c0.593,0.047,1.19,0.06,1.795,0.021l1.204-0.077l-0.016,1.812
		c3.338,1.369,6.629,2.955,9.845,4.873c3.246,1.936,6.417,4.206,9.487,6.928c1.18-0.716,2.358-1.431,3.538-2.146
		c0.102-20.079,0.203-40.159,0.305-60.238l0.004-0.802l0.77-0.255c3.312-1.095,6.625-2.19,9.938-3.286l0.267-30.317l-0.22-0.002
		c-6.418,6.481-13.827,12.657-23.451,18.151c-9.57,5.462-21.072,10.279-36.205,14.003c0.097,0.728-0.055,1.419,0.042,2.146
		l-1.828,1.012c-1.197-0.996-2.492-1.62-3.857-1.972c-1.387-0.357-2.875-0.438-4.423-0.344h-0.014
		c-2.264,0.11-4.604,0.455-6.799,1.443c-2.179,0.98-4.84,2.992-6.624,5.677l-0.427-0.039c-0.48-0.921-1.963-2.118-2.656-2.76
		c-0.698-0.647-1.542-1.192-2.573-1.696c-1.11-0.542-2.086-0.733-3.297-0.971c-0.098-0.019-0.199-0.039-0.301-0.059
		c-16.062-3.18-31.865-6.588-45.216-12.154C22.368,21.591,11.526,13.938,5.231,2.296L2.272,2.27L2.272,2.27L2.272,2.27z
		 M6.324,12.74c-0.059,6.749-0.118,13.497-0.178,20.247c4.207,1.341,8.413,2.682,12.62,4.022
		c-0.304,21.396-0.498,43.598-0.801,64.994c3.862-4.193,7.329-8.132,11.48-10.368c0.188-16.986,0.372-33.628,0.56-50.615
		c3.328,1.026,6.655,2.052,9.982,3.079c0.986-3.212,1.976-6.655,2.962-9.868C26.62,29.357,13.711,22.749,6.324,12.74L6.324,12.74
		L6.324,12.74z M32.5,45.067l-0.204,23.238l1.954,0.247l5.365-21.352L32.5,45.067L32.5,45.067L32.5,45.067z M33.98,46.921
		l-0.636,20.013l4.881-18.71L33.98,46.921L33.98,46.921L33.98,46.921z M45.24,35.4c-2.979,11.708-5.958,23.417-8.937,35.125
		c-1.344,0.18-2.688,0.36-4.032,0.54c-0.023,2.723-0.048,5.445-0.071,8.168c0.768-0.108,1.536-0.217,2.304-0.325
		c-0.798,3.56-1.597,7.118-2.395,10.679c3.511-2.348,7.014-3.852,10.513-4.97c0.638-2.68,1.274-5.358,1.912-8.037
		c2.65-0.476,5.07-0.952,7.721-1.428c0.213,1.881,0.425,3.992,0.639,5.873c3.035-0.664,6.303-1.555,9.338-2.219l-6.769-41.476
		L45.24,35.4L45.24,35.4L45.24,35.4z M48.259,58.551l1.265,0.011l1.983,10.026l-5.528,0.643L48.259,58.551L48.259,58.551
		L48.259,58.551z M58.903,38.626c0.506,3.456,0.666,7.139,1.172,10.595c5.187,1.042,10.511,1.741,16.312,2.79
		c3.268,0.338,2.693,4.167,0.196,3.914c-4.446-0.27-8.893-0.539-13.338-0.808c0.124,7.671,0.249,15.342,0.373,23.013
		c2.839-0.129,5.678-0.258,8.517-0.386c-0.001-4.257-0.002-8.514-0.003-12.771c2.647-0.053,5.293-0.106,7.94-0.16
		c2.419-0.75,4.283-1.399,5.591-3.544c2.326-3.207,2.86-8.074,1.505-11.608c-0.959-2.814-2.868-5.057-5.758-6.234
		C74.072,41.502,66.55,39.94,58.903,38.626L58.903,38.626L58.903,38.626z M103.022,48.811L103.022,48.811
		c1.561,0.014,2.829,1.08,2.818,2.37l-0.148,16.882c-0.012,1.29-1.298,2.334-2.859,2.32l0,0c-1.562-0.014-2.829-1.08-2.817-2.37
		l0.147-16.882C100.175,49.841,101.461,48.797,103.022,48.811L103.022,48.811L103.022,48.811z M102.526,40.631l1.816,0.016
		c5.246,0.046,9.499,4.376,9.453,9.621l-0.153,17.484c-0.046,5.246-4.375,9.5-9.621,9.453l-1.815-0.016
		c-5.224-0.046-10.528-1.953-10.461-9.63l0.153-17.484C91.944,44.83,97.281,40.585,102.526,40.631L102.526,40.631L102.526,40.631z
		 M117.529,38.946c-0.244,10.595-0.493,21.645-0.737,32.241c-0.032,3.028,0.393,5.984,4.014,8.438
		c3.69,2.076,8.295,3.555,13.813,4.437c5.062,1.224,6.603-1.929,6.638-5.91c0.099-11.182,0.197-22.362,0.295-33.543
		c-3.267,1.258-6.528,2.062-9.795,3.32c-0.142,7.567-0.288,15.591-0.431,23.159c-0.034,3.115-5.016,3.408-4.991-0.498
		c-0.177-10.86,0.305-22.13,0.296-33.607C123.597,37.637,120.562,38.292,117.529,38.946L117.529,38.946L117.529,38.946z
		 M131.714,35.232c-0.03,3.397-0.06,6.793-0.09,10.19c4.439-1.778,8.879-3.556,13.318-5.333c-0.06,15.798-0.119,31.598-0.179,47.396
		c4.103,1.715,8.326,4.201,12.729,7.814c0.173-19.708,0.347-39.416,0.52-59.125c3.566-1.311,7.133-2.623,10.699-3.935
		c0.051-5.727,0.101-11.454,0.15-17.181C156.614,24.88,144.224,31.417,131.714,35.232L131.714,35.232L131.714,35.232z
		 M168.424,96.807c0.504,0.004,0.986,0.113,1.446,0.328c0.462,0.214,0.823,0.519,1.085,0.912c0.261,0.396,0.39,0.807,0.386,1.234
		c-0.004,0.427-0.138,0.833-0.399,1.217c-0.265,0.384-0.629,0.683-1.096,0.895c-0.466,0.213-0.954,0.316-1.466,0.312
		c-0.512-0.004-0.998-0.116-1.461-0.337c-0.462-0.22-0.821-0.525-1.077-0.914s-0.383-0.796-0.379-1.224s0.14-0.837,0.407-1.228
		c0.269-0.39,0.636-0.687,1.1-0.893C167.436,96.903,167.919,96.803,168.424,96.807L168.424,96.807L168.424,96.807z M168.424,97.288
		c-0.405-0.004-0.794,0.077-1.166,0.241c-0.372,0.165-0.666,0.405-0.883,0.719s-0.326,0.644-0.329,0.988
		c-0.003,0.344,0.099,0.672,0.305,0.984c0.205,0.312,0.494,0.559,0.865,0.737c0.372,0.178,0.763,0.268,1.173,0.271
		c0.411,0.004,0.804-0.08,1.179-0.252c0.373-0.171,0.666-0.411,0.878-0.721s0.32-0.636,0.323-0.979
		c0.003-0.345-0.101-0.677-0.312-0.994c-0.211-0.316-0.502-0.562-0.872-0.733C169.215,97.378,168.827,97.291,168.424,97.288
		L168.424,97.288L168.424,97.288z M167.062,100.555l0.022-2.599l0.635,0.006c0.593,0.005,0.925,0.011,0.995,0.016
		c0.21,0.016,0.374,0.052,0.489,0.107c0.116,0.056,0.213,0.14,0.289,0.251c0.077,0.113,0.116,0.238,0.114,0.374
		c-0.002,0.188-0.076,0.348-0.226,0.479c-0.147,0.134-0.355,0.213-0.621,0.244c0.094,0.03,0.167,0.063,0.218,0.099
		s0.121,0.103,0.209,0.201c0.023,0.025,0.098,0.132,0.228,0.319l0.363,0.526l-0.781-0.007l-0.259-0.424
		c-0.173-0.285-0.318-0.465-0.433-0.539c-0.113-0.074-0.26-0.112-0.437-0.114l-0.163-0.002l-0.01,1.067L167.062,100.555
		L167.062,100.555L167.062,100.555z M167.709,99.083l0.257,0.003c0.365,0.003,0.592-0.007,0.681-0.028
		c0.088-0.023,0.158-0.063,0.21-0.122c0.053-0.059,0.078-0.125,0.079-0.199c0.001-0.073-0.023-0.138-0.073-0.193
		c-0.049-0.058-0.119-0.099-0.212-0.124c-0.091-0.025-0.318-0.039-0.678-0.042l-0.257-0.003L167.709,99.083L167.709,99.083
		L167.709,99.083z"/>
</g>
</svg>
