<?xml version="1.0" encoding="utf-8"?>
<!-- Generator: Adobe Illustrator 16.0.0, SVG Export Plug-In . SVG Version: 6.00 Build 0)  -->
<!DOCTYPE svg PUBLIC "-//W3C//DTD SVG 1.1//EN" "http://www.w3.org/Graphics/SVG/1.1/DTD/svg11.dtd">
<svg version="1.1" id="Layer_1" xmlns="http://www.w3.org/2000/svg" xmlns:xlink="http://www.w3.org/1999/xlink" x="0px" y="0px"
	 width="187.086px" height="33.016px" viewBox="0 0 187.086 33.016" enable-background="new 0 0 187.086 33.016"
	 xml:space="preserve">
<g>
	<path fill-rule="evenodd" clip-rule="evenodd" fill="#EFBC1C" d="M96.703,2.332v26.727c-0.305,1.371,2.132,1.143,1.37,2.588
		c-0.989,1.219-2.969,0.609-4.492,0.838c-1.371-0.229-3.502,0.457-3.883-1.143c-0.152-1.217,1.371-1.141,1.218-2.283V15.885
		c-0.229,0.914-0.152,2.208-1.142,2.666c-0.609,0.076-1.218-0.152-1.599-0.609s-0.229-1.523-0.761-1.6
		c-1.828,0.305-2.741,2.285-3.198,3.732c-0.533,2.969-0.229,6.471-0.229,9.67c0.229,0.838,1.751,0.686,1.066,1.826
		c-0.305,0.457-0.99,0.762-0.99,0.762s-1.294,0.076-3.351,0.076c-2.132,0-3.198-0.076-3.198-0.076
		c-0.305-0.076-0.762-0.533-0.762-0.914c-0.304-0.455,0.152-0.912,0.457-1.064c0.305,0,0.686-0.533,0.762-0.838V16.342
		c-0.076-1.142-1.904-0.914-1.447-2.056c1.599-1.447,3.883-1.447,5.634-2.589c0.457,0.076,0.99-0.076,1.371,0.229
		c0.609,0.837,0.076,2.208,0.457,3.198h0.229c1.066-1.371,2.36-3.427,4.417-3.351c0.533,0.076,1.903,0,2.284,0.914
		c0-2.742,0.305-6.396-1.371-7.843c0-1.903,4.112-1.675,5.406-3.198C95.484,1.418,96.627,1.418,96.703,2.332L96.703,2.332z"/>
	<path fill-rule="evenodd" clip-rule="evenodd" fill="#EFBC1C" d="M143.456,1.57l0.152,3.731l0.075,22.996
		c0.305,0.457,0.99,0.152,1.143,0.686c0.229,1.143-0.609,1.523-1.446,1.904c-1.752,0.607-3.351,1.445-5.254,1.521
		c-0.838-0.229,0.228-1.066-0.609-1.445c-0.838,0.988-2.132,2.055-3.427,1.521c-2.589-0.229-4.036-2.436-4.721-4.568
		c-0.99-5.178-0.533-10.965,2.437-15c0.837-0.99,1.979-1.371,3.198-1.523c0.838,0.152,1.599,0.609,2.284,1.066l0.229-0.381
		l0.076-6.092c-0.533-0.761-2.208-1.066-1.447-2.36c0.533-0.305,0.99-0.076,1.752-0.38c1.522-0.686,3.122-1.371,4.645-2.132
		C142.999,0.961,143.304,1.266,143.456,1.57L143.456,1.57z M135.917,14.896c-0.229-0.381-0.608-0.076-0.837,0.229
		c-1.371,3.655-1.98,9.062,0.457,12.411c0.38,0.381,0.913,0.152,1.218-0.305c1.143-2.74,1.143-6.092,0.609-9.137
		C137.06,16.951,136.907,15.733,135.917,14.896L135.917,14.896z"/>
	<path fill-rule="evenodd" clip-rule="evenodd" fill="#EFBC1C" d="M19.645,1.722l1.675,7.539c0.152,0.838-0.305,1.447-0.99,1.751
		c-0.686,0.305-1.371-0.152-1.904-0.533c-1.142-1.751-1.371-4.036-3.198-5.406c-0.533-0.076-0.99,0-1.066,0.533l0.076,23.833
		c0.229,0.686,0.914,1.369,1.599,1.447c0.609-0.078,1.218-0.914,1.218-1.219V16.494c-0.076-0.761-2.208-0.989-1.599-1.827
		c1.979-0.914,4.036-1.599,5.939-2.589c0.533-0.076,1.37,0,1.523,0.609l0.076,16.98c-0.076,0.914,1.143,0.762,1.371,1.598
		c0.305-0.684,1.143-0.836,1.218-1.598V16.723c0-1.066-2.056-1.218-1.446-2.056c1.827-0.837,3.655-1.675,5.482-2.513
		c0.609-0.305,1.599-0.305,1.828,0.457c0,0.533-0.076,0.914,0.152,1.371c0.837,0.381,0.837-0.761,1.371-1.065
		c1.142-1.143,3.122-1.143,4.493-0.609c1.142,0.152,1.218,1.751,2.284,1.675c0.533-0.685,0.838-1.446,1.675-1.751
		c1.371-0.152,2.817-0.229,3.884,0.609c2.437,2.437,2.437,5.94,2.817,9.213c0.304,2.818,0.533,5.482,0.837,8.377
		c0.152,0.457,0.381,0.229,0.762,0.457v-0.609V6.9c0-1.599-1.523-1.599-1.295-2.665c1.447-1.751,4.036-1.523,5.711-2.894
		c0.609,0,1.218,0.229,1.447,0.762v10.432c0.609,0.609,0.914-0.381,1.599-0.609c1.675-0.533,3.274,0.305,4.264,1.371
		c1.98,2.132,2.36,4.874,2.817,7.614h0.076c0.457-3.35,1.142-7.461,4.721-8.756c1.599-0.609,3.579-0.609,5.025,0.457
		c2.132,1.828,3.579,5.026,2.893,7.918c-2.589,1.219-5.102,2.209-7.233,3.199c0.229,1.295,0.609,2.74,1.827,3.502
		c0.838,0.381,2.056,0.914,2.817,0.076c0.381-0.686,0.152-1.904,1.066-1.979c0.685,0,1.446,0.074,1.751,0.76
		c0.838,1.6,0.305,3.428-0.685,4.799c-1.675,1.826-4.645,1.979-7.005,1.369c-3.579-1.143-4.492-5.025-5.102-8.223
		c-0.152,3.35-0.761,7.232-4.188,8.451c-2.056,0.533-4.797,0.076-5.711-1.219c-0.304-0.379-0.229-1.064-0.914-1.064
		c-1.143,0-0.99,2.131-2.437,2.283c-0.686,0.229-1.142-0.381-1.371-0.762c-0.153,0.381-0.305,0.457-0.914,0.609
		c0.076,0-5.787,0.076-6.32-0.076c-0.533-0.076-0.533-0.381-0.686-0.609c-0.38-1.064,0.99-0.533,1.066-1.445
		c0.229-4.189-0.152-8.225-0.686-12.184c-0.152-0.914-0.457-1.6-1.218-1.98c-0.609-0.304-1.218,0.533-1.294,0.914l-0.076,12.717
		c-0.076,1.219,1.904,0.914,1.066,2.207c-1.675,0.838-4.493,0.381-6.548,0.381c-0.305-0.076-0.533-0.076-0.762-0.152
		c-0.38-0.076-0.533-0.99-0.228-1.141c0.837-0.076,1.142-0.914,1.294-1.6c0.076-3.883,0.076-12.412-0.152-13.021
		c-0.152-0.533-0.837-0.761-1.371-0.608c-0.685,0.228-1.066,0.38-1.294,1.446l0.076,12.564c-0.229,0.99,1.675,0.838,0.99,1.979
		l-0.609,0.457c-2.208,0.305-4.645,0.229-6.929,0.076c-0.381-0.229-0.914-0.533-0.914-1.143c-0.152,0.457-0.229,0.762-0.686,0.99
		c-2.589,0.152-4.492,0.381-7.158,0.076c-0.152-0.152-0.457-0.229-0.609-0.457c-1.142,0.914-2.894,0.533-4.417,0.609
		c-2.056,0-3.579,0.305-5.254-0.381c-0.381-0.229-0.381-0.686-0.305-0.988c0.762-0.229,1.142-0.686,1.447-1.447V5.911
		C7.233,5.225,6.776,5.301,6.625,5.073C5.863,4.997,5.254,5.682,4.949,6.291c-1.371,1.599-0.99,5.33-4.036,4.797
		c-0.38-0.305-0.761-0.533-0.913-0.99c0.304-3.046,0.99-5.635,1.599-8.452c0.229-0.229,0.457-0.686,0.914-0.609
		c0.457-0.076,0.914,0.229,1.143,0.609c4.112,0.152,9.213,0.152,13.706,0C17.817,0.809,19.493,0.428,19.645,1.722L19.645,1.722z
		 M70.357,14.438c-0.609-0.38-1.447,0.381-1.599,0.838c-0.304,1.827-0.457,4.265,0.457,6.015c0.686-0.229,1.523-0.533,2.208-0.99
		c0.914-0.988,0.99-2.207,0.152-3.807L70.357,14.438L70.357,14.438z M57.413,14.743c-0.533,0-1.371,2.513-1.675,3.884
		c-0.304,3.121-0.457,6.625,1.295,9.137c0.457,0.457,0.837-0.305,1.065-0.533c1.751-3.045,1.447-7.156,0.533-10.508
		C58.402,15.961,58.326,14.743,57.413,14.743L57.413,14.743z"/>
	<path fill-rule="evenodd" clip-rule="evenodd" fill="#EFBC1C" d="M126.476,14.515c1.522,3.274,1.751,7.157,2.056,10.888
		c0.152,1.676-0.381,4.494,1.295,5.484c0.228,0.227,0.152,0.76-0.076,1.064l-0.609,0.305c-2.132,0.152-4.416,0.381-6.777-0.229
		c-0.305-0.229-0.38-0.686-0.228-0.99c1.903-0.912,0.989-3.959,1.142-5.635c-0.533-3.121-0.914-6.318-2.36-9.137
		c-0.152-0.228-0.457-0.38-0.838-0.304l-0.532,0.533l0.151,12.945c0.076,0.609,0.229,1.369,0.99,1.447
		c0.305,0.379,0.076,0.836-0.076,1.141c-2.132,0.609-4.645,0.533-6.777,0.381c-0.456-0.152-0.837-0.457-0.989-0.838
		c-0.609,0.609-1.219,0.838-2.208,0.914c-1.676,0.076-2.589-0.838-3.655-1.598c-0.609,0.455-1.446,0.988-2.208,1.369
		c-1.6,0.838-3.579,0.305-5.025-0.457c-2.056-1.141-2.36-3.35-2.437-5.482c-0.152-3.121,2.665-5.33,5.178-6.549
		c0.761-0.303,2.284-0.379,2.589-1.293c0.076-1.219,0.076-2.97-1.143-3.884c-0.762,0-1.599-0.305-2.36,0
		c-0.609,0.837,0.762,0.686,0.99,1.447c0.152,0.685-0.076,1.599-0.457,2.132c-0.762,0.914-2.132,0.686-3.198,0.533
		c-0.609-0.381-0.914-0.914-1.218-1.523c-0.152-1.142-0.152-2.36,0.532-3.198c1.98-2.284,5.406-2.056,8.147-1.751
		c1.447,0,2.894,1.218,3.351,2.513c1.219,4.341,1.295,8.909,1.522,13.554c0.381,1.6,1.219-0.305,1.6,1.219l0.229,1.371
		c0.761,0,0.914-0.762,1.142-1.219l-0.076-13.174c-0.151-1.066-1.979-1.066-1.37-2.208c1.522-1.142,3.503-1.523,5.178-2.513
		c0.686-0.152,1.371,0,1.522,0.609c0.229,0.228-0.151,0.761,0.305,0.914c0.686-0.837,1.295-1.599,2.361-1.751
		C124.191,11.469,125.638,12.839,126.476,14.515L126.476,14.515z M105.079,21.367c-0.914,0.229-1.522,0.838-2.056,1.752
		c-0.457,1.752-0.686,5.482,0.913,5.939c0.609,0.229,1.295,0.076,1.6-0.381c0.229-2.285,0.152-4.873-0.229-7.006L105.079,21.367
		L105.079,21.367z"/>
	<path fill-rule="evenodd" clip-rule="evenodd" fill="#EFBC1C" d="M181.071,25.936c-1.143,1.6-2.209,2.818-3.808,3.885
		c-7.386-0.229-14.392-2.133-21.701-2.438l-0.609-0.686C163.558,24.719,172.467,27.764,181.071,25.936L181.071,25.936z"/>
	<path fill-rule="evenodd" clip-rule="evenodd" fill="#EFBC1C" d="M172.314,30.201l4.036,0.305
		c-4.341,3.197-11.727,3.273-16.447,0.607c-1.295-0.836-2.665-1.826-3.731-2.893C161.807,28.373,166.908,29.668,172.314,30.201
		L172.314,30.201z"/>
	<path fill-rule="evenodd" clip-rule="evenodd" fill="#EFBC1C" d="M183.432,4.616c0-1.066,0.837-1.827,1.827-1.827
		s1.827,0.761,1.827,1.827c0,0.99-0.837,1.751-1.827,1.751S183.432,5.606,183.432,4.616L183.432,4.616z M185.259,6.063
		c0.838,0,1.447-0.609,1.447-1.447c0-0.914-0.609-1.522-1.447-1.522s-1.446,0.609-1.446,1.522
		C183.812,5.454,184.421,6.063,185.259,6.063L185.259,6.063z M184.878,5.606h-0.305V3.55h0.762c0.533,0,0.762,0.152,0.762,0.609
		c0,0.38-0.229,0.533-0.533,0.533l0.609,0.914h-0.381l-0.533-0.914h-0.381V5.606L184.878,5.606z M185.259,4.464
		c0.229,0,0.533,0,0.533-0.381c0-0.229-0.229-0.305-0.457-0.305h-0.457v0.686H185.259L185.259,4.464z"/>
	<path fill-rule="evenodd" clip-rule="evenodd" fill="#EFBC1C" d="M129.75,4.159c0-1.066,0.837-1.828,1.827-1.828
		s1.827,0.762,1.827,1.828s-0.837,1.827-1.827,1.827S129.75,5.225,129.75,4.159L129.75,4.159z M131.577,5.682
		c0.838,0,1.447-0.609,1.447-1.523c0-0.838-0.609-1.523-1.447-1.523s-1.447,0.685-1.447,1.523
		C130.13,5.073,130.739,5.682,131.577,5.682L131.577,5.682z M131.196,5.225h-0.305V3.093h0.762c0.533,0,0.762,0.228,0.762,0.609
		s-0.229,0.533-0.533,0.609l0.609,0.914h-0.381l-0.533-0.914h-0.381V5.225L131.196,5.225z M131.577,4.007
		c0.305,0,0.533,0,0.533-0.305c0-0.228-0.229-0.305-0.457-0.305h-0.457v0.609H131.577L131.577,4.007z"/>
	<path fill-rule="evenodd" clip-rule="evenodd" fill="#EFBC1C" d="M167.213,0.047c0.914,1.523,1.599,3.198,2.513,4.721l0.686-0.076
		c-0.381-1.523-1.143-3.046-1.828-4.569c2.285-0.762,2.133,2.208,3.198,3.274c1.143-0.229,2.208-1.142,3.351-1.599
		c0.381,0,0.533,0.381,0.762,0.533l-3.046,2.589c0,0.914,0.457,1.828,0.837,2.665l3.427-4.568c0.381,0.076,0.609,0.533,0.914,0.685
		c-0.533,0.837-1.066,1.447-1.523,2.361l0.229,0.152c1.523,0.457,4.265-0.99,4.722,1.371l-3.427,0.305l-1.523,2.589
		c2.132,0.305,3.731-1.142,5.559-1.751l0.762,1.371c-2.208,0.99-4.568,1.827-7.081,2.284c-0.381,0.533-0.609,1.142-0.99,1.675
		c2.817-0.609,5.711-1.371,8.604-2.132c1.294,4.264,0.533,9.213-1.599,12.793l-0.914,0.533c-8.909,1.75-17.59-1.143-26.422,0.607
		c-3.046-4.188-4.036-10.659-1.904-15.533l3.503-0.152V9.87c-0.305-1.218-3.046-2.437-1.143-3.731
		c1.295,0.99,2.361,2.513,3.427,3.655c0.457,0,0.914,0.077,1.219-0.076l-3.808-4.417c0.305-0.686,1.066-1.066,1.599-1.599
		l3.198,0.686c0.152-0.914,0.076-1.751,0.076-2.741c0.686-0.457,1.447-0.609,2.132-0.914l1.828,3.655l2.36-4.34H167.213
		L167.213,0.047z M167.213,3.169l-1.523,3.351c0.076,1.142,0.457,2.284,0.914,3.198c1.751-0.457,1.295-2.513,1.751-3.807
		L167.213,3.169L167.213,3.169z M162.188,3.321c0.151,0.609-0.533,2.208,0.761,1.828L162.188,3.321L162.188,3.321z M157.923,5.377
		l2.437,2.513c0.076-0.609,0.076-1.218,0.152-1.827C159.675,5.834,158.837,5.53,157.923,5.377L157.923,5.377z M170.562,6.672
		l0.153,0.229c0.152-0.152,0.38-0.305,0.38-0.533C170.868,6.367,170.716,6.52,170.562,6.672L170.562,6.672z M162.339,6.9v2.817
		l1.219-2.437C163.177,6.977,162.72,6.977,162.339,6.9L162.339,6.9z M176.197,7.966c-0.456,0.076-0.837,0.152-0.989,0.152
		l-1.6,2.437c0.305,0,0.838,0.076,1.066,0.076L176.197,7.966L176.197,7.966z M169.649,9.946l0.152,3.046
		c0.838-1.447,3.198-2.665,2.208-4.721C171.096,8.804,170.411,9.261,169.649,9.946L169.649,9.946z M165.233,12.535l-0.762-2.97
		l-0.609,1.447L165.233,12.535L165.233,12.535z M167.745,10.86c-1.065-0.152-0.989,1.828-0.075,1.903L167.745,10.86L167.745,10.86z
		 M158.608,11.241l-1.37,1.675l2.284,0.99l2.437-1.751C161.578,10.555,159.675,11.545,158.608,11.241L158.608,11.241z
		 M153.354,11.545l1.37,0.686c0.762,0.533,0.838-0.381,1.219-0.761C155.105,11.545,154.192,11.393,153.354,11.545L153.354,11.545z
		 M164.243,14.21l-0.914-0.914c-1.446,0.762-2.665,2.665-4.264,3.198c-0.686,0-1.143,0-1.904,0c0.381-0.38,0.762-0.989,0.914-1.37
		c-0.609-0.305-1.218-0.533-1.979-0.686c-0.457,0.609-1.143,1.675-1.599,2.056c-0.305,0-0.533,0-0.99,0
		c0,1.752,0.076,3.807,0.914,5.33c3.807,0.076,8.071,0.609,12.03,1.066v-5.939l-0.762-1.142c-0.608,0.38-1.37,0.609-2.208,0.685
		c-1.143,0.076-2.208,0.076-3.274,0L164.243,14.21L164.243,14.21z M153.659,13.296l-0.152,1.828
		c0.381-0.457,0.762-0.914,0.914-1.447L153.659,13.296L153.659,13.296z M182.289,14.667c-0.076-0.229-0.229-0.533-0.229-0.533
		c-0.381,0.152-0.913,0.228-1.522,0.38l1.219,2.284l-1.98-0.076c-0.152-0.229-0.229-0.533-0.457-0.914
		c-0.076-0.152-0.457-0.914-0.38-0.914c-0.609,0.229-1.828,0.381-2.514,0.533c0.152,0.533,0.305,0.837,0.457,1.294
		c-0.532,0-1.065,0-1.599,0c-0.229-0.381-0.381-0.609-0.609-0.989c-1.827,0.532-3.579,1.065-5.406,1.599
		c0.076,2.057,0.152,4.34,0.609,6.092c3.273,0.533,6.776,0.914,10.203,0.838C181.908,21.52,182.975,18.094,182.289,14.667
		L182.289,14.667z M173.533,12.688c-0.305,0-0.609-0.077-0.99,0l-1.295,2.132c0.457-0.076,0.914-0.152,1.219-0.305L173.533,12.688
		L173.533,12.688z"/>
</g>
</svg>
