<?xml version="1.0" encoding="utf-8"?>
<!-- Generator: Adobe Illustrator 16.0.0, SVG Export Plug-In . SVG Version: 6.00 Build 0)  -->
<!DOCTYPE svg PUBLIC "-//W3C//DTD SVG 1.1//EN" "http://www.w3.org/Graphics/SVG/1.1/DTD/svg11.dtd">
<svg version="1.1" id="Layer_1" xmlns="http://www.w3.org/2000/svg" xmlns:xlink="http://www.w3.org/1999/xlink" x="0px" y="0px"
	 width="287.556px" height="181.519px" viewBox="0 0 287.556 181.519" enable-background="new 0 0 287.556 181.519"
	 xml:space="preserve">
<g>
	<rect fill="#FFFFFF" width="274.099" height="181.519"/>
	<polygon points="57.263,71.01 41.095,71.01 41.095,65.174 80.45,65.174 80.45,71.01 64.205,71.01 64.205,118.332 57.263,118.332 	
		"/>
	<path d="M56.964,118.63V71.308H40.793v-6.434h39.954v6.434H64.502v47.322H56.964z M57.56,70.71v47.32h6.344V70.71h16.248v-5.236
		H41.393v5.236h15.87v0.298V70.71H57.56z"/>
	<path d="M111.174,65.9c7.528,0,13.827,2.513,18.9,7.542c5.072,5.026,7.607,11.216,7.607,18.57c0,7.282-2.531,13.462-7.591,18.535
		c-5.058,5.072-11.23,7.61-18.506,7.61c-7.375,0-13.597-2.526-18.665-7.573c-5.073-5.056-7.608-11.168-7.608-18.337
		c0-4.778,1.156-9.211,3.467-13.293c2.31-4.08,5.461-7.276,9.447-9.588C102.216,67.057,106.535,65.9,111.174,65.9 M111.396,70.72
		c-3.676,0-7.16,0.959-10.45,2.879c-3.294,1.919-5.86,4.508-7.71,7.759c-1.848,3.253-2.773,6.877-2.773,10.875
		c0,5.916,2.045,10.913,6.138,14.99c4.093,4.076,9.023,6.114,14.796,6.114c3.853,0,7.423-0.935,10.703-2.809
		c3.279-1.877,5.841-4.442,7.677-7.692c1.837-3.251,2.756-6.866,2.756-10.841c0-3.953-0.919-7.523-2.756-10.722
		c-1.836-3.194-4.426-5.756-7.762-7.671C118.679,71.679,115.137,70.72,111.396,70.72"/>
	<path d="M111.584,119.058c-7.578,0.008-14.078-2.626-19.301-7.84c-5.23-5.197-7.88-11.586-7.871-18.972
		c-0.002-4.925,1.193-9.522,3.58-13.734c2.384-4.213,5.66-7.537,9.785-9.924c4.118-2.388,8.604-3.593,13.396-3.589v1.798
		c-4.49,0.002-8.637,1.114-12.495,3.349c-3.855,2.234-6.878,5.302-9.117,9.254c-2.234,3.947-3.347,8.212-3.351,12.847
		c0.012,6.961,2.433,12.789,7.346,17.698c4.92,4.89,10.856,7.308,18.028,7.313c7.067-0.006,12.956-2.432,17.871-7.345
		c4.899-4.927,7.318-10.826,7.326-17.9c-0.008-7.146-2.433-13.054-7.34-17.932c-4.917-4.862-10.937-7.272-18.269-7.284v-1.798
		c7.729-0.008,14.309,2.61,19.533,7.802c5.235,5.18,7.882,11.651,7.874,19.212c0.008,7.49-2.633,13.951-7.853,19.17
		c-5.2,5.225-11.635,7.875-19.109,7.875H111.584z M95.965,107.861c-4.256-4.226-6.413-9.505-6.404-15.631
		c0-4.134,0.965-7.928,2.894-11.317c1.923-3.387,4.617-6.098,8.035-8.091c3.419-1.994,7.072-3.004,10.905-3.004v0.004v1.795
		c-3.516,0.004-6.829,0.913-9.996,2.76c-3.165,1.848-5.608,4.306-7.383,7.424c-1.769,3.115-2.651,6.572-2.655,10.43
		c0.008,5.71,1.943,10.426,5.875,14.354c3.945,3.92,8.601,5.843,14.159,5.853c3.712-0.002,7.108-0.896,10.258-2.691
		c3.146-1.803,5.577-4.236,7.341-7.354c1.76-3.114,2.637-6.56,2.641-10.398c-0.004-3.812-0.881-7.214-2.635-10.271
		c-1.764-3.059-4.224-5.493-7.434-7.345c-3.213-1.841-6.583-2.756-10.171-2.756v-1.803c3.896,0,7.606,1.01,11.068,3.002
		c3.46,1.989,6.178,4.669,8.095,8.004c1.915,3.336,2.874,7.081,2.874,11.169c0,4.113-0.955,7.896-2.872,11.286
		c-1.913,3.387-4.603,6.081-8.015,8.027c-3.412,1.95-7.149,2.932-11.15,2.932h-0.035
		C105.389,114.238,100.194,112.085,95.965,107.861"/>
	<polygon points="187.973,118.355 181.676,84.336 170.111,118.458 168.296,118.458 156.382,84.336 150.261,118.355 143.41,118.355 
		153.306,65.421 156.583,65.421 169.204,104.012 180.829,65.421 184.108,65.421 194.827,118.355 	"/>
	<path d="M168.083,118.76l-11.609-33.252l-5.964,33.149h-7.463l10.007-53.536h3.748l12.391,37.886l11.412-37.886h3.748
		l10.838,53.536h-7.218v-0.302l0.294-0.055l-0.294,0.055v0.302h-0.249l-6.131-33.139l-11.266,33.241H168.083z M168.509,118.158
		h1.389l11.861-35.006l6.463,34.905h6.234L183.86,65.719h-2.81l-11.835,39.293l-12.849-39.293h-2.815l-9.781,52.339h6.239
		l6.275-34.899L168.509,118.158z"/>
	<path d="M213.408,118.63c-4.581,0-8.493-1.074-11.729-3.235l2.568-6.471c1.312,0.958,2.953,1.762,4.912,2.406
		c1.962,0.643,3.715,0.962,5.266,0.962c2.746,0,4.953-0.75,6.619-2.256c1.668-1.501,2.502-3.419,2.502-5.746
		c0-1.736-0.461-3.354-1.391-4.846c-0.922-1.49-3.252-3.12-6.98-4.882l-4.151-1.938c-3.517-1.646-5.972-3.596-7.368-5.852
		c-1.396-2.252-2.09-4.97-2.09-8.141c0-3.854,1.358-7.048,4.084-9.584c2.725-2.539,6.223-3.808,10.498-3.808
		c5.707,0,9.68,0.929,11.912,2.781l-2.082,6.128c-0.943-0.68-2.377-1.333-4.305-1.964c-1.93-0.635-3.713-0.95-5.363-0.95
		c-2.397,0-4.285,0.684-5.662,2.044c-1.376,1.364-2.062,3.112-2.062,5.248c0,1.315,0.244,2.517,0.741,3.597
		c0.491,1.08,1.178,1.983,2.062,2.71c0.882,0.728,2.682,1.752,5.406,3.067l4.229,2.009c3.521,1.669,5.996,3.658,7.416,5.973
		c1.42,2.312,2.133,5.257,2.133,8.829c0,3.878-1.559,7.165-4.67,9.867C222.788,117.282,218.622,118.63,213.408,118.63"/>
	<path d="M213.408,118.932v-0.602c5.165,0,9.249-1.332,12.296-3.977c3.057-2.659,4.562-5.85,4.564-9.646
		c-0.002-3.529-0.703-6.416-2.088-8.67c-1.377-2.246-3.797-4.204-7.291-5.857l-4.223-2.011c-2.735-1.323-4.545-2.34-5.473-3.106
		c-0.916-0.755-1.633-1.697-2.143-2.816c-0.514-1.123-0.768-2.365-0.768-3.72c-0.002-2.2,0.719-4.045,2.155-5.462
		c1.438-1.425,3.419-2.132,5.87-2.13c1.686,0,3.502,0.323,5.459,0.966c1.732,0.568,3.08,1.156,4.051,1.777l1.887-5.556
		c-2.164-1.691-6.02-2.587-11.559-2.583c-4.219,0.002-7.627,1.245-10.296,3.726c-2.667,2.487-3.986,5.582-3.992,9.366
		c0,3.131,0.688,5.781,2.05,7.981c1.349,2.188,3.753,4.109,7.238,5.738l4.152,1.938c3.752,1.779,6.115,3.402,7.113,4.995
		c0.951,1.536,1.434,3.212,1.434,5.003c0.004,2.397-0.875,4.418-2.6,5.972c-1.729,1.561-4.023,2.332-6.822,2.332
		c-1.591,0-3.378-0.331-5.359-0.979c-1.832-0.602-3.391-1.341-4.684-2.223l-2.334,5.89c3.145,2.03,6.922,3.051,11.36,3.051l0,0
		V118.932c-4.625,0-8.604-1.092-11.899-3.288l-0.2-0.136l2.797-7.055l0.317,0.229c1.283,0.935,2.891,1.725,4.832,2.359
		c1.938,0.639,3.662,0.95,5.17,0.95c2.695,0,4.814-0.732,6.418-2.181c1.607-1.452,2.4-3.264,2.402-5.523
		c0-1.683-0.447-3.239-1.342-4.688c-0.859-1.39-3.148-3.021-6.858-4.77l-4.147-1.938c-3.553-1.658-6.062-3.637-7.498-5.964
		c-1.43-2.307-2.14-5.081-2.14-8.297c-0.002-3.924,1.403-7.218,4.183-9.807c2.786-2.593,6.371-3.887,10.705-3.885
		c5.74,0.004,9.77,0.921,12.104,2.852l0.156,0.131l-2.279,6.703l-0.328-0.237c-0.898-0.645-2.311-1.294-4.221-1.919
		c-1.906-0.625-3.66-0.935-5.27-0.935c-2.343,0.002-4.138,0.66-5.449,1.956c-1.316,1.311-1.973,2.961-1.975,5.036
		c0,1.278,0.238,2.435,0.711,3.471c0.475,1.043,1.133,1.905,1.979,2.606c0.837,0.69,2.634,1.717,5.347,3.022l4.227,2.011
		c3.557,1.687,6.08,3.707,7.543,6.085c1.457,2.377,2.18,5.379,2.18,8.985c0.002,3.963-1.609,7.353-4.777,10.097
		C222.921,117.562,218.671,118.932,213.408,118.932"/>
	<rect x="0.198" fill="#A4D7F4" width="273.6" height="59.568"/>
	<rect x="0.197" y="122.922" fill="#A4D7F4" width="273.901" height="58.597"/>
	<path d="M283.427,4.736c0.631,0,0.98-0.327,0.98-0.804c0-0.528-0.375-0.779-0.98-0.779h-1.18v1.583H283.427z M281.542,2.523h1.963
		c0.902,0,1.633,0.477,1.633,1.358c0,0.728-0.477,1.156-1.08,1.333l1.232,1.711h-0.883l-1.105-1.611h-1.055v1.611h-0.705V2.523z
		 M287.054,4.812V4.785c0-2.138-1.664-3.901-3.879-3.901c-2.189,0-3.873,1.787-3.873,3.929v0.024c0,2.14,1.66,3.899,3.873,3.899
		C285.366,8.736,287.054,6.951,287.054,4.812 M278.798,4.837V4.812c0-2.393,1.938-4.403,4.377-4.403
		c2.467,0,4.381,1.987,4.381,4.376v0.027c0,2.39-1.938,4.402-4.381,4.402C280.712,9.215,278.798,7.226,278.798,4.837"/>
</g>
</svg>
