<?xml version="1.0" encoding="utf-8"?>
<!-- Generator: Adobe Illustrator 16.0.0, SVG Export Plug-In . SVG Version: 6.00 Build 0)  -->
<!DOCTYPE svg PUBLIC "-//W3C//DTD SVG 1.1//EN" "http://www.w3.org/Graphics/SVG/1.1/DTD/svg11.dtd">
<svg version="1.1" id="Layer_1" xmlns="http://www.w3.org/2000/svg" xmlns:xlink="http://www.w3.org/1999/xlink" x="0px" y="0px"
	 width="175.748px" height="168.471px" viewBox="0 0 175.748 168.471" enable-background="new 0 0 175.748 168.471"
	 xml:space="preserve">
<g>
	<path fill-rule="evenodd" clip-rule="evenodd" fill="#1D1D1B" d="M32.748,0.364h77.504l7.277,21.832l-0.728,1.819H90.603
		l-4.002-12.007L72.046,54.581H46.939l-1.092-1.092l13.463-40.39l-8.733,10.552H27.29l-1.819-1.819L32.748,0.364L32.748,0.364z
		 M140.816,0l25.471,73.501l-17.465,13.827l-2.911-0.363l-8.005-24.743l9.824-7.641h-45.483l-8.369-23.652l0.728-1.091l42.937-0.364
		l-13.463-4.73l-7.277-22.196l1.455-2.183L140.816,0L140.816,0z M175.748,101.52l-61.857,47.666l-16.738-11.644l-1.092-2.547
		l20.377-15.646l10.188,6.913l-15.646-42.208l20.74-16.738l2.184,0.364l13.1,40.389l0.363-12.734l18.921-14.919h2.184
		L175.748,101.52L175.748,101.52z M90.967,168.471l-64.404-45.483l6.913-21.832l1.456-0.728l21.832,14.918l-4.002,12.008
		l36.022-25.834l21.469,14.19v1.455L77.14,143l12.735-3.639l18.558,12.371l0.364,3.275L90.967,168.471L90.967,168.471z M0,104.43
		l22.56-74.957l22.56-0.364l1.456,2.547l-7.277,23.288H25.834l39.298,29.109l-7.641,23.651l-1.456,0.728L20.013,82.598l9.097,13.463
		l-7.277,21.104l-3.275,0.364L0,104.43L0,104.43z"/>
</g>
</svg>
