<?xml version="1.0" encoding="utf-8"?>
<!-- Generator: Adobe Illustrator 16.0.0, SVG Export Plug-In . SVG Version: 6.00 Build 0)  -->
<!DOCTYPE svg PUBLIC "-//W3C//DTD SVG 1.1//EN" "http://www.w3.org/Graphics/SVG/1.1/DTD/svg11.dtd">
<svg version="1.1" id="Layer_1" xmlns="http://www.w3.org/2000/svg" xmlns:xlink="http://www.w3.org/1999/xlink" x="0px" y="0px"
	 width="356.475px" height="195.848px" viewBox="0 0 356.475 195.848" enable-background="new 0 0 356.475 195.848"
	 xml:space="preserve">
<g>
	<path fill-rule="evenodd" clip-rule="evenodd" d="M193.241,75.709c-2.016-0.027-3.582-0.508-4.698-1.444
		c-1.115-0.936-1.682-2.167-1.699-3.691h-2.771v37.621h2.771c0.018-1.525,0.584-2.756,1.699-3.692
		c1.116-0.937,2.683-1.418,4.698-1.445h34.384v17.767c-2.966,2.64-8.229,5.547-15.789,8.722c-7.561,3.176-17.614,4.905-30.162,5.191
		c-10.405,0.014-19.974-1.988-28.707-6.008s-15.754-10.141-21.067-18.365c-5.312-8.224-8.042-18.636-8.187-31.236
		c0.128-12.048,2.892-22.065,8.291-30.048c5.398-7.984,12.662-13.959,21.792-17.925c9.129-3.966,19.354-5.948,30.672-5.944
		c8.961,0.123,17.06,1.351,24.295,3.683c7.235,2.333,12.995,5.034,17.278,8.103c4.283,3.07,6.476,5.771,6.578,8.104
		c-0.033,1.533-0.166,2.745-0.399,3.636l2.771,1.925l19.379-35.047l-2.797-1.283c-0.42,0.66-1.028,1.212-1.823,1.658
		c-0.795,0.445-1.652,0.677-2.572,0.695c-0.773-0.058-2.921-0.904-6.442-2.54s-7.967-3.711-13.336-6.229
		c-5.753-2.016-12.349-3.816-19.785-5.402C200.176,0.927,192.326,0.089,184.061,0c-14.18-0.042-28.002,2.749-41.467,8.374
		C129.129,14,117.973,22.715,109.126,34.521S95.694,61.477,95.369,79.973c0.214,18.497,4.268,33.647,12.159,45.453
		c7.892,11.805,18.337,20.52,31.336,26.146c12.999,5.625,27.265,8.417,42.8,8.374c11.612-0.153,22.534-1.651,32.766-4.494
		c10.232-2.844,19.242-6.114,27.03-9.812c7.788-3.698,13.823-6.905,18.104-9.622v-2.992c-1.286-0.29-2.21-0.834-2.771-1.633
		c-0.562-0.798-0.837-2.038-0.824-3.719V85.537c0.033-2.314,0.416-3.988,1.148-5.021s1.615-1.638,2.647-1.816v-2.991H193.241
		L193.241,75.709z"/>
	<path fill-rule="evenodd" clip-rule="evenodd" d="M350.125,49.302c1.156-0.011,2.212-0.287,3.168-0.83
		c0.956-0.542,1.722-1.289,2.297-2.239c0.575-0.95,0.87-2.042,0.885-3.273c-0.015-1.221-0.31-2.304-0.885-3.25
		s-1.341-1.689-2.297-2.231c-0.956-0.542-2.012-0.818-3.168-0.829c-1.168,0.011-2.231,0.287-3.192,0.829
		c-0.96,0.542-1.729,1.286-2.305,2.231s-0.872,2.028-0.887,3.25c0.015,1.232,0.311,2.323,0.887,3.273
		c0.576,0.95,1.345,1.696,2.305,2.239C347.894,49.015,348.958,49.291,350.125,49.302L350.125,49.302z M345.003,42.959
		c0.01-1.008,0.239-1.907,0.688-2.695c0.45-0.788,1.059-1.41,1.827-1.865c0.77-0.455,1.638-0.688,2.606-0.697
		c0.957,0.009,1.818,0.242,2.582,0.697c0.765,0.456,1.37,1.077,1.818,1.865s0.678,1.687,0.688,2.695
		c-0.011,1.024-0.24,1.933-0.688,2.725s-1.054,1.416-1.818,1.87c-0.764,0.454-1.625,0.686-2.582,0.694
		c-0.969-0.009-1.837-0.24-2.606-0.694c-0.769-0.454-1.377-1.078-1.827-1.87C345.243,44.892,345.013,43.983,345.003,42.959
		L345.003,42.959z M348.794,43.46h1.264l1.913,3.165h1.229l-2.061-3.215c0.544-0.061,0.989-0.249,1.338-0.564
		c0.348-0.315,0.527-0.797,0.539-1.443c0-0.716-0.212-1.242-0.637-1.577c-0.426-0.335-1.066-0.501-1.923-0.498h-2.759v7.297h1.096
		V43.46L348.794,43.46z M348.794,42.525v-2.261h1.497c0.4-0.012,0.76,0.054,1.077,0.197s0.485,0.435,0.504,0.875
		c-0.016,0.541-0.193,0.879-0.533,1.016c-0.34,0.136-0.75,0.194-1.23,0.173H348.794L348.794,42.525z"/>
	<path fill-rule="evenodd" clip-rule="evenodd" d="M98.448,116.822c-2.689-6.296-4.491-12.992-5.582-19.911
		c-0.324-2.048-0.549-3.786-0.756-5.852c-0.387-3.868-0.567-7.152-0.606-11.042c0-0.042,0-0.078,0-0.12
		c0.042-2.532,0.146-4.668,0.346-7.191c0.184-2.313,0.401-4.261,0.733-6.555c0.336-2.321,0.69-4.27,1.193-6.556
		c0.46-2.092,0.913-3.842,1.524-5.888c1.288-4.344,2.696-7.906,4.712-11.919c1.844-3.665,3.665-6.609,6.098-9.856
		c0.975-1.303,1.977-2.57,3.006-3.8V17.26c-0.048-1.742,0.19-2.982,0.714-3.723c0.523-0.741,1.619-1.101,3.285-1.081v-2.222h-28.41
		v2.222c1.673-0.02,2.792,0.34,3.358,1.081c0.565,0.74,0.828,1.981,0.786,3.723v66.294c0.078,6.487-0.808,11.879-2.657,15.825
		c-1.849,3.946-5.126,6.806-9.833,8.579s-11.307,2.646-19.803,2.614c-8.496,0.031-15.097-0.841-19.803-2.614
		c-4.706-1.773-7.984-4.633-9.833-8.579c-1.849-3.946-2.734-9.338-2.657-15.825V17.26c-0.042-1.742,0.22-2.982,0.786-3.723
		c0.565-0.741,1.685-1.101,3.358-1.081v-2.222H0v2.222c1.667-0.02,2.762,0.34,3.286,1.081C3.81,14.278,4.047,15.519,4,17.26v70.137
		c0.136,15.153,4.788,25.823,13.956,32.01c9.167,6.187,22.035,9.174,38.603,8.96c16.567,0.214,29.435-2.773,38.603-8.96
		C96.331,118.618,97.426,117.757,98.448,116.822L98.448,116.822z"/>
	<path fill-rule="evenodd" clip-rule="evenodd" d="M222.79,71.569h22.104c-0.047-0.868-0.075-1.751-0.086-2.65
		c0.1-9.099,2.251-16.664,6.453-22.693c4.203-6.03,9.857-10.542,16.963-13.538c7.106-2.996,15.065-4.492,23.877-4.489
		c6.976,0.093,13.279,1.02,18.912,2.782c5.632,1.762,10.115,3.801,13.449,6.12c3.334,2.318,5.041,4.358,5.121,6.12
		c-0.026,1.158-0.13,2.073-0.312,2.746l2.158,1.453l15.085-26.468l-2.178-0.969c-0.327,0.498-0.8,0.915-1.419,1.252
		c-0.618,0.336-1.286,0.511-2.002,0.525c-0.603-0.044-2.274-0.683-5.016-1.918c-2.741-1.235-6.201-2.803-10.381-4.704
		c-4.479-1.522-9.612-2.882-15.401-4.08s-11.9-1.83-18.334-1.896c-11.038-0.032-21.798,2.076-32.279,6.325
		c-0.248,0.101-0.496,0.203-0.742,0.306l-22.497,40.688l-8.521-5.917l0.745-2.919c0.051-0.196,0.084-0.364,0.112-0.565
		c0.001-0.005,0.002-0.009,0.002-0.013c0.034-0.23,0.057-0.425,0.077-0.657c0.034-0.398,0.054-0.735,0.065-1.134
		c-0.005-0.02-0.011-0.036-0.019-0.055c-0.005-0.009-0.008-0.018-0.012-0.027c-0.093-0.216-0.188-0.39-0.317-0.582
		c-0.003-0.004-0.005-0.007-0.008-0.011c-0.102-0.152-0.214-0.305-0.335-0.458c-3.366,7.258-5.138,15.731-5.313,25.419
		C222.752,70.234,222.767,70.905,222.79,71.569L222.79,71.569z"/>
	<path fill-rule="evenodd" clip-rule="evenodd" d="M259.833,101.802v23.101c9.238,3.397,19.268,5.082,30.086,5.053
		c9.039-0.115,17.541-1.246,25.506-3.394s14.979-4.617,21.041-7.41s10.761-5.215,14.093-7.267v-2.26
		c-1.001-0.22-1.72-0.63-2.157-1.233c-0.438-0.603-0.651-1.539-0.642-2.809V73.76c0.025-1.748,0.324-3.012,0.894-3.792
		c0.57-0.78,1.258-1.237,2.061-1.372v-2.259H298.93c-1.569-0.02-2.788-0.384-3.657-1.091c-0.868-0.707-1.31-1.636-1.322-2.788
		h-2.158v28.412h2.158c0.013-1.152,0.454-2.081,1.322-2.789c0.869-0.707,2.088-1.071,3.657-1.091h26.765v13.417
		c-2.309,1.994-6.405,4.189-12.29,6.588c-5.885,2.397-13.712,3.704-23.479,3.92c-8.101,0.011-15.549-1.502-22.347-4.537
		C264.77,105.125,262.188,103.599,259.833,101.802L259.833,101.802z"/>
	<path fill-rule="evenodd" clip-rule="evenodd" d="M16.876,195.398h-2.757v-1.723c-0.246,0.164-0.577,0.394-0.995,0.688
		c-0.417,0.295-0.823,0.528-1.216,0.702c-0.462,0.223-0.993,0.408-1.592,0.558s-1.302,0.225-2.108,0.225
		c-1.484,0-2.743-0.482-3.774-1.448c-1.032-0.965-1.548-2.196-1.548-3.692c0-1.226,0.268-2.218,0.803-2.976s1.3-1.354,2.292-1.788
		c1.002-0.434,2.207-0.729,3.612-0.883c1.405-0.154,2.914-0.271,4.526-0.348v-0.42c0-0.618-0.11-1.129-0.332-1.535
		c-0.221-0.405-0.538-0.724-0.951-0.955c-0.394-0.222-0.865-0.372-1.416-0.449s-1.125-0.115-1.725-0.115
		c-0.727,0-1.538,0.094-2.433,0.282c-0.895,0.188-1.818,0.461-2.771,0.817H4.344v-2.765c0.541-0.146,1.322-0.305,2.344-0.479
		c1.022-0.174,2.029-0.261,3.022-0.261c1.16,0,2.17,0.095,3.03,0.282c0.86,0.188,1.604,0.51,2.234,0.963
		c0.619,0.444,1.091,1.019,1.415,1.724c0.325,0.704,0.487,1.578,0.487,2.62V195.398L16.876,195.398z M14.119,191.417v-4.503
		c-0.845,0.048-1.84,0.12-2.985,0.217s-2.052,0.236-2.72,0.42c-0.796,0.222-1.44,0.567-1.931,1.035
		c-0.492,0.469-0.737,1.112-0.737,1.934c0,0.926,0.285,1.624,0.855,2.092c0.57,0.468,1.44,0.702,2.61,0.702
		c0.973,0,1.862-0.186,2.668-0.558C12.684,192.385,13.431,191.938,14.119,191.417L14.119,191.417z"/>
	<path fill-rule="evenodd" clip-rule="evenodd" d="M62.143,195.398h-2.771v-1.795c-0.934,0.724-1.828,1.278-2.684,1.665
		c-0.855,0.386-1.798,0.579-2.831,0.579c-1.73,0-3.077-0.519-4.04-1.557c-0.963-1.038-1.445-2.561-1.445-4.568v-10.497h2.771v9.209
		c0,0.82,0.04,1.522,0.118,2.106s0.246,1.083,0.501,1.498c0.266,0.425,0.61,0.734,1.032,0.927c0.423,0.193,1.037,0.29,1.843,0.29
		c0.718,0,1.501-0.184,2.352-0.551c0.85-0.366,1.644-0.835,2.381-1.404v-12.075h2.771V195.398L62.143,195.398z"/>
	<path fill-rule="evenodd" clip-rule="evenodd" d="M105.641,190.736c0,1.477-0.622,2.688-1.865,3.635
		c-1.244,0.945-2.941,1.419-5.094,1.419c-1.219,0-2.337-0.143-3.354-0.428c-1.017-0.284-1.87-0.596-2.558-0.934v-3.056h0.147
		c0.875,0.647,1.848,1.161,2.919,1.542c1.071,0.382,2.099,0.572,3.082,0.572c1.219,0,2.172-0.193,2.86-0.579
		s1.032-0.994,1.032-1.824c0-0.638-0.187-1.12-0.56-1.448c-0.374-0.328-1.091-0.608-2.153-0.84
		c-0.393-0.087-0.907-0.188-1.541-0.304c-0.634-0.116-1.211-0.241-1.732-0.377c-1.445-0.376-2.469-0.929-3.074-1.657
		c-0.604-0.729-0.907-1.624-0.907-2.687c0-0.666,0.14-1.293,0.42-1.882c0.28-0.589,0.705-1.115,1.275-1.578
		c0.55-0.454,1.251-0.813,2.101-1.079s1.801-0.398,2.853-0.398c0.983,0,1.978,0.118,2.986,0.355
		c1.007,0.236,1.845,0.523,2.514,0.861v2.91h-0.147c-0.708-0.512-1.568-0.943-2.58-1.296c-1.013-0.353-2.005-0.528-2.979-0.528
		c-1.012,0-1.867,0.19-2.565,0.571c-0.698,0.382-1.047,0.949-1.047,1.702c0,0.666,0.211,1.168,0.634,1.506
		c0.413,0.338,1.082,0.612,2.005,0.825c0.511,0.115,1.083,0.231,1.717,0.348c0.634,0.115,1.163,0.222,1.585,0.318
		c1.288,0.289,2.28,0.786,2.978,1.491C105.292,188.612,105.641,189.559,105.641,190.736L105.641,190.736z"/>
	<path fill-rule="evenodd" clip-rule="evenodd" d="M147.809,195.254c-0.521,0.135-1.089,0.246-1.703,0.333s-1.162,0.13-1.644,0.13
		c-1.681,0-2.958-0.443-3.833-1.332c-0.875-0.888-1.312-2.312-1.312-4.271v-8.601h-1.873v-2.287h1.873v-4.648h2.771v4.648h5.721
		v2.287h-5.721v7.37c0,0.85,0.02,1.514,0.059,1.991c0.04,0.478,0.177,0.924,0.413,1.339c0.216,0.387,0.513,0.669,0.892,0.848
		s0.956,0.268,1.732,0.268c0.452,0,0.924-0.065,1.416-0.195c0.491-0.131,0.845-0.239,1.062-0.326h0.147V195.254L147.809,195.254z"/>
	<path fill-rule="evenodd" clip-rule="evenodd" d="M191.082,182.193h-0.147c-0.413-0.097-0.813-0.166-1.202-0.21
		c-0.388-0.043-0.848-0.065-1.378-0.065c-0.855,0-1.681,0.187-2.477,0.558c-0.797,0.372-1.563,0.853-2.3,1.441v11.481h-2.772
		v-16.173h2.772v2.389c1.101-0.868,2.071-1.484,2.911-1.846c0.841-0.362,1.698-0.543,2.573-0.543c0.481,0,0.83,0.012,1.046,0.036
		c0.217,0.023,0.541,0.069,0.974,0.138V182.193L191.082,182.193z"/>
	<path fill-rule="evenodd" clip-rule="evenodd" d="M234.062,195.398h-2.757v-1.723c-0.246,0.164-0.577,0.394-0.995,0.688
		c-0.418,0.295-0.823,0.528-1.217,0.702c-0.462,0.223-0.992,0.408-1.592,0.558s-1.303,0.225-2.108,0.225
		c-1.484,0-2.742-0.482-3.774-1.448c-1.032-0.965-1.548-2.196-1.548-3.692c0-1.226,0.268-2.218,0.804-2.976
		c0.535-0.758,1.3-1.354,2.292-1.788c1.003-0.434,2.207-0.729,3.612-0.883s2.914-0.271,4.526-0.348v-0.42
		c0-0.618-0.11-1.129-0.332-1.535c-0.221-0.405-0.538-0.724-0.951-0.955c-0.393-0.222-0.864-0.372-1.415-0.449
		s-1.125-0.115-1.725-0.115c-0.728,0-1.538,0.094-2.433,0.282c-0.895,0.188-1.818,0.461-2.772,0.817h-0.146v-2.765
		c0.54-0.146,1.321-0.305,2.344-0.479s2.029-0.261,3.022-0.261c1.159,0,2.17,0.095,3.029,0.282c0.86,0.188,1.604,0.51,2.233,0.963
		c0.62,0.444,1.092,1.019,1.416,1.724c0.324,0.704,0.486,1.578,0.486,2.62V195.398L234.062,195.398z M231.305,191.417v-4.503
		c-0.846,0.048-1.841,0.12-2.985,0.217c-1.146,0.097-2.052,0.236-2.721,0.42c-0.796,0.222-1.439,0.567-1.931,1.035
		c-0.492,0.469-0.737,1.112-0.737,1.934c0,0.926,0.285,1.624,0.854,2.092c0.57,0.468,1.44,0.702,2.61,0.702
		c0.973,0,1.862-0.186,2.668-0.558C229.87,192.385,230.617,191.938,231.305,191.417L231.305,191.417z"/>
	<polygon fill-rule="evenodd" clip-rule="evenodd" points="269.091,195.398 266.32,195.398 266.32,172.869 269.091,172.869 
		269.091,195.398 	"/>
	<path fill-rule="evenodd" clip-rule="evenodd" d="M305.365,176.518h-3.125v-2.823h3.125V176.518L305.365,176.518z M305.188,195.398
		h-2.771v-16.173h2.771V195.398L305.188,195.398z"/>
	<path fill-rule="evenodd" clip-rule="evenodd" d="M351.281,195.398h-2.758v-1.723c-0.245,0.164-0.577,0.394-0.995,0.688
		c-0.417,0.295-0.823,0.528-1.216,0.702c-0.462,0.223-0.993,0.408-1.593,0.558s-1.302,0.225-2.108,0.225
		c-1.483,0-2.742-0.482-3.773-1.448c-1.032-0.965-1.549-2.196-1.549-3.692c0-1.226,0.269-2.218,0.804-2.976
		c0.536-0.758,1.3-1.354,2.293-1.788c1.002-0.434,2.206-0.729,3.612-0.883c1.405-0.154,2.914-0.271,4.525-0.348v-0.42
		c0-0.618-0.11-1.129-0.331-1.535c-0.222-0.405-0.538-0.724-0.951-0.955c-0.394-0.222-0.865-0.372-1.415-0.449
		c-0.551-0.077-1.126-0.115-1.726-0.115c-0.727,0-1.538,0.094-2.433,0.282c-0.895,0.188-1.818,0.461-2.771,0.817h-0.147v-2.765
		c0.541-0.146,1.322-0.305,2.345-0.479c1.021-0.174,2.029-0.261,3.021-0.261c1.16,0,2.17,0.095,3.03,0.282
		c0.86,0.188,1.604,0.51,2.233,0.963c0.619,0.444,1.091,1.019,1.415,1.724c0.325,0.704,0.487,1.578,0.487,2.62V195.398
		L351.281,195.398z M348.523,191.417v-4.503c-0.845,0.048-1.84,0.12-2.985,0.217c-1.145,0.097-2.052,0.236-2.72,0.42
		c-0.796,0.222-1.44,0.567-1.932,1.035c-0.491,0.469-0.737,1.112-0.737,1.934c0,0.926,0.285,1.624,0.855,2.092
		s1.439,0.702,2.609,0.702c0.974,0,1.862-0.186,2.669-0.558C347.088,192.385,347.835,191.938,348.523,191.417L348.523,191.417z"/>
</g>
</svg>
