<?xml version="1.0" encoding="utf-8"?>
<!-- Generator: Adobe Illustrator 16.0.0, SVG Export Plug-In . SVG Version: 6.00 Build 0)  -->
<!DOCTYPE svg PUBLIC "-//W3C//DTD SVG 1.1//EN" "http://www.w3.org/Graphics/SVG/1.1/DTD/svg11.dtd">
<svg version="1.1" id="Layer_1" xmlns="http://www.w3.org/2000/svg" xmlns:xlink="http://www.w3.org/1999/xlink" x="0px" y="0px"
	 width="175.748px" height="98.307px" viewBox="0 0 175.748 98.307" enable-background="new 0 0 175.748 98.307"
	 xml:space="preserve">
<g>
	<polygon fill="#1D1D1B" points="169.536,79.467 169.536,77.28 168.487,77.28 168.487,76.701 171.37,76.701 171.37,77.28 
		170.319,77.28 170.319,79.467 169.536,79.467 	"/>
	<polygon fill="#1D1D1B" points="171.735,79.467 171.735,76.701 172.935,76.701 173.788,78.772 174.67,76.701 175.748,76.701 
		175.748,79.467 175.084,79.467 175.084,77.253 174.158,79.467 173.327,79.467 172.412,77.253 172.412,79.467 171.735,79.467 	"/>
	<path fill="#1D1D1B" d="M55.991,49.154c6.82-4.062,15.909-6.544,25.894-6.544c9.985,0,19.074,2.482,25.894,6.544
		c-6.819,4.062-15.908,6.544-25.894,6.544C71.9,55.698,62.811,53.215,55.991,49.154L55.991,49.154z M134.144,49.154
		c17.561-7.806,28.945-19.464,29.626-32.558C152.552,9.268,137.54,3.488,120.216,0v30.957h-0.007
		c-0.038,4.33-1.783,8.396-4.813,11.934c-10.229-2.461-21.57-3.831-33.511-3.831c-11.94,0-23.281,1.37-33.51,3.831
		c-3.03-3.538-4.776-7.604-4.814-11.934h-0.007V0C26.228,3.488,11.218,9.269,0,16.596c0.681,13.093,12.065,24.751,29.627,32.558
		C12.065,56.958,0.681,68.618,0,81.712c11.218,7.327,26.229,13.106,43.554,16.595V67.35h0.006c0.039-4.329,1.784-8.395,4.814-11.933
		c10.229,2.46,21.57,3.831,33.51,3.831c11.94,0,23.281-1.371,33.511-3.831c3.03,3.538,4.775,7.604,4.813,11.933h0.008v30.957
		c17.325-3.488,32.335-9.269,43.553-16.595C163.089,68.618,151.704,56.958,134.144,49.154L134.144,49.154z"/>
</g>
</svg>
