<?xml version="1.0" encoding="utf-8"?>
<!-- Generator: Adobe Illustrator 16.0.0, SVG Export Plug-In . SVG Version: 6.00 Build 0)  -->
<!DOCTYPE svg PUBLIC "-//W3C//DTD SVG 1.1//EN" "http://www.w3.org/Graphics/SVG/1.1/DTD/svg11.dtd">
<svg version="1.1" id="Layer_1" xmlns="http://www.w3.org/2000/svg" xmlns:xlink="http://www.w3.org/1999/xlink" x="0px" y="0px"
	 width="345.461px" height="147.702px" viewBox="0 0 345.461 147.702" enable-background="new 0 0 345.461 147.702"
	 xml:space="preserve">
<g>
	<g>
		<g>
			<g>
				<path fill="#EB2227" d="M345.286,61.554c-1.99-5.275-6.648-8.504-11.338-10.694c-27.626-8.905-53.617-21.704-79.337-34.501
					c-13.005-6.012-26.831-9.686-41.198-12.573c-37.893-7.771-77.044-2.986-111.098,8.97c-31.941,11.738-60.905,32.179-96.608,34.4
					L3.04,49.463c-1.384,4.175-4.097,8.853-2.605,13.595l23.581,43.176c2.05,2.931,3.013,7.398,7.194,8.264l18.082,0.598
					c5.752,1.153,12.856-0.283,17.491,4.002c3.829,5.836-2.872,13.839,3.054,19.193c7.226,6.688,16.615,9.226,26.843,9.412
					c8.935-0.625,18.647-1.75,23.776-9.271c2.419-3.618,0.716-10.733,6.754-11.41l18.046,2.951
					c34.291,3.78,71.005,2.886,103.405-4.373c2.098-0.235,5.254-0.436,6.526,1.683c1.748,4.506,4.005,9.783,9.22,11.443
					c15.945,2.926,30.724-2.303,42.451-12.322c6.663-5.908,8.404-15.055,7.521-23.985c2.162-3.627,6.645-4.864,9.835-7.681
					C334.085,86.006,347.125,76.011,345.286,61.554z M329.716,53.139c-1.391,3.911-2.242,8.084-4.675,11.193l-4.685-1.664
					c0.864-3.916,2.515-7.813,4.666-11.454L329.716,53.139z M316.679,48.969c2.081,0.304,4.188,0.86,5.471,1.679l-4.4,11.193
					c-2.104-0.303-3.655-0.86-5.196-2.203C313.668,55.989,314.781,52.075,316.679,48.969z M309.284,51.72l0.492,1.578
					c0.929,6.832,0.537,13.639,1.729,20.226c2.622,0.044,4.493-2.015,6.857-2.758c1.274,2.121,1.492,5.271,1.438,7.891
					c-5.563,3.052-11.139,6.881-17.21,9.39c-1.109-11.306-1.405-23.635-1.974-35.441C303.263,51.861,306.405,51.665,309.284,51.72z
					 M291.955,52.966l0.495,1.844c0.586,9.977,0.424,19.159,2.079,28.884c1.564,0.569,3.16-0.983,5.011-1.479
					c1.011,2.377,0.688,5,0.652,7.352c-4.778,3.059-9.801,5.33-14.812,7.067c-1.333-13.388-1.826-28.874-2.098-42.774
					C285.919,53.12,289.077,52.915,291.955,52.966z M259.647,55.784c2.921-1.526,7.104-0.923,10.771-1.385
					c5.532-1.466,3.578,5.576,5.356,8.242c2.415,11.576,5.35,23.168,7.486,35c-2.656,1.539-5.291,2.785-8.449,3.005
					c-0.743-1.847-0.96-4.219-1.979-6.074c-1.835-0.812-3.946,0.72-5.788,0.937c-1.885,2.324-0.903,6.025-1.731,8.887
					c-3.182,0.994-6.081,2.515-9.232,2.715l-0.243-1.314L259.647,55.784z M228.146,57.559c2.649-1.264,6.312-0.408,9.199-0.882
					l1.25,2.907c1.186,7.364,2.612,14.739,4.323,22.112c1.049-0.243,0.81-1.564,0.831-2.604l1.422-20.694
					c-0.505-0.539,0.289-1.573,0.303-2.096c2.637-0.731,5.788-0.68,8.659-0.625c-0.33,18.086-1.432,35.635-2.798,52.926
					c-3.686,1.232-7.388,2.482-11.062,2.937c-2.245-6.333-3.189-12.641-4.646-18.97c-1.055-0.016-0.811,1.301-0.818,2.346
					l-1.914,18.324c-3.443,1.508-7.641,1.167-11.317,1.887l-1.012-2.37l-11.324-53.712l0.798-0.512l9.971-0.604l1.023,1.329
					c0.889,9.198,2.556,18.142,4.221,27.089C227.014,76.94,227.183,67.503,228.146,57.559z M217.101,30.864
					c-3.113-1.101-7.004-3.803-10.447-1.499c-1.083,1.032-1.896,2.59-0.865,3.657c5.183,3.506,14.145,0.781,16.625,8.438
					c1.258,3.171,0.656,7.353-1.755,9.67c-4.011,4.385-10.062,5.587-16.071,4.156c-2.606-0.828-5.75-1.418-8.064-3.297
					c0.83-2.604,2.174-4.422,3.779-6.221c3.146,0.59,6.246,2.738,10.186,2.023c1.582,0.027,3.177-0.732,3.719-2.289
					c0.112-5.768-7.014-3.014-10.666-4.395c-3.401-0.592-6.222-3.521-7.217-6.689c-0.721-3.422-0.142-6.828,2.262-9.141
					c5.854-4.607,15.565-4.434,21.772-0.379C220.579,26.997,218.704,29.325,217.101,30.864z M161.252,115.589l-0.786,0.246
					l-8.901-0.946l-0.73-2.634l-2.524-48.044l0.284-1.563c2.636-0.477,5.775-0.164,8.674-0.63
					c1.422,7.636,1.286,15.229,2.187,23.106c1.814,1.621,4.984,0.373,7.333,0.413l0.547-0.783l-1.151-22.835
					c2.631-1.002,6.056-1.19,9.2-1.13l0.49,1.306l3.468,54.083c0.26,0.529-0.285,1.052-0.8,1.04
					c-3.146-0.317-6.575,0.664-8.907-1.215l-1.463-19.953c-2.337-1.094-5.246,0.158-7.608,0.121l-0.533,0.783L161.252,115.589z
					 M139.803,113.087l-0.282,0.791l-8.371-1.208c-1.327-13.126-2.136-26.266-3.463-39.396l-0.511-0.795l-7.606,0.121
					c0.046-2.623-1.213-5.795,0.146-8.126c8.142-0.634,16.806-0.998,24.939-1.378l0.773,0.802l0.127,7.081
					c-2.36,0.485-4.993,0.697-7.609,0.646l-0.807,1.03L139.803,113.087z M144.568,53.394l-0.866,4.705
					c-2.635,0.482-5.784,0.679-8.135,0.381c2.027-10.457,4.307-20.383,6.85-30.301c3.694-1.238,8.67-1.149,12.611-1.072l3.006,7.657
					l6.938,21.627c-2.379,1.005-5.258,0.427-8.145,0.897c-1.28-1.854-0.689-5.516-3.835-5.571
					C150.104,51.913,146.449,51.064,144.568,53.394z M175.716,42.688c-0.52-0.27-0.532,0.26-0.802,0.512l0.556,12.34
					c-2.115,1.268-4.984,0.429-7.613,0.911l-0.503-1.59c-0.615-8.923-1.477-18.901-1.303-28.079
					c2.629-0.741,5.779-0.943,8.658-1.148l1.047,0.543l7.649,11.941l1.061-0.245c-0.472-3.424-0.121-8.13-0.569-12.338
					c2.376-1.005,5.786-0.685,8.409-0.636c0.859,9.985,1.461,19.967,1.812,29.668c-3.172,0.993-6.823,0.406-9.969,0.6
					C181.075,50.922,179.044,46.95,175.716,42.688z M201.109,59.155l0.789,0.279c0.469,2.378,0.415,4.984,0.382,7.348l-9.467,1.4
					l-0.808,1.033l1.312,14.193c2.34,1.094,5.5,0.1,7.857,0.657c0.461,2.897,0.945,6.049,0.615,8.655
					c-2.121,1.291-4.724,0.449-7.096,1.191l-0.541,0.777l0.792,13.658l1.296,1.062l8.923,0.166c1.019,2.121,0.97,4.738,0.921,7.098
					c-6.318,1.197-13.402,1.067-20.223,1.197l-0.48-1.836l-3.559-49.632l-0.146-5.769C187.991,59.446,194.542,59.561,201.109,59.155
					z M112.479,16.358c4.01,10.032,6.171,20.815,9.656,30.848l1.327-0.76l5.805-30.572l0.811-1.035l81.906-5.04
					c2.626,0.571,7.392-2.222,7.316,1.97c-0.57,1.825,1.206,4.744-1.16,5.744l-72.201,4.436l-7.607,0.65l-1.082,1.547l-6.674,34.76
					l-1.318,0.499l-12.08,0.564l-1.532-2.128c-4.205-13.709-8.94-27.168-13.14-40.883C105.653,16.489,109.341,16.027,112.479,16.358
					z M109.736,65.603l0.246,0.793l0.139,6.55c-2.896,0.741-5.784,0.688-8.933,1.151c-1.35,1.805-0.084,4.189-0.122,6.56
					c2.326,1.345,4.711-0.175,7.595,0.394c0.751,2.109,0.428,5.256,0.64,7.886c-2.371,0.731-4.993,0.432-7.628,1.163
					c-0.89,5.758,0.589,11.028,0.221,16.531c-2.889,0.203-6.275-0.914-9.153-1.229c-1.339-12.864-2.423-25.214-2.697-38.592
					C96.616,65.882,102.919,65.216,109.736,65.603z M67.463,68.231c6.051-0.945,12.611-1.081,18.908-1.486l0.514,1.051l0.667,6.314
					c-0.279,0.514-0.806,0.763-1.599,1.025l-7.611,0.633c-1.081,1.555-0.337,3.925-0.1,5.769c1.8,1.61,4.965,0.615,7.325,0.662
					l0.766,0.809l0.387,7.343c-2.119,1.531-5.771,0.149-7.891,1.684c-0.595,3.659,0.387,7.355,0.054,11.286
					c-2.888-0.052-6.283-0.644-9.161-1.22l-0.766-1.072L67.19,68.747L67.463,68.231z M54.361,67.991
					c3.126,0.838,5.987,2.474,7.776,4.865c4.33,6.891,4.414,16.336,1.395,23.615c-2.167,3.893-6.13,5.655-10.338,6.111
					c-4.722,0.174-8.876-2.266-11.157-6.506c-3.027-6.607-3.889-16.33-0.101-22.812C44.896,69.386,49.413,66.058,54.361,67.991z
					 M35.3,63.171c2.312,2.936,2.77,6.611,4.807,9.803c-1.076,1.552-3.449,2.023-5.025,2.787c-1.533-2.911-3.823-6.363-4.806-10.053
					C31.353,64.419,33.203,63.409,35.3,63.171z M27.664,79.026c-1.502-3.431-3.805-6.354-4.792-10.056
					c1.598-1.282,3.443-1.763,5.279-1.993c1.782,3.18,3.546,6.625,4.536,10.049C31.101,78.043,29.233,79.589,27.664,79.026z
					 M103.609,142.062c-8.439,1.935-19.18,1.475-24.824-5.189c-0.487-2.091,0.848-3.394,2.445-4.408
					c8.166-2.209,17.576-0.463,24.043,4.119l1.018,1.588C106.265,140.017,104.925,141.296,103.609,142.062z M116.545,136.793
					c-0.274,0.776-0.817,1.55-1.61,1.802l-1.561-0.293c-9.493-11.182-26.512-12.8-40.221-8.865
					c-1.303-0.289-1.282-1.608-1.261-2.646c0.03-2.103,1.391-4.175,3.505-5.191c14.456-2.079,29.623,0.035,40.468,9.41
					C117.677,132.099,116.844,134.954,116.545,136.793z M299.523,125.741c-5.078,5.939-11.442,8.973-19.038,9.096
					c-1.324-0.547-2.886-0.575-3.635-2.168c-0.459-3.419,2.203-5.471,4.333-7.528c4.538-3.853,10.335-5.83,16.604-4.667l1.549,1.059
					C300.377,122.62,300.081,124.185,299.523,125.741z M307.017,117.763c-0.816,1.289-2.639,0.732-3.678,0.459
					c-9.377-3.596-19.937,0.404-27.137,7.089c-4.232,1.501-5.741,12.749-11.659,6.333c-1.284-1.053-1-2.891-0.445-4.197
					c9.348-9.781,20.747-16.395,33.877-16.939c3.409,0.321,7.616-0.641,9.398,2.533
					C307.602,114.616,308.094,116.724,307.017,117.763z M340.917,71.71c-9.172,13.461-25.582,21.55-39.348,29.162
					c-40.005,21.82-86.594,31.176-135.302,27.395c-32.757-1.39-62.472-11.114-94.934-14.077l-36.385-3.3
					c-0.506-0.525-1.561-0.549-1.286-1.588c0.554-1.571,0.586-3.408,2.176-4.158c14.426,0.27,27.757,2.358,41.355,4.172
					l63.291,9.039c43.687,6.049,89.886,3.492,128.688-10.736c25.598-8.447,48.935-22.951,71.033-39.866
					C341.494,68.567,341.19,70.402,340.917,71.71z"/>
				<path fill="#EB2227" d="M53.617,93.931c4.007-4.121,1.24-10.459,0.81-15.457c-0.76-1.58-3.616-2.941-4.957-1.142
					c-1.663,4.438-0.978,10.205,0.247,14.694C50.215,93.606,52.038,94.167,53.617,93.931z"/>
				<path fill="#EB2227" d="M270.932,84.575c-0.459-4.465-1.416-9.211-2.646-13.422c-0.877,4.442-1.224,9.414-1.048,13.873
					C268.533,85.575,269.849,85.335,270.932,84.575z"/>
				<path fill="#EB2227" d="M147.106,43.997c1.295,0.818,2.878,0.318,4.197-0.178c-0.476-2.368-1.484-4.752-2.76-6.876
					C147.46,39.029,147.675,41.647,147.106,43.997z"/>
			</g>
		</g>
		<g>
			<path fill="#EB2227" d="M329.642,107.378c-0.906,0.865-1.979,1.312-3.223,1.304c-1.312-0.012-2.406-0.46-3.292-1.348
				c-0.874-0.881-1.316-1.981-1.333-3.266c0-1.356,0.492-2.468,1.44-3.356c0.909-0.852,1.959-1.254,3.188-1.266
				c1.263,0,2.359,0.438,3.243,1.342c0.9,0.922,1.354,2.003,1.354,3.28C331.028,105.369,330.565,106.49,329.642,107.378z
				 M323.717,101.418c-0.737,0.739-1.104,1.622-1.104,2.662c0,1.049,0.378,1.956,1.126,2.711c0.742,0.731,1.628,1.103,2.68,1.091
				c1.037,0.023,1.945-0.368,2.688-1.114c0.729-0.741,1.103-1.647,1.103-2.685c0-1.043-0.373-1.926-1.107-2.66
				c-0.762-0.776-1.646-1.146-2.684-1.146C325.367,100.276,324.467,100.646,323.717,101.418z M324.378,106.628v-5.1
				c0.311-0.02,0.787,0,1.427,0c0.629,0.006,0.985,0,1.039,0c0.425,0.027,0.755,0.113,1.017,0.277
				c0.459,0.24,0.678,0.65,0.678,1.205c0,0.431-0.121,0.738-0.352,0.916c-0.238,0.197-0.523,0.305-0.88,0.338
				c0.324,0.064,0.563,0.177,0.729,0.307c0.306,0.248,0.475,0.639,0.463,1.159l0.012,0.448c-0.012,0.055,0.006,0.1-0.012,0.16
				c0,0.037,0.018,0.096,0.018,0.135l0.042,0.168l-1.258-0.025c-0.042-0.143-0.079-0.383-0.091-0.699
				c-0.005-0.303-0.038-0.504-0.087-0.623c-0.07-0.186-0.196-0.31-0.379-0.384c-0.102-0.032-0.25-0.065-0.471-0.077h-0.281
				l-0.294-0.014v1.815L324.378,106.628z M326.817,102.511c-0.188-0.081-0.455-0.113-0.795-0.113h-0.325v1.494h0.525
				c0.32,0.014,0.567-0.052,0.741-0.166c0.174-0.148,0.269-0.359,0.269-0.637C327.235,102.808,327.096,102.609,326.817,102.511z"/>
		</g>
	</g>
</g>
</svg>
