<?xml version="1.0" encoding="utf-8"?>
<!-- Generator: Adobe Illustrator 16.0.0, SVG Export Plug-In . SVG Version: 6.00 Build 0)  -->
<!DOCTYPE svg PUBLIC "-//W3C//DTD SVG 1.1//EN" "http://www.w3.org/Graphics/SVG/1.1/DTD/svg11.dtd">
<svg version="1.1" id="Layer_1" xmlns="http://www.w3.org/2000/svg" xmlns:xlink="http://www.w3.org/1999/xlink" x="0px" y="0px"
	 width="382.889px" height="141.817px" viewBox="0 0 382.889 141.817" enable-background="new 0 0 382.889 141.817"
	 xml:space="preserve">
<g>
	<path fill="#E21118" d="M374.033,8.229c-2.66,6.156,2.511,15.9-4.95,17.816L137.48,25.287l-24.582,0.503l-3.475,5.229
		L80.441,139.285l-4.022,1.797l-39.117-0.679l-3.683-7.503C22.727,88.752,10.48,45.344,0,1.258
		c10.022-1.302,21.702-2.042,31.876,0.066c10.609,32.252,15.433,66.57,24.682,99.951l1.207,0.967l2.861-3.18L85.574,2.756
		l2.79-2.303l263.049,0.423C358.949,3.189,374.682-4.413,374.033,8.229"/>
	<path fill="#E21118" d="M374.153,52.521c0.676,6.718-6.57,12.876-11.867,16.805c-9.874-3.874-22.067-11.841-34.21-6.073
		c-3.783,2.496-6.46,7.002-3.69,10.718c16.817,11.088,46.812,5.046,53.14,27.514c3.119,9.683,0.622,22.052-8.079,28.906
		c-14.011,11.521-34.335,13.955-53.914,8.985c-8.603-3.368-18.209-5.644-25.646-11.712c2.863-6.872,7.893-12.764,13.296-17.896
		c10.929,2.38,20.439,10.19,33.943,8.793c4.452-0.065,10.069-2.771,12.27-6.979c1.59-16.752-22.674-10.282-33.84-15.047
		c-11.363-2.396-20.337-10.934-22.567-20.505c-2.193-10.006,0.952-19.607,9.61-26.043C322.909,37.76,354.844,39.684,374.153,52.521"
		/>
	<path fill="#E21118" d="M284.863,44.585c0.786,31.003,0.651,63.221-0.242,94.06c-10.155,2.588-21.576,0.355-32.333,0.332
		c-8.68-14.254-13.995-27.867-23.958-42.234c-1.269-0.523-1.829,1.129-2.71,1.461l-0.819,39.82
		c-6.786,3.658-16.372,0.341-24.233,1.806l-1.726-5.251c0.315-29.204-0.851-61.109,1.552-89.721
		c8.786-1.82,18.693-1.861,28.555-1.483l2.857,1.93l22.09,39.103l3.067-0.578c-0.756-11.53,1.786-26.119,1.143-38.916
		C265.706,41.726,276.762,43.474,284.863,44.585"/>
	<path fill="#E21118" d="M150.059,95.383c-0.669-7.69-3.893-15.119-7.164-21.778c-4.419,5.993-4.266,14.482-6.179,21.532
		C140.341,98.41,146.061,96.792,150.059,95.383 M173.485,68.071l17.707,70.573c-7.563,2.744-17.306,0.681-25.917,0.804
		c-4.252-5.853-1.575-17.067-11.363-18.31c-9.098,0.545-20.883-2.962-27.057,4.144l-4.238,14.465
		c-8.262,1.044-18.188,1.096-25.762-0.842c8.291-31.948,17.86-63.362,27.825-94.771c12.297-2.387,28.146-1.49,40.888-0.019
		L173.485,68.071z"/>
	<path fill="#E21118" d="M378.428,33.508c-0.195-0.077-0.484-0.121-0.848-0.121h-0.343v1.566h0.557
		c0.337,0.017,0.599-0.055,0.791-0.172c0.189-0.156,0.284-0.375,0.284-0.659C378.877,33.82,378.718,33.619,378.428,33.508
		 M375.839,37.807v-5.321c0.337-0.02,0.837,0,1.512,0c0.669,0.011,1.042,0,1.105,0c0.451,0.032,0.803,0.122,1.076,0.28
		c0.487,0.255,0.727,0.691,0.727,1.262c0,0.456-0.128,0.769-0.38,0.959c-0.245,0.209-0.557,0.323-0.931,0.353
		c0.345,0.075,0.596,0.182,0.771,0.319c0.322,0.26,0.505,0.675,0.501,1.219l0.004,0.464c-0.004,0.052,0.012,0.104-0.004,0.163
		c0,0.049,0.016,0.107,0.016,0.149l0.04,0.174l-1.34-0.028c-0.042-0.15-0.079-0.407-0.092-0.741
		c-0.01-0.307-0.037-0.513-0.088-0.639c-0.077-0.199-0.215-0.332-0.399-0.405c-0.112-0.028-0.275-0.073-0.499-0.08h-0.316
		l-0.305-0.017v1.893L375.839,37.807z M375.143,32.371c-0.787,0.767-1.172,1.696-1.172,2.782c0,1.091,0.399,2.035,1.191,2.831
		c0.788,0.765,1.73,1.157,2.833,1.138c1.11,0.019,2.073-0.394,2.867-1.161c0.768-0.781,1.169-1.731,1.169-2.808
		c0-1.086-0.401-2.015-1.181-2.782c-0.809-0.812-1.745-1.199-2.855-1.199C376.893,31.172,375.931,31.559,375.143,32.371
		 M381.423,38.604c-0.96,0.897-2.101,1.361-3.428,1.35c-1.39-0.015-2.545-0.465-3.489-1.399c-0.924-0.926-1.385-2.069-1.408-3.422
		c0-1.412,0.521-2.573,1.534-3.496c0.963-0.885,2.071-1.317,3.373-1.33c1.343,0,2.513,0.467,3.438,1.4
		c0.964,0.965,1.446,2.096,1.446,3.426C382.894,36.506,382.407,37.664,381.423,38.604"/>
</g>
</svg>
