<svg version="1.1" id="Layer_1" xmlns="http://www.w3.org/2000/svg" xmlns:xlink="http://www.w3.org/1999/xlink" x="0px" y="0px"
	 width="67.034px" height="98.342px" viewBox="0 0 67.034 98.342" enable-background="new 0 0 67.034 98.342" xml:space="preserve">
<g>
	<path fill="#522D18" d="M15.042,6.744c0,0,3.364-4.533,13.872-6.388c0,0,14.938-1.957,20.193,3.297
		c0,0,6.592,5.563,11.331,14.835c0,0,5.563,10.508,5.563,18.132c0,0-2.301,0.652-0.893,2.06c0,0,0.582,0.583-0.413,1.58
		L64.56,54.82c0,0-3.331,2.987-0.618,5.7c0,0,6.318,7.554,0.893,15.041c0,0-0.824,2.404-6.18,7.006
		c-5.358,4.602-6.8,5.976-6.8,5.976s-5.358,3.296-4.944,4.944c0,0-2.13-0.344-3.709,1.236c0,0-2.61,4.189-6.113,3.503
		c0,0-3.709,0.755-7.624-1.58c0,0-1.167-1.167-1.923,1.03c0,0-1.924-0.275-4.876-3.229c0,0-1.168-1.785-6.112-1.51
		c0,0-1.236,0.068-1.924-0.619c0,0-5.975-6.043-7.143-7.897c0,0-2.953-3.503-4.395-3.503c0,0-0.756-0.962,0.824-2.541
		c0,0,0.411-1.236-0.345-1.991c0,0-0.479-0.481-1.167-1.169c0,0-0.48-0.48,0.893-1.854c0,0,0.275-2.953-1.099-7.692
		c0,0-1.579-10.44-1.167-14.629c0,0-0.824-3.983,1.441-7.211c0,0,0.652-2.919-0.755-4.327c0,0-0.894-1.648-1.718-1.648
		c0,0,1.648-2.542,1.648-4.327c0,0,0-1.305-1.579-2.197c0,0,2.403-1.237,2.987-2.988c0,0,0.446-2.644,0.446-4.224
		c0,0-0.274-2.678,2.198-5.15c0,0,3.09-3.022,2.747-5.77c0,0,1.717,1.237,3.503-2.747L15.042,6.744z"/>
	<path fill="#D0A660" d="M13.871,23.844c-0.505,0.716-0.918,1.478-1.018,2.397c-0.24,2.213,1.543,2.882,3.492,3.099
		c0,0,13.942-1.443,16.964-1.099c2.336-0.121,5.604-0.432,7.748-1.433c0.72-0.336,1.202-0.789,1.232-1.614
		c0.112-2.963-3.968-5.642-6.438-6.431c0,0-3.229-1.03-7.967-0.137c0,0-5.357,1.511-8.723-0.412c0,0-0.344,1.854-0.824,2.335
		c0,0-0.755,0.892-1.58-0.55c-0.452,0.512-0.912,1.051-1.269,1.635C15.014,22.409,14.394,23.103,13.871,23.844z"/>
	<path fill="#D0A660" d="M12.5,38.886l1.442,1.442c0,0,0.894,1.442,1.579,0c0.688-1.442,0-0.275,0-0.275s0.824-1.099,0-1.923
		l-2.06-2.678c0,0-0.515-0.515-1.03,0l-0.687,1.511C11.745,36.963,11.195,37.581,12.5,38.886z"/>
	<path fill="#D0A660" d="M19.506,36.757c0,0,1.991-2.541,3.914-3.365c0,0,3.744-1.89,6.182,0.55c0,0,5.562,6.043,6.525,7.624
		c0,0,1.099,0.754,0.411,1.442l-0.995,0.995c0,0-0.723,0.31-1.34-0.309l-0.617-1.442c0,0-1.065-0.79-1.855,0
		c0,0-0.344,1.511-1.512,1.923c0,0-0.617,0.481-0.273,0.824c0,0,0.411,2.198-1.786,3.434c0,0-2.61,1.1-4.12,0.756
		c0,0-3.916,0.206-5.564-1.443c0,0-1.51-1.648-0.687-5.014l0.069-2.541C17.857,40.191,18.612,37.65,19.506,36.757z"/>
	<path fill="#D0A660" d="M22.527,52.691c0,0-2.266-1.031,0-1.649l1.752-0.514c0,0,3.296-0.824,3.296,0.721
		c0,0,0.618,1.339-1.339,1.339C26.236,52.588,23.146,52.794,22.527,52.691z"/>
	<path fill="#522D18" d="M21.223,39.917c0,0-1.785-1.236,0-1.236h1.305c0,0,0.618-0.138,0.618,0.618c0,0,0.55,1.854,3.296,0.412
		l1.168-0.619l1.305-0.48h1.305l-0.411,1.099c0,0-1.647,1.717-3.228,1.717l-1.717,0.275
		C24.863,41.702,22.734,41.427,21.223,39.917z"/>
</g>
</svg>
