<?xml version="1.0" encoding="utf-8"?>
<!-- Generator: Adobe Illustrator 16.0.0, SVG Export Plug-In . SVG Version: 6.00 Build 0)  -->
<!DOCTYPE svg PUBLIC "-//W3C//DTD SVG 1.1//EN" "http://www.w3.org/Graphics/SVG/1.1/DTD/svg11.dtd">
<svg version="1.1" id="Capa_1" xmlns="http://www.w3.org/2000/svg" xmlns:xlink="http://www.w3.org/1999/xlink" x="0px" y="0px"
	 width="239.094px" height="251.838px" viewBox="0 0 239.094 251.838" enable-background="new 0 0 239.094 251.838"
	 xml:space="preserve">
<g>
	<path fill="#273872" d="M237.852,229.269c-4.275-10.688-6.413-37.624-6.413-37.624c-0.428-16.674-12.398-33.348-12.398-33.348
		c-8.123-5.559-5.985-24.37-5.985-24.37c6.84-28.645-5.131-38.906-5.131-38.906c-8.551-11.543-49.595-6.84-49.595-6.84
		c-31.21,0.855-38.906-11.116-38.906-11.116c-3.42-7.696-27.79-6.413-27.79-6.413c-9.406,0.428-10.261-4.703-10.261-4.703
		c0-7.269,3.848-8.124,3.848-8.124c24.797-9.833,49.595-28.218,49.595-28.218c8.123-7.268-1.282-11.116-1.282-11.116
		c1.71-12.826-2.993-11.544-2.993-11.544c-7.268-0.855-5.985,9.406-5.985,9.406c-0.428,5.13-5.131,3.848-5.131,3.848
		c1.283-5.13,1.283-11.543,1.283-11.543c2.138-10.261-3.848-8.551-3.848-8.551c-5.558-0.428-4.703,5.985-4.703,5.985
		c0,7.696-5.558,20.522-5.558,20.522c-2.993,10.261-6.84,0.428-6.84,0.428c-2.138-9.833-0.428-16.674-0.428-16.674
		c4.703-9.833-3.848-6.84-3.848-6.84c-9.406-1.283-4.275,36.768-4.275,36.768c-2.138,4.275-5.558,1.283-5.558,1.283
		c0.428-11.543-2.993-10.261-2.993-10.261c-5.558,0.427-3.42,18.384-3.42,18.384c-3.848,2.138-8.979,10.261-8.979,10.261
		c-6.413-4.275-23.515-0.427-23.515-0.427c-10.688,0.427-8.123-5.558-8.123-5.558c6.413-8.551,23.087-12.399,23.087-12.399
		c15.392-5.13,11.116-10.688,11.116-10.688c-0.766-3.063-4.792-3.637-9.002-3.34c-5.212-4.998-9.717-0.696-12.042,2.526
		c-7.748,2.5-5.463-1.324-5.463-1.324c4.275-7.696-1.71-7.268-1.71-7.268c-9.833,0-7.695,11.543-7.695,11.543
		c1.282,8.979-3.42,9.406-3.42,9.406c-6.413,1.283-8.979-7.695-8.979-7.695c-4.275-6.841-7.268-3.848-7.268-3.848
		c-3.42,3.848-0.428,7.268-0.428,7.268c4.703,5.986,0,7.269,0,7.269c-8.123,2.565-5.558-7.696-5.558-7.696
		c-1.71-2.138-3.42-1.71-3.42-1.71c-11.544,6.413-4.275,16.247-4.275,16.247c5.558,11.116,27.79,8.551,27.79,8.551
		s6.84,0,6.413,4.703c-0.428,4.703-5.558,4.275-5.558,4.275c-26.08-3.848-31.21,15.819-31.21,15.819
		c-3.848,12.399,4.703,11.116,4.703,11.116c8.123,3.848,17.102,0.427,17.102,0.427c3.848-3.42,6.84,1.71,6.84,1.71
		c8.408,13.539,24.37,12.398,24.37,12.398c1.424,6.556,11.686,15.962,11.686,15.962c2.281,8.551,16.247,25.082,16.247,25.082
		c12.542,12.256,8.835,36.485,8.835,36.485c-5.13,5.13-3.135,15.105-3.135,15.105l-1.425,22.232
		c0.855,13.967-10.261,17.102-10.261,17.102c-6.555,1.995-4.561,5.699-4.561,5.699c2.28,4.275,9.548,2.565,9.548,2.565
		c8.979-1.71,13.254-12.398,13.254-12.398c-1.283-10.688,2.993-37.196,2.993-37.196c3.848-8.978,3.848-27.362,3.848-27.362
		c-2.565-20.949,4.275-17.957,4.275-17.957c11.116-2.138,14.964,27.791,14.964,27.791c0,9.833,4.275,18.384,4.275,18.384
		c10.261,15.819,8.979,33.775,8.979,33.775c-8.979,7.696-6.413,10.688-6.413,10.688c6.413,3.421,13.253-5.558,13.253-5.558
		c6.841-3.848,2.139-11.544,2.139-11.544c-10.689-20.521-14.537-60.711-14.537-60.711c0-13.253,7.269-9.405,7.269-9.405
		c9.405,3.848,20.949-1.71,20.949-1.71c10.688-5.559,11.116,1.282,11.116,1.282c3.42,8.979,2.565,35.059,2.565,35.059
		c0.428,29.928-13.682,39.761-13.682,39.761c-12.398,9.406-7.695,11.544-7.695,11.544c14.108,3.42,20.094-13.254,20.094-13.254
		c7.696-12.826,11.972-41.044,11.972-41.044c5.985-5.558,3.848-10.261,3.848-10.261c-2.138-5.558-2.993-19.239-2.993-19.239
		c0.855-18.385,7.269-14.964,7.269-14.964c20.095,6.841,33.348,43.608,33.348,43.608c11.116,31.639,3.421,44.465,3.421,44.465
		c-7.696,2.565-4.703,7.695-4.703,7.695c4.703,2.565,10.261-1.282,10.261-1.282C243.41,235.682,237.852,229.269,237.852,229.269z"/>
</g>
</svg>
