<?xml version="1.0" encoding="utf-8"?>
<!-- Generator: Adobe Illustrator 16.0.0, SVG Export Plug-In . SVG Version: 6.00 Build 0)  -->
<!DOCTYPE svg PUBLIC "-//W3C//DTD SVG 1.1//EN" "http://www.w3.org/Graphics/SVG/1.1/DTD/svg11.dtd">
<svg version="1.1" id="Layer_1" xmlns="http://www.w3.org/2000/svg" xmlns:xlink="http://www.w3.org/1999/xlink" x="0px" y="0px"
	 width="77.737px" height="135.672px" viewBox="0 0 77.737 135.672" enable-background="new 0 0 77.737 135.672"
	 xml:space="preserve">
<rect x="21.4" y="8.845" fill="#9D0D16" width="28.468" height="3.972"/>
<path fill="#9D0D16" d="M10.729,16.377c0.261-0.015,0.566,0.053,0.98,0.327l5.727,3.885c0.715,0.521,1.188,1.483,1.188,2.26
	l-0.066,5.367v0.008v0.013c0,2.113,1.069,3.915,2.45,5.172c0.813,0.742,1.745,1.327,2.742,1.685
	c-0.996,0.357-1.929,0.942-2.742,1.684c-1.381,1.257-2.45,3.059-2.45,5.172v0.012v0.008l0.066,5.388
	c0,0.776-0.524,1.751-1.237,2.272l-5.693,3.86c-0.553,0.365-0.893,0.36-1.213,0.281s-0.635-0.306-0.848-0.633
	c-0.426-0.654-0.611-1.416,0.621-2.296l0.02-0.017l0.021-0.017l2.738-2.09c0.927-0.663,2.223-1.777,2.223-3.69v-0.013v-0.013
	l-0.066-4.39c0-0.937-0.336-1.994-1.283-2.71c-0.945-0.716-2.297-0.805-3.591-0.381c-0.924,0.303-1.528,0.628-2.011,0.811
	c-0.484,0.183-0.894,0.294-1.784,0.294c-1.247,0-2.013-0.469-2.59-1.143c-0.577-0.673-0.874-1.61-0.874-2.226v-0.331
	c0-0.616,0.297-1.553,0.874-2.226s1.343-1.142,2.59-1.142c0.89,0,1.3,0.111,1.784,0.294c0.482,0.182,1.087,0.508,2.011,0.811
	c1.294,0.424,2.646,0.335,3.591-0.381c0.947-0.716,1.283-1.798,1.283-2.735l0.066-4.365V25.17v-0.013
	c0-1.914-1.337-3.057-2.264-3.72l-2.697-2.061l-0.021-0.017l-0.02-0.016c-1.232-0.881-1.047-1.643-0.621-2.297
	c0.213-0.327,0.527-0.554,0.848-0.633C10.562,16.395,10.643,16.382,10.729,16.377z"/>
<linearGradient id="SVGID_1_" gradientUnits="userSpaceOnUse" x1="227.2178" y1="390.5278" x2="260.0686" y2="488.2074" gradientTransform="matrix(1 0 0 1 -197.5601 -361.7754)">
	<stop  offset="0" style="stop-color:#157031"/>
	<stop  offset="1" style="stop-color:#0F5324"/>
</linearGradient>
<path fill="url(#SVGID_1_)" d="M60.475,20.056c3.168,2.071,6.454,4.408,9.024,7.601c2.885,3.583,4.928,8.194,4.928,14.991
	c0,12.77-11.926,23.027-23.395,23.027h-27.72c-0.788,0-1.593,0.361-2.081,0.918s-0.684,1.231-0.679,1.875s0.212,1.301,0.695,1.85
	c0.482,0.548,1.275,0.915,2.064,0.915h27.062c9.729,0,14.917,6.262,14.917,13.655c0,7.204-5.388,13.977-14.851,13.977H22.556
	c-0.676,0-1.395,0.307-1.838,0.799c-0.442,0.492-0.628,1.091-0.625,1.663c0.004,0.573,0.191,1.161,0.63,1.647
	c0.438,0.485,1.155,0.795,1.833,0.795h20.756c4.467,0,8.268,4.354,8.268,8.511c0,2.108-0.6,4.056-1.924,5.47
	c-1.326,1.416-3.442,2.441-7.002,2.441H30.207c-0.496,0-1.019,0.109-1.498,0.455c-0.479,0.348-0.872,1.01-0.853,1.697
	c0.021,0.688,0.416,1.277,0.877,1.605s0.976,0.447,1.474,0.447h8.255c1.164,0,2.025,0.509,2.707,1.336
	c0.68,0.827,1.075,1.986,1.075,2.913c0,1.153-0.427,2.22-1.179,2.888c-0.488,0.434-1.164,0.734-2.09,0.808
	c0.045-0.477,0.053-1.017-0.266-1.663c-0.377-0.768-1.43-1.379-2.324-1.379h-4.953c-1.727,0-3.63-0.65-5.036-1.879
	c-1.407-1.227-2.371-2.968-2.371-5.473c0-2.305,0.963-3.947,2.329-5.128c1.367-1.18,3.182-1.796,4.52-1.796h12.173
	c0.55,0,1.085-0.095,1.597-0.405c0.513-0.312,1.04-0.966,1.039-1.779s-0.531-1.469-1.043-1.779s-1.043-0.401-1.593-0.401H23.976
	c-7.338,0-11.424-5.193-11.424-10.791c0-4.995,4.277-10.916,10.762-10.916h28.381c0.773,0,1.568-0.361,2.041-0.91
	c0.473-0.551,0.658-1.205,0.653-1.83s-0.198-1.267-0.666-1.808c-0.468-0.542-1.253-0.906-2.028-0.906H22.788
	c-8.081,0-14.475-5.992-14.475-15.042c0-7.558,6.186-15.31,15.332-15.31h26.199c1.43,0,2.711-0.643,3.496-1.581
	c0.787-0.938,1.137-2.094,1.143-3.232c0.006-1.138-0.333-2.304-1.121-3.248S51.283,43.5,49.845,43.5H21.891l-0.021-1.568
	c0-0.968,0.525-1.942,1.369-2.71c0.844-0.769,1.979-1.208,2.674-1.208h15.665c0.606,0,1.206-0.14,1.796-0.546
	c0.59-0.406,1.138-1.282,1.138-2.375c0-1.126-0.335-1.696-1.138-2.375c-0.59-0.406-1.189-0.546-1.796-0.546H25.913
	c-0.695,0-1.83-0.44-2.674-1.208s-1.369-1.759-1.369-2.727l0.012-0.96h19.121c1.059,0,2.024-0.34,2.785-0.923
	c0.76-0.583,1.382-1.478,1.382-2.607v-1.419h9.298C56.878,22.328,58.974,21.429,60.475,20.056z"/>
<g>
	<path fill="none" d="M10.481,53.771c0.32,0.079,0.66,0.084,1.213-0.281l5.693-3.86c0.713-0.521,1.237-1.496,1.237-2.272
		l-0.066-5.388v-0.008V41.95c0-2.114,1.069-3.915,2.45-5.172c0.813-0.742,1.746-1.327,2.742-1.684
		c-0.997-0.358-1.929-0.943-2.742-1.685c-1.381-1.257-2.45-3.059-2.45-5.172v-0.013v-0.008l0.066-5.367
		c0-0.776-0.474-1.739-1.188-2.26l-5.727-3.885c-0.414-0.274-0.72-0.342-0.98-0.327c-0.087,0.005-0.168,0.018-0.248,0.037
		c-0.32,0.079-0.635,0.306-0.848,0.633c-0.426,0.654-0.611,1.416,0.621,2.297l0.02,0.016l0.021,0.017l2.697,2.061
		c0.927,0.663,2.264,1.806,2.264,3.72v0.013v0.013l-0.066,4.365c0,0.937-0.336,2.019-1.283,2.735
		c-0.945,0.716-2.297,0.805-3.591,0.381c-0.924-0.303-1.528-0.628-2.011-0.811c-0.484-0.183-0.895-0.294-1.784-0.294
		c-1.247,0-2.013,0.469-2.59,1.142s-0.874,1.61-0.874,2.226v0.331c0,0.616,0.297,1.553,0.874,2.226
		c0.577,0.673,1.343,1.143,2.59,1.143c0.891,0,1.3-0.111,1.784-0.294c0.482-0.183,1.087-0.508,2.011-0.811
		c1.294-0.424,2.646-0.335,3.591,0.381c0.947,0.716,1.283,1.774,1.283,2.71l0.066,4.39v0.013v0.013c0,1.914-1.296,3.028-2.223,3.69
		l-2.738,2.09l-0.021,0.017l-0.02,0.017c-1.232,0.881-1.047,1.643-0.621,2.296C9.847,53.465,10.161,53.693,10.481,53.771z"/>
	<path fill="none" d="M21.936,47.337c0,0.939-0.228,1.836-0.629,2.644c0.761-0.094,1.54-0.145,2.338-0.145h26.2
		c0.541,0,0.75-0.147,0.961-0.397c0.209-0.25,0.365-0.675,0.367-1.121s-0.148-0.865-0.352-1.109s-0.411-0.397-0.977-0.397H21.927
		l0.009,0.505v0.013V47.337z"/>
	<path fill="none" d="M60.475,20.056c-1.501,1.373-3.597,2.271-6.007,2.271H45.17v1.419c0,1.129-0.622,2.023-1.382,2.607
		c-0.761,0.583-1.727,0.923-2.785,0.923H21.882l-0.012,0.96c0,0.968,0.525,1.958,1.369,2.727s1.979,1.208,2.674,1.208h15.665
		c0.606,0,1.206,0.14,1.796,0.546c0.803,0.68,1.138,1.249,1.138,2.375c0,1.093-0.548,1.969-1.138,2.375
		c-0.59,0.406-1.189,0.546-1.796,0.546H25.913c-0.695,0-1.83,0.44-2.674,1.208c-0.844,0.768-1.369,1.742-1.369,2.71l0.021,1.568
		h27.954c1.438,0,2.729,0.641,3.518,1.585s1.127,2.11,1.121,3.248c-0.006,1.138-0.355,2.294-1.143,3.232
		c-0.785,0.938-2.066,1.581-3.496,1.581H23.646c-9.146,0-15.332,7.751-15.332,15.31c0,9.049,6.394,15.042,14.475,15.042h28.906
		c0.775,0,1.561,0.364,2.028,0.906c0.468,0.541,0.661,1.183,0.666,1.808s-0.181,1.279-0.653,1.83
		c-0.473,0.549-1.268,0.91-2.041,0.91H23.313c-6.484,0-10.762,5.921-10.762,10.916c0,5.598,4.086,10.791,11.424,10.791h19.071
		c0.55,0,1.081,0.091,1.593,0.401s1.042,0.966,1.043,1.779s-0.526,1.468-1.039,1.779c-0.512,0.311-1.047,0.405-1.597,0.405H30.874
		c-1.338,0-3.152,0.616-4.52,1.796c-1.366,1.181-2.329,2.823-2.329,5.128c0,2.505,0.964,4.246,2.371,5.473
		c1.406,1.229,3.31,1.879,5.036,1.879h4.953c0.895,0,1.947,0.611,2.324,1.379c0.318,0.646,0.311,1.187,0.266,1.663
		c0.926-0.073,1.602-0.374,2.09-0.808c0.752-0.668,1.179-1.734,1.179-2.888c0-0.927-0.396-2.086-1.075-2.913
		c-0.682-0.827-1.543-1.336-2.707-1.336h-8.255c-0.498,0-1.013-0.119-1.474-0.447s-0.856-0.918-0.877-1.605
		c-0.02-0.688,0.373-1.35,0.853-1.697c0.479-0.346,1.002-0.455,1.498-0.455h12.446c3.56,0,5.676-1.025,7.002-2.441
		c1.324-1.414,1.924-3.361,1.924-5.47c0-4.157-3.801-8.511-8.268-8.511H22.556c-0.678,0-1.395-0.31-1.833-0.795
		c-0.438-0.486-0.626-1.074-0.63-1.647c-0.003-0.572,0.183-1.171,0.625-1.663c0.443-0.492,1.162-0.799,1.838-0.799H50.44
		c9.463,0,14.851-6.773,14.851-13.977c0-7.393-5.188-13.655-14.917-13.655H23.312c-0.789,0-1.582-0.366-2.064-0.915
		c-0.483-0.548-0.69-1.206-0.695-1.85s0.19-1.317,0.679-1.875s1.293-0.918,2.081-0.918h27.72c11.469,0,23.395-10.257,23.395-23.027
		c0-6.797-2.043-11.408-4.928-14.991C66.929,24.464,63.643,22.127,60.475,20.056z"/>
	
		<linearGradient id="SVGID_2_" gradientUnits="userSpaceOnUse" x1="2298.7012" y1="138.5132" x2="2460.6616" y2="276.8474" gradientTransform="matrix(1 0 0 1 -2342.8662 -198.2852)">
		<stop  offset="0" style="stop-color:#F8FFBF"/>
		<stop  offset="0.5089" style="stop-color:#F8E45E"/>
		<stop  offset="0.75" style="stop-color:#F8D35E"/>
		<stop  offset="1" style="stop-color:#EE8E0A"/>
	</linearGradient>
	<rect x="21.401" y="6.401" fill="url(#SVGID_2_)" width="28.469" height="3.972"/>
	
		<linearGradient id="SVGID_3_" gradientUnits="userSpaceOnUse" x1="2306.8955" y1="128.9194" x2="2468.856" y2="267.2536" gradientTransform="matrix(1 0 0 1 -2342.8662 -198.2852)">
		<stop  offset="0" style="stop-color:#F8FFBF"/>
		<stop  offset="0.5089" style="stop-color:#F8E45E"/>
		<stop  offset="0.75" style="stop-color:#F8D35E"/>
		<stop  offset="1" style="stop-color:#EE8E0A"/>
	</linearGradient>
	<circle fill="url(#SVGID_3_)" cx="48.11" cy="2.45" r="2.45"/>
	
		<linearGradient id="SVGID_4_" gradientUnits="userSpaceOnUse" x1="2296.3711" y1="141.2417" x2="2458.3315" y2="279.5759" gradientTransform="matrix(1 0 0 1 -2342.8662 -198.2852)">
		<stop  offset="0" style="stop-color:#F8FFBF"/>
		<stop  offset="0.5089" style="stop-color:#F8E45E"/>
		<stop  offset="0.75" style="stop-color:#F8D35E"/>
		<stop  offset="1" style="stop-color:#EE8E0A"/>
	</linearGradient>
	<circle fill="url(#SVGID_4_)" cx="23.159" cy="2.45" r="2.45"/>
	
		<linearGradient id="SVGID_5_" gradientUnits="userSpaceOnUse" x1="2304.2637" y1="131.9995" x2="2466.2241" y2="270.3337" gradientTransform="matrix(1 0 0 1 -2342.8662 -198.2852)">
		<stop  offset="0" style="stop-color:#F8FFBF"/>
		<stop  offset="0.5089" style="stop-color:#F8E45E"/>
		<stop  offset="0.75" style="stop-color:#F8D35E"/>
		<stop  offset="1" style="stop-color:#EE8E0A"/>
	</linearGradient>
	<circle fill="url(#SVGID_5_)" cx="41.87" cy="2.45" r="2.45"/>
	
		<linearGradient id="SVGID_6_" gradientUnits="userSpaceOnUse" x1="2301.6348" y1="135.0806" x2="2463.5952" y2="273.4147" gradientTransform="matrix(1 0 0 1 -2342.8662 -198.2852)">
		<stop  offset="0" style="stop-color:#F8FFBF"/>
		<stop  offset="0.5089" style="stop-color:#F8E45E"/>
		<stop  offset="0.75" style="stop-color:#F8D35E"/>
		<stop  offset="1" style="stop-color:#EE8E0A"/>
	</linearGradient>
	<circle fill="url(#SVGID_6_)" cx="35.636" cy="2.45" r="2.45"/>
	
		<linearGradient id="SVGID_7_" gradientUnits="userSpaceOnUse" x1="2299.0029" y1="138.1597" x2="2460.9634" y2="276.4938" gradientTransform="matrix(1 0 0 1 -2342.8662 -198.2852)">
		<stop  offset="0" style="stop-color:#F8FFBF"/>
		<stop  offset="0.5089" style="stop-color:#F8E45E"/>
		<stop  offset="0.75" style="stop-color:#F8D35E"/>
		<stop  offset="1" style="stop-color:#EE8E0A"/>
	</linearGradient>
	<circle fill="url(#SVGID_7_)" cx="29.399" cy="2.45" r="2.45"/>
	
		<linearGradient id="SVGID_8_" gradientUnits="userSpaceOnUse" x1="2296.0605" y1="141.605" x2="2458.021" y2="279.9391" gradientTransform="matrix(1 0 0 1 -2342.8662 -198.2852)">
		<stop  offset="0" style="stop-color:#F8FFBF"/>
		<stop  offset="0.5089" style="stop-color:#F8E45E"/>
		<stop  offset="0.75" style="stop-color:#F8D35E"/>
		<stop  offset="1" style="stop-color:#EE8E0A"/>
	</linearGradient>
	<rect x="21.401" y="11.748" fill="url(#SVGID_8_)" width="28.469" height="3.972"/>
	
		<linearGradient id="SVGID_9_" gradientUnits="userSpaceOnUse" x1="2269.8887" y1="172.2466" x2="2431.8491" y2="310.5807" gradientTransform="matrix(1 0 0 1 -2342.8662 -198.2852)">
		<stop  offset="0" style="stop-color:#F8FFBF"/>
		<stop  offset="0.5089" style="stop-color:#F8E45E"/>
		<stop  offset="0.75" style="stop-color:#F8D35E"/>
		<stop  offset="1" style="stop-color:#EE8E0A"/>
	</linearGradient>
	<path fill="url(#SVGID_9_)" d="M72.077,25.58c-3.293-4.09-7.439-6.802-10.973-9.074c-0.281-0.18-0.611-0.271-0.944-0.261
		c-0.515,0.015-0.993,0.269-1.295,0.687c-0.822,1.139-2.374,2.086-4.398,2.086H39.22c-0.766,0-1.492,0.208-2.119,0.662
		c-0.627,0.454-1.184,1.266-1.184,2.226v1.738c-0.008,0.01-0.021,0.037-0.087,0.087c-0.149,0.115-0.442,0.236-0.77,0.236H21.923
		l0.012-1.096v-0.013v-0.008c0-2-1.02-3.817-2.594-4.965l-0.025-0.021l-0.02-0.012l-5.744-3.894l-0.008-0.008l-0.008-0.004
		c-0.915-0.604-1.937-0.889-2.9-0.869c-0.322,0.007-0.637,0.05-0.939,0.124c-1.212,0.297-2.198,1.062-2.835,2.04
		c-1.274,1.956-0.981,5.047,1.47,6.798l2.693,2.061l0.021,0.017l0.021,0.013c0.566,0.405,0.881,0.896,0.881,1.03l-0.066,4.365v0.013
		v0.012c0,0.054-0.008,0.066-0.012,0.087c-0.076,0-0.221-0.018-0.521-0.116c-0.637-0.209-1.121-0.478-1.871-0.761
		c-0.749-0.283-1.713-0.509-2.953-0.509c-2.184,0-3.979,0.985-5.102,2.296c-0.395,0.459-0.716,0.951-0.969,1.46v-0.175
		c-0.247,0.863-0.471,1.999-0.451,3.322c0.021,1.443,0.195,2.323,0.451,3.038V38.18c0.252,0.509,0.574,1.001,0.968,1.46
		c1.124,1.312,2.919,2.297,5.102,2.297c1.241,0,2.204-0.226,2.954-0.509c0.75-0.283,1.234-0.553,1.871-0.761
		c0.301-0.099,0.445-0.116,0.521-0.116c0.004,0.021,0.012,0.036,0.012,0.087v0.013v0.013l0.066,4.39c0,0.135-0.314,0.6-0.881,1.006
		l-0.021,0.012l-0.02,0.017l-2.736,2.094c-2.449,1.751-2.701,4.81-1.427,6.765c0.542,0.832,1.338,1.508,2.309,1.875
		c-2.651,3.32-4.166,7.467-4.166,11.635c0,9.194,5.962,16.165,13.87,17.913c-5.924,2.024-9.633,7.94-9.633,13.498
		c0,7.287,5.771,14.102,14.734,14.102h0.649c-0.146,0.113-0.294,0.221-0.435,0.344c-1.986,1.715-3.475,4.359-3.475,7.635
		c0,3.402,1.438,6.169,3.5,7.969c2.062,1.799,4.688,2.693,7.217,2.693h4.146c-0.086,0.303-0.182,0.584-0.182,0.584
		c-0.203,0.459-0.187,0.985,0.046,1.432c0.23,0.445,0.652,0.763,1.146,0.86c1.003,0.199,1.956,0.232,2.842,0.136
		c1.195-0.2,3.412-0.844,5.022-2.864c-0.062,0.041-0.123,0.085-0.186,0.126c0.877-1.248,1.287-2.753,1.287-4.238
		c0-1.77-0.635-3.563-1.829-5.015c-0.048-0.058-0.104-0.109-0.153-0.166c3.766-0.181,6.632-1.456,8.499-3.45
		c2.019-2.156,2.817-4.99,2.817-7.734c0-4.053-2.27-7.953-5.705-10.104h1.258c11.09,0,18.16-8.377,18.16-17.287
		c0-7.555-4.914-14.323-13.088-16.34c11.736-2.205,22.225-12.766,22.225-25.899c0-1.783-0.139-3.45-0.388-5.016
		c-1.365-5.674-3.26-9.251-4.769-11.418c0.008,0.017,0.017,0.032,0.025,0.049C72.433,26.031,72.257,25.803,72.077,25.58z
		 M10.255,50.842l0.02-0.017l0.021-0.017l2.738-2.09c0.927-0.663,2.223-1.777,2.223-3.69v-0.013v-0.013l-0.066-4.39
		c0-0.937-0.336-1.994-1.283-2.71c-0.945-0.716-2.297-0.805-3.591-0.381c-0.924,0.303-1.528,0.628-2.011,0.811
		c-0.484,0.183-0.894,0.294-1.784,0.294c-1.247,0-2.013-0.469-2.59-1.143c-0.577-0.673-0.874-1.61-0.874-2.226v-0.331
		c0-0.616,0.297-1.553,0.874-2.226s1.343-1.142,2.59-1.142c0.89,0,1.3,0.111,1.784,0.294c0.482,0.182,1.087,0.508,2.011,0.811
		c1.294,0.424,2.646,0.335,3.591-0.381c0.947-0.716,1.283-1.798,1.283-2.735l0.066-4.365V25.17v-0.013
		c0-1.914-1.337-3.057-2.264-3.72l-2.697-2.061l-0.021-0.017l-0.02-0.016c-1.232-0.881-1.047-1.643-0.621-2.297
		c0.213-0.327,0.527-0.554,0.848-0.633c0.08-0.02,0.161-0.032,0.248-0.037c0.261-0.015,0.566,0.053,0.98,0.327l5.727,3.885
		c0.715,0.521,1.188,1.483,1.188,2.26l-0.066,5.367v0.008v0.013c0,2.113,1.069,3.915,2.45,5.172
		c0.813,0.742,1.745,1.327,2.742,1.685c-0.996,0.357-1.929,0.942-2.742,1.684c-1.381,1.257-2.45,3.059-2.45,5.172v0.012v0.008
		l0.066,5.388c0,0.776-0.524,1.751-1.237,2.272l-5.693,3.86c-0.553,0.365-0.893,0.36-1.213,0.281s-0.635-0.306-0.848-0.633
		C9.208,52.485,9.022,51.723,10.255,50.842z M21.927,46.811h27.918c0.565,0,0.773,0.154,0.977,0.397s0.354,0.663,0.352,1.109
		s-0.158,0.872-0.367,1.121c-0.211,0.25-0.42,0.397-0.961,0.397h-26.2c-0.798,0-1.577,0.051-2.338,0.145
		c0.401-0.808,0.629-1.705,0.629-2.644v-0.008v-0.013L21.927,46.811z M51.032,65.675h-27.72c-0.788,0-1.593,0.361-2.081,0.918
		s-0.684,1.231-0.679,1.875s0.212,1.301,0.695,1.85c0.482,0.548,1.275,0.915,2.064,0.915h27.062c9.729,0,14.917,6.262,14.917,13.655
		c0,7.204-5.388,13.977-14.851,13.977H22.556c-0.676,0-1.395,0.307-1.838,0.799c-0.442,0.492-0.628,1.091-0.625,1.663
		c0.004,0.573,0.191,1.161,0.63,1.647c0.438,0.485,1.155,0.795,1.833,0.795h20.756c4.467,0,8.268,4.354,8.268,8.511
		c0,2.108-0.6,4.056-1.924,5.47c-1.326,1.416-3.442,2.441-7.002,2.441H30.207c-0.496,0-1.019,0.109-1.498,0.455
		c-0.479,0.348-0.872,1.01-0.853,1.697c0.021,0.688,0.416,1.277,0.877,1.605s0.976,0.447,1.474,0.447h8.255
		c1.164,0,2.025,0.509,2.707,1.336c0.68,0.827,1.075,1.986,1.075,2.913c0,1.153-0.427,2.22-1.179,2.888
		c-0.488,0.434-1.164,0.734-2.09,0.808c0.045-0.477,0.053-1.017-0.266-1.663c-0.377-0.768-1.43-1.379-2.324-1.379h-4.953
		c-1.727,0-3.63-0.65-5.036-1.879c-1.407-1.227-2.371-2.968-2.371-5.473c0-2.305,0.963-3.947,2.329-5.128
		c1.367-1.18,3.182-1.796,4.52-1.796h12.173c0.55,0,1.085-0.095,1.597-0.405c0.513-0.312,1.04-0.966,1.039-1.779
		s-0.531-1.469-1.043-1.779s-1.043-0.401-1.593-0.401H23.976c-7.338,0-11.424-5.193-11.424-10.791
		c0-4.995,4.277-10.916,10.762-10.916h28.381c0.773,0,1.568-0.361,2.041-0.91c0.473-0.551,0.658-1.205,0.653-1.83
		s-0.198-1.267-0.666-1.808c-0.468-0.542-1.253-0.906-2.028-0.906H22.788c-8.081,0-14.475-5.992-14.475-15.042
		c0-7.558,6.186-15.31,15.332-15.31h26.199c1.43,0,2.711-0.643,3.496-1.581c0.787-0.938,1.137-2.094,1.143-3.232
		c0.006-1.138-0.333-2.304-1.121-3.248S51.283,43.5,49.845,43.5H21.891l-0.021-1.568c0-0.968,0.525-1.942,1.369-2.71
		c0.844-0.769,1.979-1.208,2.674-1.208h15.665c0.606,0,1.206-0.14,1.796-0.546c0.59-0.406,1.138-1.282,1.138-2.375
		c0-1.126-0.335-1.696-1.138-2.375c-0.59-0.406-1.189-0.546-1.796-0.546H25.913c-0.695,0-1.83-0.44-2.674-1.208
		s-1.369-1.759-1.369-2.727l0.012-0.96h19.121c1.059,0,2.024-0.34,2.785-0.923c0.76-0.583,1.382-1.478,1.382-2.607v-1.419h9.298
		c2.41,0.001,4.506-0.898,6.007-2.271c3.168,2.071,6.454,4.408,9.024,7.601c2.885,3.583,4.928,8.194,4.928,14.991
		C74.427,55.418,62.501,65.675,51.032,65.675z"/>
	<linearGradient id="SVGID_10_" gradientUnits="userSpaceOnUse" x1="26.1396" y1="80.415" x2="65.043" y2="186.0569">
		<stop  offset="0" style="stop-color:#FFFFFF"/>
		<stop  offset="1" style="stop-color:#53EEEF"/>
	</linearGradient>
	<path fill="url(#SVGID_10_)" d="M44.668,132.487c-0.069,0.096-0.144,0.18-0.216,0.27c0.517-0.342,1.03-0.688,1.539-1.042
		C45.493,131.744,45.04,131.973,44.668,132.487z"/>
</g>
</svg>
