<?xml version="1.0" encoding="utf-8"?>
<!-- Generator: Adobe Illustrator 16.0.0, SVG Export Plug-In . SVG Version: 6.00 Build 0)  -->
<!DOCTYPE svg PUBLIC "-//W3C//DTD SVG 1.1//EN" "http://www.w3.org/Graphics/SVG/1.1/DTD/svg11.dtd">
<svg version="1.1" id="Layer_1" xmlns="http://www.w3.org/2000/svg" xmlns:xlink="http://www.w3.org/1999/xlink" x="0px" y="0px"
	 width="55.838px" height="104.012px" viewBox="0 0 55.838 104.012" enable-background="new 0 0 55.838 104.012"
	 xml:space="preserve">
<g>
	<polygon fill="#231F20" points="18.387,45.343 22.051,42.055 20.98,45.745 	"/>
	<path fill="#231F20" d="M25.018,29.291c0,0-0.849,7.736-0.895,8.166c-1.052,0.554-5.676,2.992-5.907,3.133
		c-0.494,0.286-0.964,0.808-1.292,1.426l-2.044,4.603l-0.162,0.374c-0.106,0.229-0.189,0.54-0.189,0.852
		c0,0.201,0.032,0.397,0.12,0.577c0.185,0.365,2.57,3.228,2.861,3.482c0.365,0.33,0.743,0.499,1.187,0.538l1.97-0.032
		c0.019,0,1.454-0.344,1.454-0.344c0.674-0.224,2.109-0.755,4.167-1.793c2.658-1.338,3.747-2.395,4.333-3.073
		c0.351-0.413,0.554-0.979,0.577-1.602c0.009-0.281-0.12-2.988-0.157-3.368l-0.863,0.081c0.037,0.378,0.157,2.873,0.157,3.226
		c0,0.014,0,0.023,0,0.03c-0.019,0.425-0.152,0.817-0.369,1.073c-0.535,0.621-1.541,1.594-4.065,2.861
		c-2.012,1.018-3.401,1.53-4.047,1.745l-1.269,0.309l-1.823,0.028c-0.245-0.021-0.448-0.118-0.683-0.323
		c-0.277-0.247-2.487-2.928-2.658-3.23c-0.023-0.037-0.033-0.104-0.033-0.18c0-0.141,0.037-0.328,0.116-0.503l0.166-0.381
		l2.017-4.548c0.249-0.471,0.609-0.875,0.969-1.084c0.009-0.007,6.276-3.325,6.276-3.325s0.549-5.009,0.775-7.069
		c0.766,1.677,2.165,4.725,2.165,4.725c0-0.004,0.175,0.847,0.175,0.847c0.014,0.097,0.125,1.348,0.125,1.348l0.023,0.256
		l0.235,0.104c0.055,0.021,5.436,2.404,8.574,9.098c2.296,4.892,3.403,10.027,2.711,23.131c-0.341,6.592-2.831,14.257-5.041,19.235
		l-1.07,2.4c-1.449,3.234-1.934,4.323-1.934,5.357l0.069,2.741l0.036,1.112c0.005,0.484,0.015,1.513-0.498,1.68
		c-0.803,0.268-2.409,0.18-2.653,0.083c-0.208-0.083-0.461-0.374-0.535-0.821c-0.157-0.96,0.17-3.106,0.826-5.344
		c0.42-1.427,1.44-3.679,2.261-5.492l1.145-2.63c1.564-4.02,4.231-11.656,5.044-18.846l-0.854-0.098
		c-0.799,7.093-3.447,14.647-4.952,18.528l-0.041,0.105l-1.131,2.584c-0.872,1.93-1.864,4.117-2.303,5.607
		c-0.554,1.901-1.066,4.402-0.844,5.722c0.115,0.692,0.531,1.273,1.061,1.481c0.471,0.198,2.308,0.249,3.249-0.06
		c1.024-0.337,1.094-1.639,1.094-2.275c0-0.046-0.005-0.097-0.005-0.139c0-0.087-0.037-1.228-0.037-1.228l-0.073-2.713
		c0-0.85,0.507-1.979,1.864-5.002l1.07-2.404c2.24-5.049,4.76-12.834,5.11-19.541c0.147-2.621,0.213-4.926,0.213-6.979
		c0-8.361-1.107-12.533-3-16.564c-2.979-6.352-7.736-8.911-8.774-9.412c-0.032-0.321-0.097-1.031-0.097-1.031
		c-0.009-0.092-0.245-1.161-0.245-1.161c0-0.004-3.479-7.603-3.479-7.603L25.018,29.291z"/>
	<path fill="#231F20" d="M27.948,49.025l0.406,0.286c0.678,0.471,1.319,0.916,1.809,1.825c0.669,1.234,0.858,3.168,0.604,6.273
		c-0.239,2.877-2.478,7.789-4.859,12.67c-2.335,4.773-3.558,7.521-3.701,13.05c-0.087,3.32,0.171,6.015,0.448,8.867
		c0.005,0.06,0.323,2.515,0.323,2.515c0.18,1.255,0.355,2.445,0.346,3.188l-0.23,1.813c-0.143,0.854-0.291,1.74-0.291,2.589
		c0,1.541,1.255,1.703,1.671,1.759c1.117,0.143,2.062-0.13,2.81-0.812c1.278-1.163,0.877-4.841,0.148-7.628
		c-0.983-3.757-1.426-6.654-1.288-12.992c0.125-5.393,2.847-11.532,5.326-14.954l-0.697-0.503
		c-2.552,3.521-5.362,9.861-5.491,15.438c-0.139,6.397,0.332,9.476,1.315,13.232c0.831,3.156,0.876,6.072,0.106,6.77
		c-0.549,0.508-1.26,0.706-2.118,0.591c-0.706-0.088-0.918-0.296-0.918-0.9c0-0.779,0.143-1.624,0.281-2.445l0.24-1.943
		c0.009-0.816-0.171-2.034-0.355-3.327l-0.314-2.413c-0.281-2.884-0.535-5.552-0.452-8.823c0.143-5.355,1.274-7.9,3.618-12.692
		c2.252-4.617,4.68-9.809,4.942-12.974c0.268-3.33,0.061-5.346-0.701-6.758c-0.586-1.091-1.385-1.641-2.081-2.125l-0.388-0.27
		L27.948,49.025z"/>
	<path fill="#231F20" d="M40.119,68.538l0.222,0.833c3.738-0.989,7.688-1.8,11.269-0.996c1.32,0.295,2.271,0.918,2.834,1.843
		c0.581,0.985,0.691,2.299,0.304,3.699c-0.627,2.286-3.617,5.313-6.146,7.688l-0.083,0.083
		c-6.036,5.667-11.524,10.364-16.328,13.955l0.517,0.691c4.829-3.613,10.348-8.329,16.394-14.017l0.092-0.083
		c2.778-2.607,5.704-5.611,6.387-8.087c0.452-1.631,0.313-3.185-0.406-4.37c-0.664-1.126-1.837-1.898-3.368-2.242
		C48.038,66.69,43.959,67.519,40.119,68.538z"/>
	<path fill="#231F20" d="M19.416,0.838c3.544,0.891,7.923,2.432,10.406,6.435c2.829,4.571,1.699,8.75-3.904,14.416l-6.576,6.475
		c-3.322,3.226-6.465,6.28-8.749,8.849c-2.233,2.508-6.331,7.552-8.685,13.156c-2.547,6.061-2.543,12.95,0.004,18.428
		c3.904,8.41,10.443,14.229,20.581,18.33l0.323-0.799C12.896,82.114,6.5,76.434,2.692,68.234
		c-2.445-5.264-2.441-11.893,0.009-17.732c2.307-5.491,6.336-10.452,8.533-12.916c2.266-2.547,5.395-5.588,8.708-8.807l6.585-6.484
		c5.944-6.008,7.111-10.496,4.029-15.479C27.911,2.554,23.324,0.935,19.628,0L19.416,0.838z"/>
</g>
</svg>
