<?xml version="1.0" encoding="utf-8"?>
<!-- Generator: Adobe Illustrator 16.0.0, SVG Export Plug-In . SVG Version: 6.00 Build 0)  -->
<!DOCTYPE svg PUBLIC "-//W3C//DTD SVG 1.1//EN" "http://www.w3.org/Graphics/SVG/1.1/DTD/svg11.dtd">
<svg version="1.1" id="Layer_1" xmlns="http://www.w3.org/2000/svg" xmlns:xlink="http://www.w3.org/1999/xlink" x="0px" y="0px"
	 width="97.363px" height="97.372px" viewBox="0 0 97.363 97.372" enable-background="new 0 0 97.363 97.372" xml:space="preserve">
<g>
	<g>
		<g>
			<path fill-rule="evenodd" clip-rule="evenodd" d="M66.642,30.152c-0.455,1.926-1.243,5.549-4.411,6.906
				c-2.267,1.023-4.079-1.698-7.588-1.698c0,2.039,0.91,4.639,0.683,6.792c-0.683,4.866-3.624,9.277-4.525,13.471
				c-0.797,4.069-1.698,7.02-2.6,13.583c-1.707-3.51-0.228-8.718-2.722-11.771c-0.901-1.016-4.411-1.366-5.768-1.138
				c-1.365,0.227-0.788,1.356-1.584,1.138c-0.91-0.342,0-2.495,0.674-3.282c0.797-0.797,3.624,0,3.737-1.024
				c0.333-3.615-2.145-7.352-2.145-10.976c0-2.6,2.145-7.352,2.031-7.352c-2.031-1.926-5.769,3.51-8.149,1.698
				c-2.6-0.341-3.851-5.094-6.337-13.697c-0.123-0.683-2.713-3.396-3.624-4.648c-0.674-0.788-3.055-1.803-4.297,0.35
				c-4.534,6.564-7.807,11.545-8.035,30.555c-0.114,0.569,1.243,0.901,1.356,0.455c0.788-6.792,0.683-19.693,5.436-24
				c0.787,2.153-0.114,10.748,2.713,19.011c-0.228-5.313-0.901-13.462-0.901-19.116c0-1.138,0.333-3.51,1.471-4.648
				c0.446-1.925,1.917-1.242,2.485,0.342c3.956,9.732,3.396,15.054,4.866,17.208c1.471,6.109,6.109,5.313,8.604,4.858
				c0.455,3.737,1.47,5.663,1.584,5.89c0.341,0.682,0.901,1.357,0.901,2.372c-1.926,1.365-3.624-1.129-3.729,6.005
				c-0.455,1.015-1.024,2.827-1.365,3.168c-0.561,0.674-0.228,0.333-1.243,0.788c0,0-0.674,0.796,1.243,0.796
				c1.129,0,0.455-0.113,1.47-0.113c1.812-0.114,1.366-3.282,1.926-3.169c1.593-2.836,5.891,1.016,6.678,3.843
				c1.243,3.851,1.584,8.945,2.722,13.584c1.584-4.192,0.56-9.847,2.827-14.03c0.901-4.647,3.842-6.564,6.564-3.396
				c0.674,1.129-0.114,1.698,0.674,2.486c1.593,1.023,2.381,0.91,4.42,0.91c-0.796-1.024-2.381-1.138-2.949-2.381
				c-0.114-1.698-0.114-4.525-1.348-6.792c-0.236-0.455-1.138-1.803-1.934-1.803c0,0-3.16,1.575-3.16,1.233
				c0.901-2.03,3.615-3.956,3.273-6.896c1.024-2.827,0.569-6.223-0.674-8.148c0-0.569,1.243,0,1.471,0.341
				c1.024,1.357,1.461,3.273,2.258,4.525c0.683,0.901,2.381,2.039,3.282,1.584c3.852-2.039,5.094-5.776,5.891-9.732
				c0.901-4.307,2.153-9.164,4.078-13.471c1.121-2.608,3.16-1.803,3.273,1.016c0.788,11.658,1.024,14.485,0.455,21.059
				c1.585-6.231,0.797-8.148,1.812-17.768c5.207,7.011,4.866,14.932,5.882,22.853c0.113,1.366,1.243,1.138,1.243-0.56
				c-0.229-5.654-0.229-11.659-4.07-20.822c-0.797-2.608-3.282-4.867-4.762-7.353c-0.332-0.569-0.446-2.722-1.006-2.275
				C72.637,17.479,68.445,23.93,66.642,30.152L66.642,30.152z M73.32,14.319c1.129-0.91,2.381-1.82,3.956-1.593
				c0.455-0.228-0.569,1.593,0.122,2.38c5.996,5.996,13.462,20.026,13.462,33.61c0,12.219-5.996,23.99-10.635,28.639
				c-1.812,1.688-2.608-0.229-1.243-1.471c4.639-4.079,6.224-9.287,6.793-15.623c0.104-1.812-2.381-2.608-3.291-0.788
				c-1.698,1.015-2.486,3.388-3.843,4.744c-0.228,0.236-1.243,0.236-1.243,0c0.901-2.031,2.827-1.471,3.615-13.575
				c0.113-2.267-1.926-3.852-4.307-2.372c-2.477,1.688-3.159,6.328-5.085,9.164c-0.219,0.332-1.016-0.114-1.138-0.456
				c-0.333-1.584-0.105-3.281-0.446-4.639c-0.788-3.168-4.411-2.267-5.769,0c-1.023,1.698-2.608,3.957-2.153,6.109
				c0.341,1.584,3.737,1.812,4.184,3.282c0.455,0.228-0.788,3.843-1.812,3.51c-5.426-1.356-6.441-1.47-8.595-0.455
				c-2.381,1.243-4.306,5.436-4.866,8.149c-0.91,4.639-1.812,9.96-2.04,14.713c0,1.812-1.47,1.697-1.584,0
				c-0.91-7.238-2.713-14.258-4.297-20.367c-0.342-1.365-3.063-3.51-5.208-3.738c-2.039-0.227-2.494,1.13-4.866,1.585
				c-1.357,0.228-3.282-2.153-2.714-3.396c0.788-2.144,2.827-2.144,3.388-1.812c0.569-1.812,0.455-3.956,0-5.768
				c-0.333-1.479-1.356-3.396-2.941-3.852c-0.902-0.228-2.6-0.561-3.51-0.561c-0.228,0-0.902,1.804-1.129,2.6
				c-0.796,1.585,1.016,3.055,1.016,4.858c0,0.35-0.674,0.568-1.243,0c-1.925-2.486-2.494-6.328-5.085-8.14
				c-1.252-1.584-4.192-2.722-4.762,0.901c-0.219,1.698-0.104,5.208,0.456,7.476c0.683,2.485,2.372,4.639,3.054,7.02
				c0.114,0.56-0.341,1.015-0.787,0.674c-2.04-1.698-2.941-4.64-5.322-6.451c-1.024-1.129-2.381-0.113-2.153,2.381
				c0.91,5.987,2.722,10.065,7.475,17.759C10.398,68.979,5.986,64.559,6.547,45.207c0.228-14.485,7.133-22.293,13.242-30.328
				c0.342-0.455-1.015-2.495-0.455-2.153c2.723-1.129,8.376,5.094,11.886,10.074c1.584,2.267,3.168,5.435,5.882,7.352
				c1.584,1.138,4.411,2.267,6.336,2.04c0.683,0-1.243-1.698-1.575-1.812c-0.464-0.113-2.608-0.455-3.063-1.47
				c-1.015-1.47,0.228-2.258,0.569-2.827c0.674-0.901,3.282-2.599,4.297-2.941c0.342,0.674-0.446-2.827,1.926-3.956
				c1.356,0.446,2.486,2.258,3.852,2.486c1.698,0.341,2.144-1.129,3.851-0.683c3.16-0.228,2.372,2.713,1.576,4.639
				s-3.615,2.713-3.615,3.851c0,0.446,0.114,2.941,1.243,3.168c2.031,0.456,4.525,0,6.109-1.243
				C64.27,26.984,67.885,19.063,73.32,14.319L73.32,14.319z M45.592,25.286c0.569,0,1.016,0.455,1.016,0.796
				s-0.446,0.683-1.016,0.683c-0.569,0-1.015-0.342-1.015-0.683S45.023,25.286,45.592,25.286L45.592,25.286z"/>
			<path fill-rule="evenodd" clip-rule="evenodd" d="M48.734,0C21.864,0,0,21.873,0,48.743c0,26.765,21.864,48.629,48.734,48.629
				c26.765,0,48.629-21.864,48.629-48.629C97.363,21.873,75.499,0,48.734,0z M48.734,93.591c-24.831,0-44.953-20.122-44.953-44.848
				c0-10.039,3.326-19.273,8.884-26.757c1.47-2.17,3.037-4.219,4.595-6.24l1.068-1.392c-0.061-0.158-0.14-0.342-0.201-0.473
				c-0.28-0.648-0.569-1.331-0.105-2.04l0.236-0.368l0.534-0.14c0.385-0.167,0.814-0.245,1.26-0.245c0.884,0,1.847,0.35,2.827,0.91
				c7.317-5.155,16.219-8.219,25.855-8.219c9.496,0,18.301,2.993,25.566,8.061c0.743-0.394,1.549-0.657,2.485-0.657
				c0.228,0,0.455,0.018,0.7,0.053l0.561,0.079l0.455,0.446c0.473,0.595,0.314,1.251,0.192,1.724
				c-0.035,0.167-0.114,0.507-0.123,0.709c1.506,1.523,3.028,3.458,4.499,5.663c6.547,7.816,10.512,17.882,10.512,28.884
				C93.582,73.469,73.451,93.591,48.734,93.591z"/>
		</g>
	</g>
</g>
</svg>
