<?xml version="1.0" encoding="utf-8"?>
<!-- Generator: Adobe Illustrator 16.0.0, SVG Export Plug-In . SVG Version: 6.00 Build 0)  -->
<!DOCTYPE svg PUBLIC "-//W3C//DTD SVG 1.1//EN" "http://www.w3.org/Graphics/SVG/1.1/DTD/svg11.dtd">
<svg version="1.1" id="Layer_1" xmlns="http://www.w3.org/2000/svg" xmlns:xlink="http://www.w3.org/1999/xlink" x="0px" y="0px"
	 width="73.785px" height="25.031px" viewBox="0 0 73.785 25.031" enable-background="new 0 0 73.785 25.031" xml:space="preserve">
<g>
	<path fill="#231F20" d="M36.823,3.448c1.034,0,1.448,0.207,1.448,0.207l0.621-2.62c0,0,0.482,2,0.689,3.792
		c0.207,1.793,3.379,0.621,6.068,0.069C48.339,4.344,48.89,0,48.89,0h24.895c0,0-15.033,4.551-11.24,14.55
		c0,0-22.205-3.379-25.652,10.481h-0.001C33.444,11.171,11.24,14.55,11.24,14.55C15.032,4.551,0,0,0,0h24.894
		c0,0,0.552,4.344,3.24,4.896c2.689,0.552,5.862,1.724,6.068-0.069c0.207-1.792,0.69-3.792,0.69-3.792l0.62,2.62
		c0,0,0.414-0.207,1.448-0.207H36.823L36.823,3.448z"/>
</g>
</svg>
