<?xml version="1.0" encoding="utf-8"?>
<!-- Generator: Adobe Illustrator 16.0.0, SVG Export Plug-In . SVG Version: 6.00 Build 0)  -->
<!DOCTYPE svg PUBLIC "-//W3C//DTD SVG 1.1//EN" "http://www.w3.org/Graphics/SVG/1.1/DTD/svg11.dtd">
<svg version="1.1" id="Layer_1" xmlns="http://www.w3.org/2000/svg" xmlns:xlink="http://www.w3.org/1999/xlink" x="0px" y="0px"
	 width="94px" height="94px" viewBox="0 0 94 94" enable-background="new 0 0 94 94" xml:space="preserve">
<g>
	<polygon fill-rule="evenodd" clip-rule="evenodd" fill="#FFFFFF" points="0,0 94,0 94,94 0,94 0,0 	"/>
	<path fill-rule="evenodd" clip-rule="evenodd" fill="#231F20" d="M60.412,47.365c0.058-0.057,0.117-0.115,0.174-0.176
		c3.091-4.106,0.643-9.59-1.044-13.563c-1.176-1.057-2.859-1.392-4.064-2.368c3.719-3.786,8.934-6.955,10.74-11.933
		c1.592-3.291,1.526-7.919-0.373-11.036c-1.03-2.006-3.131-3.946-5.19-4.749c-2.421-1.245-6.034-0.936-8.216,0.601
		c-0.024,0.148,0.017,0.282,0.149,0.362c1.339,0.334,2.637,0.775,3.853,1.419c2.93,1.684,4.951,4.774,4.36,8.292
		c-0.375,2.354-2.048,4.897-4.442,5.699c-2.206,0.83-4.32-0.334-5.925-1.846c-3.251-3.477-6.902-6.796-8.815-10.824
		c-0.348-0.814-0.536-1.684-1.044-2.433c-0.212-0.053-0.387,0.039-0.506,0.215c-1.232,3.384-0.122,7.089,1.322,10.004
		c1.728,3.946,6.287,6.717,7.999,10.664c0.283,1.458,0.768,2.646-0.615,4.529c-1.363,1.628-2.171,2.044-3.958,2.044
		c-1.899-0.401-2.647-1.934-3.05-3.23c-0.509-4-1.564-7.959-4.521-10.742c-2.77-2.501-6.916-3.665-10.515-2.153
		c-0.174,0.147-0.014,0.401,0.146,0.441c0.844,0.068,1.66,0.215,2.449,0.442c3.518,0.991,6.021,4.694,6.663,8.08
		c0.481,2.314,0.332,4.99-1.779,6.448c-0.898,0.641-2.38,0.695-3.333,0.147c-1.564-0.656-2.073-2.274-2.22-3.772
		c0.068-0.513-0.294-0.335-0.522-0.308c-1.069,1.19-1.518,2.604-0.895,4.521c1.205,3.198,4.535,4.977,7.783,5.11
		c2.742,0.294,6.475-1.431,8.376,1.19c0.161,0.655,0.092,1.391-0.441,1.846c-0.683,0.656-1.929,0.644-2.742,0.309
		c-0.522-0.107-0.871-0.843-1.42-0.669c-0.161,0.655,0.242,1.284,0.522,1.846c0.884,1.471,2.462,1.606,3.852,2.008
		c0.215,0.855,0.509,1.672,1.11,2.367l0.218,0.233c-1.018-0.187-2.53-0.34-3.548-0.313c-0.625,0.404-1.254,0.838-1.877,1.298
		c-1.6,1.173-3.142,2.525-4.424,4.037v2.373c-1.752,1.79-3.438,3.61-4.815,5.563c-0.683,1.604-1.352,3.21-1.701,4.962
		c-0.174,0.906-0.427,2.22,0.591,2.811c1.831,1.35,3.92,2.968,6.298,2.073l1.7,0.748c1.564,0.416,2.568-0.937,3.853-1.406
		c1.004,0.337,2.182,0.241,3.265,0.364c1.766-0.136,3.988,0.198,4.815-1.554c0.242-1.656-0.027-3.545-0.667-4.962
		c-2.209,0.867-4.979,0.867-7.332,0.294c-1.298,1.015-2.688,1.804-4.081,2.595c-0.99-0.32-1.991-0.628-2.889-1.188
		c1.646-2.893,4.026-5.621,6.595-8.001l0.294-2.37l1.273-1.257c1.858-1.121,3.142-3.625,5.779-2.889
		c0.702-0.633,1.123-1.376,1.368-2.193c0.038-0.131,0.073-0.267,0.101-0.403c-0.693-0.829-0.52-2.126-0.44-3.182
		c0.724-2.998,3.985-4.537,6.368-5.86c0.561,0.588,0.643,1.365,0.896,2.073c0.617,2.995-1.312,5.311-3.479,7.037
		c-0.058,0.106-0.111,0.215-0.161,0.335c-0.5,1.187-0.5,2.786,0.003,3.678c3.251,2.288,5.792,5.658,7.049,9.176
		c2.436,7.544-0.454,15.222-6.676,20.159l-0.215,0.591l-0.021,9.669c0.226,0.427,0.892,0.701,1.349,0.549
		c2.928-0.549,4.454-5.538,5.857-8.667c3.319-2.89,5.071-6.554,6.141-10.447c2.021-8.804-0.775-17.39-7.544-23.263
		C58.981,48.416,59.743,48.011,60.412,47.365L60.412,47.365z"/>
	<path fill-rule="evenodd" clip-rule="evenodd" fill="#231F20" d="M61.073,87.146c0-1.096,0.862-2.005,1.953-2.005
		s1.991,0.871,1.991,1.98c0,1.121-0.881,2.008-1.991,2.008C61.96,89.13,61.073,88.227,61.073,87.146L61.073,87.146z M64.812,87.139
		c0-0.99-0.778-1.787-1.766-1.787s-1.763,0.797-1.763,1.787c0,0.969,0.783,1.785,1.743,1.785
		C64.009,88.924,64.812,88.146,64.812,87.139L64.812,87.139z M62.102,85.877h0.934c0.206,0,0.476,0,0.661,0.119
		c0.152,0.098,0.244,0.283,0.244,0.457c0,0.343-0.308,0.596-0.625,0.62c0.258,0.055,0.392,0.359,0.489,0.582
		c0.049,0.104,0.131,0.283,0.204,0.368c0.049,0.062,0.104,0.073,0.201,0.073v0.108h-0.152c-0.128,0-0.277,0.021-0.386-0.06
		c-0.112-0.087-0.196-0.326-0.245-0.446c-0.147-0.343-0.166-0.561-0.577-0.561h-0.098v0.653c0,0.07-0.024,0.294,0.098,0.299
		l0.177,0.011v0.104h-0.925v-0.104l0.111-0.005c0.128,0,0.158-0.044,0.158-0.166v-1.788c-0.011-0.119-0.065-0.136-0.172-0.141
		l-0.098-0.006V85.877L62.102,85.877z M62.839,87.014c0.373,0,0.721-0.044,0.721-0.517c0-0.152-0.049-0.305-0.177-0.403
		c-0.111-0.087-0.226-0.087-0.356-0.087c-0.231,0-0.274,0-0.274,0.245v0.762H62.839L62.839,87.014z"/>
</g>
</svg>
