<?xml version="1.0" encoding="utf-8"?>
<!-- Generator: Adobe Illustrator 16.0.0, SVG Export Plug-In . SVG Version: 6.00 Build 0)  -->
<!DOCTYPE svg PUBLIC "-//W3C//DTD SVG 1.1//EN" "http://www.w3.org/Graphics/SVG/1.1/DTD/svg11.dtd">
<svg version="1.1" id="Layer_1" xmlns="http://www.w3.org/2000/svg" xmlns:xlink="http://www.w3.org/1999/xlink" x="0px" y="0px"
	 width="124.642px" height="95.761px" viewBox="0 0 124.642 95.761" enable-background="new 0 0 124.642 95.761"
	 xml:space="preserve">
<g>
	<path fill="#FFD200" d="M95.647,92.476c2.187-3.77,2.843-8.381,2.449-12.944c-6.618-2.355-12.731-10.076-13.171-10.648
		c-0.193,0.17-19.942,9.721-22.493,10.971c-0.036,0.043-0.03,0.131-0.115,0.136c-0.944-0.927-1.775-2.066-2.649-3.151
		c-1.948,2.859-8.365,12.627-8.46,12.768c-0.057-0.066-1.63-2.658-2.526-3.766c-0.193,1.24-1.286,7.45-1.68,9.92h43.614
		C92.206,94.49,93.985,93.403,95.647,92.476z"/>
	<path fill="#FFD200" d="M42.05,92.802c0.088-0.066,0.155-0.16,0.186-0.254c0.412-1.287,0.879-2.598,1.221-3.889
		c-1.095,0.664-2.092,1.336-3.161,2.15c-0.084,0.018-1.344-9.684-2.074-14.463c-1.195,1.764-2.334,3.618-3.521,5.42
		c-0.01-0.003-0.034-0.003-0.058-0.003c-0.838-1.481-2.402-4.671-2.437-4.685c-0.084,0.191-1.978,3.895-1.667,7.152
		c0.037,0.037,0.071,0.073,0.055,0.123c-0.039,0.021-0.063,0.056-0.089,0.082c-3.574-0.754-6.652-2.948-8.595-6.121
		c-0.042-0.064-0.081-0.096-0.265-0.015c-2.066,0.243-3.823-1.075-4.799-2.671c-0.412-1.273-0.522-2.726-0.002-3.898
		c-0.089-0.988-0.378-2.267-0.506-3.414c-0.622-4.542-0.864-8.938-0.567-13.691c0.1-2.571,1.168-7.318,2.111-9.384
		c0.229-0.491,0.449-0.838,0.491-0.872c0.531-1.048,1.523-2.011,2.542-2.62c2.986-1.673,7.042-1.46,10.448-0.707
		c1.216,0.35,2.489,0.62,3.664,1.053c0.861-3.086,1.961-5.935,3.928-8.479c1.688-2.075,3.991-3.748,6.53-4.241
		c0.013-0.123,0.509,0.132-0.168-3.258c-0.354-1.667-0.793-3.33-1.374-4.941c-0.021-0.106-0.042-0.241-0.062-0.384
		c-22.605,7.698-38.918,29.123-38.918,54.3c0,7.144,1.307,14.088,3.854,20.668h28.321C38.705,94.59,40.385,93.555,42.05,92.802z"/>
	<path fill="#FFD200" d="M84.578,30.448c-0.075,0.01-4.113,2.867-6.115,3.778c8.264,2.966,16.602,5.74,24.62,9.24
		c1.628,0.947,3.468,1.444,5.1,2.405c-0.113,0.081,0.188,0.176,0.309,0.202c0.657,2.836,0.323,11.338-2.554,15.727
		c-1.432,2.915-2.939,5.886-2.84,9.426c-0.176,2.768,0.602,5.084,2.167,7.203c0.073,0.186,0.294,0.367,0.378,0.604
		c-0.023,0.398,0.104,0.99-0.283,1.332c-2.388,4.764-3.988,10.035-4.897,15.396h15.361c2.549-6.584,3.856-13.528,3.856-20.668
		c0-24.128-14.982-44.809-36.126-53.268c-2.739,2.036-5.599,4.1-7.493,5.319C78.957,27.52,84.161,30.156,84.578,30.448z"/>
	<path d="M122.162,75.093c0,7.266-1.307,14.225-3.68,20.668h2.645c2.33-6.619,3.515-13.557,3.515-20.668
		c0-25.166-15.003-46.88-36.526-56.71c-0.681,0.522-1.432,1.093-2.229,1.695C107.217,29.227,122.162,50.412,122.162,75.093z"/>
	<path d="M2.481,75.093c0-26.669,17.449-49.253,41.549-56.983c0.295-1.058,0.794-2.045,1.35-2.98C19.225,22.531,0,46.601,0,75.093
		c0,7.113,1.183,14.05,3.513,20.668h2.646C3.785,89.318,2.481,82.359,2.481,75.093z"/>
	<path d="M4.962,75.093c0-25.177,16.313-46.602,38.918-54.3c-0.09-0.643-0.162-1.529-0.08-1.598c0.047-0.371,0.13-0.73,0.229-1.085
		C19.93,25.84,2.481,48.424,2.481,75.093c0,7.266,1.304,14.225,3.677,20.668h2.658C6.269,89.181,4.962,82.237,4.962,75.093z"/>
	<path d="M119.68,75.093c0,7.14-1.308,14.084-3.856,20.668h2.659c2.373-6.443,3.68-13.402,3.68-20.668
		c0-24.682-14.945-45.866-36.275-55.015c-0.751,0.567-1.534,1.154-2.333,1.748C104.697,30.285,119.68,50.965,119.68,75.093z"/>
	<path d="M52.339,12.663c0.263-0.317,2.519-3.351,3.337-4.322c-0.326,1.119-0.693,2.344-0.843,3.613
		c-0.078,0.423-0.064,0.855-0.047,1.288c1.56-0.189,3.135-0.33,4.728-0.4c4.594-1.952,11.601-4.637,15.822-4.955
		c-1.407,1.842-2.92,3.691-4.463,5.485c6.069,0.837,11.858,2.552,17.242,5.011c1.346-1.031,2.412-1.863,2.931-2.282
		c-3.726-2.802-12.485-3.135-14.062-3.188c3.359-2.644,9.482-5.738,12.576-6.525c0.002-0.06-2.104-2.428-7.993-3.334
		c-7.888-1.05-15.335,1.368-21.981,4.774c-0.037,0.01-0.113,0.055-0.147-0.005C59.411,7.601,62.62,0.196,62.491,0
		c-2.104,1.329-4.259,2.752-6.25,4.312c-4.138,3.193-7.667,6.231-10.636,10.432c-0.078,0.126-0.149,0.258-0.225,0.386
		c2.039-0.577,4.119-1.052,6.236-1.42C51.86,13.354,52.104,13.004,52.339,12.663z"/>
	<path d="M45.315,26.119c0.677,3.39,0.181,3.135,0.168,3.258c-2.539,0.494-4.842,2.167-6.53,4.241
		c-1.967,2.544-3.066,5.393-3.928,8.479c-1.174-0.434-2.448-0.704-3.664-1.053c-3.406-0.754-7.462-0.966-10.448,0.707
		c-1.019,0.609-2.011,1.572-2.542,2.62c-0.042,0.034-0.262,0.381-0.491,0.872c-0.943,2.066-2.011,6.813-2.111,9.384
		c-0.297,4.752-0.055,9.148,0.567,13.691c0.128,1.147,0.417,2.426,0.506,3.414c-0.52,1.173-0.41,2.625,0.002,3.898
		c0.977,1.596,2.733,2.914,4.799,2.671c0.185-0.081,0.224-0.05,0.265,0.015c1.943,3.173,5.021,5.367,8.595,6.121
		c0.026-0.026,0.05-0.061,0.089-0.082c0.016-0.05-0.018-0.086-0.055-0.123c-0.31-3.258,1.583-6.961,1.667-7.152
		c0.035,0.014,1.599,3.203,2.437,4.685c0.023,0,0.047,0,0.058,0.003c1.187-1.802,2.327-3.656,3.521-5.42
		c0.73,4.779,1.99,14.48,2.074,14.463c1.069-0.814,2.066-1.486,3.161-2.15c-0.341,1.291-0.809,2.602-1.221,3.889
		c-0.031,0.094-0.098,0.188-0.186,0.254c-1.666,0.753-3.345,1.788-4.913,2.959h9.866c0.394-2.47,1.486-8.68,1.68-9.92
		c0.896,1.107,2.469,3.699,2.526,3.766c0.095-0.141,6.512-9.908,8.46-12.768c0.875,1.085,1.706,2.225,2.649,3.151
		c0.085-0.005,0.079-0.093,0.115-0.136c2.55-1.25,22.299-10.801,22.493-10.971c0.439,0.572,6.553,8.292,13.171,10.648
		c0.394,4.563-0.263,9.175-2.449,12.944c-1.662,0.927-3.441,2.014-5.03,3.285h9.845c0.909-5.361,2.51-10.633,4.897-15.396
		c0.387-0.342,0.26-0.934,0.283-1.332c-0.084-0.236-0.305-0.418-0.378-0.604c-1.565-2.119-2.343-4.436-2.167-7.203
		c-0.1-3.54,1.408-6.511,2.84-9.426c2.877-4.389,3.211-12.891,2.554-15.727c-0.12-0.026-0.422-0.121-0.309-0.202
		c-1.632-0.961-3.472-1.458-5.1-2.405c-8.019-3.5-16.356-6.273-24.62-9.24c2.002-0.912,6.04-3.769,6.115-3.778
		c-0.417-0.292-5.621-2.928-8.518-3.303c1.895-1.219,4.754-3.283,7.493-5.319c-1.896-0.759-3.842-1.418-5.831-1.974
		c-3.584,3.165-7.565,5.84-11.532,8.288c2.423,0.672,6.233,1.996,8.94,3.376c-0.134,0.071-0.598,0.153-0.635,0.187
		c-6.123,1.455-22.726,2.284-23.213,2.258c-0.16-4.456-1.347-8.817-2.176-13.105c-0.102-0.523-0.115-1.041-0.064-1.553
		c-1.753,0.417-3.475,0.916-5.162,1.49c0.02,0.143,0.041,0.278,0.062,0.384C44.522,22.789,44.961,24.452,45.315,26.119z
		 M23.821,60.88c-0.693,1.114-2.059,1.814-3.306,1.788c-0.404,0.026-0.864,0.011-1.215-0.179c0.648-1.37,2.066-2.15,3.576-2.208
		c0.383,0.071,0.846,0.024,1.174,0.236C24.015,60.689,23.857,60.715,23.821,60.88z M25.656,57.553
		c-0.924,0.635-2.316,0.764-3.406,0.299c-1.744-0.95-2.114-3.544-2.146-3.621c-0.812-4.443,1.04-8.925,4.942-11.309
		c0.269-0.215,0.586-0.268,0.864-0.446c-0.04,0.279-0.294,0.455-0.42,0.73c-1.712,2.739-1.591,6.515,0.583,8.98
		c0.762,0.858,0.981,1.72,1.069,2.77C27.003,55.907,26.491,56.934,25.656,57.553z"/>
	<path d="M54.708,14.824c0.058,0.029,0.176,0.223,0.262,0.07c0.001-0.023,1.863-0.914,4.544-2.053
		c-1.593,0.071-3.168,0.211-4.728,0.4C54.806,13.771,54.831,14.302,54.708,14.824z"/>
	<path d="M68.895,15.619c1.979,0.217,3.931,0.528,5.848,0.933c2.014,0.024,4.021,0.16,5.945,0.471
		c-0.275,0.288-0.564,0.562-0.847,0.842c2.064,0.631,4.082,1.372,6.046,2.214c0.797-0.602,1.548-1.173,2.229-1.695
		c-5.384-2.459-11.173-4.173-17.242-5.011C70.217,14.136,69.558,14.884,68.895,15.619z"/>
	<path d="M49.885,16.554c0.481-0.985,1.106-1.937,1.73-2.845c-2.117,0.368-4.197,0.844-6.236,1.42
		c-0.556,0.935-1.055,1.922-1.35,2.98C45.942,17.497,47.894,16.975,49.885,16.554z"/>
	<path d="M83.554,21.826c0.799-0.593,1.582-1.181,2.333-1.748c-1.964-0.842-3.981-1.583-6.046-2.214
		c-0.688,0.683-1.394,1.348-2.118,1.988C79.712,20.408,81.657,21.067,83.554,21.826z"/>
	<path d="M43.88,20.793c1.688-0.575,3.409-1.073,5.162-1.49c0.092-0.938,0.407-1.857,0.842-2.749
		c-1.991,0.421-3.943,0.942-5.855,1.556c-0.099,0.354-0.182,0.714-0.229,1.085C43.718,19.264,43.79,20.15,43.88,20.793z"/>
	<path d="M67.944,16.846c2.198-0.202,4.502-0.322,6.798-0.295c-1.917-0.405-3.868-0.716-5.848-0.933
		c-0.344,0.381-0.688,0.77-1.031,1.141C67.85,16.83,67.924,16.796,67.944,16.846z"/>
	<path fill="#FFFFFF" d="M19.299,62.489c0.352,0.19,0.811,0.205,1.215,0.179c1.248,0.026,2.613-0.674,3.306-1.788
		c0.037-0.165,0.194-0.191,0.229-0.362c-0.328-0.212-0.791-0.165-1.174-0.236C21.366,60.339,19.947,61.12,19.299,62.489z"/>
	<path fill="#FFFFFF" d="M25.49,43.207c0.126-0.276,0.381-0.452,0.42-0.73c-0.278,0.178-0.596,0.231-0.864,0.446
		c-3.902,2.384-5.753,6.866-4.942,11.309c0.031,0.077,0.402,2.671,2.146,3.621c1.09,0.465,2.481,0.336,3.406-0.299
		c0.835-0.62,1.347-1.646,1.487-2.597c-0.087-1.05-0.307-1.912-1.069-2.77C23.899,49.721,23.778,45.945,25.49,43.207z"/>
	<path fill="#FFFFFF" d="M70.873,13.372c1.543-1.794,3.056-3.643,4.463-5.485c-4.221,0.318-11.228,3.003-15.822,4.955
		c0.931-0.042,1.865-0.071,2.805-0.071C65.223,12.771,68.074,12.986,70.873,13.372z"/>
	<path fill="#FFFFFF" d="M54.833,11.954c0.15-1.269,0.518-2.494,0.843-3.613c-0.818,0.971-3.075,4.004-3.337,4.322
		c-0.235,0.341-0.479,0.691-0.724,1.046c1.049-0.182,2.105-0.338,3.171-0.467C54.77,12.809,54.756,12.377,54.833,11.954z"/>
	<path fill="#FFFFFF" d="M49.106,20.856c0.83,4.288,2.017,8.649,2.176,13.105c0.487,0.026,17.09-0.803,23.213-2.258
		c0.037-0.034,0.501-0.116,0.635-0.187c-2.707-1.381-6.518-2.705-8.94-3.376c3.967-2.448,7.948-5.123,11.532-8.288
		c-4.905-1.37-10.066-2.118-15.403-2.118c-4.571,0-9.013,0.553-13.277,1.568C48.992,19.815,49.005,20.333,49.106,20.856z"/>
	<path fill="#FFFFFF" d="M68.895,15.619c0.663-0.735,1.322-1.483,1.979-2.247c-2.799-0.386-5.65-0.602-8.554-0.602
		c-0.94,0-1.875,0.03-2.805,0.071c-2.681,1.139-4.543,2.03-4.544,2.053c-0.086,0.153-0.205-0.042-0.262-0.07
		c0.123-0.522,0.098-1.053,0.078-1.582c-1.065,0.129-2.122,0.285-3.171,0.467c-0.624,0.908-1.249,1.86-1.73,2.845
		c4.013-0.848,8.17-1.302,12.436-1.302C64.543,15.252,66.734,15.383,68.895,15.619z"/>
	<path fill="#FFFFFF" d="M80.688,17.022c-1.924-0.311-3.932-0.447-5.945-0.471c1.729,0.365,3.429,0.803,5.099,1.313
		C80.123,17.583,80.412,17.31,80.688,17.022z"/>
	<path fill="#FFFFFF" d="M62.32,17.734c5.336,0,10.498,0.748,15.403,2.118c0.725-0.64,1.43-1.305,2.118-1.988
		c-1.67-0.51-3.37-0.948-5.099-1.313c-2.296-0.027-4.6,0.093-6.798,0.295c-0.021-0.05-0.095-0.016-0.081-0.087
		c0.344-0.371,0.688-0.759,1.031-1.141c-2.16-0.236-4.352-0.367-6.574-0.367c-4.265,0-8.423,0.454-12.436,1.302
		c-0.436,0.892-0.75,1.811-0.842,2.749C53.307,18.288,57.749,17.734,62.32,17.734z"/>
</g>
</svg>
