<?xml version="1.0" encoding="utf-8"?>
<!-- Generator: Adobe Illustrator 16.0.0, SVG Export Plug-In . SVG Version: 6.00 Build 0)  -->
<!DOCTYPE svg PUBLIC "-//W3C//DTD SVG 1.1//EN" "http://www.w3.org/Graphics/SVG/1.1/DTD/svg11.dtd">
<svg version="1.1" id="Layer_1" xmlns="http://www.w3.org/2000/svg" xmlns:xlink="http://www.w3.org/1999/xlink" x="0px" y="0px"
	 width="136.108px" height="97.566px" viewBox="0 0 136.108 97.566" enable-background="new 0 0 136.108 97.566"
	 xml:space="preserve">
<g>
	<path fill="#FFFFFF" d="M134.89,16.359c-1.983-3.648-9.367-4.981-14.651-4.6c-3.425-4.735-7.928-8.946-13.767-11.52
		c-0.132,0.329-0.337,0.841-0.445,1.236C104.341,0.98,100.501,0.042,97.334,0l-0.021,1.094c-3.425,0.442-8.246,1.064-9.858,1.392
		c0.241,0.821,0.313,1.205,0.515,1.736c-11.661,3.212-22.294,9.366-31.852,17.618c0.417,0.127,0.706,0.312,0.854,0.328
		c-10.418,3.932-18.039,10.038-24.679,16.258c-7.851,1.215-21.941,3.043-21.941,3.043L0,61.971l27.375-5.773
		c-2.284,6.469-8.527,12.243-14.276,16.133c-0.762,3.974-2.833,7.736-6.469,10.145c1.699,1.904-0.393,4.309-0.69,6.338
		c2.326,3.002,7.074,8.754,7.074,8.754l2.917-12.174l5.872-5.984c-0.375,1.006-0.236,2.149-0.122,2.59
		c-0.524,1.089-1.986,2.43-2.096,4.318c2.223,2.887,6.491,8.124,6.491,8.124s3.086-8.204,4.481-12.388l23.714-21.907
		c1.795-0.264,6.177-0.21,9.349-0.12l1.352-1.311l6.678-0.508c0.551,0.898,0.864,1.465,1.228,2.156
		c-1.209,0.695-2.259,1.238-3.413,1.811L66.45,72.946c0,0,5.778-3.118,8.75-4.677c1.079,0.17,3.59,0.103,4.89-0.178
		c-0.637,3.044-1.741,9.363-1.741,9.363s5.134-2.755,7.543-4.025c6.568,0.029,13.174-2.604,14.979-3.516
		c5.037-2.004,3.552-14.492,3.552-14.492c1.013-0.131,2.275-0.434,3.249-0.132c2.85,0.728,0.978,11.45,0.978,11.45l6.594-6.283
		l0.712,0.925c0,0,3.976-4.954,5.749-7.579c4.849,0.046,5.985-3.025,6.589-5.109c2.427-8.359,5.245-7.776,6.302-12.342
		C135.235,34.497,137.479,20.763,134.89,16.359z M3.374,59.352l8.023-16.186l108.428-15.861c-3.362,1.754-3.657,5.558-2.051,7.566
		C89.258,41.108,3.374,59.352,3.374,59.352z M29.754,80.531c-1.521,3.467-4.112,10.734-4.112,10.734s-2.99-3.463-4.216-5.154
		c-0.021-1.271,1.353-2.578,2.029-3.848c-0.126-0.379-0.169-0.889-0.083-1.226c2.409-1.776,3.932-4.312,4.438-7.103
		c8.199-12.877,23.655-13.488,23.655-13.488L29.754,80.531z M99.826,68.469c-6.661,3.306-14.516,3.355-14.516,3.355l-4.663,2.469
		c0,0,0.908-4.34,1.289-6.368c5.146-0.861,12.373-2.22,15.101-6.312c0.891-1.338,1.495-3.586,2.092-5.31
		c1.184-0.169,2.199-0.345,3.426-0.514C102.554,55.789,103.923,66.42,99.826,68.469z M134.174,27.175
		c-0.294,4.239-0.885,9.454-3.096,11.974c-2.145,2.447-3.781,6.011-5.008,9.718c-0.646,2.196-1.494,3.203-5.459,3.379
		c-1.48,2.158-2.912,4.444-4.693,6.385l-0.507-0.72c-1.734,1.644-2.629,2.599-4.488,4.278c0.198-2.158,0.301-5.106-0.409-6.654
		c-1.058-1.733-2.839-2.148-4.615-1.893l-8.284,1.266c-0.524,1.733-1.063,4.183-2.334,5.957c-1.896,4.442-17.388,6.005-20.159,5.588
		c-1.945,0.971-3.847,2.199-5.876,3.128c0.557-2.077,1.835-6.46,1.835-6.46s2.716-1.382,4.018-2.107
		c-0.196-0.432-0.283-0.615-0.568-1.283c2.409-0.592,5.131-1.766,7.034-3.585c0,0-11.98,0.794-17.602,1.177
		c-0.343,0.428-0.678,0.846-1.1,1.098c-12.81-0.549-24.943,1.184-33.906,10.232c-2.875,2.874-6.003,5.98-7.863,9.277
		c-2.29,2.379-4.251,4.396-6.637,6.786l-2.537,9.194L7.94,88.691c-0.536-0.738,1.873-4.021,0.639-5.709
		c2.875-2.07,5.201-6.111,5.879-9.48c5.809-3.914,13.002-10.814,15.137-17.77c0,0,88.905-19.3,90.172-19.55
		c-0.591,1.692-0.254,4.016,1.648,4.904c0.93,0.212,1.945-0.085,2.748-0.633c-0.416-0.39-1.227-0.93-1.436-1.733
		c-0.383-1.016,0.168-1.902,0.803-2.623c-1.143-2.537-0.212-5.453,1.311-7.524c1.057-1.395,2.743-2.993,3.927-4.261L35.236,37.917
		c0,0,12.241-11.442,25.818-15.525c-0.408-0.173-1.413-0.593-2.147-0.858c9.666-7.898,20.512-13.719,31.171-16.254
		c-0.158-0.534-0.31-0.938-0.494-1.542c0.323-0.04,9.084-1.333,9.084-1.333c-0.025-0.271-0.02-0.309-0.052-0.709
		c2.124-0.01,6.604,1.157,8.297,1.724c0.114-0.268,0.253-0.57,0.326-0.748c6.552,2.919,11.901,10.756,11.901,10.756
		c4.312-0.471,8.828,0.053,12.293,1.873C134.653,16.979,134.466,22.998,134.174,27.175z"/>
	<path fill="#BF2026" d="M119.825,27.305L11.397,43.166L3.374,59.352c0,0,85.884-18.243,114.401-24.479
		C116.168,32.863,116.462,29.059,119.825,27.305z"/>
	<g>
		<path fill="#194787" d="M131.434,15.298c-3.465-1.819-7.981-2.343-12.293-1.873c0,0-5.35-7.837-11.901-10.756
			c-0.073,0.178-0.212,0.48-0.326,0.748c-1.693-0.567-6.174-1.734-8.297-1.724c0.032,0.4,0.027,0.438,0.052,0.709
			c0,0-8.761,1.293-9.084,1.333c0.185,0.605,0.336,1.009,0.494,1.542c-10.659,2.536-21.505,8.356-31.171,16.254
			c0.734,0.265,1.738,0.685,2.147,0.858c-13.577,4.083-25.818,15.525-25.818,15.525l93.531-13.605
			c-1.184,1.268-2.871,2.866-3.927,4.261c-1.523,2.071-2.454,4.988-1.311,7.524c-0.636,0.72-1.186,1.607-0.803,2.623
			c0.209,0.803,1.019,1.344,1.436,1.733c-0.803,0.548-1.818,0.845-2.748,0.633c-1.902-0.888-2.24-3.212-1.648-4.904
			c-1.268,0.25-90.173,19.55-90.173,19.55c-2.134,6.955-9.328,13.855-15.136,17.77c-0.679,3.369-3.005,7.41-5.88,9.48
			c1.234,1.688-1.174,4.971-0.639,5.709l3.979,5.219l2.536-9.194c2.387-2.391,4.348-4.407,6.638-6.786
			c1.859-3.297,4.988-6.403,7.863-9.277c8.963-9.049,21.097-10.781,33.906-10.232c0.422-0.252,0.757-0.67,1.099-1.098
			c5.623-0.383,17.603-1.177,17.603-1.177c-1.903,1.819-4.625,2.993-7.034,3.585c0.284,0.668,0.371,0.852,0.568,1.283
			c-1.302,0.726-4.018,2.107-4.018,2.107s-1.279,4.383-1.835,6.46c2.028-0.929,3.931-2.157,5.876-3.128
			c2.771,0.417,18.263-1.145,20.159-5.588c1.27-1.774,1.809-4.224,2.333-5.957l8.284-1.266c1.777-0.256,3.559,0.159,4.616,1.893
			c0.71,1.548,0.607,4.496,0.408,6.654c1.859-1.68,2.755-2.635,4.488-4.278l0.508,0.72c1.781-1.94,3.212-4.227,4.692-6.385
			c3.965-0.177,4.813-1.184,5.46-3.379c1.227-3.708,2.863-7.272,5.007-9.718c2.211-2.52,2.802-7.735,3.097-11.974
			C134.466,22.998,134.653,16.979,131.434,15.298z"/>
		<path fill="#194787" d="M99.128,56.303c-0.597,1.725-1.202,3.973-2.092,5.31c-2.728,4.093-9.954,5.45-15.101,6.312
			c-0.38,2.029-1.289,6.369-1.289,6.369l4.663-2.469c0,0,7.854-0.051,14.516-3.355c4.097-2.049,2.728-12.68,2.728-12.68
			C101.327,55.958,100.312,56.134,99.128,56.303z"/>
		<path fill="#194787" d="M27.81,73.936c-0.507,2.789-2.028,5.326-4.438,7.102c-0.086,0.338-0.043,0.846,0.083,1.227
			c-0.677,1.27-2.052,2.575-2.029,3.848c1.226,1.691,4.216,5.154,4.216,5.154s2.591-7.268,4.112-10.734l21.711-20.084
			C51.465,60.447,36.009,61.059,27.81,73.936z"/>
	</g>
</g>
</svg>
