<?xml version="1.0" encoding="utf-8"?>
<!-- Generator: Adobe Illustrator 16.0.0, SVG Export Plug-In . SVG Version: 6.00 Build 0)  -->
<!DOCTYPE svg PUBLIC "-//W3C//DTD SVG 1.1//EN" "http://www.w3.org/Graphics/SVG/1.1/DTD/svg11.dtd">
<svg version="1.1" id="Layer_1" xmlns="http://www.w3.org/2000/svg" xmlns:xlink="http://www.w3.org/1999/xlink" x="0px" y="0px"
	 width="168.997px" height="132.289px" viewBox="0 0 168.997 132.289" enable-background="new 0 0 168.997 132.289"
	 xml:space="preserve">
<g>
	<path fill-rule="evenodd" clip-rule="evenodd" d="M20.856,8.819c0,0,12.633-11.56,40.402,1.907
		c-0.954,3.933-3.933,7.151-3.933,7.151s-9.653-4.529-12.156-1.55c-2.622,2.86-7.151,2.503-7.151,2.503
		C33.49,16.566,20.856,8.819,20.856,8.819L20.856,8.819L20.856,8.819z"/>
	<path fill-rule="evenodd" clip-rule="evenodd" d="M60.305,18.473c0,0,0-3.218,5.602-3.218c-2.265-0.715-4.171-0.715-4.171-0.715
		c1.43-2.145,1.668-3.337,6.555-3.337c4.887,0,7.032,4.767,7.032,4.767c-1.192,1.311-0.953,4.41-0.238,5.363
		c-3.218-0.715-9.177-4.291-9.653-2.86C62.927,18.473,60.305,18.473,60.305,18.473L60.305,18.473L60.305,18.473z"/>
	<path fill-rule="evenodd" clip-rule="evenodd" d="M76.513,15.255c0,0,14.302,5.363,30.747,4.648
		c16.447-0.715,26.34,11.918,26.34,11.918s6.316,5.005,15.254,6.912c-7.031,0-7.746,0.238-9.414,0.596
		c-1.668,0.238-7.27-2.026-11.084-4.648c-3.934-2.622-23.002-3.694-23.002-3.694c-14.777,0-14.777,0-14.777,0
		s-10.727-0.238-12.872-8.223C75.56,14.778,76.513,15.255,76.513,15.255L76.513,15.255L76.513,15.255z"/>
	<path fill-rule="evenodd" clip-rule="evenodd" d="M144.327,40.998c0,0,6.078,2.622,7.508,6.316
		c4.768,1.907,9.654,2.622,11.322,3.575c1.787,0.954,3.932,1.311,5.84,1.668c-1.549-0.715-2.027-2.502-3.457-3.337
		c-2.74-1.668-5.244-0.238-7.865-2.86c-1.906-2.026-3.1-4.767-6.078-5.363C149.45,40.521,146.352,40.044,144.327,40.998
		L144.327,40.998L144.327,40.998z"/>
	<path fill-rule="evenodd" clip-rule="evenodd" d="M65.072,22.405c-5.125,0-5.125,0-5.125,0s-1.311-2.86,6.197-2.86
		C65.072,20.737,64.476,21.095,65.072,22.405L65.072,22.405L65.072,22.405z"/>
	<path fill-rule="evenodd" clip-rule="evenodd" d="M72.58,21.333c0,0-5.721-0.477-6.197,0.238s0.238,1.192,0.238,1.192
		c5.721,0.238,5.721,0.238,5.721,0.238L72.58,21.333L72.58,21.333z"/>
	<path fill-rule="evenodd" clip-rule="evenodd" d="M73.653,24.312c0,0,4.052-1.311,7.508,5.244
		c-0.238,2.741-2.741,6.317-3.218,6.317c-0.477,0-3.337,1.907-4.291,3.694c0-3.218,0.715-4.41,1.907-6.078
		c1.192-1.668,0.954-6.316,0.477-7.032C75.56,25.743,73.653,24.312,73.653,24.312L73.653,24.312L73.653,24.312z"/>
	<path fill-rule="evenodd" clip-rule="evenodd" d="M69.958,9.534c0,0,6.436-0.357,9.058,2.86c2.622,3.218,5.125,0.953,5.125,0.953
		s0.357-2.86-1.907-4.529c3.218,2.265,4.886,4.887,5.124,5.482c0.357,0.715,4.291,2.979,4.291-2.86
		c2.502,2.622,2.859,2.86,3.217,3.814c0.24,1.072,3.457,4.529,6.438,2.026c2.859-2.622,3.217-5.84-3.219-8.462
		c0.953,3.218,0.596,5.84-2.264,2.979c-2.98-2.979-5.84-4.29-9.654-2.979C81.638,7.27,75.798,6.555,69.958,9.534L69.958,9.534
		L69.958,9.534z"/>
	<path fill-rule="evenodd" clip-rule="evenodd" d="M72.104,40.759c0,0,1.788,0.953,3.456-2.265c1.907,0,5.602-1.192,5.84-6.436
		c0.954,4.529,0.954,11.322,0.715,12.275c-0.238,0.953-0.238,0.953-0.238,0.953s2.384,0.715,3.337-1.43
		c2.621,1.43,42.428,24.432,42.428,24.432c-0.715,0.953-0.715,0.953-0.715,0.953C83.068,47.076,83.068,47.076,83.068,47.076
		s-3.456-0.834-5.125-0.834c1.907-0.715,1.907-2.383,1.907-2.383s-4.291,1.43-4.529,1.43c0.238-2.145,0-3.575-0.953-3.575
		c-0.954,0,0.715,3.575-2.265,3.575C69.243,45.288,71.865,43.143,72.104,40.759L72.104,40.759L72.104,40.759z"/>
	<path fill-rule="evenodd" clip-rule="evenodd" d="M83.068,40.282c0,0,0-4.886,0-5.839c0-0.954,3.099,2.622,3.575,4.886
		C85.213,39.806,84.021,39.567,83.068,40.282L83.068,40.282L83.068,40.282z"/>
	<path fill-rule="evenodd" clip-rule="evenodd" d="M84.021,42.428c0,0,1.43-3.695,4.647-0.477c3.1,3.099,1.193,2.622,1.193,2.622
		S84.975,42.428,84.021,42.428L84.021,42.428L84.021,42.428z"/>
	<polygon fill-rule="evenodd" clip-rule="evenodd" points="11.68,5.84 10.845,7.508 51.604,29.318 52.558,27.888 11.68,5.84 	"/>
	<path fill-rule="evenodd" clip-rule="evenodd" d="M0,0c5.602,5.84,5.602,5.84,5.602,5.84s4.052,1.668,4.052-1.669
		C9.653,0.715,3.337,1.311,0,0L0,0L0,0z"/>
	<path fill-rule="evenodd" clip-rule="evenodd" d="M18.831,28.841c0,0-5.005,1.668-5.721-4.529
		C16.447,26.935,17.639,28.126,18.831,28.841L18.831,28.841L18.831,28.841z"/>
	<path fill-rule="evenodd" clip-rule="evenodd" d="M12.633,22.882c0,0,5.125,3.098,6.793,3.933
		C18.115,24.074,22.287,24.074,12.633,22.882L12.633,22.882L12.633,22.882z"/>
	<path fill-rule="evenodd" clip-rule="evenodd" d="M18.354,30.271c0,0-3.337,0.477-3.575,4.409c2.86,0.954,4.291,1.668,4.291,3.337
		c-2.145,0.715-4.052-0.715-4.767-1.43c-2.979,0.238-8.224,0.477-8.224,0.477s7.032,2.503,10.369,2.503
		c-0.715,1.668-2.145,2.145-2.145,3.575s-0.239,6.555-0.239,6.555s1.192-1.192,0.954,0.238c-0.238,1.431-1.43,1.192-1.43,1.192
		s-2.264,3.694-0.477,4.886c1.668,1.191,4.052-2.026,4.052-2.026s2.741-0.238,3.456-0.238s0.953-3.099,0.238-4.529
		s0.238-3.933,0.238-3.933c0.715,2.979,1.668,2.979,2.622,2.979c0.953,0,3.099-8.7,3.099-8.7s2.502-6.793-4.529-8.581
		c-2.145,0-3.218,0-3.218,1.311C18.115,32.059,18.354,30.271,18.354,30.271L18.354,30.271L18.354,30.271z"/>
	<path fill-rule="evenodd" clip-rule="evenodd" d="M20.142,55.299c0,0-2.265-0.834-3.457,1.192
		C18.592,57.206,19.665,56.729,20.142,55.299L20.142,55.299L20.142,55.299z"/>
	<path fill-rule="evenodd" clip-rule="evenodd" d="M21.81,53.035c0,0,2.383,0.238,2.622-2.146c1.668,0.954,3.218,2.622,2.384,3.576
		c-0.715,1.072-5.005,3.456-1.907,7.031c3.218,3.695,6.078,1.073,7.031,1.073c-2.86-0.834-6.316,0-4.767-3.218
		c1.43-3.099,2.384-3.575,2.384-3.575c-1.192-0.954-1.192-3.933-1.192-3.933s-3.218-2.622-6.078-2.622
		C22.763,51.128,23.001,52.319,21.81,53.035L21.81,53.035L21.81,53.035z"/>
	<path fill-rule="evenodd" clip-rule="evenodd" d="M28.365,41.951c0,0-0.238,2.384-2.026,2.86c1.311,2.265,0.834,3.456,0.834,3.456
		c1.907,0.239,1.669-2.741,1.669-2.741L28.365,41.951L28.365,41.951z"/>
	<path fill-rule="evenodd" clip-rule="evenodd" d="M25.862,31.463c0,0,2.741,3.933,2.979,7.27c0.238,3.457,1.191,2.026,1.191,2.026
		s0.715,12.514,0.715,14.301c0,1.668,1.192,1.668,1.192,1.668c6.198-2.503,11.084-9.296,17.4-10.964
		c-2.86-5.244-6.912-12.275-9.892-13.467C36.588,30.986,30.748,29.318,25.862,31.463L25.862,31.463L25.862,31.463z"/>
	<path fill-rule="evenodd" clip-rule="evenodd" d="M25.147,30.033c0,0-0.954,0.954-3.337-1.43c-2.384-2.383-2.384-1.787-2.384-1.787
		s3.099-1.073,3.814-0.835C23.955,26.219,23.955,29.318,25.147,30.033L25.147,30.033L25.147,30.033z"/>
	<path fill-rule="evenodd" clip-rule="evenodd" d="M27.411,29.318c0,0-0.834,0.834-2.384-1.668
		c-1.668-2.622-1.668-1.907-1.668-1.907s2.503-0.954,2.979-0.715C26.815,25.385,26.577,28.484,27.411,29.318L27.411,29.318
		L27.411,29.318z"/>
	<path fill-rule="evenodd" clip-rule="evenodd" d="M37.899,30.51c-0.477-2.146-0.477-2.741-0.477-4.052
		c0-1.311-0.596-1.668-3.337-1.907c0.596,1.549,1.073,2.265,0.834,2.979c-0.119,0.834-0.477,0.477-2.026-2.503
		c-1.311-0.953-2.146-0.477-2.146-0.477s1.669,2.86,1.907,4.648l0,0C34.8,29.318,37.184,30.033,37.899,30.51L37.899,30.51
		L37.899,30.51z"/>
	<polygon fill-rule="evenodd" clip-rule="evenodd" points="32.655,29.199 32.655,29.199 32.655,29.199 32.655,29.199 32.655,29.199 
			"/>
	<path fill-rule="evenodd" clip-rule="evenodd" d="M26.935,24.67c0,0,0,0,0.119,0C26.935,24.551,26.935,24.67,26.935,24.67
		L26.935,24.67L26.935,24.67z"/>
	<path fill-rule="evenodd" clip-rule="evenodd" d="M31.344,28.245c-0.238-0.596-0.834-1.072-1.073-1.668
		c-0.119-0.715,0.119-1.43-0.357-1.907c-0.357-0.357-2.265-0.119-2.86,0c0.119,0.119,0.357,0.715,0.834,2.503
		c0.119,0.596,0.357,1.311,0.834,1.907c0.477,0,1.788,0,2.741,0C31.583,28.841,31.583,28.603,31.344,28.245L31.344,28.245
		L31.344,28.245z"/>
	<path fill-rule="evenodd" clip-rule="evenodd" d="M31.225,58.874c3.575-1.787,6.793-4.291,10.13-6.435
		c2.383-1.55,5.839-4.41,8.819-4.41c1.907,0,0.715,2.86-1.311,2.86c1.311,0.954,1.788,1.43,0.954,1.668
		c-0.715,0.239-2.145,1.907-3.576,1.192c-1.43-0.715-2.383,0.715-1.907,1.788c0.477,0.954-1.668,2.622-4.171,1.907
		c-2.383-0.715-1.907,1.907-1.907,3.099c-2.383,1.192-7.031,0.238-7.031,0.238V58.874L31.225,58.874z"/>
	<path fill-rule="evenodd" clip-rule="evenodd" d="M30.748,60.066c0,0.477-0.477,0.953-1.072,0.953
		c-0.596,0-1.073-0.477-1.073-0.953c0-0.477,0.477-0.834,1.073-0.834C30.271,59.232,30.748,59.589,30.748,60.066L30.748,60.066
		L30.748,60.066z"/>
	<path fill-rule="evenodd" clip-rule="evenodd" d="M51.604,53.988c0,0-5.601,3.457-6.793,4.41c-1.192,0.953-4.648,2.86-5.363,2.86
		c-0.715,0,3.456,1.549,7.27,1.549C47.195,61.02,46.241,59.351,51.604,53.988L51.604,53.988L51.604,53.988z"/>
	<path fill-rule="evenodd" clip-rule="evenodd" d="M52.082,56.014c0,0-3.218,2.145-3.218,5.005c3.457,0.715,3.457,0.715,3.457,0.715
		s1.907-2.146,3.099-2.146C53.512,58.398,52.558,57.921,52.082,56.014L52.082,56.014L52.082,56.014z"/>
	<path fill-rule="evenodd" clip-rule="evenodd" d="M50.89,63.761c0,0,2.145-1.192,3.337-2.741c1.192-1.43,2.384,0.238,2.384,0.238
		s-0.238,3.933-0.715,4.886C53.988,65.429,50.89,63.761,50.89,63.761L50.89,63.761L50.89,63.761z"/>
	<path fill-rule="evenodd" clip-rule="evenodd" d="M38.972,30.629c0,0,0.715-3.337,0-4.886c1.668,0.834,2.384,1.907,2.384,1.907
		c-0.238,3.814-0.238,3.814-0.238,3.814L38.972,30.629L38.972,30.629z"/>
	<path fill-rule="evenodd" clip-rule="evenodd" d="M41.117,31.463c0,0,2.741,2.383,2.979,3.217c1.668-0.834,2.979-2.622,2.979-3.099
		c-0.835-0.953-1.669-2.264-1.669-2.264c-0.238,2.146-0.834,2.979-1.43,2.979s0.12-4.052,0.12-4.052
		c-0.954-0.357-2.265-0.834-2.265-0.834S42.309,31.463,41.117,31.463L41.117,31.463L41.117,31.463z"/>
	<path fill-rule="evenodd" clip-rule="evenodd" d="M45.288,35.992c0,0,0.834,0.834,1.073,1.43c2.145-1.788,2.979-3.933,2.979-3.933
		c-1.311-0.954-1.311-0.954-1.311-0.954s-1.311,2.265-2.384,2.979L45.288,35.992z"/>
	<path fill-rule="evenodd" clip-rule="evenodd" d="M47.314,38.495c0,0,2.503-2.383,2.503-3.218c1.43,1.549,1.43,2.145,1.43,2.145
		s-2.145,2.265-2.86,2.265C47.553,39.687,47.314,38.495,47.314,38.495L47.314,38.495L47.314,38.495z"/>
	<path fill-rule="evenodd" clip-rule="evenodd" d="M69.481,45.646c0,0-0.477-1.788-1.072,0.953
		c-0.715,2.741-1.192,2.622-1.788,2.384c0,1.311-2.502,3.814-6.316,8.343c0,0,0.954,0.119,2.026,0
		c0.119-0.12,0.238-0.12,0.357-0.238c2.741-0.596,3.337-2.861,3.337-3.814c0.715-1.073,1.43-2.145,2.026-3.099
		c0.357,6.913-7.628,9.296-9.058,9.892c-1.43,0.477-1.43,3.933-1.668,6.912c0,0,2.265,0.119,3.456,0.477
		c0-2.145,3.695-4.529,3.695-4.529c-3.218,0-4.886,2.86-4.886,2.86s-0.954,0.715-1.073,0c-0.119-0.596,0.357-2.86,1.073-4.648
		c10.369-3.575,9.772-8.7,10.249-10.13C70.316,49.578,69.481,45.646,69.481,45.646L69.481,45.646L69.481,45.646z"/>
	<path fill-rule="evenodd" clip-rule="evenodd" d="M67.217,58.755c0,0,1.431-3.457,2.384-3.695c1.073-0.357,2.146-7.27,2.146-8.342
		c1.072-0.477,2.264-0.238,2.86-1.073c0.715,2.384,0.834,7.747,0.238,7.747c-0.715,0-2.026,0.834-2.622,2.145
		c-0.596,1.192-2.384,1.55-2.384,1.55S69.481,58.994,67.217,58.755L67.217,58.755L67.217,58.755z"/>
	<path fill-rule="evenodd" clip-rule="evenodd" d="M70.673,57.921c0,0,2.026-0.954,2.741-1.788c0.596-0.834,2.502-0.954,2.502-0.954
		s2.265,3.576,4.052,4.171c-2.384,1.788-3.337,3.218-4.171,5.005c-0.834,1.788-2.145,3.218-2.145,3.218
		c-1.788,0.238-1.788,0.238-1.788,0.238s-3.337-0.357-5.125,1.55c-0.357-3.337-0.477-8.224,2.86-9.296
		C73.057,58.874,70.673,57.921,70.673,57.921L70.673,57.921L70.673,57.921z"/>
	<path fill-rule="evenodd" clip-rule="evenodd" d="M78.658,55.776c0,0,0.358-2.384-2.026-4.291c0-3.456,0.119-4.41,1.549-4.41
		s4.648,0.715,4.648,2.502C82.83,51.247,80.088,55.776,78.658,55.776L78.658,55.776L78.658,55.776z"/>
	<path fill-rule="evenodd" clip-rule="evenodd" d="M76.394,52.558c0,0,0.238,1.907,1.311,2.146c-1.788,0.477-2.86-0.834-2.86-0.834
		S76.275,53.75,76.394,52.558L76.394,52.558L76.394,52.558z"/>
	<path fill-rule="evenodd" clip-rule="evenodd" d="M82.949,53.273c0,0-1.192,6.197-3.337,7.866
		c-2.026,1.788,1.549,1.073,1.549,1.073s-0.238,1.549-3.099,3.813c-2.741,2.265-0.596,4.887-0.596,4.887s0.834,2.86-2.026,1.191
		c0.477,2.265,0.596,2.741-1.072,2.622c0.953,1.668,4.529,3.695,6.674,0.238c2.026-3.337,3.933-7.866,4.529-8.938
		c-1.907,0.596-1.668,1.073-4.171,0.358c-2.622-0.715,3.933-2.146,5.601-5.959c1.549-2.146,2.266-2.741,2.266-2.741
		c-1.67-0.477-2.266-0.119-1.551-1.549c-1.787,0.238-2.025,1.311-3.217,0.954c-1.192-0.358,1.311-2.146,1.311-2.146
		s1.191-0.477,3.219-0.238c-1.789-1.788-4.292-1.43-5.722-1.43H82.949z"/>
	<path fill-rule="evenodd" clip-rule="evenodd" d="M63.88,71.507c0,0,3.457,0,5.602-2.265c2.86-0.477,4.41,0,4.648,1.788
		c0.239,1.668-1.788,2.145-1.788,2.86c0,0.715,2.265,3.576,1.073,3.576c-1.311,0-2.503,1.072-5.602-1.668
		c-3.218-2.622-3.933-1.43-3.933-1.43V71.507L63.88,71.507z"/>
	<path fill-rule="evenodd" clip-rule="evenodd" d="M70.554,79.373c0,0-1.668-0.715-2.502-2.145
		c-0.835-1.311-4.648-0.834-4.887,0.119c-0.238,1.073-1.668,6.912-2.741,8.104c-1.073,1.073-1.907,6.674-2.383,7.509
		c-0.596,0.953,3.694,2.383,3.694,2.383s1.311-4.887,4.052-7.627C68.409,84.855,70.554,80.208,70.554,79.373L70.554,79.373
		L70.554,79.373z"/>
	<path fill-rule="evenodd" clip-rule="evenodd" d="M65.43,68.409c0,0-2.384-0.715-3.337-1.788s1.788-1.43,2.741-0.954
		C65.906,66.144,65.548,67.455,65.43,68.409L65.43,68.409L65.43,68.409z"/>
	<path fill-rule="evenodd" clip-rule="evenodd" d="M63.522,74.963c0,0-2.384,3.814-2.741,5.363
		c-0.357,1.668-1.668-0.357-1.668-0.357s2.265-4.768,2.741-5.125C62.331,74.487,63.522,74.963,63.522,74.963L63.522,74.963
		L63.522,74.963z"/>
	<path fill-rule="evenodd" clip-rule="evenodd" d="M58.517,82.591c0,0,2.622-0.119,1.549,1.788
		c-0.954,1.907-2.384,0.596-2.384,0.596S58.517,84.021,58.517,82.591L58.517,82.591L58.517,82.591z"/>
	<path fill-rule="evenodd" clip-rule="evenodd" d="M58.398,87.239c0,0-2.741,7.508-2.741,9.772s-2.979-1.192-4.052-1.192
		c1.43-2.86,4.529-8.581,5.602-8.581C58.398,87.239,58.398,87.239,58.398,87.239L58.398,87.239L58.398,87.239z"/>
	<path fill-rule="evenodd" clip-rule="evenodd" d="M60.781,96.654c0,0-2.86-0.954-3.456-1.43c-0.477-0.477-1.668,4.052,1.073,4.171
		c2.741,0.12,2.86-0.596,2.741-2.264L60.781,96.654z"/>
	<path fill-rule="evenodd" clip-rule="evenodd" d="M75.44,77.228c0,0-7.389,10.369-8.581,11.203c2.265,0.954,5.84,2.622,7.032,1.43
		c1.073-1.073,5.244-8.342,5.482-10.011C79.493,78.301,77.109,77.943,75.44,77.228L75.44,77.228L75.44,77.228z"/>
	<path fill-rule="evenodd" clip-rule="evenodd" d="M63.165,94.986c0,0,0.954-3.814,2.741-3.814s6.316-0.715,8.462,1.43
		c2.026,0.477,3.337,1.192,4.529,1.788c1.072,0.596,2.264,1.668,4.528,1.668c2.146,0,4.171,0.596,4.171,0.596
		c-3.932,0.357-7.15,0.119-8.223,0.477c-1.192,0.357-3.933,1.668-5.363,1.668s-9.177-0.834-10.845-1.668
		c-1.549-0.834-1.549-0.834-1.549-0.834c5.601,0.238,8.819,1.311,10.25,0.238C73.415,95.343,63.165,94.986,63.165,94.986
		L63.165,94.986L63.165,94.986z"/>
	<path fill-rule="evenodd" clip-rule="evenodd" d="M52.082,92.721c0,0-10.726,0.596-11.918,0.357
		c2.979,1.311,10.13,2.384,10.726,2.384C51.604,95.462,52.082,92.721,52.082,92.721L52.082,92.721L52.082,92.721z"/>
	<path fill-rule="evenodd" clip-rule="evenodd" d="M26.815,48.982c0,0,2.264,0.238,2.979,2.026c0.596,1.788-1.668-0.238-1.668-0.238
		L26.815,48.982L26.815,48.982z"/>
	<path fill-rule="evenodd" clip-rule="evenodd" d="M50.771,40.521c0,0-2.622-0.715-2.741-0.238
		c-0.119,0.477,1.311,2.265,1.311,3.576s0-2.622,1.311-2.86L50.771,40.521z"/>
	<path fill-rule="evenodd" clip-rule="evenodd" d="M46.123,67.932c0,0-14.897-0.834-17.043-0.834c-2.026,0-5.005,6.197-5.601,7.866
		c-0.596,1.788-0.596,1.788-0.596,1.788c-0.358-0.238-0.954,0.357-1.669,1.312c-0.596,0.953-2.383,1.191-2.383,1.191
		s-6.198,1.073-9.535-0.238c-3.456-1.192-4.529,4.529-5.125,4.529c-0.715,0,0.477,5.005,0.477,5.005s1.668,14.421,2.741,14.54
		c0.954,0.119,2.503-0.477,3.694,2.384c1.073,2.979,7.27,2.979,7.27,2.979c0.12-2.622,0.12-2.622,0.12-2.622s-1.073,0-2.265-1.311
		c-1.073-1.311-2.383-4.052-5.125-5.125c-2.741-1.072,0.954-1.311,0.954-1.311s-1.192-1.549-3.575-3.217
		c-2.384-1.549-1.311-8.104-0.596-8.581c0.596-0.477,1.549-2.026,1.788-2.979c0.119-1.073,10.25,0.596,12.276-0.715
		c1.907-1.311,2.741,0.119,0.715-2.383c-1.907-2.622,8.7-0.357,8.7-0.357s5.959,0.119,8.581,1.311
		c2.741,1.192,13.587,5.125,15.017,6.316c1.43,1.192,4.171-11.441,5.839-13.586C62.45,71.746,47.91,68.29,47.91,68.29
		s-5.482,11.203-6.316,11.203C40.878,79.492,40.64,78.896,46.123,67.932L46.123,67.932L46.123,67.932z"/>
	<path fill-rule="evenodd" clip-rule="evenodd" d="M39.925,88.55c0,0-4.648-1.43-5.125-2.979c-0.477-1.669,6.555,2.979,7.628,2.979
		c0.953,0,0,2.741-0.715,3.099c-0.596,0.357,3.456-0.357,4.052-0.477c0.596-0.119,6.555,0.357,6.555-3.099
		c-2.86-0.357-5.721,0.238-9.416-3.694c-4.767-0.477-7.508-2.384-9.057-3.337c-1.668-1.073-7.032-0.239-7.032-0.239
		s-0.596,1.788,5.363,1.668c1.907,0.834,2.622,1.55,1.787,1.55c-0.834,0-8.342-0.715-14.659,0.477c0,0-3.456,0.357-5.125-0.119
		c-1.788-0.477-4.529,2.86-4.529,2.86s-1.549,3.099-0.357,4.886c1.073,1.788,7.866,9.416,8.224,11.918
		c3.099,1.788,5.839,2.979,6.555,3.933c0.834,0.954,2.503,0.834,3.099,1.43c0.715,0.596,7.747-1.668,7.747-1.668
		s-0.477-6.078-7.866-6.197c-1.191,1.073-1.311,2.979-2.741,2.265c-1.43-0.834,0.357-1.549,0.357-2.503s-1.787-0.834-2.264-0.954
		c-0.477-0.119-2.264-1.549-2.502-2.622c-0.12-0.954-4.291-4.409-4.291-4.409s-1.787-2.861,3.695-1.669
		c5.482,1.073,5.363,4.052,16.328,2.741C39.925,92.483,39.925,88.55,39.925,88.55L39.925,88.55L39.925,88.55z"/>
	<path fill-rule="evenodd" clip-rule="evenodd" d="M76.513,89.384c0,0,4.052-8.462,4.052-10.13c0-1.788,6.078-9.772,5.839-11.203
		c4.172-0.239,27.889,2.502,31.939,6.793c4.172,4.41,6.555,14.54,6.555,20.618c-2.621,0.477-7.27,2.145-9.652,5.005
		c-2.145,0-6.555-1.191-7.986-1.191c-1.43,0-3.098,0.238-5.6-2.146c-4.053-0.238-5.244-0.238-6.555-0.238
		c-1.193,0-3.814-1.43-3.814-1.43s-3.219-2.145-7.985-2.145c-2.741-1.55-4.171-2.503-6.793-2.979V89.384z"/>
	<path fill-rule="evenodd" clip-rule="evenodd" d="M87.12,66.144c0,0,23.24,0.715,31.225,7.509
		c-3.336-4.41-17.877-9.177-30.748-9.177C86.405,65.429,87.12,66.144,87.12,66.144L87.12,66.144L87.12,66.144z"/>
	<path fill-rule="evenodd" clip-rule="evenodd" d="M96.417,98.084c0,0,1.906,4.172,2.621,5.363
		c0.715,1.192,7.986,5.602,13.824,6.078c5.721,0.477,18.354,0.715,19.309,1.192c0.953,0.477,4.885,9.415,6.793,11.083
		c0.238,2.503-0.238,3.933,3.098,4.648c3.457,0.715,1.312,3.814,5.602,5.125c4.41,1.192,1.191-1.311,3.695-1.311
		c2.383,0,0.238,0.715,3.336,0.238c3.219-0.477-2.145-6.793-3.336-7.27s-3.695,2.026-3.695,2.026s-2.145,1.668-1.668-3.218
		c-2.145-2.383-2.383-1.191-2.861-3.099c-0.477-1.907-5.6-14.063-7.984-17.162c-2.502-3.218-2.979,0.954-8.58-0.477
		c-5.482-1.55-5.244-2.979-5.244-2.979s-2.504,1.907-3.695,2.145c-1.191,0.357-1.906,2.979-1.906,2.979s-2.861-1.43-5.125-1.907
		c-2.145-0.477-3.812,0.477-3.812,0.477s-1.432,0.954-5.602-2.265C97.846,98.084,98.084,98.084,96.417,98.084L96.417,98.084
		L96.417,98.084z"/>
	<path fill-rule="evenodd" clip-rule="evenodd" d="M122.993,98.084c0,0,1.906,0.715,3.338,1.668
		c1.549,1.073,3.932,0.477,3.932,0.477S127.403,95.224,122.993,98.084L122.993,98.084L122.993,98.084z"/>
	<path fill-rule="evenodd" clip-rule="evenodd" d="M125.854,111.432c0,0,2.025,8.462,2.025,12.038
		c1.906,1.788,3.336,1.549,3.814,3.218c0.477,1.668,2.383,2.86,3.932,1.668c1.43-1.192,1.43,1.907,1.43,1.907
		c3.1,2.026,3.1,2.026,3.1,2.026s0.953-4.41,0-4.887s-3.338-3.695-4.291-5.363c-0.477,1.192-1.549,0.477-2.025-1.668
		c-0.477-2.145-2.145-6.555-2.145-7.747S125.854,111.432,125.854,111.432L125.854,111.432L125.854,111.432z"/>
	<path fill-rule="evenodd" clip-rule="evenodd" d="M97.131,101.541c0,0-1.311-2.741-7.508-3.695
		c0.238,1.669,1.191,0.954,1.906,1.669c0.715,0.715,3.336,1.788,3.336,2.741C94.866,103.209,97.131,103.924,97.131,101.541
		L97.131,101.541L97.131,101.541z"/>
	<path fill-rule="evenodd" clip-rule="evenodd" d="M120.491,73.414c-0.357,0.119,2.145,2.265,2.383,2.384
		c1.43,0.715,3.695,1.072,5.006-0.119c0.596,0.834,1.549,1.549,2.145,2.384c0.834,1.311,1.432,2.86,1.789,4.409
		c1.072,5.005,5.004,11.084,13.348,11.084c2.621,0.477,4.053,0.953,4.887,1.311c-0.238-1.549-1.67-2.742-4.053-3.099
		c2.383-0.953,3.338-1.549,5.84-1.43c2.383,0.238,4.529,1.43,5.959,3.098c0,0,2.859,0-3.576-5.363
		c-4.051-1.43-6.793-1.788-7.389-2.741c2.742-0.357,5.482-0.953,8.342,1.311c2.98,2.265,2.623,3.218,5.482,3.218
		c-2.264-3.099-1.787-2.86-2.74-4.886c-0.953-1.907-4.053-2.503-8.58-1.668c-4.41,0.715-4.291,0-4.291,0
		c0.477,1.43,0.477,1.43,0.477,1.43s-5.006,0.596-6.912-5.006c-1.191-1.43-1.43-1.907-1.43-1.907
		c2.145,0.954,2.979,2.622,2.979,2.741c0.477,0.834,2.502,1.43,3.338,1.668c2.979,0.834,5.721-0.953,8.699-0.715
		c2.264,0.119,4.172,1.191,6.197,1.907c-1.072-2.622-2.025-3.575-4.291-4.529c-1.668,0-2.264,0.596-4.527,0.834
		c-2.266,0.12-6.438,0.477-12.754-6.316C129.905,69.362,120.491,73.414,120.491,73.414L120.491,73.414L120.491,73.414z"/>
	<path fill-rule="evenodd" clip-rule="evenodd" d="M31.583,65.31c0,0.596-0.715,0.954-1.668,0.954c-0.834,0-1.549-0.358-1.549-0.954
		c0-0.477,0.715-0.954,1.549-0.954C30.868,64.356,31.583,64.833,31.583,65.31L31.583,65.31L31.583,65.31z"/>
	<path fill-rule="evenodd" clip-rule="evenodd" d="M34.085,64.476c0,0.477-0.358,0.834-0.954,0.834
		c-0.477,0-0.953-0.357-0.953-0.834c0-0.357,0.477-0.715,0.953-0.715C33.728,63.761,34.085,64.118,34.085,64.476L34.085,64.476
		L34.085,64.476z"/>
	<path fill-rule="evenodd" clip-rule="evenodd" d="M37.422,64.595c0,0.477-0.477,0.954-0.834,0.954
		c-0.477,0-0.834-0.477-0.834-0.954c0-0.477,0.357-0.834,0.834-0.834C36.945,63.761,37.422,64.118,37.422,64.595L37.422,64.595
		L37.422,64.595z"/>
	<path fill-rule="evenodd" clip-rule="evenodd" d="M40.878,64.595c0,0.477-0.477,0.954-1.192,0.954
		c-0.596,0-1.191-0.477-1.191-0.954c0-0.477,0.596-0.834,1.191-0.834C40.402,63.761,40.878,64.118,40.878,64.595L40.878,64.595
		L40.878,64.595z"/>
	<path fill-rule="evenodd" clip-rule="evenodd" d="M44.573,64.953c0,0.357-0.596,0.715-1.311,0.715c-0.715,0-1.43-0.357-1.43-0.715
		c0-0.477,0.715-0.715,1.43-0.715C43.977,64.237,44.573,64.476,44.573,64.953L44.573,64.953L44.573,64.953z"/>
	<path fill-rule="evenodd" clip-rule="evenodd" d="M48.029,65.31c0,0.596-0.596,0.954-1.192,0.954c-0.715,0-1.192-0.358-1.192-0.954
		c0-0.477,0.477-0.954,1.192-0.954C47.434,64.356,48.029,64.833,48.029,65.31L48.029,65.31L48.029,65.31z"/>
	<path fill-rule="evenodd" clip-rule="evenodd" d="M51.366,67.217c0,0.596-0.477,1.073-1.073,1.073
		c-0.596,0-1.191-0.477-1.191-1.073c0-0.477,0.596-0.953,1.191-0.953C50.89,66.264,51.366,66.74,51.366,67.217L51.366,67.217
		L51.366,67.217z"/>
	<path fill-rule="evenodd" clip-rule="evenodd" d="M54.346,67.812c0,0.477-0.477,0.954-0.953,0.954
		c-0.477,0-0.834-0.477-0.834-0.954c0-0.477,0.357-0.834,0.834-0.834C53.869,66.979,54.346,67.336,54.346,67.812L54.346,67.812
		L54.346,67.812z"/>
	<path fill-rule="evenodd" clip-rule="evenodd" d="M57.325,69.243c0,0.358-0.477,0.596-1.073,0.596
		c-0.596,0-1.073-0.238-1.073-0.596c0-0.238,0.477-0.477,1.073-0.477C56.849,68.766,57.325,69.005,57.325,69.243L57.325,69.243
		L57.325,69.243z"/>
	<path fill-rule="evenodd" clip-rule="evenodd" d="M57.206,70.077c0,0.477,0.715,0.715,1.549,0.715s1.549-0.238,1.549-0.715
		c0-0.357-0.715-0.715-1.549-0.715S57.206,69.72,57.206,70.077L57.206,70.077L57.206,70.077z"/>
	<path fill-rule="evenodd" clip-rule="evenodd" d="M62.927,71.507c0,0.357-0.477,0.715-0.834,0.715
		c-0.477,0-0.834-0.357-0.834-0.715c0-0.477,0.357-0.834,0.834-0.834C62.45,70.673,62.927,71.031,62.927,71.507L62.927,71.507
		L62.927,71.507z"/>
	<path fill-rule="evenodd" clip-rule="evenodd" d="M74.129,25.98c0,0-9.057-1.906-17.996-0.715c-1.43,3.337-2.622,5.244-3.099,6.555
		c2.86,0.238,4.529,0,4.529,1.43c0,1.43-4.291,4.529-5.959,6.078c-0.238,3.575,1.907,14.897,2.86,16.685
		c3.91-1.777,13.471-6.501,19.555-29.618c0.04,0.068,0.091,0.141,0.152,0.217c0.151,0.187,0.365,0.41,0.607,0.654
		c-1.672,5.753-3.634,11.8-6.624,17.088c-2.999,5.305-7.035,9.846-12.859,12.557l0.17,0.366c5.911-2.751,10.003-7.353,13.041-12.726
		c3.027-5.354,5.004-11.475,6.691-17.288l0.034-0.115l-0.084-0.084c-0.272-0.272-0.511-0.517-0.663-0.705
		c-0.103-0.126-0.189-0.167-0.179-0.183l-0.195-0.13C74.118,26.026,74.124,26.004,74.129,25.98L74.129,25.98L74.129,25.98z"/>
</g>
</svg>
