<?xml version="1.0" encoding="utf-8"?>
<!-- Generator: Adobe Illustrator 16.0.0, SVG Export Plug-In . SVG Version: 6.00 Build 0)  -->
<!DOCTYPE svg PUBLIC "-//W3C//DTD SVG 1.1//EN" "http://www.w3.org/Graphics/SVG/1.1/DTD/svg11.dtd">
<svg version="1.1" id="Layer_1" xmlns="http://www.w3.org/2000/svg" xmlns:xlink="http://www.w3.org/1999/xlink" x="0px" y="0px"
	 width="135.922px" height="122.338px" viewBox="0 0 135.922 122.338" enable-background="new 0 0 135.922 122.338"
	 xml:space="preserve">
<g id="layer1" transform="translate(-275.10461,-346.74898)">
	<g id="g8" transform="matrix(1.25,0,0,1.25,282.28236,392.0761)">
		<path id="path10" fill="#1C2524" d="M102.951-15.585c-0.377-7.518-3.761-14.411-5.767-18.421l-1.127-2.255l0.126,2.005
			c0.252,2.631,0.88,11.905-1.877,17.168c-3.51,7.143-13.537,6.516-16.921,6.266h-0.248c-5.391-0.376-23.058-1.002-28.573-1.002
			c-7.143,0-15.037,0.627-21.429,1.128c-3.133,0.25-5.763,0.376-7.644,0.501c-0.126,0-0.375,0-0.627,0
			C9.969-9.319,4.329-11.95,2.073-17.965c-1.378-3.76-1.254-11.028-1.254-14.536v-2.507l-0.75,1.252
			c-1.629,3.134-4.762,8.898-5.765,18.422C-6.322-3.93-0.433,0.079,3.954,2.085c4.637,2.254,9.523,2.505,11.027,2.63h0.126
			c0.249,0,0.626,0,1.003,0.126c0.5,0,1.003,0,1.504,0.126c-0.752,0.125-1.88,0.377-2.884,0.502
			c-1.003,0.122-2.004,0.373-2.505,0.498C11.096,6.094,6.71,7.223,4.204,7.974c-2.004,0.752-4.26,1.755-4.26,1.755l-0.377,0.25
			l0.251,0.375c0,0,0.752,1.005,1.504,1.755c1.629,1.629,6.014,4.385,11.278,3.761c4.261-0.628,6.517-1.504,7.395-2.006
			c0.375,0.877,1.001,3.008,1.627,4.637c1.88,4.763,6.266,13.91,7.895,17.043c1.378,2.507,2.632,4.763,3.508,6.266l0.377,0.501
			c-0.251,1.002-1.003,1.627-1.504,2.13c-0.126,0.126-0.251,0.126-0.377,0.251l-0.124,0.126v0.126c0,0.876-0.251,8.771,5.138,14.534
			l0.125,0.126c2.756,1.003,6.141,2.006,11.78,2.006c5.765,0,10.523-1.252,12.278-2.132v-0.123h0.126
			c3.761-4.388,5.39-11.028,5.516-13.535v-0.124l-0.126-0.125c-0.125-0.124-0.251-0.124-0.377-0.25
			c-0.502-0.628-1.252-1.255-1.629-2.884c0.377-0.752,1.252-2.632,2.005-4.136c0.499-0.876,0.751-1.629,1.002-2.006
			c1.504-3.131,6.141-13.03,8.021-17.667c1.127-3.007,1.755-4.511,2.128-5.013c0.754,0.377,3.007,1.378,7.145,1.755
			c5.261,0.627,10.4-3.007,11.778-5.013c0.252-0.25,0.754-0.75,0.754-0.75l0.248-0.377l-0.373-0.251c-0.126,0-0.252,0-1.005-0.375
			l-6.015-1.879c-0.75-0.377-4.386-1.13-7.016-1.63L80.894,4.59l0.628-0.125C87.663,3.463,103.952,0.581,102.951-15.585z"/>
	</g>
	<g id="g12" transform="matrix(1.25,0,0,1.25,285.56486,399.2551)">
		<path id="path14" fill="#D2153A" d="M-2.557-37.619c-0.125,4.26-0.125,8.772,0.876,12.782c-0.876-0.752-1.879-1.754-2.756-2.507
			c-0.877,0.879-1.629,1.882-2.505,2.758C-6.067-29.098-4.563-33.483-2.557-37.619z"/>
	</g>
	<g id="g16" transform="matrix(1.25,0,0,1.25,450.67111,398.84485)">
		<path id="path18" fill="#D2153A" d="M-33.39-26.137l0.252,1.128l-2.132-1.505c-1.001,0.377-1.88,1.003-2.881,1.505
			c0.75-4.011,0.875-8.271,0.624-12.531C-35.647-33.907-34.516-30.022-33.39-26.137z"/>
	</g>
	<g id="g20" transform="matrix(1.25,0,0,1.25,348.94011,482.52698)">
		<path id="path22" fill="#D2153A" d="M-4.636-53.358c2.255,3.506,6.516,4.512,10.274,3.506c1.504-0.249,2.885-0.876,4.138-1.378
			c-1.127,3.636-2.006,7.77-1.88,11.908c0,3.632,0.628,7.141,1.63,10.4c-0.502-0.251-1.002-0.628-1.63-0.879
			c-7.769-3.883-18.546-3.758-26.19,0.251c0.375-1.252,0.752-2.505,1.003-3.757c1.252-5.891,0.375-12.031-1.631-17.295
			c4.136,1.755,10.027,2.13,13.41-1.755C-5.137-52.608-5.011-52.983-4.636-53.358z"/>
	</g>
	<g id="g24" transform="matrix(1.25,0,0,1.25,332.73773,487.24323)">
		<path id="path26" fill="#D2153A" d="M-8.843-54.249c-0.249,1.753-0.752,3.508-2.505,4.134c-1.378,0.377-2.758-0.377-3.635-1.378
			c-0.375-0.502-0.75-1.003-0.876-1.63c2.13,1.378,5.012,0.252,6.892-1.127H-8.843z"/>
	</g>
	<g id="g28" transform="matrix(1.25,0,0,1.25,400.62611,487.65323)">
		<path id="path30" fill="#D2153A" d="M-21.801-54.326c-0.499,1.502-1.755,3.007-3.38,3.256c-1.127,0.25-2.132-0.375-2.882-1.38
			c-0.377-0.498-0.502-1.127-0.628-1.753C-26.811-52.698-23.804-53.073-21.801-54.326z"/>
	</g>
	<g id="g32" transform="matrix(1.25,0,0,1.25,395.08861,489.90948)">
		<path id="path34" fill="#D2153A" d="M-21.631-51.871c0.754,0.126,1.63,0,2.383-0.251c-2.131,5.39-4.762,10.651-7.518,15.916
			c-0.88-2.632-0.754-5.516-0.502-8.398c0.377-3.509,1.252-6.891,2.253-10.148C-24.388-53.375-23.135-52.122-21.631-51.871z"/>
	</g>
	<g id="g36" transform="matrix(1.25,0,0,1.25,335.19861,489.70448)">
		<path id="path38" fill="#D2153A" d="M-8.054-36.042c-3.259-5.013-5.764-10.278-8.27-15.665c1.127,0.502,2.882,1.002,4.009,0.126
			c1.129-0.754,1.755-1.88,2.132-3.133C-7.428-49.326-6.801-42.185-8.054-36.042z"/>
	</g>
	<g id="g40" transform="matrix(1.25,0,0,1.25,345.45373,515.34323)">
		<path id="path42" fill="#D2153A" d="M14.692-52.293c-0.624,4.637-2.253,8.771-5.261,12.406
			c-6.767,2.756-16.041,3.008-22.807,0.124c-3.384-3.759-4.637-8.396-4.888-13.408c7.269-5.263,18.672-6.39,26.941-2.633
			C10.809-54.8,12.816-53.799,14.692-52.293z"/>
	</g>
	<g id="g44" transform="matrix(1.25,0,0,1.25,293.97298,433.50673)">
		<path id="path46" fill="#D2153A" d="M83.949-24.544c-5.638-2.255-13.031-3.509-19.172-3.634
			c-0.627-7.018-1.378-11.279-2.759-15.164c-3.13-0.25-17.416-0.752-22.806-0.752c-5.512,0-19.422,0.878-22.681,1.003
			c-1.252,3.759-2.756,8.395-3.384,15.289c-6.264,0.373-14.788,2.128-20.425,4.26c-0.877,0.375-1.254,0.624-1.254,0.624
			c0.878,1.005,4.011,4.762,9.902,4.887c1.879,0,5.389-0.249,7.77-1.252c0.627-0.375,1.879-0.876,1.879-0.876
			s0.375,0.75,0.626,1.378c0.626,1.753,1.38,4.26,1.88,5.387c0.877,1.63,2.13,2.882,4.386,3.009c1.88,0,3.259-1.631,3.508-1.88
			c-5.512-0.377-7.768-3.259-8.145-7.768c-1.378-0.251-1.755-0.377-1.88-1.005c-0.124-0.75,0.126-1.504,0.628-2.38
			c0.626-0.753,1.629-1.629,4.26-0.753c1.755,0.502,3.133,1.629,4.011,2.506c1.252,1.003,4.511,4.387,6.515,5.64
			c2.132,1.252,6.142,2.381,8.773-0.251c2.632-2.505,2.882-4.637,3.259-5.889c-4.511-0.126-8.647-0.628-12.532-1.129
			c-1.129-0.124-0.627-1.252,0.251-1.002c0,0,7.267,1.002,12.406,1.002c0-0.627,0-1.627,0-2.756
			c-3.009-0.123-8.021-0.375-12.782-1.38c-1.005-0.248-0.877-1.378,0.124-1.127c0.628,0.252,8.521,1.378,12.783,1.378
			c0-1.001,0-2.255,0-3.508c-2.758,0.126-6.892-0.249-12.657-1.129c-1.003-0.125-0.877-1.001,0-1.001c0,0,7.269,1.127,12.657,1.001
			c0-0.751,0-1.753,0-2.756c0-1.002,0.876-1.128,0.876,0c0,0.376,0.126,1.379,0.126,2.756c5.136-0.125,9.773-0.751,11.905-1.127
			c1.252-0.25,1.127,0.752,0.502,0.877c-0.754,0.124-6.768,1.252-12.533,1.378c0,1.003,0.126,2.381,0.126,3.383
			c3.884-0.126,8.27-0.252,12.156-1.127c1.378-0.251,1.503,0.876,0.251,1.002c-3.761,0.628-9.148,1.256-12.407,1.38
			c0,0.877,0,2.005,0.125,2.756c6.141-0.124,11.905-1.002,12.906-1.127c1.005-0.252,1.256,0.877,0.126,1.002
			c-1.001,0.124-8.272,1.127-12.906,1.127c0.5,1.629,0.5,3.884,2.756,5.763c2.255,1.88,5.891,1.755,8.521,0.252
			c2.006-1.127,5.139-4.637,6.266-5.638c1.005-0.879,3.259-2.884,6.266-2.884c2.881,0,3.007,1.63,3.133,2.005
			c0.126,0.502,0.251,1.38-0.377,1.755c-0.498,0.377-1.001,0.252-1.503,0.502c-0.373,2.38-1.127,5.137-3.133,6.641
			c-2.003,1.505-5.262,1.755-5.262,1.755s0.499,0.501,0.625,0.626c0.251,0.252,1.381,0.876,2.881,0.752
			c1.252-0.126,2.885-1.129,3.51-1.88c1.005-1.252,1.88-4.011,2.63-5.764c0.251-0.626,0.879-1.753,1.005-2.255
			c0.624,0.252,0.876,0.377,2.002,0.877c2.384,0.878,5.391,1.253,7.271,1.253c3.004-0.126,6.513-2.005,8.645-3.885
			c0.377-0.377,1.002-1.252,1.002-1.252S84.576-24.418,83.949-24.544z"/>
	</g>
	<g id="g48" transform="matrix(1.25,0,0,1.25,375.80898,524.36573)">
		<path id="path50" fill="#1C2524" d="M-14.476-58.885c0.499,1.128,0.123,2.38-0.502,3.256c-1.252,1.38-3.007,2.006-4.762,1.504
			c-1.002-0.248-2.005-0.876-2.632-2.005c-0.375,0.878,0.377,1.631,0.252,2.381c-0.126,0.252-0.377,0.252-0.503,0.126
			c-1.001-1.378-1.378-3.384-0.5-4.887c1.129-1.879,3.132-2.756,5.389-2.507C-16.482-60.764-15.105-60.139-14.476-58.885z"/>
	</g>
	<g id="g52" transform="matrix(1.25,0,0,1.25,352.01748,524.77573)">
		<path id="path54" fill="#1C2524" d="M-10.607-58.461c0.876,1.378,0.501,3.384-0.377,4.637c-0.126,0.251-0.25,0.501-0.501,0.251
			c-0.377-0.377,0.126-0.753,0.126-1.252c0.125-0.377,0.249-0.753,0.125-1.13c-1.254,1.63-3.007,2.383-4.888,2.006
			c-1.378-0.252-2.63-1.252-3.133-2.63c-0.25-0.879-0.126-1.88,0.377-2.632c1.253-1.63,3.634-2.132,5.638-1.378
			C-12.236-60.342-11.109-59.464-10.607-58.461z"/>
	</g>
	<g id="g56" transform="matrix(1.25,0,0,1.25,353.24798,539.54448)">
		<path id="path58" fill="#1C2524" d="M3.447-60.752c-0.126,0.25-0.252,0.25-0.503,0.627c-0.627-0.253-1.377-0.501-2.128-0.752
			c-6.266-2.507-14.288-1.755-20.177,0.752c-0.126-0.253-0.251-0.377-0.375-0.627C-12.845-63.759-3.446-64.136,3.447-60.752z"/>
	</g>
	<g id="g60" transform="matrix(1.25,0,0,1.25,353.04286,490.11448)">
		<path id="path62" fill="#1C2524" d="M4.738-54.542c-1.127,5.011-4.26,10.651-9.398,12.029c-4.136,1.129-8.896,0.25-11.655-3.131
			c-2.004-2.509-3.007-5.514-3.382-8.774c0.25-0.123,0.501-0.123,0.752-0.123c0.375,4.636,2.88,9.899,7.518,11.403
			c4.011,1.252,8.898,0,11.78-3.51c1.88-2.379,3.133-5.261,3.757-8.145C4.361-54.793,4.486-54.793,4.738-54.542z"/>
	</g>
	<g id="g112" transform="matrix(1.25,0,0,1.25,283.51286,418.32973)">
		<path id="path114" fill="#FFFFFF" d="M1.089-36.839c2.632,5.139,8.146,6.893,13.659,6.642c3.133,0,6.14-0.375,9.148-0.626v0.251
			c-1.504,4.386-2.63,8.897-3.259,13.534c-8.019,0.249-16.166-0.375-22.18-5.765c-4.009-4.009-5.012-9.648-4.134-15.163
			c1.003-1.128,2.004-2.13,2.882-3.259C-1.418-39.845,0.712-38.718,1.089-36.839z"/>
	</g>
	<g id="g116" transform="matrix(1.25,0,0,1.25,411.08611,418.94498)">
		<path id="path118" fill="#FFFFFF" d="M-1.219-39.711c0.248,0.877,0.248,1.628,0.373,2.38C-0.468-31.065-3.1-25.425-8.49-22.293
			c-5.764,3.509-12.403,4.762-19.423,4.885c-0.126-0.624-0.252-1.502-0.252-2.128c-0.624-4.136-1.377-8.271-2.505-12.156
			c7.519,0,16.792,2.005,21.805-5.012c0.624-1.003,1.252-1.88,1.877-2.882c1.127-0.501,2.258-1.253,3.259-1.755
			C-2.848-40.965-2.098-40.213-1.219-39.711z"/>
	</g>
	<g id="g120" transform="matrix(1.25,0,0,1.25,402.06111,472.88698)">
		<path id="path122" fill="#FFFFFF" d="M-22.698-51.535c0,2.38-0.75,4.761-2.881,5.889c-1.002,0.501-2.128,0.75-3.259,0.75
			c-0.126-0.249-0.126-0.5,0-0.75c1.629,0,3.384-0.628,4.259-2.005c0.628-1.003,0.88-2.256,0.88-3.509
			C-23.448-51.411-23.072-51.535-22.698-51.535z"/>
	</g>
	<g id="g124" transform="matrix(1.25,0,0,1.25,331.30211,473.29698)">
		<path id="path126" fill="#FFFFFF" d="M-8.822-45.473c-0.377,0-0.5,0.124-1.127,0c-2.758,0-5.64-2.255-5.514-6.015
			c0.375-0.126,0.752-0.126,1.002,0c0,2.13,0.877,5.137,5.514,5.137C-8.696-45.85-8.947-45.85-8.822-45.473z"/>
	</g>
</g>
</svg>
