<?xml version="1.0" encoding="utf-8"?>
<!-- Generator: Adobe Illustrator 16.0.0, SVG Export Plug-In . SVG Version: 6.00 Build 0)  -->
<!DOCTYPE svg PUBLIC "-//W3C//DTD SVG 1.1//EN" "http://www.w3.org/Graphics/SVG/1.1/DTD/svg11.dtd">
<svg version="1.1" id="Layer_1" xmlns="http://www.w3.org/2000/svg" xmlns:xlink="http://www.w3.org/1999/xlink" x="0px" y="0px"
	 width="109.463px" height="90.752px" viewBox="0 0 109.463 90.752" enable-background="new 0 0 109.463 90.752"
	 xml:space="preserve">
<g>
	<path fill="#EC1C2E" d="M53.812,20.087l-2.059,6.921C44.322,11.806,35.461,3.842,24.73,3.842c-11.619,0-17.3,7.751-18.966,10.211
		C8.742,6.567,16.615,0,27.092,0C41.447,0,49.561,11.327,53.812,20.087"/>
	<path fill="#EC1C2E" d="M0,35.66c0.084,25.309,7.448,37.463,18.436,37.463c5.086,0,8.742-3.199,8.742-8.404
		c0-4.459-1.939-7.965-2.721-9.396c0.307,1.451,0.561,3.113,0.561,4.973c0,4.354-2.941,5.77-5.34,5.77
		c-7.312,0-14.627-14.211-16.686-30.404C2.074,35.66-0.018,35.66,0,35.66"/>
	<path fill="#EC1C2E" d="M82.369,0c10.477,0,18.336,6.567,21.328,14.053c-1.686-2.46-7.367-10.211-18.963-10.211
		c-10.734,0-19.596,7.964-27.025,23.166l-2.059-6.921C59.902,11.327,68.014,0,82.369,0"/>
	<path fill="#EC1C2E" d="M106.467,35.66c-2.057,16.193-9.371,30.404-16.684,30.404c-2.412,0-5.354-1.416-5.354-5.77
		c0-1.859,0.27-3.521,0.559-4.973c-0.785,1.432-2.705,4.938-2.705,9.396c0,5.205,3.641,8.404,8.74,8.404
		c10.973,0,18.354-12.154,18.439-37.463C109.479,35.66,107.389,35.66,106.467,35.66"/>
	<path fill="#EC1C2E" d="M54.73,90.752c3.385,0,6.396,0,7.229-4.215c0.309-1.553,1.768-8.9,1.768-8.9s4.303-7.363,4.916-8.404
		c0.41-0.76,0.969-2.002,1.174-2.922c0.238-0.992,3.52-14.865,3.52-14.865s3.08-1.361,5.631-2.494
		c5.154-2.301,5.443-7.699,3.605-14.176c1.006-2.336,2.668-4.494,4.713-4.494c2.994,0,4.285,2.494,4.285,6.494
		c0,8.637-3.078,13.379-3.078,17.928c0,1.857,0.783,2.99,2.277,2.99c4.916,0,11.445-10.865,13.777-23.678h2.791
		c0.627-9.098-4.188-20.105-15.783-20.105c-9.408,0-18.572,7.469-24.051,24.76l3.539,2.459l-1.701,8.494l-6.633,2.762l-1.207,8.354
		l3.23-3.965l3.469-1.451l-1.072,5.396l-5.986,2.479l-2.09,14.439l1.459,4.602l-5.781,2.285l-5.781-2.285l1.463-4.602l-2.094-14.439
		l-5.986-2.479l-1.088-5.396l3.469,1.451l3.248,3.965l-1.223-8.354l-6.633-2.762l-1.701-8.494l3.555-2.459
		C36.482,21.379,27.297,13.91,17.91,13.91C6.31,13.91,1.496,24.918,2.125,34.016h2.789c2.332,12.812,8.861,23.678,13.76,23.678
		c1.514,0,2.297-1.133,2.297-2.99c0-4.549-3.096-9.291-3.096-17.928c0-4,1.293-6.494,4.303-6.494c2.041,0,3.707,2.158,4.693,4.494
		c-1.82,6.477-1.531,11.875,3.623,14.176c2.553,1.133,5.631,2.494,5.631,2.494s3.264,13.873,3.504,14.865
		c0.221,0.92,0.783,2.162,1.189,2.922c0.613,1.041,4.898,8.404,4.898,8.404s1.463,7.348,1.785,8.9
		C48.336,90.752,51.346,90.752,54.73,90.752"/>
	<path fill="#FFFFFF" d="M29.713,34.811l3.996,6.301l1.48,6.514c0,0-1.447-0.639-2.672-1.17
		C28.861,44.898,28.486,40.582,29.713,34.811"/>
	<path fill="#FFFFFF" d="M76.945,46.455c-1.244,0.531-2.691,1.17-2.691,1.17l1.482-6.514l4.012-6.301
		C80.973,40.582,80.598,44.898,76.945,46.455"/>
</g>
</svg>
