<?xml version="1.0" encoding="utf-8"?>
<!-- Generator: Adobe Illustrator 16.0.0, SVG Export Plug-In . SVG Version: 6.00 Build 0)  -->
<!DOCTYPE svg PUBLIC "-//W3C//DTD SVG 1.1//EN" "http://www.w3.org/Graphics/SVG/1.1/DTD/svg11.dtd">
<svg version="1.1" id="Layer_1" xmlns="http://www.w3.org/2000/svg" xmlns:xlink="http://www.w3.org/1999/xlink" x="0px" y="0px"
	 width="68.191px" height="33.499px" viewBox="0 0 68.191 33.499" enable-background="new 0 0 68.191 33.499" xml:space="preserve">
<g>
	<g>
		<g enable-background="new    ">
			<g>
				<g>
					<path fill="#0F3F76" d="M61.327,5.077c-4.12,0-9.438,5.35-11.294,7.475c-1.278,1.464-2.363,0.76-1.602-0.227
						c0.768-0.995,4.689-6.297,0.155-10.301c-5.2-4.591-12.644-0.256-16.931,2.06c-4.229,2.284-13.812,6.714-22.273,6.026
						c0,0,8.042,7.755,22.273,6.711c0.775-0.057,2.515,0.151,0.227,0.914C29.595,18.5,19.298,20.56,0,15.752
						c0,0,5.381,4.983,16.629,11.363c10.225,5.802,15.56,6.789,23.719,6.257c8.164-0.536,15.641-8.008,18.31-12.968
						c2.67-4.956,5.033-10.676,9.534-11.669C68.191,8.735,65.446,5.077,61.327,5.077"/>
				</g>
			</g>
		</g>
	</g>
</g>
</svg>
