<?xml version="1.0" encoding="utf-8"?>
<!-- Generator: Adobe Illustrator 16.0.0, SVG Export Plug-In . SVG Version: 6.00 Build 0)  -->
<!DOCTYPE svg PUBLIC "-//W3C//DTD SVG 1.1//EN" "http://www.w3.org/Graphics/SVG/1.1/DTD/svg11.dtd">
<svg version="1.1" id="Layer_1" xmlns="http://www.w3.org/2000/svg" xmlns:xlink="http://www.w3.org/1999/xlink" x="0px" y="0px"
	 width="234.195px" height="96.457px" viewBox="0 0 234.195 96.457" enable-background="new 0 0 234.195 96.457"
	 xml:space="preserve">
<g>
	<path fill="#EC1C24" stroke="#EC1C24" stroke-width="0.2619" stroke-miterlimit="2.6131" d="M39.736,18.76
		c-2.185-2.018-5.046-1.631-7.158,3.584c-0.743,1.838-1.468,3.521-1.495,5.077c-0.062,3.514-1.536,5.84-3.79,7.224
		c-2.596,1.588-4.197,4.301-4.314,8.437c-0.078,2.789-2.015,5.312-3.809,7.449c-4.421,5.264-8.733,7.314-11.834-0.371
		c-1.093-2.712-1.264-4.429-3.772-3.707c-1.049,0.301-1.887,2.083-2.701,5.231c-1.079,4.169-1.193,8.187,1.251,11.399
		c3.288,4.322,2.659,9.36,1.703,12.278c-0.612,1.869-0.687,4.978,0.786,6.134c2.437,1.91,4.411,2.301,7.232,0.733
		c6.865-3.815,11.668-7.421,24.58-7.909c1.036-0.037,2.146,0.312,3.167-0.027c6.407-2.143,9.345-4.963,12.563-6.719
		c2.363-1.293,5.611-2.787,7.704-2.275c3.979,0.975,5.576,1.033,6.265,0.107c0.891-1.207,2.342-2.839,3.765-3.771
		c3.045-1.998,4.581-2.883,5.825-5.75c0.78-1.801,2.719-2.289,5.042-1.424c2.405,0.896,4.677,1.613,7.252,2.078
		c6.258,1.125,10.36,3.198,9.069,14.676c-0.452,4.007-2.529,11.527-5.784,15.699c-2.492,3.192-3.617,4.979,1.085,5.438
		c2.424,0.235,4.633-0.205,6.529,0.116c9.642,1.642,11.618,0.824,12.075-5.367c0.191-2.588,1.828-5.986,3.3-8.289
		c2.642-4.139,3.776-8.562,6.759-13.227c0.964-1.508,2.579-1.889,4.527-0.515c2.376,1.677,5.076,2.034,7.964,2.152
		c2.26,0.089,4.447,0.56,6.524,0.267c3.061-0.432,5.924-1.137,8.467-1.877c2.376-0.689,4.521-1.828,6.61-2.908
		c3.775-1.947,5.243-2.395,9.387-2.302c4.817,0.104,8.666,0.259,10.872,0.492c2.598,0.271,3.372-0.672,4.844-0.62
		c1.546,0.055,4.109,1.289,4.346,2.443c0.437,2.134,1.688,9.824,3.583,13.043c1.645,2.793,1.524,6.238,1.68,8.796
		c0.12,1.921-1.316,3.114-2.688,4.388c-3.221,2.98-1.56,5.499,1.845,6.637c3.562,1.193,6.423,0.711,8.854,0.193
		c6.298-1.336,9.73-3.992,8.495-7.197c-0.808-2.1-0.761-3.939-0.993-5.388c-0.332-2.065,2.71-3.44,2.395-9.168
		c-0.108-1.929-0.952-3.804-0.662-5.75c0.275-1.845,2.366-4.149,2.802-6.683c0.837-4.871,1.684-3.541,2.036-5.812
		c0.203-1.299,1.591-2.153,2.176-3.405c6.35-13.565,2.211-20.512-4.429-26.597c-17.424-15.97-36.221-27.551-62.021-18.84
		c-5.122,1.725-10.243,3.884-15.726,2.663c-5.155-1.147-11.548-3.49-17.299-5.569c-8.425-3.047-10.489-4.593-19.894-3.604
		C83.743,1.583,66.379,6.16,52.532,18.595c-0.611,0.549-1.477,1.454-4.423,0.594c-1.451-0.424-2.188,0.476-2.804,0.695
		C41.92,21.09,42.344,21.166,39.736,18.76L39.736,18.76z M220.747,36.501c-0.962,0.583-0.792,2.242-0.053,2.904
		c6.001,5.373,9.548,10.719,3.922,16.092c-3.134,2.627-6.382,5.256-7.716,7.883c-2.538,3.135,0.354,3.682,4.019,3.861
		c2.868,0.18,5.099-0.013,6.39-1.15c0.976-0.857,1.521-1.928,2.478-2.559c1.993-1.798,3.198-3.746,3.919-5.24
		c0.507-1.142,0.523-1.319-0.242-2.312c-0.712-0.924-0.974-3.186-1.129-4.184c-0.882-5.791-3.957-10.117-7.939-13.839
		C223.499,37.124,222.017,35.73,220.747,36.501L220.747,36.501z M161.552,64.201c-2.66-0.055-3.699,2.076-3.555,5.743
		c0.125,3.554,0.476,7.179-1.956,9.88c-1.723,1.913-4.261,2.028-5.07,4.784c-0.44,1.494,0.504,2.841,4.611,3.612
		c2.486,0.177,4.878,0.712,6.717,0.914c5.489,0.599,8.134-1.309,7.842-4.286c-0.575-1.979,0.259-3.153,1.296-4.212
		c2.366-2.288,4.062-3.57,5.935-5.284c0.967-0.884,1.968-2.36,2.154-3.872c0.035-0.294,0.092-0.557,0.172-0.787
		c0.344-1.021,0.472-1.318,0.4-2.521c-0.213-3.594-1.884-3.602-4.451-3.734C170.894,64.408,166.301,64.227,161.552,64.201
		L161.552,64.201z M86.804,60.062c-0.861,0.094-1.965,0.848-0.72,2.979c0.771,1.317,1.969,3.084,4.724,7.862
		c1.354,2.353,2.697,1.339,3.235-0.052c0.765-1.977,0.09-4.072-0.052-6.113C93.701,60.517,90.467,59.658,86.804,60.062
		L86.804,60.062z M85.014,80.843c2.002-1.463,4.563-2.084,5.591-1.348c1.025,0.737,0.293,3.123-1.708,4.586
		c-2.002,1.465-4.254,1.465-5.28,0.729C82.59,84.074,83.013,82.31,85.014,80.843L85.014,80.843z"/>
</g>
</svg>
