<?xml version="1.0" encoding="utf-8"?>
<!-- Generator: Adobe Illustrator 16.0.0, SVG Export Plug-In . SVG Version: 6.00 Build 0)  -->
<!DOCTYPE svg PUBLIC "-//W3C//DTD SVG 1.1//EN" "http://www.w3.org/Graphics/SVG/1.1/DTD/svg11.dtd">
<svg version="1.1" id="Layer_1" xmlns="http://www.w3.org/2000/svg" xmlns:xlink="http://www.w3.org/1999/xlink" x="0px" y="0px"
	 width="227.514px" height="110.271px" viewBox="0 0 227.514 110.271" enable-background="new 0 0 227.514 110.271"
	 xml:space="preserve">
<g>
	<g>
		<path d="M54.85,0.916H0.224c-1.757,9.428,7.394,13.125,7.394,13.125h58.323L54.85,0.916z"/>
		<path d="M70.781,19.915H16.156C14.399,29.343,23.55,33.04,23.55,33.04h58.323L70.781,19.915z"/>
		<path d="M227.29,0.916h-54.626l-11.092,13.125h58.323C219.895,14.042,229.045,10.344,227.29,0.916z"/>
		<path d="M156.731,19.915L145.64,33.04h58.321c0,0,9.151-3.697,7.396-13.125H156.731z"/>
		<path d="M140.799,38.914L135.91,44.7c-1.294-1.265-3.615-3.644-5.063-5.786H93.49c-0.245,2.467-0.575,4.794-1.004,6.831
			l-5.772-6.831H32.087c-1.756,9.427,7.396,13.125,7.396,13.125h148.549c0,0,9.15-3.697,7.394-13.125H140.799z"/>
		<path d="M128.415,33.04l-4.425-13.125H93.913c0.069,2.056,0.173,4.023,0.173,5.869c0,2.354-0.054,4.815-0.171,7.256H128.415z"/>
		<path d="M140.14,11.028c0,0-1.411-8.021-10.61-11.027H98.045c-3.11,5.068-3.994,10.169-4.157,14.958h32.826
			C127.137,11.758,127.597,11.028,140.14,11.028z"/>
		<polygon points="122.96,71.984 126.175,71.984 124.568,67.979 		"/>
		<path d="M94.235,62.994c-4.468,0-8.332,3.094-10.174,8.989h18.814C102.338,66.228,100.504,62.994,94.235,62.994z"/>
		<path d="M48.579,57.394v4.692c0,5.467,4.433,9.897,9.898,9.897h20.144c2.656-7.671,9.02-10.48,14.777-10.48
			c1.289,0,2.462,0.189,3.527,0.541c7.06,1.387,7.432-0.403,7.444-0.699v-0.041c0,0,0.002,0.017,0,0.041v3.188l0.001,7.451h16.58
			l5.017-12.498l5.016,12.498h38.053c5.468,0,9.899-4.432,9.899-9.897v-4.692L48.579,57.394L48.579,57.394z"/>
		<path d="M82.909,80.38c0,4.689,0.604,8.214,1.647,10.814h16.436V84.85H98.16v-1.27h10.979v1.27h-3.08v6.345h7.184l5.854-14.591
			H88.405h-5.289C82.981,77.791,82.909,79.047,82.909,80.38z"/>
		<polygon points="117.311,86.064 131.825,86.064 128.029,76.604 121.107,76.604 		"/>
		<polygon points="115.252,91.195 133.883,91.195 132.334,87.336 116.801,87.336 		"/>
		<path d="M155.856,76.604h-8.421h-8.327h-6.272l5.855,14.591h6.905h1.839h8.403c4.149-1.933,7.025-6.136,7.025-11.014v-3.577
			h-0.535H155.856z"/>
		<path d="M77.57,76.604h-5.913h-6.473h-0.536v3.577c0,4.878,2.876,9.081,7.024,11.014h8.291c-1.603-2.824-2.618-6.406-2.618-10.814
			C77.345,79.038,77.423,77.781,77.57,76.604z"/>
		<path d="M99.049,95.682H87.69c1.848,1.508,4.105,2.086,6.545,2.086C96.184,97.768,97.777,97.012,99.049,95.682z"/>
		<path d="M140.492,95.682l0.707,1.766h3.556v1.27h-13.083v-1.27h4.721l-0.707-1.766h-21.479h-0.755l-0.707,1.766h3.153v1.27H107.6
			v-1.27h3.135l0.707-1.766h-5.382v3.577c0,0-1.491-4.074-6.97-1.455c0.001-0.002,0.002-0.004,0.002-0.005
			c-1.629,1.1-3.53,1.715-5.694,1.715c-3.122,0-6.752-1.228-9.771-3.832H80.31c-0.048,0.489-0.073,0.988-0.073,1.489
			c0,5.702,3.17,10.646,7.807,13.102h25.263h0.899h25.262c4.638-2.456,7.809-7.398,7.809-13.102c0-0.501-0.024-1-0.073-1.489
			H140.492z"/>
	</g>
</g>
</svg>
