<?xml version="1.0" encoding="utf-8"?>
<!-- Generator: Adobe Illustrator 16.0.0, SVG Export Plug-In . SVG Version: 6.00 Build 0)  -->
<!DOCTYPE svg PUBLIC "-//W3C//DTD SVG 1.1//EN" "http://www.w3.org/Graphics/SVG/1.1/DTD/svg11.dtd">
<svg version="1.1" id="Layer_1" xmlns="http://www.w3.org/2000/svg" xmlns:xlink="http://www.w3.org/1999/xlink" x="0px" y="0px"
	 width="69.898px" height="60.258px" viewBox="0 0 69.898 60.258" enable-background="new 0 0 69.898 60.258" xml:space="preserve">
<polygon fill="#231F20" points="58.1,38.499 58.834,39.312 58.928,40.03 57.538,40.78 57.428,39.312 "/>
<path fill="#231F20" d="M47.943,38.633c0,0,1.923-2.486,3.822-2.863c1.899-0.376,2.621,1.62,2.621,1.62s0.881-2.914,2-3.579
	c1.117-0.664,3.19-0.111,3.19-0.111s0.823-2.482,1.533-2.902c0.711-0.419,2.101,0.039,2.101,0.039s0.994-2.072,0.492-5.124
	c-0.501-3.052-5.272-6.969-5.272-6.969s3.572-4.935,4.765-8.288c1.191-3.352-0.339-5.424-0.339-5.424S60.925,4.918,57.3,6.5
	c-3.624,1.582-9.56,5.387-9.56,5.387s-3.375-0.412-6.207-0.575c-0.247-0.027-2.038-0.064-2.094-0.064
	c-0.057,0-1.864,0.037-2.125,0.064c-2.911,0.162-6.487,0.575-6.487,0.575S26.742,8.082,23.887,6.5
	c-2.855-1.582-4.842-1.469-4.842-1.469s-2.538,2.072-2.976,5.424c-0.438,3.354,0.735,8.288,0.735,8.288s-6.679,3.917-8.663,6.969
	c-1.985,3.051-2,5.123-2,5.123s1.759-0.414,2.119-0.037c0.36,0.377,0.123,2.9,0.123,2.9s2.464-0.679,3.138,0.112
	s0.26,3.579,0.26,3.579s1.691-1.996,3.408-1.62c1.716,0.377,2.431,2.862,2.431,2.862s2.428-3.014,4.784-2.787
	c2.354,0.227,2.561,1.242,2.714,1.695c0.153,0.451,0.883,7.012,1.169,8.361c0.285,1.352,1.52,8.717,2.605,8.727
	c1.086,0.008,5.906-7.375,6.849-8.727s5.064-8.168,5.236-8.361c0.363-0.414,1.071-1.47,3.538-1.695
	C46.981,35.62,47.943,38.633,47.943,38.633z M30.917,26.762c-0.135,1.018-1.981,8.928-1.981,8.928h-2.072
	c0,0,0.88-3.466,0.836-5.764c-0.044-2.298-1.312-3.277-1.312-3.277s-0.517,0.414-0.92,0.527c-0.404,0.113-0.8,0.037-0.8,0.037
	s-0.091-0.865-0.234-1.355c-0.146-0.49-0.184-0.49-0.598-0.49c-0.415,0-0.969,1.507-1.703,1.733c-0.731,0.226-1.034,0.075-1.206,0
	c-0.169-0.075-1.332-0.866-1.908-0.979c-0.575-0.113-2.959-0.377-3.545-0.603c-0.585-0.227-1.068-0.565-1.6-1.018
	s-0.59-0.979-0.479-1.431c0.109-0.452,0.558-1.055,1.035-1.47c0.477-0.414,0.975-0.753,1.312-0.753s0.853,0.678,1.845,1.243
	c0.518,0.294,3.004,0.644,5.898,0.527c2.814-0.113,5.234-0.302,6.372,0.753C30.996,24.426,31.052,25.744,30.917,26.762z
	 M41.901,29.926c-1.161,2.298-1.966,5.764-1.966,5.764h-2.072c0,0,1.999-7.91,2.359-8.928c0.359-1.018,1.058-2.336,2.708-3.391
	c1.648-1.055,3.978-0.866,6.736-0.753c2.839,0.116,5.496-0.233,6.156-0.527c1.268-0.565,2.109-1.243,2.449-1.243
	c0.338,0,0.671,0.339,0.945,0.753c0.275,0.415,0.432,1.018,0.321,1.47c-0.109,0.451-0.427,0.979-1.177,1.431
	s-1.398,0.791-2.093,1.018c-0.696,0.226-3.208,0.489-3.839,0.603c-0.631,0.113-2.179,0.904-2.387,0.979
	c-0.206,0.075-0.581,0.226-1.204,0c-0.624-0.227-0.444-1.733-0.858-1.733c-0.415,0-0.452,0-0.836,0.49
	c-0.383,0.49-0.895,1.355-0.895,1.355s-0.434,0.076-0.783-0.037c-0.349-0.113-0.661-0.527-0.661-0.527S43.063,27.628,41.901,29.926z
	"/>
<g>
	<path fill="none" d="M42.388,41.793l0.232-0.332c-0.009-0.002-0.021-0.01-0.031-0.01c-0.068,0.096-0.136,0.189-0.209,0.293
		C42.382,41.758,42.387,41.779,42.388,41.793z"/>
	<path fill="none" d="M62.41,18.229c0,0,2.804-3.165,4.11-7.61c1.308-4.444-1.356-8.362-1.356-8.362s-5.398,0.828-9.024,2.109
		c-3.627,1.281-8.446,4.369-8.446,4.369s-4.896-0.355-7.609-0.307c-2.69-0.048-7.75,0.307-7.75,0.307s-3.316-3.088-6.319-4.369
		c-3.003-1.281-8-2.109-8-2.109s-4.569,3.918-5.425,8.362c-0.854,4.445,0.41,7.61,0.41,7.61s-7.825,4.293-9.287,8.136
		c-0.583,1.532-1.096,3.21-1.211,4.67c-0.173,2.205,0.253,3.918,0.253,3.918s0.51-0.371,1.069-0.679s1.183-0.526,1.183-0.526
		S4.652,35.52,4.85,36.875c0.196,1.355,1.343,2.223,1.343,2.223s0.542-0.875,1.045-1.355c0.504-0.482,1.031-0.679,1.031-0.679
		s0.145,1.884,0.747,3.127c0.682,1.845,2.227,1.996,2.227,1.996s0.615-0.979,1.174-1.731c0.562-0.754,1.612-1.207,1.612-1.207
		s0.331,1.602,0.997,2.562c0.667,0.961,2.584,1.921,2.584,1.921s0.891-1.788,1.312-2.298c0.421-0.508,1.094-1.412,1.862-1.771
		c1.146-0.527,2.376,18.422,7.179,18.346c0.023,0,0.047-0.004,0.071-0.006c0.023,0.002,0.045,0.006,0.069,0.006
		c3.714,0.06,10.878-11.436,14.278-16.262c-0.012-0.209,0.037-0.324,0.209-0.293c0.849-1.188,1.432-1.897,1.612-1.791
		c0.657,0.369,0.839,1.309,1.001,1.771c0.163,0.464,0.195,2.298,0.195,2.298s1.885-0.62,3.338-1.787
		c1.45-1.167,2.423-2.694,2.423-2.694s0.798,0.582,1.025,1.205s0.332,1.732,0.332,1.732s1.618-0.15,3.196-1.996
		c1.207-1.242,2.269-3.127,2.269-3.127s0.432,0.195,0.701,0.678c0.269,0.482,0.386,1.356,0.386,1.356s1.567-0.866,2.424-2.224
		c0.857-1.354,1.363-3.125,1.363-3.125s0.516,0.219,0.927,0.525c0.301,0.227,0.556,0.484,0.671,0.605
		c0.009,0.008,0.021,0.014,0.023,0.025c0.021,0.023,0.044,0.047,0.044,0.047s1.26-1.713,2.159-3.918
		c0.595-1.46,0.896-3.139,1.06-4.67C68.147,22.521,62.41,18.229,62.41,18.229z"/>
	<path fill="#231F20" d="M42.381,41.745c0.073-0.104,0.141-0.197,0.209-0.293C42.418,41.42,42.37,41.536,42.381,41.745z"/>
	<path fill="#231F20" d="M65.365,17.902c0,0,2.579-6.638,2.329-10.95s-2.188-6.812-2.375-6.875c-0.007-0.002-0.002-0.019,0-0.031
		c-0.251-0.037-0.505-0.048-0.758,0.008C63.657,0.2,58.72,1.021,55.274,2.238c-3.037,1.073-6.786,3.288-8.269,4.196
		c-1.472-0.096-4.838-0.295-7.035-0.258c-2.094-0.034-5.367,0.147-6.964,0.246c-1.229-1.051-3.785-3.092-6.225-4.131
		c-3.262-1.393-8.488-2.258-8.503-2.26c-0.598-0.102-1.172,0.051-1.637,0.366c-0.983,1.169-0.529,2.442-0.529,2.442
		s-1.94,1.8-4.065,5.758s-0.576,9.31-0.576,9.31s-3.591,0.833-6.938,3.576c-0.411,0.336-0.818,0.696-1.215,1.093
		c-0.248,0.248-0.473,0.507-0.686,0.772c-2.55,3.196-2.646,7.521-2.633,8.511c0.03-0.021,0.063-0.038,0.092-0.062
		c-0.037,2.103,0.35,3.66,0.351,3.666c0.231,0.996,1.091,1.684,2.062,1.742c0.338,2.274,2.184,3.668,2.188,3.672
		c0.645,0.502,1.475,0.6,2.187,0.33c1.229,2.942,4.021,3.219,4.029,3.219c0.871,0.086,1.675-0.336,2.118-1.024l0.001,0.001
		l0.123-0.191l0.007,0.008l-0.001,0.002c0.841,1.039,3.169,2.438,3.175,2.441c1.068,0.644,2.456,0.299,3.1-0.769
		c0.069-0.116,0.128-0.233,0.174-0.356c0.025-0.055,0.06-0.121,0.098-0.199l0.074,0.383c1.204,6.189,3.036,15.615,8.1,15.537
		l0.025-0.002l0.026,0.002c0.043,0,0.086,0,0.128-0.002c0.043,0,0.086-0.002,0.128-0.004c4.242-0.221,9.981-8.506,13.896-14.248
		l1.187-1.305c0.355,0.74,1.099,1.264,1.977,1.28c0.354,0.007,0.688-0.067,0.987-0.206l0.001,0.003
		c0.008-0.004,2.817-1.312,3.951-2.187c0.097-0.074,0.194-0.155,0.294-0.243c0.435,0.72,1.256,1.163,2.141,1.077v0.002
		c0.001,0,0.037-0.004,0.104-0.014c0.035-0.006,0.07-0.011,0.106-0.018c0.355-0.064,1.126-0.251,2.046-0.749
		c0,0,1.913-1.202,2.831-2.11c0.095-0.094,0.19-0.188,0.261-0.272c0.051-0.062,0.134-0.146,0.209-0.228
		c0.932-0.236,2.475-1.06,4.575-3.591c0.42,0.034,1.101-0.112,2.216-0.683c2.665-1.36,4.192-6.457,4.486-7.521
		c0.013-0.028,0.026-0.059,0.039-0.086l-0.019,0.013c0-0.002,0.001-0.004,0.001-0.006c0.021-0.075,0.033-0.128,0.033-0.128
		l-0.011-0.003c0.169-0.816,0.29-1.64,0.374-2.43c0.004-0.043,0.007-0.084,0.009-0.125C70.166,23.087,67.304,19.75,65.365,17.902z
		 M67.74,26.364c-0.162,1.532-0.465,3.21-1.06,4.671c-0.899,2.205-2.159,3.918-2.159,3.918s-0.021-0.023-0.044-0.049
		c-0.004-0.012-0.016-0.018-0.023-0.023c-0.115-0.123-0.37-0.381-0.671-0.606c-0.411-0.308-0.927-0.526-0.927-0.526
		s-0.506,1.771-1.363,3.127c-0.855,1.355-2.424,2.223-2.424,2.223s-0.116-0.875-0.386-1.355c-0.271-0.482-0.701-0.679-0.701-0.679
		s-1.062,1.884-2.269,3.127c-1.577,1.845-3.196,1.996-3.196,1.996s-0.104-1.108-0.332-1.731c-0.229-0.625-1.025-1.207-1.025-1.207
		s-0.973,1.528-2.423,2.695c-1.453,1.167-3.338,1.787-3.338,1.787s-0.032-1.834-0.195-2.298c-0.162-0.464-0.344-1.401-1.001-1.771
		c-0.182-0.107-0.765,0.604-1.612,1.789c0.01,0.002,0.022,0.01,0.031,0.012l-0.232,0.332c-0.001-0.016-0.007-0.037-0.008-0.051
		c-3.401,4.825-10.565,16.32-14.278,16.262c-0.023,0-0.046-0.004-0.069-0.006c-0.022,0.002-0.048,0.006-0.071,0.006
		c-4.803,0.076-6.033-18.873-7.179-18.346c-0.77,0.358-1.441,1.264-1.862,1.771c-0.421,0.51-1.312,2.298-1.312,2.298
		s-1.917-0.96-2.584-1.921c-0.666-0.961-0.997-2.562-0.997-2.562s-1.051,0.453-1.612,1.207c-0.56,0.752-1.174,1.731-1.174,1.731
		s-1.545-0.151-2.227-1.996c-0.603-1.243-0.747-3.127-0.747-3.127s-0.527,0.196-1.031,0.679c-0.503,0.48-1.045,1.355-1.045,1.355
		S5.047,38.23,4.85,36.874c-0.198-1.355,0.156-3.127,0.156-3.127s-0.623,0.221-1.183,0.526c-0.561,0.308-1.069,0.679-1.069,0.679
		s-0.426-1.713-0.253-3.918c0.115-1.46,0.628-3.139,1.211-4.671C5.175,22.52,13,18.227,13,18.227s-1.265-3.165-0.41-7.61
		c0.855-4.444,5.425-8.362,5.425-8.362s4.997,0.828,8,2.109c3.003,1.281,6.319,4.369,6.319,4.369s5.06-0.354,7.75-0.307
		c2.712-0.049,7.609,0.307,7.609,0.307s4.819-3.088,8.446-4.369c3.626-1.281,9.024-2.109,9.024-2.109s2.664,3.918,1.356,8.362
		c-1.308,4.445-4.11,7.61-4.11,7.61S68.147,22.521,67.74,26.364z"/>
</g>
</svg>
