<?xml version="1.0" encoding="utf-8"?>
<!-- Generator: Adobe Illustrator 16.0.0, SVG Export Plug-In . SVG Version: 6.00 Build 0)  -->
<!DOCTYPE svg PUBLIC "-//W3C//DTD SVG 1.1//EN" "http://www.w3.org/Graphics/SVG/1.1/DTD/svg11.dtd">
<svg version="1.1" id="Layer_1" xmlns="http://www.w3.org/2000/svg" xmlns:xlink="http://www.w3.org/1999/xlink" x="0px" y="0px"
	 width="1165.433px" height="754.599px" viewBox="0 0 1165.433 754.599" enable-background="new 0 0 1165.433 754.599"
	 xml:space="preserve">
<g>
	<path fill-rule="evenodd" clip-rule="evenodd" fill="#FFFFFF" d="M445.79,753.201l14.629-19.566
		c12.275,6.73,28.926,8.762,40.055-1.471c-8.773-6.43-20.189-9.371-30.127-14.617c0-15.205,7.602-35.367-9.066-44.191
		c-11.365-4.635-25.137-4.074-34.508,4.998l-4.941,5.559c-5.857-4.387-13.496-11.729-21.654-14.021
		c0.861-5.557,0.861-13.16,2.611-19.018c18.127-9.059,34.234,4.949,51.5,4.088c-8.805-15.801-25.473-23.391-43-23.703
		c-11.982-0.547-24.258,1.783-30.166,14.059c-14.318-5.547-29.504,2.305-42.656,7.602l-25.43,45.6
		c-3.807,19.316,2.043,39.803,14.887,54.684H445.79L445.79,753.201z"/>
	<path fill-rule="evenodd" clip-rule="evenodd" fill="#FFFFFF" d="M769.606,753.936c1.471-11.963,4.941-23.08,7.59-34.482
		c2.916-3.215,5.855-8.512,10.543-8.512c3.215,8.512,6.729,16.4,11.377,23.99c6.162-2.904,11.141-10.232,11.141-17.521
		c-1.471-7.641-7.588-14.369-13.184-19.615l9.066-14.021c5.85,4.387,10.848,12.275,18.998,9.061c2.355-2.33,7.9-3.801,4.686-8.486
		c-12.525-7.041-21.598-29.822-38.57-21.061c-26.594,23.951-35.404,58.197-35.711,90.648c-7.289-1.172-19.572-47.068-19.572-47.068
		c5.254-0.561,7.029,6.729,11.977,7.016c2.654-5.857,11.154-12.014,4.699-19.006c-4.088-5.283-15.197-11.104-6.992-18.131
		c1.732-2.654,4.076-4.986,4.947-7.902c2.605,4.998,9.635,6.979,15.484,4.998c2.648-3.527-2.037-7.639-1.426-12.025
		c6.418-1.422,17.832,6.418,21.049-3.516c-11.16-8.461-26.92-15.752-42.148-9.633c-6.111,16.662-23.641,10.244-36.525,9.633
		l-4.693-4.686c-16.355,24.301-39.486,52.08-28.082,83.359l9.682,16.102L769.606,753.936L769.606,753.936z"/>
	<path fill-rule="evenodd" clip-rule="evenodd" fill="#FFFFFF" d="M903.425,103.674l-6.973,9.932
		c8.723,7.291,18.102,14.062,30.377,13.141c2.037-6.424-3.215-11.365-6.432-16.654L903.425,103.674L903.425,103.674z"/>
	<path fill-rule="evenodd" clip-rule="evenodd" fill="#FFFFFF" d="M841.862,180.477c9.943,1.172,20.176,2.648,28.936,7.029
		c1.771-4.691-3.514-8.193-3.514-12.586c10.543-2.031,21.049-4.688,32.158-5.547c1.477-3.52-3.781-6.424-6.424-8.461
		c-11.727-2.082-24.002-4.693-35.672-5.564c-2.898,3.775,1.781,7.857,1.477,12.543c-9.373,0.916-18.438-4.375-28.084-2.037
		L841.862,180.477L841.862,180.477z"/>
	<path fill-rule="evenodd" clip-rule="evenodd" fill="#F47424" d="M348.534,19.604l23.131-9.627
		c-3.24,11.67-7.939,23.652-7.023,36.545c7.895-7.602,16.051-15.504,17.527-26.047L390.071,8.5c9.932-3.217,21.354-3.217,31.584,0
		c-3.812,0.305-5.85,3.209-7.021,6.418v9.078c15.18,4.381,23.691-18.451,39.182-5.564l8.461,4.691
		c-6.729,3.521-14.318,6.125-19.004,12.844l1.471,1.184c12.281-0.879,25.172-0.312,35.678-5.559
		c28.377,16.662,35.967,48.254,45.6,73.727c-3.215-1.172-6.119-3.26-9.633-3.564c-0.605,3.826,0,8.822,2.654,12.025
		c2.648,3.814,7.291,2.904,10.492,4.947c12.289,25.48,46.783,31.281,52.086,60.279c6.717,20.127,9.926,41.779,15.484,62.574
		c-3.209-3.826-13.752-4.125-19.877-7.902c-0.604,9.066,7.297,18.096,15.504,22.525l14.916,5.508
		c6.125,11.709,8.156,25.174,11.104,38.061c-4.686-0.305-11.701-9.371-16.961-4.119c2.045,10.543,10.238,20.176,19.006,25.734
		l1.445,26.9c29.547,26.338,73.408,37.156,111.736,23.695c9.932-3.215,19.869-7.596,28.039-14.025
		c-1.445-16.656,7.627-31.592,22.258-39.182c40.912-16.668,76.33,15.797,102.625,44.135c71.945,83.92,88.307,202.1,64.66,311.742
		c20.998,11.414,52.584,8.475,74.25-1.471c76.898-41.523,105.273-124.535,102.371-207.035
		c-2.643-106.152-65.221-209.076-162.047-257.629c-33.623-2.045-73.377,14.617-101.754-8.469
		c-7.895-5.559-17.234-10.543-22.518-19.621c9.975,1.184,20.176,2.66,28.98,7.035c1.727-4.68-3.521-8.15-3.521-12.582
		c10.506-2.043,21.049-4.686,32.166-5.557c1.482-3.521-3.826-6.426-6.469-8.463c-11.67-2.031-23.951-4.691-35.672-5.551
		c-2.898,3.775,1.781,7.85,1.477,12.58c-9.373,0.865-18.408-4.424-28.084-2.088c-10.232-14.924-15.172-34.184-33.02-43.555
		c33.02-10.25,66.961-29.816,105.842-19.023l-6.984,9.945c8.717,7.326,18.088,14.057,30.383,13.146
		c2.074-6.418-3.209-11.365-6.438-16.617c28.09,8.773,35.979,39.186,55.607,58.191c27.465,33.293,65.781,44.434,92.375,77.77
		c88.619,99.418,126.934,252.078,70.18,378.408c-27.777,53.201-79.246,107.609-140.348,116.371
		c-20.787,3.826-42.434,5.26-63.756,1.482c-12.014,11.379-29.543,9.934-45.645,11.977H769.644
		c1.471-11.977,4.953-23.08,7.602-34.508c2.891-3.203,5.857-8.449,10.494-8.449c3.258,8.449,6.766,16.35,11.414,23.953
		c6.156-2.916,11.104-10.244,11.104-17.521c-1.426-7.604-7.539-14.369-13.146-19.629l9.072-14.008
		c5.857,4.375,10.854,12.275,19.004,9.061c2.344-2.344,7.902-3.814,4.693-8.5c-12.582-7.027-21.654-29.809-38.578-21.049
		c-26.643,23.99-35.416,58.188-35.715,90.65c-7.291-1.158-13.41,2.045-20.439,0l0.873-47.082c5.234-0.572,7.016,6.73,11.971,7.041
		c2.641-5.857,11.109-12.025,4.691-19.018c-4.088-5.295-15.234-11.104-7.029-18.145c1.77-2.604,4.076-4.936,4.979-7.889
		c2.611,4.984,9.627,7.016,15.498,4.984c2.646-3.514-2.031-7.625-1.471-12.025c6.455-1.42,17.832,6.432,21.049-3.502
		c-11.111-8.461-26.869-15.764-42.098-9.633c-6.162,16.648-23.691,10.23-36.539,9.633l-4.686-4.648
		c-16.369,24.252-39.494,52.029-28.078,83.322l9.684,16.088H444.743l14.629-19.602c12.275,6.729,28.943,8.811,40.055-1.445
		c-8.773-6.457-20.189-9.373-30.115-14.605c0-15.242,7.59-35.418-9.078-44.191c-11.365-4.686-25.125-4.062-34.496,4.996
		l-4.941,5.559c-5.869-4.387-13.502-11.727-21.666-14.057c0.873-5.559,0.873-13.148,2.648-19.018
		c18.102-9.061,34.203,4.998,51.469,4.125c-8.811-15.803-25.465-23.441-43-23.703c-11.977-0.598-24.264,1.744-30.121,14.033
		c-14.369-5.572-29.547,2.33-42.695,7.576l-25.436,45.662c-3.812,19.316,2.045,39.754,14.881,54.67H14.573
		C4.067,737.236-3.571,718.543,1.726,697.744c1.17-13.447,20.736-18.693,15.49-33.025c2.916-11.104,12.574-20.225,22.52-26.033
		c8.15-4.074,19.877-4.074,28.65-2.604c14.617-15.84,39.18-19.615,58.49-11.416l10.537,4.947
		c9.945-19.564,13.721-41.785,21.049-62.572l26.605-60.84c-13.459-40.055-27.203-80.418-34.5-122.803
		c0.305-6.729,8.773-8.207,10.506-14.062c2.08-7.896,7.895-15.447,5.551-23.398c-8.162,2.35-15.752,8.811-19.578,16.412
		c-0.561-13.459-8.188-27.211-1.471-40.053c4.992-2.094,8.201-7.895,12.887-10.557c-2.082-9.059,3.514-16.088,0.572-24.549
		c-6.43,3.812-13.459,9.32-17.533,16.088c4.686-14.662-11.416-35.094,11.104-42.695c-1.732-38.627,1.738-82.188,13.465-118.732
		l14.611-21.08c-0.299-9.908,0.562-19.018,2.35-28.033l18.699-15.535c-2.654-3.178-7.027-2.305-10.492-3.471
		c6.105-19.621,25.99-42.141,46.471-51.773c7.902,4.686,18.693,4.99,28.072,7.59h10.549c-2.654-5.857-9.982-13.447-17.572-13.447
		c10.232-3.521,19.877-9.078,31.586-9.646c4.941,11.117,13.154,21.316,21.652,30.121c2.299-7.596,1.744-17.266,0.873-25.16
		C310.513,7.328,308.78,2.953,305.833,0C321.067,4.424,334.222,13.186,348.534,19.604L348.534,19.604z"/>
	<path fill-rule="evenodd" clip-rule="evenodd" fill="#FFFFFF" d="M286.821,59.107c-1.164,8.494,7.297,9.934,12.588,13.148
		c6.99,7.627,7.9,22.52,21.049,22.52c11.676,0,25.734,2.031,35.672,9.066c14.318-8.768,33.318-12.289,49.992-9.066
		c2.643-18.4,15.533-30.689,32.203-37.711c14.629-3.826,25.422,6.113,38.576,7.59c13.141,9.371,16.668,24.25,22.525,37.148
		c-0.312,19.311-7.902,38.57-25.174,47.656l-7.9,2.33c4.436,15.49,1.781,32.465-5.51,46.82c4.076,0.873,8.762-0.598,11.977-4.119
		c1.434,5.863-2.031,12.855-1.482,20.482c-4.375,13.146-19.566,21.658-21.646,35.672c-5.547,6.73-12.275,13.453-20.426,14.625
		c-1.482,2.045-0.312,5.254,2.025,5.857c28.943,0.268,54.109,9.072,78.068,21.66l0.611,12.535
		c-22.818-14.014-49.736-21.047-76.643-23.689c-1.732,4.424-1.732,9.676-2.643,14.625c22.832,10.242,45.344,23.123,65.221,40.664
		c1.166,3.77,1.166,11.109,0,14.885c-21.902-18.406-43.859-36.545-69.594-45.611c-6.992,5.291-11.99,23.691-22.232,9.684
		c-12.588-8.824-26.283-14.369-41.525-16.725c-4.947-5.246-4.635-12.836-5.551-19.865c8.506-2.604,14.623-12.543,16.654-21.049
		c4.998-0.305,14.369,4.693,16.414-4.08c2.031-7.334-3.266-12.58-8.518-15.535c-21.043-3.775-46.166-8.723-64.598,4.424
		c-1.186,4.693-2.045,12.537,4.979,14.021c3.775,0.305,7.297-0.561,10.506-2.344c0.908,8.207,4.99,20.176,15.482,23.385
		c-1.73,7.945,0.611,19.928-9.926,21.66c-18.145,1.738-33.629,9.377-49.131,17.564c-7.895-2.934-11.104-9.371-17.521-14.654
		c-23.094,9.676-44.49,23.988-64.674,41.268c-2.287-6.475-1.426-10.854-0.555-16.705c17.84-17.234,39.748-23.965,60.23-34.457
		v-15.535c-11.678-3.215-23.385,0-35.057,2.947l-1.482-1.471c-11.715,7.328-26.332,10.232-37.711,19.566
		c-2.08-6.986-0.598-16.924,8.463-19.006c20.48-9.932,42.695-16.1,67.875-15.191c3.471-14.93-13.205-21.92-18.744-33.061
		c-4.393-9.029-8.773-17.84-9.938-28.084h4.941c-2.904-17.791-3.777-38.889,0.604-57.016c-19.316-7.295-30.719-27.465-36.539-46.178
		c1.738-12.893,9.639-23.385,16.363-34.545c14.014-1.129,22.818-17.521,38.627-13.148C271.032,55.021,278.933,57.064,286.821,59.107
		L286.821,59.107z"/>
	<path fill-rule="evenodd" clip-rule="evenodd" fill="#F47424" d="M293.813,100.326c-13.447,5.857-26.594,13.148-38.01,23.947
		c-8.463-7.279-31.592-4.07-27.205-22.52c3.252-12.232,8.199-28.021,23.117-31.541C267.22,76.631,290.909,79.533,293.813,100.326
		L293.813,100.326z"/>
	<path fill-rule="evenodd" clip-rule="evenodd" fill="#F47424" d="M480.421,96.238c2.955,10.812,0.561,22.832-0.572,33.631
		c-5.297,5.564-15.49,0.311-19.006,8.467c-6.467-16.363-22.518-30.975-38.021-39.18c2.611-7.896,4.961-16.357,13.465-21.049
		c14.312-11.982,28.334,2.959,40.047,9.682L480.421,96.238L480.421,96.238z"/>
	<path fill-rule="evenodd" clip-rule="evenodd" fill="#FFFFFF" d="M888.333,133.395c-11.982,7.328-24.002-5.258-35.068,2.947
		l-12.879-4.43c8.461-3.775,17.223-9.633,26.898-12.58C874.276,123.762,883.073,126.965,888.333,133.395L888.333,133.395z"/>
	<path fill-rule="evenodd" clip-rule="evenodd" fill="#F47424" d="M392.103,122.279c5.258,3.52,7.9,11.676,14.631,12.586
		c1.77,1.477,2.648,3.209,2.031,5.559c-5.234,2.904-12.85,0.299-18.693,2.043c-6.418-5.252-4.088-18.449-15.49-17.539
		c-1.178-3.508,1.732-2.082,3.508-3.508L392.103,122.279L392.103,122.279z"/>
	<path fill-rule="evenodd" clip-rule="evenodd" fill="#F47424" d="M324.544,142.455l-23.695-0.604
		c7.334-14.314,23.129-17.834,37.754-19.572L324.544,142.455L324.544,142.455z"/>
	<path fill-rule="evenodd" clip-rule="evenodd" fill="#FFFFFF" d="M185.642,160.912c-1.758-9.684,2.025-20.488,10.537-26.613
		l2.896-1.477v20.188L185.642,160.912L185.642,160.912z"/>
	<path fill-rule="evenodd" clip-rule="evenodd" fill="#FFFFFF" d="M950.032,174.92l-0.859,0.615
		c-4.686-5.869-11.104-10.25-18.145-12.02c-6.418-6.125-11.104-13.459-20.475-15.191c6.156-3.826,14.617-4.393,22.518-4.996
		C941.845,152.699,947.44,163.205,950.032,174.92L950.032,174.92z"/>
	<path fill-rule="evenodd" clip-rule="evenodd" fill="#F47424" d="M314.001,159.996c3.516,2.336,9.373,4.947,9.373,9.938
		c-0.91,19.006-6.469,36.539-7.902,55.545c-5.869,3.826-14.33,8.199-15.496,16.102c-6.461,2.33-12.281,7.021-18.75,9.064
		c-2.592-5.551-1.42-12.586,1.186-17.527c7.021-8.811,18.438-8.207,24.549-17.584c4.4-10.193,2.643-23.074,0-33.629
		c-4.947,5.303-13.445,4.43-20.17,3.52c-9.34-4.686-9.938-16.1-20.443-19.57l-3.508-4.381l2.031-1.477H314.001L314.001,159.996z"/>
	<path fill-rule="evenodd" clip-rule="evenodd" fill="#F47424" d="M444.743,162.949c-3.809,9.939-18.707,8.193-21.049,20.482
		c-7.018,5.807-16.4,3.471-24.564,2.043c-3.5-1.482-4.373-9.377-8.498-4.998c5.857,12.588-4.941,34.801,14.631,38.627
		c0.859,15.18,18.432,13.441,27.504,20.432c-1.172,5.857-5.857,10.244-9.072,15.229c-8.201-9.67-24.855-8.498-26.607-22.219
		l-12.873-10.537l-4.119-50.59C396.489,152.699,422.224,165.854,444.743,162.949L444.743,162.949z"/>
	<path fill-rule="evenodd" clip-rule="evenodd" fill="#FFFFFF" d="M201.729,186.023c-12.586,7.9-3.508,24.568-9.066,35.068
		l-4.947,25.479c-2.074-14.93-15.795-29.256-7.035-44.477l5.871-11.678C191.499,188.939,196.745,187.506,201.729,186.023
		L201.729,186.023z"/>
	<path fill-rule="evenodd" clip-rule="evenodd" fill="#FFFFFF" d="M511.964,234.588c-4.947,0.312-8.449,3.215-13.143,4.088
		c0.861-13.148,2.898-28.084,6.15-41.238C511.964,207.383,518.692,221.439,511.964,234.588L511.964,234.588z"/>
	<path fill-rule="evenodd" clip-rule="evenodd" fill="#F47424" d="M305.833,276.686c-6.15,3.209-13.141,7.59-20.482,9.066
		c-2.342-2.338-1.432-7.023-0.561-9.939C292.991,277.283,298.243,273.17,305.833,276.686L305.833,276.686z"/>
	<path fill-rule="evenodd" clip-rule="evenodd" fill="#FFFFFF" d="M547.069,286.318c5.559,7.59,8.768,15.789,11.977,23.945
		c-2.955,2.35-7.59,1.789-10.506,0c-5.596-4.379-9.371-8.156-14.059-14.006v-21.049
		C539.169,278.111,539.169,289.527,547.069,286.318L547.069,286.318z"/>
	<path fill-rule="evenodd" clip-rule="evenodd" fill="#F47424" d="M415.755,288.668c-5.559-1.738-13.707-4.961-20.176-8.469
		l1.477-1.471l21.049,0.598L415.755,288.668L415.755,288.668z"/>
	<path fill-rule="evenodd" clip-rule="evenodd" fill="#FFFFFF" d="M406.122,328.459c-2.904,13.752-5.857,28.639-17.527,37.443
		c-2.338-5.857-6.426-11.104-9.939-15.484c-1.775,8.156-4.691,16.355-5.551,24.557c-6.164,2.293-12.594,3.775-19.623,4.08
		c-1.732-8.811-5.559-16.668-5.559-26.039l-1.426-1.172c-3.26,2.045-3.559,7.035-4.43,11.111l-8.15,14.057
		c-6.17-2.336-14.32-0.604-17.578-7.639c-1.428-6.986,2.641-13.703-0.867-19.865l-11.104,9.926
		c-8.199-8.449-10.816-21.596-8.461-34.494C327.747,310.625,376.013,309.441,406.122,328.459L406.122,328.459z"/>
	<path fill-rule="evenodd" clip-rule="evenodd" fill="#FFFFFF" d="M808.226,344.816c-0.871,4.424,4.076,6.168,7.029,7.027
		c13.715-5.252,18.705,7.291,23.086,16.053v1.477c-18.139-4.381-43-13.154-59.676-0.861c-2.891-2.916-0.561-10.25,0.916-14.623
		c3.771-6.424,10.252-12.85,18.09-12.588C801.808,341.039,806.444,340.734,808.226,344.816L808.226,344.816z"/>
	<path fill-rule="evenodd" clip-rule="evenodd" fill="#FFFFFF" d="M571.632,362.35c-3.24,2.338-6.729-1.738-10.543-1.477
		c-7.59-1.164-17.834,3.209-21.609-6.424l-2.953-7.029c5.252-1.738,11.721-4.947,18.438-2.648
		C561.089,349.203,566.335,356.791,571.632,362.35L571.632,362.35z"/>
	<path fill-rule="evenodd" clip-rule="evenodd" fill="#FFFFFF" d="M478.944,400.098l10.537,13.459
		c-7.639,2.643-15.84-1.184-21.646-6.43c-11.104-9.371-11.977-24.295-14.02-37.754C465.229,376.408,481.593,382.832,478.944,400.098
		L478.944,400.098z"/>
	<path fill-rule="evenodd" clip-rule="evenodd" fill="#FFFFFF" d="M241.79,388.084c7.283,11.104,16.967,20.787,18.998,33.922
		c-15.229-3.502-28.076-17.82-35.1-30.406c-1.732-6.73-2.35-14.93-2.037-21.66C230.979,373.199,242.345,378.139,241.79,388.084
		L241.79,388.084z"/>
	<path fill-rule="evenodd" clip-rule="evenodd" fill="#FFFFFF" d="M535.966,389.555c-9.633,0.561-24.301,3.215-30.994-6.125
		c4.648-4.119,9.078-8.492,14.887-9.371C525.161,379.311,532.14,383.691,535.966,389.555L535.966,389.555z"/>
	<path fill-rule="evenodd" clip-rule="evenodd" fill="#FFFFFF" d="M285.962,390.414l-2.043,24.576
		c-8.488-10.256-14.363-23.703-16.102-36.539C273.675,382.832,280.403,385.467,285.962,390.414L285.962,390.414z"/>
	<path fill-rule="evenodd" clip-rule="evenodd" fill="#FFFFFF" d="M837.774,402.143c-16.674-2.605-35.979-5.248-48.566,7.9
		c-1.73,0.311-3.463,0.598-4.934,1.471c-2.051-4.113-2.051-10.842,0-14.93c8.199-6.73,17.521-19.572,29.498-12.588
		c10.25,1.471,19.627,6.73,24.002,16.975V402.143L837.774,402.143z"/>
	<path fill-rule="evenodd" clip-rule="evenodd" fill="#FFFFFF" d="M462.837,438.107l0.879,2.043c-7.607,1.172-16.93,4.088-23.965,0
		c-11.707-9.371-9.371-26.904-5.551-40.053l4.947-11.977C448.829,403.912,437.415,431.092,462.837,438.107L462.837,438.107z"/>
	<path fill-rule="evenodd" clip-rule="evenodd" fill="#FFFFFF" d="M618.153,408.561c-10.506,3.812-25.422,2.953-32.465-4.936
		l14.059-7.652L618.153,408.561L618.153,408.561z"/>
	<path fill-rule="evenodd" clip-rule="evenodd" fill="#FFFFFF" d="M211.669,416.148c-5.857,10.258-17.578,13.771-21.652,24.564
		h-1.434c-1.172-10.244-7.902-22.832,6.119-29.25C201.126,411.463,206.671,413.508,211.669,416.148L211.669,416.148z"/>
	<path fill-rule="evenodd" clip-rule="evenodd" fill="#FFFFFF" d="M406.122,411.514c2.643,11.977,2.35,25.436,8.512,36.277
		l-0.91,0.859c-8.461-4.686-25.129-7.889-23.092-21.074C395.019,422.006,401.437,416.199,406.122,411.514L406.122,411.514z"/>
	<path fill-rule="evenodd" clip-rule="evenodd" fill="#FFFFFF" d="M326.015,445.709c-11.975-7.027-20.736-19.303-22.518-33.023
		l18.438,5.818L326.015,445.709L326.015,445.709z"/>
	<path fill-rule="evenodd" clip-rule="evenodd" fill="#FFFFFF" d="M844.765,428.139c7.59-0.873,13.148-10.506,21.646-4.949
		c9.336,5.248,17.547,14.881,19.018,25.424c-17.285-9.061-36.85-13.148-56.764-16.102c-10.506,1.172-18.096,10.543-28.951,11.104
		c-3.775,3.527-7.895,6.48-12.58,8.512c-5.551-4.984-3.781-14.057-4.082-21.945c7.902,0,13.461-6.131,20.178-9.086
		c15.191,8.201,36.277-20.176,40.053,5.559L844.765,428.139L844.765,428.139z"/>
	<path fill-rule="evenodd" clip-rule="evenodd" fill="#FFFFFF" d="M354.966,455.654c-2.648-7.041-3.516-14.941-4.998-22.52
		c7.035-3.215,13.758-9.645,19.004-16.076C368.71,430.219,368.425,448.363,354.966,455.654L354.966,455.654z"/>
	<path fill-rule="evenodd" clip-rule="evenodd" fill="#FFFFFF" d="M593.591,438.682c-15.18,7.887-31.281-1.484-45.051-6.992
		c-2.904-2.082-5.24-3.551-6.418-7.029c7.602,0.262,15.502-11.713,21.957-1.471C574.892,425.832,583.958,434.605,593.591,438.682
		L593.591,438.682z"/>
	<path fill-rule="evenodd" clip-rule="evenodd" fill="#FFFFFF" d="M721.95,436.637c11.982,6.418,10.506,18.705,10.506,30.121
		c-16.051-13.146-29.822-31.293-42.098-46.209C703.257,419.926,709.675,435.154,721.95,436.637L721.95,436.637z"/>
	<path fill-rule="evenodd" clip-rule="evenodd" fill="#FFFFFF" d="M530.407,457.686l14.07,13.459
		c-21.049,7.328-37.156-10.805-49.139-24.576c6.418-5.246,15.191-4.373,23.092-6.418L530.407,457.686L530.407,457.686z"/>
	<path fill-rule="evenodd" clip-rule="evenodd" fill="#FFFFFF" d="M240.313,446.568c-1.732,13.771-13.459,25.424-23.086,34.246
		c-1.783-10.242,2.902-21.658,4.379-32.201C225.384,443.678,235.067,443.055,240.313,446.568L240.313,446.568z"/>
	<path fill-rule="evenodd" clip-rule="evenodd" fill="#FFFFFF" d="M643.276,464.104c-1.738,3.826-3.514,11.416-7.596,10.555
		c-10.535-7.602-7.021-19.877-5.85-30.42C636.847,448.053,642.667,455.904,643.276,464.104L643.276,464.104z"/>
	<path fill-rule="evenodd" clip-rule="evenodd" fill="#FFFFFF" d="M690.976,462.67c1.166,11.988,17.223,8.213,19.572,20.176
		c2.336,7.043,8.5,12.861,8.5,19.879c-3.217,3.838-10.85,2.953-10.543,9.682c5.545,3.527,12.273,6.992,15.49,12.537
		c-0.262,13.771-1.738,26.033-4.076,39.492c-3.514,0.611-4.393-3.477-4.959-5.557c-3.553-34.197-20.477-62.885-33.062-93.555
		l-16.102-14.631C675.167,451.879,687.755,452.426,690.976,462.67L690.976,462.67z"/>
	<path fill-rule="evenodd" clip-rule="evenodd" fill="#FFFFFF" d="M701.462,457.686v1.471h-2.641v-2.045
		C699.692,456.812,700.292,458.297,701.462,457.686L701.462,457.686z"/>
	<path fill-rule="evenodd" clip-rule="evenodd" fill="#FFFFFF" d="M863.771,461.76l18.705,10.543l4.984,19.006
		c-10.543,5.559-19.914-5.246-30.113-7.639c-5.852-3.465,2.902-11.965-4.992-13.436c-11.109,0.287-19.004,7.889-30.682,6.455
		c-0.91,0.873-2.33,0.873-2.953,2.031c-1.172,2.918,3.215,3.49,2.953,6.432c-8.5,5.559-17.578,7.029-27.504,4.088
		c-3.514-5.26-4.961-11.988-4.088-18.096c6.432-4.387,17.223-2.355,23.092-9.945c15.797-5.857,28.689,4.375,43.568,4.947
		L863.771,461.76L863.771,461.76z"/>
	<path fill-rule="evenodd" clip-rule="evenodd" fill="#FFFFFF" d="M489.481,480.814c7.34,5.248,15.49,8.201,22.525,13.447
		c-22.824,11.977-46.217-5.246-63.738-19.004c8.463-3.217,19.865-2.045,28.633-6.418C483.923,467.93,485.399,476.74,489.481,480.814
		L489.481,480.814z"/>
	<path fill-rule="evenodd" clip-rule="evenodd" fill="#FFFFFF" d="M264.87,471.145c-0.859,9.932-4.693,20.787-8.193,30.67
		c-7.604,8.811-23.398,6.766-33.025,4.996c15.191-7.602,26.039-22.207,34.232-36.539
		C259.929,471.443,262.825,470.834,264.87,471.145L264.87,471.145z"/>
	<path fill-rule="evenodd" clip-rule="evenodd" fill="#FFFFFF" d="M671.958,501.814c2.611,6.418-3.508,10.256-7.596,12.586
		l-2.068,0.873c-10.506-11.416-9.645-27.779-6.424-42.098C670.481,475.207,661.983,494.225,671.958,501.814L671.958,501.814z"/>
	<path fill-rule="evenodd" clip-rule="evenodd" fill="#FFFFFF" d="M415.755,482.248c6.432,8.201,16.975,16.961,24.562,25.162
		c-6.729,3.826-14.318,7.602-23.092,4.947c-14.008-5.246-15.484-23.379-29.547-28.639c-0.873-2.904-3.777-5.246-2.605-9.061
		L415.755,482.248L415.755,482.248z"/>
	<path fill-rule="evenodd" clip-rule="evenodd" fill="#FFFFFF" d="M320.458,478.16c-2.031,9.373-9.074,20.502-18.133,25.734
		c-9.939,3.777-21.049,6.73-32.465,4.387c11.416-10.492,25.424-18.443,35.973-30.121H320.458L320.458,478.16z"/>
	<path fill-rule="evenodd" clip-rule="evenodd" fill="#FFFFFF" d="M321.897,532.832l-11.416,3.527
		c7.895-12.537,21.652-22.52,26.039-37.15c6.418-4.686,16.4-2.902,23.08-4.373C354.966,512.096,340.901,529.082,321.897,532.832
		L321.897,532.832z"/>
	<path fill-rule="evenodd" clip-rule="evenodd" fill="#FFFFFF" d="M855.868,510.936c9.945,5.857,15.797,16.053,14.064,26.895
		l-19.012-9.934c1.738-4.984-2.037-9.072-6.156-9.072c-11.414-2.939-23.689-0.896-33.635,3.527
		c-6.418-2.355-7.9-10.555-9.932-16.113c12.836-3.203,27.771-9.621,42.695-4.984C850.312,501.863,854.399,504.768,855.868,510.936
		L855.868,510.936z"/>
	<path fill-rule="evenodd" clip-rule="evenodd" fill="#FFFFFF" d="M750.034,512.357c3.514,9.633-0.879,22.232-1.477,30.992
		c-4.947-13.16-12.549-24.861-19.006-37.148C735.716,499.209,747.991,503.297,750.034,512.357L750.034,512.357z"/>
	<path fill-rule="evenodd" clip-rule="evenodd" fill="#FFFFFF" d="M646.224,530.814c6.164,10.791-7.596,23.689,9.646,28.064
		c1.166,11.414-4.082,21.92-6.162,32.775c-1.439-9.945-4.961-20.189-11.379-28.688c2.045-3.777,5.254-7.604,0.873-11.105
		c-3.814-3.775-10.256-3.488-10.543-9.943c-2.605-10.244,7.639-15.191,10.543-23.094C644.747,519.398,644.2,526.414,646.224,530.814
		L646.224,530.814z"/>
	<path fill-rule="evenodd" clip-rule="evenodd" fill="#FFFFFF" d="M693.007,548.336c2.947,8.76,5.863,20.176,1.477,29.26
		c2.654,3.203,6.119,3.203,9.934,2.893c0,9.072-7.895,18.705-12.582,27.479l-3.52,4.125c0.617-9.945,5.309-22.531-3.502-29.561
		c-2.916,0-6.125,0.299-6.984-2.604c-0.307-13.746,4.379-25.734-5.871-35.967c-0.859-11.416,12.289-12.885,18.451-19.615
		C694.483,530.189,691.269,540.732,693.007,548.336L693.007,548.336z"/>
	<path fill-rule="evenodd" clip-rule="evenodd" fill="#FFFFFF" d="M240.313,549.506c7.027,4.387,14.318,7.59,20.475,13.461
		c-1.775,2.953,0,6.418,2.916,8.461c6.156,2.643,10.537,7.639,11.727,14.057V605.1c-5.258-9.98-12.605-25.172-25.74-27.504
		c-7.9-3.824-13.764-11.676-18.449-18.717c-14.014-5.857-29.811-6.156-44.74-2.33c-2.648-5.871,5.246-10.557,9.061-16.102
		l4.088-4.947C212.847,541.307,232.419,534.59,240.313,549.506L240.313,549.506z"/>
	<path fill-rule="evenodd" clip-rule="evenodd" fill="#FFFFFF" d="M841.245,547.463c7.895-0.287,15.496,2.617,20.182,8.461
		c-0.561,7.615-1.178,17.848-2.043,25.174c-8.506-11.402-19.305-24.549-35.1-25.174c-7.609,1.172-12.295,8.213-19.572,9.996
		c6.73-8.824-0.91-30.42,17.527-27.518C832.489,535.188,832.179,548.037,841.245,547.463L841.245,547.463z"/>
	<path fill-rule="evenodd" clip-rule="evenodd" fill="#FFFFFF" d="M419.271,568.512c-3.777,2.043-9.074-0.561-13.148-2.031
		c-7.328-3.252-13.447-10.805-12.586-19.018c4.686-1.471,10.543,0.312,15.191-1.471L419.271,568.512L419.271,568.512z"/>
	<path fill-rule="evenodd" clip-rule="evenodd" fill="#FFFFFF" d="M522.513,553.893c10.238,3.203,23.385,3.516,28.07,15.492
		l4.947,12.586c-16.91,6.418-21.908-24.002-37.137-9.061c-12.549-4.398-26.607-8.475-38.021,1.16
		c-3.166,1.744-6.73,4.996-10.506,2.902c-0.299-7.277,7.34-12.836,11.977-19.004C497.638,564.137,508.194,534.277,522.513,553.893
		L522.513,553.893z"/>
	<path fill-rule="evenodd" clip-rule="evenodd" fill="#FFFFFF" d="M357.606,557.969c2.355,4.947,4.088,9.945,4.947,15.541
		c-6.119,3.775-15.453,4.635-22.475,1.992l-12.588-15.49C335.96,559.451,348.833,561.781,357.606,557.969L357.606,557.969z"/>
	<path fill-rule="evenodd" clip-rule="evenodd" fill="#FFFFFF" d="M246.731,606.533c-1.172,13.709,17.279,8.463,17.57,21.646
		c7.297,11.99-6.766,19.006-10.543,27.48c-5.85-5.57-2.043-16.975-9.064-21.959c-0.605-4.35,7.895-8.475,2.598-14.02
		c-4.381-3.516-10.805-2.031-16.051-3.516c-13.191-6.418-24.57-17.533-37.15-26.605c-7.9-1.422-15.49,2.355-22.514,4.947
		l-4.08-5.508c7.016-5.596,7.889-16.09,17.533-18.445C212.235,569.385,223.339,598.072,246.731,606.533L246.731,606.533z"/>
	<path fill-rule="evenodd" clip-rule="evenodd" fill="#FFFFFF" d="M845.364,591.654c11.676,8.449,7.346,24.25,4.393,35.055
		c-4.686-2.043-10.25-6.117-14.936-10.504c0-2.643,0.908-7.59-1.422-10.543c-9.377-9.635-24.568-1.732-36.289-4.088
		c-3.215-6.418,2.35-10.793,5.559-15.479c7.041-2.344,14.006-7.029,22.518-4.125C832.216,584.301,837.468,591.654,845.364,591.654
		L845.364,591.654z"/>
	<path fill-rule="evenodd" clip-rule="evenodd" fill="#FFFFFF" d="M495.339,586.969c0,0.859,0.873,2.031,2.043,2.031
		c24.309,0.299,48.859,2.031,63.744,21.658c0,3.502,0,7.889,0,10.543c-9.066-5.297-19.863-6.168-28.07-14.057
		c-16.357-4.387-29.518-0.574-45.617,2.031c-0.861-3.203-2.332-7.602-7.018-4.648c-11.109,3.49-22.779,6.131-32.152,14.02
		c0-7.029,4.686-14.02,6.979-21.035C467.53,591.953,480.714,588.139,495.339,586.969L495.339,586.969z"/>
	<path fill-rule="evenodd" clip-rule="evenodd" fill="#FFFFFF" d="M604.694,650.09c-0.549,3.824-0.561,8.211-2.037,11.727
		c-1.777-7.902-17.566-14.059-8.506-24.564c0.311-17.57-9.322-32.762-11.977-50.334C609.087,598.072,601.192,627.271,604.694,650.09
		L604.694,650.09z"/>
	<path fill-rule="evenodd" clip-rule="evenodd" fill="#FFFFFF" d="M907.942,603.617c0.873,8.773,1.477,21.049-3.508,28.949
		c-4.082-4.387-13.148-11.414-11.988-19.004C894.802,608.564,900.919,587.828,907.942,603.617L907.942,603.617z"/>
	<path fill-rule="evenodd" clip-rule="evenodd" fill="#FFFFFF" d="M190.017,615.605c2.902,11.715,23.092,5.857,20.176,21.049
		c-0.859,3.203-3.521,5.846-2.648,9.934c6.475,3.812,15.795,0.598,21.652,6.168c10.557,11.664,4.082,25.422,0,38.01
		c-10.23-16.113-8.76-41.537-32.152-49.998c-13.191-4.375-25.174-14.93-39.492-11.703c-1.477-7.303,4.686-13.77,9.945-18.406
		C176.556,608.277,180.644,617.936,190.017,615.605L190.017,615.605z"/>
	<path fill-rule="evenodd" clip-rule="evenodd" fill="#FFFFFF" d="M810.257,619.682c4.395,4.984-6.162,11.977,3.516,13.445
		c7.9-1.17,13.16,6.418,16.967,11.99c1.178,1.77,0.566,4.686,0.566,7.016l-2.031,2.043l-30.121-12.537
		c2.045-6.467-2.902-9.98-7.9-12.025c-6.979-0.549-12.275,8.201-18.699,4.998c7.895-6.17,12.58-24.264,25.117-19.006
		C801.198,618.51,805.278,619.682,810.257,619.682L810.257,619.682z"/>
	<path fill-rule="evenodd" clip-rule="evenodd" fill="#FFFFFF" d="M558.485,636.654c14.617,4.947,4.08,26.295,21.047,26.033
		l2.039,2.592c-2.338,7.902-3.783,15.803-7.023,23.404c-5.258-10.506-8.773-25.436-22.488-28.949
		c-3.209-5.246-4.43-12.848-10.549-17.533c-6.418-0.6-13.709-3.516-19.564-1.484c3.471,7.041,13.721,11.977,9.633,21.049
		c5.857,5.309,14.93,7.354,17.527,15.504v18.443l-12.58,8.199c-1.434-13.197,1.781-30.42-11.988-37.746
		c-16.045,0.908-15.791-18.719-28.064-24.564c-10.805,5.846-25.137,2.941-36.24,7.627c2.043-6.156,2.299-14.93,10.506-16.699
		c10.816-7.602,26.898-2.293,37.754-9.906C526.894,622.896,541.823,631.957,558.485,636.654L558.485,636.654z"/>
	<path fill-rule="evenodd" clip-rule="evenodd" fill="#FFFFFF" d="M890.415,645.715c0.305,4.686-3.516,7.602-2.045,12.586
		c7.291,3.203,6.432,10.244,2.045,14.93l-2.045,2.045c-3.246-11.416-12.879-19.928-19.004-30.158l7.041-15.453
		C882.513,633.127,887.46,639.545,890.415,645.715L890.415,645.715z"/>
	<path fill-rule="evenodd" clip-rule="evenodd" fill="#FFFFFF" d="M99.978,647.186c-5.254,4.387-4.088,11.115-6.17,16.973
		c3.252,4.686,10.287,1.746,12.588,7.602c1.17,9.934,2.043,23.08-6.418,28.639c-2.918-7.291-8.213-15.191-16.676-17.533
		c-9.627,12.848-7.889,31.59-7.016,47.953c-4.398,3.826-9.078,7.291-14.033,9.672c-10.535-31.891-1.164-66.398,18.102-91.262
		C86.823,648.668,93.546,647.758,99.978,647.186L99.978,647.186z"/>
	<path fill-rule="evenodd" clip-rule="evenodd" fill="#FFFFFF" d="M165.452,655.66c-1.732,3.514-4.947,6.418-7.027,9.619
		c7.34,4.4,16.961,11.117,19.609,19.928c1.439,19.566-13.148,33.336-24.564,46.771c-2.336-13.746,3.521-25.734,6.125-38.609
		c-8.156,0.861-19.004-14.02-23.652,0c-4.424,16.699-21.646,28.377-24.6,45.6l-1.434-2.031
		c-0.904-25.123,2.604-48.826,13.447-69.303C134.173,656.221,150.821,647.758,165.452,655.66L165.452,655.66z"/>
	<path fill-rule="evenodd" clip-rule="evenodd" fill="#FFFFFF" d="M494.429,667.674c0.873,2.043,0.566,6.168,4.393,6.168
		c9.066-3.564,11.709,5.246,13.143,11.365c2.654,6.717-0.861,13.197-6.992,16.662c-6.15-10.193-2.643-31.854-21.646-29.51
		c-3.521-2.955-7.334-5.26-10.543-9.111C479.513,659.771,490.915,657.131,494.429,667.674L494.429,667.674z"/>
	<path fill-rule="evenodd" clip-rule="evenodd" fill="#F47424" d="M361.944,701.869c2.648,16.961,4.996,35.979,14.068,51.156H351.45
		c-2.965-16.361-20.488-28.637-14.93-46.781c6.418-4.973,16.961-5.234,19.572-14.881c-1.178-4.125-7.297-9.371-13.154-6.156
		c-0.305,0.859-1.471,0.611-2.037,0.611c-2.643-17.273,16.668-14.059,25.734-19.615
		C365.757,676.695,362.554,689.594,361.944,701.869L361.944,701.869z"/>
	<path fill-rule="evenodd" clip-rule="evenodd" fill="#FFFFFF" d="M53.761,701.869c-4.691,0.611-8.779-4.686-14.025-4.947
		c-8.5,14.02,1.738,30.121-4.113,45c-4.947-1.432-9.945-4.074-12.848-9.072c-0.91-14.568-2.643-28.938,0-42.084l18.393-19.629
		C52.571,677.008,55.237,690.191,53.761,701.869L53.761,701.869z"/>
	<path fill-rule="evenodd" clip-rule="evenodd" fill="#F47424" d="M723.995,677.307c-13.447,21.92-4.076,51.469-2.904,75.719
		l-17.527,0.91c-7.902-13.445-13.467-29.236-14.064-46.508c0.598-4.088,3.209-7.291,5.857-10.506
		c4.375,4.088,4.686,12.275,11.104,14.893c5.559-7.303,7.029-17.846,4.088-26.607l-4.686-4.947
		C712.317,680.26,717.569,677.307,723.995,677.307L723.995,677.307z"/>
	<path fill-rule="evenodd" clip-rule="evenodd" fill="#F47424" d="M411.063,699.826l-2.336,54.109l-17.523-0.859
		c-3.824-17.883-9.682-36.838-8.211-55.281l8.211-12.588l18.992,15.191L411.063,699.826L411.063,699.826z"/>
	<path fill-rule="evenodd" clip-rule="evenodd" fill="#F47424" d="M452.331,692.797c4.693,4.074,2.916,12.586,1.484,17.533
		l-13.447,42.695H422.79l7.023-52.627c3.514-3.527,4.959-9.945,9.938-11.115C444.743,688.373,448.519,690.453,452.331,692.797
		L452.331,692.797z"/>
</g>
</svg>
