<?xml version="1.0" encoding="utf-8"?>
<!-- Generator: Adobe Illustrator 16.0.0, SVG Export Plug-In . SVG Version: 6.00 Build 0)  -->
<!DOCTYPE svg PUBLIC "-//W3C//DTD SVG 1.1//EN" "http://www.w3.org/Graphics/SVG/1.1/DTD/svg11.dtd">
<svg version="1.1" id="Layer_1" xmlns="http://www.w3.org/2000/svg" xmlns:xlink="http://www.w3.org/1999/xlink" x="0px" y="0px"
	 width="108.399px" height="97.77px" viewBox="0 0 108.399 97.77" enable-background="new 0 0 108.399 97.77" xml:space="preserve">
<g>
	<g>
		<radialGradient id="SVGID_1_" cx="53.5659" cy="8.2363" r="85.2026" gradientUnits="userSpaceOnUse">
			<stop  offset="0" style="stop-color:#449930"/>
			<stop  offset="1" style="stop-color:#024200"/>
		</radialGradient>
		<path fill-rule="evenodd" clip-rule="evenodd" fill="url(#SVGID_1_)" d="M100.708,10.49C86.721,3.777,70.774,0,54.131,0
			C37.483,0,21.538,3.777,7.553,10.631C2.656,22.381,0,35.388,0,48.815C0,62.383,2.656,75.25,7.553,87.138
			C21.538,93.858,37.483,97.77,54.131,97.77c16.643,0,32.59-3.911,46.577-10.632c4.895-11.746,7.691-24.755,7.691-38.322
			C108.399,35.388,105.602,22.381,100.708,10.49L100.708,10.49z"/>
		<path fill-rule="evenodd" clip-rule="evenodd" fill="#FBDF17" d="M97.352,13.428c-13.01-6.014-27.836-9.512-43.221-9.512
			c-15.385,0-30.214,3.498-43.221,9.512C6.574,24.479,4.196,36.367,4.196,48.815c0,12.451,2.377,24.476,6.713,35.39
			c13.007,6.154,27.836,9.512,43.221,9.512c15.385,0,30.35-3.357,43.221-9.512c4.473-10.914,6.852-22.802,6.852-35.39
			C104.204,36.367,101.686,24.479,97.352,13.428L97.352,13.428z"/>
		<radialGradient id="SVGID_2_" cx="52.2129" cy="26.2686" r="60.4099" gradientUnits="userSpaceOnUse">
			<stop  offset="0" style="stop-color:#449930"/>
			<stop  offset="1" style="stop-color:#024200"/>
		</radialGradient>
		<path fill-rule="evenodd" clip-rule="evenodd" fill="url(#SVGID_2_)" d="M39.024,37.486c-2.239,4.617-3.775,9.652-4.478,15.385
			c-0.139,0-1.259,0.142-1.259,0.142c-4.895,0.419-9.79,0.839-14.546,2.656l0.28,1.822c7.831,9.646,19.724,15.523,19.724,15.523
			l-2.241-4.337c-0.559-0.419-2.235-0.838-2.235-0.838c-5.316-1.682-9.094-8.672-9.653-9.794c4.337,0,8.253,1.263,11.889,2.52
			c2.52,0.701,4.897,1.54,7.275,1.817c4.194,0.701,8.53,0,12.587-0.561c3.217-0.419,6.295-0.419,9.371-0.136
			c0.422,0.419,3.639,4.336,6.855,6.012c3.916,1.959,15.246,5.458,15.805,5.593c0.279,0.142,4.613,4.619,7.412,9.653
			c-12.867,5.875-27.275,8.949-41.68,8.949c-14.408,0-28.816-3.074-41.682-8.949C8.251,72.035,6.013,60.565,6.013,48.815
			c0-11.609,2.238-23.079,6.436-33.988c12.866-5.874,27.274-8.95,41.682-8.95c14.543,0,28.952,3.076,41.68,8.95
			c4.197,10.909,6.436,22.379,6.436,33.988c0,10.77-1.82,21.26-5.316,31.189c-4.057-6.99-5.734-9.091-5.734-9.091
			c-0.141,0-5.734-2.933-7.133-4.195c-1.119-0.979-1.68-2.938-2.379-5.174c-0.838-3.216-1.957-7.133-5.035-10.349l3.496-1.401
			c-0.979-6.574-8.811-10.77-8.949-10.77l-0.143,0.14c3.078,3.777,3.637,6.853,3.637,8.812c0,0.979-0.139,1.679-0.281,1.958
			c-0.836-0.418-6.572-2.238-19.859-1.678c-1.819,0-4.616-0.14-6.294-1.679c-0.98-0.838-1.4-2.24-1.4-3.777l0,0
			c0-4.615,1.961-10.77,2.238-11.609l3.358,0.42c4.195-2.237,5.734-4.336,5.873-4.616c-3.497,0.421-8.111,1.26-8.111,1.26
			c0.278-0.699,1.119-3.357,1.119-6.295c0-3.216-0.979-6.713-5.037-8.812l-0.279,0.141c0.141,0.139,2.378,2.657,2.378,6.014
			c0,0.98-0.139,2.1-0.559,3.078c-1.398-0.421-2.236-0.56-3.777-0.56c-0.839-2.799-3.217-5.034-6.434-6.155l-0.142,0.142
			c0,0,3.497,2.517,3.639,6.014c-1.679,0.139-2.658,0.418-4.756,0.978c-0.979-1.396-2.938-2.516-5.594-2.796v0.28
			c0,0,3.075,0.978,3.636,3.355c-1.819,0.84-4.058,2.098-5.314,3.218l0.139,0.139c7.834-2.935,15.106-3.636,16.925-1.397
			c0.419,0.419,0.56,0.84,0.56,1.397c0,0.561-0.279,1.399-0.839,2.238c-3.776,0.84-9.653,2.378-14.408,4.197l0.7,1.957
			c0,0,4.756,0.979,6.576,1.399C38.746,36.787,39.443,36.926,39.024,37.486L39.024,37.486z"/>
	</g>
</g>
</svg>
