<?xml version="1.0" encoding="utf-8"?>
<!-- Generator: Adobe Illustrator 16.0.0, SVG Export Plug-In . SVG Version: 6.00 Build 0)  -->
<!DOCTYPE svg PUBLIC "-//W3C//DTD SVG 1.1//EN" "http://www.w3.org/Graphics/SVG/1.1/DTD/svg11.dtd">
<svg version="1.1" id="Layer_1" xmlns="http://www.w3.org/2000/svg" xmlns:xlink="http://www.w3.org/1999/xlink" x="0px" y="0px"
	 width="271.836px" height="182.566px" viewBox="0 0 271.836 182.566" enable-background="new 0 0 271.836 182.566"
	 xml:space="preserve">
<g>
	<path fill="#7B7C7E" d="M160.3,27.973c1.556,0,3.113-1.298,3.113-3.113s-1.558-3.113-3.113-3.113c-1.813,0-3.112,1.297-3.112,3.113
		C157.188,26.675,158.486,27.973,160.3,27.973L160.3,27.973z"/>
	<path fill="#7B7C7E" d="M117.761,22.526c1.556,0,2.593-1.297,2.593-2.595c0-1.557-1.038-2.854-2.593-2.854
		c-1.556,0-2.594,1.297-2.594,2.854C115.167,21.229,116.205,22.526,117.761,22.526L117.761,22.526z"/>
	<path fill="#7B7C7E" d="M85.857,87.631l-1.296-1.557c3.63-3.371,7.521-8.559,8.04-11.672c0.519-3.112,4.929-2.594,4.149,0.519
		C95.714,79.072,90.525,84,85.857,87.631L85.857,87.631z"/>
	<path fill="#7B7C7E" d="M58.881,23.562c-6.484,2.854-7.522,9.599-2.854,13.748c5.447,4.929,14.785,0.778,14.006-6.744
		c7.523,0.26,12.451-7.522,11.154-12.968c3.373-2.854,3.631-9.079-0.26-11.414C76.52,3.59,72.369,4.628,69.775,9.556
		C63.032,9.037,56.287,14.484,58.881,23.562l-3.113-1.296c-4.15-8.819,3.113-17.898,12.192-15.823
		c1.815-4.41,8.56-9.079,15.822-4.669c5.966,3.631,7.003,12.71,1.038,17.119c2.853,8.56-3.113,15.562-11.931,14.784
		c-1.038,10.896-11.154,12.192-17.898,7.005c-3.891-2.854-5.447-7.005-5.966-10.117c-0.778-3.113-0.778-5.966-4.151-9.337
		c-2.333-2.594-6.484-2.594-6.484-2.594c0-7.782-7.522-15.045-16.86-11.674c-3.113-2.593-7.262-2.853-10.116,0.521
		c-1.557,2.075-2.594,7.262,2.594,9.856c-0.26,7.003,5.188,11.672,13.228,11.153c0.52,3.891,4.67,7.263,8.561,7.781l-0.26,2.076
		c-3.891-0.52-6.226,1.037-8.819,4.149c-9.339-0.26-16.083,3.892-15.823,10.635C4.41,54.43,3.113,61.434,6.744,65.064
		c3.891,3.631,9.339,2.334,11.154-2.075c6.744,1.297,12.71-3.631,12.97-9.079c6.225,0,9.078-2.594,10.115-8.3l2.335,0.26
		c0.778,6.225-2.075,11.931-9.597,11.413c-0.259,7.262-7.523,11.413-14.267,8.819c-3.113,5.966-10.115,8.3-16.341,2.593
		C1.36,67.023,0.346,64.958,0,62.833v-3.324c0.592-3.643,3.117-6.946,7.263-8.191c0-7.263,5.447-14.007,15.823-11.413
		c0,0,1.296-3.373,4.668-3.632c-2.335-0.778-3.891-2.074-4.41-4.149c-7.782,1.557-14.525-5.708-12.71-12.97
		C3.632,15.522,3.373,8.519,7.003,4.368c3.631-4.409,9.857-5.447,15.304-0.778c9.079-4.929,19.713,1.298,18.936,11.673
		c6.484-0.261,10.375,5.445,9.857,11.152c1.038-2.594,2.333-3.631,4.668-4.148L58.881,23.562L58.881,23.562z"/>
	<path fill="#7B7C7E" d="M74.962,10.852l1.557,1.297c-3.113,6.226-8.56,13.229-13.229,16.86l-1.556-1.297
		C64.847,22.266,71.851,13.706,74.962,10.852L74.962,10.852z"/>
	<path fill="#7B7C7E" d="M29.57,46.129l1.038,1.558c-3.891,3.891-10.895,9.078-14.785,10.895l-1.297-1.557
		C18.158,53.133,24.902,47.946,29.57,46.129L29.57,46.129z"/>
	<path fill="#7B7C7E" d="M38.649,27.194l-1.816,2.075c-4.928-3.113-14.785-11.933-17.12-15.305l1.556-1.556
		C25.939,14.743,35.537,23.304,38.649,27.194L38.649,27.194z"/>
	<path fill="#7B7C7E" d="M29.311,111.236c0.778,2.852,0.26,5.965,2.853,9.078c0.778,1.038,5.966,7.782,9.597,11.152
		c-4.927,1.816-15.043,5.967-22.047,6.744c-1.556,0.261-3.113,1.297-4.41,2.075c-1.036,1.558-1.815,4.151-2.333,7.264
		c-0.26,2.335,0,4.669,0,7.265c0,2.074,1.038,9.077,3.631,13.746c2.335,4.67,4.669,6.745,7.523,8.041
		c0.778-0.261,1.816-0.519,3.89-0.519c5.448-0.26,9.599,2.854,11.414,5.446c0.778,1.038,2.333,1.038,4.149,1.038
		c4.41,0,9.079-1.298,13.489-3.113c1.038-0.778,3.891-2.594,6.484-4.669c2.593-2.075,17.638-14.785,24.382-17.896
		c3.371,1.814,9.078,4.149,15.043,4.149c0.26,0,1.557,0,2.595-0.26c1.816-0.259,4.409-1.296,7.262-1.815
		c5.448-1.038,11.672-1.814,13.488-1.814c4.929,0,19.195,0.26,22.568,0.26c3.631,0,8.819-0.26,10.635-0.52
		c3.113-0.778,9.855-2.595,16.34-5.707c6.227-2.854,19.715-12.19,22.049-14.267c1.038-1.038,2.074-2.075,2.595-3.113
		c0.259-0.26,0.521-0.519,0.521-0.777c0-0.26-0.262-9.338-0.262-9.338s3.373-3.631,4.67-4.93v-0.258
		c-0.521-1.814-1.039-7.521-0.777-13.488l-3.373-1.556c0,7.262-2.596,13.487-5.188,17.118c-4.67,0.779-14.008,3.892-17.38,7.522
		l1.816,0.519c3.112-1.556,6.483-2.854,10.376-2.854c3.369,0,4.927,0.778,4.927,1.815c0,0.778-0.778,2.335-1.037,2.853
		c-0.258,0.521-0.521,1.298-1.036,1.817c-4.41,4.928-9.599,9.337-16.082,12.709c-4.15,2.334-8.302,4.149-14.526,5.707
		c-1.814,0.519-4.409,1.296-6.226,2.075c-2.334-0.26-14.524-0.521-21.789-0.521c-7.262,0-22.307,1.037-26.976,2.335
		c-2.075,0.52-2.594,1.297-5.188,1.297c-4.668,0-10.634-2.334-14.525-4.149c-0.518,0.259-1.815,0.778-3.111,1.297
		c-2.854,1.557-8.819,9.598-12.192,7.263c-1.815,3.632-9.337,7.004-11.932,10.636c0.26-1.815,3.373-14.525,3.632-17.12
		c0-0.52,0-0.777-0.26-1.296c-2.593-4.669-10.375-7.522-14.785-8.561c-1.296-0.26-2.075-0.26-2.853-0.52l-7.004-2.075l-6.225,2.075
		l7.262,1.297l-9.337,6.225c1.556-0.518,11.672-3.371,12.45-3.631c0.778-0.26,2.076-0.518,3.113,0
		c1.556,0.521,5.447,1.298,7.782,2.075c1.296,0.52,3.372,3.113,4.15,4.409c0.259,0.52,0.259,1.815,0.259,4.41
		c0.26,1.556-0.259,3.891-0.518,5.706c-1.038,4.409-3.113,8.042-3.891,9.339c-0.778,1.814-2.075,2.334-3.373,2.854
		c-2.074,1.037-4.668,1.815-7.262,1.815c-2.075,0-3.373-0.261-4.15-1.298c-2.593-3.371-8.819-6.743-15.303-5.446
		c-3.891-2.595-7.782-10.116-7.782-16.341c0-3.634,1.815-9.6,2.853-12.451c6.484-1.038,19.194-5.707,25.679-8.561
		c1.297-0.26,4.928-1.556,8.301-1.556c8.3,0,16.86,7.522,21.789,12.45c1.038-1.297,2.593-3.372,6.744-3.372
		c5.965,0,9.337,5.448,11.153,10.895l3.112-2.074c-0.518-3.371-2.074-6.744-4.668-9.338c-2.075-2.075-5.965-3.892-9.078-3.892
		c-1.816,0-3.891,0.52-4.929,0.52c-4.409,0-6.225-1.815-9.337-4.15c-3.373-2.334-9.597-5.707-14.267-5.707
		c-2.853,0-4.149,1.038-6.484,1.297c-3.631,0-4.929-1.556-6.484-3.631c-0.779-1.038-4.41-4.151-5.448-5.448
		c-0.518-0.777-1.556-3.631-1.815-5.187L29.311,111.236L29.311,111.236z"/>
	<path fill="#7B7C7E" d="M34.239,114.607c1.038,1.038,2.075,2.333,3.373,3.371c1.296,0.777,2.853,1.557,4.149,2.594
		c2.076,1.037,4.411,2.335,6.746,3.113c2.074,0.778,4.668,1.038,7.262,1.038c3.631,0,7.782-0.778,11.154,0.777
		c2.334,1.038,2.593,3.632,4.409,4.15c2.853,1.297,10.894,1.557,15.303,1.557c8.819,0,18.157-1.297,23.863-2.595l-2.853-2.854
		c-3.891,0.52-15.044,1.815-20.49,1.815c-7.264,0-14.266-1.296-14.266-4.409c0-2.075,2.334-4.928,6.744-4.928
		c4.409,0,11.412,2.593,12.709,3.113c1.297,0.258,1.815,0.258,2.853,0l2.593-1.558c-3.631-1.556-16.081-5.966-20.49-5.966
		c-2.075,0-3.113,0.26-4.409,2.075c-1.816,2.075-6.226,4.149-13.489,4.149c-3.891,0-9.337-0.777-10.635-1.297
		c-2.075-0.777-6.484-3.371-9.078-5.187c-3.373-2.593-6.485-5.446-8.561-8.56c-0.778-1.037-1.038-2.074-1.038-3.112
		c0-0.778,0.26-1.557,0.52-2.334c0.519,0.777,1.297,1.556,2.075,2.334c3.631,3.631,9.337,6.484,15.044,7.522
		c1.557,0.259,3.113,0.519,4.67,0.519c2.333,0,4.668-1.297,6.225-2.593l-2.335-2.596c-0.778,0.26-2.334,0.26-3.112,0.26
		c-8.301,0-18.936-5.446-21.27-11.672c-0.26-0.777-0.52-1.038-0.52-1.556c0.26-0.52,0.778-1.817,0.778-2.854
		c0.52,0.519,1.557,1.296,2.854,2.073c3.113,2.075,9.079,4.67,10.116,5.448c2.854-0.778,5.188-1.815,7.004-2.853
		c1.556-0.779,4.149-1.558,6.744-1.558c6.226,0,13.228,3.373,19.713,6.744l4.409-1.815c-5.707-4.149-18.417-9.855-25.42-9.855
		c-4.151,0-8.041,3.113-10.895,3.113c-3.372,0-13.228-4.93-13.228-8.819c0-3.113,6.226-4.668,16.601-5.966
		c-1.815,2.595-3.631,5.188-5.188,8.042l2.595,1.297C63.55,61.692,80.15,46.908,94.157,37.569c4.928-3.113,5.966-5.188,7.781-8.819
		c4.41-8.818,8.56-15.562,15.563-15.562c3.373,0,5.966,1.815,7.781,4.15l5.188,1.557l-5.188,3.373l5.448,2.333
		c-7.004,1.815-16.601,8.561-20.233,18.418c-7.522,0.518-11.153,6.483-13.488,11.413c-1.556,3.37-4.149,4.668-8.042,7.262
		l-30.086,21.01l4.15,0.519l27.753-18.677c5.707-3.631,8.3-6.225,9.597-9.078c2.593-4.929,5.447-8.818,10.895-8.818
		c2.593,0,5.446,1.038,7.781,3.371l4.929,1.557l-5.448,3.113l4.41,2.854c-12.71,3.892-20.492,13.229-25.162,30.606l3.373,0.778
		c1.556-5.708,3.373-11.153,6.226-15.822c7.521,0,15.043-0.261,22.307-0.261c19.714,0,36.055,0.778,44.873,3.373l-3.111-5.447
		c-9.337-1.557-23.086-2.335-41.761-2.335c-6.226,0-12.45,0.26-18.676,0.26c3.891-4.409,9.857-7.782,18.676-10.635l-6.226-3.631
		l7.004-3.892l-9.597-3.631c-1.557-1.297-3.891-2.854-6.486-3.373c3.113-9.597,13.748-15.045,23.864-18.936l-7.262-2.854
		l7.262-3.891l-10.895-3.372c-2.853-3.373-5.706-4.928-9.856-4.928c-10.375,0-14.526,8.818-18.676,16.601
		c-2.075,4.151-3.371,5.707-7.002,8.042c-7.781,5.187-17.638,12.968-27.235,23.085c-4.928-3.631-15.044-14.007-17.898-19.714
		c-1.038,1.297-2.075,4.15-2.075,4.15c1.038,1.038,12.97,13.229,17.38,18.416c-0.26,0.261-0.52,0.778-1.038,1.038
		c-4.67,1.038-16.861,2.075-21.27,1.557l-2.335,4.15c3.113-0.26,15.563-1.815,20.491-2.074c-1.557,1.814-3.113,3.891-4.41,5.705
		c-15.821,1.817-26.198,5.188-26.198,10.896c0,1.038,0.26,2.075,0.26,3.113c0,2.335-0.778,3.373-2.593,4.409
		c-1.038,0.778-1.297,1.297-0.778,1.815c0.519,0.778,2.854,4.409,2.854,4.929c0,1.296-1.038,2.333-2.075,3.371
		c-0.778,1.038-0.778,1.297,0,2.335l4.409,9.857L34.239,114.607L34.239,114.607z"/>
	<path fill="#7B7C7E" d="M228.777,60.656c-1.038,1.037-1.815,2.074-2.594,3.371l-2.596-3.631
		c8.562-11.154,30.868-16.342,44.098-17.378v-5.967c-1.816,0.519-3.631,1.038-5.188,1.297c-2.336,0.777-4.67,1.297-6.486,1.037
		c-1.813,0-3.111-0.777-3.89-1.556c-1.815-2.593-0.258-6.485,5.706-9.855l-4.67-3.892c-3.37,4.669-7.003,9.598-10.373,12.71
		c-3.114,2.595-6.484,3.892-9.34,1.815c-1.295-1.038-1.814-1.557-2.073-4.409c0.259-4.15,2.593-10.376,4.929-14.527l-5.447-0.518
		c-0.777,6.226-3.373,11.413-6.227,15.823c-3.372,5.707-7.781,9.597-12.451,12.71l-2.854-3.113
		c3.631-2.075,8.301-5.707,11.414-10.375c3.632-5.708,6.744-12.71,6.744-18.936l15.305,1.297c-2.075,2.854-5.707,9.078-7.004,13.748
		c-0.778,2.333-0.778,4.148,0.259,4.928c1.556,1.296,4.408-0.779,7.263-3.893c3.893-4.148,7.78-10.635,9.598-12.708l11.154,9.338
		c-4.929,2.593-9.856,5.445-8.82,7.263c0.777,1.556,3.893,1.036,7.522,0c2.854-0.779,5.966-2.335,8.302-3.632v15.305
		c-5.447-0.26-14.526,0.778-23.346,3.631c2.075,2.854,8.04,3.892,11.934,4.409l-2.076,12.45
		C247.973,63.249,240.449,60.914,228.777,60.656l3.891-3.373c8.82,0.26,17.38,2.853,22.309,5.188l0.777-4.671
		c-4.67-0.518-10.115-3.111-12.451-5.966c-3.89,1.558-7.521,3.373-10.635,5.448L228.777,60.656L228.777,60.656z"/>
	<path fill="#7B7C7E" d="M182.607,99.822l3.631-7.782c-3.891-4.409-8.039-10.115-11.672-15.822l-3.112-5.447
		c-7.263-13.748-4.67-20.232-8.56-26.198c-3.113-4.929-18.416-1.815-21.012-1.297l4.409-7.522l-8.817,0.778l7.522-8.819
		c0.778-1.038,1.295-2.334,2.073-5.187c1.297-4.67,5.188-12.71,17.121-12.71c12.969,0,16.859,10.635,22.565,15.043
		c6.484,5.188,15.044,12.45,22.563,19.714l2.854,3.113c3.892,3.891,7.781,8.042,11.412,12.71l2.595,3.631
		c15.824,22.827,35.277,66.662,43.838,86.635c0.776,2.075,1.297,3.891,1.815,5.446c-5.706-3.112-12.19-7.262-18.937-11.672
		l-3.631-2.854c-2.595-1.814-4.929-3.373-7.263-5.447l-4.149-3.112c-2.336-1.815-4.67-3.631-7.004-5.706l7.781,45.65
		c0.777,2.595,3.111,2.075,4.928-0.26c1.814-2.334,2.594-2.853,1.814-5.966l-7.521-33.72l4.15,3.112l7.001,28.532
		c0.78,2.595,1.817,3.373,4.67,3.632c3.114,0,3.632-1.037,3.114-3.111l-7.521-23.604l3.631,2.854l7.262,21.011
		c1.816,5.446,0,6.225-3.111,6.225c-3.373,0-6.226-0.777-8.043,0.261c-1.812,1.297-4.146,4.407-6.742,7.262
		c-2.334,2.335-5.705,1.557-6.483-2.854l-8.82-52.396c-5.444-5.188-10.894-10.375-15.821-15.821
		c-2.074-1.038-4.408-2.075-6.483-3.113l-3.373-1.556c-1.039-0.519-1.816-0.779-2.334-1.038c-2.333,3.112-4.671,6.226-7.263,8.561
		c-1.559,1.037-2.336,1.813-4.67,1.813c-0.52,0-1.297,0-2.074-0.258c-0.778-0.521-1.557-1.556-2.334-2.854
		c-0.777-0.777-1.557-2.074-2.596-3.631c-1.556-2.854-3.371-6.483-5.187-9.337c-1.815-3.112-3.373-5.708-3.632-5.966
		c-0.26-0.779-1.297-1.557-1.297-1.557c-0.777,1.557-1.557,4.41-1.557,5.966l-3.113-1.038c0.26-2.075,1.297-4.928,1.556-6.225
		c0-1.298-1.296-2.854-2.333-2.854c-1.299,0-2.854,1.817-3.633,4.929l-3.371,1.297c0.52-4.929,2.074-10.635,7.004-10.635
		c4.15,0,6.744,3.113,8.561,5.966C174.827,89.447,181.311,98.266,182.607,99.822l2.334,3.113c0.521,2.074,1.297,3.112,1.816,3.891
		c0.778,1.297,1.814,1.297,3.112,0c0.521-0.518,2.333-2.075,4.407-4.15c1.558-1.556,3.115-3.631,3.633-4.669
		c1.816,0.778,5.189,2.595,8.042,3.633c-11.933-14.526-23.086-31.905-28.015-44.097c-2.076-4.929,2.074-6.484,3.893-1.557
		c5.188,13.229,20.23,36.574,31.385,48.765c12.969,14.267,36.573,34.757,51.876,43.059c-2.334-4.41-5.187-10.636-8.56-17.898
		c-18.676-10.375-37.61-29.829-46.432-46.43l3.893,0.26c8.301,14.525,27.754,33.978,39.428,39.426
		c-10.635-22.307-24.384-50.838-35.02-63.03c-13.487-15.045-28.012-26.717-34.756-32.941c-7.004-5.966-9.857-13.489-19.715-13.489
		c-8.039,0-12.189,5.966-14.005,11.673c-0.261,1.296-0.521,1.815-1.298,3.112l-3.893,4.67l8.302-1.038l-4.67,6.744
		c0,0,12.971-2.853,17.639,3.113c4.67,6.744,1.56,14.266,9.599,28.792c3.631,6.483,12.19,17.897,15.043,20.492l-5.705,11.672
		L182.607,99.822L182.607,99.822z"/>
	<path fill="#7B7C7E" d="M54.73,101.897l-2.075-1.297c1.297-1.037,3.373-2.334,5.448-3.372c1.296-0.519,2.334-0.778,3.372-0.778
		c2.075,0,4.15,1.038,5.966,2.075c2.854,1.556,6.226,3.372,8.819,3.372c0.778,0,1.815-0.259,2.853-0.259
		c2.594,0,4.929,1.036,6.226,1.036c0.778,0,1.556-0.777,2.075-1.556c1.296-1.814,3.111-3.373,5.705-4.409
		c2.595-1.038,5.706-1.557,9.079-1.557c2.594,0,5.188,0.52,6.744,0.778c0,0-2.075,2.335-2.594,3.112
		c-2.853,0-8.041-0.26-11.154,1.038c-2.075,1.038-2.853,2.076-2.853,3.892c0,2.335,2.593,3.373,5.706,4.149
		c1.815,0.519,3.891,0.778,5.448,0.778c2.075,0,6.225-0.778,10.115-1.815c4.67-1.038,9.339-2.075,10.635-2.593l1.557,3.111
		c-5.188,1.816-10.635,3.373-15.823,4.409c-2.853,0.52-5.447,1.037-7.782,1.037c-4.15,0-8.56-1.813-12.191-3.371
		c-3.112-1.557-5.705-3.113-8.3-3.113c-2.594,0-5.187,1.038-7.782,2.595c-1.296,0.519-4.928,3.112-8.3,4.409
		c-2.593,1.038-4.668,1.556-7.263,1.556c-2.334,0-3.631-0.26-4.669-1.038l3.891-2.594c0.519,0.52,1.557,0.52,2.075,0.52
		c0.519,0,1.297,0,2.853-0.52c0.778-0.518,2.075-1.296,2.853-1.814c1.557-1.038,2.075-1.557,2.853-2.075
		c1.038-1.038,1.557-2.333,0-3.631c-0.778-0.52-1.556-1.298-2.333-1.815c-1.557-0.778-2.595-1.816-4.928-1.816
		C57.843,100.341,55.768,101.379,54.73,101.897L54.73,101.897z"/>
	<path fill="#7B7C7E" d="M110.498,103.454c0,0-2.333-0.779-3.111-0.779c1.556-2.074,3.631-3.891,5.446-5.187
		c3.113-2.075,6.484-3.373,11.672-3.632c1.297,0,4.15-0.258,5.966-0.258c1.297,0,3.891,0.258,5.966,0.518
		c1.556,0.26,3.112,0.778,4.408,1.038c0.779,0,3.372,0,4.151-0.26c3.631-0.519,8.04-1.815,10.374-3.111l1.039,3.631
		c-4.93,2.333-10.635,4.928-15.823,4.928c-2.335,0-5.188-0.26-7.781-0.519c-4.41-0.519-8.561-1.038-9.857-1.038
		C119.317,98.784,114.13,100.341,110.498,103.454L110.498,103.454z"/>
	<path fill="#7B7C7E" d="M106.867,122.907l-4.669-2.076c6.484-3.371,16.341-6.483,20.232-7.262c4.15-0.52,8.819-1.037,11.414-1.815
		c1.296,2.854,3.631,6.226,7.002,6.226c1.297,0,3.372-1.038,5.446-1.815c2.336-1.038,4.67-2.075,5.968-2.853
		c1.297-0.521,5.447-2.334,9.078-3.891c1.557-0.778,5.188-2.595,5.445-2.595l2.595,1.297c-0.776,3.113-2.075,7.002-3.372,9.855
		c-0.518,1.297-1.035,2.074-1.814,2.853c-1.039,1.038-2.594,2.595-4.928,4.151c-2.336,1.814-5.447,3.631-8.561,5.445
		c-2.336,1.298-4.928,2.854-7.264,3.892l-1.297-2.333c3.891-2.075,7.782-4.928,11.152-7.522c1.559-1.038,3.114-2.335,4.411-3.373
		c0.778-0.777,1.295-1.297,1.556-2.074c1.037-1.557,2.854-4.409,3.373-5.706c-1.559,0.518-7.004,3.112-9.34,4.408
		c-2.854,1.558-7.263,3.633-9.596,4.93c-2.075,1.038-3.893,1.557-5.188,1.557c-2.596,0-3.892-2.075-4.669-3.373
		c-1.817-3.113-3.632-3.371-8.561-3.371C119.577,117.201,111.535,119.794,106.867,122.907L106.867,122.907z"/>
	<path fill="#7B7C7E" d="M133.844,108.383c0,0-0.52-2.595-0.779-3.632c0,0,0.779-0.258,1.815-0.258c1.558,0,5.966,0.518,7.783,0.518
		c6.483,0,9.078-2.074,10.896-3.891c1.813-1.556,3.369-2.853,8.039-2.853c3.893,0,8.561,1.814,9.856,2.334l-0.259,3.632
		c-2.074-1.038-4.67-1.816-7.004-1.816c-1.555,0-3.113,0.259-4.149,0.778c-1.298,0.519-2.075,1.556-3.114,2.334
		c-1.035,1.038-2.854,1.817-4.929,2.595c-2.072,0.778-4.667,1.297-8.558,1.297C138.252,109.42,135.659,108.641,133.844,108.383
		L133.844,108.383z"/>
	<path fill="#7B7C7E" d="M91.823,135.876l3.112-1.297c2.595,1.297,6.744,2.335,9.598,2.335c1.815,0,3.112-0.519,4.149-1.038
		c1.038-0.519,11.154-5.447,16.342-7.263c1.556-0.518,3.372-1.038,4.149-1.038c1.038,0,1.297,0.778,1.557,1.297
		c1.037,1.557,8.559,12.19,9.336,12.97c6.226-1.814,12.971-4.669,16.602-8.301c3.893-3.891,7.264-8.299,10.377-11.672
		c1.297-1.297,2.854-2.593,3.631-2.853c3.111-1.815,13.487-2.075,17.639-1.815l-2.594,3.631c-7.521,0-11.673,0.778-13.488,2.335
		c-0.778,0.52-2.075,1.816-3.373,3.113c-2.592,3.372-5.188,8.04-6.483,9.078c2.333,1.297,4.67,2.853,8.56,2.853
		c6.483,0,10.896-4.148,13.487-6.483l2.075,1.297c-1.557,2.075-3.37,4.149-5.706,5.966c-2.593,1.556-5.706,2.854-7.781,3.372
		c-3.632-0.778-11.672-2.334-13.747-2.854c-7.003,2.854-18.676,7.521-22.308,8.819c-0.778,0-1.556,0.26-2.593,0.26
		c-3.113,0.261-7.522,0.261-11.413,0.261c-2.595,0-5.188,0-6.485-0.261l-3.372-3.632c2.853,0.52,4.15,0.778,7.004,0.778
		c6.484,0,10.894-1.038,12.19-1.558c1.297-0.259,1.557-1.037,1.038-2.073c-0.518-1.559-1.556-3.373-3.113-4.93
		c-0.778-1.038-2.594-2.595-3.372-3.112c-0.778-0.521-1.557-0.779-4.15,0c-2.335,0.777-9.597,4.668-12.71,6.483
		c-1.556,0.778-2.853,1.038-5.447,0.26C101.678,140.285,94.676,137.692,91.823,135.876L91.823,135.876z"/>
	<path fill="#7B7C7E" d="M111.795,55.728c1.297,0,2.593-1.038,2.593-2.596c0-1.297-1.296-2.594-2.593-2.594
		c-1.556,0-2.593,1.296-2.593,2.594C109.202,54.689,110.239,55.728,111.795,55.728L111.795,55.728z"/>
</g>
</svg>
