<?xml version="1.0" encoding="utf-8"?>
<!-- Generator: Adobe Illustrator 16.0.0, SVG Export Plug-In . SVG Version: 6.00 Build 0)  -->
<!DOCTYPE svg PUBLIC "-//W3C//DTD SVG 1.1//EN" "http://www.w3.org/Graphics/SVG/1.1/DTD/svg11.dtd">
<svg version="1.1" id="Layer_1" xmlns="http://www.w3.org/2000/svg" xmlns:xlink="http://www.w3.org/1999/xlink" x="0px" y="0px"
	 width="187.303px" height="108.068px" viewBox="0 0 187.303 108.068" enable-background="new 0 0 187.303 108.068"
	 xml:space="preserve">
<g>
	<path fill="#ED1C24" d="M143.715,62.607c-0.588,0-2.181,0.168-3.104,0.335c-0.169,0.504-2.6,1.594-2.014,4.614
		c0.419,1.847,1.343,3.188,0.923,3.522c-1.174,0.671-2.85-0.503-4.36-1.09c-1.509-0.755-3.856-1.762-5.367,0.168
		c-1.342,1.845,3.271,1.593,7.213,3.69c2.936,1.511,4.949,1.175,9.645,1.679c4.697,0.334,4.947-1.679,5.701-1.595
		c0.673,0.168,0.421,2.013,2.603,2.685c1.007,0.25,3.271-1.008,3.689-0.84c0.671,0.084,0.671,1.426,2.265,2.098
		c1.762,0.504,2.265-0.504,2.851-0.756c0.505-0.252,0.588,1.008,1.595,1.26c1.005,0.168,2.517,0.084,3.271,0.168
		c0.587,0.252,0,1.006,1.678,1.259c1.508,0.252,2.012-0.589,2.766-0.337c0.589,0.253,1.345,1.931,4.529,1.679
		c2.014-0.168,1.511-1.426,1.007-2.349c-0.588-0.924-4.947-1.68-11.992-4.194c-11.907-4.11-15.096-3.104-17.611-7.97
		c-1.005-2.013-1.593-3.104-1.76-3.774C146.565,62.691,145.308,62.775,143.715,62.607L143.715,62.607z"/>
	<path fill="none" stroke="#FFFFFF" stroke-width="0.216" stroke-miterlimit="2.6131" d="M183.803,76.113
		c-0.505-0.336-2.182,1.258-2.852,1.006c-0.757-0.252-1.343-1.258-1.93-1.51c-0.755-0.25-1.175,0.168-1.929,0
		c-0.588-0.082-0.168-1.006-0.671-1.258c-0.673-0.251-1.008,0.418-1.762,0.168c-0.589-0.168-1.008-1.259-1.512-1.511
		c-0.586-0.167-0.754,0.588-1.424,0.336c-0.924-0.336-1.175-1.007-1.762-1.258c-0.504-0.336-1.594,0.671-2.348,0.251
		c-0.757-0.335-0.757-2.935-1.261-3.188c-0.586-0.251-2.431,1.845-3.186,1.342c-0.672-0.335-0.42-2.266-1.007-2.6
		c-0.503-0.336-2.768,1.594-3.354,1.342c-0.502-0.252-0.587-1.258-1.342-1.342c-0.671-0.084-1.845,0.839-2.601,0.587
		c-1.51-0.587-3.354-0.335-5.619-5.704c-0.251-0.671-0.753-1.091-1.256-0.839c-1.344,0.503-0.841,1.006,1.005,4.697
		c2.517,4.866,5.704,3.858,17.611,7.97c7.044,2.516,11.404,3.271,11.992,4.194c0.504,0.922,1.007,2.181-1.007,2.349
		c-3.187,0.252-3.941-1.427-4.529-1.679c-0.754-0.252-1.258,0.589-2.766,0.336c-1.678-0.252-1.091-1.006-1.678-1.258
		c-0.756-0.084-2.267,0-3.271-0.168c-1.007-0.252-1.09-1.512-1.595-1.26c-0.586,0.252-1.089,1.26-2.852,0.756
		c-1.593-0.672-1.593-2.014-2.264-2.098c-0.42-0.168-2.684,1.09-3.689,0.84c-2.182-0.672-1.93-2.517-2.603-2.685
		c-0.754-0.084-1.004,1.929-5.701,1.595c-4.694-0.504-6.709-0.168-9.645-1.679c-3.941-2.098-8.556-1.846-7.213-3.69
		c1.511-1.931,3.858-0.923,5.366-0.168c1.513,0.587,3.188,1.762,4.361,1.09c0.42-0.335-0.504-1.677-0.923-3.522
		c-0.586-3.271,2.267-4.278,2.014-4.781c-0.419-0.588-2.014-1.426-5.869-0.839c-2.602,0.419-7.633,4.36-8.892,4.949
		c-1.258,0.755-6.456,3.522-9.308-0.588c-2.852-4.192-0.252-8.472,0.922-9.813c1.09-1.342,2.937-2.35,3.605-1.342
		c0.924,1.594-1.258,2.013-2.181,3.104c-0.84,1.091-2.179,4.781-0.672,6.46c1.595,1.677,4.529,1.845,7.884-0.671
		c2.767-2.097,7.297-5.034,11.74-4.698c4.527,0.251,6.878,2.349,7.55,2.518c0.671,0.084,1.257-1.427,2.179-1.762
		c0.671-0.252,1.594,0.586,2.182,0.335c0.503-0.335,1.091-1.678,1.762-1.929c0.755-0.252,2.601,1.006,3.188,0.587
		c0.504-0.252,0.418-1.845,1.259-1.93c0.838-0.168,2.264,1.343,2.851,1.091c0.755-0.419,0.755-1.259,1.509-1.259
		c0.588,0,1.931,2.014,2.602,1.846c0.503-0.083,0.336-2.097,1.091-2.349c0.754-0.252,2.684,1.342,3.354,1.09
		c0.503-0.251,0.587-2.685,1.51-3.188c0.839-0.335,1.678,1.008,2.182,0.756c0.671-0.252,1.089-3.021,1.845-3.104
		c0.67-0.084,2.013,0.754,2.6,0.587c0.503-0.084,0.251-2.601,1.258-3.104c1.008-0.334,2.266,1.26,2.6,1.176
		c0.504-0.168,0.755-1.51,1.259-1.594c0.588-0.168,2.097,1.09,2.853,0.923c0.586-0.252,0.336-2.098,1.006-2.183
		c0.504-0.167,2.601,0.252,2.432-2.097c-0.084-2.35-3.102-4.614-5.952-4.614c-5.201,0-10.399,2.265-14.846,3.104
		c-4.443,0.755-13.585,3.439-15.851,3.859c-2.263,0.336-4.445-0.923-2.433-2.518c1.596-1.51,2.433-0.334,2.433-0.838
		s-1.007-1.007-2.433-1.259c-1.51-0.251-3.271,1.259-5.198,1.007c-1.93-0.252-3.857-1.761-5.953-1.342
		c-5.116,0.587-5.871,2.853-8.47,3.773c-2.603,1.007-4.53,0.252-5.956,0.42c-3.521,0.503-4.78,2.602-7.379,2.35
		c-3.104-0.252-4.613-2.014-7.969-2.938c-3.187-1.006-9.308-1.929-10.734-2.432c-1.509-0.587-8.134-2.183-9.728-2.35
		c-1.761-0.252-2.6,0.251-3.354,0.251c-0.84,0-1.931-0.503-3.104-0.587c-1.091-0.168-2.852-0.251-3.604,0
		c-0.672,0.336-0.923,0.336-1.847,0.084c-0.754-0.084-3.521-0.587-4.695-0.419c-1.679,0.084-2.35,1.176-3.606,1.344
		c-1.174,0.084-2.348-0.505-3.688-0.252c-1.343,0.252-2.433,0.755-3.606,1.09c-1.09,0.419-3.103,0.167-4.025,0.251
		c-2.516,0.587-2.852,1.845-3.773,1.845c-0.839,0-3.857-0.503-4.78,0c-1.007,0.42-1.845,1.174-2.6,1.258
		c-0.922,0.084-4.277,0.588-6.374,0.336c-1.174-0.084-3.188,0.923-4.025,1.174c-1.006,0.252-3.354,0.252-4.025-0.923
		c-0.672-1.426,1.174-3.522,4.277-6.04c2.097-1.594,13.921-9.898,33.125-13.003c15.012-2.517,32.538-8.809,36.229-12.667
		c1.594-1.594,8.052-7.047,9.644-10.402c1.593-3.355,2.096-5.285,1.259-5.201c-0.838,0.252-1.845,2.013-3.438,2.6
		c-1.511,0.503-2.853-0.335-4.025,0.168c-1.091,0.335-2.348,2.098-3.521,2.182c-1.258,0.167-1.763-0.924-2.687-0.505
		c-0.922,0.672-2.431,1.763-3.438,2.014c-2.096,0.336-2.18-2.097-4.108-1.09c-2.013,1.006-3.438,2.684-5.45,3.103
		c-1.846,0.252-1.595-1.174-2.852-1.174c-2.014,0-3.941,2.768-4.864,2.768c-0.922,0-1.678-1.51-2.851-1.342
		c-1.091,0.084-4.529,2.686-5.871,3.104c-1.426,0.252-1.677-1.931-2.853-1.763c-1.425,0.084-4.024,2.602-5.45,2.938
		c-1.51,0.251-2.349-0.755-3.354-0.755s-4.109,2.601-5.619,3.02c-2.18,0.503-2.348-2.264-4.695-2.097
		c-1.678,0.084-3.438,2.35-4.779,2.434c-1.427,0.167-2.014-0.923-3.607-0.587c-1.761,0.503-5.198,2.853-6.374,3.104
		c-1.09,0.251-1.929-0.419-3.271,0c-2.517,0.755-4.863,4.109-6.458,4.949c-1.761,1.007-3.019,0.503-3.941,1.091
		c-1.677,1.174-1.928,3.522-3.521,4.194c-1.426,0.755-1.341-0.336-2.685,0.503c-2.263,1.678-1.425,3.524-2.096,4.363
		c-0.671,0.838-2.517,1.509-3.606,2.853c-1.091,1.258-1.091,2.013-1.51,2.852c-0.503,0.839-2.432,3.356-2.851,4.446
		c-0.251,1.091,0.251,2.265-0.251,3.104c-0.336,0.755-1.09,2.015-1.511,2.936c-0.671,2.182,0.253,4.362,0.169,5.201
		c-0.169,0.755-1.008,2.014-1.008,3.021s1.008,2.936,0.755,4.446C1.988,63.698-1.115,73.68,0.646,78.21
		c1.93,4.697,4.78,7.215,5.786,6.795c1.09-0.336,0.419-2.35,1.51-4.192c1.091-1.765,2.349-3.945,3.354-2.435
		c0.839,1.427-2.012,1.427-2.266,5.535c-0.335,3.943,0.169,2.267,0,3.439c-0.084,1.26-2.6,3.608-2.6,4.698
		c0,1.175,0.252,4.111,3.941,7.214c2.265,2.014,2.768,3.354,3.354,3.438c0.503,0.17,1.007-2.348,2.098-2.852
		c1.51-0.672,4.78,2.266,5.366,2.182c0.755-0.252,1.006-4.279,2.349-5.033c1.343-0.588,4.612,2.013,5.285,1.678
		c0.67-0.504-0.086-3.021,0.25-4.026c0.42-0.922,2.264-1.174,1.677-2.853c-0.502-1.678-0.754-4.948-6.708-5.368
		c-1.763-0.168-4.193-0.421-2.601-2.265c1.846-1.848,3.857-8.641-0.504-13.926c-1.844-2.265-6.038-1.007-7.212-0.504
		c-2.096,0.755-4.192,3.523-5.031,2.769c-0.755-0.755,1.678-3.857,5.45-4.949c3.69-1.175,8.388-0.923,10.232,3.691
		c3.27,8.052,0,11.828,0.419,12.666c0.503,0.84,2.347-0.084,4.947,1.512c3.69,2.433,3.188,4.529,4.109,5.285
		c0.838,0.67,5.283,1.006,9.394,1.258c4.192,0.253,8.805,1.343,10.733,0.253c3.104-1.595,3.354-7.552,10.566-11.914
		c3.605-2.181,8.386-4.361,13.753-3.439c5.955,0.84,6.039,1.68,5.535,2.434c-0.084,0.421-0.25,1.007-0.335,0.923
		c-2.853-1.509-6.96-1.677-9.478-1.175c-3.689,0.673-9.979,1.681-14.592,9.732c-4.529,8.053,2.767,8.137,3.522,8.389
		c0.839,0.336,2.181,0.754,2.097,3.104c-0.168,2.348,0.587,3.69,1.426,5.201c1.006,1.342,2.601,2.432,2.601,2.432
		s1.174-2.684,2.516-3.271c1.342-0.754,2.935,0.589,3.69,1.427c2.348,3.021,1.343-2.601,3.019-3.187
		c2.433-0.756,3.354,2.853,4.697,2.181c2.432-1.091,1.09-2.769,2.852-3.439c1.844-0.504,2.936,1.006,3.689,0.504
		c0.838-0.588,0.755-5.789-0.839-7.885c-1.762-2.182-4.36-5.873-9.896-5.873c-5.451,0-7.212-0.756-6.961-1.846
		c0.252-1.091,1.342-1.847,2.684-1.343c2.099,0.755,2.349,0.586,5.702,0.755c4.864,0.084,3.774,2.182,7.8,3.942
		c3.021,1.258,6.96-0.84,11.825,0c4.946,0.84,9.057,1.762,13.584,1.51c8.558-0.252,18.032-4.026,19.876-4.278
		c1.932-0.334,2.937-0.084,2.937-0.67c0-0.504-8.301-1.763-7.8-3.775c0.671-1.928,4.612-0.336,10.062,0.924
		c5.452,1.174,17.109,2.181,21.638,1.931c4.865-0.085,13.167,2.096,19.959,0.502c3.439-0.839,6.709-2.937,7.045-5.283
		C187.576,78.378,184.473,76.617,183.803,76.113L183.803,76.113z M137.006,47.34c1.342-0.252,3.689,0.335,3.104,1.847
		c-0.505,1.51-0.755,1.258-1.846,1.51c-1.092,0.251-3.354,0.503-3.942-0.504C133.818,49.186,135.496,47.675,137.006,47.34
		L137.006,47.34z M102.875,8.667c0.838,0.42,0.923,1.596,0.838,2.351c-0.252,0.671-0.671,1.342-1.09,1.342
		c-0.672,0-0.672-0.923-0.922-1.846C101.447,9.758,101.951,8.164,102.875,8.667L102.875,8.667z M95.16,11.017
		c1.76,0.419,1.089,2.013,0.753,3.857c-0.252,1.258-1.342,1.594-1.511,1.847c-0.586,1.091-0.753-3.691-0.753-3.691
		S94.153,10.765,95.16,11.017L95.16,11.017z M86.605,12.358c0.671-0.084,1.847,2.517,1.174,4.782
		c-0.754,2.181-1.677,2.181-1.677,2.181s-0.251-2.433-0.504-2.686C85.347,16.217,84.844,12.778,86.605,12.358L86.605,12.358z
		 M78.889,13.617c1.595-0.587,2.015,3.019,1.259,4.865c-0.671,1.93-0.671,3.104-1.846,2.349c-1.426-0.671-0.251-3.02-0.671-3.69
		C77.128,15.965,77.548,14.288,78.889,13.617L78.889,13.617z M70.336,15.63c2.013-0.252,1.761,2.936,1.258,4.698
		c-0.587,1.593-1.006,2.348-1.844,2.097c-0.923-0.336,0.251-2.434-0.252-3.354C68.827,18.231,69.246,15.714,70.336,15.63
		L70.336,15.63z M61.53,17.224c1.175,0.251,2.014,2.013,1.427,4.445c-0.503,2.518-1.258,3.104-1.93,3.104
		c-0.671,0,0.251-3.943-0.336-3.943C60.188,20.831,60.105,16.973,61.53,17.224L61.53,17.224z M52.893,20.16
		c0.755,0,2.433,1.426,1.593,4.026c-0.838,2.685-0.838,2.434-1.593,2.685c-0.839,0.168-0.251-1.595-0.755-2.601
		C51.551,23.431,50.796,20.076,52.893,20.16L52.893,20.16z M45.093,22.927c1.51-0.084,2.097,3.104,1.761,4.446
		c-0.251,1.342-0.755,3.021-1.677,2.769c-0.839-0.167,0.167-2.601-0.587-2.601C44.004,27.542,42.829,23.012,45.093,22.927
		L45.093,22.927z M40.146,32.072c-1.006,1.846-0.923,1.846-1.593,1.846c-0.671,0-0.252-2.685-1.006-2.685
		c-0.671,0-1.258-3.942,0.838-4.11C40.648,27.039,40.733,30.729,40.146,32.072L40.146,32.072z M36.791,19.489
		c0.503,0,1.761,0.839,0.587,2.098c-1.09,1.258-1.174,2.098-2.18,1.595C34.191,22.844,35.198,19.573,36.791,19.489L36.791,19.489z
		 M8.278,45.998c0.671,0,1.51,1.677,1.427,2.35c-0.168,0.503-0.251,1.342-1.259,1.594c-0.923,0.251-1.258-1.258-1.258-1.51
		C7.104,48.094,6.852,45.83,8.278,45.998L8.278,45.998z M9.285,56.986c-0.503,0-1.092,0-1.511-0.335
		c-0.252-0.42-1.929-2.097-0.671-3.775c0.084-0.251,2.182,1.175,2.601,2.098C9.956,55.645,9.956,56.986,9.285,56.986L9.285,56.986z
		 M11.045,42.978c-0.252,0.419-0.922,0.671-1.341,0.419c-0.671-0.419-0.671-1.762-0.419-2.013c0.167-0.084,0.25-2.097,1.592-1.847
		c0.671,0.084-0.084,1.762,0,1.93C11.045,41.719,11.381,42.643,11.045,42.978L11.045,42.978z M66.897,51.534
		c0.084-0.587,1.006-1.09,1.93-0.838c1.174,0.084,2.516,1.09,2.265,1.845c-0.084,0.755-1.342,1.342-2.6,0.755
		C67.4,52.792,66.646,52.289,66.897,51.534L66.897,51.534z M68.575,56.986c0.755-0.084,2.768-0.251,2.6,0.839
		c-0.083,1.006-0.587,1.258-2.18,1.51c-1.595,0.251-2.601-0.755-2.601-1.258C66.479,57.239,67.736,57.154,68.575,56.986
		L68.575,56.986z M64.382,45.495c0.922,0,1.761,0.754,1.509,1.341c-0.251,0.588-0.335,1.342-2.012,1.007
		c-0.587-0.252-1.342-1.091-1.342-1.594C62.537,45.243,63.543,45.327,64.382,45.495L64.382,45.495z M55.325,47.591
		c0.167-0.839,1.761-1.006,2.516-0.671c0.839,0.42,1.342,1.511,0.839,2.015c-0.587,0.42-1.174,0.252-2.181,0
		S55.241,48.43,55.325,47.591L55.325,47.591z M54.234,51.451c1.259,0,2.769,0.922,2.097,1.593c-0.503,0.503-1.006,0.839-2.349,0.839
		c-1.342,0-1.845-0.503-1.845-1.258C52.138,51.954,52.976,51.283,54.234,51.451L54.234,51.451z M52.054,56.986
		c1.426-0.251,2.432,0.587,2.349,1.343c0,0.755-1.258,1.426-2.097,1.426c-1.006,0-2.432-0.252-2.6-1.426
		C49.538,57.323,51.299,57.154,52.054,56.986L52.054,56.986z M48.196,63.698c-0.251-0.755,1.51-1.09,2.349-1.258
		c0.755-0.084,2.348,0.252,2.097,1.007c-0.251,0.587-0.755,1.342-2.097,1.342C49.203,64.705,48.448,64.285,48.196,63.698
		L48.196,63.698z M50.292,68.396c-0.251,1.091-1.257,1.258-2.013,1.342c-0.839,0.168-2.181,0-2.181-0.838
		c0-0.923,1.175-1.594,1.846-1.846C49.287,66.802,50.544,67.556,50.292,68.396L50.292,68.396z M46.604,47.843
		c0.502,0.084,2.097,0.505,2.181,1.26c0,0.587,0.419,1.426-1.343,1.426c-1.593,0-2.264-0.252-2.6-1.091
		C44.338,48.43,46.1,47.675,46.604,47.843L46.604,47.843z M46.352,53.799c1.677,0.335,1.93,0.335,2.097,1.091
		c0.084,0.755-1.174,1.258-2.601,1.51c-1.51,0.252-2.348-0.419-2.768-1.174C42.829,54.554,44.674,53.547,46.352,53.799
		L46.352,53.799z M43.5,60.677c0.838-0.083,1.845,0.252,1.845,1.176c-0.167,0.755-0.67,1.09-1.509,1.426
		c-0.755,0.419-2.433-0.252-2.685-0.839S42.577,60.846,43.5,60.677L43.5,60.677z M41.99,67.641c0,0.755-1.51,1.342-2.265,1.51
		c-0.587,0.084-1.09,0.587-1.593,0.084c-0.587-0.503-0.503-1.007-0.084-1.342c0.251-0.336,1.845-1.091,2.181-1.259
		C40.9,66.382,42.075,67.052,41.99,67.641L41.99,67.641z M38.552,49.772c1.342,0,1.929,0.755,2.181,1.426
		c0.167,0.587,0,0.922-0.336,1.174c-0.251,0.252-1.761,0.168-2.6-0.335C36.623,51.451,37.042,49.772,38.552,49.772L38.552,49.772z
		 M31.843,31.233c1.845-0.168,2.18,2.349,1.761,4.614c-0.671,2.18-0.923,2.18-1.761,1.929c-0.755-0.252,0-1.511-0.504-2.099
		C30.752,35.176,29.746,31.317,31.843,31.233L31.843,31.233z M30.5,21.838c1.678-0.251,1.091,1.846,0.755,2.434
		c-0.503,0.755,0.084,1.846-1.005,1.761c-1.175-0.167-1.007-1.593-1.175-2.349C28.992,22.844,29.495,21.921,30.5,21.838L30.5,21.838
		z M24.547,29.388c0.336-0.504,0.587-1.762,1.677-1.846c0.754-0.168,0.503,1.93,0.419,2.937c0,1.006,0.252,2.264-1.09,1.761
		C24.128,31.737,24.128,29.976,24.547,29.388L24.547,29.388z M19.348,29.64c0.251,0,0.251-0.168,0.251-0.168s1.175-1.93,2.35-1.344
		c0.503,0.084-0.756,2.518-0.923,2.938c-0.251,0.671-1.09,1.174-1.845,0.503C18.425,30.813,19.096,29.64,19.348,29.64L19.348,29.64z
		 M15.825,34.085c0.671,0.251,0,2.434-0.252,3.439c-0.083,1.007-0.839,1.51-1.594,1.258c-0.755-0.083-0.336-1.845-0.588-1.845
		C13.226,36.77,14.231,33.834,15.825,34.085L15.825,34.085z M13.393,50.78c0.504,0.167,0.588,1.174,0.588,1.341
		c0,0.42,0.503,0.671,0.755,1.426c0.167,0.587-0.252,1.176-0.839,1.343c-0.671,0-1.257-1.259-1.257-1.259
		C12.639,53.799,12.136,50.696,13.393,50.78L13.393,50.78z M15.49,61.097c-0.505,0.336-1.092,0.587-1.847,0.503
		c-0.755-0.251-1.593-1.51-0.922-2.266c0.67-0.587,1.677-0.084,2.18,0.251C15.406,60.007,15.993,60.677,15.49,61.097L15.49,61.097z
		 M15.742,46.92c-1.007-0.168-0.588-2.097-0.756-2.097c0,0,1.008-3.438,2.014-2.852c0.755,0.503,0.336,2.769,0.252,3.858
		C17.083,46.836,16.58,47.172,15.742,46.92L15.742,46.92z M17.586,53.296c-0.335-0.168-0.755-2.349,0.755-2.516
		c0.587,0,1.594,1.174,1.594,1.845c-0.083,0.755,0.168,1.761-1.258,1.677C17.335,54.135,17.838,53.38,17.586,53.296L17.586,53.296z
		 M21.192,64.034c-0.503,0-1.51-0.084-2.096-1.007c-0.503-0.671-0.671-1.845,0-2.18c0.502-0.253,1.844,0.587,2.432,1.761
		C22.198,63.698,21.528,64.034,21.192,64.034L21.192,64.034z M22.954,59.839c-0.671-0.084-1.426-0.336-2.014-1.09
		c-0.587-0.671-0.587-2.097,0.336-2.265c1.426-0.252,2.264,1.007,2.768,2.098C24.379,59.755,23.373,59.839,22.954,59.839
		L22.954,59.839z M24.295,53.883c-0.671,0-1.006-0.252-1.341-0.755c-0.503-0.336-0.671-1.845,0.67-1.845
		c0.671,0,1.678,0.503,1.762,1.258C25.553,53.38,24.883,53.799,24.295,53.883L24.295,53.883z M25.553,36.938
		c0.922,0,2.6,1.007,2.096,3.942c-0.671,2.853-1.006,1.847-1.593,2.014c-0.503,0.252-0.167-1.595-0.503-2.014
		C24.883,40.125,23.289,36.938,25.553,36.938L25.553,36.938z M27.23,64.537c-0.587-0.252-1.341-0.587-1.426-1.51
		c-0.251-0.839,0.671-1.09,1.426-0.922c0.923,0.083,1.595,0.838,1.595,1.426C28.825,64.285,27.733,64.705,27.23,64.537L27.23,64.537
		z M28.825,58.749c-0.421,0.083-0.672,0.335-1.595,0.083c-0.839-0.335-2.6-2.181-1.006-3.188c0.503-0.419,2.433,0.084,2.852,1.51
		C29.746,58.329,29.327,58.497,28.825,58.749L28.825,58.749z M28.992,53.044c-0.252-0.252,0.251-1.593,1.593-1.258
		c1.259,0.251,1.594,1.09,1.51,1.845c-0.251,0.755-1.091,0.755-1.762,0.671C29.746,54.135,29.327,53.296,28.992,53.044
		L28.992,53.044z M34.023,67.641c-0.419,0.252-1.342,0.503-2.6,0.336c-1.091-0.084-1.342-0.42-0.923-1.09
		c0.503-0.589,0.839-0.756,1.846-1.092c1.006-0.419,2.181,0.084,2.433,0.503C35.03,66.634,34.527,67.556,34.023,67.641
		L34.023,67.641z M35.701,62.188c-0.672,0.42-2.097,0-2.517-1.006c-0.335-1.091,0.252-1.344,0.755-1.596
		c0.587-0.084,2.014,0.588,2.266,1.511C36.288,61.684,36.288,61.853,35.701,62.188L35.701,62.188z M37.042,57.323
		c-0.587,0-2.769-0.336-2.349-1.426c0.251-1.174,1.511-1.174,2.182-1.007c0.419,0,2.18,0.587,1.761,1.594
		C38.384,57.574,37.629,57.239,37.042,57.323L37.042,57.323z M56.331,77.119c0,0.588-0.335,1.008-0.838,1.008
		c-0.588,0-2.265-0.42-3.104,0.252c-0.839,0.586-1.342,1.679-1.258,2.435c0.168,0.586,0.168,1.508-0.251,1.76
		c-0.335,0.336-1.929-0.252-2.6-0.168c-0.588,0-2.685,0.504-3.188,1.594c-0.587,1.008-0.167,1.762-0.503,2.015
		c-0.335,0.42-0.839,0.588-1.342,0.588c-0.503,0.168-2.769-0.168-3.104,0.168c-0.503,0.334-1.761,1.846-2.097,1.342
		c-0.419-0.504-1.006-0.252,0.084-2.098c0.503-0.839,1.845-1.761,2.013-1.761c0.084,0,1.762,0.166,2.098-0.084
		c0.335-0.338,1.342-2.35,1.762-2.77c1.677-1.342,1.593-0.84,2.096-1.092c0.504-0.084,2.182,0.252,2.349-0.084
		c0.252-0.502,1.258-2.349,2.097-3.104c1.09-1.006,2.852-1.174,3.103-1.342c0.083-0.25,0.503-0.922,0.755-1.426
		c0.335-0.503,1.846-1.762,2.853-1.51c0.503,0.167-1.258,2.518-1.258,3.02C55.828,76.365,56.331,76.449,56.331,77.119L56.331,77.119
		z M57.589,69.989c-1.258,0.252-2.601,0.168-2.685-0.502c-0.168-0.504,0.253-1.26,1.091-1.594c0.755-0.336,1.509-0.084,2.096-0.084
		c0.503,0,1.762,0,1.594,0.419C59.602,68.647,58.847,69.737,57.589,69.989L57.589,69.989z M59.35,64.285
		c-1.426,0.168-2.767-0.251-2.6-0.838c0.251-0.671,1.09-1.259,2.348-1.259c1.258-0.083,2.097,0.252,2.097,0.839
		C61.195,63.53,60.691,64.202,59.35,64.285L59.35,64.285z M62.201,57.491c-0.251,1.006-0.756,1.258-1.678,1.341
		c-0.923,0-2.768-0.251-2.768-1.678c0-0.671,1.929-1.007,2.348-1.007C60.524,55.98,62.285,56.483,62.201,57.491L62.201,57.491z
		 M63.543,52.121c-0.167,0.755-1.258,1.426-2.098,1.175c-0.922-0.252-2.096-0.42-2.012-1.258c0-0.504,0.754-1.258,2.096-1.091
		C62.956,50.947,63.627,51.534,63.543,52.121L63.543,52.121z M67.988,68.396c-0.335,0.336-0.755,1.258-1.761,1.51
		c-0.922,0.083-2.097,0.503-2.6-0.671c-0.251-0.587,0.168-1.09,0.922-1.594c0.587-0.335,2.6-0.335,2.6-0.335
		s0.251-0.672,0.754-0.252C68.407,67.389,68.407,67.977,67.988,68.396L67.988,68.396z M70.336,63.95
		c-0.839,0-2.853,0.084-2.937-0.923c-0.251-0.419,1.092-0.922,1.93-1.174c1.006-0.252,1.677-0.252,2.013-0.168
		c0.335,0.168,1.258,0.503,1.258,0.923C72.6,63.026,71.091,63.782,70.336,63.95L70.336,63.95z M71.426,47.172
		c-0.335-0.839-0.419-1.595-0.084-1.929c0.587-0.42,2.6,0.334,2.935,1.258c0.505,0.839,0.505,1.847-0.335,2.099
		C73.104,48.682,71.678,47.927,71.426,47.172L71.426,47.172z M74.445,52.038c-0.168-0.755,1.343-1.342,2.35-1.258
		c0.838,0.167,2.349,1.006,2.096,1.845c-0.334,0.922-0.502,1.174-1.258,1.174S74.529,53.296,74.445,52.038L74.445,52.038z
		 M75.2,57.994c-0.168-0.671,1.343-1.007,1.929-1.007c0.503,0,2.769,0.336,2.098,1.259c-0.42,0.839-1.343,1.258-2.098,1.258
		C76.542,59.503,75.452,58.581,75.2,57.994L75.2,57.994z M79.728,65.04c-0.839,0.587-1.426,0.587-2.432,0.587
		c-0.922,0-1.091-0.587-1.091-1.342c0-0.587,0.923-1.006,1.343-1.09c0.503-0.168,1.09,0,1.594-0.168
		c0.335-0.084,0.335-0.084,0.838-0.251c0.42-0.084,0.671-0.168,0.755,0.503C80.904,63.95,80.651,64.537,79.728,65.04L79.728,65.04z
		 M81.406,48.094c-0.421,0.252-0.421,0.504-1.259,0.336c-1.006-0.083-1.51-1.595-1.761-1.679c-0.336-0.167-1.091-1.006-0.756-1.425
		c0.42-0.336,2.266-0.336,3.104,0.419C81.742,46.585,81.742,47.843,81.406,48.094L81.406,48.094z M83.25,51.534
		c0.252-0.251,0.839-0.587,1.594-0.587c0.754,0,1.761,0.504,2.097,1.007c0.252,0.587,0.252,1.09-0.252,1.594
		c-0.336,0.335-2.6-0.251-2.936-0.671C83.25,52.373,83.083,51.954,83.25,51.534L83.25,51.534z M83.837,59.084
		c-0.25,0.252-0.335-0.587,0-1.006c0.504-0.336,1.594-0.923,2.265-0.923c0.587,0,1.593,0.168,1.427,0.671
		c-0.085,0.503-0.253,1.761-1.594,1.761C84.592,59.755,84.089,59,83.837,59.084L83.837,59.084z M86.437,65.292
		c-1.09,0.084-1.845-0.083-2.012-1.007c-0.084-0.838,0.755-1.09,0.922-1.09c0.084,0,1.006-0.168,1.258-0.252
		c0.588,0,1.594-0.755,2.098,0C88.953,63.447,87.529,65.04,86.437,65.292L86.437,65.292z M90.043,48.347
		c-0.168,0.335-0.503,1.342-1.762,1.007c-1.258-0.42-1.846-1.007-2.181-1.512c-0.251-0.503-1.175-1.258-0.419-2.013
		c0.419-0.335,2.348,0.419,3.271,1.09C89.708,47.675,90.127,47.843,90.043,48.347L90.043,48.347z M90.882,51.954
		c0.252-0.503,1.258-0.755,2.014-0.755c0.754,0.084,1.761,0.335,1.926,1.174c0.17,0.755,0,1.007-0.25,1.427
		c-0.419,0.335-1.929-0.168-2.516-0.419C91.385,53.128,90.63,52.289,90.882,51.954L90.882,51.954z M91.05,57.742
		c0-0.587,0.839-0.503,1.258-0.587c0.168-0.168,0.419-0.419,1.09-0.503c0.503-0.168,1.594-0.168,1.594,0.335
		c0.169,0.336,0,1.091-1.342,1.511C92.14,59,91.134,58.329,91.05,57.742L91.05,57.742z M95.913,63.278c0,0-1.092,1.006-1.342,1.427
		c-0.419,0.251-1.09,0.922-2.096,0.083c-0.587-0.587,0-1.594,0.42-1.846c0.335-0.335,2.851-1.845,3.354-1.09
		C96.668,62.607,95.913,63.278,95.913,63.278L95.913,63.278z M97.423,48.43c-0.503,0.755-1.259,0.671-2.179,0.503
		c-0.842-0.084-2.349-1.092-2.266-2.099c0.168-0.838,1.678-0.587,2.516-0.251C96.418,46.92,98.011,47.675,97.423,48.43L97.423,48.43
		z M107.401,60.007c-0.502,0-1.76-1.259,0.252-1.51c0.758-0.168,0.842,0.335,0.842,1.09
		C108.494,60.175,107.822,60.007,107.401,60.007L107.401,60.007z M108.494,54.135c-0.842-0.252-1.177-0.587-0.673-1.259
		c0.589-0.503,0.839-0.335,1.593-0.084c0.588,0.252,0.756,0.755,0.588,1.259C109.918,54.639,109.414,54.385,108.494,54.135
		L108.494,54.135z M113.272,72.255c-1.174-0.252-2.263-1.678-2.851-2.518c-0.504-1.006-0.671-2.852-0.252-3.69
		c0.336-1.007,0.84-1.091,1.343-0.755c0.586,0.335,0.252,2.854,0.586,2.937c0.419,0.252,0.67,2.015,1.762,2.266
		c0.334,0,0.756,0.839,0.756,0.839S114.194,72.506,113.272,72.255L113.272,72.255z"/>
	<path fill="#00A651" d="M183.803,76.113c-0.505-0.336-2.182,1.258-2.852,1.006c-0.757-0.252-1.343-1.258-1.93-1.51
		c-0.755-0.25-1.175,0.168-1.929,0c-0.588-0.082-0.168-1.006-0.671-1.258c-0.673-0.251-1.008,0.418-1.762,0.168
		c-0.589-0.168-1.008-1.259-1.512-1.511c-0.586-0.167-0.754,0.588-1.424,0.336c-0.924-0.336-1.175-1.007-1.762-1.258
		c-0.504-0.336-1.594,0.671-2.348,0.251c-0.757-0.335-0.757-2.935-1.261-3.188c-0.586-0.251-2.431,1.845-3.186,1.342
		c-0.672-0.335-0.42-2.266-1.007-2.6c-0.503-0.336-2.768,1.594-3.354,1.342c-0.502-0.252-0.587-1.258-1.342-1.342
		c-0.671-0.084-1.845,0.839-2.601,0.587c-1.51-0.587-3.354-0.335-5.619-5.704c-0.251-0.671-0.753-1.091-1.256-0.839
		c-1.344,0.503-0.841,1.006,1.005,4.697c2.517,4.866,5.704,3.858,17.611,7.97c7.044,2.516,11.404,3.271,11.992,4.194
		c0.504,0.922,1.007,2.181-1.007,2.349c-3.187,0.252-3.941-1.427-4.529-1.679c-0.754-0.252-1.258,0.589-2.766,0.336
		c-1.678-0.252-1.091-1.006-1.678-1.258c-0.756-0.084-2.267,0-3.271-0.168c-1.007-0.252-1.09-1.512-1.595-1.26
		c-0.586,0.252-1.089,1.26-2.852,0.756c-1.593-0.672-1.593-2.014-2.264-2.098c-0.42-0.168-2.684,1.09-3.689,0.84
		c-2.182-0.672-1.93-2.517-2.603-2.685c-0.754-0.084-1.004,1.929-5.701,1.595c-4.694-0.504-6.709-0.168-9.645-1.679
		c-3.941-2.098-8.556-1.846-7.213-3.69c1.511-1.931,3.858-0.923,5.366-0.168c1.513,0.587,3.188,1.762,4.361,1.09
		c0.42-0.335-0.504-1.677-0.923-3.522c-0.586-3.271,2.267-4.278,2.014-4.781c-0.419-0.588-2.014-1.426-5.869-0.839
		c-2.602,0.419-7.633,4.36-8.892,4.949c-1.258,0.755-6.456,3.522-9.308-0.588c-2.852-4.192-0.252-8.472,0.922-9.813
		c1.09-1.342,2.937-2.35,3.605-1.342c0.924,1.594-1.258,2.013-2.181,3.104c-0.84,1.091-2.179,4.781-0.672,6.46
		c1.595,1.677,4.529,1.845,7.884-0.671c2.767-2.097,7.297-5.034,11.74-4.698c4.527,0.251,6.878,2.349,7.55,2.518
		c0.671,0.084,1.257-1.427,2.179-1.762c0.671-0.252,1.594,0.586,2.182,0.335c0.503-0.335,1.091-1.678,1.762-1.929
		c0.755-0.252,2.601,1.006,3.188,0.587c0.504-0.252,0.418-1.845,1.259-1.93c0.838-0.168,2.264,1.343,2.851,1.091
		c0.755-0.419,0.755-1.259,1.509-1.259c0.588,0,1.931,2.014,2.602,1.846c0.503-0.083,0.336-2.097,1.091-2.349
		c0.754-0.252,2.684,1.342,3.354,1.09c0.503-0.251,0.587-2.685,1.51-3.188c0.839-0.335,1.678,1.008,2.182,0.756
		c0.671-0.252,1.089-3.021,1.845-3.104c0.67-0.084,2.013,0.754,2.6,0.587c0.503-0.084,0.251-2.601,1.258-3.104
		c1.008-0.334,2.266,1.26,2.6,1.176c0.504-0.168,0.755-1.51,1.259-1.594c0.588-0.168,2.097,1.09,2.853,0.923
		c0.586-0.252,0.336-2.098,1.006-2.183c0.504-0.167,2.601,0.252,2.432-2.097c-0.084-2.35-3.102-4.614-5.952-4.614
		c-5.201,0-10.399,2.265-14.846,3.104c-4.443,0.755-13.585,3.439-15.851,3.859c-2.263,0.336-4.445-0.923-2.433-2.518
		c1.596-1.51,2.433-0.334,2.433-0.838s-1.007-1.007-2.433-1.259c-1.51-0.251-3.271,1.259-5.198,1.007
		c-1.93-0.252-3.857-1.761-5.953-1.342c-5.116,0.587-5.871,2.853-8.47,3.773c-2.603,1.007-4.53,0.252-5.956,0.42
		c-3.521,0.503-4.78,2.602-7.379,2.35c-3.104-0.252-4.613-2.014-7.969-2.938c-3.187-1.006-9.308-1.929-10.734-2.432
		c-1.509-0.587-8.134-2.183-9.728-2.35c-1.761-0.252-2.6,0.251-3.354,0.251c-0.84,0-1.931-0.503-3.104-0.587
		c-1.091-0.168-2.852-0.251-3.604,0c-0.672,0.336-0.923,0.336-1.847,0.084c-0.754-0.084-3.521-0.587-4.695-0.419
		c-1.679,0.084-2.35,1.176-3.606,1.344c-1.174,0.084-2.348-0.505-3.688-0.252c-1.343,0.252-2.433,0.755-3.606,1.09
		c-1.09,0.419-3.103,0.167-4.025,0.251c-2.516,0.587-2.852,1.845-3.773,1.845c-0.839,0-3.857-0.503-4.78,0
		c-1.007,0.42-1.845,1.174-2.6,1.258c-0.922,0.084-4.277,0.588-6.374,0.336c-1.174-0.084-3.188,0.923-4.025,1.174
		c-1.006,0.252-3.354,0.252-4.025-0.923c-0.672-1.426,1.174-3.522,4.277-6.04c2.097-1.594,13.921-9.898,33.125-13.003
		c15.012-2.517,32.538-8.809,36.229-12.667c1.594-1.594,8.052-7.047,9.644-10.402c1.593-3.355,2.096-5.285,1.259-5.201
		c-0.838,0.252-1.845,2.013-3.438,2.6c-1.511,0.503-2.853-0.335-4.025,0.168c-1.091,0.335-2.348,2.098-3.521,2.182
		c-1.258,0.167-1.763-0.924-2.687-0.505c-0.922,0.672-2.431,1.763-3.438,2.014c-2.096,0.336-2.18-2.097-4.108-1.09
		c-2.013,1.006-3.438,2.684-5.45,3.103c-1.846,0.252-1.595-1.174-2.852-1.174c-2.014,0-3.941,2.768-4.864,2.768
		c-0.922,0-1.678-1.51-2.851-1.342c-1.091,0.084-4.529,2.686-5.871,3.104c-1.426,0.252-1.677-1.931-2.853-1.763
		c-1.425,0.084-4.024,2.602-5.45,2.938c-1.51,0.251-2.349-0.755-3.354-0.755s-4.109,2.601-5.619,3.02
		c-2.18,0.503-2.348-2.264-4.695-2.097c-1.678,0.084-3.438,2.35-4.779,2.434c-1.427,0.167-2.014-0.923-3.607-0.587
		c-1.761,0.503-5.198,2.853-6.374,3.104c-1.09,0.251-1.929-0.419-3.271,0c-2.517,0.755-4.863,4.109-6.458,4.949
		c-1.761,1.007-3.019,0.503-3.941,1.091c-1.677,1.174-1.928,3.522-3.521,4.194c-1.426,0.755-1.341-0.336-2.685,0.503
		c-2.263,1.678-1.425,3.524-2.096,4.363c-0.671,0.838-2.517,1.509-3.606,2.853c-1.091,1.258-1.091,2.013-1.51,2.852
		c-0.503,0.839-2.432,3.356-2.851,4.446c-0.251,1.091,0.251,2.265-0.251,3.104c-0.336,0.755-1.09,2.015-1.511,2.936
		c-0.671,2.182,0.253,4.362,0.169,5.201c-0.169,0.755-1.008,2.014-1.008,3.021s1.008,2.936,0.755,4.446
		C1.988,63.698-1.115,73.68,0.646,78.21c1.93,4.697,4.78,7.215,5.786,6.795c1.09-0.336,0.419-2.35,1.51-4.192
		c1.091-1.765,2.349-3.945,3.354-2.435c0.839,1.427-2.012,1.427-2.266,5.535c-0.335,3.943,0.169,2.267,0,3.439
		c-0.084,1.26-2.6,3.608-2.6,4.698c0,1.175,0.252,4.111,3.941,7.214c2.265,2.014,2.768,3.354,3.354,3.438
		c0.503,0.17,1.007-2.348,2.098-2.852c1.51-0.672,4.78,2.266,5.366,2.182c0.755-0.252,1.006-4.279,2.349-5.033
		c1.343-0.588,4.612,2.013,5.285,1.678c0.67-0.504-0.086-3.021,0.25-4.026c0.42-0.922,2.264-1.174,1.677-2.853
		c-0.502-1.678-0.754-4.948-6.708-5.368c-1.763-0.168-4.193-0.421-2.601-2.265c1.846-1.848,3.857-8.641-0.504-13.926
		c-1.844-2.265-6.038-1.007-7.212-0.504c-2.096,0.755-4.192,3.523-5.031,2.769c-0.755-0.755,1.678-3.857,5.45-4.949
		c3.69-1.175,8.388-0.923,10.232,3.691c3.27,8.052,0,11.828,0.419,12.666c0.503,0.84,2.347-0.084,4.947,1.512
		c3.69,2.433,3.188,4.529,4.109,5.285c0.838,0.67,5.283,1.006,9.394,1.258c4.192,0.253,8.805,1.343,10.733,0.253
		c3.104-1.595,3.354-7.552,10.566-11.914c3.605-2.181,8.386-4.361,13.753-3.439c5.955,0.84,6.039,1.68,5.535,2.434
		c-0.084,0.421-0.25,1.007-0.335,0.923c-2.853-1.509-6.96-1.677-9.478-1.175c-3.689,0.673-9.979,1.681-14.592,9.732
		c-4.529,8.053,2.767,8.137,3.522,8.389c0.839,0.336,2.181,0.754,2.097,3.104c-0.168,2.348,0.587,3.69,1.426,5.201
		c1.006,1.342,2.601,2.432,2.601,2.432s1.174-2.684,2.516-3.271c1.342-0.754,2.935,0.589,3.69,1.427
		c2.348,3.021,1.343-2.601,3.019-3.187c2.433-0.756,3.354,2.853,4.697,2.181c2.432-1.091,1.09-2.769,2.852-3.439
		c1.844-0.504,2.936,1.006,3.689,0.504c0.838-0.588,0.755-5.789-0.839-7.885c-1.762-2.182-4.36-5.873-9.896-5.873
		c-5.451,0-7.212-0.756-6.961-1.846c0.252-1.091,1.342-1.847,2.684-1.343c2.099,0.755,2.349,0.586,5.702,0.755
		c4.864,0.084,3.774,2.182,7.8,3.942c3.021,1.258,6.96-0.84,11.825,0c4.946,0.84,9.057,1.762,13.584,1.51
		c8.558-0.252,18.032-4.026,19.876-4.278c1.932-0.334,2.937-0.084,2.937-0.67c0-0.504-8.301-1.763-7.8-3.775
		c0.671-1.928,4.612-0.336,10.062,0.924c5.452,1.174,17.109,2.181,21.638,1.931c4.865-0.085,13.167,2.096,19.959,0.502
		c3.439-0.839,6.709-2.937,7.045-5.283C187.576,78.378,184.473,76.617,183.803,76.113L183.803,76.113z M137.006,47.34
		c1.342-0.252,3.689,0.335,3.104,1.847c-0.505,1.51-0.755,1.258-1.846,1.51c-1.092,0.251-3.354,0.503-3.942-0.504
		C133.818,49.186,135.496,47.675,137.006,47.34L137.006,47.34z M102.875,8.667c0.838,0.42,0.923,1.596,0.838,2.351
		c-0.252,0.671-0.671,1.342-1.09,1.342c-0.672,0-0.672-0.923-0.922-1.846C101.447,9.758,101.951,8.164,102.875,8.667L102.875,8.667z
		 M95.16,11.017c1.76,0.419,1.089,2.013,0.753,3.857c-0.252,1.258-1.342,1.594-1.511,1.847c-0.586,1.091-0.753-3.691-0.753-3.691
		S94.153,10.765,95.16,11.017L95.16,11.017z M86.605,12.358c0.671-0.084,1.847,2.517,1.174,4.782
		c-0.754,2.181-1.677,2.181-1.677,2.181s-0.251-2.433-0.504-2.686C85.347,16.217,84.844,12.778,86.605,12.358L86.605,12.358z
		 M78.889,13.617c1.595-0.587,2.015,3.019,1.259,4.865c-0.671,1.93-0.671,3.104-1.846,2.349c-1.426-0.671-0.251-3.02-0.671-3.69
		C77.128,15.965,77.548,14.288,78.889,13.617L78.889,13.617z M70.336,15.63c2.013-0.252,1.761,2.936,1.258,4.698
		c-0.587,1.593-1.006,2.348-1.844,2.097c-0.923-0.336,0.251-2.434-0.252-3.354C68.827,18.231,69.246,15.714,70.336,15.63
		L70.336,15.63z M61.53,17.224c1.175,0.251,2.014,2.013,1.427,4.445c-0.503,2.518-1.258,3.104-1.93,3.104
		c-0.671,0,0.251-3.943-0.336-3.943C60.188,20.831,60.105,16.973,61.53,17.224L61.53,17.224z M52.893,20.16
		c0.755,0,2.433,1.426,1.593,4.026c-0.838,2.685-0.838,2.434-1.593,2.685c-0.839,0.168-0.251-1.595-0.755-2.601
		C51.551,23.431,50.796,20.076,52.893,20.16L52.893,20.16z M45.093,22.927c1.51-0.084,2.097,3.104,1.761,4.446
		c-0.251,1.342-0.755,3.021-1.677,2.769c-0.839-0.167,0.167-2.601-0.587-2.601C44.004,27.542,42.829,23.012,45.093,22.927
		L45.093,22.927z M40.146,32.072c-1.006,1.846-0.923,1.846-1.593,1.846c-0.671,0-0.252-2.685-1.006-2.685
		c-0.671,0-1.258-3.942,0.838-4.11C40.648,27.039,40.733,30.729,40.146,32.072L40.146,32.072z M36.791,19.489
		c0.503,0,1.761,0.839,0.587,2.098c-1.09,1.258-1.174,2.098-2.18,1.595C34.191,22.844,35.198,19.573,36.791,19.489L36.791,19.489z
		 M8.278,45.998c0.671,0,1.51,1.677,1.427,2.35c-0.168,0.503-0.251,1.342-1.259,1.594c-0.923,0.251-1.258-1.258-1.258-1.51
		C7.104,48.094,6.852,45.83,8.278,45.998L8.278,45.998z M9.285,56.986c-0.503,0-1.092,0-1.511-0.335
		c-0.252-0.42-1.929-2.097-0.671-3.775c0.084-0.251,2.182,1.175,2.601,2.098C9.956,55.645,9.956,56.986,9.285,56.986L9.285,56.986z
		 M11.045,42.978c-0.252,0.419-0.922,0.671-1.341,0.419c-0.671-0.419-0.671-1.762-0.419-2.013c0.167-0.084,0.25-2.097,1.592-1.847
		c0.671,0.084-0.084,1.762,0,1.93C11.045,41.719,11.381,42.643,11.045,42.978L11.045,42.978z M66.897,51.534
		c0.084-0.587,1.006-1.09,1.93-0.838c1.174,0.084,2.516,1.09,2.265,1.845c-0.084,0.755-1.342,1.342-2.6,0.755
		C67.4,52.792,66.646,52.289,66.897,51.534L66.897,51.534z M68.575,56.986c0.755-0.084,2.768-0.251,2.6,0.839
		c-0.083,1.006-0.587,1.258-2.18,1.51c-1.595,0.251-2.601-0.755-2.601-1.258C66.479,57.239,67.736,57.154,68.575,56.986
		L68.575,56.986z M64.382,45.495c0.922,0,1.761,0.754,1.509,1.341c-0.251,0.588-0.335,1.342-2.012,1.007
		c-0.587-0.252-1.342-1.091-1.342-1.594C62.537,45.243,63.543,45.327,64.382,45.495L64.382,45.495z M55.325,47.591
		c0.167-0.839,1.761-1.006,2.516-0.671c0.839,0.42,1.342,1.511,0.839,2.015c-0.587,0.42-1.174,0.252-2.181,0
		S55.241,48.43,55.325,47.591L55.325,47.591z M54.234,51.451c1.259,0,2.769,0.922,2.097,1.593c-0.503,0.503-1.006,0.839-2.349,0.839
		c-1.342,0-1.845-0.503-1.845-1.258C52.138,51.954,52.976,51.283,54.234,51.451L54.234,51.451z M52.054,56.986
		c1.426-0.251,2.432,0.587,2.349,1.343c0,0.755-1.258,1.426-2.097,1.426c-1.006,0-2.432-0.252-2.6-1.426
		C49.538,57.323,51.299,57.154,52.054,56.986L52.054,56.986z M48.196,63.698c-0.251-0.755,1.51-1.09,2.349-1.258
		c0.755-0.084,2.348,0.252,2.097,1.007c-0.251,0.587-0.755,1.342-2.097,1.342C49.203,64.705,48.448,64.285,48.196,63.698
		L48.196,63.698z M50.292,68.396c-0.251,1.091-1.257,1.258-2.013,1.342c-0.839,0.168-2.181,0-2.181-0.838
		c0-0.923,1.175-1.594,1.846-1.846C49.287,66.802,50.544,67.556,50.292,68.396L50.292,68.396z M46.604,47.843
		c0.502,0.084,2.097,0.505,2.181,1.26c0,0.587,0.419,1.426-1.343,1.426c-1.593,0-2.264-0.252-2.6-1.091
		C44.338,48.43,46.1,47.675,46.604,47.843L46.604,47.843z M46.352,53.799c1.677,0.335,1.93,0.335,2.097,1.091
		c0.084,0.755-1.174,1.258-2.601,1.51c-1.51,0.252-2.348-0.419-2.768-1.174C42.829,54.554,44.674,53.547,46.352,53.799
		L46.352,53.799z M43.5,60.677c0.838-0.083,1.845,0.252,1.845,1.176c-0.167,0.755-0.67,1.09-1.509,1.426
		c-0.755,0.419-2.433-0.252-2.685-0.839S42.577,60.846,43.5,60.677L43.5,60.677z M41.99,67.641c0,0.755-1.51,1.342-2.265,1.51
		c-0.587,0.084-1.09,0.587-1.593,0.084c-0.587-0.503-0.503-1.007-0.084-1.342c0.251-0.336,1.845-1.091,2.181-1.259
		C40.9,66.382,42.075,67.052,41.99,67.641L41.99,67.641z M38.552,49.772c1.342,0,1.929,0.755,2.181,1.426
		c0.167,0.587,0,0.922-0.336,1.174c-0.251,0.252-1.761,0.168-2.6-0.335C36.623,51.451,37.042,49.772,38.552,49.772L38.552,49.772z
		 M31.843,31.233c1.845-0.168,2.18,2.349,1.761,4.614c-0.671,2.18-0.923,2.18-1.761,1.929c-0.755-0.252,0-1.511-0.504-2.099
		C30.752,35.176,29.746,31.317,31.843,31.233L31.843,31.233z M30.5,21.838c1.678-0.251,1.091,1.846,0.755,2.434
		c-0.503,0.755,0.084,1.846-1.005,1.761c-1.175-0.167-1.007-1.593-1.175-2.349C28.992,22.844,29.495,21.921,30.5,21.838L30.5,21.838
		z M24.547,29.388c0.336-0.504,0.587-1.762,1.677-1.846c0.754-0.168,0.503,1.93,0.419,2.937c0,1.006,0.252,2.264-1.09,1.761
		C24.128,31.737,24.128,29.976,24.547,29.388L24.547,29.388z M19.348,29.64c0.251,0,0.251-0.168,0.251-0.168s1.175-1.93,2.35-1.344
		c0.503,0.084-0.756,2.518-0.923,2.938c-0.251,0.671-1.09,1.174-1.845,0.503C18.425,30.813,19.096,29.64,19.348,29.64L19.348,29.64z
		 M15.825,34.085c0.671,0.251,0,2.434-0.252,3.439c-0.083,1.007-0.839,1.51-1.594,1.258c-0.755-0.083-0.336-1.845-0.588-1.845
		C13.226,36.77,14.231,33.834,15.825,34.085L15.825,34.085z M13.393,50.78c0.504,0.167,0.588,1.174,0.588,1.341
		c0,0.42,0.503,0.671,0.755,1.426c0.167,0.587-0.252,1.176-0.839,1.343c-0.671,0-1.257-1.259-1.257-1.259
		C12.639,53.799,12.136,50.696,13.393,50.78L13.393,50.78z M15.49,61.097c-0.505,0.336-1.092,0.587-1.847,0.503
		c-0.755-0.251-1.593-1.51-0.922-2.266c0.67-0.587,1.677-0.084,2.18,0.251C15.406,60.007,15.993,60.677,15.49,61.097L15.49,61.097z
		 M15.742,46.92c-1.007-0.168-0.588-2.097-0.756-2.097c0,0,1.008-3.438,2.014-2.852c0.755,0.503,0.336,2.769,0.252,3.858
		C17.083,46.836,16.58,47.172,15.742,46.92L15.742,46.92z M17.586,53.296c-0.335-0.168-0.755-2.349,0.755-2.516
		c0.587,0,1.594,1.174,1.594,1.845c-0.083,0.755,0.168,1.761-1.258,1.677C17.335,54.135,17.838,53.38,17.586,53.296L17.586,53.296z
		 M21.192,64.034c-0.503,0-1.51-0.084-2.096-1.007c-0.503-0.671-0.671-1.845,0-2.18c0.502-0.253,1.844,0.587,2.432,1.761
		C22.198,63.698,21.528,64.034,21.192,64.034L21.192,64.034z M22.954,59.839c-0.671-0.084-1.426-0.336-2.014-1.09
		c-0.587-0.671-0.587-2.097,0.336-2.265c1.426-0.252,2.264,1.007,2.768,2.098C24.379,59.755,23.373,59.839,22.954,59.839
		L22.954,59.839z M24.295,53.883c-0.671,0-1.006-0.252-1.341-0.755c-0.503-0.336-0.671-1.845,0.67-1.845
		c0.671,0,1.678,0.503,1.762,1.258C25.553,53.38,24.883,53.799,24.295,53.883L24.295,53.883z M25.553,36.938
		c0.922,0,2.6,1.007,2.096,3.942c-0.671,2.853-1.006,1.847-1.593,2.014c-0.503,0.252-0.167-1.595-0.503-2.014
		C24.883,40.125,23.289,36.938,25.553,36.938L25.553,36.938z M27.23,64.537c-0.587-0.252-1.341-0.587-1.426-1.51
		c-0.251-0.839,0.671-1.09,1.426-0.922c0.923,0.083,1.595,0.838,1.595,1.426C28.825,64.285,27.733,64.705,27.23,64.537L27.23,64.537
		z M28.825,58.749c-0.421,0.083-0.672,0.335-1.595,0.083c-0.839-0.335-2.6-2.181-1.006-3.188c0.503-0.419,2.433,0.084,2.852,1.51
		C29.746,58.329,29.327,58.497,28.825,58.749L28.825,58.749z M28.992,53.044c-0.252-0.252,0.251-1.593,1.593-1.258
		c1.259,0.251,1.594,1.09,1.51,1.845c-0.251,0.755-1.091,0.755-1.762,0.671C29.746,54.135,29.327,53.296,28.992,53.044
		L28.992,53.044z M34.023,67.641c-0.419,0.252-1.342,0.503-2.6,0.336c-1.091-0.084-1.342-0.42-0.923-1.09
		c0.503-0.589,0.839-0.756,1.846-1.092c1.006-0.419,2.181,0.084,2.433,0.503C35.03,66.634,34.527,67.556,34.023,67.641
		L34.023,67.641z M35.701,62.188c-0.672,0.42-2.097,0-2.517-1.006c-0.335-1.091,0.252-1.344,0.755-1.596
		c0.587-0.084,2.014,0.588,2.266,1.511C36.288,61.684,36.288,61.853,35.701,62.188L35.701,62.188z M37.042,57.323
		c-0.587,0-2.769-0.336-2.349-1.426c0.251-1.174,1.511-1.174,2.182-1.007c0.419,0,2.18,0.587,1.761,1.594
		C38.384,57.574,37.629,57.239,37.042,57.323L37.042,57.323z M56.331,77.119c0,0.588-0.335,1.008-0.838,1.008
		c-0.588,0-2.265-0.42-3.104,0.252c-0.839,0.586-1.342,1.679-1.258,2.435c0.168,0.586,0.168,1.508-0.251,1.76
		c-0.335,0.336-1.929-0.252-2.6-0.168c-0.588,0-2.685,0.504-3.188,1.594c-0.587,1.008-0.167,1.762-0.503,2.015
		c-0.335,0.42-0.839,0.588-1.342,0.588c-0.503,0.168-2.769-0.168-3.104,0.168c-0.503,0.334-1.761,1.846-2.097,1.342
		c-0.419-0.504-1.006-0.252,0.084-2.098c0.503-0.839,1.845-1.761,2.013-1.761c0.084,0,1.762,0.166,2.098-0.084
		c0.335-0.338,1.342-2.35,1.762-2.77c1.677-1.342,1.593-0.84,2.096-1.092c0.504-0.084,2.182,0.252,2.349-0.084
		c0.252-0.502,1.258-2.349,2.097-3.104c1.09-1.006,2.852-1.174,3.103-1.342c0.083-0.25,0.503-0.922,0.755-1.426
		c0.335-0.503,1.846-1.762,2.853-1.51c0.503,0.167-1.258,2.518-1.258,3.02C55.828,76.365,56.331,76.449,56.331,77.119L56.331,77.119
		z M57.589,69.989c-1.258,0.252-2.601,0.168-2.685-0.502c-0.168-0.504,0.253-1.26,1.091-1.594c0.755-0.336,1.509-0.084,2.096-0.084
		c0.503,0,1.762,0,1.594,0.419C59.602,68.647,58.847,69.737,57.589,69.989L57.589,69.989z M59.35,64.285
		c-1.426,0.168-2.767-0.251-2.6-0.838c0.251-0.671,1.09-1.259,2.348-1.259c1.258-0.083,2.097,0.252,2.097,0.839
		C61.195,63.53,60.691,64.202,59.35,64.285L59.35,64.285z M62.201,57.491c-0.251,1.006-0.756,1.258-1.678,1.341
		c-0.923,0-2.768-0.251-2.768-1.678c0-0.671,1.929-1.007,2.348-1.007C60.524,55.98,62.285,56.483,62.201,57.491L62.201,57.491z
		 M63.543,52.121c-0.167,0.755-1.258,1.426-2.098,1.175c-0.922-0.252-2.096-0.42-2.012-1.258c0-0.504,0.754-1.258,2.096-1.091
		C62.956,50.947,63.627,51.534,63.543,52.121L63.543,52.121z M67.988,68.396c-0.335,0.336-0.755,1.258-1.761,1.51
		c-0.922,0.083-2.097,0.503-2.6-0.671c-0.251-0.587,0.168-1.09,0.922-1.594c0.587-0.335,2.6-0.335,2.6-0.335
		s0.251-0.672,0.754-0.252C68.407,67.389,68.407,67.977,67.988,68.396L67.988,68.396z M70.336,63.95
		c-0.839,0-2.853,0.084-2.937-0.923c-0.251-0.419,1.092-0.922,1.93-1.174c1.006-0.252,1.677-0.252,2.013-0.168
		c0.335,0.168,1.258,0.503,1.258,0.923C72.6,63.026,71.091,63.782,70.336,63.95L70.336,63.95z M71.426,47.172
		c-0.335-0.839-0.419-1.595-0.084-1.929c0.587-0.42,2.6,0.334,2.935,1.258c0.505,0.839,0.505,1.847-0.335,2.099
		C73.104,48.682,71.678,47.927,71.426,47.172L71.426,47.172z M74.445,52.038c-0.168-0.755,1.343-1.342,2.35-1.258
		c0.838,0.167,2.349,1.006,2.096,1.845c-0.334,0.922-0.502,1.174-1.258,1.174S74.529,53.296,74.445,52.038L74.445,52.038z
		 M75.2,57.994c-0.168-0.671,1.343-1.007,1.929-1.007c0.503,0,2.769,0.336,2.098,1.259c-0.42,0.839-1.343,1.258-2.098,1.258
		C76.542,59.503,75.452,58.581,75.2,57.994L75.2,57.994z M79.728,65.04c-0.839,0.587-1.426,0.587-2.432,0.587
		c-0.922,0-1.091-0.587-1.091-1.342c0-0.587,0.923-1.006,1.343-1.09c0.503-0.168,1.09,0,1.594-0.168
		c0.335-0.084,0.335-0.084,0.838-0.251c0.42-0.084,0.671-0.168,0.755,0.503C80.904,63.95,80.651,64.537,79.728,65.04L79.728,65.04z
		 M81.406,48.094c-0.421,0.252-0.421,0.504-1.259,0.336c-1.006-0.083-1.51-1.595-1.761-1.679c-0.336-0.167-1.091-1.006-0.756-1.425
		c0.42-0.336,2.266-0.336,3.104,0.419C81.742,46.585,81.742,47.843,81.406,48.094L81.406,48.094z M83.25,51.534
		c0.252-0.251,0.839-0.587,1.594-0.587c0.754,0,1.761,0.504,2.097,1.007c0.252,0.587,0.252,1.09-0.252,1.594
		c-0.336,0.335-2.6-0.251-2.936-0.671C83.25,52.373,83.083,51.954,83.25,51.534L83.25,51.534z M83.837,59.084
		c-0.25,0.252-0.335-0.587,0-1.006c0.504-0.336,1.594-0.923,2.265-0.923c0.587,0,1.593,0.168,1.427,0.671
		c-0.085,0.503-0.253,1.761-1.594,1.761C84.592,59.755,84.089,59,83.837,59.084L83.837,59.084z M86.437,65.292
		c-1.09,0.084-1.845-0.083-2.012-1.007c-0.084-0.838,0.755-1.09,0.922-1.09c0.084,0,1.006-0.168,1.258-0.252
		c0.588,0,1.594-0.755,2.098,0C88.953,63.447,87.529,65.04,86.437,65.292L86.437,65.292z M90.043,48.347
		c-0.168,0.335-0.503,1.342-1.762,1.007c-1.258-0.42-1.846-1.007-2.181-1.512c-0.251-0.503-1.175-1.258-0.419-2.013
		c0.419-0.335,2.348,0.419,3.271,1.09C89.708,47.675,90.127,47.843,90.043,48.347L90.043,48.347z M90.882,51.954
		c0.252-0.503,1.258-0.755,2.014-0.755c0.754,0.084,1.761,0.335,1.926,1.174c0.17,0.755,0,1.007-0.25,1.427
		c-0.419,0.335-1.929-0.168-2.516-0.419C91.385,53.128,90.63,52.289,90.882,51.954L90.882,51.954z M91.05,57.742
		c0-0.587,0.839-0.503,1.258-0.587c0.168-0.168,0.419-0.419,1.09-0.503c0.503-0.168,1.594-0.168,1.594,0.335
		c0.169,0.336,0,1.091-1.342,1.511C92.14,59,91.134,58.329,91.05,57.742L91.05,57.742z M95.913,63.278c0,0-1.092,1.006-1.342,1.427
		c-0.419,0.251-1.09,0.922-2.096,0.083c-0.587-0.587,0-1.594,0.42-1.846c0.335-0.335,2.851-1.845,3.354-1.09
		C96.668,62.607,95.913,63.278,95.913,63.278L95.913,63.278z M97.423,48.43c-0.503,0.755-1.259,0.671-2.179,0.503
		c-0.842-0.084-2.349-1.092-2.266-2.099c0.168-0.838,1.678-0.587,2.516-0.251C96.418,46.92,98.011,47.675,97.423,48.43L97.423,48.43
		z M107.401,60.007c-0.502,0-1.76-1.259,0.252-1.51c0.758-0.168,0.842,0.335,0.842,1.09
		C108.494,60.175,107.822,60.007,107.401,60.007L107.401,60.007z M108.494,54.135c-0.842-0.252-1.177-0.587-0.673-1.259
		c0.589-0.503,0.839-0.335,1.593-0.084c0.588,0.252,0.756,0.755,0.588,1.259C109.918,54.639,109.414,54.385,108.494,54.135
		L108.494,54.135z M113.272,72.255c-1.174-0.252-2.263-1.678-2.851-2.518c-0.504-1.006-0.671-2.852-0.252-3.69
		c0.336-1.007,0.84-1.091,1.343-0.755c0.586,0.335,0.252,2.854,0.586,2.937c0.419,0.252,0.67,2.015,1.762,2.266
		c0.334,0,0.756,0.839,0.756,0.839S114.194,72.506,113.272,72.255L113.272,72.255z"/>
</g>
</svg>
