<?xml version="1.0" encoding="utf-8"?>
<!-- Generator: Adobe Illustrator 16.0.0, SVG Export Plug-In . SVG Version: 6.00 Build 0)  -->
<!DOCTYPE svg PUBLIC "-//W3C//DTD SVG 1.1//EN" "http://www.w3.org/Graphics/SVG/1.1/DTD/svg11.dtd">
<svg version="1.1" id="Calque_1" xmlns="http://www.w3.org/2000/svg" xmlns:xlink="http://www.w3.org/1999/xlink" x="0px" y="0px"
	 width="275.5px" height="287.6px" viewBox="0 0 275.5 287.6" enable-background="new 0 0 275.5 287.6" xml:space="preserve">
<g>
	<g>
		<g>
			<path d="M114.079,43.873c16.235,7.352,36.918,1.243,43.79-9.642c0.127-0.19,0.182-0.395,0.198-0.592
				c-2.823,0.245-5.672,0.397-8.562,0.397c-16.282,0-31.614-4.046-45.072-11.161C99.568,31.257,107.07,40.696,114.079,43.873z"/>
			<path d="M89.895,81.514c3.363-1.132,5.549-2.948,7.211-4.781c2.505-2.758,4.064-5.594,4.442-8.697
				c0.066-0.569,0.091-1.145,0.066-1.723c-0.096-2.505-0.83-4.757-2.329-6.105C96.566,70.563,81.232,75.36,81.148,75.408
				C81.823,83.059,88.708,81.917,89.895,81.514z"/>
			<g>
				<path d="M20.263,223.59l45.928-78.276c-2.785-6.747-3.607-12.757-3.197-18.056L0,234.688h117.934
					c-1.397-2.369-3.686-6.25-6.54-11.098H20.263z"/>
				<path d="M217.194,145.215l-1.317,11.784l39.067,66.591H133.578c1.006,1.984,2.107,3.943,3.257,5.896l0.566,1.032l0.897,1.59
					l-0.03-0.042l2.005,2.622h134.93l-58.483-99.746C217.363,138.467,217.55,141.942,217.194,145.215z"/>
				<path d="M150.901,46.26l29.382,50.07c8.242,1.846,14.631,5.579,19.406,9.571l-39.438-67.269
					C157.905,41.578,154.689,44.173,150.901,46.26z"/>
				<path d="M137.606,23.588l3.233,5.526c2.885,0.272,5.774,0.414,8.666,0.414c1.709,0,3.469-0.062,5.305-0.175L137.606,0
					l-14.964,25.512c3.992,1.215,8.057,2.157,12.176,2.824L137.606,23.588z"/>
			</g>
			<path d="M169.153,99.625c-20.678,0-40.508,15.166-42.91,38.852c-0.259,2.562-16.644,0.671-10.719-25.836
				c3.12-13.977,7.876-32.31,7.395-42.38c-0.681-14.203-7.069-23.344-18.601-26.704c-0.481-0.149-0.68-0.205-0.723-0.159
				c1.241,1.145,2.023,2.779,2.023,4.598c0,3.454-2.806,6.254-6.255,6.254c-0.355,0-0.692-0.033-1.03-0.087
				c0.292,0.231,1.002,0.623,2.301,1.328c7.302,3.979,11.144,16.716,1.678,26.82c-7.785,8.319-11.076,11.11-18.711,18.746
				c-6.235,6.235-25.613,20.729-10.656,47.957c4.655,8.469,50.322,85.839,50.322,85.839l11.465,0.021
				c-0.536-0.679-1.397-2.431-1.788-3.096c-5.847-9.961-12.405-22.627-5.486-39.158c0.385-0.903,0.819-1.779,1.276-2.633
				c0.097-0.188,0.211-0.365,0.308-0.554c0.162-0.286,0.319-0.575,0.494-0.854c0.276-0.451,0.566-0.889,0.855-1.321
				c0.03-0.033,0.054-0.069,0.079-0.103c2.047-3.037,4.654-5.661,7.683-7.712c0.839-0.571,1.724-1.079,2.626-1.56
				c0.584-0.313,1.182-0.617,1.788-0.891c1.831-0.819,3.771-1.438,5.781-1.855c0.812-0.168,1.639-0.312,2.479-0.415
				c0.157-0.016,0.319-0.03,0.482-0.043c0.169-0.021,0.338-0.042,0.512-0.054c0.12-0.009,0.254-0.006,0.379-0.016
				c0.657-0.049,1.319-0.088,1.981-0.088c12.108,0,22.442,7.53,26.61,18.168c0.041,0.123,0.106,0.234,0.148,0.358
				c0.561,1.493,1.001,3.053,1.307,4.655c0.066,0.354,0.127,0.719,0.182,1.073c0.211,1.412,0.338,2.854,0.338,4.32
				c0,0.247-0.012,0.487-0.023,0.737c-0.013,0.639-0.049,1.268-0.104,1.896c-0.042,0.542-0.12,1.077-0.188,1.611
				c-0.012,0.048-0.018,0.087-0.023,0.135c-0.049,0.354-0.084,0.721-0.145,1.069c5.275-3.739,9.231-9.207,11.026-15.591l0,0
				c0.696-2.47,1.077-5.073,1.077-7.769c0-15.789-12.784-28.595-28.567-28.64c-0.018,0-0.036,0.006-0.054,0.006
				c0.018-0.009,0.036-0.021,0.054-0.027c3.06-1.329,6.433-2.078,9.972-2.078c13.771,0,24.931,11.163,24.931,24.933
				c0,2.294-0.312,4.513-0.896,6.62c3.805-5.436,6.039-12.037,6.039-19.17c0-18.496-14.988-33.486-33.479-33.486
				c-2.487,0-4.902,0.289-7.232,0.801c5.359-3.887,11.953-6.189,19.089-6.189c9.062,0,17.266,3.709,23.166,9.691
				c1.963,2.054,3.703,4.333,5.137,6.805c0.055,0.111,0.107,0.218,0.162,0.329c0-0.017,0-0.027,0-0.042c0,0,0-0.008,0-0.011
				C214.515,128.022,200.003,99.625,169.153,99.625z"/>
		</g>
	</g>
	<g>
		<g>
			<g>
				<path d="M70.871,262.631c0,7.945,6.219,14.41,13.86,14.41c7.67,0,13.91-6.465,13.91-14.41c0-8.048-6.24-14.591-13.91-14.591
					C77.089,248.04,70.871,254.583,70.871,262.631z M75.357,262.631c0-5.627,4.206-10.207,9.374-10.207
					c2.505,0,4.864,1.062,6.638,2.999c1.771,1.931,2.748,4.492,2.748,7.208c0,5.521-4.211,10.015-9.385,10.015
					C79.563,272.646,75.357,268.153,75.357,262.631z"/>
				<path d="M99.966,262.631c0,3.845,1.45,7.452,4.069,10.184c2.625,2.726,6.1,4.228,9.792,4.228c3.191,0,6.316-1.233,8.789-3.476
					l0.593-0.539c0,0,0,13.891,0,14.572c0.578,0,3.908,0,4.486,0c0-0.694,0-38.761,0-39.451c-0.578,0-3.908,0-4.486,0
					c0,0.686,0,14.482,0,14.482c0,5.465-4.206,9.918-9.381,9.918c-5.143,0-9.325-4.453-9.325-9.918
					c0-5.543,4.182-10.061,9.325-10.061c2.071,0,4.085,0.755,5.72,2.117c0-1.148,0-4.908,0-5.264
					c-1.782-0.905-3.757-1.385-5.72-1.385C106.188,248.04,99.966,254.583,99.966,262.631z"/>
				<path d="M168.14,251.594l-0.594,0.536c0,0,0-3.399,0-3.981c-0.565,0-3.92,0-4.486,0c0,0.69,0,38.757,0,39.451
					c0.566,0,3.921,0,4.486,0c0-0.694,0-24.969,0-24.969c0-5.543,4.205-10.061,9.375-10.061c5.168,0,9.379,4.518,9.379,10.061
					c0,5.465-4.211,9.918-9.379,9.918c-2.102,0-4.137-0.765-5.787-2.153c0,1.157,0,4.857,0,5.216
					c1.811,0.931,3.807,1.431,5.787,1.431c7.666,0,13.912-6.465,13.912-14.41c0-3.894-1.457-7.558-4.092-10.324
					c-2.625-2.755-6.119-4.267-9.82-4.267C173.736,248.04,170.623,249.297,168.14,251.594z"/>
				<path d="M192.265,262.631c0,7.945,6.215,14.41,13.85,14.41c7.67,0,13.913-6.465,13.913-14.41
					c0-8.048-6.243-14.591-13.913-14.591C198.479,248.04,192.265,254.583,192.265,262.631z M196.625,262.631
					c0-5.688,4.258-10.33,9.49-10.33c5.242,0,9.5,4.643,9.5,10.33c0,5.586-4.258,10.132-9.5,10.132
					C200.882,272.763,196.625,268.217,196.625,262.631z"/>
				<path d="M230.667,248.411c-1.354,0.346-2.633,0.934-3.797,1.733l-0.56,0.383c0,0,0-1.886,0-2.38c-0.571,0-3.956,0-4.528,0
					c0,0.69,0,27.61,0,28.3c0.572,0,3.957,0,4.528,0c0-0.684,0-16.496,0-16.496c0-2.284,0.849-4.356,2.333-5.676
					c1.424-1.382,3.691-2.032,6.386-1.818c0,0,0.982,0.097,1.468,0.149c0-0.625,0-3.808,0-4.316
					c-0.396-0.048-1.192-0.143-1.192-0.143C233.69,247.966,232.128,248.056,230.667,248.411z"/>
				<path d="M0.435,238.411c0,0.685,0,37.339,0,38.037c0.568,0,3.913,0,4.483,0c0-0.698,0-37.354,0-38.037
					C4.348,238.411,1.003,238.411,0.435,238.411z"/>
				<path d="M6.858,262.631c0,2.048,0.404,4.028,1.203,5.884c0.782,1.794,1.874,3.371,3.28,4.714l0.03,0.027l0.056,0.055
					l0.053,0.058l0.056,0.049c1.237,1.126,2.663,2.006,4.22,2.628c1.609,0.633,3.319,0.971,5.081,0.997
					c2.813-0.026,5.45-0.84,7.634-2.343c2.083-1.438,3.695-3.479,4.704-5.929c-0.827,0-4.23,0-4.556,0
					c-1.572,2.541-4.056,3.778-7.598,3.778h-0.013c0,0-0.086-0.006-0.11-0.006c-0.018,0-0.072,0-0.072,0l-0.105,0.006
					c-5.189,0-9.396-4.453-9.396-9.918c0-5.543,4.206-10.06,9.38-10.06h0.037h0.019l0.077,0.007c1.864,0.015,3.675,0.655,5.21,1.837
					c1.486,1.135,2.625,2.688,3.311,4.507l0.184,0.49c0,0-13.06,0-13.735,0c0,0.561,0,3.893,0,4.463c0.676,0,18.08,0,18.744,0
					c0.007-0.461,0.028-1.516,0.028-1.516c0-2.008-0.485-4.109-1.397-6.052c-0.007-0.009-0.018-0.039-0.018-0.039l-0.015-0.045
					l-0.017-0.03l0.006,0.021c-0.728-1.539-1.688-2.918-2.847-4.101c-2.243-2.28-5.054-3.659-8.131-4h-0.054l-0.087-0.016h0.039
					l-0.366-0.021l-0.062-0.003c-0.244-0.019-0.572-0.036-0.911-0.036C13.073,248.04,6.858,254.59,6.858,262.631z"/>
				<path d="M44.086,262.631c0,7.945,6.22,14.41,13.851,14.41c2.847,0,5.515-0.798,7.717-2.311c2.104-1.434,3.736-3.491,4.748-5.961
					c-0.835,0-4.703,0-5.016,0c-0.798,1.179-1.829,2.11-3.083,2.755c-1.302,0.685-2.769,1.023-4.366,1.023
					c-5.173,0-9.379-4.453-9.379-9.918c0-5.543,4.206-10.061,9.379-10.061c1.767,0,3.443,0.469,4.849,1.351
					c0.882,0.551,1.65,1.268,2.299,2.117c0.286,0,4.334,0,5.201,0c-1.044-2.364-2.66-4.342-4.708-5.73
					c-2.199-1.479-4.835-2.268-7.642-2.268C50.307,248.04,44.086,254.583,44.086,262.631z"/>
				<path d="M141.312,250.799c-1.698,1.559-2.684,3.643-2.684,5.729c0.037,1.347,0.384,2.448,1.107,3.467
					c0.609,0.859,1.494,1.584,2.633,2.16c2.125,1.072,4.764,1.454,6.877,1.763c6.582,0.944,7.707,2.531,7.938,3.956
					c0.021,0.145,0.032,0.273,0.032,0.419c0,0.807-0.396,1.602-1.211,2.398c-1.391,1.353-3.66,2.189-5.93,2.189
					c-4.814,0-6.806-2.172-7.628-4.092c-0.399,0-4.23,0-4.95,0c0.581,2.556,2.044,4.659,4.279,6.093
					c2.217,1.422,5.102,2.172,8.34,2.172c3.795,0,7.024-1.169,9.11-3.301c1.337-1.395,2.091-3.357,2.091-5.422
					c0-0.069,0-0.15,0-0.232c-0.293-5.919-5.83-7.555-11.219-8.373c-0.006,0-0.02,0-0.02,0l-0.029-0.006
					c-3.896-0.755-4.135-0.81-5.098-1.104c-0.572-0.178-1.604-0.653-1.934-1.899c-0.23-0.867-0.143-1.539,0.29-2.327
					c0.726-1.304,2.323-2.303,4.062-2.526c2.203-0.285,4.041-0.028,5.766,0.796c1.773,0.86,2.658,2.309,3.099,3.443
					c0.396,0,3.655,0,4.384,0c-1.361-5.125-5.461-8.065-11.318-8.065C145.21,248.034,142.697,249.533,141.312,250.799z"/>
			</g>
			<g>
				<path d="M248.48,272.271c-1.521,0.095-3.038-0.47-3.914-1.317c-0.967-0.928-1.454-2.45-1.454-4.522V252.72c0,0,6.208,0,8.185,0
					v-4.486c-1.977,0-8.185,0-8.185,0s0-4.3,0-4.906c-0.571,0-3.911,0-4.479,0c0,0.69,0,23.104,0,23.104
					c0,3.391,1.029,6.128,2.979,7.898c1.788,1.634,4.161,2.186,7.046,2.14c0,0,1.223,0.02,2.688-0.28v-4.364
					C249.917,272.176,248.994,272.248,248.48,272.271z"/>
			</g>
			<g>
				<path d="M254.63,239.842c0,0.575,0,5.796,0,6.365c0.566,0,3.971,0,4.541,0c0-0.569,0-5.79,0-6.365
					C258.601,239.842,255.197,239.842,254.63,239.842z"/>
				<path d="M254.625,248.272c0,0.689,0,27.524,0,28.215c0.572,0,3.984,0,4.56,0c0-0.689,0-27.524,0-28.215
					C258.609,248.272,255.197,248.272,254.625,248.272z"/>
			</g>
			<g>
				<path d="M267.529,248.212c0.225-1.47,0.777-2.737,2.006-3.875c1-0.981,2.523-1.538,4.271-1.71
					c0.548-0.059,1.114-0.078,1.694-0.055v-4.296c-0.633-0.019-1.246,0.013-1.849,0.06c-0.897,0.097-1.737,0.247-2.479,0.432
					c-0.805,0.192-2.738,0.918-3.832,1.701c-2.646,1.912-4.467,4.128-4.467,10.601c0,3.484,0,9.987,0,15.524c0,5.19,0,9.544,0,9.818
					c0.574,0,3.94,0,4.524,0c0-0.306,0-4.812,0-9.818h0.006c0-0.513,0-9.396,0-13.91c0.296,0,6.229,0,8.062,0v-4.472
					C273.738,248.212,268.391,248.212,267.529,248.212z"/>
			</g>
		</g>
	</g>
</g>
</svg>
