<?xml version="1.0" encoding="utf-8"?>
<!-- Generator: Adobe Illustrator 16.0.0, SVG Export Plug-In . SVG Version: 6.00 Build 0)  -->
<!DOCTYPE svg PUBLIC "-//W3C//DTD SVG 1.1//EN" "http://www.w3.org/Graphics/SVG/1.1/DTD/svg11.dtd">
<svg version="1.1" id="Layer_1" xmlns="http://www.w3.org/2000/svg" xmlns:xlink="http://www.w3.org/1999/xlink" x="0px" y="0px"
	 width="112.666px" height="129.553px" viewBox="0 0 112.666 129.553" enable-background="new 0 0 112.666 129.553"
	 xml:space="preserve">
<g>
	<path fill="#FFFFFF" d="M101.742,49.73c-4.496-0.942-5.828-5.994-5.884-6.216c0-0.054,0-0.054,0-0.054
		c-1.389-5.051,3.053-8.769,3.274-8.936c0.666-0.555,0.888-1.498,0.5-2.274c-0.391-0.779-1.222-1.221-2.108-1.055
		c-5.662,1.165-9.049-3.107-9.603-3.885c-2.886-6.104,0.333-9.712,0.443-9.823c0.666-0.72,0.723-1.775,0.11-2.553
		c-0.607-0.722-1.72-0.887-2.496-0.333c-4.938,3.219-9.271,0.056-9.436-0.111c0,0,0,0-0.057,0c-4.883-3.496-3.772-8.38-3.717-8.546
		c0.223-1-0.277-1.999-1.222-2.276c-0.944-0.333-1.998,0.167-2.387,1.055c-0.39,0.887-3.886,3.551-7.714,3.44
		c-3.497-0.055-6.216-2.441-8.048-6.992c-0.333-0.723-1.109-1.221-1.942-1.167c-0.832,0.111-1.498,0.721-1.665,1.499
		c-0.665,3.164-3.386,5.883-6.604,6.716c-3.221,0.833-6.493-0.5-9.158-3.662c-0.555-0.666-1.498-0.833-2.275-0.5
		c-0.776,0.389-1.221,1.22-1.054,2.053c0.609,3.551-0.776,7.047-3.552,8.99c-2.83,1.942-6.381,1.942-9.823-0.055
		c-0.722-0.445-1.72-0.278-2.275,0.333c-0.61,0.666-0.722,1.608-0.222,2.331c1.72,2.609,1.775,6.327,0.166,9.101
		c-1.166,2.054-3.718,4.385-9.211,4.052c-0.833-0.055-1.556,0.389-1.888,1.166c-0.277,0.777-0.055,1.61,0.555,2.164
		c3.329,2.774,4.549,5.994,3.496,9.323c-1.109,3.497-4.495,6.105-6.216,6.216c-0.887,0.11-1.608,0.778-1.719,1.666
		c-0.111,0.887,0.443,1.719,1.276,2.053c4.105,1.332,6.604,3.94,7.048,7.271c0.444,3.164-1.055,6.66-3.664,8.437
		c-0.722,0.499-0.999,1.442-0.665,2.274c0.333,0.776,1.165,1.276,2.053,1.109c3.83-0.609,7.103,0.775,8.99,3.773
		c1.887,2.996,1.832,6.826-0.055,9.49c-0.555,0.832-0.389,1.887,0.333,2.553c0.722,0.609,1.777,0.609,2.498-0.057
		c1.443-1.332,5.163-1.72,8.269-0.167c2.387,1.166,5.106,3.663,4.718,9.216c-0.055,0.83,0.444,1.606,1.222,1.885
		c0.722,0.334,1.609,0.111,2.164-0.5c2.109-2.553,5.771-3.94,8.88-3.385c3.053,0.5,5.384,2.83,6.772,6.659
		c0.332,0.831,1.165,1.388,2.108,1.22c0.887-0.164,1.553-0.942,1.553-1.83c0.056-1.664,2.332-4.938,5.884-6.16
		c2.498-0.889,6.271-0.997,9.988,3.496c0.557,0.72,1.555,0.887,2.331,0.5c0.832-0.445,1.222-1.332,0.944-2.221
		c-0.611-2.221,0.665-6.271,3.441-8.547c2.719-2.164,6.158-2.275,9.934-0.277c0.721,0.39,1.607,0.277,2.22-0.334
		c0.556-0.553,0.722-1.442,0.334-2.162c-1.499-2.887-1.276-6.885,0.443-9.602c1.663-2.554,4.552-3.83,8.38-3.664
		c0.833,0.055,1.666-0.5,1.888-1.388c0.224-0.831-0.11-1.722-0.887-2.164c-1.942-1.056-3.831-4.774-3.388-8.326
		c0.277-2.442,1.666-5.661,6.826-7.159c0.834-0.222,1.443-0.999,1.389-1.887C103.185,50.619,102.575,49.897,101.742,49.73
		L101.742,49.73z"/>
	<path fill="#DE6226" d="M101.354,51.562c-12.045,3.497-8.824,16.207-3.887,18.98c-11.156-0.555-13.598,10.1-10.545,15.984
		c-11.267-5.938-17.646,5.549-16.094,11.043c-8.491-10.322-19.146-1.276-19.203,3.772c-3.939-10.987-14.485-9.101-18.925-3.827
		c0.833-12.32-12.099-14.265-16.149-10.6c4.661-6.605-0.278-17.928-10.766-16.207c5.77-3.995,7.49-15.262-3.885-19.092
		C6.617,51.229,15.72,41.129,5.675,32.75c11.987,0.776,14.54-10.324,10.71-16.096c9.158,5.328,17.704-2.165,16.206-10.878
		c7.437,8.88,17.538,3.22,19.036-3.885c5.771,13.985,18.147,6.383,19.313,3.553c0,0-1.609,6.216,4.438,10.6
		c0,0,5.438,4.162,11.599,0.11c0,0-4.328,4.551-0.721,12.099c0,0,4.163,6.326,11.655,4.773c0,0-5.604,4.551-3.886,10.933
		C94.028,43.959,95.582,50.397,101.354,51.562L101.354,51.562z"/>
	<path fill="#FFFFFF" d="M14.11,51.618c0-20.701,16.815-37.517,37.517-37.517s37.517,16.816,37.517,37.517
		c0,20.755-16.814,37.517-37.517,37.517S14.11,72.373,14.11,51.618L14.11,51.618z"/>
	<path fill="#FFFFFF" d="M13.554,128.76c0,0-1.442-0.887-2.497-2.219c-1.831-2.332-1.61-8.714-1.332-10.603
		c0.499-5.326,3.663-9.155,5.771-11.377c2.109-2.162,5.217-3.828,6.66-4.771c-1.443-8.326-2.664-16.429-0.666-31.356
		c1.275-9.545,5.826-21.534,7.27-23.865c0.223-0.5,0.278-0.888,0.167-1.055c-0.111-0.277-0.777-0.721-2.053-0.942
		c-0.387,0-1.998-0.057-3.774,0.278h-0.167h-0.11c-0.333,0-1.61-0.111-2.387-0.999c-0.445-0.556-0.666-1.221-0.666-1.887v-0.057
		v-0.055c0.054-0.333,0.388-3.274,3.718-6.159c0.776-0.833,8.879-8.659,23.863-6.05c4.994-3.385,10.544-5.938,16.65-7.603
		c1.443-4.939,5.383-7.603,6.049-7.991c7.881-5.439,18.87-3.663,22.922-1.221c3.553,2.108,7.881,5.716,7.049,14.485
		c3.606,3.218,5.16,7.825,5.438,8.602c0.167,0.5,1.109,2.887,1.055,5.55c1.498,1.442,4.329,3.829,5.051,5.328
		c0.998,1.943,1.275,4.051,0.998,5.717c-0.389,2.108-2.054,3.606-3.994,4.217c-2.166,0.61-7.881-0.777-8.771-1.11
		c-1.554-0.5-4.827-1.165-5.827-1.276c-3.496-0.333-4.551-0.388-8.547,0.167c-0.832,0.111-1.332,0.167-1.83,0.333
		c1.055,5.217-0.943,10.988-1.333,11.487c-1.11,1.443-2.387,2.388-3.719,2.441c-1.664,0.112-2.718-1.055-2.83-1.222h-0.058
		c-1.164-1.442-2.163-2.774-3.051-3.939c-0.666-0.944-1.39-1.887-1.998-2.608c-0.834,3.663-2.832,8.712-6.604,12.32
		c-2.108,2.499-7.16,6.327-11.488,6.104c-1.221-0.056-2.054-0.553-2.663-1.718c-0.5-1.057-0.555-2.557-0.111-3.664
		c0.055-0.111,0.389-1.111,0.721-2.721c-2.941,1.721-6.159,4.33-8.99,7.326c-2.276,2.442-8.437,13.541-8.936,22.701
		c6.05,0.83,9.269,2.827,10.879,6.157c1.109,2.275,1.275,4.772,0.609,7.716c-0.609,2.496-2.885,3.328-2.885,3.328
		s-0.056-0.998-0.556-1.496c-1.331-1.111-2.998-0.502-3.385-0.336c-0.61,0.278-1.389,0.667-2.831,0.723
		c-1.222,0.057-2.22-0.276-2.941-0.666c-0.721,0.777-1.832,1.721-3.33,2.053c-4.218,1.111-8.545,3.721-9.157,4.497
		c0,0-2.442,2.108-1.61,6.938c0,0,0.222,1.441-1.054,1.274C16.274,129.537,14.387,129.372,13.554,128.76L13.554,128.76z"/>
	<path fill="#13264B" d="M81.485,51.008c1.774,3.106,0,11.709-0.555,12.486c-2.107,2.942-4.109,0.944-4.109,0.944
		c-3.439-4.051-5.327-7.826-7.268-8.159c-0.334,2.887-2.055,9.545-6.66,13.876c-0.39,0.498-5.551,5.938-10.545,5.66
		c-0.276-0.057-0.832-0.279-1.109-0.89c-0.5-1.054-0.111-2.052,0-2.387c0.055-0.222,0.943-4.329,1.276-7.77
		c-19.702,10.101-22.088,35.907-22.088,35.907c3.773,0.388,9.656,1.556,11.598,5.55c1,2.109,1.11,4.719,0.5,6.493
		c-0.276,0.775-0.443,1.222-0.831,1.609c-0.11-1.166-1.887-1.888-3.664-1.554c-1.221,0.221-1.72,0.942-3.718,0.998
		c-1.942,0.056-3.275-1.166-3.275-1.166c-0.776,2.33-3.273,2.609-3.273,2.609c-7.104,1.831-9.712,4.939-9.712,4.939
		c-3.052,3.384-2.108,7.38-2.108,7.38s-2.997,0.665-4.329-3.163c0,0-1.332-3.887-0.723-8.048c0.555-4.273,2.887-7.603,5.606-10.378
		c2.775-2.885,7.381-5.327,7.381-5.327c-1.443-8.548-2.941-16.595-0.887-31.97c1.332-9.655,6.048-21.645,7.103-23.309
		c1.221-2.608-0.277-3.94-3.107-4.44c0,0-1.887-0.055-4.162,0.279c0,0-1.554,0-1.499-1.166c0,0,0.223-2.554,3.164-5.105
		c0,0,7.77-8.27,22.754-5.606L47.8,29.36c5.883-4.163,12.1-6.605,17.482-7.993c1.054-5.384,6.05-8.213,6.05-8.213
		c0.388-0.111-0.112,0.5,0.276,0.333c-2.998,2.553-6.383,7.88-2.441,17.926c0,0-0.057-1.166,0.277-2.275c0,0,1.443,8.49,8.99,7.659
		c0,0,5.438-0.056,7.271-6.827c0,0,0.665-3.385,3.162-4.829c0.444-0.443,0.723-0.555,1.556-1.221
		c0.831-0.889,0.942-1.554,0.664-3.496c-0.332-3.331-1.72-8.048-8.156-9.27c0.055-0.111,0.109-0.278,0.109-0.389
		c4.385,0.389,10.378,2.719,10.322,12.375c0.057,0.056,0.166,0.111,0.224,0.167c0,0,1.11-0.167,1.998,0.167
		c0,0,0.11-0.057,0.167-0.167c1.165-9.602-7.438-12.432-7.438-12.432c2.553,0.833,3.662,1.388,3.662,1.388s7.659,2.775,6.604,13.874
		c3.997,3.107,5.66,8.27,5.66,8.27s0.943,2.719,1.111,6.048c0,0,3.439,2.941,4.383,4.496c0,0,0.89,1.277,1.111,3.385
		c0,0,0.221,1.109-0.389,2.665c0,0-0.943,2.719-5.439,1.886c-2.275-0.221-3.996-0.777-3.996-0.777
		c-2.387-0.721-5.271-1.221-7.047-1.499c-3.607-0.555-6.883-0.444-8.824-0.222C85.147,50.397,82.151,50.84,81.485,51.008
		L81.485,51.008z"/>
	<path fill="#FFFFFF" d="M69.165,31.417c0,0-0.057-1.166,0.277-2.276c0,0,1.442,8.49,8.988,7.659c0,0,5.439-0.055,7.271-6.827
		c0,0,0.666-3.385,3.163-4.829c0.444-0.443,0.723-0.555,1.555-1.22c0.832-0.889,0.942-1.554,0.665-3.496
		c-0.389-3.941-2.273-9.935-12.543-9.547c0,0,14.874-2.941,14.818,12.265c0.056,0.057,0.166,0.112,0.224,0.167
		c0,0,1.108-0.167,1.997,0.167c0,0,0.111-0.056,0.167-0.167c1.165-9.602-7.437-12.432-7.437-12.432s0.498,0.111,1.221,0.333
		c-3.164-1.277-6.549-1.11-6.549-1.11c-3.441,0.055-6.162,0.611-8.271,1.443c0,0,0.058,0,0.112,0
		C74.826,11.548,63.004,15.655,69.165,31.417L69.165,31.417z"/>
	<path fill="#015E6A" d="M109.733,49.065c0.5,2.997-3.219,2.997-3.219,2.997c-4.496-0.389-4.939-0.833-8.382-2.72
		c0,0-12.153-7.381-26.306,0c0,0-0.223,0.278-0.499,0.722c3.938-6.604,12.208-6.493,12.208-6.493
		c-2.83-5.051-20.255,1.943-20.255,1.943c7.603-1.611,9.323-0.888,9.323-0.888h-0.058c-4.438,1.221-5.825,10.212-5.825,10.212
		c-1.443,7.493-1.832,9.379-4.219,12.931c-0.943,1.39-3.163,4.162-7.492,5.051c0.111,0,0.222,0,0.333,0c-0.111,0-0.222,0-0.39,0
		c-0.167,0-0.332-0.11-0.332-0.11s-0.944-0.334-0.444-2.106c0,0,1.941-5.386,1.775-11.269c-0.167-3.663-0.889-5.606-1.331-7.049
		c-0.111-0.277-0.222-0.555-0.334-0.944c0,0,1.221-2.886,2.607-3.885c0,0-8.991,3.553-15.873,12.266c0,0,2.83-9.601,18.981-15.984
		c0,0-17.815,0.944-29.914,27.25c0,0-6.992,14.541-2.386,30.636c0,0-0.667-6.438,2.83-9.99c0,0-3.164,8.048,0.665,14.707
		c0,0,1.332,3.663,5.274,3.72c0,0,4.049-0.39,4.327,1.887c-0.166-0.168-0.389-0.332-0.555-0.391
		c-0.278-0.166-0.555-0.388-1.72-0.388c-1.333,0-1.665,0.556-3.608,0.722c-1.165,0.111-3.607,0.443-5.161-2.996
		c0,0,0.888,3.828-2.996,4.828c0,0-5.106,1.775-7.382,3.105c0,0-4.439,2.332-4.828,7.492c0,0,0.111,0.722-0.499,0.722
		c0,0-0.501,0.058-0.833-1.108c0,0-3.663-9.822,5.328-17.481c1.11-0.998,2.386-1.775,3.607-2.498
		c3.829-1.552,5.383,1.554,5.383,1.554c-2.165-4.218-3.275-10.933-3.663-13.15c0-0.225,0-0.445-0.055-0.666
		c-1.776-16.484,2.719-32.58,4.55-37.24c0.999-2.664,2.165-5.106,3.441-7.382l-0.055,0.111c1.554-2.441,1.72-3.829,1.72-3.829
		c0.389-1.832-1.275-3.274-1.275-3.274c-1.61-1.776-5.883-1.167-5.883-1.167s-1.11,0.167-0.889-0.72c0,0,0,0,0-0.056
		c0.555-0.833,1.554-1.665,2.664-2.387c9.934-5.826,9.158,2.275,9.158,2.275c3.885-4.772,8.768-6.714,8.768-6.714
		c-16.811,13.151-17.588,33.13-17.588,33.13c7.491-33.187,33.187-39.57,36.905-38.349c0.166,0.222,0.89,1.054,1.276,1.442
		c-0.5-2.663-0.666-6.161,0.777-9.379c0,0,1.719-5.05,7.438-6.605c0,0-1.61,0.555-3.332,2.054c-0.777,0.667-1.608,1.554-2.33,2.72
		c-0.167,0.333-0.391,0.665-0.557,1.054c-0.276,0.5-0.498,1.11-0.664,1.777c-0.334,1.054-0.555,2.276-0.555,3.606
		c-0.058,2.386,0.443,5.273,1.775,8.659c0,0-0.057-1.166,0.277-2.276c0,0,1.442,8.49,8.988,7.659c0,0,5.439-0.055,7.271-6.827
		c0,0,0.722-3.607,3.162-4.829c0.445-0.443,0.724-0.554,1.556-1.22c0.722-0.722,0.776-1.333,0.776-1.333
		c0.166-0.944-0.111-2.164-0.111-2.164c-0.389-3.94-2.273-9.935-12.543-9.546c0,0,14.874-2.941,14.818,12.265
		c0.056,0.056,0.166,0.111,0.224,0.167c0,0,1.108-0.167,1.997,0.167c0,0,0.111-0.057,0.167-0.167
		C96.911,13.71,88.31,10.88,88.31,10.88s10.433,1.499,8.879,14.485c-1.276-0.666-3.83-0.888-6.215,0.111
		c-2.832,1.388-4.054,4.439-4.054,4.439c3.054-4.107,6.828-4.107,9.157-3.552c2.443,1.442,6.16,4.663,7.271,11.1
		c0,0,0.055,0.055,0.055,0.111c-0.721-1.887-3.163-7.049-8.49-9.102c0,0,3.939,2.664,5.993,8.325
		c0.278,0.777,1.055,2.775,0.223,2.997c-1.442,0.555-5.827,0.833-8.657,0c-0.832-0.278-1.222-0.444-1.609-0.722
		c-0.166-0.056-0.389-0.167-0.389-0.167c-0.888,0.61-1.664,0.444-1.664,0.444c0.832-0.222,1.109-0.944,1.109-0.944
		c-0.723-0.055-1.221-0.833-1.221-0.833c-1.057-1.276-1.943-1.61-1.943-1.61c-2.053-0.777-2.997,0.555-3.107,0.777
		c-0.276,0.666,0.057,1.775,2.222,3.441c-0.556-1.167-0.89-2.443,0.388-2.831c0.055,0,0.111-0.055,0.111-0.055
		c0.722-0.056,1.443,0.444,1.775,0.776c-0.166,0.055-0.334,0.222-0.388,0.444c-0.224,0.5,0.11,1.166,0.72,1.444
		c0.224,0.111,0.5,0.111,0.775,0.055c0.335,0,0.723-0.111,1.168-0.333c1.939,0.999,4.717,1.499,6.938,1.608
		c0,0,4.883,0.278,6.271-0.222c4.218,2.331,5.604,5.051,5.661,5.328c0.664,1.998-2.221,1.998-2.221,1.998
		c-4.053-0.111-5.604-1.554-8.381-2.831c-3.107-1.442-1.998-0.999-4.994-1.997c0,0-3.053-0.999-3.887,0.111
		c0,0,0.057-0.055,0.168-0.167c0,0,1.164-0.166,3.219,0.833c2.275,1.166,4.385,2.165,6.604,3.22c0,0,3.274,2.774,6.882,2.442
		l1.332,0.111L109.733,49.065L109.733,49.065z"/>
	<path fill="#015E6A" d="M70.44,23.814c0,0-1.332-0.111-1.887-1.222c0,0-0.056-6.215,5.826-9.269
		C74.38,13.323,69.165,16.488,70.44,23.814L70.44,23.814z"/>
	<path fill="#015E6A" d="M68.888,24.257c0,0,0.608,0.5,0.943,0.5c0,0,0.109,1.665,0.941,3.331
		C70.774,28.087,68.774,26.421,68.888,24.257L68.888,24.257z"/>
	<path fill="#015E6A" d="M79.043,30.806c-1.222,0.61-1.332,1.886-1.332,1.886c-0.168,1.166,0.276,2.053,0.332,2.165
		c0.167,0.056,0.334,0.11,0.556,0.11c0.887,0,1.608-0.942,1.664-2.108C80.265,31.861,79.709,31.083,79.043,30.806L79.043,30.806z"/>
	<path fill="#13264B" d="M77.711,32.692c0,0,0.11-1.276,1.332-1.886c-0.167-0.055-0.276-0.055-0.444-0.055
		c-0.888,0-1.664,0.942-1.664,2.108c0,0.888,0.498,1.72,1.108,1.998C77.989,34.746,77.544,33.858,77.711,32.692L77.711,32.692z"/>
	<path fill="#DE6226" d="M74.492,17.265c0.444,0.166,0.5,0.444,0.444,0.777l-0.5,5.605c-0.056,0.278-0.223,0.61-0.609,0.61H73.66
		c0,0-0.166,0.055-0.166,0.111v0.388c0,0,0.055,0.112,0.11,0.167c0.056,0.055,2.608,0.333,2.608,0.333s0.11-0.055,0.166-0.112
		l0.056-0.443l-0.111-0.111c-0.666-0.111-0.443-0.61-0.499-0.776l0.333-3.497l1.996,5.161l1.111,0.166l2.442-4.717l-0.334,3.552
		c-0.058,0.5-0.276,0.611-0.39,0.611h-0.166c0,0-0.166-0.057-0.223,0.166v0.222c0,0-0.055,0.222,0.11,0.277l3.387,0.389
		c0,0,0.11,0,0.167-0.111l0.055-0.389c0,0-0.11-0.166-0.166-0.166c0,0-0.5-0.056-0.555-0.776l0.443-5.606c0,0,0-0.554,0.667-0.611
		c0,0,0.166-0.055,0.223-0.166l0.054-0.444c0,0-0.054-0.166-0.164-0.166c-0.058,0-2.941-0.333-2.941-0.333l-2.555,4.384l-1.829-4.94
		l-3.108-0.333c0,0-0.167,0-0.167,0.167c0,0.111-0.055,0.389-0.055,0.389s0,0.166,0.055,0.166
		C74.269,17.208,74.492,17.265,74.492,17.265L74.492,17.265z"/>
	<path fill="#DE6226" d="M95.358,23.424c0.113-9.989-6.604-11.488-6.604-11.488c5.438,2.942,5.438,9.046,5.217,11.322
		C94.306,23.259,94.858,23.259,95.358,23.424L95.358,23.424z"/>
	<path fill="#FFFFFF" d="M90.919,39.13c0.111-0.111,0.277-0.61,0.223-1.054c-0.11-0.666-0.889-2.941-3.886-3.163
		c-3.053-0.278-3.606,1.831-3.606,1.831s0.942-1.609,3.107-0.777c0,0,0.889,0.333,1.942,1.61c0,0,0.499,0.777,1.222,0.833
		c0,0-0.277,0.721-1.109,0.944c0,0,0.776,0.166,1.664-0.445C90.476,38.908,90.808,39.076,90.919,39.13L90.919,39.13z"/>
	<path fill="#FFFFFF" d="M89.253,40.019c-0.275,0.055-0.554,0.055-0.775-0.055c-0.608-0.278-0.943-0.944-0.721-1.444
		c0.055-0.221,0.223-0.388,0.389-0.443c-0.334-0.333-1.055-0.833-1.776-0.777c0,0-0.332,1.277,0.168,1.998
		c0,0,0.831,1.443,2.829,0.999c0,0,0.556-0.111,1.167-0.555c-0.058-0.055-0.111-0.055-0.111-0.055
		C89.976,39.907,89.588,40.019,89.253,40.019L89.253,40.019z"/>
	<path fill="#FFFFFF" d="M104.737,49.509c0,0,4.439,1.608,4.996-1.166c1.055,4.551-5.385,2.054-5.385,2.054
		c-1.887-0.5-10.377-5.662-10.377-5.662c-1.775-1.054-2.775-1.109-2.775-1.109c-0.332-0.055-1.221-0.112-1.221-0.112
		c0.556-0.333,2.274-0.11,4.328,0.889C94.306,44.403,102.851,49.176,104.737,49.509L104.737,49.509z"/>
	<path fill="#FFFFFF" d="M100.743,50.896c-4.662-1.832-8.104-1.998-8.104-1.998c-13.931-1.276-22.644,4.329-22.644,4.329
		c0.389-1.998,1.831-3.885,1.831-3.885c14.54-7.936,26.916,0.389,26.916,0.389s2.441,1.277,2.831,1.387
		C101.576,51.118,101.076,51.008,100.743,50.896L100.743,50.896z"/>
	<path fill="#FFFFFF" d="M72.662,44.625c0,0-3.22,1.998-4.22,10.045C68,58.832,67.11,63.882,62.837,68.655
		c-1.441,1.609-3.771,4.107-7.824,4.162c4.329-0.887,6.548-3.661,7.492-5.049c2.387-3.554,2.773-5.439,4.219-12.932
		C66.722,54.837,68.11,45.735,72.662,44.625L72.662,44.625z"/>
	<path fill="#FFFFFF" d="M53.015,62.273c0,0,0.72-3.607-0.556-6.548c0,0-17.87,7.548-19.591,28.36
		C32.869,84.085,35.254,72.151,53.015,62.273L53.015,62.273z"/>
	<path fill="#FFFFFF" d="M29.04,32.97c8.602-5.216,17.814-2.886,17.814-2.886s-0.999,0.499-1.832,1.055
		C45.023,31.139,37.641,28.919,29.04,32.97L29.04,32.97z"/>
	<path fill="#FFFFFF" d="M20.548,113.554c-4.441,0.777-6.329,5.495-6.272,8.104c0,0-2.442-10.987,7.437-15.65
		c0,0,4.273-1.886,4.661,2.721C26.431,109.392,27.375,112.276,20.548,113.554L20.548,113.554z"/>
	<path fill="#FFFFFF" d="M106.569,43.959c0,0,4.439,3.218,0.056,3.607C106.625,47.567,108.79,46.124,106.569,43.959L106.569,43.959z
		"/>
	<path fill="#015E6A" d="M80.319,52.728l-1.663,0.389c0,0,1.774,1.11,1.22,9.213C79.875,62.33,82.095,56.835,80.319,52.728
		L80.319,52.728z"/>
	<path fill="#015E6A" d="M33.257,102.675c0,0,7.492,0.225,7.881,5.107c0,0-0.665-1.998-3.663-2.166
		C37.474,105.616,32.869,105.174,33.257,102.675L33.257,102.675z"/>
</g>
</svg>
