<?xml version="1.0" encoding="utf-8"?>
<!-- Generator: Adobe Illustrator 16.0.0, SVG Export Plug-In . SVG Version: 6.00 Build 0)  -->
<!DOCTYPE svg PUBLIC "-//W3C//DTD SVG 1.1//EN" "http://www.w3.org/Graphics/SVG/1.1/DTD/svg11.dtd">
<svg version="1.1" id="Layer_1" xmlns="http://www.w3.org/2000/svg" xmlns:xlink="http://www.w3.org/1999/xlink" x="0px" y="0px"
	 width="56.814px" height="54.764px" viewBox="0 0 56.814 54.764" enable-background="new 0 0 56.814 54.764" xml:space="preserve">
<g>
	<path fill="#0099DB" d="M0.659,9.5c-1.043,0.605-0.792,2.575,0.36,5.149c4.028,9.003,9.609,16.367,16.728,21.909
		c-0.722-3.575-0.492-6.527,0.754-9.118c1.214-2.559,3.444-4.297,6.658-5.15l-0.394-2.459c-5.542-5.05-11.895-8.914-19.056-10.823
		C4.164,8.596,2.343,8.522,0.659,9.5L0.659,9.5z"/>
	<path fill="#F3A84D" d="M28.604,21.045c2.559,4.33,4.296,8.364,5.279,12.333l0.132,0.723l0.229,0.754
		c3.214,1.345,6.526,1.968,9.971,1.573c3.575-0.491,6.166-1.968,7.74-4.525l1.869-4.329c-2.361-4.297-6.297-7.019-11.808-8.003
		C37.327,18.848,32.899,19.34,28.604,21.045L28.604,21.045z"/>
	<path fill="#0E529D" d="M33.884,33.378c-0.983-3.969-2.722-8.003-5.279-12.333l-0.264-0.359l-1.345-2.1
		c-0.623-0.853-1.049-1.042-1.606-0.796c-0.583,0.257-0.854,0.697-0.623,1.682v0.36l0.394,2.459l0.099,0.854l4.429,12.202
		l0.492,0.982c1.476,2.329,3.083,4.297,4.689,5.773l-0.623-6.889l-0.229-1.114L33.884,33.378L33.884,33.378z"/>
	<path fill="#E54E23" d="M28.604,21.045c4.296-1.705,8.724-2.197,13.414-1.476c5.511,0.983,9.445,3.707,11.808,8.003
		c3.542-9.479,4.074-17.482,0.854-23.747c-0.57-1.109-1.462-2.073-2.461-2.821c-1.952-1.463-4.278-1.212-6.756,0
		c-9.854,4.823-15.875,10.824-17.974,18.072l0.853,1.607L28.604,21.045L28.604,21.045z"/>
	<path fill="#009A3E" d="M25.258,23.145l-0.099-0.854c-3.214,0.854-5.444,2.592-6.658,5.15c-1.246,2.591-1.476,5.543-0.754,9.118
		l2.591,1.738c2.597,0.789,5.165,1.22,7.644,0.36l2.197-2.329l-0.492-0.982L25.258,23.145L25.258,23.145z"/>
	<path fill="#76B741" d="M20.338,38.298l-2.591-1.738c2.591,6.658,6.365,11.759,11.84,14.398c0.81,0.392,1.835,0.402,2.689,0.131
		c0.555-0.178,0.867-0.817,1.115-1.346c0.854-1.812,1.214-4.328,1.477-7.641c-1.606-1.478-3.215-3.444-4.689-5.773l-2.197,2.329
		C25.643,39.544,23.029,39.06,20.338,38.298L20.338,38.298z"/>
	<path fill="#FFCC00" d="M44.478,48.367c0.979,0.105,1.777-0.426,2.46-0.984c2.767-2.266,4.848-5.026,6.134-8.493
		c1.403-3.783,1.606-7.479,0.754-11.315l-1.869,4.329c-1.574,2.558-4.165,4.034-7.74,4.526c-3.443,0.394-6.757-0.229-9.971-1.574
		v0.36l0.623,6.889c2.197,2.328,4.889,4.36,8.003,5.771C43.381,48.107,43.921,48.306,44.478,48.367L44.478,48.367z"/>
	<polygon fill="#0E529D" points="50.25,50.826 50.382,49.974 46.807,49.974 46.675,50.826 47.922,50.826 47.298,54.763 
		48.282,54.763 49.004,50.826 	"/>
</g>
</svg>
