<?xml version="1.0" encoding="utf-8"?>
<!-- Generator: Adobe Illustrator 16.0.0, SVG Export Plug-In . SVG Version: 6.00 Build 0)  -->
<!DOCTYPE svg PUBLIC "-//W3C//DTD SVG 1.1//EN" "http://www.w3.org/Graphics/SVG/1.1/DTD/svg11.dtd">
<svg version="1.1" id="Layer_1" xmlns="http://www.w3.org/2000/svg" xmlns:xlink="http://www.w3.org/1999/xlink" x="0px" y="0px"
	 width="405.364px" height="889.375px" viewBox="0 0 405.364 889.375" enable-background="new 0 0 405.364 889.375"
	 xml:space="preserve">
<g>
	<path d="M145.024,168.813c-2.212-0.026-3.484-0.833-4.312-3.026c-0.899-2.385-0.397-3.598,1.501-5.151
		c4.744-3.877,10.007-7.099,15.092-10.575c14.799-10.118,29.886-19.812,44.882-29.635c15.328-10.04,30.42-20.428,45.317-31.09
		c13.271-9.499,26.627-19.082,39.613-29.081c6.344-4.884,12.6-9.868,18.715-14.989c3.547-2.971,6.779-6.193,8.93-9.732
		c1.227-2.019,1.375-4.025-0.402-8.1c-2.371-5.438-5.648-12.798-7.271-16.747c-0.422-1.028-0.637-2.132-0.752-3.225
		c-0.256-2.429,1.244-4.747,3.215-6.112c3.799-2.63,6.486-1.151,8.5,2.175c8.572,14.146,19.945,42.681,25.881,58.709
		c2.102,5.671-6.43,9.893-9.98,5.881c-3.342-3.776-6.188-12.589-9.012-17.812c-2.277-4.211-5.67-2.393-8.824-0.193
		c-8.371,5.844-16.568,11.939-24.717,18.107c-12.711,9.624-25.299,19.428-38.23,28.739c-14.801,10.66-29.791,21.047-45.014,31.266
		c-14.569,9.782-29.21,19.464-43.805,29.177C159.42,160.679,151.056,168.884,145.024,168.813L145.024,168.813z M212.637,803.139
		c-0.523-0.039-1.014-0.314-1.452-0.576c-2.724-1.629-4.739-3.627-6.687-6.236c-1.576-2.113-3.193-4.271-5.213-6.021
		c-1.785-1.549-3.966-2.578-5.778-4.08c-0.412-0.344-0.68-0.873-0.796-1.381c-0.194-0.852-0.253-1.738-0.138-2.594
		c0.3-2.197-0.281-3.438-2.048-4.58c-2.667-1.725-5.738-2.402-7.333-5.27c-0.467-0.84-0.519-0.83-0.667-1.598
		c-0.345-1.795-0.681-3.188,0.747-4.436c1.244-1.088,2.888-0.75,2.393-2.377c-0.686-2.256-2.515-3.891-3.704-5.893
		c-2.875-4.84-5.989-9.098-7.175-14.643c-0.732-3.428-0.992-7.023-0.554-10.502c0.279-2.205,1.953-4.18,3.166-6.102
		c3.739-5.932,3.489-6.092,4.258-7.936c1.23-2.941,2.621-5.807,3.262-8.916c0.324-1.58,0.498-3.236,0.795-4.824
		c0.201-1.076-0.252-2.195-0.055-3.262c0.29-1.568,0.667-2.986,0.691-4.584c0.104-7.15-0.944-14.268-1.012-21.404
		c-0.016-1.791,0.972-3.297,1.132-5.074c0.271-3.006-0.203-6.938,0.526-9.939c0.263-1.088,0.14-2.277-0.176-3.338
		c-1.083-3.627-2.429-6.803-1.956-10.543c0.479-3.797,3.228-6.971,3.983-10.707c0.125-0.619-0.012-1.268,0.135-1.871
		c0.338-1.396,0.863-4.857,0.504-7.551c-0.419-3.148-1.949-4.541-3.909-2.172c-0.647,0.783-0.996,1.791-1.277,2.773
		c-0.461,1.615-1.267,2.959-1.388,4.621c-0.348,4.797,0.629,9.604,0.644,14.426c0.003,0.627-0.082,0.613-0.36,2.002
		c-0.158,0.783-0.735,1.457-0.814,2.26c-0.197,2.008,0.485,4.396-0.622,6.119c-1.629,2.535-4.111,2.227-6.557,0.381
		c-1.681-1.268-3.402-2.467-5.417-3.004c-4.655-1.238-8.38-3.484-12.45-6.105c-4.19-2.699-8.878-4.662-13.442-6.768
		c-0.82-0.379-1.634-0.795-2.289-1.395c-2.791-2.557-4.788-6.613-7.01-9.74c-1.88-2.648-2.686-3.242-3.158-3.951
		c-1.171-1.76-1.805-2.977-3.654-6.943c-1.852-3.969-4.204-6.135-7.01-9.52c-3.461-4.176-3.45-10.209-5.272-15.277
		c-0.176-0.49-0.658-0.842-0.759-1.338c-0.346-1.713-0.229-3.379-0.961-4.963c-0.916-1.984-0.802-2.051-1.322-2.752
		c-1.035-1.389-3.98-3.475-4.462-4.113c-0.638-0.846-1.314-1.682-1.715-2.65c-1.014-2.455-1.268-3.861-1.401-4.475
		c-0.285-1.299-0.073-2.676-0.441-3.939c-1.119-3.838-0.563-8.07-1.452-12.051c-0.417-1.877-0.173-3.84,0.046-5.752
		c0.28-2.434,0.132-2.443,0.078-2.92c-0.22-2.041-0.62-3.988-1.13-5.971c-0.305-1.184-1.397-2.1-1.573-3.297
		c-3.143-21.459-18.093-39.922-21.048-60.814c-0.44-3.109,0.193-5.279,1.087-8.139c0.412-1.32,0.831-2.639,0.954-4.016
		c0.354-3.971-0.07-4.01,0.274-5.844c0.422-2.246,1.552-4.264,3.843-2.758c0.98,0.645,1.817,1.559,2.467,2.553
		c3.234,4.957,2.844,5.199,4.101,7.014c0.752,1.084,2.11,2.664,3.447,3.789c0.802,0.674,1.73,1.422,2.559,1.074
		c1.385-0.584,0.866-2.543-0.15-4.408c-1.693-3.105-5.194-6.629-5.78-7.432c-0.316-0.434-0.441-0.992-0.784-1.381
		c-1.266-1.438-1.93-2.867-2.657-4.596c-5.913-14.047-6.256-29.648-8.185-44.688c-1.516-11.828-3.11-23.606-5.11-34.517
		c-0.581-3.166-1.559-6.428-3.742-8.805c-1.502-1.639-2.567-0.515-4.438,0.292c-5.394,2.326-10.427,5.558-12.917,10.908
		c-0.547,1.176-0.896,2.481-0.966,3.782c-0.126,2.338,0.556,5.167,0.745,7.506c0.434,5.344,2.552,19.725,6.134,36.042
		c2.943,13.416,7.104,28.039,11.756,40.191c1.15,3.004,1.573,5.623,2.438,8.523c0.905,3.035,1.329,2.92,1.66,4.926
		c0.53,3.219,0.597,3.24,0.737,11.775c0.082,4.961-6.445,5.125-8.109,1.01c-0.922-2.275-0.526-3.484-1.01-5.893
		c-5.825-28.947-13.562-59.887-21.242-88.792c-0.466-1.757-0.106-3.959-1.721-4.981c-1.061-0.671-1.944-0.855-3.154-0.558
		c-1.716,0.424-3.045,0.679-4.693,0.131c-1.181-0.391-2.196-1.145-3.059-1.919c-1.108-0.994-2.219-2.272-1.961-3.949
		c0.197-1.281,1.136-2.151,2.357-2.62c2.526-0.971,4.21-2.462,6.166-4.267c0.671-0.619,1.305-1.152,2.007-1.737
		c0.812-0.677,1.676-1.296,2.611-1.794c1.207-0.644,2.588-0.918,3.775-1.609c2.279-1.33,3.901-3.271,4.295-5.883
		c0.36-2.372-0.066-5.5-0.378-7.176c-0.312-1.674-0.358-1.979-0.618-2.882c-0.26-0.904-0.817-0.719-1.06-2.393
		c-0.241-1.676-0.328-6.069-0.058-7.728c0.271-1.661,0.052-1.712-0.133-2.524c-0.185-0.813-0.512-0.122-0.937-2.283
		c-0.424-2.162-2.931-6.977-3.974-8.793c-1.042-1.816-0.826-0.827-1.106-1.317c-1.497-2.619-3.348-5.079-5.265-7.396
		c-0.799-0.967-1.985-1.674-2.951-2.462c-1.243-1.01-2.464-2.319-1.364-4.156c0.679-1.134,2.033-1.23,3.125-1.166
		c4.73,0.279,10.087,8.101,11.942,10.89c2.424,3.644,2.726,4.422,3.644,7.154c0.917,2.734,1.354,4.164,1.824,5.852
		c0.471,1.688,0.275,4.16,0.624,7.431c0.349,3.269,0.236-0.717,0.405,1.027s0.215,6.428,0.576,8.716
		c0.362,2.288,1.393,3.643,2.13,4.564c0.738,0.921-0.229,1.024,1.518,1.144c0.655,0.044,1.607-0.391,2.649-1.041
		c1.736-1.083,3.813-2.66,5.002-3.807c0.625-0.601,1.778-1.691,0.802-2.245c-0.666-0.379-1.355-0.125-1.965-0.021
		c-1.017,0.174-2.047,0.561-3.795,0.675c-2.797,0.183-2.994-2.886-2.925-5.28c0.067-2.396,0.205-1.375-0.201-3.804
		c-0.214-1.289-0.339-3.601-0.434-5.766c-0.255-5.766-0.971-7.842-5.088-13.161c-1.872-2.418-3.661-4.86-5.516-7.289
		c-1.454-1.905-2.702-4.005-4.745-5.278c-2.033-1.266-4.821-1.839-6.322-3.351c-2.778-2.795-1.082-6.701,0.301-9.776
		c1.445-3.214,1.479-3.226,3.393-5.987c2.03-2.928,4.271-5.455,6.834-7.963c1.242-1.215,2.451-2.504,3.898-3.471
		c6.455-4.312,6.459-4.314,7.107-4.573c2.778-1.115,5.815-1.975,8.233-3.734c2.732-1.989,5.695-4.485,6.196-7.883
		c0.177-1.195-0.746-2.627-2.042-2.236c-1.754,0.53-2.753,2.438-4.376,3.262c-2.207,1.122-5.346,1.31-7.448-0.132
		c-0.97-0.666-1.899-1.424-2.618-2.346c-2.146-2.748-4.981-4.909-7.346-7.508c-1.381-1.516-3.198-2.605-4.524-4.169
		c-0.801-0.946-1.595-1.994-2.258-3.031c-0.742-1.16-0.781-2.976-0.461-4.324c0.512-2.154,1.823-2.537,3.922-2.353
		c1.282,0.112,2.386,1.094,3.679,1.205c2.112,0.183,4.05-1.595,4.512-3.573c0.363-1.556-0.021-2.629,0.899-3.954
		c0.519-0.748,0.998-0.404,1.807-2.007c0.979-1.94-1.938-4.094-2.632-5.902c-0.46-1.2-0.527-1.946-0.612-2.766
		c-0.153-1.483-0.157-2.914,0.237-4.363c0.357-1.316,0.948-2.583,1.692-3.728c1.749-2.689,3.966-5.227,6.288-7.48
		c2.505-2.431,4.884-4.502,7.946-6.12c1.53-0.81,3.143-1.478,4.792-2.003c0.566-0.18,1.203-0.236,1.779-0.093
		c2.008,0.5,3.484,2.347,5.509,2.742c1.954,0.38,2.887-0.833,3.974-2.483c1.866-2.835,3.865-0.671,5.819,0.673
		c1.318,0.905,2.634,0.342,3.269-1.047c0.247-0.541-0.172-0.599,0.066-3.154c0.139-1.465,0.292-1.469,0.808-2.374
		c1.666-2.915,5.12-4.305,7.869-6.036c1.153-0.726,1.29-0.476,2.183-1.072c0.414-0.274,1.965-1.782,3.548-2.501
		c4.018-1.825,0.873-4.092-1.219-2.634c-0.571,0.399-1.146,0.834-1.811,1.028c-0.84,0.243-2.064-0.219-2.563,0.508
		c-0.666,0.972-0.228,1.234-0.618,1.548c-1.493,1.203-3.037,2.354-4.831,3.029c-2.589,0.976-5.008,2.215-7.165,3.9
		c-2.076,1.622-3.887,3.687-6.123,5.082c-1.948,1.215-6.199,0.833-4.337-3.281c0.484-1.07,1.105-2.227,1.618-2.967
		c2.306-3.334,1.241-8.442,0.045-11.955c-1.302-3.824-0.003-8.208,2.352-11.145c5.786-7.217,14.119-13.181,23.306-15.258
		c3.345-0.756,6.785-0.639,10.101-0.287c3.041,0.322,6.604,0.991,9.25,2.45c1.68,0.928,4.063,1.543,4.511,3.518
		c0.4,1.76,0.079,2.195-1.332,3.487c-0.404,0.369-1.389,1.652-1.401,2.173c-0.058,2.644,3.007,3.566,5.227,3.142
		c1.255-0.241,2.793-0.994,4.176-0.967c1.778,0.035,3.469,0.973,2.551,3.375c-0.458,1.198-1.68,1.44-2.919,1.238
		c-1.25-0.203-1.581,1.132-2.689,1.424c-1.43,0.378-2.98,0.034-4.414,0.35c-1.656,0.364-1.505,0.821-4.113,1.617
		c-2.087,0.635-4.897,1.221-6.986,2.581c-4.21,2.744-1.336,5.691,2.172,4.086c2.281-1.044,2.227-1.215,3.764-1.598
		c2.576-0.641,5.4-1.638,7.914-2.516c1.229-0.429,1.811-0.256,3.335-0.876c1.792-0.728,4.145-2.12,5.838-0.983
		c2.692,1.807,1.355,4.858-0.621,6.796c-1.256,1.23-3.216,1.635-4.74,2.559c-0.671,0.406-1.443,0.731-1.899,1.359
		c-1.045,1.442-1.386,1.689-1.673,3.225c-0.327,1.754-0.135,3.568,0.28,5.314c0.196,0.822,1.005,1.248,1.378,2.004
		c1.439,2.924,3.515,5.131,6.194,6.903c1.921,1.271,3.424,1.301,5.664,1.66c1.895,0.306,3.118,0.247,5.068-0.5
		c1.951-0.747,4.425-2.137,5.99-2.065c1.567,0.071,1.311,0.39,2.142,0.82c0.832,0.432,1.75,1.397,2.448,2.302
		c1.246,1.617,1.453,2.405,1.595,4.379c0.086,1.21-0.158,2.496,0.268,3.634c0.748,2,2.52,3.087,4.273,1.652
		c1.072-0.875,1.677-2.047,1.347-3.429c-0.65-2.718-0.929-4.432,1.223-6.443c1.142-1.069,3.121-1.096,5.374-0.62
		c3.292,0.697,7.041,2.819,9.865,3.664c6.685,2.001,10.656,5.256,16.13,9.085c1.618,1.133,2.952,2.611,4.603,3.699
		c4.043,2.666,8.345,4.7,12.592,7.021c1.347,0.735,2.593,1.672,3.801,2.633c0.93,0.739,1.859,1.509,2.591,2.453
		c0.591,0.763,1.181,1.641,1.304,2.613c0.566,4.503-2.402,4.297-6.201,4.711c-1.4,0.153-2.842,0.285-4.155,0.802
		c-2.034,0.804-3.272,1.452-4.026,2.138c-1.096,0.997-1.871,2.257-2.768,3.458c-2.084,2.792-3.873,4.858-4.528,5.265
		c-2.642,1.639-4.497,0.398-7.189-0.787c-3.377-1.488-7.133-3.651-8.82-7.15c-0.612-1.268-0.953-1.48-1.528-2.593
		c-1.027-1.991-3.313-2.677-2.594,0.489c0.376,1.661,1.946,3.573,2.271,4.615c0.244,0.779,0.007,1.655,0.245,2.436
		c0.276,0.898,0.357,1.66,0.717,2.528c0.613,1.477-0.149,3.661,1.248,4.436c0.938,0.521,1.1-0.137,2.577,0.214
		c2.309,0.549,3.688,1.106,4.299,3.435c0.673,2.568,0.324,2.906-1.898,4.485c-2.133,1.517-2.251,1.435-3.525,1.703
		c-4.317,0.903-6.938,4.335-11.023,5.479c-0.557,0.156-0.92,0.726-1.468,0.894c-0.86,0.263-1.825,0.077-2.663,0.373
		c-1.421,0.505-2.952,0.731-4.436,0.584c-1.621-0.16-2.911-0.873-4.263,0.085c-0.539,0.38-0.577,1.229-0.578,1.884
		c-0.008,3.4,0.282,6.731,0.996,10.058c0.369,1.714,0.234,3.596,0.858,5.203c1.131,2.908,3.53,5.396,4.409,8.398
		c0.838,2.867,1.489,6.445,3.653,8.494c0.992,0.938,1.986,0.037,2.749-0.961c3.046-3.979,7.108-7.357,12.132-8.558
		c3.739-0.893,7.077-1.651,10.917-1.509c2.565,0.095,3.834,2.761,5.949,4.024c2.588,1.545,4.955,1.503,5.87-1.685
		c0.604-2.089,0.773-4.415,1.523-6.495c0.741-2.056,1.939-3.418,4.028-4.107c1.261-0.417,2.663-0.407,3.988-0.21
		c1.005,0.148,1.024,0.297,1.708,0.982c1.963,1.972,1.4,3.54-0.051,5.682c-0.744,1.099-1.893,1.888-2.605,3.006
		c-0.702,1.102-1.191,2.352-1.582,3.605c-0.156,0.502-0.095,1.066-0.031,1.599c0.301,2.589,2.828,4.593,4.303,6.63
		c0.832,1.15,0.847,2.552,0.334,3.889c-1.395,3.639-2.422,6.748-1.422,10.652c0.771,3.012,2.84,5.505,3.594,8.44
		c0.464,1.805,0.982,3.947-0.581,5.116c-0.707,0.527-1.657,0.652-2.526,0.716c-8.525,0.629-17.104,0.42-25.574,1.581
		c-1.695,0.232-3.186,0.605-4.847,0.955c-2.134,0.449-4.407,0.104-6.495,0.692c-3.303,0.932-7.134,2.509-9.902,4.604
		c-2.453,1.855-4.4,2.668-7.272,3.648c-1.492,0.509-2.305,1.11-3.758,1.714c-2.266,0.942-4.214,2.615-6.199,4.06
		c-3.036,2.208-2.998,2.436-4.859,2.938c-2.001,0.538-4.67,0.164-5.322-2.087c-0.666-2.292-0.661-4.77-0.376-7.128
		c0.157-1.308,0.922-2.5,1.676-3.587c1.494-2.154,3.407-3.931,5.98-4.676c0.785-0.227,1.647-0.037,2.436-0.245
		c1.929-0.51,5.594-1.584,6.297-3.552c0.259-0.723,0.174-1.593-0.121-2.291c-0.875-2.072-3.006-1.737-4.964-2.151
		c-2.674-0.566-5.389-0.378-7.982-0.979c-0.536-0.125-1.137,0.174-1.635-0.032c-1.48-0.609-2.681-1.38-3.738-2.578
		c-2.301-2.602-2.552-3.137-3.122-3.916c-1.949-2.665-4.438-5.331-3.175-8.696c0.281-0.748,0.915-1.223,1.699-1.396
		c1.479-0.326,3.059,0.008,4.529-0.355c1.278-0.314,2.227-0.849,2.986-1.964c1.664-2.443,2.54-4.887,5.331-6.171
		c0.645-0.296,1.437-0.276,2.128-0.111c2.545,0.607,4.754,1.95,6.658,1.981c1.063,0.017,1.456-1.148,0.953-2.068
		c-1.625-2.972-4.285-5.304-6.568-7.793c-0.588-0.642-0.981-1.465-1.193-2.293c-0.237-0.914-0.288-1.894-0.148-2.826
		c0.304-2.056,0.306-4.524,0.704-6.568c0.248-1.284,0.584-1.923,0.88-3.195c0.459-1.983,0.274-4.37,0.014-6.38
		c-0.056-0.422-0.217-0.963-0.608-1.122c-1.735-0.703-2.993,1.044-4.451,2.065c-1.643,1.15-1.714,1.128-2.441,1.236
		c-1.74,0.258-3.517,0.415-5.27,0.278c-1.846-0.144-4.576-0.878-6.163,0.116c-0.287,0.179-0.417,0.42-0.111,0.741
		c1.143,1.194,2.753,1.138,4.333,1.461c2.672,0.545,2.687,0.561,3.55,0.98c1.824,0.884,2.821,1.633,3.814,3.32
		c1.757,2.988,1.881,2.952,2.21,4.104c0.605,2.122,1.158,4.222,0.805,6.407c-0.366,2.264-0.57,2.292-1.675,3.842
		c-1.827,2.563-3.575,5.601-6.699,6.079c-11.892,1.823-12.032,1.064-15.508,0.702c-4.427-0.463-4.662-3.008-5.894-6.956
		c-0.407-1.301,0.014-2.757-0.331-4.063c-0.583-2.201-1.057-4.352-1.972-6.427c-0.678-1.537-2.223-2.905-4.133-5.823
		c-0.682-1.042-0.609-2.414-0.448-3.65c0.225-1.734,1.056-4.379-1.027-4.424c-2.31-0.048-2.414,3.667-2.064,5.52
		c0.353,1.863,1.309,3.604,1.916,5.38c0.253,0.739,0.292,1.218,0.57,1.953c0.369,0.974,1.249,1.718,1.542,2.717
		c0.583,1.979,1.381,3.397,1.917,5.38c0.575,2.136,0.247,5.061,0.845,7.186c0.568,2.02,0.456,4.011,1.016,6.011
		c0.871,3.095,0.538,6.311,1.434,9.487c0.463,1.638,0.812,2.681,1.28,4.363c0.228,0.82-0.089,1.76,0.251,2.553
		c0.917,2.14,0.635,4.995,1.207,7.4c0.441,1.854,0.668,4.932,1.437,1.134c0.324-1.604,0.286-3.387,0.207-5.063
		c-0.221-4.651,2.093-3.108,3.399,0.048c0.25,0.604,0.037,1.332,0.221,1.971c0.673,2.334,1.494,4.844,1.898,7.247
		c0.394,2.334,1.056,4.415,1.751,6.672c0.417,1.353,0.513,1.325,0.71,2.412c0.447,2.464,0.553,5.67,1.475,8.084
		c0.359,0.94,0.563,1.769,0.729,2.761c0.47,2.802,0.347,5.602,1.139,8.335c0.981,3.389,0.723,7.523,1.623,10.877
		c0.412,1.53,0.662,3.332,1.204,4.803c0.695,1.895,1.873,3.245,4.491,2.779c2.27-0.402,2.657-1.648,3.709-3.752
		c1.547-3.093,2.826-6.354,4.172-9.561c1.014-2.413,1.045-2.408,1.426-3.924c0.841-3.347,4.393-6.267,7.603-7.094
		c1.947-0.502,2.772-3.302,3.536-5.038c0.473-1.075,1.24-2.019,2.09-2.817c1.648-1.543,3.273-2.89,5.432-3.574
		c1.6-0.506,3.354-0.401,5.036-0.266c1.233,0.1,1.557,0.175,2.757-0.145c1.925-0.514,2.762-0.255,4.266-0.924
		c4.937-2.197,9.657-1.455,14.921-2.303c0.896-0.145,1.617-0.874,2.51-1.065c1.712-0.369,1.711-0.354,2.891-0.503
		c3.582-0.453,3.586-0.796,12.819-0.792c2.022,0,3.378,1.132,4.616,2.835c0.639,0.879,1.179,1.887,1.438,2.956
		c0.305,1.257,0.34,2.587,0.205,3.873c-0.133,1.255-0.433,2.517-0.974,3.667c-0.798,1.693-3.134,2.463-3.623,4.272
		c-0.603,2.225,2.946,2.46,4.668,2.938c2.521,0.7,3.476,0.891,4.505,1.396c0.764,0.373,1.521,0.805,2.148,1.39
		c0.393,0.367,0.688,0.881,0.832,1.415c0.187,0.686,0.347,1.457,0.113,2.128c-1.195,3.428-5.377,3.271-8.564,4.101
		c-3.372,0.879-6.75,1.82-10.111,2.866c-1.227,0.381-2.605,0.038-3.824,0.434c-2.873,0.936-6.354,4.662-4.234,7.5
		c3.066,4.108,6.533-3.878,8.861-5.295c3.803-2.311,10.358-5.209,14.022-0.809c0.354,0.425,0.698,0.917,0.776,1.475
		c0.301,2.135,0.285,4.31-0.01,6.45c-0.224,1.629-0.541,2.961-0.808,4.591c-0.151,0.919,0.11,1.867,0.03,2.796
		c-0.072,0.859-1.928,9.345,1.242,6.954c1.763-1.329,1.362-2.521,1.676-4.694c0.24-1.652,0.476-3.245,0.673-4.934
		c0.159-1.354-0.347-2.748-0.099-4.075c0.244-1.307,0.955-3.899,2.266-4.364c0.956-0.339,2.16-0.653,3.059-0.161
		c2.57,1.402,3.143,2.978,3.963,5.901c0.523,1.873,0.453,3.898,0.307,5.85c-0.108,1.47-0.682,2.683-0.946,4.132
		c-0.181,0.989-1.274,2.193-0.681,3.021c0.229,0.319,0.758-0.24,1.096-0.442c1.917-1.145,3.165-1.729,4.908-0.038
		c0.277,0.271,0.621,0.558,0.691,0.955c0.256,1.457,0.385,2.971,0.234,4.454c-0.16,1.575-0.24,1.563-0.551,2.828
		c-0.279,1.14-0.977,1.71-3.299,8.22c-0.657,1.842-2.371,5.422-0.517,6.813c1.462,1.096,2.222-0.136,2.65-1.712
		c0.383-1.409,0.795-2.406,1.2-3.798c0.578-1.979-0.127-3.536,2.166-4.008c2.578-0.528,4.192,1.945,4.726,4.229
		c0.571,2.461,0.601,5.062,0.399,7.594c-0.141,1.762-0.813,3.528-1.121,5.307c-0.264,1.553,1.242,5.112-1.344,7.651
		c-1.228,1.207-1.701,2.734-2.09,4.113c-1.166,4.139-0.074,8.307-1.257,12.041c-1.123,3.539-3.536,6.615-4.95,10.057
		c-1.334,3.246-1.92,6.668-2.382,10.152c-0.092,0.705-0.571,1.318-0.71,2.021c-1.646,8.465-2.736,10.801-7.309,17.971
		c-1.242,1.949-2.295,4.098-2.838,6.354c-0.121,0.51-0.238,1.166,0.084,1.594c1.646,2.172,4.248-0.16,6.281,1.43
		c1.899,1.486,1.276,3.143,0.229,5.049c-0.798,1.451-3.503,2.396-3.401,4.051c0.08,1.309,1.799,0.307,2.855-0.045
		c0.419-0.141,0.97-0.314,1.338-0.047c1.375,0.996,0.811,2.975,0.719,4.566c-0.109,1.918-0.023,3.875,0.305,5.779
		c0.332,1.924,1.666,6.234,4.172,4.107c0.222-0.188,0.229-0.561,0.199-0.838c-0.258-2.477-2.123-6.393-0.035-8.207
		c0.412-0.359,1.129-0.256,1.662-0.09c2.697,0.855,4.426,3.104,5.352,5.715c0.402,1.133,0.556,2.162,0.759,3.34
		c0.463,2.686,0.821,5.467,0.433,8.176c-0.443,3.078-1.92,4.98-4.416,7.137c-0.59,0.508-1.234,0.965-1.94,1.281
		c-0.692,0.312-1.438,0.479-2.185,0.582c-2.172,0.297-3.174,0.383-5.056,1.432c-0.519,0.291-1.226,0.307-1.778,0.094
		c-1.793-0.682-3.429-1.416-4.608-2.916c-1.068-1.355-1.406-3.174-2.376-4.586c-0.504-0.734-1.221-1.299-1.961-1.764
		c-2.313-1.459-3.316-3.145-4.025-5.828c-0.352-1.328-1.115-2.295-1.941-3.42c-1.658-2.258-3.447-4.684-4.683-7.191
		c-0.209-0.426-0.129-0.947-0.308-1.385c-1.26-3.121-2.928-6.285-2.711-9.84c0.095-1.51-1.336-1.85-2.283-3.074
		c-1.903-2.459-4.605-4.396-5.748-7.277c-0.721-1.814-1.223-3.932-1.477-5.869c-0.826-6.316-0.646-12.725-1.121-19.066
		c-0.033-0.445-0.369-0.828-0.418-1.26c-0.422-3.846-1.685-7.666-4.046-10.842c-0.865-1.164-1.681-2.182-1.958-3.535
		c-0.678-3.299-1.104-6.002-3.312-8.629c-0.588-0.699-1.172-1.223-1.691-1.977c-3.218-4.676-7.935-8.33-11.74-12.559
		c-2.464-2.738-4.241-7.251-5.326-10.542c-0.2-0.609-0.262-1.288-0.101-1.896c0.443-1.667,1.789-2.701,2.578-4.218
		c0.564-1.085,0.087-2.606-1.195-2.083c-1.851,0.757-3.755,1.451-4.908,3.115c-1.088,1.571-1.433,1.636-1.286,2.821
		c0.225,1.815,1.684,2.419,2.554,3.981c1.059,1.899,4.848,5.66,1.86,7.202c-3.902,2.015-7.482-0.491-10.506-3.096
		c-1.374-1.184-2.48-2.676-3.374-4.253c-0.67-1.188-0.82-1.131-1.438-2.956c-0.45-1.326-0.672-2.706-0.565-4.087
		c0.109-1.428,0.51-3.042,0.001-4.397c-0.953-2.536-3.116-4.412-3.87-7.025c-0.694-2.409-1.287-5.29-1.921-7.712
		c-0.442-1.68-0.197-2.908-1.061-4.398c-0.348-0.603-1.649-1.733-2.957-2.655c-1.683-1.184-3.915-1.994-4.399,0.034
		c-0.299,1.254,0.461,2.52,0.954,3.739c0.822,2.034,1.715,4.076,2.252,6.203c0.334,1.321,1.239,2.45,1.598,3.764
		c0.429,1.569,0.486,3.21,1.065,4.726c0.843,2.204,1.356,3.901,1.843,6.2c0.109,0.51,1.23,3.959,1.934,5.274
		c0.558,1.038,0.567,1.691,1.053,2.73c0.898,1.916,2.232,3.604,3.532,5.272c0.734,0.942,1.622,1.77,2.558,2.522
		c1.653,1.33,3.526,2.29,5.625,2.737c2.784,0.592,4.054,0.648,6.006,2.646c1.128,1.15,2.065,2.088,3.091,3.334
		c1.324,1.605,2.792,3.168,4.157,4.736c1.658,1.908,3.787,2.816,5.326,4.793c0.926,1.188,1.73,2.367,1.952,3.861
		c0.414,2.777,0.829,5.627,0.444,8.41c-0.531,3.836-1.855,7.861-0.326,11.525c1.507,3.609,3.564,7.004,5.106,10.576
		c0.797,1.848,1.957,3.512,2.387,5.473c0.615,2.797,0.272,5.736,0.57,8.598c0.034,0.324,0.361,0.58,0.398,0.912
		c0.32,2.895-0.008,5.883,0.692,8.711c0.608,2.455-0.173,4.807-0.204,7.182c-0.023,1.721,1.082,3.363,1.992,4.828
		c2.4,3.869,4.986,7.705,7.634,11.41c0.88,1.234,1.755,2.594,2.649,3.826c0.506,0.697,1.764,2.15,2.719,3.553
		c1.77,2.604,3.65,4.586,5.906,6.77c0.382,0.367,0.576,0.918,0.969,1.301c3.277,3.197,5.852,6.352,8.324,10.162
		c0.684,1.051,1.818,4.279,1.886,4.797c0.323,2.436,0.595,4.914,0.39,7.361c-0.096,1.115-0.697,2.139-1.246,3.121
		c-0.834,1.484-4.059,3.803-2.9,5.178c1.275,1.516,3.568,0.428,4.797-1.033c1.426-1.695,1.847-3.959,2.09-6.162
		c0.275-2.512-0.537-5.062-0.283-7.566c0.344-3.352,4.321-4.686,6.7-2.545c0.935,0.84,0.847,1.994,1.265,3.176
		c0.328,0.924,1.131,1.654,1.42,2.605c0.291,0.961,0.053,2.029,0.274,3.018c0.24,1.066,0.627,2.104,1.097,3.092
		c0.648,1.363,0.426,2.49,0.905,3.918c0.987,2.92,1.813,6.523,1.203,9.533c-0.328,1.619-0.888,3.117-1.877,4.438
		c-1.757,2.348-3.524,4.713-5.312,6.998c-0.57,0.73-1.088,1.605-1.172,2.533c-0.246,2.75,0.148,5.604-0.85,8.209
		c-0.835,2.176-2.291,3.904-2.365,6.234c-0.07,2.211,1.237,4.234,1.746,6.357c0.075,0.312,0.355,0.578,0.398,0.91
		c0.396,3.135,1.353,6.453,0.625,9.682c-0.399,1.777-0.844,3.264-1.703,4.85c-2.598,4.795-3.065,5.502-4.627,7.986
		c-2.939,4.674-6.322,9.676-8.672,14.684c-0.363,0.771-0.57,1.223-0.934,2.01c-2.593,5.641-5.162,11.111-9.189,15.877
		c-0.771,0.91-1.334,1.85-2.01,2.848c-0.729,1.08-1.57,2.156-1.859,3.42c-0.457,2.012-0.416,3.965-1.088,5.891
		c-1.312,3.75-4.312,7.068-5.375,10.895c-0.219,0.791,0.099,1.662-0.103,2.455c-0.588,2.316-0.98,3.859-1.188,6.242
		c-0.086,0.98-0.699,1.863-0.784,2.842c-0.157,1.822-0.422,3.146-0.79,4.938c-0.283,1.389-0.322,1.377-0.36,2.002
		c-0.112,1.896-0.213,3.832,0.298,5.664c0.65,2.322,2.177,4.221,3.252,6.357c0.42,0.84,0.922,0.92,0.607,9.334
		c-0.115,3.104-3.832,5.65-5.031,8.545c-0.912,2.203-1.046,3.18,1.339,3.93c0.812,0.254,1.71-0.133,2.565-0.02
		c1.188,0.154,2.143,0.783,2.811,1.764c2.416,3.555-3.293,6.514-5.61,8.611c-0.626,0.566-1.581,1.588-1.384,2.486
		c0.089,0.408,0.375,0.781,0.698,1.07c0.112,0.104,0.332,0.078,0.453-0.012c0.799-0.58,1.508-1.195,2.199-1.73
		c1.635-1.271,3.168-2.1,5.529-0.986c2.209,1.041,3.642,3.256,5.394,4.963c2.086,2.037,4.927,3.895,6.644,6.322
		c0.449,0.637,0.767,1.387,0.93,2.166c0.218,1.037,0.381,2.137,0.168,3.176c-0.301,1.459-1.195,2.74-1.646,4.166
		c-0.83,2.625-1.336,6.174-3.963,7.357C214.904,803.346,213.717,803.219,212.637,803.139L212.637,803.139z M317.532,644.958
		c-0.656-0.012-1.422-0.16-2.146-0.27c-1.207-0.189-2.697-0.631-2.344-1.943c0.439-1.617,1.734-2.248,2.83-2.609
		c1.092-0.361,2.361-0.184,3.971-0.021c0.73,0.074,1.514,0.15,2.209-0.115c1.582-0.605,5.697-5.193,5.717-1.061
		c0.004,0.736-0.244,1.479-0.588,2.131c-0.527,1.004-1.17,1.801-2.148,2.387c-1.264,0.756-1.324,0.721-3.781,1.25
		C320.032,644.965,318.766,644.981,317.532,644.958L317.532,644.958z M91.802,346.942c0.618-0.632,1.41-1.16,1.705-1.562
		c0.516-0.703,2.756-3.295,3.594-4.609c2.482-3.891,4.712-7.886,7.107-11.838c0.619-1.021,1.612-2.419,2.526-3.409
		c1.175-1.272,2.761-1.831,3.738,1.002c0.398,1.156-1.006,2.591-1.692,3.53c-3.104,4.248-4.394,5.665-8.475,11.128
		c-1.759,2.357-3.531,5.873-6.205,7.267C92.623,349.221,89.011,349.789,91.802,346.942L91.802,346.942z M138.059,299.907
		c-1.691-0.302-2.18-0.653-2.524-2.304c-0.312-1.498,0.615-3.148,1.615-4.244c0.684-0.75,1.628-1.621,2.722-1.314
		c1.083,0.305,1.517,1.368,1.812,2.132c0.648,1.68-0.042,3.644-1.903,4.986C139.27,299.532,138.672,300.017,138.059,299.907
		L138.059,299.907z M62.638,749.475c-0.666-0.004-1.184-0.629-1.814-0.791c-3.021-0.779-5.949-2.658-8.831-3.85
		c-1.261-0.52-1.386-0.268-2.205-0.875c-1.55-1.145-0.872-3.527-0.025-4.896c2.679-4.328,1.651-8.311,0.722-13.074
		c-0.371-1.896,0.471-3.602,0.523-5.545c0.076-2.725-0.522-5.42-0.545-8.135c-0.03-3.379,0.508-6.736,1.101-10.088
		c1.266-7.148,4.967-12.688,7.612-19.293c1.271-3.17,2.717-6.34,4.167-9.432c1.776-3.785,2.694-7.893,3.568-11.965
		c0.293-1.375,1.003-2.627,1.686-3.846c3.467-6.186,3.826-16.074,5.307-22.764c0.964-4.348,4.647-7.293,5.208-11.818
		c0.441-3.564,0.595-6.883,1.082-10.438c0.096-0.693-0.129-1.412,0.005-2.098c0.292-1.477,1.638-1.662,2.639-0.629
		c1.202,1.24,1.104,1.324,2.253,2.701c0.751,0.9,2.136,2.961,3.57,4.059c1.434,1.096,3.622,1.344,3.472-1.432
		c-0.138-2.561-2.275-4.818-3.522-7.068c-2.31-4.168-4.331-8.516-6.524-12.74c-0.833-1.605-0.413-1.791-1.089-2.975
		c-7.263-12.695-12.573-31.865-11.184-46.209c0.359-3.705,2.613-7.158,4.817-10.154c0.84-1.141,2.872-2.211,2.967-3.666
		c0.159-2.406,0.023-2.436-0.322-3.914c-0.413-1.76-1.257-3.4-1.673-5.16c-0.728-3.086-2.447-7.281-0.862-10.158
		c1.63-2.957,3.111-4.273,3.773-7.639c0.272-1.387,1.629-3.051,3.047-1.701c1.779,1.695,2.069,4.201,3.146,6.389
		c4.452,9.035,9.534,18.275,10.959,28.693c0.501,3.656-0.466,7.436,0.35,11.059c1.032,4.574,1.153,9.148,2.352,13.639
		c0.635,2.375,2.652,6.188-0.715,6.986c-1.172,0.277-1.26,0.062-1.583-0.162c-3.426-2.389-4.782-7.109-6.889-10.527
		c-0.663-1.078-1.012-2.008-1.554-3.16c-0.515-1.094-1.166-1.844-0.975-3.016c0.441-2.711,1.493-5.703,0.025-8.152
		c-0.941-1.57-2.931-2.785-3.28-0.504c-0.381,2.486,0.962,5.066,0.516,7.553c-0.368,2.041-2.524,2.229-4.415,1.668
		c-1.069-0.316-1.584-1.705-2.568-1.848c-0.506-0.074-0.942,0.555-0.902,1.061c0.137,1.676,0.646,3.357,1.536,4.783
		c2.32,3.719,6.274,6.271,8.563,10.021c1.222,2.002,2.086,4.297,3.146,6.389c0.717,1.41,0.415,1.557,1.096,2.635
		c1.032,1.631,2.003,4.49,4.297,3.68c0.869-0.307,1.838-1.936,2.2-2.076c2.841-1.096,4.355-0.113,6.094,2.094
		c2.274,2.887,2.133,3.035,2.492,4.123c1.299,3.949,1.869,8.09,2.969,12.09c0.839,3.055,1.307,4.285,1.916,5.379
		c0.604,1.086,0.923,2.035,1.334,3.195c0.428,1.199,0.889,1.889,3.104,5.785c0.924,1.627,1.96,3.207,3.183,4.625
		c3.756,4.359,7.377,8.9,10.156,13.914c1.018,1.836,0.988,1.852,1.445,3.07c0.224,0.602,0.435,1.381,0.089,1.92
		c-0.676,1.059-1.754,0.715-2.835,0.186c-3.739-1.832-8.369-3.582-11.478-6.451c-1.847-1.703-2.188-4.525-3.625-6.594
		c-1.335-1.924-2.875-3.697-4.708-1.502c-1.079,1.293-0.675,3.381-0.116,4.893c1.569,4.246,5.259,6.545,9.25,7.98
		c4.162,1.494,9.926,2.029,12.805,5.553c0.866,1.059,0.465,2.9-1.028,3.271c-1.29,0.318-2.69-0.064-3.948,0.324
		c-1.299,0.4-2.165,0.982-1.707,2.354c0.542,1.621,1.319,2.102,2.927,1.549c2.921-1.008,5.633-3.598,8.823-3.615
		c0.295-0.002,0.63,0.203,0.76,0.475c0.927,1.926-0.736,4.82-2.099,6.186c-11.071,11.084-24.059,22.229-36.651,31.869
		c-8.822,6.754-17.358,14.107-19.457,25.807c-1.232,6.879-0.328,13.525-0.539,20.412c-0.095,3.064-0.396,6.16-2.242,8.912
		c-0.852,1.271-2.197,2.084-2.812,3.482c-0.708,1.607,0.116,3.545-0.689,5.074C68.912,747.954,65.541,749.485,62.638,749.475
		L62.638,749.475z M296.648,837.194c-0.817,0.031-1.651,0.107-2.452-0.047c-4.384-0.848-8.133-4.379-8.932-8.787
		c-0.475-2.625,1.438-4.578,2.436-6.93c0.321-0.758,0.573-1.561,0.691-2.367c0.115-0.797,0.146-1.625-0.012-2.414
		c-0.604-3.027-1.937-5.035-1.717-8.225c0.104-1.512-0.117-3.035-0.006-4.549c0.188-2.555,0.229-5.076,0.648-7.613
		c0.729-4.416,4.441-8.199,6.701-12.004c1.447-2.436,1.89-5.012,2.636-7.729c0.608-2.211,0.911-2.127,1.01-2.969
		c0.498-4.223,1.825-8.33,1.903-12.578c0.061-3.342-0.646-5.076-0.521-7.67c0.082-1.695,1.301-4.445,2.319-5.777
		c0.423-0.555,0.474-0.607,1.114-0.746c2.308-0.51,5.285-0.992,7.611-2.318c1.395-0.795,2.695-1.783,3.244-3.223
		c1.002-2.623-0.68-3.551-2.77-3.934c-2.088-0.385-4.877-0.031-6.014-0.957c-1.69-1.377-1.344-4.184-1.25-6.242
		c0.123-2.717,0.703-3.281,0.697-4.469c-0.01-2.645-0.604-5.27-0.531-7.902c0.151-5.746,0.207-12.273,2.336-17.615
		c1.305-3.275,2.951-6.16,3.225-9.615c0.25-3.186-3.312-6.406-0.312-9.01c0.5-0.436,1.357-0.336,1.836-0.809
		c1.592-1.576,1.82-3,2.232-5.189c0.373-1.982,1.041-3.639,1.102-5.656c0.057-1.967-0.037-3.945-0.312-5.895
		c-0.23-1.645-0.68-3.258-1.186-4.836c-0.418-1.297-1.146-2.127-1.594-3.648c-0.936-3.182-2.855-6.434-4.23-9.455
		c-0.184-0.402-0.248-0.924-0.068-1.314c0.395-0.855,1.439-1.285,1.641-2.068c0.93-3.639-5.502-6.885-7.533-9.07
		c-0.881-0.947-1.846-1.9-2.319-3.086c-1.642-4.098-1.472-8.904-1.166-13.268c0.103-1.469,0.508-2.945,1.174-4.26
		c1.119-2.203,2.402-4.289,3.746-6.377c0.214-0.334,0.181-0.805,0.433-1.096c1.763-2.047,3.799-3.676,5.02-6.072
		c0.721-1.41,0.498-1.527,0.547-2.943c0.064-2.025-0.459-4.158,0.5-5.975c0.941-1.783,2.951-2.951,3.832-4.75
		c0.535-1.098,0.939-2.268,1.219-3.445c0.297-1.268,0.027-1.344,0.359-2.002c0.943-1.875,1.328-2.859,1.369-4.969
		c0.104-5.156,0.658-10.924-0.141-16.133c-0.547-3.564-1.777-6.869-4.371-9.541c-1.107-1.141-2.35-2.238-2.986-3.75
		c-0.744-1.771-1.262-2.943-1.383-4.125c-0.352-3.381,0.055-6.283-0.645-9.303c-0.595-2.57-2.195-5.812-4.384-1.979
		c-0.363,0.641-0.567,1.395-0.586,2.129c-0.073,2.865,0.386,5.736,0.337,8.613c-0.037,2.152-0.163,4.322-0.594,6.445
		c-0.51,2.512-3.319,4.611-2.889,7.113c0.248,1.451-0.019,1.582,1.4,4.475c1.852,3.775,3.189,6.865,3.025,10.953
		c-0.078,1.973-0.418,3.943-0.855,5.877c-0.199,0.883-0.869,1.617-1.033,2.504c-0.568,3.035-2.629,5.977-3.734,8.826
		c-0.52,1.34-0.76,2.533-1.191,3.91c-0.729,2.32-2.221,10.246-6.206,7.93c-1.538-0.893-2.45-2.455-2.927-4.184
		c-0.939-3.422-1.637-6.854-2.639-10.24c-0.547-1.848-1.069-3.443-1.678-5.273c-0.369-1.113-0.779-0.914-1.279-2.148
		c-0.979-2.426-2.148-4.877-3.409-7.168c-1.623-2.949-3.604-5.916-5.138-8.941c-0.479-0.947-0.653-2.023-1.09-2.975
		c-0.896-1.969-1.703-2.588-1.293-4.631c0.348-1.729,0.68-1.703,1.418-2.314c1.471-1.219,3.694-2.012,4.444-2.604
		c1.416-1.113,2.209-2.58,2.632-4.279c0.227-0.91,0.069-5.121,0.055-5.6c-0.137-4.596-0.115-9.225-0.61-13.811
		c-0.124-1.148-1.662-1.799-2.021-2.926c-0.318-0.996,0.238-2.172-0.166-3.139c-1.147-2.75-1.01-3.576,1.4-5.287
		c1.305-0.926,3.054-1.408,4.119-2.607c1.718-1.934,1.244-2.268,2.004-3.357c0.357-0.518,1.09-0.656,1.49-1.141
		c0.725-0.877,1.344-1.859,1.83-2.896c1.238-2.635,2.053-5.762,2.826-8.557c0.494-1.793,1.799-3.549,1.463-5.406
		c-0.396-2.201-1.549-4.23-1.854-6.434c-0.509-3.654,0.256-7.607-0.938-11.145c-0.662-1.967-1.393-3.746-2.729-5.338
		c-0.812-0.965-1.293-2.154-2.032-3.156c-0.812-1.105-1.643-2.273-2.273-3.549c-0.492-0.992-1.043-1.984-1.223-3.033
		c-0.208-1.227-0.252-1.854,0.699-2.66c0.338-0.287,0.918-0.27,1.337-0.094c1.731,0.727,3.213,1.795,5.019,2.301
		c0.77,0.215,1.373,0.879,2.156,1.053c3.187,0.709,6.338,1.746,9.565,2.295c1.965,0.334,2.026-0.01,2.933,0.312
		c1.43,0.506,2.383,0.76,3.795,1.199c9.564,2.979,16.885,9.566,23.867,16.492c2.451,2.432,4.773,5.016,6.971,7.713
		c0.49,0.6,0.656,0.447,5.045,5.646c8.975,10.631,16.535,20.771,21.971,31.924c4.795,9.844,7.875,20.529,8.582,33.238
		c1.045,18.777-8.248,41.08-16.375,57.783c-4.156,8.547-8.029,17.578-10.23,26.873c-0.531,2.242-0.711,3.408-1.104,5.656
		c-1.387,7.984-1.947,13.75-5.414,21.158c-0.859,1.838-1.27,3.752-1.326,5.785c-0.146,5.098-1.748,5.949-3.525,10.562
		c-0.385,1.002,0.025,1.078-0.213,2.578c-0.154,0.957-0.889,1.77-1.021,2.734c-0.58,4.172-1.062,8.375-2.631,12.291
		c-0.613,1.535-0.738,1.604-2.08,2.559c-1.639,1.166-3.404,0.463-3.904-1.332c-0.65-2.312-0.188-4.666-0.953-6.947
		c-0.223-0.668-0.82-1.156-1.027-1.812c-0.75-2.379,0.41-4.031,0.715-6.369c0.312-2.393-0.254-4.814-0.381-7.219
		c-0.043-0.801,0.021-1.611-0.127-2.398c-0.242-1.289-1.176-2.432-2.223-1.225c-0.729,0.838-0.598,2.15-0.832,3.248
		c-0.234,1.1-0.566,2.191-0.629,3.301c-0.303,5.381-2.232,10.396-1.732,15.801c0.201,2.188,1.336,4.08,1.959,6.191
		c0.264,0.896,0.984,1.604,1.299,2.498c0.334,0.955,0.197,2.066,0.625,2.998c2.35,5.16,1.572,5.426,5.969,1.584
		c1.502-1.309,3.385-2.123,4.312,1.023c0.498,1.688,0.375,3.512,0.277,5.268c-0.143,2.602-0.045,2.676-0.709,4.236
		c-1.736,4.092-5.238,7.004-7.355,10.883c-0.652,1.195-0.234,1.336-0.561,2.596c-0.744,2.848-1.598,5.721-2.113,8.623
		c-0.162,0.926-0.846,1.695-1.027,2.621c-0.574,2.936-1.623,6.068-2.326,8.984c-2.047,8.506-5.529,17.188-6.1,25.861
		c-0.607,9.254-2.301,11.816-3.922,15.562c-0.539,1.25-1.072,2.631-1.554,4.434c-1.696,6.357,1.177,3.91-3.282,10.197
		c-2.445,3.445-3.287,6.568-0.947,11.332c1.258,2.561,3.688,4.463,4.807,7.092c1.438,3.391-0.031,4.621-3.373,5.264
		C300.478,837.182,298.545,837.118,296.648,837.194L296.648,837.194z M271.893,681.766c-2.02,0.041-3.393-0.461-4.803-1.938
		c-0.834-0.877-1.168-1.164-1.295-1.811c-0.801-4.043-0.668-8.096-1.227-12.182c-0.395-2.893-0.628-5.807-1.041-8.689
		c-0.104-0.73-0.354-0.676-0.439-1.703c-0.379-4.479-0.83-8.9-1.754-13.34c-0.693-3.344-1.678-6.734-1.117-10.123
		c0.469-2.82,4.105-4.068,6.527-5.406c1.557-0.859,1.409-1.129,2.483-1.529c2.114-0.787,3.729-1.994,5.937-0.896
		c0.556,0.277,1.105,0.625,1.549,1.072c2.633,2.664,3.869,7.217,7.063,9.227c1.498,0.941,2.761,0.838,3.109-0.957
		c0.36-1.865-0.992-3.154-2.087-4.613c-1.557-2.076-4.197-5.184-3.008-7.945c0.302-0.697,0.832-1.305,1.449-1.732
		c0.782-0.545,1.854-0.58,2.658-1.107c0.96-0.631,1.57-1.715,2.546-2.338c0.335-0.215,0.841-0.256,1.198-0.062
		c0.865,0.461,1.805,1.072,2.008,2.039c0.902,4.238,0.456,4.316,0.926,6.48c0.601,2.77,0.988,5.451,1.6,8.197
		c0.271,1.225,1.271,2.199,1.578,3.414c0.363,1.436,0.537,2.725,0.687,4.162c0.257,2.479,0.697,4.994,0.396,7.479
		c-0.254,2.068-1.197,4.016-2.021,5.938c-3.521,8.236-7.821,16.504-13.796,23.213C278.274,679.692,276.018,681.682,271.893,681.766
		L271.893,681.766z M277.881,649.381c-0.315,0-3.037-0.852-4.062-1.371c-2.017-1.027-2.739-2.645-3.096-4.771
		c-0.45-2.688-0.938-9.477,2.422-10.238c2.067-0.467,3.922,1.59,5.306,3.092c2.285,2.477,5.262,5.672,4.856,9.166
		c-0.274,2.365-1.354,2.617-3.46,3.6C279.234,649.145,278.561,649.379,277.881,649.381L277.881,649.381z M274.54,659.002
		c-1.508-0.047-3.01-1.27-1.938-2.742c1.185-1.631,4.284-2.359,5.358-0.107c0.145,0.301-0.105,0.719-0.371,0.939
		C276.672,657.866,275.739,659.042,274.54,659.002L274.54,659.002z M291.815,610.629c-2.432-0.049-4.122-2.598-2.518-4.811
		c0.843-1.162,2.379-1.621,3.443-2.598c0.84-0.768,1.559-1.674,2.23-2.602c4.244-5.842,7.617-11.574,8.539-18.967
		c0.113-0.906,0.705-1.707,0.795-2.609c0.143-1.436-0.271-2.885-0.11-4.309c0.462-4.061-0.159-8.605-1.132-12.617
		c-0.68-2.807-0.891-5.744-0.804-8.621c0.092-3.098,3.383-6.799,5.968-3.836c1.795,2.061,0.607,5.131,1.234,7.771
		c0.66,2.758,1.4,2.553,1.631,4.346c0.57,4.471,0.969,9.014,0.713,13.525c-0.166,2.914-1.381,5.57-2.361,8.287
		c-0.844,2.338-2.789,4.402-3.373,6.826c-0.898,3.732-1.746,7.914-3.604,11.268c-0.151,0.275-0.021,0.664-0.184,0.943
		C300.096,606.397,296.392,610.721,291.815,610.629L291.815,610.629z M275.235,619.084c-3.436-0.449-6.921,0.775-10.262,0.014
		c-2.454-0.557-3.1-4.062-3.998-6.143c-0.669-1.553-0.396-3.248-0.954-4.848c-1.533-4.398-2.554-8.943-4.2-13.307
		c-1.054-2.789-2-5.523-3.232-8.225c-1.111-2.436-2.137-4.906-3.416-7.285c-2.953-5.488-8.432-9.441-10.492-15.422
		c-0.204-0.594-0.276-1.271-0.098-1.861c0.856-2.828,4.119-3.264,6.666-2.975c3.193,0.363,5.772,2.617,7.569,5.373
		c1.907,2.922,2.826,6.26,3.656,9.604c0.817,3.299,1.208,6.508,2.032,9.805c0.621,2.488,2.238,4.938,4.218,6.564
		c0.762,0.625,1.44,0.773,1.919-0.1c1.796-3.293,0.389-7.787-0.788-11.18c-0.782-2.262-2.306-4.33-3.599-6.34
		c-1.113-1.73-2.104-3.564-3.196-5.312c-0.379-0.609-0.237-1.439-0.575-2.07c-1.818-3.391-3.043-7.223-1.738-10.869
		c0.844-2.357,1.268-2.195,1.754-2.578c0.992-0.777,2.033-1.529,3.19-2.057c1.992-0.906,4.47-1.271,5.36,1.059
		c0.236,0.613,0.068,1.354,0.339,1.965c1.026,2.34,1.265,2.244,1.444,3.072c0.223,1.027,0.108,2.117,0.397,3.129
		c0.675,2.371,1.295,4.654,2.002,7.006c1.011,3.363,2.421,6.324,3.771,9.6c1.621,3.934,3.041,7.936,4.134,12.025
		c0.323,1.211,1.407,2.23,1.556,2.949c0.499,2.443,1.327,4.57,2.229,6.881c0.777,1.99,1.076,3.15,1.672,5.158
		c1.383,4.668,2.476,11.16-1.237,14.783c-0.866,0.844-2.147,1.107-3.334,1.377C277.114,619.084,276.159,619.206,275.235,619.084
		L275.235,619.084z M246.088,617.004c-2.289-0.16-3.256-0.936-2.916-3.135c0.259-1.693,1.961-2.635,2.812-4.113
		c1.012-1.752,1.191-3.91,2.743-5.264c1.063-0.928,3.071-0.91,4.081-0.018c2.412,2.139,4.729,4.959,3.347,8.186
		c-0.683,1.592-0.981,1.416-1.229,1.662c-0.62,0.617-1.334,1.164-2.123,1.559C250.633,616.967,248.493,617.174,246.088,617.004
		L246.088,617.004z M244.407,627.124c-1.595-0.07-3.136-0.863-4.037-2.225c-0.517-0.779-0.527-1.652-0.367-2.582
		c0.203-1.193,1.012-2.016,2.067-2.545c2.198-1.104,5.896-1.473,8.14-0.465c2.533,1.139,2.959,1.611,2.695,4.465
		C252.556,627.579,247.292,627.252,244.407,627.124L244.407,627.124z M392.815,502.45c-5.264-1.055-9.203-6.461-13.67-9.121
		c-5.312-3.166-11.604-5.391-16.496-9.195c-0.838-0.65-1.391-1.369-1.764-2.031c-0.773-1.369-1.564-2.734-2.088-4.203
		c-0.756-2.131-0.738-2.137-0.846-2.754c-0.236-1.389-0.521-2.844-0.223-4.223c0.387-1.775,1.508-2.805,3.264-3.133
		c2.658-0.496,5.422-0.236,8.139-0.203c4.529,0.061,9.119,0.23,13.43,1.631c2.457,0.799,4.328,1.959,5.955,3.932
		c1.885,2.277,3.084,5.512,5.646,7.061c2.26,1.365,4.963,1.912,7.229,3.291c2.609,1.592,4.053,5.266,3.971,8.27
		c-0.047,1.66-0.621,3.256-1.145,4.842c-0.287,0.867-0.689,1.721-1.285,2.422c-1.174,1.387-2.205,2.549-3.943,3.018
		C396.997,502.592,394.836,502.854,392.815,502.45L392.815,502.45z M392.356,493.727c-0.705,0.102-1.324-0.516-1.986-0.754
		c-1.984-0.719-4.012-1.326-5.594-2.775c-2.156-1.979-3.926-4.217-6.459-5.713c-1.703-1.006-3.055-1.344-5.008-2.068
		c-2.68-0.994-6.092-1.295-3.484-4.375c0.398-0.471,0.764-1.016,0.908-1.621c0.143-0.602,0.027-1.234-0.098-1.828
		c-0.098-0.461-0.602-0.758-0.219-1.049c0.994-0.754,2.549-0.359,3.842,0.062c1.664,0.543,3.445,1.543,3.945,3.002
		c0.441,1.281,0.02,1.996,1.102,2.754c1.412,0.98,3.33,1.152,4.637,2.285c0.934,0.812,0.547,2.252,1.119,3.346
		c0.277,0.533,0.797,0.918,1.291,1.271c0.549,0.396,4.381,2.092,6.475,3.895C394.454,491.561,395.135,493.331,392.356,493.727
		L392.356,493.727z M356.329,487.231c-2.727-0.006-3.73-2.223-5.082-4.387c-1.25-2-3.082-3.625-4.15-5.729
		c-0.412-0.809-0.482-1.879-0.143-2.709c1.486-3.629,6.705-4.268,8.477-0.682c1.027,2.082,1.15,4.186,2.412,6.148
		c0.691,1.076,0.318,1.244,1.104,2.996C360.389,486.106,359.627,487.235,356.329,487.231L356.329,487.231z M200.709,490.655
		c-2.778-0.68-3.997-3.705-5.406-6.119c-0.721-1.234-1.235-2.613-1.495-4.002c-0.333-1.787-0.248-3.461,0.132-5.102
		c0.172-0.742,0.219-1.691,0.904-2.242c1.491-1.195,2.823-0.545,3.785,1.002c1.541,2.482,3.43,4.941,4.792,7.525
		c1.105,2.096,0.744,5.734-0.166,7.902C202.792,490.731,201.876,490.938,200.709,490.655L200.709,490.655z M226.056,555.555
		c-1.11-0.178-1.187-0.166-2.315-1.01c-4.373-3.264-8.462-7.43-11.287-12.162c-1.433-2.395-3.689-4.553-4.566-7.199
		c-0.524-1.58,0.506-2.906-0.551-4.262c-1.116-1.43-2.676-2.275-3.153-4.055c-0.166-0.619-0.216-1.279-0.101-1.896
		c0.252-1.34,1.024-2.115,1.017-2.854c-0.021-1.855-1.254-3.318-1.554-5.131c-0.199-1.205-0.603-2.5-0.191-3.639
		c1.139-3.166,3.734-2.039,5.686-0.324c1.299,1.141,1.703,1.857,1.887,2.373c0.382,1.076,0.429,2.271,0.875,3.336
		c0.363,0.865,0.775,0.707,1.041,2.045c0.615,3.088,0.705,6.359,1.658,9.357c0.867,2.721,1.987,5.447,3.697,7.746
		c0.959,1.291,0.92,1.322,1.622,2.016c3.13,3.088,7.354,5.086,9.904,8.689c1.69,2.387,1.673,5.559-1.449,6.781
		C227.579,555.641,226.779,555.67,226.056,555.555L226.056,555.555z M260.306,543.836c-0.753-0.221-0.94-0.328-1.056-0.98
		c-0.74-4.25-1.524-8.418-2.418-12.701c-0.521-2.502-2.062-4.527-3.158-6.83c-1.271-2.67-2.215-5.639-3.926-8.074
		c-1.525-2.174-3.901-3.885-4.769-6.396c-0.604-1.75,0.196-3.594,0.53-5.426c0.416-2.281,0.25-4.803,2.541-5.779
		c0.975-0.414,2.009-0.32,2.979,0.1c0.788,0.34,1.373,1.033,2.021,1.607c0.225,0.199,0.414,0.457,0.562,0.729
		c1.688,3.086,2.624,6.385,3.777,9.713c0.333,0.963,1.033,1.525,1.658,2.256c2.228,2.604,4.123,5.889,5.009,9.17
		c0.513,1.906,0.616,3.74,0.998,5.662c0.604,3.053,0.942,6.307,0.376,9.344c-0.48,2.574-1.128,5.201-2.922,7.188
		C261.979,544.004,261.065,544.061,260.306,543.836L260.306,543.836z M268.543,529.758c-0.709-0.457-1.231-1.09-1.619-1.828
		c-1.157-2.217-1.08-5.389-1.049-7.617c0.008-0.531,0.269-1.092,0.646-1.455c1.762-1.701,3.671-1.25,4.227,0.965
		c0.594,2.375,1.015,4.816,0.848,7.221c-0.082,1.174-0.633,1.936-1.648,2.572C269.542,529.868,268.935,530.012,268.543,529.758
		L268.543,529.758z M269.842,543.334c-2.9-0.705-2.822-4.961-2.686-7.578c0.079-1.527,0.325-3.373,1.952-3.648
		c2.163-0.367,3.558,1.762,4.123,4.146c0.44,1.854,0.382,3.859-0.202,4.965C272.227,542.739,271.445,543.725,269.842,543.334
		L269.842,543.334z M272.189,508.225c-0.272-0.037-0.513-0.238-0.688-0.441c-1.596-1.836-2.256-2.625-0.605-4.865
		c1.079-1.463,1.893-3.125,2.557-4.812c0.528-1.34,1.109-2.684,0.834-4.09c-0.162-0.824-0.897-1.465-1.054-2.275
		c-0.271-1.432-0.344-2.9-0.229-4.338c0.072-0.869,0.735-1.621,0.803-2.492c0.453-5.938-0.172-12.104-0.949-17.99
		c-0.295-2.24-1.465-4.213-1.971-6.428c-0.119-0.523-0.324-1.012-0.545-1.486c-0.262-0.561-0.822-1.209-1.283-1.926
		c-0.771-1.197-1.612-2.727-0.619-3.629c0.354-0.322,0.979-0.227,1.452-0.102c0.866,0.23,1.597,0.883,2.33,1.488
		c2.62,2.166,4.452,5.65,5.579,8.521c0.892,2.268,1.416,3.811,1.959,6.193c0.703,3.078,1.307,6.037,2.115,9.102
		c0.719,2.744,1.194,2.598,1.352,3.545c0.788,4.797,1.225,9.707,1,14.559c-0.074,1.605-0.924,3.098-1.637,4.541
		c-1.328,2.689-3.879,4.355-6.737,5.383c-1.011,0.361-1.408,1.125-2.144,1.396C273.227,508.252,272.686,508.295,272.189,508.225
		L272.189,508.225z M260.418,501.733c-2.148-0.15-2.254-1.785-3.172-3.553c-0.271-0.518-0.865-0.818-1.121-1.34
		c-1.658-3.371-5.439-4.67-4.312-8.787c0.627-2.287,2.184-4.105,2.577-6.434c0.299-1.77-0.263-3.59-0.052-5.361
		c0.293-2.434,0.617-4.67,1.146-7.059c0.542-2.457,3.265-4.035,3.738-6.494c0.337-1.734-1.067-3.029-1.761-4.654
		c-0.358-0.842-0.571-2.09-0.754-3.277c-0.185-1.186-0.44-2.59,0.342-3.195c1.103-0.852,2.117-0.555,2.785,0.6
		c1.051,1.818,1.193,3.992,2.174,5.832c0.91,1.719,2.445,2.793,3.041,4.621c0.506,1.557,0.402,3.193,0.949,4.732
		c0.594,1.674,1.275,3.326,2.125,4.902c0.89,1.652,1.15,1.533,1.278,2.146c0.953,4.572,0.974,9.305,1.087,13.973
		c0.043,1.85-0.564,2.945-0.918,4.713c-0.705,3.529-3.176,6.879-6.361,8.301C262.348,501.784,261.35,501.797,260.418,501.733
		L260.418,501.733z M344.92,489.815c-2.467-0.488-2.471-0.615-3.338-1.154c-1.279-0.793-2.863-1.871-4.143-3.139
		c-1.871-1.852-3.094-4.105-1.764-6.463c1.375-2.441,2.625-2.494,5.438-1.941c3.666,0.719,7.795,3.84,8.717,7.633
		c0.676,2.785,0.908,3.723-1.764,4.828C347.088,489.983,345.948,490.018,344.92,489.815L344.92,489.815z M219.84,778.272
		c-2.588-0.176-4.324-1.15-4.594-3.945c-0.584-6.062-0.365-11.842,0.34-17.896c0.129-1.123-0.16-2.283,0.055-3.385
		c0.441-2.281,0.867-4.482,1.512-6.727c1.498-5.223-1.178-10.855-3.152-15.541c-0.91-2.16-1.799-4.201-2.67-6.391
		c-1.016-2.562-2.44-5.061-2.975-7.773c-0.538-2.736-1.288-5.982-0.456-8.641c1.365-4.359,3.963-8.148,7.634-10.945
		c2.262-1.723,5.223-2.443,5.729,1.145c0.447,3.186-0.84,6.484,0.27,9.549c0.709,1.959,2.395,3.93,4.659,8.734
		c0.623,1.32,0.574,2.766,0.338,4.215c-0.524,3.236-1.073,3.156-1.204,5.896c-0.146,3.082,3.016,4.41,4.785,6.709
		c1.834,2.379,1.299,6.256,1.301,9.18c0,1.531,0.096,1.58-0.888,5.295c-0.302,1.137-1.437,2.688-1.72,4.207
		c-0.221,1.182-0.266,2.715,0.896,2.984c1.611,0.371,1.885-2.551,2.406-3.695c0.967-2.127,2.594-3.881,3.531-6.02
		c0.726-1.656,1.328-3.402,1.357-5.201c0.021-1.273-0.146-2.574-0.55-3.785c-0.868-2.611-2.85-3.916-4.519-6.059
		c-0.723-0.93-1.127-2.072-1.45-3.188c-0.198-0.684-0.255-1.434-0.11-2.129c0.309-1.506,0.68-2.615,0.946-4.131
		c0.192-1.09,0.854-1.85,0.547-2.91c-1.47-5.07-0.542-10.32-2.315-15.154c-0.846-2.309-2.26-4.373-2.92-6.727
		c-0.369-1.312,0.023-2.762-0.33-4.064c-0.957-3.52-2.974,0.562-4.875,1.109c-1.992,0.57-2.793,0.4-3.426-1.488
		c-0.326-0.971-0.223-2.047-0.16-3.059c0.207-3.396,1.812-5.627,4.56-7.527c1.915-1.328,4.708-2.812,5.028-5.223
		c0.449-3.363-0.584-6.064,1.93-8.545c1.307-1.289,3.158,0.17,3.893,1.707c0.256,0.535,1.461,18.238,1.752,19.967
		c0.217,1.281,0.619,4.643,1.416,9.137c0.301,1.701,0.887,3.355,1.199,5.068c1.273,6.953,2.352,13.818,3.43,20.811
		c0.361,2.348,0.98,2.201,1.562,5.281c0.902,4.812,1.76,9.652,1.348,14.541c-0.246,2.93-3.332,4.893-4.857,7.369
		c-1.081,1.756-0.651,3.498-0.877,5.527c-0.225,2.055-0.739,4.01-1.553,5.912c-0.687,1.605-0.574,1.721-2.152,3.637
		c-3.307,4.008-6.741,7.953-10.616,11.416C222.767,778.526,221.35,778.372,219.84,778.272L219.84,778.272z M238.086,792.584
		c-3.92-1-2.967-3.285-3.705-7.021c-0.401-2.027-2.453-3.086-3.062-4.971c-1.364-4.234-0.755-7.699,3.507-9.598
		c0.467-0.207,1.045-0.232,1.545-0.08c2.51,0.762,4.36,2.893,5.561,5.234c0.289,0.564,0.277,1.252,0.562,1.836
		c1.236,2.539,2.469,4.883,2.389,7.723c-0.029,1.094-0.328,2.201-0.774,3.213c-0.67,1.523-2.122,3.078-3.804,3.479
		C239.579,792.571,238.797,792.766,238.086,792.584L238.086,792.584z M221.219,811.083c-2.598-0.705-4.081-2.154-2.775-4.891
		c0.885-1.857,2.404-3.207,3.457-4.953c0.221-0.361,0.354-0.785,0.416-1.199c0.467-3.064,0.637-5.371,1.896-8.264
		c0.658-1.514,0.399-2.52,0.131-4.168c-0.285-1.736-0.783-2.887,0.794-3.508c1.854-0.729,3.7-0.043,5.438,0.951
		c0.437,0.25,0.857,0.703,0.928,1.209c0.416,3.07-0.808,6.432,1.445,8.611c1.393,1.35,3.689,0.908,4.18,2.986
		c0.394,1.666-0.688,2.967-1.771,4.232c-1.252,1.465-3.584,4.184-6.982,6.898c-1.078,0.861-2.319,1.545-3.658,1.838
		C223.567,811.079,222.344,811.389,221.219,811.083L221.219,811.083z M88.581,838.62c-5.085-2.041-9.582-5.799-13.53-9.439
		c-1.449-1.336-1.066-2.51-0.816-4.424c0.109-0.842,0.1-1.717-0.134-2.521c-0.375-1.297-0.997-2.439-1.872-3.459
		c-0.273-0.318-0.334-0.479-1.905-0.506c-2.023-0.035-4.138,0.773-6.129,0.844c-1.988,0.068-4.09-0.154-5.291-2.025
		c-0.54-0.84-0.585-1.904-0.735-2.877c-0.133-0.863-0.188-1.732-0.137-2.594c0.617-10.107-0.493-19.631-2.376-29.576
		c-0.704-3.721-0.864-7.516-1.525-11.23c-0.883-4.969-2.224-9.725-3.337-14.637c-0.851-3.762-1.033-3.861-0.638-5.48
		c0.333-1.371,1.522-1.49,2.82-1.154c1.296,0.338,2.701,1.133,3.465,1.594c2.406,1.451,4.867,2.082,7.504,2.986
		c2.093,0.717,4.217,2.357,4.475,4.592c0.776,6.709,1.105,13.471,1.649,20.203c0.196,2.443,0.228,4.932,0.852,7.303
		c0.556,2.117,1.433,3.904,2.179,5.947c1.386,3.805,5.015,5.949,7.137,9.305c1.412,2.232,0.555,4.77,1.083,7.289
		c0.13,0.615,0.439,1.197,0.814,1.719c0.566,0.783,2.132,1.826,3.318,3.207c0.532,0.619,0.347,0.734,1.52,2.707
		c0.575,0.971,1.253,1.906,2.111,2.664c1.085,0.959,2.11,1.633,3.562,1.654c2.645,0.039,3.974-2.713,6.3-3.715
		c1.544-0.664,3.9-0.854,5.838-0.514c1.507,0.268,3.013,0.924,3.434,2.521c0.271,1.023,0.498,2.277-0.064,3.188
		c-2.098,3.395-4.993,6.232-7.313,9.48c-1.879,2.629-1.276,3.025-3.003,5.197C95.169,840.213,92.379,840.145,88.581,838.62
		L88.581,838.62z M108.116,851.42c-3.746-1.125-7.712-2.588-10.202-5.545c-2.626-3.117-1.26-4.951,1.093-8.021
		c2.094-2.732,2.727-3.57,3.941-4.873c1.451-1.557,3.205-3.422,5.103-4.688c3-2.002,5.272-1.793,7.45,0.586
		c1.571,1.713,2.21,4.221,2.559,6.512c0.259,1.691,0.391,3.434,0.271,5.15c-0.108,1.562-0.758,3.045-0.923,4.598
		c-0.205,1.914-0.328,3.68-1.173,5.002C114.32,853.141,110.968,852.276,108.116,851.42L108.116,851.42z M169.328,887.649
		c-2.49-4.707,0.75-10.318,1.649-15.166c0.305-1.645,0.851-2.178,2.339-2.969c1.229-0.654,3.289-0.838,4.485-0.098
		c3.253,2.018,4.114,5.275,8.173,3.512c1.212-0.525,3.587-2.549,1.794-3.594c-2.245-1.305-5.239-1.02-7.419-2.467
		c-2.324-1.539-5.153-3.646-3.49-6.463c1.485-2.512,4.12-3.795,6.224-5.811c1.99-1.9,2.913-5.324,2.271-8.023
		c-0.702-2.955-2.338-7.693-0.564-10.49c0.672-1.059,1.2-2.242,1.461-3.471c0.502-2.355,0.367-4.629,2.222-6.285
		c3.452-3.082,4.39-6.223,6.106-10.48c1.169-2.896,3.672-5.275,4.816-8.184c0.79-2.006,0.698-4.191,2.081-5.881
		c2.002-2.449,4.368-0.693,6.155,1.232c1.074,1.156,1.978,2.574,2.945,3.301c1.938,1.449,4.521,2.441,5.1,4.922
		c0.162,0.689,0.308,1.443,0.113,2.127c-0.354,1.244-1.031,2.381-1.693,3.494c-2.051,3.443-4.797,6.588-5.969,10.438
		c-1.021,3.352-1.424,4.691-1.519,6.611c-0.153,3.141,0.42,6.281,0.382,9.426c-0.035,2.781-1.211,3.832-3.725,5.246
		c-2.956,1.662-5.288,3.334-6.984,6.42c-0.691,1.256-1.894,2.738-1.406,4.098c1.659,4.631,5.809,10.029,3.813,15.018
		c-1.155,2.885-5.438,4.234-8.01,5.564c-1.826,0.945-3.755,2.123-5.551,3.092c-2.888,1.561-5.746,3.227-8.669,4.756
		C173.924,888.854,171.026,890.862,169.328,887.649L169.328,887.649z M194.347,838.022c-0.723-0.529-1.32-1.176-1.496-1.875
		c-0.482-1.92,0.584-2.41,2.459-2.893c1.208-0.312,2.553-0.555,3.632-0.377c1.078,0.178,1.892,0.775,2.036,2.141
		c0.091,0.854-0.332,1.672-0.968,2.371C198.053,839.545,196.634,839.702,194.347,838.022L194.347,838.022z M282.827,853.782
		c-1.461-0.098-2.445-0.551-3.086-1.924c-0.283-0.615-0.275-1.371-0.105-2.014c0.484-1.812,1.484-3.459,2.058-5.238
		c0.899-2.807,0.224-3,1.522-6.494c0.688-1.852,3.369-1.604,5.055-0.781c2.07,1.01,3.693,2.553,5.98,2.834
		c3.028,0.373,6.444-1.064,7.383,2.223c0.85,2.98-0.383,5.686-3.029,7.346c-2.467,1.545-5.307,2.225-8.123,2.992
		c-1.699,0.463-1.697,0.459-2.533,0.602C286.258,853.61,284.538,853.897,282.827,853.782L282.827,853.782z M99.982,595.237
		c-0.405-0.938-0.597-2.029-0.813-3.127c-0.542-2.732,1.622-6.014,3.865-3.117c1.136,1.467,1.083,3.725,0.563,5.744
		C102.909,597.407,101.59,598.948,99.982,595.237L99.982,595.237z M103.316,659.245c1.362-3.014,2.742-6.02,4.045-9.061
		c0.228-0.531,0.479-1.088,0.496-1.658c0.056-1.826-0.479-3.26-0.733-5.057c-0.401-2.838,2.067-3.834,4.392-2.738
		c2.625,1.232,2.42,2.217,2.501,5.174c0.009,0.312-0.035,0.656-0.185,0.941c-2.524,4.889-4.524,10.084-8.045,14.303
		C102.627,664.932,101.35,663.598,103.316,659.245L103.316,659.245z M61.236,740.569c-0.47,0.062-1.326-0.408-2.105-0.814
		c-1.298-0.676-2.509-1.957-0.896-2.596c1.829-0.727,3.295-0.275,4.305-1.953c0.997-1.656,1.743-3.311,1.869-3.924
		c0.432-2.104,0.556-2.072,0.942-4.248c0.408-2.299-0.009-4.473,0.322-6.594c0.706-4.521,3.47-3.379,2.997,0.973
		c-0.478,4.383,1.027,8.771-1.303,12.896C65.778,737.122,64.671,740.104,61.236,740.569L61.236,740.569z M68.05,699.51
		c-1.739-0.08-3.668-0.666-4.918-1.934c-0.314-0.318-0.582-0.719-0.667-1.154c-0.191-0.977,0.333-1.854,0.928-2.59
		c2.191-2.721,2.823-1.473,4.574,0.994c1.05,1.479,1.238,1.357,1.946,1.74c0.505,0.273,2.459,0.393,2.286,1.104
		C71.805,699.278,69.529,699.579,68.05,699.51L68.05,699.51z M24.124,384.665c-0.034-0.601,0.038-1.29,0.472-1.972
		c3.6-5.663,6.551-9.486,7.328-10.975c0.467-0.895,0.895-1.796,1.128-2.558c0.299-0.979,0.229-2.113-1.342-2.375
		c-1.516-0.254-2.091,0.514-2.904,1.529c-2.552,3.182-3.99,7.228-6.433,10.496c-1.002,1.341-1.123,1.286-1.803,1.623
		c-1.729,0.857-3.814,1.212-5.525,0.279c-2.853-1.554-7.798-5.797-5.851-9.218c1.874-3.292,4.495,0.948,7.004,1.239
		c2.245,0.261,3.741-2.036,4.848-3.824c0.667-1.075,1.978-3.409,2.398-5.407c0.287-1.367,0.261-3.005-1.058-3.223
		c-1.953-0.322-2.758,1.52-4.493,2.57c-1.897,1.146-4.09,0.318-6.262,0.68c-2.88,0.478-3,2.658-4.822,4.744
		c-1.171,1.339-2.865,1.688-4.577,1.231c-0.83-0.22-1.494-0.792-1.877-1.567c-1.417-2.857,1.787-6.871,3.113-9.284
		c1.011-1.839,0.992-1.885,1.241-3.226c0.462-2.501,0.739-4.771,1.725-7.089c1.274-2.995,4.405-3.961,7.218-5.558
		c2.524-1.432,4.105-4.152,6.143-6.212c2.626-2.654,5.874-4.57,8.484-7.211c1.217-1.231,1.953-2.977,3.28-4.139
		c0.839-0.733,2.152-0.911,3.132-0.316c1.311,0.795,1.313,0.807,1.94,1.414c4.282,4.145,8.117,11.973,9.012,15.875
		s1.616,2.927,1.923,5.496c0.304,2.571,0.731,6.936,0.51,9.687c-0.222,2.752-0.005,2.951-1.744,6.74
		c-1.739,3.789-6.029,11.028-11.064,14.635c-0.623,0.446-0.469,0.618-4.294,3.923c-0.809,0.698-2.019,1.64-2.964,2.423
		C26.7,386.177,24.297,387.671,24.124,384.665L24.124,384.665z M128.759,260.632c-0.942-0.058-1.921-0.431-2.353-1.264
		c-1.435-2.766-0.891-6.519-0.621-9.564c0.104-1.189,0.429-2.387,0.984-3.435c0.768-1.448,2.164-1.156,3.133-0.072
		c0.506,0.568,0.569,1.441,0.894,2.177c1.402,3.187,3.556,6.238,5.645,8.813c0.375,0.461,0.367,1.269,0.083,1.803
		c-0.438,0.825-0.666,0.73-1.032,0.767C133.232,260.077,131.037,260.773,128.759,260.632L128.759,260.632z M51.016,237.093
		c-2.183-0.478-3.909-2.304-4.391-4.538c-0.63-2.926,0.199-3.541,3.186-3.049c2.011,0.332,2.931,1.658,3.375,3.601
		C53.795,235.787,53.842,237.71,51.016,237.093L51.016,237.093z M49.132,245.588c-2.573-0.339-5.603-1.566-4.276-4.578
		c0.9-2.042,4.289-1.709,6.016-0.691c0.574,0.34,1.135,0.917,1.261,1.59C52.579,244.302,51.756,245.935,49.132,245.588
		L49.132,245.588z M92.212,273.054c-1.377-0.209-2.178-1.013-2.927-1.827c-2.08-2.256-1.61-3.523-0.092-5.873
		c1.312-2.03,3.083-3.699,4.774-5.382c1.274-1.267,2.534-2.598,4.11-3.507c1.617-0.932,3.506-1.435,4.876,0.034
		c0.625,0.671,0.589,0.76,0.625,1.239c0.353,4.691-0.814,8.107-3.782,11.872c-1.101,1.397-2.319,2.775-4.088,3.189
		C94.564,273.068,93.363,273.23,92.212,273.054L92.212,273.054z M181.498,305.43c-6.356-1.077-7.349-8.41-9.294-13.491
		c-0.188-0.489-0.322-1.119-0.06-1.571c0.867-1.499,1.876-3.125,4.069-4.646c5.047-3.5,10.754-5.826,16.13-8.815
		c0.234-0.13,0.406-0.382,0.662-0.491c3.674-1.559,7.291-3.464,11.061-4.781c2.336-0.816,8.731-0.36,7.784-4.061
		c-0.639-2.499-4.119-2.816-2.378-5.764c0.594-1.008,1.394-1.892,2.272-2.649c0.969-0.836,2.032-1.605,3.213-2.094
		c4.071-1.688,8.504-2.125,12.633-3.699c2.496-0.95,4.978-3.035,7.453-1.302c0.929,0.648,1.627,1.59,2.357,2.463
		c0.395,0.473,0.777,0.995,1.016,1.58c3.088,7.554,5.36,15.411,3.457,23.525c-0.388,1.649-0.517,1.982-1.474,3.25
		c-2.351,3.116-5.935,2.994-9.606,4.018c-2.332,0.649-4.431,1.056-6.658,1.983c-2.156,0.896-3.639,2.887-5.612,4.144
		c-0.479,0.306-1.114,0.28-1.604,0.551c-3.129,1.731-6.598,3.348-9.896,4.72c-3.64,1.513-7.231,3.586-11.079,4.433
		c-2.389,0.526-4.911,0.157-7.314,0.619c-1.555,0.299-3.518,1.647-3.99,1.727C183.593,305.254,182.533,305.606,181.498,305.43
		L181.498,305.43z M118.737,178.946c-1.042-0.032-1.718-0.186-1.987-1.179c-0.227-0.845,0.885-1.477,1.725-1.933
		c0.84-0.455,1.887-0.577,2.591-0.93c1.837-0.918,2.683-2.269,4.527-1.498c0.424,0.176,0.723,0.686,0.772,1.149
		c0.055,0.514-0.174,1.083-0.516,1.484c-1.04,1.222-2.28,2.119-3.854,2.548C120.937,178.874,119.822,178.979,118.737,178.946
		L118.737,178.946z M103.585,283.067c-1.116,0-2.111-0.71-3.032-1.322c-4.244-2.816-7.996-6.42-12.187-9.315
		c-2.106-1.455-4.768-3.15-6.189-5.225c-1.374-2.006-1.163-2.15-1.61-3.554c-0.394-1.24-0.194-1.345-0.569-1.742
		c-3.195-3.392-6.854-6.668-9.744-10.308c-1.122-1.412-1.147-1.762-1.739-2.45c-1.777-2.067-2.845-5.231-3.354-7.894
		c-0.426-2.23-0.386-3.115-0.285-5.383c0.227-5.031,1.224-8.241,3.921-12.359c2.315-3.537,6.289-6.8,10.597-7.345
		c1.537-0.195,2.519,0.322,5.821-0.19c1.203-0.187,1.825-1.783,2.587-0.696c0.494,0.705-0.324,1.86,0.147,2.58
		c1.385,2.119,4.565,0.019,6.538-0.741c0.827-0.317,1.56-0.023,2.085,0.637c1.228,1.541,1.814,3.996,3.479,5.123
		c3.789,2.567,6.958,2.256,9.042,6.696c1.142,2.434,1.583,4.706,3.439,6.641c0.36,0.375,0.921,0.604,1.457,0.635
		c1.803,0.098,3.665,0.137,5.432-0.286c3-0.723,5.569-3.018,7.137-5.718c0.673-1.157,2.22-3.346,3.891-4.533
		c1.004-0.713,2.203-1.226,3.156-0.504c0.668,0.507,0.412,1.384,0.07,2.091c-0.438,0.909-1.33,1.765-1.693,2.508
		c-0.622,1.273-1.215,2.708-1.287,4.126c-0.124,2.465-0.053,4.967,0.392,7.408c0.224,1.234,0.382,1.228,3.085,5.435
		c1.062,1.655,2.564,3.077,3.734,4.677c1.121,1.538,1.485,2.174,2.307,3.75c1.237,2.371,0.498,5.175,1.451,7.62
		c0.446,1.145,1.802,1.158,2.623,0.873c0.819-0.286,1.549-1.104,1.729-2.385c0.297-2.115,0.98-4.22,2.303-5.882
		c1.128-1.419,1.375-1.267,1.387-1.543c0.049-1.057-0.335-1.811-0.569-2.35c-0.767-1.769-0.698-2.203,2.313-1.521
		c2.25,0.51,4.338,0.079,6.278-0.674c5.078-1.969,8.258-5.053,9.425-10.442c0.367-1.692,0.605-3.511,0.358-5.625
		c-0.119-1.014-0.427-2.196-0.297-3.299c0.273-2.33,1.833-3.535,3.634-1.62c0.542,0.577,1.034,1.29,1.294,2.074
		c0.283,0.853,0.59,1.739,0.606,2.65c0.076,3.939-0.371,7.458-1.079,11.023c-0.855,4.297-2.129,7.337-4.951,10.725
		c-0.565,0.679-1.227,1.253-2.536,0.697c-2.656-1.126-6.801-3.883-9.144-1.126c-1.828,2.149-2.217,4.618-2.699,7.431
		c-0.155,0.909-0.122,1.796-0.324,2.699c-0.256,1.151-1.001,2.162-1.223,3.33c-0.576,3.022-2.235,5.948-5.472,5.921
		c-0.628-0.006-1.932-0.251-3.073-0.771c-1.618-0.738-1.617-0.737-2.504-1.244c-1.852-1.058-2.849-2.802-4.198-4.443
		c-1.294-1.573-1.634-2.25-3.553-1.468c-2.48,1.009-4.081,3.339-4.899,5.937c-0.317,1.004-0.227,2.142-0.491,3.184
		c-0.158,0.625-0.271,1.293-0.657,1.798c-0.093,0.12-0.348,0.136-0.431,0.023c-0.686-0.931-0.398-2.062-0.771-3.131
		c-0.561-1.605-1.235-2.449-2.798-3.083c-0.572-0.232-1.256-0.108-1.826,0.096c-2.024,0.724-3.812,1.726-5.458,3.11
		c-2.842,2.391-2.518,2.728-6.171,6.366C106.805,282.434,105.87,283.064,103.585,283.067L103.585,283.067z M110.256,206.099
		c-0.839-0.054-1.805-0.225-2.774-0.159c-1.34,0.09-1.981,0.482-2.355-0.912c-0.111-0.418,0.27-0.815,0.463-1.19
		c2.612-5.057,2.571-5.126,2.947-5.379c1.285-0.871,2.484-0.234,2.947,1.046c0.671,1.862,0.737,3.755,0.3,5.697
		C111.623,205.911,110.93,206.142,110.256,206.099L110.256,206.099z M151.469,437.04c-1.267-0.26-1.008-1.668-1.5-2.824
		c-1.699-3.984-3.087-8.054-4.605-12.119c-0.91-2.438-0.46-2.582-1.163-4.371c-0.637-1.622-1.901-3.756-2.102-5.79
		c-0.092-0.923-0.301-2.087,0.424-2.599c0.953-0.673,1.962,0.622,2.578,1.799c0.616,1.175,1.123,2.571,1.258,3.292
		c0.257,1.375,0.166,2.806,0.453,4.175c0.292,1.389,1.096,2.439,1.599,3.765c0.358,0.947,0.265,2.038,0.624,2.999
		c1.207,3.227,3.089,6.326,4.235,9.573C153.741,436.269,152.855,437.325,151.469,437.04L151.469,437.04z M131.533,376.53
		c-1.128-2.089-1.131-5.106-0.949-7.636c0.042-0.583-0.005-1.189,0.225-1.69c0.568-1.236,1.464-0.588,2.151,0.278
		c0.414,0.52,0.987,1.049,1.093,1.534c0.402,1.846,0.767,4.42,0.512,6.565C134.266,378.089,132.755,378.793,131.533,376.53
		L131.533,376.53z M236.475,454.6c-0.291-0.057-0.676-0.139-0.79-0.412c-0.216-0.514,0.472-1.49,1.091-2.443
		c0.797-1.229,1.85-2.457,2.119-3.01c1.01-2.062,1.996-4.174,3.589-5.833c0.39-0.406,0.81-0.56,1.294-0.232
		c0.582,0.394,0.613,0.845,0.359,1.509c-0.602,1.568-1.475,3.595-2.401,5.519c-0.722,1.496-1.569,2.887-2.657,3.811
		c-0.531,0.451-1.113,0.818-1.779,0.979C237.025,454.551,236.739,454.649,236.475,454.6L236.475,454.6z M99.076,365.636
		c-2.356-1.309-1.504-3.068,0.075-4.984c4.321-5.243,8.426-10.109,11.689-16.067c1.446-2.64,2.84-5.323,4.363-7.927
		c1.647-2.814,2.096-4.746,3.11-7.649c0.906-2.588,2.238-2.328,3.025-0.336c0.177,0.454-0.187,2.361-0.624,4.115
		c-0.4,1.604-1.251,2.726-1.756,4.291c-1.444,4.481-4.047,8.983-6.526,12.916c-2.143,3.397-4.295,6.881-6.601,10.167
		c-1.562,2.225-2.74,4.12-5.236,5.326C100.134,365.708,99.515,365.878,99.076,365.636L99.076,365.636z M84.229,373.765
		c-2.437-0.487-0.743-2.439,0.528-3.887c1.017-1.157,2.146-2.376,3.648-2.7c2.664-0.575,4.453-0.251,4.181,2.777
		c-0.201,2.235-1.711,3.042-3.142,3.425C88.015,373.761,86.204,374.16,84.229,373.765L84.229,373.765z M76.276,364.504
		c-0.614-0.018-1.391-0.013-1.774-0.489c-0.944-1.172,0.202-2.463,1.104-3.381c2.536-2.582,4.878-5.382,7.865-7.423
		c3.199-2.187,3.655,1.135,2.364,3.386c-1.805,3.148-4.824,6.165-7.935,7.519C77.391,364.338,76.835,364.521,76.276,364.504
		L76.276,364.504z M74.177,350.365c2.466-4.635,7.193-7.288,11.527-10.1c2.896-1.879,3.992-1.446,2.004,1.829
		c-1.933,3.185-4.936,6.192-7.467,8.476c-0.741,0.668-2.117,1.718-2.605,1.899C75.661,353.201,72.54,353.446,74.177,350.365
		L74.177,350.365z M67.018,336.449c0.808-2.334,1.468-4.855,3.15-6.619c1.664-1.741,2.902-2.658,5.14-1.611
		c1.177,0.551,2.373,1.262,3.176,2.305c1.623,2.103-2.375,2.028-3.972,2.518c-2.672,0.82-4.047,2.694-5.633,4.713
		c-0.366,0.467-0.617,1.077-1.131,1.462C65.272,341.078,66.657,337.496,67.018,336.449L67.018,336.449z M84.688,320.564
		c-1.446-0.055-2.811-0.632-3.853-1.639c-2.659-2.572-2.479-2.768-4.419-5.727c-0.531-0.81-0.546-1.612-0.13-2.477
		c0.958-1.998,3.614-3.81,5.767-4.315c0.612-0.144,1.268-0.226,1.896-0.1c1.521,0.304,2.702,1.162,4.168,1.646
		c1.252,0.412,3.623,0.082,3.388,1.652c-0.348,2.32-0.593,4.384-0.93,6.696c-0.15,1.029-0.127,1.192-1.289,2.306
		C87.88,319.954,86.646,320.638,84.688,320.564L84.688,320.564z M93.014,332.486c-2.079-0.092-0.375-3.02,0.428-4.267
		c1.012-1.576,4.516-5.981,5.45-2.363C99.732,329.114,96.083,332.621,93.014,332.486L93.014,332.486z M102.73,313.593
		c0.5-1.203,1.638-2.429,2.692-3.285c1.532-1.246,3.059-0.542,2.602,1.642c-0.269,1.288-1.375,2.682-2.458,3.608
		C103.82,317.049,101.622,316.256,102.73,313.593L102.73,313.593z M113.16,305.418c-1.842-0.157-4.198-1.753-3.303-3.814
		c0.533-1.229,1.878-2.703,3.219-2.433c1.999,0.404,2.979,1.295,3.007,3.305C116.11,304.436,114.992,305.574,113.16,305.418
		L113.16,305.418z M112.464,323.181c-1.078,0.127-1.796-1.178-2.167-2.207c-0.511-1.405,1.093-4.529,2.75-6.448
		c3.282-3.801,2.504-0.542,2.601,1.198C115.815,318.771,115.78,322.788,112.464,323.181L112.464,323.181z M110.153,292.633
		c-1.731-0.362-2.17-1.632-0.872-3.068c1.087-1.203,3.173,0.501,2.835,1.809C111.856,292.382,111.223,292.855,110.153,292.633
		L110.153,292.633z M101.218,293.454c-1.818-0.37-1.731-0.707-2.444-1.236c-3.076-2.282-6.241-4.508-10.058-5.405
		c-0.913-0.215-1.61-1.021-2.515-1.268c-4.039-1.097-8.253-2.425-11.845-4.564c-0.447-0.267-0.708-0.833-0.758-1.336
		c-0.436-4.451,7.007-0.107,8.133,0.527c3.721,2.097,7.716,3.764,11.391,5.93c2.311,1.364,5.345,2.36,7.438,4.155
		c0.699,0.598,1.292,1.284,1.72,2.103C102.541,292.86,101.769,293.566,101.218,293.454L101.218,293.454z M53.203,256.452
		c-4.25-0.609,0.961-4.873,2.818-4.299c0.9,0.278,0.862,0.53,0.895,0.816C57.128,254.878,54.869,256.691,53.203,256.452
		L53.203,256.452z M208.034,335.401c-2.834-0.67-5.142-3.278-8.027-3.612c-5.246-0.608-10.688-0.028-15.896,0.838
		c-3.135,0.521-5.47,3.063-8.538,3.949c-0.974,0.28-1.686-0.207-1.426-1.162c0.56-2.061,3.748-2.834,5.571-3.605
		c0.958-0.406,2.229-0.952,2.928-1.53c1.489-1.235,1.511-1.239,2.579-2.621c2.048-2.649,2.431-3.572,5.709-2.738
		c1.749,0.445,3.378,1.032,5.186,1.009c3.714-0.046,7.435-0.191,11.128-0.586c0.847-0.091,1.66-0.431,2.416-0.839
		c1.65-0.892,10.832-5.22,8.221,0.01c-1.659,3.328-4.34,6.083-6.649,9.004C210.09,334.967,209.702,335.796,208.034,335.401
		L208.034,335.401z M152.618,234.106c-0.458-1.367-0.807-2.859-0.474-4.103c0.542-2.015,2.241-2.391,3.804-1.135
		c0.631,0.508,1.517,1.129,1.515,2.005c-0.005,1.235-0.8,2.529-1.489,3.623C154.105,237.462,153.39,236.413,152.618,234.106
		L152.618,234.106z M154.672,220.358c0.055-0.525,0.213-1.086,0.436-1.614c0.27-0.633,0.644-1.121,1.046-1.451
		c1.204-0.991,2.647-0.558,2.143,1.654c-0.132,0.577-0.312,1.262-0.685,1.925C156.622,222.64,154.393,223.022,154.672,220.358
		L154.672,220.358z M101.258,500.5c-0.057-0.828,0.092-1.697-0.17-2.484c-0.335-1.004-0.935-1.902-1.556-2.738
		c-1.941-2.617-4.284-5.326-4.764-8.434c-0.219-1.414-0.35-3.049,0.621-4.445c1.446-2.08,3.758,0.656,5.304,3.211
		c0.928,1.529,1.842,2.99,2.032,3.654c0.513,1.795,1.398,3.234,1.898,5.033c0.421,1.514,0.539,3.146,0.248,4.686
		c-0.253,1.326-0.763,2.629-1.433,3.807C101.029,507.03,101.528,504.379,101.258,500.5L101.258,500.5z M211.125,679.374
		c-0.715-0.035-0.931-0.627-0.731-1.502c0.344-1.504,1.521-2.658,2.118-4.076c0.556-1.318,1.068-2.658,1.42-4.041
		c0.201-0.797-0.536-0.844-0.051-5.361c0.309-2.85,2.646-4.936,3.562-7.648c0.614-1.82,1.126-3.652,1.341-5.553
		c0.209-1.855,0.457-3.328,0.776-5.172c0.12-0.689-0.134-1.412,0.007-2.102c0.271-1.336,1.039-2.555,1.191-3.91
		c0.172-1.492,0.109-3.039-0.236-4.5c-0.311-1.318-1.889-2.709-1.611-4.031c0.539-2.576,1.543-4.145,0.582-6.643
		c-0.709-1.85-0.781-1.834-3.091-5.553c-1.741-2.803-1.922-3.34,0.552-5.451c1.203-1.025,2.526-1.883,3.779-2.846
		c3.438-2.641,6.986-5.334,9.578-8.797c2.07-2.77,1.936-2.861,2.148-3.25c1.123-2.037,2.244-5.824,4.699-5.555
		c2.42,0.268,0.967,3.125-0.062,5.006c-0.146,0.268-0.448,1.234-1.783,2.461c-2.521,2.318-2.84,1.979-3.943,3.275
		c-1.611,1.895-1.226,4.27-1.539,6.635c-0.289,2.174-2.416,1.408-4.244,2.008c-3.323,1.09-3.105,2.141-2.59,5.547
		c0.205,1.348,0.822,1.111,1.557,2.951c0.925,2.316,1.591,4.711,2.24,7.111c0.354,1.301,1.183,2.453,1.481,3.77
		c0.571,2.51,0.263,3.551,1.017,6.012c0.967,3.146-1.174,5.432-2.012,8.305c-0.396,1.359,0.199,1.439-0.164,3.508
		c-0.348,1.982-0.838,3.576-1.34,5.551c-0.552,2.172-1.549,4.168-2.967,5.895c-1.812,2.209-4.535,3.842-5.95,6.355
		c-0.181,0.318,0.25,0.375-0.079,2.918c-0.273,2.111-1.777,3.23-3.015,4.965C213.043,676.663,212.354,679.428,211.125,679.374
		L211.125,679.374z M200.63,619.635c-2.833-0.342-2.763-1.844-2.098-3.467c0.204-0.496,0.39-1.158,0.836-1.877
		c1.857-2.99,3.333-6.197,5.232-9.139c0.47-0.729,1.271-1.209,1.74-1.936c1.609-2.498,1.395-5.137,2.025-8.037
		c0.732-3.373,3.982-4.82,5.434-0.869c0.527,1.432,0.511,3.066,0.242,4.57c-0.373,2.098-0.732,4.043-1.682,5.941
		c-1.498,3.006-1.602,2.979-2.693,4.225c-1.444,1.648-3.444,2.854-4.648,4.676C203.73,615.674,203.168,619.942,200.63,619.635
		L200.63,619.635z M164.539,643.241c-1.067-0.844-2.045-1.883-3.057-2.812c-0.124-0.113-0.16-0.283-0.276-0.383
		c-0.056-0.045-0.159,0.029-0.2-0.012c-3.74-3.74-8.107-6.844-11.357-11.027c-1.329-1.713-2.392-3.59-3.55-5.412
		c-0.792-1.242-1.431-2.223-2.075-3.527c-0.735-1.486-2.355-2.557-2.668-4.176c-0.902-4.652,0.112-9.908-1.575-14.375
		c-0.819-2.17-1.694-3.902-2.308-6.176c-0.259-0.961-2.33-5.566-0.303-5.08c2.426,0.582,3.859,3.107,4.635,5.398
		c0.447,1.326,0.015,2.818,0.336,4.182c0.662,2.807,1.237,5.01,2.04,7.705c0.572,1.926,2.241,3.359,3.072,5.203
		c0.685,1.518,0.616,3.381,1.195,4.951c1.538,4.184,4.523,7.846,7.681,11c4.813,4.807,4.534,5.129,5.283,5.527
		c2.207,1.176,3.942-0.85,3.381-2.895c-0.733-2.672-2.648-3.709-1.618-6.363c0.679-1.752,0.573-1.879,1.756-3.184
		c1.534-1.691,3.066-2.174,5.204-2.83c1.229-0.377,2.301-1.168,3.531-1.584c1.234-0.418,1.22-0.453,1.837-0.564
		c4.165-0.75,8.291-2.695,9.858-6.77c0.414-1.078,0.208-2.312,0.521-3.41c0.792-2.797,0.763-4.076,3.114-6.17
		c1.563-1.391,3.398-2.939,3.403-5.135c0.012-4.355-1.338-9.312,0.458-13.436c0.465-1.066,1.021-2.107,1.729-3.029
		c1.713-2.229,3.372-4.967,6.183-5.492c1.406-0.264,1.348,2.061,0.95,3.748c-0.398,1.688-1.031,3.523-1.402,4.275
		c-1.798,3.643-4.486,7.793-4.874,11.941c-0.077,0.826-0.723,1.543-0.808,2.375c-0.264,2.615-0.603,4.926-1.12,7.521
		c-0.772,3.875-1.577,7.42-4.775,9.615c-1.678,1.15-2.054,0.23-3.685,0.896c-2.532,1.029-4.001,3.707-5.86,5.66
		c-0.593,0.625-1.351,1.125-2.165,1.408c-0.927,0.322-1.993,0.029-2.896,0.387c-2.161,0.854-2.246,0.812-3.761,2.088
		c-1.174,0.988-2.115,2.033-2.204,3.557c-0.278,4.82,0.624,9.631,1.039,14.438C169.553,645.247,167.965,645.954,164.539,643.241
		L164.539,643.241z M150.5,591.143c-3.097-0.525-2.641-3.934-2.411-6.777c0.149-1.846,0.973-3.578,1.585-5.332
		c0.837-2.396,1.774-4.625,3.8-6.195c1.842-1.424,4.034-1.867,4.651,0.619c0.841,3.391-3.595,5.367-4.332,8.543
		c-0.537,2.324-0.26,4.889-1.259,7.064C151.875,590.499,151.957,591.389,150.5,591.143L150.5,591.143z M115.628,577.821
		c-1.493-0.305-2.668-1.568-3.425-2.895c-0.454-0.795-1.009-1.715-0.785-2.621c0.468-1.889,1.93-2.217,3.129-1.85
		c1.198,0.365,2.655,1.395,3.104,2.805c0.407,1.277,0.736,3.379-0.631,4.186C116.599,577.692,116.096,577.917,115.628,577.821
		L115.628,577.821z M160.889,564.823c-0.999-0.225-1.314-0.832-1.392-1.279c-0.077-0.449-0.027-1.139,0.629-1.91
		c0.695-0.816,1.763-0.506,2.35,0.018c0.585,0.52,1.127,1.6,0.47,2.363C162.445,564.596,161.632,564.989,160.889,564.823
		L160.889,564.823z M169.451,559.124c-1.054-0.367-2.483-1.334-2.421-2.578c0.018-0.365,0.214-0.705,0.438-0.979
		c2.205-2.709,2.514-2.469,6.117-7.414c1.966-2.699,3.466-4.877,5.906-7.182c0.728-0.686,0.776-1.619,1.162-2.52
		c1.19-2.793,1.221-5.719,1.034-8.918c-0.194-3.328,1.411-6.438,2.183-9.678c0.24-1.008,0.765-2.516,1.817-2.486
		c1.521,0.041,1.446,1.074,1.221,2.594c-0.206,1.387-1.069,2.299-0.626,3.613c1.02,3.018,0.856,4,0.259,7.135
		c-0.401,2.109-0.538,4.029-0.96,6.115c-0.414,2.043-2.18,3.465-2.625,5.502c-0.15,0.684,0.23,1.441-0.007,2.1
		c-1.244,3.465-3.918,5.498-7.129,7.432c-2.669,1.607-3.076,5.244-5.67,7.039C169.945,559.042,169.682,559.202,169.451,559.124
		L169.451,559.124z M114.419,550.479c-1.631-0.314-2.09-1.141-1.984-2.178c0.106-1.035,0.777-2.283,1.408-3.436
		c1.146-2.1,2.57-2.223,3.803-0.201c0.757,1.24,0.481,3.088-0.378,4.375C116.6,550.04,115.581,550.704,114.419,550.479
		L114.419,550.479z M112.492,562.592c-0.381,0-0.756-0.312-0.919-0.639c-0.576-1.145-1.1-2.688-1.124-4.033
		c-0.024-1.348,0.456-2.502,1.89-2.865c1.816-0.461,2.498,0.627,2.726,2.363c0.218,1.664-0.593,3.072-1.44,4.531
		C113.405,562.329,112.925,562.59,112.492,562.592L112.492,562.592z M121.721,538.549c-3.229-0.49-2.748-2.512-1.341-4.484
		c0.64-0.896,1.472-1.783,2.231-2.514c1.207-1.158,2.753-1.922,3.978-3.064c1.421-1.328,2.154-3.209,3.551-4.562
		c1.195-1.158,1.625-0.836,2.166-2.037c1.354-3.012,1.659-5.975,4.274-8.074c2.97-2.383,6.729-3.781,9.667-6.189
		c1.117-0.914,1.951-2.129,2.898-3.219c2.826-3.252,5.656-5.67,9.655-7.529c2.161-1.006,4.151-2.148,6.237-3.361
		c0.632-0.367,1.296-0.744,1.809-1.271c1.172-1.207,1.302-1.176,2.107-2.957c0.901-1.99,1.269-3.777,2.626-5.504
		c1.088-1.387,2.528-2.457,3.648-3.809c0.565-0.682,0.702-0.59,1.633-2.184c1.953-3.344,1.981-4.033,2.747-5.639
		c0.749-1.57,1.407-3.111,2.192-4.65c0.247-0.486,0.506-1.1,1.018-1.256c1.194-0.361,1.782,1.301,1.732,2.301
		c-0.036,0.701-0.323,1.342-0.5,1.99c-0.297,1.08-0.376,2.166-0.62,3.314c-0.488,2.295-1.595,4.41-2.704,6.465
		c-0.18,0.336-4.084,3.35-4.252,4.037c-0.026,0.105-0.237,0.059-0.296,0.145c-4.959,7.289-4.708,7.49-6.368,9.291
		c-2.263,2.459-4.938,4.635-7.895,6.189c-9.871,5.193-12.063,5.342-18.933,15.133c-2.44,3.479-6.737,5.152-9.791,8.061
		c-2.611,2.488-3.676,6-5.455,9.127C126.296,534.827,124.789,539.014,121.721,538.549L121.721,538.549z M160.251,481.942
		c-1.518,0.107-2.29-1.412-1.975-2.951c1.181-5.773,1.485-5.709,2.367-8.172c0.542-1.51,1.499-2.863,1.867-4.414
		c0.69-2.91-1.26-6.188-1.878-9.078c-0.205-0.957,0.123-2.018-0.27-2.9c-1.264-2.857-1.412-2.783-2.088-3.996
		c-0.576-1.035-1.458-1.754-2.013-2.576c-0.713-1.055-1.427-2.314-0.568-3.69c0.324-0.518,1.111-0.684,1.727-0.628
		c0.819,0.074,1.468,0.753,2.128,1.254c2.358,1.794,3.75,4.66,4.663,7.414c0.708,2.145,1.308,3.883,1.836,6.084
		c0.35,1.463,0.179,2.617-0.016,4.117c-0.129,0.998-0.584,1.939-0.661,2.951c-0.111,1.463,0.375,2.969,0.117,4.426
		c-0.496,2.791-0.935,2.699-1.163,4.492C163.958,477.153,163.431,481.713,160.251,481.942L160.251,481.942z M191.171,729.987
		c-2.472-0.277-6.683,1.691-7.654-0.74c-1.336-3.342,3.452-2.133,5.814-3.188c3.43-1.529,3.72-5.572,4.473-9.156
		c0.271-1.289,1.116-4.039,2.736-2.744c0.276,0.221,0.557,0.568,0.551,0.939c-0.034,2.064-0.689,4.07-1.192,6.125
		c-0.469,1.906-0.115,3.832-0.754,5.639C194.591,728.43,192.919,730.182,191.171,729.987L191.171,729.987z"/>
</g>
</svg>
