<?xml version="1.0" encoding="utf-8"?>
<!-- Generator: Adobe Illustrator 16.0.0, SVG Export Plug-In . SVG Version: 6.00 Build 0)  -->
<!DOCTYPE svg PUBLIC "-//W3C//DTD SVG 1.1//EN" "http://www.w3.org/Graphics/SVG/1.1/DTD/svg11.dtd">
<svg version="1.1" id="Layer_1" xmlns="http://www.w3.org/2000/svg" xmlns:xlink="http://www.w3.org/1999/xlink" x="0px" y="0px"
	 width="180.842px" height="140.81px" viewBox="0 0 180.842 140.81" enable-background="new 0 0 180.842 140.81"
	 xml:space="preserve">
<path fill-rule="evenodd" clip-rule="evenodd" fill="#1D1D1B" d="M17.102,0.604c-1.162,0.175-2.279,4.453-4.523,6.685
	c-1.645,1.604-3.69,1.512-4.783,3.497c-0.412,0.74-0.278,2.011-0.747,3.229c-0.918,2.433-4.146,2.648-4.146,5.303
	c-0.006,2.867,2.689,3.413,5.033,5.449c1.83,1.632,2.005,2.762,4.217,3.558c1.888,0.642,4.7-1.46,7.229-0.703
	c2.077,0.618,4.066,1.062,4.535,3.194c0.412,1.97-0.029,5.02-2.548,4.667c-0.85-0.097-4.533-1.333-9.052-0.855
	C6.855,35.249,0.629,37.03,0.019,43.116c-0.337,3.399,3.872,7.41,7.933,6.596c2.81-0.555,1.482-3.867,3.01-5.478
	c2.005-2.062,13.367,7.198,23.929,7.198c4.443,0,7.755-1.124,11.037-4.564c0.309-0.263,0.682-0.825,1.158-0.862
	c0.447,0.037,1.228,0.477,1.485,0.664c8.505,6.834,14.937,20.55,46.198,20.71c4.4,0.027,9.404,2.125,13.494,5.854
	c3.646,3.373,5.78,8.623,7.854,13.947c3.132,7.984,8.735,15.758,17.234,24.4c0.464,0.463,7.464,5.903,8.023,6.309
	c0.088,0.061,0.604,1.288,0.425,1.972c-0.208,5.187-0.962,20.261,10.278,20.941c2.743,0.141,2.027-1.794,2.027-3.119
	c-0.007-2.626-0.483-5.235,0.896-7.924c1.895-3.696-4.013-5.397-3.842-13.394c0.125-5.957-4.886-4.943-7.423-9.482
	c-1.461-2.633-2.764-4.027-2.67-7.246c0.574-18.107-3.854-30.006-6.058-32.929c-1.724-2.207-3.146-3.08-1.571-4.102
	c9.377-6.196,11.504-11.958,11.504-11.958c4.987-11.725,9.473-22.433,15.659-27.146c1.247-0.974,4.439-3.362,6.396-4.294
	c5.777-2.722,8.812-4.371,10.49-6.004c2.646-2.581,4.748-7.974,2.206-11.242c-3.164-4.033-8.632-0.833-11.044,0.6
	c-17.243,10.232-19.782,28.285-25.756,38.648c-4.767,8.285-12.514,14.369-19.44,14.867c-5.189,0.386-10.79-0.664-16.362-3.113
	c-13.557-5.943-20.971-13.617-22.726-14.972c-3.641-2.81-31.915-30.57-54.819-31.699c0,0-2.845-5.693-3.559-5.788
	c-1.676-0.214-3.391,3.398-4.619,3.82C20.213,4.709,18.269,0.414,17.102,0.604L17.102,0.604z"/>
</svg>
