<?xml version="1.0" encoding="utf-8"?>
<!-- Generator: Adobe Illustrator 16.0.0, SVG Export Plug-In . SVG Version: 6.00 Build 0)  -->
<!DOCTYPE svg PUBLIC "-//W3C//DTD SVG 1.1//EN" "http://www.w3.org/Graphics/SVG/1.1/DTD/svg11.dtd">
<svg version="1.1" id="Layer_1" xmlns="http://www.w3.org/2000/svg" xmlns:xlink="http://www.w3.org/1999/xlink" x="0px" y="0px"
	 width="178.083px" height="110.991px" viewBox="0 0 178.083 110.991" enable-background="new 0 0 178.083 110.991"
	 xml:space="preserve">
<g>
	<polygon fill-rule="evenodd" clip-rule="evenodd" fill="#FFFFFF" points="154.486,110.991 178.083,0 23.591,0 0,110.991 
		154.486,110.991 	"/>
	<path fill-rule="evenodd" clip-rule="evenodd" fill="#144BA0" d="M26.809,4.589c0,0,85.901,17.657,87.605,17.949
		c19.733,3.481,19.126,7.295,19.126,7.295c13.817-0.081,15.521,0.484,17.938,2.498c7.277,6.081-4.55,23.961-4.55,23.961
		c-1.685,1.267-129.47,50.617-129.47,50.617h133.686L173.01,4.104L26.898,4.118L26.809,4.589L26.809,4.589z"/>
	<path fill-rule="evenodd" clip-rule="evenodd" fill="#144BA0" d="M126.82,37.889c-1.939,0.961-7.009,1.479-9.366,1.69
		c-2.292,0.192-2.902,0.418-2.94,1.294c-0.034,0.781,0.337,1.233,3.604,1.233c7.506,0,21.021-2.838,25.092-1.54
		c2.146,0.678,0.41,4.524-1.337,9.55c-0.681,1.943,0.656,1.815,1.432,0.955c0.781-0.843,4.283-7.262,4.663-10.537
		c0.537-4.642-3.429-5.336-8.932-5.336h-8.734c-0.448,0-0.833,0.31-1.368,1.025C128.451,36.854,128.058,37.258,126.82,37.889
		L126.82,37.889z"/>
	<path fill-rule="evenodd" clip-rule="evenodd" fill="#144BA0" d="M21.845,27.871l-16.777,79.06c0,0,51.409-25.233,57.683-28.461
		c12.89-6.615,30.693-15.37,47.155-20.979c3.139-1.067,16.59-5.205,24.402-6.598c3.049-0.551,4.32-1.055,4.282-1.619
		c-0.108-1.624-3.148-1.718-8.321-1.479C114.514,48.544,84.31,60.56,75.626,65.144l-9.812-30.398h62.69
		c2.805-7.896-37.104-6.795-38.36-6.874H21.854H21.845L21.845,27.871z"/>
</g>
</svg>
