<?xml version="1.0" encoding="utf-8"?>
<!-- Generator: Adobe Illustrator 16.0.0, SVG Export Plug-In . SVG Version: 6.00 Build 0)  -->
<!DOCTYPE svg PUBLIC "-//W3C//DTD SVG 1.1//EN" "http://www.w3.org/Graphics/SVG/1.1/DTD/svg11.dtd">
<svg version="1.1" id="Layer_1" xmlns="http://www.w3.org/2000/svg" xmlns:xlink="http://www.w3.org/1999/xlink" x="0px" y="0px"
	 width="117.867px" height="132.066px" viewBox="0 0 117.867 132.066" enable-background="new 0 0 117.867 132.066"
	 xml:space="preserve">
<g>
	<path fill-rule="evenodd" clip-rule="evenodd" fill="#1D1D1B" d="M104.511,6.327c6.106,0,12.978,6.565,12.978,13.13
		c0,3.969-5.191,10.993-11.146,10.993c-4.581,0-2.138-6.26-10.688-8.397c-1.832-0.763-2.596-1.985-2.596-3.664
		C93.06,11.518,100.083,6.327,104.511,6.327L104.511,6.327z"/>
	<path fill-rule="evenodd" clip-rule="evenodd" fill="#1D1D1B" d="M48.546,55.054c0-5.802,5.344-12.52,11.298-12.52
		c3.359,0,7.329,3.053,7.329,9.619c0,0.61-7.023,12.214-11.757,12.214C51.141,64.367,48.546,60.55,48.546,55.054L48.546,55.054z"/>
	<path fill-rule="evenodd" clip-rule="evenodd" fill="#1D1D1B" d="M81.535,55.534l0.152-0.458c1.526-5.497,4.733-8.55,8.245-8.55
		c4.58,0,9.618,5.802,9.618,12.978c0,5.649-3.512,9.771-7.786,9.771c-3.207,0-4.733-1.985-6.107-5.802
		C84.131,59.351,83.978,59.045,81.535,55.534L81.535,55.534z"/>
	<path fill-rule="evenodd" clip-rule="evenodd" fill="#1D1D1B" d="M63.424,73.791c0-1.832,1.374-2.748,3.512-2.748
		c10.382,0,12.672,2.595,12.672,4.275c0,1.527-0.61,1.68-4.122,2.291c-3.664,0.61-3.206,2.595-4.58,2.595
		c-1.375,0-0.458-2.291-3.665-3.512C64.34,75.623,63.424,75.013,63.424,73.791L63.424,73.791z"/>
	<path fill-rule="evenodd" clip-rule="evenodd" fill="#1D1D1B" d="M113.438,46.414c0,21.833-10.534,31.91-26.718,31.91
		c-6.26,0-3.054,5.954-9.466,5.954c-2.596,0-4.123-2.748-7.176-2.748c-1.68,0-3.512,0.916-5.497,0.916
		c-6.412,0-5.038-7.023-7.176-7.939c-9.008-3.665-9.161-3.665-10.84-4.733c-6.718-4.581-9.619-10.84-9.619-20.306
		c0-9.466,3.664-21.68,9.619-27.024c1.832,1.222,2.901,1.833,3.969,1.833c2.291,0,3.054-3.207,8.245-5.039
		c6.413-2.29,6.413-2.29,6.413-5.649C65.193,4.733,60.002,0,54.506,0C47.33,0,40.307,5.955,40.307,11.756
		c0,2.901,1.679,5.802,3.97,8.245c-12.52,7.634-19.848,19.543-19.848,34.047c0,4.886,0.763,6.566,0.763,10.077
		c0,4.122-1.527,6.565-1.527,10.535c0,1.985,0.796,5.939,2.138,8.245C13.894,74.048,7.328,62.598,7.328,49.315
		c0-13.13,6.26-23.665,17.1-31.299l0.763-0.611C10.077,23.665,0,39.238,0,58.933c0,10.23,3.053,16.337,3.053,19.391
		c0,1.221-0.458,3.969-0.458,7.481c0,6.26,4.886,17.863,9.161,23.359c3.359,4.275,8.55,6.719,14.657,6.719
		c4.733,0,7.939-1.527,7.939-4.123c0-1.832-2.443-6.107-2.596-15.725l8.397,16.184c7.939,15.113,14.046,19.848,27.33,19.848
		c5.648,0,9.16-1.68,9.16-4.58c0-2.291-4.58-7.939-4.58-23.818c0-7.176,1.68-10.992,5.649-10.992c2.9,0,4.274,2.441,4.274,7.938
		c0,8.246-1.984,17.254-1.984,19.85c0,3.357,2.442,5.344,7.328,5.344c8.397,0,16.031-5.191,20.153-12.826
		c6.107-11.297,10.383-33.283,10.383-44.123C117.867,60.002,115.729,50.842,113.438,46.414L113.438,46.414L113.438,46.414z
		 M71.205,88.961c-3.664,0-7.176-2.291-7.787-5.039c5.191,1.222,9.313,1.833,14.047,1.833
		C76.243,87.738,74.259,88.961,71.205,88.961L71.205,88.961z"/>
</g>
</svg>
