<?xml version="1.0" encoding="utf-8"?>
<!-- Generator: Adobe Illustrator 16.0.0, SVG Export Plug-In . SVG Version: 6.00 Build 0)  -->
<!DOCTYPE svg PUBLIC "-//W3C//DTD SVG 1.1//EN" "http://www.w3.org/Graphics/SVG/1.1/DTD/svg11.dtd">
<svg version="1.1" id="Layer_1" xmlns="http://www.w3.org/2000/svg" xmlns:xlink="http://www.w3.org/1999/xlink" x="0px" y="0px"
	 width="88.934px" height="102.857px" viewBox="0 0 88.934 102.857" enable-background="new 0 0 88.934 102.857"
	 xml:space="preserve">
<g>
	<g>
		<path fill-rule="evenodd" clip-rule="evenodd" d="M45.532,78.332c-3.838,1.123-6.448,0.48-7.723-3.734
			c-1.432-4.738-3.631-9.195-1.281-14.391c1.445-3.195-0.738-5.797-3.523-6.684c-1.975-0.627-4.954-0.303-6.672,0.83
			c-9.354,6.17-15.4,14.955-18.952,25.537c-1.183,3.525-3.157,5.742-7.357,3.842c0.038-0.834-0.133-1.52,0.109-1.73
			c7.596-6.611,8.933-15.953,10.942-24.99c1.895-8.521,4.562-16.689,9.934-22.576c-2.374-5.986-4.51-11.373-6.646-16.758
			c0.502-0.201,1.005-0.402,1.508-0.604c0.76,1.893,1.426,3.83,2.299,5.67c3.078,6.488,6.024,7.605,12.871,6.125
			c5.678-1.23,11.541-1.586,17.26-2.664c1.596-0.301,3.925-1.545,4.246-2.787c0.742-2.869,2.194-6.961-1.543-8.441
			c-3.537-1.4-2.506-3.842-2.041-5.586c0.564-2.117,1.987-4.799,3.793-5.664c10.641-5.098,21.473-4.854,32.199,0.047
			c4.701,2.146,4.775,7.029,2.604,11.531c-2.482,5.146-3.542,11.238-3.991,17.014c-0.297,3.801,2.291,7.768,2.307,11.666
			c0.021,5.172-0.695,10.482-2.017,15.49c-1.983,7.516-5.009,14.754-7.056,22.256c-0.566,2.076,0.766,4.67,1.231,7.023
			c0.267,1.346,1.198,3.166,0.652,3.912c-0.677,0.928-2.704,1.523-3.905,1.238c-1.379-0.326-3.2-1.562-3.562-2.779
			c-0.586-1.973-0.351-4.277-0.083-6.395c0.623-4.951,1.643-9.857,2.158-14.816c0.262-2.523-0.219-5.125-0.375-7.893
			c-4.172,0.576-7.613,0.945-11.002,1.592c-0.947,0.182-2.255,1.021-2.52,1.842c-3.467,10.758-5.188,21.604-1.656,32.781
			c0.397,1.256-0.967,3.068-1.516,4.621c-1.836-0.922-4.23-1.428-5.334-2.9c-0.883-1.178-0.052-3.547-0.229-5.361
			c-1.048-10.689-2.167-21.373-3.263-32.059c-0.787-0.238-1.573-0.477-2.359-0.717c-1.785,2.617-5.047,5.285-4.957,7.834
			C40.182,72.447,43.374,75.133,45.532,78.332z"/>
	</g>
</g>
</svg>
