<?xml version="1.0" encoding="utf-8"?>
<!-- Generator: Adobe Illustrator 16.0.0, SVG Export Plug-In . SVG Version: 6.00 Build 0)  -->
<!DOCTYPE svg PUBLIC "-//W3C//DTD SVG 1.1//EN" "http://www.w3.org/Graphics/SVG/1.1/DTD/svg11.dtd">
<svg version="1.1" id="Layer_1" xmlns="http://www.w3.org/2000/svg" xmlns:xlink="http://www.w3.org/1999/xlink" x="0px" y="0px"
	 width="59.178px" height="19.946px" viewBox="-5.149 0 59.178 19.946" enable-background="new -5.149 0 59.178 19.946"
	 xml:space="preserve">
<g>
	<path fill="#006F96" d="M19.088,16.065c3.704,1.53,7.535,2.938,10.798,3.881c3.932-7.815,11.041-14.014,24.143-19.69V0
		C37.2,4.6,26.67,7.897,19.088,16.065L19.088,16.065z"/>
	<path fill="#006F96" d="M26.583,0.852C22.871,0.677,3.479,0.185-5.149,3.922C-2.816,5.3-0.313,6.731,2.626,8.28
		c8.551-4,19.644-5.447,29.846-6.004v-0.26C30.487,1.774,28.298,1.351,26.583,0.852L26.583,0.852z"/>
	<path fill="#006F96" d="M35.301,2.42c-7.655,0.764-21.206,2.983-28.927,7.792c2.808,1.41,5.741,2.812,8.676,4.115
		C23.179,7.397,33.933,4.325,44.891,2.17V1.915C42.106,2.243,37.9,2.444,35.301,2.42L35.301,2.42z"/>
</g>
</svg>
