<?xml version="1.0" encoding="utf-8"?>
<!-- Generator: Adobe Illustrator 16.0.0, SVG Export Plug-In . SVG Version: 6.00 Build 0)  -->
<!DOCTYPE svg PUBLIC "-//W3C//DTD SVG 1.1//EN" "http://www.w3.org/Graphics/SVG/1.1/DTD/svg11.dtd">
<svg version="1.1" id="Layer_1" xmlns="http://www.w3.org/2000/svg" xmlns:xlink="http://www.w3.org/1999/xlink" x="0px" y="0px"
	 width="261.926px" height="250.367px" viewBox="174.437 271.062 261.926 250.367"
	 enable-background="new 174.437 271.062 261.926 250.367" xml:space="preserve">
<g>
	<g>
		<path fill="#FFFFFF" d="M213.223,521.41v-35.205h-19.754c-10.511,0-19.032,7.88-19.032,17.604c0,9.721,8.521,17.602,19.032,17.602
			h6.052v-7.652h-6.026c-6.111,0-11.087-4.302-11.087-9.948c0-5.65,4.856-9.952,10.964-9.952h12.257v27.554L213.223,521.41
			L213.223,521.41z"/>
		<path fill="#FFFFFF" d="M238.385,484.883c-10.091,0-18.271,6.942-18.271,17.468v19.06h7.431v-19.482
			c0-6.779,5.793-10.69,10.841-10.69c5.043,0,10.736,3.911,10.736,10.69l-0.004,19.482h7.539v-19.06
			C256.656,491.825,248.477,484.883,238.385,484.883z"/>
		<path fill="#FFFFFF" d="M297.808,503.588c0-10.146-6.7-17.383-16.791-17.383h-16.75v7.651h17.154c6.501,0,9.188,4.554,9.188,9.626
			c0,5.07-2.787,10.274-9.289,10.274l-17.154-0.004v7.577h16.75C291.003,521.331,297.808,513.732,297.808,503.588z"/>
		<path fill="#FFFFFF" d="M436.363,503.588c0-10.146-6.704-17.383-16.796-17.383h-16.745v7.651h17.153
			c6.501,0,9.185,4.554,9.185,9.626c0,5.07-2.783,10.274-9.288,10.274l-17.151-0.004v7.577h16.746
			C429.559,521.331,436.363,513.732,436.363,503.588z"/>
		<path fill="#FFFFFF" d="M332.551,509.521c3.238-1.766,4.848-5.005,4.848-10.55c0-9.758-5.184-12.767-15.274-12.767h-16.746v7.651
			h17.154c6.502,0,7.663,2.071,7.663,5.011c0,2.938-0.94,5.455-7.442,5.455l-17.154-0.003l-0.011,7.031h16.749
			c0.16,0,0.315-0.002,0.473-0.004c3.326,0.361,5.917,3.188,5.917,6.618c0,1.103,0.195,2.141-0.276,3.055
			c0.004,0.127,0.461,0.259,0.461,0.391h6.917C335.826,521.41,337.082,513.912,332.551,509.521z"/>
		<path fill="#FFFFFF" d="M344.336,503.303c0,10.013,7.779,18.126,17.375,18.126c9.598,0,17.377-8.113,17.377-18.126
			c0-10.007-7.779-18.121-17.377-18.121C352.115,485.182,344.336,493.296,344.336,503.303z M351.31,503.303
			c0-5.989,4.657-10.851,10.401-10.851c5.745,0,10.402,4.859,10.402,10.851c0,5.996-4.657,10.853-10.402,10.853
			C355.967,514.154,351.31,509.299,351.31,503.303z"/>
		<rect x="387.57" y="486.205" fill="#FFFFFF" width="7.614" height="35.205"/>
	</g>
	<path fill="#FFFFFF" d="M329.877,274.741l0.006,0.027c0.005-0.005,0.009-0.01,0.014-0.015L329.877,274.741z M371.949,327.592
		c-3.754,0-7.322,1.176-10.353,3.4l-0.107-1.249c0.001,0.021,0.001-1.566,0.001-1.566v-0.248h-0.157l-0.086-0.981
		c-1.241-14.364-9.494-27.417-22.653-35.855l4.838-7.022c2.625-3.814,1.725-9.011-2.011-11.583
		c-3.74-2.572-8.917-1.562-11.542,2.251l0.021,0.013c-0.001,0.001-0.002,0.002-0.003,0.003l0.187,0.126
		c-0.002,0.003-0.051,0.075-0.138,0.201l-0.062-0.312c-0.125,0.149-0.312,0.418-0.646,0.902l-1.621,2.353l-4.236,6.148
		c-5.66-1.667-11.59-2.515-17.63-2.515c-6.039,0-11.969,0.848-17.63,2.515l-6.5-9.437c-2.624-3.812-7.798-4.822-11.535-2.252
		c-3.737,2.575-4.641,7.771-2.016,11.584l0.826,1.199l4.013,5.825c-13.158,8.439-21.412,21.493-22.654,35.856l-0.35,4.044
		c-3.03-2.224-6.598-3.4-10.352-3.4c-9.74,0-17.664,8.001-17.664,17.835v43.565c0,9.835,7.924,17.836,17.664,17.836
		c3.946,0,7.793-1.353,10.896-3.812v11.194c0,8.407,6.84,15.247,15.248,15.247h3.092v17.551c0,9.835,7.924,17.836,17.664,17.836
		c9.74,0,17.665-8.001,17.665-17.836v-17.551h3.709v17.551c0,9.835,7.924,17.836,17.664,17.836s17.665-8.001,17.665-17.836v-17.551
		h3.091c8.408,0,15.248-6.84,15.248-15.247v-10.862c3.052,2.277,6.656,3.48,10.459,3.48c9.74,0,17.664-8.001,17.664-17.836v-43.565
		C389.613,335.593,381.689,327.592,371.949,327.592z"/>
	<g>
		<path fill="#A1C05E" d="M371.949,334.279c-6.062,0-10.978,4.991-10.978,11.148v43.565c0,6.157,4.915,11.147,10.978,11.147
			c6.062,0,10.977-4.991,10.977-11.147v-43.565C382.926,339.271,378.012,334.279,371.949,334.279z M239.551,334.279
			c-6.062,0-10.977,4.991-10.977,11.148v43.565c0,6.157,4.915,11.147,10.977,11.147s10.977-4.991,10.977-11.147v-43.565
			C250.527,339.271,245.613,334.279,239.551,334.279z"/>
		<path fill="#A1C05E" d="M257.133,334.617v79.593c0,4.729,3.833,8.56,8.56,8.56h9.779v24.238c0,6.157,4.915,11.148,10.977,11.148
			c6.062,0,10.977-4.991,10.977-11.148V422.77h17.084v24.238c0,6.157,4.915,11.148,10.978,11.148
			c6.062,0,10.978-4.991,10.978-11.148V422.77h9.778c4.729,0,8.561-3.832,8.561-8.56v-79.593H257.133z"/>
		<path fill="#A1C05E" d="M328.901,293.373l9.021-13.097c0.535-0.778,0.402-1.8-0.298-2.282s-1.702-0.243-2.237,0.536l-9.372,13.604
			c-6.176-2.433-13.038-3.789-20.267-3.789c-7.229,0-14.09,1.356-20.266,3.789l-9.372-13.604c-0.536-0.778-1.538-1.018-2.238-0.536
			s-0.833,1.504-0.297,2.282l9.022,13.097c-14.344,6.673-24.404,19.352-25.684,34.151h97.67
			C353.305,312.725,343.245,300.046,328.901,293.373z M285.147,314.014c-2.984,0-5.404-2.419-5.404-5.404
			c0-2.984,2.419-5.404,5.404-5.404s5.404,2.419,5.404,5.404C290.551,311.595,288.132,314.014,285.147,314.014z M327.028,314.014
			c-2.984,0-5.403-2.419-5.403-5.404c0-2.984,2.419-5.404,5.403-5.404s5.403,2.419,5.403,5.404
			C332.433,311.595,330.014,314.014,327.028,314.014z"/>
	</g>
</g>
</svg>
