<?xml version="1.0" encoding="utf-8"?>
<!-- Generator: Adobe Illustrator 16.0.0, SVG Export Plug-In . SVG Version: 6.00 Build 0)  -->
<!DOCTYPE svg PUBLIC "-//W3C//DTD SVG 1.1//EN" "http://www.w3.org/Graphics/SVG/1.1/DTD/svg11.dtd">
<svg version="1.1" id="Layer_1" xmlns="http://www.w3.org/2000/svg" xmlns:xlink="http://www.w3.org/1999/xlink" x="0px" y="0px"
	 width="175.748px" height="102.366px" viewBox="271.504 309.195 175.748 102.366"
	 enable-background="new 271.504 309.195 175.748 102.366" xml:space="preserve">
<g>
	<path d="M371.884,322.584c1.757-2.12,11.244-13.35,11.244-13.35h19.896h15.906c18.13,0,30.812,9.495,27.907,21.696
		c-2.896,12.201-20.172,21.698-38.217,21.698h-24l7.204-30.31h16.92l-4.932,20.756h3.799c10.099,0,19.662-3.684,21.672-12.145
		c1.847-7.769-4.854-12.144-15.732-12.144h-3.97l-16.468,0.015l-38.875,43.88l-15.27-43.116c0,0-0.11-0.276-0.252-0.647
		c-0.036-0.088-0.327-0.396-0.482-0.336c-0.284,0.106-0.24,0.601-0.19,0.708c0.124,0.265,0.162,0.366,0.195,0.495
		c1.363,3.328,1.44,8.913,0.888,11.145c-3.021,12.172-20.176,21.698-38.218,21.698h-24l7.2-30.309h16.92l-4.931,20.756h3.798
		c10.101,0,19.609-3.684,21.62-12.145c1.846-7.769-4.8-12.144-15.677-12.144h-3.97l-16.921-0.007l2.27-9.545h22.418l29.735-0.038
		v0.038h12.243c0,0,3.457,10.124,4.53,13.188c5.13,14.653,4.279,15.644,4.279,15.644S359.812,337.122,371.884,322.584
		L371.884,322.584z"/>
	<path d="M272.154,374.586c0-6.475,37.025-11.721,82.693-11.721s82.694,5.246,82.694,11.721c0,6.471-37.025,11.719-82.694,11.719
		C309.179,386.305,272.154,381.057,272.154,374.586L272.154,374.586z M351.854,378.723c10.431,0,18.885-1.752,18.885-3.906
		c0-2.157-8.454-3.907-18.885-3.907c-10.428,0-18.882,1.75-18.882,3.907C332.973,376.971,341.427,378.723,351.854,378.723
		L351.854,378.723z"/>
	<polygon points="431.215,383.936 430.451,383.936 430.118,386.303 429.747,386.303 430.08,383.936 429.317,383.936 
		429.365,383.596 431.26,383.596 	"/>
	<polygon points="434.02,386.303 433.662,386.303 433.662,384.252 433.655,384.252 432.567,386.303 432.1,384.23 432.093,384.23 
		431.426,386.303 431.069,386.303 431.961,383.596 432.271,383.596 432.693,385.432 433.662,383.596 434.02,383.596 	"/>
	<polygon points="280.598,409.764 278.06,409.764 271.504,395.91 275.324,395.91 279.323,405.152 283.359,395.91 287.153,395.91 	
		"/>
	<polygon points="290.223,409.764 290.223,395.91 293.774,395.91 293.774,409.764 	"/>
	<path d="M300.951,407.385v-9.135h2.337c1.876,0,3.314,0.408,4.317,1.219c1,0.814,1.501,1.979,1.501,3.5
		c0,0.685-0.126,1.316-0.378,1.898c-0.251,0.584-0.595,1.049-1.029,1.396c-0.503,0.41-1.067,0.701-1.691,0.869
		c-0.625,0.168-1.514,0.252-2.67,0.252L300.951,407.385L300.951,407.385z M306.917,409.525c0.822-0.16,1.566-0.427,2.229-0.793
		c1.192-0.648,2.104-1.472,2.729-2.468c0.625-0.993,0.938-2.114,0.938-3.358c0-1.271-0.282-2.396-0.85-3.377
		c-0.568-0.984-1.394-1.789-2.477-2.41c-0.767-0.441-1.589-0.758-2.472-0.938c-0.881-0.182-2.07-0.271-3.564-0.271h-6.13v13.854
		h6.229C304.971,409.764,306.093,409.686,306.917,409.525L306.917,409.525z"/>
	<polygon points="325.367,409.764 315.494,409.764 315.494,395.91 325.367,395.91 325.367,398.33 319.044,398.33 319.044,401.529 
		325.367,401.529 325.367,403.91 319.044,403.91 319.044,407.344 325.367,407.344 	"/>
	<path d="M341.924,399.701c1.101,0.838,1.653,1.846,1.653,3.022c0,1.295-0.547,2.377-1.639,3.242
		c-1.095,0.867-2.435,1.301-4.021,1.301c-1.513,0-2.841-0.442-3.983-1.332c-1.144-0.887-1.713-1.932-1.713-3.137
		c0-1.227,0.554-2.26,1.663-3.098c1.109-0.836,2.47-1.254,4.083-1.254C339.504,398.447,340.823,398.865,341.924,399.701
		L341.924,399.701z M329.132,405.545c0.441,0.854,1.085,1.625,1.935,2.312c0.906,0.723,1.935,1.268,3.085,1.631
		c1.149,0.367,2.4,0.551,3.752,0.551c1.274,0,2.5-0.189,3.669-0.561c1.171-0.375,2.202-0.914,3.092-1.621
		c0.855-0.681,1.515-1.459,1.97-2.339c0.459-0.875,0.688-1.797,0.688-2.764c0-0.951-0.247-1.861-0.738-2.733
		c-0.491-0.873-1.195-1.646-2.109-2.318c-0.89-0.672-1.897-1.185-3.027-1.535c-1.13-0.354-2.304-0.533-3.521-0.533
		c-2.67,0-4.913,0.689-6.73,2.068c-1.817,1.377-2.728,3.078-2.728,5.104C328.471,403.779,328.692,404.693,329.132,405.545
		L329.132,405.545z"/>
	<polygon points="352.257,411.561 350.518,411.561 356.505,395.91 358.246,395.91 	"/>
	<path d="M367.764,404.301l2.229-4.467l2.163,4.467H367.764L367.764,404.301z M373.339,406.879l1.436,2.885h3.879l-7.04-13.854
		h-3.096l-7.114,13.854h3.7l1.425-2.885H373.339L373.339,406.879z"/>
	<path d="M382.014,395.91h3.589v7.981v0.15c0,1.16,0.18,1.979,0.534,2.459c0.356,0.486,0.95,0.727,1.78,0.727
		c0.849,0,1.449-0.243,1.801-0.729c0.354-0.488,0.53-1.357,0.53-2.607v-7.981h3.587v8.787c0,1-0.071,1.744-0.211,2.221
		c-0.144,0.48-0.379,0.904-0.706,1.264c-0.591,0.642-1.282,1.109-2.074,1.41c-0.796,0.297-1.767,0.447-2.919,0.447
		c-1.137,0-2.104-0.15-2.906-0.447c-0.802-0.301-1.492-0.77-2.073-1.41c-0.328-0.358-0.562-0.768-0.712-1.217
		c-0.146-0.451-0.22-1.143-0.22-2.078v-0.188V395.91L382.014,395.91z"/>
	<path d="M401.526,407.385v-9.135h2.335c1.875,0,3.316,0.408,4.317,1.219c0.998,0.814,1.501,1.979,1.501,3.5
		c0,0.685-0.127,1.316-0.379,1.898c-0.251,0.584-0.592,1.049-1.029,1.396c-0.502,0.41-1.067,0.701-1.689,0.869
		c-0.623,0.168-1.516,0.252-2.67,0.252L401.526,407.385L401.526,407.385z M407.488,409.525c0.822-0.16,1.567-0.427,2.231-0.793
		c1.194-0.648,2.104-1.472,2.729-2.468c0.627-0.993,0.938-2.114,0.938-3.358c0-1.271-0.284-2.396-0.849-3.377
		c-0.569-0.984-1.396-1.789-2.479-2.41c-0.763-0.441-1.588-0.758-2.47-0.938c-0.881-0.182-2.067-0.271-3.563-0.271h-6.133v13.854
		h6.229C405.544,409.764,406.665,409.686,407.488,409.525L407.488,409.525z"/>
	<polygon points="416.065,409.764 416.065,395.91 419.619,395.91 419.619,409.764 	"/>
	<path d="M436.304,399.701c1.102,0.838,1.648,1.846,1.648,3.022c0,1.295-0.543,2.377-1.64,3.242
		c-1.091,0.867-2.431,1.301-4.019,1.301c-1.514,0-2.841-0.442-3.982-1.332c-1.144-0.887-1.712-1.932-1.712-3.137
		c0-1.227,0.551-2.26,1.661-3.098c1.106-0.836,2.472-1.254,4.082-1.254C433.883,398.447,435.202,398.865,436.304,399.701
		L436.304,399.701z M423.513,405.545c0.44,0.854,1.085,1.625,1.935,2.312c0.902,0.723,1.934,1.268,3.084,1.631
		c1.15,0.367,2.401,0.551,3.752,0.551c1.273,0,2.498-0.189,3.67-0.561c1.172-0.375,2.2-0.914,3.093-1.621
		c0.855-0.681,1.511-1.459,1.97-2.339c0.458-0.875,0.688-1.797,0.688-2.764c0-0.951-0.247-1.861-0.739-2.733
		c-0.491-0.873-1.189-1.646-2.107-2.318c-0.89-0.672-1.901-1.185-3.03-1.535c-1.127-0.354-2.302-0.533-3.517-0.533
		c-2.672,0-4.917,0.689-6.731,2.068c-1.817,1.377-2.729,3.078-2.729,5.104C422.85,403.779,423.071,404.693,423.513,405.545
		L423.513,405.545z"/>
</g>
</svg>
