<?xml version="1.0" encoding="utf-8"?>
<!-- Generator: Adobe Illustrator 16.0.0, SVG Export Plug-In . SVG Version: 6.00 Build 0)  -->
<!DOCTYPE svg PUBLIC "-//W3C//DTD SVG 1.1//EN" "http://www.w3.org/Graphics/SVG/1.1/DTD/svg11.dtd">
<svg version="1.1" id="Layer_1" xmlns="http://www.w3.org/2000/svg" xmlns:xlink="http://www.w3.org/1999/xlink" x="0px" y="0px"
	 width="177.152px" height="187.088px" viewBox="270.802 266.833 177.152 187.088"
	 enable-background="new 270.802 266.833 177.152 187.088" xml:space="preserve">
<g>
	<polygon points="419.754,421.615 421.601,421.615 421.601,420.936 417.129,420.936 417.129,421.615 418.976,421.615 
		418.976,427.447 419.754,427.447 	"/>
	<polygon points="422.28,427.447 422.961,427.447 422.961,421.615 425.002,427.447 425.585,427.447 427.724,421.615 
		427.724,427.447 428.501,427.447 428.501,420.936 427.335,420.936 425.391,426.377 423.35,420.936 422.28,420.936 	"/>
	<path fill="#4D90CD" d="M380.293,290.405c11.761-8.164,44.709-27.117,59.482-15.065c9.719,7.873,4.374,24.396,2.041,31.199
		c-0.39,1.75,1.651,2.042,2.041,0.389c4.858-12.247,6.316-28.672-0.777-35.087c-15.648-14.093-52.484,4.957-69.688,15.454
		L380.293,290.405L380.293,290.405z"/>
	<path fill="#4D90CD" d="M441.816,380.795l-55.399-0.098c-2.333,11.469-10.108,17.592-22.258,17.592
		c-15.259,0-25.756-8.359-26.437-27.699l105.163-0.098c0.194-3.984-0.292-6.805-0.292-9.914c0-44.222-32.268-76.685-82.128-76.685
		c-23.132,0-41.792,6.803-55.983,19.633c-16.134,14.773-25.075,34.115-25.075,56.469c0,23.229,10.982,45.292,29.741,59.579
		c14.093,10.594,31.977,15.938,53.94,15.938C403.426,435.514,431.708,413.256,441.816,380.795L441.816,380.795z"/>
	<path fill="#FFFFFF" d="M337.529,346.291c0.292-16.814,12.343-24.104,24.978-24.104c13.315,0,24.104,7.679,24.104,24.104H337.529
		L337.529,346.291z"/>
	<path fill="#FFFFFF" d="M275.617,399.455c17.105-49.859,53.456-84.849,71.631-95.734c-0.097,0-0.097,0.292,0,0
		c1.36-0.68,0.486-2.43-0.972-1.75c-9.72,5.054-47.721,24.881-70.173,64.05C277.658,367.771,273.868,397.705,275.617,399.455
		L275.617,399.455z"/>
	<path fill="#4D90CD" d="M282.226,450.385c-20.021-12.635-10.011-47.041,1.847-71.533l9.233,19.826
		c-8.358,17.883-13.024,36.935-3.985,43.736c11.663,8.748,35.669,1.07,52.775-9.33l5.54,0.486
		C325.574,448.246,297.68,460.104,282.226,450.385L282.226,450.385z"/>
</g>
</svg>
