<?xml version="1.0" encoding="utf-8"?>
<!-- Generator: Adobe Illustrator 16.0.0, SVG Export Plug-In . SVG Version: 6.00 Build 0)  -->
<!DOCTYPE svg PUBLIC "-//W3C//DTD SVG 1.1//EN" "http://www.w3.org/Graphics/SVG/1.1/DTD/svg11.dtd">
<svg version="1.1" id="Layer_1" xmlns="http://www.w3.org/2000/svg" xmlns:xlink="http://www.w3.org/1999/xlink" x="0px" y="0px"
	 width="179.551px" height="20.978px" viewBox="310.225 289.512 179.551 20.978"
	 enable-background="new 310.225 289.512 179.551 20.978" xml:space="preserve">
<g>
	<path id="path42088" fill="#404041" d="M363.812,296.786l3.701-5.364c0.7-1.01,1.604-1.516,2.712-1.516
		c0.903,0,1.687,0.321,2.348,0.962c0.66,0.642,0.991,1.409,0.991,2.303c0,0.661-0.176,1.244-0.525,1.75l-3.338,4.854l4.081,5.174
		c0.409,0.516,0.611,1.117,0.611,1.808c0,0.914-0.319,1.698-0.961,2.354c-0.643,0.656-1.419,0.984-2.332,0.984
		c-1.002,0-1.765-0.326-2.289-0.979l-5-6.238v3.439c0,0.981-0.17,1.744-0.51,2.289c-0.622,0.99-1.525,1.486-2.711,1.486
		c-1.079,0-1.915-0.363-2.508-1.094c-0.554-0.671-0.831-1.561-0.831-2.667v-12.755c0-1.049,0.282-1.914,0.846-2.594
		c0.594-0.719,1.409-1.079,2.449-1.079c0.991,0,1.816,0.36,2.479,1.079c0.368,0.398,0.603,0.801,0.699,1.209
		c0.06,0.252,0.088,0.724,0.088,1.414V296.786L363.812,296.786z M346.977,289.512c2.421-0.01,4.646,0.802,6.677,2.435
		c1.594,1.282,2.391,2.609,2.391,3.979c0,1.166-0.486,2.07-1.457,2.711c-0.555,0.37-1.157,0.554-1.808,0.554
		c-0.535,0-1.045-0.126-1.531-0.379c-0.203-0.107-0.709-0.598-1.516-1.472c-0.748-0.816-1.687-1.225-2.812-1.225
		c-1.089,0-2,0.377-2.733,1.13c-0.732,0.753-1.101,1.674-1.101,2.763c0,1.079,0.367,1.995,1.101,2.748
		c0.733,0.754,1.641,1.13,2.72,1.13c0.894,0,1.725-0.301,2.492-0.903c0.476-0.457,0.946-0.912,1.413-1.371
		c0.506-0.437,1.146-0.655,1.925-0.655c0.894,0,1.669,0.313,2.324,0.94s0.983,1.388,0.983,2.28c0,1.216-0.714,2.444-2.143,3.688
		c-2.002,1.75-4.314,2.625-6.938,2.625c-1.623,0-3.153-0.346-4.591-1.035c-1.817-0.875-3.263-2.16-4.337-3.855
		s-1.61-3.55-1.61-5.562c0-3.012,1.117-5.577,3.354-7.696C341.749,290.474,344.148,289.532,346.977,289.512z M335.173,293.973
		v12.345c0,1.07-0.276,1.949-0.831,2.639c-0.593,0.759-1.414,1.139-2.463,1.139c-0.962,0-1.772-0.354-2.435-1.064
		c-0.555-0.594-0.831-1.496-0.831-2.711v-12.346c0-1.38,0.276-2.381,0.831-3.003c0.632-0.709,1.442-1.064,2.435-1.064
		s1.802,0.35,2.436,1.05C334.886,291.597,335.173,292.603,335.173,293.973z M316.785,296.786l3.702-5.364
		c0.698-1.01,1.604-1.516,2.711-1.516c0.903,0,1.686,0.321,2.347,0.962c0.661,0.642,0.991,1.409,0.991,2.303
		c0,0.661-0.175,1.244-0.524,1.75l-3.338,4.854l4.081,5.174c0.408,0.516,0.612,1.117,0.612,1.808c0,0.914-0.321,1.698-0.962,2.354
		c-0.643,0.656-1.419,0.984-2.332,0.984c-1.001,0-1.765-0.326-2.289-0.979l-4.999-6.238v3.439c0,0.981-0.171,1.744-0.511,2.289
		c-0.621,0.99-1.525,1.486-2.712,1.486c-1.077,0-1.913-0.363-2.507-1.094c-0.554-0.671-0.831-1.561-0.831-2.667v-12.755
		c0-1.049,0.281-1.914,0.847-2.594c0.593-0.719,1.407-1.079,2.447-1.079c0.991,0,1.817,0.36,2.479,1.079
		c0.369,0.398,0.602,0.801,0.699,1.209c0.059,0.252,0.088,0.724,0.088,1.414V296.786"/>
	<path id="path42090" fill="#85C442" d="M487.588,302.281l1.546,2.478c0.427,0.69,0.642,1.4,0.642,2.13
		c0,0.922-0.318,1.688-0.955,2.295s-1.416,0.912-2.339,0.912c-1.188,0-2.085-0.507-2.696-1.518l-2.74-4.489v2.696
		c0,0.924-0.305,1.706-0.911,2.347c-0.606,0.642-1.373,0.964-2.296,0.964c-1.128,0-1.981-0.404-2.564-1.212
		c-0.525-0.709-0.787-1.642-0.787-2.798v-12.259c0-2.517,1.354-3.775,4.065-3.775h4.169c1.37,0,2.644,0.396,3.818,1.188
		c1.176,0.792,2.036,1.82,2.58,3.083c0.408,0.952,0.612,1.909,0.612,2.871C489.73,298.992,489.017,300.688,487.588,302.281z
		 M466.484,303.797h2.98c1.232,0,2.148,0.253,2.75,0.76c0.708,0.603,1.062,1.379,1.062,2.332c0,0.971-0.354,1.758-1.064,2.36
		c-0.554,0.467-1.462,0.699-2.725,0.699h-5.116c-1.206,0-2.031-0.093-2.479-0.276c-0.875-0.359-1.452-0.947-1.733-1.765
		c-0.176-0.524-0.263-1.384-0.263-2.58v-10.815c0-0.904,0.028-1.511,0.087-1.822c0.106-0.631,0.364-1.166,0.772-1.603
		c0.466-0.496,1.06-0.812,1.778-0.948c0.34-0.058,1.028-0.087,2.069-0.087h3.921c1.068,0,1.69,0.01,1.865,0.029
		c0.699,0.068,1.272,0.272,1.721,0.612c0.796,0.603,1.194,1.39,1.194,2.361c0,1.049-0.35,1.852-1.047,2.405
		c-0.621,0.496-1.469,0.744-2.546,0.744h-3.229v1.355h2.572c0.757,0,1.382,0.199,1.875,0.598c0.523,0.427,0.785,1.015,0.785,1.763
		c0,1.584-0.965,2.376-2.893,2.376h-2.341v1.502H466.484z M447.041,296.159h-1.735c-0.962,0-1.758-0.262-2.391-0.787
		c-0.67-0.563-1.006-1.316-1.006-2.259c0-0.563,0.158-1.105,0.474-1.625c0.316-0.52,0.726-0.889,1.226-1.108
		c0.501-0.218,1.688-0.328,3.562-0.328h6.618c1.622,0,2.672,0.097,3.148,0.292c0.523,0.214,0.949,0.581,1.274,1.1
		c0.325,0.521,0.488,1.067,0.488,1.64c0,0.904-0.359,1.691-1.079,2.362c-0.515,0.476-1.354,0.714-2.521,0.714h-1.5v9.912
		c0,1.078-0.185,1.914-0.554,2.507c-0.622,0.991-1.521,1.485-2.696,1.485s-2.08-0.451-2.712-1.354
		c-0.397-0.563-0.597-1.418-0.597-2.563V296.159L447.041,296.159z M439.245,302.281l1.545,2.478c0.428,0.69,0.642,1.4,0.642,2.13
		c0,0.922-0.317,1.688-0.955,2.295c-0.636,0.607-1.414,0.912-2.338,0.912c-1.187,0-2.085-0.507-2.696-1.518l-2.741-4.489v2.696
		c0,0.924-0.303,1.706-0.91,2.347c-0.607,0.642-1.373,0.964-2.296,0.964c-1.128,0-1.982-0.404-2.565-1.212
		c-0.523-0.709-0.787-1.642-0.787-2.798v-12.259c0-2.517,1.355-3.775,4.066-3.775h4.17c1.369,0,2.644,0.396,3.818,1.188
		c1.176,0.792,2.035,1.82,2.58,3.083c0.406,0.952,0.611,1.909,0.611,2.871C441.389,298.992,440.674,300.688,439.245,302.281
		L439.245,302.281z M411.996,307.368c-0.312,0.739-0.632,1.288-0.963,1.647c-0.66,0.719-1.462,1.078-2.404,1.078
		c-1.156,0-2.056-0.467-2.696-1.4c-0.379-0.553-0.567-1.174-0.567-1.864c0-0.573,0.136-1.151,0.408-1.733l6.224-13.25
		c0.603-1.292,1.608-1.939,3.017-1.939c1.43,0,2.454,0.666,3.076,1.997l6.282,13.352c0.253,0.535,0.379,1.063,0.379,1.589
		c0,0.777-0.253,1.469-0.758,2.069c-0.661,0.788-1.507,1.183-2.536,1.183c-0.846,0-1.55-0.264-2.114-0.789
		c-0.418-0.388-0.835-1.033-1.253-1.938L411.996,307.368L411.996,307.368z M396.049,296.159h-1.733c-0.963,0-1.76-0.262-2.391-0.787
		c-0.671-0.563-1.007-1.316-1.007-2.259c0-0.563,0.158-1.105,0.474-1.625c0.316-0.52,0.726-0.889,1.226-1.108
		c0.501-0.218,1.688-0.328,3.563-0.328h6.617c1.623,0,2.673,0.097,3.148,0.292c0.524,0.214,0.95,0.581,1.274,1.1
		c0.326,0.521,0.488,1.067,0.488,1.64c0,0.904-0.359,1.691-1.078,2.362c-0.516,0.476-1.354,0.714-2.521,0.714h-1.502v9.912
		c0,1.078-0.186,1.914-0.555,2.507c-0.622,0.991-1.521,1.485-2.695,1.485c-1.178,0-2.08-0.451-2.712-1.354
		c-0.398-0.563-0.599-1.418-0.599-2.563L396.049,296.159L396.049,296.159z M378.499,302.427c0.729,0,1.507,0.321,2.333,0.964
		c1.029,0.807,1.734,1.209,2.113,1.209c0.562,0,0.845-0.291,0.845-0.875c0-0.319-0.164-0.593-0.495-0.815
		c-0.175-0.117-1.156-0.49-2.944-1.123c-2.925-1.03-4.387-2.935-4.387-5.714c0-2.098,0.772-3.755,2.317-4.97
		c1.351-1.059,3.021-1.589,5.014-1.589c1.72,0,3.217,0.411,4.489,1.231c1.272,0.821,1.91,1.878,1.91,3.171
		c0,0.778-0.241,1.426-0.723,1.946c-0.48,0.52-1.104,0.779-1.873,0.779c-0.807,0-1.7-0.383-2.683-1.151
		c-0.611-0.476-1.073-0.714-1.384-0.714c-0.535,0-0.803,0.262-0.803,0.787c0,0.496,0.66,0.948,1.981,1.356
		c1.827,0.573,3.241,1.273,4.242,2.099c1.331,1.108,1.997,2.663,1.997,4.665c0,2.178-0.748,3.877-2.245,5.103
		c-1.39,1.137-3.196,1.706-5.422,1.706c-2.227,0-4.067-0.594-5.524-1.779c-1.166-0.941-1.749-2.045-1.749-3.309
		c0-0.846,0.286-1.551,0.86-2.113C376.944,302.725,377.654,302.438,378.499,302.427"/>
</g>
</svg>
