<?xml version="1.0" encoding="utf-8"?>
<!-- Generator: Adobe Illustrator 16.0.0, SVG Export Plug-In . SVG Version: 6.00 Build 0)  -->
<!DOCTYPE svg PUBLIC "-//W3C//DTD SVG 1.1//EN" "http://www.w3.org/Graphics/SVG/1.1/DTD/svg11.dtd">
<svg version="1.1" id="Layer_1" xmlns="http://www.w3.org/2000/svg" xmlns:xlink="http://www.w3.org/1999/xlink" x="0px" y="0px"
	 width="169.084px" height="171.916px" viewBox="274.837 274.42 169.084 171.916"
	 enable-background="new 274.837 274.42 169.084 171.916" xml:space="preserve">
<g>
	<polygon fill="#00B49B" points="350.801,357.814 326.009,350.376 293.327,362.098 287.692,364.352 311.358,371.789 	"/>
	<polygon fill="#00B49B" points="391.371,369.984 355.985,382.383 350.125,384.186 326.009,376.746 366.128,362.322 	"/>
	<polygon fill="#00B49B" points="406.698,374.494 365.451,389.369 388.667,397.031 426.758,383.508 431.266,381.48 	"/>
	<polygon fill="#FDB913" points="388.667,397.031 365.451,389.369 342.236,397.709 365.902,405.146 	"/>
	<path fill="#FDB913" d="M326.009,376.746l24.116,7.439c-20.285,6.762-39.894,7.438-59.052,2.254
		c-10.143-2.705-15.777-6.312-16.228-11.271c-0.226-3.381,4.282-7.213,12.847-10.817l23.667,7.438l-6.085,2.254
		c-1.804,0.676-3.381,1.576-4.508,2.254c-1.127,1.127-0.676,2.254,1.127,3.381l9.016,1.127l9.466-1.805L326.009,376.746
		L326.009,376.746z"/>
	<polygon fill="#3876BB" points="338.405,346.319 362.747,353.306 350.801,357.814 326.009,350.376 	"/>
	<path fill="#3876BB" d="M366.128,362.322c11.72-4.508,22.989-6.762,33.809-6.987c9.467-0.451,19.608,0.676,29.751,4.057
		c9.017,2.93,13.976,6.311,14.199,10.592c0.451,4.51-3.604,8.115-12.621,11.496l-24.566-6.986l8.339-3.156
		c3.381-1.127,4.959-2.254,4.508-3.605c-0.451-1.127-1.578-2.028-4.057-2.256l-8.34-0.449l-6.312,1.578l-9.467,3.379
		L366.128,362.322L366.128,362.322z"/>
	<path fill="#ED1C24" d="M337.954,274.42v122.162l27.948,8.564V303.044c0-2.704,0.226-4.508,1.353-5.635
		c1.127-1.578,2.254-1.803,3.832-1.127c3.831,1.127,5.634,4.508,5.634,10.143v41.021c8.565,4.057,16.229,4.508,21.863,0.226
		c5.859-4.057,9.015-11.27,9.015-22.089c0-11.269-2.253-19.833-7.212-25.469c-4.508-6.085-12.396-11.044-24.117-15.101
		C360.943,280.055,348.096,276.449,337.954,274.42L337.954,274.42z"/>
	<path fill="#FFFFFF" d="M275.03,417.711v20.736h2.93v-18.935h3.155c1.352,0,2.479,0.451,2.93,0.902
		c0.451,0.676,0.676,1.803,0.676,3.604c0,1.578,0,2.705-0.226,3.382c-0.451,0.901-1.578,1.127-2.705,1.127h-1.803v1.578h2.93
		c1.804,0.45,2.931,0,3.382-0.677c1.126-1.127,1.803-3.155,1.803-5.635c0-2.705-0.676-4.508-2.479-5.408l-3.832-0.678h-6.761
		V417.711z"/>
	<polygon fill="#FFFFFF" points="290.356,438.447 293.737,438.447 293.737,417.711 290.356,417.711 	"/>
	<polygon fill="#FFFFFF" points="311.091,422.67 316.727,437.996 313.346,446.336 316.05,446.336 326.192,422.67 323.037,422.67 
		318.53,434.164 314.923,422.67 	"/>
	<path fill="#FFFFFF" d="M330.701,422.67l0.225,2.254l2.028,1.127l2.254,0.226c1.127,0,2.254,0.45,2.93,1.578
		c0.677,0.676,1.126,2.254,1.126,4.057c0,2.705-0.449,4.283-1.576,4.959c-0.227,0.676-1.128,1.127-2.255,1.578h-6.986v-2.254
		l4.057,0.225c1.127,0,2.254-0.225,2.93-1.127l0.451-2.479v-2.255c-0.451-0.901-1.127-1.127-1.803-1.127l-2.705-0.45
		c-1.127,0-2.254-0.451-2.705-1.127c-0.676-1.128-1.126-2.255-1.126-4.058c0-2.254,0.451-3.832,1.126-4.959l2.705-1.127h6.312v1.803
		h-3.606l-2.705,0.902L330.701,422.67L330.701,422.67z"/>
	<path fill="#FFFFFF" d="M346.027,419.514h-3.381v15.554l0.45,1.352c0,1.127,0.677,2.029,2.479,2.029h3.155v-2.254l-1.577,0.225
		l-1.127-1.127v-10.818h3.832v-1.803h-3.832V419.514L346.027,419.514z"/>
	<polygon fill="#FFFFFF" points="376.905,438.447 380.286,438.447 380.286,422.67 376.905,422.67 	"/>
	<polygon fill="#FFFFFF" points="376.905,420.416 380.286,420.416 380.286,417.711 376.905,417.711 	"/>
	<path fill="#FFFFFF" d="M385.471,423.797c1.126-1.127,2.704-1.578,4.958-1.578s3.606,0.451,4.509,1.578
		c1.353,1.127,2.254,3.381,2.254,6.762c0,3.382-0.901,5.636-2.254,6.763c-1.128,0.676-2.704,1.127-4.509,1.127
		c-2.254,0-3.832-0.451-4.958-1.127c-1.127-1.127-1.804-3.381-1.804-6.763C383.667,427.178,384.344,424.924,385.471,423.797
		L385.471,423.797z M388.175,425.6c-0.9,0.677-1.127,2.254-1.127,4.959c0,2.479,0.227,4.058,1.127,4.732
		c0.227,0.902,1.127,1.127,2.254,1.127l2.254-1.127c0.678-0.676,1.127-2.254,1.127-4.732c0-2.704-0.449-4.282-1.127-4.959
		c-0.449-0.676-1.127-1.127-2.254-1.127S388.4,424.924,388.175,425.6L388.175,425.6z"/>
	<path fill="#FFFFFF" d="M400.571,422.67v15.777h3.381v-13.523l2.931-0.451c1.126,0,1.803,0.451,2.254,1.127l0.677,2.255v10.594
		h3.154v-11.045c0-1.804-0.45-2.931-1.127-4.058c-1.127-0.676-2.254-1.127-4.282-0.676H400.571L400.571,422.67z"/>
	<path fill="#FFFFFF" d="M370.369,419.514h-2.932v16.904c0.451,1.127,1.129,2.029,2.705,2.029h3.383v-2.254l-1.578,0.225
		l-1.578-1.127v-10.818h3.832v-1.803h-3.832V419.514L370.369,419.514z"/>
	<path fill="#FFFFFF" d="M303.879,422.67c2.029-0.451,3.156,0,3.832,0.676c1.127,1.127,1.578,2.254,1.578,4.058v10.594l-6.085,0.451
		l-4.057-0.902c-1.578-0.225-2.254-1.803-2.254-4.057c0-1.804,0.226-2.931,1.353-3.832c1.127-0.676,2.253-1.127,4.282-1.127h1.803
		v2.028h-1.127c-1.127,0-1.803,0.226-2.254,0.677l-0.676,1.803l1.127,2.705l2.479,0.451h2.254v-8.341
		c0-1.127-0.226-1.803-0.676-2.254c-0.451-0.676-1.127-1.127-2.254-1.127l-4.057,0.451v-2.254H303.879L303.879,422.67z"/>
	<path fill="#FFFFFF" d="M358.424,422.67c1.577-0.451,2.704,0,3.381,0.676c1.127,1.127,1.577,2.254,1.577,4.058v10.594l-6.085,0.451
		l-4.057-0.902c-1.578-0.225-2.254-1.803-2.254-4.057c0-1.804,0.225-2.931,1.352-3.832c1.127-0.676,2.254-1.127,4.283-1.127h1.803
		v2.028h-1.127l-2.253,0.677l-0.677,1.803l1.127,2.705l2.93,0.451h1.803v-8.341c0-1.127-0.226-1.803-0.676-2.254
		c-0.45-0.676-1.126-1.127-2.254-1.127l-4.057,0.451v-2.254H358.424L358.424,422.67z"/>
	<path fill="#FFFFFF" d="M416.574,437.545l2.254,0.902l2.254-0.902l0.901-2.254l-0.901-2.254c-0.226-0.225-1.127-0.676-2.254-0.676
		c-1.804,0-2.931,1.127-2.931,2.93L416.574,437.545L416.574,437.545z M417.024,433.488l1.804-0.676l2.028,0.676l0.677,1.803
		c0,2.029-0.677,2.705-2.705,2.705l-1.804-0.676l-0.677-2.029L417.024,433.488L417.024,433.488z"/>
	<path fill="#FFFFFF" d="M418.151,435.742h1.577v1.127h0.678v-1.127l-0.451-0.451v-0.225h0.451v-0.902l-0.451-0.676h-2.254v3.381
		h0.45V435.742L418.151,435.742z M418.151,434.164h1.577v0.902h-1.577V434.164L418.151,434.164z"/>
	<path fill="#FFFFFF" d="M442.269,420.416c0,2.479-0.45,4.057-1.127,4.732c-0.9,1.127-2.704,2.028-5.408,2.028h-3.606
		c-1.127,0-2.254,0.226-2.705,1.127c-0.45,0.226-0.676,1.127-0.676,2.931v5.184h12.622v2.705h-14.65
		c-1.353,0-2.254-0.676-2.254-2.254v-3.832c0.451-3.381,0.901-5.635,1.578-6.762c1.126-1.127,2.704-1.353,4.507-1.353l1.805-0.451
		l2.027,0.451l2.932-1.127l0.676-3.156l-0.676-2.93c-0.678-0.676-1.578-1.127-2.705-1.127h-9.241v-2.254l9.691-0.451
		c2.704,0,4.508,0.902,5.636,2.029C441.367,417.035,441.817,418.389,442.269,420.416L442.269,420.416z"/>
</g>
</svg>
