<?xml version="1.0" encoding="utf-8"?>
<!-- Generator: Adobe Illustrator 16.0.0, SVG Export Plug-In . SVG Version: 6.00 Build 0)  -->
<!DOCTYPE svg PUBLIC "-//W3C//DTD SVG 1.1//EN" "http://www.w3.org/Graphics/SVG/1.1/DTD/svg11.dtd">
<svg version="1.1" xmlns="http://www.w3.org/2000/svg" xmlns:xlink="http://www.w3.org/1999/xlink" x="0px" y="0px"
	 width="30.976px" height="30.849px" viewBox="0 0 30.976 30.849" enable-background="new 0 0 30.976 30.849" xml:space="preserve">
<g id="Grid" display="none">
</g>
<g id="Layer_1">
</g>
<g id="Desktop">
</g>
<g id="Guides">
</g>
<g id="Page_1">
	<g id="Layer_1_1_">
		<rect fill-rule="evenodd" clip-rule="evenodd" fill="#FFFFFF" width="30.976" height="30.849"/>
		
			<linearGradient id="SVGID_1_" gradientUnits="userSpaceOnUse" x1="-201.1816" y1="418.3125" x2="-201.1816" y2="424.6309" gradientTransform="matrix(0.7089 0 0 0.7089 157.6483 -292.3914)">
			<stop  offset="0" style="stop-color:#613050"/>
			<stop  offset="0.5" style="stop-color:#673455"/>
			<stop  offset="1" style="stop-color:#C979AC"/>
		</linearGradient>
		<path fill-rule="evenodd" clip-rule="evenodd" fill="url(#SVGID_1_)" d="M23.199,4.15l3.731,3.463
			c0.008,0.008,0.016,0.015,0.024,0.022c0.008,0.007,0.017,0.016,0.024,0.022c0.004,0.004,0.008,0.008,0.012,0.011
			c0.004,0.004,0.008,0.008,0.012,0.011l0,0c0.227,0.212,0.39,0.374,0.508,0.521c0.349,0.516-0.385,0.412-1.001,0.427H7.802H7.771
			H7.74h-0.03H7.5H7.498c-0.027,0-0.054,0.001-0.081,0.002C7.013,8.629,6.796,8.587,6.49,8.241L6.489,8.24c0,0,0,0,0-0.001
			C6.337,8.041,6.128,7.821,5.84,7.532c0-0.001-0.001-0.002-0.001-0.002C5.834,7.526,5.83,7.521,5.825,7.518
			c-0.004-0.005-0.009-0.01-0.014-0.015c0,0,0-0.001,0-0.001c-0.005-0.005-0.01-0.01-0.014-0.015
			c-0.005-0.005-0.01-0.01-0.015-0.015L2.459,4.15H23.199L23.199,4.15z"/>
		
			<linearGradient id="SVGID_2_" gradientUnits="userSpaceOnUse" x1="-377.1406" y1="465.3477" x2="-377.1406" y2="458.8809" gradientTransform="matrix(0.7089 0 0 0.7089 284.7064 -315.9636)">
			<stop  offset="0" style="stop-color:#613050"/>
			<stop  offset="0.25" style="stop-color:#663354"/>
			<stop  offset="1" style="stop-color:#C979AC"/>
		</linearGradient>
		<path fill-rule="evenodd" clip-rule="evenodd" fill="url(#SVGID_2_)" d="M6.891,10.204v0.09v2.931v0.003v0.009v0.01v0.009
			c0.007,0.185,0.078,0.352,0.188,0.472h0.001c0.109,0.119,0.257,0.194,0.417,0.194c0.001,0,0.001,0,0.001,0H7.5h19.703h0.001h0.001
			c0.159,0,0.307-0.074,0.416-0.193h0.001c0.116-0.127,0.189-0.305,0.189-0.501v-0.002v-3.191V10.03c0-0.194-0.073-0.372-0.19-0.499
			c-0.109-0.119-0.258-0.194-0.417-0.194h-0.001H7.5H7.497c-0.16,0-0.308,0.074-0.417,0.193c-0.116,0.127-0.189,0.305-0.189,0.502
			v0.001V10.204L6.891,10.204z"/>
		<g>
			
				<linearGradient id="SVGID_3_" gradientUnits="userSpaceOnUse" x1="-392.1226" y1="460.9395" x2="-400.2838" y2="472.1725" gradientTransform="matrix(0.7089 0 0 0.7089 284.7064 -315.9636)">
				<stop  offset="0.32" style="stop-color:#CBC8DD"/>
				<stop  offset="0.5576" style="stop-color:#F8F9FB"/>
				<stop  offset="0.68" style="stop-color:#FFFFFF"/>
			</linearGradient>
			<path fill-rule="evenodd" clip-rule="evenodd" fill="url(#SVGID_3_)" d="M1.574,15.243v-4.9l3.139,3.139
				c0.32,0.32,0.669,0.646,0.963,0.99c0.322,0.379,0.458,0.723,0.489,1.215C6.176,15.834,6.179,16,6.181,16.19
				c0.003,0.387-0.005,0.774-0.005,1.161c0,0.491,0.003,0.982,0.005,1.474c0.001,0.297-0.067,0.681-0.524,0.257
				c-0.003-0.002-0.006-0.005-0.008-0.008s-0.005-0.006-0.008-0.009l-0.014-0.014l-3.664-3.664
				C1.856,15.281,1.712,15.21,1.574,15.243L1.574,15.243z"/>
			
				<linearGradient id="SVGID_4_" gradientUnits="userSpaceOnUse" x1="-392.1948" y1="468.8574" x2="-400.1951" y2="479.8688" gradientTransform="matrix(0.7089 0 0 0.7089 284.7064 -315.9636)">
				<stop  offset="0.32" style="stop-color:#CBC8DD"/>
				<stop  offset="0.5576" style="stop-color:#F8F9FB"/>
				<stop  offset="0.68" style="stop-color:#FFFFFF"/>
			</linearGradient>
			<path fill-rule="evenodd" clip-rule="evenodd" fill="url(#SVGID_4_)" d="M1.574,20.654v-4.652l3.238,3.238
				c0.178,0.178,0.355,0.356,0.534,0.532c0.002,0.003,0.005,0.006,0.008,0.008c0.002,0.003,0.005,0.005,0.007,0.008
				c0.001,0,0.002,0.002,0.003,0.003c0.001,0.002,0.003,0.003,0.005,0.005c0.511,0.514,0.728,0.748,0.777,1.282
				c0.042,0.456,0.031,0.958,0.035,1.469c0.004,0.565,0.005,1.126-0.002,1.67c-0.004,0.372-0.03,0.739-0.638,0.131L1.934,20.74
				C1.837,20.644,1.696,20.613,1.574,20.654L1.574,20.654z"/>
			
				<linearGradient id="SVGID_5_" gradientUnits="userSpaceOnUse" x1="-392.0361" y1="452.4463" x2="-400.3888" y2="463.9428" gradientTransform="matrix(0.7089 0 0 0.7089 284.7064 -315.9636)">
				<stop  offset="0.32" style="stop-color:#CBC8DD"/>
				<stop  offset="0.5576" style="stop-color:#F8F9FB"/>
				<stop  offset="0.68" style="stop-color:#FFFFFF"/>
			</linearGradient>
			<path fill-rule="evenodd" clip-rule="evenodd" fill="url(#SVGID_5_)" d="M1.574,9.614V4.269L5.28,7.975
				c0.73,0.73,0.87,0.933,0.896,1.643c0.019,0.533,0.006,1.07,0.005,1.606C6.179,11.812,6.18,12.4,6.182,12.987
				c0,0.33-0.054,0.906-0.851,0.11L1.934,9.7C1.837,9.603,1.696,9.574,1.574,9.614L1.574,9.614z"/>
		</g>
		
			<linearGradient id="SVGID_6_" gradientUnits="userSpaceOnUse" x1="-377.1406" y1="481.4482" x2="-377.1406" y2="474.3359" gradientTransform="matrix(0.7089 0 0 0.7089 284.7064 -315.9636)">
			<stop  offset="0" style="stop-color:#21391D"/>
			<stop  offset="0.25" style="stop-color:#21391D"/>
			<stop  offset="1" style="stop-color:#45B64E"/>
		</linearGradient>
		<path fill-rule="evenodd" clip-rule="evenodd" fill="url(#SVGID_6_)" d="M6.891,21.873v2.586v0.088v0.004
			c0.001,0.228,0.077,0.431,0.199,0.574c0.109,0.13,0.254,0.21,0.409,0.21H7.5h19.703h0.002c0.154-0.001,0.299-0.08,0.408-0.209
			c0.123-0.145,0.199-0.349,0.199-0.576v-0.003V21.08v-0.003c0-0.227-0.077-0.43-0.198-0.575c-0.107-0.126-0.25-0.206-0.403-0.209
			c-0.001,0-0.003,0-0.005,0h-0.001h-0.001H7.5H7.499c0,0,0,0-0.001,0c-0.154,0-0.299,0.08-0.408,0.209
			c-0.122,0.145-0.199,0.35-0.199,0.576v0.002V21.873L6.891,21.873z"/>
		
			<linearGradient id="SVGID_7_" gradientUnits="userSpaceOnUse" x1="-377.1406" y1="473.3359" x2="-377.1406" y2="466.3477" gradientTransform="matrix(0.7089 0 0 0.7089 284.7064 -315.9636)">
			<stop  offset="0" style="stop-color:#2C2E72"/>
			<stop  offset="0.25" style="stop-color:#2C3179"/>
			<stop  offset="1" style="stop-color:#405FAC"/>
		</linearGradient>
		<path fill-rule="evenodd" clip-rule="evenodd" fill="url(#SVGID_7_)" d="M6.891,16.495v2.312v0.007v0.004v0.011v0.01
			c0.005,0.213,0.08,0.403,0.197,0.541c0.108,0.126,0.254,0.205,0.41,0.205c0,0,0,0,0,0H7.5h19.703h0.001h0.001
			c0.155,0,0.301-0.079,0.409-0.205c0.122-0.142,0.197-0.341,0.198-0.563v-0.002v-3.414v-0.003c0-0.221-0.076-0.42-0.197-0.562
			c-0.108-0.126-0.253-0.205-0.409-0.205h-0.001h-0.001H7.5H7.499c0,0,0,0-0.001,0c-0.155,0-0.301,0.079-0.409,0.205
			c-0.122,0.142-0.197,0.341-0.198,0.563v0.001V16.495L6.891,16.495z"/>
		<polygon fill-rule="evenodd" clip-rule="evenodd" fill="#B5BF35" points="5.379,4.792 8.353,4.792 11.126,7.565 8.152,7.565 
			5.379,4.792 		"/>
		<path fill="#2E2E2F" d="M1.531,4.226C1.083,3.712,1.384,3.47,1.924,3.47h20.837c0.598,0,0.662-0.076,1.11,0.341l3.54,3.284
			c1.069,0.991,1.157,1.305,1.157,3.077v2.771c0,0.723,0.037,1.291-0.654,1.291c0.614,0,0.654,0.57,0.654,1.181v3.335
			c0,0.586-0.132,1.188-0.723,1.188c0.61,0,0.723,0.578,0.723,1.322v3.024c0,0.191-0.027,0.405-0.083,0.604
			c-0.055,0.266-0.172,0.506-0.333,0.695c-0.239,0.284-0.574,0.46-0.948,0.461h-0.002c-6.568,0-13.137,0-19.705,0
			c-0.743-0.026-1.183-0.061-1.786-0.534c-0.139-0.091-0.219-0.179-0.354-0.326c-0.073-0.08-0.167-0.183-0.318-0.334l-3.607-3.608
			c-0.138-0.138-0.138-0.362,0-0.501c0.138-0.138,0.363-0.139,0.501,0l3.607,3.607c0.607,0.608,0.633,0.241,0.638-0.131
			c0.007-0.544,0.007-1.104,0.002-1.67c-0.003-0.511,0.007-1.013-0.035-1.469C6.097,20.544,5.88,20.31,5.37,19.796
			c-0.001-0.002-0.003-0.003-0.005-0.005c-0.001-0.001-0.002-0.002-0.003-0.003c-0.002-0.003-0.005-0.005-0.008-0.008
			c-0.003-0.002-0.005-0.005-0.008-0.008c-0.179-0.176-0.356-0.354-0.534-0.533L1.433,15.86c-0.002-0.002-0.004-0.005-0.006-0.007
			c-0.133-0.133-0.144-0.369-0.026-0.5c0.177-0.198,0.409-0.119,0.562,0.034l3.664,3.664l0.015,0.014
			c0.002,0.003,0.005,0.006,0.008,0.009s0.005,0.006,0.008,0.008c0.456,0.424,0.525,0.04,0.524-0.258
			c-0.002-0.49-0.005-0.981-0.005-1.473c0-0.387,0.008-0.774,0.005-1.161C6.18,16,6.175,15.834,6.166,15.686
			c-0.031-0.491-0.167-0.835-0.489-1.214c-0.294-0.344-0.644-0.67-0.964-0.99l-3.28-3.279c-0.138-0.139-0.138-0.363,0-0.502
			c0.138-0.138,0.363-0.138,0.501,0l3.397,3.397c0.796,0.796,0.851,0.22,0.85-0.11c-0.001-0.587-0.001-1.176,0-1.764
			c0.001-0.536,0.015-1.073-0.005-1.606C6.15,8.907,6.011,8.705,5.281,7.975L1.531,4.226L1.531,4.226z M2.467,4.159l3.315,3.314
			C6.1,7.792,6.313,8.041,6.489,8.24C6.88,8.683,7.126,8.628,7.802,8.628h18.707c0.616-0.015,1.35,0.09,1.001-0.428
			c-0.116-0.171-0.314-0.341-0.58-0.587l-3.723-3.454H2.467L2.467,4.159z M27.589,13.76c0.011-0.011,0.022-0.021,0.032-0.032h0.001
			c0.117-0.127,0.189-0.305,0.189-0.501v-0.002v-3.191V10.03c0-0.194-0.073-0.372-0.189-0.499c-0.109-0.119-0.258-0.194-0.418-0.194
			h-0.001H7.5H7.498c-0.16,0-0.309,0.074-0.417,0.193c-0.116,0.127-0.189,0.305-0.189,0.502v0.001v0.172v0.089v2.931v0.003v0.009
			v0.01v0.009c0.007,0.185,0.078,0.352,0.188,0.472h0.001c0.109,0.119,0.257,0.193,0.417,0.194h0.001H7.5h19.703h0.001h0.001
			C27.35,13.921,27.484,13.859,27.589,13.76L27.589,13.76z M6.891,16.495v2.312v0.007v0.004v0.011v0.01
			c0.004,0.213,0.08,0.403,0.197,0.54c0.108,0.127,0.254,0.206,0.41,0.206c0,0,0,0,0,0H7.5h19.703h0.001h0.001
			c0.155,0,0.301-0.079,0.409-0.205c0.122-0.142,0.197-0.342,0.198-0.562v-0.003v-3.414v-0.003c0-0.221-0.076-0.42-0.197-0.562
			c-0.108-0.126-0.254-0.204-0.409-0.205h-0.001h-0.001H7.5H7.499H7.498c-0.156,0.001-0.301,0.079-0.409,0.205
			c-0.121,0.142-0.197,0.341-0.197,0.563v0.001V16.495L6.891,16.495z M6.891,21.873v2.586v0.088v0.004
			c0,0.228,0.077,0.431,0.198,0.574c0.109,0.129,0.254,0.21,0.409,0.21H7.5h19.703h0.002c0.155,0,0.299-0.081,0.408-0.209
			c0.123-0.145,0.199-0.349,0.199-0.576v-0.003V21.08v-0.003c0-0.227-0.077-0.43-0.199-0.575c-0.107-0.126-0.25-0.206-0.402-0.209
			c-0.002,0-0.004,0-0.006,0h-0.001h-0.001H7.5H7.499c0,0,0,0-0.001,0c-0.154,0-0.299,0.081-0.408,0.209
			c-0.123,0.145-0.199,0.35-0.199,0.576v0.002V21.873L6.891,21.873z"/>
		<path fill-rule="evenodd" clip-rule="evenodd" fill="#EAA8CB" d="M27.6,8.433c0.154,0.403,0.203,0.701,0.211,1.575
			c-0.005-0.187-0.077-0.354-0.189-0.477c-0.109-0.119-0.258-0.194-0.417-0.194h-0.001H7.5H7.498C7.337,9.338,7.189,9.412,7.08,9.53
			C6.99,9.628,6.928,9.756,6.903,9.899C6.892,9.407,6.901,8.658,6.749,8.478c0.194,0.13,0.386,0.151,0.668,0.152
			c0.026-0.001,0.054-0.002,0.081-0.002H7.5h0.209h0.03h0.031h0.032h18.707C27.008,8.616,27.584,8.682,27.6,8.433L27.6,8.433z
			 M27.812,10.087c0,0.015,0,0.03,0,0.045h0V10.087L27.812,10.087z"/>
		<path fill-rule="evenodd" clip-rule="evenodd" fill="#B5BF35" d="M9.371,10.259v3.135H8.647v-3.135H9.371L9.371,10.259z
			 M9.371,21.791v3.135H8.647v-3.135H9.371L9.371,21.791z M10.014,21.791h0.724v3.135h-0.724V21.791L10.014,21.791z M9.371,15.97
			v3.135H8.647V15.97H9.371L9.371,15.97z M10.014,15.97h0.724v3.135h-0.724V15.97L10.014,15.97z M10.014,10.259h0.724v3.135h-0.724
			V10.259L10.014,10.259z"/>
		<path fill="#2E2E2F" d="M13.872,3.501l4.232,4.231l0,0.001c1.043,1.043,1.043,1.044,1.043,4.774v13.501h-2.722V12.418
			c0-3.077,0-3.077-0.532-3.61l-5.307-5.307H13.872L13.872,3.501z"/>
		
			<linearGradient id="SVGID_8_" gradientUnits="userSpaceOnUse" x1="-222.6196" y1="432.7578" x2="-212.6675" y2="432.7578" gradientTransform="matrix(0.7089 0 0 0.7089 169.5521 -292.0496)">
			<stop  offset="0" style="stop-color:#974A22"/>
			<stop  offset="0.48" style="stop-color:#974A22"/>
			<stop  offset="1" style="stop-color:#806B64"/>
		</linearGradient>
		<path fill-rule="evenodd" clip-rule="evenodd" fill="url(#SVGID_8_)" d="M14.021,4.151c1.334,1.335,2.65,2.65,3.832,3.832
			c0.938,0.938,0.938,0.938,0.938,4.525v12.805H16.78c0-4.276,0-8.213,0-12.896c0-3.225,0-3.225-0.636-3.86l-4.407-4.406H14.021
			L14.021,4.151z"/>
		<path fill="#2E2E2F" d="M16.907,13.984v1.49h1.757v-1.49H16.907L16.907,13.984z M16.375,15.74v-2.021v-0.133l0.133-0.133h0.133
			h2.289h0.133l0.133,0.133v0.133v2.021v0.133l-0.133,0.133h-0.133h-2.289h-0.133l-0.133-0.133V15.74L16.375,15.74z M16.342,12.882
			h-0.001h-0.145l-0.132,0.06l-0.095,0.096l-0.095,0.095l-0.06,0.132l0,0.144v0.004v2.453v0.001l0,0.146l0.06,0.133l0.095,0.095
			l0.095,0.096l0.131,0.06h0.144h0.003h2.995h0.001h0.145l0.132-0.06l0.095-0.096l0.095-0.095l0.06-0.132l0-0.144v-0.004v-2.453
			v-0.002l0-0.146l-0.06-0.132l-0.095-0.095l-0.095-0.095l-0.131-0.06l-0.144-0.001h-0.003h-0.572h-0.101l-0.133-0.104l-0.024-0.098
			l-0.001-0.004l0,0l0,0v-0.001l0,0c-0.011-0.04-0.024-0.076-0.038-0.107l-0.016-0.033l-0.02-0.034L18.41,12.47l-0.113-0.157
			l-0.185-0.104h-0.208h-0.236h-0.004h0h0l0,0h0.001 M16.341,12.351h0.001h0.278c0.118-0.256,0.327-0.462,0.584-0.575l0.064-0.028
			l0.066-0.023l0.067-0.016l0.083-0.021l0.088-0.011h0.089h0.001h0.005h0.236h0.386l0.343,0.192l0.209,0.293l0.04,0.056l0.036,0.062
			l0.03,0.064l0.001,0.002l0.001,0.003l0.001,0.002h0.386h0.003h0.29l0.264,0.119l0.191,0.191l0.192,0.192l0.12,0.266l0,0.29v0.002
			v2.453v0.004l-0.001,0.289l-0.119,0.264l-0.191,0.191l-0.192,0.192l-0.265,0.12h-0.291h-0.001h-2.995h-0.003l-0.29-0.001
			l-0.264-0.119l-0.191-0.19l-0.192-0.192l-0.12-0.265l0-0.292v-0.001v-2.453v-0.004l0.001-0.289l0.119-0.264l0.191-0.191
			l0.192-0.192l0.265-0.12H16.341L16.341,12.351z M17.663,12.208c-0.047,0-0.094,0.007-0.139,0.017l-0.037,0.01l-0.036,0.012
			l-0.032,0.015l-0.174,0.077l-0.133,0.155l-0.047,0.188l-0.025,0.097l-0.133,0.104h-0.1h-0.464"/>
		
			<linearGradient id="SVGID_9_" gradientUnits="userSpaceOnUse" x1="-217.2837" y1="416.8809" x2="-217.2837" y2="423.5342" gradientTransform="matrix(0.7089 0 0 0.7089 171.8729 -283.5847)">
			<stop  offset="0.12" style="stop-color:#808285"/>
			<stop  offset="0.2112" style="stop-color:#B5B1B4"/>
			<stop  offset="0.2644" style="stop-color:#E5E5E5"/>
			<stop  offset="0.348" style="stop-color:#FFFFFF"/>
			<stop  offset="0.424" style="stop-color:#C8CECB"/>
			<stop  offset="0.5912" style="stop-color:#9E9A9E"/>
			<stop  offset="0.7964" style="stop-color:#666568"/>
			<stop  offset="0.88" style="stop-color:#808285"/>
		</linearGradient>
		<path fill-rule="evenodd" clip-rule="evenodd" fill="url(#SVGID_9_)" d="M16.641,13.719v2.021h2.29v-2.021H16.641L16.641,13.719z
			 M16.342,12.616c-0.437,0-0.794,0.357-0.794,0.795v2.453c0,0.438,0.357,0.795,0.794,0.795h2.995c0.437,0,0.794-0.357,0.794-0.795
			v-2.453c0-0.438-0.357-0.795-0.794-0.795h-0.572c-0.097-0.386-0.446-0.674-0.861-0.674h-0.236c-0.415,0-0.765,0.288-0.862,0.674
			H16.342L16.342,12.616z"/>
		<path fill-rule="evenodd" clip-rule="evenodd" fill="#414042" d="M18.791,13.719v2.821c0,0.335-0.274,0.609-0.609,0.609H17.39
			c-0.335,0-0.609-0.274-0.609-0.609v-2.821H18.791L18.791,13.719z"/>
	</g>
</g>
</svg>
