<?xml version="1.0" encoding="utf-8"?>
<!-- Generator: Adobe Illustrator 18.1.0, SVG Export Plug-In . SVG Version: 6.00 Build 0)  -->
<!DOCTYPE svg PUBLIC "-//W3C//DTD SVG 1.1//EN" "http://www.w3.org/Graphics/SVG/1.1/DTD/svg11.dtd">
<svg version="1.1" id="Layer_1" xmlns="http://www.w3.org/2000/svg" xmlns:xlink="http://www.w3.org/1999/xlink" x="0px" y="0px"
	 viewBox="0 0 870.6 870.5" enable-background="new 0 0 870.6 870.5" xml:space="preserve">
<path fill-rule="evenodd" clip-rule="evenodd" fill="#ED1B2F" d="M691,220.3l-68.9,236.2l-61.7-236.2H371.8v68.9l0,0
	c-27.2-38.1-59.9-78-165-78S14.5,272.9,14.5,369.1l0,0h128.8l0,0c0.9-32.6,25.4-50.8,54.4-50.8c29,0,52.6,7.3,52.6,30.8
	c0,23.6-17.2,38.1-28.1,38.1l0,0h-68v83.4h47.2l0,0c30.8,1.8,39.9,25.4,39.9,41.7c0,16.3-5.4,41.7-49,41.7
	c-43.5,0-63.5-36.3-61.7-72.5l0,0H0l0,0c0,78,45.3,177.7,192.2,177.7c146.6,0,163.6-67.3,179.9-71.2l0,0l0.1,56.6H501V416.2
	l59.4,228.5h116.1L740,416.2v228.5h130.6V220.3H691L691,220.3L691,220.3z M371.8,457c-5.8-13.6-28-29.3-39-33.6
	c17.2-4.5,33.1-20.9,39-39.4l0,0V457L371.8,457L371.8,457z"/>
</svg>
