<?xml version="1.0" encoding="utf-8"?>
<!-- Generator: Adobe Illustrator 18.0.0, SVG Export Plug-In . SVG Version: 6.00 Build 0)  -->
<!DOCTYPE svg PUBLIC "-//W3C//DTD SVG 1.1//EN" "http://www.w3.org/Graphics/SVG/1.1/DTD/svg11.dtd">
<svg version="1.1" id="Layer_1" xmlns="http://www.w3.org/2000/svg" xmlns:xlink="http://www.w3.org/1999/xlink" x="0px" y="0px"
	 viewBox="0 0 870.6 870.5" enable-background="new 0 0 870.6 870.5" xml:space="preserve">
<g>
	<path fill="#263972" d="M843.2,790.5c-14.7-36.9-22.1-129.7-22.1-129.7c-1.5-57.5-42.7-115-42.7-115c-28-19.2-20.6-84-20.6-84
		C781.3,363,740,327.6,740,327.6C710.5,287.8,569,304,569,304c-107.6,2.9-134.1-38.3-134.1-38.3c-11.8-26.5-95.8-22.1-95.8-22.1
		c-32.4,1.5-35.4-16.2-35.4-16.2c0-25.1,13.3-28,13.3-28c85.5-33.9,171-97.3,171-97.3c28-25.1-4.4-38.3-4.4-38.3
		c5.9-44.2-10.3-39.8-10.3-39.8c-25.1-2.9-20.6,32.4-20.6,32.4c-1.5,17.7-17.7,13.3-17.7,13.3c4.4-17.7,4.4-39.8,4.4-39.8
		C446.6-5.5,426,0.4,426,0.4C406.8-1.1,409.8,21,409.8,21c0,26.5-19.2,70.8-19.2,70.8c-10.3,35.4-23.6,1.5-23.6,1.5
		c-7.4-33.9-1.5-57.5-1.5-57.5c16.2-33.9-13.3-23.6-13.3-23.6c-32.4-4.4-14.7,126.8-14.7,126.8c-7.4,14.7-19.2,4.4-19.2,4.4
		c1.5-39.8-10.3-35.4-10.3-35.4c-19.2,1.5-11.8,63.4-11.8,63.4c-13.3,7.4-31,35.4-31,35.4c-22.1-14.7-81.1-1.5-81.1-1.5
		c-36.9,1.5-28-19.2-28-19.2c22.1-29.5,79.6-42.7,79.6-42.7c53.1-17.7,38.3-36.9,38.3-36.9c-2.6-10.6-16.5-12.5-31-11.5
		c-18-17.2-33.5-2.4-41.5,8.7c-26.7,8.6-18.8-4.6-18.8-4.6c14.7-26.5-5.9-25.1-5.9-25.1c-33.9,0-26.5,39.8-26.5,39.8
		c4.4,31-11.8,32.4-11.8,32.4c-22.1,4.4-31-26.5-31-26.5c-14.7-23.6-25.1-13.3-25.1-13.3c-11.8,13.3-1.5,25.1-1.5,25.1
		c16.2,20.6,0,25.1,0,25.1c-28,8.8-19.2-26.5-19.2-26.5c-5.9-7.4-11.8-5.9-11.8-5.9c-39.8,22.1-14.7,56-14.7,56
		c19.2,38.3,95.8,29.5,95.8,29.5s23.6,0,22.1,16.2c-1.5,16.2-19.2,14.7-19.2,14.7c-89.9-13.3-107.6,54.5-107.6,54.5
		c-13.3,42.7,16.2,38.3,16.2,38.3c28,13.3,59,1.5,59,1.5c13.3-11.8,23.6,5.9,23.6,5.9c29,46.7,84,42.7,84,42.7
		c4.9,22.6,40.3,55,40.3,55c7.9,29.5,56,86.5,56,86.5c43.2,42.3,30.5,125.8,30.5,125.8c-17.7,17.7-10.8,52.1-10.8,52.1l-4.9,76.7
		c2.9,48.2-35.4,59-35.4,59c-22.6,6.9-15.7,19.6-15.7,19.6c7.9,14.7,32.9,8.8,32.9,8.8c31-5.9,45.7-42.7,45.7-42.7
		c-4.4-36.9,10.3-128.2,10.3-128.2c13.3-31,13.3-94.3,13.3-94.3c-8.8-72.2,14.7-61.9,14.7-61.9c38.3-7.4,51.6,95.8,51.6,95.8
		c0,33.9,14.7,63.4,14.7,63.4c35.4,54.5,31,116.5,31,116.5c-31,26.5-22.1,36.9-22.1,36.9c22.1,11.8,45.7-19.2,45.7-19.2
		c23.6-13.3,7.4-39.8,7.4-39.8c-36.9-70.8-50.1-209.3-50.1-209.3c0-45.7,25.1-32.4,25.1-32.4c32.4,13.3,72.2-5.9,72.2-5.9
		c36.9-19.2,38.3,4.4,38.3,4.4c11.8,31,8.8,120.9,8.8,120.9c1.5,103.2-47.2,137.1-47.2,137.1c-42.7,32.4-26.5,39.8-26.5,39.8
		c48.6,11.8,69.3-45.7,69.3-45.7c26.5-44.2,41.3-141.5,41.3-141.5c20.6-19.2,13.3-35.4,13.3-35.4c-7.4-19.2-10.3-66.3-10.3-66.3
		c2.9-63.4,25.1-51.6,25.1-51.6c69.3,23.6,115,150.4,115,150.4c38.3,109.1,11.8,153.3,11.8,153.3c-26.5,8.8-16.2,26.5-16.2,26.5
		c16.2,8.8,35.4-4.4,35.4-4.4C862.3,812.6,843.2,790.5,843.2,790.5z"/>
</g>
</svg>
