<?xml version="1.0" encoding="utf-8"?>
<!-- Generator: Adobe Illustrator 18.1.0, SVG Export Plug-In . SVG Version: 6.00 Build 0)  -->
<!DOCTYPE svg PUBLIC "-//W3C//DTD SVG 1.1//EN" "http://www.w3.org/Graphics/SVG/1.1/DTD/svg11.dtd">
<svg version="1.1" id="Layer_1" xmlns="http://www.w3.org/2000/svg" xmlns:xlink="http://www.w3.org/1999/xlink" x="0px" y="0px"
	 viewBox="0 0 870.6 870.5" enable-background="new 0 0 870.6 870.5" xml:space="preserve">
<g>
	<path fill-rule="evenodd" clip-rule="evenodd" fill="#1D1D1B" d="M604.9,387.7c-25.6,77.5-72.2,126.6-162.2,126.6
		c-81.4,0-148.9-90.9-131.9-179.7c15-78.4,72.7-153.6,165.9-153.6c87.5,0,139.4,72.3,139.8,144.1h-61.3c0-24.5-16.7-89.4-90.4-81.5
		l-42.7,200.3c30.8,14.1,83.2,11.7,119.3-56.2L604.9,387.7L604.9,387.7z"/>
	<polygon fill-rule="evenodd" clip-rule="evenodd" fill="#1D1D1B" points="158,508 0,508 121.7,326.9 158,508 	"/>
	<polygon fill-rule="evenodd" clip-rule="evenodd" fill="#1D1D1B" points="205.4,508 325.5,508 250.4,135 158,273.5 205.4,508 	"/>
	<polygon fill-rule="evenodd" clip-rule="evenodd" fill="#1D1D1B" points="587.1,508 811,508 824.4,447.8 711.1,447.8 724.5,387.6 
		835.9,387.6 848.5,327.5 737.2,327.5 751.4,261.8 861.6,261.8 875,201.6 652.6,201.6 587.1,508 	"/>
	<polygon fill-rule="evenodd" clip-rule="evenodd" fill="#1D1D1B" points="18.8,665.4 43.4,542.6 76.7,542.6 68.4,584.8 
		108.6,584.8 116.9,542.6 150.1,542.6 125.5,665.4 92.3,665.4 101.9,617.9 61.6,617.9 52.2,665.4 18.8,665.4 	"/>
	<polygon fill-rule="evenodd" clip-rule="evenodd" fill="#1D1D1B" points="537.4,625.5 560.9,577.9 592.3,577.9 548.1,665.6 
		515.7,665.6 510.2,614 509.8,614 486.1,665.6 453.8,665.6 443.8,577.9 476.2,577.9 479.2,625.9 479.5,625.9 505,577.9 533.1,577.9 
		537.4,625.5 	"/>
	<path fill-rule="evenodd" clip-rule="evenodd" fill="#1D1D1B" d="M297.1,588.7c8.5-8.9,14.1-13.1,23.9-13.1c2.4,0,4.9,0.4,6.7,0.8
		l-7,28.2c-2.2-0.3-4.1-0.3-6.4-0.3c-17.1,0-21.3,10-25.5,31.1l-6.1,30.3h-31.2l17.6-87.8h28.2c-0.3,0.5-1.9,9.8-1.9,9.8
		C294.9,589.3,296.7,589.7,297.1,588.7L297.1,588.7z"/>
	<path fill-rule="evenodd" clip-rule="evenodd" fill="#1D1D1B" d="M739.3,588.7c8.5-8.9,14.1-13.1,23.9-13.1c2.4,0,4.9,0.4,6.7,0.8
		l-7.1,28.2c-2.2-0.3-4.1-0.3-6.4-0.3c-17.1,0-21.3,10-25.5,31.1l-6.1,30.3h-31.2l17.6-87.8h28.2c-0.3,0.5-1.9,9.8-1.9,9.8
		C737.2,589.3,738.9,589.7,739.3,588.7L739.3,588.7z"/>
	<path fill-rule="evenodd" clip-rule="evenodd" fill="#1D1D1B" d="M862.7,630.5c6.8-31.8-10.5-54.4-41.4-54.4
		c-31.6,0-48.6,16.3-54.5,45.1c-5.9,29.5,12.5,47.8,39.2,47.8c19.4,0,42-7.2,52.1-29h-31.7c-3.5,5.2-8.7,7.7-14,7.7
		c-8.8,0-15.1-6.9-13-17.3H862.7L862.7,630.5z M821.6,597.4c7.8,0,13.1,5.4,11.6,13.4h-30.1C804.9,601.4,811.8,597.4,821.6,597.4
		L821.6,597.4z"/>
	<path fill-rule="evenodd" clip-rule="evenodd" fill="#1D1D1B" d="M407.6,542.7l-8.4,42.7c-6.7-5.5-13.9-10.5-24.4-10.2
		c-25.7,0.7-41.5,19.7-45.4,42.6c-5.3,30.9,7.5,50.3,29.2,50.2c10.7,0,17.4,0.5,24.9-7.8l1.3,5.3h29.8l24.6-122.9H407.6L407.6,542.7
		z M391.9,622.6c-2.9,12.8-8.1,26.2-20.1,26.2c-12.8,0-12.9-20.2-10.8-27.7c4.1-14.8,9.9-21,20.9-21
		C393.4,600.2,394.2,612.5,391.9,622.6L391.9,622.6z"/>
	<path fill-rule="evenodd" clip-rule="evenodd" fill="#1D1D1B" d="M649,574.6c-28.2,0-47,6.5-51.4,30.1h31.8
		c2.3-7.5,7.7-11.5,15.2-11.7c3.5-0.1,12.8,1.9,11.5,8.3c-3.3,16.4-61.5-2.7-69.5,37.2c-3.6,18.3,12.7,29.5,28.4,29.5
		c12.4,0,17-0.2,26.5-8.2l1.5,5.6l33.3-0.1c-2.4-3.6-1.1-11.2,0-16.2l7.4-37.6C686.9,595.4,688.5,574.6,649,574.6L649,574.6z
		 M628.4,649.3c-6.5,0-9.9-4-9-8.3c0.3-11.5,22.4-12.3,29.9-14.6C648,640.6,640.3,649.3,628.4,649.3L628.4,649.3z"/>
	<path fill-rule="evenodd" clip-rule="evenodd" fill="#1D1D1B" d="M206,574.6c-28.2,0-47,6.5-51.4,30.1h31.8
		c2.3-7.5,7.7-11.5,15.2-11.7c3.5-0.1,12.8,1.9,11.5,8.3c-3.3,16.4-61.5-2.7-69.5,37.2c-3.6,18.3,12.7,29.5,28.4,29.5
		c12.4,0,17-0.2,26.5-8.2l1.5,5.6l33.3-0.1c-2.4-3.6-1.1-11.2,0-16.2l7.4-37.6C243.9,595.4,245.5,574.6,206,574.6L206,574.6z
		 M185.4,649.3c-6.5,0-9.9-4-9-8.3c0.3-11.5,22.4-12.3,29.9-14.6C205,640.6,197.2,649.3,185.4,649.3L185.4,649.3z"/>
</g>
</svg>
