<?xml version="1.0" encoding="utf-8"?>
<!-- Generator: Adobe Illustrator 18.1.0, SVG Export Plug-In . SVG Version: 6.00 Build 0)  -->
<!DOCTYPE svg PUBLIC "-//W3C//DTD SVG 1.1//EN" "http://www.w3.org/Graphics/SVG/1.1/DTD/svg11.dtd">
<svg version="1.1" id="Layer_1" xmlns="http://www.w3.org/2000/svg" xmlns:xlink="http://www.w3.org/1999/xlink" x="0px" y="0px"
	 viewBox="0 0 870.6 870.5" enable-background="new 0 0 870.6 870.5" xml:space="preserve">
<path fill="#035597" d="M372.4,678.6H220.1l0,0c45.5,28.2,98.8,46.9,159.4,59.4l0,0L372.4,678.6L372.4,678.6L372.4,678.6
	L372.4,678.6z M488.6,678.7l-9.1,55.8l0,0c60.9-11.2,114.5-28.8,161.1-55.8l0,0H488.6L488.6,678.7L488.6,678.7L488.6,678.7z
	 M471.1,678.5l-83.7,0.1l0,0c11.7,24.4,26.7,45,43.8,64.6C448,723.2,459.2,702.5,471.1,678.5L471.1,678.5L471.1,678.5L471.1,678.5
	L471.1,678.5z M696.3,641.4l-532.8-0.3l0,0c-17.8-14.2-29.8-21.5-44.1-40.3l0,0H741l0,0C727.1,616,711.2,629.8,696.3,641.4
	L696.3,641.4L696.3,641.4L696.3,641.4L696.3,641.4z M775.7,554.6l-688.5,0.3l0,0C78,542.1,67.4,524,60.9,509.8l0,0H802l0,0
	C795.1,525.8,785.7,540.6,775.7,554.6L775.7,554.6L775.7,554.6L775.7,554.6L775.7,554.6z M283,460.9L42.6,461l0,0
	C20.6,410.2,6.7,357.7,0,292.6C123.9,314.6,219.5,365.4,283,460.9L283,460.9L283,460.9L283,460.9L283,460.9z M529.3,461.3H331.6l0,0
	c-4.4-127.2,30.8-256.3,98.9-334C499.7,203,535.4,331.5,529.3,461.3L529.3,461.3L529.3,461.3L529.3,461.3L529.3,461.3z M822.3,461
	l-245.1,0.1l0,0c67.7-95.2,164.9-149,290.7-168.1C860.1,356.8,845.4,410.8,822.3,461L822.3,461L822.3,461L822.3,461z"/>
</svg>
