<?xml version="1.0" encoding="utf-8"?>
<!-- Generator: Adobe Illustrator 18.0.0, SVG Export Plug-In . SVG Version: 6.00 Build 0)  -->
<!DOCTYPE svg PUBLIC "-//W3C//DTD SVG 1.1//EN" "http://www.w3.org/Graphics/SVG/1.1/DTD/svg11.dtd">
<svg version="1.1" id="Layer_1" xmlns="http://www.w3.org/2000/svg" xmlns:xlink="http://www.w3.org/1999/xlink" x="0px" y="0px"
	 viewBox="0 0 870.6 870.5" enable-background="new 0 0 870.6 870.5" xml:space="preserve">
<g>
	<path fill="none" d="M741.6,469.4c-0.2-19.1-0.6-35.7-1.1-48.4c-0.5-11.8-1.3-23.3-2.2-34.5c-0.4,0.2-0.8,0.4-1.1,0.7
		C739.3,413.3,740.7,440.8,741.6,469.4z"/>
	<path fill="#178ACB" d="M741.6,469.4c-0.9-28.6-2.3-56.1-4.5-82.2c0.4-0.2,0.8-0.4,1.1-0.7c-6-71.1-19.1-126.7-19.1-126.7
		c-4.5-22.1-9.9-43-15.8-62.6C663.5,65.9,595.6,0.2,499.7,0.2c-9.7,0-19.1,0.8-28.2,2.2c-20.9,5-61.1,18.5-91.6,55.7
		c-61.1,74.6-65.7,145.8-79.8,176.7c-1.4,4.5-2.9,8.4-4.5,12.1c-9.1,21.2-23.6,40.6-43.3,58.2c-4.1,3.7-37.9,29.6-101.3,77.9
		c-22.1,16.7-33.5,34.1-33.9,51.6v0.3v1.4c0,12,2.9,22,8.8,30.3c8.3,11.8,19.8,17.7,34.6,17.7c5.7,0,12.9-1.4,21.4-4.1
		c1.4-0.5,2.6-0.8,3.3-1.1c5.1,0.2,10.4,1,15.8,2.4c-14.5,17.2-21.7,34.7-21.7,52.8v0.5c0,25.5,12.9,45.4,38.9,59.6
		c19.6,10.7,41.3,15.9,64.9,15.9c5.7,0,11.5-0.3,17.2-0.8c0,0,80.3-7.7,147.3-69c2.4,89.4-37.4,219.1-77.7,329.4h10.7
		c6.5,0,12.3-3.8,14.8-9.9c25.3-61.3,84-212.2,69.2-355.8c-4.5,3.5-8.9,6.9-13.6,10.4c-30.8,23.1-60.9,41.9-90.5,56.3
		c-41.4,20.4-90.8,28.8-132.7,6.1c-18.8-10.4-28.4-24.4-28.5-42.1v-0.2v-0.3c0-17.4,9.9-35.1,29.6-53.1h0.2l8-6.9
		c-8.8-4.3-15.8-7.2-20.9-9.1c-11.5-4-22.3-6.1-32.7-6.1c-1,0-3.5,0.6-7.8,2.1c-6.4,2.1-11.5,3.2-15.1,3.2c-7.8,0-14-3.2-18.3-9.2
		c-3.3-4.8-5.1-11-5.1-18.8v-1.1c0.3-11.3,8.9-23.4,26.1-36.5c34.3-26.1,97.5-74.4,102.5-78.7c22-19.6,38.1-41.4,48.4-65.3
		c5.7-13.7,10.5-31.4,14.2-53.2c15-89.7,73-181.3,171.6-181.3c195,0,222.9,318.4,222.9,507.5c0,102.3-3,204.9-25.2,305
		c-1.4,6.5,1.3,13.2,6.9,16.9c2.7,1.7,5.4,3.2,8.2,4.7C736.4,770.4,742.5,577.3,741.6,469.4z"/>
	<ellipse fill="#178ACB" cx="579.2" cy="174.9" rx="22" ry="32.3"/>
	<path fill="#FEDC00" d="M471,264.3c-3.2-28.5-5.3-66.3-13.5-76.8c-1.6-1.8-3.5-2.7-5.9-2.7c-23.1,0.8-26,28-55.9,28
		c-26.3,0-16.1-33.6-31.9-33.6c-21.7,0,4.5,81.1-82.4,158.7c-40,35.7-128.1,74.4-128.6,97.7c-0.5,23.4,17,7.7,30.4,7.7
		c51.8,0,86.8,40.6,128.4,40.6c53.4,0,108-47.2,157.4-80l9.7-6.5c3.2-2.1,7.3-1.6,10,1l3.7,3.5c3.2,3.2,3.2,8.5-0.2,11.6L470.6,433
		c-54.8,49.7-134,107.4-191.2,107.4c-19.1,0-51.8-6.1-26.6-32.2l9.7-9.9c3.8-4,2.6-10.7-2.6-12.9l-3.2-1.4c-2.9-1.3-6.2-0.8-8.4,1.3
		l-9.1,7.8c-11.5,10.4-24.5,25.7-24.4,41.4c0.3,25,34.4,37.6,57.8,37.6c84.9,0,263.7-141.2,263.7-191.1
		C536.5,339,479.1,334.9,471,264.3z"/>
</g>
</svg>
