<?xml version="1.0" encoding="utf-8"?>
<!-- Generator: Adobe Illustrator 18.1.0, SVG Export Plug-In . SVG Version: 6.00 Build 0)  -->
<!DOCTYPE svg PUBLIC "-//W3C//DTD SVG 1.1//EN" "http://www.w3.org/Graphics/SVG/1.1/DTD/svg11.dtd">
<svg version="1.1" id="Layer_1" xmlns="http://www.w3.org/2000/svg" xmlns:xlink="http://www.w3.org/1999/xlink" x="0px" y="0px"
	 viewBox="0 0 870.6 870.5" enable-background="new 0 0 870.6 870.5" xml:space="preserve">
<path fill-rule="evenodd" clip-rule="evenodd" fill="#222222" d="M643.7,47.2C613,15.7,575.8,0,531.6,0
	c-44.1,0-81.4,15.7-113.3,47.2c-31.1,31.9-47.2,69.1-47.2,113.3c0,35.3,11.1,68,32.6,96c-68.7,48.4-107.9,129.4-117.1,243
	c-1.2,16.1-2.7,26.5-4.6,31.5c-23,47.2-58.4,82.5-106,106c-17.3,8.4-32.6,14.2-48.4,18.8l-57.2,8.8l76,206.5l23.4-5.8
	c75.6-16.5,137.4-43,186.6-79.9c30.7-22.3,61.8-56.1,94.4-100.2c80.6,40.3,135.5,93.3,164.3,157.4l13.8,24.2L800,766.7l-10-21.1
	c-41.8-94.4-100.2-170.5-173.9-228.4c44.1-5.8,95.6-25.3,153.2-57.6l21.9-13.1l-73.7-169.3L691,293.3c-37.2,18.8-76.8,26.5-119,21.5
	c34.6-8.8,63-27.6,85.2-56.1c23-28.8,33.8-61.8,33.8-98.3C691,116.3,674.8,79.1,643.7,47.2L643.7,47.2z M721.7,424.2
	c-44.1,22.3-82.5,35.7-115.2,39.9l-79.5-4.2l-17.3-2.7c-14.6,0-23.4,8.8-25.3,26.5c-1.2,11.5,3.1,20,11.9,23.4l26.5,14.2
	c20.7,10.8,39.9,24.2,59.1,38.8c61.8,48.4,110.6,110.6,148.6,185.4l-79.1,46.1c-38.8-69.9-105.2-124-197.7-163.9
	c-2.7-3.1-7.7-4.2-12.3-4.2c-6.9,0-13.1,3.1-17.7,7.7L410.7,648c-29.6,40.3-56.1,69.9-79.5,88.7c-39.5,32.2-89.8,56.1-150.5,70.6
	l-36.5-100.2c87.9-23.4,149.7-74.9,187-152.8c3.8-7.7,6.9-24.2,10-49.9c4.6-56.1,14.6-100.6,31.1-132.8c16.1-32.6,40.3-58,73.7-76.8
	c16.1,11.1,33.8,17.7,54.5,23l0.4,5.8c1.2,10.8,2.3,18.4,4.2,23.8l4.2,12.3l12.3,4.2c54.1,17.7,110.2,13.4,169.3-10.8L721.7,424.2
	L721.7,424.2z M531.6,58.4c28.4,0,51.8,9.6,71.8,29.9c20.7,20.3,30.3,43.8,30.3,72.2c0,28.4-9.6,51.8-30.3,71.8
	c-20,20.7-43.4,30.3-71.8,30.3c-28.4,0-51.8-9.6-72.6-30.3c-20.7-20-30.7-43.4-30.7-71.8c0-28.4,10-51.8,30.7-72.2
	C479.8,68,503.2,58.4,531.6,58.4L531.6,58.4z"/>
<path fill-rule="evenodd" clip-rule="evenodd" fill="#F8D716" d="M531.6,262.6c28.4,0,51.8-9.6,71.8-30.3
	c20.7-20,30.3-43.4,30.3-71.8c0-28.4-9.6-51.8-30.3-72.2c-20-20.3-43.4-29.9-71.8-29.9c-28.4,0-51.8,9.6-72.6,29.9
	c-20.7,20.3-30.7,43.8-30.7,72.2c0,28.4,10,51.8,30.7,71.8C479.8,253,503.2,262.6,531.6,262.6L531.6,262.6z"/>
<path fill-rule="evenodd" clip-rule="evenodd" fill="#F8D716" d="M691,353.2c-59.1,24.2-115.2,28.4-169.3,10.8l-12.3-4.2l-4.2-12.3
	c-1.9-5.4-3.1-13.1-4.2-23.8l-0.4-5.8c-20.7-5.4-38.4-11.9-54.5-23c-33.4,18.8-57.6,44.1-73.7,76.8c-16.5,32.2-26.5,76.8-31.1,132.8
	c-3.1,25.7-6.1,42.2-10,49.9c-37.2,77.9-99,129.4-187,152.8l36.5,100.2c60.7-14.6,111-38.4,150.5-70.6
	c23.4-18.8,49.9-48.4,79.5-88.7l13.1-16.9c4.6-4.6,10.7-7.7,17.7-7.7c4.6,0,9.6,1.2,12.3,4.2c92.5,39.9,158.9,94.1,197.7,163.9
	l79.1-46.1c-38-74.9-86.8-137.1-148.6-185.4c-19.2-14.6-38.4-28-59.1-38.8l-26.5-14.2c-8.8-3.5-13.1-11.9-11.9-23.4
	c1.9-17.7,10.7-26.5,25.3-26.5l17.3,2.7l79.5,4.2c32.6-4.2,71-17.7,115.2-39.9L691,353.2L691,353.2z"/>
</svg>
