<?xml version="1.0" encoding="utf-8"?>
<!-- Generator: Adobe Illustrator 18.1.0, SVG Export Plug-In . SVG Version: 6.00 Build 0)  -->
<!DOCTYPE svg PUBLIC "-//W3C//DTD SVG 1.1//EN" "http://www.w3.org/Graphics/SVG/1.1/DTD/svg11.dtd">
<svg version="1.1" id="Layer_1" xmlns="http://www.w3.org/2000/svg" xmlns:xlink="http://www.w3.org/1999/xlink" x="0px" y="0px"
	 viewBox="0 0 870.6 870.5" enable-background="new 0 0 870.6 870.5" xml:space="preserve">
<path fill="#454351" d="M743,127.2C657.9,42,555.6-0.4,435.4,0C315.2-0.4,212.9,42,128.1,127.2C43,212.3,0.6,314.6,0.6,434.8
	C0.6,555,43,657.3,128.1,742.4C212.9,827.6,315.2,870,435.4,870c120.2,0,222.5-42.4,307.6-127.5c85.1-85.1,127.5-187.4,127.5-307.6
	C870.6,314.6,828.2,212.3,743,127.2L743,127.2z M438,39.1c109.2,0,202.4,38.7,279.5,115.8c77.1,77.1,115.8,170.6,116.2,279.9
	c-0.4,109.2-39.1,202.8-116.2,279.9C640.4,791.8,547.2,830.5,438,830.5s-202.8-38.7-279.9-115.8C80.6,637.6,41.9,544,42.2,434.8
	C41.9,325.6,80.6,232,158.1,154.9C235.2,77.8,328.7,39.1,438,39.1L438,39.1z"/>
<path fill="#454351" d="M492,62.5v46C625,132.6,713.4,209,756.9,337.6h43.8C745.6,186,642.9,94.3,492,62.5L492,62.5z"/>
<path fill="#454351" d="M489.8,168.8v0.4c108.9,22.3,179,82.9,210.8,182l43.5,0.7c-39.1-125-123.9-201.7-254.3-230.6V168.8
	L489.8,168.8z"/>
<path fill="#454351" d="M474.5,59.9h-96.1l-5.5,462.6c59.6-43.5,91.3-95,94.6-154.9L474.5,59.9L474.5,59.9z"/>
<path fill="#454351" d="M489.8,225.8h1.5c83.3,22.7,133.7,73.8,151.3,153.1l44.2,0.4C668.1,274,602.4,208.6,489.8,182.7V225.8
	L489.8,225.8z"/>
<path fill="#454351" d="M486.9,303.6v44.2c28.9,10.6,44.2,32.2,46,65.4h42.4C566.6,363.6,537,327,486.9,303.6L486.9,303.6z"/>
<path fill="#454351" d="M486.2,238.2v47.9c55.9,20.8,89.9,57,101.2,107.8h43.5C616.6,317.5,568.4,265.6,486.2,238.2L486.2,238.2z"/>
<polygon fill="#454351" points="365.2,255 353.2,248.5 327.2,296.7 365.2,336.9 365.2,255 "/>
<path fill="#454351" d="M433.6,490c-17.5,23-41.7,41.7-72.3,55.2V356.2C303.1,281,241,251,174.9,266.4l-2.2-21.2l-31.1,44.9
	l20.5,170.3h34c2.6-22.3,8.8-43.5,18.3-63.2c9.5-11.3,16.8-23.4,21.9-36.5c6.6,55.9,2.6,112.2-12.1,168.4l56.6,62.8
	c1.8,13.9-3.7,18.3-15.7,12.8L162.5,491.4l-28.9,13.9V657l72.7,72.7l1.1-19.7l-5.8-5.5l1.1-24.5l-17.2,2.2l-13.9-11.3l18.6-14.2
	l-41.3-0.4l8-112.2h0.4c2.9-5.1,6.6-5.8,11-2.6l68,104.9l30.3,8l46,32.5l136.3-166.6L433.6,490L433.6,490z M168.7,332.9
	c0,2.6-1.1,5.1-2.9,7.3c-1.8,1.8-4.4,2.9-7.3,2.9s-5.5-1.1-7.3-2.9c-1.8-2.2-2.9-4.8-2.9-7.3c0-2.9,1.1-5.5,2.9-7.3
	c1.8-1.8,4.4-2.9,7.3-2.9s5.5,1.1,7.3,2.9C167.6,327.4,168.7,329.9,168.7,332.9L168.7,332.9z"/>
<path fill="#454351" d="M580.1,483.4c-4.4-0.4-8.8-0.7-13.5-0.7c-28.1,0-52.6,9.5-72.7,28.1c-8.4,8-14.6,15.7-18.3,22.7
	c8.8,0,17.2,2.2,24.8,6.6c7.7,4,15,11.3,22.7,21.2c7.3,9.9,19,11,34.7,3.7c-5.8-14.2-5.1-24.8,2.2-31.4c10.6-9.9,17.2-19,20.1-27.4
	C581.9,498.4,581.9,491.1,580.1,483.4L580.1,483.4z"/>
<path fill="#454351" d="M594.7,486c1.8,13.5-0.7,24.5-7.7,32.9c-7.3,8-12.1,19-14.2,32.5c-1.8,13.5-0.4,26.3,4.4,38.4
	c11.3,1.8,22.7,0.7,34.7-2.6c16.4-4.4,29.6-12.4,39.5-24.1c5.5-6.2,9.1-12.4,11.3-19c-5.1-12.1-12.8-23.4-23.4-33.2
	C626.1,498.7,611.1,490.3,594.7,486L594.7,486z"/>
<path fill="#454351" d="M462.1,435.9h57.7c-0.7-34-13.5-58.1-38.4-72.3C486.2,390.6,480,414.7,462.1,435.9L462.1,435.9z"/>
<path fill="#454351" d="M722.6,489.2c-7.3-14.2-16.4-27.4-27-39.5c-11-12.1-23.4-17.5-36.9-17.2c27.8,42,31.1,85.5,9.9,131.2
	c-5.8,9.5-13.9,17.5-23.7,23.7c-10.2,6.2-21.2,9.9-33.2,10.6c8,5.5,13.2,12.8,15.7,21.9c1.8,13.5-1.1,27.8-8.4,42.4
	c35.8-8.4,65-35.4,87.7-80.7c6.2-18.6,18.3-37.3,36.9-55.5c12.8-12.8,30-19.4,51.5-19c-2.2-5.5-9.5-11-21.6-16.1
	C756.9,484.1,739.8,483.4,722.6,489.2L722.6,489.2z"/>
<polygon fill="#454351" points="222.4,245.2 236.3,192.9 180.7,192.9 184.7,245.2 222.4,245.2 "/>
<polygon fill="#454351" points="248.7,196.6 238.8,250.3 271,261.2 292.9,213.7 248.7,196.6 "/>
<polygon fill="#454351" points="284.5,267.1 315.2,286.8 340,241.2 303.5,220.3 284.5,267.1 "/>
<polygon fill="#454351" points="163.9,235.7 163.9,200.6 131.8,223.6 152.6,244.4 163.9,235.7 "/>
<polygon fill="#454351" points="131.8,271.1 147.5,256.5 118.2,235.7 104,262 131.8,271.1 "/>
<polygon fill="#454351" points="129.9,313.9 129.9,284.3 98.2,272.9 92.3,307.6 129.9,313.9 "/>
<path fill="#454351" d="M595.1,601.4c-9.1,1.8-17.9,1.8-26.7,0c0.4,6.9-1.5,14.2-4.8,22.3c-3.7,8-10.2,15.3-19.4,21.6
	c-9.5,6.2-17.5,12.8-24.5,19.7c14.2,6.9,29.6,10.2,46.8,10.2c14.2,0,27-2.2,39.1-6.9c4.8-15,6.9-29.6,5.8-43.8
	C610.4,614.6,604.9,606.9,595.1,601.4L595.1,601.4z"/>
<path fill="#454351" d="M511,573.3l-20.1-20.8c-7.7-5.5-15-6.6-22.3-3.3c-3.3,9.1-4.7,19.4-4.7,30c0,26.7,9.9,49.3,30,68
	c3.7,3.3,7.7,6.6,11.7,9.5c39.1-29.6,57-54.4,54.4-74.5C539.5,585.7,523.1,582.8,511,573.3L511,573.3z"/>
<path fill="#454351" d="M498.2,662.1c3.3,15.3-0.4,26.7-11,33.6c-12.1,8-21.6,19.4-29.2,33.6c-5.1,12.8-6.6,26.7-4.4,40.9
	c37.6,15.3,78.6,14.6,122.8-1.8v-47.9c0.4-8.8-3.7-17.5-12.1-25.9C537.7,692,515.8,681.1,498.2,662.1L498.2,662.1z"/>
<path fill="#454351" d="M579.4,692c11.3,6.9,16.1,14.2,14.2,22.7v44.9c47.9-27.4,74.9-63.9,81.1-109.2
	C648,675.6,616.3,689.5,579.4,692L579.4,692z"/>
<path fill="#454351" d="M444.5,716.9c6.6-10.2,14.2-17.9,22.7-22.7c16.4-9.5,23-21.6,19-36.2c-30-27.4-39.8-68.7-30-123.9
	L322.1,700.8l112.2,65.8C431.7,747.2,435,730.4,444.5,716.9L444.5,716.9z"/>
</svg>
