<?xml version="1.0" encoding="utf-8"?>
<!-- Generator: Adobe Illustrator 18.1.0, SVG Export Plug-In . SVG Version: 6.00 Build 0)  -->
<!DOCTYPE svg PUBLIC "-//W3C//DTD SVG 1.1//EN" "http://www.w3.org/Graphics/SVG/1.1/DTD/svg11.dtd">
<svg version="1.1" id="Layer_1" xmlns="http://www.w3.org/2000/svg" xmlns:xlink="http://www.w3.org/1999/xlink" x="0px" y="0px"
	 viewBox="0 0 870.6 870.5" enable-background="new 0 0 870.6 870.5" xml:space="preserve">
<g>
	<path fill-rule="evenodd" clip-rule="evenodd" d="M572.6,291.8c-31.5-34.5-87.7-25.9-128.5-15.9c-76.8,18.4-150.6,83.4-187.7,155.2
		c-13.1,25.4-24.2,51.9-28.2,80.9c56.9-75.8,133.5-157.4,235-144.1c45.1,7.8,90.7,36,112.1,79.9c30.5,59.4,17.6,142.3-7.6,200.3
		c29-20.2,49.9-50.6,65.2-79.8c18.6-38.8,34.8-80.6,28-127.5L871,799.1H507.3c75.6-37,138.8-115.9,156.4-195.2
		c1.5-9.1,3-18.4,2.3-28.2C625.2,648,550.1,708.2,471.3,724.8c-59.7,12.6-113.6-11.6-150.4-58.4c-45.6-61-19.6-150.9,2.3-214.4
		c-70.3,66.2-114.6,156.4-84.6,252.9c12.1,36.3,34.5,73.8,70.8,94.2H0L445.3,71.4l127,220.4H572.6L572.6,291.8z"/>
</g>
</svg>
