<?xml version="1.0" encoding="utf-8"?>
<!-- Generator: Adobe Illustrator 18.1.0, SVG Export Plug-In . SVG Version: 6.00 Build 0)  -->
<!DOCTYPE svg PUBLIC "-//W3C//DTD SVG 1.1//EN" "http://www.w3.org/Graphics/SVG/1.1/DTD/svg11.dtd">
<svg version="1.1" id="Layer_1" xmlns="http://www.w3.org/2000/svg" xmlns:xlink="http://www.w3.org/1999/xlink" x="0px" y="0px"
	 viewBox="0 0 870.6 870.5" enable-background="new 0 0 870.6 870.5" xml:space="preserve">
<g>
	<path fill="#28A8E0" d="M842.4,297.4c37.6,82.4,26.2,220.4-7,298.5c-74.7,13.7-148.2,28.6-223,42.1c-6-3.3,2.9-7.9,3.5-8.8
		c51-80.5,111.9-161.4,166.8-242.3C803.2,356.8,823.5,327.6,842.4,297.4z"/>
	<path fill="#28A8E0" d="M817.9,623.9c1.2,0,2.3,0,3.5,0C774.5,718.7,701.2,787,603.7,831.1c-48.9-29.3-93.7-64-140.5-96.6
		c-15.2-10.6-33.8-18.2-45.6-33.4C552.3,676.8,685.1,650.3,817.9,623.9z"/>
	<path fill="#28A8E0" d="M833.7,267.5c-19.6,32.4-44.1,62.9-66.7,94.8c-22.2,31.3-43,65.3-66.7,91.3C675.9,320,655.3,182.6,630,49.8
		c-0.3-1.5,0.7-1.7,1.8-1.8C724.2,96.1,791.5,169.3,833.7,267.5z"/>
	<path fill="#28A8E0" d="M637,258.8c-3.1,6.2-7.9-2.9-8.8-3.5c-97-64.3-197.8-134.1-295-201.9c-13.8-9.6-28.1-20.2-40.4-31.6
		c88-33.1,227.4-27.6,305.5,10.5C611.9,107.1,623.1,184.4,637,258.8z"/>
	<path fill="#28A8E0" d="M572.1,841.6c-81.9,36.3-224,29.2-300.2-7c-13.1-73.5-26.8-146.4-38.6-221.2
		C346.9,688.7,458.5,766.1,572.1,841.6z"/>
	<path fill="#28A8E0" d="M408.8,137.6c16,11.1,34,19.2,45.6,33.4c-136.5,26.8-275.2,51.4-412.6,77.2C87.2,150.2,161,80.6,259.6,35.8
		c1.2,0,2.3,0,3.5,0C310.3,68.3,359.8,103.9,408.8,137.6z"/>
	<path fill="#28A8E0" d="M250.8,237.7c14.8-2.4,2.1,11.3-3.5,19.3C175.9,358.6,90.5,477.2,26.1,574.8c-38.3-77-31.5-219.8,1.8-296.7
		C101.7,266,180.1,249.3,250.8,237.7z"/>
	<path fill="#28A8E0" d="M163,420.3c29.8,130.5,52.2,268.5,80.8,400.3c-92-40.3-162-117.8-207.2-210.7
		C77.2,545.1,122.6,485.2,163,420.3z"/>
</g>
</svg>
