<?xml version="1.0" encoding="utf-8"?>
<!-- Generator: Adobe Illustrator 18.1.0, SVG Export Plug-In . SVG Version: 6.00 Build 0)  -->
<!DOCTYPE svg PUBLIC "-//W3C//DTD SVG 1.1//EN" "http://www.w3.org/Graphics/SVG/1.1/DTD/svg11.dtd">
<svg version="1.1" id="Layer_1" xmlns="http://www.w3.org/2000/svg" xmlns:xlink="http://www.w3.org/1999/xlink" x="0px" y="0px"
	 viewBox="0 0 870.6 870.5" enable-background="new 0 0 870.6 870.5" xml:space="preserve">
<path fill-rule="evenodd" clip-rule="evenodd" fill="#FFFFFF" d="M708.3,517.6c12,0.9,23.2-0.3,34.9-3c6.7-1.9,13.1-4.2,19.4-7.1
	c6.2-3.2,11.8-6.6,17.4-10.6c5.4-4.2,10.3-8.7,15-13.7c4.5-5.2,8.5-10.5,12.2-16.3c4.4-7.5,7.8-15.1,10.6-23.3
	c1.9-6.9,3.3-13.6,4.2-20.6c0.4-5.5,0.5-10.8,0.4-16.2c-0.6-9-2.2-17.3-4.6-26c-1.7-4.9-3.6-9.7-5.7-14.4
	c-4.7-9.3-10.3-17.3-17.1-25.3c-4.7-4.9-9.7-9.5-15-13.6c-7.1-5-14.1-9.2-22.1-12.7c-6.4-2.5-13-4.6-19.8-6.2
	c-9.5-1.7-19.2-2.4-29-2.1c-16.3,1.3-32.6,6.3-46.4,15.3c-0.9,0.7-2,1.6-3,2.3c10.8,16.3,18,35.4,22.4,54.4
	c1.3,6.1,2.3,12.2,2.9,18.4c2.1,19.6,0.1,39.5-5.3,58.4c-4.6,15.6-11.7,31.4-21.1,44.7C673,510.1,690.9,516.3,708.3,517.6
	L708.3,517.6z M630.2,377.2c-1.8-4.9-3.8-9.7-6.3-14.3c-5.7,10.7-9.8,22.1-11.6,34.2c-1,6.9-1.5,13.8-1,20.8
	c0.9,15,5.7,30,12.9,43.1c4.5-9.1,8-18.2,10-28.2c3.5-17.2,2.4-35.3-2.8-52.1L630.2,377.2L630.2,377.2z M547.3,516.6
	c13.3-2.2,25.3-6.7,37.1-13.1l4.5-2.7c-2.5-3.4-4.7-7.3-6.8-11c-7.1-12.6-12.5-25.9-16-40c-2-8.2-3.4-16.3-4.2-24.8
	c-1-12.7-0.5-25.2,1.5-37.8c3.8-22.6,12.2-43.9,25.2-62.8c-5.5-3.6-11.2-6.9-17.2-9.5c-10.3-4.3-21.1-7.2-32.3-8
	c-23.2-1.8-45.9,3.6-65.5,16.2c13.9,20.9,22.5,45.4,25.9,70.1c0.8,7.5,1.3,14.6,1.2,22.2c-0.4,14.8-2.9,29.3-7.3,43.5
	c-4.7,15.1-11.7,28.9-20.3,42.1C494.8,515.3,521.7,520.6,547.3,516.6L547.3,516.6z M445,376.2c-1.8-5-4.1-10-6.7-14.6
	c-4,7.8-7.5,15.8-9.8,24.2c-2.2,8.6-3.6,17.5-3.6,26.5c0.1,5.7,0.6,11.4,1.6,17c2.4,11.6,6.4,22.6,12.1,32.9
	c3.5-6.9,6.6-14.1,8.6-21.5c1.9-7.5,3.3-14.8,3.7-22.5c0.4-10.5-0.3-20.9-2.7-31.1C447.4,383.5,446.2,379.7,445,376.2L445,376.2z
	 M379.7,374.4c4.1-16.1,10.7-31,19.4-45.1l3.3-5l0.5-0.8c-12.1-7.4-25-12.6-38.9-15.3c-10.1-2-21.1-2.1-31.3-1.3
	c-14.3,2-27.8,6.4-40.1,14c-1.5,0.9-3,2-4.4,3.1c10.9,16.3,18,35.4,22.4,54.4c2.2,10.2,3.5,20.4,3.7,30.8c0.1,9.5-0.6,18.8-2,28.1
	c-1.1,6.1-2.4,12-4.1,18c-4.6,15.6-11.7,31.4-21.1,44.7c33.2,23.8,81.8,24,115.4,0.8c-12.9-19.2-21.6-40.4-25.5-63.2
	c-2.5-15.8-2.7-31.8-0.4-47.6C377.5,384.7,378.5,379.6,379.7,374.4L379.7,374.4z M258,375.4c-1.6-4.3-3.5-8.5-5.7-12.6
	c-5.6,10.7-9.7,22.1-11.5,34.2c-1,6.9-1.5,13.8-1,20.8c1,15,5.7,30,12.8,43.1c3.4-6.9,6.3-13.6,8.3-21.1
	C266.9,419.4,265.7,395.6,258,375.4L258,375.4z M192.6,440.6c-2.3-12.6-3.1-25.1-2.5-37.9c1.8-28.1,11.1-55.1,26.9-78.3
	c-5.4-3.6-11.2-6.9-17.2-9.5c-10.3-4.3-21.2-7.2-32.3-8c-8.3-0.6-16.5-0.2-24.7,0.8c-5.2,0.9-10.3,2.1-15.3,3.6
	c-8.3,2.8-15.8,6.2-23.4,10.6c-5.7,3.7-11.1,7.7-16.2,12.2c-5,4.7-9.5,9.6-13.7,15c-5,7-9.2,14.2-12.7,22.1
	c-2.6,6.6-4.6,13-6.2,19.8l-0.9,5.2c-0.9,7.1-1.3,14.3-1.1,21.4c0.3,5.4,1.1,10.6,2,15.9c2.5,10.3,5.7,19.6,10.7,29
	c2.5,4.4,5.3,8.7,8.3,12.9c5.3,6.8,11,12.7,17.5,18.4c5.4,4.2,11,8,16.9,11.4c7.8,3.9,15.6,7.1,24,9.4c5,1.2,10.3,2.2,15.5,2.8
	c5.8,0.4,11.4,0.6,17.2,0.3c15.6-1.2,30.1-5.2,44-12.4l3.6-2l4.5-2.7c-4.2-5.8-7.8-12.6-11-19.1C200,468.7,195.4,454.9,192.6,440.6
	L192.6,440.6z M809.8,536.7c-6.1,4.4-12.4,8.4-18.9,12.2c-6.7,3.3-13.6,6.5-20.7,9.3c-7.3,2.5-14.6,4.6-22.1,6.3l-7.6,1.4
	c-13.4,1.6-26.8,2.3-40.2,0.9c-16.3-1.8-31.6-6-46.6-12.5c-10.6-4.8-20.4-10.5-29.8-17.3c-10.4,7.3-21.1,13.5-32.9,18.4
	c-16.3,6.7-33,10.6-50.5,11.9c-12.1,0.7-24.3,0.1-36.3-1.9c-24-4.3-46.7-13.7-66.6-27.9c-8.5,6-17.4,11.4-26.9,15.7
	c-19.7,9-40.5,13.9-62.1,14.4c-14.3,0.2-28.4-1.3-42.3-4.9c-19.6-5.1-37.4-13.8-53.9-25.7c-8.7,6.1-17.5,11.4-27,15.8
	c-19.7,9.1-41.3,14.3-63.1,14.8c-9.1,0.1-18-0.6-26.9-1.7c-7.6-1.3-15.1-3.1-22.6-5.2c-7.3-2.5-14.3-5.2-21.2-8.3
	c-6.7-3.4-13.2-7.2-19.5-11.2c-8.3-5.9-15.7-12-23-19c-5.2-5.4-10.1-11.1-14.7-17c-4.4-6.1-8.4-12.4-12.1-18.9
	c-3.4-6.8-6.6-13.6-9.4-20.7c-2.5-7.3-4.5-14.6-6.3-22.1c-1.3-7.8-2.3-15.5-2.9-23.3l-0.3-7.9l0.3-8l0.6-7.9l1-7.8l1.3-7.6l1.8-7.6
	l2-7.3l2.5-7.2l2.8-7.1l3.2-6.9l3.4-6.7l3.8-6.6l4-6.2l4.4-6.1l4.6-5.8c4.9-5.7,10.1-11.1,15.4-16.3c5.6-4.8,11.6-9.5,17.7-13.9
	c6.4-4,12.8-7.8,19.5-11.2c6.9-3.1,13.9-5.9,21.2-8.4c7.4-2.1,15-3.9,22.6-5.2c11.2-1.4,22.4-2.1,33.6-1.5
	c14.3,1.1,28.1,3.8,41.5,8.5c13.2,4.9,25.2,11,36.9,18.8l2.6,1.8l2.1,1.5c22.3-16.6,49-27,76.6-30.1c16.5-1.6,33.2-0.9,49.5,2.6
	c14.5,3.2,28.6,8.4,41.7,15.5c6.3,3.5,12.3,7.4,18.2,11.5c9.9-7.4,21-13.6,32.4-18.4c21.9-9.3,46.3-13.1,70.1-11.7
	c7.6,0.6,15.4,1.6,22.8,3.2c17.7,3.8,34.9,10.9,50.2,20.6c3.3,2.1,6.8,4.5,10,6.8c15.3-11.3,32.7-19.8,50.9-25
	c13.9-4,27.9-5.7,42.4-5.9l8.2,0.2l8.1,0.6l7.9,1c7.8,1.3,15.3,3.1,23,5.2c7.3,2.4,14.3,5.2,21.4,8.4c6.9,3.4,13.2,7.1,19.6,11.2
	c6.1,4.3,11.9,8.9,17.5,13.9c5.4,5.2,10.5,10.5,15.2,16.2c4.6,5.9,8.8,12,12.7,18.3l3.7,6.6l3.4,6.7l3,6.9l2.7,7.1l2.3,7.3l2,7.3
	c1.7,7.6,3,15.1,4,23c0.6,7.9,0.8,15.9,0.6,23.8c-0.6,7.8-1.6,15.5-3,23.3l-1.8,7.6l-2.1,7.3l-2.5,7.2c-2.8,7.1-5.9,13.9-9.3,20.7
	c-5,8.8-10.5,16.8-16.8,24.7c-4.9,5.7-10,11.1-15.5,16.3l-5.7,4.9L809.8,536.7L809.8,536.7z"/>
<path fill-rule="evenodd" clip-rule="evenodd" fill="#D1D3D4" d="M254.8,499.5c-23-23-36-52.4-36-87.2c0-33.2,12.4-62.7,33.4-85.4
	c20.6,22.5,33.4,52.5,33.4,85.4c0,22.8-4.4,42.1-15.1,60.6c16-50.7,11.4-86.4-8.2-114.7c3.5,5,13.1,32.9,11.4,54.2
	c0,23.5-7.2,45.4-19.4,63.6L254.8,499.5L254.8,499.5z M867.5,412.3c0,83-67.7,150.5-150.6,150.5c-34.7,0-66.7-11.8-92.9-31.9
	c-26.2,19.8-58.5,31.9-93.5,31.9c-34.6,0-66.5-11.8-92.8-31.3c-26.3,19.7-58,31.3-92.3,31.3c-34.7,0-66.7-11.8-92.9-31.9
	c-26.2,19.8-58.5,31.9-93.4,31.9c-83,0-150.6-67.6-150.6-150.5c0-83,67.7-150.6,150.6-150.6c34.9,0,67.2,12.1,93.1,32.2
	c25.9-20.2,58.3-32.2,93.2-32.2c34.9,0,66.8,12,92.7,31.7c25.8-20.1,58-31.7,92.4-31.7c35,0,67.2,12.1,93.1,32.2
	c26-20.2,58.3-32.2,93.3-32.2C803,261.6,867.5,329.1,867.5,412.3L867.5,412.3z M717,277.4c-25.5,0-49,7.3-69.2,19.9
	c33.1-26.4,86.3-32.2,147.4-10.9c-22-13.4-50.4-22-78.2-22c-35.3,0-67.9,12.8-93.4,33.6l0.4,17c-24.3-23.3-57.2-37.7-93.4-37.7
	c-25.4,0-48.9,7.3-69.1,19.9c33-26.4,86.2-32.2,147.2-10.9c-22-13.4-50.3-22-78.2-22c-35.1,0-66.9,11.9-92.4,32.7v17.9
	c-24.2-23.3-56.6-37.7-92.7-37.7c-25.4,0-49,7.3-69.1,19.9c33.1-26.4,86.2-32.2,147.3-10.9c-22-13.4-50.3-22-78.2-22
	c-35.2,0-67.9,12.8-93.4,33.6l0.4,17c-24.2-23.3-57.2-37.7-93.3-37.7c-25.4,0-49,7.3-69.2,19.9c33.1-26.4,86.3-32.2,147.4-10.9
	c-22-13.4-50.4-22-78.2-22c-81.4,0-147.8,66.5-147.8,147.8c0,28.3,9.8,59.2,26.6,84.1c-33.7-66.6-16.7-117.1,4.8-148.6
	c-8.3,18.5-19.1,43.2-18.5,64.5c2.1,73.4,60.7,134.9,134.9,134.9c37.7,0,69.5-13.4,94.4-38.6c24.7,25.8,53.7,38.6,91.9,38.6
	c35.1,0,68.8-14.1,93.2-39c24,24.1,55.4,39,91.9,39c37.7,0,69.5-13.4,94.4-38.6c24.8,25.8,53.7,38.6,92,38.6
	c74.3,0,134.8-60.6,134.8-134.9C851.8,338.5,790.7,277.4,717,277.4L717,277.4z M420.4,498.9c-20.1,17.4-46.4,28-74.9,28
	c-27.1-0.4-39.2-5.2-50.7-10.9c33.1,25.7,106.5,15.8,125.2-0.4c-20.4,14.7-46.1,23.2-74.5,23.2c-34.8,0-64.2-12.7-87.2-35.5
	c23.7-24.2,35.7-54.5,35.7-91c0-35.5-13.9-68-36.6-92.2c17.3-17.4,51.7-34.4,88.1-34.4c33.2,0,64.4,15.1,87.1,36.1h-16.7
	c-21.4,25.6-32.9,54.7-32.9,90.5c0,28.3,9.8,59.2,26.5,84.1c-33.7-66.6-16.7-117.1,4.8-148.6c-8.3,18.5-18.9,43.3-18.4,64.5
	c0.8,33,15.7,63.6,36,87.3L420.4,498.9L420.4,498.9z M438.1,496.8c-21.3-22.7-34-51.3-34-84.5c0-33.2,12.9-63.5,34.1-86.2
	c21.5,22.6,33.8,52.5,33.8,86.2c0,22.8-4.4,42.1-15.1,60.6c16-50.7,11.4-86.4-8.2-114.7c3.5,5,13.1,32.9,11.4,54.2
	c0,24.2-7.6,46.9-20.6,65.4L438.1,496.8L438.1,496.8z M444.6,503.4c22.3-23.8,35.6-55.7,35.6-91.2c0-35.5-13-66.2-35.6-90.5
	c22.7-22.3,51.7-36.1,85.9-36.1c33,0,63.9,12.4,86.4,33.3l-14.5,0.1c-20.8,25.4-33.3,58-33.3,93.2c0,28.3,9.8,59.2,26.6,84.1
	c-33.8-66.6-16.7-117.1,4.8-148.6c-8.3,18.5-19,43.1-18.5,64.5c0.8,35.3,12.6,64.4,35.5,88.8l-13.1-1.4
	c-19.9,16.8-45.8,27.2-73.9,27.2c-27.1-0.4-38.1-5.8-50.7-10.9c33,25.7,106.4,15.8,125.2-0.4c-20.4,14.7-46.1,23.2-74.5,23.2
	C494.2,538.8,468,524.4,444.6,503.4L444.6,503.4z M466.3,502.3c18,13,40.5,20.6,64.2,20.6c23.8,0,47.1-8,65.3-20.8
	c-18-24.9-29.5-56.8-29.5-89.8c0-33.1,10.8-63.8,29.1-89.1c-18.2-13.6-40.6-21.6-64.9-21.6c-23.7,0-45.7,7.3-63.7,20.2
	c17.3,24.5,29.1,57.8,29.1,90.5C495.9,445.3,484.3,477.4,466.3,502.3L466.3,502.3z M438.5,471.8c11.1-17.2,17.5-37.7,17.5-59.6
	c0-22.3-6.2-43.2-17.9-60.1C426.9,370,420,390.4,420,412.3C420,433.7,427.8,454.7,438.5,471.8L438.5,471.8z M409.5,501.9
	c-18.4-25.6-29.5-56.4-29.5-89.6c0-33.7,11.2-64.8,30-89.9c-18-12.6-41.1-20.8-64.5-20.8c-28.1-1.6-58.7,14.5-63.2,22.1
	c16.7,24,27.4,56.7,27.4,88.6c0,32.9-10.7,63.5-29.1,88.8c18,13.9,40.6,21.8,64.9,21.8C369.2,522.9,391.4,515.3,409.5,501.9
	L409.5,501.9z M245.9,501.1l-13.1-1.4c-19.9,16.8-45.7,27.2-73.8,27.2c-27.1-0.4-35.1-6.9-50.8-10.9c33.1,25.7,106.5,15.8,125.3-0.4
	c-20.5,14.7-46.2,23.2-74.5,23.2c-69.6,0-126.6-56.8-126.6-126.5c0-69.7,56.9-126.6,126.6-126.6c33,0,63.9,12.4,86.4,33.3l-14.6,0.1
	c-20.8,25.4-33.3,58-33.3,93.2c0,28.3,9.9,59.2,26.6,84.1c-33.7-66.6-16.7-117.1,4.8-148.6c-8.3,18.5-18.9,43.1-18.4,64.5
	C211.3,447.6,223.1,476.7,245.9,501.1L245.9,501.1z M252.7,470.9c10.8-17.1,17-37.2,17-58.6c0-21.6-6.2-41.8-17.2-59.1
	c-10.8,16.9-17.7,37.5-17.7,59.1C234.8,433.4,242.3,454.2,252.7,470.9L252.7,470.9z M224.4,502.1c-18-24.9-29.6-56.8-29.6-89.8
	c0-33.1,10.8-63.8,29.1-89.1c-18.1-13.6-40.6-21.6-64.8-21.6c-60.9,0-110.6,49.7-110.6,110.6c0,60.9,49.7,110.6,110.6,110.6
	C182.8,522.9,206.1,514.9,224.4,502.1L224.4,502.1z M626.4,499.5c-23-23-36-52.4-36-87.2c0-33.2,12.4-62.7,33.4-85.4
	c20.7,22.5,33.4,52.5,33.4,85.4c0,22.8-4.4,42.1-15.1,60.6c16-50.7,11.4-86.4-8.1-114.7c3.5,5,13.1,32.9,11.4,54.2
	c0,23.5-7.2,45.4-19.4,63.6L626.4,499.5L626.4,499.5z M629.7,503.3c23.7-24.2,35.7-54.5,35.7-91c0-35.5-13.9-68-36.7-92.2
	c17.4-17.4,51.7-34.4,88.2-34.4c69.6,0,126.5,56.9,126.5,126.6c0,22.8-4.4,42.1-15.1,60.6c16-50.7,11.3-86.4-8.2-114.7
	c3.5,5,13.1,32.9,11.4,54.2c0,63.1-51.5,114.6-114.6,114.6c-27.1-0.4-39.2-5.2-50.8-10.9c33.1,25.7,106.5,15.8,125.2-0.4
	c-20.4,14.7-46.1,23.2-74.4,23.2C682.1,538.8,652.8,526.1,629.7,503.3L629.7,503.3z M652,501c18,13.9,40.6,21.8,65,21.8
	c60.9,0,110.6-49.6,110.6-110.6c0-60.9-49.7-110.6-110.6-110.6c-28.1-1.6-58.7,14.5-63.2,22.1c16.7,24,27.4,56.7,27.4,88.6
	C681.1,445.2,670.4,475.8,652,501L652,501z M624.2,470.9c10.7-17.1,17-37.2,17-58.6c0-21.6-6.3-41.8-17.2-59.1
	c-10.9,16.9-17.7,37.5-17.7,59.1C606.3,433.4,613.8,454.2,624.2,470.9L624.2,470.9z"/>
</svg>
