<?xml version="1.0" encoding="utf-8"?>
<!-- Generator: Adobe Illustrator 18.0.0, SVG Export Plug-In . SVG Version: 6.00 Build 0)  -->
<!DOCTYPE svg PUBLIC "-//W3C//DTD SVG 1.1//EN" "http://www.w3.org/Graphics/SVG/1.1/DTD/svg11.dtd">
<svg version="1.1" id="Layer_1" xmlns="http://www.w3.org/2000/svg" xmlns:xlink="http://www.w3.org/1999/xlink" x="0px" y="0px"
	 viewBox="0 0 870.6 870.5" enable-background="new 0 0 870.6 870.5" xml:space="preserve">
<g>
	<polygon fill="#231F20" points="355.3,380.4 386,352.8 377.1,383.7 	"/>
	<path fill="#231F20" d="M410.9,245.7c0,0-7.1,64.9-7.5,68.5c-8.8,4.6-47.6,25.1-49.6,26.3c-4.1,2.4-8.1,6.8-10.8,12l-17.1,38.6
		l-1.4,3.1c-0.9,1.9-1.6,4.5-1.6,7.1c0,1.7,0.3,3.3,1,4.8c1.6,3.1,21.6,27.1,24,29.2c3.1,2.8,6.2,4.2,10,4.5l16.5-0.3
		c0.2,0,12.2-2.9,12.2-2.9c5.7-1.9,17.7-6.3,35-15c22.3-11.2,31.4-20.1,36.3-25.8c2.9-3.5,4.6-8.2,4.8-13.4c0.1-2.4-1-25.1-1.3-28.3
		l-7.2,0.7c0.3,3.2,1.3,24.1,1.3,27.1c0,0.1,0,0.2,0,0.3c-0.2,3.6-1.3,6.9-3.1,9c-4.5,5.2-12.9,13.4-34.1,24
		c-16.9,8.5-28.5,12.8-33.9,14.6l-10.6,2.6l-15.3,0.2c-2.1-0.2-3.8-1-5.7-2.7c-2.3-2.1-20.9-24.6-22.3-27.1
		c-0.2-0.3-0.3-0.9-0.3-1.5c0-1.2,0.3-2.8,1-4.2l1.4-3.2l16.9-38.2c2.1-4,5.1-7.3,8.1-9.1c0.1-0.1,52.6-27.9,52.6-27.9
		s4.6-42,6.5-59.3c6.4,14.1,18.2,39.6,18.2,39.6c0,0,1.5,7.1,1.5,7.1c0.1,0.8,1,11.3,1,11.3l0.2,2.1l2,0.9
		c0.5,0.2,45.6,20.2,71.9,76.3c19.3,41,28.5,84.1,22.7,194c-2.9,55.3-23.7,119.6-42.3,161.4l-9,20.1c-12.2,27.1-16.2,36.3-16.2,44.9
		l0.6,23l0.3,9.3c0,4.1,0.1,12.7-4.2,14.1c-6.7,2.2-20.2,1.5-22.3,0.7c-1.7-0.7-3.9-3.1-4.5-6.9c-1.3-8.1,1.4-26.1,6.9-44.8
		c3.5-12,12.1-30.9,19-46.1l9.6-22.1c13.1-33.7,35.5-97.8,42.3-158.1l-7.2-0.8c-6.7,59.5-28.9,122.9-41.5,155.4l-0.3,0.9l-9.5,21.7
		c-7.3,16.2-15.6,34.5-19.3,47c-4.6,15.9-8.9,36.9-7.1,48c1,5.8,4.5,10.7,8.9,12.4c4,1.7,19.4,2.1,27.3-0.5
		c8.6-2.8,9.2-13.7,9.2-19.1c0-0.4,0-0.8,0-1.2c0-0.7-0.3-10.3-0.3-10.3l-0.6-22.8c0-7.1,4.3-16.6,15.6-42l9-20.2
		c18.8-42.4,39.9-107.7,42.9-163.9c1.2-22,1.8-41.3,1.8-58.5c0-70.1-9.3-105.1-25.2-139c-25-53.3-64.9-74.8-73.6-79
		c-0.3-2.7-0.8-8.6-0.8-8.6c-0.1-0.8-2.1-9.7-2.1-9.7c0,0-29.2-63.8-29.2-63.8L410.9,245.7z"/>
	<path fill="#231F20" d="M435.5,411.3l3.4,2.4c5.7,4,11.1,7.7,15.2,15.3c5.6,10.4,7.2,26.6,5.1,52.6c-2,24.1-20.8,65.3-40.8,106.3
		c-19.6,40-29.8,63.1-31,109.5c-0.7,27.9,1.4,50.5,3.8,74.4c0,0.5,2.7,21.1,2.7,21.1c1.5,10.5,3,20.5,2.9,26.7l-1.9,15.2
		c-1.2,7.2-2.4,14.6-2.4,21.7c0,12.9,10.5,14.3,14,14.8c9.4,1.2,17.3-1.1,23.6-6.8c10.7-9.8,7.4-40.6,1.2-64
		c-8.2-31.5-12-55.8-10.8-109c1-45.2,23.9-96.7,44.7-125.4l-5.8-4.2c-21.4,29.5-45,82.7-46.1,129.5c-1.2,53.7,2.8,79.5,11,111
		c7,26.5,7.3,50.9,0.9,56.8c-4.6,4.3-10.6,5.9-17.8,5c-5.9-0.7-7.7-2.5-7.7-7.5c0-6.5,1.2-13.6,2.4-20.5l2-16.3
		c0.1-6.8-1.4-17.1-3-27.9l-2.6-20.2c-2.4-24.2-4.5-46.6-3.8-74c1.2-44.9,10.7-66.3,30.4-106.5c18.9-38.7,39.3-82.3,41.5-108.8
		c2.2-27.9,0.5-44.8-5.9-56.7c-4.9-9.2-11.6-13.8-17.5-17.8l-3.3-2.3L435.5,411.3z"/>
	<path fill="#231F20" d="M537.6,574.9l1.9,7c31.4-8.3,64.5-15.1,94.5-8.4c11.1,2.5,19.1,7.7,23.8,15.5c4.9,8.3,5.8,19.3,2.6,31
		c-5.3,19.2-30.3,44.6-51.6,64.5l-0.7,0.7c-50.6,47.5-96.7,86.9-137,117.1l4.3,5.8c40.5-30.3,86.8-69.9,137.5-117.6l0.8-0.7
		c23.3-21.9,47.8-47.1,53.6-67.8c3.8-13.7,2.6-26.7-3.4-36.7c-5.6-9.4-15.4-15.9-28.3-18.8C604,559.4,569.8,566.4,537.6,574.9z"/>
	<path fill="#231F20" d="M363.9,7c29.7,7.5,66.5,20.4,87.3,54c23.7,38.3,14.3,73.4-32.7,120.9l-55.2,54.3
		c-27.9,27.1-54.2,52.7-73.4,74.2c-18.7,21-53.1,63.4-72.9,110.4c-21.4,50.8-21.3,108.6,0,154.6c32.7,70.5,87.6,119.4,172.6,153.8
		l2.7-6.7c-83.2-33.7-136.9-81.3-168.8-150.1c-20.5-44.2-20.5-99.8,0.1-148.7c19.4-46.1,53.2-87.7,71.6-108.3
		c19-21.4,45.3-46.9,73-73.9l55.2-54.4c49.9-50.4,59.7-88,33.8-129.8C435.2,21.4,396.7,7.8,365.7,0L363.9,7z"/>
</g>
</svg>
