<?xml version="1.0" encoding="utf-8"?>
<!-- Generator: Adobe Illustrator 18.1.0, SVG Export Plug-In . SVG Version: 6.00 Build 0)  -->
<!DOCTYPE svg PUBLIC "-//W3C//DTD SVG 1.1//EN" "http://www.w3.org/Graphics/SVG/1.1/DTD/svg11.dtd">
<svg version="1.1" id="Layer_1" xmlns="http://www.w3.org/2000/svg" xmlns:xlink="http://www.w3.org/1999/xlink" x="0px" y="0px"
	 viewBox="0 0 870.6 870.5" enable-background="new 0 0 870.6 870.5" xml:space="preserve">
<path fill-rule="evenodd" clip-rule="evenodd" fill="#B02C1B" d="M63.2,690.6c-0.2-0.9-0.2-1.8-0.2-2.6c0-8.2,2-16.1,8.9-17.7
	c5.5-1.2,9.5,3.6,11.2,7.5l1.3-0.3v-11.4l-1.4,0.3c-0.5,1.3-0.9,2.4-2.2,2.7c-1.3,0.2-5-1.3-9.3-0.3c-10,2.2-17,11.4-17,21.3v0.2
	c0.2,8.8,6.2,15.5,17.2,13.1c6.2-1.4,9.9-5.3,13.5-10.2l-1.5-0.9c-4,5.4-7.6,7.7-11.4,8.5c-1.4,0.4-5.2,0.5-7.2-2.6
	C63.8,696.3,63.3,693.2,63.2,690.6L63.2,690.6L63.2,690.6z"/>
<path fill-rule="evenodd" clip-rule="evenodd" fill="#B02C1B" d="M293.4,690.6c-1-2.6-2.7-4.3-3.7-5l-6.3-4.8
	c-3.6-2.8-4.4-4-4.4-6.7c0-3.2,2.2-4.1,4.5-3.7c5,1.1,7.6,7.2,8.4,10.7l1.2,0.2v-10.6l-1.3-0.2c-0.3,0.9-0.5,1.6-1.5,1.4
	c-1.2-0.3-3.2-2.3-6.6-3c-8.2-1.7-9.5,4.6-9.5,7.6c0,2.2,0,6.4,7.2,11.9l2.7,2l0.1,0.1c2.9,2.1,4.8,3.7,4.8,6.9
	c0,0.6-0.1,5.4-5.3,4.4c-5.2-1.1-7.7-6.6-8.6-11.4c0,0-0.2-0.5-0.2-0.8l-1.2-0.2v12.1l1.2,0.2c0.2-0.7,0.4-1.5,1.3-1.4
	c1.3,0.3,3.3,2.3,7.3,3.1c7.8,1.6,10.6-3.8,10.6-8C294.4,693.6,294,692,293.4,690.6L293.4,690.6L293.4,690.6L293.4,690.6z"/>
<path fill-rule="evenodd" clip-rule="evenodd" fill="#B02C1B" d="M108.4,690.6c-2.7,3.2-5.9,4.5-9.1,5.2c-3.2,0.7-4.1,0.2-4.1-1.9
	v-11.8c4.8-1,7.2-0.2,7.8,5.8l1.3-0.2v-16.6l-1.3,0.3c-0.7,6.2-3.1,8-7.8,9v-11.3c0-2.1,0.8-2.5,3.6-3.1c6.4-1.5,9.8-1,10.9,5.7
	l1.2-0.3v-9.8l-26.6,6.1v1.2c1.4-0.2,2.4-0.6,3.1,2.6v23.6c0,3-1.4,3.5-4.2,4.4v1.3l28-6.3l1.9-10.6l-1.3,0.3
	C111,687,109.8,689,108.4,690.6L108.4,690.6L108.4,690.6z"/>
<path fill-rule="evenodd" clip-rule="evenodd" fill="#B02C1B" d="M150.8,685.1l1.9-10.4l-1.4,0.4c-2.9,7.8-7.7,10.2-12.4,11.2
	c-3,0.7-3.9,0.3-3.9-1.9v-11.6c4.5-1,7-0.1,7.5,5.7l1.3-0.3v-16.1l-1.3,0.2c-0.1,1-0.2,1.7-0.4,2.5c-1,4-3.3,5.4-7.1,6.3v-11.1
	c0-2,0.7-2.4,3.4-2.9c6.3-1.5,9.8-1,10.8,5.6l1.1-0.3v-9.6l-27.2,6v1.2c2.2-0.3,4.2-0.7,4.2,2.4v23.2c0,3-1.5,3.4-4.2,4.4v1.1
	L150.8,685.1L150.8,685.1L150.8,685.1z"/>
<path fill-rule="evenodd" clip-rule="evenodd" fill="#B02C1B" d="M221.6,689.9c-2.8-1-3.8-1.4-3.8-5.3v-21.8c0-4.3,1.4-4.1,3.8-3.8
	v-1.2l-10.9-2.2L202,677l-8.7-25.1l-10.9-2.2v1.2c3,0.9,3.9,1.7,3.9,4.3v23.4c0,2.8-0.5,3.5-4,3.1v1.2l10.2,2.1v-1.3
	c-3.6-1-4.4-2.3-4.4-5.7v-23l10.9,31.3l1.2,0.2l10.8-27.6L211,684c0,3.3-1.2,3.2-3.8,2.9v1.2l14.3,3V689.9L221.6,689.9L221.6,689.9z
	"/>
<path fill-rule="evenodd" clip-rule="evenodd" fill="#B02C1B" d="M251.3,686.6l-1.3-0.3c-0.8,1.9-1.7,3.3-2.7,4.3
	c-2.7,2.7-6.1,2.7-9.3,2.1c-2.3-0.5-3.3-1-3.8-2.1c-0.1-0.4-0.1-0.8-0.1-1.4v-11.9c4.6,0.9,6.9,2.9,7.5,9.1l1.1,0.2v-16.7l-1.1-0.2
	c-0.7,6-3.1,6.7-7.5,5.9v-11.5c0-2,0.8-2,3.4-1.7c2.9,0.6,5,1.3,6.7,2.6V665c2,1.5,3.2,3.9,3.8,7.8l1.2,0.2v-8v-1.9l-26.6-5.1v1.3
	c2.2,0.6,4.1,1,4.1,4.2v23.9c0,3-1.4,2.9-4.1,2.7v0.5v0.8l27,5.1L251.3,686.6L251.3,686.6L251.3,686.6z"/>
<path fill-rule="evenodd" clip-rule="evenodd" fill="#B02C1B" d="M273.9,672.7c1-2.4,1.6-3.3,4-3.2v-1.2l-9.4-1.7v1.2
	c2.5,0.5,3.7,1,3.7,2.9c0,1-0.4,2.1-0.8,3.1l-5.6,14.7l-5.9-16.2c-0.4-1.3-1.3-3.4-1.3-4.4c0-1.8,1-1.6,3.8-1.3v-1.2l-13.3-2.3v1.1
	c0.6,0.3,1,0.5,1.2,0.7c0.3,0.4,0.2,1.1,0.9,3l11.4,30.7l1.2,0.3L273.9,672.7L273.9,672.7L273.9,672.7z"/>
<path fill-rule="evenodd" clip-rule="evenodd" fill="#B02C1B" d="M93.6,623.6c0-4.2,1.5-4.5,4.2-5.3v-1.2l-12.1,2.3l-9.6,24.9
	l-9.6-21.2l-12.1,2.4v1.2c3.4-0.4,4.3,0.1,4.3,2.6v23.2c0,2.9-0.6,3.7-4.4,4.7v1.2l11.2-2.1v-1.3c-4,0.5-4.9-0.5-4.9-3.9v-22.7
	l12.1,26.4l1.3-0.2L86,622.9l0.1,24.6c0,3.2-1.5,3.7-4.4,4.5v1.2l16-3.1v-1.2c-3.1,0.2-4.2,0.2-4.2-3.7V623.6L93.6,623.6L93.6,623.6
	z"/>
<path fill-rule="evenodd" clip-rule="evenodd" fill="#B02C1B" d="M122.6,637.3l-10.7-23.6l-1.3,0.3l-10.6,28.8
	c-1.5,3.9-1,3.7-2.2,6.1l0.1,1.1l7.1-1.3v-1.3c-1.6,0.3-3.9,0.5-3.9-1.3c0-0.7,0.7-2.9,2.1-6.7l10.8-2c0.7,1.4,2.3,4.7,2.3,6
	c0,1.6-1,1.8-3.9,2.6v1.2l13.7-2.7v-1.5C126,643.1,124.4,643.1,122.6,637.3L122.6,637.3L122.6,637.3z M103.8,637.3l4.5-12.7
	l4.8,10.9L103.8,637.3L103.8,637.3L103.8,637.3z"/>
<path fill-rule="evenodd" clip-rule="evenodd" fill="#B02C1B" d="M224.2,613.9c3.3,0.8,8.2,1.9,9.2,9.9l1.4,0.2l-0.1-9.9l-28.8-5
	l-0.2,9.8l1.5,0.2c0.9-7.6,5.9-7,9.2-6.6v25.7c0,4.1-1.1,4-4.7,3.6v1.3l17.2,2.9V645c-3.6-0.9-4.7-1.1-4.7-5.3V613.9L224.2,613.9
	L224.2,613.9z"/>
<path fill-rule="evenodd" clip-rule="evenodd" fill="#B02C1B" d="M257.8,643.1l-10.7-27.6l-1.2-0.2l-10.8,24.9
	c-1.4,3.4-2.1,5-4.7,4.9v1.3l9.7,1.7v-1.2c-1.6-0.4-3.9-0.9-3.9-2.7c0-0.8,0.7-2.6,2-6l10.9,1.9c0.7,1.6,2.1,5.6,2.1,6.9
	c0,1.6-0.8,1.5-3.8,1.2v1.3L263,652v-1.2C260.8,650.5,260,648.7,257.8,643.1L257.8,643.1L257.8,643.1z M239.1,636.3l4.5-11.1
	l4.9,12.7L239.1,636.3L239.1,636.3L239.1,636.3z"/>
<path fill-rule="evenodd" clip-rule="evenodd" fill="#B02C1B" d="M154.8,636.7l-9.6-12c2.6-1.4,7.5-3.8,7.5-9.8c0-3.9-2.2-5.6-5-6.2
	v0c-2.4-0.6-5.1-0.3-6.9,0c-0.6,0.1-1.1,0.1-1.6,0.2l-15.5,3.1v1.2c2.7-0.4,4.3-0.6,4.3,3.7v21.6c0,2.9,0.2,2.9-2.2,4.9v1.2
	l14.2-2.7v-1.2c-3.2,0.1-4.3,0.2-4.3-3.8v-9.5l1.3-0.2l10,13.4l9.9-2v-1.2C156.3,637.5,155.5,637.6,154.8,636.7L154.8,636.7
	L154.8,636.7z M135.3,625.4v-12.4c0.2-1.6,0.4-2.1,3-2.6c3.8-0.7,5.8,1,5.8,5.9C144.1,622.5,141.6,624.1,135.3,625.4L135.3,625.4
	L135.3,625.4z"/>
<path fill-rule="evenodd" clip-rule="evenodd" fill="#B02C1B" d="M205.7,634.2c0.1-0.3,0.1-0.6,0.1-1c0-5.3-3.6-8.8-5.4-9.9l-7-4.8
	c-4.1-2.7-5-4-5-6.6c0-1.7,0.7-2.7,1.8-3.3v0.1c1-0.6,2.2-0.7,3.4-0.5c0.5,0.1,1,0.3,1.5,0.4v0.1c4.6,1.7,7.1,7,7.8,10.2l1.3,0.3
	v-10.4v-0.2l-1.4-0.2c-0.1,0.1-0.1,0.2-0.1,0.4v0.1c-0.2,0.6-0.5,1.1-1.4,1c-0.7-0.1-1.4-0.5-2.3-1c-1.4-0.7-3-1.5-5.3-1.9
	c-4.3-0.7-6.9,0.4-8.4,1.9c-1.8,1.7-2.2,4.3-2.2,5.8c0,2.3,0,6.5,8.2,11.9l3.2,2.1c2.7,1.8,4.8,3.2,5.3,5.7c0,0.4,0.1,0.8,0.1,1.2
	c0,0.6-0.3,5.4-5.9,4.4c-3.6-0.6-6-2.9-7.6-5.6c-1.1-2.1-1.9-4.3-2.3-6.6l-1.3-0.2v12l1.3,0.2c0.2-0.7,0.5-1.6,1.5-1.4
	c1.3,0.3,3.5,2.3,8.1,3.1C202.1,642.8,205.2,638.3,205.7,634.2L205.7,634.2L205.7,634.2z"/>
<path fill-rule="evenodd" clip-rule="evenodd" fill="#B02C1B" d="M77.5,608.4c-3.5,0.4-4.7,0.5-4.7-3.6V579c2.9-0.4,7.1-1,8.7,4.2
	v-0.1c0.2,0.7,0.4,1.5,0.5,2.4l1.4-0.3l-0.1-9.8L54.5,581l-0.2,9.8l1.4-0.3c0.5-3.8,1.8-6.1,3.5-7.5c1.9-1.6,4-2.1,5.9-2.6v25.8
	c0,1-0.1,1.8-0.4,2.4v0.1c-0.4,1.8-1.8,2.2-4.4,2.9v1.2l17.1-3.3V608.4L77.5,608.4L77.5,608.4z"/>
<path fill-rule="evenodd" clip-rule="evenodd" fill="#B02C1B" d="M98,577.3c0-3.4,2.3-3.9,4.5-4.4v-1.3l-16.8,3.2v1.2
	c2.1-0.2,4.4-0.6,4.4,2.6v23.6c0,3-1.8,3.6-4.4,4.3v1.3l16.8-3.2v-1.2c-2.6,0.3-4.5,0.5-4.5-2.7V577.3L98,577.3L98,577.3z"/>
<path fill-rule="evenodd" clip-rule="evenodd" fill="#B02C1B" d="M128.9,583.1L128.9,583.1c-1.5-0.5-3.1-0.8-4.6-0.7
	c2-1.1,7.5-3.5,7.5-8.9c0-7.6-9.8-5.9-12.5-5.4l-14.8,2.9v1.3c2.1-0.3,4.1-0.6,4.1,2.6v23.7c0,3-1.5,3.5-4.1,4.2v1.2l15.4-3
	c10.1-2.2,13.4-7.6,13.4-11.7C133.3,585.9,131.3,584.1,128.9,583.1L128.9,583.1L128.9,583.1z M116.3,572.6c0-1.2,0-2.5,2.4-2.9
	c3.9-0.7,5,1.9,5,5.3c0,4.4-0.8,6.7-5.6,8c-0.6,0.2-1.2,0.3-1.8,0.5V572.6L116.3,572.6L116.3,572.6z M119.2,599.6
	c-2.1,0.4-2.9-0.2-2.9-2.4V585l1.4-0.3c3.1-0.4,7.3-0.5,7.3,6.4C125,594.2,124.4,598.6,119.2,599.6L119.2,599.6L119.2,599.6z"/>
<path fill-rule="evenodd" clip-rule="evenodd" fill="#B02C1B" d="M144.5,567.8c0-3.4,2.3-3.9,4.5-4.4v-1.2l-16.7,3.2v1.2
	c2.2-0.2,4.5-0.6,4.5,2.6v23.7c0,3-1.9,3.6-4.5,4.3v1.2l16.7-3.2v-1.3c-2.6,0.3-4.5,0.5-4.5-2.6V567.8L144.5,567.8L144.5,567.8z"/>
<path fill-rule="evenodd" clip-rule="evenodd" fill="#B02C1B" d="M187.4,583.1c-0.1-1.4-0.1-2.7-0.1-3.5c0-8.4,1.8-15.5,8.9-14.3
	c5.5,0.9,9.4,7.2,11.2,11.8l1.2,0.2v-11.5l-1.2-0.2c-0.6,1.1-1,2.1-2.3,1.9c-1.2-0.2-4.9-3.3-9.2-3.9c-10.3-1.7-17.1,5.1-17.1,14.7
	c0,1.6,0.3,3.2,0.7,4.8c1.6,7,7.1,13.6,16.8,15.2c4.1,0.7,10.7,0.4,12.9-0.9v-6.2c0-4,1.2-3.9,4.1-3.8v-1.3l-16.5-2.7v1.2
	c3.4,0.8,4.9,1.1,4.9,4.2v5.1c0,2.1-0.8,3.5-5.1,2.8C189.7,595.5,187.9,588,187.4,583.1L187.4,583.1L187.4,583.1z"/>
<path fill-rule="evenodd" clip-rule="evenodd" fill="#B02C1B" d="M232.1,578.2l-1.2-0.2c-0.4,2.6-1.1,4.2-2,5.1v-0.1
	c-1.3,1.3-3.2,1.3-5.9,0.9v-11.3c0-2.1,0.9-2.2,3.6-1.7c6.4,1.1,9.8,2.8,11,9.9l1.2,0.2v-9.8l-27.7-4.5v1.2c2.2,0.5,4.2,1,4.2,4.2
	v23.6c0,3.1-1.5,3-4.2,2.9v1.2l28,4.6l2-9.9l-1.3-0.2c-3,6.9-7.9,7.3-12.7,6.6c-3.2-0.5-4.1-1.3-4.1-3.4v-11.8
	c4.8,0.7,7.2,2.6,7.9,8.8l1.2,0.3V578.2L232.1,578.2L232.1,578.2z"/>
<path fill-rule="evenodd" clip-rule="evenodd" fill="#B02C1B" d="M252.8,579.2c0-4.3,1.5-4.1,4.8-3.8v-1.2l-16.8-2.7v1.2
	c2.2,0.4,4.1,0.9,4.1,4.1v23.6c0,3-1.4,2.9-4.1,2.8v1.3l21.5,2.7l1.9-10.8l-1.3-0.2c-2.3,5.1-1.1,7.2-5,8.4c-3.2,0.9-5.1,0-5.1-2.4
	V579.2L252.8,579.2L252.8,579.2z"/>
<path fill-rule="evenodd" clip-rule="evenodd" fill="#B02C1B" d="M278.4,608.7L278.4,608.7c-2.6-0.7-4.5-1.1-4.5-4.2v-23.2
	c0-3.2,2.2-2.9,4.5-2.6v-1.3l-16.5-2.7v1.2c2.2,0.5,4.4,1,4.4,4.1v23.2c0,2.9-1,2.8-3.7,2.6l-0.2,1.3l16,2.6V608.7L278.4,608.7
	L278.4,608.7z"/>
<path fill-rule="evenodd" clip-rule="evenodd" fill="#B02C1B" d="M143.7,551.8v-1.3c-1.4,0.2-2.1,0.2-4.7-3.3l-8.7-12
	c7.6-12.4,8.5-13.9,12.8-15.1v-1.3l-11.9,2.4v1.3c2-0.4,3.4-0.6,3.4,0.9c0,1.4,0,1.4-5.5,10.2l-4.7-6.4c-0.5-0.7-0.8-1-0.8-1.6
	c0-1.4,1-1.6,3.8-2.4V522l-16.5,3.4v1.1c2-0.3,2.9,0.8,3.8,2.1l9.5,12.3l-8.4,12.5c-1.8,2.6-2.6,3-4.2,3.5v1.3l11.2-2.2v-1.3
	c-1.7,0.2-3.9,0.5-3.9-1.3c0-0.3,0.1-0.7,0.3-1.1c0.4-1.1,1.5-3,4.2-7.2l1.8-2.9l4.8,7c0.5,0.7,1,1.8,1,2.3c0,0.3-0.1,0.6-0.3,0.8
	c-0.5,0.7-1.7,1-3.6,1.5v1.2L143.7,551.8L143.7,551.8L143.7,551.8z"/>
<path fill-rule="evenodd" clip-rule="evenodd" fill="#B02C1B" d="M265.9,535c0-2.4,0.3-3.5,3.8-3.2v-1.3l-10.4-1.8v1.2
	c3.9,1,4.5,2.7,4.5,5.6v14.8l-16.8-23.7l-10.2-1.7v1.2c0.7,0.1,1.4,0.4,4.1,4.2v23.1c0,3.2-1.3,3.3-4.2,3.2v1.2l10.9,1.8v-1.2
	c-3.5-1-4.6-2.2-4.6-5.6v-19.5l21.5,30.2l1.3,0.2V535L265.9,535L265.9,535z"/>
<path fill-rule="evenodd" clip-rule="evenodd" fill="#B02C1B" d="M71.6,533.3l-15.4,3.1v1.2c2.5-0.2,4.1-0.4,4.1,3.6v21.6
	c0,2.7-0.8,3.5-1.3,4.1c-0.3,0.3-0.4,0.4-2.7,1.3v1.2l16-3.2V565c-3.3,0.2-4.2,0.4-4.2-3.6v-9.1c6.4-1.3,8.8-1.8,11.8-4.3
	c3.9-2.9,4.4-6.4,4.4-8.2C84.1,531.5,75.4,532.5,71.6,533.3L71.6,533.3L71.6,533.3z M67.9,550.5v-13c0-1.1,0.7-1.9,2.3-2.3
	c3.9-0.7,5.7,0.8,5.7,6.3C75.8,547.6,73.7,549.5,67.9,550.5L67.9,550.5L67.9,550.5z"/>
<path fill-rule="evenodd" clip-rule="evenodd" fill="#B02C1B" d="M106.8,552.4c-0.2-0.4-11.3-24.7-11.3-24.7l-1.3,0.2l-10.6,28.9
	c-1.5,4-2.2,5.8-4.8,6.7v1.2l9.7-2v-1.2c-1.6,0.2-3.9,0.6-3.9-1.3c0-0.8,0.8-3,2.1-6.8l10.7-2.2c0.1,0.3,0.2,0.7,0.5,1.1
	c0.7,1.6,1.6,3.9,1.6,5c0,1.6-0.8,1.8-3.8,2.7v1.2l15.5-3.2v-1.2C109.4,557.4,108.6,556.2,106.8,552.4L106.8,552.4L106.8,552.4z
	 M87.5,551.5l4.5-12.8l4.8,10.9L87.5,551.5L87.5,551.5L87.5,551.5z"/>
<path fill-rule="evenodd" clip-rule="evenodd" fill="#B02C1B" d="M213.1,520.6l-10.3-1.7v1.2c2.7,0.7,4.1,1.1,4.1,3
	c0,1-0.5,2.2-1,3.2l-6.1,15l-6.3-16.5c-0.4-1.4-1.4-3.5-1.4-4.4c0-1.9,1.1-1.7,4.1-1.3v-1.3l-16.1-2.8v1.3c2.1,0.7,2.8,1,4,4.1
	l12.3,31.3l1.3,0.2l11-26.7c1-2.5,1.7-3.4,4.3-3.3V520.6L213.1,520.6L213.1,520.6z"/>
<path fill-rule="evenodd" clip-rule="evenodd" fill="#B02C1B" d="M232.8,552.4c-0.3-0.9-0.8-2-1.3-3.2l-10.6-27.5l-1.3-0.2
	l-10.7,24.9c-1.5,3.4-2.1,4.9-4.7,4.9v1.1v0.1l9.7,1.7v-1.2c-0.7-0.1-1.3-0.3-2-0.5c-1.1-0.5-2-1.1-2-2.3c0-0.8,0.8-2.6,2.1-5.9
	L223,546c0.5,1.5,1.8,4.7,2,6.4c0.1,0.2,0.1,0.4,0.1,0.5c0,1.6-0.9,1.6-3.8,1.3v1.2l15.5,2.7v-1.3
	C235,556.6,234.2,555.5,232.8,552.4L232.8,552.4L232.8,552.4z M212.9,542.4l4.5-11.1l4.8,12.7L212.9,542.4L212.9,542.4L212.9,542.4z
	"/>
<path fill-rule="evenodd" clip-rule="evenodd" fill="#B02C1B" d="M862.7,634.2L862.7,634.2c-2.7-8.1-18.2-44.3-21.5-51.1v-0.1
	c-3.2-6.9-5.4-11.3-5.4-11.5l29.6,12.5v-28.5c-2.1-1-6.7-3.2-6.7-3.2c-24.5-12.2-53.7-31.2-74-43.2c-5.9-3.6-13.1-8.9-38.2-8.3
	c-33.2,2.6-114.4,31-147.7,36.9c-31.1,5.4-56.5,7.2-58.8,7.2c-18,0.8-45.3-2.4-45.3-2.4c-0.4,1.5-7.6,28.7-8.7,40.5
	c-0.4,3.9-1.4,20.8-1.5,25.6c-0.2,8.3-0.1,17.1,0.4,25.5c0.6,11.6,1.5,22.6,2.4,30.8v0c0.9,8.8,1.6,14.4,1.6,14.4
	c0,0.9-12.8,13.7-12.8,14.3c0,8.8-1.4,16.3-4.1,22.5c-5,11.4-14.5,17.9-27.4,17.9c-10.6,0-18.7-4.8-22.2-4.8c-4.6,0-17.5,25-36.2,25
	c-15.2,0-23.3-10.7-23.3-25c0-5.2,0.9-9.6,2.7-13.2c4.2-8.8,13.3-13,24.1-13h11.6c12.7,0,24.3-4.2,31.8-12.6
	c5.7-6.2,9.1-14.7,9.1-25.5v-84.5c9.6-10.4,15.1-19.6,19.3-28.2c2.9-6.2,5.1-12.2,7.6-18.2c31.6-3.6,51-24.9,49.7-52.9
	c-0.2-4-0.7-7.6-1.3-10.8v0c-3.9-19.4-13.1-25.5-13.1-25.5c14.3-3.6,46.9-23.6,55-56.4c2.3-9.9,2.6-21.1-0.6-33.3
	c-9.4-35.7-35.6-40.1-35.9-40c0.4,0.5,16-32,19.9-66.7c4.2-37,24.8-109.7,86-117.1l232.2,0.1c-7,11.9-14.7,38.7-39.8,34.9
	c-0.4,0-190.2,0-190.2,0c-10.1,0.4-32.6,9.8-32.1,21.4c0.2,3.6,6.9,6,9.4,6l170.9-0.3c-11.4,16.6-22.5,26.2-36.4,32.5H608.2
	c-3.5,0-30.5,9.4-30.5,21.4c0,3.6,4.7,6,8.2,6H690c0,0-10.5,27.6-29.1,31.2h-77.3c-7,1.4-19.5,11.2-23.5,22.4
	c-0.5,5.1,4.6,5.9,8.1,5.9H690c2,18.6-6.3,37.6-26.9,36.9c-17.5-1.8-25.8-17.9-26.9-22.6c-8.1,3.5-18.7,7.1-25.8,8.4
	c3,22,23.2,37.5,43.3,40.4c28.4,4.1,51.6-17,51.8-17.4c59.6,3.2,159.8,12.7,159.8,12.7v-27.4c0,0-64.2-6.7-148.5-11.9
	c-0.2-0.1,4-12.8,2.3-19h87.7c17.8-0.8,38.6-8.2,58.5-22.6V226h-73.6c5.8-10.8,12.8-21.4,15.1-32.2h58.5v-89.3H635
	c-32.7-1.6-52.4,10.3-67.9,21.4c-8.2,5.9-25.7,26.3-25.6,26.2c-35.1-39.3-80.7-63.1-113.4-70.2c-12.9-2.4-35.9-6.2-58.5-1.2
	c-18.5,4.2-37.3,17.1-51.5,35.7c-11.5,15.1-11.8,24.9-11.8,25c-25.7,14.6-26,40.2-49.1,76.2c-14.2,19-17.1,16.8-21,27.3
	c-6,16.2,15.2,27.5,15.1,27.4c0.1,0.4-3.3,4-3.5,7.1c-3.5,11.9,0,21.4,1.2,23.9c3.5,10.7,14,16.7,22.2,20.2
	c-4.7,2.4-8.7,7.4-10.6,11.9c-4.3,10.8-1.1,17.8,0,21.3c1.1,4.8,4.7,9.6,10.6,14.3c-2.6,5.9-13.3,27.4-15.5,32.9
	c-5.5-5.6-12.4-10.9-20.5-15.5c-12.6-7.1-28.1-12.5-45.6-14.8c-21.1-0.4-32.1,7.8-37.7,14.8c-4.1,5.3-5.2,10-5.2,10
	c0,0.7-35-8.1-50.9,25c-8.7,17.8,6,39.2,4.8,39.2L0,483v309.2l865.4-0.2v-26.9c0,0-88.8,1.5-91.1,0.4c11.8-13.8,66.6-66.7,73.8-74.9
	v0c8-9.3,14.4-18,17.6-25.6c0.8-1.8,1.4-3.6,1.7-5.2C868.6,654.9,866.4,645.3,862.7,634.2L862.7,634.2L862.7,634.2z M861.9,253.3
	c-2.4,5.9-11.9,14.9-19.1,19.2c-6.3,3.8-24.2,11.3-41.7,13h-98.3c8.2-11.9,10.7-14.7,15.2-32.2H861.9L861.9,253.3L861.9,253.3z
	 M528.6,178.3c0,1.2-9.6,47.6-11.7,60.7c-6.3,39.1-10.5,60.7-36.2,89.3c14,3.5,44,13.4,49,38c1.7,8.4,0.7,15.8-1.8,22.2
	c-11.3,27.5-53.6,38.1-53,38.5c0-0.5-7.1,14.3-10.7,21.4c3.9,2,17.7,7.5,23.4,22c1.1,3,2,6.4,2.3,10.1c0,21.4-21,27.4-42,28.6
	c-2.4,10.5-8.4,28.5-18.1,43.2c-9,13.4-21.2,24.1-36.8,23.5l-3.5-1.2c2.3-4,4.1-13.4,5.1-22.3c0.4-4.4,0.7-8.7,0.7-12.2
	c0-11.9-2.3-25-5.8-38.1c-14.1,16.2-42.2,29.1-58.5,31.4l0-51.7c-16.3-6-31.5-6-49-10.7c0.1-0.1,0.3-0.3,0.6-0.6
	c3.1-2.9,14.6-13.8,14.6-14.9c0-2.3-5.8-10.7-8.2-16.7c-2.3-4.7-11.3-14.9-11.3-16c0,0.2,21.3-38.6,21.4-38.7
	c67.3,7.7,115.2-19.1,112.7-71.4c-1.1-24.9-9.7-51.6-9.8-51.9c-4.2-18.7,13.9-23.3,29.7-21.9l-5.9-46.4c21.1-20.3,28-35.6,31.4-72
	C509,144,528.6,177.2,528.6,178.3L528.6,178.3L528.6,178.3z M361.3,112.9c5.9-2.3,18.7-8.1,35.1-7.1c-15.8,13.2-30.5,22.8-30.8,22.5
	c0,0-13.1-0.5-24.1,2.4C345,123.6,354.3,115.3,361.3,112.9L361.3,112.9L361.3,112.9z M267.8,248.6c1.8-5.5,14.1-20.2,22.3-29.7
	c2.3,0,12,0.8,14,10.7c0,1.2-1.2,4.7-2.3,7.2c3,5.6,16.4,4.7,17.6,4.7c7,0,17.5-22.6,17.5-27.4c0-3.6-8.2-4.8-9.3-4.8
	c-1.3,0-2.4,1.2-4.7,1.2c-9.5,0-19.9-1.2-19.9-15.5c0-34.5,57-40.8,69-38.1l58.5-40.5c3.5,22.6-10.5,51.2-35.1,61.9l5.8,35.7
	c-7.5,2.6-15.6,6.3-19.8,13.1c-1.9,2.8-8.1,8.4-7.1,28.5c0,2.4,9.5,28.4,10.6,55.9c0,38.1-45,47-67.1,47c-1.2,0-21.8-1.3-31.1-12.5
	c0.1,0.2,19.7,3.9,24.6,3.5c27.8-2.1,53.8-14.2,53.8-45.2c0-20.2-15.3-38.1-35.1-38.1c-22.2,0-49.7,36.7-56.2,26
	c-3.2-7.2,16.5-23.8,16.5-23.6C290.1,268.7,264.6,258.3,267.8,248.6L267.8,248.6L267.8,248.6z M294.7,320
	c21-13.1,30.4-26.2,35.1-26.2c5.9,0,8.2,8.3,8.2,10.7c0,15.5-24.6,16.7-28.1,16.7C307.6,321.2,299.4,320,294.7,320L294.7,320
	L294.7,320z M125.6,432.3c5.3-8.7,10.6-10,20.6-9.9c1.3,0,9.4,1.2,14.1,3.5c7-16.7,15.2-23.8,29.2-23.8
	c20.1,1.9,42.7,16.4,54.4,29.5c9.4,10.7,16.9,26.4,21.7,37.1l-97.1-17.9l-37.5,6C131.5,456.5,119.6,445.7,125.6,432.3L125.6,432.3
	L125.6,432.3z M64.4,765.1c0,0,97.1-20.2,106.4-21.4l108.8,21.4H64.4L64.4,765.1L64.4,765.1z M302.9,741.3l-132.2-26.2L28.1,744.9
	V505.6c24.5-6,94.7-19,141.5-27.3l133.3,25V741.3L302.9,741.3L302.9,741.3z M336,716.2L336,716.2c-1,4.3-1.6,8.7-1.6,13.2
	c0,10.7,4.7,26.2,12.9,35.7h-17.5V566.3c9.2-2.3,26.3-8.1,36.9-14c0.2-0.1,0.4-0.2,0.5-0.3v0.3c0.3,11.4-3.5,22.2-7.7,30.7
	c-4.8,10-10.1,16.6-9.9,16.5c21.4,10.3,48.9,5.9,66.8-1.1c-0.1,0.1,0,64.3,0,64.3c0,0.1-0.2,1-0.6,2.2c-1.6,4.6-7.2,14.4-28.6,9.6
	c-14.9,0-27.8,6.2-37.1,16v-0.1C343.3,697.7,338.4,706.5,336,716.2L336,716.2L336,716.2z M667,690.6c-7.2,6.7-12.2,15.5-15,25.6
	c-4,14.4-3,31.5,4.1,48.9H425.7c1.2-1.1,3.6-4.8,5.9-4.8c43.7,1.6,68.8-16.4,71.5-44.1v0.1c0.3-3.8,0.3-7.7-0.2-11.9
	c0-0.6,7-8.9,11.6-13.8v0c1.9-2.1,3.5-3.6,3.6-3.6c0,0-1.6-8.8-3.3-22c-1.2-8.8-2.3-19.4-3-30.8c-0.3-3.4-0.4-6.9-0.6-10.3
	c-0.2-5.2-0.2-10.3-0.1-15.2v0.1c0.2-10.2,1.1-19.2,1.9-25.6v-0.1c0.8-5.9,1.5-9.5,1.6-9.6c56.7,3.4,79.5-7.1,90-8.3
	c12.8-2.2,34.2-7.4,53.7-12.8c12.7-3.5,24.5-7,32.8-9.8c2.1,3.2,63.2,87.8,65.8,91.8v-0.1c2,3.2,4,6.2,5.5,8.2
	c1.2,1.2,2.3,3.6,2.3,6c0,1.2-1.1,3.6-2.3,4.7c-2.3,3.9-19.9,28.6-24.5,34.6c-8.2-3.6-13.2-10.5-35.1-10.7
	C688.4,676.9,676.1,681.9,667,690.6L667,690.6L667,690.6z M837.1,657.7c-0.8,1.8-2.4,4.3-4.7,7.3c-5,6.6-13.2,15.9-22.2,25.6
	c-7.9,8.6-48.4,49.5-48.8,49.5H739c-9.7,6.5-9.7-4.3-44.4,1.2c-1.1,0-16.9,3.9-17.5,3.6c-5.1-9.5-2.9-20.4,2.8-28.8v0.1
	c5.5-8,14.2-13.5,22.9-13c10.5,0.6,19.3,6.5,26.5,12.9v0.1c4.2,3.7,7.9,7.7,10.9,10.8c2.9-2.9,6.1-6.6,9.7-10.8
	c6.2-7.5,13.1-16.4,19.8-25.7v0c6.3-8.7,12.3-17.6,17.1-25.6c0.5-0.8,1-1.5,1.4-2.2c1.2-1.2,1.2-3.6,2.4-5.9
	c1.2-2.4,1.2-7.2,1.2-8.4c0-2.1-1-9.3-2.9-14.2c-0.2-0.4-0.4-0.8-0.6-1.2c-1.2-3.6-4.8-9.6-8.2-13.1c-2.4-3.7-57.4-80.4-62-86.9
	c4.7-3.6,34.5-7.5,39.1-5.9c24.6,9.3,34.1,18.7,40.9,25.1v0.1c2.6,2.3,4.8,4.4,7.3,5.7c0.2,0.3,4.7,10.8,10.1,25
	c3,7.8,6.3,16.7,9.4,25.6c3.1,8.9,6.2,17.8,8.4,25.5C836.7,645.8,838.4,654.9,837.1,657.7L837.1,657.7L837.1,657.7z"/>
</svg>
