<?xml version="1.0" encoding="utf-8"?>
<!-- Generator: Adobe Illustrator 18.1.0, SVG Export Plug-In . SVG Version: 6.00 Build 0)  -->
<!DOCTYPE svg PUBLIC "-//W3C//DTD SVG 1.1//EN" "http://www.w3.org/Graphics/SVG/1.1/DTD/svg11.dtd">
<svg version="1.1" id="Layer_1" xmlns="http://www.w3.org/2000/svg" xmlns:xlink="http://www.w3.org/1999/xlink" x="0px" y="0px"
	 viewBox="0 0 870.6 870.5" enable-background="new 0 0 870.6 870.5" xml:space="preserve">
<path fill="#2E368F" d="M645.8,197.8c-16.5,46.7-93.8,26.8-115.9,6.5c-34.6-31.8-10-125.2-44.1-170.5c-19.1-25.6-77.6-43-126.2-11.4
	c-36.9-8.6-103.6,29-88.1,59.7c34.9-12.1,82.2-14.4,93.8,28.1c26,95.4-92.9,154.9-142.4,88.1c77.1-53-22.3-122.2-102.9-86.2
	C-55,189.7-17.9,502.6,99.2,634.9c29-29,54.8-59.7,76.2-92.4c23.6,42.3-60.9,125.4-40,142.6c47.6,1,102.2-87.9,155.4-157.5
	c2.8,53.2-30.4,119.9-103.1,201.4c85.5,71.3,168.6,106.1,246.2,136.1h0.6c77.6-30,160.9-64.8,246.2-136.1
	C608,647.6,574.9,580.9,577.6,527.7c53.2,69.5,107.8,158.4,155.4,157.5c20.9-17.2-63.7-100.2-40.1-142.6
	c21.4,32.8,47.2,63.5,76.2,92.4c117.1-132.4,154.2-445.1-20.7-523.1C668.1,75.4,568.6,144.8,645.8,197.8L645.8,197.8z"/>
</svg>
