<?xml version="1.0" encoding="utf-8"?>
<!-- Generator: Adobe Illustrator 18.0.0, SVG Export Plug-In . SVG Version: 6.00 Build 0)  -->
<!DOCTYPE svg PUBLIC "-//W3C//DTD SVG 1.1//EN" "http://www.w3.org/Graphics/SVG/1.1/DTD/svg11.dtd">
<svg version="1.1" id="Layer_1" xmlns="http://www.w3.org/2000/svg" xmlns:xlink="http://www.w3.org/1999/xlink" x="0px" y="0px"
	 viewBox="0 0 870.6 870.5" enable-background="new 0 0 870.6 870.5" xml:space="preserve">
<g>
	<path fill="#DDDFAC" stroke="#DDDFAC" stroke-width="0.216" stroke-miterlimit="2.6131" d="M200.5,221.4
		C254.4,127,399.8,43.7,536.8,22.7c24.6-3.8,60.7-6.8,88.9-12.6c14.7-3.1,21.4-1.9,25.1-0.5c34.7,12.7,51.7,26.7,55.4,71.8l1.3,66.2
		l-5,49.6l24.9,40.5l27.8,19.4l-0.8,14.9l-39.9,22.8L616.8,312l-82.4,25.8l-42.1,42.3l-38.9,43.8L404.3,452l-45.4,47.6l-36.6,39.6
		l-18.7,22.3l47.6,53.9l60.1,9.2l22.3,18.5l0.9,32.3c-9.7,23-8.6,30,8.8,60.9c8,14.3,7.8,23.9,9.4,41.1l-8.2,32.1l-21,34.5l-16.8,12
		l-20.3,1.5l-22.6-31.1l-15.5-36.1L334,711.7l-41-45.9l-52.5-33.1l-26.7,8.6l-60.6-110.7l-6-195.6l-36.3-64.4l31.3-28.8L200.5,221.4
		L200.5,221.4z"/>
	<path fill="#3A684F" d="M385.9,713.9L385.9,713.9h3.8l3.8,0.8l5.4,0.7l5.3,2.3l6.1,3l6.1,4.6l5.3,6.9l0,0l6.1,8.4l8.4,9.1l9.9,10
		l0,0l-2.3-3.8l-6.1-9.2l-3.1-6.1l-3-6.1l-2.3-6.9l-0.8-6.1l0,0l-2.3-6.1l-2.3-5.3l-3-5.3l-3-3.8l-3.8-3l-3.8-2.3l-3-0.8l-3.8,0.8
		l0,0l-3.8,1.5l-3,1.5l-3.1,3l-2.3,2.3l-3,5.4L385.9,713.9L385.9,713.9L385.9,713.9z M390.4,660.4L390.4,660.4l4.6-0.8h2.3l1.5,0.8
		l2.3,2.3l1.6,3l1.5,4.6l2.3,4.6l3.8,3.8l4.6,4.6l0,0l5.4,2.3l3.8,0.7h2.3l1.6-1.5l1.5-2.3v-2.3l-0.8-6.1l0,0l-3.8-3.8l-0.8-1.5
		l-0.7-2.3V665l0.7-2.3l1.6-3.1l3-3.8l0,0l1.6-3v-3.8l-1.6-3.8l-3-3.1l-3-3.8l-4.6-3l-4.6-3l-5.4-2.3l0,0l-6.1-1.5l-5.3-0.8H392
		l-3.8,0.8l-5.3,2.3l-1.6,0.7l0,0l-0.7,5.4v10.7l0.7,5.3l2.3,4.6l0.7,1.5l1.5,1.5h2.3L390.4,660.4L390.4,660.4L390.4,660.4z
		 M390.4,756.7L390.4,756.7l6.9,16l6.1,14.5l4.6,15.3l0,0l1.6,16l1.5,16.1l0.8,6.1l1.6,3.8l0.7,0.8h0.8l0.7-1.5l1.6-2.3l0,0l6.1-10
		l4.6-6.9l5.3-6.1l6.1-6.1l0,0l1.6-0.8l1.5-2.3l0.8-4.6V798l-0.8-6.9l-1.5-7.7l-3-7.6l-3.1-6.9l-4.6-6.1l0,0l-8.4-11.4l-4.6-5.4
		l-4.6-4.6l-5.3-4.6l-4.6-2.3l-5.4-1.5H395l-2.3,0.8l0,0l-3,0.7l-1.6,1.6l-1.5,1.5l-0.8,1.5l-0.7,3.8l0.7,3.8l0.8,3.8l1.5,3.1
		L390.4,756.7L390.4,756.7L390.4,756.7z M345.4,729.2L345.4,729.2v0.7l-0.8,2.3l-0.7,6.1l0.7,8.4l0.8,9.2l2.3,11.4l3,10.7l3.8,11.5
		l4.6,10.7l0,0l4.6,9.9l4.6,10.7l3.8,9.2l4.6,9.2l4.6,6.9l2.3,3l3,3.1l2.3,1.5l3.1,1.5l3.8,0.8l3.8-0.8l0,0l-11.5-19.1l-8.4-17.6
		l-6.9-15.3l0,0l-3-8.4l-3.1-12.3l-6.9-27.5l-3.8-12.2l-3-9.2l-2.3-3.8l-1.6-1.5l-1.5-0.8L345.4,729.2L345.4,729.2L345.4,729.2z
		 M644.9,48.9L644.9,48.9l4.6-10.7l3-6.9l0.7-2.3v-1.5l-0.7-1.6l-1.6-1.5l0,0l-1.5-0.8h-2.3H645l-2.3,1.6l-2.3,2.3l-2.3,2.3
		l-5.3,7.6l-3.8,10l-1.6,6.1l-1.5,6.1l-0.8,6.9l-0.8,7.7v7.6v8.4l0,0l0.8,8.4l1.5,6.9l1.5,6.1l1.5,5.3l3.8,9.2l4.6,6.9l4.6,5.4
		l3.1,5.3l0.7,2.3l0.8,3.1v3v3.8l0,0l-0.8,5.3l1.6,5.4l1.5,5.3l3,5.4l3,5.3l3.8,4.6l10,10l0,0l5.3,5.3l6.9,6.1l17.6,13l15.3,9.2
		l4.6,2.3l0.8,0.7l0.8-0.7l0,0l0,0v-1.6l-3.1-3l-12.2-10l-6.1-5.3l-6.1-6.9l-2.3-3.1l-2.3-3l-0.7-3l-0.8-3.1l0,0l1.5-4.6l0.8-2.3
		l1.5-0.7h2.3h1.5l2.3-1.6l1.6-2.3l2.3-3.8l0,0l2.3-10.7l0.7-6.1v-5.4v-6.1l-1.5-6.9l-2.3-6.9l-3.8-6.9l0,0l-3.8-6.9l-1.5-6.1
		l-1.5-4.6v-4.6l1.5-3.8l1.5-3l3-3.1l3.1-3l0,0l1.5-2.3l1.5-3l0.8-3.8V81l-0.8-10.7L700,59.6l-3.8-9.2l-1.6-4.6l-2.3-3l-2.3-2.3
		l-2.3-1.5h-2.3l-3.1,0.7l0,0l-0.7,1.6l-1.6,2.3l-0.7,4.6v5.3l-1.6,4.6l0,0v5.4l-1.5,5.3l-0.8,2.3l-0.7,1.5l-1.6,0.8h-1.5l0,0
		l-2.3-0.8l-1.5-1.5l-0.8-2.3v-3l0.8-6.1l1.5-6.1l0,0l2.3-6.1l0.8-4.6l-0.8-2.3l-0.8-0.8l-1.5-0.7l-2.3-0.8l0,0h-2.3l-2.3,1.5
		l-2.3,2.3l-1.5,2.3l-3.1,7.7l-2.3,9.2l0,0v7.6l-0.7,6.9l-0.8,3.1l-0.8,2.3l-1.5,0.8l-2.3,0.8l0,0l-3.1-0.8l-2.3-2.3l-1.6-3.8
		l-1.5-3.8v-5.4l1.5-6.1l1.6-5.4L644.9,48.9L644.9,48.9L644.9,48.9z M591.5,295.8L591.5,295.8l-2.3,2.3v1.5l1.5,0.8l2.3,0.8h7.6
		l10.7-0.8l25.3-3l21.4-3l0,0h13.8l15.3-0.8h7.6l6.1-0.8l5.3-2.3l1.6-0.8l1.5-1.5l0,0l1.5-0.8v-0.8l-0.7-1.5l-0.8-0.8l-3.1-0.7
		l-5.3-0.8l-13-0.8l-6.9,0.8l-6.9,0.8l0,0l-3.1,0.7h-3.8l-8.4-1.5l-10-1.5l-11.4-1.5H632h-6.1l-6.1,0.8l-5.3,1.5l-6.1,1.6l-6.1,3
		l-5.3,4.6L591.5,295.8L591.5,295.8L591.5,295.8z M437,335.5L437,335.5l12.2,0.8l9.9-0.8l9.2-2.3l6.9-2.3l6.1-3l3.8-3.1l2.3-3l0.8-3
		l0,0l-0.8-1.5l-0.7-2.3l-1.6-0.8l-1.6-0.8l-3.8-0.8l-6.1,0.8l-16,3.1l-20.7,3.8l0,0l-9.9,0.8l-13,0.8l-27.5-0.8l-34.4-2.3l0,0
		l8.4,2.3l20.6,5.3l27.5,5.3l14.5,2.3L437,335.5L437,335.5L437,335.5z M298.8,201.8L298.8,201.8l-2.3,1.5l-1.5,3.1l-0.8,3l-0.8,3
		v3.1l0.8,3.8l3.1,8.4l3.8,8.4l6.1,8.4l7.7,9.2l8.4,8.4l0,0l9.2,7.6l9.9,6.1l10,5.4l11.5,4.6l12.2,3.8l11.5,2.3l13,1.5l12.2,0.8l0,0
		h12.2h10.7l9.2-1.5l6.9-1.5l6.1-2.3l3-2.3l0.7-0.8v-0.8l-0.7-0.8l-1.6-0.7l0,0l-4.6-0.8h-6.1h-12.9h-6.1l-5.4-1.5l-2.3-0.8
		l-1.5-0.8l-0.8-1.5v-2.3l0,0v-1.5l1.5-1.5l1.6-0.8l1.5-0.7l6.1-1.5l7.7-0.8h8.4l10-1.6l10.7-1.5l10.7-3.8l0,0l4.6-3l4.6-4.6
		l3.8-3.8l3.1-4.6l1.6-3.1v-1.5l-0.8-0.8h-1.5h-1.6l-5.4,1.5l0,0l-7.6,3.8l-8.4,2.3l-9.2,2.3l-9.2,0.7l-10,1.5h-9.2h-9.1l-8.4-1.5
		l0,0l-11.5-2.3l-12.2-3l-11.5-4.6l-10.7-5.4l-9.9-4.6l-9.2-5.3l-7.7-5.4l-5.3-3.8l0,0l-10-8.4l-5.3-4.6l-4.6-3.1l-4.6-2.3l-4.6-0.7
		h-2.3l-2.3,0.7l-2.3,0.8L298.8,201.8L298.8,201.8L298.8,201.8z M602.2,56.6L602.2,56.6l-1.5,6.1l-2.3,4.6l-3.8,3l-5.4,3l-4.6,2.3
		l-6.1,2.3L567,81l0,0l-4.6,2.3l-0.8,0.8l-0.8,1.5v0.8l0.8,1.5l3,1.6l3.8,1.5l4.6,1.5l4.6,0.7h4.6l0,0l3.8,0.8l1.5,1.5l0.8,3.1v3
		l-1.5,3.1l-3,3l-3.8,3l-4.6,2.3l0,0l-5.4,2.3l-4.6,3.1l-4.6,3.8l-3.8,4.6l-2.3,5.3l-2.3,4.6l-0.8,5.4l-0.8,4.6l0,0l0.8,1.5h0.8h1.5
		l2.3-0.8l3.8-3l5.3-3.8l3.1-0.8l2.3-0.8h3l3.1,0.8l2.3,1.5l3,3.8l2.3,4.6l2.3,6.1l0,0l3.8,8.4l3.8,7.6l4.6,7.7l5.3,6.9l10.7,13
		l11.5,12.9l0,0l6.9,6.1l6.9,6.1l6.9,5.3l7.6,5.4l14.5,8.4l15.2,7.6l15.3,5.4l13.8,4.6l22.2,6.9l0,0l6.9,1.5h4.6l3-1.5l1.5-2.3v-2.3
		l-1.5-3.1l-3-3l-4.6-3l0,0l-16-7.7l-11.5-5.3l-13-6.9l-13.7-7.7l-13.7-9.2l-12.3-10l-6.1-5.3l-5.4-5.3l0,0l-7.6-10l-7.7-11.5
		l-6.9-13.7l-6.9-14.6l-5.3-15.3l-2.3-8.4l-1.6-7.6l-1.5-8.4l-0.8-8.4v-8.4l0.8-8.4l0,0l1.5-10l1.6-9.2l4.6-16l4.6-12.2l4.6-9.9
		l3.8-6.9l3.8-4.6l2.3-3V10V9.2l0,0l-1.5,0.8l-3.1,2.3l-5.3,3l-5.4,6.1l-6.1,6.9l-6.1,7.6l-4.6,10l-2.3,5.3L602.2,56.6L602.2,56.6
		L602.2,56.6z M405.7,148.3L405.7,148.3l-2.3-1.5l-1.5-1.5l-0.8-2.3v-3l1.6-6.1l3-6.1l2.3-6.9l2.3-6.1l0.7-3l-0.7-2.3l-0.7-2.3
		l-1.6-1.6l0,0l-1.5-1.6H405h-3.1l-3,1.6l-3,2.3l-3.1,3.8l-1.6,3.8l-3,6.9l0,0l-1.5,3l-2.3,4.6l-1.5,5.3l-0.8,6.9l-0.8,6.9l0.8,8.4
		l0.8,8.4l3,8.4l0,0l2.3,3.8l3.8,5.3l6.1,5.4l7.7,5.3l3.8,2.3l5.3,2.3l5.4,1.6l6.1,1.6l6.1,0.7h6.9h7.7l8.4-0.7l0,0l29-4.6l11.5-3.1
		l9.1-2.3l7.6-2.3l6.1-3l5.4-3.1l4.6-3l0,0l7.6-6.1l5.4-3.8l2.3-2.3l0,0h3.8h3.8l3.8-1.5l0,0l3.8-2.3l3-2.3l0.8-1.5l-0.8-3.1l0,0
		l-1.5-1.5l-0.8-0.8h-2.3l-1.5,1.5l-4.6,1.6l-3,0.7h-2.3l0,0l-2.3-1.5l-1.6-1.5l-0.7-2.3l-0.8-3.1v-6.1l0.8-8.4l0,0l2.3-4.6l2.3-3.1
		l3.8-5.3l3-4.6V117v-2.3l0,0l-1.5-0.8h-1.5l-3.8,3l-3.1,3.1h-1.5l-2.3-0.8l0,0v-1.5v-1.5l0.7-3.1l1.6-3.8l2.3-4.6l4.6-6.9l0.8-3V94
		l-0.8-0.8l0,0l-1.5-0.7h-1.5l-3,1.5l-3.8,2.3l-3.8,3.8l-3.8,4.6l-3.1,5.3l-2.3,4.6l-1.5,4.6l0,0l-1.5,7.7l-0.8,9.2l-1.5,17.6
		l-0.8,7.6l-0.8,6.1l-1.5,3.8l-0.8,1.5h-1.5l0,0l-3.1-1.5l-2.3-2.3l-1.5-2.3l-0.8-2.3l-1.5-5.4v-6.1l0.8-7.6l-0.8-7.6l-0.8-9.2
		l-1.5-4.6l-1.5-4.6l0,0l-3.1-4.6l-3-3.8l-3.8-3l-3.8-3l-3.8-3.1l-4.6-1.5l-4.6-1.6l-4.6-1.5h-4.6h-4.6h-4.6l-3.8,1.5l-3.8,1.6
		l-3.8,2.3l-3,2.3l-3.1,3.8l0,0l-2.3,3.8l-1.5,3.8l-2.3,6.9v7.6l0.8,7.7l2.3,6.9l2.3,6.9l3.8,6.1l3.8,6.1l6.9,10.7l5.3,8.4l0.7,3.1
		v2.3l-2.3,1.5l-3.8,0.8l0,0l-3.8-0.8l-3.1-0.7l-2.3-2.3l-3-2.3l-4.6-5.3l-5.4-7.7l-5.3-6.9l-5.3-6.9l-3.1-3.1l-3.8-3l-3.8-2.3
		L405.7,148.3L405.7,148.3L405.7,148.3z M274.2,289.7L274.2,289.7h-4.6h-6.1l-14.5,0.8l-17.6,3l-18.3,3.1l-32.9,5.3l-10.7,1.5
		l-3-0.8l-1.6-0.8l0,0l0.7-1.5l3.1-1.5l11.5-3.8l15.3-3.8l18.3-3.8l32.9-8.4l10.7-3.1l3-1.5v-0.8l0.7-0.7l0,0l-1.5-1.6l-2.3-1.5
		l-3.1-0.8l-3.8-0.7h-9.2l-10,0.7h-10l-9.2,0.8l-3.8-0.8l-3.8-0.7l-2.3-0.8l-1.6-2.3l0,0v-0.7l1.6-0.7l5.3-2.3l17.6-3.1l15.3-3
		l3.8-1.5V253l-1.5-1.5l0,0l-9.2-2.3l-12.2-3l-13.7-3.1l-11.5-2.3l0,0l-18.3-1.5h-13.8l-5.3,0.7l-3.8,0.8l-3.8,1.5l-2.3,1.6l0,0
		l-3.8,6.1l-4.6,3.8l-3.8,3.1l-4.6,3l-6.9,3l-3.1,2.3l-1.5,1.6l0,0l-0.8,3.8v3.8l0.8,5.3l1.5,5.3l3.1,6.9l3.8,6.1l6.1,7.7l7.7,6.9
		l0,0l3,3.8l3.1,3.8l1.5,3.1l1.6,3.8l0.7,6.9l0.8,6.1v2.3l0.7,1.6l0.7,1.5l2.3,0.7h2.3l3.8-0.7l10.7-3.8l0,0l45.9-15.3l23.7-7.6
		l17.6-6.1l0,0l6.1-0.8l5.4,0.8l4.6,1.5l4.6,1.5l9.9,5.4l5.4,2.3l6.1,1.5l0,0l6.9,0.8h4.6l3-1.5l0.7-1.6v-2.3l-2.3-2.3l-3.8-3
		l-4.6-3.8l0,0l-5.4-2.3l-3-1.5l-2.3-0.8h-2.3l-2.3,1.5h-2.3H288l0,0h-0.8v-1.5l0.8-2.3l-0.8-3l-0.8-3.1l-2.3-3l-3.8-2.3
		L274.2,289.7L274.2,289.7L274.2,289.7z M434.8,381.4L434.8,381.4l-0.7-2.3l-1.5-0.8l-3-0.8l-3.1,0.8l-7.6,1.5l-8.4,3.1l-9.2,1.5
		l-3.8,0.8l-3.8-0.8l-3.8-0.8l-3.1-2.3l-1.5-3l-1.5-4.6l0,0l-1.6-3.1l-1.5-2.3l-2.3-1.5l-3.1-0.8h-3l-3.1,0.8l-7.6,1.5l-6.9,1.6
		l-6.1,0.7h-3.1l-1.6-0.7l-1.6-1.6l-0.7-2.3l0,0l-3-7.6l-2.3-6.1l-2.3-3.8l-3-3l-2.3-1.5l-2.3-0.8h-5.3l0,0l-3.1,0.8l-2.3,1.5
		l-6.1,5.3l-6.1,6.9l-6.1,8.4l-6.9,8.4l-6.9,8.4l-7.7,7.6l-3.8,3.1l-4.6,3l0,0l-7.6,4.6l-5.4,3l-4.6,0.8l-3.8,0.8h-4.6l-5.4,0.8
		l-8.4,2.3l-11.5,4.6l0,0l-7.6,3l-6.9,5.3l-7.6,5.4l-6.1,7.6l-6.1,7.7l-5.3,9.2l-3.8,9.9l-3,11.5l0,0l-3,9.9l-3.1,10l-1.5,10.7
		l-0.8,10l0.7,10.7l2.3,9.9l3.8,11.5l6.1,10.7l0,0l5.3,9.2l6.9,6.9l6.1,6.9l7.7,5.3l6.9,4.6l8.4,4.6l9.2,3.1l9.2,2.3l0,0l5.3,1.5
		l5.4,2.3l9.9,6.9l10.7,7.6l10.7,9.2l10.7,10.7l10.7,12.2l21.4,24.5l0,0l4.6,3.8l4.6,3.8l4.6,3.1l5.3,2.3l10,3.8l8.4,2.3h7.7h3
		l2.3-1.5l1.5-0.8l0.8-1.5v-2.3l-0.8-2.3l0,0l-3.8-4.6l-3.8-3.8l-6.1-5.4l-2.3-2.3l-1.5-2.3v-3.8l1.5-3.8l0,0l0.7-2.3v-2.3l-1.5-2.3
		l-1.5-2.3l-5.4-3.8l-6.9-3.8l-6.9-3.8l-6.1-5.3l-2.3-2.3l-2.3-3l-0.8-3.1l-0.7-3.8l0,0l-0.8-6.9l-1.6-6.1l-2.3-5.4l-3.8-4.6
		l-4.6-4.6l-4.6-3.9l-11.5-9.9l0,0l-6.1-3.8l-3.1-1.5l-3.8-0.8l-3.8-0.7h-3.8l-10,0.7l0,0l-8.4,2.3l-8.4,1.6l-6.1,1.5H236v-0.7l0,0
		l17.6-6.1l13-5.3l10.7-5.4l7.6-3.8l5.4-4.6l5.3-3.8l7.7-7.7l0,0l4.6-3.8l4.6-2.3l4.6-3.1l5.3-3l5.4-4.6l6.1-6.1l6.9-9.9l6.9-12.2
		l0,0l7.6-13.7l6.9-11.5l6.9-9.2l7.7-6.9l6.9-6.1l7.6-3.8l8.4-3.8l8.4-3l0,0l14.6-3.8l10.7-3l4.6-2.3l3.8-3.1l3.1-3l3.8-4.6l0,0
		l5.4-7.7l6.9-7.6l7.6-6.9l6.9-6.1l10.7-9.2l2.3-2.3l0.8-0.8l-0.8-0.7l0,0h-3.8h-3.8l-3.8,1.5l-4.6,1.5l-8.4,4.6l-7.6,4.6l-7.7,3.1
		l-3,0.7h-3l-2.3-0.7l-2.3-2.3l-1.6-3.8L434.8,381.4L434.8,381.4L434.8,381.4z M541.8,48.9L541.8,48.9v2.3l-1.6,2.3l-1.5,1.5
		l-2.3,1.6l-6.9,2.3l-7.6,0.7l0,0l-9.2-0.7l-3.8-0.8l-3.1-1.5l-2.3-1.6l-2.3-1.5l-1.5-2.3v-2.3l0,0v-2.3l1.5-2.3l2.3-1.5l2.3-2.3
		l3.1-1.5l3.8-0.8l4.6-0.8l4.6-0.7l0,0l3.8,0.7l3.8,0.8l3.8,0.8l3,1.5l2.3,2.3l1.5,1.5l1.6,2.3L541.8,48.9L541.8,48.9L541.8,48.9z
		 M521.9,29L521.9,29l-6.9,0.8l-6.9,0.8l-6.1,2.3l-5.4,2.3l-4.6,3l-3,3.1l-2.3,3.8l-0.8,3.8l0,0l0.8,3.8l2.3,3.8l3,3l4.6,2.3
		l5.4,2.3l6.1,1.6l6.9,1.5h6.9l0,0h6.9l6.1-1.5l5.3-1.6l5.3-2.3l3.8-2.3l3.1-3l2.3-3.8l0.8-3.8l0,0l-0.8-3.8l-2.3-3.8l-3.1-3.1
		l-3.8-3l-5.3-2.3l-5.3-2.3l-6.1-0.8L521.9,29L521.9,29L521.9,29z M207,180.4L207,180.4l22.2-26.7l10.7-11.5l10.7-11.5L262,120
		l11.5-9.2l13-9.9l14.5-9.2l0,0l8.4-4.6l8.4-4.6l17.6-7.7l17.6-6.1l16-4.6l14.6-3.8l12.2-2.3l9.9-1.5l0,0l22.2-7.7l25.3-8.4
		l31.3-9.9l0,0l10.7-3l11.5-2.3l19.9-3.8l19.1-3.1l19.1-3l0,0l9.2-1.6l10-1.5l19.1-2.3l13.8-0.8h5.3l0,0l4.6-1.5l5.4-3.1l8.4-3l0,0
		l6.1-0.8l6.1-0.8h6.1l6.9,1.5l6.9,3l6.9,4.6l6.9,6.9l7.7,10l0,0l3,5.3l3,6.1l2.3,6.9l2.3,7.7l3.8,16.8l2.3,17.6l1.6,17.6l0.7,16.8
		l0.8,27.5l0,0l-0.8,19.9v17.6l0.8,17.6l0,0l0.7,3.1l3,8.4l3.1,5.4l3,3.8l3.8,3.8l4.6,3.1l0,0l9.2,4.6l6.9,4.6l5.4,5.3l4.6,5.4
		l2.3,5.3l0.8,5.4l-0.8,5.3l-1.5,4.6l0,0l-3.8,6.1l-3.8,3.8l-4.6,3.8l-5.4,2.3l-4.6,1.5l-3.8,0.8h-3l0,0l-1.5,2.3l-5.3,4.6l-4.6,3
		l-4.6,2.3l-6.1,3l-6.9,1.5l0,0l-52.7,6.9l-32.9,5.4l-14.5,3l-13.7,3l0,0l-10.7,3.8l-15.3,7.7l-19.1,10.7l-22.2,14.5l0,0l-13,10.7
		l-14.6,13.7l-8.4,8.4l-8.4,9.1l-9.2,11.5l-9.2,12.2l0,0l-3.8,3.8l-4.6,3.8l-5.3,3.1l-4.6,3l-9.2,3l-3.1,1.5l0,0l-1.5,2.3l-2.3,5.4
		l-2.3,9.2l-0.8,4.6v6.1l0,0v13L418,499l-2.3,11.5l-3,10.7l-6.9,19.9l-3.8,10l-2.3,9.9l0,0l-0.8,3.1l-0.8,2.3l-1.5,2.3l-1.6,0.8
		l-1.6,0.8H392l-3.8-1.6l-4.6-3L379,561l-4.6-5.3l-3.8-6.9l0,0l-4.6-6.9l-3-6.9l-4.6-12.2l-3.1-8.4l-0.7-3l0,0l-5.4,7.6l-6.1,8.4
		l-6.1,7.7l0,0l-3.8,3.8l-3,3.1l-6.9,4.6l-4.6,2.3h-1.5l0,0l3.8,6.1l3,6.9l3.8,9.9l0,0l1.5,3.8l2.3,3.8l6.1,6.9l6.9,7.6l8.4,6.1
		l13.7,10.7l6.1,3.8l0,0h15.3h13.7l6.1,0.8l4.6,0.8l0,0l4.6,1.5l4.6,2.3l5.4,3.1l4.6,4.6l3.8,5.3l3,6.1l0.7,3.8l0.8,3.8v4.6
		l-0.8,4.6l0,0l-2.3,20.7l-0.7,17.6v7.6l0.7,6.1l0.8,6.1l1.5,4.6l0,0l1.6,3l1.5,2.3l3.8,4.6l4.6,4.6l2.3,3.8l2.3,4.6l0,0l0.8,6.9v10
		v13.7l0.7,16l0,0l0.8,8.4l-0.8,7.7l-2.3,5.3l-3,5.4l-7.7,10.7l-3.8,5.4l-3.1,6.1l0,0l-1.5,3l-2.3,3.8l-6.1,6.1l-7.7,5.4l-7.6,5.3
		l-8.4,3.8l-7.6,3l-6.1,1.6l-2.3,0.8l-1.6-0.8l0,0l-2.3-0.8l-2.3-2.3l-5.4-7.7l-6.9-11.4l-6.9-14.5l-6.8-15.2l-6.1-15.3l-5.3-15.3
		l-2.3-13l0,0l-3.8-17.6l-3.8-15.3l-3.8-14.6l0,0l-7.7-9.2l-17.6-19.9l-10.7-11.5l-9.9-10l-9.2-7.6l-4.6-3l-3.1-1.5l0,0l-16-6.9
		l-9.2-4.6l-4.6-3.1l-1.5-0.8l0,0v5.3l-2.3,12.2l-2.3,8.4l-2.3,8.4l-3.8,9.2l-4.6,8.4l0,0l-2.3,3l-3,3l-2.3,1.6l-2.3,1.5l-2.3,0.8
		h-2.3l-2.3-0.8l-2.3-1.5l-3-3.8l-3-5.3l-2.3-7.7l-1.5-9.2l0,0l-1.6-20.6l-0.7-22.2v-24.5l0,0l-3.9-3.8l-8.4-11.4L165.7,584
		l-5.3-9.1l-4.6-9.2l0,0l-6.1-13l-5.3-14.6l-5.4-16l-5.3-20.7l0,0l-1.6-19.1l-1.5-17.6v-19.1l0.8-22.9l0,0l1.5-13.7l1.5-13l3.8-23
		l1.5-10.7l0.8-10.7l-0.8-10.7l-1.5-11.5l0,0l-2.3-5.3l-2.3-5.3l-6.1-9.2l-11.5-15.2l0,0l-3.1-4.6l-3-5.3l-1.6-6.1l-0.7-6.1v-5.3
		l1.5-5.3l0.8-2.3l1.5-1.5l2.3-1.6l2.3-1.5l0,0l7.6-3.8l4.6-3.1l3.8-3.8l2.3-3.1l3-2.3l3.1-2.3l5.3-2.3l7.7-1.5l0,0l5.3-1.5l4.6-1.6
		l3.8-2.3l4.6-4.6l6.1-6.1l6.9-8.4L207,180.4L207,180.4L207,180.4z"/>
</g>
</svg>
