<?xml version="1.0" encoding="utf-8"?>
<!-- Generator: Adobe Illustrator 18.1.0, SVG Export Plug-In . SVG Version: 6.00 Build 0)  -->
<!DOCTYPE svg PUBLIC "-//W3C//DTD SVG 1.1//EN" "http://www.w3.org/Graphics/SVG/1.1/DTD/svg11.dtd">
<svg version="1.1" id="Layer_1" xmlns="http://www.w3.org/2000/svg" xmlns:xlink="http://www.w3.org/1999/xlink" x="0px" y="0px"
	 viewBox="0 0 870.6 870.5" enable-background="new 0 0 870.6 870.5" xml:space="preserve">
<g>
	<path fill="#231F20" d="M432.7,328.7c12.1,0,17,2.4,17,2.4l7.3-30.8c0,0,5.7,23.5,8.1,44.6c2.4,21.1,39.7,7.3,71.3,0.8
		c31.6-6.5,38.1-57.5,38.1-57.5H867c0,0-176.6,53.5-132.1,171c0,0-260.9-39.7-301.4,123.2h0C393,419.5,132.1,459.2,132.1,459.2
		C176.6,341.7,0,288.2,0,288.2h292.5c0,0,6.5,51,38.1,57.5c31.6,6.5,68.9,20.3,71.3-0.8c2.4-21.1,8.1-44.6,8.1-44.6l7.3,30.8
		c0,0,4.9-2.4,17-2.4H432.7L432.7,328.7z"/>
</g>
</svg>
