<?xml version="1.0" encoding="utf-8"?>
<!-- Generator: Adobe Illustrator 18.1.0, SVG Export Plug-In . SVG Version: 6.00 Build 0)  -->
<!DOCTYPE svg PUBLIC "-//W3C//DTD SVG 1.1//EN" "http://www.w3.org/Graphics/SVG/1.1/DTD/svg11.dtd">
<svg version="1.1" id="Layer_1" xmlns="http://www.w3.org/2000/svg" xmlns:xlink="http://www.w3.org/1999/xlink" x="0px" y="0px"
	 viewBox="0 0 870.6 870.5" enable-background="new 0 0 870.6 870.5" xml:space="preserve">
<g>
	<path fill-rule="evenodd" clip-rule="evenodd" fill="#616264" d="M505.4,6c22.1,4.3,46.1,9.1,66.7,16.5
		c15.7,5.6,22.7,8.8,29.1,11.9C626,46.5,648,61.9,669.5,80.3c44,37.9,80.4,91.9,94,140.9c5.6,20.3,11.7,47.5,12.6,53.5
		c2.5,18,4.3,31.4,6,43.8c1.5,10.5,2.1,20.9,3.4,40.2c1.3,19.4,2.1,39.8,2.9,59c0.8,19.6,0,50.8-0.4,65.2
		c-0.5,14.5-1.5,28.6-2.6,43.3c-1.1,14.5-4.1,43.7-5.1,53.3c-5.1,49-19.5,86.3-34.2,117.7c-14.7,31.4-22,40.8-28.7,50.4
		c-3.9,5.5-10.6,14-27.7,32c-23.5,24.7-51.7,41.5-80.4,55.3c-9.1,4.3-35,14-52.6,19.9c-17.2,5.8-35,9.7-53.2,13.4
		c-4.8,1-10.1,1.6-14.2,2.3c-28.1,4.7-57.1,5.6-86,2.3c-17.3-1.8-42.3-5.6-54.4-8.3c-21.8-4.7-43.3-11.4-64.4-18.9
		c-7.2-4.3-15.4-6.2-22.6-10.8c-10.9-6.3-21.8-12.5-32.7-18.8c-4.4-2.8-14.1-10.3-14.1-10.3c-34.3-26-70-60.5-88.3-98.3
		c-18.3-37.8-18.8-42.2-25.7-62.8c-1.4-4.1-5.7-27.2-8-41.5c-2.3-14.3-6.5-51.2-8.8-71.3c-1.3-19.6-2.5-39.1-3.8-58.7
		c-0.3-17.8-0.8-39.1-0.8-57.9c0-18.8,1.5-32.5,2.3-42.2c0.5-7.4,0.7-10.7,2.3-24.5c1.6-13.8,4.6-40.6,4.6-40.6
		c1.8-12.6,4.1-23.9,5.4-36.1c6.9-29.4,11.6-61.7,24.8-89.3c13.2-27.5,29.4-51.7,36.5-59.8c7-8.2,13.1-16.3,20.3-23.9
		c7.2-7.5,14.1-12.4,32.7-26.8c45.7-35.5,97.8-55.7,154.2-65.6c0,0,13-2.1,44-5.4C437.8-1.9,480.7,1.1,505.4,6L505.4,6z"/>
	<path fill-rule="evenodd" clip-rule="evenodd" fill="#565759" d="M504.7,6.1c22.1,4.3,46,9.1,66.5,16.5c15.7,5.6,22.6,8.8,29,11.9
		C625,46.5,647,61.8,668.4,80.3c43.9,37.8,80.2,91.6,93.8,140.6c5.6,20.2,11.7,47.4,12.5,53.4c2.5,18,4.3,31.3,6,43.7
		c1.5,10.5,2.1,20.9,3.4,40.1c1.3,19.4,2.1,39.7,2.9,58.9c0.8,19.5,0,50.7-0.4,65.1c-0.5,14.5-1.5,28.5-2.6,43.2
		c-1.1,14.5-4.1,43.6-5.1,53.2c-5.1,48.9-19.4,86.1-34.1,117.4c-14.7,31.3-21.9,40.7-28.6,50.3c-3.8,5.5-10.6,14-27.6,31.9
		c-23.5,24.6-51.6,41.4-80.2,55.1c-9,4.3-35,14-52.5,19.9c-17.1,5.7-34.9,9.7-53.1,13.4c-4.8,1-10.1,1.6-14.1,2.3
		c-28,4.7-56.9,5.6-85.8,2.3c-17.3-1.8-42.2-5.6-54.3-8.2c-21.8-4.7-43.2-11.3-64.3-18.8c-7.2-4.2-15.3-6.2-22.5-10.8
		c-10.9-6.3-21.7-12.5-32.6-18.8c-4.4-2.8-14-10.3-14-10.3c-34.3-25.9-69.8-60.3-88.1-98c-18.3-37.7-18.7-42.1-25.6-62.6
		c-1.4-4.1-5.6-27.1-8-41.4c-2.3-14.3-6.5-51.1-8.8-71.1c-1.2-19.5-2.5-39-3.7-58.6c-0.3-17.8-0.8-39-0.8-57.7
		c0-18.7,1.5-32.5,2.3-42.1c0.5-7.3,0.7-10.7,2.3-24.5c1.6-13.8,4.6-40.5,4.6-40.5c1.8-12.6,4.1-23.8,5.4-36
		c6.8-29.4,11.6-61.6,24.8-89.1c13.2-27.5,29.4-51.6,36.4-59.7c7-8.1,13-16.3,20.2-23.8c7.2-7.5,14.1-12.4,32.6-26.8
		c45.5-35.4,97.5-55.6,153.8-65.4c0,0,13-2.1,43.9-5.4C437.2-1.8,480,1.3,504.7,6.1L504.7,6.1z"/>
	<path fill-rule="evenodd" clip-rule="evenodd" fill="#4A4B4C" d="M504,6.2c22,4.3,45.9,9.1,66.4,16.4c15.6,5.6,22.6,8.8,29,11.9
		c24.7,12,46.6,27.3,68,45.7c43.8,37.7,80,91.4,93.6,140.2c5.6,20.2,11.7,47.3,12.5,53.3c2.5,17.9,4.3,31.3,6,43.6
		c1.5,10.4,2.1,20.8,3.4,40c1.3,19.4,2.1,39.6,2.9,58.8c0.8,19.5,0,50.5-0.4,64.9c-0.5,14.5-1.5,28.4-2.6,43.1
		c-1.1,14.5-4.1,43.5-5.1,53.1c-5.1,48.8-19.4,85.9-34,117.2c-14.6,31.2-21.9,40.6-28.6,50.2c-3.8,5.5-10.6,14-27.6,31.8
		c-23.4,24.6-51.4,41.3-80.1,55c-9,4.3-34.9,14-52.4,19.9c-17.1,5.7-34.8,9.7-53,13.3c-4.7,1-10.1,1.6-14.1,2.3
		c-28,4.7-56.8,5.5-85.6,2.3c-17.3-1.8-42.1-5.6-54.2-8.2c-21.7-4.7-43.1-11.3-64.1-18.8c-7.2-4.2-15.3-6.2-22.5-10.7
		c-10.8-6.2-21.7-12.5-32.5-18.7c-4.4-2.8-14-10.3-14-10.3c-34.2-25.9-69.6-60.2-87.9-97.8c-18.2-37.6-18.7-42-25.5-62.5
		c-1.4-4.1-5.6-27.1-8-41.3c-2.3-14.2-6.5-50.9-8.8-70.9c-1.2-19.5-2.5-39-3.7-58.4c-0.3-17.7-0.8-38.9-0.8-57.6
		c0-18.7,1.5-32.4,2.3-42c0.5-7.3,0.7-10.6,2.3-24.4c1.6-13.8,4.6-40.4,4.6-40.4c1.8-12.5,4.1-23.8,5.4-36
		c6.8-29.3,11.6-61.4,24.7-88.8c13.2-27.4,29.3-51.4,36.3-59.6c7-8.1,13-16.3,20.2-23.8c7.2-7.5,14.1-12.3,32.5-26.7
		C254.1,36.9,305.9,16.8,362.1,7c0,0,12.9-2.1,43.8-5.4C436.7-1.7,479.4,1.4,504,6.2L504,6.2z"/>
	<path fill-rule="evenodd" clip-rule="evenodd" fill="#3D3D3E" d="M503.3,6.3c22,4.3,45.8,9.1,66.2,16.4
		c15.6,5.6,22.5,8.7,28.9,11.9c24.6,12,46.5,27.3,67.8,45.6c43.7,37.6,79.9,91.2,93.4,139.9c5.6,20.1,11.6,47.2,12.5,53.1
		c2.5,17.9,4.3,31.2,6,43.5c1.5,10.4,2.1,20.8,3.4,39.9c1.3,19.3,2.1,39.5,2.9,58.6c0.8,19.5,0,50.4-0.4,64.8
		c-0.5,14.4-1.4,28.4-2.6,43c-1.1,14.4-4.1,43.4-5.1,52.9c-5.1,48.6-19.3,85.7-33.9,116.9c-14.6,31.2-21.8,40.5-28.5,50.1
		c-3.8,5.5-10.5,13.9-27.5,31.7c-23.4,24.5-51.3,41.2-79.9,54.9c-9,4.3-34.8,13.9-52.3,19.8c-17.1,5.7-34.8,9.7-52.8,13.3
		c-4.7,0.9-10,1.6-14.1,2.3c-27.9,4.7-56.7,5.5-85.4,2.3c-17.2-1.8-42-5.6-54.1-8.2c-21.7-4.7-43-11.3-64-18.7
		c-7.1-4.2-15.3-6.2-22.4-10.7c-10.8-6.2-21.6-12.4-32.5-18.7c-4.4-2.8-14-10.2-14-10.2c-34.1-25.8-69.5-60.1-87.7-97.6
		c-18.2-37.5-18.6-41.9-25.5-62.3c-1.4-4-5.6-27-8-41.2c-2.3-14.2-6.5-50.8-8.8-70.8c-1.2-19.4-2.5-38.9-3.7-58.3
		c-0.3-17.7-0.8-38.8-0.8-57.5c0-18.6,1.5-32.3,2.3-41.9c0.5-7.3,0.7-10.6,2.3-24.3c1.6-13.7,4.5-40.3,4.5-40.3
		c1.8-12.5,4.1-23.7,5.4-35.9c6.8-29.2,11.5-61.3,24.7-88.6c13.1-27.4,29.2-51.3,36.2-59.4c7-8.1,13-16.2,20.1-23.7
		c7.2-7.5,14-12.3,32.5-26.6C254,36.9,305.7,16.8,361.7,7.1c0,0,12.9-2.1,43.7-5.4C436.1-1.6,478.8,1.5,503.3,6.3L503.3,6.3z"/>
	<path fill-rule="evenodd" clip-rule="evenodd" fill="#282829" d="M502.6,6.4c21.9,4.3,45.7,9,66.1,16.4
		c15.6,5.6,22.5,8.7,28.8,11.8c24.6,12,46.4,27.2,67.7,45.5c43.6,37.5,79.7,91,93.2,139.6c5.6,20.1,11.6,47.1,12.5,53
		c2.5,17.8,4.2,31.1,6,43.4c1.5,10.4,2.1,20.7,3.4,39.8c1.3,19.3,2.1,39.4,2.9,58.5c0.8,19.4,0,50.3-0.4,64.6
		c-0.5,14.4-1.4,28.3-2.6,42.9c-1.1,14.4-4.1,43.3-5.1,52.8c-5.1,48.5-19.3,85.5-33.8,116.6c-14.6,31.1-21.8,40.4-28.4,49.9
		c-3.8,5.5-10.5,13.9-27.5,31.7c-23.3,24.5-51.2,41.1-79.7,54.7c-9,4.3-34.7,13.9-52.1,19.8c-17,5.7-34.7,9.6-52.7,13.3
		c-4.7,0.9-10,1.6-14,2.3c-27.8,4.7-56.5,5.5-85.2,2.3c-17.2-1.8-41.9-5.6-53.9-8.2c-21.6-4.7-42.9-11.3-63.8-18.7
		c-7.1-4.2-15.2-6.2-22.4-10.7c-10.8-6.2-21.6-12.4-32.4-18.6c-4.4-2.8-13.9-10.2-13.9-10.2c-34-25.7-69.3-59.9-87.5-97.3
		c-18.1-37.4-18.6-41.8-25.4-62.2c-1.4-4-5.6-26.9-7.9-41.1c-2.3-14.2-6.5-50.7-8.7-70.6c-1.2-19.4-2.5-38.8-3.7-58.1
		c-0.3-17.7-0.8-38.7-0.8-57.3c0-18.6,1.5-32.2,2.3-41.8c0.5-7.3,0.7-10.6,2.3-24.3c1.6-13.7,4.5-40.2,4.5-40.2
		c1.8-12.5,4-23.6,5.4-35.8c6.8-29.2,11.5-61.1,24.6-88.4c13.1-27.3,29.2-51.2,36.1-59.3c7-8.1,12.9-16.2,20.1-23.6
		c7.2-7.5,14-12.3,32.4-26.6C253.9,37,305.5,16.9,361.3,7.2c0,0,12.9-2.1,43.6-5.3C435.6-1.4,478.1,1.6,502.6,6.4L502.6,6.4z"/>
	<path fill-rule="evenodd" clip-rule="evenodd" d="M501.9,6.5c21.8,4.3,45.6,9,65.9,16.3c15.5,5.6,22.4,8.7,28.8,11.8
		c24.5,12,46.3,27.1,67.5,45.4c43.5,37.4,79.5,90.8,92.9,139.2c5.6,20,11.6,47,12.4,52.9c2.5,17.8,4.2,31,6,43.3
		c1.5,10.4,2.1,20.7,3.4,39.7c1.3,19.2,2.1,39.3,2.9,58.3c0.8,19.4,0,50.2-0.4,64.5c-0.5,14.4-1.4,28.2-2.6,42.8
		c-1.1,14.4-4.1,43.2-5,52.7c-5.1,48.4-19.2,85.3-33.8,116.3c-14.5,31-21.7,40.3-28.4,49.8c-3.8,5.5-10.5,13.9-27.4,31.6
		c-23.3,24.4-51.1,41-79.5,54.6c-8.9,4.3-34.6,13.9-52,19.7c-17,5.7-34.6,9.6-52.6,13.3c-4.7,0.9-10,1.6-14,2.3
		c-27.8,4.7-56.4,5.5-85,2.3c-17.1-1.8-41.8-5.6-53.8-8.2c-21.6-4.7-42.8-11.2-63.7-18.7c-7.1-4.2-15.2-6.1-22.3-10.7L229,807.3
		c-4.4-2.7-13.9-10.2-13.9-10.2c-33.9-25.7-69.2-59.8-87.3-97.1c-18.1-37.3-18.6-41.7-25.4-62c-1.4-4-5.6-26.9-7.9-41
		c-2.3-14.1-6.5-50.6-8.7-70.4l-3.7-58c-0.3-17.6-0.8-38.6-0.8-57.2c0-18.6,1.5-32.1,2.3-41.7c0.5-7.3,0.7-10.6,2.3-24.2
		c1.6-13.7,4.5-40.1,4.5-40.1c1.8-12.4,4-23.6,5.3-35.7c6.8-29.1,11.5-61,24.5-88.2c13.1-27.2,29.1-51.1,36-59.1
		c6.9-8.1,12.9-16.1,20-23.6c7.1-7.5,14-12.3,32.3-26.5C253.8,37,305.2,17,361,7.3c0,0,12.9-2.1,43.5-5.3
		C435.1-1.3,477.5,1.7,501.9,6.5L501.9,6.5z"/>
	<path fill-rule="evenodd" clip-rule="evenodd" fill="#007AC2" d="M501.9,6.5c21.8,4.3,45.6,9,65.9,16.3
		c15.5,5.6,22.4,8.7,28.8,11.8c24.5,12,46.3,27.1,67.5,45.4c43.5,37.4,79.5,90.8,92.9,139.2c5.6,20,11.6,47,12.4,52.9
		c2.5,17.8,4.2,31,6,43.3c1.5,10.4,2.1,20.7,3.4,39.7c1.3,19.2,2.1,39.3,2.9,58.3c0.8,19.4,0,50.2-0.4,64.5
		c-0.5,14.4-1.4,28.2-2.6,42.8c-1.1,14.4-4.1,43.2-5,52.7c-5.1,48.4-19.2,85.3-33.8,116.3c-14.5,31-21.7,40.3-28.4,49.8
		c-3.8,5.5-10.5,13.9-27.4,31.6c-23.3,24.4-51.1,41-79.5,54.6c-8.9,4.3-34.6,13.9-52,19.7c-17,5.7-34.6,9.6-52.6,13.3
		c-4.7,0.9-10,1.6-14,2.3c-27.8,4.7-56.4,5.5-85,2.3c-17.1-1.8-41.8-5.6-53.8-8.2c-21.6-4.7-42.8-11.2-63.7-18.7
		c-7.1-4.2-15.2-6.1-22.3-10.7L229,807.3c-4.4-2.7-13.9-10.2-13.9-10.2c-33.9-25.7-69.2-59.8-87.3-97.1
		c-18.1-37.3-18.6-41.7-25.4-62c-1.4-4-5.6-26.9-7.9-41c-2.3-14.1-6.5-50.6-8.7-70.4l-3.7-58c-0.3-17.6-0.8-38.6-0.8-57.2
		c0-18.6,1.5-32.1,2.3-41.7c0.5-7.3,0.7-10.6,2.3-24.2c1.6-13.7,4.5-40.1,4.5-40.1c1.8-12.4,4-23.6,5.3-35.7
		c6.8-29.1,11.5-61,24.5-88.2c13.1-27.2,29.1-51.1,36-59.1c6.9-8.1,12.9-16.1,20-23.6c7.1-7.5,14-12.3,32.3-26.5
		C253.8,37,305.2,17,361,7.3c0,0,12.9-2.1,43.5-5.3C435.1-1.3,477.5,1.7,501.9,6.5L501.9,6.5z"/>
	<path fill-rule="evenodd" clip-rule="evenodd" fill="#FFDF1C" d="M713.4,194.1c11.6,25.5,17.6,53.5,22.3,81.9l6.1,44l4.9,50.1
		l1.9,38.1v52.7l-2.8,45.2l-3.7,37.5L736,587c-8.9,81.1-56.9,159.5-133,199.1c-36.2,18.7-75.8,30.1-116.6,37.8
		c-80.5,11.5-160-4.4-226.7-38.9C192.1,747.2,145.5,678,134,605.6l-6.2-35.2l-6.5-54.5l-2.9-39.4l-1.1-57.4c0-24.7,1.1-49.1,3.4-73
		l4.8-43.3c6.6-55.1,19.2-107.8,52-152.2C234.8,72.7,319,40.9,409.8,34.3C476.8,29.8,540,44,595.9,71
		C645.4,96.2,692.2,143.3,713.4,194.1L713.4,194.1z"/>
	<path fill="none" stroke="#FFDF1C" stroke-width="0.216" stroke-linecap="square" stroke-miterlimit="2.6131" d="M713.4,194.1
		c11.6,25.5,17.6,53.5,22.3,81.9 M735.7,276l6.1,44l4.9,50.1l1.9,38.1v52.7l-2.8,45.2l-3.7,37.5L736,587 M736,587
		c-8.9,81.1-56.9,159.5-133,199.1c-36.2,18.7-75.8,30.1-116.6,37.8c-80.5,11.5-160-4.4-226.7-38.9C192.1,747.2,145.5,678,134,605.6
		 M134,605.6l-6.2-35.2l-6.5-54.5l-2.9-39.4l-1.1-57.4 M117.3,419.2c0-24.7,1.1-49.1,3.4-73 M120.7,346.1l4.8-43.3 M125.6,302.8
		c6.6-55.1,19.2-107.8,52-152.2C234.8,72.7,319,40.9,409.8,34.3C476.8,29.8,540,44,595.9,71c49.4,25.2,96.3,72.4,117.5,123.1"/>
	<path fill-rule="evenodd" clip-rule="evenodd" fill="#007AC2" d="M595.9,94.1c56.1,32,98.2,89.3,112.1,149
		c4.7,18.6,7.6,37.8,10.7,57.2l6,53.5l3.1,51.1c1.6,19.9,0,38.9,0,59.1l-2.8,42.8l-2.6,27.6l-6,46.4l-8.1,39.3
		c-14.4,62.5-63.5,124.4-123.5,153.5c-68.2,31-152.5,43.1-229.8,24.2c-65.3-13.1-128.1-48-167.1-109.1
		c-25.9-38.6-34.4-84.5-41.2-131.2l-5.3-49.6l-3.1-48.1l-0.8-45.1c0.2-15.5,1.3-30.7,1.9-46.2l3.7-42.8
		c6.8-54.1,14.2-107.8,44.1-152.4c40.1-62.9,104.9-98.6,172.4-111.6C441,44,528.1,57.1,595.9,94.1L595.9,94.1z"/>
	<path fill="none" stroke="#007AC2" stroke-width="0.216" stroke-linecap="square" stroke-miterlimit="2.6131" d="M595.9,94.1
		c56.1,32,98.2,89.3,112.1,149c4.7,18.6,7.6,37.8,10.7,57.2 M718.7,300.2l6,53.5l3.1,51.1 M727.8,404.8c1.6,19.9,0,38.9,0,59.1
		 M727.8,463.9l-2.8,42.8l-2.6,27.6l-6,46.4l-8.1,39.3 M708.4,620c-14.4,62.5-63.5,124.4-123.5,153.5
		c-68.2,31-152.5,43.1-229.8,24.2c-65.3-13.1-128.1-48-167.1-109.1c-25.9-38.6-34.4-84.5-41.2-131.2 M146.9,557.5l-5.3-49.6
		l-3.1-48.1l-0.8-45.1 M137.7,414.6c0.2-15.5,1.3-30.7,1.9-46.2 M139.6,368.4l3.7-42.8 M143.4,325.6c6.8-54.1,14.2-107.8,44.1-152.4
		c40.1-62.9,104.9-98.6,172.4-111.6C441,44,528.1,57.1,595.9,94.1"/>
	<path fill-rule="evenodd" clip-rule="evenodd" fill="#FFDF1C" d="M490.9,111.2c3.9,7.4,3.7,16.1,3.1,24.6c0.6,0.8,1.4,1.3,2.6,1.1
		c2.4-2.7,3.2-6.3,3.9-9.9c3.7,2.1,0,10.8,6,9.2l8.7-3.6c-1.1,3.7-4,6.8-4.8,10.7c3.7,1.9,7.6,3.6,11,6.1c-5.3,0-10.7,0.7-14.1,4.5
		c-1.3,5.2,5,6.1,4.8,11c0.6,12.1-8.7,20.4-15.5,29.6c-4.8,5.3-10.2,9.9-15.8,13.6c0.3,2.7,1.8,5.5,4.5,6.5
		c6.8-7.6,15.2-10.5,24.6-11.8c10.2-10.5,17.1-23.1,25-34.7c8.4-16.8,23.3-31.8,19.4-52.7c0.3-0.8,1.1-0.3,1.8-0.5
		c3.2,4.2,4.8,11.1,11,12.1c11.1-0.5,20.2-5.8,29.6-10.2c1,0.3,3.1-0.8,2.7,1.1v1.1c-10,10.2-21.2,17.4-33.4,22.3l-4.5,6.1
		l-26.2,51.2c-1.8,5.8-6.5,11.6-4.5,18.1c3.7,3.4,8.6,4.5,11.5,8.7c1.3,12.3,15.4,19.6,13.2,33.3c0.5,10.8-2.1,22.8-12.6,28.1
		c-3.2,1.9-7.6,1.5-11.3,2.6c2.7,11.5,4.2,27.5-7.3,34.9c-3.9,2.9-9.5,1.1-13.6,0c0.6,8.9,0.5,19.4-9,23.6
		c-6.6,3.4-14.4,0.5-19.7-3.5c-2.7,0-5.5,0-7.6,1.6c-6.6,8.1-4,18.9,0.8,26.8c4.4,9.1,12.6,16.8,20.4,23.9c1.3,2.6-0.3,5.2-2.6,6.5
		c-6.8,1.3-11.8-6.6-15.5-11.3c-7.1-12.3-15.8-24.9-12.9-40.2c9.5-15.2,17.8-36.2,8.4-54.1l-18.6-25c-3.1-9.4,5.5-15.7,7.4-23.9
		c2.1-9.4,8.7-17.3,6.1-27.9c1.9-1.8,5.3-1,6.1-3.9l-4.7-1.4c1.3-1.1,3.7-1,3.9-3.1c-1.3-0.8-3.2,0.2-4.5-0.8
		c-1.1-8.1,8.9-7.6,13.2-12.1c9.2-6.5,16.5-15.8,20-25.7c1.3-2.7-0.7-5.5-3.1-6.8c-22.6,5-45.2,10.2-70.1,10.2
		c-21.5,1-41.7-1.5-61.7-3.9c-1.6,0.3-3.2,1.5-4.2,3.1c1.4,16.3,18.9,29.4,33,35.2c2.3,9.9,4.7,19.7,13.7,26.2
		c1,1.9,0.8,4.7,3.4,5.7c1.9,0.3,2.4-1.8,3.1-3.1c-0.8-13.9-3.9-34.1,11.3-40.4c10,0.2,19.9-0.3,29.6-1.1c2.1,0.6,4.7,0.8,5.7,3.4
		c2.3,9.1-13.1,10.3-8.2,20.3c0.5,3.4,5.2,6.6,1.8,10.4c2.3,7.1-8.4,3.4-11.6,7.1c-2.3,0.3-5-0.8-6.5,1.1c1.4,3.4,3.7,6.5,6.8,9
		l8.7,1.6c-0.7,3.1-1.8,6.3-4.2,8.2c-5.3,2.7-11.1-0.2-16.6-0.3c-2.8,3.4,2.3,6.3,2.3,9.9c1,4.7,1.8,11.3-1.1,15.5
		c-3.4,3.9-8.9,2.4-12.9,5c6,2.7,12.3,9.4,12.6,16.6c-2.3,1.6-5.8-1.6-8.1,1.1c-1.4,1.4-2.1,3.4-1.8,5.6c7.9,5,10.7,13.2,9,22
		c-1.6,7.4-7.8,14.7-15.5,16c-10,2.1-17.6-4.2-24.7-10.3c-7.8-2.3-16.2,0.6-22-6.5c-2.7,1.1-4,4.2-6,6.1c-1,1.4-1.3,3.1-1.1,4.8
		c12,18.7,25.9,39.1,45.7,51.5c7.4,0,13.7-4,21.3-2.6c7.6,1.9,16.2,2.7,22.3,7.3c-0.3,1.1-0.6,1.6-1.9,2.3
		c-10.2-0.2-20.2,0.5-27.1,8.2c-17.4,6.5-28.8-11.3-42.5-18.6c-15.7-12.8-33.1-26.5-43.6-44c-2.7-7.3,2.9-13.1,6.8-18.6
		c-5.7-4.4-12.6,0.7-19.2-1.4c-3.9-1-8.4-2.6-10.2-6.8c-2.4-4.4-0.8-9.7,1.8-13.2c4.4-5.2,10-7.6,15.2-10.7
		c-2.1-1.8-4.7-4.5-3.1-7.6c3.4-7.1,11.1-7.9,17.1-11c-0.7-3.6-0.8-8.4,3.1-10.2c11.6-8.2,30.2-7.3,42.3-0.8
		c5.8,2.6,15.5,5,20.8-0.3c3.6-3.1,2.9-8.6,1.9-12.6c-1.1-3.1-2.6-6.6-5.6-8.2c-1.3,3.2-1.6,7.6-5.6,9c-2.4,1.1-4.7-0.3-6.5-1.4
		c-3.6-5.6-0.3-13.1,3.1-18.3c-6.1-6.3-9.5-13.9-11-22c-14.2-9-32.9-22.1-36-39.8c-9.7-0.2-19.9,8.4-29.6,1.5
		c-2.1-2.1-3.4-4.4-3.9-7.1c1.1-9.9,10.8-18.3,19.4-22c2.2-1,5.2-1.3,6.8-2.7c-5-0.8-10.3-2.3-12.9-7.6c-0.6-2.7-0.6-6.1,1.6-8.2
		c10.2-7.3,26.3-3.9,37.8-1.6l0.8-0.6l-4.5-6.1c2.9-0.2,5.3,0.8,7.9,1.4l0.8-0.6c-0.6-4-1.8-7.9-1.9-12.1c3.2,2.6,4.7,5.8,8.4,8.2
		c1.8-2.6,2.7-5.6,5.3-7.9c0,4.4,1,8.4,3.4,11.8c6.9,0,13.1,2.3,18.1,6.8c11-6.8,26-12.4,38.6-5.7c5.7,6.1,8.4-5.8,13.7-7.3
		c3.7-3.4,8.9-4.5,14.1-3.4C479.7,108,487.3,105.1,490.9,111.2L490.9,111.2z"/>
	<path fill="none" stroke="#FFDF1C" stroke-width="0.216" stroke-linecap="square" stroke-miterlimit="2.6131" d="M490.9,111.2
		c3.9,7.4,3.7,16.1,3.1,24.6c0.6,0.8,1.4,1.3,2.6,1.1c2.4-2.7,3.2-6.3,3.9-9.9c3.7,2.1,0,10.8,6,9.2 M506.4,136.2l8.7-3.6
		 M515.1,132.7c-1.1,3.7-4,6.8-4.8,10.7c3.7,1.9,7.6,3.6,11,6.1c-5.3,0-10.7,0.7-14.1,4.5c-1.3,5.2,5,6.1,4.8,11
		c0.6,12.1-8.7,20.4-15.5,29.6c-4.8,5.3-10.2,9.9-15.8,13.6c0.3,2.7,1.8,5.5,4.5,6.5c6.8-7.6,15.2-10.5,24.6-11.8
		c10.2-10.5,17.1-23.1,25-34.7c8.4-16.8,23.3-31.8,19.4-52.7c0.3-0.8,1.1-0.3,1.8-0.5c3.2,4.2,4.8,11.1,11,12.1
		c11.1-0.5,20.2-5.8,29.6-10.2c1,0.3,3.1-0.8,2.7,1.1 M599.3,118v1.1 M599.3,119.1c-10,10.2-21.2,17.4-33.4,22.3 M565.9,141.4
		l-4.5,6.1l-26.2,51.2 M535.2,198.8c-1.8,5.8-6.5,11.6-4.5,18.1c3.7,3.4,8.6,4.5,11.5,8.7c1.3,12.3,15.4,19.6,13.2,33.3
		c0.5,10.8-2.1,22.8-12.6,28.1c-3.2,1.9-7.6,1.5-11.3,2.6c2.7,11.5,4.2,27.5-7.3,34.9c-3.9,2.9-9.5,1.1-13.6,0
		c0.6,8.9,0.5,19.4-9,23.6c-6.6,3.4-14.4,0.5-19.7-3.5c-2.7,0-5.5,0-7.6,1.6c-6.6,8.1-4,18.9,0.8,26.8c4.4,9.1,12.6,16.8,20.4,23.9
		c1.3,2.6-0.3,5.2-2.6,6.5c-6.8,1.3-11.8-6.6-15.5-11.3c-7.1-12.3-15.8-24.9-12.9-40.2c9.5-15.2,17.8-36.2,8.4-54.1 M472.8,297.6
		l-18.6-25 M454.2,272.6c-3.1-9.4,5.5-15.7,7.4-23.9c2.1-9.4,8.7-17.3,6.1-27.9c1.9-1.8,5.3-1,6.1-3.9 M473.9,216.9l-4.7-1.4
		 M469.2,215.4c1.3-1.1,3.7-1,3.9-3.1c-1.3-0.8-3.2,0.2-4.5-0.8c-1.1-8.1,8.9-7.6,13.2-12.1c9.2-6.5,16.5-15.8,20-25.7
		c1.3-2.7-0.7-5.5-3.1-6.8c-22.6,5-45.2,10.2-70.1,10.2c-21.5,1-41.7-1.5-61.7-3.9c-1.6,0.3-3.2,1.5-4.2,3.1
		c1.4,16.3,18.9,29.4,33,35.2c2.3,9.9,4.7,19.7,13.7,26.2c1,1.9,0.8,4.7,3.4,5.7c1.9,0.3,2.4-1.8,3.1-3.1
		c-0.8-13.9-3.9-34.1,11.3-40.4c10,0.2,19.9-0.3,29.6-1.1c2.1,0.6,4.7,0.8,5.7,3.4c2.3,9.1-13.1,10.3-8.2,20.3
		c0.5,3.4,5.2,6.6,1.8,10.4c2.3,7.1-8.4,3.4-11.6,7.1c-2.3,0.3-5-0.8-6.5,1.1c1.4,3.4,3.7,6.5,6.8,9 M444.7,250.1l8.7,1.6
		 M453.4,251.8c-0.7,3.1-1.8,6.3-4.2,8.2c-5.3,2.7-11.1-0.2-16.6-0.3c-2.8,3.4,2.3,6.3,2.3,9.9c1,4.7,1.8,11.3-1.1,15.5
		c-3.4,3.9-8.9,2.4-12.9,5c6,2.7,12.3,9.4,12.6,16.6c-2.3,1.6-5.8-1.6-8.1,1.1c-1.4,1.4-2.1,3.4-1.8,5.6c7.9,5,10.7,13.2,9,22
		c-1.6,7.4-7.8,14.7-15.5,16c-10,2.1-17.6-4.2-24.7-10.3c-7.8-2.3-16.2,0.6-22-6.5c-2.7,1.1-4,4.2-6,6.1c-1,1.4-1.3,3.1-1.1,4.8
		c12,18.7,25.9,39.1,45.7,51.5c7.4,0,13.7-4,21.3-2.6c7.6,1.9,16.2,2.7,22.3,7.3c-0.3,1.1-0.6,1.6-1.9,2.3
		c-10.2-0.2-20.2,0.5-27.1,8.2c-17.4,6.5-28.8-11.3-42.5-18.6c-15.7-12.8-33.1-26.5-43.6-44c-2.7-7.3,2.9-13.1,6.8-18.6
		c-5.7-4.4-12.6,0.7-19.2-1.4c-3.9-1-8.4-2.6-10.2-6.8c-2.4-4.4-0.8-9.7,1.8-13.2c4.4-5.2,10-7.6,15.2-10.7
		c-2.1-1.8-4.7-4.5-3.1-7.6c3.4-7.1,11.1-7.9,17.1-11c-0.7-3.6-0.8-8.4,3.1-10.2c11.6-8.2,30.2-7.3,42.3-0.8
		c5.8,2.6,15.5,5,20.8-0.3c3.6-3.1,2.9-8.6,1.9-12.6c-1.1-3.1-2.6-6.6-5.6-8.2c-1.3,3.2-1.6,7.6-5.6,9c-2.4,1.1-4.7-0.3-6.5-1.4
		c-3.6-5.6-0.3-13.1,3.1-18.3c-6.1-6.3-9.5-13.9-11-22c-14.2-9-32.9-22.1-36-39.8c-9.7-0.2-19.9,8.4-29.6,1.5
		c-2.1-2.1-3.4-4.4-3.9-7.1c1.1-9.9,10.8-18.3,19.4-22c2.2-1,5.2-1.3,6.8-2.7c-5-0.8-10.3-2.3-12.9-7.6c-0.6-2.7-0.6-6.1,1.6-8.2
		c10.2-7.3,26.3-3.9,37.8-1.6 M371.5,128.2l0.8-0.6l-4.5-6.1 M367.8,121.4c2.9-0.2,5.3,0.8,7.9,1.4 M375.7,122.8l0.8-0.6
		 M376.5,122.2c-0.6-4-1.8-7.9-1.9-12.1c3.2,2.6,4.7,5.8,8.4,8.2c1.8-2.6,2.7-5.6,5.3-7.9c0,4.4,1,8.4,3.4,11.8
		c6.9,0,13.1,2.3,18.1,6.8c11-6.8,26-12.4,38.6-5.7c5.7,6.1,8.4-5.8,13.7-7.3c3.7-3.4,8.9-4.5,14.1-3.4c3.5-4.7,11.1-7.6,14.7-1.5"
		/>
	<path fill-rule="evenodd" clip-rule="evenodd" fill="#007AC2" d="M487.8,116c-0.1,6,1,13.9-2.6,18.6c-5.5,1.1-10.8,2.3-15.5,5v-1.1
		c4.8-7.9,7.6-16.5,11.6-24.7C483.6,111.2,487.2,113.6,487.8,116L487.8,116z"/>
	<path fill="none" stroke="#007AC2" stroke-width="0.216" stroke-linecap="square" stroke-miterlimit="2.6131" d="M487.8,116
		c-0.1,6,1,13.9-2.6,18.6c-5.5,1.1-10.8,2.3-15.5,5 M469.7,139.6v-1.1 M469.7,138.5c4.8-7.9,7.6-16.5,11.6-24.7
		c2.3-2.6,5.8-0.2,6.5,2.3"/>
	<path fill-rule="evenodd" clip-rule="evenodd" fill="#007AC2" d="M472.3,121c-2.1,9.2-7.4,17.3-12.4,25.4c-4,0.3-7.9-2.1-12.1-2.3
		V143c6.1-8.4,11.5-18.1,20.4-24.2C470.2,118.1,471.5,119.6,472.3,121L472.3,121z"/>
	<path fill="none" stroke="#007AC2" stroke-width="0.216" stroke-linecap="square" stroke-miterlimit="2.6131" d="M472.3,121
		c-2.1,9.2-7.4,17.3-12.4,25.4c-4,0.3-7.9-2.1-12.1-2.3 M447.8,144.1V143 M447.8,143c6.1-8.4,11.5-18.1,20.4-24.2
		c2.1-0.6,3.4,0.8,4.2,2.3"/>
	<path fill-rule="evenodd" clip-rule="evenodd" fill="#007AC2" d="M447.3,130.9v1.8c-6,4.7-7.9,14.5-16.6,14.5l-6.5,4
		c-2.6-4-3.7-9.5-6.5-13.9C423.9,127.2,437.9,124.8,447.3,130.9L447.3,130.9z"/>
	<path fill="none" stroke="#007AC2" stroke-width="0.216" stroke-linecap="square" stroke-miterlimit="2.6131" d="M447.3,130.9v1.8
		 M447.3,132.7c-6,4.7-7.9,14.5-16.6,14.5 M430.6,147.2l-6.5,4 M424.2,151.3c-2.6-4-3.7-9.5-6.5-13.9c6.2-10.2,20.2-12.6,29.6-6.5"
		/>
	<path fill-rule="evenodd" clip-rule="evenodd" fill="#007AC2" d="M409.5,140c4.2,7.3,9.5,17.1,4.2,25l-1.9,3.4
		c-10.3-1.9-28.6,5.5-31-9.5c-3.6-6.5-4.8-17-0.5-23.4c4.4-5,10.5-7.4,16.6-5.3C401.7,131.9,406.1,135.7,409.5,140L409.5,140z"/>
	<path fill="none" stroke="#007AC2" stroke-width="0.216" stroke-linecap="square" stroke-miterlimit="2.6131" d="M409.5,140
		c4.2,7.3,9.5,17.1,4.2,25 M413.7,165l-1.9,3.4 M411.7,168.4c-10.3-1.9-28.6,5.5-31-9.5c-3.6-6.5-4.8-17-0.5-23.4
		c4.4-5,10.5-7.4,16.6-5.3c4.9,1.8,9.2,5.7,12.6,9.9"/>
	<path fill-rule="evenodd" clip-rule="evenodd" fill="#007AC2" d="M372,135.4c-1.1,3.4,0,11.8-6.9,7.9c-8.4-1.3-16.8-3.2-24.9-5.7
		c-1-1-1.4-2.1-1.1-3.4C348.9,127.2,362,132.7,372,135.4L372,135.4z"/>
	<path fill="none" stroke="#007AC2" stroke-width="0.216" stroke-linecap="square" stroke-miterlimit="2.6131" d="M372,135.4
		c-1.1,3.4,0,11.8-6.9,7.9c-8.4-1.3-16.8-3.2-24.9-5.7c-1-1-1.4-2.1-1.1-3.4C348.9,127.2,362,132.7,372,135.4"/>
	<path fill-rule="evenodd" clip-rule="evenodd" fill="#007AC2" d="M499.3,151.3c1,1.9,1.3,4.2,1.1,6.5c-13.3,6.3-28.4,7.9-43.3,10.3
		c-1.8-7.6,3.7-14.9,9.9-19.4C476,143.5,492.7,139.6,499.3,151.3L499.3,151.3z"/>
	<path fill="none" stroke="#007AC2" stroke-width="0.216" stroke-linecap="square" stroke-miterlimit="2.6131" d="M499.3,151.3
		c1,1.9,1.3,4.2,1.1,6.5c-13.3,6.3-28.4,7.9-43.3,10.3c-1.8-7.6,3.7-14.9,9.9-19.4C476,143.5,492.7,139.6,499.3,151.3"/>
	<path fill-rule="evenodd" clip-rule="evenodd" fill="#007AC2" d="M370.4,150.6c1,4.8,1.3,10.2,2.7,14.4c-13.6-0.6-26.5,1.6-38,6.8
		c-2.3,0.3-4.8,1.3-7.1,0.3c-2.6-1.3-1.6-4.2-0.8-6.5c9.9-13.7,26-17.3,42.5-15.8L370.4,150.6L370.4,150.6z"/>
	<path fill="none" stroke="#007AC2" stroke-width="0.216" stroke-linecap="square" stroke-miterlimit="2.6131" d="M370.4,150.6
		c1,4.8,1.3,10.2,2.7,14.4c-13.6-0.6-26.5,1.6-38,6.8c-2.3,0.3-4.8,1.3-7.1,0.3c-2.6-1.3-1.6-4.2-0.8-6.5
		c9.9-13.7,26-17.3,42.5-15.8 M369.7,149.8l0.7,0.8"/>
	<path fill-rule="evenodd" clip-rule="evenodd" fill="#007AC2" d="M452.6,152.9c-3.2,4.8-5.8,10-7.9,15.5
		c-7.1,2.1-15.7,0.8-23.4,1.1c-1.4-1.9,0.6-4.2,1.1-6.5C428.4,152.2,441.3,148.8,452.6,152.9L452.6,152.9z"/>
	<path fill="none" stroke="#007AC2" stroke-width="0.216" stroke-linecap="square" stroke-miterlimit="2.6131" d="M452.6,152.9
		c-3.2,4.8-5.8,10-7.9,15.5c-7.1,2.1-15.7,0.8-23.4,1.1c-1.4-1.9,0.6-4.2,1.1-6.5C428.4,152.2,441.3,148.8,452.6,152.9"/>
	<path fill-rule="evenodd" clip-rule="evenodd" fill="#007AC2" d="M443.9,207c-0.2,1.1-1,2.7-2.3,1.5c-3.1-2.4-7.4-3.1-11.3-2.3
		c-1.3-0.5-3.2,2.9-3.4,0c3.6-2.4,8.2-3.2,12.8-2.3C441.3,204.6,442.7,205.5,443.9,207L443.9,207z"/>
	<path fill="none" stroke="#007AC2" stroke-width="0.216" stroke-linecap="square" stroke-miterlimit="2.6131" d="M443.9,207
		c-0.2,1.1-1,2.7-2.3,1.5c-3.1-2.4-7.4-3.1-11.3-2.3c-1.3-0.5-3.2,2.9-3.4,0c3.6-2.4,8.2-3.2,12.8-2.3
		C441.3,204.6,442.7,205.5,443.9,207"/>
	<path fill-rule="evenodd" clip-rule="evenodd" fill="#007AC2" d="M441,213.1c1.8,1.8,2.9,5,1.8,7.9c-0.7,0.3-0.3,1.3-1.1,1.1
		c-0.8-1.6,0.2-4.7-0.6-6.8c-1.3-1.6-2.7-2.3-4.7-1.9c-1.5,1-0.2,3.2-1.1,4.5c-1.8,2.4-4.8,3.2-7.6,2.3c-1.3-0.6-2.9-1.3-3.7-2.6
		c0.3-2.8,5.5-0.6,3.7-4.2c0.8-1.9,2.1,0.6,3.1-0.8C433.4,210.9,438.6,209.9,441,213.1L441,213.1z"/>
	<path fill="none" stroke="#007AC2" stroke-width="0.216" stroke-linecap="square" stroke-miterlimit="2.6131" d="M441,213.1
		c1.8,1.8,2.9,5,1.8,7.9c-0.7,0.3-0.3,1.3-1.1,1.1c-0.8-1.6,0.2-4.7-0.6-6.8c-1.3-1.6-2.7-2.3-4.7-1.9c-1.5,1-0.2,3.2-1.1,4.5
		c-1.8,2.4-4.8,3.2-7.6,2.3c-1.3-0.6-2.9-1.3-3.7-2.6c0.3-2.8,5.5-0.6,3.7-4.2c0.8-1.9,2.1,0.6,3.1-0.8
		C433.4,210.9,438.6,209.9,441,213.1"/>
	<path fill-rule="evenodd" clip-rule="evenodd" fill="#007AC2" d="M518.5,220.3c2.4,3.1,1.3,8.2,5.3,9.9c5-1,9.2,1.1,11.8,5.3
		c1.9,7-1.8,16.2,7.6,18.6c4.8,7.1,1,16.6-2.7,23.1c-2.1,3.1-6,3.6-9.4,2.6c-3.9-3.4-3.7-9.1-3.1-13.9c0.8-3.2,3.4-7.3,1.1-10.3
		c-1.8-2.3-5.8-1.1-6.1-4.8c0.5-2.4-1.8-4.5-3.7-5.3c-10.7,0.8-10.8-11.6-16.6-16.6c-5.7-0.5-12,7.6-16.3,0.3
		c-1-5.7,4.4-10.8,9-13.6C502.5,211,514.3,211.7,518.5,220.3L518.5,220.3z"/>
	<path fill="none" stroke="#007AC2" stroke-width="0.216" stroke-linecap="square" stroke-miterlimit="2.6131" d="M518.5,220.3
		c2.4,3.1,1.3,8.2,5.3,9.9c5-1,9.2,1.1,11.8,5.3c1.9,7-1.8,16.2,7.6,18.6c4.8,7.1,1,16.6-2.7,23.1c-2.1,3.1-6,3.6-9.4,2.6
		c-3.9-3.4-3.7-9.1-3.1-13.9c0.8-3.2,3.4-7.3,1.1-10.3c-1.8-2.3-5.8-1.1-6.1-4.8c0.5-2.4-1.8-4.5-3.7-5.3
		c-10.7,0.8-10.8-11.6-16.6-16.6c-5.7-0.5-12,7.6-16.3,0.3c-1-5.7,4.4-10.8,9-13.6C502.5,211,514.3,211.7,518.5,220.3"/>
	<path fill-rule="evenodd" clip-rule="evenodd" fill="#FFDF1C" d="M464.4,213.5c-0.2,3.2,0.5,7.1-1.9,9l-2.3-0.3
		C462.1,219.6,460.7,214.4,464.4,213.5L464.4,213.5z"/>
	<path fill="none" stroke="#FFDF1C" stroke-width="0.216" stroke-linecap="square" stroke-miterlimit="2.6131" d="M464.4,213.5
		c-0.2,3.2,0.5,7.1-1.9,9 M462.5,222.5l-2.3-0.3 M460.2,222.2c1.9-2.6,0.5-7.8,4.2-8.7"/>
	<path fill-rule="evenodd" clip-rule="evenodd" fill="#007AC2" d="M450.7,231.7c0.5,1.1-0.3,2.3-1.4,2.6c-0.8,0.2-1.5-0.2-1.9-0.8
		c-0.2-1.3,0.6-2.6,1.9-2.9C449.9,230.6,450.3,231.2,450.7,231.7L450.7,231.7z"/>
	<path fill="none" stroke="#007AC2" stroke-width="0.216" stroke-linecap="square" stroke-miterlimit="2.6131" d="M450.7,231.7
		c0.5,1.1-0.3,2.3-1.4,2.6c-0.8,0.2-1.5-0.2-1.9-0.8c-0.2-1.3,0.6-2.6,1.9-2.9C449.9,230.6,450.3,231.2,450.7,231.7"/>
	<path fill-rule="evenodd" clip-rule="evenodd" fill="#007AC2" d="M501.9,244.5c0.8,8.6,11.3,2.9,13.2,11c1.1,6.5-3.9,13.1,0,19.4
		c12.3,6.6,8.4,22.5,7.6,33c-1.3,2.9-3.1,6.6-6.5,7.6c-2.6,0-5.3,0-7.1-1.6c-8.2-10.8,5.2-25-5.8-34.7c-2.9-8.1,1-21-10.5-23.6
		c-4.8-1.9-12.1,0-14.4-6.5c-0.5-2.9-1-5.5,0.3-8.2c1.8-2.7,4.5-4.7,7.6-5C492.7,235.9,498.3,239.3,501.9,244.5L501.9,244.5z"/>
	<path fill="none" stroke="#007AC2" stroke-width="0.216" stroke-linecap="square" stroke-miterlimit="2.6131" d="M501.9,244.5
		c0.8,8.6,11.3,2.9,13.2,11c1.1,6.5-3.9,13.1,0,19.4c12.3,6.6,8.4,22.5,7.6,33c-1.3,2.9-3.1,6.6-6.5,7.6c-2.6,0-5.3,0-7.1-1.6
		c-8.2-10.8,5.2-25-5.8-34.7c-2.9-8.1,1-21-10.5-23.6c-4.8-1.9-12.1,0-14.4-6.5c-0.5-2.9-1-5.5,0.3-8.2c1.8-2.7,4.5-4.7,7.6-5
		C492.7,235.9,498.3,239.3,501.9,244.5"/>
	<path fill-rule="evenodd" clip-rule="evenodd" fill="#007AC2" d="M404.1,242.2c0.6,2.6,0.6,5.8-0.8,7.9c-0.6,1-1.5,1.4-2.6,1.3
		c-2.9-2.9-1.1-7.6,0-10.7C401.7,238.8,403.5,241.3,404.1,242.2L404.1,242.2z"/>
	<path fill="none" stroke="#007AC2" stroke-width="0.216" stroke-linecap="square" stroke-miterlimit="2.6131" d="M404.1,242.2
		c0.6,2.6,0.6,5.8-0.8,7.9c-0.6,1-1.5,1.4-2.6,1.3c-2.9-2.9-1.1-7.6,0-10.7C401.7,238.8,403.5,241.3,404.1,242.2"/>
	<path fill-rule="evenodd" clip-rule="evenodd" fill="#FFDF1C" d="M456,242.2c1.1,1.6-2.1,3.4-3.4,4.5c-2.6,0.3-6,0-7.9-2.6
		C447.8,241.7,452.3,240.6,456,242.2L456,242.2z"/>
	<path fill="none" stroke="#FFDF1C" stroke-width="0.216" stroke-linecap="square" stroke-miterlimit="2.6131" d="M456,242.2
		c1.1,1.6-2.1,3.4-3.4,4.5c-2.6,0.3-6,0-7.9-2.6C447.8,241.7,452.3,240.6,456,242.2"/>
	<path fill-rule="evenodd" clip-rule="evenodd" fill="#007AC2" d="M486.4,265.3c2.6,4-0.3,10.7,4.8,13.2c3.7,2.4,5.8,6.1,7,9.9
		c2.1,7.6-3.9,12.1-2.3,19.1c4.4,7.8,10.3,18.3,4,27.1c-1.6,2.4-4.4,3.9-7.1,4.2c-2.9,0.6-5.2-0.6-7.3-2.3
		c-7.3-9.4,4.4-18.8,0.5-29.1c-5.8-5.2-2.9-13.9-6.9-19.7c-3.6-3.7-8.2-6.6-9.9-11.5c-1.6-6,0.8-11.6,5.3-15.2
		c2.1-0.8,4.5-1.5,6.8-0.6C483.5,261.3,485.6,263.4,486.4,265.3L486.4,265.3z"/>
	<path fill="none" stroke="#007AC2" stroke-width="0.216" stroke-linecap="square" stroke-miterlimit="2.6131" d="M486.4,265.3
		c2.6,4-0.3,10.7,4.8,13.2c3.7,2.4,5.8,6.1,7,9.9c2.1,7.6-3.9,12.1-2.3,19.1c4.4,7.8,10.3,18.3,4,27.1c-1.6,2.4-4.4,3.9-7.1,4.2
		c-2.9,0.6-5.2-0.6-7.3-2.3c-7.3-9.4,4.4-18.8,0.5-29.1c-5.8-5.2-2.9-13.9-6.9-19.7c-3.6-3.7-8.2-6.6-9.9-11.5
		c-1.6-6,0.8-11.6,5.3-15.2c2.1-0.8,4.5-1.5,6.8-0.6C483.5,261.3,485.6,263.4,486.4,265.3"/>
	<path fill-rule="evenodd" clip-rule="evenodd" fill="#007AC2" d="M399.6,277.9c6.5,0.5,14.1,1.1,17.5,6.8c0.6,2.7-1,5.2-3.1,6.5
		c-6.8,0-13.9-3.6-21.2-1.1c-13.3,2.1-22.5-8.1-35.7-7.3c-1.3-1.5-2.6-3.4-1.4-5.3c6.6-6.8,17.6-6,26.5-3.7
		C387.3,276.5,393.1,278.1,399.6,277.9L399.6,277.9z"/>
	<path fill="none" stroke="#007AC2" stroke-width="0.216" stroke-linecap="square" stroke-miterlimit="2.6131" d="M399.6,277.9
		c6.5,0.5,14.1,1.1,17.5,6.8c0.6,2.7-1,5.2-3.1,6.5c-6.8,0-13.9-3.6-21.2-1.1c-13.3,2.1-22.5-8.1-35.7-7.3c-1.3-1.5-2.6-3.4-1.4-5.3
		c6.6-6.8,17.6-6,26.5-3.7C387.3,276.5,393.1,278.1,399.6,277.9"/>
	<path fill-rule="evenodd" clip-rule="evenodd" fill="#007AC2" d="M381.4,295.7c10.2,1.9,21.5-5.8,31.2,0.8c2.7,1.3,3.6,4,4.1,6.8
		c0.2,3.1-1.1,6.1-4.1,7.1c-9,1.1-17-3.4-26.2-1.8c-13.6,1.8-22.5-9.7-35.7-9.9c-2.1-1-5.3,0.3-6-2.8c-0.8-3.2,2.3-5.5,4.5-6.8
		C360.7,285.2,372.3,289.6,381.4,295.7L381.4,295.7z"/>
	<path fill="none" stroke="#007AC2" stroke-width="0.216" stroke-linecap="square" stroke-miterlimit="2.6131" d="M381.4,295.7
		c10.2,1.9,21.5-5.8,31.2,0.8c2.7,1.3,3.6,4,4.1,6.8c0.2,3.1-1.1,6.1-4.1,7.1c-9,1.1-17-3.4-26.2-1.8c-13.6,1.8-22.5-9.7-35.7-9.9
		c-2.1-1-5.3,0.3-6-2.8c-0.8-3.2,2.3-5.5,4.5-6.8C360.7,285.2,372.3,289.6,381.4,295.7"/>
	<path fill-rule="evenodd" clip-rule="evenodd" fill="#007AC2" d="M394.6,316.9c9.8-2.6,19.1,2.1,25,9.9c1.3,3.4,1,7.8-1.1,10.7
		c-12.4,11.1-20.2-9-32.6-8.4c-11.5,0.5-21.5-2.6-30.2-9c-8.2-3.9-17.1,0.8-25.4,0.3c-1.6-1.3-3.7-3.6-2.3-6
		c6.1-8.7,17-11.8,27.6-9.1C368.4,309.6,379.2,319.8,394.6,316.9L394.6,316.9z"/>
	<path fill="none" stroke="#007AC2" stroke-width="0.216" stroke-linecap="square" stroke-miterlimit="2.6131" d="M394.6,316.9
		c9.8-2.6,19.1,2.1,25,9.9c1.3,3.4,1,7.8-1.1,10.7c-12.4,11.1-20.2-9-32.6-8.4c-11.5,0.5-21.5-2.6-30.2-9
		c-8.2-3.9-17.1,0.8-25.4,0.3c-1.6-1.3-3.7-3.6-2.3-6c6.1-8.7,17-11.8,27.6-9.1C368.4,309.6,379.2,319.8,394.6,316.9"/>
	<path fill-rule="evenodd" clip-rule="evenodd" fill="#FFFFFF" d="M576.5,427.9c0.2,7.1,3.9,17.9-4.5,21.7c-4.5,1.3-10.3,1-14.4-1.1
		c-5-4.2-3.2-11.8-3.1-17.8c0.6-2.9,2.4-6,5.3-7.3C565.6,422.2,573.8,421.4,576.5,427.9L576.5,427.9z"/>
	<path fill="none" stroke="#FFFFFF" stroke-width="0.216" stroke-linecap="square" stroke-miterlimit="2.6131" d="M576.5,427.9
		c0.2,7.1,3.9,17.9-4.5,21.7c-4.5,1.3-10.3,1-14.4-1.1c-5-4.2-3.2-11.8-3.1-17.8c0.6-2.9,2.4-6,5.3-7.3
		C565.6,422.2,573.8,421.4,576.5,427.9"/>
	<path fill-rule="evenodd" clip-rule="evenodd" fill="#FFFFFF" d="M371.5,429c0.2,7.3,3.9,18.9-4.5,22.5c-4.8,0.6-10.3,0.6-14.4-1.6
		c-3.9-5.7-3.9-15-1.4-21.5c3.2-4.8,9.4-5,14.7-4.2C368.8,424.5,370.2,426.9,371.5,429L371.5,429z"/>
	<path fill="none" stroke="#FFFFFF" stroke-width="0.216" stroke-linecap="square" stroke-miterlimit="2.6131" d="M371.5,429
		c0.2,7.3,3.9,18.9-4.5,22.5c-4.8,0.6-10.3,0.6-14.4-1.6c-3.9-5.7-3.9-15-1.4-21.5c3.2-4.8,9.4-5,14.7-4.2
		C368.8,424.5,370.2,426.9,371.5,429"/>
	<path fill-rule="evenodd" clip-rule="evenodd" fill="#FFFFFF" d="M251.8,443.6c4.5,10,2.6,22.6,3.1,34.4l-1.1,0.8h-23.1
		c-1.3-9.9,1.3-21.2-2.3-30.1c-7.1-6.3-17.1-5.5-25.4-2.3c-3.1,1.8-4.7,4.8-5,8.1l1.1,97.3c0.5,2.7,3.4,5.2,5.7,6.5
		c6.6,2.4,15.8,2.1,22-1.1c2.4-1.6,3.2-4,3.9-6.5V523c8.2-0.6,16.2-0.3,24.2-0.3c-0.8,15.5,5,35.1-9.5,45.1
		c-17.6,10.3-45.9,9.9-63.2-0.8c-7.6-5.5-10-13.7-10.4-22.8l0.5-90.5c1.8-7.1,5.5-14.9,12.8-18.3c18.1-8.2,45.7-9.2,62.5,2.3
		L251.8,443.6L251.8,443.6z"/>
	<path fill="none" stroke="#FFFFFF" stroke-width="0.216" stroke-linecap="square" stroke-miterlimit="2.6131" d="M251.8,443.6
		c4.5,10,2.6,22.6,3.1,34.4 M254.8,478l-1.1,0.8h-23.1 M230.6,478.8c-1.3-9.9,1.3-21.2-2.3-30.1c-7.1-6.3-17.1-5.5-25.4-2.3
		c-3.1,1.8-4.7,4.8-5,8.1 M198,454.5l1.1,97.3 M199.1,551.8c0.5,2.7,3.4,5.2,5.7,6.5c6.6,2.4,15.8,2.1,22-1.1c2.4-1.6,3.2-4,3.9-6.5
		 M230.6,550.7V523 M230.6,523c8.2-0.6,16.2-0.3,24.2-0.3c-0.8,15.5,5,35.1-9.5,45.1c-17.6,10.3-45.9,9.9-63.2-0.8
		c-7.6-5.5-10-13.7-10.4-22.8 M171.8,544.2l0.5-90.5 M172.3,453.7c1.8-7.1,5.5-14.9,12.8-18.3c18.1-8.2,45.7-9.2,62.5,2.3
		 M247.6,437.7l4.2,5.8"/>
	<path fill-rule="evenodd" clip-rule="evenodd" fill="#FFFFFF" d="M290.9,463.6l0.6,0.8c11.5-2.7,28.3-5.3,37.7,3.7
		c3.2,2.7,4.4,6.5,5.2,10.2l0.8,38.3V572l-0.8,0.6c-7,0-14.4,0.3-21.2-0.3l-0.8-7.9L312,481c-0.3-1.9-2.3-3.6-3.7-4.5
		c-5.3-1.1-12-1.1-17.1,0v95.8c-6.9,1.3-14.4,0.8-22,0.3l-0.8-1.8V442.7c7.1-4.4,14.5-7.9,21.7-11.8L290.9,463.6L290.9,463.6z"/>
	<path fill="none" stroke="#FFFFFF" stroke-width="0.216" stroke-linecap="square" stroke-miterlimit="2.6131" d="M290.9,463.6
		l0.6,0.8 M291.5,464.4c11.5-2.7,28.3-5.3,37.7,3.7c3.2,2.7,4.4,6.5,5.2,10.2 M334.3,478.3l0.8,38.3V572l-0.8,0.6 M334.3,572.6
		c-7,0-14.4,0.3-21.2-0.3 M313.2,572.3l-0.8-7.9L312,481 M312,481c-0.3-1.9-2.3-3.6-3.7-4.5c-5.3-1.1-12-1.1-17.1,0 M291.2,476.5
		v95.8 M291.2,572.3c-6.9,1.3-14.4,0.8-22,0.3 M269.2,572.6l-0.8-1.8V442.7 M268.4,442.7c7.1-4.4,14.5-7.9,21.7-11.8 M290.1,431
		l0.8,32.6"/>
	<path fill-rule="evenodd" clip-rule="evenodd" fill="#FFFFFF" d="M617.1,461.3c2.6,2.6,7.1-0.5,10.7,1.1l0.3,12.4
		c-3.2,1.6-7.8,0-11,1.6v93.9c-6.8,1.5-14.7,0.5-22,0.8l-0.8-43.9v-50.7c-2.9-1.4-6.8-0.5-10.2-0.8l-0.3-12.4
		c3.4-1.1,8.1,0.6,11-1.6v-18.6c6.5-5,14.5-8.2,22-12.1L617.1,461.3L617.1,461.3z"/>
	<path fill="none" stroke="#FFFFFF" stroke-width="0.216" stroke-linecap="square" stroke-miterlimit="2.6131" d="M617.1,461.3
		c2.6,2.6,7.1-0.5,10.7,1.1 M627.7,462.5l0.3,12.4 M628.1,474.9c-3.2,1.6-7.8,0-11,1.6 M617.1,476.5v93.9 M617.1,570.4
		c-6.8,1.5-14.7,0.5-22,0.8 M595.1,571.2l-0.8-43.9v-50.7 M594.3,476.5c-2.9-1.4-6.8-0.5-10.2-0.8 M584.1,475.7l-0.3-12.4
		 M583.8,463.3c3.4-1.1,8.1,0.6,11-1.6 M594.8,461.7v-18.6 M594.8,443.1c6.5-5,14.5-8.2,22-12.1 M616.8,431l0.3,30.4"/>
	<path fill-rule="evenodd" clip-rule="evenodd" fill="#FFFFFF" d="M577.3,463.6v107.3c-7.7,0.6-14.9,0.2-22.5,0.3l-0.6-49.6v-58
		l1.1-0.8h21.2L577.3,463.6L577.3,463.6z"/>
	<path fill="none" stroke="#FFFFFF" stroke-width="0.216" stroke-linecap="square" stroke-miterlimit="2.6131" d="M577.3,463.6
		v107.3 M577.3,570.9c-7.7,0.6-14.9,0.2-22.5,0.3 M554.9,571.2l-0.6-49.6v-58l1.1-0.8h21.2l0.8,0.8"/>
	<path fill-rule="evenodd" clip-rule="evenodd" fill="#FFFFFF" d="M538.7,464.4l-0.5,93.9c-2.3,9.1-12,13.1-20,14.9
		c-16,0.6-36.4,3.9-45.1-11.8l-1.6-4.2l-0.6-40.9v-51.5c6.6-1,14.2-0.6,22-0.8l0.7,0.8l0.5,86.8c0,2.7,1,5.2,3.4,6.8
		c4.8,1.9,11.5,1.3,16.3-0.8l2.3-3.4v-90.2c6.6-0.6,14.7-0.3,22-0.3L538.7,464.4L538.7,464.4z"/>
	<path fill="none" stroke="#FFFFFF" stroke-width="0.216" stroke-linecap="square" stroke-miterlimit="2.6131" d="M538.7,464.4
		l-0.5,93.9 M538.2,558.3c-2.3,9.1-12,13.1-20,14.9c-16,0.6-36.4,3.9-45.1-11.8 M473.1,561.3l-1.6-4.2l-0.6-40.9v-51.5 M470.9,464.7
		c6.6-1,14.2-0.6,22-0.8 M492.8,463.9l0.7,0.8l0.5,86.8 M494,551.5c0,2.7,1,5.2,3.4,6.8c4.8,1.9,11.5,1.3,16.3-0.8 M513.7,557.5
		l2.3-3.4v-90.2 M515.9,463.9c6.6-0.6,14.7-0.3,22-0.3 M537.9,463.6l0.8,0.8"/>
	<path fill-rule="evenodd" clip-rule="evenodd" fill="#FFFFFF" d="M372.6,466.2V572l-22,0.3L350,465c6.3-1.5,14.7-0.5,22-0.6
		L372.6,466.2L372.6,466.2z"/>
	<path fill="none" stroke="#FFFFFF" stroke-width="0.216" stroke-linecap="square" stroke-miterlimit="2.6131" d="M372.6,466.2V572
		l-22,0.3L350,465 M350,465c6.3-1.5,14.7-0.5,22-0.6 M372,464.4l0.7,1.8"/>
	<path fill-rule="evenodd" clip-rule="evenodd" fill="#FFFFFF" d="M454.2,472.3c3.4,9.5,1.1,22,1.8,32.2l1.1,100.8l-0.6,1.5
		c-7.4,3.4-14.1,8.4-21.6,11.5c-1.5-13.9-0.2-30.1-1.1-44.8c-2.9-1.5-5.8,1-9,0.8c-12.4,0.5-27.6,2.3-34.9-9.9l-2-5.3l-0.8-73.8
		c0.3-7.1,3.2-13.4,8.7-17.9c13.9-7.3,34.1-7.1,49.3-2.9C448.4,466.2,452.6,468.3,454.2,472.3L454.2,472.3z M432.3,475.7
		c-6.1,0.3-12.6-0.6-18.3,0.8c-1.8,1-3.4,2.9-3.7,4.8l0.3,71.3c0,2.4,1,4.8,3.4,6.1c6,0.8,14.4,2.1,18.6-2.7l0.3-69.6L432.3,475.7
		L432.3,475.7z"/>
	<path fill="none" stroke="#FFFFFF" stroke-width="0.216" stroke-linecap="square" stroke-miterlimit="2.6131" d="M454.2,472.3
		c3.4,9.5,1.1,22,1.8,32.2 M456,504.5l1.1,100.8l-0.6,1.5 M456.5,606.7c-7.4,3.4-14.1,8.4-21.6,11.5c-1.5-13.9-0.2-30.1-1.1-44.8
		c-2.9-1.5-5.8,1-9,0.8c-12.4,0.5-27.6,2.3-34.9-9.9 M389.8,564.4l-2-5.3l-0.8-73.8 M387,485.2c0.3-7.1,3.2-13.4,8.7-17.9
		c13.9-7.3,34.1-7.1,49.3-2.9c3.4,1.8,7.6,3.9,9.2,7.9 M432.3,475.7c-6.1,0.3-12.6-0.6-18.3,0.8c-1.8,1-3.4,2.9-3.7,4.8
		 M410.3,481.4l0.3,71.3 M410.6,552.6c0,2.4,1,4.8,3.4,6.1c6,0.8,14.4,2.1,18.6-2.7 M432.6,556l0.3-69.6l-0.6-10.7"/>
	<path fill-rule="evenodd" clip-rule="evenodd" fill="#FFFFFF" d="M694.3,470c1.5,2.7,2.1,5.8,2.4,9v90.6l-0.8,0.6l-50.1-0.3
		c-6-0.5-11.3-5.8-12.8-11.3c-0.5-16.5-6-37,9-47.8l29.1-12.1l2.7-3.1l-0.3-20.4c-1.1-1.8-2.4-3.1-4.2-3.9c-5-0.5-11.5-1.5-14.1,3.9
		c-1.6,5.6,0.2,13.6-1.4,18.4h-20.8c-0.6-4.2-0.6-10.2,0-15c0.7-6,3.7-11.8,9-15.2c13.6-6.5,34.6-6.1,47.7,1.1L694.3,470L694.3,470z
		 M674,513.5l-0.8-1.1c-6,3.7-14.7,3.6-17.8,11c0.3,10.7-0.7,20.2,0.8,30.4c4.2,4.5,11.5,2.4,17.5,2.3L674,513.5L674,513.5z"/>
	<path fill="none" stroke="#FFFFFF" stroke-width="0.216" stroke-linecap="square" stroke-miterlimit="2.6131" d="M694.3,470
		c1.5,2.7,2.1,5.8,2.4,9 M696.7,479.1v90.6l-0.8,0.6l-50.1-0.3 M645.8,570.1c-6-0.5-11.3-5.8-12.8-11.3c-0.5-16.5-6-37,9-47.8
		 M642.1,510.9l29.1-12.1l2.7-3.1l-0.3-20.4 M673.6,475.4c-1.1-1.8-2.4-3.1-4.2-3.9c-5-0.5-11.5-1.5-14.1,3.9
		c-1.6,5.6,0.2,13.6-1.4,18.4 M653.9,493.8h-20.8 M633.1,493.8c-0.6-4.2-0.6-10.2,0-15c0.7-6,3.7-11.8,9-15.2
		c13.6-6.5,34.6-6.1,47.7,1.1 M689.8,464.7l4.5,5.3 M674,513.5l-0.8-1.1 M673.2,512.4c-6,3.7-14.7,3.6-17.8,11
		c0.3,10.7-0.7,20.2,0.8,30.4c4.2,4.5,11.5,2.4,17.5,2.3 M673.6,556l0.3-42.5"/>
	<path fill-rule="evenodd" clip-rule="evenodd" fill="#FFFFFF" d="M674,591.7c0-6.2,5-11.4,11.1-11.4c6.1,0,11.1,5.1,11.1,11.4
		c0,6.3-5,11.4-11.1,11.4C679,603.1,674,598,674,591.7L674,591.7z M694.2,591.7c0-5.1-4-9.2-9-9.2c-5,0-9,4.1-9,9.2
		c0,5.1,4,9.2,9,9.2C690.2,601,694.2,596.9,694.2,591.7L694.2,591.7z M679.7,584.9h7.7c1.4,0.1,2.8,0.7,3.2,2.2
		c0.2,0.6,0.5,1.6,0.1,2.8c-0.3,1.2-0.9,1.6-1.9,2.2c0.5,0.3,1.4,0.7,1.5,1.9c0.1,0.6,0.1,2.4,0.1,3.1c0,0.8,0.2,1,0.5,1.1v0.5H688
		c-0.2-0.4-0.3-0.8-0.4-1.3c0-0.7,0-1.8,0-2.8c0-0.9-0.7-1.4-1.7-1.4h-3.3v5.5h-2.9V584.9l2.9,6h3.9c0.7,0,1.9-0.7,1.7-2.1
		c0-1-0.5-1.6-1.7-1.6h-3.8v3.6L679.7,584.9L679.7,584.9z"/>
</g>
</svg>
