<?xml version="1.0" encoding="utf-8"?>
<!-- Generator: Adobe Illustrator 18.1.0, SVG Export Plug-In . SVG Version: 6.00 Build 0)  -->
<!DOCTYPE svg PUBLIC "-//W3C//DTD SVG 1.1//EN" "http://www.w3.org/Graphics/SVG/1.1/DTD/svg11.dtd">
<svg version="1.1" id="Layer_1" xmlns="http://www.w3.org/2000/svg" xmlns:xlink="http://www.w3.org/1999/xlink" x="0px" y="0px"
	 viewBox="0 0 870.6 870.5" enable-background="new 0 0 870.6 870.5" xml:space="preserve">
<path d="M831.6,26.9c-26.6,12.4-52.4,27.5-84,28.9c-17.5-2.8-22.1-22.5-31.2-34.4c-1.8,0.4-4.1-0.9-5,1.4
	c11,59.2-31.2,101.9-55.1,149.7c-22.5,33-42.2,68.8-71.1,98.7c-26.6,3.7-50.5,11.9-69.8,33.5c-7.8-2.7-11.9-10.5-12.8-18.4
	c16.1-10.6,31.2-23.4,45-38.5c19.3-26.2,45.9-49.6,44.1-84c0.5-13.8-17.4-16.5-13.8-31.2c9.7-11,24.8-12.9,40-12.9
	c-9.6-7.3-20.7-11.9-31.2-17.4c2.3-11,10.6-19.7,13.7-30.3L575.4,82c-17,4.6-6.4-20.2-17-26.2c-1.8,10.1-4.2,20.2-11,28
	c-3.2,0.5-5.5-0.9-7.3-3.2c1.8-23.9,2.3-48.7-8.8-69.8c-10.1-17.5-31.7-9.2-41.7,4.1c-14.7-3.2-29.4,0-40,9.6
	c-15.1,4.1-23,38.1-39,20.6c-35.8-19.3-78.5-3.2-109.7,16.1c-14.2-12.9-31.7-19.3-51.4-19.3c-6.9-9.6-9.7-21.1-9.7-33.5
	c-7.3,6.5-10.1,15.2-15.1,22.5C214.1,24.2,210,15,200.8,7.6c0.4,11.9,3.7,23,5.5,34.4l-2.3,1.8c-7.3-1.8-14.3-4.6-22.5-4.1
	l12.8,17.4l-2.3,1.8c-32.6-6.4-78.5-16.1-107.4,4.6c-6.4,5.9-6.4,15.6-4.6,23.4c7.3,15.1,22.5,19.3,36.7,21.6
	c-4.6,4.1-12.9,5.1-19.3,7.8c-24.3,10.6-51.9,34.4-55.1,62.4c1.4,7.8,5.1,14.2,11,20.2c27.6,19.7,56.5-4.6,84-4.1
	c8.7,50.1,62,87.2,102.3,112.9c4.2,23,13.8,44.5,31.2,62.4c-9.7,14.7-18.8,35.8-8.7,51.9c5.1,3.2,11.5,7.4,18.4,4.1
	c11.5-4.1,12.4-16.5,16-25.7c8.7,4.6,12.9,14.7,16,23.4c2.8,11.5,4.7,27.1-5.5,35.8c-15.1,15.1-42.7,8.3-59.2,0.9
	c-34.4-18.3-87.2-21.1-120.3,2.3c-11,5.1-10.6,18.8-8.7,28.9c-17,8.7-39.1,11-48.7,31.2c-4.6,8.7,2.8,16.5,8.7,21.6
	c-14.7,8.7-30.7,15.6-43.1,30.3c-7.3,10.1-11.9,25.3-5.1,37.6c5.1,11.9,17.9,16.5,28.9,19.3c18.8,6,38.5-8.3,54.6,4.1
	c-11,15.6-27.1,32.2-19.3,52.8c29.8,49.6,79.4,88.6,124,124.9c39,20.7,71.2,71.1,120.7,52.8c19.7-22,48.2-23.9,77.1-23.4
	c3.7-1.8,4.6-3.2,5.5-6.4c-17.4-12.9-41.8-15.1-63.4-20.7c-21.6-4.1-39.5,7.4-60.6,7.4c-56.5-35.4-96-93.2-129.9-146.5
	c-0.5-5.1,0.5-9.6,3.2-13.8c5.5-5.5,9.2-14.2,17-17.5c16.5,20.2,40.4,11.9,62.4,18.4c20.2,17.4,41.8,35.4,70.2,29.4
	c22-3.6,39.5-24.3,44.1-45.4c4.6-24.8-3.2-48.2-25.7-62.4c-0.9-6.4,0.9-11.9,5-16.1c6.4-7.8,16.5,1.4,23-3.2
	c-0.9-20.7-18.8-39.5-35.8-47.3c11.5-7.3,27.1-3.2,36.7-14.2c8.3-11.9,6-30.8,3.2-44.1c0-10.1-14.2-18.3-6.4-28
	c15.6,0.5,32.1,8.7,47.3,0.9c6.9-5.5,10.1-14.7,12-23.4l-24.8-4.6c-8.8-7.4-15.2-16.1-19.3-25.7c4.1-5.5,11.9-2.3,18.4-3.2
	c9.2-10.6,39.5,0,33-20.2c9.7-10.6-3.6-19.7-5-29.4c-13.8-28.4,29.8-32.1,23.4-57.8c-2.8-7.3-10.1-7.8-16.1-9.6
	c-27.5,2.3-55.6,3.7-84,3.2c-43.2,17.9-34.4,75.3-32.1,114.8c-1.8,3.7-3.2,9.6-8.7,8.7c-7.3-2.8-6.9-10.6-9.6-16.1
	c-25.7-18.4-32.6-46.4-39-74.4c-39.9-16.5-89.5-53.7-93.6-100.1c2.7-4.6,7.3-7.8,11.9-8.7c56.9,6.9,114.3,13.8,175.4,11
	c70.7,0,135-14.7,199.2-28.9c6.9,3.7,12.4,11.5,8.7,19.3c-10.1,28-30.8,54.6-56.9,73c-12.4,12.8-40.8,11.5-37.6,34.4
	c3.6,2.8,9.2,0,12.8,2.3c-0.4,5.9-7.3,5.5-11,8.7l13.3,4.1c-2.3,8.3-12,6-17.4,11c7.4,30.3-11.5,52.8-17.4,79.4
	c-5.5,23.4-29.9,41.3-21.1,68l52.8,71.2c26.6,51,3.2,110.6-23.8,153.8c-8.3,43.6,16.5,79.4,36.7,114.3
	c10.6,13.3,24.8,35.8,44.1,32.1c6.4-3.7,11-11,7.3-18.4c-22-20.2-45.4-42.2-57.8-68c-13.8-22.5-21.1-53.2-2.3-76.2
	c6-4.6,13.8-4.6,21.6-4.6c15.1,11.4,37.2,19.7,56,10.1c27.1-11.9,27.5-41.8,25.7-67c11.4,3.2,27.5,8.3,38.5,0
	c32.6-21.1,28.4-66.6,20.7-99.2c10.6-3.2,23-1.8,32.1-7.4c29.8-15.1,37.1-49.1,35.8-79.9c6-39-34-59.7-37.6-94.6
	c-8.3-11.9-22.1-15.1-32.6-24.8c-5.5-18.4,7.8-34.9,12.9-51.4l74.4-145.5l12.8-17.5c34.9-13.8,66.5-34.4,95-63.4v-3.2
	C840.3,24.7,834.4,27.9,831.6,26.9z M412.9,350.1c1.8,0,3.2,1.8,4.1,3.2c1.4,3.2-0.9,6.4-4.1,7.3c-2.3,0.5-4.1-0.5-5.5-2.3
	C407,354.7,409.2,351,412.9,350.1z M385.8,274.4c4.6,1.8,8.7,4.6,12,8.7c-0.5,3.2-2.7,7.8-6.4,4.1c-8.7-6.9-21.1-8.7-32.1-6.5
	c-3.6-1.4-9.2,8.3-9.7,0C359.7,273.9,373,271.6,385.8,274.4z M351.4,301.4c2.3-5.5,5.9,1.8,8.7-2.3c7.8-5,22.5-7.8,29.4,1.4
	c5,5,8.3,14.2,5,22.5c-1.8,0.9-0.9,3.7-3.2,3.2c-2.3-4.6,0.5-13.3-1.8-19.3c-3.7-4.6-7.8-6.4-13.3-5.5c-4.1,2.7-0.5,9.2-3.2,12.9
	c-5,6.9-13.8,9.2-21.6,6.4c-3.7-1.8-8.3-3.7-10.5-7.3C341.8,305.6,356.5,311.6,351.4,301.4z M128.7,516.8
	c32.6-11.5,65.7,0.9,91.4,18.3c28.9,5.5,61.1-16.5,88.6,2.3c7.8,3.7,10.1,11.5,11.5,19.3c0.4,8.7-3.2,17.4-11.5,20.2
	c-25.7,3.2-48.2-9.6-74.4-5.1c-38.6,5.1-63.8-27.5-101.4-28c-6-2.7-15.1,0.9-17-7.8C113.6,526.9,122.3,520.4,128.7,516.8z
	 M328.9,623.3c3.7,9.6,2.7,22-3.2,30.3c-35.4,31.6-57.4-25.7-92.7-23.9c-32.6,1.4-61.1-7.3-85.9-25.7c-23.4-11-48.7,2.3-72.1,0.9
	c-4.6-3.7-10.6-10.1-6.4-17c17.4-24.8,48.2-33.5,78.5-25.7c36.3,12.4,67,41.3,110.7,33.1C285.7,587.9,311.9,601.2,328.9,623.3z
	 M321.6,503.9c1.8,7.8-2.7,14.7-8.8,18.4c-19.3,0-39.5-10.1-60.1-3.2c-37.6,5.9-63.8-23-101.5-20.7c-3.6-4.1-7.3-9.7-4.1-15.1
	c18.8-19.3,50.1-17,75.3-10.6c14.7,7.8,31.2,12.4,49.6,11.9C290.4,486,311.9,487.8,321.6,503.9z M284.8,383.2
	c1.8,7.3,1.8,16.5-2.3,22.5c-1.8,2.7-4.1,4.1-7.4,3.7c-8.2-8.3-3.2-21.6,0-30.3C278,373.5,283,380.4,284.8,383.2z M103,86.1
	c-2.7-2.8-4.1-6-3.2-9.6c28-20.2,65.2-4.6,93.7,3.2c-3.2,9.7,0,33.5-19.7,22.5C149.8,98.6,126,93,103,86.1z M88.8,183
	c-6.4,0.9-13.8,3.7-20.2,0.9c-7.4-3.7-4.6-11.9-2.3-18.4c28-39,73.9-49.1,120.7-45l1.8,2.3c2.7,13.8,3.7,28.9,7.8,40.8
	C158.1,161.9,121.4,168.3,88.8,183z M504.3,18.2c6.4-7.3,16.5-0.5,18.4,6.4c-0.4,17,2.8,39.5-7.3,52.8c-15.6,3.2-30.8,6.4-44.1,14.2
	v-3.2C485,66,492.8,41.6,504.3,18.2z M408.8,101.3c17.5-23.9,32.6-51.4,57.9-68.9c6-1.8,9.6,2.3,11.9,6.4
	c-6,26.2-21.1,49.1-35.4,72.1c-11.5,0.9-22.5-6-34.4-6.4V101.3z M311.9,163.7l-5.5,9.7c-29.4-5.5-81.3,15.6-88.1-27.1
	c-10.1-18.4-13.8-48.2-1.4-66.6c12.4-14.2,29.8-21.1,47.2-15.1c13.8,5,26.2,16.1,35.8,28C311.9,113.2,327.1,141.2,311.9,163.7z
	 M323.4,85.2c17.5-28.9,57.4-35.8,84-18.3v5c-17,13.3-22.5,41.3-47.3,41.3l-18.3,11.5C334.4,113.2,331.2,97.6,323.4,85.2z
	 M400.1,173.4c-20.2,5.9-44.5,2.3-66.6,3.2c-4.1-5.5,1.8-11.9,3.2-18.4c17-30.8,53.7-40.4,85.8-28.9
	C413.4,143.1,406,157.7,400.1,173.4z M435.4,172.5c-5-21.6,10.6-42.2,28-55.1c25.7-14.7,73-25.7,91.8,7.4c2.7,5.5,3.6,11.9,3.2,18.3
	C520.8,161,477.7,165.6,435.4,172.5z M557,645.7c-4.6,6.9-12.4,11-20.2,11.9c-8.3,1.8-14.7-1.8-20.7-6.4
	c-20.6-26.6,12.4-53.3,1.4-82.6c-16.5-14.7-8.3-39.5-19.7-56c-10.1-10.5-23.4-18.8-28-32.6c-4.6-17,2.3-33.1,15.1-43.2
	c6-2.3,12.9-4.1,19.3-1.8c6,2.3,11.9,8.3,14.3,13.8c7.3,11.5-1,30.3,13.7,37.6c10.6,6.9,16.5,17.5,19.8,28c6,21.6-11,34.4-6.4,54.2
	C558,590.7,575,620.5,557,645.7z M621.8,569.6c-3.7,8.3-8.7,18.8-18.4,21.6c-7.3,0-15.1,0-20.2-4.6c-23.4-30.7,14.7-71.1-16.5-98.7
	c-8.2-22.9,2.7-59.7-29.8-67c-13.8-5.5-34.4,0-40.9-18.4c-1.4-8.2-2.7-15.6,0.9-23.4c5.1-7.8,12.8-13.3,21.6-14.3
	c17.9,0.4,34,10.1,44.1,24.8c2.3,24.3,32.1,8.3,37.6,31.2c3.2,18.4-11,37.2,0,55.1C635.1,494.7,624.1,539.7,621.8,569.6z
	 M658.5,363.9c5.5,19.7-5.1,45.9,21.6,52.8c13.8,20.2,2.7,47.3-7.8,65.6c-6,8.7-17,10.1-26.6,7.4c-11-9.6-10.6-25.7-8.8-39.5
	c2.3-9.2,9.7-20.6,3.2-29.4c-5-6.4-16.5-3.2-17.4-13.8c1.4-6.9-5.1-12.9-10.6-15.1c-30.3,2.3-30.8-33.1-47.3-47.3
	c-16.1-1.4-34,21.6-46.4,0.9c-2.8-16.1,12.4-30.8,25.7-38.5c20.2-12.4,53.7-10.6,65.7,13.8c6.9,8.7,3.7,23.4,15.1,28
	C639.3,346,651.2,351.9,658.5,363.9z"/>
<path d="M456.1,301.4c-10.6,2.7-6.4,17.5-12,24.8l6.4,0.9C457.5,321.7,455.6,310.6,456.1,301.4z"/>
<path d="M432.2,383.2c-10.6-4.6-23.4-1.4-32.1,5.5c5.5,7.4,15.1,8.3,22.5,7.4C426.2,392.8,435.4,387.8,432.2,383.2z"
	/>
</svg>
