<?xml version="1.0" encoding="utf-8"?>
<!-- Generator: Adobe Illustrator 18.1.0, SVG Export Plug-In . SVG Version: 6.00 Build 0)  -->
<!DOCTYPE svg PUBLIC "-//W3C//DTD SVG 1.1//EN" "http://www.w3.org/Graphics/SVG/1.1/DTD/svg11.dtd">
<svg version="1.1" id="Layer_1" xmlns="http://www.w3.org/2000/svg" xmlns:xlink="http://www.w3.org/1999/xlink" x="0px" y="0px"
	 viewBox="0 0 870.6 870.5" enable-background="new 0 0 870.6 870.5" xml:space="preserve">
<g>
	<path fill="#EB2230" d="M428.3,234l-16.4,55.1c-59.1-121-129.7-184.4-215.1-184.4c-92.5,0-137.7,61.7-151,81.3
		c23.7-59.6,86.4-111.9,169.8-111.9C329.9,74.1,394.5,164.3,428.3,234"/>
	<path fill="#EB2230" d="M0,357.9c0.7,201.4,59.3,298.2,146.7,298.2c40.5,0,69.6-25.5,69.6-66.9c0-35.5-15.4-63.4-21.7-74.8
		c2.4,11.5,4.5,24.8,4.5,39.6c0,34.7-23.4,45.9-42.5,45.9c-58.2,0-116.4-113.1-132.8-242C16.5,357.9-0.1,357.9,0,357.9"/>
	<path fill="#EB2230" d="M655.6,74.1c83.4,0,145.9,52.3,169.8,111.9c-13.4-19.6-58.6-81.3-150.9-81.3c-85.4,0-156,63.4-215.1,184.4
		L442.9,234C476.8,164.3,541.4,74.1,655.6,74.1"/>
	<path fill="#EB2230" d="M847.4,357.9c-16.4,128.9-74.6,242-132.8,242c-19.2,0-42.6-11.3-42.6-45.9c0-14.8,2.1-28,4.4-39.6
		c-6.2,11.4-21.5,39.3-21.5,74.8c0,41.4,29,66.9,69.6,66.9c87.3,0,146.1-96.7,146.8-298.2C871.4,357.9,854.8,357.9,847.4,357.9"/>
	<path fill="#EB2230" d="M435.6,796.4c26.9,0,50.9,0,57.5-33.5c2.5-12.4,14.1-70.8,14.1-70.8s34.2-58.6,39.1-66.9
		c3.3-6,7.7-15.9,9.3-23.3c1.9-7.9,28-118.3,28-118.3s24.5-10.8,44.8-19.9c41-18.3,43.3-61.3,28.7-112.8c8-18.6,21.2-35.8,37.5-35.8
		c23.8,0,34.1,19.9,34.1,51.7c0,68.7-24.5,106.5-24.5,142.7c0,14.8,6.2,23.8,18.1,23.8c39.1,0,91.1-86.5,109.7-188.5h22.2
		c5-72.4-33.3-160-125.6-160c-74.9,0-147.8,59.4-191.4,197.1l28.2,19.6l-13.5,67.6l-52.8,22l-9.6,66.5l25.7-31.6l27.6-11.5
		l-8.5,42.9l-47.6,19.7L470,692l11.6,36.6l-46,18.2l-46-18.2l11.6-36.6l-16.7-114.9l-47.6-19.7l-8.7-42.9l27.6,11.5l25.9,31.6
		l-9.7-66.5l-52.8-22l-13.5-67.6l28.3-19.6c-43.6-137.6-116.7-197.1-191.4-197.1c-92.3,0-130.6,87.6-125.6,160h22.2
		c18.6,102,70.5,188.5,109.5,188.5c12.1,0,18.3-9,18.3-23.8c0-36.2-24.6-74-24.6-142.7c0-31.8,10.3-51.7,34.2-51.7
		c16.2,0,29.5,17.2,37.4,35.8c-14.5,51.6-12.2,94.5,28.8,112.8c20.3,9,44.8,19.9,44.8,19.9s26,110.4,27.9,118.3
		c1.8,7.3,6.2,17.2,9.5,23.3c4.9,8.3,39,66.9,39,66.9s11.6,58.5,14.2,70.8C384.7,796.4,408.7,796.4,435.6,796.4"/>
	<path fill="#FFFFFF" d="M236.5,351.2l31.8,50.2l11.8,51.8c0,0-11.5-5.1-21.3-9.3C229.7,431.5,226.7,397.1,236.5,351.2"/>
	<path fill="#FFFFFF" d="M612.4,443.9c-9.9,4.2-21.4,9.3-21.4,9.3l11.8-51.8l31.9-50.2C644.5,397.1,641.5,431.5,612.4,443.9"/>
</g>
</svg>
