<?xml version="1.0" encoding="utf-8"?>
<!-- Generator: Adobe Illustrator 18.1.0, SVG Export Plug-In . SVG Version: 6.00 Build 0)  -->
<!DOCTYPE svg PUBLIC "-//W3C//DTD SVG 1.1//EN" "http://www.w3.org/Graphics/SVG/1.1/DTD/svg11.dtd">
<svg version="1.1" id="Layer_1" xmlns="http://www.w3.org/2000/svg" xmlns:xlink="http://www.w3.org/1999/xlink" x="0px" y="0px"
	 viewBox="0 0 870.6 870.5" enable-background="new 0 0 870.6 870.5" xml:space="preserve">
<g>
	<g>
		<path d="M0,154.7v561.2h424.5V154.7H0z M353.6,434.4c0,98.3-56.4,180.3-132.6,204.1c-14.5,4.1-29.1,6.4-44.2,6.4H88.4v-421h88.4
			c15.1,0,29.7,2.3,44.2,7C297.2,254.1,353.6,336.7,353.6,434.4z"/>
		<path d="M446,154.7v561.2h424.5V154.7H446z M782.2,646.1h-88.4c-15.1,0-30.2-1.7-44.2-6.4C573.4,616.4,517,533.8,517,436.1
			c0-98.3,56.4-180.9,132.6-204.1c14-4.1,29.1-6.4,44.2-6.4h88.4V646.1z"/>
	</g>
</g>
</svg>
