<?xml version="1.0" encoding="utf-8"?>
<!-- Generator: Adobe Illustrator 18.0.0, SVG Export Plug-In . SVG Version: 6.00 Build 0)  -->
<!DOCTYPE svg PUBLIC "-//W3C//DTD SVG 1.1//EN" "http://www.w3.org/Graphics/SVG/1.1/DTD/svg11.dtd">
<svg version="1.1" id="Layer_1" xmlns="http://www.w3.org/2000/svg" xmlns:xlink="http://www.w3.org/1999/xlink" x="0px" y="0px"
	 viewBox="0 0 870.6 870.5" enable-background="new 0 0 870.6 870.5" xml:space="preserve">
<path fill="#E2B128" d="M0,492.5c0,0,103.4,39.7,225.2,106.2C422.2,709.2,585,707.8,677.1,577.5c60.9-84.9,109.1-184.2,191.2-216.8
	c0,0-12.8-9.9-19.8-18.5c-16.9-16.9-41.1-35.4-66.6-36.8c-79.4-7.1-143.1,97.7-165.7,84.9c-31.2-16.9,65.1-99.1-38.3-177.1
	C459,122.7,209.6,352.1,60.9,319.5c0,0,68,82.2,229.4,94.9c80.8,5.7,79.4,24.1,79.4,31.2C371.1,526.5,0,492.5,0,492.5L0,492.5z"/>
</svg>
