<?xml version="1.0" encoding="utf-8"?>
<!-- Generator: Adobe Illustrator 18.1.0, SVG Export Plug-In . SVG Version: 6.00 Build 0)  -->
<!DOCTYPE svg PUBLIC "-//W3C//DTD SVG 1.1//EN" "http://www.w3.org/Graphics/SVG/1.1/DTD/svg11.dtd">
<svg version="1.1" id="Layer_1" xmlns="http://www.w3.org/2000/svg" xmlns:xlink="http://www.w3.org/1999/xlink" x="0px" y="0px"
	 viewBox="0 0 870.6 870.5" enable-background="new 0 0 870.6 870.5" xml:space="preserve">
<g>
	<path fill-rule="evenodd" clip-rule="evenodd" fill="#ED1C24" d="M436,700.2c80,0.2,204.3-23.6,297.3-82.4
		c92.6-58.5,138.5-90.4,137.2-234.5c0-110.8-23-134.3-110.3-174.9c-77.6-36.1-182.5-64.9-324.2-64.9c-141.7,0-246.6,28.9-324.2,64.9
		C24.4,248.9,1.4,272.4,1.4,383.3c-1.3,144.1,44.6,176,137.2,234.5C231.7,676.5,356,700.4,436,700.2L436,700.2z"/>
	<path fill-rule="evenodd" clip-rule="evenodd" fill="#FFFFFF" d="M436,678.5c95.3,0,153.5-47.3,153.5-107.9
		c53.5-6.8,113.1-25.8,174.9-63.8c46.7-28.7,59.8-59,59.8-97.1v-47.1c0-47.1-29.3-60.9-59.8-71.7c-63.1-22.2-178.8-34-328.3-36.3
		c-149.5,2.3-265.3,14.1-328.3,36.3c-30.5,10.8-59.8,24.6-59.8,71.7v47.1c0,38,13.1,68.3,59.8,97.1c61.8,38,121.4,57,174.9,63.8
		C282.5,631.2,340.6,678.5,436,678.5L436,678.5z"/>
	<path fill-rule="evenodd" clip-rule="evenodd" fill="#ED1C24" d="M436,483.8c78.8,0,143.1,41.4,143.1,92.2
		c0,50.8-64.3,92.2-143.1,92.2c-78.8,0-143.1-41.4-143.1-92.2C292.8,525.2,357.1,483.8,436,483.8L436,483.8z M397.6,529.3
		c0.3,8.8-2.3,14.6-7,18.4c-2.8,2.2-2.8,4.4,0,6.6c4.9,3.1,5.3,9.8,6,16.4c-1.4,8.2,2,12.7,10.2,13.3c6,0.9,11.8,3.7,10.6,10.3
		c-3.2,17.7-30.7,17.4-43.8,32.2c-4.5,4.9-6.8,14.7,1.6,14.7h125.3c8.7,0,5.7-11.2,1.2-15.9c-13.7-14.8-44-24.4-47.8-38.8
		c-1.2-6.6,0.3-10.7,7.5-9.7c6.2,1.7,11.2,0.1,14.3-6.1c17-5.1,18-14.3,11.8-25.5c0.1-8.5-3.2-14.8-8.4-19.8
		c-2.7-9.8-8.6-14.9-16.7-16.8c-5.6-7.3-12.3-10.7-20.2-10.4c-11.5-2-22.4-3.3-29.4,0c-4.5,4.3-9,8.6-13.5,13
		C398.2,515.8,398.2,523.2,397.6,529.3L397.6,529.3z"/>
	<path fill-rule="evenodd" clip-rule="evenodd" fill="#2E3192" d="M553.9,457.8V325.7H579v69l32.6-39.5h29.6l-35.3,40.4l39.4,62.1
		h-28.1l-28.6-45.5l-9.6,10.5v35H553.9L553.9,457.8z M528.8,430.6c0,10.2,1.7,12,14.9,11v17.2l-17.9-0.1
		c-17.7-0.1-22.8-8.3-22.8-23.5v-62h-12.5v-18.7h12.5v-20.1h25.9v20.1h15.7v18.7h-15.7V430.6L528.8,430.6z M423.6,394.4h35
		c0-10.3,0.7-26.2-16.7-26.2C424.6,368.1,423.6,384.4,423.6,394.4L423.6,394.4z M459.5,425.8h24.3c0.1,23.9-18.2,36.3-44.1,36.3
		c-32.7,0-43.1-26.9-43.1-57.1c0-31.2,14.1-54.4,44.6-54.4c38.3,0,45,31.6,45,60.8h-62.5c-1.2,9.6-0.8,32.6,18.5,32.6
		C458.8,444.1,459.5,435.1,459.5,425.8L459.5,425.8z M665.7,394.4h35c0-10.3,0.7-26.2-16.7-26.2
		C666.7,368.1,665.7,384.4,665.7,394.4L665.7,394.4z M701.5,425.8h24.3c0.1,23.9-18.2,36.3-44.1,36.3c-32.7,0-43.1-26.9-43.1-57.1
		c0-31.2,14.1-54.4,44.6-54.4c38.3,0,45,31.6,45,60.8h-62.5c-1.2,9.6-0.8,32.6,18.5,32.6C700.8,444.1,701.5,435.1,701.5,425.8
		L701.5,425.8z M313,391.8c0,15.9-2.2,50.3,21.8,50.3c24.5,0,21.9-34.8,21.9-50.3c0-15.8-0.1-49.7-22-49.7
		C313.9,342,313,375.9,313,391.8L313,391.8z M283.5,391.8c0-35,9.5-69.2,50.8-69.2c41.9,0,52,35.3,52,69.2c0,38-7,69.2-54.5,69.2
		C291.3,461,283.5,427.9,283.5,391.8L283.5,391.8z M239.5,457.8v-21h23.3v21H239.5L239.5,457.8z M203.2,457.8V354.9h22.3V371
		c6.7-12.9,19.5-18.7,33.5-18.7v24.2c-11.9-1.4-29.5,5.5-29.5,19.5v61.9H203.2L203.2,457.8z M741.2,457.8V354.9h22.3V371
		c6.7-12.9,19.5-18.7,33.5-18.7v24.2c-11.9-1.4-29.5,5.5-29.5,19.5v61.9H741.2L741.2,457.8z M92.1,457.8V325.7h46.4
		c29.5,0,45.3,14.4,48.4,39.1c0.7,5.4,0.9,11.7,0.9,18.9c0,19,0.4,32.5-1.9,39.9c-9.9,31.5-26.9,34.2-56.4,34.2H92.1L92.1,457.8z
		 M120.9,438.3h9.8c6.3,0,13.3-0.4,15.8-1.2c2.4-0.8,4.5-2.1,6-4.1c2.5-3.4,4.3-8.2,5.5-14.2c1.1-6.1,1.7-15.6,1.7-28.5
		c0-13-0.6-22.4-1.9-28.1c-1.3-5.8-3.5-10.1-6.6-13c-1.6-1.5-3.6-2.5-6.3-3.1c-2.6-0.6-9.3-0.9-14.6-0.9h-9.4V438.3L120.9,438.3z"/>
</g>
</svg>
