<?xml version="1.0" encoding="utf-8"?>
<!-- Generator: Adobe Illustrator 18.1.0, SVG Export Plug-In . SVG Version: 6.00 Build 0)  -->
<!DOCTYPE svg PUBLIC "-//W3C//DTD SVG 1.1//EN" "http://www.w3.org/Graphics/SVG/1.1/DTD/svg11.dtd">
<svg version="1.1" id="Layer_1" xmlns="http://www.w3.org/2000/svg" xmlns:xlink="http://www.w3.org/1999/xlink" x="0px" y="0px"
	 viewBox="0 0 870.6 870.5" enable-background="new 0 0 870.6 870.5" xml:space="preserve">
<g>
	<path fill="#807F83" d="M143.6,168.8C143.6,168.8,143.6,168.8,143.6,168.8h81.8c4.7,0,8.5-3.8,8.5-8.5c0,0-1-70.1-1-89.6v-0.2
		c0-16,3.4-30,9.2-41.7l2.8-5.3c-0.3,0.1-0.6,0.2-0.9,0.5L85,181.6c-0.3,0.3-0.5,0.6-0.6,0.9c3.3-1.6,7.8-3.8,8.4-4.1
		C106.7,172.2,123.5,168.8,143.6,168.8z M779.9,151.6c-6.5-34.8-27.2-51.9-45.9-58.7c-20.2-7.3-61.1-14.8-112.4-20.9
		c-41.3-4.9-89.9-4.5-119.3-3.6c-3.5-24.1-20.4-46.2-39.4-53.8C412.5-5.6,334.6-0.7,314.6,4.9c-15.9,4.4-33.5,13.5-43.3,27.6
		c-6.6,9.4-10.8,21.4-10.9,38.2c0,9.5,0.3,31.9,0.5,51.7c0.2,19.9,0.5,37.8,0.5,37.9c0,17.8-14.4,32.2-32.2,32.2h-81.8
		c-17.5,0-30.8,2.9-41,7.6C96.2,204.7,89,211,83.5,218.3c-10.9,14.7-12.8,32.8-12.8,51.2c0,0,0.1,15.1,3.8,44.3
		c3,22.6,27.5,180.5,50.8,228.5c9,18.7,15,26.5,32.8,34.7c39.5,16.9,129.8,35.7,172.1,41.1c42.2,5.4,68.7,16.8,84.5-16.3
		c0.1-0.1,3.2-8.2,7.4-20.2c13.7-41.6,15.6-78.4,15.6-105.1c0-2.7,4-2.8,4,0c0,18.8-3.6,85.5,46.7,103.4
		c19.9,7.1,61.1,13.3,103,18.3c37.9,4.4,65.4,19.3,65.4,116.4c0,59.1-12.4,67.2-77.3,67.2c-52.6,0-72.7,1.4-72.7-40.5
		c0-33.8,33.4-30.3,58.2-30.3c11.1,0,3-8.2,3-29.1c0-20.7,13-32.7,0.7-33c-85.6-2.4-136.1-0.1-136.1,107
		c0,97.2,37.2,115.3,158.8,115.3c95.3,0,128.9-3.1,168.3-125.2c7.8-24.1,26.6-97.7,38-221.2C805.1,446.9,791,211.1,779.9,151.6z
		 M613.8,412.2c-11.8-0.4-23.1,0.3-33.7,2c3-24,12.9-53.5,48-52.2c38.9,1.3,44.3,38.1,44.4,62.9C656.2,417.6,635.9,413,613.8,412.2z
		"/>
</g>
</svg>
