<?xml version="1.0" encoding="utf-8"?>
<!-- Generator: Adobe Illustrator 18.1.0, SVG Export Plug-In . SVG Version: 6.00 Build 0)  -->
<!DOCTYPE svg PUBLIC "-//W3C//DTD SVG 1.1//EN" "http://www.w3.org/Graphics/SVG/1.1/DTD/svg11.dtd">
<svg version="1.1" id="Layer_1" xmlns="http://www.w3.org/2000/svg" xmlns:xlink="http://www.w3.org/1999/xlink" x="0px" y="0px"
	 viewBox="0 0 870.6 870.5" enable-background="new 0 0 870.6 870.5" xml:space="preserve">
<g>
	<g>
		<path fill="#010101" d="M428.7,26.1c3.1,0.5,4.5-0.1,4.3-3.4c-0.1-1.4-0.7-2.6-1.4-3.9c-2.8-5.1-11.3-18.1-12.2-18.5
			c-0.8-0.4-1.3,6.2-3.4,9.7c-1.1,1.8-2.5,3.7-3,5.1c-0.2,0.6,0.2,1.6,0.7,2.4C415.6,20.7,424.2,25.4,428.7,26.1z"/>
		<path fill="#010101" d="M741.3,354.9c-1.5,1.2-5.8,13.2-9.6,21.3c-1,2.1-12.9,17.6-15.2,19.7c-4.3,4-7.9,6.9-10.2,1.8
			c-2.8-6.1-2.1-15.8-0.5-21.3c1.1-3.7,2.5-7.3,4.6-11c4.3-7.6,15.4-20.6,19.4-27.9c2.8-5,9-19.4,7.3-24.7c-1.1-3.3-2.9-2.9-5-0.4
			c-2.3,2.7-7.5,11.6-10.7,17.2c-2,3.3-4.4,6.8-6.6,8.9c-3.8,3.6-9.7,7.9-11,10.1c-0.2,0.5-0.4,0.9-0.7,1.4
			c-1.4,2.3-14.8,12.7-14.8,12.7s-0.7-8.3-0.6-13.8c0.2-12.5,9.3-33.3,17.2-42.4c6.8-7.9,20.2-20.3,20.6-22.1
			c0.4-1.7-0.2-2.8-2.3-2.3c-1.9,0.5-3.9,1.8-5.9,3.2c-10.1,7-15.9,10.9-23,18.4c-8,8.5-14.8,18.3-18.8,28
			c-6.4,15.5-7.5,33.6-5,49.6c1.7,11.2,6.8,27.9,9.6,41.6c3.8,18.9,5.8,51.6,0.9,70.9c-3.7,14.9-11.7,27.5-23.4,37.8
			c-8.4,7.4-16.6,11-28.5,15.3c-1.6,0.6-3,1.1-5.3,1.4c-4.1,0.6-11,0.5-11,0.5s-6.1-20.4-10.3-29.9c-7.3-16.7-28.5-41.1-40.5-52.9
			c-4.7-4.7-18.8-16.6-23.4-19.8c-6.4-4.5-14.6-9.6-18.7-13.1c-14.2-12.1-33.5-40.4-41-58.7c-5.8-14.2-8-27.1-4.6-41.4
			c1-4.3,2.3-5.4,6.4-3.7c2.8,1.2,5.2,3.8,8.2,5.5c3.1,1.8,13.5,3.3,19.4,5.5c2.1,0.8,4,1.8,5.9,3.2c6.9,4.8,18.9,15.1,21.3,15.8
			c1.2,0.4,2.8,0.5,3.7-0.5c1.8-2-1.7-3.5-3.8-4.8c-1.6-1.1-3.6-3.4-4.9-5.6c-4.8-8.1-5-9.8-12.2-15.2c-0.8-0.6-1.7-1.2-2.7-1.6
			c-2.3-0.9-6.5-1-7.8-2.8c-0.5-0.7-0.2-1.2,0.6-1.5c2.9-1.2,12,1.9,13.8,3c4.9,2.8,12.2,10,14.4,10.5c1,0.2,1.7-0.1,2.1-1.6
			c0.5-2.4-0.8-4.2-2.1-5.7c-5.3-5.9-17.3-15.9-24.9-18.1c-5.2-1.4-6.3-0.8-11.9-3.9c-2.3-1.3-3.4-2.8-1.9-3.7
			c0.6-0.4,17.5,3.5,20,4.6c6.9,3,25.5,12.6,36.4,12.6c6.1,0,16.3-2.4,20.7-6.4c0.8-0.7,2.5-2.3,2.6-3.4c0.1-0.9-0.2-2.3-0.2-2.3
			s-1.1,0.1-2.1,0.2c-1.3,0.2-4.2,2.7-6.2,4.1c-1.1,0.8-8,2.3-10.3,2.3c-4.7,0-9.3-1.1-12.7-3.9c-4.6-3.8-10.6-11.8-15.1-15.1
			c-4.3-3.1-9.9-3.8-17.5-6.4c-4.6-1.6-11.3-4.6-15-6.9c-0.4-0.2-2.3-1.6-1.3-2.1c0.2-0.1,0.4-0.1,0.5-0.4c0-0.1,0-0.2,0-0.2
			s9.5,3.3,17,4.3c5.4,0.7,24.6-1.4,27.2-0.6c4.8,1.5,10.2,5.4,13.9,6.2c1.9,0.4,2.8-0.3,2.4-2.1c-0.1-0.5-0.2-0.5-0.5-0.8
			c-9.3-7.5-16.9-15.6-27.7-16.9c-2.1-0.3-9.8,0.1-9.8-1.8c0-0.7,2.9-1.7,5-2.1c4.8-1,9.7,0,14.6,2.7c6.6,3.7,6.6,4.9,12.1,6.2
			c4.8,1.1,13.3,2.6,17,0.2c1.3-0.8,0.9-3.3-0.1-4.1c-1.3-1-5-1.2-7.6-2.1c-1.1-0.4-2-0.8-2.9-1.4c-4.6-2.9-10.4-8.7-14.3-10.5
			c-9.5-4.4-15.8-1.3-22.2-9c-1.3-1.6-1.3-2.8-0.1-3.3c0.8-0.3,5.5,0.7,7.2,1.6c3.6,1.9,11.2,8.4,14.2,5c2.4-2.7-6.6-6.4-10.8-10.6
			c-1.1-1.1-2-3-1.2-3.8c0.3-0.2,0.8-0.2,1.4,0c4,1.2,12.1,6.6,17.6,8.5c2.5,0.8,4.4,1,6.4,2.1c2.6,1.5,10.8,13.1,15.7,10.8
			c2.7-1.3-1.3-4.1-2.9-5.6c-2.2-2.1-5.4-9-8-13.3c-4-6.5-8.2-9.4-14.1-11.8c-2.9-1.1-6.2-3-8-4.6c-3.9-3.5-6.9-9.5-10.1-11.9
			c-1.8-1.3-3.8-2-6.4-3.2c-4.2-1.9-5.2-2.6-4.4-4.2c0.9-1.8,2-1.9,5-1.8c0.5,0,0.6,0,1,0.2c7.7,2.4,21.7,6.2,23,7.2
			c2.7,2,4.6,4.7,7.3,7.1c6.8,6,14.9,8.9,23,8.2c3.2-0.3,7.4-0.8,6.9-3.2c-0.2-1-1.2-2-2.4-2.7c-3.2-2.1-11.3-3.3-15.4-5.7
			c-5.4-3.2-5.5-6.7-7.9-12.7c-1.9-4.8-5.8-9.2-9.7-12.2c-5.3-4-12.5-7.4-17.2-11.4c-1.7-1.5-8.3-8.3-6.1-10.1
			c0.4-0.3,1.2-0.2,2.1,0c4.5,1.1,13.5,7,20.8,9.4c5.4,1.8,11.7,2.5,14.9,4.3c4.3,2.5,9,7.8,12.1,9.2c1.2,0.5,10.2,2.8,12.9,0.9
			c1.7-1.1,0-3.2-1.8-4.3c-2.6-1.7-6.3-2.2-8.7-3.9c-0.8-0.5-1.4-1.2-1.9-1.9c-1.3-1.7-2.2-3.8-3.7-5.5c-2.5-2.9-9.6-6.2-12.1-9.1
			c-2.1-2.5-2.9-5.8-4.8-8.5c-3.1-4.3-11.4-9.5-16.2-11.5c-6.5-2.7-16.6-5.6-16.6-5.6s0.1-1.1,0.3-1.9c0.6-1.8,4.3-2.2,5.9-2.1
			c4.7,0.1,8.6,3.4,13.5,6.2c3.1,1.8,7.6,3.5,10.5,4.1c2.8,0.6,5.5,0.7,8.5,1.4c12.2,2.8,16.9,8.4,24.6,3.9c1.9-1.1,2.3-2.8,0.6-3.7
			c-1.5-0.8-4.1-0.6-6.5-1.1c-2.7-0.7-7.4-4.6-10.8-6.6c-3.9-2.3-9.8-2.8-15.5-5.7c-1.5-0.8-14.2-13.4-14.5-14.4
			c-0.3-0.9,0.4-1.7,1.6-1.4c2.2,0.7,5.6,4.2,8.7,6.2c4.9,3.1,13.4,3.9,19.7,2.7c4.9-0.9,6.5-1.9,9.6-1.8c1.5,0,7.1,2.2,8.4,3.2
			c0.2,0.2,7.6,9.7,9.5,7.5c0.1-0.2,0.3-0.4,0.4-0.4c0.1,0,0.2,0,0.2,0c0.4,0,0.2-2-0.2-3.2c-0.8-2.7-7.6-8.3-9.9-9.8
			c-12.2-7.8-15.3-6.1-29.6-8.7c-6.3-1.1-6.9-4.2-12.7-10.9c-2.1-2.4-4.3-4.3-6.7-5.8c-5.1-3-16.6-6-14.8-10.3
			c0.6-1.3,1.2-1,3.4-0.9c0.5,0,0.6,0,1,0.2c11,3.5,23.4,8.6,31.8,8.8c9.5,0.2,15.4-2.3,21.3,0.2c3.4,1.5,7.3,4.6,11,5.9
			c2.9,1,7.9,2,7.3-0.5c-0.6-2.6-5.8-4.9-8.3-6.6c-3-2.1-5.5-5.3-8.2-7.3c-3.1-2.3-10.2-5-14.3-5.5c-3.1-0.4-5.5,0.2-8.2-0.5
			c-2.6-0.6-13.3-8.3-19-11.7c-1.7-1-3.2-1.7-5.7-2.5c-5-1.6-14-3.7-14-3.7s2.4-1.7,4.6-3c3.7-2.1,18.6-6.4,22.2-5.7
			c3.6,0.7,6.8,3.7,9.4,2.7c2.9-1,2.5-2.8,0.9-4.9c-3.2-4.2-8.3-7-11.9-7.4c-6.7-0.8-29.5,0.8-31.4,0c-0.3-0.2-0.7-0.3-1-0.5
			c-0.9-0.4-2.1-0.4-3.1-0.7c-1.1-0.3-6.8-6.4-10.4-10.1c-4.3-4.3-9.9-6.7-14.8-7.3c-3.3-0.4-7.7-0.3-11.6-0.4
			c-0.5,0-0.5-0.1-0.9-0.4c-4-4.3-8.2-9.4-12.1-12.9c-3.7-3.3-7.2-5.2-12.6-10.3C446.6,4,442.8,0,442.8,0s-3.9,11.2-4.9,16
			c-0.3,1.5-0.4,2.3,0,3.4c1.9,5.6,4.8,6.5,1.3,9.4c-2.8,2.3-5.6,2.1-9.7,1.3c-5.3-1-15.6-6.7-21.6-7.9c-2.7-0.6-6.3-0.7-9.6-0.5
			c-5.8,0.5-15.4,2.3-15.4,2.3s1.4,1.4,2.8,2.2c2.4,1.5,7.4,1.2,9.8,2.5c1.1,0.6,1.3,1.2,0.4,1.8c-3,2.1-11.5,0.1-14.3,0.2
			c-1.6,0.1-9.8,2.2-11.4,4.1c-0.4,0.4-0.5,0.9,0.1,1.4c0.2,0.2,0.3,0.2,0.7,0.1c4.1-0.3,9.8-1.2,12.4-0.9
			c5.5,0.7,15.1,5.1,18.8,5.3c1.8,0.1,4.5-0.2,4.6,1.1c0,0.3-0.2,0.7-0.7,1c-1,0.9-2.8,1.9-2.3,2.7c0.1,0.2,0.4,0.2,0.7,0.2
			c3.2,0.3,6.5-1,7.1,1c0.1,0.4,0.2,0.9,0.2,0.9s-9.8,3.7-16.5,7c-7.6,3.8-11.1,7-16.2,10.1c-3.7,2.2-27.6,13.1-36.2,14.9
			c-11.9,2.5-18,1.6-24.3,7.6c-4.7,4.6-12.3,18.1-13,25.1c-0.3,3.3,0.6,11.2,2.1,13.6c0.9,1.6,2.1,1.9,4.1,1.9
			c2.7,0,14.3-2.1,17.4-3.2c4.3-1.5,10.3-4.8,12.1-1.5c1.7,3.1-6.5,5.6-9.6,6.3c-5.1,1.1-12.8,1.7-12.1,5.7c0.6,3.4,6.4,5.2,9.4,5.5
			c2.2,0.2,4.5,0.2,6.9-0.2c5.4-1,12.4-4.9,17.9-6.2c2.3-0.6,6.4-0.7,9.4-0.2c10.9,1.6,33,7.9,38.4,8.2c5.3,0.3,11-0.4,16.6-0.7
			c0.5,0,0.6,0,0.9,0.3c5.9,5.4,2.4,11.4-1,20.2c-2.5,6.5-13.9,30.9-16.5,35.2c-2.3,3.9-4.7,7.4-7.3,11.1
			c-3.3,4.6-16.3,19.8-18.9,22.1c-4.4,3.9-7.4,5.7-11.6,11.1c-7.5,9.7-9.8,17.3-19.5,23c-4.4,2.7-10.9,4.3-15.8,6.4
			c-3.2,1.3-6.6,3.4-10.9,6.6c-6.3,4.7-15.7,12.3-15.7,12.3s-42.6-27.2-44.5-29.4c-1.3-1.5-2.1-2.9-3.3-4.5
			c-7.4-9.5-18-15.5-29.5-17.3c-17.3-2.6-26.1,13.7-35,29.2c-6.5,11.3-15.1,25.4-19.2,33.5c-2.8,5.6-5.3,11.2-8.2,16.9
			c-6.3,11.9-15,24.1-21,35c-1.4,2.6-2.7,5.1-3.4,7.8c-1.2,4.8-0.7,10.1-2.1,15.1c-1.4,4.9-4.9,9.6-6.6,14
			c-1.1,2.6-1.7,5.7-2.2,10.3c-0.7,5.4-1.4,13.2-1.4,13.2h-0.2c0,0,0.1,3.2,0.5,4.8c0.9,3.8,9.1,0.8,13-0.6
			c10.3-3.8,26.6-12.7,28.2-23.6c0.8-5.2-2.4-5-5.7-13.7c-0.9-2.3-0.6-4.1,0.9-6.5c1.1-1.9,2.7-3.6,3.7-5.6c0.7-1.5,1.1-3.1,1.4-4.8
			c2.1-12.5,2.1-16.1,10.8-26.7c7.5-9.2,20.2-22.4,24.5-28.8c3.5-5.3,6.5-11,8.9-15.4c0.8-1.4,1.6-2.7,2.7-3.3
			c0.9-0.5,5.9-0.3,7.6,0.3c2.4,0.8,3.8,2,5.9,4.7c5.3,6.6,11.3,17.9,14.9,21.6c9.2,9.4,24.4,22.7,24,23.5c-1.4,3-10.8-2.7-14-4.4
			c-1.9-1-25.5-7.4-30.7-8.2c-16-2.7-22.2-5.2-34,5c-7.6,6.6-12.1,15.1-12.9,23.3c-0.2,2.2,9.5,80.7,10.3,83
			c1.5,4.4,3.2,10.4,3.2,12.6c0.1,7.3-1.4,9.2,3.2,16.6c2.5,4.1,6.2,7.5,8.9,11.6c2.7,4.2,5.7,14,8.9,21.1c2,4.4,12,21,18,26
			c5.4,4.6,9,2.7,13.4-3.3c6.7-9.2,6.9-32,3-40.6c-1.5-3.3-4-6.1-7.4-7.6c-4.5-2-13.6-4.1-13.6-4.1s-1.3-15.1-2.9-20
			c-1-3.1-2.7-5.6-4.1-8.2c-7.3-13.5-6.4-26.9-7.1-43c-0.2-3.6-0.4-7.3-1.4-10.8c-1.3-4.9-3.5-12.7-3.2-13.7c0.7-2.8,3.9-5,6.9-4.8
			c7,0.5,12.2,6,17.7,10.3c3.2,2.4,19.8,11.7,29.6,17.2c3.5,1.9,7.6,4.9,9.2,6.6c1.5,1.7,2.6,3.5,4,5.4c3.5,4.6,9.4,9.5,14.2,11.3
			c12.3,4.7,14.6,2.1,19.5,7.4c2.4,2.6,7.2,9.8,10.5,15.4c3.6,5.9,6.6,11.3,10.1,16.5c2.5,3.8,18.9,23.3,22.7,27.1
			c8.2,8.1,70.3,58.8,80.8,68.9c2.3,2.2,13.4,12.8,14.8,17.8c0.3,1.3,0.3,2.8-0.8,3.2c-0.5,0.2-1,0-1.6-0.2
			c-1.2-0.5-16.3-16-18.5-19c-1.2-1.6-22.8-18.7-23.9-19c-1.3-0.3-2.6-0.6-2.6-0.6s-1,3.4-1.5,6.1c-1.8,8.6-0.2,27.9,0.9,34.3
			c4.1,23.5,13.9,47.9,26.3,70c6.4,11.5,16.2,27.3,16.2,27.3s-2.3,6.1-4.3,9.6c-3.2,5.5-6.1,6.2-13,6.4c-12.7,0.3-31,0.5-38,0
			c-17.4-1.2-45.7-4.7-51.5-4.3c-3.2,0.2-6.2,0.6-9.2,1.4c-1.8,0.5-3.6,1.1-5.5,1.6c-4.9,1.2-24,1-32,2.5
			c-8.4,1.6-23.1,6.9-28.4,13.6c-4,5.1-1.5,8.1,3.7,11.8c2.1,1.5,16.3,7.9,19.9,8.9c7.6,2.2,19.2,5.3,24-1.5c1.3-1.8,2.2-4.1,3.7-6
			c2.8-3.7,6.5-6.1,10.3-5.4c3,0.5,5.9,2.5,8.9,3.2c1.7,0.4,6.2,0.1,9.2-0.5c17.2-4,19.4-4.4,42.1-2.4c7.3,0.6,29.4,4.1,34.8,5.5
			c12.4,3.1,32.6,8.7,36.4,9.1c5.6,0.6,10.2,0.6,13.3-3.1c1.2-1.5,5.5-10.8,5.7-12.5c0.2-1.8-0.7-7.8-1.6-10.5
			c-6.1-17.9-10.7-24.5-13-38.2c-0.6-3.8-1.5-26.9-1.1-31.3c0.8-10.4,3.9-22.8,8.5-32.9c6.9-15.5,17.1-26.8,20.8-40.7
			c1.6-6.1,3.4-15.8,3.4-15.8s0.9,0,1.6,0.2c2,0.7,1.3,9.1,1.2,10.3c-0.3,3-1.6,7-3,10.5c-4.1,10.2-15.8,30.2-20.8,42.3
			c-7.6,18.4-8,38.7-3.4,60.4c2.5,12.1,9.9,34.6,15.3,44.2c6.2,10.9,17.4,27.8,18.1,30.7c1,4.2-1.1,8.3-4.1,12.9
			c-1.5,2.3-13.8,15.3-16.8,17.7c-17.4,14.1-48.7,39.3-49.5,40.6c-2.3,3.7-3.7,7.7-6.4,11.3c-2.2,2.9-15.7,12.6-23.7,19.4
			c-2.3,2-9.1,10-10.1,12c-2.1,4.1-4.2,9.2-0.5,11.2c3.6,1.9,15.9,3.1,18.1,3.2c13.5,0.9,22.7,0.1,33.9-4.4
			c4.8-1.9,8.1-4.9,6.6-10.1c-1.2-4-3.1-6.6-1.6-10.5c0.8-2,2.6-3.5,4.7-4.7c7.1-4,10.2-4,13-11.4c0.6-1.5,0.8-3,1.4-4.3
			c0.8-2.1,2.9-4.5,4.8-6.8c14.7-17,18.1-21.4,34.6-34.2c4.4-3.4,18.2-12.2,21.2-13.5c5.6-2.4,12.9-4.9,14-10.7
			c1-5.4,0.4-18-1.6-22.9c-1.6-3.8-4.9-7.7-7.1-11.7c-5.6-10.3-5.2-22.3-0.5-32.3c1.9-4,3.7-7,6.2-9.8c2.5-2.9,31.8-22.9,43.4-32.7
			c9.3-7.8,28.5-31,32.1-44.8c2.1-8.1,4.4-22.9,5.7-24.6c1.7-2.2,5-1.9,6.9,0.9c2.6,3.8,2.4,9.8,1.8,14.3c-1,8.6-3.8,21.9-5.3,30.2
			c-0.4,2.5-0.3,6.7,0.2,8.7c0.9,3.3,3,7.8,3,7.8s0.7-6.5,1.8-11.2c1.6-6.7,4.3-9.8,5.5-14.4c1-3.8,0.8-15.4,6.2-16.2
			c3-0.5,3.7,5,4.1,8.5c1,9.3-0.4,16.6-4.5,26.7c-4.1,10-18.9,28.4-17,39.7c0.4,2.2,1.6,6.2,3,7.9c1.2,1.5,3.4,3.7,3.4,3.7v-9.5
			c0-0.5,0-0.6,0.2-1c1.9-5.4,4.1-9.4,8.1-14.7c11.4-15.3,14.2-15.3,20.1-29.6c3.8-9.1,5.1-15.3,6.2-24.9c0.3-2.7-0.5-14.5-1.2-16
			c-0.5-1.2-8.4-12.8-5.3-15.1c2.7-2,8.9,8.3,9.6,9.8c4.8,10.2,3.3,15.5,3.7,27.7c0.2,7.1,2.3,14.6,7.5,21.4
			c0.7,0.9,1.6,1.9,2.3,1.5c0.2-0.2,0.4-0.5,0.5-0.9c0.6-2.5-2.7-16.2-2.5-22c0.1-3.6,3.7-12.3,4.8-17.4c0.5-2.2,0.5-4.6,0-7.1
			c-1.5-7.3-6.7-20.8-6.2-22.1c0.7-1.8,5.9-2.6,12.3-5.1c21-8.1,36.9-30,42.1-47.8c3.8-12.9,5.1-26.3,3.7-40.5
			c-3.1-32.1-8.5-35.1-2.8-64.8c0.6-3,1.2-5.5,2.4-8.2c2.5-5.4,12.8-18.5,15.9-24.9c3.1-6.4,3.7-10.4,2.7-18.4
			C744.5,355.3,743.3,353.2,741.3,354.9z"/>
	</g>
	<path fill="#FFFFFF" d="M491.8,47.4c0.5,1.8-2.5,1.3-3,1.3c-1.9-0.3-10.3-2.3-8.5-5.5c1.6-2.9,6.4-1.8,8.1-0.3
		C489.6,43.7,491.3,45.7,491.8,47.4L491.8,47.4z"/>
	<path fill="#FFFFFF" d="M500.9,67.2c0.1,0.4-0.5,0.8-1,1c-2,1.1-9.8-2.1-10.7-3.8c-1-2,0.7-3.2,3-3.5c3-0.4,5,0.8,7.1,3.5
		C500,65.3,500.8,66.4,500.9,67.2L500.9,67.2z"/>
	<path fill="#FFFFFF" d="M436.2,68.7c0.1,0.3-0.2,0.8-0.5,1.1c-1.3,1.4-2.9-2-4-3c-1.1-1-2.6-1.4-4.1-1.8c-1.6-0.4-4.7-1-4.3-2.7
		c0.3-1,2.1-1.3,3.2-1.3C431.1,61.2,434.9,63.6,436.2,68.7L436.2,68.7z"/>
	<path fill="#FFFFFF" d="M359.8,85.6c-0.2,0-0.5,0.2-0.8,0c-0.4-0.3-0.7-1.3-0.7-1.3s7-2.6,12.1-4.4c4.9-1.8,12.4-5.3,14.4-6.9
		c1.6-1.2,8.7-7.7,10.4-6.5c1.9,1.4-1.5,5.3-3.4,7.4c-8.1,9-15.5,9.5-31.2,11.6C360.2,85.6,360.1,85.6,359.8,85.6L359.8,85.6z"/>
	<path fill="#FFFFFF" d="M414.6,78v0.2l-2.4-0.2c-0.5,0-0.5-0.1-0.8-0.3c-2.4-2,0.7-6.1,2.8-7.5c2.1-1.4,8.2-2.6,10.2-2.1
		c4.6,1.2,10,8.9,8.9,13.7c-0.6,2.6-2.4,4.1-4.3,3.4c-2.1-0.7-5.2-4.8-7.4-6.6c-1-0.8-2.1-1.2-3.6-1.1C416.7,77.7,414.6,78,414.6,78
		L414.6,78z"/>
	<path fill="#FFFFFF" d="M493,83.8l19.3,1.8c0.5,0,0.6,0.1,0.9,0.3c1.4,1,2.4,1.6,1.9,2.2c-1.3,1.4-8.1,0.7-9.1,0.9
		c-3.1,0.6-13.7,8.8-15.1,2.7c-0.3-1.6,0.1-4.8,0.9-6.2C492.2,84.8,493,83.8,493,83.8L493,83.8z"/>
	<path fill="#FFFFFF" d="M327.2,105.3c0.9,1.9-0.4,3-1.6,3.6c-1.4,0.7-3.2,1.5-4.7,2.8c-3.5,3-6.3,8.1-7.9,3.2
		c-1.1-3.2,2.1-13,6.6-14C322.6,100.3,325.6,102,327.2,105.3L327.2,105.3z"/>
	<path fill="#FFFFFF" d="M512.1,111c0.3,0.6-0.5,1.3-0.8,1.4c-1.1,0.3-6.3-0.8-6.9-1c-1.4-0.5-5.2-2-4.4-3.6c1-2,5.2-2.4,6.6-2
		C508.9,106.4,510.9,108.4,512.1,111L512.1,111z"/>
	<path fill="#FFFFFF" d="M436.1,111.8l-12.3,15.2c-0.3,0.4-0.4,0.4-0.8,0.6c-0.9,0.4-1.7,0.8-2.6,1.2c-3,0.9-8.7,0.8-10.9-0.5
		c-1.1-0.6-0.6-1.6,0.7-2.5c3.1-2.4,8.9-3.8,13.8-7.1c4.8-3.2,9.2-8.4,11.5-9.2c1-0.3,1.1,0.1,1,1.3
		C436.4,111.4,436.4,111.5,436.1,111.8L436.1,111.8z"/>
	<path fill="#FFFFFF" d="M358.8,117.1c1,2-2.1,4.7-3.4,5.1c-1.6,0.6-3.5-0.9-3.2-3c0.3-2.2,3.1-4.2,5-3.4
		C357.9,116.1,358.6,116.6,358.8,117.1L358.8,117.1z"/>
	<path fill="#FFFFFF" d="M453.5,122.7c0.5,3.2-2,6.8-4.1,8c-1.4,0.8-9.1,3.6-10.8,2.7c-0.3-0.2-0.3-0.4-0.2-0.8
		c0.2-0.8,14.3-11.2,14.7-10.9C453.4,122,453.5,122.4,453.5,122.7L453.5,122.7z"/>
	<path fill="#FFFFFF" d="M513.5,127.7c0.6,2-1.1,2.2-2.7,1.8c-2.7-0.6-11.6-2.6-10.3-5.5c1.4-3,6.8-2.7,8.8-1.1c1,0.7,2,1.8,3.1,3.1
		C512.9,126.6,513.4,127.2,513.5,127.7L513.5,127.7z"/>
	<path fill="#FFFFFF" d="M458.4,131.6c1.1,2.4-2.2,6.2-3.5,7.3c-0.5,0.4-0.9,0.7-1.5,0.9c-1.3,0.5-14.5,0.9-16.2,0.5
		c-1.1-0.3-1.4-0.7-0.5-1.6c1.2-1.2,9.7-2.2,14.2-4.1c2.3-0.9,3.8-2.3,6.4-3C457.7,131.4,458.2,131.3,458.4,131.6L458.4,131.6z"/>
	<path fill="#FFFFFF" d="M515.6,145.5h-0.2v0.2c0,0-1.2,0-2.3,0c-3-0.1-13.7-2.5-11.4-6.5c1.5-2.7,6.8-2.7,9.3-1
		c1.3,0.9,2.7,2.7,3.8,3.9c0.4,0.5,0.8,0.9,0.9,1.7C515.6,144.6,515.6,145.5,515.6,145.5L515.6,145.5z"/>
	<path fill="#FFFFFF" d="M515.3,163.6c0.5,1.8-2,1.7-3,1.5c-1.7-0.4-13.4-2.6-11.2-6.4c1.9-3.2,7.2-2.7,9.5-1
		C512.8,159.3,514.7,161.2,515.3,163.6L515.3,163.6z"/>
	<path fill="#FFFFFF" d="M516.2,183.3c0.4,0.8-0.6,1.7-0.8,1.8c-2.4,0.8-13.5-3.8-13.9-4c-2.2-1.3-3-2.7-0.7-4.7
		c2.3-2,7-1.8,9.5-0.5C512.6,177.2,514.5,180.2,516.2,183.3L516.2,183.3z"/>
	<path fill="#FFFFFF" d="M451.7,181.2c0.1,1.1,0.1,2.9,0,4.6c-0.2,2.4-4,16.4-5.3,18.9c-4,8.2-12,19.7-19,27.9
		c-5.5,6.4-11,11.7-11.9,9.7c-0.3-0.5,11.5-19.4,18.1-29.7c2.5-4,4.2-7.4,5.5-11c4-11.5,4.4-19.3,8.7-25.3c0.8-1.1,2.2-1.6,2.8-0.4
		C451.2,176.9,451.6,179.9,451.7,181.2L451.7,181.2z"/>
	<path fill="#FFFFFF" d="M512.8,200.9c0.4,0.8-0.6,1.5-0.8,1.6c-1.7,0.5-9.1-1.9-9.9-2.3c-3.3-1.6-5.1-3.4-2.2-5.5
		c3.4-2.4,8.5-0.6,10.9,2.6C511.6,198.5,512.4,200,512.8,200.9L512.8,200.9z"/>
	<path fill="#FFFFFF" d="M509.8,216.7c0.8,2.1-2.3,1.7-3.2,1.6c-2.6-0.4-9.7-2.4-8.5-5.3c1-2.5,5.5-2.4,7.6-1.3
		C506.6,212.1,509.1,214.9,509.8,216.7L509.8,216.7z"/>
	<path fill="#FFFFFF" d="M505,233.4c-2.7-0.3-6.3-0.9-8-2.9c-1-1.2-0.3-2.5,1.8-3.1c1.4-0.4,3,0.1,4.3,0.9c1.3,0.8,2.8,2.8,2.8,3.7
		c0,0.3-0.1,0.6-0.4,0.8c-0.2,0.1-0.5,0.2-0.5,0.4C505,233.3,505.1,233.4,505,233.4L505,233.4z"/>
	<path fill="#FFFFFF" d="M501.8,246.4c0.2,0.5-0.3,1-0.5,1.1c-1.9,0.9-6.7-1.3-7.7-2.8c-0.5-0.8-0.2-1.7,0.8-2.2
		C497.1,241.2,500.5,243.5,501.8,246.4L501.8,246.4z"/>
	<path fill="#FFFFFF" d="M228.6,252.4c0,0-0.1,0.9-0.2,1.5c-0.2,0.8-0.5,0.9-1.1,1c-4.6,1-7.6,1.5-10,0c-1.3-0.8-0.5-2.1,1.3-3.2
		c2.9-1.9,7-3.1,9.3-0.1c0.1,0.2,0.2,0.3,0.3,0.5c0.1,0.2,0.1,0.3,0.2,0.3L228.6,252.4L228.6,252.4z"/>
	<path fill="#FFFFFF" d="M498.2,258.3c0.1,0.3,0,1-0.2,1.4c-0.8,1.2-5.5-0.9-6.5-1.6c-1-0.7-1.6-1.5-1.2-2.4c1-2.3,4.2-1.6,5.6-0.4
		C496.7,256.1,497.7,257.5,498.2,258.3L498.2,258.3z"/>
	<path fill="#FFFFFF" d="M492.5,270.3c0.8,1.1,1,2.1-0.2,2.4c-1,0.2-4.8-0.9-5.4-2c-0.8-1.4,1.1-2.2,2.3-2.1
		C490.4,268.7,491.6,269.2,492.5,270.3L492.5,270.3z"/>
	<path fill="#FFFFFF" d="M405.5,283.5c0.5,0.7-0.4,1.5-0.6,1.6c-1.8,0.9-3.4-0.8-7-2.7c-4.7-2.5-16.6-3.7-20.1-3.9
		c-2.7-0.2-14.3,1.3-16,2.1c-3.2,1.4-8.3,4.3-7.3-0.5c1.1-5.6,18.1-7.7,22-7.8c9.1-0.3,18.7,1.7,26.4,8.5
		C403.9,281.6,405,282.7,405.5,283.5L405.5,283.5z"/>
	<path fill="#FFFFFF" d="M196.8,278.9c0.1,0.5,0.1,1.1,0,1.8c-0.1,1.1-11.2,18.5-13.7,21.6c-1.7,2.1-4.5,5.2-5.7,3.2
		c-1.5-2.5,2.7-10,4.1-12.5c1.4-2.6,8.1-16.1,12.4-16.5C195.6,276.5,196.5,276.8,196.8,278.9L196.8,278.9z"/>
	<path fill="#FFFFFF" d="M487.4,283.4c0.4,0.6-0.2,1.3-0.6,1.4c-1,0.4-4-0.6-4.4-1.6c-0.2-0.6,0.1-1.3,0.8-1.6
		C484.3,281.2,486.6,282,487.4,283.4L487.4,283.4z"/>
	<path fill="#FFFFFF" d="M250.9,310.3c-4.3-4-10.1-10.7-10.7-15.3c-0.3-2.3,0.4-3.2,2.4-2.5c3.2,1.1,13.5,13.3,11.6,17.1
		C254.1,309.7,252.2,311.5,250.9,310.3L250.9,310.3z"/>
	<path fill="#FFFFFF" d="M482.1,295.8c0.4,0.6-0.3,1.3-0.6,1.4c-1.1,0.4-3.7-0.4-4.2-1.8c-0.3-1,1-1.8,2.1-1.7
		C480.3,293.9,481.6,294.8,482.1,295.8L482.1,295.8z"/>
	<path fill="#FFFFFF" d="M304.3,311.1l-20.8,29.8c-0.3,0.4-0.3,0.4-0.6,0.5c-3.1,0.4,1.7-8.7,3.1-11.5c4.2-8.1,7.5-15.8,13.6-20.1
		c1.6-1.2,5-2.9,5.2-1c0,0.4-0.1,0.9-0.1,1.4C304.6,310.7,304.5,310.8,304.3,311.1L304.3,311.1z"/>
	<path fill="#FFFFFF" d="M196.3,338.2c0.1,0.3,0.1,0.7,0,1.1c-0.2,1.4-3.6,7.4-5.6,8c-1.6,0.5-1.8-1.3-1.5-3
		c0.5-2.6,2.1-6.2,4.6-7.3C194.9,336.5,195.9,336.9,196.3,338.2L196.3,338.2z"/>
	<path fill="#FFFFFF" d="M149,353.7c0.4,2.7-3.5,10.9-5.1,11.9c-1,0.6-2,0.3-2.4-0.6c-1.6-3.6,2.7-10.6,5.6-12.2
		C147.1,352.8,148.8,352.4,149,353.7L149,353.7z"/>
	<path fill="#FFFFFF" d="M504.5,441.9c0.5,0.6-2.3,0.1-4.5-0.8c-5.5-2.1-23.4-18.8-25.2-20.7c-9.4-10.1-19.9-31.5-22.2-46.6
		c-0.9-6-1.1-12.2,3.7-11.2c0.9,0.2,1.4,0.7,1.8,1.5c1.4,2.5,2.9,15.9,5.3,24.4c2.3,8.4,10.4,21.6,16,28.3
		C486.5,425.1,498.8,435.1,504.5,441.9L504.5,441.9z"/>
	<path fill="#FFFFFF" d="M261.1,385.3c0.2,1.1-0.7,1.9-1,2.1c-0.6,0.3-1.3,0.3-2.2,0.2c-1.3-0.1-31-15.9-31.3-16.6
		c-0.3-0.7-0.1-1.7,1-2.4c3.3-1.8,16.9,5.2,20.3,7.1c0.4,0.2,10.7,5.9,12.6,8.3C260.7,384.4,261,384.9,261.1,385.3L261.1,385.3z"/>
	<path fill="#FFFFFF" d="M191.4,392.5c0.1,1.1-0.1,2.6-0.1,4.2c0,5.3,5.2,25.6,4.6,27.1c-0.3,0.8-1.2,1.3-2.4,0.6
		c-1.8-1-4.8-7.2-5.4-8.7c-1.2-3.3-3.4-20.7-1.1-25.6c0.5-1.1,1.6-1.7,2.9-0.9C190.4,389.5,191.3,391.1,191.4,392.5L191.4,392.5z"/>
	<path fill="#FFFFFF" d="M137.1,400.2c0.6,2.7-1,8.1-2.8,9.4c-1.3,0.9-2.7-1-3.1-2.7c-0.4-1.9,0.4-9.3,3.4-9.2
		C135.7,397.7,136.8,398.8,137.1,400.2L137.1,400.2z"/>
	<path fill="#FFFFFF" d="M411.3,516.4c0.3,0.5-1.3,0.3-2.6,0c-1.6-0.4-7.7-4.3-9.8-6.2c-7.3-6.8-18.7-15-27.1-22.3
		c-4.1-3.6-7.4-6.9-11-10.7c-1.4-1.5-29.3-32.6-32-42.9c-0.5-2-0.3-3.6,1.6-3.2c0.8,0.2,1.6,0.7,2.4,1.4
		c3.5,2.8,27.1,33.5,39.6,46.9c6.9,7.5,20.6,18.3,32.4,29.6C407.4,511.5,410.3,514.5,411.3,516.4L411.3,516.4z"/>
	<path fill="#FFFFFF" d="M697.9,451.7c0-0.3,0.5-0.6,0.8-0.8c4-2.1,4.8,18.2,4.9,21.7c0.3,20.6-1.6,38.6-14.2,53.2
		c-3.4,3.9-16.5,17.2-21.5,19.1c-0.6,0.3-1.3,0.4-1.7,0c-0.1-0.2-0.3-0.4-0.4-0.4c-0.1,0-0.2,0-0.2,0c-0.2,0,0-0.7,0.2-1.4
		c0.8-2.2,14.2-15.2,19.9-22.5c8.3-10.5,12.5-29.7,12.8-42.4C698.9,469.2,697.9,458.3,697.9,451.7L697.9,451.7z"/>
	<path fill="#FFFFFF" d="M503.9,492.1c0.1,0.4-0.1,1-0.4,1.5c-1.1,1.9-11.2,7.3-12.8,9.6c-3.2,4.5-1.3,15-6.4,12.7
		c-6.6-2.9-1.3-15.4,4.4-20.4c3-2.6,11.2-6.3,13.9-4.8C503.1,491.1,503.7,491.7,503.9,492.1L503.9,492.1z"/>
	<path fill="#FFFFFF" d="M231.4,514.1c0,0-0.2,1.1-0.5,1.7c-0.6,1.3-2.8,1.5-3.7,1.2c-2-0.6-5-5.5-5.7-7.6c-0.3-0.9-0.5-1.9,0-2.3
		c0.2-0.1,0.4-0.3,0.4-0.4c0-0.1,0-0.2,0-0.2c0-0.3,1-0.2,1.8,0c1.8,0.5,6.9,4.3,7.3,7.1c0,0.4,0.1,0.4,0.1,0.4L231.4,514.1
		L231.4,514.1z"/>
	<path fill="#FFFFFF" d="M597.5,569.5c0.8,8.8-2.3,19.1-6.2,24.1c-1.6,2-3.8,3.2-5,1.1c-0.5-0.8-0.5-2.2-0.2-3.5
		c0.6-3.3,2.5-6.3,3-9.8c1-7-3.2-15.9,2.3-18.5c1.8-0.9,4.4,1,5.5,3.8C597.2,567.6,597.4,568.7,597.5,569.5L597.5,569.5z"/>
	<path fill="#FFFFFF" d="M478.7,613.2c-0.9,4-3.9,10.7-4.8,15.8c-0.4,2.4-0.4,4.4-0.2,6.6c0.3,3.8,1.2,9.7-0.7,11
		c-2,1.4-3.6-2-4.3-5.5c-2-9-2-17.6,1.8-23.9c1.3-2.1,5.1-6.9,7.2-5.6C478.2,611.9,478.8,612.7,478.7,613.2L478.7,613.2z"/>
	<path fill="#FFFFFF" d="M445.1,692.9v0.2c0,0-1.1,0-1.7-0.2c-1.9-0.7,0.1-3,1.2-3.9c1.4-1.2,4.7-2.8,5.4,0.2c0.1,0.2,0.1,0.4,0,0.7
		c0,0.3-0.1,0.4-0.5,0.6c-1.7,1.3-2,1.5-3.9,2.2C445.1,692.8,445.1,692.8,445.1,692.9L445.1,692.9z"/>
	<path fill="#FFFFFF" d="M347.1,697.1c0.3,0.6-0.3,1.2-0.6,1.4c-1.3,0.7-4.2,0.7-5.2-0.2c-1.5-1.4,0.2-2,1.6-2.3
		C345,695.5,346.2,695.6,347.1,697.1L347.1,697.1z"/>
	<path fill="#FFFFFF" d="M413,699.6c1.3,1.1,0.6,2.1-0.3,2.7c-2.8,2-17,1.9-20.1,2.1c-8.8,0.3-16.4,0.5-24-3.2c-1-0.5-3.2-2.4-2.3-4
		c0.1-0.2,0.3-0.4,0.5-0.6c0.3-0.2,0.4-0.3,0.8-0.2c9.9,1.1,23.2,3,29.8,3.1c5,0.2,9.8-0.1,14.7-0.2
		C412.7,699.4,412.8,699.4,413,699.6L413,699.6z"/>
	<path fill="#FFFFFF" d="M283.8,700.6c0.9,2-2.8,4.6-3.9,5c-2.1,0.8-3.4,0.3-4.9-0.9c-2.1-1.6-1.5-3.2,0.8-4.3
		c1.4-0.7,6.2-1.3,6.9-0.9C283.1,699.7,283.6,700.2,283.8,700.6L283.8,700.6z"/>
	<path fill="#FFFFFF" d="M524.5,755c0,0,0.1,0.6,0,1.1c-0.1,0.9-1.6,2.7-2.5,3c-0.3,0.1-0.6,0.2-0.7,0.4c0,0.1,0,0.2,0,0.2h-1.1
		c-0.5,0-0.5,0-0.7-0.2c-1.3-0.9-1-3.3-0.7-4c0.8-1.8,3.8-3.2,5.1-1.5c0.1,0.1,0.2,0.3,0.3,0.5c0.1,0.2,0.1,0.3,0.2,0.3L524.5,755
		C524.5,755,524.5,755,524.5,755z"/>
	<path fill="#FFFFFF" d="M495.9,767.6c-4.5,5.6-29.3,31.6-34.5,32.7c-0.6,0.1-1.5,0.1-1.7-0.6c-0.4-1.3,2-4.6,2.7-5.6
		c1.7-2.3,26.8-25.9,28.3-26.5c1-0.4,3.1-1.5,4-1.1C495.3,766.7,496.1,767.3,495.9,767.6L495.9,767.6z"/>
	<path fill="#FFFFFF" d="M438,811.9v-0.2c0,0,1-0.1,1.6,0c1.2,0.3,1.5,2.2,1.2,3.1c-0.6,1.7-4.7,4.2-6.2,4.5
		c-1.7,0.3-2.3-0.7-1.8-2.5c0.6-2.2,2.5-3,4.8-4.5C437.9,812,438,812,438,811.9L438,811.9z"/>
	<path fill="#FFFFFF" d="M396.6,861.2l-3,0.2c-0.5,0-0.6,0-0.9-0.2c-0.4-0.3-0.8-0.7-0.9-1.1c-0.1-0.2-0.1-0.3-0.2-0.3h-0.1
		c0,0-0.1-1.5,0-2.5c0.2-1.9,4.3-6.6,5.1-7.3c2.7-2.5,7.1-3.6,7.9,0.9c0.6,3.2-1.8,2.5-4.9,4.4c-0.4,0.2-0.7,0.5-0.8,0.8
		c-0.4,0.9,0,2.5-0.5,3.5c-0.2,0.5-0.6,0.8-0.9,1.2C397.2,861.1,397.1,861.2,396.6,861.2L396.6,861.2z"/>
</g>
</svg>
