<?xml version="1.0" encoding="utf-8"?>
<!-- Generator: Adobe Illustrator 18.1.0, SVG Export Plug-In . SVG Version: 6.00 Build 0)  -->
<!DOCTYPE svg PUBLIC "-//W3C//DTD SVG 1.1//EN" "http://www.w3.org/Graphics/SVG/1.1/DTD/svg11.dtd">
<svg version="1.1" id="Layer_1" xmlns="http://www.w3.org/2000/svg" xmlns:xlink="http://www.w3.org/1999/xlink" x="0px" y="0px"
	 viewBox="0 0 870.6 870.5" enable-background="new 0 0 870.6 870.5" xml:space="preserve">
<g>
	<path d="M41.6,283.3c-24,0-43.6,18.6-43.6,41.4v208.9c0,2.6,1,5.1,2.8,7c28.7,29.6,70,46.6,113.2,46.6
		c39.6,0,77.6-14.5,105.9-39.9c28.2,25.4,66.3,39.9,106.1,39.9c39.8,0,77.8-14.5,106-39.9c28.2,25.4,66.2,39.9,106,39.9
		c39.6,0,77.6-14.5,105.9-39.9c28.2,25.4,66.3,39.9,106.1,39.9c43.4,0,84.7-17,113.4-46.6c1.8-1.9,2.8-4.4,2.8-7V324.6
		c0-22.8-19.5-41.3-43.6-41.3H41.6z"/>
	<path d="M18.2,324.7c0-11.8,10.5-21.4,23.5-21.4h781.2c13,0,23.5,9.5,23.5,21.2c0,0,0,196.4,0,204.7
		c-24.8,24-59.6,37.8-96.2,37.8c-37.9,0-74-14.8-98.9-40.5c-1.9-1.9-4.5-3-7.2-3c-2.7,0-5.3,1.1-7.2,3
		c-25.1,25.7-61.1,40.5-98.7,40.5c-37.8,0-73.9-14.8-98.8-40.5c-1.9-1.9-4.5-3-7.2-3c-2.7,0-5.3,1.1-7.2,3
		c-25,25.7-61,40.5-98.8,40.5c-37.9,0-74-14.8-98.9-40.5c-1.9-1.9-4.5-3-7.2-3c-2.7,0-5.3,1.1-7.2,3c-25.1,25.7-61.1,40.5-98.7,40.5
		c-36.5,0-71.2-13.8-96-37.8C18.2,521,18.2,324.7,18.2,324.7z"/>
	<g>
		<g>
			<path d="M131.3,367.8c0,4.9-2,7.5-5.8,7.5c-2,0-4.7-1.1-5.9-2.6l-1.5-1.5c-3.9-3.6-10.7-6.4-17.1-6.4
				c-12.5,0-17.9,4-17.9,13.1v10.2c0,0,0.5,2.4,2.2,2.4h24.9c1.4,0,2.5,0,2.9,0c1,0,1.9-0.2,2.9-0.5l1.5-0.5c0.7-0.4,1.5-0.5,2-0.5
				c2,0,2.9,1.1,2.9,3.3l0.2,9.5c0,4-1,5.5-3.2,5.5c-0.7,0-1.5,0-2.7-0.4c-3.4-1.1-6.9-1.6-12-1.6h-19c-2.4,0-2.5,0.2-2.5,2.2V455
				c0,0,0.5,7.3,1.7,10l0.8,1.8c0.2,0.5,0.2,1.3,0.2,1.8c0,3.6-2,4.7-8,4.7H59.9c-4.1,0-6.4-1.6-6.3-4.6c0-0.7,0-1.5,0.3-2.2
				l0.3-0.9c1.2-3.1,2.2-7.7,2.2-12.6v-81.7c0-4.2-0.3-6.9-1.9-10.8c-1-2.6-1.2-3.3-1-4.4c0-3.5,2.4-4.7,8.3-4.7h55.3
				c3.2,0,3.6,0,6.1-0.7c1.2-0.4,1.9-0.5,2.9-0.5c3.4,0,5.1,1.8,5.1,5.5V367.8z"/>
			<path d="M182.4,473.4c-11.8,0-14.4-0.9-14.4-5.5c0-6.7,3.6-13,7.4-13c2.2,0,3.6,0.7,5.8,3.1
				c3,3.3,5.6,4.6,9.8,4.6c6.3,0,8.8-1.6,8.6-5.8c0-2.6-0.7-4-4.4-7.7c0,0-8.1-8-11.5-11.1c-12.4-11.1-15.2-15.1-15.2-22.6
				c0-13.5,14-23.3,33.3-23.3c14,0,23.2,5.1,23.4,13c0,4.6-3.9,8.2-9,8.2c-2.9,0-5.2-1.1-7.3-3.3l-2.5-2.6c-1.7-1.8-3.9-2.7-6.6-2.7
				c-3.4,0-5.8,1.6-5.8,4.2c0,2.2,1.9,5.1,5.1,7.8l4.7,4c8.5,7.3,17.3,16.2,21.5,22.6c2,3.3,3.2,7.1,3.2,11.3
				c0,12.4-8.5,18.8-25.1,18.8H182.4z"/>
			<path d="M291.8,473.4c-3.4,0-5.4-1.3-5.4-3.5c0-0.7,0.2-1.6,0.5-2.7l0.3-0.9c0.2-0.7,0.3-1.3,0.3-2.2
				c0-0.7-0.2-2-0.5-2.9c-0.2-0.4-0.5-1.3-1.2-3.1L272.4,420c-2-5.8-3.4-7.1-7.3-7.1c-4.2,0-6.6,2.2-6.6,6.4v41.4c0,2.9,0.2,4,1.2,6
				c0.5,1.1,1,2.2,1,2.9c0,2.4-2.2,3.8-5.1,3.8h-19.5c-3.4,0-5.2-1.5-5.2-4.2c0-0.9,0-1.5,0.7-2.9c1.7-4,2-5.1,2-8l-0.2-88.6
				c0-5.7-0.3-8.4-1.5-10.6c-0.7-1.5-1-2.2-1-3.1c0-2.4,2-4.2,5.1-4.2h20c3.2,0,4.6,1.5,4.6,4.2c0,0.7,0,1.5-0.2,1.8
				c0,0.2-0.3,0.7-0.8,1.8c-0.8,1.6-1,2-1,6l0.2,30.1c0,1.5,0.2,2,0.7,2c0.7-0.4,0.8-0.2,1.5-0.9c3.4-2.9,9.3-4.9,14.7-4.9
				c9.3,0,16.1,6,20.3,18.1l16.9,49.2c1.2,3.6,2.2,4.7,4.4,6.9c1.2,1.3,1.7,2.2,1.9,3.5c0,2.6-1.9,3.8-5.1,3.8H291.8z"/>
			<path d="M344.8,443.7c-1.2,0.7-1.4,0.7-1.2,1.3c0,0.4,0,0.5,0.8,1.6c5.2,8,12.2,12.8,18.8,12.8
				c5.1,0,9.6-3.8,10.3-8l0.2-1.1c0.2-4.2,3.4-7.1,7.6-7.1c4.6,0,7.8,3.5,7.8,8.6c0.2,12.8-13.4,22.8-30.1,22.8
				c-26.9,0-46.9-19.3-47.1-45.6c0-23.7,16.6-39.8,41-39.8c17.3,0,30.5,8,37.9,23.2c1,2.2,1.4,3.6,1.4,4.7c0,0.9-0.3,1.6-1.4,2
				L344.8,443.7z M362.4,420c1.4-0.7,1.7-1.1,1.7-1.6c0-0.7-1-3.1-2-4.9c-3.7-6.6-8.6-10-14.4-10c-7.8,0-13.2,6.2-13.2,15.1
				c0,2.9,1,8.4,2.4,12.2c0,0.5,0,0.5,0.3,0.7c0,0.4,0.2,0.4,0.3,0.5c0.3,0.4,0.5,0.4,0.7,0.4c0.2,0.2,0.8,0,1.9-0.5L362.4,420z"/>
			<path d="M422.1,459.9c0,2.6,0.2,3.3,1.2,4.6l0.8,1.1c1,1.3,1.2,2.2,1.2,3.5c0,3.1-2,4.4-6.9,4.4h-17.8
				c-4.4,0-6.4-1.3-6.3-4c0-0.5,0-1.3,0.3-2l0.7-1.8c1-2.7,1.7-5.1,1.7-8.2l0.2-50.2v-1.1c0-0.7,0-1.6-0.5-2.6
				c-0.2-1.3-0.3-1.1-0.5-1.6l-1.2-1.8c-0.3-0.5-0.5-1.3-0.7-2c0-2.9,2-4.6,5.6-4.6l17.3-0.2c4.6,0,5.4,1.1,5.4,7.3l0.2,0.4
				c0.2,1.1,0.3,1.1,0.8,1.1c0.7-0.2,0.8-0.2,1.2-0.7c3.7-5.7,9.3-9.1,15.1-9.1c8.1,0,13.7,4.9,13.7,11.9c0,7.1-5.4,12.6-12.5,12.6
				c-2.5,0-6.4-0.5-9.1-1.5c-1.4-0.5-1.7-0.5-2-0.5c-4.2,0-7.8,5.7-7.8,11.9V459.9z"/>
			<path d="M451.2,444.6c-0.7,0.4-1.5,0.7-2.5,1.6c-0.8,0.5-1.5,1.1-2,1.5l-0.7,0.7c-0.3,0.7-0.7,0.7-1.4,0.7
				c-0.7-0.4-1-0.4-1-1.1v-13.7c0-3.1,2-4.9,7.4-8l3.2-1.8c3.6-2,6.9-3.8,11.3-7.3c0.8-0.7,1.2-0.7,1.5-0.7c0.7,0.2,0.8,0.2,0.8,0.9
				l-0.2,10c-0.2,6.4-1,8-6.4,11.1L451.2,444.6z"/>
			<path d="M505.6,457c0,4.9,0,5.5,1,7.7l1,2.4c0.2,0.4,0.2,0.9,0.2,1.5c0,3.5-2.5,4.9-9.3,4.9h-16.6
				c-3.4,0-5.1-1.3-5.1-3.8c0-1.1,0.2-1.8,0.5-2.6l0.7-1.5c0.8-1.5,1.5-3.3,1.5-4.4l0.3-95l-0.2-0.9c0-1.6-0.5-2.9-0.8-4.4l-0.5-1.3
				c-1-2-1.2-3.1-1-4c0-3.1,1.4-4,5.4-4l37.9,0.2c21,0,35.9,16.2,35.9,38.8c0,17.7-8.6,32.8-21.7,37.8c-6.1,2.2-13.7,3.3-22.7,3.3
				h-3.7H507h-0.2c-0.7,0.4-1,0.4-1,1.1l-0.2,0.9V457z M505.8,416.1c0,1.6,0.2,2,1.2,2.2c0.7,0,2.5,0.2,3.9,0.2
				c11.9,0,17.9-8.8,17.9-25.5c0-19.9-5.4-28.5-18.4-28.5c-2.4,0-3.7,0.4-4.2,0.5c-0.2,0.4-0.2,0.5-0.2,1.8L505.8,416.1z"/>
			<path d="M586.8,459.9c0,2.6,0.2,3.3,1.2,4.6l0.8,1.1c1,1.3,1.2,2.2,1.2,3.5c0,3.1-2,4.4-6.9,4.4h-17.8
				c-4.4,0-6.4-1.3-6.3-4c0-0.5,0-1.3,0.3-2l0.7-1.8c1-2.7,1.7-5.1,1.7-8.2l0.2-50.2v-1.1c0-0.7,0-1.6-0.5-2.6
				c-0.2-1.3-0.3-1.1-0.5-1.6l-1.2-1.8c-0.3-0.5-0.5-1.3-0.7-2c0-2.9,2-4.6,5.6-4.6l17.3-0.2c4.6,0,5.4,1.1,5.4,7.3l0.2,0.4
				c0.2,1.1,0.3,1.1,0.8,1.1c0.7-0.2,0.8-0.2,1.2-0.7c3.7-5.7,9.3-9.1,15.1-9.1c8.1,0,13.7,4.9,13.7,11.9c0,7.1-5.4,12.6-12.5,12.6
				c-2.5,0-6.4-0.5-9.1-1.5c-1.4-0.5-1.7-0.5-2-0.5c-4.2,0-7.8,5.7-7.8,11.9v0.4V459.9z"/>
			<path d="M726.8,405c0,4.9-3.9,8.8-8.6,8.8c-4.1,0-7.3-1.6-10.2-5.3c-3.2-3.8-7.1-5.8-11-5.8
				c-9.8,0-15.1,8.6-15.1,24.4c0,19.7,8.5,34.3,19.8,34.3c6.4,0,11.5-3.8,13.4-10.2c1.4-4.6,3.9-6.7,7.8-6.7c4.1,0,7.1,3.3,7.1,7.5
				c0,12.6-14.9,23-32.5,23c-24.4,0-42.3-17.7-42.3-42.3c0-25,18.5-42.1,45.2-42.1c15.6,0,26.2,5.5,26.2,14.2L726.8,405z"/>
			<path d="M761.7,444.9c-1.2,0.7-1.4,0.7-1.2,1.3c0,0.4,0,0.5,0.8,1.6c5.2,8,12.2,12.8,18.8,12.8
				c5.1,0,9.6-3.8,10.3-8l0.2-1.1c0.2-4.2,3.4-7.1,7.6-7.1c4.6,0,7.8,3.5,7.8,8.6c0.2,12.8-13.4,22.8-30.1,22.8
				c-26.9,0-46.9-19.3-47.1-45.6c0-23.7,16.6-39.8,41-39.8c17.3,0,30.5,8,37.9,23.2c1,2.2,1.4,3.6,1.4,4.7c0,0.9-0.3,1.6-1.4,2
				L761.7,444.9z M779.4,421.2c1.4-0.7,1.7-1.1,1.7-1.6c0-0.7-1-3.1-2-4.9c-3.7-6.6-8.6-10-14.4-10c-7.8,0-13.2,6.2-13.2,15.1
				c0,2.9,1,8.4,2.4,12.2c0,0.5,0,0.5,0.3,0.7c0,0.4,0.2,0.4,0.3,0.5c0.3,0.4,0.5,0.4,0.7,0.4c0.2,0.2,0.8,0,1.9-0.5L779.4,421.2z"
				/>
			<path d="M822.1,390.2c5.8,0,11.3,4.1,11.3,11.1c0,7-5.5,11.1-11.3,11.1c-5.9,0-11.3-4.1-11.3-11.1
				C810.8,394.3,816.3,390.2,822.1,390.2z M822.1,409.7c4.4,0,7.9-3.4,7.9-8.4s-3.5-8.4-7.9-8.4c-4.4,0-7.9,3.4-7.9,8.4
				S817.7,409.7,822.1,409.7z M817.6,396.7c0-0.9,0.6-1.3,1.4-1.3h3.8c2.7,0,4.4,0.8,4.4,3.6c0,2.2-1.4,3.2-2.8,3.3l2.1,2.8
				c0.3,0.4,0.4,0.6,0.4,1c0,0.3-0.3,1-1.3,1c-0.7,0-1-0.3-1.5-1l-2.8-3.8h-0.9v3.5c0,0.9-0.6,1.3-1.4,1.3c-0.7,0-1.4-0.4-1.4-1.3
				V396.7z M820.4,400.1h2.3c0.9,0,1.6-0.2,1.6-1.3c0-1.1-0.7-1.3-1.6-1.3h-2.3V400.1z"/>
			<g>
				<path d="M649.2,458.6c0,3.5,0.2,4.2,1.9,7.3c0.8,1.6,1,2.4,1,3.3c0,3.1-2,4.2-8.3,4.2h-17.1
					c-3.6,0-5.4-1.3-5.4-3.6c0-1.1,0.2-1.8,0.8-3.3c1.7-2.2,1.9-3.5,1.9-8.2l-0.2-47.4c0-4-0.8-6.9-2.4-10.2
					c-0.3-0.9-0.5-1.5-0.3-2.4c0-2.9,2.4-4.7,6.6-4.7h17.8c3.9,0,5.8,1.3,5.8,3.8c0,0.7-0.2,1.1-0.7,2.4c-1.4,3.1-1.4,4.2-1.4,7.5
					V458.6z"/>
				<path d="M635.7,388.4c7.7,0,14-6.5,14-14.5c0-8-6.3-14.5-14-14.5c-7.7,0-14,6.5-14,14.5
					C621.7,381.9,628,388.4,635.7,388.4z"/>
			</g>
			<g>
				<path d="M160.3,458.6c0,3.5,0.2,4.2,1.9,7.3c0.8,1.6,1,2.4,1,3.3c0,3.1-2,4.2-8.3,4.2h-17.1
					c-3.6,0-5.4-1.3-5.4-3.6c0-1.1,0.2-1.8,0.8-3.3c1.7-2.2,1.9-3.5,1.9-8.2l-0.2-47.4c0-4-0.8-6.9-2.4-10.2
					c-0.3-0.9-0.5-1.5-0.3-2.4c0-2.9,2.4-4.7,6.6-4.7h17.8c3.9,0,5.8,1.3,5.8,3.8c0,0.7-0.2,1.1-0.7,2.4c-1.4,3.1-1.4,4.2-1.4,7.5
					V458.6z"/>
				<ellipse cx="148.2" cy="373.9" rx="14" ry="14.5"/>
			</g>
		</g>
	</g>
	<path d="M432.3,435.3"/>
</g>
</svg>
