<?xml version="1.0" encoding="utf-8"?>
<!-- Generator: Adobe Illustrator 18.1.0, SVG Export Plug-In . SVG Version: 6.00 Build 0)  -->
<!DOCTYPE svg PUBLIC "-//W3C//DTD SVG 1.1//EN" "http://www.w3.org/Graphics/SVG/1.1/DTD/svg11.dtd">
<svg version="1.1" id="Layer_1" xmlns="http://www.w3.org/2000/svg" xmlns:xlink="http://www.w3.org/1999/xlink" x="0px" y="0px"
	 viewBox="0 0 870.6 870.5" enable-background="new 0 0 870.6 870.5" xml:space="preserve">
<g>
	<g>
		<path fill-rule="evenodd" clip-rule="evenodd" fill="#FFCF01" d="M438.7,0C142.1,0,7,149.2,6.8,434.1
			C6.7,719.7,142.3,868.7,438.7,868.7c296.9,0,431.8-149,431.8-434.6C870.6,149.7,736.1,0,438.7,0"/>
		<path fill-rule="evenodd" clip-rule="evenodd" fill="#FFFFFF" d="M220.3,434.7c0,223.8,86,374.1,213.8,374.1
			c134.7,0,221.7-148.1,221.7-377.4c0-229.2-83.9-371.6-219.1-371.6C303.2,59.8,220.3,203.4,220.3,434.7z"/>
		<path fill-rule="evenodd" clip-rule="evenodd" fill="#00285E" d="M234.1,434.7c0-222.8,77.6-361.1,202.6-361.1
			C563.4,73.6,642,210.7,642,431.4C642,652.3,560.4,795,434.1,795C314.5,795,234.1,650.2,234.1,434.7z"/>
		<path fill-rule="evenodd" clip-rule="evenodd" fill="#FFFFFF" d="M510.3,581.8c0,0-27.2-13.2-29.3-14.4c-2.3-1.2-3-2.4-3.8-3.7
			c-3.1-5.2-4-20.5-4-24.8v-11.1c0-5.5,0-15.1,0-25.4h67.5V362.8h-30.8H497h-23.7c0-26.1,0-56,0-66.6c8.2,0,14.4,0,14.4,0
			c11.7,0,14.6,4.2,18.7,11c0.5,1.2,13.4,29.4,13.4,29.4h33.5h11.3h30.9l-7.4-99.4h-11h-19.9h-11H322.4h-33.5v43.3
			c0,0,29.2,14.3,31.3,15.4c2.3,1.2,2.9,2.3,3.8,3.7c3.1,5.2,4,20.5,4,24.8c0,4.3,0-0.4,0,6.9L328,369v162.8c0,7.3,0,2.7,0,6.9
			c0,4.3-0.9,19.5-4,24.8c-0.8,1.3-1.4,2.5-3.7,3.7c-2.1,1.2-25.8,12.6-25.8,12.6l-5.6,2.8v43.8h33.5h156h33.5v-43.8l-0.5-0.2
			L510.3,581.8z"/>
		<path fill-rule="evenodd" clip-rule="evenodd" fill="#DF1837" d="M545.1,250.4c0.2,2.2,5.3,70.7,5.4,73.3c-2.3,0-20.9,0-22.3,0
			c-0.6-1.4-10.2-22.3-10.2-22.3c-4.9-8.1-10.9-18-30.3-18h-61v133h24c13.5,0,16.7-13.7,21.7-34.5c0,0,1.1-4.5,1.4-5.9
			c1.7,0,20.9,0,23,0c0,2.4,0,111,0,113.4c-2.2,0-22,0-23.8,0c-0.4-1.6-2.8-12-2.8-12c-4-18-5.7-25.5-17.2-25.5h-26.4v80.7
			c0,29.1,3.3,41.3,12.2,45.1l0,0c0,0,22.9,11.3,26.5,13c0,1.3,0,20.3,0,22.4c-2.5,0-160.9,0-163.4,0c0-2.1,0-21.1,0-22.4
			c1.3-0.7,26.5-13,26.5-13c9.1-3.7,12.6-16,12.6-45.1V331.5c0-29.4-3.5-42.3-12.6-46c0,0-23-11.2-26.4-12.9c0-1.4,0-20,0-22.2
			C304.4,250.4,542.7,250.4,545.1,250.4z"/>
	</g>
</g>
</svg>
