<?xml version="1.0" encoding="utf-8"?>
<!-- Generator: Adobe Illustrator 18.1.0, SVG Export Plug-In . SVG Version: 6.00 Build 0)  -->
<!DOCTYPE svg PUBLIC "-//W3C//DTD SVG 1.1//EN" "http://www.w3.org/Graphics/SVG/1.1/DTD/svg11.dtd">
<svg version="1.1" id="Layer_1" xmlns="http://www.w3.org/2000/svg" xmlns:xlink="http://www.w3.org/1999/xlink" x="0px" y="0px"
	 viewBox="0 0 870.6 870.5" enable-background="new 0 0 870.6 870.5" xml:space="preserve">
<g>
	<polygon fill="#1A315B" points="417.2,278.4 396.2,466.4 438.7,466.4 	"/>
	<path fill="#1A315B" d="M645.7,466c15.4,0,23.4-12.4,22.9-25.9V253c0-12.4-7.5-28.5-25-27.9h-18l0.1,241H645.7z"/>
	<path fill="#1A315B" d="M0,870.5h871.1V0H0V870.5z M572.3,645.6h19V225h-19v-7h71.8c42.3,0,58.9,21.4,58.9,45.8V432
		c0,24.5-19.5,42.4-53.4,42.4h-23.8v171.2h27.4v7.5h-80.9V645.6z M345.3,645.5c21-0.5,22-9.5,24.5-23.9l44.9-404.1H445l47.9,428.1
		h19v7.5h-71.8v-7.5H459l-19.4-171.6l-44.5,0l-17,151.7c-1.4,10,5.5,19.9,21,19.9v7.5h-53.8V645.5z M167.2,267.9
		c0.5-43.9,29.9-54.4,50.9-54.4c13,0,26.9,6,38.9,14c3,2.5,7,3,7-4v-6h8.5v137.2H264c0-45.3-16-133.2-45.9-133.2
		c-15.5,0-17.5,23.4-17.5,33.4v369.7c0,14,8.9,25.5,21,25.5c12.5,0,22-11,22-25.5V448.5h-21v-7h72.9v7h-17.5v205h-8.5
		c0-8.5-4.9-12.5-9.5-11c-8,4-18,15-38.9,14.5c-26.4,0-53.3-10.5-53.8-66.9V267.9z"/>
</g>
</svg>
