<?xml version="1.0" encoding="utf-8"?>
<!-- Generator: Adobe Illustrator 18.1.0, SVG Export Plug-In . SVG Version: 6.00 Build 0)  -->
<!DOCTYPE svg PUBLIC "-//W3C//DTD SVG 1.1//EN" "http://www.w3.org/Graphics/SVG/1.1/DTD/svg11.dtd">
<svg version="1.1" id="Layer_1" xmlns="http://www.w3.org/2000/svg" xmlns:xlink="http://www.w3.org/1999/xlink" x="0px" y="0px"
	 viewBox="0 0 870.6 870.5" enable-background="new 0 0 870.6 870.5" xml:space="preserve">
<g>
	<g>
		<path fill="#47464D" d="M480.8,621v241h389.8V473.2H480.8v91.7h297.6v205H573.9v-56.7h75.8V621H480.8L480.8,621z M390.5,620.1V862
			H1.7V473.2h388.8v91.7H93.9v205h204.5v-57.6h-76.8v-92.1L390.5,620.1L390.5,620.1z M572.9,156.9h75.9V249h-168V8h388.8v388.8
			H480.8v-91.7h297.1v-205h-205V156.9L572.9,156.9z M390.5,8H1.7v388.8h388.8v-91.7H93.9v-205h204.5v56.6h-75.8V249h168L390.5,8
			L390.5,8z"/>
	</g>
</g>
</svg>
