<?xml version="1.0" encoding="utf-8"?>
<!-- Generator: Adobe Illustrator 18.1.0, SVG Export Plug-In . SVG Version: 6.00 Build 0)  -->
<!DOCTYPE svg PUBLIC "-//W3C//DTD SVG 1.1//EN" "http://www.w3.org/Graphics/SVG/1.1/DTD/svg11.dtd">
<svg version="1.1" id="Layer_1" xmlns="http://www.w3.org/2000/svg" xmlns:xlink="http://www.w3.org/1999/xlink" x="0px" y="0px"
	 viewBox="0 0 870.6 870.5" enable-background="new 0 0 870.6 870.5" xml:space="preserve">
<g>
	<path fill-rule="evenodd" clip-rule="evenodd" fill="#F37021" d="M39,579c0,0-0.8,0-32,0v-8.4h23.6C31.4,572.2,36.4,576.4,39,579
		L39,579z"/>
	<path fill-rule="evenodd" clip-rule="evenodd" fill="#F37021" d="M843.5,579c0-3.4,3.4-6.7,7.6-8.4H868v8.4H843.5L843.5,579z"/>
	<path fill-rule="evenodd" clip-rule="evenodd" fill="#F37021" d="M314.5,584.9c-14.3,6.7-32,5.9-46.3,0H100.5
		c-16,6.7-34.5,6.7-50.5,0H7v16h861v-16H314.5L314.5,584.9z"/>
	<path fill-rule="evenodd" clip-rule="evenodd" fill="#F37021" d="M110.6,579c2.5-1.7,8.4-7.6,9.3-8.4h129.7
		c1.7,2.5,5.9,6.7,8.4,8.4H110.6L110.6,579z"/>
	<path fill-rule="evenodd" clip-rule="evenodd" fill="#F37021" d="M291.7,573.9c21.9,0,40.4-18.5,40.4-40.4
		c0-22.7-18.5-41.3-40.4-41.3c-22.7,0-41.3,18.5-41.3,41.3C250.4,555.4,269,573.9,291.7,573.9v8.4c-27.8,0-49.7-21.9-49.7-48.9
		c0-27.8,21.9-49.7,49.7-49.7c27,0,48.9,21.9,48.9,49.7c0,27-21.9,48.9-48.9,48.9V573.9L291.7,573.9z"/>
	<path fill-rule="evenodd" clip-rule="evenodd" fill="#F37021" d="M130.8,526.7c0-30.3-25.3-55.6-55.6-55.6
		c-31.2,0-55.6,25.3-55.6,55.6c0,31.2,24.4,55.6,55.6,55.6C105.5,582.3,130.8,557.9,130.8,526.7h-9.3c0,26.1-21.1,47.2-46.3,47.2
		c-26.1,0-47.2-21.1-47.2-47.2c0-26.1,21.1-46.3,47.2-46.3c25.3,0,46.3,20.2,46.3,46.3H130.8L130.8,526.7z"/>
	<path fill-rule="evenodd" clip-rule="evenodd" fill="#F37021" d="M317.8,561.3L301,541.9V541c0.8-0.8,0.8-1.7,1.7-2.5l0,0l25.3,6.7
		c0.8,0,2.5,0.8,2.5,1.7c0-0.8,0.8-4.2,1.7-5.9c-0.8,0.8-2.5,0.8-4.2,0.8l-23.6-6.7c-0.8,0-0.8-0.8-0.8-0.8c0-0.8,0-2.5,0-3.4v-0.8
		l24.4-9.3c0,0,2.5,0,2.5,0.8c0-0.8-1.7-5.1-1.7-5.9c0,0.8-1.7,2.5-2.5,2.5l1.7-0.8l-25.3,9.3c0,0.8,0,0-0.8,0
		c0-0.8-0.8-1.7-1.7-1.7c0-0.8-0.8-1.7,0-1.7l13.5-21.1c0.8-0.8,2.5-1.7,3.4-1.7c-0.8,0-4.2-2.5-5.9-3.4c0.8,0,0.8,2.5,0,3.4
		l-13.5,21.1c-0.8,0-0.8,0-1.7,0c0,0-1.7-0.8-2.5-0.8c0,0-0.8,0-0.8-0.8l-0.8-24.4c0-1.7,0-3.4,1.7-3.4c-1.7,0-5.1,0-6.7,0
		c0.8,0,1.7,2.5,1.7,3.4l0.8,24.4c0,0.8-0.8,0.8-0.8,0.8s-1.7,0.8-2.5,1.7c0,0-0.8,0-0.8-0.8l-16-19.4c-0.8-0.8-0.8-2.5-0.8-3.4
		c-0.8,0.8-4.2,3.4-5.1,4.2c0.8,0,2.5,0.8,3.4,1.7l16,19.4v0.8c-0.8,0-1.7,1.7-1.7,2.5c0,0-0.8,0.8-1.7,0.8l-23.6-6.7
		c-1.7-0.8-2.5-1.7-2.5-2.5c0,0.8-1.7,5.1-1.7,5.9c0,0,2.5-0.8,3.4,0l23.6,5.9c0.8,0,0.8,0.8,0.8,0.8c0,0.8,0,2.5,0,3.4v0.8
		l-23.6,10.1c-0.8,0-2.5,0.8-2.5,0c0,0.8,0.8,4.2,1.7,5.9c0-0.8,1.7-2.5,2.5-2.5l22.7-10.1c0.8,0,0.8,0.8,0.8,0.8
		c0.8,0,1.7,0.8,1.7,1.7c0.8,0,0.8,0.8,0.8,0.8L269,563.8c-0.8,0.8-1.7,1.7-2.5,1.7c0.8,0.8,4.2,3.4,5.1,3.4c-0.8,0,0-2.5,0-3.4
		l14.3-20.2c0-0.8,0.8-0.8,0.8-0.8c0.8,0.8,1.7,0.8,2.5,0.8c0.8,0,0.8,0,0.8,0.8l1.7,25.3c0,0.8-0.8,2.5-1.7,2.5c0.8,0,5.1,0,6.7,0
		c-1.7,0-1.7-1.7-1.7-3.4l-1.7-24.4c0-0.8,0.8-0.8,0.8-0.8c0.8,0,2.5-0.8,3.4-1.7c0,0,0.8,0,0.8,0.8l16.8,18.5
		c0,0.8,0.8,2.5,0.8,3.4c0.8-0.8,3.4-3.4,4.2-4.2C319.5,562.9,317.8,561.3,317.8,561.3L317.8,561.3z"/>
	<path fill-rule="evenodd" clip-rule="evenodd" fill="#F37021" d="M73.5,494.7c23.6,0,47.2,2.5,60.7,6.7c1.7,0,1.7,1.7,0,2.5
		c-14.3,3.4-37.9,5.9-59.8,5.9c-21.9,0.8-45.5,0-60.7-3.4c-1.7,0-1.7-1.7,0-1.7C27.2,499.8,49.9,495.5,73.5,494.7v-4.2
		c-25.3,0.8-50.5,6.7-71.6,14.3c-2.5,0.8-2.5,2.5,0,2.5c23.6,5.9,48,6.7,72.5,5.9c23.6-0.8,48.9-2.5,71.6-9.3
		c3.4-0.8,2.5-2.5,0.8-2.5c-21.9-6.7-47.2-11-73.3-11V494.7L73.5,494.7z"/>
	<path fill-rule="evenodd" clip-rule="evenodd" fill="#F37021" d="M323.7,479.5c-5.9,1.7-16,5.1-21.1,5.1c-4.2,0-25.3-0.8-39.6,0
		c-19.4,0.8-21.1,3.4-21.9,1.7c-4.2-6.7-7.6-16.8-14.3-22.7c-39.6,6.7-78.4,0.8-113.7-11.8v-5.1c2.5,0.8,4.2,0.8,5.9,0.8
		c-5.9-8.4-16-11-21.9-20.2c-3.4-2.5-4.2-7.6-7.6-10.1c0.8,9.3-6.7,16-7.6,23.6c5.1,1.7,11.8,1.7,14.3,0.8c3.4-0.8,7.6,0,9.3,2.5
		c2.5,0.8,4.2,2.5,7.6,2.5v5.1c-4.2-0.8-5.1-1.7-8.4-3.4c-4.2,1.7-7.6,0.8-9.3-0.8c-0.8-0.8-9.3-0.8-12.6-0.8
		c-11,0-22.7,4.2-28.6,13.5c-2.5,5.1-1.7,11,0.8,15.2c1.7,2.5,9.3,13.5,14.3,16.8l-6.7,1.7c-10.1-9.3-17.7-17.7-16-28.6
		c5.1-23.6,27-20.2,32.9-30.3c4.2-9.3,5.9-36.2,0.8-43.8c-14.3-5.9-32-13.5-35.4-30.3c-0.8-4.2,0.8-9.3,5.1-10.1
		c7.6-1.7,12.6,2.5,18.5,5.1c2.5-1.7-2.5-7.6,3.4-7.6c7.6,0,12.6,15.2,15.2,16l-0.8,5.9c-5.1-1.7-23.6-11.8-25.3-12.6
		c-3.4-1.7-7.6-4.2-10.1-0.8c-3.4,4.2,0.8,9.3,3.4,13.5c39.6,41.3,105.3-2.5,148.3,27c0.8-2.5,0-3.4-1.7-4.2
		C171.2,365,124.1,379.3,86.1,370l0.8-5.9c47.2,11.8,109.5-7.6,134,46.3c16,22.7,32.9,59,67.4,59.8c27.8,0.8,46.3-10.1,59.8-30.3
		c18.5-33.7,29.5-72.5,62.3-95.2c3.4-1.7,5.1,0,3.4,0.8c-16,16-30.3,37.1-37.9,54.8c12.6,48,40.4,37.9,47.2,37.1
		c-1.7-17.7,0-69.9,37.9-82.6c8.4-6.7,38.8-26.1,78.4-9.3c-29.5,27.8-47.2,67.4-53.1,95.2l-32.9,9.3c2.5-5.1,2.5-13.5,1.7-22.7
		c-3.4,1.7-6.7,4.2-14.3,8.4c-3.4,0.8-0.8-4.2-0.8-4.2c0-1.7,8.4-5.1,15.2-9.3c-2.5-19.4-4.2-44.7,11.8-60.7
		c-32.9,11-23.6,80-20.2,88.5c-9.3,4.2-21.9,4.2-21.9,4.2l-1.7-11.8c-14.3,5.1-38.8,1.7-49.7-36.2
		C361.6,430.7,351.5,469.4,323.7,479.5L323.7,479.5z"/>
	<path fill-rule="evenodd" clip-rule="evenodd" fill="#F37021" d="M837.6,376.8c-1.7-1.7-2.5-2.5-4.2-2.5c-0.8-0.8,0-1.7,0.8-1.7
		c0.8-0.8,2.5,0,3.4,1.7C838.5,375.1,838.5,376.8,837.6,376.8L837.6,376.8z"/>
	<path fill-rule="evenodd" clip-rule="evenodd" fill="#F37021" d="M83.6,539.4l17.7,20.2c1.7,1.7,1.7,4.2,0.8,5.1
		c2.5-0.8,5.9-5.1,7.6-6.7c-0.8,0.8-4.2,0.8-5.1-0.8l-18.5-20.2c0-0.8,0-0.8,0-1.7c0,0,0,0,0.8-0.8c0-0.8,0.8-0.8,0.8-0.8l26.1,9.3
		c2.5,1.7,3.4,3.4,3.4,4.2c0.8-1.7,2.5-6.7,3.4-8.4c-0.8,0.8-3.4,1.7-5.1,0.8l-26.1-9.3c-0.8,0-0.8,0-0.8-0.8c0-0.8,0-0.8,0-1.7
		c0-0.8,0.8-0.8,0.8-0.8l27-4.2c3.4-0.8,5.1,0.8,5.1,1.7c0-1.7-0.8-7.6-0.8-9.3c0,0.8-1.7,3.4-5.1,4.2l-26.1,4.2
		c-0.8,0-0.8-0.8-0.8-0.8c-0.8-0.8-0.8-1.7-1.7-2.5v-0.8l21.1-17.7c2.5-1.7,5.1-1.7,5.9-0.8c-1.7-1.7-5.1-5.9-6.7-7.6
		c0.8,0.8,0,3.4-1.7,5.9l-20.2,16.8c-0.8,0.8-0.8,0.8-0.8,0c-0.8,0-1.7,0-2.5-0.8c0,0-0.8-0.8,0-0.8l9.3-26.1
		c0.8-2.5,3.4-3.4,4.2-3.4c-1.7-0.8-7.6-3.4-9.3-3.4c0.8,0,2.5,3.4,1.7,5.9l-9.3,25.3c0,0.8-0.8,0.8-0.8,0.8c-0.8,0-1.7,0-2.5,0
		l-0.8-0.8l-5.1-27c0-3.4,1.7-5.1,1.7-5.1c-1.7,0-6.7,0.8-9.3,1.7c0.8,0,3.4,1.7,4.2,4.2l5.1,26.1c0,0.8,0,0.8-0.8,1.7
		c-0.8,0-1.7,0.8-2.5,0.8h-0.8l-18.5-20.2c-1.7-2.5-1.7-5.1-0.8-5.1c-1.7,0.8-5.9,4.2-6.7,5.9c0.8,0,3.4,0,5.1,1.7l18.5,20.2v0.8
		c-0.8,0.8-0.8,0.8-1.7,1.7c0,0,0,0-0.8,0l-25.3-9.3c-2.5-0.8-4.2-3.4-3.4-4.2c-1.7,2.5-2.5,7.6-3.4,9.3c0.8-0.8,3.4-1.7,5.9-0.8
		l25.3,8.4c0,0.8,0,0.8,0,0.8c0,0.8,0,1.7,0,2.5c0,0.8,0,0.8,0,0.8l-27,5.1c-2.5,0-5.1-1.7-5.1-2.5c0,2.5,0.8,8.4,1.7,10.1
		c0-0.8,0.8-3.4,4.2-4.2l26.1-5.1c0,0,0.8,0,0.8,0.8c0,0.8,0,0.8,0.8,1.7c0,0.8,0,0.8,0,0.8l-21.1,16.8c-2.5,2.5-5.1,1.7-5.1,0.8
		c0,2.5,4.2,6.7,5.1,7.6c0-0.8,0-3.4,1.7-5.1l21.9-16.8c0-0.8,0-0.8,0.8,0c0,0,0.8,0.8,1.7,1.7c0.8,0,0.8,0,0.8,0.8l-9.3,25.3
		c-0.8,2.5-3.4,4.2-4.2,3.4c1.7,0.8,6.7,3.4,9.3,3.4c-1.7,0-2.5-2.5-1.7-5.1l9.3-26.1c0,0,0-0.8,0.8-0.8c0.8,0.8,1.7,0.8,2.5,0.8
		c0,0,0.8,0,0.8,0.8l5.1,26.1c0,3.4-1.7,5.1-2.5,5.9c2.5,0,7.6-1.7,9.3-2.5c-0.8,0.8-3.4-1.7-3.4-3.4l-5.1-27c0-0.8,0-0.8,0-0.8
		c0.8,0,1.7-0.8,2.5-0.8C82.8,538.5,82.8,538.5,83.6,539.4L83.6,539.4z"/>
	<path fill-rule="evenodd" clip-rule="evenodd" fill="#F37021" d="M825.8,380.1c-0.8-0.8,0-1.7,0-2.5c0.8-2.5,1.7-2.5,1.7-5.1
		c-4.2-3.4-5.1-10.1-2.5-11.8c2.5-2.5,11,0.8,11,0.8c7.6-5.9,10.1-10.1,14.3-12.6c5.9,0,17.7,11,17.7,17.7
		c-1.7,2.5-5.9,6.7-12.6,15.2c2.5,5.9,2.5,10.1-1.7,13.5c-0.8,0-2.5,0-4.2-1.7c0.8,8.4,10.1,13.5,13.5,20.2
		c0,13.5,14.3,30.3-1.7,41.3c-3.4,1.7-6.7,4.2-8.4,7.6c2.5,13.5,7.6,27.8,10.1,42.1l-16,0.8c-1.7,5.1-6.7,14.3-5.1,19.4
		c0,0-0.8-0.8,0.8,0c2.5,3.4,3.4,31.2,2.5,33.7c0,3.4,2.5,3.4,0.8,9.3c-1.7,0.8-8.4,5.1-9.3,7.6c-4.2,4.2-16,5.1-16,3.4
		c0-4.2,8.4-9.3,10.1-14.3c1.7-20.2,0-40.4-11-56.4c-4.2-2.5-7.6,4.2-10.1,7.6c4.2,12.6,11.8,26.1,11,40.4c0,4.2,5.1,10.1,2.5,16
		l-13.5,6.7H761c-1.7-2.5-5.1-5.1-4.2-8.4h43.8c0-1.7,4.2-0.8,8.4-7.6c0-20.2-21.1-49.7-17.7-59.8c4.2-12.6,10.1-22.7,16.8-39.6
		l3.4-0.8c-7.6,25.3-18.5,37.9-16.8,45.5c0.8,4.2,2.5,7.6,5.1,12.6l1.7,5.1c0.8,2.5,3.4,8.4,5.1,10.1c2.5,0,4.2-1.7,5.9-2.5
		c0-3.4-2.5-7.6-4.2-10.1l-6.7,2.5l-1.7-5.1c5.1,0,8.4-3.4,4.2-5.9c11.8-5.9-2.5-4.2,1.7-6.7c6.7-3.4,10.1-16,11-23.6
		c0-1.7,0.8-2.5,2.5-2.5c5.1,13.5,5.1,31.2,13.5,43.8v4.2c-0.8,3.4,0,7.6,1.7,10.1c7.6,0.8,6.7-0.8,5.1-10.1c-1.7,0-5.1-0.8-6.7,0
		v-4.2c0.8-0.8,4.2,0,5.1-0.8c-2.5-4.2-2.5-7.6-2.5-11.8c0-2.5,1.7-7.6,3.4,3.4c2.5,0.8,6.7-19.4,7.6-26.1c-16,3.4,0-15.2-11.8-16
		l5.9-10.1c0-3.4-2.5-5.9-6.7-4.2L830,456c-2.5-0.8-5.1-5.1-8.4-7.6c-2.5,2.5-6.7,7.6-7.6,11c-0.8,0.8,1.7,1.7,2.5,0.8
		c2.5-2.5,4.2,2.5,8.4,1.7c1.7-1.7,6.7-2.5,5.1-5.9l3.4,4.2c-3.4,1.7-3.4,7.6-3.4,11.8c-5.9,11-3.4-5.9-10.1-5.9
		c-4.2,2.5-5.9-4.2-8.4-3.4l-3.4,0.8c0-5.9,0.8-12.6,0-19.4c5.1-28.6,11-27.8,11.8-36.2c0-3.4,12.6-10.1,11.8-13.5
		c0.8,0,2.5,2.5,2.5,3.4c-0.8,4.2-9.3,4.2-8.4,13.5c5.1-9.3,19.4-8.4,20.2-19.4c-2.5-6.7,3.4-2.5,3.4-9.3c-1.7-1.7-6.7-6.7-7.6-9.3
		c-0.8-0.8,2.5-5.9-9.3-5.9c-0.8,0.8-1.7,5.9-3.4,8.4c-0.8,0.8-2.5,2.5-1.7,3.4c0,0.8,1.7,1.7,1.7,5.1c-0.8,3.4,0,5.1,1.7,6.7
		c6.7,3.4,11.8,0,4.2,4.2c0,0.8,0,1.7-0.8,2.5c0-0.8-2.5-4.2-3.4-5.1c-0.8,0-5.1-2.5-4.2-5.9C827.5,383.5,827.5,381.8,825.8,380.1
		L825.8,380.1z"/>
	<path fill-rule="evenodd" clip-rule="evenodd" fill="#F37021" d="M599.2,348.1c0.8,5.9-2.5,10.1-2.5,16c5.9,14.3,0,25.3,1.7,38.8
		c-6.7-4.2-8.4-15.2-11-27c-1.7-10.1,0.8-13.5,1.7-24.4L599.2,348.1L599.2,348.1z"/>
	<path fill-rule="evenodd" clip-rule="evenodd" fill="#F37021" d="M581.5,352.3c-0.8,17.7-3.4,26.1,9.3,53.9
		c-32,13.5-58.1,22.7-96,33.7c4.2-27,30.3-78.4,52.2-92.7C565.5,352.3,581.5,352.3,581.5,352.3L581.5,352.3z"/>
	<path fill-rule="evenodd" clip-rule="evenodd" fill="#F37021" d="M499,550.3c-8.4,2.5-8.4,7.6-3.4,12.6c3.4,2.5,6.7,6.7,6.7,7.6
		h-53.9c0,2.5,2.5,4.2,4.2,8.4h298.2c1.7-4.2-3.4-9.3-5.1-14.3c-21.1-7.6-21.1-27-21.9-48.9c0-0.8-1.7-3.4-1.7-7.6
		c-2.5-3.4-16.8-37.9-10.1-65.7l5.1-9.3c4.2-5.9-0.8-9.3,2.5-16l62.3-11.8c0.8-0.8,0.8-3.4-0.8-4.2l0,0c0-0.8,0.8,0,0,0l-60.7,11
		c3.4-15.2-10.1-20.2-4.2-32.9c8.4,9.3,31.2,25.3,43,27.8l5.9-0.8c-15.2-6.7-42.1-22.7-57.3-43.8c-1.7,0-3.4-1.7-5.1-2.5
		c0,1.7,4.2,6.7,3.4,7.6c0,0-10.1,6.7-28.6-1.7c-5.9,11.8-71.6,41.3-71.6,41.3c2.5,18.5,11,30.3,20.2,40.4c0.8,1.7-2.5-1.7,0,0
		c13.5,11,29.5,16,47.2,19.4c3.4,10.1,16,43,16.8,48c1.7,5.1,4.2,5.1,4.2,5.1c1.7,1.7,7.6,12.6,7.6,16.8l1.7,17.7
		c0.8,4.2,5.9,0.8,6.7,5.1l-2.5,11h12.6c-6.7-5.9-2.5-16-11-20.2c-0.8-10.1-1.7-17.7-5.9-21.9c-3.4-10.1-14.3-37.1-21.1-61.5
		l4.2-5.9c-18.5,5.1-32.9-1.7-49.7-11c-12.6-5.9-5.1-0.8-0.8-3.4c20.2,9.3,30.3,6.7,45.5,5.1c1.7,2.5,5.1,5.1,5.1,9.3l-4.2,5.9
		c4.2-4.2,7.6-1.7,10.1,10.1c3.4,10.1,6.7,17.7,9.3,26.1c3.4,8.4,5.9,19.4,8.4,25.3c0,0,2.5,0,4.2,3.4c5.9,18.5,7.6,21.1,6.7,29.5
		c1.7,6.7,11,0.8,10.1,9.3H509.9c3.4-13.5-4.2-25.3,0-37.9c-8.4-13.5-29.5-23.6-26.1-42.1c10.1-14.3,43-28.6,35.4-45.5
		c30.3-15.2,45.5,10.1,73.3,7.6c10.1,0,21.1-1.7,30.3-4.2c-11.8-9.3-21.9-23.6-27.8-36.2c-59,24.4-116.3,43.8-179.4,56.4l-5.1-1.7
		c-5.9,0.8-101.9,22.7-98.6,27c-36.2,2.5-78.4,17.7-87.6,22.7c-4.2,2.5-5.1,4.2,0,5.9c38.8,10.1,70.8,2.5,130.6-20.2l-4.2-3.4
		c-3.4,2.5-52.2,19.4-71.6,21.9c-20.2,2.5-37.9,1.7-46.3-0.8c-2.5-0.8-2.5-0.8-0.8-1.7c37.9-15.2,111.2-28.6,121.3-16
		c5.9,1.7,10.1,5.1,13.5,9.3c3.4,4.2,10.1,2.5,15.2,1.7c6.7-1.7,7.6-7.6,7.6-13.5l-7.6-0.8c-3.4,0-16.8,1.7-18.5,3.4
		c-5.1-4.2-10.1-8.4-16.9-10.1c13.5-5.9,35.4-11,47.2-11.8c-11,7.6-5.9,16.8-11.8,18.5l7.6,0.8c0-3.4,0-5.9,1.7-7.6
		c7.6-18.5,39.6-21.1,55.6-25.3c0,0-8.4,11-14.3,13.5c-1.7,26.1-11,48.9-12.6,75c7.6,0,7.6,8.4,9.3,13.5c-2.5,4.2-5.9,0-9.3,0.8
		c-11.8-5.9,2.5-16-6.7-24.4c5.1-21.1,12.6-42.1,12.6-64c-3.4,0-4.2,3.4-5.9,5.9c-2.5,21.1-8.4,40.4-13.5,59.8
		c1.7,1.7,5.9,3.4,5.9,6.7c-6.7,4.2,0,11.8-2.5,16.8H333l-7.6,8.4h116.3l0.8-4.2c-16.8-18.5-11-45.5-2.5-65.7l20.2-27
		c16.8-6.7,27-27,44.7-33.7c0,9.3-11,12.6-16.8,17.7c-6.7,14.3-26.1,16-28.6,32c7.6,8.4,18.5,14.3,27.8,21.9
		c9.3,5.9,6.7,18.5,13.5,24.4C502.3,546.1,500.6,549.5,499,550.3L499,550.3z"/>
	<path fill-rule="evenodd" clip-rule="evenodd" fill="#F37021" d="M627.9,246.2c-3.4,5.1-10.1,8.4-5.9,17.7
		c-8.4,5.1-5.9,12.6-3.4,16.8c-4.2,4.2-6.7,12.6-0.8,17.7c-6.7,7.6,1.7,14.3,4.2,16.8c-3.4,7.6,0,13.5,0,13.5l0,0
		c-0.8,5.1-10.1,13.5-13.5,16c-5.1,12.6-3.4,38.8-2.5,56.4c23.6-11.8,47.2-22.7,65.7-38.8c-16-11-28.6-37.1-46.3-35.4
		c-1.7-18.5-9.3-51.4,16.9-85.1c3.4-1.7,8.4-2.5,11-4.2c-11-1.7-25.3,5.1-35.4-0.8C617.7,236.9,622.8,245.3,627.9,246.2L627.9,246.2
		L627.9,246.2z"/>
	<path fill-rule="evenodd" clip-rule="evenodd" fill="#F37021" d="M684.3,237.7c0,0.8,3.4,2.5,3.4,2.5s3.4-0.8,3.4-1.7
		c0-0.8,0.8-3.4,0-4.2c-0.8,0-3.4-0.8-5.1-0.8C686,233.5,684.3,236.9,684.3,237.7l-1.7,1.7l-11.8-8.4l1.7-1.7c0,0,5.1-5.1,7.6-5.1
		c2.5-0.8,16,0,19.4,2.5c2.5,2.5,4.2,4.2,7.6,10.1c9.3,6.7,24.4,6.7,33.7,14.3c-1.7,2.5,2.5,6.7-0.8,8.4c-2.5,0.8-8.4-0.8-9.3,0.8
		l-0.8,5.1l-3.4-0.8c0,0,1.7-5.9,0-5.9c-1.7-0.8-5.1-2.5-6.7-1.7c-0.8,0.8,0,1.7,0.8,3.4c0,1.7,4.2,2.5,6.7,1.7l3.4,0.8l4.2,0.8
		c-1.7,4.2-2.5,5.9-8.4,4.2c-1.7,4.2,7.6,7.6,8.4,9.3c-0.8,1.7-2.5,3.4-8.4,0c0,0-24.4,23.6-38.8,30.3c-15.2,6.7-0.8-3.4-0.8-3.4
		c6.7-2.5,36.2-27.8,36.2-30.3c-0.8-1.7-2.5-5.1-2.5-7.6c-4.2-1.7-12.6,0.8-16,3.4c1.7,7.6,15.2,45.5,5.1,102.8l-1.7-1.7
		c9.3-55.6-5.9-100.3-5.9-100.3c-8.4,3.4-14.3,0.8-18.5,1.7c-1.7,34.5,26.1,39.6,16,85.1c-29.5-5.1-50.5-41.3-67.4-37.9
		c-0.8-5.9-6.7-16-0.8-19.4c-1.7-5.1-3.4-11.8,4.2-16c-2.5-6.7-3.4-12.6,4.2-17.7c-1.7-4.2-0.8-13.5,8.4-15.2
		c0.8-7.6,4.2-13.5,11-16c-7.6-3.4-9.3-11-9.3-11c6.7,4.2,12.6,6.7,22.7,5.1L684.3,237.7L684.3,237.7z"/>
</g>
</svg>
