<?xml version="1.0" encoding="utf-8"?>
<!-- Generator: Adobe Illustrator 18.1.0, SVG Export Plug-In . SVG Version: 6.00 Build 0)  -->
<!DOCTYPE svg PUBLIC "-//W3C//DTD SVG 1.1//EN" "http://www.w3.org/Graphics/SVG/1.1/DTD/svg11.dtd">
<svg version="1.1" id="Layer_1" xmlns="http://www.w3.org/2000/svg" xmlns:xlink="http://www.w3.org/1999/xlink" x="0px" y="0px"
	 viewBox="0 0 870.6 870.5" enable-background="new 0 0 870.6 870.5" xml:space="preserve">
<g>
	<g>
		<path d="M109.2,434.2v-49.4c0-6.4-3.3-13.5-19.5-13.5v-4.2h61.6v4.2c-16.2,0-19.5,7.1-19.5,13.5V496c0,6.4,3.3,13.5,19.5,13.5v4.2
			H89.7v-4.2c16.2,0,19.5-7.1,19.5-13.5v-52.7H42.1V496c0,6.4,3.3,13.5,19.5,13.5v4.2H0v-4.2c16.2,0,19.5-7.1,19.5-13.5V384.8
			c0-6.4-3.3-13.5-19.5-13.5v-4.2h61.6v4.2c-16.2,0-19.5,7.1-19.5,13.5v49.4H109.2"/>
		<path d="M156.5,469.2h5.1c6.9,20.6,22.4,39.2,45.9,39.2c17.9,0,30.1-15.5,25-32.8c-9.1-31-69.6-32.3-69.6-74.7
			c0-21.9,17.5-37,39.2-37c23.5,0,34.1,16.4,39.4,0h4.6l4.9,47.2h-5.5c-5.1-20.6-19.7-38.1-40.3-38.1c-13.3,0-23.3,7.3-23.3,21.3
			c0,12.8,14,21.9,23.5,27.7c30.1,18.2,50.5,27.7,50.5,54.3c0,19.9-16.6,40.5-46.7,40.5c-23,0-39-16.2-41.2,0h-4.9L156.5,469.2"/>
		<path d="M329.2,432.7c22.4,0,35.4-9.5,35.4-27.5c0-16.9-10.6-25.9-26.1-28.8c-20.4-1.3-27.5-1.8-27.5,6v50.3H329.2 M311,493.8
			c0,7.8,2,11.7,18.2,11.7c23,0,40.1-6.9,40.1-32.8c0-26.4-26.4-31.2-47.2-31.2H311V493.8z M288.4,384.8c0-6.4-3.3-13.5-21.3-13.5
			v-4.2h59.4c34.1,0,60.7,9.1,60.7,37.5c0,18.6-12.4,28.1-29.5,31.9v0.4c19,3.5,37,15.3,37,36.6c0,26.6-23,40.3-57.8,40.3h-69.8
			v-4.2c17.9,0,21.3-7.1,21.3-13.5V384.8z"/>
		<path d="M527.7,412.7h-5.3c-6.4-24.4-22.6-41-47.9-41c-36.5,0-52.3,29.5-52.3,69.3c0,31,16.2,64.5,52.5,64.5
			c21.7,0,36.5-7.1,51.8-22.1l3.8,4.4c-13.5,16.6-36.3,27.7-57.6,27.7c-43.2,0-76.2-27.7-76.2-76.2c0-44.1,31.2-76.7,75.8-76.7
			c30.3,0,41.4,18.2,48.7,0.2h4.6L527.7,412.7"/>
		<rect x="647.4" y="363.1" fill="#FFFFFF" width="149" height="149"/>
		<polyline fill="#EE3524" points="647.4,363 796.4,363 721.9,437.5 647.4,363 		"/>
		<polyline fill="#EE3524" points="647.4,512 796.4,512 721.9,437.5 647.4,512 		"/>
		<polyline fill="#EE3524" points="647.4,363 647.4,512 572.9,437.5 647.4,363 		"/>
		<polyline fill="#EE3524" points="796.4,363 796.4,512 870.9,437.5 796.4,363 		"/>
	</g>
</g>
</svg>
