<?xml version="1.0" encoding="utf-8"?>
<!-- Generator: Adobe Illustrator 18.1.0, SVG Export Plug-In . SVG Version: 6.00 Build 0)  -->
<!DOCTYPE svg PUBLIC "-//W3C//DTD SVG 1.1//EN" "http://www.w3.org/Graphics/SVG/1.1/DTD/svg11.dtd">
<svg version="1.1" id="Layer_1" xmlns="http://www.w3.org/2000/svg" xmlns:xlink="http://www.w3.org/1999/xlink" x="0px" y="0px"
	 viewBox="0 0 870.6 870.5" enable-background="new 0 0 870.6 870.5" xml:space="preserve">
<g>
	<path fill="none" d="M318.2,656c7-6.7,17.3-7.2,25.8-3.7c0.7,0.4,1.4,0.8,2,1.2c-0.8-0.7-1.7-1.3-2.8-1.8c-8.5-3.5-18.8-3-25.8,3.7
		l-3.7,4.2c0.3,0.2,0.5,0.4,0.8,0.6L318.2,656z"/>
	<path fill="none" d="M372.5,695.7C372.5,695.7,372.5,695.7,372.5,695.7c-6.3-4.7-14.5-6.9-21.7-10.5c0,0.1,0,0.1,0,0.2
		C357.9,689.1,366,691.3,372.5,695.7z"/>
	<path fill="none" d="M555.2,633.6c11.3-4.6,23,0.8,31.3,7c0,0,0,0,0,0c-8.3-6.3-20.1-11.8-31.5-7.2c-4.6,12.4-17.7,7.6-27.3,7.2
		l0.2,0.2C537.5,641.3,550.6,646.1,555.2,633.6z"/>
	<path fill="none" d="M562,668.3c0.5,0.6,0.9,1.2,1.2,1.7c-0.3-0.6-0.7-1.3-1.3-1.9c-1.8-2.3-5.4-4.8-6.8-7.4
		C556.4,663.4,560.1,665.9,562,668.3z"/>
	<path fill="none" d="M588.2,680.3c0.3,0.8,0.6,1.6,1,2.4C588.8,681.9,588.5,681.1,588.2,680.3C588.2,680.3,588.2,680.3,588.2,680.3
		z"/>
	<path fill="none" d="M307.4,654.7c-2.8-2.1-5.9-4.2-9-5.2c0,0.1,0,0.2,0,0.3C301.5,650.6,304.5,652.6,307.4,654.7z"/>
	<path fill="none" d="M650.3,288.7C650.3,288.7,650.3,288.7,650.3,288.7c1.3-3.4-2.4-6-2.6-9.1c0,0-0.1,0-0.1,0
		C647.6,282.8,651.3,285.4,650.3,288.7z"/>
	<path fill="none" d="M603.9,681.7c-1.8-4.4-5.4-8.3-8.8-11.5l-0.1,0.1C598.5,673.6,602.1,677.4,603.9,681.7z"/>
	<path fill="none" d="M590.8,644.6c12.7-6.6,19.4,10.4,28.8,15.7c0.4,0.7,0.7,1.2,0.7,1.7c0-0.6-0.2-1.2-0.7-2
		c-9.4-5.3-16.2-22.3-28.8-15.7c-19.9,17.9-26.5,43.5-26.7,67.8c-0.3,0-0.6-0.1-0.9-0.1c0.2,0.1,0.3,0.2,0.5,0.3l0.4,0
		C564.3,688.1,570.9,662.5,590.8,644.6z"/>
	<path fill="none" d="M666.8,269.2c1.8,1.4,5.3,3.4,5,5.7c0.8-2.5-3-4.6-4.9-6.1c-8.7-1.5-17.9-3.5-26.7-4.1
		c-0.3,0.4-0.5,0.8-0.6,1.2c0.1-0.3,0.3-0.6,0.5-0.9C648.9,265.7,658,267.6,666.8,269.2z"/>
	<path fill="none" d="M560.5,648.8c0.2,0.4,0.5,0.8,0.8,1.1C561,649.6,560.7,649.2,560.5,648.8C560.5,648.8,560.5,648.8,560.5,648.8
		z"/>
	<path fill="#FFFFFF" d="M564.1,712.5c0,0,0-0.1,0-0.1l-0.4,0C563.8,712.4,564,712.4,564.1,712.5z"/>
	<path fill="#FFFFFF" d="M557.5,712.3l6.1,0.1c-0.2-0.1-0.3-0.2-0.5-0.3C561.2,711.8,559.4,712,557.5,712.3z"/>
	<path fill="#F47626" d="M548.8,712.2c3.1,0.9,5.9,0.4,8.8,0.1L548.8,712.2L548.8,712.2z"/>
	<path fill="#F47626" d="M798.1,332.1c-19.8-24.9-48.5-33.2-69-58.1c-14.7-14.2-20.6-36.9-41.6-43.5c2.3,3.7,6.1,7.3,5,11.8
		c-0.1,0.4-0.1,0.8-0.3,1.2c-9.2,0.7-16.2-4.4-22.7-9.8l0.3-0.4c-0.1-0.1-0.1-0.1-0.2-0.2l5.2-7.4c-29.1-8.1-54.4,6.5-79.1,14.2
		c13.4,7,17.1,21.4,24.7,32.6c7.2-1.7,13.9,2.2,20.9,1.6c0-3-2.6-5.7-1.6-8.2c0.1-0.4,0.3-0.8,0.6-1.2c8.8,0.6,18,2.6,26.7,4.1
		c1.9,1.5,5.7,3.6,4.9,6.1c0,0.2-0.1,0.4-0.2,0.6c-8.3,0.6-16,2.6-23.9,4.1c0.2,3.2,3.8,5.7,2.6,9.1c0,0,0,0,0,0
		c0,0.1,0,0.2-0.1,0.3c-6.4-3.3-14.1-4.4-21.4-5.3c3.9,6.6,10.8,10.2,16.6,14.4c21.3,17.2,51,4.8,76.1,6.3
		c72.4,36.3,119.1,113.3,121.1,192.7c2.2,61.6-19,123.7-76.5,154.8c-16.2,7.4-39.8,9.6-55.5,1.1c17.7-81.9,5.5-170.4-48.3-233.1
		c-19.6-21.2-46.1-45.5-76.7-33c-10.9,5.7-17.7,16.9-16.6,29.3c-6.1,4.8-13.6,8.1-21,10.5c-28.6,10.1-61.4,2-83.5-17.7l-1.1-20.1
		c-6.5-4.1-12.7-11.3-14.2-19.2c4-3.9,9.2,2.9,12.7,3.1c-2.2-9.6-3.7-19.6-8.3-28.4l-11.1-4.1c-6.1-3.3-12.1-10-11.6-16.8
		c4.6,2.8,12.5,3,14.9,5.9c-4.2-15.6-6.6-31.8-11.6-46.8c-3.9-21.7-29.7-26.1-38.9-45.1c-2.4-1.5-5.8-0.8-7.8-3.7
		c-2-2.4-2.5-6.1-2-9c2.6,0.3,4.8,1.8,7.2,2.7c-7.2-19-12.9-42.6-34.1-55.1c-7.9,4-17.5,3.5-26.7,4.2l-1.1-0.9c3.5-5,9.2-7,14.2-9.6
		l-6.3-3.5c-11.6-9.6-18,7.5-29.3,4.2v-6.8c0.8-2.4,2.4-4.6,5.2-4.8c-7.6-2.4-16.2-2.4-23.6,0l-5.9,9c-1.1,7.9-7.2,13.8-13.1,19.5
		c-0.7-9.6,2.8-18.6,5.2-27.3l-17.3,7.2c-10.7-4.8-20.5-11.4-31.8-14.7c2.2,2.2,3.5,5.4,5.3,8.5c0.6,5.9,1,13.1-0.7,18.8
		c-6.4-6.6-12.5-14.2-16.2-22.5c-8.7,0.4-16,4.6-23.6,7.2c5.6,0,11.1,5.7,13.1,10.1H198c-7-2-15.1-2.2-21-5.7
		c-15.3,7.2-30.1,24-34.7,38.7c2.5,0.9,5.8,0.2,7.8,2.6l-14,11.6c-1.4,6.8-2,13.6-1.8,21l-10.9,15.8c-8.8,27.3-11.4,59.8-10.1,88.7
		c-16.8,5.7-4.8,20.9-8.3,31.9c3-5,8.3-9.2,13.1-12c2.2,6.3-2,11.5-0.4,18.3c-3.5,2-5.9,6.3-9.6,7.9c-5,9.6,0.7,19.8,1.1,29.9
		c2.8-5.7,8.5-10.5,14.6-12.3c1.8,6-2.5,11.6-4.1,17.5c-1.3,4.4-7.7,5.5-7.9,10.5c5.5,31.7,15.7,61.9,25.8,91.8l-19.9,45.5
		c-5.4,15.6-8.3,32.2-15.7,46.8l-7.9-3.7c-14.4-6.2-32.8-3.3-43.7,8.5c-6.5-1.1-15.3-1.1-21.4,1.9c-7.4,4.4-14.6,11.2-16.8,19.5
		c3.9,10.7-10.7,14.6-11.6,24.7c-4,15.6,1.7,29.6,9.6,41.1h233.5c-9.6-11.2-13.9-26.5-11.1-40.9l19-34.1c9.8-4,21.2-9.9,31.9-5.7
		c4.4-9.2,13.5-10.9,22.5-10.5c8.5,0.1,16.7,2.6,23.2,7.5c3.9,2.8,7.2,6.4,9.8,10.8c-12.9,0.6-25-9.9-38.5-3.1
		c-1.4,4.3-1.4,9.7-2,13.9c3.2,1.1,6.2,3.1,9,5.2c2.3,1.7,4.4,3.5,6.3,5l3.7-4.2c7-6.7,17.3-7.2,25.8-3.7c1.1,0.5,2,1.2,2.8,1.8
		c9.8,7.1,4.9,20.9,4.8,31.6c7.2,3.6,15.3,5.9,21.7,10.5c0,0,0,0,0,0c0.3,0.2,0.6,0.4,0.8,0.6c-8.3,7.6-20.7,6.1-29.9,1.1
		l-10.5,14.1h177.5l-7.2-12c-8.5-23.4,8.8-44.2,21-62.3l1.9,1.9l1.7,1.7c9.6,0.4,22.7,5.2,27.3-7.2c11.4-4.6,23.2,0.9,31.5,7.2
		c0,0,0,0,0,0c0.1,0.1,0.1,0.1,0.2,0.2c-2.4,7.4-10.9,1.5-15.7,2.6c-0.4,3.3,3.1,6.4,1.1,9c-3.9,1.3-8.5,0.3-10.8-2.5
		c-0.3-0.3-0.6-0.7-0.8-1.1c-0.7,2.2-2.4,3.8-3.7,5.8c-2.5,2.1-2.6,4.1-1.7,6c1.5,2.7,5,5.1,6.8,7.4c0.6,0.7,1,1.3,1.3,1.9
		c2.2,4.5-2.9,8.6-4.7,12.5c-3.7-0.2-5.1-5.6-9-5.2c0,0,8.3,30.8,13.7,34.8c0.3,0,0.6,0.1,0.9,0.1c0.2-24.3,6.8-49.9,26.7-67.8
		c12.6-6.6,19.4,10.4,28.8,15.7c0.5,0.8,0.7,1.4,0.7,2c0.2,2.2-2.8,3.2-4.2,4.6c-6.1,2.4-9.8-3.5-14.2-6.8l-6.7,10.4
		c3.4,3.2,7,7.1,8.8,11.5c0.5,1.1,0.8,2.2,1.1,3.3c0,5.5-3.7,10.9-8.3,13.1c-3.1-4.9-5.4-10-7.6-15.5c-0.3-0.8-0.6-1.6-1-2.4
		c-3.5,0-5.7,4-7.9,6.4c-2,8.4-4.5,16.7-5.7,25.5h89.2c12-1.6,25.1-0.5,34.1-9c16,2.8,32.2,1.8,47.7-1.1
		c45.7-6.6,84.1-47.2,104.9-87C893,520.6,864.3,406.5,798.1,332.1z M637.2,250.7l-9.6-3.3c6.3-2.8,12.9-7.2,20.1-9.4
		c5.2,3.3,11.7,5.7,15.7,10.5C654.4,254,645.5,244.6,637.2,250.7z M708.9,280.1c-3.5-4.4-8.3-7.7-13.6-9
		c-4.8-4.6-8.3-10.1-15.3-11.4c4.6-2.9,10.9-3.3,16.8-3.7c6.6,6.9,10.8,14.8,12.7,23.6L708.9,280.1z M39.4,673.6
		c-3.5,0.5-6.6-3.5-10.5-3.7c-6.4,10.5,1.3,22.5-3.1,33.6c-3.7-1.1-7.4-3-9.6-6.8c-0.7-10.9-2-21.6,0-31.5l13.7-14.7
		C38.5,654.9,40.5,664.8,39.4,673.6z M443,476.8c-11.3,5.9-23.4-1.1-33.7-5.2c-2.2-1.6-3.9-2.7-4.8-5.3c5.7,0.2,11.6-8.8,16.4-1.1
		C429,467.2,435.8,473.8,443,476.8z M365.2,458.1c-5.7,2-11.8-0.9-16.2-4.8c-8.3-7-9-18.2-10.5-28.2c8.5,5.2,20.8,10,18.8,22.9
		L365.2,458.1z M355.8,499.4c5.2-0.7,6.3,5.8,9.4,8.9c5.5,3.9,11.6,6.1,16.8,10.1c-17.1,9-34.5-3.9-47.6-14.2
		C340.7,501.8,349.2,502.7,355.8,499.4z M369.6,482.7c4.8-3.9,11.4-3.3,17.3-4.8l8.9,13.1l10.5,10.1
		C390.6,506.6,378.5,493,369.6,482.7z M359.4,566c11.9,4.6,19.7-17.7,30.4-3.1c7.7,2.4,17.5,2.6,21,11.6l3.7,9.4
		c-12.6,4.8-16.4-17.9-27.8-6.8c-9.4-3.3-19.9-6.3-28.4,0.9c-2.4,1.3-5,3.7-7.9,2.2C350.2,574.8,355.9,570.6,359.4,566z
		 M426.6,419.7c-2.4,1.7-5-1.3-7.9-1.1c-5.7-0.9-13.3,2.4-16.2-4.8l-2.2-5.3c3.9-1.3,8.8-3.7,13.8-2
		C418.7,409.9,422.6,415.6,426.6,419.7z M398.8,354.5c3.5,2.2,3.5,10.7,9.4,8.3c4.2,5.7,6.6,11.8,9,17.9c-2.2,1.8-5.7,1.3-7.9,0
		c-4.2-3.3-7-6.1-10.5-10.5V354.5z M387.8,428.5c4,3.9,9.2,7.2,12.1,11.6c-7.2,0.4-18.2,2.4-23.2-4.6
		C380.2,432.4,383.5,429.2,387.8,428.5z M382,324.1c-3.7,0.2-6.3,2.4-9.8,3.1c0.6-9.8,2.2-21,4.6-30.8
		C382,303.8,387,314.3,382,324.1z M186.1,321.3c-3.3-6.7-6.6-13.3-7.4-21h3.7c-2.2-13.3-2.8-29.1,0.5-42.6
		c-14.4-5.5-23-20.5-27.3-34.5c1.3-9.6,7.2-17.5,12.2-25.8c10.5-0.8,17.1-13.1,28.9-9.8c5.2,2.3,11.1,3.9,17,5.4
		c-0.9,6.3,5.5,7.4,9.4,9.8c5.2,5.7,5.9,16.8,15.7,16.8c8.7,0,19.2,1.5,26.7,6.8c10.7-6.6,24.9-9.2,37.4-6.8
		c2-13.8,11.6-22.9,24.1-28.2c10.9-2.9,19,4.6,28.8,5.7c9.8,7,12.5,18.1,16.8,27.8c-0.2,14.4-5.9,28.8-18.8,35.6l-5.9,1.7
		c3.3,11.6,1.3,24.3-4.1,35c3,0.7,6.5-0.4,9-3.1c1.1,4.4-1.5,9.6-1.1,15.3c-3.3,9.8-14.6,16.2-16.2,26.7c-4.1,5-9.2,10.1-15.3,10.9
		c-1.1,1.5-0.2,3.9,1.5,4.4c21.6,0.2,40.4,6.8,58.4,16.2l0.5,9.4c-17.1-10.5-37.2-15.7-57.3-17.7c-1.3,3.3-1.3,7.2-2,10.9
		c17.1,7.7,33.9,17.3,48.7,30.4c0.9,2.8,0.9,8.3,0,11.1c-16.4-13.8-32.8-27.3-52-34.1c-5.2,4-9,17.7-16.6,7.2
		c-9.4-6.6-19.6-10.7-31-12.5c-3.7-3.9-3.5-9.6-4.1-14.8c6.4-1.9,10.9-9.4,12.4-15.7c3.7-0.2,10.7,3.5,12.3-3
		c1.5-5.5-2.4-9.4-6.4-11.6c-15.7-2.8-34.5-6.5-48.3,3.3c-0.9,3.5-1.5,9.4,3.7,10.5c2.8,0.2,5.5-0.4,7.9-1.8
		c0.7,6.1,3.7,15.1,11.6,17.5c-1.3,5.9,0.5,14.9-7.4,16.2c-13.6,1.3-25.1,7-36.7,13.1c-5.9-2.2-8.3-7-13.1-11
		c-17.3,7.2-33.3,17.9-48.3,30.8c-1.7-4.8-1.1-8.1-0.4-12.5c13.3-12.9,29.7-17.9,45-25.8v-11.6c-8.7-2.4-17.5,0-26.2,2.2l-1.1-1.1
		c-8.8,5.5-19.7,7.6-28.2,14.6c-1.6-5.2-0.4-12.6,6.3-14.2c15.3-7.4,31.9-12,50.7-11.4C202.7,334.8,190.2,329.6,186.1,321.3z
		 M309.3,483.6l-0.7,0.6c-6.3-3.5-18.8-5.9-17.3-15.8c3.3-4.1,8.1-8.4,11.6-11.9C304.9,465.5,304.7,475.5,309.3,483.6z M213,440.7
		l-1.5,18.4c-6.3-7.7-10.7-17.7-12-27.3C203.9,435.1,208.9,437,213,440.7z M194.2,464.4c-11.4-2.6-21-13.3-26.2-22.7
		c-1.3-5-1.8-11.2-1.5-16.2c5.4,2.4,13.9,6,13.5,13.5C185.4,447.3,192.7,454.5,194.2,464.4z M178.8,482.7
		c-1.3,10.3-10.1,19-17.3,25.6c-1.3-7.7,2.2-16.2,3.3-24.1C167.7,480.5,174.9,480.1,178.8,482.7z M192.1,500.4
		c1.5,0.9,3.6,0.4,5.2,0.7c-0.6,7.4-3.5,15.5-6.1,22.9c-5.7,6.6-17.5,5.1-24.7,3.7C177.8,522,186,511.1,192.1,500.4z M157.4,460
		c-4.4,7.7-13.1,10.3-16.2,18.4h-1c-0.9-7.7-5.9-17.1,4.6-21.9C149.5,456.5,153.7,458,157.4,460z M145.9,249.2l2.2-1.1v15.1
		l-10.1,5.9C136.7,261.9,139.5,253.8,145.9,249.2z M134.2,299.9l4.4-8.7c3.7-1.2,7.7-2.2,11.4-3.3c-9.4,5.9-2.6,18.4-6.8,26.2
		l-3.7,19C137.9,321.9,127.7,311.2,134.2,299.9z M73.9,672.5c-2.2-5.4-6.1-11.4-12.5-13.1c-7.2,9.6-5.9,23.6-5.2,35.8
		c-3.3,2.9-6.8,5.4-10.5,7.2c-7.9-23.8-0.9-49.6,13.5-68.2c4.9-0.3,9.9-1,14.7-1.5c-3.9,3.3-3.1,8.3-4.6,12.7
		c2.4,3.5,7.7,1.3,9.4,5.7C79.6,658.4,80.2,668.4,73.9,672.5z M113.9,696.2c-1.7-10.3,2.6-19.2,4.6-28.9c-6.1,0.6-14.2-10.5-17.7,0
		c-3.3,12.5-16.2,21.2-18.4,34.1l-1.1-1.5c-0.7-18.8,1.9-36.5,10.1-51.8c8.1-8.6,20.5-14.9,31.5-9c-1.3,2.6-3.7,4.8-5.3,7.2
		c5.5,3.3,12.7,8.3,14.7,14.9C133.4,675.8,122.5,686.1,113.9,696.2z M170.5,665.1c-7.6-12-6.5-31-24-37.4
		c-9.9-3.3-18.8-11.2-29.5-8.7c-1.1-5.5,3.5-10.3,7.4-13.8c6.8-1.6,9.8,5.6,16.8,3.8c2.2,8.8,17.3,4.4,15.1,15.7
		c-0.6,2.4-2.6,4.4-2,7.4c4.8,2.8,11.8,0.4,16.2,4.6C178.4,645.4,173.6,655.7,170.5,665.1z M188.9,639c-4.4-4.2-1.5-12.7-6.8-16.4
		c-0.5-3.3,5.9-6.3,1.9-10.5c-3.3-2.6-8.1-1.5-12-2.6c-9.9-4.8-18.4-13.1-27.8-19.9c-5.9-1.1-11.6,1.8-16.8,3.7l-3-4.1
		c5.2-4.2,5.9-12,13.1-13.8c20.4-0.9,28.7,20.5,46.2,26.9c-0.9,10.2,12.9,6.3,13.1,16.2C202.3,627.5,191.7,632.7,188.9,639z
		 M205.2,601.2c-3.9-7.5-9.4-18.8-19.2-20.6c-5.9-2.9-10.3-8.7-13.8-14c-10.5-4.4-22.3-4.6-33.4-1.7c-2-4.4,3.9-7.9,6.8-12l3.1-3.7
		c9.7,4.3,24.3-0.7,30.2,10.4c5.3,3.3,10.7,5.7,15.3,10.1c-1.3,2.2,0,4.8,2.2,6.3c4.6,2,7.9,5.7,8.8,10.5V601.2z M225.2,525.5
		c-7.4,2.8-15.7,5-24.3,3.3c8.5-7.8,19-13.8,26.9-22.5h11C237.3,513.3,232,521.6,225.2,525.5z M226.2,457.4l13.8,4.3l3,20.4
		C234,476.8,227.5,467.7,226.2,457.4z M231.4,549.8c5.9-9.4,16.2-16.8,19.5-27.8c4.8-3.5,12.3-2.2,17.3-3.3
		c-3.6,13-14.1,25.7-28.3,28.5L231.4,549.8z M253.5,579.1l-9.4-11.6c6.3-0.4,15.9,1.3,22.5-1.5c1.8,3.7,3.1,7.4,3.7,11.6
		C265.7,580.4,258.7,581.1,253.5,579.1z M264.6,489.5c-2-5.3-2.6-11.2-3.7-16.8c5.3-2.4,10.3-7.2,14.2-12
		C274.9,470.5,274.7,484,264.6,489.5z M282.4,410.8c-1.3,6.1-3.5,12.2-4.1,18.4c-4.6,1.7-9.4,2.8-14.7,3c-1.3-6.6-4.2-12.5-4.2-19.5
		l-1.1-0.9c-2.4,1.5-2.7,5.3-3.3,8.3l-6.1,10.5c-4.6-1.7-10.7-0.5-13.1-5.7c-1.1-5.2,2-10.2-0.6-14.8l-8.3,7.4
		c-6.1-6.3-8.1-16.1-6.3-25.8c23.7-10.6,59.7-11.5,82.3,2.7c-2.2,10.3-4.4,21.4-13.1,28C288.1,418,285,414.1,282.4,410.8z
		 M302.9,572.3c-5.5-2.4-10.1-8.1-9.4-14.2c3.5-1.1,7.9,0.2,11.4-1.1l7.8,16.8C309.9,575.3,305.9,573.4,302.9,572.3z M311.2,531.9
		c-10.5-3.9-11.6-17.5-22.1-21.4c-0.7-2.2-2.8-3.9-1.9-6.8l22.9,5.7c4.8,6.1,12.7,12.7,18.4,18.8
		C323.5,531.1,317.8,533.9,311.2,531.9z M328,477.9c-8.8-7-7-20.1-4.1-29.9l3.7-9c7.2,11.8-1.4,32.1,17.6,37.4l0.7,1.5
		C340.2,478.8,333.2,481,328,477.9z M334.3,611.2c0-5.3,3.5-10.5,5.2-15.7c9.3-4.1,19.1-7,30-7.9c0,0.6,0.7,1.5,1.5,1.5
		c18.2,0.2,36.5,1.5,47.6,16.2c0,2.6,0,5.9,0,7.9c-6.8-4-14.8-4.6-21-10.5c-12.2-3.3-22.1-0.4-34.1,1.5c-0.6-2.4-1.7-5.7-5.2-3.5
		C350,603.3,341.3,605.3,334.3,611.2z M376.8,673.7c-4.6-7.6-2-23.8-16.2-22.1c-2.6-2.2-5.5-3.9-7.9-6.8c5-2.6,13.5-4.6,16.2,3.3
		c0.7,1.5,0.4,4.6,3.3,4.6c6.8-2.7,8.8,3.9,9.8,8.5C384,666.1,381.4,671.1,376.8,673.7z M428.7,663.7c-3.9-7.9-6.6-19-16.8-21.6
		c-2.4-3.9-3.3-9.6-7.9-13.1c-4.8-0.4-10.2-2.6-14.6-1.1c2.6,5.3,10.3,9,7.2,15.7c4.4,4,11.2,5.5,13.1,11.6v13.8l-9.4,6.1
		c-1.1-9.9,1.3-22.7-9-28.2c-12,0.7-11.8-14-21-18.4c-8.1,4.4-18.8,2.2-27.1,5.7c1.5-4.6,1.7-11.2,7.9-12.5
		c8.1-5.7,20.1-1.7,28.2-7.4c13.8,0.2,25,7,37.4,10.5c10.9,3.7,3,19.7,15.7,19.5l1.5,1.9C432.2,652.1,431.1,658,428.7,663.7z
		 M449.8,643.6c-1.3-5.9-13.1-10.5-6.4-18.4c0.2-13.1-7-24.5-9-37.6c20.2,8.3,14.3,30.2,16.9,47.2
		C450.9,637.7,450.9,640.9,449.8,643.6z M437,450.6l10.5-5.7l13.8,9.4C453.4,457.1,442.3,456.5,437,450.6z M470.1,481
		c5.3,2.8,9.7,8.7,10.1,14.8c-1.3,2.9-2.6,8.5-5.7,7.9C466.6,498,469.3,488.8,470.1,481z M485,591.2c-1.1-7.4-3.7-15.1-8.5-21.4
		c1.5-2.8,3.9-5.7,0.7-8.3c-2.9-2.8-7.7-2.6-7.9-7.4c-1.9-7.7,5.7-11.4,7.9-17.3c4.1,0.3,3.7,5.6,5.2,8.9c4.6,8.1-5.7,17.7,7.2,21
		C490.5,575.2,486.5,583.1,485,591.2z M496,533.4l-1.5,0.7c-7.9-8.5-7.2-20.8-4.8-31.5c10.8,1.5,4.5,15.7,12,21.4
		C503.7,528.8,499.1,531.7,496,533.4z M516.5,603.4l-2.6,3.1c0.5-7.4,4-16.8-2.6-22.1c-2.2,0-4.6,0.2-5.2-1.9
		c-0.2-10.3,3.3-19.2-4.4-26.9c-0.6-8.5,9.2-9.6,13.8-14.7c3,4.3,0.6,12.2,1.9,17.9c2.2,6.5,4.4,15.1,1.1,21.9
		c2,2.4,4.6,2.4,7.4,2.2C525.9,589.7,520,596.9,516.5,603.4z M537.6,570.8c-2.6,0.5-3.3-2.6-3.7-4.2c-2.7-25.6-15.3-47-24.7-69.9
		l-12-10.9c6.9,0.9,16.3,1.3,18.7,8.9c0.9,9,12.9,6.1,14.6,15.1c1.7,5.3,6.4,9.6,6.4,14.9c-2.4,2.9-8.1,2.2-7.9,7.2
		c4.1,2.6,9.2,5.2,11.6,9.4C540.4,551.6,539.3,560.8,537.6,570.8z M521.7,492.1v-1.5c0.7-0.3,1.1,0.9,2,0.4v1.1H521.7z M515.4,463.3
		c9.6-0.5,14.4,10.9,23.6,12c9,4.8,7.9,14,7.9,22.5C534.9,488,524.6,474.4,515.4,463.3z M558.9,555.1c-3.7-9.8-9.4-18.6-14.2-27.8
		c4.6-5.3,13.8-2.2,15.3,4.6C562.6,539.1,559.3,548.5,558.9,555.1z M662.7,516.1c-7.9,4.2-14.9-3.9-22.5-5.7
		c-4.4-2.6,2.2-8.9-3.7-10c-8.3,0.2-14.2,5.9-22.9,4.8c-0.7,0.7-1.7,0.7-2.2,1.5c-0.9,2.2,2.4,2.6,2.2,4.8
		c-6.4,4.2-13.1,5.3-20.6,3.1c-2.6-3.9-3.7-9-3.1-13.5c4.8-3.3,12.9-1.8,17.3-7.4c11.8-4.4,21.4,3.3,32.6,3.7l5.2-3.4l14,7.9
		L662.7,516.1z M630.8,536.7c-8.5-2.2-17.7-0.7-25.1,2.6c-4.8-1.8-5.9-7.9-7.4-12c9.6-2.4,20.8-7.2,31.9-3.7
		c4.8,0.4,7.8,2.6,8.9,7.2c7.4,4.4,11.8,12,10.5,20.1l-14.2-7.4C636.7,539.8,633.9,536.7,630.8,536.7z M629.7,467.9l1.1,1
		c5.7-0.7,9.8-7.9,16.2-3.7c7,3.9,13.1,11.1,14.2,19c-12.9-6.8-27.5-9.8-42.4-12c-7.9,0.9-13.5,7.9-21.6,8.3
		c-2.8,2.6-5.9,4.8-9.4,6.4c-4.1-3.7-2.8-10.5-3.1-16.4c5.9,0,10.1-4.6,15.1-6.8C611.2,469.8,626.9,448.6,629.7,467.9z M625.6,449.5
		L625.6,449.5L625.6,449.5c-12.6-1.9-26.9-3.9-36.3,5.9c-1.3,0.2-2.6,0.4-3.7,1.1c-1.5-3.1-1.5-8.1,0-11.2c6.1-5,13.1-14.6,22-9.4
		c7.7,1.1,14.7,5,17.9,12.7L625.6,449.5C625.5,449.5,625.6,449.5,625.6,449.5z M582.2,413.5c2.8-4.8,7.7-9.6,13.5-9.4
		c3-0.3,6.5-0.5,7.8,2.5c-0.7,3.3,3,4.6,5.3,5.3c10.3-3.9,14,5.4,17.3,12v1.1c-13.6-3.3-32.1-9.8-44.6-0.6
		C579.3,422.2,581.1,416.7,582.2,413.5z M620.7,636.3l-1.5,1.5l-22.5-9.4c1.5-4.8-2.2-7.5-5.9-9c-5.2-0.4-9.2,6.1-14,3.7
		c5.9-4.6,9.4-18.1,18.8-14.2c2.7,2.3,5.7,3.2,9.4,3.2c3.3,3.7-4.6,9,2.6,10c5.9-0.9,9.8,4.8,12.7,9
		C621.2,632.4,620.7,634.6,620.7,636.3z M634.6,617.3c-3.5-1.5-7.7-4.6-11.2-7.9c0-2,0.7-5.7-1.1-7.9c-7-7.2-18.4-1.3-27.1-3.1
		c-2.4-4.8,1.8-8.1,4.2-11.6c5.3-1.8,10.5-5.3,16.8-3.1c5.2,1.9,9.2,7.4,15.1,7.4C640,597.4,636.8,609.2,634.6,617.3z M641.8,583.2
		c-6.4-8.5-14.4-18.3-26.2-18.8c-5.7,0.9-9.2,6.1-14.6,7.5c5-6.6-0.7-22.7,13.1-20.6c7.5-2.4,7.3,7.2,14.1,6.8
		c5.9-0.2,11.6,2,15.1,6.3C642.9,570.1,642.4,577.7,641.8,583.2z M664.9,652.1l-1.5,1.5c-2.4-8.5-9.6-14.9-14.2-22.5l5.3-11.6
		c4.5,2.6,8.2,7.4,10.4,12c0.2,3.5-2.6,5.7-1.5,9.4C668.8,643.3,668.2,648.6,664.9,652.1z M675.4,621.7c-3.1-3.3-9.8-8.5-9-14.2
		c1.8-3.7,6.4-19.2,11.6-7.4C678.7,606.7,679.1,615.8,675.4,621.7z"/>
	<path fill="#F47626" d="M373.3,696.3c-0.3-0.2-0.6-0.4-0.8-0.6c-8.3,7.7-20.7,6.1-29.9,1.1l-10.9,14.7h1.2l10.5-14.1
		C352.6,702.4,365,703.9,373.3,696.3z"/>
	<path fill="#F47626" d="M338,638c-12.9,0.6-25-9.9-38.5-3.1c-1.3,4.4-1.3,10-2,14.2c0.3,0.1,0.6,0.2,0.8,0.3
		c0.6-4.2,0.6-9.6,2-13.9c13.5-6.8,25.6,3.7,38.5,3.1c-2.5-4.5-5.9-8.1-9.8-10.8C332.6,630.5,335.7,633.9,338,638z"/>
	<path fill="#F47626" d="M313.7,659.6c-1.9-1.5-4-3.3-6.3-5C309.7,656.4,311.8,658.2,313.7,659.6L313.7,659.6z"/>
	<path fill="#F47626" d="M350,684.8c0.3,0.1,0.5,0.3,0.8,0.4c0.1-10.7,5-24.5-4.8-31.6C354.8,660.8,350,674.3,350,684.8z"/>
	<path fill="#F47626" d="M596.6,698c-2.9-4.9-5.3-9.9-7.5-15.3c2.1,5.5,4.5,10.6,7.6,15.5c4.6-2.2,8.3-7.6,8.3-13.1
		c-0.2-1.1-0.6-2.3-1.1-3.3c0.4,1,0.8,2.1,1,3.1C604.9,690.3,601.2,695.8,596.6,698z"/>
	<path fill="#F47626" d="M570.8,643.2c-0.4,3.3,3.1,6.4,1.1,9c-3.8,1.3-8.2,0.3-10.6-2.3c2.3,2.8,6.9,3.9,10.8,2.5
		c2-2.6-1.5-5.7-1.1-9c4.8-1.1,13.3,4.8,15.7-2.6c-0.1-0.1-0.1-0.1-0.2-0.2C584.1,648,575.6,642.1,570.8,643.2z"/>
	<path fill="#F47626" d="M556.6,654.4c-2.5,2.2-2.6,4.3-1.5,6.2c-0.9-1.9-0.8-3.8,1.7-6c1.3-2,3-3.7,3.7-5.8
		c-0.1-0.1-0.1-0.2-0.2-0.3C559.6,650.7,557.9,652.5,556.6,654.4z"/>
	<path fill="#F47626" d="M563.2,712c-5.5-4-13.7-34.8-13.7-34.8c3.9-0.4,5.3,5,9,5.2c1.8-3.9,6.9-8,4.7-12.5c2,4.4-3.1,8.4-4.8,12.3
		c-3.7-0.3-5-5.7-8.9-5.3l-0.7,35.2l8.8,0.1C559.4,712,561.2,711.8,563.2,712z"/>
	<path fill="#F47626" d="M616.1,666.4c-6.1,2.4-9.8-3.5-14.2-6.8l-6.8,10.5c0,0,0.1,0.1,0.1,0.1l6.7-10.4c4.4,3.3,8.1,9.2,14.2,6.8
		c1.5-1.4,4.5-2.4,4.2-4.6C620.3,664.1,617.5,665.1,616.1,666.4z"/>
	<polygon fill="#F47626" points="527.7,640.6 526,639 527.7,640.6 	"/>
	<path fill="#F47626" d="M588.2,680.3c0-0.1-0.1-0.1-0.1-0.2c-3.4,0-5.6,3.9-7.8,6.3c-2,8.5-4.6,16.8-5.7,25.8h0
		c1.1-8.8,3.7-17.1,5.7-25.5C582.5,684.3,584.7,680.3,588.2,680.3z"/>
	<path fill="#F47626" d="M692.1,243.5c0.1-0.4,0.2-0.8,0.3-1.2c0,0.2-0.1,0.4-0.2,0.6c-9.1,0.7-16.1-4.2-22.5-9.6l-0.3,0.4
		C675.9,239.1,682.9,244.2,692.1,243.5z"/>
	<path fill="#F47626" d="M650.3,288.7c-6.6-3.3-14.2-4.4-21.7-5.3c0.1,0.1,0.1,0.2,0.2,0.3c7.3,0.9,15,2,21.4,5.3
		C650.3,288.9,650.3,288.8,650.3,288.7z"/>
	<path fill="#F47626" d="M639.6,265.9c-0.9,2.5,1.6,5.2,1.6,8.2c0,0,0.1,0,0.1,0C641.5,271.1,638.9,268.4,639.6,265.9z"/>
	<path fill="#F47626" d="M647.7,279.3c0,0.1,0,0.2,0,0.3c7.9-1.5,15.6-3.5,23.9-4.1c0.1-0.2,0.1-0.4,0.2-0.6c0,0.1,0,0.1-0.1,0.2
		C663.4,275.8,655.6,277.8,647.7,279.3z"/>
	<path fill="#F47626" d="M187.5,201.3c-11.2,2.7-14.9,14.5-17.3,23.6c-3.3,13.8,14,11.4,20.3,16.8c8.5-8.1,18.3-13.5,28.4-17.9
		C216.7,208.3,199,206.1,187.5,201.3z"/>
	<path fill="#F47626" d="M343.8,252.1c2.6-6.1,10.2-2.1,14.2-6.3c0.8-8,2.6-17,0.4-25.1l-3-6.4c-8.7-5-19.2-16.2-29.9-7.2
		c-6.4,3.5-8.1,9.8-10.1,15.7C327,228.9,339,239.9,343.8,252.1z"/>
	<path fill="#F47626" d="M290.8,255.3c4.4-1.3,10.1,0.7,14-1.5c0.5-1.8-0.2-3.1-1.5-4.2c-5-0.7-7-6.8-10.9-9.4l-10.6-0.6
		c-1.3,1-3.5,0-2.6,2.6C287.7,241.5,286,251.4,290.8,255.3z"/>
	<path fill="#F47626" d="M252.4,240.2c-10.9,1.3-22.7,3.9-28.2,14.6l17.7,0.5L252.4,240.2z"/>
	<path fill="#F47626" d="M213.6,287.4c5.1,0.7,11.4,1.4,15.1-2.6c2,7.9,3.3,17.5,0,25.1c-4.5,7-13.1,6.5-18.3,13.1
		c-2,3.7-2.8,9-0.9,13.1c4.8-1.6,9.2-5.1,14-6.8c0.9-5.9,7.2-9.1,11.6-12c1.1-14.2,5.2-27.3,5.9-41.5c0-3.7-4.4-5.7-7-7.4h-36.8
		l-1.5,1.1l2.6,3.3C206.2,275.4,206.6,283.9,213.6,287.4z"/>
	<path fill="#F47626" d="M283.3,277l3.1,37.8l9.6,7.9c1.3,10.2,13.8,9.4,19.9,16.6c2.4-3.7,5.9-7,6.8-11.4c-6.8-5.3-20-4-20.6-15.3
		c-14.6-2.9-6.5-19.5-10.9-28.9c3.1-3.3,3.8,2.6,6.4,3.7c6.1,1.1,13.2,2.8,18.4-1.5c1.7-9.2,12.9-7.9,15.7-15.3
		C314.9,272.8,295.7,262.9,283.3,277z"/>
	<path fill="#F47626" d="M212.2,355c-0.7,2.2-1.4,5.7,0.4,7.4c5.5-1.1,10.7-4.4,15.3-6.8C222.2,353,218.3,356.1,212.2,355z"/>
	<path fill="#F47626" d="M295,358.3c4.9,2.6,10.9,5,15.1,6.3l1.7-7l-15.7-0.4L295,358.3z"/>
	<path fill="#FFFFFF" d="M625.6,449.5C625.6,449.5,625.5,449.5,625.6,449.5L625.6,449.5L625.6,449.5z"/>
	<path fill="#FFFFFF" d="M521.7,490.6v1.5h2V491C522.8,491.5,522.4,490.3,521.7,490.6z"/>
	<path fill="#F47626" d="M273.2,646.8c-6.7,4.2-21.2,1.8-19.2,14.7c0.4,0,1.3,0.1,1.5-0.5c4.3-2.4,8.9,1.5,9.8,4.6
		c-1.9,7.2-9.8,7.4-14.6,11.1c-4.1,13.6,9,22.8,11.2,35h18.4c-6.8-11.3-8.5-25.5-10.5-38.2C270.3,664.3,272.7,654.7,273.2,646.8z"/>
	<path fill="#F47626" d="M525.2,712.6l10.9-0.6l-11.3-0.1C524.9,712.1,525,712.3,525.2,712.6z"/>
	<path fill="#F47626" d="M540.5,655.2c-4.8,0-8.7,2.2-13.5,2.1l3.5,3.7c2.2,6.6,1.1,14.4-3.1,19.9c-4.8-1.9-5-8-8.3-11.1
		c-2,2.5-4,4.8-4.4,7.9c0.4,12.6,4.4,24.2,10.1,34.1l11.3,0.1l2.2-0.1C537.5,693.8,530.4,671.7,540.5,655.2z"/>
	<polygon fill="#F47626" points="304.8,712.5 304.8,712 295.7,712 	"/>
	<path fill="#F47626" d="M305.9,672.6l-14.2-11.4l-6.1,9.4c-1.1,13.8,3.2,27.9,6.1,41.3l4,0.2l9.1,0l1.7-40L305.9,672.6z"/>
	<path fill="#F47626" d="M337.4,666.7c-2.9-1.7-5.7-3.3-9.5-2.5c-3.7,0.9-4.8,5.7-7.4,8.3l-5.2,39.3h13.2l10-32
		C339.6,676.2,340.9,669.8,337.4,666.7z"/>
</g>
</svg>
