<?xml version="1.0" encoding="utf-8"?>
<!-- Generator: Adobe Illustrator 18.1.0, SVG Export Plug-In . SVG Version: 6.00 Build 0)  -->
<!DOCTYPE svg PUBLIC "-//W3C//DTD SVG 1.1//EN" "http://www.w3.org/Graphics/SVG/1.1/DTD/svg11.dtd">
<svg version="1.1" id="Layer_1" xmlns="http://www.w3.org/2000/svg" xmlns:xlink="http://www.w3.org/1999/xlink" x="0px" y="0px"
	 viewBox="0 0 870.6 870.5" enable-background="new 0 0 870.6 870.5" xml:space="preserve">
<polygon fill="#1D1D1B" points="0,532.6 44.3,532.6 44.3,341.1 0,341.1 "/>
<polygon fill="#1D1D1B" points="124.2,335.6 48.8,410.6 72.7,434.6 47.9,459.9 122.9,534.9 151.4,506.4 80.9,435.9 151.4,365 "/>
<polygon fill="#1D1D1B" points="216.4,382.2 314,382.2 314,341.1 216.4,341.1 "/>
<polygon fill="#1D1D1B" points="210.5,341.1 166.3,341.1 166.3,532.6 210.5,532.6 "/>
<polygon fill="#1D1D1B" points="216.4,532.6 314,532.6 314,491.5 216.4,491.5 "/>
<polygon fill="#1D1D1B" points="520,382.2 627.1,382.2 532.7,476.6 548.5,491.5 520,491.5 520,532.6 672.8,532.6 672.8,491.5 
	572.4,491.5 664.6,399.3 648.8,382.2 672.8,382.2 672.8,341.1 520,341.1 "/>
<path fill="#1D1D1B" d="M870.7,436.8c0-52.4-42.9-95.8-95.8-95.8c-52.4,0-95.3,43.4-95.3,95.8c0,52.4,42.9,95.8,95.3,95.8
	C827.7,532.6,870.7,489.3,870.7,436.8L870.7,436.8L870.7,436.8z M774.9,499.6c-33.9,0-62.4-28.5-62.4-62.8
	c0-33.9,28.5-62.4,62.4-62.4c34.3,0,62.8,28.5,62.8,62.4C837.7,471.2,809.2,499.6,774.9,499.6L774.9,499.6L774.9,499.6z"/>
<polygon fill="#1D1D1B" points="306.3,417.4 216.4,417.4 216.4,458.5 306.3,458.5 "/>
<polygon fill="#1D1D1B" points="464.5,497.4 368.7,341.1 324.4,341.1 324.4,532.6 368.7,532.6 368.7,371.8 467.6,532.6 510.1,532.6 
	510.1,340.2 464.5,340.2 "/>
</svg>
