<?xml version="1.0" encoding="utf-8"?>
<!-- Generator: Adobe Illustrator 18.1.0, SVG Export Plug-In . SVG Version: 6.00 Build 0)  -->
<!DOCTYPE svg PUBLIC "-//W3C//DTD SVG 1.1//EN" "http://www.w3.org/Graphics/SVG/1.1/DTD/svg11.dtd">
<svg version="1.1" id="Layer_1" xmlns="http://www.w3.org/2000/svg" xmlns:xlink="http://www.w3.org/1999/xlink" x="0px" y="0px"
	 viewBox="0 0 870.6 870.5" enable-background="new 0 0 870.6 870.5" xml:space="preserve">
<g>
	<polygon fill-rule="evenodd" clip-rule="evenodd" fill="#E92E2C" points="19,0 306.7,0 306.7,130.7 437.4,0 846.8,0 520.2,326.3 
		846.8,652.2 437.4,652.2 306.7,521.9 306.7,652.2 19,652.2 19,0 	"/>
	<polygon fill-rule="evenodd" clip-rule="evenodd" fill="#E92E2C" points="67.2,794.7 126.4,737.9 184.6,737.9 123.9,795.4 
		124.7,795.4 192.1,870.3 126.4,870.3 67.2,800.7 67.2,870.3 19,870.3 19,693.3 67.2,693.3 67.2,794.7 	"/>
	<path fill-rule="evenodd" clip-rule="evenodd" fill="#E92E2C" d="M198.2,737.9h46.4v23.9c14.6-24.3,34.3-28.6,51.8-28.6
		c20,0,34.3,12.9,41.8,29.6c12.1-20.3,34.3-29.6,52.8-29.6c29.6-0.4,55,17.5,55,56.8v80.3h-46.1v-75c0-18.9-13.9-27.8-25.7-28.2
		c-13.6,0-28.9,13.6-28.9,30.3v72.8h-46.4v-75c0-14.3-7.1-28.2-23.9-28.2c-11.8,0-28.9,11.1-28.9,37.5v65.7h-47.8V737.9L198.2,737.9
		z"/>
	<path fill-rule="evenodd" clip-rule="evenodd" fill="#E92E2C" d="M634.8,737.9h46.1v27.8c8.9-27.5,34.3-32.5,65.3-30v41.4
		c-17.1-1.4-31.4-0.7-42.5,3.9c-11.4,5-21.1,16.8-21.1,29.6v59.6h-47.8V737.9L634.8,737.9z"/>
	<path fill-rule="evenodd" clip-rule="evenodd" fill="#E92E2C" d="M756.5,693.3H804v42.1h39.3v41.8H804v45.7
		c0,17.5,12.9,19.3,39.3,14.3v31.4c-48.9,10-86.7,3.9-86.7-47.1V693.3L756.5,693.3z"/>
	<path fill-rule="evenodd" clip-rule="evenodd" fill="#E92E2C" d="M614.4,870.3h-45.7V850c-10.4,13.2-26.8,23.9-51,23.9
		c-27.5,0-57.1-8.6-56.4-43.2c0-50.3,72.5-43.6,106.4-44.3c0-16.4-8.6-26.1-25.7-26.1c-13.9,0-24.3,6.8-24.3,14.6h-47.8
		c0-27.1,34.3-41.8,72.8-41.8c47.8,0,71.8,17.1,71.8,50.7V870.3L614.4,870.3z M567.7,812.2c-14.6,0.7-63.5-5.4-63.5,18.2
		c0,9.6,8.2,15,21.8,15C544.8,845,567,832.9,567.7,812.2L567.7,812.2z"/>
</g>
</svg>
