<?xml version="1.0" encoding="utf-8"?>
<!-- Generator: Adobe Illustrator 18.1.0, SVG Export Plug-In . SVG Version: 6.00 Build 0)  -->
<!DOCTYPE svg PUBLIC "-//W3C//DTD SVG 1.1//EN" "http://www.w3.org/Graphics/SVG/1.1/DTD/svg11.dtd">
<svg version="1.1" id="Layer_1" xmlns="http://www.w3.org/2000/svg" xmlns:xlink="http://www.w3.org/1999/xlink" x="0px" y="0px"
	 viewBox="0 0 870.6 870.5" enable-background="new 0 0 870.6 870.5" xml:space="preserve">
<g>
	<path fill="#A41E22" d="M280.1,364.6c-19.8,0-24,11.4-24,31.9h48.1C304.1,373.7,299.3,364.6,280.1,364.6z"/>
	<path fill="#A41E22" d="M519.9,248h-0.6H0l76.3,374.4c54.1-25.8,117.8-43.9,188.1-43.9c57.1,0,116.6,13.2,171.3,37.9
		c17.4-9.6,43.9-19.8,84.1-30v-0.1c27.4-4.8,53.8-8.3,92.6-8.3c71.5,0,120.8,13.2,174.9,44.5L869.7,248H519.9z M201.3,478.8h-92.6
		v-137h46.3v104.6h46.3V478.8z M281.9,457.8c18,0,22.2-5.4,22.2-16.8h43.3c-1.2,28.2-19.2,46.3-68.5,46.3
		c-49.9,0-71.5-24.6-71.5-76.3c0-52.9,15.6-73.3,74.5-73.3c54.1,0,68.5,25.2,68.5,85.9H256C256,448.8,260.9,457.8,281.9,457.8z
		 M461,478.8h-57.1l-52.3-137h50.5l31.3,89.6l31.9-89.6h49.3L461,478.8z M572.8,478.8h-45.1V341.2h45.1V478.8z M604.6,364l2.4-13.8
		c-11.4,0-19.8-1.8-19.8-14.4c0-9.6,7.2-16.2,18.6-16.2c11.4,0,19.2,6,19.2,17.4C625.1,347.2,619.1,355,604.6,364z M693.6,481.8
		c-52.9,0-70.3-13.2-70.9-46.3h48.7c1.2,15.6,10.8,21.6,26.4,21.6c13.2,0,18.6-4.8,18.6-15c0-33.7-91.4-1.8-91.4-61.3
		c0-30,22.2-43.3,70.3-43.3c46.3,0,63.1,13.2,63.7,42.1h-46.3c-3-11.4-7.8-16.8-20.4-16.8c-12,0-21,6.6-21,14.4
		c0,32.5,91.4,5.4,91.4,59.5C762.7,471,742.9,481.8,693.6,481.8z"/>
</g>
</svg>
