<?xml version="1.0" encoding="utf-8"?>
<!-- Generator: Adobe Illustrator 18.1.0, SVG Export Plug-In . SVG Version: 6.00 Build 0)  -->
<!DOCTYPE svg PUBLIC "-//W3C//DTD SVG 1.1//EN" "http://www.w3.org/Graphics/SVG/1.1/DTD/svg11.dtd">
<svg version="1.1" id="Layer_1" xmlns="http://www.w3.org/2000/svg" xmlns:xlink="http://www.w3.org/1999/xlink" x="0px" y="0px"
	 viewBox="0 0 870.6 870.5" enable-background="new 0 0 870.6 870.5" xml:space="preserve">
<g>
	<path fill="#83725A" d="M325.2,139.2H631l-10.2,47.6h-24.1c-26.3,0-44.9,2.2-54.9,6.6c-10.4,4.6-19,12.4-25.9,23.7
		c-6.9,11.1-10,33.6-21,64.4L322.5,762.9c-4.9,13.5-4.9,22.6-4.9,25.2c0,7.1,2.7,12.4,7.7,15.9C373,836,576.6,823.3,616,782.6
		c51.8-53.3,104.2-167.5,111.3-180.3l48.7,21.2l-119,244.7H68.3l10-47.1h24.1c25.2,0,71.5-1.8,80.3-6.2c11.7-5.3,21-13.7,28.3-24.3
		c7.3-10.6,11.1-30.3,20.4-56.2l167.3-459.8c6.2-17.3,6.2-33.4,6.2-46.2c0-10-2-17.7-6.4-23.9c-4.2-6.2-10.4-10.6-18.1-13.5
		c-7.7-2.9-22.3-4.2-43.1-4.2h-22.4L325.2,139.2L325.2,139.2z"/>
	<path fill="#83725A" d="M35.1,0h284.8v47.6h-21.7c-20.4,0-33,0.9-38.1,2.2c-7.5,2.4-13.3,6-17.3,11.1c-3.8,4.9-6,10.6-6,17
		c0,10,3.5,24.6,11.3,43.6l220.2,540.8l214-540.8c7.5-19,11.1-33.4,11.1-43.1c0-10.6-3.8-18.6-11.1-23.5c-7.5-4.9-40.3-7.3-63.3-7.3
		h-25.9V0h242.3v47.6c-87.2-1.1-80.6,21.7-101.4,73.9L473.4,780.9h-79.7L131.4,121.5c-8.6-21.5-14.6-35.2-17.9-40.3
		c-5.3-7.7-11.1-14.2-17.7-19c-6.4-4.9-14.4-8.4-23.2-10.8c-9.1-2.7-21.5-3.8-37.4-3.8V0L35.1,0z"/>
</g>
</svg>
