<?xml version="1.0" encoding="utf-8"?>
<!-- Generator: Adobe Illustrator 18.1.0, SVG Export Plug-In . SVG Version: 6.00 Build 0)  -->
<!DOCTYPE svg PUBLIC "-//W3C//DTD SVG 1.1//EN" "http://www.w3.org/Graphics/SVG/1.1/DTD/svg11.dtd">
<svg version="1.1" id="Layer_1" xmlns="http://www.w3.org/2000/svg" xmlns:xlink="http://www.w3.org/1999/xlink" x="0px" y="0px"
	 viewBox="0 0 870.6 870.5" enable-background="new 0 0 870.6 870.5" xml:space="preserve">
<g>
	<path d="M434.8,5.9C196.3,5.9,2.9,199.2,2.9,437.7c0,238.5,193.3,431.8,431.8,431.8s431.8-193.3,431.8-431.8
		C866.6,199.2,673.2,5.9,434.8,5.9z M434.8,833.6c-218.6,0-395.8-177.2-395.8-395.8c0-218.6,177.2-395.8,395.8-395.8
		c218.6,0,395.8,177.2,395.8,395.8C830.6,656.3,653.4,833.6,434.8,833.6z"/>
	<polygon points="159.6,236.9 717.5,236.9 717.5,365.2 504.8,365.2 504.8,715.5 360.9,715.5 360.9,365.2 159.6,365.2 159.6,236.9 	
		"/>
</g>
</svg>
