<?xml version="1.0" encoding="utf-8"?>
<!-- Generator: Adobe Illustrator 18.1.0, SVG Export Plug-In . SVG Version: 6.00 Build 0)  -->
<!DOCTYPE svg PUBLIC "-//W3C//DTD SVG 1.1//EN" "http://www.w3.org/Graphics/SVG/1.1/DTD/svg11.dtd">
<svg version="1.1" id="Layer_1" xmlns="http://www.w3.org/2000/svg" xmlns:xlink="http://www.w3.org/1999/xlink" x="0px" y="0px"
	 viewBox="0 0 870.6 870.5" enable-background="new 0 0 870.6 870.5" xml:space="preserve">
<path fill="#08958F" d="M218.3,218.3C218.3,97.7,316,0,436.5,0c120.6,0,218.3,97.7,218.3,218.3H218.3"/>
<path fill="#08958F" d="M0,436.5C0,316,97.7,218.3,218.3,218.3c0,120.6,97.7,218.2,218.3,218.2c-120.5,0-218.3,97.7-218.3,218.3
	C97.7,654.8,0,557.1,0,436.5"/>
<path fill="#08958F" d="M654.8,654.8c0,120.6-97.7,218.3-218.3,218.3c-120.6,0-218.3-97.7-218.3-218.3H654.8"/>
<path fill="#08958F" d="M654.8,218.3c120.5,0,218.3,97.7,218.3,218.2c0,120.6-97.8,218.3-218.3,218.3
	c0-120.5-97.7-218.3-218.3-218.3C557.1,436.5,654.8,338.8,654.8,218.3"/>
</svg>
