<?xml version="1.0" encoding="utf-8"?>
<!-- Generator: Adobe Illustrator 18.1.0, SVG Export Plug-In . SVG Version: 6.00 Build 0)  -->
<!DOCTYPE svg PUBLIC "-//W3C//DTD SVG 1.1//EN" "http://www.w3.org/Graphics/SVG/1.1/DTD/svg11.dtd">
<svg version="1.1" id="Layer_1" xmlns="http://www.w3.org/2000/svg" xmlns:xlink="http://www.w3.org/1999/xlink" x="0px" y="0px"
	 viewBox="0 0 870.6 870.5" enable-background="new 0 0 870.6 870.5" xml:space="preserve">
<g>
	<path fill-rule="evenodd" clip-rule="evenodd" d="M434.2,863.9C194.4,863.8,0,671.5,0,434.4C0,197.2,194.5,4.9,434.2,5
		c240,0,434.4,192.3,434.4,429.4C868.5,671.6,674.1,863.9,434.2,863.9L434.2,863.9z M78.1,640.4l7.8-6c-22.5-41.1-31.1-68.6-40.9-99
		c-0.9-2.3-1.4-3.8-2.4-5.1c-0.6,1.7-0.3,3.2-0.2,5.2C48.6,568.7,63.7,610.6,78.1,640.4L78.1,640.4z M440.2,47.7l59.1,343.5
		l-61.8,36.2l-2.1-379.5c0-4.5-3-4.5-3.7,0l-34.9,360l-25.9-15l55.5-345C211.4,49.1,41.6,221.7,41.6,435.1
		c0,67.4,21.2,138.2,51.6,193.4l271-225.3l26,14.9L85.9,636.7c-7.3,5.2-5.2,7.7,2.9,3.2l339.8-196.3v70.6L100.5,639.5
		C169.2,751.6,291,823.1,433.1,823.1c141.8,0,265.6-71.6,334.3-183.6L439.8,514.4v-70.6l326.8,188.5c7.5,4.1,9.6,1.8,2.6-3.1
		l-291-211.1l26-14.9L775,628.8c31.1-55.5,51.6-126.4,51.6-194.4C826.6,223.8,651.5,53.4,440.2,47.7L440.2,47.7z M847.7,356.7
		c0.8,2.1,1.4,3.8,2.4,5c0.6-1.7,0.1-3.2,0-5.2C814.3,161.2,645,15.4,435,15.4C200,15.4,9.8,205.9,9.8,440.9
		c0,55.5,14.1,108.4,33.4,156.9c8.9,22.3,37.1,73.3,44.1,83.4c1.5,2.2,2.2,3.2,3.9,4.5c-0.1-2.1-0.2-3-1.3-5.5
		c-1.2-2.1-25.3-47.9-39.2-82.1C38.8,568.7,24,510.2,24,442.4c0-227.9,185-412.9,412.9-412.9c119.2,0.1,231.3,58.3,300,133.7
		C789,220.4,816,258.9,847.7,356.7L847.7,356.7z M91.5,642.8l-9.4,3.5c61,116.6,189,201.4,352.1,201.4
		c231.5,0.1,416.6-187.2,416.6-413.2c0-55.3-16-89.2-24.9-113.7c-6.6-18.4-20.7-46.5-27-58.1c-1.3-2.3-2.2-3.2-3.9-4.6
		c0.1,2.1,0.2,3.2,1.5,5.5c4.9,9.6,15.7,33.8,23.3,58.1c10.4,32.3,16.8,68.5,16.8,112.8c0,70.5-22.1,142.6-54.7,200.1
		c1.8,4.8,0.1,7.1-5.4,8.6c-71.2,114.5-198,189.4-342.4,189.3c-135.6,0-244-72.7-278.2-110.3C128,691.4,107.3,668.6,91.5,642.8
		L91.5,642.8z M412.7,416.9l17.9,10.5l2.3-278.7c0-5.6-1.7-5.8-2.2-0.2L412.7,416.9L412.7,416.9z M444,438l241.1,141.1
		c4.3,2.5,5.2,1,1.1-1.7l-223.8-150L444,438L444,438z M407.3,428.3l-60.6,49.6c-3.3,2.8-1.8,4.1,2.2,1.8l75.6-41.9L407.3,428.3
		L407.3,428.3z"/>
</g>
</svg>
