<?xml version="1.0" encoding="utf-8"?>
<!-- Generator: Adobe Illustrator 18.1.0, SVG Export Plug-In . SVG Version: 6.00 Build 0)  -->
<!DOCTYPE svg PUBLIC "-//W3C//DTD SVG 1.1//EN" "http://www.w3.org/Graphics/SVG/1.1/DTD/svg11.dtd">
<svg version="1.1" id="Layer_1" xmlns="http://www.w3.org/2000/svg" xmlns:xlink="http://www.w3.org/1999/xlink" x="0px" y="0px"
	 viewBox="0 0 870.6 870.5" enable-background="new 0 0 870.6 870.5" xml:space="preserve">
<path fill="#FF495C" d="M864.3,438.4c0,238.7-193.5,432.1-432.1,432.1C193.5,870.5,0,677,0,438.4C0,199.7,193.5,6.2,432.2,6.2
	C670.8,6.2,864.3,199.7,864.3,438.4z M709.1,641.5L553.3,127.8L433.2,528.8l-1.1,0.9l-1-0.9L310.9,127.8L155.2,641.5h29.2
	c0,0,19.7-89.4,51.7-142.7c17.3-29,44.2-52.7,80.1-52.1c25,0.6,46.9,14.5,74.3,52.8c16.4,23,41.6,81.5,41.6,81.5
	s25.4-58.5,41.8-81.5c27.5-38.3,49.1-52.2,74.4-52.8c35.7-0.7,62.6,23.1,79.8,52.1c32,53.4,51.8,142.7,51.8,142.7H709.1z"/>
</svg>
