<?xml version="1.0" encoding="utf-8"?>
<!-- Generator: Adobe Illustrator 18.1.0, SVG Export Plug-In . SVG Version: 6.00 Build 0)  -->
<!DOCTYPE svg PUBLIC "-//W3C//DTD SVG 1.1//EN" "http://www.w3.org/Graphics/SVG/1.1/DTD/svg11.dtd">
<svg version="1.1" id="Layer_1" xmlns="http://www.w3.org/2000/svg" xmlns:xlink="http://www.w3.org/1999/xlink" x="0px" y="0px"
	 viewBox="0 0 870.6 870.5" enable-background="new 0 0 870.6 870.5" xml:space="preserve">
<g>
	<path fill="#010101" d="M433.6,0C197.8,0,6,194.4,6,433.2s191.8,433.2,427.5,433.2S861,672.1,861,433.2S669.3,0,433.6,0z
		 M439.4,378.2c116.6-0.3,264.1-9.7,387.6-75c12.5,38.8,19.6,80.2,20.3,123.1H439.4V378.2z M439.4,364.4v-64.1
		c135.5-1.3,251.8-46.2,321-124c26.2,34.1,47.2,72.3,62,113.7C701.2,354.8,555,364.1,439.4,364.4z M751.7,165.3
		c-66.5,76-179.7,119.9-312.3,121.1V221c87.5-1.8,167.3-44.4,237.5-126.7C704.6,114.8,729.7,138.7,751.7,165.3z M439.4,207.2v-64.5
		c56-2.4,100.7-38.7,129.9-105.7c34.4,12.1,66.7,28.7,96.3,49.1C598.4,164.7,522.3,205.3,439.4,207.2z M439.4,128.9v-115
		c40.6,0.6,79.8,7.1,116.7,18.7C529,94.3,489.8,126.6,439.4,128.9z M425.6,13.9v114.8c-49.3-3.1-87.7-35.5-114.5-96.1
		C347.4,21.2,385.8,14.7,425.6,13.9z M298,37c28.8,66.1,72.7,102.4,127.6,105.6v64.5c-82-2.5-157.3-43.1-224-120.9
		C231.2,65.8,263.6,49.1,298,37z M190.3,94.2c69.6,81.6,148.7,124.2,235.2,126.7v65.5c-131.6-1.7-243.9-45.6-309.9-121
		C137.4,138.6,162.6,114.8,190.3,94.2z M106.9,176.3c68.9,77.3,184.2,122.2,318.7,123.9v64.1c-115.3-0.4-260.4-10-380.8-74.4
		C59.6,248.7,80.7,210.4,106.9,176.3z M40.2,303.2c122.7,64.8,269.1,74.5,385.4,74.9v48.1H19.9C20.6,383.4,27.7,342.2,40.2,303.2z
		 M425.6,440.2v48.1c-116.2,0.4-262.6,10.1-385.4,74.9C27.7,524.4,20.6,483,19.9,440.1L425.6,440.2L425.6,440.2z M425.6,502.1v64.1
		c-134.6,1.8-249.9,46.6-318.7,124c-26.2-34.1-47.2-72.3-62-113.7C165.2,512.1,310.3,502.6,425.6,502.1z M115.6,701.2
		c66.1-75.5,178.4-119.4,310-121v65.5C339,648,259.9,690.7,190.4,772.3C162.6,751.7,137.4,727.8,115.6,701.2z M425.6,659.3v64.5
		c-54.9,3.2-98.8,39.5-127.6,105.6c-34.4-12.2-66.7-28.7-96.3-49.1C268.3,702.5,343.6,661.9,425.6,659.3z M425.6,737.7v114.8
		c-39.8-0.8-78.1-7.3-114.5-18.6C337.9,773.2,376.3,740.9,425.6,737.7z M439.4,852.6v-115c50.4,2.3,89.6,34.6,116.7,96.2
		C519.1,845.5,479.9,852,439.4,852.6z M569.3,829.5c-29.2-66.9-73.9-103.4-129.9-105.7v-64.5c82.9,1.8,159,42.5,226.2,121
		C636,800.7,603.7,817.3,569.3,829.5z M676.9,772.2c-70.2-82.3-150.1-125-237.5-126.8v-65.5c132.6,1.3,245.9,45.2,312.3,121.1
		C729.7,727.8,704.6,751.7,676.9,772.2z M760.4,690.2c-69.2-77.8-185.4-122.7-321-124v-64.1c115.7,0.3,261.9,9.6,383.1,74.4
		C807.6,617.8,786.6,656.1,760.4,690.2z M827,563.3c-123.5-65.3-271-74.7-387.6-74.9v-48.1h407.9C846.5,483,839.5,524.4,827,563.3z"
		/>
</g>
</svg>
