<?xml version="1.0" encoding="utf-8"?>
<!-- Generator: Adobe Illustrator 18.1.0, SVG Export Plug-In . SVG Version: 6.00 Build 0)  -->
<!DOCTYPE svg PUBLIC "-//W3C//DTD SVG 1.1//EN" "http://www.w3.org/Graphics/SVG/1.1/DTD/svg11.dtd">
<svg version="1.1" id="Layer_1" xmlns="http://www.w3.org/2000/svg" xmlns:xlink="http://www.w3.org/1999/xlink" x="0px" y="0px"
	 viewBox="0 0 870.6 870.5" enable-background="new 0 0 870.6 870.5" xml:space="preserve">
<g>
	<path fill="#010101" d="M424.6,0c-295.5,0.6-308,369.2-307.9,436.9c0.4,205.3,84,432.4,309.5,431.9
		c225.4-0.4,308.2-229.2,307.8-434.6C733.8,366.5,720-0.6,424.6,0L424.6,0z M426.2,856.5C212,856.9,154.3,629.1,153.9,434.1
		c-0.1-64.3-11-423.3,269.8-423.9c280.7-0.6,273,360.3,273.2,424.7C697.2,629.9,640.4,856.1,426.2,856.5L426.2,856.5z"/>
	<g>
		<path fill="#010101" d="M631.4,519.9c-1.1-74.8-29.4-129-64-184.2c-25.2-40.1-60.5-87.4-64.4-136.1c-2.5-30.6-0.7-64.8-21.3-89.9
			c-6-7.4-14.4-14.1-22.9-18.5c-9-4.7-20.5-7.6-30.7-7.6c-9.6,0-19.2,1.5-28.3,4.3c-10.8,3.3-21.6,7.1-32.8,8.7
			c-13,1.8-23.5,1.2-36.2-1.6c-7.6-1.7-9.7-2.3-17.2-4c-4.1-0.9-15.6-4.2-19.1-0.6c-8.5,8.5,9.6,18.9,15,22.8
			c11.9,8.6,16.8,11.5,28.1,21.2c15.3,13.3,27.4,29,32.1,48.8c1.3,5.7,1.8,11.5,1.8,17.4c1.1,85.3-141.3,169.2-139.3,320.3
			c0.7,53.5,29.3,62.3,28.9,32.6c-0.5-35.2,12-73.2,25-105.8c3-7.6,12.6-9.8,10.4,3.2c-3.4,20.8-11.9,56.6-11.1,114.9
			c0.2,14.1,1,28.3,3.1,42.2c1.6,11.2,4.1,22.4,7.4,33.3c2.8,9.1,6.3,18,10.8,26.5c3.5,6.6,7.6,13,12.5,18.8
			c4.8,5.7,9.9,9.8,15.7,14.4c3.4,2.6,7.1,5,8.7,9.2c2.3,6.1-5.5,8.6-9.6,10.5c-4.5,2-8.5,4.3-12.8,6.4c-6.2,3-12.3,6.2-18.2,9.5
			c-3.7,2.1-7.8,3.3-11.4,5.7c-3.5,2.4-5.3,6.1,0.2,7c2.5,0.4,5.2-0.3,7.8-0.4c4.3-0.2,8.9-0.8,13,0.8c5.6,2.2,5.3,7.5,5.5,12.8
			c0.3,5.7,4.2,7.4,9.1,6.1c5.8-1.6,9.9-6.1,14.3-9.8c3.2-2.7,6.8-5.6,10.6-7.5c7.7-3.8,16.9-2.6,25.2-2.1
			c4.6,0.2,11.1,2.2,14.8-1.6c3.8-3.8,1.1-10.4-0.6-14.5c-1.6-4-3.6-7.9-5.5-11.7c-0.9-1.8-2.2-3.3-3-5.1
			c-3.2-7.4,22.7-13.1,26.5-14.1c12.6-3.4,25.7-6.3,38.8-7.5c12.3-1.1,25.9-1.1,37.6,3.7c5,2.1,9,5.6,12.4,9.8
			c1.9,2.4,6.2,9.3,2.3,12.1c-6,4.3-12.1,8.2-18,12.7c-3.7,2.9-7.3,5.9-10.3,9.4c-2.3,2.7-3,7.3,1.8,7c6.3-0.3,12.6-0.7,18.8-0.7
			c4.5,0,9.3,0.6,13.1,3.2c6.2,4.2,7.5,13.2,14.4,16.6c2,1,4.3,1,6.4,0.3c4.6-1.4,6.7-6.1,9.1-9.8c2.3-3.4,4.5-6.6,8.2-8.6
			c2.2-1.2,4.8-1.7,7.3-1.7c4.6,0,9.2,0.1,13.8,0.6c3.6,0.4,8.6,2.1,11.8-0.4c6.1-4.7-9.9-15.2-13.1-17.2
			c-7.3-4.6-17.8-9.4-20.1-18.8c-2.7-11,2.8-22.5,7.4-32.2c4.9-10.3,11.5-19.7,15.3-30.5c3.5-9.9,6.2-20.3,7.6-30.7
			c8-57.2-5.2-118-21.9-172.6c-2-6.6-4.6-13-6.5-19.6c-2.9-10.3,7.1-12.8,12.2-2.7c4.9,9.6,36.9,71.1,46.3,116.9
			C610,570.5,632,571.7,631.4,519.9z M410,119.9c8.6-13.3,24.8-18.1,36.2-10.7c11.4,7.4,13.6,24.2,5,37.5s-24.8,18.1-36.2,10.7
			C403.6,150,401.4,133.3,410,119.9z M400.1,212.3c16.2-12.7,56.9-18.4,66.7-65.8c0.4-1.7,2.4-5.6,7.2,0.1c8.5,9.9,8,51-5.9,65.2
			c-8.2,8.3-21.9,9.4-32.8,10.9c-12.1,1.7-23.8,4.4-35.6,7.3C388.5,232.8,389.2,220.8,400.1,212.3z M503,666.4
			c-12.2,0.6-27.4-8-50-6.4c-38.4,2.6-49.8,17.3-81.1,11.7c-17.9-3.2-31.2-13.3-38.7-30.7c-8.6-19.8-9.4-42.2-10.7-63.4
			c-1.5-23.8-1.5-47.6-0.1-71.3c1-17.2,2.9-34.3,5.1-51.3c3.7-28.3,9.8-56.3,16.2-84c5.7-24.5,11.6-49.1,22.2-72
			c7.7-16.8,19.3-33,36.3-41.5c18.6-9.3,44.7-10,63.1-0.6c41.5,21.3,40.4,70.7,41.7,110.9c1,31,4.9,62.8,10.5,93.2
			c6.3,33.8,20.1,66,23.6,100.3C544.9,599.2,549.1,664.2,503,666.4z"/>
		<path fill="#010101" d="M427,149c5,3.4,12.5,1.1,16.7-5.1c4.3-6.2,3.7-14-1.3-17.4s-12.4-1.1-16.7,5.1
			C421.5,137.8,422,145.6,427,149z"/>
	</g>
</g>
</svg>
