<?xml version="1.0" encoding="utf-8"?>
<!-- Generator: Adobe Illustrator 18.1.0, SVG Export Plug-In . SVG Version: 6.00 Build 0)  -->
<!DOCTYPE svg PUBLIC "-//W3C//DTD SVG 1.1//EN" "http://www.w3.org/Graphics/SVG/1.1/DTD/svg11.dtd">
<svg version="1.1" id="Layer_1" xmlns="http://www.w3.org/2000/svg" xmlns:xlink="http://www.w3.org/1999/xlink" x="0px" y="0px"
	 viewBox="0 0 870.6 870.5" enable-background="new 0 0 870.6 870.5" xml:space="preserve">
<g>
	<path fill-rule="evenodd" clip-rule="evenodd" fill="#FAAB54" d="M436.1,861.3c-215.4,0.4-273.5-228.6-273.9-424.8
		c-0.1-64.7-11-425.7,271.3-426.2c282.3-0.6,274.6,362.4,274.7,427C708.6,633.5,651.5,860.8,436.1,861.3L436.1,861.3z"/>
	<path fill-rule="evenodd" clip-rule="evenodd" d="M578.2,337.7c-25.3-40.3-60.8-87.9-64.8-136.9c-2.5-30.7-0.7-65.1-21.4-90.5
		c-6-7.4-14.5-14.2-23-18.6c-9-4.7-20.6-7.7-30.8-7.7c-9.6,0-19.3,1.5-28.5,4.3c-10.9,3.3-21.7,7.2-33,8.7
		c-13.1,1.8-23.6,1.2-36.4-1.7c-7.6-1.7-9.7-2.3-17.3-4c-4.2-0.9-15.7-4.2-19.2-0.6c-8.6,8.6,9.7,19,15.1,22.9
		c11.9,8.7,16.9,11.5,28.2,21.3c15.4,13.3,27.6,29.2,32.2,49.1c1.4,5.8,1.8,11.5,1.9,17.5c1.1,85.8-142.1,170.1-140.1,322.1
		c0.7,53.7,29.4,62.6,29,32.8c-0.5-35.4,12.1-73.6,25.1-106.4c3-7.6,12.6-9.9,10.5,3.2c-3.4,20.9-11.9,56.8-11.1,115.6
		c0.2,14.1,1,28.4,3.1,42.4c1.7,11.3,4.1,22.5,7.4,33.5c2.8,9.2,6.3,18.1,10.8,26.6c3.6,6.7,7.7,13.1,12.6,18.8
		c4.8,5.7,10,9.9,15.8,14.5c3.4,2.6,7.1,5,8.7,9.2c2.4,6.2-5.5,8.7-9.7,10.6c-4.6,2.1-8.6,4.3-12.9,6.4c-6.2,3-12.3,6.2-18.3,9.6
		c-3.7,2.1-7.9,3.3-11.4,5.8c-3.5,2.4-5.3,6.2,0.2,7.1c2.5,0.4,5.3-0.3,7.8-0.4c4.3-0.2,8.9-0.8,13.1,0.8c5.6,2.2,5.3,7.6,5.6,12.8
		c0.3,5.7,4.2,7.5,9.2,6.1c5.8-1.6,9.9-6.1,14.4-9.9c3.2-2.8,6.8-5.7,10.7-7.5c7.7-3.8,17-2.6,25.3-2.1c4.6,0.2,11.1,2.2,14.9-1.6
		c3.8-3.8,1.1-10.4-0.6-14.6c-1.6-4-3.6-7.9-5.5-11.8c-0.9-1.8-2.2-3.3-3-5.2c-3.3-7.5,22.8-13.2,26.6-14.2
		c12.6-3.4,25.9-6.4,38.9-7.5c12.4-1.1,26.1-1.1,37.8,3.7c5,2.1,9.1,5.7,12.4,9.9c1.9,2.4,6.2,9.3,2.3,12.2
		c-6,4.4-12.2,8.2-18.1,12.8c-3.7,2.9-7.3,5.9-10.4,9.4c-2.4,2.7-3,7.3,1.8,7.1c6.3-0.3,12.6-0.7,18.9-0.7c4.5,0,9.4,0.6,13.2,3.2
		c6.2,4.2,7.6,13.2,14.5,16.7c2,1,4.3,1,6.4,0.3c4.6-1.4,6.7-6.2,9.2-9.8c2.3-3.4,4.6-6.7,8.2-8.7c2.3-1.2,4.8-1.7,7.4-1.7
		c4.6,0,9.3,0.1,13.9,0.6c3.6,0.4,8.6,2.1,11.8-0.4c6.1-4.7-9.9-15.3-13.2-17.3c-7.4-4.7-17.9-9.4-20.2-18.9
		c-2.7-11.1,2.8-22.6,7.4-32.3c4.9-10.3,11.6-19.8,15.4-30.7c3.5-10,6.2-20.4,7.7-30.8c8.1-57.5-5.3-118.7-22-173.5
		c-2-6.6-4.6-13.1-6.5-19.7c-2.9-10.3,7.1-12.8,12.3-2.7c4.9,9.7,37.1,71.5,46.5,117.5c6,29.3,28,30.5,27.4-21.6
		C641.4,447.6,612.9,393.1,578.2,337.7L578.2,337.7z"/>
	<path fill-rule="evenodd" clip-rule="evenodd" d="M434.5,0C137.4,0.6,124.8,371.3,124.9,439.3c0.4,206.5,84.5,434.8,311.3,434.3
		c226.7-0.4,309.9-230.5,309.5-437C745.5,368.6,731.7-0.6,434.5,0L434.5,0z M436.1,861.3c-215.4,0.4-273.5-228.6-273.9-424.8
		c-0.1-64.7-11-425.7,271.3-426.2c282.3-0.6,274.6,362.4,274.7,427C708.6,633.5,651.5,860.8,436.1,861.3L436.1,861.3z"/>
	<path fill-rule="evenodd" clip-rule="evenodd" fill="#FFFFFF" d="M551.6,564.5c3.9,37.9,8.1,103.4-38.2,105.6
		c-12.3,0.6-27.5-8-50.2-6.4c-38.6,2.6-50.1,17.4-81.6,11.7c-18-3.2-31.4-13.4-38.9-30.9c-8.6-19.9-9.4-42.4-10.7-63.7
		c-1.5-23.9-1.5-47.9-0.1-71.8c1-17.2,2.9-34.4,5.2-51.6c3.8-28.5,9.8-56.5,16.3-84.5c5.7-24.7,11.6-49.3,22.3-72.4
		c7.8-16.9,19.4-33.1,36.5-41.7c18.7-9.4,44.9-10.1,63.4-0.6c41.7,21.4,40.6,71.1,41.9,111.6c1,31.1,4.9,63.1,10.5,93.7
		C534.2,497.6,548,530,551.6,564.5L551.6,564.5z"/>
	<path fill-rule="evenodd" clip-rule="evenodd" fill="#FFFFFF" d="M484.2,147.5c8.5,10,8,51.2-5.9,65.6c-8.2,8.4-22,9.5-32.9,11
		c-12.1,1.7-23.9,4.4-35.8,7.3c-11.3,2.8-10.6-9.2,0.4-17.8c16.3-12.8,57.2-18.5,67-66.1C477.3,145.7,479.3,141.8,484.2,147.5
		L484.2,147.5z"/>
	<path fill-rule="evenodd" clip-rule="evenodd" fill="#FFFFFF" d="M424.9,158.3c11.4,7.4,27.7,2.6,36.4-10.7
		c8.7-13.3,6.4-30.2-5-37.6c-11.4-7.4-27.7-2.6-36.4,10.7C411.2,134,413.4,150.8,424.9,158.3L424.9,158.3z"/>
	<path fill-rule="evenodd" clip-rule="evenodd" d="M435.6,132.3c4.3-6.3,11.8-8.6,16.8-5.2c5,3.4,5.6,11.3,1.3,17.5
		c-4.3,6.3-11.8,8.6-16.8,5.2C431.9,146.4,431.3,138.6,435.6,132.3L435.6,132.3z"/>
</g>
</svg>
