<?xml version="1.0" encoding="utf-8"?>
<!-- Generator: Adobe Illustrator 18.1.0, SVG Export Plug-In . SVG Version: 6.00 Build 0)  -->
<!DOCTYPE svg PUBLIC "-//W3C//DTD SVG 1.1//EN" "http://www.w3.org/Graphics/SVG/1.1/DTD/svg11.dtd">
<svg version="1.1" id="Layer_1" xmlns="http://www.w3.org/2000/svg" xmlns:xlink="http://www.w3.org/1999/xlink" x="0px" y="0px"
	 viewBox="0 0 870.6 870.5" enable-background="new 0 0 870.6 870.5" xml:space="preserve">
<path fill="#1D1D1B" d="M361.7,540.8c20.8,0,37.7-16.9,37.7-37.7s-16.9-37.7-37.7-37.7c-20.8,0-37.7,16.9-37.7,37.7
	S340.8,540.8,361.7,540.8L361.7,540.8z M471.8,769.3c-8.9-3.2-1.6-29.2,3.1-34.4c4.7-5.2,6.7-11.7-0.3-15.9
	c-7.1-4.2-16.7,3.6-24.2,7.3c-7.5,3.8-36.7,20.9-54.9,29.2c-18.1,8.3-21.5,5.2-27.2-16.3c-7-26.3,9.8-43.2,16.2-53.2
	c-68.2-9.5-147.3-61.7-151.7-114.9c-3-36.1,19.1-99.9,91.9-140.6c33.1-18.5,75-35.5,132.7-37.2c0.7-0.6,1.4-4.2-1.6-5.1
	C339.1,355,165.3,246.1,149.7,2c51.5,28.4,161.5,117,198.8,154.3c48.8,38.3,132.1,162.9,173,233.9c2.4,2.5,13.2,15.4,14.3-6.2
	c3.8-68.7,7.2-145.4,33-207.5C599,103.9,655.4,41.9,718.8,0c-4.3,38.6-8.3,77.5-11.5,114.5c-4.6,54.1-6.7,102.3-17.1,139.9
	c-22.8,82.4-55.5,121.5-105.7,169.7c57.2,51.3,84,125.9,43.5,256.2c-7.4,23.9-8.9,29.4-31.7,40.9
	C555.6,741.8,477.7,770.4,471.8,769.3L471.8,769.3z M313.4,747.1l4.8,101.8c12.3-8.4,21.9-18.1,34.2-26.5
	c26.4-18,30.8-10.2,54.4,10.7l36.3,38.4L442.3,754c-10,6.7-18,14-28,20.7c-35.1,23.4-34.4,25.9-67.9,0.3L313.4,747.1L313.4,747.1z
	 M469.4,796.3l1.6,27.2l139.8-38.7l-0.9-24.9L469.4,796.3L469.4,796.3z"/>
</svg>
