<?xml version="1.0" encoding="utf-8"?>
<!-- Generator: Adobe Illustrator 18.1.0, SVG Export Plug-In . SVG Version: 6.00 Build 0)  -->
<!DOCTYPE svg PUBLIC "-//W3C//DTD SVG 1.1//EN" "http://www.w3.org/Graphics/SVG/1.1/DTD/svg11.dtd">
<svg version="1.1" id="Layer_1" xmlns="http://www.w3.org/2000/svg" xmlns:xlink="http://www.w3.org/1999/xlink" x="0px" y="0px"
	 viewBox="0 0 870.6 870.5" enable-background="new 0 0 870.6 870.5" xml:space="preserve">
<g>
	<polygon fill="#04B39A" points="392.3,472 264.2,433.6 95.5,494.1 66.4,505.8 188.6,544.2 	"/>
	<polygon fill="#04B39A" points="601.8,534.9 419,598.9 388.8,608.2 264.2,569.8 471.4,495.3 	"/>
	<polygon fill="#04B39A" points="680.9,558.2 467.9,635 587.8,674.5 784.5,604.7 807.8,594.2 	"/>
	<polygon fill="#FCB918" points="587.8,674.5 467.9,635 348,678 470.2,716.4 	"/>
	<path fill="#FCB918" d="M264.2,569.8l124.5,38.4c-104.7,34.9-206,38.4-304.9,11.6c-52.4-14-81.5-32.6-83.8-58.2
		c-1.2-17.5,22.1-37.2,66.3-55.9l122.2,38.4l-31.4,11.6c-9.3,3.5-17.5,8.1-23.3,11.6c-5.8,5.8-3.5,11.6,5.8,17.5l46.6,5.8l48.9-9.3
		L264.2,569.8L264.2,569.8z"/>
	<polygon fill="#3B77BB" points="328.3,412.7 453.9,448.7 392.3,472 264.2,433.6 	"/>
	<path fill="#3B77BB" d="M471.4,495.3c60.5-23.3,118.7-34.9,174.6-36.1c48.9-2.3,101.3,3.5,153.6,20.9
		c46.6,15.1,72.2,32.6,73.3,54.7c2.3,23.3-18.6,41.9-65.2,59.4l-126.9-36.1l43.1-16.3c17.5-5.8,25.6-11.6,23.3-18.6
		c-2.3-5.8-8.1-10.5-20.9-11.6l-43.1-2.3l-32.6,8.1l-48.9,17.4L471.4,495.3L471.4,495.3z"/>
	<path fill="#EC2227" d="M325.9,41.4v630.8l144.3,44.2V189.2c0-14,1.2-23.3,7-29.1c5.8-8.1,11.6-9.3,19.8-5.8
		c19.8,5.8,29.1,23.3,29.1,52.4v211.8c44.2,20.9,83.8,23.3,112.9,1.2c30.3-20.9,46.6-58.2,46.6-114.1c0-58.2-11.6-102.4-37.2-131.5
		c-23.3-31.4-64-57-124.5-78C444.6,70.5,378.3,51.9,325.9,41.4L325.9,41.4z"/>
	<polygon fill="#FFFFFF" points="527.1,795.3 544.5,795.3 544.5,781.3 527.1,781.3 	"/>
</g>
</svg>
