<?xml version="1.0" encoding="utf-8"?>
<!-- Generator: Adobe Illustrator 18.1.0, SVG Export Plug-In . SVG Version: 6.00 Build 0)  -->
<!DOCTYPE svg PUBLIC "-//W3C//DTD SVG 1.1//EN" "http://www.w3.org/Graphics/SVG/1.1/DTD/svg11.dtd">
<svg version="1.1" id="Layer_1" xmlns="http://www.w3.org/2000/svg" xmlns:xlink="http://www.w3.org/1999/xlink" x="0px" y="0px"
	 viewBox="0 0 870.6 870.5" enable-background="new 0 0 870.6 870.5" xml:space="preserve">
<g>
	<polygon fill="#33669A" points="291.1,123.8 5.8,337.8 249.3,337.8 	"/>
	<polygon fill="#33669A" points="518.9,337.8 327.2,123.8 285.4,337.8 	"/>
	<polygon fill="#33669A" points="5.8,369.5 201.8,586.4 243.6,369.5 	"/>
	<path fill="#33669A" d="M360.3,369.5h-82.1l-40.3,222.6h53.3l15.8-69.2h41.8c0,0,67.8-1.5,77.8-80.7
		C434.5,379.7,360.3,369.5,360.3,369.5z M370.5,449.5c-4.3,31.7-51.9,18.8-51.9,18.8l7.2-44.7C325.8,423.5,374.8,417.7,370.5,449.5z
		"/>
	<polygon fill="#33669A" points="503.1,369.5 448.3,369.5 406.5,592.2 521.8,592.2 530.4,537.4 472.8,537.4 	"/>
	<path fill="#33669A" d="M676,369.5L648.7,510c0,0-1.4,33.1-30.2,33.1c-28.8,0-24.5-30.2-24.5-30.2l25.9-143.4h-54.8l-26,137.6
		c0,0-20.2,82.1,74.9,85c79.5,2.5,90.8-82.1,90.8-82.1l24.5-140.5H676z"/>
	<path fill="#33669A" d="M804.2,414.9c13.1-0.1,13.1,25.8,13.1,25.8h53.3c0,0,14.4-67-56.2-71.2c-70.5-4.3-86,49.6-86.5,67
		c-1.4,54.8,73.5,57.7,73.5,83.6c0,25.9-15.9,24.5-15.9,24.5c-28.8-1.4-20.2-28.8-20.2-28.8h-54.8c0,0-14.4,74.4,66.3,76.4
		c60.6,1.4,79.3-40.4,80.7-60.6c4.3-64.9-71.5-71.4-73.5-96.6C782.7,416.3,794.2,414.9,804.2,414.9z"/>
</g>
</svg>
