<?xml version="1.0" encoding="utf-8"?>
<!-- Generator: Adobe Illustrator 18.1.0, SVG Export Plug-In . SVG Version: 6.00 Build 0)  -->
<!DOCTYPE svg PUBLIC "-//W3C//DTD SVG 1.1//EN" "http://www.w3.org/Graphics/SVG/1.1/DTD/svg11.dtd">
<svg version="1.1" id="Layer_1" xmlns="http://www.w3.org/2000/svg" xmlns:xlink="http://www.w3.org/1999/xlink" x="0px" y="0px"
	 viewBox="0 0 870.6 870.5" enable-background="new 0 0 870.6 870.5" xml:space="preserve">
<path fill="#1D1D1B" d="M82.2,99.8c-5.6,0.8-11,21.4-21.7,32.1c-7.9,7.7-17.7,7.3-23,16.8c-2,3.6-1.3,9.7-3.6,15.5
	C29.5,175.9,14,177,14,189.7c0,13.8,12.9,16.4,24.2,26.2c8.8,7.8,9.6,13.3,20.3,17.1c9.1,3.1,22.6-7,34.7-3.4
	c10,3,19.5,5.1,21.8,15.4c2,9.5-0.1,24.1-12.2,22.4c-4.1-0.5-21.8-6.4-43.5-4.1c-26.3,3-56.2,11.5-59.1,40.8
	c-1.6,16.3,18.6,35.6,38.1,31.7c13.5-2.7,7.1-18.6,14.5-26.3c9.6-9.9,64.2,34.6,115,34.6c21.4,0,37.3-5.4,53-21.9
	c1.5-1.3,3.3-4,5.6-4.1c2.1,0.2,5.9,2.3,7.1,3.2c40.9,32.8,71.8,98.8,222,99.5c21.1,0.1,45.2,10.2,64.9,28.1
	c17.5,16.2,27.8,41.4,37.7,67c15.1,38.4,42,75.7,82.8,117.3c2.2,2.2,35.9,28.4,38.6,30.3c0.4,0.3,2.9,6.2,2,9.5
	c-1,24.9-4.6,97.4,49.4,100.6c13.2,0.7,9.7-8.6,9.7-15c0-12.6-2.3-25.2,4.3-38.1c9.1-17.8-19.3-25.9-18.5-64.4
	c0.6-28.6-23.5-23.8-35.7-45.6c-7-12.7-13.3-19.4-12.8-34.8c2.8-87-18.5-144.2-29.1-158.3c-8.3-10.6-15.1-14.8-7.6-19.7
	c45.1-29.8,55.3-57.5,55.3-57.5c24-56.4,45.5-107.8,75.3-130.5c6-4.7,21.3-16.2,30.7-20.6c27.8-13.1,42.4-21,50.4-28.9
	c12.7-12.4,22.8-38.3,10.6-54c-15.2-19.4-41.5-4-53.1,2.9c-82.9,49.2-95.1,135.9-123.8,185.7c-22.9,39.8-60.1,69.1-93.4,71.5
	c-24.9,1.9-51.9-3.2-78.6-15c-65.2-28.6-100.8-65.4-109.2-72C388,266,252.1,132.6,142,127.1c0,0-13.7-27.4-17.1-27.8
	c-8.1-1-16.3,16.3-22.2,18.4C97.1,119.5,87.8,98.9,82.2,99.8L82.2,99.8z"/>
</svg>
