<?xml version="1.0" encoding="utf-8"?>
<!-- Generator: Adobe Illustrator 18.1.0, SVG Export Plug-In . SVG Version: 6.00 Build 0)  -->
<!DOCTYPE svg PUBLIC "-//W3C//DTD SVG 1.1//EN" "http://www.w3.org/Graphics/SVG/1.1/DTD/svg11.dtd">
<svg version="1.1" id="Layer_1" xmlns="http://www.w3.org/2000/svg" xmlns:xlink="http://www.w3.org/1999/xlink" x="0px" y="0px"
	 viewBox="0 0 870.6 870.5" enable-background="new 0 0 870.6 870.5" xml:space="preserve">
<path fill="#EB272A" stroke="#EB272A" stroke-width="0.1135" d="M0,185.2v500.1h870.6V185.2H0z M796.9,331.5c4.6,0,8.3,3.7,8.3,8.3
	s-3.7,8.3-8.3,8.3c-4.6,0-8.3-3.7-8.3-8.3C788.6,335.2,792.3,331.5,796.9,331.5z M320.7,593.5c-1.6,3.2-3.1,7.7-5.2,9.7
	c-4.8,4.4-8.9,5.6-17,2.4l-78-37.2c-4.4-2.8-7.7-0.8-8.1,2.8l0.8,19.8c0,4.8-1.6,10.1-6.9,13.3c-5.2,3.2-11.3,7.3-14.5,8.9
	c-3.2,1.6-6.5,2.4-6.5-3.2c0-5.7-0.5-51.8-0.4-51.8c0.1-0.1,0.1,1,0.1-3.1c0-4.1-3.7-5.4-3.7-5.4l-35.6-16.5c-6.1-2.8-5.2-5.6,0-8.9
	l34.8-21.8c4-2.4,4.4-5.6,4.4-10.1l-0.4-114c0-3.6,0.4-6.1,3.6-8.1l13.7-8.9c5.7-2.8,10.9-2.8,10.9,4v103.9c0,4.8,2.4,8.5,8.5,3.6
	c33.2-26.3,65.5-53.8,65.5-95.8c0-24.3-15.3-39.2-36.8-39.2c-52.2,0-139,59.3-171.1,81.3c-7.2,4.9-24.7,19.8-28,23
	c-3.2,3.2-6.5,4.4-6.5-2c0-6.5,0.4-15.3,0.4-22.6c0-7.3,2.6-22.1,12.9-28.8c72-45.7,139.5-73.6,186.4-73.6s63.1,31.6,63.1,54.2
	c0,42.5-31.2,80.5-91.8,126.6c-2.8,2.4-2.8,6.9-2.8,8.1v21.4c0,4.8,2.4,7.7,6.9,9.7l94.2,44.5C323.1,584.3,322.3,590.3,320.7,593.5z
	 M418.8,448.6c-0.8,29.7-2.2,162.8-1.9,165.3c0.3,2.4-1.1,4.3-3.2,4.3c-2.1,0-14,0.3-16.1,0.3c-2.1,0-3.5-2.4-3.5-4.6l1.4-108.9
	c0-6.2-3.7-5-6.2-1.3c-7.5,11.3-12.4,18.6-20.2,18.6c-13.2,0-7.5-17-13.2-17s-14.3,28.1-30.2,28.1c-15.3,0-11.6-17.2-17-17.2
	c-6.2,0-18.3,30.5-38.6,30.5c-6,0.1-13.9-2.2-13.9-16.5c0-21,19.4-52.2,37.6-52.2c3.2,0,5.3,0.8,8.9,0.8c4.4,0,6.9-9.3,13.7-9.3
	c6.1,0,11.8,2,11.8,17c0,7.3,5.8,19,10.4,19c10.1,0,16.6-28.6,21.4-42.1c1.2-3.5,4.8-6.9,7.7-6.9c5.4,0,7.9,4.1,8.5,8.7
	c0.5,4.6,1.3,25.4,6.7,25.4c6.5,0,12.4-18.8,17.5-29.4c5.1-10.5,10.7-19.4,14.8-19.4C419.4,441.6,418.9,445.4,418.8,448.6z
	 M454.3,467.8c-14.3,0-16.4-9.2-16.4-13.2c0.1-7.3,10.5-24,28.9-24c10,0,16.7,6.2,16.7,13.2C483.4,453.6,473.4,467.8,454.3,467.8z
	 M597.9,446.8c-8.6,12.9-40.8,45.6-57.2,76.9c-3.8,6.2-6.8,6.1-9.4,2.7c-4.6-6.1-8.3-10.8-9.7-15.1c-1.3-4.3-3.8-11.3,0.5-18
	s34.8-44.5,45.5-58.2c9.4-12,9.2-29.2,2.2-35.9c-7-6.7-22.9-21-27.8-26.7c-4-4.8-7-15,0-23.1c22-25.7,45.8-54.5,45.8-83.1
	c0-16.1-10.5-27.3-18.8-27.3c-20.1,0-37.8,37.8-38.6,72l3.8,133.7c0,10,0.2,14.7-7.3,23.5c-7.1,8.3-14.3,11-18.3,11
	c-2.1,0.1-3.5-1.5-3.5-4.2c0-4.6,1.1-17.8,1.1-25.1l-1.6-122.7c0-31.8,9.5-52.9,19-66.6c9.4-13.5,31.1-38.8,61.3-38.8
	c23.2,0,35.3,18.8,35.3,39.6c0,22.9-7.8,41.2-34.5,66c-26.7,24.9-33.2,25.6-33.2,32.7c0,6.7,8.6,11,13.2,14.3
	c4.6,3.2,22.6,15.6,31.6,23.5c8.9,7.8,11.6,13.2,11.6,20.7C608.9,431.5,603.3,438.7,597.9,446.8z M800.2,396.4
	c-4.6,5.4-9.7,10.5-17,10.5s-12.6-2.8-16.1-11.6c-2.9-7.3-4.6-19.9-8.9-19.9c-3.8,0-6.2,6.2-10.8,16.1c-4.6,10-13.7,28.6-23.1,28.6
	c-6.2,0-7.5-4.8-7.5-12.9c0-3.2-2.3-6.5-5.9,0.3c-6.2,11.3-11.8,24.6-23.8,24.6c-10.2,0-13.9-8.3-15.6-14.5
	c-0.8-2.9-2.9-5.4-5.4-1.6c-2.4,3.8-14.5,19.6-20.2,24.6c-5.7,4.8-10.2,8.6-17.5,8.6c-7.5,0-10.9-5.4-10.9-16.4
	c0-21.3,21-58.5,44-58.5c3.2,0,7-0.8,9.1-3.2c2.1-2.4,4.1-5.4,8.4-5.4c7.2,0,8.8,6.7,9.7,12.4c1.3,8.9,2.4,23.8,8.9,23.8
	c4.8,0,6.5-4.6,9.2-11c2.4-5.9,11.8-26.5,15.3-33c3.5-6.5,7.5-8.1,10.5-8.1s7.3,3,7.3,7c0,4,0.6,13.4,0.6,13.4c0,4.8,3.9,5.7,7-1.9
	c3.8-9.2,11.3-28.6,21.2-28.6c7,0,9.1,6.7,11.6,15.9c2.4,9.2,6.5,28.1,16.7,28.1c3.2,0,8.9-5.1,11.3-2.7
	C810.5,383,804.8,391,800.2,396.4z"/>
<path fill="#EB272A" stroke="#EB272A" stroke-width="0.1135" d="M301.1,490.8c-7,0-22,24.5-22,32.6c0,3.8,1.9,4.9,4,4.9
	c6.2,0,22-25.1,22-32.4C305.2,493.2,303.5,490.8,301.1,490.8z"/>
<path fill="#EB272A" stroke="#EB272A" stroke-width="0.1135" d="M663.3,389.5c-7,0-21.8,20.9-21.8,28.3c0,2.7,1.6,5.3,4,5.4
	c7.3,0,21-24.8,21-30.2C666.5,391.1,665.7,389.5,663.3,389.5z"/>
</svg>
