<?xml version="1.0" encoding="utf-8"?>
<!-- Generator: Adobe Illustrator 18.1.0, SVG Export Plug-In . SVG Version: 6.00 Build 0)  -->
<!DOCTYPE svg PUBLIC "-//W3C//DTD SVG 1.1//EN" "http://www.w3.org/Graphics/SVG/1.1/DTD/svg11.dtd">
<svg version="1.1" id="Layer_1" xmlns="http://www.w3.org/2000/svg" xmlns:xlink="http://www.w3.org/1999/xlink" x="0px" y="0px"
	 viewBox="0 0 870.6 870.5" enable-background="new 0 0 870.6 870.5" xml:space="preserve">
<path fill="#322F81" d="M659.2,329.3c-85.9,10.3-172,23.6-256.4,38.6l0,0l109.4,61.4l0,0c51.2-23.8,100.2-43.9,147-60.9
	c19.2-7,37.9-13.3,56.4-19.2c53.2-16.8,103.8-29.7,152.3-39.1c-50.3,3-101.2,7.4-152.3,12.9C696.8,324.9,678,327,659.2,329.3
	L659.2,329.3L659.2,329.3L659.2,329.3z"/>
<path fill="#322F81" d="M346.4,424.2l-62-19.7l-18.3-5.9l0,0c-88.5,29.7-157.9,72.9-214.6,125.2l0,0L172,539.9l0,0
	c29.1-34.4,66.5-63.6,112.4-88C303.7,441.9,324.3,432.5,346.4,424.2L346.4,424.2L346.4,424.2L346.4,424.2z"/>
<path fill="#322F81" d="M284.5,488.6c-23.8,17.1-44.7,36.5-62,58.2c0.5-0.9,31.2,3.3,62,7.6c31.1,4.2,62,8.5,62,7.7
	c4.2-35.8,75.9-81.7,110.9-102.1l0,0l-71.7-26.4l0,0C348.1,449.2,314,467.2,284.5,488.6L284.5,488.6L284.5,488.6L284.5,488.6z"/>
<path fill="#322F81" d="M-4.8,360.4c0.9,0.9,286.4-52,284.6-52c-1.7,0,341.9,207.8,341.9,207.8C383.9,406.6,169.2,342.8-4.8,360.4
	L-4.8,360.4L-4.8,360.4L-4.8,360.4z"/>
</svg>
