<?xml version="1.0" encoding="utf-8"?>
<!-- Generator: Adobe Illustrator 18.1.0, SVG Export Plug-In . SVG Version: 6.00 Build 0)  -->
<!DOCTYPE svg PUBLIC "-//W3C//DTD SVG 1.1//EN" "http://www.w3.org/Graphics/SVG/1.1/DTD/svg11.dtd">
<svg version="1.1" id="Layer_1" xmlns="http://www.w3.org/2000/svg" xmlns:xlink="http://www.w3.org/1999/xlink" x="0px" y="0px"
	 viewBox="0 0 870.6 870.5" enable-background="new 0 0 870.6 870.5" xml:space="preserve">
<path fill="#6B3092" d="M642.9,473.1c-121.4,67.1-209.2,98.3-280.4,120.6c43.7,42,114.7,65.6,188,27.3
	c41.9-21.9,80.6-69.9,89.3-116.5C641.6,494.6,642.7,484,642.9,473.1 M611,310.5C753.4,271,856.1,261.4,868.1,292
	c12.1,30.7-62.4,88.3-185.3,160c3.4,22.4,3.5,45.7-0.2,69.3c-9.4,60.4-41.8,113.5-91.2,149.5c-49.4,36.1-109.8,50.7-170.2,41.3
	c-60-9.4-113-41.9-148.5-89.7C144.8,655.5,53.3,672.6-2,679.9c358.3-96.2,602.3-249.2,636.9-268.6C612,332,524.8,244.7,378,271
	c36.2-13.2,75.4-17.1,113.7-11.2c79.3,12.4,142.7,64.3,173.5,132.5c55.9-36.3,86.8-65.8,80.6-81.4
	C738.9,293.2,688.4,294.4,611,310.5z"/>
<path fill="#6B3092" d="M680.2,192.9c0,22-17.8,39.9-39.8,39.9c-22,0-39.9-17.8-39.9-39.9c0-22,17.9-39.8,39.9-39.8
	C662.3,153.1,680.2,170.9,680.2,192.9"/>
</svg>
