<?xml version="1.0" encoding="utf-8"?>
<!-- Generator: Adobe Illustrator 18.1.0, SVG Export Plug-In . SVG Version: 6.00 Build 0)  -->
<!DOCTYPE svg PUBLIC "-//W3C//DTD SVG 1.1//EN" "http://www.w3.org/Graphics/SVG/1.1/DTD/svg11.dtd">
<svg version="1.1" id="Layer_1" xmlns="http://www.w3.org/2000/svg" xmlns:xlink="http://www.w3.org/1999/xlink" x="0px" y="0px"
	 viewBox="0 0 870.6 870.5" enable-background="new 0 0 870.6 870.5" xml:space="preserve">
<path fill="#ED1C24" d="M385.3,439.7c0-27.4,22.2-49.7,49.7-49.7c27.5,0,49.7,22.3,49.7,49.7c0,27.5-22.2,49.8-49.7,49.8
	C407.5,489.5,385.3,467.2,385.3,439.7L385.3,439.7z"/>
<path fill="#ED1C24" d="M412.9,556.2c-42.1,0-84.3-46.2-92.3-62.3c-8.1-16-27.9-61.7,1.9-116.5C358.7,311.2,726.1,0,726.1,0H433
	c0,0-365.6,305.2-391.6,377.5c-21.3,58.7-10,100.4-2,116.5c8,16.1,50.2,62.3,92.3,62.3H412.9L412.9,556.2z"/>
<path fill="#ED1C24" d="M457.6,320.3c42.2,0,84.4,46.2,92.4,62.3c8,16,27.8,61.7-2.1,116.5c-36,66.3-403.5,377.5-403.5,377.5h293.1
	c0,0,365.5-305.2,391.7-377.5c21.2-58.6,10-100.4,2-116.5c-8-16.1-50.2-62.3-92.4-62.3H457.6L457.6,320.3z"/>
</svg>
