<?xml version="1.0" encoding="utf-8"?>
<!-- Generator: Adobe Illustrator 18.0.0, SVG Export Plug-In . SVG Version: 6.00 Build 0)  -->
<!DOCTYPE svg PUBLIC "-//W3C//DTD SVG 1.1//EN" "http://www.w3.org/Graphics/SVG/1.1/DTD/svg11.dtd">
<svg version="1.1" id="Layer_1" xmlns="http://www.w3.org/2000/svg" xmlns:xlink="http://www.w3.org/1999/xlink" x="0px" y="0px"
	 viewBox="0 0 870.6 870.5" enable-background="new 0 0 870.6 870.5" xml:space="preserve">
<g id="kriJjV_1_">
	<g>
		<path fill="#ED2224" stroke="#FDF385" stroke-miterlimit="10" d="M596.9,826.7c-34.4,0.2-68.8,0.5-103.4,0.5
			c-5.7,0-10.1,1.2-14.6,5.4c-23.8,21.7-62.4,20.7-86-0.9c-2.6-2.4-7.5-3.5-11.3-3.5c-27.6-0.2-55.1-0.2-82.7,0
			c-42.6,0.2-85.2,0.5-128.1,0.7c-4.9,0-6.8-1.2-7.3-6.4c-6.1-51.3-12.5-102.7-19.1-154c-0.2-2.6-2.8-5.7-5.2-7.3
			c-38.9-28-77.7-56-117-83.4c-9.4-6.6-13.7-14.6-15.5-25.4c-21.9-130.5,9.4-246.8,92.1-349.2c60.3-74.9,137.8-125,231-148.6
			c109.7-27.8,215.5-14.4,313.9,41.2c116.1,65.5,189.3,164.1,218.5,294.6c12.5,56,11.8,112.6,0.2,168.8c-0.7,3.5-4,7.1-6.8,9.2
			c-27.1,20.3-54.2,40.3-81.5,60.3c-13.9,10.1-27.8,19.8-41.7,29.9c-1.9,1.4-3.8,4.5-4,6.8c-5.9,51.3-11.8,102.7-17.4,154
			c-0.5,4.9-2.1,6.4-7.1,6.4C668.3,826,632.5,826.3,596.9,826.7C596.9,826.5,596.9,826.5,596.9,826.7z M394.4,590.8
			c-0.5,0-0.9,0.2-1.2,0.2c-2.1-6.8-4-13.9-6.1-20.7c-38.6-132.6-77.2-265.2-115.6-397.7c-1.4-5.2-3.5-7.5-8.7-5.4
			c-10.6,4.5-21.4,8.2-31.3,13.9c-19.1,11.3-36.3,25.2-50.6,42.4c-3.8,4.5-4.5,8.5-1.6,14.1c8.5,17.2,16.5,34.6,24.7,51.8
			c49.5,104.1,98.9,208.2,148.6,312.5c0.7,1.4,1.2,3.1,1.6,4.5c-0.2,0.2-0.7,0.2-0.9,0.5c-66.4-114-132.8-228-199.9-342.9
			c-5.2,4.9-9.7,8.7-13.2,13.2c-4.5,5.4-8.7,11.1-12.5,17c-11.5,17.7-21.4,35.8-28.5,55.8c-2.4,6.8-1.6,12.2,3.3,18.1
			c66.6,80.3,132.8,160.6,199.2,241.1c5.7,6.8,11.1,13.7,16.5,20.3c-0.5,0.2-0.7,0.7-1.2,0.9c-75.1-75.6-150-150.9-225.8-227.2
			c-2.1,4.5-4,7.8-5.4,11.1c-13.7,34.4-13.7,69.5-6.1,105c1.2,5.4,3.8,9.2,8.2,12.5c40.3,28.5,80.3,57.2,120.3,86
			c2.6,1.9,5.4,5.4,5.7,8.2c5.4,38.9,10.6,77.7,15.5,116.8c1.2,8.2,0.9,8.2,8.9,8.2c49-0.2,97.7-0.5,146.7-0.5
			c3.5,0,7.5,1.9,10.8,3.8c8.5,5.2,16.5,11.5,25.2,16.5c10.4,6.1,21.4,5.9,31.6-0.2c8.2-4.9,16.2-10.4,23.8-16.2
			c4-3.1,7.5-4.5,12.5-4.5c49.2-0.2,98.2-0.5,147.4-0.7c4,0,6.6-0.2,7.3-5.4c4.5-38.9,9.4-77.9,13.9-116.8c0.7-5.2,2.4-8.7,6.8-11.8
			c40-29,79.8-57.9,119.4-87.1c2.8-2.1,5.9-4.9,6.6-8c8-33.4,8.2-66.6-2.6-99.4c-2.1-6.8-5.4-13.2-8.7-21
			c-74.9,77-148.8,152.8-222.8,228.7c-0.5-0.2-0.7-0.7-1.2-0.9c0.7-1.2,1.6-2.4,2.4-3.3c69.5-86.2,138.9-172.4,208.9-258.1
			c5.7-7.1,6.6-13,3.5-21c-10.1-26.4-24.3-50.4-42.4-72.1c-3.3-4-7.8-7.3-12.5-11.5C648.7,377.7,583,492.8,517.6,608
			c1.6-6.1,4.2-11.8,6.8-17.4C579.3,472.1,633.9,353.4,689,235c2.6-5.4,2.1-9.7-1.9-13.4c-12.2-11.1-24-22.6-37-32.7
			C637,178.4,622.6,170,605.9,166c-8-1.9-8-1.6-10.4,6.1c-17.7,63.1-35.3,126.2-53,189.6c-20.7,74.2-41.4,148.4-62.2,222.8
			c-0.7,2.1-1.4,4.5-2.1,6.6c2.6-17.9,5.9-35.6,9.4-53c25-128.1,49.9-256.2,75.1-384.6c1.2-5.9-0.2-8.7-5.2-11.5
			c-31.6-17-65.5-22.6-101-20c-3.5,0.2-4.7,2.1-4.7,5.4c0,6.6-0.5,13.2-0.7,20c-2.8,83.6-5.7,167-8.5,250.6
			c-1.9,58.9-3.8,118-5.9,176.9c-0.2,4.9-0.7,9.7-0.9,14.6c-0.9-1.6-0.9-3.3-1.2-4.7c-1.4-33.2-2.8-66.4-4.5-99.6
			c-3.5-80.3-7.3-160.4-10.8-240.7c-1.6-38.6-3.5-77.2-5.2-115.9c-0.2-4.9-2.1-6.4-6.4-6.4c-9.9,0.2-19.8-0.5-29.4,0.5
			c-24.7,2.4-48.3,8.2-69.9,20.7c-4.2,2.4-5.9,4.9-4.7,10.1c26.4,127.2,52.5,254.3,78.7,381.3C386.6,553.6,390.4,572.2,394.4,590.8z
			"/>
		<path fill="#FCEE23" stroke="#F37D80" stroke-miterlimit="10" d="M394.4,590.8c-3.8-18.6-7.8-37.4-11.5-56
			c-26.1-127.2-52.3-254.3-78.7-381.3c-1.2-5.2,0.7-7.8,4.7-10.1c21.7-12.7,45.4-18.6,69.9-20.7c9.7-0.9,19.8-0.2,29.4-0.5
			c4.5,0,6.4,1.4,6.4,6.4c1.6,38.6,3.3,77.2,5.2,115.9c3.5,80.3,7.3,160.4,10.8,240.7c1.4,33.2,2.8,66.4,4.5,99.6
			c0,1.6,0.2,3.3,1.2,4.7c0.2-4.9,0.9-9.7,0.9-14.6c1.9-58.9,3.8-118,5.9-176.9c2.8-83.6,5.7-167,8.5-250.6c0.2-6.6,0.7-13.2,0.7-20
			c0-3.3,1.2-5.2,4.7-5.4c35.6-2.6,69.5,3.1,101,20c4.9,2.6,6.4,5.7,5.2,11.5C538,281.6,513.1,409.7,488.1,538
			c-3.5,17.7-6.8,35.1-9.4,53c0.7-2.1,1.6-4.2,2.1-6.6c20.7-74.2,41.4-148.4,62.2-222.8c17.7-63.1,35.3-126.5,53-189.6
			c2.1-8,2.4-8,10.4-6.1c16.5,4,31.1,12.5,44.3,22.8c13,10.1,24.7,21.7,37,32.7c4,3.8,4.5,8,1.9,13.4
			c-55.1,118.5-109.7,236.9-164.6,355.6c-2.6,5.7-5.2,11.3-6.8,17.4c65.5-115.2,131.2-230.3,197.3-346.6c4.7,4.2,9.2,7.5,12.5,11.5
			c18.1,21.7,32,45.7,42.4,72.1c3.1,7.8,2.1,13.9-3.5,21C697,451.8,627.3,538,557.8,624c-0.9,1.2-1.6,2.1-2.4,3.3
			c0.5,0.2,0.7,0.7,1.2,0.9c73.9-75.8,147.7-151.7,222.8-228.7c3.3,7.8,6.6,14.1,8.7,21c10.8,33,10.4,66.2,2.6,99.4
			c-0.7,3.1-3.8,5.9-6.6,8c-39.8,29.2-79.6,58.4-119.4,87.1c-4.2,3.1-6.1,6.8-6.8,11.8c-4.5,38.9-9.4,77.9-13.9,116.8
			c-0.7,5.2-3.3,5.4-7.3,5.4c-49.2,0.2-98.2,0.5-147.4,0.7c-4.9,0-8.5,1.4-12.5,4.5c-7.5,5.9-15.5,11.3-23.8,16.2
			c-10.4,6.1-21.2,6.4-31.6,0.2c-8.7-5.2-16.7-11.3-25.2-16.5c-3.3-1.9-7.1-3.8-10.8-3.8c-49,0-97.7,0.2-146.7,0.5c-8,0-8,0-8.9-8.2
			c-5.2-38.9-10.1-77.7-15.5-116.8c-0.5-3.1-3.1-6.4-5.7-8.2c-40-28.7-80.1-57.5-120.3-86c-4.5-3.3-7.1-6.8-8.2-12.5
			c-7.5-35.6-7.5-70.6,6.1-105c1.4-3.5,3.3-6.8,5.4-11.1c75.8,76.3,150.7,151.7,225.8,227.2c0.5-0.2,0.7-0.7,1.2-0.9
			c-5.4-6.8-11.1-13.7-16.5-20.3C235.7,528.6,169.5,448.3,102.9,368c-4.9-5.9-5.7-11.3-3.3-18.1c6.8-20,17-38.1,28.5-55.8
			c3.8-5.9,8-11.5,12.5-17c3.8-4.5,8.2-8.2,13.2-13.2c67.1,115.2,133.5,228.9,199.9,342.9c0.2-0.2,0.7-0.2,0.9-0.5
			c-0.5-1.4-0.9-3.1-1.6-4.5C303.5,497.8,254,393.4,204.4,289.4c-8.2-17.2-16-34.6-24.7-51.8c-2.8-5.7-2.1-9.7,1.6-14.1
			c14.4-17.2,31.6-31.1,50.6-42.4c9.7-5.7,20.7-9.4,31.3-13.9c5.2-2.1,7.3,0.2,8.7,5.4c38.4,132.6,77,265.2,115.6,397.7
			c2.1,6.8,4,13.9,6.1,20.7C393.5,591,393.9,591,394.4,590.8z"/>
	</g>
</g>
</svg>
