<?xml version="1.0" encoding="utf-8"?>
<!-- Generator: Adobe Illustrator 18.1.0, SVG Export Plug-In . SVG Version: 6.00 Build 0)  -->
<!DOCTYPE svg PUBLIC "-//W3C//DTD SVG 1.1//EN" "http://www.w3.org/Graphics/SVG/1.1/DTD/svg11.dtd">
<svg version="1.1" id="Layer_1" xmlns="http://www.w3.org/2000/svg" xmlns:xlink="http://www.w3.org/1999/xlink" x="0px" y="0px"
	 viewBox="0 0 870.6 870.5" enable-background="new 0 0 870.6 870.5" xml:space="preserve">
<g>
	<path fill-rule="evenodd" clip-rule="evenodd" fill="#EB513E" d="M0,847.1h870.6V22.6H0V847.1L0,847.1z M46,69.6h778.5v731.5H46
		V69.6L46,69.6z"/>
	<polygon fill-rule="evenodd" clip-rule="evenodd" fill="#EB513E" points="455.4,338 545.5,227.8 490.9,227.8 416.1,318.8 
		416.1,121.3 372,121.3 372,474.2 416.1,474.2 416.1,357.2 500.5,474.2 555.1,474.2 455.4,338 	"/>
	<path fill-rule="evenodd" clip-rule="evenodd" fill="#EB513E" d="M507.2,556.6c-53.7,0-76.7,29.7-76.7,58.5v4.8h43.1v-3.8
		c1-12.5,6.7-26.8,34.5-26.8c23,0,30.7,11.5,30.7,38.4c0,3.8,0,15.3,0,15.3s-12.5,1-18.2,1c-51.8,1.9-94,24.9-95.9,65.2
		c-1,40.3,25.9,58.5,60.4,58.5c25.9,0,44.1-10.6,54.7-21.1v16.3H581v-140C581,606.5,577.2,556.6,507.2,556.6L507.2,556.6z
		 M532.1,707.1c-5.8,14.4-22.1,26.8-40.3,26.8c-10.5,0-21.1-6.7-21.1-22.1c0-29.7,38.4-34.5,57.5-36.4c4.8,0,10.5,0,10.5,0
		C538.8,688.9,536.9,697.6,532.1,707.1L532.1,707.1z"/>
	<polygon fill-rule="evenodd" clip-rule="evenodd" fill="#EB513E" points="637.6,762.8 681.7,762.8 681.7,474.2 637.6,474.2 
		637.6,762.8 	"/>
	<polygon fill-rule="evenodd" clip-rule="evenodd" fill="#EB513E" points="720,762.8 763.2,762.8 763.2,474.2 720,474.2 720,762.8 	
		"/>
	<polygon fill-rule="evenodd" clip-rule="evenodd" fill="#EB513E" points="714.3,130.9 652,305.4 587.7,130.9 540.7,130.9 
		629.9,366.8 592.5,474.2 637.6,474.2 761.3,130.9 714.3,130.9 	"/>
	<path fill-rule="evenodd" clip-rule="evenodd" fill="#EB513E" d="M308.7,474.2l-69,221.5l-65.2-210.9c5.8,1,12.5,1,18.2,1
		c79.6,0,125.6-37.4,125.6-101.6c0-56.6-39.3-79.6-74.8-98.8L209,266.1c-25.9-13.4-51.8-28.8-51.8-54.7c0-29.7,22.1-47,59.4-47
		c27.8,0,55.6,6.7,79.6,17.3v-49.8c-18.2-5.8-48.9-10.6-76.7-10.6c-71,0-115.1,35.5-115.1,93c0,51.8,38.4,72.9,69,89.2l41.2,23
		c27.8,15.3,50.8,28.8,50.8,63.3c0,32.6-26.8,53.7-69,53.7c-30.7,0-59.4-8.6-88.2-21.1v340.4h44.1V542.2l68.1,220.5h38.3l69-220.5
		v220.5H372V474.2H308.7L308.7,474.2z"/>
</g>
</svg>
