<?xml version="1.0" encoding="utf-8"?>
<!-- Generator: Adobe Illustrator 18.1.0, SVG Export Plug-In . SVG Version: 6.00 Build 0)  -->
<!DOCTYPE svg PUBLIC "-//W3C//DTD SVG 1.1//EN" "http://www.w3.org/Graphics/SVG/1.1/DTD/svg11.dtd">
<svg version="1.1" id="Layer_1" xmlns="http://www.w3.org/2000/svg" xmlns:xlink="http://www.w3.org/1999/xlink" x="0px" y="0px"
	 viewBox="0 0 870.6 870.5" enable-background="new 0 0 870.6 870.5" xml:space="preserve">
<path fill="#3EA4DC" d="M434.8,1.9c239.4,0,434.8,193.6,434.8,433.1c0,239.3-195.4,434.8-434.8,434.8C195.4,869.7,0,674.2,0,434.9
	C0,195.5,195.4,1.9,434.8,1.9L434.8,1.9z"/>
<path fill="#FFF200" d="M15.8,419l206-42.2c-56.3-22.8-58.1-19.4-86.2-65.1c-21.1-35.1-42.2-47.5-89.8-29.9
	c29.9-35.2,44-47.5,82.7-37c15.8,5.3,29.9,15.8,44,28.2c24.6,17.6,52.8,28.2,82.7,33.5L146.1,132.2l169,107.3
	c-21.1-38.7-28.2-54.6-19.4-82.7c5.3-15.9,14.1-26.4,12.3-44c0-5.3,0-12.3-1.8-17.6c-5.3-15.9-15.8-26.4-35.2-38.7L257,49.4
	c47.5,0,72.2,0,86.3,24.6c3.5,7,7,14.1,8.8,22.9c5.3,21.1,0,42.3,5.3,63.4c3.5,14.1,15.9,26.4,29.9,42.3l10.5,8.8l33.5-186.6
	l49.3,197.1c14.1-44,15.8-65.1,56.3-89.7c17.6-10.7,35.2-22.9,42.2-40.6c7.1-15.8,1.8-33.4-7-61.6c30,31.7,47.5,51,45.7,75.7
	c0,21.1-19.4,40.5-33.4,61.6c-14.1,24.6-19.4,45.7-19.4,74l165.5-102.1L623.1,301.1c44-8.8,59.9-15.9,93.3-3.5
	c44,17.6,77.4-1.7,89.8-47.5c3.5,59.8,8.8,79.1-38.7,96.8c-15.9,5.3-31.7,5.3-47.6,5.3c-31.6,1.8-52.7,5.3-66.9,33.4l200.7,37
	l-181.3,42.2c21.1,14.1,37,26.4,49.3,42.3c26.4,33.4,35.2,58.1,81,61.6c12.3,1.7,24.6,0,40.5-1.8c-49.3,40.5-73.9,47.6-112.6,26.5
	c-24.6-14.1-31.7-30-49.3-38.8c-15.8-10.6-37-7-54.6-7l110.9,177.8L577.4,621.5c1.7,30,3.5,47.5,1.7,68.7c-3.5,19.4-7,31.7-8.8,44
	c0,36.9,30,63.3,59.9,73.9c-45.8,0-98.6-1.7-110.9-59.8c-1.7-10.6-1.7-24.7-3.5-45.8c-3.5-21.1-10.5-31.6-29.9-61.6l-47.5,205.9
	l-44-197.2c-10.6,19.4-17.6,31.7-26.4,42.3c-8.8,12.3-19.4,22.9-33.5,31.7c-15.8,12.3-24.6,17.6-31.6,26.4
	c-17.6,19.5-15.9,44.1-5.3,66.9c-28.2-8.8-38.7-24.6-44-47.5c-7-40.5,10.6-54.6,33.4-86.3c8.8-12.3,14.1-21.1,17.6-28.1
	c5.3-14.1,7.1-26.4,7.1-47.6L137.3,721.9l109.1-174.3c-35.2,15.8-49.3,19.3-88,14c-19.3-3.5-42.3-7-59.8-3.5
	c-24.6,3.5-26.4,21.1-44,49.2c0-54.5,8.8-79.2,36.9-93.2c14.1-7.1,37-10.6,58.1-14.1c37-5.2,51.1-7.1,77.5-35.2L15.8,419L15.8,419z"
	/>
</svg>
