<?xml version="1.0" encoding="utf-8"?>
<!-- Generator: Adobe Illustrator 18.1.0, SVG Export Plug-In . SVG Version: 6.00 Build 0)  -->
<!DOCTYPE svg PUBLIC "-//W3C//DTD SVG 1.1//EN" "http://www.w3.org/Graphics/SVG/1.1/DTD/svg11.dtd">
<svg version="1.1" id="Layer_1" xmlns="http://www.w3.org/2000/svg" xmlns:xlink="http://www.w3.org/1999/xlink" x="0px" y="0px"
	 viewBox="0 0 870.6 870.5" enable-background="new 0 0 870.6 870.5" xml:space="preserve">
<g>
	<polygon fill-rule="evenodd" clip-rule="evenodd" fill="#EF3E42" points="71.3,689.3 799.2,689.3 799.2,870.5 71.3,870.5 
		71.3,689.3 71.3,689.3 	"/>
	<path fill-rule="evenodd" clip-rule="evenodd" fill="#FFFFFF" d="M229.4,738.1c1.5,3.1,2.3,6.6,2.2,10.8l-99,0
		c-3,0-7.8,1.7-9.5,5.7c-2.2,4.9,0.3,10.6,5.2,12.7c2,0.9,5.4,0.7,5.4,0.7h72c12.9,0.9,24.4,9.2,28.8,22.8c3.9,11.9,1.9,21.7-6,31.4
		c-9.1,11.2-21.5,11.3-35.2,11.3l-79.7-0.1c-8.6,0-15.9-8.5-17.2-17.3l-0.1-4.4l105.2,0.1c3.5,0,8-4.9,8.2-9.8
		c0.1-5.4-3.6-10.5-8.9-10.5h-75.8c-13.1,0-26.5-12.3-28.6-27.7c-1.7-12.4,2.3-21.9,12-29.9c7.3-6.1,12.8-7.8,23-7.8l70.1-0.1
		C212.6,725.9,224.4,727.8,229.4,738.1L229.4,738.1L229.4,738.1z"/>
	<path fill-rule="evenodd" clip-rule="evenodd" fill="#FFFFFF" d="M393.3,726.6c16.9,0,30.7,17.4,30.2,35.7
		c-0.4,17.6-15.8,33.8-29.8,33.8h-59.1c-8.7-1.1-15.3-7.3-18.7-14.6c-1.2-2.8-1.2-6.8-1.6-9.8l3.1,0.1h71.5c3.1,0,6-2.8,7.5-6.4
		c1.3-3.2,1.2-5.9-0.4-9c-1.8-3.4-5-5.6-8.2-5.6H308l-0.7,0.7v70.6c0,6.6-5.7,11.4-12.5,11.3c-5.9-0.1-11.4-4.9-11.4-11.1v-75.5
		c0-6.2,2.4-9.9,6.8-14.1c4.6-4.4,10.8-6.1,15.3-6.1L393.3,726.6L393.3,726.6L393.3,726.6z"/>
	<path fill-rule="evenodd" clip-rule="evenodd" fill="#FFFFFF" d="M521.6,755.1c7.9,10.9,16.5,21.4,24,32.8h-52.9l26.3-32.9
		c0,0,0.7-1.1,1.4-1C521,753.9,521.6,755.1,521.6,755.1L521.6,755.1L521.6,755.1L521.6,755.1z M543.2,742.8
		c13.6,19,41.2,54.5,55.1,74.6c1.8,4.5-0.3,9.4-2.6,13.1c-3.8,3.5-9.9,4.3-14.2,2.2c-6.7-6-11.4-13.5-16.8-20.2l-90.9-0.2L463,826.9
		c-3.4,4.6-7.7,7.7-14.3,6.6c-3.4-0.7-6.7-3.6-7.9-6.7c-1.8-4.1-1.6-7.9,0.7-11.6l57.6-76.3c4.8-7.2,10.1-12.4,19.1-12.3
		C532.4,726.7,533.4,730.2,543.2,742.8L543.2,742.8L543.2,742.8z"/>
	<path fill-rule="evenodd" clip-rule="evenodd" fill="#FFFFFF" d="M747.6,726.6c12.5,0,24.2,9.5,28.9,23.1
		c5,14.6,0.4,27.6-10.9,38.1c-2.5,2.3-7.1,5.2-7.1,5.2l15.6,22.4c1.4,2,1.9,6.1,0.6,9.6c-1.2,3.3-2.9,5.2-6.1,6.5
		c-4.4,1.9-10.1,0.1-12-2.1c0,0-14.9-18.2-23.2-28.5c-1.5-1.5-2.2-2.9-3.7-4.5l-39.8,0.2c-9.9,0-21.5-11.8-21.5-21.2v-3.6l74.2-0.1
		c2.8,0,5.9-2.6,7.4-6c1.4-3.1,1.3-5.5,0-8.6c-1.6-3.7-5.3-6.3-8.1-6.3l-80.7,0.2l-0.2,0.8v71.9c0,4.8-6.6,10.9-13.1,10.3
		c-6-0.6-10.9-6.7-10.9-10.9l0.1-76.2c0-7.9,2.3-11,7.3-15.4c4.9-4.3,9.3-5.2,15.8-5.2L747.6,726.6L747.6,726.6L747.6,726.6z"/>
	<path fill-rule="evenodd" clip-rule="evenodd" fill="#008348" d="M250.2,397.7c-9.7,12.7-19.6,25.2-29.6,37.4l181-0.4
		c-1.1,24,4.6,53.4-6.6,74c-11.3,22.6-37.7,33.9-62.1,34.3c-73-6.8-121.5-70.5-149.3-130.8c-2.1-4.8-4-9.6-5.7-14.6
		c-25-72.4-11.5-165.2,36.1-224.5c70.7-93.2,195.5-130.8,311.8-95.1c70.9,22.1,134,76.9,165.1,146.6c22.5,52.7,23.2,116.1,4.9,173
		c-11.7,36.4-31.2,70.1-57.7,96.5c-32.8,27.6-68.1,56.6-113.6,47.6c-24.8-5.8-42.7-22.9-48.9-46.2c-5.3-20.3-4-39.8-1.3-60.8
		l184.7-0.3l-5-6.3c-8.6-10-17-20.2-25.2-30.4h0C547.3,296.4,482.2,184,437.3,66.2C390.1,182.7,326.1,298,250.2,397.7L250.2,397.7
		L250.2,397.7L250.2,397.7z M106.2,397.7C134.9,505.6,222.3,594,330.3,625c136,42.7,289.9-2.8,377.8-107c28.3-34.3,48.7-76,60-120.3
		c19-74.4,12.3-156.2-25.7-223.2c-27.2-47.3-67.1-91.9-112.3-120.2c-101.4-66.7-252-72-358-15.9C163.5,93.9,88.6,209.8,96.5,335.7
		C97.5,356.9,100.8,377.7,106.2,397.7L106.2,397.7z"/>
</g>
</svg>
