<?xml version="1.0" encoding="utf-8"?>
<!-- Generator: Adobe Illustrator 18.1.0, SVG Export Plug-In . SVG Version: 6.00 Build 0)  -->
<!DOCTYPE svg PUBLIC "-//W3C//DTD SVG 1.1//EN" "http://www.w3.org/Graphics/SVG/1.1/DTD/svg11.dtd">
<svg version="1.1" id="Layer_1" xmlns="http://www.w3.org/2000/svg" xmlns:xlink="http://www.w3.org/1999/xlink" x="0px" y="0px"
	 viewBox="0 0 870.6 870.5" enable-background="new 0 0 870.6 870.5" xml:space="preserve">
<g>
	<path fill-rule="evenodd" clip-rule="evenodd" fill="#034EA2" d="M263.6,201.2c4.7,4.7,2.4,13.1,0.5,18.8l-2.3,0.9
		c-13.2-7.5-29.2-17.8-45.2-10.7c-7,3.3-12.7,10.9-14.5,17.9c-1.8,9.4,0.1,18.8,6.2,24.9c20.8,21.1,62.2,28.9,57.6,66.1
		c-5.6,18.4-22,32-38.9,38.2c-20.7,4.8-40,2.5-58.3-4c-6.1-5.6-1.5-14.1-1-20.7l1.4-0.9c13.2,10.8,28.3,21.1,46.6,17.2
		c8.9-2.9,16.9-7.6,21.6-16.5c1.9-7.5,4.2-18.3-0.6-25.4c-13.7-23.5-47.6-23.8-57.6-52c-5.7-14.6-0.1-30.1,8.3-40.9
		C205.2,191,237.7,200.3,263.6,201.2L263.6,201.2z"/>
	<path fill-rule="evenodd" clip-rule="evenodd" fill="#034EA2" d="M366.1,212.6c12.8,16.9,7.2,44.2-3.1,60.7
		c-9.4,12.3-24.8,19.4-41.3,18.5c-5.6,0-11.3-0.9-15.5-4.2l0.5-2.8c15.5-1.5,30.5-10,37-25c5.1-12.2,5.5-30.1-2-41.4
		c-5.2-7-13.2-10.8-22.1-10.3c-5.6,1.9-14.1-0.4-16.9,6.2c-2.6,47-10,94.1-7.9,143c-9.9,3.3-18.8,1.9-29.2,0.6
		c0.4-19.7,6.5-39,8.3-59.3c2.7-29.6,4.5-63.5,2.9-95c1.4-6.1,8.9-2.4,13.6-3.3C316.2,201.5,348.6,190.5,366.1,212.6L366.1,212.6z"
		/>
	<path fill-rule="evenodd" clip-rule="evenodd" fill="#034EA2" d="M456.3,200c6.1,2.3,6.1,9.4,5.2,14.1c0,1.4-0.9,3.3-2.3,3.8
		c-14.6-8.4-35.8-7.4-51.3-6.9l-3.3,5.7l-4.5,46.1c0,2.4,2.4,4.7,4.7,5.6c14.6,0.4,32.9-2,48.4-0.2c1.9,1.9-0.5,4.2-1.9,5.6
		c-14.5,9.5-33.8,8.1-50.7,10.1l-3.3,4.7l-2.6,53.6l3.3,2.8c21.6,0.9,43.7,0.3,61.6-9.2c3.3-0.5,1.9,3.3,2.8,4.7
		c-1.4,6.1-1.8,13.2-7.5,16l-12.2,1.4c-28.2,0.1-51.7,0.6-75.2-0.7l-1-4.7c9.7-48,13.7-101.1,10.3-151.9l2.8-1.4L456.3,200
		L456.3,200z"/>
	<path fill-rule="evenodd" clip-rule="evenodd" fill="#034EA2" d="M554.1,199.7c3.8,0.9,6.6,4.2,7.1,8c0,3.8,0,8-3.3,10.3
		c-15.1-8.9-34.3-6.9-51.3-6.4l-2.8,4.2l-5,46.5c1,3.3,3.3,5.6,6.6,6.1c16-0.1,32.9-2,47.5-0.2c-1.8,9.9-15,10.4-23,12.3l-29.6,2.9
		l-3.3,3.8l-3.1,54.5l4.2,3.3c21.2,0.9,43.3,0.3,60.6-9.1c3.8,0,2.4,4.2,2.8,7c-2.3,4.7-2.3,12.7-9.3,14.1
		c-26.3,1.5-55.5,0.7-83.2,0.8c-2.8-0.5-3.8-3.7-2.8-5.6c9.2-48,13.7-101.1,10.3-151.4l2.3-1.4L554.1,199.7L554.1,199.7z"/>
	<path fill-rule="evenodd" clip-rule="evenodd" fill="#034EA2" d="M701.8,226.9c16.1,23.9,14.8,60.6,1.2,85.6
		c-16.3,33-52,50.5-88.2,47.3c-16-1.8-34.8,0.1-50.8-2.6c9.7-48.9,13.3-99.3,14.5-152.4l3.7-3.3
		C622.3,203.6,677.7,184.7,701.8,226.9L701.8,226.9z M622.3,210.2c-5.6,1.4-14.6-1.8-17.9,4.8l-9.4,126.5l2.4,3.3
		c13.2,5.6,32.5,4.6,46.1,0.8c17.4-7.1,30.5-21.3,36.5-39.2c8.8-24,7.8-56.4-8.3-76.6C660.4,215.3,640.7,209.7,622.3,210.2
		L622.3,210.2z"/>
	<path fill-rule="evenodd" clip-rule="evenodd" fill="#034EA2" d="M849.4,215.1c23.6,24.8,26.6,69.5,12.6,99.2
		c-10.3,24-33.7,41.5-59.1,45.3c-22.1,2-49.8,2.5-64.9-15.3c-19.3-20.6-23.2-53-16.7-79.9c7.4-28.7,28-52.3,56.7-60.8
		C801.4,197.8,831.5,197.3,849.4,215.1L849.4,215.1z M807.1,211.9c-17.4-2.3-35.3,3.4-45.1,18.5c-17.8,27.3-24.7,72-3.9,100.2
		c9.4,11.3,24,17.8,38.6,16.8c15.1,0,26.8-10.4,34.2-21.8c17.3-28.3,17.1-74.8-3.7-101.1C822.2,218.9,814.6,213.8,807.1,211.9
		L807.1,211.9z"/>
	<path fill-rule="evenodd" clip-rule="evenodd" fill="#ED1C24" d="M820.9,383.9c4.7,0.9,9.9,4.2,11.8,9.4c1.4,6.6-0.4,12.7-4.6,17.4
		l-6.1,4.2L13.3,681.1c-6.1,1-13.2,0-13.2-7c-1-6.1,5.6-10.9,10.3-13.7l381.5-194.1c3.3-2.4,7-7.6,4.2-11.8l-5.7-5.6L177.3,398
		c-5.6-2.3-20.2-0.9-19.8-11.2l4.2-2.8H820.9L820.9,383.9z"/>
</g>
</svg>
