<?xml version="1.0" encoding="utf-8"?>
<!-- Generator: Adobe Illustrator 18.1.0, SVG Export Plug-In . SVG Version: 6.00 Build 0)  -->
<!DOCTYPE svg PUBLIC "-//W3C//DTD SVG 1.1//EN" "http://www.w3.org/Graphics/SVG/1.1/DTD/svg11.dtd">
<svg version="1.1" id="Layer_1" xmlns="http://www.w3.org/2000/svg" xmlns:xlink="http://www.w3.org/1999/xlink" x="0px" y="0px"
	 viewBox="0 0 870.6 870.5" enable-background="new 0 0 870.6 870.5" xml:space="preserve">
<g>
	<path fill="#23221D" d="M517.4,4.7c39.5,0,52.5,83.3,52.5,83.3s-44.4-28-54.5,0.6c-4.4,17.2-6.4,25.2-10.8,45.9
		c17.2,17.2,56.1,58.3,56.1,58.3s4.9,9.2,15.7,9.2c10.8,0,24.4-1.2,31.5-11.4c7.4-10.2,21.6-80.5,21.6-80.5s7.4-31.5,62.6-34.5
		c30.2-1.6,82.7,0,82.7,0s54.5,3.7,54.5,48.1v608.4L669.8,584.2c0,0-11.7-10.8-23.2-1.2c-11.4,9.2-0.6,22.2-0.6,22.2
		s22.9,51.8,30.2,66.9c7.1,14.8-5.2,25.6-5.2,25.6l5.2,14.5c0,0,24.4-8.6,35.1,8c10.8,16.3,23.8,43.8,23.8,43.8s-14.5-5.2-28-8.6
		c-13.6-3.7-10.8,4.9-9.2,9.9c1.2,5.2,6.4,24.4,6.4,24.4s-18.2-7.7-26.8-12.7c-8.6-5.2-9.9-2.2-10.8,2.8c-0.6,4.9-5.5,21.6-5.5,21.6
		s-13.6-22.2-21.6-38.8c-8-16.6,10.2-30.9,10.2-30.9l-7.4-17.2c0,0-17.2,3.7-33-14.5c-15.7-17.9-28.7-35.7-43.2-48.7
		c-14.2-13-19.4,4.4-17.2,10.8c2.2,6.4,30.2,94.6,35.4,107c4.9,12.4,16.3,43.2-4.4,54c-21,10.8-62.6,26.5-62.6,26.5
		s-23.2-82.7-28.7-100.6c-5.8-18.2-18.8-10.8-17.9,0.6c0.6,11.4,9.9,82.1,12.1,98.4c2.2,16.6,0,21-17.2,22.2
		c-6.8,0.6-50.6,0.6-57.3,0c-17.2-1.2-19.4-5.5-17.2-22.2c2.2-16.3,11.4-86.9,12.4-98.4c0.6-11.4-12.4-18.8-18.2-0.6
		c-5.5,17.9-28.7,100.6-28.7,100.6S315,833.8,294.4,823c-21-10.8-9.6-41.7-4.4-54c4.9-12.4,33-100.6,35.1-107
		c2.2-6.4-3.1-23.8-17.2-10.8c-14.5,13-27.4,30.9-43.2,48.7c-15.7,18.2-33,14.5-33,14.5l-7.1,17.2c0,0,17.9,14.2,9.9,30.9
		c-7.7,16.6-21.6,38.8-21.6,38.8s-4.9-16.6-5.5-21.6c-0.9-4.9-2.2-8-10.8-2.8c-8.6,4.9-26.5,12.7-26.5,12.7s4.9-19.1,6.4-24.4
		c1.2-4.9,4.4-13.6-9.6-9.9c-13.6,3.4-27.7,8.6-27.7,8.6s12.7-27.4,23.5-43.8c10.8-16.6,35.4-8,35.4-8l4.9-14.5
		c0,0-12.4-10.8-4.9-25.6c7.1-15.1,29.9-66.9,29.9-66.9s10.8-13-0.6-22.2c-11.4-9.6-22.9,1.2-22.9,1.2L41.3,725.1
		c0,0,3.4-556.6,3.4-601.4c0-44.4,54.5-48.1,54.5-48.1h82.7c30.2,0,54,41,54,41s33,63.3,40.1,73.4c7.4,9.9,10.8,12,21.6,12
		c10.8,0,16-9.2,16-9.2S378.1,57.1,383,43.6c5.2-13.9-2.8-18.8-2.8-18.8L363.9,4.7H517.4L517.4,4.7L517.4,4.7z"/>
</g>
</svg>
