<?xml version="1.0" encoding="utf-8"?>
<!-- Generator: Adobe Illustrator 18.1.0, SVG Export Plug-In . SVG Version: 6.00 Build 0)  -->
<!DOCTYPE svg PUBLIC "-//W3C//DTD SVG 1.1//EN" "http://www.w3.org/Graphics/SVG/1.1/DTD/svg11.dtd">
<svg version="1.1" id="Layer_1" xmlns="http://www.w3.org/2000/svg" xmlns:xlink="http://www.w3.org/1999/xlink" x="0px" y="0px"
	 viewBox="0 0 870.6 870.5" enable-background="new 0 0 870.6 870.5" xml:space="preserve">
<path fill-rule="evenodd" clip-rule="evenodd" fill="#EB302E" d="M180.8,796.2c30.8,19.4,63.3,36.3,91.4,48
	c28.1,11.6,51.8,18,77.4,22.4c25.6,4.4,53,6.7,82.4,6.4c29.4-0.2,60.8-3,90.3-8.5c29.6-5.6,57.3-13.9,84.3-25.3
	c26.9-11.4,53-25.9,77.3-42.9l0,0l2.4-2.4L480.8,645V439.5h85v-83.8H294.2v83.8h85V645L180.8,796.2L180.8,796.2z M22.7,298.8h309.4
	L428.9,0l0,0c-49.2,2.7-98.1,12.5-142.6,28.6c-44.5,16-84.7,38.3-119.3,64.7c-34.6,26.4-63.6,57.1-87.3,90.7
	C56,217.7,37.6,254.3,25,292.9l0,0L22.7,298.8L22.7,298.8z M437.1,0l95.7,298.8h305.9l0,0c-16.3-40.1-36.9-78.4-59.6-111.4
	c-22.6-32.9-47.3-60.5-73.2-83.5c-25.8-23-52.7-41.6-80.7-56.5c-28-14.9-57-26.1-87.4-34C507.5,5.6,475.9,1,444.2,0l0,0H437.1
	L437.1,0z M20.1,307.1c-5.6,21.5-10.6,43.1-13.7,59.1c-3.1,16-4.3,26.3-5.1,36.9C0.4,413.8,0,424.9,0,435.9
	c-0.1,43.5,6.2,87,19.2,129.6c12.9,42.5,32.4,84.1,57.7,121.8c25.3,37.8,56.5,71.8,92,100.5l0,0l3.5,2.4l100.4-297.6L20.1,307.1
	L20.1,307.1z M591.7,492.5l102.7,296.4l0,0c30.7-27.9,58.7-58.9,80.7-88.9c22-30,37.9-59.2,50.3-88.2c12.4-29,21.1-58,26.9-87.7
	c8.6-43.7,10.7-88.8,6.4-133.7c-1.4-14.3-3.5-28.5-6.1-41.8c-2.9-14.6-6.2-28.1-10.6-41.5l0,0L591.7,492.5L591.7,492.5z"/>
</svg>
