<?xml version="1.0" encoding="utf-8"?>
<!-- Generator: Adobe Illustrator 18.1.0, SVG Export Plug-In . SVG Version: 6.00 Build 0)  -->
<!DOCTYPE svg PUBLIC "-//W3C//DTD SVG 1.1//EN" "http://www.w3.org/Graphics/SVG/1.1/DTD/svg11.dtd">
<svg version="1.1" id="Layer_1" xmlns="http://www.w3.org/2000/svg" xmlns:xlink="http://www.w3.org/1999/xlink" x="0px" y="0px"
	 viewBox="0 0 870.6 870.5" enable-background="new 0 0 870.6 870.5" xml:space="preserve">
<path fill="#010101" d="M813.2,217.8C693,9.7,426-61.9,217.8,58.3C9.7,178.5-61.9,445.5,58.3,653.7
	c120.2,208.1,387.2,279.7,595.4,159.5C861.8,693,933.3,426,813.2,217.8z M74.9,644.1C-39.9,445.1,28.5,189.8,227.4,74.9
	c159.2-91.9,354.4-66.5,484.9,49.2c2.8-1.5,5.6-3.2,8.6-5c32.3,29.1,60.7,63.7,83.6,103.4c53.6,93,68.2,197.9,48.9,295.6
	c-2.6-2.6-5.3-5.1-8.1-7.6c-21.3,116.1-91.3,222.5-201.3,286C445.1,911.4,189.8,843,74.9,644.1z"/>
<path fill="#010101" d="M622.9,188c-18.2,9.6-59.2,20.9-107.6,7.4c31.4,3,74.7-3.9,97-12.3c14.4-5.4,27.7-16.3,38-29.7
	c12.7-16.5,20.7-36.9,20-55.7c-9.1,15.2-32.9,20.7-49,25.4c-28.4,8.3-58.5,8.8-86.3,17.7c-34.5,11.1-70.9,27.9-103.1,44.6
	c-19.8,10.2-96.9,53.8-114,67.7c-32.4,26.4-41.6,64.8-69.1,95.3c-16.1,17.9-84.2,70.4-98.5,83.7c-26.1,24.4-44.3,57.8-83.1,83.9
	c-11.5,7.7-11.1,19.7-13,32.1c-2.9,19.6,8.2,20.4,20.3,30.4c9.7,8.1,15.6,21.7,22.2,33c5.2,9,15,36.7,23.7,41.3
	c5.9,3.1,10-3.5,15.6-1.9c7.6,2.1,12.6,10.8,18,15.8c15.4,14.2,32,30.1,51.7,38.8c28.4,12.7,62.9,13.2,95.2,8.5
	c-18.2-8.4-36.2-21.6-46.1-30.4c-24.3-21.4-38.3-58.6-31.4-90c13.5-61.2,80.3-97.9,132.9-124.8c31-15.9,70.9-12.4,99.8,5.1
	c35.6,21.5,41.2,65.4,35,101.9c-5.6,32.9-12.4,63.8-28.3,93.5c-11.1,20.6-41.4,54.1-65.3,60.9c-6.6,1.9-31.1,3.5-51.2,3.7
	c11.1,17.7,28.3,31.5,47.5,37.3c-0.5,4.4-1.4,11.5,9.4,17.3c12.9,4.5,11.6-10.9,64.7-1.9c28.7,4.9,55.5-6.3,79.9-23.9
	c9.8-7.1,23.8-16.1,31.3-25.6c6.7-8.5,24.4-42.5,45.1-69.9c-25.3,12.9-56.1,25.7-67.2,13.4c-15.2-16.8,1.1-50.7,10.3-64.5
	c12.1-18.1,38.1-24.9,56-36c22.8-14.2,35.4-26.2,51.3-47.7c11.5-15.6,23-36.5,28-62.1c7.3-37.8,6.3-87.9-42.5-143.4
	C624,293.1,545,285.7,484.5,298.7c43.6-14.3,66.4-14,91.8-12.4c28.5,1.8,57,4,85.1,28.6c32.4,28.4,48,57.1,55.7,97.3
	c2.9,15.3,2,30.8,0.8,55.3c0.3,0,21.1-1.8,21.4-1.8c19.9,0.1,36.5,2.5,54.6,10.6c19.3,8.6,36.4,20.5,51.6,34.2
	c2.7,2.5,5.5,5,8.1,7.6c19.3-97.7,4.7-202.5-48.9-295.6c-22.9-39.7-51.3-74.3-83.6-103.4c-3,1.9-5.9,3.5-8.6,5
	c-20.6,11.2-34.7,12.7-45.6,17.9C658.1,168,645.6,176.1,622.9,188z M319.4,336.9c-12.8,11.2-30.7,20.6-46.5,27.1
	c-7,2.9-8.7,16.1-12.2,10.5c-0.8-1.4,3.2-5.5,6.8-13.5c11.5-25.6,14.4-32.3,32.8-50.1c18.4-17.8,38.5-34.2,61.2-42.8
	C324.2,308.1,343.1,316.1,319.4,336.9z"/>
</svg>
