<?xml version="1.0" encoding="utf-8"?>
<!-- Generator: Adobe Illustrator 18.1.0, SVG Export Plug-In . SVG Version: 6.00 Build 0)  -->
<!DOCTYPE svg PUBLIC "-//W3C//DTD SVG 1.1//EN" "http://www.w3.org/Graphics/SVG/1.1/DTD/svg11.dtd">
<svg version="1.1" id="Layer_1" xmlns="http://www.w3.org/2000/svg" xmlns:xlink="http://www.w3.org/1999/xlink" x="0px" y="0px"
	 viewBox="0 0 870.6 870.5" enable-background="new 0 0 870.6 870.5" xml:space="preserve">
<path fill-rule="evenodd" clip-rule="evenodd" fill="#D2232A" d="M435,601.6c34.9,0,63.4-72.7,64.9-163.8l0.2,0.1
	c-21,1.9-42.8,2.9-65.1,2.9c-22.3,0-44.1-1-65.1-2.9l0.2-0.1C371.6,528.9,400.1,601.6,435,601.6 M435,368.6c20.8,0,41-0.9,60.3-2.6
	l0,0c-9.6-62.9-33-107.3-60.3-107.3c-27.3,0-50.7,44.4-60.3,107.3l0,0C394,367.7,414.2,368.6,435,368.6z M463.1,689.6
	C657.8,679.5,811.4,564.9,811.4,425c0-47.5-17.7-92.1-48.8-130.7l-0.4-0.8c-2.3,64.6-94,119.2-220.9,139.2l0.1-0.1
	c0.1,4.2,0.1,8.5,0.1,12.8c0,117.2-33.6,215.8-79.2,244.3L463.1,689.6z M435,192.8c46.4,0,85.8,70.3,100.4,168.5l0.1-0.1
	c90.2-14.1,153.4-46.5,153.4-84.2c0-50.6-113.7-91.6-253.9-91.6c-140.2,0-253.9,41-253.9,91.6c0,37.7,63.2,70.1,153.4,84.2l0.1,0.1
	C349.2,263.1,388.6,192.8,435,192.8z M0,435.3c0-156.5,194.8-283.4,435-283.4c240.2,0,435,126.9,435,283.4
	c0,156.5-194.8,283.4-435,283.4C194.8,718.6,0,591.7,0,435.3z M407.7,689.8c-45.6-28.6-79.2-127.2-79.2-244.3c0-4.3,0-8.5,0.1-12.8
	l0,0.1c-126.9-20-218.5-74.6-220.9-139.2l-0.4,0.8C76.4,332.9,58.7,377.5,58.7,425c0,139.9,153.5,254.5,348.2,264.6L407.7,689.8z"/>
</svg>
