<?xml version="1.0" encoding="utf-8"?>
<!-- Generator: Adobe Illustrator 18.1.0, SVG Export Plug-In . SVG Version: 6.00 Build 0)  -->
<!DOCTYPE svg PUBLIC "-//W3C//DTD SVG 1.1//EN" "http://www.w3.org/Graphics/SVG/1.1/DTD/svg11.dtd">
<svg version="1.1" id="Layer_1" xmlns="http://www.w3.org/2000/svg" xmlns:xlink="http://www.w3.org/1999/xlink" x="0px" y="0px"
	 viewBox="0 0 870.6 870.5" enable-background="new 0 0 870.6 870.5" xml:space="preserve">
<g>
	<path fill="#1D1D1B" d="M298,435.3c36.3-21.6,84.7-34.8,137.8-34.8s101.5,13.2,137.8,34.8c-36.3,21.6-84.7,34.8-137.8,34.8
		C382.7,470.1,334.4,456.9,298,435.3L298,435.3z M714.1,435.3c93.5-41.6,154.1-103.6,157.7-173.3c-59.7-39-139.6-69.8-231.8-88.3
		v164.8h0c-0.2,23-9.5,44.7-25.6,63.5c-54.5-13.1-114.8-20.4-178.4-20.4c-63.6,0-123.9,7.3-178.4,20.4
		c-16.1-18.8-25.4-40.5-25.6-63.5h0V173.6C139.6,192.2,59.7,223,0,262c3.6,69.7,64.2,131.8,157.7,173.3
		C64.2,476.8,3.6,538.9,0,608.6c59.7,39,139.6,69.8,231.8,88.3V532.1h0c0.2-23,9.5-44.7,25.6-63.5C312,481.7,372.3,489,435.9,489
		s123.9-7.3,178.4-20.4c16.1,18.8,25.4,40.5,25.6,63.5h0v164.8c92.2-18.6,172.1-49.3,231.8-88.3
		C868.1,538.9,807.5,476.8,714.1,435.3L714.1,435.3z"/>
</g>
</svg>
