<?xml version="1.0" encoding="utf-8"?>
<!-- Generator: Adobe Illustrator 18.1.0, SVG Export Plug-In . SVG Version: 6.00 Build 0)  -->
<!DOCTYPE svg PUBLIC "-//W3C//DTD SVG 1.1//EN" "http://www.w3.org/Graphics/SVG/1.1/DTD/svg11.dtd">
<svg version="1.1" id="Layer_1" xmlns="http://www.w3.org/2000/svg" xmlns:xlink="http://www.w3.org/1999/xlink" x="0px" y="0px"
	 viewBox="0 0 870.6 870.5" enable-background="new 0 0 870.6 870.5" xml:space="preserve">
<path fill="#0A7CBF" d="M770.1,189.7c-4.5,0-11,0-14.5-7.1c-2.9-5.8-1.9-15.2-7.4-19.4c5.5,1.6,11.3,1.6,15.8,1.6
	c14.5,0,28.4-10,39.1-10c7,0,9.3,4.5,9.3,9C812.4,178.1,783.7,189.7,770.1,189.7z M777.2,226.1c33.5,0,64.2-26.8,64.2-50.3
	c0-11-5.2-20-18.4-21.6c2.3,2.9,3.2,5.2,3.2,10.3c0,17.7-27,37.4-56.4,37.4c-10.7,0-13.9,7.4-13.9,11.3
	C755.9,222.3,764.7,226.1,777.2,226.1z M774.7,239.7c4.2,30.6,50.6,71.9,63.2,71c8.4-0.7,11.6-40,11.6-71c0-17.7,1-31.6-8.4-34.9
	C826.3,234.8,787.3,241,774.7,239.7"/>
<path fill="#0A7CBF" d="M48.6,442.6c11,0,8.7-67.1,26.4-67.1c4.2,0,5.5,4.2,5.5,9.4c0,15.2-7.4,37.4-7.4,49.7c0,6.1,1.6,8.1,4.5,8.1
	c7.8,0,21.3-73.9,34.5-73.9c4.2,0,6.1,4.2,6.1,8.4c0,15.5-19.7,60-19.7,72.6c0,1.9,0.6,3.5,2.3,3.5c8.1,0,24.2-34.8,29.3-52.2
	c2.9-9,6.8-13.9,10.3-13.9c3.2,0,6.1,3.6,6.1,11c0,17.4-16.1,58.4-30.3,85.8c-11,21.3-28,51.9-28,69c0,8.7,1.6,17.7,14.2,28.7
	c-20.6-1.3-29-3.2-36.8-19.3c-34.5,68.7,63.5,61.9,30,122.9c-6.1-10.9-54.5-22.2-54.5-86.1c0-55.2,48.4-87.4,48.4-110.3
	c0-4.5-1.6-8.4-5.8-11.9c-10.7-9.1-11-16.4-19.4-16.4c-6.1,0-13.6,14.2-5.8,26.8c2.6,4.2,4.8,6.8,4.8,10.6c0,9-14.2,33.2-24.2,33.2
	c-10,0-17.7-24.8-17.7-64.8c0-35.5,8.1-71.3,18.1-71.3c2.9,0,3.9,1.9,3.9,4.5c0,4.2-1.3,12.6-1.3,26.8
	C42.1,441.3,45.7,442.6,48.6,442.6"/>
<path fill="#0A7CBF" d="M130.8,537.1c13.6,0,24.8-10,24.8-32.2v-32.9c0-12.6,1-26.8,9.4-36.8c-1,4.2-1,8.7-1,12.9
	c0,27.7,15.5,46.8,15.5,73.5c0,10-2.9,15.5-10.6,15.5c-7.4,0-6.8-6.8-8.4-6.8c-1.3,0-3.2,4.2-3.2,8.7c0,6.8,4.8,17.4,18.4,17.4
	c11.6,0,21-10.6,21-22.6c0-29-22.6-61.3-22.6-92.2c0-13.6,3.6-22.6,6.5-29.7c0,64.2,54.5,111,54.5,137.7c0,6.1-4.5,11-11.3,11
	c-7.4,0-11-5.8-11-10.3c0-2.3-0.3-2.9-1.3-2.9c-1.9,0-7.7,6.4-7.7,14.9c0,10.6,8.7,23.6,24.8,23.6c18.4,0,28.4-15.5,28.4-29.4
	c0-33.9-66.1-85.2-66.1-140c0-9.4,1.6-24.5,8.4-36.1c-42.6,27.4-55.8,63.9-55.8,95.8c0,27.8-1,41.6-15.2,41.6
	c-7.4,0-9.4-6.8-11.9-6.8c-1.9,0-2.9,5.8-2.9,7.4C113.4,530.3,122.1,537.1,130.8,537.1"/>
<path fill="#0A7CBF" d="M619.5,173.9c4.1-2.7,22.3,1.6,45.8-10c2.9-1.6,5.8-2.2,8.4-2.2c11.3,0,8.4,12.9,18.7,12.9
	c8.1,0,18.4-6.8,24.5-6.8c9.6,0,23.5,30.3,23.5,44.5c0,16.4-24.8,26.5-54.2,26.5c-42.9,0-68.7-37.4-68.7-61.6
	C617.6,175.1,618.6,174.5,619.5,173.9z M689.9,214.8c14.2,0,24.9-6.4,24.9-10.3c0-1.3-1.9-2.2-6.1-2.2c-4.2,0-12.6-0.3-28.4-2.9
	c-13.6-2.3-23.9-7.4-27.8-7.4c-1.3,0-1.9,0.6-1.9,1.6C650.4,201.9,666,214.8,689.9,214.8"/>
<path fill="#0A7CBF" d="M137.6,658.7c-10.6,2.6-27.8,19.3-27.8,45.8c0,31.6,33.9,80.3,89.7,80.3c47.1,0,58.7-32.6,58.7-54.5
	c0-48.7-30-82.9-69-82.9c-21.3,0-40.3,15.5-40.3,38.4c0,21.3,16.1,53.2,54.5,53.2c18.1,0,28.7-12.9,28.7-27.7
	c0-14.5-13.2-34.5-32.6-34.5c-5.8,0-10,3.8-10,10c0,7.7,10.6,15.5,23.9,15.5c3.2,0,5.8-0.7,7.1-1.3c0.6,1,1,2.6,1,3.9
	c0,7.4-7.1,11.9-18.1,11.9c-16.4,0-32.3-12.3-32.3-31.6c0-11.6,10-20,24.5-20c28.7,0,45.8,25.5,45.8,51c0,22.9-12.6,36.1-38.4,36.1
	C151.5,752.3,126.3,705.8,137.6,658.7"/>
<path fill="#0A7CBF" d="M505.8,847.7c15.5,0,14.7-1.3,19.5-1.3c4.8,0,5.2,2.9,5.2,4.8c0,7.1-15.8,15.8-43.9,15.8
	c-16.4,0-26.5-8.7-29.4-18.4c-16.1,10.3-40.6,19.7-64.8,19.7c-66.1,0-82.9-28.7-103.5-38.1c-15.8-7.1-40,6.8-73.9-31
	c4.5,1,10.7,1.3,15.5,1.3c29.7,0,45.5-14.5,45.5-37.7c0-2.9-0.3-6.1-0.7-9c9,3.6,29.7,19,34.5,46.4c0.6,3.2,13.9,6.1,22.2,6.1
	c11.6,0,26.5-4.8,28.7-23.9c38.7-3.2,64.9-26.1,70.3-55.2c13.9,4.5,29.7,17.1,33.5,23.6c5.5-1.9,11.9-2.9,19.3-2.9
	c10.3,0,21.9,1.9,35.8,6.1c0.7-4.2,1.3-9.4,7.8-9.4c9.7,0,7.1,10.6,10.3,16.7c1.6,3.2,9.7,5.2,9.7,11.6c0,6.1-5.2,8.4-8.4,8.4
	c-1.3,0-2.9-0.3-3.9-0.6c-6.4,2.3-6.8,48.7-33.9,48.7c-20,0-38.4-16.4-46.5-37.1c-2.3-6.1-7.1-10-11.6-10c-5.2,0-8.1,1-14.2,7.8
	c-17.4,19-46.5,35.5-82.3,35.5c-11,0-19.7-1-21.9-1c-1.3,0-1.3,0.3-1.3,0.6c0,2.3,11,11,34.8,11c56.8,0,70.7-31.9,79.7-31.9
	c1.3,0,5.2,0,7.4,5.2C458.9,840.6,487.7,847.7,505.8,847.7z M480.8,783.2c0,7.1,5.8,12.9,12.9,12.9c7.1,0,12.9-5.8,12.9-12.9
	c0-7.1-5.8-12.9-12.9-12.9C486.6,770.3,480.8,776.1,480.8,783.2"/>
<path fill="#0A7CBF" d="M736.3,622.2c-4.5,0-9.4,3.6-9.4,12.3c0,9.6,7.4,15.8,11.6,17.7c2.3,1.3,5.8,2.6,9.3,2.6
	c9.4,0,16.8-2.6,16.8-10.4C764.7,634.5,750.1,622.2,736.3,622.2z M701.5,642.2c-6.8,0-44.2,50-68.4,50c-5.8,0-10.6-11-10.6-19.3
	c0-4.5,2.9-7.8,13.2-10c55.5-12.6,43.2-54.2,90.6-54.2c26.1,0,55.2,17.8,55.2,57.8c0,42.6-60.6,95.5-69.7,95.5
	c-7.4,0-15.5-10.6-15.5-17.7c0-2.3,1-5.2,7.4-7.7c30.9-12.3,48.7-40.7,48.7-55.2c0-3.2-1.6-6.4-5.8-6.4c-5.5,0-29,53.5-55.1,53.5
	c-18.1,0-36.5-16.4-36.5-24.2c0-12.9,52.3-36.8,52.3-54.9C707.3,642.5,704.1,642.2,701.5,642.2"/>
<path fill="#0A7CBF" d="M63.1,219.3c0,0-9.3,7.1-21,7.1c-13.9,0-24.8-10.3-24.8-24.8c0-10,5.2-20.3,17.1-25.5
	c-0.3,1.9-0.3,3.6-0.3,5.5C34,200,44.4,213.8,63.1,219.3z M132.1,281.3c-7.1,8.4-14.5,22.6-14.5,37.1c0,17.4,10.7,31.9,27.1,31.9
	c15.8,0,23.2-13.5,23.2-27.4C167.9,301.3,148.2,286.1,132.1,281.3z M25,294.2c-0.6,1-1,2.3-1,3.6c0,2.9,3.2,6.1,6.1,6.1
	c2.6,0,4.2-0.6,5.5-0.6c7.7,0,16.4,5.5,29,5.5c7.4,0,16.1-2.3,27.1-7.7c23.2-11.6,32.3-40.3,32.3-45.2c0-6.1-4.9-5.3-9-11
	c-4.1-5.6-2.5-10.6-5.2-13.2c-1.5-1.5-6.1-1.6-11.9-2.3c-1.9-0.2-4.5-0.3-7.1-0.3c-10.6,0-23.2,1.3-37.4,10.3
	C25.4,257.2,29.5,286.8,25,294.2z M100.8,254.2c2.2,3,8.4,6.8,8.4,9c0,4.5-2.6,10.3-7.8,10.3c-11.3,0-20.3-17.1-20.3-26.8
	c0-6.1,3.6-6.8,8.4-6.8c2.3,0,3.2,0.3,4.8,1.3C97.3,242.9,97.3,249.3,100.8,254.2z M71.1,293.5c-10.6,0-22.2-13.2-22.2-25.2
	c0-6.4,4.8-14.5,8.4-14.5c1.3,0,1.9,1,2.3,3.2c1.9,15.8,12.3,24.8,21.9,29.3c1,0.6,1.6,1,1.6,1.6C83.1,290.3,76.9,293.5,71.1,293.5z
	 M98.6,212.2c1.6-5.2,2.9-11.6,2.9-18.7c0-15.5-7.1-39-29-39c-12.6,0-21.6,10-21.6,21.9C50.8,201.9,76.3,212.2,98.6,212.2z
	 M15,341.3c0,24.5,7.4,36.1,20.6,36.1c10.3,0,24.2-7.4,40.6-21.6c-12.6,2.9-22.3,4.8-31,4.8C33.7,360.6,24.7,356.1,15,341.3z
	 M26.3,312.6c-0.3,1.6-0.3,3.2-0.3,4.8c0,15.2,8.1,23.6,18.7,23.6c8,0,17.4-4.8,25.8-15.5c-3.5,0.6-7.7,1-11.6,1
	C46.9,326.4,34,323.2,26.3,312.6z M105.3,308c-7.4,1.9-22.9,11-22.9,27.1c0,11.6,9,19,20.3,19c5.8,0,10-1.3,12.6-3.2
	c-9-8.7-12.3-18.4-12.3-28.1C103.1,316.1,104,311.9,105.3,308z M116.9,219.7c0,7.1,5.8,12.9,12.9,12.9c7.1,0,12.9-5.8,12.9-12.9
	c0-7.1-5.8-12.9-12.9-12.9C122.7,206.7,116.9,212.6,116.9,219.7z M133.7,248.7c0,7.1,5.8,12.9,12.9,12.9c7.1,0,12.9-5.8,12.9-12.9
	c0-7.1-5.8-12.9-12.9-12.9C139.5,235.8,133.7,241.6,133.7,248.7"/>
<path fill="#0A7CBF" d="M637,407.1c0-6.4,5.8-11.9,12.2-11.9c7.1,0,12.6,5.5,12.6,11.9c0,7.4-5.5,12.6-12.6,12.6
	C642.8,419.7,637,414.5,637,407.1z M523.7,307.7c0,7.1,5.8,12.9,12.9,12.9c7.1,0,12.9-5.8,12.9-12.9c0-7.1-5.8-12.9-12.9-12.9
	C529.5,294.8,523.7,300.6,523.7,307.7z M512.8,353.2c0,10,8.4,18.4,18.4,18.4c10,0,18.4-8.4,18.4-18.4c0-10-8.4-18.4-18.4-18.4
	C521.1,334.8,512.8,343.2,512.8,353.2z M553.4,332.6c0,11,8.7,19.7,19.6,19.7c11,0,19.7-8.7,19.7-19.7c0-11-8.7-19.7-19.7-19.7
	C562.1,312.9,553.4,321.6,553.4,332.6z M555,290.6c0,6.8,5.5,12.3,12.2,12.3c6.8,0,12.3-5.5,12.3-12.3c0-6.8-5.5-12.2-12.3-12.2
	C560.5,278.4,555,283.9,555,290.6z M613.4,259.7c0,6.8,5.5,12.2,12.3,12.2c6.8,0,12.3-5.5,12.3-12.2c0-6.8-5.5-12.3-12.3-12.3
	C618.9,247.4,613.4,252.9,613.4,259.7z M589.2,299.4c0,11.3,9.4,20.6,20.7,20.6c11.3,0,20.7-9.3,20.7-20.6
	c0-11.3-9.4-20.6-20.7-20.6C598.5,278.7,589.2,288,589.2,299.4z M556,374.8c0,7.1,5.8,12.9,12.9,12.9c7.1,0,12.9-5.8,12.9-12.9
	c0-7.1-5.8-12.9-12.9-12.9C561.8,361.9,556,367.7,556,374.8z M598.2,349c0,7.1,5.8,12.9,12.9,12.9c7.1,0,12.9-5.8,12.9-12.9
	c0-7.1-5.8-12.9-12.9-12.9C604,336.1,598.2,341.9,598.2,349z M586.3,394.5c0,12.3,10,22.3,22.3,22.3c12.3,0,22.3-10,22.3-22.3
	c0-12.3-10-22.3-22.3-22.3C596.3,372.2,586.3,382.2,586.3,394.5z M632.8,367.1c0,8.4,6.8,15.2,15.1,15.2c8.4,0,15.2-6.8,15.2-15.2
	c0-8.4-6.8-15.2-15.2-15.2C639.5,351.9,632.8,358.7,632.8,367.1z M631.8,326.4c0,7.4,6.1,13.6,13.5,13.6c7.4,0,13.6-6.1,13.6-13.6
	c0-7.4-6.1-13.5-13.6-13.5C637.9,312.9,631.8,319,631.8,326.4"/>
<path fill="#0A7CBF" d="M664.7,749.7c-8.4,6.5-28,21-60.6,21c-17.4,0-25.2-5.5-27.8-5.5c-3.2,0-6.8,3.2-10.3,7.4
	c-7.7,9-17.7,25.8-17.7,44.2c0,12.9,10,25.8,28.7,25.8c60.4,0,105.5-37.7,105.5-68.4C682.4,756.8,672.1,749.7,664.7,749.7z
	 M647.9,746.1c2.6-2.2,3.2-5.8,3.2-9.4v-7.4c0-9.4-14.1-14.8-33.5-14.8c-23.6,0-36.2,10.6-36.2,15.2v14.8c0,6.1,14.2,12.3,31.6,12.3
	C627,756.8,639.5,753.2,647.9,746.1z M645.3,778.1c1.6,0,3.5,1,3.5,6.8c0,7.1-3.2,16.4-14.8,23.8c-8.1,5.5-19,10-35.2,10.3
	c2.6-7.7,4.5-15.8,4.5-23.5c0-2.6-0.3-4.5-0.6-7.4h4.2C632.5,788.1,643.4,778.1,645.3,778.1"/>
<path fill="#0A7CBF" d="M522.1,383.9c3.6,27.4,40.4,13.5,40.4,46.7c0,4.8-1.3,12-1.3,18.1c0,7.1,0.6,13.2,6.1,13.2
	c5.5,0,6.8-3.9,6.8-9c0-5.2-1.3-11.6-1.3-15.2c0-11.3,8.1-13.9,12.9-13.9c12.3,0,21.6,12.6,40,12.6c-4.2,20.6-46.8,15.2-46.8,37.7
	c0,11.3,11.3,13.9,18.7,13.9c6.8,0,9-1,9-6.8c0-3.2-0.7-6.8-0.7-9c0-1.3,1-2.6,2.6-2.6c7.1,0,41.9,26.5,41.9,34.5
	c0,7.4-36.7,14.8-47.4,14.8c-3.2,0-3.9-2.3-3.9-3.5c0-2.3,5.5-9,5.5-12.9c0-2.9-4.8-4.8-17.8-4.8c-6.1,0-10.7,0.6-10.7,5.5
	c0,8.7,14.2,19.3,14.2,27.4c0,6.5-3.9,10.3-14.2,10.3c-8.7,0-21.9-6.8-21.9-18.1c0-9,9.3-18,9.3-23.5c0-1.6-1.2-4.2-5.1-4.2
	c-12,0-15.2,31.6-57.5,35.2c6.8-6.1,12.6-12.9,12.6-26.8c0-6.8-1.6-12.3-1.6-19.7c0-9.7,4.5-14.5,11-14.5
	c11.9,0,17.7,16.8,25.5,16.8c4.2,0,8.7-3.9,8.7-9.7c0-24.5-47.1-21-47.1-55.5C510.2,411.6,513.4,400,522.1,383.9z M676,478.4
	c0,8,2.6,17.4,10.7,17.4c6.8,0,12.6-10.3,12.6-21.6c0-12.9-2.3-22.9-2.3-28.1c0-2.2,1-3.2,2.3-3.2c4.8,0.3,9.4,13.5,14.5,13.5
	c5.8,0,14.5-10.7,18-10.7c1,0,1.3,1.3,1.3,1.6c0,4.8-7.4,15.5-7.4,19.7c0,3.6,18.7,4.2,18.7,7.4c0,4.8-19.6,4.8-29,9
	c-9,3.9-14.5,8.7-14.5,15.2c0,6.5,6.5,7.7,15.5,7.7c21.6,0,36.7-11.6,41.6-11.6c1,0,1.6,0.6,1.6,1.6c0,3.2-11,13.9-11,18.7
	c0,5.5,20,11.9,19.7,15.2c-0.3,1-1.6,1.3-3.9,1.3c-3.6,0-9-1-13.2-1c-2.6,0-4.8,0.3-5.8,1.6c-2.2,2.6,0.7,19.7-3.8,19.7
	c-4.2,0-15.2-38.1-40-38.1c-3.6,0-6.1,2.9-6.1,7.7c0,12.9,12.6,27.7,24.5,34.8c5.4,3.6,14.5,7.1,14.5,9.1c0,3.8-20.6,0.3-20.6,6.8
	c0,5.8,2.6,14.5,2.6,19.7c0,1.6-0.3,3.5-2.3,3.5c-3.9,0-13.2-17.7-17.8-17.7c-3.9,0-12.3,10.6-15.8,10.6c-1,0-1.6-1-1.6-1.9
	c0-7.4,11.9-24.2,11.9-40.7c0-7.7-1-24.5-10.3-24.5c-7.7,0-16.5,12.3-20.3,24.5c-2.2,7.1-0.6,34.5-5.8,34.5c-4.8,0-3.5-18.4-10-18.4
	c-4.8,0-15.1,8.7-18.6,8.7c-0.7,0-1.3-0.3-1.3-1c0-3.9,9.4-16.4,9.4-19c0-4.8-21.3-5.5-21.3-9.3c0-2.3,8.4-3.9,16.1-5.2
	c16.4-2.9,40.6-14.8,40.6-31.6c0-18.7-18.1-26.8-30-34.5c-6.1-3.9-12.9-7.1-12.9-9.7c0-2.6,7.7-2.6,11-2.6c4.8,0,9.6-0.3,9.6-4.2
	c0-2.9-0.7-8.7-0.7-13.2c0-3.2,0.3-5.8,1.6-5.8c4.8,0,11.6,15.8,14.9,15.8c5.2,0,12.3-12.9,17.1-12.9c1.6,0,2.3,1,2.3,3.9
	C682.1,453.2,676,466.7,676,478.4"/>
<path fill="#0A7CBF" d="M531.5,567.7c14.9,1.9,18.4,7.1,18.4,11.3c0,7.1-6.5,9.3-12.6,9.3c-4.5,0-9.7-1-15.2-1
	c-7.1,0-14.2,1.6-20,8.4c4.2,0.6,10.3,3.6,10.3,10c0,18.7-51.9,3.2-51.9,51.3c0,25.5,26.5,53.2,66.4,53.2c20.7,0,33.9-6.8,33.9-14.5
	c0-6.1-11-1.9-11-7.1c0-2.3,3.9-6.5,3.9-10c0-1.6-1.3-4.5-3.9-4.5c-5.8,0-16.8,9.3-39.1,9.3c-17.4,0-34.5-10-34.5-23.5
	c0-2.9,1.3-4.5,3.2-4.5c1.9,0,4.5,1.3,6.8,1.3c1.9,0,2.3-1.3,2.3-4.8c0-3.6,0-13.6,6.1-13.6c6.1,0,17.8,22.6,62.3,22.6
	c14.8,0,43.5-2.9,54.2-12.6c-0.3,35.5-28.1,82.3-86.1,82.3c-60.3,0-92.6-48.4-92.6-92.9c0-49.3,40.3-94.2,95.5-94.2
	c14.2,0,26.1,4.8,26.1,11C554.1,562.9,533.1,557.7,531.5,567.7z M630.5,584.8c2.3,3.5,3.2,7.1,3.2,10.3c0,9-6.1,17.4-6.1,26.8
	c0,10.6,8.1,19.3,20.3,19.3c13.2,0,22.3-10.6,22.3-23.2C670.1,600.9,654.7,586.4,630.5,584.8z M523.7,605.5c3.2,3.2,4.2,6.4,4.2,9.7
	c0,4.8-2.3,10-2.3,15.5c0,7.7,5.8,14.5,14.2,14.5c9.1,0,15.2-7.1,15.2-15.5C555,617.4,542.4,605.5,523.7,605.5z M566.6,550.6
	c33.9,6.5,52.3,31.9,52.3,55.8c0,16.5-10.3,31.6-28.4,31.6c-16.5,0-28.3-11.3-28.3-29.3c0-13.5,10.6-27.7,10.6-41.6
	C572.7,561.6,571.1,556.1,566.6,550.6z M583.4,593.5c0,4.5,3.2,8.1,7.8,8.1c5.2,0,8.4-4.5,8.4-9.7c0-6.8-6.1-16.1-11.9-16.1
	c-2.6,0-1.6,3.9-2.3,8.1C585,587.1,583.4,590.9,583.4,593.5"/>
<path fill="#0A7CBF" d="M227.3,261.6c11,0,23.5-59.4,23.5-69.4c0-2.6-1-4.5-3.2-4.5c-10,0-23.9,56.5-23.9,69
	C223.7,259,224.4,261.6,227.3,261.6z M306.3,279.3c8.1,0,17.1-31,17.1-50.3c0-4.2-0.6-8.7-2.6-8.7c-6.8,0-18.1,31.9-18.1,49.3
	C302.7,276.4,304.4,279.3,306.3,279.3z M253.7,250.6c3.5,0,8.1-3.9,16.5-13.2c0.6-4.2,0.6-8.1,0.6-12.9c0-6.4-2.6-13.5-6.4-13.5
	c-9.7,0-14.5,25.8-14.5,32.6C249.8,247.4,251.8,250.6,253.7,250.6z M297.9,237.4c0-5.5-1.3-6.8-2.6-6.8c-3.2,0-6.8,3.9-11.9,12.6
	c0.6,11.6,2.6,16.8,5.8,16.8C292.7,260,297.9,248.7,297.9,237.4z M322.7,199.3c21.3,0,31,18.4,31,39c0,9-2.6,22.3-6.8,22.3
	c-4.2,0-3.6-7.4-4.2-14.2c-0.6-8.7-2.3-10.6-5.2-10.6c-5.5,0-9,12.9-9,24.8c0,7.4,1.3,15.8,7.1,15.8c3.2,0,6.1-1.6,8.1-3.5
	c-1.3,14.8-12.3,27.7-27.8,27.7c-28.4,0-39-33.2-42.2-52.6c-17.1,18.1-32.9,31.3-61.3,31.3c-26.4,0-38.4-19.4-38.4-37.7
	c0-5.5,1.9-19.7,8.7-19.7c8.1,0,1,26.4,16.8,26.4c3.9,0,11-3.2,14.8-13.9c2.3-6.5,3.5-13.2,3.5-19c0-8.7-1.9-14.2-8.4-14.2
	c-5.5,0-12.3,4.2-14.5,6.4c7.8-23.2,26.5-35.2,47.1-35.2c25.5,0,39,22.6,39,47.7c0,3.5-0.3,7.4-1,11
	C291.1,213.2,306.3,199.3,322.7,199.3"/>
<path fill="#0A7CBF" d="M262.4,286.1c-13.9,0-14.5,16.8-14.5,50.6c-10.3-22.2-27.4-46.1-47.4-46.1c-13.5,0-18.7,9-18.7,24.8
	c0,3.2,0.3,8.1,1,11c1.6-5.5,6.8-7.7,13.2-7.7c13.9,0,30.7,10.6,41.6,25.2c-12.6-2.3-24.8-4.5-35.1-4.5c-6.5,0-12.3,0.7-17.1,2.9
	c-9.4,4.2-21.9,18.1-21.9,39c0,3.2,0.3,6.8,1,10.6c11.3-25.2,41.3-36.5,60.6-36.5c3.9,0,6.8,0.3,9,0.7c-10,9-12.3,24.8-12.9,35.5
	c-0.3,5.2-2.3,5.5-5.8,5.5c0,10.6,8.4,26.4,8.4,34.5c0,2.9-1.6,5.5-3.2,6.1c0,14.2,14.2,24.5,14.2,33.5c0,2.3-0.6,4.2-1.6,5.2
	c1,5.8,16.6,15.6,18.6,20.5c2.5,5.9,5.3,7,6.9,7c5.5,0,14.2-6.5,14.2-12.3c0-1.9-1.6-4.2-2.9-5.2c-6.1-4.5-9.4-14.2-11.9-20.6
	c-2.3,0-5.2-1-6.2-4.8c-1.8-6.7-1.8-19.1-4.4-26.5c-4.2-1-6.1-2.6-6.1-11.3c0-4.2,2.6-20.7,2.6-26.5c-1.9,0-4.5-1.3-4.5-5.2
	c0-10.3,10.3-18.4,13.2-31.6c18.4,13.5,22.9,27.4,22.9,39.7c0,6.4-1,12.6-2.3,18.4c13.6-6.8,33.9-16.8,33.9-37.1
	c0-11.9-5.5-25.2-41.9-30.3c11.3-4.2,25.5-6.4,37.4-6.4c20.7,0,32.6,6.4,35.2,21c4.2-6.4,7.4-13.9,7.4-20.6
	c0-15.8-13.2-26.1-30-26.1c-19.7,0-37.1,10.3-55.8,22.9c8.4-17.4,14.2-27.7,24.5-27.7c1.6,0,3.2,0.3,4.8,0.6
	C284.7,300,270.2,286.1,262.4,286.1"/>
<path fill="#0A7CBF" d="M805.9,518.7c16.2,0,29.1,21,29.1,45.5c0,26.1-12.3,54.5-34.1,73.9c-0.3-43.5-53.6-29.7-53.6-61.3
	c0-13.5,9.7-22.6,21.3-22.6c10.3,0,18.4,2.9,24.2,8.7c-5.8-5.5-8.7-13.3-8.7-20.7C784,530,791.8,518.7,805.9,518.7"/>
<path fill="#0A7CBF" d="M517.9,212.2c8.4,8.1,15.8,11.6,24.8,11.6c3.6,0,7.8-1,10-1c2.9,0,4.8,1.3,4.8,3.5c0,3.6-3.2,9.4-7.1,12.6
	c3.9,1.6,8.1,2.3,12.6,2.3c18.3,0,39.3-11.6,39.3-40.6c3.9,5.1,6.1,15.8,6.1,20.6c0,35.2-25.8,48.7-49.7,48.7
	c-15.5,0-23.3-5.2-25.2-5.2c-6.1,0-5.8,12.3-10,12c-7.4-1.3-14.2-17.7-14.2-35.2C509.5,231.3,512.1,220.3,517.9,212.2z M566.6,188.7
	c-2.6-4.2-12.2-6.4-16.7-6.4c-14.2,0-23.9,10-25.8,19c-1.3-3.2-2.3-7.1-2.3-11c0-14.2,9.7-31.6,33.3-31.6c20.6,0,28.7,11,31.6,11
	c3.2,0,6.5-3.2,9-3.2c3.6,0,3.6,5.5,3.6,9.4c0,12.9-5.8,35.2-20.3,43.2c-2.6-5.5-7.8-11.6-16.1-15.5c-2.3-1-3.2-2.9-3.2-4.8
	C559.5,195.1,562.8,190.6,566.6,188.7"/>
<path fill="#0A7CBF" d="M293.7,118.4c0,11.3,40.3,66.5,48.1,66.5c6.5,0,11.3-11.3,11.3-21c0-2.6-0.7-5.1-1.9-7.1
	c-5.8-8.1-46.8-40.3-55.8-40.3C294.3,116.4,293.7,117.4,293.7,118.4z M56.6,85.1c0,6.5-24.5,28.1-33.2,28.1c-3.2,0-4.2-3.9-4.2-7.4
	c0-6.4,2.9-15.5,6.5-18.4c4.2-3.9,13.9-5.8,21.3-5.8C51.4,81.6,56.6,82.6,56.6,85.1z M351.1,103.9c0-19.4-52.3-54.5-52.9-69.7
	c-0.1-1.4,0.7-2.8,1.9-4c9-9.5,46.2-16.3,46.2-24.4c0-4.2-7.8-4.2-11.6-4.2c-30,0-73.9,11-73.9,21.6c0,11,39.4,37.8,39.4,51
	c0,3.5-2.3,4.8-5.8,4.8c-11,0-34.8-13.2-46.1-13.2c-5.2,0-7.1,3.5-7.1,8.7c0,15.5,18.4,44.8,18.4,53.5c0,1-0.3,2.3-1.6,2.3
	c-5.8,0-33.2-32.2-42.9-32.2c-3.5,0-3.9,4.8-3.9,11.9v11c0,7.4-0.3,11.9-3.8,11.9c-8.4,0-12.3-23.5-20.3-23.5
	c-8.4,0-10,41.9-18.1,41.9c-9.4,0-1.3-46.1-10.3-46.1c-10,0-21.3,30.7-28.4,30.7c-2.6,0-3.2-2.6-3.2-4.8c0-9.3,5.5-24.5,5.5-33.5
	c0-4.5-1.3-7.1-5.1-7.1c-10,0-31.9,16.1-40.3,16.1c-1.3,0-2.9-0.6-2.9-1.9c0-7.7,35.2-32.2,35.2-43.2c0-10.7-48.4-3.5-48.4-15.8
	c0-10.3,34.5-21,34.5-31.6c0-9.4-41-13.5-56.8-13.5c-19,0-29.4,2.2-29.4,7.7c0,8.4,43.2,11,43.2,18.4c0,7.1-44.8,26.1-44.8,37.1
	c0,9.7,63.2,0.6,63.2,10.7c0,11-55.1,58.4-55.1,74.2c0,3.6,2.6,5.2,6.1,5.2c16.8,0,60.3-31.9,72.3-31.9c4.2,0,4.5,5.2,4.5,9.7
	c0,8.4-2.9,21.3-2.9,30.7c0,7.4,1.9,12.6,8.4,12.6c12,0,22.9-20.3,31-20.3c10.3,0,4.2,59.7,19.7,59.7c13.2,0,18.7-64.5,27.1-64.5
	c8.4,0,15.2,18.7,22.9,18.7c9.7,0,5.2-32.6,15.5-32.6c11.3,0,43.5,38.7,58.1,38.7c4.5,0,6.1-3.6,6.1-8.1c0-17.1-23.9-55.8-23.9-68
	c0-3.2,1-4.2,4.5-4.2c12.6,0,49.4,17.4,66.8,17.4C347.6,111.3,351.1,108.1,351.1,103.9z M317.6,40c0,5.8,20.3,18.4,29.7,18.4
	c5.5,0,7.1-7.4,7.1-15.2c0-9.7-4.2-10-12.6-10C331.1,33.2,317.6,36.1,317.6,40z M241.8,7.1c0-1.9-9.7-3.9-22.9-3.9
	c-21,0-18.1,17.4-34.2,17.4c-16.8,0-12.6-18.1-33.9-18.1c-12.9,0-24.8,2.3-24.8,5.2c0,3.9,15.2,2.3,15.2,12.9
	c0,11.3-32.6,14.5-32.6,21.3c0,2.3,2.6,3.2,5.8,3.2c7.1,0,18.4-3.2,26.5-3.2c4.5,0,8.7,1,8.7,5.2c0,8.1-17.4,22.6-17.4,29
	c0,1.9,1.6,2.6,3.2,2.6c6.5,0,17.4-16.5,27.8-16.5c17.1,0,5.8,36.4,15.2,36.4c9.7,0,5.5-35.8,19.4-35.8c11.3,0,19.7,24.8,27.4,24.8
	c1.9,0,3.6-1.6,3.6-3.9c0-6.8-9.7-20.6-9.7-29.7c0-5.5,3.9-8.1,9-8.1c7.4,0,17.4,4.5,22.9,4.5c1.9,0,3.9-0.6,3.9-2.9
	c0-7.7-28.7-16.1-28.7-26.1C226,11.6,241.8,11.6,241.8,7.1"/>
<path fill="#0A7CBF" d="M813.7,59.4c0,28.7-20.9,50.6-58.7,56.8c4.2,0.3,8.1,0.3,12,0.3c44.2,0,60.3-20,60.3-36.8
	C827.2,70.3,822.1,61.9,813.7,59.4z M759.2,91.9c0-22.9-54.8-28.7-54.8-33.9c0-4.2,30.6-11.3,46.4-11.6
	c-24.2-31-58.7-27.7-58.7-33.2c0-3.2,25.8-9.7,49.7-9.7c20,0,38.7,4.5,38.7,19.7c0,8.4-6.8,17.1-6.8,30c0,7.1,3.5,13.2,12.9,13.2
	c10,0,12.3-10.6,12.3-21.9c0-9.3-1.6-16.4-1.6-21C797.3,10,806.6,1,819.8,1c11,0,13.6,4.8,29.7,4.8c-8.7,5.2-11.9,14.5-11.9,19
	c0,13.6,8.7,22.9,8.7,50.7c0,50.9-47.7,69-106.2,69c-16.1,0-33.2-1.3-50-3.9c-2.6-0.3-3.2-1-3.2-2.6c0-4.2,22.9-6.5,22.9-27.1
	c0-8.1-2.6-15.8-2.6-18.7c0-1.6,1.3-2.6,2.6-2.6c4.8,0,14.5,18.7,32.5,18.7C747.2,108.4,759.2,106.8,759.2,91.9z M811.7,20.6
	c0,4.5,3.6,8,8.1,8c4.5,0,8.1-3.5,8.1-8c0-4.5-3.6-8.1-8.1-8.1C815.3,12.6,811.7,16.1,811.7,20.6"/>
<path fill="#0A7CBF" d="M783.1,318.7c0-6.8-17.1-7.4-18.7-26.4c-0.3-2.9-1.3-8-4.9-8c-5.8,0-1.3,17.7-7.7,17.7
	c-14.8,0-19.7-29-25.2-29c-1.3,0-2.8,1-2.8,4.8c0,3.6,0.7,5.8,0.7,10c0,4.2-1,7.1-4.8,7.1c-8.7,0-16.5-20.3-23.9-20.3
	c-1.6,0-3.2,1-3.2,2.6c0,3.9,6.4,11,6.4,14.5c0,7.8-21,3.5-21,10c0,2.9,2.9,3.9,6.8,3.9c6.8,0,17.4-2.9,22.9-2.9
	c3.2,0,8.1,0.6,8.1,4.8c0,4.5-11.6,10.3-11.6,14.5c0,1.9,1.9,2.9,3.5,2.9c8.7,0,24.1-15.2,35.1-15.2c1.9,0,6.8,1,6.8,3.9
	c0,4.2-11,11.6-11,17.7c0,1.6,1,3.6,2.9,3.6c5.8,0,13.5-15.2,24.5-15.2c4.2,0,10.3,1.6,13.6,1.6
	C782.1,321.3,783.1,319.7,783.1,318.7z M791.5,475.1c5.2-16.1,11.6-27.4,22.2-44.8c-10.6-5.5-38.7-17.1-38.7-36.1
	c0-22.3,27.8-39.7,33.5-39.7c2.6,0,3.2,2.3,3.2,6.5c0,11.6-5.5,30.3-5.5,40.3c0,9,5.8,17.7,11,17.7c5.5,0,20.7-19.4,20.7-38.4
	c0-34.2-30-44.5-39.3-44.5c-8.7,0-24.5,14.2-61.7,14.2c-69.3,0-85.2-68.7-85.2-98.7c0-1.3,0.3-1.6,0.6-1.6c1.6,0,8.4,8.4,30.3,8.4
	c11.3,0,21.6-2.9,38.1-2.9c38.6,0,55.8,26.8,79.7,61c14.4,9,49,23.6,49,64.5c0,36.1-38.4,56.1-47.7,94.8
	c14.8-1.6,23.5-28.1,38.7-28.1c7.8,0,11.3,6.1,11.3,15.8c0,14.2-8.1,35.5-23.6,48.7c0.3-1.3,0.3-2.9,0.3-4.8c0-9-3.5-21.9-13.9-21.9
	c-16.1,0-21.2,17.4-30.3,31.9c-9.4-32.9-22-62.6-44.5-80.6c-22.8-18.4-62.2-8.4-62.2-41.9c0-9,5.8-21.9,5.8-32.3
	c0-3.5-0.7-6.8-2.6-9.4c31,11.6,20,32.2,39.1,53.5c11.9,13.6,44.8,26.5,63.8,82.3c0.3-1.6,0.6-5.8,0.6-8.7
	c0-47.7-63.2-94.5-68.7-113.9c36.7,4.2,43.2,13.2,60.6,61.6C779.8,438.1,791.5,462.9,791.5,475.1"/>
<path fill="#0A7CBF" d="M615,133.9c-22.6,0-37.4-11.3-37.4-17.1c0-2.9,1.9-4.8,4.5-4.8c7.1,0,22.6,11,27.7,11c1.3,0,2.3-0.6,2.3-2.6
	c0-5.8-5.5-15.5-5.5-20.3c0-1.3,1-2.3,2.9-2.3c8.7,0,21.6,3.5,28.4,3.5c2.3,0,2.9-1.3,2.9-2.6c0-7.1-21-21-21-25.2
	c0-3.9,26.1-9.7,26.1-15.8c0-6.5-35.5-1.9-35.5-8.1c0-4.5,6.8-12.3,6.8-15.8c0-1.6-1.3-2.3-3.5-2.3c-2.9,0-18.4,6.1-24.9,6.1
	c-3.2,0-7.1-0.6-7.1-5.2c0-7.4,12.6-15.5,32.3-15.5c31.9,0,50.9,21.9,50.9,58.7C665,122.3,632.5,133.9,615,133.9z M552.1,72.6
	c0-3.6-12.6-10.3-12.6-14.2c0-0.6,0.6-1,1.6-1c3.6,0,9.7,1.3,14.6,1.3c4.2,0,4.8-18.1,8-18.1c2.3,0,6.1,17.1,9.7,17.1
	c4.2,0,11.9-4.8,15.2-4.8c0.6,0,1.3,0.3,1.3,1c0,2.3-8.1,11-8.1,13.5c0,2.9,18.1,6.5,18.1,9c0,3.2-18.4,2.9-18.4,5.8
	c0,2.2,6.8,11.3,6.8,14.2c0,0.7-0.3,1-1,1c-2.6,0-12.6-4.5-15.5-4.5c-3.6,0-9.3,13.2-12.2,13.2c-1,0-1.6-1.3-1.6-2.9l-0.7-12.9
	c0-1.3-0.6-2.6-2.3-2.6c-3.9,0-11.3-0.3-13.6-0.3c-1.6,0-2.3-0.3-2.3-1C539.2,83.9,552.1,74.8,552.1,72.6z M542.7,125.5
	c5.2,0,6.1,12.6,7.1,20c0.6,3.9,1.3,4.2,2.9,4.2c3.9,0,10-14.8,14.1-14.8c6.1,0,22.6,17.1,50,17.1c39,0,75.8-27.4,75.8-75.8
	c0-46.8-32.9-74.2-78.4-74.2c-21.6,0-37.4,10.6-45.8,10.6C563.4,12.9,555.7,0,551.8,0c-1.6,0-3.2,3.2-3.2,8.7c0,3.6,0,14.8-3.9,14.8
	c-7.8,0-37.7-22.2-37.7-14.2c0,7.4,20,30,20,35.8s-19.7,11.3-19.7,15.2c0,7.1,21,8.4,21,17.4c0,9-21.9,16.1-21.9,22.9
	c0,5.5,21.9,1.6,21.9,8.4c0,6.8-16.1,29.4-16.1,35.8c0,1.6,0.3,1.6,1.6,1.6C519.8,146.4,538.2,125.5,542.7,125.5"/>
<path fill="#0A7CBF" d="M396.6,691.9c0,2.9-1,6.1-3.6,9.3c-3.5-6.4-13.5-9.7-18.1-9.7c-33.2,0-20.6,48.1-56.1,48.1
	c-14.8,0-16.1-1.9-21.6-1.9c-2.3,0-3.6,1-3.6,2.9c0,8.4,11.9,29,45.2,29c33.2,0,65.2-20.3,65.2-45.5c0-4.2-1-8.7-2.9-13.2
	c1.3-1.9,4.5-3.2,7.4-3.2c5.2,0,8.1,5.8,12.9,5.8c5.2,0,9-3.9,9-9c0-4.2-2.3-7.1-6.1-9.1c2.6-1.9,4.5-5.2,4.5-8.7
	c0-5.5-3.9-10.6-10.3-10.6c-2.9,0-4.8,1-7.1,3.2c-0.6-5.8-3.9-11.3-10-11.3c-4.8,0-8.4,3.5-8.4,9
	C393.1,682.2,396.6,686.4,396.6,691.9"/>
<path fill="#0A7CBF" d="M219.8,631.9c25.8,6.4,38.7,20.3,41.3,36.8c2.6,15.8,5.8,28.7,11.9,35.2c8.1,9.1,23.9,17.1,37.8,17.1
	c11.6,0,21-3.8,21-14.5c0-11.6-15.8-37.7-39-37.7c-2.3,0-5.2,0.3-8.4,0.3c-2.9,0-7.1-0.6-9.7-2.9c-5.2-4.5-6.8-28.7-16.4-43.2
	c-10.6-16.1-22.2-20.7-38.1-20.7c-11.3,0-23.9,6.1-23.9,15.2C196.3,622.9,199.2,626.8,219.8,631.9z M309.9,704.2
	c-9.7,0-24.2-10.3-24.2-16.2c0-4.8,4.5-7.4,8.1-7.4c8.1,0,22.6,10,22.6,18.4C316.3,701.3,314.7,704.2,309.9,704.2"/>
<path fill="#0A7CBF" d="M280.2,452.9c0-20.6,49-31.6,49-57.1c0-4.2-1.6-11.6-4.5-17.1c17.1,9.3,29.7,25.2,29.7,38.1
	c0,22.3-23.2,32.6-23.2,46.5c0,16.1,24.8,18.7,24.8,38.7c0,16.4-23.5,35.5-23.5,56.8c0,16.4,11.6,30,29.3,32.2
	c-5.8,1.3-11,2.3-16.4,2.3c-32.6,0-66.1-26.8-66.1-58.7c0-15.8,6.8-29.7,17.1-39.7c9.1,7.7,18.1,12.9,23.9,12.9
	c5.2,0,7.4-2.6,7.4-6.4C327.6,489.3,280.2,478.4,280.2,452.9z M383.1,615.8c-11.1,5.1-15.5,4.2-15.5,15.5c0,4.2-1,9.6-1,12.6
	c0,3.9,0.6,6.1,5.2,6.1c11.6,0,30-19.7,30-36.5c0-4.5-2.6-6.4-5.5-6.4C393.7,607.1,390.8,612.2,383.1,615.8z M381.8,592.6
	c0-14.5-30-14.8-30-36.8c0-5.5,3.5-14.8,10.6-24.9c2.9,16.8,9.7,25.5,24.2,31c28.7,10.6,32.6,26.8,32.6,43.9
	c0,29-20.3,65.2-72.6,65.2c-41.9,0-71.9-37.4-71.9-69c0-8.7,2.3-18.4,7.7-18.4c4.8,0,6.5,3.9,10.3,7.7
	c14.5,14.5,30.3,18.4,53.2,18.4C366.6,609.6,381.8,601.3,381.8,592.6"/>
<path fill="#0A7CBF" d="M153.3,599.5c0.8,6.7-4,12.8-10.8,13.6c-6.7,0.8-12.8-4-13.6-10.8c-0.8-6.7,4-12.8,10.8-13.6
	C146.5,588,152.6,592.8,153.3,599.5z M93.1,612.2c1.4,11,11.6,19.4,23.2,18.1c4.2-0.5,8.1-1.6,10.7-3.2
	c2.6,10.3,11.2,16.9,22.9,15.4c11.9-1.5,20-10.9,18.7-22.8c-0.3-3.2-1-5.2-1.9-7.4c0,0,1.6-0.2,2.8-0.4
	c11.6-2.2,19.5-11.6,18.5-22.8c-1.3-11.6-11.7-20.2-22.5-18.9c-4.2,0.5-8.1,2.1-10.7,4.4c-2.9-9.7-12-18.1-24.4-16
	c-11.2,1.9-18.6,11.4-17.5,23.4c0.2,2,0.6,4.2,1.6,6.4c0,0-1.9,0.3-3.2,0.5C101.7,590.2,91.5,599.7,93.1,612.2"/>
</svg>
