<?xml version="1.0" encoding="utf-8"?>
<!-- Generator: Adobe Illustrator 18.1.0, SVG Export Plug-In . SVG Version: 6.00 Build 0)  -->
<!DOCTYPE svg PUBLIC "-//W3C//DTD SVG 1.1//EN" "http://www.w3.org/Graphics/SVG/1.1/DTD/svg11.dtd">
<svg version="1.1" id="Layer_1" xmlns="http://www.w3.org/2000/svg" xmlns:xlink="http://www.w3.org/1999/xlink" x="0px" y="0px"
	 viewBox="0 0 870.6 870.5" enable-background="new 0 0 870.6 870.5" xml:space="preserve">
<g>
	<rect x="1.9" fill="#EF4337" width="868.7" height="870.5"/>
	<path fill="#FFFFFF" d="M111.1,119.9h55.6v183.2c0,19.8,16.2,36,36,36c19.8,0,36-16.2,36-36V119.9h55.6v184c0,49.5-40.5,90-90,90
		h-3.2c-49.5,0-90-40.5-90-90V119.9"/>
	<polyline fill="#FFFFFF" points="421.9,393.9 366.3,393.9 366.3,119.9 421.9,119.9 495.4,275.7 495.4,119.9 549.5,119.9 
		549.5,393.9 495.4,393.9 421.9,239.7 421.9,393.9 	"/>
	<rect x="641" y="119.1" fill="#FFFFFF" width="54.8" height="274.7"/>
	<path fill="#FFFFFF" d="M668.9,475.8c50.9,0,92.5,41.7,92.5,92.5v90.3c0,50.9-41.6,92.5-92.5,92.5c-50.9,0-92.5-41.7-92.5-92.5
		v-90.3C576.4,517.5,618.1,475.8,668.9,475.8"/>
	<path fill="#FFFFFF" d="M202.5,475.8c50.4,0,91.6,41.7,91.6,92.5v90.3c0,25.5-10.3,48.7-27,65.5l28,81.8h-56.3l-18.7-56.5
		c-5.7,1.1-11.6,1.7-17.6,1.7c-50.5,0-91.7-41.7-91.7-92.5v-90.3C110.8,517.5,152,475.8,202.5,475.8"/>
	<path fill="#FFFFFF" d="M366.1,475.5H421v220.8h128.4v53.9c-61.1,0-122.1,0-183.2,0V475.5"/>
</g>
<path fill="#EF4337" d="M200.2,531.6L200.2,531.6c19.8,0,36,16.4,36,36.3v90.3c0,20-16.2,36.4-36,36.4c-19.8,0-36-16.3-36-36.4
	v-90.3C164.2,548,180.4,531.6,200.2,531.6z"/>
<path fill="#EF4337" d="M666.7,531.6c20,0,36.3,16.4,36.3,36.3v90.3c0,20-16.3,36.4-36.3,36.4c-20,0-36.3-16.3-36.3-36.4v-90.3
	C630.4,548,646.7,531.6,666.7,531.6z"/>
</svg>
