<?xml version="1.0" encoding="utf-8"?>
<!-- Generator: Adobe Illustrator 18.1.0, SVG Export Plug-In . SVG Version: 6.00 Build 0)  -->
<!DOCTYPE svg PUBLIC "-//W3C//DTD SVG 1.1//EN" "http://www.w3.org/Graphics/SVG/1.1/DTD/svg11.dtd">
<svg version="1.1" id="Layer_1" xmlns="http://www.w3.org/2000/svg" xmlns:xlink="http://www.w3.org/1999/xlink" x="0px" y="0px"
	 viewBox="0 0 870.6 870.5" enable-background="new 0 0 870.6 870.5" xml:space="preserve">
<g>
	<path fill="#1D1D1B" d="M0.3,447.3C0,442.2,0,437.1,0,431.9c0-3.3,0.1-6.8,0.1-10.1c3.7-95.1,36.5-180.5,93.6-254.5
		C189.4,48.1,327.9-12.7,482.3,2.2C581.2,13,668.2,54,741,125.3c80.4,80.6,124.6,184.3,128.5,296.5c0.3,5.1,0.3,10.2,0.3,15.3
		c0,3.3,0,6.8-0.1,10.2c-3.7,95-36.5,180.3-93.6,254.4c-95.7,119.2-234.2,180-388.6,165.2c-98.9-10.8-185.9-51.8-258.7-123.2
		C48.4,663.1,4.4,559.4,0.3,447.3L0.3,447.3z M861.2,447.3c5.4-171.7-97-336.1-258.3-405C552.4,20.8,498,8.6,438.8,7.6
		c-15.4,0.4-33,1-48.4,2.7C249.8,24,116.1,116.6,53.6,245.2C26.2,299.2,11.2,358,8.4,421.8c-5.1,171.7,97.2,336.1,258.5,404.9
		c50.5,21.5,105,33.8,164.1,34.8c15.4-0.5,33-1,48.4-2.7c140.7-13.7,274.3-106.3,336.8-235c27.5-53.9,42.5-112.7,45.2-176.5
		L861.2,447.3L861.2,447.3z M774.7,202.7l-22.5,15.4l-4.3-1.9c-6.6-7.8-12.4-18.7-20.6-25.4h-1.2l-11.5,10l2.4,2.9
		c-2.2-0.6-4.3-1.2-6.7-1.6c-1.9-0.2-3.8-0.8-5.6-1.4l-0.9-1.1l23.5-20.8c9.3,9.3,15.9,19.8,24,29.8c4.6-1.9,9-5.4,13.1-8.8
		c-10.4-16.6-24.2-33.2-38.3-47.2l-1.7,0.3c-12,10.7-22.2,22.4-33.9,32.4c-15.2-14.1-30-28.5-47.2-39.7l-1.5-1.7
		c6.1-8.8,11.9-17.7,18.3-26.2c9,6.8,18.8,14.2,28.6,21.5c3.4-3.2,6.8-7.6,9.5-11.3v-1.4c-13.9-12.5-28.7-23.3-44.1-33H652
		c-8.3,13-17.3,25.7-24.3,39.1l-1.3,1c-17.5-10.7-35.6-21-54.7-28.7c3.9-9.8,7.1-20,12-29.6c11.5,4.6,22.3,11,33.7,15.6l7.1-13.3
		c-2.9-3.4-7.3-5-11.2-7.1c-13-6.4-26.4-12.3-40-16.9l-1.3,0.8l-15.6,43.9l-1,0.5c-10.2-3.2-20.6-6.6-30.8-9.3
		c-9.5-3-19.8-4-29.8-5.9c1-10.4,3.7-21,5-31.8l1-0.4c11.4,2.9,23.5,4.6,34.7,7.5c1.4-5.2,3.1-10.2,4.1-15.6
		c-17.5-5.2-35.6-8.8-54.5-10.6C483,47,481.4,61.6,479.3,76c-2-2.7-3.7-5.9-5.1-8.9c-0.1-0.9-0.3-1.5-0.7-2.3
		c1.7-13.2,2.3-27.1,4.5-39.8c2.5-1,3.9,0.2,6.3,0.2c22.5,2.7,44.3,7.1,65.3,13.2c-2.9,9.7-5.9,19.5-8.6,29.3
		c-6.6-0.5-13.1-3.4-20-4.4c-4.6-1.2-9.7-2.2-14.9-2.7c-1.9,4.8-1.9,10.6-3.2,15.8c4.2,1.5,8.8,1.7,13,3.2
		c11.7,2.9,23.4,5.8,34.9,9.5c5.6-14.9,9.6-30.5,15.2-45.4c23.9,7.1,46.2,17.7,68.4,29.4l0.8,0.8c-5,8.9-10,18.3-15,27.3
		c-10.4-5.2-20.7-11.3-31.7-15.4c-1.7,0.2-1.7,2.2-2.5,3.3l-5,11.3c14.2,7.5,28.9,13.7,42.5,22.5c9.3-13.2,16.9-27.7,25.6-40.8
		c21.1,12.4,41.1,27.8,60.4,44.1l-0.2,1.5l-19.4,21.7H688c-7.5-6.9-16.6-14.2-24.7-20.2l-1.5-0.3l-9.3,12.5
		c12.5,10.6,25.8,21.7,38.3,33.5l34-33.7c18.7,18.3,35.6,38.8,50.5,59.9L774.7,202.7L774.7,202.7z M784.2,232.9l-4.7,2.6
		c-2.3-1.7-4.6-3.3-6.9-5.1c5.2-2.9,10.2-5.9,15.3-9c10.2,15.9,19,32.6,26.2,49.8c-1.3-1.7-2.6-3.3-4.1-4.6
		c-3.7-6.2-9.4-11.7-14.4-17.2c-3-5.6-6.1-11.3-9.8-16.5L784.2,232.9L784.2,232.9z M88.1,229.2l24,14.1c-1.4,1.9-3.6,3.7-5.2,5.6
		c-9.9-5.5-19.7-10.8-29.4-16.6c2.9-6.4,6.6-12.5,10.6-18.5c10.7-17.1,23.1-33.1,36.6-48.4h1.2c6.9,6.7,15.2,13.2,22,19.6
		c-6.8,10.4-16,20.8-23.1,31.2l0.2,1l1.8,1.3c-2.3,1.8-4.5,3.8-6.5,5.9c-2.3-1.5-4.5-3.1-6.8-4.7v-1.2c7.5-10.6,15.6-21.3,23.4-31.5
		c-2.7-3.9-7-6.1-11-9.5h-1.9C110.2,193.8,97.3,210.8,88.1,229.2L88.1,229.2z M81.1,390.6c-0.6,4.5-1.2,9.1-1.6,14
		c-2.9,1-6.8,0.4-10,0.2l-21.2-1.9c-0.2-11,2.4-21.9,3.9-32.8l0.9-0.3c1.3,4.4,2.4,9,4.5,13.1c-0.5,4.1-1,8.2-1.2,12.2
		c5.1,1.2,10.2,1.7,15.6,1.9l0.9-5.4h1.7C77.1,392.4,79.1,391.6,81.1,390.6L81.1,390.6z M79.5,267.4c-1.7-0.6-3.6-1.3-4.8-2.4
		c-1.7-0.4-3.7-1.7-5.4-1.2c-3.3,6.6-6.5,13.2-9.4,20c-4.7,4.6-9.3,9.3-13.2,14.4c5.6-15.7,11.9-31.1,19.7-46l1.2-0.4
		c6.4,3.6,13.1,6.7,19.8,10C84.6,263.6,82,265.5,79.5,267.4L79.5,267.4z M458.1,79.1c-13.1-0.6-26.5-0.6-39.1-0.2
		c-1.2-11-1.5-22-1.5-32c12.3-1.5,23,0.2,35.4-0.2c1-5.2,1.7-10.8,0.5-15.9l-0.5-0.8c-16.8-1-35.6-1-52.8,1.3l-1.2,1.2
		c1.2,15.2,2.5,31,4.4,46l-1.9,1.9c-20.6,1.2-39.8,6.4-58.7,10.2c-3.7-10-5.8-20.2-8.8-30.3l1.5-1.3c10.4-1.9,21-4.1,31.2-7
		c-0.6-5.4-1.9-10.6-3.3-15.7c-17.9,2.5-34.4,7.1-50.8,12.7v3c4.3,14.6,10,28.7,13.3,43.7c-14.3,5.1-28.2,10.4-41.8,16.8
		c-1.9-1.2-4.1-1.2-5.7-0.4c-3.3,2.9-6.8,5.5-9.8,8.3c-5.7-9-10.6-18.8-15.2-28.3c10.7-5.7,21.7-10.3,32.4-15.4
		c-0.6-5.4-3.1-11-6.6-15.4c-17.3,7.3-34.5,15.1-50.6,25.8c7.6,14,16.4,27.3,24.8,41C237.1,139.7,220,150,205,163.4l-6.4,5.6
		c-7-7-13.7-15.1-21-23.1c5.4-6.6,12.5-11.5,19.1-16.9c3.7-3.1,8.6-5.8,11.9-9.5c-2.7-4.4-5.8-8.3-9.3-12.5
		c-17.8,11.5-33.5,25-49.1,41.6c10.2,10.4,23.5,23.7,33.7,33.9l-4.6,5.1c-1.7,0.6-3.3,1.3-5,1.8c-4.1,1.8-8.2,3.7-12.2,5.6
		c2.2-2.6,4.4-5.1,6.7-7.5l4.3-5c-11-12-22.4-21-33.7-33.9c18.6-20.6,40.4-36.7,61.4-52.5h1.4l16.4,23.9v2.3
		c-10,7.3-20.2,14.9-29.3,23.1v1.3c3.2,4.3,6.4,7.3,10,11.4c14.2-11,28.3-22.4,43.3-32.2c-8.6-13.5-16.7-27.1-25-40.6
		C240,72.1,262,59.8,285.2,50.6c3.9,9.3,8,19.1,11.2,28.9l-0.2,1c-10.8,4.6-22.1,9-32.3,15.1c1.5,5.2,5,9.4,7.3,14.2
		c15.4-7.1,30-13.5,45.6-19.5C312.2,74.8,306.4,60,302,44.4c22.5-6.8,45.4-13.5,68.9-16.8c2.2,9.7,2.5,20.5,5.6,30
		c-6.4,2.4-13.5,2.4-19.8,4.4c-4.6,0.6-9.3,1.6-13.4,3.9l3.3,15.2c7.1,0,13.5-3.4,20.6-3.7c9-2.3,18.5-3.2,27.6-5
		c-0.4-15.8-3.3-31.8-4.6-47.4l0.5-1c23.5-1.7,47.4-2.9,70.8-1c1,9.8-1.7,20.2-1.3,29.8c0.5,1.4-1.2,1.2-2.2,1.4
		c-10-0.4-22.5-1.4-31.8-0.2c-0.8,4.4-0.5,10.8,0,15.8c12.2,0.6,23.9,1.1,35.6,1.6l-0.3,0.9C460.5,74.7,459.3,77,458.1,79.1
		L458.1,79.1z M821.5,390.4l0.9,5.2c5.4-0.3,11-0.8,15.8-2.3l-0.3-3.3c1.3-0.6,2.9-0.9,4.1-1.7c0.6-0.9,1.2-2.4,2.2-2.6
		c1.2,5.8,1.7,11.2,2.2,16.5c-10.2,0.8-21,2.5-30.8,1.7c-0.5-5.7-1.1-11.5-1.8-17.2c0.5-0.1,1.1-0.3,1.5-0.4
		C816.6,388.1,818.9,389.7,821.5,390.4L821.5,390.4z M792,430.2c-0.1-17.7-1.8-35.1-4.7-52c2.8,2.7,5.7,5.4,8.7,6.9
		c1.7,12,3.2,23.9,3.3,36.7l0.9,12.7l1,0.6l44.5,0.3c0.8,0.6,2.2,0.2,2.4,1.4c-0.2,28.1-4.1,55-8.9,80.6l-0.8,0.8
		c-9.8-2.5-20-4-29.8-6.1c-1.9-2.9,1.2-5.6,0.8-8.8c2.2-9.5,3.7-19.5,4.4-29.3c-5.2-1.2-10.3-1.7-15.7-1.9c-3.1,18.8-6,37.6-11,55.5
		c3.7,2.9,9.3,2.7,14,4.6c10.7,2.7,21,5.6,31.4,8.8l0.5,0.8c-8.1,25.6-16.9,51-29.3,74.9l-1.3,0.5c-8.5-5-17.8-8.8-26.4-13.5
		c3.9-11.5,10-22,13.9-33.7c-5.1-2.3-10-5-15.3-5.6c-6.4,16.8-15,32.9-23.3,49.1c13.7,8.1,27.6,15.1,41,23.2
		c-2.9,6.3-6.6,12.5-10.4,18.6c-10.8,17-23.3,33-36.7,48.3H744c-6.9-6.6-15.2-13.2-22-19.6c6.8-10.4,16-20.7,23.1-31.2l-0.2-1
		l-12.2-8.6C722.4,656,712,669.4,701,681.7l-4.4,4.8c11,12,22.4,21,33.7,33.9c-18.6,20.6-40.4,36.7-61.4,52.5h-1.4l-16.4-23.9v-2.3
		c10-7.3,20.2-14.9,29.3-23.1v-1.2c-3.2-4.4-6.4-7.3-10-11.5c-14.2,11-28.3,22.5-43.3,32.2c8.6,13.5,16.7,27.1,25,40.6
		c-22.3,13.2-44.2,25.4-67.4,34.7c-4-9.3-8.1-19.1-11.3-28.8l0.2-1.1c10.8-4.6,22.1-8.9,32.3-15.1c-1.5-5.2-4.8-9.3-7.3-14.2
		c-15.4,7.1-30,13.5-45.6,19.6c4.6,15.4,10.4,30,14.9,45.7c-22.5,6.9-45.4,13.5-68.9,16.9c-2.1-9.8-2.4-20.6-5.6-30.1
		c6.4-2.4,13.5-2.4,19.8-4.3c4.6-0.8,9.3-1.7,13.5-4l-3.4-15.1c-7.1,0-13.5,3.3-20.6,3.7c-9,2.2-18.5,3.1-27.6,4.8
		c0.4,15.9,3.4,31.8,4.6,47.4l-0.5,1c-23.4,1.7-47.4,3-70.8,1c-1-9.7,1.7-20.2,1.3-29.7c-0.5-1.5,1.2-1.3,2.2-1.5
		c10,0.5,22.5,1.5,31.8,0.2c0.8-4.4,0.5-10.8,0-15.8c-15.8-0.7-31-1.3-46.2-2.3c-2.7,15.4-2.9,32.3-5.6,47.5c-2.5,1-3.9-0.3-6.3-0.3
		c-22.5-2.7-44.3-7.1-65.2-13.1c3-9.8,5.9-19.6,8.6-29.4c6.6,0.5,13.1,3.4,20,4.4c4.6,1.3,9.8,2.3,14.9,2.7
		c1.9-4.8,1.9-10.4,3.2-15.8c-4.2-1.5-8.8-1.7-13-3.2c-11.6-2.9-23.4-5.8-34.9-9.5c-5.6,14.9-9.5,30.5-15.2,45.4
		c-23.9-7.1-46.1-17.7-68.4-29.3l-0.8-0.8c5-9,10-18.3,15-27.3c10.4,5.1,20.8,11.2,31.8,15.4c1.6-0.3,1.6-2.3,2.4-3.4l5-11.3
		c-14.2-7.5-28.9-13.7-42.5-22.4c-9.3,13.1-16.9,27.6-25.6,40.8c-21-12.5-41.1-27.9-60.4-44.2l0.3-1.5l19.3-21.7h2.2
		c7.6,6.9,16.6,14.2,24.7,20.4l1.5,0.2l9.3-12.5c-12.5-10.4-25.8-21.7-38.3-33.5L145,727.9c-18.8-18.4-35.7-38.9-50.6-59.9l0.8-1.7
		l24.1-16.4c7.9,7.8,14,20.8,23.3,28.3h1.2l11.5-10c-11.5-14.2-22.5-28.6-31.3-44l-1-0.6c-13.7,8.3-27.6,15.8-41,24.1
		c-14.6-22.7-26.2-46.8-34.5-72.2c1.9-1.7,5-1.7,6.7-3.2c7-2.7,14.6-5.1,22-7.3c4.4,11.5,8.7,23.3,14.9,34.3c5.6,0,10-4.2,15.2-6.4
		c-7.6-17.1-14.4-34.5-20.3-52.3c-15.1,4.4-30.3,8.8-45.4,13.7c-9.3-27.1-14.1-57.6-16.8-87.2c10.2-0.6,21-2.4,30.8-1.7
		c1.4,13.5,2.4,27.7,5.8,40.6l0.8,1c5.6-0.2,10.8-1.7,15.6-3.1c-2.4-18.9-5.8-36.6-6-56.3l-0.9-12.7l-1-0.8l-44.5-0.2
		c-0.6-0.8-2.2-0.3-2.4-1.5c0.1-18.2,1.8-35.9,4.3-53c2.8-0.2,5.6-1.2,8.2-1.8c-1.3,7.7-2,15.7-3,23.3c-0.2,8.3-1.9,16.4-0.4,24.7
		c15.4,1.1,31,0.8,46.8,1.5l0.1,12.1c0.2,24.4,3.3,48.4,8.5,71.2l-1,1c-10.2,1.4-20.6,3.7-30.6,6c-2.9-14.1-4.8-29.3-7.3-43.4
		c-5.4,0.2-11,0.6-15.8,2.2c2.2,23.7,6.8,45.2,12.9,67.2c13.5-1.9,26.2-6.9,39.3-10c2.7-0.2,5.7-3.2,8.3-1c5,22.7,14.7,43.5,25,64
		l-0.5,1.3l-27,13.7l-1.3-0.3c-5.8-11.6-11.2-23.7-16.4-35.8L57.3,580c2.5,11.7,8.5,22.5,13.7,33.5c4.2,7.5,8.1,15.6,13.2,22.7h1.4
		l40.4-22.7l0.6,0.4c11.3,19.3,25,38.1,39.4,55.5l-23.5,20.8c-9.3-9.3-15.9-19.8-23.9-29.8c-4.7,1.9-9,5.4-13.2,8.8
		c10.5,16.6,24.2,33.3,38.3,47.2l1.7-0.2c12-10.8,22.3-22.5,33.9-32.5c15.2,14.1,30.1,28.5,47.2,39.8l1.5,1.7
		c-6.1,8.7-12,17.6-18.3,26.1c-9-6.8-18.8-14.1-28.6-21.4c-3.3,3.1-6.8,7.5-9.5,11.2v1.5c13.9,12.4,28.9,23.2,44.2,32.9h1.9
		c8.3-12.9,17.3-25.6,24.4-39.1l1.2-1c3.8,2.3,7.5,4.5,11.4,6.8c1.1,1.4,2.3,2.8,3.7,4c1.2,0.5,1.5,1.8,2.4,2.8
		c0.2,0.4,1.1,0.4,1.1,1.1c6.6,5,13.1,9.8,21,12c4.2,1.7,8.8,2.1,13,3l1.7,0.1c-3.7,9.5-6.8,19.4-11.5,28.5
		c-11.5-4.6-22.2-11-33.7-15.6l-7.1,13.5c2.9,3.3,7.3,4.8,11.2,7c13,6.3,26.4,12.3,40.2,16.9l1.2-0.8l15.6-43.9l1-0.5
		c10.2,3.2,20.6,6.7,30.8,9.4c9.6,2.9,19.8,3.9,29.8,5.8c-1,10.6-3.7,21-5,31.8l-1,0.4c-11.4-2.9-23.4-4.6-34.7-7.5
		c-1.4,5.2-3.1,10.2-4.1,15.6c17.5,5.2,35.6,8.8,54.5,10.6c2.2-15.9,3.9-32,6.4-47.9c19.3,1.9,40.3,2.5,59.5,1.7
		c1.3,11,1.5,22,1.5,32c-12.3,1.5-22.9-0.2-35.4,0.3c-1,5.1-1.7,10.7-0.5,15.8l0.5,0.7c16.8,1,35.6,1,52.8-1.2l1.2-1.3
		c-1.2-15.2-2.4-31-4.4-45.9l2-2c20.5-1.2,39.7-6.4,58.6-10.2c3.7,10,5.9,20.2,8.8,30.4l-1.5,1.2c-10.4,1.9-21,4.1-31.2,7.1
		c0.8,5.4,1.9,10.4,3.4,15.6c17.8-2.5,34.3-7.1,50.7-12.7V817c-4.3-14.6-10-28.9-13.3-43.7c9.4-3.3,18.6-6.8,27.7-10.7
		c2.1-0.3,4.4-0.7,6.7-0.9c3.6-0.3,6.9-2.5,10.3-3.5c4.8-2.2,9.6-5,13.9-8.4c5,8.8,9.6,18,14,27c-10.8,5.6-21.8,10.2-32.5,15.3
		c0.8,5.4,3.1,11.1,6.6,15.4c17.3-7.3,34.5-15.1,50.6-25.8c-7.6-13.9-16.4-27.3-24.6-41c16.4-11.5,33.4-21.7,48.3-35.2l6.4-5.6
		c7.1,7.1,13.7,15.2,21,23.2c-5.4,6.7-12.5,11.5-19.1,16.9c-3.7,3.1-8.5,5.8-11.9,9.5c2.7,4.4,5.8,8.4,9.3,12.5
		c17.9-11.4,33.5-24.9,49.1-41.6c-10.2-10.4-23.5-23.7-33.7-33.9c15.2-16.4,31-34.5,43.9-53.5h1.9c8.1,5.6,16.7,10.6,24.8,16.4v1.3
		c-7.6,10.4-15.7,21.2-23.5,31.4c2.7,4,7.1,6.1,11,9.6h1.9c13.7-16.4,26.6-33.5,36-51.8l-40.4-23.7V614c12-18.7,20.6-39.1,28.6-59.3
		l1-0.7c9.5,3.9,19.5,6.9,29.3,10.6c-3.7,11.7-9.3,22.7-14.2,34.1c2.1,3.2,6.4,3.2,9,5.4c1.7,0.5,3.7,1.7,5.4,1.3
		c9.4-18.6,17.1-37.9,22.5-58.5c-15.2-4.6-30.6-9.3-45.7-13.9c6-22.5,10.8-44.2,12.9-68.4c2.9-1,6.9-0.5,10-0.3l21.2,2
		c0.3,12.9-3.3,25.6-4.6,38.5c4.6,1.7,9.8,2.2,14.6,3.2c4.2-12.5,5.2-26.7,6.9-39.6c0.2-8.3,1.9-16.4,0.5-24.7
		c-15.4-1-31.1-0.8-46.9-1.5L792,430.2L792,430.2z M342.1,755.6c57.8,16,124.5,16.6,182.2,0.6c0.6,0.3,1.3,0.6,2.1,0.9
		c3.3,0.8,6.2,2.7,9.8,3.3c-57.7,18.2-120.5,20.7-183.9,5.8c-7-1.6-13.9-3.4-20.8-5.6C335.1,759.1,338.6,757.4,342.1,755.6
		L342.1,755.6z M101.4,421.8c-4.6,112.2,50,219.5,138.8,284c0.2,1.5,0.5,2.9,1,4.2c0,2,0.2,4.1,0.6,6
		c-55.8-39-101.5-94.8-124.5-156.8c-13.5-34.7-22.2-72.5-23.7-112h-0.8c-0.3-11.8,0-23.5,0.9-35c2.7,1.8,5.2,3.7,7.9,5.4
		L101.4,421.8L101.4,421.8z M768.3,447.3c1-21.5-0.3-42.9-3.5-63.7c2.6-0.2,5.1-1.6,7.2-3.3c2.3,13.6,3.7,27.5,4.2,41.6h0.8
		c1.9,83-25.1,158.7-73.5,222.8c-23.9,29.6-51.4,54.7-81.4,74.6c0.4-1.4,1.3-2.7,1.7-4.2c0.2-2.7,1.3-5.1,1.9-7.6
		c5.3-3.8,10.6-7.5,15.7-11.5c77.3-62.6,121.9-149.6,127-248.5L768.3,447.3L768.3,447.3z M368.6,107.4c-23,4.4-45.1,11.4-65.1,20.8
		c-1.7,0.8-3.4,1.6-5.2,2.4c-1.3-0.8-2.4-1.5-3.6-2.2c-0.8-0.5-1.4-1.4-1.9-1.8c-0.6-0.3-1.3-0.8-1.7-1.2
		c29.9-14.2,61.8-23.9,94.7-28.7c-4.4,2.4-8.7,4.7-13,7.4C371.6,105.3,370.2,106.3,368.6,107.4L368.6,107.4z M567.5,419.6
		c-1.8,0.3-3,1.5-3.9,2.7c-0.3,0.5-0.8,1.2-1.1,1.8l-0.6,1.4c-4.2,4.3-8.4,7.9-13.9,8.5c-6.3-1-11.9-4.2-17.2-8.2
		c-1-0.3-2-0.9-3.3-1.5c-1.2-0.6-2.4-1.4-3.6-2c-9.4-6.6-22.6-5.1-33.4-3.4c-5.5,0-10.3,2.4-14.5,5.3c-1.5,0.3-2.8,1.1-3.9,2
		c-1.1,0.9-2.2,1.8-3.1,2.8c-0.4,0.3-1,0.8-1.4,1.3c-0.4,0.5-1.1,1.3-1.3,2.2l-0.1,0.5c0,0.3-0.1,0.6-0.1,1.1c0.1,1.2,1.1,2,2.8,1.6
		l0.8-0.1l1.4-0.5l1.7,0.9l0.1-2.7c0-0.1,0.3-0.3,0.9-0.6c0.5-0.3,1.2-0.6,1.8-1c3.3-2.4,6.4-3.8,9.9-4.8c3.4-1.2,7.4-1.9,12.5-3
		c8.9,0.3,14.5,1.2,20.7,3.6c4.1,1.9,7.2,4.1,9.8,6.1l1.5,1.4l-1.3-0.5c-1.1-0.4-2.2-0.8-2.9-0.9c-10.3-3.3-21.3-5.2-32.8-4
		c-9.6,1.7-19.1,6.5-25.3,13.6c-0.1,0.2-0.2,0.3-0.5,1.1c-0.3,0.4-0.9,1.2-1.1,1.9c-0.2,0.9-0.2,1.7,0.3,2.8
		c-0.3,0.1-0.6,0.3-1.1,0.8c-0.6,1-0.6,2-0.5,2.9c0.1,0.8,0.4,1.5,0.5,2.3c0.8,1.9,2.1,2.6,3.2,3c0.4,0.2,1,0.3,1.5,0.5
		c0.4,0.1,0.9,0.3,1.7,0.9c6.4,1.1,12,3.2,18.2,4.6c11.7,3.6,25.3,2.3,35.7-3.2c5.9-2.5,11.8-6,17.2-9.9l1.1-1.1l1.1-0.8
		c0.3-0.4,0.4-0.5,1.1-1.2l1-1.6c-0.1-1.1-0.3-1.8-1-2.5l-0.6-0.5l-1.1-0.8l-0.6-0.4l-1.4-0.9l-0.6-0.4c3.6,0.1,7.9,0,9.6-0.2
		c2.4-1.2,4.6-1.7,6.6-2.6c2.2-0.9,4.1-2.2,5.6-4.7c0.3-0.2,0.6-0.4,0.9-0.6l0.6-0.9c0.4-0.5,0.8-1,1.6-1.6c0.4-0.9,1.1-1.7,1.6-2.6
		c0.5-1,1.2-1.9,1.5-3c0.8-1.6-0.1-3.3-1.5-4.5L567.5,419.6L567.5,419.6z M475.3,452.6c-0.9-0.2-1.8-0.3-2.7-0.6
		c-1.4-0.4-2.4-1.1-3.1-2.3l0.5-0.5c0.9-1.8,2.5-3,4.7-4.4l1.1-1c-0.4,1.6-0.4,3.1-0.3,4.7c0.2,1.4,0.5,2.9,0.9,4.3L475.3,452.6
		L475.3,452.6z M527.7,452.5c-0.4,0.2-0.9,0.3-1.2,0.5l-1.4,0.8c-0.4,0.2-0.9,0.4-1.5,0.6l-0.9,0.2c-8.8,5.8-21.3,5-32.3,2.6
		c-3.7-0.5-6.4-3.6-8.1-7c-0.2-0.5-0.2-1.1-0.1-1.9c0-1,0.2-1.8,0.3-2.8c0.1-1.7-0.1-3.8-2.4-4.8c12.1-7.2,29.1-6.9,41.4-1.4
		c0.7,0.4,1.3,0.9,2.1,1.2c0.6,0.3,1.5,0.6,2.2,1c1.4,0.8,2.3,1.4,2.8,2.2c0,1.8,0.4,3.9,0.4,5.7
		C529.1,451.1,528.8,452.1,527.7,452.5L527.7,452.5z M535.3,447.9c-0.8,0.4-1.3,0.1-1.5-0.8c-0.3-1.8,1.5-0.4,2.4-0.5
		C536.2,447,535.5,447.5,535.3,447.9L535.3,447.9z M569.9,408c-2.6,0.3-5.1,0.9-7.5,1.3c-2.5,0.4-5,0.8-7.3,0.4
		c-3.6-0.1-7.2-0.8-10.4-1.5c-1.2-0.6-2.4-1.2-3.4-1.6c-1.2-0.4-2.4-0.8-3.6-1.2c-2.4-0.6-4.7-1.4-6.9-2.8c-6-2.4-12.5-3.8-18.6-6.2
		c-4.5-0.6-8.7-0.3-13.6,0.4c-2.9,1.2-6.1,2.2-9.4,3.1c-3.1,1.1-6.4,2.4-9.3,4.6c-0.5,1.3-1.7,2-2.9,2.8l-1,0.6
		c-0.3,0.2-0.7,0.4-0.9,0.6c-0.5,0.5-1.1,1.1-1.4,1.8c-2.3,1.9-4.4,4.2-6.8,6.1c-2.3,2-4.8,3.8-7.9,4.6c-0.5,0.3-1.6,1-1.9,2.2
		c0.8,1.3,2.3,1.5,3.4,1.4h2.1c0.6,0,1.2,0,2,0.1c2.6-0.9,4.7-2.4,6.7-4.2c1.9-1.8,3.8-3.8,5.7-5.6c3.8-4.3,8.3-7.9,14-9.7
		c1.8-0.1,3.3-0.8,4.7-1.5l2.2-1.1c0.6-0.3,1.3-0.5,2-0.9c1.3,0.3,2.6,0.3,3.9,0.3c1.4-0.1,2.8-0.2,4.2-0.2c2.7-0.1,5.3,0.1,7.5,1.6
		c5.2,1,9.4,3,15.2,4.5c1.4,1,3,1.6,4.5,2.3c1.5,0.6,3,1.2,4.1,1.8l0.8,0.1h0.8c0.2,0,0.4,0,1.2,0.3c4.5,0.6,8.9,1.5,13.2,1.7
		c4.2,0.2,8.4-0.3,12.7-2.4c0.7,0.2,1.2,0,1.5-0.4l0.6-0.5l0.7-0.9c0-0.2,0.1-0.5,0.1-0.8C570.9,409,570.9,408.5,569.9,408
		L569.9,408z M391.9,552.7c2-0.4,4.1-1,6-1.5c2-0.5,4-0.9,5.9-1c2.2-0.5,4.4-0.3,6.6,0.3c2.3,0.5,4.4,1.5,6.8,2.3
		c1.1-0.2,1.5-1.7,1.3-2.8c-0.6-0.9-1.6-1.7-2.7-2.3c-6.4-6.2-17.3-4.6-24.8-1.9c-1.3,0.1-2.7,0.6-4.1,0.9c-1.3,0.2-2.4,0.1-3.2-1.1
		c-1.7-1.4-2-3.9-1.7-6.4c-1.2-1.3-3.1-0.9-4.4,0.3c-1.3,4.1,0.6,7.8,2.9,10.3C383.8,553.4,387.9,553.5,391.9,552.7L391.9,552.7z
		 M465.9,604.4c-6.6,2.2-13.7,4.3-21.1,4.6c-3.6,0.9-7.1,0.8-10.8,0.2c-3.6-0.5-7.1-1.4-10.6-1.9c-2.7-0.2-5.3-0.2-7.9,0
		c-2.5,0.2-5,0.6-7.4,1c-5,0.6-9.8,1.1-15.1-0.1c-1.5,0-2.7-0.7-4-1.3c-0.6-0.4-1.3-0.8-1.9-1.1c-0.6-0.2-1.4-0.5-2.3-0.5
		c-1.4-0.7-2.3,0.8-2.4,1.5c-0.4,1-0.1,1.7,0.3,2.4c0.2,0.2,0.4,0.5,0.6,0.9c0.2,0.2,0.4,0.4,0.6,0.9c6.9,5.6,17.6,5.9,25.8,3.9
		c3-1.2,6.1-1.3,9.5-1.1c3.2,0.2,6.6,0.6,9.7,0.6c6,1.8,12.2,1.6,18.2,0.7c5.9-1,12-2.7,17.7-4.2c1.1-0.4,2.5-0.8,3.6-1.3
		c1.3-0.5,2.4-1.5,2.6-3.4C470.5,604.2,467.7,602.6,465.9,604.4L465.9,604.4z M489.3,586.2c-0.7-0.8-1.3-1.5-2.1-2.3
		c-1.5-1.5-3.4-2.8-6.3-2.8l-0.6,0.2c-2.5,1.6-1.4,3.8-0.8,4.8l0.4,0.6c0.1,0.2,0.1,0.4,0,0.7c-3.3,1.5-7.1,2.5-10.8,3.1
		c-4.7,0.9-9.4,0-14.1-1.2c-2.4-0.7-4.7-1.3-7.1-1.9c-2.5-0.5-5-1.1-7.5-1.2c-3,0.1-5.5,1.3-7.6,2.4c-1,0.5-2,1.1-3.1,1.5
		c-1,0.4-1.8,0.6-3,0.9c-2.9-1.3-5.9-2.6-9.3-3.4c-3.3-0.9-7-1.2-10.8-0.4c-3.1,0.4-6.1,1.3-9,2.1c-2.8,0.7-5.5,1.5-8.1,1.7
		c-2.8,0-5.6,0.4-8.3,0.3c-1.9,0-3.8-0.3-5.5-1.7c0.1-0.3,0.2-1,0.1-1.5c0-0.6-0.3-1.6-1.2-2.2c-2.2-1-3.9-0.4-5.3,0.6
		c-0.6,0.4-1.2,1-1.7,1.5l-0.8,0.7l-0.6,0.7l-0.4,0.5c-0.2,0.5-0.4,1-0.9,1.4c-0.4,0.5-0.9,1-1.3,1.4c-1,1.1-2,2.5-1.5,5.2
		c0.8,1.2,2.3,2.5,4.2,2.3l0.8-0.3c0.6-0.6,1.2-1.2,1.7-1.7c0.4-0.4,1-0.9,1.6-1.2c0.9-0.2,1.8,0,2.8,0.5c6.1,3.7,12.3,3,18.1,1.4
		c2.8-0.7,5.6-1.8,8.4-2.8c2.8-0.9,5.5-1.6,8.5-1.9c2.8-0.8,5.4-0.2,8,0.7c2.8,1,5.4,2.5,8,3.7c2.7,1,5.1,0.6,7.2-0.2
		c1.1-0.4,2-1,2.9-1.5c0.9-0.5,1.7-1.2,2.5-1.8c2.7-2.4,7.4-1.6,11.4-0.2c5.7,4,14.5,4.7,21.5,3.2c2.7-0.9,5.7-1.5,8.6-2.2
		c2.8-0.6,5.6-1.3,8.4-2.4l2.8,1.6c1.8,1.1,3.7,0,4.3-1.5l0.1-1c-0.6-1.6-1.4-3.4-2.9-4.7C490.5,587.5,489.9,586.9,489.3,586.2
		L489.3,586.2z M417,544.9c1.4,0.6,3,1.2,4.6,1.6c1.6,0.4,3.2,0.7,5.1,1.1c3.3-0.3,6.9-1.1,10.1-2.8l0.5-0.9c0-0.3,0-0.9,0-1.5
		c0-0.7-0.2-1.5-1.6-2.4c-2-0.1-4.2,0.1-6.2,0.1c-2,0.1-4.1,0.2-6.1-0.1c-5.6-0.5-9-4.4-10.6-9.7c-2.4-7.2-1.5-13.9,0.1-20.6
		c0.8-3.4,1.6-6.8,2.4-10.2c0.6-3.3,1.2-6.8,1.4-11.1c-0.2-4.6-1-9.7-1.3-14.9c-0.3-5.1-0.3-10.1,1.1-15c-0.3-4-0.1-7.8,0.1-11.4
		c0.2-3.7,0.3-7.2-0.1-10.9c0.8-1.3,0.6-2.6,0.3-3.7c-0.1-0.5-0.3-1.1-0.4-1.7c-0.2-0.5-0.2-1-0.2-1.5l-0.3-0.8
		c-0.5-0.4-0.8-0.9-1-1.6l-0.3-0.5h-0.6c-0.8,0-1.3,0.1-1.7,0.4l-0.8,0.6l-1.8,0.9l1.2,0.5l-0.3,0.8c-0.4,7.2,0.6,14.1,0.2,20.5
		c-0.1,4.5-1.1,8.6-1.5,12.7c-0.6,4.2-0.8,8.4,0.5,12.8c0.2,2.8,0.5,5.6,0.8,8.4c0.3,2.7,0.4,5.5,0.1,8.2c-0.5,2.7-1,5.6-1.6,8.5
		c-0.5,2.8-1.2,5.6-2.3,8.4c-1.5,9.8-2.6,20.1,3,28.9C411.2,541.4,413.9,543.6,417,544.9L417,544.9z M587.5,128.6l1.6,1.4
		c8.8,6.6,18.4,11.3,28.6,16C608,139.7,597.9,133.9,587.5,128.6L587.5,128.6z M465.9,475.4c0.7,0.5,1.7,0,1.7-1
		c-0.7-1.4-0.4-2.6-1-4.1c-0.6-1.8-2.4-3-2.8-5c-3.3-5.6-5.1-11.7-6.9-17.9c-0.8-1.5-1.9-2.8-3.6-2.9c-0.5,0.4-1,0.9-1.2,1.4
		c0.2,5,1.5,10.1,3.4,14.7C458.3,466,460.5,472.3,465.9,475.4L465.9,475.4z M439.6,549.1c0.3,0.2,0.8,0.4,1.5,0.3
		c1-0.4,2.2-0.6,3.7-0.6c1.4,0,2.8,0,4.1,0c3.4-0.2,7.1-0.2,10.6-0.6c3.6-0.5,7-1.5,9.7-3.8c4.5-2.3,4.6-7.8,4-12.3l-1.2-1.6
		c-2.5-0.2-3.6,1.1-4,2.8c-0.2,0.8-0.4,1.6-0.5,2.5c-0.2,0.8-0.3,1.5-0.5,2c-4,5.5-11.7,5.8-18.3,5.4l-8.4,2.1
		c-0.2,0.2-0.4,0.3-0.7,0.5l-0.7,0.5c-0.5,0.5-0.9,1.2-0.1,2.3L439.6,549.1L439.6,549.1z M424.8,560.4c-1.4,0.2-1.2,1.7-1.6,2.7
		c4,2.3,9.7,4.5,13.9,0.9c0.5-1.1,1.7-1.9,1.4-3.3c0.1-1-0.6-1.1-1.4-1.1C434.1,561.6,428.6,561.3,424.8,560.4L424.8,560.4z
		 M451.4,571.6c-1.5-0.9-3-1.8-4.6-2.7c-1.6-0.7-3.2-1.4-5.2-1.6c-2.8-0.9-5.1-0.2-7.2,0.7c-1,0.4-2,1-3,1.5c-1,0.4-1.8,0.9-2.8,1.1
		c-4.6-2.9-9.3-2.4-13.7-0.8c-2.3,0.9-4.4,1.8-6.7,2.9c-2.1,1-4.3,1.8-6.5,2.5c-0.6,0.4-1.4,0.5-2.2,0.5c-0.8,0-1.6-0.2-2.4-0.3
		c-1.6-0.3-3.6-0.5-4.8,1.2c-0.4,0.5-0.3,1.1-0.1,1.5c0,0.2,0.1,0.4,0.8,1.2c4.3,1.8,8.7,1.7,13,0.1c1.3-0.3,2.5-0.9,3.7-1.4
		c1.2-0.5,2.3-1.1,3.3-1.6c2.2-1,4.2-1.8,6.6-1.7l0.5-0.1c0.8-0.1,1.5,0.1,2.4,0.5l1.4,0.5c0.4,0.2,1,0.4,1.6,0.4
		c0.3,0,0.8,0.1,1.2,0.2c0.4,0.1,1,0.3,1.4,0.5c1,0.3,2.2,0.6,3.6,0.2c4.4-3.7,8.6-2.8,13-1.1c2.3,0.9,4.5,1.9,6.9,2.8
		c2.4,0.7,4.8,1.3,7.5,1.1l0.7-0.4l1-0.1c0.3,0,0.7,0,1.1-0.1c0.4-0.1,0.7-0.3,1.1-1c0.2-1.1-0.1-2.9-1.7-3.5
		C457.5,575,454.5,573.5,451.4,571.6L451.4,571.6z M848.4,366.9c0-5.7-1.9-11.5-2.7-17.2c-1.6-2.2-1.1-5.1-2.3-7.1
		c-0.4-5.5-4.2-9.5-5.3-14.6c-3.2-8.1-7.1-15.1-11.6-22.9c-0.4-5.9-1.1-11-2.6-16.4c-1-1-1.2-1.7-1.9-2.7c-0.2-1-1-1.8-1.2-3
		c-0.6-0.5-0.8-1.6-1.4-2.4c-2.4-4.8-5.5-10.4-9.5-14c-3.9-6.6-10-12.3-15.2-18c-1.2-1-3.3-2-4-3.3c-5.8-6-13.1-11.2-20-16.5
		c-1.7-0.6-3.3-1.7-4.7-2.8c-3.9-2.6-8.4-5.1-12.6-7.3c-9-3.8-17.2-8-26.7-11.4c-5.4-1.9-10.7-4.2-16.5-5.2
		c-5.1-0.4-9.2-3.4-13.6-5.1c-4.1-1.2-6.9-4.5-10.2-6.5c-3.3-3.1-7.3-5.1-10.4-7.9c-2.9-1.9-5.9-3.4-8.1-5.9
		c-9.7-7.5-17.2-19.9-28.6-25.9c-7.1-2-14.6-5.7-21.7-4.7c-10-4.7-19.6-9.5-28.4-16c-2.9-2.7-5.9-5-9.2-7.3
		c-12.4-12.6-28.3-21.4-46.5-21.6c-2.9,0.4-5.8,1.6-8.6,1c-7.9-13.5-24-14.9-37.4-19.6c-6.8-2.6-10.4-9.2-13.2-15.4
		c-0.2-1.8-1.4-3.2-1.5-5.4c-0.6-1.4-2-2.4-3.3-3c-1.9-0.9-4,0.3-5.4,1.5c-1.4,4.1-0.9,8.6-2.4,12.4c-1.6,2.8-3.2,6-4.7,8.6
		c-3.1,4.7-8.8,8.5-13.3,9.3c-4.4-2.5-9.4-3.2-14.2-4.3c-1.8-0.3-4.3,0-6-0.4c-10.8,0.4-21.9,2.4-30.3,7.2
		c-7.1,3.8-13.6,7.1-20.2,11.2c-5.6,5.4-12.8,7.7-18.4,12.8c-4.1,2.4-6.8,4.5-10.8,6.7c-9.7,6.9-22.5,12.1-34.9,10.7
		c-5.3,0.8-9.9-3.6-14-5.8c-0.8-0.5-1.4-1.4-1.9-1.8c-4-1.9-4.4-6.7-6.8-9.6c-1.9-1-0.8-3.6-2.4-4.8c-1.5-0.8-3.7-0.8-5.3,0
		c-6.9,5.9-14.1,10.7-17.4,18.7c-3,7.2-6.7,14.6-5.4,23.6c-2.9,2.5-6.9,3.9-10,6.4c-2.2,1.9-5.5,3.8-7.9,6.2
		c-2.8,3.1-6.4,6.4-8.3,10.1c0.3,1-0.8,1-1.1,1.3c-7.2,0.2-15.4,0.3-23.4,1.2c-10.9,1.4-20.6,6.2-30.6,9.7
		c-9.7,4.2-19.3,8.8-28,14.4c-4.2,1.9-8.1,5.4-11.6,8.1c-4.7,4.4-10.6,7.8-14.7,12.8c-3.1,3-6.1,6-8.2,10c1.1,2.9-2.4,5.8,0.5,8.1
		c-1.9,3.1-6.2,5.7-7.5,9.6c-13.5,5.6-24.7,14.3-36.1,23.3c-10.7,9.9-21,19.4-28.3,32c-1.6,0.9-0.8,2.8-2.4,3.2
		c-0.3,1-1.3,1.5-1.8,2.4c-2.4,5.6-5.7,10.6-7.5,16.5c-1.4,1.7-1.5,4-2.4,5.9c-0.3,1-0.8,2.2-1,3.2l-0.9,4.6c-0.4,1.1,0.3,2.5-1,3.1
		c-0.5,1.3-1.4,3.1-0.4,4.4c-0.6,3.4,1,5.8,2.3,8.3c-0.1,2.3-2.4,3.8-3.2,5.7c-1.5,1.8-2.8,4.2-4.3,6c-1,3.1,1.9,5.7,3.8,7.6
		c4.7,1.5,9.6-0.5,14.1-1.7c6.2-1.4,11.4-4.8,17.3-7.1c1.8,6.9,3.6,14.6,9.9,19.4c3.3,1.9,7.6,2.5,11.5,2.4c4,1.4,6.8-1.5,9.8-2.6
		c0.4,0,0.6,0.3,0.5,0.8c-0.9,7.9,2.3,15,6.5,20.9c4.8,3.1,8.6,6.3,13.8,9.3c-0.4,4,0.5,7.7,1.2,11.1c1.3,1.9,1.3,4.7,2.7,6.7
		c4.6,9.8,13.9,15.3,22.8,20.4c6.8,2.4,12.5,3.2,19.9,1.1c0.4-0.4,1.4-0.8,1.9-0.5c1.4,5.2,3.2,10,5.6,14.7c1.4,1.6,2.5,3.3,3.4,4.7
		c1.1,3.1,3.8,5.3,5.6,7.9c2.8,3.9,7.5,5.3,10,9.6c2,6,7.1,11.4,13.2,13.5c0.6,1.2,2.8,0.6,2.5,2.4c-2,2.3-2,5.6-3.7,8.3
		c0.2,5.3-0.3,12.1,2.2,16.9c-0.1,1.8,1.2,2.7,1.5,4.5c0.1,0.1,0.4,0.5,0.9,0.5c0.9,4.2,4.4,6.1,7.1,8.6c1.1,4.3,4.3,7.6,7.5,10.6
		c2.2,1.4,5,2.3,7.4,3.2c0,1.3,0,2.5,0.4,3.6c0.8,3.7,1.7,7.2,2.9,10.7c0.4,2.7,2.2,5.3,3.6,7.2c0.9,2.6,3,4.5,4,6.9
		c-1.5,2.4-2.6,5.2-3.8,7.6c-2.2,7-2.4,13-0.5,20.1c0.4,1,0.4,2.2,1.4,3c2.8,8.1,10.3,14.1,18,17.8c1.9,2.7,3,5.5,3.2,8.8
		c1.2,5.7-0.8,11.2-1.7,16.7c-0.2,2.9-0.6,6.6-1.5,9.3c-0.1,0.6,0.1,1.2-0.3,1.6c-0.1,4.3-1.1,7.8-1.6,11.8
		c-0.1,1.4,0.1,2.1-0.4,2.9c0,5.8-1.4,12.6,0.6,18.1c-0.2,5.9,2.4,11.3,3.6,16.8c4.2,6.5,7.8,13.8,13.8,19.9c1.2,0,1.5,1.3,2.4,2.3
		c0.2,0.4,1.1,0.4,1.1,1.1c6.6,5,13.1,9.8,21,12c4.2,1.7,8.8,2.1,13,3c7.6,0.4,17,1,24.2-1.1c21.9-4.6,37.6-20.1,57.4-29.3
		c6.5-2,12.6-5.4,20-5.1c1.6,1.4,1.8,4.4,3.6,5.2c2.2,4.7,6.8,7.9,11.4,9.7c3.6,1.5,8.1,1.5,12.5,1.9c5.3,0.1,11-0.9,15.5-3.7
		c2.8-0.5,3.2-3.2,5.7-4.6c4.7,3.5,11.1,4.3,17.2,4.3c2.6,1.2,5.7,1.4,8.7,1.1c6.1-2.1,10.8-6.6,13.9-12.2c1.2-2.1,2.4,0.3,3.3,1
		c0.9,0.7,2.3,1,2.6,1.9c5.5,5.1,10.7,9.9,16.9,14.2l8.1,4.7c3.3,0.5,6.1,2.8,9.3,3.8c4.2,1,7.6,3.7,12.5,3.7c0.4,0,0.9,0.7,1.3,0.1
		c2.6,0.5,5.4,0.9,8,1.8c3.9-0.2,7.8,1,11.6,0.7c1.9-0.1,3.7-0.3,5.5,0.2c4.4-0.3,8.6-1.5,13.1-1.8c3.6-0.3,6.9-2.5,10.3-3.5
		c7.9-3.5,15.6-8.7,20.9-15.6c3.8-1.3,3.4-5.7,6-7.9c1.2-4.3,3.2-8.7,5.8-12.5c-0.4-0.4,0.1-0.9,0.4-1c-0.1-2.5,1.3-4.3,1.9-6.5
		c0.3-3.6,2-6.7,2.4-10.2c2.3-8.9,2.9-20.1,2.8-28.3c1.3-4.3,0.3-7.1,0.9-11.5c-0.4-2.3-0.4-4.2-0.8-6.6c-0.4-2.7,0.2-5.2,0.9-7.8
		c1-2.6,2.3-4.7,3.2-7.3c0-1.5,1.5-2.4,1.5-4c3.3-4.5,5.3-9.8,8.6-13.9c0.3-1.8,1.4-3.2,1.7-5c1.4-2.8,2.6-5.5,3-8.7
		c0.4-1-0.1-2.5,0.5-3.5c-0.2-4.3,0.3-9.4-0.5-13.6c-0.1-4.5-2.4-8-2.6-12.3c3-3.3,3.9-7.6,5.4-11.7c0.1-3.6,1.4-6.9,0.9-10.4
		c1.2-2.2,3-2.8,3.8-5.3c1.4-5.8,2.8-12.9,1.2-19.2c0.2-2.4-1.5-4.2-1.2-6.5c2.2,0.1,4.3,0.9,6.7,1.2c5.8-0.2,11.8,1.5,17.5-0.6
		c2.6-2,5.4,0.9,8.5,0.6c3.1-0.9,5.4,1.5,8.8,0.6c1.8-0.5,1.7-2.5,2.1-4.2c-4.5-2.4-4.9-6.9-7.6-10.6c-3-5.8,1.7-11.8,2.4-17.9
		c0-0.8,1-1.1,0.7-2c2.6-4.3,3.8-9.4,5.7-13.8c0.2-1,1.3-1.9,1.2-2.9c1.9-2.9,3.1-6.2,4.3-9.6c1.4-3.2,1.9-7.3,2.9-10.7
		c1.6-5.4,1.4-10.2,1-16.1c-0.1-5-1.7-9.6-3.4-13.8c-0.7-0.6-1-1.8-1.2-2.6c0.6,0.8,2.1-0.8,3.2,0c8.2-0.2,13.9-6.5,18.5-12.8
		c-0.2-0.6,0.4-0.9,0.8-1.3c0.3-2,1.9-3.8,2.4-6c-1.2-3.9,3.4-5.1,5.3-7.4c2.9-6.6,5.4-13.7,4.4-21.7c0.5-1.7,2.4-1.8,3.7-3.2
		c0.5-0.3,1.5-0.6,2.2-0.1c0.7-0.4,1.8,0.5,2.8,0.9c4.3,3.9,8.1,11,15.2,8.4c4.5,0.3,8.8-3,11.6-6.4c0.1-1.8,2.4-2.3,2.4-4.1
		c0.2-1.2,0.3-2.7,1.5-3.4c1.2,1.1,2.6,2.8,3.6,4.2c5,3.9,9.7,9.9,15.2,11.9c2.4,1.9,6.1,1,8.9,2.3c2.9-1,5.8-1,8.6-1.9
		c1.7,2.2,4.5,4,7.4,4.4c1.6,0.8,3.8,1.1,5.3,1.7c3,0.1,5.6-1.2,8.7-1.4c1.3-1.6,3.8-1.6,5.4-2.7c0.6-0.9,1.2-2.4,2.2-2.6
		c1.2,1.3,2.9,2.7,5.1,2.7c1.3,1.3,2.3-0.6,3.2-1C851.5,380.5,848.3,374.3,848.4,366.9L848.4,366.9z M692,205.9
		c6.8,2.7,21.5,0.3,34.2,6.9c11.5,5.9,23.1,8.6,33.8,16.5c6.1,4.5,12.6,9,18.8,13.5c4.7,5,11.7,11.3,17.2,15.2
		c5.6,5.1,8.5,12.1,13.8,16.9c1,3.3,4.3,5.4,4.6,8.9c1.6,0.9,0.9,2.8,2.4,3.8c1.7,2.9,2.9,6.1,2.9,9.6c-21.7-18.1-39-40.7-65.6-52.7
		c-44.7-27.2-137.8-13.1-160-46.3v-1.4c22.6,14.3,44,9.8,69.9,8.6c4.7,0.3,9,0.8,13.2,0C680.7,204,688.5,204.6,692,205.9L692,205.9z
		 M682.2,197.8c-12.9,1.7-88.1,7.3-86.7-14.1c17.2-4.6,34.8-8.3,52.8-6.4C654.3,175.9,679,192.7,682.2,197.8L682.2,197.8z
		 M650.7,168.7c-5.9,2.2-13.1,0.3-19.4,1c-8.9,0.9-17.8,3.6-26.6,4.1c-2.4,0.2-18,3.9-18.6,5c-0.4,0.8,2.3,7.3,2.5,9.2
		c-4.5,5.5-20.5,12.1-27.7,11.2c-8.7,0.8-16.6-4.4-25.2-4c-17.8,0.9-29.7,10.7-45.1,13.6c6.1-9.4,17.7-19.3,26.3-26.4
		c36.9-30.4,40.2-4.5,78.6-21.2C618.1,151.1,632.9,149.3,650.7,168.7L650.7,168.7z M723.1,301.3c-1.5,1.4-3.9,1.3-5.5,2.7
		c-2.2-6.3-6.5-5.7-10-9.8c5.1-0.3,19.6,1.6,22.8,5.7C727.8,299.8,725.7,301.4,723.1,301.3L723.1,301.3z M756.6,334.7
		c-20.5,0-28.1,18-44.9,24.1c-0.4-12.6-11.1-23,0.4-40.4c2.3-3.2,5.7-5.9,9.3-7.7C742,299.7,750.8,318.5,756.6,334.7L756.6,334.7z
		 M684.4,283.9c-0.1,0-1.3-0.4-1.3-0.1c-5.6-2.3-20-2.2-25.8-0.5c-33.4,9-62.8-12.6-83.8-36.1c-2.9-3.3-6.5-4.4-9.3-7.2
		c10.8-2.9,21.6-7.8,32.9-8.4c11.8-0.6,24.5,4,36.3,5.6c12.2,1.6,24,1,36.2,1.8c9.4,0.6,24.3,4,31.8,9.7c3.4,2.7,8.5,5.2,11.4,8.4
		c6.7,7.4,11.3,15.7,20,21.3C720.7,291.2,699.7,287.7,684.4,283.9L684.4,283.9z M589.4,273.7c3.9,3.4,8.6,5.5,12.9,8.5
		c10.9,5.8,44.2,14.9,55.1,8.3c0,0.4,0.6-0.2,0.8-0.4c18.1-5.4,43.2,2,52.1,19.2c-8.6,8.3-16.5,45.5-4.1,51.9
		c-19.7,15-25.6-23.7-51.8-20.3c-3.3-4.2-18-15.9-23.5-14.3c-2.8,0.9-4.8,4.8-7.5,6.1c-6.4,3.1-27,1.5-32.5-3.2
		c-2-1.7-1.1-6-1.4-8.5c-1-6.6-13.8-44.9-17-50.8c-5.1-9.3-11.7-15.3-17.5-23.9C566.3,248.7,580.2,265.4,589.4,273.7L589.4,273.7z
		 M597,356.7c-4.5-0.9-6.9-5.2-10.8-7c0.2-3.1,2.3-8.9,3.3-12c13,6.5,33.8,7.3,44.7-3.6c2.4,0.9,12.5,8.7,14.2,10.8
		c-0.1,1.9,2.1,2.9,2.6,4.7c1.4,1.1,1.6,3.1,3,4.2c1,2.9,1.5,6.1,1.5,9.3l-0.9,1c-4.4-4.8-7.1-9.9-12.5-14.3
		c-2.1-1.7-4.6-2.5-5.7-5.4l-3.4-1.2c-2.8,1.2-2.7,4.4-4.3,6.5C630.8,358.8,603.4,362.1,597,356.7L597,356.7z M597,596.4
		c1.1,0.1,2.5-0.2,3.3-1c5.3-5,7.6-11.6,12.5-16.4c1.7,1.4-0.6,2.4-0.9,3.9c-0.8,3.2-2.9,5.7-4,8.7c-1.8,3.8-4.8,7.1-5.8,11.5
		c-5.9,8-13,15.8-18.7,23.1c-2.4,2.9-5,5.9-7.2,9c-0.5,0.6-1.4,1.7-1.9,2.8c-1.5,1.7-3,3-4.3,4.8c-0.4,1.6,0.4,2.6,1.3,3.8
		c1.3,0.4,2.7,0.5,4.3,0.2c8.7-9.9,16.5-20.9,24.9-31.1c3.2-1.8,4.4-5.9,6.6-8.5c2.4-4.2,6.2-8.1,8.2-13c1,0.3,0.9,1.7,0.8,2.7
		c-0.6,2.7-2.3,3.9-3.2,6.2c-2.5,4.3-5.8,8.5-8.4,12.8c-4.1,6-9.3,10.2-12.6,16.5c-4.6,5.7-8.4,11.4-13.1,15.8
		c-3.7,3.9-7,8.8-10.9,12c-5.8,6.3-12.1,13.5-18.5,18.4c-2,2.3-4.8,3.8-6.8,5.8c-3.3,4.4-8.5,6.6-12.3,10.7c-2.7,1-4.8-1.3-7.4-1.9
		c-1.5-1.3-4.4-1.4-4.5-4c4.7-3.7,10-7.8,14.4-11.7c3.9-4.4,9.4-9.2,13.2-14.2c0.1-1.4,1.8-2.7,1-4.3c-0.9-1.1-1.9-2.2-3.2-1.2
		c-5.4,4.7-11.2,11.7-16.7,16.5c-1.9,1.2-3.4,3-5.3,3.9c-0.1,1.1-1.6,1.3-2.3,1.8c-2.5,2.5-5.5,4.5-8.3,6.6c-2.9,1-6.5-1-9-2
		c-2.3-0.6-5.7-1.2-6.9-3c6.7-4,11.4-9.4,17.3-13.9c7.3-5.1,12.3-13.6,19.4-18.8c12.5-12.8,22-25.1,32.5-38.9
		c7.5-11.2,14.3-21,20.8-32.7c0.5-1.4,1.1-3.1,2.4-4.4c0.6-1.8,1.6-3.4,2-5.6c1.4-2.4,1.8-5,3.6-7.3c0.8-1.2,1-2.9,2.7-3.3
		c1.4,1,1.6,2,3,3.3c3,3.8,6.9,6.9,9.3,11.1c-0.4,2.5-2.4,4.6-3.4,7c-3.2,5.2-6.5,10.7-9.4,16.4C595.7,595.2,596.2,596,597,596.4
		L597,596.4z M595.3,677.3c0.2,8-1.9,15.8-3.4,23.7c-0.8,0.7-1.5,1.9-1.3,3.3c-0.1,0.9-0.7,1.6-1.1,2.5c-1.3,3.7-3.8,7.1-7.6,8.2
		c-6.1,0.6-13.2,0.6-18.5-1.7c-2.7-0.7-4.8-2.3-7.1-2.7c-5.6-3.2-13.1-7.1-18.3-10.6c4-3.8,8-6.2,11.4-10
		c10.4-8,19.3-18.4,28.2-27.4c5.9-7.1,12.1-13.2,17.5-20.8c2.5-3.6,6.1-7.3,8.1-11c-0.2,2.4-1.8,3-1.9,5.4
		c-1.3,3.3-2.6,6.8-3.3,10.2c-0.6,4.7-1.7,10.1-1.7,15.1C595.1,666.5,596.2,672,595.3,677.3L595.3,677.3z M317.3,681.9
		c1.6,2.9,3.4,5.4,6.4,7.8c5.2,5.1,10.3,10.3,15.7,14.6c0,1.2-1.5,1.8-2.5,2.3c-2.8,0-5.1-2.3-7.4-3.5c-4-4.1-8.7-5.1-11.8-9.8
		c-2-2.3-4.1-4.2-6-5.9c0-1.1-0.4-0.5-1-1.4c-1.4-2.2-3.8-3.8-5.8-5.9c-1.9-1.9-3.7-4.7-5.8-6.7c0.1-1-1.1-1.3-1.2-2.2
		c-2.4-3.1-5-4.7-6.8-8.1c-2.5-2.4-4-5.7-6.2-8.3c-1.6-3.8-4.5-7.3-6.4-11c-0.4-1.4-1.3-2.4-1.5-3.8c-1.3-0.9-0.9-2.6-2.2-3.6
		c-0.6-3.5-3.5-6.3-4.4-10.2c-1.2-2.6-2.2-5.7-2.8-8.9c-0.9-3.2-2.5-7-3.2-9.6c0.9-2.1,2.4-3.8,3.4-5.5h1.1c1.5,6,4.8,11,6.2,16.7
		c3,6.3,5.7,12.8,8.7,18.9c1.7,0.5,2.4,3.8,4.6,2.8c1.4-0.4,2-1.8,2.5-3.2c-0.4-2.5-1.2-4.8-2.4-6.8c-0.4-2.9-2.3-5.4-3.4-8
		c0-1.5-1.7-1.8-1.5-3.3c-0.4-1.9-1.8-4-2.2-6.2c-1.4-3.3-2.9-7.6-4.4-11c-0.3-2.8-1.4-5.3-1.7-8.1c4-3.3,8.1-7.4,11.8-10.6
		c1.2,1.6,0.8,4,2.4,5.5c2.6,12.1,9.4,22.2,14.3,33.1c8.9,13.7,18.4,28,30.7,39.9c6.8,7.8,14.1,15.2,22.4,21.4
		c3.1,2.5,6.9,4.8,9.8,7.2c0.1,0.4,0,1-0.4,1c-3.7,1.8-7.5,4.1-11.3,5.9c-0.4,0-1,0.1-0.9,0.5c-1.1-0.5-1,1.5-2,1
		c-1.3,1-3.1,0-4.6-0.6c-4.8-3-7.9-6.4-12.6-10.4c-1.6-1.8-3.2-3-5.4-4.2c-1.5-1.6-3.6-2.7-5-3.9c-1.9-0.6-3.8-1.3-5.8-1.2
		C317.6,679.6,317,680.6,317.3,681.9L317.3,681.9z M275.3,670.1c-0.1-5-1.1-9-0.5-14.2l0.5-0.7c5.6,7.5,10.7,15.6,17.5,23
		c3.1,3.9,6.5,8.3,10.7,11.5c5.8,6.8,12.5,13.9,20.6,18.8c1.3,1.4,3,2.2,4.2,3.1c-1.9,2.7-5.2,3.7-8,4.7c-1,1.3-2.8,1.6-4.2,2.3
		c-6.2,2.3-11,5.8-17.3,7.4l-1.6,1.2c-4.7,1.9-11,2.2-15.4-0.4c-1.3-0.4-1.2-1.6-2.4-1.7c-0.8-0.6-1.5-1.4-2.4-2
		c-3.7-7.6-2.8-16.3-2.7-25.4C275.2,689.1,273.9,678.7,275.3,670.1L275.3,670.1z M249.6,605.6c0.8-2.7,1.7-5.2,2-7.9
		c2-4,2.7-7,5.6-10.7c0.3-0.8,0.8-1.3,1.3-1.7c6.9-9.6,14.9-17.5,25.3-24l1,0.5v6.7c-0.2,1.1-0.5,2.4-1.1,3.4v0.8
		c-0.5,0.4-1.1,1.1-1,1.9c-6.9,9-18,14.6-24,24.8c-2,2-3.4,5.1-4.1,8c-1.3,1.1-0.3,3.3-1.6,4.2c-0.1,1-0.3,1.7-0.3,3
		c-0.9,0.3-0.4,0.9-1.1,1.3C248,614.6,250.3,609.3,249.6,605.6L249.6,605.6z M362.4,676.8c-9.8-7.6-18-17-26.6-25.7
		c-8.9-11.5-17.8-21.6-24.7-34c-4-8.8-8.1-15.3-11.3-24.1c-0.9-3.3-2-6.7-3.4-9.9c-1.8-5.4-4.3-11.2-2.4-17.3c0.1-2.6,0-5.1-0.4-7.4
		c0.8-1.6-1.2-2.4-0.8-4.4l0.8,0.7l0.1-0.1c0.4,0.4,0.1,1.4,0.5,2.3c0.5,0.4,1.2,1.4,1.2,2.5c2.6,8,8.2,14.7,11.4,22.5
		c3.3,6.8,7.4,12.8,11.8,18.8c1.5,1.7,2.7,3.9,4.4,5.4c2.5,0.3,3,3.2,4.8,4.5c9.9,10.9,21.6,17.6,32.8,26.5
		c4.2,4.5,9.7,7.6,13.1,12.4c5.3,4.3,9,9.6,14.7,13.5c10.6,11.2,27.3,8,41.9,9c12.3-0.5,24-2.8,34.6-7.5c4.7-0.2,8.1-3,12.2-4.8
		c4-3.2,7.4-6.7,10.2-11l1.2-0.4c5.1-4.2,9.7-9.7,14.2-14.1c5.9-5.1,11.7-10.1,17.4-15.5c5.2-2.8,8.8-7.9,12.8-11.8
		c7-5.7,12.1-14.2,17.9-21.2c2.5-4,5.7-8,7.8-12.4c2-2.9,2.7-7,5.6-8.5c1.4,0.9,0.5,2.8,1.9,3.9c1,1.2,1,3.3,2.6,4.2
		c0.8,1.9,1.1,4.1,2.4,5.7c0.3,2.7,3.7,5.6,0.3,7.6c-5.3,9.3-12.2,17.3-18.1,26.2c-4,5.1-8.2,9.5-12.4,14.6
		c-6.7,8.1-13.5,15.3-21.5,22.6c-6.5,8.7-15.4,14.8-23.6,22.1c-2.6,1.8-4.3,3.8-7.5,5.1c-2.6,1.4-4.8,4-8.2,4.4
		c-11,0.9-22.4,3.6-32.2,9.4c-3.3-0.7-5.8-2-9-2.9c-5.6-1.2-11.4-1.3-16,1.4c-2.4,0-3.9-2.4-5.9-3.1c-6.5-2.5-13.7-3.9-20.4-2.5
		c-4.8,0.5-10.1,1.4-14.7,3c-2.9,1.4-5.2-1.6-8-1.7C369.7,682.1,366.5,679.2,362.4,676.8L362.4,676.8z M587.7,555.6
		c-0.6-0.4-0.1,0.2-0.5,0.5c-0.9,1.5-1.8,3-2.2,5c-1.3,2.6-2.4,5.1-3.7,7.4c-0.3,1.6-2,2.6-2.8,4.2c-1.8-1.6-3.7-3.2-4-5.5
		c-1.2-2.6-2-5.4-2.4-8.3c-1.8-3.1,0.7-6.7-0.9-10c1.4-3.7,2.6-7.4,4.5-11.1c0.8-1.9,1.2-4.3,2.7-5.7l0.1,0.6
		c0.8,0.2,0.8,1.3,1.4,1.9c2.2,5.4,6.1,10.1,9.4,15C589.5,551.9,588,553.5,587.7,555.6L587.7,555.6z M581,473.8
		c-0.3,7-2.1,15.1-3,22.5c-1,4.5-1.8,8.7-3.2,13.2c-0.9,6.2-3.4,12-4.5,18.2l-2.5,9.6c-0.9,1.8-1.8,3.9-2.4,5.9
		c-1.4,2.7-2.9,6.2-4.5,8.8c-0.3,1.2-1.1,2.2-1.6,3.1c-2.5,4.5-6.7,8.6-7.9,13.8c-0.4,0.9-1.2,1.5-1.3,2.4c-1,0.6-1.3,1.6-2.1,2.6
		c-0.2,1-1.3,2.2-1.8,2.9c-7.1,9.3-12.8,18.6-22.1,26.1c-2.1,2.6-4.7,5-6.8,7.1c-1.3,0.9-2.3,1.6-3.2,1.9c-5.7,5.9-12,10.2-18.1,16
		c-8.1,6.5-16,15-24.1,21.9c-5.5,4.7-12.1,8.2-19.6,9.5c-15.4,4.7-31.7,3.8-47.4,2.9c-7.3-1-12.2-6.1-17.1-10.9
		c-3-3.6-7.6-7.2-10.7-11.4c-4.3-4.5-10.9-8.8-15.2-13.2c-1.8-1.1-3.6-2.2-5.3-3.4c-2-2.3-4.5-3.4-6.9-5.4
		c-8.6-6.2-15.7-13.1-22.8-21.2c-2.6-0.9-3-3.5-4.8-5.2c-0.8-2.2-2.8-3.3-3.3-5.9c-1-1.9-2.7-4.2-3.7-6.5c-0.1-1.1-1-1.5-1.4-2.6
		c-2.6-5-5.3-10.8-8.2-15.9c-2-3.5-2.5-7.6-4.4-11.3c-1.2-3.3-3-6.5-4-9.8c-1.5-3.2-2.9-6.6-4-9.9c-3.9-14-8.6-28.4-10-43.5
		c-0.8-0.6,0.1-2.2-0.9-3c-0.9-7.2-1.7-12.8-1.9-19.7c-1.1-7.3-0.8-17.3-0.3-24.5c5.6-2,11.3-4.6,15.4-9.7c2.4-1.5,3.9-4,6.5-5.7
		c1.6-0.5,3.3-0.8,5.1-1c-0.4,2.3-2.4,4.2-3.4,6.2c-2.6,5-7.1,9.3-7,15.5c1.3,1.8,2.6,3.2,4.8,3.4c2.8,0.4,5.1,0.8,8,0.3
		c-1.1,0.6-0.4,1.6-0.4,2.5c1.4,1.4,3.3,0.5,5.1,0.5c-0.2,0.8-0.3,1.9,0,2.7c9.4,11.1,22.2,16.6,37.4,16.6c0.8,1.1,2.3,0.1,3.3,0.1
		c0.8-0.4,1.4-0.2,2.3-0.2c11.9-2.4,23.7-7,35.4-10.7c2.5-1.8,6.7-3.1,5.8-6.9c-4.6-6.9-12.3-10.1-18.5-14.4c-4.3-1.4-9-3.4-13.5-4
		c-8.1-1.3-18.3-0.8-26.8,1.6c-8.5,3.1-16.3,7.4-24.2,10.3c-0.6,0.1-1.5,0.5-2,0.4c-0.3-0.6,0.9-1.1,1.4-1.4c6-4.1,5.8-4,11.6-8.1
		c0.5-0.3,8.4-5.3,9.3-5.5c7.2-3.6,11.4-5.5,21.9-4.5c3.2,1.3,6.6,1.8,9.5,3.3c0.6,0.1,1.6-0.1,2.2-0.9c0.2-3.3-1.1-4.5-3.8-6.8
		c-5.1-1.3-8.7-2.8-15.8-2.4c-4.7,1-9.5,1.4-13.9,3.8c-2.7,0.9-5,2.2-7,3.7c-4.3,2.2-5.1,4.1-9.3,6c-1.7,1.7-6.1,4.4-7.9,6
		c-2.3,0.8-5.6,2.3-7.6,1.9c-0.1-2,1.9-3,2.4-5.2c0.5-0.6,1.5-1,1.1-2.3c1.7-2,3.8-4.5,5.1-6.9c4.1-3.6,6.7-6.7,12.4-9.6
		c8.6-3.7,18-3.3,24.8-3.6c15.3,1.4,24.3,3.6,34.3,3.1c6.9-1.3,14.2-1.7,19.7-6.3c1-1,0.9-2.5,1.4-3.7c-1.3-1.6-2.7-1.6-4.2-0.8
		c-9.2,4.5-12.4,3.4-20.2,4c-7.8,0.3-13.5-0.5-19.2-0.8c-8-1-14.1-3.4-22.1-2c-2.5-0.4-8.2,2.6-10.3,1.9c0.1-8.4,7.2-15.6,12-22.9
		c4.8-3.6,10-7.3,15.8-9.6c3.6-2.8,8.4-4.5,10.7-8.7c3.4-2.6,5.7-6.6,8.3-10c0.9-1.9,0.9-3.8,0.9-6.1l0.3-1
		c6-3.7,11.5-7.6,17.3-11.6c0.4-0.5,1.7-1.4,1.8-2.2c2.8-2.3,6.2-5,8.2-8c1.7-1.9,2.6,0.5,4.2,1.1c0.9,2.2,3.3,2.4,5.2,3.2
		c3.2,1.3,6.8,1.7,10.1,2.7c10.3,0.5,21.9,1.7,32.3,2.2h0.9c6.7,0.9,14.1,1,20.9,2.4c10.2,1.9,20.5,2.7,30.7,5.9
		c8.2,2.2,16.3,4.7,24.2,7.9c3.4,1.7,7.8,3.7,10.6,6.3c6.4,4,12.3,8.8,17.9,14.4c1.2,1.7,2.5,3.2,3.7,5.1c2.8,2.9,4.5,6,6.6,9
		c1.3,2.5,3.6,4.7,3.9,7.6c1.6,1.2,0.2,3.6,1.8,4.8c-0.2,1.5,1.5,1.7,2.4,2.5l2.3,0.3c0.3,8.1,1.6,17.1,1.4,25.7
		c1.2,13.2-0.9,25.9-1.4,39.3C581,471.3,581,473.1,581,473.8L581,473.8z M277.9,417.6c1.8-6.6,14.4-32.5,21.4-33.3
		c1.5-0.2,0.8,2.3,0.5,2.9c-1.2,3.8-2.2,7.5-2.8,11.4c-0.9,5-0.9,9.8-0.1,14.7c0.9,5.6-8.1,10.1-8.5,12.6c-1.8,1.2-8,5.7-8.4,1.6
		l-0.5-1.5C280.5,422.7,276.7,421.5,277.9,417.6L277.9,417.6z M269.6,466.9c-0.4-0.1,0.2-1.5-0.4-1.9c-1.2-3.7-2.6-7.1-4.1-10.3
		c-1.2,0.1-0.6-1.5-1.6-1.9c-0.1-1.8,1.3-2.7,1.9-4.2c0.6,0.1,0.8-0.5,1.3-0.6l1-0.3c0,0.4-0.1,1,0.1,1.3c0.3-0.2,0.3-0.4,0.6-0.9
		c-0.8,0-0.3-0.4-0.3-0.8c0-0.1-0.1-0.1,0-0.2c0,0,0,0.1,0,0.2c0.2,0.1,0.8,0.2,0.9,0.2c0.1,0.5,0.6,0.2,1.1,0.5
		c1.4,0.9,0.3,3.3,1.2,4.8c-0.3,6,0.2,10.6,0.8,16.3c0.8,1.2,0.2,3.8,0.5,5.5c0,1-1.1,0.6-1.5,0.5
		C269.2,472.8,270.9,469.1,269.6,466.9L269.6,466.9z M267.7,427.1c-3.2,1.5-4.5,5.8-8.5,5.8c-31.1,0.2-13-30.5,1.8-29.4
		c3.8,0.3,8.3,1.7,12,1l0.6,1.2C270.7,410.7,269.4,425,267.7,427.1L267.7,427.1z M273.6,356.8c-4,5.7-7.2,11.3-10.7,17.3
		c0-0.2-0.9,0-1,0c0.1-2-0.6-5,0.8-6.8c4.5-35.7,56.6-34.9,82.9-36.1c7.4-0.3,15.9-2.6,23-1.5c9.9,1.3,17.9-3.7,27-5.6
		c-0.4,2.7-3,4.4-4.5,6.5l-1.2,1c-1.6,1-6.1,4.1-6.9,5.2C350.2,370.8,297.5,322.2,273.6,356.8L273.6,356.8z M365.5,357.4
		c-6.4,10.2-15.9,13.1-25.2,19.5c-10.1-2.8-20.9,37.5-34.3,36.6l-1.2-1.2c-2.4-20.6,9.2-50.9,32.4-54.6c9.5-1.5,17.8,1.8,27.8-1.8
		L365.5,357.4L365.5,357.4z M277.9,334.4c-20.5,13.9-59.4,32.8-80.8,9.8c16.1-2,22.3-1.4,36.6-10.8c19.1-12.6,48.8-40.7,74.3-28.3
		l0.8,0.5c8.3,0.8,24.7,11.5,32.7,15.9C327.8,328.6,300,319.3,277.9,334.4L277.9,334.4z M267.6,395.3c-2.7-1.8,0.4-10.5,1.4-13.1
		c10.1-26.9,18.3-28.5,44.8-29.5v0.3c2.8-0.1,5.5,0.8,8.1,1.3c-0.9,1.4-2.9,2.3-4.4,3c-3.9,2-5.4,6.1-8.9,8.4
		c-12.5,7.9-19.2,17.9-29.2,28C275.3,392.2,271.2,397.8,267.6,395.3L267.6,395.3z M318.3,450.9c1.5-0.3,3.4-1.8,4.4-0.4v3.9
		c-0.4-0.1-1.1-0.1-1.3-0.6C320.3,453.1,319,452,318.3,450.9L318.3,450.9z M374.1,452.1c0.2,2,0.1,3.8-0.8,5.3
		c-0.5,0.8-0.8,1.2-0.9,1.4c-1.5,1.7-3,2.4-4.8,2.8c-1.9,0.5-4,1-5.6,1.4c-8,3-19.2,1-26.9-1.6c-1.1-0.5-2.2-1-3.2-1.5
		c-0.6-0.3-1.2-0.6-1.6-1.2c0.3-0.9,0.5-1.9,0.2-3c-0.4-1.5-0.6-3-1.1-4.5c0-0.6,0.1-1.2,0.3-1.8c0.2-0.6,0.5-1.3,0.8-1.8
		c6.9-3.9,14.4-7.3,22.8-7.8c3.9-0.2,7.8,0.2,11.5,1.1c3.3,0.8,6.7,1.8,9.9,2.8c-0.9,0.5-1.3,1.5-1.4,1.9
		C373.5,447.8,373.9,450,374.1,452.1L374.1,452.1z M380.1,448.9c0-0.9-0.3-2.2-0.9-3.2c3.8,2.2,7.2,4.7,10.6,7.9
		c-0.2,0.2-0.4,0.3-0.8,0.4c-0.3,0.2-0.6,0.3-1.1,0.5c-0.3,0.1-0.7,0.3-1.2,0.5c-1,0.4-1.9,0.8-2.9,1c-0.9,0.2-1.7,0.4-2.6,0.6
		c-0.3-1.2-0.2-2.4-0.2-3.4C381,451.9,380.9,450.3,380.1,448.9L380.1,448.9z M485.1,310.7c28,13.5,57.7,4.7,79.1,30.8
		c7.6,9.3,13.2,21.9,12.4,34.3l0.3,1.8l0.1,1.8l-1,1.2c-4.6-3.2-7.5-8.4-11.7-12.3c-28.2-25.9-58.6-31.5-95.9-36.3
		c-8-1-56.1-2.5-57.1-9.8c-0.1-0.5,12-23.3,13.3-27c0.9-2,2-3.9,2.4-6c0.8-2.6,2-4.8,2.3-7.5l1.6-3.9c10.6,5.2,22.1,28.6,47.6,25.6
		C478.9,307.2,483.3,307.9,485.1,310.7L485.1,310.7z M482.7,292.2c36.5,2.5,41.9-12.3,81.5,5.2c7.1,3.1,15.1,9.8,16.9,17.7
		c1.8,7.4,3.3,25.9-2.6,31.8c-2.7-5.6-9-11.7-13-16.7C548.4,307.9,486.3,317.7,482.7,292.2L482.7,292.2z M556.7,259.9
		c2.6,2.7,5.6,5.2,7.5,8.5c2.1,3.4,9.8,20.9,8.6,24.2c-18.2-7.4-33.1-15.5-53.6-11.4c-22.5,4.4-56.1,8.1-66.9-18.3
		c-2.6-6.4-7.4-29.1-7.8-29.8c0.2-4.1,0.1-8.3,0.9-12.4c2.6,3,4.2,6.9,7.9,8.8c4.4,4.6,10.3,8.3,16.4,9.9
		c26.5,7.5,59.7-11.4,81.2,12.9C553,254.7,554.6,257.5,556.7,259.9L556.7,259.9z M449,210.5c0.1-1.6-1.9-2.8-1.3-4.3
		c4.8-10.7,11-18.3,14-30.1c5.6-22.5,1.5-24.3,0-44.8c11.1-5.1,33.2,17.5,34.3,28.2c-1,6.5-1.8,12.9-2.1,19.4
		C493.4,198.3,469.1,232.3,449,210.5L449,210.5z M585.1,136.7c5.9,4.5,12.4,7.4,18.3,11.7l-1.1,0.9c-15.7,6.9-36.1,16.3-53.6,9.4
		c-15,2.9-24.4,5.9-35.3,17.3c-4,3-7,7.1-11.6,9c2.7-16.9,1.7-35.4,7.6-51.7C527.5,84.7,558.7,117,585.1,136.7L585.1,136.7z
		 M466.4,83.2c1.1-1.8,1.6-3.9,2.8-5.6c1.7,0.6,2.8,2.8,4,4.2c12.8,13.5,34.2,7.5,43.3,23.5c-0.1,0.1-0.8,1.2-0.4,1.3
		c-7.2,5.5-12.9,14.5-14.4,23.5l-3.8,9.7c-1.7,0.4-2.6-1.1-3.7-2.2c-6.5-6.6-21-14.5-30.4-15.4c-4.5-0.4-9.3,0.9-13.8-0.4
		C421,113.2,461.2,91.4,466.4,83.2L466.4,83.2z M435.7,96.8l0.3,0.8c-2.3,6.4-4.6,6.8-4.6,14.9c0,7.8,12.8,21.2,20.8,19
		c10.3,14-0.9,49.8-8.1,63.7c-5.2,6-17.2,3.1-21.6-2.4c-0.8-1.8-2.4-3.2-3.3-5.1c-3.4-8.2-9-12.7-17.5-15.1
		c-5.9-2.7-11.8,0.8-15.9-7c-3.1-5.5-5.2-12.1-9.3-17.2c-7.8-9.9-30.3-10.3-32-15.5C376.3,112.8,395.6,90.4,435.7,96.8L435.7,96.8z
		 M340.5,145.2c0.5-1.3,1.7-0.6,2.7-0.2c5.4,2.2,10.2,2.8,15.9,4.2c13.9,3.2,16.3,19.7,27,30.1c3.2,3.1,8.5,1.9,12.5,2.4l-0.9,2.2
		c-8.8,6.2-24.8,10.6-30.7-3c-4.1-9.2-22.2-5.1-25.8-23.3C340.7,154.5,339.3,148.3,340.5,145.2L340.5,145.2z M332,139.7l0.1,4.4
		c0,1-1,1.3-1.4,1.8c-0.9-0.4-2.3-1.2-3.4-1.7c-1.3-0.4-2.4-1.2-3.2-1.6C326.4,141.4,329.3,140.8,332,139.7L332,139.7z M262.3,164.4
		c3.6-1.7,3.3-7.3,1.2-9.9c0.3-4.2,0.1-7.5,0.9-11.7l0.1-0.9c2.9-9.5,7.9-12.5,15-18.2c2.5,2.4,3.1,5.9,5.8,8.2
		c9.2,7.6,19.3,9.9,28.4,16.1c2.4,1.9,15.3,7.3,18.4,8c1.1,5,1.6,10.5,4.8,14.6c8.2,9.7,11.5,10.2,21.9,15
		c7.1,13.2,24.2,19.2,37,10.3c1.7-1.2,9.9-7.9,10.6-8.1c2.6,2.8,8.3,3.4,8,8.2c5.7,10.8,14.5,13.9,26.2,12.6c0.3,1.2,0.1,2.8-0.4,4
		c-0.1,1.9-0.6,3.7-1.1,5.5c-3.7,17.1,3,48.3,15.3,61.4c7,7.4,12.8,8.8,22.3,11.7c-1,1.8,1.1,4.3-0.9,5.3
		c-23.6-3.3-35.6-23-38.2-23.7c-2.6-2.7-5.1-5.7-4.3-9.6c3.5-32.6-42.4-37.1-58.6-15.2c-2.3,3.1-15.9-2.2-19.9-3.6
		c-3.4-7.1-21-14.3-28.1-18.2c0.8-26.8-37.6-65.7-64.7-47.4c-1.1,2.5-5.2,5.9-6.8,9c0,0-12.7-6.8-16.4-7.4l-1-1.6
		C246.2,170.8,252,168.9,262.3,164.4L262.3,164.4z M339.7,254c8.2-1.5,17.2-0.2,24.9,3.1c3.7,1.5,5.8,8.7,10.3,4
		c1.6-1.7,2.9-3.8,4.3-5.7c6.9-9.3,28.7-16.9,38.1-8.3c1.3,1.2,5.1,4.7,4.4,6.8c-0.1,0.3-0.5,0.3-0.9,0.3l-0.3,0.5
		c-3.2-1-6.7,0.2-9.9,1.1c-36.7,10-19.6,53.5-81.7,29c-3.3-1.3-17.4-7.8-19.5-9.7C319.3,267.3,326.7,256.4,339.7,254L339.7,254z
		 M308.9,264.2c-9.8,5.8-38.9-10.6-51.3-12.7c4.1-6.7,18.8-15,26.7-14.1c10.7,1.2,30.5-6.4,38.4-2.7c6.4,2.8,12.5,5.8,18.3,9.7
		C316.2,251.5,322.9,255.9,308.9,264.2L308.9,264.2z M255.1,208.7l-2.2,0.5c-8.5-1.8-16.5-5.6-25.1-6.6c-21.3-2.4-46.2,0.3-66.1,8.3
		c-9.5,3.8-18.4,9.8-27.9,13.7C141.9,205.7,243.1,161.7,255.1,208.7L255.1,208.7z M225.5,210.7c6.4,0.5,27.7,8.2,29.6,8.1l0.3,1.9
		c-23.3,40-70.7,30.1-109.8,28c-8.9-0.4-17.7-0.1-26.6-0.1C150.1,220.7,182.8,207.1,225.5,210.7L225.5,210.7z M31.2,350.6
		c0-16.4,11.8-33.3,20.9-46c12.2-16.9,37.6-37.1,57-44.8c41.8-16.5,118.3,28.9,151.8-34.1c-0.2-5.8,3.9-11.8,2.6-18.5
		c-0.9-5.3-4-9.2-4.8-13.8c5.9-0.5,6.1-8.7,12.6-9.6c24.5-3.6,40.8,20.4,47.3,40.9c-9.4,0-18.3,4.1-27.5,4.3
		c-16.6,0.3-31.8,3.4-42.3,18.4c-1.4,0.6-8.8,9.6-9.2,11.1c-2.6,1.8,0.6,6.5,3.9,5.8c6.6-1.2,10.8-4.4,17.9-2.7
		c10.4,2.4,19.5,8.8,29.9,11.4c0,2.6,1.2,6.5,3.9,7.6c5.9,2.5,12.9,2.8,18.8,6.4c16.4,9.9,48.3,22.7,64.7,7.9
		c5.9-5.4,38.6-44.7,46.9-26.3l-1,3.6c-6.4,26.2-27.9,51.7-57.9,47.7c-37.8-4.8-53.4-40.7-100-19.9c-27.5,12.4-39.8,40.2-74.2,33.7
		c-5.7-1-12.5-3.1-16.7-7.3c8.4-22.9,16.7-41.2,39.9-52.5c5.3-2.5,14-7,20-6.1c1.4-0.9,1.4-3.1,1.1-4.5l-2.7-2.4
		c-11.2,0.9-15.4,5-24.7,7.2c-3.9,4.1-11.4,4.7-16.4,8.1c-1.3,1-10,5.1-11.4,5.1c-15.8,0-24.5-9.8-46-5.6c-6.4,1.3-15,2.6-20.6,5.9
		c-14.3,8.6-28.4,15.7-42.3,25.3C59.4,316,33.5,349.3,31.2,350.6L31.2,350.6z M74.8,381.5c-3.7,0.3-8.5,0.6-10.3-3
		c-3-4-3.3-9.7-3.8-14.6c2.8-1.5,3.8-4.6,6.4-6.5c1.6-1.4,2.7-3.3,3.9-5.2c2-1.3,1.8-3.6,3.9-4.5c-2.8,6.7-3,13.8-3,20.7
		C72,373.1,73.9,376.9,74.8,381.5L74.8,381.5z M82.6,370.8c-4.7-30.3,18.1-25.1,22.5-29.3c4,3.9,5.4,9,10.4,12.6
		c-13.9-7.8-28.2,12.9-18.1,15.7c5.4,1.5,7.1-9.4,13.3-5.9c8.3,4.6-4.7,20.1-15,19.2C90.1,382.5,83.5,376.6,82.6,370.8L82.6,370.8z
		 M101.3,330.6c-6.2,1.5-12.8,3-17.4,7.6c-0.9-0.4-0.9,1-1,0.5c2.5-4.1,6.2-7.6,9.5-11.1c2.9-1.7,5.3-5,8.1-7.1l0.1,0.1
		C100.5,324.1,100.5,327.3,101.3,330.6L101.3,330.6z M93,393.3c22.4,2.6,35-19.3,23.6-38c8.5,4.7,24.7,10.6,26.9,20.6
		C153,418,93.6,422.1,93,393.3L93,393.3z M149.2,449.6c-14.6,4.2-37.7-11.6-35-27.7c34.2,5.7,50.6-46.8,27.5-63.7
		c-8.3-6-19.7-8.1-26.2-16.6c-23.5-30.8,18.8-36.8,19.6-39.5c0.4-1.5-0.3-4.6-1.5-5.6c-8.4-7.1-45.6,22.4-52.8,28.5
		c-0.9,2.7-4,3.8-5,6.3c-13,11.3-23,35.9-43.8,36.7c15.5-33.4,82.5-91,121.2-84.3c10,1.7,21.9,6.8,31.8,6.6v1.1
		c-3.9,4.5-15.8,28.4-15.6,34.1c-7.7,6.2,10.1,13.7,13.8,15.1c1.4,3.6,4.8,5.4,7.1,8.2c-21.4,4.5-26.7-28-38.4-15.6
		c-4.7,5.1-2.8,8.7-4.3,14.8c-0.8,5.3,4.4,12.8,6.9,17c6.5,5.7,8.9,14.1,13.7,21c0.4,14.5,8.9,14,0.2,38.2c-0.8,2.2-2.4,4.2-2.4,6.6
		C161.6,436.8,156.9,447.4,149.2,449.6L149.2,449.6z M184.5,489.3c-8-7.7-25.7-24.1-22.2-37.5c1.1-3.7,8.9-11.4,11.2-18.1
		c5.4-15.6,9.4-27.2,4.2-43.8c-5.1-15.9-16.6-26.6-21.7-41.6c1.2-2.7,0.3-5.9,2.3-8.3l1-1.2c4.7,4.8,5.8,10.7,12.3,14.6
		c7.1,4.4,20.1,7.8,27.2,1.7c15.2,8.9,43,11,58.3,1.5h0.6c-2.8,15.5-5,21-0.2,36.9c-22.8,6.2-31.9,41.7-11.4,48
		c1.8,3.3,6.2,2.4,9.3,3.4c0.2,1.9-3,6.1-4,7.8c-6,10.2-5.5,32.1-22.8,32.5c-13.2,0.3-10.3-34-28.1-27.6c-20,7.2-3.8,31.5,13.3,32.9
		c1.8,0.2,3.4-0.4,5.3-0.2c0.4,9.5-9.9,17.5-18.6,12.2C189.7,503.2,190,494.7,184.5,489.3L184.5,489.3z M210.7,480.9
		c-0.4,0.6-1.5,0.4-2,0.2c-4.2-2.4-6.6-6.7-8.4-11.2c0.5-2.4,2.2-3.3,4.1-4.7c3.8,0.8,2.9,5.6,4.3,8.4
		C209.1,476.1,209.7,478.5,210.7,480.9L210.7,480.9z M204.9,531.1c-0.4,1.1-1,2-1.4,2.8c-0.4,0.9-0.6,1.6-1.4,1.8
		c-0.1-0.3-1.6-1.4-1.6-2.7c-2-5.4-1.4-12.9,1.5-18.6c0.1-1.2,0.6-2.2,1.4-2.9c4.7-0.6,10.6,0.8,15.2-1.3c3.6-2,5.8-5.1,7.6-8.9
		c0.1-1.1,0.9-1.5,1.2-2.5c0.8-0.1,0.9-1.1,1.2-1.8c0.1-1.4-0.5-3.3,0.6-4c5.6-0.8,11.6-1.3,15.5-5.4c6.2-5.5,10-13.6,12.5-21.2
		c0.9-0.8,1-2.2,1.4-3.3c0.3-0.6,0.9,0.5,0.9-0.3c0.2,1.9,1.4,2.9,1.6,4.8c0.4,6-0.3,10.4-2.7,15.1c-3,5-9.2,8.7-12.6,13.8
		c-2.5,2.8-6.1,4.2-8.9,6.1c-5.9,4.7-12,9.4-18.2,13.8C214,521.1,208.9,525.9,204.9,531.1L204.9,531.1z M221.4,544.6
		c-1.3,2.4-1.4,5.4-2.8,7.5c-0.2,1-0.4,2.3-1,2.8c-1.4,0.4-3-0.4-4.1-1.1c-0.6-1.3-1.3-1.4-1.5-3.1c-1.7-3.1-2.4-6.5-1.9-10.1
		c2.8-8.2,9.7-12.7,15.4-18.6c6-4.5,12.4-9.3,18.1-14c2.6-0.8,3.8-2.9,6.1-4.1c5.1-4.6,8.7-8.5,13.5-13.7c1.9-2.2,3.4-5.1,4.6-7.4
		c3.6-0.2,4.5,2.9,6,5.1c2.1,5.2,2.7,11.3-0.2,16.1c-0.4,0.6-1.4,0.9-1.3,1.6c-4.8,5.9-12.8,7.6-19.6,11.4c-5.8,2.4-12.1,5-16,9.5
		C230.6,532,223.3,536.2,221.4,544.6L221.4,544.6z M227.7,576.3c-0.4-1.4-0.6-2.9-1.5-4c-0.3-4.2-1.7-8.2-0.8-12.2
		c0.3-3.3,2.2-5.9,2.4-9.1c0.3-0.3,0.8-0.3,0.8-0.8c0.9-1.2,1-3,1.8-4.3c6-8.3,14.5-16.6,24.3-20.7c5.8-2.2,10.4-5.3,16.1-7.5
		c0.6-1.5,2.7-1.3,3.3-2.5c1.8-1.3,2.5-3.2,4.3-4.2c0.8,0.6,1.1,2,1.8,3.2c0.9,5.5,2.8,10.7,4.4,15.9c0.8,3.6,2.8,7.1,1.3,11
		c-0.3,3.2-0.8,6.7-2.9,8.9c-1.8,3.1-4.2,4.7-7.5,6.2c0.1,1-1.4,0.9-1.8,1.6c-12,8.1-22.2,19.1-29.2,32.3v1
		c-0.3,0.5-0.9,1.4-1.2,2.1c-1.1,2.8-1.9,5.5-2.4,8.4c-0.4,0.1-0.4,0.6-0.9,0.6c0.2,0.4-0.6,0.1-0.1,0.7c-1.6-1.4-1.5-3.5-2.3-5.9
		c-1.2-3.5,0.4-9.7-4.5-11.4C230.6,583.2,228.8,580,227.7,576.3L227.7,576.3z M396.3,702.6c-5,0.4-9.5,3.1-13.9,5
		c-3.7,2.4-8.4,3.4-12.2,5.9c-5.7,1.9-10.7,5.7-15.3,8.8c-4.2,1.7-7.8,4.5-12.3,5.8c0.2,0.4-0.5,0.4-0.9,0.4
		c-4.1,1.8-7.3,4.2-11.5,5.6c-1.4,1.1-3,1.9-4.7,2.4c-1.5,0.2-2.9,1-4.5,1.3c-1.2,0.6-3-0.1-4.1,0.8c-4.3,0.3-8.2,2-12.3,3
		c-1.1,0.4-2.6,1.6-1.9,3c0.1,0.3,0.5,0.5,0.9,0.3c2.5,2.1,5.9,2.6,9.4,2.1c5.9-1,12.9-1.8,17.8-4.5c7.8-4.2,15.7-7.6,23.7-11.4
		c1.4-0.2,2.8-1.9,4.3-1.9c1-1,2.5-1.4,3.7-2.7c7.9-5.7,18.1-9,26.7-13.9c2-0.1,3.7-1.8,5.8-1.5c0.3,0.6-1,1.1-0.4,2
		c-1,1.8-1.9,4-1.1,5.5v2.9c-4.6,1.3-9,3.7-13.7,4.4c-4.5,1.8-9,4.2-13.3,6.5c-0.4,1.1-2.5,1.1-3,2.1c-7,3.2-12.2,7.6-18.8,11
		c-0.4,1.3-1.9,0.9-2.5,1.6c-2.5,1.3-5.5,3.4-8,4c-3.9,2.4-7.3,3.2-11.7,4.7c-10.4,2.9-21.5,3-32.6,0.9c-4.4-0.4-8.9-3.3-13.5-5.1
		c-5.4-4.4-12.8-6.9-15.8-13.8c-1.8-1.6-3.1-4.2-5.3-5.4c-0.1-1.2-1.2-1.5-1.3-2.4c-3.9-3.9-4-10.4-5.6-15.6
		c0.2-6.5-2.6-13.4-0.6-19.6c0.3-3.7,0.5-8.1,1.6-11.7c1.2-5.2,1.8-10.6,2.7-15.6c0.8-0.2,0.1-1.4,0.5-1.9c0-2.4,1.2-4.3,1-6.7
		c0.8-1.1,0.8-2.3,0.9-3.7c0.3-0.1,0.8-0.2,0.8-0.5c1.3,1.1,3.1,3.4,5.4,2.9c1.4-0.5,2.5-2.4,2.5-4c-0.1-0.3-0.6-0.9,0-1
		c-0.5-0.7-0.1-2.4-1-2.6c-1.1-8.2-10.5-13.1-17.8-17.3c-7.9-3.7-14.1-10.4-13.8-20.2c0-1.5,0.1-3.4,0.5-5.2
		c0.1,0.4,0.9-0.1,0.9,0.7c0.8,3,3.4,7.2,6.5,10.1c2.4,1.5,3.6,3.9,6.4,4.6c4.8,4.1,11.6,5.4,14.9,11.4c2.6,3.3,4.3,6.8,5.8,10.7
		c1.2,5,1.3,9.4,1.8,14.1c0.3,4.7,1.1,10.1,0,15.3c0,1.2,0.1,2.3-0.1,3.5c-1.6,0.6,0.2,2.2,0.1,3.3c-0.3,2.7-0.1,6-0.6,8.7
		c1.1,9.1-2.4,19.1,1.2,27.6c-0.2,2.3,1.8,3.4,1.3,6c1.4,2.5,1.9,5.4,4.6,7.1c0.5,1,0.5,2.5,2,2.2c1.3,0.9,1.6,2.4,3.3,2.4
		c3.8,0.4,7.5,1.9,11.4,1.8c13.9-2.5,25.9-10.4,38.8-15.7c9.3-5.7,18.5-11.5,28.3-15.8c7.6-5.1,16.5-7.4,24.9-11.3
		c4.4-1.7,9-2.2,13.6-3.7c4.7,0.3,10.4-1.4,15,1.2c2.8,0.5,5.2,2,8.1,3c-0.2,3.2,0.6,7,1,9.8C411.5,705.7,404.7,700.7,396.3,702.6
		L396.3,702.6z M412,734.3c-2-1.1-4.1-2.8-5.3-4.8c-3-3.2-4.8-7.3-5.2-11.7c6-4.7,14.6-4.1,22.3-3.2c1.7,2.3,1.9,5.3,4.2,7.1
		c0.3,0.9,1.3,1.7,1.8,2.5c2.4,3.4,5.4,6.1,8.5,9.1C430.8,737.8,419.7,737.6,412,734.3L412,734.3z M478.6,726.1
		c-1.1,1.2-1.6,2.6-2,4.1c-2.4,2.7-5.6,4.5-9.4,4.3c-11.6-0.3-21.9-5.5-29.5-13.9c-4.2-3.9-6.8-8.2-8.5-13.8
		c-1.1-3.2-3.4-7.3-1.2-10.4c4.4-1.1,8.9-1,12.9,1.1c1.1-0.3,1,0.9,2,0.6c7.5,3.3,11.8,13,19.5,16.7c0.6,0.9,1.4,1.4,2.4,1.9
		c4.6,2.4,9.5,4.8,14.4,6.7C479.7,724,478.5,725.1,478.6,726.1L478.6,726.1z M628.8,631.7c-3.8,4.8-5.1,10.1-7.3,15.6
		c-0.4,4.3-2.9,8.3-1.2,12.9c1,10.6-0.8,19.9-0.9,30.9c-0.9,7.6-3,14.6-4.6,21.7c-2.4,5.4-3.6,11.2-7.5,15.8
		c-1.7,6.1-6.4,10.4-11.2,14.6c-2.9,2.4-6.5,3.8-9.3,6c-7.9,3.7-17.7,5.9-27.1,4.4c-8.1,0.4-15.7-2.4-24.2-3.3
		c-6.3-2.5-13.3-5.2-19.4-8.1c-4-2.8-8.8-5.6-11.8-9c-5.8-4.5-10.4-11.3-17.7-14.1c-5.6-4.3-10.2-8-16.7-10.1c-1-0.5-1.5-1.5-2-1.7
		c0.2-0.7,1.7-0.1,2.9-0.1c1.8-1.1,3.9,1,6.1,0.5c0.5,1,1.1,0.3,1.7,0.8c4.7,1.4,8.7,3.1,13,5.5c1,0.4,1.8,2.3,3.2,2.4
		c1.9,2.8,5.1,4.6,8.3,6.4c3.3,2.9,6.7,5,10.3,7.2c3.4,2.9,8.1,5.3,11.6,7.8c2.7,0.5,4.4,2.7,7.3,3.1c11.2,4.5,23.5,8.3,36.5,7.4
		c3.6,0.3,7.4,0.4,10.8-1.3c2.7-3,7.4-4.1,7.4-8.5c-2.9-2.4-5.6,1.5-8.8,0.5c-9.1,1.6-18.2,0.6-26.7-1.4c-3.6-0.1-6.8-1.8-10.3-2.7
		c-3-1.5-6.7-2.4-10-4.3c-5.7-3-11.1-6.2-16.4-10.2c-3.9-2.8-8-5.1-11.4-8.1c-3.2-2.6-6.6-5.6-10.2-7c-6.9-3.8-14.9-6.6-23-6.2
		c-4.1,0-8-0.3-11.3,1.5c-1.5-0.7-3.1-1.9-3.9-3.2c0,0.1-0.3-0.5,0-0.9c3.5-1.4,7.1-3,11-3.4c3.2-1.9,7.5-1.8,11-2.8
		c8.9-1.1,16.7,1.8,24.9,3.9c9.2,3.6,18.3,7.8,26.9,11.8c13.9,6,25.6,15.9,41.2,18.5c-0.1,0.4,0.2,0.6,0.4,0.7c1.2,0,2.2,0,3.1,0.1
		c1.7,0.1,3,1.1,4.5,0c1.4,0.4,3.3-0.5,4.7-1c2.9-0.6,6.7-0.6,8.3-3.8c1.6-4.4,4.7-8.1,6.8-12.3c1.2-1.7,0.3-4.7,2.4-6.3
		c3.1-10.4,3.3-22.3,4.3-33.6c-0.8-1.9-0.3-4.4,0-6.8c0.5-2.5,0.2-4.8,0.2-7.4c0.9-1.9,1.2-4,1.7-5.9c1-7.1,4.7-13.1,7.8-19.4
		c2.3-5.2,3.4-10.8,5.2-16c0.1-1.2,0.1-2,1.5-2.8c1.7-2.5,3.7-5.8,6.5-6.9c3.9-3.7,7.2-6.5,10.9-9.9c0.3,1,0.8,2.4,0.8,3.3
		C641.4,610,635.4,621.3,628.8,631.7L628.8,631.7z M638,578.1c-2.2,2.8-4,6.5-6.1,9.1c-2.4,1.8-4.8,3.8-7.1,5.8
		c-0.5-0.9,0.2-1.7-0.2-3.1c-0.4-3.4-1.7-6.8-2.5-10.3c-2.6-9-9.8-15.9-15.6-22.8c-7.9-8.3-15.7-17-20.3-27.6
		c-2.3-4-3.2-8.6-3.9-13.7c2.2-9.6,4.4-19.2,5.8-29.2c0.5-4.2,1.8-8.5,1.5-12.7c-0.1-0.2,0.8-0.5,0-0.6c0.4,0,0.8-0.4,0.4-0.9
		l0.3,0.4v1c0.2,3.2,1.2,5.7,1.6,8.5c1.2,3,0.3,5.3,2.3,8.1c0.1,2.5,1.4,4.5,2,6.9c1.9,5.5,6.6,10.4,10.7,14.9
		c2.7,2.9,5.4,6,8.6,8.2c5.5,6.4,12.4,12.5,18,19.5c3.8,4.2,6.5,9,8.4,14.3C645.5,561.8,644,572.3,638,578.1L638,578.1z M638,463.8
		c-0.4,1.6,1.2,4.7-1.5,4.7c-7.6,0-16-7.2-22.2-11.4c-4.2,2.4-8.7,15.5-8.4,20.3c0,4.1-2,8.6-1.6,13.1c-0.4,0.2-0.2,0.9-0.6,1.1
		c-9.5-13,1.4-44.8-8.2-57.1c6.4-13.6,8.6-8.8,13.9-15.1c16.8,0,25.9,7.9,33.8,21.6c-2.8,3-3.4,7.6-7.2,9.7
		C635.1,454.9,636.1,460.2,638,463.8L638,463.8z M648.5,547.2c-0.2-0.2-0.8-0.2-1.1-0.3c-3.2-9.5-20.3-26-27.9-33.8
		c-0.4-3.9-8.5-17.7-5.7-20.6C627,507.7,653.6,523,648.5,547.2L648.5,547.2z M648.3,516c-4.8-11-22.6-18.6-30.9-35.4
		c0.2-2.7-1.1-4.2,0-6.9c1-2.5-2.4-2.4-1.2-4.6c5.4,1.1,9.5,5.7,15,7.1c4.2,1.2,8.3,0.4,12.6,1.1c5.3-3.4,1.8-9.5,3.3-13.9
		c19.4,3.5,15.5,30.1,18.5,43.6c1.5,6.8,5.4,10.3,7.5,16C665.7,524.7,651.5,523.4,648.3,516L648.3,516z M701.1,455.2
		c-2.3,12.2-9.5,21.6-11.7,32.8c-1.6,11.4-11.6,20.2-5.4,32.5c-11.1-1.3-10.9-32.1-12.4-39.9c-1-5-2.6-9.5-5.6-13.6
		c-2.3-3.1-9.9-8.8-13.7-10.1c-3.1-1.2-5.8-0.8-8.1-2.8c1.5-3.9,4.5-7,6.4-10.8c6.6-13.7-5.1-17.9,12.6-28.7
		C684.4,408.1,705.5,433.7,701.1,455.2L701.1,455.2z M660.7,406.6c-3.2,2.6-6.2,2.5-8.7,6.2c-1.4,2-2.9,4.6-4.6,6.2
		c0.3,1.1-0.3,2-1.3,2.4l-1.2,1.9l-1.3,2.4c-1.7-0.2-4-2.3-5.2-3.4c-3.4-5.9-25-12.4-31.3-10.9c-3.9,1-11.3,8.5-14.6,11l-1.2-0.4
		l-0.3-1.9l-0.1,1c-1.2-12.9-2.7-44.9-6.2-56c0.9-0.9,1.6-2.2,1.6-3.4c2.2,0.5,3.7,2.6,6,2.5c12.5,7.9,34.2,4.1,42.4-8.5
		c1.6,0.4,3.9,1.3,4.6,3c5.7,3.7,8.2,10.5,11.3,16.4c-0.5,2.6,1.7,4.5,1.5,7l2.4,2c4.4-1.4,4.7-6.9,7.8-9.9c2.1-9.9,1.2-15.3-2-24.9
		c5.8-0.4,17.3,8.2,17.1,14.2c-0.4,10.7,10.3,40.3,21.5,42.6c1.1,1.4,3.2,0.8,4,2.5c2.8,1.3,6.1,0.9,9.2,1.8
		c2.4-1.1,5.2,0.2,7.5-1.2C703.6,434.3,681.5,396.7,660.7,406.6L660.7,406.6z M762.5,375.3c-5.8,1.8-8.7-9.5-15.8-10.3
		c-3.8-0.4-11.5,3-12.8,6.7c-2,5.9,0.2,16.6-3.9,21.6c-12.9,15.7-33.6,11.1-40.4-7.5c-2.6-7.1-5.1-8.7-5.2-16.9
		c14.5,2.7,17.2,5.9,31.8-2.5c11.8-6.9,31.7-29.7,46.2-20.8c2.4-0.3,8.2,11.9,9.4,14.2C770.1,365.7,773.1,374.1,762.5,375.3
		L762.5,375.3z M830.1,384.4c-11.8-1.5-8.1-5.5-21.6-4.2l-2.5,0.3c-17.5-0.6-44.9-53.9-52.2-68.4c-6-11.8-23-17.2-27.2-21.9
		c2.7-1.1,17.5-12.4,16.9-14.2c-17.1-9.9-16.7-16.9-29.2-26.7c24.2,4.3,50.8,42,62.4,63.1c4.7,8.4,15.7,19.9,18.9,28
		c6.8,5,12.3,12.9,18.8,18.6c7.1,5.3,14,11,20.9,16.4C839.9,379.2,834.4,385,830.1,384.4L830.1,384.4z M840.3,370.1
		c-1.8-0.4-14.1-11.4-15.9-13.5c-1.4-1.6-4.1-1.1-5.2-3.1c-1.7-0.5-2.9-2-4.5-2.9c-1.5-2.5-4.4-3.7-5.7-6.5
		c-9.5-5.7-11.6-17.3-19.6-23.3c-0.5-1.3-10-16.7-11-17.8c-0.5-3.1-4.7-3.9-4.3-7.4c-3.3-2.7-3-8.8-7.9-10
		c-14.5-19.7-28-34.3-52.2-41.3c-6.7-1.9-11.6-3.3-18.2-6.2c-13.2-4.3-24.2-6-38-6.2c-21.3-0.4-45.9-7.5-63.1-6.2
		c-11.8,0.9-42.7,12.9-46.9,12.6c-3.4,1.8-6-1.6-9-2.8c-15.2-5.6-76.3,4.8-80.4-12.5c3,1.5,6.8,1.2,10,1.1
		c20.7-0.4,40.2-17.2,61.3-21.3c18.3-3.4,28.4,13.7,55.6-3.1c63.8,58.2,129.7-4.8,222.4,94.4c19.6,20.8,31.5,43.6,33.5,72.7
		L840.3,370.1L840.3,370.1z"/>
</g>
</svg>
