<?xml version="1.0" encoding="utf-8"?>
<!-- Generator: Adobe Illustrator 18.1.0, SVG Export Plug-In . SVG Version: 6.00 Build 0)  -->
<!DOCTYPE svg PUBLIC "-//W3C//DTD SVG 1.1//EN" "http://www.w3.org/Graphics/SVG/1.1/DTD/svg11.dtd">
<svg version="1.1" id="Layer_1" xmlns="http://www.w3.org/2000/svg" xmlns:xlink="http://www.w3.org/1999/xlink" x="0px" y="0px"
	 viewBox="0 0 870.6 870.5" enable-background="new 0 0 870.6 870.5" xml:space="preserve">
<path d="M699.4,0H174.8C78.3,0,0,78.3,0,174.8v524.5c0,96.6,78.3,174.8,174.8,174.8h524.5c96.6,0,174.8-78.3,174.8-174.8V174.8
	C874.2,78.3,796,0,699.4,0z M721.6,305.6c-7.4,38.9-56.3,175-145,295.1c-38.8,50.8-84.1,100.7-142.3,135.1
	c-21.5,12.7-63.9,28.7-92.1,16.8c-24.2-10.2-41.6-34.3-54.8-63.5c-21.8-39.7-33.7-94-43.9-135.1c-9.4-37.8-18.3-73.5-29.9-106.4
	c-6.7-19.2-10.8-38.7-18.7-57.2c-22.2-37-53.8-1.2-87.1-6.1c-14.1-2.1-16.7-17.1-26.3-26.3v-3.6c0.3-0.2,0.5-0.4,0.8-0.6
	c-2.5-4-5.1-8.1-8.6-11.4v-3.6c48.4-38.6,91.1-85.5,147.1-118.4c17.6-10.4,47.5-21.5,71.7-14.4c19.1,5.6,35.2,28.2,44.6,50.3
	c5.2,9,9.4,18.6,12.3,27.6c9.3,29.3,14.4,64.8,19.1,93.3c6.6,39.6,6.5,94.6,23.7,135.8c3.3,5.5,7.1,10.7,11.4,15.4
	c41.4,44.3,72.9-17.2,89.8-48.4c14.6-27.1,27.6-55.5,29.9-81.3c1.3-14.7,0.6-26.3-2-35.5c-12.7-15.3-36.7-17.2-70.3-14.7
	c1.8-5.7,3.9-11.2,6.1-16.5c-4.5,0.2-9.1,0.4-13.9,0.8c31.7-98.3,124.7-139.4,152.2-143.6c33.8-5.2,83.2-4.1,106.4,25.2
	c4.7,5.9,8,12.3,10.3,19C726.2,254,726.1,280.1,721.6,305.6z"/>
</svg>
