<?xml version="1.0" encoding="utf-8"?>
<!-- Generator: Adobe Illustrator 18.1.0, SVG Export Plug-In . SVG Version: 6.00 Build 0)  -->
<!DOCTYPE svg PUBLIC "-//W3C//DTD SVG 1.1//EN" "http://www.w3.org/Graphics/SVG/1.1/DTD/svg11.dtd">
<svg version="1.1" id="Layer_1" xmlns="http://www.w3.org/2000/svg" xmlns:xlink="http://www.w3.org/1999/xlink" x="0px" y="0px"
	 viewBox="0 0 870.6 870.5" enable-background="new 0 0 870.6 870.5" xml:space="preserve">
<g>
	<g>
		<g>
			<path fill="#FFB819" d="M435.2,292.7c20.4,0,37.1-10.6,39.4-24.3L494.7,41c0-22.5-26.3-41-59.5-41c-33.1,0-59.4,18.5-59.4,41
				L396,268.4C398.2,282.1,415,292.7,435.2,292.7L435.2,292.7z"/>
			<path fill="#FFB819" d="M312.3,363.7c10.2-17.6,9.4-37.4-1.3-46.2L124,186.4c-19.4-11.2-48.6,2.3-65.1,31
				C42.3,246,45.2,278,64.6,289.2l207,96.4c13,4.8,30.6-4.4,40.7-22L312.3,363.7z"/>
			<path fill="#FFB819" d="M558.2,363.6c10.2,17.6,27.8,26.8,40.7,22l207-96.4c19.5-11.2,22.3-43.2,5.8-71.9
				c-16.6-28.7-45.8-42.2-65.2-31l-187,131.1c-10.7,8.8-11.5,28.6-1.3,46.2L558.2,363.6z"/>
		</g>
		<g>
			<path fill="#FFB819" d="M435.2,576.8c20.4,0,37.1,10.5,39.4,24.2l20.1,227.4c0,22.5-26.3,40.9-59.5,40.9
				c-33.1,0-59.4-18.4-59.4-40.9L396,601C398.2,587.3,415,576.8,435.2,576.8L435.2,576.8z"/>
			<path fill="#FFB819" d="M558.2,505.7c10.2-17.6,27.8-26.8,40.7-21.9l207,96.3c19.5,11.3,22.3,43.3,5.8,72
				c-16.6,28.6-45.8,42.2-65.2,31l-187-131C548.9,543.1,548.1,523.3,558.2,505.7L558.2,505.7z"/>
			<path fill="#FFB819" d="M312.3,505.7c10.2,17.6,9.4,37.4-1.3,46.3L124,683c-19.4,11.2-48.6-2.4-65.1-31
				c-16.6-28.7-13.6-60.7,5.8-72l207-96.3C284.6,478.9,302.2,488.1,312.3,505.7L312.3,505.7z"/>
		</g>
	</g>
</g>
</svg>
