<?xml version="1.0" encoding="utf-8"?>
<!-- Generator: Adobe Illustrator 18.1.0, SVG Export Plug-In . SVG Version: 6.00 Build 0)  -->
<!DOCTYPE svg PUBLIC "-//W3C//DTD SVG 1.1//EN" "http://www.w3.org/Graphics/SVG/1.1/DTD/svg11.dtd">
<svg version="1.1" id="Layer_1" xmlns="http://www.w3.org/2000/svg" xmlns:xlink="http://www.w3.org/1999/xlink" x="0px" y="0px"
	 viewBox="0 0 870.6 870.5" enable-background="new 0 0 870.6 870.5" xml:space="preserve">
<g>
	<g>
		<defs>
			<rect id="SVGID_1_" x="117.3" width="636" height="870.5"/>
		</defs>
		<clipPath id="SVGID_2_">
			<use xlink:href="#SVGID_1_"  overflow="visible"/>
		</clipPath>
		<path clip-path="url(#SVGID_2_)" fill-rule="evenodd" clip-rule="evenodd" fill="#096497" d="M410.8,0c0.5-0.1,0.6,0.2,0.6,0.6
			c29,48.5,57.7,96.6,85.1,147.5c9,16.7,19.6,33.8,22.7,53.3c-9-3.7-14.1-11.8-22.1-16.9c-7.9-5-17-8.4-29.9-9.1
			c6.6,41.5,31.9,62.4,63.7,77.3c31.6,14.8,66.6,26.9,96.1,46.1c54.5,35.4,96.2,97.1,115.6,168.3c23.1,84.5,5.5,176.1-26.6,235.8
			c-33,61.4-83.2,107.7-146.2,137.7c-32.8,15.6-69.9,26.6-113,29.2c-45.4,2.8-87.5-3.3-124.7-16.2
			c-67.9-23.6-123.9-69.3-160.5-123.4c-37.7-55.9-63.7-135-51.3-226.1c10.9-80.7,50.4-139.5,98.1-185.8
			c23.3,21.2,50.2,49.5,74.7,74.1c1.6,1.6,9.7,10.4,10.4,10.4c2.7,0.1,11.2-10.7,12.4-11.7c5-4.6,7.5-7.9,12.3-11
			c7.4,29.4,15.6,58,23.4,87.1c-28.8-7.8-57.7-15.5-86.4-23.4c-0.9-1.9,2.2-4,3.9-5.8c1.8-1.9,3.8-3.8,5.8-5.9
			c2.5-2.5,11.7-9.8,11.7-12.3c0-1.9-9-9.5-10.4-11c-4.1-4.4-6.7-7.2-10.4-10.4c-31.5,34.8-54.4,78.1-58.5,140.3
			c8.5,1.5,19.7,0.2,29.2,0.6c1.8-9.9,1.4-22,1.9-33.1c26.1,14.8,51.9,29.9,78,44.8c-25.5,15.9-51.7,31.1-78.6,45.5
			c0-10.8,0-21.7,0-32.5c-8.9-1.5-20.6-0.2-30.5-0.7c3.4,62.6,27.3,104.8,57.2,141c8.4-5.9,14.2-14.3,22.1-20.8
			c-6.6-9-15.6-15.6-22.1-24.7c29.1-7.7,57.9-15.8,87-23.4c-7.8,28.8-15.2,58.1-23.4,86.4c-1.8,0.9-4.1-2.3-5.8-3.9
			c-5.6-5.1-12.8-12.1-18.2-17.5c-5.7,5-10.2,9.8-16.2,16.2c-1,1-5.2,4.2-5.2,5.2c0.1,1.8,11.2,9.8,13.6,11.7
			c31.8,24.3,76.2,44.1,126.7,46.8c1.5-8.9,0.2-20.6,0.7-30.5c-11.5,0.5-21-1.1-32.5-0.7c-0.3-3.1,2.3-6.3,3.9-9.1
			c12.7-22,27.3-46.7,39.6-69.5c16,24.9,31.8,53.5,45.5,78.6c-11.5-0.5-21,1.1-32.5,0.7c-1.5,8.7-0.2,20.1-0.6,29.9
			c61.2-2.5,106.1-26.9,141-57.8c-6.5-7.5-14.2-13.9-20.8-21.4c-8.4,6.8-16.9,16.8-24.7,22.1c-8-28.8-15.6-58-23.4-87
			c29.1,7.7,57.9,15.7,87.1,23.4c-6.6,8.8-14.9,15.9-22.1,24c6.9,7.4,14,14.6,21.4,21.4c30.7-35.3,53.9-78.2,57.8-140.3
			c-8.7-1.5-20.1-0.2-29.9-0.7c-1.5,9.8-0.2,22.3-0.7,33.1c-27.1-14.1-52.3-30-78.6-44.8c24.9-16,52.1-29.8,77.3-45.5
			c1.7,10,1.1,22.3,2,33.1c10,0,19.9,0,29.9,0c-3.6-62.6-27.3-105.3-57.8-141c-7.5,6.6-13.9,14.2-21.4,20.8
			c6.3,8.9,17.2,16.5,22.1,24.7c-29.2,7.6-57.9,15.7-87.1,23.4c7.8-29.1,15.9-57.7,23.4-87.1c6.1,4.5,11.7,10.5,18.2,16.9
			c0.7,0.7,5.6,5.8,5.8,5.8c3.3,0.1,8.4-8.8,10.4-11c4.1-4.5,7.6-6.4,10.4-10.4c-38.7-30-92.4-40.2-131.9-67.6
			c-40.2-27.8-64.2-66.5-77.3-121.5c-20.9,5.1-38,17.4-60.4,18.8c2-9.4,9.6-15.6,14.9-22.7C370.2,138.3,389.3,67.2,410.8,0"/>
	</g>
	<path fill-rule="evenodd" clip-rule="evenodd" fill="#961A1E" d="M330.9,530.2c5.8-27.8,22.6-50.9,42.2-65
		c18.5-13.3,50.9-24.8,83.8-18.2c27.8,5.6,50.4,21.4,65,41.6c14.7,20.3,24.2,53.3,18.2,83.8c-5.6,28.5-20.5,49.5-41.6,65
		c-19.7,14.4-49.2,25.4-83.2,18.8c-27.2-5.3-51.1-20.9-65.6-40.9C335.8,596.1,323.4,565.7,330.9,530.2"/>
</g>
</svg>
