<?xml version="1.0" encoding="utf-8"?>
<!-- Generator: Adobe Illustrator 18.1.0, SVG Export Plug-In . SVG Version: 6.00 Build 0)  -->
<!DOCTYPE svg PUBLIC "-//W3C//DTD SVG 1.1//EN" "http://www.w3.org/Graphics/SVG/1.1/DTD/svg11.dtd">
<svg version="1.1" id="Layer_1" xmlns="http://www.w3.org/2000/svg" xmlns:xlink="http://www.w3.org/1999/xlink" x="0px" y="0px"
	 viewBox="0 0 870.6 870.5" enable-background="new 0 0 870.6 870.5" xml:space="preserve">
<g>
	<path fill-rule="evenodd" clip-rule="evenodd" fill="#1D1D1B" d="M72.1,99.1L345,175c0,0-99.1,100.4,21.9,189.2
		c3.2-0.9,33.9-64.8-16-68.4l-1.6-8.7l96.1-46.5c0,0,66.9,34.8,33.5,105.6c0,0,118-69.5-22.9-162.2L737.9,46.8
		c0,0,409.8,552.5-261.4,776.9c0,0,120.8-305.5-18.3-303.6c0,0-118.9-11.6,5.3,220.2c0,0-496.9,35.2-461.7-420.9
		c0,0,16.7-135.4,59.3-202.1l10.2-16.3L72.1,99.1L72.1,99.1z"/>
</g>
</svg>
