<?xml version="1.0" encoding="utf-8"?>
<!-- Generator: Adobe Illustrator 18.1.0, SVG Export Plug-In . SVG Version: 6.00 Build 0)  -->
<!DOCTYPE svg PUBLIC "-//W3C//DTD SVG 1.1//EN" "http://www.w3.org/Graphics/SVG/1.1/DTD/svg11.dtd">
<svg version="1.1" id="Layer_1" xmlns="http://www.w3.org/2000/svg" xmlns:xlink="http://www.w3.org/1999/xlink" x="0px" y="0px"
	 viewBox="0 0 870.6 870.5" enable-background="new 0 0 870.6 870.5" xml:space="preserve">
<g>
	<path fill="#1D1D1B" d="M731.2,41.9c40.4,0,85.9,43.4,85.9,86.9c0,26.3-34.3,72.7-73.7,72.7c-30.3,0-14.1-41.4-70.7-55.6
		c-12.1-5-17.2-13.1-17.2-24.2C655.5,76.2,701.9,41.9,731.2,41.9L731.2,41.9z"/>
	<path fill="#1D1D1B" d="M360.9,364.3c0-38.4,35.4-82.8,74.8-82.8c22.2,0,48.5,20.2,48.5,63.6c0,4-46.5,80.8-77.8,80.8
		C378.1,425.9,360.9,400.6,360.9,364.3L360.9,364.3z"/>
	<path fill="#1D1D1B" d="M579.2,367.4l1-3c10.1-36.4,31.3-56.6,54.6-56.6c30.3,0,63.6,38.4,63.6,85.9c0,37.4-23.2,64.6-51.5,64.6
		c-21.2,0-31.3-13.1-40.4-38.4C596.4,392.7,595.4,390.7,579.2,367.4L579.2,367.4z"/>
	<path fill="#1D1D1B" d="M459.4,488.2c0-12.1,9.1-18.2,23.2-18.2c68.7,0,83.8,17.2,83.8,28.3c0,10.1-4,11.1-27.3,15.2
		c-24.2,4-21.2,17.2-30.3,17.2c-9.1,0-3-15.2-24.2-23.2C465.4,500.4,459.4,496.3,459.4,488.2L459.4,488.2z"/>
	<path fill="#1D1D1B" d="M790.3,307.1c0,144.5-69.7,211.1-176.8,211.1c-41.4,0-20.2,39.4-62.6,39.4c-17.2,0-27.3-18.2-47.5-18.2
		c-11.1,0-23.2,6.1-36.4,6.1c-42.4,0-33.3-46.5-47.5-52.5c-59.6-24.2-60.6-24.2-71.7-31.3c-44.4-30.3-63.6-71.7-63.6-134.4
		s24.2-143.4,63.6-178.8c12.1,8.1,19.2,12.1,26.3,12.1c15.2,0,20.2-21.2,54.6-33.3c42.4-15.2,42.4-15.2,42.4-37.4
		c0-58.6-34.3-89.9-70.7-89.9c-47.5,0-93.9,39.4-93.9,77.8c0,19.2,11.1,38.4,26.3,54.6c-82.8,50.5-131.3,129.3-131.3,225.3
		c0,32.3,5,43.4,5,66.7c0,27.3-10.1,43.4-10.1,69.7c0,13.1,5.3,39.3,14.1,54.6C131.7,489.9,88.2,414.2,88.2,326.3
		c0-86.9,41.4-156.6,113.1-207.1l5-4c-100,41.4-166.7,144.5-166.7,274.8c0,67.7,20.2,108.1,20.2,128.3c0,8.1-3,26.3-3,49.5
		c0,41.4,32.3,118.2,60.6,154.6c22.2,28.3,56.6,44.5,97,44.5c31.3,0,52.5-10.1,52.5-27.3c0-12.1-16.2-40.4-17.2-104l55.6,107.1
		c52.5,100,92.9,131.3,180.8,131.3c37.4,0,60.6-11.1,60.6-30.3c0-15.2-30.3-52.5-30.3-157.6c0-47.5,11.1-72.7,37.4-72.7
		c19.2,0,28.3,16.2,28.3,52.5c0,54.6-13.1,114.2-13.1,131.3c0,22.2,16.2,35.4,48.5,35.4c55.6,0,106.1-34.3,133.3-84.9
		c40.4-74.7,68.7-220.2,68.7-291.9C819.6,397,805.4,336.4,790.3,307.1L790.3,307.1L790.3,307.1z M510.9,588.6
		c-24.2,0-47.5-15.2-51.5-33.3c34.3,8.1,61.6,12.1,92.9,12.1C544.2,580.5,531.1,588.6,510.9,588.6L510.9,588.6z"/>
</g>
</svg>
