<?xml version="1.0" encoding="utf-8"?>
<!-- Generator: Adobe Illustrator 18.1.0, SVG Export Plug-In . SVG Version: 6.00 Build 0)  -->
<!DOCTYPE svg PUBLIC "-//W3C//DTD SVG 1.1//EN" "http://www.w3.org/Graphics/SVG/1.1/DTD/svg11.dtd">
<svg version="1.1" id="Layer_1" xmlns="http://www.w3.org/2000/svg" xmlns:xlink="http://www.w3.org/1999/xlink" x="0px" y="0px"
	 viewBox="0 0 870.6 870.5" enable-background="new 0 0 870.6 870.5" xml:space="preserve">
<g>
	<path fill-rule="evenodd" clip-rule="evenodd" d="M32.8,789.8l-0.5-665.9l0,0C32.6,26.6,51.1,0,165,0l0,0h546.8l0,0
		c90.5,0,126.5,30.8,126.5,117.7l0,0l-1.6,662.2l0,0c0,63.4-48,87.8-100.5,87.8l0,0H138.7l0,0C87.1,867.6,32.8,846.8,32.8,789.8
		L32.8,789.8L32.8,789.8L32.8,789.8z M93.3,126.9v539.5l0,0c18.1,19.9,35.3,30.3,61.6,30.3c63.4,0,112.3-54.8,185.6-54.8
		c49.8,0,71.5,17.2,93.2,53.4c21.7-36.2,48-54.3,95.1-54.3c63.4,0,124.9,57,184.7,57c24.4,0,42.5-11.8,62.5-31.7l0,0V124.2l0,0
		c0-57.9-4.5-66.1-61.6-66.1l0,0l-552.3,0l0,0C101.9,58.2,93.3,72,93.3,126.9L93.3,126.9L93.3,126.9L93.3,126.9z M409.4,308.7h109.5
		l114.1,241.7h-80.6L409.4,308.7L409.4,308.7L409.4,308.7z M263.6,550.4l123.1-233.5l55.2,86l-97.8,147.5H263.6L263.6,550.4
		L263.6,550.4z M221.9,379.4l50.7-70.6h105l-87.8,69.7L221.9,379.4L221.9,379.4L221.9,379.4z M564.9,569.4H640l34.4,74.2l0,0
		c0,4.5,0,10.9-15.4,10.9c-22.6,0-48-9.1-59.7-28.1l0,0L564.9,569.4L564.9,569.4L564.9,569.4z M252.6,569.5h76l-37.1,58.8l0,0
		c-5.4,9.1-9.1,12.7-15.4,12.7c-28.1,0-38.9-17.2-38.9-29C237.2,600.2,241.8,591.2,252.6,569.5L252.6,569.5L252.6,569.5L252.6,569.5
		z M228.2,76.1c0,0,181-0.4,182,0c0.6,0.3,66.8,141.7,100,212.7c0.4,0.9,0.4,1-0.6,1c-80.2,0.1-240.2,0.4-240.6,0
		c-1.3-1.2-16.3-25.3-16.3-25.3c-10-16.3-12.7-22.6-12.7-28.1l0,0L250.9,125l0,0c-0.5-13.1-4.6-24.1-12.7-34.4l0,0L228.2,76.1
		L228.2,76.1L228.2,76.1z M154.9,761.9c-19,0-31.7-4.5-61.6-19.9l0,0v42.5l0,0c0,24.4,0,24.4,49.8,24.4l0,0h588.4l0,0
		c43.5-1.8,44.4-1.8,44.4-27.2l0,0v-41.6l0,0c-26.3,16.3-40.7,21.7-64.3,21.7c-60.7,0-132.2-59.7-185.6-59.7
		c-37.1,0-53.4,25.3-58.8,59.7l0,0h-67l0,0c-4.5-35.3-19.9-59.7-57.9-59.7C279.8,702.2,220,761.9,154.9,761.9L154.9,761.9
		L154.9,761.9L154.9,761.9z"/>
</g>
</svg>
