<?xml version="1.0" encoding="utf-8"?>
<!-- Generator: Adobe Illustrator 18.1.0, SVG Export Plug-In . SVG Version: 6.00 Build 0)  -->
<!DOCTYPE svg PUBLIC "-//W3C//DTD SVG 1.1//EN" "http://www.w3.org/Graphics/SVG/1.1/DTD/svg11.dtd">
<svg version="1.1" id="Layer_1" xmlns="http://www.w3.org/2000/svg" xmlns:xlink="http://www.w3.org/1999/xlink" x="0px" y="0px"
	 viewBox="0 0 870.6 870.5" enable-background="new 0 0 870.6 870.5" xml:space="preserve">
<g>
	<g>
		<path fill="#010101" d="M444.3,661.1c-32.4,9.5-54.4,4.1-65.2-31.5c-12.1-40-30.6-77.6-10.8-121.4c12.2-27-6.2-48.9-29.7-56.4
			c-16.7-5.3-41.8-2.6-56.3,7c-78.9,52.1-130,126.2-159.9,215.5c-10,29.7-26.6,48.5-62.1,32.4c0.3-7-1.1-12.8,0.9-14.6
			c64.1-55.8,75.4-134.6,92.3-210.9c16-71.9,38.5-140.8,83.8-190.5c-20-50.5-38.1-96-56.1-141.4c4.2-1.7,8.5-3.4,12.7-5.1
			c6.4,16,12,32.3,19.4,47.9c26,54.8,50.8,64.2,108.6,51.7c47.9-10.4,97.4-13.4,145.7-22.5c13.5-2.5,33.1-13,35.8-23.5
			c6.3-24.2,18.5-58.7-13-71.2c-29.8-11.8-21.1-32.4-17.2-47.1c4.8-17.9,16.8-40.5,32-47.8c89.8-43,181.2-41,271.7,0.4
			c39.7,18.1,40.3,59.3,22,97.3c-20.9,43.4-29.9,94.8-33.7,143.6c-2.5,32.1,19.3,65.6,19.5,98.5c0.2,43.6-5.9,88.5-17,130.7
			c-16.7,63.4-42.3,124.5-59.5,187.8c-4.8,17.5,6.5,39.4,10.4,59.3c2.3,11.4,10.1,26.7,5.5,33c-5.7,7.8-22.8,12.9-33,10.4
			c-11.6-2.8-27-13.2-30.1-23.5c-4.9-16.7-3-36.1-0.7-54c5.3-41.8,13.9-83.2,18.2-125c2.2-21.3-1.8-43.3-3.2-66.6
			c-35.2,4.9-64.2,8-92.8,13.4c-8,1.5-19,8.6-21.3,15.5c-29.3,90.8-43.8,182.3-14,276.6c3.4,10.6-8.2,25.9-12.8,39
			c-15.5-7.8-35.7-12.1-45-24.5c-7.5-9.9-0.4-29.9-1.9-45.2c-8.8-90.2-18.3-180.4-27.5-270.6c-6.6-2-13.3-4-19.9-6.1
			c-15.1,22.1-42.6,44.6-41.8,66.1C399.1,611.4,426.1,634.1,444.3,661.1z"/>
	</g>
</g>
</svg>
