<?xml version="1.0" encoding="utf-8"?>
<!-- Generator: Adobe Illustrator 16.0.0, SVG Export Plug-In . SVG Version: 6.00 Build 0)  -->
<!DOCTYPE svg PUBLIC "-//W3C//DTD SVG 1.1//EN" "http://www.w3.org/Graphics/SVG/1.1/DTD/svg11.dtd">
<svg version="1.1" id="Layer_1" xmlns="http://www.w3.org/2000/svg" xmlns:xlink="http://www.w3.org/1999/xlink" x="0px" y="0px"
	 width="48.629px" height="48.629px" viewBox="0 0 48.629 48.629" enable-background="new 0 0 48.629 48.629" xml:space="preserve">
<g>
	<polygon fill-rule="evenodd" clip-rule="evenodd" fill="#FFFFFF" points="0,0 48.629,0 48.629,48.629 0,48.629 0,0 	"/>
	<path fill-rule="evenodd" clip-rule="evenodd" fill="#C64A4B" d="M39.19,9.58c-4.037-4.084-8.957-6.126-14.712-6.126
		c-5.802,0-10.721,2.042-14.805,6.126c-4.038,4.084-6.127,9.003-6.127,14.759c0,5.755,2.089,10.721,6.127,14.758
		c4.084,4.085,9.003,6.127,14.805,6.127c5.755,0,10.675-2.042,14.712-6.127c4.084-4.037,6.125-9.003,6.125-14.758
		C45.315,18.583,43.274,13.664,39.19,9.58L39.19,9.58z M36.729,9.765l2.182,2.924c1.578,2.042,2.646,4.27,3.342,6.729
		c0.65,2.506,0.742,5.105,0.324,7.797c-0.51,3.666-2.18,7.008-5.012,10.025l-0.277,0.092c-0.188-0.186-0.141-0.371,0.092-0.557
		l0.418-0.51c1.764-2.646,2.691-5.105,2.83-7.334c-0.139-0.463-0.277-0.742-0.416-0.789c-0.373-0.092-0.789,0.094-1.115,0.465
		l-1.717,2.506h-0.186L37.1,30.975c0-0.186,0.094-0.418,0.232-0.65l0.371-0.649c0.604-1.764,0.975-3.156,1.021-4.27l-0.186-1.067
		c-0.139-0.372-0.324-0.65-0.648-0.835c-0.465-0.093-0.977,0.046-1.439,0.464L35.43,25.22c-0.604,0.882-0.975,1.671-1.021,2.414
		l-0.186,0.186h-0.232c-0.139-0.139-0.139-0.325-0.045-0.51l0.092-0.604c0.141-1.3-0.092-2.182-0.742-2.553
		c-0.557-0.093-1.068,0.093-1.531,0.604c-0.836,0.975-1.16,2.274-1.021,3.945l0.975,0.696c0.418,0.232,0.604,0.557,0.51,0.975
		c0,0.464-0.186,0.835-0.602,1.113l-1.533-0.51c-0.602-0.14-1.16-0.14-1.67,0c-0.695,0.277-1.254,0.881-1.717,1.764l-0.928,2.413
		c-0.697,2.228-1.115,4.919-1.3,8.122c-0.14,0.092-0.278,0.139-0.371,0.092l-0.418-3.062c-0.14-1.299-0.325-2.32-0.511-3.062
		l-0.928-3.156c-0.418-1.16-0.975-2.089-1.625-2.832c-0.557-0.324-1.16-0.417-1.949-0.277c-0.278,0.047-0.928,0.231-1.856,0.557
		l-0.278-0.186l-0.278-0.418c-0.232-0.65-0.186-1.113,0.232-1.393c0.046-0.139,0.324-0.278,0.742-0.463
		c0.371-0.141,0.511-0.372,0.511-0.65c-0.047-1.067-0.232-1.856-0.418-2.46c-0.325-0.882-0.835-1.485-1.578-1.81
		c-0.511,0-0.882,0.139-1.067,0.371c-0.417,0.604-0.417,1.67-0.093,3.249c-0.186,0.232-0.324,0.232-0.418,0.047
		c-0.464-1.764-1.299-3.156-2.506-4.084c-0.418-0.232-0.789-0.279-1.113-0.232c-0.604,0.371-0.882,1.021-0.836,1.949l0.325,2.182
		c0.371,1.393,0.835,2.46,1.299,3.202c0,0.232-0.046,0.325-0.186,0.278c-0.186-0.046-0.324-0.186-0.464-0.464l-1.206-1.856
		c-0.372-0.464-0.789-0.695-1.254-0.604c-0.417,0.279-0.51,0.789-0.417,1.485l0.417,1.671c0.789,2.414,1.811,4.27,3.017,5.615
		c0.093,0.325,0,0.465-0.186,0.418l-0.649-0.604l-0.604-0.695c-2.181-2.507-3.48-5.57-3.991-9.189
		c-0.557-3.621-0.093-7.008,1.3-10.072c0.464-1.114,1.113-2.274,1.995-3.527l2.507-3.249l0.139-0.742
		c0.047-0.279,0.232-0.418,0.511-0.464c0.325,0.046,0.742,0.232,1.16,0.511l0.975,0.881l2.599,3.481
		c0.604,0.789,1.207,1.439,1.811,1.996l1.067,0.789l0.325,0.186c0.695,0.279,1.392,0.418,2.042,0.372
		c0.139-0.093,0.186-0.232,0.231-0.418V16.17l-1.438-0.464c-0.511-0.232-0.789-0.557-0.742-1.114
		c0.231-0.371,0.603-0.696,1.067-1.021l1.253-0.696l0.186-0.975c0.093-0.371,0.278-0.604,0.511-0.649
		c0.278,0,0.557,0.186,0.835,0.464l0.65,0.696l1.438-0.418l1.486,0.047c0.092,0.278,0.045,0.603-0.047,0.974l-0.371,0.882
		L25.87,15.52l0.186,0.975l0.139,0.372c0.512,0.325,1.301,0.232,2.367-0.279c0.975-0.696,1.949-1.717,2.924-2.97l2.461-3.341
		l1.02-0.975c0.465-0.325,0.883-0.418,1.301-0.325l0.324,0.325L36.729,9.765L36.729,9.765z"/>
	<path fill-rule="evenodd" clip-rule="evenodd" fill="#FFCD7B" d="M41,7.63c-4.596-4.595-10.164-6.915-16.663-6.915
		c-6.544,0-12.113,2.32-16.707,6.915c-4.595,4.595-6.916,10.164-6.916,16.708c0,6.497,2.321,12.066,6.916,16.661
		c4.594,4.642,10.163,6.915,16.707,6.915c6.499,0,12.067-2.273,16.663-6.915c4.641-4.595,6.914-10.164,6.914-16.661
		C47.915,17.794,45.641,12.225,41,7.63L41,7.63z M24.431,3.453c5.802,0,10.675,2.042,14.759,6.126s6.125,9.003,6.125,14.759
		c0,5.755-2.041,10.721-6.125,14.758c-4.084,4.085-8.957,6.127-14.759,6.127c-5.755,0-10.674-2.042-14.758-6.127
		c-4.085-4.037-6.127-9.003-6.127-14.758c0-5.755,2.042-10.675,6.127-14.759C13.757,5.496,18.676,3.453,24.431,3.453L24.431,3.453z"
		/>
	<path fill-rule="evenodd" clip-rule="evenodd" fill="#231F20" d="M36.729,9.765L36.59,9.301l-0.324-0.325
		c-0.465-0.093-0.883,0-1.301,0.325l-1.066,0.975l-2.414,3.341c-0.975,1.253-1.949,2.274-2.969,2.97
		c-1.021,0.511-1.811,0.604-2.322,0.279l-0.139-0.372L25.87,15.52l1.393-1.625l0.418-0.882c0.092-0.371,0.092-0.696,0.047-0.974
		l-1.486-0.047l-1.438,0.418l-0.65-0.696c-0.278-0.278-0.557-0.464-0.835-0.464c-0.278,0.046-0.418,0.278-0.511,0.649l-0.186,0.975
		l-1.253,0.696c-0.465,0.325-0.882,0.65-1.114,1.021c0,0.557,0.232,0.882,0.789,1.114l1.438,0.464v0.464
		c-0.046,0.186-0.093,0.325-0.231,0.418c-0.65,0.046-1.347-0.093-2.042-0.372l-0.325-0.186l-1.067-0.789
		c-0.604-0.557-1.207-1.207-1.811-1.996l-2.599-3.481l-1.021-0.881c-0.372-0.279-0.789-0.464-1.161-0.511
		c-0.231,0.046-0.417,0.186-0.464,0.464l-0.139,0.742l-2.507,3.249c-0.928,1.253-1.578,2.413-1.995,3.527
		c-1.393,3.063-1.856,6.451-1.3,10.072c0.464,3.619,1.811,6.683,3.991,9.189l0.604,0.695l0.604,0.604
		c0.231,0.047,0.278-0.093,0.231-0.418c-1.206-1.346-2.228-3.201-3.062-5.615l-0.371-1.671c-0.14-0.696,0-1.206,0.417-1.485
		c0.465-0.092,0.882,0.14,1.254,0.604l1.206,1.856c0.093,0.278,0.278,0.418,0.464,0.464c0.14,0.047,0.186-0.046,0.186-0.278
		c-0.464-0.742-0.928-1.81-1.299-3.202l-0.325-2.182c-0.046-0.928,0.232-1.578,0.836-1.949c0.324-0.047,0.695,0,1.113,0.232
		c1.207,0.928,2.042,2.32,2.506,4.084c0.094,0.186,0.187,0.186,0.372-0.047c-0.278-1.578-0.278-2.645,0.139-3.249
		c0.186-0.232,0.557-0.371,1.021-0.371c0.742,0.325,1.299,0.928,1.624,1.81c0.186,0.604,0.325,1.393,0.418,2.46
		c0,0.278-0.14,0.51-0.511,0.65c-0.418,0.185-0.696,0.324-0.789,0.463c-0.371,0.279-0.464,0.742-0.186,1.393l0.232,0.418
		c0.093,0.139,0.186,0.186,0.324,0.186c0.929-0.325,1.532-0.51,1.856-0.557c0.789-0.14,1.393-0.047,1.949,0.277
		c0.65,0.743,1.207,1.672,1.625,2.832l0.928,3.156c0.186,0.742,0.371,1.764,0.511,3.062l0.371,3.062c0.14,0.047,0.232,0,0.371-0.092
		c0.232-3.203,0.65-5.895,1.347-8.122l0.928-2.413c0.463-0.883,1.021-1.486,1.717-1.764c0.51-0.14,1.021-0.14,1.67,0l1.533,0.51
		c0.371-0.278,0.602-0.649,0.602-1.113c0.047-0.418-0.139-0.742-0.51-0.975l-0.975-0.696c-0.139-1.671,0.186-2.97,1.021-3.945
		c0.463-0.511,0.928-0.696,1.531-0.604c0.604,0.371,0.883,1.253,0.742,2.553l-0.139,0.604c-0.047,0.185-0.047,0.371,0.047,0.51
		h0.232l0.186-0.186c0.092-0.742,0.463-1.531,1.02-2.414l1.068-1.253c0.463-0.417,0.975-0.557,1.439-0.464
		c0.277,0.186,0.51,0.464,0.648,0.835l0.186,1.067c-0.092,1.113-0.418,2.506-1.021,4.27l-0.371,0.649
		c-0.139,0.232-0.232,0.465-0.232,0.65l0.094,0.139h0.186l0.928-1.484l0.789-1.021c0.326-0.371,0.697-0.557,1.115-0.465
		c0.092,0.047,0.277,0.326,0.416,0.789c-0.139,2.229-1.066,4.688-2.83,7.334l-0.418,0.51c-0.232,0.186-0.279,0.371-0.139,0.557
		l0.324-0.092c2.832-3.018,4.502-6.359,5.012-10.025c0.418-2.692,0.279-5.291-0.371-7.797c-0.648-2.459-1.717-4.688-3.295-6.729
		l-1.16-1.438C37.288,10.693,36.961,10.183,36.729,9.765L36.729,9.765z M36.081,9.904v0.325c2.088,2.506,3.434,4.827,3.945,6.916
		l0.463,1.625c0.324,1.531,0.371,3.202,0.186,4.919c-0.092,1.114-0.418,2.228-0.975,3.341h-0.092
		c0.045-0.464,0.139-0.928,0.23-1.346c0.326-1.996,0.418-3.713,0.188-5.105l-0.559-2.506l-1.02-2.831l-1.021-1.764
		c-0.047,0.186-0.047,0.464,0,0.743l0.092,0.696c0.094,0.557,0.047,1.253-0.045,2.089l-0.186,1.996
		c-0.279,1.949-0.836,3.62-1.719,5.059h-0.045l0.463-1.531c0-0.14,0-0.232,0.094-0.325c0.51-2.924,0.648-5.291,0.463-7.193
		l-0.324-2.785l-0.324-0.743c-0.141-0.278-0.371-0.464-0.604-0.511c-0.789,0.975-1.393,2.367-1.764,4.224l-1.021,4.548
		c-0.465,1.16-0.975,1.856-1.625,2.088c-0.418,0.093-0.928-0.046-1.438-0.464c-0.141-0.093-0.279-0.278-0.418-0.51L28.7,20.347
		c-0.045,0.093-0.045,0.186,0,0.279l0.094,0.325c0.047,0.835-0.094,1.717-0.324,2.599l-1.068,2.32c0.094,0,0.186,0,0.418-0.186
		l0.512-0.232l0.602-0.046c0.371,0.231,0.65,0.696,0.789,1.3L30,28.979c0,0.232,0.047,0.418,0.139,0.557
		c0.789,0.232,1.254,0.465,1.346,0.742l-0.092,0.372L30,30.325l-0.557-0.139l-0.141-0.232l-0.139-0.324l-0.232-0.604
		c-0.416-0.557-0.834-0.789-1.393-0.696c-0.371,0.14-0.742,0.325-1.066,0.649l-0.047,0.047c-0.186,0.186-0.371,0.418-0.51,0.695
		c-0.279,0.465-0.512,1.207-0.79,2.135l-0.324,1.532c-0.14,0.604-0.232,1.114-0.232,1.577c-0.14,0.559-0.186,1.393-0.186,2.461
		l-0.186,2.553h-0.047v-0.047c-0.046-2.691-0.231-4.873-0.557-6.59c-0.093-0.604-0.232-1.115-0.371-1.578
		c-0.325-1.254-0.789-2.182-1.346-2.832l-0.14-0.139l-0.325-0.279l-1.206-0.092c-0.743,0.371-1.114,0.975-1.114,1.717l-1.902,0.371
		l-0.047,0.094l-0.046,0.046l-0.14-0.231l0.046-0.325c0.094-0.14,0.372-0.278,0.743-0.418s0.604-0.278,0.696-0.511l0.139-1.949
		c0.093-0.742,0.325-1.346,0.65-1.717l0.975-0.047l0.882,0.418l0.046-0.047c-0.696-1.067-1.206-2.273-1.485-3.62l0.093-1.856
		c-0.882,1.16-1.717,1.625-2.599,1.393c-0.649-0.372-1.067-0.975-1.346-1.856l-0.511-2.321c-0.278-1.81-0.511-2.924-0.649-3.48
		c-0.325-1.253-0.836-2.274-1.439-3.063l-0.231-0.046c-0.093,0-0.186,0.046-0.186,0.139c-0.558,0.929-0.836,1.95-0.836,2.971
		c-0.186,1.392-0.231,3.109-0.046,5.151c0.046,0.882,0.186,1.856,0.417,2.877l0.511,1.949c-1.578-2.692-2.228-6.172-1.856-10.489
		l0.047-0.186l-0.14,0.046c0,0.093-0.046,0.139-0.093,0.139c-0.835,1.439-1.578,3.341-2.182,5.662
		c-0.464,1.903-0.464,3.898-0.139,5.894l0.093,0.743l0.186,0.604c-0.093,0.093-0.046,0.186,0.047,0.325
		c0.046,0.093,0.093,0.185,0,0.231c-0.232-0.231-0.465-0.928-0.789-1.949c-0.511-2.042-0.558-4.084-0.186-6.08
		c0.51-3.017,1.995-5.894,4.455-8.725l0.14-0.464c0.093-0.139,0.231-0.139,0.417-0.046c1.021,0.928,1.856,2.042,2.507,3.435
		c0.417,0.882,0.882,2.228,1.392,3.991c0.418,1.067,1.021,1.578,1.811,1.532l0.742-0.093l1.856-0.789l1.764-0.371
		c0.046-0.046,0.093-0.232,0.093-0.464c0-0.232,0.047-0.372,0.14-0.418c0.139,0.046,0.186,0.139,0.139,0.325l0.093,0.418
		c0.14,0.278,0.093,0.464-0.046,0.604c-0.511,0.093-0.975,0.278-1.393,0.603c-0.325,0.232-0.557,0.464-0.742,0.789l-0.047,0.139
		l-0.093,0.325v0.046l-0.046,0.186H20.95l-0.093,0.604l-0.046,0.278v0.046l0.046,1.624c0.14,0.882,0.604,2.321,1.438,4.456
		c-1.021-0.511-1.717-0.742-2.088-0.789h-0.047l-0.186,0.047l-0.232,0.231l-0.324,0.511l-0.093,0.279l-0.186,1.205
		c0.278-0.416,0.603-0.695,1.067-0.881L21.6,27.54c0.465,0.187,0.882,0.512,1.207,1.021L23.456,30l0.325,1.717
		c0.232,1.021,0.371,1.811,0.371,2.274c0.047-0.047,0.093-0.14,0.14-0.325l0.046-0.465c0.14-1.995,0.836-4.129,1.95-6.496
		l1.113-3.063c0.326-1.207,0.465-2.321,0.371-3.435c-0.139-0.557-0.371-1.067-0.604-1.485l-0.045-0.047
		c-0.279-0.417-0.604-0.742-0.975-0.974h0.789l2.227,0.881c0.928,0.279,1.672,0.046,2.088-0.649
		c0.373-0.511,0.604-1.021,0.744-1.578l0.045-0.186v-0.046l0.047-0.047v-0.046v-0.046l0.883-2.506
		c0.371-0.882,0.789-1.671,1.299-2.32c0.324-0.464,0.789-0.975,1.393-1.393C35.895,9.719,36.034,9.812,36.081,9.904L36.081,9.904z
		 M25.499,13.571c0.094-0.232,0.324-0.371,0.65-0.278v0.046c0.045,0.232-0.094,0.464-0.418,0.743c-0.094,0-0.139-0.046-0.139-0.232
		L25.499,13.571L25.499,13.571z M24.663,13.849l0.093,0.232v0.232c-0.093,0.139-0.278,0.232-0.557,0.232h-0.65l-0.186-0.186
		l-0.046-0.186c0.186-0.372,0.371-0.557,0.51-0.604C24.199,13.571,24.478,13.664,24.663,13.849L24.663,13.849z"/>
	<path fill-rule="evenodd" clip-rule="evenodd" fill="#FFCD7B" d="M36.081,10.229V9.904c-0.047-0.093-0.186-0.186-0.418-0.139
		c-0.604,0.418-1.068,0.928-1.393,1.393c-0.51,0.649-0.928,1.438-1.299,2.32l-0.883,2.506v0.046v0.046l-0.047,0.047v0.046
		l-0.045,0.186c-0.141,0.557-0.371,1.067-0.744,1.578c-0.416,0.696-1.16,0.928-2.088,0.649l-2.227-0.881h-0.789
		c0.371,0.232,0.695,0.557,0.975,0.974l0.139,0.047h-0.094c0.232,0.417,0.465,0.928,0.604,1.485
		c0.094,1.114-0.045,2.228-0.371,3.435l-1.113,3.063c-1.114,2.367-1.81,4.501-1.95,6.496l-0.046,0.465
		c-0.047,0.186-0.093,0.278-0.14,0.325c0-0.464-0.139-1.253-0.371-2.274L23.456,30l-0.649-1.439
		c-0.325-0.51-0.742-0.835-1.207-1.021l-1.392,0.094c-0.465,0.186-0.789,0.465-1.067,0.881l0.186-1.205l0.093-0.279l0.324-0.511
		l0.232-0.231l0.046-0.094l0.14,0.047h0.047c0.371,0.047,1.067,0.278,2.088,0.789c-0.835-2.135-1.299-3.574-1.438-4.456
		l-0.046-1.624v-0.046l0.046-0.278l0.093-0.604h0.047l0.046-0.186V19.79l0.093-0.325l0.047-0.139
		c0.186-0.325,0.417-0.557,0.742-0.789c0.418-0.325,0.882-0.51,1.393-0.603c0.139-0.139,0.186-0.325,0.046-0.604l-0.093-0.418
		c0.047-0.186,0-0.278-0.139-0.325c-0.093,0.046-0.14,0.186-0.14,0.418c0,0.232-0.047,0.417-0.093,0.464l-1.764,0.371l-1.856,0.789
		l-0.742,0.093c-0.789,0.046-1.393-0.464-1.811-1.532c-0.51-1.764-0.975-3.109-1.392-3.991c-0.65-1.393-1.485-2.506-2.507-3.435
		c-0.186-0.093-0.324-0.093-0.417,0.046l-0.14,0.464c-2.46,2.831-3.945,5.708-4.455,8.725c-0.372,1.996-0.325,4.038,0.186,6.08
		c0.324,1.021,0.557,1.718,0.789,1.949c0.093-0.047,0.046-0.139,0-0.231c-0.093-0.14-0.14-0.232-0.047-0.325L8.559,25.87
		l-0.093-0.743c-0.325-1.996-0.325-3.991,0.139-5.894c0.604-2.321,1.347-4.223,2.182-5.662c0.047,0,0.093-0.046,0.093-0.139
		l0.14-0.046l-0.047,0.186c-0.371,4.316,0.278,7.797,1.856,10.489l-0.511-1.949c-0.231-1.021-0.371-1.996-0.417-2.877
		c-0.186-2.042-0.14-3.759,0.046-5.151c0-1.021,0.278-2.042,0.836-2.971c0-0.093,0.093-0.139,0.186-0.139l0.231,0.046
		c0.604,0.789,1.114,1.81,1.439,3.063c0.139,0.557,0.371,1.67,0.649,3.48l0.511,2.321c0.278,0.882,0.696,1.485,1.346,1.856
		c0.882,0.232,1.717-0.232,2.599-1.393l-0.093,1.856c0.279,1.346,0.789,2.553,1.485,3.62L21.09,25.87l-0.882-0.418l-0.975,0.047
		c-0.325,0.371-0.558,0.975-0.65,1.717l-0.139,1.949c-0.093,0.232-0.325,0.371-0.696,0.511s-0.649,0.278-0.743,0.418l-0.046,0.325
		l0.186,0.186l0.047-0.094l1.902-0.371c0-0.742,0.371-1.346,1.114-1.717l1.206,0.092l0.325,0.279l0.14,0.139
		c0.557,0.65,1.021,1.578,1.346,2.832c0.139,0.463,0.278,0.975,0.371,1.578c0.325,1.717,0.511,3.898,0.557,6.59l0.047,0.047
		l0.186-2.553c0-1.068,0.046-1.902,0.186-2.461c0-0.463,0.093-0.974,0.232-1.577l0.324-1.532c0.278-0.928,0.51-1.67,0.79-2.135
		c0.139-0.277,0.324-0.51,0.51-0.695v-0.047h0.047c0.324-0.324,0.695-0.51,1.066-0.649c0.559-0.093,0.977,0.14,1.393,0.696
		l0.232,0.604l0.139,0.324L30,30.325l1.393,0.325l0.092-0.372c-0.092-0.277-0.557-0.51-1.346-0.742
		C30.047,29.397,30,29.211,30,28.979l-0.279-2.273c-0.139-0.604-0.418-1.068-0.789-1.3l-0.602,0.046l-0.512,0.232
		c-0.232,0.186-0.324,0.186-0.418,0.186l1.068-2.32c0.23-0.882,0.371-1.764,0.324-2.599L28.7,20.625
		c-0.045-0.093-0.045-0.186,0-0.279l0.326,0.511c0.139,0.232,0.277,0.417,0.418,0.51c0.51,0.418,1.02,0.557,1.438,0.464
		c0.65-0.232,1.16-0.928,1.625-2.088l1.021-4.548c0.371-1.856,0.975-3.249,1.764-4.224c0.232,0.046,0.463,0.232,0.604,0.511
		l0.324,0.743l0.324,2.785c0.186,1.902,0.047,4.27-0.463,7.193c-0.094,0.093-0.094,0.186-0.094,0.325l-0.463,1.531h0.045
		c0.883-1.439,1.439-3.109,1.719-5.059l0.186-1.996c0.092-0.835,0.139-1.532,0.045-2.089l-0.092-0.696
		c-0.047-0.278-0.047-0.557,0-0.743l1.021,1.764l1.02,2.831l0.559,2.506c0.23,1.392,0.139,3.109-0.188,5.105
		c-0.092,0.418-0.186,0.882-0.23,1.346H39.7c0.557-1.113,0.883-2.228,0.975-3.341c0.186-1.717,0.139-3.388-0.186-4.919l-0.463-1.625
		C39.514,15.056,38.168,12.735,36.081,10.229L36.081,10.229z"/>
	<polygon fill-rule="evenodd" clip-rule="evenodd" fill="#BF4E51" points="27.168,18.723 27.262,18.723 27.124,18.676 
		27.168,18.723 	"/>
	<polygon fill-rule="evenodd" clip-rule="evenodd" fill="#BF4E51" points="26.426,28.979 26.426,29.026 26.473,28.979 
		26.426,28.979 	"/>
	<polygon fill-rule="evenodd" clip-rule="evenodd" fill="#BF4E51" points="30,30.325 29.303,29.954 29.444,30.186 30,30.325 	"/>
	<polygon fill-rule="evenodd" clip-rule="evenodd" fill="#BF4E51" points="21.879,28.932 21.739,28.793 21.879,28.932 	"/>
	<polygon fill-rule="evenodd" clip-rule="evenodd" fill="#BF4E51" points="20.021,26.194 19.976,26.288 20.161,26.241 
		20.021,26.194 	"/>
	<polygon fill-rule="evenodd" clip-rule="evenodd" fill="#BF4E51" points="17.145,30.604 16.959,30.418 17.099,30.65 17.145,30.604 
			"/>
	<polygon fill-rule="evenodd" clip-rule="evenodd" fill="#BF4E51" points="24.199,39.979 24.152,39.932 24.152,39.979 
		24.199,39.979 	"/>
	<path fill-rule="evenodd" clip-rule="evenodd" fill="#FFCD7B" d="M26.149,13.292c-0.326-0.093-0.557,0.046-0.65,0.278l0.094,0.278
		c0,0.186,0.045,0.232,0.139,0.232c0.324-0.279,0.463-0.511,0.418-0.743V13.292L26.149,13.292z"/>
	<path fill-rule="evenodd" clip-rule="evenodd" fill="#FFCD7B" d="M24.756,14.082l-0.093-0.232
		c-0.186-0.186-0.464-0.278-0.836-0.278c-0.139,0.046-0.324,0.232-0.51,0.604l0.046,0.186l0.186,0.186h0.65
		c0.278,0,0.464-0.093,0.557-0.232V14.082L24.756,14.082z"/>
</g>
</svg>
