<?xml version="1.0" encoding="utf-8"?>
<!-- Generator: Adobe Illustrator 16.0.0, SVG Export Plug-In . SVG Version: 6.00 Build 0)  -->
<!DOCTYPE svg PUBLIC "-//W3C//DTD SVG 1.1//EN" "http://www.w3.org/Graphics/SVG/1.1/DTD/svg11.dtd">
<svg version="1.1" id="Layer_1" xmlns="http://www.w3.org/2000/svg" xmlns:xlink="http://www.w3.org/1999/xlink" x="0px" y="0px"
	 width="165.208px" height="196.481px" viewBox="0 0 165.208 196.481" enable-background="new 0 0 165.208 196.481"
	 xml:space="preserve">
<g>
	<g>
		<path fill-rule="evenodd" clip-rule="evenodd" fill="#E37EB2" d="M50.758,16.865c12.867,1.112,24.875,4.889,30.455,14.081
			c1.783,2.938,3.111,7.004,3.111,11.297c0,10.085-7.662,15.144-15.555,17.684c3.712,1.642,7.367,3.815,9.988,6.877
			c2.107,2.461,4.001,6.136,3.438,11.298c-0.327,2.997-1.93,6.569-3.438,8.842c-6.255,9.418-20.579,11.446-35.203,9.333l0.818-6.222
			c5.226,0.941,10.751,0.443,14.409-1.965c2.919-1.922,5.297-5.297,5.73-9.005c0.262-2.243-0.194-4.135-0.982-5.567
			c-2.384-4.333-8.385-6.714-13.917-7.696l0.655-9.497c8.615,0.765,16.134-3.72,16.21-11.461c0.049-5.01-4.403-7.543-8.678-9.005
			c-2.366-0.809-5.153-1.525-8.351-1.801L50.758,16.865z"/>
		<path fill-rule="evenodd" clip-rule="evenodd" fill="#085EAA" d="M47.483,19.648c-1.911,23.565-4.753,50.429-6.877,75.155
			c-2.902-0.155-5.654-0.458-8.514-0.655c-1.64-24.664-3.646-48.63-5.239-73.681L47.483,19.648z"/>
		<path fill-rule="evenodd" clip-rule="evenodd" fill="#E37EB2" d="M114.287,26.034c-6.513,25.714-12.319,51.612-18.666,77.774
			c-3.796-0.971-7.668-1.627-10.97-2.619l12.115-78.757L114.287,26.034z"/>
		<path fill-rule="evenodd" clip-rule="evenodd" fill="#085EAA" d="M103.972,79.902c0.881-3.049,1.612-6.247,2.455-9.333
			c5.283-0.638,10.543-2.003,13.59-5.076c2.221-2.237,3.656-6.943,2.129-10.643c-1.643-3.982-6.074-6.316-10.314-7.859l4.093-18.011
			c8.445,1.519,16.245,4.661,21.122,9.988c5.09,5.56,7.263,15.139,3.602,24.069c-3.523,8.595-11.418,13.637-21.285,16.209
			l5.895,25.542l-9.66,0.491L103.972,79.902z"/>
		<path fill-rule="evenodd" clip-rule="evenodd" fill="#085EAA" d="M98.241,121.655c-1.123-1.225-2.241-2.453-3.275-3.766
			l-10.643,7.858c1.032-5.081,2.221-10.005,3.111-15.228l-5.403-0.982c-1.65,9.484-3.672,18.597-5.403,27.999l11.497-8.448
			l4.386,8.284l4.912-2.456l-4.92-9.047L98.241,121.655z"/>
		<path fill-rule="evenodd" clip-rule="evenodd" fill="#085EAA" d="M77.61,118.871c-1.89,0.011-4.504,0.824-4.749,2.784
			c-0.131,1.055,0.925,3.828,1.31,5.076c0.882,2.854,2.328,5.592,0.327,8.186c-1.593,2.065-4.697,3.193-8.351,3.439
			c-0.488-1.095-0.665-2.502-1.146-3.603c1.895-0.126,4.614-0.767,4.912-2.784c0.18-1.223-0.797-2.93-1.31-4.584
			c-0.46-1.484-1.144-3.283-1.31-4.585c-0.683-5.36,4.252-6.806,9.005-7.695c0.109,0,0.218,0,0.328,0
			C76.892,116.335,77.699,117.828,77.61,118.871z"/>
		<path fill-rule="evenodd" clip-rule="evenodd" fill="#085EAA" d="M128.204,150.309c0.3,1.283,0.75,2.415,0.982,3.766
			c-1.751,0.148-4.406,0.567-4.748,2.62c-0.195,1.172,0.672,3.16,1.146,4.912c0.801,2.959,2.258,6.792,0,9.333
			c-1.527,1.718-4.33,2.697-7.859,2.783c-0.387-1.196-0.739-2.428-0.982-3.767c1.825-0.131,4.492-0.66,4.748-2.783
			c0.143-1.19-0.934-3.82-1.311-5.239c-0.604-2.277-1.932-4.774-0.981-7.204C120.309,151.894,123.954,150.437,128.204,150.309z"/>
		<path fill-rule="evenodd" clip-rule="evenodd" fill="#085EAA" d="M5.403,175.688L0,175.032L10.806,0L161.77,21.122l-0.491,4.093
			l3.93,0.492l-16.864,170.775L5.628,176.696L5.403,175.688z M12.771,2.292L2.128,173.231l141.303,17.52
			c5.357-57.133,10.85-112.232,16.046-167.992L12.771,2.292z"/>
	</g>
	<g>
		<g>
			<path fill="#085EAA" d="M136.579,149.917c0.802,0.165,1.527,0.526,2.182,1.079c0.652,0.552,1.111,1.246,1.377,2.082
				c0.266,0.835,0.314,1.66,0.145,2.479c-0.168,0.812-0.535,1.545-1.1,2.198c-0.568,0.651-1.262,1.107-2.084,1.367
				c-0.824,0.261-1.643,0.305-2.455,0.137c-0.813-0.169-1.546-0.535-2.198-1.102c-0.653-0.565-1.108-1.259-1.368-2.083
				s-0.305-1.642-0.137-2.454c0.17-0.817,0.542-1.557,1.117-2.217c0.576-0.661,1.273-1.115,2.092-1.363
				S135.778,149.751,136.579,149.917z M136.395,150.85c-0.642-0.133-1.292-0.1-1.945,0.099c-0.656,0.198-1.216,0.562-1.679,1.092
				c-0.463,0.529-0.764,1.123-0.898,1.78c-0.136,0.653-0.1,1.309,0.107,1.969c0.209,0.662,0.576,1.221,1.1,1.676
				c0.524,0.455,1.11,0.75,1.762,0.885c0.652,0.136,1.309,0.099,1.969-0.111s1.217-0.577,1.674-1.101
				c0.455-0.522,0.752-1.109,0.887-1.763c0.137-0.657,0.097-1.321-0.118-1.992c-0.215-0.669-0.584-1.226-1.108-1.669
				C137.618,151.271,137.036,150.982,136.395,150.85z M132.985,156.649l1.023-4.935l1.005,0.208c0.942,0.195,1.47,0.31,1.581,0.341
				c0.326,0.098,0.572,0.217,0.736,0.358c0.163,0.142,0.285,0.33,0.365,0.568c0.078,0.239,0.092,0.488,0.038,0.747
				c-0.073,0.356-0.253,0.636-0.538,0.841c-0.286,0.204-0.646,0.294-1.08,0.267c0.139,0.088,0.242,0.174,0.309,0.258
				c0.068,0.084,0.154,0.232,0.258,0.449c0.026,0.057,0.107,0.281,0.242,0.677l0.373,1.115l-1.25-0.26l-0.244-0.883
				c-0.164-0.596-0.325-0.981-0.479-1.158c-0.155-0.178-0.372-0.295-0.652-0.353l-0.262-0.055l-0.419,2.022L132.985,156.649z
				 M134.573,154.052l0.408,0.085c0.579,0.12,0.943,0.172,1.092,0.157c0.148-0.016,0.275-0.07,0.379-0.165
				c0.104-0.094,0.172-0.212,0.201-0.354c0.028-0.138,0.014-0.268-0.043-0.391c-0.057-0.124-0.154-0.223-0.289-0.3
				c-0.137-0.077-0.49-0.176-1.062-0.294l-0.406-0.084L134.573,154.052z"/>
		</g>
	</g>
	<path fill-rule="evenodd" clip-rule="evenodd" fill="#085EAA" d="M32.107,111.669c-1.864,0-3.603,0.512-5.091,1.382v-8.097h-5.403
		v26.525h5.403v-2.127c1.489,0.87,3.228,1.381,5.091,1.381c5.442,0,9.869-4.276,9.869-9.532S37.549,111.669,32.107,111.669z
		 M32.107,125.616c-2.621,0-4.753-1.98-4.753-4.415s2.132-4.415,4.753-4.415s4.752,1.98,4.752,4.415S34.728,125.616,32.107,125.616z
		"/>
	<path fill-rule="evenodd" clip-rule="evenodd" fill="#085EAA" d="M61.155,147.651c-1.67-0.271-3.302-0.067-4.763,0.496l1.181-7.255
		l-4.84-0.787l-3.867,23.763l4.84,0.787l0.31-1.905c1.207,0.998,2.69,1.709,4.36,1.979c4.875,0.794,9.464-2.392,10.23-7.1
		C69.372,152.921,66.03,148.445,61.155,147.651z M59.121,160.146c-2.348-0.382-3.969-2.467-3.614-4.648
		c0.355-2.181,2.554-3.645,4.902-3.263c2.347,0.382,3.968,2.467,3.613,4.648C63.667,159.065,61.469,160.528,59.121,160.146z"/>
	<path fill-rule="evenodd" clip-rule="evenodd" fill="#085EAA" d="M80.959,146.228c-1.683-0.179-3.301,0.114-4.729,0.758l0.78-7.309
		l-4.876-0.52l-2.555,23.938l4.876,0.52l0.205-1.919c1.26,0.93,2.779,1.558,4.461,1.737c4.912,0.523,9.319-2.909,9.825-7.652
		C89.454,151.037,85.87,146.752,80.959,146.228z M79.615,158.816c-2.365-0.254-4.098-2.245-3.864-4.443
		c0.235-2.197,2.35-3.779,4.715-3.527c2.365,0.253,4.098,2.245,3.863,4.442C84.095,157.486,81.979,159.068,79.615,158.816z"/>
	<path fill-rule="evenodd" clip-rule="evenodd" fill="#085EAA" d="M43.065,123.839c-1.137,5.131,2.26,10.265,7.573,11.442
		c1.82,0.403,3.627,0.28,5.27-0.247l-0.46,2.076l5.275,1.17l4.291-20.184l-5.275-1.169l-0.302,2.192
		c-1.266-1.173-2.852-2.049-4.672-2.451C49.451,115.491,44.203,118.708,43.065,123.839z M48.061,124.946
		c0.527-2.377,3.037-3.85,5.595-3.282c2.559,0.567,4.212,2.962,3.685,5.339c-0.527,2.377-3.037,3.85-5.596,3.283
		C49.187,129.719,47.534,127.323,48.061,124.946z"/>
	<g>
		<g>
			<path fill-rule="evenodd" clip-rule="evenodd" fill="#085EAA" d="M30.502,151.972c0,4.768,4.103,8.646,9.146,8.646
				c5.043,0,9.146-3.879,9.146-8.646s-4.103-8.646-9.146-8.646C34.604,143.325,30.502,147.204,30.502,151.972z M34.992,151.972
				c0-2.292,2.089-4.157,4.656-4.157c2.567,0,4.656,1.865,4.656,4.157c0,1.079-0.463,2.102-1.303,2.881
				c-0.887,0.823-2.078,1.276-3.353,1.276C37.081,156.129,34.992,154.265,34.992,151.972z"/>
		</g>
	</g>
	
		<rect x="90.76" y="148.309" transform="matrix(-0.9809 -0.1945 0.1945 -0.9809 154.324 327.7013)" fill-rule="evenodd" clip-rule="evenodd" fill="#085EAA" width="4.985" height="15.928"/>
	
		<ellipse transform="matrix(0.9809 0.1945 -0.1945 0.9809 29.9336 -15.8252)" fill-rule="evenodd" clip-rule="evenodd" fill="#085EAA" cx="95.569" cy="144.547" rx="2.955" ry="2.703"/>
	
		<rect x="100.643" y="122.996" transform="matrix(-0.9948 -0.1016 0.1016 -0.9948 192.8803 273.4713)" fill-rule="evenodd" clip-rule="evenodd" fill="#085EAA" width="5.526" height="17.654"/>
	<polygon fill-rule="evenodd" clip-rule="evenodd" fill="#085EAA" points="123.028,134.797 124.587,125.755 130.027,126.719 
		126.229,147.437 115.523,133.149 113.964,142.19 108.524,141.227 112.322,120.509 	"/>
	<polygon fill-rule="evenodd" clip-rule="evenodd" fill="#085EAA" points="111.345,158.976 112.811,150.475 117.57,151.227 
		114.354,170.861 104.462,157.021 103.448,165.36 98.333,164.454 101.538,144.063 	"/>
	
		<ellipse transform="matrix(0.9948 0.1015 -0.1015 0.9948 12.5846 -10.0194)" fill-rule="evenodd" clip-rule="evenodd" fill="#085EAA" cx="104.74" cy="118.643" rx="3.276" ry="2.995"/>
	<path fill="#085EAA" d="M26.958,139.284l0.125-2.353l-6.146-0.271l-0.958,22.508l6.032,0.266l0.386-9.069
		c0.039-4.155,2.171-7.481,6.38-6.376l0.28-5.572C31.137,137.771,27.876,138.488,26.958,139.284z"/>
</g>
</svg>
