<?xml version="1.0" encoding="utf-8"?>
<!-- Generator: Adobe Illustrator 16.0.0, SVG Export Plug-In . SVG Version: 6.00 Build 0)  -->
<!DOCTYPE svg PUBLIC "-//W3C//DTD SVG 1.1//EN" "http://www.w3.org/Graphics/SVG/1.1/DTD/svg11.dtd">
<svg version="1.1" id="Layer_1" xmlns="http://www.w3.org/2000/svg" xmlns:xlink="http://www.w3.org/1999/xlink" x="0px" y="0px"
	 width="30.925px" height="30.925px" viewBox="0 0 30.925 30.925" enable-background="new 0 0 30.925 30.925" xml:space="preserve">
<g>
	<polygon fill-rule="evenodd" clip-rule="evenodd" fill="#231F20" points="0,0 30.925,0 30.925,30.925 0,30.925 0,0 	"/>
	<path fill-rule="evenodd" clip-rule="evenodd" fill="#FFFFFF" d="M2.259,15.551v8.125h26.43V15.59h-8.355
		c0,0,1.188-1.028,0.941-3.796c-0.15-1.674-1.484-3.756-2.818-4.399c0,0,0.297-0.988-0.248-1.878
		c-0.508-0.832-2.004-0.653-2.916-0.197c-0.594,0.296-1.829,1.285-2.076,1.532c-0.247,0.247-1.729,0.494-2.669,1.334
		C9.955,8.829,9.263,9.57,9.263,11.25c0.222,0.499-0.396,2.323,0.841,4.339L2.259,15.551L2.259,15.551z"/>
	<path fill-rule="evenodd" clip-rule="evenodd" fill="#EF3E42" d="M18.273,10.233c0.07,0.146,0.115,0.413,0,0.536
		c-0.053-0.069-0.145-0.077-0.105-0.184c0.029,0.008,0.045-0.03,0.061-0.046c-0.053-0.123-0.154-0.199-0.291-0.222
		c-0.252,0.015-0.168,0.275-0.328,0.413c0.014,0.038-0.023,0.054-0.039,0.084c-0.031-0.046-0.107,0-0.129-0.069
		c-0.062-0.191,0.129-0.268,0.068-0.413c-0.031-0.077,0.061-0.107,0.1-0.16c0.213,0.045,0.328-0.191,0.52-0.023
		C18.175,10.18,18.197,10.264,18.273,10.233L18.273,10.233z"/>
	<path fill-rule="evenodd" clip-rule="evenodd" fill="#FFFFFF" d="M12.354,10.333c-0.092,0-0.191-0.015-0.253,0.062
		c0.008,0.03-0.015,0.069,0.023,0.084c-0.107,0-0.222,0-0.268,0.084h-0.084C11.895,10.364,12.17,10.256,12.354,10.333L12.354,10.333
		z"/>
	<path fill-rule="evenodd" clip-rule="evenodd" fill="#EF3E42" d="M16.966,10.44c-0.078,0.023-0.215,0.053-0.27-0.046
		c-0.021-0.107,0.109-0.023,0.146-0.077C16.896,10.333,16.998,10.348,16.966,10.44L16.966,10.44z"/>
	<path fill-rule="evenodd" clip-rule="evenodd" fill="#EF3E42" d="M13.325,10.356c-0.085,0.077-0.207,0.153-0.314,0.207
		c-0.038-0.023-0.045-0.061-0.038-0.099C13.057,10.333,13.218,10.348,13.325,10.356L13.325,10.356z"/>
	<path fill-rule="evenodd" clip-rule="evenodd" fill="#EF3E42" d="M13.425,10.479c0.03,0.054-0.062,0.084,0,0.13
		c0.045-0.099,0.114,0,0.168,0c0.038,0.123-0.184,0.138-0.268,0.207c-0.161,0.077-0.062-0.191-0.229-0.145
		c0.022-0.13,0.183-0.176,0.29-0.229L13.425,10.479L13.425,10.479z"/>
	<path fill-rule="evenodd" clip-rule="evenodd" fill="#EF3E42" d="M16.468,10.646v0.039c-0.221-0.015-0.39-0.046-0.581-0.039
		c0.022-0.107,0.137-0.053,0.19-0.122C16.231,10.501,16.369,10.54,16.468,10.646L16.468,10.646z"/>
	<path fill-rule="evenodd" clip-rule="evenodd" fill="#EF3E42" d="M13.631,10.746c0.076,0.13-0.107,0.153-0.206,0.214
		c-0.039-0.008-0.093,0.016-0.123-0.023v-0.046C13.425,10.869,13.523,10.785,13.631,10.746L13.631,10.746z"/>
	<path fill-rule="evenodd" clip-rule="evenodd" fill="#EF3E42" d="M14.647,10.876c-0.176,0.092-0.366,0.138-0.52,0.291
		c-0.046-0.054,0.03-0.107,0.068-0.146c0.153-0.092,0.269-0.291,0.451-0.207V10.876L14.647,10.876z"/>
	<path fill-rule="evenodd" clip-rule="evenodd" fill="#EF3E42" d="M18.212,10.892c-0.123-0.107-0.16,0.229-0.229,0.022
		c0.1-0.03,0.113-0.045,0.145-0.145C18.167,10.822,18.281,10.8,18.212,10.892L18.212,10.892z"/>
	<path fill-rule="evenodd" clip-rule="evenodd" fill="#EF3E42" d="M11.833,10.876c-0.03,0.092-0.092,0.222-0.206,0.229l-0.184-0.022
		c-0.054-0.092,0.236-0.138,0.061-0.191C11.565,10.731,11.727,10.822,11.833,10.876L11.833,10.876z"/>
	<path fill-rule="evenodd" clip-rule="evenodd" fill="#EF3E42" d="M12.705,11.037c0.069,0.007,0.146,0.015,0.184,0.084
		c-0.046,0.138,0.107,0.237-0.062,0.313c-0.106-0.008-0.152-0.061-0.206-0.146c-0.062,0.023-0.031,0.107-0.106,0.084
		c0-0.023,0.007-0.054-0.016-0.061c0.022,0.183-0.207,0.061-0.229,0.16c-0.077-0.007-0.169,0.03-0.207-0.061
		c0.016-0.084,0.123-0.084,0.161-0.084c0.03-0.084-0.107-0.053-0.077-0.145c0.092-0.168,0.321,0.092,0.353-0.145
		C12.583,11.021,12.659,11.174,12.705,11.037L12.705,11.037z"/>
	<path fill-rule="evenodd" clip-rule="evenodd" fill="#EF3E42" d="M11.711,11.205c-0.16,0.122-0.092,0.498-0.375,0.352
		c0.046-0.114,0-0.275,0.107-0.375L11.711,11.205L11.711,11.205z"/>
	<path fill-rule="evenodd" clip-rule="evenodd" fill="#EF3E42" d="M17.669,11.327c-0.068,0.046-0.145,0.008-0.207-0.038l0.023-0.107
		C17.585,11.182,17.617,11.259,17.669,11.327L17.669,11.327z"/>
	<path fill-rule="evenodd" clip-rule="evenodd" fill="#EF3E42" d="M17.669,11.412c-0.047,0.015-0.084,0.061-0.145,0.046v-0.069
		C17.562,11.427,17.623,11.404,17.669,11.412L17.669,11.412z"/>
	<path fill-rule="evenodd" clip-rule="evenodd" fill="#EF3E42" d="M17.73,11.496c-0.029,0.092-0.168,0.092-0.205,0H17.73
		L17.73,11.496z"/>
	<path fill-rule="evenodd" clip-rule="evenodd" fill="#EF3E42" d="M12.308,11.557c0.061,0.107-0.107,0.054-0.146,0.123
		c0.062,0.061,0.222-0.03,0.206,0.107c-0.046,0.069-0.16,0.046-0.222,0.023c-0.084-0.038-0.022-0.084,0-0.13
		c-0.061-0.03-0.146-0.099-0.084-0.161C12.132,11.557,12.238,11.519,12.308,11.557L12.308,11.557z"/>
	<path fill-rule="evenodd" clip-rule="evenodd" fill="#EF3E42" d="M12.537,11.947c-0.038,0.068-0.115,0.084-0.169,0.046
		c-0.022-0.023-0.046-0.062-0.076-0.062c0.03-0.061,0.122-0.061,0.184-0.084C12.529,11.855,12.537,11.909,12.537,11.947
		L12.537,11.947z"/>
	<path fill-rule="evenodd" clip-rule="evenodd" fill="#EF3E42" d="M13.278,12.016c0,0.016,0.016,0.031,0.023,0.039
		c-0.046,0.023-0.084,0.054-0.146,0.038v-0.077H13.278L13.278,12.016z"/>
	<path fill-rule="evenodd" clip-rule="evenodd" fill="#EF3E42" d="M17.341,12.781c-0.184,0.084-0.43,0.1-0.643,0.061
		c-0.115-0.023-0.184-0.122-0.314-0.122c0.015,0.115,0.144,0.222,0.251,0.268c-0.129,0.275-0.458,0.397-0.749,0.375
		c-0.253-0.429-0.36,0.222-0.658,0.184c-0.207-0.016-0.454-0.03-0.643-0.146c0.069-0.092,0.184-0.199,0.146-0.313
		c-0.283,0.191-0.589,0.336-0.972,0.275l0.016,0.061c0.244,0.207,0.322,0.016,0.642,0.061c0.746,0.089,0.688,0.688,1.057,0.887
		c0.879,0.184,0.607-0.696,0.875-0.913c0.376-0.363,0.845-0.387,1.013-0.663L17.341,12.781L17.341,12.781z M15.788,14.211
		c-0.269,0.152-0.391-0.161-0.498-0.314v-0.038c0.191-0.115,0.299,0.1,0.437,0.184c0.054-0.077,0.054-0.168,0.084-0.252
		c0.062,0.015,0.115,0.046,0.16,0.107C15.956,14.012,15.856,14.112,15.788,14.211L15.788,14.211z"/>
	<path fill-rule="evenodd" clip-rule="evenodd" fill="#EF3E42" d="M15.826,14.517c0.076-0.053,0.13-0.146,0.229-0.146
		c-0.016,0.13-0.122,0.26-0.245,0.313c-0.168,0.054-0.337-0.007-0.459-0.107c-0.084-0.106-0.191-0.207-0.183-0.352
		C15.321,14.441,15.565,14.578,15.826,14.517L15.826,14.517z"/>
	<path fill-rule="evenodd" clip-rule="evenodd" fill="#EF3E42" d="M14.671,14.724c0.038,0.054,0.016,0.123,0.016,0.191
		c-0.054,0.046-0.123,0-0.161-0.046v-0.291C14.595,14.586,14.663,14.655,14.671,14.724L14.671,14.724z"/>
	<path fill-rule="evenodd" clip-rule="evenodd" fill="#EF3E42" d="M16.369,14.808c-0.022,0.053,0.046,0.183-0.062,0.168h-0.046
		v-0.252C16.315,14.708,16.354,14.77,16.369,14.808L16.369,14.808z"/>
	<path fill-rule="evenodd" clip-rule="evenodd" fill="#EF3E42" d="M16.178,14.93c0.046,0.107-0.084,0.146-0.146,0.191
		c-0.184-0.153-0.291,0.207-0.451,0l-0.062-0.252c0.146,0.076,0.291,0.03,0.437,0.046c0.008-0.054-0.03-0.123,0.038-0.146
		C16.086,14.792,16.132,14.854,16.178,14.93L16.178,14.93z"/>
	<path fill-rule="evenodd" clip-rule="evenodd" fill="#EF3E42" d="M15.474,15.015c0.016,0.053,0,0.138-0.076,0.107h-0.069
		c-0.015-0.1-0.053-0.207-0.038-0.291C15.382,14.861,15.443,14.922,15.474,15.015L15.474,15.015z"/>
	<path fill-rule="evenodd" clip-rule="evenodd" fill="#EF3E42" d="M14.112,15.695c-0.038-0.077-0.153-0.168-0.206-0.145
		c-0.046,0.084-0.023,0.214,0.062,0.252c0.03,0.038,0.068,0.061,0.122,0.061L14.112,15.695L14.112,15.695z"/>
	<path fill-rule="evenodd" clip-rule="evenodd" fill="#EF3E42" d="M27.771,16.474l-8.939,0.009c0.689-0.795,1.285-1.629,1.531-2.608
		c0.488-2.004-0.092-4.069-1.723-5.4c-0.213-0.176-0.459-0.321-0.656-0.497c0.045-0.069,0.037-0.176,0.145-0.206
		c0.803,0.466,1.514,1.231,1.988,2.026c1.01,1.675,0.902,4.169-0.229,5.752c-0.146,0.245-0.375,0.436-0.498,0.688h8.361V16.06
		l-8.047,0.01c0.596-0.796,1.002-1.675,1.178-2.646c0.389-2.34-0.705-4.605-2.73-5.798c0.137-0.573,0.191-1.277-0.131-1.782
		c-0.305-0.443-0.764-0.604-1.285-0.581c-1.247,0.191-2.294,1.01-3.205,1.889c-0.833,0.336-1.645,0.719-2.425,1.178
		c-0.918,0.696-1.606,1.767-1.3,2.96c-0.383,1.667,0.022,3.396,1.009,4.659c0.008,0.053,0.115,0.084,0.047,0.145H2.686v0.146h8.421
		c0.038,0.084,0.1,0.191,0.107,0.267H2.7v0.473l8.636,0.002c-0.008,0.16,0.184,0.207,0.268,0.313
		c-0.114,0.207,0.172,0.222,0.188,0.397h-1.365v5.566h1.591l-0.006-3.434c0.291,1.133,0.553,2.301,0.852,3.433h1.529
		c0.283-1.132,0.509-2.307,0.792-3.438l-0.008,3.438h1.644v-5.565h-1.892c-0.307,0-0.548,0.238-0.692,0.49
		c-0.329,0.766-0.367,1.645-0.604,2.447h-0.016c-0.16-0.573-0.268-1.162-0.397-1.744c-0.03-0.13-0.03-0.313,0.13-0.367
		c-0.022-0.061-0.022-0.121-0.069-0.168c-0.114,0.062-0.328,0.168-0.352,0.329c-0.068-0.069,0.062-0.161-0.015-0.207
		c-0.085,0.046-0.207,0.031-0.253,0.122c-0.152,0.008-0.038-0.19-0.184-0.205c-0.046,0.061-0.092-0.008-0.122-0.039
		c-0.184-0.046-0.146-0.252-0.353-0.145c0-0.115,0.138-0.016,0.161-0.123c-0.016-0.176-0.176-0.1-0.306-0.145
		c0.076-0.016,0.16-0.047,0.222-0.107c0.068-0.131-0.138-0.107-0.161-0.207c0.176-0.13-0.138-0.152-0.122-0.291
		c0.176-0.221-0.176-0.191-0.253-0.328c-0.061-0.123-0.045-0.238-0.022-0.375c-0.03-0.068-0.16-0.1-0.145-0.207
		c0.037-0.107-0.062-0.268-0.016-0.413c0.084-0.061,0.152-0.13,0.244-0.168c0.038-0.068-0.076-0.13,0.023-0.184
		c0.022-0.16,0.199-0.229,0.268-0.375c0.184,0,0.122-0.199,0.291-0.23c0.03-0.099,0.145-0.183,0.229-0.244
		c0.184,0.038,0.146-0.26,0.353-0.123c0.015-0.03,0.054-0.045,0.038-0.084c0.03-0.092,0.146-0.123,0.206-0.107
		c0.092-0.115,0.199-0.184,0.337-0.245c0.107,0.054,0.161,0.184,0.184,0.268c0.122-0.13,0.13,0.138,0.291,0.046
		c0.008,0.237,0.313,0.031,0.29,0.283c0.069,0.007,0.069-0.038,0.123-0.077c0.084-0.016,0.1,0.115,0.183,0.077
		c0.077-0.054,0.016-0.153,0-0.222c-0.046-0.031-0.122-0.1-0.183-0.046c-0.092-0.191-0.345-0.161-0.437-0.352
		c-0.054,0-0.084,0.123-0.146,0.061c-0.015-0.061-0.038-0.168-0.122-0.1c-0.184,0.008-0.106-0.206-0.184-0.291
		c-0.084-0.023-0.054,0.084-0.13,0.084c-0.1-0.077,0.016-0.191-0.016-0.268c-0.1-0.023-0.084,0.137-0.168,0.076
		c-0.068-0.122,0.022-0.229,0.084-0.329h-0.022c-0.222,0.062,0.007-0.168-0.085-0.245c-0.084-0.038-0.145,0.077-0.206-0.023
		c0.03-0.084,0.107-0.176,0.168-0.229c-0.152-0.077,0.016-0.184,0.023-0.268l-0.069-0.038c0.1-0.099,0.1-0.222,0.13-0.359
		c0.023-0.061,0.115-0.038,0.1-0.122c-0.146-0.13-0.176,0.115-0.306,0.122c0.046,0.115-0.084,0.176-0.13,0.229
		c-0.076-0.038-0.199,0.092-0.268-0.038c-0.168,0.214-0.199-0.153-0.391-0.062l0.038-0.13h-0.206l-0.023-0.138
		c-0.038,0.016-0.092,0.062-0.145,0.016c-0.023-0.046,0.053-0.062,0.046-0.1c-0.062-0.039-0.077,0.1-0.123,0.015
		c0-0.046-0.016-0.107,0.016-0.145l-0.146-0.016c0-0.039,0.046-0.061,0.062-0.084c-0.016-0.061,0.038-0.168-0.039-0.183
		c-0.504-0.007-1.017,0.053-1.407-0.291c-0.26-0.207-0.168-0.62-0.184-0.872c0.153-1.033,1.048-1.913,1.966-2.379
		c0.405-0.183,0.804-0.443,1.217-0.542c-0.085,0.206-0.329,0.382-0.329,0.582c0.413-0.398,0.796-0.803,1.224-1.201
		c0.949-0.856,2.073-1.683,3.397-1.361c0.359,0.168,0.482,0.543,0.559,0.887c0.105,0.987-0.383,1.889-1.225,2.401
		c-0.184-0.267-0.306-0.558-0.452-0.826c-0.084-0.1,0.046-0.161,0.122-0.168c-0.007-0.038,0.016-0.092-0.022-0.122
		c0.108-0.146,0.375-0.077,0.543-0.062c-0.176-0.161-0.391-0.222-0.643-0.191c-0.757,0.275-1.407,0.903-2.096,1.393
		c-0.795,0.62-1.729,0.925-2.524,1.553c-0.038,0.061-0.054,0.153,0.023,0.183l-0.023,0.023c0.031,0.03,0.062,0.061,0.107,0.076
		c0.13,0.039,0.268,0.008,0.367-0.122c0.03-0.062-0.046-0.107-0.016-0.146c0.03,0,0.054,0.046,0.077,0.061
		c0.13,0.054,0.298,0.031,0.352-0.123c0.038,0.023,0.038,0.062,0.069,0.084c0.19,0.008,0.344-0.13,0.474-0.229
		c-0.146-0.191-0.413-0.099-0.604-0.184c0.32-0.222,0.688-0.298,1.017-0.497c0.872-0.437,1.638-1.155,2.463-1.698
		c0.299,0.49,0.498,1.01,0.742,1.515c0.039,0.099,0.123,0.252,0.047,0.329c-1.118,0.077-2.15,0.582-3.106,1.155
		c-0.076,0.038-0.191,0.099-0.146,0.168c0.069,0.062-0.076,0.077-0.038,0.146c0.038,0.076,0.138,0.023,0.206,0.038
		c0.046-0.03,0.138-0.076,0.1-0.16c0.903-0.65,1.913-1.041,3.044-1.117l0.084,0.099c-0.039,0.046-0.107,0-0.145,0.046
		c-0.031,0.077,0.053,0.107,0.084,0.161c0.045,0,0.107,0.015,0.145-0.016c0-0.053,0.008-0.099-0.045-0.13l0.107-0.061
		c0.014-0.092-0.1-0.13-0.086-0.23l0.207-0.038c-0.016-0.045-0.061-0.107-0.021-0.145c0.105-0.053,0.221,0.038,0.229-0.122
		c0.076-0.039,0.092,0.053,0.145,0.061c0.023-0.039,0.023-0.1,0.084-0.107c0.107,0.245,0.262-0.138,0.354,0.107
		c0.121-0.123,0.184,0.022,0.305,0.038c0.131-0.099,0.16,0.084,0.23,0.107c0.121-0.015,0.137,0.115,0.121,0.207
		c0.023,0.053,0.1,0.068,0.146,0.099c0.045,0.061-0.039,0.115-0.062,0.168c0.031,0.069,0.107,0.038,0.146,0.084
		c0.045,0.084-0.076,0.168-0.123,0.229l0.107,0.1c0.016,0.076-0.037,0.13-0.068,0.191c0.291,0.191-0.199,0.214,0.023,0.428
		c-0.031,0.138-0.139,0.016-0.207,0c-0.016,0.038-0.062,0.069-0.023,0.107c-0.076,0.122-0.137-0.046-0.223-0.023
		c-0.014,0.092,0,0.207-0.068,0.291l-0.137-0.038c0,0.313-0.275,0-0.422,0.099c0.016-0.038,0.062-0.068,0.047-0.123
		c-0.047,0.062-0.176,0.062-0.146,0.168h0.023c0.076,0.031,0.23,0.077,0.146,0.207c0.076,0.038,0.189,0,0.221,0.1l-0.123,0.084
		c0.055,0.046-0.006,0.092-0.037,0.123c0.023,0.076,0.145,0.046,0.1,0.146c-0.023,0.015-0.031,0.053-0.062,0.045
		c0,0.084,0.146,0.13,0.062,0.229c0.053,0.031,0.129,0,0.168,0.077c0,0.1-0.107,0.069-0.168,0.107
		c-0.008,0.1,0.123,0.084,0.107,0.184c-0.031,0.046-0.078,0.062-0.131,0.062l0.047,0.145l-0.146,0.046l0.023,0.016
		c0.016,0.038-0.023,0.061-0.047,0.084c0.031,0.061,0.123,0.076,0.17,0.146c0,0.053-0.023,0.092-0.062,0.122
		c-0.176-0.115-0.129,0.13-0.291,0.107c0.023,0.054,0.1,0.107,0.062,0.168h-0.146l-0.021,0.146l-0.146-0.023
		c0.055,0.222-0.236,0.161-0.291,0.268c0.086,0.138-0.121,0.069-0.16,0.146c0,0.046-0.016,0.107,0.023,0.145
		c0.152,0.069,0.207-0.123,0.328-0.206c0.07-0.092,0.223-0.107,0.246,0.022c0.221-0.076,0.113,0.252,0.336,0.161l-0.023,0.146
		l0.1,0.023c0.146,0.069,0.328,0.184,0.314,0.375c-0.084,0-0.184,0.084-0.246-0.023c-0.084,0.1-0.145-0.03-0.252,0
		c-0.023,0.023-0.053,0.046-0.037,0.084c-0.115,0.053-0.275,0.069-0.375,0.038c0.008,0.046,0.076,0.1,0.021,0.146
		c-0.068-0.038-0.16-0.092-0.229-0.061v0.061c0.023,0.061-0.031,0.107-0.084,0.084c-0.1-0.238-0.053-0.536-0.123-0.788
		c-0.045-0.062-0.053-0.199-0.168-0.184v0.016c-0.084,0.069-0.131,0.291-0.268,0.146c0,0.038-0.039,0.061-0.062,0.084
		c0.008,0.077-0.03,0.168,0.062,0.207l-0.023,1.018h-1.071c-0.291-0.291,0.069-0.864-0.313-1.102c-0.138,0.03-0.214-0.1-0.329-0.123
		c-0.13,0.55,0.13,1.254-0.397,1.637c-0.184-0.015-0.398,0.039-0.559-0.038c0.054-0.107,0.062-0.245,0.184-0.291
		c0.046-0.092-0.076-0.153-0.015-0.229l-0.169,0.023v0.099l-0.122,0.023c0.138,0.244-0.252,0.115-0.146,0.375
		c-0.1,0.03-0.076,0.183-0.168,0.222c-0.054,0.022-0.13,0.038-0.1,0.13c-0.138,0.19-0.313-0.03-0.459,0.099
		c0.069,0.023,0.13,0.062,0.206,0.062c0.191,0.029,0.185,0.213,0.291,0.312c0.038-0.061,0.016-0.152,0.107-0.168
		c0.022,0.053-0.031,0.123-0.046,0.191c0.046,0.092,0.092,0.016,0.13,0.1c-0.016,0.008-0.023,0.03-0.046,0.022
		c0.038,0.054,0.084-0.015,0.122-0.022c0.046,0.022,0,0.061-0.015,0.084l0.145,0.023c-0.022,0.053-0.091,0.092-0.068,0.16
		c0.03,0.115,0.106,0.046,0.168,0.084l-0.1,0.084l0.1,0.1c-0.076,0.146-0.283,0.283-0.146,0.459c0.054,0,0.092-0.022,0.123-0.061
		c0.015-0.184,0.306-0.199,0.252-0.414c0.016-0.137-0.107-0.176-0.206-0.206c0.008-0.016,0.022-0.03,0.038-0.022
		c0.046-0.023,0.076-0.023,0.061-0.084c0.077-0.161-0.145-0.146-0.206-0.146c0.03-0.015,0.046-0.053,0.084-0.038v-0.046
		c-0.054-0.092-0.214-0.13-0.268-0.244l0.038-0.039h3.09l0.039,0.039c0.029,0.298,0.328,0.084,0.436,0.268
		c0.291,0.092,0.42-0.229,0.643-0.307h9.996L27.771,16.474L27.771,16.474z M18.724,16.299c-0.344-0.092-0.367,0.245-0.703,0.123
		c-0.084,0.053,0.016,0.238-0.145,0.207c-0.062,0.222-0.383-0.008-0.352,0.268c0,0.001,0,0,0,0.001
		c0.018,0.003,0.033,0.009,0.051,0.024c0.02,0.002,0.037,0.008,0.033,0.043c-0.012-0.019-0.023-0.032-0.033-0.043
		c-0.02-0.002-0.039-0.004-0.051-0.024c-0.059-0.009-0.125,0.042-0.207,0.022c-0.016,0.037-0.053,0.061-0.039,0.107l0.1,0.061
		l-0.1,0.061l-0.045-0.061l-0.016,0.016c-0.039-0.076-0.1-0.207-0.207-0.139l-0.023,0.016c0.031-0.207-0.312-0.176-0.182-0.391
		c-0.131-0.029-0.008-0.19-0.107-0.251h-1.99c0-0.138,0.169-0.245,0.207-0.39v-0.85h0.106c0.084,0.36-0.13,0.888,0.268,1.079h1.14
		c0.054,0.1,0.162,0.176,0.291,0.146c0.07-0.031,0.031-0.099,0.039-0.146c-0.047-0.076-0.137-0.076-0.16-0.168
		c0.045,0.038,0.1,0.13,0.184,0.122c0.137-0.054-0.008-0.176,0.037-0.245l-0.121-0.146l-0.023-0.91
		c0.131-0.046,0.061,0.1,0.107,0.146c-0.023,0.245,0.145,0.559-0.062,0.742c0.047,0.061,0.07,0.137,0.146,0.168l0.268-0.168
		l-0.061-0.1c0.021,0.023,0.061,0.023,0.084,0.062c0.068-0.138,0.236-0.123,0.268-0.268c0.107,0.046,0.312-0.1,0.473,0.039
		c0.086-0.054,0.055-0.115,0.146-0.146c0.268-0.092,0.367,0.137,0.52,0.291c0.031,0.046,0.016,0.107,0.076,0.145l0.047-0.046
		c-0.092,0.207,0.168,0.322,0.023,0.497L18.724,16.299L18.724,16.299z"/>
	<path fill-rule="evenodd" clip-rule="evenodd" fill="#EF3E42" d="M14.235,15.535v0.16c-0.107-0.03-0.123-0.16-0.229-0.222
		c-0.023-0.077,0.046-0.084,0.084-0.107C14.212,15.335,14.189,15.473,14.235,15.535L14.235,15.535z"/>
	<polygon fill-rule="evenodd" clip-rule="evenodd" fill="#EF3E42" points="9.761,23.252 8.146,23.252 8.146,17.707 9.761,17.707 
		9.761,23.252 	"/>
	<path fill="none" stroke="#FFFFFF" stroke-width="1.0001" stroke-miterlimit="2.6131" d="M13.386,18.433
		c-0.022-0.068-0.054-0.145-0.022-0.19 M13.363,18.243l0.191-0.1"/>
	<path fill-rule="evenodd" clip-rule="evenodd" fill="#EF3E42" d="M7.091,20.484c0.589-0.345,0.704-1.177,0.551-1.932
		c-0.115-0.574-0.707-0.861-1.147-0.861H2.746l0.001,5.565h3.651c0.65-0.077,1.153-0.585,1.212-1.075
		C7.699,21.458,7.634,20.835,7.091,20.484L7.091,20.484z M5.89,21.761c-0.084,0.114-0.206,0.13-0.329,0.145H4.314v-2.754h1.369
		c0.142,0.041,0.229,0.146,0.29,0.275c0.023,0.157,0.053,0.225-0.062,0.387c-0.049,0.101-0.182,0.153-0.372,0.184l-0.604-0.002
		l-0.537,1.062h1.273c0.144,0.048,0.268,0.169,0.306,0.268C6.024,21.47,5.974,21.654,5.89,21.761L5.89,21.761z"/>
	<path fill-rule="evenodd" clip-rule="evenodd" fill="#EF3E42" d="M27.482,17.705c0-0.285,0.232-0.496,0.506-0.496
		s0.504,0.211,0.504,0.496c0,0.289-0.23,0.5-0.504,0.5S27.482,17.994,27.482,17.705L27.482,17.705z M27.988,18.122
		c0.227,0,0.404-0.177,0.404-0.417c0-0.236-0.178-0.414-0.404-0.414c-0.229,0-0.406,0.178-0.406,0.414
		C27.582,17.945,27.759,18.122,27.988,18.122L27.988,18.122z M27.882,17.994h-0.086v-0.574h0.219c0.135,0,0.203,0.049,0.203,0.163
		c0,0.103-0.064,0.147-0.15,0.158l0.164,0.253h-0.098l-0.15-0.248h-0.102V17.994l0.105-0.322c0.072,0,0.139-0.006,0.139-0.094
		c0-0.072-0.064-0.085-0.125-0.085h-0.119v0.179h0.105L27.882,17.994L27.882,17.994z"/>
	<path fill-rule="evenodd" clip-rule="evenodd" fill="#EF3E42" d="M21.787,20.486c0.588-0.344,0.703-1.176,0.551-1.931
		c-0.115-0.573-0.707-0.86-1.148-0.86h-3.748l-0.018,5.564h3.672c0.648-0.076,1.152-0.584,1.211-1.074
		C22.394,21.461,22.33,20.838,21.787,20.486L21.787,20.486z M20.585,21.764c-0.084,0.114-0.207,0.13-0.328,0.146h-1.248v-2.754
		h1.369c0.143,0.039,0.23,0.146,0.291,0.275c0.023,0.156,0.053,0.224-0.062,0.387c-0.049,0.1-0.182,0.152-0.371,0.184L19.632,20
		l-0.539,1.061h1.275c0.143,0.049,0.268,0.168,0.305,0.268C20.718,21.473,20.669,21.657,20.585,21.764L20.585,21.764z"/>
	<path fill-rule="evenodd" clip-rule="evenodd" fill="#EF3E42" d="M26.203,17.691h-1.635c-1.783,0-1.756,1.785-1.756,1.785
		s0,0.561,0,2.143c0,1.58,1.59,1.638,1.59,1.638s0.562,0,1.811,0c1.504,0,1.559-1.651,1.559-1.651s0-0.586,0-2.18
		C27.771,17.743,26.203,17.691,26.203,17.691L26.203,17.691z M26.222,21.074c0,0-0.02,0.881-0.594,0.881c-0.477,0-0.689,0-0.689,0
		s-0.607-0.029-0.607-0.875c0-0.844,0-1.144,0-1.144s-0.01-0.953,0.67-0.953h0.623c0,0,0.598,0.026,0.598,0.927
		C26.222,20.76,26.222,21.074,26.222,21.074L26.222,21.074z"/>
	<path fill-rule="evenodd" clip-rule="evenodd" fill="#EF3E42" d="M15.355,9.642c-0.03-0.109-0.077-0.195-0.177-0.213
		c0.064-0.085,0.031-0.211-0.036-0.311c-0.05-0.076-0.152-0.082-0.217-0.055l-0.538,0.224l0.33,0.801l0.527-0.22
		C15.334,9.82,15.376,9.717,15.355,9.642L15.355,9.642z M15.083,9.685c-0.006,0.022-0.022,0.031-0.039,0.041L14.865,9.8L14.7,9.404
		l0.197-0.082c0.022-0.002,0.041,0.007,0.058,0.022l-0.028,0.108L14.84,9.488l-0.014,0.185l0.184-0.076
		c0.023-0.001,0.048,0.009,0.06,0.021C15.085,9.635,15.089,9.665,15.083,9.685L15.083,9.685z"/>
	<path fill-rule="evenodd" clip-rule="evenodd" fill="#EF3E42" d="M15.956,12.513c-0.229-0.199-0.646-0.221-0.896,0
		c-0.053,0.061-0.068,0.137-0.061,0.222c0.038,0.107,0.118,0.138,0.229,0.168c0.271,0.012,0.306,0.229,0.451,0.084
		C15.65,12.758,16.056,12.719,15.956,12.513L15.956,12.513z M15.127,12.83c0,0-0.109-0.128-0.007-0.278
		c0.137-0.203,0.335-0.121,0.335-0.121C15.074,12.539,15.127,12.83,15.127,12.83L15.127,12.83z"/>
	<path fill-rule="evenodd" clip-rule="evenodd" fill="#EF3E42" d="M14.846,11.84c-0.16-0.115,0.015-0.268-0.137-0.367
		c0,0.069,0.016,0.153-0.022,0.207c-0.03-0.068,0-0.237-0.123-0.291c0,0.1,0.1,0.237-0.015,0.291
		c-0.016-0.031-0.034-0.114-0.042-0.152c-0.037-0.048-0.082-0.108-0.127-0.092c-0.008,0.1,0.153,0.184,0.038,0.268
		c-0.032-0.105-0.066-0.192-0.166-0.207l0.064,0.216c-0.058,0.019-0.272,0.189-0.25,0.403c-0.01,0.193,0.107,0.382,0.291,0.459
		c0.199,0.062,0.391-0.007,0.521-0.168C14.941,12.299,15.032,12.031,14.846,11.84L14.846,11.84z M14.252,12.388
		c0,0-0.172-0.108-0.107-0.318c0.086-0.284,0.344-0.262,0.344-0.262C14.087,12.069,14.252,12.388,14.252,12.388l0.383-0.185
		c-0.06,0-0.108-0.048-0.108-0.108s0.049-0.108,0.108-0.108s0.108,0.049,0.108,0.108s-0.049,0.108-0.108,0.108L14.252,12.388
		L14.252,12.388z"/>
	<path fill-rule="evenodd" clip-rule="evenodd" fill="#EF3E42" d="M16.515,11.435c-0.062-0.061-0.031-0.124-0.051-0.251
		c-0.053,0.053-0.057,0.121-0.095,0.229c-0.107-0.084,0.03-0.191-0.046-0.291h-0.038l-0.023,0.291
		c-0.106-0.038-0.038-0.229-0.146-0.245c-0.015,0.092,0.031,0.237,0.046,0.329c-0.114-0.023-0.1-0.145-0.106-0.229h-0.039
		c-0.03,0.091-0.046,0.236,0.016,0.313c-0.114,0.114-0.114,0.313-0.076,0.474c0.046,0.115,0.104,0.178,0.222,0.245
		c0.146,0.062,0.355,0.101,0.509-0.076c0.09-0.096,0.135-0.229,0.129-0.392C16.802,11.597,16.615,11.542,16.515,11.435
		L16.515,11.435z M16.13,12.119c0,0-0.172-0.109-0.108-0.319c0.086-0.284,0.344-0.261,0.344-0.261
		C15.964,11.799,16.13,12.119,16.13,12.119l0.385-0.203c-0.059,0-0.108-0.048-0.108-0.108c0-0.06,0.049-0.108,0.108-0.108
		c0.061,0,0.107,0.048,0.107,0.108c0,0.06-0.047,0.108-0.107,0.108L16.13,12.119L16.13,12.119z"/>
	<path fill-rule="evenodd" clip-rule="evenodd" fill="#FFFFFF" d="M10.073,12.49c-0.061,1.224,0.406,2.379,1.141,3.35
		c-0.023,0.084-0.138,0.161-0.062,0.252c-1.056-1.186-1.507-2.761-1.285-4.39l0.062-0.146C10.318,11.756,9.967,12.154,10.073,12.49
		L10.073,12.49z"/>
</g>
</svg>
