<?xml version="1.0" encoding="utf-8"?>
<!-- Generator: Adobe Illustrator 16.0.0, SVG Export Plug-In . SVG Version: 6.00 Build 0)  -->
<!DOCTYPE svg PUBLIC "-//W3C//DTD SVG 1.1//EN" "http://www.w3.org/Graphics/SVG/1.1/DTD/svg11.dtd">
<svg version="1.1" id="Layer_1" xmlns="http://www.w3.org/2000/svg" xmlns:xlink="http://www.w3.org/1999/xlink" x="0px" y="0px"
	 width="199.662px" height="92.16px" viewBox="0 0 199.662 92.16" enable-background="new 0 0 199.662 92.16" xml:space="preserve">
<g>
	<g>
		<path fill="#003976" d="M35.373,26.855c0-4.516-2.259-6.287-4.395-6.287h-0.977V32.41c0,0.733,0.122,0.794,0.977,0.794
			C33.176,33.204,35.373,30.518,35.373,26.855z M35.129,10.498c0-3.845-1.831-6.165-4.09-6.165c-0.915,0-1.037,0.244-1.037,0.916
			v10.926h0.854C33.48,16.175,35.129,14.221,35.129,10.498z M42.758,26.978c0,6.652-4.639,10.498-12.878,10.498h-9.155v-1.038
			c0-0.915,0.305-1.403,1.281-1.892c0.732-0.367,1.038-0.61,1.038-1.404V20.691c-0.61-0.062-3.235-1.099-3.235-3.418
			c0-0.549,0.366-0.915,0.672-0.915c0.549,0,1.037,0.671,2.014,0.671c0.428,0,0.55-0.061,0.55-0.549V5.92
			c0-1.16-0.488-2.197-2.563-2.197c-1.465,0-2.625,0.671-2.625,1.77c0,0.916,0.672,1.526,1.343,1.526
			c1.038,0,0.794-0.427,1.465-0.427c0.488,0,0.61,0.61,0.61,1.099c0,1.221-1.77,2.747-3.784,2.747c-2.808,0-4.639-2.014-4.639-4.272
			c0-1.893,1.16-3.724,3.602-4.883c1.159-0.488,3.174-0.793,5.371-0.793h9.094c7.324,0,11.17,3.479,11.17,9.4
			c0,4.517-2.259,7.324-5.799,8.178C39.584,19.104,42.758,21.79,42.758,26.978z M189.671,5.249c0,2.259-1.771,4.578-4.456,4.578
			c-2.014,0-3.784-1.404-3.784-3.356c0-0.489,0.184-0.977,0.672-0.977c0.671,0,0.488,0.488,1.525,0.488
			c1.038,0,1.709-0.427,1.709-1.282c0-1.099-0.793-1.648-1.831-1.648c-1.037,0-1.953,1.221-2.624,2.563l-6.715,13.55v13.917
			c0,0.793,0.306,1.038,1.038,1.404c0.977,0.488,1.282,0.976,1.282,1.892v1.038h-11.475v-1.038c0-0.916,0.306-1.404,1.281-1.892
			c0.671-0.366,1.038-0.61,1.038-1.404V21.362c-1.038-0.244-4.15-1.709-4.15-4.15c0-0.549,0.306-0.916,0.61-0.916
			c0.549,0,0.793,0.244,1.281,0.244c0.427,0,0.55-0.122,0.55-0.488c0-0.184-0.123-0.428-0.366-0.916l-5.249-10.254
			c-0.306-0.549-1.038-1.221-1.71-1.587c-0.976-0.488-1.281-0.977-1.281-1.892V0.427h12.513v1.038c0,0.916-0.428,1.343-0.854,1.587
			c-0.428,0.183-0.61,0.61-0.61,1.099c0,0.427,0.121,1.099,0.488,1.831l3.173,7.081l3.419-7.081
			c0.366-0.732,0.487-1.404,0.487-1.831c0-0.488-0.183-0.916-0.609-1.099c-0.428-0.244-0.855-0.671-0.855-1.587V0.427h8.851
			c2.319,0,3.297,0.366,4.212,0.793C188.694,2.014,189.671,3.479,189.671,5.249z M126.987,26.795c0-4.517-2.259-6.287-4.395-6.287
			h-0.977v11.841c0,0.732,0.122,0.793,0.977,0.793C124.79,33.143,126.987,30.457,126.987,26.795z M126.743,10.437
			c0-3.845-1.83-6.165-4.09-6.165c-0.915,0-1.037,0.245-1.037,0.916v10.925h0.854C125.095,16.113,126.743,14.16,126.743,10.437z
			 M134.372,26.917c0,6.653-4.638,10.498-12.878,10.498h-9.155v-1.038c0-0.916,0.305-1.404,1.281-1.892
			c0.672-0.366,1.038-0.61,1.038-1.404V20.63c-0.61-0.061-3.234-1.099-3.234-3.417c0-0.549,0.366-0.916,0.671-0.916
			c0.549,0,1.038,0.671,2.014,0.671c0.428,0,0.55-0.061,0.55-0.549V4.944c0-0.549-0.061-1.099-0.977-1.526
			c-0.793-0.366-1.16-0.854-1.16-1.648V0.427h10.011c7.323,0,11.169,3.479,11.169,9.399c0,4.517-2.258,7.324-5.798,8.24
			C131.199,19.043,134.372,21.729,134.372,26.917z M149.876,24.537l-2.137-10.254l-2.197,10.254H149.876z M162.144,37.415h-11.535
			v-0.977c0-0.977,0.427-1.343,0.854-1.525c0.61-0.245,0.732-0.733,0.732-1.099c0-0.367-0.122-0.854-0.244-1.404l-0.794-3.479
			h-6.774l-0.854,3.356c-0.122,0.549-0.245,1.16-0.245,1.404c0,0.366,0.123,0.854,0.55,1.098c0.488,0.245,0.854,0.671,0.854,1.587
			v1.038h-9.399v-0.977c0-0.915,0.305-1.403,1.282-1.892c0.731-0.367,1.587-0.977,1.708-1.587l3.052-11.597
			c-0.548-0.244-2.562-1.709-2.562-3.601c0-0.976,0.61-1.281,0.915-1.281c0.794,0,0.854,0.793,2.075,0.793
			c0.427,0,0.55-0.183,0.671-0.671l2.747-10.62c0.122-0.427,0.244-0.977,0.244-1.404c0-1.038-0.732-1.587-0.732-2.197
			c0-0.793,0.732-1.099,1.403-1.343l2.503-0.793C148.96,0.122,149.449,0,149.754,0c0.671,0,1.037,0.671,1.159,1.282l8.24,31.678
			c0.184,0.61,0.794,1.098,1.709,1.587c0.977,0.488,1.281,0.977,1.281,1.892V37.415z M107.578,37.415H96.226v-1.038
			c0-0.916,0.306-1.404,1.281-1.892c0.672-0.366,1.038-0.61,1.038-1.404v-16.48l-7.446,19.959c-0.184,0.488-0.428,1.098-0.732,1.098
			c-0.306,0-0.61-0.671-0.794-1.098l-7.141-20.02v16.541c0,0.793,0.366,1.038,1.037,1.404c0.977,0.488,1.282,0.976,1.282,1.892
			v1.038h-9.888v-1.038c0-0.916,0.305-1.404,1.281-1.892c0.672-0.366,1.038-0.61,1.038-1.404V20.63
			c-0.61-0.061-3.235-1.099-3.235-3.417c0-0.549,0.366-0.916,0.672-0.916c0.549,0,1.037,0.671,2.014,0.671
			c0.428,0,0.55-0.061,0.55-0.549V4.944c0-0.549-0.062-1.099-0.977-1.526c-0.794-0.305-1.16-0.854-1.16-1.648V0.427h12.085v1.099
			c0,0.977-0.366,1.343-0.854,1.526c-0.61,0.244-0.793,0.671-0.793,1.038s0.244,1.038,0.428,1.526l5.432,16.968l5.921-16.968
			c0.183-0.488,0.427-1.16,0.427-1.526s-0.184-0.793-0.794-1.038c-0.427-0.183-0.854-0.549-0.854-1.526V0.427h11.353V1.77
			c0,0.794-0.366,1.343-1.159,1.709c-0.916,0.366-0.977,0.916-0.977,1.465v28.138c0,0.793,0.366,1.038,1.037,1.404
			c0.978,0.488,1.282,0.976,1.282,1.892V37.415z M63.022,22.034v-1.16c-0.244-0.061-0.732-0.366-1.465-0.793
			c-1.038-0.61-1.831-1.648-1.831-2.808c0-0.671,0.183-0.915,0.671-0.915c0.55,0,1.282,0.671,1.953,0.671
			c0.428,0,0.61-0.183,0.61-1.343c0-3.296-0.915-9.521-2.502-11.353c-0.488-0.549-0.916-0.671-1.526-0.671
			c-2.563,0-3.967,6.165-3.967,15.32c0,9.277,1.343,15.076,4.089,15.076C62.412,34.058,63.022,24.963,63.022,22.034z M70.591,19.226
			c0,11.048-5.249,18.616-11.902,18.616c-6.104,0-10.864-7.813-10.864-15.808v-0.977c-0.306-0.122-0.916-0.549-1.404-0.793
			c-1.221-0.732-2.075-1.831-2.075-2.991c0-0.61,0.244-0.977,0.672-0.977c0.549,0,1.221,0.671,1.771,0.671
			c0.549,0,0.731-0.305,0.854-1.465c1.1-9.948,5.616-15.381,11.17-15.381C65.891,0.122,70.591,7.202,70.591,19.226z"/>
		<path fill="#003976" d="M194.521,87.458c0,2.748-2.258,4.701-4.943,4.701c-1.648,0-3.724-1.1-3.724-3.113
			c0-0.184,0-0.305,0.183-0.305c0.489,0,0.977,0.244,1.465,0.244c1.099,0,1.771-0.855,1.771-1.893c0-1.832-1.771-2.258-3.235-2.258
			h-15.441v-1.039c0-0.914,0.305-1.402,1.281-1.891c0.672-0.367,1.038-0.611,1.038-1.404V68.05c-0.61-0.061-3.234-1.099-3.234-3.418
			c0-0.55,0.365-0.916,0.671-0.916c0.549,0,1.037,0.672,2.014,0.672c0.428,0,0.55-0.061,0.55-0.549V52.365
			c0-0.551-0.062-1.1-0.977-1.526c-0.794-0.366-1.16-0.854-1.16-1.647v-1.344h18.982l1.221,9.4
			c-0.549,0.183-1.099,0.365-1.709,0.365c-2.625,0-1.831-6.104-8.362-6.104c-0.671,0-1.159,0.305-1.159,1.037V63.96h3.113
			c0.793,0,1.281-0.549,2.136-2.197c0.488-0.977,0.977-1.281,1.893-1.281h1.037v11.107h-1.037c-0.916,0-1.404-0.305-1.893-1.281
			c-0.366-0.732-0.977-1.892-1.771-1.892h-3.479v12.513h1.525c5.311,0,6.104-6.715,8.667-6.715c0.61,0,1.282,0.367,1.771,0.672
			c-0.306,1.098-2.136,6.836-2.136,7.445C190.919,82.515,194.521,83.675,194.521,87.458z M159.304,58.285
			c0-3.846-2.075-6.226-4.761-6.226c-1.038,0-1.16,0.183-1.16,0.854v12.084h0.977C157.838,64.998,159.304,61.824,159.304,58.285z
			 M169.068,84.835h-11.84v-1.039c0-0.854,0.427-1.221,1.221-1.465c0.671-0.182,0.671-0.365,0.671-0.73
			c0-0.307-0.122-0.732-0.366-1.404l-4.09-11.048c-0.366,0-0.854,0.062-1.281,0v11.353c0,0.793,0.366,1.1,1.037,1.404
			c0.978,0.488,1.282,0.977,1.282,1.891v1.039h-11.414v-1.039c0-0.914,0.305-1.402,1.282-1.891c0.671-0.305,1.037-0.611,1.037-1.404
			V68.05c-0.61-0.061-3.234-1.099-3.234-3.418c0-0.55,0.366-0.916,0.672-0.916c0.548,0,1.036,0.672,2.014,0.672
			c0.427,0,0.549-0.061,0.549-0.549V52.365c0-0.551-0.061-1.039-0.977-1.466c-0.794-0.366-1.159-0.915-1.159-1.708v-1.344h9.948
			c7.386,0,12.024,3.418,12.024,10.377c0,4.577-2.441,7.812-5.433,9.338l5.311,13c0.428,1.1,0.794,1.281,1.525,1.588
			c0.733,0.305,1.221,0.609,1.221,1.525V84.835z M139.894,84.835H128.48v-1.039c0-0.914,0.305-1.402,1.281-1.891
			c0.732-0.305,1.037-0.611,1.037-1.404V68.05c-0.609-0.061-3.234-1.099-3.234-3.418c0-0.55,0.366-0.916,0.672-0.916
			c0.549,0,1.037,0.672,2.014,0.672c0.427,0,0.549-0.061,0.549-0.549V52.365c0-0.551-0.061-1.039-0.977-1.466
			c-0.793-0.366-1.159-0.915-1.159-1.708v-1.344h11.047v1.344c0,0.793-0.365,1.342-1.159,1.708
			c-0.916,0.427-0.977,0.915-0.977,1.466v28.137c0,0.793,0.366,1.1,1.038,1.404c0.977,0.488,1.281,0.977,1.281,1.891V84.835z
			 M124.085,83.796l-0.061,1.039H112.55v-1.039c0-0.914,0.305-1.402,1.282-1.891c0.671-0.305,1.037-0.611,1.037-1.404V68.477h-6.043
			v12.024c0,0.793,0.367,1.1,1.038,1.404c0.977,0.488,1.282,0.977,1.282,1.891v1.039H99.671v-1.039c0-0.914,0.306-1.402,1.282-1.891
			c0.671-0.305,1.037-0.611,1.037-1.404V68.05c-0.61-0.061-3.234-1.099-3.234-3.418c0-0.55,0.366-0.916,0.672-0.916
			c0.549,0,1.037,0.672,2.014,0.672c0.428,0,0.549-0.061,0.549-0.549V52.365c0-0.551-0.061-1.039-0.976-1.466
			c-0.794-0.366-1.16-0.915-1.16-1.708v-1.344h11.23v1.344c0,0.793-0.488,1.342-1.282,1.708c-0.915,0.427-0.977,0.915-0.977,1.466
			v12.084h6.043V52.365c0-0.551-0.062-1.039-0.977-1.466c-0.793-0.366-1.281-0.915-1.281-1.708v-1.344h11.291v1.344
			c0,0.793-0.366,1.342-1.16,1.708c-0.915,0.427-0.976,0.915-0.976,1.466v28.137c0,0.793,0.305,1.1,1.038,1.404
			C123.78,82.394,124.085,82.882,124.085,83.796z M66.041,58.285c0-4.395-2.137-6.408-4.761-6.408c-1.038,0-1.16,0.183-1.16,0.854
			v12.025h1.099C64.454,64.755,66.041,62.375,66.041,58.285z M73.182,58.224c0,3.783-1.647,6.836-3.845,8.544
			c-2.075,1.648-5.249,2.381-9.217,2.381v11.353c0,0.793,0.306,1.1,1.038,1.404c0.977,0.488,1.281,0.977,1.281,1.891v1.039H51.026
			v-1.039c0-0.914,0.305-1.402,1.281-1.891c0.672-0.305,1.037-0.611,1.037-1.404V68.05c-0.609-0.061-3.234-1.099-3.234-3.418
			c0-0.55,0.366-0.916,0.672-0.916c0.549,0,1.037,0.672,2.014,0.672c0.428,0,0.549-0.061,0.549-0.549V52.365
			c0-0.551-0.061-1.039-0.976-1.466c-0.794-0.366-1.16-0.915-1.16-1.708v-1.344h9.155C68.116,47.847,73.182,51.632,73.182,58.224z
			 M90.149,58.285c0-4.395-2.136-6.408-4.761-6.408c-0.977,0-1.159,0.183-1.159,0.854v12.025h1.099
			C88.563,64.755,90.149,62.375,90.149,58.285z M97.291,58.224c0,3.783-1.587,6.836-3.846,8.544
			c-2.075,1.648-5.249,2.381-9.216,2.381v11.353c0,0.793,0.366,1.1,1.037,1.404c0.977,0.488,1.282,0.977,1.282,1.891v1.039H75.135
			v-1.039c0-0.914,0.306-1.402,1.282-1.891c0.732-0.305,1.037-0.611,1.037-1.404V68.05c-0.61-0.061-3.234-1.099-3.234-3.418
			c0-0.55,0.366-0.916,0.671-0.916c0.55,0,1.038,0.672,2.015,0.672c0.427,0,0.549-0.061,0.549-0.549V52.365
			c0-0.551-0.061-1.039-0.977-1.466c-0.793-0.366-1.159-0.915-1.159-1.708v-1.344h9.155C92.225,47.847,97.291,51.632,97.291,58.224z
			 M37.659,72.017l-2.137-10.314l-2.197,10.314H37.659z M49.928,84.896H38.392v-0.977c0-0.977,0.427-1.344,0.854-1.525
			c0.61-0.244,0.732-0.732,0.732-1.1c0-0.365-0.122-0.916-0.244-1.404l-0.794-3.479h-6.774l-0.854,3.357
			c-0.122,0.488-0.244,1.16-0.244,1.404c0,0.365,0.122,0.854,0.549,1.098c0.488,0.184,0.854,0.672,0.854,1.588v1.037h-9.399v-0.977
			c0-0.916,0.306-1.404,1.282-1.893c0.732-0.365,1.587-0.977,1.709-1.586l3.052-11.658c-0.55-0.184-2.563-1.648-2.563-3.54
			c0-0.978,0.61-1.343,0.915-1.343c0.794,0,0.854,0.855,2.075,0.855c0.428,0,0.55-0.246,0.672-0.673l2.746-10.681
			c0.122-0.428,0.244-0.916,0.244-1.343c0-1.099-0.732-1.647-0.732-2.197c0-0.794,0.732-1.099,1.404-1.343l2.502-0.793
			c0.366-0.123,0.794-0.244,1.16-0.244c0.61,0,1.037,0.671,1.159,1.281l8.24,31.678c0.183,0.609,0.793,1.098,1.709,1.586
			c0.977,0.488,1.282,0.977,1.282,1.893V84.896z M22.705,75.619c0,5.615-3.906,10.07-9.704,10.07c-1.16,0-2.319-0.182-3.479-0.549
			c-0.671-0.184-1.587-0.549-2.258-0.549c-1.404,0-2.747,0.854-2.747,2.381c0,1.342,1.099,2.135,2.381,2.135
			c0.549,0,0.977-0.365,1.221-0.365c0.183,0,0.183,0.182,0.183,0.305c0,1.832-2.075,2.99-3.723,2.99C1.709,92.037,0,90.023,0,87.521
			c0-2.93,2.319-4.334,4.7-5.006v-9.154h0.732c4.333,0,1.709,8.422,7.202,8.422c2.319,0,3.662-1.893,3.662-4.15
			c0-1.588-0.977-3.662-1.953-4.943c-1.099-1.404-2.93-3.723-3.662-4.517c-2.503,0-5.555-1.099-5.555-3.356
			c0-0.551,0.244-0.916,0.549-0.916c0.184-0.061,0.489,0.122,0.855,0.122c0.427,0,0.793,0.061,0.793-0.183
			c0-0.184,0.062-0.428-0.183-0.733c-0.672-0.915-2.503-2.929-2.503-6.53c0-4.699,2.991-8.973,7.996-8.973
			c0.793,0,2.014,0.184,2.502,0.366c1.221,0.366,1.648,0.488,2.197,0.488c0.55,0,0.977-0.122,1.648-0.731
			c0.244-0.244,0.671-0.367,1.159-0.367h1.221v11.353h-0.915c-0.55,0-1.16,0.062-1.587-0.427c-1.404-1.525-0.366-7.02-4.883-7.02
			c-2.015,0-3.113,1.465-3.113,3.357C10.864,59.872,22.705,67.378,22.705,75.619z"/>
	</g>
	<g>
		<path fill="#003976" d="M196.735,82.267v-0.266h-2.006v0.266h0.846v2.562h0.314v-2.562H196.735z"/>
		<path fill="#003976" d="M199.38,84.83v-2.586h-0.011l-0.792,2.586h-0.243l-0.796-2.586h-0.011v2.586h-0.282v-2.828h0.485
			l0.722,2.287h0.007l0.71-2.287h0.493v2.828H199.38z"/>
	</g>
</g>
</svg>
