<?xml version="1.0" encoding="utf-8"?>
<!-- Generator: Adobe Illustrator 16.0.0, SVG Export Plug-In . SVG Version: 6.00 Build 0)  -->
<!DOCTYPE svg PUBLIC "-//W3C//DTD SVG 1.1//EN" "http://www.w3.org/Graphics/SVG/1.1/DTD/svg11.dtd">
<svg version="1.1" id="Layer_1" xmlns="http://www.w3.org/2000/svg" xmlns:xlink="http://www.w3.org/1999/xlink" x="0px" y="0px"
	 width="142.259px" height="142.29px" viewBox="0 0 142.259 142.29" enable-background="new 0 0 142.259 142.29"
	 xml:space="preserve">
<g>
	<path fill-rule="evenodd" clip-rule="evenodd" fill="#FFFFFF" d="M71.129,0c-9.634,0-18.877,1.861-27.701,5.583
		c-8.495,3.601-16.027,8.673-22.6,15.246c-6.543,6.573-11.645,14.106-15.216,22.6C1.86,52.252,0,61.465,0,71.13
		c0,9.634,1.86,18.878,5.612,27.671c3.571,8.523,8.673,16.057,15.216,22.629c6.573,6.572,14.105,11.646,22.6,15.246
		c8.823,3.723,18.066,5.613,27.701,5.613c9.664,0,18.878-1.891,27.702-5.613c8.494-3.6,16.026-8.674,22.6-15.246
		c6.542-6.572,11.645-14.105,15.216-22.629c3.752-8.793,5.612-18.037,5.612-27.671c0-9.665-1.86-18.878-5.612-27.702
		c-3.571-8.494-8.674-16.027-15.216-22.6c-6.573-6.573-14.105-11.645-22.6-15.246C90.007,1.861,80.793,0,71.129,0L71.129,0z"/>
	<path fill-rule="evenodd" clip-rule="evenodd" fill="#FBBE00" d="M103.003,23.29c0.72-0.09,1.14-0.391,1.32-0.81
		c0.21-0.511,0.09-1.021-0.331-1.531c-3.36-5.703-10.954-9.213-22.839-10.475c-4.953-0.54-10.264-0.299-15.966,0.72
		c-6.033,1.051-11.255,2.731-15.667,5.103c-10.984,5.912-17.287,13.745-18.938,23.529c-0.241,0.9-0.181,1.532,0.119,1.921
		c0.331,0.39,0.872,0.45,1.621,0.209C47,37.035,58.375,33.494,66.418,31.333C79.113,28.002,91.298,25.301,103.003,23.29
		L103.003,23.29z"/>
	<path fill-rule="evenodd" clip-rule="evenodd" fill="#005BA2" d="M91.869,6.603c-6.663-2.16-13.416-3.211-20.199-3.211
		c-9.874,0-19.178,1.892-27.851,5.702c-8.193,3.572-15.366,8.614-21.579,15.097c-5.973,6.273-10.625,13.446-13.896,21.519
		C5.042,53.782,3.421,62.065,3.421,70.59c0,9.184,1.711,17.948,5.163,26.35c3.361,8.193,8.073,15.426,14.226,21.73
		c6.153,6.361,13.296,11.283,21.369,14.766c8.433,3.662,17.317,5.463,26.682,5.463c16.296,0,30.522-4.924,42.678-14.828
		c4.771-3.871,8.973-8.373,12.635-13.443c3.092-4.293,5.523-8.645,7.294-12.996l-11.376-6.184
		c-4.801,10.805-11.464,19.357-19.987,25.631c-9.035,6.633-19.269,10.025-30.644,10.205c-8.434,0.119-16.387-1.201-23.83-3.992
		c-7.263-2.701-13.655-6.633-19.178-11.824l-6.573,2.82v-10.174c-3.662-4.922-6.422-10.324-8.343-16.297
		c-1.981-6.152-2.971-12.666-2.971-19.508c0-8.794,1.621-17.107,4.862-24.97c3.152-7.653,7.653-14.376,13.506-20.168
		c5.912-5.883,12.786-10.384,20.648-13.566c8.164-3.271,16.927-4.922,26.261-4.922C80.854,4.682,86.226,5.342,91.869,6.603
		L91.869,6.603z"/>
	<path fill-rule="evenodd" clip-rule="evenodd" fill="#E30520" d="M125.722,53.122c-0.449-0.96-1.171-1.62-2.19-2.041
		c-1.591-0.6-3.332-0.991-5.312-1.111c-1.951-0.12-3.902,0-5.883,0.42c-3.78,0.75-7.022,2.371-9.694,4.862
		c-3.871,3.602-5.822,8.494-5.822,14.736c0,5.223,1.711,9.093,5.133,11.615c2.911,2.131,6.482,2.971,10.685,2.49
		c4.741-0.539,8.434-2.131,11.104-4.771c1.531-1.5,2.281-3.571,2.311-6.212c0.061-1.8,0.061-5.612,0-11.375l-14.196,3.092v3.301
		c0.03,2.402,1.141,3.391,3.392,2.941l1.802-0.45l0.03,2.702c0.029,0.24-0.062,0.51-0.331,0.811c-0.51,0.66-1.531,1.11-3.031,1.41
		c-2.281,0.33-3.992-0.12-5.161-1.44c-1.111-1.231-1.682-3.182-1.712-5.792c0.061-2.611,0.751-4.772,2.101-6.453
		c1.231-1.531,2.822-2.551,4.833-3.001c1.77-0.42,3.451-0.54,5.042-0.33l2.941,0.57c1.14,0.181,2.07-0.089,2.881-0.72
		c0.69-0.6,1.17-1.411,1.381-2.4C126.233,54.953,126.113,54.022,125.722,53.122L125.722,53.122z"/>
	<path fill-rule="evenodd" clip-rule="evenodd" fill="#E30520" d="M87.335,58.314c-0.839,1.11-1.26,2.611-1.26,4.592l-0.03,10.024
		c-3.781-4.742-6.933-8.374-9.393-10.865c-1.352-1.32-3.093-1.59-5.283-0.81l-4.862,1.47V96.19l4.712-1.621
		c1.74-0.6,2.971-1.471,3.721-2.551c0.721-1.08,1.051-2.52,1.051-4.352l-0.061-11.555l10.114,11.674
		c1.502,1.531,3.362,1.982,5.612,1.322c1.021-0.301,1.86-0.871,2.521-1.74c0.721-0.902,1.081-1.951,1.109-3.152V55.223
		c-1.74,0.359-3.33,0.75-4.801,1.17C89.108,56.784,88.056,57.414,87.335,58.314L87.335,58.314z"/>
	<path fill-rule="evenodd" clip-rule="evenodd" fill="#E30520" d="M57.894,65.277c-1.711,0.63-2.971,1.5-3.751,2.55
		c-0.901,1.261-1.321,3.032-1.321,5.373l-0.029,27.792l5.462-1.951c1.891-0.721,3.211-1.59,3.991-2.701
		c0.78-1.08,1.171-2.611,1.171-4.562l0.03-28.301C61.375,64.077,59.545,64.677,57.894,65.277L57.894,65.277z"/>
	<path fill-rule="evenodd" clip-rule="evenodd" fill="#E30520" d="M33.434,74.671L23.32,78.872l-0.06,33.346l7.143-3.002
		c0.96-0.24,1.711-0.84,2.25-1.711c0.541-0.84,0.781-1.92,0.751-3.27V93.639l7.984,8.494c0.99,0.99,2.16,1.59,3.51,1.74
		c1.561,0.211,3.001-0.24,4.322-1.291c1.2-0.99,1.83-2.25,1.89-3.781c0.03-1.41-0.33-2.551-1.14-3.451l-7.293-7.293l7.473-11.795
		c0.69-1.14,0.871-2.311,0.54-3.481c-0.36-1.231-1.17-2.131-2.401-2.671c-1.291-0.6-2.581-0.661-3.781-0.21
		c-1.051,0.39-1.86,1.02-2.431,1.92l-8.614,14.646L33.434,74.671L33.434,74.671z"/>
	<path fill-rule="evenodd" clip-rule="evenodd" fill="#FBBE00" d="M115.967,86.766c-0.359-0.391-0.989-0.48-1.859-0.24
		c-10.024,2.342-21.52,5.553-34.515,9.633c-13.956,4.383-25.271,8.436-33.914,12.156l-0.871,0.42c-0.209,0.15-0.39,0.33-0.48,0.6
		c-0.27,0.57-0.12,1.143,0.451,1.742c0.99,1.199,2.641,2.371,4.982,3.51c2.521,1.201,5.402,2.193,8.703,2.943
		c8.043,1.77,16.116,1.68,24.22-0.271c11.495-2.76,20.408-7.982,26.742-15.666c2.101-2.582,3.812-5.312,5.131-8.164
		c0.812-1.74,1.381-3.301,1.711-4.682C116.449,87.817,116.359,87.157,115.967,86.766L115.967,86.766z"/>
	<path fill-rule="evenodd" clip-rule="evenodd" fill="#E30520" d="M31.664,50.151c-1.591-0.84-3.632-0.84-6.123,0.09
		c-1.261,0.45-3.751,1.44-7.503,2.971l0.03,24.31l8.944-3.812c2.461-1.021,4.292-2.161,5.492-3.392
		c1.501-1.561,2.221-3.391,2.19-5.552c-0.029-1.201-0.419-2.221-1.23-3.061c-0.75-0.811-1.681-1.321-2.792-1.5
		c2.131-1.711,3.181-3.722,3.181-6.062C33.854,52.282,33.104,50.961,31.664,50.151L31.664,50.151z M25.36,59.755l-1.141,0.48v-5.131
		c0.991-0.541,1.831-0.661,2.492-0.451c0.63,0.24,0.96,0.781,0.93,1.681C27.642,57.864,26.861,59.005,25.36,59.755L25.36,59.755z
		 M27.132,63.626c0.69,0.36,1.05,0.99,1.05,1.951c0.06,1.681-0.811,2.912-2.521,3.692l-1.381,0.63v-5.913
		C25.451,63.387,26.412,63.266,27.132,63.626L27.132,63.626z"/>
	<path fill-rule="evenodd" clip-rule="evenodd" fill="#E30520" d="M51.711,44.238c0-0.989-0.299-1.65-0.93-2.01
		c-0.54-0.33-1.291-0.36-2.161-0.09c-0.931,0.27-1.921,0.6-3.001,1.021v15.096c-0.06,2.251-0.75,3.512-2.13,3.872
		c-0.69,0.15-1.23,0.03-1.591-0.36c-0.33-0.361-0.509-0.96-0.509-1.74L41.357,47.66c0-0.99-0.301-1.68-0.901-2.041
		c-0.57-0.359-1.29-0.359-2.19-0.09l-3.062,1.11v14.977c-0.029,2.521,0.75,4.351,2.341,5.432c1.622,1.141,3.751,1.321,6.363,0.541
		c2.55-0.752,4.411-1.891,5.612-3.332c1.441-1.742,2.161-4.172,2.19-7.324V44.238L51.711,44.238z"/>
	<path fill-rule="evenodd" clip-rule="evenodd" fill="#E30520" d="M96.46,37.846v-3.391l5.191-1.081
		c1.231-0.24,1.861-1.11,1.861-2.551v-2.582c-4.292,0.721-8.674,1.621-13.115,2.641l-0.09,22.18
		c4.861-1.169,8.583-2.01,11.254-2.581c1.441-0.331,2.191-1.291,2.191-2.881v-2.582l-7.293,1.591l0.03-4.292l4.562-0.959
		c1.26-0.301,1.891-1.081,1.891-2.402l-0.029-2.461L96.46,37.846L96.46,37.846z"/>
	<path fill-rule="evenodd" clip-rule="evenodd" fill="#E30520" d="M53.393,63.477l3.631-1.23c1.651-0.661,2.461-1.741,2.491-3.302
		l0.03-5.943l5.222,5.433c0.781,0.75,1.651,1.081,2.671,1.021c0.811-0.091,1.471-0.361,2.011-0.872
		c0.661-0.6,0.991-1.38,0.991-2.311c-0.03-0.901-0.33-1.65-0.931-2.251l-3.96-3.782c2.551-2.1,3.811-4.532,3.841-7.233
		c0-1.891-0.72-3.301-2.191-4.202c-1.5-0.93-3.421-1.14-5.732-0.6c-1.981,0.45-4.682,1.291-8.073,2.461V63.477L53.393,63.477z
		 M59.515,49.581v-6.332c2.341-0.871,3.542-0.361,3.572,1.53C63.116,46.759,61.916,48.35,59.515,49.581L59.515,49.581z"/>
	<path fill-rule="evenodd" clip-rule="evenodd" fill="#E30520" d="M118.669,27.822c-1.44-1.111-3.301-1.53-5.522-1.23l-8.043,1.35
		v21.85l3.331-0.631c1.71-0.391,2.581-1.41,2.611-3.121v-5.342l5.133,6.032c0.51,0.57,1.14,0.9,1.83,1.021
		c0.811,0.149,1.591,0,2.34-0.48c0.812-0.511,1.262-1.23,1.352-2.131s-0.15-1.681-0.75-2.311l-3.962-4.441
		c2.461-1.651,3.722-3.722,3.722-6.213C120.74,30.312,120.05,28.902,118.669,27.822L118.669,27.822z M111.046,37.306l-0.03-5.913
		c2.312-0.479,3.512,0.091,3.541,1.741C114.557,35.024,113.387,36.405,111.046,37.306L111.046,37.306z"/>
	<path fill-rule="evenodd" clip-rule="evenodd" fill="#E30520" d="M88.777,35.625c0.03-1.051-0.42-1.86-1.351-2.431
		c-1.021-0.571-2.461-0.811-4.382-0.78c-4.082,0.149-7.293,1.56-9.634,4.261c-2.161,2.491-3.241,5.643-3.241,9.484
		c0,3.632,1.08,6.333,3.21,8.104c1.981,1.65,4.562,2.191,7.653,1.62c2.641-0.511,4.713-1.44,6.213-2.791
		c1.11-0.96,1.651-2.251,1.651-3.842v-8.614l-9.095,2.041v2.521c0,0.601,0.21,1.051,0.6,1.381c0.391,0.33,0.871,0.45,1.441,0.33
		l1.32-0.3l0.03,2.491c0,0.511-0.301,0.901-0.931,1.201c-0.601,0.301-1.32,0.45-2.102,0.42c-2.25-0.03-3.361-1.681-3.421-4.952
		c0.03-2.04,0.51-3.692,1.381-5.012c0.871-1.23,1.98-2.011,3.392-2.401c0.899-0.21,2.071-0.239,3.541-0.06
		c1.142,0.21,2.042,0.03,2.701-0.45C88.417,37.366,88.747,36.615,88.777,35.625L88.777,35.625z"/>
	<path fill-rule="evenodd" clip-rule="evenodd" fill="#FFFFFF" d="M37.996,36.646c0.3-0.211,0.451-0.57,0.51-1.021
		c1.021-3.872,2.971-7.684,5.852-11.375c2.701-3.452,5.643-6.153,8.854-8.104c-4.592,2.011-8.644,5.223-12.185,9.635
		c-1.44,1.831-2.61,3.631-3.512,5.432c-0.84,1.711-1.32,3.122-1.44,4.292c0,0.42,0.09,0.75,0.3,1.021
		c0.209,0.24,0.48,0.359,0.81,0.389C37.485,36.945,37.755,36.855,37.996,36.646L37.996,36.646z"/>
	<path fill-rule="evenodd" clip-rule="evenodd" fill="#FFFFFF" d="M94.72,19.748c0.029-0.99-0.631-2.011-1.922-3.061
		c-1.23-0.99-2.941-1.891-5.071-2.731c-2.222-0.81-4.562-1.38-7.083-1.771c-2.701-0.389-5.343-0.51-7.894-0.299
		c5.042,0.359,9.245,1.35,12.606,3.061c1.471,0.72,2.61,1.5,3.421,2.34c0.779,0.81,1.201,1.591,1.201,2.311
		c0.029,0.901-0.33,1.741-1.051,2.461c-0.661,0.75-1.561,1.291-2.611,1.621l3.541-0.841c1.201-0.27,2.071-0.51,2.642-0.75
		C93.97,21.579,94.69,20.799,94.72,19.748L94.72,19.748z"/>
	<path fill-rule="evenodd" clip-rule="evenodd" fill="#FFFFFF" d="M109.816,94.418c0.301-0.629,0.329-1.199,0.121-1.68
		c-0.15-0.449-0.48-0.75-0.962-0.9c-0.48-0.15-0.931-0.09-1.38,0.15c-0.541,0.301-0.9,0.809-1.141,1.529
		c-1.411,3.662-3.393,7.023-5.942,10.115c-3.002,3.691-6.634,6.723-10.864,9.123c4.291-1.68,8.133-3.99,11.494-6.932
		C104.894,102.553,107.775,98.772,109.816,94.418L109.816,94.418z"/>
	<polygon fill-rule="evenodd" clip-rule="evenodd" fill="#E30520" points="131.785,91.688 129.534,91.688 129.534,92.049 
		130.404,92.049 130.404,93.79 130.975,93.79 130.975,92.049 131.785,92.049 131.785,91.688 	"/>
	<polygon fill-rule="evenodd" clip-rule="evenodd" fill="#E30520" points="132.656,92.079 133.166,93.79 133.736,93.79 
		134.247,92.079 134.247,93.79 134.817,93.79 134.817,91.688 133.976,91.688 133.466,93.309 132.925,91.688 132.085,91.688 
		132.085,93.79 132.656,93.79 132.656,92.079 	"/>
</g>
</svg>
