<?xml version="1.0" encoding="utf-8"?>
<!-- Generator: Adobe Illustrator 16.0.0, SVG Export Plug-In . SVG Version: 6.00 Build 0)  -->
<!DOCTYPE svg PUBLIC "-//W3C//DTD SVG 1.1//EN" "http://www.w3.org/Graphics/SVG/1.1/DTD/svg11.dtd">
<svg version="1.1" id="Layer_1" xmlns="http://www.w3.org/2000/svg" xmlns:xlink="http://www.w3.org/1999/xlink" x="0px" y="0px"
	 width="144.25px" height="216.324px" viewBox="0 0 144.25 216.324" enable-background="new 0 0 144.25 216.324"
	 xml:space="preserve">
<g>
	<g>
		<path fill="#4C4C4C" d="M-8.203,437.955l1.198,6.043c0.255,1.326,0.51,2.651,0.663,3.927h0.102
			c0.179-1.275,0.484-2.703,0.766-3.876l1.428-6.094h1.504l1.352,5.915c0.306,1.377,0.587,2.678,0.79,4.055h0.103
			c0.152-1.301,0.382-2.575,0.663-3.978l1.173-5.992H3.5l-3.11,12.341h-1.606l-1.428-5.992c-0.307-1.198-0.484-2.295-0.688-3.697
			h-0.051c-0.204,1.454-0.434,2.602-0.714,3.774l-1.479,5.915h-1.657l-3.009-12.341H-8.203z"/>
		<path fill="#4C4C4C" d="M8.015,437.955l1.198,6.043c0.255,1.326,0.51,2.651,0.663,3.927h0.102
			c0.179-1.275,0.484-2.703,0.766-3.876l1.428-6.094h1.504l1.352,5.915c0.306,1.377,0.587,2.678,0.79,4.055h0.103
			c0.152-1.301,0.382-2.575,0.663-3.978l1.173-5.992h1.963l-3.11,12.341h-1.606l-1.428-5.992c-0.307-1.198-0.484-2.295-0.688-3.697
			h-0.051c-0.204,1.454-0.434,2.602-0.714,3.774l-1.479,5.915H8.984l-3.009-12.341H8.015z"/>
		<path fill="#4C4C4C" d="M24.232,437.955l1.199,6.043c0.255,1.326,0.51,2.651,0.662,3.927h0.103
			c0.179-1.275,0.484-2.703,0.765-3.876l1.428-6.094h1.505l1.352,5.915c0.306,1.377,0.586,2.678,0.79,4.055h0.102
			c0.153-1.301,0.383-2.575,0.663-3.978l1.173-5.992h1.964l-3.111,12.341h-1.606l-1.428-5.992c-0.306-1.198-0.484-2.295-0.688-3.697
			h-0.051c-0.204,1.454-0.434,2.602-0.714,3.774l-1.479,5.915h-1.657l-3.009-12.341H24.232z"/>
		<path fill="#4C4C4C" d="M37.722,449.021c0-0.867,0.586-1.479,1.3-1.479c0.765,0,1.301,0.587,1.301,1.479
			c0,0.892-0.484,1.479-1.326,1.479C38.283,450.5,37.722,449.913,37.722,449.021z"/>
		<path fill="#4C4C4C" d="M44.071,432.651h1.964v17.645h-1.964V432.651z"/>
		<path fill="#4C4C4C" d="M57.79,444.126c0,4.768-2.193,6.374-4.105,6.374c-2.218,0-4.003-2.015-4.003-6.349
			c0-4.488,2.015-6.375,4.131-6.375C56.03,437.776,57.79,439.842,57.79,444.126z M51.644,444.126c0,2.039,0.357,4.818,2.142,4.818
			c1.684,0,2.04-2.881,2.04-4.818c0-1.888-0.356-4.794-2.091-4.794C51.976,439.332,51.644,442.238,51.644,444.126z"/>
		<path fill="#4C4C4C" d="M68.704,448.715c0,3.238-0.408,4.462-1.225,5.38c-0.739,0.816-1.887,1.301-3.289,1.301
			c-1.045,0-2.065-0.255-2.702-0.612l0.459-1.529c0.484,0.255,1.3,0.535,2.294,0.535c1.556,0,2.524-0.969,2.524-3.773v-1.25h-0.051
			c-0.408,0.97-1.326,1.505-2.371,1.505c-2.193,0-3.621-2.474-3.621-6.094c0-4.539,2.065-6.4,3.901-6.4
			c1.301,0,1.912,0.867,2.295,1.556h0.051l0.103-1.377h1.733c-0.025,0.842-0.102,1.938-0.102,3.851V448.715z M66.765,442.213
			c0-0.306-0.025-0.637-0.102-0.892c-0.204-0.842-0.663-1.861-1.785-1.861c-1.428,0-2.192,1.912-2.192,4.64
			c0,3.137,0.994,4.564,2.192,4.564c0.612,0,1.377-0.28,1.76-1.76c0.102-0.382,0.127-0.765,0.127-1.121V442.213z"/>
		<path fill="#4C4C4C" d="M80.279,444.126c0,4.768-2.193,6.374-4.105,6.374c-2.217,0-4.002-2.015-4.002-6.349
			c0-4.488,2.014-6.375,4.131-6.375C78.52,437.776,80.279,439.842,80.279,444.126z M74.135,444.126c0,2.039,0.357,4.818,2.141,4.818
			c1.684,0,2.041-2.881,2.041-4.818c0-1.888-0.357-4.794-2.092-4.794C74.467,439.332,74.135,442.238,74.135,444.126z"/>
		<path fill="#4C4C4C" d="M85.125,444.304c0,3.8,1.504,4.59,2.906,4.59c0.867,0,1.557-0.204,2.041-0.459l0.33,1.428
			c-0.688,0.357-1.732,0.587-2.727,0.587c-2.959,0-4.488-2.423-4.488-6.196c0-3.978,1.709-6.477,4.182-6.477
			c2.498,0,3.518,2.652,3.518,5.405c0,0.485-0.025,0.816-0.051,1.122H85.125z M89,442.851c0.025-2.447-0.893-3.544-1.836-3.544
			c-1.299,0-1.938,1.861-2.014,3.544H89z"/>
		<path fill="#4C4C4C" d="M94.254,441.806c0-1.888-0.076-2.983-0.102-3.851h1.734l0.102,1.581h0.051
			c0.688-1.301,1.656-1.76,2.625-1.76c2.168,0,3.57,2.27,3.57,6.323c0,4.59-1.887,6.4-3.824,6.4c-1.174,0-1.836-0.739-2.168-1.428
			h-0.051v6.119h-1.938V441.806z M96.191,445.783c0,0.356,0.025,0.714,0.102,1.02c0.383,1.76,1.275,2.065,1.811,2.065
			c1.633,0,2.168-2.244,2.168-4.717c0-2.55-0.611-4.691-2.193-4.691c-0.893,0-1.707,1.096-1.811,2.218
			c-0.051,0.28-0.076,0.612-0.076,0.943V445.783z"/>
		<path fill="#4C4C4C" d="M105.396,448.256c0.434,0.28,1.199,0.638,1.99,0.638c1.096,0,1.811-0.688,1.811-1.785
			c0-0.943-0.332-1.58-1.582-2.422c-1.605-1.02-2.473-2.091-2.473-3.493c0-2.015,1.479-3.417,3.391-3.417
			c0.969,0,1.684,0.332,2.193,0.638l-0.51,1.479c-0.484-0.331-0.994-0.561-1.658-0.561c-1.045,0-1.58,0.765-1.58,1.581
			c0,0.815,0.305,1.274,1.529,2.116c1.428,0.918,2.551,2.04,2.551,3.748c0,2.474-1.684,3.672-3.723,3.672
			c-0.893,0-1.889-0.281-2.424-0.714L105.396,448.256z"/>
		<path fill="#4C4C4C" d="M113.914,449.021c0-0.867,0.586-1.479,1.301-1.479c0.764,0,1.301,0.587,1.301,1.479
			c0,0.892-0.484,1.479-1.326,1.479C114.475,450.5,113.914,449.913,113.914,449.021z"/>
		<path fill="#4C4C4C" d="M126.281,449.99c-0.434,0.255-1.174,0.459-2.041,0.459c-2.701,0-4.512-2.168-4.512-6.247
			c0-3.544,1.785-6.426,4.869-6.426c0.664,0,1.377,0.179,1.734,0.383l-0.383,1.606c-0.256-0.128-0.766-0.332-1.402-0.332
			c-1.988,0-2.855,2.346-2.855,4.769c0,2.881,1.096,4.615,2.906,4.615c0.51,0,0.969-0.103,1.402-0.332L126.281,449.99z"/>
		<path fill="#4C4C4C" d="M136.658,444.126c0,4.768-2.191,6.374-4.104,6.374c-2.219,0-4.004-2.015-4.004-6.349
			c0-4.488,2.014-6.375,4.131-6.375C134.9,437.776,136.658,439.842,136.658,444.126z M130.514,444.126
			c0,2.039,0.357,4.818,2.143,4.818c1.682,0,2.039-2.881,2.039-4.818c0-1.888-0.357-4.794-2.09-4.794
			C130.846,439.332,130.514,442.238,130.514,444.126z"/>
		<path fill="#4C4C4C" d="M140.127,441.143c0-1.454-0.076-2.193-0.102-3.188h1.709l0.102,1.53h0.051
			c0.535-0.995,1.479-1.709,2.779-1.709c1.148,0,2.117,0.536,2.576,1.887h0.051c0.33-0.611,0.764-1.121,1.223-1.402
			c0.484-0.331,1.072-0.484,1.709-0.484c1.658,0,2.957,1.198,2.957,4.36v8.159h-1.938v-7.726c0-1.606-0.229-3.162-1.734-3.162
			c-0.814,0-1.529,0.688-1.809,1.861c-0.053,0.307-0.078,0.688-0.078,1.097v7.93h-1.938v-8.083c0-1.351-0.229-2.805-1.707-2.805
			c-0.816,0-1.607,0.688-1.836,2.015c-0.051,0.306-0.078,0.663-0.078,1.045v7.828h-1.938V441.143z"/>
	</g>
	<g>
		<path fill="#898989" d="M-197.196,426.564v-1.101l1.188-1.628c1.716-2.376,3.719-5.061,3.719-7.745
			c0-1.584-0.683-2.552-2.024-2.552c-1.034,0-1.717,0.55-2.068,0.792l-0.418-1.276c0.484-0.418,1.496-0.969,2.794-0.969
			c2.377,0,3.389,1.761,3.389,3.917c0,2.685-1.738,5.28-3.521,7.701l-0.946,1.32v0.044h4.753v1.496H-197.196z"/>
		<path fill="#898989" d="M-180.475,419.392c0,5.215-1.649,7.349-3.718,7.349c-2.223,0-3.564-2.641-3.564-7.305
			c0-4.818,1.43-7.35,3.762-7.35C-181.685,412.086-180.475,414.837-180.475,419.392z M-186.063,419.413
			c-0.022,3.455,0.571,5.875,1.979,5.875c1.364,0,1.915-2.442,1.915-5.875c0-3.344-0.551-5.874-1.915-5.874
			C-185.469,413.539-186.063,415.959-186.063,419.413z"/>
		<path fill="#898989" d="M-170.905,419.392c0,5.215-1.65,7.349-3.719,7.349c-2.222,0-3.564-2.641-3.564-7.305
			c0-4.818,1.431-7.35,3.763-7.35C-172.115,412.086-170.905,414.837-170.905,419.392z M-176.494,419.413
			c-0.022,3.455,0.572,5.875,1.98,5.875c1.364,0,1.914-2.442,1.914-5.875c0-3.344-0.55-5.874-1.914-5.874
			C-175.9,413.539-176.494,415.959-176.494,419.413z"/>
		<path fill="#898989" d="M-168.838,429.337c0.462-1.276,1.057-3.608,1.276-5.127l1.914-0.22c-0.506,1.782-1.43,4.225-2.024,5.192
			L-168.838,429.337z"/>
		<path fill="#898989" d="M-155.967,419.392c0,5.215-1.65,7.349-3.719,7.349c-2.222,0-3.564-2.641-3.564-7.305
			c0-4.818,1.431-7.35,3.763-7.35C-157.177,412.086-155.967,414.837-155.967,419.392z M-161.556,419.413
			c-0.022,3.455,0.572,5.875,1.98,5.875c1.364,0,1.914-2.442,1.914-5.875c0-3.344-0.55-5.874-1.914-5.874
			C-160.962,413.539-161.556,415.959-161.556,419.413z"/>
		<path fill="#898989" d="M-146.398,419.392c0,5.215-1.649,7.349-3.718,7.349c-2.223,0-3.564-2.641-3.564-7.305
			c0-4.818,1.43-7.35,3.762-7.35C-147.608,412.086-146.398,414.837-146.398,419.392z M-151.986,419.413
			c-0.022,3.455,0.571,5.875,1.979,5.875c1.364,0,1.915-2.442,1.915-5.875c0-3.344-0.551-5.874-1.915-5.874
			C-151.392,413.539-151.986,415.959-151.986,419.413z"/>
		<path fill="#898989" d="M-136.828,419.392c0,5.215-1.649,7.349-3.718,7.349c-2.223,0-3.564-2.641-3.564-7.305
			c0-4.818,1.43-7.35,3.762-7.35C-138.038,412.086-136.828,414.837-136.828,419.392z M-142.416,419.413
			c-0.022,3.455,0.571,5.875,1.979,5.875c1.364,0,1.915-2.442,1.915-5.875c0-3.344-0.551-5.874-1.915-5.874
			C-141.822,413.539-142.416,415.959-142.416,419.413z"/>
		<path fill="#898989" d="M-127.94,414.837v5.236h5.062v1.21h-5.062v5.281h-1.254v-5.281h-5.038v-1.21h5.038v-5.236H-127.94z"/>
		<path fill="#898989" d="M-115.203,411.338h1.672v5.854h0.044c0.551-1.057,1.343-1.431,2.267-1.431
			c1.672,0,2.904,1.893,2.904,5.391c0,3.829-1.584,5.589-3.234,5.589c-1.122,0-1.694-0.66-2.112-1.562h-0.088l-0.11,1.386h-1.43
			c0.021-0.616,0.088-1.826,0.088-2.553V411.338z M-113.531,422.824c0,0.242,0.022,0.462,0.066,0.66
			c0.396,1.562,1.122,1.848,1.606,1.848c1.364,0,1.848-1.848,1.848-4.114c0-2.135-0.506-4.005-1.892-4.005
			c-0.793,0-1.431,0.969-1.585,1.893c-0.021,0.242-0.044,0.484-0.044,0.726V422.824z"/>
		<path fill="#898989" d="M-105.325,418.665c0-0.901-0.066-1.958-0.088-2.75h1.518l0.089,1.694h0.044
			c0.352-1.013,1.254-1.849,2.244-1.849c0.132,0,0.242,0,0.352,0.022v1.716c-0.109,0-0.22,0-0.352,0c-1.078,0-1.87,0.99-2.047,2.2
			c-0.044,0.286-0.065,0.616-0.065,0.969v5.896h-1.694V418.665z"/>
		<path fill="#898989" d="M-93.269,424.145c0,0.813,0.022,1.738,0.11,2.42h-1.519l-0.109-1.122h-0.066
			c-0.462,0.814-1.21,1.298-2.134,1.298c-1.408,0-2.509-1.188-2.509-3.036c0-2.685,2.135-3.851,4.533-3.873v-0.33
			c0-1.43-0.375-2.397-1.694-2.397c-0.66,0-1.255,0.197-1.761,0.55l-0.374-1.188c0.462-0.33,1.431-0.704,2.486-0.704
			c2.135,0,3.036,1.387,3.036,3.763V424.145z M-94.918,421.042c-0.881,0-2.927,0.176-2.927,2.486c0,1.408,0.704,1.892,1.298,1.892
			c0.748,0,1.364-0.55,1.562-1.605c0.044-0.198,0.066-0.418,0.066-0.616V421.042z"/>
		<path fill="#898989" d="M-89.771,418.665c0-1.254-0.066-1.892-0.088-2.75h1.474l0.089,1.298h0.044
			c0.462-0.857,1.319-1.452,2.442-1.452c1.474,0,2.574,1.078,2.574,3.652v7.151h-1.694v-6.843c0-1.276-0.242-2.53-1.475-2.53
			c-0.704,0-1.386,0.594-1.584,1.716c-0.066,0.265-0.088,0.594-0.088,0.968v6.689h-1.694V418.665z"/>
		<path fill="#898989" d="M-73.358,411.338v12.674c0,0.727,0.065,1.937,0.088,2.553h-1.452l-0.11-1.32h-0.066
			c-0.352,0.748-1.1,1.496-2.244,1.496c-1.782,0-3.08-1.936-3.08-5.457c0-3.762,1.562-5.522,3.19-5.522
			c0.792,0,1.54,0.353,1.958,1.254h0.044v-5.677H-73.358z M-75.031,419.985c0-0.22,0-0.484-0.021-0.704
			c-0.11-1.122-0.771-2.068-1.585-2.068c-1.408,0-1.892,1.959-1.892,4.07c0,2.245,0.572,4.049,1.804,4.049
			c0.528,0,1.255-0.286,1.629-1.826c0.044-0.198,0.065-0.439,0.065-0.704V419.985z"/>
		<path fill="#898989" d="M-65.33,411.338h1.694v15.227h-1.694V411.338z"/>
		<path fill="#898989" d="M-53.493,421.239c0,4.115-1.893,5.501-3.543,5.501c-1.914,0-3.454-1.738-3.454-5.479
			c0-3.873,1.738-5.501,3.564-5.501C-55.011,415.761-53.493,417.543-53.493,421.239z M-58.795,421.239
			c0,1.761,0.308,4.159,1.848,4.159c1.452,0,1.761-2.486,1.761-4.159c0-1.628-0.309-4.136-1.805-4.136
			C-58.509,417.104-58.795,419.611-58.795,421.239z"/>
		<path fill="#898989" d="M-44.077,425.2c0,2.795-0.353,3.851-1.057,4.643c-0.638,0.704-1.628,1.122-2.838,1.122
			c-0.902,0-1.782-0.22-2.333-0.527l0.396-1.32c0.418,0.22,1.122,0.462,1.98,0.462c1.342,0,2.178-0.836,2.178-3.257v-1.078h-0.044
			c-0.352,0.836-1.144,1.298-2.046,1.298c-1.893,0-3.125-2.134-3.125-5.259c0-3.916,1.782-5.522,3.367-5.522
			c1.122,0,1.649,0.748,1.979,1.343h0.044l0.089-1.188h1.496c-0.022,0.726-0.088,1.672-0.088,3.322V425.2z M-45.75,419.59
			c0-0.265-0.021-0.551-0.088-0.771c-0.176-0.727-0.572-1.606-1.54-1.606c-1.232,0-1.893,1.65-1.893,4.005
			c0,2.706,0.858,3.938,1.893,3.938c0.528,0,1.188-0.242,1.519-1.519c0.088-0.33,0.109-0.66,0.109-0.968V419.59z"/>
		<path fill="#898989" d="M-34.089,421.239c0,4.115-1.892,5.501-3.542,5.501c-1.915,0-3.455-1.738-3.455-5.479
			c0-3.873,1.738-5.501,3.564-5.501C-35.607,415.761-34.089,417.543-34.089,421.239z M-39.392,421.239
			c0,1.761,0.309,4.159,1.849,4.159c1.452,0,1.76-2.486,1.76-4.159c0-1.628-0.308-4.136-1.804-4.136
			C-39.106,417.104-39.392,419.611-39.392,421.239z"/>
		<path fill="#898989" d="M-31.384,424.805c0.374,0.241,1.034,0.55,1.716,0.55c0.946,0,1.562-0.595,1.562-1.54
			c0-0.814-0.286-1.364-1.364-2.091c-1.386-0.88-2.134-1.804-2.134-3.015c0-1.738,1.276-2.948,2.926-2.948
			c0.837,0,1.452,0.286,1.893,0.55l-0.44,1.276c-0.418-0.286-0.857-0.483-1.43-0.483c-0.902,0-1.364,0.66-1.364,1.363
			c0,0.705,0.264,1.101,1.32,1.827c1.232,0.792,2.2,1.76,2.2,3.234c0,2.134-1.452,3.168-3.213,3.168c-0.77,0-1.628-0.242-2.09-0.616
			L-31.384,424.805z"/>
		<path fill="#898989" d="M-17.26,413.164c0,0.66-0.396,1.101-1.034,1.101c-0.55,0-0.968-0.44-0.968-1.101
			c0-0.659,0.439-1.1,0.99-1.1C-17.657,412.064-17.26,412.505-17.26,413.164z M-19.086,426.564v-10.649h1.694v10.649H-19.086z"/>
		<path fill="#898989" d="M-13.939,418.665c0-1.254-0.066-1.892-0.088-2.75h1.474l0.089,1.298h0.044
			c0.462-0.857,1.319-1.452,2.442-1.452c1.474,0,2.574,1.078,2.574,3.652v7.151h-1.694v-6.843c0-1.276-0.242-2.53-1.475-2.53
			c-0.704,0-1.386,0.594-1.584,1.716c-0.066,0.265-0.088,0.594-0.088,0.968v6.689h-1.694V418.665z"/>
		<path fill="#898989" d="M1.483,415.915l1.343,5.984c0.153,0.727,0.33,1.673,0.462,2.597h0.065c0.11-0.88,0.286-1.782,0.44-2.597
			l1.32-5.984h1.672l-2.794,10.649H2.496l-2.772-10.649H1.483z"/>
		<path fill="#898989" d="M10.261,421.394c0,3.278,1.298,3.961,2.509,3.961c0.748,0,1.342-0.176,1.76-0.396l0.286,1.232
			c-0.594,0.308-1.496,0.506-2.354,0.506c-2.552,0-3.872-2.09-3.872-5.347c0-3.433,1.474-5.589,3.608-5.589
			c2.156,0,3.036,2.288,3.036,4.665c0,0.418-0.021,0.704-0.044,0.968H10.261z M13.606,420.14c0.021-2.112-0.771-3.059-1.584-3.059
			c-1.122,0-1.673,1.606-1.738,3.059H13.606z"/>
		<path fill="#898989" d="M23.352,426.301c-0.374,0.22-1.013,0.396-1.761,0.396c-2.332,0-3.895-1.87-3.895-5.391
			c0-3.059,1.54-5.545,4.203-5.545c0.572,0,1.188,0.154,1.496,0.33l-0.33,1.387c-0.22-0.11-0.66-0.286-1.21-0.286
			c-1.717,0-2.465,2.024-2.465,4.114c0,2.486,0.946,3.982,2.509,3.982c0.439,0,0.836-0.088,1.21-0.286L23.352,426.301z"/>
		<path fill="#898989" d="M28.301,413.429v2.486h2.046v1.276h-2.046v6.337c0,1.386,0.483,1.76,1.1,1.76
			c0.286,0,0.506-0.021,0.683-0.065l0.088,1.298c-0.309,0.11-0.704,0.176-1.254,0.176c-0.683,0-1.277-0.176-1.673-0.638
			c-0.44-0.484-0.639-1.21-0.639-2.685v-6.183h-1.298v-1.276h1.298v-1.805L28.301,413.429z"/>
		<path fill="#898989" d="M39.301,421.239c0,4.115-1.892,5.501-3.542,5.501c-1.914,0-3.454-1.738-3.454-5.479
			c0-3.873,1.737-5.501,3.564-5.501C37.784,415.761,39.301,417.543,39.301,421.239z M33.999,421.239
			c0,1.761,0.309,4.159,1.849,4.159c1.452,0,1.761-2.486,1.761-4.159c0-1.628-0.309-4.136-1.805-4.136
			C34.285,417.104,33.999,419.611,33.999,421.239z"/>
		<path fill="#898989" d="M42.27,418.665c0-0.901-0.065-1.958-0.088-2.75h1.519l0.088,1.694h0.044
			c0.352-1.013,1.254-1.849,2.244-1.849c0.132,0,0.242,0,0.353,0.022v1.716c-0.11,0-0.221,0-0.353,0c-1.078,0-1.87,0.99-2.046,2.2
			c-0.044,0.286-0.066,0.616-0.066,0.969v5.896H42.27V418.665z"/>
		<path fill="#898989" d="M53.754,426.564v-9.373h-1.342v-1.276h1.342v-0.639c0-1.166,0.176-2.332,0.946-3.212
			c0.616-0.683,1.475-0.902,2.135-0.902c0.571,0,1.012,0.11,1.319,0.264l-0.264,1.32c-0.22-0.088-0.506-0.176-0.946-0.176
			c-1.21,0-1.496,1.298-1.496,2.662v0.683h1.937v1.276h-1.937v9.373H53.754z"/>
		<path fill="#898989" d="M65.987,421.239c0,4.115-1.892,5.501-3.542,5.501c-1.914,0-3.454-1.738-3.454-5.479
			c0-3.873,1.737-5.501,3.564-5.501C64.469,415.761,65.987,417.543,65.987,421.239z M60.684,421.239
			c0,1.761,0.309,4.159,1.849,4.159c1.452,0,1.761-2.486,1.761-4.159c0-1.628-0.309-4.136-1.805-4.136
			C60.97,417.104,60.684,419.611,60.684,421.239z"/>
		<path fill="#898989" d="M68.957,418.665c0-0.901-0.065-1.958-0.088-2.75h1.519l0.088,1.694h0.044
			c0.352-1.013,1.254-1.849,2.244-1.849c0.132,0,0.242,0,0.353,0.022v1.716c-0.11,0-0.221,0-0.353,0c-1.078,0-1.87,0.99-2.046,2.2
			c-0.044,0.286-0.066,0.616-0.066,0.969v5.896h-1.694V418.665z"/>
		<path fill="#898989" d="M75.535,418.665c0-1.254-0.066-1.892-0.088-2.75h1.473l0.088,1.32h0.045
			c0.463-0.858,1.275-1.475,2.398-1.475c0.99,0,1.826,0.462,2.223,1.628h0.043c0.287-0.527,0.66-0.968,1.057-1.21
			c0.418-0.286,0.924-0.418,1.475-0.418c1.43,0,2.553,1.034,2.553,3.763v7.041h-1.674v-6.667c0-1.386-0.197-2.729-1.496-2.729
			c-0.703,0-1.32,0.595-1.562,1.606c-0.043,0.264-0.064,0.594-0.064,0.946v6.843h-1.672v-6.975c0-1.167-0.199-2.421-1.475-2.421
			c-0.705,0-1.387,0.595-1.584,1.738c-0.045,0.265-0.066,0.572-0.066,0.902v6.755h-1.672V418.665z"/>
		<path fill="#898989" d="M95.885,424.145c0,0.813,0.021,1.738,0.109,2.42h-1.518l-0.109-1.122h-0.066
			c-0.463,0.814-1.211,1.298-2.135,1.298c-1.408,0-2.508-1.188-2.508-3.036c0-2.685,2.133-3.851,4.531-3.873v-0.33
			c0-1.43-0.373-2.397-1.693-2.397c-0.66,0-1.254,0.197-1.76,0.55l-0.375-1.188c0.463-0.33,1.43-0.704,2.486-0.704
			c2.135,0,3.037,1.387,3.037,3.763V424.145z M94.234,421.042c-0.881,0-2.926,0.176-2.926,2.486c0,1.408,0.703,1.892,1.297,1.892
			c0.748,0,1.365-0.55,1.562-1.605c0.045-0.198,0.066-0.418,0.066-0.616V421.042z"/>
		<path fill="#898989" d="M101.252,413.429v2.486h2.047v1.276h-2.047v6.337c0,1.386,0.484,1.76,1.1,1.76
			c0.287,0,0.506-0.021,0.684-0.065l0.088,1.298c-0.309,0.11-0.705,0.176-1.254,0.176c-0.684,0-1.277-0.176-1.674-0.638
			c-0.439-0.484-0.637-1.21-0.637-2.685v-6.183H98.26v-1.276h1.299v-1.805L101.252,413.429z"/>
		<path fill="#898989" d="M116.059,424.145c0,0.813,0.021,1.738,0.109,2.42h-1.518l-0.109-1.122h-0.066
			c-0.463,0.814-1.211,1.298-2.135,1.298c-1.408,0-2.508-1.188-2.508-3.036c0-2.685,2.133-3.851,4.531-3.873v-0.33
			c0-1.43-0.373-2.397-1.693-2.397c-0.66,0-1.254,0.197-1.76,0.55l-0.375-1.188c0.463-0.33,1.43-0.704,2.486-0.704
			c2.135,0,3.037,1.387,3.037,3.763V424.145z M114.408,421.042c-0.881,0-2.926,0.176-2.926,2.486c0,1.408,0.703,1.892,1.297,1.892
			c0.748,0,1.365-0.55,1.562-1.605c0.045-0.198,0.066-0.418,0.066-0.616V421.042z"/>
		<path fill="#898989" d="M120.193,415.915l1.344,5.984c0.154,0.727,0.33,1.673,0.461,2.597h0.066
			c0.109-0.88,0.285-1.782,0.439-2.597l1.32-5.984h1.672l-2.793,10.649h-1.496l-2.773-10.649H120.193z"/>
		<path fill="#898989" d="M133.482,424.145c0,0.813,0.023,1.738,0.111,2.42h-1.52l-0.109-1.122h-0.066
			c-0.461,0.814-1.209,1.298-2.135,1.298c-1.408,0-2.508-1.188-2.508-3.036c0-2.685,2.135-3.851,4.533-3.873v-0.33
			c0-1.43-0.375-2.397-1.695-2.397c-0.66,0-1.254,0.197-1.76,0.55l-0.373-1.188c0.461-0.33,1.43-0.704,2.486-0.704
			c2.133,0,3.035,1.387,3.035,3.763V424.145z M131.832,421.042c-0.879,0-2.926,0.176-2.926,2.486c0,1.408,0.705,1.892,1.299,1.892
			c0.748,0,1.363-0.55,1.562-1.605c0.043-0.198,0.064-0.418,0.064-0.616V421.042z"/>
		<path fill="#898989" d="M138.807,413.164c0,0.66-0.396,1.101-1.035,1.101c-0.549,0-0.969-0.44-0.969-1.101
			c0-0.659,0.441-1.1,0.99-1.1C138.41,412.064,138.807,412.505,138.807,413.164z M136.98,426.564v-10.649h1.693v10.649H136.98z"/>
		<path fill="#898989" d="M142.127,411.338h1.695v15.227h-1.695V411.338z"/>
		<path fill="#898989" d="M153.041,424.145c0,0.813,0.021,1.738,0.109,2.42h-1.518l-0.109-1.122h-0.066
			c-0.463,0.814-1.211,1.298-2.135,1.298c-1.408,0-2.508-1.188-2.508-3.036c0-2.685,2.133-3.851,4.531-3.873v-0.33
			c0-1.43-0.373-2.397-1.693-2.397c-0.66,0-1.254,0.197-1.76,0.55l-0.375-1.188c0.463-0.33,1.43-0.704,2.486-0.704
			c2.135,0,3.037,1.387,3.037,3.763V424.145z M151.391,421.042c-0.881,0-2.926,0.176-2.926,2.486c0,1.408,0.703,1.892,1.297,1.892
			c0.748,0,1.365-0.55,1.562-1.605c0.045-0.198,0.066-0.418,0.066-0.616V421.042z"/>
		<path fill="#898989" d="M156.516,411.338h1.672v5.854h0.045c0.549-1.057,1.342-1.431,2.266-1.431c1.672,0,2.904,1.893,2.904,5.391
			c0,3.829-1.584,5.589-3.234,5.589c-1.123,0-1.695-0.66-2.113-1.562h-0.088l-0.109,1.386h-1.43
			c0.021-0.616,0.088-1.826,0.088-2.553V411.338z M158.188,422.824c0,0.242,0.021,0.462,0.066,0.66
			c0.396,1.562,1.121,1.848,1.605,1.848c1.365,0,1.85-1.848,1.85-4.114c0-2.135-0.508-4.005-1.893-4.005
			c-0.793,0-1.432,0.969-1.584,1.893c-0.023,0.242-0.045,0.484-0.045,0.726V422.824z"/>
		<path fill="#898989" d="M166.416,411.338h1.693v15.227h-1.693V411.338z"/>
		<path fill="#898989" d="M172.904,421.394c0,3.278,1.299,3.961,2.51,3.961c0.748,0,1.342-0.176,1.76-0.396l0.285,1.232
			c-0.594,0.308-1.496,0.506-2.354,0.506c-2.553,0-3.873-2.09-3.873-5.347c0-3.433,1.475-5.589,3.609-5.589
			c2.156,0,3.035,2.288,3.035,4.665c0,0.418-0.021,0.704-0.043,0.968H172.904z M176.25,420.14c0.021-2.112-0.77-3.059-1.584-3.059
			c-1.123,0-1.672,1.606-1.738,3.059H176.25z"/>
		<path fill="#898989" d="M187.426,413.429v2.486h2.045v1.276h-2.045v6.337c0,1.386,0.482,1.76,1.1,1.76
			c0.285,0,0.506-0.021,0.682-0.065l0.088,1.298c-0.309,0.11-0.703,0.176-1.254,0.176c-0.682,0-1.275-0.176-1.672-0.638
			c-0.439-0.484-0.639-1.21-0.639-2.685v-6.183h-1.299v-1.276h1.299v-1.805L187.426,413.429z"/>
		<path fill="#898989" d="M198.426,421.239c0,4.115-1.893,5.501-3.543,5.501c-1.914,0-3.453-1.738-3.453-5.479
			c0-3.873,1.738-5.501,3.564-5.501C196.908,415.761,198.426,417.543,198.426,421.239z M193.123,421.239
			c0,1.761,0.309,4.159,1.848,4.159c1.453,0,1.762-2.486,1.762-4.159c0-1.628-0.309-4.136-1.805-4.136
			C193.408,417.104,193.123,419.611,193.123,421.239z"/>
		<path fill="#898989" d="M212.373,411.338v12.674c0,0.727,0.066,1.937,0.088,2.553h-1.451l-0.109-1.32h-0.066
			c-0.352,0.748-1.1,1.496-2.244,1.496c-1.783,0-3.08-1.936-3.08-5.457c0-3.762,1.561-5.522,3.189-5.522
			c0.793,0,1.541,0.353,1.959,1.254h0.043v-5.677H212.373z M210.701,419.985c0-0.22,0-0.484-0.021-0.704
			c-0.109-1.122-0.77-2.068-1.584-2.068c-1.408,0-1.893,1.959-1.893,4.07c0,2.245,0.572,4.049,1.805,4.049
			c0.527,0,1.254-0.286,1.627-1.826c0.045-0.198,0.066-0.439,0.066-0.704V419.985z"/>
		<path fill="#898989" d="M222.383,421.239c0,4.115-1.893,5.501-3.543,5.501c-1.914,0-3.453-1.738-3.453-5.479
			c0-3.873,1.738-5.501,3.564-5.501C220.865,415.761,222.383,417.543,222.383,421.239z M217.08,421.239
			c0,1.761,0.309,4.159,1.848,4.159c1.453,0,1.762-2.486,1.762-4.159c0-1.628-0.309-4.136-1.805-4.136
			C217.365,417.104,217.08,419.611,217.08,421.239z"/>
		<path fill="#898989" d="M226.078,415.915l1.033,5.215c0.221,1.144,0.441,2.288,0.572,3.389h0.088
			c0.154-1.101,0.418-2.333,0.66-3.345l1.232-5.259h1.299l1.166,5.104c0.264,1.188,0.506,2.311,0.682,3.499h0.088
			c0.133-1.122,0.33-2.223,0.572-3.433l1.012-5.171h1.695l-2.686,10.649h-1.385l-1.232-5.171c-0.264-1.034-0.418-1.98-0.594-3.19
			h-0.045c-0.176,1.254-0.373,2.244-0.615,3.257l-1.277,5.104h-1.43l-2.596-10.649H226.078z"/>
		<path fill="#898989" d="M238.773,418.665c0-1.254-0.066-1.892-0.088-2.75h1.473l0.088,1.298h0.045
			c0.463-0.857,1.32-1.452,2.441-1.452c1.475,0,2.574,1.078,2.574,3.652v7.151h-1.693v-6.843c0-1.276-0.242-2.53-1.475-2.53
			c-0.703,0-1.385,0.594-1.584,1.716c-0.066,0.265-0.088,0.594-0.088,0.968v6.689h-1.693V418.665z"/>
		<path fill="#898989" d="M248.783,411.338h1.693v15.227h-1.693V411.338z"/>
		<path fill="#898989" d="M260.619,421.239c0,4.115-1.893,5.501-3.543,5.501c-1.914,0-3.453-1.738-3.453-5.479
			c0-3.873,1.738-5.501,3.564-5.501C259.102,415.761,260.619,417.543,260.619,421.239z M255.316,421.239
			c0,1.761,0.309,4.159,1.848,4.159c1.453,0,1.762-2.486,1.762-4.159c0-1.628-0.309-4.136-1.805-4.136
			C255.602,417.104,255.316,419.611,255.316,421.239z"/>
		<path fill="#898989" d="M269.221,424.145c0,0.813,0.021,1.738,0.109,2.42h-1.518l-0.109-1.122h-0.066
			c-0.463,0.814-1.211,1.298-2.135,1.298c-1.408,0-2.508-1.188-2.508-3.036c0-2.685,2.133-3.851,4.531-3.873v-0.33
			c0-1.43-0.373-2.397-1.693-2.397c-0.66,0-1.254,0.197-1.76,0.55l-0.375-1.188c0.463-0.33,1.43-0.704,2.486-0.704
			c2.135,0,3.037,1.387,3.037,3.763V424.145z M267.57,421.042c-0.881,0-2.926,0.176-2.926,2.486c0,1.408,0.703,1.892,1.297,1.892
			c0.748,0,1.365-0.55,1.562-1.605c0.045-0.198,0.066-0.418,0.066-0.616V421.042z"/>
		<path fill="#898989" d="M279.121,411.338v12.674c0,0.727,0.066,1.937,0.088,2.553h-1.453l-0.109-1.32h-0.066
			c-0.352,0.748-1.1,1.496-2.244,1.496c-1.781,0-3.08-1.936-3.08-5.457c0-3.762,1.562-5.522,3.191-5.522
			c0.791,0,1.539,0.353,1.957,1.254h0.045v-5.677H279.121z M277.449,419.985c0-0.22,0-0.484-0.023-0.704
			c-0.109-1.122-0.77-2.068-1.584-2.068c-1.408,0-1.893,1.959-1.893,4.07c0,2.245,0.572,4.049,1.805,4.049
			c0.529,0,1.254-0.286,1.629-1.826c0.043-0.198,0.066-0.439,0.066-0.704V419.985z"/>
		<path fill="#898989" d="M287.502,426.564v-9.373h-1.342v-1.276h1.342v-0.639c0-1.166,0.176-2.332,0.945-3.212
			c0.617-0.683,1.475-0.902,2.135-0.902c0.572,0,1.012,0.11,1.32,0.264l-0.264,1.32c-0.221-0.088-0.506-0.176-0.947-0.176
			c-1.209,0-1.496,1.298-1.496,2.662v0.683h1.938v1.276h-1.938v9.373H287.502z"/>
		<path fill="#898989" d="M299.734,421.239c0,4.115-1.893,5.501-3.543,5.501c-1.914,0-3.453-1.738-3.453-5.479
			c0-3.873,1.738-5.501,3.564-5.501C298.217,415.761,299.734,417.543,299.734,421.239z M294.432,421.239
			c0,1.761,0.309,4.159,1.848,4.159c1.453,0,1.762-2.486,1.762-4.159c0-1.628-0.309-4.136-1.805-4.136
			C294.717,417.104,294.432,419.611,294.432,421.239z"/>
		<path fill="#898989" d="M302.703,418.665c0-0.901-0.064-1.958-0.088-2.75h1.52l0.088,1.694h0.043
			c0.352-1.013,1.254-1.849,2.244-1.849c0.133,0,0.242,0,0.354,0.022v1.716c-0.111,0-0.221,0-0.354,0c-1.078,0-1.869,0.99-2.045,2.2
			c-0.045,0.286-0.066,0.616-0.066,0.969v5.896h-1.695V418.665z"/>
		<path fill="#898989" d="M314.188,426.564v-9.373h-1.342v-1.276h1.342v-0.639c0-1.166,0.176-2.332,0.945-3.212
			c0.617-0.683,1.475-0.902,2.135-0.902c0.572,0,1.012,0.11,1.32,0.264l-0.264,1.32c-0.221-0.088-0.506-0.176-0.947-0.176
			c-1.209,0-1.496,1.298-1.496,2.662v0.683h1.938v1.276h-1.938v9.373H314.188z"/>
		<path fill="#898989" d="M319.93,418.665c0-0.901-0.066-1.958-0.088-2.75h1.518l0.088,1.694h0.045
			c0.352-1.013,1.254-1.849,2.244-1.849c0.131,0,0.242,0,0.352,0.022v1.716c-0.109,0-0.221,0-0.352,0c-1.078,0-1.871,0.99-2.047,2.2
			c-0.043,0.286-0.066,0.616-0.066,0.969v5.896h-1.693V418.665z"/>
		<path fill="#898989" d="M327.387,421.394c0,3.278,1.299,3.961,2.51,3.961c0.748,0,1.342-0.176,1.76-0.396l0.285,1.232
			c-0.594,0.308-1.496,0.506-2.354,0.506c-2.553,0-3.873-2.09-3.873-5.347c0-3.433,1.475-5.589,3.609-5.589
			c2.156,0,3.035,2.288,3.035,4.665c0,0.418-0.021,0.704-0.043,0.968H327.387z M330.732,420.14c0.021-2.112-0.77-3.059-1.584-3.059
			c-1.123,0-1.672,1.606-1.738,3.059H330.732z"/>
		<path fill="#898989" d="M336.473,421.394c0,3.278,1.299,3.961,2.51,3.961c0.748,0,1.342-0.176,1.76-0.396l0.285,1.232
			c-0.594,0.308-1.496,0.506-2.354,0.506c-2.553,0-3.873-2.09-3.873-5.347c0-3.433,1.475-5.589,3.609-5.589
			c2.156,0,3.035,2.288,3.035,4.665c0,0.418-0.021,0.704-0.043,0.968H336.473z M339.818,420.14c0.021-2.112-0.77-3.059-1.584-3.059
			c-1.123,0-1.672,1.606-1.738,3.059H339.818z"/>
	</g>
</g>
<g>
	<path fill="#FFFFFF" stroke="#231F20" stroke-width="0.25" d="M45.698,4.83C35.644,8.646,24.992,15.45,16.365,27.381
		c-4.646,6.424-8.71,14.076-11.591,23.815c-2.868,9.705-4.499,21.263-4.501,35.435l-0.148,21.557c0,0.012,0,0.027,0,0.042
		c0,0.001,0,0.006,0,0.009l0.148,21.455c0.002,14.171,1.633,25.73,4.501,35.434c2.881,9.74,6.944,17.391,11.591,23.816
		c8.627,11.932,19.278,18.736,29.333,22.551c10.035,3.811,19.628,4.705,26.422,4.705h0.01c6.794,0,16.387-0.895,26.422-4.705
		c10.055-3.814,20.704-10.619,29.333-22.551c4.646-6.426,8.71-14.076,11.59-23.816c2.868-9.703,4.499-21.262,4.5-35.43l0.15-21.603
		l-0.15-21.467c-0.001-14.17-1.632-25.728-4.5-35.432c-2.88-9.74-6.943-17.392-11.59-23.815
		C119.256,15.45,108.606,8.646,98.552,4.83C88.515,1.021,78.92,0.125,72.126,0.125C65.331,0.125,55.735,1.021,45.698,4.83
		L45.698,4.83z"/>
	<linearGradient id="SVGID_1_" gradientUnits="userSpaceOnUse" x1="5.5293" y1="108.1611" x2="138.7207" y2="108.1611">
		<stop  offset="0" style="stop-color:#A39161"/>
		<stop  offset="0.1629" style="stop-color:#FFEFBF"/>
		<stop  offset="0.6573" style="stop-color:#A39161"/>
		<stop  offset="0.819" style="stop-color:#A59363"/>
		<stop  offset="0.8773" style="stop-color:#AB996A"/>
		<stop  offset="0.9188" style="stop-color:#B7A575"/>
		<stop  offset="0.9523" style="stop-color:#CAB888"/>
		<stop  offset="0.9807" style="stop-color:#E2D1A2"/>
		<stop  offset="1" style="stop-color:#FFEFBF"/>
		<stop  offset="1" style="stop-color:#F8E7B8"/>
		<stop  offset="1" style="stop-color:#E7D6A9"/>
		<stop  offset="1" style="stop-color:#CEBE93"/>
		<stop  offset="1" style="stop-color:#B2A279"/>
	</linearGradient>
	<path fill="url(#SVGID_1_)" d="M21.1,185.545c-3.676-4.945-14.858-19.994-15.197-52.42l-0.188-11.457
		c-0.096-4.881-0.185-9.492-0.185-13.539c0-7.701,0.151-15.812,0.285-22.973l0.04-2.133c0.855-24.369,4.732-37.236,15.957-52.949
		C33.964,14.86,51.357,6.815,72.105,6.815c12.069,0,34.664,3.023,50.389,23.263c10.299,13.256,15.236,29.604,16.007,53.006
		c0.006,14.002,0.219,25.006,0.22,25.117l-0.276,25.098c-1.478,28.555-6.696,40.523-15.812,52.619
		c-16.274,21.289-40.83,23.59-50.632,23.59c-20.983,0-38.489-8.158-50.627-23.592L21.1,185.545z"/>
	<path fill="#00502F" d="M25.381,32.822C14.697,47.82,11.179,59.619,10.352,83.18l-0.038,2.062
		c-0.133,7.132-0.284,15.216-0.284,22.888l0.184,13.451c0,0.014,0.188,11.471,0.188,11.471c0.324,30.99,10.851,45.156,14.311,49.811
		c0.002,0.004,0.139,0.188,0.214,0.289c11.254,14.299,27.531,21.857,47.075,21.857c9.133,0,32-2.127,47.057-21.822
		c8.551-11.346,13.465-22.699,14.888-50.045c0.003-0.217,0.273-24.801,0.275-24.926c-0.001-0.034-0.002-0.07-0.002-0.07
		c-0.05-2.773-0.212-12.752-0.218-24.951c-0.741-22.37-5.386-37.902-15.061-50.354c-14.55-18.729-35.589-21.525-46.835-21.525
		C52.803,11.315,36.649,18.754,25.381,32.822z"/>
	<g>
		<path fill="#FFFFFF" d="M30.562,185.729c-0.298-0.1-0.809-0.418-1.324-0.945c-1.194-1.225-1.313-2.894,0.117-4.289
			c1.365-1.332,3.179-1.303,4.492,0.044c0.521,0.534,0.745,0.995,0.812,1.219l-0.596,0.305c-0.098-0.307-0.316-0.685-0.668-1.046
			c-0.993-1.018-2.304-1.06-3.444,0.053c-1.069,1.043-1.148,2.315-0.124,3.365c0.339,0.348,0.749,0.627,1.079,0.745L30.562,185.729z
			"/>
		<path fill="#FFFFFF" d="M32.741,188.001c-1.231-1.038-1.284-2.707-0.102-4.111c1.242-1.473,2.962-1.67,4.201-0.626
			c1.272,1.073,1.273,2.733,0.113,4.11c-1.34,1.59-3.029,1.625-4.206,0.633L32.741,188.001z M33.181,187.536
			c0.949,0.8,2.223,0.379,3.11-0.674c0.777-0.923,1.108-2.292,0.11-3.133c-0.998-0.842-2.276-0.33-3.123,0.675
			c-0.824,0.977-1.047,2.331-0.104,3.126L33.181,187.536z"/>
		<path fill="#FFFFFF" d="M39.181,185.377c0.353,0.154,0.792,0.39,1.312,0.746c0.639,0.438,1.005,0.906,1.118,1.377
			c0.112,0.426,0.034,0.906-0.271,1.352c-0.31,0.453-0.688,0.718-1.126,0.8c-0.591,0.13-1.274-0.065-1.905-0.498
			c-0.193-0.132-0.366-0.262-0.489-0.4l-1.373,2.005l-0.646-0.442L39.181,185.377z M38.179,188.226
			c0.116,0.134,0.292,0.275,0.499,0.418c0.787,0.539,1.52,0.474,1.982-0.202c0.458-0.668,0.209-1.308-0.504-1.796
			c-0.282-0.193-0.518-0.312-0.645-0.365L38.179,188.226z"/>
		<path fill="#FFFFFF" d="M43.912,192.038l-2.043-1.159l-1.079,1.901l2.285,1.298l-0.324,0.571l-2.975-1.688l2.994-5.275
			l2.857,1.621l-0.324,0.571l-2.168-1.23l-0.946,1.668l2.043,1.159L43.912,192.038z"/>
		<path fill="#FFFFFF" d="M43.634,195.116l2.489-5.531l0.788,0.354l0.505,3.593c0.111,0.829,0.181,1.551,0.177,2.24l0.028,0.003
			c0.267-0.769,0.553-1.448,0.937-2.303l1.046-2.322l0.673,0.303l-2.489,5.532l-0.722-0.325l-0.494-3.598
			c-0.108-0.789-0.193-1.587-0.195-2.308l-0.028-0.003c-0.272,0.716-0.563,1.385-0.977,2.304l-1.063,2.363L43.634,195.116z"/>
		<path fill="#FFFFFF" d="M51.72,191.968l-0.796,2.41l2.786,0.92l0.796-2.41l0.752,0.248l-1.902,5.76l-0.752-0.248l0.892-2.7
			l-2.786-0.92l-0.892,2.7l-0.752-0.248l1.902-5.761L51.72,191.968z"/>
		<path fill="#FFFFFF" d="M56.056,197.608l-1.037,1.721l-0.79-0.18l3.354-5.458l0.922,0.21l0.674,6.374l-0.816-0.186l-0.209-2.005
			L56.056,197.608z M58.132,197.453l-0.201-1.837c-0.035-0.414-0.043-0.785-0.053-1.147l-0.027-0.006
			c-0.156,0.324-0.336,0.671-0.533,1.005l-0.968,1.58L58.132,197.453z"/>
		<path fill="#FFFFFF" d="M64.552,200.757c-0.365,0.086-1.088,0.187-1.899,0.075c-0.909-0.125-1.626-0.46-2.138-1.103
			c-0.449-0.57-0.659-1.417-0.53-2.354c0.247-1.792,1.667-2.933,3.682-2.655c0.695,0.096,1.228,0.324,1.469,0.484l-0.284,0.605
			c-0.299-0.195-0.686-0.357-1.292-0.441c-1.462-0.201-2.542,0.577-2.749,2.084c-0.21,1.524,0.576,2.551,1.984,2.744
			c0.508,0.07,0.865,0.047,1.057-0.018l0.246-1.793l-1.213-0.166l0.086-0.625l1.98,0.272L64.552,200.757z"/>
		<path fill="#FFFFFF" d="M69.007,198.464l-2.346-0.146l-0.135,2.183l2.623,0.162l-0.04,0.656l-3.413-0.211l0.374-6.055l3.278,0.203
			l-0.04,0.655l-2.488-0.154l-0.118,1.914l2.344,0.145L69.007,198.464z"/>
		<path fill="#FFFFFF" d="M70.14,201.362l-0.068-6.065l0.864-0.01l1.97,3.048c0.448,0.706,0.814,1.332,1.102,1.959l0.026-0.01
			c-0.081-0.809-0.106-1.547-0.118-2.482l-0.027-2.547l0.738-0.009l0.066,6.065l-0.791,0.009l-1.961-3.056
			c-0.43-0.671-0.843-1.359-1.146-2.013l-0.027,0.01c0.053,0.764,0.07,1.493,0.082,2.501l0.028,2.592L70.14,201.362z"/>
		<path fill="#FFFFFF" d="M79.454,198.149l0.061,0.573l-2.211,0.233l-0.061-0.573L79.454,198.149z"/>
		<path fill="#FFFFFF" d="M81.386,194.613c0.462-0.166,1.008-0.33,1.616-0.452c1.104-0.221,1.938-0.13,2.556,0.251
			c0.636,0.378,1.084,1.014,1.276,1.976c0.194,0.971,0.044,1.826-0.394,2.483c-0.454,0.669-1.312,1.152-2.469,1.384
			c-0.556,0.11-1.01,0.183-1.417,0.209L81.386,194.613z M83.216,199.727c0.201-0.004,0.482-0.06,0.783-0.12
			c1.643-0.319,2.35-1.424,2.028-3.03c-0.275-1.423-1.244-2.138-2.868-1.812c-0.396,0.079-0.689,0.174-0.885,0.259L83.216,199.727z"
			/>
		<path fill="#FFFFFF" d="M90.683,195.623l-2.26,0.644l0.6,2.104l2.527-0.72l0.18,0.632l-3.289,0.937l-1.66-5.835l3.159-0.898
			l0.18,0.632l-2.397,0.683l0.524,1.844L90.505,195L90.683,195.623z"/>
		<path fill="#FFFFFF" d="M92.704,197.982l-2.143-5.675l0.809-0.306l2.895,2.188c0.663,0.509,1.223,0.972,1.706,1.462l0.022-0.018
			c-0.354-0.732-0.631-1.416-0.963-2.292l-0.899-2.383l0.69-0.261l2.143,5.675l-0.74,0.279l-2.889-2.198
			c-0.635-0.482-1.258-0.987-1.769-1.497l-0.022,0.018c0.312,0.7,0.579,1.379,0.936,2.322l0.915,2.425L92.704,197.982z"/>
		<path fill="#FFFFFF" d="M101.557,191.151c-0.427-0.731-0.943-1.62-1.285-2.284l-0.016,0.008c0.128,0.724,0.263,1.515,0.372,2.399
			l0.393,3.107l-0.527,0.271l-2.201-2.117c-0.651-0.637-1.213-1.219-1.695-1.781l-0.016,0.009c0.33,0.681,0.75,1.598,1.122,2.438
			l1.045,2.388l-0.665,0.342l-2.396-5.589l0.889-0.457l2.262,2.137c0.566,0.55,1.047,1.052,1.479,1.537l0.016-0.008
			c-0.135-0.618-0.248-1.31-0.357-2.113l-0.38-3.104l0.888-0.456l3.109,5.223l-0.688,0.354L101.557,191.151z"/>
		<path fill="#FFFFFF" d="M104.368,190.297l0.541,1.936l-0.672,0.451l-1.674-6.184l0.783-0.527l5.104,3.879l-0.695,0.467
			l-1.602-1.222L104.368,190.297z M105.677,188.68l-1.475-1.112c-0.326-0.259-0.602-0.507-0.871-0.748l-0.023,0.015
			c0.129,0.337,0.258,0.706,0.367,1.077l0.486,1.788L105.677,188.68z"/>
		<path fill="#FFFFFF" d="M105.319,184.69c0.254-0.314,0.664-0.723,1.073-1.061c0.646-0.533,1.173-0.757,1.682-0.734
			c0.396,0.013,0.798,0.218,1.101,0.585c0.504,0.611,0.447,1.348,0.098,1.915l0.018,0.021c0.457-0.167,0.947-0.011,1.467,0.377
			c0.69,0.527,1.174,0.887,1.413,0.992l-0.624,0.516c-0.186-0.068-0.622-0.386-1.229-0.865c-0.672-0.531-1.129-0.562-1.694-0.131
			l-0.569,0.47l1.672,2.027l-0.604,0.498L105.319,184.69z M107.676,186.316l0.618-0.51c0.646-0.532,0.763-1.225,0.322-1.759
			c-0.498-0.604-1.154-0.508-1.793,0.02c-0.291,0.24-0.469,0.435-0.551,0.548L107.676,186.316z"/>
		<path fill="#FFFFFF" d="M108.55,181.859l0.555-0.553l2.063,2.073l0.02-0.02c-0.05-0.28-0.089-0.547-0.12-0.796l-0.292-2.921
			l0.688-0.687l0.26,3.374l4.142,0.805l-0.657,0.653l-3.512-0.707l0.057,0.885l1.631,1.639l-0.555,0.553L108.55,181.859z"/>
	</g>
	<g>
		<path fill-rule="evenodd" clip-rule="evenodd" fill="#FFFFFF" d="M49.819,123.611v6.474h3.178
			c1.819-0.415,2.926-1.428,2.926-2.995c-0.023-1.542-1.313-3.479-2.695-3.479H49.819L49.819,123.611z M49.819,113.269v6.335h3.04
			c1.728-0.413,2.787-1.404,2.787-2.924c-0.023-1.521-1.267-3.411-2.557-3.411H49.819L49.819,113.269z M43.463,109.632v1.081
			c0.737,0.186,1.428,0.391,1.612,1.405l-0.023,19.233c0.092,0.943-0.415,1.452-1.589,1.61v1.407h11.124
			c3.363,0,6.587-2.672,6.863-7.164c0.046-2.143-1.059-4.883-3.638-5.92c1.335-1.312,2.647-3.548,2.533-5.689
			c-0.022-1.682-1.245-5.896-6.104-5.964H43.463L43.463,109.632z M81.856,127.228c-0.045-1.359,0.369-2.417,1.29-3.408
			c0.83-0.852,2.511-1.842,3.2-0.943c0.601,0.874,0.162,1.817-0.989,2.992C84.138,126.859,83.032,127.25,81.856,127.228
			L81.856,127.228z M74.534,121.723c1.127,2.672-0.231,4.309-0.737,5.16c-1.452,2.395-5.022,2.441-5.851,2.51
			c0.875,2.396,4.007,2.396,5.665,2.028c2.004-0.83,2.35-0.946,3.754-2.694c-0.921-5.508,3.248-9.399,7.602-9.399
			c2.396,0,3.361,1.106,4.422,2.626c1.565-1.15,4.308-2.464,5.896-2.763c1.059-0.254,1.888,1.174,2.763,2.372
			c0.301-1.566,0.529-3.18,1.43-3.547c0.459-0.254,1.197-0.07,2.186,0.459c0.714,0.438,1.198,0.922,1.798,0.462
			c0.598-0.667,0.529-2.165-0.068-3.108c-0.508-0.762-1.312-0.348-1.981-1.476c-0.529-1.037-0.092-1.75,0.645-2.074
			c0.507-0.23,1.59-0.23,2.027,0.762c0.276,0.597-0.276,1.082,0.022,1.52c0.738,0.783,1.358,1.75,1.451,4.239
			c0.092,2.625-1.543,4.536-2.925,4.767c-0.622,0.024-1.221-0.137-1.566-0.437c-0.46-0.462-0.898-0.762-1.337-0.807
			c-0.829,0.045-0.943,0.646-0.967,1.175c0,2.948,0,5.688,0,8.638c0.276,0.53,0.967,0.092,1.521,1.129
			c0.161,0.735-0.092,1.059-0.76,1.037c-1.818,0-3.639,0-5.459,0c0-3.618,0-7.187,0-10.804c-0.022-0.482-0.16-0.76-0.367-0.83
			c-0.669-0.3-2.557,0.622-3.938,1.406c-0.254,1.405-0.715,2.395-2.027,3.453c-1.613,1.268-2.625,1.775-4.561,1.751
			c0.668,1.383,1.312,2.234,3.224,2.373c1.176-0.022,2.35-0.414,3.617-1.449c0.482-0.394,0.783-0.323,0.967,0.252
			c0.069,0.392-0.091,0.691-0.299,1.037c-1.452,1.727-3.502,2.995-5.943,3.085c-3.386-0.184-5.642-1.844-6.679-4.283
			c-0.506,0.623-1.22,1.174-2.441,2.188c-1.611,1.291-3.293,2.095-6.357,2.095c-3.132-0.184-6.562-3.041-6.494-7.461
			c0.022-5.207,3.594-6.75,5.366-7.418C69.559,119.142,73.104,119.121,74.534,121.723L74.534,121.723z M67.416,127.526
			c-0.023-1.267,0.254-2.557,1.152-3.846c0.968-1.128,2.048-1.313,2.994-0.805c0.552,0.852,0.183,2.004-0.529,2.901
			C69.927,126.997,68.707,127.412,67.416,127.526L67.416,127.526z"/>
		<path fill-rule="evenodd" clip-rule="evenodd" fill="#FFFFFF" d="M127.575,88.232c-0.529-0.738-1.129-1.543-2.625-1.635
			c-1.613,0.092-3.041,1.451-3.109,3.801c-0.024,1.658,1.334,3.706,3.34,3.938c0.807-0.047,1.726-0.415,2.395-1.728V88.232
			L127.575,88.232z M33.007,111.449c7.277-6.379,19.507-11.355,32.521-11.517c7.898,0.024,15.545,2.995,22.709,5.184
			c5.918,1.751,12.185,4.398,18.632,4.377c5.528-0.186,11.632-2.235,12.345-9.283c0.553,0,1.106,0,1.682,0
			c0.415,2.211,1.567,3.686,3.502,3.615c1.427-0.021,3.178-1.519,3.224-4.053c0-1.06,0-2.143,0-3.226
			c-1.266,0.599-1.981,1.566-4.008,1.566c-3.271,0.047-6.288-3.477-6.288-7.555c0.024-3.869,3.156-7.51,6.381-7.485
			c1.934-0.047,2.533,0.69,3.73,1.544c0.185,0.067,0.415-0.047,0.553-0.394c0.138-0.345,0.185-0.898,0.761-0.873
			c1.381,0.044,2.854-0.025,4.26,0.021c0.37-0.021,0.715,0.185,0.783,0.667c-0.045,0.348-0.276,0.6-0.62,0.691
			c-0.462,0.07-0.969,0.37-1.083,0.83c0,4.653,0.068,9.56,0.068,14.189c0,4.215-3.154,7.002-6.38,7.071
			c-2.925-0.094-5.228-1.129-5.458-3.663c-1.129,5.136-3.524,7.879-6.449,9.56c-5.412,3.11-12.898,3.225-21.579,1.682
			c-4.032-0.991-8.039-1.982-12.048-2.95c-3.569-0.828-7.161-1.704-12.759-1.817c-8.775,0.047-16.376,3.294-22.457,9.559
			C40.951,116.61,37.06,114.029,33.007,111.449L33.007,111.449z"/>
		<path fill-rule="evenodd" clip-rule="evenodd" fill="#FFFFFF" d="M33.42,88.578c0,1.404,0,2.809,0,4.216
			c-0.114,0.667-1.196,1.473-2.349,1.519c-1.888-0.115-3.685-1.519-3.638-3.914c0.022-2.005,1.75-3.732,3.108-3.732
			C31.901,86.758,32.983,87.748,33.42,88.578L33.42,88.578z M33.306,85.076c0.207-0.622,0.483-1.082,0.875-1.657
			c1.635,0,3.294,0,4.93,0c0.229,0.138,0.391,0.321,0.437,0.598c-0.116,0.691-0.806,0.899-1.451,1.29c-0.022,2.512,0,5.114,0,7.692
			c-0.022,0.462,0.138,0.716,0.646,0.832c0.484-0.116,0.806-0.209,1.198-0.393c1.52-0.807,2.603-1.844,3.8-3.018
			c0-1.475,0-2.949,0-4.399c-0.114-0.393-0.438-0.645-0.921-0.715c-0.438,0.07-0.876,0.162-1.267,0.275c0-0.39,0-0.805,0-1.195
			c0.599-0.393,1.197-0.808,1.795-1.198c0.715-0.323,1.359-0.207,2.05,0c0.784,0.483,1.36,1.243,1.797,2.051
			c1.312-1.499,2.626-2.304,4.031-2.304c2.003,0.207,3.04,1.381,3.132,3.5c-0.206,2.234-1.405,3.364-3.039,3.661
			c-1.176-0.138-1.844-0.759-1.89-1.796c-0.047-0.783,0.392-0.989,0.76-1.404c0.047-0.761-0.368-0.875-0.76-0.783
			c-0.438,0.069-1.128,0.484-1.128,1.151c-0.023,2.996-0.023,5.759-0.023,8.777c0.276,0.344,0.921,0.458,1.358,0.666
			c0.438,0.368,0.483,0.854,0.347,1.244c-2.12,0-4.192,0-6.265,0c0-1.726,0-3.432,0-5.112c-2.258,2.233-4.538,4.399-7.21,5.39
			c-0.438,0.115-0.714,0.045-1.036-0.186c-0.483-0.782-0.807-1.242-1.244-1.98c-1.173,1.13-2.325,2.166-4.561,2.257
			c-4.329-0.53-6.609-3.178-6.84-7.853c0.346-4.631,2.465-7.073,6.265-7.395C30.865,83.143,32.178,83.947,33.306,85.076
			L33.306,85.076z"/>
		<path fill-rule="evenodd" clip-rule="evenodd" fill="#FFFFFF" d="M45.351,65.867c-8.269,0-16.536,0-24.827,0
			c-6.196,4.376-10.088,12.139-10.064,20.868c0.438,10.757,6.978,19.833,20.221,20.27c4.054,0.023,9.674-2.257,12.969-6.195
			c0.159-0.575-0.278-1.152-0.854-1.199c-3.179,2.696-6.08,4.056-10.203,4.215c-9.42-0.413-14.532-8.382-14.464-15.271
			c0.115-8.2,5.136-13.061,11.309-13.083c2.602,0.207,4.929,1.175,6.909,2.995C39.363,74.251,42.357,70.059,45.351,65.867
			L45.351,65.867z"/>
		<path fill-rule="evenodd" clip-rule="evenodd" fill="#FFFFFF" d="M60.276,73.168c0,7.048,0,14.121,0,21.191
			c0.047,0.944,0.645,1.289,1.774,1.312c0.252,0.023,0.507-0.115,0.689-0.299c0.046-0.415-0.414-0.689-0.552-1.014
			c-0.069-0.321-0.162-0.598-0.185-0.968c0.253-0.714,1.405-0.575,1.773-0.115c0.161,1.152,1.935,2.257,3.409,2.304
			c1.496-0.07,1.98-1.268,1.98-1.772c-0.023-1.037-0.736-1.637-1.336-2.006c-0.944-0.438-1.912-0.991-2.81-1.681
			c-0.715-0.53-1.453-1.59-1.43-2.81c0.139-2.902,1.913-3.732,4.561-3.961c1.913,0,3.824,0,5.759,0
			c0.483,0.021,0.691,0.229,0.669,0.666c-0.508,1.015-0.992,2.05-1.476,3.087c-0.23,0.345-0.529,0.391-0.875,0.186
			c-0.529-0.485-1.196-0.691-2.096-0.785c-1.52-0.045-2.141,0.415-2.303,1.244c-0.115,0.667,0.645,1.061,1.635,1.497
			c0.99,0.53,1.797,0.945,2.811,1.474c1.221,0.808,2.003,2.259,1.934,3.594c-0.161,2.305-2.303,3.618-4.905,3.686
			c-3.086,0-5.85,0-8.913,0c-2.971-0.046-5.091-1.865-5.114-4.975c0-6.036,0-12.047,0-18.059c-0.392-0.253-1.059-0.368-1.22-0.76
			c-0.116-0.83,0.322-0.969,0.875-1.037C56.684,73.191,58.525,73.168,60.276,73.168L60.276,73.168z"/>
		<path fill-rule="evenodd" clip-rule="evenodd" fill="#FFFFFF" d="M95.722,90.927c-0.045-1.358,0.37-2.417,1.29-3.409
			c0.829-0.852,2.511-1.842,3.201-0.943c0.6,0.874,0.162,1.819-0.989,2.994C98.002,90.559,96.897,90.95,95.722,90.927L95.722,90.927
			z M81.42,73.168c0,6.957-0.023,13.889-0.047,20.822c0.023,0.783,1.29,1.359,1.89,1.383c1.357-0.069,2.048-0.576,1.98-1.429
			c0-1.405,0-2.718,0-4.099c-0.761-0.414-1.405-0.875-1.98-1.521c0-1.613,0-3.224,0-4.859c1.682,0,3.339,0,4.997,0
			c0,1.819,0,3.479,0,5.298c0.99,0.621,1.959,1.428,2.971,1.658c0.185-4.331,3.249-7.395,7.602-7.395
			c2.396,0,3.362,1.106,4.422,2.627c1.565-1.152,3.478-2.465,5.066-2.765c1.06-0.254,1.89,1.175,2.764,2.372
			c0.3-1.566,0.53-3.178,1.429-3.547c0.461-0.254,1.197-0.069,2.188,0.461c0.714,0.437,1.197,0.921,1.795,0.46
			c0.6-0.668,0.346-1.497-0.254-2.441c-0.321-0.346-0.62-0.69-0.919-1.037c-0.416-0.528-0.024-0.897,0.344-0.874
			c0.738-0.023,2.649,1.243,2.926,4.215c0.091,2.626-1.543,4.537-2.926,4.768c-0.622,0.024-1.22-0.139-1.565-0.438
			c-0.46-0.46-0.898-0.761-1.336-0.806c-0.829,0.045-0.944,0.645-0.967,1.174c0,2.948,0,5.689,0,8.639
			c0.275,0.529,0.967,0.091,1.52,1.128c0.163,0.737-0.092,1.061-0.76,1.036c-1.82,0-3.639,0-5.459,0c0-3.616,0-7.188,0-10.803
			c-0.022-0.484-0.161-0.76-0.368-0.828c-0.668-0.301-1.728,0.322-3.109,1.104c-0.023,1.221-0.714,2.695-2.026,3.755
			c-1.613,1.266-3.455,1.772-5.39,1.751c0.668,1.382,2.143,2.372,4.054,2.511c1.174-0.025,2.349-0.554,3.615-1.591
			c0.484-0.39,0.783-0.321,0.969,0.254c0.068,0.392-0.093,0.69-0.301,1.038c-1.45,1.727-3.5,2.901-5.941,2.993
			c-3.479,0-6.242-2.233-7.254-5.505c-1.038-0.369-1.959-0.968-3.088-1.544c0,1.105,0,2.305,0,3.432
			c0.047,2.073-2.372,3.548-5.873,3.595c-3.18-0.023-5.758-1.66-5.828-4.122c0.023-6.104,0-12.093,0-18.198
			c0.07-0.99-0.528-1.151-1.173-1.22c-0.346-0.255-0.208-0.669-0.208-1.06c0.022-0.254,0.253-0.324,0.576-0.393
			C77.688,73.168,79.508,73.168,81.42,73.168L81.42,73.168z"/>
		<path fill-rule="evenodd" clip-rule="evenodd" fill="#FFFFFF" d="M110.831,68.516c0.3,0.047,0.599-0.368,0.599-0.761
			c0.023-0.736-0.253-1.428,0.3-2.026c0.552-0.369,1.151-0.162,1.634,0.207c0.302,0.392,0.784,0.576,1.291,0.461
			c0.875-0.069,1.475,0.046,1.889,0.461c0.231,0.966-0.208,1.29-0.508,1.773c-0.482,0.321-0.459,0.76-0.459,1.06
			c0.046,0.599-0.208,1.519-0.761,1.657c-0.437,0.047-0.668-0.183-0.922-0.437c-0.644-0.322-1.013-0.346-1.449,0
			c-0.163,0.207-0.024,0.76,0.321,0.967c0.944,0.46,0.967,0.599,1.336,1.244c0,0.668-0.392,0.854-0.968,1.104
			c-0.482,0.047-0.645,0.485-0.806,0.969c-0.369,0.805-0.76,1.244-1.335,1.405c-0.968-0.276-1.015-0.83-1.291-1.313
			c-0.046-0.599-0.438-0.806-0.689-0.943c-0.532-0.254-1.198-0.944-1.061-1.475c0.185-0.415,0.507-0.645,0.853-0.738
			c0.599-0.39,0.805-0.551,0.666-1.197c-0.412-0.482-0.826-0.368-1.473-0.046c-0.253,0.253-0.483,0.484-0.921,0.438
			c-0.553-0.139-0.807-1.061-0.761-1.659c0-0.3,0.025-0.736-0.46-1.061c-0.3-0.482-0.737-0.805-0.508-1.773
			c0.415-0.414,1.015-0.528,1.891-0.46c0.506,0.115,0.989-0.068,1.288-0.46c0.485-0.368,0.943-0.599,1.498-0.23
			c0.46,0.69,0.023,1.129,0.115,2.027C110.141,68.101,110.532,68.516,110.831,68.516L110.831,68.516z"/>
		<linearGradient id="SVGID_2_" gradientUnits="userSpaceOnUse" x1="51.4053" y1="47.543" x2="91.5967" y2="47.543">
			<stop  offset="0" style="stop-color:#A39161"/>
			<stop  offset="0.1629" style="stop-color:#FFEFBF"/>
			<stop  offset="0.6573" style="stop-color:#A39161"/>
			<stop  offset="0.819" style="stop-color:#A59363"/>
			<stop  offset="0.8773" style="stop-color:#AB996A"/>
			<stop  offset="0.9188" style="stop-color:#B7A575"/>
			<stop  offset="0.9523" style="stop-color:#CAB888"/>
			<stop  offset="0.9807" style="stop-color:#E2D1A2"/>
			<stop  offset="1" style="stop-color:#FFEFBF"/>
			<stop  offset="1" style="stop-color:#F8E7B8"/>
			<stop  offset="1" style="stop-color:#E7D6A9"/>
			<stop  offset="1" style="stop-color:#CEBE93"/>
			<stop  offset="1" style="stop-color:#B2A279"/>
		</linearGradient>
		<path fill-rule="evenodd" clip-rule="evenodd" fill="url(#SVGID_2_)" d="M90.887,47.07c-0.737-0.482-2.188-0.391-2.949-0.875
			c-0.462-0.299-0.646-1.014-0.897-1.174c-0.554-0.393-1.566-0.393-1.981-0.622c-0.276-0.139-0.254-0.761-0.393-0.968
			c-0.575-0.922-1.909-1.682-3.062-1.682c-0.622,0-1.428,0.599-1.956,0.599c-0.992,0-2.188-0.507-2.973-0.968
			c-0.277-0.16-0.506-0.99-0.599-0.99c-1.244-0.299-0.345-1.751-0.669-2.395c-0.298-0.577-1.312-1.105-1.703-1.659
			c-0.438-0.599,0.668-0.507,0.83-0.507c0.368,0,1.127-0.438,1.15-0.576c0.208-1.059,0.599-3.455-0.668-3.961
			c-0.345-0.115-1.15,0.23-1.312,0c-0.231-0.3,0.093-2.051-0.853-2.143c-0.507-0.046-2.025-0.115-2.855,0.115
			c-0.46,0.139-0.829,0.621-0.784,1.244c0.163,1.773-1.266,0.16-1.888,1.197c-0.645,1.06-0.392,2.488-0.093,3.547
			c0.254,0.922,1.774,0.369,1.98,0.576c0.163,0.186-0.206,0.691-0.206,0.691c-1.498,0.414-1.475,2.372-1.682,3.547
			c-0.047,0.322-0.715,0.484-0.784,0.599c-0.136,0.276-0.274,0.876-0.597,0.876c-0.991,0-1.959,0.829-2.741,0.806
			c-1.06-0.022-2.189-0.553-2.972-0.392c-1.152,0.254-2.097,1.244-2.257,2.373c-0.069,0.414-1.476,0.299-1.89,0.575
			c-0.438,0.276-0.599,1.128-1.082,1.29c-0.968,0.276-2.604,0.346-3.156,1.082c-0.875,1.198-0.322,3.271,0.575,4.238
			c0.508,0.531,0.047,1.752,0.322,2.373c0.646,1.451,2.465,1.566,3.64,2.074c0.486,0.183,1.498,1.819,1.682,2.279
			c0.531,1.244,0.898,2.948,1.589,4.124c0.37,0.62,1.337,1.267,1.96,1.565c2.924,1.428,7.094,2.05,9.995,2.05
			c3.201,0,7.023-0.622,9.65-2.142c0.459-0.275,1.174-1.059,1.52-1.521c1.291-1.636,2.303-4.03,3.271-5.873
			c0.506-0.991,2.164-0.622,2.855-1.083c0.92-0.599,1.381-2.073,1.381-3.732c0-0.253,0.761-0.506,0.898-0.806
			C91.669,49.627,91.898,47.738,90.887,47.07z M89.48,50.918c-0.898,0.115-0.345,0.875-0.161,1.497
			c0.161,0.622-0.53,1.681-0.991,1.958c-0.483,0.299-1.52-0.07-1.981,0.207c-1.934,1.221-2.6,5.045-4.145,7.278
			c-2.096,3.041-7.3,2.856-10.64,2.856c-3.18,0-9.144-0.139-10.941-2.949c-1.449-2.303-1.773-6.542-4.354-7.301
			c-0.828-0.23-2.418-0.23-2.532-1.197c-0.07-0.415,0.392-1.221,0.392-1.959c0-0.207-0.807-0.438-0.992-0.576
			c-1.012-0.828-0.783-2.349,0-3.154c0.23-0.277,1.913-0.438,2.143,0.092l0.415-0.092c0.023-0.093,0.091-0.555,0.091-0.6
			c0-0.529,0.738-0.967,1.086-1.174c0.437-0.254,1.359,0.229,1.795-0.094c0.322-0.275,0.461-1.474,0.83-1.98
			c0.159-0.207,0.921-0.806,1.542-0.806c0.737,0,1.521,0.806,2.166,0.806c0.437,0,1.289-0.897,1.819-1.105
			c0.46-0.185,1.911,0.23,1.911,0.23c0.254-0.322,0.254-1.197,0.599-1.59c0.161-0.16,1.176-0.553,1.383-0.689
			c0.368-0.254-0.277-0.53-0.277-0.899c0-0.667-0.045-1.612,0.484-2.05c0.091-0.092,0.622-0.186,0.782-0.299
			c0.508-0.461,0.668-1.774,0.668-2.557c0-0.738-2.441,0.275-2.441-0.416c0-0.621-0.322-1.496,0.184-1.889
			c0.508-0.392,1.659,0.484,2.165,0.115c0.416-0.322-0.366-1.565-0.113-2.165c0.138-0.276,2.095-0.321,2.188,0
			c0.138,0.554-0.622,1.705-0.116,2.165c0.415,0.346,1.475-0.16,2.166-0.115c0.161,0.023,0.229,2.051,0,2.097
			c-0.554,0.069-1.682-0.438-2.166,0c-0.415,0.368,0.023,1.52,0.116,2.165c0.047,0.506,0.874,0.783,1.358,0.99
			c0.138,0.069,0.506,0.807,0.506,1.175c0,0.438-0.483,0.99-0.506,1.566c0,0.369,1.014,0.46,1.289,0.599
			c0.323,0.207,0.669,1.359,0.807,1.797c0.047,0.186,0.761-0.207,1.174-0.207c0.6,0,1.314,0.438,1.775,0.599
			c0.045,0,0.251,0.483,0.598,0.483c0.275,0,1.105-0.689,1.383-0.689c0.46-0.023,1.381-0.047,1.957,0.206
			c0.575,0.229,1.036,1.521,1.267,2.35c0.069,0.276,1.222,0,1.705,0.114c0.644,0.139,1.221,1.337,1.473,1.867
			c0.116,0.23,1.015-0.393,1.268-0.393c0.852,0,1.681,0.668,1.866,1.475C90.608,49.213,90.264,50.849,89.48,50.918z"/>
		<path fill-rule="evenodd" clip-rule="evenodd" fill="#E31B23" d="M60.621,61.766c-1.449-2.303-1.773-6.542-4.354-7.301
			c-0.828-0.23-2.418-0.23-2.532-1.197c-0.07-0.415,0.392-1.221,0.392-1.959c0-0.207-0.807-0.438-0.992-0.576
			c-1.012-0.828-0.783-2.349,0-3.154c0.23-0.277,1.913-0.438,2.143,0.092l0.415-0.092c0.023-0.093,0.091-0.555,0.091-0.6
			c0-0.529,0.738-0.967,1.086-1.174c0.437-0.254,1.359,0.229,1.795-0.094c0.322-0.275,0.461-1.474,0.83-1.98
			c0.159-0.207,0.921-0.806,1.542-0.806c0.737,0,1.521,0.806,2.166,0.806c0.437,0,1.289-0.897,1.819-1.105
			c0.46-0.185,1.911,0.23,1.911,0.23c0.254-0.322,0.254-1.197,0.599-1.59c0.161-0.16,1.176-0.553,1.383-0.689
			c0.368-0.254-0.277-0.53-0.277-0.899c0-0.667-0.045-1.612,0.484-2.05c0.091-0.092,0.622-0.186,0.782-0.299
			c0.508-0.461,0.668-1.774,0.668-2.557c0-0.738-2.441,0.275-2.441-0.416c0-0.621-0.322-1.496,0.184-1.889
			c0.508-0.392,1.659,0.484,2.165,0.115c0.416-0.322-0.366-1.565-0.113-2.165c0.138-0.276,2.095-0.321,2.188,0
			c0.138,0.554-0.622,1.705-0.116,2.165c0.415,0.346,1.475-0.16,2.166-0.115c0.161,0.023,0.229,2.051,0,2.097
			c-0.554,0.069-1.682-0.438-2.166,0c-0.415,0.368,0.023,1.52,0.116,2.165c0.047,0.506,0.874,0.783,1.358,0.99
			c0.138,0.069,0.506,0.807,0.506,1.175c0,0.438-0.483,0.99-0.506,1.566c0,0.369,1.014,0.46,1.289,0.599
			c0.323,0.207,0.669,1.359,0.807,1.797c0.047,0.186,0.761-0.207,1.174-0.207c0.6,0,1.314,0.438,1.775,0.599
			c0.045,0,0.251,0.483,0.598,0.483c0.275,0,1.105-0.689,1.383-0.689c0.46-0.023,1.381-0.047,1.957,0.206
			c0.575,0.229,1.036,1.521,1.267,2.35c0.069,0.276,1.222,0,1.705,0.114c0.644,0.139,1.221,1.337,1.473,1.867
			c0.116,0.23,1.015-0.393,1.268-0.393c0.852,0,1.681,0.668,1.866,1.475c0.137,0.553-0.208,2.188-0.991,2.258
			c-0.898,0.115-0.345,0.875-0.161,1.497c0.161,0.622-0.53,1.681-0.991,1.958c-0.483,0.299-1.52-0.07-1.981,0.207
			c-1.934,1.221-2.6,5.045-4.145,7.278c-2.096,3.041-7.3,2.856-10.64,2.856C68.383,64.715,62.419,64.576,60.621,61.766
			L60.621,61.766z"/>
		<linearGradient id="SVGID_3_" gradientUnits="userSpaceOnUse" x1="56.3828" y1="51.3535" x2="86.4873" y2="51.3535">
			<stop  offset="0" style="stop-color:#A39161"/>
			<stop  offset="0.1629" style="stop-color:#FFEFBF"/>
			<stop  offset="0.6573" style="stop-color:#A39161"/>
			<stop  offset="0.819" style="stop-color:#A59363"/>
			<stop  offset="0.8773" style="stop-color:#AB996A"/>
			<stop  offset="0.9188" style="stop-color:#B7A575"/>
			<stop  offset="0.9523" style="stop-color:#CAB888"/>
			<stop  offset="0.9807" style="stop-color:#E2D1A2"/>
			<stop  offset="1" style="stop-color:#FFEFBF"/>
			<stop  offset="1" style="stop-color:#F8E7B8"/>
			<stop  offset="1" style="stop-color:#E7D6A9"/>
			<stop  offset="1" style="stop-color:#CEBE93"/>
			<stop  offset="1" style="stop-color:#B2A279"/>
		</linearGradient>
		<path fill-rule="evenodd" clip-rule="evenodd" fill="url(#SVGID_3_)" d="M70.779,44.399c0.047-1.337,1.82-0.462,1.267,0.321
			C71.539,45.436,70.756,44.998,70.779,44.399L70.779,44.399z M71.033,47.762c-0.622-0.668,0.483-1.336,0.92-0.783
			C72.46,47.624,71.517,48.268,71.033,47.762L71.033,47.762z M77.966,48.061c-0.692-0.275-1.568-0.275-2.374-0.598
			c0.208-0.6,0.601-0.875,0.806-1.59c0.783-0.162,1.775-0.276,2.673,0l0.185,0.414c0.092,0.507-0.299,0.898-0.6,1.383
			c0,0.115-0.299,0.184-0.575,0.391H77.966L77.966,48.061z M64.675,48.061c-0.3-0.275-0.69-0.69-0.99-1.358l0.093-0.622
			c0.69-0.691,1.797-0.369,2.671-0.207c0.186,0.322,0.484,1.105,0.876,1.497l-0.093,0.208c-0.691,0-1.566,0.275-2.372,0.482H64.675
			L64.675,48.061z M83.492,52.115c-0.229-0.76-0.99-1.359-1.404-1.98l0.114-0.301c0.254-0.229,0.76-0.598,0.877-0.897l0.206-0.091
			l1.981,0.598l0.207,0.391v0.415C85.15,51.125,84.367,51.516,83.492,52.115L83.492,52.115z M59.332,52.115l-1.774-1.475
			l-0.092-0.807c0.301-0.897,1.291-0.782,2.074-0.988c0.598,0.206,0.69,0.713,1.288,0.988v0.415c-0.505,0.392-0.897,1.06-1.38,1.751
			L59.332,52.115L59.332,52.115z M59.747,55.662l-0.714-0.207c0.114-0.275,0.299-0.6,0.507-0.99
			c0.113-0.277-0.208-0.783-0.393-1.197l-2.278-1.844c-0.094-0.299-0.394-0.783-0.486-1.175c0.093-0.415,0-0.897,0.393-1.403
			c0.69-0.578,1.682-0.785,2.557-0.992l0.116-0.668l0.299-0.392c0.184-0.092,0.483-0.092,0.783-0.299l0.506,0.483
			c0.092,0.299-0.115,0.6-0.299,0.99v0.393c0.184,0.414,0.508,0.575,1.083,0.896c0.69,0.67,1.656,1.567,1.474,2.857
			c0.483,0,0.483-0.6,0.898-0.691c0.183,0,0.482,0.369,0.667,0c0.6-2.487-3.339-3.455-1.865-6.104
			c0.482-0.6,1.474-0.507,2.165-0.714c0.3,0.114,0.784,0,1.174,0.299c0.393-0.092,0.393-0.575,0.715-0.99
			c0.276-0.185,0.598-0.185,0.969-0.185c0.204,0.093,0.297,0.393,0.505,0.669c-0.091,0.506-0.6,0.622-0.806,1.197
			c0.206,1.773,2.649,3.249,1.496,5.321c-0.091,0.207-0.298,0.207-0.505,0.598l0.299,0.115c0.99-0.207,1.565-0.898,2.349-1.496
			l2.855,1.496c0-0.322-0.299-0.414-0.506-0.713c-0.576-0.875-0.16-1.981,0.207-2.949l1.289-1.98v-0.392
			c-0.184-0.483-0.506-0.575-0.783-1.197l0.186-0.368l0.414-0.301c0.276,0,0.575-0.092,0.99,0.185
			c0.186,0.322,0.186,0.806,0.599,0.99c0.668-0.299,1.36-0.185,2.143-0.299c0.322,0,0.507,0.207,0.899,0.415
			c0.182,0.207,0.39,0.367,0.597,0.852c0.483,2.188-2.579,3.063-2.164,5.344l0.369,0.414l0.507-0.115c0.114,0,0.184,0.277,0.391,0.6
			h0.301c-0.186-1.29,0.806-2.281,1.772-2.972c0.184-0.298,0.668-0.368,0.875-0.876c0-0.299-0.207-0.598-0.368-0.99
			c0-0.207,0.091-0.782,0.483-0.782c0.184,0.093,0.483,0.093,0.783,0.299c0,0.069,0.391,0.483,0.299,0.876
			c0.507,0.391,1.382,0.391,2.165,0.783c0.3,0.207,0.599,0.393,0.807,0.99c0.068,0.6,0,1.289-0.414,1.98L83.4,53.98
			c-0.115,0.393,0.092,0.875,0.392,1.383l-0.3,0.207c-1.98,0.185-3.663-1.197-4.629-2.787l-0.414-0.162
			c-1.682,0.576-3.34,0.576-5.113-0.206c-0.208-0.116-0.692-0.415-1.083-0.622l-0.69-0.484c-2.073,1.198-4.63,2.373-7.095,1.312
			l-0.391,0.162c-0.875,1.312-2.351,2.787-4.237,2.787L59.747,55.662L59.747,55.662z M78.863,60.707
			c-0.414-0.507,0-1.405-0.208-2.096l0.301-0.185c0.184,0.092,0.506,0.185,0.783,0.391c0,0.301,0.391,0.301,0.391,0.783
			l-0.184,0.414c-0.299,0.071-0.484,0.369-0.99,0.576L78.863,60.707L78.863,60.707z M64.192,60.775
			c-0.508-0.185-0.99-0.575-1.406-0.967c0-0.853,0.462-1.036,1.198-1.382l0.275,0.092c0,0.713,0,1.383,0,2.188L64.192,60.775
			L64.192,60.775z M76.675,61.283c-0.392-0.784,0-2.165-0.185-3.249c0.115-0.299,0.485-0.114,0.898-0.208l0.276,0.484
			c0,0.921,0,1.775,0,2.766L76.675,61.283L76.675,61.283z M66.333,61.374c-0.276-0.184-0.598-0.091-0.966-0.298l-0.116-2.949
			c0.208-0.207,0.692-0.482,1.082-0.301V61.374L66.333,61.374z M74.417,61.581l-0.091-3.937l0.276-0.208h0.414
			c0.184,0.091,0.276,0.208,0.483,0.483v3.569C75.2,61.581,74.81,61.489,74.417,61.581L74.417,61.581z M67.531,61.581l-0.092-3.846
			c0.276,0,0.577-0.415,0.991-0.299l0.206,0.299v3.754C68.313,61.581,67.922,61.489,67.531,61.581L67.531,61.581z M72.253,61.766
			l-0.207-0.185l0.093-4.054c0.206,0,0.598-0.367,0.92-0.091l0.161,0.39v3.364l-0.161,0.483L72.253,61.766L72.253,61.766z
			 M70.088,61.766l-0.392-0.185l0.093-4.054c0.114-0.367,0.576,0,0.99-0.091v4.237L70.088,61.766L70.088,61.766z M71.147,62.664
			c-2.834-0.298-7.07-0.093-9.235-2.855c0-1.197,1.082-1.682,2.28-2.281c5.204-1.357,10.617-1.772,15.938,0.715
			c0.207,0.185,0.415,0.369,0.69,0.669l0.208,0.598c0,0.208-0.092,0.506-0.301,0.783c-0.114,0.415-0.898,0.483-1.174,0.898
			C76.768,62.366,74.026,62.366,71.147,62.664L71.147,62.664z M71.239,42.164c-1.127-0.092-0.828-1.912,0.023-2.096
			C72.828,39.77,72.852,42.256,71.239,42.164L71.239,42.164z"/>
		<path fill-rule="evenodd" clip-rule="evenodd" fill="#E31B23" d="M102.725,115.343c0.644-0.023,1.289-0.047,1.934-0.094
			c-0.185-0.251-0.368-0.458-0.553-0.689c-0.299-0.438,0.254-0.923-0.022-1.52c-0.438-0.992-1.521-0.992-2.027-0.762
			c-0.736,0.324-1.174,1.037-0.645,2.074C101.826,115.066,102.31,115.181,102.725,115.343L102.725,115.343z M52.743,113.269
			c1.729-0.92,3.524-1.681,5.414-2.256c-0.922-0.783-2.189-1.334-3.916-1.381H43.463v1.081c0.737,0.186,1.428,0.391,1.612,1.405
			l-0.023,7.023c0,0,0,0,0,0.024c1.497-1.542,3.086-2.901,4.768-4.077v-1.82H52.743L52.743,113.269z"/>
	</g>
	<g>
		<linearGradient id="SVGID_4_" gradientUnits="userSpaceOnUse" x1="58.3208" y1="168.0303" x2="84.4287" y2="168.0303">
			<stop  offset="0" style="stop-color:#A39161"/>
			<stop  offset="0.1629" style="stop-color:#FFEFBF"/>
			<stop  offset="0.6573" style="stop-color:#A39161"/>
			<stop  offset="0.819" style="stop-color:#A59363"/>
			<stop  offset="0.8773" style="stop-color:#AB996A"/>
			<stop  offset="0.9188" style="stop-color:#B7A575"/>
			<stop  offset="0.9523" style="stop-color:#CAB888"/>
			<stop  offset="0.9807" style="stop-color:#E2D1A2"/>
			<stop  offset="1" style="stop-color:#FFEFBF"/>
			<stop  offset="1" style="stop-color:#F8E7B8"/>
			<stop  offset="1" style="stop-color:#E7D6A9"/>
			<stop  offset="1" style="stop-color:#CEBE93"/>
			<stop  offset="1" style="stop-color:#B2A279"/>
		</linearGradient>
		<path fill-rule="evenodd" clip-rule="evenodd" fill="url(#SVGID_4_)" d="M71.109,162.191c0.691,0.108,1.381-0.849,1.381-1.754
			c0.053-1.698-0.583-3.292,0.69-4.672c1.272-0.851,2.654-0.374,3.767,0.477c0.696,0.903,1.809,1.329,2.978,1.062
			c2.018-0.159,3.4,0.106,4.354,1.063c0.534,2.226-0.479,2.975-1.171,4.088c-1.112,0.741-1.059,1.753-1.059,2.444
			c0.105,1.38-0.479,3.501-1.754,3.821c-1.007,0.107-1.54-0.423-2.125-1.008c-1.484-0.742-2.336-0.797-3.342,0
			c-0.376,0.479-0.057,1.753,0.741,2.229c2.177,1.062,2.229,1.38,3.08,2.868c0,1.541-0.903,1.969-2.232,2.548
			c-1.112,0.106-1.485,1.118-1.856,2.233c-0.852,1.855-1.752,2.868-3.078,3.239c-2.232-0.637-2.339-1.913-2.977-3.028
			c-0.106-1.38-1.012-1.858-1.59-2.174c-1.227-0.586-2.763-2.178-2.446-3.4c0.427-0.957,1.17-1.486,1.967-1.703
			c1.38-0.898,1.854-1.27,1.536-2.76c-0.95-1.112-1.906-0.85-3.396-0.106c-0.583,0.583-1.114,1.117-2.123,1.012
			c-1.273-0.32-1.859-2.445-1.753-3.826c0-0.691,0.057-1.698-1.062-2.445c-0.691-1.112-1.7-1.854-1.171-4.089
			c0.956-0.954,2.339-1.219,4.359-1.061c1.166,0.266,2.28-0.158,2.97-1.061c1.119-0.849,2.176-1.381,3.453-0.531
			c1.062,1.592,0.056,2.604,0.267,4.675C69.518,161.234,70.421,162.191,71.109,162.191L71.109,162.191z"/>
		<circle fill-rule="evenodd" clip-rule="evenodd" fill="#E31B23" cx="71.375" cy="165.959" r="2.49"/>
	</g>
</g>
</svg>
