<?xml version="1.0" encoding="utf-8"?>
<!-- Generator: Adobe Illustrator 16.0.0, SVG Export Plug-In . SVG Version: 6.00 Build 0)  -->
<!DOCTYPE svg PUBLIC "-//W3C//DTD SVG 1.1//EN" "http://www.w3.org/Graphics/SVG/1.1/DTD/svg11.dtd">
<svg version="1.1" id="Layer_1" xmlns="http://www.w3.org/2000/svg" xmlns:xlink="http://www.w3.org/1999/xlink" x="0px" y="0px"
	 width="175.748px" height="155.285px" viewBox="0 0 175.748 155.285" enable-background="new 0 0 175.748 155.285"
	 xml:space="preserve">
<g>
	<path fill-rule="evenodd" clip-rule="evenodd" fill="#134294" d="M175.336,82.883l-2.141-2.221
		c-0.318-0.238-0.636-0.396-1.031-0.477c0,0-1.27-0.078-2.379-0.078c1.03-1.19,1.744-2.459,2.379-4.045
		c0.713-1.824,1.031-3.728,1.031-5.472c0-1.507-0.239-3.014-0.714-4.362c0.078-0.634,1.902-12.451,1.902-12.53
		c0-0.317-0.158-0.555-0.396-0.873c0,0-1.031-1.347-2.775-3.013c-1.744-1.745-4.044-3.251-6.82-3.728
		c-2.379-0.396-4.758-0.317-6.978,0.317c-0.556-1.11-1.666-2.458-2.379-3.172c-0.794-0.714-1.27-1.031-2.142-1.586
		c-1.745-1.031-3.728-1.11-5.552-0.317l-0.079,0.079c-1.427,0.714-2.538,1.745-3.093,3.172c0.476-2.618,0.873-4.838,0.873-4.917
		c0-0.396-0.159-0.793-0.397-1.031c0,0-1.586-1.586-2.22-2.221c-0.714-0.634-1.349-0.476-1.349-0.476l-13.719,2.538
		c-0.476,0.08-0.872,0.477-1.11,0.952c0,0-1.189,5.313-1.586,7.138c-4.361-3.648-9.199-6.661-14.433-8.961
		c1.982-2.617,15.305-20.142,15.305-20.142c0.238-0.238,0.396-0.555,0.396-0.873c0-0.397-0.237-0.714-0.476-1.031l-1.824-1.824
		c-0.396-0.396-1.03-0.555-1.586-0.396c0,0-29.024,11.023-31.403,11.974c-0.952-1.823-9.437-22.363-9.595-22.521
		c-0.079-0.238-0.159-0.396-0.238-0.476c-0.476-0.476-1.903-1.903-1.903-1.903c-0.159-0.159-0.555-0.476-1.428-0.396
		c-0.555,0.08-0.873,0.476-1.03,1.031c0,0-8.962,29.183-10.23,33.624c-1.348,0.475-29.579,11.181-29.579,11.181
		c-0.556,0.158-1.031,0.555-1.11,1.189c0,0.476,0.317,0.952,0.555,1.189c0,0,6.424,4.203,8.247,5.393
		c-3.806,4.6-7.057,9.754-9.357,15.384c-0.555,1.19-1.031,2.458-1.428,3.569c-2.062,0.872-4.361,1.745-4.361,1.745
		c-7.137,2.934-13.402,7.375-18.16,12.926c-5.948,6.819-9.516,15.305-10.626,24.9C0.08,114.207,0,116.11,0,117.934
		c0,6.503,1.586,12.768,4.441,17.129c3.331,4.917,7.771,8.089,13.64,9.278c5.233,1.031,10.626,1.507,25.059-5.075
		c1.745-0.793,3.41-1.586,5.075-2.3c0.159,0.158,0.476,0.476,0.555,0.555c10.943,11.499,25.615,17.764,41.078,17.764
		c12.133,0,23.711-3.806,33.624-11.181c9.278-6.82,16.336-16.258,20.459-27.2c0.397,0.158,1.349,0.396,1.349,0.396
		c0.635,0.159,1.269-0.079,1.665-0.634l0.794-1.507c11.498-19.588,21.648-26.407,21.729-26.407l5.63-3.569
		c0.396-0.316,0.635-0.634,0.635-1.11C175.812,83.596,175.574,83.121,175.336,82.883L175.336,82.883z"/>
	<path fill-rule="evenodd" clip-rule="evenodd" fill="#E30520" d="M87.945,36.65c-29.817,0-54.242,25.456-54.242,56.542
		c0,31.245,24.424,56.621,54.242,56.621c30.056,0,54.48-25.376,54.48-56.621C142.426,62.106,118.001,36.65,87.945,36.65
		L87.945,36.65z"/>
	<path fill-rule="evenodd" clip-rule="evenodd" fill="#FCC200" d="M87.945,146.958L87.945,146.958
		c28.469,0,51.625-24.107,51.625-53.767c0-29.5-23.156-53.687-51.625-53.687l0,0v2.617l0,0c27.121,0,49.167,22.918,49.167,51.07
		c0,28.152-22.046,51.149-49.167,51.149l0,0V146.958L87.945,146.958z M36.479,93.192c0,29.659,23.156,53.688,51.466,53.767v-2.617
		c-26.962,0-49.008-22.997-49.008-51.149c0-28.152,22.045-51.07,49.008-51.07v-2.617C59.635,39.505,36.479,63.692,36.479,93.192
		L36.479,93.192z"/>
	<path fill-rule="evenodd" clip-rule="evenodd" fill="#134294" d="M119.825,93.192c0,18.319-14.274,33.228-31.88,33.228l0,0v1.507
		l0,0c18.398,0,33.465-15.543,33.465-34.734c0-19.032-15.066-34.655-33.465-34.655l0,0v1.507l0,0
		C105.551,60.044,119.825,74.953,119.825,93.192L119.825,93.192z M87.945,126.419c-17.525,0-31.8-14.908-31.8-33.228
		c0-18.239,14.274-33.148,31.8-33.148v-1.507c-18.239,0-33.228,15.623-33.228,34.655c0,19.191,14.988,34.734,33.228,34.734V126.419
		L87.945,126.419z"/>
	<path fill-rule="evenodd" clip-rule="evenodd" fill="#FCC200" d="M119.825,93.192c0,18.319-14.274,33.228-31.88,33.228
		c-17.525,0-31.8-14.908-31.8-33.228c0-18.239,14.274-33.148,31.8-33.148C105.551,60.044,119.825,74.953,119.825,93.192
		L119.825,93.192z"/>
	<path fill-rule="evenodd" clip-rule="evenodd" fill="#E30520" d="M98.73,63.295H77.319c-0.714,0.317-1.428,0.555-2.062,0.952
		h25.535C100.078,63.851,99.365,63.613,98.73,63.295L98.73,63.295z"/>
	<path fill-rule="evenodd" clip-rule="evenodd" fill="#E30520" d="M103.488,65.674H72.481c-0.396,0.317-0.872,0.555-1.427,0.952
		h33.862C104.52,66.229,104.044,65.992,103.488,65.674L103.488,65.674z"/>
	<path fill-rule="evenodd" clip-rule="evenodd" fill="#E30520" d="M106.978,68.054H69.151c-0.396,0.317-0.714,0.634-1.031,0.951
		h39.889C107.612,68.688,107.295,68.371,106.978,68.054L106.978,68.054z"/>
	<path fill-rule="evenodd" clip-rule="evenodd" fill="#E30520" d="M109.516,70.512H66.534c-0.317,0.317-0.635,0.555-0.873,0.872
		h44.726C110.07,71.067,109.833,70.829,109.516,70.512L109.516,70.512z"/>
	<path fill-rule="evenodd" clip-rule="evenodd" fill="#E30520" d="M111.577,72.891H64.393c-0.238,0.317-0.396,0.555-0.714,0.873
		h48.612C112.133,73.446,111.895,73.208,111.577,72.891L111.577,72.891z"/>
	<path fill-rule="evenodd" clip-rule="evenodd" fill="#E30520" d="M113.322,75.27H62.648c-0.159,0.238-0.397,0.634-0.556,0.872
		h51.863C113.798,75.904,113.56,75.508,113.322,75.27L113.322,75.27z"/>
	<path fill-rule="evenodd" clip-rule="evenodd" fill="#E30520" d="M114.828,77.649H61.221c-0.08,0.238-0.238,0.555-0.476,0.793
		h54.48C115.066,78.204,114.987,77.887,114.828,77.649L114.828,77.649z"/>
	<path fill-rule="evenodd" clip-rule="evenodd" fill="#E30520" d="M115.939,80.028H60.031c-0.079,0.238-0.158,0.556-0.317,0.872
		h56.621C116.256,80.583,116.098,80.266,115.939,80.028L115.939,80.028z"/>
	<path fill-rule="evenodd" clip-rule="evenodd" fill="#E30520" d="M116.891,82.407H59.159c-0.08,0.238-0.238,0.556-0.317,0.873
		h58.365C117.129,82.962,116.97,82.645,116.891,82.407L116.891,82.407z"/>
	<path fill-rule="evenodd" clip-rule="evenodd" fill="#E30520" d="M117.604,84.707h-59.16c-0.079,0.396-0.237,0.635-0.237,0.952
		h59.634C117.763,85.341,117.684,85.103,117.604,84.707L117.604,84.707z"/>
	<path fill-rule="evenodd" clip-rule="evenodd" fill="#E30520" d="M118.159,87.166H57.89c-0.079,0.316-0.079,0.555-0.159,0.951
		h60.587C118.238,87.72,118.238,87.482,118.159,87.166L118.159,87.166z"/>
	<path fill-rule="evenodd" clip-rule="evenodd" fill="#E30520" d="M118.556,89.544H57.573c0,0.316-0.079,0.634-0.079,0.951h61.062
		C118.556,90.178,118.556,89.861,118.556,89.544L118.556,89.544z"/>
	<path fill-rule="evenodd" clip-rule="evenodd" fill="#E30520" d="M118.635,91.922h-61.22c-0.079,0.318-0.079,0.636-0.079,0.952
		h61.379C118.635,92.558,118.635,92.241,118.635,91.922L118.635,91.922z"/>
	<path fill-rule="evenodd" clip-rule="evenodd" fill="#E30520" d="M118.635,94.381H57.335c0.079,0.238,0.079,0.556,0.079,0.872
		h61.22C118.635,94.937,118.635,94.62,118.635,94.381L118.635,94.381z"/>
	<path fill-rule="evenodd" clip-rule="evenodd" fill="#E30520" d="M118.556,96.76H57.573c0,0.238,0.08,0.635,0.08,0.873h60.745
		C118.477,97.395,118.477,96.999,118.556,96.76L118.556,96.76z"/>
	<path fill-rule="evenodd" clip-rule="evenodd" fill="#E30520" d="M118.159,99.14H57.89c0.079,0.316,0.079,0.634,0.159,0.872h59.952
		C118.001,99.774,118.08,99.457,118.159,99.14L118.159,99.14z"/>
	<path fill-rule="evenodd" clip-rule="evenodd" fill="#E30520" d="M117.604,101.598H58.366c0.079,0.237,0.238,0.555,0.318,0.872
		h58.762C117.445,102.153,117.525,101.835,117.604,101.598L117.604,101.598z"/>
	<path fill-rule="evenodd" clip-rule="evenodd" fill="#E30520" d="M116.891,103.897H59.159c0.079,0.318,0.237,0.635,0.237,0.952
		h57.256C116.731,104.532,116.812,104.215,116.891,103.897L116.891,103.897z"/>
	<path fill-rule="evenodd" clip-rule="evenodd" fill="#E30520" d="M116.019,106.277H60.031c0.159,0.396,0.317,0.635,0.476,0.951
		h55.114C115.701,106.912,115.859,106.673,116.019,106.277L116.019,106.277z"/>
	<path fill-rule="evenodd" clip-rule="evenodd" fill="#E30520" d="M114.828,108.735H61.142c0.237,0.317,0.396,0.556,0.555,0.873
		h52.656C114.512,109.291,114.67,109.052,114.828,108.735L114.828,108.735z"/>
	<path fill-rule="evenodd" clip-rule="evenodd" fill="#E30520" d="M113.401,111.114H62.648c0.238,0.317,0.317,0.635,0.555,0.952
		h49.563C113.005,111.749,113.242,111.431,113.401,111.114L113.401,111.114z"/>
	<path fill-rule="evenodd" clip-rule="evenodd" fill="#E30520" d="M111.656,113.493H64.313c0.317,0.317,0.476,0.635,0.793,0.873
		h45.916C111.181,114.127,111.498,113.81,111.656,113.493L111.656,113.493z"/>
	<path fill-rule="evenodd" clip-rule="evenodd" fill="#E30520" d="M109.595,115.952h-43.22c0.397,0.238,0.635,0.555,0.952,0.793
		h41.396C109.04,116.506,109.277,116.19,109.595,115.952L109.595,115.952z"/>
	<path fill-rule="evenodd" clip-rule="evenodd" fill="#E30520" d="M106.978,118.331H69.072c0.317,0.238,0.714,0.635,1.11,0.872
		h35.685C106.264,118.965,106.66,118.569,106.978,118.331L106.978,118.331z"/>
	<path fill-rule="evenodd" clip-rule="evenodd" fill="#E30520" d="M103.647,120.709H72.323c0.555,0.317,1.031,0.635,1.586,0.872
		h28.231C102.695,121.344,103.171,121.027,103.647,120.709L103.647,120.709z"/>
	<path fill-rule="evenodd" clip-rule="evenodd" fill="#E30520" d="M98.889,123.089H77.081c0.872,0.316,1.745,0.634,2.617,0.872
		h16.653C97.224,123.723,98.096,123.406,98.889,123.089L98.889,123.089z"/>
	<path fill-rule="evenodd" clip-rule="evenodd" fill="#E30520" d="M116.177,19.6c0,0-25.139,9.517-28.39,10.785
		c-1.348-3.172-9.595-22.522-9.595-22.522l-1.744,5.789c0,0-6.662,21.888-7.217,23.791c-1.903,0.713-26.725,10.15-26.725,10.15
		s17.843,9.517,20.38,10.865c-0.793,3.014-11.975,42.665-11.975,42.665l3.807,1.982c0,0,23.077-37.668,24.98-39.81
		c2.458,1.031,24.504,9.913,24.504,9.913s-8.644-23.711-9.437-25.694C96.113,45.77,116.177,19.6,116.177,19.6L116.177,19.6z"/>
	<polygon fill-rule="evenodd" clip-rule="evenodd" fill="#FCC200" points="78.588,14.287 78.826,46.88 70.975,39.029 78.588,14.287 
			"/>
	<polygon fill-rule="evenodd" clip-rule="evenodd" fill="#FCC200" points="47.74,47.832 78.826,46.88 65.503,57.269 47.74,47.832 	
		"/>
	<polygon fill-rule="evenodd" clip-rule="evenodd" fill="#FCC200" points="53.053,101.598 78.826,46.88 78.984,60.52 
		53.053,101.598 	"/>
	<polygon fill-rule="evenodd" clip-rule="evenodd" fill="#FCC200" points="100.476,69.164 78.826,46.88 92.307,47.039 
		100.476,69.164 	"/>
	<polygon fill-rule="evenodd" clip-rule="evenodd" fill="#FCC200" points="109.674,24.358 78.826,46.88 86.597,33.082 
		109.674,24.358 	"/>
	<path fill-rule="evenodd" clip-rule="evenodd" fill="#134294" d="M174.701,83.834L174.701,83.834c-0.079,0-0.079,0-0.079,0
		c0-0.079,0-0.079,0-0.079s0,0,0-0.08c0,0,0,0-0.079,0c0-0.079,0-0.079,0-0.079l-2.221-2.141c0-0.079-0.158-0.159-0.238-0.159
		c0,0-2.934-0.158-4.837-0.316c1.507-1.19,3.013-2.935,3.886-5.234c0.635-1.824,0.951-3.489,0.951-5.154
		c0-1.507-0.237-2.935-0.793-4.283c0.079-0.158,1.904-12.53,1.904-12.53V53.7c0-0.079,0-0.159-0.08-0.238l-0.634-0.714
		c-0.477-0.555-1.031-1.11-1.587-1.506l-0.635-0.714c-1.665-1.903-3.488-2.935-6.105-3.41c-2.537-0.397-4.996-0.159-7.296,0.555
		c-0.317-0.634-0.635-1.269-1.11-1.824c0,0-1.744-2.221-3.489-3.331c-1.269-0.793-2.934-0.873-4.52-0.159l0,0
		c-1.428,0.714-2.459,1.903-2.935,3.41c-0.159,0.555-0.238,1.189-0.238,1.823c0,0.238,0,0.477,0.079,0.635
		c-0.714-0.079-1.427-0.158-2.141-0.079c-0.079,0-0.159,0-0.238,0c0.872-4.044,1.665-8.406,1.665-8.406c0-0.079,0-0.079,0-0.079l0,0
		c0-0.08,0-0.08,0-0.08s0,0,0-0.079l0,0l-0.079-0.08l0,0c0,0,0,0-0.079,0l-2.141-2.299c0,0,0,0-0.08,0l0,0h-0.079l0,0
		c-0.079,0-0.079,0-0.079,0s0,0-0.079,0l0,0h-0.079l0,0l-13.641,2.379c-0.158,0.079-0.237,0.159-0.316,0.317l-0.396,1.269v0.238
		c-0.714,3.648-1.428,7.375-2.459,10.706c-1.348-0.555-3.647-0.873-7.375,0.476c-1.744,0.555-3.647,1.745-5.393,3.251
		c-0.158,0.079-2.141,0.396-3.409,0.793c-1.27,0.316-8.803,3.331-8.803,3.331c-3.093,1.189-6.899,3.013-8.564,3.965l-4.283,2.3
		l-9.675,4.996l-14.908,7.295c-0.08,0.079-0.159,0.159-0.159,0.317l-0.159,1.189c0,0-0.317,1.824-0.475,2.854
		c-1.19-1.507-3.014-2.3-5.314-2.379c-0.396,0-0.713,0-1.189,0.079c1.11-4.758,2.935-13.243,2.935-13.243l0,0
		c0-0.079,0-0.079,0-0.079l0,0l0,0c0,0,0,0,0-0.08l0,0c0,0,0-0.08-0.08-0.08l0,0v-0.08l0,0l-0.079-0.079l0,0l-2.22-2.221l0,0l0,0
		l0,0c0,0-0.08,0-0.08-0.079l0,0c-0.08,0-0.08,0-0.08,0h-0.079c0,0,0,0-0.079,0l0,0l0,0c-0.079,0-0.079,0-0.079,0l0,0l-4.124,2.062
		c-4.759,2.3-10.23,4.361-10.31,4.361l-1.031,0.476c-0.08,0-7.692,3.093-9.675,3.807l0,0l-0.08,0.079
		c-6.979,2.776-13.243,7.137-17.843,12.609c-5.789,6.661-9.278,14.908-10.388,24.346c-1.031,8.802,0.317,15.939,3.886,21.253
		c0.951,1.506,2.22,2.854,3.489,3.964c2.538,3.014,5.869,5.076,9.279,5.71l0.238,0.079c6.106,1.11,10.23,1.349,24.425-5.075
		c4.996-2.3,8.564-4.044,12.053-5.789c6.503-3.251,12.134-6.105,25.377-11.102c15.464-5.947,30.135-8.724,44.806-8.248
		c9.516,0.238,18.794,2.697,18.952,2.697l1.587,0.396c0.158,0.079,0.396,0,0.396-0.08l0.872-1.506
		c11.736-19.984,21.967-26.725,22.125-26.805l5.551-3.647l0,0c0,0,0,0,0.08,0l0,0h0.079v-0.08l0,0l0,0
		c0-0.079,0.079-0.079,0.079-0.079c0-0.079,0-0.079,0-0.079l0,0V83.834L174.701,83.834z"/>
	<path fill-rule="evenodd" clip-rule="evenodd" fill="#FCC200" d="M41.316,73.446c0,0,5.71-2.141,10.547-4.52l-4.361,20.538
		c0,0,3.648-6.661,8.326-6.502c5.393,0.237,4.758,5.233,3.568,11.34c-0.634,3.093-2.458,16.099-2.458,16.099
		s-7.454,4.599-9.675,5.868c0,0,2.142-14.037,3.014-20.063c0.634-3.965-1.189-4.679-2.617-2.854
		c-0.792,0.951-1.506,2.616-2.617,9.278c-0.873,5.154-2.458,16.494-2.458,16.494s-7.93,4.521-10.468,3.014
		C32.117,122.137,37.43,88.276,41.316,73.446L41.316,73.446z"/>
	<path fill-rule="evenodd" clip-rule="evenodd" fill="#FCC200" d="M64.234,80.186l9.357-4.599
		c-1.744,9.12-2.775,15.861-3.172,18.001c-0.555,4.045,1.189,4.521,3.093,1.745c0.713-0.952,0.952-1.982,1.506-4.6
		c1.189-7.138,3.331-17.447,3.331-17.447l9.437-4.917c0,0-3.965,15.464-5.789,27.993l-8.485,4.679l0.396-2.379
		c0,0-1.824,4.124-5.869,6.424c-4.361,2.458-7.771,0-6.582-6.899C62.251,93.906,64.234,80.186,64.234,80.186L64.234,80.186z"/>
	<path fill-rule="evenodd" clip-rule="evenodd" fill="#FCC200" d="M124.187,54.651c0,0-1.665-1.269-6.265,0.238
		c-4.6,1.586-11.103,8.406-13.402,18.556c-2.3,10.071,1.189,14.83,7.692,11.975c3.965-1.428,6.344-4.758,6.344-4.758l2.062-8.724
		c0,0-2.537,5.393-5.947,6.186c-3.172,0.792-3.252-4.521-1.824-9.041c1.189-3.648,3.807-7.771,6.582-8.724
		c1.982-0.555,3.173,0.952,3.173,0.952L124.187,54.651L124.187,54.651z"/>
	<path fill-rule="evenodd" clip-rule="evenodd" fill="#FCC200" d="M129.341,41.805c0,0-2.3,9.833-4.282,18.001
		c-2.142,9.041-4.679,22.521-4.679,22.521s7.454-1.665,9.516-2.142c0,0,2.538-13.798,3.252-16.891
		c0.555-2.458,1.11-3.489,1.823-4.044c1.507-1.269,3.252-0.872,2.617,2.3c-1.269,6.344-3.489,18.081-3.489,18.081
		s6.741-0.793,8.803-0.872c0,0,2.775-15.226,3.728-20.143c1.03-4.838-0.317-8.247-3.886-7.93c-3.569,0.317-7.296,3.727-8.485,6.502
		l4.044-16.97L129.341,41.805L129.341,41.805z"/>
	<path fill-rule="evenodd" clip-rule="evenodd" fill="#FCC200" d="M148.849,44.66c2.696-1.19,3.965,2.379,3.965,4.203
		c0.08,1.903-1.109,5.312-4.6,6.661c0,0,0.952-2.379,0-4.124C147.263,49.656,145.994,46.087,148.849,44.66L148.849,44.66z"/>
	<path fill-rule="evenodd" clip-rule="evenodd" fill="#FCC200" d="M167.485,57.585c-0.477-1.348-1.27-2.617-2.538-3.251
		c-2.379-1.11-4.6,0-5.075,1.269c-0.872,2.854,10.547,6.502,6.661,16.97c-2.221,5.789-8.644,6.899-12.529,6.661
		c-2.696-0.158-6.582-1.824-7.852-4.758l1.428-7.851c1.665,3.965,3.252,5.075,4.996,5.948c1.428,0.793,5.154,1.586,6.186-0.793
		c1.824-3.886-10.071-5.789-7.375-15.226c1.427-4.917,6.82-7.771,12.371-6.899c2.062,0.396,3.41,1.269,4.521,2.538L167.485,57.585
		L167.485,57.585z"/>
	<path fill-rule="evenodd" clip-rule="evenodd" fill="#FCC200" d="M91.276,66.705c0,0,5.075-2.854,9.119-4.44l-1.11,4.044
		c0,0,3.014-6.82,9.438-7.216l-4.521,9.675c0,0-5.868,0.317-7.137,7.137c-1.189,5.63-2.935,14.591-2.935,14.591l-8.802,4.282
		C85.329,94.778,88.024,79.235,91.276,66.705L91.276,66.705z"/>
	<path fill-rule="evenodd" clip-rule="evenodd" fill="#FCC200" d="M38.541,74.715l-3.172,14.036c0,0-0.873-4.203-4.124-3.807
		c-6.582,0.872-14.83,10.547-14.513,25.932c0.238,14.274,10.944,20.301,26.17,11.815c15.146-8.485,39.809-24.9,62.489-32.196
		c22.839-7.137,40.444-8.326,59.952-6.979c0,0-10.706,6.74-22.918,27.597c0,0-9.517-2.537-19.667-2.775
		c-9.992-0.317-25.377,0.635-45.678,8.406c-20.38,7.771-23.235,10.468-37.589,16.971c-14.354,6.582-17.922,5.789-23.156,4.837
		c-5.154-0.951-13.64-7.296-12.292-25.932c1.348-18.557,14.83-30.135,26.566-34.892C33.069,76.935,36.558,75.508,38.541,74.715
		L38.541,74.715z"/>
	<path fill-rule="evenodd" clip-rule="evenodd" fill="#134294" d="M72.561,115.079c-0.634,0.715-1.348,1.27-2.141,1.587
		c-2.3,1.11-3.014-0.556-2.935-2.3c0.159-2.142,1.507-4.361,3.489-5.313c0.793-0.317,1.428-0.476,1.982-0.396l-0.158,2.221
		c-0.555-0.238-1.031-0.238-1.586,0c-0.952,0.476-1.666,1.428-1.745,2.537c-0.079,1.11,0.476,1.507,1.506,1.11
		c0.635-0.237,1.11-0.635,1.745-1.348L72.561,115.079L72.561,115.079z"/>
	<polygon fill-rule="evenodd" clip-rule="evenodd" fill="#134294" points="78.588,105.642 80.649,104.77 80.333,107.466 
		82.711,106.515 82.949,103.74 85.17,102.708 84.456,110.559 82.236,111.431 82.553,108.577 80.253,109.449 79.936,112.383 
		77.953,113.176 78.588,105.642 	"/>
	<polygon fill-rule="evenodd" clip-rule="evenodd" fill="#134294" points="90.721,100.25 93.18,99.377 92.466,107.942 
		90.087,108.815 90.721,100.25 	"/>
	<path fill-rule="evenodd" clip-rule="evenodd" fill="#134294" d="M103.727,104.453c-0.635,0.714-1.428,1.189-2.3,1.428
		c-2.458,0.555-3.093-1.983-2.775-4.203c0.317-2.854,1.824-5.313,4.044-5.868c0.793-0.159,1.349-0.079,1.903,0.158l-0.237,2.855
		c-0.556-0.477-1.031-0.635-1.666-0.477c-1.03,0.317-1.824,1.349-1.982,2.776c-0.158,1.507,0.396,2.22,1.507,2.062
		c0.556-0.158,1.11-0.476,1.824-1.349L103.727,104.453L103.727,104.453z"/>
	<polygon fill-rule="evenodd" clip-rule="evenodd" fill="#134294" points="110.863,93.985 113.084,93.509 112.291,98.426 
		115.701,92.875 118.318,92.241 114.67,98.109 116.731,103.819 113.798,104.135 112.212,99.219 112.212,99.298 111.418,104.453 
		109.198,104.77 110.863,93.985 	"/>
	<polygon fill-rule="evenodd" clip-rule="evenodd" fill="#134294" points="124.107,91.368 129.42,90.576 128.944,93.43 
		126.09,93.748 125.613,95.888 128.31,95.73 127.834,98.426 125.217,98.584 124.82,100.963 127.676,100.884 127.199,103.581 
		122.045,103.74 124.107,91.368 	"/>
	<polygon fill-rule="evenodd" clip-rule="evenodd" fill="#134294" points="135.685,90.257 137.588,90.257 139.412,97.871 
		140.84,90.337 143.377,90.337 140.126,104.928 138.223,104.612 136.478,97.237 135.13,104.215 133.067,103.897 135.685,90.257 	"/>
	<path fill-rule="evenodd" clip-rule="evenodd" fill="#FCC200" d="M72.878,131.812c-0.476-0.635-0.793-1.031-1.269-1.189
		c-0.396-0.159-0.635-0.159-0.793,0.079c-0.396,0.793,1.982,1.666,1.11,3.489c-0.476,1.11-1.507,1.269-2.538,0.793
		c-0.714-0.317-1.031-0.872-1.349-1.349l0.556-1.109c0.396,0.872,0.634,1.189,1.269,1.507c0.396,0.158,0.634,0.079,0.793-0.238
		c0.396-0.793-1.983-1.666-1.11-3.568c0.476-0.872,1.427-1.11,2.538-0.635c0.476,0.238,0.872,0.556,1.269,1.11L72.878,131.812
		L72.878,131.812z"/>
	<polygon fill-rule="evenodd" clip-rule="evenodd" fill="#FCC200" points="75.575,137.363 74.385,136.966 76.208,131.416 
		77.398,131.812 75.575,137.363 	"/>
	<polygon fill-rule="evenodd" clip-rule="evenodd" fill="#FCC200" points="84.298,139.108 83.187,138.95 80.967,134.826 
		80.412,138.552 79.143,138.315 80.095,132.605 81.205,132.764 83.346,136.649 83.822,133.16 85.091,133.319 84.298,139.108 	"/>
	<path fill-rule="evenodd" clip-rule="evenodd" fill="#FCC200" d="M92.703,138.473c-0.714,0.477-1.189,0.714-1.982,0.714
		c-1.903,0.159-2.854-1.349-2.934-2.776c-0.079-1.585,0.793-3.092,2.776-3.251c0.714,0,1.269,0.159,1.824,0.397v1.348
		c-0.556-0.317-1.11-0.555-1.745-0.476c-1.03,0.079-1.744,0.872-1.744,1.823c0.079,1.031,0.872,1.824,1.902,1.745
		c0.714-0.079,1.11-0.396,1.824-0.793L92.703,138.473L92.703,138.473z"/>
	<polygon fill-rule="evenodd" clip-rule="evenodd" fill="#FCC200" points="99.999,137.521 96.431,138.394 95.003,132.764 
		98.571,131.812 98.81,132.922 96.51,133.477 96.748,134.667 98.969,134.112 99.285,135.222 97.065,135.698 97.303,137.045 
		99.762,136.491 99.999,137.521 	"/>
	<polygon fill-rule="evenodd" clip-rule="evenodd" fill="#FCC200" points="109.198,133.557 108.167,134.112 105.312,129.037 
		106.344,128.482 109.198,133.557 	"/>
	<path fill-rule="evenodd" clip-rule="evenodd" fill="#FCC200" d="M112.212,126.737c0.317,0.396,0.396,0.872,0.079,1.031
		c-0.158,0.158-0.317,0.158-0.476,0.078v1.111c0.396,0.079,0.872-0.08,1.11-0.476l0.396,2.458l1.03-0.714l-0.317-1.903
		c-0.158-0.951-0.476-1.666-0.872-2.221c-0.396-0.476-0.872-0.793-1.348-0.872v1.11
		C111.895,126.419,112.053,126.578,112.212,126.737L112.212,126.737z M111.815,127.846c-0.159-0.078-0.317-0.237-0.476-0.396
		c-0.317-0.397-0.317-0.873-0.08-1.031c0.158-0.159,0.317-0.159,0.556-0.079v-1.11c-0.476-0.079-0.872,0-1.269,0.237
		c-0.714,0.635-0.714,1.745-0.08,2.696c0.396,0.477,0.873,0.714,1.349,0.794V127.846L111.815,127.846z"/>
	<path fill-rule="evenodd" clip-rule="evenodd" fill="#FCC200" d="M116.731,121.661l-1.189,1.111l0.793,0.793
		c0.714-0.952,1.824-0.714,2.538,0c0.872,0.713,0.872,1.744,0.079,2.537c-0.317,0.317-0.793,0.635-1.03,0.635l-0.793-0.714
		c0.396-0.079,0.793-0.238,0.951-0.476c0.396-0.317,0.396-0.793,0-1.189c-0.476-0.396-1.189-0.159-1.666,0.634l-2.458-2.3
		l1.824-1.902L116.731,121.661L116.731,121.661z"/>
	<path fill-rule="evenodd" clip-rule="evenodd" fill="#FCC200" d="M124.345,119.362l-1.982,2.696l-0.08-0.079
		c-0.316-0.873-0.713-1.824-1.03-2.38c-0.317-0.793-0.635-1.189-0.951-1.427c-0.396-0.317-0.873-0.317-1.11,0.079
		c-0.159,0.238-0.238,0.793-0.079,1.348l-1.031-0.634c0-0.714,0.079-1.11,0.396-1.586c0.555-0.714,1.428-0.873,2.3-0.238
		c0.555,0.396,1.11,1.349,1.665,2.854l0.952-1.348L124.345,119.362L124.345,119.362z"/>
	<polygon fill-rule="evenodd" clip-rule="evenodd" fill="#134294" points="156.858,110.48 156.858,111.431 155.193,111.431 
		155.193,115.952 154.083,115.952 154.083,111.431 152.418,111.431 152.418,110.48 156.858,110.48 	"/>
	<path fill-rule="evenodd" clip-rule="evenodd" fill="#134294" d="M161.141,110.48h1.586v5.472h-1.03v-3.728
		c0-0.158,0-0.237,0-0.476c0-0.158,0-0.317,0-0.396l-1.031,4.6h-1.11l-0.952-4.6c0,0.079,0,0.238,0,0.396c0,0.238,0,0.317,0,0.476
		v3.728h-1.109v-5.472h1.665l1.031,4.282L161.141,110.48L161.141,110.48z"/>
</g>
</svg>
