<?xml version="1.0" encoding="utf-8"?>
<!-- Generator: Adobe Illustrator 16.0.0, SVG Export Plug-In . SVG Version: 6.00 Build 0)  -->
<!DOCTYPE svg PUBLIC "-//W3C//DTD SVG 1.1//EN" "http://www.w3.org/Graphics/SVG/1.1/DTD/svg11.dtd">
<svg version="1.1" id="Layer_1" xmlns="http://www.w3.org/2000/svg" xmlns:xlink="http://www.w3.org/1999/xlink" x="0px" y="0px"
	 width="171.868px" height="171.868px" viewBox="0 0 171.868 171.868" enable-background="new 0 0 171.868 171.868"
	 xml:space="preserve">
<g>
	<g>
		<path fill="#4C4C4C" d="M5.606,416.727l1.198,6.043c0.255,1.326,0.51,2.651,0.663,3.927h0.102
			c0.179-1.275,0.484-2.703,0.766-3.876l1.428-6.094h1.504l1.352,5.915c0.306,1.377,0.587,2.678,0.79,4.055h0.103
			c0.152-1.301,0.382-2.575,0.663-3.978l1.173-5.992h1.963l-3.11,12.341h-1.606l-1.428-5.992c-0.307-1.198-0.484-2.295-0.688-3.697
			h-0.051c-0.204,1.454-0.434,2.602-0.714,3.774l-1.479,5.915H6.575l-3.009-12.341H5.606z"/>
		<path fill="#4C4C4C" d="M21.824,416.727l1.198,6.043c0.255,1.326,0.51,2.651,0.663,3.927h0.102
			c0.179-1.275,0.484-2.703,0.766-3.876l1.428-6.094h1.504l1.352,5.915c0.306,1.377,0.587,2.678,0.79,4.055h0.103
			c0.152-1.301,0.382-2.575,0.663-3.978l1.173-5.992h1.963l-3.11,12.341h-1.606l-1.428-5.992c-0.307-1.198-0.484-2.295-0.688-3.697
			h-0.051c-0.204,1.454-0.434,2.602-0.714,3.774l-1.479,5.915h-1.657l-3.009-12.341H21.824z"/>
		<path fill="#4C4C4C" d="M38.041,416.727l1.199,6.043c0.255,1.326,0.51,2.651,0.662,3.927h0.103
			c0.179-1.275,0.484-2.703,0.765-3.876l1.428-6.094h1.505l1.352,5.915c0.306,1.377,0.586,2.678,0.79,4.055h0.102
			c0.153-1.301,0.383-2.575,0.663-3.978l1.173-5.992h1.964l-3.111,12.341h-1.606l-1.428-5.992c-0.306-1.198-0.484-2.295-0.688-3.697
			H42.86c-0.204,1.454-0.434,2.602-0.714,3.774l-1.479,5.915h-1.657l-3.009-12.341H38.041z"/>
		<path fill="#4C4C4C" d="M51.531,427.793c0-0.867,0.586-1.479,1.3-1.479c0.765,0,1.301,0.587,1.301,1.479
			c0,0.892-0.484,1.479-1.326,1.479C52.092,429.272,51.531,428.685,51.531,427.793z"/>
		<path fill="#4C4C4C" d="M57.88,411.423h1.964v17.645H57.88V411.423z"/>
		<path fill="#4C4C4C" d="M71.599,422.898c0,4.768-2.193,6.374-4.105,6.374c-2.218,0-4.003-2.015-4.003-6.349
			c0-4.488,2.015-6.375,4.131-6.375C69.839,416.548,71.599,418.614,71.599,422.898z M65.453,422.898
			c0,2.039,0.357,4.818,2.142,4.818c1.684,0,2.04-2.881,2.04-4.818c0-1.888-0.356-4.794-2.091-4.794
			C65.785,418.104,65.453,421.01,65.453,422.898z"/>
		<path fill="#4C4C4C" d="M82.513,427.487c0,3.238-0.408,4.462-1.225,5.38c-0.739,0.816-1.887,1.301-3.289,1.301
			c-1.045,0-2.065-0.255-2.702-0.612l0.459-1.529c0.484,0.255,1.3,0.535,2.294,0.535c1.556,0,2.524-0.969,2.524-3.773v-1.25h-0.051
			c-0.408,0.97-1.326,1.505-2.371,1.505c-2.193,0-3.621-2.474-3.621-6.094c0-4.539,2.065-6.4,3.901-6.4
			c1.301,0,1.912,0.867,2.295,1.556h0.051l0.103-1.377h1.733c-0.025,0.842-0.102,1.938-0.102,3.851V427.487z M80.574,420.985
			c0-0.306-0.025-0.637-0.102-0.892c-0.204-0.842-0.663-1.861-1.785-1.861c-1.428,0-2.192,1.912-2.192,4.64
			c0,3.137,0.994,4.564,2.192,4.564c0.612,0,1.377-0.28,1.76-1.76c0.102-0.382,0.127-0.765,0.127-1.121V420.985z"/>
		<path fill="#4C4C4C" d="M94.088,422.898c0,4.768-2.193,6.374-4.105,6.374c-2.217,0-4.002-2.015-4.002-6.349
			c0-4.488,2.014-6.375,4.131-6.375C92.329,416.548,94.088,418.614,94.088,422.898z M87.944,422.898
			c0,2.039,0.357,4.818,2.141,4.818c1.684,0,2.041-2.881,2.041-4.818c0-1.888-0.357-4.794-2.092-4.794
			C88.276,418.104,87.944,421.01,87.944,422.898z"/>
		<path fill="#4C4C4C" d="M98.934,423.076c0,3.8,1.504,4.59,2.906,4.59c0.867,0,1.557-0.204,2.041-0.459l0.33,1.428
			c-0.688,0.357-1.732,0.587-2.727,0.587c-2.959,0-4.488-2.423-4.488-6.196c0-3.978,1.709-6.477,4.182-6.477
			c2.498,0,3.518,2.652,3.518,5.405c0,0.485-0.025,0.816-0.051,1.122H98.934z M102.809,421.623c0.025-2.447-0.893-3.544-1.836-3.544
			c-1.299,0-1.938,1.861-2.014,3.544H102.809z"/>
		<path fill="#4C4C4C" d="M108.063,420.578c0-1.888-0.076-2.983-0.102-3.851h1.734l0.102,1.581h0.051
			c0.688-1.301,1.656-1.76,2.625-1.76c2.168,0,3.57,2.27,3.57,6.323c0,4.59-1.887,6.4-3.824,6.4c-1.174,0-1.836-0.739-2.168-1.428
			H110v6.119h-1.938V420.578z M110,424.555c0,0.356,0.025,0.714,0.102,1.02c0.383,1.76,1.275,2.065,1.811,2.065
			c1.633,0,2.168-2.244,2.168-4.717c0-2.55-0.611-4.691-2.193-4.691c-0.893,0-1.707,1.096-1.811,2.218
			c-0.051,0.28-0.076,0.612-0.076,0.943V424.555z"/>
		<path fill="#4C4C4C" d="M119.206,427.028c0.434,0.28,1.199,0.638,1.99,0.638c1.096,0,1.811-0.688,1.811-1.785
			c0-0.943-0.332-1.58-1.582-2.422c-1.605-1.02-2.473-2.091-2.473-3.493c0-2.015,1.479-3.417,3.391-3.417
			c0.969,0,1.684,0.332,2.193,0.638l-0.51,1.479c-0.484-0.331-0.994-0.561-1.658-0.561c-1.045,0-1.58,0.765-1.58,1.581
			c0,0.815,0.305,1.274,1.529,2.116c1.428,0.918,2.551,2.04,2.551,3.748c0,2.474-1.684,3.672-3.723,3.672
			c-0.893,0-1.889-0.281-2.424-0.714L119.206,427.028z"/>
		<path fill="#4C4C4C" d="M127.723,427.793c0-0.867,0.586-1.479,1.301-1.479c0.764,0,1.301,0.587,1.301,1.479
			c0,0.892-0.484,1.479-1.326,1.479C128.284,429.272,127.723,428.685,127.723,427.793z"/>
		<path fill="#4C4C4C" d="M140.09,428.762c-0.434,0.255-1.174,0.459-2.041,0.459c-2.701,0-4.512-2.168-4.512-6.247
			c0-3.544,1.785-6.426,4.869-6.426c0.664,0,1.377,0.179,1.734,0.383l-0.383,1.606c-0.256-0.128-0.766-0.332-1.402-0.332
			c-1.988,0-2.855,2.346-2.855,4.769c0,2.881,1.096,4.615,2.906,4.615c0.51,0,0.969-0.103,1.402-0.332L140.09,428.762z"/>
		<path fill="#4C4C4C" d="M150.467,422.898c0,4.768-2.191,6.374-4.104,6.374c-2.219,0-4.004-2.015-4.004-6.349
			c0-4.488,2.014-6.375,4.131-6.375C148.709,416.548,150.467,418.614,150.467,422.898z M144.323,422.898
			c0,2.039,0.357,4.818,2.143,4.818c1.682,0,2.039-2.881,2.039-4.818c0-1.888-0.357-4.794-2.09-4.794
			C144.655,418.104,144.323,421.01,144.323,422.898z"/>
		<path fill="#4C4C4C" d="M153.936,419.915c0-1.454-0.076-2.193-0.102-3.188h1.709l0.102,1.53h0.051
			c0.535-0.995,1.479-1.709,2.779-1.709c1.148,0,2.117,0.536,2.576,1.887h0.051c0.33-0.611,0.764-1.121,1.223-1.402
			c0.484-0.331,1.072-0.484,1.709-0.484c1.658,0,2.957,1.198,2.957,4.36v8.159h-1.938v-7.726c0-1.606-0.229-3.162-1.734-3.162
			c-0.814,0-1.529,0.688-1.809,1.861c-0.053,0.307-0.078,0.688-0.078,1.097v7.93h-1.938v-8.083c0-1.351-0.229-2.805-1.707-2.805
			c-0.816,0-1.607,0.688-1.836,2.015c-0.051,0.306-0.078,0.663-0.078,1.045v7.828h-1.938V419.915z"/>
	</g>
	<g>
		<path fill="#898989" d="M-183.387,405.336v-1.101l1.188-1.628c1.716-2.376,3.719-5.061,3.719-7.745
			c0-1.584-0.683-2.552-2.024-2.552c-1.034,0-1.717,0.55-2.068,0.792l-0.418-1.276c0.484-0.418,1.496-0.969,2.794-0.969
			c2.377,0,3.389,1.761,3.389,3.917c0,2.685-1.738,5.28-3.521,7.701l-0.946,1.32v0.044h4.753v1.496H-183.387z"/>
		<path fill="#898989" d="M-166.666,398.164c0,5.215-1.649,7.349-3.718,7.349c-2.223,0-3.564-2.641-3.564-7.305
			c0-4.818,1.43-7.35,3.762-7.35C-167.876,390.858-166.666,393.609-166.666,398.164z M-172.254,398.185
			c-0.022,3.455,0.571,5.875,1.979,5.875c1.364,0,1.915-2.442,1.915-5.875c0-3.344-0.551-5.874-1.915-5.874
			C-171.66,392.311-172.254,394.731-172.254,398.185z"/>
		<path fill="#898989" d="M-157.096,398.164c0,5.215-1.65,7.349-3.719,7.349c-2.222,0-3.564-2.641-3.564-7.305
			c0-4.818,1.431-7.35,3.763-7.35C-158.306,390.858-157.096,393.609-157.096,398.164z M-162.685,398.185
			c-0.022,3.455,0.572,5.875,1.98,5.875c1.364,0,1.914-2.442,1.914-5.875c0-3.344-0.55-5.874-1.914-5.874
			C-162.091,392.311-162.685,394.731-162.685,398.185z"/>
		<path fill="#898989" d="M-155.029,408.109c0.462-1.276,1.057-3.608,1.276-5.127l1.914-0.22c-0.506,1.782-1.43,4.225-2.024,5.192
			L-155.029,408.109z"/>
		<path fill="#898989" d="M-142.158,398.164c0,5.215-1.65,7.349-3.719,7.349c-2.222,0-3.564-2.641-3.564-7.305
			c0-4.818,1.431-7.35,3.763-7.35C-143.368,390.858-142.158,393.609-142.158,398.164z M-147.747,398.185
			c-0.022,3.455,0.572,5.875,1.98,5.875c1.364,0,1.914-2.442,1.914-5.875c0-3.344-0.55-5.874-1.914-5.874
			C-147.153,392.311-147.747,394.731-147.747,398.185z"/>
		<path fill="#898989" d="M-132.589,398.164c0,5.215-1.649,7.349-3.718,7.349c-2.223,0-3.564-2.641-3.564-7.305
			c0-4.818,1.43-7.35,3.762-7.35C-133.799,390.858-132.589,393.609-132.589,398.164z M-138.177,398.185
			c-0.022,3.455,0.571,5.875,1.979,5.875c1.364,0,1.915-2.442,1.915-5.875c0-3.344-0.551-5.874-1.915-5.874
			C-137.583,392.311-138.177,394.731-138.177,398.185z"/>
		<path fill="#898989" d="M-123.019,398.164c0,5.215-1.649,7.349-3.718,7.349c-2.223,0-3.564-2.641-3.564-7.305
			c0-4.818,1.43-7.35,3.762-7.35C-124.229,390.858-123.019,393.609-123.019,398.164z M-128.606,398.185
			c-0.022,3.455,0.571,5.875,1.979,5.875c1.364,0,1.915-2.442,1.915-5.875c0-3.344-0.551-5.874-1.915-5.874
			C-128.013,392.311-128.606,394.731-128.606,398.185z"/>
		<path fill="#898989" d="M-114.131,393.609v5.236h5.062v1.21h-5.062v5.281h-1.254v-5.281h-5.038v-1.21h5.038v-5.236H-114.131z"/>
		<path fill="#898989" d="M-101.394,390.11h1.672v5.854h0.044c0.551-1.057,1.343-1.431,2.267-1.431c1.672,0,2.904,1.893,2.904,5.391
			c0,3.829-1.584,5.589-3.234,5.589c-1.122,0-1.694-0.66-2.112-1.562h-0.088l-0.11,1.386h-1.43c0.021-0.616,0.088-1.826,0.088-2.553
			V390.11z M-99.722,401.596c0,0.242,0.022,0.462,0.066,0.66c0.396,1.562,1.122,1.848,1.606,1.848c1.364,0,1.848-1.848,1.848-4.114
			c0-2.135-0.506-4.005-1.892-4.005c-0.793,0-1.431,0.969-1.585,1.893c-0.021,0.242-0.044,0.484-0.044,0.726V401.596z"/>
		<path fill="#898989" d="M-91.516,397.437c0-0.901-0.066-1.958-0.088-2.75h1.518l0.089,1.694h0.044
			c0.352-1.013,1.254-1.849,2.244-1.849c0.132,0,0.242,0,0.352,0.022v1.716c-0.109,0-0.22,0-0.352,0c-1.078,0-1.87,0.99-2.047,2.2
			c-0.044,0.286-0.065,0.616-0.065,0.969v5.896h-1.694V397.437z"/>
		<path fill="#898989" d="M-79.46,402.917c0,0.813,0.022,1.738,0.11,2.42h-1.519l-0.109-1.122h-0.066
			c-0.462,0.814-1.21,1.298-2.134,1.298c-1.408,0-2.509-1.188-2.509-3.036c0-2.685,2.135-3.851,4.533-3.873v-0.33
			c0-1.43-0.375-2.397-1.694-2.397c-0.66,0-1.255,0.197-1.761,0.55l-0.374-1.188c0.462-0.33,1.431-0.704,2.486-0.704
			c2.135,0,3.036,1.387,3.036,3.763V402.917z M-81.109,399.814c-0.881,0-2.927,0.176-2.927,2.486c0,1.408,0.704,1.892,1.298,1.892
			c0.748,0,1.364-0.55,1.562-1.605c0.044-0.198,0.066-0.418,0.066-0.616V399.814z"/>
		<path fill="#898989" d="M-75.962,397.437c0-1.254-0.066-1.892-0.088-2.75h1.474l0.089,1.298h0.044
			c0.462-0.857,1.319-1.452,2.442-1.452c1.474,0,2.574,1.078,2.574,3.652v7.151h-1.694v-6.843c0-1.276-0.242-2.53-1.475-2.53
			c-0.704,0-1.386,0.594-1.584,1.716c-0.066,0.265-0.088,0.594-0.088,0.968v6.689h-1.694V397.437z"/>
		<path fill="#898989" d="M-59.549,390.11v12.674c0,0.727,0.065,1.937,0.088,2.553h-1.452l-0.11-1.32h-0.066
			c-0.352,0.748-1.1,1.496-2.244,1.496c-1.782,0-3.08-1.936-3.08-5.457c0-3.762,1.562-5.522,3.19-5.522
			c0.792,0,1.54,0.353,1.958,1.254h0.044v-5.677H-59.549z M-61.222,398.757c0-0.22,0-0.484-0.021-0.704
			c-0.11-1.122-0.771-2.068-1.585-2.068c-1.408,0-1.892,1.959-1.892,4.07c0,2.245,0.572,4.049,1.804,4.049
			c0.528,0,1.255-0.286,1.629-1.826c0.044-0.198,0.065-0.439,0.065-0.704V398.757z"/>
		<path fill="#898989" d="M-51.521,390.11h1.694v15.227h-1.694V390.11z"/>
		<path fill="#898989" d="M-39.684,400.011c0,4.115-1.893,5.501-3.543,5.501c-1.914,0-3.454-1.738-3.454-5.479
			c0-3.873,1.738-5.501,3.564-5.501C-41.202,394.533-39.684,396.315-39.684,400.011z M-44.986,400.011
			c0,1.761,0.308,4.159,1.848,4.159c1.452,0,1.761-2.486,1.761-4.159c0-1.628-0.309-4.136-1.805-4.136
			C-44.7,395.875-44.986,398.383-44.986,400.011z"/>
		<path fill="#898989" d="M-30.268,403.972c0,2.795-0.353,3.851-1.057,4.643c-0.638,0.704-1.628,1.122-2.838,1.122
			c-0.902,0-1.782-0.22-2.333-0.527l0.396-1.32c0.418,0.22,1.122,0.462,1.98,0.462c1.342,0,2.178-0.836,2.178-3.257v-1.078h-0.044
			c-0.352,0.836-1.144,1.298-2.046,1.298c-1.893,0-3.125-2.134-3.125-5.259c0-3.916,1.782-5.522,3.367-5.522
			c1.122,0,1.649,0.748,1.979,1.343h0.044l0.089-1.188h1.496c-0.022,0.726-0.088,1.672-0.088,3.322V403.972z M-31.94,398.362
			c0-0.265-0.021-0.551-0.088-0.771c-0.176-0.727-0.572-1.606-1.54-1.606c-1.232,0-1.893,1.65-1.893,4.005
			c0,2.706,0.858,3.938,1.893,3.938c0.528,0,1.188-0.242,1.519-1.519c0.088-0.33,0.109-0.66,0.109-0.968V398.362z"/>
		<path fill="#898989" d="M-20.28,400.011c0,4.115-1.892,5.501-3.542,5.501c-1.915,0-3.455-1.738-3.455-5.479
			c0-3.873,1.738-5.501,3.564-5.501C-21.798,394.533-20.28,396.315-20.28,400.011z M-25.583,400.011
			c0,1.761,0.309,4.159,1.849,4.159c1.452,0,1.76-2.486,1.76-4.159c0-1.628-0.308-4.136-1.804-4.136
			C-25.297,395.875-25.583,398.383-25.583,400.011z"/>
		<path fill="#898989" d="M-17.575,403.577c0.374,0.241,1.034,0.55,1.716,0.55c0.946,0,1.562-0.595,1.562-1.54
			c0-0.814-0.286-1.364-1.364-2.091c-1.386-0.88-2.134-1.804-2.134-3.015c0-1.738,1.276-2.948,2.926-2.948
			c0.837,0,1.452,0.286,1.893,0.55l-0.44,1.276c-0.418-0.286-0.857-0.483-1.43-0.483c-0.902,0-1.364,0.66-1.364,1.363
			c0,0.705,0.264,1.101,1.32,1.827c1.232,0.792,2.2,1.76,2.2,3.234c0,2.134-1.452,3.168-3.213,3.168c-0.77,0-1.628-0.242-2.09-0.616
			L-17.575,403.577z"/>
		<path fill="#898989" d="M-3.451,391.936c0,0.66-0.396,1.101-1.034,1.101c-0.55,0-0.968-0.44-0.968-1.101
			c0-0.659,0.439-1.1,0.99-1.1C-3.848,390.836-3.451,391.277-3.451,391.936z M-5.277,405.336v-10.649h1.694v10.649H-5.277z"/>
		<path fill="#898989" d="M-0.13,397.437c0-1.254-0.066-1.892-0.088-2.75h1.474l0.089,1.298h0.044
			c0.462-0.857,1.319-1.452,2.442-1.452c1.474,0,2.574,1.078,2.574,3.652v7.151H4.711v-6.843c0-1.276-0.242-2.53-1.475-2.53
			c-0.704,0-1.386,0.594-1.584,1.716c-0.066,0.265-0.088,0.594-0.088,0.968v6.689H-0.13V397.437z"/>
		<path fill="#898989" d="M15.292,394.687l1.343,5.984c0.153,0.727,0.33,1.673,0.462,2.597h0.065c0.11-0.88,0.286-1.782,0.44-2.597
			l1.32-5.984h1.672l-2.794,10.649h-1.496l-2.772-10.649H15.292z"/>
		<path fill="#898989" d="M24.07,400.166c0,3.278,1.298,3.961,2.509,3.961c0.748,0,1.342-0.176,1.76-0.396l0.286,1.232
			c-0.594,0.308-1.496,0.506-2.354,0.506c-2.552,0-3.872-2.09-3.872-5.347c0-3.433,1.474-5.589,3.608-5.589
			c2.156,0,3.036,2.288,3.036,4.665c0,0.418-0.021,0.704-0.044,0.968H24.07z M27.415,398.912c0.021-2.112-0.771-3.059-1.584-3.059
			c-1.122,0-1.673,1.606-1.738,3.059H27.415z"/>
		<path fill="#898989" d="M37.161,405.073c-0.374,0.22-1.013,0.396-1.761,0.396c-2.332,0-3.895-1.87-3.895-5.391
			c0-3.059,1.54-5.545,4.203-5.545c0.572,0,1.188,0.154,1.496,0.33l-0.33,1.387c-0.22-0.11-0.66-0.286-1.21-0.286
			c-1.717,0-2.465,2.024-2.465,4.114c0,2.486,0.946,3.982,2.509,3.982c0.439,0,0.836-0.088,1.21-0.286L37.161,405.073z"/>
		<path fill="#898989" d="M42.11,392.201v2.486h2.046v1.276H42.11v6.337c0,1.386,0.483,1.76,1.1,1.76
			c0.286,0,0.506-0.021,0.683-0.065l0.088,1.298c-0.309,0.11-0.704,0.176-1.254,0.176c-0.683,0-1.277-0.176-1.673-0.638
			c-0.44-0.484-0.639-1.21-0.639-2.685v-6.183h-1.298v-1.276h1.298v-1.805L42.11,392.201z"/>
		<path fill="#898989" d="M53.11,400.011c0,4.115-1.892,5.501-3.542,5.501c-1.914,0-3.454-1.738-3.454-5.479
			c0-3.873,1.737-5.501,3.564-5.501C51.593,394.533,53.11,396.315,53.11,400.011z M47.808,400.011c0,1.761,0.309,4.159,1.849,4.159
			c1.452,0,1.761-2.486,1.761-4.159c0-1.628-0.309-4.136-1.805-4.136C48.094,395.875,47.808,398.383,47.808,400.011z"/>
		<path fill="#898989" d="M56.079,397.437c0-0.901-0.065-1.958-0.088-2.75h1.519l0.088,1.694h0.044
			c0.352-1.013,1.254-1.849,2.244-1.849c0.132,0,0.242,0,0.353,0.022v1.716c-0.11,0-0.221,0-0.353,0c-1.078,0-1.87,0.99-2.046,2.2
			c-0.044,0.286-0.066,0.616-0.066,0.969v5.896h-1.694V397.437z"/>
		<path fill="#898989" d="M67.563,405.336v-9.373h-1.342v-1.276h1.342v-0.639c0-1.166,0.176-2.332,0.946-3.212
			c0.616-0.683,1.475-0.902,2.135-0.902c0.571,0,1.012,0.11,1.319,0.264l-0.264,1.32c-0.22-0.088-0.506-0.176-0.946-0.176
			c-1.21,0-1.496,1.298-1.496,2.662v0.683h1.937v1.276h-1.937v9.373H67.563z"/>
		<path fill="#898989" d="M79.796,400.011c0,4.115-1.892,5.501-3.542,5.501c-1.914,0-3.454-1.738-3.454-5.479
			c0-3.873,1.737-5.501,3.564-5.501C78.278,394.533,79.796,396.315,79.796,400.011z M74.493,400.011
			c0,1.761,0.309,4.159,1.849,4.159c1.452,0,1.761-2.486,1.761-4.159c0-1.628-0.309-4.136-1.805-4.136
			C74.779,395.875,74.493,398.383,74.493,400.011z"/>
		<path fill="#898989" d="M82.766,397.437c0-0.901-0.065-1.958-0.088-2.75h1.519l0.088,1.694h0.044
			c0.352-1.013,1.254-1.849,2.244-1.849c0.132,0,0.242,0,0.353,0.022v1.716c-0.11,0-0.221,0-0.353,0c-1.078,0-1.87,0.99-2.046,2.2
			c-0.044,0.286-0.066,0.616-0.066,0.969v5.896h-1.694V397.437z"/>
		<path fill="#898989" d="M89.344,397.437c0-1.254-0.066-1.892-0.088-2.75h1.473l0.088,1.32h0.045
			c0.463-0.858,1.275-1.475,2.398-1.475c0.99,0,1.826,0.462,2.223,1.628h0.043c0.287-0.527,0.66-0.968,1.057-1.21
			c0.418-0.286,0.924-0.418,1.475-0.418c1.43,0,2.553,1.034,2.553,3.763v7.041h-1.674v-6.667c0-1.386-0.197-2.729-1.496-2.729
			c-0.703,0-1.32,0.595-1.562,1.606c-0.043,0.264-0.064,0.594-0.064,0.946v6.843h-1.672v-6.975c0-1.167-0.199-2.421-1.475-2.421
			c-0.705,0-1.387,0.595-1.584,1.738c-0.045,0.265-0.066,0.572-0.066,0.902v6.755h-1.672V397.437z"/>
		<path fill="#898989" d="M109.694,402.917c0,0.813,0.021,1.738,0.109,2.42h-1.518l-0.109-1.122h-0.066
			c-0.463,0.814-1.211,1.298-2.135,1.298c-1.408,0-2.508-1.188-2.508-3.036c0-2.685,2.133-3.851,4.531-3.873v-0.33
			c0-1.43-0.373-2.397-1.693-2.397c-0.66,0-1.254,0.197-1.76,0.55l-0.375-1.188c0.463-0.33,1.43-0.704,2.486-0.704
			c2.135,0,3.037,1.387,3.037,3.763V402.917z M108.043,399.814c-0.881,0-2.926,0.176-2.926,2.486c0,1.408,0.703,1.892,1.297,1.892
			c0.748,0,1.365-0.55,1.562-1.605c0.045-0.198,0.066-0.418,0.066-0.616V399.814z"/>
		<path fill="#898989" d="M115.061,392.201v2.486h2.047v1.276h-2.047v6.337c0,1.386,0.484,1.76,1.1,1.76
			c0.287,0,0.506-0.021,0.684-0.065l0.088,1.298c-0.309,0.11-0.705,0.176-1.254,0.176c-0.684,0-1.277-0.176-1.674-0.638
			c-0.439-0.484-0.637-1.21-0.637-2.685v-6.183h-1.299v-1.276h1.299v-1.805L115.061,392.201z"/>
		<path fill="#898989" d="M129.868,402.917c0,0.813,0.021,1.738,0.109,2.42h-1.518l-0.109-1.122h-0.066
			c-0.463,0.814-1.211,1.298-2.135,1.298c-1.408,0-2.508-1.188-2.508-3.036c0-2.685,2.133-3.851,4.531-3.873v-0.33
			c0-1.43-0.373-2.397-1.693-2.397c-0.66,0-1.254,0.197-1.76,0.55l-0.375-1.188c0.463-0.33,1.43-0.704,2.486-0.704
			c2.135,0,3.037,1.387,3.037,3.763V402.917z M128.217,399.814c-0.881,0-2.926,0.176-2.926,2.486c0,1.408,0.703,1.892,1.297,1.892
			c0.748,0,1.365-0.55,1.562-1.605c0.045-0.198,0.066-0.418,0.066-0.616V399.814z"/>
		<path fill="#898989" d="M134.002,394.687l1.344,5.984c0.154,0.727,0.33,1.673,0.461,2.597h0.066
			c0.109-0.88,0.285-1.782,0.439-2.597l1.32-5.984h1.672l-2.793,10.649h-1.496l-2.773-10.649H134.002z"/>
		<path fill="#898989" d="M147.292,402.917c0,0.813,0.023,1.738,0.111,2.42h-1.52l-0.109-1.122h-0.066
			c-0.461,0.814-1.209,1.298-2.135,1.298c-1.408,0-2.508-1.188-2.508-3.036c0-2.685,2.135-3.851,4.533-3.873v-0.33
			c0-1.43-0.375-2.397-1.695-2.397c-0.66,0-1.254,0.197-1.76,0.55l-0.373-1.188c0.461-0.33,1.43-0.704,2.486-0.704
			c2.133,0,3.035,1.387,3.035,3.763V402.917z M145.641,399.814c-0.879,0-2.926,0.176-2.926,2.486c0,1.408,0.705,1.892,1.299,1.892
			c0.748,0,1.363-0.55,1.562-1.605c0.043-0.198,0.064-0.418,0.064-0.616V399.814z"/>
		<path fill="#898989" d="M152.616,391.936c0,0.66-0.396,1.101-1.035,1.101c-0.549,0-0.969-0.44-0.969-1.101
			c0-0.659,0.441-1.1,0.99-1.1C152.219,390.836,152.616,391.277,152.616,391.936z M150.79,405.336v-10.649h1.693v10.649H150.79z"/>
		<path fill="#898989" d="M155.936,390.11h1.695v15.227h-1.695V390.11z"/>
		<path fill="#898989" d="M166.85,402.917c0,0.813,0.021,1.738,0.109,2.42h-1.518l-0.109-1.122h-0.066
			c-0.463,0.814-1.211,1.298-2.135,1.298c-1.408,0-2.508-1.188-2.508-3.036c0-2.685,2.133-3.851,4.531-3.873v-0.33
			c0-1.43-0.373-2.397-1.693-2.397c-0.66,0-1.254,0.197-1.76,0.55l-0.375-1.188c0.463-0.33,1.43-0.704,2.486-0.704
			c2.135,0,3.037,1.387,3.037,3.763V402.917z M165.2,399.814c-0.881,0-2.926,0.176-2.926,2.486c0,1.408,0.703,1.892,1.297,1.892
			c0.748,0,1.365-0.55,1.562-1.605c0.045-0.198,0.066-0.418,0.066-0.616V399.814z"/>
		<path fill="#898989" d="M170.325,390.11h1.672v5.854h0.045c0.549-1.057,1.342-1.431,2.266-1.431c1.672,0,2.904,1.893,2.904,5.391
			c0,3.829-1.584,5.589-3.234,5.589c-1.123,0-1.695-0.66-2.113-1.562h-0.088l-0.109,1.386h-1.43
			c0.021-0.616,0.088-1.826,0.088-2.553V390.11z M171.997,401.596c0,0.242,0.021,0.462,0.066,0.66
			c0.396,1.562,1.121,1.848,1.605,1.848c1.365,0,1.85-1.848,1.85-4.114c0-2.135-0.508-4.005-1.893-4.005
			c-0.793,0-1.432,0.969-1.584,1.893c-0.023,0.242-0.045,0.484-0.045,0.726V401.596z"/>
		<path fill="#898989" d="M180.225,390.11h1.693v15.227h-1.693V390.11z"/>
		<path fill="#898989" d="M186.713,400.166c0,3.278,1.299,3.961,2.51,3.961c0.748,0,1.342-0.176,1.76-0.396l0.285,1.232
			c-0.594,0.308-1.496,0.506-2.354,0.506c-2.553,0-3.873-2.09-3.873-5.347c0-3.433,1.475-5.589,3.609-5.589
			c2.156,0,3.035,2.288,3.035,4.665c0,0.418-0.021,0.704-0.043,0.968H186.713z M190.059,398.912c0.021-2.112-0.77-3.059-1.584-3.059
			c-1.123,0-1.672,1.606-1.738,3.059H190.059z"/>
		<path fill="#898989" d="M201.235,392.201v2.486h2.045v1.276h-2.045v6.337c0,1.386,0.482,1.76,1.1,1.76
			c0.285,0,0.506-0.021,0.682-0.065l0.088,1.298c-0.309,0.11-0.703,0.176-1.254,0.176c-0.682,0-1.275-0.176-1.672-0.638
			c-0.439-0.484-0.639-1.21-0.639-2.685v-6.183h-1.299v-1.276h1.299v-1.805L201.235,392.201z"/>
		<path fill="#898989" d="M212.235,400.011c0,4.115-1.893,5.501-3.543,5.501c-1.914,0-3.453-1.738-3.453-5.479
			c0-3.873,1.738-5.501,3.564-5.501C210.717,394.533,212.235,396.315,212.235,400.011z M206.932,400.011
			c0,1.761,0.309,4.159,1.848,4.159c1.453,0,1.762-2.486,1.762-4.159c0-1.628-0.309-4.136-1.805-4.136
			C207.217,395.875,206.932,398.383,206.932,400.011z"/>
		<path fill="#898989" d="M226.182,390.11v12.674c0,0.727,0.066,1.937,0.088,2.553h-1.451l-0.109-1.32h-0.066
			c-0.352,0.748-1.1,1.496-2.244,1.496c-1.783,0-3.08-1.936-3.08-5.457c0-3.762,1.561-5.522,3.189-5.522
			c0.793,0,1.541,0.353,1.959,1.254h0.043v-5.677H226.182z M224.51,398.757c0-0.22,0-0.484-0.021-0.704
			c-0.109-1.122-0.77-2.068-1.584-2.068c-1.408,0-1.893,1.959-1.893,4.07c0,2.245,0.572,4.049,1.805,4.049
			c0.527,0,1.254-0.286,1.627-1.826c0.045-0.198,0.066-0.439,0.066-0.704V398.757z"/>
		<path fill="#898989" d="M236.192,400.011c0,4.115-1.893,5.501-3.543,5.501c-1.914,0-3.453-1.738-3.453-5.479
			c0-3.873,1.738-5.501,3.564-5.501C234.674,394.533,236.192,396.315,236.192,400.011z M230.889,400.011
			c0,1.761,0.309,4.159,1.848,4.159c1.453,0,1.762-2.486,1.762-4.159c0-1.628-0.309-4.136-1.805-4.136
			C231.174,395.875,230.889,398.383,230.889,400.011z"/>
		<path fill="#898989" d="M239.887,394.687l1.033,5.215c0.221,1.144,0.441,2.288,0.572,3.389h0.088
			c0.154-1.101,0.418-2.333,0.66-3.345l1.232-5.259h1.299l1.166,5.104c0.264,1.188,0.506,2.311,0.682,3.499h0.088
			c0.133-1.122,0.33-2.223,0.572-3.433l1.012-5.171h1.695l-2.686,10.649h-1.385l-1.232-5.171c-0.264-1.034-0.418-1.98-0.594-3.19
			h-0.045c-0.176,1.254-0.373,2.244-0.615,3.257l-1.277,5.104h-1.43l-2.596-10.649H239.887z"/>
		<path fill="#898989" d="M252.583,397.437c0-1.254-0.066-1.892-0.088-2.75h1.473l0.088,1.298h0.045
			c0.463-0.857,1.32-1.452,2.441-1.452c1.475,0,2.574,1.078,2.574,3.652v7.151h-1.693v-6.843c0-1.276-0.242-2.53-1.475-2.53
			c-0.703,0-1.385,0.594-1.584,1.716c-0.066,0.265-0.088,0.594-0.088,0.968v6.689h-1.693V397.437z"/>
		<path fill="#898989" d="M262.592,390.11h1.693v15.227h-1.693V390.11z"/>
		<path fill="#898989" d="M274.428,400.011c0,4.115-1.893,5.501-3.543,5.501c-1.914,0-3.453-1.738-3.453-5.479
			c0-3.873,1.738-5.501,3.564-5.501C272.911,394.533,274.428,396.315,274.428,400.011z M269.125,400.011
			c0,1.761,0.309,4.159,1.848,4.159c1.453,0,1.762-2.486,1.762-4.159c0-1.628-0.309-4.136-1.805-4.136
			C269.411,395.875,269.125,398.383,269.125,400.011z"/>
		<path fill="#898989" d="M283.03,402.917c0,0.813,0.021,1.738,0.109,2.42h-1.518l-0.109-1.122h-0.066
			c-0.463,0.814-1.211,1.298-2.135,1.298c-1.408,0-2.508-1.188-2.508-3.036c0-2.685,2.133-3.851,4.531-3.873v-0.33
			c0-1.43-0.373-2.397-1.693-2.397c-0.66,0-1.254,0.197-1.76,0.55l-0.375-1.188c0.463-0.33,1.43-0.704,2.486-0.704
			c2.135,0,3.037,1.387,3.037,3.763V402.917z M281.379,399.814c-0.881,0-2.926,0.176-2.926,2.486c0,1.408,0.703,1.892,1.297,1.892
			c0.748,0,1.365-0.55,1.562-1.605c0.045-0.198,0.066-0.418,0.066-0.616V399.814z"/>
		<path fill="#898989" d="M292.93,390.11v12.674c0,0.727,0.066,1.937,0.088,2.553h-1.453l-0.109-1.32h-0.066
			c-0.352,0.748-1.1,1.496-2.244,1.496c-1.781,0-3.08-1.936-3.08-5.457c0-3.762,1.562-5.522,3.191-5.522
			c0.791,0,1.539,0.353,1.957,1.254h0.045v-5.677H292.93z M291.258,398.757c0-0.22,0-0.484-0.023-0.704
			c-0.109-1.122-0.77-2.068-1.584-2.068c-1.408,0-1.893,1.959-1.893,4.07c0,2.245,0.572,4.049,1.805,4.049
			c0.529,0,1.254-0.286,1.629-1.826c0.043-0.198,0.066-0.439,0.066-0.704V398.757z"/>
		<path fill="#898989" d="M301.311,405.336v-9.373h-1.342v-1.276h1.342v-0.639c0-1.166,0.176-2.332,0.945-3.212
			c0.617-0.683,1.475-0.902,2.135-0.902c0.572,0,1.012,0.11,1.32,0.264l-0.264,1.32c-0.221-0.088-0.506-0.176-0.947-0.176
			c-1.209,0-1.496,1.298-1.496,2.662v0.683h1.938v1.276h-1.938v9.373H301.311z"/>
		<path fill="#898989" d="M313.543,400.011c0,4.115-1.893,5.501-3.543,5.501c-1.914,0-3.453-1.738-3.453-5.479
			c0-3.873,1.738-5.501,3.564-5.501C312.026,394.533,313.543,396.315,313.543,400.011z M308.241,400.011
			c0,1.761,0.309,4.159,1.848,4.159c1.453,0,1.762-2.486,1.762-4.159c0-1.628-0.309-4.136-1.805-4.136
			C308.526,395.875,308.241,398.383,308.241,400.011z"/>
		<path fill="#898989" d="M316.512,397.437c0-0.901-0.064-1.958-0.088-2.75h1.52l0.088,1.694h0.043
			c0.352-1.013,1.254-1.849,2.244-1.849c0.133,0,0.242,0,0.354,0.022v1.716c-0.111,0-0.221,0-0.354,0c-1.078,0-1.869,0.99-2.045,2.2
			c-0.045,0.286-0.066,0.616-0.066,0.969v5.896h-1.695V397.437z"/>
		<path fill="#898989" d="M327.997,405.336v-9.373h-1.342v-1.276h1.342v-0.639c0-1.166,0.176-2.332,0.945-3.212
			c0.617-0.683,1.475-0.902,2.135-0.902c0.572,0,1.012,0.11,1.32,0.264l-0.264,1.32c-0.221-0.088-0.506-0.176-0.947-0.176
			c-1.209,0-1.496,1.298-1.496,2.662v0.683h1.938v1.276h-1.938v9.373H327.997z"/>
		<path fill="#898989" d="M333.739,397.437c0-0.901-0.066-1.958-0.088-2.75h1.518l0.088,1.694h0.045
			c0.352-1.013,1.254-1.849,2.244-1.849c0.131,0,0.242,0,0.352,0.022v1.716c-0.109,0-0.221,0-0.352,0c-1.078,0-1.871,0.99-2.047,2.2
			c-0.043,0.286-0.066,0.616-0.066,0.969v5.896h-1.693V397.437z"/>
		<path fill="#898989" d="M341.196,400.166c0,3.278,1.299,3.961,2.51,3.961c0.748,0,1.342-0.176,1.76-0.396l0.285,1.232
			c-0.594,0.308-1.496,0.506-2.354,0.506c-2.553,0-3.873-2.09-3.873-5.347c0-3.433,1.475-5.589,3.609-5.589
			c2.156,0,3.035,2.288,3.035,4.665c0,0.418-0.021,0.704-0.043,0.968H341.196z M344.542,398.912c0.021-2.112-0.77-3.059-1.584-3.059
			c-1.123,0-1.672,1.606-1.738,3.059H344.542z"/>
		<path fill="#898989" d="M350.282,400.166c0,3.278,1.299,3.961,2.51,3.961c0.748,0,1.342-0.176,1.76-0.396l0.285,1.232
			c-0.594,0.308-1.496,0.506-2.354,0.506c-2.553,0-3.873-2.09-3.873-5.347c0-3.433,1.475-5.589,3.609-5.589
			c2.156,0,3.035,2.288,3.035,4.665c0,0.418-0.021,0.704-0.043,0.968H350.282z M353.627,398.912c0.021-2.112-0.77-3.059-1.584-3.059
			c-1.123,0-1.672,1.606-1.738,3.059H353.627z"/>
	</g>
</g>
<g>
	<polygon fill-rule="evenodd" clip-rule="evenodd" fill="#EC1C24" points="0,0 171.868,0 171.868,171.868 0,171.868 0,0 	"/>
	<path fill-rule="evenodd" clip-rule="evenodd" fill="#FFFFFF" d="M148.243,67.541c0.514-1.797,0.32-3.019-0.514-3.596
		c-0.643-0.513-1.799-0.513-3.402,0c-3.531,1.477-7.127,4.688-10.787,9.566c-5.008,7.062-8.732,13.998-11.17,20.801l-0.258,0.385
		c-0.643,0.322-1.477,0.451-2.248,0.322c-0.191-0.129-0.256-0.258-0.256-0.449l0.963-3.724c0.256-1.541,0.064-2.824-0.643-3.788
		c-0.514-0.771-1.283-1.092-2.246-1.092c-2.826,0.193-5.715,2.183-8.668,6.163c-2.953,4.238-4.559,8.281-4.879,11.943
		c0,2.311,0.707,3.85,2.184,4.492c1.668,0.449,3.531-0.129,5.584-1.861c2.184-2.055,4.303-5.201,6.422-9.309l0.385-0.449h2.311
		c0.193,0,0.322,0.127,0.322,0.32c-0.643,2.824-0.965,4.365-0.965,4.621c-0.32,1.863-0.191,3.404,0.193,4.752
		c0.449,1.283,1.221,1.926,2.311,1.99c1.863,0.193,3.982-1.219,6.42-4.107l0.193-0.129l0.129,0.256
		c0.127,2.055,0.707,3.338,1.734,3.787c1.025,0.322,2.053,0.129,3.145-0.385c0.643-0.385,1.541-1.027,2.697-2.117
		c0.127-0.064,0.256-0.064,0.32,0.064l0.385,1.219c0.129,0.514,0.385,0.898,0.707,1.156c0.834,0.449,1.861,0.32,3.273-0.322
		c3.146-1.668,5.973-5.072,8.41-10.143l0.193-0.836l-1.412,0.064l-2.119,3.338c-0.963,1.348-1.861,2.311-2.76,2.76
		c-0.385,0.129-0.578,0-0.643-0.191c-0.064-0.322,0.129-0.963,0.578-1.861l7.318-14.702c0.064-0.258,0.064-0.385,0-0.449
		l-4.43-0.064c-0.193,0-0.32,0.064-0.449,0.32l-0.385,0.385c-0.193,0.128-0.387,0.064-0.514-0.063l-0.514-0.322
		c-1.797-0.834-3.789-0.32-6.035,1.413c-1.861,1.605-3.852,4.045-5.779,7.19c-2.439,3.917-4.172,6.483-5.135,7.64
		c-0.836,0.834-1.477,1.156-1.99,0.898c-0.32-0.129-0.449-0.449-0.449-0.834c0.064-1.477,0.449-3.467,1.219-5.971l0.385-1.155
		c0.193-0.449,0.387-0.771,0.643-1.027l2.953-2.44c3.854-3.529,7.447-7.704,10.785-12.39l0.707-1.413h-0.129
		c-1.027,0.064-1.668,0.193-1.926,0.322c-3.402,4.687-6.484,8.345-9.309,10.85c-0.834,0.705-1.35,1.027-1.477,1.027
		c-0.064-0.064-0.129-0.129-0.129-0.258c0.32-0.898,1.221-2.76,2.568-5.65c3.402-6.613,6.742-11.813,9.887-15.472
		c1.477-1.733,2.762-2.76,3.725-3.209c0.449-0.064,0.77,0,0.898,0.128c0.064,0.063,0.064,0.385,0.064,0.962l-0.514,1.926
		c0,0.064,0,0.064,0.064,0.064C147.471,68.503,148.178,68.054,148.243,67.541L148.243,67.541z M136.172,99.961
		c1.926-4.751,3.98-8.09,6.035-10.143l1.027-0.898c0.449-0.258,0.834-0.322,1.283-0.129c0.193,0.129,0.258,0.449,0.129,1.027
		c-1.863,4.622-3.725,8.281-5.457,11.041c-1.092,1.477-1.926,2.375-2.504,2.697c-0.385,0.129-0.643,0.129-0.834-0.129
		c-0.258-0.256-0.322-0.77-0.258-1.668L136.172,99.961L136.172,99.961z M117.875,88.598c0.32,0.064,0.641,0.387,0.834,0.898
		c0.256,1.285-0.064,2.889-0.898,4.751c-0.193,0.258-0.385,0.258-0.771,0.064c-1.283-0.449-1.926-1.284-2.055-2.503
		c0.129-1.412,0.643-2.375,1.67-3.082C117.104,88.536,117.489,88.471,117.875,88.598L117.875,88.598z M112.868,93.992
		c0.064-0.064,0.256,0,0.449,0c0.898,1.156,1.926,1.99,3.08,2.505c0.258,0.127,0.258,0.385,0.064,0.77
		c-1.605,3.082-3.145,5.199-4.559,6.291c-0.578,0.258-1.027,0.258-1.348,0.193c-0.643-0.258-0.963-0.707-0.963-1.479
		c0-1.154,0.449-2.76,1.348-4.812C111.711,95.854,112.29,94.697,112.868,93.992L112.868,93.992z"/>
	<path fill-rule="evenodd" clip-rule="evenodd" fill="#FFFFFF" d="M156.139,65.101c0.32-0.642,0.449-1.156,0.514-1.541
		c-5.008,4.943-9.824,7.511-14.383,7.575l-0.32,0.193l-3.531,5.007c-0.129,0.322-0.129,0.45,0,0.514l1.605,0.064
		c3.402-0.064,6.678-1.219,9.695-3.595C152.608,71.071,154.727,68.31,156.139,65.101L156.139,65.101z"/>
	<path fill-rule="evenodd" clip-rule="evenodd" fill="#FFFFFF" d="M115.307,67.99c0.062-0.706,0.191-1.028,0.256-1.092
		c3.018-0.513,6.164,0.386,9.502,2.633l5.842,3.98c0.193,0.128,0.387,0.128,0.451,0l3.467-4.301c0.32-0.257,0.32-0.449,0-0.577
		c-3.467-2.184-5.715-3.532-6.678-4.046c-1.926-0.898-4.174-1.348-6.74-1.283c-2.377,0.129-4.623,0.642-6.742,1.477
		c-0.258,0.064-0.514,0-0.834-0.258c-1.027-0.898-2.441-1.219-4.367-0.962c-4.686,0.835-9.5,3.724-14.381,8.667
		c-3.787,3.788-7.127,8.731-10.08,14.896l-1.412,3.274c-2.184,6.355-2.44,11.234-0.835,14.574c1.092,2.375,2.889,3.594,5.458,3.852
		c5.008,0.385,9.502-2.504,13.547-8.861c2.439-4.301,3.467-7.896,3.082-10.914c-0.258-1.604-1.027-2.632-2.312-2.952
		c-2.439-0.578-4.879,0.577-7.318,3.401c-2.697,3.66-3.916,7.449-3.787,11.363l0.127,0.193c1.156-1.348,2.439-2.439,3.789-3.467
		l2.182-1.412c0.32-2.697,1.156-4.814,2.504-6.355c0.963-0.963,1.734-1.348,2.375-1.027c0.514,0.32,0.771,0.898,0.836,1.605
		l-0.193,1.988c-0.834,3.854-2.76,7.32-5.777,10.4c-2.826,2.377-5.201,3.084-7.062,2.121c-1.99-1.414-2.439-4.559-1.285-9.438
		c2.184-7.384,6.037-14.382,11.557-21.123c4.045-4.559,7.383-7.255,10.08-8.218l0.963,0.064c0.129,0.128,0.064,0.192-0.064,0.256
		c-2.695,2.055-4.75,4.366-6.162,6.871c-1.928,3.659-2.312,6.419-1.092,8.281c0.643,0.899,1.541,1.221,2.631,0.963
		c1.799-0.514,3.596-2.118,5.459-4.879C114.407,74.282,115.37,71.071,115.307,67.99L115.307,67.99z M112.61,68.696
		c0.129-0.192,0.385-0.257,0.643-0.257c0.064,0.129,0.129,0.706,0.129,1.797c-0.449,3.66-1.992,6.999-4.752,9.951
		c-1.092,0.835-1.99,1.157-2.568,1.028c-0.514-0.192-0.77-0.578-0.834-1.22c0.064-1.861,0.963-4.044,2.568-6.548
		C109.208,71.393,110.813,69.787,112.61,68.696L112.61,68.696z"/>
	<path fill-rule="evenodd" clip-rule="evenodd" fill="#FFFFFF" d="M61.634,76.272c-0.385-0.771-1.092-1.22-1.99-1.349
		c-1.926-0.191-3.788,0.45-5.65,1.926c-0.578,0.514-2.054,1.991-4.366,4.56c-1.412,1.284-2.825,1.99-4.43,1.99
		c-0.064,0-0.129-0.064-0.257-0.257c1.156-3.596,0.963-6.164-0.449-7.576c-0.963-0.77-2.119-0.963-3.467-0.643
		c-3.595,1.092-6.934,4.495-10.016,10.145c-1.155,2.376-1.926,4.622-2.311,6.677c-0.257,2.632,0.321,4.494,1.798,5.521
		c1.541,0.963,3.402,0.707,5.457-0.77c2.44-1.927,5.072-5.395,7.769-10.466l0.321-0.385l2.632-0.258
		c0.128,0,0.192,0.129,0.192,0.321c-1.027,2.375-1.669,4.109-1.862,5.328c-0.385,2.184-0.064,3.917,1.027,5.33
		c1.027,1.092,2.311,1.541,3.852,1.412c2.632-0.514,5.457-2.312,8.539-5.266c0.128-0.129,0.257-0.129,0.321,0l-0.064,1.991
		c0,0.834,0.128,1.477,0.385,1.927c0.321,0.705,0.898,1.154,1.669,1.348c1.605,0.193,3.467-0.707,5.65-2.632
		c0.064-0.064,0.192,0,0.321,0.062c0.321,1.286,0.642,2.056,0.963,2.312c0.321,0.258,0.963,0.387,1.862,0.322
		c2.825-0.707,5.713-3.339,8.667-7.896c1.284-2.375,1.926-3.661,1.99-3.726l-1.285-0.191c-0.256,0-0.577,0.191-0.898,0.578
		c-0.449,0.899-1.027,1.927-1.733,2.952c-1.284,1.541-2.183,2.504-2.825,2.824c-0.321,0.129-0.514,0.064-0.578-0.127l0.064-0.578
		l8.154-16.564l-0.129-0.129l-4.301-0.128c-0.193,0-0.578,0.257-1.156,0.835c-0.128,0.063-0.321,0-0.449-0.129l-0.449-0.257
		c-1.605-0.835-3.467-0.513-5.586,0.899c-1.861,1.413-3.852,3.53-5.713,6.42c-2.697,4.044-4.302,6.419-4.879,7.062
		c-2.055,2.246-3.98,3.658-5.586,4.302c-0.77,0.193-1.413,0-1.862-0.644c-0.385-0.576-0.385-1.668-0.064-3.209
		c0.834-2.695,2.054-5.329,3.66-7.769c1.862-2.697,3.402-4.365,4.815-4.879c0.385,0,0.706,0.129,0.898,0.32
		c0.064,0.386,0,0.579-0.321,0.643l-0.834,0.256c-1.541,1.092-2.183,2.375-1.862,3.853c0.128,0.385,0.385,0.643,0.77,0.771
		c0.643,0.192,1.349-0.063,2.119-0.706C62.147,80.316,62.661,78.262,61.634,76.272L61.634,76.272z M73.704,78.262
		c0.257,0.193,0.321,0.321,0.385,0.449c-0.064,0.386-0.257,1.156-0.771,2.44c-1.926,4.237-3.98,7.834-6.035,10.785
		c-0.834,0.898-1.477,1.348-1.926,1.348l-0.578-0.449c-0.128-0.512,0-1.475,0.45-3.016l0.642-1.605
		c2.247-4.751,4.558-7.961,6.805-9.694C73.125,78.326,73.511,78.262,73.704,78.262L73.704,78.262z M36.724,84.875l1.027-1.668
		l0.449-0.385l0.128,0.064c1.028,1.091,2.119,1.926,3.403,2.439c0.064,0.129,0.064,0.386-0.128,0.707
		c-1.477,2.89-3.018,5.007-4.687,6.419c-0.578,0.322-1.092,0.514-1.477,0.385c-0.449-0.127-0.771-0.512-0.899-1.154
		C34.541,90.01,35.311,87.764,36.724,84.875L36.724,84.875z M41.859,77.621c0.385-0.193,0.771-0.193,1.22,0
		c0.706,0.577,0.963,1.604,0.642,3.146c-0.257,0.834-0.514,1.604-0.835,2.247c-0.064,0.129-0.321,0.129-0.834,0.064
		c-1.284-0.514-1.99-1.348-2.119-2.44C39.934,79.289,40.575,78.262,41.859,77.621L41.859,77.621z"/>
	<path fill-rule="evenodd" clip-rule="evenodd" fill="#FFFFFF" d="M81.15,80.316c0.321,0,1.862,0,4.559,0
		c0.386,0,0.771-0.321,1.028-0.771l2.054-4.365l-0.129-0.129l-3.66-0.064c-0.834,0.064-1.284,0.193-1.477,0.449l-2.312,4.302
		C81.15,79.995,81.15,80.188,81.15,80.316L81.15,80.316z"/>
	<path fill-rule="evenodd" clip-rule="evenodd" fill="#FFFFFF" d="M27.221,71.393c-3.146,3.146-5.842,6.805-8.089,10.978
		c-1.156,2.119-1.99,3.98-2.568,5.587c-1.22,3.08-1.733,6.163-1.541,9.309c0.192,3.658,1.284,6.549,3.402,8.604
		c2.183,2.504,6.035,3.465,11.364,2.953c1.541-0.193,5.457-1.156,11.685-2.824c4.75-1.285,8.795-1.734,12.134-1.35
		c3.082,0.578,5.329,2.055,6.805,4.365l0.257,0.064c3.788-1.797,9.438-1.732,16.885,0.32c0.129,0,0.129,0,0.129-0.127
		c-1.862-2.824-5.137-5.264-9.631-7.191c-5.714-2.246-12.327-2.375-19.838-0.193l-9.888,2.955c-2.632,0.705-4.687,1.156-5.97,1.283
		c-2.44,0.193-4.43-0.127-6.099-0.963c-3.146-1.734-4.559-4.814-4.237-9.309c0.513-4.238,2.183-8.989,5.071-14.318
		c3.724-6.163,7.512-10.786,11.364-13.866c1.862-1.285,3.274-1.862,4.173-1.734c0.321,0.063,0.578,0.257,0.835,0.642
		c0.128,0.385,0.064,0.578-0.064,0.707c-0.771,0.128-1.477,0.449-2.119,1.155c-0.578,0.578-0.963,1.22-1.091,1.991
		c-0.193,0.963-0.064,1.605,0.321,1.991c0.321,0.256,0.642,0.449,0.963,0.449c1.99-0.322,3.146-1.735,3.724-4.431
		c0.385-1.926,0-3.338-1.156-4.173c-1.091-0.834-2.953-0.963-5.521-0.257C34.605,65.229,30.881,67.733,27.221,71.393L27.221,71.393z
		"/>
</g>
</svg>
