<?xml version="1.0" encoding="utf-8"?>
<!-- Generator: Adobe Illustrator 16.0.0, SVG Export Plug-In . SVG Version: 6.00 Build 0)  -->
<!DOCTYPE svg PUBLIC "-//W3C//DTD SVG 1.1//EN" "http://www.w3.org/Graphics/SVG/1.1/DTD/svg11.dtd">
<svg version="1.1" id="Layer_1" xmlns="http://www.w3.org/2000/svg" xmlns:xlink="http://www.w3.org/1999/xlink" x="0px" y="0px"
	 width="122.461px" height="74.317px" viewBox="0 0 122.461 74.317" enable-background="new 0 0 122.461 74.317"
	 xml:space="preserve">
<g>
	<path fill-rule="evenodd" clip-rule="evenodd" fill="#005A9B" d="M36.005,29.767c0,0-5.237-0.171-7.351-4.901
		c0,0-4.902,5.493-12.509,7.438l0.512,1.352v17.495l-1.442,1.438c0,0-5.744-4.229-6.251-9.297
		c-0.506-5.072,0.507-8.962,6.172-13.859c0,0,1.687-1.612,4.56-2.621v-0.594C10.566,26.216,0,34.493,0,44.133
		C0,53.684,7.25,59.34,16.822,59.34c0,0,6.086,0.062,10.598-2.418v2.385c0,0.186-0.373,0.15-0.373,0.15
		c-1.307,0-2.361,0.865-2.361,1.934s1.055,1.936,2.361,1.936c1.305,0,2.36-0.867,2.36-1.936V56c0.005,0,1.28-0.965,1.697-1.305
		c0.421-0.338,0.08-1.012-0.417-0.844c-0.511,0.17-1.274,0.506-1.274,0.506V31.966C29.413,31.966,33.811,32.383,36.005,29.767
		L36.005,29.767z M27.388,54.866c-7.608,0.844-9.636-0.844-9.636-0.844l6.256-5.322V30.44c0-0.845,3.38,1.265,3.38,1.265V54.866
		L27.388,54.866z"/>
	<path fill-rule="evenodd" clip-rule="evenodd" fill="#005A9B" d="M45.723,49.372c0,0,0-10.736,0-11.154
		c0-0.425,0.844-1.35,0.844-1.35c-3.124-0.337-8.11-2.787-8.11-2.787c-2.786,2.36-7.271,2.616-7.271,2.616
		c-0.08,0.508,0.678,1.433,0.678,1.433V49.12c0,0-0.337,0.338-1.095,1.352c-0.762,1.014-0.341,1.014-0.341,1.014
		c6.257,0.67,8.788,3.291,8.788,3.291c2.793-3.125,7.523-3.803,7.523-3.803C45.979,50.637,45.723,49.372,45.723,49.372
		L45.723,49.372z M40.65,50.215c-3.379-0.678-4.052-1.432-4.052-1.432V37.37c0-0.252,4.052,1.435,4.052,1.435V50.215L40.65,50.215z"
		/>
	<path fill-rule="evenodd" clip-rule="evenodd" fill="#005A9B" d="M78.174,49.372c0,0,0-10.736,0-11.154
		c0-0.425,0.846-1.35,0.846-1.35c-3.127-0.337-8.113-2.787-8.113-2.787c-2.787,2.36-7.268,2.616-7.268,2.616
		c-0.084,0.508,0.678,1.433,0.678,1.433V49.12c0,0-0.336,0.338-1.1,1.352c-0.758,1.014-0.34,1.014-0.34,1.014
		c6.26,0.67,8.793,3.291,8.793,3.291c2.787-3.125,7.521-3.803,7.521-3.803C78.432,50.637,78.174,49.372,78.174,49.372L78.174,49.372
		z M73.106,50.215c-3.381-0.678-4.057-1.432-4.057-1.432V37.37c0-0.252,4.057,1.435,4.057,1.435V50.215L73.106,50.215z"/>
	<path fill-rule="evenodd" clip-rule="evenodd" fill="#005A9B" d="M98.487,50.391c-0.004,0-0.018,0-0.027-0.006
		C98.459,50.385,98.272,50.665,98.487,50.391L98.487,50.391z"/>
	<path fill-rule="evenodd" clip-rule="evenodd" fill="#005A9B" d="M114.6,50.135c-1.186-0.172-1.693-1.611-1.693-1.611
		s0-10.307,0-10.732c0-0.422,0-2.195,0-2.195c-3.635-1.181-7.186-2.45-7.186-2.45c-3.379,2.024-7.01,3.124-7.01,3.124
		c-0.086,0.507,0.672,1.437,0.672,1.437v11.495c0,0,0.256-0.338-0.506,0.674c-0.193,0.26-0.314,0.416-0.391,0.516
		c3.627,0.443,7.625,4.385,7.625,4.385l2.908-3.125l3.291,3.125l3.891-4.391L114.6,50.135L114.6,50.135z M107.84,49.797
		c-1.525-1.184-3.635-2.209-3.635-2.209V36.53c-1.043-0.633,3.635,1.428,3.635,1.428V49.797L107.84,49.797z"/>
	<path fill-rule="evenodd" clip-rule="evenodd" fill="#005A9B" d="M47.626,37.033l4.268-3.294c0,0,2.707,1.602,3.125,2.275
		c0.003,0,0.426,0.346,3.886-1.935l0.597-0.426c0,0,2.195,2.019,4.054,2.53c0,0-0.422,3.722-7.015,1.944
		c0,0-1.433-0.252-1.433,0.426c0,0.674,0,11.916,0,11.916h1.858c0,0-2.877,1.684-3.892,3.213c-1.009,1.518-0.938,1.092-0.938,1.092
		c0.004,0-0.329-1.855-3.963-3.967l-0.082-0.252h1.692V39.229C49.784,39.229,49.062,37.118,47.626,37.033L47.626,37.033z"/>
	<path fill-rule="evenodd" clip-rule="evenodd" fill="#005A9B" d="M96.26,36.53c-1.785-0.723-4.734-3.048-4.734-3.048l-0.588,0.423
		c-3.469,2.279-4.484,2.365-4.484,2.365c-0.418-0.674-3.209-2.28-3.209-2.28l-3.801,2.877c1.439,0.076,2.029,2.452,2.029,2.452
		v11.318H79.78l0.086,0.256c3.635,2.113,4.049,3.883,4.049,3.883s-0.162,0.508,0.852-1.012c1.02-1.516,3.893-3.207,3.893-3.207
		h-1.865c0,0,0-11.238,0-11.922l2.201-1.692l1.688,1.442v12.086h-1.016c0,0,3.771,3.551,3.938,4.305c0,0,3.5-4.049,3.926-4.049
		h-1.691V38.129C95.838,38.129,96.682,36.696,96.26,36.53L96.26,36.53z"/>
	<path fill-rule="evenodd" clip-rule="evenodd" fill="#FFCA05" d="M41.328,26.445h39.161v-3.267H41.328V26.445L41.328,26.445z
		 M44.201,26.001c-0.593,0-1.072-0.489-1.072-1.082c0-0.588,0.479-1.082,1.072-1.082c0.597,0,1.082,0.494,1.082,1.082
		C45.283,25.512,44.798,26.001,44.201,26.001L44.201,26.001z M52.486,26.001c-0.593,0-1.078-0.489-1.078-1.082
		c0-0.588,0.485-1.082,1.078-1.082s1.072,0.494,1.072,1.082C53.559,25.512,53.079,26.001,52.486,26.001L52.486,26.001z
		 M60.879,26.001c-0.592,0-1.078-0.489-1.078-1.082c0-0.588,0.485-1.082,1.078-1.082c0.592,0,1.078,0.494,1.078,1.082
		C61.958,25.512,61.471,26.001,60.879,26.001L60.879,26.001z M69.161,26.001c-0.592,0-1.072-0.489-1.072-1.082
		c0-0.588,0.48-1.082,1.072-1.082c0.598,0,1.078,0.494,1.078,1.082C70.239,25.512,69.758,26.001,69.161,26.001L69.161,26.001z
		 M77.612,26.001c-0.592,0-1.076-0.489-1.076-1.082c0-0.588,0.484-1.082,1.076-1.082c0.598,0,1.076,0.494,1.076,1.082
		C78.688,25.512,78.209,26.001,77.612,26.001L77.612,26.001z"/>
	<path fill-rule="evenodd" clip-rule="evenodd" fill="#FFCA05" d="M41.328,22.773h39.241c0,0,0.02-1.063,0.014-2.181H41.328V22.773
		L41.328,22.773z"/>
	<path fill-rule="evenodd" clip-rule="evenodd" fill="#FFCA05" d="M41.328,20.215h39.25c0-0.255-0.004-0.503-0.01-0.731
		c-0.027-1.381,1.102-2.168,1.748-2.392c0.648-0.229,1.941-1.157,1.941-1.157c3.326-2.649,1.945-4.933,1.945-4.933
		s-1.129,2.541-4.959,2.145c0,0-0.279,1.575-2.084,1.971c0,0,0.943,1,0.646,2.101c0,0-0.041,1.055-1.562,0.838
		c0,0-0.717-0.627,0.338-1.727l-1.479-1.181l-1.43,1.091c0,0,0.963,0.512,0.461,1.777c0,0-0.525,0.479-0.717,0.506
		c-0.203,0.032-2.062-0.816-0.086-2.871l-2.227-1.891l-2.285,1.891c0,0,1.805,1.809,0.311,2.769c0,0-1.604,1.09-1.773-0.853
		c0,0-0.197-0.619,0.592-0.925l-2.225-1.44l-2.115,1.495c0,0,0.646,0.448,0.625,0.839c-0.027,0.398,0.139,1.077-1.244,1.242
		c0,0-1.49-0.142-1.068-1.687c0.422-1.553,1.971-1.745,2.504-1.89c0,0-1.436-2.424-5.461-3.155h-0.031
		c-4.027,0.731-5.463,3.155-5.463,3.155c0.535,0.145,2.083,0.336,2.506,1.89c0.426,1.545-1.069,1.687-1.069,1.687
		c-1.383-0.165-1.211-0.844-1.239-1.242c-0.03-0.391,0.62-0.839,0.62-0.839l-2.113-1.495l-2.227,1.44
		c0.79,0.306,0.592,0.925,0.592,0.925c-0.166,1.942-1.772,0.853-1.772,0.853c-1.495-0.96,0.309-2.769,0.309-2.769l-2.283-1.891
		l-2.227,1.891c1.975,2.055,0.117,2.903-0.08,2.871c-0.198-0.026-0.719-0.506-0.719-0.506c-0.508-1.266,0.462-1.777,0.462-1.777
		l-1.436-1.091l-1.477,1.181c1.059,1.1,0.336,1.727,0.336,1.727c-1.521,0.217-1.562-0.838-1.562-0.838
		c-0.297-1.101,0.646-2.101,0.646-2.101c-1.801-0.396-2.088-1.971-2.088-1.971c-3.828,0.396-4.954-2.145-4.954-2.145
		s-1.383,2.284,1.948,4.933c0,0,1.292,0.928,1.942,1.157c0.646,0.224,1.773,1.011,1.741,2.392V20.215L41.328,20.215z"/>
	<path fill-rule="evenodd" clip-rule="evenodd" fill="#FFFFFF" d="M80.627,20.593v-0.378h-0.049
		c0.004,0.126,0.004,0.247,0.004,0.378H80.627L80.627,20.593z"/>
	<path fill-rule="evenodd" clip-rule="evenodd" fill="#FFCA05" d="M60.965,11.261c1.459,0,2.764,0.463,3.613,1.195l0.062,0.07
		c0.512,0.5,0.781,0.467,1.414,0.467c0.709,0,1.283-0.587,1.283-1.313c0-0.724-0.014-1.312-1.01-2.236L65.78,8.933l0.846-0.76
		c4.057,1.738,4.562,4.439,4.562,4.439h2.703c0-0.893-1.352-3.344-1.352-3.344c5.197,1.275,6.889,4.521,6.889,4.521
		c1.604-2.865,4.395-2.318,4.395-2.318l0.467-1.395c0,0-1.723-0.086-3.016,0.251c0,0,0.73-0.898-1.125-1.127
		c0,0,0.17-1.296-2.254-1.296c0,0,0.107-0.849-1.41-1.406c-1.521-0.565-2.027,0-2.027,0s-0.338-0.902-1.693-1.185
		c-1.346-0.283-1.805,0.282-1.805,0.282s-0.277-0.902-2.248-1.131c-1.975-0.219-2.311,0.399-2.311,0.399s-0.338-0.673-1.238-0.735
		c-0.902-0.059-1.299,0.458-1.299,0.458s-0.561-0.795-1.293-0.18c0,0-0.734,0.121-1.014-0.499c0,0,0.111-0.623,0.615-0.74
		c0.512-0.108,0.902-0.108,0.902-0.108s-0.055-0.956-1.459-1.296c0,0,0.529-0.863-0.65-1.765h-0.113
		c-1.18,0.902-0.651,1.765-0.651,1.765c-1.408,0.341-1.463,1.296-1.463,1.296s0.396,0,0.902,0.108
		c0.507,0.117,0.619,0.74,0.619,0.74c-0.283,0.62-1.014,0.499-1.014,0.499c-0.731-0.616-1.298,0.18-1.298,0.18
		s-0.395-0.517-1.293-0.458c-0.901,0.062-1.243,0.735-1.243,0.735s-0.336-0.619-2.307-0.399c-1.975,0.229-2.253,1.131-2.253,1.131
		s-0.453-0.565-1.804-0.282c-1.352,0.282-1.692,1.185-1.692,1.185s-0.508-0.565-2.029,0c-1.521,0.557-1.404,1.406-1.404,1.406
		c-2.424,0-2.257,1.296-2.257,1.296c-1.859,0.229-1.122,1.127-1.122,1.127c-1.298-0.337-3.018-0.251-3.018-0.251l0.463,1.395
		c0,0,2.792-0.547,4.398,2.318c0,0,1.692-3.246,6.885-4.521c0,0-1.352,2.451-1.352,3.344h2.703c0,0,0.507-2.701,4.564-4.439
		l0.844,0.76l-0.547,0.512c-0.993,0.924-1.011,1.512-1.011,2.236c0,0.726,0.575,1.313,1.284,1.313c0.632,0,0.901,0.033,1.418-0.467
		l0.059-0.07c0.848-0.732,2.154-1.195,3.617-1.195H60.965L60.965,11.261z"/>
	<path fill-rule="evenodd" clip-rule="evenodd" fill="#005A9B" d="M85.202,72.598c-0.432,0.117-0.916,0.246-1.248-0.035
		c-0.436-0.379-0.23-4.346-0.283-5.383c-0.012-0.297,0.117-0.488,0-1.08c0-0.016-2.494-0.691-4.168-2.33
		c-0.984,1.068-2.707,2.285-4.777,2.85c0.348,0.162,0.494,0.432,0.561,0.637v4.625c-0.066,0.316-0.191,0.457-0.479,0.637
		c0.623,0.166,2.297,0.609,4.014,1.646c0.164,0.1,1.539-1.037,2.203-1.207c0.35,0.498,1.488,1.66,2.605,1.166
		c0.383-0.166,1.172-1.059,1.572-1.359C85.192,72.76,85.202,72.616,85.202,72.598L85.202,72.598z M78.174,71.032
		c0,0-0.02-4.699,0-4.775c-0.02,0,2.471,1.324,2.471,1.324l0.02,4.42L78.174,71.032L78.174,71.032z"/>
	<path fill-rule="evenodd" clip-rule="evenodd" fill="#005A9B" d="M71.952,64.168c1.123,1.109,1.676,1.252,2.855,1.814
		c-0.293,1.283-2.717,1.639-4.256,0.879c-0.26-0.125-0.844,0.229-0.844,0.229l-0.014,5.221l0.736,0.008l-2.369,1.805l-2.088-1.805
		l0.844-0.008v-5.66c-0.443-0.574-1.148-0.422-1.947-0.09l2.227-2.109c0.816-0.699,2.078,1.428,2.652,1.369
		c0.238-0.031,1.32-1.037,1.566-1.252C71.45,64.452,71.911,64.133,71.952,64.168L71.952,64.168z"/>
	<path fill-rule="evenodd" clip-rule="evenodd" fill="#005A9B" d="M49.201,64.057c1.898-0.273,2.616,1.951,3.649,2.684
		c0.964-0.781,1.324-2.33,2.809-2.572c0.476-0.072,1.086,0.172,1.284,0.48c0.422,0.67-0.031,1.492-0.723,0.846
		c-0.147-0.135-0.283-0.252-0.562-0.158c-0.296,0.094-2.051,2.186-2.007,2.49l0.041,0.033c0.197,0.402,3.097,3.908,3.29,4.057
		C56.989,71.92,57.064,72,57.064,72c0.7,0.148,0.808-0.754,1.566-0.65c0.121,0.889-1.392,2.518-2.047,2.773
		c-2.724,1.078-3.698-2.656-5.135-3.572c-0.3,0.176-1.525,1.701-1.889,2.213c-0.301,0.422-0.544,0.912-1.006,1.158
		c-0.543,0.287-1.181-0.201-1.445-0.561c-0.296-0.408-0.996-2.16,0.403-1.445c0.234,0.125,0.607,0.355,0.926,0.242
		c0.233-0.082,2.244-2.375,2.284-2.572c0.019-0.094-0.005-0.201-0.04-0.279c-0.186-0.42-1.72-2.396-2.244-2.812l-0.041-0.031
		c-0.624-0.193-0.83,0.676-1.646,0.439c0.021-0.504,0.206-0.762,0.403-1.082c0.193-0.326,0.74-1.145,0.799-1.207
		C48.205,64.348,48.767,64.108,49.201,64.057L49.201,64.057z"/>
	<path fill-rule="evenodd" clip-rule="evenodd" fill="#005A9B" d="M62.602,61.723c0.064,0.059,0.176,0.041,0.199,0.121l-0.01,2.414
		h1.947c0,0.287,0,0.629,0,0.912c0,0-1.459-0.1-1.816,0.131l-0.225,0.107v5.914c0.004,0,0.52,0.408,0.709,0.432
		c0.055,0.004,0.107,0.014,0.156,0c0.293-0.049,1.41-0.809,1.57-0.197c0.055,0.215-0.049,0.385-0.125,0.484
		c-0.246,0.314-3.648,2.123-3.648,2.123s-2.006-1.691-2.167-1.846c-0.161-0.152,0.561-0.762,0.561-0.762
		c0.107-0.416,0-3.748,0-4.902c0-0.344,0.099-0.869,0-1.197c0.045-0.43-1.315-0.371-1.315-0.371l-0.005-0.828
		c0.217-0.133,0.952-0.049,1.244-0.09c0.036-0.152,0.026-0.668,0.116-0.842C59.883,63.155,62.249,61.889,62.602,61.723
		L62.602,61.723z"/>
	<path fill-rule="evenodd" clip-rule="evenodd" fill="#005A9B" d="M35.952,57.19c0.373-0.059,0.929,0.18,1.248,0.242
		c0.933,0.189,1.975,0.248,2.93,0.318c1.66,0.121,3.129-0.012,4.574-0.205c0.479-0.059,1.099-0.266,1.525-0.158
		c-0.229,0.475-0.498,0.746-0.803,1.127c-0.301,0.363-1.167,1.58-1.566,1.725c-0.202,0.064-0.404,0-0.602,0
		c-0.803,0.008-1.934,0.053-2.77,0.043c-0.668-0.014-1.481-0.16-2.168,0c-0.13,1.158-0.216,2.475,0.046,3.488
		c0.457-0.111,0.753-0.355,1.157-0.48c1.248-0.377,3.159,0.768,4.058,0.117c0.103-0.072,0.215-0.328,0.358-0.355
		c1.177-0.225-0.403,2.434-0.884,2.648c-0.803,0.359-2.109,0.238-3.053,0.076c-0.318-0.055-0.933-0.225-1.323-0.076
		c-0.74,0.273-0.44,2.568-0.44,3.568c0-0.01,0.004,0.096,0,0.125c-0.053,0.584-0.026,0.816-0.237,1.158
		c-0.139,0.217-0.188,0.381-0.282,0.637c0.677,0,1.181-0.184,1.769-0.232c1.09-0.1,2.063,0.221,2.926,0.367
		c0.646,0.096,1.764,0.238,2.248-0.135c0.346-0.256,0.553-1.219,0.925-1.398c0.13-0.059,0.364-0.037,0.476,0
		c0.212,0.062,0.395,0.24,0.368,0.523c-0.032,0.27-2.011,3.73-2.168,3.811c0,0.014,0,0.031,0,0.041
		c-0.03,0.01-0.121,0.035-0.121,0.035c-0.135,0.055-0.372,0.055-0.561,0.051c-1.796-0.135-3.681-0.691-5.423-0.848
		c-0.592-0.051-1.287-0.051-1.884,0c-0.464,0.035-2.183,0.596-2.487,0.398c-0.494-0.311,0.287-0.889,0.439-0.996
		c0.185-0.148,0.49-0.449,0.562-0.691c0.185-0.574,0.035-1.857,0-2.365c-0.147-2.23,0.018-4.721,0.041-7.061
		c0.004-0.533-0.104-1.18,0.08-1.643c0.198-0.516,0.893-0.82,1.203-1.291c-1.233-0.467-2.127,1.26-2.765,0.684
		c-0.226-0.191-0.247-0.367-0.04-0.6c0.678-0.781,1.472-1.477,2.168-2.25C35.574,57.477,35.776,57.217,35.952,57.19L35.952,57.19z"
		/>
	<path fill-rule="evenodd" clip-rule="evenodd" fill="#005A9B" d="M120.444,50.758c0.084,0.051,0.125,0.135,0.125,0.262
		c0,0.115-0.041,0.197-0.129,0.242c-0.051,0.021-0.127,0.031-0.227,0.031h-0.502v-0.566h0.512
		C120.323,50.727,120.389,50.735,120.444,50.758L120.444,50.758z M119.276,50.354v2.123h0.436v-0.834h0.459
		c0.129,0,0.219,0.027,0.27,0.07c0.045,0.041,0.07,0.135,0.07,0.271v0.201c0,0.062,0.01,0.121,0.023,0.174
		c0.004,0.037,0.018,0.076,0.027,0.117h0.488v-0.053c-0.045-0.027-0.072-0.064-0.08-0.127c-0.01-0.021-0.014-0.094-0.014-0.193
		v-0.143c0-0.145-0.02-0.256-0.059-0.328c-0.045-0.072-0.113-0.135-0.211-0.166c0.121-0.039,0.207-0.111,0.256-0.205
		c0.049-0.104,0.076-0.197,0.076-0.307c0-0.076-0.018-0.156-0.045-0.221c-0.027-0.061-0.059-0.125-0.107-0.174
		c-0.053-0.062-0.121-0.121-0.203-0.158c-0.08-0.021-0.193-0.049-0.346-0.049H119.276L119.276,50.354z"/>
	<path fill-rule="evenodd" clip-rule="evenodd" fill="#005A9B" d="M120.022,53.987c1.35,0,2.439-1.088,2.439-2.434
		c0-1.352-1.09-2.443-2.439-2.443c-1.346,0-2.439,1.092-2.439,2.443C117.583,52.899,118.676,53.987,120.022,53.987L120.022,53.987z
		 M120.022,53.61c1.141,0,2.061-0.92,2.061-2.057c0-1.143-0.92-2.066-2.061-2.066c-1.137,0-2.061,0.924-2.061,2.066
		C117.961,52.69,118.885,53.61,120.022,53.61L120.022,53.61z"/>
</g>
</svg>
