<?xml version="1.0" encoding="utf-8"?>
<!-- Generator: Adobe Illustrator 16.0.0, SVG Export Plug-In . SVG Version: 6.00 Build 0)  -->
<!DOCTYPE svg PUBLIC "-//W3C//DTD SVG 1.1//EN" "http://www.w3.org/Graphics/SVG/1.1/DTD/svg11.dtd">
<svg version="1.1" id="Layer_1" xmlns="http://www.w3.org/2000/svg" xmlns:xlink="http://www.w3.org/1999/xlink" x="0px" y="0px"
	 width="187.086px" height="122.074px" viewBox="0 0 187.086 122.074" enable-background="new 0 0 187.086 122.074"
	 xml:space="preserve">
<g>
	<path fill-rule="evenodd" clip-rule="evenodd" fill="#E20613" d="M187.086,61.037C150.842,40.312,137.027,1.703,86.021,0
		C39.178,1.608,15.047,48.64,0,61.037c15.047,12.396,39.178,59.429,86.021,61.037C137.027,120.371,150.842,81.762,187.086,61.037
		L187.086,61.037L187.086,61.037L187.086,61.037L187.086,61.037z"/>
	<path fill-rule="evenodd" clip-rule="evenodd" fill="#FFFFFF" d="M87.571,38.69c-4.107,0-9.676,0.279-9.815,6.265l0,0h6.683l0,0
		c0.696-1.508,1.531-2.599,3.202-2.645c1.578,0.069,2.878,0.905,2.646,2.506c-0.023,1.555-2.622,1.648-4.455,1.74
		c-3.318-0.023-7.89,0.232-8.284,4.316l0,0v2.441l0,0c-0.07,2.435,2.924,4.174,6.266,4.242c2.622,0.093,4.826-0.162,6.822-1.253l0,0
		l0.278,0.631h7.381V45.024l0,0C98.062,39.502,92.468,38.922,87.571,38.69L87.571,38.69L87.571,38.69L87.571,38.69z M90.735,50.49
		c0,0.304-0.016,0.622-0.03,0.935c-0.061,1.312-0.676,2.372-2.252,2.602c-2.302,0.337-3.698-0.395-3.944-1.693
		c-0.166-0.874,0.206-1.753,0.914-2.195c1.273-0.795,5.312-1.113,5.312-1.087l0,0V50.49L90.735,50.49L90.735,50.49z"/>
	<path fill-rule="evenodd" clip-rule="evenodd" fill="#FFFFFF" d="M67.383,32.634H50.328v24.295h17.195l0,0
		c3.411,0.046,6.822-3.318,6.892-6.543l0,0V38.963l0,0C73.881,34.718,70.354,32.632,67.383,32.634L67.383,32.634L67.383,32.634
		L67.383,32.634z M65.921,49.885c-0.068,2.277-1.83,3.95-3.968,3.899l0,0h-2.784V35.823h2.784l0,0
		c2.138-0.051,3.9,1.622,3.968,3.899l0,0V49.885L65.921,49.885L65.921,49.885z"/>
	<polygon fill-rule="evenodd" clip-rule="evenodd" fill="#FFFFFF" points="101.633,56.929 109.291,56.929 109.291,39.711 
		101.633,39.711 101.633,56.929 101.633,56.929 	"/>
	<path fill-rule="evenodd" clip-rule="evenodd" fill="#FFFFFF" d="M105.253,29.779c-2.569,0-4.664,1.688-4.664,3.759
		s2.095,3.759,4.664,3.759s4.664-1.688,4.664-3.759S107.823,29.779,105.253,29.779L105.253,29.779L105.253,29.779L105.253,29.779z"
		/>
	<path fill-rule="evenodd" clip-rule="evenodd" fill="#FFFFFF" d="M139.643,39.711v11.397l0,0c0.019,1.236-1.086,2.191-2.304,2.191
		c-1.367,0.057-2.116-1.124-2.079-2.191l0,0V39.711h-7.728l0.028,12.915l0,0c-0.038,2.529,2.453,5.001,6.462,5.114
		c2.267-0.075,4.084-0.375,5.788-1.236l0,0v5.9h4.44l0,0c1.854,0,2.923-1.518,2.923-2.866l0,0V39.711H139.643L139.643,39.711
		L139.643,39.711z"/>
	<path fill-rule="evenodd" clip-rule="evenodd" fill="#FFFFFF" d="M120.826,40.448v-0.136v-0.601h-7.658v17.218h7.658V45.276l0,0
		c0.986-1.521,3.116-1.835,5.363-1.684l0,0v-4.877l0,0C123.472,38.556,122.067,38.955,120.826,40.448L120.826,40.448L120.826,40.448
		L120.826,40.448z"/>
	<path fill-rule="evenodd" clip-rule="evenodd" fill="#FFFFFF" d="M70.773,78.257c0.064,1.161-0.646,2.775-2.13,2.71
		c-1.721-0.021-2.41-1.462-2.453-2.774l0,0V66.834h-7.422v13.617l0,0c-0.172,2.065,2.431,4.582,6.26,4.646
		c2.151,0.043,4.367-0.366,6.067-1.807l0,0v1.226h7.164V66.853h-7.486V78.257L70.773,78.257L70.773,78.257z"/>
	<path fill-rule="evenodd" clip-rule="evenodd" fill="#FFFFFF" d="M43.142,60.182c-5.442,0-12.356,1.111-12.243,7.671l0,0v9.674l0,0
		c-0.091,5.301,4.406,7.043,9.007,7.517l0,0v2.538l0,0c-0.137,1.934,2.152,3.833,7.583,3.124l0,0v-5.803l0,0
		c4.187-0.638,7.979-2.503,7.895-7.376l0,0v-9.674l0,0C55.498,61.293,48.584,60.182,43.142,60.182L43.142,60.182L43.142,60.182
		L43.142,60.182z M46.542,78.277c-0.028,2.308-1.842,3.169-3.4,3.169s-3.373-0.861-3.4-3.169l0,0V67.104l0,0
		c0.028-2.308,1.842-3.169,3.4-3.169s3.373,0.861,3.4,3.169l0,0V78.277L46.542,78.277L46.542,78.277z"/>
	<path fill-rule="evenodd" clip-rule="evenodd" fill="#FFFFFF" d="M141.25,66.225c-2.151-0.043-4.367,0.365-6.066,1.807l0,0v-1.226
		h-7.164v17.663l7.486,0.001V73.065l0,0c-0.064-1.162,0.646-2.775,2.13-2.711c1.721,0.021,2.41,1.463,2.452,2.775l0,0v11.358h7.422
		V70.871l0,0C147.681,68.806,145.079,66.289,141.25,66.225L141.25,66.225L141.25,66.225L141.25,66.225z"/>
	<path fill-rule="evenodd" clip-rule="evenodd" fill="#FFFFFF" d="M114.659,66.059c-3.764,0.022-10.11,1.27-10.132,5.099l0,0v8.262
		l0,0c-0.064,2.624,4.194,5.829,9.874,5.937c3.808,0.107,10.068-1.075,10.068-3.937l0,0v-2.517h-7.1l0,0
		c0.107,1.312-0.882,2.624-2.775,2.774c-1.785-0.172-2.668-1.377-2.646-2.452l0,0v-2.001h12.521v-6.002l0,0
		C124.233,66.726,118.446,66.167,114.659,66.059L114.659,66.059L114.659,66.059L114.659,66.059z M117.499,73.675h-5.809v-2.647l0,0
		c-0.021-1.075,1.635-1.677,2.904-1.677c1.271,0,2.927,0.602,2.904,1.677l0,0V73.675L117.499,73.675L117.499,73.675z"/>
	<path fill-rule="evenodd" clip-rule="evenodd" fill="#FFFFFF" d="M91.296,66.059c-3.764,0.022-10.11,1.27-10.132,5.099l0,0v8.262
		l0,0c-0.064,2.624,4.195,5.829,9.874,5.937c3.808,0.107,10.068-1.075,10.068-3.937l0,0v-2.517h-7.099l0,0
		c0.106,1.312-0.882,2.624-2.775,2.774c-1.786-0.172-2.668-1.377-2.646-2.452l0,0v-2.001h12.522v-6.002l0,0
		C100.871,66.726,95.083,66.167,91.296,66.059L91.296,66.059L91.296,66.059L91.296,66.059z M94.136,73.675h-5.809v-2.647l0,0
		c-0.022-1.075,1.635-1.677,2.904-1.677c1.27,0,2.926,0.602,2.904,1.677l0,0V73.675L94.136,73.675L94.136,73.675z"/>
	<path fill-rule="evenodd" clip-rule="evenodd" fill="#E20613" d="M157.651,89.772v1.441h0.525l0,0c0.577,0,0.96-0.029,1.149-0.087
		c0.137-0.039,0.249-0.12,0.338-0.244c0.089-0.122,0.134-0.252,0.134-0.385c0-0.198-0.076-0.37-0.226-0.513
		c-0.15-0.143-0.527-0.213-1.135-0.213l0,0H157.651L157.651,89.772L157.651,89.772L157.651,89.772z M157.115,89.332h1.609l0,0
		c0.581,0,0.999,0.107,1.253,0.32c0.251,0.213,0.379,0.479,0.379,0.797c0,0.336-0.133,0.619-0.396,0.846
		c-0.193,0.163-0.472,0.271-0.841,0.326c0.167,0.079,0.283,0.149,0.352,0.211c0.068,0.061,0.177,0.19,0.32,0.391
		c0.145,0.197,0.256,0.364,0.331,0.498l0,0l0.422,0.754h-0.66l-0.401-0.685l0,0c-0.308-0.53-0.543-0.849-0.701-0.953
		c-0.161-0.104-0.424-0.157-0.79-0.157l0,0h-0.341v1.795h-0.536V89.332L157.115,89.332L157.115,89.332L157.115,89.332z
		 M161.96,91.54c0-0.944-0.333-1.751-1.001-2.419c-0.666-0.668-1.474-1.003-2.42-1.003c-0.944,0-1.749,0.335-2.415,1.003
		s-1.001,1.475-1.001,2.419c0,0.941,0.335,1.748,1.001,2.416c0.666,0.67,1.471,1.003,2.415,1.003c0.946,0,1.754-0.333,2.42-1.003
		C161.627,93.288,161.96,92.481,161.96,91.54L161.96,91.54L161.96,91.54L161.96,91.54L161.96,91.54z M162.388,91.54
		c0,1.062-0.374,1.968-1.125,2.72c-0.75,0.753-1.656,1.128-2.719,1.128c-1.062,0-1.969-0.375-2.722-1.128
		c-0.751-0.752-1.127-1.658-1.127-2.72c0-1.064,0.376-1.971,1.127-2.723c0.753-0.751,1.66-1.126,2.722-1.126
		c1.062,0,1.969,0.375,2.719,1.126C162.014,89.569,162.388,90.476,162.388,91.54L162.388,91.54L162.388,91.54L162.388,91.54
		L162.388,91.54z"/>
</g>
</svg>
