<?xml version="1.0" encoding="utf-8"?>
<!-- Generator: Adobe Illustrator 16.0.0, SVG Export Plug-In . SVG Version: 6.00 Build 0)  -->
<!DOCTYPE svg PUBLIC "-//W3C//DTD SVG 1.1//EN" "http://www.w3.org/Graphics/SVG/1.1/DTD/svg11.dtd">
<svg version="1.1" id="Layer_1" xmlns="http://www.w3.org/2000/svg" xmlns:xlink="http://www.w3.org/1999/xlink" x="0px" y="0px"
	 width="192.756px" height="192.756px" viewBox="0 0 192.756 192.756" enable-background="new 0 0 192.756 192.756"
	 xml:space="preserve">
<g>
	<polygon fill-rule="evenodd" clip-rule="evenodd" fill="#FFFFFF" points="0,0 192.756,0 192.756,192.756 0,192.756 0,0 	"/>
	<path fill-rule="evenodd" clip-rule="evenodd" fill="#FFFFFF" d="M109.797,57.078c0-7.502,6.109-13.612,13.611-13.612h14.85V66.59
		c5.26-3.635,11.678-5.801,18.793-5.801c18.871,0,32.871,15.159,32.871,33.411v49.42H2.834V45.399l32.097,0.078
		c15.777,0,29.08,8.739,35.654,21.578c5.182-2.861,11.214-4.563,17.557-4.563c8.121,0,15.622,2.707,21.655,7.193V57.078
		L109.797,57.078z"/>
	<polygon fill-rule="evenodd" clip-rule="evenodd" fill="#00539F" points="8.48,126.375 180.949,126.375 180.949,138.439 
		8.48,138.439 8.48,126.375 	"/>
	<path fill-rule="evenodd" clip-rule="evenodd" fill="#00539F" d="M177.469,119.723c0-1.393,1.16-2.396,2.477-2.396
		c1.314,0,2.396,1.004,2.396,2.396s-1.082,2.398-2.396,2.398C178.629,122.121,177.469,121.115,177.469,119.723L177.469,119.723z
		 M179.945,121.734c1.082,0,1.934-0.852,1.934-2.012s-0.852-2.01-1.934-2.01c-1.084,0-2.012,0.85-2.012,2.01
		S178.861,121.734,179.945,121.734L179.945,121.734z M179.402,121.115h-0.387v-2.785h1.084c0.617,0,0.928,0.232,0.928,0.775
		c0,0.541-0.311,0.771-0.695,0.771l0.771,1.238h-0.463l-0.695-1.16h-0.543V121.115L179.402,121.115z M179.945,119.568
		c0.309,0,0.695,0,0.695-0.463c0-0.311-0.387-0.389-0.619-0.389h-0.619v0.852H179.945L179.945,119.568z"/>
	<path fill-rule="evenodd" clip-rule="evenodd" fill="#ED1C24" d="M183.734,94.975c0-15.236-11.447-27.534-26.914-27.534
		c-11.293,0-20.418,6.497-24.596,15.933v-33.18h-8.971c-4.254,0-7.734,3.403-7.734,7.657v28.925
		c-4.795-10.441-15.391-17.633-27.61-17.633c-7.812,0-14.927,2.939-20.263,7.734c-4.021-14.308-17.015-24.749-32.947-24.749H8.48
		v68.523h26.218c9.823,0,18.485-3.943,24.672-10.363c4.331,11.602,15.468,19.799,28.539,19.799c12.298,0,22.894-7.27,27.765-17.787
		l-0.076,8.352h8.971c4.254,0,7.656-3.479,7.656-7.732v-6.498c4.254,9.514,13.689,16.088,24.596,16.088
		c10.826,0,20.262-6.574,24.516-16.088h-17.324c-1.393,1.393-4.641,2.244-7.115,2.244c-5.568,0-10.596-3.635-12.219-8.895h38.67
		C183.656,98.223,183.734,96.598,183.734,94.975L183.734,94.975z M34.699,103.945h-9.745V68.833h9.745
		c9.9,0,17.557,7.811,17.557,17.556C52.255,96.057,44.599,103.945,34.699,103.945L34.699,103.945z M87.368,108.354
		c-5.182,0-9.358-4.176-9.358-9.357c0-5.182,4.176-9.358,9.358-9.358s9.358,4.176,9.358,9.358
		C96.726,104.178,92.549,108.354,87.368,108.354L87.368,108.354z M145.684,88.246c1.777-3.79,6.186-6.729,11.213-6.729
		s9.436,2.939,11.215,6.729H145.684L145.684,88.246z"/>
	<path fill-rule="evenodd" clip-rule="evenodd" fill="#FFF200" d="M138.49,92.422l-25.367,3.48
		c-3.791,0.542-8.973-0.077-11.602-0.387c1.855-1.856,5.723-5.491,9.125-7.425L115,85.704c-0.234-0.46-0.479-0.912-0.736-1.357
		l-4.389,2.43c-3.326,1.856-8.354,3.249-10.906,3.867c1.082-2.397,3.402-7.115,5.879-10.132l3.176-3.792
		c-0.389-0.342-0.787-0.675-1.193-0.997l-3.221,3.861c-2.398,2.939-6.574,6.188-8.739,7.657c0.077-2.629,0.542-7.966,1.779-11.601
		l1.511-4.73c-0.483-0.172-0.97-0.333-1.464-0.482l-1.517,4.748c-1.237,3.713-3.944,8.199-5.336,10.364
		c-0.851-2.397-2.475-7.657-2.63-11.601l-0.327-4.777c-0.497,0.017-0.991,0.045-1.481,0.084l0.262,4.848
		c0.232,3.867-0.619,9.281-1.16,11.756c-1.702-1.934-4.95-6.265-6.574-9.899l-1.929-4.391c-0.487,0.207-0.968,0.427-1.441,0.658
		l1.978,4.352c1.624,3.558,2.784,8.816,3.17,11.446c-2.243-1.392-6.729-4.409-9.358-7.115L51.095,60.712
		c-0.232-0.31-0.773-0.31-1.083,0c-0.309,0.232-0.309,0.773,0,1.083l19.258,20.109c2.629,2.784,5.568,7.502,6.806,9.822
		c-2.629-0.387-7.889-1.547-11.292-3.171l-9.9-4.563c-0.387-0.154-0.851,0-1.005,0.387c-0.232,0.387,0,0.851,0.387,1.005
		l9.822,4.563c3.326,1.547,7.812,4.718,9.899,6.497c-2.707,0.619-7.734,1.392-11.214,1.16l-9.281-0.464
		c-0.464,0-0.773,0.31-0.851,0.772c0,0.389,0.309,0.775,0.773,0.775l9.281,0.463c3.944,0.232,8.739,1.625,11.137,2.475
		c-2.088,1.393-6.729,4.254-10.44,5.492l-18.407,6.109c-0.387,0.078-0.619,0.541-0.464,0.928c0.154,0.387,0.541,0.619,0.928,0.541
		l18.407-6.109c3.712-1.236,9.126-1.779,11.678-1.855c-1.392,2.088-4.641,6.342-7.657,8.895l-3.66,3.154
		c0.324,0.4,0.658,0.793,1.001,1.178l3.664-3.096c2.939-2.553,7.734-5.182,10.055-6.188c-0.542,2.475-2.088,7.656-3.944,11.137
		l-2.297,4.219c0.452,0.262,0.911,0.51,1.377,0.748l2.312-4.27c1.856-3.402,5.414-7.502,7.192-9.359
		c0.387,2.553,0.696,7.891,0.232,11.834l-0.654,4.736c0.499,0.078,1.001,0.143,1.507,0.197l0.694-4.779
		c0.464-3.557,2.088-8.738,3.171-11.291c1.315,2.396,3.48,7.348,4.331,10.828l1.188,4.797c0.504-0.104,1.002-0.221,1.498-0.348
		l-1.215-4.836c-0.851-3.713-1.083-8.818-1.005-11.525c2.011,1.703,5.8,5.26,8.044,8.354l2.961,4.182
		c0.422-0.271,0.838-0.551,1.246-0.84l-2.971-4.193c-2.088-3.016-4.021-7.732-4.95-10.285c2.553,0.852,7.348,2.629,10.442,4.641
		l2.707,1.855c0.387,0.232,0.85,0.154,1.082-0.154c0.232-0.387,0.154-0.852-0.154-1.082l-2.785-1.857
		c-3.016-2.01-6.418-5.49-8.275-7.578c2.707-0.156,7.812-0.078,11.447,0.773l11.678,2.707c0.387,0.076,0.773-0.156,0.928-0.619
		c0.078-0.387-0.154-0.773-0.617-0.928l-11.68-2.707c-3.48-0.773-7.965-2.863-10.363-4.1c2.32-1.006,7.348-3.018,11.215-3.48
		l25.445-3.48c0.387-0.077,0.695-0.464,0.617-0.851C139.34,92.654,138.953,92.345,138.49,92.422L138.49,92.422z M115.52,85.418
		l11.061-6.067c0.309-0.232,0.463-0.696,0.232-1.083c-0.156-0.387-0.619-0.464-1.006-0.309l-10.287,5.692V85.418L115.52,85.418z
		 M115.52,67.768l4.873-5.818c0.232-0.31,0.154-0.851-0.154-1.083c-0.311-0.31-0.773-0.232-1.084,0.077l-3.635,4.359V67.768
		L115.52,67.768z M87.368,108.354c-5.182,0-9.358-4.176-9.358-9.357c0-5.182,4.176-9.358,9.358-9.358s9.358,4.176,9.358,9.358
		C96.726,104.178,92.549,108.354,87.368,108.354L87.368,108.354z"/>
	<path fill-rule="evenodd" clip-rule="evenodd" fill="#FFF200" d="M72.509,126.375l-5.095,9.357c-0.155,0.387,0,0.852,0.31,1.084
		c0.386,0.154,0.851,0,1.083-0.311l5.486-10.131H72.509L72.509,126.375z M83.618,126.375l-1.122,8.121
		c-0.078,0.463,0.232,0.85,0.619,0.928c0.464,0,0.851-0.311,0.851-0.697l1.212-8.352H83.618L83.618,126.375z M93.28,126.375
		l2.986,12.064h1.618l-3.031-12.064H93.28L93.28,126.375z M105.092,126.375l2.85,4.021c0.23,0.387,0.695,0.463,1.004,0.232
		c0.387-0.232,0.465-0.773,0.232-1.084l-2.246-3.17H105.092L105.092,126.375z"/>
</g>
</svg>
