<?xml version="1.0" encoding="utf-8"?>
<!-- Generator: Adobe Illustrator 16.0.0, SVG Export Plug-In . SVG Version: 6.00 Build 0)  -->
<!DOCTYPE svg PUBLIC "-//W3C//DTD SVG 1.1//EN" "http://www.w3.org/Graphics/SVG/1.1/DTD/svg11.dtd">
<svg version="1.1" id="Layer_1" xmlns="http://www.w3.org/2000/svg" xmlns:xlink="http://www.w3.org/1999/xlink" x="0px" y="0px"
	 width="218.537px" height="107.214px" viewBox="0 0 218.537 107.214" enable-background="new 0 0 218.537 107.214"
	 xml:space="preserve">
<g>
	<g>
		<path fill="#1D1D1B" d="M191.181,33.489c1.584-2.016,3.816-3.312,6.192-3.312l21.024-0.072l-3.457,13.607
			c-2.016-1.296-6.912-2.952-9.576-2.592c0.145,0,0.793,0.072,0.937,0.144c5.112,2.232,9,5.616,8.856,11.592
			c-0.145,10.224-7.416,13.032-13.104,14.327l7.704,1.225c1.801,0.288,2.16,0.72,1.368,2.448l-4.608,11.159
			c-0.936,2.232-1.584,2.593-3.6,2.017c-4.032-1.224-7.92-2.231-11.736-3.097V54.873c1.44-0.072,2.881-0.216,4.32-0.36
			c-1.368-0.432-2.952-1.224-4.32-2.304V33.489z M152.877,23.769c1.728-0.144,3.456-0.216,5.185-0.288l-2.017,6.696h6.769
			l-0.145,2.448c2.016-1.512,4.607-2.448,7.488-2.448h9.216c0.72,0,1.512,0.144,2.304,0.36l0,0c1.872,0.576,3.744,1.872,5.256,3.528
			c1.297,1.584,2.232,2.304,4.032-0.216c0.072-0.072,0.144-0.216,0.216-0.36v18.72c-1.367-1.08-2.592-2.376-3.096-3.744
			l-1.152,6.408c1.297,0.072,2.736,0.072,4.248,0v26.063c-13.752-3.096-26.063-4.031-38.304-3.023v-23.04l3.672-12.6l-3.672,0.072
			V23.769z M136.246,18.081l4.824,5.04c0.504,0.504,0.647,1.224,0.576,1.872c0.432-0.36,0.863-0.576,1.295-0.576
			c3.312-0.144,6.625-0.432,9.937-0.648v18.576h-0.071l-3.529,12.672h3.601v-0.144v23.04c-3.312,0.216-6.624,0.648-10.008,1.152
			c-2.232,0.359-4.392,0.792-6.624,1.224V66.321c1.224-0.216,2.376-0.36,3.6-0.576c-1.367,0-2.592-0.359-3.6-1.08V30.177h3.384
			l0.937-3.384l-4.32,1.656V18.081z M126.166,16.785l1.152-4.032c0.647-2.231,1.656-2.304,2.879-1.008l6.049,6.336v10.368
			l-4.32,1.728h4.32v34.488c-3.312-2.232-4.608-7.416-3.889-11.52l-4.176,13.32c-0.287,0-1.008,0-2.016,0V16.785L126.166,16.785z
			 M136.246,80.289V66.321c-3.456,0.504-6.768,1.152-10.08,1.8V82.81C129.622,81.802,132.933,81.009,136.246,80.289z
			 M114.861,14.337c5.041,1.729,8.064,3.312,7.92,4.536c-0.144,1.152-4.607,5.976-7.92,10.44V14.337L114.861,14.337z
			 M114.861,30.465v15.192c0.793-0.072,1.584,0.072,2.449,0.216c-0.793,2.88-1.584,5.832-2.449,8.784v11.592
			c1.225,0.072,7.849,0.145,11.305,0.216v-49.68l-3.816,13.248C120.333,30.105,117.814,30.249,114.861,30.465L114.861,30.465z
			 M126.166,82.81c-3.672,1.008-7.416,2.16-11.305,3.527V70.785c3.889-1.008,7.633-1.872,11.305-2.664V82.81z M112.125,13.473
			c1.008,0.288,1.872,0.576,2.735,0.864v14.977c-0.287,0.359-0.504,0.792-0.791,1.151c0.287,0,0.576,0,0.791,0v15.192
			c-1.008,0.072-2.016,0.36-2.735,1.08V13.473L112.125,13.473z M114.861,86.337c-0.863,0.36-1.799,0.648-2.735,1.008V62.577
			c0.288,0.072,0.504,0.145,0.504,0.145c0.792-2.664,1.513-5.4,2.231-8.064v11.592c-0.071,0-0.144,0-0.144,0
			c-0.288,1.44-1.296,3.168-2.231,5.184c0.791-0.215,1.584-0.432,2.375-0.647V86.337z M0.31,1.953
			c3.24-3.456,35.424-1.584,62.568,1.728c17.568,2.16,37.368,6.12,49.248,9.792v33.264c-0.504,0.504-0.937,1.224-1.151,2.232
			l-4.033,11.879c0.288,0.072,3.816,1.297,5.184,1.729v24.768c-10.224,3.672-21.168,8.424-33.336,14.256
			c-2.52,1.152-4.824,1.584-6.048,1.44c-6.48-0.936-4.32-6.912-2.88-11.376c-4.896,3.168-26.712,19.225-29.52,14.616
			C28.75,87.777,2.757,19.305,0.31,4.689V1.953L0.31,1.953z"/>
		<path fill="none" stroke="#000000" stroke-width="0.216" stroke-miterlimit="10" d="M0.31,1.953
			c3.24-3.456,35.424-1.584,62.568,1.728c27.504,3.312,60.336,11.232,59.903,15.192c-0.144,1.224-5.471,6.84-8.711,11.592
			c3.312-0.144,6.119-0.359,8.279-0.432l4.969-17.28c0.647-2.231,1.656-2.304,2.879-1.008l10.873,11.376
			c0.504,0.504,0.647,1.224,0.576,1.872c0.432-0.36,0.863-0.576,1.295-0.576c5.041-0.288,10.08-0.792,15.121-0.936l-2.017,6.696
			h6.769l-0.145,2.448c2.016-1.512,4.607-2.448,7.488-2.448h9.216c0.72,0,1.512,0.144,2.304,0.36l0,0
			c1.872,0.576,3.744,1.872,5.256,3.528c1.297,1.584,2.232,2.304,4.032-0.216c1.584-2.232,3.888-3.672,6.408-3.672l21.024-0.072
			l-3.457,13.607c-2.016-1.296-6.912-2.952-9.576-2.592c0.145,0,0.793,0.072,0.937,0.144c5.112,2.232,9,5.616,8.856,11.592
			c-0.145,10.224-7.416,13.032-13.104,14.327l7.704,1.225c1.801,0.288,2.16,0.72,1.368,2.448l-4.608,11.159
			c-0.936,2.232-1.584,2.593-3.6,2.017c-22.752-6.696-40.969-7.992-60.048-4.968c-19.152,3.096-38.88,10.512-64.08,22.535
			c-2.52,1.152-4.824,1.584-6.048,1.44c-6.48-0.936-4.32-6.912-2.88-11.376c-4.896,3.168-26.712,19.225-29.52,14.616
			C27.598,85.905-2.643,5.049,0.31,1.953L0.31,1.953z M106.941,60.849c0.36,0.072,5.617,1.873,5.688,1.873
			c1.584-5.616,3.097-11.232,4.681-16.849c-2.809-0.504-5.473-0.36-6.336,3.096L106.941,60.849L106.941,60.849z M114.717,66.249
			c-0.288,1.44-1.296,3.168-2.231,5.184c9.576-2.592,17.855-4.319,27.359-5.688c-5.832,0-8.496-7.2-7.488-12.6l-4.176,13.32
			C126.669,66.465,114.501,66.321,114.717,66.249L114.717,66.249z M140.566,26.793l-8.641,3.384h7.704L140.566,26.793
			L140.566,26.793z M186.933,54.873c2.521,0.144,5.688-0.072,8.568-0.36c-2.736-0.864-6.408-3.312-7.416-6.048L186.933,54.873
			L186.933,54.873z M156.549,42.273l-3.743,0.072l-3.529,12.672h3.601L156.549,42.273z"/>
	</g>
	<polygon fill="#FFF7B2" points="129.118,13.617 139.341,24.561 124.726,30.105 	"/>
	<path fill="#008BD2" d="M58.773,7.353c1.08,0.144,2.088,0.216,3.168,0.36c27.216,3.24,57.312,10.008,55.08,12.601
		c-14.255,16.632-34.919,39.744-52.416,59.615c11.448-5.76,21.672-11.808,31.968-14.688c10.584-3.023,16.128,0.288,12.817,4.32
		c-4.177,4.968-8.641,8.855-15.121,13.68c54.648-25.561,93.6-13.464,113.328-12.528l-3.455,9
		c-46.729-11.304-75.601-5.399-126.361,18.433c-12.744,5.976-0.36-11.16,10.584-21.601c-8.568,4.464-20.16,12.384-29.592,18.216
		V70.857c11.16-12.816,22.248-28.08,33.12-45.864c-5.4-3.888-19.152-7.632-33.12-9.576V7.353z M7.582,7.353
		c-0.504-3.096,25.776-2.808,51.192,0v8.064c-13.248-1.872-26.64-2.088-33.12,0.648c-0.288,16.2,8.64,46.512,19.008,69.552
		c4.752-4.464,9.432-9.433,14.112-14.76v23.903c-8.352,5.112-14.904,8.568-16.2,6.553C25.293,73.017,13.629,45.513,7.582,7.353z"/>
	<path fill="#E30613" d="M185.853,63.802h18.576c3.024,0,11.736-7.849,6.768-15.265c-2.447-3.6-5.976-3.96-9.144-5.976
		c-5.112-3.096,7.416-4.392,10.872-1.224l1.656-7.92h-16.848c-5.616,0-10.008,12.096-5.256,15.696
		c2.735,2.16,5.832,2.304,8.352,4.752c5.04,5.112-6.84,4.032-14.977,3.888v0.072V63.802L185.853,63.802z M185.853,47.529V36.945
		c1.297,1.728,1.944,4.032,1.225,6.552L185.853,47.529z M184.341,63.802h1.512v-5.977L184.341,63.802L184.341,63.802z
		 M185.853,36.945v10.584l-2.735,9.288c-1.224,4.031-4.681,6.984-9,6.984h-2.448v-6.337c0.432-0.359,0.792-0.864,1.008-1.584
		l4.032-14.04c0.864-2.88-3.24-3.384-5.04-1.368v-7.056h8.064C181.822,33.417,184.341,34.785,185.853,36.945z M171.669,33.417v7.056
		c-0.216,0.288-0.432,0.648-0.576,1.08l-4.464,13.896c-0.647,1.8,3.097,3.6,5.04,2.016v6.337h-9.359
		c-2.017,0-3.529-0.937-4.465-2.377V50.697l2.881-10.296c1.08-3.744,5.039-6.984,9.791-6.984H171.669L171.669,33.417z
		 M157.845,38.241l1.297-4.824h-1.297V38.241z M157.845,33.417v4.824l-0.287,1.008h-7.272l-3.744,13.752
		c-0.792,2.808-1.151,4.896,0.647,4.896l5.545,0.072l-1.44,5.832c-3.312,0-6.552,0-9.864,0c-4.104-1.297-6.552-3.889-5.615-9.073
		l4.68-15.408l-4.536-0.072l1.8-5.832h4.104l1.584-5.688c3.744-0.144,7.345-0.144,10.513-0.648l-1.872,6.336H157.845L157.845,33.417
		z M157.845,50.697l-1.008,3.384c-0.648,2.376-0.359,5.328,1.008,7.344V50.697L157.845,50.697z M117.814,63.802v-8.353l6.479-22.032
		h10.584l-8.64,30.385H117.814L117.814,63.802z M117.814,42.777c0.144,0.072,0.287,0.072,0.432,0.144l2.016-9.504
		c-0.936,0-1.728,0-2.447,0.072V42.777z M117.814,33.489v9.288c-5.832-1.584-9.145,0.216-10.657,6.192l-3.816,14.833h-9.864v-2.881
		l6.192-21.456c0.72-2.592,0.864-4.536,0.072-6.048h10.657l-0.289,3.456C112.629,34.137,114.861,33.561,117.814,33.489
		L117.814,33.489z M117.814,55.449l-2.449,8.353h2.449V55.449L117.814,55.449z M93.478,45.225l0.504-1.728
		c0.648-2.016,0.288-3.888-0.504-5.472V45.225z M93.478,38.025v7.2l-3.456,11.592c-1.152,4.031-4.68,6.984-8.928,6.984h-2.448
		v-6.337c0.432-0.359,0.792-0.864,0.936-1.584l4.104-14.04c0.792-2.88-3.312-3.384-5.04-1.368v-7.056h8.064
		C89.157,33.417,92.109,35.289,93.478,38.025L93.478,38.025z M93.478,60.921l-0.792,2.881h0.792V60.921z M78.646,33.417v7.056
		c-0.288,0.288-0.504,0.648-0.576,1.08l-4.536,13.896c-0.576,1.8,3.168,3.6,5.112,2.016v6.337h-9.36
		c-2.664,0-4.32-1.584-5.184-3.673v-7.056l3.6-12.672c1.008-3.744,4.968-6.984,9.792-6.984H78.646L78.646,33.417z M64.102,36.009
		c0.936-3.384,0.792-6.12,0-8.136V36.009z M64.102,27.873v8.136c0,0-0.072,0-0.072,0.072l-4.824,17.208
		c-2.304,8.063-5.688,10.513-9.144,10.513h-3.24v-6.984c0.72-0.72,1.224-1.8,1.584-3.024l5.256-18.72
		c0.792-2.88,0.432-4.752-0.864-4.752h-5.4l-0.576,2.088v-9.072h9.936C60.142,23.337,62.877,24.921,64.102,27.873L64.102,27.873z
		 M64.102,53.073l-0.288,1.008c-0.576,1.944-0.504,4.176,0.288,6.048V53.073z M46.821,23.337v9.072l-7.272,25.2h5.4
		c0.72,0,1.296-0.288,1.872-0.792v6.984H27.093l10.44-36.289c0.432-1.512,0.288-2.88,0-4.176H46.821z"/>
	<path fill="#FFFFFF" d="M185.494,62.577h18.504c3.096,0,11.736-7.848,6.84-15.192c-2.447-3.672-5.977-4.032-9.216-5.976
		c-5.04-3.168,7.416-4.464,10.872-1.296l1.728-7.848h-16.848c-5.688,0-10.009,12.024-5.328,15.624
		c2.808,2.16,5.903,2.304,8.353,4.824c5.111,5.04-6.84,4.032-14.904,3.888v0.072V62.577L185.494,62.577z M185.494,46.377V35.721
		c1.296,1.8,1.943,4.104,1.152,6.552L185.494,46.377z M183.982,62.577h1.512v-5.904L183.982,62.577L183.982,62.577z M185.494,35.721
		v10.656l-2.809,9.216c-1.224,4.104-4.68,6.984-8.928,6.984h-2.447v-6.336c0.432-0.36,0.791-0.864,0.936-1.512l4.031-14.04
		c0.865-2.952-3.239-3.384-4.967-1.44v-6.984h8.063C181.461,32.265,183.91,33.633,185.494,35.721z M171.31,32.265v6.984
		c-0.289,0.36-0.504,0.648-0.576,1.08l-4.537,13.896c-0.575,1.872,3.097,3.672,5.113,2.016v6.336h-9.361
		c-2.088,0-3.6-0.936-4.535-2.376V49.473l2.88-10.224c1.08-3.744,5.04-6.984,9.864-6.984H171.31L171.31,32.265z M157.414,37.089
		l1.296-4.824h-1.296V37.089z M157.414,32.265v4.824l-0.288,0.937l-7.2,0.072l-3.816,13.68c-0.791,2.88-1.151,4.896,0.648,4.968
		l5.616,0.072l-1.44,5.76c-3.312,0-6.623,0-9.936,0c-4.032-1.296-6.553-3.816-5.544-9l4.68-15.48l-4.608-0.072l1.801-5.76h4.104
		l1.584-5.688c3.816-0.216,7.344-0.144,10.584-0.648l-1.871,6.336H157.414L157.414,32.265z M157.414,49.473l-0.936,3.384
		c-0.721,2.448-0.433,5.327,0.936,7.344V49.473L157.414,49.473z M117.381,62.577v-8.28l6.479-22.032h10.584l-8.567,30.312H117.381
		L117.381,62.577z M117.381,41.625c0.144,0,0.288,0.072,0.504,0.144l1.944-9.504c-0.864,0-1.656,0-2.448,0V41.625z M117.381,32.265
		v9.36c-5.832-1.656-9.072,0.216-10.656,6.192l-3.816,14.76h-9.792v-2.88l6.12-21.456c0.792-2.52,0.864-4.536,0.144-5.976h10.584
		l-0.216,3.384C112.269,32.985,114.429,32.409,117.381,32.265L117.381,32.265z M117.381,54.297l-2.448,8.28h2.448V54.297
		L117.381,54.297z M93.118,44.001l0.504-1.728c0.576-1.944,0.288-3.816-0.504-5.4V44.001z M93.118,36.873v7.128l-3.456,11.592
		c-1.224,4.104-4.68,6.984-9,6.984h-2.448v-6.336c0.432-0.36,0.792-0.864,1.008-1.512l4.032-14.04c0.864-2.952-3.24-3.384-5.04-1.44
		v-6.984h8.064C88.726,32.265,91.677,34.065,93.118,36.873L93.118,36.873z M93.118,59.697l-0.864,2.88h0.864V59.697z M78.213,32.265
		v6.984c-0.216,0.36-0.432,0.648-0.576,1.08l-4.464,13.896c-0.648,1.872,3.096,3.672,5.04,2.016v6.336h-9.36
		c-2.592,0-4.32-1.512-5.184-3.6v-7.128l3.6-12.6c1.08-3.744,5.04-6.984,9.792-6.984H78.213L78.213,32.265z M63.669,34.785
		c0.936-3.312,0.864-6.048,0-8.136V34.785z M63.669,26.649v8.136c0,0.072,0,0.072,0,0.072l-4.896,17.28
		c-2.232,8.064-5.616,10.44-9.072,10.44H46.39v-6.984c0.72-0.648,1.296-1.728,1.656-2.952l5.184-18.792
		c0.792-2.808,0.432-4.752-0.792-4.752h-5.4l-0.648,2.16v-9.144h9.936C59.781,22.113,62.518,23.697,63.669,26.649L63.669,26.649z
		 M63.669,51.849l-0.288,1.008c-0.576,1.944-0.432,4.248,0.288,6.12V51.849z M46.39,22.113v9.144l-7.272,25.129h5.4
		c0.72,0,1.368-0.289,1.872-0.792v6.984H26.662l10.512-36.216c0.432-1.512,0.288-2.952,0-4.248H46.39z"/>
</g>
</svg>
