<?xml version="1.0" encoding="utf-8"?>
<!-- Generator: Adobe Illustrator 16.0.0, SVG Export Plug-In . SVG Version: 6.00 Build 0)  -->
<!DOCTYPE svg PUBLIC "-//W3C//DTD SVG 1.1//EN" "http://www.w3.org/Graphics/SVG/1.1/DTD/svg11.dtd">
<svg version="1.1" id="Layer_1" xmlns="http://www.w3.org/2000/svg" xmlns:xlink="http://www.w3.org/1999/xlink" x="0px" y="0px"
	 width="175.748px" height="112.283px" viewBox="0 0 175.748 112.283" enable-background="new 0 0 175.748 112.283"
	 xml:space="preserve">
<g>
	<path fill-rule="evenodd" clip-rule="evenodd" fill="#B99959" d="M87.874,112.283c48.532,0,87.874-25.135,87.874-56.143
		C175.748,25.135,136.406,0,87.874,0C39.344,0,0,25.135,0,56.141C0,87.148,39.344,112.283,87.874,112.283L87.874,112.283z"/>
	<path fill="none" stroke="#FFFFFF" stroke-width="0.6888" stroke-miterlimit="2.6131" d="M87.874,107.396
		c45.831,0,82.985-22.948,82.985-51.256c0-28.307-37.154-51.254-82.985-51.254c-45.829,0-82.983,22.947-82.983,51.254
		C4.891,84.448,42.045,107.396,87.874,107.396L87.874,107.396z"/>
	<path fill-rule="evenodd" clip-rule="evenodd" fill="#FFFFFF" d="M87.874,104.961c44.487,0,80.552-21.857,80.552-48.82
		c0-26.961-36.064-48.818-80.552-48.818c-44.486,0-80.551,21.857-80.551,48.818C7.323,83.104,43.388,104.961,87.874,104.961
		L87.874,104.961z"/>
	<path fill="none" stroke="#EC1C24" stroke-width="0.6888" stroke-miterlimit="2.6131" d="M87.874,104.226
		c43.817,0,79.341-21.528,79.341-48.085c0-26.555-35.523-48.084-79.341-48.084c-43.817,0-79.339,21.529-79.339,48.084
		C8.535,82.697,44.057,104.226,87.874,104.226L87.874,104.226z"/>
	<path fill-rule="evenodd" clip-rule="evenodd" fill="#B99959" d="M133.87,32.145c1.149-0.971,2.417-1.912,4.391-2.061
		c11.188-0.837,12.517,19.523,2.765,21.742C130.785,54.152,127.521,37.492,133.87,32.145L133.87,32.145L133.87,32.145z
		 M133.111,51.771c1.861,1.033,4.739,1.991,7.861,1.409c3.94-0.736,6.766-2.862,8.621-5.692c3.673-5.609,1.262-12.896-2.821-16.049
		c-2.052-1.584-4.564-3.052-8.458-2.766c-2.479,0.182-4.502,1.159-6.071,2.277C124.806,36.238,125.091,47.327,133.111,51.771
		L133.111,51.771z"/>
	<path fill-rule="evenodd" clip-rule="evenodd" fill="#B99959" d="M95.591,32.145c0.11,1.51,0.05,3.291-0.054,4.717
		c-0.176,2.318,0,4.721,0,7.049c0,1.271,0.054,4.23,0.054,4.23s0.664,0.683,0.922,0.975c1.112,1.259,3.99,3.387,5.884,3.741
		c0.765,0.142,1.243,0.048,2.031,0.107c1.103,0.083,2.668,0.181,3.578-0.162c1.141-0.431,1.676-2.401,1.842-3.71
		c0.034-0.326,0.232-0.606-0.323-0.627c-0.233,0.326-0.442,0.72-0.704,1.029c-0.762,0.895-1.972,1.473-3.414,1.682
		c-0.998,0.142-2.676,0.131-4.033,0.14c-1.186,0.011-1.65-0.264-2.044-0.655c-0.962-0.959-0.608-6.983-0.431-9.462
		c3.262-0.363,6.11-0.983,8.295-2.386c0.412-0.265,0.906-0.342,0.596-0.758c-0.354-0.102-1.51,0.404-2.275,0.542
		c-1.063,0.187-1.81,0.3-2.982,0.353c-1.313,0.055-2.351-0.027-3.633-0.027c0-1.6-0.126-3.168,0-4.825
		c0.081-1.104-0.007-2.742,0.542-3.416c0.449-0.554,1.947-0.55,3.2-0.384c0.891,0.119,1.592,0.305,2.005,0.492
		c0.445,0.199,0.868,0.525,1.137,0.921c0.339,0.497,0.488,1.158,0.598,1.897c0.147-0.011,0.256,0.207,0.487-0.053
		c0.219-1.487,0.431-2.971,0.598-4.446c-0.302-0.104-0.772-0.181-1.247-0.109c-4.346,0.64-8.064,0.271-12.363,0.271
		c-0.021,0.092-0.231,0.28,0.028,0.435C95.059,30.257,95.468,30.526,95.591,32.145L95.591,32.145z"/>
	<path fill-rule="evenodd" clip-rule="evenodd" fill="#B99959" d="M43.485,29.812c0.608,0.141,1.188,0.814,1.355,1.41
		c0.275,0.988,0.109,2.464,0.109,3.633c0,3.543-0.264,7.203,0,10.735c0.139,1.868,0.25,4.038-0.109,5.747
		c-0.126,0.6-0.554,0.98-1.193,1.084c-0.674,0.109-0.809,0.025-0.867,0.759c1.56,0.149,2.714-0.099,5.259-0.161
		c2.707-0.071,5.271,0.246,7.862,0.054c0.54-0.04,0.955,0.011,1.411-0.136c1.451-0.471,1.818-2.568,2.168-4.148
		c-0.187-0.131-0.226-0.119-0.489-0.217c-0.242,0.395-0.471,0.787-0.759,1.139c-0.764,0.927-1.772,1.457-3.199,1.734
		c-1.371,0.266-4.605,0.301-5.639-0.27c-1.23-0.682-1.139-2.656-1.139-4.555l-0.055-1.41c0.1-1.26,0.109-2.469,0.109-3.795
		c1.555-0.359,3.293-0.523,4.771-0.977c1.614-0.496,3.003-1.28,4.337-2.059c-0.436-0.375-0.344-0.247-0.92-0.056
		c-1.32,0.433-2.954,0.507-4.555,0.65c-1.066,0.095-2.509,0.119-3.579,0c-0.133-1.666-0.187-3.724-0.054-5.476
		c0.061-0.838,0.025-2.068,0.433-2.604c0.685-0.898,4.029-0.406,5.097-0.107c0.509,0.143,1.078,0.515,1.355,0.921
		c0.362,0.532,0.501,1.046,0.596,1.897c0.133,0.057,0.207,0.094,0.434,0.163c0.544-1.245,0.505-3.096,0.65-4.608
		c-0.189-0.051-0.275-0.09-0.568-0.054c-0.91,0.11-2.36,0.271-4.148,0.271c0-0.017,0-0.035,0-0.054
		c-3.053,0.114-5.906-0.055-9.109-0.055c0,0,0.048,0.511,0.108,0.542C43.247,29.857,43.389,29.791,43.485,29.812L43.485,29.812z"/>
	<path fill-rule="evenodd" clip-rule="evenodd" fill="#B99959" d="M114.242,36.59c0.007,0.07,0.051-0.15,0.053-0.162
		c0,0-0.061-0.277-0.053-0.38c0.101-1.343-0.065-4.451,0.488-5.367c0.34-0.569,1.256-0.718,2.168-0.706
		c1.805,0.023,3.056,0.857,3.834,2.217c0.984,1.715,1.15,4.164,0.007,5.771c-0.855,1.205-2.448,1.986-4.709,1.935
		c-0.531-0.013-1.139-0.021-1.814-0.162c-0.098-0.856,0.049-2.038,0.079-2.819C114.221,36.894,114.242,36.613,114.242,36.59
		L114.242,36.59L114.242,36.59z M110.663,31.113c0.254,1.273,0.058,3.914,0.19,5.669c0.118,1.585,0.026,3.172,0.026,4.851
		c0,2.723,0.107,5.532-0.108,7.971c-0.058,0.63-0.073,1.692-0.379,2.114c-0.312,0.422-0.945,0.599-1.572,0.704
		c0,0.246,0.033,0.473,0.054,0.651c0.82,0.058,2.105-0.109,2.928-0.109c1.406-0.003,3.712,0.276,5.151-0.054
		c-0.013-0.147,0-0.285,0-0.434c-0.857-0.403-2.021-0.364-2.332-1.301c-0.175-0.525-0.202-1.213-0.281-1.812
		c-0.328-2.461-0.153-5.385-0.153-8.139c0.775-0.329,1.862,0.083,2.44,0.463c0.798,0.521,1.343,1.444,1.953,2.168
		c1.397,1.66,2.817,3.35,4.174,5.043c0.791,0.986,1.604,2.154,2.603,2.928c1.001,0.771,2.395,1.342,4.013,1.464
		c1.111,0.083,2.097-0.087,2.982-0.271c0.504-0.621-0.381-0.589-1.005-0.842c-1.404-0.566-2.304-1.535-3.283-2.494
		c-2.147-2.109-3.973-4.148-5.96-6.424c-0.722-0.828-1.961-1.855-2.604-2.82c1.402-0.807,2.972-1.631,4.013-2.927
		c0.871-1.089,1.586-2.671,1.355-4.663c-0.534-4.619-4.948-3.337-9.65-3.688c-0.503-0.039-1.502-0.017-2.089,0.027
		c-1.539,0.111-4.282-0.159-4.472,0.189C108.669,30.091,110.311,29.361,110.663,31.113L110.663,31.113z"/>
	<path fill-rule="evenodd" clip-rule="evenodd" fill="#B99959" d="M81.547,33.229c0.07-0.943-0.034-1.766,0.326-2.385
		c0.263-0.458,0.802-0.701,1.463-0.76c1.532-0.137,2.793,0.248,3.673,1.037c1.743,1.564,2.225,4.605,1.058,6.697
		c-0.723,1.297-2.114,2.146-4.134,2.296c-0.888,0.065-1.776-0.05-2.548-0.108C81.385,37.686,81.389,35.349,81.547,33.229
		L81.547,33.229L81.547,33.229z M77.319,30.355c0.661,0.763,0.63,1.665,0.676,2.929c0.047,1.348-0.037,3.009-0.027,4.226
		c0.017,2.357-0.053,4.413-0.053,6.672c0,1.084,0.053,3.551,0.053,3.551s0.25,0.395,0.332,0.523c0.44,0.692,1.308,1.488,1.784,1.889
		c0.312,0.264,1.056,0.984,1.489,1.004c0.215,0.008-0.078-0.926-0.105-1.135c-0.18-1.338-0.255-2.931-0.281-4.629
		c-0.021-1.434-0.047-3,0.116-4.211c0.632-0.088,1.317,0.09,1.816,0.297c0.693,0.285,1.337,0.763,1.79,1.301
		c1.704,2.023,3.285,4.161,4.987,6.18c1.175,1.396,2.47,3.119,4.283,3.851c1.495,0.604,4.572,0.563,5.156,0.353
		c0.585-0.213,0.284-0.403,0.268-0.568c-0.906-0.339-1.789-0.709-2.495-1.248c-2.619-2.006-5.143-4.801-7.265-7.32
		c-1.006-1.191-2.339-2.304-3.282-3.549c0.739-0.408,1.34-0.705,2.008-1.142c1.574-1.032,3.146-2.597,3.44-4.905
		c0.167-1.319-0.063-2.625-0.595-3.416c-0.445-0.662-1.274-1.227-2.062-1.52c-1.222-0.456-3.563-0.348-5.041-0.271
		c-0.922,0.048-2.021,0.003-2.79,0.026c-1.875,0.055-3.648,0.028-5.614,0.028c-0.028,0.112-0.241,0.302,0.052,0.515
		C76.254,29.996,76.863,29.83,77.319,30.355L77.319,30.355z"/>
	<path fill-rule="evenodd" clip-rule="evenodd" fill="#B99959" d="M64.306,32.199c0.056-0.443-0.048-0.846,0.162-1.303
		c0.176-0.385,0.678-0.706,1.193-0.758c1.568-0.164,3.022,0.228,3.85,0.867c1.975,1.527,2.604,5.393,0.705,7.591
		c-0.719,0.829-2.082,1.335-3.416,1.518c-0.843,0.114-2.156,0.062-2.82-0.108C63.98,37.381,64.004,34.518,64.306,32.199
		L64.306,32.199L64.306,32.199z M58.745,29.842c0.823,0.133,1.406,0.555,1.657,1.271c0.44,1.266,0.047,3.516,0.163,5.044
		c0.234,3.129,0.078,6.5,0.108,9.65c0.013,1.574,0.18,3.929-0.163,5.476c-0.106,0.473-0.695,1.045-1.139,1.193
		c-0.603,0.198-0.943,0-0.759,0.704c2.41,0,5.135-0.107,8.133-0.107c-0.031-0.261,0.13-0.384-0.108-0.542
		c-0.239-0.16-1.785,0.213-2.331-1.41c-0.396-1.166-0.434-3.016-0.461-5.02c-0.027-1.903,0.101-3.834,0.109-4.849
		c0.801,0,1.377,0.014,1.901,0.257c1.113,0.515,1.801,1.597,2.571,2.508c1.098,1.305,2.265,2.609,3.308,3.959
		c1.821,2.358,3.489,5.076,7.374,5.367c0.869,0.064,2.134,0.106,2.983-0.242c0.306-0.127,0.326-0.311,0.161-0.516
		c-1.591-0.245-2.252-0.882-3.144-1.682c-3.514-3.143-6.889-6.771-9.867-10.436c0.882-0.63,1.718-0.934,2.611-1.6
		c1.765-1.315,3.296-3.271,2.646-6.562c-0.283-1.423-1.115-2.354-2.332-2.818c-0.76-0.293-1.936-0.144-2.873-0.163
		c-1.911-0.046-4.021-0.034-6.019-0.055c-1.583-0.017-2.554-0.079-4.286-0.028c-0.101,0.004-0.427,0.043-0.54,0.083
		C58.428,29.616,58.26,29.764,58.745,29.842L58.745,29.842z"/>
	<path fill-rule="evenodd" clip-rule="evenodd" fill="#B99959" d="M29.714,53.235c1.698-0.028,3.896,0.055,5.692,0.055
		c0.113-0.513,0.044-0.711-0.541-0.813c-0.86-0.15-1.575-0.477-1.898-1.139c-0.238-0.481-0.207-1.158-0.271-1.789
		c-0.237-2.293-0.162-5.15-0.162-7.508c0.898-0.229,2.123-0.134,3.225-0.246c2.951-0.305,5.672-0.938,7.619-2.276
		c0.25-0.175,0.325-0.275,0.191-0.567c-0.134-0.294-1.669,0.455-3.065,0.622c-2,0.233-3.778,0.218-6.159,0.296
		c-0.317,0.01-1.335-0.023-1.757-0.134c0-1.661-0.158-5.218,0.037-7.528c0.083-0.994,0.481-1.428,0.992-1.635
		c0.644-0.265,1.626-0.023,2.303,0.027c1.382,0.104,2.364,0.167,3.553,0.677c0.715,0.309,1.333,0.782,1.573,1.573
		c0.101,0.333,0.222,0.644,0.296,0.979c0.066,0.291,0.264,0.223,0.409,0.105c0.219-1.483,0.381-2.812,0.542-4.555
		c-0.083-0.008-0.169-0.005-0.327,0c-0.879,0.023-2.059,0.202-2.98,0.271c-1.129,0.083-2.376,0.024-3.471,0.109
		c-2.92,0.215-5.793-0.346-8.622-0.028c0,0-0.42,0.37,0.131,0.511c1.023,0.254,1.889,0.42,2.093,1.468
		c0.232,1.196,0.016,2.396,0.108,3.633c0.232,3.116,0.232,6.59,0,9.706c-0.149,1.988,0.184,4.026-0.163,5.91
		c-0.304,1.649-1.688,1.521-1.927,1.736c-0.239,0.213-0.15,0.455-0.133,0.595C27.736,53.398,28.911,53.248,29.714,53.235
		L29.714,53.235z"/>
	<path fill-rule="evenodd" clip-rule="evenodd" fill="#B99959" d="M91.795,76.441c-0.819,0.288-1.303,0.942-1.951,1.41
		c-1.063,0.761-2.57,1.43-4.013,1.734c-2.43,0.513-4.712-0.172-6.181-1.084c-3.964-2.464-5.569-8.249-3.741-14.097
		c1.408-4.509,6.717-7.869,11.711-4.175c0.581,0.431,1.164,1.312,1.409,2.061c0.219,0.671-0.289,1.589,0.38,1.68
		c0.567-1.852,0.907-3.659,1.301-5.367c-1.822-0.535-4.188-1.183-6.452-1.03c-3.105,0.207-5.734,0.866-7.645,2.277
		c-7.808,5.758-6.558,18.31,2.495,21.742c1.947,0.738,4.935,1.028,7.047,0.162c1.574-0.646,3.248-1.764,4.283-2.981
		C90.862,78.273,92.257,77.033,91.795,76.441L91.795,76.441z"/>
	<path fill-rule="evenodd" clip-rule="evenodd" fill="#B99959" d="M59.209,80.941c-12.452,1.691-13.863-21.886-1.193-21.904
		C67.769,59.021,69.559,79.536,59.209,80.941L59.209,80.941L59.209,80.941z M65.445,60.501c-1.776-1.496-4.199-2.829-7.429-2.819
		c-7.024,0.022-12.036,5.172-12.524,11.712c-0.113,1.502-0.083,3.085,0.326,4.392c0.879,2.815,2.635,4.768,4.771,6.344
		c1.953,1.44,4.755,2.683,8.403,2.223C69.792,80.988,73.841,67.575,65.445,60.501L65.445,60.501z"/>
	<path fill-rule="evenodd" clip-rule="evenodd" fill="#B99959" d="M129.26,77.58c-0.135-0.118-0.295-0.081-0.542-0.108
		c-0.18,0.345-0.375,0.675-0.595,0.976c-1.549,2.082-4.661,2.083-7.863,1.845c-1.46-0.11-1.949-0.939-2.06-2.44
		c-0.176-2.314-0.055-5.074-0.055-7.482c2.508-0.577,5.148-0.683,7.157-1.681c0.178-0.09,0.364-0.286,0.541-0.38
		c0.565-0.303,0.526-0.264,1.027-0.703c0.328-0.286,0.31-0.503,0.071-0.503c-0.458-0.003-1.288,0.378-1.748,0.501
		c-0.874,0.234-1.944,0.362-2.874,0.435c-1.409,0.104-2.92-0.07-4.12-0.163c0-0.825-0.002-1.759,0.054-2.494
		c0.136-1.829-0.41-5.334,0.812-5.964c0.76-0.394,2.253-0.188,3.148-0.095c1.332,0.138,2.066,0.312,2.774,1.057
		c0.7,0.741,0.483,0.959,0.666,1.857c0.072,0.362,0.199,0.281,0.515,0.271c0.222-1.498,0.373-2.95,0.596-4.446
		c-0.164-0.015-0.664,0.009-0.908,0.027c-4.023,0.293-8.472,0.136-12.7,0.136c-0.149,0.646,0.13,0.452,0.651,0.704
		c0.59,0.285,1.115,0.96,1.139,1.735c0.104,3.726,0,6.126,0,6.126s-0.067,6.237-0.025,9.126c0.02,1.551,0.129,2.94-0.245,4.321
		c-0.318,1.16-1.02,0.92-2.007,1.139c-0.074,0.262-0.079,0.285-0.056,0.596c0.698,0.16,1.931,0.007,2.767-0.054
		c1.756-0.132,3.649-0.297,5.421-0.163c1.559,0.115,5.133,0.273,6.29,0.055c0.336-0.064,0.824-0.456,1.031-0.705
		C128.312,80.871,129.502,77.793,129.26,77.58L129.26,77.58z"/>
	<path fill-rule="evenodd" clip-rule="evenodd" fill="#B99959" d="M135.984,69.067c-0.37-0.028-0.902-0.135-1.247-0.162
		c-0.255-1.865-0.121-8.182,0.488-9.326c0.275-0.521,1.463-0.708,2.06-0.704c5.024,0.015,6.424,7.244,2.409,9.574
		C138.779,68.979,137.467,69.178,135.984,69.067L135.984,69.067L135.984,69.067z M152.847,81.376
		c-1.725-0.508-2.976-1.543-4.111-2.604c-3.137-2.928-6.079-5.822-8.794-9.161c0.359-0.495,0.935-0.604,1.465-0.922
		c1.178-0.714,2.45-1.788,3.144-2.982c0.568-0.982,0.895-2.345,0.76-3.85c-0.189-2.116-1.687-3.312-3.621-3.604
		c-1.285-0.194-2.45-0.037-3.808-0.138c-2.18-0.164-3.85,0.013-6.886,0.014c-0.851,0-2.115-0.306-1.774,0.38
		c0.653,0.461,1.198-0.027,1.721,1.07c0.55,1.152,0.386,4.314,0.368,6.226c-0.037,3.409,0.06,6.984-0.07,10.584
		c-0.049,1.312,0.012,2.56-0.177,3.648c-0.25,1.443-1.349,1.093-1.638,1.298c-0.288,0.205-0.158,0.37-0.165,0.528
		c0.729,0.167,1.544,0.063,2.387,0c1.861-0.141,3.85,0.055,5.639,0.055c0.031-0.125,0.23-0.188,0.025-0.434
		c-0.205-0.246-1.132-0.256-1.505-0.501c-0.349-0.23-0.58-0.558-0.743-0.963c-0.641-1.593-0.54-5.154-0.53-7.318
		c0.004-0.816,0.049-1.671,0.014-2.211c-0.054-0.786,2.25,0.09,2.494,0.242c0.85,0.53,1.505,1.592,2.143,2.347
		c1.645,1.951,3.349,3.909,4.988,5.856c0.678,0.803,1.639,1.774,2.55,2.331c1.184,0.72,2.704,1.037,4.606,0.867
		c0.517-0.048,1.071-0.01,1.465-0.217C153.04,81.786,152.892,81.58,152.847,81.376L152.847,81.376z"/>
	<path fill-rule="evenodd" clip-rule="evenodd" fill="#B99959" d="M111.044,81.159c-0.593-0.141-1.128-0.597-1.303-1.139
		c-0.392-1.208-0.224-3.109-0.217-4.446c0.014-3.059-0.296-5.507-0.054-8.729c0.139-1.872-0.023-3.785,0.107-5.53
		c0.034-0.463-0.052-0.911,0.056-1.301c0.138-0.518,0.526-0.929,0.976-1.139c0.253-0.12,0.636-0.108,1.029-0.108
		c0.14-0.334,0.316-0.132,0.108-0.542c-1.25-0.327-3.154-0.021-5.017-0.081c-1.054-0.033-3.116,0.026-3.116,0.026
		s-1.035,0.334,0.139,0.568c3.228,0.609,2.289,3.571,2.465,6.643c0.009,0.189,0.223,2.312,0,2.494
		c-0.862,0.697-7.897,0.908-9.231,0.395c0-1.416-0.033-2.958,0.067-4.299c0.104-1.396-0.179-2.938,0.217-4.065
		c0.295-0.843,1.506-1.034,2.44-1.247c-0.014-0.145-0.052-0.368-0.054-0.434c-2.641-0.209-5.559-0.109-8.351-0.109
		c-0.037,0.16-0.107,0.357-0.107,0.651c1.313,0.102,2.262,0.56,2.438,1.788c0.192,1.334,0.058,2.529,0.096,3.813
		c0.109,3.856,0.114,7.357,0.121,11.531c0,1.315,0.028,4.263-0.704,4.88c-0.465,0.388-1.292,0.466-1.79,0.813
		c0.072,0.195,0.098,0.292,0.163,0.434c1.146,0,2.685-0.029,4.067-0.007c1.604,0.023,2.891,0.007,4.337-0.102
		c0.01-0.191,0.108-0.466-0.054-0.597c-0.153-0.12-0.387-0.058-0.597-0.107c-0.873-0.216-1.562-0.496-1.897-1.247
		c-0.68-1.513-0.424-5.947-0.271-7.971c0.029-0.392,0.055-1.085,0.055-1.085s3.046-0.176,4.499-0.325
		c1.705-0.176,3.114-0.755,4.556-1.192c0.202,2.591,0.132,5.354-0.055,7.861c-0.062,0.813,0.061,1.639-0.162,2.277
		c-0.233,0.656-0.806,1.408-1.466,1.627c-0.316,0.103-0.749-0.039-1.028,0.108c-0.226,0.116-0.126,0.365-0.109,0.596
		c1.148,0.09,2.555,0.031,3.772,0.028c1.65-0.004,3.125,0.026,4.739,0.026C112.091,81.199,111.701,81.314,111.044,81.159
		L111.044,81.159z"/>
	<path fill-rule="evenodd" clip-rule="evenodd" fill="#B99959" d="M35.624,69.231c-0.859,0.087-2.227,0.095-2.819-0.164
		c-0.136-1.209-0.079-8.447,0.488-9.325c0.308-0.481,1.093-0.742,1.843-0.759c1.63-0.039,2.918,0.466,3.755,1.479
		c1.528,1.852,1.638,5.023,0.23,6.97C38.387,68.448,37.229,69.066,35.624,69.231L35.624,69.231L35.624,69.231z M40.775,72.701
		c-0.843-1-1.995-1.859-2.7-2.982c2.402-1.471,6.004-3.4,5.261-8.322c-0.185-1.216-0.678-1.949-1.586-2.468
		c-1.768-1.009-6.902-0.691-9.544-0.676c-1.571,0.008-3.316-0.149-4.877,0.025c-0.329,0.851,1.27,0.507,1.68,1.246
		c0.404,0.733,0.357,1.977,0.434,2.983c0.069,0.935-0.124,1.738-0.054,2.656c0.246,3.292,0.095,7.35,0.029,10.774
		c-0.039,1.999,0.114,2.636-0.192,4.082c-0.215,1.011-1.01,1.179-1.843,1.572c-0.246,0.23,0.005,0.337,0,0.487
		c0.962,0.107,2.553,0.022,3.58-0.054c1.577-0.118,2.719,0.054,4.28,0.054c0.181-0.013,0.534-0.146,0.149-0.528
		c-0.475-0.208-0.881-0.067-1.34-0.502c-0.32-0.303-0.78-0.628-0.922-1.083c-0.651-2.094-0.567-5.529-0.379-8.025
		c0.029-0.388-0.086-0.871,0-1.247c0.183-0.818,2.074-0.088,2.264,0.053c1.049,0.771,1.644,1.708,2.399,2.604
		c1.093,1.296,2.215,2.606,3.308,3.903c1.825,2.167,3.333,4.709,7.048,4.988c0.93,0.069,2.381,0.11,3.145-0.243
		c0.202-0.095,0.121-0.142,0.163-0.407c-1.483-0.501-2.713-1.261-3.743-2.184C44.981,77.304,42.809,75.117,40.775,72.701
		L40.775,72.701z"/>
</g>
</svg>
