<?xml version="1.0" encoding="utf-8"?>
<!-- Generator: Adobe Illustrator 16.0.0, SVG Export Plug-In . SVG Version: 6.00 Build 0)  -->
<!DOCTYPE svg PUBLIC "-//W3C//DTD SVG 1.1//EN" "http://www.w3.org/Graphics/SVG/1.1/DTD/svg11.dtd">
<svg version="1.1" id="Layer_1" xmlns="http://www.w3.org/2000/svg" xmlns:xlink="http://www.w3.org/1999/xlink" x="0px" y="0px"
	 width="87.145px" height="87.145px" viewBox="0 0 87.145 87.145" enable-background="new 0 0 87.145 87.145" xml:space="preserve">
<g>
	<polygon fill-rule="evenodd" clip-rule="evenodd" fill="#303791" points="87.145,87.145 0,87.145 0,0 87.145,0 87.145,87.145 	"/>
	<path fill-rule="evenodd" clip-rule="evenodd" fill="#F9C939" d="M43.572,80.531c-27.166-0.278-32.453-13.045-32.453-13.045
		c-7.653-21.705,0-44.906,0-44.906C16.928,4.84,43.572,6.614,43.572,6.614S69.695,4.979,76.025,22.58c0,0,7.654,23.861,0,44.906
		C76.025,67.486,70.738,80.253,43.572,80.531L43.572,80.531z"/>
	<path fill-rule="evenodd" clip-rule="evenodd" fill="#FFFFFF" d="M43.572,11.483c11.896,0,21.566,14.506,21.566,32.315
		c0,17.879-9.67,32.35-21.566,32.35c-11.861,0-21.531-14.471-21.531-32.35C22.041,25.989,31.711,11.483,43.572,11.483L43.572,11.483
		z"/>
	<path fill-rule="evenodd" clip-rule="evenodd" fill="#303791" d="M43.572,12.701c11.061,0,20.035,13.948,20.035,31.098
		c0,17.184-8.975,31.133-20.035,31.133c-11.026,0-20.001-13.949-20.001-31.133C23.571,26.649,32.546,12.701,43.572,12.701
		L43.572,12.701z"/>
	<polygon fill-rule="evenodd" clip-rule="evenodd" fill="#FFFFFF" points="57.348,27.311 57.348,36.737 51.955,36.737 
		49.207,31.693 47.504,31.693 47.504,37.398 52.756,37.398 52.756,50.164 47.746,50.164 47.746,55.799 51.711,58.373 51.711,60.704 
		30.842,60.704 30.842,57.643 34.181,55.486 34.181,32.807 30.842,30.372 30.842,27.311 57.348,27.311 	"/>
	<polygon fill-rule="evenodd" clip-rule="evenodd" fill="#E8302F" points="31.677,28.598 31.677,30.094 35.12,32.459 35.12,55.938 
		32.024,58.235 32.024,60.077 47.746,60.077 47.746,58.235 43.677,55.938 43.677,45.26 45.52,45.26 47.189,49.295 48.895,49.295 
		48.895,38.512 47.051,38.512 45.59,42.373 43.677,42.373 43.677,30.963 49.799,30.963 52.373,35.902 53.66,35.902 53.66,28.598 
		31.677,28.598 	"/>
</g>
<g>
	<path fill="#BB8545" d="M-214.692,347.811c1.152-0.195,2.521-0.326,4.021-0.326c2.716,0,4.649,0.652,5.932,1.825
		c1.325,1.195,2.086,2.89,2.086,5.259c0,2.39-0.761,4.346-2.107,5.692c-1.391,1.369-3.65,2.108-6.497,2.108
		c-1.369,0-2.478-0.065-3.434-0.174V347.811z M-212.802,360.761c0.479,0.065,1.174,0.087,1.912,0.087
		c4.063,0,6.236-2.26,6.236-6.215c0.021-3.454-1.934-5.648-5.932-5.648c-0.979,0-1.717,0.086-2.217,0.195V360.761z"/>
	<path fill="#BB8545" d="M-190.679,356.893c0,3.89-2.716,5.585-5.236,5.585c-2.825,0-5.041-2.086-5.041-5.411
		c0-3.498,2.325-5.562,5.215-5.562C-192.721,351.504-190.679,353.699-190.679,356.893z M-199.001,357.002
		c0,2.303,1.304,4.041,3.173,4.041c1.825,0,3.194-1.717,3.194-4.085c0-1.781-0.892-4.02-3.151-4.02
		C-198.022,352.938-199.001,355.024-199.001,357.002z"/>
	<path fill="#BB8545" d="M-187.655,351.722l1.413,5.345c0.282,1.174,0.564,2.26,0.76,3.347h0.065
		c0.239-1.064,0.587-2.194,0.935-3.324l1.717-5.367h1.607l1.63,5.259c0.391,1.26,0.695,2.368,0.935,3.433h0.064
		c0.174-1.064,0.457-2.173,0.805-3.411l1.499-5.28h1.891l-3.39,10.517h-1.738l-1.608-5.02c-0.369-1.173-0.674-2.216-0.935-3.455
		h-0.043c-0.261,1.261-0.587,2.348-0.956,3.477l-1.695,4.998h-1.738l-3.172-10.517H-187.655z"/>
	<path fill="#BB8545" d="M-172.419,354.568c0-1.108-0.022-1.978-0.087-2.847h1.694l0.108,1.738h0.044
		c0.521-0.978,1.738-1.956,3.477-1.956c1.456,0,3.716,0.869,3.716,4.477v6.258h-1.912v-6.062c0-1.694-0.631-3.107-2.434-3.107
		c-1.239,0-2.217,0.892-2.564,1.956c-0.087,0.239-0.13,0.565-0.13,0.891v6.323h-1.912V354.568z"/>
	<path fill="#BB8545" d="M-160.356,346.811h1.912v15.428h-1.912V346.811z"/>
	<path fill="#BB8545" d="M-145.711,356.893c0,3.89-2.716,5.585-5.236,5.585c-2.825,0-5.041-2.086-5.041-5.411
		c0-3.498,2.325-5.562,5.215-5.562C-147.753,351.504-145.711,353.699-145.711,356.893z M-154.033,357.002
		c0,2.303,1.304,4.041,3.173,4.041c1.825,0,3.194-1.717,3.194-4.085c0-1.781-0.892-4.02-3.151-4.02
		C-153.055,352.938-154.033,355.024-154.033,357.002z"/>
	<path fill="#BB8545" d="M-135.908,359.718c0,0.913,0.044,1.804,0.152,2.521h-1.717l-0.152-1.325h-0.064
		c-0.587,0.825-1.717,1.564-3.216,1.564c-2.13,0-3.216-1.499-3.216-3.021c0-2.542,2.26-3.933,6.322-3.911v-0.218
		c0-0.847-0.238-2.434-2.39-2.411c-1,0-2.021,0.282-2.76,0.782l-0.435-1.282c0.869-0.543,2.151-0.913,3.477-0.913
		c3.216,0,3.998,2.195,3.998,4.281V359.718z M-137.755,356.871c-2.086-0.043-4.454,0.326-4.454,2.369
		c0,1.26,0.825,1.824,1.781,1.824c1.391,0,2.281-0.869,2.586-1.76c0.065-0.217,0.087-0.435,0.087-0.608V356.871z"/>
	<path fill="#BB8545" d="M-123.759,346.811v12.712c0,0.935,0.043,1.999,0.087,2.716h-1.695l-0.087-1.825h-0.064
		c-0.565,1.173-1.825,2.064-3.542,2.064c-2.542,0-4.52-2.151-4.52-5.346c-0.021-3.498,2.173-5.628,4.715-5.628
		c1.63,0,2.694,0.761,3.173,1.587h0.043v-6.28H-123.759z M-125.649,356.002c0-0.238-0.021-0.564-0.087-0.804
		c-0.282-1.195-1.325-2.194-2.76-2.194c-1.977,0-3.15,1.738-3.15,4.041c0,2.13,1.064,3.89,3.107,3.89
		c1.282,0,2.455-0.869,2.803-2.281c0.065-0.261,0.087-0.521,0.087-0.826V356.002z"/>
	<path fill="#BB8545" d="M-116.562,362.238v-1.174l1.499-1.455c3.606-3.434,5.258-5.259,5.258-7.388c0-1.435-0.673-2.76-2.781-2.76
		c-1.281,0-2.347,0.651-2.998,1.195l-0.608-1.348c0.956-0.804,2.368-1.434,3.977-1.434c3.042,0,4.323,2.086,4.323,4.106
		c0,2.607-1.89,4.715-4.867,7.583l-1.107,1.043v0.044h6.322v1.586H-116.562z"/>
	<path fill="#BB8545" d="M-96.005,355.024c0,4.802-1.804,7.453-4.911,7.453c-2.759,0-4.649-2.586-4.693-7.258
		c0-4.759,2.064-7.344,4.933-7.344C-97.722,347.876-96.005,350.526-96.005,355.024z M-103.675,355.242
		c0,3.672,1.13,5.758,2.868,5.758c1.934,0,2.868-2.281,2.868-5.889c0-3.477-0.869-5.758-2.868-5.758
		C-102.458,349.354-103.675,351.396-103.675,355.242z"/>
	<path fill="#BB8545" d="M-84.855,355.024c0,4.802-1.804,7.453-4.911,7.453c-2.759,0-4.649-2.586-4.693-7.258
		c0-4.759,2.064-7.344,4.933-7.344C-86.572,347.876-84.855,350.526-84.855,355.024z M-92.525,355.242
		c0,3.672,1.13,5.758,2.868,5.758c1.934,0,2.868-2.281,2.868-5.889c0-3.477-0.869-5.758-2.868-5.758
		C-91.309,349.354-92.525,351.396-92.525,355.242z"/>
	<path fill="#BB8545" d="M-83.745,364.933c0.479-1.304,1.065-3.629,1.304-5.215l2.13-0.218c-0.521,1.848-1.478,4.26-2.086,5.28
		L-83.745,364.933z"/>
	<path fill="#BB8545" d="M-69.208,355.024c0,4.802-1.803,7.453-4.91,7.453c-2.76,0-4.65-2.586-4.693-7.258
		c0-4.759,2.064-7.344,4.933-7.344C-70.924,347.876-69.208,350.526-69.208,355.024z M-76.878,355.242
		c0,3.672,1.13,5.758,2.868,5.758c1.934,0,2.868-2.281,2.868-5.889c0-3.477-0.869-5.758-2.868-5.758
		C-75.661,349.354-76.878,351.396-76.878,355.242z"/>
	<path fill="#BB8545" d="M-58.059,355.024c0,4.802-1.803,7.453-4.91,7.453c-2.76,0-4.65-2.586-4.693-7.258
		c0-4.759,2.064-7.344,4.933-7.344C-59.774,347.876-58.059,350.526-58.059,355.024z M-65.729,355.242
		c0,3.672,1.13,5.758,2.868,5.758c1.934,0,2.868-2.281,2.868-5.889c0-3.477-0.869-5.758-2.868-5.758
		C-64.512,349.354-65.729,351.396-65.729,355.242z"/>
	<path fill="#BB8545" d="M-46.909,355.024c0,4.802-1.803,7.453-4.91,7.453c-2.76,0-4.65-2.586-4.693-7.258
		c0-4.759,2.064-7.344,4.933-7.344C-48.625,347.876-46.909,350.526-46.909,355.024z M-54.579,355.242
		c0,3.672,1.13,5.758,2.868,5.758c1.935,0,2.868-2.281,2.868-5.889c0-3.477-0.869-5.758-2.868-5.758
		C-53.362,349.354-54.579,351.396-54.579,355.242z"/>
	<path fill="#BB8545" d="M-38.976,350.679v5.106h4.911v1.304h-4.911v5.149h-1.391v-5.149h-4.91v-1.304h4.91v-5.106H-38.976z"/>
	<path fill="#BB8545" d="M-26.998,346.811h1.89v6.605h0.044c0.674-1.173,1.891-1.912,3.585-1.912c2.629,0,4.455,2.174,4.455,5.346
		c0,3.759-2.391,5.628-4.737,5.628c-1.521,0-2.737-0.587-3.542-1.956h-0.043l-0.109,1.717h-1.629
		c0.043-0.717,0.087-1.781,0.087-2.716V346.811z M-25.108,358.023c0,0.238,0.022,0.478,0.088,0.695
		c0.348,1.325,1.477,2.237,2.867,2.237c2.021,0,3.194-1.63,3.194-4.041c0-2.108-1.086-3.911-3.15-3.911
		c-1.282,0-2.499,0.912-2.89,2.347c-0.065,0.239-0.109,0.499-0.109,0.804V358.023z"/>
	<path fill="#BB8545" d="M-14.632,355.003c0-1.239-0.021-2.304-0.087-3.281h1.673l0.087,2.086h0.065
		c0.478-1.412,1.651-2.304,2.934-2.304c0.195,0,0.348,0.022,0.521,0.044v1.804c-0.196-0.044-0.392-0.044-0.652-0.044
		c-1.348,0-2.303,1-2.564,2.434c-0.043,0.261-0.064,0.587-0.064,0.892v5.605h-1.912V355.003z"/>
	<path fill="#BB8545" d="M-0.246,359.718c0,0.913,0.044,1.804,0.152,2.521h-1.717l-0.151-1.325h-0.065
		c-0.587,0.825-1.717,1.564-3.216,1.564c-2.13,0-3.216-1.499-3.216-3.021c0-2.542,2.26-3.933,6.323-3.911v-0.218
		c0-0.847-0.239-2.434-2.391-2.411c-1,0-2.021,0.282-2.76,0.782l-0.435-1.282c0.869-0.543,2.151-0.913,3.477-0.913
		c3.216,0,3.998,2.195,3.998,4.281V359.718z M-2.093,356.871c-2.086-0.043-4.454,0.326-4.454,2.369c0,1.26,0.825,1.824,1.781,1.824
		c1.391,0,2.282-0.869,2.586-1.76c0.065-0.217,0.087-0.435,0.087-0.608V356.871z"/>
	<path fill="#BB8545" d="M2.843,354.568c0-1.108-0.021-1.978-0.087-2.847H4.45l0.109,1.738h0.043
		c0.521-0.978,1.738-1.956,3.477-1.956c1.456,0,3.716,0.869,3.716,4.477v6.258H9.883v-6.062c0-1.694-0.63-3.107-2.434-3.107
		c-1.239,0-2.217,0.892-2.564,1.956c-0.087,0.239-0.13,0.565-0.13,0.891v6.323H2.843V354.568z"/>
	<path fill="#BB8545" d="M23.966,346.811v12.712c0,0.935,0.043,1.999,0.087,2.716h-1.694l-0.088-1.825h-0.064
		c-0.565,1.173-1.825,2.064-3.542,2.064c-2.542,0-4.52-2.151-4.52-5.346c-0.021-3.498,2.173-5.628,4.715-5.628
		c1.63,0,2.694,0.761,3.173,1.587h0.043v-6.28H23.966z M22.075,356.002c0-0.238-0.021-0.564-0.087-0.804
		c-0.282-1.195-1.325-2.194-2.759-2.194c-1.978,0-3.151,1.738-3.151,4.041c0,2.13,1.065,3.89,3.107,3.89
		c1.282,0,2.455-0.869,2.803-2.281c0.065-0.261,0.087-0.521,0.087-0.826V356.002z"/>
	<path fill="#BB8545" d="M31.771,346.811h1.912v15.428h-1.912V346.811z"/>
	<path fill="#BB8545" d="M46.417,356.893c0,3.89-2.716,5.585-5.237,5.585c-2.824,0-5.041-2.086-5.041-5.411
		c0-3.498,2.325-5.562,5.215-5.562C44.374,351.504,46.417,353.699,46.417,356.893z M38.095,357.002c0,2.303,1.304,4.041,3.173,4.041
		c1.824,0,3.193-1.717,3.193-4.085c0-1.781-0.891-4.02-3.15-4.02C39.072,352.938,38.095,355.024,38.095,357.002z"/>
	<path fill="#BB8545" d="M57.827,360.695c0,2.434-0.5,3.89-1.5,4.824c-1.043,0.934-2.52,1.26-3.846,1.26
		c-1.26,0-2.65-0.304-3.498-0.869l0.479-1.478c0.695,0.456,1.781,0.848,3.085,0.848c1.956,0,3.39-1.021,3.39-3.694v-1.151h-0.043
		c-0.565,0.978-1.717,1.761-3.347,1.761c-2.607,0-4.476-2.217-4.476-5.129c0-3.562,2.324-5.562,4.758-5.562
		c1.825,0,2.803,0.935,3.281,1.804h0.043l0.065-1.586h1.695c-0.065,0.739-0.087,1.608-0.087,2.868V360.695z M55.915,355.872
		c0-0.326-0.021-0.608-0.109-0.848c-0.348-1.13-1.26-2.042-2.672-2.042c-1.825,0-3.129,1.542-3.129,3.976
		c0,2.064,1.064,3.781,3.107,3.781c1.194,0,2.26-0.739,2.65-1.956c0.108-0.326,0.152-0.695,0.152-1.021V355.872z"/>
	<path fill="#BB8545" d="M70.498,356.893c0,3.89-2.716,5.585-5.237,5.585c-2.824,0-5.041-2.086-5.041-5.411
		c0-3.498,2.325-5.562,5.215-5.562C68.455,351.504,70.498,353.699,70.498,356.893z M62.176,357.002c0,2.303,1.304,4.041,3.173,4.041
		c1.824,0,3.193-1.717,3.193-4.085c0-1.781-0.891-4.02-3.15-4.02C63.153,352.938,62.176,355.024,62.176,357.002z"/>
	<path fill="#BB8545" d="M72.651,360.305c0.587,0.348,1.586,0.738,2.543,0.738c1.368,0,2.021-0.674,2.021-1.564
		c0-0.912-0.544-1.391-1.935-1.912c-1.912-0.695-2.803-1.717-2.803-2.977c0-1.695,1.391-3.086,3.629-3.086
		c1.064,0,1.999,0.283,2.564,0.652l-0.457,1.391c-0.412-0.261-1.173-0.63-2.15-0.63c-1.131,0-1.738,0.651-1.738,1.434
		c0,0.869,0.607,1.261,1.977,1.804c1.804,0.674,2.76,1.586,2.76,3.15c0,1.869-1.456,3.173-3.911,3.173
		c-1.151,0-2.216-0.305-2.955-0.739L72.651,360.305z"/>
	<path fill="#BB8545" d="M88.257,348.767c0,0.651-0.457,1.173-1.217,1.173c-0.695,0-1.152-0.521-1.152-1.173
		s0.479-1.195,1.195-1.195C87.778,347.571,88.257,348.093,88.257,348.767z M86.127,362.238v-10.517h1.912v10.517H86.127z"/>
	<path fill="#BB8545" d="M91.212,354.568c0-1.108-0.021-1.978-0.087-2.847h1.695l0.108,1.738h0.043
		c0.521-0.978,1.738-1.956,3.477-1.956c1.456,0,3.716,0.869,3.716,4.477v6.258h-1.912v-6.062c0-1.694-0.63-3.107-2.434-3.107
		c-1.238,0-2.216,0.892-2.563,1.956c-0.087,0.239-0.131,0.565-0.131,0.891v6.323h-1.912V354.568z"/>
	<path fill="#BB8545" d="M108.621,351.722l2.063,5.889c0.348,0.978,0.631,1.847,0.848,2.716h0.065
		c0.239-0.869,0.543-1.738,0.891-2.716l2.043-5.889h1.999l-4.129,10.517h-1.825l-3.998-10.517H108.621z"/>
	<path fill="#BB8545" d="M119.185,357.328c0.043,2.585,1.673,3.65,3.606,3.65c1.369,0,2.216-0.239,2.911-0.544l0.348,1.369
		c-0.673,0.304-1.847,0.674-3.52,0.674c-3.237,0-5.172-2.151-5.172-5.323c0-3.173,1.869-5.65,4.933-5.65
		c3.455,0,4.346,2.999,4.346,4.933c0,0.392-0.021,0.674-0.065,0.892H119.185z M124.79,355.959c0.021-1.195-0.5-3.086-2.65-3.086
		c-1.956,0-2.781,1.76-2.934,3.086H124.79z"/>
	<path fill="#BB8545" d="M136.505,361.869c-0.5,0.238-1.608,0.608-3.021,0.608c-3.173,0-5.237-2.151-5.237-5.367
		c0-3.237,2.217-5.606,5.65-5.606c1.129,0,2.129,0.283,2.65,0.565l-0.435,1.456c-0.456-0.239-1.173-0.5-2.216-0.5
		c-2.412,0-3.716,1.804-3.716,3.977c0,2.434,1.564,3.933,3.65,3.933c1.086,0,1.804-0.261,2.347-0.5L136.505,361.869z"/>
	<path fill="#BB8545" d="M141.33,349.201v2.521h2.737v1.456h-2.737v5.671c0,1.304,0.369,2.042,1.434,2.042
		c0.521,0,0.826-0.043,1.108-0.13l0.087,1.456c-0.369,0.13-0.956,0.261-1.694,0.261c-0.892,0-1.608-0.305-2.064-0.804
		c-0.521-0.587-0.739-1.521-0.739-2.76v-5.736h-1.63v-1.456h1.63v-1.956L141.33,349.201z"/>
	<path fill="#BB8545" d="M155.608,356.893c0,3.89-2.717,5.585-5.236,5.585c-2.825,0-5.041-2.086-5.041-5.411
		c0-3.498,2.324-5.562,5.215-5.562C153.565,351.504,155.608,353.699,155.608,356.893z M147.286,357.002
		c0,2.303,1.304,4.041,3.172,4.041c1.826,0,3.194-1.717,3.194-4.085c0-1.781-0.891-4.02-3.15-4.02
		C148.264,352.938,147.286,355.024,147.286,357.002z"/>
	<path fill="#BB8545" d="M158.022,355.003c0-1.239-0.021-2.304-0.087-3.281h1.673l0.088,2.086h0.064
		c0.479-1.412,1.651-2.304,2.934-2.304c0.195,0,0.348,0.022,0.521,0.044v1.804c-0.195-0.044-0.391-0.044-0.652-0.044
		c-1.347,0-2.303,1-2.563,2.434c-0.044,0.261-0.065,0.587-0.065,0.892v5.605h-1.912V355.003z"/>
	<path fill="#BB8545" d="M169.933,362.238v-9.061h-1.455v-1.456h1.455v-0.5c0-1.478,0.348-2.824,1.217-3.672
		c0.718-0.695,1.674-0.978,2.564-0.978c0.695,0,1.26,0.152,1.63,0.304l-0.261,1.478c-0.283-0.13-0.652-0.238-1.217-0.238
		c-1.63,0-2.043,1.412-2.043,3.041v0.565h2.543v1.456h-2.543v9.061H169.933z"/>
	<path fill="#BB8545" d="M185.318,356.893c0,3.89-2.716,5.585-5.237,5.585c-2.824,0-5.041-2.086-5.041-5.411
		c0-3.498,2.325-5.562,5.215-5.562C183.275,351.504,185.318,353.699,185.318,356.893z M176.996,357.002
		c0,2.303,1.304,4.041,3.173,4.041c1.824,0,3.193-1.717,3.193-4.085c0-1.781-0.891-4.02-3.15-4.02
		C177.974,352.938,176.996,355.024,176.996,357.002z"/>
	<path fill="#BB8545" d="M187.732,355.003c0-1.239-0.021-2.304-0.087-3.281h1.674l0.086,2.086h0.065
		c0.479-1.412,1.651-2.304,2.934-2.304c0.195,0,0.348,0.022,0.521,0.044v1.804c-0.195-0.044-0.392-0.044-0.651-0.044
		c-1.348,0-2.304,1-2.564,2.434c-0.043,0.261-0.065,0.587-0.065,0.892v5.605h-1.912V355.003z"/>
	<path fill="#BB8545" d="M194.927,354.568c0-1.108-0.043-1.978-0.087-2.847h1.673l0.088,1.717h0.064
		c0.587-1,1.564-1.935,3.324-1.935c1.413,0,2.499,0.869,2.955,2.108h0.044c0.326-0.608,0.761-1.043,1.195-1.369
		c0.63-0.478,1.304-0.739,2.303-0.739c1.413,0,3.477,0.913,3.477,4.563v6.171h-1.868v-5.932c0-2.043-0.761-3.238-2.281-3.238
		c-1.108,0-1.935,0.805-2.282,1.717c-0.087,0.283-0.151,0.608-0.151,0.956v6.497h-1.869v-6.301c0-1.674-0.738-2.869-2.194-2.869
		c-1.174,0-2.064,0.957-2.368,1.912c-0.109,0.262-0.152,0.609-0.152,0.935v6.323h-1.869V354.568z"/>
	<path fill="#BB8545" d="M220.44,359.718c0,0.913,0.044,1.804,0.152,2.521h-1.717l-0.152-1.325h-0.064
		c-0.587,0.825-1.717,1.564-3.216,1.564c-2.13,0-3.216-1.499-3.216-3.021c0-2.542,2.26-3.933,6.322-3.911v-0.218
		c0-0.847-0.238-2.434-2.39-2.411c-0.999,0-2.021,0.282-2.76,0.782l-0.435-1.282c0.869-0.543,2.151-0.913,3.477-0.913
		c3.216,0,3.998,2.195,3.998,4.281V359.718z M218.594,356.871c-2.086-0.043-4.454,0.326-4.454,2.369c0,1.26,0.825,1.824,1.781,1.824
		c1.391,0,2.281-0.869,2.586-1.76c0.065-0.217,0.087-0.435,0.087-0.608V356.871z"/>
	<path fill="#BB8545" d="M225.746,349.201v2.521h2.737v1.456h-2.737v5.671c0,1.304,0.369,2.042,1.434,2.042
		c0.521,0,0.826-0.043,1.108-0.13l0.087,1.456c-0.369,0.13-0.956,0.261-1.694,0.261c-0.892,0-1.608-0.305-2.064-0.804
		c-0.521-0.587-0.739-1.521-0.739-2.76v-5.736h-1.63v-1.456h1.63v-1.956L225.746,349.201z"/>
	<path fill="#BB8545" d="M235.438,362.238v-9.061h-1.455v-1.456h1.455v-0.5c0-1.478,0.348-2.824,1.217-3.672
		c0.718-0.695,1.674-0.978,2.564-0.978c0.695,0,1.26,0.152,1.63,0.304l-0.261,1.478c-0.283-0.13-0.652-0.238-1.217-0.238
		c-1.63,0-2.043,1.412-2.043,3.041v0.565h2.543v1.456h-2.543v9.061H235.438z"/>
	<path fill="#BB8545" d="M250.825,356.893c0,3.89-2.717,5.585-5.236,5.585c-2.825,0-5.041-2.086-5.041-5.411
		c0-3.498,2.324-5.562,5.215-5.562C248.782,351.504,250.825,353.699,250.825,356.893z M242.503,357.002
		c0,2.303,1.304,4.041,3.172,4.041c1.826,0,3.194-1.717,3.194-4.085c0-1.781-0.891-4.02-3.15-4.02
		C243.48,352.938,242.503,355.024,242.503,357.002z"/>
	<path fill="#BB8545" d="M253.239,355.003c0-1.239-0.021-2.304-0.087-3.281h1.673l0.088,2.086h0.064
		c0.479-1.412,1.651-2.304,2.934-2.304c0.195,0,0.348,0.022,0.521,0.044v1.804c-0.195-0.044-0.391-0.044-0.652-0.044
		c-1.347,0-2.303,1-2.563,2.434c-0.044,0.261-0.065,0.587-0.065,0.892v5.605h-1.912V355.003z"/>
	<path fill="#BB8545" d="M265.149,362.238v-9.061h-1.455v-1.456h1.455v-0.5c0-1.478,0.348-2.824,1.217-3.672
		c0.718-0.695,1.674-0.978,2.564-0.978c0.695,0,1.26,0.152,1.63,0.304l-0.261,1.478c-0.283-0.13-0.652-0.238-1.217-0.238
		c-1.63,0-2.043,1.412-2.043,3.041v0.565h2.543v1.456h-2.543v9.061H265.149z"/>
	<path fill="#BB8545" d="M271.3,355.003c0-1.239-0.021-2.304-0.087-3.281h1.673l0.088,2.086h0.064
		c0.479-1.412,1.651-2.304,2.934-2.304c0.195,0,0.348,0.022,0.521,0.044v1.804c-0.195-0.044-0.391-0.044-0.652-0.044
		c-1.347,0-2.303,1-2.563,2.434c-0.044,0.261-0.065,0.587-0.065,0.892v5.605H271.3V355.003z"/>
	<path fill="#BB8545" d="M279.255,357.328c0.044,2.585,1.674,3.65,3.607,3.65c1.369,0,2.217-0.239,2.912-0.544l0.348,1.369
		c-0.674,0.304-1.848,0.674-3.521,0.674c-3.237,0-5.171-2.151-5.171-5.323c0-3.173,1.868-5.65,4.932-5.65
		c3.455,0,4.346,2.999,4.346,4.933c0,0.392-0.021,0.674-0.064,0.892H279.255z M284.861,355.959c0.021-1.195-0.5-3.086-2.651-3.086
		c-1.955,0-2.781,1.76-2.933,3.086H284.861z"/>
	<path fill="#BB8545" d="M290.144,357.328c0.044,2.585,1.674,3.65,3.607,3.65c1.369,0,2.217-0.239,2.912-0.544l0.348,1.369
		c-0.674,0.304-1.848,0.674-3.521,0.674c-3.237,0-5.171-2.151-5.171-5.323c0-3.173,1.868-5.65,4.932-5.65
		c3.455,0,4.346,2.999,4.346,4.933c0,0.392-0.021,0.674-0.064,0.892H290.144z M295.75,355.959c0.021-1.195-0.5-3.086-2.651-3.086
		c-1.955,0-2.781,1.76-2.933,3.086H295.75z"/>
	<path fill="#BB8545" d="M299.251,361.108c0-0.782,0.543-1.369,1.304-1.369s1.282,0.565,1.282,1.369
		c0,0.782-0.521,1.369-1.326,1.369C299.772,362.478,299.251,361.891,299.251,361.108z"/>
	<path fill="#0065A5" d="M-103.317,372.893h3.303v6.084h0.044c0.348-0.479,0.782-0.848,1.304-1.108
		c0.499-0.261,1.107-0.413,1.716-0.413c2.108,0,3.716,1.456,3.716,4.672v6.192h-3.303v-5.845c0-1.391-0.478-2.347-1.717-2.347
		c-0.869,0-1.412,0.564-1.651,1.173c-0.087,0.195-0.108,0.479-0.108,0.717v6.302h-3.303V372.893z"/>
	<path fill="#0065A5" d="M-84.844,374.826v2.868h2.368v2.434h-2.368v3.846c0,1.282,0.325,1.868,1.304,1.868
		c0.456,0,0.673-0.021,0.978-0.086l0.021,2.498c-0.413,0.152-1.217,0.283-2.129,0.283c-1.065,0-1.956-0.37-2.499-0.913
		c-0.608-0.63-0.913-1.651-0.913-3.15v-4.346h-1.412v-2.434h1.412v-1.978L-84.844,374.826z"/>
	<path fill="#0065A5" d="M-74.694,374.826v2.868h2.368v2.434h-2.368v3.846c0,1.282,0.326,1.868,1.304,1.868
		c0.456,0,0.674-0.021,0.978-0.086l0.022,2.498c-0.413,0.152-1.217,0.283-2.13,0.283c-1.064,0-1.955-0.37-2.499-0.913
		c-0.608-0.63-0.912-1.651-0.912-3.15v-4.346h-1.412v-2.434h1.412v-1.978L-74.694,374.826z"/>
	<path fill="#0065A5" d="M-68.238,381.258c0-1.391-0.044-2.564-0.087-3.563h2.868l0.151,1.478h0.044
		c0.782-1.108,1.999-1.717,3.542-1.717c2.324,0,4.41,2.021,4.41,5.41c0,3.868-2.455,5.693-4.823,5.693
		c-1.282,0-2.281-0.521-2.76-1.217h-0.043v5.279h-3.303V381.258z M-64.936,383.756c0,0.262,0.021,0.479,0.064,0.695
		c0.218,0.892,0.979,1.564,1.935,1.564c1.434,0,2.281-1.194,2.281-2.998c0-1.695-0.761-2.977-2.238-2.977
		c-0.935,0-1.76,0.695-1.978,1.673c-0.043,0.174-0.064,0.392-0.064,0.587V383.756z"/>
	<path fill="#0065A5" d="M-53.285,379.562c0-1.173,0.804-1.999,1.934-1.999c1.151,0,1.912,0.804,1.934,1.999
		c0,1.13-0.761,1.978-1.955,1.978C-52.503,381.54-53.285,380.692-53.285,379.562z M-53.285,386.581c0-1.173,0.804-1.999,1.934-1.999
		c1.151,0,1.912,0.804,1.934,1.999c0,1.13-0.761,1.978-1.955,1.978C-52.503,388.559-53.285,387.711-53.285,386.581z"/>
	<path fill="#0065A5" d="M-46.222,389.167l4.65-15.753h2.194l-4.65,15.753H-46.222z"/>
	<path fill="#0065A5" d="M-36.854,389.167l4.65-15.753h2.194l-4.65,15.753H-36.854z"/>
	<path fill="#0065A5" d="M-24.228,377.694l0.869,4.367c0.195,1.087,0.413,2.26,0.587,3.477h0.065
		c0.195-1.217,0.521-2.412,0.76-3.455l1.13-4.389h2.607l1.065,4.237c0.304,1.217,0.586,2.39,0.781,3.606h0.044
		c0.152-1.195,0.369-2.412,0.63-3.629l0.891-4.215h3.238l-3.26,10.625h-3.085l-1-3.716c-0.282-1.043-0.478-1.999-0.695-3.324h-0.043
		c-0.196,1.325-0.413,2.325-0.674,3.303l-1.064,3.737h-3.107l-3.107-10.625H-24.228z"/>
	<path fill="#0065A5" d="M-5.146,377.694l0.869,4.367c0.195,1.087,0.413,2.26,0.587,3.477h0.065c0.195-1.217,0.521-2.412,0.76-3.455
		l1.13-4.389h2.607l1.065,4.237c0.304,1.217,0.586,2.39,0.781,3.606h0.044c0.152-1.195,0.369-2.412,0.63-3.629l0.891-4.215h3.238
		l-3.26,10.625H1.178l-1-3.716c-0.282-1.043-0.478-1.999-0.695-3.324h-0.043c-0.196,1.325-0.413,2.325-0.674,3.303l-1.064,3.737
		h-3.107l-3.107-10.625H-5.146z"/>
	<path fill="#0065A5" d="M13.937,377.694l0.869,4.367c0.196,1.087,0.413,2.26,0.587,3.477h0.065
		c0.195-1.217,0.521-2.412,0.761-3.455l1.13-4.389h2.607l1.064,4.237c0.305,1.217,0.587,2.39,0.782,3.606h0.044
		c0.151-1.195,0.369-2.412,0.63-3.629l0.891-4.215h3.237l-3.259,10.625H20.26l-0.999-3.716c-0.283-1.043-0.479-1.999-0.695-3.324
		h-0.044c-0.195,1.325-0.413,2.325-0.673,3.303l-1.065,3.737h-3.106l-3.107-10.625H13.937z"/>
	<path fill="#0065A5" d="M29.043,386.56c0-1.195,0.804-2.021,1.956-2.021c1.129,0,1.912,0.804,1.934,2.021
		c0,1.151-0.782,1.999-1.978,1.999C29.847,388.559,29.043,387.711,29.043,386.56z"/>
	<path fill="#0065A5" d="M37.106,372.893h3.303v15.427h-3.303V372.893z"/>
	<path fill="#0065A5" d="M55.751,382.887c0,3.89-2.759,5.672-5.605,5.672c-3.107,0-5.497-2.043-5.497-5.476
		c0-3.455,2.26-5.649,5.692-5.649C53.579,377.434,55.751,379.672,55.751,382.887z M48.06,382.996c0,1.825,0.761,3.193,2.173,3.193
		c1.304,0,2.107-1.281,2.107-3.215c0-1.564-0.608-3.173-2.107-3.173C48.668,379.802,48.06,381.432,48.06,382.996z"/>
	<path fill="#0065A5" d="M70.096,386.776c0,2.043-0.413,3.716-1.63,4.78c-1.151,1-2.737,1.304-4.302,1.304
		c-1.413,0-2.868-0.282-3.824-0.804l0.651-2.521c0.674,0.392,1.825,0.804,3.086,0.804c1.564,0,2.76-0.825,2.76-2.803v-0.674h-0.044
		c-0.63,0.869-1.651,1.369-2.868,1.369c-2.629,0-4.498-2.129-4.498-5.172c0-3.433,2.195-5.605,4.824-5.605
		c1.455,0,2.368,0.63,2.911,1.521h0.044l0.108-1.282h2.868c-0.043,0.695-0.087,1.586-0.087,3.172V386.776z M66.793,382.018
		c0-0.195-0.021-0.412-0.065-0.607c-0.238-0.869-0.869-1.456-1.781-1.456c-1.217,0-2.173,1.086-2.173,3.021
		c0,1.586,0.782,2.824,2.151,2.824c0.869,0,1.542-0.564,1.76-1.325c0.087-0.261,0.108-0.608,0.108-0.892V382.018z"/>
	<path fill="#0065A5" d="M85.418,382.887c0,3.89-2.76,5.672-5.606,5.672c-3.106,0-5.497-2.043-5.497-5.476
		c0-3.455,2.26-5.649,5.693-5.649C83.245,377.434,85.418,379.672,85.418,382.887z M77.726,382.996c0,1.825,0.761,3.193,2.174,3.193
		c1.303,0,2.107-1.281,2.107-3.215c0-1.564-0.608-3.173-2.107-3.173C78.335,379.802,77.726,381.432,77.726,382.996z"/>
	<path fill="#0065A5" d="M92.245,384.061c0.086,1.369,1.455,2.021,2.998,2.021c1.13,0,2.043-0.151,2.934-0.456l0.435,2.238
		c-1.087,0.456-2.412,0.674-3.847,0.674c-3.606,0-5.671-2.086-5.671-5.411c0-2.694,1.673-5.671,5.367-5.671
		c3.433,0,4.737,2.673,4.737,5.302c0,0.565-0.065,1.064-0.109,1.304H92.245z M96.134,381.801c0-0.804-0.348-2.151-1.868-2.151
		c-1.391,0-1.956,1.282-2.043,2.151H96.134z"/>
	<path fill="#0065A5" d="M103.352,381.258c0-1.391-0.043-2.564-0.087-3.563h2.868l0.152,1.478h0.044
		c0.781-1.108,1.998-1.717,3.541-1.717c2.325,0,4.411,2.021,4.411,5.41c0,3.868-2.455,5.693-4.823,5.693
		c-1.282,0-2.282-0.521-2.76-1.217h-0.044v5.279h-3.303V381.258z M106.654,383.756c0,0.262,0.022,0.479,0.065,0.695
		c0.217,0.892,0.978,1.564,1.934,1.564c1.435,0,2.281-1.194,2.281-2.998c0-1.695-0.76-2.977-2.237-2.977
		c-0.935,0-1.761,0.695-1.978,1.673c-0.043,0.174-0.065,0.392-0.065,0.587V383.756z"/>
	<path fill="#0065A5" d="M118.5,385.451c0.608,0.369,1.868,0.782,2.847,0.782c0.999,0,1.412-0.326,1.412-0.869
		c0-0.565-0.326-0.825-1.543-1.238c-2.216-0.739-3.063-1.935-3.042-3.194c0-1.999,1.695-3.498,4.324-3.498
		c1.238,0,2.325,0.304,2.977,0.63l-0.564,2.281c-0.479-0.261-1.413-0.608-2.304-0.608c-0.804,0-1.26,0.326-1.26,0.848
		s0.412,0.782,1.717,1.238c2.021,0.695,2.846,1.738,2.867,3.281c0,1.999-1.542,3.455-4.584,3.455c-1.391,0-2.629-0.326-3.434-0.761
		L118.5,385.451z"/>
	<path fill="#0065A5" d="M129.671,386.56c0-1.195,0.805-2.021,1.956-2.021c1.13,0,1.912,0.804,1.934,2.021
		c0,1.151-0.782,1.999-1.978,1.999C130.476,388.559,129.671,387.711,129.671,386.56z"/>
	<path fill="#0065A5" d="M145.709,388.037c-0.587,0.282-1.694,0.5-2.955,0.5c-3.433,0-5.628-2.108-5.628-5.433
		c0-3.107,2.13-5.649,6.084-5.649c0.869,0,1.825,0.152,2.521,0.413l-0.521,2.455c-0.391-0.174-0.978-0.326-1.847-0.326
		c-1.738,0-2.868,1.239-2.847,2.978c0,1.934,1.304,2.977,2.912,2.977c0.782,0,1.391-0.131,1.89-0.348L145.709,388.037z"/>
	<path fill="#0065A5" d="M159.966,382.887c0,3.89-2.76,5.672-5.605,5.672c-3.107,0-5.498-2.043-5.498-5.476
		c0-3.455,2.26-5.649,5.693-5.649C157.793,377.434,159.966,379.672,159.966,382.887z M152.274,382.996
		c0,1.825,0.76,3.193,2.172,3.193c1.305,0,2.108-1.281,2.108-3.215c0-1.564-0.608-3.173-2.108-3.173
		C152.882,379.802,152.274,381.432,152.274,382.996z"/>
	<path fill="#0065A5" d="M164.186,381.084c0-1.326-0.043-2.434-0.087-3.39h2.803l0.131,1.434h0.065
		c0.456-0.695,1.412-1.694,3.216-1.694c1.391,0,2.455,0.717,2.911,1.825h0.044c0.412-0.565,0.869-1,1.391-1.304
		c0.586-0.326,1.238-0.521,2.021-0.521c2.042,0,3.585,1.434,3.585,4.628v6.258h-3.216v-5.78c0-1.542-0.499-2.434-1.564-2.434
		c-0.782,0-1.304,0.521-1.542,1.152c-0.065,0.238-0.109,0.564-0.109,0.848v6.214h-3.216v-5.976c0-1.325-0.478-2.238-1.542-2.238
		c-0.848,0-1.348,0.652-1.543,1.174c-0.109,0.261-0.131,0.564-0.131,0.848v6.192h-3.216V381.084z"/>
	<path fill="#0065A5" d="M184.072,389.167l4.649-15.753h2.195l-4.65,15.753H184.072z"/>
</g>
</svg>
