<?xml version="1.0" encoding="utf-8"?>
<!-- Generator: Adobe Illustrator 16.0.0, SVG Export Plug-In . SVG Version: 6.00 Build 0)  -->
<!DOCTYPE svg PUBLIC "-//W3C//DTD SVG 1.1//EN" "http://www.w3.org/Graphics/SVG/1.1/DTD/svg11.dtd">
<svg version="1.1" id="Layer_1" xmlns="http://www.w3.org/2000/svg" xmlns:xlink="http://www.w3.org/1999/xlink" x="0px" y="0px"
	 width="218.432px" height="164.57px" viewBox="0 0 218.432 164.57" enable-background="new 0 0 218.432 164.57"
	 xml:space="preserve">
<g>
	<g>
		<g>
			<path fill="#FFFFFF" stroke="#FFFFFF" stroke-width="0.3828" stroke-linejoin="round" d="M187.526,45.93
				c0.729-1.299,2.55-4.537,2.55-4.537l-21.319,3.191c0,0-2.131,3.916-2.5,4.609c-0.927,0.119-71.13,10.732-71.13,10.732
				l2.706-5.392l-21.036,3.167c0,0-2.588,4.854-3.028,5.59c-0.808,0.094-10.541,1.506-13.429,1.971
				c0.884-1.633,2.989-5.514,2.989-5.514l-24.093,3.637c-0.909,0.122-8.787,1.412-12.774,8.363c-0.03,0.025-21.7,39.671-21.7,39.671
				l177.437-26.902c0.072-0.016,0.338-0.119,0.338-0.119c1.77-0.473,6.194-1.96,8.719-5.986l0.073-0.141
				c0.083-0.088,19.553-35.818,19.553-35.818S190.825,45.48,187.526,45.93z"/>
			<path fill="#231F20" d="M215.282,38.551c0,0-17.149,2.686-18.232,2.862c-0.56-0.905-2.56-3.915-2.56-3.915l-0.601,0.059
				l-26.896,4.16c0,0-2.098,3.895-2.474,4.609c-0.93,0.145-58.086,8.804-59.389,8.896c-0.49-0.811-2.807-4.516-2.807-4.516
				l-27.307,4.127c0,0-2.601,4.854-3.057,5.557c-0.216,0.063-0.804,0.152-1.125,0.203c-0.549-0.846-3.044-4.66-3.044-4.66
				l-28.875,4.363c-1.054,0.157-10.169,1.591-14.935,9.811L0,114.015l3.049,4.678l180.152-27.359
				c0.883-0.109,2.554-0.607,2.697-0.668c1.865-0.631,6.767-2.529,10.397-7.002l1.028-1.548c0.049-0.084,0.147-0.253,20.808-38.198
				l0.3-0.487L215.282,38.551z"/>
			<g>
				<g>
					<defs>
						<path id="SVGID_1_" d="M181.341,1.823L147.7,6.825l-46.223,6.952c-0.452,0.084-0.803,0.33-0.997,0.77L81.076,51.08
							c-0.258,0.49-0.186,1.026,0.105,1.458c0.342,0.452,0.888,0.646,1.324,0.571c0,0,11.818-1.742,15.692-2.352
							C95.871,55.359,44.825,155.56,44.825,155.56c-0.105,0.254-0.105,0.422-0.105,0.664c0,0.473,0.127,0.871,0.542,1.123
							c0.545,0.381,1.302,0.33,1.763-0.156L178.46,27.738c0.462-0.397,0.596-1.083,0.251-1.624
							c-0.251-0.542-0.803-0.862-1.421-0.757c0,0-10.568,1.599-15.333,2.312c3.98-4.566,20.639-23.607,20.639-23.607
							c0.213-0.182,0.348-0.545,0.348-0.892c0-0.229-0.059-0.439-0.191-0.668C182.491,1.992,181.919,1.717,181.341,1.823z"/>
					</defs>
					<clipPath id="SVGID_2_">
						<use xlink:href="#SVGID_1_"  overflow="visible"/>
					</clipPath>
					<g clip-path="url(#SVGID_2_)">
						<path fill="#EE732C" d="M181.341,1.823L147.7,6.825l-46.223,6.952c-0.452,0.084-0.803,0.33-0.997,0.77L81.076,51.08
							c-0.258,0.49-0.186,1.026,0.105,1.458c0.342,0.452,0.888,0.646,1.324,0.571c0,0,11.818-1.742,15.692-2.352
							C95.871,55.359,44.825,155.56,44.825,155.56c-0.105,0.254-0.105,0.422-0.105,0.664c0,0.473,0.127,0.871,0.542,1.123
							c0.545,0.381,1.302,0.33,1.763-0.156L178.46,27.738c0.462-0.397,0.596-1.083,0.251-1.624
							c-0.251-0.542-0.803-0.862-1.421-0.757c0,0-10.568,1.599-15.333,2.312c3.98-4.566,20.639-23.607,20.639-23.607
							c0.213-0.182,0.348-0.545,0.348-0.892c0-0.229-0.059-0.439-0.191-0.668C182.491,1.992,181.919,1.717,181.341,1.823z"/>
						<g>
							<g>
								<path fill="#DA261B" d="M186.335,0.812l-7.875,1.011c-0.144,0.046-4.714,2.473-4.857,2.524
									c-18.74,8.436-49.879,12.229-58.094,13.209c5.18-0.554,19.625-1.708,36.278-1.112
									c-17.991,12.766-30.521,29.831-30.521,29.831L36.774,169.568c2.263-2.229,149.027-145.584,150.15-146.735
									c-1.453,0.22-21.483,2.936-21.483,2.936S185.377,1.895,186.335,0.812z"/>
								<path fill="#DA261B" d="M115.509,17.556c-1.323,0.097-2.103,0.204-2.103,0.204S114.186,17.653,115.509,17.556z"/>
							</g>
							<path fill="#DA261B" d="M97.559,51.295l3.116-2.27l4.385-8.83c0,0-16.22,1.243-22.339,10.867
								c-0.148,0.17-1.785,2.301-1.903,2.517C81.816,53.455,97.559,51.295,97.559,51.295L97.559,51.295z"/>
						</g>
					</g>
				</g>
			</g>
			<path fill="#231F20" d="M178.591,23.662c0,0-3.487,0.524-6.058,0.909c2.824-3.133,15.349-17.535,15.349-17.535L183.23,0
				l-0.583,0.076l-0.627,0.115L99.863,12.458l-0.245,0.456C99.301,13.641,79.613,50.732,79.14,51.57l-0.313,0.482l4.487,6.654
				l0.583-0.08c0,0,6.787-1.045,9.434-1.454c-6.846,13.468-50.027,98.155-50.374,98.834l-0.215,0.52l5.341,8.043L183.957,30.775
				l-4.777-7.181L178.591,23.662z M46.094,156.224L46.094,156.224L46.094,156.224c1.374-2.766,51.269-100.806,54.433-106.912
				c0.072-0.207,0.148-0.287,0.148-0.287s-17.383,2.57-18.365,2.718c0.411-0.782,18.217-34.474,19.358-36.525
				c0.292-0.081,46.198-6.973,46.198-6.973s32.294-4.833,33.703-5.074c-0.932,1.074-23.156,26.432-23.156,26.432
				s17.607-2.625,19.092-2.854C176.386,27.84,48.352,153.98,46.094,156.224z"/>
			<path fill="#FFFFFF" d="M187.526,45.93c0.729-1.299,2.55-4.537,2.55-4.537l-21.319,3.191c0,0-2.131,3.916-2.5,4.609
				c-0.927,0.119-71.13,10.732-71.13,10.732l2.706-5.392l-21.036,3.167c0,0-2.588,4.854-3.028,5.59
				c-0.808,0.094-10.541,1.506-13.429,1.971c0.884-1.633,2.989-5.514,2.989-5.514l-24.093,3.637
				c-0.909,0.122-8.787,1.412-12.774,8.363c-0.03,0.025-21.7,39.671-21.7,39.671l177.437-26.902
				c0.072-0.016,0.338-0.119,0.338-0.119c1.77-0.473,6.194-1.96,8.719-5.986l0.073-0.141c0.083-0.088,19.553-35.818,19.553-35.818
				S190.825,45.48,187.526,45.93z"/>
			<g>
				<path fill="#00693F" d="M151.646,58.627L151.646,58.627c-0.885-1.391-2.699-1.518-3.677-1.467c-0.051,0-7.814,1.15-7.814,1.15
					c-0.298,0.071-6.188,1.251-7.876,4.578c0-0.021-2.749,5.078-2.749,5.078l8.465-1.369l1.193-2.24
					c1.315-2.242,3.192-3.074,4.583-3.426c0,0,0.3-0.051,0.547-0.098c-0.581,1.054-4.247,7.887-4.247,7.887l-5.894,0.867
					c-0.211,0.029-5.676,0.646-7.835,4.309l-4.825,8.812c-0.225,0.533-0.482,1.2-0.482,1.885c0,0.562,0.08,1.027,0.453,1.566
					c1.032,1.547,3.146,1.715,4.266,1.635c0.955-0.088,12.636-1.908,12.636-1.908l13.282-24.345
					C152.187,60.391,152.085,59.439,151.646,58.627z M135.345,77.363c0,0-3.317,6-3.459,6.3c-0.222,0.033-0.617,0.123-0.617,0.123
					c-0.437,0-1.299,0-1.693-0.605c-0.046-0.178-0.109-0.305-0.109-0.508c0-0.152,0.038-0.316,0.063-0.533l3.505-6.35
					c1.304-2.115,3.125-2.99,4.492-3.307c0,0,0.273-0.025,0.484-0.056c-0.484,0.96-2.691,4.935-2.691,4.935H135.345z"/>
				<path fill="#00693F" d="M109.815,64.99L109.815,64.99c-0.883-1.42-2.684-1.529-3.698-1.483c-0.085,0-7.087,1.087-7.087,1.087
					c-0.254,0.008-6.347,0.701-9.316,6.164l-9.839,18.082c-0.584,1.027-1.057,2.385-0.19,3.703c1.028,1.568,3.066,1.693,4.246,1.643
					c0.059,0,8.752-1.328,8.752-1.328c0.968-0.221,3.941-1.227,5.589-3.654c0-0.051,11.543-21.185,11.543-21.185
					C110.037,67.512,110.629,66.153,109.815,64.99z M102.417,67.266C101.778,68.56,91.58,87.292,91.55,87.292
					c-1.32,2.15-3.121,2.938-4.478,3.256c0,0-0.229,0.08-0.47,0.117c0.639-1.223,10.905-20.025,10.905-20.025
					c1.201-1.996,2.973-2.889,4.199-3.239C101.707,67.401,102.066,67.363,102.417,67.266z"/>
				<path fill="#00693F" d="M172.017,49.312c0,0-2.343,4.389-2.474,4.566c-0.344,0.063-5.146,0.828-5.146,0.828
					c-0.245,0.021-6.478,0.973-9.489,5.996c0,0.035-9.889,18.195-9.889,18.195c-0.318,0.63-0.596,1.416-0.596,2.215
					c0,0.512,0.087,1.027,0.405,1.467c0.98,1.634,3.09,1.751,4.216,1.726c0.084-0.041,12.752-1.949,12.752-1.949l18.731-34.34
					L172.017,49.312z M167.692,57.4c-0.698,1.154-12.215,22.432-12.302,22.593c-0.241,0.017-0.63,0.051-0.63,0.051
					c-0.445,0.063-1.303-0.034-1.653-0.575c-0.093-0.117-0.118-0.312-0.118-0.482c0-0.151,0.025-0.38,0.08-0.498l9.595-17.725
					c1.275-2.137,3.175-2.975,4.472-3.315C167.136,57.448,167.408,57.439,167.692,57.4z"/>
				<path fill="#00693F" d="M44.72,83.145l-10.415,1.56l-1.911,3.467c0,0,1.441-0.195,1.987-0.297
					c-0.546,1.1-6.326,11.68-6.326,11.68l-3.451,0.533l13.874-25.363c1.509-2.68,3.941-3.408,5.079-3.539
					c-0.06,0.072-4.521,8.33-4.521,8.33l8.393-1.272l6.479-11.814L39.942,68.56c-0.22,0.042-6.254,0.931-9.036,5.709
					c0,0-13.54,24.883-16.174,29.682c-0.258,0.551-0.46,0.82-0.46,0.82l16.394-2.453c0.938-0.283,4.08-1.207,5.67-3.773
					C36.335,98.496,44.72,83.145,44.72,83.145z"/>
				<path fill="#00693F" d="M121.731,65.274l2.449-4.511l-8.424,1.318c-5.404,10.055-16.211,29.716-16.211,29.716l8.482-1.26
					l8.576-15.7l1.242-2.288c1.185-2.177,2.952-3.154,4.538-3.377l3.933-0.635l4.755-8.782
					C126.95,60.42,124.017,62.572,121.731,65.274z"/>
				<path fill="#00693F" d="M71.177,70.885L71.177,70.885c-0.892-1.378-2.693-1.488-3.716-1.438l-7.78,1.193
					c-0.322,0-6.204,1.226-7.857,4.508c0-0.01-2.782,5.015-2.782,5.015l8.503-1.265l1.192-2.246
					c1.264-2.207,3.171-3.137,4.571-3.458c0,0,0.275-0.052,0.516-0.077c-0.596,1.058-4.245,7.803-4.245,7.803l-5.907,0.883
					c-0.194,0-5.657,0.593-7.784,4.261c0,0-0.046,0.121-0.153,0.297c-0.787,1.422-4.668,8.578-4.668,8.578
					c-0.245,0.586-0.499,1.248-0.499,2.014c0,0.471,0.135,0.98,0.423,1.467c1.035,1.635,3.099,1.768,4.271,1.693
					c0.325-0.025,12.668-1.928,12.668-1.928l13.248-24.374C71.718,72.652,71.718,71.748,71.177,70.885z M51.342,96.019
					c-0.132,0.025-0.609,0.076-0.609,0.076c-0.393,0.025-1.239-0.051-1.611-0.617c-0.105-0.123-0.151-0.414-0.151-0.643
					c0-0.131,0.046-0.262,0.118-0.482l3.509-6.359c1.227-2.178,3.133-2.959,4.453-3.289c0,0,0.253-0.035,0.494-0.125
					C57.05,85.599,51.511,95.718,51.342,96.019z"/>
				<path fill="#00693F" d="M85.672,66.598l2.887-5.471l-8.426,1.293L64.391,91.318c-0.47,0.998-0.867,2.273-0.063,3.518
					c1.014,1.678,3.1,1.783,4.229,1.746c2.917-0.414,6.059-0.885,8.144-1.213c1.1-0.195,1.759-0.35,1.844-0.35l0,0
					c-0.207-0.191-0.381-0.354-0.537-0.572c-0.156-0.166-0.304-0.373-0.427-0.619c-0.173-0.178-0.288-0.379-0.385-0.6
					c0-0.098-0.038-0.195-0.084-0.195c-0.025-0.143-0.084-0.252-0.097-0.371c-0.084-0.195-0.123-0.422-0.143-0.592l0,0
					c-3.007,0.49-4.935,0.787-5.549,0.854c0.64-1.158,12.314-22.495,12.487-22.816c0.123-0.034,1.437-0.221,3.75-0.601
					c0-0.017,0-0.042,0-0.042v0.025c0,0,0.046-0.068,0.046-0.094c0,0,0,0.025-0.046,0.068c0.871-1.447,1.861-2.719,2.914-3.629
					C87.921,66.225,85.672,66.598,85.672,66.598z"/>
				<path fill="#00693F" d="M180.781,66.801c0.353,0,11.884-1.751,11.884-1.751l8.701-15.979l-13.755,2.102
					c-0.196,0-6.042,0.457-9.151,5.607l-10.156,18.715c-0.474,1.041-0.896,2.326-0.066,3.586c0.962,1.522,2.934,1.699,4.098,1.653
					c3.662-0.528,7.335-1.069,8.866-1.315c0.939-0.236,4.042-1.234,5.724-3.784c0-0.021,4.33-8.046,4.33-8.046l-8.446,1.336
					l-2.703,4.98c-1.268,2.106-3.082,2.932-4.436,3.238c0,0-0.239,0.025-0.509,0.103c0.471-0.846,2.082-3.811,2.082-3.811
					S180.244,67.946,180.781,66.801z M186.071,57.109c1.257-2.063,3.135-2.893,4.482-3.213c0,0,0.169-0.025,0.491-0.025
					c-0.491,0.857-4.809,8.719-4.809,8.719l-3.428,0.506L186.071,57.109z"/>
			</g>
		</g>
	</g>
</g>
</svg>
