<?xml version="1.0" encoding="utf-8"?>
<!-- Generator: Adobe Illustrator 16.0.0, SVG Export Plug-In . SVG Version: 6.00 Build 0)  -->
<!DOCTYPE svg PUBLIC "-//W3C//DTD SVG 1.1//EN" "http://www.w3.org/Graphics/SVG/1.1/DTD/svg11.dtd">
<svg version="1.1" id="Layer_1" xmlns="http://www.w3.org/2000/svg" xmlns:xlink="http://www.w3.org/1999/xlink" x="0px" y="0px"
	 width="175.754px" height="104.818px" viewBox="0 0 175.754 104.818" enable-background="new 0 0 175.754 104.818"
	 xml:space="preserve">
<g>
	<path fill="#E2B846" d="M174.452,52.414c1.3,2.713,3.759,10.361-5.464,17.041c-0.372,2.605-2.176,9.641-10.852,11.734
		c-1.365,2.066-5.725,7.619-12.922,7.277c-1.611,2.049-6.058,6.438-13.807,5.086c-1.776,1.602-6.401,4.787-13.751,3.107
		c-2.257,2.098-8.796,6.244-20.052-1.643c-0.685-0.48-1.488-0.846-2.246-1.1c0.159,0.834,0.236,1.572,0.236,1.848
		c-0.001,0.537-0.047,1.094-0.136,1.66c-0.101,0.646-0.247,1.242-0.435,1.785c-0.193,0.561-0.44,1.104-0.734,1.623
		c-1.37,2.42-3.677,3.984-6.245,3.984h-0.001c-2.121,0-4.061-1.061-5.449-2.791c-1.294-1.611-2.113-3.82-2.113-6.26v-0.002l0,0
		c0-0.291,0.077-1.031,0.234-1.848c-0.758,0.254-1.562,0.619-2.249,1.1c-11.255,7.885-17.792,3.734-20.047,1.637
		c-7.353,1.68-11.978-1.504-13.755-3.104c-7.746,1.344-12.192-3.043-13.806-5.09c-7.191,0.342-11.549-5.213-12.916-7.277
		c-8.676-2.092-10.48-9.133-10.854-11.738c-9.672-6.916-7.121-14.264-5.657-17c-1.459-2.75-4.021-10.16,5.662-17.077
		c0.372-2.607,2.175-9.647,10.853-11.737c1.366-2.066,5.723-7.62,12.914-7.277c1.613-2.051,6.061-6.444,13.81-5.091
		c1.778-1.6,6.404-4.778,13.752-3.105c2.255-2.098,8.792-6.245,20.048,1.64c0.688,0.481,1.492,0.847,2.25,1.103
		c-0.157-0.821-0.232-1.561-0.232-1.849h0c0-0.002,0-0.005,0-0.007c0.001-1.612,0.36-3.125,0.977-4.432
		c0.232-0.492,0.5-0.953,0.798-1.376c0.298-0.424,0.635-0.82,1.004-1.182l0,0c0.002-0.002,0.004-0.005,0.007-0.007l0,0
		C84.593,0.763,86.258,0.002,88.051,0h0c2.115,0,4.052,1.061,5.438,2.79c1.292,1.611,2.11,3.82,2.111,6.259v0.003
		c-0.001,0.201-0.034,0.594-0.103,1.069c-0.018,0.12-0.051,0.316-0.102,0.599v0.007c-0.011,0.059-0.022,0.118-0.034,0.176
		c0.761-0.255,1.565-0.618,2.248-1.098V9.798c11.258-7.884,17.796-3.735,20.053-1.638c7.348-1.673,11.972,1.509,13.749,3.109
		c7.752-1.351,12.196,3.043,13.808,5.094c7.195-0.345,11.555,5.211,12.921,7.276c8.676,2.094,10.478,9.133,10.85,11.739
		C178.215,42.057,175.753,49.702,174.452,52.414L174.452,52.414z M166.161,66.861c9.352-6.303,4.61-13.41,4.598-13.43l1.568-1.02
		l-1.568-1.018c0.013-0.021,4.755-7.123-4.596-13.421l-0.797-0.536l-0.031-0.959c-0.001-0.022-0.182-7.666-8.729-9.339l-0.856-0.167
		l-0.426-0.771c-0.011-0.02-3.759-6.95-10.769-6.027l-1.219,0.161l-0.629-1.055c-0.01-0.017-3.459-6.017-11.491-4.151l-1.123,0.261
		l-0.738-0.891c-0.012-0.014-3.812-4.719-11.78-2.448l-1.239,0.354l-0.776-1.042c-0.014-0.018-4.558-6.354-15.793,1.515
		l-0.004-0.005c-1.891,1.327-4.416,2.03-5.881,2.191c-0.421,0.046-0.8,0.052-1.104,0.021h-0.007
		c-1.024-0.109-1.703-0.628-1.923-1.566c-0.124-0.532-0.038-1.047,0.279-1.533c0.189-0.292,0.356-0.854,0.484-1.415
		c0.041-0.181,0.076-0.354,0.105-0.515h0.001c0.018-0.095,0.042-0.257,0.071-0.46c0.039-0.271,0.059-0.464,0.059-0.541V9.049
		c-0.001-1.562-0.495-2.94-1.275-3.914c-0.688-0.857-1.588-1.383-2.521-1.383h0c-0.782,0.001-1.537,0.362-2.159,0.971L85.885,4.73
		c-0.195,0.19-0.381,0.412-0.557,0.662c-0.178,0.254-0.338,0.528-0.475,0.819c-0.386,0.817-0.61,1.786-0.61,2.841V9.06
		c-0.001,0.209,0.098,0.97,0.307,1.786c0.045,0.178,0.096,0.352,0.149,0.515c0.059,0.178,0.111,0.321,0.152,0.414
		c0.034,0.076,0.072,0.148,0.114,0.213l-0.001,0.001c0.311,0.485,0.399,0.997,0.273,1.526c-0.22,0.938-0.897,1.457-1.923,1.567
		c-0.305,0.033-0.687,0.027-1.112-0.02c-1.47-0.161-4-0.865-5.885-2.186c-11.233-7.87-15.775-1.534-15.789-1.517l-0.776,1.042
		l-1.239-0.354c-7.972-2.272-11.773,2.43-11.784,2.443l-0.739,0.891l-1.123-0.261c-8.029-1.867-11.484,4.13-11.494,4.147
		l-0.628,1.054l-1.219-0.16c-7.003-0.92-10.751,6.009-10.762,6.029l-0.426,0.771l-0.856,0.167c-8.548,1.668-8.729,9.314-8.73,9.336
		l-0.032,0.958l-0.804,0.538C0.011,44.59,5.119,51.321,5.133,51.341l0.817,1.112l-0.824,1.109c-0.014,0.018-5.109,6.66,4.785,13.287
		l0.804,0.539l0.032,0.957c0,0.021,0.184,7.666,8.731,9.338l0.856,0.168l0.427,0.77c0.011,0.02,3.759,6.949,10.762,6.031l1.219-0.16
		l0.628,1.053c0.01,0.018,3.465,6.006,11.494,4.146l1.124-0.26l0.738,0.891c0.011,0.014,3.811,4.721,11.783,2.439l1.239-0.354
		l0.777,1.043c0.013,0.018,4.555,6.357,15.789-1.512c1.887-1.32,4.419-2.021,5.888-2.184c0.421-0.045,0.798-0.053,1.102-0.02
		c1.031,0.109,1.712,0.633,1.929,1.572c0.125,0.543,0.037,1.061-0.28,1.541l-0.004-0.002c-0.166,0.268-0.313,0.732-0.432,1.215
		v0.008c-0.021,0.086-0.046,0.197-0.075,0.332c-0.139,0.65-0.205,1.193-0.205,1.363l0,0v0.002c0,1.562,0.495,2.941,1.277,3.914
		c0.688,0.857,1.593,1.385,2.532,1.385h0.001c1.167,0,2.275-0.816,2.991-2.08c0.166-0.293,0.314-0.625,0.44-0.992
		c0.133-0.385,0.23-0.766,0.289-1.139c0.05-0.322,0.076-0.686,0.076-1.09c0-0.264-0.138-1.301-0.435-2.234
		c-0.052-0.164-0.106-0.316-0.164-0.449c-0.04-0.094-0.078-0.172-0.11-0.229l-0.002,0.002c-0.009-0.012,0.03,0.059-0.068-0.113
		h0.002c-0.269-0.455-0.338-0.938-0.223-1.436c0.218-0.941,0.897-1.465,1.928-1.572c0.304-0.031,0.681-0.025,1.101,0.021
		c1.468,0.16,4.004,0.861,5.89,2.184c11.235,7.873,15.779,1.537,15.793,1.52l0.776-1.045l1.239,0.355
		c7.97,2.277,11.769-2.432,11.779-2.445l0.739-0.893l1.123,0.262c8.031,1.867,11.482-4.125,11.492-4.143l0.628-1.055l1.22,0.16
		c7.011,0.92,10.759-6.008,10.77-6.027l0.426-0.771l0.856-0.168c8.547-1.672,8.729-9.312,8.73-9.334l0.031-0.957L166.161,66.861
		L166.161,66.861z M94.296,90.846c-0.001,0-0.002-0.002-0.003-0.004c0,0-0.001-0.002-0.002-0.004
		c-0.008-0.012-0.015-0.023-0.022-0.035l-0.012-0.023c0.007,0.012,0.021,0.037,0.036,0.062L94.296,90.846L94.296,90.846z
		 M80.49,9.052L80.49,9.052c0-0.002,0-0.005,0-0.007L80.49,9.052L80.49,9.052z"/>
	<path fill-rule="evenodd" clip-rule="evenodd" fill="#FFFFFF" d="M172.327,52.412c0,0,5.772,8.662-5.118,16.002
		c0,0-0.22,9.154-10.247,11.115c0,0-4.363,8.068-12.653,6.982c0,0-4.143,7.186-13.516,5.006c0,0-4.579,5.672-13.737,3.055
		c0,0-5.635,7.832-18.372-1.094c-2.514-1.762-6.364-2.229-5.992-1.666c0.707,1.096,1.028,3.463,1.028,3.953
		c-0.003,4.004-2.623,7.176-5.673,7.176c-3.062,0-5.688-3.172-5.688-7.176c0-0.49,0.322-2.859,1.024-3.949
		c0.375-0.57-3.473-0.1-5.992,1.662c-12.737,8.922-18.369,1.086-18.369,1.086c-9.16,2.621-13.741-3.049-13.741-3.049
		c-9.371,2.17-13.517-5.01-13.517-5.01c-8.281,1.086-12.646-6.982-12.646-6.982C9.092,77.562,8.871,68.404,8.871,68.404
		C-2.674,60.67,3.623,52.447,3.623,52.447s-6.296-8.312,5.252-16.039c0,0,0.219-9.16,10.248-11.117c0,0,4.362-8.07,12.645-6.982
		c0,0,4.146-7.191,13.517-5.012c0,0,4.583-5.663,13.741-3.051c0,0,5.633-7.832,18.369,1.091c2.52,1.766,6.368,2.236,5.995,1.661
		c-0.702-1.088-1.026-3.459-1.023-3.946c0-4.006,2.624-7.173,5.685-7.176c3.049,0,5.673,3.172,5.673,7.176
		c-0.001,0.487-0.318,2.857-1.028,3.95c-0.371,0.57,3.479,0.101,5.992-1.665c12.738-8.92,18.374-1.089,18.374-1.089
		c9.155-2.61,13.736,3.056,13.736,3.056c9.376-2.177,13.515,5.016,13.515,5.016c8.289-1.091,12.652,6.98,12.652,6.98
		c10.027,1.962,10.245,11.119,10.245,11.119C178.103,43.755,172.327,52.412,172.327,52.412L172.327,52.412z"/>
	<path fill-rule="evenodd" clip-rule="evenodd" fill="#E2B846" d="M170.141,52.51c0.106-0.449,0.369-1.401,0.636-2.143
		c1.15-3.155,1.119-5.667-1.224-8.69c-1.229-1.583-3.854-3.502-3.948-3.882c-1.666-6.852-3.247-7.915-9.672-9.863
		c-1.093-0.33-1.625-4.234-5.376-6.215c-2.396-1.264-5.487-1.184-7.475-0.951c-1.416-2.885-4.014-4.793-7.186-5.543
		c-1.938-0.465-5.646,0.373-5.849,0.193c-3.755-3.142-4.892-3.71-7.858-3.977c-2.04-0.181-5.525,0.798-5.559,0.737
		c-1.35-1.875-3.154-2.318-5.076-2.819c-6.441-1.682-10.68,4.108-16.54,5.591c-3.573,0.905-4.745-0.735-4.777-0.677
		c0.585-1.093,3.021-4.271,0.93-8.212c-0.64-1.223-1.797-1.885-3.063-1.918c-1.258,0.034-2.478,0.722-3.182,1.969
		c-2.152,3.813,0.294,7.234,0.975,8.185c0.058,0.079-1.259,1.576-4.717,0.653c-5.841-1.554-10.098-7.273-16.544-5.593
		c-1.922,0.499-3.348,1.231-5.067,2.817c-0.02,0.014-3.535-0.83-5.56-0.737c-2.978,0.141-4.109,0.837-7.865,3.978
		c-0.205,0.178-3.908-0.66-5.845-0.196c-3.177,0.751-5.771,2.659-7.184,5.543c-1.995-0.231-5.077-0.314-7.478,0.95
		c-3.751,1.981-4.29,5.883-5.372,6.215c-6.43,1.947-8.012,3.009-9.68,9.859c-0.091,0.384-2.718,2.3-3.948,3.884
		c-2.344,3.021-2.372,5.536-1.227,8.69c0.273,0.741,0.531,1.693,0.636,2.144c-0.105,0.445-0.361,1.4-0.636,2.143
		c-1.147,3.156-1.119,5.67,1.228,8.686c1.227,1.59,3.855,3.496,3.945,3.887c1.669,6.85,3.25,7.92,9.679,9.863
		c1.083,0.326,1.619,4.238,5.371,6.219c2.399,1.256,5.484,1.178,7.476,0.947c1.414,2.885,4.011,4.789,7.185,5.547
		c1.935,0.459,5.637-0.375,5.847-0.203c3.755,3.145,4.884,3.836,7.862,3.98c2.024,0.096,5.542-0.754,5.557-0.74
		c1.722,1.592,3.146,2.322,5.068,2.822c6.447,1.684,10.706-4.035,16.545-5.592c3.458-0.924,4.775,0.568,4.714,0.648
		c-0.675,0.953-3.123,4.373-0.973,8.186c0.703,1.254,1.922,1.938,3.185,1.971c1.261-0.033,2.42-0.688,3.06-1.91
		c2.093-3.949-0.343-7.115-0.928-8.217c0.033,0.061,1.204-1.58,4.777-0.676c5.86,1.477,10.098,7.277,16.538,5.59
		c1.926-0.498,3.729-0.939,5.078-2.816c0.035-0.059,3.517,0.92,5.558,0.734c2.966-0.26,4.099-0.83,7.856-3.977
		c0.208-0.172,3.913,0.662,5.852,0.203c3.175-0.754,5.771-2.66,7.187-5.543c1.987,0.23,5.076,0.309,7.475-0.953
		c3.752-1.973,4.286-5.887,5.376-6.213c6.428-1.945,8.006-3.012,9.675-9.861c0.091-0.395,2.72-2.297,3.947-3.885
		c2.344-3.02,2.372-5.529,1.225-8.689C170.51,53.912,170.243,52.955,170.141,52.51L170.141,52.51z M88.027,98.359h-0.041
		c1.211,0.041,1.752-1.852,1.607-3.303c-0.294-2.953-1.593-2.893-1.586-2.9c-0.015,0.025-1.234,0.359-1.584,2.902
		C86.223,96.5,86.679,98.375,88.027,98.359L88.027,98.359z M88.033,6.866l-0.04-0.001c1.211-0.036,1.882,1.87,1.605,3.308
		c-0.214,1.099-0.853,2.97-1.587,2.898c-0.692,0.052-1.372-1.8-1.584-2.898C86.148,8.735,86.686,6.85,88.033,6.866L88.033,6.866z"/>
	<path fill-rule="evenodd" clip-rule="evenodd" fill="#FFFFFF" d="M88.01,88.934c6.588-4.516,10.924,0.613,16.828,3.836
		c3.138,1.711,8.947,0.109,11.113-2.281c4.624,1.244,9.996,0.619,13.407-3.119c4.918,1.254,9.692-1.242,12.784-4.992
		c4.854,0.691,9.622-2.797,12.165-6.855c4.904-0.975,8.393-5.387,9.662-9.98c4.09-2.447,6.645-8.205,4.381-12.922
		c2.264-4.715-0.291-10.473-4.38-12.928c-1.27-4.589-4.751-8.998-9.663-9.978c-2.541-4.052-7.31-7.547-12.162-6.858
		c-3.09-3.744-7.864-6.243-12.782-4.986c-3.412-3.746-8.784-4.369-13.407-3.123c-2.168-2.397-7.979-3.998-11.115-2.285
		c-5.9,3.221-10.238,8.351-16.827,3.84c-6.607,4.508-10.942-0.621-16.848-3.844c-3.129-1.71-8.947-0.111-11.112,2.286
		c-4.629-1.25-9.996-0.624-13.409,3.121c-4.921-1.257-9.689,1.24-12.78,4.986c-4.856-0.692-9.623,2.803-12.166,6.854
		c-4.91,0.98-8.398,5.387-9.664,9.979c-4.09,2.451-6.649,8.212-4.377,12.925c-2.27,4.715,0.287,10.475,4.375,12.926
		c1.266,4.59,4.755,9.002,9.662,9.977c2.545,4.057,7.306,7.553,12.164,6.859c3.091,3.752,7.86,6.246,12.78,4.992
		c3.414,3.736,8.78,4.365,13.408,3.121c2.164,2.395,7.984,3.994,11.113,2.281C77.067,89.545,81.405,84.416,88.01,88.934
		L88.01,88.934z"/>
	<path fill-rule="evenodd" clip-rule="evenodd" fill="#1D1D1B" d="M160.062,65.736c0,0.42-0.105,0.811-0.315,1.172
		c-0.21,0.363-0.496,0.648-0.858,0.859c-0.362,0.207-0.753,0.312-1.174,0.312c-0.417,0-0.808-0.105-1.17-0.312
		c-0.363-0.211-0.649-0.496-0.859-0.859c-0.209-0.361-0.314-0.752-0.314-1.172c0-0.418,0.105-0.809,0.314-1.172
		c0.21-0.363,0.496-0.65,0.859-0.859c0.362-0.209,0.753-0.312,1.17-0.312c0.421,0,0.812,0.104,1.174,0.312s0.648,0.496,0.858,0.859
		S160.062,65.318,160.062,65.736L160.062,65.736z M159.606,65.736c0-0.523-0.185-0.969-0.555-1.338
		c-0.369-0.369-0.815-0.555-1.338-0.555s-0.968,0.186-1.338,0.555c-0.369,0.369-0.554,0.814-0.554,1.338
		c0,0.521,0.185,0.969,0.554,1.338c0.37,0.369,0.815,0.555,1.338,0.555s0.969-0.186,1.338-0.555
		C159.422,66.705,159.606,66.258,159.606,65.736L159.606,65.736z M156.651,64.482h1.121c0.318,0,0.548,0.064,0.69,0.191
		c0.142,0.129,0.213,0.301,0.213,0.516c0,0.168-0.054,0.312-0.163,0.436c-0.108,0.123-0.279,0.213-0.513,0.268
		c0.097,0.037,0.167,0.076,0.212,0.117c0.062,0.057,0.13,0.143,0.199,0.254c0.004,0.01,0.14,0.25,0.406,0.725h-0.737
		c-0.24-0.477-0.4-0.762-0.482-0.854c-0.082-0.094-0.164-0.141-0.245-0.141c-0.02,0-0.045,0.002-0.078,0.01v0.984h-0.623V64.482
		L156.651,64.482z M157.274,65.547h0.271c0.181,0,0.308-0.029,0.381-0.09c0.074-0.059,0.111-0.133,0.111-0.225
		s-0.036-0.168-0.106-0.227c-0.071-0.059-0.19-0.086-0.36-0.086h-0.296V65.547L157.274,65.547z M163.034,47.876v3.681
		c0,0-1.715-0.854-3.752-0.646c0,0-1.532-0.039-1.532,0.891c0,0-0.141,0.504,1.427,0.643c0,0,2.464,0.035,3.928,1.5
		c0,0,1.144,1.18,1.002,2.926c0,0,0.108,2.646-2.317,4.043c0,0-2.114,1.424-5.362,0.992c0,0-2.889-0.465-3.104-0.752l-0.001-3.955
		c0,0,1.931,0.996,3.574,1.031c0,0,2.001,0.039,2.072-0.816c0,0,0.177-0.723-1.819-1.078c0,0-2.717-0.266-3.985-2.553
		c0,0-1.159-2.911,0.942-5.088c0,0,1.7-1.783,4.376-1.609C158.481,47.086,161.035,47.057,163.034,47.876L163.034,47.876z
		 M142.071,47.286l0.005,4.088h4.354l-4.711,10.183h10.997v-3.863h-3.93l4.795-10.408H142.071L142.071,47.286z M136.499,48.164
		c-1.344-1.422-3.916-1.341-5.54-0.625c-2.803,1.427-3.947,4.4-3.778,7.478c0.087,2.574,1.09,5.199,3.577,6.377
		c1.876,0.797,4.343,0.684,5.968-0.689l0.117,0.832h4.452l0.002-14.255l-4.655-0.001L136.499,48.164L136.499,48.164z
		 M134.437,51.657c0,0-2.144-0.102-2.145,2.896c0,0-0.283,2.857,2.215,2.861c0,0,2.069,0.104,2.069-2.896
		C136.576,54.518,136.897,51.733,134.437,51.657L134.437,51.657z M110.658,40.415l-0.001,21.171h6.207c0,0,3.967-0.182,5.784-1.471
		c0,0,4.179-1.846,4.289-9.347c0,0,0.068-6.61-4.253-9.002c0,0-2.247-1.408-5.388-1.352H110.658L110.658,40.415z M116.078,45.157
		l0.003,11.749l1.428-0.004c0,0,1.496-0.033,2.428-1.102c0,0,1.537-1.318,1.537-4.789c0-0.101-0.021-3.884-1.825-5.032
		c0,0-0.834-0.823-2.172-0.823L116.078,45.157L116.078,45.157z M108.837,50.835h-4.863v4.642h4.863V50.835L108.837,50.835z
		 M89.645,61.6V47.34h4.231l0.174,0.887c0,0,1.391-1.175,2.86-1.246c0,0,1.82-0.289,3.107,0.531c0,0,1.998,0.858,2.283,3.714v10.394
		l-4.57-0.002l0.001-8.713c0,0-0.147-1.458-1.576-1.537c-1.37-0.069-1.727,0.429-1.815,1.539v8.693L89.645,61.6L89.645,61.6z
		 M81.35,56.791c1.198,1.424,3.544,1.102,5.245,0.549l1.264-0.57l0.004,3.789c-3.027,1.602-7.51,1.574-10.14-0.734
		c-2.23-2.002-2.592-4.898-2.223-7.797c0.533-2.422,2.593-4.72,5.02-5.231c3.028-0.63,6.055,0.399,7.488,3.138
		c0.706,1.273,0.856,2.662,0.966,4.115L81.35,56.791L81.35,56.791z M83.96,51.977c-0.27-0.821-1.015-1.406-1.889-1.409
		c-1.104,0-1.992,0.929-1.992,2.071c0,0.223,0.031,0.439,0.095,0.639L83.96,51.977L83.96,51.977z M69.834,47.967
		c-1.466-1.492-4.195-1.316-5.882-0.433c-2.541,1.487-3.395,4.261-3.426,7.085c0,2.795,1.258,5.686,3.971,6.771
		c1.627,0.625,3.772,0.428,5.141-0.602c0.169,0.857,0.056,1.828-0.542,2.457c-1.772,1.541-4.6,0.883-6.515,0.146l0.006,4.131
		c2.943,0.998,7.164,1.293,9.705-0.705c1.602-1.344,2.285-3.172,2.343-5.229l0.018-14.512h-4.674L69.834,47.967L69.834,47.967z
		 M67.751,51.479c0,0-2.139-0.11-2.142,2.886c0,0-0.282,2.857,2.213,2.857c0,0,2.075,0.113,2.076-2.887
		C69.898,54.336,70.215,51.554,67.751,51.479L67.751,51.479z M54.961,48.16c-1.34-1.426-3.911-1.342-5.54-0.626
		c-2.796,1.429-3.947,4.401-3.774,7.48c0.088,2.574,1.088,5.199,3.572,6.377c1.884,0.793,4.343,0.684,5.971-0.691l0.116,0.832h4.45
		l0.004-14.253l-4.656-0.002L54.961,48.16L54.961,48.16z M52.898,51.656c0,0-2.143-0.104-2.143,2.889c0,0-0.283,2.861,2.217,2.863
		c0,0,2.071,0.104,2.069-2.895C55.041,54.514,55.36,51.729,52.898,51.656L52.898,51.656z M14.517,40.408l-0.004,21.152l5.135,0.006
		l0.004-8.32l5.155-0.002l-0.017,8.344l5.159-0.002L29.932,40.42h-5.198v7.946l-5.068,0.002l-0.011-7.96L14.517,40.408
		L14.517,40.408z M40.075,48.162c-1.342-1.427-3.916-1.342-5.545-0.63c-2.794,1.431-3.939,4.402-3.771,7.482
		c0.089,2.574,1.085,5.199,3.57,6.375c1.886,0.799,4.344,0.684,5.973-0.689l0.114,0.832l4.455-0.002l0.003-14.255l-4.658,0.004
		L40.075,48.162L40.075,48.162z M38.012,51.655c0,0-2.143-0.106-2.144,2.892c0,0-0.288,2.859,2.209,2.861
		c0,0,2.072,0.102,2.072-2.898C40.149,54.51,40.472,51.726,38.012,51.655L38.012,51.655z M42.135,45.629
		c1.494-0.001,2.7-1.209,2.7-2.704c0-1.492-1.206-2.703-2.699-2.703c-1.496,0-2.704,1.209-2.704,2.704
		C39.432,44.42,40.64,45.629,42.135,45.629L42.135,45.629z M35.706,45.629c1.494-0.001,2.702-1.211,2.699-2.705
		c0.003-1.493-1.206-2.702-2.698-2.702c-1.49,0-2.701,1.207-2.702,2.704C33.006,44.419,34.217,45.628,35.706,45.629L35.706,45.629z"
		/>
</g>
</svg>
