<?xml version="1.0" encoding="utf-8"?>
<!-- Generator: Adobe Illustrator 16.0.0, SVG Export Plug-In . SVG Version: 6.00 Build 0)  -->
<!DOCTYPE svg PUBLIC "-//W3C//DTD SVG 1.1//EN" "http://www.w3.org/Graphics/SVG/1.1/DTD/svg11.dtd">
<svg version="1.1" id="Layer_1" xmlns="http://www.w3.org/2000/svg" xmlns:xlink="http://www.w3.org/1999/xlink" x="0px" y="0px"
	 width="163.371px" height="176.16px" viewBox="0 0 163.371 176.16" enable-background="new 0 0 163.371 176.16"
	 xml:space="preserve">
<g>
	<path fill-rule="evenodd" clip-rule="evenodd" fill="#9B804D" d="M36.733,167.781L8.449,51.79h21.473
		c3.643,0,9.773-5.004,8.292-10.72l-5.716-22.86l0,0c0,0,27.811-9.832,49.283-9.832h0.177c21.473,0,49.254,9.832,49.254,9.832l0,0
		l-5.717,22.86c-1.48,5.715,4.65,10.72,8.323,10.72h21.442l-28.284,115.991H36.733L36.733,167.781z"/>
	<path fill-rule="evenodd" clip-rule="evenodd" fill="#009540" d="M12.921,55.284h17c5.271,0,13.891-6.574,11.669-15.102
		L36.674,20.49c7.671-2.458,28.462-8.617,45.107-8.617s37.584,6.16,45.255,8.617l-4.917,19.722
		c-2.191,8.528,6.427,15.073,11.699,15.073h17l-26.596,109.002H39.488L12.921,55.284L12.921,55.284z"/>
	<path fill-rule="evenodd" clip-rule="evenodd" fill="#FFFFFF" d="M29.922,57.594c6.308,0,16.645-7.551,13.92-18.004l-4.383-17.531
		c8.855-2.754,27.366-7.877,42.323-7.877c14.957,0,33.585,5.153,42.471,7.877l-4.413,17.59
		c-2.665,10.423,7.671,17.945,13.979,17.945h14.038l-25.471,104.383H41.324L15.883,57.594H29.922L29.922,57.594z"/>
	<polygon fill-rule="evenodd" clip-rule="evenodd" fill="#E20613" points="68.572,47.378 68.572,48.147 66.292,48.147 
		66.292,49.036 68.395,49.036 68.395,49.806 66.292,49.806 66.292,50.931 68.691,50.931 68.691,51.701 65.403,51.701 65.403,47.378 
		68.572,47.378 	"/>
	<path fill-rule="evenodd" clip-rule="evenodd" fill="#E20613" d="M69.194,50.369h0.888c0,0.089,0,0.207,0.06,0.296
		c0.059,0.119,0.148,0.208,0.267,0.267c0.148,0.089,0.326,0.118,0.562,0.118c0.267,0,0.474-0.029,0.652-0.118
		c0.177-0.089,0.267-0.237,0.267-0.444c0-0.148-0.06-0.237-0.178-0.326c-0.148-0.059-0.326-0.148-0.622-0.208l-0.444-0.088
		c-0.326-0.089-0.563-0.148-0.741-0.237c-0.177-0.059-0.326-0.178-0.444-0.355c-0.119-0.148-0.208-0.385-0.208-0.681
		c0-0.207,0.06-0.415,0.148-0.592c0.089-0.208,0.267-0.385,0.503-0.533c0.267-0.148,0.593-0.207,1.037-0.207
		c0.296,0,0.563,0.029,0.8,0.148c0.208,0.089,0.385,0.178,0.504,0.326c0.118,0.148,0.207,0.296,0.266,0.444
		c0.06,0.178,0.089,0.326,0.089,0.474h-0.859c-0.029-0.178-0.089-0.326-0.207-0.444C71.416,48.059,71.208,48,70.853,48
		c-0.119,0-0.237,0.03-0.355,0.06c-0.119,0.029-0.208,0.088-0.267,0.177c-0.089,0.059-0.119,0.178-0.119,0.296
		c0,0.148,0.03,0.237,0.119,0.296c0.089,0.06,0.207,0.118,0.326,0.148l1.066,0.267c0.355,0.059,0.622,0.207,0.829,0.355
		c0.207,0.177,0.296,0.444,0.296,0.799c0,0.385-0.119,0.681-0.326,0.889c-0.208,0.207-0.415,0.355-0.682,0.415
		s-0.474,0.089-0.681,0.089c-0.385,0-0.681-0.03-0.948-0.119c-0.237-0.089-0.415-0.237-0.562-0.355
		c-0.119-0.148-0.208-0.326-0.267-0.474C69.224,50.665,69.194,50.517,69.194,50.369L69.194,50.369z"/>
	<polygon fill-rule="evenodd" clip-rule="evenodd" fill="#E20613" points="74.851,48.147 74.851,51.701 73.963,51.701 
		73.963,48.147 72.659,48.147 72.659,47.378 76.154,47.378 76.154,48.147 74.851,48.147 	"/>
	<path fill-rule="evenodd" clip-rule="evenodd" fill="#E20613" d="M77.221,47.289v0.771c0,0.236-0.03,0.444-0.089,0.592
		c-0.029,0.148-0.118,0.267-0.207,0.355c-0.119,0.059-0.237,0.148-0.355,0.178H76.54v-0.326c0.118-0.03,0.207-0.119,0.266-0.208
		c0.089-0.089,0.119-0.237,0.119-0.474H76.54v-0.889H77.221L77.221,47.289z"/>
	<path fill-rule="evenodd" clip-rule="evenodd" fill="#E20613" d="M77.99,51.701v-4.323h1.896c0.445,0,0.8,0.088,1.066,0.326
		c0.267,0.207,0.444,0.474,0.533,0.77c0.119,0.296,0.148,0.622,0.148,0.948c0,0.267,0,0.503-0.06,0.77
		c-0.059,0.267-0.178,0.503-0.296,0.74c-0.148,0.237-0.326,0.415-0.563,0.562c-0.237,0.119-0.533,0.208-0.859,0.208H77.99
		L77.99,51.701z M78.879,48.118v2.813h0.859c0.355,0,0.592-0.118,0.74-0.415c0.178-0.267,0.237-0.622,0.237-1.007
		c0-0.415-0.03-0.711-0.148-0.918c-0.089-0.178-0.237-0.326-0.355-0.385c-0.148-0.06-0.296-0.089-0.474-0.089H78.879L78.879,48.118
		L78.879,48.118z"/>
	<path fill-rule="evenodd" clip-rule="evenodd" fill="#E20613" d="M83.796,48.74v-0.592h0.118c0.385,0,0.651-0.059,0.8-0.207
		c0.148-0.148,0.237-0.326,0.267-0.533h0.681v4.294h-0.829V48.74H83.796L83.796,48.74z"/>
	<path fill-rule="evenodd" clip-rule="evenodd" fill="#E30520" d="M88.86,49.154c0.178,0,0.325-0.059,0.415-0.148
		c0.088-0.089,0.147-0.237,0.147-0.385c0-0.088-0.029-0.207-0.06-0.266c-0.059-0.089-0.118-0.148-0.207-0.208
		c-0.059-0.03-0.148-0.059-0.267-0.059c-0.178,0-0.325,0.059-0.444,0.148c-0.118,0.089-0.147,0.237-0.147,0.385
		c0,0.148,0.029,0.267,0.147,0.385C88.564,49.095,88.683,49.154,88.86,49.154L88.86,49.154z M90.43,50.428
		c0,0.148-0.029,0.296-0.06,0.444c-0.059,0.177-0.147,0.326-0.266,0.444c-0.119,0.148-0.297,0.266-0.504,0.355
		s-0.444,0.119-0.74,0.119c-0.355,0-0.651-0.06-0.889-0.178c-0.237-0.119-0.415-0.296-0.533-0.503
		c-0.089-0.178-0.148-0.385-0.148-0.592c0-0.208,0.03-0.415,0.119-0.592c0.089-0.207,0.267-0.355,0.562-0.503
		c-0.355-0.178-0.533-0.444-0.533-0.829c0-0.237,0.06-0.444,0.178-0.622s0.296-0.326,0.504-0.415
		c0.207-0.089,0.444-0.148,0.71-0.148c0.237,0,0.445,0.03,0.622,0.089c0.178,0.059,0.326,0.148,0.475,0.267
		c0.118,0.089,0.207,0.207,0.266,0.355c0.06,0.119,0.09,0.267,0.09,0.415c0,0.414-0.178,0.681-0.533,0.858
		c0.236,0.119,0.414,0.237,0.533,0.385C90.37,49.954,90.43,50.161,90.43,50.428L90.43,50.428L90.43,50.428z M89.512,50.458
		c0-0.178-0.06-0.326-0.148-0.474c-0.118-0.118-0.296-0.208-0.503-0.208c-0.178,0-0.326,0.06-0.474,0.178
		c-0.119,0.119-0.178,0.267-0.178,0.504c0,0.207,0.059,0.355,0.178,0.474c0.118,0.148,0.296,0.207,0.474,0.207
		c0.147,0,0.267-0.029,0.385-0.118c0.089-0.059,0.148-0.148,0.207-0.237C89.482,50.665,89.512,50.576,89.512,50.458L89.512,50.458
		L89.512,50.458z"/>
	<path fill-rule="evenodd" clip-rule="evenodd" fill="#E20613" d="M94.073,48.503h-0.83c-0.029-0.118-0.059-0.237-0.147-0.296
		c-0.089-0.089-0.208-0.119-0.355-0.119c-0.237,0-0.415,0.119-0.533,0.326c-0.089,0.237-0.148,0.503-0.178,0.859h0.029
		c0.178-0.237,0.444-0.355,0.8-0.355c0.267,0,0.504,0.089,0.711,0.207c0.207,0.119,0.355,0.296,0.444,0.474
		c0.089,0.208,0.147,0.415,0.147,0.651c0,0.296-0.059,0.563-0.178,0.799c-0.118,0.237-0.296,0.444-0.503,0.563
		c-0.207,0.118-0.444,0.178-0.711,0.178c-0.592,0-1.007-0.178-1.214-0.592c-0.237-0.385-0.355-0.918-0.355-1.54
		c0-0.355,0.059-0.711,0.118-1.037s0.207-0.592,0.444-0.829c0.237-0.237,0.593-0.385,1.036-0.385c0.119,0,0.297,0.03,0.475,0.089
		c0.178,0.03,0.296,0.119,0.385,0.208c0.147,0.118,0.237,0.237,0.267,0.326C93.983,48.147,94.043,48.295,94.073,48.503
		L94.073,48.503z M93.303,50.309c0-0.237-0.06-0.415-0.178-0.533c-0.118-0.118-0.267-0.177-0.414-0.177
		c-0.119,0-0.237,0.029-0.326,0.089c-0.089,0.03-0.178,0.119-0.237,0.237c-0.06,0.089-0.089,0.237-0.089,0.415
		c0,0.237,0.06,0.415,0.178,0.562c0.119,0.148,0.297,0.237,0.475,0.237c0.118,0,0.207-0.029,0.296-0.089
		c0.089-0.059,0.178-0.148,0.236-0.266C93.273,50.665,93.303,50.487,93.303,50.309L93.303,50.309L93.303,50.309z"/>
	<path fill-rule="evenodd" clip-rule="evenodd" fill="#E20613" d="M95.909,48.829c0,0.533,0.207,0.799,0.622,0.799
		c0.118,0,0.207-0.029,0.325-0.088c0.089-0.06,0.148-0.119,0.208-0.237c0.059-0.118,0.089-0.237,0.089-0.414
		c0-0.237-0.03-0.415-0.148-0.563s-0.267-0.208-0.474-0.208c-0.089,0-0.207,0-0.297,0.06c-0.088,0.03-0.147,0.118-0.207,0.208
		C95.938,48.503,95.909,48.651,95.909,48.829L95.909,48.829z M95.169,50.694h0.829l0,0c0.029,0.296,0.207,0.444,0.474,0.444
		c0.118,0,0.207-0.029,0.267-0.059c0.089-0.059,0.178-0.118,0.237-0.207c0.059-0.089,0.118-0.237,0.147-0.385
		c0.06-0.148,0.06-0.326,0.06-0.533v-0.029c-0.178,0.237-0.444,0.355-0.829,0.355c-0.178,0-0.355-0.03-0.533-0.089
		c-0.148-0.089-0.297-0.178-0.415-0.296c-0.089-0.119-0.178-0.267-0.236-0.415c-0.06-0.178-0.089-0.355-0.089-0.533
		c0-0.326,0.059-0.622,0.178-0.829c0.118-0.236,0.296-0.414,0.503-0.533c0.237-0.119,0.474-0.178,0.771-0.178
		c0.355,0,0.622,0.089,0.829,0.267c0.207,0.148,0.355,0.355,0.444,0.562c0.118,0.237,0.178,0.474,0.178,0.681
		c0.029,0.237,0.06,0.444,0.06,0.71c0,0.385-0.06,0.741-0.148,1.007c-0.089,0.296-0.178,0.503-0.326,0.681
		c-0.147,0.177-0.325,0.296-0.503,0.385c-0.178,0.059-0.386,0.089-0.593,0.089c-0.237,0-0.444-0.03-0.651-0.119
		c-0.178-0.089-0.326-0.207-0.444-0.385S95.169,50.931,95.169,50.694L95.169,50.694L95.169,50.694z"/>
	<path fill-rule="evenodd" clip-rule="evenodd" fill="#E20613" d="M41.68,124.339c1.037,0,1.896,0.622,2.192,0.948
		c0.059,0.207,0.059,0.385,0.059,0.385v1.51c0,0.06,0,0.119-0.059,0.119H39.34c-0.059,0-0.118,0-0.118-0.06v-1.629
		c0-0.118,0.207-0.325,0.207-0.325C39.784,124.843,40.584,124.339,41.68,124.339L41.68,124.339L41.68,124.339z M39.222,124.843
		c-0.978,0.711-1.392,1.984-1.392,2.813c0,0.739,0.237,1.628,1.037,2.457s1.777,1.096,2.695,1.096c0.681,0,1.451-0.118,2.132-0.562
		c0.326-0.207,0.681-0.592,0.859-0.889h-0.622c-0.651,0.8-1.629,1.126-2.369,1.126c-0.682,0-1.54-0.178-2.281-1.007
		c0,0-0.059-0.119-0.059-0.267v-1.836l0.059-0.06h6.012c0.06-1.096-0.296-1.984-1.037-2.754c-0.74-0.74-1.836-0.947-2.636-0.947
		C41.058,124.014,40.199,124.073,39.222,124.843L39.222,124.843L39.222,124.843L39.222,124.843z"/>
	<path fill-rule="evenodd" clip-rule="evenodd" fill="#E20613" d="M52.224,126.383h-1.362c0-0.682,0.148-1.215,0.415-1.6
		c0.267-0.355,0.592-0.592,0.918-0.711c0.355-0.118,0.652-0.178,0.978-0.178c0.444,0,0.859,0.089,1.214,0.267
		c0.385,0.178,0.651,0.415,0.859,0.771c0.208,0.325,0.326,0.71,0.326,1.185c0,0.533-0.118,0.977-0.385,1.303
		c-0.266,0.355-0.622,0.681-1.066,0.977c-0.503,0.326-0.8,0.563-0.918,0.651c-0.148,0.09-0.267,0.178-0.385,0.297
		c-0.148,0.118-0.237,0.236-0.267,0.355H55.6v1.214h-4.798c0-0.296,0.03-0.562,0.06-0.74c0.059-0.178,0.118-0.355,0.207-0.593
		c0.089-0.207,0.267-0.443,0.503-0.681c0.208-0.267,0.504-0.533,0.859-0.77c0.504-0.386,0.889-0.651,1.096-0.829
		c0.208-0.208,0.386-0.386,0.504-0.563c0.089-0.207,0.148-0.414,0.148-0.681s-0.059-0.503-0.237-0.681
		c-0.178-0.208-0.415-0.297-0.711-0.297c-0.444,0-0.711,0.119-0.829,0.355C52.283,125.672,52.224,125.998,52.224,126.383
		L52.224,126.383z"/>
	<path fill-rule="evenodd" clip-rule="evenodd" fill="#E20613" d="M59.184,126.738c0.296,0,0.533-0.088,0.711-0.236
		s0.266-0.355,0.266-0.622c0-0.178-0.029-0.325-0.118-0.474c-0.089-0.118-0.208-0.207-0.326-0.296
		c-0.148-0.06-0.296-0.089-0.474-0.089c-0.326,0-0.593,0.059-0.771,0.236c-0.178,0.148-0.296,0.355-0.296,0.622
		c0,0.237,0.118,0.415,0.296,0.592C58.65,126.65,58.888,126.738,59.184,126.738L59.184,126.738z M61.908,128.84
		c0,0.237-0.029,0.475-0.148,0.74c-0.089,0.267-0.237,0.504-0.444,0.74c-0.207,0.208-0.503,0.415-0.859,0.563
		c-0.355,0.147-0.77,0.207-1.273,0.207c-0.622,0-1.155-0.089-1.57-0.326c-0.385-0.207-0.681-0.474-0.889-0.799
		c-0.177-0.326-0.266-0.651-0.266-1.007c0-0.326,0.059-0.651,0.207-0.978c0.148-0.325,0.474-0.593,1.007-0.8
		c-0.652-0.267-0.978-0.74-0.978-1.361c0-0.386,0.119-0.741,0.326-1.008c0.208-0.296,0.503-0.532,0.889-0.681
		c0.355-0.148,0.77-0.237,1.244-0.237c0.385,0,0.741,0.06,1.066,0.148c0.296,0.089,0.563,0.237,0.8,0.414
		c0.207,0.148,0.355,0.355,0.474,0.563c0.089,0.236,0.148,0.474,0.148,0.71c0,0.652-0.296,1.126-0.889,1.422
		c0.385,0.148,0.681,0.385,0.859,0.622C61.82,128.042,61.908,128.396,61.908,128.84L61.908,128.84L61.908,128.84z M60.309,128.871
		c0-0.267-0.089-0.533-0.267-0.74c-0.178-0.237-0.474-0.326-0.889-0.326c-0.296,0-0.562,0.089-0.77,0.267
		c-0.208,0.178-0.326,0.444-0.326,0.8c0,0.325,0.089,0.592,0.296,0.799c0.207,0.208,0.503,0.326,0.829,0.326
		c0.267,0,0.474-0.06,0.651-0.178s0.296-0.237,0.355-0.415C60.279,129.225,60.309,129.047,60.309,128.871L60.309,128.871
		L60.309,128.871z"/>
	<path fill-rule="evenodd" clip-rule="evenodd" fill="#E20613" d="M62.471,127.479c0-1.215,0.237-2.133,0.711-2.695
		c0.474-0.592,1.214-0.889,2.192-0.889c0.651,0,1.214,0.148,1.628,0.386c0.444,0.267,0.77,0.651,0.978,1.185
		c0.207,0.532,0.326,1.214,0.326,2.014c0,0.829-0.119,1.51-0.326,2.043c-0.208,0.533-0.533,0.918-0.978,1.185
		c-0.415,0.267-0.977,0.385-1.628,0.385c-0.652,0-1.185-0.118-1.629-0.385c-0.415-0.267-0.74-0.651-0.948-1.185
		S62.471,128.308,62.471,127.479L62.471,127.479z M64.189,127.479c0,0.474,0,0.858,0.059,1.184c0.03,0.297,0.089,0.562,0.178,0.74
		c0.089,0.208,0.207,0.355,0.385,0.444c0.148,0.089,0.326,0.148,0.563,0.148c0.325,0,0.562-0.089,0.74-0.237
		c0.178-0.178,0.296-0.443,0.355-0.799c0.089-0.355,0.119-0.829,0.119-1.48c0-0.622-0.029-1.096-0.119-1.451
		c-0.059-0.355-0.177-0.622-0.355-0.771c-0.178-0.178-0.415-0.236-0.74-0.236c-0.296,0-0.533,0.059-0.711,0.236
		c-0.177,0.148-0.296,0.415-0.385,0.771C64.219,126.383,64.189,126.857,64.189,127.479L64.189,127.479L64.189,127.479z"/>
	<path fill-rule="evenodd" clip-rule="evenodd" fill="#E20613" d="M68.839,127.479c0-1.215,0.237-2.133,0.711-2.695
		c0.444-0.592,1.155-0.889,2.132-0.889c0.622,0,1.155,0.148,1.57,0.386c0.415,0.267,0.74,0.651,0.948,1.185
		c0.207,0.532,0.296,1.214,0.296,2.014c0,0.829-0.089,1.51-0.296,2.043c-0.208,0.533-0.533,0.918-0.948,1.185
		c-0.415,0.267-0.948,0.385-1.57,0.385c-0.651,0-1.185-0.118-1.6-0.385c-0.414-0.267-0.71-0.651-0.918-1.185
		C68.958,128.989,68.839,128.308,68.839,127.479L68.839,127.479z M70.498,127.479c0,0.474,0.03,0.858,0.059,1.184
		c0.03,0.297,0.089,0.562,0.178,0.74c0.089,0.208,0.207,0.355,0.385,0.444c0.148,0.089,0.326,0.148,0.563,0.148
		c0.296,0,0.533-0.089,0.711-0.237c0.148-0.178,0.266-0.443,0.355-0.799c0.059-0.355,0.088-0.829,0.088-1.48
		c0-0.622-0.029-1.096-0.088-1.451c-0.089-0.355-0.208-0.622-0.355-0.771c-0.178-0.178-0.415-0.236-0.711-0.236
		s-0.533,0.059-0.711,0.236c-0.178,0.148-0.296,0.415-0.355,0.771C70.527,126.383,70.498,126.857,70.498,127.479L70.498,127.479
		L70.498,127.479z"/>
	<path fill-rule="evenodd" clip-rule="evenodd" fill="#E20613" d="M84.003,127.271v3.643h-1.392v-3.198
		c0-0.355-0.09-0.622-0.237-0.77c-0.118-0.178-0.326-0.267-0.533-0.267c-0.651,0-0.978,0.355-0.978,1.096v3.139h-1.421v-3.169
		c0-0.207,0-0.385-0.03-0.532c-0.029-0.119-0.118-0.267-0.237-0.355c-0.119-0.119-0.296-0.178-0.562-0.178
		c-0.593,0-0.889,0.355-0.889,1.036v3.198h-1.422v-5.241h1.362v0.77h0.03c0.296-0.621,0.8-0.918,1.511-0.918
		c0.267,0,0.474,0.03,0.651,0.089c0.178,0.06,0.326,0.148,0.474,0.267c0.118,0.118,0.237,0.296,0.385,0.474
		c0.089-0.118,0.178-0.267,0.296-0.355c0.118-0.118,0.267-0.236,0.444-0.325c0.207-0.089,0.414-0.148,0.681-0.148
		c0.355,0,0.682,0.06,0.978,0.207c0.267,0.119,0.504,0.326,0.651,0.593C83.943,126.59,84.003,126.886,84.003,127.271L84.003,127.271
		z"/>
	<polygon fill-rule="evenodd" clip-rule="evenodd" fill="#E20613" points="86.905,123.836 86.905,130.914 85.514,130.914 
		85.514,123.836 86.905,123.836 	"/>
	<polygon fill-rule="evenodd" clip-rule="evenodd" fill="#E20613" points="92.829,127.093 92.829,128.13 89.186,128.13 
		89.186,127.093 92.829,127.093 	"/>
	<path fill-rule="evenodd" clip-rule="evenodd" fill="#E20613" d="M97.005,127.833v-0.977h0.237c0.178,0,0.355-0.029,0.532-0.06
		c0.179-0.029,0.326-0.118,0.444-0.267c0.119-0.147,0.178-0.355,0.178-0.622c0-0.207-0.059-0.414-0.178-0.621
		c-0.118-0.178-0.354-0.267-0.681-0.267c-0.415,0-0.682,0.118-0.8,0.355c-0.089,0.236-0.148,0.503-0.148,0.77h-1.303
		c0-0.325,0.06-0.622,0.148-0.889c0.088-0.296,0.236-0.533,0.414-0.71c0.207-0.208,0.444-0.386,0.74-0.475
		c0.297-0.118,0.652-0.178,1.037-0.178c0.326,0,0.681,0.06,1.007,0.208c0.326,0.118,0.593,0.325,0.829,0.621
		c0.207,0.297,0.326,0.682,0.326,1.126c0,0.325-0.089,0.621-0.237,0.829c-0.178,0.236-0.355,0.414-0.592,0.503v0.03
		c0.118,0.029,0.267,0.118,0.414,0.207c0.178,0.118,0.296,0.296,0.444,0.533c0.118,0.236,0.178,0.533,0.178,0.888
		c0,0.444-0.089,0.829-0.296,1.155c-0.208,0.355-0.474,0.622-0.829,0.8c-0.355,0.207-0.771,0.296-1.244,0.296
		c-0.237,0-0.474-0.029-0.74-0.06c-0.267-0.059-0.504-0.147-0.771-0.325c-0.267-0.148-0.503-0.386-0.681-0.711
		c-0.178-0.326-0.267-0.74-0.267-1.244h1.362v0.03c0,0.296,0.059,0.562,0.207,0.829c0.148,0.236,0.415,0.385,0.8,0.385
		c0.296,0,0.533-0.118,0.74-0.296c0.207-0.208,0.296-0.504,0.296-0.859c0-0.296-0.059-0.532-0.236-0.681
		c-0.148-0.148-0.355-0.237-0.563-0.267C97.567,127.864,97.301,127.833,97.005,127.833L97.005,127.833z"/>
	<polygon fill-rule="evenodd" clip-rule="evenodd" fill="#E20613" points="101.951,129.669 101.951,130.795 100.796,130.795 
		100.796,129.669 101.951,129.669 	"/>
	<path fill-rule="evenodd" clip-rule="evenodd" fill="#E20613" d="M104.38,127.833v-0.977h0.207c0.207,0,0.385-0.029,0.533-0.06
		c0.178-0.029,0.325-0.118,0.444-0.267c0.148-0.147,0.207-0.355,0.207-0.622c0-0.207-0.059-0.414-0.207-0.621
		c-0.119-0.178-0.355-0.267-0.682-0.267c-0.414,0-0.651,0.118-0.77,0.355c-0.118,0.236-0.178,0.503-0.178,0.77h-1.273
		c0-0.325,0.029-0.622,0.118-0.889c0.118-0.296,0.237-0.533,0.444-0.71c0.178-0.208,0.444-0.386,0.74-0.475
		c0.296-0.118,0.622-0.178,1.007-0.178c0.355,0,0.682,0.06,1.007,0.208c0.355,0.118,0.622,0.325,0.83,0.621
		c0.236,0.297,0.325,0.682,0.325,1.126c0,0.325-0.059,0.621-0.236,0.829c-0.148,0.236-0.355,0.414-0.593,0.503v0.03
		c0.148,0.029,0.267,0.118,0.444,0.207c0.148,0.118,0.296,0.296,0.414,0.533c0.148,0.236,0.208,0.533,0.208,0.888
		c0,0.444-0.118,0.829-0.296,1.155c-0.208,0.355-0.504,0.622-0.859,0.8c-0.355,0.207-0.771,0.296-1.244,0.296
		c-0.236,0-0.474-0.029-0.74-0.06c-0.236-0.059-0.504-0.147-0.77-0.325c-0.267-0.148-0.475-0.386-0.652-0.711
		c-0.178-0.326-0.267-0.74-0.267-1.244h1.333v0.03c0,0.296,0.089,0.562,0.207,0.829c0.148,0.236,0.415,0.385,0.83,0.385
		c0.296,0,0.532-0.118,0.74-0.296c0.178-0.208,0.296-0.504,0.296-0.859c0-0.296-0.089-0.532-0.236-0.681
		c-0.178-0.148-0.355-0.237-0.593-0.267C104.913,127.864,104.646,127.833,104.38,127.833L104.38,127.833z"/>
	<polygon fill-rule="evenodd" clip-rule="evenodd" fill="#E20613" points="112.258,129.255 112.258,130.914 110.866,130.914 
		110.866,123.836 112.258,123.836 112.258,127.657 113.976,125.672 115.693,125.672 113.827,127.686 115.723,130.914 
		114.064,130.914 112.82,128.663 112.258,129.255 	"/>
	<path fill-rule="evenodd" clip-rule="evenodd" fill="#E30520" d="M120.284,125.672h1.333v4.975c0,0.415-0.06,0.8-0.148,1.125
		c-0.118,0.355-0.355,0.651-0.74,0.889c-0.415,0.267-1.007,0.385-1.777,0.385c-0.296,0-0.562-0.029-0.8-0.089
		c-0.267-0.059-0.503-0.148-0.74-0.296c-0.207-0.118-0.385-0.296-0.533-0.474c-0.118-0.208-0.207-0.444-0.207-0.711h1.48
		c0.03,0.118,0.089,0.207,0.119,0.267c0.059,0.089,0.147,0.148,0.296,0.178c0.118,0.059,0.326,0.089,0.562,0.089
		c0.385,0,0.651-0.089,0.829-0.296c0.178-0.178,0.267-0.504,0.267-0.918v-0.622l-0.029-0.029c-0.118,0.236-0.296,0.444-0.504,0.592
		c-0.207,0.118-0.503,0.207-0.889,0.207c-0.651,0-1.214-0.236-1.628-0.71c-0.415-0.475-0.622-1.126-0.622-2.015
		c0-0.592,0.089-1.065,0.296-1.48c0.178-0.414,0.444-0.71,0.8-0.917c0.325-0.208,0.681-0.297,1.066-0.297
		c0.74,0,1.243,0.297,1.54,0.918h0.029V125.672L120.284,125.672z M117.974,128.308c0,0.385,0.089,0.739,0.267,1.036
		c0.178,0.296,0.444,0.444,0.83,0.444c0.296,0,0.503-0.089,0.681-0.237s0.296-0.326,0.385-0.562c0.06-0.207,0.089-0.474,0.089-0.74
		c0-0.296-0.029-0.562-0.118-0.77c-0.089-0.237-0.237-0.415-0.415-0.563c-0.178-0.118-0.385-0.207-0.651-0.207
		c-0.178,0-0.355,0.06-0.503,0.148c-0.178,0.118-0.297,0.267-0.415,0.532C118.033,127.626,117.974,127.922,117.974,128.308
		L117.974,128.308L117.974,128.308z"/>
	<path fill-rule="evenodd" clip-rule="evenodd" fill="#1D1D1B" d="M41.68,108.734c0,0.355,0.089,0.978,0.385,1.037v0.503h-4.443
		v-0.503c0.326-0.09,0.533-0.208,0.622-0.355c0.089-0.119,0.148-0.355,0.148-0.682V93.04c0-0.355-0.059-0.592-0.148-0.711
		c-0.089-0.147-0.296-0.266-0.622-0.355V91.47h4.443v0.503c-0.296,0.09-0.385,0.711-0.385,1.066v5.241l3.999-5.597
		c0.089-0.06,0.148-0.681-0.089-0.711V91.47h5.035v0.503c-0.237,0.06-0.207,0.148-0.385,0.267c-0.208,0.089-0.355,0.237-0.474,0.415
		L45.5,98.903l4.62,9.831c0.148,0.237,0.326,0.444,0.563,0.622c0.207,0.178-0.03,0.325,0.267,0.415v0.503h-4.68v-0.503
		c0.207-0.119,0.237-0.652,0.178-0.771l-3.288-6.633l-1.481,2.161V108.734L41.68,108.734z"/>
	<path fill-rule="evenodd" clip-rule="evenodd" fill="#1D1D1B" d="M52.372,110.274v-0.503c0.267-0.09,0.444-0.178,0.533-0.326
		c0.089-0.118,0.119-0.355,0.119-0.711V93.01c0-0.326-0.03-0.562-0.119-0.711c-0.089-0.118-0.267-0.236-0.533-0.326V91.47
		l10.425-0.029v3.879h-0.385c-0.059-0.385-0.533-0.947-0.77-0.947h-5.065v4.53h3.436c0.267,0,0.741-0.326,0.771-0.711h0.385v4.709
		h-0.385c-0.03-0.355-0.504-0.771-0.771-0.771h-3.436v5.152h5.302c0.237,0,0.71-0.533,0.77-0.918h0.385v3.88L52.372,110.274
		L52.372,110.274z"/>
	<path fill-rule="evenodd" clip-rule="evenodd" fill="#1D1D1B" d="M87.676,110.541v-0.504c0.267-0.089,0.651-0.681,0.651-1.036
		V93.247c0-0.354-0.385-0.947-0.651-1.036v-0.503h4.354v0.503c-0.267,0.089-0.385,0.682-0.385,1.036v5.745h3.969v-5.745
		c0-0.325-0.148-0.947-0.415-1.036v-0.503h4.146v0.503c-0.267,0.089-0.355,0.711-0.355,1.036V109c0,0.326,0.089,0.918,0.355,1.036
		v0.504h-4.028v-0.504c0.267-0.118,0.326-0.74,0.326-1.065v-7.107l-3.998,0.03v7.64c0,0.355,0,0.414,0.267,0.503v0.504H87.676
		L87.676,110.541z"/>
	<path fill-rule="evenodd" clip-rule="evenodd" fill="#1D1D1B" d="M102.632,93.277c0-0.355-0.325-0.74-0.474-1.066v-0.503h4.442
		v0.503c-0.296,0.089-0.474,0.711-0.474,1.066v10.689c0,1.836-0.148,3.435,2.222,3.435c2.043,0,1.954-1.48,1.954-3.435V93.277
		c0-0.355-0.089-0.771-0.355-0.829v-0.74h4.413v0.503c-0.267,0.089-0.444,0.178-0.562,0.326c-0.089,0.147-0.118,0.385-0.118,0.74
		v11.312c0,2.132-0.178,3.761-1.066,4.827c-0.889,1.095-2.488,1.628-4.265,1.628c-1.807,0-3.732-0.533-4.65-1.628
		c-0.947-1.066-1.066-2.695-1.066-4.827V93.277L102.632,93.277z"/>
	<path fill-rule="evenodd" clip-rule="evenodd" fill="#1D1D1B" d="M117.915,93.809c0.059-0.118-0.208-1.45-0.504-1.746v-0.475h5.953
		c3.554,0,6.013,3.436,6.013,5.981c0,3.88-2.37,7.019-6.517,7.019h-1.599V109c0,0.385,0.118,1.007,0.414,1.066l0.03,0.503h-4.295
		l0.029-0.503c0.267-0.06,0.475-0.829,0.475-1.215V93.809L117.915,93.809z M121.291,101.568h2.014c2.073,0,2.695-2.754,2.695-3.643
		c0-0.947-1.125-3.287-2.725-3.287h-1.984V101.568L121.291,101.568z"/>
	<path fill-rule="evenodd" clip-rule="evenodd" fill="#1D1D1B" d="M44.997,86.377l-0.178-0.475c0.267-0.089,0.415-0.681,0.415-1.036
		V70.711H42.45c-0.237,0-0.741,0.533-0.771,0.859h-0.385v-3.938c0,0,0.888-0.03,1.155-0.03h9.181c0.237,0,1.155,0.03,1.155,0.03
		v3.88h-0.385c-0.03-0.355-0.503-0.801-0.771-0.801h-2.902v14.155c0,0.385,0.208,0.978,0.474,1.036l-0.237,0.475H44.997
		L44.997,86.377z"/>
	<path fill-rule="evenodd" clip-rule="evenodd" fill="#1D1D1B" d="M56.222,76.93c0,1.865,0.296,3.376,0.889,4.502
		c0.592,1.154,1.362,1.717,2.31,1.717c0.918,0,1.688-0.562,2.31-1.717c0.593-1.126,0.889-2.637,0.889-4.502
		c0-1.836-0.296-3.346-0.889-4.5c-0.622-1.155-1.392-1.719-2.31-1.719c-0.948,0-1.718,0.563-2.31,1.719
		C56.518,73.584,56.222,75.094,56.222,76.93L56.222,76.93z M52.905,76.901c0-2.873,0.622-5.211,1.836-7.077
		c1.185-1.836,2.725-2.784,4.62-2.784s3.436,0.948,4.65,2.784s1.836,4.204,1.836,7.077s-0.622,5.212-1.836,7.048
		s-2.754,2.754-4.65,2.754s-3.436-0.918-4.62-2.754C53.526,82.113,52.905,79.774,52.905,76.901L52.905,76.901L52.905,76.901z"/>
	<path fill-rule="evenodd" clip-rule="evenodd" fill="#1D1D1B" d="M66.943,86.11v-0.473c0.296-0.09,0.681-0.682,0.681-1.037V68.935
		c0-0.267-0.326-0.829-0.533-0.829v-0.504h4.768v0.504c-0.178,0.029-0.267,0.8-0.237,0.859l2.725,5.33l2.813-5.33
		c0.03-0.09,0.148-0.859-0.059-0.859v-0.504h4.591v0.504c-0.237,0-0.208,0.06-0.296,0.178c-0.059,0.09-0.089,0.297-0.089,0.622V84.6
		c0,0.414,0.208,0.947,0.474,1.037v0.473h-4.65v-0.473c0.267-0.09,0.711-0.711,0.711-1.037v-8.202l-2.992,4.797h-1.037l-2.725-4.797
		V84.6c0,0.355,0.385,0.947,0.651,1.037v0.473H66.943L66.943,86.11z"/>
	<path fill-rule="evenodd" clip-rule="evenodd" fill="#1D1D1B" d="M88.387,78.233h2.606l-1.274-4.53L88.387,78.233L88.387,78.233z
		 M86.432,85.34c0.118,0.119-0.119,0.207,0.118,0.237v0.503h-4.235v-0.533c0.237-0.029,0.711-0.621,0.829-1.006l4.146-15.429
		c0.03-0.089,0.178-0.978-0.029-1.036v-0.475h5.095l-0.03,0.504c-0.267,0.06-0.237,0.889-0.207,1.007l4.265,15.429
		c0.089,0.325,0.593,0.947,0.8,1.006v0.533h-4.68v-0.503c0.237-0.089,0.415-0.178,0.504-0.237c0.059-0.089-0.859-3.583-0.859-3.583
		h-4.946C87.201,81.757,86.312,85.222,86.432,85.34L86.432,85.34L86.432,85.34z"/>
	<path fill-rule="evenodd" clip-rule="evenodd" fill="#1D1D1B" d="M98.871,86.377l-0.178-0.475c0.267-0.089,0.443-0.681,0.443-1.036
		V70.711h-2.783c-0.267,0-0.771,0.533-0.8,0.859h-0.385v-3.938c0,0,0.888-0.03,1.185-0.03h9.151c0.237,0,1.155,0.03,1.155,0.03v3.88
		h-0.385c-0.03-0.355-0.504-0.801-0.771-0.801h-2.902v14.155c0.029,0.385,0.237,0.978,0.474,1.036l-0.236,0.475H98.871
		L98.871,86.377z"/>
	<path fill-rule="evenodd" clip-rule="evenodd" fill="#1D1D1B" d="M109.267,76.93c0,1.865,0.296,3.376,0.889,4.502
		c0.592,1.154,1.362,1.717,2.28,1.717c0.947,0,1.718-0.562,2.311-1.717c0.592-1.126,0.918-2.637,0.918-4.502
		c0-1.836-0.326-3.346-0.918-4.5c-0.593-1.155-1.363-1.719-2.311-1.719c-0.948,0-1.688,0.563-2.28,1.719
		C109.562,73.584,109.267,75.094,109.267,76.93L109.267,76.93z M105.949,76.901c0-2.873,0.622-5.211,1.807-7.077
		c1.215-1.836,2.755-2.784,4.65-2.784c1.865,0,3.436,0.948,4.649,2.784c1.215,1.836,1.837,4.204,1.837,7.077
		s-0.622,5.212-1.837,7.048c-1.214,1.836-2.784,2.754-4.649,2.754c-1.896,0-3.436-0.918-4.65-2.754
		C106.571,82.113,105.949,79.774,105.949,76.901L105.949,76.901L105.949,76.901z"/>
	<path fill-rule="evenodd" clip-rule="evenodd" fill="#1D1D1B" d="M67.625,110.303l-0.148-0.503
		c0.267-0.089,0.415-0.682,0.415-1.036V94.609h-2.31c-0.237,0-0.948,0.533-1.007,0.858h-0.355V91.53c0,0,0.829-0.03,1.096-0.03
		h8.708c0.237,0,1.096,0.03,1.096,0.03v3.879h-0.355c-0.059-0.326-0.829-0.8-1.096-0.8h-2.28v14.155
		c0.029,0.414,0.207,0.977,0.474,1.036l-0.237,0.503H67.625L67.625,110.303z"/>
	<path fill-rule="evenodd" clip-rule="evenodd" fill="#1D1D1B" d="M74.584,100.857c0-2.872,0.622-5.212,1.836-7.077
		c1.185-1.836,2.725-2.783,4.62-2.783c1.303,0,2.666,0.089,3.673,0.444l0.237-0.444h0.562v5.063l-0.622-0.029
		c-0.237-1.304-1.54-1.718-2.962-1.718c-1.748,0-2.34,1.125-2.932,2.28c-0.592,1.125-0.889,2.635-0.889,4.501
		c0,1.865,0.296,3.346,0.889,4.501c0.592,1.125,2.488,2.043,2.488,2.043c1.422,0,2.725,0,3.702-1.243
		c0.355-0.178,0.562-0.06,0.562-0.06v4.412h-0.562l-0.918-0.267c-0.859,0.207-2.191,0.355-3.229,0.355
		c-1.896,0-3.436-1.096-4.62-2.932C75.207,106.069,74.584,103.73,74.584,100.857L74.584,100.857z"/>
	<path fill-rule="evenodd" clip-rule="evenodd" fill="#1D1D1B" d="M84.477,17.766h-6.101l0.503,0.888
		c0.178,0.415,0.415,1.185,0.415,2.28l-0.237,14.243c0,1.066-0.148,1.777-0.296,2.428l-0.593,1.037h5.864l-0.622-1.037
		c-0.178-0.651-0.385-1.362-0.385-2.428l0.148-13.917c0-1.096,0.325-1.658,0.474-2.103L84.477,17.766L84.477,17.766z"/>
	<path fill-rule="evenodd" clip-rule="evenodd" fill="#1D1D1B" d="M87.35,17.766l0.474,1.036c0.267,0.474,0.178,1.096,0.178,2.162
		L86.787,34.26c-0.148,1.066-0.148,1.895-0.326,2.339l-1.303,1.835l5.302,0.503l-0.652-1.806c-0.178-0.622,0.948-9.654,0.948-9.654
		c0.533,0.089,3.673,11.904,3.673,11.904l4.798,0.326l-0.444-1.125c-0.178-0.652-0.148-1.155-0.089-2.31l1.303-13.917
		c0.178-1.066,0.504-1.629,0.651-2.043l0.682-1.125l-5.095-0.563l0.475,1.777c0.236,1.066-0.711,9.624-0.711,9.624
		c-0.385-0.089-3.643-11.904-3.643-11.904L87.35,17.766L87.35,17.766L87.35,17.766z"/>
	<path fill-rule="evenodd" clip-rule="evenodd" fill="#1D1D1B" d="M110.244,21.201l-3.021-1.007l-2.369,5.597
		c0.8-0.474,1.718-0.918,2.429-1.036c1.244-0.03,2.429,0.266,3.494,0.888l-8.944,9.802l-1.185,4.561
		c3.939,1.096,7.346,1.776,9.655,2.665l2.459-5.33c-0.741,0.503-1.837,0.829-2.606,0.858c-0.919,0-2.044-0.177-3.91-0.858
		l9.241-10.365l1.185-4.057L110.244,21.201L110.244,21.201L110.244,21.201z"/>
	<path fill-rule="evenodd" clip-rule="evenodd" fill="#1D1D1B" d="M53.29,21.793l0.889,0.829c0.503,0.562,0.8,1.155,1.066,2.221
		l1.185,4.205l-3.85,1.185l-1.333-4.175c-0.267-1.066-0.385-1.777-0.415-2.399l0.119-1.096l-5.627,1.836l0.977,0.977
		c0.208,0.208,0.889,0.977,1.155,2.043l4.117,13.118c0.267,1.066,0.504,1.688,0.533,2.132l-0.326,1.51l2.103-0.74l3.495-1.185
		l-0.859-0.83c-0.533-0.503-0.978-1.006-1.244-2.072l-1.452-4.679l4.028-1.362l1.688,4.708c0.237,1.066,0.296,1.51,0.148,2.162
		l-0.118,1.362l5.746-1.836L64.1,38.642c-0.208-0.444-0.562-0.711-0.83-1.776l-4.176-13.208c-0.267-1.066-0.355-1.628-0.385-2.073
		l0.088-1.688L53.29,21.793L53.29,21.793z"/>
	<path fill-rule="evenodd" clip-rule="evenodd" fill="#1D1D1B" d="M65.137,20.105c0.178,0.415,0.385,1.273,0.562,2.339l1.57,13.355
		c0.178,1.066,0.178,1.896,0,2.339l-0.622,1.51l9.566-0.977l-0.089-5.479l-1.303,1.214c-0.385,0.207-0.859,0.444-1.718,0.474
		l-2.073,0.089l-0.355-4.768l1.688-0.207c0.681-0.089,1.422,0.088,2.191,0.651l-0.414-5.715c-0.859,0.978-1.392,1.066-2.281,1.125
		l-1.718,0.148l-0.237-3.702l1.836-0.207c1.066-0.089,2.073,0.296,2.784,1.036l-0.948-5.448l-9.122,1.036L65.137,20.105
		L65.137,20.105L65.137,20.105z"/>
	<path fill-rule="evenodd" clip-rule="evenodd" fill="#1D1D1B" d="M117.353,26.086c0,1.037,0.829,1.895,1.896,1.895
		c1.036,0,1.895-0.858,1.895-1.895c0-1.066-0.858-1.895-1.895-1.895C118.182,24.191,117.353,25.021,117.353,26.086L117.353,26.086z
		 M116.967,26.086c0-1.244,1.007-2.28,2.281-2.28c1.243,0,2.25,1.036,2.25,2.28s-1.007,2.25-2.25,2.25
		C117.974,28.337,116.967,27.33,116.967,26.086L116.967,26.086L116.967,26.086z"/>
	<path fill-rule="evenodd" clip-rule="evenodd" fill="#1D1D1B" d="M118.033,26.916l0.414-2.191l1.066,0.208
		c0.267,0.059,0.475,0.119,0.593,0.178c0.089,0.059,0.178,0.148,0.236,0.267c0.06,0.118,0.06,0.237,0.03,0.355
		c-0.03,0.178-0.089,0.296-0.237,0.385c-0.118,0.089-0.296,0.119-0.533,0.089c0.119,0.089,0.178,0.178,0.237,0.237
		c0.06,0.089,0.148,0.237,0.237,0.415l0.207,0.474l-0.593-0.118l-0.296-0.533c-0.089-0.178-0.147-0.326-0.207-0.355
		c-0.03-0.059-0.06-0.118-0.118-0.118c-0.06-0.03-0.148-0.06-0.268-0.089l-0.088-0.03l-0.178,0.918L118.033,26.916L118.033,26.916z
		 M118.773,25.761l0.385,0.059c0.237,0.06,0.386,0.06,0.444,0.06c0.089,0,0.119-0.03,0.178-0.06c0.03-0.029,0.06-0.088,0.089-0.148
		c0-0.088,0-0.148-0.029-0.178c-0.06-0.059-0.118-0.118-0.178-0.148c-0.06,0-0.178-0.03-0.385-0.059l-0.385-0.089L118.773,25.761
		L118.773,25.761L118.773,25.761z"/>
	<path fill="none" stroke="#E30520" stroke-width="0.4112" stroke-miterlimit="2.6131" d="M9.782,43.617h20.14
		c0.118-0.148,0.326-0.859,0.385-1.037l-6.753-26.444c-0.237-0.948-1.007-2.606,2.962-4.442c4.709-2.191,13.713-4.56,20.555-6.307
		c9.833-2.517,22.924-5.182,34.711-5.182c18.541,0,37.376,5.034,54.822,11.282c4.146,1.48,3.85,3.405,3.524,4.738l-6.724,26.858
		c0.267,0.296,0.918,0.474,1.155,0.592l19.073-0.03c10.1,0,11.284,2.428,7.671,17.856l-27.929,114.451H30.336L2.407,61.473
		C-1.562,46.075-0.762,43.617,9.782,43.617L9.782,43.617z"/>
	<path fill-rule="evenodd" clip-rule="evenodd" fill="#009540" d="M76.835,141.751c-0.03-0.118-0.059-0.296-0.089-0.533
		c-0.029-0.236-0.059-0.414-0.089-0.533c0-0.118-0.03-0.325-0.059-0.562c0-0.267-0.03-0.444-0.059-0.562l-0.178-0.029l-0.148,0.029
		l-0.148,0.03h-0.148c-0.03,0.147,0,0.266,0.029,0.414c0,0.148,0.03,0.267,0.03,0.355c0.03,0.029,0,0.06-0.03,0.06
		c-0.029,0.029-0.148,0.029-0.385,0.059c-0.267,0.029-0.415,0.06-0.444,0.06c-0.059-0.148-0.059-0.267-0.059-0.444
		c0-0.147-0.03-0.296-0.03-0.355h-0.207h-0.148l-0.148,0.03h-0.148c-0.029,0.178,0,0.354,0.06,0.621
		c0.03,0.237,0.059,0.444,0.059,0.562c0.03,0.119,0.059,0.297,0.059,0.533c0.03,0.237,0.03,0.415,0.06,0.533
		c0.089,0.029,0.178,0.029,0.326,0c0.178,0,0.296-0.029,0.326-0.029l-0.03-0.444l-0.059-0.385c0-0.03,0-0.06,0.03-0.06
		c0.029-0.029,0.178-0.06,0.415-0.089c0.237,0,0.355-0.029,0.385-0.029s0.059,0.029,0.059,0.089c0,0.059,0.029,0.207,0.029,0.385
		c0.03,0.148,0.03,0.296,0.03,0.385c0.089,0.029,0.208,0.029,0.355,0c0.148,0,0.237-0.029,0.296-0.029L76.835,141.751
		L76.835,141.751z M79.59,141.1c-0.118-0.029-0.207-0.029-0.296-0.029c-0.119,0.029-0.208,0.029-0.267,0.029h-0.267
		c-0.119,0-0.178-0.029-0.208-0.06c0-0.029,0-0.089-0.03-0.178v-0.088c0.03-0.03,0.06-0.03,0.089-0.03l0.177-0.029
		c0.237,0,0.385,0,0.444,0.029h0.148c0.029-0.118,0.059-0.207,0.059-0.296c0-0.178,0.03-0.267,0.03-0.237l-0.148-0.029h-0.089
		c-0.148,0-0.267,0-0.415,0.029h-0.089c-0.118,0-0.148,0-0.178-0.029s-0.03-0.089-0.03-0.148c0-0.088,0-0.118,0-0.118
		c0.03-0.029,0.06-0.06,0.119-0.06c0.237,0,0.503,0,0.8,0.03c0.059-0.06,0.059-0.148,0.03-0.267c0-0.118,0-0.207-0.03-0.237
		c0-0.029-0.03-0.059-0.089-0.059l-0.355,0.029h-0.385h-0.355h-0.385v0.444c0,0.355,0.03,0.592,0.03,0.71
		c0,0.119,0,0.297-0.03,0.533c0,0.267,0,0.444,0,0.563l0.444,0.029h0.385c0.385,0,0.622,0,0.711,0c0.06,0,0.089,0,0.089-0.029
		c0.03,0,0.03-0.09,0.06-0.237C79.561,141.249,79.59,141.16,79.59,141.1L79.59,141.1L79.59,141.1z M81.396,140.449
		c0-0.118,0.03-0.296,0.03-0.533s0.03-0.414,0.03-0.533l-0.208-0.029h-0.148h-0.178h-0.148c-0.029,0.148-0.029,0.325-0.029,0.562
		c0.029,0.237,0.029,0.415,0.029,0.533s-0.029,0.414-0.029,0.858l-0.03,0.297c0.089,0.059,0.208,0.059,0.355,0.059
		c0.119,0,0.237,0,0.296-0.029c0.06-0.148,0.06-0.355,0.06-0.622C81.426,140.775,81.396,140.567,81.396,140.449L81.396,140.449
		L81.396,140.449z M84.832,139.59l-0.325-0.06H84.21c-0.059,0.178-0.059,0.325-0.059,0.562s0,0.414,0,0.533
		c0,0.059,0,0.118-0.03,0.118c-0.029,0-0.029-0.029-0.059-0.06l-0.237-0.325l-0.593-0.889c-0.089-0.059-0.118-0.059-0.178-0.029
		h-0.147c-0.089,0-0.178,0-0.237,0c-0.059,0.148-0.059,0.355-0.059,0.592c-0.03,0.267-0.03,0.444-0.03,0.563
		c0,0.118-0.029,0.296-0.029,0.532c-0.03,0.237-0.06,0.415-0.06,0.533l0.622,0.089c0.06-0.178,0.06-0.385,0.06-0.622
		c0-0.267,0.029-0.444,0.029-0.562l0.355,0.444l0.504,0.711c0.029,0.059,0.059,0.059,0.089,0.059l0.118,0.03h0.118h0.119
		l0.118,0.029l0.118-1.125c0-0.118,0.029-0.326,0.06-0.562C84.803,139.886,84.832,139.708,84.832,139.59L84.832,139.59
		L84.832,139.59z M87.32,142.433c0.118-0.178,0.147-0.355,0.207-0.533c-0.06-0.03-0.118-0.03-0.178-0.03l-0.178-0.029
		c-0.118,0-0.267-0.029-0.504-0.089c-0.029-0.029,0.148-0.207,0.475-0.533c0.296-0.296,0.474-0.474,0.562-0.562
		c0.06-0.236,0.089-0.355,0.089-0.444c-0.178-0.059-0.415-0.118-0.711-0.178c-0.296-0.059-0.533-0.118-0.681-0.147
		c-0.06,0.089-0.09,0.147-0.148,0.267c-0.029,0.118-0.06,0.178-0.06,0.236l0.355,0.089l0.355,0.06
		c0.029,0.06-0.148,0.267-0.503,0.622c-0.326,0.354-0.504,0.532-0.504,0.532v0.119c-0.029,0.118-0.029,0.236-0.029,0.296
		l0.474,0.118l0.385,0.089l0.296,0.06L87.32,142.433L87.32,142.433z M70.734,140.922c1.273-5.271,14.602-4.353,20.673-0.474
		c2.725,1.717,0.771,4.501-2.725,3.879c-5.242-0.889-10.041-1.007-13.269,0.06c-1.984,0.681-4.087-0.237-4.354-1.747
		c-0.267-0.03-0.918,0.029-1.362,0.237c-0.355,0.177-0.444-0.179-0.267-0.593C69.846,141.307,70.172,141.129,70.734,140.922
		L70.734,140.922L70.734,140.922z"/>
	<path fill-rule="evenodd" clip-rule="evenodd" fill="#009540" d="M61.138,150.842h3.199l-0.059,0.474
		c-0.237,0.237-0.533,0.563-0.859,0.919c-0.296,0.325-0.622,0.799-0.8,1.214c-0.267,0.532-0.237,1.214-0.326,2.043l-0.089,0.147
		l-0.148,0.06l-1.392,0.444c-0.089-0.06-0.148-0.118-0.089-0.237c0.03-0.592,0.415-1.51,0.711-2.25
		c0.178-0.415,0.533-0.978,1.185-1.629c0.03-0.06,0.03-0.06,0.03-0.118c-0.03-0.029-0.03-0.06-0.119-0.06
		c-0.77-0.059-1.037-0.118-1.392,0.03l-0.503,0.178h-0.089c0,0,0-0.03,0.03-0.119l0.385-0.889c0.059-0.059,0.119-0.118,0.148-0.147
		C61.02,150.872,61.049,150.842,61.138,150.842L61.138,150.842L61.138,150.842z"/>
	<path fill-rule="evenodd" clip-rule="evenodd" fill="#009540" d="M60.072,150.961c-0.03-0.06-0.06-0.09-0.119-0.09h-2.518
		c-0.088,0-0.148,0.03-0.237,0.09c-0.059,0.029-0.119,0.029-0.178,0.088l-1.629,2.133c-0.148,0.147-0.148,0.236,0,0.236h1.066
		c0.207-0.118,0.503-0.147,0.889-0.118c0.414,0.029,0.681,0.178,0.799,0.415c0.119,0.266,0.148,0.562,0,0.858
		c-0.059,0.178-0.326,0.414-0.563,0.503c-0.296,0.089-0.562,0.148-0.799,0.089c-0.208-0.029-0.444-0.059-0.711-0.236
		c-0.267-0.237-0.296-0.385-0.444-0.682c-0.06-0.178-0.326-0.385-0.533-0.474c-0.296-0.089-0.741-0.148-0.741,0.148
		c0,0.71,0.474,1.303,0.8,1.539c0.355,0.267,0.948,0.386,1.747,0.386c0.741,0,1.333-0.148,1.896-0.504
		c0.445-0.267,0.681-0.651,0.8-1.036c0.089-0.326,0.089-0.622-0.029-0.858c-0.119-0.297-0.355-0.504-0.741-0.622
		c-0.296-0.089-0.711-0.178-1.244-0.178c-0.385,0-0.71,0.06-0.947,0.089l0.681-0.829c0.059-0.089,0.148-0.118,0.207-0.148
		c0.059-0.029,0.119-0.029,0.178-0.029h1.125c0.208,0,0.415,0.06,0.563,0.178c0.059,0.029,0.088,0.029,0.088,0.029
		c0.06,0,0.089-0.029,0.119-0.059c0.178-0.178,0.326-0.475,0.474-0.8C60.131,151.02,60.131,150.991,60.072,150.961L60.072,150.961
		L60.072,150.961z"/>
	
		<path fill-rule="evenodd" clip-rule="evenodd" fill="#009540" stroke="#027E3C" stroke-width="0.2056" stroke-miterlimit="2.6131" d="
		M70.231,154.248l1.037-2.457c0.029-0.089,0.059-0.178,0.059-0.237c0-0.089-0.059-0.148-0.178-0.178v-0.089h1.303v0.089
		c-0.089,0-0.148,0.029-0.178,0.089c-0.029,0.029-0.089,0.148-0.148,0.326l-1.333,3.139c-0.059,0.118-0.088,0.207-0.088,0.236
		c0,0.118,0.059,0.178,0.177,0.208v0.088H69.55v-0.088c0.119-0.03,0.178-0.09,0.178-0.208c0-0.029-0.03-0.118-0.089-0.236
		l-1.333-3.139c-0.059-0.178-0.119-0.297-0.148-0.326c-0.059-0.06-0.089-0.089-0.178-0.089v-0.089h1.362v0.089
		c-0.119,0.029-0.178,0.089-0.178,0.178c0,0.06,0,0.148,0.059,0.237L70.231,154.248L70.231,154.248z"/>
	
		<path fill-rule="evenodd" clip-rule="evenodd" fill="#009540" stroke="#027E3C" stroke-width="0.2056" stroke-miterlimit="2.6131" d="
		M76.362,154.396h-1.866l-0.296,0.592c-0.03,0.089-0.03,0.148-0.03,0.178c0,0.089,0.059,0.148,0.178,0.208v0.088h-1.362v-0.088
		c0.089-0.03,0.148-0.06,0.207-0.09c0.03-0.059,0.089-0.118,0.119-0.236l1.54-3.228c0.03-0.089,0.059-0.178,0.059-0.237
		c0-0.089-0.059-0.178-0.178-0.207v-0.089h1.481v0.089c-0.119,0.029-0.177,0.089-0.177,0.178c0,0.06,0,0.118,0.029,0.207l1.57,3.228
		c0.089,0.119,0.148,0.237,0.177,0.267c0.06,0.06,0.119,0.089,0.208,0.119v0.088h-1.51v-0.088c0.118-0.03,0.178-0.09,0.178-0.208
		c0-0.029,0-0.089-0.06-0.178L76.362,154.396L76.362,154.396z M76.095,153.833l-0.651-1.48l-0.681,1.48H76.095L76.095,153.833
		L76.095,153.833z"/>
	
		<path fill-rule="evenodd" clip-rule="evenodd" fill="#009540" stroke="#027E3C" stroke-width="0.2056" stroke-miterlimit="2.6131" d="
		M80.271,153.745v1.392c0,0.06,0,0.118,0.029,0.147c0.03,0.03,0.089,0.06,0.148,0.09v0.088h-1.214v-0.088
		c0.089-0.03,0.119-0.06,0.148-0.09c0.029-0.029,0.059-0.088,0.059-0.147v-3.523c0-0.089-0.03-0.119-0.059-0.148
		c-0.03-0.029-0.06-0.06-0.148-0.089v-0.089h2.429c0.296,0,0.533,0,0.681,0.06c0.178,0.029,0.326,0.089,0.475,0.178
		c0.148,0.118,0.236,0.267,0.325,0.443c0.06,0.178,0.089,0.355,0.089,0.563c0,0.681-0.325,1.065-1.036,1.185l0.74,1.154
		c0.148,0.207,0.237,0.326,0.296,0.385c0.06,0.06,0.148,0.089,0.237,0.119v0.088h-1.392v-0.088c0.089-0.03,0.118-0.06,0.118-0.119
		c0-0.029-0.029-0.118-0.118-0.267l-0.8-1.243H80.271L80.271,153.745z M80.271,153.064h1.303c0.178,0,0.326,0,0.415-0.03
		c0.059,0,0.147-0.029,0.207-0.06c0.147-0.088,0.207-0.236,0.207-0.443c0-0.237-0.06-0.386-0.207-0.474
		c-0.06-0.03-0.148-0.06-0.207-0.06c-0.089-0.03-0.237-0.03-0.415-0.03h-1.303V153.064L80.271,153.064L80.271,153.064z"/>
	
		<path fill-rule="evenodd" clip-rule="evenodd" fill="#009540" stroke="#027E3C" stroke-width="0.2056" stroke-miterlimit="2.6131" d="
		M85.514,155.136v-3.523c0-0.089-0.029-0.119-0.06-0.148c-0.029-0.029-0.089-0.06-0.178-0.089v-0.089h1.511v0.089
		c-0.089,0.029-0.148,0.06-0.178,0.089s-0.06,0.06-0.06,0.148v3.523c0,0.06,0.03,0.118,0.06,0.147c0.029,0.03,0.089,0.06,0.178,0.09
		v0.088h-1.511v-0.088c0.089-0.03,0.148-0.06,0.178-0.09C85.484,155.254,85.514,155.196,85.514,155.136L85.514,155.136z"/>
	
		<path fill-rule="evenodd" clip-rule="evenodd" fill="#009540" stroke="#027E3C" stroke-width="0.2056" stroke-miterlimit="2.6131" d="
		M89.156,153.625v1.155h1.984c0.06,0,0.089-0.029,0.118-0.059c0-0.03,0.03-0.06,0.06-0.148h0.06v1.096h-0.06
		c-0.029-0.089-0.06-0.148-0.06-0.148c-0.029-0.029-0.059-0.06-0.118-0.06h-2.784v-0.088c0.06-0.03,0.089-0.06,0.118-0.09
		c0-0.029,0.03-0.088,0.03-0.147v-3.523c0-0.089-0.03-0.119-0.03-0.148c-0.029-0.029-0.059-0.06-0.118-0.089v-0.089h2.725
		c0.06,0,0.089-0.029,0.119-0.06c0.029-0.029,0.029-0.059,0.059-0.147h0.06v1.096h-0.06c-0.029-0.089-0.029-0.148-0.059-0.178
		c-0.03-0.03-0.06-0.03-0.119-0.03h-1.925v0.978H90.4c0.06,0,0.089,0,0.118-0.029s0.029-0.089,0.06-0.148h0.06v1.066h-0.06
		c-0.03-0.089-0.03-0.148-0.06-0.178c-0.029-0.03-0.059-0.03-0.118-0.03H89.156L89.156,153.625z"/>
	
		<path fill-rule="evenodd" clip-rule="evenodd" fill="#009540" stroke="#027E3C" stroke-width="0.2056" stroke-miterlimit="2.6131" d="
		M94.872,151.967v3.169c0,0.06,0.03,0.118,0.06,0.147c0.029,0.03,0.06,0.06,0.118,0.09v0.088h-1.185v-0.088
		c0.06-0.03,0.118-0.06,0.148-0.09c0.029-0.029,0.029-0.088,0.029-0.147v-3.169h-1.185c-0.06,0-0.118,0-0.147,0.03
		c-0.03,0.029-0.03,0.089-0.06,0.178h-0.089v-1.096h0.089c0.029,0.089,0.06,0.118,0.06,0.147c0.029,0.03,0.088,0.06,0.147,0.06
		h3.198c0.06,0,0.119-0.029,0.148-0.06c0.029-0.029,0.06-0.059,0.06-0.147h0.118v1.096h-0.118c0-0.089-0.03-0.148-0.06-0.178
		c-0.029-0.03-0.089-0.03-0.148-0.03H94.872L94.872,151.967z"/>
	
		<path fill-rule="evenodd" clip-rule="evenodd" fill="#009540" stroke="#027E3C" stroke-width="0.2056" stroke-miterlimit="2.6131" d="
		M108.793,151.642l-0.386,0.978l-0.089-0.06c0.03-0.029,0.03-0.029,0.03-0.06c0-0.059-0.06-0.118-0.148-0.207
		c-0.267-0.267-0.592-0.385-0.978-0.385c-0.178,0-0.325,0.029-0.444,0.089c-0.089,0.029-0.147,0.089-0.207,0.178
		s-0.089,0.178-0.089,0.267c0,0.147,0.06,0.267,0.207,0.325c0.089,0.029,0.237,0.06,0.474,0.089l0.386,0.06
		c0.207,0.029,0.385,0.059,0.533,0.118c0.118,0.06,0.236,0.118,0.355,0.237c0.089,0.089,0.178,0.207,0.236,0.385
		c0.06,0.147,0.089,0.325,0.089,0.533c0,0.296-0.059,0.533-0.207,0.77c-0.118,0.207-0.326,0.355-0.622,0.474
		c-0.207,0.06-0.415,0.119-0.651,0.119c-0.415,0-0.829-0.148-1.244-0.415c-0.089-0.06-0.147-0.06-0.147-0.06
		c-0.03,0-0.06,0-0.119,0.06l-0.059-0.06l0.354-1.007l0.06,0.03c0,0.029,0,0.029,0,0.029c0,0.089,0.029,0.178,0.089,0.267
		c0.118,0.118,0.267,0.207,0.474,0.296c0.208,0.089,0.415,0.148,0.622,0.148s0.385-0.06,0.533-0.148
		c0.06-0.06,0.118-0.118,0.178-0.207s0.089-0.178,0.089-0.267c0-0.148-0.06-0.237-0.178-0.296c-0.089-0.029-0.237-0.089-0.503-0.119
		l-0.355-0.029c-0.237-0.059-0.415-0.089-0.504-0.118c-0.089-0.03-0.207-0.06-0.296-0.118c-0.148-0.119-0.267-0.237-0.326-0.415
		c-0.089-0.178-0.118-0.355-0.118-0.592c0-0.355,0.089-0.651,0.267-0.859c0.267-0.325,0.622-0.474,1.096-0.474
		c0.207,0,0.415,0.029,0.593,0.089c0.177,0.06,0.385,0.148,0.651,0.296c0.089,0.06,0.147,0.06,0.147,0.06c0.06,0,0.089,0,0.119-0.06
		L108.793,151.642L108.793,151.642z"/>
	
		<path fill-rule="evenodd" clip-rule="evenodd" fill="#009540" stroke="#027E3C" stroke-width="0.2056" stroke-miterlimit="2.6131" d="
		M98.278,155.136v-3.523c0-0.089,0-0.119-0.029-0.148c-0.03-0.029-0.089-0.06-0.178-0.089v-0.089h1.511v0.089
		c-0.09,0.029-0.148,0.06-0.178,0.089c-0.03,0.029-0.06,0.06-0.06,0.148v3.523c0,0.06,0.029,0.118,0.06,0.147
		c0.029,0.03,0.088,0.06,0.178,0.09v0.088h-1.511v-0.088c0.089-0.03,0.147-0.06,0.178-0.09
		C98.278,155.254,98.278,155.196,98.278,155.136L98.278,155.136z"/>
	
		<path fill-rule="evenodd" clip-rule="evenodd" fill="#009540" stroke="#027E3C" stroke-width="0.2056" stroke-miterlimit="2.6131" d="
		M102.1,153.625v1.155h1.983c0.03,0,0.09-0.029,0.09-0.059c0.029-0.03,0.059-0.06,0.059-0.148h0.089v1.096h-0.089
		c0-0.089-0.029-0.148-0.059-0.148c0-0.029-0.06-0.06-0.09-0.06H101.3v-0.088c0.029-0.03,0.089-0.06,0.089-0.09
		c0.029-0.029,0.029-0.088,0.029-0.147v-3.523c0-0.089,0-0.119-0.029-0.148c0-0.029-0.06-0.06-0.089-0.089v-0.089h2.725
		c0.059,0,0.089-0.029,0.118-0.06c0-0.029,0.03-0.059,0.06-0.147h0.059v1.096h-0.059c-0.029-0.089-0.06-0.148-0.06-0.178
		c-0.029-0.03-0.06-0.03-0.118-0.03H102.1v0.978h1.243c0.06,0,0.089,0,0.119-0.029c0.029-0.029,0.029-0.089,0.059-0.148h0.06v1.066
		h-0.06c-0.029-0.089-0.029-0.148-0.059-0.178c-0.03-0.03-0.06-0.03-0.119-0.03H102.1L102.1,153.625z"/>
</g>
</svg>
