<?xml version="1.0" encoding="utf-8"?>
<!-- Generator: Adobe Illustrator 16.0.0, SVG Export Plug-In . SVG Version: 6.00 Build 0)  -->
<!DOCTYPE svg PUBLIC "-//W3C//DTD SVG 1.1//EN" "http://www.w3.org/Graphics/SVG/1.1/DTD/svg11.dtd">
<svg version="1.1" id="Layer_1" xmlns="http://www.w3.org/2000/svg" xmlns:xlink="http://www.w3.org/1999/xlink" x="0px" y="0px"
	 width="160.272px" height="190.354px" viewBox="0 0 160.272 190.354" enable-background="new 0 0 160.272 190.354"
	 xml:space="preserve">
<g>
	<polygon fill="#C10A27" stroke="#FFFFFF" stroke-width="13.0164" points="7.418,9.615 152.793,9.615 133.146,150.634 
		25.924,150.572 	"/>
	<path fill="#C00A26" d="M103.602,14.336c5.033,6.613,6.369,13.107,6.784,14.924c0.309,1.387,1.131,2.014,1.307,2.102
		c0.165,0.091,0.463,0.097,0.712,0.853c1.135,3.39-0.029,8.522-0.66,10.418c-0.587,1.74,0.14,2.552,0.753,3.102
		c1.586,1.399,2.603,3.987,2.386,7.999c-0.202,3.77-1.836,9.497-3.154,12.713c-1.351,3.311-0.829,5.66-0.711,7.346
		c0.113,1.677-1.583,2.419-1.848,2.554c-0.483,0.246-0.938,0.896-0.921,1.932c0.037,3.854-0.473,7.166-0.631,8.014
		c-0.166,0.848-0.034,1.274,0.158,1.432c0.193,0.15,0.91,0.764,1.243,1.05c0.548,0.514,0.98,0.859,1.627,1.645
		c1.053,1.3,1.557,1.964,2.327,2.236c3.099,1.094,8.035,2.313,10.66,3.62c0.72,0.355,1.003,1.097,1.795,1.171
		c0.874,0.088,7.188,0.693,14.908,1.398c0.012,0,0.029,0.008,0.044,0.008l12.412-88.846l-54.709,0.057L103.602,14.336"/>
	<g>
		<path fill="#C00A26" d="M40.803,10.784c-1.612,0.597-2.838,1.1-3.168,1.179c-0.342,0.088-1.473,0.584-1.521,1.311
			c-0.04,0.727,0.158,1.366,0.39,1.861c0.113,0.235,0.815,1.688-0.077,3.65c-0.676,1.446-3.484,5.729-6.443,8.175
			c-0.844,0.692-1.769,1.147-2.305,1.63c-0.551,0.473-1.193,1.905-0.364,3.666c0.83,1.751,2.376,3.271,3.121,4.856
			c0.753,1.584,1.182,4.374,0.62,7.639c-0.543,3.135-0.708,3.854-0.987,4.427c-0.283,0.58-0.841,1.715-0.062,3.051
			c0.771,1.344,2.415,2.709,3.439,3.495c0.551,0.437,0.834,0.804,0.423,1.571c-0.665,1.248-0.492,4.188,0.139,5.826
			c0.955,2.518,2.078,4.912,3.117,6.442c1.042,1.539,2.9,4.152,4.001,5.103c1.091,0.951,1.229,2.595,1.212,3.612
			c-0.019,1.028-0.157,3.913,2.801,5.719c1.465,0.892,1.597,0.675,2.129,1.108c0.544,0.437,0.797,0.657,1.16,1.828
			c0.367,1.175,2.056,5.246,4.38,8.124c0.679,0.833,1.057,1.429,1.134,1.568c0.084,0.128,0.21,0.285-0.084,0.969
			c-0.29,0.69-1.465,4.614-2.394,8.66c-0.177,0.745-0.43,1.721-1.362,2.18c-0.929,0.448-3.018,1.604-3.781,2.016
			c-0.76,0.43-1.138,0.657-2.015,1.748c-0.394,0.491-0.672,0.773-0.918,1.071c-0.14,0.17-0.209,0.269-0.943,0.66
			c-0.643,0.327-10.037,3.631-20.055,9.729L7.418,9.615l40.297-0.042L40.803,10.784"/>
	</g>
	<path fill="#C00A26" d="M133.613,128.359c-2.926-7.081-10.195-26.141-11.263-28.439c-0.474-1.027-2.155-1.662-3.359-1.726
		c-0.327-0.003-1.002,0.052-0.661,1.083c0.404,1.183,0.815,2.735,2.471,8.139c1.722,5.609,4.108,16.227,4.726,20.521
		c0.212,1.457,0.503,1.655,1.497,1.67c0.269,0.008,0.712,0.008,0.962,0.015c0.646,0.019,1.931,0.144,2.485,0.315
		c0.771,0.224,0.33,0.79-0.679,0.83c-0.478,0.029-2.09,0.231-3.367,0.394l0,0h0.012c0,0,2.753,11.614,4.519,18.174l0.33,1.3h1.861
		l2.441-17.419C134.905,131.535,134.237,129.893,133.613,128.359"/>
	<path fill="#C00A26" d="M103.598,134.294c-0.018-0.095-0.021-0.144-0.021-0.144c-14.324,2.111-29.188,5.375-37.121,7.819
		c-4.919,1.524-14.145,4.831-16.854,5.915c-2.316,0.917-2.335-1.216-2.438-2.725c-0.23-3.553-0.213-9.468,0.426-16.122
		c0.922-9.626,1.549-12.592,1.674-13.301c0.114-0.635-0.234-0.539-0.403-0.459c-0.166,0.063-0.437,0.231-0.68,0.346
		c-0.818,0.352-1.142,1.406-1.755,3.723c-0.858,3.167-3.854,17.139-4.379,20.898c-0.43,2.974-1.087,8.248-1.348,10.345l64.958,0.029
		l-0.105-0.709C105.247,147.958,103.774,135.811,103.598,134.294"/>
	<path fill="#C00A26" d="M113.127,134.039c-0.08-0.416-0.161-0.79-0.234-1.139c-1.135,0.147-2.338,0.286-3.623,0.459
		c-0.565,0.077-1.127,0.15-1.686,0.228c0,0,2.347,13.777,2.75,16.167l0.158,0.866h5.87l-0.606-3.652
		C114.512,141.178,113.712,136.893,113.127,134.039"/>
	<path fill="#C00A26" d="M125.958,149.132c-0.054-0.264-0.127-0.579-0.205-0.898c-1.083-4.839-3.608-16.516-3.608-16.516
		c-1.076,0.125-2.29,0.286-3.649,0.463c-0.455,0.062-0.936,0.117-1.424,0.18c0,0,3.047,13.285,3.8,17.308l0.184,0.951h5.238
		l-0.246-1.131C126.017,149.375,125.987,149.254,125.958,149.132"/>
	<path fill="#F8DCC2" d="M53.057,54.917c0.51-0.404,1.086-0.778,1.445-1.068c0.555-0.43,0.368-1.094-0.51-0.951
		c-0.319,0.059-0.962,0.198-1.557,0.341c-0.499,0.132-1.112,0.334-1.271,0.378c-1.219,0.4-1.787,1.784-1.875,2.324
		c-0.173,1.068,0.966,1.388,1.666,0.801C51.533,56.264,52.278,55.56,53.057,54.917"/>
	<path fill="#F8DCC2" d="M60.527,52.637c-0.859,0.114-2.837,1.3-3.817,2.126c-0.544,0.477-0.9,0.719-1.381,1.075
		c-0.672,0.488-1.116,0.639-1.304,0.844c-0.689,0.723,0.32,0.863,0.596,0.83c0.286-0.011,1.108-0.228,1.894-0.709
		c0.764-0.477,1.829-1.266,3.462-1.887c1.472-0.536,2.339-0.433,3.139-0.411c0.808,0.029,0.54-0.715-0.153-1.27
		C62.289,52.67,61.166,52.557,60.527,52.637"/>
	<path fill="#F8DCC2" d="M68.918,67.406c-0.448,0.705-0.657,2.379,0.418,3.59c1.081,1.204,2.111,0.653,2.13,0.353
		c0.019-0.261-0.129-0.849-0.363-1.167c-0.242-0.342-0.679-1.542-0.217-2.94C71.023,66.844,69.627,66.271,68.918,67.406"/>
	<path fill="#F8DCC2" d="M92.391,50.395c-0.782-0.583-1.81-0.988-2.64-0.955c-0.271,0.004-0.818,0.066-1.091,0.165
		c-1.281,0.481-2.261,1.619-2.418,1.857c-0.159,0.235-0.037,0.804,0.575,0.569c0.613-0.242,1.175-0.415,1.876-0.628
		c1.055-0.323,2.258-0.103,2.948,0.334c1.061,0.675,1.601,0.884,2.367,1.182c0.367,0.15,1.403,0.337,1.707,0.132
		c0.746-0.525-0.084-0.646-0.473-0.797C94.428,51.899,93.176,50.953,92.391,50.395"/>
	<path fill="#F8DCC2" d="M97.798,50.005c0.191-0.679-0.242-1.461-0.885-1.857c-0.889-0.562-2.033-0.562-3.814-0.301
		c-0.517,0.081-0.639,0.525-0.282,0.649c0.521,0.191,1.384,0.73,1.872,1.076c0.484,0.352,1.791,1.035,2.177,1.05
		C97.255,50.622,97.563,50.798,97.798,50.005"/>
	<path fill="#F8DCC2" d="M67.674,90.812c-0.085,0.324-0.37,1.19-0.525,1.854c-0.172,0.716-0.693,0.756-1.357,0.055
		c-2.698-2.797-4.699-11.27-4.798-12.309c-0.133-1.285-1.264-1.131-1.498-1.069c-0.22,0.056-0.562,0.188-1.205,0.507
		c-1.075,0.562-2.294,3.297-1.182,6.054c4.339,10.683,11.002,12.654,13.499,12.229c0.943-0.147,1.137-0.855,0.524-1.857
		c-0.635-1.021-1.586-3.558-2.382-5.503C68.387,89.85,67.726,90.57,67.674,90.812"/>
	<path fill="#F8DCC2" d="M121.171,129.144c0.011-0.021,0.019-0.025,0.025-0.047c0.015-0.059,0.022-0.144,0.037-0.235
		c0.004-0.07,0.004-0.172,0.004-0.261c0-0.025,0-0.04,0-0.059c0-0.088-0.004-0.184-0.019-0.283c0-0.007-0.004-0.028-0.004-0.059
		c-0.019-0.231-0.047-0.518-0.099-0.858c-0.085-0.595-0.177-1.205-0.269-1.784c-0.003-0.055-0.021-0.118-0.025-0.169
		c-0.074-0.504-0.154-0.995-0.225-1.472c-0.025-0.185-0.051-0.349-0.076-0.521c-0.056-0.342-0.11-0.69-0.158-1.028
		c-0.044-0.242-0.076-0.47-0.114-0.701c-0.044-0.272-0.088-0.536-0.128-0.789c-0.041-0.25-0.073-0.503-0.118-0.757
		c-0.043-0.228-0.069-0.444-0.105-0.664c-0.044-0.249-0.089-0.492-0.121-0.727c-0.037-0.224-0.081-0.463-0.118-0.687
		c-0.033-0.194-0.062-0.411-0.095-0.599c-0.052-0.301-0.104-0.606-0.15-0.903c-0.015-0.095-0.034-0.183-0.048-0.271
		c-0.07-0.407-0.137-0.808-0.202-1.189c-0.379-2.162-0.717-4.023-1.021-5.619c-0.012-0.049-0.022-0.1-0.033-0.155
		c-0.14-0.734-0.279-1.413-0.4-2.048c-0.019-0.062-0.036-0.151-0.048-0.235c-0.051-0.224-0.099-0.44-0.136-0.66
		c-0.028-0.085-0.04-0.181-0.062-0.279c-0.043-0.221-0.095-0.444-0.14-0.65c-0.025-0.117-0.055-0.242-0.076-0.355
		c-0.026-0.121-0.049-0.231-0.073-0.346c-0.419-1.938-0.734-3.212-0.937-4.129c-0.603-2.769-1.755-3.095-2.005-3.209
		c-0.044-0.015-0.08-0.022-0.124-0.044c-0.012,0-0.019-0.019-0.025-0.019c-0.045-0.003-0.077-0.019-0.122-0.025
		c-0.011,0-0.015-0.007-0.021-0.007c-0.008,0-0.016,0-0.03,0c-0.011,0-0.029-0.009-0.047-0.009c-0.022,0-0.033,0.009-0.052,0.009
		c-0.025,0-0.051,0-0.069,0.014c-0.008,0-0.029,0.016-0.041,0.019c-0.029,0.019-0.055,0.026-0.072,0.048
		c-0.016,0.015-0.019,0.025-0.03,0.033c-0.029,0.033-0.051,0.066-0.081,0.103c0,0.011-0.003,0.015-0.003,0.019
		c-0.019,0.044-0.03,0.099-0.052,0.144c0,0.015-0.008,0.021-0.011,0.04c-0.019,0.073-0.029,0.177-0.044,0.294
		c-0.012,0.426-0.044,0.914-0.089,1.464l0,0c0.778,2.923,1.429,5.849,1.928,8.494c0,0.258,0.018,0.492,0.059,0.669
		c0.224,1.163,0.668,4.879,1.545,13.315c0.206,2.793,0.386,5.716,0.5,8.175c0.613-0.056,1.16-0.099,1.637-0.146
		c0.236-0.02,0.577-0.07,0.815-0.114c0.113-0.022,0.22-0.044,0.315-0.07c0,0,0.012,0,0.018,0c0.093-0.011,0.174-0.04,0.262-0.062
		c0,0,0.003,0,0.015,0c0.077-0.015,0.161-0.052,0.228-0.062c0.007,0,0.011,0,0.021-0.011c0.056-0.022,0.104-0.048,0.162-0.07
		c0.011-0.015,0.025-0.015,0.033-0.021c0.051-0.03,0.084-0.052,0.129-0.093c0.007-0.015,0.007-0.015,0.014-0.019
		c0.037-0.043,0.074-0.076,0.1-0.135c0.007-0.022,0.019-0.026,0.025-0.048C121.15,129.244,121.168,129.196,121.171,129.144"/>
	<path fill="#F8DCC2" d="M50.343,49.749c0.114-0.015,0.228-0.044,0.342-0.055c0.157-0.029,0.309-0.066,0.462-0.088
		c0.228-0.051,0.449-0.091,0.658-0.121c0.121-0.022,0.234-0.044,0.349-0.078c0.132-0.021,0.257-0.033,0.386-0.048
		c0.109-0.029,0.223-0.048,0.333-0.069c0.133-0.022,0.254-0.033,0.378-0.062c0.198-0.026,0.4-0.059,0.595-0.081
		c0.048-0.011,0.096-0.022,0.147-0.033c0.172-1.714,0.066-4.001-0.026-5.756c0.536-5.226,1.34-11.293,3.194-15.326
		c1.425-3.105,1.233-2.089,1.941-3.552c0.041-0.079,0.089-0.171,0.104-0.284c0.007-0.062-0.052-0.477-0.069-0.609l0,0
		c-0.026,0.012-0.048,0.012-0.07,0.012c-0.158,0.044-0.315,0.102-0.466,0.146c-0.056,0.017-0.11,0.031-0.158,0.039
		c-0.191,0.075-0.39,0.154-0.576,0.22c-0.037,0.017-0.066,0.035-0.092,0.051c-0.162,0.066-0.319,0.142-0.474,0.224
		c-0.066,0.025-0.129,0.066-0.191,0.095c-0.136,0.085-0.268,0.163-0.399,0.237c-0.052,0.031-0.114,0.076-0.166,0.11
		c-0.183,0.123-0.37,0.259-0.554,0.42c-0.012,0.009-0.025,0.017-0.048,0.031c-0.162,0.14-0.326,0.289-0.496,0.446
		c-0.044,0.066-0.099,0.104-0.15,0.17c-0.132,0.136-0.261,0.272-0.389,0.43c-0.052,0.061-0.103,0.114-0.15,0.187
		c-0.173,0.208-0.342,0.43-0.518,0.688c-4.409,6.494-4.218,13.282-4.347,15.436c-0.04,0.74,0.081,2.04-0.532,2.528
		c-0.33,0.275-0.848,0.665-1.233,1.113c-0.271,0.304-0.341,0.888-0.363,1.112c-0.048,0.565,0.099,1.49,0.205,2.029
		c0.11,0.573,0.48,0.797,1.021,0.702c0.298-0.059,0.572-0.11,0.841-0.165C50.01,49.811,50.171,49.782,50.343,49.749"/>
	<path fill="#F8DCC2" d="M99.05,76.033c0,0,0.977-0.896,1.167-1.938c0.238-1.289-0.032-1.917-0.455-2.669
		c-0.411-0.745-1.208-1.446-2.232-2.122c-0.998-0.665-3.248-2.65-3.468-2.83c-0.217-0.184-1.267-1.182-1.517-1.384
		c-0.242-0.18-0.734-0.599-1.816-1.142c-2.604-1.325-4.711-0.331-4.784-0.286c-0.088,0.043-0.47,0.359-0.841,0.705
		c-0.371,0.345-0.092,1.021,0.041,1.266l0.051,0.029c-0.008,0,0-0.014,0-0.014c-0.008-0.037-0.015-0.078-0.008-0.122
		c0.008-0.011,0.008-0.022,0.008-0.029c0.008-0.041,0.011-0.07,0.015-0.11c0.008-0.011,0.015-0.026,0.015-0.033
		c0.019-0.041,0.026-0.062,0.052-0.084c0-0.022,0.019-0.026,0.025-0.041c0.019-0.022,0.04-0.055,0.062-0.059
		c0.019-0.022,0.04-0.037,0.059-0.041c0.026-0.015,0.052-0.041,0.077-0.044c0.025,0,0.066-0.022,0.096-0.041
		c0.033,0,0.059-0.011,0.091-0.018c0.038-0.011,0.089-0.011,0.133-0.011c0.037,0,0.07-0.003,0.106-0.011
		c0.092,0,0.191,0.007,0.301,0.011c1.799,0.191,3.491,1.234,4.578,2.276c1.076,1.05,2.363,2.775,3.796,3.752
		c1.589,1.083,2.25,0.906,2.878,1.325c0.628,0.419,1.094,0.617,1.454,2.93c0.047,0.239,0.076,0.492,0.103,0.727L99.05,76.033"/>
	<path fill="#F8DCC2" d="M68.419,60.658c0,0,0.008,0.144-0.011,0.382c-0.059,1.157-0.701,2.302-1.219,2.941
		c-0.724,0.881-1.986,1.486-2.702,1.813c-0.72,0.338-1.876,0.573-1.942,0.591c-0.065,0.011-0.451,0.069-0.51,0.084
		c-0.062,0.003-0.188,0.033-0.345,0.065c-0.177,0.034-0.356,0.052-0.463,0.078c-0.044,0.022-0.073,0.04-0.106,0.066
		c-0.051,0.036-0.077,0.088-0.096,0.15c0,0.007-0.007,0.015-0.007,0.015c-0.004,0.055-0.012,0.11,0,0.15
		c0.032,0.181,0.216,0.419,0.246,0.456c0.077,0.144,0.524,0.573,1.251,0.403c0.955-0.209,1.568-0.403,2.214-0.612
		c0.65-0.202,1.498-0.588,1.631-0.698c0.132-0.106,0.499-0.375,0.542-0.411h0.005c0.444-0.404,0.833-0.698,0.95-0.845
		c2.411-2.72,2.261-4.919,2.298-5.268c0.059-0.43-0.124-0.734-0.346-0.43c-0.297,0.371-0.523,0.551-0.865,0.849
		c-0.092,0.081-0.177,0.136-0.265,0.158c-0.025,0.015-0.044,0.015-0.059,0.025c-0.062,0.011-0.125,0.034-0.173,0.019
		c-0.008,0-0.015,0.018-0.021,0.015C68.427,60.658,68.419,60.658,68.419,60.658"/>
	<path fill="#F8DCC2" d="M54.257,72.108c0.183,0.206,0.381,0.418,0.572,0.617c0.033,0.029,0.062,0.063,0.092,0.107
		c0.036,0.029,0.07,0.059,0.1,0.084c0.198,0.202,0.393,0.396,0.584,0.572c0.014,0.004,0.018,0.019,0.036,0.029
		c0.228,0.206,0.451,0.412,0.664,0.592c0.169,0.135,0.323,0.26,0.48,0.359c0.02,0.003,0.03,0.003,0.037,0.011
		c0.096,0.055,0.198,0.099,0.297,0.158c0.085,0.033,0.158,0.077,0.246,0.103c0.096,0.04,0.206,0.07,0.316,0.095
		c0.069,0.015,0.153,0.041,0.228,0.062c0.103,0.007,0.205,0.007,0.305,0.007c0.088,0.008,0.168,0.011,0.246,0.008
		c0.096-0.008,0.194-0.015,0.29-0.037c0.062-0.018,0.124-0.018,0.184-0.025c0.029-0.007,0.062-0.022,0.084-0.022
		c0.065-0.019,0.118-0.041,0.18-0.066c0.114-0.033,0.228-0.077,0.342-0.136c0.051-0.019,0.103-0.055,0.146-0.084
		c0.129-0.07,0.25-0.15,0.363-0.235c0.041-0.029,0.074-0.055,0.117-0.084c0.158-0.125,0.31-0.257,0.449-0.411
		c0.227-0.239,0.473-0.466,0.719-0.687c0.037-0.037,0.077-0.077,0.121-0.114c0.235-0.206,0.481-0.404,0.72-0.587
		c0.004,0,0.007,0,0.007,0c-0.305,0.158-0.76,0.319-1.223-0.044c0,0-0.439-0.518-0.986-1.204c-0.331-0.415-0.684-0.885-1.018-1.34
		c-0.231-0.334-0.389-0.598-0.514-0.804c-0.234-0.404-0.33-0.668-0.367-0.818c-0.007-0.015-0.007-0.022-0.019-0.044
		c-0.096-0.257-0.184-0.697-0.184-0.697c-0.683-0.078-1.392-0.247-2.063-0.481c0.066,0.052,0.11,0.11,0.147,0.169
		c0.008,0.015,0.019,0.033,0.025,0.044c0.019,0.047,0.044,0.088,0.052,0.154c0,0.015,0,0.04,0.011,0.074
		c0.007,0.041,0.007,0.084,0.007,0.135c0,0.022,0,0.048-0.007,0.066c0,0.051-0.011,0.103-0.019,0.158
		c0,0.008-0.007,0.041-0.007,0.062C56,67.905,55.986,67.953,55.978,68c-0.011,0.022-0.014,0.037-0.021,0.066
		c-0.019,0.043-0.025,0.103-0.056,0.146c-0.018,0.07-0.047,0.14-0.069,0.194c-0.129,0.426-0.47,0.698-1.05,0.576
		c-0.955-0.202-1.839-0.719-2.141-0.874c-0.305-0.168-0.767-0.055-0.487,0.661c0.103,0.26,0.213,0.514,0.333,0.752
		c0.026,0.062,0.066,0.132,0.089,0.194c0.106,0.188,0.209,0.382,0.323,0.562c0.037,0.055,0.062,0.106,0.096,0.165
		c0.132,0.198,0.268,0.403,0.399,0.599c0.019,0,0.025,0.014,0.041,0.036c0.209,0.298,0.437,0.569,0.664,0.855
		C54.151,71.991,54.206,72.049,54.257,72.108"/>
	<path fill="#F8DCC2" d="M94.484,61.576c-0.448,0.143-0.717,0.286-0.841,0.44c-0.025,0.026-0.037,0.055-0.044,0.081
		c-0.012,0.026-0.015,0.059-0.015,0.081c0,0.019,0.003,0.029,0.003,0.048c0.012,0.033,0.015,0.048,0.03,0.077
		c0.003,0.022,0.011,0.037,0.025,0.055c0.015,0.026,0.025,0.055,0.055,0.088c0.015,0.007,0.021,0.033,0.033,0.051
		c0.026,0.026,0.059,0.044,0.092,0.088c0.007,0.004,0.022,0.022,0.029,0.026c0.033,0.03,0.088,0.073,0.121,0.114
		c0.172,0.14,0.356,0.257,0.536,0.375c0.095,0.059,0.234,0.066,0.403,0.059c0.507-0.037,1.277-0.319,1.909-0.631l0,0
		c-0.036,0.015-0.069,0.015-0.106,0.015c-0.029,0.019-0.062,0.026-0.096,0.026c-0.051,0-0.106-0.007-0.157-0.026
		c-0.019,0-0.041-0.003-0.063-0.018c-0.051-0.022-0.095-0.055-0.146-0.088c-0.012-0.019-0.02-0.019-0.02-0.022
		c-0.062-0.048-0.105-0.11-0.132-0.154c-0.095-0.15-0.319-0.708-0.367-0.855c-0.019-0.062-0.019-0.143-0.011-0.224
		c0.011-0.004,0.011-0.022,0.019-0.037c0.015-0.073,0.056-0.139,0.095-0.206c0.016-0.011,0.016-0.021,0.02-0.029
		C95.526,61.158,95.097,61.385,94.484,61.576"/>
	<path fill="#F8DCC2" d="M75.358,69.744c-0.092-0.198-0.466-0.889-0.617-1.336c-0.143-0.437-0.209-0.716-0.234-1.16
		c-0.117-0.334-0.198-1.002-0.15-1.608c0.04-0.536,0.157-1.149,0.502-2.896c0.225-1.131-0.136-2.449-0.143-3.671
		c-0.007-0.936-0.106-3.234-0.077-5.558l0,0c-0.011,0-0.033,0.015-0.051,0.015c-0.118,0.044-0.239,0.084-0.354,0.132
		c0,0.011-0.011,0.011-0.019,0.011c-0.121,0.047-0.234,0.11-0.341,0.161c-0.008,0.007-0.019,0.015-0.029,0.015
		c-0.088,0.051-0.161,0.106-0.235,0.157c-0.014,0.011-0.036,0.033-0.04,0.041c-0.081,0.051-0.146,0.113-0.194,0.187
		c-0.294,0.385-0.937,2.026-0.797,3.249c0.14,1.211,0.323,2.973,0.342,3.895c0.037,2.081-0.98,4.985-0.576,6.223
		c0.032,0.091,0.077,0.194,0.128,0.312c0.015,0.022,0.025,0.059,0.044,0.088c0.045,0.099,0.106,0.198,0.169,0.312
		c0.016,0.025,0.026,0.044,0.044,0.066c0.077,0.14,0.165,0.26,0.261,0.404c0.037,0.044,0.052,0.073,0.089,0.106
		c0.084,0.11,0.183,0.235,0.282,0.363c0.032,0.033,0.062,0.066,0.088,0.096c0.136,0.146,0.275,0.29,0.434,0.437
		c0.04,0.033,0.073,0.055,0.099,0.092c0.14,0.11,0.286,0.235,0.444,0.359c0.044,0.026,0.088,0.066,0.132,0.099
		c0.202,0.14,0.404,0.272,0.625,0.404c0.018,0.003,0.04,0.022,0.059,0.026c0.205,0.118,0.429,0.231,0.671,0.323
		c0.021,0.019,0.052,0.041,0.081,0.056c-0.007-0.011-0.007-0.011-0.015-0.015c-0.194-0.209-0.206-0.257-0.279-0.536
		C75.626,70.306,75.439,69.96,75.358,69.744"/>
	<path fill="#F8DCC2" d="M81.69,120.627c-0.036,0.019-0.092,0.044-0.136,0.066c-0.043,0.025-0.069,0.04-0.103,0.059
		c-0.019,0.004-0.041,0.022-0.059,0.029c-0.008,0-0.008,0-0.008,0c-0.066,0.041-0.136,0.073-0.194,0.118
		c-0.022,0-0.037,0.018-0.048,0.032c-0.162,0.085-0.33,0.198-0.528,0.346c-0.012,0.004-0.029,0.025-0.041,0.04
		c-0.201,0.143-0.415,0.322-0.653,0.536c-0.029,0.018-0.048,0.044-0.073,0.059c-0.114,0.103-0.231,0.213-0.359,0.33
		c-0.008,0.015-0.015,0.015-0.026,0.033c-0.132,0.121-0.271,0.261-0.41,0.407c-0.045,0.045-0.089,0.082-0.133,0.117
		c-0.113,0.114-0.216,0.235-0.33,0.364c-0.037,0.04-0.081,0.084-0.114,0.113c-0.018,0.008-0.033,0.045-0.052,0.066
		c-0.014,0.019-0.025,0.022-0.036,0.044c0,0-0.011,0-0.019,0.008c0.48-0.144,1.12-0.371,1.314-0.338
		c0.114,0.025-0.422,0.602-0.745,1.179c-0.305,0.591-2.247,6.328-4.045,9.375c-0.614,1.244-0.323,0.724-0.694,1.648l0,0
		c0.15-0.04,0.282-0.062,0.4-0.084c0.011,0,0.096-0.004,0.18-0.02c0.08-0.021,0.172-0.039,0.201-0.039
		c0.298-0.053,0.805-0.122,1.292-0.217c0.048-0.015,0.1-0.037,0.144-0.048c0.019-0.004,0.026-0.004,0.033-0.019
		c0.056-0.019,0.088-0.026,0.133-0.044l0.011-0.019c0.029-0.003,0.059-0.025,0.084-0.036c0.015,0,0.022-0.02,0.033-0.022
		c0.011-0.007,0.011-0.015,0.022-0.015c0.007,0,0.019-0.008,0.025-0.008c0.044-0.036,0.088-0.062,0.121-0.099
		c0.012-0.004,0.015-0.004,0.015-0.004c0.051-0.033,0.092-0.076,0.136-0.113c0.011-0.005,0.019-0.012,0.029-0.022
		c0.037-0.033,0.077-0.065,0.118-0.117l0.007-0.004c0.044-0.044,0.08-0.092,0.129-0.151c0.011-0.006,0.015-0.018,0.021-0.025
		c0.044-0.047,0.085-0.087,0.121-0.14c0-0.015,0.004-0.021,0.012-0.025c0.04-0.055,0.08-0.113,0.117-0.176
		c0.015,0,0.015-0.004,0.018-0.022c0.041-0.062,0.074-0.109,0.117-0.169c0,0,0.019-0.029,0.045-0.065
		c0.025-0.048,0.066-0.11,0.088-0.165c0.012,0,0.06-0.085,0.096-0.154c0.019-0.029,0.037-0.073,0.037-0.073
		c0.04-0.059,0.072-0.137,0.106-0.191c0.044-0.084,0.084-0.165,0.124-0.245c0.004-0.005,0.022-0.034,0.022-0.041
		c0.011-0.015,0.011-0.015,0.011-0.015c0.085-0.169,0.169-0.349,0.253-0.536l0,0c0.056-0.095,0.103-0.224,0.162-0.342
		c0.055-0.11,0.1-0.227,0.144-0.355c0.011,0,0.011,0,0.011,0c0.025-0.037,0.044-0.092,0.065-0.129
		c0.118-0.282,0.243-0.554,0.368-0.841c2.305-5.338,2.929-7.933,3.076-8.689C82.519,120.752,82.347,120.309,81.69,120.627"/>
	<path fill="#F8DCC2" d="M94.464,125.331c1.789,1.196,2.417,1.482,4.369,2.301c0.631,0.298,2.276-0.036,2.974-1.104
		c-0.012,0.018-0.021,0.029-0.037,0.029l0,0c-0.048,0.037-0.106,0.062-0.168,0.062c-0.008,0-0.016,0-0.023,0
		c-0.054,0.011-0.12,0-0.18,0c-0.014,0-0.032-0.008-0.04-0.008c-0.055-0.018-0.114-0.04-0.169-0.055
		c-0.007-0.004-0.018-0.012-0.032-0.012c-0.06-0.032-0.114-0.065-0.15-0.095c-0.291-0.238-0.621-0.528-1.896-1.442
		c-4.996-3.572-8.49-5.176-9.761-5.613c-0.447-0.161-0.926,0.18-0.605,0.643c0.29,0.422,0.569,0.841,0.823,1.284
		c0.025,0.034,0.058,0.073,0.08,0.122C91.337,122.765,93.473,124.512,94.464,125.331"/>
	<path fill="#F8DCC2" d="M66.206,114.842c-2.276,1.277-0.928,3.946-0.712,5.785c0.437,1.557,0.98,4.266,3.014,4.52
		c1.546,0.184,5.062-0.778,6.932-1.164c0.253-0.447,0.483-0.841,0.653-1.138c0.058-0.117,0.12-0.22,0.157-0.302
		c0.386-0.722-0.246-0.62-0.51-0.605c-0.262,0-1.018,0.198-3.261,0.628c-2.378,0.467-3.256,0.14-3.913-0.43
		c-0.649-0.558-0.569-1.762-0.701-3.105c-0.124-1.329-0.297-2.041-0.396-3.039c-0.015-0.18-0.036-0.335-0.051-0.484
		c-0.015-0.107-0.022-0.221-0.033-0.316c0-0.022-0.007-0.055-0.007-0.088c-0.012-0.103,0-0.198,0.018-0.298c0-0.011,0-0.033,0-0.044
		c0.022-0.106,0.052-0.22,0.114-0.315c0,0,0,0,0-0.008C67.046,114.46,66.716,114.681,66.206,114.842"/>
	<path fill="#F8DCC2" d="M62.432,109.967c0.198,0.205,2.198,1.641,2.356,1.747c0.14,0.097,2.299,1.289,3.612,1.986
		c0.019-0.004,0.019-0.004,0.033-0.008c0.125-0.076,0.261-0.132,0.419-0.19c1.839-0.72,3.594-0.789,4.181-0.925
		c0.599-0.144,0.297-0.565,0.114-0.767c-0.19-0.203-1.024-0.497-2.424-1.124c-6.581-2.94-10.564-6.557-11.009-7.048
		c-0.447-0.471-0.862-0.621-1.361,0.8c-0.033,0.103-0.07,0.231-0.104,0.374c0,0.048-0.019,0.104-0.021,0.144
		c-0.025,0.106-0.041,0.224-0.059,0.337c-0.008,0.045-0.008,0.1-0.015,0.158c-0.029,0.158-0.041,0.331-0.056,0.507
		c0,0.07-0.003,0.125-0.007,0.181c0,0.139-0.008,0.264-0.008,0.399c0,0.048-0.007,0.096-0.011,0.14c0.004,0,0.004,0,0.004,0.011
		c1.178,1.054,3.035,2.324,3.333,2.529C61.522,109.292,62.271,109.787,62.432,109.967"/>
	<path fill="#F8DCC2" d="M55.42,122.962c0.631,1.164,2.445,3.631,2.533,3.767c0.088,0.129,0.481,0.55,0.939,1.068
		c0.459,0.521,0.863,0.962,0.973,1.091c0.11,0.127,0.977,1.023,1.189,1.232c0.225,0.202,0.488,0.636,0.676,0.801
		c0.646,0.583,2.995,2.628,3.227,2.793c0.22,0.169,1.351,0.926,1.561,0.943c2.015,0.272,3.014-0.844,3.215-1.167
		c0.21-0.326,0.254-0.47,0.122-0.947c0,0.029,0,0.048-0.008,0.07c-0.007,0.033-0.007,0.036-0.011,0.051
		c0,0.029-0.008,0.059-0.021,0.063c-0.005,0.024-0.008,0.043-0.012,0.059c-0.011,0.021-0.022,0.032-0.036,0.054
		c-0.008,0.012-0.019,0.026-0.034,0.044c-0.014,0.005-0.028,0.02-0.039,0.023c-0.019,0.018-0.033,0.021-0.048,0.04
		c-0.019,0.003-0.041,0.007-0.063,0.019c-0.018,0-0.036,0-0.062,0.007c-0.015,0-0.044,0.004-0.06,0
		c-0.029,0-0.054-0.007-0.088-0.019c-0.021-0.004-0.048-0.004-0.076-0.007c-0.033-0.019-0.074-0.04-0.117-0.048
		c-0.019-0.011-0.045-0.011-0.067-0.033c-0.062-0.026-0.139-0.077-0.22-0.121c-2.06-1.344-3.785-3.358-6.229-6.116
		c-2.761-3.108-6.982-11.673-7.218-12.092c-0.227-0.415-0.719-0.294-0.888-0.253c-0.169,0.059-0.731,0.418-1.091,0.642
		c-0.367,0.239-0.458,0.83-0.646,2.86c0,0.014,0,0.026,0,0.026C53.335,118.873,54.884,121.964,55.42,122.962"/>
	<path fill="#F8DCC2" d="M39.019,125.602c0.341-1.112,0.003-2.316-0.639-2.522c-0.082-0.025-0.177-0.055-0.283-0.08
		c-0.011,0-0.021-0.012-0.029-0.012c-0.539-0.143-1.388-0.33-2.114-0.488c-1.362,2.17-2.794,9.618-3.532,13.091
		c-0.547,1.703-1.883,7.823-3.271,15H32.8c0.205-1.23,0.426-2.467,0.661-3.7C34.429,141.813,38.677,126.708,39.019,125.602"/>
	<g>
		<path fill="#1D1D1B" d="M122.144,131.718l4.28-0.558l0,0c1.277-0.162,2.89-0.364,3.367-0.394c1.009-0.04,1.449-0.606,0.679-0.83
			c-0.555-0.172-1.839-0.297-2.485-0.315c-0.25-0.007-0.693-0.007-0.962-0.015c-0.994-0.015-1.285-0.213-1.497-1.67
			c-0.617-4.295-3.004-14.912-4.726-20.521c-1.655-5.403-2.066-6.956-2.471-8.139c-0.341-1.031,0.334-1.086,0.661-1.083
			c1.204,0.063,2.886,0.698,3.359,1.726c1.067,2.299,8.337,21.358,11.263,28.439c0.624,1.534,1.292,3.176,1.975,4.856l1.152-8.285
			c-1.377-3.059-2.808-6.219-4.177-9.25c-2.159-4.777-4.204-9.263-5.761-12.589c-0.161-0.33-0.378-0.885-0.484-1.223
			c-0.036-0.109-0.047-0.201-0.047-0.286c0.003-0.602,0.804-0.693,1.192-0.653c0.999,0.1,7.173,0.518,12.507,0.914l0.411-2.991
			c-0.015,0-0.032-0.008-0.044-0.008c-7.721-0.705-14.034-1.311-14.908-1.398c-0.792-0.074-1.075-0.815-1.795-1.171
			c-2.625-1.307-7.562-2.526-10.66-3.62c-0.771-0.272-1.274-0.936-2.327-2.236c-0.646-0.786-1.079-1.13-1.627-1.645
			c-0.333-0.286-1.05-0.899-1.243-1.05c-0.192-0.158-0.324-0.583-0.158-1.432c0.158-0.848,0.668-4.159,0.631-8.014
			c-0.018-1.036,0.438-1.686,0.921-1.932c0.265-0.135,1.961-0.877,1.848-2.554c-0.118-1.686-0.64-4.035,0.711-7.346
			c1.318-3.216,2.952-8.943,3.154-12.713c0.217-4.012-0.8-6.6-2.386-7.999c-0.613-0.55-1.34-1.362-0.753-3.102
			c0.631-1.896,1.795-7.028,0.66-10.418c-0.249-0.756-0.547-0.762-0.712-0.853c-0.176-0.088-0.998-0.714-1.307-2.102
			c-0.415-1.817-1.751-8.311-6.784-14.924c-2.665-3.493-5.518-5.584-6.651-6.425c-0.782-0.502-2.151-1.453-3.785-2.323
			c-2.346-1.254-4.199-2.182-7.94-3.39c-0.954-0.311-5.08-1.555-8.777-1.896c-1.329-0.126-3.895-0.376-6.252-0.28
			c-1.075,0.053-3.156,0.262-5.608,0.697c-1.524,0.275-4.251,1.094-5.592,1.603c-0.928,0.345-2.19,0.774-3.748,1.432
			c-1.516,0.635-3.01,1.331-4.537,2.092c-0.499,0.246-2.628,1.476-3.087,1.756c-0.459,0.275-1.304,0.74-1.942,1.094
			c-1.384,0.767-3.736,1.665-4.878,2.088c-1.612,0.597-2.838,1.1-3.168,1.179c-0.342,0.088-1.473,0.584-1.521,1.311
			c-0.04,0.727,0.158,1.366,0.39,1.861c0.113,0.235,0.815,1.688-0.077,3.65c-0.676,1.446-3.484,5.729-6.443,8.175
			c-0.844,0.692-1.769,1.147-2.305,1.63c-0.551,0.473-1.193,1.905-0.364,3.666c0.83,1.751,2.376,3.271,3.121,4.856
			c0.753,1.584,1.182,4.374,0.62,7.639c-0.543,3.135-0.708,3.854-0.987,4.427c-0.283,0.58-0.841,1.715-0.062,3.051
			c0.771,1.344,2.415,2.709,3.439,3.495c0.551,0.437,0.834,0.804,0.423,1.571c-0.665,1.248-0.492,4.188,0.139,5.826
			c0.955,2.518,2.078,4.912,3.117,6.442c1.042,1.539,2.9,4.152,4.001,5.103c1.091,0.951,1.229,2.595,1.212,3.612
			c-0.019,1.028-0.157,3.913,2.801,5.719c1.465,0.892,1.597,0.675,2.14,1.108c0.533,0.437,0.786,0.657,1.149,1.828
			c0.367,1.175,2.056,5.246,4.38,8.124c0.679,0.833,1.057,1.429,1.134,1.568c0.084,0.128,0.21,0.285-0.084,0.969
			c-0.29,0.69-1.465,4.614-2.394,8.66c-0.177,0.745-0.43,1.721-1.362,2.18c-0.929,0.448-3.018,1.604-3.781,2.016
			c-0.76,0.43-1.138,0.657-2.015,1.748c-0.394,0.491-0.672,0.773-0.918,1.071c-0.14,0.17-0.209,0.269-0.943,0.66
			c-0.643,0.327-10.029,3.631-20.055,9.729l0.462,3.532c1.969-1.002,8.04-4.075,8.943-4.531c0.671-0.337,1.505-0.477,2.188-0.48
			c0.404-0.015,0.753,0.022,0.98,0.077c0.246,0.066,0.595,0.14,0.98,0.242c0.737,0.158,1.586,0.346,2.125,0.488
			c0.008,0,0.019,0.012,0.029,0.012c0.106,0.025,0.201,0.055,0.283,0.08c0.642,0.206,0.987,1.41,0.639,2.522
			c-0.342,1.105-4.59,16.211-5.558,21.288c-0.235,1.233-0.456,2.47-0.661,3.7H40.7c0.261-2.097,0.918-7.371,1.348-10.345
			c0.524-3.76,3.521-17.731,4.379-20.898c0.613-2.316,0.937-3.371,1.755-3.723c0.243-0.114,0.514-0.282,0.68-0.346
			c0.169-0.08,0.518-0.176,0.403,0.459c-0.125,0.709-0.752,3.675-1.674,13.301c-0.639,6.654-0.656,12.569-0.426,16.122
			c0.103,1.509,0.129,3.642,2.438,2.725c2.709-1.084,11.935-4.391,16.854-5.915c7.934-2.444,22.797-5.708,37.121-7.819l4.008-0.564
			c0,0,2.347,13.777,2.75,16.167l0.147,0.866h0.011l-0.158-0.866c-0.403-2.39-2.75-16.167-2.75-16.167
			c0.559-0.077,1.12-0.15,1.686-0.228c1.285-0.173,2.488-0.312,3.623-0.459l4.178-0.539c0.488-0.062,0.969-0.118,1.424-0.18
			C119.854,132.004,121.068,131.843,122.144,131.718L122.144,131.718c0,0,2.525,11.677,3.608,16.516
			c0.078,0.319,0.151,0.635,0.205,0.898c0.029,0.122,0.06,0.242,0.089,0.356l0.246,1.131h0.008l-0.25-1.131
			C125.232,145.939,122.144,131.718,122.144,131.718 M40.586,54.146c-0.386,0.176-0.738,0.216-1.002-0.312
			c-0.646-1.281-1.135-3.564-1.329-5.033c-0.188-1.487-0.488-5.909-0.386-8.317c0.092-2.423-0.375-3.766-1.233-4.919
			c-0.862-1.16-1.428-1.957-1.634-2.342c-0.275-0.481-0.092-0.819,0.415-1.186c0.253-0.176,0.76-0.075,1.152-0.145
			c0.774-0.167,3.359-1.099,5.283-2.619c1.92-1.511,4.98-4.431,7.062-5.556c2.075-1.122,2.995-1.63,5.411-1.918
			c0.433-0.066,1.075,0.174,0.356,0.721c-0.734,0.557-3.065,1.384-5.79,5.488c-1.67,2.513-1.948,3.966-2.471,5.101
			c-0.528,1.121-1.042,1.441-1.883,2.351c-0.407,0.448-1.248,1.349-1.538,2.67c-0.305,1.336-1.505,6.011-0.8,13.082
			c0.084,0.823,0.43,1.916-0.345,2.316C41.379,53.775,40.972,53.981,40.586,54.146z M43.923,63.684
			c-0.411-0.305-2.093-2.566-2.908-5.107c-0.091-0.253-0.194-0.936,0.25-1.13c0.363-0.162,0.845-0.437,1.098-0.562
			c0.25-0.121,0.885-0.283,0.973,0.62c0.089,0.914,0.169,1.994,1.208,4.692c0.194,0.481,0.231,0.627,0.275,0.826
			C44.955,63.588,44.305,63.948,43.923,63.684z M47.348,55.097c-0.125,0.007-1.277,0.147-1.891,0.261
			c-0.389,0.077-0.785,0.221-0.826-0.154c-0.047-0.422-0.18-0.969-0.213-1.127c-0.033-0.154,0.037-0.301,0.228-0.356
			c0.459-0.103,2.229-0.4,2.394-0.4c0.176-0.019,0.353,0.051,0.423,0.396c0.069,0.36,0.15,0.746,0.172,0.889
			C47.653,54.763,47.697,55.027,47.348,55.097z M47.968,49.311c-0.106-0.539-0.253-1.464-0.205-2.029
			c0.022-0.225,0.092-0.808,0.363-1.112c0.386-0.448,0.903-0.837,1.233-1.113c0.613-0.488,0.492-1.788,0.532-2.528
			c0.129-2.154-0.062-8.942,4.347-15.436c0.176-0.259,0.345-0.481,0.518-0.688c0.048-0.073,0.099-0.126,0.15-0.187
			c0.128-0.158,0.257-0.294,0.389-0.43c0.052-0.066,0.106-0.104,0.15-0.17c0.17-0.158,0.334-0.307,0.496-0.446
			c0.022-0.014,0.036-0.022,0.048-0.031c0.184-0.162,0.371-0.297,0.554-0.42c0.052-0.035,0.114-0.079,0.166-0.11
			c0.132-0.074,0.264-0.152,0.399-0.237c0.062-0.029,0.125-0.07,0.191-0.095c0.154-0.083,0.312-0.158,0.474-0.224
			c0.025-0.017,0.055-0.035,0.092-0.051c0.187-0.066,0.385-0.145,0.576-0.22c0.048-0.007,0.103-0.022,0.158-0.039
			c0.15-0.062,0.308-0.101,0.466-0.146c0.022,0,0.044,0,0.07-0.012l0,0c0.902-0.231,1.812-0.367,2.749-0.531
			c2.617-0.442,5.679-0.025,7.246,0.47c1.252,0.393,1.892,0.699,2.31,0.306c0.418-0.391,1.517-1.639,1.979-2.063
			c0.062-0.07,0.11-0.14,0.15-0.211c0.004-0.017,0.015-0.042,0.026-0.064c0.014-0.053,0.029-0.098,0.043-0.141
			c0-0.022,0.004-0.057,0.004-0.064c0-0.059-0.004-0.11-0.018-0.164c0-0.013,0-0.029-0.004-0.057
			c-0.025-0.066-0.052-0.13-0.092-0.197c-0.106-0.157-0.261-0.319-0.459-0.425c-0.518-0.301-5.632-4.058-12.544-4.242
			c-6.732-0.148-12.21,2.229-13.667,2.737c-0.29,0.082-0.438,0.139-0.609,0.139c-0.18,0.013-0.76-0.196-0.543-0.613
			c0.241-0.459,0.836-1.151,1.457-1.722c0.653-0.586,3.844-3.594,7-4.983c0.584-0.257,0.724-0.364,1.098-0.512
			c0.475-0.184,0.757-1.252-0.297-1.265c-1.086,0-1.517,0.117-2.077,0.215c-0.57,0.095-0.893-0.167-0.533-0.654
			c0.36-0.486,1.064-1.033,2.339-1.716c2.761-1.515,7.809-3.091,10.198-3.608c3.12-0.696,3.501-0.74,5.568-0.863
			c1.935-0.114,3.479,0.032,4.211,0.054c6.188,0.236,13.311,2.281,18.844,5.925c5.248,3.849,12.8,10.29,14.298,26.19
			c0.184,1.892,0.052,2.974-0.019,3.451c-0.07,0.478-0.609,1.353-1.087,0.351c-1.557-3.276-3.975-7.571-6.718-11.641
			c-0.165-0.244-0.322-0.358-0.462-0.38c-0.052-0.004-0.104,0-0.151,0.022c-0.007,0-0.007,0.026-0.025,0.026
			c-0.026,0.013-0.052,0.047-0.077,0.088c-0.014,0.017-0.019,0.044-0.026,0.057c-0.014,0.035-0.029,0.088-0.029,0.126
			c-0.006,0.035-0.014,0.07-0.014,0.101c0,0.073,0.008,0.158,0.029,0.259c0.069,0.297,0.939,4.598,0.976,5.198
			c0.037,0.594-0.249,2.066,1.979,4.772c0.903,1.116,1.718,2.066,2.129,3.709c0.411,1.639,0.551,2.336,0.555,2.505
			c0.007,0.173,0.198,0.661-0.595,0.661c-0.774,0-3.771-0.209-5.06-0.18c-1.276,0.029-10.135,0.896-13.431,1.597
			c-3.286,0.705-5.062,1.53-6.755,3.304c-0.412,0.433-0.98,0.83-1.102,0.863c-0.125,0.033-0.558,0.029-1.398-0.022
			c-0.841-0.062-2.287,0.139-3.051,0.5c-0.764,0.33-1.311,0.66-2.235,0.275c-1.322-0.543-3.58-2.973-9.457-2.684
			c-3.602,0.18-5.422,0.265-7.944,0.661c-0.194,0.022-0.396,0.055-0.595,0.081c-0.124,0.029-0.245,0.041-0.378,0.062
			c-0.11,0.021-0.224,0.04-0.333,0.069c-0.129,0.015-0.254,0.026-0.386,0.048c-0.114,0.033-0.228,0.055-0.349,0.078
			c-0.209,0.029-0.431,0.069-0.658,0.121c-0.153,0.022-0.305,0.059-0.462,0.088c-0.114,0.011-0.228,0.041-0.342,0.055
			c-0.172,0.033-0.333,0.062-0.514,0.099c-0.269,0.055-0.543,0.106-0.841,0.165C48.449,50.108,48.079,49.884,47.968,49.311z
			 M102.085,47.802c0,0.18-0.23,0.375-0.458,0.415c-0.231,0.03-1.82,0.184-2.066,0.206c-0.25,0.003-0.485-0.132-0.507-0.364
			c-0.022-0.224-0.07-0.775-0.092-0.914c-0.022-0.132-0.029-0.327,0.298-0.363c0.183-0.022,1.834-0.169,2.44-0.246
			c0.231-0.037,0.371,0.184,0.385,0.375C102.085,47.124,102.085,47.616,102.085,47.802z M94.689,49.572
			c-0.488-0.345-1.351-0.885-1.872-1.076c-0.356-0.125-0.234-0.569,0.282-0.649c1.781-0.261,2.926-0.261,3.814,0.301
			c0.643,0.396,1.076,1.178,0.885,1.857c-0.235,0.793-0.543,0.617-0.933,0.617C96.48,50.607,95.173,49.924,94.689,49.572z
			 M95.716,53.052c-0.304,0.205-1.34,0.018-1.707-0.132c-0.767-0.297-1.307-0.507-2.367-1.182c-0.69-0.437-1.894-0.657-2.948-0.334
			c-0.701,0.213-1.263,0.386-1.876,0.628c-0.612,0.235-0.734-0.334-0.575-0.569c0.157-0.238,1.137-1.376,2.418-1.857
			c0.272-0.099,0.819-0.161,1.091-0.165c0.83-0.033,1.857,0.371,2.64,0.955c0.785,0.558,2.037,1.505,2.853,1.861
			C95.632,52.406,96.462,52.527,95.716,53.052z M70.108,80.709c-3.098,1.075-3.976-0.019-4.255-0.338
			c-0.274-0.323,0.07-0.639,0.39-0.793c0.745-0.353,1.729-1.098,2.235-1.575c0.496-0.488,1.473-2.195,2.181-2.782
			c0.334-0.283,2.14-0.9,3.495-0.254c1.618,0.767,4.129,0.852,5.675,0.65c1.538-0.213,2.126-1.34,2.463-2
			c0.331-0.668,1.146-0.907,1.579-1.091c1.189-0.477,2.749-2.118,2.915-2.279c0.165-0.169,0.646-0.411,1.428,0.055
			c1.413,0.826,2.125,1.924,3.439,3.414c1.322,1.483,2.875,1.725,3.33,1.754c0.455,0.03,0.727,0.555,0.76,0.701
			c0.021,0.151-0.359,0.646-0.643,0.863c-0.287,0.209-0.437,0.587-2.955,0.646C79.532,77.993,73.856,79.399,70.108,80.709z
			 M87.222,82.222c-0.753,0.389-2.973,1.219-4.082,1.436c-1.112,0.216-4.641,0.925-5.238,0.98c-0.737,0.059-1.776-0.165-2.68-0.782
			c-0.184-0.132-0.426-0.613,0.228-0.708c1.223-0.187,3.189-1.098,10.359-1.469c0.771-0.037,1.137-0.044,1.321-0.047
			C87.318,81.616,87.975,81.829,87.222,82.222z M70.608,98.132c-2.497,0.426-9.16-1.546-13.499-12.229
			c-1.112-2.757,0.106-5.492,1.182-6.054c0.644-0.319,0.985-0.451,1.205-0.507c0.234-0.062,1.365-0.216,1.498,1.069
			c0.099,1.039,2.1,9.511,4.798,12.309c0.664,0.701,1.186,0.661,1.357-0.055c0.155-0.664,0.44-1.53,0.525-1.854
			c0.052-0.242,0.713-0.961,1.076-0.04c0.796,1.945,1.747,4.482,2.382,5.503C71.745,97.277,71.551,97.985,70.608,98.132z
			 M71.103,70.181c0.234,0.319,0.382,0.906,0.363,1.167c-0.019,0.301-1.049,0.851-2.13-0.353c-1.075-1.211-0.866-2.886-0.418-3.59
			c0.709-1.134,2.104-0.562,1.968-0.165C70.424,68.639,70.861,69.839,71.103,70.181z M63.115,54.506
			c-0.8-0.022-1.667-0.125-3.139,0.411c-1.633,0.621-2.698,1.41-3.462,1.887c-0.785,0.481-1.607,0.698-1.894,0.709
			c-0.275,0.033-1.285-0.107-0.596-0.83c0.188-0.206,0.632-0.356,1.304-0.844c0.48-0.356,0.837-0.598,1.381-1.075
			c0.98-0.826,2.958-2.012,3.817-2.126c0.639-0.081,1.762,0.033,2.435,0.599C63.655,53.791,63.922,54.535,63.115,54.506z
			 M49.291,55.941c0.088-0.54,0.656-1.923,1.875-2.324c0.158-0.043,0.771-0.246,1.271-0.378c0.595-0.143,1.237-0.282,1.557-0.341
			c0.878-0.143,1.064,0.521,0.51,0.951c-0.359,0.29-0.936,0.664-1.445,1.068c-0.779,0.643-1.524,1.347-2.101,1.825
			C50.256,57.329,49.118,57.009,49.291,55.941z M53.435,71.08c-0.016-0.022-0.022-0.036-0.041-0.036
			c-0.132-0.195-0.268-0.4-0.399-0.599c-0.033-0.059-0.059-0.11-0.096-0.165c-0.114-0.18-0.217-0.375-0.323-0.562
			c-0.022-0.062-0.062-0.132-0.089-0.194c-0.12-0.239-0.23-0.492-0.333-0.752c-0.279-0.716,0.183-0.83,0.487-0.661
			c0.302,0.155,1.186,0.672,2.141,0.874c0.58,0.122,0.921-0.15,1.05-0.576c0.022-0.055,0.052-0.125,0.069-0.194
			c0.022-0.044,0.037-0.103,0.056-0.146c0.008-0.03,0.011-0.044,0.021-0.066c0.008-0.048,0.022-0.096,0.041-0.147
			c0-0.021,0.007-0.054,0.007-0.062c0.008-0.055,0.019-0.106,0.019-0.158c0.007-0.019,0.007-0.044,0.007-0.066
			c0-0.051,0-0.095-0.007-0.135c-0.011-0.034-0.011-0.059-0.011-0.074c-0.008-0.066-0.033-0.106-0.052-0.154
			c-0.007-0.011-0.018-0.029-0.025-0.044c-0.073-0.129-0.201-0.246-0.404-0.323c-0.821-0.334-3.16-1.076-4.926-4.335
			c-0.246-0.459-0.011-0.844,0.161-0.984c0.177-0.14,0.789-0.536,1.079-0.716c0.287-0.18,0.69-0.169,1.105,0.135
			c0.407,0.276,1.281,0.922,1.985,0.841c0.647-0.051,0.709-0.319,0.822-0.481c0.459-0.665,1.7-3.106,4.949-3.142
			c1.344-0.019,2.606,0.113,3.058,0.091c0.444-0.037,2.022-0.18,2.959-0.815c0.925-0.631,1.317-0.184,0.778,0.507
			c-0.077,0.11-0.158,0.217-0.235,0.312c-0.015,0.026-0.025,0.044-0.04,0.059c-0.081,0.11-0.154,0.213-0.213,0.316l0,0
			c-0.191,0.331-0.202,0.628,0.169,1.028c0.591,0.624,0.745,0.737,0.933,0.892c0.088,0.052,0.194,0.096,0.312,0.096
			c0.048,0.015,0.11-0.007,0.173-0.019c0.015-0.011,0.036-0.011,0.059-0.025c0.088-0.022,0.173-0.077,0.265-0.158
			c0.342-0.297,0.568-0.478,0.865-0.849c0.222-0.304,0.404,0,0.346,0.43c-0.037,0.349,0.113,2.547-2.298,5.268
			c-0.117,0.146-0.506,0.44-0.95,0.845l0,0c-0.005,0.007-0.008,0.018-0.012,0.018c-0.062,0.059-0.136,0.14-0.202,0.202
			c-0.062,0.044-0.117,0.121-0.176,0.183c-0.044,0.052-0.088,0.081-0.129,0.144c-0.081,0.088-0.161,0.176-0.238,0.275
			c-0.019,0.033-0.044,0.062-0.059,0.088c-0.205,0.271-0.4,0.565-0.551,0.892c-0.672,1.425-0.584,1.902-0.657,2.405
			c-0.066,0.525-0.463,0.741-0.914,0.943c-0.271,0.121-0.991,0.543-1.795,1.142c-0.238,0.183-0.484,0.381-0.72,0.587
			c-0.044,0.037-0.084,0.077-0.121,0.114c-0.246,0.221-0.492,0.448-0.719,0.687c-0.14,0.154-0.291,0.286-0.449,0.411
			c-0.043,0.029-0.076,0.055-0.117,0.084c-0.113,0.084-0.234,0.165-0.363,0.235c-0.044,0.029-0.096,0.066-0.146,0.084
			c-0.114,0.059-0.228,0.103-0.342,0.136c-0.062,0.029-0.114,0.048-0.18,0.066c-0.022,0-0.055,0.015-0.084,0.022
			c-0.06,0.007-0.121,0.007-0.184,0.025c-0.096,0.022-0.194,0.029-0.29,0.037c-0.078,0.003-0.158,0-0.246-0.008
			c-0.1,0-0.202,0-0.305-0.007c-0.074-0.022-0.158-0.047-0.228-0.062c-0.11-0.025-0.221-0.055-0.316-0.095
			c-0.088-0.025-0.161-0.07-0.246-0.103c-0.099-0.059-0.201-0.103-0.297-0.158c-0.007-0.007-0.018-0.007-0.037-0.011
			c-0.157-0.099-0.312-0.224-0.48-0.359c-0.213-0.18-0.437-0.386-0.664-0.592c-0.019-0.011-0.022-0.025-0.036-0.029
			c-0.195-0.176-0.386-0.371-0.584-0.572c-0.029-0.026-0.063-0.055-0.1-0.084c-0.029-0.044-0.059-0.078-0.092-0.107
			c-0.191-0.198-0.386-0.411-0.572-0.617c-0.052-0.059-0.106-0.117-0.158-0.172C53.872,71.649,53.64,71.378,53.435,71.08z
			 M82.326,121.78c-0.147,0.757-0.771,3.352-3.076,8.689c-0.125,0.287-0.25,0.559-0.368,0.841c-0.021,0.037-0.04,0.092-0.065,0.129
			c0,0,0,0-0.011,0.019c-0.029,0.087-0.074,0.183-0.118,0.268c-0.066,0.143-0.128,0.298-0.188,0.411l0,0
			c-0.084,0.188-0.168,0.367-0.253,0.536c0,0,0,0-0.011,0.015c0,0.007-0.019,0.036-0.022,0.041c-0.04,0.091-0.08,0.161-0.124,0.245
			c-0.034,0.055-0.066,0.133-0.106,0.191v0.011c-0.019,0.011-0.026,0.04-0.037,0.062c-0.036,0.069-0.084,0.154-0.096,0.154
			c-0.021,0.055-0.062,0.117-0.088,0.165c-0.015,0.011-0.026,0.033-0.033,0.055c-0.012,0-0.012,0-0.012,0.011
			c-0.043,0.06-0.076,0.107-0.117,0.169c-0.003,0.019-0.003,0.022-0.018,0.022c-0.037,0.062-0.077,0.121-0.117,0.176
			c-0.008,0.004-0.012,0.011-0.012,0.025c-0.036,0.053-0.077,0.093-0.121,0.14c-0.007,0.008-0.011,0.02-0.021,0.025
			c-0.049,0.06-0.085,0.107-0.125,0.151l-0.011,0.004c-0.041,0.052-0.081,0.084-0.118,0.117c-0.011,0.011-0.019,0.018-0.029,0.022
			c-0.044,0.037-0.085,0.08-0.136,0.113c0,0-0.003,0-0.015,0.004c-0.033,0.036-0.077,0.062-0.121,0.099
			c-0.007,0-0.019,0.008-0.025,0.008c-0.012,0-0.012,0.008-0.022,0.015c-0.011,0.003-0.019,0.022-0.033,0.022
			c-0.025,0.011-0.055,0.033-0.084,0.036l-0.011,0.019c-0.045,0.018-0.077,0.025-0.133,0.044c-0.007,0.015-0.015,0.015-0.033,0.019
			c-0.044,0.011-0.096,0.033-0.144,0.048c-0.487,0.095-0.994,0.164-1.292,0.217c-0.043,0.014-0.087,0.018-0.132,0.021
			c-0.019,0.011-0.051,0.018-0.069,0.018c-0.084,0.016-0.169,0.02-0.18,0.02c-0.118,0.021-0.25,0.044-0.4,0.084l0,0
			c-3.458,0.565-12.863,2.202-17.221,3.068c-2.896,0.576-2.609-0.88-3.337-3.513c-0.305-1.102-1.38-10.877-0.818-17.029
			c0.188-2.03,0.278-2.621,0.646-2.86c0.359-0.224,0.922-0.583,1.091-0.642c0.169-0.041,0.661-0.162,0.888,0.253
			c0.235,0.419,4.457,8.983,7.218,12.092c2.444,2.758,4.17,4.772,6.229,6.116c0.081,0.044,0.158,0.095,0.22,0.121
			c0.022,0.022,0.049,0.022,0.067,0.033c0.043,0.008,0.084,0.029,0.117,0.048c0.028,0.003,0.055,0.003,0.076,0.007
			c0.034,0.012,0.059,0.019,0.088,0.019c0.016,0.004,0.045,0,0.06,0c0.025-0.007,0.044-0.007,0.062-0.007
			c0.022-0.012,0.045-0.016,0.063-0.019c0.015-0.019,0.029-0.022,0.048-0.04c0.011-0.004,0.025-0.019,0.039-0.023
			c0.016-0.018,0.026-0.032,0.034-0.044c0.014-0.021,0.025-0.032,0.036-0.054c0.004-0.016,0.007-0.034,0.012-0.059
			c0.014-0.005,0.021-0.034,0.021-0.063c0.004-0.015,0.004-0.018,0.011-0.051c0.048-0.315-0.109-0.775-0.407-1.102
			c-0.463-0.492-2.339-2.438-4.827-5.962c-3.212-4.569-5.39-11.307-5.977-13.458c-0.386-1.405-0.595-3.631-0.558-5.403
			c0-0.011,0-0.011-0.004-0.011c0.004-0.044,0.011-0.092,0.011-0.14c0-0.136,0.008-0.261,0.008-0.399
			c0.004-0.056,0.007-0.11,0.007-0.181c0.015-0.176,0.026-0.349,0.056-0.507c0.007-0.059,0.007-0.113,0.015-0.158
			c0.018-0.113,0.033-0.23,0.059-0.337c0.003-0.04,0.021-0.096,0.021-0.144c0.033-0.143,0.07-0.271,0.104-0.374
			c0.499-1.421,0.914-1.271,1.361-0.8c0.444,0.491,4.428,4.107,11.009,7.048c1.399,0.627,2.233,0.921,2.424,1.124
			c0.183,0.201,0.484,0.623-0.114,0.767c-0.587,0.136-2.342,0.205-4.181,0.925c-0.158,0.059-0.294,0.114-0.419,0.19
			c-0.514,0.25-0.797,0.499-0.925,0.753c-0.062,0.096-0.092,0.209-0.114,0.315c0,0.011,0,0.033,0,0.044
			c-0.018,0.1-0.029,0.195-0.018,0.298c0,0.033,0.007,0.065,0.007,0.088c0.011,0.096,0.019,0.209,0.033,0.316
			c0.015,0.149,0.036,0.305,0.051,0.484c0.1,0.998,0.272,1.71,0.396,3.039c0.132,1.344,0.052,2.548,0.701,3.105
			c0.657,0.569,1.535,0.896,3.913,0.43c2.243-0.43,2.999-0.628,3.261-0.628c0.264-0.015,0.896-0.116,0.51,0.605
			c-0.037,0.082-0.1,0.185-0.157,0.302c-0.529,0.936-1.763,2.992-2.188,4.364c-0.47,1.523-0.573,1.949-0.605,2.207
			c-0.044,0.264,0.14,0.767,0.603,0.198c0.466-0.565,1.395-2.677,3.699-5.367c0.275-0.309,0.533-0.588,0.768-0.852
			c0.008-0.008,0.019-0.008,0.019-0.008c0.011-0.021,0.022-0.025,0.036-0.044c0.019-0.021,0.034-0.059,0.052-0.066
			c0.033-0.029,0.077-0.073,0.114-0.113c0.114-0.129,0.217-0.25,0.33-0.364c0.044-0.035,0.088-0.072,0.133-0.117
			c0.139-0.146,0.278-0.286,0.41-0.407c0.012-0.019,0.019-0.019,0.026-0.033c0.128-0.117,0.245-0.228,0.359-0.33
			c0.025-0.015,0.044-0.041,0.073-0.059c0.238-0.214,0.452-0.394,0.653-0.536c0.012-0.015,0.029-0.036,0.041-0.04
			c0.198-0.147,0.366-0.261,0.528-0.346c0.011-0.015,0.025-0.032,0.048-0.032c0.059-0.045,0.128-0.077,0.194-0.118c0,0,0,0,0.008,0
			c0.018-0.007,0.04-0.025,0.059-0.029c0.033-0.019,0.06-0.033,0.103-0.059c0.044-0.022,0.1-0.048,0.136-0.066
			C82.347,120.309,82.519,120.752,82.326,121.78z M86.154,133.549c-0.366,0.073-1.972,0.305-2.221,0.327
			c-0.246,0-0.44-0.228-0.345-0.386c0.099-0.184,1.208-1.623,1.816-4.126c0.096-0.404,0.359-0.688,0.521-0.092
			c0.122,0.411,0.62,2.536,0.734,3.341C86.678,132.752,86.767,133.392,86.154,133.549z M86.833,113.154
			c-1.058,0.399-2.222-0.782-3.176-1.428c-2.133-1.458-4.089-2.86-5.701-4.824c-2.463-3.01-2.235-5.109-1.523-8.998
			c0.507-2.749-0.396-5.345-0.598-5.705c-0.191-0.367,0.028-0.752,0.612-0.477s1.135,1.116,1.736,1.857
			c0.592,0.727,0.728,0.206,0.778-0.293c0.113-1.189-0.176-2.158-0.323-2.665c-0.08-0.327-0.367-1.028-0.991-1.152
			c-0.829-0.173-1.648-0.243-2.085-0.565c-0.213-0.173-0.444-0.459-0.217-0.683c0.431-0.411,1.047-0.951,1.623-1.153
			c0.797-0.268,1.561-0.683,2.565-0.668c6.795,0.044,8.62-1.539,11.216-2.622c0.51-0.209,0.814-0.319,1.255-0.168
			c0.426,0.136,1.619,0.573,1.924,1.112c0.301,0.521,0.359,2.724,0.929,4.317c0.58,1.601,1.546-0.051,1.758-0.745
			c0.21-0.679,0.294-2.309,0.302-2.728c0.018-0.411,0.128-2.14,0.676-2.728c1.09-1.171,1.34-2.533,1.479-3.087
			c0.12-0.525,0.23-2.169-0.14-4.453c-0.36-2.313-0.826-2.511-1.454-2.93c-0.628-0.418-1.289-0.242-2.878-1.325
			c-1.433-0.977-2.72-2.702-3.796-3.752c-1.087-1.042-2.779-2.085-4.578-2.276c-0.109-0.003-0.209-0.011-0.301-0.011
			c-0.036,0.007-0.069,0.011-0.106,0.011c-0.044,0-0.095,0-0.133,0.011c-0.032,0.007-0.058,0.018-0.091,0.018
			c-0.029,0.019-0.07,0.041-0.096,0.041c-0.025,0.004-0.051,0.029-0.077,0.044c-0.019,0.003-0.04,0.018-0.059,0.041
			c-0.022,0.003-0.044,0.037-0.062,0.059c-0.007,0.015-0.025,0.018-0.025,0.041c-0.025,0.021-0.033,0.043-0.052,0.084
			c0,0.007-0.007,0.026-0.015,0.033c-0.004,0.041-0.007,0.07-0.015,0.11c0,0.007,0,0.018-0.008,0.029
			c-0.007,0.044,0,0.084,0.008,0.122c0.029,0.448,0.346,1.002,0.434,1.226c0.113,0.301,0.399,1.226-0.106,1.762
			c-0.518,0.54-3.514,3.227-6.321,3.154c-1.271-0.022-2.331-0.279-3.224-0.661c0.008,0.004,0.008,0.004,0.015,0.015
			c-0.029-0.015-0.06-0.037-0.081-0.056c-0.242-0.091-0.466-0.205-0.671-0.323c-0.019-0.004-0.041-0.022-0.059-0.026
			c-0.221-0.132-0.423-0.264-0.625-0.404c-0.044-0.033-0.088-0.073-0.132-0.099c-0.158-0.125-0.305-0.25-0.444-0.359
			c-0.025-0.037-0.059-0.059-0.099-0.092c-0.158-0.147-0.298-0.291-0.434-0.437c-0.025-0.029-0.056-0.062-0.088-0.096
			c-0.1-0.128-0.198-0.253-0.282-0.363c-0.037-0.033-0.052-0.062-0.089-0.106c-0.096-0.144-0.184-0.264-0.261-0.404
			c-0.018-0.022-0.028-0.041-0.044-0.066C72.623,68.199,72.561,68.1,72.516,68c-0.019-0.029-0.029-0.066-0.044-0.088
			c-0.051-0.118-0.096-0.22-0.128-0.312c-0.404-1.237,0.613-4.142,0.576-6.223c-0.019-0.921-0.202-2.684-0.342-3.895
			c-0.14-1.223,0.503-2.864,0.797-3.249c0.048-0.074,0.113-0.136,0.194-0.187c0.004-0.008,0.026-0.03,0.04-0.041
			c0.074-0.051,0.147-0.106,0.235-0.157c0.011,0,0.021-0.008,0.029-0.015c0.106-0.051,0.22-0.114,0.341-0.161
			c0.008,0,0.019,0,0.019-0.011c0.114-0.048,0.235-0.088,0.354-0.132c0.018,0,0.04-0.015,0.051-0.015l0,0
			c0.261-0.095,0.544-0.169,0.855-0.246c0.998-0.216,2.17,0.283,2.471,1.109c1.042,2.878,2.206,3.487,2.591,3.671
			c0.394,0.202,1.011-0.378,1.256-0.58c0.242-0.213,0.834-0.984,0.568-1.322c-0.396-0.502-0.623-0.826-0.737-1.145
			c-0.19-0.547,0.518-0.562,0.684-0.477c2.136,0.896,3.171,1.09,5.237,1.02c2.075-0.062,5.283-1.42,5.694-1.442
			c0.323-0.007,0.961,0.202,1.201,0.536c0.128,0.169,0.322,0.503,0.531,0.75c0,0.003,0.015,0.011,0.019,0.014
			c0.033,0.033,0.07,0.078,0.103,0.107c0.012,0.015,0.037,0.036,0.056,0.048c0.025,0.018,0.044,0.037,0.059,0.047
			c0.029,0.019,0.055,0.041,0.073,0.041c0.025,0.003,0.045,0.025,0.069,0.025c0.305,0.081,1.031,0.019,1.418,0.037
			c0.527,0.019,1.436-0.162,1.413,0.8c-0.056,2.566-2.097,4.174-2.272,4.329c-0.033,0.025-0.059,0.062-0.089,0.102
			c-0.039,0.067-0.08,0.133-0.095,0.206c-0.008,0.015-0.008,0.033-0.019,0.037c-0.008,0.081-0.008,0.162,0.011,0.224
			c0.048,0.147,0.272,0.705,0.367,0.855c0.026,0.044,0.07,0.106,0.132,0.154c0,0.003,0.008,0.003,0.02,0.022
			c0.043,0.033,0.095,0.066,0.146,0.088c0.022,0.015,0.045,0.018,0.063,0.018c0.051,0.019,0.106,0.026,0.157,0.026
			c0.033,0,0.066-0.007,0.096-0.026c0.07-0.003,0.15-0.033,0.228-0.073c1.726-1.032,2.427-2.247,3.172-3.774
			c0.745-1.512,1.142-6.545,1.183-7.368c0.043-0.833,0.305-1.336,0.708-1.663c0.411-0.353,2.412-1.634,2.701-1.7
			c0.286-0.077,0.613-0.088,0.943,0.66c0.327,0.75,1.047,5.382,1.183,6.091c0.146,0.764,0.543,0.675,0.737,0.525
			c0.434-0.323,0.746-0.705,1.135-1.362c0.386-0.65,0.096-1.553-0.29-1.979c-0.378-0.429-0.977-1.109-0.719-1.792
			c0.579-1.523,1.802-1.443,2.133-1.384c0.322,0.048,1.556,0.605,1.776,3.942c0.326,4.938-1.682,10.055-2.159,11.34
			c-1.068,2.893-1.288,4.849-1.454,5.778c-0.161,0.925-0.861,0.774-1.038,0.62c-0.176-0.158-0.393-0.881-0.499-0.984
			c-0.114-0.103-0.386-0.048-0.573,0.745c-0.18,0.779-0.789,1.887-1.145,2.485c-0.235,0.397-0.191,0.944-0.14,1.384
			c0.114,0.84,0.554,4.045,0.411,7.702c-0.242,6.512-2.412,10.602-4.027,12.746c-3.829,5.04-7.396,7.141-7.83,7.456
			c-0.551,0.385-1.479,0.331-1.788,0.228c-0.315-0.096-0.583-0.43-1.178-0.841c-0.584-0.43-0.668,0.345-0.661,0.521
			c0,0.199,0.29,0.863,0.447,1.527c0.309,1.241-0.377,2.725-1.086,3.906c-1.01,1.667-2.137,3.487-1.897,5.503
			C86.988,112.969,86.988,113.098,86.833,113.154z M120.999,129.459c-0.007,0.004-0.007,0.004-0.014,0.019
			c-0.045,0.041-0.078,0.062-0.129,0.093c-0.008,0.007-0.022,0.007-0.033,0.021c-0.051,0.022-0.106,0.048-0.162,0.07
			c-0.011,0.011-0.015,0.011-0.021,0.011c-0.066,0.011-0.15,0.048-0.228,0.062c-0.012,0-0.015,0-0.015,0
			c-0.085,0.021-0.169,0.051-0.262,0.062c-0.006,0-0.018,0-0.018,0c-0.11,0.026-0.202,0.048-0.315,0.07
			c-0.238,0.044-0.579,0.095-0.815,0.114c-4.383,0.382-15.483,1.486-24.195,2.58c-0.15,0.011-0.301,0.029-0.462,0.052
			c-0.613,0.092-0.977-0.004-1.021-0.609c-0.045-0.565-0.955-6.021-3.74-10.684c-0.254-0.443-0.533-0.862-0.823-1.284
			c-0.32-0.463,0.158-0.804,0.605-0.643c1.271,0.438,4.765,2.041,9.761,5.613c1.274,0.914,1.604,1.204,1.896,1.442
			c0.036,0.029,0.091,0.062,0.15,0.095c0.015,0,0.025,0.008,0.032,0.012c0.055,0.015,0.114,0.037,0.169,0.055
			c0.008,0,0.026,0.008,0.04,0.008c0.06,0,0.126,0.011,0.18,0c0.008,0,0.016,0,0.023,0c0.062,0,0.12-0.025,0.168-0.062
			c0.114-0.069,0.162-0.213,0.074-0.447c-0.316-0.885-1.983-2.603-6.26-6.571c-0.602-0.565-0.62-0.8,0.015-0.863
			c0.635-0.051,2.343,0.016,3.253-0.024c0.91-0.026,2.955-0.085,2.559-2.765c-0.312-2.066-0.551-4.2-0.588-4.839
			c-0.036-0.646-0.15-1.828-1.633-2.005c-1.494-0.164-3.979,0.177-6.215,0.963c-0.606,0.213-0.823-0.074-0.371-0.492
			c0.456-0.408,4.376-2.959,7.713-6.795c3.667-4.215,5.271-7.324,6.189-10.14c0.176-0.499,0.386-0.334,0.587-0.224
			c0.201,0.117,1.578,1.23,2.06,3.976c0.48,2.746,1.436,6.545-0.246,16.545c-0.91,5.47-2.03,8.704-2.294,9.472
			c-0.265,0.771,0.187,1.199,0.689,0.517c1.179-1.622,2.742-6.075,4.054-11.211c1.291-5.058,1.765-9.382,1.963-12.177l0,0
			c0.045-0.55,0.077-1.038,0.089-1.464c0.015-0.117,0.025-0.221,0.044-0.294c0.003-0.019,0.011-0.025,0.011-0.04
			c0.021-0.045,0.033-0.1,0.052-0.144c0-0.004,0.003-0.008,0.003-0.019c0.03-0.036,0.052-0.069,0.081-0.103
			c0.012-0.008,0.015-0.019,0.03-0.033c0.018-0.021,0.043-0.029,0.072-0.048c0.012-0.003,0.033-0.019,0.041-0.019
			c0.019-0.014,0.044-0.014,0.069-0.014c0.019,0,0.029-0.009,0.052-0.009c0.018,0,0.036,0,0.047,0.009c0.015,0,0.022,0,0.03,0
			c0.007,0,0.011,0.007,0.021,0.007c0.045,0.007,0.077,0.022,0.122,0.025c0.007,0,0.014,0.019,0.025,0.019
			c0.044,0.021,0.08,0.029,0.124,0.044c0.25,0.114,1.402,0.44,2.005,3.209c0.202,0.917,0.518,2.191,0.937,4.129
			c0.024,0.114,0.047,0.225,0.073,0.346c0.021,0.113,0.051,0.238,0.076,0.355c0.045,0.206,0.097,0.43,0.14,0.65
			c0.022,0.099,0.034,0.194,0.062,0.279c0.037,0.22,0.085,0.437,0.136,0.66c0.012,0.084,0.029,0.173,0.048,0.235
			c0.121,0.635,0.261,1.313,0.4,2.048c0.011,0.056,0.021,0.106,0.033,0.155c0.363,1.89,0.767,4.121,1.223,6.809
			c0.014,0.089,0.033,0.177,0.048,0.271c0.047,0.297,0.099,0.603,0.15,0.903c0.032,0.188,0.062,0.404,0.095,0.599
			c0.037,0.224,0.081,0.451,0.118,0.687c0.032,0.234,0.077,0.478,0.121,0.727c0.036,0.22,0.062,0.437,0.105,0.664
			c0.045,0.254,0.077,0.507,0.118,0.757c0.04,0.253,0.084,0.517,0.128,0.789c0.038,0.231,0.07,0.459,0.114,0.701
			c0.048,0.338,0.103,0.687,0.158,1.028c0.025,0.173,0.051,0.337,0.076,0.521c0.07,0.477,0.15,0.968,0.225,1.472
			c0.004,0.051,0.022,0.114,0.025,0.169c0.092,0.579,0.184,1.189,0.269,1.784c0.052,0.349,0.08,0.627,0.099,0.858
			c0,0.03,0.004,0.052,0.004,0.059c0.015,0.1,0.019,0.195,0.019,0.283c0,0.019,0,0.033,0,0.059c0,0.199-0.019,0.359-0.041,0.496
			c-0.007,0.021-0.015,0.025-0.025,0.047c-0.003,0.052-0.021,0.1-0.048,0.133c-0.007,0.021-0.019,0.025-0.025,0.048
			C121.073,129.383,121.036,129.417,120.999,129.459z"/>
	</g>
	<path fill="#FFFFFF" d="M78.937,124.237c0.323-0.577,0.859-1.153,0.745-1.179c-0.194-0.033-0.834,0.194-1.314,0.338
		c-0.234,0.264-0.492,0.543-0.768,0.852c-2.305,2.69-3.233,4.802-3.699,5.367c-0.463,0.568-0.646,0.065-0.603-0.198
		c0.032-0.258,0.136-0.684,0.605-2.207c0.426-1.372,1.659-3.429,2.188-4.364c-0.17,0.297-0.4,0.69-0.653,1.138
		c-1.869,0.386-5.386,1.348-6.932,1.164c-2.033-0.254-2.577-2.963-3.014-4.52c-0.216-1.839-1.564-4.508,0.712-5.785
		c0.511-0.161,0.841-0.382,1.304-0.404c0,0.008,0,0.008,0,0.008c0.128-0.254,0.411-0.503,0.925-0.753
		c-0.015,0.004-0.015,0.004-0.033,0.008c-1.313-0.697-3.473-1.89-3.612-1.986c-0.158-0.106-2.158-1.542-2.356-1.747
		c-0.161-0.181-0.91-0.676-1.021-0.749c0.036,0.021,0.052,0.029,0.021,0.011c-0.044-0.028-0.044-0.044-0.021-0.011
		c-0.298-0.205-2.155-1.476-3.333-2.529c-0.037,1.772,0.172,3.998,0.558,5.403c0.587,2.151,2.765,8.889,5.977,13.458
		c2.488,3.523,4.364,5.47,4.827,5.962c0.298,0.326,0.455,0.786,0.407,1.102c0.008-0.022,0.008-0.041,0.008-0.07
		c0.132,0.478,0.088,0.621-0.122,0.947c-0.201,0.323-1.2,1.439-3.215,1.167c-0.21-0.018-1.341-0.774-1.561-0.943
		c-0.231-0.165-2.581-2.21-3.227-2.793c-0.188-0.165-0.451-0.599-0.676-0.801c-0.213-0.209-1.079-1.105-1.189-1.232
		c-0.109-0.129-0.514-0.57-0.973-1.091c-0.458-0.519-0.852-0.939-0.939-1.068c-0.088-0.136-1.902-2.603-2.533-3.767
		c-0.536-0.998-2.085-4.09-2.599-5.149c0,0,0-0.013,0-0.026c-0.562,6.152,0.514,15.928,0.818,17.029
		c0.728,2.633,0.44,4.089,3.337,3.513c4.357-0.866,13.763-2.503,17.221-3.068c0.371-0.925,0.08-0.404,0.694-1.648
		C76.69,130.565,78.632,124.828,78.937,124.237"/>
	<path fill="#FFFFFF" d="M85.926,129.273c-0.162-0.596-0.426-0.312-0.521,0.092c-0.608,2.503-1.718,3.942-1.816,4.126
		c-0.096,0.158,0.099,0.386,0.345,0.386c0.249-0.022,1.854-0.254,2.221-0.327c0.613-0.157,0.524-0.797,0.507-0.936
		C86.546,131.809,86.048,129.684,85.926,129.273"/>
	<path fill="#FFFFFF" d="M42.202,51.213c-0.705-7.07,0.495-11.745,0.8-13.082c0.29-1.321,1.131-2.223,1.538-2.67
		c0.841-0.91,1.354-1.23,1.883-2.351c0.522-1.135,0.801-2.588,2.471-5.101c2.725-4.104,5.056-4.932,5.79-5.488
		c0.719-0.547,0.076-0.788-0.356-0.721c-2.416,0.288-3.336,0.796-5.411,1.918c-2.082,1.125-5.143,4.045-7.062,5.556
		c-1.924,1.52-4.509,2.452-5.283,2.619c-0.393,0.07-0.899-0.031-1.152,0.145c-0.507,0.367-0.69,0.705-0.415,1.186
		c0.206,0.385,0.771,1.182,1.634,2.342c0.866,1.153,1.325,2.496,1.233,4.919c-0.103,2.408,0.198,6.83,0.386,8.317
		c0.194,1.468,0.683,3.752,1.329,5.033c0.264,0.529,0.616,0.488,1.002,0.312c0.386-0.166,0.793-0.371,1.271-0.617
		C42.631,53.129,42.286,52.036,42.202,51.213"/>
	<path fill="#FFFFFF" d="M44.543,62.197c-1.039-2.698-1.119-3.778-1.208-4.692c-0.088-0.903-0.723-0.741-0.973-0.62
		c-0.253,0.125-0.734,0.4-1.098,0.562c-0.444,0.195-0.341,0.877-0.25,1.13c0.815,2.541,2.497,4.802,2.908,5.107
		c0.382,0.264,1.031-0.096,0.896-0.661C44.775,62.824,44.738,62.678,44.543,62.197"/>
	<path fill="#FFFFFF" d="M64.749,59.961c-0.261,0.14-0.664,0.437-0.562,0.98c0.103,0.543,0.25,0.72,0.301,1.135
		c0.052,0.421-0.15,1.156-0.628,2.019c-0.47,0.852-1.229,1.468-1.655,1.718c-0.426,0.253-0.683,0.32-0.925,0.437
		c-0.052,0.04-0.104,0.162-0.158,0.426v0.004c0.033-0.026,0.062-0.044,0.106-0.066c0.106-0.026,0.286-0.044,0.463-0.078
		c0.157-0.032,0.282-0.062,0.345-0.065c0.059-0.015,0.444-0.074,0.51-0.084c0.066-0.019,1.223-0.253,1.942-0.591
		c0.716-0.327,1.979-0.932,2.702-1.813c0.518-0.639,1.16-1.784,1.219-2.941c0.019-0.238,0.011-0.382,0.011-0.382
		s0.008,0,0.008-0.003c0.007,0.003,0.014-0.015,0.021-0.015c-0.117,0-0.224-0.044-0.312-0.096c-0.188-0.154-0.342-0.268-0.933-0.892
		c-0.371-0.4-0.36-0.698-0.169-1.028c-0.176,0.158-0.511,0.507-1.065,0.815C65.413,59.748,65.013,59.822,64.749,59.961"/>
	<path fill="#FFFFFF" d="M88.885,107.28c0.709-1.182,1.395-2.665,1.086-3.906c-0.157-0.664-0.447-1.328-0.447-1.527
		c-0.007-0.176,0.077-0.95,0.661-0.521c-0.056-0.04-0.106-0.066-0.144-0.092c0,0,0-0.338-0.485-1.847
		c-0.483-1.513-1.493-3.124-1.673-3.48c-0.185-0.363-0.745-1.153-0.764-1.245c-0.011-0.081-0.206-0.595-0.353-1.516
		c-0.275-1.788-0.147-2.992-0.14-3.099c0.008-0.117,0.059-0.433,0.069-0.499c0.02-0.074-0.011-0.177-0.095-0.199
		c-0.081-0.018-0.315-0.081-0.559,0.169c-0.502,0.514-0.521,0.609-0.528,0.694c-0.019,0.081,0.026,0.238,0.021,0.407
		c-0.059,0.554-0.153,0.995-0.41,1.398c-0.25,0.418-0.415,0.558-0.768,0.536c-0.363-0.041-0.657-0.331-0.709-1.061
		c-0.04-0.752-0.19-1.006-0.337-1.197c-0.151-0.162-0.488-0.25-0.603-0.242c-0.113,0-0.209,0.099-0.983,0.297
		c-0.778,0.19-2.005,0.26-2.195,0.268c-0.184,0.019-0.863,0.077-0.863,0.077c-0.007-0.026-0.011-0.051-0.029-0.077
		c0.147,0.507,0.437,1.476,0.323,2.665c-0.051,0.499-0.187,1.021-0.778,0.293c-0.602-0.742-1.152-1.582-1.736-1.857
		s-0.804,0.11-0.612,0.477c0.201,0.36,1.104,2.956,0.598,5.705c-0.712,3.889-0.939,5.988,1.523,8.998
		c1.612,1.964,3.568,3.366,5.701,4.824c0.954,0.646,2.118,1.827,3.176,1.428c0.154-0.056,0.154-0.185,0.154-0.371
		C86.749,110.767,87.875,108.947,88.885,107.28"/>
	<path fill="#FFFFFF" d="M95.324,55.669c0,0-0.319,0.037-0.433,0.081c-0.084,0.029-0.257,0.099-0.363,0.254
		c-0.114,0.158-0.151,0.426,0.099,0.723c0.242,0.282,0.572,0.837,0.54,1.303c-0.005,0.202,0.025,0.863-0.195,1.34
		c-0.253,0.562-0.524,1.087-0.724,1.329c-0.103,0.15-0.623,0.716-0.696,1.12c-0.015,0.084,0,0.187,0.048,0.264l0,0
		c0,0.015,0,0.015,0,0.015c0.007-0.026,0.019-0.055,0.044-0.081c0.124-0.154,0.393-0.297,0.841-0.44
		c0.613-0.191,1.042-0.418,1.373-0.668c-0.004,0.008-0.004,0.019-0.02,0.029c0.03-0.04,0.056-0.077,0.089-0.102
		c0.176-0.155,2.217-1.763,2.272-4.329c0.022-0.962-0.886-0.781-1.413-0.8c-0.387-0.018-1.113,0.044-1.418-0.037
		c-0.024,0-0.044-0.022-0.069-0.025c0.015,0,0.025,0.015,0.037,0.025C95.335,55.669,95.332,55.669,95.324,55.669"/>
	<path fill="#FFFFFF" d="M95.1,77.035c0.283-0.216,0.664-0.712,0.643-0.863c-0.033-0.146-0.305-0.671-0.76-0.701
		c-0.455-0.029-2.008-0.271-3.33-1.754c-1.314-1.49-2.026-2.588-3.439-3.414c-0.782-0.466-1.263-0.224-1.428-0.055
		c-0.166,0.162-1.726,1.802-2.915,2.279c-0.433,0.184-1.248,0.423-1.579,1.091c-0.337,0.661-0.925,1.788-2.463,2
		c-1.546,0.202-4.057,0.117-5.675-0.65c-1.355-0.646-3.161-0.029-3.495,0.254c-0.708,0.587-1.685,2.294-2.181,2.782
		c-0.507,0.478-1.49,1.223-2.235,1.575c-0.319,0.154-0.664,0.47-0.39,0.793c0.279,0.319,1.157,1.413,4.255,0.338
		c3.748-1.311,9.424-2.717,22.037-3.028C94.664,77.622,94.813,77.244,95.1,77.035"/>
	<path fill="#FFFFFF" d="M85.809,81.678c-7.17,0.371-9.137,1.282-10.359,1.469c-0.653,0.095-0.411,0.577-0.228,0.708
		c0.903,0.617,1.942,0.841,2.68,0.782c0.598-0.055,4.126-0.764,5.238-0.98c1.109-0.217,3.329-1.046,4.082-1.436
		c0.753-0.393,0.096-0.606-0.092-0.591C86.946,81.634,86.581,81.642,85.809,81.678"/>
	<path fill="#FFFFFF" d="M73.526,20.858c1.207-1.065,4.035-3.854,6.553-3.757c2.519,0.104,9.717,1.002,13.791,3.836
		c4.072,2.823,5.323,5.587,5.676,6.371c-0.007,0-0.011,0-0.018,0c0.14,0.022,0.297,0.136,0.462,0.38
		c2.743,4.069,5.161,8.364,6.718,11.641c0.478,1.002,1.017,0.127,1.087-0.351c0.07-0.477,0.202-1.559,0.019-3.451
		c-1.498-15.901-9.05-22.342-14.298-26.19C87.982,5.693,80.86,3.648,74.671,3.412C73.94,3.39,72.395,3.244,70.46,3.358
		c-2.067,0.124-2.448,0.167-5.568,0.863c-2.39,0.517-7.438,2.094-10.198,3.608c-1.274,0.683-1.979,1.229-2.339,1.716
		c-0.359,0.486-0.037,0.749,0.533,0.654c0.561-0.098,0.991-0.215,2.077-0.215c1.054,0.013,0.771,1.081,0.297,1.265
		c-0.374,0.148-0.514,0.255-1.098,0.512c-3.156,1.389-6.347,4.397-7,4.983c-0.621,0.57-1.216,1.263-1.457,1.722
		c-0.217,0.417,0.363,0.625,0.543,0.613c0.172,0,0.319-0.057,0.609-0.139c1.457-0.509,6.935-2.886,13.667-2.737
		c6.912,0.184,12.026,3.941,12.544,4.242c0.198,0.106,0.353,0.268,0.459,0.425c0-0.005,0-0.005,0-0.005L73.526,20.858"/>
	<path fill="#FFFFFF" d="M47.462,53.716c-0.07-0.345-0.247-0.415-0.423-0.396c-0.165,0-1.935,0.297-2.394,0.4
		c-0.19,0.055-0.261,0.202-0.228,0.356c0.033,0.158,0.166,0.705,0.213,1.127c0.041,0.375,0.438,0.231,0.826,0.154
		c0.613-0.114,1.766-0.253,1.891-0.261c0.349-0.069,0.305-0.333,0.286-0.492C47.613,54.462,47.532,54.076,47.462,53.716"/>
	<path fill="#FFFFFF" d="M101.701,46.536c-0.606,0.077-2.258,0.224-2.44,0.246c-0.327,0.037-0.32,0.231-0.298,0.363
		c0.021,0.139,0.069,0.69,0.092,0.914c0.021,0.231,0.257,0.367,0.507,0.364c0.246-0.022,1.835-0.176,2.066-0.206
		c0.228-0.04,0.458-0.235,0.458-0.415c0-0.187,0-0.679,0-0.892C102.072,46.72,101.932,46.5,101.701,46.536"/>
	<path fill="#FFFFFF" d="M35.943,122.5c-0.386-0.103-0.734-0.176-0.98-0.242c-0.228-0.055-0.576-0.092-0.98-0.077
		c-0.683,0.004-1.517,0.144-2.188,0.48c-0.903,0.456-6.975,3.529-8.943,4.531l3.073,23.38l3.227,0.019
		c1.388-7.177,2.724-13.297,3.271-15C33.16,132.118,34.591,124.669,35.943,122.5"/>
	<path fill="#FFFFFF" d="M126.271,101.583c0,0.085,0.011,0.177,0.047,0.286c0.106,0.338,0.323,0.893,0.484,1.223
		c1.557,3.326,3.602,7.812,5.761,12.589c1.369,3.031,2.8,6.191,4.177,9.25l3.23-23.087c-5.334-0.396-11.508-0.814-12.507-0.914
		C127.075,100.889,126.274,100.981,126.271,101.583"/>
	<path fill="#FFFFFF" d="M107.584,133.586l-4.008,0.564c0,0,0.004,0.049,0.021,0.144c0.176,1.517,1.648,13.664,1.954,15.616
		l0.105,0.709h4.824l-0.147-0.866C109.931,147.364,107.584,133.586,107.584,133.586"/>
	<path fill="#FFFFFF" d="M117.071,132.361l-4.178,0.539c0.073,0.349,0.154,0.723,0.234,1.139c0.585,2.854,1.385,7.14,2.629,12.929
		l0.606,3.652h4.691l-0.184-0.951C120.118,145.646,117.071,132.361,117.071,132.361"/>
	<path fill="#FFFFFF" d="M126.436,131.161h-0.012l-4.28,0.558c0,0,3.088,14.221,3.906,17.771l0.25,1.131l4.984,0.015l-0.33-1.3
		C129.189,142.775,126.436,131.161,126.436,131.161"/>
	<path fill="#FFF4E9" d="M59.102,24.479c-0.708,1.463-0.517,0.446-1.941,3.552c-1.854,4.033-2.658,10.101-3.194,15.326
		c0.093,1.755,0.198,4.042,0.026,5.756c-0.052,0.011-0.1,0.022-0.147,0.033c2.522-0.396,4.343-0.481,7.944-0.661
		c5.877-0.29,8.135,2.141,9.457,2.684c0.925,0.385,1.472,0.055,2.235-0.275c0.764-0.36,2.21-0.562,3.051-0.5
		c0.841,0.051,1.273,0.055,1.398,0.022c0.121-0.033,0.689-0.43,1.102-0.863c1.692-1.773,3.469-2.599,6.755-3.304
		c3.296-0.701,12.154-1.568,13.431-1.597c1.289-0.029,4.285,0.18,5.06,0.18c0.793,0,0.602-0.488,0.595-0.661
		c-0.004-0.169-0.144-0.866-0.555-2.505c-0.411-1.643-1.226-2.593-2.129-3.709c-2.229-2.706-1.942-4.178-1.979-4.772
		c-0.036-0.601-0.906-4.901-0.976-5.198c-0.021-0.101-0.029-0.186-0.029-0.259c0-0.031,0.008-0.066,0.014-0.101
		c0-0.039,0.016-0.092,0.029-0.126c0.008-0.013,0.013-0.041,0.026-0.057c0.025-0.041,0.051-0.075,0.077-0.088
		c0.019,0,0.019-0.026,0.025-0.026c0.048-0.022,0.1-0.026,0.151-0.022c0.007,0,0.011,0,0.018,0
		c-0.353-0.784-1.604-3.548-5.676-6.371c-4.074-2.834-11.272-3.731-13.791-3.836c-2.518-0.097-5.346,2.692-6.553,3.757v0.007
		c0,0,0.004,0,0.004,0.005c0.04,0.066,0.066,0.131,0.092,0.197c0.004,0.028,0.004,0.044,0.004,0.057
		c0.014,0.053,0.018,0.104,0.018,0.164c0,0.007-0.004,0.042-0.004,0.064c-0.014,0.043-0.029,0.088-0.043,0.141
		c-0.012,0.022-0.022,0.048-0.026,0.064c-0.04,0.071-0.088,0.141-0.15,0.211c-0.462,0.424-1.561,1.672-1.979,2.063
		c-0.418,0.393-1.058,0.104-2.31-0.306c-1.567-0.496-4.629-0.913-7.246-0.47c-0.937,0.164-1.847,0.299-2.749,0.531
		c0.018,0.132,0.076,0.547,0.069,0.609C59.191,24.308,59.143,24.4,59.102,24.479"/>
	<path fill="#FFF4E9" d="M57.873,67.472c0,0,0.088,0.44,0.184,0.697c0.012,0.022,0.012,0.029,0.019,0.044
		c0.037,0.15,0.133,0.415,0.367,0.818c0.125,0.206,0.282,0.47,0.514,0.804c0.334,0.455,0.687,0.925,1.018,1.34
		c0.547,0.687,0.986,1.204,0.986,1.204c0.463,0.363,0.918,0.202,1.223,0.044c0,0-0.003,0-0.007,0
		c0.804-0.599,1.523-1.021,1.795-1.142c0.451-0.202,0.848-0.418,0.914-0.943c0.073-0.503-0.015-0.98,0.657-2.405
		c0.15-0.326,0.346-0.62,0.551-0.892c0.015-0.026,0.04-0.055,0.059-0.088c0.077-0.099,0.157-0.187,0.238-0.275
		c0.041-0.063,0.085-0.092,0.129-0.144c0.059-0.062,0.113-0.139,0.176-0.183c0.066-0.062,0.14-0.143,0.202-0.202
		c0.004,0,0.007-0.011,0.007-0.018l0,0c-0.043,0.036-0.41,0.304-0.542,0.411c-0.133,0.11-0.98,0.496-1.631,0.698
		c-0.646,0.209-1.259,0.403-2.214,0.612c-0.727,0.169-1.174-0.26-1.251-0.403c-0.03-0.037-0.214-0.275-0.246-0.456
		c-0.012-0.04-0.004-0.095,0-0.15c0-0.007,0-0.007,0.007-0.015c0.019-0.062,0.045-0.114,0.096-0.15v-0.004
		c0.055-0.264,0.106-0.386,0.158-0.426c0.242-0.117,0.499-0.184,0.925-0.437c0.426-0.25,1.186-0.866,1.655-1.718
		c0.478-0.863,0.68-1.597,0.628-2.019c-0.051-0.415-0.198-0.591-0.301-1.135c-0.103-0.543,0.301-0.84,0.562-0.98
		c0.265-0.139,0.664-0.213,1.222-0.521c0.555-0.308,0.89-0.657,1.065-0.815l0,0c0.059-0.103,0.132-0.206,0.213-0.316
		c0.015-0.014,0.033-0.033,0.04-0.059c0.077-0.095,0.158-0.202,0.235-0.312c0.539-0.69,0.146-1.138-0.778-0.507
		c-0.937,0.635-2.515,0.778-2.959,0.815c-0.451,0.022-1.714-0.11-3.058-0.091c-3.249,0.036-4.49,2.478-4.949,3.142
		c-0.113,0.162-0.175,0.43-0.822,0.481c-0.704,0.081-1.578-0.565-1.985-0.841c-0.415-0.304-0.818-0.315-1.105-0.135
		c-0.29,0.18-0.902,0.576-1.079,0.716c-0.172,0.14-0.407,0.525-0.161,0.984c1.766,3.259,4.104,4.001,4.926,4.335
		c0.203,0.077,0.331,0.194,0.404,0.323c-0.037-0.059-0.081-0.117-0.147-0.169C56.481,67.226,57.19,67.395,57.873,67.472"/>
	<path fill="#FFF4E9" d="M79.532,90.621c0.19-0.008,1.417-0.078,2.195-0.268c0.774-0.198,0.87-0.297,0.983-0.297
		c0.114-0.008,0.451,0.081,0.603,0.242c0.146,0.191,0.297,0.444,0.337,1.197c0.052,0.73,0.346,1.021,0.709,1.061
		c0.353,0.022,0.518-0.118,0.768-0.536c0.257-0.404,0.352-0.844,0.41-1.398c0.005-0.169-0.04-0.327-0.021-0.407
		c0.008-0.085,0.026-0.18,0.528-0.694c0.243-0.25,0.478-0.188,0.559-0.169c0.084,0.022,0.114,0.125,0.095,0.199
		c-0.011,0.066-0.062,0.381-0.069,0.499c-0.008,0.107-0.136,1.311,0.14,3.099c0.146,0.921,0.342,1.436,0.353,1.516
		c0.019,0.092,0.579,0.881,0.764,1.245c0.18,0.356,1.189,1.967,1.673,3.48c0.485,1.509,0.485,1.847,0.485,1.847
		c0.037,0.025,0.088,0.052,0.144,0.092c0.595,0.411,0.862,0.745,1.178,0.841c0.309,0.104,1.237,0.157,1.788-0.228
		c0.434-0.315,4.001-2.416,7.83-7.456c1.615-2.144,3.785-6.233,4.027-12.746c0.143-3.656-0.297-6.861-0.411-7.702
		c-0.052-0.44-0.096-0.987,0.14-1.384c0.355-0.598,0.965-1.707,1.145-2.485c0.188-0.793,0.459-0.848,0.573-0.745
		c0.106,0.103,0.323,0.826,0.499,0.984c0.177,0.154,0.877,0.305,1.038-0.62c0.166-0.929,0.386-2.886,1.454-5.778
		c0.478-1.285,2.485-6.402,2.159-11.34c-0.221-3.337-1.454-3.895-1.776-3.942c-0.331-0.059-1.554-0.14-2.133,1.384
		c-0.258,0.683,0.341,1.362,0.719,1.792c0.386,0.426,0.676,1.329,0.29,1.979c-0.389,0.657-0.701,1.039-1.135,1.362
		c-0.194,0.15-0.591,0.239-0.737-0.525c-0.136-0.709-0.855-5.341-1.183-6.091c-0.33-0.748-0.657-0.737-0.943-0.66
		c-0.289,0.066-2.29,1.347-2.701,1.7c-0.403,0.327-0.665,0.829-0.708,1.663c-0.041,0.822-0.438,5.855-1.183,7.368
		c-0.745,1.527-1.446,2.742-3.172,3.774c-0.04,0.029-0.088,0.041-0.121,0.059l0,0c-0.632,0.312-1.402,0.595-1.909,0.631
		c-0.169,0.008-0.309,0-0.403-0.059c-0.18-0.118-0.364-0.235-0.536-0.375c-0.033-0.041-0.088-0.084-0.121-0.114
		c-0.007-0.003-0.022-0.022-0.029-0.026c-0.033-0.044-0.065-0.062-0.092-0.088c-0.012-0.018-0.019-0.043-0.033-0.051
		c-0.029-0.033-0.04-0.062-0.055-0.088c-0.015-0.018-0.022-0.033-0.025-0.055c-0.016-0.029-0.019-0.044-0.03-0.077
		c0-0.019-0.003-0.029-0.003-0.048c0-0.022,0.003-0.055,0.015-0.081c0,0,0,0,0-0.015l0,0c-0.048-0.077-0.062-0.18-0.048-0.264
		c0.073-0.404,0.594-0.97,0.696-1.12c0.199-0.242,0.471-0.767,0.724-1.329c0.221-0.477,0.19-1.138,0.195-1.34
		c0.032-0.466-0.298-1.021-0.54-1.303c-0.25-0.297-0.213-0.565-0.099-0.723c0.106-0.155,0.279-0.225,0.363-0.254
		c0.113-0.044,0.433-0.081,0.433-0.081c0.008,0,0.012,0,0.012,0c-0.012-0.011-0.022-0.025-0.037-0.025
		c-0.019,0-0.044-0.022-0.073-0.041c-0.015-0.011-0.033-0.029-0.059-0.047c-0.019-0.012-0.044-0.033-0.056-0.048
		c-0.032-0.029-0.069-0.074-0.103-0.107c-0.004-0.003-0.019-0.011-0.019-0.014c-0.209-0.246-0.403-0.581-0.531-0.75
		c-0.24-0.334-0.878-0.543-1.201-0.536c-0.411,0.022-3.619,1.38-5.694,1.442c-2.066,0.07-3.102-0.125-5.237-1.02
		c-0.166-0.085-0.874-0.07-0.684,0.477c0.114,0.319,0.342,0.643,0.737,1.145c0.266,0.338-0.326,1.109-0.568,1.322
		c-0.245,0.202-0.862,0.781-1.256,0.58c-0.385-0.184-1.549-0.793-2.591-3.671c-0.301-0.826-1.473-1.325-2.471-1.109
		c-0.312,0.077-0.595,0.151-0.855,0.246c-0.029,2.324,0.07,4.622,0.077,5.558c0.007,1.223,0.367,2.541,0.143,3.671
		c-0.345,1.747-0.462,2.36-0.502,2.896c-0.048,0.606,0.033,1.274,0.15,1.608c0.025,0.444,0.092,0.724,0.234,1.16
		c0.151,0.448,0.525,1.138,0.617,1.336c0.081,0.216,0.269,0.562,0.341,0.848c0.073,0.279,0.085,0.327,0.279,0.536
		c0.893,0.382,1.953,0.639,3.224,0.661c2.808,0.073,5.804-2.614,6.321-3.154c0.506-0.536,0.22-1.46,0.106-1.762
		c-0.088-0.224-0.404-0.778-0.434-1.226c0,0-0.008,0.014,0,0.014l-0.051-0.029c-0.133-0.246-0.412-0.921-0.041-1.266
		c0.371-0.345,0.753-0.661,0.841-0.705c0.073-0.044,2.181-1.039,4.784,0.286c1.082,0.543,1.574,0.962,1.816,1.142
		c0.25,0.202,1.3,1.2,1.517,1.384c0.22,0.18,2.47,2.166,3.468,2.83c1.024,0.676,1.821,1.377,2.232,2.122
		c0.423,0.752,0.693,1.38,0.455,2.669c-0.19,1.042-1.167,1.938-1.167,1.938l-0.015-0.007c-0.026-0.235-0.056-0.488-0.103-0.727
		c0.37,2.284,0.26,3.928,0.14,4.453c-0.14,0.555-0.39,1.917-1.479,3.087c-0.548,0.588-0.658,2.316-0.676,2.728
		c-0.008,0.418-0.092,2.049-0.302,2.728c-0.212,0.694-1.178,2.346-1.758,0.745c-0.569-1.593-0.628-3.795-0.929-4.317
		c-0.305-0.54-1.498-0.977-1.924-1.112c-0.44-0.15-0.745-0.041-1.255,0.168c-2.596,1.083-4.421,2.666-11.216,2.622
		c-1.005-0.015-1.769,0.4-2.565,0.668c-0.576,0.202-1.192,0.742-1.623,1.153c-0.228,0.224,0.004,0.51,0.217,0.683
		c0.437,0.322,1.256,0.392,2.085,0.565c0.624,0.124,0.911,0.826,0.991,1.152c0.019,0.026,0.022,0.051,0.029,0.077
		C78.668,90.698,79.348,90.64,79.532,90.621"/>
	<path fill="#FFFFFF" d="M117.35,130.128c-0.114-2.459-0.294-5.382-0.5-8.175c-0.877-8.437-1.321-12.152-1.545-13.315
		c-0.041-0.177-0.059-0.411-0.059-0.669c-0.499-2.646-1.149-5.571-1.928-8.494c-0.198,2.795-0.672,7.119-1.963,12.177
		c-1.312,5.136-2.875,9.589-4.054,11.211c-0.503,0.683-0.954,0.254-0.689-0.517c0.264-0.768,1.384-4.002,2.294-9.472
		c1.682-10,0.727-13.799,0.246-16.545c-0.481-2.746-1.858-3.859-2.06-3.976c-0.201-0.11-0.411-0.275-0.587,0.224
		c-0.918,2.815-2.522,5.925-6.189,10.14c-3.337,3.836-7.257,6.387-7.713,6.795c-0.452,0.418-0.235,0.705,0.371,0.492
		c2.235-0.786,4.721-1.127,6.215-0.963c1.482,0.177,1.597,1.359,1.633,2.005c0.037,0.639,0.275,2.772,0.588,4.839
		c0.396,2.68-1.648,2.738-2.559,2.765c-0.91,0.04-2.618-0.026-3.253,0.024c-0.635,0.063-0.616,0.298-0.015,0.863
		c4.276,3.969,5.943,5.687,6.26,6.571c0.088,0.234,0.04,0.378-0.074,0.447l0,0c0.016,0,0.025-0.012,0.037-0.029
		c-0.697,1.068-2.343,1.402-2.974,1.104c-1.952-0.818-2.58-1.104-4.369-2.301c-0.991-0.818-3.127-2.565-4.815-3.888
		c-0.022-0.049-0.055-0.088-0.08-0.122c2.785,4.663,3.695,10.118,3.74,10.684c0.044,0.605,0.407,0.701,1.021,0.609
		c0.161-0.022,0.312-0.041,0.462-0.052c8.712-1.094,19.812-2.198,24.195-2.58C118.51,130.03,117.963,130.073,117.35,130.128
		 M98.984,119.736h-0.569v1.449H98.07v-1.449H97.5v-0.29h1.483V119.736z M101.158,121.185h-0.335v-1.401l-0.47,1.401h-0.278
		l-0.481-1.401v1.401h-0.319v-1.739h0.496l0.439,1.245l0.441-1.245h0.507V121.185z"/>
	<polyline fill="#1D1D1B" points="97.5,119.736 98.07,119.736 98.07,121.185 98.415,121.185 98.415,119.736 98.984,119.736 
		98.984,119.446 97.5,119.446 97.5,119.736 	"/>
	<polyline fill="#1D1D1B" points="100.209,120.691 99.77,119.446 99.274,119.446 99.274,121.185 99.593,121.185 99.593,119.784 
		100.075,121.185 100.353,121.185 100.823,119.784 100.823,121.185 101.158,121.185 101.158,119.446 100.651,119.446 
		100.209,120.691 	"/>
	<g>
		<g>
			<g>
				<path fill="#C10A27" d="M39.324,177.66c0,1.253-0.302,2.328-0.915,3.224c-0.608,0.896-1.512,1.567-2.701,2.03
					c-1.2,0.458-2.647,0.689-4.354,0.689c-1.637,0-3.028-0.246-4.199-0.752c-1.163-0.496-2.026-1.124-2.577-1.872
					c-0.558-0.75-0.833-1.502-0.833-2.251c0-0.507,0.176-0.929,0.528-1.277c0.356-0.359,0.808-0.54,1.354-0.54
					c0.474,0,0.841,0.118,1.094,0.353c0.254,0.228,0.5,0.554,0.738,0.98c0.463,0.812,1.024,1.414,1.671,1.813
					c0.649,0.396,1.534,0.603,2.654,0.603c0.91,0,1.655-0.206,2.242-0.606c0.584-0.407,0.87-0.87,0.87-1.395
					c0-0.801-0.301-1.381-0.906-1.748c-0.603-0.366-1.601-0.715-2.985-1.05c-1.567-0.386-2.841-0.793-3.817-1.222
					c-0.991-0.431-1.772-0.995-2.36-1.692c-0.591-0.697-0.885-1.557-0.885-2.581c0-0.906,0.275-1.769,0.818-2.58
					c0.544-0.805,1.34-1.458,2.404-1.938c1.054-0.478,2.339-0.724,3.84-0.724c1.176,0,2.232,0.118,3.169,0.364
					c0.939,0.245,1.725,0.571,2.349,0.979c0.632,0.411,1.102,0.866,1.436,1.362c0.323,0.51,0.492,0.994,0.492,1.476
					c0,0.521-0.176,0.951-0.524,1.28c-0.353,0.331-0.849,0.5-1.49,0.5c-0.474,0-0.867-0.132-1.19-0.396
					c-0.334-0.275-0.708-0.676-1.13-1.204c-0.342-0.448-0.745-0.8-1.219-1.068c-0.463-0.257-1.095-0.396-1.892-0.396
					c-0.822,0-1.509,0.176-2.048,0.525c-0.543,0.349-0.822,0.781-0.822,1.313c0,0.47,0.202,0.866,0.602,1.164
					c0.404,0.312,0.937,0.564,1.615,0.752c0.68,0.203,1.608,0.449,2.798,0.742c1.409,0.345,2.562,0.753,3.458,1.233
					c0.892,0.48,1.571,1.039,2.03,1.689C39.096,176.082,39.324,176.823,39.324,177.66z"/>
				<path fill="#C10A27" d="M58.827,174.364c0,1.354-0.212,2.606-0.627,3.744c-0.423,1.146-1.035,2.129-1.836,2.951
					c-0.804,0.815-1.758,1.45-2.863,1.895c-1.108,0.437-2.36,0.649-3.744,0.649c-1.377,0-2.621-0.213-3.719-0.664
					c-1.094-0.448-2.048-1.079-2.853-1.905c-0.804-0.834-1.417-1.81-1.832-2.93c-0.418-1.131-0.627-2.375-0.627-3.74
					c0-1.381,0.209-2.637,0.635-3.778c0.426-1.148,1.028-2.125,1.817-2.937c0.788-0.804,1.743-1.432,2.859-1.868
					c1.127-0.437,2.36-0.657,3.719-0.657c1.373,0,2.621,0.221,3.744,0.66c1.12,0.449,2.078,1.08,2.882,1.902
					c0.8,0.822,1.402,1.799,1.825,2.934C58.618,171.753,58.827,173.001,58.827,174.364z M54.265,174.364
					c0-1.854-0.408-3.293-1.227-4.328c-0.809-1.031-1.909-1.549-3.282-1.549c-0.885,0-1.674,0.228-2.356,0.686
					c-0.676,0.467-1.193,1.146-1.561,2.049c-0.367,0.892-0.551,1.941-0.551,3.143c0,1.189,0.184,2.224,0.543,3.109
					c0.36,0.892,0.874,1.571,1.55,2.041c0.672,0.474,1.457,0.708,2.375,0.708c1.373,0,2.474-0.518,3.282-1.553
					C53.857,177.631,54.265,176.196,54.265,174.364z"/>
				<path fill="#1D1D1B" d="M78.104,168.454v13.203c0,1.514-0.166,2.81-0.485,3.899c-0.319,1.087-0.837,1.99-1.549,2.694
					c-0.712,0.712-1.634,1.236-2.79,1.582c-1.146,0.35-2.577,0.521-4.284,0.521c-1.567,0-2.962-0.228-4.199-0.66
					c-1.229-0.441-2.185-1.003-2.849-1.7c-0.661-0.694-0.995-1.409-0.995-2.14c0-0.556,0.188-1.007,0.565-1.358
					c0.374-0.349,0.829-0.529,1.365-0.529c0.665,0,1.248,0.298,1.752,0.889c0.234,0.297,0.491,0.602,0.752,0.906
					c0.265,0.302,0.554,0.562,0.866,0.786c0.316,0.213,0.697,0.374,1.142,0.48c0.44,0.103,0.955,0.158,1.531,0.158
					c1.179,0,2.089-0.17,2.742-0.492c0.642-0.326,1.102-0.789,1.365-1.372c0.265-0.588,0.411-1.216,0.455-1.896
					c0.044-0.668,0.081-1.747,0.1-3.229c-0.694,0.973-1.509,1.718-2.42,2.225c-0.914,0.511-2.011,0.768-3.274,0.768
					c-1.516,0-2.849-0.393-3.986-1.172c-1.138-0.768-2.016-1.857-2.621-3.264c-0.609-1.395-0.917-3.007-0.917-4.841
					c0-1.366,0.183-2.593,0.561-3.697c0.367-1.099,0.903-2.022,1.59-2.775c0.683-0.76,1.479-1.325,2.379-1.711
					c0.893-0.385,1.887-0.576,2.963-0.576c1.292,0,2.404,0.25,3.352,0.742c0.936,0.495,1.813,1.27,2.624,2.324v-0.618
					c0-0.781,0.195-1.395,0.581-1.823c0.392-0.434,0.892-0.654,1.501-0.654c0.881,0,1.465,0.286,1.751,0.855
					C77.957,166.551,78.104,167.377,78.104,168.454z M64.932,174.213c0,1.839,0.403,3.241,1.207,4.177
					c0.801,0.944,1.84,1.413,3.121,1.413c0.756,0,1.472-0.201,2.14-0.605c0.672-0.407,1.223-1.013,1.642-1.824
					c0.422-0.826,0.631-1.81,0.631-2.97c0-1.861-0.411-3.304-1.226-4.332c-0.815-1.042-1.884-1.553-3.22-1.553
					c-1.3,0-2.342,0.492-3.12,1.483C65.317,170.987,64.932,172.392,64.932,174.213z"/>
				<path fill="#1D1D1B" d="M97.669,174.364c0,1.354-0.209,2.606-0.632,3.744c-0.418,1.146-1.03,2.129-1.827,2.951
					c-0.797,0.815-1.751,1.45-2.863,1.895c-1.113,0.437-2.357,0.649-3.752,0.649c-1.373,0-2.606-0.213-3.712-0.664
					c-1.094-0.448-2.048-1.079-2.852-1.905c-0.805-0.834-1.417-1.81-1.832-2.93c-0.422-1.131-0.624-2.375-0.624-3.74
					c0-1.381,0.209-2.637,0.631-3.778c0.419-1.148,1.025-2.125,1.813-2.937c0.789-0.804,1.748-1.432,2.863-1.868
					c1.12-0.437,2.361-0.657,3.712-0.657c1.376,0,2.628,0.221,3.752,0.66c1.12,0.449,2.078,1.08,2.878,1.902
					s1.413,1.799,1.824,2.934C97.464,171.753,97.669,173.001,97.669,174.364z M93.111,174.364c0-1.854-0.412-3.293-1.22-4.328
					c-0.821-1.031-1.92-1.549-3.296-1.549c-0.889,0-1.67,0.228-2.346,0.686c-0.676,0.467-1.201,1.146-1.564,2.049
					c-0.363,0.892-0.55,1.941-0.55,3.143c0,1.189,0.18,2.224,0.544,3.109c0.352,0.892,0.88,1.571,1.544,2.041
					c0.677,0.474,1.462,0.708,2.372,0.708c1.376,0,2.475-0.518,3.296-1.553C92.699,177.631,93.111,176.196,93.111,174.364z"/>
				<path fill="#1D1D1B" d="M117.078,174.364c0,1.354-0.217,2.606-0.63,3.744c-0.427,1.146-1.032,2.129-1.836,2.951
					c-0.801,0.815-1.752,1.45-2.863,1.895c-1.109,0.437-2.361,0.649-3.745,0.649c-1.376,0-2.617-0.213-3.715-0.664
					c-1.102-0.448-2.052-1.079-2.852-1.905c-0.812-0.834-1.421-1.81-1.833-2.93c-0.418-1.131-0.627-2.375-0.627-3.74
					c0-1.381,0.209-2.637,0.635-3.778c0.415-1.148,1.027-2.125,1.81-2.937c0.79-0.804,1.747-1.432,2.867-1.868
					c1.124-0.437,2.36-0.657,3.715-0.657c1.377,0,2.625,0.221,3.745,0.66c1.123,0.449,2.081,1.08,2.882,1.902
					c0.8,0.822,1.405,1.799,1.827,2.934C116.869,171.753,117.078,173.001,117.078,174.364z M112.515,174.364
					c0-1.854-0.408-3.293-1.226-4.328c-0.815-1.031-1.909-1.549-3.286-1.549c-0.892,0-1.67,0.228-2.349,0.686
					c-0.673,0.467-1.197,1.146-1.564,2.049c-0.367,0.892-0.547,1.941-0.547,3.143c0,1.189,0.18,2.224,0.535,3.109
					c0.36,0.892,0.879,1.571,1.554,2.041c0.665,0.474,1.461,0.708,2.371,0.708c1.377,0,2.471-0.518,3.286-1.553
					C112.107,177.631,112.515,176.196,112.515,174.364z"/>
				<path fill="#1D1D1B" d="M131.748,181.008v-0.448c-0.605,0.697-1.219,1.267-1.811,1.703c-0.591,0.44-1.236,0.771-1.931,1.002
					c-0.689,0.22-1.454,0.338-2.269,0.338c-1.083,0-2.1-0.231-3.021-0.689c-0.929-0.463-1.732-1.112-2.408-1.972
					c-0.672-0.855-1.19-1.861-1.542-3.018c-0.349-1.156-0.524-2.4-0.524-3.744c0-2.842,0.697-5.059,2.084-6.645
					c1.385-1.582,3.209-2.383,5.478-2.383c1.311,0,2.415,0.224,3.315,0.679c0.895,0.452,1.769,1.135,2.628,2.074v-6.71
					c0-0.933,0.184-1.638,0.558-2.114c0.37-0.478,0.903-0.724,1.59-0.724c0.69,0,1.216,0.224,1.594,0.661
					c0.367,0.437,0.554,1.083,0.554,1.945v20.044c0,0.866-0.194,1.52-0.598,1.945c-0.401,0.437-0.915,0.649-1.55,0.649
					c-0.624,0-1.131-0.224-1.538-0.671C131.953,182.477,131.748,181.838,131.748,181.008z M122.805,174.327
					c0,1.237,0.194,2.291,0.58,3.146c0.386,0.87,0.899,1.52,1.575,1.968c0.66,0.433,1.383,0.649,2.177,0.649
					c0.8,0,1.527-0.21,2.184-0.617c0.669-0.429,1.193-1.061,1.59-1.916c0.39-0.862,0.591-1.938,0.591-3.23
					c0-1.212-0.201-2.251-0.591-3.117c-0.396-0.881-0.933-1.538-1.601-2c-0.676-0.458-1.406-0.69-2.202-0.69
					c-0.837,0-1.582,0.232-2.236,0.709c-0.653,0.473-1.163,1.148-1.523,2.026C122.985,172.139,122.805,173.163,122.805,174.327z"/>
			</g>
			<g>
				<path fill="#1D1D1B" d="M140.572,158.873h-0.704v2.309c0,0.136-0.029,0.242-0.088,0.305c-0.059,0.059-0.132,0.091-0.229,0.091
					c-0.099,0-0.175-0.032-0.23-0.091c-0.062-0.069-0.096-0.169-0.096-0.305v-2.309h-0.697c-0.113,0-0.198-0.023-0.257-0.077
					c-0.048-0.037-0.077-0.103-0.077-0.184c0-0.082,0.029-0.147,0.088-0.194c0.052-0.056,0.133-0.078,0.246-0.078h2.044
					c0.11,0,0.191,0.022,0.25,0.081c0.052,0.048,0.077,0.109,0.077,0.191c0,0.081-0.025,0.146-0.084,0.184
					C140.763,158.849,140.682,158.873,140.572,158.873z"/>
				<path fill="#1D1D1B" d="M142.136,161.045l-0.511-2.03v2.199c0,0.124-0.028,0.209-0.087,0.271
					c-0.053,0.059-0.122,0.091-0.214,0.091c-0.084,0-0.154-0.032-0.209-0.087c-0.059-0.059-0.085-0.151-0.085-0.275v-2.519
					c0-0.137,0.041-0.228,0.114-0.278c0.069-0.056,0.166-0.078,0.29-0.078h0.202c0.117,0,0.197,0.015,0.261,0.037
					c0.051,0.019,0.096,0.055,0.118,0.117c0.029,0.052,0.059,0.15,0.091,0.272l0.463,1.743l0.459-1.743
					c0.032-0.122,0.065-0.221,0.088-0.272c0.025-0.062,0.069-0.099,0.121-0.117c0.059-0.022,0.147-0.037,0.264-0.037h0.195
					c0.125,0,0.224,0.022,0.294,0.078c0.069,0.051,0.109,0.142,0.109,0.278v2.519c0,0.124-0.029,0.209-0.076,0.271
					c-0.06,0.059-0.129,0.091-0.225,0.091c-0.081,0-0.15-0.032-0.209-0.091c-0.055-0.062-0.081-0.147-0.081-0.271v-2.199
					l-0.507,2.03c-0.037,0.132-0.062,0.224-0.084,0.282c-0.022,0.07-0.062,0.125-0.117,0.18c-0.052,0.044-0.133,0.069-0.231,0.069
					c-0.077,0-0.136-0.011-0.199-0.047c-0.043-0.037-0.087-0.07-0.113-0.128c-0.029-0.045-0.051-0.096-0.069-0.165
					C142.169,161.173,142.151,161.111,142.136,161.045z"/>
			</g>
		</g>
	</g>
</g>
</svg>
