<?xml version="1.0" encoding="utf-8"?>
<!-- Generator: Adobe Illustrator 16.0.0, SVG Export Plug-In . SVG Version: 6.00 Build 0)  -->
<!DOCTYPE svg PUBLIC "-//W3C//DTD SVG 1.1//EN" "http://www.w3.org/Graphics/SVG/1.1/DTD/svg11.dtd">
<svg version="1.1" id="Layer_3" xmlns="http://www.w3.org/2000/svg" xmlns:xlink="http://www.w3.org/1999/xlink" x="0px" y="0px"
	 width="219.797px" height="166.53px" viewBox="0 0 219.797 166.53" enable-background="new 0 0 219.797 166.53"
	 xml:space="preserve">
<g>
	<g>
		<polygon fill="#C3302D" points="11.105,0 10.091,0.046 9.101,0.162 8.156,0.392 7.234,0.691 6.336,1.06 5.506,1.521 4.7,2.028 
			3.939,2.604 3.249,3.249 2.604,3.94 2.027,4.7 1.52,5.483 1.06,6.336 0.691,7.234 0.392,8.156 0.184,9.101 0.046,10.091 0,11.105 
			0,11.105 0,11.128 0,11.175 0,11.266 0,11.405 0,11.589 0,11.797 0,12.027 0,12.327 0,12.626 0,12.995 0,13.363 0,13.801 
			0,14.238 0,14.722 0,15.252 0,15.805 0,16.381 0,16.98 0,17.625 0,18.293 0,18.985 0,19.722 0,20.482 0,21.266 0,22.072 0,22.901 
			0,23.754 0,24.652 0,25.551 0,26.496 0,27.44 0,28.431 0,29.421 0,30.458 0,31.496 0,32.578 0,33.661 0,34.767 0,35.896 0,37.024 
			0,38.2 0,39.375 0,40.573 0,41.794 0,43.015 0,44.259 0,45.526 0,46.793 0,48.083 0,49.397 0,50.71 0,52.047 0,53.383 0,54.719 
			0,56.079 0,57.461 0,58.843 0,60.226 0,61.631 0,63.037 0,64.442 0,65.87 0,67.299 0,68.727 0,70.179 0,71.607 0,73.059 0,74.51 
			0,75.962 0,77.436 0,78.888 0,80.362 0,81.813 0,83.265 0,84.717 0,86.168 0,87.643 0,89.094 0,90.568 0,92.02 0,93.472 0,94.923 
			0,96.352 0,97.803 0,99.231 0,100.66 0,102.088 0,103.494 0,104.899 0,106.305 0,107.687 0,109.069 0,110.452 0,111.811 
			0,113.147 0,114.484 0,115.82 0,117.133 0,118.447 0,119.737 0,121.004 0,122.271 0,123.515 0,124.736 0,125.958 0,127.155 
			0,128.331 0,129.506 0,130.635 0,131.763 0,132.87 0,133.975 0,135.035 0,136.072 0,137.109 0,138.1 0,139.09 0,140.035 
			0,140.979 0,141.877 0,142.776 0,143.629 0,144.458 0,145.265 0,146.048 0,146.809 0,147.545 0,148.237 0,148.905 0,149.55 
			0,150.149 0,150.725 0,151.278 0,151.808 0,152.292 0,152.729 0,153.167 0,153.536 0,153.904 0,154.204 0,154.503 0,154.734 
			0,154.941 0,155.125 0,155.264 0,155.355 0,155.402 0,155.425 0,155.425 0.046,156.439 0.184,157.43 0.392,158.374 0.691,159.296 
			1.06,160.194 1.52,161.047 2.027,161.83 2.604,162.591 3.249,163.281 3.939,163.927 4.7,164.502 5.506,165.009 6.336,165.47 
			7.234,165.839 8.156,166.139 9.101,166.369 10.091,166.484 11.105,166.53 11.105,166.53 11.128,166.53 11.151,166.53 
			11.243,166.53 11.335,166.53 11.451,166.53 11.611,166.53 11.796,166.53 12.003,166.53 12.234,166.53 12.487,166.53 
			12.787,166.53 13.086,166.53 13.432,166.53 13.8,166.53 14.192,166.53 14.584,166.53 15.021,166.53 15.482,166.53 15.966,166.53 
			16.473,166.53 17.002,166.53 17.556,166.53 18.133,166.53 18.731,166.53 19.354,166.53 19.998,166.53 20.667,166.53 
			21.357,166.53 22.049,166.53 22.786,166.53 23.523,166.53 24.283,166.53 25.067,166.53 25.873,166.53 26.703,166.53 
			27.555,166.53 28.408,166.53 29.283,166.53 30.182,166.53 31.103,166.53 32.025,166.53 32.993,166.53 33.937,166.53 
			34.928,166.53 35.942,166.53 36.956,166.53 37.969,166.53 39.029,166.53 40.088,166.53 41.172,166.53 42.254,166.53 
			43.361,166.53 44.489,166.53 45.618,166.53 46.77,166.53 47.922,166.53 49.097,166.53 50.272,166.53 51.47,166.53 52.691,166.53 
			53.913,166.53 55.134,166.53 56.401,166.53 57.645,166.53 58.912,166.53 60.18,166.53 61.469,166.53 62.76,166.53 64.073,166.53 
			65.386,166.53 66.723,166.53 68.058,166.53 69.396,166.53 70.731,166.53 72.09,166.53 73.45,166.53 74.833,166.53 76.215,166.53 
			77.598,166.53 78.979,166.53 80.385,166.53 81.79,166.53 83.195,166.53 84.601,166.53 86.03,166.53 87.458,166.53 88.887,166.53 
			90.315,166.53 91.743,166.53 93.195,166.53 94.624,166.53 96.075,166.53 97.526,166.53 98.978,166.53 100.429,166.53 
			101.881,166.53 103.332,166.53 104.807,166.53 106.258,166.53 107.71,166.53 109.184,166.53 110.612,166.53 112.087,166.53 
			113.539,166.53 114.991,166.53 116.442,166.53 117.917,166.53 119.368,166.53 120.819,166.53 122.271,166.53 123.722,166.53 
			125.174,166.53 126.602,166.53 128.054,166.53 129.482,166.53 130.911,166.53 132.339,166.53 133.768,166.53 135.196,166.53 
			136.601,166.53 138.007,166.53 139.412,166.53 140.817,166.53 142.2,166.53 143.582,166.53 144.965,166.53 146.347,166.53 
			147.707,166.53 149.065,166.53 150.402,166.53 151.739,166.53 153.075,166.53 154.412,166.53 155.724,166.53 157.038,166.53 
			158.328,166.53 159.618,166.53 160.885,166.53 162.152,166.53 163.396,166.53 164.641,166.53 165.885,166.53 167.105,166.53 
			168.327,166.53 169.525,166.53 170.7,166.53 171.875,166.53 173.027,166.53 174.179,166.53 175.308,166.53 176.437,166.53 
			177.542,166.53 178.625,166.53 179.708,166.53 180.769,166.53 181.828,166.53 182.842,166.53 183.855,166.53 184.869,166.53 
			185.837,166.53 186.805,166.53 187.773,166.53 188.694,166.53 189.616,166.53 190.514,166.53 191.39,166.53 192.242,166.53 
			193.094,166.53 193.923,166.53 194.73,166.53 195.514,166.53 196.274,166.53 197.011,166.53 197.749,166.53 198.44,166.53 
			199.131,166.53 199.799,166.53 200.444,166.53 201.066,166.53 201.666,166.53 202.241,166.53 202.794,166.53 203.324,166.53 
			203.831,166.53 204.314,166.53 204.776,166.53 205.213,166.53 205.605,166.53 205.997,166.53 206.365,166.53 206.711,166.53 
			207.01,166.53 207.31,166.53 207.563,166.53 207.793,166.53 208.001,166.53 208.186,166.53 208.347,166.53 208.461,166.53 
			208.554,166.53 208.624,166.53 208.669,166.53 208.693,166.53 208.693,166.53 209.706,166.484 210.696,166.369 211.641,166.139 
			212.563,165.839 213.461,165.47 214.291,165.009 215.098,164.502 215.834,163.927 216.549,163.281 217.194,162.591 217.77,161.83 
			218.277,161.047 218.738,160.194 219.106,159.296 219.405,158.374 219.613,157.43 219.751,156.439 219.797,155.425 
			219.797,155.425 219.797,155.402 219.797,155.355 219.797,155.264 219.797,155.125 219.797,154.941 219.797,154.734 
			219.797,154.503 219.797,154.204 219.797,153.904 219.797,153.536 219.797,153.167 219.797,152.729 219.797,152.292 
			219.797,151.808 219.797,151.278 219.797,150.725 219.797,150.149 219.797,149.55 219.797,148.905 219.797,148.237 
			219.797,147.545 219.797,146.809 219.797,146.048 219.797,145.265 219.797,144.458 219.797,143.629 219.797,142.776 
			219.797,141.877 219.797,140.979 219.797,140.035 219.797,139.09 219.797,138.1 219.797,137.109 219.797,136.072 219.797,135.035 
			219.797,133.975 219.797,132.87 219.797,131.763 219.797,130.635 219.797,129.506 219.797,128.331 219.797,127.155 
			219.797,125.958 219.797,124.736 219.797,123.515 219.797,122.271 219.797,121.004 219.797,119.737 219.797,118.447 
			219.797,117.133 219.797,115.82 219.797,114.484 219.797,113.147 219.797,111.811 219.797,110.452 219.797,109.069 
			219.797,107.687 219.797,106.305 219.797,104.899 219.797,103.494 219.797,102.088 219.797,100.66 219.797,99.231 219.797,97.803 
			219.797,96.352 219.797,94.923 219.797,93.472 219.797,92.02 219.797,90.568 219.797,89.094 219.797,87.643 219.797,86.168 
			219.797,84.717 219.797,83.265 219.797,81.813 219.797,80.362 219.797,78.888 219.797,77.436 219.797,75.962 219.797,74.51 
			219.797,73.059 219.797,71.607 219.797,70.179 219.797,68.727 219.797,67.299 219.797,65.87 219.797,64.442 219.797,63.037 
			219.797,61.631 219.797,60.226 219.797,58.843 219.797,57.461 219.797,56.079 219.797,54.719 219.797,53.383 219.797,52.047 
			219.797,50.71 219.797,49.397 219.797,48.083 219.797,46.793 219.797,45.526 219.797,44.259 219.797,43.015 219.797,41.794 
			219.797,40.573 219.797,39.375 219.797,38.2 219.797,37.024 219.797,35.896 219.797,34.767 219.797,33.661 219.797,32.578 
			219.797,31.496 219.797,30.458 219.797,29.421 219.797,28.431 219.797,27.44 219.797,26.496 219.797,25.551 219.797,24.652 
			219.797,23.754 219.797,22.901 219.797,22.072 219.797,21.266 219.797,20.482 219.797,19.722 219.797,18.985 219.797,18.293 
			219.797,17.625 219.797,16.98 219.797,16.381 219.797,15.805 219.797,15.252 219.797,14.722 219.797,14.238 219.797,13.801 
			219.797,13.363 219.797,12.995 219.797,12.626 219.797,12.327 219.797,12.027 219.797,11.797 219.797,11.589 219.797,11.405 
			219.797,11.266 219.797,11.175 219.797,11.128 219.797,11.105 219.797,11.105 219.751,10.091 219.613,9.101 219.405,8.156 
			219.106,7.234 218.738,6.336 218.277,5.483 217.77,4.7 217.194,3.94 216.549,3.249 215.834,2.604 215.098,2.028 214.291,1.521 
			213.461,1.06 212.563,0.691 211.641,0.392 210.696,0.162 209.706,0.046 208.693,0 208.693,0 208.669,0 208.624,0 208.554,0 
			208.461,0 208.347,0 208.186,0 208.001,0 207.793,0 207.563,0 207.31,0 207.01,0 206.711,0 206.365,0 205.997,0 205.605,0 
			205.213,0 204.776,0 204.314,0 203.831,0 203.324,0 202.794,0 202.241,0 201.666,0 201.066,0 200.444,0 199.799,0 199.131,0 
			198.44,0 197.749,0 197.011,0 196.274,0 195.514,0 194.73,0 193.923,0 193.094,0 192.242,0 191.39,0 190.514,0 189.616,0 
			188.694,0 187.773,0 186.805,0 185.837,0 184.869,0 183.855,0 182.842,0 181.828,0 180.769,0 179.708,0 178.625,0 177.542,0 
			176.437,0 175.308,0 174.179,0 173.027,0 171.875,0 170.7,0 169.525,0 168.327,0 167.105,0 165.885,0 164.641,0 163.396,0 
			162.152,0 160.885,0 159.618,0 158.328,0 157.038,0 155.724,0 154.412,0 153.075,0 151.739,0 150.402,0 149.065,0 147.707,0 
			146.347,0 144.965,0 143.582,0 142.2,0 140.817,0 139.412,0 138.007,0 136.601,0 135.196,0 133.768,0 132.339,0 130.911,0 
			129.482,0 128.054,0 126.602,0 125.174,0 123.722,0 122.271,0 120.819,0 119.368,0 117.917,0 116.442,0 114.991,0 113.539,0 
			112.087,0 110.612,0 109.184,0 107.71,0 106.258,0 104.807,0 103.332,0 101.881,0 100.429,0 98.978,0 97.526,0 96.075,0 94.624,0 
			93.195,0 91.743,0 90.315,0 88.887,0 87.458,0 86.03,0 84.601,0 83.195,0 81.79,0 80.385,0 78.979,0 77.598,0 76.215,0 74.833,0 
			73.45,0 72.09,0 70.731,0 69.396,0 68.058,0 66.723,0 65.386,0 64.073,0 62.76,0 61.469,0 60.18,0 58.912,0 57.645,0 56.401,0 
			55.134,0 53.913,0 52.691,0 51.47,0 50.272,0 49.097,0 47.922,0 46.77,0 45.618,0 44.489,0 43.361,0 42.254,0 41.172,0 40.088,0 
			39.029,0 37.969,0 36.956,0 35.942,0 34.928,0 33.937,0 32.993,0 32.025,0 31.103,0 30.182,0 29.283,0 28.408,0 27.555,0 
			26.703,0 25.873,0 25.067,0 24.283,0 23.523,0 22.786,0 22.049,0 21.357,0 20.667,0 19.998,0 19.354,0 18.731,0 18.133,0 
			17.556,0 17.002,0 16.473,0 15.966,0 15.482,0 15.021,0 14.584,0 14.192,0 13.8,0 13.432,0 13.086,0 12.787,0 12.487,0 12.234,0 
			12.003,0 11.796,0 11.611,0 11.451,0 11.335,0 11.243,0 11.151,0 11.128,0 11.105,0 11.105,0 		"/>
		<polygon fill="#F6AF26" points="92.941,75.155 93.057,74.349 93.171,73.542 93.287,72.713 93.425,71.884 93.563,71.031 
			93.702,70.156 93.84,69.28 94.001,68.405 94.163,67.506 94.324,66.584 94.485,65.686 94.669,64.765 94.831,63.82 95.038,62.875 
			95.222,61.93 95.43,60.985 95.637,60.018 95.844,59.051 96.052,58.083 96.282,57.115 96.513,56.124 96.744,55.157 96.997,54.167 
			97.25,53.198 97.503,52.208 97.756,51.217 98.033,50.227 98.31,49.236 98.586,48.268 98.886,47.278 99.162,46.31 99.484,45.319 
			99.785,44.351 100.107,43.383 100.406,42.416 100.752,41.472 101.074,40.504 101.419,39.559 101.765,38.614 102.111,37.693 
			102.48,36.771 102.848,35.85 103.217,34.951 103.608,34.053 104.001,33.177 104.392,32.302 104.784,31.426 105.199,30.597 
			105.613,29.744 106.028,28.938 106.466,28.108 106.903,27.325 107.341,26.542 107.778,25.781 108.24,25.044 108.7,24.307 
			109.184,23.593 109.646,22.901 110.106,22.233 110.612,21.565 111.096,20.943 111.604,20.321 112.133,19.722 112.64,19.146 
			113.17,18.593 113.7,18.063 114.253,17.579 114.806,17.096 115.359,16.635 115.912,16.197 116.488,15.805 117.064,15.414 
			117.663,15.068 118.239,14.746 118.838,14.446 119.46,14.192 120.059,13.939 120.682,13.731 121.326,13.547 121.949,13.409 
			122.593,13.294 123.261,13.202 123.907,13.156 124.575,13.156 124.575,13.156 124.989,13.156 125.381,13.179 125.796,13.225 
			126.188,13.271 126.579,13.34 126.994,13.432 127.386,13.547 127.8,13.663 128.215,13.801 128.607,13.939 129.021,14.101 
			129.413,14.285 129.828,14.469 130.242,14.676 130.634,14.906 131.049,15.137 131.463,15.391 131.878,15.667 132.27,15.943 
			132.685,16.243 133.1,16.542 133.491,16.865 133.906,17.21 134.32,17.557 134.712,17.925 135.126,18.293 135.542,18.686 
			135.957,19.1 136.348,19.515 136.763,19.93 137.177,20.39 137.569,20.828 137.984,21.312 138.375,21.773 138.791,22.28 
			139.205,22.786 139.597,23.293 140.011,23.823 140.403,24.353 140.794,24.906 141.209,25.482 141.602,26.058 142.016,26.634 
			142.408,27.233 142.799,27.855 143.191,28.478 143.582,29.099 143.997,29.744 144.389,30.389 144.781,31.058 145.172,31.726 
			145.564,32.417 145.956,33.108 146.324,33.799 146.715,34.537 147.108,35.251 147.499,35.988 147.868,36.725 148.259,37.486 
			148.628,38.246 149.02,39.006 149.389,39.79 149.757,40.596 150.125,41.379 150.494,42.186 150.863,43.015 151.232,43.844 
			151.601,44.674 151.969,45.503 152.337,46.356 152.707,47.231 153.052,48.083 153.42,48.959 153.766,49.834 154.111,50.733 
			154.457,51.632 154.826,52.53 155.171,53.452 155.494,54.374 155.84,55.295 156.185,56.24 156.531,57.185 156.854,58.129 
			157.199,59.074 157.521,60.041 157.844,61.009 158.167,61.977 158.489,62.967 158.812,63.935 159.134,64.948 159.434,65.939 
			159.756,66.93 160.056,67.944 160.355,68.958 160.655,69.994 160.955,71.008 161.254,72.045 161.553,73.082 161.853,74.119 
			162.129,75.155 162.406,76.215 162.705,77.275 162.981,78.334 163.258,79.395 163.512,80.454 163.789,81.537 164.065,82.597 
			164.318,83.657 164.571,84.74 164.825,85.846 165.078,86.928 165.332,88.011 165.562,89.117 165.815,90.223 166.046,91.329 
			166.276,92.435 166.507,93.541 166.737,94.646 166.968,95.776 167.175,96.882 167.382,98.01 167.589,99.14 167.797,100.245 
			168.004,101.374 168.212,102.503 168.396,103.632 168.58,104.761 168.765,105.913 168.949,107.042 169.133,108.171 
			169.294,109.323 169.479,110.452 169.64,111.604 169.802,112.732 169.939,113.885 170.101,115.013 170.239,116.166 
			170.377,117.294 170.516,118.447 170.654,119.598 170.792,120.728 170.907,121.88 171.023,123.031 171.138,124.161 
			171.252,125.312 171.345,126.465 171.437,127.593 171.529,128.745 171.622,129.874 171.713,131.026 171.783,132.155 
			171.852,133.284 171.921,134.436 171.99,135.565 172.06,136.694 172.105,137.823 172.152,138.952 172.197,140.081 172.22,141.21 
			172.244,142.338 172.29,143.445 172.29,144.574 172.313,145.702 172.313,146.809 172.336,147.914 172.336,147.914 
			172.152,147.914 171.69,147.914 170.977,147.914 170.009,147.914 168.857,147.914 167.543,147.914 166.115,147.914 
			164.571,147.914 163.004,147.914 161.415,147.914 159.825,147.914 158.305,147.914 156.854,147.914 155.54,147.914 
			154.388,147.914 153.443,147.914 152.707,147.914 152.245,147.914 152.084,147.914 152.084,147.914 152.084,146.532 
			152.061,145.126 152.061,143.744 152.038,142.361 152.015,140.979 151.992,139.597 151.969,138.237 151.923,136.855 
			151.876,135.473 151.83,134.113 151.785,132.754 151.739,131.395 151.669,130.036 151.624,128.676 151.554,127.317 
			151.485,125.98 151.393,124.645 151.324,123.308 151.232,121.972 151.163,120.635 151.07,119.299 150.955,117.986 
			150.863,116.673 150.771,115.359 150.656,114.046 150.54,112.732 150.425,111.442 150.31,110.152 150.195,108.862 
			150.057,107.572 149.941,106.305 149.803,105.038 149.665,103.771 149.526,102.503 149.389,101.259 149.227,100.015 
			149.088,98.771 148.928,97.526 148.766,96.306 148.605,95.084 148.444,93.863 148.283,92.666 148.121,91.467 147.937,90.269 
			147.775,89.071 147.592,87.896 147.407,86.722 147.222,85.569 147.039,84.394 146.854,83.265 146.67,82.136 146.462,81.007 
			146.278,79.878 146.071,78.75 145.886,77.644 145.679,76.538 145.472,75.455 145.265,74.372 145.057,73.289 144.827,72.229 
			144.619,71.169 144.412,70.132 144.181,69.096 143.974,68.059 143.744,67.045 143.513,66.032 143.283,65.041 143.052,64.05 
			142.822,63.06 142.592,62.092 142.361,61.124 142.131,60.18 141.877,59.235 141.647,58.313 141.417,57.392 141.163,56.493 
			140.91,55.595 140.68,54.696 140.426,53.844 140.172,52.968 139.919,52.116 139.689,51.286 139.435,50.457 139.182,49.627 
			138.929,48.821 138.675,48.038 138.421,47.254 138.145,46.494 137.891,45.734 137.638,44.996 137.385,44.259 137.108,43.545 
			136.855,42.831 136.601,42.14 136.325,41.449 136.071,40.803 135.818,40.135 135.542,39.49 135.288,38.868 135.012,38.269 
			134.758,37.67 134.482,37.071 134.228,36.495 133.952,35.942 133.676,35.412 133.422,34.882 133.146,34.352 132.892,33.868 
			132.615,33.384 132.362,32.901 132.085,32.44 131.833,32.002 131.556,31.587 131.303,31.173 131.026,30.781 130.772,30.389 
			130.496,30.043 130.242,29.698 129.966,29.353 129.712,29.03 129.437,28.731 129.183,28.454 128.929,28.178 128.653,27.924 
			128.399,27.693 128.146,27.486 127.893,27.279 127.616,27.095 127.362,26.934 127.109,26.772 126.855,26.657 126.602,26.519 
			126.349,26.427 126.095,26.357 125.842,26.289 125.612,26.242 125.358,26.219 125.104,26.196 125.104,26.196 124.828,26.219 
			124.575,26.242 124.298,26.265 124.021,26.312 123.769,26.38 123.492,26.45 123.215,26.542 122.962,26.657 122.685,26.772 
			122.432,26.911 122.156,27.048 121.902,27.21 121.626,27.371 121.372,27.579 121.096,27.763 120.842,27.993 120.589,28.2 
			120.335,28.454 120.059,28.708 119.806,28.984 119.552,29.26 119.299,29.56 119.045,29.859 118.792,30.205 118.538,30.528 
			118.285,30.896 118.031,31.242 117.801,31.633 117.547,32.025 117.294,32.44 117.064,32.854 116.811,33.292 116.58,33.73 
			116.327,34.191 116.097,34.675 115.843,35.159 115.612,35.666 115.382,36.172 115.152,36.702 114.921,37.255 114.691,37.808 
			114.46,38.361 114.23,38.96 114,39.559 113.769,40.158 113.562,40.78 113.332,41.425 113.101,42.07 112.894,42.739 
			112.687,43.406 112.456,44.098 112.249,44.812 112.041,45.526 111.834,46.264 111.626,47.001 111.419,47.761 111.212,48.521 
			111.005,49.305 110.82,50.111 110.612,50.918 110.406,51.747 110.222,52.577 110.037,53.429 109.852,54.304 109.668,55.18 
			109.484,56.056 109.3,56.978 109.116,57.899 108.954,58.82 108.77,59.765 108.585,60.709 108.424,61.7 108.24,62.668 
			108.078,63.682 107.917,64.672 107.756,65.709 107.595,66.746 107.433,67.783 107.272,68.842 107.111,69.925 106.973,71.008 
			106.811,72.114 106.673,73.243 106.535,74.372 106.373,75.501 106.235,76.653 106.12,77.828 105.981,79.002 105.844,80.201 
			105.706,81.399 105.59,82.62 105.476,83.841 105.337,85.085 105.222,86.329 105.106,87.597 104.991,88.887 104.899,90.2 
			104.784,91.49 104.691,92.826 104.576,94.163 104.484,95.5 104.392,96.859 104.3,98.241 104.208,99.624 104.116,101.029 
			104.046,102.458 103.955,103.863 103.885,105.313 103.816,106.766 103.747,108.24 103.678,109.715 103.608,111.189 
			103.562,112.709 103.494,114.207 103.448,115.751 103.401,117.294 103.355,118.838 103.309,120.405 103.263,121.994 
			103.217,123.584 103.194,125.197 103.148,126.81 103.125,128.445 103.102,130.082 103.079,131.74 103.079,133.399 
			103.056,135.081 103.056,136.786 103.056,138.491 103.033,140.196 103.033,140.196 102.872,140.196 102.411,140.196 
			101.696,140.196 100.729,140.196 99.577,140.196 98.264,140.196 96.835,140.196 95.314,140.196 93.725,140.196 92.136,140.196 
			90.568,140.196 89.048,140.196 87.596,140.196 86.283,140.196 85.131,140.196 84.187,140.196 83.449,140.196 82.988,140.196 
			82.827,140.196 82.827,140.196 82.827,138.491 82.827,136.786 82.804,135.081 82.804,133.399 82.781,131.74 82.758,130.082 
			82.735,128.445 82.712,126.81 82.689,125.197 82.643,123.584 82.62,121.994 82.574,120.405 82.528,118.838 82.481,117.294 
			82.436,115.751 82.366,114.207 82.32,112.709 82.251,111.189 82.206,109.715 82.136,108.24 82.067,106.766 81.998,105.313 
			81.906,103.863 81.836,102.458 81.744,101.029 81.675,99.624 81.583,98.241 81.491,96.859 81.398,95.5 81.284,94.163 
			81.191,92.826 81.099,91.49 80.984,90.2 80.868,88.887 80.776,87.597 80.662,86.329 80.523,85.085 80.408,83.841 80.293,82.62 
			80.177,81.399 80.039,80.201 79.901,79.002 79.763,77.828 79.647,76.653 79.509,75.501 79.348,74.372 79.209,73.243 
			79.071,72.114 78.91,71.008 78.772,69.925 78.611,68.842 78.45,67.783 78.311,66.746 78.15,65.709 77.966,64.672 77.804,63.682 
			77.644,62.668 77.482,61.7 77.298,60.709 77.136,59.765 76.952,58.82 76.768,57.899 76.583,56.978 76.399,56.079 76.215,55.18 
			76.03,54.304 75.846,53.429 75.639,52.577 75.455,51.747 75.27,50.918 75.063,50.111 74.855,49.305 74.671,48.521 74.463,47.761 
			74.256,47.001 74.049,46.264 73.842,45.526 73.634,44.812 73.404,44.098 73.196,43.406 72.989,42.739 72.759,42.07 72.551,41.425 
			72.321,40.78 72.09,40.158 71.883,39.559 71.652,38.96 71.422,38.361 71.192,37.808 70.962,37.255 70.731,36.702 70.501,36.172 
			70.247,35.666 70.017,35.159 69.787,34.675 69.533,34.191 69.303,33.73 69.05,33.292 68.819,32.854 68.566,32.44 68.335,32.025 
			68.082,31.633 67.829,31.242 67.575,30.896 67.322,30.528 67.068,30.205 66.814,29.883 66.561,29.56 66.308,29.26 66.055,28.984 
			65.801,28.708 65.547,28.454 65.271,28.2 65.018,27.993 64.764,27.763 64.487,27.579 64.234,27.371 63.958,27.21 63.705,27.048 
			63.428,26.911 63.174,26.772 62.898,26.657 62.645,26.542 62.368,26.45 62.091,26.38 61.815,26.312 61.562,26.265 61.285,26.242 
			61.009,26.219 60.732,26.196 60.732,26.196 60.501,26.219 60.248,26.242 59.995,26.289 59.742,26.357 59.488,26.427 
			59.234,26.519 58.981,26.657 58.728,26.772 58.474,26.934 58.221,27.095 57.967,27.279 57.714,27.486 57.461,27.693 
			57.184,27.924 56.931,28.178 56.677,28.454 56.401,28.731 56.147,29.03 55.893,29.353 55.618,29.675 55.364,30.043 55.088,30.389 
			54.834,30.781 54.558,31.173 54.304,31.587 54.028,32.002 53.774,32.44 53.498,32.901 53.245,33.384 52.968,33.868 52.715,34.352 
			52.438,34.882 52.185,35.412 51.908,35.942 51.631,36.495 51.378,37.071 51.102,37.67 50.848,38.269 50.572,38.868 50.318,39.49 
			50.065,40.135 49.788,40.803 49.535,41.472 49.258,42.14 49.004,42.831 48.751,43.545 48.475,44.259 48.222,44.996 47.968,45.734 
			47.715,46.494 47.461,47.254 47.208,48.038 46.955,48.821 46.702,49.627 46.447,50.457 46.193,51.286 45.94,52.116 45.688,52.968 
			45.435,53.844 45.204,54.719 44.95,55.595 44.697,56.493 44.467,57.392 44.213,58.313 43.982,59.235 43.752,60.18 43.499,61.124 
			43.268,62.092 43.038,63.06 42.807,64.05 42.577,65.041 42.347,66.032 42.14,67.045 41.909,68.059 41.678,69.096 41.471,70.132 
			41.241,71.169 41.033,72.229 40.826,73.312 40.618,74.372 40.411,75.455 40.204,76.561 39.997,77.644 39.789,78.772 
			39.605,79.878 39.397,81.007 39.212,82.136 39.006,83.265 38.821,84.417 38.637,85.569 38.454,86.722 38.269,87.896 
			38.107,89.071 37.923,90.269 37.762,91.467 37.578,92.666 37.416,93.863 37.255,95.084 37.094,96.306 36.956,97.526 
			36.794,98.771 36.633,100.015 36.494,101.259 36.356,102.503 36.218,103.771 36.08,105.038 35.942,106.305 35.803,107.595 
			35.688,108.862 35.572,110.152 35.458,111.442 35.342,112.756 35.227,114.046 35.112,115.359 35.02,116.673 34.905,117.986 
			34.812,119.299 34.721,120.635 34.628,121.972 34.559,123.308 34.467,124.645 34.398,125.98 34.329,127.34 34.26,128.676 
			34.191,130.036 34.145,131.395 34.075,132.754 34.029,134.113 33.983,135.496 33.96,136.855 33.914,138.237 33.891,139.597 
			33.868,140.979 33.845,142.361 33.822,143.744 33.799,145.126 33.799,146.532 33.799,147.914 33.799,147.914 33.638,147.914 
			33.177,147.914 32.44,147.914 31.495,147.914 30.32,147.914 29.007,147.914 27.579,147.914 26.058,147.914 24.467,147.914 
			22.878,147.914 21.289,147.914 19.768,147.914 18.339,147.914 17.026,147.914 15.874,147.914 14.906,147.914 14.169,147.914 
			13.708,147.914 13.547,147.914 13.547,147.914 13.547,146.809 13.57,145.679 13.57,144.574 13.593,143.445 13.616,142.338 
			13.662,141.21 13.685,140.081 13.731,138.952 13.778,137.823 13.824,136.694 13.893,135.542 13.962,134.413 14.031,133.284 
			14.1,132.132 14.169,131.003 14.261,129.874 14.354,128.722 14.446,127.57 14.538,126.441 14.63,125.289 14.746,124.161 
			14.86,123.008 14.976,121.857 15.114,120.728 15.229,119.576 15.367,118.423 15.505,117.294 15.643,116.143 15.782,114.99 
			15.943,113.862 16.081,112.709 16.243,111.581 16.404,110.429 16.589,109.3 16.75,108.147 16.934,107.019 17.119,105.89 
			17.302,104.738 17.486,103.609 17.671,102.48 17.878,101.351 18.086,100.222 18.293,99.117 18.5,97.987 18.708,96.859 
			18.916,95.752 19.146,94.624 19.376,93.518 19.606,92.412 19.837,91.306 20.067,90.2 20.321,89.094 20.551,87.988 20.805,86.905 
			21.058,85.8 21.311,84.717 21.565,83.634 21.819,82.574 22.095,81.515 22.348,80.431 22.625,79.372 22.901,78.312 23.178,77.252 
			23.454,76.192 23.753,75.132 24.03,74.095 24.33,73.059 24.605,72.022 24.905,70.985 25.205,69.971 25.505,68.935 25.827,67.921 
			26.126,66.907 26.426,65.916 26.748,64.925 27.071,63.912 27.395,62.944 27.716,61.954 28.039,60.985 28.361,60.018 
			28.684,59.051 29.007,58.106 29.353,57.162 29.698,56.217 30.021,55.272 30.366,54.351 30.711,53.429 31.057,52.507 
			31.402,51.609 31.749,50.71 32.117,49.834 32.462,48.936 32.808,48.061 33.177,47.208 33.545,46.333 33.891,45.503 34.26,44.651 
			34.628,43.821 34.997,42.992 35.366,42.186 35.734,41.356 36.103,40.573 36.472,39.79 36.863,39.006 37.232,38.223 37.624,37.462 
			37.992,36.702 38.383,35.965 38.753,35.228 39.144,34.514 39.536,33.799 39.927,33.085 40.319,32.394 40.71,31.726 41.102,31.035 
			41.494,30.389 41.886,29.721 42.277,29.076 42.67,28.454 43.061,27.832 43.453,27.233 43.867,26.634 44.259,26.035 44.65,25.459 
			45.065,24.906 45.457,24.353 45.872,23.823 46.264,23.293 46.678,22.763 47.07,22.256 47.484,21.773 47.876,21.289 48.291,20.828 
			48.706,20.367 49.097,19.93 49.512,19.515 49.926,19.077 50.318,18.686 50.733,18.293 51.148,17.925 51.54,17.557 51.954,17.21 
			52.369,16.865 52.784,16.542 53.175,16.243 53.59,15.943 54.004,15.667 54.419,15.391 54.811,15.137 55.226,14.906 55.64,14.676 
			56.032,14.469 56.447,14.285 56.861,14.101 57.253,13.939 57.668,13.778 58.083,13.663 58.474,13.524 58.889,13.432 59.28,13.34 
			59.696,13.271 60.087,13.225 60.501,13.179 60.894,13.156 61.285,13.156 61.285,13.156 61.953,13.156 62.621,13.202 
			63.267,13.294 63.912,13.409 64.557,13.547 65.179,13.731 65.801,13.939 66.423,14.192 67.022,14.446 67.621,14.746 68.22,15.068 
			68.796,15.414 69.372,15.805 69.948,16.197 70.524,16.635 71.077,17.096 71.606,17.579 72.16,18.086 72.69,18.593 73.219,19.146 
			73.749,19.722 74.256,20.321 74.763,20.943 75.247,21.565 75.754,22.233 76.238,22.901 76.698,23.593 77.182,24.307 
			77.644,25.044 78.104,25.781 78.542,26.542 78.979,27.325 79.417,28.108 79.855,28.938 80.27,29.744 80.685,30.597 81.099,31.426 
			81.491,32.302 81.882,33.177 82.273,34.053 82.666,34.951 83.035,35.85 83.403,36.771 83.771,37.693 84.117,38.614 84.463,39.559 
			84.808,40.504 85.131,41.472 85.477,42.416 85.776,43.383 86.099,44.351 86.398,45.319 86.721,46.31 86.998,47.278 87.297,48.268 
			87.573,49.236 87.849,50.227 88.126,51.217 88.379,52.208 88.633,53.175 88.887,54.167 89.14,55.157 89.371,56.124 89.601,57.115 
			89.831,58.083 90.039,59.051 90.269,60.018 90.476,60.985 90.66,61.93 90.868,62.875 91.052,63.82 91.236,64.741 91.398,65.686 
			91.582,66.584 91.743,67.506 91.905,68.405 92.043,69.28 92.204,70.156 92.342,71.031 92.481,71.884 92.595,72.713 92.734,73.542 
			92.849,74.349 92.941,75.155 92.941,75.155 		"/>
		<polygon fill="#C3302D" points="79.717,123.377 79.717,99.808 172.958,99.808 172.958,123.377 79.717,123.377 		"/>
		<polygon fill="#FFFFFF" points="163.535,101.72 169.409,101.72 169.409,121.027 163.535,121.027 163.535,101.72 		"/>
		<polygon fill="#FFFFFF" points="190.998,101.72 194.983,101.72 193.624,106.973 190.721,106.973 190.998,101.72 		"/>
		<polygon fill="#FFFFFF" points="201.872,104.577 203.024,104.6 204.153,104.715 205.236,104.899 206.227,105.153 207.125,105.545 
			207.909,106.028 208.554,106.65 209.038,107.411 209.337,108.332 209.453,109.393 209.453,109.393 208.577,109.393 
			206.665,109.393 204.752,109.393 203.877,109.393 203.877,109.393 203.646,108.309 202.933,107.664 201.803,107.48 
			201.803,107.48 200.997,107.595 200.306,108.055 200.006,109 200.006,109 200.191,109.715 200.698,110.222 201.458,110.544 
			202.425,110.751 203.532,110.936 204.707,111.12 205.882,111.396 205.882,111.396 207.01,111.834 208.001,112.364 208.83,113.056 
			209.453,113.862 209.844,114.806 209.982,115.889 209.982,115.889 209.914,116.833 209.706,117.687 209.36,118.47 
			208.876,119.138 208.254,119.76 207.518,120.267 206.642,120.682 205.651,121.027 204.5,121.281 203.255,121.419 201.872,121.464 
			201.872,121.464 200.444,121.419 199.177,121.281 198.071,121.05 197.127,120.705 196.32,120.29 195.652,119.783 195.122,119.161 
			194.708,118.47 194.431,117.709 194.27,116.833 194.2,115.889 194.2,115.889 195.099,115.889 197.034,115.889 198.97,115.889 
			199.845,115.889 199.845,115.889 200.122,117.064 200.835,117.801 201.896,118.055 201.896,118.055 203.047,117.894 
			203.739,117.364 203.969,116.511 203.969,116.511 203.739,115.728 203.14,115.175 202.241,114.76 201.181,114.484 200.006,114.23 
			198.831,114 197.771,113.724 197.771,113.724 196.873,113.332 196.043,112.756 195.398,111.949 194.96,110.913 194.799,109.599 
			194.799,109.599 194.845,108.955 195.007,108.286 195.284,107.595 195.698,106.95 196.25,106.305 196.988,105.751 197.91,105.268 
			199.016,104.899 200.329,104.646 201.872,104.577 201.872,104.577 		"/>
		<polygon fill="#FFFFFF" points="81.721,115.175 81.398,116.188 80.984,117.11 80.454,117.986 79.855,118.769 79.164,119.46 
			78.38,120.06 77.551,120.566 76.629,120.958 75.662,121.257 74.648,121.441 73.588,121.487 73.588,121.487 72.574,121.441 
			71.606,121.281 70.685,121.004 69.833,120.658 69.004,120.197 68.266,119.644 67.575,119.022 66.953,118.309 66.423,117.525 
			65.985,116.673 65.639,115.751 65.363,114.76 65.202,113.724 65.155,112.618 65.155,112.618 65.202,111.512 65.34,110.475 
			65.593,109.484 65.916,108.562 66.331,107.71 66.837,106.927 67.437,106.212 68.082,105.59 68.842,105.038 69.648,104.577 
			70.524,104.231 71.492,103.955 72.505,103.793 73.588,103.747 73.588,103.747 74.74,103.793 75.8,103.978 76.791,104.278 
			77.712,104.669 78.565,105.176 79.325,105.774 79.993,106.466 80.569,107.249 81.053,108.125 81.444,109.069 81.744,110.083 
			81.744,110.083 80.892,110.083 79.002,110.083 77.113,110.083 76.26,110.083 76.26,110.083 75.708,109.023 74.833,108.309 
			73.588,108.033 73.588,108.033 72.528,108.217 71.722,108.77 71.146,109.553 70.777,110.521 70.593,111.581 70.524,112.618 
			70.524,112.618 70.593,113.654 70.777,114.714 71.146,115.682 71.722,116.465 72.528,117.018 73.588,117.203 73.588,117.203 
			74.833,116.926 75.685,116.211 76.26,115.175 76.26,115.175 77.113,115.175 78.979,115.175 80.868,115.175 81.721,115.175 
			81.721,115.175 		"/>
		<polygon fill="#FFFFFF" points="41.241,101.72 48.245,101.72 51.309,113.124 54.35,101.72 61.377,101.72 64.441,121.487 
			58.658,121.487 57.115,109.945 53.959,121.487 48.637,121.487 45.48,109.945 43.959,121.487 38.153,121.487 41.241,101.72 		"/>
		<polygon fill="#FFFFFF" points="131.141,111.558 131.141,112.157 131.141,113.332 131.141,114.853 131.141,116.534 
			131.141,118.193 131.141,119.644 131.141,120.635 131.141,121.027 131.141,121.027 125.335,121.027 125.335,104.162 
			131.141,104.162 131.141,104.162 131.141,104.484 131.141,105.13 131.141,105.476 131.141,105.476 132.016,104.853 
			132.938,104.369 134.021,104.024 135.334,103.816 136.947,103.747 136.947,103.747 138.145,103.84 139.251,104.116 
			140.241,104.554 141.117,105.13 141.832,105.798 142.384,106.558 142.73,107.365 142.845,108.217 142.845,108.217 
			142.845,108.471 142.845,109.162 142.845,110.222 142.845,111.535 142.845,113.033 142.845,114.622 142.845,116.211 
			142.845,117.709 142.845,119.022 142.845,120.082 142.845,120.773 142.845,121.027 142.845,121.027 137.016,121.027 
			137.016,121.027 137.016,120.612 137.016,119.576 137.016,118.078 137.016,116.373 137.016,114.668 137.016,113.193 
			137.016,112.134 137.016,111.742 137.016,111.742 136.763,110.66 136.118,109.761 135.219,109.162 134.113,108.931 
			134.113,108.931 132.5,109.415 131.533,110.475 131.141,111.558 131.141,111.558 		"/>
		<path fill="#FFFFFF" d="M182.888,105.821v-1.06v-1.981v-1.06l0,0h5.875v19.307h-5.875l0,0v-0.253v-0.46v-0.231l0,0l-0.898,0.668
			l-1.336,0.53l-2.073,0.207l0,0l-0.692-0.023l-0.714-0.115l-0.761-0.162l-0.76-0.253l-0.737-0.346l-0.738-0.46l-0.69-0.576
			l-0.623-0.714l-0.553-0.83l-0.461-0.991l-0.345-1.129l-0.208-1.29l-0.092-1.475l0,0l0.069-1.382l0.184-1.244l0.323-1.083
			l0.392-0.967l0.507-0.83l0.553-0.714l0.645-0.599l0.668-0.507l0.715-0.415l0.737-0.299l0.761-0.23l0.737-0.161l0.737-0.092
			l0.715-0.023l0,0l1.958,0.23l1.267,0.484L182.888,105.821L182.888,105.821L182.888,105.821z M176.805,113.124l0.138,1.452
			l0.415,1.199l0.668,0.898l0.898,0.576l1.128,0.184l0,0l1.129-0.161l0.968-0.553l0.737-0.898l0,0v-0.807v-1.728v-1.751v-0.783l0,0
			l-0.552-1.014l-0.968-0.668l-1.314-0.253l0,0L178.925,109l-0.898,0.553l-0.668,0.899l-0.415,1.198L176.805,113.124
			L176.805,113.124L176.805,113.124z"/>
		<path fill="#FFFFFF" d="M105.89,112.618l0.045-1.037l0.116-0.968l0.23-0.922l0.299-0.875l0.393-0.83l0.46-0.761l0.53-0.691
			l0.622-0.623l0.691-0.553l0.714-0.484l0.83-0.392l0.875-0.322l0.945-0.23l1.014-0.138l1.06-0.046l0,0l1.06,0.046l0.991,0.138
			l0.968,0.23l0.875,0.322l0.806,0.392l0.761,0.484l0.691,0.553l0.599,0.623l0.553,0.691l0.461,0.761l0.369,0.806l0.322,0.898
			l0.208,0.922l0.138,0.968l0.045,1.037l0,0l-0.045,1.037l-0.138,0.968l-0.208,0.944l-0.3,0.875l-0.391,0.807l-0.461,0.76
			l-0.553,0.691l-0.599,0.622l-0.691,0.553l-0.761,0.484l-0.806,0.392l-0.875,0.322l-0.968,0.231l-0.991,0.138l-1.06,0.046l0,0
			l-1.06-0.046l-1.014-0.138l-0.945-0.231l-0.875-0.322l-0.83-0.392l-0.714-0.484l-0.691-0.553l-0.622-0.622l-0.53-0.691l-0.46-0.76
			l-0.393-0.807l-0.299-0.875l-0.23-0.944l-0.116-0.968L105.89,112.618L105.89,112.618L105.89,112.618z M118.077,112.618
			l-0.069-1.037l-0.207-1.06l-0.415-0.968l-0.623-0.783l-0.875-0.553l-1.175-0.185l0,0l-1.175,0.185l-0.875,0.553l-0.622,0.783
			l-0.415,0.968l-0.207,1.06l-0.069,1.037l0,0l0.069,1.037l0.207,1.06l0.415,0.968l0.622,0.784l0.875,0.553l1.175,0.185l0,0
			l1.175-0.185l0.875-0.553l0.623-0.784l0.415-0.968l0.207-1.06L118.077,112.618L118.077,112.618L118.077,112.618z"/>
		<path fill="#FFFFFF" d="M83.771,101.72h0.346h0.921h1.337h1.59h1.682h1.589h1.337h0.921h0.346l0,0l1.106,0.023l1.036,0.139
			l0.991,0.184l0.968,0.277l0.898,0.346l0.829,0.415l0.783,0.483l0.714,0.53l0.668,0.623l0.599,0.668l0.507,0.714l0.461,0.783
			l0.369,0.852l0.3,0.898l0.207,0.922l0.138,0.991l0.046,1.037l0,0l-0.046,1.037l-0.138,0.99l-0.207,0.922l-0.3,0.898l-0.369,0.83
			l-0.461,0.807l-0.507,0.714l-0.599,0.668l-0.668,0.622l-0.714,0.529l-0.783,0.484l-0.829,0.414l-0.898,0.346l-0.968,0.276
			l-0.991,0.185l-1.036,0.115l-1.106,0.046l0,0h-0.346h-0.921h-1.337h-1.589h-1.682h-1.59h-1.337h-0.921h-0.346l0,0V101.72
			L83.771,101.72z M90.43,116.811h0.784h1.474h0.783l0,0l0.875-0.069l0.875-0.254l0.807-0.461l0.737-0.691l0.576-0.945l0.369-1.244
			l0.138-1.543l0,0l-0.138-1.544l-0.369-1.244l-0.576-0.945l-0.737-0.692l-0.807-0.46l-0.875-0.253l-0.875-0.069l0,0h-0.783h-1.474
			H90.43l0,0V116.811L90.43,116.811z"/>
		<path fill="#FFFFFF" d="M153.305,103.747l1.222,0.046l1.175,0.138l1.106,0.23l0.99,0.322l0.898,0.438l0.784,0.53l0.668,0.646
			l0.507,0.737l0.346,0.853l0.184,0.944l0,0v0.3v0.784v1.174v1.475v1.613v1.682v1.636v1.451v1.199v0.783v0.299l0,0h-5.875l0,0
			v-0.438v-0.806v-0.438l0,0l-0.876,0.691l-0.921,0.599l-1.014,0.46l-1.198,0.277l-1.406,0.115l0,0l-1.106-0.115l-1.014-0.3
			l-0.898-0.484l-0.806-0.622l-0.668-0.784l-0.484-0.853l-0.322-0.967l-0.116-1.014l0,0l0.046-0.691l0.116-0.691l0.229-0.691
			l0.323-0.668l0.438-0.645l0.576-0.576l0.69-0.53l0.875-0.461l1.037-0.368l1.221-0.276l1.382-0.185l1.613-0.069l0,0l1.383-0.207
			l0.69-0.553l0.208-0.761l0,0l-0.346-0.853l-0.807-0.53l-0.991-0.184l0,0l-0.99,0.139l-0.784,0.483l-0.322,0.853l0,0h-0.853h-1.889
			h-1.889h-0.875l0,0l0.046-0.692l0.138-0.668l0.253-0.668l0.369-0.622l0.484-0.576l0.645-0.53l0.807-0.461l0.967-0.391l1.152-0.277
			l1.337-0.185L153.305,103.747L153.305,103.747L153.305,103.747z M152.982,113.239l-1.267,0.254l-0.967,0.691l-0.369,1.175l0,0
			l0.184,0.829l0.623,0.6l1.106,0.23l0,0l1.313-0.253l1.083-0.807l0.623-1.359l0,0v-0.392v-0.737v-0.392l0,0l-0.623,0.138
			l-0.83,0.046L152.982,113.239L152.982,113.239L152.982,113.239z"/>
		<path fill="#F6AF26" d="M181.298,134.759h0.945h1.728h0.945l0,0l1.544,0.299l1.037,0.783l0.391,1.129l0,0l-0.276,1.037
			l-0.737,0.691l-1.014,0.323l0,0l0,0v0.022l0,0l0,0l1.267,0.784l0.576,1.128l0.138,1.475l0,0h-0.415h-0.783h-0.414l0,0
			l-0.208-1.589l-0.668-0.898l-1.313-0.3l0,0h-0.345h-0.623h-0.346l0,0v2.788h-1.428V134.759L181.298,134.759z M182.727,138.422
			h0.438h0.806h0.438l0,0l1.06-0.161l0.622-0.438l0.185-0.737l0,0l-0.162-0.576l-0.507-0.392l-0.968-0.139l0,0h-0.506h-0.921h-0.484
			l0,0V138.422L182.727,138.422z M184.247,132.086l1.083,0.092l1.014,0.253l0.945,0.392l0.852,0.53l0.784,0.667l0.646,0.761
			l0.553,0.852l0.392,0.968l0.253,1.014l0.092,1.059l0,0l-0.092,1.083l-0.253,1.014l-0.392,0.945l-0.553,0.875l-0.646,0.76
			l-0.784,0.669l-0.852,0.53l-0.945,0.392l-1.014,0.253l-1.083,0.093l0,0l-1.059-0.093l-1.014-0.253l-0.945-0.392l-0.875-0.53
			l-0.76-0.669l-0.668-0.76l-0.53-0.875l-0.392-0.945l-0.254-1.014l-0.092-1.083l0,0l0.092-1.059l0.254-1.014l0.392-0.968
			l0.53-0.852l0.668-0.761l0.76-0.667l0.875-0.53l0.945-0.392l1.014-0.253L184.247,132.086L184.247,132.086L184.247,132.086z
			 M184.247,144.574l1.06-0.092l0.991-0.277l0.921-0.438l0.83-0.576l0.714-0.714l0.576-0.807l0.438-0.921l0.277-1.014l0.092-1.061
			l0,0l-0.092-1.059l-0.277-0.991l-0.438-0.922l-0.576-0.807l-0.714-0.714l-0.83-0.576l-0.921-0.438l-0.991-0.277l-1.06-0.092l0,0
			l-1.059,0.092l-0.991,0.277l-0.898,0.438l-0.829,0.576l-0.715,0.714l-0.576,0.807l-0.438,0.922l-0.276,0.991l-0.092,1.059l0,0
			l0.092,1.061l0.276,1.014l0.438,0.921l0.576,0.807l0.715,0.714l0.829,0.576l0.898,0.438l0.991,0.277L184.247,144.574
			L184.247,144.574L184.247,144.574z"/>
	</g>
</g>
</svg>
