<?xml version="1.0" encoding="utf-8"?>
<!-- Generator: Adobe Illustrator 16.0.0, SVG Export Plug-In . SVG Version: 6.00 Build 0)  -->
<!DOCTYPE svg PUBLIC "-//W3C//DTD SVG 1.1//EN" "http://www.w3.org/Graphics/SVG/1.1/DTD/svg11.dtd">
<svg version="1.1" id="Layer_1" xmlns="http://www.w3.org/2000/svg" xmlns:xlink="http://www.w3.org/1999/xlink" x="0px" y="0px"
	 width="175.748px" height="70.069px" viewBox="0 0 175.748 70.069" enable-background="new 0 0 175.748 70.069"
	 xml:space="preserve">
<g>
	<path fill-rule="evenodd" clip-rule="evenodd" fill="#392B81" d="M174.8,9.864c0.618,0.621,0.948,1.442,0.948,2.328
		c0,0.912-0.351,1.732-0.987,2.344c-0.655,0.629-1.506,0.967-2.373,0.966c-0.894,0-1.733-0.355-2.381-1.004
		c-0.627-0.63-0.957-1.45-0.957-2.309c0-0.593,0.156-1.167,0.49-1.724c0.601-1.004,1.643-1.596,2.852-1.596
		C173.313,8.869,174.153,9.216,174.8,9.864L174.8,9.864L174.8,9.864z M170.452,10.2c-0.544,0.537-0.849,1.25-0.849,1.979
		c0,0.731,0.275,1.415,0.802,1.936c0.534,0.539,1.245,0.839,1.982,0.839c0.73,0.001,1.431-0.292,1.985-0.811
		c0.526-0.501,0.821-1.195,0.823-1.906c0-0.794-0.268-1.461-0.794-1.991c-0.544-0.547-1.227-0.831-2.003-0.831
		C171.644,9.416,170.979,9.68,170.452,10.2L170.452,10.2L170.452,10.2z M172.465,10.282c1.062,0,1.587,0.357,1.587,1.059
		c-0.001,0.485-0.304,0.85-0.812,0.978l0.829,1.642l-1.006-0.001l-0.71-1.504h-0.441l-0.002,1.504h-0.904l0.002-3.678
		L172.465,10.282L172.465,10.282L172.465,10.282z M171.911,11.916h0.443c0.517,0,0.766-0.155,0.766-0.52
		c0-0.383-0.268-0.547-0.813-0.547l-0.396-0.001V11.916L171.911,11.916z"/>
	<path fill-rule="evenodd" clip-rule="evenodd" fill="#392B81" d="M167.523,6.922l-0.002,62.079
		c-13.854-8.374-31.519-7.628-48.838-7.146l-18.062,1.228L59.98,67.51c-18.809,1.314-37.31,4.911-55.767,0.22l-4.209-1.666L0,3.983
		c10.259,5.525,24.381,4.342,36.612,4.21c36.039-1.754,69.84-9.426,106.93-8.023C152.091,1.091,160.685,2.318,167.523,6.922
		L167.523,6.922z"/>
	<g>
		<defs>
			<path id="SVGID_1_" d="M167.523,6.922l-0.002,62.079c-13.854-8.374-31.519-7.628-48.838-7.146l-18.062,1.228L59.98,67.51
				c-18.809,1.314-37.31,4.911-55.767,0.22l-4.209-1.666L0,3.983c10.259,5.525,24.381,4.342,36.612,4.21
				c36.039-1.754,69.84-9.426,106.93-8.023C152.091,1.091,160.685,2.318,167.523,6.922L167.523,6.922z"/>
		</defs>
		<clipPath id="SVGID_2_">
			<use xlink:href="#SVGID_1_"  overflow="visible"/>
		</clipPath>
		<g clip-path="url(#SVGID_2_)">
			<defs>
				<rect id="SVGID_3_" y="-1.233" width="167.523" height="73.654"/>
			</defs>
			<clipPath id="SVGID_4_">
				<use xlink:href="#SVGID_3_"  overflow="visible"/>
			</clipPath>
			<g transform="matrix(1 0 0 1 -5.960464e-08 7.629395e-06)" clip-path="url(#SVGID_4_)">
				
					<image overflow="visible" width="356" height="157" xlink:href="1D9EC4440E757434.png"  transform="matrix(0.48 0 0 -0.48 -0.8652 73.4272)">
				</image>
			</g>
		</g>
		<g clip-path="url(#SVGID_2_)">
			<defs>
				<rect id="SVGID_5_" y="-1.233" width="167.523" height="73.654"/>
			</defs>
			<clipPath id="SVGID_6_">
				<use xlink:href="#SVGID_5_"  overflow="visible"/>
			</clipPath>
			<g transform="matrix(1 0 0 1 -5.960464e-08 7.629395e-06)" clip-path="url(#SVGID_6_)">
				
					<image overflow="visible" width="356" height="157" xlink:href="1D9EC4440E757435.png"  transform="matrix(0.48 0 0 -0.48 -0.8652 73.4272)">
				</image>
			</g>
		</g>
		<g clip-path="url(#SVGID_2_)">
			<defs>
				<rect id="SVGID_7_" y="-1.233" width="167.523" height="73.654"/>
			</defs>
			<clipPath id="SVGID_8_">
				<use xlink:href="#SVGID_7_"  overflow="visible"/>
			</clipPath>
			<g transform="matrix(1 0 0 1 -5.960464e-08 7.629395e-06)" clip-path="url(#SVGID_8_)">
				
					<image overflow="visible" width="356" height="157" xlink:href="1D9EC4440E757433.png"  transform="matrix(0.48 0 0 -0.48 -0.8652 73.4272)">
				</image>
			</g>
		</g>
	</g>
	<path fill-rule="evenodd" clip-rule="evenodd" fill="#2E2252" d="M55.185,38.404h1.333c0.826-1.984,2.864-3.751,5.85-3.751
		c1.438,0,2.588,0.332,3.495,0.849c-0.999-1.11-2.569-1.951-4.872-1.951c-3.204,0-5.319,2.035-6.012,4.188
		C54.979,37.739,54.667,38.404,55.185,38.404L55.185,38.404z"/>
	<path fill-rule="evenodd" clip-rule="evenodd" fill="#2E2252" d="M73.794,47.326c-0.012-0.002-0.024-0.003-0.035-0.005
		c0.069,0.353,0.009,0.813-0.301,1.423c-2.304,4.533-7.227,7.255-12.467,7.255c-2.96,0-5.705-0.936-7.973-2.528
		c2.485,2.257,5.76,3.63,9.35,3.63c5.24,0,10.162-2.721,12.467-7.253C75.977,47.601,73.794,47.326,73.794,47.326L73.794,47.326z"/>
	<path fill-rule="evenodd" clip-rule="evenodd" fill="#2E2252" d="M76.436,42.426c-0.103-4.767-2.481-8.957-6.071-11.49
		c2.812,2.561,4.606,6.26,4.694,10.388c0,0,0.246,2.685-2.575,2.685h-17.6c-0.504,0-0.107,1.167-0.107,1.167
		c0.463,1.372,1.368,2.84,2.909,3.729c-0.734-0.792-1.229-1.729-1.531-2.626c0,0-0.398-1.169,0.106-1.169h17.6
		C76.682,45.11,76.436,42.426,76.436,42.426L76.436,42.426z"/>
	<path fill-rule="evenodd" clip-rule="evenodd" fill="#2E2252" d="M92.386,45.435c-1.209-0.723-6.075-1.158-6.075-1.158
		s-4.106-0.457-6.991-2.297c2.693,2.769,8.369,3.399,8.369,3.399s4.431,0.397,5.885,1.061
		C93.144,45.761,92.386,45.435,92.386,45.435L92.386,45.435z"/>
	<path fill-rule="evenodd" clip-rule="evenodd" fill="#2E2252" d="M99.834,33.874c0,0,0.564,1.945-1.474,2.215
		c-2.03,0.269-3.374-0.033-3.374-0.033s-0.256-0.04-0.592-0.166c0.145,0.177,0.208,0.295,0.208,0.295
		c0.638,0.806,1.761,0.974,1.761,0.974s1.342,0.301,3.372,0.033c2.041-0.27,1.477-2.216,1.477-2.216
		c-0.605-2.053-2.412-3.536-3.457-4.25C98.598,31.515,99.455,32.583,99.834,33.874L99.834,33.874z"/>
	<path fill-rule="evenodd" clip-rule="evenodd" fill="#2E2252" d="M100.373,43.198c-0.474-0.73-1.164-1.334-1.961-1.833
		c0.218,0.229,0.415,0.471,0.585,0.73c0,0,3.59,4.361,0.368,9.799c0,0-2.518,4.296-10.705,4.263c0,0-5.531,0.333-9.378-2.154
		c3.723,3.678,10.755,3.256,10.755,3.256c8.188,0.035,10.706-4.262,10.706-4.262C103.965,47.56,100.373,43.198,100.373,43.198
		L100.373,43.198z"/>
	<path fill-rule="evenodd" clip-rule="evenodd" fill="#2E2252" d="M89.802,34.17c1.484,0,2.537,0.314,3.277,0.694
		c-0.391-0.52-1.657-1.797-4.652-1.797c0,0-4.867-0.436-5.136,2.248c0,0-0.291,1.052,1.504,1.832
		c-0.214-0.413-0.126-0.729-0.126-0.729C84.938,33.735,89.802,34.17,89.802,34.17L89.802,34.17z"/>
	<path fill-rule="evenodd" clip-rule="evenodd" fill="#2E2252" d="M22.114,32.33v21.292c0.034,1.409-1.793,1.561-1.793,1.561
		c-2.099,0.318-4.7,0.017-4.7,0.017c-0.049-0.01-0.093-0.024-0.14-0.035c0.159,0.403,0.549,0.945,1.518,1.138
		c0,0,2.6,0.303,4.699-0.018c0,0,1.828-0.149,1.795-1.56V34.553L22.114,32.33L22.114,32.33z"/>
	<path fill-rule="evenodd" clip-rule="evenodd" fill="#2E2252" d="M23.524,19.846l13.39,21.611v-1.119L24.9,20.948
		c0,0-0.521-0.763-1.467-1.221C23.493,19.801,23.524,19.846,23.524,19.846L23.524,19.846z"/>
	<path fill-rule="evenodd" clip-rule="evenodd" fill="#2E2252" d="M100.508,21.384c0,0-0.063-1.77-1.575-1.96
		c0.184,0.448,0.197,0.857,0.197,0.857c0.067,0.336,0,2.25,0,2.25c-0.168,2.18-1.743,2.013-1.743,2.013H44.935v28.76
		c0,2.114-4.597,1.979-4.597,1.979c-1.718,0.081-2.906-0.242-3.72-0.656c0.468,0.62,1.841,1.913,5.096,1.759
		c0,0,4.597,0.135,4.597-1.979V25.646h52.452c0,0,1.577,0.168,1.746-2.012C100.508,23.634,100.574,21.72,100.508,21.384
		L100.508,21.384z"/>
	<path fill-rule="evenodd" clip-rule="evenodd" fill="#2E2252" d="M125.38,19.476c0.06,0.151,0.093,0.318,0.093,0.503v33.592
		c0,1.645-2.414,1.812-2.414,1.812c-0.805,0.101-2.651,0-2.651,0c-0.337-0.015-0.62-0.064-0.869-0.135
		c0.239,0.521,0.823,1.177,2.246,1.237c0,0,1.847,0.1,2.649,0c0,0,2.417-0.167,2.417-1.812V21.083
		C126.851,20.16,126.059,19.701,125.38,19.476L125.38,19.476z"/>
	<path fill-rule="evenodd" clip-rule="evenodd" fill="#2E2252" d="M110.038,19.979v4.027l-0.034,4.203h1.386l0.023-3.1v-4.027
		c0-0.923-0.792-1.382-1.469-1.607C110.002,19.627,110.038,19.794,110.038,19.979L110.038,19.979z"/>
	<path fill-rule="evenodd" clip-rule="evenodd" fill="#2E2252" d="M116.222,50.923c0.093,0.176,0.125,0.3,0.125,0.3
		c0.168,0.739,0,2.617,0,2.617c-0.235,1.847-3.087,1.713-3.087,1.713c-2.735-0.07-4.764-0.766-6.277-1.757
		c1.581,1.549,3.987,2.766,7.654,2.858c0,0,2.852,0.134,3.087-1.712c0,0,0.166-1.878,0-2.617
		C117.724,52.326,117.471,51.333,116.222,50.923L116.222,50.923z"/>
	<path fill-rule="evenodd" clip-rule="evenodd" fill="#2E2252" d="M117.866,31.125c0,0-0.127-1.812-1.359-1.812h-0.165
		c0.123,0.378,0.147,0.709,0.147,0.709c0.075,0.604,0,1.988,0,1.988c-0.076,1.787-1.409,1.812-1.409,1.812h-5.026V45.82
		c0,1.773,1.011,2.74,2.06,3.268c-0.409-0.539-0.683-1.243-0.683-2.164V34.925h5.026c0,0,1.332-0.025,1.409-1.812
		C117.866,33.113,117.941,31.729,117.866,31.125L117.866,31.125z"/>
	<path fill-rule="evenodd" clip-rule="evenodd" fill="#2E2252" d="M155.442,20.948c0,0-0.077-1.411-1.543-1.738
		c0.15,0.347,0.168,0.636,0.168,0.636c0.166,0.974,0.05,2.852,0.05,2.852c-0.32,2.014-2.4,1.78-2.4,1.78h-20.672
		c-0.031,0-0.062-0.006-0.093-0.007c0.156,0.499,0.536,1.109,1.471,1.109h20.671c0,0,2.08,0.235,2.398-1.778
		C155.492,23.802,155.611,21.922,155.442,20.948L155.442,20.948z"/>
	<path fill-rule="evenodd" clip-rule="evenodd" fill="#2E2252" d="M154.335,47.326c-0.012-0.001-0.024-0.003-0.036-0.005
		c0.069,0.354,0.01,0.813-0.301,1.423c-2.305,4.533-7.227,7.255-12.467,7.255c-2.96,0-5.705-0.936-7.973-2.529
		c2.485,2.258,5.761,3.631,9.351,3.631c5.237,0,10.161-2.721,12.467-7.253C156.518,47.601,154.335,47.326,154.335,47.326
		L154.335,47.326z"/>
	<path fill-rule="evenodd" clip-rule="evenodd" fill="#2E2252" d="M135.728,38.404h1.331c0.826-1.984,2.864-3.751,5.851-3.751
		c1.438,0,2.588,0.332,3.494,0.849c-0.999-1.11-2.568-1.951-4.872-1.951c-3.204,0-5.319,2.035-6.014,4.188
		C135.518,37.739,135.207,38.404,135.728,38.404L135.728,38.404z"/>
	<path fill-rule="evenodd" clip-rule="evenodd" fill="#2E2252" d="M156.977,42.426c-0.103-4.767-2.483-8.957-6.071-11.49
		c2.811,2.561,4.606,6.26,4.694,10.388c0,0,0.245,2.685-2.573,2.685h-17.602c-0.505,0-0.107,1.167-0.107,1.167
		c0.463,1.372,1.368,2.84,2.909,3.729c-0.736-0.792-1.23-1.729-1.533-2.626c0,0-0.396-1.169,0.108-1.169h17.601
		C157.222,45.11,156.977,42.426,156.977,42.426L156.977,42.426z"/>
	<path fill-rule="evenodd" clip-rule="evenodd" fill="#FFFFFF" d="M72.233,47.467c-2.304,4.534-7.227,7.256-12.467,7.256
		c-7.771,0-14.069-6.429-14.069-14.357S51.996,26.01,59.766,26.01c7.668,0,13.902,6.255,14.068,14.036c0,0,0.246,2.686-2.574,2.686
		h-17.6c-0.505,0-0.107,1.168-0.107,1.168c0.729,2.154,2.539,4.558,6.213,4.558c1.93,0,3.917-0.821,5.226-2.163
		c0,0,1.168-1.433,2.711-1.433c0,0,2.214-0.116,3.491,0.084C71.194,44.946,73.375,45.223,72.233,47.467L72.233,47.467L72.233,47.467
		z M65.837,36.319c-0.617-1.943-2.43-4.045-6.071-4.045c-3.204,0-5.319,2.035-6.014,4.189c0,0-0.311,0.665,0.208,0.665h11.729
		C65.689,37.127,66.143,37.282,65.837,36.319L65.837,36.319z"/>
	<path fill-rule="evenodd" clip-rule="evenodd" fill="#FFFFFF" d="M92.638,46.154c-0.036,2.854-5.571,2.619-5.571,2.619
		c-5,0-5.705-2.417-5.705-2.417c-0.303-1.074-1.812-1.141-1.812-1.141c-0.637-0.102-3.02-0.033-3.02-0.033
		c-1.51,0.033-1.712,1.073-1.712,1.073c-0.401,2.818,1.309,4.765,1.309,4.765c3.524,4.329,11.309,3.86,11.309,3.86
		c8.188,0.033,10.706-4.262,10.706-4.262c3.222-5.437-0.368-9.8-0.368-9.8c-2.349-3.624-10.001-4.161-10.001-4.161
		c-6.342-0.336-5.705-2.617-5.705-2.617c0.269-2.684,5.135-2.249,5.135-2.249c3.758,0,4.799,2.014,4.799,2.014
		c0.638,0.805,1.762,0.974,1.762,0.974s1.342,0.302,3.372,0.033c2.038-0.27,1.478-2.214,1.478-2.214
		c-0.875-2.954-4.229-4.732-4.229-4.732c-7.687-3.825-14.564-0.202-14.564-0.202c-6.712,3.491-4.296,10.001-4.296,10.001
		C76.897,42.094,85.086,43,85.086,43s4.866,0.436,6.075,1.158C91.161,44.159,92.655,44.795,92.638,46.154L92.638,46.154z"/>
	<path fill-rule="evenodd" clip-rule="evenodd" fill="#FFFFFF" d="M19.715,17.026c0,0-2.902-0.286-4.966,0.067
		c0,0-1.845,0.151-1.98,2.432c0,0-0.235,21.042,0,32.787c0,0,0.017,1.293,1.628,1.611c0,0,2.601,0.302,4.698-0.017
		c0,0,1.828-0.151,1.795-1.561V31.054l12.919,20.873c0,0,1.041,2.283,5.303,2.081c0,0,4.597,0.134,4.597-1.979v-28.76h52.453
		c0,0,1.574,0.168,1.743-2.014c0,0,0.067-1.912,0-2.248c0,0-0.067-1.979-1.845-1.979H39.312c0,0-3.623-0.168-3.623,2.517v20.639
		l-13.39-21.611C22.299,18.571,21.359,17.194,19.715,17.026L19.715,17.026z"/>
	<path fill-rule="evenodd" clip-rule="evenodd" fill="#FFFFFF" d="M124.248,48.269v4.027c0,1.644-2.416,1.811-2.416,1.811
		c-0.804,0.103-2.65,0-2.65,0c-2.383-0.1-2.416-1.879-2.416-1.879V18.603c0,0,0.033-1.61,2.416-1.711c0,0,1.847-0.1,2.65,0
		c0,0,2.416,0.202,2.416,1.812V48.269L124.248,48.269z"/>
	<path fill-rule="evenodd" clip-rule="evenodd" fill="#FFFFFF" d="M108.828,32.548h5.026c0,0,1.334-0.026,1.409-1.813
		c0,0,0.075-1.384,0-1.988c0,0-0.124-1.812-1.359-1.812h-5.125l0.033-4.205v-4.026c0-1.611-2.416-1.812-2.416-1.812
		c-0.806-0.1-2.651,0-2.651,0c-2.383,0.101-2.417,1.711-2.417,1.711v8.332h-0.469c-1.209,0-1.359,1.812-1.359,1.812
		c-0.075,0.604,0,1.988,0,1.988c0.075,1.787,1.284,1.813,1.284,1.813h0.578V44.41c0,0,0.101,9.598,10.672,9.866
		c0,0,2.852,0.134,3.087-1.712c0,0,0.168-1.879,0-2.617c0,0-0.303-1.208-1.913-1.51c0,0-4.38-0.202-4.38-3.894V32.548
		L108.828,32.548z"/>
	<path fill-rule="evenodd" clip-rule="evenodd" fill="#FFFFFF" d="M152.893,21.422c0,0,0.116-1.879-0.052-2.852
		c0,0-0.101-1.998-2.518-1.796l-20.57,1.594c0,0-1.411,0.233-1.51,1.51c0,0-0.067,0.872,0,1.577c0,0,0,1.744,1.577,1.744h20.672
		C150.492,23.2,152.571,23.436,152.893,21.422L152.893,21.422z"/>
	<path fill-rule="evenodd" clip-rule="evenodd" fill="#FFFFFF" d="M152.773,47.467c-2.304,4.534-7.227,7.256-12.467,7.256
		c-7.771,0-14.072-6.429-14.072-14.357s6.301-14.355,14.072-14.355c7.666,0,13.901,6.255,14.067,14.036c0,0,0.246,2.686-2.574,2.686
		h-17.601c-0.502,0-0.106,1.168-0.106,1.168c0.728,2.154,2.541,4.558,6.214,4.558c1.928,0,3.916-0.821,5.224-2.163
		c0,0,1.17-1.433,2.714-1.433c0,0,2.214-0.116,3.488,0.084C151.732,44.946,153.915,45.223,152.773,47.467L152.773,47.467
		L152.773,47.467z M146.378,36.319c-0.618-1.943-2.431-4.045-6.071-4.045c-3.204,0-5.319,2.035-6.014,4.189
		c0,0-0.311,0.665,0.207,0.665h11.729C146.229,37.127,146.683,37.282,146.378,36.319L146.378,36.319z"/>
</g>
</svg>
