<?xml version="1.0" encoding="utf-8"?>
<!-- Generator: Adobe Illustrator 16.0.0, SVG Export Plug-In . SVG Version: 6.00 Build 0)  -->
<!DOCTYPE svg PUBLIC "-//W3C//DTD SVG 1.1//EN" "http://www.w3.org/Graphics/SVG/1.1/DTD/svg11.dtd">
<svg version="1.1" id="Layer_1" xmlns="http://www.w3.org/2000/svg" xmlns:xlink="http://www.w3.org/1999/xlink" x="0px" y="0px"
	 width="483.537px" height="162.664px" viewBox="0 0 483.537 162.664" enable-background="new 0 0 483.537 162.664"
	 xml:space="preserve">
<g>
	<g>
		<path fill="#FFFFFF" stroke="#023768" stroke-width="3.145" d="M161.095,81.329c0,44.052-35.712,79.763-79.76,79.763
			c-44.051,0-79.763-35.711-79.763-79.763c0-44.054,35.712-79.757,79.763-79.757C125.383,1.572,161.095,37.275,161.095,81.329z"/>
		<g>
			<defs>
				<path id="SVGID_1_" d="M81.335,158.11C39,158.11,4.551,123.659,4.551,81.329C4.551,38.995,39,4.546,81.335,4.546
					c42.332,0,76.781,34.449,76.781,76.783C158.117,123.659,123.667,158.11,81.335,158.11L81.335,158.11z"/>
			</defs>
			<clipPath id="SVGID_2_">
				<use xlink:href="#SVGID_1_"  overflow="visible"/>
			</clipPath>
			<path clip-path="url(#SVGID_2_)" fill="#EE3E42" d="M0.359,122.743c0,0,97.045,20.397,139.697-141.554L-15.715-31.789
				l-28.432,92.103L0.359,122.743z"/>
			<path clip-path="url(#SVGID_2_)" fill="#0069AA" d="M15.811,137.579c0.513-9.382,42.517-16.232,48.83-17.529
				c23.564-4.852,54.275-8.716,68.365-30.848c12.868-20.206,10.854-48.923,9.523-71.544l12.363-0.616l29.051,95.192l-27.813,76.648
				c0,0-70.469,27.815-72.324,27.815c-1.853,0-69.85-44.505-69.85-44.505S15.793,137.926,15.811,137.579z"/>
		</g>
	</g>
	<g>
		<g>
			<path fill="#023768" d="M294.826,107.194c-15.107,0.146-27.457-10.455-28.307-23.575c21.451-4.789,34.334,8.877,56.08,3.45
				c-0.006,0.027,3.182-0.604,7.086-0.78c0.043-0.653,0.377-3.442,0.377-4.102c0-18.098-15.773-32.766-35.234-32.766
				c-19.459,0-35.232,14.668-35.232,32.766c0,18.091,15.773,32.756,35.232,32.756c15.178,0,29.535-10.374,33.617-22.978l-7.631,0.18
				C316.17,100.392,308.92,107.056,294.826,107.194z M294.826,57.171c14.043,0,25.713,9.042,27.973,20.859
				c-21.367,5.358-34.32-7.33-55.072-3.297C271.334,64.566,282.117,57.171,294.826,57.171z"/>
		</g>
	</g>
	<g>
		<path fill="none" d="M216.321,107.194c15.657,0,28.398-11.218,28.398-25.002c0-13.799-12.741-25.021-28.398-25.021
			c-12.385,0-22.936,7.028-26.804,16.797v16.441C193.385,100.17,203.936,107.194,216.321,107.194z"/>
		<path fill="#023768" d="M216.326,49.422c-18.535,0-36.258,11.741-35.581,30.928l1.96-8.011l6.812,0.475v1.154
			c3.868-9.769,14.419-16.797,26.804-16.797c15.657,0,28.398,11.223,28.398,25.021c0,13.784-12.741,25.002-28.398,25.002
			c-12.385,0-22.936-7.024-26.804-16.785v12.606c6.281,7.336,15.562,11.928,26.809,11.928c19.458,0,35.235-14.665,35.235-32.756
			C251.561,64.09,235.784,49.422,216.326,49.422z"/>
		<path fill="#023768" d="M180.745,80.35l-0.075,0.306v51.946h8.848v-29.586c-4.587-5.356-7.576-12.173-8.547-19.748
			C180.842,82.274,180.778,81.307,180.745,80.35z"/>
		<path fill="#023768" d="M187.934,82.192c0-2.881,0.562-5.646,1.583-8.225v-1.154l-6.812-0.475l-1.96,8.011
			c0.033,0.957,0.098,1.925,0.226,2.918c0.971,7.575,3.96,14.392,8.547,19.748V90.409C188.496,87.834,187.934,85.07,187.934,82.192z
			"/>
	</g>
	<g>
		<path fill="none" d="M373.969,107.194c15.658,0,28.4-11.218,28.4-25.002c0-13.799-12.742-25.021-28.4-25.021
			c-12.383,0-22.934,7.028-26.803,16.797v16.441C351.035,100.17,361.586,107.194,373.969,107.194z"/>
		<path fill="#023768" d="M373.975,49.422c-18.535,0-36.258,11.741-35.582,30.928l1.961-8.011l6.812,0.475v1.154
			c3.869-9.769,14.42-16.797,26.803-16.797c15.658,0,28.4,11.223,28.4,25.021c0,13.784-12.742,25.002-28.4,25.002
			c-12.383,0-22.934-7.024-26.803-16.785v12.606c6.281,7.336,15.562,11.928,26.809,11.928c19.459,0,35.234-14.665,35.234-32.756
			C409.209,64.09,393.434,49.422,373.975,49.422z"/>
		<path fill="#023768" d="M338.393,80.35l-0.074,0.306v51.946h8.848v-29.586c-4.586-5.356-7.576-12.173-8.547-19.748
			C338.492,82.274,338.428,81.307,338.393,80.35z"/>
		<path fill="#023768" d="M345.584,82.192c0-2.881,0.561-5.646,1.582-8.225v-1.154l-6.812-0.475l-1.961,8.011
			c0.035,0.957,0.1,1.925,0.227,2.918c0.971,7.575,3.961,14.392,8.547,19.748V90.409C346.145,87.834,345.584,85.07,345.584,82.192z"
			/>
	</g>
	<rect x="472.006" y="50.179" fill="#023768" width="8.85" height="63.401"/>
	<circle fill="#023768" cx="476.432" cy="36.887" r="7.105"/>
	<g>
		<path fill="#023768" d="M419.43,100.218c5.668,4.377,10.742,6.688,18.797,6.688c8.801,0,16.113-3.769,16.113-11.311
			c0-15.319-39.535-6.444-39.535-27.846c0-11.185,11.934-17.753,24.764-17.753c9.104,0,15.219,3.039,22.379,7.174l-4.922,5.591
			c-5.223-3.16-11.039-5.715-17.902-5.715c-8.504,0-15.666,3.408-15.666,10.337c0,15.324,39.535,5.229,39.535,27.849
			c0,12.767-12.082,18.727-26.705,18.727c-9.25,0-17.605-3.65-23.424-9.241L419.43,100.218z"/>
	</g>
</g>
</svg>
