<?xml version="1.0" encoding="utf-8"?>
<!-- Generator: Adobe Illustrator 16.0.0, SVG Export Plug-In . SVG Version: 6.00 Build 0)  -->
<!DOCTYPE svg PUBLIC "-//W3C//DTD SVG 1.1//EN" "http://www.w3.org/Graphics/SVG/1.1/DTD/svg11.dtd">
<svg version="1.1" id="Layer_1" xmlns="http://www.w3.org/2000/svg" xmlns:xlink="http://www.w3.org/1999/xlink" x="0px" y="0px"
	 width="170.102px" height="78.507px" viewBox="0 0 170.102 78.507" enable-background="new 0 0 170.102 78.507"
	 xml:space="preserve">
<g>
	<polygon fill-rule="evenodd" clip-rule="evenodd" fill="#2D8D2D" points="147.882,16.684 148.549,15.795 147.438,15.128 
		148.105,14.017 147.661,13.128 146.549,13.573 146.328,10.462 148.771,6.462 149.882,9.129 151.66,10.018 153.66,9.573 
		154.326,9.129 153.215,13.573 154.771,13.795 156.104,13.573 156.77,13.351 155.881,14.684 153.882,16.684 151.66,17.794 
		150.994,18.017 150.327,17.572 148.994,16.684 147.882,16.684 	"/>
	<polygon fill-rule="evenodd" clip-rule="evenodd" fill="#7AAB62" points="148.549,6.462 146.994,9.129 145.438,9.573 
		144.995,10.462 144.328,11.351 143.661,11.351 142.106,10.685 142.106,10.906 142.106,11.573 142.328,13.128 144.105,15.128 
		141.883,15.572 142.772,16.461 145.438,17.572 147.216,17.128 149.438,16.461 150.771,12.24 148.549,6.462 	"/>
	<path fill-rule="evenodd" clip-rule="evenodd" fill="#005333" d="M154.771,8.907c0-0.222-2.444,1.555-4,0.444
		c-1.556-1.333-2-3.11-2-3.11l0,0c0-0.222-0.222,0-0.222,0s-1.333,2.444-1.777,2.666c-0.667,0.444-1.334,0.222-1.334,0.444
		l0.444,0.444c0,0,1.556-0.222,2-1.333c0.223-0.444,0.667-1.333,0.667-1.778c0,0.445,0,1.556,1.333,2.667
		c2,1.555,4,0.222,4.222,0.444l-0.889,3.333c0,0,0.222,0.222,0.444-0.222c0,0,0-0.667,0.223-1.556
		C154.326,10.685,154.993,9.351,154.771,8.907L154.771,8.907z"/>
	<path fill-rule="evenodd" clip-rule="evenodd" fill="#005333" d="M46.118,11.351c2.667,0.889,4.666-4.221,2-5.11
		C45.007,5.352,42.785,10.24,46.118,11.351L46.118,11.351z"/>
	<path fill-rule="evenodd" clip-rule="evenodd" fill="#005333" d="M18.566,3.352c0.445-0.444,1.111-0.667,1.556-0.889
		c3.555-0.889,8.888,1.111,10.443,4.667c0.222,0.444,0.445,0.889,0.445,1.333c1.555,5.555-2,13.776-6.888,19.775
		c-3.111,3.555-6.444,6.443-9.777,7.333c-2.666,0.666-5.11,0.444-6.888-1.778c-1.111-0.889-1.555-2-2-3.333
		c-0.444-1.333-0.444-2.889-0.222-4.222c0-0.222,0-0.444,0-0.444c-0.222-0.222-0.222-0.222-0.444-0.222
		c-1.556-0.222-2.667-1.333-3.111-2.667c-0.889-3.111,1.333-8.221,9.11-14.665c1.111-0.889,1.555-1.333,3.11-4
		c0.667-1.111,0.889-1.555,1.333-1.778c0.223,0,0.667,0,1.111,0C17.677,2.686,18.122,3.13,18.566,3.352L18.566,3.352z M17.011,8.907
		c-3.555,5.11-6,9.332-7.11,13.776c0,0.444-0.222,0.667,0,0.889c0,0.222,0,0.222,1.111,0c1.778-0.667,3.333-2.222,4.444-3.111
		c0.222,0,0.444-0.444,0.889,0v0.222c0,0-0.222,0.222-0.444,0.444c-1.111,1.111-3.333,2.667-5.333,3.555
		c-0.889,0.444-1.333,0.667-1.333,1.333c-0.445,2.444-0.667,4.222-0.223,5.11c0.223,1.333,1.111,1.556,2,1.333
		c2.222-0.667,5.333-4,6.889-6c5.999-8.443,8.443-15.554,7.554-18.664c-0.667-1.777-2.222-2.444-4.444-1.777
		c-0.667,0.222-1.555,0.444-2.667,1.111C18.122,7.352,17.677,8.24,17.011,8.907L17.011,8.907z M8.345,14.461L8.345,14.461
		c-0.222,0-0.222,0.222-0.444,0.222c-2.889,2.667-5.11,6.888-4.444,8.888c0.222,0.666,0.667,1.111,1.333,1.333
		c0.222,0,0.222,0,0.444,0v-0.222c0.445-2.667,1.333-5.777,3.111-9.776C8.345,14.684,8.345,14.684,8.345,14.461L8.345,14.461z"/>
	<path fill-rule="evenodd" clip-rule="evenodd" fill="#005333" d="M42.785,27.571c0.667,0.889,2.667-0.667,4-2.444
		c0.667-0.667,2-2.889,2.889-5.999l0.667-3.111c0.444-2,5.999-3.555,4.888-0.667c-0.444,1.111-2,4.889-2.444,6
		c-0.667,2.222-0.889,3.777-0.667,4.666c0,0.222,0.222,0.444,0.222,0.667c0.222,0,0.222,0,0.444,0c0.889,0,2.667-1.555,4.444-4.221
		c0.889-1.556,2.444-5.777,2.888-8.666c0.222-2,4.222-2.667,3.777-0.667c-1.111,4.888-3.777,10.888-8.888,14.665
		c-1.333,0.667-2.222,1.333-2.889,1.333c-1.111,0.222-1.777,0-2.666-0.667c-0.667-0.667-1.111-1.333-1.111-3.11l0,0l0,0
		c0,0-0.223,0.222-0.223,0.444c0,0-0.222,0-0.222,0.222c-1.333,1.777-2.444,2.889-4.444,3.555l0,0
		c-0.889,0.222-2.222,0.444-3.111-0.889c-0.666-1.333-0.666-2.666-0.666-2.666c-1.333,2-2.667,4.444-4.222,4.666
		c-7.333,1.111-2-19.553-1.111-21.553c0.667-2,2.444-7.999,4.666-8.221c0.889-0.222,2.222,1.555,2.444,2.222
		c0.667,3.111-1.777,4.666-4.666,11.999c-1.556,3.555-4.888,18.886,1.333,9.999c1.556-2.222,2.889-5.777,3.777-9.11
		c0.444-2.222,4.222-2.667,4.888-1.111c0,0.222,0,0.666-0.444,1.333C40.786,25.349,42.785,27.571,42.785,27.571L42.785,27.571z"/>
	<path fill-rule="evenodd" clip-rule="evenodd" fill="#005333" d="M85.002,21.35c-0.222-0.222-0.667-0.222-1.111,0
		c-7.555,4.444-13.11,5.11-15.998,4.666c-1.555-0.222-2.667-1.111-2.444-2.444c0-0.889,0.223-1.556,0.667-2
		c0.222-0.444,0.222-0.444,0.444-0.222c0.667,0.444,1.111,0.444,1.556,0.444c3.333,0.444,5.555-0.444,7.333-1.555
		c1.333-0.667,2.222-2.222,2.444-3.555c0-1.111-0.667-4.888-5.333-4.222c-2.889,0.444-9.554,5.555-10.665,10.887
		c-0.444,2.667,2,4.444,4.222,4.667c4.888,0.889,12.442-0.889,17.997-5.333C84.78,22.238,85.002,21.794,85.002,21.35L85.002,21.35z
		 M68.337,18.905c1.111-1.555,4-4.222,5.555-3.999c0.889,0.222,1.556,0.889,1.556,2c-0.223,1.777-3.111,3.111-6.221,2.667h-0.223
		C68.337,19.35,68.115,19.35,68.337,18.905L68.337,18.905z"/>
	<path fill-rule="evenodd" clip-rule="evenodd" fill="#005333" d="M137.44,54.902c-1.111,0.666-2.444,1.555-4.666,0.889
		c-4.889-1.334-13.11-11.111-19.554-5.111c0.667-2.223,2.444-6.221-0.666-5.555c-3.777,0.666-9.555,10.221-17.775,11.109
		c-1.334,0-2-0.889-1.778-2.223c2.667-1.109,6.222-3.777,7.555-5.109c1.111-1.111,1.777-2.666,1.556-4c0-2-1.333-3.555-4.222-3.111
		c-1.556,0.223-5.555,2.889-7.777,7.777c-0.666,1.334-1.11,3.555-1.11,4.666c-1.333,0.668-2.889,1.111-4,1.557
		c-0.667,0-1.777-0.223-1.555-1.779c3.11-13.775,9.776-17.552,11.998-20.441c1.111-1.333-0.889-7.333-3.555-3.555
		c0,0-5.333,5.777-8.666,14.221c-0.223-0.666-0.889-1.557-2.889-1.111c-6.222,1.334-9.776,8.221-10.221,11.109
		c-0.889,6.443,4.444,6,10.665-0.889c0,0.666-0.222,1.111-0.222,1.557c-0.444,5.332,4.666,3.109,8.888,0.889
		c0.666,1.777,2.444,2.666,3.999,2.666c6.444,0.221,14.888-8.443,17.998-11.332c0,0-2.666,6.443-2.889,6.666
		c-0.666,1.111-1.777,4.443,0.444,4.666c2.667,0.221,2-5.777,8.443-7.777c5.999-2.223,13.554,15.553,21.108,5.111
		C138.995,55.345,138.995,53.568,137.44,54.902L137.44,54.902z M97.889,44.902c0.666,0,1.333,0.445,1.333,1.334
		c0,1.555-3.777,4.887-6.222,6.221C93.89,48.457,96.333,44.902,97.889,44.902L97.889,44.902z M81.225,50.902
		c-2.889,4-7.11,5.775-6.666,2.889c0.666-4.445,3.999-8,6.888-8.666c0.889-0.223,1.111,0,1.333,0.223
		C82.113,47.125,81.669,49.125,81.225,50.902L81.225,50.902z"/>
	<path fill-rule="evenodd" clip-rule="evenodd" fill="#005333" d="M52.784,65.343h-0.222c0-0.221-6.443-4.887-15.553-5.998
		c1.111-2.445,2.222-5.334,3.333-8.666c0-0.666,0.222-1.555,0.222-2.223c0.445-2.221,0.223-9.332-4.666-3.332l0,0l0,0
		c-0.222,0-0.222,0.223-0.444,0.443l-0.445,0.445c-3.999,3.777-8.443,7.555-12.665,9.555c-0.667,0.443-1.778,0.889-2.222,0.666
		c-0.222,0-0.222-0.223-0.222-0.223c-0.222-0.443,0-2,1.111-4.666c1.111-2.443,6.443-10.664,15.998-14.664
		c3.555-0.889,3.11,2.889,3.11,2.889c0,1.555,0.667,1.332,0.667,1.332c2-0.443,5.999-9.109-3.333-7.109l0,0
		c-5.555,1.555-11.11,4.666-15.776,8.666c-4,3.555-7.999,7.555-8.666,10.664c-0.444,1.779,0,3.111,1.333,4
		c6.222,4.889,16.22-3.555,19.998-7.109l-0.222,1.555c-0.222,2.666-0.889,5.332-1.777,7.332c-0.444,0-0.667,0-1.111,0.223
		c-1.111,0-27.997,1.555-30.441,13.998c-0.444,1.334,0.222,4,3.333,4.889c8.221,2.443,19.553-4.889,19.998-5.111
		c5.333-3.332,8.888-6.666,11.554-11.332c7.999,0.668,15.998,4.445,16.22,4.445c0.222,0.221,0.444,0.221,0.667,0
		c0.222-0.223,0.222-0.445,0.222-0.445V65.343L52.784,65.343z M11.456,74.898c-0.667,0-2.444-0.223-2.889-0.889
		c0-0.223,0-0.443,0-0.666c2.889-9.555,20.664-11.555,20.664-11.555c0.667,0,1.333-0.223,2-0.223
		C24.788,74.232,11.678,74.898,11.456,74.898L11.456,74.898z"/>
	<path fill-rule="evenodd" clip-rule="evenodd" fill="#005333" d="M71.67,43.347c0,0-0.889-0.445-1.778,0
		c-0.444,0.223-0.889,0.443-1.111,0.666c-3.555,2.666-5.333,6.443-5.333,6.443s0.444-2,1.333-5.109
		c-0.222-1.334-1.111-2.445-2.444-2.889c-0.889-0.445-1.333-0.223-1.333,0.443c0,0-0.889,6.223-1.555,10.443
		c0,0.223,0,0.445-0.222,0.666c-1.333,1.111-2.889,2.223-3.777,2.445c-1.333,0-1.555-1.555-1.777-3.555
		c0-2.668,0.889-5.334,2.444-8.223c0.222-0.443,0.444-0.889-0.444-1.332c-0.222,0-0.667,0-1.111,0.223c0,0-0.222,0-0.444-0.223
		c-0.222-0.445-0.889-0.889-1.333-0.889h-0.222c-0.444,0-2,0.221-4.221,2c-2.444,1.998-4.889,5.109-6.222,7.553
		c-1.556,2.668-2,4.223-2,4.889c0.222,1.557,2,2,2.444,2.223c1.333,0,2.444-0.445,3.555-1.334c1.555-1.111,3.777-4.221,4.444-5.109
		c0.444-0.223,0.444-0.223,0.444,0.223c0,0.443,0.222,1.777,0.222,2.666c0.222,1.777,2,3.109,3.111,3.109
		c1.333,0,2.666-1.109,4.444-2.443c-0.222,0.889-0.444,1.777,0.222,2c0.222,0.223,1.333,1.111,2,0.443l0.667-2
		c1.777-3.998,3.11-7.775,6.888-9.775c0.667-0.445,1.556,0.445,1.556,0.445C71.893,48.236,73.892,44.679,71.67,43.347L71.67,43.347z
		 M53.006,46.902c0,0.223-1.111,2.223-1.778,3.111c-1.555,1.777-3.111,3.332-4,4.221c-0.889,0.668-1.777,1.334-2.222,1.334
		c-0.667,0-0.889-0.666-0.667-1.557c0.667-1.777,2-4.887,4.444-7.332c1.555-1.555,2.666-2.443,3.333-2.443l0,0
		c0.667,0,1.111,0.443,1.111,0.889C53.45,45.791,53.229,46.457,53.006,46.902L53.006,46.902z"/>
	<path fill-rule="evenodd" clip-rule="evenodd" fill="#2D8D2D" d="M45.229,10.462c2.444,0.889,4.666-4.221,1.777-5.11
		C43.896,4.463,41.896,9.351,45.229,10.462L45.229,10.462z"/>
	<path fill-rule="evenodd" clip-rule="evenodd" fill="#2D8D2D" d="M17.455,2.463c0.667-0.444,1.333-0.666,1.778-0.889
		c3.555-0.889,8.666,1.111,10.443,4.667c0.222,0.444,0.222,0.889,0.444,1.333c1.555,5.555-2,13.776-7.11,19.775
		c-2.888,3.555-6.443,6.444-9.776,7.333c-2.444,0.667-4.888,0.444-6.888-1.778c-0.889-0.889-1.555-2-2-3.333
		c-0.222-1.333-0.444-2.889-0.222-4.444v-0.222c0-0.222,0-0.222-0.222-0.222c-1.555-0.223-2.889-1.333-3.111-2.667
		c-0.889-3.111,1.111-8.221,9.11-14.665c1.111-0.889,1.333-1.333,2.889-4c0.667-1.111,0.889-1.555,1.555-1.778
		c0.223,0,0.445,0,0.889,0C16.566,1.797,17.011,2.241,17.455,2.463L17.455,2.463z M15.9,8.018c-3.555,5.11-6,10.221-7.11,14.665
		c-0.222,0.444-0.222,0.667-0.222,0.889c0.222,0,0.444,0.222,1.333-0.223c1.778-0.667,4.444-2.222,5.555-3.11
		c0.222-0.222,0.444-0.222,0.667-0.222l0,0c0,0,0,0.222-0.444,0.444c-1.111,1.333-4,3.111-6,3.777
		c-0.889,0.445-1.333,0.222-1.555,0.889c-0.444,2.666-0.444,4.222-0.222,5.11c0.444,1.333,1.111,1.555,2.222,1.333
		c2-0.667,5.11-4,6.666-5.999c6.221-8.443,8.443-15.554,7.555-18.664c-0.444-1.778-2-2.444-4.222-1.778
		c-0.889,0.222-1.778,0.444-2.667,1.111C17.233,6.462,16.566,7.352,15.9,8.018L15.9,8.018z M7.457,13.573c-0.222,0-0.222,0-0.222,0
		l-0.222,0.222c-2.889,2.667-5.11,6.888-4.444,8.888c0,0.667,0.444,1.111,1.111,1.333c0.222,0,0.444,0,0.444,0
		c0.222,0,0.222-0.222,0.222-0.222c0.222-2.667,1.111-5.777,2.889-9.777C7.457,13.795,7.457,13.795,7.457,13.573L7.457,13.573z"/>
	<path fill-rule="evenodd" clip-rule="evenodd" fill="#2D8D2D" d="M41.896,26.682c0.444,0.889,2.444-0.667,4-2.444
		c0.444-0.666,2-2.888,2.889-5.999l0.667-3.11c0.444-2,5.777-3.555,4.888-0.667c-0.444,1.111-2,4.667-2.444,6
		c-0.667,2.222-0.889,3.777-0.667,4.666c0,0.222,0,0.444,0.222,0.667h0.222c0.889,0,2.667-1.556,4.444-4.222
		c1.111-1.555,2.667-5.777,2.889-8.666c0.222-2,4.222-2.667,3.777-0.667c-1.111,4.888-3.555,10.887-8.888,14.665
		c-1.111,0.667-2.222,1.333-2.667,1.333c-1.111,0.222-2,0-2.888-0.667c-0.445-0.667-1.111-1.333-0.889-3.111l0,0l0,0
		c-0.222,0-0.222,0.223-0.444,0.445c0,0,0,0,0,0.222c-1.555,1.777-2.444,2.889-4.444,3.555c-0.222,0-0.222,0-0.222,0
		c-0.889,0.223-2.222,0.445-3.111-0.889c-0.667-1.333-0.667-2.666-0.667-2.666c-1.111,2-2.667,4.444-4.222,4.666
		c-7.333,1.111-2-19.553-1.111-21.553s2.444-7.999,4.666-8.221c1.111-0.222,2.444,1.555,2.444,2.222
		c0.667,3.111-1.555,4.667-4.666,11.776c-1.556,3.777-4.666,19.109,1.333,10.221c1.555-2.222,3.11-5.777,3.777-9.109
		c0.667-2.222,4.222-2.667,4.888-1.111c0.222,0.222,0,0.667-0.222,1.333C39.675,24.46,41.896,26.682,41.896,26.682L41.896,26.682z"
		/>
	<path fill-rule="evenodd" clip-rule="evenodd" fill="#2D8D2D" d="M83.891,20.461c-0.222-0.222-0.444-0.222-1.111,0
		c-7.332,4.444-12.887,5.11-15.775,4.666c-1.778-0.222-2.667-1.111-2.667-2.444c0-0.889,0.444-1.555,0.667-2
		s0.444-0.444,0.667-0.222c0.667,0.444,1.11,0.444,1.555,0.444c3.111,0.444,5.555-0.444,7.333-1.555
		c1.111-0.667,2-2.222,2.222-3.555c0.222-1.111-0.667-4.889-5.11-4.222c-3.111,0.444-9.776,5.555-10.666,10.888
		c-0.444,2.666,2,4.443,4.222,4.666c4.666,0.889,12.443-0.889,17.998-5.333C83.891,21.35,84.113,20.905,83.891,20.461L83.891,20.461
		z M67.449,18.017c1.111-1.555,4-4.222,5.555-4c0.667,0.222,1.556,0.889,1.556,2c-0.223,1.777-3.111,3.111-6.222,2.666h-0.222
		C67.227,18.461,67.227,18.461,67.449,18.017L67.449,18.017z"/>
	<path fill-rule="evenodd" clip-rule="evenodd" fill="#2D8D2D" d="M136.773,53.568c-1.111,0.889-2.444,1.777-4.444,1.111
		c-5.11-1.334-13.331-11.109-19.774-5.111c0.666-2.221,2.443-6.443-0.444-5.777c-3.777,0.889-9.777,10.443-17.998,11.332
		c-1.333,0-2-0.889-1.777-2.221c2.666-1.111,6.221-3.777,7.555-5.111c1.11-1.111,1.777-2.666,1.777-4
		c-0.222-2-1.556-3.555-4.444-3.109c-1.555,0.221-5.332,2.889-7.776,7.775c-0.667,1.334-0.889,3.555-1.111,4.666
		c-1.333,0.668-2.666,1.111-3.777,1.334c-0.667,0-2,0-1.778-1.777c3.333-13.555,9.999-17.332,11.999-20.22
		c1.11-1.333-0.667-7.555-3.556-3.778c0,0-5.11,6-8.443,14.22c-0.444-0.443-1.111-1.332-3.11-0.889
		c-6.222,1.334-9.777,8-10.221,11.109c-0.889,6.443,4.444,6,10.666-0.889c0,0.445,0,1.111-0.222,1.557
		c-0.222,5.332,4.888,3.109,8.887,0.889c0.667,1.777,2.444,2.666,4.222,2.666c6.222,0.223,14.665-8.443,17.998-11.332
		c0,0-2.889,6.221-3.11,6.666c-0.445,1.111-1.556,4.443,0.444,4.666c2.666,0,1.999-5.777,8.443-8
		c5.999-1.998,13.775,15.777,21.108,5.334C138.329,54.011,138.55,52.457,136.773,53.568L136.773,53.568z M97.445,43.791
		c0.444,0,1.11,0.445,1.11,1.334c0,1.555-3.776,4.889-6.221,5.998C93.223,47.347,95.667,43.791,97.445,43.791L97.445,43.791z
		 M80.558,49.791c-2.889,4-7.11,5.777-6.666,2.889c0.667-4.443,4.222-8,7.11-8.666c0.667-0.223,0.889,0,1.111,0.223
		C81.447,46.013,81.002,47.791,80.558,49.791L80.558,49.791z"/>
	<path fill-rule="evenodd" clip-rule="evenodd" fill="#2D8D2D" d="M52.117,64.455v-0.223h-0.222c0-0.221-6.443-4.887-15.553-5.998
		c1.111-2.443,2.222-5.332,3.333-8.666c0.222-0.666,0.444-1.555,0.444-2.221c0.444-2.445,0-9.555-4.888-3.334l0,0l0,0
		c-0.222,0-0.222,0.223-0.444,0.223l0,0l-0.444,0.666c-4,3.777-8.443,7.555-12.665,9.555c-0.444,0.223-1.777,0.889-2.222,0.666
		l-0.222-0.221c-0.222-0.445,0-2.223,1.333-4.889c1.111-2.445,6.222-10.443,15.998-14.443c3.333-0.889,2.888,2.888,2.888,2.888
		c0,1.555,0.667,1.334,0.667,1.334c2-0.445,6.222-9.333-3.11-7.111l0,0h-0.222c-5.555,1.555-11.11,4.666-15.776,8.666
		c-4,3.555-7.999,7.555-8.666,10.664c-0.222,1.779,0.222,3.111,1.333,4c6.221,4.889,16.22-3.555,19.997-7.109v1.332
		c-0.444,2.889-1.111,5.334-2,7.555c-0.444,0-0.666,0-1.111,0c-1.111,0.223-27.774,1.777-30.44,14.221
		c-0.444,1.334,0.222,4,3.333,4.889c8.221,2.443,19.775-4.889,20.22-5.332c5.11-3.334,8.666-6.443,11.332-11.109
		c7.999,0.666,15.998,4.443,16.22,4.443c0.222,0.223,0.444,0,0.667,0C52.117,64.677,52.117,64.455,52.117,64.455L52.117,64.455z
		 M10.79,73.787c-0.444,0-2.222-0.221-2.667-0.889c-0.222-0.223-0.222-0.443-0.222-0.666c3.11-9.555,20.664-11.555,20.886-11.555
		c0.444,0,1.111-0.221,1.777-0.221C24.121,73.121,11.011,73.787,10.79,73.787L10.79,73.787z"/>
	<path fill-rule="evenodd" clip-rule="evenodd" fill="#2D8D2D" d="M71.226,42.236c0,0-1.111-0.445-2,0
		c-0.445,0.223-0.889,0.443-1.111,0.666c-3.555,2.666-5.333,6.443-5.333,6.443s0.667-1.998,1.333-5.109
		c-0.222-1.557-1.111-2.445-2.444-2.889c-0.667-0.445-1.111-0.223-1.333,0.443c0,0-0.667,6-1.555,10.443c0,0.223,0,0.445,0,0.668
		c-1.555,1.109-2.889,2.221-4,2.221c-1.333,0.223-1.555-1.332-1.555-3.332c-0.222-2.666,0.889-5.334,2.222-8.221
		c0.444-0.445,0.444-0.891-0.444-1.334c-0.222-0.223-0.667-0.223-0.889,0s-0.444,0.223-0.444,0
		c-0.444-0.445-1.111-0.889-1.556-0.889l0,0c-0.667,0-2.222,0.223-4.222,2c-2.666,2-5.11,5.109-6.443,7.332
		c-1.555,2.889-2,4.223-1.777,5.111c0,1.555,1.777,1.998,2.222,2.221c1.333,0,2.444-0.443,3.555-1.555
		c1.555-0.889,3.777-4,4.666-4.889c0.222-0.223,0.222-0.223,0.222,0.223c0.222,0.443,0.222,1.777,0.444,2.666
		c0.222,1.777,1.777,3.111,3.111,3.111c1.111,0,2.666-1.111,4.222-2.666c-0.223,1.109-0.445,1.998,0.222,2.221
		c0.222,0.223,1.333,1.111,2,0.445l0.889-2c1.556-4,2.889-7.777,6.666-10c0.889-0.221,1.555,0.668,1.555,0.668
		C71.226,47.125,73.448,43.57,71.226,42.236L71.226,42.236z M52.562,45.791c-0.222,0.223-1.333,2.223-2,3.111
		c-1.556,1.777-3.111,3.332-4,4c-0.889,0.889-1.778,1.332-2.222,1.332c-0.667,0.223-0.889-0.666-0.445-1.332
		c0.445-1.779,1.778-4.889,4.222-7.334c1.556-1.555,2.667-2.443,3.333-2.443l0,0c0.889,0,1.111,0.445,1.333,0.889
		C52.784,44.679,52.784,45.347,52.562,45.791L52.562,45.791z"/>
	<path fill-rule="evenodd" clip-rule="evenodd" fill="#1D1D1B" d="M138.329,60.677c0-1.555,1.333-2.666,2.666-2.666
		c1.556,0,2.666,1.111,2.666,2.666c0,1.557-1.11,2.666-2.666,2.666C139.662,63.343,138.329,62.234,138.329,60.677L138.329,60.677z
		 M140.995,62.9c1.111,0,2.222-0.889,2.222-2.223c0-1.332-1.11-2.221-2.222-2.221s-2.222,0.889-2.222,2.221
		C138.773,62.011,139.883,62.9,140.995,62.9L140.995,62.9z M140.55,62.234h-0.444v-3.111h1.11c0.667,0,1.111,0.223,1.111,0.889
		c0,0.445-0.444,0.666-0.889,0.889l0.889,1.334h-0.444l-0.889-1.334h-0.444V62.234L140.55,62.234z M140.995,60.457
		c0.444,0,0.666,0,0.666-0.445s-0.222-0.445-0.666-0.445h-0.444v0.891H140.995L140.995,60.457z"/>
	<path fill-rule="evenodd" clip-rule="evenodd" fill="#1D1D1B" d="M141.883,18.683c-0.667-4.666-6.222-7.777-12.442-6.888
		c-0.889,0-2,0.222-2.889,0.667c-0.889,0.222-1.556,0-2.222-0.222c-0.667-0.444-1.334-0.889-1.556-1.555
		c-0.223-0.667-0.223-1.556,0-2.222c0.222-0.444,0.666-0.889,1.333-1.111c0.444-0.222,1.111-0.222,1.556,0s0.666,0.667,0.889,1.111
		c0.222,0.222,0.222,0.667,0,1.111c-0.223,0.444-0.444,0.667-0.667,0.667c-0.444,0.222-0.666,0.222-1.11,0
		c-0.223,0-0.223-0.222-0.444-0.444c0-0.222,0-0.444,0-0.667c0.222-0.222,0.222-0.444,0.444-0.444c0.222,0,0.444,0,0.444,0
		c0.222,0,0.444,0,0.444-0.222c0.222-0.222,0.222-0.444,0-0.444l0,0c-0.444-0.222-0.667-0.222-1.111,0s-0.667,0.444-0.889,0.667
		c0,0.444,0,0.889,0,1.333c0.222,0.444,0.444,0.667,0.889,0.889c0.444,0.222,1.111,0.222,1.556,0
		c0.444-0.222,0.889-0.444,1.11-0.889c0.223-0.667,0.223-1.333,0-2c-0.222-0.444-0.666-0.889-1.11-1.111
		c-0.889-0.445-1.556-0.445-2.223-0.223c-0.889,0.223-1.333,0.889-1.555,1.556c-0.444,0.889-0.444,1.777-0.223,2.666
		c0.444,0.889,0.889,1.556,1.777,2c0.223,0,0.667,0.222,0.89,0.222c-3.556,1.555-6.222,3.333-8.666,4.888
		c-2.444,1.777-4.666,3.111-6.222,3.111c-3.555,0-6.888-2.222-7.776-5.333c-1.111-3.777,1.11-7.777,5.11-8.888
		c2.444-0.889,4.889-0.223,6.888,1.555c0.223,0.222,0.667,0.222,0.889,0c0.445-0.222,0.223-0.667,0-1.111
		c-2.222-2-5.11-2.889-8.221-2c-4.666,1.333-7.332,6.222-5.999,10.888c0.889,3.111,3.777,5.555,7.332,6.222
		c1.111,0.444,2,1.555,2.222,2.888c0.223,0.667,0.223,1.555-0.444,2.222c-0.444,0.667-1.11,1.333-1.777,1.333
		c-1.333,0.444-2.666-0.445-3.11-1.778c0-0.444,0-1.111,0.444-1.333c0.222-0.444,0.666-0.889,1.11-0.889
		c0.445-0.222,0.667,0,1.111,0.222c0.223,0.222,0.444,0.444,0.667,0.889c0,0.222,0,0.444-0.223,0.667
		c-0.222,0.444-0.444,0.444-0.667,0.667c-0.222,0-0.443,0-0.666-0.222c-0.223,0-0.223-0.222-0.223-0.444s-0.222-0.444-0.444-0.222
		c-0.222,0-0.444,0.222-0.222,0.444c0,0.222,0.222,0.667,0.666,0.889c0.223,0.223,0.667,0.223,1.111,0.223
		c0.444-0.223,0.889-0.445,1.111-0.889c0.222-0.444,0.222-0.889,0.222-1.333c-0.222-0.444-0.444-1.111-0.889-1.333
		c-0.667-0.222-1.11-0.444-1.777-0.222c-0.667,0-1.111,0.445-1.556,1.111c-0.444,0.444-0.444,1.333-0.444,2
		c0.444,1.556,2.222,2.667,3.777,2.222c1.111,0,2-0.667,2.444-1.555c0.667-0.889,0.667-2,0.667-2.889
		c-0.223-1.111-0.89-2-1.556-2.666h0.222c2,0.222,4.222-1.333,7.11-3.333c2.444-1.556,5.11-3.333,8.666-4.889
		c1.11-0.444,2.666-0.889,3.999-1.111c5.333-0.667,10.221,2,10.888,5.777c0,0.223,0.444,0.667,0.889,0.445
		C141.661,19.35,141.883,19.128,141.883,18.683L141.883,18.683z"/>
	<path fill-rule="evenodd" clip-rule="evenodd" fill="#1D1D1B" d="M162.325,43.57c-0.444-0.223-0.889,0-1.11,0.443
		c0,0.445,0.222,0.666,0.444,0.889c3.555,1.334,5.999,4.666,5.999,8.443c0,5.111-3.999,9.109-9.11,9.109
		c-2.443,0-4.665-0.889-6.443-2.666c-1.555-1.555-2.443-3.998-2.443-6.443c0-2.443,1.11-4.889,2.888-6.666
		c1.111-1.111,4.222-2.889,7.999-4.889c4.222-1.998,9.555-5.332,9.11-10.887c-0.223-2.666-1.556-4.888-3.556-6.666
		c-2.443-2-5.999-3.11-9.332-2.888c-2.666,0.222-5.11,1.111-7.109,2.667c-0.223,0.222-0.445,0.667-0.223,1.111
		c0.444,0.222,0.889,0.444,1.111,0c1.777-1.333,3.999-2,6.221-2.222c3.111-0.444,6.222,0.667,8.443,2.444
		c1.778,1.555,2.667,3.555,2.889,5.555c0.444,3.777-2.222,6.666-7.999,9.777c-3.999,1.998-7.11,3.777-8.443,4.887
		c-1.333,1.111-2.222,2.668-2.889,4l0,0c-0.444,0.445-1.333,0.889-1.999,0.889c-0.89,0-1.777-0.223-2.444-0.666
		c-0.889-0.666-1.333-1.555-1.333-2.443c0-0.668,0.222-1.334,0.666-1.779c0.444-0.666,1.111-0.889,1.777-1.109
		c0.444,0,1.111,0.221,1.334,0.443c0.444,0.445,0.889,0.889,0.889,1.334c0,0.443-0.223,0.889-0.444,1.332
		c-0.223,0.223-0.667,0.445-1.111,0.445c-0.223,0-0.444,0-0.667-0.223c-0.443-0.223-0.443-0.443-0.443-0.889
		c0-0.223,0-0.445,0.222-0.445c0-0.221,0.222-0.443,0.444-0.443c0.222,0,0.444-0.223,0.444-0.445c0-0.221-0.223-0.221-0.444-0.221
		c-0.444,0-0.889,0.221-1.111,0.666c-0.222,0.223-0.444,0.666-0.444,1.111c0.223,0.443,0.444,0.889,0.89,1.111
		c0.222,0.443,0.888,0.666,1.333,0.443c0.666,0,1.11-0.223,1.555-0.666c0.223-0.445,0.444-1.111,0.444-1.777
		c0-0.668-0.444-1.334-1.11-1.777c-0.444-0.445-1.111-0.668-2-0.668s-1.556,0.445-2.222,1.334c-0.444,0.666-0.889,1.555-0.667,2.443
		c0,1.111,0.667,2,1.556,2.666c0.666,0.668,1.777,1.111,2.889,0.889c0.666,0,1.11-0.221,1.777-0.443
		c-0.223,0.889-0.444,1.777-0.444,2.666c0,2.889,1.11,5.555,3.11,7.555s4.666,3.111,7.332,3.111c2.889,0,5.556-1.111,7.555-3.111
		c2-2,3.111-4.666,3.111-7.555C169.213,49.125,166.325,45.125,162.325,43.57L162.325,43.57z"/>
	<polygon fill-rule="evenodd" clip-rule="evenodd" fill="#2D8D2D" points="168.991,14.461 167.88,17.128 168.769,18.461 
		168.325,19.572 168.102,20.461 168.546,20.905 170.102,21.572 170.102,21.794 169.435,22.238 168.102,22.905 165.213,22.905 
		166.325,24.905 165.213,24.683 162.325,23.794 161.436,22.238 160.103,20.017 162.103,16.017 168.991,14.461 	"/>
	<polygon fill-rule="evenodd" clip-rule="evenodd" fill="#7AAB62" points="161.214,21.572 161.214,20.239 161.88,19.128 
		162.547,18.905 163.213,18.683 162.992,17.128 165.436,16.461 168.769,14.461 165.436,14.906 163.213,13.795 161.659,11.795 
		161.214,10.906 158.993,14.906 157.214,13.573 156.104,12.24 155.66,11.573 155.437,13.128 156.104,16.461 157.214,19.128 
		157.659,20.017 158.547,20.239 160.103,20.683 161.214,21.572 	"/>
	<path fill-rule="evenodd" clip-rule="evenodd" fill="#005333" d="M159.214,14.684c0,0,1.556-3.11,2-3.11
		c0.222,0.222,1.11,2.666,3.999,3.333c2,0.444,3.111,0,3.556-0.223c-0.444,0.223-0.667,1.111-0.889,1.333
		c-0.667,1.111,0.444,2.444,0.444,2.444h0.666c0.223,0-0.666-0.444-0.889-1.111c0-0.667,1.111-2.889,1.111-2.889
		s0-0.222-0.223-0.222l0,0c0,0-2.222,0.667-4.443,0c-2.444-0.667-3.111-3.777-3.556-3.777s-0.889,1.556-1.11,2.444
		c-0.444,0.889-0.889,1.333-0.889,1.333C158.77,14.461,159.214,14.684,159.214,14.684L159.214,14.684z"/>
	<path fill-rule="evenodd" clip-rule="evenodd" fill="#005333" d="M167.88,20.683c0.444,0.667,2.222,0.889,2.222,0.889
		s-1.111-0.667-1.556-1.111s0.444-2,0.444-2h-0.666C168.325,18.461,167.658,19.794,167.88,20.683L167.88,20.683z"/>
	<path fill-rule="evenodd" clip-rule="evenodd" fill="#005333" d="M167.213,22.905c-1.111,0-2.222,0-2.222,0l0,0c0,0,0,0,0,0.222
		v0.222l0,0c0.222,0.445,0.666,1.111,0.666,1.111c0,0.445-3.555-0.444-3.777-1.999c-0.222-1.333-0.222-0.223-0.666-1.333
		c-0.444-0.889-0.889-1.333-2.444-1.333c-1.556,0.223-0.444,0.223-1.333-0.666c-0.889-1.111-1.777-6.444-2.222-6.444
		c-0.223,0,0,2,0.444,3.777c0.444,1.777,1.11,3.111,2.222,3.555c0.889,0.444,0,0,1.333,0.444c1.777,0.667,0.444,0.667,0.444,0.667
		s1.556,0.222,0.667,0.667c-0.889,0.667,0.666-0.444,0.666,0.667c0.223,2.222,5.555,2.666,5.777,2.444
		c0-0.222-1.111-1.556-1.111-1.556s0,0-0.222,0c0.666,0,1.333,0,1.999-0.222c1.556-0.222,2.667-1.333,2.667-1.333
		S168.991,22.683,167.213,22.905L167.213,22.905z"/>
	<path fill-rule="evenodd" clip-rule="evenodd" fill="#005333" d="M159.214,14.684c0,0-1.11-0.444-1.777-1.111
		c-1.556-1.111-2-2.444-2-2.444s0.444,1.556,1.556,2.444c0.889,0.889,2,1.333,2,1.333L159.214,14.684L159.214,14.684z"/>
	<path fill-rule="evenodd" clip-rule="evenodd" fill="#0F5637" d="M156.326,14.461c0.223,0.222-1.11,1.556-2.222,2.444
		c-1.333,1.111-2.444,1.555-3.333,1.111c-0.667-0.222,0,0-1.11-0.667c-1.556-0.889-0.667,0.222-0.667,0.222s-1.111-0.889-0.889,0
		c0.444,1.111,0-0.667-0.889,0c-1.556,1.333-5.777-1.777-5.556-2c0-0.444,1.778-0.444,1.778-0.444s0.666,0,0.889,0
		c0.444,0.222-1.333,0.667-1.556,0.889c-0.222,0.222,2.666,2,4,1.111c0.889-0.889,0.222-0.222,1.333-0.667
		c0.666-0.444,1.333-0.444,2.222,0.889c0.889,1.111,0.223,0.222,1.333,0.222C152.771,17.35,156.104,14.239,156.326,14.461
		L156.326,14.461z"/>
	<path fill-rule="evenodd" clip-rule="evenodd" fill="#0F5637" d="M145.438,9.351c0,0-0.666,1.555-1.333,1.777
		c-0.666,0-1.999-0.444-1.999-0.444s1.333,1.333,2.222,0.889c0.667-0.223,1.555-1.778,1.555-1.778L145.438,9.351L145.438,9.351z"/>
	<path fill-rule="evenodd" clip-rule="evenodd" fill="#0F5637" d="M144.549,15.128c0,0-0.889-0.667-1.555-1.556
		c-1.111-1.111-0.889-2.667-0.889-2.667s-0.445,1.556,0.444,2.889c0.666,0.889,1.555,1.555,1.555,1.555L144.549,15.128
		L144.549,15.128z"/>
	<path fill-rule="evenodd" clip-rule="evenodd" fill="#005333" d="M152.993,13.128c0,0,0.89,0.444,1.778,0.444
		c1.333,0.444,2.222-0.444,2.222-0.444s-1.111,1.111-2.222,0.889c-0.889,0-1.778-0.444-1.778-0.444V13.128L152.993,13.128z"/>
	<path fill-rule="evenodd" clip-rule="evenodd" fill="#C1B4D6" d="M128.33,44.236c0,0,2.444-0.445,2.889-2
		c0.666-1.555,0.889-2.223,0.889-2.223s1.333,0.668,3.11,0.223c2-0.223,3.333-2.666,3.333-2.666s1.777,3.111,4.444,1.777
		c2.888-1.111,4.443-2.666,3.555-5.11c-1.111-2.444-2.444-3.111-2.444-3.111s0.89,0,2,0c1.111,0.223,2,0,2,0
		s1.333,3.111,4.666,2.667c3.333-0.667,4.666-3.333,4.666-3.333s3.11,2.889,5.555,0s0.889-4.888,0.889-4.888l-3.11-2.889
		c0,0,2-2.889,0.666-5.11c-1.555-2.222-2.889-3.333-4.888-2.889c-1.777,0.223-3.556,0.889-3.556,0.889s0.223-2.666-2.222-3.11
		s-4.666,0-4.666,0s1.111-3.111-1.11-4.666c-2.444-1.555-4.667-3.555-8-0.222c-3.333,3.111,2,7.555,2.667,7.776
		c0.666,0.222-0.889,0.889-1.333,1.333c-0.667,0.667-1.556,0.667-1.556,0.667s-7.332,0.444-2.889,7.777l1.111,1.111l-0.889,1.111
		c0,0-1.778-0.444-2.667,0.889c-0.666,1.333-1.555,1.111-1.333,3.111l0.223,0.889c0,0-4-1.778-5.555,0.889
		c-1.334,2.888,0,4.667,0,4.667s-2,3.332,0,5.109C126.997,44.902,128.33,44.236,128.33,44.236L128.33,44.236z"/>
	<path fill-rule="evenodd" clip-rule="evenodd" fill="#896EAA" d="M163.88,25.571c-0.444-0.222-0.444-0.667-0.889-0.667
		c-0.222,0.444,0,0.889-0.222,1.555c0.222,0.222,0.222,0.444,0,0.667h-0.223c-0.223,0.444-0.667,0.667-1.333,0.889
		c-0.444,0.222-0.667-0.445-1.111-0.445s-1.333-0.222-1.556-0.667c0,0-0.222-0.222-0.222-0.444l0,0
		c-0.222-0.444-0.222-0.889-0.444-1.333c-0.223,0-0.667,0-1.111,0c0,0.444-0.889,1.111-0.444,1.333
		c0.223,0.444,0.444,0.889,0.444,1.111s0,0,0,0h-0.222l-0.889-0.444c-0.667-0.222-0.889,0.667-1.111,1.111l0,0
		c-0.444,0.667-1.111,0.667-1.556,0.889c0,0,0,0.222-0.222,0.222h-0.223c0,0.222-0.222,0-0.444,0.222
		c-0.222,0-0.889-0.222-1.11-0.444c-0.223-0.222-0.223-0.222-0.444-0.445c-0.667-0.444-0.889-0.666-0.889-1.333
		c0-0.444,0.443-0.889,0.222-1.111c0.222-0.222-0.222-0.444-0.444-0.444c-0.223,0.222-0.444,0.444-0.667,0.889c0,0,0,0-0.222,0
		v0.222c-0.444,0-0.667,0.444-0.667,0.667c-0.222-0.444,0-0.667,0-0.889c0,0,0.223,0,0-0.222c0.444-0.222,0.667-0.444,0.889-0.667
		c0-0.222,0-0.667,0.223-0.667c0,0,0,0,0-0.222v0.222c0.222,0.444,0.444-0.222,0.889-0.444c0.222-0.223,0.667-0.445,0.889-0.667
		c0-0.222-0.222-0.667-0.667-0.889c0.667-0.444,1.334-0.666,1.778-1.111c0.222,0,0.222,0.222,0.222,0.222
		c0,0.223,0.223,0.667,0.444,0.667c0.444,0.444,0.444,0.444,0.667,0.667c0.222,0,0.222,0.222,0.222,0.222l0.445,0.222
		c0.443,0,1.11,0.444,1.555,0.444c0.223,0,0.223,0,0.444,0c0.667,0,1.333-0.222,1.777-0.222c0.667-0.222,1.111-0.666,1.778-0.666
		c0.222-0.445,0.889-0.667,1.333-1.111c0-0.223,0.222-0.445,0.222-0.445l0.444-0.667l0,0c0.223-0.222,0.223-0.667,0-0.889
		c0.444-0.444-0.222-0.444,0-0.889c-0.222-0.222-0.444-0.222-0.444-0.444c-0.222,0-0.444-0.445-0.889-0.445
		c-0.222,0-0.444,0.445-0.666,0.445c-0.223,0.222-0.223,0.444-0.444,0.444c-0.667,0.444-1.556,0.222-2.444-0.222l0,0
		c-0.223-0.222-0.667-0.222-0.667-0.445c-1.11-1.111,0-2.666,0.223-3.777c-0.223-0.889-1.111-0.222-1.556-0.222
		c-0.223-0.223-0.444,0-0.889,0c-0.223,0-0.223-0.223-0.444-0.445c-0.223,0-0.223-0.222-0.444-0.444
		c-0.223,0-0.444-0.222-0.667-0.222c-0.222,0.222-0.444,0.444-0.444,0.667c-0.222,0.667-0.222,1.333-0.444,1.778
		c-0.222,0.444-0.444,0.667-0.666,1.111c-0.223,0.444-0.889,0.222-1.111,0.667c-0.223,0-0.444,0-0.444,0.222
		c0,0.444-0.444,0.222-0.444,0.444c-0.444,0-0.889-0.222-1.333-0.444l0,0c-0.223-0.222-0.223-0.444-0.444-0.667
		c-0.223-1.111,0-2,0-3.111c0.222,0,0.222-0.222,0.222-0.222c0.223,0,0.223-0.444,0.667-0.222c0-0.222,0.222-0.222,0.222-0.222
		c0.444,0.222,0.223-0.667-0.222-0.889c-0.444,0.222-0.667-0.222-0.889-0.444c0.222-0.444-0.223-0.444-0.444-0.667
		c0.222-0.889,0.222-1.778-0.223-2.667c0-0.444-0.444-0.667-0.667-1.111c-0.222,0-0.222-0.222-0.443-0.444h-0.445
		c-0.666-0.222-0.666-1.111-1.333-1.333c-0.222-0.222-0.889-0.222-0.889-0.445h-0.667c-0.222-0.222-0.666-0.222-1.11,0
		c-0.223,0.223-0.223,0.445-0.223,0.445c0.667,0.667,1.333,0.222,2,0.889l0,0c0.444,0.222,0.667,0.444,0.889,0.667
		c0.444,0.444-0.222,1.111-0.222,1.777V9.351l-0.223,0.444c-0.666,0.222-1.333,0.444-1.777,1.111c-0.444,0-0.444-0.222-0.444-0.222
		c-0.444,0-0.667,0-0.889,0c-0.444-0.223,0-0.667-0.223-1.111c0-0.444-0.222-0.889-0.666-1.333h-0.223
		c-0.222-0.222-0.444-0.444-0.444-0.889c-0.444-0.222-0.666,0-0.666,0c-0.223,0.889-1.111,0.667-1.334,1.555l0,0
		c-0.444,0.889-0.444,1.778-0.666,2.667l0.444,0.889c0.222,0.222,0.222,0.667,0.444,0.889c0.222,0.667,0.889,1.111,1.556,1.556l0,0
		l1.333,0.666h-0.223l0.667,0.445l0,0c0.666,0.222,1.333,0.222,1.555,0.889c0.223,0-0.222,0.222,0.223,0.222
		c-0.223,0.222,0,0.667-0.223,0.889c0,0.444,0,0.889,0,1.111c0,0.222-0.222,0.444-0.222,0.444c-0.222,0.444-0.444,0.222-0.667,0.667
		c-0.222,0.222-0.889,0-1.333-0.445c-0.222,0-0.222-0.444-0.444-0.666c0-0.223-0.222-0.445-0.222-0.445
		c-0.223-0.222,0-0.222-0.223-0.222c-0.222-0.889-1.111-0.222-1.111-0.889c-0.222,0-0.222,0-0.222,0c-0.444,0-0.889,0.222-1.333,0
		c0,0-0.223,0.222,0,0.222c0.666,0.222,0.222,1.111,0.444,1.556c0.444,0.667-0.223,1.555-0.223,2.222c0,0.222,0,0.444,0,0.889
		c0,0.222-0.222,0.222-0.444,0.444c-0.222,0.222-0.666,0.222-1.11,0l0,0l-0.223-0.222c-0.666-0.667-0.666-2-1.556-2.889
		c-0.222,0.445-0.444,1.111-0.444,1.556c0.223,0.444,0.223,0.889,0,1.333c0,0.667,0.667,1.333,1.111,2
		c0,0.667,0.889,0.889,1.333,1.111v0.222c-0.444,0.222-0.444,0.444-0.444,0.667c-0.444,0-0.889,0-1.11,0.222
		c-0.223,0,0,0.222,0,0.444c0.444,0,0.444,0.444,0.444,0.667c-0.223,0.666,0.222,0.889,0,1.333c0,0.222,0,0.444-0.223,0.222
		l-0.222,0.444c0,0.667-0.445,0.222-0.667,0.444c-0.444,0-0.667,0-0.889-0.222c-0.223,0-0.444-0.222-0.444-0.222
		c-0.223-0.222-0.667-0.444-0.889-0.222c-0.223,0.222,0,0.444,0,0.667c-0.223,0.444,0,0.667-0.223,0.889
		c0.444,0.666,0.444,1.333,1.111,1.777v0.222c0.222,0.444,0.222,0.889,0.444,1.333c0,0.222,0.222,0.667,0,0.667
		c-0.223,0-0.223-0.222-0.223-0.222c-0.444-0.222-0.889,0-1.11,0c-1.333-0.444-2.444-0.444-3.333-0.222
		c-0.223,0-0.667-0.222-0.889-0.222c0,0-0.223-0.222-0.223-0.444c-0.222-0.444-0.444-1.111,0-1.777c-0.222,0,0,0,0-0.222
		c-0.222,0-0.666,0.222-0.889,0.444c0,0.222,0,0.222,0,0.222c-0.222,0.445-0.667,0.445-0.889,0.889
		c-0.444,0.889-0.223,1.555,0,2.222c-0.223,0.667,0.667,1.111,0.889,1.556c0.223-0.223,0.444-0.444,0.667-0.444
		c0.666-0.222,0.889-0.667,1.555-0.889c0.444,0,0.667-0.222,1.111-0.222s0.667,0,1.111,0.222c0.222,0,0,0.223,0.222,0.223
		c0.223,0,0.444,0.222,0.444,0.444c0.223,0,0.223,0.444,0.667,0.667c0.444,0,0.222,0.223,0.222,0.443
		c-1.11-0.221-1.777,0.889-2.444,1.334c-0.444,0.445-1.11,0-1.777-0.223l0,0c-0.444-0.223-0.889-0.223-1.333,0
		c-0.222,0-0.444,0.223-0.444,0.223c0,0.223-0.222,0.445-0.222,0.445c-0.445,1.109,0.666,1.777,0.666,2.666
		c0.444,0.443,0.444,0.666,0.889,0.889c0,0,0.223,0,0.223,0.223c0.444,0,0.444,0.221,0.666,0.443l0,0
		c0.444,0.223,0.889,0.223,1.333,0.223c0.223,0.223,0.667,0,0.89,0c0.444,0,0.666-0.223,0.889-0.223
		c0.444-0.223,0.889-0.666,1.333-1.111c0.666-0.666,0.889-1.777,0.666-2.443c0.223-0.445-0.222-0.666,0-1.111
		c0,0.223,0.444,0.223,0.444,0.445c0.445,0,0.89,0.221,1.333,0.221c0.445,0,0.667,0,0.89,0c0.444,0,0.889-0.221,1.333-0.221
		s0.666-0.223,0.889-0.445c0.222-0.223,0.667-0.445,0.889-0.889c0.223,0,0.223-0.223,0.444-0.223c0-0.443,0.223-0.443,0.444-0.666
		c0.223,0.223,0.667,0.666,1.111,0.889c0,0.223,0.222,0.223,0.222,0.223c1.111,0.666,2.223,0.666,3.333,0.666
		c1.111-0.445,2-1.111,2.666-2.222l0,0c0.667-0.889,0.667-1.555,0.667-2.444c0-0.222,0-0.444-0.222-0.667
		c-0.223,0-0.445,0.222-0.667,0.222c-0.444,0.667-0.444,0.667-0.666,1.333c-0.445,0.222-0.667,0.444-1.111,0.444
		c-0.444-0.222-0.667-0.222-0.889-0.222c-0.667-0.445-1.334,0.222-1.778,0c-1.11-0.445-0.889-1.333-1.11-2
		c0-0.222,0-0.444,0.222-0.444c0-0.445,0.445-0.667,0.667-0.667c0.222-0.222,0.666-0.222,0.666-0.444
		c0.445-0.223,0.445-0.445,0.89-0.667c0.222-0.222,0.222-0.667,0.444-0.889c0-0.222,0-0.444,0-0.667c0.222,0,0.444,0,0.222,0.222
		l0.667,0.222c0.889,0.222,1.777,0.889,2.666,0.444c0.444,0.222,0.667,0,1.111,0c0,0,0,0,0,0.222
		c0.444,0.444,0.666,0.667,0.889,1.111c0.444,0.222,0.444,0.889,1.111,1.111h0.222c2,0.889,3.777,0.889,5.333-0.222
		c0.889-0.444,1.333-1.111,1.777-2c0.222-0.222,0.444-0.222,0.444-0.444l0,0c1.556,0.667,2.889,0.889,3.999,0.444
		c0.667-0.444,1.334-0.667,1.777-1.111c0.223-0.222,0.223-0.222,0.223-0.222c0.223-0.444,0.444-0.889,0.444-1.333
		C163.88,27.571,164.325,26.46,163.88,25.571L163.88,25.571z M136.55,35.57c-0.222,0.222-0.222,0.222-0.444,0.444
		c-0.444,0.445-1.11,0.222-1.777,0.222c-0.222,0.223-0.444,0.223-0.667,0.223c-0.222,0.222-0.443-0.223-0.888-0.223
		c-0.445-0.666-0.445-1.555-0.89-2.222c0-0.444,0.444-0.889,0.444-1.333h0.223c0.444-0.444,0.889-1.111,1.556-0.444
		c0.222,0,0.444,0.222,0.444,0.444c0.889,0.667,1.999,1.111,2.222,2C136.773,34.903,136.773,35.348,136.55,35.57L136.55,35.57z
		 M139.662,29.126c-0.223,0.222-0.223,0.667-0.444,0.889c-0.889,0.222-2.223,0.444-2.889-0.667c-0.223-0.444-0.223-0.667,0-1.111
		c0-0.222,0.222-0.445,0.444-0.445c0.444-0.222,1.111-0.444,1.556-0.444h0.222c-0.222,0,0,0,0,0.222
		C139.217,28.016,139.883,28.238,139.662,29.126L139.662,29.126z M144.772,27.126c-0.223,0.222-0.444,0.222-0.889,0.222
		l-0.444-0.222c0,0,0-0.222,0.222-0.444c0.223,0,0.667-0.444,1.111,0c0,0-0.223,0,0,0C144.772,26.904,144.772,26.904,144.772,27.126
		L144.772,27.126z"/>
	<path fill-rule="evenodd" clip-rule="evenodd" fill="#4A237B" d="M164.547,26.46c-0.223-1.111-0.667-2-1.777-2.666h0.222
		c0-0.222,0-0.222-0.222-0.445l0,0l0,0c-0.445-0.444-1.111-0.667-1.778-0.667l0,0l0,0c1.556-2.444,1.333-5.333-0.666-7.11
		c-0.223,0-0.223,0-0.223,0l0,0c0-0.222-0.222-0.222-0.222-0.444c-2-1.556-4.222-1.556-6.222,0l0,0l0,0
		c-0.444-0.667-1.111-1.333-2-2c0.223,0,0.223,0,0.444-0.222c0,0,0-0.222-0.222-0.444l0,0l0,0c-1.778-1.111-3.777-1.111-5.555-0.444
		l0,0h-0.223c0.889-2.222,0-4.222-2-5.555c0.223,0,0.223,0,0.223,0c0-0.222,0.222-0.222,0-0.444l0,0l0,0
		c-1.333-0.889-2.889-1.111-4.444-0.889c-1.333,0.444-2.443,1.111-3.333,2.222c0,0.444-0.222,0.667-0.444,0.889
		c-1.333,2.444-0.444,5.333,2,6.666c0,0.222,0.223,0.444,0.444,0.444l0,0l0,0c-0.444,0.445-1.11,0.889-1.333,1.556
		c-0.444,0-0.889,0-1.333,0l0,0c0-0.222-0.223-0.222-0.444-0.222l0,0l0,0c-1.333,0.444-2.444,1.333-3.111,2.444
		c-0.666,1.333-0.666,2.666-0.444,3.777c0,0.222,0.223,0.222,0.223,0.444l0,0l0,0c0,0,0,0,0,0.223c0.444,0.888,0.889,1.777,2,2.444
		l0,0l0,0c-0.223,0.222-0.223,0.444-0.445,0.667c-1.333,0-2.666,0.667-3.332,2c-0.223,0-0.223,0.223-0.223,0.445c0,0,0,0-0.222,0
		c-0.223,0.889-0.444,1.777-0.444,2.444c-0.889-0.444-1.778-0.444-2.667-0.222c-1.11,0.222-1.999,0.889-2.666,1.777
		c-0.223,0.222-0.223,0.444-0.223,0.667l0,0l0,0c-0.889,1.333-0.889,3.111,0.223,4.221l0,0c0,0,0,0,0,0.223
		c-0.223,0-0.223,0.223-0.223,0.445l0,0l0,0c-1.11,2-0.666,3.998,1.334,5.332c1.999,1.111,4.666,0.889,5.776-1.111
		c0,0,0-0.223,0.223-0.443l0,0l0,0c0.444-0.668,0.666-1.334,0.666-2.223l0,0l0,0c1.111,0.666,2.444,0.666,3.556,0.445
		c1.333-0.445,2.444-1.334,3.11-2.445l0,0l0,0c0.223,0.445,0.667,0.666,0.889,0.889c2.222,1.557,5.11,0.889,6.443-1.111l0,0l0,0
		c0-0.221,0.223-0.443,0.223-0.443c0.667-1.111,0.889-2,0.667-3.111c-0.223-1.111-1.111-2-2.223-2.667l0,0l0,0
		c0-0.222,0-0.222,0-0.222c-0.444,0-0.444-0.222-0.666,0c0,0.222,0,0.222,0,0.444h0.222l0,0c2,1.333,2.444,3.778,1.333,5.555
		c-1.333,1.777-3.332,2-5.11,0.889c-0.666-0.223-1.11-0.666-1.333-1.111c0.223-0.888,0.223-1.555,0-2.222l-0.666,0.222
		c0.222,0.223,0.222,0.667,0,1.111c-0.223-0.667-0.223-1.556-0.223-2.222c0,0.222,0,0.222,0,0.222l0.444-0.667
		c0.444,0,0.889,0,1.556-0.222c1.333-0.444,2.444-1.333,3.11-2.444l0,0l0,0l0,0l0.223-0.222l0,0c0,0,0,0,0-0.222
		c1.333,0.889,2.889,1.333,4.443,0.889l0,0l0,0c0.889,2.222,3.556,3.333,6,2.444c1.555-0.444,2.888-1.555,3.555-2.889l0,0l0,0l0,0
		c2.222,1.333,4.888,0.889,6.222-1.111c0-0.222,0-0.222,0-0.222l0,0c0.222,0,0.222-0.222,0.444-0.222
		C164.547,28.459,164.769,27.349,164.547,26.46L164.547,26.46z M154.104,15.795c1.777-1.333,4-1.333,5.777,0
		c1.777,1.777,1.777,4.222,0.222,6.221l0,0c0,0.222-0.222,0.222-0.222,0.222c0,0.223-0.223,0.223-0.223,0.444
		c-1.111,0.667-1.555,1.333-2.889,1.333c-0.889,0.222-1.999,0-2.666-0.444h-0.222c0-0.223,0-0.223,0-0.223
		c-0.223,0-0.445-0.222-0.445-0.444c-0.222,0-0.222-0.222-0.444-0.222l0,0c-0.222-0.444-0.444-0.667-0.444-0.889
		s0-0.222,0.223-0.444c0-0.222,0.222-0.222,0.222-0.444l0,0l0,0l0,0c0.223-0.222,0.223-0.222,0.444-0.444
		C154.326,18.905,154.548,17.35,154.104,15.795L154.104,15.795z M151.438,23.794c0,0,0-0.222-0.223-0.222l0,0l0,0
		c-0.222,0-0.222,0-0.222,0.222c0-0.222-0.223-0.445-0.444-0.667l0,0l0,0c0.666-0.222,1.11-0.666,1.333-0.889l0,0l0,0
		c0.444,0.444,0.666,0.889,1.11,1.111c0.223,0.223,0.444,0.445,0.89,0.667l0,0l0,0c-0.667-0.222-1.556-0.222-2.223,0
		C151.66,24.016,151.66,24.016,151.438,23.794L151.438,23.794z M145.661,12.906c1.777-0.889,3.555-0.889,5.11-0.222
		c0,0.222,0,0.222,0,0.222c-0.222,0.222,0,0.222,0,0.444l0,0l0,0c1.111,0.667,1.777,1.556,2.222,2.444c0,0,0,0.222-0.222,0.222l0,0
		l0,0v0.222c-0.223,0.222-0.223,0.444-0.223,0.667c0.223,0,0.444,0,0.444-0.222l0,0l0,0c0.223,0,0.223,0,0.223-0.222
		c0.444,1.555,0.222,2.889-0.444,4.222c-0.223,0.222-0.444,0.444-0.889,0.667v0.222c-0.444,0.222-0.667,0.444-0.889,0.444
		c-1.111,0.667-2.667,0.889-4.222,0.222c-0.667-0.222-1.111-0.667-1.556-1.111l0,0c-1.777-1.555-2.444-3.777-1.777-5.555l0,0
		C143.661,15.35,144.328,13.573,145.661,12.906L145.661,12.906L145.661,12.906z M136.55,8.462L136.55,8.462
		c0.223-0.222,0.223-0.222,0.223-0.222c0.889-1.333,2-2.222,3.333-2.444c1.11-0.222,2.222-0.222,3.11,0.445l0,0
		c-0.222,0.222,0,0.444,0,0.444l0,0l0,0c2,1.333,2.889,3.555,2.222,5.777c-0.889,0.444-1.333,0.889-1.999,1.777
		c0,0,0,0.222-0.223,0.444l0,0l0,0l0,0l-0.222,0.223c0,0-2,0.444-3.111-0.223l0,0c-0.444,0-0.666-0.222-1.11-0.444
		C136.773,12.906,135.884,10.462,136.55,8.462L136.55,8.462z M137.217,18.017v-0.222c0,0,0,0,0-0.222l0,0l0,0
		c0.223,0,0.223-0.222,0.444-0.444c0.444-0.667,1.111-1.111,1.777-1.556c1.111,0.445,2.222,0.445,3.333,0
		c-0.889,2-0.444,4,0.889,5.555l0,0v0.222c0.223,0,0,0,0.223,0v0.222l0,0l0.444,0.222l0,0v0.222l0,0h0.222l0,0
		c0.445,0.445,0.667,0.667,0.889,1.111c0-0.222,0.223-0.222,0.223-0.222l0,0l0,0l0,0l0,0c0,0-0.223,0-0.223,0.222
		c0.667,0.667,0.89,1.556,0.89,2.444c0,0.444-0.223,0.889-0.445,1.333l0,0c-0.444,0.667-1.333,1.333-2.222,1.555l0,0h-0.222
		c-0.444,0-0.889,0-1.333-0.222l0,0l0,0c-0.445,0-0.89-0.222-1.111-0.445c-0.889-0.444-1.333-1.111-1.777-2v-0.222v-0.222
		c-0.223-0.222-0.223-0.444-0.223-0.889c0.444,0.223,0.667,0.223,0.889,0.445c0.223,0,0.223,0,0.444,0
		c0.445,0.222,0.889,0.222,1.333,0.222c0.223,0,0.223,0,0.223,0l0,0l0,0c0.223,0,0.223,0,0.444,0c1.333-0.222,2.444-0.889,3.11-2
		l0,0c-0.889,1.111-1.999,1.556-3.332,1.778l0,0l0,0c-0.223,0-0.223-0.222-0.223-0.222c-0.223,0-0.444,0-0.444,0
		c-0.444,0-0.666,0-0.889,0c0-0.223-0.223-0.223-0.223-0.223c-0.222,0-0.444-0.222-0.666-0.222
		c-0.223-0.222-0.444-0.222-0.444-0.222l0,0c0-0.222,0-0.222,0-0.222v-0.222h-0.223l0,0l0,0l0,0
		C136.995,22.016,136.329,19.794,137.217,18.017L137.217,18.017z M142.772,29.126c0.223,0,0.444,0,0.444,0c0,0.222,0,0.222,0,0.444
		C142.995,29.349,142.995,29.349,142.772,29.126L142.772,29.126z M132.551,23.127c-0.667-2.222,0.444-4.666,2.444-5.333
		c0,0,0.222,0.222,0.444,0.222l0,0l0,0c0.444-0.222,0.889-0.222,1.333-0.222l0,0c-1.111,2-0.889,4.222,0.667,5.777l0,0l0.444,0.444
		l0,0l0,0c0.222,0,0.222,0.222,0.444,0.222l0,0l0,0h0.222l-0.222,0.222h0.222c-0.222,0.223-0.222,0.667-0.222,1.111h-0.223
		c-1.111,0.444-2.222,0.222-3.333-0.222l0,0h-0.222C133.662,24.905,132.996,24.238,132.551,23.127L132.551,23.127z M130.107,30.459
		v-0.222l0.223-0.222v-0.222c0-0.222,0-0.222,0-0.444l0,0l0,0c0.222,0,0.222,0,0.222-0.222c0.667-1.111,1.777-1.778,3.11-2
		c-0.443,0.889-0.222,2,0,2.667c0,0.222,0,0.222,0,0.444l0,0v0.222c0.223,0,0.223,0.222,0.223,0.444l0,0
		c0.223,0.222,0.223,0.445,0.223,0.445l0,0l0,0h-0.223c-0.223,0.222-0.223,0.222-0.444,0.222v-0.222c0,0-0.222-0.223-0.444-0.223
		l0,0l0,0l-0.222,0.223c-0.223,0-0.223,0-0.223,0s0,0-0.223,0c0,0.222,0,0.222,0,0.222c-0.222,0-0.222,0-0.222,0
		s-0.223,0-0.223,0.222l0,0c-0.222,0-0.222,0-0.222,0c0,0.222,0,0.222-0.223,0.222l0,0c-0.222,0.223-0.222,0.223-0.222,0.223
		s0,0-0.223,0.222l0,0c0,0,0,0-0.222,0.222c0-0.222,0-0.222-0.223-0.444l0,0c0-0.223,0-0.223-0.222-0.445l0,0V31.57
		c0-0.222,0-0.222,0-0.222s0-0.223-0.223-0.223v-0.222v-0.222V30.459L130.107,30.459z M124.108,34.015l0.223-0.222l0,0
		c0.889-1.555,2.888-2.667,4.666-1.778v0.223c0,0,0,0.222,0,0.444l0,0l0,0c0.222,0,0.222,0,0.444,0.222c0,0,0,0,0.222,0.223l0,0
		c0,0,0.223,0,0.223,0.222l0,0l0.222,0.222l0,0l0.223,0.222c0,0,0.222,0.222,0.222,0.444c0.667,0.889,0.667,2,0.223,3.11
		c0,0-0.223,0-0.223,0.223c0-0.223-0.222-0.223-0.444-0.444l0,0c-0.222-0.222,0-0.222-0.222-0.444h-0.444
		c-1.556-0.889-3.333-0.445-4.666,0.666C123.885,36.236,123.664,35.125,124.108,34.015L124.108,34.015z M130.774,42.236
		c-1.111,1.777-3.111,2.223-4.889,1.111c-1.555-1.111-2.222-2.889-1.777-4.445h0.223c0,0,0,0,0-0.221c0,0,0.222-0.223,0.222-0.445
		l0.667-0.443c1.11-1.111,2.666-1.333,3.777-0.667l0,0c0,0.222,0,0.444,0,0.444l0,0l0,0c0.444,0.223,0.666,0.443,0.889,0.666l0,0
		c0.222,0.223,0.222,0.445,0.444,0.445l0,0C131.218,39.792,131.218,41.125,130.774,42.236L130.774,42.236z M135.44,39.792
		c-1.333,0.221-2.666,0-3.777-0.668c-0.223-0.443-0.444-0.889-0.667-1.332l0,0l0,0c0,0,0-0.223,0.223-0.223l0,0l0,0
		c0.444-0.889,0.666-2,0.444-2.889l-0.444-1.555c0.222,0,0.222-0.223,0.444-0.223l0,0c0-0.222,0.222-0.222,0.222-0.222l0,0
		c0.223-0.222,0.223-0.222,0.444-0.222l0,0c0-0.222,0.223-0.222,0.223-0.222l0,0l0,0l0,0c0.223,0,0.223,0,0.223,0l0,0l0,0l0,0v0.222
		l0,0l0,0l0,0l0,0l0,0c0.222,0,0.222,0,0.222,0l0,0l0,0l0,0c0.223,0,0.223-0.222,0.444-0.222s0.222,0,0.444,0l0,0
		c0.223,0,0.667,0,0.889,0c0.223,0.222,0.444,0.444,0.667,0.666c0,0,0,0,0.222,0c0,0.223,0.223,0.223,0.223,0.223s0,0,0.222,0
		c0,0.222,0.223,0.222,0.444,0.222c0,0.222,0.223,0.222,0.444,0.222l0,0l0,0l0,0c0.223,0.222,0.445,0.222,0.667,0.222
		c0,0.222,0,0.222,0,0.444c0,0,0,0-0.222,0c0,0.222,0,0.444,0,0.444l0,0c-0.223,1.111,0,2.222,0.666,2.889
		C137.44,38.681,136.55,39.347,135.44,39.792L135.44,39.792z M142.55,31.126c-0.223,0-0.223,0-0.223,0
		c-0.444,0.444-0.889,0.889-1.555,1.111c-0.223,0.222-0.445,0.222-0.667,0.444c-0.223,0-0.223,0-0.444,0
		c-0.223,0.222-0.444,0.222-0.889,0.222h-0.667l0,0h-0.222l0,0l0,0v-0.222c-0.444,0-0.89,0-1.334-0.222s-0.666-0.445-0.889-0.445
		l0,0c-0.222-0.222-0.444-0.444-0.666-0.666l0,0c-0.444-0.223-0.667-0.667-0.889-1.333c-0.223-0.889-0.223-2,0.222-2.889v-0.222
		c0-0.222,0.223-0.444,0.223-0.667c1.11,0.667,2.443,0.667,3.555,0.222c0.223,0,0.223,0,0.444,0c0.223,0.667,0.889,1.333,1.777,2
		c0.445,0.222,1.111,0.445,1.778,0.667c0.222,0.444,0.444,0.889,0.889,1.111c-0.223,0.222-0.223,0.222-0.223,0.444l-0.222,0.222
		C142.55,31.126,142.55,31.126,142.55,31.126L142.55,31.126z M143.883,30.015c0-0.222,0-0.222,0-0.222c0-0.222,0-0.222,0-0.222
		c0-0.222,0-0.444,0-0.667c0.222,0,0.222,0,0.444,0c0.222-0.223,0.667-0.223,0.889-0.445c0.222-0.222,0.666-0.667,0.889-1.111
		c0,0,0-0.222,0.223-0.222c0.666-1.333,0.889-2.667,0.222-4c0.444,0.222,0.889,0.222,1.111,0.222c0.222,0,0.222,0,0.222,0
		c0,0.223,0.223,0.223,0.223,0.223c0.222,0,0.222,0,0.222,0h0.223h0.222c0.223,0,0.667-0.223,1.111-0.223l0.222,0.223
		c0,0,0,0,0.223,0c0,0.222,0,0.222,0.223,0.444c-0.889,0.222-1.556,0.889-2.223,1.555c-0.444,0.667-0.666,1.111-0.889,1.777
		c0,0.222,0,0.444-0.222,0.667c0,0.444,0,0.889,0,1.111s0,0.444,0,0.444c0,0.222,0.222,0.444,0.222,0.667s0,0.222,0,0.444
		C146.328,30.904,144.772,30.682,143.883,30.015L143.883,30.015z M157.214,29.349l-0.444,1.111
		c-0.444,1.333-1.555,2.222-2.888,2.667c-2,0.667-4.444-0.223-5.556-1.777c0,0-0.222-0.223,0-0.223
		c-0.222-0.222-0.222-0.222-0.222-0.444l-0.223-0.222c-0.444-2.444,0.667-4.888,2.889-5.777c0,0,0,0,0,0.222c0,0,0,0,0.223,0l0,0
		l0,0c0.222,0,0.444,0,0.666,0l0,0c0,0,0.223,0,0.444-0.222l0,0c0.223,0,0.444,0,0.667,0l0,0c0,0,0.222,0,0.444,0.222l0,0
		c0.889,0,1.777,0.444,2.444,0.889c0,0,0.222,0.222,0,0.222c0.222,0,0.222,0,0.444,0.222l0,0c0,0,0,0,0.222,0
		c0,0.222,0,0.222,0,0.222c0.223,0,0.223,0.222,0.223,0.222s0,0,0,0.222h0.222c0,0.222,0,0.222,0,0.222l0.223,0.222l0,0
		C157.214,28.016,157.214,28.682,157.214,29.349L157.214,29.349z M163.436,29.571c-1.333,1.778-3.333,2-5.11,0.889
		c-0.222-0.222-0.444-0.222-0.667-0.444c0.223-0.667,0.223-1.556,0-2.222c-0.222-0.222-0.222-0.444-0.444-0.667l0,0l0,0
		c-0.222-0.667-0.444-1.111-0.889-1.555c0-0.222,0.223-0.222,0.223-0.222c0-0.222,0.222-0.222,0.222-0.444
		c1.334,0,2.667-0.667,3.777-1.778c0.444,0,0.889,0.222,1.333,0.445l0,0c0,0.222,0,0.222,0,0.444l0,0l0,0
		C163.88,25.349,164.547,27.793,163.436,29.571L163.436,29.571z"/>
	<path fill-rule="evenodd" clip-rule="evenodd" fill="#FFFFFF" d="M142.106,8.24c-0.223-0.222-0.667-0.444-1.111-0.222h-0.222
		c0,0-0.223,0-0.223-0.222c-0.444,0-0.889,0.222-0.889,0.667c-0.223,0.222-0.223,0.667,0,0.889l-0.223-0.222
		c0,0.222,0.223,0.444,0.223,0.667h0.222c0,0.222,0.223,0.222,0.444,0.222h-0.222c0.444,0,0.667,0,0.889,0h-0.222
		c0.222,0,0.443,0,0.666-0.222l0.222-0.444l0,0l0,0C142.106,9.129,142.106,8.685,142.106,8.24L142.106,8.24z M141.661,9.351h-0.222
		l0,0H141.661L141.661,9.351L141.661,9.351z"/>
	<path fill-rule="evenodd" clip-rule="evenodd" fill="#FFFFFF" d="M148.549,17.794c0.222-0.444,0.889-0.444,1.111-0.889
		c0.443-0.222,0.443-0.667,0-1.111c-0.223-0.223-0.667-0.223-0.89,0c-0.444,0.444-1.11,0.444-1.333,0.889
		c-0.222,0.222-0.222,0.889,0,1.111C147.661,18.017,148.327,18.017,148.549,17.794L148.549,17.794z"/>
	<path fill-rule="evenodd" clip-rule="evenodd" fill="#FFFFFF" d="M156.548,18.461c0.444,0.222,0.889,0.444,1.333,0.444
		c0.444,0.223,0.889,0.223,1.111-0.222c0.222-0.444,0-0.889-0.445-1.111c-0.222,0-0.889,0-1.11-0.444
		c-0.223-0.222-0.667-0.222-0.889,0.222C156.326,17.572,156.326,18.239,156.548,18.461L156.548,18.461z"/>
	<path fill-rule="evenodd" clip-rule="evenodd" fill="#FFFFFF" d="M158.993,26.016c0,0.222,0,0.444,0,0.889v-0.222
		c0,0.222,0,0.222,0,0.444l0.222,0.222c0.444,0.222,0.667,0.444,1.111,0.444s0.666-0.444,0.666-0.889s-0.222-0.667-0.666-0.667
		c-0.223,0-0.223,0-0.444,0l0.444,0.222v0.222l0,0V26.46h0.222c0-0.444-0.222-0.889-0.666-0.889
		C159.659,25.349,159.214,25.571,158.993,26.016L158.993,26.016z"/>
	<path fill-rule="evenodd" clip-rule="evenodd" fill="#FFFFFF" d="M139.883,18.461L139.883,18.461l-0.222-0.222l0.444,0.444h-0.223
		c0-0.222,0-0.222,0-0.444l0,0c0-0.444-0.444-0.667-0.889-0.667c-0.222,0-0.666,0.222-0.666,0.667s0.222,0.667,0.222,0.889
		l0.223,0.222c0,0.222,0.222,0.222,0.444,0.444l0,0l-0.223-0.222c0.223,0.222,0.223,0.222,0.444,0.222
		c0.444,0,0.889-0.222,0.889-0.666C140.55,18.905,140.106,18.461,139.883,18.461L139.883,18.461z"/>
	<path fill-rule="evenodd" clip-rule="evenodd" fill="#FFFFFF" d="M133.44,19.35c0,0.222,0,0.222-0.222,0.222h0.222
		c-0.222,0-0.222,0.222-0.222,0.444l0,0c0,0.444,0,0.667,0.222,1.111c0.222,0.222,0.667,0.444,0.889,0.222
		c0.444-0.222,0.667-0.667,0.444-1.111c0,0-0.222,0-0.222-0.222l0,0v0.444l0.222-0.222l0,0c0.223-0.445,0-0.889-0.222-1.111
		C134.107,18.905,133.662,19.128,133.44,19.35L133.44,19.35z"/>
	<path fill-rule="evenodd" clip-rule="evenodd" fill="#FFFFFF" d="M140.995,35.348c0.666,0.223,1.333,0.445,2,0.223
		c0.222,0,0.444-0.445,0.444-0.889c-0.223-0.444-0.444-0.667-0.889-0.444c-0.444,0-0.89-0.222-1.111-0.222
		c-0.444-0.222-0.889,0-0.889,0.444C140.328,34.903,140.55,35.348,140.995,35.348L140.995,35.348z"/>
	<path fill-rule="evenodd" clip-rule="evenodd" fill="#FFFFFF" d="M132.329,33.792c0,0.667,0.223,1.333,0.667,1.555
		c0.223,0.223,0.666,0.223,0.889,0c0.444-0.444,0.223-0.889,0-1.111c0,0-0.223,0-0.223-0.222c0,0.222,0.223,0.222,0.223,0.222
		v-0.222v0.222c0-0.444-0.223-0.889-0.666-0.889C132.996,33.126,132.551,33.57,132.329,33.792L132.329,33.792z"/>
	<path fill-rule="evenodd" clip-rule="evenodd" fill="#FFFFFF" d="M125.885,34.237c0.444,0.222,0.889,0.222,1.333,0.222
		s0.667-0.222,0.667-0.667s-0.223-0.667-0.667-0.667c-0.222-0.223-0.444,0-0.889-0.223c-0.222-0.222-0.666,0-0.889,0.445
		C125.219,33.57,125.441,34.015,125.885,34.237L125.885,34.237z"/>
	<path fill-rule="evenodd" clip-rule="evenodd" fill="#FFFFFF" d="M126.108,38.458c0,0.443,0.444,0.666,0.889,0.666
		s0.666-0.223,0.666-0.666c0-0.445-0.222-0.666-0.666-0.666S126.108,38.013,126.108,38.458L126.108,38.458z"/>
	<path fill-rule="evenodd" clip-rule="evenodd" fill="#FFFFFF" d="M131.218,29.571c0,0.222,0.222,0.444,0.666,0.444
		c0.223,0,0.444-0.222,0.444-0.444c0-0.444-0.222-0.667-0.444-0.667C131.44,28.904,131.218,29.126,131.218,29.571L131.218,29.571z"
		/>
	<path fill-rule="evenodd" clip-rule="evenodd" fill="#4A237B" d="M150.771,23.572c0.444,0.222,1.111,0.222,1.777,0.444
		c0,0,0,0-0.222,0c0.222,0.222,0.444,0.222,0.666,0.222c0.223,0.222,0.667,0,0.667-0.222c0.223-0.444,0-0.667-0.444-0.889
		c-0.667-0.444-1.556-0.222-2.222-0.666c-0.223,0-0.667,0.222-0.667,0.444C150.104,23.349,150.327,23.572,150.771,23.572
		L150.771,23.572z"/>
	<path fill-rule="evenodd" clip-rule="evenodd" fill="#4A237B" d="M151.215,22.461c0,0.444,0,0.888,0,1.333
		c-0.222,0.222,0,0.444,0.444,0.666c0.223,0,0.444-0.222,0.667-0.444c0-0.444,0-1.111,0-1.555c0-0.223-0.223-0.667-0.444-0.667
		C151.438,21.794,151.215,22.238,151.215,22.461L151.215,22.461z"/>
	<path fill-rule="evenodd" clip-rule="evenodd" fill="#4A237B" d="M125.885,43.791c1.777,0.223,3.556,0.445,4.889-0.889
		c0.222-0.223,0.444-0.443,0.222-0.666c-0.222-0.445-0.666-0.445-0.889-0.223c-0.444,0.666-1.11,0.666-1.777,0.666
		c-0.667,0.223-1.556,0-2.444,0c-0.222,0-0.666,0.223-0.666,0.668C125.219,43.57,125.664,43.791,125.885,43.791L125.885,43.791z"/>
	<path fill-rule="evenodd" clip-rule="evenodd" fill="#4A237B" d="M131.44,39.347c2,1.111,5.11,1.111,6.444-0.889
		c0.222-0.223,0.222-0.666,0-0.666c-0.444-0.223-0.667-0.223-0.89,0c-1.11,1.555-3.555,1.332-5.11,0.666
		c-0.222-0.223-0.666,0-0.666,0.223C130.996,38.902,130.996,39.347,131.44,39.347L131.44,39.347z"/>
	<path fill-rule="evenodd" clip-rule="evenodd" fill="#4A237B" d="M145.438,35.57c-0.222,0.889-0.889,1.555-1.333,2.222
		c-1.11,0.443-2.666,0.443-3.555-0.445c-0.223-0.222-0.667,0-0.667,0.223c-0.222,0.443,0,0.666,0.223,0.889
		c1.333,1.111,3.555,1.111,5.11,0c0.444-0.889,1.333-1.555,1.333-2.888c0-0.223-0.222-0.445-0.444-0.445
		C145.661,35.125,145.438,35.348,145.438,35.57L145.438,35.57z"/>
	<path fill-rule="evenodd" clip-rule="evenodd" fill="#4A237B" d="M148.105,32.015c1.11,1.111,2.889,1.556,4.443,1.556
		c1.777-0.222,4.222-0.667,4.889-2.889c0.222-0.222-0.223-0.444-0.444-0.444c-0.223-0.222-0.667,0-0.667,0.444
		c-0.222,0.667-0.889,0.889-1.555,1.111c-1.778,0.889-4.222,0.889-5.777-0.667c-0.223-0.222-0.667-0.222-0.889,0
		C147.882,31.349,147.882,31.792,148.105,32.015L148.105,32.015z"/>
	<path fill-rule="evenodd" clip-rule="evenodd" fill="#4A237B" d="M134.551,31.792c1.777,1.111,3.777,1.111,5.555,1.111
		c1.777-0.222,3.555-1.555,3.777-3.11c0-0.444-0.223-0.667-0.444-0.889c-0.223,0-0.667,0.222-0.667,0.444
		c-0.222,1.333-1.556,2.222-2.666,2.222c-1.556,0.222-3.556,0.222-4.889-0.889c-0.222,0-0.666,0-0.889,0.222
		C134.329,31.349,134.329,31.57,134.551,31.792L134.551,31.792z"/>
	<path fill-rule="evenodd" clip-rule="evenodd" fill="#4A237B" d="M139.439,25.793c0.889,0.222,1.777,0.444,2.889,0.444
		c0.889,0,1.777-0.444,2.444-0.889c0.666-0.444,0.889-1.333,1.556-1.777c0.222-0.223,0.222-0.445,0-0.667
		c0-0.444-0.445-0.444-0.667-0.222c-0.889,0.444-0.889,1.333-1.777,1.777c-1.111,0.889-2.667,0.667-4,0.223
		c-0.444-0.223-0.666,0-0.889,0.222C138.995,25.349,138.995,25.571,139.439,25.793L139.439,25.793z"/>
	<path fill-rule="evenodd" clip-rule="evenodd" fill="#4A237B" d="M143.439,19.794c1.556,2.667,5.11,4.222,7.999,2.444
		c1.999-1.111,2.444-3.555,2.222-5.555c0-0.222-0.223-0.444-0.444-0.444c-0.444,0-0.667,0.222-0.667,0.444
		c0.223,1.111,0,2-0.222,2.889c-0.444,1.111-1.333,1.777-2.444,2c-2,0.667-4.222-0.444-5.333-2.444
		c-0.222-0.223-0.666-0.223-0.889-0.223C143.439,19.128,143.216,19.572,143.439,19.794L143.439,19.794z"/>
	<path fill-rule="evenodd" clip-rule="evenodd" fill="#4A237B" d="M138.329,14.461c1.333,0.889,3.11,0.889,4.666,0.667
		c1.11-0.889,1.777-2,2.888-2.889c0.223-0.222,0.223-0.444,0-0.667c-0.222-0.223-0.444-0.223-0.666,0
		c-1.111,0.667-1.777,1.777-2.889,2.666c-1.111-0.222-2.444,0-3.333-0.889c-0.444,0-0.666,0-0.889,0.222
		C137.884,13.795,137.884,14.239,138.329,14.461L138.329,14.461z"/>
	<path fill-rule="evenodd" clip-rule="evenodd" fill="#4A237B" d="M153.882,24.016c1.11,0.444,2.443,0.222,3.555,0.222
		c2-0.666,3.777-2,4.443-3.999c0.223-0.222,0-0.667-0.222-0.889c-0.223,0-0.667,0-0.667,0.444c-1.11,2.444-3.999,4-6.666,3.111
		c-0.222,0-0.666,0-0.889,0.222C153.437,23.572,153.66,23.794,153.882,24.016L153.882,24.016z"/>
	<path fill-rule="evenodd" clip-rule="evenodd" fill="#4A237B" d="M163.213,27.349c-0.443,1.556-1.777,3.333-3.776,2.889h-0.444
		l0.444,0.222l-0.223-0.222c-0.222-0.222-0.667-0.222-0.889-0.667c-0.222-0.222-0.667-0.222-0.889,0
		c-0.223,0.222-0.223,0.667,0.222,0.889c0,0.222,0.223,0.222,0.445,0.444l0.666,0.445h0.223h0.444
		c2.222,0.444,4.222-1.333,4.888-3.333c0.223-0.445,0-0.667-0.222-0.889C163.88,26.904,163.436,27.126,163.213,27.349
		L163.213,27.349z"/>
	<path fill-rule="evenodd" clip-rule="evenodd" fill="#4A237B" d="M130.774,36.681v-0.222h-0.223c0-0.223,0-0.223-0.222-0.223l0,0
		c-1.777-1.333-4.444-1.111-6.222,0.445c-0.223,0.222-0.223,0.444,0,0.666c0.223,0.223,0.667,0.223,0.889,0
		c1.111-1.111,3.333-1.111,4.444-0.222l0.666,0.222l-0.444-0.222l0.667-0.667c-0.223,0.222-0.223,0.667-0.444,0.888
		c0.222,0.223,0.444,0.445,0.666,0.223C130.996,37.347,130.996,37.125,130.774,36.681L130.774,36.681z"/>
	<path fill-rule="evenodd" clip-rule="evenodd" fill="#4A237B" d="M137.217,24.46c0.223,0.667-0.444,0.667-0.889,0.889
		c-0.444,0-0.444,0.444-0.444,0.667c0.222,0.444,0.444,0.444,0.666,0.444c1.111-0.222,2-0.889,1.778-1.777
		c0.222-0.445,0-0.667-0.444-0.667C137.662,24.016,137.217,24.238,137.217,24.46L137.217,24.46z"/>
	<path fill-rule="evenodd" clip-rule="evenodd" fill="#4A237B" d="M143.883,30.237c1.111,0.444,2.222,0.667,3.555,0.667
		c0.223,0,0.667-0.222,0.667-0.667c0-0.222-0.444-0.667-0.667-0.667c-1.11,0.222-2.222,0-3.11-0.444
		c-0.223-0.222-0.667,0-0.667,0.222C143.439,29.793,143.661,30.015,143.883,30.237L143.883,30.237z"/>
</g>
</svg>
