<?xml version="1.0" encoding="utf-8"?>
<!-- Generator: Adobe Illustrator 16.0.0, SVG Export Plug-In . SVG Version: 6.00 Build 0)  -->
<!DOCTYPE svg PUBLIC "-//W3C//DTD SVG 1.1//EN" "http://www.w3.org/Graphics/SVG/1.1/DTD/svg11.dtd">
<svg version="1.1" id="Layer_1" xmlns="http://www.w3.org/2000/svg" xmlns:xlink="http://www.w3.org/1999/xlink" x="0px" y="0px"
	 width="101.061px" height="129.498px" viewBox="0 0 101.061 129.498" enable-background="new 0 0 101.061 129.498"
	 xml:space="preserve">
<g>
	
		<path fill="none" stroke="#003366" stroke-width="0.9996" stroke-linecap="round" stroke-linejoin="round" stroke-miterlimit="10" d="
		M62.926,20.842c-2.301-0.65-4.299,0.3-5.949,2.849c-0.799,1.299-1.398,2.649-1.799,4.098"/>
	<path d="M68.273,10.795c-4.148-2.749-8.748-4.598-13.746-5.448c-5.397-0.95-10.745-0.649-15.993,0.85
		c-6.748,1.949-13.045,6.098-18.893,12.445c-6.847,7.397-9.696,14.844-8.446,22.341c2.149,13.345,14.194,19.192,36.136,17.593
		c6.946-0.45,13.495-2.499,19.741-6.098c8.646-4.948,13.195-11.695,13.746-20.192c0.299-3.999-0.701-7.947-3.049-11.845
		C75.52,16.693,72.32,13.495,68.273,10.795L68.273,10.795z"/>
	<path fill="#FFFFFF" d="M53.529,5.647c-4.699-0.649-9.297-0.4-13.745,0.7c-6.748,1.649-12.595,4.898-17.543,9.846
		c-6.248,6.248-8.997,13.645-8.297,22.091c0.75,8.197,5.198,14.194,13.345,17.943c5.848,2.649,12.045,3.798,18.542,3.448
		c6.747-0.35,13.145-2.299,19.192-5.797c8.947-5.198,13.645-12.645,13.994-22.391c0.4-9.446-3.848-16.644-12.693-21.642
		C62.525,7.697,58.277,6.297,53.529,5.647L53.529,5.647z"/>
	<path fill="#C27528" d="M24.49,14.544c0.3-0.85,0.7-1.349,1.25-1.499l3.898-9.846l-3.299,0.55c-2.449,0.95-4.048,2.799-4.798,5.548
		c-0.45,1.649-0.25,3.298,0.6,5.048c0.7,1.599,1.45,2.499,2.299,2.649C24.141,16.243,24.141,15.394,24.49,14.544L24.49,14.544z"/>
	<path d="M29.738,2.699l-0.4-0.1l-3.299,0.6h-0.15c-2.599,1.049-4.298,3.049-5.148,5.998c-0.45,1.749-0.25,3.548,0.65,5.448
		c0.799,1.849,1.699,2.849,2.699,2.999l0.45-0.05l0.25-0.35v-0.45c-0.25-0.649-0.25-1.299,0.05-1.999c0.25-0.6,0.55-0.95,0.899-1.1
		l0.2-0.15l0.15-0.25l3.899-9.846v-0.45L29.738,2.699L29.738,2.699z M26.29,4.398l2.149-0.35l-3.349,8.497
		c-0.6,0.25-1.049,0.899-1.399,1.849c-0.2,0.45-0.3,0.9-0.3,1.35c-0.35-0.4-0.65-0.95-0.899-1.6v-0.05
		c-0.75-1.549-0.95-3.099-0.55-4.598v0.05C22.641,6.997,24.09,5.248,26.29,4.398L26.29,4.398z"/>
	<path d="M63.725,0h-0.051l-3.299,0.15c-0.199,0-0.35,0.05-0.449,0.2L59.727,0.7c0,0.15,0.049,0.3,0.15,0.45l8.096,10.796l0.15,0.1
		l2.648,2c0.1,0.05,0.199,0.1,0.35,0.1l0.4-0.1l0.25-0.35c1.049-3.948,0.4-7.397-1.85-10.346C68.473,1.399,66.373,0.3,63.725,0
		L63.725,0z M61.576,1.35l2.049-0.1c2.248,0.25,4.049,1.149,5.297,2.799c1.85,2.449,2.449,5.298,1.85,8.447l-1.85-1.35L61.576,1.35
		L61.576,1.35z"/>
	<path fill="#A26122" d="M63.625,1.25l-2.049,0.1l7.346,9.796l1.85,1.35c0.6-3.149,0-5.998-1.85-8.447
		C67.674,2.399,65.873,1.5,63.625,1.25L63.625,1.25z"/>
	<path d="M47.731,4.348l-0.2,0.35v0.35l0.3,0.3l0.351,0.1c5.348-0.25,9.446,0.35,12.344,1.799c2.699,1.299,4.1,2.949,4.199,4.998
		c0.049,0.85-0.25,1.899-0.801,3.049l-0.049,0.45l0.299,0.35l0.4,0.1c2.648-0.5,4.148-2.549,4.447-6.197
		c0.352-4.448-2.148-7.497-7.445-9.146c-3-0.95-6.199-0.65-9.647,0.899C50.18,2.499,48.781,3.398,47.731,4.348L47.731,4.348z
		 M65.623,14.494c0.301-0.85,0.4-1.6,0.35-2.299c-0.049-2.549-1.699-4.548-4.896-6.047c-2.699-1.35-6.398-1.999-11.046-1.949
		c0.7-0.5,1.5-0.95,2.4-1.35c3.098-1.449,6.047-1.699,8.795-0.85c4.6,1.45,6.799,4.099,6.549,7.897
		C67.623,12.145,66.873,13.694,65.623,14.494L65.623,14.494z"/>
	<path fill="#C27528" d="M65.973,12.195c0.051,0.7-0.049,1.45-0.35,2.299c1.25-0.8,2-2.349,2.15-4.598
		c0.25-3.798-1.949-6.448-6.549-7.897c-2.748-0.85-5.697-0.6-8.795,0.85c-0.9,0.4-1.7,0.85-2.4,1.35
		c4.648-0.05,8.347,0.6,11.046,1.949C64.273,7.647,65.924,9.646,65.973,12.195L65.973,12.195z"/>
	<path d="M46.731,4.348c-0.699-0.899-1.749-1.699-3.099-2.449C40.884,0.45,37.835,0.05,34.486,0.75
		c-3.149,0.6-5.598,1.899-7.247,3.949c-1.25,1.549-1.949,3.099-2,4.748v0.05c-0.1,1.849,0,3.149,0.25,3.999
		c0.4,1.449,1.35,2.399,2.899,2.899l0.45-0.05l0.3-0.35v-0.4c-0.25-0.75-0.15-1.649,0.3-2.699c0.85-1.999,2.699-3.748,5.647-5.198
		c3.349-1.649,7.097-2.449,11.196-2.349c0.15,0,0.25-0.05,0.399-0.15c0.15-0.1,0.2-0.25,0.2-0.45L46.731,4.348L46.731,4.348z
		 M43.033,2.999l1.75,1.1c-3.749,0.1-7.147,0.95-10.246,2.499c-3.299,1.649-5.398,3.549-6.248,5.798h0.05
		c-0.35,0.85-0.55,1.599-0.55,2.349c-0.55-0.4-0.95-0.95-1.1-1.6c-0.25-0.75-0.3-1.949-0.25-3.599c0.1-1.449,0.7-2.799,1.749-4.048
		c1.5-1.849,3.699-3.049,6.547-3.548h0.05C37.785,1.299,40.534,1.649,43.033,2.999L43.033,2.999z"/>
	<path fill="#C27528" d="M44.782,4.098l-1.75-1.1c-2.499-1.349-5.248-1.699-8.247-1.049h-0.05c-2.849,0.5-5.048,1.699-6.547,3.548
		c-1.05,1.25-1.649,2.599-1.75,4.048c-0.05,1.649,0,2.849,0.25,3.599c0.15,0.65,0.55,1.2,1.1,1.6c0-0.75,0.2-1.5,0.55-2.349h-0.05
		c0.85-2.249,2.949-4.148,6.248-5.798C37.635,5.048,41.034,4.198,44.782,4.098L44.782,4.098z"/>
	<path d="M68.123,21.441c-1.85-1.05-4.049-1.649-6.498-1.799c-3.449-0.15-5.748,1.399-6.947,4.648
		c-0.6,1.649-0.85,3.249-0.799,4.898c-0.051,1.85,0.699,3.699,2.248,5.498c1.85,2.149,4.148,3.299,6.898,3.548
		c3.447,0.25,6.396-0.649,8.945-2.699c2.5-2.149,3.75-4.898,3.799-8.147c0.051-2.849-0.5-5.048-1.6-6.597l-1.699-1.299
		c0.35,0.5,0.5,1.1,0.5,1.799c-0.051,0.85-0.35,1.299-1,1.349C71.021,22.791,69.771,22.391,68.123,21.441L68.123,21.441z"/>
	<path d="M19.792,36.685c1.05,3.449,3.349,6.048,6.947,7.847c3.499,1.749,7.397,2.299,11.695,1.699
		c6.597-0.95,11.295-3.499,14.044-7.647c2-3.049,2.699-6.098,2.1-9.146c-0.15-1.949-0.9-3.698-2.299-5.348
		c-2.699-3.299-7.147-4.148-13.395-2.549c-1.349,0.35-3.698,1.949-6.997,4.749c-2.849,2.449-5.198,3.548-6.997,3.349
		c-1.35-0.25-2.399-1.1-3.099-2.549c-0.55-1.199-0.75-2.099-0.55-2.699l-1.5,3.398C18.893,30.837,18.893,33.786,19.792,36.685
		L19.792,36.685z"/>
	<path d="M63.225,66.724l0.4-15.694L52.93,58.626l-17.844-5.848l5.198,20.591l12.695-9.746L63.225,66.724L63.225,66.724z
		 M62.225,53.528l-0.299,11.295l-8.697-3.349l-12.295,8.747l-2.899-14.244l15.043,3.849L62.225,53.528L62.225,53.528z"/>
	<polygon fill="#CC0000" points="61.926,64.824 62.225,53.528 53.078,59.826 38.035,55.978 40.934,70.222 53.229,61.475 
		61.926,64.824 	"/>
	<path d="M39.584,17.943c0.25-0.85,0.2-1.7-0.1-2.549c-0.3-0.949-0.75-1.699-1.399-2.249c-0.65-0.5-1.25-0.649-1.899-0.45
		c-0.6,0.2-1,0.7-1.25,1.5s-0.2,1.649,0.15,2.599c0.25,0.9,0.75,1.6,1.399,2.149c0.65,0.5,1.25,0.65,1.849,0.45
		C38.984,19.242,39.384,18.742,39.584,17.943L39.584,17.943z"/>
	<path d="M58.277,16.893c1.248-0.15,1.748-1.2,1.549-3.249c-0.15-1.999-0.9-2.949-2.199-2.799c-1.25,0.1-1.799,1.149-1.6,3.199
		C56.178,16.093,56.928,17.043,58.277,16.893L58.277,16.893z"/>
	<path fill="#FFFFFF" d="M38.385,16.243c0.45-0.15,0.55-0.55,0.35-1.299c-0.25-0.75-0.6-1.049-1.049-0.899
		c-0.55,0.15-0.65,0.6-0.4,1.349C37.435,16.144,37.835,16.394,38.385,16.243L38.385,16.243z"/>
	<path fill="#FFFFFF" d="M58.426,14.194c0.4-0.05,0.551-0.4,0.5-1.05c-0.049-0.649-0.299-0.95-0.699-0.899
		c-0.449,0-0.6,0.35-0.549,1C57.727,13.895,57.977,14.194,58.426,14.194L58.426,14.194z"/>
	<path fill="#C27528" d="M21.792,28.438l-0.55-0.899c0.2,3.598,2.049,5.498,5.498,5.647l3.849-0.4
		c1.25-0.45,2.999-1.449,5.248-2.999c2.25-1.649,4.998-2.849,8.147-3.648c3.149-0.85,5.348-0.6,6.698,0.7l2.298,2.399
		c-1.149-4.898-4.248-7.147-9.296-6.697c-4.598,0.25-8.497,2.049-11.746,5.448c-1.099,1.149-2.399,1.899-3.848,2.249
		c-1.35,0.45-2.699,0.45-3.999,0C23.041,29.888,22.291,29.288,21.792,28.438L21.792,28.438z"/>
	<path fill="#C27528" d="M20.742,34.186c0.3,2.049,2.549,3.599,6.748,4.698c4.148,1.149,8.646-0.1,13.444-3.699
		c4.748-3.648,8.796-4.798,12.145-3.448c-0.398-1.2-0.949-2.199-1.649-2.949c-0.749-0.8-2.249-1.3-4.498-1.5
		c-2.299-0.25-6.397,1.599-12.295,5.448c-5.948,3.848-10.546,3.149-13.794-2.199C20.492,30.888,20.442,32.137,20.742,34.186
		L20.742,34.186z"/>
	<path fill="#C27528" d="M21.542,37.685c0.25,0.8,1.35,2.1,3.199,3.949c1.899,1.849,4.848,2.899,8.796,3.149
		c3.948,0.25,8.047-0.65,12.195-2.749c4.647-2.349,6.797-5.548,6.497-9.696c-2.948-0.45-5.747,0.3-8.446,2.299l-4.548,3.448
		c-1.299,0.9-2.849,1.55-4.698,1.949l-5.198,0.85c-1.45,0.05-2.799-0.2-4.048-0.85c-1.849-0.95-3.099-1.999-3.849-3.099
		C21.191,36.585,21.191,36.835,21.542,37.685L21.542,37.685z"/>
	<path fill="#C27528" d="M61.826,24.09c1.998,0,3.648,0.4,4.998,1.199c1.299,0.8,2.947,1.05,4.996,0.75
		c2-0.25,2.65-1.75,1.949-4.499c-0.049,1.45-0.6,2.149-1.648,2.199c-0.35,0.05-1.299-0.2-2.949-0.649l-4.348-1.75l-4.947,0.15
		c-1.701,0.55-2.85,1.549-3.4,2.999c-0.549,1.349-0.898,2.749-0.949,4.148C57.727,25.59,59.826,24.09,61.826,24.09L61.826,24.09z"/>
	<path fill="#C27528" d="M57.127,30.438l-1.25,0.45l-0.049,1.149c0.049,0.4,0.35,0.899,0.898,1.5
		c0.551,0.649,1.75,1.349,3.648,2.199c1.9,0.85,4.299,1,7.248,0.45c4.549-0.85,6.848-3.199,6.947-6.947
		c-0.65,1.049-2,1.949-3.998,2.799c-2.049,0.85-3.85,1.149-5.398,0.899l-2.498-0.55l-2-1.099
		C59.477,30.688,58.277,30.388,57.127,30.438L57.127,30.438z"/>
	<path fill="#C27528" d="M65.074,25.989c-3.6-1.449-6.848-0.1-9.746,4.049c1.998-0.7,4.697-0.35,8.146,1
		c3.398,1.349,6.848,0.6,10.346-2.149c0.75-1.149,1.049-2.349,1-3.648l-2.299,1.6C71.121,27.739,68.623,27.439,65.074,25.989
		L65.074,25.989z"/>
	<path d="M69.473,65.724l-3.6,0.05c-0.5,0.051-0.949,0.6-1.398,1.6l-0.551-0.95c-0.299-0.3-0.6-0.449-0.85-0.499h-0.1
		c-1.949,0.05-3.598,1.199-4.898,3.398c-0.648,1.1-1.199,2.299-1.6,3.648c-0.648-1.35-1.449-2.299-2.398-2.849l-4.948-0.2
		c-0.55,0.25-1,0.75-1.35,1.499l-2.049,0.15l-1.7,0.949c-0.25-0.749-0.55-1.349-1-1.849c-0.95-1.1-2.099-1.6-3.548-1.55
		c-1.3,0.05-2.499,0.6-3.599,1.649c-1.149,1.05-1.799,2.249-1.949,3.499c-0.15,1.299-0.05,2.398,0.3,3.248
		c-1.35,0.55-2.349,1.85-2.999,3.849l-1.949,0.2l-1,0.5l-0.7-2.649c-1.849-5.647-4.548-9.097-8.197-10.296
		c-2.898-0.85-5.797-0.1-8.696,2.249c-3.299,2.749-6.198,6.048-8.646,9.996L0,84.766l5.398,11.445l1.699-2.698l12.945,35.985
		l4.048-4.848l4.898-4.998l-4.348-12.845l1.6-3.749l0.85-2.349l0.3-0.85l4.298,17.043c3.998-3.898,8.646-7.547,13.895-10.946
		c5.297-3.398,9.496-5.447,12.645-6.097l-1.449,7.047l1.049,0.85c0.85,0.649,1.75,1.05,2.6,1.199c1.4,0.25,2.85-0.1,4.299-0.949
		c2.549-1.5,4.197-5.248,4.998-11.296l2.949-0.149h1.998l0.15-2.199c0.4,1.05,1.148,1.899,2.199,2.499
		c0.898,0.5,1.85,0.75,2.799,0.699l1.549-0.199l0.6,0.699c0.5,0.5,1.051,0.85,1.65,1.1c2.947,1,5.598,0.3,7.945-2.149
		c1.35-1.349,2.449-2.948,3.35-4.848c0.65-1.499,0.949-3.099,0.949-4.798c0-1.8-0.35-3.749-1.049-5.897l6.248-10.196l-1.35-1.25
		c-1.1-1.049-2.4-1.699-3.85-1.949c-2.248-0.449-4.299,0.25-6.248,2.149c-0.248-1.449-0.748-2.648-1.498-3.549
		c-1.1-1.249-2.5-1.849-4.199-1.799c-2.748,0.149-4.947,1.55-6.547,4.248l1.049-15.594l-8.195-0.7L69.473,65.724L69.473,65.724z"/>
	<path fill="#FFEC43" d="M68.422,68.123l-2.348,0.05c-0.551,0.05-1,0.699-1.35,1.849c-0.15,0.601-0.301,1.2-0.35,1.75l-0.451-1.649
		c-0.35-1.149-0.6-1.699-0.85-1.75c-1.35,0.051-2.498,1.1-3.447,3.249c-1.15,2.399-1.699,5.647-1.75,9.746
		c-0.051,4.998,0.699,8.747,2.248,11.246c1.051,1.749,2.25,2.599,3.5,2.648v0.75c0,2.549-0.4,3.898-1.25,4.048
		c-0.449,0.101-0.9-0.149-1.35-0.749l-1,4.947l1.65,0.85c1.049,0.25,1.949,0.051,2.748-0.499c2.199-1.5,3.35-5.648,3.5-12.495
		L68.422,68.123L68.422,68.123z M61.676,80.218c0.049-1.85,0.199-3.349,0.5-4.599c0.25-1.199,0.6-1.799,0.998-1.849
		c0.451-0.05,0.75,0.399,0.9,1.3l-0.25,14.794C62.275,89.564,61.576,86.365,61.676,80.218L61.676,80.218z"/>
	<path fill="#FFEC43" d="M98.26,71.871c-0.748-0.75-1.699-1.199-2.748-1.399c-1.549-0.35-2.998,0.2-4.348,1.55
		c-1.4,1.349-2.4,3.198-2.949,5.497c-0.449,1.649-0.551,3.149-0.4,4.398c0.15,1.149,0.6,2.599,1.449,4.349
		c0.551,1.249,0.6,2.349,0.15,3.198c-0.75,1.3-2.049,1.449-3.898,0.5l-1.398,5.348l1.049,0.6c3.398,1.15,5.998-0.35,7.746-4.448
		c1.1-2.599,1-5.897-0.35-9.846c-0.949-2.749-0.799-4.498,0.451-5.298c0.748-0.45,1.498-0.25,2.299,0.6L98.26,71.871L98.26,71.871z"
		/>
	<path fill="#FFEC43" d="M36.686,85.815l-1.5-6.147l-0.4,0.3c-1.1,0.85-1.849,2.799-2.199,5.848l-0.7-1.199
		c-0.6-0.8-1.25-1.05-1.899-0.75l-2.499,1.649l6.297,25.14c1.5-1.399,2.899-2.648,4.248-3.698l-3.298-13.295
		c-0.35-1.649-0.35-3.248,0-4.698c0.35-1.349,0.899-2.299,1.649-2.948L36.686,85.815L36.686,85.815z"/>
	<polygon fill="#FFEC43" points="76.27,55.777 71.871,55.428 69.473,93.163 73.721,92.963 76.27,55.777 	"/>
	<path fill="#FFEC43" d="M45.981,101.759l-3.648-24.189c-0.55,1.449-1.549,2.249-3.049,2.448l-1.5-0.05l3.949,24.59
		C43.333,103.458,44.732,102.509,45.981,101.759L45.981,101.759z"/>
	<path fill="#FFEC43" d="M37.335,72.571c-0.649,0.649-1.049,1.499-1.149,2.448c-0.1,0.9,0.1,1.649,0.6,2.3
		c0.5,0.649,1.15,0.949,2,0.899c0.799,0,1.499-0.35,2.149-1.05c0.65-0.649,1-1.449,1.149-2.399c0.1-0.899-0.1-1.699-0.55-2.349
		c-0.5-0.6-1.149-0.899-1.949-0.899C38.734,71.571,37.985,71.921,37.335,72.571L37.335,72.571z"/>
	<path fill="#FFEC43" d="M25.64,80.518c-1.399-4.349-3.298-7.197-5.748-8.446c-2.449-1.25-5.048-0.8-7.697,1.449
		c-3.149,2.549-5.848,5.647-8.197,9.396l2.749,6.147l1.949-2.999l13.194,36.936l4.349-4.748l-5.648-16.644l0.15,0.2
		c0.3,0.499,0.8,1.049,1.549,1.699l1.1,0.749l1.849-4.248h0.05C27.689,93.862,27.789,87.365,25.64,80.518L25.64,80.518z
		 M15.794,79.068c2.049-0.45,3.648,1.1,4.798,4.648c1.2,3.648,1.5,7.347,0.899,10.995l-1.099,4.898l-0.05,0.8v0.249l-6.697-19.941
		C14.094,79.868,14.844,79.318,15.794,79.068L15.794,79.068z"/>
	<path fill="#FFEC43" d="M46.531,73.87l-1.949,1.2l2.899,26.039c1.35-0.899,2.699-1.699,4.049-2.399L49.88,82.617
		c-0.25-2.249,0-3.499,0.749-3.849c0.75-0.3,1.25,0.649,1.5,2.849l1.549,16.044c1.551-0.65,2.799-1.1,3.75-1.35l-1.1-14.944
		c-0.75-7.646-2.85-10.745-6.348-9.246c-0.2,0.1-0.45,0.8-0.75,2.099l-0.399,1.85l-0.6-1.35C47.681,73.87,47.131,73.57,46.531,73.87
		L46.531,73.87z"/>
	<path fill="#FFEC43" d="M86.916,68.922c-0.65-1.149-1.6-1.648-2.949-1.599c-3.898,0.149-6.447,4.498-7.697,13.095
		c-0.75,5.147-0.6,8.847,0.5,11.195c0.799,1.85,2.049,2.699,3.748,2.499c1.35-0.15,2.449-0.649,3.299-1.55l-0.1-5.098
		c-0.75,0.649-1.4,1-2,1.05c-1.1,0.1-1.6-0.8-1.449-2.649c1.051-0.25,2.25-1.199,3.648-2.849c1.85-2.199,3-4.848,3.449-7.896
		C87.814,72.321,87.664,70.271,86.916,68.922L86.916,68.922z M82.916,72.621c0.75,0,1,0.8,0.701,2.449
		c-0.201,1.399-0.75,2.898-1.699,4.548c-0.85,1.449-1.449,2.149-1.801,2.199c0.15-2.499,0.551-4.698,1.201-6.548
		C81.867,73.57,82.367,72.671,82.916,72.621L82.916,72.621z"/>
	<path fill="#FCC13A" d="M83.617,87.715c-0.65,0.45-1.1,0.75-1.4,0.8l0.201,0.149l1.148-0.149l0.051,0.05V87.715L83.617,87.715z"/>
</g>
</svg>
