<?xml version="1.0" encoding="utf-8"?>
<!-- Generator: Adobe Illustrator 16.0.0, SVG Export Plug-In . SVG Version: 6.00 Build 0)  -->
<!DOCTYPE svg PUBLIC "-//W3C//DTD SVG 1.1//EN" "http://www.w3.org/Graphics/SVG/1.1/DTD/svg11.dtd">
<svg version="1.1" id="Layer_1" xmlns="http://www.w3.org/2000/svg" xmlns:xlink="http://www.w3.org/1999/xlink" x="0px" y="0px"
	 width="250.862px" height="236.52px" viewBox="0 0 250.862 236.52" enable-background="new 0 0 250.862 236.52"
	 xml:space="preserve">
<g>
	<g>
		<radialGradient id="SVGID_1_" cx="122.4668" cy="118.2603" r="106.0986" gradientUnits="userSpaceOnUse">
			<stop  offset="0" style="stop-color:#FAB661"/>
			<stop  offset="0.4524" style="stop-color:#F15F30"/>
			<stop  offset="0.6854" style="stop-color:#ED1C24"/>
			<stop  offset="0.8548" style="stop-color:#C81E25"/>
			<stop  offset="1" style="stop-color:#B21F24"/>
		</radialGradient>
		<path fill-rule="evenodd" clip-rule="evenodd" fill="url(#SVGID_1_)" d="M32.069,0h182.747v236.52H30.117V0H32.069L32.069,0z"/>
	</g>
	<g>
		<linearGradient id="SVGID_2_" gradientUnits="userSpaceOnUse" x1="30.1172" y1="118.2192" x2="214.8428" y2="118.2192">
			<stop  offset="0" style="stop-color:#BD832B"/>
			<stop  offset="0.028" style="stop-color:#CE9729"/>
			<stop  offset="0.0787" style="stop-color:#FACB16"/>
			<stop  offset="0.0911" style="stop-color:#FACC1D"/>
			<stop  offset="0.1049" style="stop-color:#FBCF30"/>
			<stop  offset="0.1192" style="stop-color:#FBD449"/>
			<stop  offset="0.134" style="stop-color:#FCDB69"/>
			<stop  offset="0.149" style="stop-color:#FCE58B"/>
			<stop  offset="0.1642" style="stop-color:#FCF2B4"/>
			<stop  offset="0.1685" style="stop-color:#FDF8C2"/>
			<stop  offset="0.1976" style="stop-color:#F4E7AE"/>
			<stop  offset="0.2553" style="stop-color:#E2C784"/>
			<stop  offset="0.3356" style="stop-color:#CA9B48"/>
			<stop  offset="0.382" style="stop-color:#BD832B"/>
			<stop  offset="0.5252" style="stop-color:#E3CE65"/>
			<stop  offset="0.5449" style="stop-color:#EBDA70"/>
			<stop  offset="0.691" style="stop-color:#FDF8C2"/>
			<stop  offset="0.8146" style="stop-color:#BD832B"/>
			<stop  offset="0.8764" style="stop-color:#FDF8C2"/>
			<stop  offset="0.9326" style="stop-color:#EBDA70"/>
			<stop  offset="0.9944" style="stop-color:#F4C439"/>
		</linearGradient>
		<path fill-rule="evenodd" clip-rule="evenodd" fill="url(#SVGID_2_)" d="M32.186,0h182.657v236.439H30.117V0H32.186L32.186,0z
			 M34.252,232.366h176.46V4.075H34.252V232.366z"/>
	</g>
	<g>
		<linearGradient id="SVGID_3_" gradientUnits="userSpaceOnUse" x1="3.9248" y1="172.106" x2="245.79" y2="172.106">
			<stop  offset="0" style="stop-color:#131031"/>
			<stop  offset="0.4888" style="stop-color:#0F52A0"/>
			<stop  offset="0.632" style="stop-color:#203E76"/>
			<stop  offset="0.8048" style="stop-color:#1D274F"/>
			<stop  offset="0.9325" style="stop-color:#161739"/>
			<stop  offset="1" style="stop-color:#131031"/>
		</linearGradient>
		<path fill-rule="evenodd" clip-rule="evenodd" fill="url(#SVGID_3_)" d="M3.925,211.433H245.79v-78.654H3.925V211.433z"/>
	</g>
	<g>
		<g>
			<linearGradient id="SVGID_4_" gradientUnits="userSpaceOnUse" x1="0" y1="172.3784" x2="250.8623" y2="172.3784">
				<stop  offset="0" style="stop-color:#BD832B"/>
				<stop  offset="0.028" style="stop-color:#CE9729"/>
				<stop  offset="0.0787" style="stop-color:#FACB16"/>
				<stop  offset="0.0911" style="stop-color:#FACC1D"/>
				<stop  offset="0.1049" style="stop-color:#FBCF30"/>
				<stop  offset="0.1192" style="stop-color:#FBD449"/>
				<stop  offset="0.134" style="stop-color:#FCDB69"/>
				<stop  offset="0.149" style="stop-color:#FCE58B"/>
				<stop  offset="0.1642" style="stop-color:#FCF2B4"/>
				<stop  offset="0.1685" style="stop-color:#FDF8C2"/>
				<stop  offset="0.1976" style="stop-color:#F4E7AE"/>
				<stop  offset="0.2553" style="stop-color:#E2C784"/>
				<stop  offset="0.3356" style="stop-color:#CA9B48"/>
				<stop  offset="0.382" style="stop-color:#BD832B"/>
				<stop  offset="0.5252" style="stop-color:#E3CE65"/>
				<stop  offset="0.5449" style="stop-color:#EBDA70"/>
				<stop  offset="0.691" style="stop-color:#FDF8C2"/>
				<stop  offset="0.8146" style="stop-color:#BD832B"/>
				<stop  offset="0.8764" style="stop-color:#FDF8C2"/>
				<stop  offset="0.9326" style="stop-color:#EBDA70"/>
				<stop  offset="0.9944" style="stop-color:#F4C439"/>
			</linearGradient>
			<path fill-rule="evenodd" clip-rule="evenodd" fill="url(#SVGID_4_)" d="M2.346,128.812H0v87.132h250.862v-87.132H2.346z
				 M246.157,211.537H4.701v-78.319h241.456V211.537z"/>
		</g>
	</g>
	<g>
		
			<image overflow="visible" opacity="0.75" width="198" height="159" xlink:href="BDDC26124D2A6E95.png"  transform="matrix(1 0 0 1 23.7495 4.1533)">
		</image>
		<g>
			<linearGradient id="SVGID_5_" gradientUnits="userSpaceOnUse" x1="73.5122" y1="31.0322" x2="167.8456" y2="117.6648">
				<stop  offset="0" style="stop-color:#BD832B"/>
				<stop  offset="0.028" style="stop-color:#CE9729"/>
				<stop  offset="0.0787" style="stop-color:#FACB16"/>
				<stop  offset="0.0911" style="stop-color:#FACC1D"/>
				<stop  offset="0.1049" style="stop-color:#FBCF30"/>
				<stop  offset="0.1192" style="stop-color:#FBD449"/>
				<stop  offset="0.134" style="stop-color:#FCDB69"/>
				<stop  offset="0.149" style="stop-color:#FCE58B"/>
				<stop  offset="0.1642" style="stop-color:#FCF2B4"/>
				<stop  offset="0.1685" style="stop-color:#FDF8C2"/>
				<stop  offset="0.1976" style="stop-color:#F4E7AE"/>
				<stop  offset="0.2553" style="stop-color:#E2C784"/>
				<stop  offset="0.3356" style="stop-color:#CA9B48"/>
				<stop  offset="0.382" style="stop-color:#BD832B"/>
				<stop  offset="0.5252" style="stop-color:#E3CE65"/>
				<stop  offset="0.5449" style="stop-color:#EBDA70"/>
				<stop  offset="0.691" style="stop-color:#FDF8C2"/>
				<stop  offset="0.8146" style="stop-color:#BD832B"/>
				<stop  offset="0.8764" style="stop-color:#FDF8C2"/>
				<stop  offset="0.9326" style="stop-color:#EBDA70"/>
				<stop  offset="0.9944" style="stop-color:#F4C439"/>
			</linearGradient>
			<path fill-rule="evenodd" clip-rule="evenodd" fill="url(#SVGID_5_)" d="M177.417,35.333
				c-13.975-10.58-33.427-17.218-55.034-17.218c-21.621,0-41.071,6.639-55.045,17.218C53.364,45.907,45.013,60.286,45.013,75.91
				c0,15.617,8.352,29.997,22.325,40.579c6.709,5.07,14.691,9.214,23.556,12.176c-0.152-0.092-0.304-0.192-0.455-0.282
				c27.001,10.253,61.134,1.033,61.134,1.033c2.271-0.692,4.478-1.475,6.636-2.318c7.133-2.793,13.62-6.375,19.209-10.608
				c13.978-10.582,22.325-24.962,22.325-40.579C199.742,60.286,191.395,45.907,177.417,35.333z"/>
		</g>
	</g>
	<g>
		<path fill-rule="evenodd" clip-rule="evenodd" fill="#FFFFFF" d="M71.134,38.579C58.21,48.323,50.48,61.572,50.48,75.977
			c0,14.398,7.729,27.65,20.653,37.4c12.926,9.753,30.917,15.874,50.913,15.874c19.991,0,37.984-6.121,50.906-15.874
			c12.933-9.75,20.655-23.002,20.655-37.4c0-14.405-7.723-27.654-20.655-37.398c-12.922-9.755-30.915-15.876-50.906-15.876
			C102.051,22.702,84.06,28.823,71.134,38.579L71.134,38.579z"/>
	</g>
	
		<image overflow="visible" width="597" height="509" xlink:href="BDDC26124D2A6E97.png"  transform="matrix(0.24 0 0 0.24 50.5312 23.0176)">
	</image>
	<g>
		<path fill="#242A60" d="M224.091,219.926c-2.869,0-5.197,2.316-5.197,5.179c0,2.86,2.328,5.185,5.197,5.185
			s5.183-2.324,5.183-5.185C229.273,222.243,226.96,219.926,224.091,219.926L224.091,219.926z M222.865,224.742v-1.489h1.016
			c0.725,0,1.148,0.249,1.148,0.7c0,0.582-0.324,0.777-1.254,0.789H222.865z M221.735,227.876h1.13v-2.254h0.292
			c0.655,0,0.993,0.295,1.532,1.351l0.477,0.903h1.378l-0.65-1.111c-0.581-0.965-0.707-1.111-1.178-1.279v-0.025
			c0.92-0.117,1.497-0.719,1.497-1.537c0-0.987-0.668-1.546-1.856-1.546h-2.607L221.735,227.876z M224.105,220.928
			c2.301,0,4.15,1.87,4.15,4.177c0,2.299-1.85,4.188-4.15,4.188c-2.318,0-4.175-1.889-4.175-4.188
			C219.931,222.798,221.787,220.928,224.105,220.928L224.105,220.928z"/>
	</g>
	<g>
		
			<image overflow="visible" opacity="0.5" width="244" height="73" xlink:href="BDDC26124D2A6E92.png"  transform="matrix(1 0 0 1 6.9868 141.3911)">
		</image>
		<g>
			<g>
				<path fill-rule="evenodd" clip-rule="evenodd" fill="#171744" d="M9.735,168.788c0,13.385,9.504,24.892,23.601,24.892
					l4.602-0.356c0.375,0.319,0.769,0.647,1.178,0.998c4.976,4.228,11.79,10.016,18.171,10.016c4.108,0,9.146-2.091,12.23-4.748
					c-7.678-0.511-13.581-6.253-18.759-11.292l-0.014-0.016c5.678-4.812,8.564-12.303,8.564-19.63c0-6.48-2.522-13.236-7.123-17.845
					c-4.676-4.677-10.496-6.555-17.053-6.555C20.599,144.251,9.735,154.184,9.735,168.788L9.735,168.788z M23.263,165.708
					c0,7.614,2.661,20.848,12.595,20.848c7.985,0,10.138-7.837,10.138-14.311c0-4.312-0.783-8.999-2.438-12.952
					c-1.867-4.391-4.395-7.908-9.643-7.908C25.712,151.384,23.263,158.79,23.263,165.708L23.263,165.708z M217.929,183.35
					c0,0.343,0,0.688-0.014,1.038c-0.038,2.786-0.081,5.643,2.503,7.272v0.171h-15.955v-0.171c2.578-1.63,2.541-4.494,2.496-7.288
					c0-0.34-0.009-0.684-0.009-1.022v-22.085c0-0.336,0.009-0.674,0.009-1.017c0.045-2.788,0.082-5.646-2.496-7.282v-0.182h17.567
					c0.116,0,0.247,0,0.364,0c0.115,0,0.238,0,0.354,0c2.591,0,4.787,0.055,7.233,1.363c3.501,1.898,5.281,5.04,5.281,9.027
					c0,4.445-3.149,7.709-7.068,9.371l7.068,11.811c1.598,2.675,3.317,5.17,5.692,7.127l-8.189,0.524
					c-0.523,0.034-1.018,0.051-1.474,0.051c-3.009,0-4.673-0.829-6.478-4.018l-6.886-12.942V183.35z M111.877,174.503h8.062
					l-4.152-11.696L111.877,174.503z M217.929,171.954c3.678-0.655,6.407-3.8,6.407-7.538c0-1.908-0.77-3.926-2.378-5.049
					c-1.001-0.709-2.241-0.83-3.437-0.83h-0.593V171.954z M196.729,152.785h-20.765v0.182c2.59,1.57,2.545,4.423,2.501,7.215
					c-0.003,0.345-0.003,0.691-0.003,1.037v22.191c0,0.336,0,0.689,0.003,1.034c0.04,2.669,0.085,5.369-2.213,7.021
					c-1.249-0.989-2.294-2.34-3.198-3.778l-12.035-19.063l13.11-15.657v-0.182h-14.538v0.182c1.119,0.649,2.382,1.654,2.382,3.194
					c0,1.485-1.275,3.007-2.281,4.202c-0.164,0.184-0.317,0.376-0.459,0.545l-7.42,9.449v-9.092c0-0.336-0.008-0.679-0.011-1.029
					c-0.044-2.781-0.083-5.634,2.515-7.27v-0.182h-15.981v0.182c2.588,1.636,2.549,4.438,2.508,7.249
					c-0.003,0.353-0.014,0.704-0.014,1.05v22.085c0,0.339,0.011,0.683,0.014,1.032c0.033,2.452,0.074,4.961-1.686,6.639
					c-2.497-2.461-3.021-3.854-4.087-6.723c0-0.016-0.015-0.03-0.015-0.045c-0.104-0.285-0.217-0.584-0.334-0.903l-11.217-30.565
					h-14.544v0.182c1.193,0.763,2.254,1.837,2.254,3.43c0,0.945-0.53,2.482-0.954,3.695c-0.138,0.398-0.263,0.766-0.355,1.059
					l-8.181,23.688c-0.994,2.84-1.747,4.521-3.688,6.432c-2.033-1.674-1.995-4.311-1.96-6.887c0-0.345,0.013-0.693,0.013-1.032
					v-22.085c0-0.338-0.013-0.681-0.013-1.029c-0.04-2.783-0.08-5.644,2.509-7.27v-0.182H82.727v0.182
					c2.589,1.626,2.546,4.486,2.503,7.27c0,0.349,0,0.691,0,1.029v14.253c0,3.972-0.423,10.327-5.817,10.327
					c-1.484,0-2.973-0.66-3.858-1.838c-1.326-1.83-1.318-3.901-1.307-6.047v-16.695c0-0.336-0.003-0.681-0.012-1.023
					c-0.042-2.787-0.082-5.64,2.509-7.275v-0.182H60.949v0.182c2.585,1.636,2.55,4.488,2.502,7.275c0,0.345-0.012,0.688-0.012,1.023
					v18.707c0,3.611,0.176,6.523,2.796,9.25c2.317,2.378,5.456,3.38,8.661,3.38c4.387,0,8.015-2.198,10.333-5.57v4.8h24.562v-0.171
					c-0.061-0.057-0.129-0.109-0.202-0.169c-0.988-0.823-1.925-1.595-1.925-3.163c0-1.233,0.644-3.083,1.065-4.264l1.426-4.034
					h11.75l1.956,5.756c0,0.009,0.004,0.024,0.012,0.029c0.348,0.916,0.461,1.229,0.461,2.226c0,1.901-1.068,2.731-2.429,3.619
					v0.171h32.412v-0.171c-2.598-1.63-2.559-4.494-2.515-7.283c0.003-0.343,0.011-0.688,0.011-1.027v-8.903l6.178,10.623
					c3.86,6.67,4.789,6.762,17.974,6.762c0.18,0,0.362,0,0.546,0h25.748l2.375-8.957h-0.296c-2.254,2.729-5.34,3.262-8.666,3.262
					c-2.078,0-4.27-0.114-6.236-0.891v-11.156h1.967c0.172,0,0.359,0,0.554,0l0.013-0.008c0.185,0,0.373,0,0.56,0
					c1.922,0,3.944,0.168,4.632,2.147h0.287v-8.309h-0.287c-0.531,0.233-1.37,0.292-2.203,0.292h-5.521v-9.617h1.901
					c0.254,0,0.508,0,0.77,0c0.263-0.006,0.526-0.006,0.791-0.006c2.477,0,5.014,0.2,6.338,2.497h0.179v-8.601h-0.179
					C198.585,152.785,197.628,152.785,196.729,152.785L196.729,152.785z"/>
			</g>
		</g>
	</g>
	<g>
		<path fill-rule="evenodd" clip-rule="evenodd" fill="#FFFFFF" d="M8.062,168.298c0,13.383,9.499,24.888,23.599,24.888l4.603-0.354
			c0.382,0.321,0.771,0.648,1.177,0.994c4.979,4.232,11.793,10.021,18.174,10.021c4.112,0,9.146-2.094,12.234-4.751
			c-7.683-0.507-13.581-6.253-18.765-11.295l-0.009-0.016c5.677-4.809,8.563-12.298,8.563-19.63c0-6.479-2.522-13.238-7.122-17.842
			c-4.677-4.68-10.497-6.555-17.055-6.555C18.928,143.759,8.062,153.695,8.062,168.298L8.062,168.298z M21.592,165.212
			c0,7.613,2.659,20.853,12.589,20.853c7.985,0,10.139-7.841,10.139-14.313c0-4.311-0.782-8.996-2.439-12.949
			c-1.861-4.39-4.394-7.91-9.641-7.91C24.037,150.892,21.592,158.297,21.592,165.212L21.592,165.212z M216.255,182.861
			c0,0.342-0.003,0.684-0.011,1.033c-0.041,2.787-0.081,5.646,2.503,7.273v0.171h-15.961v-0.171
			c2.579-1.628,2.541-4.493,2.502-7.287c-0.004-0.346-0.015-0.686-0.015-1.02v-22.087c0-0.335,0.011-0.677,0.015-1.015
			c0.039-2.791,0.077-5.652-2.502-7.285v-0.182h17.569c0.118,0,0.25,0,0.369,0c0.117,0,0.236,0,0.352,0
			c2.588,0,4.788,0.055,7.233,1.361c3.502,1.9,5.279,5.042,5.279,9.029c0,4.443-3.151,7.706-7.067,9.371l7.067,11.811
			c1.599,2.673,3.315,5.169,5.69,7.128l-8.185,0.524c-0.523,0.032-1.021,0.051-1.476,0.051c-3.008,0-4.676-0.831-6.48-4.019
			l-6.884-12.942V182.861z M110.209,174.011h8.055l-4.147-11.693L110.209,174.011z M216.255,171.46
			c3.676-0.654,6.408-3.799,6.408-7.534c0-1.909-0.772-3.926-2.378-5.052c-1.002-0.709-2.245-0.83-3.436-0.83h-0.595V171.46z
			 M195.06,152.292h-20.77v0.182c2.588,1.57,2.549,4.422,2.501,7.214c-0.005,0.341-0.005,0.695-0.005,1.04v22.186
			c0,0.34,0,0.692,0.005,1.04c0.044,2.667,0.087,5.368-2.213,7.02c-1.245-0.993-2.295-2.341-3.195-3.781l-12.035-19.063
			l13.112-15.654v-0.182h-14.543v0.182c1.126,0.646,2.386,1.656,2.386,3.194c0,1.484-1.279,3.007-2.283,4.202
			c-0.163,0.186-0.319,0.376-0.461,0.546l-7.417,9.45v-9.093c0-0.335-0.01-0.677-0.013-1.029c-0.045-2.782-0.082-5.638,2.515-7.271
			v-0.182h-15.979v0.182c2.589,1.633,2.546,4.436,2.508,7.249c-0.003,0.351-0.014,0.703-0.014,1.051v22.087
			c0,0.334,0.011,0.68,0.014,1.029c0.033,2.451,0.07,4.961-1.689,6.639c-2.496-2.457-3.014-3.854-4.086-6.725
			c0-0.013-0.011-0.028-0.014-0.043c-0.105-0.284-0.213-0.584-0.336-0.9l-11.212-30.568h-14.547v0.182
			c1.187,0.764,2.257,1.834,2.257,3.428c0,0.944-0.535,2.482-0.954,3.695c-0.144,0.403-0.265,0.771-0.353,1.059l-8.185,23.684
			c-1.002,2.846-1.748,4.527-3.693,6.436c-2.032-1.67-1.989-4.312-1.955-6.885c0-0.346,0.012-0.695,0.012-1.029v-22.087
			c0-0.341-0.012-0.683-0.012-1.029c-0.043-2.784-0.082-5.642,2.509-7.271v-0.182H81.053v0.182c2.591,1.629,2.549,4.486,2.509,7.271
			c-0.007,0.347-0.01,0.688-0.01,1.029v14.253c0,3.969-0.419,10.328-5.816,10.328c-1.48,0-2.97-0.663-3.858-1.84
			c-1.321-1.832-1.315-3.9-1.307-6.045v-16.696c0-0.335-0.002-0.683-0.009-1.024c-0.04-2.787-0.083-5.643,2.504-7.275v-0.182H59.277
			v0.182c2.585,1.633,2.549,4.488,2.502,7.275c-0.003,0.348-0.012,0.689-0.012,1.024v18.706c0,3.613,0.176,6.524,2.795,9.252
			c2.315,2.373,5.455,3.377,8.66,3.377c4.389,0,8.016-2.195,10.329-5.571v4.801h24.568v-0.171c-0.063-0.055-0.128-0.108-0.206-0.171
			c-0.985-0.82-1.926-1.591-1.926-3.157c0-1.238,0.639-3.086,1.066-4.266l1.42-4.038h11.756l1.96,5.755
			c0,0.014,0.006,0.025,0.009,0.034c0.35,0.915,0.464,1.226,0.464,2.225c0,1.901-1.071,2.731-2.433,3.618v0.171h32.413v-0.171
			c-2.597-1.628-2.56-4.493-2.515-7.282c0.003-0.343,0.013-0.69,0.013-1.024v-8.906l6.176,10.623
			c3.863,6.672,4.787,6.761,17.973,6.761c0.181,0,0.362,0,0.548,0h25.75l2.372-8.952h-0.295c-2.253,2.725-5.343,3.258-8.669,3.258
			c-2.073,0-4.269-0.114-6.235-0.891v-11.159h1.967c0.175,0,0.361,0,0.551,0l0.02-0.002c0.183,0,0.369,0,0.555,0
			c1.925,0,3.946,0.165,4.633,2.144h0.292v-8.309h-0.292c-0.53,0.234-1.369,0.293-2.201,0.293h-5.523v-9.618h1.901
			c0.253,0,0.508,0,0.772-0.003c0.26-0.002,0.524-0.002,0.787-0.002c2.478,0,5.015,0.2,6.337,2.5h0.18v-8.606h-0.18
			C196.91,152.292,195.956,152.292,195.06,152.292L195.06,152.292z"/>
	</g>
</g>
</svg>
