<?xml version="1.0" encoding="utf-8"?>
<!-- Generator: Adobe Illustrator 16.0.0, SVG Export Plug-In . SVG Version: 6.00 Build 0)  -->
<!DOCTYPE svg PUBLIC "-//W3C//DTD SVG 1.1//EN" "http://www.w3.org/Graphics/SVG/1.1/DTD/svg11.dtd">
<svg version="1.1" id="Layer_1" xmlns="http://www.w3.org/2000/svg" xmlns:xlink="http://www.w3.org/1999/xlink" x="0px" y="0px"
	 width="175.527px" height="187.174px" viewBox="0 0 175.527 187.174" enable-background="new 0 0 175.527 187.174"
	 xml:space="preserve">
<g>
	<path fill-rule="evenodd" clip-rule="evenodd" fill="#1D1D1B" d="M72.854,64.5c1.443,0.37,4.085,3.883,4.074,4.727
		c0.048,1.878-3.335,5.252-4.902,6.019c-2.291,0.902-1.845-0.811-1.845-0.811c0.086-0.465,0.483-0.896,0.345-1.362
		c-0.342-0.91-2.333-1.473-3.174-1.345c-0.379,0.069-0.638,0.448-1.052,0.518c-0.45,0.112-0.614,0.005-0.632-0.468
		c0.058-0.627,0.636-0.931,1.218-1.344c1.259-0.879,2.656-1.535,3.881-2.518c-0.028-0.488-0.354-0.882-0.828-1
		c-1.407-0.153-2.656,0.156-3.829,0.949c0,0-1.296-0.621,0-1.276l0,0l5.916-2.087l0,0C72.026,64.5,72.204,64.351,72.854,64.5
		L72.854,64.5L72.854,64.5L72.854,64.5z"/>
	<path fill-rule="evenodd" clip-rule="evenodd" fill="#1D1D1B" d="M25.131,178.653c4.14-0.173,10.729-1.225,10.78-13.454
		c0.018-13.954-9.555-14.868-18.128-14.868C9.245,150.331,0,151.211,0,165.199c0,11.057,5.347,13.472,9.521,14.299
		c1.414,0.294,3.001,0.518,3.829,0.673c4.416,0.725,6.158,1.173,15.489,3.036l0,0l19.302,3.967l0,0
		c1.293-0.017,2.587-0.379,3.415-1.346l0,0l2.726-2.311L25.131,178.653L25.131,178.653L25.131,178.653z M11.914,175.452
		c-1.293-0.88-2.466-2.001-3.174-3.829c-1.302-3.434-1.012-7.266-0.382-10.894c0.596-3.435,3.377-5.545,5.143-5.924
		c3.454-0.74,5.993-0.743,9.125,0c3.112,0.739,4.604,3.355,5.105,5.709c0.655,3.691,0.983,7.607-0.345,11.108
		c-0.708,1.828-1.88,2.949-3.174,3.829C21.839,177.066,14.085,176.899,11.914,175.452L11.914,175.452L11.914,175.452L11.914,175.452
		z"/>
	<path fill-rule="evenodd" clip-rule="evenodd" fill="#1D1D1B" d="M81.199,155.604h-6.141l-11.504,22.198h5.761l2.829-6.14h9.867
		l1.776,4.208l0,0c0.923,2.193,3.417,1.932,4.346,1.932l0,0h3.674L81.199,155.604L81.199,155.604L81.199,155.604z M73.872,167.879
		l3.312-7.296l3.122,7.296H73.872L73.872,167.879L73.872,167.879z"/>
	<path fill-rule="evenodd" clip-rule="evenodd" fill="#1D1D1B" d="M159.186,168.425c5.175-0.311,7.642-1.9,7.452-6.571
		c-0.149-3.654-3.335-6.192-7.4-6.192l0,0h-16.473v22.269h6.899v-17.974h8.486l0,0c1.432,0,2.07,1.069,2.07,2.708
		s-0.587,2.708-2.19,2.691l0,0h-7.469l7.469,11.091l0,0c1.615,2.171,1.943,1.908,4.364,2.069l0,0l5.122-0.034L159.186,168.425
		L159.186,168.425L159.186,168.425z"/>
	<path fill-rule="evenodd" clip-rule="evenodd" fill="#1D1D1B" d="M63.84,155.608h-6.555v16.541l0,0c0,2.829-2.863,3.019-5.52,3.019
		c-2.415,0-5.52-0.189-5.52-3.019l0,0v-16.541h-6.588v14.247l0,0c0,9.332,5.933,9.314,12.125,9.366
		c6.175-0.052,12.057-0.034,12.057-9.366l0,0V155.608L63.84,155.608L63.84,155.608z"/>
	<polygon fill-rule="evenodd" clip-rule="evenodd" fill="#1D1D1B" points="126.063,168.689 138.947,168.689 138.947,164.688 
		126.063,164.688 126.063,159.928 139.758,159.928 139.758,155.633 119.646,155.633 119.646,177.935 140.603,177.935 
		140.603,173.847 126.063,173.847 126.063,168.689 126.063,168.689 	"/>
	<path fill-rule="evenodd" clip-rule="evenodd" fill="#1D1D1B" d="M116.512,155.602h-6.02l-9.952,10.798l8.021,9.383l0,0
		c0.957,1.102,2.067,2.122,4.45,2.122l0,0h5.105l-10.643-12.471L116.512,155.602L116.512,155.602L116.512,155.602z"/>
	<polygon fill-rule="evenodd" clip-rule="evenodd" fill="#1D1D1B" points="93.383,177.904 100.111,177.904 100.111,155.602 
		93.383,155.602 93.383,177.904 93.383,177.904 	"/>
	<path fill-rule="evenodd" clip-rule="evenodd" fill="#1D1D1B" d="M153.939,27.044c-2.124-7.786-3.655-15.015-22.646-21.287
		c-19.437-5.818-65.916-9.09-94.374-0.579C26.817,8.2,17.279,11.044,13.168,26.752c-7.092,27.096-6.631,71.769,1.059,91.93
		c2.388,6.261,6.148,14.774,27.702,18.693c10.273,1.868,14.72,2.401,23.492,2.695c2.369,0.08,3.425-1.413,3.816-2.776l0,0
		l5.912-20.578l0,0c-1.458-0.424-2.854-1.028-4.212-1.728c-13.601-7.004-14.305-24.03-14.333-39.446c0-0.46,0-0.919,0.003-1.378
		c-0.88,1.57-1.587,3.226-2.225,4.933c-4.82,13.925-3.628,26.762-0.67,35.539c0.191,0.567,0.398,1.12,0.532,1.683
		c-0.983,0.053-1.932-0.12-2.915-0.258c-3.777-0.587-7.555-1.467-11.194-2.795c-7.832-2.987-8.414-5.522-9.039-8.176
		c-1.172-4.984-0.466-10.28,1.001-15.178c1.586-5.123,4.467-9.884,7.883-14.109c-1.92-0.795-3.795-1.7-5.628-2.747
		c-13.63-7.794-20.503-21.956-17.65-31.517c1.861-6.236,7.816-11.521,18.518-9.979l0,0l19.025,2.743l0,0
		c0.793,0.104,1.604,0.138,2.363-0.138c0.707-0.293,1.052-1,1.241-1.708c-0.12-2.173-0.293-4.398,0.242-6.537
		c0.155-0.674,0.465-1.346,0.983-1.76c0.552-0.466,1.294-0.639,1.949-0.88c1.69-0.518,3.467-0.621,5.227-0.879
		c6.468-0.88,13.005-1.069,19.525-0.932c8.255,0.152,16.493,0.852,24.568,2.392c1.477,0.282,1.656,0.963,1.528,2.264
		c-0.179,1.813-0.456,2.262-1.396,2.33l0,0l-23.739,1.698l0,0c-1.748,0.125-2.072,1.485-2.027,2.86
		c0.064,1.978,0.331,2.333,2.359,2.687c10.401,1.811,21.094,2.397,31.617,1.242c5.437-0.6,10.828-1.644,16.188-2.843
		c8.156-1.825,15.997,1.767,15.997,12.398c0,0.604,0,1.207-0.121,1.846c-0.31,0.068-0.345-0.311-0.482-0.535
		c-0.621-1.07-1.466-1.984-2.449-2.76c-5.422-4.386-18.383-4.656-29.133-3.001l0,0l-21.733,3.346l0,0
		c-5.416,0.828-10.936,0.897-16.456,0.828c-6.855-0.125-13.724-0.733-20.556-1.734c-2.181-0.319-4.518-0.346-6.782,0.268
		c-7.817,2.12-9.186,8.094-8.279,13.557c0.914,5.506,4.142,8.48,4.208,8.417c5.295-5.036,12.057-8.59,19.232-10.453
		C75.356,54.45,82.756,54.157,90,54.967l0,0l1.294,0.242l0,0c0.172,1.189,0.345,2.483,0,3.708c-0.207,0.776-0.983,1.242-1.587,1.76
		c-1,0.828-2.208,1.431-3.174,2.311c-5.533,5.034-5.431,7.555-5.014,9.854l0,0l1.392,7.669l0,0c0.312,1.6,0.128,3.181-3.847,3.416
		c-0.88,0.052-1.932-0.431-2.587,0.225c-0.293,0.293-0.293,0.724-0.121,1.104c0.086,0.19,0.293,0.345,0.5,0.431
		c0.225,0.104,0.5,0.104,0.793,0.155c1.086,0.138,2.173,0.086,3.226-0.155c0.431,0.069,0.828,0.293,1.069,0.655
		c0.241,0.345,0.224,0.759,0.293,1.173c0.138,0.88,0.138,1.828-0.155,2.69c-0.069,0.242-0.138,0.483-0.362,0.656
		c-0.138,0.104-0.293,0.172-0.466,0.224c-1.345-0.034-2.708,0.069-4.07,0.242c-1.708,0.172-3.364,0.759-5.054,0.414
		c-0.569-0.121-1.052-0.293-1.483-0.656c-0.344-0.293-0.5-0.759-0.344-1.172c1.172-1.362,2.225-2.881,3-4.52
		c0.397-0.758,0.725-1.535,0.966-2.346c0.155-0.5,0.466-1.121,0.155-1.586c-0.172-0.328-0.655-0.362-1-0.293
		c-0.293,0.052-0.586,0.224-0.862,0.345c-1.38,1.862-3.14,3.449-5.088,4.691c-1.035,0.69-2.536,0.776-3.105,1.88
		c-0.172,0.311-0.104,0.707,0.052,1.018c1.38,0.638,2.674,1.5,3.64,2.639c0.655,0.776,0.776,1.863,1.328,2.708
		c0.138,0.155,0.224,0.345,0.397,0.448c0.328,0.138,0.656-0.104,0.896-0.293c0.432-0.38,0.794-0.76,1.294-0.88
		c0.293-0.087,0.621-0.052,0.914,0c1.362,0.068,2.656,0.362,3.846,0.914c1.328-0.139,2.553-0.776,3.915-0.846
		c0.604-0.051,1.346-0.051,1.76,0.414c0.19,0.276,0.293,0.587,0.311,0.88c0.121,0.828-0.345,1.569-0.414,2.363
		c0.362,1.914,0.689,3.863,0.604,5.83c-0.071,2.559-1.304,3.238-2.536,4.156c-0.949,0.707-2.191,0.949-2.95,1.829
		c-0.241,0.241-0.362,0.586-0.241,0.879c0.172,0.466,0.586,0.776,0.896,1.156c1.715,1.847,4.912,4.112,9.383,5.019
		c1.19,0.242,2.466,0.018,3.657,0.312l0,0l5.407,19.824l0,0c0.889,3.259,2.807,3.946,5.235,3.874
		c6.416-0.189,12.78-0.793,19.111-1.862c26.675-4.7,30.19-14.451,32.872-24.533C159.818,91.119,159.928,48.998,153.939,27.044
		L153.939,27.044L153.939,27.044L153.939,27.044z M110.621,103.838c-3.654,12.638-12.141,12.161-12.208,12.219
		c1.323-1.135,2.411-2.479,3.349-3.917c3.83-5.881,7.271-16.64,6.19-34.652c-0.081-1.364-0.187-2.727-0.312-4.087
		c0.932,2.467,1.76,4.985,2.363,7.538C112.733,91.734,112.41,97.652,110.621,103.838L110.621,103.838L110.621,103.838
		L110.621,103.838z M136.114,102.421c-0.084,2.795-0.295,5.655-4.343,8.598c-3.333,2.422-7.539,3.559-11.752,4.593
		c-0.914,0.225-1.845,0.466-2.811,0.448c0.005,0.195,3.715-10.942,1.494-24.54c-0.612-3.75-3.123-11.919-5.158-16.699
		c-2.394-5.623-5.422-10.99-9.031-16.008c0.069-0.104,12.178,6.761,16.921,11.539C133.254,81.955,136.364,94.093,136.114,102.421
		L136.114,102.421L136.114,102.421L136.114,102.421z"/>
	<path fill-rule="evenodd" clip-rule="evenodd" fill="#1D1D1B" d="M174.689,174.421c-0.559-0.556-1.234-0.834-2.027-0.834
		c-0.787,0-1.459,0.278-2.016,0.834c-0.559,0.559-0.838,1.232-0.838,2.02c0,0.795,0.277,1.472,0.831,2.03
		c0.556,0.562,1.229,0.843,2.022,0.843s1.469-0.281,2.027-0.843c0.559-0.561,0.838-1.237,0.838-2.03
		C175.527,175.65,175.248,174.978,174.689,174.421L174.689,174.421L174.689,174.421L174.689,174.421z M174.405,178.194
		c-0.479,0.483-1.06,0.726-1.743,0.726s-1.265-0.242-1.742-0.726c-0.476-0.483-0.714-1.068-0.714-1.754
		c0-0.681,0.239-1.262,0.718-1.742c0.48-0.483,1.061-0.726,1.738-0.726c0.681,0,1.262,0.242,1.743,0.726
		c0.478,0.48,0.717,1.062,0.717,1.742C175.122,177.126,174.882,177.711,174.405,178.194L174.405,178.194L174.405,178.194
		L174.405,178.194z"/>
	<path fill-rule="evenodd" clip-rule="evenodd" fill="#1D1D1B" d="M173.936,177.965c-0.013-0.026-0.021-0.081-0.027-0.164
		c-0.005-0.083-0.007-0.161-0.007-0.234l0,0v-0.229l0,0c0-0.158-0.058-0.321-0.172-0.487s-0.295-0.269-0.542-0.308
		c0.195-0.031,0.347-0.082,0.456-0.152c0.205-0.133,0.309-0.339,0.309-0.62c0-0.395-0.163-0.66-0.488-0.795
		c-0.182-0.075-0.468-0.113-0.857-0.113l0,0h-1.099v3.142h0.553v-1.239h0.438l0,0c0.293,0,0.498,0.034,0.615,0.102
		c0.198,0.117,0.297,0.357,0.297,0.722l0,0v0.249l0.012,0.102l0,0c0.002,0.013,0.005,0.024,0.008,0.035
		c0.002,0.01,0.005,0.021,0.008,0.03l0,0h0.518L173.936,177.965L173.936,177.965L173.936,177.965z M173.086,176.308
		c-0.117,0.047-0.292,0.07-0.526,0.07l0,0h-0.499v-1.139h0.473l0,0c0.307,0,0.528,0.039,0.668,0.117
		c0.139,0.078,0.209,0.231,0.209,0.46C173.411,176.059,173.302,176.222,173.086,176.308L173.086,176.308L173.086,176.308
		L173.086,176.308z"/>
</g>
</svg>
