<?xml version="1.0" encoding="utf-8"?>
<!-- Generator: Adobe Illustrator 16.0.0, SVG Export Plug-In . SVG Version: 6.00 Build 0)  -->
<!DOCTYPE svg PUBLIC "-//W3C//DTD SVG 1.1//EN" "http://www.w3.org/Graphics/SVG/1.1/DTD/svg11.dtd">
<svg version="1.1" id="Layer_1" xmlns="http://www.w3.org/2000/svg" xmlns:xlink="http://www.w3.org/1999/xlink" x="0px" y="0px"
	 width="139.205px" height="151.356px" viewBox="0 0 139.205 151.356" enable-background="new 0 0 139.205 151.356"
	 xml:space="preserve">
<g>
	<g>
		<g>
			<defs>
				<path id="SVGID_1_" d="M15.344,86.635C2.258,94.066,0.039,105.42,0.039,105.42l4.293,44.582
					c3.631-8.597,14.932-14.853,14.932-14.853l44.248-19.979V59.169L15.344,86.635z"/>
			</defs>
			<clipPath id="SVGID_2_">
				<use xlink:href="#SVGID_1_"  overflow="visible"/>
			</clipPath>
			<g clip-path="url(#SVGID_2_)">
				<g>
					<defs>
						<rect id="SVGID_3_" x="-0.211" y="58.919" width="23.581" height="91.333"/>
					</defs>
					<clipPath id="SVGID_4_">
						<use xlink:href="#SVGID_3_"  overflow="visible"/>
					</clipPath>
					<g clip-path="url(#SVGID_4_)">
						<rect x="20.001" y="58.919" fill="#FFE800" width="3.369" height="91.333"/>
						<rect x="16.633" y="58.919" fill="#FFE400" width="3.368" height="91.333"/>
						<rect x="13.264" y="58.919" fill="#FDE005" width="3.369" height="91.333"/>
						<rect x="9.896" y="58.919" fill="#FCDC0B" width="3.368" height="91.333"/>
						<rect x="6.526" y="58.919" fill="#FBD80F" width="3.369" height="91.333"/>
						<rect x="3.157" y="58.919" fill="#FAD312" width="3.369" height="91.333"/>
						<rect x="-0.211" y="58.919" fill="#F9CF15" width="3.368" height="91.333"/>
					</g>
				</g>
				<g>
					<defs>
						<rect id="SVGID_5_" x="22.87" y="58.919" width="40.892" height="91.333"/>
					</defs>
					<clipPath id="SVGID_6_">
						<use xlink:href="#SVGID_5_"  overflow="visible"/>
					</clipPath>
					<g clip-path="url(#SVGID_6_)">
						<rect x="43.315" y="58.919" fill="#FDE92B" width="20.446" height="91.333"/>
						<rect x="22.87" y="58.919" fill="#FDE92B" width="20.445" height="91.333"/>
					</g>
				</g>
			</g>
		</g>
		<g>
			<defs>
				<path id="SVGID_7_" d="M121.123,26.318L63.512,59.169v56.001l42.458-19.172c6.025-2.453,20.886-5.217,24.103-27.439
					c0,0,7.431-50.801,9.133-68.56C138.443,8.795,130.175,21.345,121.123,26.318z"/>
			</defs>
			<clipPath id="SVGID_8_">
				<use xlink:href="#SVGID_7_"  overflow="visible"/>
			</clipPath>
			<g clip-path="url(#SVGID_8_)">
				<g>
					<defs>
						<rect id="SVGID_9_" x="63.262" y="-0.25" width="49.098" height="115.67"/>
					</defs>
					<clipPath id="SVGID_10_">
						<use xlink:href="#SVGID_9_"  overflow="visible"/>
					</clipPath>
					<g clip-path="url(#SVGID_10_)">
						<rect x="87.812" y="-0.25" fill="#FDE92B" width="24.548" height="115.67"/>
						<rect x="63.262" y="-0.25" fill="#FDE92B" width="24.55" height="115.67"/>
					</g>
				</g>
				<g>
					<defs>
						<rect id="SVGID_11_" x="111.859" y="-0.25" width="27.596" height="115.67"/>
					</defs>
					<clipPath id="SVGID_12_">
						<use xlink:href="#SVGID_11_"  overflow="visible"/>
					</clipPath>
					<g clip-path="url(#SVGID_12_)">
						<rect x="135.513" y="-0.25" fill="#F9CF15" width="3.942" height="115.67"/>
						<rect x="131.57" y="-0.25" fill="#FAD312" width="3.942" height="115.67"/>
						<rect x="127.628" y="-0.25" fill="#FBD80F" width="3.942" height="115.67"/>
						<rect x="123.687" y="-0.25" fill="#FCDC0B" width="3.941" height="115.67"/>
						<rect x="119.744" y="-0.25" fill="#FDE005" width="3.942" height="115.67"/>
						<rect x="115.803" y="-0.25" fill="#FFE400" width="3.941" height="115.67"/>
						<rect x="111.859" y="-0.25" fill="#FFE800" width="3.943" height="115.67"/>
					</g>
				</g>
			</g>
		</g>
	</g>
	<path fill="#A8AEB5" d="M118.232,18.896L77.865,43.96c-1.024-9.585-6.224-15.194-14.35-15.194
		c-12.615,0-14.498,11.792-14.498,18.821c0,5.172,0.994,9.387,2.869,12.504L13.574,83.877c-3.575,2.289-6.209,4.776-8.151,7.222
		c-5.707,6.712-5.461,13.478-5.405,14.29c0,0.085,0,0.165,0,0.245c0.004,0.885,0.079,1.467,0.079,1.467
		c3.599-7.677,10.567-12.796,12.557-14.11c1.983-1.31,46.027-27.031,46.027-27.031c1.729,0.842,3.765,1.303,6.152,1.303
		c7.79,0,12.47-5.103,13.971-13.121l46.191-27.126l-0.208,0.112L125,27.003c5.887-3.402,12.762-9.258,14.205-27.003
		C136.781,5.765,126.937,13.436,118.232,18.896z"/>
	<g>
		<g>
			<path d="M126.455,39.858c0,1.323-1.071,2.392-2.397,2.385c-1.32-0.005-2.393-1.079-2.393-2.405c0-1.322,1.072-2.388,2.393-2.386
				C125.384,37.457,126.455,38.536,126.455,39.858z M126.098,39.858c0-1.129-0.91-2.046-2.04-2.052
				c-1.128-0.005-2.045,0.907-2.045,2.036c0,1.126,0.917,2.045,2.045,2.05C125.188,41.895,126.098,40.986,126.098,39.858z"/>
			<path d="M124.215,39.735c0.17,0.002,0.305-0.031,0.402-0.101c0.103-0.068,0.146-0.191,0.146-0.366
				c0-0.191-0.066-0.32-0.204-0.392c-0.075-0.035-0.175-0.053-0.296-0.053l-0.887-0.006v0.914L124.215,39.735z M123.014,38.505
				l1.24,0.005c0.204,0,0.368,0.031,0.506,0.09c0.247,0.114,0.375,0.325,0.375,0.635c0,0.159-0.035,0.29-0.102,0.392
				c-0.062,0.104-0.156,0.184-0.273,0.244c0.102,0.043,0.181,0.1,0.233,0.17c0.051,0.069,0.085,0.18,0.091,0.338l0.011,0.359
				c0.005,0.1,0.012,0.176,0.023,0.228c0.024,0.083,0.064,0.139,0.116,0.164v0.057h-0.443c-0.013-0.021-0.021-0.054-0.029-0.09
				c-0.002-0.033-0.013-0.104-0.016-0.209l-0.022-0.446c-0.01-0.177-0.073-0.294-0.199-0.354c-0.064-0.033-0.176-0.048-0.323-0.05
				l-0.824-0.004v1.147l-0.363-0.001V38.505z"/>
		</g>
		<path d="M22.603,99.23c0.009-0.478,0.046-4.753,0.041-5.265c-2.522,0.055-4.89,1.035-6.442,2.371
			c-2.289,1.972-3.682,4.689-3.443,8.143c0.215,3.057,1.924,5.135,2.596,5.984c0.721,0.912,1.779,2.22,2.516,3.236
			c1.281,1.777,2.221,3.511,2.1,6.005c-0.113,2.431-1.23,4.468-3.021,5.227c-2.017,0.856-3.786-0.151-4.131-2.983
			c-0.105,0.047-0.338,0.146-0.434,0.189c0.029,0.689,0.371,5.373,0.403,5.984c1.677,0,4.255-0.615,6.622-2.391
			c2.657-1.994,3.796-5.426,3.898-7.935c0.123-3.056-0.903-5.159-2.396-7.153c-0.607-0.812-2.495-3.239-3.55-4.736
			c-0.923-1.315-1.59-2.722-1.49-4.529c0.116-2.131,1.228-3.635,2.7-4.214c1.37-0.538,3.187-0.101,3.575,2.293
			C22.193,99.432,22.51,99.28,22.603,99.23z"/>
		<path d="M33.268,111.295c-0.326,1.823-1.644,4.977-4.195,5.83c-2.509,0.834-5.455-1.117-5.535-7.33
			c-0.08-6.334,1.912-9.983,4.429-11.567c1.371-0.865,3.009-1.155,4.166-0.989c0.003,0.389,0.042,3.756,0.053,4.867
			c-0.115,0.061-0.29,0.133-0.457,0.205c-0.177-1.122-0.884-2.845-2.493-2.404c-2.17,0.594-2.721,5.328-2.673,8.277
			c0.083,5.521,0.878,7.365,2.286,7.157c1.631-0.24,2.249-3.341,2.255-5.221C31.398,110.28,32.941,111.137,33.268,111.295z"/>
		<path d="M48.471,86.184c-0.849,0.529-3.554,2.165-4.487,2.736c-0.004,0.096,0.004,0.224,0.004,0.346
			c0.428-0.194,0.87-0.052,1.093,0.932c0.298,1.299,3.219,15.814,3.283,16.132c0.203-0.106,2.066-1.111,2.582-1.389
			c0.036-0.34,1.385-13.587,1.385-13.587s2.322,11.385,2.363,11.584c0.32-0.173,2.187-1.184,2.557-1.383
			c0.045-0.389,1.716-16.092,1.828-17.086c0.078-0.686,0.226-2.121,0.564-3.359c0.312-0.975,0.656-1.643,1.166-2.102
			c-0.004-0.117-0.016-0.218-0.021-0.328c-1.172,0.735-3.578,2.185-4.376,2.668c0.004,0.092,0.014,0.189,0.02,0.329
			c0.825-0.317,1.178,0.447,1.043,1.618c-0.117,1.043-1.358,12.222-1.358,12.222s-2.362-12.239-2.415-12.513
			c-0.217,0.128-2.203,1.338-2.373,1.441c-0.031,0.27-1.571,14.169-1.571,14.169c-0.083-0.542-1.604-8.203-1.829-9.298
			c-0.19-0.936-0.35-1.931,0.562-2.805C48.479,86.407,48.477,86.273,48.471,86.184z"/>
		<path d="M71.021,83.717c0.018-3.82-0.389-6.779-1.979-8.066c-1.537-1.247-3.784-0.637-5.443,1.805
			c-1.766,2.596-3.152,7.143-3.03,12.429c0.13,5.724,2.517,8.168,5.61,7.125c2.08-0.7,4.125-2.845,4.977-6.382
			c-0.475-0.328-1.898-1.132-2.313-1.374c-0.179,1.226-0.773,5.358-2.669,5.614c-2.083,0.285-2.426-4.404-2.372-7.002
			C70.035,84.276,70.055,84.292,71.021,83.717z M66.137,77.921c1.561-0.593,1.746,3.479,1.629,5.394
			c-0.791,0.469-2.961,1.693-3.918,2.256C63.973,82.9,64.484,78.543,66.137,77.921z"/>
		<path d="M110.687,60.856c0.017-4.345-0.649-7.663-2.213-9.012c-1.845-1.588-4.693-0.517-6.579,2.262
			c-2.01,2.956-3.479,7.87-3.343,13.89c0.148,6.511,3.027,9.312,6.555,8.153c2.339-0.771,4.542-3.185,5.516-7.277
			c-0.385-0.229-2.29-1.417-2.55-1.577c-0.176,1.439-0.852,6.365-3.077,6.572c-2.383,0.221-2.632-4.966-2.661-8.19
			C104.73,64.301,109.229,61.706,110.687,60.856z M104.935,54.259c1.962-0.76,1.932,4.138,1.962,6.277
			c-0.707,0.406-3.722,2.161-4.483,2.601C102.469,60.231,102.967,55.022,104.935,54.259z"/>
		<path d="M78.59,67.962c-1.565,0.314-2.746,2.118-3.313,3.991c-0.144-0.799-0.478-1.387-0.855-1.686
			c-0.38,0.307-2.538,2.148-3.443,2.918c0.004,0.115,0.015,0.223,0.021,0.321c0.884-0.365,1.608-0.076,1.645,1.657
			c0.036,1.669,0.233,21.604,0.233,22.276c-0.007,1.186-0.017,2.25-0.834,2.889c0.001,0.074,0.016,0.214,0.021,0.32
			c1.033-0.521,4.005-2.02,4.922-2.489c0-0.069-0.012-0.181-0.016-0.265c-0.611,0.131-1.115,0.034-1.111-1.283
			c0.002-0.574-0.064-3.742-0.096-7.465c0.729,0.811,1.928,1.24,3.174,0.726c3.064-1.266,4.49-6.188,4.573-12.151
			C83.592,71.731,81.774,67.329,78.59,67.962z M80.32,79.542c-0.055,3.184-0.809,7.982-2.599,8.26
			c-1.076,0.167-1.685-0.816-1.958-1.539c-0.027-3.195-0.059-6.967-0.084-9.668c0.154-2.324,0.886-4.896,2.353-4.962
			C79.591,71.563,80.411,74.904,80.32,79.542z"/>
		<path d="M91.957,59.583c-1.913,0.396-3.533,2.835-4.003,5.131c-0.188-0.94-0.495-1.692-0.99-2.094
			c-0.375,0.301-2.62,2.188-3.599,3.012c0.005,0.071,0.018,0.263,0.021,0.317c1.138-0.426,1.79,0.255,1.79,1.754
			c0.003,1.67,0.261,22.783,0.259,23.455c-0.004,1.193-0.036,2.235-0.848,2.885c0.003,0.059,0.012,0.188,0.019,0.307
			c1.02-0.51,4.047-2.016,4.953-2.476c-0.002-0.091-0.013-0.228-0.013-0.282c-0.528,0.115-1.105,0.02-1.124-1.261
			c-0.012-0.606-0.039-4.169-0.079-8.485c0.759,0.912,2.298,1.584,3.812,0.955c3.246-1.346,4.983-6.691,5.01-12.835
			C97.187,63.399,95.438,58.862,91.957,59.583z M93.653,71.989c-0.02,2.972-0.634,8.063-2.853,8.458
			c-1.141,0.2-2.096-0.711-2.519-1.971c-0.026-2.843-0.026-6.089-0.049-8.511c0.19-2.613,1.255-6.281,3.063-6.362
			C92.934,63.533,93.685,67.114,93.653,71.989z"/>
		<path d="M40.881,107.639c-0.008,1.142-0.061,2.294-0.979,2.916c0.004,0.106,0.01,0.259,0.016,0.318
			c0.832-0.441,3.809-2.045,4.918-2.645c-0.002-0.096-0.002-0.268-0.004-0.327c-0.541,0.194-0.967-0.095-0.971-1.268
			c0-0.763-0.133-10.302-0.123-11.749c0.007-1.167-0.055-2.264-0.491-3.051c-0.427-0.774-1.175-1.264-2.12-1.151
			c-1.314,0.159-2.997,1.334-3.951,3.923c-0.066-5.703-0.123-10.309-0.123-10.309l-4.265,2.533c0,0,0.013,0.27,0.013,0.331
			c0.853-0.339,1.344,0.081,1.354,1.384c0.013,1.669,0.264,22.157,0.257,22.832c-0.012,1.121-0.084,1.955-0.936,2.629
			c0,0.078,0.003,0.25,0.005,0.323c0.863-0.46,3.748-2.015,4.831-2.599c0-0.027-0.003-0.242-0.003-0.324
			c-0.545,0.208-0.985-0.086-0.977-1.264c0.009-0.809-0.057-6.059-0.113-11.199c0.219-1.9,1.298-4.538,2.578-4.414
			c0.761,0.076,0.957,0.742,0.973,2.377C40.782,98.729,40.886,107.309,40.881,107.639z"/>
		<path d="M120.143,48.348c-0.002-0.343,0.134-4.541,0.129-4.957c-1.968-0.006-4.412,1.162-5.789,2.458
			c-1.771,1.66-2.916,4.065-2.688,6.89c0.193,2.353,1.555,3.928,2.277,4.778c0.78,0.92,1.645,1.879,2.307,2.674
			c1.15,1.372,1.954,2.602,1.859,4.646c-0.092,1.984-1.029,3.687-2.57,4.084c-1.633,0.42-2.792-0.403-2.992-2.851
			c-0.13,0.064-0.247,0.129-0.381,0.208c-0.008,0.431-0.268,4.875-0.3,5.456c1.816-0.103,3.821-0.685,5.7-2.057
			c2.309-1.687,3.354-4.424,3.521-6.513c0.22-2.763-0.612-4.585-1.9-6.223c-0.598-0.76-2.239-2.553-3.199-3.644
			c-1.018-1.16-1.503-2.237-1.399-3.641c0.123-1.653,1.024-2.8,2.156-3.176c1.146-0.381,2.576,0.099,2.895,2.054
			C119.805,48.516,120.066,48.389,120.143,48.348z"/>
	</g>
	<path fill="#A8AEB5" d="M130.017,69.002c0.183-1.381,0.457-2.75,0.624-4.239c-3.525,12.493-11.021,17.21-20.719,22.485
		l-90.23,44.869C4.705,138.803,4.32,148.696,4.33,149.868c0,0.039,0,0.066,0,0.09c-0.076,0.878,0.019,1.398,0.019,1.398
		c4.196-6.271,14.136-11.012,14.136-11.012l91.132-41.215C117.505,95.834,127.457,90.59,130.017,69.002z"/>
	<g>
		<path fill="#F1F1F2" d="M9.678,138.762c2.258-2.225,5.463-4.292,10.014-6.193l90.176-42.244
			c9.565-4.464,16.711-9.367,20.229-21.765c-0.016,0.152,0.018-0.148,0,0c0.245-1.343,0.378-2.308,0.545-3.796
			c-3.525,12.493-11.021,17.21-20.719,22.485l-90.23,44.869c-4.551,2.029-7.756,4.357-10.012,6.645H9.678z"/>
	</g>
	<g>
		<path d="M19.264,137.551c0,0-13.353,5.975-14.932,12.451c0,0,0-0.018,0-0.045c-0.078,0.878,0.017,1.398,0.017,1.398
			c4.196-6.271,14.136-11.012,14.136-11.012l91.132-41.215C109.581,99.143,19.264,137.551,19.264,137.551z"/>
	</g>
	<path d="M120.362,29.52c-0.077,0.044-0.156,0.09-0.234,0.135L78.996,52.969l-1.509,0.854c-0.087,0.432-0.183,0.85-0.284,1.26
		c-1.84,7.265-6.604,11.296-13.691,11.296c-1.616,0-3.11-0.215-4.477-0.626c-0.541-0.164-1.065-0.356-1.565-0.583l-0.083,0.048
		L13.357,90.175c0,0-11.104,6.061-13.34,15.284c-0.006,0.983,0.079,1.642,0.079,1.642c3.599-7.677,10.567-12.796,12.557-14.11
		c1.983-1.31,46.027-27.031,46.027-27.031c1.729,0.842,3.765,1.303,6.152,1.303c7.79,0,12.47-5.103,13.971-13.121l46.191-27.126
		L120.362,29.52z"/>
	<g>
		<path fill="#FFFFFF" d="M13.574,83.877c-3.575,2.289-6.209,4.776-8.151,7.222c1.896-2.229,4.439-4.456,7.874-6.46l39.342-23.424
			c-0.265-0.358-0.515-0.73-0.752-1.124L13.574,83.877z"/>
		<path fill="#F1F1F2" d="M118.232,18.896L79.03,43.238l-0.007-0.009l-0.004,0.015l-0.998,2.858l41.611-24.776
			c7.273-4.85,16.053-9.758,19.572-21.326C136.781,5.765,126.937,13.436,118.232,18.896z"/>
	</g>
	<g>
		<path d="M78.021,46.102l0.986-2.847c-0.838-5.777-3.309-10.091-7.577-12.162C75.399,33.881,77.736,39.063,78.021,46.102z"/>
	</g>
	<g>
		<path fill="#C22424" d="M50.428,47.775c0-6.534,1.713-17.495,13.174-17.495c8.271,0,13.211,6.541,13.211,17.495
			c0,11.092-4.816,17.453-13.211,17.453C55.229,65.228,50.428,58.867,50.428,47.775z"/>
		<path fill="#C01E1A" d="M50.482,47.775c0-6.513,1.705-17.439,13.119-17.439c8.236,0,13.156,6.521,13.156,17.439
			c0,11.056-4.796,17.397-13.156,17.397C55.264,65.172,50.482,58.831,50.482,47.775z"/>
		<path fill="#C11E1A" d="M50.537,47.775c0-6.492,1.697-17.383,13.064-17.383c8.202,0,13.102,6.499,13.102,17.383
			c0,11.021-4.775,17.341-13.102,17.341C55.299,65.116,50.537,58.796,50.537,47.775z"/>
		<path fill="#C11E1A" d="M50.591,47.775c0-6.471,1.691-17.328,13.011-17.328c8.169,0,13.048,6.479,13.048,17.328
			c0,10.985-4.757,17.285-13.048,17.285C55.334,65.06,50.591,58.76,50.591,47.775z"/>
		<path fill="#C21E1A" d="M50.646,47.775c0-6.451,1.685-17.271,12.956-17.271c8.135,0,12.992,6.457,12.992,17.271
			c0,10.95-4.736,17.229-12.992,17.229C55.368,65.004,50.646,58.725,50.646,47.775z"/>
		<path fill="#C31E1A" d="M50.7,47.775c0-6.43,1.677-17.216,12.901-17.216c8.1,0,12.938,6.437,12.938,17.216
			c0,10.914-4.717,17.173-12.938,17.173C55.403,64.948,50.7,58.689,50.7,47.775z"/>
		<path fill="#C31E1A" d="M50.755,47.775c0-6.409,1.67-17.16,12.847-17.16c8.066,0,12.884,6.416,12.884,17.16
			c0,10.879-4.696,17.117-12.884,17.117C55.438,64.892,50.755,58.654,50.755,47.775z"/>
		<path fill="#C41E1A" d="M50.81,47.775c0-6.388,1.663-17.104,12.792-17.104c8.031,0,12.829,6.395,12.829,17.104
			c0,10.843-4.677,17.062-12.829,17.062C55.473,64.836,50.81,58.618,50.81,47.775z"/>
		<path fill="#C51E1B" d="M50.864,47.774c0-6.367,1.656-17.048,12.737-17.048c7.998,0,12.774,6.374,12.774,17.048
			c0,10.808-4.656,17.006-12.774,17.006C55.508,64.78,50.864,58.583,50.864,47.774z"/>
		<path fill="#C51E1B" d="M50.918,47.774c0-6.346,1.649-16.992,12.684-16.992c7.963,0,12.72,6.353,12.72,16.992
			c0,10.772-4.636,16.95-12.72,16.95C55.542,64.725,50.918,58.547,50.918,47.774z"/>
		<path fill="#C61E1B" d="M50.973,47.774c0-6.325,1.643-16.936,12.629-16.936c7.93,0,12.666,6.332,12.666,16.936
			c0,10.737-4.617,16.895-12.666,16.895C55.576,64.669,50.973,58.511,50.973,47.774z"/>
		<path fill="#C71E1B" d="M51.028,47.774c0-6.304,1.634-16.88,12.573-16.88c7.895,0,12.61,6.312,12.61,16.88
			c0,10.702-4.596,16.838-12.61,16.838C55.611,64.613,51.028,58.476,51.028,47.774z"/>
		<path fill="#C71E1B" d="M51.082,47.774c0-6.284,1.628-16.824,12.52-16.824c7.861,0,12.556,6.29,12.556,16.824
			c0,10.666-4.576,16.783-12.556,16.783C55.646,64.557,51.082,58.44,51.082,47.774z"/>
		<path fill="#C81E1B" d="M51.137,47.774c0-6.263,1.621-16.769,12.465-16.769c7.827,0,12.502,6.27,12.502,16.769
			c0,10.63-4.557,16.727-12.502,16.727C55.681,64.501,51.137,58.405,51.137,47.774z"/>
		<path fill="#C91E1B" d="M51.191,47.774c0-6.242,1.613-16.712,12.41-16.712c7.793,0,12.447,6.248,12.447,16.712
			c0,10.595-4.537,16.671-12.447,16.671C55.716,64.445,51.191,58.369,51.191,47.774z"/>
		<path fill="#C91E1C" d="M51.246,47.774c0-6.221,1.606-16.656,12.355-16.656c7.759,0,12.393,6.228,12.393,16.656
			c0,10.56-4.518,16.616-12.393,16.616C55.75,64.39,51.246,58.334,51.246,47.774z"/>
		<path fill="#CA1E1C" d="M51.301,47.774c0-6.2,1.599-16.601,12.302-16.601c7.724,0,12.337,6.207,12.337,16.601
			c0,10.524-4.497,16.56-12.337,16.56C55.785,64.333,51.301,58.298,51.301,47.774z"/>
		<path fill="#CB1F1C" d="M51.355,47.774c0-6.179,1.592-16.544,12.247-16.544c7.689,0,12.282,6.186,12.282,16.544
			c0,10.489-4.478,16.504-12.282,16.504C55.819,64.278,51.355,58.263,51.355,47.774z"/>
		<path fill="#CB1F1C" d="M51.41,47.774c0-6.158,1.585-16.489,12.192-16.489c7.655,0,12.228,6.165,12.228,16.489
			c0,10.453-4.457,16.448-12.228,16.448C55.854,64.222,51.41,58.227,51.41,47.774z"/>
		<path fill="#CC1F1C" d="M51.465,47.774c0-6.137,1.578-16.433,12.138-16.433c7.621,0,12.173,6.144,12.173,16.433
			c0,10.418-4.438,16.392-12.173,16.392C55.889,64.166,51.465,58.192,51.465,47.774z"/>
		<path fill="#CD1F1C" d="M51.519,47.774c0-6.117,1.571-16.377,12.084-16.377c7.587,0,12.118,6.123,12.118,16.377
			c0,10.382-4.417,16.336-12.118,16.336C55.924,64.11,51.519,58.156,51.519,47.774z"/>
		<path fill="#CD1F1C" d="M51.573,47.774c0-6.096,1.563-16.321,12.029-16.321c7.553,0,12.064,6.102,12.064,16.321
			c0,10.347-4.397,16.28-12.064,16.28C55.958,64.054,51.573,58.121,51.573,47.774z"/>
		<path fill="#CE1F1D" d="M51.628,47.774c0-6.075,1.557-16.265,11.975-16.265c7.519,0,12.01,6.081,12.01,16.265
			c0,10.311-4.378,16.225-12.01,16.225C55.992,63.999,51.628,58.085,51.628,47.774z"/>
		<path fill="#CF1F1D" d="M51.683,47.773c0-6.054,1.55-16.209,11.92-16.209c7.484,0,11.955,6.061,11.955,16.209
			c0,10.276-4.357,16.169-11.955,16.169C56.027,63.942,51.683,58.05,51.683,47.773z"/>
		<path fill="#CF1F1D" d="M51.736,47.773c0-6.033,1.543-16.153,11.867-16.153c7.45,0,11.899,6.039,11.899,16.153
			c0,10.241-4.337,16.113-11.899,16.113C56.062,63.887,51.736,58.014,51.736,47.773z"/>
		<path fill="#D01F1D" d="M51.791,47.773c0-6.012,1.536-16.097,11.812-16.097c7.416,0,11.846,6.019,11.846,16.097
			c0,10.205-4.318,16.057-11.846,16.057C56.097,63.831,51.791,57.979,51.791,47.773z"/>
		<path fill="#D11F1D" d="M51.846,47.773c0-5.991,1.528-16.041,11.758-16.041c7.381,0,11.791,5.997,11.791,16.041
			c0,10.169-4.299,16.001-11.791,16.001C56.131,63.775,51.846,57.943,51.846,47.773z"/>
		<path fill="#D21F1D" d="M51.9,47.773c0-5.97,1.521-15.985,11.703-15.985c7.348,0,11.736,5.977,11.736,15.985
			c0,10.134-4.278,15.946-11.736,15.946C56.166,63.719,51.9,57.908,51.9,47.773z"/>
		<path fill="#D21F1D" d="M51.955,47.773c0-5.95,1.515-15.929,11.648-15.929c7.312,0,11.682,5.956,11.682,15.929
			c0,10.099-4.258,15.89-11.682,15.89C56.201,63.663,51.955,57.872,51.955,47.773z"/>
		<path fill="#D31F1E" d="M52.01,47.773c0-5.928,1.508-15.873,11.594-15.873c7.279,0,11.627,5.935,11.627,15.873
			c0,10.063-4.238,15.834-11.627,15.834C56.235,63.607,52.01,57.836,52.01,47.773z"/>
		<path fill="#D41F1E" d="M52.064,47.773c0-5.908,1.5-15.817,11.539-15.817c7.245,0,11.572,5.914,11.572,15.817
			c0,10.028-4.218,15.778-11.572,15.778C56.271,63.551,52.064,57.801,52.064,47.773z"/>
		<path fill="#D41F1E" d="M52.119,47.773c0-5.887,1.493-15.761,11.484-15.761c7.211,0,11.518,5.893,11.518,15.761
			c0,9.993-4.198,15.723-11.518,15.723C56.305,63.496,52.119,57.766,52.119,47.773z"/>
		<path fill="#D51F1E" d="M52.174,47.773c0-5.866,1.486-15.706,11.43-15.706c7.177,0,11.463,5.872,11.463,15.706
			c0,9.957-4.178,15.667-11.463,15.667C56.34,63.44,52.174,57.73,52.174,47.773z"/>
		<path fill="#D61F1E" d="M52.229,47.773c0-5.845,1.479-15.649,11.375-15.649c7.143,0,11.408,5.851,11.408,15.649
			c0,9.921-4.158,15.611-11.408,15.611C56.374,63.384,52.229,57.694,52.229,47.773z"/>
		<path fill="#D61F1E" d="M52.282,47.773c0-5.824,1.472-15.594,11.321-15.594c7.108,0,11.354,5.83,11.354,15.594
			c0,9.886-4.139,15.555-11.354,15.555C56.409,63.328,52.282,57.659,52.282,47.773z"/>
		<path fill="#D71F1E" d="M52.337,47.773c0-5.804,1.466-15.538,11.267-15.538c7.074,0,11.3,5.81,11.3,15.538
			c0,9.851-4.118,15.499-11.3,15.499C56.443,63.272,52.337,57.624,52.337,47.773z"/>
		<path fill="#D81F1F" d="M52.392,47.773c0-5.783,1.458-15.482,11.212-15.482c7.04,0,11.245,5.788,11.245,15.482
			c0,9.815-4.099,15.443-11.245,15.443C56.479,63.216,52.392,57.588,52.392,47.773z"/>
		<path fill="#D81F1F" d="M52.446,47.773c0-5.762,1.45-15.426,11.157-15.426c7.006,0,11.19,5.768,11.19,15.426
			c0,9.779-4.078,15.388-11.19,15.388C56.513,63.161,52.446,57.552,52.446,47.773z"/>
		<path fill="#D91F1F" d="M52.5,47.772c0-5.741,1.444-15.37,11.104-15.37c6.972,0,11.136,5.747,11.136,15.37
			c0,9.744-4.059,15.332-11.136,15.332C56.548,63.104,52.5,57.517,52.5,47.772z"/>
		<path fill="#DA1F1F" d="M52.555,47.772c0-5.72,1.438-15.314,11.049-15.314c6.938,0,11.081,5.726,11.081,15.314
			c0,9.708-4.038,15.276-11.081,15.276C56.583,63.049,52.555,57.481,52.555,47.772z"/>
		<path fill="#DB1F1F" d="M52.609,47.772c0-5.699,1.43-15.258,10.994-15.258c6.903,0,11.027,5.705,11.027,15.258
			c0,9.673-4.02,15.22-11.027,15.22C56.617,62.993,52.609,57.446,52.609,47.772z"/>
		<path fill="#DB1F1F" d="M52.664,47.772c0-5.678,1.423-15.202,10.939-15.202c6.869,0,10.973,5.684,10.973,15.202
			c0,9.638-4,15.165-10.973,15.165C56.652,62.937,52.664,57.41,52.664,47.772z"/>
		<path fill="#DC1F1F" d="M52.719,47.772c0-5.657,1.416-15.146,10.886-15.146c6.835,0,10.917,5.663,10.917,15.146
			c0,9.602-3.979,15.109-10.917,15.109C56.687,62.881,52.719,57.375,52.719,47.772z"/>
		<path fill="#DD1F1F" d="M52.773,47.772c0-5.636,1.409-15.09,10.831-15.09c6.8,0,10.862,5.642,10.862,15.09
			c0,9.567-3.959,15.053-10.862,15.053C56.721,62.825,52.773,57.339,52.773,47.772z"/>
		<path fill="#DD1F20" d="M52.828,47.772c0-5.615,1.401-15.034,10.776-15.034c6.766,0,10.808,5.621,10.808,15.034
			c0,9.532-3.939,14.998-10.808,14.998C56.756,62.77,52.828,57.304,52.828,47.772z"/>
		<path fill="#DE1F20" d="M52.883,47.772c0-5.594,1.395-14.979,10.722-14.979c6.732,0,10.753,5.601,10.753,14.979
			c0,9.496-3.92,14.941-10.753,14.941C56.791,62.713,52.883,57.268,52.883,47.772z"/>
		<path fill="#DF1F20" d="M52.937,47.772c0-5.574,1.388-14.922,10.668-14.922c6.698,0,10.698,5.579,10.698,14.922
			c0,9.46-3.899,14.886-10.698,14.886C56.825,62.658,52.937,57.232,52.937,47.772z"/>
		<path fill="#DF1F20" d="M52.992,47.772c0-5.553,1.38-14.867,10.612-14.867c6.663,0,10.645,5.559,10.645,14.867
			c0,9.425-3.88,14.83-10.645,14.83C56.859,62.602,52.992,57.197,52.992,47.772z"/>
		<path fill="#E01F20" d="M53.047,47.772c0-5.532,1.373-14.811,10.558-14.811c6.63,0,10.589,5.538,10.589,14.811
			c0,9.39-3.859,14.774-10.589,14.774C56.895,62.546,53.047,57.162,53.047,47.772z"/>
		<path fill="#E11F20" d="M53.101,47.772c0-5.511,1.366-14.755,10.505-14.755c6.595,0,10.533,5.517,10.533,14.755
			c0,9.354-3.839,14.718-10.533,14.718C56.93,62.49,53.101,57.126,53.101,47.772z"/>
		<path fill="#E11F20" d="M53.155,47.772c0-5.49,1.358-14.699,10.45-14.699c6.561,0,10.479,5.496,10.479,14.699
			c0,9.318-3.818,14.662-10.479,14.662C56.964,62.434,53.155,57.09,53.155,47.772z"/>
		<path fill="#E21F21" d="M53.21,47.771c0-5.469,1.352-14.643,10.396-14.643c6.526,0,10.425,5.475,10.425,14.643
			c0,9.284-3.8,14.607-10.425,14.607C56.999,62.378,53.21,57.055,53.21,47.771z"/>
		<path fill="#EB2D2E" d="M53.265,47.771c0-5.448,1.345-14.587,10.341-14.587c6.492,0,10.37,5.454,10.37,14.587
			c0,9.248-3.78,14.551-10.37,14.551C57.033,62.322,53.265,57.02,53.265,47.771z"/>
	</g>
	<g>
		<g>
			<path fill="#A8AEB5" d="M68.102,43.792l1.584,6.039c-0.117,0-1.143-0.536-1.297-1.092c-0.744-2.706-0.84-3.192-1.321-4.854
				c0-0.137-0.383-0.935-0.747-1.134c-0.316-0.173-0.846-0.384-1.588,0.158c0,0,0.404-0.787,1.205-0.801
				C67.462,42.07,67.885,42.98,68.102,43.792z"/>
			<path fill="#A8AEB5" d="M54.555,53.951c0,0,0.434-0.748,1.036-0.748h6.488c0,0,1.104-0.032,1.425-0.428
				c0.269,0.401,1.453,0.428,1.453,0.428h6.141c0.463,0,0.979,0.748,0.979,0.748H54.555z"/>
			<path fill="#A8AEB5" d="M64.396,51.142c-0.221,0-0.885-0.692-0.885-1.951c0,1.258-0.768,1.951-0.93,1.951
				c-0.654-0.23-1.594,0.132-1.377,0.132c1.307,0,1.579,0.538,1.849,0.674c0.273,0.224,0.217,0.274,0,0.36
				c-0.162,0.088-0.375,0.18-1.14,0.227c-0.871,0.042-1.41-0.496-1.573-0.455c-0.927,0.408-1.262,0.355-1.479,0.355l-2.339,0.141
				c-0.438,0-0.383-0.269,0-0.269c0.434,0,1.197-0.36,1.142-0.36c0,0-1.579,0-2.012-0.315c-0.441-0.227,0-0.273,0.054-0.273
				c0.11,0,0.707-0.086,0.926-0.086c0.16,0,0.16,0,0.16-0.091V51c0-0.72,1.254-0.901,2.069-1.081c0.761-0.224,0.71-0.404,0.71-0.586
				c0.051-0.948,0.545-1.53,0.927-1.755c0.325-0.136,0.472,0.046,0.432,0.225c-0.252,1.156,0.584,0.697,0.657,0.541
				c0.051-0.181,1.363-1.712,1.201-2.748c-0.055-1.129-0.875-0.408-1.15-0.272c-0.379,0.453-1.088,0.453-0.65-0.136
				c0,0,0.926-1.037,0-1.619c0,0-0.871-0.363,0.381-0.363c1.195,0,2.13,1.445,2.13,2.617c0-1.172,0.974-2.617,2.279-2.617
				c1.196,0,0.327,0.363,0.327,0.363c-0.814,0.582,0,1.619,0,1.619c0.49,0.589-0.219,0.589-0.654,0.136
				c-0.271-0.136-1.148-0.857-1.2,0.272c-0.062,1.036,1.2,2.567,1.31,2.748c0,0,0.545,0.494,0.707-0.138v-0.402
				c-0.055-0.181,0.053-0.361,0.328-0.225c0.379,0.225,0.926,0.807,1.029,1.755c0,0.183-0.104,0.362,0.712,0.586
				c0.656,0.179,1.96,0.361,1.96,1.081v0.183c0,0.091,0,0.091,0.162,0.091c0.217,0,0.766,0.086,0.928,0.086
				c0.053,0,0.488,0.046,0.053,0.273c-0.326,0.315-2.173,0.315-2.124,0.36c0.161,0.137,0.761,0.316,1.194,0.316
				c0.49,0,0.49,0.269,0,0.269l-2.173-0.141c-0.273,0-0.654,0.141-1.634-0.264c-0.107-0.042-0.598,0.405-1.522,0.363
				c-0.817-0.047-1.036-0.139-1.2-0.227c-0.214-0.086-0.27-0.136,0-0.36c0.218-0.137,0.549-0.674,2.016-0.674
				C66.105,51.274,65.106,50.912,64.396,51.142z"/>
			<path fill="#A8AEB5" d="M65.091,35.075c1.835,0.058,2.114,1.73,2.114,1.73c0.525,1.957,1.002,3.648,1.012,3.636
				c-0.514-0.335-1.01-0.558-1.162-1.027c-0.443-1.367-0.49-1.696-0.751-2.512c0,0-0.261-1.132-1.317-1.153
				c-0.918-0.015-1.238,0.421-1.487,0.947c-0.172-0.507-0.615-0.981-1.493-0.947c-1.057,0.043-1.316,1.153-1.316,1.153
				c-0.264,0.815-0.304,1.145-0.75,2.512c-0.153,0.47-0.652,0.692-1.162,1.027c-0.037-0.005,0.484-1.679,1.009-3.636
				c0,0,0.282-1.672,2.118-1.73c1.076-0.033,1.58,0.646,1.6,1.149C63.528,35.721,64.01,35.042,65.091,35.075z"/>
			<path fill="#A8AEB5" d="M60.66,40.531c2.009,0,2.848,2.243,2.848,2.332c0-0.089,0.883-2.332,2.895-2.332
				c3.084,0,3.592,2.629,3.592,2.629c0.273,0.814,1.848,7.617,1.848,7.617s-1.163-0.562-1.34-1.181
				c-0.975-3.35-1.103-4.556-1.65-6.479c0,0-0.401-1.729-2.573-1.748c-1.987-0.016-2.771,2.515-2.771,2.515
				s-0.737-2.531-2.724-2.515c-2.179,0.019-2.572,1.748-2.572,1.748c-0.554,1.923-0.682,3.129-1.654,6.479
				c-0.178,0.618-1.346,1.181-1.346,1.181s1.581-6.803,1.856-7.617C57.068,43.16,57.576,40.531,60.66,40.531z"/>
			<path fill="#A8AEB5" d="M63.578,33.374c-0.008-0.325,0.229-0.575,0.564-0.569c0.499,0.007,0.616,0.459,0.616,0.459
				c0.168,0.507,0.629,1.655,0.629,1.655c-0.143-0.029-0.636-0.22-0.752-0.516c-0.149-0.372-0.304-0.81-0.337-0.901
				C64.091,32.955,63.67,33.152,63.578,33.374z"/>
			<path fill="#A8AEB5" d="M63.771,37.266c0.095-0.57,0.437-0.797,0.958-0.75c0.704,0.061,0.93,0.874,0.93,0.874
				c0.216,0.812,0.805,2.716,0.805,2.716c-0.217-0.048-0.988-0.39-1.157-0.873c-0.203-0.598-0.16-0.636-0.428-1.542
				C64.589,36.493,63.771,37.266,63.771,37.266z"/>
			<path fill="#A8AEB5" d="M63.291,37.266c0,0-0.818-0.773-1.116,0.425c-0.261,0.905-0.222,0.944-0.426,1.542
				c-0.163,0.483-0.94,0.825-1.157,0.873c0,0,0.588-1.904,0.81-2.716c0,0,0.225-0.813,0.929-0.874
				C62.854,36.469,63.191,36.696,63.291,37.266z"/>
			<path fill="#A8AEB5" d="M58.916,43.792c0.219-0.811,0.641-1.722,2.165-1.684c0.806,0.015,1.201,0.801,1.201,0.801
				c-0.739-0.542-1.268-0.331-1.585-0.158c-0.364,0.2-0.742,0.998-0.742,1.134c-0.483,1.662-0.581,2.148-1.326,4.854
				c-0.149,0.556-1.178,1.092-1.29,1.092C57.339,49.831,58.702,44.65,58.916,43.792z"/>
			<path fill="#A8AEB5" d="M63.508,37.898c0,0,0.438,1.081,1.27,2.021c-0.977,0.316-1.266,0.879-1.266,0.879
				s-0.277-0.563-1.205-0.879C63.172,38.981,63.508,37.898,63.508,37.898z"/>
			<path fill="#A8AEB5" d="M63.459,33.374c-0.092-0.222-0.514-0.419-0.721,0.129c-0.035,0.091-0.187,0.529-0.339,0.901
				c-0.12,0.295-0.611,0.486-0.747,0.516c0,0,0.456-1.148,0.624-1.655c0,0,0.119-0.452,0.615-0.459
				C63.228,32.799,63.465,33.049,63.459,33.374z"/>
			<path fill="#A8AEB5" d="M63.512,33.674c0,0,0.177,0.333,0.69,0.884c-0.593,0.188-0.69,0.535-0.69,0.535s-0.087-0.353-0.648-0.541
				C63.41,33.976,63.512,33.674,63.512,33.674z"/>
		</g>
		<g>
			<path fill="#A8AEB5" d="M58.008,55.049v3.653c0,0.351-0.026,0.735,0.371,0.922l-1.842,0.019c0.429-0.265,0.442-0.557,0.442-0.973
				v-2.331l-0.728-0.177c0.77-0.231,1.231-0.537,1.729-1.113H58.008z"/>
			<path fill="#A8AEB5" d="M59.121,55.196h3.188l-1.408,4.715c-0.062,0.22-0.178,0.54-0.178,0.778c0,0.222,0.099,0.385,0.224,0.504
				l-1.625,0.027l1.635-5.042c-0.293-0.083-0.59-0.113-0.872-0.113c-0.498,0-0.915,0.101-1.313,0.423L59.121,55.196z"/>
			<path fill="#A8AEB5" d="M64.085,58.607c-0.259,0.198-0.411,0.578-0.411,0.966c0,0.695,0.421,1.223,0.962,1.223
				c0.396,0,0.812-0.285,0.812-0.838c0-0.595-0.521-0.847-0.858-1.058L64.085,58.607z M63.564,58.198
				c-0.424-0.319-0.727-0.808-0.727-1.48c0-0.573,0.227-1.078,0.613-1.362c0.375-0.28,0.813-0.358,1.234-0.358
				c0.353,0,0.775,0.078,1.102,0.299c0.362,0.267,0.639,0.771,0.639,1.34c0,0.596-0.282,1.023-0.713,1.218
				c0.546,0.344,0.898,0.835,0.898,1.66c0,1.421-0.96,1.947-1.912,1.947c-0.448,0-0.908-0.093-1.31-0.365
				c-0.419-0.293-0.692-0.831-0.692-1.44C62.697,58.922,63.052,58.425,63.564,58.198z M65.142,57.43
				c0.192-0.176,0.266-0.476,0.266-0.772c0-0.631-0.326-1.155-0.846-1.155c-0.309,0-0.629,0.222-0.629,0.682
				c0,0.616,0.64,0.914,1.007,1.122L65.142,57.43z"/>
			<path fill="#A8AEB5" d="M67.69,57.479V56.87c0.618,0,1.183-0.077,1.183-0.627c0-0.387-0.346-0.546-0.711-0.546
				c-0.321,0-0.71,0.141-0.996,0.283l0.239-0.768c0.387-0.098,0.798-0.163,1.205-0.163c0.344,0,0.566,0.072,0.881,0.228
				c0.32,0.169,0.591,0.465,0.591,0.83c0,0.457-0.185,0.817-0.644,0.936c0.626,0.127,0.939,0.564,0.939,1.19
				c0,1.07-1.047,1.501-2.021,1.501c-0.371,0-0.75-0.047-1.112-0.129l-0.14-0.849c0.334,0.172,0.695,0.31,1.069,0.31
				c0.53,0,1.067-0.263,1.067-0.766c0-0.762-0.919-0.821-1.205-0.821h-0.245H67.69z"/>
		</g>
	</g>
</g>
</svg>
