<?xml version="1.0" encoding="utf-8"?>
<!-- Generator: Adobe Illustrator 16.0.0, SVG Export Plug-In . SVG Version: 6.00 Build 0)  -->
<!DOCTYPE svg PUBLIC "-//W3C//DTD SVG 1.1//EN" "http://www.w3.org/Graphics/SVG/1.1/DTD/svg11.dtd">
<svg version="1.1" id="Layer_1" xmlns="http://www.w3.org/2000/svg" xmlns:xlink="http://www.w3.org/1999/xlink" x="0px" y="0px"
	 width="175.748px" height="174.744px" viewBox="0 0 175.748 174.744" enable-background="new 0 0 175.748 174.744"
	 xml:space="preserve">
<g>
	<polygon fill="#E31921" points="0.546,86.752 87.185,0.537 87.724,0 88.265,0.537 175.202,86.906 175.748,87.448 175.202,87.992 
		88.563,174.207 88.024,174.744 87.483,174.207 0.546,87.838 0,87.295 0.546,86.752 	"/>
	<polygon fill="#FFFFFF" points="87.725,2.161 2.173,87.295 88.023,172.583 173.575,87.45 87.725,2.161 	"/>
	<path fill-rule="evenodd" clip-rule="evenodd" fill="#E31921" d="M67.921,113.406h2.314c0.546,0,0.944-0.099,1.193-0.297
		c0.249-0.198,0.374-0.509,0.374-0.936c0-0.442-0.124-0.762-0.368-0.958c-0.245-0.195-0.649-0.293-1.211-0.293h-2.303V113.406
		L67.921,113.406z M67.921,109.299h2.23c0.481,0,0.834-0.084,1.059-0.249c0.222-0.165,0.335-0.428,0.335-0.784
		c0-0.348-0.108-0.602-0.326-0.758c-0.218-0.155-0.577-0.234-1.079-0.234h-2.219V109.299L67.921,109.299z M66.05,115.122v-9.501
		h4.476c0.973,0,1.713,0.205,2.224,0.617c0.508,0.409,0.764,1.006,0.764,1.79c0,0.479-0.095,0.883-0.284,1.206
		c-0.189,0.321-0.474,0.57-0.852,0.746c0.491,0.198,0.856,0.485,1.099,0.856c0.245,0.37,0.366,0.835,0.366,1.39
		c0,0.925-0.302,1.639-0.903,2.14c-0.604,0.505-1.456,0.756-2.561,0.756H66.05L66.05,115.122z M77.307,109.776h2.298
		c0.498,0,0.863-0.102,1.099-0.304c0.233-0.203,0.351-0.52,0.351-0.956c0-0.412-0.115-0.725-0.342-0.938
		c-0.226-0.213-0.568-0.318-1.017-0.318h-2.389V109.776L77.307,109.776z M75.352,115.122v-9.501h4.608
		c1.035,0,1.803,0.223,2.301,0.665c0.5,0.442,0.749,1.121,0.749,2.032c0,0.579-0.121,1.063-0.365,1.451
		c-0.242,0.388-0.592,0.652-1.048,0.793c0.414,0.146,0.707,0.369,0.883,0.671c0.174,0.302,0.273,0.771,0.299,1.407l0.04,1.12
		c0,0.009,0,0.022,0,0.04c0.011,0.565,0.134,0.912,0.368,1.03v0.291h-2.145c-0.068-0.135-0.119-0.297-0.156-0.493
		c-0.035-0.196-0.059-0.43-0.066-0.7l-0.026-1c-0.021-0.587-0.132-0.986-0.332-1.19c-0.2-0.207-0.562-0.311-1.081-0.311h-2.072
		v3.694H75.352L75.352,115.122z M88.582,107.523l-1.316,4.045h2.638L88.582,107.523L88.582,107.523z M87.446,105.621h2.256
		l3.427,9.501h-2.053l-0.645-1.953H86.75l-0.626,1.953h-2.058L87.446,105.621L87.446,105.621z M93.844,115.122v-9.501h2.046
		l3.857,6.528v-6.528h1.929v9.501h-2.02l-3.883-6.528v6.528H93.844L93.844,115.122z M105.55,113.406h1.568
		c0.907,0,1.565-0.237,1.971-0.713c0.407-0.474,0.609-1.246,0.609-2.312c0-1.062-0.189-1.843-0.567-2.341
		c-0.379-0.5-0.97-0.748-1.775-0.748h-1.806V113.406L105.55,113.406z M103.635,115.122v-9.501h3.721
		c1.458,0,2.546,0.395,3.261,1.181c0.716,0.786,1.075,1.979,1.075,3.58c0,0.867-0.132,1.634-0.396,2.296
		c-0.264,0.663-0.649,1.195-1.151,1.599c-0.379,0.302-0.809,0.518-1.291,0.649c-0.481,0.13-1.155,0.196-2.025,0.196H103.635
		L103.635,115.122z"/>
	<path fill-rule="evenodd" clip-rule="evenodd" fill="#007547" d="M49.06,71.688l-10.526-6.077l2.112-3.658l3.617,1.445
		c0.453,0.182,0.922,0.386,1.41,0.609c0.486,0.225,1.009,0.478,1.566,0.758c-0.594-0.398-1.114-0.757-1.563-1.072
		c-0.45-0.318-0.791-0.568-1.022-0.754l-3.122-2.521l2.101-3.639l10.526,6.077l-1.319,2.285l-3.851-2.223
		c-0.804-0.464-1.632-0.948-2.481-1.454c-0.849-0.504-1.717-1.029-2.604-1.567c0.83,0.667,1.525,1.229,2.084,1.683
		s0.918,0.746,1.076,0.878l4.972,4.077l-0.863,1.494l-5.776-2.138c-0.819-0.307-1.552-0.589-2.199-0.846
		c-0.644-0.255-1.259-0.505-1.842-0.75c0.817,0.431,1.639,0.879,2.471,1.341c0.829,0.461,1.717,0.966,2.666,1.514l3.891,2.246
		L49.06,71.688L49.06,71.688z M52.309,53.856c-0.206-0.199-0.384-0.308-0.537-0.328c-0.154-0.019-0.3,0.044-0.44,0.189
		c-0.141,0.146-0.197,0.295-0.171,0.451c0.027,0.153,0.142,0.327,0.344,0.521l3.418,3.302c0.209,0.202,0.39,0.313,0.541,0.336
		c0.15,0.022,0.298-0.043,0.442-0.192c0.145-0.149,0.205-0.299,0.177-0.449c-0.027-0.15-0.145-0.327-0.354-0.529l-1.179-1.139
		l1.812-1.876l0.917,0.886c0.732,0.707,1.095,1.426,1.089,2.156c-0.005,0.73-0.376,1.479-1.118,2.247
		c-0.742,0.768-1.474,1.165-2.198,1.194c-0.726,0.026-1.456-0.313-2.191-1.022l-2.895-2.795c-0.731-0.707-1.096-1.425-1.092-2.149
		c0.003-0.725,0.375-1.47,1.116-2.238c0.742-0.768,1.476-1.167,2.203-1.2c0.727-0.032,1.46,0.306,2.191,1.012l0.603,0.582
		l-1.812,1.875L52.309,53.856L52.309,53.856z M60.195,56.095l-1.775-2.272l1.939-1.515l1.775,2.272L60.195,56.095L60.195,56.095z
		 M63.143,53.557L56.702,43.25l2.332-1.457L65.475,52.1L63.143,53.557L63.143,53.557z M66.557,51.182l-5.518-10.83l2.45-1.248
		l4.435,8.704l2.675-1.363l1.083,2.125L66.557,51.182L66.557,51.182z M72.394,47.979l-3.145-11.74l2.656-0.712l1.162,4.337
		l1.554-0.417l-1.162-4.337l2.656-0.711l3.146,11.74l-2.656,0.711l-1.372-5.119l-1.554,0.417l1.372,5.118L72.394,47.979
		L72.394,47.979z M80.612,45.682l-0.848-12.125l6.137-0.429l0.164,2.344l-3.394,0.237l0.168,2.41l2.995-0.209l0.162,2.314
		l-2.995,0.209l0.189,2.712l3.498-0.245l0.164,2.344L80.612,45.682L80.612,45.682z M87.908,45.057l1.481-12.063l3.061,0.375
		l0.81,5.064c0.098,0.56,0.183,1.136,0.255,1.726c0.075,0.592,0.144,1.218,0.208,1.878c-0.009-0.612,0.005-1.225,0.042-1.835
		c0.036-0.609,0.104-1.312,0.202-2.107l0.55-4.472l2.648,0.325l-1.481,12.063l-2.95-0.362l-0.93-5.379
		c-0.099-0.562-0.184-1.144-0.252-1.741c-0.07-0.595-0.123-1.218-0.163-1.871c-0.03,0.912-0.077,1.77-0.133,2.576
		c-0.056,0.804-0.127,1.549-0.211,2.235l-0.48,3.914L87.908,45.057L87.908,45.057z M97.119,46.249l3.756-11.559l2.933,0.953
		l-0.17,5.125c-0.012,0.568-0.039,1.15-0.08,1.743c-0.039,0.596-0.092,1.223-0.154,1.883c0.108-0.603,0.238-1.202,0.391-1.793
		c0.152-0.591,0.354-1.268,0.602-2.031l1.393-4.284l2.538,0.825L104.57,48.67l-2.827-0.918l0.114-5.458
		c0.01-0.571,0.038-1.158,0.084-1.757c0.045-0.597,0.111-1.219,0.197-1.867c-0.204,0.889-0.414,1.722-0.622,2.502
		c-0.208,0.779-0.42,1.497-0.633,2.154l-1.219,3.75L97.119,46.249L97.119,46.249z M107.09,49.942l2.317-4.182l1.54-7.577
		l2.553,1.415l-0.679,2.191c-0.131,0.408-0.254,0.765-0.37,1.074c-0.118,0.307-0.244,0.608-0.378,0.901
		c0.32-0.473,0.72-0.99,1.197-1.549l0.018-0.017l1.575-1.845l2.482,1.376l-5.443,5.186l-2.414,4.356L107.09,49.942L107.09,49.942z
		 M122.42,57.855c-0.853,0.914-1.713,1.395-2.582,1.445c-0.872,0.048-1.748-0.336-2.631-1.159c-0.873-0.814-1.317-1.661-1.332-2.54
		s0.401-1.773,1.25-2.683l3.407-3.654c0.849-0.91,1.709-1.387,2.581-1.432c0.874-0.043,1.748,0.343,2.624,1.161
		c0.887,0.826,1.337,1.671,1.351,2.535c0.015,0.864-0.405,1.755-1.261,2.673l-0.642,0.688l-2.033-1.896l0.945-1.014
		c0.269-0.289,0.416-0.546,0.44-0.769c0.022-0.225-0.073-0.438-0.29-0.64c-0.208-0.195-0.424-0.271-0.645-0.231
		s-0.466,0.206-0.734,0.494l-4.019,4.309c-0.271,0.291-0.417,0.544-0.439,0.765c-0.024,0.223,0.07,0.433,0.286,0.634
		c0.215,0.2,0.43,0.278,0.649,0.239c0.219-0.038,0.462-0.202,0.732-0.492l1.138-1.219l2.033,1.896L122.42,57.855L122.42,57.855z
		 M129.47,59.268l-4.942,3.21c-0.331,0.214-0.535,0.425-0.612,0.635c-0.076,0.209-0.034,0.436,0.127,0.684
		c0.16,0.247,0.349,0.374,0.57,0.39c0.224,0.015,0.499-0.086,0.83-0.301l4.942-3.21c0.331-0.215,0.535-0.429,0.613-0.639
		c0.076-0.212,0.035-0.442-0.126-0.691c-0.155-0.24-0.346-0.366-0.569-0.381C130.079,58.951,129.801,59.052,129.47,59.268
		L129.47,59.268z M127.583,57.178c1.044-0.678,1.994-0.933,2.851-0.766c0.858,0.17,1.613,0.756,2.266,1.762
		c0.66,1.016,0.893,1.945,0.697,2.787c-0.195,0.842-0.818,1.605-1.871,2.289l-4.189,2.721c-1.048,0.68-2.001,0.94-2.857,0.778
		c-0.857-0.164-1.612-0.75-2.27-1.762c-0.65-1.001-0.877-1.931-0.679-2.787c0.199-0.855,0.819-1.623,1.862-2.301L127.583,57.178
		L127.583,57.178z M124.687,69.389l2.546-1.354l1.155,2.173l-2.546,1.354L124.687,69.389L124.687,69.389z"/>
	<path fill-rule="evenodd" clip-rule="evenodd" fill="#007547" d="M38,107.637l-0.853-2.009l11.139-4.729l1.937,4.563
		c0.552,1.301,0.632,2.404,0.245,3.312c-0.389,0.904-1.029,1.548-1.921,1.926c-1.02,0.434-1.988,0.443-2.906,0.031
		c-0.921-0.411-1.602-1.142-2.045-2.186l-1.181-2.783L38,107.637L38,107.637z M44.137,105.032l1.009,2.376
		c0.262,0.618,0.617,1.026,1.059,1.224c0.446,0.199,0.918,0.188,1.425-0.026c0.457-0.194,0.783-0.51,0.984-0.95
		c0.197-0.441,0.126-1.057-0.208-1.845l-0.932-2.195L44.137,105.032L44.137,105.032z M47.024,122.544l-4.842-6.197l9.536-7.45
		l4.794,6.135l-1.418,1.109l-3.451-4.417l-2.585,2.02l2.772,3.549l-1.383,1.08l-2.772-3.548l-2.668,2.085l3.499,4.479
		L47.024,122.544L47.024,122.544z M50.842,126.546l-1.622-1.461l8.098-8.992l3.684,3.316c1.05,0.945,1.589,1.911,1.622,2.897
		c0.03,0.984-0.279,1.838-0.927,2.558c-0.741,0.823-1.614,1.242-2.621,1.256c-1.008,0.017-1.935-0.357-2.778-1.116l-2.247-2.023
		L50.842,126.546L50.842,126.546z M55.303,121.591l1.918,1.728c0.5,0.449,0.993,0.67,1.477,0.662
		c0.488-0.009,0.912-0.218,1.281-0.627c0.332-0.368,0.495-0.793,0.49-1.277c-0.008-0.483-0.332-1.011-0.968-1.584l-1.772-1.596
		L55.303,121.591L55.303,121.591z M60.636,133.779l-1.944-0.991l5.494-10.782l4.417,2.251c1.259,0.641,2.03,1.435,2.316,2.379
		c0.284,0.942,0.207,1.848-0.233,2.71c-0.503,0.987-1.238,1.617-2.207,1.892c-0.97,0.277-1.961,0.155-2.972-0.359l-2.693-1.372
		L60.636,133.779L60.636,133.779z M63.663,127.839l2.3,1.172c0.599,0.305,1.132,0.391,1.598,0.258
		c0.469-0.135,0.825-0.446,1.075-0.937c0.226-0.443,0.272-0.895,0.143-1.361c-0.133-0.465-0.582-0.891-1.345-1.279l-2.125-1.083
		L63.663,127.839L63.663,127.839z M76.529,140.349l-7.56-2.168l3.335-11.633l7.484,2.146l-0.496,1.731l-5.387-1.545L73,132.033
		l4.329,1.241l-0.484,1.687l-4.328-1.241l-0.934,3.256l5.463,1.566L76.529,140.349L76.529,140.349z M89.668,141.827l-2.303-0.121
		l-1.617-5.065l-3.064-0.161l-0.26,4.969l-2.179-0.114l0.634-12.085l5.243,0.274c1.457,0.076,2.512,0.462,3.161,1.156
		c0.651,0.692,0.948,1.562,0.894,2.607c-0.081,1.554-0.862,2.582-2.347,3.09L89.668,141.827L89.668,141.827z M82.775,134.736
		l2.711,0.142c0.783,0.041,1.377-0.092,1.779-0.403c0.401-0.31,0.615-0.757,0.645-1.333c0.028-0.532-0.137-0.971-0.498-1.317
		c-0.36-0.349-0.88-0.54-1.56-0.575l-2.886-0.151L82.775,134.736L82.775,134.736z M96.045,138.442l1.911-1.018
		c0.575,1.082,1.677,1.39,3.309,0.921c0.742-0.212,1.273-0.521,1.59-0.934c0.317-0.409,0.409-0.833,0.284-1.271
		c-0.091-0.317-0.266-0.585-0.523-0.804c-0.261-0.218-0.712-0.318-1.352-0.299l-2.389,0.056c-0.819,0.021-1.445-0.046-1.881-0.191
		c-0.437-0.148-0.833-0.423-1.183-0.819c-0.351-0.397-0.602-0.857-0.752-1.381c-0.298-1.038-0.15-1.984,0.443-2.835
		c0.594-0.85,1.49-1.446,2.694-1.792c1.001-0.286,1.957-0.321,2.87-0.111c0.911,0.211,1.592,0.687,2.037,1.428l-1.854,1.066
		c-0.559-0.794-1.4-1.028-2.525-0.705c-0.654,0.188-1.113,0.464-1.379,0.836c-0.265,0.372-0.337,0.768-0.216,1.189
		c0.19,0.662,0.861,0.975,2.018,0.933l2.12-0.073c1.284-0.044,2.215,0.171,2.793,0.641c0.58,0.474,0.97,1.063,1.173,1.773
		c0.327,1.14,0.155,2.165-0.519,3.066c-0.673,0.904-1.692,1.553-3.062,1.945c-1.151,0.331-2.23,0.379-3.236,0.142
		C97.411,139.971,96.62,139.386,96.045,138.442L96.045,138.442z M117.13,133.263l-2.076,1.059l-2.171-2.128l-4.147,2.113
		l0.465,2.996l-1.658,0.846l-1.916-12.605l2.392-1.219L117.13,133.263L117.13,133.263z M111.569,130.903l-4.022-4.01l0.879,5.611
		L111.569,130.903L111.569,130.903z M117.78,117.092l5.101,5.868c0.69,0.795,1.134,1.484,1.324,2.067
		c0.195,0.585,0.17,1.252-0.069,2.006c-0.241,0.755-0.73,1.452-1.466,2.092c-0.744,0.646-1.474,1.044-2.186,1.194
		c-0.712,0.149-1.376,0.081-1.991-0.202s-1.238-0.788-1.866-1.509l-5.205-5.988l1.681-1.462l5.101,5.867
		c0.699,0.804,1.324,1.187,1.88,1.144c0.557-0.038,1.059-0.254,1.504-0.641c0.514-0.447,0.806-0.937,0.878-1.477
		c0.074-0.538-0.224-1.189-0.891-1.956l-5.101-5.868L117.78,117.092L117.78,117.092z M129.698,115.202l1.396-1.48
		c0.889,0.833,1.403,1.809,1.541,2.924c0.142,1.114-0.182,2.197-0.973,3.246c-0.665,0.882-1.426,1.43-2.286,1.646
		c-0.857,0.218-1.777,0.188-2.763-0.089c-0.983-0.274-1.933-0.76-2.849-1.449c-1.472-1.109-2.408-2.36-2.806-3.755
		c-0.396-1.394-0.133-2.704,0.788-3.927c0.722-0.957,1.619-1.53,2.689-1.725c1.069-0.191,2.215,0.044,3.44,0.705l-1.045,1.744
		c-1.684-0.803-2.906-0.693-3.672,0.321c-0.489,0.65-0.57,1.385-0.235,2.203c0.336,0.816,1.079,1.661,2.229,2.527
		c1.172,0.884,2.2,1.355,3.088,1.418c0.892,0.065,1.574-0.223,2.055-0.861c0.385-0.51,0.511-1.094,0.381-1.756
		C130.546,116.234,130.22,115.671,129.698,115.202L129.698,115.202z M138.656,106.356l-3.199,7.186l-11.056-4.923l3.167-7.113
		l1.645,0.732l-2.279,5.12l2.997,1.334l1.831-4.113l1.604,0.714l-1.831,4.113l3.094,1.378l2.311-5.192L138.656,106.356
		L138.656,106.356z"/>
	<path fill-rule="evenodd" clip-rule="evenodd" fill="#E31921" d="M66.244,31.507l-1.425-4.387l1.334-0.434l1.958,3.056
		l-0.224-3.619l1.34-0.435l1.425,4.387l-0.846,0.275l-1.149-3.538l0.259,3.827l-0.923,0.3l-2.052-3.245l1.149,3.538L66.244,31.507
		L66.244,31.507z M72.227,25.727l-0.109,2.062l1.237-0.331L72.227,25.727L72.227,25.727z M71.455,24.977l1.059-0.283l2.8,4.025
		l-0.962,0.258l-0.548-0.835l-1.727,0.463l-0.048,0.994l-0.965,0.259L71.455,24.977L71.455,24.977z M76.575,27.639l0.75-0.132
		c0.434-0.077,0.729-0.246,0.882-0.507c0.155-0.261,0.187-0.648,0.097-1.157c-0.09-0.507-0.246-0.865-0.469-1.071
		c-0.224-0.207-0.526-0.276-0.912-0.208l-0.864,0.152L76.575,27.639L76.575,27.639z M75.804,28.62l-0.801-4.542l1.779-0.313
		c0.697-0.123,1.25-0.026,1.659,0.29c0.409,0.315,0.681,0.855,0.815,1.621c0.073,0.415,0.075,0.792,0.004,1.131
		c-0.07,0.339-0.209,0.626-0.416,0.861c-0.156,0.176-0.343,0.315-0.562,0.419c-0.22,0.103-0.536,0.191-0.952,0.265L75.804,28.62
		L75.804,28.62z M80.406,27.812l-0.562-4.579l3.326-0.408l0.098,0.795l-2.396,0.294l0.12,0.976l2.191-0.269l0.096,0.783
		l-2.191,0.269l0.145,1.178l2.509-0.308l0.104,0.845L80.406,27.812L80.406,27.812z M86.388,27.219l-0.081-4.612l0.949-0.017
		l0.08,4.612L86.388,27.219L86.388,27.219z M88.326,27.172l0.081-4.612l0.992,0.017l1.817,3.202l0.056-3.169l0.937,0.016
		l-0.081,4.612l-0.979-0.017l-1.831-3.202l-0.055,3.169L88.326,27.172L88.326,27.172z M95.436,22.819l0.95,0.117l-0.352,2.872
		c-0.044,0.354-0.006,0.622,0.115,0.801c0.121,0.18,0.335,0.29,0.642,0.327c0.311,0.038,0.547-0.015,0.709-0.16
		c0.162-0.144,0.265-0.394,0.309-0.75l0.353-2.873l0.942,0.116l-0.365,2.975c-0.068,0.562-0.279,0.973-0.63,1.234
		s-0.821,0.357-1.412,0.284c-0.594-0.073-1.031-0.278-1.311-0.616s-0.385-0.79-0.315-1.353L95.436,22.819L95.436,22.819z
		 M99.225,28.009l0.164-0.928l0.929,0.164l-0.164,0.929L99.225,28.009L99.225,28.009z M101.133,26.861l0.912,0.211
		c-0.022,0.254,0.037,0.459,0.176,0.618c0.14,0.157,0.366,0.272,0.682,0.345c0.27,0.062,0.482,0.061,0.641-0.003
		c0.158-0.063,0.259-0.189,0.303-0.377c0.062-0.273-0.277-0.588-1.02-0.948c-0.01-0.005-0.019-0.009-0.025-0.013
		c-0.02-0.009-0.05-0.024-0.09-0.044c-0.398-0.188-0.674-0.36-0.825-0.515c-0.136-0.138-0.226-0.304-0.27-0.495
		c-0.043-0.191-0.038-0.403,0.016-0.637c0.102-0.438,0.328-0.738,0.679-0.903c0.351-0.164,0.807-0.181,1.367-0.051
		c0.525,0.121,0.907,0.339,1.146,0.656c0.238,0.317,0.314,0.703,0.227,1.158l-0.889-0.205c0.034-0.222-0.011-0.407-0.136-0.555
		c-0.124-0.148-0.325-0.255-0.604-0.319c-0.243-0.056-0.439-0.052-0.593,0.012s-0.25,0.184-0.291,0.359
		c-0.055,0.238,0.16,0.474,0.643,0.711c0.131,0.064,0.234,0.114,0.307,0.151c0.308,0.159,0.525,0.278,0.651,0.355
		c0.127,0.079,0.234,0.159,0.323,0.239c0.159,0.145,0.266,0.311,0.318,0.499c0.054,0.189,0.053,0.4-0.002,0.635
		c-0.107,0.467-0.349,0.793-0.724,0.979c-0.375,0.184-0.849,0.21-1.423,0.078c-0.565-0.131-0.979-0.364-1.238-0.701
		C101.132,27.764,101.045,27.351,101.133,26.861L101.133,26.861z M105.125,29.329l0.244-0.911l0.911,0.244l-0.244,0.911
		L105.125,29.329L105.125,29.329z M109.688,26.834l-1.214,1.67l1.218,0.396L109.688,26.834L109.688,26.834z M109.45,25.785
		l1.042,0.338l0.156,4.901l-0.947-0.308l-0.005-0.999l-1.7-0.552l-0.582,0.808l-0.95-0.309L109.45,25.785L109.45,25.785z
		 M111.196,31.296l0.338-0.88l0.88,0.338l-0.338,0.88L111.196,31.296L111.196,31.296z"/>
	<path fill-rule="evenodd" clip-rule="evenodd" fill="#E31921" d="M67.538,61.86l0.66,1.816l0.944-0.738L67.538,61.86L67.538,61.86z
		 M66.599,61.496l0.808-0.631l3.883,2.443l-0.734,0.574l-0.777-0.519l-1.318,1.029l0.323,0.874l-0.737,0.576L66.599,61.496
		L66.599,61.496z M72.526,62.549l-3.549-2.871l0.834-0.522l2.488,2.252l-0.917-3.233l0.824-0.515l1.04,4.438L72.526,62.549
		L72.526,62.549z M74.918,61.101l-1.755-3.942l2.863-1.275l0.305,0.685l-2.063,0.918l0.375,0.841l1.887-0.84l0.3,0.674l-1.886,0.84
		l0.451,1.015l2.16-0.962l0.324,0.729L74.918,61.101L74.918,61.101z M78.799,56.911l1.008-0.271
		c0.219-0.058,0.367-0.146,0.446-0.262c0.079-0.116,0.093-0.269,0.042-0.46c-0.048-0.181-0.136-0.305-0.26-0.372
		c-0.124-0.066-0.287-0.073-0.484-0.021l-1.048,0.281L78.799,56.911L78.799,56.911z M78.57,59.486l-1.117-4.168l2.022-0.542
		c0.454-0.122,0.817-0.114,1.087,0.021c0.271,0.136,0.46,0.404,0.567,0.804c0.068,0.254,0.072,0.481,0.01,0.68
		c-0.061,0.198-0.183,0.355-0.367,0.47c0.199,0.016,0.354,0.08,0.466,0.191c0.112,0.112,0.21,0.306,0.297,0.582l0.149,0.487
		c0.001,0.004,0.003,0.01,0.005,0.017c0.071,0.248,0.166,0.384,0.283,0.409l0.034,0.128l-0.941,0.252
		c-0.045-0.051-0.087-0.116-0.126-0.198c-0.039-0.082-0.077-0.182-0.111-0.299l-0.129-0.436c-0.078-0.255-0.173-0.417-0.286-0.484
		c-0.112-0.067-0.283-0.07-0.511-0.009l-0.909,0.244l0.434,1.621L78.57,59.486L78.57,59.486z M84.734,58.172l-0.881,0.108
		l-0.196-1.596l-1.885-2.496l1.079-0.133l1.143,1.734l0.619-1.95l1.007-0.124l-1.081,2.86L84.734,58.172L84.734,58.172z M88.3,57.93
		l0.075-4.315l0.888,0.016l-0.075,4.315L88.3,57.93L88.3,57.93z M90.147,56.628l0.869,0.106c0.004,0.238,0.079,0.424,0.224,0.558
		c0.146,0.133,0.367,0.218,0.669,0.254c0.256,0.032,0.454,0.01,0.595-0.066c0.142-0.075,0.223-0.202,0.244-0.38
		c0.032-0.26-0.314-0.521-1.04-0.783c-0.01-0.003-0.019-0.007-0.025-0.009c-0.019-0.006-0.048-0.017-0.088-0.032
		c-0.389-0.137-0.662-0.269-0.818-0.399c-0.14-0.115-0.239-0.26-0.299-0.434c-0.059-0.173-0.075-0.371-0.047-0.594
		c0.051-0.417,0.232-0.72,0.542-0.907s0.733-0.248,1.268-0.182c0.501,0.061,0.877,0.228,1.13,0.498
		c0.253,0.272,0.36,0.623,0.324,1.056l-0.847-0.104c0.01-0.209-0.051-0.377-0.181-0.502c-0.131-0.126-0.328-0.206-0.593-0.238
		c-0.231-0.028-0.415-0.005-0.551,0.069c-0.137,0.075-0.215,0.195-0.235,0.362c-0.027,0.227,0.194,0.426,0.667,0.599
		c0.129,0.047,0.229,0.083,0.3,0.11c0.303,0.118,0.517,0.208,0.642,0.267c0.126,0.061,0.233,0.125,0.324,0.191
		c0.161,0.118,0.277,0.263,0.345,0.433s0.088,0.367,0.061,0.591c-0.055,0.446-0.247,0.772-0.578,0.981
		c-0.33,0.208-0.769,0.28-1.315,0.212c-0.539-0.066-0.947-0.243-1.222-0.531C90.234,57.468,90.113,57.092,90.147,56.628
		L90.147,56.628z M94.247,58.562l0.971-4.205l0.865,0.2l-0.791,3.428l2.053,0.474l-0.18,0.776L94.247,58.562L94.247,58.562z
		 M100.397,56.814l-1.217,1.501l1.119,0.429L100.397,56.814L100.397,56.814z M100.226,55.823l0.957,0.367l-0.094,4.586l-0.87-0.334
		l0.044-0.933l-1.561-0.6l-0.583,0.727l-0.873-0.335L100.226,55.823L100.226,55.823z M101.522,61.078l2.093-3.774l0.812,0.451
		l0.095,3.443l1.438-2.594l0.767,0.425l-2.092,3.774l-0.803-0.444l-0.105-3.449l-1.438,2.594L101.522,61.078L101.522,61.078z
		 M106.568,63.338l0.562,0.438c0.325,0.253,0.627,0.353,0.905,0.296c0.277-0.056,0.566-0.276,0.864-0.657
		c0.297-0.38,0.447-0.713,0.451-0.997c0.004-0.285-0.137-0.539-0.426-0.764l-0.646-0.505L106.568,63.338L106.568,63.338z
		 M105.403,63.416l2.657-3.4l1.331,1.041c0.522,0.408,0.801,0.853,0.838,1.334c0.036,0.482-0.169,1.009-0.616,1.582
		c-0.243,0.311-0.505,0.548-0.784,0.711c-0.28,0.164-0.567,0.247-0.859,0.25c-0.22,0.002-0.435-0.041-0.644-0.128
		c-0.209-0.088-0.469-0.253-0.78-0.497L105.403,63.416L105.403,63.416z"/>
	<path fill-rule="evenodd" clip-rule="evenodd" fill="#E31921" d="M83.678,66.52v-4.842h0.866v3.948h2.055v0.895H83.678
		L83.678,66.52z M89.604,62.647l-0.583,2.062h1.169L89.604,62.647L89.604,62.647z M89.101,61.678h1l1.518,4.842H90.71l-0.286-0.996
		h-1.632l-0.277,0.996h-0.912L89.101,61.678L89.101,61.678z M92.771,66.52v-0.99h0.861v0.99H92.771L92.771,66.52z"/>
	<path fill-rule="evenodd" clip-rule="evenodd" fill="#007547" d="M165.04,83.894c2.087,0,3.789,1.702,3.789,3.789
		c0,2.088-1.702,3.79-3.789,3.79c-2.088,0-3.79-1.702-3.79-3.79C161.25,85.596,162.952,83.894,165.04,83.894L165.04,83.894z"/>
	<path fill-rule="evenodd" clip-rule="evenodd" fill="#007547" d="M101.707,80.058c0-3.983,3.924-6.257,7.017-6.257
		c2.039,0,4.062,0.748,5.454,2.081c-0.555,0.931-1.109,1.863-1.665,2.794c-0.861-0.703-1.997-1.317-3.373-1.308
		c-1.66,0.012-3.509,0.879-3.509,2.866c0,4.897,11.592,1.557,11.592,11.844c0,3.837-3.677,7.226-8.229,7.226
		c-3.804,0-7.061-2.875-9.01-6.72c1.149-0.545,2.299-1.089,3.448-1.633c0.798,1.625,2.996,4.964,5.942,4.964
		c2.642,0,4.282-1.627,4.282-3.976C113.656,85.25,101.707,89.088,101.707,80.058L101.707,80.058z M140.807,86.201
		c0-3.944,0.845-7.072,2.534-9.387c1.689-2.313,3.775-3.474,6.644-3.474c2.862,0,4.953,1.16,6.651,3.479s2.547,5.449,2.547,9.381
		c0,3.938-0.849,7.066-2.547,9.386c-1.698,2.32-3.789,3.479-6.651,3.479c-2.868,0-4.954-1.159-6.644-3.479
		C141.651,93.268,140.807,90.139,140.807,86.201L140.807,86.201z M120.82,86.391c0-3.973,0.784-7.125,2.352-9.456
		c1.568-2.331,3.505-3.5,6.166-3.5c2.658,0,4.599,1.169,6.175,3.505c0.235,0.349,0.45,0.716,0.646,1.101l-3.113,2.132
		c-0.044-0.084-0.091-0.168-0.14-0.25c-1.891-3.19-4.852-3.204-6.743-0.005c-0.953,1.613-1.619,3.794-1.619,6.543
		c0,2.745,0.666,4.927,1.619,6.543c1.888,3.201,4.852,3.192,6.743,0c0.522-0.881,0.816-1.93,0.977-3.146l3.299,2.099
		c-0.37,1.479-0.919,2.776-1.669,3.889c-1.576,2.336-3.517,3.505-6.175,3.505c-2.661,0-4.598-1.169-6.166-3.505
		C121.604,93.51,120.82,90.357,120.82,86.391L120.82,86.391z M24.088,98.308V78.254h-7.412v-3.586h18.248v3.586h-6.484v20.054
		H24.088L24.088,98.308z M58.682,98.365V74.667h8.766c3.583,0,5.659,2.054,6.144,4.631c0.376,2.004-0.326,4.403-1.915,6.125
		c2.342,1.114,3.487,2.962,3.487,5.718c0,4.793-3.075,7.223-7.326,7.223H58.682L58.682,98.365z M62.524,95.101h5.518
		c2.234,0,3.41-1.803,3.436-3.604c0.026-1.802-1.097-3.604-3.459-3.604h-5.495V95.101L62.524,95.101z M62.524,84.19h3.821
		c1.917,0,2.985-1.487,2.978-2.975c-0.007-1.448-0.932-2.974-3-2.974h-3.798V84.19L62.524,84.19z M43.262,74.762h2.792l8.781,23.545
		h-4.408l-2.138-5.802h-7.186l-2.093,5.802h-4.329L43.262,74.762L43.262,74.762z M44.723,82.285l-2.253,6.819h4.421L44.723,82.285
		L44.723,82.285z M85.866,74.762h2.792l8.781,23.545h-4.408l-2.139-5.802h-7.186l-2.093,5.802h-4.328L85.866,74.762L85.866,74.762z
		 M87.327,82.285l-2.252,6.819h4.42L87.327,82.285L87.327,82.285z M144.406,86.271c0-2.729,0.514-4.894,1.541-6.496
		c1.027-1.601,2.297-2.403,4.041-2.403c1.741,0,3.013,0.802,4.046,2.408c1.032,1.604,1.549,3.77,1.549,6.491
		c0,2.725-0.517,4.891-1.549,6.496c-1.033,1.605-2.305,2.408-4.046,2.408c-1.744,0-3.014-0.803-4.041-2.408
		C144.92,91.162,144.406,88.996,144.406,86.271L144.406,86.271z"/>
	<path fill-rule="evenodd" clip-rule="evenodd" fill="#E31921" d="M87.956,70.493c0.632,0,1.146,0.515,1.146,1.147
		s-0.515,1.147-1.146,1.147c-0.632,0-1.147-0.515-1.147-1.147S87.324,70.493,87.956,70.493L87.956,70.493z M109.354,71.536
		c-4.778,0.452-9.563,0.77-14.539,0.782c-1.43,0.047-1.946-0.359-1.946-0.794l0,0c0-0.435,0.422-0.847,1.946-0.794
		C99.661,70.733,104.509,71.031,109.354,71.536L109.354,71.536z M66.526,71.511c4.779-0.452,9.564-0.771,14.54-0.782
		c1.43-0.047,1.946,0.358,1.946,0.793c0,0,0,0,0,0c0,0.436-0.421,0.847-1.946,0.794C76.22,72.312,71.373,72.015,66.526,71.511
		L66.526,71.511z"/>
	<path fill="#E31921" d="M87.976,49.546L87.976,49.546c10.43,0,19.896,4.253,26.756,11.112c3.522,3.523,6.356,7.733,8.281,12.409
		h-1.667c-1.839-4.253-4.468-8.089-7.701-11.322c-6.581-6.582-15.663-10.662-25.668-10.663h-0.001h-0.003
		c-10.004,0.001-19.085,4.081-25.667,10.662c-3.233,3.233-5.862,7.07-7.701,11.323h-1.668c1.925-4.676,4.76-8.887,8.283-12.41
		c6.859-6.858,16.325-11.111,26.752-11.111H87.976L87.976,49.546z M122.914,101.997c-1.923,4.581-4.721,8.709-8.184,12.173
		c-6.858,6.858-16.325,11.11-26.752,11.111h-0.003h-0.002c-10.428,0-19.895-4.253-26.754-11.112
		c-3.463-3.463-6.261-7.592-8.183-12.172h1.672c1.833,4.158,4.424,7.913,7.597,11.086c6.581,6.581,15.664,10.662,25.668,10.662
		h0.002h0.003c10.003-0.001,19.085-4.081,25.665-10.661c3.174-3.173,5.765-6.928,7.598-11.087H122.914L122.914,101.997z
		 M87.976,28.451L87.976,28.451c16.239,0.001,30.979,6.623,41.66,17.303c7.428,7.428,12.891,16.82,15.53,27.313h-1.584
		c-2.606-10.069-7.886-19.081-15.032-26.227c-10.402-10.403-24.759-16.853-40.573-16.853h-0.001h-0.003
		c-15.813,0-30.168,6.449-40.571,16.851c-7.146,7.147-12.427,16.159-15.033,26.228h-1.584c2.639-10.494,8.103-19.886,15.531-27.314
		c10.68-10.68,25.419-17.301,41.657-17.302H87.976L87.976,28.451z M145.106,101.997c-2.662,10.397-8.1,19.705-15.472,27.077
		c-10.68,10.68-25.42,17.302-41.656,17.302h-0.003h-0.002c-16.237,0-30.979-6.622-41.659-17.303
		c-7.372-7.372-12.809-16.679-15.471-27.076h1.588c2.627,9.973,7.879,18.9,14.969,25.99C57.804,138.39,72.16,144.84,87.974,144.84
		h0.002h0.003c15.812-0.001,30.168-6.45,40.569-16.852c7.091-7.09,12.343-16.018,14.971-25.991H145.106L145.106,101.997z"/>
	<path fill-rule="evenodd" clip-rule="evenodd" fill="#FFFFFF" d="M164.468,86.275v1.171h0.526c0.3,0,0.519-0.046,0.658-0.137
		c0.138-0.092,0.206-0.235,0.206-0.433c0-0.207-0.071-0.358-0.216-0.456c-0.144-0.097-0.372-0.146-0.684-0.146H164.468
		L164.468,86.275z M163.67,85.773h1.433c0.518,0,0.911,0.085,1.177,0.255c0.267,0.17,0.4,0.421,0.4,0.753
		c0,0.273-0.072,0.498-0.216,0.675c-0.143,0.178-0.348,0.296-0.614,0.352l0.83,1.688h-0.893l-0.74-1.557h-0.579v1.557h-0.798V85.773
		L163.67,85.773z M165.027,84.875c-0.386,0-0.744,0.067-1.074,0.204c-0.331,0.136-0.63,0.336-0.896,0.601
		c-0.274,0.28-0.485,0.594-0.633,0.94c-0.148,0.346-0.222,0.705-0.222,1.077c0,0.374,0.07,0.729,0.21,1.069
		c0.141,0.338,0.344,0.641,0.608,0.91c0.269,0.271,0.573,0.479,0.913,0.627c0.34,0.145,0.688,0.219,1.047,0.219
		c0.39,0,0.756-0.07,1.104-0.21c0.347-0.141,0.659-0.346,0.937-0.618c0.267-0.256,0.47-0.553,0.613-0.888
		c0.143-0.336,0.215-0.691,0.215-1.063c0-0.396-0.067-0.767-0.204-1.108c-0.136-0.341-0.336-0.647-0.602-0.919
		c-0.276-0.275-0.588-0.483-0.929-0.627C165.774,84.948,165.412,84.875,165.027,84.875L165.027,84.875z M165.022,84.378
		c0.458,0,0.89,0.084,1.294,0.251c0.406,0.168,0.768,0.415,1.084,0.741c0.31,0.311,0.544,0.664,0.706,1.061
		c0.161,0.396,0.242,0.817,0.242,1.264c0,0.458-0.083,0.887-0.25,1.288c-0.165,0.4-0.407,0.755-0.725,1.063
		c-0.322,0.314-0.687,0.555-1.091,0.723c-0.403,0.167-0.824,0.251-1.261,0.251c-0.44,0-0.863-0.086-1.269-0.259
		c-0.404-0.171-0.766-0.419-1.084-0.742c-0.313-0.316-0.553-0.675-0.718-1.071c-0.164-0.398-0.247-0.816-0.247-1.253
		c0-0.44,0.086-0.865,0.259-1.275c0.172-0.411,0.42-0.776,0.743-1.099c0.311-0.312,0.661-0.547,1.052-0.706
		C164.148,84.458,164.57,84.378,165.022,84.378L165.022,84.378z"/>
</g>
</svg>
