<?xml version="1.0" encoding="utf-8"?>
<!-- Generator: Adobe Illustrator 16.0.0, SVG Export Plug-In . SVG Version: 6.00 Build 0)  -->
<!DOCTYPE svg PUBLIC "-//W3C//DTD SVG 1.1//EN" "http://www.w3.org/Graphics/SVG/1.1/DTD/svg11.dtd">
<svg version="1.1" id="Layer_1" xmlns="http://www.w3.org/2000/svg" xmlns:xlink="http://www.w3.org/1999/xlink" x="0px" y="0px"
	 width="192.756px" height="192.756px" viewBox="0 0 192.756 192.756" enable-background="new 0 0 192.756 192.756"
	 xml:space="preserve">
<g>
	<polygon fill-rule="evenodd" clip-rule="evenodd" fill="#FFFFFF" points="0,0 192.756,0 192.756,192.756 0,192.756 0,0 	"/>
	
		<path fill-rule="evenodd" clip-rule="evenodd" fill="#EC008C" stroke="#EC008C" stroke-width="1.0753" stroke-miterlimit="2.6131" d="
		M74.25,5.917c8.1-2.697,15.918,7.158,15.918,7.158l4.587-0.765h5.404c17.21,3.318,30.64,19.46,39.278,30.428
		c4.606,5.889,15.891,10.745,23.089,12.281c3.822,0.836,2.549,0.664,6.405,3.848c4.357,3.575,1.028,9.963-2.832,15.088
		c-1.917,2.554-8.702,10.228-10.771,12.277c-7.172,7.157-23.319,15.833-33.602,21.471c-7.703,4.217-40.921,18.934-52.105,18.934
		c-7.699,0-27.958,0.773-19.5-16.146l3.089-6.123c1.795-4.336,3.841-10.843,3.841-13.796c1.812-9.459-9.481-35.553,0-52.938
		c2.648-4.869,8.042-12.001,7.956-12.53c-1.018-5.889,0-9.476,1.799-13.063C70.177,8.802,69.621,7.454,74.25,5.917L74.25,5.917z"/>
	
		<path fill-rule="evenodd" clip-rule="evenodd" fill="#363E99" stroke="#363E99" stroke-width="0.929" stroke-miterlimit="2.6131" d="
		M106.413,122.521h55.063V83.334C142.809,104.182,111.073,121.252,106.413,122.521L106.413,122.521z"/>
	
		<path fill-rule="evenodd" clip-rule="evenodd" fill="#363E99" stroke="#363E99" stroke-width="0.929" stroke-miterlimit="2.6131" d="
		M80.883,4.45c7.703,1.416,10.196,6.851,9.935,6.717c17.454-2.087,24.613,2.768,33.219,10.35
		c10.315,9.102,17.277,18.776,20.101,21.54c5.814,5.729,12.431,6.725,15.869,6.85c-4.349-12.446-10.572-27.567-31.748-39.294
		C109.063-0.023,84.856,2.795,80.883,4.45L80.883,4.45z"/>
	
		<path fill-rule="evenodd" clip-rule="evenodd" fill="#FFFFFF" stroke="#FFFFFF" stroke-width="0.929" stroke-miterlimit="2.6131" d="
		M89.764,16.056c12.579,0.433,16.136,6.439,16.136,6.439c8.479,7.98,15.094,25.034,21.301,29.65
		c2.382-0.689,4.354-1.39,11.108-1.521c-4.749-0.437-13.084-13.866-13.122-13.958c-2.373-4.368-8.424-13.748-17.433-18.499
		C98.342,13.179,89.764,16.056,89.764,16.056L89.764,16.056z"/>
	
		<path fill-rule="evenodd" clip-rule="evenodd" fill="#363E99" stroke="#363E99" stroke-width="0.929" stroke-miterlimit="2.6131" d="
		M66.739,8.937c-5.71,5.46-5.15,13.282-4.5,16.932c-10.577,9.236-14.02,24.757-13.08,39.971c-0.16,7.703,2.775,19.015,2.235,25.047
		c0.129,3.364-0.255,8.272-5.428,15.942c-4.705,7.057-5.562,11.342-5.792,15.096H28.373c0,0,0-60.386,0-60.541
		C30.621,27.813,56.956,12.839,66.739,8.937L66.739,8.937z"/>
	
		<path fill-rule="evenodd" clip-rule="evenodd" fill="#363E99" stroke="#363E99" stroke-width="0.929" stroke-miterlimit="2.6131" d="
		M70.177,8.802c-5.962,5.595-1.981,14.118-1.981,14.118c0.652-1.109,10.051-6.864,16.005-7.687
		c-22.774,10.001-26.331,22.228-23,43.633c1.445,9.212,3.28,15.101,4.22,24.627c-5.571,4.604-9.117,11.878-9.117,11.878
		c1.311-8.388-2.042-19.767-3.318-30.906c-1.741-14.966,1.323-28.395,11.775-38.9C64.762,25.566,61.177,14.532,70.177,8.802
		L70.177,8.802z"/>
	
		<path fill-rule="evenodd" clip-rule="evenodd" fill="#363E99" stroke="#363E99" stroke-width="0.929" stroke-miterlimit="2.6131" d="
		M102.452,73.967c46.834-22.241,53.458-7.687,53.458-7.687c7.556,16.218-34.917,39.591-37.824,40.698
		c-1.323,1.252-45.656,23.221-55.584,7.133c-0.386-1.402-4.631-12.861,26.324-36.507c15.366-11.765,35.332-19.994,51.863-24.48
		c-8.049,1.125-22.216,2.94-52,19.044c-26.715,15.357-45.486,40.255-40.326,50.353c14.418,13.408,51.577-3.227,68.112-11.342
		c25.149-11.482,60.218-37.494,54.268-52.032C157.638,41.8,102.343,72.997,102.452,73.967L102.452,73.967z"/>
	
		<polygon fill-rule="evenodd" clip-rule="evenodd" fill="#363E99" stroke="#363E99" stroke-width="0.929" stroke-miterlimit="2.6131" points="
		21.365,135.93 57.353,135.93 54.552,141.666 46.112,141.666 46.112,158.594 32.753,158.594 32.753,141.666 24.395,141.666 
		21.365,135.93 	"/>
	<path fill-rule="evenodd" clip-rule="evenodd" fill="#363E99" d="M62.647,135.93h17.334l12.163,22.664H78.523l-1.725-4.477h-11.64
		l-1.963,4.477H49.957L62.647,135.93L62.647,135.93z M67.411,148.514h6.995l-3.404-6.848L67.411,148.514L67.411,148.514z"/>
	<path fill="none" stroke="#363E99" stroke-width="0.929" stroke-miterlimit="2.6131" d="M62.647,135.93h17.334l12.163,22.664
		H78.523l-1.725-4.477h-11.64l-1.963,4.477H49.957L62.647,135.93L62.647,135.93z M67.411,148.514h6.995l-3.404-6.848L67.411,148.514
		L67.411,148.514z"/>
	
		<polygon fill-rule="evenodd" clip-rule="evenodd" fill="#363E99" stroke="#363E99" stroke-width="0.929" stroke-miterlimit="2.6131" points="
		69.781,167.541 101.647,167.541 99.039,172.85 83.024,172.85 83.024,175.941 97.966,175.941 97.966,181.117 83.024,181.117 
		83.024,184.443 100.859,184.443 100.859,189.92 69.781,189.92 69.781,167.541 	"/>
	
		<path fill-rule="evenodd" clip-rule="evenodd" fill="#363E99" stroke="#363E99" stroke-width="0.929" stroke-miterlimit="2.6131" d="
		M103.661,167.541h14.155v16.902h16.919l-2.786,5.477h-24.07c-3.573,0-4.218-3.082-4.218-3.082V167.541L103.661,167.541z"/>
	
		<path fill-rule="evenodd" clip-rule="evenodd" fill="#363E99" stroke="#363E99" stroke-width="0.929" stroke-miterlimit="2.6131" d="
		M136.716,167.541h14.18v16.902h16.91l-2.76,5.477h-24.079c-3.569,0-4.251-3.082-4.251-3.082V167.541L136.716,167.541z"/>
	
		<path fill-rule="evenodd" clip-rule="evenodd" fill="#363E99" stroke="#363E99" stroke-width="0.929" stroke-miterlimit="2.6131" d="
		M121.49,141.666c0,0-9.637-0.697-12.145,0.547c0,0.168-4.644,0.293-4.753,5.039c0.396,6.865,9.237,5.873,9.237,5.873
		c1.85,0.428,9.271-0.814,9.271-0.814v5.713c0,0-5.955,1.125-11.631,1.125c-1.609-0.555-20.52,0.857-20.903-10.635
		c-1.981-13.148,21.287-12.584,21.287-12.584c8.069,0,12.031,0.973,12.031,0.973L121.49,141.666L121.49,141.666z"/>
	<path fill-rule="evenodd" clip-rule="evenodd" fill="#363E99" d="M139.088,147.875c0-3.428,1.467-7.041,5.71-6.906
		c3.308,0,5.554,3.084,5.289,6.865c0.265,3.904-1.585,6.283-5.289,6.283C140.828,154.117,139.088,151.328,139.088,147.875
		L139.088,147.875z M125.063,147.539c0-6.428,8.374-11.609,19.352-11.609c10.938,0,19.848,4.057,19.848,11.609
		c0.101,7.838-8.909,11.609-19.848,11.609C133.438,159.148,124.955,155.1,125.063,147.539L125.063,147.539z"/>
	<path fill="none" stroke="#363E99" stroke-width="0.929" stroke-miterlimit="2.6131" d="M139.088,147.875
		c0-3.428,1.467-7.041,5.71-6.906c3.308,0,5.554,3.084,5.289,6.865c0.265,3.904-1.585,6.283-5.289,6.283
		C140.828,154.117,139.088,151.326,139.088,147.875 M125.063,147.539c0-6.428,8.374-11.609,19.352-11.609
		c10.938,0,19.848,4.057,19.848,11.609c0.101,7.838-8.909,11.609-19.848,11.609C133.438,159.148,124.955,155.1,125.063,147.539"/>
	<path fill-rule="evenodd" clip-rule="evenodd" fill="#363E99" d="M32.753,167.541h26.575c0,0,7.41,0.562,6.757,5.309
		c0.653,4.486-4.111,5.311-4.111,5.311s4.254,0.555,4.764,5.199c0.672,5.721-6.344,6.561-6.344,6.561H32.753V167.541L32.753,167.541
		z M45.568,171.867v4.074h6.625c0,0,2.36,0,1.85-2.242c0-1.547-1.709-1.832-1.709-1.832H45.568v8.688v4.326h6.625
		c0,0,2.916-0.119,2.36-2.379c0-1.385-2.219-1.947-2.219-1.947h-6.766V171.867L45.568,171.867z"/>
	<path fill="none" stroke="#363E99" stroke-width="0.929" stroke-miterlimit="2.6131" d="M32.753,167.541h26.575 M59.329,167.541
		c0,0,7.41,0.562,6.757,5.309c0.653,4.486-4.111,5.311-4.111,5.311s4.254,0.555,4.764,5.199c0.672,5.721-6.344,6.561-6.344,6.561
		 M60.395,189.92H32.753v-22.379 M45.568,171.867v4.074h6.625 M52.192,175.941c0,0,2.36,0,1.85-2.242
		c0-1.547-1.709-1.832-1.709-1.832 M52.333,171.867h-6.765 M45.568,180.555v4.326h6.625 M52.192,184.881c0,0,2.916-0.119,2.36-2.379
		c0-1.385-2.219-1.947-2.219-1.947 M52.333,180.555h-6.765"/>
	
		<path fill-rule="evenodd" clip-rule="evenodd" fill="#363E99" stroke="#363E99" stroke-width="1.0667" stroke-miterlimit="2.6131" d="
		M68.338,111.105c-3.084-6.949,12.96-21.723,35.766-32.972c22.856-11.261,43.834-14.751,46.918-7.779
		c3.06,6.956-12.961,21.712-35.793,32.972C92.391,114.574,71.412,118.068,68.338,111.105L68.338,111.105z"/>
	
		<path fill-rule="evenodd" clip-rule="evenodd" fill="#FFE11B" stroke="#FFE11B" stroke-width="1.0667" stroke-miterlimit="2.6131" d="
		M74.271,100.965c-0.112-0.26,2.526-2.258,2.663-2.258c1.057,1.998,6.209,6.164,18.369,3.375c-8.982,0.572-14.519-7.411-9.781-9.516
		c1.195-0.697,18-10.757,20.377-8.8c3.834,10.644-3.363,19.702-10.979,22.229C88.586,108.098,79.705,108.525,74.271,100.965
		L74.271,100.965z"/>
</g>
</svg>
