<?xml version="1.0" encoding="utf-8"?>
<!-- Generator: Adobe Illustrator 16.0.0, SVG Export Plug-In . SVG Version: 6.00 Build 0)  -->
<!DOCTYPE svg PUBLIC "-//W3C//DTD SVG 1.1//EN" "http://www.w3.org/Graphics/SVG/1.1/DTD/svg11.dtd">
<svg version="1.1" id="Layer_1" xmlns="http://www.w3.org/2000/svg" xmlns:xlink="http://www.w3.org/1999/xlink" x="0px" y="0px"
	 width="68.285px" height="65.988px" viewBox="0 0 68.285 65.988" enable-background="new 0 0 68.285 65.988" xml:space="preserve">
<g>
	<rect fill="#008357" width="68.285" height="65.988"/>
	<path fill="#FFFFFF" d="M57.123,59.755c-0.229,1.081-1.203,1.979-2.227,2.207H43.042c-0.146,0.775,0.057,1.595-0.082,2.37H26.031
		c-0.057,0-0.244,0.02-0.244-0.118c-0.062-0.723,0.041-1.539-0.082-2.252l-12.816-0.021c-0.485-0.061-0.856-0.412-1.265-0.673
		c-0.515-0.474-0.738-1.146-0.882-1.804L5.305,6.468C5.366,5.403,6.227,4.42,7.21,4.114l52.899-0.163
		c0.996,0.146,1.982,0.84,2.326,1.823c0.146,0.444,0.146,0.897,0.105,1.371L57.123,59.755z"/>
	<path fill="#ED1C2E" d="M54.285,23.127c-4.623,2.105-9.244,6.458-10.248,11.59l-0.162,0.081H29.752
		c0.122-0.656,0.367-1.329,0.575-1.966c1.652-5.029,4.536-9.786,8.583-13.571c3.619-3.513,7.588-6.355,11.961-8.379
		c0.779-0.225,1.473-0.674,2.305-0.82c0.375-0.077,0.717-0.204,1.125-0.265L54.285,23.127"/>
	<path fill="#F58220" d="M49.806,10.041c-2.799,1.253-5.459,2.966-7.951,4.989c-2.762,2.19-5.193,4.52-7.404,7.195H14.834v-0.04
		V10.041H49.806z"/>
	<path fill="#008357" d="M40.505,35.818c-0.475,3.373-0.959,6.722-1.551,10.035H34.41l-0.057-0.042
		c-0.489-3.328-1.004-6.686-1.456-9.993h3.129l0.043,0.061c0.389,2.472,0.695,4.985,1.164,7.42c0.451-2.451,0.738-5.005,1.166-7.48
		C39.093,35.777,39.787,35.777,40.505,35.818"/>
	<polyline fill="#008357" points="19.611,37.887 17.208,37.887 17.208,39.644 19.562,39.644 19.562,41.773 17.208,41.773 
		17.208,43.761 19.558,43.761 19.558,45.854 14.056,45.854 14.056,35.769 19.611,35.769 19.611,37.887 	"/>
	<polyline fill="#008357" points="32.277,37.887 29.874,37.887 29.874,39.644 32.229,39.644 32.229,41.773 29.874,41.773 
		29.874,43.761 32.224,43.761 32.224,45.854 26.721,45.854 26.721,35.769 32.277,35.769 32.277,37.887 	"/>
	<polyline fill="#008357" points="46.787,37.887 44.388,37.887 44.388,39.644 46.742,39.644 46.742,41.773 44.388,41.773 
		44.388,43.761 46.734,43.761 46.734,45.854 41.23,45.854 41.23,35.769 46.787,35.769 46.787,37.887 	"/>
	<polyline fill="#008357" points="20.696,35.769 23.854,35.769 23.854,43.761 26.097,43.761 26.097,45.854 20.696,45.854 
		20.696,35.769 	"/>
	<path fill="#008357" d="M50.863,36.932c0.641-0.931,1.398-1.375,2.541-1.375c1.777,0,2.113,1.289,2.113,3.839v6.498h-3.043v-6.339
		c0-0.881-0.059-1.505-0.744-1.505c-0.791,0-0.836,0.696-0.836,1.953v5.891h-3.047V35.798h3.016V36.932"/>
	<path fill="#008357" d="M46.015,49.125c0.332,0,0.625-0.025,0.625-0.425c0-0.314-0.289-0.38-0.562-0.38h-0.531v0.805H46.015
		 M45.546,50.576h-0.391V47.99h0.986c0.607,0,0.91,0.229,0.91,0.739c0,0.46-0.289,0.66-0.67,0.709l0.738,1.138h-0.439l-0.686-1.117
		h-0.449V50.576z M46.019,51.155c1.016,0,1.82-0.795,1.82-1.876c0-1.061-0.805-1.864-1.82-1.864c-1.023,0-1.826,0.804-1.826,1.864
		C44.193,50.36,44.996,51.155,46.019,51.155z M43.744,49.279c0-1.289,1.045-2.235,2.275-2.235c1.225,0,2.266,0.946,2.266,2.235
		c0,1.297-1.041,2.248-2.266,2.248C44.789,51.527,43.744,50.576,43.744,49.279z"/>
	<path fill="#ED1C2E" d="M26.766,63.292l-0.04-0.245c0-1.518,0.081-3.067,0.126-4.561c0.184-3.822,0.449-7.787,0.999-11.549
		l14.657,0.017c-0.51,5.422-0.488,10.88-0.488,16.354L26.766,63.292z"/>
</g>
</svg>
