<?xml version="1.0" encoding="utf-8"?>
<!-- Generator: Adobe Illustrator 16.0.0, SVG Export Plug-In . SVG Version: 6.00 Build 0)  -->
<!DOCTYPE svg PUBLIC "-//W3C//DTD SVG 1.1//EN" "http://www.w3.org/Graphics/SVG/1.1/DTD/svg11.dtd">
<svg version="1.1" id="Layer_1" xmlns="http://www.w3.org/2000/svg" xmlns:xlink="http://www.w3.org/1999/xlink" x="0px" y="0px"
	 width="206.455px" height="166.947px" viewBox="0 0 206.455 166.947" enable-background="new 0 0 206.455 166.947"
	 xml:space="preserve">
<g id="g3025" transform="matrix(0.81996934,0,0,0.81996934,221.46285,80.22154)">
	<path id="path2995" sodipodi:nodetypes="ccccccccccccccccc" inkscape:connector-curvature="0" fill="#059C2C" d="M-258.962,13.514
		l12.42-51.567l117.472-58.919c4.201-1.963,4.351,1.366,3.942,2.515L-139.2-47.492l-11.061,13.429l5.571,2.204l-0.631,13.363
		l-2.162,32.793c1.94,10.962,13.195,8.74,20.671,11.303l7.966-1.636c-3.011,11.359-21.759,27.632-33.905,28.037
		c-13.577,2.275-30.304-2.202-42.647-15.078c-5.112,10.039-10.678,26.437-13.884,39.036l-60.618,29.808
		c5.278-42.213,29.368-78.23,54.838-114.578L-258.962,13.514z"/>
	
		<linearGradient id="path3765_1_" gradientUnits="userSpaceOnUse" x1="-20.6062" y1="-24.8597" x2="-45.2184" y2="22.3692" gradientTransform="matrix(0.7995 0.1821 0.1821 -0.7995 -162.3002 43.2006)">
		<stop  offset="0" style="stop-color:#056A2C"/>
		<stop  offset="1" style="stop-color:#056A2C;stop-opacity:0"/>
	</linearGradient>
	<path id="path3765" sodipodi:nodetypes="ccccccccccccccccc" inkscape:connector-curvature="0" fill="url(#path3765_1_)" d="
		M-259.15,13.257l12.42-51.567l117.471-58.918c4.202-1.963,4.352,1.365,3.943,2.515l-14.071,46.964l-11.062,13.429l3.22,1.616
		l1.72,13.952l-2.162,32.792c1.94,10.962,12.959,9.799,20.434,12.362l8.275-1.927c-7.379,16.7-23.28,26.597-33.035,27.621
		c-13.577,2.277-31.245-2.555-43.588-15.43c-5.112,10.039-10.678,26.435-13.884,39.035l-60.618,29.809
		c5.279-42.213,29.368-78.23,54.838-114.578L-259.15,13.257z"/>
	<path id="path3803" sodipodi:nodetypes="cccccccc" inkscape:connector-curvature="0" fill="#FFFFFF" d="M-240.118-33.57
		l-8.315,33.181l55.599-28.636c-33.655,43.382-56.571,84.806-67.509,122.513l44.205-23.36
		c14.248-41.84,30.955-82.575,67.805-120.999l10.053-33.584L-240.118-33.57z"/>
	<path id="path3805" inkscape:connector-curvature="0" fill="none" stroke="#8C8C8C" d="M-244.362-6.731
		c55.832-28.047,55.832-28.047,55.832-28.047"/>
	<path id="path3811" sodipodi:nodetypes="cccc" inkscape:connector-curvature="0" fill="none" stroke="#8C8C8C" d="M-256.773,86.797
		l37.29-18.453c15.866-44.71,36.597-86.467,69.175-121.029l8.592-28.742"/>
	<g id="g3919" transform="matrix(0.98968505,-0.14326024,0.14326024,0.98968505,-268.14445,-99.364426)">
		
			<path id="path3825" sodipodi:rx="28.845079" sodipodi:ry="25.99227" sodipodi:type="arc" sodipodi:cy="129.39696" sodipodi:cx="87.803154" fill="#AA0000" d="
			M129.01,121.417c0.001,20.008-17.196,36.229-38.41,36.229c-21.213,0-38.409-16.22-38.409-36.229
			c0-20.008,17.196-36.229,38.409-36.229C111.814,85.188,129.011,101.408,129.01,121.417z"/>
		
			<radialGradient id="path3823_1_" cx="46.8984" cy="733.3237" r="30.2656" gradientTransform="matrix(-0.4908 1.6677 1.7902 0.4895 -1200.8882 -318.7591)" gradientUnits="userSpaceOnUse">
			<stop  offset="0" style="stop-color:#FF0000"/>
			<stop  offset="1" style="stop-color:#FF0000;stop-opacity:0"/>
		</radialGradient>
		
			<path id="path3823" sodipodi:rx="28.845079" sodipodi:ry="25.99227" sodipodi:type="arc" sodipodi:cy="129.39696" sodipodi:cx="87.803154" fill="url(#path3823_1_)" d="
			M129.01,120.752c0.001,20.01-17.196,36.229-38.41,36.229c-21.212,0-38.41-16.22-38.41-36.228
			c0.001-20.009,17.197-36.23,38.41-36.23C111.814,84.522,129.011,100.743,129.01,120.752z"/>
		
			<radialGradient id="path3851_1_" cx="-278.8257" cy="828.2714" r="13.3037" gradientTransform="matrix(-0.2654 1.313 1.4128 0.2555 -1155.2698 258.7664)" gradientUnits="userSpaceOnUse">
			<stop  offset="0" style="stop-color:#FFFFFF"/>
			<stop  offset="1" style="stop-color:#FFFFFF;stop-opacity:0"/>
		</radialGradient>
		
			<path id="path3851" sodipodi:rx="12.679156" sodipodi:ry="13.313114" sodipodi:type="arc" sodipodi:cy="-3.1002188" sodipodi:cx="-171.80257" fill="url(#path3851_1_)" d="
			M111.648,105.455c0,13.886-10.723,25.143-23.947,25.143c-13.225,0-23.947-11.257-23.947-25.143
			c0-13.886,10.722-25.143,23.947-25.144C100.926,80.312,111.646,91.569,111.648,105.455z"/>
	</g>
	<path id="path3924" sodipodi:nodetypes="ccccccccccccc" inkscape:connector-curvature="0" fill="#059C2C" d="M-143.89-37.478
		l-1.547,11.198l-3.011,36.851c1.405,14.626,12.472,15.65,19.796,15.267c4.342-0.473,6.579-1.563,10.674-2.396
		c10.492-4.011,16.778-7.554,23.961-13.575l0.166,2.625l35.598-20.937c1.261-0.495,2.445-1.11,2.316-3.814l0.387-17.879
		l21.222-11.349c22.618-11.638,19.738-60.018-6.056-50.356L-143.89-37.478z"/>
	<g id="g3951" transform="matrix(0.97503628,0.22204563,-0.22204563,0.97503628,-236.94948,-188.75798)">
		<g id="g3944">
			
				<linearGradient id="path3926_1_" gradientUnits="userSpaceOnUse" x1="362.3871" y1="182.2537" x2="359.7579" y2="207.3114" gradientTransform="matrix(0.7995 -0.182 -0.182 -0.7995 -69.6023 364.5954)">
				<stop  offset="0" style="stop-color:#056B2C"/>
				<stop  offset="1" style="stop-color:#056B2C;stop-opacity:0"/>
			</linearGradient>
			<path id="path3926" sodipodi:nodetypes="ccccccccccccc" inkscape:connector-curvature="0" fill="url(#path3926_1_)" d="
				M122.64,128.328l4.222,11.728l4.876,35.663c5.325,13.126,13.972,12.129,18.993,11.361c5.091-0.918,8.95-1.409,12.825-3.547
				c9.341-6.242,16.535-12.776,21.094-21.355l0.72,2.785l29.915-28.2c1.12-0.763,2.14-1.625,1.413-4.234l-3.058-15.756
				l17.639-14.581c15.082-12.008,12.98-64.376-18.344-51.502L122.64,128.328z"/>
		</g>
	</g>
	<path id="path3959" sodipodi:nodetypes="cccsccscsc" inkscape:connector-curvature="0" fill="#FFFFFF" d="M-120.751-42.215
		l-20.559,9.79c-0.538,35.52-15.292,63.257,23.812,52.212c15.025-6.205,25.041-17.635,28.146-31.108
		c4.484-19.459,3.436-40.46,4.648-50.921l-19.594,10.267c-1.467,15.115-3.529,27.812-4.153,37.846
		c-0.561,9.049-1.752,14.582-7.247,16.933c-7.994,1.669-9.478-2.019-8.431-10.422C-122.923-17.268-121.877-31.483-120.751-42.215z"
		/>
	<path id="path3961" sodipodi:nodetypes="cccccccc" inkscape:connector-curvature="0" fill="#FFFFFF" d="M-81.496-64.459
		c-1.497,21.002-3.279,42.288-5.085,63.599l23.87-12.289l0.385-20.825l21.666-11.468c8.532-5.988,15.583-14.149,14.387-29.284
		c-1.701-6.401-2.807-13.378-14.923-9.67L-81.496-64.459z"/>
	<path id="path3963" sodipodi:nodetypes="cccc" inkscape:connector-curvature="0" fill="none" stroke="#8C8C8C" d="M-86.808-58.695
		c-1.016,12.735-1.086,35.396-4.28,47.614c-9.494,30.252-42.289,36.216-47.065,28.337l0,0"/>
	<path id="path3965" sodipodi:nodetypes="ccccc" inkscape:connector-curvature="0" fill="#058C2C" d="M-62.132-62.262l-0.662,14.945
		l14.611-8.521c5.311-3.378,5.558-13.426-0.704-11.738L-62.132-62.262z"/>
	<path id="path3967" sodipodi:nodetypes="cccccc" inkscape:connector-curvature="0" fill="none" stroke="#8C8C8C" d="M-83.318-5.665
		l17.988-9.316l-0.051-20.413l22.406-11.54c8.667-5.176,19.387-20.207,11.462-35.498l0,0"/>
	<path id="path3969" sodipodi:nodetypes="cccc" inkscape:connector-curvature="0" fill="none" stroke="#8C8C8C" d="M-65.349-46.693
		l1.117-16.501l14.514-6.561c4.076-0.211,4.515,0.588,5.247,1.316"/>
</g>
</svg>
