<?xml version="1.0" encoding="utf-8"?>
<!-- Generator: Adobe Illustrator 16.0.0, SVG Export Plug-In . SVG Version: 6.00 Build 0)  -->
<!DOCTYPE svg PUBLIC "-//W3C//DTD SVG 1.1//EN" "http://www.w3.org/Graphics/SVG/1.1/DTD/svg11.dtd">
<svg version="1.1" id="Layer_1" xmlns="http://www.w3.org/2000/svg" xmlns:xlink="http://www.w3.org/1999/xlink" x="0px" y="0px"
	 width="265.124px" height="135.146px" viewBox="0 0 265.124 135.146" enable-background="new 0 0 265.124 135.146"
	 xml:space="preserve">
<g>
	<g>
		<g>
			<path fill="#4B721D" d="M3.564,120.729c0.614,0,1.193,0.055,1.737,0.162c0.733,0.146,1.099,0.456,1.099,0.931
				c0,0.157-0.036,0.274-0.109,0.353s-0.257,0.193-0.554,0.344c-0.248,0.124-0.411,0.396-0.489,0.817
				c-0.078,0.421-0.117,1.242-0.117,2.461c0,2.062,0.051,3.338,0.153,3.829c0.038,0.156,0.096,0.276,0.174,0.36
				s0.214,0.174,0.408,0.271c0.355,0.161,0.533,0.396,0.533,0.704c0,0.432-0.329,0.729-0.986,0.891
				c-0.711,0.172-1.582,0.259-2.61,0.259c-1.756,0-2.635-0.335-2.635-1.004c0-0.243,0.172-0.47,0.518-0.68
				c0.264-0.162,0.42-0.384,0.469-0.664c0.102-0.615,0.153-1.921,0.153-3.918c0-1.382-0.07-2.267-0.21-2.655
				c-0.076-0.221-0.256-0.421-0.542-0.599c-0.221-0.146-0.369-0.268-0.444-0.364C0.038,122.13,0,122.006,0,121.855
				c0-0.232,0.112-0.417,0.335-0.555c0.223-0.138,0.618-0.261,1.184-0.368C2.193,120.798,2.874,120.729,3.564,120.729z"/>
			<path fill="#4B721D" d="M11.734,126.008v2.736c0,0.323,0.08,0.588,0.238,0.793c0.159,0.205,0.362,0.308,0.61,0.308
				c0.21,0,0.487-0.098,0.833-0.292c0.081-0.048,0.162-0.072,0.242-0.072c0.129,0,0.248,0.078,0.355,0.234
				c0.108,0.157,0.162,0.327,0.162,0.51c0,0.335-0.183,0.656-0.549,0.964c-0.765,0.653-1.692,0.979-2.78,0.979
				c-0.862,0-1.555-0.244-2.077-0.732s-0.784-1.132-0.784-1.931v-3.74c0-0.124-0.015-0.201-0.044-0.23
				c-0.03-0.029-0.107-0.045-0.23-0.045H6.877c-0.156,0-0.256-0.025-0.299-0.076c-0.043-0.052-0.065-0.172-0.065-0.36v-0.356
				c0.005-0.162,0.067-0.28,0.186-0.356l3.701-2.331c0.092-0.049,0.205-0.073,0.339-0.073h0.655c0.135,0,0.225,0.031,0.271,0.094
				c0.046,0.062,0.069,0.185,0.069,0.368v1.093c0,0.162,0.025,0.267,0.077,0.315s0.161,0.073,0.328,0.073h1.495
				c0.199,0,0.328,0.036,0.388,0.109c0.059,0.072,0.089,0.228,0.089,0.465v0.478c0,0.26-0.038,0.438-0.113,0.539
				c-0.075,0.1-0.213,0.149-0.412,0.149h-1.462c-0.151,0-0.253,0.027-0.307,0.081C11.761,125.754,11.734,125.856,11.734,126.008z"/>
			<path fill="#4B721D" d="M16.623,120.682c0.571,0,1.04,0.224,1.406,0.672c0.323,0.394,0.485,0.863,0.485,1.408
				c0,0.647-0.166,1.308-0.497,1.979s-0.793,1.288-1.386,1.85c-0.329,0.308-0.636,0.461-0.921,0.461
				c-0.194,0-0.368-0.053-0.521-0.158c-0.153-0.104-0.23-0.225-0.23-0.359c0-0.081,0.054-0.173,0.162-0.275
				c0.345-0.356,0.586-0.651,0.724-0.887c0.137-0.234,0.206-0.474,0.206-0.716c0-0.173-0.092-0.327-0.275-0.462
				c-0.339-0.27-0.581-0.528-0.723-0.777c-0.143-0.248-0.214-0.542-0.214-0.882c0-0.534,0.168-0.976,0.505-1.323
				C15.679,120.863,16.106,120.687,16.623,120.682z"/>
			<path fill="#4B721D" d="M22.595,123.887c0.27,0,0.708,0.06,1.317,0.178c0.124,0.022,0.226,0.033,0.307,0.033
				c0.091,0,0.27-0.049,0.533-0.146c0.124-0.048,0.229-0.072,0.315-0.072c0.248,0,0.498,0.159,0.751,0.478
				c0.205,0.254,0.372,0.531,0.501,0.834c0.129,0.302,0.194,0.563,0.194,0.785c0,0.216-0.075,0.396-0.226,0.538
				s-0.339,0.215-0.566,0.215c-0.188,0-0.357-0.046-0.505-0.138c-0.148-0.092-0.387-0.294-0.715-0.607
				c-0.345-0.335-0.63-0.502-0.856-0.502c-0.151,0-0.282,0.056-0.392,0.166s-0.166,0.241-0.166,0.393
				c0,0.265,0.253,0.513,0.76,0.745c0.91,0.41,1.608,0.857,2.093,1.344c0.41,0.41,0.614,0.912,0.614,1.505
				c0,0.75-0.329,1.376-0.986,1.878c-0.566,0.438-1.258,0.656-2.077,0.656c-0.21,0-0.593-0.035-1.147-0.105
				c-0.522-0.06-0.816-0.089-0.881-0.089c-0.07,0-0.151,0.008-0.242,0.024c-0.157,0.021-0.27,0.032-0.34,0.032
				c-0.253,0-0.452-0.064-0.598-0.194c-0.221-0.199-0.426-0.514-0.614-0.943c-0.188-0.429-0.283-0.797-0.283-1.104
				c0-0.497,0.194-0.745,0.582-0.745c0.151,0,0.29,0.05,0.417,0.15c0.126,0.1,0.392,0.365,0.796,0.797
				c0.221,0.237,0.404,0.4,0.549,0.49c0.146,0.089,0.302,0.133,0.469,0.133c0.178,0,0.321-0.047,0.428-0.142
				c0.108-0.094,0.162-0.22,0.162-0.376c0-0.243-0.207-0.464-0.622-0.664c-0.868-0.426-1.494-0.866-1.879-1.319
				s-0.578-0.977-0.578-1.57c0-0.643,0.196-1.195,0.59-1.659C20.86,124.219,21.625,123.887,22.595,123.887z"/>
			<path fill="#4B721D" d="M36.002,123.879c0.938,0,1.732,0.237,2.384,0.712c0.345,0.254,0.586,0.544,0.723,0.87
				c0.138,0.327,0.206,0.776,0.206,1.348l-0.016,1.207c0,0.836,0.059,1.379,0.178,1.627c0.06,0.118,0.116,0.194,0.17,0.227
				c0.054,0.032,0.167,0.062,0.339,0.089s0.259,0.141,0.259,0.34c0,0.259-0.104,0.529-0.312,0.81
				c-0.207,0.28-0.476,0.516-0.804,0.704c-0.404,0.237-0.827,0.356-1.269,0.356c-0.565,0-1.013-0.194-1.341-0.583
				c-0.113-0.141-0.218-0.211-0.315-0.211c-0.108,0-0.25,0.068-0.428,0.203c-0.539,0.394-1.15,0.591-1.834,0.591
				c-0.706,0-1.277-0.151-1.713-0.453c-0.286-0.2-0.512-0.46-0.679-0.781s-0.25-0.657-0.25-1.008c0-0.562,0.226-1.058,0.679-1.489
				c0.706-0.681,1.762-1.023,3.168-1.028c0.312,0,0.509-0.031,0.59-0.093c0.081-0.062,0.122-0.207,0.122-0.434
				c0-0.572-0.06-0.986-0.178-1.242c-0.118-0.257-0.312-0.385-0.582-0.385c-0.162,0-0.306,0.049-0.433,0.146
				c-0.126,0.098-0.284,0.275-0.473,0.534c-0.479,0.686-0.98,1.028-1.503,1.028c-0.264,0-0.48-0.078-0.646-0.234
				c-0.167-0.157-0.251-0.362-0.251-0.615c0-0.26,0.104-0.519,0.312-0.777c0.207-0.259,0.489-0.486,0.844-0.68
				C33.923,124.138,34.941,123.879,36.002,123.879z M35.461,128.565c-0.237,0-0.443,0.098-0.619,0.292
				c-0.175,0.194-0.263,0.426-0.263,0.695c0,0.26,0.062,0.469,0.186,0.628s0.288,0.238,0.493,0.238c0.431,0,0.646-0.364,0.646-1.093
				c0-0.297-0.031-0.496-0.093-0.599C35.751,128.625,35.634,128.571,35.461,128.565z"/>
			<path fill="#4B721D" d="M54.202,130.549l-0.832-1.336c-0.194-0.302-0.319-0.482-0.376-0.542s-0.131-0.089-0.222-0.089
				c-0.194,0-0.394,0.178-0.598,0.534l-1.35,2.331c-0.259,0.448-0.549,0.672-0.873,0.672c-0.2,0-0.383-0.068-0.55-0.206
				s-0.348-0.371-0.542-0.7l-2.424-4.04c-0.404-0.652-0.719-1.079-0.945-1.278c-0.108-0.087-0.305-0.17-0.59-0.251
				c-0.118-0.038-0.217-0.112-0.295-0.223s-0.117-0.233-0.117-0.368c0-0.416,0.321-0.707,0.962-0.875
				c0.646-0.161,1.352-0.242,2.117-0.242c1.719,0,2.578,0.321,2.578,0.963c0,0.119-0.083,0.3-0.25,0.543
				c-0.032,0.048-0.049,0.1-0.049,0.153c0,0.119,0.127,0.413,0.38,0.883c0.28,0.534,0.522,0.801,0.728,0.801
				c0.118,0,0.27-0.135,0.453-0.404c0.183-0.271,0.274-0.488,0.274-0.656c0-0.167-0.04-0.301-0.121-0.4
				c-0.081-0.1-0.272-0.258-0.574-0.474c-0.183-0.13-0.275-0.283-0.275-0.461c0-0.421,0.431-0.696,1.293-0.826
				c0.522-0.081,1.137-0.121,1.842-0.121c0.813,0,1.401,0.068,1.762,0.206s0.542,0.36,0.542,0.668c0,0.124-0.021,0.224-0.064,0.3
				c-0.043,0.075-0.159,0.21-0.348,0.404c-0.06,0.064-0.089,0.148-0.089,0.251c0,0.146,0.124,0.453,0.372,0.923
				c0.215,0.41,0.412,0.615,0.59,0.615c0.194,0,0.439-0.262,0.736-0.785c0.215-0.394,0.323-0.655,0.323-0.785
				c0-0.103-0.086-0.262-0.259-0.478c-0.124-0.151-0.186-0.315-0.186-0.494c0-0.28,0.126-0.475,0.38-0.583
				c0.355-0.156,0.873-0.234,1.552-0.234c0.458,0,0.865,0.035,1.22,0.105c0.205,0.043,0.372,0.131,0.501,0.263
				c0.129,0.133,0.194,0.285,0.194,0.458s-0.076,0.318-0.227,0.437c-0.027,0.027-0.215,0.103-0.565,0.227
				c-0.2,0.076-0.364,0.184-0.493,0.324s-0.286,0.392-0.469,0.753l-2.021,3.918c-0.593,1.144-1.115,1.716-1.568,1.716
				c-0.194,0-0.408-0.123-0.642-0.368C54.853,131.529,54.558,131.121,54.202,130.549z"/>
			<path fill="#4B721D" d="M65.766,121.297l-0.105,3.392c-0.011,0.404,0.113,0.606,0.372,0.606c0.129,0,0.256-0.089,0.38-0.267
				c0.522-0.761,1.22-1.142,2.093-1.142c0.856,0,1.538,0.262,2.044,0.785c0.227,0.232,0.387,0.508,0.481,0.826
				s0.147,0.774,0.158,1.367l0.073,2.923c0.005,0.254,0.039,0.439,0.101,0.559c0.062,0.118,0.206,0.267,0.432,0.445
				c0.156,0.124,0.234,0.272,0.234,0.445c0,0.582-0.878,0.874-2.635,0.874c-1.562,0-2.343-0.272-2.343-0.817
				c0-0.092,0.013-0.162,0.041-0.211c0.027-0.049,0.121-0.178,0.283-0.389c0.226-0.297,0.339-1.039,0.339-2.226
				c0-0.718-0.067-1.241-0.202-1.57c-0.178-0.448-0.496-0.672-0.954-0.672c-0.329,0-0.571,0.118-0.727,0.355
				c-0.113,0.173-0.17,0.497-0.17,0.972v1.562c0.038,0.69,0.07,1.082,0.097,1.174c0.027,0.092,0.15,0.262,0.372,0.51
				c0.102,0.113,0.153,0.245,0.153,0.396c0,0.61-0.792,0.915-2.376,0.915c-1.853,0-2.78-0.315-2.78-0.947
				c0-0.146,0.03-0.258,0.089-0.336s0.205-0.198,0.437-0.36c0.205-0.146,0.346-0.538,0.424-1.178s0.117-1.698,0.117-3.177
				c0-1.16-0.032-1.965-0.097-2.413c-0.021-0.167-0.061-0.29-0.117-0.368s-0.163-0.157-0.319-0.238
				c-0.334-0.173-0.501-0.373-0.501-0.6c0-0.27,0.126-0.488,0.38-0.655s0.738-0.348,1.455-0.542c0.97-0.271,1.743-0.405,2.319-0.405
				C65.626,120.892,65.777,121.026,65.766,121.297z"/>
			<path fill="#4B721D" d="M77.509,123.879c0.986,0,1.851,0.256,2.594,0.769c0.533,0.367,0.961,0.845,1.285,1.433
				c0.334,0.615,0.501,1.258,0.501,1.927c0,1.171-0.536,2.167-1.608,2.987c-1.024,0.782-2.196,1.174-3.516,1.174
				c-1.288,0-2.33-0.367-3.127-1.102c-0.776-0.712-1.164-1.64-1.164-2.784c0-1.273,0.474-2.315,1.422-3.125
				C74.888,124.305,76.092,123.879,77.509,123.879z M76.862,125.749c-0.237,0-0.427,0.087-0.57,0.263
				c-0.143,0.176-0.214,0.409-0.214,0.7c0,0.324,0.061,0.765,0.182,1.323s0.265,1.054,0.432,1.485
				c0.167,0.442,0.439,0.664,0.816,0.664c0.479,0,0.719-0.305,0.719-0.915c0-0.453-0.061-0.969-0.182-1.546
				c-0.122-0.577-0.269-1.047-0.441-1.408C77.428,125.948,77.18,125.76,76.862,125.749z"/>
			<path fill="#4B721D" d="M87.085,125.53v2.599c0,1.149,0.018,1.818,0.053,2.007c0.035,0.189,0.168,0.335,0.4,0.438
				c0.199,0.086,0.333,0.167,0.4,0.243c0.067,0.075,0.101,0.183,0.101,0.323c0,0.178-0.063,0.34-0.19,0.485
				c-0.126,0.146-0.295,0.249-0.505,0.308c-0.388,0.119-1.042,0.179-1.964,0.179c-1.04,0-1.77-0.078-2.19-0.235
				c-0.194-0.069-0.353-0.179-0.477-0.327c-0.124-0.148-0.186-0.304-0.186-0.466c0-0.13,0.034-0.229,0.101-0.3
				c0.067-0.069,0.214-0.153,0.44-0.251c0.21-0.091,0.339-0.342,0.388-0.752c0.086-0.702,0.129-1.7,0.129-2.995
				c0-1.317-0.038-2.164-0.113-2.542c-0.075-0.378-0.264-0.658-0.565-0.842c-0.227-0.13-0.381-0.253-0.465-0.368
				c-0.083-0.116-0.125-0.258-0.125-0.426c0-0.264,0.127-0.495,0.38-0.691c0.253-0.197,0.657-0.379,1.212-0.547
				c0.372-0.113,0.854-0.221,1.447-0.323c0.592-0.103,1.023-0.154,1.293-0.154c0.425,0,0.638,0.265,0.638,0.793
				c0,0.173-0.027,0.57-0.081,1.19C87.136,123.841,87.096,124.726,87.085,125.53z"/>
			<path fill="#4B721D" d="M95.983,128.322h-3.798c-0.167,0-0.25,0.073-0.25,0.219c0,0.352,0.19,0.682,0.57,0.992
				s0.788,0.465,1.224,0.465c0.259,0,0.545-0.05,0.861-0.149c0.315-0.1,0.575-0.223,0.78-0.368c0.183-0.13,0.329-0.194,0.437-0.194
				c0.14,0,0.277,0.086,0.412,0.259s0.202,0.351,0.202,0.534c0,0.389-0.243,0.764-0.728,1.125c-0.856,0.643-1.845,0.964-2.966,0.964
				c-1.131,0-2.08-0.329-2.845-0.987c-0.372-0.324-0.679-0.716-0.921-1.174c-0.318-0.61-0.477-1.252-0.477-1.927
				c0-0.907,0.274-1.722,0.824-2.444c0.474-0.626,1.078-1.094,1.81-1.4c0.55-0.232,1.145-0.349,1.786-0.349
				c1.023,0,1.894,0.291,2.61,0.874c0.361,0.292,0.652,0.637,0.873,1.036c0.253,0.453,0.38,0.896,0.38,1.328
				c0,0.351-0.073,0.638-0.218,0.861C96.403,128.211,96.214,128.322,95.983,128.322z M92.395,126.809h0.816
				c0.345,0,0.517-0.158,0.517-0.478c0-0.291-0.083-0.528-0.25-0.712s-0.385-0.275-0.654-0.275c-0.302,0-0.539,0.119-0.711,0.356
				c-0.162,0.221-0.242,0.445-0.242,0.672c0,0.162,0.039,0.275,0.117,0.34S92.201,126.809,92.395,126.809z"/>
			<path fill="#4B721D" d="M111.232,126.874l0.113,2.85c0.011,0.216,0.044,0.375,0.101,0.478c0.056,0.103,0.222,0.299,0.497,0.591
				c0.081,0.086,0.121,0.207,0.121,0.364c0,0.355-0.213,0.604-0.639,0.744c-0.425,0.141-1.185,0.211-2.279,0.211
				c-0.744,0-1.269-0.065-1.576-0.194c-0.318-0.135-0.477-0.354-0.477-0.656c0-0.107,0.016-0.188,0.048-0.238
				c0.033-0.052,0.14-0.177,0.323-0.377c0.216-0.227,0.323-0.981,0.323-2.266c0-0.745-0.086-1.296-0.258-1.651
				c-0.14-0.286-0.399-0.43-0.776-0.43c-0.361,0-0.609,0.116-0.744,0.349c-0.135,0.231-0.202,0.652-0.202,1.263v1.603
				c0,0.318,0.021,0.537,0.061,0.655c0.04,0.119,0.173,0.349,0.4,0.688c0.059,0.097,0.089,0.208,0.089,0.332
				c0,0.318-0.221,0.553-0.663,0.704c-0.442,0.151-1.131,0.227-2.069,0.227c-1.498,0-2.247-0.311-2.247-0.931
				c0-0.13,0.022-0.229,0.068-0.296s0.155-0.163,0.328-0.287c0.14-0.103,0.229-0.22,0.267-0.353
				c0.038-0.132,0.073-0.457,0.105-0.975c0.038-0.615,0.057-1.261,0.057-1.935c0-0.373-0.028-0.617-0.085-0.733
				c-0.057-0.115-0.22-0.257-0.489-0.425c-0.232-0.146-0.348-0.323-0.348-0.534c0-0.216,0.094-0.393,0.283-0.53
				s0.577-0.312,1.164-0.521c0.517-0.184,1.015-0.339,1.495-0.466c0.479-0.127,0.808-0.19,0.986-0.19
				c0.162,0,0.297,0.06,0.408,0.178c0.11,0.119,0.166,0.26,0.166,0.421c0,0.017-0.003,0.084-0.008,0.203
				c-0.005,0.043-0.008,0.081-0.008,0.113c0,0.259,0.107,0.389,0.323,0.389c0.129,0,0.267-0.103,0.412-0.308
				c0.463-0.669,1.137-1.004,2.021-1.004c0.679,0,1.26,0.178,1.746,0.534c0.339,0.254,0.576,0.552,0.711,0.895
				S111.2,126.21,111.232,126.874z"/>
			<path fill="#4B721D" d="M120.001,128.322h-3.798c-0.167,0-0.25,0.073-0.25,0.219c0,0.352,0.19,0.682,0.57,0.992
				s0.788,0.465,1.224,0.465c0.259,0,0.545-0.05,0.861-0.149c0.315-0.1,0.575-0.223,0.78-0.368c0.183-0.13,0.329-0.194,0.437-0.194
				c0.14,0,0.277,0.086,0.412,0.259s0.202,0.351,0.202,0.534c0,0.389-0.243,0.764-0.728,1.125c-0.856,0.643-1.845,0.964-2.966,0.964
				c-1.131,0-2.08-0.329-2.845-0.987c-0.372-0.324-0.679-0.716-0.921-1.174c-0.318-0.61-0.477-1.252-0.477-1.927
				c0-0.907,0.274-1.722,0.824-2.444c0.474-0.626,1.078-1.094,1.81-1.4c0.55-0.232,1.145-0.349,1.786-0.349
				c1.023,0,1.894,0.291,2.61,0.874c0.361,0.292,0.652,0.637,0.873,1.036c0.253,0.453,0.38,0.896,0.38,1.328
				c0,0.351-0.073,0.638-0.218,0.861C120.421,128.211,120.232,128.322,120.001,128.322z M116.413,126.809h0.816
				c0.345,0,0.517-0.158,0.517-0.478c0-0.291-0.083-0.528-0.25-0.712s-0.385-0.275-0.654-0.275c-0.302,0-0.539,0.119-0.711,0.356
				c-0.162,0.221-0.242,0.445-0.242,0.672c0,0.162,0.039,0.275,0.117,0.34S116.219,126.809,116.413,126.809z"/>
			<path fill="#4B721D" d="M130.507,130.549l-0.832-1.336c-0.194-0.302-0.319-0.482-0.376-0.542s-0.131-0.089-0.222-0.089
				c-0.194,0-0.394,0.178-0.598,0.534l-1.35,2.331c-0.259,0.448-0.549,0.672-0.873,0.672c-0.2,0-0.383-0.068-0.55-0.206
				s-0.348-0.371-0.542-0.7l-2.424-4.04c-0.404-0.652-0.719-1.079-0.945-1.278c-0.108-0.087-0.305-0.17-0.59-0.251
				c-0.118-0.038-0.217-0.112-0.295-0.223s-0.117-0.233-0.117-0.368c0-0.416,0.321-0.707,0.962-0.875
				c0.646-0.161,1.352-0.242,2.117-0.242c1.719,0,2.578,0.321,2.578,0.963c0,0.119-0.083,0.3-0.25,0.543
				c-0.032,0.048-0.049,0.1-0.049,0.153c0,0.119,0.127,0.413,0.38,0.883c0.28,0.534,0.522,0.801,0.728,0.801
				c0.118,0,0.27-0.135,0.453-0.404c0.183-0.271,0.274-0.488,0.274-0.656c0-0.167-0.04-0.301-0.121-0.4
				c-0.081-0.1-0.272-0.258-0.574-0.474c-0.183-0.13-0.275-0.283-0.275-0.461c0-0.421,0.431-0.696,1.293-0.826
				c0.522-0.081,1.137-0.121,1.842-0.121c0.813,0,1.401,0.068,1.762,0.206s0.541,0.36,0.541,0.668c0,0.124-0.021,0.224-0.064,0.3
				c-0.043,0.075-0.158,0.21-0.348,0.404c-0.059,0.064-0.09,0.148-0.09,0.251c0,0.146,0.125,0.453,0.373,0.923
				c0.215,0.41,0.412,0.615,0.59,0.615c0.193,0,0.439-0.262,0.734-0.785c0.217-0.394,0.324-0.655,0.324-0.785
				c0-0.103-0.086-0.262-0.258-0.478c-0.125-0.151-0.188-0.315-0.188-0.494c0-0.28,0.127-0.475,0.381-0.583
				c0.355-0.156,0.873-0.234,1.551-0.234c0.459,0,0.865,0.035,1.221,0.105c0.205,0.043,0.371,0.131,0.502,0.263
				c0.129,0.133,0.193,0.285,0.193,0.458s-0.076,0.318-0.227,0.437c-0.027,0.027-0.215,0.103-0.566,0.227
				c-0.199,0.076-0.363,0.184-0.492,0.324s-0.285,0.392-0.469,0.753l-2.02,3.918c-0.594,1.144-1.115,1.716-1.568,1.716
				c-0.194,0-0.408-0.123-0.643-0.368C131.158,131.529,130.863,131.121,130.507,130.549z"/>
			<path fill="#4B721D" d="M151.519,126.874l0.112,2.85c0.011,0.216,0.045,0.375,0.102,0.478s0.222,0.299,0.497,0.591
				c0.081,0.086,0.121,0.207,0.121,0.364c0,0.355-0.213,0.604-0.639,0.744c-0.426,0.141-1.186,0.211-2.279,0.211
				c-0.743,0-1.269-0.065-1.575-0.194c-0.318-0.135-0.477-0.354-0.477-0.656c0-0.107,0.016-0.188,0.048-0.238
				c0.032-0.052,0.141-0.177,0.323-0.377c0.216-0.227,0.323-0.981,0.323-2.266c0-0.745-0.086-1.296-0.259-1.651
				c-0.14-0.286-0.398-0.43-0.775-0.43c-0.361,0-0.609,0.116-0.743,0.349c-0.135,0.231-0.202,0.652-0.202,1.263v1.603
				c0,0.318,0.02,0.537,0.061,0.655c0.04,0.119,0.174,0.349,0.399,0.688c0.06,0.097,0.089,0.208,0.089,0.332
				c0,0.318-0.221,0.553-0.662,0.704c-0.442,0.151-1.132,0.227-2.069,0.227c-1.497,0-2.246-0.311-2.246-0.931
				c0-0.13,0.022-0.229,0.068-0.296s0.155-0.163,0.327-0.287c0.141-0.103,0.229-0.22,0.267-0.353
				c0.038-0.132,0.073-0.457,0.105-0.975c0.038-0.615,0.057-1.261,0.057-1.935c0-0.373-0.028-0.617-0.085-0.733
				c-0.057-0.115-0.22-0.257-0.489-0.425c-0.231-0.146-0.347-0.323-0.347-0.534c0-0.216,0.094-0.393,0.282-0.53
				s0.576-0.312,1.164-0.521c0.517-0.184,1.016-0.339,1.495-0.466s0.808-0.19,0.985-0.19c0.162,0,0.298,0.06,0.408,0.178
				c0.11,0.119,0.166,0.26,0.166,0.421c0,0.017-0.003,0.084-0.008,0.203c-0.006,0.043-0.009,0.081-0.009,0.113
				c0,0.259,0.108,0.389,0.323,0.389c0.13,0,0.267-0.103,0.412-0.308c0.464-0.669,1.137-1.004,2.021-1.004
				c0.679,0,1.261,0.178,1.746,0.534c0.339,0.254,0.576,0.552,0.711,0.895S151.486,126.21,151.519,126.874z"/>
			<path fill="#4B721D" d="M160.287,128.322h-3.799c-0.167,0-0.25,0.073-0.25,0.219c0,0.352,0.189,0.682,0.569,0.992
				s0.788,0.465,1.225,0.465c0.259,0,0.546-0.05,0.86-0.149c0.315-0.1,0.575-0.223,0.78-0.368c0.183-0.13,0.328-0.194,0.437-0.194
				c0.14,0,0.277,0.086,0.412,0.259s0.202,0.351,0.202,0.534c0,0.389-0.242,0.764-0.728,1.125c-0.856,0.643-1.846,0.964-2.966,0.964
				c-1.132,0-2.08-0.329-2.845-0.987c-0.372-0.324-0.679-0.716-0.921-1.174c-0.318-0.61-0.478-1.252-0.478-1.927
				c0-0.907,0.275-1.722,0.824-2.444c0.475-0.626,1.078-1.094,1.811-1.4c0.55-0.232,1.145-0.349,1.786-0.349
				c1.023,0,1.894,0.291,2.61,0.874c0.361,0.292,0.651,0.637,0.873,1.036c0.253,0.453,0.38,0.896,0.38,1.328
				c0,0.351-0.073,0.638-0.219,0.861C160.707,128.211,160.518,128.322,160.287,128.322z M156.699,126.809h0.815
				c0.345,0,0.518-0.158,0.518-0.478c0-0.291-0.084-0.528-0.25-0.712c-0.168-0.184-0.386-0.275-0.655-0.275
				c-0.302,0-0.538,0.119-0.711,0.356c-0.161,0.221-0.242,0.445-0.242,0.672c0,0.162,0.039,0.275,0.117,0.34
				S156.504,126.809,156.699,126.809z"/>
			<path fill="#4B721D" d="M166.089,124.445v4.703c0,0.372,0.033,0.645,0.101,0.817s0.203,0.332,0.408,0.478
				c0.167,0.119,0.278,0.22,0.335,0.304s0.085,0.19,0.085,0.319c0,0.696-0.881,1.045-2.643,1.045c-0.948,0-1.699-0.076-2.255-0.227
				c-0.188-0.054-0.341-0.148-0.456-0.283c-0.116-0.135-0.174-0.289-0.174-0.462c0-0.146,0.029-0.259,0.089-0.34
				s0.21-0.211,0.452-0.389c0.167-0.124,0.286-0.326,0.355-0.607c0.07-0.28,0.105-0.698,0.105-1.254c0-0.179-0.012-0.512-0.036-1
				s-0.042-0.773-0.053-0.854c-0.032-0.221-0.184-0.391-0.452-0.51c-0.335-0.146-0.501-0.361-0.501-0.647
				c0-0.34,0.218-0.594,0.654-0.761c0.604-0.232,1.25-0.429,1.939-0.591s1.223-0.243,1.6-0.243
				C165.941,123.943,166.089,124.11,166.089,124.445z M164.489,120.899c0.469,0,0.841,0.088,1.115,0.264
				c0.274,0.175,0.412,0.411,0.412,0.708c0,0.416-0.207,0.745-0.622,0.987c-0.657,0.384-1.452,0.575-2.384,0.575
				c-0.394,0-0.706-0.075-0.938-0.227c-0.312-0.194-0.469-0.464-0.469-0.81c0-0.464,0.331-0.828,0.994-1.093
				C163.271,121.035,163.902,120.899,164.489,120.899z"/>
			<path fill="#4B721D" d="M176.085,123.449c0.135,0,0.253,0.077,0.355,0.231c0.103,0.153,0.154,0.333,0.154,0.538
				c0,0.222-0.069,0.473-0.206,0.753c-0.138,0.28-0.304,0.505-0.497,0.672c-0.124,0.107-0.187,0.194-0.187,0.259
				c0,0.017,0.006,0.081,0.017,0.194c0.016,0.113,0.024,0.216,0.024,0.308c0,0.643-0.216,1.182-0.646,1.619
				c-0.389,0.389-0.888,0.69-1.499,0.906c-0.612,0.216-1.284,0.324-2.017,0.324c-0.178,0-0.354-0.011-0.525-0.032
				c-0.141-0.017-0.248-0.024-0.323-0.024c-0.286,0-0.429,0.143-0.429,0.429c0,0.184,0.093,0.328,0.279,0.434
				c0.186,0.104,0.438,0.157,0.756,0.157c0.215,0,0.533-0.029,0.953-0.089c0.884-0.124,1.535-0.187,1.956-0.187
				c0.636,0,1.128,0.105,1.479,0.316c0.28,0.161,0.502,0.388,0.667,0.68c0.164,0.291,0.246,0.604,0.246,0.938
				c0,0.545-0.199,1.074-0.598,1.587c-0.475,0.604-1.172,1.053-2.093,1.344c-0.723,0.227-1.558,0.34-2.506,0.34
				c-1.196,0-2.166-0.184-2.909-0.55c-0.345-0.173-0.619-0.399-0.824-0.681c-0.205-0.28-0.308-0.572-0.308-0.874
				c0-0.21,0.059-0.404,0.174-0.583c0.116-0.178,0.263-0.305,0.44-0.38c0.162-0.065,0.243-0.135,0.243-0.211
				c0-0.06-0.067-0.146-0.202-0.259c-0.432-0.361-0.646-0.736-0.646-1.125c0-0.26,0.104-0.526,0.311-0.802
				c0.208-0.275,0.465-0.488,0.772-0.64c0.129-0.064,0.193-0.129,0.193-0.194c0-0.075-0.081-0.188-0.242-0.34
				c-0.555-0.513-0.832-1.111-0.832-1.797c0-0.361,0.098-0.707,0.295-1.036c0.196-0.329,0.47-0.609,0.82-0.842
				c0.867-0.566,1.829-0.85,2.885-0.85c0.42,0,0.889,0.054,1.406,0.161c0.49,0.098,0.827,0.146,1.01,0.146
				c0.588,0,1.172-0.232,1.754-0.696C175.916,123.498,176.015,123.449,176.085,123.449z M169.936,132.491
				c-0.135,0-0.202,0.078-0.202,0.235c0,0.318,0.172,0.576,0.517,0.772c0.345,0.197,0.792,0.296,1.342,0.296
				c0.528,0,0.941-0.07,1.24-0.211c0.3-0.14,0.449-0.337,0.449-0.591c0-0.135-0.057-0.249-0.17-0.344s-0.254-0.142-0.42-0.142
				c-0.087,0-0.211,0.011-0.372,0.032c-0.302,0.049-0.639,0.073-1.011,0.073c-0.274,0-0.538-0.014-0.792-0.041
				c-0.188-0.016-0.342-0.037-0.46-0.064C170.003,132.497,169.962,132.491,169.936,132.491z M171.698,125.125
				c-0.27,0-0.486,0.103-0.65,0.308c-0.165,0.205-0.247,0.478-0.247,0.817c0,0.583,0.089,1.05,0.267,1.401
				c0.178,0.351,0.412,0.525,0.703,0.525c0.286,0,0.512-0.109,0.679-0.327c0.167-0.219,0.251-0.512,0.251-0.879
				c0-0.577-0.088-1.026-0.263-1.348S172.015,125.136,171.698,125.125z"/>
			<path fill="#4B721D" d="M181.557,121.297l-0.105,3.392c-0.011,0.404,0.113,0.606,0.372,0.606c0.129,0,0.256-0.089,0.38-0.267
				c0.522-0.761,1.22-1.142,2.093-1.142c0.856,0,1.538,0.262,2.045,0.785c0.226,0.232,0.386,0.508,0.48,0.826
				c0.094,0.318,0.146,0.774,0.157,1.367l0.073,2.923c0.005,0.254,0.039,0.439,0.101,0.559c0.062,0.118,0.206,0.267,0.433,0.445
				c0.156,0.124,0.234,0.272,0.234,0.445c0,0.582-0.878,0.874-2.635,0.874c-1.562,0-2.344-0.272-2.344-0.817
				c0-0.092,0.014-0.162,0.041-0.211c0.026-0.049,0.121-0.178,0.282-0.389c0.227-0.297,0.34-1.039,0.34-2.226
				c0-0.718-0.067-1.241-0.202-1.57c-0.178-0.448-0.496-0.672-0.953-0.672c-0.329,0-0.571,0.118-0.728,0.355
				c-0.113,0.173-0.17,0.497-0.17,0.972v1.562c0.038,0.69,0.07,1.082,0.097,1.174c0.027,0.092,0.151,0.262,0.372,0.51
				c0.103,0.113,0.153,0.245,0.153,0.396c0,0.61-0.792,0.915-2.376,0.915c-1.854,0-2.779-0.315-2.779-0.947
				c0-0.146,0.029-0.258,0.089-0.336c0.059-0.078,0.204-0.198,0.436-0.36c0.205-0.146,0.347-0.538,0.425-1.178
				s0.117-1.698,0.117-3.177c0-1.16-0.032-1.965-0.097-2.413c-0.022-0.167-0.062-0.29-0.117-0.368
				c-0.057-0.078-0.163-0.157-0.319-0.238c-0.334-0.173-0.501-0.373-0.501-0.6c0-0.27,0.126-0.488,0.38-0.655
				c0.253-0.167,0.737-0.348,1.454-0.542c0.97-0.271,1.743-0.405,2.319-0.405C181.417,120.892,181.568,121.026,181.557,121.297z"/>
			<path fill="#4B721D" d="M192.693,121.386l-0.104,3.156c0,0.076,0,0.136,0,0.179c0,0.107,0.035,0.162,0.104,0.162
				c0.038,0,0.146-0.073,0.323-0.219c0.631-0.519,1.325-0.777,2.085-0.777c0.755,0,1.42,0.272,1.996,0.817
				c0.723,0.686,1.083,1.579,1.083,2.68c0,1.57-0.584,2.825-1.753,3.764c-0.841,0.681-1.827,1.021-2.958,1.021
				c-0.561,0-1.065-0.072-1.516-0.215s-0.941-0.387-1.475-0.732c-0.081-0.049-0.146-0.073-0.194-0.073
				c-0.06,0-0.226,0.052-0.501,0.154c-0.14,0.054-0.305,0.081-0.493,0.081c-0.334,0-0.501-0.108-0.501-0.324
				c0-0.07,0.014-0.15,0.041-0.242c0.107-0.352,0.18-0.786,0.218-1.304c0.038-0.519,0.057-1.338,0.057-2.461v-2.234
				c0-0.556-0.021-0.903-0.064-1.044s-0.165-0.251-0.364-0.332c-0.28-0.118-0.474-0.235-0.581-0.352
				c-0.108-0.116-0.162-0.264-0.162-0.441c0-0.361,0.385-0.715,1.155-1.061c0.421-0.184,0.944-0.344,1.572-0.481
				s1.165-0.207,1.612-0.207C192.558,120.899,192.699,121.062,192.693,121.386z M193.388,126.323c-0.291,0-0.501,0.1-0.631,0.3
				c-0.102,0.151-0.153,0.459-0.153,0.923c0,1.268,0.043,2.123,0.13,2.565c0.075,0.41,0.304,0.615,0.687,0.615
				c0.394,0,0.692-0.167,0.897-0.502c0.204-0.334,0.307-0.819,0.307-1.457c0-0.938-0.173-1.624-0.518-2.056
				C193.908,126.464,193.668,126.334,193.388,126.323z"/>
			<path fill="#4B721D" d="M203.765,123.879c0.986,0,1.851,0.256,2.594,0.769c0.534,0.367,0.962,0.845,1.285,1.433
				c0.334,0.615,0.501,1.258,0.501,1.927c0,1.171-0.536,2.167-1.608,2.987c-1.023,0.782-2.195,1.174-3.515,1.174
				c-1.288,0-2.331-0.367-3.128-1.102c-0.775-0.712-1.164-1.64-1.164-2.784c0-1.273,0.475-2.315,1.423-3.125
				C201.144,124.305,202.348,123.879,203.765,123.879z M203.119,125.749c-0.237,0-0.427,0.087-0.57,0.263
				c-0.143,0.176-0.214,0.409-0.214,0.7c0,0.324,0.061,0.765,0.182,1.323c0.122,0.559,0.266,1.054,0.433,1.485
				c0.167,0.442,0.439,0.664,0.816,0.664c0.479,0,0.719-0.305,0.719-0.915c0-0.453-0.061-0.969-0.182-1.546s-0.268-1.047-0.44-1.408
				C203.684,125.948,203.436,125.76,203.119,125.749z"/>
			<path fill="#4B721D" d="M212.501,123.936c0.285,0,0.459,0.04,0.521,0.121c0.062,0.081,0.117,0.34,0.165,0.777
				c0.027,0.237,0.11,0.356,0.251,0.356c0.107,0,0.21-0.078,0.307-0.235c0.432-0.674,0.994-1.012,1.689-1.012
				c0.49,0,0.892,0.159,1.204,0.478c0.15,0.157,0.274,0.357,0.372,0.604c0.097,0.245,0.146,0.481,0.146,0.708
				c0,0.254-0.06,0.514-0.178,0.781c-0.119,0.267-0.272,0.487-0.461,0.659c-0.345,0.33-0.768,0.494-1.269,0.494
				c-0.275,0-0.506-0.049-0.691-0.146c-0.186-0.098-0.43-0.294-0.731-0.591c-0.113-0.113-0.218-0.17-0.314-0.17
				c-0.151,0-0.25,0.085-0.296,0.255c-0.045,0.17-0.068,0.527-0.068,1.072c0,0.815,0.029,1.371,0.089,1.668
				c0.038,0.161,0.09,0.273,0.158,0.336c0.066,0.062,0.211,0.125,0.432,0.189c0.485,0.146,0.728,0.399,0.728,0.762
				c0,0.221-0.078,0.414-0.234,0.578c-0.156,0.165-0.363,0.274-0.622,0.328c-0.518,0.107-1.277,0.162-2.279,0.162
				c-0.953,0-1.678-0.084-2.174-0.251c-0.441-0.151-0.662-0.413-0.662-0.785c0-0.28,0.161-0.531,0.484-0.753
				c0.156-0.103,0.264-0.195,0.323-0.279s0.1-0.198,0.121-0.344c0.086-0.491,0.13-1.4,0.13-2.729c0-0.242-0.027-0.417-0.081-0.521
				c-0.054-0.105-0.162-0.19-0.323-0.256c-0.383-0.15-0.574-0.369-0.574-0.655c0-0.259,0.132-0.481,0.396-0.668
				c0.264-0.186,0.705-0.371,1.325-0.555C211.213,124.067,211.919,123.94,212.501,123.936z"/>
			<path fill="#4B721D" d="M221.667,121.297l-0.105,3.392c-0.011,0.404,0.113,0.606,0.372,0.606c0.129,0,0.256-0.089,0.38-0.267
				c0.522-0.761,1.22-1.142,2.093-1.142c0.856,0,1.538,0.262,2.045,0.785c0.226,0.232,0.386,0.508,0.48,0.826
				c0.094,0.318,0.146,0.774,0.157,1.367l0.073,2.923c0.005,0.254,0.039,0.439,0.101,0.559c0.062,0.118,0.206,0.267,0.433,0.445
				c0.156,0.124,0.234,0.272,0.234,0.445c0,0.582-0.878,0.874-2.635,0.874c-1.562,0-2.344-0.272-2.344-0.817
				c0-0.092,0.014-0.162,0.041-0.211c0.026-0.049,0.121-0.178,0.282-0.389c0.227-0.297,0.34-1.039,0.34-2.226
				c0-0.718-0.067-1.241-0.202-1.57c-0.178-0.448-0.496-0.672-0.953-0.672c-0.329,0-0.571,0.118-0.728,0.355
				c-0.113,0.173-0.17,0.497-0.17,0.972v1.562c0.038,0.69,0.07,1.082,0.097,1.174c0.027,0.092,0.151,0.262,0.372,0.51
				c0.103,0.113,0.153,0.245,0.153,0.396c0,0.61-0.792,0.915-2.376,0.915c-1.854,0-2.779-0.315-2.779-0.947
				c0-0.146,0.029-0.258,0.089-0.336c0.059-0.078,0.204-0.198,0.436-0.36c0.205-0.146,0.347-0.538,0.425-1.178
				s0.117-1.698,0.117-3.177c0-1.16-0.032-1.965-0.097-2.413c-0.022-0.167-0.062-0.29-0.117-0.368
				c-0.057-0.078-0.163-0.157-0.319-0.238c-0.334-0.173-0.501-0.373-0.501-0.6c0-0.27,0.126-0.488,0.38-0.655
				c0.253-0.167,0.737-0.348,1.454-0.542c0.97-0.271,1.743-0.405,2.319-0.405C221.526,120.892,221.677,121.026,221.667,121.297z"/>
			<path fill="#4B721D" d="M233.409,123.879c0.986,0,1.851,0.256,2.594,0.769c0.534,0.367,0.962,0.845,1.285,1.433
				c0.334,0.615,0.501,1.258,0.501,1.927c0,1.171-0.536,2.167-1.608,2.987c-1.023,0.782-2.195,1.174-3.515,1.174
				c-1.288,0-2.331-0.367-3.128-1.102c-0.775-0.712-1.164-1.64-1.164-2.784c0-1.273,0.475-2.315,1.423-3.125
				C230.788,124.305,231.992,123.879,233.409,123.879z M232.762,125.749c-0.237,0-0.427,0.087-0.57,0.263
				c-0.143,0.176-0.214,0.409-0.214,0.7c0,0.324,0.061,0.765,0.182,1.323c0.122,0.559,0.266,1.054,0.433,1.485
				c0.167,0.442,0.439,0.664,0.816,0.664c0.479,0,0.719-0.305,0.719-0.915c0-0.453-0.061-0.969-0.182-1.546s-0.268-1.047-0.44-1.408
				C233.328,125.948,233.08,125.76,232.762,125.749z"/>
			<path fill="#4B721D" d="M243.374,123.879c0.986,0,1.851,0.256,2.594,0.769c0.534,0.367,0.962,0.845,1.285,1.433
				c0.334,0.615,0.501,1.258,0.501,1.927c0,1.171-0.536,2.167-1.608,2.987c-1.023,0.782-2.195,1.174-3.515,1.174
				c-1.288,0-2.331-0.367-3.128-1.102c-0.775-0.712-1.164-1.64-1.164-2.784c0-1.273,0.475-2.315,1.423-3.125
				C240.752,124.305,241.957,123.879,243.374,123.879z M242.727,125.749c-0.237,0-0.427,0.087-0.57,0.263
				c-0.143,0.176-0.214,0.409-0.214,0.7c0,0.324,0.061,0.765,0.182,1.323c0.122,0.559,0.266,1.054,0.433,1.485
				c0.167,0.442,0.439,0.664,0.816,0.664c0.479,0,0.719-0.305,0.719-0.915c0-0.453-0.061-0.969-0.182-1.546s-0.268-1.047-0.44-1.408
				C243.292,125.948,243.044,125.76,242.727,125.749z"/>
			<path fill="#4B721D" d="M257.783,121.548v7.39c0,0.421,0.018,0.691,0.053,0.81c0.035,0.119,0.134,0.235,0.295,0.349
				c0.194,0.135,0.325,0.254,0.393,0.356s0.101,0.227,0.101,0.372c0,0.432-0.434,0.761-1.301,0.987
				c-0.781,0.199-1.562,0.3-2.344,0.3c-0.173,0-0.284-0.026-0.336-0.077c-0.051-0.052-0.084-0.174-0.101-0.368
				c-0.027-0.275-0.124-0.413-0.291-0.413c-0.092,0-0.234,0.081-0.429,0.243c-0.549,0.448-1.16,0.672-1.834,0.672
				c-0.835,0-1.587-0.311-2.255-0.931c-0.394-0.373-0.711-0.802-0.953-1.287c-0.323-0.632-0.485-1.271-0.485-1.919
				c0-0.761,0.21-1.495,0.631-2.202c0.388-0.652,0.915-1.154,1.584-1.505c0.56-0.292,1.112-0.438,1.656-0.438
				c0.625,0,1.186,0.141,1.681,0.421c0.081,0.043,0.146,0.064,0.194,0.064c0.172,0,0.259-0.231,0.259-0.695
				c0-0.2-0.048-0.353-0.142-0.458c-0.095-0.105-0.263-0.195-0.505-0.271c-0.34-0.108-0.51-0.297-0.51-0.567
				c0-0.394,0.391-0.701,1.172-0.923c1.38-0.383,2.304-0.574,2.772-0.574C257.551,120.884,257.783,121.104,257.783,121.548z
				 M253.395,125.619c-0.351,0-0.628,0.187-0.833,0.559c-0.274,0.496-0.412,1.149-0.412,1.959c0,0.733,0.133,1.287,0.396,1.659
				c0.188,0.27,0.444,0.405,0.768,0.405c0.351,0,0.604-0.204,0.764-0.611s0.238-1.064,0.238-1.972c0-0.831-0.094-1.384-0.282-1.659
				C253.888,125.743,253.675,125.63,253.395,125.619z"/>
			<path fill="#4B721D" d="M261.283,128.347c0.512,0,0.956,0.179,1.333,0.534c0.383,0.362,0.574,0.829,0.574,1.4
				c0,0.535-0.191,0.985-0.574,1.353c-0.377,0.355-0.821,0.534-1.333,0.534s-0.957-0.179-1.334-0.534
				c-0.382-0.367-0.573-0.826-0.573-1.376c0-0.562,0.191-1.021,0.573-1.377C260.326,128.53,260.771,128.353,261.283,128.347z"/>
		</g>
		<g>
			<g>
				<path fill="#4B721D" d="M124.645,78.186L124.645,78.186c-2.819,2.82-4.312,6.749-4.312,11.359
					c0,7.909,5.594,13.435,13.601,13.435c6.095,0,9.963-3.038,10.126-3.168l0.071-0.054l-0.033-0.085
					c-0.157-0.392-1.015-2.332-2.423-1.882c-1.592,0.768-3.198,1.138-4.924,1.138c-6.771,0-9.314-5.544-9.771-8.901
					c4.388-1.035,10.91-2.774,17.345-5.938c0,0.003,0.139-0.064,0.139-0.064c0.002-0.001,0.365-0.182,0.365-0.182l-0.129-0.546
					c-0.438-1.816-1.084-3.912-2.545-5.676c-1.846-2.234-4.554-3.367-8.052-3.367C130.591,74.255,127.143,75.688,124.645,78.186
					 M132.469,77.247c4.03,0,5.321,3.032,6.099,6.339c-3.652,1.183-8.121,2.312-12.027,3.037
					C126.58,85.189,127.037,77.247,132.469,77.247"/>
				<path fill="#4B721D" d="M124.645,78.186L124.645,78.186c-2.819,2.82-4.312,6.749-4.312,11.359
					c0,7.909,5.594,13.435,13.601,13.435c6.095,0,9.963-3.038,10.126-3.168l0.071-0.054l-0.033-0.085
					c-0.157-0.392-1.015-2.332-2.423-1.882c-1.592,0.768-3.198,1.138-4.924,1.138c-6.771,0-9.314-5.544-9.771-8.901
					c4.388-1.035,10.91-2.774,17.345-5.938c0,0.003,0.139-0.064,0.139-0.064c0.002-0.001,0.365-0.182,0.365-0.182l-0.129-0.546
					c-0.438-1.816-1.084-3.912-2.545-5.676c-1.846-2.234-4.554-3.367-8.052-3.367C130.591,74.255,127.143,75.688,124.645,78.186
					 M132.469,77.247c4.03,0,5.321,3.032,6.099,6.339c-3.652,1.183-8.121,2.312-12.027,3.037
					C126.58,85.189,127.037,77.247,132.469,77.247"/>
				<path fill="#4B721D" d="M180.451,78.186h-0.002c-2.819,2.82-4.31,6.748-4.31,11.359c0,7.909,5.592,13.435,13.599,13.435
					c6.096,0,9.965-3.038,10.127-3.168l0.069-0.054l-0.032-0.084c-0.158-0.392-1.013-2.332-2.422-1.884
					c-1.592,0.769-3.197,1.139-4.924,1.139c-6.771,0-9.314-5.544-9.77-8.899c4.386-1.035,10.91-2.776,17.345-5.939
					c-0.002,0.003,0.137-0.064,0.137-0.064c0.001-0.001,0.367-0.182,0.367-0.182l-0.131-0.546c-0.438-1.816-1.081-3.909-2.544-5.676
					c-1.846-2.234-4.555-3.367-8.053-3.367C186.395,74.255,182.947,75.688,180.451,78.186 M188.275,77.247
					c4.029,0,5.32,3.032,6.096,6.339c-3.652,1.184-8.121,2.312-12.023,3.037C182.383,85.189,182.839,77.247,188.275,77.247"/>
				<path fill="#4B721D" d="M180.451,78.186h-0.002c-2.819,2.82-4.31,6.748-4.31,11.359c0,7.909,5.592,13.435,13.599,13.435
					c6.096,0,9.965-3.038,10.127-3.168l0.069-0.054l-0.032-0.084c-0.158-0.392-1.013-2.332-2.422-1.884
					c-1.592,0.769-3.197,1.139-4.924,1.139c-6.771,0-9.314-5.544-9.77-8.899c4.386-1.035,10.91-2.776,17.345-5.939
					c-0.002,0.003,0.137-0.064,0.137-0.064c0.001-0.001,0.367-0.182,0.367-0.182l-0.131-0.546c-0.438-1.816-1.081-3.909-2.544-5.676
					c-1.846-2.234-4.555-3.367-8.053-3.367C186.395,74.255,182.947,75.688,180.451,78.186 M188.275,77.247
					c4.029,0,5.32,3.032,6.096,6.339c-3.652,1.184-8.121,2.312-12.023,3.037C182.383,85.189,182.839,77.247,188.275,77.247"/>
				<path fill="#4B721D" d="M206.078,78.186L206.078,78.186c-2.819,2.821-4.312,6.749-4.312,11.359
					c0,7.909,5.595,13.435,13.601,13.435c6.097,0,9.965-3.038,10.127-3.168l0.068-0.054l-0.031-0.084
					c-0.158-0.392-1.011-2.332-2.422-1.884c-1.594,0.769-3.197,1.139-4.925,1.139c-6.771,0-9.315-5.544-9.769-8.901
					c4.386-1.033,10.906-2.772,17.345-5.938c-0.003,0.003,0.137-0.064,0.137-0.064c0.001-0.001,0.366-0.182,0.366-0.182l-0.13-0.546
					c-0.437-1.816-1.082-3.909-2.544-5.676c-1.846-2.234-4.555-3.367-8.053-3.367C212.025,74.255,208.576,75.688,206.078,78.186
					 M213.904,77.247c4.026,0,5.32,3.032,6.096,6.338c-3.651,1.184-8.119,2.313-12.023,3.038
					C208.013,85.189,208.469,77.247,213.904,77.247"/>
				<path fill="#4B721D" d="M206.078,78.186L206.078,78.186c-2.819,2.821-4.312,6.749-4.312,11.359
					c0,7.909,5.595,13.435,13.601,13.435c6.097,0,9.965-3.038,10.127-3.168l0.068-0.054l-0.031-0.084
					c-0.158-0.392-1.011-2.332-2.422-1.884c-1.594,0.769-3.197,1.139-4.925,1.139c-6.771,0-9.315-5.544-9.769-8.901
					c4.386-1.033,10.906-2.772,17.345-5.938c-0.003,0.003,0.137-0.064,0.137-0.064c0.001-0.001,0.366-0.182,0.366-0.182l-0.13-0.546
					c-0.437-1.816-1.082-3.909-2.544-5.676c-1.846-2.234-4.555-3.367-8.053-3.367C212.025,74.255,208.576,75.688,206.078,78.186
					 M213.904,77.247c4.026,0,5.32,3.032,6.096,6.338c-3.651,1.184-8.119,2.313-12.023,3.038
					C208.013,85.189,208.469,77.247,213.904,77.247"/>
				<path fill="#4B721D" d="M144.111,62.16v1.554c0,1.601,1.069,1.75,1.709,1.841c0.735,0.105,1.225,0.176,1.225,1.865v35.52h1.889
					c0,0,3.014-2.605,3.113-2.689c2.441,1.659,5.613,2.689,8.297,2.689c7.992,0,13.574-6.084,13.574-14.795
					c0-8.514-5.424-14.458-13.188-14.458c-2.546,0-5.04,0.639-7.229,1.836V61.908L144.111,62.16z M158.792,77.321
					c7.076,0,7.841,7.454,7.841,10.659c0,4.231-1.019,11.326-7.841,11.326c-1.846,0-3.867-0.74-5.293-1.933V79.251
					C154.922,78.06,156.947,77.321,158.792,77.321"/>
				<path fill="#4B721D" d="M57.723,76.289v-2.012l-8.889,0.254v1.665c0,1.394,0.998,1.6,1.594,1.724l0.233,0.047
					c0.392,0.1,0.883,0.223,0.883,1.823v28.604c0,1.677-0.492,1.741-1.237,1.839c-0.655,0.088-1.75,0.232-1.75,1.868v1.568h12.707
					v-1.568c0-1.712-1.187-1.806-1.895-1.859c-0.825-0.064-1.37-0.106-1.37-1.848v-7.434l0.009-3.533c0,0-0.009-18.085-0.009-18.177
					c1.426-1.191,3.448-1.93,5.294-1.93c7.076,0,7.841,7.454,7.841,10.659c0,4.231-1.019,11.326-7.841,11.326
					c-0.732,0-1.499-0.117-2.278-0.348c-0.034-0.008-0.333-0.105-0.333-0.105c-0.488-0.129-0.862-0.07-1.121,0.17
					c-0.543,0.511-0.437,1.736-0.254,2.679l0.01,0.045l0.045,0.02c1.633,0.684,3.365,1.056,5.449,1.171
					c3.728,0,6.991-1.293,9.44-3.741c2.687-2.688,4.166-6.611,4.166-11.052c0-8.514-5.422-14.458-13.187-14.458
					C61.692,73.687,59.368,75.055,57.723,76.289"/>
				<path fill="#4B721D" d="M57.723,76.289v-2.012l-8.889,0.254v1.665c0,1.394,0.998,1.6,1.594,1.724l0.233,0.047
					c0.392,0.1,0.883,0.223,0.883,1.823v28.604c0,1.677-0.492,1.741-1.237,1.839c-0.655,0.088-1.75,0.232-1.75,1.868v1.568h12.707
					v-1.568c0-1.712-1.187-1.806-1.895-1.859c-0.825-0.064-1.37-0.106-1.37-1.848v-7.434l0.009-3.533c0,0-0.009-18.085-0.009-18.177
					c1.426-1.191,3.448-1.93,5.294-1.93c7.076,0,7.841,7.454,7.841,10.659c0,4.231-1.019,11.326-7.841,11.326
					c-0.732,0-1.499-0.117-2.278-0.348c-0.034-0.008-0.333-0.105-0.333-0.105c-0.488-0.129-0.862-0.07-1.121,0.17
					c-0.543,0.511-0.437,1.736-0.254,2.679l0.01,0.045l0.045,0.02c1.633,0.684,3.365,1.056,5.449,1.171
					c3.728,0,6.991-1.293,9.44-3.741c2.687-2.688,4.166-6.611,4.166-11.052c0-8.514-5.422-14.458-13.187-14.458
					C61.692,73.687,59.368,75.055,57.723,76.289"/>
				<path fill="#4B721D" d="M87.467,76.289v-2.012l-8.889,0.254v1.665c0,1.394,0.996,1.6,1.592,1.723
					c0,0.001,0.235,0.048,0.235,0.048c0.392,0.1,0.883,0.223,0.883,1.823v28.604c0,1.677-0.492,1.741-1.237,1.839
					c-0.656,0.088-1.751,0.233-1.751,1.868v1.568h12.707v-1.568c0-1.712-1.187-1.806-1.896-1.859
					c-0.823-0.064-1.368-0.106-1.368-1.848v-7.434l0.009-3.533c0,0-0.009-18.085-0.009-18.177c1.424-1.191,3.448-1.93,5.294-1.93
					c7.076,0,7.839,7.454,7.839,10.659c0,4.231-1.018,11.326-7.839,11.326c-0.734,0-1.499-0.117-2.279-0.348
					c-0.036-0.01-0.062-0.021-0.062-0.021c-0.006-0.001-0.271-0.085-0.271-0.085c-0.486-0.129-0.861-0.07-1.121,0.17
					c-0.543,0.511-0.437,1.736-0.253,2.678l0.009,0.046l0.045,0.02c1.634,0.684,3.366,1.056,5.45,1.171
					c3.728,0,6.991-1.293,9.44-3.741c2.687-2.687,4.166-6.611,4.166-11.052c0-8.514-5.422-14.458-13.187-14.458
					C91.435,73.687,89.11,75.055,87.467,76.289"/>
				<path fill="#4B721D" d="M87.467,76.289v-2.012l-8.889,0.254v1.665c0,1.394,0.996,1.6,1.592,1.723
					c0,0.001,0.235,0.048,0.235,0.048c0.392,0.1,0.883,0.223,0.883,1.823v28.604c0,1.677-0.492,1.741-1.237,1.839
					c-0.656,0.088-1.751,0.233-1.751,1.868v1.568h12.707v-1.568c0-1.712-1.187-1.806-1.896-1.859
					c-0.823-0.064-1.368-0.106-1.368-1.848v-7.434l0.009-3.533c0,0-0.009-18.085-0.009-18.177c1.424-1.191,3.448-1.93,5.294-1.93
					c7.076,0,7.839,7.454,7.839,10.659c0,4.231-1.018,11.326-7.839,11.326c-0.734,0-1.499-0.117-2.279-0.348
					c-0.036-0.01-0.062-0.021-0.062-0.021c-0.006-0.001-0.271-0.085-0.271-0.085c-0.486-0.129-0.861-0.07-1.121,0.17
					c-0.543,0.511-0.437,1.736-0.253,2.678l0.009,0.046l0.045,0.02c1.634,0.684,3.366,1.056,5.45,1.171
					c3.728,0,6.991-1.293,9.44-3.741c2.687-2.687,4.166-6.611,4.166-11.052c0-8.514-5.422-14.458-13.187-14.458
					C91.435,73.687,89.11,75.055,87.467,76.289"/>
				<path fill="#4B721D" d="M229.549,82.682c0,5.353,4.705,6.902,8.859,8.271c3.559,1.173,6.92,2.278,6.92,5.545
					c0,3.325-3.817,4.53-6.383,4.53c-2.621,0-3.895-0.631-3.895-1.93c0-0.209,0.068-0.464,0.139-0.711
					c0.074-0.265,0.151-0.54,0.151-0.792c0-1.796-2.07-2.752-3.563-2.752c-1.748,0-3.559,1.203-3.559,3.215
					c0,4.309,7.346,5.699,10.9,5.699c5.845,0,12.058-3.254,12.058-9.283c0-5.548-4.925-7.149-9.269-8.562
					c-3.648-1.19-6.802-2.213-6.802-5.195c0-2.541,2.97-3.895,5.111-3.895c0.858,0,2.854,0.132,2.854,1.353l-0.117,1.215
					c0,1.748,1.746,2.692,3.389,2.692c1.71,0,3.443-1.024,3.443-2.982c0-3.96-5.654-5.005-8.644-5.005
					C236.329,74.095,229.549,76.758,229.549,82.682"/>
				<path fill="#4B721D" d="M117.593,96.527c0,4.677,3.41,1.535,3.41,4.478v2.04h-13.367v-2.04c0-3.009,3.541,0.265,3.541-4.478
					V68.563c0-4.743-3.541-1.468-3.541-4.477v-2.039l9.957-0.269V96.527z"/>
				<path fill="#4B721D" d="M225.146,69.147c0,1.259,1.061,2.319,2.321,2.319c0,0,0.327-0.033,0.491-0.052
					c-0.002,1.185-0.416,2.621-1.482,3.867l-0.175,0.207l0.86,0.861l0.207-0.21c1.938-1.938,2.922-3.917,2.922-5.877
					c0-1.671-0.854-3.468-2.723-3.468C226.208,66.796,225.146,67.831,225.146,69.147"/>
				<path fill="#4B721D" d="M27.432,52.99L27.432,52.99l-0.314,0.221c0.002-0.002-0.309,0.207-0.309,0.207
					c-1.267,0.826-2.504,1.727-2.504,2.818c0,0.627,0.312,1.492,0.521,2.065c0,0,0.058,0.163,0.078,0.22
					c-0.029,0.084-12.001,33.975-12.001,33.975c-1.595,4.478-2.961,4.951-3.866,5.261c-0.663,0.23-1.489,0.516-1.489,2.275v2.01
					h12.003v-2.01c0-1.867-0.86-2.264-1.741-2.514c-0.798-0.222-1.163-0.326-1.163-1.4c0-0.972,0.632-2.788,0.971-3.761
					c0-0.002,0.033-0.1,0.033-0.1s0.001-0.002,1.032-3.093c0,0,0.319-0.956,0.359-1.079h16.239c0.045,0.123,1.138,3.099,1.138,3.099
					c5.842,13.267,18.502,11.418,18.638,11.398l0.081-0.012l-0.165-4.945c-8.384,0-9.964-5.608-14.573-18.225l-3.742-10.323
					l-5.647-15.752c-0.093-0.258-0.589-1.528-1.298-1.582C29.413,51.721,29.143,51.771,27.432,52.99 M27.194,65.001
					c0.029,0.081,0.06,0.168,0.06,0.168c1.269,3.747,3.764,11.052,6.264,18.045H20.78C20.881,82.928,27.029,65.472,27.194,65.001"/>
			</g>
			<path fill="#B30838" d="M86.203,65.639c-3.988,1.088-6.621-0.186-9.472,0.016c-3.164,0.227-4.339,1.428-9.792,1.602
				c-5.725-0.049-10.045-3.416-12.638-8.775c-5.452-11.268-4.241-21.018-3.014-26.219c1.8-7.632,5.746-11.492,12.869-10.216
				c4.146,0.744,7.655,3.397,12.465,3.999c2.383,0.297,4.959-0.237,7.969-0.969c2.322-0.563,4.412-0.635,6.479-0.148
				c3.291,0.773,5.477,2.141,7.17,5.785c3.273,7.045,3.17,16.477-3.248,26.919C92.718,61.33,89.562,64.722,86.203,65.639"/>
			<path fill="#EE3124" d="M98.306,27.02c-2.078-4.947-5.431-7.871-9.844-8.541c-2.911-0.44-4.608,0.639-7.507,1.006
				c-1.939,0.246-3.706,0.224-5.512-0.416c-4.591-1.625-8.148-4.861-12.913-5.518c-6.012-0.826-11.038,3.945-13.073,7.038
				c-4.803,7.302-4.746,21.385,0.541,32.66c0,0,1.188,2.272,1.867,3.364c2.094,3.371,5.701,7.203,12.903,7.554
				c5.256-0.152,8.057-1.744,10.153-1.966c2.028-0.217,4.736,1.256,9.033,0.57c5.382-0.859,11.55-9.933,11.55-9.933
				C100.035,45.986,102.201,36.29,98.306,27.02 M83.824,58.346c-3.943,0.516-6.238-1.175-8.986-0.999
				c-3.049,0.195-4.326,1.185-9.58,1.335c-5.52-0.042-9.683-2.395-12.183-7.042c-5.254-9.774-4.625-18.813-2.968-23.212
				c1.937-5.139,4.867-8.311,8.982-9.084c6.693-1.254,8.959,2.08,14.991,3.6c2.648,0.668,4.832,0.758,7.422,0.129
				c3.623-0.879,5.05-1.023,7.097-0.658c3.402,0.607,5.674,2.934,6.933,5.638c2.9,6.233,3.303,15.31-2.485,23.688
				C90.838,54.936,86.999,58.031,83.824,58.346"/>
			<path fill="#FFFFFF" d="M64.759,27.037c0,0-5.554,2.029-7.472,8.644C55.302,42.523,52.792,28.666,64.759,27.037"/>
			<g>
				<path fill="#4B721D" d="M252.509,77.429c0.021,0.147,0.062,0.259,0.123,0.331c0.111,0.134,0.303,0.2,0.574,0.2
					c0.162,0,0.293-0.018,0.395-0.053c0.191-0.067,0.287-0.192,0.287-0.376c0-0.106-0.045-0.189-0.138-0.248
					c-0.093-0.058-0.241-0.107-0.446-0.151l-0.35-0.077c-0.346-0.076-0.582-0.159-0.711-0.249c-0.219-0.149-0.328-0.384-0.328-0.701
					c0-0.29,0.107-0.531,0.32-0.724s0.525-0.288,0.938-0.288c0.345,0,0.639,0.091,0.882,0.271c0.244,0.181,0.371,0.443,0.383,0.787
					h-0.645c-0.012-0.194-0.099-0.333-0.262-0.415c-0.107-0.054-0.242-0.081-0.403-0.081c-0.179,0-0.321,0.035-0.429,0.105
					c-0.106,0.07-0.16,0.169-0.16,0.294c0,0.116,0.053,0.203,0.158,0.26c0.068,0.038,0.211,0.083,0.43,0.134l0.565,0.135
					c0.247,0.059,0.434,0.138,0.558,0.235c0.193,0.152,0.289,0.373,0.289,0.662c0,0.296-0.113,0.541-0.342,0.737
					c-0.229,0.195-0.551,0.293-0.968,0.293c-0.425,0-0.761-0.097-1.004-0.288c-0.243-0.193-0.366-0.457-0.366-0.794H252.509z"/>
				<path fill="#4B721D" d="M257.171,75.19h0.969v3.238h-0.625v-2.19c0-0.062,0-0.151,0.002-0.265s0.002-0.201,0.002-0.263
					l-0.615,2.718h-0.66l-0.611-2.718c0,0.062,0,0.149,0.002,0.263c0.001,0.113,0.002,0.202,0.002,0.265v2.19h-0.625V75.19h0.98
					l0.592,2.546L257.171,75.19z"/>
			</g>
			<g>
				<path fill="#4B721D" d="M260.087,119.718c0.02,0.132,0.056,0.231,0.11,0.296c0.1,0.119,0.271,0.179,0.513,0.179
					c0.146,0,0.263-0.016,0.354-0.047c0.171-0.061,0.257-0.172,0.257-0.336c0-0.096-0.04-0.17-0.123-0.223
					c-0.083-0.051-0.216-0.096-0.399-0.135l-0.312-0.069c-0.31-0.068-0.521-0.143-0.636-0.223c-0.196-0.134-0.294-0.343-0.294-0.627
					c0-0.26,0.096-0.476,0.286-0.647s0.471-0.258,0.84-0.258c0.309,0,0.571,0.081,0.789,0.243c0.218,0.161,0.332,0.396,0.342,0.704
					h-0.576c-0.011-0.174-0.088-0.298-0.234-0.371c-0.096-0.049-0.217-0.073-0.36-0.073c-0.16,0-0.287,0.032-0.384,0.095
					c-0.095,0.062-0.144,0.151-0.144,0.263c0,0.104,0.048,0.182,0.142,0.232c0.062,0.034,0.189,0.074,0.385,0.12l0.506,0.12
					c0.221,0.053,0.388,0.123,0.499,0.211c0.173,0.136,0.258,0.333,0.258,0.592c0,0.265-0.101,0.484-0.306,0.659
					c-0.204,0.175-0.492,0.263-0.865,0.263c-0.38,0-0.681-0.087-0.898-0.258c-0.217-0.173-0.327-0.409-0.327-0.71H260.087z"/>
				<path fill="#4B721D" d="M264.257,117.716h0.866v2.896h-0.559v-1.96c0-0.056,0-0.135,0.001-0.236
					c0.002-0.102,0.002-0.18,0.002-0.235l-0.55,2.432h-0.591l-0.547-2.432c0,0.056,0,0.134,0.002,0.235
					c0.001,0.102,0.002,0.181,0.002,0.236v1.96h-0.56v-2.896h0.877l0.529,2.276L264.257,117.716z"/>
			</g>
		</g>
	</g>
	<path fill="#E4E76D" d="M75.464,14.911c0,0,0.482-7.644,6.06-10.604s7.713-1.859,9.021-2.961s1.583-1.652,1.997-1.17
		s-0.55,7.161-1.928,9.709s-3.099,5.44-8.125,5.854S75.464,14.911,75.464,14.911z"/>
	
		<linearGradient id="SVGID_1_" gradientUnits="userSpaceOnUse" x1="92.0996" y1="3.2812" x2="79.0536" y2="19.1573" gradientTransform="matrix(0.9997 0.0233 -0.0233 0.9997 -0.1736 -2.6399)">
		<stop  offset="0" style="stop-color:#E4E76D"/>
		<stop  offset="1" style="stop-color:#4B721D"/>
	</linearGradient>
	<path fill="url(#SVGID_1_)" d="M75.509,14.981c0,0,7.965,4.006,14.26-3.071c0,0,2.402-2.584,2.678-8.483
		c0.192-4.114,0.279-3.119,0.003-3.125c-0.275-0.006-1.609,4.061-4.639,6.978C84.782,10.196,79.188,13.747,75.509,14.981z"/>
</g>
</svg>
