<?xml version="1.0" encoding="utf-8"?>
<!-- Generator: Adobe Illustrator 16.0.0, SVG Export Plug-In . SVG Version: 6.00 Build 0)  -->
<!DOCTYPE svg PUBLIC "-//W3C//DTD SVG 1.1//EN" "http://www.w3.org/Graphics/SVG/1.1/DTD/svg11.dtd">
<svg version="1.1" id="Layer_1" xmlns="http://www.w3.org/2000/svg" xmlns:xlink="http://www.w3.org/1999/xlink" x="0px" y="0px"
	 width="108.51px" height="125.612px" viewBox="0 0 108.51 125.612" enable-background="new 0 0 108.51 125.612"
	 xml:space="preserve">
<g>
	<path fill-rule="evenodd" clip-rule="evenodd" fill="#9EC1BD" d="M42.256,53.896c1.439,1.08,3.84,5.88,7.08,14.4
		c2.879,6.84,4.439,10.68,4.56,11.639c0.12,0.961,0,1.32-0.36,1.201l-3.6-3.961c-0.6-0.84-2.52-2.52-5.52-5.16
		c-3.24-2.64-5.521-4.56-7.08-5.64l-3-2.04l-3.601-2.88c-3-2.521-4.8-5.159-5.399-7.92c-0.48-1.44-0.601-2.64-0.24-3.601
		c0.119-0.84,0.6-1.439,1.439-1.92c0.6-0.359,1.44-0.6,2.52-0.719l2.881-0.361c1.561-0.119,3.48,0.841,5.76,2.761l2.641,2.399
		L42.256,53.896L42.256,53.896z"/>
	
		<path fill="none" stroke="#0D0500" stroke-width="0.75" stroke-linecap="round" stroke-linejoin="round" stroke-miterlimit="10" d="
		M42.256,53.896c1.439,1.08,3.84,5.88,7.08,14.4c2.879,6.84,4.439,10.68,4.56,11.639c0.12,0.961,0,1.32-0.36,1.201l-3.6-3.961
		c-0.6-0.84-2.52-2.52-5.52-5.16c-3.24-2.64-5.521-4.56-7.08-5.64l-3-2.04l-3.601-2.88c-3-2.521-4.8-5.159-5.399-7.92
		c-0.48-1.44-0.601-2.64-0.24-3.601c0.119-0.84,0.6-1.439,1.439-1.92c0.6-0.359,1.44-0.6,2.52-0.719l2.881-0.361
		c1.561-0.119,3.48,0.841,5.76,2.761l2.641,2.399L42.256,53.896 M53.655,80.535c-7.56-10.08-11.76-16.319-12.84-18.601
		c-1.08-2.52-2.761-4.68-5.04-6.719l-2.641-2.16c-0.84-0.601-1.56-0.84-2.159-0.961 M40.815,61.455l-1.56-6.96"/>
	<path fill-rule="evenodd" clip-rule="evenodd" fill="#FFFFFF" d="M31.455,56.415c3.721-0.359,6,0.24,6.721,1.801L31.455,56.415
		L31.455,56.415z"/>
	
		<path fill="none" stroke="#0D0500" stroke-width="0.75" stroke-linecap="round" stroke-linejoin="round" stroke-miterlimit="10" d="
		M31.455,56.415c3.721-0.359,6,0.24,6.721,1.801"/>
	<path fill-rule="evenodd" clip-rule="evenodd" fill="#FFFFFF" d="M43.575,60.495c0.12,2.16,0.479,4.801,1.2,7.801L43.575,60.495
		L43.575,60.495z"/>
	
		<path fill="none" stroke="#0D0500" stroke-width="0.75" stroke-linecap="round" stroke-linejoin="round" stroke-miterlimit="10" d="
		M43.575,60.495c0.12,2.16,0.479,4.801,1.2,7.801"/>
	<path fill-rule="evenodd" clip-rule="evenodd" fill="#FFFFFF" d="M42.496,65.056c-0.961-1.44-2.041-2.4-3.361-2.76
		c-1.68-0.601-3.239-0.961-4.56-0.961L42.496,65.056L42.496,65.056z"/>
	
		<path fill="none" stroke="#0D0500" stroke-width="0.75" stroke-linecap="round" stroke-linejoin="round" stroke-miterlimit="10" d="
		M42.496,65.056c-0.961-1.44-2.041-2.4-3.361-2.76c-1.68-0.601-3.239-0.961-4.56-0.961"/>
	<polygon fill-rule="evenodd" clip-rule="evenodd" fill="#FFFFFF" points="47.055,66.136 47.055,69.136 47.775,72.375 
		47.055,66.136 	"/>
	
		<polyline fill="none" stroke="#0D0500" stroke-width="0.75" stroke-linecap="round" stroke-linejoin="round" stroke-miterlimit="10" points="
		47.055,66.136 47.055,69.136 47.775,72.375 	"/>
	<path fill-rule="evenodd" clip-rule="evenodd" fill="#FFFFFF" d="M45.976,70.095l-2.761-2.399c-0.84-0.96-2.279-1.2-4.199-0.84
		L45.976,70.095L45.976,70.095z"/>
	
		<path fill="none" stroke="#0D0500" stroke-width="0.75" stroke-linecap="round" stroke-linejoin="round" stroke-miterlimit="10" d="
		M45.976,70.095l-2.761-2.399c-0.84-0.96-2.279-1.2-4.199-0.84"/>
	<path fill-rule="evenodd" clip-rule="evenodd" fill="#9EC1BD" d="M65.896,53.896c-1.32,1.08-3.479,5.88-6.601,14.4
		c-2.64,6.84-3.959,10.68-4.08,11.639c-0.119,0.961,0,1.32,0.24,1.201l3.36-3.961c0.601-0.84,2.28-2.52,5.16-5.16
		c3-2.64,5.159-4.56,6.6-5.64l2.761-2.04l3.359-2.88c2.76-2.521,4.439-5.159,5.04-7.92c0.36-1.44,0.479-2.64,0.24-3.601
		c-0.12-0.84-0.601-1.439-1.32-1.92c-0.601-0.359-1.319-0.6-2.399-0.719l-2.641-0.361c-1.439-0.119-3.24,0.841-5.4,2.761
		l-2.399,2.399L65.896,53.896L65.896,53.896z"/>
	
		<path fill="none" stroke="#0D0500" stroke-width="0.75" stroke-linecap="round" stroke-linejoin="round" stroke-miterlimit="10" d="
		M65.896,53.896c-1.32,1.08-3.479,5.88-6.601,14.4c-2.64,6.84-3.959,10.68-4.08,11.639c-0.119,0.961,0,1.32,0.24,1.201l3.36-3.961
		c0.601-0.84,2.28-2.52,5.16-5.16c3-2.64,5.159-4.56,6.6-5.64l2.761-2.04l3.359-2.88c2.76-2.521,4.439-5.159,5.04-7.92
		c0.36-1.44,0.479-2.64,0.24-3.601c-0.12-0.84-0.601-1.439-1.32-1.92c-0.601-0.359-1.319-0.6-2.399-0.719l-2.641-0.361
		c-1.439-0.119-3.24,0.841-5.4,2.761l-2.399,2.399L65.896,53.896 M55.455,80.535c6.961-10.08,10.92-16.319,11.881-18.601
		c0.959-2.52,2.52-4.68,4.68-6.719l2.52-2.16c0.84-0.601,1.44-0.84,1.92-0.961 M67.336,61.455l1.319-6.96"/>
	<path fill-rule="evenodd" clip-rule="evenodd" fill="#FFFFFF" d="M76.096,56.415c-3.48-0.359-5.641,0.24-6.36,1.801L76.096,56.415
		L76.096,56.415z"/>
	
		<path fill="none" stroke="#0D0500" stroke-width="0.75" stroke-linecap="round" stroke-linejoin="round" stroke-miterlimit="10" d="
		M76.096,56.415c-3.48-0.359-5.641,0.24-6.36,1.801"/>
	<path fill-rule="evenodd" clip-rule="evenodd" fill="#FFFFFF" d="M64.695,60.495c-0.12,2.16-0.48,4.801-1.08,7.801L64.695,60.495
		L64.695,60.495z"/>
	
		<path fill="none" stroke="#0D0500" stroke-width="0.75" stroke-linecap="round" stroke-linejoin="round" stroke-miterlimit="10" d="
		M64.695,60.495c-0.12,2.16-0.48,4.801-1.08,7.801"/>
	<path fill-rule="evenodd" clip-rule="evenodd" fill="#FFFFFF" d="M65.775,65.056c0.84-1.44,1.92-2.4,3.12-2.76
		c1.56-0.601,2.88-0.961,4.2-0.961L65.775,65.056L65.775,65.056z"/>
	
		<path fill="none" stroke="#0D0500" stroke-width="0.75" stroke-linecap="round" stroke-linejoin="round" stroke-miterlimit="10" d="
		M65.775,65.056c0.84-1.44,1.92-2.4,3.12-2.76c1.56-0.601,2.88-0.961,4.2-0.961"/>
	<polygon fill-rule="evenodd" clip-rule="evenodd" fill="#FFFFFF" points="61.575,66.136 61.575,69.136 60.855,72.375 
		61.575,66.136 	"/>
	
		<polyline fill="none" stroke="#0D0500" stroke-width="0.75" stroke-linecap="round" stroke-linejoin="round" stroke-miterlimit="10" points="
		61.575,66.136 61.575,69.136 60.855,72.375 	"/>
	<path fill-rule="evenodd" clip-rule="evenodd" fill="#FFFFFF" d="M62.535,70.095l2.52-2.399c0.841-0.96,2.16-1.2,3.841-0.84
		L62.535,70.095L62.535,70.095z"/>
	
		<path fill="none" stroke="#0D0500" stroke-width="0.75" stroke-linecap="round" stroke-linejoin="round" stroke-miterlimit="10" d="
		M62.535,70.095l2.52-2.399c0.841-0.96,2.16-1.2,3.841-0.84"/>
	<path fill-rule="evenodd" clip-rule="evenodd" fill="#0D0500" d="M60.976,95.415v-0.359c-2.761,0.84-5.64,0.959-8.521,0.359
		c-2.4-0.48-4.439-1.56-6.119-3.119c-2.281-2.16-3.601-4.801-3.961-7.921l-0.24-2.04l-2.159,0.961l-6.24-2.761
		c0.24,0.72,0.72,1.44,1.56,2.04c1.44,1.2,2.16,2.641,2.041,4.439l-0.24,3.961c-2.641,2.16-4.561,4.8-5.76,8.039l-0.48,0.721
		c-0.84-1.801-2.28-3.24-4.2-4.2c-0.84-0.36-1.44-0.84-2.04-1.44v-0.239c-1.32-1.2-2.52-0.96-3.48,0.6
		c-0.359,0.72-0.239,1.32,0.361,1.8l0.959,0.48c1.08,0.6,1.92,1.561,2.521,2.64l1.44,3.12l1.68,3.12l1.32,1.92
		c2.039-0.36,3.84-1.319,5.159-2.88c2.28-2.641,3.96-5.641,5.16-9c2.04,2.4,4.56,4.08,7.56,5.16l0.36,9
		c-3.239-0.48-6.239,0-9.12,1.56l-3.119,1.56l-1.32,0.121l-1.08,1.439c0.119,1.32,0.84,1.92,2.279,1.68l1.32-0.479l1.08-0.36
		c4.2-0.24,8.28-0.72,12.48-1.56c0.119,0,0.24-0.12,0.359-0.24c2.52-3.96,3.48-8.16,3-12.84
		C57.016,100.095,59.416,98.415,60.976,95.415L60.976,95.415z"/>
	<path fill-rule="evenodd" clip-rule="evenodd" fill="#FFE615" d="M54.855,96.855l-3.6-0.72c-1.44-0.36-2.641-0.84-3.601-1.44
		c-1.08-0.72-1.92-1.56-2.76-2.399c-0.96-1.08-1.681-2.041-2.04-3l-0.84-2.281l-0.24-1.439c-0.12-0.72-0.12-1.561,0.12-2.52
		l-0.72,0.359l-0.601,1.801c-0.239,2.039,0.24,3.959,1.32,5.64l1.2,1.68l1.32,1.56c1.08,1.08,2.52,1.92,4.56,2.761
		c1.8,0.72,3.6,1.079,5.64,1.079l3.12-0.359c0.479-0.12,1.2-0.48,2.28-1.2L54.855,96.855L54.855,96.855z"/>
	<path fill-rule="evenodd" clip-rule="evenodd" fill="#FFE615" d="M38.896,89.655l-0.24-1.561l-0.12-2.039l-0.84,1.8
		c-0.12,0.12,0,0.84,0.12,2.159h0.479L38.896,89.655L38.896,89.655z"/>
	<path fill-rule="evenodd" clip-rule="evenodd" fill="#FFE615" d="M50.896,99.735c1.08,0.12,2.28,0.12,3.36,0
		c-1.44,0.6-3,0.72-4.561,0.359c-3.96-0.84-7.199-2.76-9.72-6l0.6-1.08C43.096,96.495,46.575,98.775,50.896,99.735L50.896,99.735z"
		/>
	<path fill-rule="evenodd" clip-rule="evenodd" fill="#FFFFFF" d="M26.176,90.855l-1.801-0.72l-2.76,0.119l-4.32,3
		c-3,2.881-4.68,4.68-5.16,5.521l-1.68,3.12l-1.08,2.279l0.721,1.08l1.32,1.08c1.68,1.08,2.879,1.68,3.6,1.801l3.119,0.6h0.841
		l1.56-1.801l1.08-1.92c0.6-1.08,0.84-1.68,0.96-2.039l1.32-4.08l0.12-0.721l-0.6-0.959c-0.601,0.359-1.08,0.479-1.32,0.479h-0.84
		c-0.36,0-0.721-0.12-0.84-0.36l-0.601-1.08c-0.12-0.479-0.24-0.84-0.12-1.199c0.12-0.36,0.359-0.84,0.721-1.44
		c0.479-0.72,0.84-1.2,1.199-1.319l0.48-0.361l0.6-0.239h1.32l1.08,0.479c0.24,0.121,0.359,0.24,0.359,0.48v0.359l0.24,0.36
		c0.12,0.36,0,0.601-0.24,0.72c-0.359,0.24-0.359,0.48-0.24,0.721h0.48l0.721-0.96l0.359-2.04L26.176,90.855L26.176,90.855z"/>
	
		<path fill="none" stroke="#0D0500" stroke-width="0.75" stroke-linecap="round" stroke-linejoin="round" stroke-miterlimit="10" d="
		M26.176,90.855l-1.801-0.72l-2.76,0.119l-4.32,3c-3,2.881-4.68,4.68-5.16,5.521l-1.68,3.12l-1.08,2.279l0.721,1.08l1.32,1.08
		c1.68,1.08,2.879,1.68,3.6,1.801l3.119,0.6h0.841l1.56-1.801l1.08-1.92c0.6-1.08,0.84-1.68,0.96-2.039l1.32-4.08l0.12-0.721
		l-0.6-0.959c-0.601,0.359-1.08,0.479-1.32,0.479h-0.84c-0.36,0-0.721-0.12-0.84-0.36l-0.601-1.08c-0.12-0.479-0.24-0.84-0.12-1.199
		c0.12-0.36,0.359-0.84,0.721-1.44c0.479-0.72,0.84-1.2,1.199-1.319l0.48-0.361l0.6-0.239h1.32l1.08,0.479
		c0.24,0.121,0.359,0.24,0.359,0.48v0.359l0.24,0.36c0.12,0.36,0,0.601-0.24,0.72c-0.359,0.24-0.359,0.48-0.24,0.721h0.48
		l0.721-0.96l0.359-2.04L26.176,90.855"/>
	<path fill-rule="evenodd" clip-rule="evenodd" fill="#FFFFFF" d="M25.096,94.575h-0.12l-0.479-0.84
		c-0.601-0.48-0.961-0.721-1.201-0.6l-0.72,0.119l-0.6,0.36l-0.479,0.72l-0.48,0.721l0.119,0.479l0.24,0.36
		c0.48,0.359,0.84,0.6,0.961,0.6l0.6,0.12c0.119,0,0.24,0.12,0.119,0.36c0,0.119,0,0.24-0.119,0.24l-0.48,0.359l-0.72,0.12
		l-1.08-0.24l-0.72-0.72l-0.36-0.84l0.12-1.08c0.12-0.48,0.24-0.84,0.48-1.2l0.72-0.84l0.84-0.72l0.72-0.48l0.84-0.12h0.721
		l0.72,0.24l0.36,0.36c0.359,0.359,0.6,0.479,0.6,0.6c0.12,0.6,0,1.08-0.12,1.2L25.096,94.575L25.096,94.575z"/>
	
		<path fill="none" stroke="#0D0500" stroke-width="0.75" stroke-linecap="round" stroke-linejoin="round" stroke-miterlimit="10" d="
		M25.096,94.575h-0.12l-0.479-0.84c-0.601-0.48-0.961-0.721-1.201-0.6l-0.72,0.119l-0.6,0.36l-0.479,0.72l-0.48,0.721l0.119,0.479
		l0.24,0.36c0.48,0.359,0.84,0.6,0.961,0.6l0.6,0.12c0.119,0,0.24,0.12,0.119,0.36c0,0.119,0,0.24-0.119,0.24l-0.48,0.359
		l-0.72,0.12l-1.08-0.24l-0.72-0.72l-0.36-0.84l0.12-1.08c0.12-0.48,0.24-0.84,0.48-1.2l0.72-0.84l0.84-0.72l0.72-0.48l0.84-0.12
		h0.721l0.72,0.24l0.36,0.36c0.359,0.359,0.6,0.479,0.6,0.6c0.12,0.6,0,1.08-0.12,1.2L25.096,94.575"/>
	<path fill-rule="evenodd" clip-rule="evenodd" fill="#FFFFFF" d="M9.256,99.615c2.52-3.72,5.52-6.84,9.24-9.24
		c2.52-1.68,4.92-1.68,7.079-0.12c-1.2-0.24-3.12,0.36-5.64,1.801c-5.16,3-8.52,7.199-10.2,12.72c2.28,2.159,4.8,3.479,7.8,3.96
		h1.68c-1.199,2.04-3,3-5.279,3c-6,0.12-8.16-2.76-6.36-8.76C7.936,101.775,8.416,100.695,9.256,99.615L9.256,99.615z"/>
	
		<path fill="none" stroke="#0D0500" stroke-width="0.75" stroke-linecap="round" stroke-linejoin="round" stroke-miterlimit="10" d="
		M9.256,99.615c2.52-3.72,5.52-6.84,9.24-9.24c2.52-1.68,4.92-1.68,7.079-0.12c-1.2-0.24-3.12,0.36-5.64,1.801
		c-5.16,3-8.52,7.199-10.2,12.72c2.28,2.159,4.8,3.479,7.8,3.96h1.68c-1.199,2.04-3,3-5.279,3c-6,0.12-8.16-2.76-6.36-8.76
		C7.936,101.775,8.416,100.695,9.256,99.615"/>
	<path fill-rule="evenodd" clip-rule="evenodd" fill="#FFFFFF" d="M35.416,112.695l1.439-0.479c-0.359-0.36-0.84-0.601-1.2-0.721
		h-0.96l-1.08,0.48l-1.199,1.32c-0.601,0.719-0.841,1.319-0.721,1.799c0.12,0.48,0.24,0.84,0.48,1.201l0.84,0.6
		c0.84,0.359,1.439,0.6,1.56,0.479l0.601-0.36l0.6-0.239l0.84-0.96c-0.119-0.12-0.24-0.12-0.48,0l-0.959,0.119l-0.721-0.119
		c-0.24,0-0.359-0.12-0.479-0.24c-0.479-0.48-0.72-0.84-0.72-1.08c0.119-0.6,0.24-1.08,0.479-1.199l0.84-0.48L35.416,112.695
		L35.416,112.695z"/>
	
		<path fill="none" stroke="#0D0500" stroke-width="0.75" stroke-linecap="round" stroke-linejoin="round" stroke-miterlimit="10" d="
		M35.416,112.695l1.439-0.479c-0.359-0.36-0.84-0.601-1.2-0.721h-0.96l-1.08,0.48l-1.199,1.32c-0.601,0.719-0.841,1.319-0.721,1.799
		c0.12,0.48,0.24,0.84,0.48,1.201l0.84,0.6c0.84,0.359,1.439,0.6,1.56,0.479l0.601-0.36l0.6-0.239l0.84-0.96
		c-0.119-0.12-0.24-0.12-0.48,0l-0.959,0.119l-0.721-0.119c-0.24,0-0.359-0.12-0.479-0.24c-0.479-0.48-0.72-0.84-0.72-1.08
		c0.119-0.6,0.24-1.08,0.479-1.199l0.84-0.48L35.416,112.695"/>
	<path fill-rule="evenodd" clip-rule="evenodd" fill="#FFFFFF" d="M23.416,124.095l-0.24,0.961c4.68-0.48,8.399-2.641,11.16-6.601
		l0.479-0.84l-1.44-0.24c-0.479-0.239-0.959-0.6-1.32-1.079l-0.479-0.841l1.681-3.479l3.959,0.24l0.601-1.561
		c-2.88-2.04-5.761-1.439-8.761,1.92c-2.039,2.28-4.559,3.84-7.68,4.68C23.176,119.175,23.896,121.455,23.416,124.095
		L23.416,124.095z"/>
	
		<path fill="none" stroke="#0D0500" stroke-width="0.75" stroke-linecap="round" stroke-linejoin="round" stroke-miterlimit="10" d="
		M23.416,124.095l-0.24,0.961c4.68-0.48,8.399-2.641,11.16-6.601l0.479-0.84l-1.44-0.24c-0.479-0.239-0.959-0.6-1.32-1.079
		l-0.479-0.841l1.681-3.479l3.959,0.24l0.601-1.561c-2.88-2.04-5.761-1.439-8.761,1.92c-2.039,2.28-4.559,3.84-7.68,4.68
		C23.176,119.175,23.896,121.455,23.416,124.095"/>
	<path fill-rule="evenodd" clip-rule="evenodd" fill="#FFFFFF" d="M21.135,117.136c1.681,1.68,2.4,3.6,2.16,5.879l-0.359,2.16
		c-3.48,0.36-6-0.84-7.68-3.72c-0.721-1.2-0.601-2.399,0.359-3.479c4.2-1.801,8.04-4.08,11.76-6.721
		c1.92-1.32,3.961-2.279,6.24-2.76c0.721-0.24,1.439-0.12,2.04,0.24c-3,2.04-6.479,4.439-10.56,6.96
		C23.775,116.535,22.455,117.015,21.135,117.136L21.135,117.136z"/>
	
		<path fill="none" stroke="#0D0500" stroke-width="0.75" stroke-linecap="round" stroke-linejoin="round" stroke-miterlimit="10" d="
		M21.135,117.136c1.681,1.68,2.4,3.6,2.16,5.879l-0.359,2.16c-3.48,0.36-6-0.84-7.68-3.72c-0.721-1.2-0.601-2.399,0.359-3.479
		c4.2-1.801,8.04-4.08,11.76-6.721c1.92-1.32,3.961-2.279,6.24-2.76c0.721-0.24,1.439-0.12,2.04,0.24
		c-3,2.04-6.479,4.439-10.56,6.96C23.775,116.535,22.455,117.015,21.135,117.136"/>
	<path fill-rule="evenodd" clip-rule="evenodd" fill="#EA5D17" d="M33.135,59.775l0.48,0.12l-0.72-0.36
		c1.56,0.24,2.88,0.96,3.96,2.04l0.72,0.48c3.72,2.039,7.44,3.959,11.4,5.76l1.319,0.24c1.681,0,3.24,0.479,4.561,1.319l0.48,0.841
		c-0.601,2.52,0.239,4.199,2.64,5.279c0.6,0.24,1.2,0.36,1.8,0.36c0.84-0.601,1.2-1.56,1.2-2.64c-0.12-0.841-0.24-1.801-0.601-2.761
		c2.16,0.12,4.2,0.72,6.24,1.681c1.08,0.479,2.28,0.959,3.6,1.319c3.48,1.08,7.08,2.04,10.801,2.88l2.039,0.36l0.121-0.24
		c0.6,1.32,0.6,2.64,0.24,4.2c-0.841,3.48-2.881,5.88-6.121,7.2h-0.72l-0.6-0.12l-0.36-0.96l-8.52-3.96
		c-0.6-0.24-1.08-0.721-1.44-1.32c0.36,1.801,0.24,3.721-0.12,5.641c-0.48,2.039-0.84,4.199-0.96,6.239
		c-2.399,1.681-5.04,2.521-8.04,2.521c-3.72,0-6.84-1.2-9.6-3.48c-2.04-1.68-3.24-3.72-3.84-6.24l-0.24-1.92l-0.24-2.88l2.52-1.44
		c0.48-0.119,0.841-0.359,1.201-0.6l1.319-1.56h1.32c-4.32-1.44-8.64-2.521-13.08-3.24h-3.36c-0.96,0.12-1.8-0.239-2.4-0.84
		c2.16-0.36,3.48-1.681,3.841-3.96l0.72-3.24c0.6-2.16,0.48-4.08-0.6-5.76C33.976,60.255,33.615,59.896,33.135,59.775L33.135,59.775
		z M65.416,80.056l0.239,1.439L65.416,80.056L65.416,80.056z"/>
	
		<path fill="none" stroke="#0D0500" stroke-width="0.75" stroke-linecap="round" stroke-linejoin="round" stroke-miterlimit="10" d="
		M33.135,59.775l0.48,0.12l-0.72-0.36c1.56,0.24,2.88,0.96,3.96,2.04l0.72,0.48c3.72,2.039,7.44,3.959,11.4,5.76l1.319,0.24
		c1.681,0,3.24,0.479,4.561,1.319l0.48,0.841c-0.601,2.52,0.239,4.199,2.64,5.279c0.6,0.24,1.2,0.36,1.8,0.36
		c0.84-0.601,1.2-1.56,1.2-2.64c-0.12-0.841-0.24-1.801-0.601-2.761c2.16,0.12,4.2,0.72,6.24,1.681c1.08,0.479,2.28,0.959,3.6,1.319
		c3.48,1.08,7.08,2.04,10.801,2.88l2.039,0.36l0.121-0.24c0.6,1.32,0.6,2.64,0.24,4.2c-0.841,3.48-2.881,5.88-6.121,7.2h-0.72
		l-0.6-0.12l-0.36-0.96l-8.52-3.96c-0.6-0.24-1.08-0.721-1.44-1.32c0.36,1.801,0.24,3.721-0.12,5.641
		c-0.48,2.039-0.84,4.199-0.96,6.239c-2.399,1.681-5.04,2.521-8.04,2.521c-3.72,0-6.84-1.2-9.6-3.48c-2.04-1.68-3.24-3.72-3.84-6.24
		l-0.24-1.92l-0.24-2.88l2.52-1.44c0.48-0.119,0.841-0.359,1.201-0.6l1.319-1.56h1.32c-4.32-1.44-8.64-2.521-13.08-3.24h-3.36
		c-0.96,0.12-1.8-0.239-2.4-0.84h-0.359h0.359c2.16-0.36,3.48-1.681,3.841-3.96l0.72-3.24c0.6-2.16,0.48-4.08-0.6-5.76
		C33.976,60.255,33.615,59.896,33.135,59.775l-0.719-0.12l-0.121-0.12 M65.416,80.056l0.239,1.439 M35.655,60.495
		c0.841,1.801,1.2,3.24,1.32,4.561c0,0.84-0.24,2.279-0.841,4.319c-0.479,1.921-0.84,3.12-1.199,3.48
		c-0.36,0.6-0.721,1.079-1.2,1.56 M54.855,70.095c-0.721,1.08-0.96,2.16-0.721,3c0.24,0.84,0.721,1.561,1.561,2.4
		c0.96,0.96,1.801,1.439,2.52,1.439l2.041-0.119c0.6-0.12,1.08-0.48,1.199-0.96c0.36-1.2,0.48-2.16,0.36-2.88l-0.479-1.32
		l-0.48-0.96l-0.48-0.24 M81.016,76.335c0.6,0.84,0.72,1.801,0.359,3c-0.24,1.08-0.6,2.16-1.199,3.24
		c-0.721,1.439-1.44,2.52-2.28,3.12c-0.36,0.36-1.08,0.72-2.28,1.2"/>
	<path fill-rule="evenodd" clip-rule="evenodd" fill="#B94E3F" d="M28.575,65.175l5.761,1.92c0.119,1.08,0,2.041-0.36,3
		c-0.601,1.801-2.04,2.881-4.08,3.24l-0.841-1.08c-0.359-0.72-0.6-1.199-0.6-1.439l-0.119-1.44l-0.121-1.44L28.575,65.175
		L28.575,65.175z"/>
	
		<path fill="none" stroke="#0D0500" stroke-width="0.75" stroke-linecap="round" stroke-linejoin="round" stroke-miterlimit="10" d="
		M28.575,65.175l5.761,1.92c0.119,1.08,0,2.041-0.36,3c-0.601,1.801-2.04,2.881-4.08,3.24l-0.841-1.08
		c-0.359-0.72-0.6-1.199-0.6-1.439l-0.119-1.44l-0.121-1.44L28.575,65.175"/>
	<path fill-rule="evenodd" clip-rule="evenodd" fill="#FFE24A" d="M0.375,65.415c1.32,1.92,3,2.641,5.16,2.28
		c0.6-0.12,1.2-0.12,1.801,0c4.08,1.56,8.16,1.68,12.359,0.479l3.96-1.08c1.08-0.359,2.16-0.84,3.12-1.439l0.84-0.6l6.721,1.68
		l0.479-2.52c0.12-0.961,0.12-1.92-0.12-2.881c-2.16-0.72-3.72-2.039-4.8-3.84l-0.24-0.6c0-2.04-0.72-3.84-2.28-5.4l-2.879-2.52
		c-1.08-0.84-1.801-1.92-2.16-3.24l-0.121-0.6c-0.359-1.32-1.319-2.16-2.64-2.28l-1.079,0.36c-1.681,0.6-2.4,1.799-2.041,3.6
		c0.12,0.84,0.48,1.68,1.08,2.279l0.6,0.48l1.44,1.08c-0.84,1.561-2.04,2.88-3.6,3.72l-0.24,0.36c-1.319,1.561-2.88,2.4-4.92,2.64
		c-2.64,0.24-4.92,1.2-6.96,2.88l-1.92,1.92c-0.24,0.36-0.6,0.721-0.96,1.08L0.375,65.415L0.375,65.415z"/>
	
		<path fill="none" stroke="#0D0500" stroke-width="0.75" stroke-linecap="round" stroke-linejoin="round" stroke-miterlimit="10" d="
		M0.375,65.415c1.32,1.92,3,2.641,5.16,2.28c0.6-0.12,1.2-0.12,1.801,0c4.08,1.56,8.16,1.68,12.359,0.479l3.96-1.08
		c1.08-0.359,2.16-0.84,3.12-1.439l0.84-0.6l6.721,1.68l0.479-2.52c0.12-0.961,0.12-1.92-0.12-2.881c-2.16-0.72-3.72-2.039-4.8-3.84
		l-0.24-0.6c0-2.04-0.72-3.84-2.28-5.4l-2.879-2.52c-1.08-0.84-1.801-1.92-2.16-3.24l-0.121-0.6c-0.359-1.32-1.319-2.16-2.64-2.28
		l-1.079,0.36c-1.681,0.6-2.4,1.799-2.041,3.6c0.12,0.84,0.48,1.68,1.08,2.279l0.6,0.48l1.44,1.08c-0.84,1.561-2.04,2.88-3.6,3.72
		l-0.24,0.36c-1.319,1.561-2.88,2.4-4.92,2.64c-2.64,0.24-4.92,1.2-6.96,2.88l-1.92,1.92c-0.24,0.36-0.6,0.721-0.96,1.08
		L0.375,65.415 M28.695,60.375l-0.84-1.2l-0.6-0.84c-0.121-0.119-0.48-0.359-1.08-0.6c-0.601-0.36-1.08-0.48-1.44-0.48l-1.319-0.119
		c-0.601,0.119-1.44,0.359-2.281,0.84 M13.455,64.335c-0.72-0.6-1.56-0.84-2.4-0.96l-2.279,0.12l-1.561,0.36l-0.959,0.84
		c-0.36,0.479-0.48,0.84-0.601,1.08c0,0.36,0.12,0.84,0.36,1.56 M12.375,61.455l-3-0.239l-2.52,0.119l-2.52,0.48l-1.201,0.24
		l-0.959,0.24c-0.601,0.119-1.08,0.479-1.2,0.84"/>
	<path fill-rule="evenodd" clip-rule="evenodd" fill="#FFE24A" d="M108.135,78.015v0.24c-0.479,1.801-1.68,2.76-3.6,3l-2.52,0.48
		c-2.16,0.359-4.08,1.08-5.881,1.92l-0.719,0.6c-0.841,0.601-1.32,1.44-1.681,2.28c1.681,1.2,2.28,2.88,1.92,4.92
		c-0.72,1.08-1.8,1.681-3.12,1.56c-0.84,0-1.56-0.359-2.16-0.959l-0.359-0.601l0.72-3.239c-2.28-0.36-3.601-1.44-4.2-3.36l-3.96-1.2
		l1.32-5.16c2.159,0.6,4.2,0.48,6.239-0.6h0.361c0.6-1.32,1.559-1.92,3.119-1.561l-0.359,1.2c0.6-1.2,1.439-2.04,2.64-2.64
		c1.68-0.721,3.239-0.6,4.68,0.479l-0.12,1.56l-2.4,1.08l1.921,0.24c2.159-1.56,4.44-2.039,6.84-1.68
		C107.535,76.815,108.016,77.296,108.135,78.015L108.135,78.015z"/>
	
		<path fill="none" stroke="#0D0500" stroke-width="0.75" stroke-linecap="round" stroke-linejoin="round" stroke-miterlimit="10" d="
		M108.135,78.015v0.24c-0.479,1.801-1.68,2.76-3.6,3l-2.52,0.48c-2.16,0.359-4.08,1.08-5.881,1.92l-0.719,0.6
		c-0.841,0.601-1.32,1.44-1.681,2.28c1.681,1.2,2.28,2.88,1.92,4.92c-0.72,1.08-1.8,1.681-3.12,1.56c-0.84,0-1.56-0.359-2.16-0.959
		l-0.359-0.601l0.72-3.239c-2.28-0.36-3.601-1.44-4.2-3.36l-3.96-1.2l1.32-5.16c2.159,0.6,4.2,0.48,6.239-0.6h0.361
		c0.6-1.32,1.559-1.92,3.119-1.561l-0.359,1.2c0.6-1.2,1.439-2.04,2.64-2.64c1.68-0.721,3.239-0.6,4.68,0.479l-0.12,1.56l-2.4,1.08
		l1.921,0.24c2.159-1.56,4.44-2.039,6.84-1.68C107.535,76.815,108.016,77.296,108.135,78.015 M101.896,78.976l-0.72-0.36l-1.08-0.36
		l-0.601-0.119l0,0v-0.121h-1.44c-1.56,0-2.52,0.121-2.879,0.48 M53.896,54.375c-0.96,2.521-1.44,3.96-1.44,4.56l-0.119,1.32
		c1.199,1.68,2.279,2.881,3.239,3.721l1.56,1.32c0.361,0.359,0.721,0.6,1.32,0.84l2.041,0.84c0.719,0.24,1.199,0.359,1.319,0.359
		l1.08-0.24c0.601-0.119,0.84-0.239,0.96-0.359l1.561-1.32l0.479-0.84c-0.36-1.08-0.479-1.8-0.601-2.279
		c0-0.361-0.119-0.961-0.359-1.801l1.199-2.04l-3.479-0.12c-1.8-0.479-3-0.96-3.479-1.32l-2.16-2.159l-0.48-0.24l-1.199-0.24H53.896
		"/>
	<path fill-rule="evenodd" clip-rule="evenodd" fill="#FFE24A" d="M60.855,30.015l-0.48,0.36l-3.479-0.36
		c-1.8-1.199-3.841-1.56-6-1.199c-0.479,0.119-0.841,0.48-1.2,0.84c-1.32,1.8-3.12,3.359-5.16,4.439l-0.96,0.601
		c-2.28,1.68-3.6,3.84-3.96,6.479c-0.119,0.601-0.119,1.2,0,1.801c0.24,1.68,0.24,3.359,0.12,5.039l-0.239,0.36
		c-2.041,2.28-2.521,4.8-1.561,7.56c0.84,2.281,2.16,4.201,4.08,5.761c2.279,1.56,4.68,2.76,7.32,3.479
		c2.399,0.601,4.199,1.92,5.279,3.721c0.36,0.479,0.48,0.96,0.6,1.56l0.121,1.8c0,0.721,0.239,1.44,0.84,2.041
		c0.959,1.079,2.16,1.56,3.72,1.439c0.84-1.32,1.08-2.641,0.72-4.2c-0.119-0.36-0.359-0.72-0.72-0.96l0.239-1.08
		c1.08,0.12,2.281,0.12,3.48-0.24c0.84-0.24,1.68-0.72,2.52-1.32c0.361-0.239,0.601-0.6,0.721-1.079l1.08-3.72
		c2.88-1.201,5.4-2.881,7.439-5.16c1.801-1.92,2.76-4.2,3-6.721c0.121-1.92-0.479-3.479-1.8-4.8c-1.68-1.68-3.72-2.76-6.12-3.12
		l-0.479,4.68l-1.681,1.32l-3.24,1.08l-0.84-0.24c-1.199,1.801-2.76,2.28-4.799,1.44l-1.801-1.08l-4.08-3
		c-1.439-3.479-2.039-7.08-1.92-11.04l0.36-2.16c0.36-1.199,0.96-2.16,1.92-2.76c1.92,0.359,3.601,1.439,5.04,3l3.24,4.2
		c-0.84-2.04-0.721-3.96,0.359-5.761c2.04,0.601,3.84,1.92,5.16,3.961l0.24,0.359c0.359-0.84,0.24-1.8-0.24-3.119
		c-0.24-0.601-0.72-1.08-1.32-1.44l-1.439-2.16C63.615,29.296,62.295,29.175,60.855,30.015L60.855,30.015z"/>
	<g>
		<path fill="#0D0500" d="M60.63,29.715l-0.48,0.36c0.076-0.057,0.17-0.083,0.264-0.073l-3.479-0.36
			c0.061,0.006,0.118,0.027,0.169,0.061c-1.834-1.222-3.944-1.645-6.27-1.257c-0.609,0.15-1.032,0.572-1.404,0.945
			c-0.014,0.014-0.026,0.028-0.037,0.043c-1.307,1.781-3.047,3.278-5.033,4.33c-0.023,0.014-0.983,0.614-0.983,0.614
			c-2.377,1.75-3.76,4.014-4.133,6.747c-0.125,0.624-0.125,1.279,0.004,1.924c0.208,1.46,0.247,3.083,0.114,4.939
			c0.004-0.064,0.026-0.126,0.062-0.181l-0.239,0.36c0.01-0.015,0.021-0.029,0.033-0.042c-2.1,2.346-2.65,5.015-1.635,7.933
			c0.891,2.42,2.263,4.357,4.198,5.929c2.486,1.702,4.917,2.857,7.458,3.551c2.255,0.564,4.001,1.792,5.056,3.552
			c0.007,0.011,0.014,0.021,0.022,0.032c0.318,0.423,0.421,0.85,0.532,1.407c-0.003-0.016-0.005-0.032-0.006-0.048l0.121,1.8
			c-0.001,0.862,0.328,1.659,0.949,2.281c1.033,1.164,2.352,1.676,4.014,1.548c0.117-0.009,0.224-0.073,0.287-0.173
			c0.903-1.42,1.147-2.846,0.769-4.485c-0.167-0.51-0.475-0.92-0.877-1.188c0.129,0.085,0.191,0.241,0.158,0.393l0.239-1.08
			c-0.041,0.188-0.217,0.312-0.408,0.292c1.369,0.151,2.556,0.068,3.631-0.254c0.791-0.227,1.653-0.677,2.629-1.375
			c0.428-0.282,0.723-0.72,0.867-1.293c-0.004,0.014,1.076-3.706,1.076-3.706c-0.031,0.109-0.111,0.198-0.216,0.241
			c3.04-1.268,5.589-3.036,7.574-5.256c1.795-1.914,2.838-4.249,3.094-6.935c0.128-2.025-0.496-3.689-1.907-5.101
			c-1.777-1.777-3.906-2.862-6.33-3.226c-0.102-0.016-0.205,0.012-0.285,0.074c-0.082,0.063-0.133,0.156-0.144,0.258l-0.479,4.68
			c0.01-0.102,0.062-0.194,0.142-0.257l-1.681,1.32c0.033-0.026,0.072-0.047,0.113-0.061l-3.24,1.08
			c0.071-0.024,0.148-0.025,0.221-0.004l-0.84-0.24c-0.156-0.045-0.324,0.017-0.414,0.152c-1.103,1.655-2.482,2.068-4.345,1.302
			c0.018,0.007,0.034,0.016,0.05,0.025l-1.801-1.08c0.029,0.02-4.05-2.98-4.05-2.98c0.055,0.041,0.098,0.096,0.125,0.159
			c-1.392-3.365-2.011-6.925-1.892-10.885c0,0.017-0.002,0.034-0.005,0.05l0.36-2.16c-0.003,0.016-0.006,0.031-0.011,0.046
			c0.361-1.202,0.937-2.036,1.759-2.55c-0.08,0.05-0.175,0.068-0.268,0.051c1.742,0.326,3.368,1.297,4.833,2.886
			c-0.021-0.025,3.22,4.175,3.22,4.175c0.114,0.149,0.321,0.189,0.484,0.096s0.231-0.294,0.159-0.467
			c-0.8-1.942-0.69-3.717,0.334-5.425c-0.088,0.146-0.264,0.215-0.428,0.167c2.013,0.592,3.725,1.908,4.951,3.805
			c0.004,0.005,0.244,0.364,0.244,0.364c0.076,0.114,0.209,0.178,0.346,0.165s0.256-0.1,0.311-0.226
			c0.38-0.888,0.311-1.903-0.232-3.395c-0.262-0.655-0.758-1.201-1.48-1.634c0.049,0.029,0.089,0.067,0.119,0.114l-1.439-2.16
			c-0.014-0.021-0.029-0.04-0.047-0.057c-1.404-1.404-2.888-1.62-4.533-0.659l0.188,0.324l0,0l0,0l0.188,0.324
			c1.348-0.786,2.465-0.618,3.627,0.542c-0.018-0.018-0.033-0.037-0.047-0.057l1.439,2.16c0.03,0.046,0.07,0.085,0.119,0.114
			c0.577,0.347,0.969,0.77,1.164,1.258c0.469,1.285,0.543,2.135,0.244,2.833c0.055-0.126,0.174-0.213,0.311-0.226
			s0.27,0.051,0.346,0.165l-0.24-0.359c-1.322-2.045-3.18-3.468-5.365-4.112c-0.164-0.048-0.34,0.021-0.428,0.167
			c-1.139,1.899-1.269,3.95-0.385,6.096c-0.072-0.173-0.004-0.374,0.159-0.467s0.37-0.053,0.484,0.096l-3.24-4.2
			c-1.599-1.735-3.364-2.783-5.268-3.14c-0.092-0.017-0.188,0.001-0.268,0.051c-0.984,0.615-1.665,1.586-2.081,2.97
			c-0.004,0.015-0.008,0.031-0.011,0.046l-0.36,2.16c-0.002,0.017-0.004,0.033-0.005,0.05c-0.122,4.068,0.515,7.73,1.948,11.195
			c0.026,0.063,0.069,0.118,0.125,0.159l4.081,3c0.029,0.02,1.83,1.1,1.83,1.1c0.016,0.009,0.032,0.018,0.05,0.025
			c2.188,0.901,3.956,0.37,5.253-1.579c-0.09,0.136-0.258,0.197-0.414,0.152l0.84,0.24c0.072,0.021,0.149,0.02,0.221-0.004
			l3.24-1.08c0.041-0.014,0.08-0.035,0.113-0.061l1.681-1.32c0.08-0.063,0.132-0.155,0.142-0.257l0.479-4.68
			c-0.011,0.102-0.062,0.195-0.144,0.258s-0.184,0.09-0.285,0.075c2.261,0.339,4.25,1.354,5.91,3.014
			c1.251,1.25,1.804,2.726,1.691,4.511c-0.239,2.505-1.215,4.691-2.899,6.488c-1.917,2.142-4.374,3.845-7.311,5.071
			c-0.104,0.043-0.185,0.132-0.216,0.241l-1.08,3.72c-0.102,0.404-0.285,0.685-0.567,0.871c-0.916,0.654-1.702,1.068-2.415,1.272
			c-0.981,0.295-2.07,0.368-3.336,0.228c-0.191-0.021-0.367,0.104-0.408,0.292l-0.239,1.08c-0.033,0.151,0.029,0.308,0.158,0.394
			c0.264,0.175,0.466,0.447,0.571,0.766c0.326,1.417,0.119,2.624-0.68,3.881c0.063-0.1,0.17-0.164,0.287-0.173
			c-1.432,0.11-2.516-0.308-3.41-1.314c-0.5-0.501-0.745-1.098-0.745-1.792c-0.001-0.025-0.122-1.825-0.122-1.825
			c-0.001-0.016-0.003-0.032-0.006-0.048c-0.122-0.612-0.256-1.164-0.668-1.712c0.008,0.011,0.015,0.021,0.022,0.033
			c-1.16-1.935-3.065-3.28-5.51-3.893c-2.451-0.668-4.809-1.789-7.199-3.425c-1.803-1.466-3.1-3.297-3.94-5.581
			c-0.929-2.672-0.443-5.022,1.488-7.18c0.012-0.013,0.023-0.027,0.033-0.042l0.239-0.36c0.036-0.054,0.057-0.116,0.062-0.181
			c0.137-1.911,0.097-3.585-0.123-5.119c-0.112-0.569-0.112-1.125-0.003-1.675c0.349-2.546,1.63-4.642,3.814-6.25
			c-0.023,0.016,0.937-0.584,0.937-0.584c2.062-1.091,3.891-2.664,5.264-4.536c-0.011,0.016-0.023,0.03-0.037,0.043
			c0.333-0.333,0.647-0.647,1.025-0.741c2.103-0.35,4.031,0.034,5.702,1.147c0.051,0.034,0.108,0.055,0.169,0.061l3.48,0.36
			c0.094,0.01,0.188-0.017,0.264-0.073l0.48-0.36l-0.226-0.3l0,0l0,0L60.63,29.715z"/>
		<path fill="#0D0500" d="M58.402,53.765l-1.68,0.239c0.019-0.002-1.302,0.118-1.302,0.118c0.034-0.001-0.565-0.001-0.565-0.001
			c0.021,0,0.042,0.002,0.062,0.005l-1.439-0.24c0.036,0.008-3.085-0.832-3.085-0.832l-0.098,0.362l0,0l0,0l-0.098,0.362l3.121,0.84
			c0.036,0.008,1.476,0.248,1.476,0.248c0.02,0.003,0.041,0.005,0.062,0.005h0.6c0.034-0.001,1.354-0.122,1.354-0.122
			c0.019-0.002,1.698-0.242,1.698-0.242l-0.053-0.371l0,0l0,0L58.402,53.765z"/>
		<path fill="#0D0500" d="M70.545,52.458l0.48-0.119c-0.143,0.036-0.294-0.016-0.385-0.132c-0.092-0.116-0.105-0.275-0.037-0.406
			l-1.2,2.279c-0.013,0.027-0.732,1.707-0.732,1.707c-0.439,1.026-0.756,1.391-0.943,1.517c-0.482,0.361-1.106,0.595-1.711,0.795
			c0.042-0.014,0.086-0.021,0.131-0.019l-3.479-0.12c0.04,0.001,0.079,0.009,0.115,0.022c-0.956-0.347-3.863-1.405-4.136-1.776
			c-0.005-0.007-0.02-0.027-0.025-0.034l-1.32-1.56c0.02,0.022,0.036,0.048,0.049,0.075l-0.24-0.48l-0.335,0.167l0,0l0,0
			l-0.335,0.167l0.24,0.48c0.013,0.027,0.029,0.052,0.049,0.075l1.32,1.56c-0.01-0.011-0.018-0.022-0.026-0.035
			c0.248,0.374,1.013,0.795,4.504,2.065c0.036,0.013,0.075,0.021,0.115,0.022l3.479,0.12c0.045,0.001,0.088-0.005,0.131-0.019
			c0.664-0.221,1.355-0.482,1.908-0.896c0.391-0.26,0.776-0.846,1.199-1.833l0.72-1.68c-0.013,0.027,1.188-2.252,1.188-2.252
			c0.068-0.131,0.055-0.29-0.037-0.406c-0.091-0.116-0.242-0.168-0.385-0.132l-0.481,0.119l0.091,0.364l0,0l0,0L70.545,52.458z"/>
		<polygon fill="#0D0500" points="82.496,51.601 80.936,51.601 80.936,51.976 80.936,51.976 80.936,51.976 80.936,52.351 
			82.496,52.351 82.496,51.976 82.496,51.976 82.496,51.976 		"/>
		<path fill="#0D0500" d="M59.977,52.742l-0.72-1.199c-0.375-0.624-0.757-1.133-1.137-1.512c-0.02-0.021-0.043-0.038-0.066-0.054
			l-3.481-2.16c-0.021-0.013-0.044-0.024-0.068-0.033l-2.279-0.84l-0.13,0.352l0,0l0,0l-0.13,0.352l2.279,0.84
			c-0.023-0.009-0.046-0.02-0.068-0.033l3.48,2.16c-0.023-0.016-0.047-0.033-0.066-0.054c0.336,0.336,0.68,0.796,1.023,1.368
			l0.719,1.199l0.322-0.193l0,0l0,0L59.977,52.742z"/>
		<path fill="#0D0500" d="M60.253,69.26l-0.719-0.24l-0.721-0.239c0.031,0.01,0.062,0.025,0.09,0.044l-1.8-1.201
			c0.021,0.014,0.04,0.029,0.058,0.046l-1.441-1.439c0.01,0.01,0.02,0.021,0.028,0.031l-0.959-1.199l-0.293,0.234l0,0l0,0
			l-0.293,0.234l0.959,1.199c0.009,0.011,0.018,0.021,0.028,0.031l1.44,1.439c0.018,0.017,0.037,0.032,0.058,0.046l1.8,1.201
			c0.027,0.019,0.059,0.034,0.09,0.044l0.721,0.239l0.719,0.24l0.118-0.355l0,0l0,0L60.253,69.26z"/>
	</g>
	<path fill-rule="evenodd" clip-rule="evenodd" fill="#FFFFFF" d="M55.936,32.296l1.199,0.84c1.08,0.72,2.16,1.68,3.121,3
		l1.439,2.16l1.08,2.279c0.84,2.04,1.32,4.08,1.32,6.12v3c-0.12,0.72-0.48,1.2-0.84,1.44c-1.08,0.6-1.92,0.84-2.4,0.72l-1.801-0.48
		c-0.719-0.96-1.68-1.68-2.879-2.28c-1.08-0.6-1.92-1.319-2.4-2.039l-1.8-5.641l-0.12-5.16l0.12-2.039l0.239-1.08
		c0.121-0.36,0.48-0.721,0.84-0.961c0.361-0.359,0.721-0.479,1.08-0.6l0.841,0.24L55.936,32.296L55.936,32.296L55.936,32.296
		L55.936,32.296z"/>
	
		<path fill="none" stroke="#0D0500" stroke-width="0.75" stroke-linecap="round" stroke-linejoin="round" stroke-miterlimit="10" d="
		M55.936,32.296l1.199,0.84c1.08,0.72,2.16,1.68,3.121,3l1.439,2.16l1.08,2.279c0.84,2.04,1.32,4.08,1.32,6.12v3
		c-0.12,0.72-0.48,1.2-0.84,1.44c-1.08,0.6-1.92,0.84-2.4,0.72l-1.801-0.48c-0.719-0.96-1.68-1.68-2.879-2.28
		c-1.08-0.6-1.92-1.319-2.4-2.039l-1.8-5.641l-0.12-5.16l0.12-2.039l0.239-1.08c0.121-0.36,0.48-0.721,0.84-0.961
		c0.361-0.359,0.721-0.479,1.08-0.6l0.841,0.24L55.936,32.296L55.936,32.296"/>
	<path fill-rule="evenodd" clip-rule="evenodd" fill="#FFFFFF" d="M68.295,48.855l1.801-1.08c0.359-1.92,0.479-3.24,0.24-3.96
		l-1.08-3.12l-1.44-3.36l-1.2-1.68l-1.561-1.8c-1.319-0.841-2.279-0.96-2.639-0.601l-0.24,0.24l-0.121,0.48
		c-0.119,0.359-0.239,0.959-0.239,1.8l0.239,1.8c0.601,2.28,1.08,3.84,1.32,4.68l0.601,2.16l0.239,5.04
		c0,0.479,0.121,0.72,0.48,0.841l0.96-0.48l2.04-0.36L68.295,48.855L68.295,48.855L68.295,48.855z"/>
	
		<path fill="none" stroke="#0D0500" stroke-width="0.75" stroke-linecap="round" stroke-linejoin="round" stroke-miterlimit="10" d="
		M68.295,48.855l1.801-1.08c0.359-1.92,0.479-3.24,0.24-3.96l-1.08-3.12l-1.44-3.36l-1.2-1.68l-1.561-1.8
		c-1.319-0.841-2.279-0.96-2.639-0.601l-0.24,0.24l-0.121,0.48c-0.119,0.359-0.239,0.959-0.239,1.8l0.239,1.8
		c0.601,2.28,1.08,3.84,1.32,4.68l0.601,2.16l0.239,5.04c0,0.479,0.121,0.72,0.48,0.841l0.96-0.48l2.04-0.36L68.295,48.855
		 M68.055,49.455l0.24,0.12 M68.055,49.455l0.841,0.479l0.601,0.961l-0.24,1.439l-0.48,0.6c-1.08,1.561-2.16,2.041-3.12,1.561
		c-0.84-0.359-1.44-0.6-1.8-0.84"/>
	<path fill-rule="evenodd" clip-rule="evenodd" fill="#0D0500" d="M64.096,44.415h1.439l0.721,0.48c0.359,0.119,0.6,0.479,0.72,0.84
		l0.239,1.08l0.121,1.32l-0.36,1.319l-0.841,0.72c-0.6,0.36-1.08,0.601-1.199,0.601l-0.6-0.24l-0.36-0.239l0.239-2.761v-2.04
		L64.096,44.415L64.096,44.415z"/>
	<polygon fill-rule="evenodd" clip-rule="evenodd" fill="#FFFFFF" points="64.936,46.695 64.575,46.335 64.575,45.976 
		64.936,45.615 65.295,45.495 65.535,45.855 65.535,46.216 65.295,46.575 64.936,46.695 	"/>
	<path fill-rule="evenodd" clip-rule="evenodd" fill="#0D0500" d="M59.655,49.455l-0.479,0.841l-0.48,0.479l-0.6-0.12l-0.48-0.359
		c-0.24-0.361-0.72-0.841-1.439-1.32l-1.2-0.961l-0.12-1.319l0.359-0.84c0.24-0.601,0.36-0.96,0.48-1.08l0.721-0.601
		c0.359-0.24,0.6-0.359,0.84-0.24l0.959,0.24l0.721,0.48c0.6,0.84,0.84,1.561,0.96,2.16C60.016,48.015,60.016,48.855,59.655,49.455
		L59.655,49.455z"/>
	<path fill-rule="evenodd" clip-rule="evenodd" fill="#FFFFFF" d="M56.535,46.216c-0.24,0-0.359-0.121-0.48-0.36v-0.48l0.361-0.479
		l0.6-0.12l0.359,0.479v0.601l-0.359,0.36H56.535L56.535,46.216z"/>
	<path fill-rule="evenodd" clip-rule="evenodd" fill="#FFFFFF" d="M53.775,54.735c0.359,2.16,1.08,3.6,2.4,4.32
		c1.08,0.6,2.039,0.959,2.64,1.08c0.72,0.359,1.44,0.479,2.04,0.479l4.199-0.36l0.721-1.32l-1.439-0.239l-1.801-0.36l-2.039-0.72
		c-0.601-0.24-1.201-0.601-1.921-1.2l-2.399-1.92l-2.28-0.12L53.775,54.735L53.775,54.735z"/>
	
		<path fill="none" stroke="#0D0500" stroke-width="0.75" stroke-linecap="round" stroke-linejoin="round" stroke-miterlimit="10" d="
		M53.775,54.735c0.359,2.16,1.08,3.6,2.4,4.32c1.08,0.6,2.039,0.959,2.64,1.08c0.72,0.359,1.44,0.479,2.04,0.479l4.199-0.36
		l0.721-1.32l-1.439-0.239l-1.801-0.36l-2.039-0.72c-0.601-0.24-1.201-0.601-1.921-1.2l-2.399-1.92l-2.28-0.12"/>
	<path fill-rule="evenodd" clip-rule="evenodd" fill="#B94E3F" d="M53.655,54.855c-1.44,2.76-1.92,4.44-1.44,4.92l1.681,2.159
		c0.239-0.119,0.72-0.239,1.44-0.239l1.199,0.12l0.721,0.359l0.959,0.721c0.721-0.36,1.201-0.48,1.44-0.48l-0.12-0.119h0.36
		c0.479,0,0.84,0.119,1.08,0.359l0.72,0.359l0.48,0.601l0.6,1.319l0.84-0.359h0.84l0.721,0.48l0.72-0.48l-0.841-4.32l-3.6,0.36
		l-1.56-0.24l-1.44-0.36l-1.68-0.84c-0.84-0.6-1.439-0.959-1.561-1.08C54.976,57.735,54.496,56.655,53.655,54.855L53.655,54.855z"/>
	
		<path fill="none" stroke="#0D0500" stroke-width="0.75" stroke-linecap="round" stroke-linejoin="round" stroke-miterlimit="10" d="
		M53.655,54.855c-1.44,2.76-1.92,4.44-1.44,4.92l1.681,2.159c0.239-0.119,0.72-0.239,1.44-0.239l1.199,0.12l0.721,0.359l0.959,0.721
		c0.721-0.36,1.201-0.48,1.44-0.48l-0.12-0.119h0.36c0.479,0,0.84,0.119,1.08,0.359l0.72,0.359l0.48,0.601l0.6,1.319l0.84-0.359
		h0.84l0.721,0.48l0.72-0.48l-0.841-4.32l-3.6,0.36l-1.56-0.24l-1.44-0.36l-1.68-0.84c-0.84-0.6-1.439-0.959-1.561-1.08
		C54.976,57.735,54.496,56.655,53.655,54.855"/>
	<path fill-rule="evenodd" clip-rule="evenodd" fill="#BE65A4" d="M57.016,65.056l3.359,0.24l1.32-0.121l0.721-0.24l0.239-0.119
		l-0.239-0.96l-0.48-0.48l-0.48-0.6l-0.84-0.24l-0.72-0.12l-1.681,0.721c-0.6-0.721-1.199-1.08-1.56-1.201l-1.44-0.119l-1.08,0.119
		c0,0.121,0.121,0.361,0.48,0.721l0.96,1.32C56.176,64.455,56.655,64.815,57.016,65.056L57.016,65.056z"/>
	
		<path fill="none" stroke="#0D0500" stroke-width="0.75" stroke-linecap="round" stroke-linejoin="round" stroke-miterlimit="10" d="
		M57.016,65.056l3.359,0.24l1.32-0.121l0.721-0.24l0.239-0.119l-0.239-0.96l-0.48-0.48l-0.48-0.6l-0.84-0.24l-0.72-0.12
		l-1.681,0.721c-0.6-0.721-1.199-1.08-1.56-1.201l-1.44-0.119l-1.08,0.119c0,0.121,0.121,0.361,0.48,0.721l0.96,1.32
		C56.176,64.455,56.655,64.815,57.016,65.056"/>
	<path fill-rule="evenodd" clip-rule="evenodd" fill="#BE65A4" d="M58.215,63.136c0.36,0.119,0.601,0.239,0.721,0.479l0.48,0.72
		L58.215,63.136L58.215,63.136z"/>
	
		<path fill="none" stroke="#0D0500" stroke-width="0.75" stroke-linecap="round" stroke-linejoin="round" stroke-miterlimit="10" d="
		M58.215,63.136c0.36,0.119,0.601,0.239,0.721,0.479l0.48,0.72"/>
	<path fill-rule="evenodd" clip-rule="evenodd" fill="#FFFFFF" d="M64.455,64.575l0.36,0.24l0.36,0.359
		c0,0.36-0.24,0.601-0.721,0.961l-1.199,0.84l-1.32,0.119l-1.561-0.239c-0.359-0.12-0.84-0.24-1.56-0.601l-0.96-0.72l-0.48-0.479
		l3.721,0.359c0.6-0.119,1.32-0.359,2.16-0.72L64.455,64.575L64.455,64.575z"/>
	
		<path fill="none" stroke="#0D0500" stroke-width="0.75" stroke-linecap="round" stroke-linejoin="round" stroke-miterlimit="10" d="
		M64.455,64.575l0.36,0.24l0.36,0.359c0,0.36-0.24,0.601-0.721,0.961l-1.199,0.84l-1.32,0.119l-1.561-0.239
		c-0.359-0.12-0.84-0.24-1.56-0.601l-0.96-0.72l-0.48-0.479l3.721,0.359c0.6-0.119,1.32-0.359,2.16-0.72L64.455,64.575
		 M58.695,32.296l-1.32-1.44l-0.84-0.601l-1.56-0.84c-1.44-0.6-2.4-0.84-2.88-0.72c-0.84,0.239-1.32,0.479-1.68,0.72
		c-0.601,0.36-0.961,0.96-1.08,1.561l-0.121,2.64l0.121,1.681 M66.256,33.855l-0.121-1.2l-0.6-1.08l-0.84-1.2l-0.96-0.72l-0.96-0.24
		l-1.2,0.48c-0.479,0.119-0.84,0.359-0.96,0.479l-0.6,1.08 M48.135,31.455l-0.479,0.841l-0.479,2.159"/>
	<path fill-rule="evenodd" clip-rule="evenodd" fill="#FFE24A" d="M81.256,21.015l2.16-0.359c0.84,0.12,1.56,0.359,2.159,0.72
		c0.601,0.36,0.96,0.72,0.841,1.2c0,0.359-0.361,0.721-0.961,1.08c-0.6,0.24-1.32,0.359-2.16,0.24c-0.84-0.12-1.56-0.24-2.16-0.6
		c-0.6-0.361-0.959-0.721-0.84-1.201C80.295,21.735,80.655,21.375,81.256,21.015L81.256,21.015z"/>
	
		<path fill="none" stroke="#0D0500" stroke-width="0.75" stroke-linecap="round" stroke-linejoin="round" stroke-miterlimit="10" d="
		M81.256,21.015l2.16-0.359c0.84,0.12,1.56,0.359,2.159,0.72c0.601,0.36,0.96,0.72,0.841,1.2c0,0.359-0.361,0.721-0.961,1.08
		c-0.6,0.24-1.32,0.359-2.16,0.24c-0.84-0.12-1.56-0.24-2.16-0.6c-0.6-0.361-0.959-0.721-0.84-1.201
		C80.295,21.735,80.655,21.375,81.256,21.015"/>
	<path fill-rule="evenodd" clip-rule="evenodd" fill="#FFE24A" d="M43.455,2.655c-0.24,0.72-0.6,1.32-1.199,1.92
		c-0.601,0.48-1.201,0.721-1.801,0.84c-0.6,0.12-1.08-0.119-1.439-0.6c-0.24-0.48-0.24-1.08-0.12-1.68
		c0.239-0.721,0.601-1.32,1.2-1.92c0.6-0.48,1.199-0.721,1.8-0.841c0.601,0,1.08,0.24,1.44,0.601
		C43.575,1.455,43.575,2.056,43.455,2.655L43.455,2.655z"/>
	<g>
		<path fill="#0D0500" d="M43.1,2.537c-0.23,0.69-0.573,1.237-1.109,1.773c0.01-0.01,0.02-0.019,0.031-0.028
			c-0.498,0.399-1.019,0.642-1.64,0.765c-0.424,0.085-0.772-0.064-1.066-0.457c0.013,0.018,0.025,0.037,0.035,0.057
			c-0.178-0.356-0.208-0.84-0.088-1.438c-0.003,0.015-0.007,0.03-0.012,0.044c0.228-0.687,0.57-1.233,1.109-1.773
			c-0.01,0.01-0.02,0.019-0.031,0.027c0.497-0.398,1.018-0.641,1.639-0.766C41.945,0.748,41.92,0.75,41.896,0.75
			c0.454,0,0.85,0.165,1.175,0.491C43.042,1.212,43.019,1.179,43,1.143c0.178,0.356,0.207,0.84,0.087,1.438l0.368,0.074l0,0l0,0
			l0.368,0.074c0.153-0.766,0.103-1.412-0.151-1.921c-0.018-0.036-0.042-0.069-0.07-0.098C43.136,0.246,42.546,0,41.896,0
			c-0.025,0-0.049,0.002-0.074,0.007c-0.733,0.146-1.375,0.446-1.96,0.916c-0.011,0.008-0.021,0.018-0.031,0.027
			c-0.626,0.626-1.024,1.264-1.291,2.067c-0.005,0.015-0.009,0.029-0.012,0.044c-0.153,0.766-0.102,1.412,0.152,1.921
			c0.01,0.02,0.022,0.039,0.035,0.057c0.471,0.629,1.098,0.886,1.813,0.743c0.732-0.146,1.374-0.445,1.961-0.915
			c0.011-0.009,0.021-0.018,0.031-0.028c0.623-0.623,1.021-1.26,1.29-2.066l-0.355-0.119l0,0l0,0L43.1,2.537z"/>
		<path fill="#0D0500" d="M51.742,28.654c0.92-4.253,3.295-7.431,7.261-9.714c2.15-1.139,4.224-1.62,6.514-1.51
			c0.018,0.001,0.034,0,0.051-0.001c4.162-0.357,8.312,0.122,12.333,1.423c1.322,0.361,2.397,1.106,3.365,1.859l0.23-0.296l0,0l0,0
			l0.23-0.296c-1.029-0.8-2.179-1.595-3.612-1.986c-4.1-1.327-8.348-1.817-12.611-1.451c0.017-0.001,0.033-0.002,0.051-0.001
			c-2.398-0.115-4.659,0.409-6.914,1.603c-4.171,2.402-6.663,5.74-7.631,10.212l0.367,0.079l0,0l0,0L51.742,28.654z"/>
		<path fill="#0D0500" d="M38.786,3.198c-2.682,2.072-4.66,4.669-5.878,7.718c-0.867,2.354-0.996,4.837-0.375,7.194
			c0.61,2.073,1.471,4.04,2.562,5.858c0.015,0.022,0.854,1.222,0.854,1.222c1.849,2.427,4.004,4.746,6.417,6.904
			c0.02,0.017,2.18,1.696,2.18,1.696l0.23-0.296l0,0l0,0l0.23-0.296l-2.16-1.68c-2.356-2.111-4.48-4.395-6.291-6.771
			c0.009,0.012-0.831-1.188-0.831-1.188c-1.044-1.742-1.879-3.65-2.468-5.652c-0.579-2.196-0.458-4.525,0.353-6.723
			c1.165-2.914,3.062-5.405,5.637-7.394l-0.229-0.297l0,0l0,0L38.786,3.198z"/>
		<path fill="#0D0500" d="M71.603,47.044c-0.884,0.126-1.828,0.691-3.162,1.625c0.029-0.019-0.811,0.461-0.811,0.461l0.186,0.326
			l0,0l0,0l0.186,0.326l0.84-0.479c1.238-0.865,2.136-1.41,2.867-1.515l-0.053-0.371l0,0l0,0L71.603,47.044z"/>
		<path fill="#0D0500" d="M65.71,49.838l-0.6,0.84c-0.011,0.016-0.021,0.032-0.029,0.049l-0.121,0.24
			c-0.026,0.053-0.04,0.11-0.04,0.169v0.119h0.375l0,0l0,0h0.375v-0.119c0,0.059-0.014,0.116-0.04,0.169l0.121-0.24
			c-0.009,0.017-0.019,0.033-0.029,0.049l0.6-0.84l-0.306-0.218l0,0l0,0L65.71,49.838z"/>
	</g>
</g>
</svg>
