<?xml version="1.0" encoding="utf-8"?>
<!-- Generator: Adobe Illustrator 16.0.0, SVG Export Plug-In . SVG Version: 6.00 Build 0)  -->
<!DOCTYPE svg PUBLIC "-//W3C//DTD SVG 1.1//EN" "http://www.w3.org/Graphics/SVG/1.1/DTD/svg11.dtd">
<svg version="1.1" id="Layer_1" xmlns="http://www.w3.org/2000/svg" xmlns:xlink="http://www.w3.org/1999/xlink" x="0px" y="0px"
	 width="175.748px" height="95.612px" viewBox="0 0 175.748 95.612" enable-background="new 0 0 175.748 95.612"
	 xml:space="preserve">
<g>
	<polygon fill="#FFCD00" points="87.646,95.555 11.288,76.69 10.696,76.544 10.576,75.949 0.177,24.345 0,23.466 0.87,23.233 
		87.627,0.066 87.874,0 88.121,0.066 174.878,23.233 175.748,23.466 175.571,24.345 165.172,75.949 165.052,76.544 164.461,76.69 
		88.103,95.555 87.874,95.612 87.646,95.555 	"/>
	<polygon fill="#FFEC00" points="12.336,74.979 87.874,93.642 163.412,74.979 173.514,24.851 87.874,1.982 2.234,24.851 
		12.336,74.979 	"/>
	<path fill-rule="evenodd" clip-rule="evenodd" fill="#E20613" d="M135.865,59.542c0.368,0,0.736,0.092,1.081,0.299
		c0.346,0.184,0.621,0.46,0.828,0.806c0.185,0.345,0.276,0.713,0.276,1.104c0,0.368-0.092,0.736-0.276,1.081
		c-0.207,0.369-0.46,0.621-0.828,0.829c-0.345,0.184-0.713,0.275-1.081,0.275c-0.391,0-0.759-0.092-1.104-0.275
		c-0.345-0.208-0.621-0.46-0.805-0.829c-0.207-0.345-0.3-0.713-0.3-1.081c0-0.391,0.093-0.759,0.3-1.104
		c0.207-0.346,0.46-0.622,0.828-0.806C135.129,59.634,135.497,59.542,135.865,59.542L135.865,59.542z M135.865,59.911
		c-0.322,0-0.621,0.068-0.897,0.229c-0.299,0.161-0.529,0.392-0.69,0.69c-0.16,0.299-0.252,0.598-0.252,0.92
		s0.068,0.621,0.229,0.921c0.184,0.275,0.391,0.506,0.69,0.667c0.299,0.161,0.598,0.253,0.92,0.253s0.621-0.092,0.897-0.253
		c0.299-0.161,0.529-0.392,0.69-0.667c0.161-0.3,0.253-0.599,0.253-0.921s-0.092-0.621-0.253-0.92s-0.392-0.529-0.69-0.69
		S136.164,59.911,135.865,59.911L135.865,59.911z M134.899,62.97V60.6h0.805c0.276,0,0.483,0.023,0.599,0.069
		c0.138,0.046,0.229,0.115,0.299,0.23c0.092,0.092,0.115,0.207,0.115,0.345c0,0.161-0.069,0.322-0.185,0.438
		c-0.115,0.138-0.276,0.206-0.482,0.229c0.068,0.023,0.138,0.069,0.206,0.115c0.093,0.092,0.208,0.253,0.346,0.483l0.276,0.46
		h-0.461l-0.207-0.392c-0.16-0.275-0.299-0.46-0.391-0.528c-0.092-0.069-0.185-0.093-0.322-0.093h-0.23v1.013H134.899L134.899,62.97
		z M135.267,61.636h0.483c0.207,0,0.368-0.047,0.438-0.115c0.092-0.046,0.138-0.139,0.138-0.253c0-0.069-0.022-0.139-0.069-0.185
		c-0.046-0.069-0.092-0.092-0.16-0.138c-0.069-0.023-0.207-0.023-0.392-0.023h-0.438V61.636L135.267,61.636z"/>
	<path fill-rule="evenodd" clip-rule="evenodd" fill="#E20613" d="M17.222,42.379l3.083,20.292l-1.932,4.463l14.148-2.876
		c0,0,11.25-1.841,9.893-17.255c0,0-0.046-1.909-0.483-4.624c-0.345-2.231-0.943-5.016-1.979-7.684h-0.009
		c-1.634-4.225-4.324-8.146-8.78-9.249c0,0-2.231-0.874-8.305-0.161l-11.043,2.07l3.681,3.75l0.552,3.589L17.222,42.379
		L17.222,42.379z M29.599,34.707c1.542,1.783,2.439,4.751,2.968,7.673c0.782,4.256,0.736,8.397,0.736,8.397
		c-0.138,5.659-5.337,5.177-5.337,5.177l-2.208-13.574l-1.242-7.684l-0.23-1.334l0.644-0.092c2.715-0.322,3.842,0.644,3.842,0.644
		C29.07,34.143,29.346,34.396,29.599,34.707L29.599,34.707z M52.95,34.707c0.379-0.987,1.013-1.683,2.091-1.793
		c0.435-0.044,1.239,0.144,1.936,1.805h0.009c0.318,0.78,0.614,1.855,0.842,3.336l0.092,1.449l-5.591,0.23
		C52.329,39.733,52.214,36.697,52.95,34.707L52.95,34.707z M45.979,34.695c-0.345,1.84-0.529,4.049-0.437,6.718c0,0,0,0.368,0,0.966
		c0.138,3.934,1.219,18.704,10.767,18.842c0,0,7.362,0.415,8.558-11.25l0.069-1.771l-6.211,0.253c0,0,0.23,5.269-3.037,4.556
		c0,0-2.875,0.552-2.484-7.845l11.273-1.196l-0.092-1.587l-0.229-4.555c0,0-0.138-1.334-0.622-3.129
		c-0.989-3.727-3.497-9.456-9.456-8.857c0,0-5.561-0.485-7.715,7.208C46.219,33.558,46.09,34.107,45.979,34.695L45.979,34.695z
		 M86.655,34.695l-0.138-3.106c0,0-0.483-7.592-6.143-6.625c0,0-2.968,1.587-4.556,4.877l-0.414,0.391l-0.069-3.911l-9.433,0.161
		l1.91,3.589l0.207,4.625l0.299,7.684l0.552,13.734l-1.68,3.521l9.57-0.392l-0.713-16.863l-0.23-5.269c0,0,0.322-2.094,2.002-2.094
		c0,0,1.587,0.092,1.587,2.876l0.138,4.486l0.506,16.288l9.271,0.093l-1.771-2.876l-0.575-13.505L86.655,34.695L86.655,34.695z
		 M111.202,34.695l0.069-3.106c0,0-0.552-6.787-5.499-6.074c0,0-3.52,0.161-5.521,5.2l-0.161-4.877L90.75,25.93l1.84,2.876
		l-0.114,5.89l-0.139,7.684l-0.229,13.413l-1.588,2.807l8.949,0.391l0.23-16.61l0.069-5.36c0,0,0.161-2.071,2.323-2.002
		c0,0,1.357,0.322,1.449,2.416l-0.068,4.946l-0.185,16.771l9.11,0.806l-1.679-3.682l0.321-13.896L111.202,34.695L111.202,34.695z
		 M122.82,34.695l-0.437-3.497c0,0-0.161-2.807,2.07-4.164l-12.285-0.713l2.231,3.106l0.989,5.269l1.427,7.684l2.622,13.988
		c0,0,0.23,5.107-1.357,7.27l-2.576,3.819l9.847,0.483l8.029-25.561l2.415-7.684l0.736-2.301c0,0,0.874-2.393,2.623-3.52
		l-11.572-1.357c0,0,1.68,2.485,1.196,5.107l-0.529,2.071l-1.933,7.684l-1.702,6.787l-0.828-6.787L122.82,34.695L122.82,34.695z
		 M141.64,34.695c0.207-0.115,5.66-3.474,5.43-9.571c0,0,0.161-3.75-2.646-4.716l-0.714-0.069c0,0-5.199-0.575-4.555,5.499
		c0,0,0.414,2.876,3.037,3.129c0,0,0.229,2.646-1.542,5.729c-0.046,0.092-0.092,0.161-0.138,0.253c0,0,0,0.322,1.127-0.23
		C141.64,34.718,141.64,34.718,141.64,34.695L141.64,34.695z M160.873,34.695l0.092-0.713c0,0-3.036-2.07-4.624-2.784
		c0,0-6.234-2.968-9.984,1.84c0,0-0.483,0.598-0.967,1.657c-0.736,1.61-1.495,4.302-0.782,7.684c0.161,0.667,0.346,1.357,0.621,2.07
		c0,0,2.232,4.486,4.004,6.718c0,0,2.231,3.75-0.161,4.717c0,0-3.129,1.265-7.201-4.647l-1.588,8.788c0,0,5.66,6.557,12.861,3.682
		c0,0,5.199-1.519,5.59-10.537c0,0-0.552-5.199-4.647-9.524c0.023,0-0.552-0.483-1.104-1.266c-0.805-1.15-1.564-2.922-0.321-4.555
		c0,0,2.231-1.519,4.302,0.644l3.037,3.359L160.873,34.695L160.873,34.695z"/>
</g>
</svg>
