<?xml version="1.0" encoding="utf-8"?>
<!-- Generator: Adobe Illustrator 16.0.0, SVG Export Plug-In . SVG Version: 6.00 Build 0)  -->
<!DOCTYPE svg PUBLIC "-//W3C//DTD SVG 1.1//EN" "http://www.w3.org/Graphics/SVG/1.1/DTD/svg11.dtd">
<svg version="1.1" id="Layer_1" xmlns="http://www.w3.org/2000/svg" xmlns:xlink="http://www.w3.org/1999/xlink" x="0px" y="0px"
	 width="287.568px" height="287.57px" viewBox="0 0 287.568 287.57" enable-background="new 0 0 287.568 287.57"
	 xml:space="preserve">
<g>
	<path fill-rule="evenodd" clip-rule="evenodd" fill="#FFFFFF" d="M284.17,153.167c4.531-4.531,4.531-11.878,0-16.408L150.808,3.399
		c-4.526-4.532-11.875-4.532-16.406-0.002L3.396,134.401c-4.53,4.532-4.528,11.878,0.002,16.408l133.362,133.364
		c4.529,4.527,11.876,4.531,16.404,0L284.17,153.167L284.17,153.167z"/>
	<path fill-rule="evenodd" clip-rule="evenodd" fill="#E13A3E" d="M140.853,141.524l-63.81,63.81c-3.397,3.398-8.906,3.398-12.306,0
		L8.725,149.32c-3.397-3.399-3.397-8.908,0-12.307l63.808-63.808L140.853,141.524L140.853,141.524z"/>
	<path fill-rule="evenodd" clip-rule="evenodd" fill="#E13A3E" d="M76.646,69.093l59.522-59.521c3.396-3.399,8.906-3.399,12.303,0
		l56.012,56.013c3.399,3.397,3.399,8.907,0,12.306l-59.52,59.523L76.646,69.093L76.646,69.093z"/>
	<path fill-rule="evenodd" clip-rule="evenodd" fill="#0078A9" d="M278.857,152.294c3.396-3.401,3.396-8.908,0-12.306
		l-57.878-57.877c-3.396-3.398-8.905-3.398-12.304,0L81.162,209.629c-3.4,3.398-3.399,8.904,0,12.304l57.875,57.878
		c3.396,3.399,8.906,3.399,12.304,0L278.857,152.294L278.857,152.294z"/>
	<path fill-rule="evenodd" clip-rule="evenodd" fill="#FFFFFF" d="M90.012,218.27l6.783-6.784c6.152-6.148,14.24-7.493,22.655,0.921
		c6.807,6.805,7.278,14.961,1.906,20.333l-8.436,8.438L90.012,218.27L90.012,218.27z M112.717,227.65l0.412-0.413
		c2.214-2.214,2.637-5.192-0.372-8.199c-3.221-3.219-6.068-3.105-8.5-0.674l-0.413,0.413L112.717,227.65L112.717,227.65z"/>
	<path fill-rule="evenodd" clip-rule="evenodd" fill="#FFFFFF" d="M139.617,198.74c5.348,5.348,4.444,12.025,0.406,16.062
		c-4.034,4.034-10.714,4.941-16.061-0.406c-5.652-5.65-5.056-12.201-0.801-16.457C127.416,193.687,133.967,193.09,139.617,198.74
		L139.617,198.74z M129.919,208.195c1.275,1.278,2.996,1.44,3.967,0.471c0.975-0.975,0.81-2.693-0.466-3.971
		c-1.306-1.307-3.074-1.663-4.12-0.618C128.255,205.122,128.611,206.891,129.919,208.195L129.919,208.195z"/>
	<path fill-rule="evenodd" clip-rule="evenodd" fill="#FFFFFF" d="M142.155,185.384l0.196-0.194
		c-1.465-2.484-1.13-5.312,0.523-6.963c1.848-1.848,4.38-1.892,7.124-0.261l0.148-0.148c-1.521-2.977-1.514-5.352,0.48-7.346
		c3.088-3.086,7.426-1.47,10.92,2.022l10.026,10.025l-6.077,6.08l-7.991-7.991c-0.941-0.942-2.156-2.156-3.081-1.233
		c-0.899,0.898,0.318,2.114,1.257,3.057l7.99,7.992l-6.077,6.078l-7.991-7.991c-0.938-0.944-2.154-2.158-3.075-1.237
		c-0.9,0.902,0.313,2.119,1.256,3.062l7.989,7.99l-6.078,6.074l-16.133-16.129l5.934-5.936L142.155,185.384L142.155,185.384z"/>
	<path fill-rule="evenodd" clip-rule="evenodd" fill="#FFFFFF" d="M158.406,163.42l6.271-6.271l16.133,16.133l-6.271,6.272
		L158.406,163.42L158.406,163.42z M160.012,151.849c2.644,2.644,2.146,5.451,0.347,7.25c-1.801,1.8-4.606,2.299-7.25-0.346
		c-2.34-2.338-2.283-5.248-0.317-7.217C154.761,149.565,157.672,149.511,160.012,151.849L160.012,151.849z"/>
	<path fill-rule="evenodd" clip-rule="evenodd" fill="#FFFFFF" d="M175.986,151.007l0.145-0.146
		c-0.547-2.977-0.809-5.084,1.211-7.105c3.208-3.208,7.482-1.464,11.036,2.091l9.936,9.936l-6.271,6.271l-7.871-7.869
		c-0.942-0.942-2.28-2.278-3.35-1.209c-1.044,1.045,0.293,2.381,1.235,3.325l7.867,7.869l-6.271,6.27l-16.133-16.133l6.127-6.125
		L175.986,151.007L175.986,151.007z"/>
	<path fill-rule="evenodd" clip-rule="evenodd" fill="#FFFFFF" d="M208.164,130.192c5.347,5.347,4.439,12.027,0.405,16.062
		c-4.037,4.034-10.715,4.941-16.062-0.406c-5.654-5.652-5.058-12.203-0.802-16.456C195.959,125.139,202.51,124.544,208.164,130.192
		L208.164,130.192z M198.462,139.649c1.277,1.276,2.996,1.44,3.97,0.468c0.971-0.972,0.809-2.691-0.469-3.967
		c-1.306-1.308-3.074-1.666-4.119-0.62C196.799,136.576,197.155,138.344,198.462,139.649L198.462,139.649z"/>
	<polygon fill-rule="evenodd" clip-rule="evenodd" fill="#FFFFFF" points="204.91,123.083 196.217,109.186 202.514,102.889 
		209.262,118.732 204.91,123.083 	"/>
	<path fill-rule="evenodd" clip-rule="evenodd" fill="#FFFFFF" d="M218.562,122.952l0.691-0.085
		c1.546-0.206,3.632-0.649,4.698-1.719c0.416-0.413,0.652-1.196,0.046-1.805c-0.883-0.88-1.666-0.159-2.27,0.261
		c-2.457,1.726-5.464,2.608-8.499-0.431c-4.045-4.041-2.396-8.908,0.374-11.681c1.606-1.604,3.995-3.203,6.378-3.639l2.933,5.997
		c-1.531,0.072-3.208,0.535-4.229,1.555c-0.388,0.39-0.748,1.052-0.169,1.628c0.787,0.791,1.531,0.171,2.587-0.521
		c2.693-1.782,5.488-2.633,8.739,0.618c4.192,4.191,2.594,9.256-0.321,12.173c-2.044,2.042-4.825,3.246-7.701,4.114L218.562,122.952
		L218.562,122.952z"/>
	<path fill-rule="evenodd" clip-rule="evenodd" fill="#FFFFFF" d="M121.258,248.887l8.436-8.436
		c4.277-4.277,10.171-4.705,15.854,0.978c4.679,4.677,5.261,9.929,1.542,13.648l-3.403,3.402l6.896,6.896l-6.419,6.42
		L121.258,248.887L121.258,248.887z M137.913,252.705l0.656-0.652c1.166-1.168,2.188-2.676,0.335-4.529
		c-1.793-1.793-3.245-0.521-4.341,0.572l-0.63,0.632L137.913,252.705L137.913,252.705z"/>
	<path fill-rule="evenodd" clip-rule="evenodd" fill="#FFFFFF" d="M146.334,237.359l6.267-6.271l16.137,16.133l-6.272,6.271
		L146.334,237.359L146.334,237.359z M147.937,225.79c2.642,2.644,2.144,5.453,0.344,7.249c-1.795,1.801-4.604,2.298-7.247-0.346
		c-2.341-2.34-2.284-5.248-0.316-7.217C142.688,223.506,145.6,223.45,147.937,225.79L147.937,225.79z"/>
	<polygon fill-rule="evenodd" clip-rule="evenodd" fill="#FFFFFF" points="172.725,227.008 173.424,230.379 173.607,230.562 
		174.712,229.09 178.287,225.518 184.365,231.592 170.749,245.205 169.658,244.115 166.241,233.067 165.705,229.955 
		165.585,229.831 164.364,231.479 161.325,234.518 155.247,228.44 168.546,215.146 169.457,216.056 172.725,227.008 	"/>
	<polygon fill-rule="evenodd" clip-rule="evenodd" fill="#FFFFFF" points="187.432,212.297 188.131,215.672 188.314,215.854 
		189.423,214.383 192.994,210.811 199.072,216.885 185.456,230.502 184.365,229.408 180.948,218.357 180.416,215.248 
		180.292,215.128 179.071,216.772 176.032,219.811 169.954,213.733 183.253,200.435 184.164,201.35 187.432,212.297 	"/>
	<path fill-rule="evenodd" clip-rule="evenodd" fill="#FFFFFF" d="M208.442,203.262l-0.145,0.145
		c0.374,2.662,0.325,4.656-1.447,6.431c-3.501,3.501-9.882,1.01-13.803-2.911c-4.07-4.07-6.537-10.476-2.891-14.121
		c1.556-1.557,3.543-2.146,6.049-1.49l0.145-0.148l-2.11-1.719l6.152-6.149l16.133,16.135l-6.152,6.151L208.442,203.262
		L208.442,203.262z M203.117,201.293c1.192-1.189,0.494-2.863-0.752-4.109c-1.246-1.245-2.838-1.475-3.833-0.479
		c-0.999,0.995-0.597,2.661,0.589,3.847C200.396,201.825,201.977,202.436,203.117,201.293L203.117,201.293z"/>
	<path fill-rule="evenodd" clip-rule="evenodd" fill="#FFFFFF" d="M198.377,168.623c2.287-2.552,6.162-3.184,9.018-0.626
		c2.866,2.569,2.675,6.501,0.388,9.053c-2.286,2.554-6.173,3.171-9.042,0.602C195.889,175.094,196.09,171.174,198.377,168.623
		L198.377,168.623z M206.776,176.147c1.744-1.948,1.617-4.943-0.532-6.87c-2.139-1.915-5.118-1.703-6.861,0.245
		c-1.769,1.975-1.631,4.933,0.508,6.847C202.04,178.296,205.009,178.122,206.776,176.147L206.776,176.147z M198.747,172.332
		l1.779-1.985c1.186-1.322,2.266-1.692,3.409-0.667c0.967,0.866,0.805,1.809,0.17,2.645l3.561,0.653l-0.981,1.094l-3.398-0.734
		l-0.586,0.655l2.252,2.015l-0.936,1.043L198.747,172.332L198.747,172.332z M201.882,173.258l0.836-0.93
		c0.526-0.591,0.837-1.11,0.194-1.683c-0.564-0.508-1.196,0.016-1.623,0.494l-0.787,0.88L201.882,173.258L201.882,173.258z"/>
	<path fill-rule="evenodd" clip-rule="evenodd" fill="#FFFFFF" d="M58.704,156.789c6.358-6.356,6.358-16.664,0-23.021
		c-6.358-6.358-16.664-6.358-23.022,0c-6.356,6.356-6.356,16.664,0,23.021C42.04,163.146,52.346,163.146,58.704,156.789
		L58.704,156.789z"/>
	<path fill-rule="evenodd" clip-rule="evenodd" fill="#FFFFFF" d="M107.603,156.789c6.356-6.356,6.356-16.664,0-23.021
		c-6.358-6.358-16.666-6.358-23.022,0c-6.356,6.356-6.356,16.664,0,23.021C90.937,163.146,101.244,163.146,107.603,156.789
		L107.603,156.789z"/>
	<path fill-rule="evenodd" clip-rule="evenodd" fill="#FFFFFF" d="M154.954,82.29c6.356-6.358,6.356-16.666,0-23.022
		c-6.356-6.358-16.662-6.358-23.021,0c-6.356,6.356-6.356,16.664,0,23.022C138.292,88.646,148.598,88.646,154.954,82.29
		L154.954,82.29z"/>
</g>
</svg>
