<?xml version="1.0" encoding="utf-8"?>
<!-- Generator: Adobe Illustrator 16.0.0, SVG Export Plug-In . SVG Version: 6.00 Build 0)  -->
<!DOCTYPE svg PUBLIC "-//W3C//DTD SVG 1.1//EN" "http://www.w3.org/Graphics/SVG/1.1/DTD/svg11.dtd">
<svg version="1.1" id="Layer_1" xmlns="http://www.w3.org/2000/svg" xmlns:xlink="http://www.w3.org/1999/xlink" x="0px" y="0px"
	 width="186px" height="154px" viewBox="0 0 186 154" enable-background="new 0 0 186 154" xml:space="preserve">
<g>
	<g>
		<image overflow="visible" width="186" height="152" xlink:href="9EAE7EEFA7B34740.png"  transform="matrix(1 0 0 1 0 2)">
		</image>
	</g>
	<linearGradient id="SVGID_1_" gradientUnits="userSpaceOnUse" x1="105.832" y1="54.521" x2="62.9175" y2="118.5171">
		<stop  offset="0" style="stop-color:#D31245"/>
		<stop  offset="0.3484" style="stop-color:#B3083A"/>
		<stop  offset="0.7835" style="stop-color:#8F002B"/>
		<stop  offset="1" style="stop-color:#820024"/>
	</linearGradient>
	<path fill="url(#SVGID_1_)" d="M146.903,56.978c6.022,19.411-13.245,42.642-43.038,51.886
		c-29.792,9.245-58.826,1.006-64.849-18.403C32.992,71.048,52.26,47.817,82.052,38.573C111.846,29.327,140.88,37.567,146.903,56.978
		z"/>
	<g>
		<image overflow="visible" width="154" height="133" xlink:href="9EAE7EEFA7B34741.png"  transform="matrix(1 0 0 1 27 0)">
		</image>
	</g>
	<path fill="#231F20" d="M56.318,102.995l10.456-3.682c0,0-1.339-0.97-1.56-3.62S64.478,82.07,64.478,82.07s6.628-1.03,11.413-5.817
		c4.787-4.787,7.217-14.212-0.294-20.692s-21.87,2.21-26.215,8.837s-7.169,13.52-4.386,23.54c2.64,9.505,9.42,11.943,9.42,11.943
		s-7.402-5.214-7.233-16.569s9.253-22.374,19.177-23.131c9.926-0.757,8.748,16.99-1.85,18.252L63.584,62.62
		c0,0-4.289,1.009-7.317,4.794l1.43,28.514C57.697,95.928,57.883,101.062,56.318,102.995z"/>
	<path fill="#231F20" d="M136.936,58.071c-4.004,0-4.795,3.461-4.795,3.461l0.049-1.829l-6.08,2.225
		c0.889,0.445,1.037,1.73,1.037,1.73l0.48,7.647c0,0-2.311,5.708-6.652,5.756c0,0-2.5,0.236-3.211-2.147c0,0,4.541,0.841,7.148-3.28
		s0.084-8.242-3.447-8.242c-3.533,0-8.916,3.532-8.748,10.093s4.707,7.678,6.812,7.57c0,0,5.482,0.102,8.576-6.555
		c0,0,0.279,1.971-0.562,3.298l6.18-2.225c-0.988-0.741-0.988-2.571-0.988-2.571l-0.297-6.477c0,0-0.148-3.807,2.273-3.807
		c2.424,0,0.693,2.917,0.693,2.917C141.484,66.427,140.941,58.071,136.936,58.071z M117.342,72.644
		c-0.672-7.149,4.207-7.401,3.869-3.617C120.875,72.811,117.342,72.644,117.342,72.644z"/>
	<path fill="#231F20" d="M103.582,67.982l6.414-2.503c-0.988-0.741-0.99-2.571-0.99-2.571l-0.297-6.477c0,0-0.148-3.807,2.275-3.807
		c2.422,0,0.691,2.917,0.691,2.917c6.082,0.791,5.537-7.564,1.533-7.564c-4.006,0-4.795,3.461-4.795,3.461l0.049-1.829l-6.082,2.225
		c0.891,0.445,1.039,1.73,1.039,1.73l0.6,10.871C104.02,64.436,104.23,67.047,103.582,67.982z"/>
	<path fill="#231F20" d="M91.34,74.06c0,0-2.188,0.504-3.617,2.775l-0.146-1.264l-6.086,2.029c0,0,1.179,0.519,1.227,3.538
		l0.235,6.134c0,0-2.312,5.708-6.652,5.756c0,0-2.501,0.236-3.212-2.147c0,0,4.542,0.841,7.149-3.28s0.084-8.242-3.448-8.242
		c-3.533,0-8.916,3.532-8.748,10.093s4.707,7.678,6.812,7.57c2.438-0.124,6.309-2.103,8.412-5.804l0.252,7.57
		c0,0-0.084,2.522-0.758,3.532l6.813-2.439c0,0-0.757-0.926-1.009-2.607l-0.253-5.383c0,0,5.804-0.504,7.823-6.812
		S96.05,72.798,91.34,74.06z M72.667,88.61c-0.673-7.149,4.206-7.401,3.869-3.617S72.667,88.61,72.667,88.61z M88.166,88.863
		l-0.489-8.956c0,0,3.848-4.059,4.407,1.749S88.166,88.863,88.166,88.863z"/>
	<path fill="#231F20" d="M106.674,68.477c0,0-2.188,0.504-3.617,2.775l-0.146-1.264l-6.087,2.029c0,0,1.18,0.519,1.227,3.538
		l0.802,17.649c0,0-0.084,2.522-0.757,3.532l6.813-2.439c0,0-0.758-0.926-1.01-2.607l-0.252-5.383c0,0,5.803-0.504,7.822-6.812
		C113.486,73.187,111.385,67.215,106.674,68.477z M103.5,83.28l-0.49-8.956c0,0,3.848-4.059,4.408,1.749
		C107.977,81.881,103.5,83.28,103.5,83.28z"/>
	<path fill="#231F20" d="M88.304,47.28l-8.947,2.979c0,0,2.177,1.131,2.089,4.179l0.959,16.717c0,0,0.086,3.711-1.129,4.715
		l11.837-4.334c0,0,8.827-3.065,8.35-15.801C100.988,43,89.784,46.963,88.304,47.28z M88.516,69.581l-1.058-17.756
		c2.325-1.85,7.875-2.483,7.927,6.605S88.516,69.581,88.516,69.581z"/>
	<path fill="#231F20" d="M105.633,87.061c0,0,0.398,0.355,0.418,0.921l0.084,4.312c0,0,0.021,0.376-0.125,0.586l3.285-1.192
		l0.021-1.319c0,0-0.355,0.398-0.67,0.503l-1.172,0.481v-1.486c0,0,0.732-0.378,1.047-0.126v-1.465c0,0-0.607,0.524-1.109,0.649
		v-1.34c0,0,1.131-0.565,1.527-0.335v-1.256L105.633,87.061z"/>
	<path fill="#231F20" d="M111.934,87.688h-0.754c0,0-0.502,0.042-0.439,0.523s1.59,0.104,1.652,1.214s-0.963,2.01-2.615,2.01v-1.151
		c0,0,0.209,0.209,0.732,0.209s0.754-0.314,0.754-0.565s-0.211-0.335-0.943-0.502s-0.857-0.899-0.689-1.423
		c0.166-0.523,0.816-1.277,2.303-1.173V87.688z"/>
	<path fill="#231F20" d="M112.867,87.231l-0.562,0.109l0.594-1.656c0,0,0.328-0.453,0.984-0.438v0.719l0.781-0.359v0.984
		l-0.766,0.312v1.969c0,0,0.078,0.359,0.75,0.312v0.469c0,0-0.344,0.641-1.031,0.688s-0.766-1.094-0.766-1.094L112.867,87.231z"/>
	<path fill="#231F20" d="M116.148,88.817c-0.086,0.41-0.396,0.742-0.693,0.742c-0.299,0-0.471-0.332-0.385-0.742
		s0.396-0.742,0.695-0.742C116.062,88.075,116.234,88.407,116.148,88.817z"/>
	<path fill="#231F20" d="M116.539,84.356l1.531-1.266l0.141,4.594c0,0,0.094,0.484,0.406,0.719l-1.719,0.594
		c0,0,0.266-0.344,0.266-0.75l-0.109-3.25C117.055,84.997,116.945,84.497,116.539,84.356z"/>
	<path fill="#231F20" d="M120.496,86.234"/>
	<path fill="#231F20" d="M121.398,84.435c0.859-0.719,0.75-2.172-0.141-2.312s-2.125,0.703-2.359,1.75s0.734,1.391,0.734,1.391
		c-1.219,0.984-0.938,2.609,0.109,2.641s2.297-0.688,2.562-1.953S121.398,84.435,121.398,84.435z M120.586,82.997
		c0.902-0.197-0.016,1.234-0.016,1.234S119.445,83.247,120.586,82.997z M120.367,87.075c-0.984-0.062,0-1.531,0-1.531
		C121.352,85.778,121.352,87.138,120.367,87.075z"/>
	<path fill="#231F20" d="M125.336,83.044c0.859-0.719,0.75-2.172-0.141-2.312s-2.125,0.703-2.359,1.75s0.734,1.391,0.734,1.391
		c-1.219,0.984-0.938,2.609,0.109,2.641s2.297-0.688,2.562-1.953S125.336,83.044,125.336,83.044z M124.523,81.606
		c0.902-0.197-0.016,1.234-0.016,1.234S123.383,81.856,124.523,81.606z M124.305,85.685c-0.984-0.062,0-1.531,0-1.531
		C125.289,84.388,125.289,85.747,124.305,85.685z"/>
	<path fill="#231F20" d="M126.773,80.106v2.844l0.531,0.172c0,0,0.266-0.828,1.047-0.656s0.422,1.953-0.859,1.812
		c0,0-0.484,0-0.688-0.312V85.2c0,0,0.25,0.109,0.719,0.094s1.922-0.453,2.359-1.844s-0.297-2.875-2.234-1.5v-0.922l1.781-0.703
		v-1.156L126.773,80.106z"/>
	<g>
		<path fill="#FFFFFF" stroke="#231F20" stroke-width="0.25" d="M54.911,101.589l10.457-3.682c0,0-1.34-0.97-1.561-3.62
			s-0.736-13.623-0.736-13.623s6.628-1.03,11.414-5.817s7.217-14.212-0.295-20.692c-7.511-6.48-21.869,2.21-26.215,8.837
			c-4.344,6.627-7.169,13.52-4.386,23.54c2.64,9.505,9.421,11.943,9.421,11.943s-7.402-5.214-7.234-16.569
			c0.169-11.355,9.253-22.374,19.178-23.131s8.748,16.99-1.851,18.252l-0.925-15.812c0,0-4.289,1.009-7.318,4.794l1.43,28.514
			C56.29,94.521,56.476,99.656,54.911,101.589z"/>
		<path fill="#FFFFFF" stroke="#231F20" stroke-width="0.25" d="M135.529,56.665c-4.005,0-4.795,3.461-4.795,3.461l0.049-1.829
			l-6.081,2.225c0.89,0.445,1.038,1.73,1.038,1.73l0.48,7.647c0,0-2.312,5.708-6.652,5.756c0,0-2.501,0.236-3.212-2.147
			c0,0,4.542,0.841,7.149-3.28s0.084-8.242-3.448-8.242c-3.533,0-8.916,3.532-8.748,10.093s4.707,7.678,6.812,7.57
			c0,0,5.483,0.102,8.577-6.555c0,0,0.279,1.971-0.563,3.298l6.181-2.225c-0.988-0.741-0.989-2.571-0.989-2.571l-0.297-6.477
			c0,0-0.148-3.807,2.274-3.807s0.692,2.917,0.692,2.917C140.078,65.021,139.534,56.665,135.529,56.665z M115.936,71.237
			c-0.673-7.149,4.206-7.401,3.869-3.617S115.936,71.237,115.936,71.237z"/>
		<path fill="#FFFFFF" stroke="#231F20" stroke-width="0.25" d="M102.176,66.576l6.413-2.503c-0.988-0.741-0.989-2.571-0.989-2.571
			l-0.297-6.477c0,0-0.148-3.807,2.274-3.807s0.692,2.917,0.692,2.917c6.081,0.791,5.537-7.564,1.532-7.564
			s-4.795,3.461-4.795,3.461l0.049-1.829l-6.081,2.225c0.89,0.445,1.038,1.73,1.038,1.73l0.6,10.871
			C102.612,63.029,102.824,65.641,102.176,66.576z"/>
		<path fill="#FFFFFF" stroke="#231F20" stroke-width="0.25" d="M89.933,72.653c0,0-2.187,0.504-3.616,2.775l-0.146-1.264
			l-6.087,2.029c0,0,1.179,0.519,1.227,3.538l0.235,6.134c0,0-2.311,5.708-6.652,5.756c0,0-2.5,0.236-3.211-2.147
			c0,0,4.541,0.841,7.148-3.28s0.084-8.242-3.448-8.242s-8.916,3.532-8.747,10.093c0.168,6.561,4.706,7.678,6.812,7.57
			c2.437-0.124,6.309-2.103,8.411-5.804l0.253,7.57c0,0-0.085,2.522-0.758,3.532l6.812-2.439c0,0-0.756-0.926-1.009-2.607
			l-0.253-5.383c0,0,5.805-0.504,7.823-6.812C96.747,77.363,94.644,71.392,89.933,72.653z M71.26,87.204
			c-0.672-7.149,4.206-7.401,3.869-3.617C74.793,87.371,71.26,87.204,71.26,87.204z M86.758,87.457l-0.489-8.956
			c0,0,3.849-4.059,4.407,1.749C91.237,86.058,86.758,87.457,86.758,87.457z"/>
		<path fill="#FFFFFF" stroke="#231F20" stroke-width="0.25" d="M105.267,67.07c0,0-2.187,0.504-3.616,2.775l-0.146-1.264
			l-6.087,2.029c0,0,1.18,0.519,1.227,3.538l0.802,17.649c0,0-0.085,2.522-0.757,3.532l6.812-2.439c0,0-0.757-0.926-1.01-2.607
			l-0.252-5.383c0,0,5.804-0.504,7.822-6.812S109.978,65.809,105.267,67.07z M102.093,81.874l-0.49-8.956
			c0,0,3.849-4.059,4.408,1.749S102.093,81.874,102.093,81.874z"/>
		<path fill="#FFFFFF" stroke="#231F20" stroke-width="0.25" d="M86.897,45.874l-8.947,2.979c0,0,2.177,1.131,2.09,4.179
			l0.958,16.717c0,0,0.087,3.711-1.128,4.715l11.836-4.334c0,0,8.827-3.065,8.351-15.801S88.377,45.557,86.897,45.874z
			 M87.109,68.175l-1.058-17.756c2.326-1.85,7.875-2.483,7.928,6.605C94.032,66.113,87.109,68.175,87.109,68.175z"/>
		<path fill="#FFFFFF" stroke="#231F20" stroke-width="0.25" d="M105.089,86.517c0,0,0.398,0.355,0.419,0.921l0.084,4.312
			c0,0,0.021,0.376-0.126,0.586l3.286-1.192l0.021-1.319c0,0-0.354,0.398-0.669,0.503l-1.173,0.481v-1.486
			c0,0,0.733-0.378,1.047-0.126V87.73c0,0-0.607,0.524-1.109,0.649v-1.34c0,0,1.131-0.565,1.528-0.335v-1.256L105.089,86.517z"/>
		<path fill="#FFFFFF" stroke="#231F20" stroke-width="0.25" d="M111.39,87.145h-0.754c0,0-0.502,0.042-0.439,0.523
			s1.591,0.104,1.653,1.214s-0.963,2.01-2.616,2.01V89.74c0,0,0.209,0.209,0.732,0.209s0.754-0.314,0.754-0.565
			s-0.21-0.335-0.942-0.502s-0.857-0.899-0.69-1.423s0.817-1.277,2.303-1.173V87.145z"/>
		<path fill="#FFFFFF" stroke="#231F20" stroke-width="0.25" d="M112.324,86.688l-0.562,0.109l0.594-1.656
			c0,0,0.328-0.453,0.984-0.438v0.719l0.781-0.359v0.984l-0.766,0.312v1.969c0,0,0.078,0.359,0.75,0.312v0.469
			c0,0-0.344,0.641-1.031,0.688s-0.766-1.094-0.766-1.094L112.324,86.688z"/>
		<path fill="#FFFFFF" stroke="#231F20" stroke-width="0.25" d="M115.605,88.273c-0.086,0.41-0.396,0.742-0.694,0.742
			s-0.47-0.332-0.384-0.742s0.396-0.742,0.695-0.742C115.52,87.531,115.691,87.863,115.605,88.273z"/>
		<path fill="#FFFFFF" stroke="#231F20" stroke-width="0.25" d="M115.996,83.812l1.531-1.266l0.141,4.594
			c0,0,0.094,0.484,0.406,0.719l-1.719,0.594c0,0,0.266-0.344,0.266-0.75l-0.109-3.25C116.512,84.453,116.402,83.953,115.996,83.812
			z"/>
		<path fill="#FFFFFF" stroke="#231F20" stroke-width="0.25" d="M119.09,84.828"/>
		<path fill="#FFFFFF" stroke="#231F20" stroke-width="0.25" d="M120.855,83.891c0.859-0.719,0.75-2.172-0.141-2.312
			s-2.125,0.703-2.359,1.75s0.734,1.391,0.734,1.391c-1.219,0.984-0.938,2.609,0.109,2.641s2.297-0.688,2.562-1.953
			S120.855,83.891,120.855,83.891z M120.043,82.453c0.901-0.197-0.016,1.234-0.016,1.234S118.902,82.703,120.043,82.453z
			 M119.824,86.531c-0.984-0.062,0-1.531,0-1.531C120.809,85.234,120.809,86.594,119.824,86.531z"/>
		<path fill="#FFFFFF" stroke="#231F20" stroke-width="0.25" d="M124.793,82.5c0.859-0.719,0.75-2.172-0.141-2.312
			s-2.125,0.703-2.359,1.75s0.734,1.391,0.734,1.391c-1.219,0.984-0.938,2.609,0.109,2.641s2.297-0.688,2.562-1.953
			S124.793,82.5,124.793,82.5z M123.98,81.062c0.901-0.197-0.016,1.234-0.016,1.234S122.84,81.312,123.98,81.062z M123.762,85.141
			c-0.984-0.062,0-1.531,0-1.531C124.746,83.844,124.746,85.203,123.762,85.141z"/>
		<path fill="#FFFFFF" stroke="#231F20" stroke-width="0.25" d="M126.23,79.562v2.844l0.531,0.172c0,0,0.266-0.828,1.047-0.656
			s0.422,1.953-0.859,1.812c0,0-0.484,0-0.688-0.312v1.234c0,0,0.25,0.109,0.719,0.094s1.922-0.453,2.359-1.844
			s-0.297-2.875-2.234-1.5v-0.922l1.781-0.703v-1.156L126.23,79.562z"/>
	</g>
	<path fill="#FFFFFF" stroke="#231F20" stroke-width="0.075" d="M135.559,72.156c0,0,0.422-0.156,0.188-0.641
		s-0.734-0.281-0.734-0.281l-0.812,0.406l0.297,1.828l0.453-0.094l-0.078-0.672c0.562-0.312,0.625,0.422,0.625,0.422l0.547-0.203
		C135.871,72.234,135.559,72.156,135.559,72.156z M135.23,72.062l-0.391,0.109l-0.047-0.344
		C135.418,71.531,135.23,72.062,135.23,72.062z"/>
	<path fill="#FFFFFF" stroke="#231F20" stroke-width="0.075" d="M135.324,70.5c-0.923-0.012-1.787,0.788-1.931,1.784
		c-0.145,0.997,0.49,1.813,1.415,1.825c0.922,0.011,1.788-0.788,1.932-1.785C136.883,71.328,136.248,70.512,135.324,70.5z
		 M136.393,72.32c-0.114,0.79-0.8,1.423-1.53,1.414c-0.732-0.009-1.235-0.656-1.121-1.446c0.113-0.789,0.799-1.423,1.529-1.413
		C136.003,70.884,136.506,71.531,136.393,72.32z"/>
	<path fill="#231F20" d="M143.588,56.942c5.43,17.496-12.17,38.507-39.31,46.928c-13.635,4.231-27.082,4.478-37.778,1.459
		c11.228,4.348,26.381,4.652,41.778-0.125c27.14-8.421,44.739-29.432,39.31-46.928c-2.702-8.705-10.599-14.897-21.193-17.887
		C134.958,43.706,141.238,49.373,143.588,56.942z"/>
	<path fill="#FFFFFF" d="M141.838,56.192c5.43,17.496-12.17,38.507-39.31,46.928c-13.635,4.231-27.082,4.478-37.778,1.459
		c11.228,4.348,26.381,4.652,41.778-0.125c27.14-8.421,44.739-29.432,39.31-46.928c-2.702-8.705-10.599-14.897-21.193-17.887
		C133.208,42.956,139.488,48.623,141.838,56.192z"/>
</g>
</svg>
