<?xml version="1.0" encoding="utf-8"?>
<!-- Generator: Adobe Illustrator 16.0.0, SVG Export Plug-In . SVG Version: 6.00 Build 0)  -->
<!DOCTYPE svg PUBLIC "-//W3C//DTD SVG 1.1//EN" "http://www.w3.org/Graphics/SVG/1.1/DTD/svg11.dtd">
<svg version="1.1" id="Layer_1" xmlns="http://www.w3.org/2000/svg" xmlns:xlink="http://www.w3.org/1999/xlink" x="0px" y="0px"
	 width="269.513px" height="126.152px" viewBox="0 0 269.513 126.152" enable-background="new 0 0 269.513 126.152"
	 xml:space="preserve">
<g>
	<path fill-rule="evenodd" clip-rule="evenodd" fill="#884030" d="M57.871,79.236c0,0-8.474-28.877-8.763-30.12
		c-0.289-1.243-0.407-1.438-0.061-1.77c0.347-0.333,0.895-1.039,1.356-1.79c0.462-0.75,0.881-1.284-0.101-3.55
		c-0.981-2.265-5.731-14.188-6.599-16.296c-0.866-2.11-2.256-4.42-14.343-1.124C17.274,27.883,9.814,32.336,5.998,35.459
		c-3.817,3.123-4.164,4.063-2.025,9.467c2.138,5.404,4.421,11.501,5.317,13.552c0.896,2.052,2.083,2.735,3.425,2.807
		c1.342,0.072,1.5,0.044,1.833,0.736c0.331,0.692,14.363,27.694,15.779,30.381c1.416,2.688,3.756,5.461,9.795,5.461
		c6.04,0,13.321-2.832,16.442-6.877C59.684,86.942,59.279,84.052,57.871,79.236L57.871,79.236z M55.811,80.267l-9.072-30.915
		c0,0-9.282,8.255-29.753,12.014c0,0,13.6,26.616,15.362,29.766c1.763,3.15,4.594,4.247,8.756,4.247
		c4.161,0,10.807-3.033,13.321-5.548C56.938,87.317,56.881,83.503,55.811,80.267L55.811,80.267z M42.662,29.387
		c0,0-13.359,13.127-36.491,14.284c0,0,4.823,12.294,5.372,13.71c0.55,1.416,1.07,1.502,4.075,1.502
		c3.005,0,11.43-1.507,20.162-5.613c8.732-4.106,11.595-7.477,12.259-8.257c0.665-0.78,0.462-1.358,0.086-2.253
		C47.75,41.864,42.662,29.387,42.662,29.387L42.662,29.387z M8.773,41.068c0,0,6.535-5.263,14.978-8.269
		c8.443-3.007,15.33-3.968,15.33-3.968l2.795-2.998c0,0-4.419-1.94-17.72,2.917C10.855,33.609,5.677,38.859,4.377,40.621
		L8.773,41.068L8.773,41.068z M14.346,24.989c0,0,1.04-2.225-0.289-4.796c-1.33-2.572-5.028-5.346-8.467-2.428
		c-3.438,2.919-3.497,5.404-1.734,7.86c1.763,2.456,6.56,1.127,6.501-1.099c-0.058-2.225-1.3-2.687-2.253-2.052
		c-0.954,0.636-1.503,0.896-2.196-0.057c-0.693-0.954,0.318-1.821,1.271-2.37c0.954-0.549,3.208-0.665,4.421,1.156
		c1.214,1.82,1.936,4.826-1.271,7.108c-3.208,2.282-7.08,0.665-8.554-1.358c-1.474-2.023-3.179-6.531,1.358-10.547
		c4.537-4.017,9.103-2.428,11.299,0.145c2.196,2.571,2.803,5.259,2.601,7.831c-0.202,2.571-1.953,3.139-2.516,2.663
		C13.955,26.568,13.724,25.934,14.346,24.989L14.346,24.989z M20.211,18.486c0,0-2.485-3.265-4.161-5.345
		c-1.676-2.081-2.246-7.233,2.727-11.281c4.974-4.048,11.172-0.566,12.328,1.745c1.156,2.312,1.821,5.836-0.664,8.64
		s-5.866,2.34-7.456,0.809c-1.589-1.532-1.329-4.594,0.087-5.837c1.416-1.242,4.648-1.225,4.518,0.58
		c-0.13,1.804-2.208,0.375-2.886,1.226c-0.678,0.852-0.534,1.617-0.014,2.323c0.519,0.707,2.178,1.501,3.838-0.577
		c1.659-2.078,1.912-5.025-0.573-7.164c-2.485-2.139-6.936-0.665-8.611,1.213c-1.676,1.878-2.832,5.288-0.665,7.831
		c2.167,2.543,5.577,6.271,5.028,9.738c-0.549,3.467-1.456,3.287-2.192,2.983c-0.735-0.303-0.865-1.183-0.476-2.034
		C21.429,22.485,21.628,20.076,20.211,18.486L20.211,18.486z"/>
	<path fill-rule="evenodd" clip-rule="evenodd" fill="#EE4799" d="M53.557,96.564c0,0,3.063,0,4.74,0c1.676,0,7.57-1.619,7.57-7.745
		c0-6.125,0-50.874,0-56.772s-3.717-8.848-7.418-8.848c-3.702,0-13.07,0-13.07,0s6.792,17.104,7.572,18.81
		c0.78,1.704,0.491,4.219-0.491,5.287c-0.983,1.07-0.867,1.358-0.549,2.254c0.317,0.896,8.331,28.588,9.14,31.826
		C61.861,84.615,62.034,92.306,53.557,96.564L53.557,96.564z"/>
	<path fill-rule="evenodd" clip-rule="evenodd" fill="#F5822A" d="M29.914,96.637c0,0-19.354,0-22.243,0s-7.397-2.558-7.397-8.655
		c0-6.097,0-45.108,0-45.108s5.635,14.074,7.08,17.426s3.197,3.31,4.004,3.381c0.808,0.072,1.241,0.059,1.588,0.766
		c0.346,0.706,15.184,29.401,15.588,30.21C28.938,95.466,29.914,96.637,29.914,96.637L29.914,96.637z"/>
	<path fill-rule="evenodd" clip-rule="evenodd" fill="#F5822A" d="M0.36,37.848c0,0,2.947-4.277,6.241-5.895
		c0,0-3.987-0.549-6.241-2.572V37.848L0.36,37.848z"/>
	<path fill-rule="evenodd" clip-rule="evenodd" fill="#F5822A" d="M263.511,39.316c-4.067-0.763-4.067-5.724-4.067-8.777
		c0-2.863,2.131-6.488,5.035-6.488c3.099,0,5.034,3.053,5.034,6.106c0,2.671-1.743,9.351-5.421,9.351
		C263.898,39.508,263.704,39.508,263.511,39.316L263.511,39.316z M78.99,58.017c-2.71,0-3.873-0.191-4.84-0.954
		c-1.162-0.764-1.937-1.718-2.324-3.053c-0.194-0.764-0.194-1.336-0.194-3.626v-18.51c0-2.671,0-3.053,0.194-3.817
		c0.968-2.48,2.904-3.625,6.196-3.625h6.97c5.034,0,9.1,1.335,12.393,4.198c3.484,3.244,5.615,7.824,5.615,12.595
		c0,4.58-2.131,9.159-5.615,12.212c-2.131,2.099-5.035,3.626-7.939,4.199c-1.355,0.19-3.484,0.381-5.809,0.381L78.99,58.017
		L78.99,58.017z M82.863,47.713c3.871-0.192,4.84-0.191,6.195-1.146c1.549-1.145,2.711-3.244,2.711-5.343
		c0-2.481-1.355-4.771-3.68-5.725c-0.968-0.573-2.129-0.763-4.26-0.763c-0.193,0-0.58,0-0.967,0V47.713L82.863,47.713z
		 M109.775,53.056c-2.129-2.863-2.904-5.152-2.904-9.732V31.493c0-3.053,0.387-4.007,1.355-5.152
		c0.969-1.336,2.711-2.099,4.453-2.099c1.355,0,3.099,0.573,4.066,1.717c1.162,1.145,1.549,2.29,1.549,4.771v13.166
		c0,2.481,1.162,4.008,3.098,4.008c1.938,0,2.905-1.526,2.905-3.816V30.73c0-2.481,0.387-3.245,1.354-4.389
		c0.969-1.336,2.711-2.099,4.26-2.099c1.742,0,3.485,0.763,4.453,1.908c0.969,1.335,1.355,2.291,1.355,5.343v11.831
		c0,4.58-1.162,7.825-3.679,10.496c-2.71,3.244-6.776,4.961-10.649,4.961C116.746,58.781,112.486,56.682,109.775,53.056
		L109.775,53.056z M160.892,55.918l-8.906-11.259v7.061c0,2.29-0.388,3.244-1.356,4.58c-0.967,1.144-2.71,1.908-4.258,1.908
		c-1.742,0-3.486-0.763-4.647-2.1c-0.774-1.335-1.161-2.289-1.161-4.77V30.157c0-3.626,2.322-5.916,6.001-5.916
		c1.55,0,2.904,0.573,4.065,2.099l8.908,10.877V30.92c0-2.099,0.387-3.244,1.162-4.388c0.967-1.336,2.71-2.29,4.646-2.29
		c1.55,0,3.099,0.573,4.26,1.908c0.968,1.145,1.355,2.291,1.355,4.389v20.609c0,2.67-0.388,3.816-1.355,4.96
		c-0.969,1.336-2.71,2.1-4.26,2.1C163.409,58.208,162.055,57.445,160.892,55.918L160.892,55.918z M195.938,56.491l-8.326-10.495
		v5.915c0,3.816-2.323,6.298-5.809,6.298s-5.615-2.481-5.615-6.298V30.348c0-3.625,2.323-6.106,5.615-6.106
		c1.55,0,3.291,0.573,4.26,1.717s1.549,2.481,1.549,4.389v5.343l6.195-8.968c1.162-1.718,2.711-2.481,4.648-2.481
		c3.098,0,5.614,2.481,5.614,5.533c0,0.955-0.388,2.1-0.774,2.863l-5.809,8.205l6.971,8.778c0.775,0.763,0.967,1.908,0.967,3.053
		c0.001,3.053-2.517,5.535-5.613,5.535C198.26,58.208,196.711,57.636,195.938,56.491L195.938,56.491z M210.459,56.491
		c-1.162-1.146-1.355-2.29-1.355-4.58V31.111c0-2.863,0.192-3.816,1.355-5.152c0.967-1.146,2.516-1.717,4.065-1.717
		c1.743,0,3.292,0.573,4.259,1.717c1.162,1.145,1.551,2.29,1.551,5.152v20.799c0,2.099-0.582,3.435-1.551,4.39
		c-0.967,1.144-2.71,1.908-4.065,1.908C213.169,58.208,211.426,57.445,210.459,56.491L210.459,56.491z M245.698,55.918
		l-8.907-11.259v7.061c0,2.29-0.194,3.244-1.162,4.58c-1.162,1.144-2.711,1.908-4.453,1.908s-3.484-0.763-4.453-2.1
		c-0.967-1.335-1.162-2.289-1.162-4.77V30.157c0-3.626,2.324-5.916,5.809-5.916c1.742,0,2.904,0.573,4.26,2.099l8.907,10.877V30.92
		c0-2.099,0.193-3.244,0.968-4.388c0.969-1.336,2.904-2.29,4.646-2.29c1.743,0,3.291,0.573,4.26,1.908
		c0.968,1.145,1.355,2.291,1.355,4.389v20.609c0,2.67-0.193,3.816-1.162,4.96c-1.162,1.336-2.71,2.1-4.453,2.1
		C248.408,58.208,246.859,57.445,245.698,55.918L245.698,55.918z"/>
	<path fill-rule="evenodd" clip-rule="evenodd" fill="#EE4799" d="M79.185,95.991c-2.712,0-3.679-0.191-4.647-0.764
		c-1.355-0.954-2.13-1.717-2.324-3.053c-0.193-0.763-0.193-1.335-0.193-3.625v-18.51c0-2.862,0-3.053,0.193-3.815
		c0.774-2.482,2.904-3.626,6.002-3.626h6.971c5.034,0,9.1,1.336,12.392,4.198c3.484,3.053,5.615,7.633,5.615,12.404
		c0,4.77-2.131,9.16-5.422,12.403c-2.324,1.909-5.229,3.435-8.133,4.007c-1.354,0.191-3.291,0.382-5.809,0.382H79.185L79.185,95.991
		z M83.057,85.877L83.057,85.877c3.871,0,4.84-0.19,6.195-1.144c1.742-1.145,2.904-3.244,2.904-5.343
		c0-2.48-1.549-4.961-3.679-5.916c-1.161-0.573-2.323-0.763-4.452-0.763l-0.969,0V85.877L83.057,85.877z M104.161,79.199
		c0-9.732,7.938-17.365,18.007-17.365c9.874,0,17.812,7.824,17.812,17.366c0.001,9.732-7.938,17.746-17.812,17.746
		C112.1,96.945,104.161,88.931,104.161,79.199L104.161,79.199L104.161,79.199z M115.391,79.199c0,3.817,3.098,6.87,6.777,6.87
		c3.679,0,6.775-3.053,6.775-6.679c0.001-3.625-3.097-6.679-6.775-6.679C118.488,72.71,115.391,75.573,115.391,79.199
		L115.391,79.199z M162.247,94.083l-8.907-11.449v7.251c0,2.291-0.387,3.245-1.354,4.39c-0.969,1.335-2.712,2.098-4.261,2.098
		c-1.74,0-3.29-0.954-4.452-2.29c-0.968-1.145-1.162-2.099-1.162-4.58V68.131c0-3.435,2.324-5.726,5.809-5.726
		c1.55,0,2.905,0.573,4.066,2.1l9.101,11.068v-6.488c0-2.29,0.387-3.244,1.161-4.389c0.968-1.527,2.71-2.291,4.453-2.291
		s3.099,0.573,4.26,1.909c0.968,1.144,1.354,2.29,1.354,4.389v20.608c0,2.671-0.387,3.626-1.354,4.962
		c-0.968,1.335-2.517,2.098-4.26,2.098C164.959,96.373,163.409,95.609,162.247,94.083L162.247,94.083z M178.705,91.03
		c-2.13-2.671-2.711-5.152-2.711-9.541V69.657c0-3.244,0.193-4.007,0.969-5.152c1.16-1.336,2.904-2.1,4.453-2.1
		s3.098,0.573,4.066,1.718c1.162,1.145,1.549,2.29,1.549,4.581v13.357c0,2.48,1.161,4.007,3.097,4.007
		c2.13,0,3.292-1.527,3.292-3.816V68.704c0-2.481,0.193-3.053,1.161-4.389c0.969-1.146,2.518-1.909,4.261-1.909
		c1.549,0,3.291,0.764,4.26,1.909c1.162,1.144,1.355,2.29,1.355,5.151v12.022c0,4.58-1.162,7.824-3.485,10.496
		c-2.712,3.053-6.778,4.961-10.844,4.961C185.676,96.945,181.416,94.656,178.705,91.03L178.705,91.03z M215.688,94.083
		c-0.775-1.144-0.97-2.098-0.97-4.388l0.001-16.984h-3.098c-1.938,0-3.1-0.382-4.066-1.335c-1.161-1.146-1.743-2.291-1.743-3.626
		c0.001-1.908,1.356-4.008,2.904-4.58c1.162-0.572,1.549-0.572,6.196-0.572h11.23c1.549,0,2.516,0,2.902,0c0.389,0,0.582,0,0.969,0
		c2.711,0.381,4.453,2.481,4.453,4.962c0,1.526-0.58,3.053-1.742,4.007c-0.773,0.763-2.323,1.145-4.259,1.145l-2.71,0v16.792
		c0,2.099-0.195,3.244-0.969,4.389c-0.969,1.526-2.518,2.48-4.453,2.48C218.396,96.373,216.848,95.419,215.688,94.083
		L215.688,94.083z M233.887,88.549c0-2.863,2.323-4.961,5.033-4.961c1.355,0,2.518,0.381,4.066,1.526
		c2.324,1.908,2.712,2.1,3.68,2.1c0.774,0,1.355-0.572,1.355-1.527c0-0.763-0.194-1.145-0.775-1.526
		c-0.387-0.191-0.58-0.382-2.322-0.954c-0.969-0.382-1.938-0.573-2.711-0.955c-5.035-1.718-7.358-4.961-7.358-9.541
		c0-6.488,5.034-10.877,12.392-10.877c6.195,0,10.844,3.053,10.844,7.251c0,2.48-1.743,4.389-4.261,4.389
		c-1.549,0-2.71-0.382-4.646-1.908c-1.162-0.954-1.743-1.145-2.324-1.145c-0.774,0-1.549,0.573-1.549,1.336
		c0,1.145,0.774,1.527,3.484,2.48c2.904,0.763,5.615,2.29,7.164,3.435c2.131,1.717,3.484,4.771,3.484,8.014
		c0,2.863-1.16,5.725-3.291,7.824c-2.129,2.29-5.228,3.435-9.486,3.435C239.502,96.945,233.887,93.129,233.887,88.549
		L233.887,88.549z"/>
	<path fill-rule="evenodd" clip-rule="evenodd" fill="#F5822A" d="M32.122,74.669c-0.772,0.335-1.126,0.424-1.497,0.326
		c-0.425-0.073-0.763-0.25-1.038-0.582c-0.15-0.194-0.221-0.356-0.503-1.009l-2.287-5.271c-0.329-0.761-0.377-0.869-0.415-1.11
		c-0.031-0.826,0.379-1.392,1.316-1.798l1.986-0.861c1.434-0.621,2.756-0.743,4.047-0.334c1.394,0.494,2.565,1.535,3.155,2.893
		c0.565,1.304,0.524,2.872-0.091,4.172c-0.347,0.861-0.985,1.654-1.742,2.176c-0.363,0.222-0.945,0.54-1.607,0.827L32.122,74.669
		L32.122,74.669z M31.952,71.257c1.079-0.533,1.354-0.653,1.623-1.091c0.3-0.518,0.372-1.259,0.112-1.856
		c-0.306-0.707-0.975-1.192-1.754-1.176c-0.346-0.044-0.701,0.045-1.307,0.309c-0.056,0.023-0.166,0.072-0.276,0.12L31.952,71.257
		L31.952,71.257z"/>
	<path fill-rule="evenodd" clip-rule="evenodd" fill="#EE4799" d="M41.725,71.234c-0.771,0.335-1.071,0.399-1.418,0.357
		c-0.504-0.105-0.818-0.227-1.039-0.583c-0.149-0.193-0.22-0.356-0.503-1.008l-2.285-5.271c-0.354-0.816-0.377-0.87-0.417-1.111
		c-0.086-0.802,0.379-1.392,1.261-1.774l1.985-0.861c1.434-0.622,2.756-0.744,4.047-0.335c1.37,0.439,2.542,1.481,3.131,2.839
		c0.589,1.358,0.525,2.872-0.012,4.202c-0.426,0.83-1.065,1.624-1.821,2.146c-0.362,0.222-0.891,0.516-1.606,0.827L41.725,71.234
		L41.725,71.234z M41.579,67.876L41.579,67.876c1.103-0.479,1.355-0.653,1.623-1.091c0.355-0.542,0.427-1.283,0.167-1.88
		c-0.307-0.707-1.054-1.222-1.778-1.231c-0.402-0.019-0.756,0.07-1.363,0.333l-0.276,0.12L41.579,67.876L41.579,67.876z"/>
	<path fill-rule="evenodd" clip-rule="evenodd" fill="#884030" d="M4.632,123.68c-0.223,0.486-0.448,0.841-0.671,1.058
		c-0.455,0.463-1.015,0.694-1.682,0.694c-0.806,0-1.436-0.301-1.883-0.898C0.132,124.176,0,123.775,0,123.334
		c0-0.374,0.094-0.748,0.285-1.115l4.347-8.51c0.198-0.387,0.483-0.694,0.855-0.915c0.375-0.221,0.792-0.332,1.254-0.332
		c0.473,0,0.9,0.111,1.276,0.336c0.378,0.227,0.667,0.54,0.872,0.946l4.389,8.577c0.178,0.339,0.264,0.678,0.264,1.023
		c0,0.505-0.178,0.949-0.528,1.33c-0.462,0.505-1.053,0.758-1.772,0.758c-0.542,0-0.99-0.131-1.338-0.394
		c-0.351-0.262-0.688-0.716-1.015-1.358H4.632L4.632,123.68z M6.04,120.64h1.424l-0.723-1.547L6.04,120.64L6.04,120.64z
		 M21.941,118.108l2.311-4.524c0.174-0.335,0.448-0.607,0.817-0.812c0.372-0.208,0.771-0.31,1.206-0.31
		c0.611,0,1.143,0.191,1.587,0.572c0.348,0.297,0.581,0.764,0.706,1.394l1.599,8.241c0.045,0.268,0.07,0.509,0.07,0.719
		c0,0.568-0.219,1.051-0.657,1.448c-0.438,0.397-0.973,0.595-1.603,0.595c-0.577,0-1.074-0.147-1.491-0.445
		c-0.42-0.297-0.677-0.684-0.782-1.167l-0.508-2.398l-0.907,2.267c-0.465,1.16-1.25,1.742-2.349,1.742
		c-1.095,0-1.873-0.576-2.332-1.723l-0.917-2.286l-0.375,2.042c-0.119,0.598-0.358,1.059-0.727,1.375
		c-0.444,0.394-0.969,0.592-1.567,0.592c-0.365,0-0.723-0.083-1.074-0.25c-0.351-0.162-0.625-0.377-0.83-0.639
		c-0.278-0.375-0.417-0.844-0.417-1.407c0-0.179,0.018-0.352,0.052-0.515l1.567-8.192c0.121-0.636,0.389-1.119,0.803-1.452
		c0.42-0.342,0.907-0.514,1.456-0.514c0.49,0,0.941,0.128,1.362,0.383c0.417,0.256,0.729,0.598,0.942,1.02L21.941,118.108
		L21.941,118.108z M36.224,121.385h2.088c0.501,0,0.886,0.035,1.154,0.102c0.267,0.07,0.524,0.199,0.768,0.384
		c0.498,0.39,0.744,0.889,0.744,1.499c0,0.627-0.247,1.132-0.744,1.519c-0.222,0.176-0.465,0.293-0.726,0.357
		c-0.261,0.061-0.653,0.092-1.178,0.092h-3.573c-0.528,0-0.9-0.009-1.112-0.032c-0.208-0.021-0.417-0.07-0.618-0.146
		c-0.546-0.205-0.914-0.502-1.105-0.886c-0.194-0.383-0.292-1.02-0.292-1.904v-6.947c0-0.675,0.038-1.151,0.111-1.426
		c0.076-0.275,0.24-0.534,0.49-0.777c0.278-0.281,0.587-0.46,0.921-0.543c0.337-0.08,0.928-0.122,1.77-0.122h2.738
		c0.875,0,1.445,0.023,1.706,0.068c0.261,0.041,0.528,0.156,0.799,0.345c0.556,0.387,0.834,0.892,0.834,1.519
		c0,0.649-0.247,1.167-0.744,1.554c-0.399,0.312-0.99,0.469-1.772,0.469h-2.258v0.87h1.804c0.507,0,0.921,0.112,1.24,0.335
		c0.414,0.294,0.622,0.688,0.622,1.18c0,0.511-0.208,0.911-0.622,1.199c-0.312,0.218-0.782,0.326-1.404,0.326h-1.64V121.385
		L36.224,121.385z M51.494,120.413l1.081,1.592c0.299,0.438,0.448,0.893,0.448,1.369c0,0.578-0.219,1.067-0.66,1.463
		c-0.442,0.397-0.991,0.595-1.641,0.595c-0.827,0-1.456-0.327-1.883-0.975l-1.915-2.884v1.732c0,0.621-0.223,1.129-0.664,1.529
		s-0.966,0.598-1.578,0.598c-0.747,0-1.345-0.256-1.792-0.768c-0.366-0.418-0.55-1.02-0.55-1.807v-7.876
		c0-0.832,0.229-1.442,0.692-1.835c0.461-0.393,1.178-0.591,2.151-0.591h2.912c0.942,0,1.849,0.266,2.718,0.796
		c0.781,0.479,1.366,1.131,1.751,1.947c0.285,0.62,0.427,1.234,0.427,1.847c0,0.618-0.114,1.18-0.347,1.686
		C52.414,119.335,52.032,119.863,51.494,120.413L51.494,120.413z M46.924,116.472v1.375l0.507,0.009c0.699,0,1.05-0.224,1.05-0.674
		c0-0.144-0.056-0.282-0.167-0.416c-0.114-0.134-0.243-0.217-0.393-0.249C47.833,116.491,47.5,116.478,46.924,116.472
		L46.924,116.472z M49.6,117.763C49.84,117.763,44.648,117.763,49.6,117.763L49.6,117.763z M59.16,115.074v7.932
		c0,0.732-0.198,1.304-0.591,1.713c-0.455,0.476-1.025,0.713-1.71,0.713c-0.673,0-1.24-0.227-1.702-0.684
		c-0.216-0.211-0.369-0.445-0.452-0.701c-0.087-0.255-0.129-0.604-0.129-1.041v-7.932c0-0.53,0.038-0.924,0.118-1.18
		c0.077-0.255,0.233-0.504,0.462-0.748c0.441-0.457,1.007-0.684,1.702-0.684c0.699,0,1.266,0.224,1.699,0.674
		c0.234,0.229,0.39,0.482,0.473,0.757C59.118,114.169,59.16,114.563,59.16,115.074L59.16,115.074z M67.924,112.21
		c1.696,0,3.252,0.521,4.663,1.562c1.112,0.825,1.668,1.679,1.668,2.558c0,0.748-0.341,1.33-1.019,1.742
		c-0.386,0.236-0.806,0.354-1.262,0.354c-0.375,0-0.729-0.08-1.07-0.243c-0.143-0.071-0.494-0.383-1.057-0.947
		c-0.525-0.524-1.178-0.786-1.967-0.786c-0.705,0-1.31,0.217-1.821,0.655c-0.569,0.483-0.855,1.097-0.855,1.845
		c0,0.713,0.268,1.31,0.803,1.79c0.525,0.469,1.143,0.704,1.862,0.704c0.634,0,1.214-0.195,1.742-0.582
		c0.11-0.074,0.368-0.314,0.775-0.713c0.406-0.394,0.924-0.592,1.557-0.592c0.632,0,1.174,0.205,1.63,0.614
		c0.455,0.409,0.681,0.895,0.681,1.454c0,0.783-0.501,1.573-1.498,2.373c-1.397,1.122-3.013,1.684-4.844,1.684
		c-1.133,0-2.203-0.221-3.208-0.664c-1.348-0.599-2.397-1.487-3.145-2.66c-0.671-1.048-1.007-2.177-1.007-3.389
		c0-1.931,0.782-3.577,2.342-4.945C64.264,112.834,65.942,112.229,67.924,112.21L67.924,112.21z M79.176,123.68
		c-0.223,0.486-0.449,0.841-0.67,1.058c-0.456,0.463-1.016,0.694-1.683,0.694c-0.807,0-1.436-0.301-1.883-0.898
		c-0.264-0.358-0.396-0.758-0.396-1.199c0-0.374,0.094-0.748,0.285-1.115l4.348-8.51c0.197-0.387,0.482-0.694,0.855-0.915
		c0.375-0.221,0.791-0.332,1.254-0.332c0.473,0,0.9,0.111,1.275,0.336c0.379,0.227,0.667,0.54,0.872,0.946l4.39,8.577
		c0.177,0.339,0.264,0.678,0.264,1.023c0,0.505-0.178,0.949-0.528,1.33c-0.462,0.505-1.054,0.758-1.772,0.758
		c-0.542,0-0.99-0.131-1.338-0.394c-0.352-0.262-0.688-0.716-1.015-1.358H79.176L79.176,123.68z M80.583,120.64h1.425l-0.723-1.547
		L80.583,120.64L80.583,120.64z M103.213,120.413l1.08,1.592c0.299,0.438,0.449,0.893,0.449,1.369c0,0.578-0.219,1.067-0.66,1.463
		c-0.441,0.397-0.991,0.595-1.641,0.595c-0.827,0-1.456-0.327-1.884-0.975l-1.915-2.884v1.732c0,0.621-0.222,1.129-0.663,1.529
		c-0.442,0.4-0.966,0.598-1.578,0.598c-0.747,0-1.345-0.256-1.792-0.768c-0.366-0.418-0.551-1.02-0.551-1.807v-7.876
		c0-0.832,0.23-1.442,0.693-1.835c0.461-0.393,1.178-0.591,2.15-0.591h2.912c0.941,0,1.849,0.266,2.718,0.796
		c0.781,0.479,1.365,1.131,1.751,1.947c0.285,0.62,0.428,1.234,0.428,1.847c0,0.618-0.115,1.18-0.348,1.686
		C104.134,119.335,103.752,119.863,103.213,120.413L103.213,120.413z M98.643,116.472v1.375l0.508,0.009
		c0.699,0,1.05-0.224,1.05-0.674c0-0.144-0.056-0.282-0.167-0.416c-0.115-0.134-0.244-0.217-0.393-0.249
		C99.553,116.491,99.219,116.478,98.643,116.472L98.643,116.472z M110.92,114.953v5.028c0,0.457,0.115,0.812,0.342,1.071
		c0.226,0.259,0.537,0.39,0.931,0.39c0.399,0,0.713-0.125,0.935-0.371c0.227-0.246,0.338-0.591,0.338-1.032v-5.096
		c0-0.518,0.023-0.869,0.076-1.051c0.053-0.185,0.184-0.4,0.403-0.643c0.458-0.525,1.049-0.787,1.769-0.787
		c0.727,0,1.324,0.256,1.793,0.768c0.215,0.236,0.361,0.488,0.431,0.757c0.073,0.268,0.107,0.694,0.107,1.275v4.514
		c0,1.678-0.482,3.021-1.445,4.024c-0.604,0.636-1.317,1.119-2.137,1.442c-0.727,0.294-1.484,0.441-2.27,0.441
		c-1.073,0-2.077-0.262-3.017-0.786c-1.199-0.662-2.039-1.618-2.512-2.864c-0.219-0.557-0.327-1.308-0.327-2.257v-4.514
		c0-0.602,0.028-1.02,0.087-1.256c0.059-0.237,0.19-0.476,0.402-0.719c0.471-0.55,1.071-0.825,1.811-0.825
		c0.661,0,1.221,0.221,1.683,0.665c0.232,0.217,0.39,0.454,0.473,0.71C110.879,114.096,110.92,114.467,110.92,114.953
		L110.92,114.953z M127.618,117.415v-2.378c0-0.422,0.027-0.751,0.087-0.988c0.055-0.234,0.166-0.461,0.33-0.678
		c0.205-0.281,0.477-0.502,0.812-0.666c0.341-0.163,0.702-0.243,1.081-0.243c0.706,0,1.286,0.252,1.741,0.757
		c0.201,0.224,0.344,0.458,0.421,0.694c0.079,0.236,0.118,0.566,0.118,0.981v7.841c0,0.531-0.031,0.92-0.098,1.17
		c-0.062,0.25-0.198,0.493-0.403,0.729c-0.438,0.531-1.032,0.796-1.779,0.796c-0.733,0-1.345-0.285-1.831-0.854l-3.656-4.287v2.688
		c0,0.429-0.034,0.761-0.1,0.997c-0.07,0.234-0.202,0.463-0.4,0.688c-0.448,0.511-1.035,0.768-1.762,0.768
		c-0.768,0-1.376-0.275-1.832-0.825c-0.191-0.237-0.318-0.477-0.389-0.72c-0.066-0.243-0.102-0.604-0.102-1.077v-8.081
		c0-0.688,0.219-1.238,0.658-1.649c0.438-0.413,1.021-0.617,1.748-0.617c0.636,0,1.201,0.278,1.699,0.834L127.618,117.415
		L127.618,117.415z M135.822,120.506c0.515,0,1.057,0.208,1.627,0.62c0.489,0.349,0.813,0.566,0.969,0.649
		c0.157,0.086,0.324,0.128,0.508,0.128c0.17,0,0.309-0.051,0.424-0.154c0.111-0.106,0.167-0.239,0.167-0.409
		c0-0.204-0.114-0.38-0.347-0.524c-0.115-0.073-0.8-0.312-2.055-0.719c-2.043-0.662-3.064-1.887-3.064-3.673
		c0-1.355,0.538-2.419,1.619-3.193c0.936-0.682,2.103-1.02,3.503-1.02c1.206,0,2.247,0.262,3.124,0.786
		c0.414,0.243,0.743,0.546,0.983,0.915c0.239,0.364,0.362,0.738,0.362,1.125c0,0.508-0.172,0.923-0.516,1.256
		c-0.344,0.329-0.775,0.495-1.296,0.495c-0.566,0-1.188-0.246-1.876-0.739c-0.429-0.304-0.748-0.457-0.967-0.457
		c-0.149,0-0.277,0.051-0.393,0.151c-0.11,0.098-0.166,0.217-0.166,0.354c0,0.189,0.093,0.342,0.283,0.461
		c0.193,0.118,0.557,0.256,1.1,0.409c1.281,0.371,2.272,0.818,2.964,1.349c0.427,0.326,0.765,0.757,1.019,1.298
		c0.25,0.54,0.375,1.105,0.375,1.697c0,1.237-0.441,2.26-1.324,3.072c-0.936,0.867-2.28,1.301-4.031,1.301
		c-1.545,0-2.832-0.38-3.857-1.141c-0.816-0.614-1.223-1.32-1.223-2.126c0-0.562,0.215-1.029,0.643-1.396
		C134.777,120.685,135.256,120.512,135.822,120.506L135.822,120.506z M141.88,124.186
		C147.568,120.351,133.051,130.125,141.88,124.186L141.88,124.186z M157.66,112.21c1.438,0,2.738,0.338,3.898,1.02
		c1.168,0.681,2.062,1.588,2.677,2.726c0.511,0.943,0.765,1.934,0.765,2.976c0,1.1-0.282,2.146-0.846,3.137
		c-0.639,1.118-1.535,1.997-2.689,2.64c-1.16,0.649-2.442,0.975-3.847,0.975c-1.372,0-2.661-0.348-3.867-1.048
		c-1.169-0.681-2.048-1.573-2.638-2.679c-0.512-0.943-0.765-1.985-0.765-3.126c0-0.943,0.219-1.848,0.66-2.718
		c0.604-1.201,1.509-2.155,2.71-2.855C154.865,112.584,156.18,112.236,157.66,112.21L157.66,112.21z M157.678,116.452
		c-0.834,0-1.525,0.311-2.075,0.927c-0.399,0.444-0.601,0.952-0.601,1.524c0,0.812,0.33,1.464,0.986,1.957
		c0.512,0.381,1.07,0.572,1.682,0.572c0.721,0,1.335-0.233,1.852-0.703c0.551-0.486,0.825-1.083,0.825-1.796
		c0-0.693-0.271-1.281-0.813-1.768C159.022,116.701,158.404,116.465,157.678,116.452L157.678,116.452z M174.152,117.415v-2.378
		c0-0.422,0.028-0.751,0.088-0.988c0.055-0.234,0.166-0.461,0.33-0.678c0.205-0.281,0.476-0.502,0.812-0.666
		c0.34-0.163,0.702-0.243,1.081-0.243c0.706,0,1.285,0.252,1.74,0.757c0.202,0.224,0.345,0.458,0.421,0.694
		c0.08,0.236,0.117,0.566,0.117,0.981v7.841c0,0.531-0.03,0.92-0.097,1.17c-0.062,0.25-0.198,0.493-0.402,0.729
		c-0.438,0.531-1.032,0.796-1.779,0.796c-0.733,0-1.345-0.285-1.832-0.854l-3.655-4.287v2.688c0,0.429-0.035,0.761-0.102,0.997
		c-0.068,0.234-0.2,0.463-0.399,0.688c-0.448,0.511-1.034,0.768-1.762,0.768c-0.768,0-1.376-0.275-1.831-0.825
		c-0.19-0.237-0.32-0.477-0.389-0.72c-0.066-0.243-0.102-0.604-0.102-1.077l0.001-8.081c0-0.688,0.218-1.238,0.655-1.649
		c0.438-0.413,1.022-0.617,1.749-0.617c0.636,0,1.202,0.278,1.7,0.834L174.152,117.415L174.152,117.415z M175.271,124.025
		C178.217,127.476,164.31,111.187,175.271,124.025L175.271,124.025z M188.547,112.555h2.801c2.043,0,3.722,0.538,5.038,1.611
		c0.79,0.643,1.38,1.414,1.783,2.314c0.351,0.793,0.528,1.608,0.528,2.452c0,0.95-0.223,1.854-0.671,2.718
		c-0.769,1.496-1.978,2.557-3.624,3.184c-0.89,0.335-2.082,0.504-3.573,0.504h-1.945c-0.542,0-0.949-0.022-1.216-0.07
		c-0.271-0.047-0.512-0.134-0.73-0.268c-0.428-0.262-0.709-0.553-0.841-0.876c-0.132-0.319-0.198-0.88-0.198-1.672v-7.023
		c0-0.703,0.027-1.173,0.08-1.403c0.056-0.23,0.193-0.47,0.42-0.713C186.868,112.814,187.584,112.562,188.547,112.555
		L188.547,112.555z M190.493,116.497v4.888c0.784-0.013,1.327-0.042,1.618-0.093c0.292-0.051,0.566-0.163,0.824-0.336
		c0.338-0.227,0.605-0.518,0.803-0.875c0.198-0.361,0.295-0.739,0.295-1.139c0-0.732-0.281-1.336-0.844-1.818
		c-0.501-0.425-1.175-0.637-2.016-0.637C190.979,116.487,190.75,116.491,190.493,116.497L190.493,116.497z M204.521,114.953v5.028
		c0,0.457,0.115,0.812,0.341,1.071c0.226,0.259,0.538,0.39,0.931,0.39c0.4,0,0.712-0.125,0.936-0.371
		c0.225-0.246,0.336-0.591,0.336-1.032v-5.096c0-0.518,0.025-0.869,0.077-1.051c0.052-0.185,0.185-0.4,0.402-0.643
		c0.46-0.525,1.05-0.787,1.77-0.787c0.727,0,1.324,0.256,1.792,0.768c0.217,0.236,0.363,0.488,0.433,0.757
		c0.071,0.268,0.106,0.694,0.106,1.275v4.514c0,1.678-0.482,3.021-1.445,4.024c-0.604,0.636-1.317,1.119-2.137,1.442
		c-0.727,0.294-1.483,0.441-2.27,0.441c-1.073,0-2.078-0.262-3.016-0.786c-1.199-0.662-2.041-1.618-2.514-2.864
		c-0.217-0.557-0.326-1.308-0.326-2.257v-4.514c0-0.602,0.027-1.02,0.086-1.256c0.061-0.237,0.191-0.476,0.404-0.719
		c0.469-0.55,1.07-0.825,1.811-0.825c0.66,0,1.219,0.221,1.682,0.665c0.232,0.217,0.389,0.454,0.473,0.71
		C204.479,114.096,204.521,114.467,204.521,114.953L204.521,114.953z M221.219,117.415v-2.378c0-0.422,0.028-0.751,0.087-0.988
		c0.056-0.234,0.167-0.461,0.331-0.678c0.204-0.281,0.475-0.502,0.812-0.666c0.34-0.163,0.702-0.243,1.081-0.243
		c0.704,0,1.285,0.252,1.741,0.757c0.201,0.224,0.344,0.458,0.42,0.694c0.08,0.236,0.117,0.566,0.117,0.981v7.841
		c0,0.531-0.031,0.92-0.097,1.17c-0.062,0.25-0.198,0.493-0.403,0.729c-0.438,0.531-1.031,0.796-1.778,0.796
		c-0.733,0-1.345-0.285-1.831-0.854l-3.656-4.287v2.688c0,0.429-0.035,0.761-0.102,0.997c-0.069,0.234-0.201,0.463-0.398,0.688
		c-0.449,0.511-1.036,0.768-1.762,0.768c-0.769,0-1.377-0.275-1.832-0.825c-0.191-0.237-0.32-0.477-0.389-0.72
		c-0.066-0.243-0.102-0.604-0.102-1.077v-8.081c0-0.688,0.219-1.238,0.656-1.649c0.438-0.413,1.022-0.617,1.748-0.617
		c0.637,0,1.203,0.278,1.699,0.834L221.219,117.415L221.219,117.415z M232.336,116.88l2.585-3.442
		c0.489-0.648,1.119-0.975,1.895-0.975c0.632,0,1.178,0.208,1.64,0.623c0.463,0.416,0.692,0.905,0.692,1.474
		c0,0.418-0.122,0.793-0.366,1.125l-2.332,3.117l2.851,3.324c0.284,0.336,0.428,0.727,0.428,1.161c0,0.588-0.227,1.09-0.679,1.512
		c-0.451,0.422-0.99,0.633-1.623,0.633c-0.698,0-1.232-0.208-1.598-0.627l-3.492-4.009v2.209c0,0.399-0.021,0.69-0.066,0.865
		c-0.045,0.18-0.143,0.381-0.293,0.605c-0.44,0.636-1.068,0.956-1.894,0.956c-0.719,0-1.289-0.217-1.706-0.653
		c-0.416-0.432-0.625-1.019-0.625-1.764v-8.193c0-0.7,0.201-1.256,0.602-1.675c0.449-0.457,1.015-0.684,1.699-0.684
		c0.695,0,1.271,0.23,1.734,0.693c0.236,0.236,0.389,0.455,0.451,0.649c0.066,0.198,0.098,0.543,0.098,1.036V116.88L232.336,116.88z
		 M245.388,115.074v7.932c0,0.732-0.198,1.304-0.591,1.713c-0.455,0.476-1.025,0.713-1.71,0.713c-0.673,0-1.241-0.227-1.702-0.684
		c-0.216-0.211-0.368-0.445-0.451-0.701c-0.088-0.255-0.129-0.604-0.129-1.041v-7.932c0-0.53,0.037-0.924,0.117-1.18
		c0.077-0.255,0.234-0.504,0.463-0.748c0.441-0.457,1.008-0.684,1.702-0.684c0.698,0,1.266,0.224,1.7,0.674
		c0.232,0.229,0.389,0.482,0.472,0.757C245.346,114.169,245.388,114.563,245.388,115.074L245.388,115.074z M255.102,117.415v-2.378
		c0-0.422,0.027-0.751,0.086-0.988c0.057-0.234,0.166-0.461,0.33-0.678c0.205-0.281,0.477-0.502,0.813-0.666
		c0.341-0.163,0.701-0.243,1.08-0.243c0.706,0,1.286,0.252,1.741,0.757c0.202,0.224,0.344,0.458,0.422,0.694
		c0.079,0.236,0.117,0.566,0.117,0.981v7.841c0,0.531-0.031,0.92-0.098,1.17c-0.062,0.25-0.198,0.493-0.403,0.729
		c-0.438,0.531-1.032,0.796-1.779,0.796c-0.732,0-1.345-0.285-1.831-0.854l-3.656-4.287v2.688c0,0.429-0.034,0.761-0.1,0.997
		c-0.07,0.234-0.202,0.463-0.4,0.688c-0.447,0.511-1.036,0.768-1.762,0.768c-0.768,0-1.375-0.275-1.832-0.825
		c-0.19-0.237-0.318-0.477-0.389-0.72c-0.066-0.243-0.101-0.604-0.101-1.077v-8.081c0-0.688,0.219-1.238,0.657-1.649
		c0.438-0.413,1.021-0.617,1.748-0.617c0.636,0,1.201,0.278,1.699,0.834L255.102,117.415L255.102,117.415z M262.002,115.899
		c-0.354-0.307-0.598-0.576-0.729-0.806c-0.132-0.23-0.198-0.514-0.198-0.85c0-0.588,0.227-1.081,0.681-1.479
		c0.429-0.368,0.938-0.553,1.529-0.553c0.72,0,1.294,0.265,1.721,0.795c0.306,0.38,0.458,0.797,0.458,1.244
		c0,0.313-0.1,0.662-0.305,1.049l-0.793,1.499c-0.375,0.713-0.861,1.067-1.467,1.067c-0.318,0-0.601-0.096-0.84-0.291
		c-0.24-0.192-0.362-0.422-0.362-0.684C261.696,116.673,261.797,116.343,262.002,115.899L262.002,115.899z"/>
</g>
</svg>
