<?xml version="1.0" encoding="utf-8"?>
<!-- Generator: Adobe Illustrator 16.0.0, SVG Export Plug-In . SVG Version: 6.00 Build 0)  -->
<!DOCTYPE svg PUBLIC "-//W3C//DTD SVG 1.1//EN" "http://www.w3.org/Graphics/SVG/1.1/DTD/svg11.dtd">
<svg version="1.1" id="Layer_1" xmlns="http://www.w3.org/2000/svg" xmlns:xlink="http://www.w3.org/1999/xlink" x="0px" y="0px"
	 width="237.758px" height="237.76px" viewBox="0 0 237.758 237.76" enable-background="new 0 0 237.758 237.76"
	 xml:space="preserve">
<g>
	<circle fill="#FFFFFF" stroke="#1D1D1B" stroke-miterlimit="10" cx="118.879" cy="118.88" r="118.379"/>
	<circle fill="#007436" cx="118.879" cy="118.88" r="113.448"/>
	<circle fill="#FFFFFF" cx="118.879" cy="118.88" r="109.994"/>
	<g>
		<path fill="#007436" d="M180.489,158.853c0.037-0.106-0.033-0.178-0.139-0.285s-0.211-0.145-0.354-0.146
			c-0.105,0.034-0.285,0.14-0.463,0.314l-0.467,0.455l0.701,0.717l0.43-0.42c0.072-0.07,0.107-0.177,0.217-0.353
			C180.487,159.064,180.522,158.959,180.489,158.853z"/>
		<path fill="#007436" d="M100.397,194.041c-0.31-0.133-0.645-0.204-1.007-0.214c-1.255-0.065-2.423,0.603-3.503,2.005
			c-1.192,1.574-1.828,3.004-1.906,4.29c0.087,0.477,0.299,0.751,0.635,0.823c2.269,0.429,4.276,0.617,6.021,0.564
			c0.354-0.141,0.602-0.418,0.744-0.833c0.622-1.526,0.879-2.974,0.772-4.338C102.064,195.274,101.479,194.508,100.397,194.041z"/>
		<path fill="#007436" d="M103.688,38.493c0.716-1.174,0.907-2.558,0.576-4.15c-0.184-0.881-0.51-1.68-0.979-2.395
			c-1.021-1.485-2.742-1.904-5.167-1.258c-0.197,0.076-0.412,0.157-0.644,0.24s-0.344,0.23-0.335,0.44
			c1.054,5.403,1.631,8.341,1.729,8.815l0.309,0.201C101.312,40.228,102.815,39.597,103.688,38.493z"/>
		<path fill="#007436" d="M154.157,196.261c-0.836-1.422-1.828-2.505-2.977-3.249c-0.9-0.575-1.865-0.575-2.893,0
			c-0.293,0.165-0.555,0.389-0.781,0.67c-0.814,0.957-0.992,2.291-0.535,4.001c0.525,1.903,1.275,3.276,2.25,4.119
			c0.432,0.221,0.777,0.22,1.037-0.004c1.721-1.541,3.09-3.021,4.107-4.439C154.469,196.992,154.399,196.626,154.157,196.261z"/>
		<path fill="#007436" d="M183.387,162.677c1.611-1.576,1.643-4.198,0.064-5.811c-1.576-1.613-4.197-1.643-5.811-0.066
			c-1.648,1.611-1.678,4.233-0.102,5.846C179.116,164.259,181.739,164.288,183.387,162.677z M179.084,157.772
			c0.322-0.314,0.607-0.524,0.82-0.663c0.25-0.104,0.498-0.137,0.746-0.099c0.283,0.075,0.494,0.219,0.705,0.434
			c0.174,0.179,0.314,0.394,0.383,0.607c0.068,0.213,0.029,0.461-0.008,0.708c-0.037,0.105-0.146,0.282-0.219,0.494
			c0.143-0.069,0.285-0.139,0.391-0.173c0.072,0.001,0.178,0.037,0.355,0.004c0.176,0.037,0.283,0.074,0.354,0.075l1.518,0.549
			l-1.219,1.19l-1.625-0.515c-0.211-0.073-0.389-0.11-0.459-0.111c-0.107,0.034-0.248,0.104-0.355,0.209l-0.072,0.069l1.4,1.434
			l-1.111,1.086l-3.432-3.512L179.084,157.772z"/>
		<path fill="#007436" d="M42.277,152.597c0.342,0.166,0.714,0.16,1.116-0.014c1.546-0.573,2.786-1.36,3.721-2.361
			c0.724-0.786,0.893-1.735,0.507-2.848c-0.11-0.317-0.285-0.613-0.521-0.887c-0.801-0.969-2.082-1.378-3.847-1.228
			c-1.966,0.184-3.449,0.682-4.449,1.492c-0.293,0.387-0.354,0.728-0.179,1.023C39.842,149.738,41.059,151.346,42.277,152.597z"/>
		<path fill="#007436" d="M193.282,101.986c-0.619-1.142-1.84-1.812-3.66-2.009c-2.033-0.203-3.637,0.009-4.812,0.634
			c-0.375,0.334-0.504,0.669-0.385,1.004c0.846,2.234,1.762,4.106,2.752,5.618c0.314,0.236,0.693,0.306,1.137,0.208
			c1.682-0.276,3.098-0.829,4.246-1.66c0.891-0.654,1.25-1.585,1.078-2.79C193.588,102.646,193.469,102.312,193.282,101.986z"/>
		<path fill="#007436" d="M150.973,54.041c2.318,0.578,4.379,0.892,6.186,0.94c0.373-0.124,0.645-0.396,0.818-0.816
			c0.732-1.54,1.084-3.019,1.055-4.435c-0.031-1.105-0.59-1.931-1.68-2.477c-0.311-0.156-0.654-0.25-1.027-0.281
			c-1.291-0.142-2.537,0.479-3.736,1.864c-1.324,1.555-2.064,2.994-2.223,4.316C150.428,53.651,150.629,53.948,150.973,54.041z"/>
		<path fill="#007436" d="M118.879,14.805C61.4,14.805,14.804,61.4,14.804,118.88S61.4,222.955,118.879,222.955
			c57.479,0,104.077-46.596,104.077-104.075S176.358,14.805,118.879,14.805z M176.118,65.721c-0.109-0.291-0.221-0.571-0.336-0.838
			c-0.113-0.268-0.098-0.513,0.047-0.736c0.705-0.636,1.441-1.164,2.205-1.585c0.348-0.104,0.699-0.046,1.057,0.178
			c1.084,1.578,2.652,3.92,4.705,7.027c0.182,0.214,0.242,0.591,0.184,1.13c-0.195,0.212-0.477,0.544-0.844,0.996
			c2.391,0.463,4.113,1.494,5.17,3.091c1.17,1.771,1.287,3.592,0.354,5.46c-0.498,1.079-1.293,2.021-2.387,2.828
			c-0.523,0.22-1.041,0.145-1.557-0.224c-0.516-0.369-0.988-0.724-1.422-1.063c-0.057-0.087-0.457-0.407-1.197-0.961
			c-0.473-0.397-0.812-0.756-1.023-1.075c-0.172-0.262-0.291-0.537-0.357-0.827c0.271-0.472,0.559-0.953,0.859-1.444
			c0.273-0.597,0.27-1.138-0.008-1.621c-0.316-0.542-0.869-0.906-1.66-1.093c-1.389-0.083-3.223,0.647-5.496,2.191l-6.955,4.72
			c-0.078,0.26,0.012,0.649,0.27,1.166c0.258,0.519,0.346,0.919,0.264,1.203c-0.084,0.284-0.275,0.547-0.576,0.787
			c-0.184,0.162-0.465,0.369-0.842,0.618c-0.455,0.259-0.756,0.437-0.9,0.532c-0.416,0.191-0.748,0.161-0.998-0.091l-1.182-1.598
			l-5.609-8.494c-0.23-0.349-0.172-0.7,0.178-1.056c0.91-0.643,1.621-1.112,2.135-1.41c0.424-0.114,0.889,0.101,1.395,0.644
			c0.504,0.542,0.945,0.814,1.32,0.816l1.83-1.209l10.76-7.106C176.02,66.332,176.227,66.013,176.118,65.721z M142.012,50.368
			c1.074-2.303,2.613-4.188,4.615-5.657c2-1.469,4.246-2.28,6.738-2.434c1.865-0.153,3.75,0.245,5.648,1.196
			c2.332,1.169,4.051,2.789,5.154,4.86c0.994,1.822,1.42,3.768,1.279,5.838c-0.158,2.412-0.457,4.054-0.893,4.925
			c-0.266,0.529-1.145,0.73-2.639,0.604c-1.789-0.157-4.451-0.518-7.982-1.081l-4.553-0.938c-0.264-0.016-0.459,0.062-0.584,0.233
			c-0.514,1.183-0.551,2.4-0.107,3.653c0.441,1.253,1.223,2.16,2.344,2.722c1.369,0.687,3.252,0.812,5.648,0.379
			c0.482-0.108,0.984-0.236,1.506-0.384s0.961-0.073,1.32,0.223c0.637,0.903,0.807,1.729,0.51,2.476
			c-0.748,0.948-2.359,1.601-4.834,1.956s-4.988-0.105-7.539-1.384c-1.898-0.951-3.422-2.183-4.572-3.693
			c-1.492-1.915-2.307-4.134-2.445-6.655C140.504,54.889,140.965,52.608,142.012,50.368z M128.083,28.518
			c0.195-1.238,0.799-2.226,1.812-2.965c1.016-0.739,2.141-1.012,3.379-0.817s2.227,0.799,2.965,1.813s1.012,2.141,0.816,3.378
			c-0.193,1.238-0.799,2.227-1.812,2.965c-1.016,0.739-2.141,1.012-3.379,0.817s-2.227-0.799-2.965-1.813
			S127.887,29.755,128.083,28.518z M121.936,56.873c0.209-0.427,0.688-0.615,1.438-0.568s1.242-0.123,1.48-0.509l2.273-14.47
			c0.129-0.827,0.09-1.363-0.117-1.607c-0.092-0.085-0.436-0.262-1.027-0.531c-0.43-0.174-0.691-0.427-0.779-0.759
			c-0.021-0.532,0.105-1.342,0.383-2.429c0.168-0.396,0.496-0.592,0.99-0.586c0.412,0.065,0.824,0.13,1.236,0.195l6.91,1.085
			c0.676-0.034,1.152,0.181,1.432,0.647c0.123,0.337,0.102,1.038-0.066,2.104l-2.771,17.637c0.049,0.36,0.309,0.612,0.779,0.757
			c0.74,0.222,1.143,0.356,1.207,0.4c0.287,0.187,0.408,0.54,0.361,1.062c-0.047,0.521-0.113,1.057-0.199,1.606
			c-0.133,0.613-0.438,0.988-0.918,1.124l-1.105-0.016c-0.826-0.13-2.721-0.409-5.682-0.84c-2.305-0.361-4.178-0.656-5.621-0.883
			c-0.334-0.123-0.547-0.333-0.641-0.63C121.504,59.171,121.651,58.239,121.936,56.873z M61.069,158.991
			c0.133-1.207,0.672-2.188,1.617-2.945c0.944-0.758,2.021-1.07,3.227-0.937c1.206,0.133,2.188,0.671,2.944,1.616
			c0.758,0.945,1.07,2.021,0.938,3.227c-0.133,1.205-0.672,2.188-1.617,2.945c-0.944,0.757-2.021,1.069-3.227,0.937
			c-1.205-0.133-2.188-0.672-2.944-1.617C61.249,161.272,60.937,160.197,61.069,158.991z M47.327,77.953
			c1.73,0,3.133,1.402,3.133,3.133c0,1.729-1.402,3.132-3.133,3.132c-1.729,0-3.132-1.402-3.132-3.132
			C44.195,79.355,45.598,77.953,47.327,77.953z M25.793,133.869c-0.094,0.382-0.179,0.747-0.255,1.095
			c-0.21,0.345-0.519,0.564-0.923,0.658c-0.271,0.062-0.69,0.068-1.26,0.02c-0.635-0.084-1.053-0.129-1.254-0.134
			c-0.435-0.112-0.645-0.421-0.631-0.926l0.286-10.896l0.089-1.462c0.247-0.431,0.706-0.638,1.38-0.619
			c0.571,0.015,1.143,0.029,1.715,0.045c0.603,0.113,0.952,0.56,1.05,1.341c0.098,0.782,0.346,1.259,0.745,1.432l11.094,0.443
			c0.336,0.009,0.672,0.018,1.009,0.026c0.403,0.011,0.693-0.134,0.87-0.432l0.185-7.062l-0.189-0.459
			c-0.769-0.223-1.389-0.322-1.859-0.302l-10.997-0.288c-0.343,0.192-0.57,0.54-0.685,1.042c-0.187,0.702-0.314,1.103-0.385,1.201
			c-0.412,0.326-0.971,0.479-1.678,0.461c-0.57-0.082-1.157-0.148-1.761-0.198c-0.333-0.177-0.51-0.468-0.533-0.872l0.26-11.806
			l0.178-1.004c0.28-0.43,0.774-0.637,1.48-0.618c1.141,0.03,1.757,0.047,1.866,0.05l0,0c0.032,0,0.026,0,0,0
			c0.432,0.18,0.697,0.648,0.796,1.408c0.098,0.76,0.363,1.214,0.797,1.359c15.465,0.574,24.157,0.87,26.075,0.887
			c0.339-0.125,0.557-0.381,0.651-0.766c0.093-0.384,0.179-0.761,0.256-1.129c0.217-0.532,0.678-0.79,1.384-0.771
			c0.604,0.05,1.192,0.082,1.764,0.097c0.499,0.247,0.739,0.722,0.721,1.422c-0.017,0.602-0.031,1.187-0.047,1.754l-0.272,10.369
			c-0.123,0.431-0.466,0.689-1.029,0.774l-2.352-0.062c-0.396-0.149-0.643-0.61-0.739-1.382s-0.343-1.231-0.74-1.383L45.5,116.99
			c-0.468-0.012-0.771,0.112-0.912,0.37l-0.146,5.559c-0.034,0.033-0.037,0.114-0.007,0.246c0.031,0.1,0.029,0.165-0.005,0.196
			c-0.024,0.919,0.096,1.432,0.36,1.536l7.45,0.549c0.632,0.084,1.04-0.191,1.224-0.826c0.329-1.067,0.51-1.602,0.543-1.601
			c0.475-0.291,1.445-0.349,2.91-0.176c0.362,0.211,0.571,0.503,0.628,0.874c0.006,1.044-0.061,4.256-0.202,9.637
			c-0.049,0.571-0.082,1.176-0.098,1.814c-0.018,0.639-0.182,1.123-0.491,1.45c-0.478,0.258-1.434,0.266-2.87,0.026
			c-0.298-0.176-0.503-0.67-0.616-1.48c-0.115-0.709-0.441-1.071-0.978-1.085c-14.214-0.575-22.025-0.882-23.434-0.919l-2.415-0.063
			C26.104,133.229,25.887,133.486,25.793,133.869z M36.167,162.84c-1.158,0.152-2.715-0.481-4.668-1.904
			c-1.955-1.423-3.385-3.437-4.29-6.041c-0.674-1.938-0.899-3.819-0.678-5.642c0.258-2.333,1.188-4.419,2.793-6.259
			c1.479-1.689,3.335-2.958,5.569-3.806c2.298-0.869,4.634-1.138,7.012-0.807c2.376,0.331,4.479,1.283,6.308,2.856
			c1.397,1.152,2.434,2.698,3.107,4.637c0.828,2.384,0.926,4.664,0.294,6.843c-0.539,1.932-1.557,3.567-3.05,4.906
			c-1.736,1.564-3.049,2.502-3.938,2.811c-0.54,0.188-1.286-0.266-2.235-1.359c-1.134-1.316-2.734-3.36-4.802-6.132l-2.521-3.719
			c-0.172-0.189-0.359-0.267-0.562-0.232c-1.153,0.473-2,1.291-2.538,2.458s-0.608,2.322-0.211,3.466
			c0.485,1.398,1.705,2.755,3.657,4.071c0.408,0.25,0.842,0.5,1.303,0.749c0.461,0.25,0.715,0.598,0.764,1.044
			C37.313,161.835,36.875,162.521,36.167,162.84z M47.34,181.669c-1.01,0.896-1.72,1.466-2.13,1.708
			c-0.295,0.063-0.573-0.015-0.837-0.235c-0.883-1.103-2.03-2.533-3.439-4.292c-1.783-2.278-2.928-3.732-3.434-4.362l-0.544-0.922
			c-0.115-0.467,0.052-0.903,0.503-1.309c0.42-0.336,0.838-0.649,1.252-0.939c0.416-0.288,0.77-0.357,1.064-0.206
			c0.067,0.033,0.374,0.306,0.915,0.819c0.347,0.326,0.683,0.422,1.009,0.291l13.466-10.794c0.813-0.652,1.392-1.007,1.732-1.065
			c0.526,0.01,0.936,0.307,1.23,0.89l4.229,5.275c0.253,0.315,0.505,0.63,0.758,0.945c0.241,0.41,0.236,0.78-0.017,1.112
			c-0.778,0.754-1.396,1.249-1.854,1.486c-0.321,0.085-0.658-0.012-1.011-0.29c-0.51-0.367-0.823-0.569-0.939-0.605
			c-0.305-0.057-0.772,0.167-1.404,0.674l-11.048,8.854c-0.21,0.385-0.115,0.88,0.284,1.486
			C47.526,180.798,47.598,181.291,47.34,181.669z M83.271,189.613c-1.875,2.463-4.663,6.153-8.365,11.072
			c-0.204,0.268-0.221,0.51-0.046,0.727c0.181,0.096,0.515,0.17,1.002,0.224s0.812,0.143,0.973,0.265
			c0.214,0.163,0.319,0.413,0.317,0.749c0.122,0.728,0.021,1.222-0.304,1.481c-1.083,0.867-2.611,1.015-4.585,0.441
			c-1.625-0.477-2.86-1.354-3.705-2.631c-0.534-0.576-0.884-1.339-1.048-2.288c-0.165-0.95-0.094-1.794,0.214-2.532l0.666-1.206
			l6.113-8.03c0.461-0.578,0.923-1.157,1.385-1.736c0.551-0.722,0.747-1.396,0.591-2.023c-0.157-0.627-0.548-1.114-1.171-1.462
			c-1.443-0.716-2.8-0.517-4.07,0.598c-0.587,0.659-2.996,3.713-7.229,9.161c-0.179,0.289-0.114,0.593,0.193,0.912
			c0.44,0.421,0.678,0.664,0.711,0.732c0.292,0.393,0.373,0.73,0.243,1.015c-0.992,1.412-1.67,2.192-2.035,2.339l-0.476-0.043
			c-2.114-1.609-5.27-3.991-9.465-7.144c-0.347-0.434-0.329-0.93,0.054-1.486c0.327-0.431,0.665-0.874,1.013-1.331
			c0.36-0.362,0.702-0.505,1.025-0.43c0.073,0.015,0.473,0.212,1.197,0.593c0.489,0.245,0.88,0.204,1.174-0.125l9.086-11.934
			c0.056-0.297-0.091-0.631-0.441-1.004s-0.483-0.697-0.4-0.975c0.834-1.316,1.478-2.079,1.932-2.286l0.728,0.044
			c1.117,0.81,3.325,2.49,6.625,5.044c0.173,0.217,0.158,0.818-0.044,1.807c0.093,0.155,0.422,0.279,0.986,0.37
			c2.258,0.366,4.177,1.15,5.757,2.353c1.632,1.243,2.52,2.743,2.662,4.501C84.644,186.896,84.223,188.309,83.271,189.613z
			 M108.004,205.072c-0.227,0.526-1.065,0.769-2.514,0.729c-1.735-0.053-4.324-0.253-7.764-0.602l-4.444-0.654
			c-0.257,0-0.44,0.085-0.551,0.258c-0.432,1.169-0.399,2.347,0.098,3.531c0.495,1.186,1.3,2.018,2.412,2.497
			c1.358,0.587,3.183,0.604,5.473,0.054c0.46-0.132,0.938-0.283,1.433-0.454s0.923-0.124,1.285,0.142
			c0.664,0.837,0.874,1.624,0.631,2.361c-0.67,0.957-2.189,1.676-4.558,2.155c-2.369,0.48-4.82,0.174-7.353-0.919
			c-1.885-0.813-3.425-1.917-4.617-3.311c-1.547-1.767-2.455-3.862-2.729-6.288c-0.246-2.231,0.072-4.457,0.958-6.677
			c0.91-2.282,2.291-4.187,4.142-5.715c1.85-1.528,3.973-2.436,6.367-2.722c1.794-0.251,3.634,0.029,5.518,0.842
			c2.317,1,4.064,2.469,5.244,4.406c1.06,1.703,1.578,3.558,1.557,5.562C108.572,202.607,108.377,204.208,108.004,205.072z
			 M92.57,64.744c-0.587,0.087-0.994-0.077-1.222-0.491l-0.604-2.647c0.071-0.512,0.487-0.945,1.249-1.3
			c0.761-0.354,1.144-0.779,1.146-1.278c-1.158-5.731-2.877-14.331-5.159-25.8c-0.16-0.429-0.683-0.631-1.565-0.607
			c-0.884,0.024-1.376-0.291-1.477-0.945c-0.141-0.504-0.261-0.994-0.359-1.472c-0.088-0.586,0.031-1.037,0.357-1.354l0.592-0.229
			c-0.034,0.007,2.702-0.598,8.207-1.815c3.297-0.722,6.047-1.26,8.249-1.611c1.827-0.273,3.312-0.228,4.455,0.139l1.838,0.631
			c2.439,1.305,3.954,3.371,4.543,6.199c0.121,0.579,0.19,1.169,0.209,1.77c-0.117,2.513-1.118,4.534-3.004,6.063
			c-0.183,0.146-0.417,0.39-0.7,0.732c0.567,0.167,1.423,0.433,2.565,0.799c3.065,1.068,4.972,3.391,5.717,6.969
			c0.128,0.612,0.205,1.236,0.229,1.871c0.109,1.72-0.302,3.458-1.233,5.216c-0.932,1.759-2.148,3.087-3.648,3.985
			c-1.502,0.899-2.917,1.487-4.245,1.765L92.57,64.744z M139.79,216.69l-6.26,0.784c-1.002,0.117-1.666-0.059-1.992-0.528
			c-1.453-1.997-3.619-5.013-6.496-9.045c-0.121-0.155-0.324-0.165-0.613-0.029c-0.332,0.347-0.664,0.694-0.996,1.04
			c-0.354,0.452-0.543,0.867-0.566,1.246c0.176,2.065,0.359,3.344,0.553,3.834c0.193,0.217,0.605,0.339,1.236,0.367
			c0.631,0.03,1.051,0.22,1.262,0.571c0.408,1.184,0.494,2.199,0.254,3.048c-0.406,0.286-0.977,0.474-1.711,0.56
			c-1.074,0.092-1.691,0.164-1.855,0.218c-1.537,0.18-3.842,0.45-6.917,0.811c-0.843,0.03-1.338-0.215-1.483-0.739
			c-0.146-0.524-0.286-1.065-0.419-1.625c-0.079-0.667,0.008-1.235,0.257-1.704c0.118-0.149,0.505-0.313,1.162-0.492
			c0.526-0.129,0.781-0.412,0.764-0.851l-3.068-26.174c-0.111-0.122-0.552-0.308-1.321-0.556c-0.575-0.203-0.861-0.575-0.855-1.117
			c-0.051-0.434-0.102-0.867-0.153-1.301c-0.025-0.506,0.134-0.862,0.479-1.073c0.032-0.003,2.429-0.284,7.188-0.843l0.86,0.053
			c0.346,0.095,0.581,0.389,0.706,0.882l0.875,7.468L122,202.771c0.053,0.164,0.146,0.237,0.279,0.222l0.34-0.142
			c0.988-1.098,2.436-2.775,4.338-5.03c-0.119-0.155-0.383-0.242-0.793-0.263c-0.408-0.02-0.658-0.126-0.748-0.318l-0.26-0.479
			c-0.066-0.567-0.135-1.152-0.205-1.754c-0.016-0.709,0.236-1.162,0.756-1.358l9.59-0.972c0.518,0.076,0.828,0.412,0.932,1.01
			c0.062,0.535,0.125,1.071,0.188,1.606s-0.197,0.905-0.783,1.109c-0.947,0.314-1.434,0.49-1.463,0.527
			c-0.781,0.567-2.072,1.974-3.875,4.22c-0.207,0.262-0.295,0.526-0.264,0.794c0.033,0.268,0.203,0.604,0.514,1.008
			c0.355,0.501,0.576,0.832,0.66,0.991l5.916,8.235c0.227,0.482,0.766,0.732,1.615,0.751s1.367,0.237,1.553,0.656
			c0.066,0.567,0.111,1.172,0.135,1.812C140.45,216.037,140.237,216.468,139.79,216.69z M164.465,206.508
			c-1.059,2.174-2.791,3.935-5.197,5.282c-1.791,1.003-3.602,1.555-5.434,1.656c-2.344,0.155-4.561-0.396-6.652-1.653
			c-1.922-1.16-3.496-2.765-4.723-4.816c-1.258-2.109-1.934-4.363-2.023-6.762c-0.09-2.397,0.479-4.635,1.707-6.711
			c0.891-1.577,2.23-2.868,4.021-3.871c2.201-1.233,4.43-1.729,6.684-1.489c1.998,0.193,3.785,0.908,5.365,2.143
			c1.846,1.436,2.998,2.563,3.457,3.385c0.281,0.5-0.035,1.313-0.947,2.439c-1.096,1.348-2.828,3.281-5.195,5.802l-3.219,3.134
			c-0.156,0.203-0.199,0.4-0.131,0.593c0.668,1.054,1.623,1.743,2.865,2.068c1.244,0.326,2.393,0.192,3.449-0.399
			c1.291-0.723,2.414-2.161,3.367-4.314c0.176-0.445,0.346-0.916,0.51-1.414c0.164-0.496,0.463-0.808,0.895-0.934
			c1.068-0.021,1.82,0.291,2.258,0.933C165.875,202.692,165.524,204.335,164.465,206.508z M192.086,186.983
			c-0.941,1.407-2.15,2.321-3.623,2.743c-0.709,0.336-1.541,0.439-2.496,0.312c-0.957-0.129-1.74-0.45-2.352-0.966l-0.949-0.997
			l-5.82-8.245c-0.414-0.613-0.826-1.229-1.24-1.844c-0.523-0.741-1.107-1.132-1.754-1.17c-0.645-0.039-1.227,0.187-1.744,0.676
			c-1.117,1.161-1.336,2.516-0.654,4.062c0.453,0.758,2.641,3.974,6.564,9.647c0.223,0.258,0.531,0.287,0.928,0.09
			c0.533-0.294,0.838-0.445,0.912-0.458c0.463-0.16,0.809-0.136,1.039,0.074c1.051,1.37,1.59,2.252,1.621,2.644l-0.184,0.44
			c-2.172,1.533-5.391,3.826-9.66,6.88c-0.518,0.2-0.984,0.035-1.4-0.498c-0.312-0.442-0.635-0.897-0.965-1.366
			c-0.238-0.452-0.271-0.821-0.102-1.106c0.035-0.066,0.344-0.388,0.926-0.965c0.381-0.393,0.459-0.777,0.232-1.156l-8.65-12.254
			c-0.266-0.143-0.629-0.104-1.09,0.119c-0.461,0.222-0.811,0.252-1.049,0.089c-1.006-1.191-1.539-2.034-1.6-2.53l0.26-0.68
			c1.107-0.822,3.375-2.424,6.803-4.802c0.258-0.1,0.828,0.094,1.709,0.584c0.178-0.041,0.393-0.318,0.65-0.829
			c1.029-2.044,2.354-3.638,3.975-4.783c1.676-1.183,3.373-1.578,5.092-1.186c1.484,0.353,2.705,1.179,3.666,2.479
			c1.785,2.529,4.465,6.298,8.043,11.308c0.195,0.275,0.42,0.362,0.68,0.263c0.145-0.144,0.316-0.44,0.516-0.89
			c0.197-0.448,0.379-0.731,0.543-0.848c0.221-0.155,0.49-0.181,0.811-0.078c0.73,0.103,1.172,0.348,1.322,0.735
			C193.545,183.771,193.227,185.273,192.086,186.983z M176.731,155.868c2.113-2.067,5.586-2.027,7.654,0.087
			c2.102,2.15,2.027,5.587-0.088,7.653c-2.15,2.103-5.588,2.099-7.689-0.052C174.542,161.442,174.581,157.97,176.731,155.868z
			 M186.147,147.421c0-1.729,1.402-3.132,3.133-3.132s3.133,1.402,3.133,3.132c0,1.73-1.402,3.133-3.133,3.133
			S186.147,149.151,186.147,147.421z M192.563,113.585c-2.072,1.244-3.592,1.936-4.557,2.072c-0.586,0.084-1.252-0.524-1.998-1.823
			c-0.891-1.561-2.111-3.953-3.66-7.178l-1.822-4.274c-0.139-0.227-0.312-0.343-0.523-0.348c-1.266,0.251-2.287,0.914-3.064,1.992
			c-0.779,1.078-1.08,2.236-0.902,3.478c0.217,1.516,1.186,3.135,2.908,4.858c0.363,0.334,0.754,0.674,1.172,1.019
			s0.607,0.749,0.568,1.212c-0.379,1.037-0.961,1.647-1.742,1.83c-1.207-0.074-2.66-1.027-4.363-2.858
			c-1.701-1.832-2.754-4.16-3.156-6.985c-0.301-2.102-0.156-4.056,0.43-5.861c0.725-2.317,2.082-4.252,4.076-5.801
			c1.836-1.422,3.973-2.342,6.41-2.76c2.504-0.428,4.93-0.237,7.277,0.57s4.295,2.191,5.84,4.151
			c1.189,1.446,1.936,3.222,2.234,5.323c0.369,2.584,0.016,4.919-1.059,7.006C195.702,111.062,194.344,112.521,192.563,113.585z"/>
		<path fill="#007436" d="M106.826,45.886c-1.163-1.321-2.887-1.744-5.169-1.27c-0.035,0.008-0.358,0.075-0.972,0.202
			c-0.409,0.086-0.678,0.248-0.805,0.488l1.985,10.304c0.071,0.341,0.139,0.664,0.202,0.972c0.085,0.408,0.314,0.61,0.686,0.604
			c0.372-0.006,0.745-0.049,1.12-0.127c2.317-0.482,3.769-1.531,4.357-3.146c0.493-1.383,0.571-2.892,0.23-4.527
			C108.171,47.988,107.626,46.822,106.826,45.886z"/>
	</g>
	<circle fill="#FFFFFF" cx="118.879" cy="115.169" r="47.352"/>
	<polygon fill="#E20613" points="118.477,68.943 128.893,100.192 160.034,101.069 135.362,121.245 144.245,153.043 118.477,134.184 
		92.929,153.043 101.811,121.245 77.029,101.069 108.279,100.192 118.477,68.943 	"/>
</g>
</svg>
