<?xml version="1.0" encoding="utf-8"?>
<!-- Generator: Adobe Illustrator 16.0.0, SVG Export Plug-In . SVG Version: 6.00 Build 0)  -->
<!DOCTYPE svg PUBLIC "-//W3C//DTD SVG 1.1//EN" "http://www.w3.org/Graphics/SVG/1.1/DTD/svg11.dtd">
<svg version="1.1" id="Layer_1" xmlns="http://www.w3.org/2000/svg" xmlns:xlink="http://www.w3.org/1999/xlink" x="0px" y="0px"
	 width="353.252px" height="111.477px" viewBox="0 0 353.252 111.477" enable-background="new 0 0 353.252 111.477"
	 xml:space="preserve">
<g>
	<rect fill="#623D39" width="353.252" height="111.477"/>
	<g>
		<path fill="#FFFFFF" d="M282.136,91.078c0-4.021,3.259-7.28,7.279-7.28s7.28,3.259,7.28,7.28c0,4.021-3.26,7.279-7.28,7.279
			S282.136,95.099,282.136,91.078z M289.415,99.413c4.604,0,8.335-3.732,8.335-8.335c0-4.604-3.731-8.336-8.335-8.336
			c-4.603,0-8.335,3.732-8.335,8.336C281.08,95.681,284.812,99.413,289.415,99.413z"/>
		<path fill="#FFFFFF" d="M287.465,87.299h2.643c1.192,0,2.45,0.193,2.45,1.611c0,1.58-1.321,1.676-2.578,1.676h-2.515V87.299z
			 M293.718,88.975c0-1.836-1.321-2.481-3.319-2.481h-4.029v9.282h1.096v-4.287h2.128l2.642,4.287h1.354l-2.836-4.287
			C292.396,91.424,293.718,90.748,293.718,88.975z"/>
		<polygon fill="#FFFFFF" points="291.332,16.236 299.809,16.236 295.361,34.638 286.757,34.638 		"/>
		<polygon fill="#FFFFFF" points="251.724,16.236 265.357,16.236 271.416,51.236 271.416,51.236 278.055,16.236 286.531,16.236 
			275.734,65.19 275.734,98.354 262.488,98.354 262.488,65.19 		"/>
		<path fill="#FFFFFF" d="M324.625,73.635v8.991c0,5.769-2.482,5.351-4.545,5.351c-2.546,0-4.641,0-4.641-5.254l-0.097-12.827
			h-12.344v15.438c0,14.405,7.767,12.956,16.855,12.956c7.315,0,17.79,1.449,17.79-13.278V69.059c0-4.512-2.353-7.832-6.06-11.538
			c0,0-4.124-3.513-11.15-10.539c-4.737-4.673-5.769-8.122-5.769-11.312v-6.736c0-5.737,2.449-5.285,4.512-5.285
			c2.514,0,4.673,0,4.673,5.253l0.065,10.313h12.375V27.871c0-14.406-7.768-12.923-16.888-12.923
			c-7.283,0-17.757-1.482-17.757,13.213v12.085c0,4.48,3.222,9.314,10.893,16.565C312.539,56.812,324.625,64.707,324.625,73.635z"/>
		<path fill="#FFFFFF" d="M158.843,73.635v8.991c0,5.769-2.449,5.351-4.512,5.351c-2.514,0-4.673,0-4.673-5.254l-0.032-12.827
			H137.25v15.438c0,14.405,7.734,12.956,16.888,12.956c7.283,0,17.79,1.449,17.79-13.278V69.059c0-4.512-2.385-7.832-6.059-11.538
			c0,0-4.126-3.513-11.184-10.539c-4.77-4.673-5.736-8.122-5.736-11.312v-6.736c0-5.737,2.449-5.285,4.512-5.285
			c2.514,0,4.673,0,4.673,5.253l0.064,10.313h12.376V27.871c0-14.406-7.768-12.923-16.92-12.923
			c-7.283,0-17.758-1.482-17.758,13.213v12.085c0,4.48,3.223,9.314,10.926,16.565C146.822,56.812,158.843,64.707,158.843,73.635z"/>
		<path fill="#FFFFFF" d="M107.117,24.68h2.836c4.898,0,4.351,5.64,4.351,11.376c0,0,0.548,11.216-4.351,11.216h-2.836V24.68z
			 M93.355,98.354h13.762V58.262h2.449c4.415,0,4.705,2.095,4.705,6.801V82.82c0,5.479,0.354,12.858,1.837,15.533h13.633
			c-1.515-2.675-1.354-10.055-1.354-15.533V68.316c0-8.121,0.29-14.309-7.542-15.727l0,0c5.93-0.902,8.122-3.545,8.122-16.468
			c0-17.307-2.933-19.885-17.629-19.885H93.355V98.354z"/>
		<polygon fill="#FFFFFF" points="219.689,16.236 249.114,16.236 249.114,27.129 232.936,27.129 232.936,47.111 247.116,47.111 
			247.116,58.262 232.936,58.262 232.936,86.525 249.791,86.525 249.791,98.354 219.689,98.354 		"/>
		<polygon fill="#FFFFFF" points="57.872,16.236 87.361,16.236 87.361,27.129 71.15,27.129 71.15,47.111 85.331,47.111 
			85.331,58.262 71.15,58.262 71.15,86.525 87.974,86.525 87.974,98.354 57.872,98.354 		"/>
		<polygon fill="#FFFFFF" points="178.051,16.236 191.329,16.236 191.329,46.982 198.967,46.982 198.967,16.236 212.213,16.236 
			212.213,98.354 198.967,98.354 198.967,58.262 191.329,58.262 191.329,98.354 178.051,98.354 		"/>
		<polygon fill="#FFFFFF" points="17.91,16.236 31.123,16.236 31.123,46.982 38.761,46.982 38.761,16.236 52.007,16.236 
			52.007,98.354 38.761,98.354 38.761,58.262 31.123,58.262 31.123,98.354 17.91,98.354 		"/>
	</g>
</g>
</svg>
