<?xml version="1.0" encoding="utf-8"?>
<!-- Generator: Adobe Illustrator 16.0.0, SVG Export Plug-In . SVG Version: 6.00 Build 0)  -->
<!DOCTYPE svg PUBLIC "-//W3C//DTD SVG 1.1//EN" "http://www.w3.org/Graphics/SVG/1.1/DTD/svg11.dtd">
<svg version="1.1" id="Layer_1" xmlns="http://www.w3.org/2000/svg" xmlns:xlink="http://www.w3.org/1999/xlink" x="0px" y="0px"
	 width="175.748px" height="97.156px" viewBox="0 0 175.748 97.156" enable-background="new 0 0 175.748 97.156"
	 xml:space="preserve">
<g>
	<path fill-rule="evenodd" clip-rule="evenodd" fill="#0063AE" d="M165.262,94.505c0-0.885,0.673-1.558,1.529-1.558
		c0.843,0,1.516,0.673,1.516,1.558c0,0.907-0.673,1.571-1.516,1.571C165.935,96.076,165.262,95.412,165.262,94.505L165.262,94.505z
		 M166.791,96.304c0.972,0,1.807-0.757,1.807-1.799c0-1.025-0.835-1.776-1.807-1.776c-0.983,0-1.812,0.751-1.812,1.776
		C164.979,95.547,165.808,96.304,166.791,96.304L166.791,96.304z M166.41,94.647h0.361l0.552,0.899h0.339l-0.58-0.907
		c0.297-0.042,0.529-0.205,0.529-0.574c0-0.403-0.238-0.586-0.729-0.586h-0.784v2.067h0.312V94.647L166.41,94.647z M166.41,94.385
		v-0.637h0.432c0.212,0,0.445,0.049,0.445,0.304c0,0.312-0.233,0.333-0.502,0.333H166.41L166.41,94.385z"/>
	<polygon fill="#0063AE" points="175.748,1.919 175.748,86.64 175.748,88.559 173.829,88.559 1.919,88.559 0,88.559 0,86.64 
		0.028,1.933 0.03,0.017 1.947,0.014 173.829,0 175.748,0 175.748,1.919 	"/>
	<path fill="#FFFFFF" d="M173.186,85.996V2.563L2.591,2.577L2.563,85.996H173.186L173.186,85.996z M174.474,1.919V86.64v0.645
		h-0.645H1.919H1.274V86.64L1.303,1.933l0.002-0.642l0.642-0.002l171.882-0.014h0.645V1.919L174.474,1.919z"/>
	<path fill="#E8444C" d="M16.965,96.669l-0.012,0.004L16.92,96.69l-0.929,0.466l-0.459-0.939L8.07,80.96l-0.454-0.927l0.936-0.454
		c10.045-4.858,20.603-8.826,31.567-11.797c2.114-0.569,4.265-1.111,6.446-1.617c13.288-3.079,27.136-4.712,41.354-4.716h0.052
		c20.399,0,40.031,3.349,58.356,9.526c3.587,1.206,7.106,2.519,10.547,3.922c3.449,1.404,6.865,2.926,10.229,4.546l0.012,0.004
		l0.044,0.021l0.913,0.458l-0.439,0.911l-7.361,15.301l-0.447,0.936l-0.934-0.45c-8.971-4.32-18.401-7.849-28.195-10.492
		c-1.921-0.516-3.846-0.999-5.758-1.44c-11.855-2.735-24.218-4.188-36.914-4.19H87.97c-18.323,0-35.944,3.008-52.381,8.558
		c-3.177,1.071-6.336,2.252-9.463,3.53C23.014,93.861,19.955,95.226,16.965,96.669L16.965,96.669z"/>
	<path fill="#FFFFFF" d="M16.542,95.534c2.982-1.437,6.031-2.797,9.133-4.063c3.131-1.28,6.314-2.469,9.533-3.555
		c16.563-5.591,34.313-8.623,52.763-8.623h0.052c12.778,0.004,25.229,1.467,37.183,4.224c1.935,0.446,3.874,0.934,5.8,1.451
		c9.812,2.647,19.267,6.18,28.252,10.497l7.209-14.988c-3.304-1.588-6.657-3.083-10.045-4.461
		c-3.436-1.401-6.934-2.706-10.476-3.898c-18.199-6.135-37.7-9.46-57.975-9.46h-0.052c-14.133,0.002-27.893,1.625-41.084,4.682
		c-2.155,0.5-4.295,1.038-6.404,1.607c-10.828,2.933-21.262,6.852-31.196,11.645L16.542,95.534L16.542,95.534z M16.581,95.9
		l-0.042,0.02L16.383,96l-0.079-0.158L8.843,80.585l-0.076-0.156l0.156-0.076c9.988-4.831,20.501-8.78,31.419-11.739
		c2.129-0.575,4.272-1.113,6.416-1.611c13.228-3.064,27.009-4.69,41.161-4.694h0.052c20.308,0,39.844,3.332,58.083,9.48
		c3.544,1.192,7.048,2.499,10.496,3.906c3.458,1.408,6.857,2.922,10.181,4.521l0.002,0.002l0.045,0.021l0.152,0.076l-0.074,0.153
		l-7.361,15.301l-0.074,0.158l-0.159-0.076c-9.025-4.347-18.508-7.897-28.344-10.551c-1.906-0.511-3.839-0.997-5.788-1.446
		c-11.917-2.75-24.346-4.211-37.106-4.213H87.97c-18.416,0-36.127,3.024-52.654,8.604c-3.219,1.086-6.392,2.272-9.513,3.547
		c-3.109,1.271-6.188,2.645-9.22,4.105L16.581,95.9L16.581,95.9z"/>
	<path fill-rule="evenodd" clip-rule="evenodd" fill="#004990" d="M88.302,33.779c0-4.296,3.476-7.773,7.774-7.773
		c4.297,0.006,7.768,3.484,7.768,7.773c0,4.291-3.477,7.767-7.768,7.767C91.777,41.546,88.302,38.07,88.302,33.779L88.302,33.779z
		 M96.076,53.923c11.114,0,20.142-9.013,20.15-20.144c0-11.122-9.021-20.142-20.145-20.149c-11.128,0-20.149,9.021-20.149,20.144
		C75.927,44.903,84.946,53.923,96.076,53.923L96.076,53.923z"/>
	<path fill-rule="evenodd" clip-rule="evenodd" fill="#004288" d="M133.961,33.787c0-4.291,3.477-7.767,7.773-7.767
		c4.291,0,7.767,3.484,7.767,7.767c0,4.291-3.481,7.773-7.767,7.773C137.438,41.554,133.961,38.078,133.961,33.787L133.961,33.787z
		 M134.096,52.443c2.351,0.956,4.928,1.485,7.633,1.485c11.122,0.008,20.142-9.011,20.149-20.136
		c0-11.123-9.02-20.149-20.144-20.149c-11.122-0.006-20.142,9.021-20.142,20.144l-0.022,29.354c0.022,3.434,2.79,6.216,6.232,6.216
		c3.425,0,6.201-2.782,6.201-6.216l0.014-10.705L134.096,52.443L134.096,52.443z"/>
	<path fill-rule="evenodd" clip-rule="evenodd" fill="#004990" d="M22.253,19.783c0-3.434-2.77-6.216-6.204-6.216
		c-3.434,0-6.209,2.782-6.229,6.216L9.812,48.45c0.028,3.426,2.798,6.215,6.231,6.215c3.434,0,6.202-2.781,6.202-6.215
		L22.253,19.783L22.253,19.783z"/>
	<path fill-rule="evenodd" clip-rule="evenodd" fill="#004990" d="M44.392,38.949l-0.006,9.507c0,3.428-2.825,6.209-6.253,6.209
		c-3.432,0-6.201-2.781-6.221-6.215V19.783c0.02-3.426,2.795-6.209,6.229-6.209c3.434,0,6.252,2.783,6.252,6.209v8.433l12.425,0.006
		v-8.433c0-3.432,2.826-6.215,6.26-6.215c3.434,0,6.202,2.783,6.224,6.224l-0.008,28.667c-0.021,3.426-2.796,6.21-6.23,6.21
		c-3.428,0-6.251-2.784-6.246-6.218v-9.501L44.392,38.949L44.392,38.949z"/>
	<path fill-rule="evenodd" clip-rule="evenodd" fill="#FFFFFF" d="M91.049,32.577c0-4.291,3.484-7.761,7.775-7.761
		c4.297,0,7.767,3.476,7.767,7.767c0,4.299-3.478,7.775-7.767,7.775C94.533,40.358,91.049,36.874,91.049,32.577L91.049,32.577z
		 M98.815,52.732c11.137,0,20.15-9.019,20.158-20.149c0-11.123-9.021-20.136-20.144-20.136c-11.131-0.006-20.15,9.007-20.15,20.129
		C78.674,43.705,87.693,52.727,98.815,52.732L98.815,52.732z"/>
	<path fill-rule="evenodd" clip-rule="evenodd" fill="#FFFFFF" d="M136.709,32.591c0-4.291,3.482-7.775,7.772-7.767
		c4.291,0,7.768,3.482,7.768,7.772c0,4.291-3.477,7.767-7.768,7.767C140.186,40.364,136.709,36.888,136.709,32.591L136.709,32.591z
		 M136.844,51.239c2.357,0.97,4.935,1.502,7.638,1.502c11.123,0,20.144-9.014,20.144-20.145c0-11.123-9.013-20.141-20.144-20.141
		c-11.122-0.008-20.142,9.019-20.142,20.141l-0.021,29.348c0.021,3.435,2.789,6.224,6.231,6.224c3.426,0,6.201-2.789,6.207-6.218
		l0.009-10.711H136.844L136.844,51.239z"/>
	<path fill-rule="evenodd" clip-rule="evenodd" fill="#FFFFFF" d="M25.006,18.593c0-3.44-2.775-6.216-6.209-6.216
		c-3.434,0-6.202,2.775-6.23,6.209L12.56,47.254c0.028,3.434,2.798,6.216,6.231,6.216s6.208-2.776,6.208-6.216L25.006,18.593
		L25.006,18.593z"/>
	<path fill-rule="evenodd" clip-rule="evenodd" fill="#FFFFFF" d="M47.139,37.759l-0.008,9.501c0,3.434-2.817,6.218-6.251,6.218
		c-3.434,0-6.202-2.784-6.224-6.224l0.008-28.661c0.02-3.44,2.79-6.216,6.229-6.216c3.428,0,6.246,2.782,6.246,6.216v8.433h12.425
		v-8.425c0-3.434,2.826-6.218,6.26-6.218s6.202,2.784,6.224,6.218l-0.008,28.667c-0.021,3.434-2.795,6.21-6.229,6.21
		c-3.428,0-6.251-2.784-6.251-6.218l0.006-9.493L47.139,37.759L47.139,37.759z"/>
	<path fill-rule="evenodd" clip-rule="evenodd" fill="#FFFFFF" d="M23.831,83.077l0.582-0.227c0.543-0.211,0.636-0.784,0.487-1.16
		c-0.261-0.666-0.742-0.672-1.182-0.495l-0.546,0.213L23.831,83.077L23.831,83.077z M20.624,80.933l3.039-1.183
		c1.6-0.63,2.745-0.269,3.179,0.851c0.41,1.04,0.135,1.854-0.375,2.415l2.647,2.328l-2.109,1.083l-2.139-2.271l-0.53,0.211
		l1.011,2.577l-2.059,0.801L20.624,80.933L20.624,80.933z"/>
	<polygon fill-rule="evenodd" clip-rule="evenodd" fill="#FFFFFF" points="39.053,75.983 36.916,76.627 37.333,78.008 
		39.422,77.386 39.812,78.688 37.723,79.326 38.232,81.011 40.801,80.239 41.198,81.548 36.519,82.957 34.409,75.955 38.664,74.675 
		39.053,75.983 	"/>
	<path fill-rule="evenodd" clip-rule="evenodd" fill="#FFFFFF" d="M51.663,73.031c-0.319-0.113-0.709-0.127-1.104-0.043
		c-0.417,0.101-0.596,0.348-0.538,0.58c0.084,0.397,0.756,0.597,1.592,1.084c1.105,0.658,1.453,1.154,1.615,1.898
		c0.134,0.63-0.064,2.216-2.209,2.684c-0.835,0.183-1.714,0.169-2.386-0.163l0.397-1.324c0.353,0.162,0.821,0.339,1.331,0.227
		c0.432-0.092,0.849-0.411,0.736-0.935c-0.128-0.574-0.907-0.844-1.579-1.211c-0.885-0.489-1.409-0.772-1.6-1.649
		c-0.249-1.14,0.736-2.168,2.081-2.465c0.907-0.198,1.692-0.027,1.975,0.07L51.663,73.031L51.663,73.031z"/>
	<polygon fill-rule="evenodd" clip-rule="evenodd" fill="#FFFFFF" points="63.217,76.882 62.404,71 60.315,71.283 60.124,69.924 
		66.488,69.045 66.679,70.405 64.583,70.695 65.398,76.585 63.217,76.882 	"/>
	<path fill-rule="evenodd" clip-rule="evenodd" fill="#FFFFFF" d="M79.126,68.02l3.173,7.15l-2.33,0.121l-0.672-1.706l-2.266,0.12
		l-0.602,1.784l-1.728,0.09l2.579-7.461L79.126,68.02L79.126,68.02z M78.879,72.444c-0.291-0.856-0.538-1.537-0.857-2.57H78
		c-0.219,1.056-0.432,1.77-0.658,2.655L78.879,72.444L78.879,72.444z"/>
	<path fill-rule="evenodd" clip-rule="evenodd" fill="#FFFFFF" d="M92.528,67.849l-0.112,3.823
		c-0.043,1.316,0.135,2.096,1.062,2.117c0.736,0.021,1.176-0.694,1.218-2.081l0.106-3.795l1.904,0.057l-0.134,4.417
		c-0.064,2.188-1.571,2.975-3.243,2.924c-1.869-0.048-3.207-0.877-3.137-3.059l0.128-4.474L92.528,67.849L92.528,67.849z"/>
	<path fill-rule="evenodd" clip-rule="evenodd" fill="#FFFFFF" d="M107.432,72.005l0.624,0.07c0.58,0.064,0.928-0.403,0.97-0.792
		c0.084-0.723-0.34-0.95-0.807-0.992l-0.58-0.07L107.432,72.005L107.432,72.005z M105.6,68.613l3.235,0.367
		c1.714,0.193,2.555,1.042,2.42,2.238c-0.126,1.105-0.75,1.699-1.457,1.954l1.252,3.3l-2.372-0.022l-0.826-3.008l-0.574-0.07
		l-0.305,2.753l-2.188-0.24L105.6,68.613L105.6,68.613z"/>
	<path fill-rule="evenodd" clip-rule="evenodd" fill="#FFFFFF" d="M124.368,71.453l1.295,7.717l-2.294-0.46l-0.219-1.819
		l-2.23-0.446l-1.027,1.572l-1.684-0.334l4.347-6.591L124.368,71.453L124.368,71.453z M123.023,75.68
		c-0.064-0.893-0.134-1.621-0.185-2.705h-0.021c-0.474,0.97-0.863,1.607-1.303,2.408L123.023,75.68L123.023,75.68z"/>
	<path fill-rule="evenodd" clip-rule="evenodd" fill="#FFFFFF" d="M139.463,82.873l-1.409-0.411
		c-0.681-1.578-1.613-3.676-1.946-5.034l-0.015-0.006l-1.204,4.112l-1.664-0.488l2.048-7.016l1.535,0.445
		c0.652,1.538,1.63,3.802,1.854,4.907l0.021,0.006l1.177-4.02l1.663,0.487L139.463,82.873L139.463,82.873z"/>
	<polygon fill-rule="evenodd" clip-rule="evenodd" fill="#FFFFFF" points="148.814,86.15 150.969,80.607 149.006,79.842 
		149.501,78.568 155.492,80.898 154.996,82.172 153.027,81.414 150.876,86.943 148.814,86.15 	"/>
</g>
</svg>
