<?xml version="1.0" encoding="utf-8"?>
<!-- Generator: Adobe Illustrator 16.0.0, SVG Export Plug-In . SVG Version: 6.00 Build 0)  -->
<!DOCTYPE svg PUBLIC "-//W3C//DTD SVG 1.1//EN" "http://www.w3.org/Graphics/SVG/1.1/DTD/svg11.dtd">
<svg version="1.1" id="Layer_1" xmlns="http://www.w3.org/2000/svg" xmlns:xlink="http://www.w3.org/1999/xlink" x="0px" y="0px"
	 width="175.749px" height="122.093px" viewBox="0 0 175.749 122.093" enable-background="new 0 0 175.749 122.093"
	 xml:space="preserve">
<g>
	<path fill-rule="evenodd" clip-rule="evenodd" fill="#1D1D1B" d="M0.033,49.664C1.138,11.819,33.351,1.608,49.299,1.608
		c15.382,0.069,31.624,7.836,35.075,8.046c4.576-2.819,13.172-9.511,21.557-9.652c8.386-0.142,11.978,5.073,11.978,5.073
		s6.412-2.323,19.656-2.395c13.244-0.073,38.042,10.714,38.184,41.786c0,30.157-25.68,61.725-83.693,61.725
		c-9.444-0.379-12.218-0.594-12.218-0.594s-5.964,2.711-10.623,2.711c-5.47,0-8.878-2.553-10.51-3.576
		c-4.102-1.193-18.606-2.678-32.634-9.803C12.468,88.02-0.744,75.863,0.033,49.664L0.033,49.664z"/>
	<path fill-rule="evenodd" clip-rule="evenodd" fill="#FFEC00" d="M78.407,22.767c0,0-2.211,11.843-2.316,12.37
		c-0.105,0.526,0,0.684,0.421,0.105c0.421-0.579,3.316-8.159,9.053-8.474c5.053,0.526,5.211,4.263,5.211,5.315
		c0,1.053-1.053,8.738-8.896,8.632c-0.053,1.842,1.947,3.948,3.632,3.632c1.421,0,4.79-1,6.737-7.158
		c0.842-6,2.474-20.528,2.474-20.528l6.105-0.368l-2.947,24.633c0,0-0.474,2.052,0.842,2.052c1.316,0,2.632-1.737,2.737-2.842
		c0.105-1.105,3.053-24.106,3.053-24.106l6.001-0.316l-2.632,22.633c0,0-0.526,2.526,0.842,2.579c1.369,0.052,2.79-1,3-2.948
		c0.211-1.948,1.685-13.685,1.685-13.685l5.316-0.685l-1.579,13.317c0,0,0,1.947,1.895,1.947c1.896,0,2.158-2.368,2.158-2.368
		l1.896-13.58l5.21-0.842l-3.685,31.002c0,0-3.789,0.105-6.053,1.263c-2.421,0.737-5.685,3.579-5.685,3.579s0.316-3.105,2.316-5.158
		s2.947-3.105,4.632-3.316c-0.053,0,0.789-8.421,0.789-8.421s-1.842,2.158-4.685,2.158c-2.842,0-3.053-2-3.053-2
		s-2.789,4.316-5.895,4.316c-2.422,0-3.422-2.158-3.422-2.158s-3.105,4.053-6.316,4.053c-3.21,0-5.053-3.58-5.053-3.58
		s-3,4.843-9.527,4.843s-7.316-4.79-6.895-10.106c0,0-0.21,0.158-0.316,0.526c-0.105,0.368-2.421,8.474-4.369,9.685
		c-1.369,1.895-3.632,2.474-7.211,2.474c-3.579,0-9.579-1.737-9.579-10.685c0.684-6.79,5.79-7.527,7.316-7.527
		c1.526-0.158,5.58,1.737,5.58,5.211c0.053,1-0.21,1.685,0.053,1.895c0.79,0.211,1.316-0.842,1.263-2
		c-0.053-1.158-0.263-3.58-2.211-5.159c0,0,1.474-6.632,1.264-7.579c0,0-0.737-0.105-2.211-0.105c-1.474,0-2.421-0.632-2.421-0.632
		l1.474-7.685c0,0,2.526,0.947,4.105,0.947c1.579,0,6.211-0.421,10.527-3.579c3.79-2.105,5.369-3.579,7.053-4.632
		s13.688-8.984,19.58-8.842c6.475,0.157,13.686,1.895,14.948,14c-3.263-6.842-8.737-7.369-11.158-7.369
		c-6.896-0.316-14.633,5.632-16.054,6.632s-6.58,4.58-8.738,5.842c-2.158,1.264-5.842,2.737-6.316,2.737L78.407,22.767
		L78.407,22.767z"/>
	<path fill-rule="evenodd" clip-rule="evenodd" fill="#FFEC00" d="M97.46,83.627c1.832-0.336,3.188-0.621,6.85-0.582
		c-0.053,0,0.651-6.527,0.651-6.527s-1.737,2.227-4.58,2.227c-2.842,0-3.263-2.068-3.263-2.068s-2.79,4.244-5.896,4.244
		c-2.421,0-3.316-2.018-3.316-2.018s-3.283,3.947-6.493,3.947c-3.211,0-4.771-3.473-4.771-3.473s-3,4.842-9.526,4.842
		c-6.527,0-7.984-4.158-7.774-7.967c0,0-0.178-0.406-0.263,0.146c-2.293,6.109-6.958,8.699-10.225,8.699s-4.369-3.777-4.369-3.777
		s-1.062,4.922-8.741,4.922s-8.994-6.658-8.909-9.123c-0.381-2.717,3.648-7.381,7.297-7.168c3.648,0.215,4.753,2.715,4.711,3.477
		c-0.043,0.764-0.764,1.826-0.299,2.123c0.167,0,1.401,0.295,1.401-2.461c0-2.758-2.037-3.82-2.037-3.82s1.145-10.562,1.655-11.329
		c3.181-8.869,11.116-8.78,12.432-8.78c1.316,0,6.066,0.72,6.066,6.533c0,5.812-5.092,7.253-5.389,7.382
		c-0.296,0.129-0.085,0.338-0.085,0.338s0.296,0.129,1.951,0.086c1.655-0.043,3.353,3.014,4.076,4.582
		c0.724,1.57,1.017,3.863,1.059,5.051c0.467,0,0.826-1.758,1.247-2.336c0.421-0.578,2.013-8.441,9.089-8.619
		c4.589,0,5.211,4.408,5.211,5.461s-1.296,8.6-9.139,8.494c-0.053,1.842,1.385,3.385,3.875,3.77c1.421,0,4.72-1.211,6.667-7.369
		c0.842-6,2.402-20.389,2.402-20.389l6.106-0.333l-2.984,24.6c0,0-0.47,2.018,0.846,2.018s2.701-1.738,2.806-2.844
		c0.105-1.105,2.984-24.034,2.984-24.034l6.069-0.319l-2.81,22.669c0,0-0.49,2.422,0.879,2.475c1.368,0.053,2.897-0.896,3.108-2.844
		c0.21-1.947,1.717-13.721,1.717-13.721l5.316-0.684l-1.615,13.284c0,0,0.036,1.912,1.931,1.912c1.896,0,2.264-2.264,2.264-2.264
		l1.895-13.58l5.143-0.842l-3.721,30.829c0,0-4.658,0.104-8.419,1.246c-4.74,1.443-11.375,5.977-14.507,8.365
		c-3.132,2.389-11.083,7.207-17.968,7.414c-7.625-0.164-12.905-3.209-18.425-13.266c0.375,0.039,6.474,7.045,13.356,7.129
		c7.171-0.084,14.547-6.1,17.35-7.584C82.203,90.578,91.154,84.205,97.46,83.627L97.46,83.627z"/>
	<path fill-rule="evenodd" clip-rule="evenodd" fill="#1D1D1B" d="M48.006,79.879c-1.355-0.041-2.753-2.168-2.628-3.607
		c0.125-1.441,1.102-9.209,1.102-9.209s0.763-0.381,1.188-0.381s4.162,0.381,4.287,6.705C51.78,77.459,48.852,80.051,48.006,79.879
		L48.006,79.879z"/>
	<path fill-rule="evenodd" clip-rule="evenodd" fill="#1D1D1B" d="M46.819,63.672l1.02-7.639c0,0,0.717-3.135,2.628-3.096
		c1.912,0.04,2.757,2.543,2.546,3.901c-0.21,1.359,0.082,3.438-1.74,4.71C49.451,62.822,46.819,63.672,46.819,63.672L46.819,63.672z
		"/>
	<path fill-rule="evenodd" clip-rule="evenodd" fill="#E20613" d="M113.303,60.138l2.527-0.342l-3.948,32.475
		c0,0-1.605-0.525-3.185-0.525s-8.421,0.842-13.105,3.631c-4.711,2.369-8.501,5.527-9.475,6.422
		c-0.974,0.895-3.263,2.475-3.447,2.475c0.026,0.314,7.421,0.367,8.421,0.42s10.405-0.164,13.317-0.447
		c2.911-0.283,12.632-1.316,18.264-3.053c5.79-1.264,52.53-13.264,51.425-58.583c0.315-29.844-27.324-38.427-36.482-38.427
		c-9.159,0-18.604,2.165-18.604,2.165s1.898,3.605,2.853,7.159c0.953,3.552,1.753,8.461,1.753,8.461l5.658-0.852l-0.352,3.553
		l2.503-0.349l-3.855,32.436c0,0-3.405-0.552-5.507-0.401c-4.355,0.099-8.662,2.753-8.662,2.753L113.303,60.138L113.303,60.138z"/>
	<path fill-rule="evenodd" clip-rule="evenodd" fill="#E20613" d="M122.617,22.165l-0.303,0.05l-0.25,2.355l-2.553,0.349l0.151-2.25
		l-6.609,0.849l0.651-6.007l-2.503,0.201l0.299-2.852l-7.711,0.5l-0.349,2.553l-1.904,0.05l0.253-2.503l-4.457,0.25
		c0,0,8.264-6.159,13.819-5.557C116.708,10.753,120.064,12.503,122.617,22.165L122.617,22.165z"/>
	<path fill-rule="evenodd" clip-rule="evenodd" fill="#E20613" d="M93.677,18.011l-1.401,11.764c0,0-3.056-3.898-6.359-3.75
		c-3.302,0.148-4.707,1.648-4.707,1.648l0.651-3.102c0,0,2.651-0.855,3.655-1.454C86.519,22.518,93.677,18.313,93.677,18.011
		L93.677,18.011z"/>
	<path fill-rule="evenodd" clip-rule="evenodd" fill="#E20613" d="M119.389,45.048l-0.454,3.79c0,0-5.404,2.385-6.772,8.07
		c0.104,0.069-5.369,0.842-5.369,0.842l-0.421,2.352l-2.458,0.352l0.247-2.283l-6.843,0.948l0.772-6l-2.595,0.21l0.349-2.911
		l-7.754,0.457l-0.388,2.56l-2,0.141l0.315-2.632l-7.684,0.49l-1.718,13.791c0,0-2.635-3.926-6.879-3.896
		c-4.878,0.037-8,5.475-8,5.475s-3.441-2.977-4.773-2.977c-0.244-0.422,0.315-0.461,0.315-0.461s5.021-1.438,5.441-6.28
		c0.247-3.474-3.685-6.142-3.685-6.142s2.875,1.122,5.191,1.122c2.316,0,9.125-0.562,11.862-5.579
		c1.79,3.438,5.896,4.178,9.685,4.178c4.842,0.174,7.191-3.931,7.191-3.931s1.935,2.174,5.652,2.174c3.717,0,6.349-2.77,6.349-2.77
		s0.911,0.947,4.211,0.947s4.879-2.599,4.879-2.599s1.161,1.053,2.772,1.053C118.442,45.539,119.389,45.048,119.389,45.048
		L119.389,45.048z"/>
	<path fill-rule="evenodd" clip-rule="evenodd" fill="#E20613" d="M56.089,102.615c0,0-17.581-2.686-30.581-9.791
		C12.507,85.719,1.56,74.982,1.56,49.717C2.98,10.714,37.193,2.819,49.983,3.135c12.001,0,31.739,7.79,32.687,7.79
		c0,0-7.211,6.273-13.475,5.947c-5-0.263-5.369-0.842-5.369-0.842l-1.842,9.369c0,0,1.369,0.526,1.947,0.526
		c0.579,0,2.685,0.315,2.685,0.315l-1.263,7.316c0,0-1.632-1.21-3.895-1.21s-6.79,1.474-7.948,7.895
		c-0.21,6.948,3.685,9.58,3.685,9.58s-2.474-1.474-5.474-1.474c-3,0-10.948,1.369-13.369,11.054
		c-0.369,2.684-1.421,10.37-1.421,10.37s-1.421-0.58-2.895-0.58c-1.474,0-8,1.631-8,7.527c0,5.895,2.842,9.527,8.421,10.736
		c7.685,1.947,10.58-1.262,10.58-1.262s3.737,6.525,4.316,7.631C49.931,94.93,55.194,101.982,56.089,102.615L56.089,102.615z"/>
	<path fill-rule="evenodd" clip-rule="evenodd" fill="#E20613" d="M47.247,87.193c0.053,0.053,1.263,0.262,2.263,0.262
		s5.632-0.262,10.948-5.578c1.421,2.789,5.105,4.105,8.316,4.105c3.21,0,5.895,0.367,8.474-3.789
		c0.947,0.736,1.368,1.947,5.842,2.156c3.632,0.211,6.106-2.842,6.106-2.842s1.579,1.369,4.105,1.158s4.947-2.525,4.947-2.525
		s1.369,0.895,3.105,0.895c1.737,0,2.316-0.58,2.316-0.58l-0.211,1.738c0,0-8.053,0.051-13.105,2.895
		c-5.159,1.578-20.107,14.211-27.687,13.527c-5.053-0.422-8.474-3.58-10.369-5.055C50.562,92.193,47.72,88.824,47.247,87.193
		L47.247,87.193z"/>
	<path fill-rule="evenodd" clip-rule="evenodd" fill="#1D1D1B" d="M117.665,68.898c0-1.473,1.199-2.672,2.687-2.672
		c1.479,0,2.672,1.199,2.672,2.672c0,1.488-1.192,2.688-2.672,2.688C118.864,71.586,117.665,70.387,117.665,68.898L117.665,68.898
		L117.665,68.898z M122.701,68.898c0-1.297-1.052-2.35-2.35-2.35c-1.305,0-2.356,1.053-2.356,2.35c0,1.312,1.052,2.363,2.356,2.363
		C121.649,71.262,122.701,70.211,122.701,68.898L122.701,68.898L122.701,68.898z M121.684,70.4h-0.436l-0.855-1.383h-0.673V70.4
		h-0.365v-2.996h1.305c0.253,0,0.505,0.014,0.729,0.148c0.225,0.125,0.337,0.393,0.337,0.645c0,0.59-0.414,0.807-0.947,0.82
		L121.684,70.4L121.684,70.4L121.684,70.4z M120.281,68.73c0.421,0,1.073,0.07,1.073-0.539c0-0.463-0.407-0.52-0.778-0.52h-0.855
		v1.059H120.281L120.281,68.73z"/>
	<path fill-rule="evenodd" clip-rule="evenodd" fill="#FFEC00" d="M20.297,57.823L7.77,62.139c0,0-1.369-5.474-1.369-13.264
		s3.685-19.159,11.264-27.896S38.193,5.924,49.983,6.872c0-0.105,0,0.632,0,0.632S36.719,9.924,27.14,21.189
		c-9.58,11.264-9.369,22.843-9.369,24.001S18.086,52.243,20.297,57.823L20.297,57.823z"/>
	<path fill-rule="evenodd" clip-rule="evenodd" fill="#FFEC00" d="M152.464,81.402l-8.001-7.158c0,0,5.79-2.789,10.106-9.842
		c4.315-7.054,6.579-14.896,6.368-22.16c-0.21-7.264-0.684-21.686-16.475-31.845c24.266,1.211,26.002,27.528,26.107,32.266
		c0.315,8.948-2.316,19.581-5.158,24.159C162.57,74.033,153.938,80.93,152.464,81.402L152.464,81.402z"/>
	<path fill-rule="evenodd" clip-rule="evenodd" fill="#E20613" d="M48.404,76.93l0.895-8.475c0,0,2.21,1.473,1.737,5.578
		c-0.684,3.738-1.737,4.053-2.105,4.002C48.404,78.035,48.404,76.93,48.404,76.93L48.404,76.93z"/>
	<path fill-rule="evenodd" clip-rule="evenodd" fill="#E20613" d="M50.878,60.718c0,0-0.316-1.685-0.158-2.632
		c0.158-0.947,0.579-1.895,1.316-2.21c0.316,0.842,0.263,1.79,0.053,2.526S51.562,60.507,50.878,60.718L50.878,60.718z"/>
	<path fill-rule="evenodd" clip-rule="evenodd" fill="#1D1D1B" d="M66.406,72.508c0,0,4.737,0,5.369-4
		c-0.105-1.264-0.315-1.791-1.369-1.791C69.353,66.717,66.511,67.98,66.406,72.508L66.406,72.508z"/>
	<path fill-rule="evenodd" clip-rule="evenodd" fill="#1D1D1B" d="M81.67,36.874c0,0,4.737,0,5.369-4
		c-0.105-1.263-0.315-1.79-1.369-1.79C84.617,31.084,81.775,32.347,81.67,36.874L81.67,36.874z"/>
	<path fill-rule="evenodd" clip-rule="evenodd" fill="#1D1D1B" d="M11.055,91.488c-2.351-1.051-3.75,0.42-3.97,0.234
		c-0.048-0.041-0.061-0.102-0.001-0.174c0.034-0.039,0.188-0.184,0.353-0.32l1.865-1.578c0.146-0.135,0.218-0.143,0.266-0.102
		c0.047,0.039,0.061,0.102,0.074,0.182c0.022,0.07,0.039,0.188,0.173,0.301l4.285,3.604c0.134,0.113,0.251,0.109,0.325,0.119
		c0.082,0,0.146,0.002,0.193,0.041c0.048,0.041,0.052,0.113-0.056,0.281l-1.234,2.107c-0.107,0.186-0.223,0.361-0.257,0.402
		c-0.06,0.07-0.123,0.068-0.171,0.027c-0.22-0.184,0.988-1.814-0.448-3.951l-4.69,5.576c-0.542,0.645-0.364,1.035,0.105,1.43
		c0.114,0.096,0.146,0.174,0.062,0.275c-0.067,0.08-0.141,0.07-0.246-0.018c-0.545-0.459-1.016-0.891-1.466-1.268
		c-0.45-0.379-0.954-0.768-1.499-1.227c-0.105-0.09-0.128-0.16-0.06-0.24c0.084-0.1,0.167-0.082,0.282,0.014
		c0.468,0.395,0.883,0.504,1.425-0.141L11.055,91.488L11.055,91.488z"/>
	<path fill-rule="evenodd" clip-rule="evenodd" fill="#1D1D1B" d="M14.866,99.074c1.105,0.012,1.771,0.027,2.478,0.5
		c0.655,0.438,0.933,1.191,0.364,2.045l-1.957,2.934c-0.583,0.875,0.407,0.967,0.217,1.25c-0.051,0.078-0.108,0.119-0.212,0.049
		c-0.271-0.18-0.692-0.494-1.244-0.861s-1.002-0.637-1.273-0.818c-0.104-0.068-0.088-0.139-0.037-0.215
		c0.19-0.283,0.655,0.596,1.239-0.279l1.913-2.867c0.351-0.525,0.307-0.934-0.14-1.232c-0.375-0.25-0.838-0.275-1.515-0.252
		l-2.088,3.129c-0.584,0.877,0.407,0.969,0.217,1.252c-0.051,0.078-0.108,0.117-0.212,0.049c-0.271-0.18-0.692-0.494-1.244-0.861
		s-1.002-0.639-1.273-0.818c-0.104-0.068-0.088-0.139-0.037-0.215c0.19-0.283,0.655,0.596,1.239-0.279l3.759-5.637
		c0.504-0.754-0.438-1.145-0.284-1.375c0.139-0.207,0.467,0.201,2.58,0.773L14.866,99.074L14.866,99.074z"/>
	<path fill-rule="evenodd" clip-rule="evenodd" fill="#1D1D1B" d="M19.119,103.652c-0.681,1.455-0.15,2.592,0.783,3.045
		c0.686,0.334,1.177,0.268,1.67,0.053c0.369-0.156,0.45-0.352,0.551-0.301c0.034,0.016,0.05,0.068,0.027,0.115
		c-0.173,0.354-1.451,1.664-3.305,0.76c-1.517-0.738-1.953-2.355-1.134-4.035c0.761-1.561,2.394-2.229,3.843-1.523
		c1.259,0.613,1.912,1.986,1.161,3.639L19.119,103.652L19.119,103.652L19.119,103.652z M21.504,104.465
		c0.738-1.572,0.563-2.186-0.065-2.492c-0.719-0.35-1.548,0.154-2.182,1.396L21.504,104.465L21.504,104.465z"/>
	<path fill-rule="evenodd" clip-rule="evenodd" fill="#1D1D1B" d="M29.965,105.355c1.789,0.641,2.556,2.424,1.993,3.996
		s-2.29,2.463-4.079,1.822c-1.788-0.641-2.556-2.424-1.993-3.998C26.45,105.604,28.176,104.713,29.965,105.355L29.965,105.355
		L29.965,105.355z M27.959,110.951c0.753,0.27,1.578-0.105,2.328-2.197c0.75-2.094,0.352-2.906-0.402-3.176
		c-0.753-0.27-1.578,0.105-2.328,2.197S27.206,110.682,27.959,110.951L27.959,110.951z"/>
	<path fill-rule="evenodd" clip-rule="evenodd" fill="#1D1D1B" d="M34.949,108.736l0.024,0.008c0.799-1.025,1.457-1.354,2.092-1.164
		c0.54,0.158,0.862,0.611,0.694,1.18c-0.153,0.516-0.509,0.795-1.001,0.65c-0.647-0.193-0.318-0.863-0.738-0.988
		c-0.539-0.158-1.183,0.693-1.295,1.072l-0.717,2.422c-0.299,1.01,0.675,0.805,0.578,1.131c-0.026,0.09-0.069,0.145-0.189,0.109
		c-0.312-0.092-0.808-0.266-1.443-0.455c-0.635-0.188-1.146-0.311-1.458-0.402c-0.12-0.035-0.125-0.105-0.099-0.195
		c0.097-0.328,0.802,0.375,1.1-0.635l0.938-3.166c0.258-0.871-0.623-0.98-0.559-1.195c0.071-0.238,0.386,0.02,2.558-0.01
		L34.949,108.736L34.949,108.736z"/>
	<path fill-rule="evenodd" clip-rule="evenodd" fill="#1D1D1B" d="M39.07,113.354c-0.264,1.02,0.847,0.816,0.761,1.148
		c-0.023,0.09-0.063,0.146-0.185,0.115c-0.387-0.102-0.961-0.275-1.603-0.441c-0.642-0.166-1.229-0.291-1.617-0.393
		c-0.121-0.031-0.128-0.102-0.105-0.189c0.086-0.332,0.959,0.383,1.224-0.635l0.814-3.146c0.228-0.879-0.79-0.938-0.72-1.205
		c0.063-0.242,0.507,0.035,2.691-0.119L39.07,113.354L39.07,113.354L39.07,113.354z M40.293,105.488
		c0.472,0.123,0.753,0.631,0.625,1.127c-0.129,0.496-0.622,0.805-1.094,0.682c-0.472-0.123-0.753-0.631-0.625-1.127
		C39.329,105.674,39.821,105.367,40.293,105.488L40.293,105.488z"/>
	<path fill-rule="evenodd" clip-rule="evenodd" fill="#1D1D1B" d="M46.453,108.811c-0.1,0.449-0.504,0.656-0.846,0.58
		c-0.305-0.068-0.431-0.365-0.675-0.418c-0.195-0.045-0.405,0.098-0.54,0.473c1.552,0.506,2.163,1.449,1.94,2.451
		c-0.262,1.182-1.459,1.617-3.172,1.318c-1-0.168-1.431,0.047-1.502,0.367c-0.105,0.475,0.144,0.678,2.072,1.105
		c1.696,0.377,2.244,1.023,2.005,2.102c-0.318,1.439-2.016,1.588-3.772,1.199c-1.928-0.428-2.458-1.152-2.296-1.883
		c0.102-0.463,0.426-0.77,1.038-0.875c-0.346-0.346-0.409-0.697-0.295-1.211c0.151-0.682,0.732-1.227,1.864-1.137l0.006-0.025
		c-1.022-0.469-1.301-1.178-1.11-2.039c0.236-1.064,1.295-1.801,3.003-1.422c0.418-1.309,1.02-1.715,1.654-1.574
		C46.291,107.926,46.553,108.361,46.453,108.811L46.453,108.811L46.453,108.811z M42.031,117.68
		c1.562,0.346,2.331,0.111,2.461-0.479c0.08-0.359-0.023-0.705-1.218-0.971c-2.075-0.459-2.157-0.666-2.303-0.699
		c-0.317-0.07-0.631,0.305-0.693,0.588C40.112,116.863,40.689,117.383,42.031,117.68L42.031,117.68L42.031,117.68z M43.358,113.016
		c0.5,0.111,0.983-0.105,1.291-1.492c0.307-1.389-0.039-1.789-0.54-1.898c-0.5-0.111-1.008,0.1-1.315,1.486
		S42.858,112.904,43.358,113.016L43.358,113.016z"/>
	<path fill-rule="evenodd" clip-rule="evenodd" fill="#1D1D1B" d="M48.644,115.426c-0.195,1.035,0.9,0.76,0.836,1.096
		c-0.017,0.09-0.053,0.15-0.176,0.127c-0.393-0.074-0.978-0.211-1.628-0.334s-1.246-0.207-1.638-0.281
		c-0.123-0.023-0.135-0.092-0.118-0.184c0.063-0.336,0.982,0.32,1.178-0.715l0.602-3.193c0.168-0.893-0.851-0.885-0.8-1.156
		c0.047-0.244,0.509,0.002,2.676-0.299L48.644,115.426L48.644,115.426L48.644,115.426z M49.337,107.496
		c0.479,0.09,0.794,0.578,0.699,1.082c-0.095,0.506-0.565,0.846-1.045,0.754c-0.479-0.09-0.794-0.578-0.699-1.082
		C48.387,107.746,48.858,107.406,49.337,107.496L49.337,107.496z"/>
	<path fill-rule="evenodd" clip-rule="evenodd" fill="#1D1D1B" d="M52.678,112c1.007-0.455,1.617-0.719,2.458-0.588
		c0.778,0.121,1.347,0.689,1.188,1.703l-0.543,3.482c-0.162,1.041,0.775,0.707,0.723,1.045c-0.014,0.092-0.049,0.152-0.173,0.135
		c-0.321-0.051-0.835-0.158-1.49-0.26c-0.655-0.104-1.177-0.158-1.499-0.207c-0.124-0.02-0.138-0.09-0.124-0.18
		c0.052-0.338,0.844,0.266,1.006-0.775l0.531-3.404c0.097-0.625-0.113-0.977-0.645-1.061c-0.444-0.068-0.876,0.104-1.48,0.408
		l-0.58,3.719c-0.162,1.039,0.775,0.705,0.723,1.043c-0.015,0.092-0.049,0.152-0.173,0.133c-0.321-0.049-0.835-0.156-1.49-0.258
		c-0.655-0.104-1.178-0.158-1.499-0.207c-0.124-0.02-0.138-0.088-0.124-0.18c0.053-0.338,0.844,0.264,1.006-0.775l0.509-3.262
		c0.141-0.896-0.747-0.889-0.712-1.109c0.038-0.248,0.384-0.033,2.534-0.352L52.678,112L52.678,112z"/>
	<path fill-rule="evenodd" clip-rule="evenodd" fill="#1D1D1B" d="M61.818,117.588c-0.03,0.248,0.067,0.379,0.266,0.402
		c0.198,0.023,0.375-0.088,0.528-0.201c0.083-0.057,0.146-0.168,0.221-0.158c0.062,0.006,0.081,0.062,0.074,0.113
		c-0.024,0.197-0.777,0.809-1.596,0.709c-0.708-0.086-0.947-0.393-1.056-1.055c-0.696,0.445-1.401,0.758-2.22,0.66
		c-0.645-0.078-1.231-0.441-1.12-1.355c0.096-0.797,0.547-1.193,2.204-1.67l1.473-0.418l0.18-1.488
		c0.052-0.432-0.043-0.682-0.404-0.727c-0.496-0.059-1.006,0.197-1.198,0.85c-0.264,0.936-0.519,1.277-1.165,1.199
		c-0.372-0.045-0.596-0.377-0.544-0.809c0.114-0.941,2.036-1.637,3.488-1.461c0.968,0.117,1.448,0.625,1.299,1.854L61.818,117.588
		L61.818,117.588L61.818,117.588z M60.56,114.877c-1.276,0.35-1.844,0.678-1.944,1.502c-0.091,0.758,0.125,1.049,0.547,1.1
		c0.359,0.043,0.812-0.154,1.13-0.395L60.56,114.877L60.56,114.877z"/>
	<path fill-rule="evenodd" clip-rule="evenodd" fill="#1D1D1B" d="M65.19,117.686c-0.103,1.047,0.964,0.678,0.93,1.018
		c-0.009,0.092-0.04,0.154-0.165,0.143c-0.398-0.039-0.993-0.125-1.652-0.189s-1.259-0.098-1.658-0.137
		c-0.124-0.012-0.143-0.08-0.134-0.172c0.033-0.34,1.008,0.23,1.11-0.816l0.662-6.742c0.089-0.902-0.926-0.805-0.898-1.08
		c0.024-0.248,0.506-0.041,2.64-0.533L65.19,117.686L65.19,117.686z"/>
	<path fill-rule="evenodd" clip-rule="evenodd" fill="#1D1D1B" d="M75.719,112.316c-0.03,0.459-0.398,0.725-0.748,0.703
		c-0.312-0.021-0.482-0.297-0.731-0.312c-0.2-0.012-0.386,0.16-0.462,0.551c1.611,0.264,2.358,1.104,2.291,2.127
		c-0.08,1.209-1.197,1.822-2.937,1.787c-1.014-0.014-1.408,0.264-1.43,0.592c-0.032,0.486,0.246,0.648,2.217,0.779
		c1.734,0.113,2.374,0.668,2.301,1.771c-0.097,1.471-1.752,1.877-3.548,1.76c-1.972-0.129-2.606-0.764-2.557-1.514
		c0.031-0.473,0.305-0.822,0.894-1.021c-0.395-0.291-0.51-0.627-0.476-1.152c0.045-0.697,0.538-1.324,1.671-1.408l0.002-0.025
		c-1.083-0.309-1.465-0.967-1.407-1.846c0.072-1.092,1.007-1.979,2.754-1.865c0.214-1.357,0.748-1.85,1.396-1.807
		C75.424,111.467,75.75,111.857,75.719,112.316L75.719,112.316L75.719,112.316z M72.693,121.758
		c1.597,0.105,2.321-0.242,2.361-0.848c0.024-0.367-0.13-0.693-1.352-0.773c-2.122-0.139-2.234-0.33-2.384-0.34
		c-0.324-0.021-0.578,0.396-0.597,0.686C70.672,121.244,71.321,121.668,72.693,121.758L72.693,121.758L72.693,121.758z
		 M73.298,116.945c0.511,0.033,0.956-0.254,1.049-1.672s-0.31-1.762-0.822-1.795c-0.511-0.033-0.981,0.252-1.074,1.67
		C72.357,116.566,72.786,116.912,73.298,116.945L73.298,116.945z"/>
	<path fill-rule="evenodd" clip-rule="evenodd" fill="#1D1D1B" d="M79.6,113.561c1.898,0.078,3.165,1.551,3.097,3.221
		s-1.45,3.035-3.348,2.957c-1.898-0.076-3.165-1.551-3.097-3.221C76.32,114.85,77.701,113.482,79.6,113.561L79.6,113.561
		L79.6,113.561z M79.358,119.502c0.799,0.033,1.474-0.572,1.565-2.793c0.09-2.223-0.533-2.879-1.333-2.912
		c-0.8-0.031-1.475,0.572-1.565,2.795C77.935,118.812,78.558,119.471,79.358,119.502L79.358,119.502z"/>
	<path fill-rule="evenodd" clip-rule="evenodd" fill="#1D1D1B" d="M88.379,118.262c-0.016,0.908,0.861,0.777,0.857,1.002
		c-0.004,0.25-0.376,0.086-2.46,0.695l0.017-1.025c-0.634,0.568-1.216,1.006-2.278,0.988c-1.075-0.018-1.504-0.525-1.489-1.473
		l0.049-3.014c0.015-0.908-0.862-0.777-0.858-1c0.004-0.25,0.376-0.086,2.461-0.697l-0.076,4.658
		c-0.011,0.631,0.223,0.898,0.823,0.908c0.512,0.01,0.979-0.26,1.374-0.74l0.05-3.066c0.015-0.906-0.862-0.777-0.858-1
		c0.004-0.25,0.376-0.086,2.461-0.697L88.379,118.262L88.379,118.262z"/>
	<path fill-rule="evenodd" clip-rule="evenodd" fill="#1D1D1B" d="M91.855,115.51h0.024c0.471-1.213,1.007-1.715,1.67-1.717
		c0.562-0.002,1.001,0.338,1.003,0.93c0.002,0.539-0.259,0.91-0.771,0.912c-0.676,0.002-0.553-0.736-0.99-0.734
		c-0.563,0.002-0.935,1.004-0.933,1.398l0.009,2.527c0.003,1.053,0.877,0.574,0.878,0.916c0.001,0.094-0.024,0.158-0.149,0.16
		c-0.324,0-0.85-0.023-1.513-0.021c-0.662,0.002-1.188,0.031-1.513,0.031c-0.125,0.002-0.15-0.064-0.15-0.156
		c-0.001-0.342,0.875,0.129,0.872-0.924l-0.012-3.303c-0.004-0.908-0.878-0.762-0.879-0.984c-0.001-0.25,0.374-0.094,2.447-0.746
		L91.855,115.51L91.855,115.51z"/>
	<path fill-rule="evenodd" clip-rule="evenodd" fill="#1D1D1B" d="M97.252,114.725c0.578-0.486,1.205-1.041,1.979-1.074
		c0.649-0.029,1.186,0.197,1.494,0.934c0.577-0.525,1.291-1.059,2.091-1.094c0.937-0.043,1.409,0.465,1.454,1.449l0.157,3.51
		c0.047,1.053,0.9,0.539,0.915,0.881c0.005,0.092-0.018,0.16-0.143,0.166c-0.324,0.014-0.851,0.01-1.513,0.041
		c-0.661,0.029-1.185,0.078-1.435,0.09c-0.125,0.006-0.153-0.061-0.157-0.152c-0.016-0.342,0.805,0.098,0.758-0.955l-0.155-3.471
		c-0.024-0.551-0.291-0.908-0.74-0.889c-0.362,0.016-0.775,0.299-1.196,0.672l0.169,3.773c0.047,1.051,0.825,0.543,0.841,0.885
		c0.004,0.092-0.019,0.158-0.144,0.164c-0.249,0.012-0.775,0.008-1.437,0.037c-0.662,0.029-1.186,0.08-1.436,0.09
		c-0.125,0.006-0.152-0.059-0.157-0.15c-0.015-0.342,0.806,0.096,0.758-0.955l-0.16-3.576c-0.023-0.525-0.286-0.803-0.723-0.783
		c-0.275,0.012-0.668,0.188-1.209,0.672l0.169,3.773c0.047,1.051,0.825,0.541,0.841,0.883c0.004,0.094-0.019,0.16-0.143,0.166
		c-0.25,0.01-0.776,0.008-1.438,0.037c-0.662,0.029-1.186,0.078-1.511,0.094c-0.124,0.006-0.152-0.059-0.156-0.152
		c-0.016-0.342,0.88,0.094,0.833-0.959l-0.148-3.299c-0.04-0.906-0.908-0.723-0.918-0.947c-0.012-0.25,0.37-0.107,2.415-0.844
		L97.252,114.725L97.252,114.725z"/>
	<path fill-rule="evenodd" clip-rule="evenodd" fill="#1D1D1B" d="M106.725,115.938c0.175,1.596,1.219,2.289,2.252,2.193
		c0.759-0.07,1.144-0.385,1.454-0.822c0.232-0.326,0.201-0.535,0.312-0.545c0.037-0.004,0.078,0.031,0.083,0.084
		c0.037,0.393-0.373,2.176-2.427,2.367c-1.68,0.158-2.892-0.998-3.065-2.857c-0.162-1.729,0.885-3.148,2.49-3.299
		c1.394-0.129,2.664,0.703,2.883,2.506L106.725,115.938L106.725,115.938L106.725,115.938z M109.185,115.389
		c-0.188-1.727-0.654-2.158-1.351-2.092c-0.797,0.074-1.243,0.936-1.139,2.326L109.185,115.389L109.185,115.389z"/>
	<path fill-rule="evenodd" clip-rule="evenodd" fill="#1D1D1B" d="M114.583,112.424l-0.218,0.664l-1.414,0.178l0.465,3.656
		c0.104,0.809,0.478,1.078,0.937,1.021c0.397-0.051,0.61-0.25,0.8-0.553c0.095-0.145,0.091-0.277,0.165-0.287
		c0.05-0.006,0.092,0.029,0.101,0.094c0.024,0.195-0.341,1.291-1.718,1.465c-1.078,0.137-1.707-0.447-1.837-1.465l-0.475-3.732
		l-0.769,0.098c0.929-1.02,1.468-1.938,1.941-3.164l0.024-0.004l0.286,2.246L114.583,112.424L114.583,112.424z"/>
	<path fill-rule="evenodd" clip-rule="evenodd" fill="#1D1D1B" d="M121.69,117.027c0.392,2.229-0.745,3.123-1.951,3.334
		c-0.837,0.148-1.345-0.283-1.431-0.777c-0.078-0.439,0.148-0.812,0.53-0.881c0.381-0.066,0.744,0.189,0.825,0.656
		c0.023,0.131,0.02,0.184,0.043,0.314c0.047,0.271,0.225,0.414,0.471,0.371c0.406-0.072,0.6-0.412,0.534-0.789
		c-0.077-0.439-0.304-0.428-0.399-0.971l-0.89-5.066c-0.157-0.895-1.107-0.527-1.155-0.799c-0.043-0.246,0.477-0.178,2.399-1.223
		L121.69,117.027L121.69,117.027L121.69,117.027z M119.39,108.482c0.48-0.084,0.946,0.26,1.035,0.766s-0.232,0.99-0.712,1.074
		s-0.946-0.262-1.036-0.768C118.589,109.051,118.91,108.566,119.39,108.482L119.39,108.482z"/>
	<path fill-rule="evenodd" clip-rule="evenodd" fill="#1D1D1B" d="M123.118,113.449c0.36,1.564,1.479,2.133,2.493,1.916
		c0.745-0.16,1.091-0.516,1.348-0.988c0.193-0.352,0.137-0.555,0.247-0.578c0.037-0.008,0.082,0.023,0.093,0.074
		c0.082,0.387-0.116,2.205-2.133,2.637c-1.65,0.354-2.989-0.652-3.38-2.479c-0.363-1.697,0.511-3.23,2.087-3.568
		c1.368-0.293,2.728,0.385,3.156,2.15L123.118,113.449L123.118,113.449L123.118,113.449z M125.496,112.619
		c-0.387-1.693-0.901-2.068-1.586-1.922c-0.782,0.168-1.125,1.076-0.858,2.443L125.496,112.619L125.496,112.619z"/>
	<path fill-rule="evenodd" clip-rule="evenodd" fill="#1D1D1B" d="M130.077,114.299c0.262,1.02,1.137,0.307,1.222,0.637
		c0.022,0.09,0.015,0.16-0.105,0.191c-0.388,0.1-0.976,0.223-1.617,0.387c-0.642,0.166-1.217,0.34-1.604,0.439
		c-0.122,0.031-0.162-0.027-0.185-0.115c-0.085-0.332,1.025-0.129,0.764-1.148l-1.682-6.562c-0.226-0.879-1.146-0.439-1.214-0.707
		c-0.062-0.242,0.462-0.213,2.299-1.404L130.077,114.299L130.077,114.299z"/>
	<path fill-rule="evenodd" clip-rule="evenodd" fill="#1D1D1B" d="M133.538,113.332c0.293,1.01,1.146,0.27,1.24,0.6
		c0.025,0.088,0.021,0.158-0.1,0.193c-0.385,0.111-0.968,0.252-1.604,0.438c-0.637,0.184-1.205,0.377-1.59,0.488
		c-0.12,0.033-0.162-0.021-0.188-0.111c-0.096-0.328,1.021-0.158,0.728-1.17l-1.885-6.508c-0.253-0.871-1.158-0.402-1.235-0.668
		c-0.069-0.24,0.455-0.229,2.254-1.477L133.538,113.332L133.538,113.332z"/>
	<path fill-rule="evenodd" clip-rule="evenodd" fill="#1D1D1B" d="M134.404,108.828c-0.7-0.775-1.07-0.232-1.172-0.531
		c-0.021-0.062,0.021-0.133,0.151-0.176c0.449-0.154,0.896-0.277,1.321-0.424c0.426-0.145,0.855-0.318,1.281-0.465
		c0.095-0.031,0.159,0.002,0.181,0.064c0.06,0.174-0.504,0.227-0.347,0.688c0.034,0.1,0.205,0.293,0.335,0.443l2.062,2.328
		l0.104-1.828c0.012-0.352-0.025-0.812-0.153-1.186c-0.36-1.059-1.083-0.465-1.168-0.715c-0.025-0.074,0.005-0.141,0.1-0.172
		c0.355-0.121,0.719-0.217,1.074-0.338c0.354-0.121,0.701-0.268,1.056-0.389c0.071-0.023,0.132-0.002,0.152,0.061
		c0.06,0.174-0.14,0.131-0.354,0.469c-0.189,0.258-0.364,0.832-0.419,1.754l-0.388,5.115c-0.04,0.693-0.274,1.094-0.747,1.254
		c-0.438,0.15-0.924-0.074-1.081-0.535s-0.01-0.844,0.416-0.99c0.26-0.088,0.496-0.016,0.715,0.16
		c0.202,0.168,0.236,0.268,0.354,0.227c0.118-0.039,0.151-0.176,0.154-0.398l0.058-0.305L134.404,108.828L134.404,108.828z"/>
	<path fill-rule="evenodd" clip-rule="evenodd" fill="#1D1D1B" d="M143.809,104.961c0.323-0.787,0.735-1.385,1.461-1.721
		c1.225-0.568,2.653-0.07,3.351,1.436c0.819,1.766,0.135,3.766-1.555,4.549c-0.736,0.342-1.323,0.324-2.226,0.162l-0.165,0.801
		c-0.018,0.109-0.023,0.156-0.058,0.172c-0.023,0.012-0.046-0.008-0.062-0.043l-3.31-7.141c-0.382-0.824-1.206-0.225-1.322-0.475
		c-0.104-0.229,0.415-0.295,2.004-1.799L143.809,104.961L143.809,104.961L143.809,104.961z M145.347,108.281
		c0.388,0.836,0.95,1.039,1.586,0.744c1.021-0.473,1.1-1.699,0.44-3.119c-0.648-1.396-1.737-1.965-2.713-1.514
		c-0.306,0.143-0.568,0.408-0.719,0.855L145.347,108.281L145.347,108.281z"/>
	<path fill-rule="evenodd" clip-rule="evenodd" fill="#1D1D1B" d="M150.03,103.686c0.82,1.381,2.059,1.58,2.959,1.064
		c0.661-0.379,0.882-0.824,0.982-1.352c0.077-0.395-0.039-0.57,0.059-0.627c0.032-0.018,0.085-0.002,0.111,0.043
		c0.196,0.342,0.562,2.135-1.228,3.16c-1.464,0.84-3.046,0.291-3.976-1.328c-0.864-1.506-0.5-3.232,0.899-4.035
		c1.214-0.695,2.716-0.465,3.662,1.086L150.03,103.686L150.03,103.686L150.03,103.686z M152.042,102.168
		c-0.886-1.492-1.49-1.693-2.098-1.344c-0.693,0.396-0.743,1.365-0.071,2.588L152.042,102.168L152.042,102.168z"/>
	<path fill-rule="evenodd" clip-rule="evenodd" fill="#1D1D1B" d="M159.421,100.447c0.143,0.205,0.303,0.236,0.467,0.123
		c0.164-0.115,0.222-0.316,0.26-0.502c0.023-0.098-0.004-0.223,0.058-0.266c0.052-0.037,0.103-0.008,0.133,0.035
		c0.113,0.162-0.041,1.121-0.718,1.594c-0.584,0.408-0.968,0.338-1.491-0.082c-0.221,0.797-0.537,1.5-1.214,1.973
		c-0.532,0.371-1.211,0.492-1.738-0.262c-0.46-0.658-0.389-1.254,0.528-2.713l0.819-1.295l-0.859-1.229
		c-0.248-0.357-0.486-0.479-0.784-0.271c-0.409,0.287-0.618,0.818-0.326,1.432c0.428,0.873,0.464,1.297-0.068,1.67
		c-0.308,0.215-0.696,0.117-0.945-0.238c-0.542-0.777,0.427-2.578,1.625-3.416c0.8-0.559,1.496-0.5,2.205,0.514L159.421,100.447
		L159.421,100.447L159.421,100.447z M156.675,99.268c-0.718,1.113-0.922,1.736-0.447,2.416c0.438,0.625,0.793,0.697,1.142,0.453
		c0.297-0.207,0.502-0.654,0.58-1.047L156.675,99.268L156.675,99.268z"/>
	<path fill-rule="evenodd" clip-rule="evenodd" fill="#1D1D1B" d="M159.349,94.828c0.294-1.066,0.481-1.703,1.119-2.266
		c0.591-0.521,1.392-0.596,2.07,0.174l2.331,2.645c0.696,0.789,1.04-0.146,1.266,0.111c0.061,0.068,0.086,0.135-0.008,0.217
		c-0.244,0.215-0.655,0.543-1.152,0.98c-0.497,0.439-0.873,0.805-1.117,1.02c-0.094,0.084-0.156,0.051-0.217-0.018
		c-0.226-0.258,0.743-0.48,0.047-1.27l-2.279-2.586c-0.418-0.473-0.823-0.535-1.227-0.18c-0.338,0.297-0.481,0.738-0.633,1.398
		l2.489,2.822c0.695,0.789,1.039-0.145,1.265,0.111c0.062,0.068,0.086,0.135-0.008,0.217c-0.244,0.215-0.654,0.543-1.152,0.98
		c-0.496,0.439-0.873,0.807-1.117,1.021c-0.094,0.082-0.155,0.049-0.217-0.02c-0.226-0.258,0.744-0.48,0.048-1.27l-2.185-2.477
		c-0.6-0.68-1.161,0.006-1.309-0.162c-0.165-0.186,0.221-0.316,1.351-2.172L159.349,94.828L159.349,94.828z"/>
	<path fill-rule="evenodd" clip-rule="evenodd" fill="#1D1D1B" d="M166.619,93.066c0.347-0.377,0.938-0.377,1.324-0.021
		c0.397,0.365,0.437,0.945,0.09,1.322c-0.339,0.367-0.928,0.387-1.324,0.021C166.321,94.031,166.281,93.434,166.619,93.066
		L166.619,93.066z"/>
	<path fill-rule="evenodd" clip-rule="evenodd" fill="#1D1D1B" d="M162.668,88.756c-0.736-1.275-0.297-2.914,0.99-3.658
		c1.282-0.74,2.914-0.297,3.651,0.979c0.743,1.287,0.311,2.922-0.972,3.662C165.051,90.482,163.413,90.043,162.668,88.756
		L162.668,88.756L162.668,88.756z M167.03,86.236c-0.648-1.123-2.086-1.508-3.209-0.859c-1.13,0.652-1.516,2.09-0.866,3.213
		c0.655,1.137,2.093,1.521,3.223,0.869C167.301,88.811,167.686,87.373,167.03,86.236L167.03,86.236L167.03,86.236z M166.9,88.045
		l-0.376,0.219l-1.433-0.77l-0.583,0.338l0.691,1.195l-0.316,0.182l-1.497-2.592l1.129-0.652c0.219-0.127,0.444-0.242,0.706-0.238
		c0.258-0.002,0.487,0.172,0.614,0.391c0.294,0.51,0.045,0.906-0.41,1.184L166.9,88.045L166.9,88.045L166.9,88.045z M164.85,87.301
		c0.364-0.209,0.965-0.475,0.66-1.004c-0.232-0.4-0.612-0.246-0.935-0.061l-0.741,0.428l0.53,0.918L164.85,87.301L164.85,87.301z"/>
</g>
</svg>
