<?xml version="1.0" encoding="utf-8"?>
<!-- Generator: Adobe Illustrator 16.0.0, SVG Export Plug-In . SVG Version: 6.00 Build 0)  -->
<!DOCTYPE svg PUBLIC "-//W3C//DTD SVG 1.1//EN" "http://www.w3.org/Graphics/SVG/1.1/DTD/svg11.dtd">
<svg version="1.1" id="Calque_1" xmlns="http://www.w3.org/2000/svg" xmlns:xlink="http://www.w3.org/1999/xlink" x="0px" y="0px"
	 width="170.044px" height="181.028px" viewBox="0 0 170.044 181.028" enable-background="new 0 0 170.044 181.028"
	 xml:space="preserve">
<g>
	<path fill="#ED1C24" d="M68.645,53.367c1.969-0.445,9.57-8.543,12.898-11.926c4.871-4.957,10.551-9.445,11.219-16.484
		c0.191,3.125,1.332,4.504,1.621,5.039c0.785,1.453,4.367,2.949,3.453,4.965c-0.547,1.211-4.969,3.098-5.551,6.688
		c0,0,3.332-6.059,10.199-5.074c2.738,0.391,5.039,3.895,5.039,3.895c-1.332-0.387,0.262,2.289,0.492,3.23
		c0.793,3.305-0.023,5.988-0.793,7.746c-1.977,4.543-7.688,9.883-7.008,9.652c0.66-0.223,1.125-0.352,0.766,0.074
		c-2.762,3.258-2.871,9.07-0.594,9.191c9.242,0.477,10.219,4.176,10.125,6.992c0.125,3.652-1.262,4.531-1.035,8.152
		c0.16,2.516,3.203,2.676,5.637,3.133c2.984,0.586,4.863,1.137,7.172,3.129c1.062,0.913,2.305,1.434,2.305,2.867
		c0,2.089-2.016,2.608-3.582,3.909c0.031-0.352,0.254-0.551,0.254-0.905c0-2.868-1.379-4.599-3.586-6.391
		c0.48-0.328,0.801-0.523,1.285-0.789c-0.645-0.32-1.066-0.777-1.797-0.777c-4.84,0-6.949,3.911-11.789,3.911
		c-7.777,0-6.785-15.672-14.566-15.672c-5.957,0-12.387,4.406-12.387,4.406c1.23-4.863-2.738-7.531-1.324-8.25
		c2.449-1.246,3.312-2.66,2.941-2.371c-1.695,1.336-8.52,2.617-7.551,1.277c2.289-3.191-2.195-2.426-3.645-5.922
		c-0.465-1.137-1.152-2.512,0.715-3.656c2.086-1.273,3.719-1.059,3.633-2.203c-1.305,0.574-1.641,0.473-1.641,0.473
		c-2.309-1.094-1.973-3.816-3.414-3.715c-2.746,0-2.379,1.469-5.09,1.918c-1.148,0.195-0.887-0.66-2.262-0.66
		c-1.207,0-1.797,0.711-3.004,0.781c-2.699,0.168-3.945-1.277-3.562-4.223c0.129-1.039,1.656-3.203,3.07-4.246
		c3.992-2.953,6.336-3.453,7.422-4.969c-1.898-0.16-4.105-3.328-2.777-4.68c1.711-1.727,3.27-2.98,1.922-3.82
		c0,0,0.953-1.289,2.113-1.34c3.277-0.148,0.336,3.887-0.422,4.73c-0.215,0.625,1.824-0.137,4.414,0.57
		c2.27,0.621,1.055,2.305,1.055,2.305c-1.027,1.707-3.523,3.168-3.523,6.074C67.493,51.582,67.602,52.824,68.645,53.367"/>
	<path d="M119.485,127.461c3.762,4.801,7.375,7.347,10.637,12.772c1.664,2.785,1.02,5.047,1.672,8.242
		c0.766,3.691,2.867,5.574,2.672,9.352c-0.055,1.113-1.16,1.449-1.191,2.562c0.379-0.203,0.617-0.492,1.082-0.465
		c0.59,0.027,0.82,0.566,0.992,1.102c-0.566,0.703-2.465,4.344-2.125,5.414c0.293,0.082,0.324-0.012,0.648,0.004
		c1.512,0.078,2.074-1.203,2.898-2.445c0.141,3.594,3.691,4.895,3.508,8.469c-0.066,1.281-1.211,1.68-2.234,2.383
		c-1.367,0.914-2.238,1.988-3.914,1.898c-0.395-0.02-0.496-0.547-0.891-0.566c-1.609-0.09-1.336,2.258-2.539,3.281
		c-1.691,1.461-3.387,1.203-5.59,1.285c-2.836,0.082-4.746,0.773-7.352-0.387c-0.453-0.184-1.316,0.07-1.289-0.461
		c0.16-3.078,3.777-3.086,6.301-4.801c2.523-1.703,2.293-4.781,5.055-6.051c-0.652-1.348-1.199-2.23-1.125-3.742
		c0.223-4.062-1.738-6.273-3.961-9.676c-4.633-7.082-7.344-11.074-12.492-17.758c0,0-0.176-0.383-0.039-0.891
		c0.082-0.305,0.125-0.68,0.125-0.68c0.566,0.484,1.25,0.953,1.207,1.699c-0.109,2.105,2.098,2.422,4.066,3.047
		c1.105,0.352,0.945,2.156,2.117,2.215c1.418,0.074,2.18-0.672,3.586-0.602c5.254,0.281,6.477,5.867,7.852,10.938
		c1.172-2.238,1.254-3.852,1.383-6.371c0.23-4.367-3.191-6.223-5.801-9.648c-2.867-3.733-4.152-5.69-5.656-10.148
		c0,0-0.137-0.479-0.52-0.934c-0.379-0.457-0.633-0.612-0.398-1.02c0.219-0.401,0.68-0.457,0.812,0.207
		C119.102,126.344,119.34,127.417,119.485,127.461"/>
	<path d="M72.606,134.374c0,0,0.137,0.664-0.141,1.172c-1.078,1.797-2.672,1.902-3.523,3.797c-2.023,4.516-1.078,7.91-3.398,12.293
		c-2.293,4.312-4.188,6.473-7.328,10.199c-1.406,1.672-3.855,2.645-3.137,4.711c0,0-0.695,0.023-1.305,0
		c-1.18-0.07-1.867-0.457-2.879-1.047c-0.293-0.168-1.164-0.309-1.305,0c-0.113,0.273-0.266,0.457-0.266,0.785
		c0,1.891,0.719,2.906,1.312,4.707c-0.203-0.07-0.652,0.199-0.754-0.051c-1.738,3.305-3.102,4.824-6.055,7.109
		c-1.008-0.914-2.117-0.883-3.133-1.828c-1.113-1.051-0.75-2.613-2.09-3.402c-1.211-0.715-2.391-0.16-3.664-0.785
		c-4.32-2.156-6.867-4.578-8.371-9.148c0.555-0.332,1.016-0.527,1.703-0.527c3.297,0,4.672,2.883,7.977,2.883
		c1.598,0,2.449,0.516,4.051,0.516c1.504,0,1.898-1.828,3.402-1.828c1.863,0,2.16,1.992,3.789,2.875c0.137-0.246,0.223-1.18,0-1.562
		c-0.684-1.312-1.566-2.035-1.566-3.535c0-1.113,0.715-2.223,1.832-2.223c2.316,0,3.168,2.125,5.488,2.352
		c-1.105-1.664-1.633-3.656-3.656-3.656c-0.758,0-1.148,0.258-1.832,0.52c0-0.23-0.266-0.297-0.266-0.52
		c0-4.254,3.926-5.496,5.492-9.418c1.215-3.047-0.262-7.852,3.012-7.852c3.203,0,4.051,3.992,4.051,7.199
		c0,3.297-0.32,5.332-1.832,8.238c-0.328,0.68-1.695,1.832-0.914,1.832c2.426,0,3.043-2.426,4.316-4.449
		c2.582-4.086,4.477-6.379,6.012-10.98C68.809,139.147,69.106,135.812,72.606,134.374"/>
	<path d="M85.34,0.031c3.297,0.172,7.668,0.738,7.5,4.031c-0.066,1.211-0.945,1.723-1.965,2.383
		c-0.074-0.762-2.051-4.555-4.594-4.691c-2.156-0.109-3.762,0.863-5.062,2.531c0.906-0.492,3.98,0.062,4.602,1.891
		c1.164,3.395-2.297,7.449-3.926,8.625c0.23,0.137,2.121-0.398,3.031-0.906c2.531-1.441,5.707-2.121,8.613-1.965
		c3.133,0.164,6.02,0.656,5.859,3.781c-0.195,3.695-3.578,6.367-7.27,6.172c-0.812-0.043-1.098-0.844-1.914-0.887
		c-0.684-0.035-1,0.438-1.613,0.699c1.062-1.574,1.973-2.551,2.074-4.469c0.043-0.918-0.25-1.453-0.668-2.262
		c0,0-1.73-0.172-3.133-0.164c-6.516-0.117-8.285,6.895-14.492,6.574c-2.152-0.117-3.398-1.324-4.551-3.121
		c-0.25-0.438,0.035-0.555,0.035-0.555c1.387-0.254,2.215,0.145,3.652,0.223c1.473,0.074,2.43-0.195,3.711-0.855
		c-0.914-4.828-6.324-4.352-5.492-7.109c0.527-1.758,1.695-3.641,2.887-4.992C76,1.187,80.239-0.235,85.34,0.031"/>
	<path d="M82.36,33.578c0.41-0.152,0.883-0.133,1.023,0.02c0.148,0.191,0.113,0.484,0.02,0.758c-1.215,3.074-2.16,5.594-5.23,6.801
		c0-1.34,1.203-3.398-0.129-3.398c-1.344,0-1.637,1.406-2.754,2.094V35.14c0.309-0.242,0.594-0.52,1.055-0.52
		c0.883,0,1.277,0.688,1.828,1.305C79.676,34.851,80.692,34.324,82.36,33.578"/>
	<path d="M58.52,63.542c1.512,0,3.164,1.199,3.148,2.887c-0.016,1.332-0.199,3.105-1.809,2.301
		c6.816,6.824,31.113,49.297,38.992,64.11v0.788c0,0-38.633-60.167-38.699-60.816c-0.418-3.977-5.066-1.805-5.066-5.008
		C55.086,65.554,56.278,63.542,58.52,63.542"/>
	<path fill="#C69930" d="M149.356,67.082c-0.18-0.137-0.289-0.441-0.371-0.699c-0.125-0.457-0.164-0.801-0.16-1.219
		c0.004-0.613,0.16-1.555,0.762-2.105c0.188-0.148,0.441-0.328,0.676-0.211c0.391,0.211,0.59,0.703,0.582,1.137
		c-0.02,0.621-0.266,1.293-0.562,1.84C150.04,66.292,149.75,66.773,149.356,67.082z M115.676,78.625
		c-0.039,0.672-0.176,1.43-0.543,2.375c-0.27,0.727-0.688,1.133-1.312,1.602c-0.371,0.234-0.73,0.344-1.234,0.281
		c-0.5-0.102-0.766-0.469-0.953-0.863c-0.629-1.391-0.473-2.828,0.195-4.188c0.336-0.598,0.672-1.039,1.207-1.477
		c0.281-0.223,0.602-0.359,0.945-0.395c0.457-0.066,0.801,0.043,1.035,0.285c0.16,0.145,0.25,0.277,0.422,0.559
		C115.809,77.386,115.723,78.007,115.676,78.625z M124.782,69.64c-0.02-2.766,0.273-5.801,2.023-8.246
		c0.156-0.227,0.559-0.594,1.008-0.531c0.633,0.289,0.684,0.711,0.73,1.137c0.152,0.977-0.059,1.84-0.367,2.855
		c-0.191,0.66-0.512,1.367-0.754,1.98c-0.566,1.238-1.043,2.418-1.758,3.594c-0.07,0.141-0.168,0.227-0.32,0.305
		c-0.25,0.121-0.359,0-0.441-0.105C124.75,70.394,124.782,70.015,124.782,69.64z M169.945,57.363
		c-0.129-0.117-0.801,0.035-1.188,0.762c-0.211,0.383-0.633,1.438-1.363,2.73c-0.602,1.16-1.293,2.234-2.379,2.859
		c-0.34,0.133-0.715,0.102-1.031-0.078c-0.465-0.301-0.664-0.887-0.75-1.398c-0.094-0.504-0.145-1.105-0.164-1.648
		c-0.047-0.766,0.262-1.629,0-2.309c-0.16-0.355-0.625-0.535-1.023-0.527c-0.574,0.008-1.145,0.191-2,0.594
		c-0.262,0.105-1.09,0.488-1.5,0.211c-0.672-0.613-0.367-1.508-0.465-2.258c-0.121-0.773-0.281-1.645-0.871-2.109
		c-0.297-0.211-0.633-0.293-1.012-0.207c-0.348,0.09-0.707,0.309-0.906,0.508c-0.629,0.602-0.688,1.395-0.746,2.152
		c-0.09,0.977,0.129,2.355,1.156,2.852c0.406,0.32,0.539,0.914,0.488,1.391c-0.129,1.184-0.25,1.531-0.449,2.406
		c-0.203,0.711-0.438,1.41-0.773,2.352c-0.191,0.449-0.75,1.77-1.719,2.574c-0.535,0.398-1.203,0.789-1.843,0.766
		c-0.211-0.051-0.754-0.137-0.789-0.434c-0.086-0.758,0.477-1.418,0.836-2.07c0.503-0.832,0.905-1.793,1.167-2.938
		c0.23-1.008,0.125-2.164-0.254-2.887c-0.305-0.512-0.901-0.789-1.464-0.75c-1.223,0.133-2.059,0.902-2.781,1.855
		c-0.578,0.758-0.883,1.426-1.242,2.211c-0.273,0.641-0.684,2.02-0.684,2.988c-0.039,0.887,0.027,1.875,0.285,2.805
		c0.047,0.258,0.176,0.508,0.156,0.758c-0.066,0.188-0.172,0.453-0.285,0.645c-0.262,0.398-0.859,0.766-1.562,0.988
		c-0.617,0.176-1.027,0.078-1.48-0.07c-0.617-0.203-1.324-0.609-1.824-1.125c-0.289-0.277-0.391-0.535-0.516-0.887
		c-0.254-0.562,0.215-1.145,0.438-1.637c0.684-1.035,1.176-2.316,1.484-3.312c0.223-0.668,0.379-1.332,0.352-1.879
		c-0.09-0.949-0.672-2.059-1.566-2.285c-0.551-0.086-1.109,0.051-1.656,0.359c-1.168,0.723-1.918,1.871-2.801,2.871
		c-0.16,0.184-0.461,0.426-0.613,0.273c-0.109-0.105-0.238-0.203-0.219-0.395c0-0.824,0.18-1.656,0.27-2.484
		c0.203-2.109,0.625-3.711,0.926-5.898c0.078-0.547,0.289-1.613,0.387-2.047c0.164-0.887,0.527-1.734,0.199-2.41
		c-0.164-0.336-0.43-0.539-0.844-0.418c-0.449,0.176-1.047,0.539-1.348,0.938c-0.473,0.625-0.816,1.266-0.965,2.141
		c-0.352,1.504-0.371,3.145-0.613,4.738c-0.242,1.957-0.312,3.484-0.48,5.574c-0.031,0.227-0.078,0.809-0.113,1.031
		c-0.027,0.16-0.059,0.422-0.094,0.66c-0.215,0.969-0.348,1.926-0.656,2.898l-0.047,0.113c-0.484,1.75-1.391,3.484-2.242,5.082
		c-0.652,0.934-1.324,1.84-2.16,2.574c-0.324,0.266-0.746,0.516-1.285,0.426c-0.961-0.281-1.465-1.203-1.684-2.148
		c-0.242-0.727-0.012-1.453,0.344-2.148c0.59-1.184,1.254-2.398,1.895-3.539c0.836-1.621,1.676-3.387,2.105-5.172
		c0.23-0.996,0.484-1.969,0.484-2.883c-0.012-0.781-0.082-1.574-0.488-2.414c-0.285-0.543-0.918-0.992-1.691-1.023
		c-0.48,0.004-1.098,0.254-1.605,0.707c-0.812,0.762-2.309,3.5-3.043,6.043c-0.551,1.867-0.824,3.68-1.023,5.531
		c-0.32,2.141-0.137,4.258-0.172,6.363c-0.07,0.277-0.129,0.48-0.305,0.738c-0.566,0.871-1.121,1.582-1.844,2.336
		c-0.25,0.25-0.496,0.621-0.902,0.66c-0.301-0.059-0.496-0.32-0.547-0.594c-0.086-0.43-0.18-1.266-0.234-1.758
		c-0.082-0.938-0.082-1.426-0.133-2.391c-0.074-0.641,0.039-1.629-0.719-1.934c-0.34-0.078-0.707,0.07-0.918,0.309
		c-0.238,0.219-0.547,0.32-0.871,0.32c-0.531,0.035-1.004-0.355-1.762-0.102c-0.219,0.062-0.512,0.199-1,0.465
		c-0.539,0.316-0.863,0.539-1.234,0.887c-0.539,0.496-1.336,1.441-1.719,2.004c-0.652,0.938-1.043,2-1.324,3.121
		c-0.211,0.723-0.371,2.324-0.191,3.41c0.07,0.355,0.16,0.883,0.348,1.262c0.496,0.949,1.262,1.488,2.25,1.516
		c0.574-0.02,1.172-0.32,1.648-0.668c0.98-0.73,1.75-1.973,2.637-2.562c0.266-0.188,0.438-0.133,0.688-0.055
		c0.438,0.184,0.809,0.492,1.305,0.598c0.332,0.074,0.762,0.004,1.113-0.348c1.016-0.988,3.32-3.91,4.031-4.629
		c0.297-0.254,0.559-0.215,0.859,0.148c0.5,0.559,0.723,0.871,1.504,1.383c1.938,1.246,3.871-0.633,4.77-2.051
		c0.453-0.699,1.02-1.621,1.285-2.16c0.172-0.336,0.578-1.152,0.945-1.52c0.25-0.258,0.543-0.016,0.59,0.422
		c0.066,0.602,0.125,1.086,0.223,1.68c0.078,0.637,0.254,1.301,0.672,1.797c0.234,0.211,0.551,0.391,0.883,0.316
		c0.891-0.16,1.285-1.188,1.367-1.531c0.199-0.746,0.039-1.82-0.035-2.184c-0.238-2.141-0.441-3.891,0.176-6.059
		c0.234-1.023,0.668-1.855,1.234-2.664c0.535-0.633,1.062-1.52,1.953-1.66c1.102-0.117,1.152,0.926,1.207,1.785
		c0.051,1.105-0.57,2.207-1.137,3.141c-0.348,0.66-0.91,1.07-1.242,1.688c-0.352,1.02,0.629,1.848,1.277,2.406
		c1.324,1.082,3.141,1.59,4.758,1.152c0.777-0.195,1.414-0.742,2.004-1.254c0.434-0.418,0.867-0.848,1.27-1.285
		c0.109-0.16,0.504-0.324,0.781-0.254c0.543,0.27,1.441,0.734,2.699,0.504c1.261-0.238,1.608-0.566,2.097-0.938
		c0.824-0.707,1.426-1.492,1.879-2.172c0.469-0.695,0.875-1.539,1.148-2.23c0.75-1.852,1.02-3.152,1.41-4.789
		c0.211-0.879,0.383-1.195,0.539-1.559c0.094-0.219,0.391-0.367,0.621-0.469c0.422-0.172,0.891-0.367,1.34-0.066
		c0.465,0.395,0.504,1.082,0.441,1.621c-0.074,0.59-0.168,1.32-0.062,1.984c0.195,1.645,1.125,2.82,2.406,3.281
		c0.66,0.223,1.574,0.094,2.121-0.184c0.586-0.355,1.078-0.855,1.469-1.324c0.613-0.789,1.777-2.762,2.219-3.699
		c0.645-1.383,1.426-2.887,1.613-4.395C170.05,57.625,170.042,57.449,169.945,57.363z M77.95,93.522
		c-0.605-0.039-0.711-0.636-0.73-0.965c-0.02-0.288-0.02-0.858,0.039-1.203c0.086-0.477,0.332-1.141,0.473-1.359
		c0.32-0.527,0.711-0.93,1.34-0.785c0.348,0.09,0.488,0.398,0.508,0.723c0.008,0.496-0.066,1.004-0.242,1.473
		c-0.18,0.53-0.352,0.956-0.793,1.647C78.407,93.207,78.215,93.507,77.95,93.522z M11.762,110.527
		c0.004,0.542-0.078,1.269-0.141,1.843c-0.07,0.411-0.137,0.617-0.242,0.974c-0.172,0.53-0.422,1.019-0.77,1.441
		c-0.32,0.269-0.672,0.53-1.133,0.472c-0.793-0.188-1.148-1.409-1.395-2c-0.59-1.479-1.066-2.929-1.539-4.512
		c-0.441-1.512-0.711-3.25-0.723-3.968c0.012-1.966,0.164-3.625,1.117-5.403c0.363-0.762,1.293-1.68,2.238-1.203
		c1.148,0.923,1.547,2.595,1.906,4.091C11.715,105.05,11.762,107.796,11.762,110.527z M9.567,122.766
		c-0.012,0.578-0.039,1.155-0.223,1.757c-0.109,0.406-0.391,1.364-0.504,1.715c-0.578,1.691-1.277,3.383-2.656,4.891
		c-0.293,0.267-0.945,0.793-1.668,0.642c-0.688-0.22-0.891-0.938-0.836-1.629c0.086-1.426,0.457-2.778,0.957-4.172
		c0.559-1.341,1.297-2.536,2-3.716c0.48-0.804,1.27-1.637,2.105-1.371C9.461,121.16,9.547,122.09,9.567,122.766z M109.762,71.242
		c1.277-2.289,2.613-4.352,4.098-6.387c0.223-0.258,0.41-0.566,0.645-0.836c0.555-0.652,1.07-1.426,1.594-2.078
		c0.523-0.699,1.305-1.438,1.309-2.477c0.035-0.441-0.18-0.902-0.574-1.137c-0.402-0.188-0.785-0.113-1.074,0.07
		c-0.738,0.566-1.395,1.234-1.953,1.945c-0.531,0.734-0.98,1.328-1.441,2.074c-1.023,1.539-1.945,3.188-2.789,4.867
		c-0.473,0.98-1.188,2.422-1.652,3.441c-0.418,1.082-0.91,2.133-1.379,3.207c-0.152,0.316-0.352,0.723-0.758,0.707
		c-0.27-0.031-0.316-1.395-0.52-2.348c-0.109-0.699-0.219-1.195-0.391-1.859c-0.223-1.008-0.566-2.172-1.355-2.832
		c-0.316-0.113-0.613-0.117-0.957,0.043c-0.223,0.117-0.387,0.215-0.562,0.371c-0.449,0.391-0.781,0.906-1.137,1.508
		c-0.457,0.824-0.906,1.793-1.25,2.719c-0.07,0.18-0.434,1.184-0.609,1.66c-0.164,0.426-0.254,1.109-0.805,1.18
		c-0.34-0.016-0.512-1.211-0.582-1.441c-0.312-1.148-0.754-2.312-1.355-3.352c-0.391-0.598-0.844-1.18-1.562-1.375
		c-0.926-0.051-1.438,0.73-1.871,1.395c-0.734,1.25-1.098,2.398-1.395,3.852c-3.219,13.18-4.098,15.336-6.727,18.797
		c-0.914,1.062-2.055,2.246-2.906,2.663c-0.457,0.199-0.812,0.312-1.16,0.32c-0.34-0.034-0.684-0.074-1.004-0.237
		c-0.336-0.22-0.871-0.583-0.809-0.934c0.105-0.555,0.637-0.966,1.012-1.445c0.652-0.841,1.254-1.809,1.543-2.848
		c0.141-0.551,0.211-1.078,0.121-1.641c-0.066-0.457-0.285-0.863-0.52-1.23c-0.211-0.285-0.562-0.523-0.957-0.645
		c-0.309-0.047-0.711-0.09-1.051-0.039c-1,0.207-1.902,0.77-2.582,1.762c-1.035,1.602-1.504,3.102-1.535,4.836
		c-0.012,0.203,0.02,0.468,0.051,0.792c0.043,0.375,0.078,0.724,0.16,1.227c0.051,0.395,0.148,0.739-0.074,1.137
		c-0.316,0.582-0.961,0.79-1.582,0.879c-0.25,0.016-0.59-0.047-0.754-0.117c-0.633-0.296-0.984-0.836-1.27-1.43
		c-0.336-0.957-0.305-1.461-0.418-2.429c-0.078-1.028-0.18-1.5-0.57-1.907c-0.156-0.121-0.371-0.222-0.625-0.195
		c-0.406,0.016-0.621,0.141-0.883,0.328c-0.375,0.297-0.727,0.68-0.961,1.141c-0.398,0.793-0.734,1.613-1.047,2.418
		c-0.281,0.695-0.602,1.653-0.898,2.462c-0.113,0.3-0.211,0.516-0.363,0.895c-0.328,0.651-0.66,1.636-1.52,1.734
		c-0.52-0.062-0.688-0.575-0.812-1.043c-0.23-0.989-0.25-1.961-0.422-2.945c-0.074-0.688-0.25-1.492-0.641-2.078
		c-0.281-0.388-0.672-0.547-1.113-0.551c-0.613-0.008-1.109,0.468-1.418,0.992c-0.199,0.28-0.352,0.569-0.527,0.851
		c-0.344,0.574-0.617,1.208-1.25,1.449c-0.254,0.172-0.562,0.079-0.926-0.116c-0.336-0.117-0.598-0.305-1.312-0.23
		c-0.512,0.085-0.652,0.206-0.996,0.534c-0.219,0.254-0.359,0.407-0.578,0.73c-0.703,0.938-0.906,1.595-1.34,2.68
		c-0.207,0.531-0.441,1.078-0.664,1.641c-0.316,0.774-0.734,1.978-1.285,2.324c-0.227,0.129-0.48,0.066-0.605-0.137
		c-0.301-0.284-0.402-0.879-0.434-1.159c-0.129-1.294-0.102-2.672-0.695-3.966c-0.207-0.422-0.398-0.589-0.855-0.691
		c-1.188-0.215-1.832,0.474-2.453,1.028c-0.137,0.141-0.223,0.222-0.309,0.343c-0.336,0.367-0.672,0.695-1.008,1.099
		c-0.277,0.292-0.621,0.468-0.992,0.496c-0.523,0.026-1.023-0.321-1.527-0.301c-0.602,0.085-1.027,0.57-1.266,1.21
		c-0.59,1.387-1.023,2.798-1.629,4.121c-0.379,0.816-0.676,1.766-1.613,1.891c-0.391,0.017-0.43-0.343-0.48-0.671
		c-0.117-0.746-0.309-1.478-0.461-2.224c-0.184-0.75-1.016-1.948-2.07-2.062c-0.633-0.035-1.316,0.161-1.832,0.478
		c-0.906,0.53-1.344,1.483-2.234,1.706c-0.238-0.011-0.328-0.18-0.344-0.422c-0.066-0.663,0.051-1.762,0.164-2.426
		c0.16-1.108,0.793-4.566,1.234-6.487c0.367-1.337,0.645-2.517,0.91-3.517c0.043-0.199,0.547-1.621,0.039-2.171
		c-0.336-0.215-0.77-0.203-1.039-0.074c-0.617,0.285-1.098,0.711-1.496,1.226c-0.34,0.434-0.676,1.391-0.848,2.161
		c-0.223,0.979-0.348,1.714-0.566,2.675c-0.262,1.396-1,8.16-1.172,9.216c-0.258,1.394-1.148,2.691-2.211,3.515
		c-0.512,0.341-1.125,0.391-1.672,0.427c-0.363,0.085-0.77,0.155-1.035,0.534c-0.227,0.333-0.27,0.914-0.246,1.094
		c0.02,0.185,0.16,0.594,0.32,0.731c0.328,0.269,0.664,0.55,0.949,0.815c0.387,0.388,0.527,0.984,0.59,1.531
		s0.125,1.113-0.176,1.887c-0.148,0.363-0.457,1.129-1.496,1.271c-0.398,0.07-0.77-0.165-1.055-0.403
		c-0.457-0.32-0.645-1.046-0.785-1.492c-0.223-0.879-0.164-1.699-0.082-2.55c0.074-0.95,0.75-1.974,0.129-2.899
		c-0.383-0.324-0.832-0.354-1.266-0.214c-0.773,0.172-1.324,0.651-1.887,1.125c-0.512,0.441-2.027,1.18-2.66,1.43
		c-0.383,0.125-0.582-0.07-0.547-0.508c0.02-0.212,0.031-0.462,0.078-0.712c0.117-0.788,0.176-1.519,0.27-2.343
		c0.125-1.301,0.211-2.587,0.27-3.872c0-1.359,0.082-2.289,0.012-3.969c-0.051-1.688-0.527-3.831-0.781-4.68
		c-0.461-1.214-1.039-2.254-1.789-3.203c-0.195-0.238-0.523-0.504-0.934-0.691c-0.52-0.242-1.09-0.305-1.738-0.176
		c-1.004,0.212-1.926,0.816-2.34,1.274c-1.031,1.151-1.855,2.405-2.395,4.188c-0.469,1.479-0.746,2.792-0.797,4.559
		c-0.031,0.722-0.035,1.362,0.012,2.258c0.059,0.828,0.164,1.44,0.316,2.449c0.312,1.444,0.605,2.897,0.875,3.73
		c0.062,0.183,0.133,0.445,0.219,0.695c0.273,0.862,0.527,1.688,0.797,2.522c0.312,0.853,0.633,1.633,0.805,2.47
		c0.082,0.273,0.125,0.472,0.074,0.78c-0.074,0.758-0.609,1.57-1.066,2.161c-1.094,1.347-2,2.871-2.984,4.351
		c-0.102,0.165-0.176,0.345-0.332,0.653c-1.621,2.875-2.711,6.026-2.68,9.155c0.023,0.676,0.109,1.309,0.289,1.949
		c0.137,0.449,0.441,0.949,0.805,1.312c0.426,0.367,1.016,0.484,1.539,0.449c1.555-0.266,2.566-1.348,3.57-2.352
		c0.664-0.797,1.316-1.66,1.867-2.551c1.219-2.202,2.203-4.438,3.133-6.714c0.172-0.441,0.512-0.488,0.629-0.372
		c0.535,0.531,1.031,1.427,1.656,2.255c0.273,0.339,0.605,0.722,1.102,0.659c0.328-0.062,0.91-0.229,1.02-0.737
		c0.016-0.184-0.02-0.567-0.41-1.059c-1.012-1.208-1.883-2.528-2.652-3.946c-0.379-0.554-0.316-1.308-0.297-1.75
		c0.066-0.688,0.164-1.25,0.27-2.008c0.109-1.03,0.152-1.655,0.566-2.828c0.215-0.581,0.395-0.827,1.277-1.297
		c0.543-0.296,1.984-1.046,2.598-1.07c0.402,0.008,0.273,0.481,0.266,0.859c-0.047,1.465,0.211,2.544,0.473,3.137
		c0.148,0.356,0.281,0.641,0.621,1.129c0.602,0.837,2.047,1.246,2.629,1.224c0.402,0.026,0.953-0.07,1.363-0.239
		c0.434-0.184,0.734-0.348,1.098-0.613c0.301-0.276,0.691-0.651,0.914-0.96c0.793-1.032,1.074-1.962,1.035-3.356l-0.098-1.305
		c-0.066-0.766-0.297-1.534,0.188-2.254c0.199-0.293,0.918-1.262,1.426-1.206c0.316,0.069,0.398,0.434,0.5,0.722
		c0.07,1.142,0.152,2.27,0.402,3.407c0.066,0.378,0.16,0.636,0.25,0.987c0.141,0.422,0.305,1.102,0.961,1.277
		c0.254,0.032,0.664,0.066,0.973-0.081c0.547-0.294,0.617-1.091,0.648-1.383c0.07-0.97-0.172-1.992-0.227-2.985
		c-0.016-0.23-0.125-2.203-0.066-2.89c0.039-0.57,0.281-1.074,0.543-1.392c0,0,0.73-0.979,1.594-1.229
		c0.305-0.083,0.492-0.016,0.754,0.055c1.234,0.512,1.195,2.133,1.316,3.222c0.016,1.062,0.102,2.133,0.359,3.208
		c0,0,0.152,0.523,0.664,0.851c0.508,0.328,1.09,0.095,1.406-0.159c0.309-0.25,0.535-0.621,0.535-0.621
		c0.598-1.176,1.918-4.216,2.055-4.497c0.121-0.312,0.301-0.745,0.441-1.073c0.277-0.68,0.523-1.146,0.863-1.337
		c0.316-0.176,0.551-0.155,0.551-0.155c0.332,0.104,0.441,0.453,0.523,0.78c0.078,0.805,0.148,1.637,0.23,2.453
		c0.055,0.68-0.121,1.782,0.602,2.117c0.316,0.074,0.742,0.074,1.094-0.151c0.453-0.27,0.785-0.816,0.906-1.36
		c0.117-1.019-0.012-2.136-0.121-3.113c-0.121-1.292-0.133-2.703,0.492-3.847c0.25-0.387,0.562-0.508,0.832-0.649
		c0.223-0.07,0.434-0.137,0.652-0.03c0.551,0.441,0.566,1.301,0.75,1.952c0.074,0.512,0.16,0.728,0.242,1.242
		c0.094,0.395,0.148,1.012,0.273,1.449c0.102,0.36,0.281,0.907,0.543,1.301c0.273,0.391,0.57,0.57,0.961,0.703
		c0.684,0.165,1.223-0.199,1.637-0.57c0.16-0.176,0.367-0.456,0.523-0.761c0.516-0.97,0.703-1.953,1.152-2.931
		c0.402-1.051,0.641-2.343,1.387-3.147c0.199-0.228,0.301-0.25,0.301-0.25c0.18-0.028,0.266,0.003,0.414,0.074
		c0.188,0.144,0.324,0.456,0.32,0.722c0.027,1.004-0.012,1.962,0.039,2.957c0.039,0.406,0.25,1.023,0.762,1.239
		c0.352,0.155,0.734,0.237,1.105,0.026c0.562-0.297,0.793-1.102,0.828-1.569c0.055-1.364-0.074-2.489,0.047-3.97
		c0.039-0.434,0.039-0.867,0.199-1.276c0.32-0.716,0.609-1.72,1.566-1.79c0.289,0.028,0.535,0.117,0.652,0.426
		c0.391,0.841,0.402,1.739,0.543,2.895c0.098,0.793,0.367,1.418,0.742,2.087c0.367,0.589,1.105,0.917,1.547,0.96
		c0.281,0.004,0.672-0.027,1.004-0.21c0.781-0.583,1.266-1.419,1.734-2.353c0.484-0.941,0.855-1.952,1.211-2.93
		c0.188-0.621,0.453-1.367,0.957-1.796c0.098-0.121,0.328-0.212,0.488-0.117c0.246,0.171,0.293,0.401,0.355,0.589
		c0.266,1.099,0.336,2.5,1.16,3.302c0.441,0.543,1.242,0.69,1.898,0.628c0,0,0.566-0.141,0.895-0.352
		c0.324-0.211,0.766-0.574,1.086-0.945c0.434-0.496,0.664-0.905,1.168-1.371c0.207-0.21,0.379-0.324,0.512-0.379
		c0.117-0.101,0.379-0.121,0.512-0.074c0.52,0.114,0.977,0.391,1.379,0.496c0.77,0.195,1.359,0.273,2.043,0.234
		c0.863-0.058,1.727-0.41,2.609-1.105c2.539-1.875,3.949-3.698,5.215-5.938c1.488-2.328,2.969-7.964,3.93-12.171
		c0.254-1.098,0.484-2.164,0.871-3.168c0.266-0.746,0.484-1.816,1.188-1.879c0.363,0,0.684,0.48,0.91,0.812
		c0.449,0.707,0.906,1.605,1.109,2.141c0.566,1.438,0.848,2.297,1.102,3.746c0.273,1.75,0.051,3.492,0.051,3.492
		c-0.098,1.41-0.316,2.836-0.375,4.262c-0.023,0.988-0.117,2.211,0.738,2.96c0.324,0.274,1-0.077,1.398-0.379
		c0.398-0.296,0.758-1.121,0.852-1.898c0.094-0.895,0.148-2.039,0.109-2.84c-0.016-0.695-0.086-2.387-0.125-3.012
		c-0.055-0.672-0.238-2.848-0.297-3.34c-0.07-0.672-0.16-1.266-0.047-1.66c0.359-1.457,0.824-2.766,1.492-4.191
		c0.246-0.527,0.41-1.168,1.059-1.309c0.77,0.023,1.316,1.297,1.461,1.715c0.676,1.672,0.965,2.883,0.953,5.383
		c-0.129,0.594-0.305,1.215-0.43,1.816c-0.211,0.902-0.371,1.777-0.449,2.699c-0.027,0.598-0.051,1.09-0.051,1.684
		c0.012,0.25,0.078,1.281,0.105,1.5c0.062,0.441,0.117,0.809,0.379,1.152c0.145,0.176,0.355,0.312,0.57,0.309
		c0.578-0.086,1.055-0.371,1.32-0.828c0.457-0.824,0.68-1.707,0.812-2.582c0.121-1.055,0.203-1.617,0.121-3.156
		c-0.02-0.672-0.039-1.195-0.105-1.848c-0.066-0.5-0.055-0.895-0.074-1.246c0.02-1.379,0.734-2.789,1.266-4.105
		C107.946,74.253,109.004,72.585,109.762,71.242"/>
</g>
</svg>
