<?xml version="1.0" encoding="utf-8"?>
<!-- Generator: Adobe Illustrator 16.0.0, SVG Export Plug-In . SVG Version: 6.00 Build 0)  -->
<!DOCTYPE svg PUBLIC "-//W3C//DTD SVG 1.1//EN" "http://www.w3.org/Graphics/SVG/1.1/DTD/svg11.dtd">
<svg version="1.1" id="Layer_1" xmlns="http://www.w3.org/2000/svg" xmlns:xlink="http://www.w3.org/1999/xlink" x="0px" y="0px"
	 width="260.736px" height="95.775px" viewBox="0 0 260.736 95.775" enable-background="new 0 0 260.736 95.775"
	 xml:space="preserve">
<path fill="#DD3445" d="M236.331,21.037c-4.8,0-7.069,4.045-6.903,6.063c0.418,2.189,0.418,3.282,1.767,4.122
	c1.514,0.76,1.514,3.62,0.337,4.041c-0.337,0.256-0.755,1.598-0.59,2.022c0,1.342,0.253,1.595,2.357,1.342
	c3.364,0,9.424-7.15,9.424-11.696C242.722,21.037,236.331,21.037,236.331,21.037 M232.205,57.231l12.287-9.933
	c0,0,0.253,9.593-4.039,13.3c-1.852,1.766-3.702,2.606-3.79,1.092C236.331,60.173,236.331,57.231,232.205,57.231z M197.275,77.767
	c0,0-3.618,5.806-8.161,8.75c-2.693,1.685-4.378-0.335-1.935-2.357C188.44,82.562,193.657,77.767,197.275,77.767z M209.901,72.211
	c2.862-0.757,15.486-10.185,15.486-10.185c-0.168,3.537-0.755,11.699,9.174,11.699c16.242,0,19.86-19.443,18.597-24.66
	c-0.503-4.374,1.264-6.482,4.045-6.482c3.028,0,3.533-1.681,3.533-4.457c0-3.115-4.211-5.303-8.584-3.284
	c-9.764,4.039-35.686,25.331-35.686,25.331c6.985-9.929,7.743-11.782,7.743-13.379c0-1.767-0.507-3.703-3.114-3.703
	c-4.799,0-6.229,2.354-8.584,6.23c-2.778,4.961-6.228,8.584-8.163,8.584c-2.357,0-2.528,0-2.528-2.949
	c0.421-5.891,9.006-9.929,14.224-11.865c3.874-1.431,3.451-2.188,3.451-3.703c0-2.102-1.178-2.526-3.703-2.274
	c-7.405,0.172-26.93,10.521-27.52,23.485c0,4.457,3.2,7.404,7.323,7.404c4.457,0,8.753-3.28,8.753-3.28
	c-0.34,2.019-2.528,4.709-2.528,4.709c-22.639,5.221-24.826,16.75-24.826,20.37c0.169,4.291,1.599,5.974,5.725,5.974
	c14.557,0,27.015-23.397,27.015-23.397L209.901,72.211z M159.74,78.523c0,0-1.179,4.544-7.151,7.993
	c-2.777,1.432-4.126-0.504-2.022-2.357C151.914,82.562,156.375,78.523,159.74,78.523z M141.311,37.788
	c-13.299,1.767-20.956,15.402-20.956,23.651c0,6.144,3.533,10.434,10.521,10.434c16.072,0,21.713-25.752,21.713-25.752
	c2.188,1.179,8.835,1.179,8.835,1.179c-4.458,3.621-8.498,9.424-8.498,13.721c0,4.544,3.029,7.319,7.07,7.319
	c4.29,0,9.006-3.283,9.006-3.283c-0.674,2.274-2.696,4.545-2.696,4.545c-24.152,5.806-27.183,18.179-27.183,20.367
	c0,2.949,3.03,5.303,6.985,5.303c13.214,0,27.437-21.041,27.437-21.041c9.93-2.357,13.635-12.033,13.635-12.203
	c0-1.428-1.347-2.271-3.031-0.588c-3.789,3.029-5.132,3.029-5.132,3.029c7.404-8.924,12.286-20.115,12.286-21.885
	c0-1.681-0.59-3.955-3.452-3.955c-4.458,0-8.413,7.326-10.688,11.027c-3.029,4.879-6.395,9.426-8.835,9.426
	c-2.022,0-2.359,0-2.359-2.942c0-4.124,8.837-10.693,12.202-12.374c3.622-1.77,3.622-2.358,3.622-3.537
	c0-2.44-1.097-2.942-3.622-2.942c-2.186,0-6.396,1.85-6.396,1.85c-12.201,5.891-21.037,0.419-21.037,0.419
	c-3.115,0.673-5.303,3.623-5.303,3.623c-0.253,10.012-8.078,16.996-9.848,16.747c-1.431-0.169-2.439,0.675-2.439-3.201
	c0-7.91,9.424-12.958,10.184-13.545c1.092-0.594,1.851,0.588,2.104-2.275C145.434,37.536,141.311,37.788,141.311,37.788z
	 M57.065,54.956c0,0,0.671-5.891,2.859-8.162c4.045-4.799,5.725-3.703,3.033,1.597C62.113,49.991,61.357,52.181,57.065,54.956z
	 M111.852,43.429c0,0,4.966-12.711,11.784-19.612c5.725-6.144,6.983-4.125,3.702,1.265
	C124.225,30.382,116.229,41.995,111.852,43.429z M47.556,59.755c-4.211,0.844-5.475,1.684-5.475,4.968
	c0.341,3.952,7.492,1.259,7.492,1.259c0,1.853,2.358,4.546,8.162,4.546c7.913,0,15.991-6.735,15.991-6.735
	c0,2.189,4.462,6.735,9.428,6.735c8.247,0,16.916-6.735,16.916-6.735c0,4.042,3.955,8.08,8.082,8.08
	c11.697,0,10.436-12.117,10.436-12.117c-9.344,2.945-7.658-4.799-7.658-4.799c17.082-14.054,30.211-34.672,30.211-43.343
	c0-3.703-3.03-7.069-7.994-4.208c-28.028,15.655-33.076,45.784-33.076,45.784c-3.199,3.533-8.332,6.144-11.953,6.144
	c-3.533,0-3.533-3.789-3.533-3.789c15.486-12.115,26.934-31.727,26.934-38.289c0-3.955-3.284-6.229-8.079-3.955
	c-24.408,9.76-30.468,41.656-30.468,41.656c-11.192,9.767-13.635,5.643-13.635,5.643c8.417-4.294,13.046-12.626,13.046-18.939
	c0-3.872-2.693-6.818-6.48-6.14C48.396,39.555,47.556,59.755,47.556,59.755z M32.573,41.241c1.77,4.035-0.505,9.678-1.768,11.948
	c-1.345,1.767-4.373,7.409-4.373,15.485c0,8.588,4.373,11.446,10.77,11.446c7.07,0,6.65-4.376,6.65-4.376
	c-4.796-0.339-4.63-9.256-1.771-17.338c3.623-11.361,0.341-18.431,0.341-18.431c12.369-4.965,36.44-23.312,36.44-33.663
	C78.863,2.354,75.916,0,73.559,0c-2.943,0-5.636,1.093-9.59,6.565C43.345,35.011,35.435,35.769,35.435,35.769L32.573,41.241z
	 M7.075,45.445c5.636,0,8.751-4.878,10.854-7.319c1.181-1.265,4.966-6.144,6.736-7.744c1.767-1.515,3.699-0.671,2.018,1.6
	c-1.262,2.524-4.796,9.425-13.721,17.083C-0.753,60.173,0.342,63.205,0.001,66.319c0,1.011-0.252,6.059,5.895,6.059
	c7.826,0,13.214-10.182,16.832-15.655c0.167-0.927,14.474-27.35,15.65-28.868c1.097-1.594,8.925-13.041,8.925-14.054
	c0-0.753,0.504-2.776-3.031-2.776c-3.871,0-6.482,3.115-10.182,5.805c-3.874,2.361-6.818,4.207-14.392,7.996
	C7.409,30.97,1.519,35.263,1.519,40.567C1.519,45.954,7.075,45.445,7.075,45.445z M83.995,45.276c0,0,4.464-11.779,11.11-17.753
	c6.229-5.978,7.155-4.21,3.789,1.179C95.779,33.833,88.71,43.765,83.995,45.276z"/>
</svg>
