<?xml version="1.0" encoding="utf-8"?>
<!-- Generator: Adobe Illustrator 16.0.0, SVG Export Plug-In . SVG Version: 6.00 Build 0)  -->
<!DOCTYPE svg PUBLIC "-//W3C//DTD SVG 1.1//EN" "http://www.w3.org/Graphics/SVG/1.1/DTD/svg11.dtd">
<svg version="1.1" id="Layer_1" xmlns="http://www.w3.org/2000/svg" xmlns:xlink="http://www.w3.org/1999/xlink" x="0px" y="0px"
	 width="175.748px" height="65.905px" viewBox="0 0 175.748 65.905" enable-background="new 0 0 175.748 65.905"
	 xml:space="preserve">
<g>
	<path fill-rule="evenodd" clip-rule="evenodd" fill="#FFFFFF" d="M173.276,25.733c-0.011-0.016-8.989-12.673-8.989-12.673
		l-0.062-0.087l-0.067-0.083c-4.836-5.911-7.335-7.286-15.725-8.671c-6.946-1.147-13.001-1.952-19.061-2.529
		C118.162,0.62,107.779,0,87.875,0C68.122,0,57,0.676,46.376,1.69c-6.058,0.577-12.115,1.382-19.059,2.529
		c-8.393,1.385-10.89,2.76-15.726,8.671l-0.067,0.083l-0.062,0.087L2.484,25.718C1.189,27.568,0,29.712,0,32.953
		c0,3.241,1.189,5.383,2.473,7.22c0.012,0.015,8.99,12.674,8.99,12.674l0.062,0.087l0.067,0.082
		c4.836,5.909,7.333,7.287,15.726,8.672c6.943,1.146,12.999,1.949,19.059,2.526C57,65.23,68.122,65.905,87.875,65.905
		c19.75,0,30.875-0.675,41.499-1.691c6.061-0.577,12.116-1.381,19.061-2.526c8.39-1.385,10.889-2.763,15.725-8.672l0.067-0.082
		l0.062-0.087l8.979-12.659c1.295-1.852,2.482-3.993,2.482-7.234C175.748,29.712,174.561,27.568,173.276,25.733L173.276,25.733z"/>
	<path fill-rule="evenodd" clip-rule="evenodd" fill="#E4221A" d="M129.08,4.769c6.514,0.622,12.56,1.46,18.849,2.5
		c7.582,1.251,9.452,2.221,13.835,7.581l8.979,12.659c1.031,1.471,1.914,3.016,1.914,5.445c0,2.428-0.883,3.974-1.914,5.446
		l-8.979,12.658c-4.383,5.358-6.253,6.327-13.835,7.581c-6.289,1.038-12.335,1.878-18.849,2.499
		c-10.811,1.034-21.793,1.678-41.206,1.678c-19.411,0-30.396-0.644-41.207-1.678c-6.515-0.621-12.559-1.461-18.849-2.499
		c-7.58-1.254-9.451-2.223-13.835-7.581l-8.98-12.658c-1.03-1.473-1.913-3.019-1.913-5.446c0-2.429,0.882-3.975,1.913-5.445
		l8.98-12.659c4.384-5.359,6.255-6.329,13.835-7.581c6.29-1.04,12.334-1.878,18.849-2.5c10.811-1.033,21.795-1.68,41.207-1.68
		C108.022,3.089,118.27,3.735,129.08,4.769L129.08,4.769L129.08,4.769z M45.335,12.051c-8.001,1.091-9.598,1.852-13.983,7.212
		l-5.74,8.097c-1.03,1.472-1.913,3.496-1.913,5.592c0,2.096,0.883,4.122,1.913,5.594l5.74,8.095
		c4.385,5.359,5.981,6.121,13.983,7.214c9.716,1.323,26.792,2.5,42.54,2.5c15.75,0,32.824-1.177,42.54-2.5
		c8.001-1.093,9.599-1.854,13.982-7.214l5.74-8.095c1.031-1.472,1.914-3.498,1.914-5.594c0-2.097-0.883-4.12-1.914-5.592
		l-5.74-8.097c-4.384-5.361-5.981-6.122-13.982-7.212c-9.904-1.351-26.233-2.502-42.54-2.502
		C72.126,9.549,55.051,10.727,45.335,12.051L45.335,12.051z"/>
	<path fill-rule="evenodd" clip-rule="evenodd" fill="#29358A" d="M47.674,42.712c0.312,0.584,0.419,0.936,0.478,1.482h8.667
		c-0.523-0.547-0.789-0.898-1.101-1.482l-6.323-11.612l6.565-8.85c0.437-0.589,0.85-1.095,1.298-1.484h-7.614
		c-0.172,0.545-0.354,0.896-0.791,1.484l-5.878,7.7l-0.01-7.7c0-0.589,0.078-0.939,0.312-1.484h-7.81
		c0.234,0.545,0.312,0.896,0.312,1.484v20.462c0,0.584-0.078,0.936-0.312,1.482h7.81c-0.235-0.547-0.312-0.898-0.312-1.482v-8.436
		L47.674,42.712L47.674,42.712z"/>
	<path fill-rule="evenodd" clip-rule="evenodd" fill="#29358A" d="M59.162,22.25c0-0.589-0.078-0.939-0.313-1.484h11.714
		c3.397,0,8.083,0.872,8.083,6.326c0,4.183-2.629,6.035-5.015,6.43l5.466,9.19c0.312,0.584,0.577,0.936,1.102,1.482h-8.825
		c-0.056-0.547-0.165-0.898-0.476-1.482l-4.553-7.42v7.42c0,0.584,0.078,0.936,0.312,1.482h-7.81
		c0.235-0.547,0.313-0.898,0.313-1.482V22.25L59.162,22.25L59.162,22.25z M66.347,31.426h2.538c1.64,0,2.772-0.839,2.772-2.716
		c0-1.873-1.132-2.711-2.772-2.711h-2.538V31.426L66.347,31.426z"/>
	<path fill-rule="evenodd" clip-rule="evenodd" fill="#29358A" d="M120.822,20.803v6.407c-0.548-0.236-0.898-0.312-1.483-0.312
		h-7.363v4.059h8.61v5.311c-0.545-0.233-0.897-0.312-1.483-0.312h-7.127v6.757c0,0.584,0.06,0.936,0.295,1.482h-7.811
		c0.233-0.547,0.312-0.898,0.312-1.482V22.25c0-0.589-0.079-0.939-0.312-1.484L120.822,20.803L120.822,20.803z"/>
	<path fill-rule="evenodd" clip-rule="evenodd" fill="#29358A" d="M122.462,20.803v6.407c0.546-0.236,0.898-0.312,1.483-0.312h4.864
		v15.815c0,0.584-0.061,0.936-0.295,1.482h7.73c-0.232-0.547-0.293-0.898-0.293-1.482V26.897h4.628c0.586,0,0.938,0.076,1.484,0.312
		v-6.407H122.462L122.462,20.803z"/>
	<path fill-rule="evenodd" clip-rule="evenodd" fill="#29358A" d="M90.538,34.549h-1.46l1.928-8.082l1.93,8.082H90.538
		L90.538,34.549L90.538,34.549z M94.12,39.509l0.762,3.203c0.155,0.584,0.169,0.936,0.079,1.482h8.2
		c-0.379-0.547-0.55-0.898-0.704-1.482l-5.889-20.488c-0.207-0.586-0.195-0.913-0.153-1.458h-9.998
		c0.042,0.545,0.056,0.872-0.152,1.458l-6.279,20.488c-0.155,0.584-0.326,0.936-0.705,1.482h7.772
		c-0.09-0.547-0.076-0.898,0.079-1.482l0.764-3.203H94.12L94.12,39.509z"/>
</g>
</svg>
