<?xml version="1.0" encoding="utf-8"?>
<!-- Generator: Adobe Illustrator 16.0.0, SVG Export Plug-In . SVG Version: 6.00 Build 0)  -->
<!DOCTYPE svg PUBLIC "-//W3C//DTD SVG 1.1//EN" "http://www.w3.org/Graphics/SVG/1.1/DTD/svg11.dtd">
<svg version="1.1" id="Layer_1" xmlns="http://www.w3.org/2000/svg" xmlns:xlink="http://www.w3.org/1999/xlink" x="0px" y="0px"
	 width="187.086px" height="160.715px" viewBox="0 0 187.086 160.715" enable-background="new 0 0 187.086 160.715"
	 xml:space="preserve">
<g>
	<path fill-rule="evenodd" clip-rule="evenodd" fill="#FFD500" d="M105.608,2.475c-0.088,0.707-0.619,0.884-1.414,0.442
		l-0.796-0.265c-0.177-0.088-0.354,0.088-0.265,0.442l0.354,0.265c0.088,0.088,0,0.354-0.266,0.619l-1.326-1.061l-0.265,0.265
		l-0.707-0.442l0.265,0.354c-0.089,0.442-0.442,0.53-0.973,0.265l-1.414-0.088c-0.089-0.53-0.089-0.973,0-1.415
		c0.177-0.442,0.354-0.707,0.707-0.795l0.442,0.354l-0.619,1.149l0.973-0.972l0.177,0.177c-0.088-0.531,0-0.796,0.265-0.884
		l0.354,0.265c-0.176-0.265-0.176-0.53,0-0.884C101.188,0.176,101.011,0,100.658,0c-0.177,0.442-0.53,0.619-0.884,0.619h-0.973
		c-0.884-0.177-1.326,0.177-1.414,0.884l-1.415,0.266l-1.414-0.177c-0.354,0.177-1.591,0.619-3.713,1.237
		c-1.591,0.442-2.652,0.972-3.094,1.679l-0.265-0.354l-0.619,1.061l-0.618-0.53l0.265-0.354L86.16,4.596l-0.265-0.265l-0.53,1.06
		c-0.708-0.353-1.326-0.441-2.034-0.265c-0.884,0.265-1.502,0.354-1.944,0.354c0,0.708-0.089,1.149-0.354,1.237l-1.592-0.265
		C79.176,6.63,79,6.984,78.823,7.69c-0.266-0.265-0.354-0.442-0.354-0.618c-0.795,0.088-1.591,0.353-2.387,0.884
		c-0.795,0.53-1.591,0.795-2.476,0.884c-0.442,0.354-1.414,0.884-2.917,1.591c-1.149,0.442-1.945,1.149-2.563,1.856l-0.354-0.619
		l-0.796,1.592c-0.265-0.089-0.354-0.266-0.265-0.531c-0.177,0-0.619,0.088-1.326,0.531l-1.061,0.618l-1.856,0.62l0.088,0.795
		c0.088,0.354,0,0.531-0.176,0.707c-0.266,0-0.354-0.176-0.442-0.53l-0.089-0.708l-0.442,1.061l-0.442-0.354
		c0.354,0.354,0.442,0.795,0.442,1.326c0,0.442-0.088,0.884-0.442,1.238c-0.973,0.354-1.768,0.176-2.21-0.354
		c0.177-0.531,0.442-0.619,0.707-0.442c0.354,0.176,0.62,0.176,0.796-0.089v-0.265c-0.177-0.265-0.442-0.265-0.884-0.265
		l-0.884,1.237c-0.266,0.619-0.442,1.15-0.442,1.415c-0.266-0.088-0.354-0.353-0.442-0.619l-0.088-0.884l-1.415,1.238
		c-0.619,0.53-1.149,1.061-1.326,1.591l0.354,0.265c0-0.619,0.088-0.884,0.177-0.972l0.354,0.265l0.088,1.149
		c0.089,0.442-0.088,0.796-0.177,0.973c-0.265-0.442-0.619-0.795-1.238-1.061c-0.707-0.265-1.149-0.177-1.415,0.176
		c0.619-0.176,0.796-0.088,0.708,0.354v-0.088h0.265c0.442,0.177,0.619,0.53,0.619,1.061v1.061l-2.034-1.237
		c-0.884-0.531-1.591-0.619-2.21-0.266l0.266,0.53l0.354,0.442c0.176,0.354,0.088,0.619-0.354,0.884l-0.266-0.177
		c0,0.354-0.265,0.53-0.619,0.795l-0.619,0.354c-0.265,0.176-0.353,0.265-0.265,0.53l-0.796-0.088L48.5,25.99l-0.088,0.088
		c5.658,0.53,11.492,1.591,17.503,3.182c5.658,1.503,11.935,3.625,18.83,6.365c7.691,3.006,11.669,4.597,12.111,4.773l11.581,4.598
		c6.63,2.563,12.642,4.685,18.034,6.188c4.773,1.326,9.371,2.299,13.879,2.917l-0.088,0.266l4.685,0.442l0.177-0.088l3.006,0.176
		l0.354,0.088c6.542,0.354,12.818-0.176,18.653-1.415l-0.531-1.944l-0.354-0.884c-0.884-2.918-2.563-6.012-4.861-9.106
		c-1.238-1.502-3.537-4.066-6.896-7.868l-0.972-0.176l-0.442-0.708c-0.441-0.619-1.061-1.415-2.033-2.299
		c-1.326-1.237-2.21-2.122-2.652-2.652l-0.176,0.354l-1.503-1.768l-0.178,0.442c0-0.619-0.265-0.884-0.884-0.884
		c-0.618,0-1.061-0.088-1.149-0.531c0.354-0.354,0.354-0.619,0-0.707c-0.441-0.177-0.619-0.266-0.795-0.354
		c0.088,0.177,0,0.354-0.266,0.531c-0.354-0.266-0.618-0.884-0.796-1.769c-0.088-0.707-0.441-1.148-1.061-1.148l-0.177,0.707
		c-0.619,0.177-0.884,0-0.884-0.442v-0.442c0-0.088-0.089-0.088-0.177,0l-0.266,0.354l-2.121-2.21l-0.266,0.265
		c-0.177-0.354-0.442-0.53-0.972-0.442c-0.442,0-0.708-0.265-0.796-0.884l-0.177,0.353l-1.415-1.149
		c0.089,0.177,0.089,0.442-0.177,0.619l-0.354,0.442l-0.354-0.265l-0.089-0.708c0-0.265,0.089-0.442,0.266-0.618l-0.53,0.088
		c0.088,0.266,0.088,0.53-0.089,0.884l-0.354,0.707c-0.795,0.089-1.591-0.441-2.033-1.591h-0.354l-0.973,0.177l-0.177,0.088
		l0.885,0.442c0,0.354,0.176,0.531,0.354,0.707l0.795,0.177c0.796,0.089,1.062,0.619,0.973,1.592
		c0.177,0.088,0.442-0.089,0.884-0.442h0.973l-0.265,0.619l-0.354-0.266c0.354,0.354,0.266,0.708-0.354,0.884l-0.354,0.089h0.53
		l0.354,0.266l-1.414,1.414c-0.265,0.266-0.707,0.266-1.237,0l-1.326-0.707l0.089,0.707c0.088,0.266,0,0.531-0.354,0.619
		c-0.529-0.265-0.884-0.619-0.972-1.237v-0.531c-0.178-0.088-0.442-0.088-0.796,0c-0.177,0.089-0.354,0-0.53-0.177
		c-0.354,0.177-0.796-0.088-1.238-0.707c-0.618-0.795-1.148-1.238-1.502-1.415l0.265-0.442l0.708,0.53l-0.178-1.415h-0.441
		c-0.619,0.088-0.884,0.177-1.062,0.354l-0.088,0.088l-1.592-1.149l0.708,0.884c-0.266-0.089-0.442,0.265-0.796,1.061
		c-0.177,0.796-0.442,1.149-0.796,0.973c-0.53,0.441-0.973,0.353-1.148-0.354l-0.619-1.591l-0.973,0.176l-0.884-0.265l-0.266,0.619
		l-0.265,0.354c-0.53,0.088-0.884,0-0.973-0.265l0.442-0.884c0.176-0.354,0-0.707-0.354-0.884l-0.797,1.68l-0.529-1.503
		c-0.089-0.442-0.442-0.795-0.884-0.884l0.529,1.061c0.266,0.442,0.177,0.796,0,1.061c-1.061-0.088-1.591-0.707-1.414-1.768
		c-0.53,0.088-0.796,0.177-0.884,0.442l-0.708-0.531h-0.972c-0.53-0.442-0.884-0.53-1.238-0.354c0.089,0.177,0,0.354-0.265,0.619
		l-0.354-0.266c0.088-0.972-0.266-1.326-0.973-1.149c-0.088-0.177-0.266-0.177-0.707-0.177c-0.265,0.088-0.442-0.089-0.354-0.619
		l-0.796-0.088l-0.884-0.266c-0.619-0.088-1.062,0.088-1.415,0.708l-1.06-1.149l-0.266,0.708l-0.885-0.354
		c-0.441-0.088-0.53-0.354-0.441-0.796l-0.53,0.708c-0.354,0.088-0.885-0.089-1.68-0.708l-0.707-0.707
		c-0.266,0.353-0.619,0.53-0.973,0.53l-1.149-0.177l-0.177,0.266l-0.53-0.707c0.177,0.441,0,0.795-0.442,1.237l-1.061-1.237
		l0.088,0.707c0.088,0.265,0,0.53-0.177,0.619c-0.619-0.354-0.884-0.795-0.884-1.415l-0.619,0.089c-0.265,0-0.442-0.089-0.619-0.354
		l0.265-0.53c-0.177,0.265-0.442,0.354-0.619,0.354l-0.353-0.707l0.619-0.265l-0.442-0.354l-0.442,0.973
		c-0.619,0-0.884-0.177-0.884-0.619c0.088-0.796,0.088-1.238,0-1.415l-0.177,1.945c-0.088,0.884-0.265,1.414-0.618,1.856
		l-0.796-1.149l-1.06,1.327c-0.177,0.088-0.354-0.089-0.354-0.442v-0.088c-0.177,0.265-0.531,0.177-0.973-0.177
		c-0.442-0.265-0.619-0.088-0.619,0.354L83.95,13.26c-0.265-0.354-0.619-0.442-1.061-0.177v0.354l0.972-0.089l0.266,0.53
		l-0.619,0.531l-0.442,0.442c-0.354,0.265-0.708,0.089-1.326-0.353l0.265-0.354l-0.972-0.53c-0.266,0.265-0.442,0.442-0.619,0.442
		c-0.265-0.266-0.442-0.442-0.354-0.619l-0.884,0.088c0,0.177-0.088,0.442-0.266,0.707l-1.149-0.795l-1.149-0.531l-0.088-0.707
		c-0.088-0.265,0-0.442,0.177-0.619c0.354,0.266,0.442,0.442,0.442,0.619l0.619-0.088l-0.088-0.619
		c0.707,0.176,1.326-0.089,1.768-0.708c0.619-0.884,1.15-1.414,1.415-1.502l1.415,1.326l0.796-0.972l0.353,0.442l0.089-0.442
		l0.353-1.326c0.531-0.088,0.796,0,0.973,0.265c0.088,0.442,0,0.708-0.177,0.884l0.531-0.354c-0.531-0.53-0.354-0.884,0.353-0.884
		c0.796,0,1.15-0.177,1.062-0.531l1.061,1.415c0.354,0.442,0.796,0.707,1.326,0.884L87.75,9.105c-0.176-0.707,0-1.238,0.442-1.591
		l1.326-1.061c0.177,0,0.354,0.265,0.442,0.707v0.177V6.718l0.442-0.707l0.708,0.884c0.619-0.531,0.973-0.354,1.061,0.354
		l0.088,0.619c0,0.177,0.088,0.089,0.266-0.177l-0.177-1.237l0.354-0.442c0.088-0.265,0.266-0.354,0.442-0.265
		c0.531,0.176,0.708,0.354,0.708,0.795c-0.089,0.354-0.266,0.619-0.531,0.707c0.708,0.442,1.149,0.266,1.326-0.531L95,4.95
		c0.442,0.354,0.707,0.707,0.796,1.149l0.089,1.591l0.884-0.795c0.265,0.177,0.354,0.354,0.354,0.619
		c0.088-0.266,0.266-0.177,0.441,0.353c0.178,0.354,0.266,0.442,0.266,0.177L97.387,7.16c0.354-0.265,0.707-0.442,0.884-0.53
		c0.265,0,0.53,0.088,0.972,0.354l-0.53,0.618l-0.354-0.265c0.089,0.53,0.177,0.796,0.442,0.884c0.266-0.265,0.441-0.354,0.53-0.354
		l-0.354-0.265l1.062-1.68l0.706,0.795c0-0.442,0-0.795,0.178-0.884c0.265,0.088,0.441,0.177,0.441,0.53l0.088,0.708l-0.618,0.265
		c0.265,0.088,0.354,0.265,0.354,0.53l0.089,0.708l0.265-0.354l0.53,0.088l0.089,0.088l-0.089-0.796
		c0.619,0,0.973-0.354,1.062-0.972l0.088-0.884V5.127c0.177,0.884,0.177,1.591,0,2.033l-0.972,1.238l0.353,0.354l1.326,0.088
		c0.442,0.088,0.707,0,0.707-0.619l1.326,1.415l0.354-0.354l0.354-0.088l-0.177-1.15l-0.354-0.354h0.354v0.354l0.706,0.531
		c0.266,0.088,0.354,0.265,0.266,0.442l-0.088,0.708l0.441-0.088c-0.177-0.089-0.265-0.266-0.177-0.442l0.177-0.708
		c0.884-0.884,2.122-0.619,3.714,0.53c0.265-0.088,0.441-0.088,0.706,0l0.707,0.442v0.531c0.089,0.265,0,0.354-0.088,0.442
		l-0.53,0.088c0.089,0.088,0.442,0.176,0.973,0.088l0.265-0.619c0.442,0.088,0.707,0.442,0.531,0.795
		c-0.089,0.531,0,0.884,0.265,1.062c0.354,0.088,0.795,0,1.061-0.354c0.354-0.442,0.619-0.619,1.061-0.619
		c0.266,0.265,0.354,0.53,0.354,0.707h2.21l-0.53,0.619c0.441,0.354,0.795,0.53,0.973,0.354l0.795-0.796
		c0.177,0.089,0.354,0.265,0.354,0.531l0.089,0.265l0.618-0.088h0.442l-0.53-0.53l1.237-2.298c0.177,0.265,0.354,0.354,0.53,0.354
		c0.089-0.089,0.354-0.089,0.53,0.088c0,0.176,0.442,0.354,1.326,0.354l0.177,0.088l-0.441-1.149c0.265,0,0.619,0.266,0.795,0.884
		l-0.176,0.266c0.529,0.088,0.707,0.354,0.529,0.884l0.973-0.088c0.177-0.088,0.266,0.088,0.354,0.442v0.089V11.58l0.354-0.442
		c0.088-0.177,0.265-0.265,0.441-0.265l0.442,0.619c0.265,0.265,0.53,0.354,1.061,0.088c0.442-0.177,0.707-0.088,0.795,0.266
		l-0.088-0.795c0-0.354,0.088-0.619,0.266-0.796l0.619,0.619c-0.178,0.354-0.178,0.619-0.178,0.707
		c0.707-0.265,0.973-0.088,0.885,0.442l-0.178,0.531l0.442,0.088l0.619-0.088l0.707-0.177c0.442-0.088,0.796,0.177,0.884,0.972
		l0.531-0.088v-0.354c-1.415-1.326-3.537-2.74-6.277-4.066c-2.387-1.238-4.685-2.122-6.896-2.829
		c-1.061-0.62-2.387-1.238-4.243-1.591c-2.21-0.53-3.624-0.973-4.243-1.149l0.354,0.266l-0.442,0.618
		c-0.354-0.176-0.441-0.442-0.441-0.618c-0.266,0.53-0.618,0.618-0.972,0.265c-0.354-0.354-0.531-0.442-0.619-0.354l-0.796,1.061
		l-0.796-1.414c-0.266-0.089-0.441,0-0.441,0.353c-0.089,0.265-0.178,0.531-0.354,0.531c-0.088-0.796-0.529-1.149-1.237-1.061
		C106.404,3.094,105.785,2.917,105.608,2.475L105.608,2.475z M100.569,5.834l0.442-0.707l-0.442-0.442l-0.354,0.265l-0.265-0.619
		l2.387,0.354v1.768l-0.619-1.68L100.569,5.834L100.569,5.834z M105.078,6.63c-0.177,0-0.354,0.088-0.53,0.354l-0.442-3.713
		L105.078,6.63L105.078,6.63z M106.404,6.453l-0.53-0.884h1.149c0.53,0,0.795-0.265,0.707-0.795c0.354,0.53,0.177,0.884-0.266,1.061
		C106.757,6.1,106.404,6.276,106.404,6.453L106.404,6.453z M96.326,6.011h0.266l-0.442,0.973L96.326,6.011L96.326,6.011z
		 M98.712,5.392V5.215l-0.088-0.708c0.618,0.266,0.884,0.708,0.796,1.238l-0.354-0.708L98.712,5.392L98.712,5.392z M98.536,5.834
		V6.1l-0.618-0.708V5.304L98.536,5.834L98.536,5.834z M97.829,5.127c-0.177-0.265-0.088-0.619,0.177-0.795
		C98.005,4.773,98.005,5.039,97.829,5.127L97.829,5.127z M108.702,5.922l0.708-0.088l-0.266,0.973L108.702,5.922L108.702,5.922z
		 M111,6.011h-0.354l-0.177-0.973h0.442L111,6.011L111,6.011z M112.503,7.16V6.63h0.354L112.503,7.16L112.503,7.16z M112.327,7.867
		l0.089-0.442l0.529,0.442c0.178,0.177,0.266,0.442,0.089,0.619l-0.177,0.354C112.503,8.575,112.327,8.221,112.327,7.867
		L112.327,7.867z M119.133,10.873l-0.618-0.795l-0.53,0.973l-0.178-2.122c0.442,0.088,0.884,0.442,1.326,1.061l0.442-0.442
		c0.088-0.177,0.177-0.265,0.088-0.442l1.326,1.061l0.354-0.442l0.266,0.354l-0.796,0.707l0.266,0.266
		c-0.177,0-0.354,0.088-0.619,0.353l0.088,0.354l-0.441-1.237L119.133,10.873L119.133,10.873z M115.244,11.05l-0.618,0.088
		l0.529-0.707L115.244,11.05L115.244,11.05z M141.676,23.249h0.707c0.089,0.531,0,0.884-0.266,1.061
		c-0.354,0.177-0.618,0.088-0.707-0.354c-0.088-0.53-0.177-0.796-0.354-0.884L141.676,23.249L141.676,23.249z M136.018,21.57
		c0,0.176,0.089,0.265,0.177,0.442l0.442,0.354l-0.795,0.707L136.018,21.57L136.018,21.57z M138.14,26.079l-1.503-0.708l1.503,0.177
		V26.079L138.14,26.079z M132.924,25.282l0.265-0.972c0.089,0.177,0.354,0.177,0.885,0.177L132.924,25.282L132.924,25.282z
		 M138.936,28.289l-0.531,0.884l-1.149-0.884c-0.441-0.354-0.707-0.708-0.618-1.238l1.68,1.856L138.936,28.289L138.936,28.289z
		 M140.88,26.962l-0.089-0.972c0.531,0.354,0.531,0.618,0.178,0.884L140.88,26.962l0.089,0.53l-0.354-0.265
		C140.527,27.228,140.615,27.05,140.88,26.962L140.88,26.962z M130.625,27.05l0.177-1.856c0.178,0.088,0.266,0.265,0.266,0.53
		l0.088,0.62L130.625,27.05L130.625,27.05z M139.731,38.809c0-0.177,0-0.354-0.177-0.531l-0.53-0.354
		c-0.177,0.442-0.177,0.973-0.088,1.591c0.088,0.442,0,0.708-0.266,0.973v-0.707l-0.177-0.708c-0.089-0.531,0.088-0.884,0.53-1.149
		c-0.53-0.177-0.707-0.531-0.619-0.884l0.089-0.619c0.177,0.354,0.354,0.708,0.707,0.884l1.149,1.415L139.731,38.809L139.731,38.809
		z M132.041,33.593l1.237-1.68l-0.266,1.503L132.041,33.593L132.041,33.593z M115.155,21.835l-0.618-1.326l1.061,0.795
		L115.155,21.835L115.155,21.835z M151.046,38.897l-0.265-1.945l0.53-0.088l0.266,1.856L151.046,38.897L151.046,38.897z
		 M70.07,15.735L70.424,16c0.53,0,0.795-0.53,0.884-1.502c0.088-0.796,0.442-1.061,0.973-0.884l-0.619,0.619
		c-0.266,0.177-0.266,0.442-0.088,0.796c0.707,0.265,1.149,0.088,1.237-0.708c0.177-1.061,0.442-1.591,0.708-1.768v0.354
		c0.795-0.265,1.591-0.265,2.21,0c0.972,0.531,1.591,0.708,1.945,0.796c0.53,0.354,0.795,0.884,0.707,1.326l-0.354-0.442
		c-0.53,0.088-0.619,0.265-0.354,0.618c0.265,0.354,0.177,0.619-0.177,0.708l-0.177,0.354l-0.088-0.442
		c-0.176-0.531-0.53-0.973-1.061-1.061c-0.177,0.088-0.266,0.354-0.266,0.619l0.089,0.707l-0.354-0.354
		c0,0.442-0.177,0.619-0.442,0.53c-0.265,0-0.353,0.088-0.353,0.442v-0.265c-1.061,0-1.768,0.354-2.122,1.238
		c0-0.266-0.088-0.442-0.354-0.619l-0.442,1.061v0.265V18.21c-0.176-0.265-0.265-0.442-0.353-0.442
		c-0.62,1.15-1.591,2.034-3.094,2.476l-2.21,0.265c0.265-0.265,0.354-0.619,0.177-1.061s-0.177-0.796,0.177-1.15l0.354,0.354
		l0.619-0.972c0.265-0.442,0.265-0.884,0.088-1.326c0.176-0.354,0.354-0.442,0.707-0.442l0.795,0.354l0.708,0.088
		C70.07,16.354,70.159,16.089,70.07,15.735L70.07,15.735z M77.762,9.636l0.442,1.502c-0.354,0.088-0.619-0.088-0.707-0.53
		C77.497,10.254,77.585,9.9,77.762,9.636L77.762,9.636z M91.729,5.746l-0.354-0.089C91.375,5.392,91.552,5.392,91.729,5.746
		L91.729,5.746z M82.978,8.751l0.353,0.265c-0.53,0.088-0.795,0.266-0.884,0.354l-0.265-0.707v0.088l0.442,0.354L82.978,8.751
		L65.65,19.183c0.265,0.354,0.177,0.619-0.088,0.796l0.619,0.53l-1.149,0.177l-0.089-0.266c-0.707-0.177-1.326,0-1.945,0.442
		c-0.618,0.53-0.972,1.238-1.149,2.034l-0.265-0.266c-0.265,0.177-0.354,0.354-0.265,0.708l0.088,0.795l-0.884-1.415l-0.441,0.973
		c-0.265,0-0.442-0.265-0.442-0.707v-1.061c0,0.531,0.177,0.795,0.354,0.884c0.973-0.619,1.415-1.237,1.68-1.768l-0.354-0.177
		l0.973-0.619c0.619-0.442,1.061-0.884,1.237-1.237l0.266,0.176l0.618,0.266c0.708,0.177,0.884-0.177,0.708-0.884l0.53,0.619
		L82.978,8.751L82.978,8.751z"/>
	<path fill-rule="evenodd" clip-rule="evenodd" fill="#FFD500" d="M95.619,13.878l1.149-1.414l-0.265,0.265l-0.266,0.354
		c-0.266,0.265-0.442,0.177-0.707-0.177l0.088,0.708V13.878L95.619,13.878z"/>
	<path fill-rule="evenodd" clip-rule="evenodd" fill="#FFD500" d="M97.741,13.525l0.088-0.177l-0.441-0.354
		C97.475,13.171,97.563,13.348,97.741,13.525L97.741,13.525z"/>
	<polygon fill-rule="evenodd" clip-rule="evenodd" fill="#FFD500" points="107.907,9.636 108.171,9.636 107.818,9.636 
		107.907,9.636 	"/>
	<polygon fill-rule="evenodd" clip-rule="evenodd" fill="#FFD500" points="125.056,10.52 125.145,10.608 125.234,10.52 
		125.056,10.52 	"/>
	<path fill-rule="evenodd" clip-rule="evenodd" fill="#FFD500" d="M120.725,12.553c-0.354,0.177-0.53,0.442-0.619,0.795
		c0.177,0,0.354-0.088,0.619-0.442V12.553L120.725,12.553z"/>
	<path fill-rule="evenodd" clip-rule="evenodd" fill="#FFD500" d="M117.366,18.918l0.177-0.62
		C117.366,18.564,117.277,18.829,117.366,18.918L117.366,18.918z"/>
	<path fill-rule="evenodd" clip-rule="evenodd" fill="#E20613" d="M108.437,44.997l-11.581-4.598
		c-0.441-0.176-4.419-1.768-12.111-4.773c-6.895-2.74-13.171-4.862-18.83-6.365c-6.011-1.591-11.846-2.652-17.503-3.182
		l-2.829-0.266h-0.177l-1.502-0.089h-3.625c-7.78,0.089-15.117,1.326-21.835,3.802l-2.21,0.884
		c-3.006,1.414-4.951,2.917-5.746,4.596l-4.332,11.05L0.499,72.666l-0.354,4.773c-0.266,5.659-0.177,11.228,0.354,16.708
		l3.89,20.863l0.795,2.918c0.619,1.68,2.299,3.447,5.127,5.303l2.034,1.15c6.011,3.094,12.553,5.215,19.713,6.275l-3.094-4.596
		c-1.149-1.68-1.944-3.271-2.563-4.686l-0.353-0.354h-0.531c0.531,1.414,1.237,2.828,2.21,4.332l3.183,4.508
		c-4.773-0.619-9.636-2.121-14.675-4.332c-6.1-2.564-9.547-5.303-10.52-8.133l0.354-0.354l1.945-1.857
		c0.795-0.617,1.768-1.148,3.005-1.678l2.122-0.885l8.045-0.707l-2.475-0.354l2.475,0.354h0.619v0.088l0.884,0.088l-0.266-0.617
		l0.266,0.617l21.481,2.389c37.311,5.43,60.446,14.094,76.998,19.801c9.901,2.74,19.184,4.066,27.759,3.891
		c6.365-0.09,12.376-1.062,17.945-2.742c2.475-0.707,4.597-1.68,6.365-2.828c1.679-1.061,2.74-2.033,3.182-3.006
		c0-0.088,0-0.088,0.089-0.088c5.834-12.906,9.282-26.256,10.254-40.311l0.178-3.096c0.265-5.48,0.177-10.784-0.266-16
		l-4.332-23.161l-0.441-1.591c-0.354-1.061-1.238-2.21-2.829-3.536c-1.68-1.415-3.713-2.564-6.012-3.625
		c-6.011-2.74-12.729-4.508-19.979-5.304l0.442,0.708l0.972,0.176c3.359,3.801,5.658,6.365,6.896,7.868
		c2.298,3.094,3.978,6.188,4.861,9.106l0.354,0.884l0.531,1.944c-5.835,1.238-12.111,1.768-18.653,1.415l-0.354-0.088l-3.183-0.088
		l-4.685-0.442l-0.973-0.088l0.973,0.088l0.088-0.266c-4.508-0.618-9.105-1.591-13.879-2.917
		C121.079,49.681,115.067,47.56,108.437,44.997L108.437,44.997z M162.892,42.433c-2.21-3.094-4.773-6.012-7.69-8.752
		c4.862,0.708,9.724,1.945,14.763,3.89c6.807,2.652,10.696,5.658,11.669,9.017c-1.414,2.298-4.95,4.332-10.696,6.011l-3.183,0.884
		C167.401,50.124,165.81,46.411,162.892,42.433L162.892,42.433z M75.816,63.561l0.619,0.088l-0.177,0.795l-7.072,25.371
		c-0.619,2.123-1.326,3.537-2.122,4.42c-1.061,1.062-2.475,1.504-4.332,1.416l-0.795-0.266l-0.266-1.414
		c-0.354-3.094,0.088-7.25,1.149-12.465c1.061-5.039,2.917-9.371,5.569-12.907C70.954,65.063,73.43,63.384,75.816,63.561
		L75.816,63.561z M159.887,114.125c0.707,0,1.325,0.355,1.768,0.885c0.354,0.619,0.442,1.326,0.266,2.033s-0.619,1.414-1.415,1.945
		c-0.707,0.441-1.414,0.707-2.21,0.619c-0.796,0-1.414-0.354-1.768-0.885c-0.354-0.619-0.531-1.326-0.266-2.033
		c0.177-0.795,0.619-1.414,1.326-1.855C158.384,114.303,159.091,114.038,159.887,114.125L159.887,114.125z"/>
	<path fill-rule="evenodd" clip-rule="evenodd" fill="#CC3D2B" d="M155.202,33.681c2.917,2.74,5.48,5.658,7.69,8.752
		c2.918,3.978,4.509,7.691,4.862,11.05l3.183-0.884c5.746-1.68,9.282-3.713,10.696-6.011c-0.973-3.359-4.862-6.365-11.669-9.017
		C164.925,35.625,160.064,34.388,155.202,33.681L155.202,33.681z"/>
	<path fill-rule="evenodd" clip-rule="evenodd" fill="#E30D1B" d="M76.436,63.649l-0.619-0.088
		c-2.387-0.177-4.862,1.502-7.425,5.039c-2.652,3.536-4.509,7.868-5.569,12.907c-1.061,5.215-1.503,9.371-1.149,12.465l0.266,1.414
		l0.795,0.266c1.856,0.088,3.271-0.354,4.332-1.416c0.795-0.883,1.503-2.297,2.122-4.42l7.072-25.371L76.436,63.649L76.436,63.649z"
		/>
	<path fill-rule="evenodd" clip-rule="evenodd" fill="#E30D1B" d="M161.655,115.01c-0.442-0.529-1.061-0.885-1.768-0.885
		c-0.796-0.088-1.503,0.178-2.299,0.709c-0.707,0.441-1.149,1.061-1.326,1.855c-0.266,0.707-0.088,1.414,0.266,2.033
		c0.354,0.531,0.972,0.885,1.768,0.885c0.796,0.088,1.503-0.178,2.21-0.619c0.796-0.531,1.238-1.238,1.415-1.945
		S162.008,115.629,161.655,115.01L161.655,115.01z M159.534,115.098l0.972,0.178c0.266,0.176,0.442,0.529,0.266,0.883
		c-0.089,0.354-0.266,0.619-0.531,0.709l-0.529,0.176c0.265,0,0.441,0.176,0.441,0.354c0.177,0.178,0.177,0.354,0.088,0.531
		l-0.176,0.529v0.266l-0.619-0.088l0.177-0.443c0.089-0.441,0.089-0.707-0.177-0.795l-0.619-0.178l-0.53-0.088l-0.442,1.414h-0.618
		l0.973-3.535L159.534,115.098L159.534,115.098z"/>
	<path fill-rule="evenodd" clip-rule="evenodd" fill="#E20613" d="M160.505,115.276l-0.972-0.178l-1.326-0.088l-0.973,3.535h0.618
		l0.442-1.414l0.53,0.088l0.619,0.178c0.266,0.088,0.266,0.354,0.177,0.795l-0.177,0.443l0.619,0.088v-0.266l0.176-0.529
		c0.089-0.178,0.089-0.354-0.088-0.531c0-0.178-0.177-0.354-0.441-0.354l0.529-0.176c0.266-0.09,0.442-0.355,0.531-0.709
		C160.948,115.805,160.771,115.452,160.505,115.276L160.505,115.276z M160.064,115.717c0.088,0.088,0.176,0.266,0.088,0.531
		c-0.088,0.264-0.265,0.441-0.53,0.529h-1.237l0.354-1.326l0.618,0.088L160.064,115.717L160.064,115.717z"/>
	<path fill-rule="evenodd" clip-rule="evenodd" fill="#E30D1B" d="M160.152,116.249c0.088-0.266,0-0.443-0.088-0.531l-0.708-0.178
		l-0.618-0.088l-0.354,1.326h1.237C159.887,116.69,160.064,116.512,160.152,116.249L160.152,116.249z"/>
	<polygon fill-rule="evenodd" clip-rule="evenodd" fill="#E20613" points="145.124,54.721 144.947,54.809 148.129,54.897 
		145.124,54.721 	"/>
	<path fill-rule="evenodd" clip-rule="evenodd" fill="#FFD500" d="M53.805,15.293c-0.354,0.354-0.619,0.354-0.796,0.265
		l-0.088-0.972l-1.326,0.53l-0.707,1.238l-0.708-0.53c0.177,0.265,0.177,0.53,0,0.795l-0.442,0.795l-0.707,0.089
		c-0.265,0-0.353-0.089-0.53-0.265l0.088,0.618c-0.619,0.177-1.414,0.708-2.387,1.68l-2.21,2.298l-0.354-0.354
		c0.177,0.795-0.088,1.415-0.707,1.945c-0.796,0.619-1.238,1.061-1.327,1.415l-0.353-0.177l-0.973,1.061h3.625l0.707-0.707
		l2.298-1.769l-0.265-0.177c0-0.176,0.088-0.354,0.177-0.618l0.442,0.176l0.442-0.619l0.619-0.442
		c0.176-0.354,0.618-0.708,1.414-1.149c0.796-0.354,1.238-0.795,1.415-1.326l0.354,0.265c0.266-0.441,0.796-1.061,1.768-1.856
		c1.061-0.796,1.768-1.326,1.945-1.591c0.088-0.088,0.177,0.088,0.265,0.354v0.088v-0.265c0-0.442,0.265-0.884,0.972-1.149
		c0.531-0.266,0.795-0.531,0.708-0.796l-0.088-0.707c-0.088-0.266-0.177-0.442-0.354-0.531l0.795-0.972
		c0.265,0.177,0.531,0.53,0.707,1.149c0.531-0.265,0.708-0.619,0.442-1.149c-0.354-0.531-0.442-0.973-0.354-1.061h0.354
		c0-0.619,0-0.884,0.177-0.973c0.354,0.266,0.618,0.619,0.53,1.061c-0.088,0.619,0,1.061,0.088,1.326
		c0.177-0.442,0.354-0.619,0.62-0.531l0.884,0.354l2.033-2.564c0.354-0.707,0.531-1.326,0.531-2.122L63.44,7.69
		c-0.088,0.177-0.265,0.177-0.53,0.177c-0.708,0-1.149,0.354-1.326,1.061c-0.265-0.177-0.354-0.354-0.354-0.53
		c-0.088,0.53-0.442,0.796-1.149,0.972L58.225,9.9c-0.442,0.177-0.53,0.354-0.354,0.619c0.265,0.265,0.177,0.442-0.088,0.707
		l-0.354-0.265c-0.354,0-0.619,0-0.973,0.265c-0.442,0.266-0.442,0.354-0.176,0.53l0.265,0.265c0.177,0.442,0.177,0.619-0.089,0.708
		l-0.618,0.265c-0.089,0.177,0.088,0.442,0.265,0.619l-0.53,0.707l-0.619-0.531l0.354-0.972c0.088-0.354,0.088-0.707,0-0.972
		l-2.21,2.122l1.061,0.088c0.442-0.177,0.619,0,0.531,0.619L53.805,15.293L53.805,15.293z M62.292,9.37v0.708l-0.973,0.176
		c-0.354,0-0.619,0.177-0.884,0.354l0.354-0.619l0.177,0.265c0-0.442,0.265-0.618,0.707-0.53C62.026,9.724,62.203,9.636,62.292,9.37
		L62.292,9.37z"/>
	<polygon fill-rule="evenodd" clip-rule="evenodd" fill="#FFD500" points="82.624,10.961 82.27,10.608 82.27,10.696 82.624,10.961 	
		"/>
	<polygon fill-rule="evenodd" clip-rule="evenodd" fill="#FFD500" points="50.269,23.957 50.269,23.603 50.092,23.868 
		50.269,23.957 	"/>
	<path fill-rule="evenodd" clip-rule="evenodd" fill="#FFD500" d="M50.269,23.603c0-0.265-0.177-0.53-0.442-0.707l-0.354-0.089
		l0.619,0.442L50.269,23.603L50.269,23.603z"/>
	<polygon fill-rule="evenodd" clip-rule="evenodd" fill="#FFD500" points="45.406,25.813 45.583,25.813 45.406,25.724 
		45.406,25.813 	"/>
	<polygon fill-rule="evenodd" clip-rule="evenodd" fill="#FFD500" points="79.707,120.049 78.734,119.696 78.646,119.872 
		79.707,120.049 	"/>
	<polygon fill-rule="evenodd" clip-rule="evenodd" fill="#E20613" points="79.707,120.049 78.646,119.872 55.573,116.69 
		89.696,123.409 80.944,120.491 79.707,120.049 	"/>
	<path fill-rule="evenodd" clip-rule="evenodd" fill="#FFD500" d="M89.696,123.409l-34.123-6.719l-32.885-4.598l3.359,8.93h0.177
		l0.176,0.354c0.619,1.414,1.415,3.006,2.563,4.686l3.094,4.596l0.884,1.416l0.354-0.266c-0.089,0.354,0.265,0.973,0.972,1.59
		c0.708,0.707,1.061,1.326,0.973,1.857l0.884,0.266c0.177,0.264,0.089,0.529-0.088,0.883l-0.619,0.707l-3.182-3.094l-1.061,1.061
		c-0.53-0.354-0.795-0.883-0.884-1.326c-0.088-0.707-0.177-1.148-0.266-1.324c-0.088-0.09-0.177-0.09-0.354,0.176
		c-0.088,0.266-0.265,0.354-0.619,0.266l-0.619-0.707c-0.088-0.178-0.177-0.354-0.088-0.531l-0.088,0.09l-0.354-0.266
		c0.265-0.707,0.089-1.061-0.53-0.885l-0.707,0.088h-0.442c0.176-0.354,0.176-0.529,0-0.529c0.088,0.088,0.088,0.266-0.088,0.441
		c-0.088,0.178-0.266,0.266-0.442,0.088l2.652,1.68c-0.177,0.09-0.266,0.443-0.266,0.973c0.442,0.088,0.973,0.531,1.503,1.148
		l1.326,1.326l1.149-1.414l0.266,0.266l-0.354,0.973c-0.088,0.354-0.354,0.619-0.708,0.707l3.713,3.006l0.265-0.354l0.795,1.414
		c1.326,0.885,2.918,1.945,4.862,3.447l4.862,3.537c3.89,2.74,7.249,4.596,10.079,5.48l-0.177-0.619c0-0.266,0-0.441,0.265-0.619
		c0.442,1.15,1.503,1.945,3.271,2.387l2.21,0.531c0.795,0.178,1.326,0.531,1.768,0.973c0.354-0.088,0.354-0.266,0.177-0.619
		c-0.177-0.176-0.088-0.354,0.442-0.441c0.176,0.973,0.884,1.502,1.856,1.592l1.149,0.088c0.442,0.088,0.707,0.354,0.973,0.707
		l0.176-0.354l1.061,0.883l0.265-0.441c0.53,0.707,1.415,1.148,2.741,1.326l2.387,0.266c0.795,0.354,1.591,0.529,2.475,0.707h2.299
		c1.856,0,3.359,0.529,4.508,1.414c0.707-0.531,1.591-0.619,2.74-0.354c1.415,0.354,2.387,0.441,2.917,0.354l0.707-0.088
		c0.088-0.178,0.265-0.354,0.354-0.707l0.708,0.619c0.442,0.354,0.795,0.354,1.237,0l0.795-0.885l0.796,0.795l0.707-0.973
		l2.299,0.531l1.856,0.266c0.177,0.088,0.266,0,0.177-0.266c0-0.266,0.089-0.354,0.442-0.354c0.265,0.176,0.354,0.354,0.354,0.529
		l0.354-0.441c0.177-0.266,0.266-0.266,0.53-0.266l-0.089-0.707c-0.088-0.266,0-0.441,0.177-0.619
		c0.266,0.619,0.619,0.885,0.973,0.885l1.415,0.178l-0.178-0.709c0-0.264,0.089-0.441,0.266-0.617l0.796,1.236
		c0.354-0.354,1.061-0.441,2.121-0.354c0.796,0.088,1.503,0.266,1.945,0.531l3.271-1.326c1.415-0.443,2.829-0.531,4.155-0.266
		c-0.089-0.619,0.088-0.973,0.53-1.061c0.441-0.088,0.707-0.354,0.796-0.973c0.088,0.178,0.265,0.443,0.53,0.531
		c0.354,0.088,0.441,0.354,0.53,0.617l0.354-1.59c0.53,0.176,1.768,0,3.624-0.531c0.885-0.266,1.68-0.441,2.388-0.529h-0.354
		l-2.388-0.266l0.619-0.619c0.973,0.088,2.74-0.178,5.305-0.795l5.304-1.238c0.177-0.619,1.149-1.414,3.006-2.387
		c1.944-0.973,3.005-1.68,3.271-2.299l0.354,0.266c0.442-0.797,1.592-1.857,3.448-3.094l4.066-2.83l2.033-2.65
		c-8.575,0.176-17.857-1.15-27.759-3.891c-3.801-1.061-7.867-2.387-12.376-4.066l-0.707-0.266l0.884-0.088L89.696,123.409
		L89.696,123.409z M46.025,126.502v0.354c0.088,0.441,0.265,0.795,0.442,0.885l-0.265,0.441c0.619,0.529,0.973,0.885,1.061,1.061
		h-0.707l-0.619-0.441l-0.177,0.266v-0.443C45.937,127.741,46.025,127.032,46.025,126.502L46.025,126.502z M47.97,130.393
		l0.266-0.619c0.265,0.088,0.442,0.529,0.707,1.236c0.177,0.443,0.531,0.531,1.061,0.443l-0.354,0.354l2.21,2.209v0.266v-0.088
		c-0.088-0.266-0.266-0.443-0.442-0.354c-0.088,0.264-0.177,0.795-0.088,1.502c0.088,0.441-0.177,0.707-0.795,0.707
		c-0.708-0.354-0.884-0.795-0.619-1.326l0.973-1.236c-0.442,0.088-0.708-0.09-0.708-0.619c-0.088-0.531-0.265-0.885-0.707-0.707
		c-0.354,0.176-0.442,0.441-0.088,0.883l0.177,0.266l-0.531,0.088c-0.353-0.176-0.53-0.441-0.265-0.617
		c0.265-0.443,0.353-0.797,0.353-0.885l-1.414-1.768L47.97,130.393L47.97,130.393z M52.302,135.52l0.088-0.09l-0.088-0.529
		l0.618-0.088l-0.53,0.617l0.088,0.266l0.795,0.707l0.354-0.441v-0.088v0.441c0.177,0.531,0.354,0.885,0.707,1.15l0.177-0.09
		c-0.089,0.09-0.089,0.09,0,0.266l0.707,0.354c0.619,0.354,0.884,0.707,0.707,1.061l0.177-0.264l-0.088,0.971
		c0-0.266-0.088-0.441-0.176-0.529l-0.177-0.178l-1.768-0.088c-0.265-0.266-0.265-0.707-0.088-1.502l-1.061-0.709l-0.088,1.857
		c-0.266-0.619-0.266-1.148-0.177-1.857v-1.061L52.302,135.52L52.302,135.52z M45.76,130.038c0.354,0.178,0.531,0.266,0.708,0.266
		l0.089,0.973C46.114,131.01,45.848,130.569,45.76,130.038L45.76,130.038z M44.081,130.834l-0.795-0.707l0.707,0.088L44.081,130.834
		L44.081,130.834z M60.17,139.321c0.265,0.088,0.353,0.266,0.353,0.529l0.177,0.709l-0.442-0.619
		C60.346,139.94,60.346,139.674,60.17,139.321L60.17,139.321z M59.639,142.149H59.55c-0.53-0.619-0.795-1.061-0.795-1.414
		c0.707,0.088,1.061,0.178,1.326,0.441L59.639,142.149L59.639,142.149z M60.789,142.061l1.945,0.441l-1.149,0.09
		C61.143,142.68,60.877,142.502,60.789,142.061L60.789,142.061z M64.854,142.592l-0.265,0.973c-0.089,0.354-0.354,0.354-0.795,0
		c-0.266-0.443-0.177-0.619,0.265-0.709C64.501,142.856,64.766,142.768,64.854,142.592L64.854,142.592z M66.181,143.034
		c0.442,0.266,0.53,0.531,0.265,0.885l0.265,1.236l-0.708-0.088l-0.884-0.354c0-0.266,0.088-0.266,0.265-0.09
		c0.354,0.266,0.53,0.355,0.708,0.266c-0.266-0.266-0.266-0.529,0.177-0.883l0.177-0.088L66.181,143.034L66.181,143.034z
		 M83.95,152.227l0.354-0.088l0.177,1.592h-0.354L83.95,152.227L83.95,152.227z M93.32,152.758l-0.177,0.354l-0.795-0.443
		L93.32,152.758L93.32,152.758z M77.055,147.719c-0.177,0.266-0.354,0.088-0.531-0.266c-0.354-0.441-0.619-0.441-0.884,0
		l-0.266-0.531C76.17,146.747,76.701,146.922,77.055,147.719L77.055,147.719z M74.137,150.194l0.177,0.973l-0.442-0.973H74.137
		L74.137,150.194z M77.143,148.692l0.354,1.502c-0.354-0.176-0.531-0.441-0.442-0.619C77.143,149.133,77.143,148.868,77.143,148.692
		L77.143,148.692z M71.485,146.215c-0.177-0.619-0.088-0.883,0.089-0.795l0.442-0.088L71.485,146.215L71.485,146.215z
		 M71.131,148.073c0.265,0,0.531-0.178,0.531-0.354c0-0.354-0.088-0.443-0.266-0.619h0.442l1.061-0.088
		c0.265,0,0.177,0.088-0.177,0.441c-0.354,0.266-0.707,0.354-1.061,0.266l0.973,2.387c-0.177-0.178-0.266-0.441-0.354-0.795
		s-0.265-0.619-0.53-0.709l-0.973,1.326h-0.088h0.088l-0.088-0.354c-0.177-0.354,0-0.617,0.53-0.617
		c-0.266-0.266-0.442-0.266-0.619-0.178l-0.088-0.707H71.131L71.131,148.073z M69.982,146.922l-0.266-0.264l0.884-0.973
		C70.689,146.04,70.513,146.481,69.982,146.922L69.982,146.922z M67.331,144.713l0.884,0.266l0.795,0.883L67.331,144.713
		L67.331,144.713z M79.972,152.934l-0.531,0.443l-0.353-0.885L79.972,152.934L79.972,152.934z M64.678,146.305l0.265-0.355
		l0.177,0.885l-1.061,0.178l-0.089-1.945L64.678,146.305L64.678,146.305z M66.888,146.659l0.088,0.973l-1.061-1.416L66.888,146.659
		L66.888,146.659z M46.732,146.747c-0.176-0.531,0-0.973,0.531-1.326L46.732,146.747L46.732,146.747z M49.65,147.807l0.442,0.088
		c0.265,0.09,0.354,0.266,0.265,0.619l-0.619,0.088l0.266-0.354l-0.707-0.529L49.65,147.807L49.65,147.807z M111.354,147.366
		l1.326,0.088l-1.237,0.531L111.354,147.366L111.354,147.366z M106.934,150.284c0.265-0.09,0.442-0.355,0.53-0.709
		c0.177-0.883,0.442-1.236,0.707-1.236v0.619c0,0.264,0.177,0.441,0.354,0.529l0.619-0.088c-0.354,0.529-0.707,0.795-1.237,0.885
		H106.934L106.934,150.284z M100.834,152.493c0-0.531,0.089-0.885,0.442-1.15c0.176-0.176,0.53-0.354,0.973-0.176l-0.531-1.238
		c0.442,0,0.707,0.178,0.707,0.619c0.089,0.441,0.266,0.795,0.442,0.795l1.326,0.09c0-0.09,0.088-0.178,0.266-0.178l0.176,0.178
		h-0.441l-0.089,0.354l0.089,0.707c0.441-0.354,0.795-0.266,1.061,0.176c0.354,0.443,0.442,0.885,0.442,1.592l-1.149-1.502
		l-0.442,0.973l-0.088-0.885c-0.089-0.354-0.177-0.619-0.442-0.707l-1.591,1.061l0.088,0.354h0.707
		c-0.088,0.088-0.265,0.531-0.441,1.238l0.618,0.529l-0.972,0.178c0.266-0.441,0.354-0.973,0.266-1.504l-0.178-0.441l-0.265-0.176
		l0.177-0.178l-0.531-0.441l0.619-0.09c0.266-0.176,0.266-0.354,0.089-0.617l-0.53-0.531L100.834,152.493L100.834,152.493z
		 M104.194,149.665l1.061,0.529l-1.592-0.176L104.194,149.665l-5.039,2.121l0.266,0.707l0.177,0.885l-0.973-0.266l0.53-1.326
		L104.194,149.665L104.194,149.665z"/>
	<polygon fill-rule="evenodd" clip-rule="evenodd" fill="#FFFFFF" points="52.39,135.43 52.302,135.52 52.479,135.696 52.39,135.43 
			"/>
	<polygon fill-rule="evenodd" clip-rule="evenodd" fill="#FFFFFF" points="70.778,149.928 70.689,149.928 70.778,149.928 	"/>
	<path fill-rule="evenodd" clip-rule="evenodd" fill="#CC3D2B" d="M22.688,112.092l-0.884-0.088h-0.177l-0.442-0.088l-8.045,0.707
		l-2.122,0.885c-1.237,0.529-2.21,1.061-3.005,1.678l-1.945,1.857l-0.354,0.354c0.973,2.83,4.42,5.568,10.52,8.133
		c5.039,2.211,9.901,3.713,14.675,4.332l-3.183-4.508c-0.973-1.504-1.679-2.918-2.21-4.332h0.531L22.688,112.092L22.688,112.092z"/>
	<polygon fill-rule="evenodd" clip-rule="evenodd" fill="#CC3D2B" points="21.185,111.917 21.626,112.004 21.804,111.917 
		21.185,111.917 	"/>
	<polygon fill-rule="evenodd" clip-rule="evenodd" fill="#E20613" points="26.224,121.022 26.047,121.022 26.4,121.375 
		26.224,121.022 	"/>
	<polygon fill-rule="evenodd" clip-rule="evenodd" fill="#E30D1B" points="108.083,129.95 108.791,130.215 108.967,129.862 
		108.083,129.95 	"/>
	<polygon fill-rule="evenodd" clip-rule="evenodd" fill="#FFD500" points="111.354,9.636 111.354,9.194 110.913,9.547 
		110.735,9.724 111.443,10.254 111.354,9.636 	"/>
	<path fill-rule="evenodd" clip-rule="evenodd" fill="#FFD500" d="M108.702,9.105l-0.177,0.531c0.266-0.089,0.354-0.354,0.266-0.619
		L108.702,9.105L108.702,9.105z"/>
	<path fill-rule="evenodd" clip-rule="evenodd" fill="#FFD500" d="M129.211,19.537l-0.177-1.503
		C128.416,18.387,128.416,18.829,129.211,19.537L129.211,19.537z"/>
	<polygon fill-rule="evenodd" clip-rule="evenodd" fill="#FFD500" points="125.675,18.918 125.587,18.298 125.322,18.652 
		125.675,18.918 	"/>
	<path fill-rule="evenodd" clip-rule="evenodd" fill="#005AA0" d="M94.558,59.848c0.707-1.061,1.591-1.944,2.829-2.829l-4.951-0.266
		c-0.619,0.973-1.238,2.298-1.68,4.067L81.562,94.5c-0.53,1.77-0.707,3.449-0.53,5.127c0.176,1.77,0.795,3.096,1.768,4.066
		l-10.166-0.707c-2.122-0.176-3.36-1.236-3.713-3.182c-1.945,2.211-4.773,3.094-8.398,2.74c-1.945-0.176-3.713-0.795-5.481-1.855
		c-1.061-0.531-2.033-1.416-2.917-2.299l0.354,0.619c1.149,2.033,2.741,3.713,4.686,4.861c1.768,0.973,3.625,1.592,5.569,1.768
		c3.536,0.354,6.365-0.529,8.31-2.652c0.354,2.033,1.592,3.006,3.713,3.096l10.255,0.707c-1.061-0.973-1.68-2.299-1.856-3.979
		c-0.177-1.68,0-3.359,0.53-5.127l9.194-33.682C93.409,62.235,93.939,60.82,94.558,59.848L94.558,59.848z"/>
	<path fill-rule="evenodd" clip-rule="evenodd" fill="#FFFFFF" d="M90.757,60.82c0.442-1.769,1.061-3.094,1.68-4.067v-0.088
		c0.618-0.972,1.591-1.944,2.829-2.74l-10.696-0.708c-2.387-0.176-3.978,1.061-4.686,3.625c-0.177-1.415-0.884-2.387-2.298-3.271
		c-1.061-0.619-2.298-0.972-3.713-1.061c-3.978-0.442-7.691,0.442-11.316,2.741c-5.392,3.536-9.547,9.989-12.464,19.36
		c-2.74,9.104-2.652,16.267,0.265,21.306c0.531,0.883,1.149,1.678,1.768,2.475c0.884,0.883,1.856,1.768,2.917,2.299
		c1.768,1.061,3.536,1.68,5.481,1.855c3.625,0.354,6.454-0.529,8.398-2.74c0.354,1.945,1.591,3.006,3.713,3.182l10.166,0.707
		c-0.972-0.971-1.591-2.297-1.768-4.066c-0.177-1.678,0-3.357,0.53-5.127L90.757,60.82L90.757,60.82z M74.579,60.555
		c0.972,0,1.679,0.442,2.21,1.061c0.442,0.62,0.619,1.326,0.53,2.122l-0.177,0.796l-6.807,24.399
		c-0.531,2.033-1.237,3.447-2.034,4.242c-0.972,1.061-2.298,1.504-4.066,1.326l-0.796-0.176c-1.237-0.531-2.121-2.033-2.386-4.598
		c-0.354-2.918,0-6.895,1.061-11.934c1.061-4.862,2.829-9.017,5.393-12.376C69.982,61.969,72.281,60.378,74.579,60.555
		L74.579,60.555z"/>
	<path fill-rule="evenodd" clip-rule="evenodd" fill="#005AA0" d="M76.789,61.615c-0.531-0.618-1.238-1.061-2.21-1.061
		c-2.298-0.177-4.597,1.415-7.072,4.862c-2.564,3.359-4.332,7.514-5.393,12.376c-1.061,5.039-1.414,9.016-1.061,11.934
		c0.265,2.564,1.149,4.066,2.386,4.598l-0.265-1.416c-0.354-2.916,0-6.895,1.149-11.934c0.973-4.862,2.741-9.017,5.304-12.464
		c2.476-3.359,4.862-5.039,7.161-4.862l0.53,0.088C77.408,62.941,77.231,62.235,76.789,61.615L76.789,61.615z"/>
	<path fill-rule="evenodd" clip-rule="evenodd" fill="#FFFFFF" d="M103.133,54.455c-1.238-0.177-2.299,0.177-3.271,0.796
		c-0.972,0.619-1.591,1.591-1.944,2.829L88.723,90.7c-0.707,3.271-0.707,6.012,0.177,8.311c0.531,1.326,1.238,2.387,2.21,3.182
		c0.973,0.885,2.21,1.502,3.712,1.945c7.338,1.945,12.73,0.883,16.09-3.447c0.088,1.855-0.266,3.713-1.149,5.48l-0.354,0.707
		c-0.973,1.768-2.387,3.27-4.155,4.42c-1.945,1.238-4.331,1.68-7.337,1.414l-7.426-1.502c-2.21-0.531-3.979-0.354-5.393,0.266
		c-1.238,0.617-2.122,1.68-2.387,3.182l-2.121,8.045l3.005-0.266c3.094-0.266,6.276,0,9.547,0.619l5.039,1.061l5.305,0.441
		c4.154,0,7.603-1.326,10.255-3.801c3.182-3.006,6.011-8.133,8.221-15.471l10.873-41.813c0.442-1.68,1.062-3.094,1.769-4.067
		c0.619-1.061,1.503-2.033,2.74-2.829l-10.608-0.707c-1.237-0.088-2.299,0.265-3.183,0.884c-0.972,0.619-1.591,1.591-2.033,2.829
		l-8.133,29.262c-0.53,2.65-1.326,4.596-2.298,5.656c-1.238,1.416-3.183,2.033-5.658,1.857l-1.769-0.354
		c-1.325-0.531-2.032-1.592-2.121-3.184c-0.177-1.148,0.177-2.916,0.796-5.303l6.896-25.46c0.441-1.768,1.061-3.183,1.68-4.154
		c0.619-1.062,1.591-1.945,2.74-2.83L103.133,54.455L103.133,54.455z"/>
	<path fill-rule="evenodd" clip-rule="evenodd" fill="#005AA0" d="M115.863,58.256l-4.95-0.353c-0.619,0.972-1.238,2.386-1.68,4.154
		l-6.896,25.46c-0.619,2.387-0.973,4.154-0.796,5.303c0.089,1.592,0.796,2.652,2.121,3.184c-0.088-1.238,0.178-3.006,0.797-5.305
		l6.895-25.548c0.442-1.768,1.062-3.183,1.68-4.155C113.653,59.936,114.625,59.052,115.863,58.256L115.863,58.256z"/>
	<path fill-rule="evenodd" clip-rule="evenodd" fill="#005AA0" d="M134.604,59.405c-0.707,0.973-1.326,2.387-1.769,4.067
		l-10.873,41.813c-2.21,7.338-5.039,12.465-8.221,15.471c-2.652,2.475-6.101,3.801-10.255,3.801l-5.305-0.441l-5.039-1.061
		c-3.271-0.619-6.453-0.885-9.547-0.619l-0.884,3.359c4.067-0.619,8.222-0.441,12.553,0.354l5.039,1.061l5.304,0.441l2.21-0.088
		c3.183-0.441,5.924-1.68,8.134-3.713c3.182-3.006,5.834-8.133,8.133-15.381l10.873-41.814c0.53-1.768,1.149-3.183,1.769-4.155
		c0.618-1.061,1.591-1.945,2.739-2.829L134.604,59.405L134.604,59.405z"/>
	<path fill-rule="evenodd" clip-rule="evenodd" fill="#005AA0" d="M109.763,106.17c0.884-1.768,1.237-3.625,1.149-5.48
		c-3.359,4.33-8.752,5.393-16.09,3.447c-1.502-0.443-2.74-1.061-3.712-1.945c0.973,2.564,2.917,4.244,5.834,5.039
		c5.127,1.326,9.282,1.238,12.465-0.354L109.763,106.17L109.763,106.17z"/>
	<path fill-rule="evenodd" clip-rule="evenodd" fill="#FFFFFF" d="M140.704,42.256l-1.149,0.177
		c-0.442,0.176-0.707,0.53-0.796,1.149l-2.121,7.957c-0.53,1.679-0.089,2.475,1.149,2.121l1.325-0.53
		c1.592-0.707,3.183-1.768,4.773-3.094c1.592-1.414,2.741-2.74,3.448-4.332l0.619-1.679l0.177-0.973
		c-0.089-0.177-0.441-0.265-1.062-0.354L140.704,42.256L140.704,42.256z"/>
	<path fill-rule="evenodd" clip-rule="evenodd" fill="#005AA0" d="M139.112,53.129l-0.354,1.503
		c-0.441,1.768-0.088,2.475,1.149,2.122c1.149-0.354,2.299-0.884,3.448-1.591l2.74-2.033c0.972-0.795,1.768-1.768,2.563-2.917
		c0.707-1.149,1.237-2.122,1.414-3.094l0.177-0.884c-0.088-0.177-0.441-0.265-0.972-0.354l-1.945-0.177
		c-0.707,1.592-1.856,2.917-3.448,4.332C142.294,51.361,140.704,52.422,139.112,53.129L139.112,53.129z"/>
	<path fill-rule="evenodd" clip-rule="evenodd" fill="#FFFFFF" d="M154.229,57.726c-4.773-0.354-8.045-0.265-9.901,0.177
		c-2.563,0.707-4.685,2.386-6.453,5.215c-1.768,2.829-2.121,6.1-1.061,9.812c0.884,3.448,2.74,6.542,5.48,9.282l6.012,6.365
		c1.326,1.855,1.503,3.889,0.707,6.012c-1.061,2.562-3.447,3.711-7.249,3.447l-8.044-0.531c-2.299-0.178-3.89,0.885-4.686,3.184
		c-0.354,0.973-0.885,2.828-1.68,5.746l2.917,0.176l14.94,0.885l5.48-0.443c4.155-0.707,7.515-2.65,9.901-5.746
		c2.033-2.562,3.182-5.568,3.624-9.281c0.177-2.211-0.354-4.686-1.68-7.248l-0.089-0.09c-1.237-2.209-3.005-4.42-5.392-6.629
		l-4.95-4.243l-0.442-0.354c-1.415-1.415-1.945-2.829-1.856-4.243c0.265-2.122,1.591-3.094,3.89-3.005l8.045,0.53
		c2.209,0.176,3.624-1.061,4.42-3.625l0.441-1.68l0.796-2.917L154.229,57.726L154.229,57.726z"/>
	<path fill-rule="evenodd" clip-rule="evenodd" fill="#005AA0" d="M166.605,61.439l-0.441,1.68c-0.796,2.563-2.211,3.801-4.42,3.625
		l-8.045-0.53c-2.299-0.088-3.625,0.883-3.89,3.005c-0.089,1.415,0.441,2.829,1.856,4.243l0.442,0.354
		c-0.178-0.442-0.178-0.973-0.089-1.503c0.265-2.122,1.503-3.094,3.801-2.917l8.045,0.53c1.592,0.088,2.74-0.53,3.536-1.768
		c0.354-0.53,0.619-1.149,0.884-1.944l1.326-4.598L166.605,61.439L166.605,61.439z"/>
	<path fill-rule="evenodd" clip-rule="evenodd" fill="#005AA0" d="M164.661,87.959c-0.619-1.15-1.414-2.211-2.211-3.271l0.089,0.09
		c1.326,2.562,1.856,5.037,1.68,7.248c-0.442,3.713-1.591,6.719-3.624,9.281c-2.387,3.096-5.746,5.039-9.901,5.746l-5.48,0.443
		l-14.94-0.885l-0.795,3.006l17.856,1.061l5.481-0.531c4.154-0.707,7.514-2.562,9.9-5.744c2.033-2.477,3.183-5.57,3.625-9.105
		C166.517,92.909,165.986,90.434,164.661,87.959L164.661,87.959z"/>
	<path fill-rule="evenodd" clip-rule="evenodd" fill="#FFFFFF" d="M57.694,36.952L45.76,36.244c-4.243-0.265-6.983,1.769-8.221,6.1
		l-21.128,75.318l3.271-0.885c2.033-0.441,3.978-0.795,5.746-0.883l12.111,0.441c4.243,0.531,10.343,1.945,18.299,4.244l7.779,2.209
		l5.216,1.148c2.21,0.178,3.89-0.176,5.127-1.061c1.149-0.795,1.856-2.033,2.298-3.889l1.149-4.42l1.061-4.332
		c-1.768,0.883-3.713,1.414-5.746,1.502c-2.21,0-5.127-0.354-8.575-1.236l-5.393-1.68c-3.094-1.15-5.216-1.857-6.63-2.299
		c-4.773-1.504-9.282-2.299-13.437-2.477h-2.917c1.856-7.248,7.249-26.696,16.266-58.433c0.795-2.21,1.768-4.066,3.005-5.834
		C55.838,38.72,56.722,37.747,57.694,36.952L57.694,36.952z"/>
	<path fill-rule="evenodd" clip-rule="evenodd" fill="#005AA0" d="M55.042,39.781c-1.237,1.768-2.21,3.624-3.005,5.834
		c-9.017,31.736-14.409,51.185-16.266,58.433h2.917c2.387-8.928,7.514-27.403,15.47-55.338c1.326-3.624,3.271-6.542,5.658-8.664
		L55.042,39.781L55.042,39.781z"/>
	<path fill-rule="evenodd" clip-rule="evenodd" fill="#005AA0" d="M63.617,122.79l-7.779-2.209
		c-7.957-2.299-14.056-3.713-18.299-4.244l-12.111-0.441c-1.769,0.088-3.713,0.441-5.746,0.883l-1.149,4.066
		c3.271-0.973,6.277-1.59,9.018-1.855l1.502-0.088l10.608,0.529c4.244,0.531,10.343,2.033,18.211,4.244
		c7.514,2.209,11.934,3.27,13.172,3.357c2.122,0.178,3.802-0.176,5.039-1.059c1.149-0.709,1.856-2.035,2.298-3.803l2.298-8.752
		c-1.061,0.531-2.21,0.885-3.271,1.15l-1.149,4.42c-0.442,1.855-1.149,3.094-2.298,3.889c-1.238,0.885-2.917,1.238-5.127,1.061
		L63.617,122.79L63.617,122.79z"/>
	<polygon fill-rule="evenodd" clip-rule="evenodd" fill="#FFD500" points="52.744,25.636 52.92,25.724 52.832,25.459 52.744,25.636 
			"/>
	<polygon fill-rule="evenodd" clip-rule="evenodd" fill="#FFD500" points="48.412,27.581 48.236,27.404 48.324,27.581 
		48.412,27.581 	"/>
	<polygon fill-rule="evenodd" clip-rule="evenodd" fill="#FFFFFF" points="54.866,133.928 55.042,134.104 54.954,133.84 
		54.866,133.928 	"/>
	<polygon fill-rule="evenodd" clip-rule="evenodd" fill="#FFFFFF" points="72.546,147.985 72.546,147.895 72.458,147.985 
		72.546,147.985 	"/>
	
		<path fill="none" stroke="#FFFFFF" stroke-width="0.5012" stroke-linecap="round" stroke-linejoin="round" stroke-miterlimit="2.6131" d="
		M114.095,55.516l-10.521-0.707 M103.575,54.809c-1.237-0.088-2.298,0.176-3.271,0.795c-0.884,0.707-1.592,1.68-1.945,2.917
		 M98.359,58.521l-9.105,32.885 M89.254,91.407c-0.707,3.271-0.707,6.1,0.177,8.398c0.53,1.238,1.238,2.387,2.21,3.182
		c0.884,0.885,2.121,1.592,3.624,1.945c7.337,2.033,12.73,0.885,16.089-3.447c0.089,1.855-0.354,3.713-1.149,5.568 M110.205,107.053
		l-0.354,0.709 M109.851,107.762c-0.972,1.768-2.387,3.27-4.243,4.42c-1.856,1.236-4.243,1.768-7.249,1.414 M98.359,113.596
		l-7.337-1.504 M91.022,112.092c-2.21-0.529-3.979-0.354-5.304,0.266c-1.326,0.619-2.122,1.68-2.475,3.182 M83.243,115.54
		l-2.034,8.135l2.918-0.266 M84.127,123.409c3.094-0.178,6.276,0,9.547,0.619 M93.674,124.028l5.039,1.061l5.216,0.441
		 M103.928,125.53c4.155,0,7.604-1.326,10.255-3.801c3.183-3.006,5.834-8.221,8.133-15.559 M122.316,106.17l10.873-42.168
		 M133.189,64.002c0.442-1.768,0.973-3.182,1.681-4.155 M134.87,59.848v-0.088 M134.87,59.759c0.618-0.972,1.502-1.945,2.74-2.829
		 M137.61,56.931l-10.521-0.619 M127.089,56.312c-1.237-0.088-2.298,0.177-3.182,0.795c-0.973,0.708-1.68,1.68-2.034,2.917
		 M121.874,60.024l-8.044,29.527 M113.83,89.551c-0.619,2.74-1.414,4.596-2.298,5.746c-1.327,1.326-3.184,1.945-5.658,1.855
		 M105.874,97.153l-1.769-0.354 M104.105,96.799c-1.237-0.529-2.033-1.592-2.121-3.271c-0.089-1.148,0.177-2.916,0.795-5.303
		 M102.779,88.225l6.808-25.726 M109.586,62.5c0.53-1.768,1.061-3.183,1.768-4.155 M111.354,58.345v-0.088 M111.354,58.256
		c0.619-0.972,1.503-1.945,2.741-2.74 M138.14,63.561c1.768-2.829,3.89-4.597,6.364-5.216c1.857-0.441,5.216-0.53,9.901-0.265
		 M154.406,58.08l13.172,0.884l-1.326,4.597 M166.251,63.561c-0.707,2.564-2.21,3.801-4.331,3.713 M161.92,67.273l-8.045-0.53
		 M153.875,66.743c-2.298-0.177-3.536,0.884-3.802,2.917c-0.177,1.503,0.442,3.006,1.769,4.332 M151.842,73.992l5.393,4.686
		 M157.235,78.677c2.299,2.21,4.066,4.421,5.304,6.63 M162.539,85.307l0.089,0.176 M162.627,85.483
		c1.414,2.564,1.945,5.041,1.68,7.338c-0.354,3.537-1.592,6.631-3.536,9.283c-2.387,3.182-5.746,5.127-9.901,5.834 M150.87,107.938
		l-5.393,0.441l-17.769-1.061 M127.708,107.319c0.707-3.006,1.326-4.861,1.591-5.834c0.884-2.211,2.388-3.359,4.686-3.271
		 M133.985,98.213l8.045,0.619 M142.03,98.833c3.801,0.178,6.188-0.883,7.16-3.535c0.884-2.123,0.619-4.156-0.707-6.1
		 M148.483,89.198l-5.923-6.365 M142.56,82.833c-2.74-2.829-4.597-5.923-5.48-9.371c-1.062-3.712-0.708-7.072,1.061-9.901
		 M52.744,45.969c-8.929,32.001-14.321,51.625-16.178,58.875 M36.566,104.844h2.917 M39.484,104.844
		c4.154,0.176,8.575,1.061,13.348,2.564c1.415,0.354,3.625,1.148,6.63,2.297 M59.462,109.706l5.393,1.68 M64.854,111.385
		c3.36,0.885,6.277,1.238,8.487,1.238c2.033-0.088,3.978-0.619,5.747-1.504 M79.088,111.12l-2.21,8.842 M76.877,119.961
		c-0.442,1.855-1.237,3.182-2.298,3.889c-1.238,0.885-2.917,1.238-5.127,1.15c-0.884-0.09-2.74-0.443-5.127-1.15 M64.324,123.85
		l-7.779-2.299 M56.545,121.551c-7.957-2.297-13.968-3.713-18.211-4.332 M38.334,117.219l-12.023-0.441 M26.312,116.778
		c-1.768,0.178-3.712,0.531-5.746,0.973 M20.565,117.75l-3.271,0.885l21.04-76.026 M38.334,42.609
		c1.237-4.331,3.978-6.365,8.133-6.099 M46.467,36.51l11.846,0.619 M58.313,37.128c-0.884,0.884-1.768,1.856-2.563,2.917
		c-1.237,1.68-2.21,3.625-3.005,5.923 M68.126,65.859c2.475-3.448,4.773-5.039,7.072-4.862c0.973,0,1.68,0.442,2.122,1.061
		c0.442,0.619,0.708,1.326,0.619,2.21 M77.938,64.268l-0.177,0.708l-6.808,24.664 M70.954,89.639
		c-0.53,2.033-1.237,3.447-2.033,4.332c-0.973,0.973-2.298,1.414-3.979,1.326 M64.943,95.297l-0.883-0.266 M64.06,95.032
		c-1.238-0.531-2.033-2.033-2.299-4.598c-0.354-3.006,0-6.982,0.973-12.022c1.061-4.95,2.917-9.105,5.393-12.553 M50.888,75.229
		c-2.829,9.195-2.652,16.355,0.176,21.482c0.53,0.883,1.149,1.68,1.768,2.387c0.884,0.973,1.857,1.768,2.917,2.387
		c1.68,1.061,3.536,1.68,5.481,1.855c3.624,0.354,6.365-0.529,8.31-2.74c0.354,2.033,1.591,3.094,3.712,3.184 M73.253,103.784
		l10.166,0.707 M83.419,104.491c-1.061-0.973-1.679-2.299-1.856-4.066c-0.176-1.592,0-3.359,0.531-5.127 M82.093,95.297
		l9.105-34.035 M91.199,61.262c0.53-1.768,1.061-3.094,1.68-4.155 M92.878,57.107h0.088 M92.967,57.107
		c0.619-1.061,1.591-1.945,2.74-2.829 M95.707,54.278l-10.519-0.708 M85.188,53.571c-2.387-0.088-3.979,1.061-4.774,3.625
		c-0.088-1.326-0.884-2.386-2.21-3.183c-1.149-0.707-2.387-1.061-3.713-1.149c-3.978-0.442-7.779,0.442-11.315,2.829
		c-5.304,3.536-9.459,10.078-12.288,19.537 M139.82,42.697c-0.442,0.177-0.708,0.62-0.796,1.238 M139.024,43.936l-2.122,7.956
		 M136.902,51.892c-0.53,1.768-0.088,2.475,1.149,2.121c0.442-0.176,0.885-0.354,1.326-0.53c1.592-0.708,3.183-1.768,4.773-3.094
		c1.592-1.415,2.741-2.83,3.448-4.333 M147.599,46.057l0.619-1.768 M148.218,44.289c0.088-0.531,0.088-0.796,0.088-0.972
		c-0.088-0.177-0.354-0.266-0.973-0.354 M147.333,42.963l-6.364-0.442l-1.149,0.177"/>
</g>
</svg>
