<?xml version="1.0" encoding="utf-8"?>
<!-- Generator: Adobe Illustrator 16.0.0, SVG Export Plug-In . SVG Version: 6.00 Build 0)  -->
<!DOCTYPE svg PUBLIC "-//W3C//DTD SVG 1.1//EN" "http://www.w3.org/Graphics/SVG/1.1/DTD/svg11.dtd">
<svg version="1.1" id="Layer_1" xmlns="http://www.w3.org/2000/svg" xmlns:xlink="http://www.w3.org/1999/xlink" x="0px" y="0px"
	 width="187.086px" height="86.339px" viewBox="0 0 187.086 86.339" enable-background="new 0 0 187.086 86.339"
	 xml:space="preserve">
<g>
	<path fill-rule="evenodd" clip-rule="evenodd" fill="#FCC700" d="M94.446,0c23.783,0,43.219,19.437,43.219,43.171
		c0,23.83-19.436,43.168-43.219,43.168c-23.782,0-43.17-19.338-43.17-43.168C51.276,19.437,70.664,0,94.446,0L94.446,0L94.446,0
		L94.446,0z"/>
	<path fill-rule="evenodd" clip-rule="evenodd" fill="#E30D1B" d="M94.446,2.784c22.22,0,40.387,18.167,40.387,40.485
		c0,22.219-18.167,40.385-40.387,40.385c-22.269,0-40.435-18.166-40.435-40.385C54.011,20.951,72.178,2.784,94.446,2.784
		L94.446,2.784L94.446,2.784L94.446,2.784z"/>
	<polygon fill-rule="evenodd" clip-rule="evenodd" fill="#FCC700" points="0,22.318 187.086,22.318 187.086,64.218 0,64.218 
		0,22.318 0,22.318 	"/>
	<polygon fill-rule="evenodd" clip-rule="evenodd" fill="#1D1D1B" points="3.467,24.857 183.619,24.857 183.619,61.728 
		3.467,61.728 3.467,24.857 3.467,24.857 	"/>
	<path fill-rule="evenodd" clip-rule="evenodd" fill="#FFFFFF" d="M85.656,43.708v6.348l0,0c1.514,1.025,1.856,5.129,4.249,5.129
		l0,0h5.127l0,0c-1.416-3.029-1.904-6.203-4.395-6.887c3.711-1.66,5.273-4.443,5.127-8.644l0,0l0,0l0,0
		c-0.098-4.249-4.199-8.399-9.425-8.399l0,0h-0.684v5.811h1.856l0,0c1.318,0,2.735,1.807,2.735,3.125
		c0,1.27-0.684,3.517-2.638,3.517l0,0H85.656L85.656,43.708L85.656,43.708z"/>
	<path fill-rule="evenodd" clip-rule="evenodd" fill="#FFFFFF" d="M85.656,37.066v-5.811H74.571v23.93h5.86v-5.373h4.542l0,0
		c0.244,0,0.488,0.098,0.684,0.244l0,0v-6.348h-4.737v-6.642H85.656L85.656,37.066L85.656,37.066z"/>
	<polygon fill-rule="evenodd" clip-rule="evenodd" fill="#FFFFFF" points="11.574,55.185 11.574,31.255 18.215,31.255 
		23.978,41.314 29.838,31.108 36.968,31.108 36.968,55.185 30.913,55.185 30.913,42.878 24.563,52.009 17.58,43.024 17.58,55.185 
		11.574,55.185 11.574,55.185 	"/>
	<polygon fill-rule="evenodd" clip-rule="evenodd" fill="#FFFFFF" points="55.671,47.419 55.671,52.692 61.776,52.692 
		62.851,55.185 68.857,55.185 59.481,31.255 55.671,31.255 55.671,38.189 59.481,47.419 55.671,47.419 55.671,47.419 	"/>
	<polygon fill-rule="evenodd" clip-rule="evenodd" fill="#FFFFFF" points="55.671,38.189 55.671,31.255 52.351,31.255 
		42.292,55.185 42.292,55.185 48.493,55.185 49.47,52.692 55.671,52.692 55.671,47.419 51.862,47.419 55.428,37.456 55.671,38.189 
		55.671,38.189 	"/>
	<polygon fill-rule="evenodd" clip-rule="evenodd" fill="#FFFFFF" points="99.721,31.255 99.721,37.164 106.997,37.164 
		106.997,55.185 112.906,55.185 112.906,37.164 119.841,37.164 119.841,31.255 99.721,31.255 99.721,31.255 	"/>
	<polygon fill-rule="evenodd" clip-rule="evenodd" fill="#FFFFFF" points="155.393,31.255 155.295,44.685 145.919,31.255 
		140.107,31.255 140.107,55.185 145.87,55.185 145.87,42.487 154.758,55.185 161.253,55.185 161.253,31.255 155.393,31.255 
		155.393,31.255 	"/>
	<polygon fill-rule="evenodd" clip-rule="evenodd" fill="#FFFFFF" points="131.562,55.185 131.562,31.255 125.457,31.255 
		125.457,55.185 131.562,55.185 131.562,55.185 	"/>
	<polygon fill-rule="evenodd" clip-rule="evenodd" fill="#FFFFFF" points="175.708,55.185 175.708,31.255 169.604,31.255 
		169.604,55.185 175.708,55.185 175.708,55.185 	"/>
</g>
</svg>
