<?xml version="1.0" encoding="utf-8"?>
<!-- Generator: Adobe Illustrator 16.0.0, SVG Export Plug-In . SVG Version: 6.00 Build 0)  -->
<!DOCTYPE svg PUBLIC "-//W3C//DTD SVG 1.1//EN" "http://www.w3.org/Graphics/SVG/1.1/DTD/svg11.dtd">
<svg version="1.1" id="Layer_1" xmlns="http://www.w3.org/2000/svg" xmlns:xlink="http://www.w3.org/1999/xlink" x="0px" y="0px"
	 width="238.592px" height="98.877px" viewBox="0 0 238.592 98.877" enable-background="new 0 0 238.592 98.877"
	 xml:space="preserve">
<g>
	<path d="M181.678,0.752L181.678,0.752c-4.512,0.9-9.877,2.697-14.34,4.808c0,0-0.156,0.072-0.254,0.117
		c-0.105-0.04-0.266-0.098-0.266-0.098c-1.615-0.6-3.162-0.983-4.727-1.175c-2.844-0.356-5.883-0.232-9.029,0.365
		c-2.648,0.499-5.436,1.425-8.529,2.829c0,0-0.494,0.22-0.828,0.376c-0.039-0.314-0.127-0.982-0.127-0.982l-0.713,0.096
		l-31.589,4.305c0,0,2.061,15.111,2.133,15.628c-0.285,0.016-0.723,0.044-0.723,0.044c-0.017,0-2.745,0.171-4.064,0.43
		c-2.8,0.547-5.392,1.57-7.3,2.88c0,0-0.545,0.374-0.902,0.618c-0.027-0.217-0.057-0.434-0.057-0.434
		c-0.93-6.812-5.127-11.693-12.141-14.121C83.517,14.8,77.607,14.562,71.58,15.76c-4.508,0.896-9.869,2.694-14.34,4.796
		c0,0-0.152,0.076-0.254,0.121c-0.104-0.037-0.264-0.096-0.264-0.096c-1.648-0.606-3.193-0.99-4.727-1.177
		c-2.861-0.353-5.898-0.228-9.037,0.37c-2.639,0.497-5.426,1.424-8.525,2.828c0,0-0.494,0.228-0.822,0.373
		c-0.041-0.315-0.131-0.979-0.131-0.979l-32.3,4.4l2.918,21.418l0.617,0.008c1.561,0.02,2.68,0.308,3.328,0.871
		c1.297,1.127,1.521,2.139,1.695,3.448c0.004,0.004,0.092,0.653,3.145,23.037l0.004-0.004c-0.002,0.043,0.004,0.09,0.01,0.131
		c0.016,0.11,0.023,0.233,0.023,0.362c-0.008,0.708-0.295,1.644-1.102,2.456c-0.439,0.459-1.119,0.857-2.014,1.191l-0.533,0.2
		l2.373,17.413L111.8,83.287c0,0-1.811-13.271-1.89-13.868c0.332,0.03,0.837,0.077,0.837,0.077c2.888,0.26,6.79-0.434,8.317-1.048
		l-0.098,0.017l0.578-0.211c0,0,0.158-0.063,0.322-0.131c0.082,0.61,1.879,13.805,1.879,13.805l98.518-13.422
		c0,0-3.064-22.585-3.137-23.071c0.479-0.066,10.473-1.452,10.473-1.452c3.822-0.516,7.031-2.264,9.045-4.919
		c1.26-1.653,1.932-3.496,1.947-5.331l-0.066-1.069l-2.951-21.688c0,0-7.201,0.98-7.668,1.045c-0.057-0.449-0.623-4.795-0.623-4.795
		c-0.246-1.652-0.949-2.918-2.096-3.771c-1.164-0.862-2.66-1.208-4.215-0.979c-0.002,0-15.555,2.12-16.648,2.27
		c-0.092-0.071-0.225-0.176-0.225-0.176c-1.701-1.346-3.645-2.401-5.777-3.138C193.609-0.204,187.701-0.448,181.678,0.752z"/>
	<path d="M181.727,0.998L181.727,0.998c-4.492,0.896-9.832,2.686-14.281,4.785c0,0-0.195,0.092-0.354,0.168
		c-0.16-0.062-0.363-0.138-0.363-0.138c-1.598-0.594-3.125-0.974-4.666-1.16c-2.818-0.354-5.83-0.232-8.955,0.364
		c-2.627,0.493-5.396,1.412-8.473,2.806c0,0-0.637,0.291-1.135,0.519c-0.041-0.304-0.137-1.064-0.137-1.064l-0.465,0.06
		l-31.338,4.269c0,0,2.004,14.72,2.133,15.646c-0.44,0.027-0.992,0.061-0.992,0.061c-0.025,0.005-2.732,0.174-4.032,0.427
		c-2.767,0.541-5.325,1.55-7.208,2.842c0,0-0.693,0.477-1.232,0.844c-0.057-0.412-0.111-0.836-0.111-0.836
		c-0.916-6.711-5.057-11.521-11.975-13.915c-4.666-1.621-10.531-1.86-16.514-0.67c-4.494,0.895-9.832,2.684-14.279,4.781
		c0,0-0.197,0.091-0.354,0.164c-0.162-0.06-0.361-0.133-0.361-0.133c-1.631-0.599-3.156-0.978-4.672-1.164
		c-2.832-0.347-5.846-0.224-8.959,0.367c-2.619,0.496-5.387,1.415-8.463,2.811c0,0-0.629,0.285-1.129,0.512
		c-0.041-0.3-0.146-1.063-0.146-1.063L1.461,26.611L4.318,47.57l0.398,0.004c1.621,0.019,2.797,0.328,3.488,0.93
		c1.361,1.185,1.607,2.286,1.785,3.606l3.139,23.035c-0.004-0.009,0.018,0.131,0.018,0.131c0.109,0.794-0.137,2.002-1.148,3.027
		c-0.469,0.479-1.176,0.9-2.107,1.25l-0.342,0.129l2.309,16.969l99.657-13.579c0,0-1.748-12.87-1.895-13.93
		c0.512,0.041,1.15,0.1,1.15,0.1c2.854,0.258,6.701-0.423,8.199-1.027c0.002,0,0.621-0.247,1.098-0.441
		c0.15,1.08,1.893,13.87,1.893,13.87l0.459-0.058l97.566-13.293c0,0-3.016-22.194-3.135-23.073c0.84-0.12,10.717-1.483,10.717-1.483
		c3.752-0.513,6.906-2.227,8.881-4.824c1.227-1.612,1.879-3.421,1.895-5.184c0.004-0.347-0.014-0.691-0.059-1.029l-2.924-21.441
		c0,0-6.852,0.934-7.67,1.042c-0.1-0.773-0.654-5.041-0.654-5.041c-0.236-1.582-0.908-2.79-2-3.604
		c-1.109-0.821-2.537-1.152-4.025-0.929c0,0-14.877,2.026-16.76,2.28c-0.141-0.106-0.307-0.24-0.307-0.24
		c-1.678-1.33-3.6-2.37-5.701-3.099C193.572,0.048,187.707-0.189,181.727,0.998z"/>
	<path d="M11.625,77.972c0.121,0.872-0.117,2.225-1.279,3.403c-0.633,0.647-1.531,1.077-2.27,1.357
		c0.254,1.868,1.896,13.939,2.199,16.145c2.637-0.358,96.099-13.095,98.739-13.451c-0.307-2.243-1.915-14.055-1.915-14.055
		l1.735,0.159c2.785,0.25,6.523-0.413,7.98-0.998l1.654-0.667c0,0,1.604,11.764,1.906,14.007
		c2.635-0.362,94.475-12.873,97.107-13.231c-0.334-2.43-3.135-23.07-3.135-23.07l11.176-1.548
		c7.123-0.974,10.902-6.214,10.314-10.518c0,0-2.527-18.56-2.855-20.981c-1.854,0.255-7.674,1.05-7.674,1.05l-0.717-5.509
		c-0.213-1.455-0.836-2.562-1.814-3.289c-1.004-0.749-2.314-1.05-3.68-0.844l-16.963,2.308l-0.461-0.366
		c-1.629-1.288-3.494-2.304-5.566-3.021c-4.592-1.593-10.373-1.824-16.27-0.652c-4.459,0.89-9.754,2.662-14.176,4.75l-0.529,0.248
		l-0.545-0.2c-1.568-0.583-3.059-0.952-4.562-1.137c-2.777-0.349-5.74-0.225-8.814,0.357c-2.584,0.486-5.32,1.393-8.369,2.774
		l-1.701,0.777c0,0-0.092-0.679-0.162-1.228c-2.436,0.334-28.459,3.878-30.877,4.21c0.313,2.3,2.135,15.679,2.135,15.679
		l-1.487,0.095c-0.025,0-2.703,0.168-3.974,0.418c-2.703,0.526-5.203,1.51-7.031,2.767l-1.855,1.271l-0.215-1.585
		c-0.889-6.522-4.924-11.204-11.664-13.538c-4.594-1.599-10.371-1.829-16.271-0.654c-4.457,0.892-9.754,2.663-14.174,4.746
		l-0.529,0.249l-0.541-0.203c-1.586-0.578-3.078-0.953-4.566-1.138c-2.785-0.342-5.748-0.221-8.818,0.364
		c-2.576,0.485-5.309,1.392-8.359,2.775l-1.695,0.771c0,0-0.092-0.677-0.166-1.223C28.464,25.876,2.42,29.422,0,29.754
		C0.311,32.038,2.459,47.8,2.742,49.855c1.182,0.017,2.791,0.185,3.783,1.043c1.482,1.286,1.756,2.523,1.943,3.895l3.137,23.037
		L11.625,77.972z"/>
	<path fill="#FFFFFF" d="M181.816,1.454c-4.453,0.887-9.752,2.662-14.176,4.747l-0.527,0.251l-0.543-0.204
		c-1.566-0.579-3.057-0.948-4.562-1.134c-2.777-0.348-5.74-0.229-8.816,0.357c-2.582,0.485-5.318,1.395-8.363,2.775l-1.709,0.775
		c0,0-0.09-0.679-0.158-1.226c-2.436,0.332-28.459,3.877-30.878,4.206c0.311,2.303,2.137,15.68,2.137,15.68l-1.489,0.094
		c-0.029,0.002-2.705,0.169-3.974,0.418c-2.704,0.53-5.204,1.515-7.032,2.77l-1.855,1.271l-0.215-1.58
		c-0.891-6.529-4.922-11.21-11.662-13.541c-4.594-1.6-10.373-1.829-16.275-0.658c-4.455,0.893-9.756,2.666-14.172,4.748
		l-0.527,0.251l-0.541-0.202c-1.586-0.581-3.078-0.957-4.57-1.138c-2.783-0.346-5.746-0.222-8.814,0.362
		c-2.578,0.486-5.311,1.394-8.359,2.775l-1.699,0.77c0,0-0.092-0.676-0.164-1.225c-2.424,0.332-28.468,3.881-30.884,4.21
		c0.309,2.285,2.457,18.044,2.736,20.104c1.184,0.011,2.797,0.183,3.789,1.042c1.48,1.287,1.752,2.523,1.939,3.892l3.137,23.035
		l-0.207-0.562c0.104,0.16,0.186,0.405,0.227,0.702c0.119,0.874-0.119,2.229-1.275,3.408c-0.637,0.648-1.531,1.072-2.273,1.356
		c0.256,1.873,1.898,13.942,2.199,16.145c2.635-0.36,96.099-13.097,98.739-13.455c-0.307-2.239-1.915-14.051-1.915-14.051
		l1.733,0.16c2.787,0.25,6.529-0.413,7.982-0.997l1.654-0.671c0,0,1.605,11.769,1.904,14.005
		c2.639-0.355,94.475-12.865,97.111-13.228c-0.336-2.432-3.139-23.074-3.139-23.074l11.176-1.543
		c7.125-0.972,10.906-6.216,10.32-10.518c0,0-2.531-18.559-2.863-20.98c-1.846,0.251-7.668,1.045-7.668,1.045l-0.719-5.507
		c-0.213-1.453-0.836-2.563-1.811-3.287c-1.01-0.75-2.316-1.05-3.684-0.846l-16.967,2.311l-0.455-0.367
		c-1.631-1.29-3.496-2.305-5.564-3.021C193.494,0.513,187.715,0.281,181.816,1.454z"/>
	
		<linearGradient id="SVGID_1_" gradientUnits="userSpaceOnUse" x1="480.8271" y1="1475.1562" x2="480.8271" y2="1408.8867" gradientTransform="matrix(0.9167 -0.1249 0.1249 0.9167 -454.2493 -1222.5862)">
		<stop  offset="0.0055" style="stop-color:#4B2510"/>
		<stop  offset="0.4785" style="stop-color:#4C2712"/>
		<stop  offset="0.649" style="stop-color:#522D19"/>
		<stop  offset="0.7704" style="stop-color:#5D3724"/>
		<stop  offset="0.8686" style="stop-color:#6A4532"/>
		<stop  offset="0.9517" style="stop-color:#7B5643"/>
		<stop  offset="1" style="stop-color:#886452"/>
	</linearGradient>
	<path fill="url(#SVGID_1_)" d="M211.799,52.601c-1.203-0.774-1.979-1.917-2.137-3.121l-4.475-32.837
		c-0.725-4.908-3.686-8.387-8.568-10.075c-3.809-1.326-8.688-1.488-13.748-0.48c-4.076,0.815-10.477,2.767-15.588,5.611
		c-1.645-0.989-3.578-1.636-5.754-1.899c-2.26-0.28-4.721-0.184-7.328,0.313c-4.238,0.797-8.576,2.584-11.908,4.909l-2.84,1.979
		l-0.525-3.872l-21.291,2.902l1.539,11.315c2.707,0.08,5.281,1.826,5.602,3.985l3.975,29.178c0.168,1.197-0.275,2.496-1.223,3.569
		c-0.609,0.71-1.391,1.252-2.268,1.614l1.342,9.869l26.266-3.577l-1.346-9.871c-0.945-0.108-1.836-0.428-2.619-0.946
		c-1.199-0.777-1.977-1.913-2.133-3.119l-3.992-29.284c-0.131-0.922,0.064-1.791,0.68-2.678c0.992-1.54,3.002-2.815,5.842-3.197
		c3.941-0.53,6.559,1.657,6.838,3.566l6.031,44.26l22.146-3.015l-1.342-9.871c-0.949-0.11-1.848-0.43-2.627-0.947
		c-1.197-0.776-1.965-1.914-2.135-3.115l-3.975-29.211c-0.135-0.91,0.064-1.784,0.676-2.668c0.992-1.541,3-2.825,5.844-3.208
		c3.939-0.523,6.559,1.662,6.842,3.57l6.018,44.178l22.139-3.011l-1.342-9.873C213.471,53.433,212.576,53.119,211.799,52.601z"/>
	<path fill="#FFFFFF" d="M100.55,37.222c-0.553,1.37-0.746,2.844-0.551,4.266c0,0.004,0,0.017,0.004,0.026
		c0.334,2.421,1.404,4.048,2.727,5.416c-2.611,2.251-4.875,5.245-4.42,9.49c0.008,0.101,0.021,0.209,0.031,0.313
		c0.354,2.572,1.645,4.802,3.764,6.47c2.887,2.271,7.075,3.237,11.493,2.656c3.056-0.397,5.941-1.662,8.566-3.416
		c0.648,0.508,2.035,1.603,2.035,1.603l10.975-1.498l-2.607-19.154l-10.934,1.493l-0.391,1.383
		c-0.145,0.519-0.484,1.067-0.701,1.604c-0.5-0.387-0.543-0.414-1.029-0.8c2.303-2.174,4.227-4.962,3.727-8.624l-0.004-0.027
		c-0.746-5.362-6.376-8.739-13.092-7.857C105.572,31.168,101.984,33.66,100.55,37.222z"/>
	
		<linearGradient id="SVGID_2_" gradientUnits="userSpaceOnUse" x1="367.9756" y1="1137.1133" x2="367.9756" y2="1105.8887" gradientTransform="matrix(0.9999 0.0092 -0.0092 0.9999 -240.9598 -1076.4614)">
		<stop  offset="0.0055" style="stop-color:#4B2510"/>
		<stop  offset="0.4785" style="stop-color:#4C2712"/>
		<stop  offset="0.649" style="stop-color:#522D19"/>
		<stop  offset="0.7704" style="stop-color:#5D3724"/>
		<stop  offset="0.8686" style="stop-color:#6A4532"/>
		<stop  offset="0.9517" style="stop-color:#7B5643"/>
		<stop  offset="1" style="stop-color:#886452"/>
	</linearGradient>
	<path fill="url(#SVGID_2_)" d="M111.198,36.943c1.924-0.265,3.541,0.663,3.756,2.26c0.234,1.658-1.428,3.023-3.517,4.379
		c-1.194-0.894-3.086-2.247-3.233-3.355C107.979,38.63,109.276,37.204,111.198,36.943z M112.741,58.353
		c-2.671,0.355-5.004-0.618-5.335-2.973c-0.195-1.411,1.297-2.896,3.5-4.569l6.631,5.204
		C116.044,57.271,114.409,58.14,112.741,58.353z M132.061,55.938l-4.055,0.555l-1.555-1.221c0.654-0.992,1.209-2.048,1.674-3.159
		c0.145-0.359,0.287-0.715,0.416-1.088l2.793-0.378l-0.646-4.778l-7.336,1c-0.424,1.494-1.098,3.021-1.953,4.472l-5.364-4.199
		c2.961-2.267,5.516-4.921,5.02-8.417c-0.547-3.939-4.871-6.737-10.625-5.983c-4.117,0.546-6.816,2.746-7.844,5.303
		c-0.412,1.021-0.553,2.116-0.408,3.168c0.365,2.607,1.67,4.013,3.938,5.84c-3.268,2.318-6.055,5.064-5.627,9.134
		c0.561,5.301,6.162,8.377,12.825,7.493c3.353-0.43,6.455-1.826,9.033-3.887l2.477,1.948l7.879-1.074L132.061,55.938z"/>
	
		<linearGradient id="SVGID_3_" gradientUnits="userSpaceOnUse" x1="360.7246" y1="1475.1641" x2="360.7246" y2="1408.8906" gradientTransform="matrix(0.9167 -0.1249 0.1249 0.9167 -454.2493 -1222.5862)">
		<stop  offset="0.0055" style="stop-color:#4B2510"/>
		<stop  offset="0.4785" style="stop-color:#4C2712"/>
		<stop  offset="0.649" style="stop-color:#522D19"/>
		<stop  offset="0.7704" style="stop-color:#5D3724"/>
		<stop  offset="0.8686" style="stop-color:#6A4532"/>
		<stop  offset="0.9517" style="stop-color:#7B5643"/>
		<stop  offset="1" style="stop-color:#886452"/>
	</linearGradient>
	<path fill="url(#SVGID_3_)" d="M101.695,67.604c-1.201-0.77-1.975-1.916-2.135-3.119l-4.477-32.836
		c-0.719-4.904-3.68-8.389-8.564-10.081c-3.809-1.316-8.688-1.481-13.746-0.476c-4.084,0.809-10.477,2.766-15.588,5.612
		c-1.646-0.992-3.578-1.635-5.76-1.904c-2.256-0.279-4.721-0.178-7.32,0.32c-4.244,0.794-8.578,2.579-11.908,4.906l-2.844,1.977
		l-0.523-3.87L7.537,31.035l1.543,11.31c2.707,0.08,5.277,1.835,5.602,3.993l3.969,29.17c0.168,1.205-0.27,2.509-1.219,3.575
		c-0.615,0.714-1.391,1.253-2.268,1.615l1.342,9.871l26.261-3.578l-1.344-9.871c-0.945-0.114-1.838-0.43-2.619-0.947
		c-1.203-0.771-1.977-1.916-2.139-3.119l-3.988-29.286c-0.133-0.913,0.064-1.789,0.678-2.68c0.998-1.539,3.002-2.812,5.844-3.194
		c3.941-0.527,6.561,1.66,6.844,3.565l6.029,44.264l22.145-3.013l-1.344-9.875c-0.951-0.115-1.844-0.424-2.625-0.946
		c-1.197-0.773-1.973-1.913-2.129-3.117l-3.979-29.21c-0.143-0.915,0.059-1.785,0.67-2.675c1-1.533,3.004-2.818,5.848-3.202
		c3.938-0.527,6.553,1.665,6.842,3.564l6.02,44.191l22.143-3.019l-1.35-9.869C103.369,68.437,102.474,68.121,101.695,67.604z"/>
	<path d="M146.771,58.049l-3.992-29.284c-0.07-0.473-0.049-0.94,0.074-1.399c-0.623,0.46-1.168,0.968-1.527,1.529
		c-0.615,0.885-0.814,1.762-0.678,2.677l3.986,29.284c0.164,1.205,0.936,2.35,2.135,3.121c0.783,0.518,1.68,0.833,2.623,0.947
		l1.008,7.401l2.469-0.34l-1.346-9.871c-0.945-0.108-1.836-0.428-2.619-0.946C147.705,60.391,146.928,59.255,146.771,58.049z"/>
	<path d="M211.799,52.601c-1.203-0.774-1.979-1.917-2.137-3.121l-4.475-32.837c-0.725-4.908-3.686-8.387-8.568-10.075
		c-3.809-1.326-8.688-1.488-13.748-0.48c-4.076,0.815-10.477,2.767-15.588,5.611c-1.645-0.989-3.578-1.636-5.754-1.899
		c-2.26-0.28-4.721-0.184-7.328,0.313c-4.238,0.797-8.576,2.584-11.908,4.909l-2.84,1.979l-0.525-3.872l-21.291,2.902l0.336,2.47
		l18.822-2.566l0.525,3.868l2.838-1.981c3.336-2.316,7.676-4.105,11.918-4.902c2.596-0.494,5.061-0.597,7.316-0.312
		c2.18,0.267,4.113,0.907,5.758,1.894c5.115-2.841,11.504-4.797,15.598-5.608c5.053-1.007,9.936-0.841,13.742,0.48
		c4.885,1.688,7.844,5.173,8.562,10.072l4.482,32.844c0.16,1.197,0.932,2.343,2.133,3.119c0.779,0.516,1.676,0.831,2.619,0.947
		l1.004,7.401l2.465-0.338l-1.342-9.873C213.471,53.433,212.576,53.119,211.799,52.601z"/>
	<path d="M178.213,53.768l-3.975-29.211c-0.07-0.474-0.051-0.937,0.084-1.397c-0.635,0.463-1.174,0.97-1.541,1.531
		c-0.609,0.888-0.816,1.757-0.68,2.671l3.98,29.21c0.162,1.201,0.934,2.346,2.133,3.121c0.781,0.516,1.678,0.833,2.625,0.944
		l1.006,7.402l2.471-0.338l-1.342-9.871c-0.949-0.11-1.848-0.43-2.627-0.947C179.15,56.106,178.383,54.969,178.213,53.768z"/>
	<path d="M36.666,73.054l-3.988-29.286c-0.066-0.47-0.041-0.938,0.078-1.396c-0.623,0.46-1.168,0.966-1.531,1.524
		c-0.613,0.886-0.811,1.76-0.68,2.679l3.992,29.288c0.16,1.202,0.934,2.344,2.135,3.119c0.781,0.514,1.676,0.829,2.615,0.941
		l1.012,7.405l2.469-0.338l-1.344-9.871c-0.945-0.114-1.838-0.43-2.619-0.947C37.601,75.401,36.828,74.257,36.666,73.054z"/>
	<path d="M68.119,68.771l-3.979-29.21c-0.074-0.473-0.051-0.938,0.074-1.396c-0.629,0.462-1.172,0.968-1.537,1.529
		c-0.609,0.888-0.814,1.764-0.674,2.672l3.979,29.207c0.16,1.203,0.932,2.345,2.133,3.121c0.781,0.518,1.678,0.835,2.623,0.945
		l1.008,7.4l2.471-0.331l-1.344-9.875c-0.951-0.115-1.844-0.424-2.625-0.946C69.05,71.115,68.275,69.976,68.119,68.771z"/>
	<path d="M99.56,64.484l-4.477-32.836c-0.719-4.904-3.68-8.389-8.564-10.081c-3.809-1.316-8.688-1.481-13.746-0.476
		c-4.084,0.809-10.477,2.766-15.588,5.612c-1.646-0.992-3.578-1.635-5.76-1.904c-2.256-0.279-4.721-0.178-7.32,0.32
		c-4.244,0.794-8.578,2.579-11.908,4.906l-2.844,1.977l-0.523-3.87L7.537,31.035l0.338,2.473l18.822-2.569l0.523,3.868l2.842-1.979
		c3.328-2.323,7.664-4.112,11.91-4.906c2.604-0.494,5.066-0.6,7.318-0.315c2.18,0.271,4.115,0.907,5.758,1.896
		c5.117-2.843,11.506-4.791,15.592-5.604c5.057-1.009,9.938-0.841,13.744,0.476c4.885,1.691,7.844,5.176,8.566,10.078l4.473,32.841
		c0.164,1.203,0.938,2.352,2.141,3.117c0.777,0.52,1.674,0.837,2.613,0.947l1.008,7.403l2.477-0.338l-1.35-9.869
		c-0.943-0.116-1.838-0.432-2.617-0.949C100.494,66.834,99.72,65.688,99.56,64.484z"/>
	
		<linearGradient id="SVGID_4_" gradientUnits="userSpaceOnUse" x1="544.8359" y1="1450.5771" x2="544.8359" y2="1425.2246" gradientTransform="matrix(0.9167 -0.1249 0.1249 0.9167 -454.2493 -1222.5862)">
		<stop  offset="0.0055" style="stop-color:#4B2510"/>
		<stop  offset="0.4785" style="stop-color:#4C2712"/>
		<stop  offset="0.649" style="stop-color:#522D19"/>
		<stop  offset="0.7704" style="stop-color:#5D3724"/>
		<stop  offset="0.8686" style="stop-color:#6A4532"/>
		<stop  offset="0.9517" style="stop-color:#7B5643"/>
		<stop  offset="1" style="stop-color:#886452"/>
	</linearGradient>
	<path fill="url(#SVGID_4_)" d="M235.262,30.847c-0.463-3.401-3.596-5.18-7.43-5.87c-1.674-0.294-3.348-0.454-4.822-0.76
		c-1.045-0.247-2.328-0.544-2.559-1.811c-0.219-1.218,0.83-2.589,3.227-2.831c2.994-0.296,4.93,1.681,5.967,3.306l3.146-0.431
		l-1.01-7.432l-4.129,0.523l-0.35,0.59c-0.969-0.24-2.816-0.445-5.275-0.137c-4.674,0.604-8.26,3.85-7.727,7.92
		c0.449,3.278,3.264,4.979,6.836,5.656c1.717,0.33,3.795,0.555,5.307,0.885c1.061,0.258,2.383,0.595,2.629,1.936
		c0.227,1.298-0.846,2.68-3.291,2.999c-3.035,0.389-5.014-1.815-6.303-3.584l-3.314,0.424l1.049,7.688l4.582-0.619l0.359-0.679
		c1.27,0.36,4.553,0.816,7.439-0.19C233.215,37.167,235.725,34.242,235.262,30.847z"/>
	
		<linearGradient id="SVGID_5_" gradientUnits="userSpaceOnUse" x1="466.8076" y1="1088.7471" x2="466.8076" y2="1081.0488" gradientTransform="matrix(0.9999 0.0092 -0.0092 0.9999 -244.952 -1076.4985)">
		<stop  offset="0.0055" style="stop-color:#4B2510"/>
		<stop  offset="0.4785" style="stop-color:#4C2712"/>
		<stop  offset="0.649" style="stop-color:#522D19"/>
		<stop  offset="0.7704" style="stop-color:#5D3724"/>
		<stop  offset="0.8686" style="stop-color:#6A4532"/>
		<stop  offset="0.9517" style="stop-color:#7B5643"/>
		<stop  offset="1" style="stop-color:#886452"/>
	</linearGradient>
	<polygon fill="url(#SVGID_5_)" points="210.203,9.444 215.352,8.758 213.469,15.695 208.307,16.392 210.203,9.444 	"/>
	<path d="M121.152,51.146l-4.79-3.745c-0.448,0.393-0.912,0.782-1.396,1.142l5.363,4.2
		C120.643,52.221,120.898,51.677,121.152,51.146z"/>
	<path d="M111.675,59.761c1.67-0.22,3.302-1.081,4.795-2.34l-0.426-0.336c-1.063,0.663-2.178,1.122-3.304,1.268
		c-2.671,0.355-5.004-0.618-5.335-2.973c-0.061-0.443,0.055-0.888,0.296-1.347c-0.956,0.967-1.483,1.872-1.362,2.749
		C106.669,59.136,109.005,60.112,111.675,59.761z"/>
	<path d="M109.363,34.144c5.754-0.755,10.081,2.045,10.629,5.987c0.23,1.641-0.229,3.093-1.068,4.408
		c1.496-1.676,2.451-3.569,2.131-5.815c-0.547-3.939-4.871-6.737-10.625-5.983c-3.635,0.481-6.16,2.264-7.408,4.427
		C104.429,35.669,106.554,34.515,109.363,34.144z"/>
	<path d="M123.352,46.868c-0.119,0.44-0.309,0.881-0.479,1.325l6.746-0.926l0.482,3.545l1.232-0.166l-0.646-4.778L123.352,46.868z"
		/>
	<path d="M126.451,55.271c0.605-0.917,1.119-1.899,1.555-2.916l-0.529,0.073c-0.133,0.371-0.275,0.725-0.42,1.089
		c-0.459,1.107-1.02,2.166-1.674,3.16l1.555,1.216l4.053-0.551l0.477,3.49l1.234-0.168l-0.641-4.728l-4.055,0.555L126.451,55.271z"
		/>
	<path d="M107.136,41.627c0.15,1.11,2.043,2.468,3.232,3.36c1.531-0.995,2.818-1.993,3.315-3.103
		c-0.613,0.58-1.386,1.134-2.247,1.697c-1.194-0.894-3.086-2.247-3.233-3.355c-0.062-0.409-0.018-0.804,0.109-1.171
		C107.468,39.678,106.994,40.622,107.136,41.627z"/>
	<path d="M220.963,17.398c2.459-0.316,4.311-0.108,5.275,0.139l0.354-0.587l4.123-0.53l0.844,6.198l1.232-0.168l-1.01-7.432
		l-4.129,0.523l-0.35,0.59c-0.969-0.24-2.816-0.445-5.275-0.137c-3.059,0.394-5.631,1.945-6.912,4.101
		C216.531,18.678,218.605,17.706,220.963,17.398z"/>
	<path d="M227.832,24.977c-1.674-0.294-3.348-0.454-4.822-0.76c-1.045-0.247-2.328-0.544-2.559-1.811
		c-0.041-0.226,0.006-0.458,0.051-0.69c-0.844,0.565-1.254,1.348-1.119,2.097c0.229,1.262,1.514,1.562,2.555,1.806
		c1.479,0.312,3.154,0.47,4.822,0.763c3.838,0.689,6.973,2.468,7.438,5.87c0.188,1.354-0.121,2.626-0.764,3.762
		c1.352-1.417,2.098-3.206,1.828-5.166C234.799,27.445,231.666,25.667,227.832,24.977z"/>
	<path d="M219.479,31.807l-3.314,0.424l0.172,1.244l2.072-0.264c1.297,1.769,3.271,3.975,6.309,3.582
		c1.949-0.255,2.992-1.188,3.23-2.212c-0.543,0.375-1.225,0.688-2.166,0.81C222.746,35.779,220.768,33.575,219.479,31.807z"/>
	<polygon points="210.203,9.444 209.846,10.753 214.291,10.161 212.762,15.794 213.469,15.695 215.352,8.758 	"/>
	<g>
		<path fill="#4B2510" d="M218.342,8.354c-0.27-1.904,1.059-3.683,2.986-3.955c1.898-0.271,3.684,1.068,3.951,2.974
			c0.27,1.91-1.07,3.692-2.973,3.961C220.381,11.605,218.613,10.268,218.342,8.354z M224.627,7.466
			c-0.221-1.56-1.652-2.634-3.211-2.411c-1.566,0.221-2.641,1.649-2.422,3.208c0.221,1.568,1.65,2.644,3.221,2.42
			C223.773,10.462,224.848,9.033,224.627,7.466z M223.805,9.504l-0.857,0.121l-1.053-1.459l-0.734,0.105l0.223,1.576l-0.732,0.104
			l-0.531-3.735l1.818-0.257c0.316-0.046,0.732-0.095,1.035,0.027c0.367,0.172,0.52,0.519,0.572,0.909
			c0.1,0.689-0.213,1.02-0.871,1.158L223.805,9.504z M222.178,7.553c0.418-0.051,0.695-0.19,0.627-0.662
			c-0.07-0.5-0.602-0.422-0.969-0.371l-0.904,0.129l0.15,1.061L222.178,7.553z"/>
	</g>
	<g>
		<g>
			<g>
				<path fill="#4B2510" d="M45.89,96.625L45.89,96.625C45.89,96.608,45.89,96.64,45.89,96.625z"/>
			</g>
		</g>
	</g>
</g>
<g>
	<g>
		<g>
			
				<path fill-rule="evenodd" clip-rule="evenodd" fill="#FFFFFF" stroke="#4B2510" stroke-width="2" stroke-linecap="round" stroke-linejoin="round" d="
				M221.359,53.074l0.16-0.023c0.078-0.008,0.156-0.016,0.232-0.028c0.076-0.01,0.146-0.033,0.211-0.071
				c0.09-0.062,0.143-0.149,0.156-0.259c0.016-0.109,0.014-0.217-0.002-0.323c-0.021-0.216-0.076-0.366-0.162-0.454
				c-0.088-0.09-0.244-0.118-0.469-0.087l-0.287,0.036L221.359,53.074z M221.123,51.28l0.139-0.018
				c0.094-0.011,0.191-0.027,0.289-0.053c0.096-0.025,0.17-0.076,0.223-0.156c0.025-0.056,0.041-0.117,0.043-0.19
				c0-0.071-0.008-0.155-0.021-0.252c-0.014-0.147-0.053-0.258-0.117-0.327c-0.064-0.067-0.182-0.093-0.348-0.078l-0.346,0.045
				L221.123,51.28z M222.006,53.585l-1.311,0.17l-0.533-3.992l1.201-0.156c0.164-0.025,0.318-0.029,0.471-0.014
				c0.148,0.014,0.291,0.081,0.414,0.197c0.1,0.099,0.168,0.203,0.209,0.318s0.068,0.239,0.084,0.374
				c0.029,0.178,0.021,0.344-0.021,0.504c-0.045,0.159-0.158,0.29-0.344,0.395v0.012c0.215,0.004,0.373,0.083,0.488,0.234
				c0.111,0.149,0.182,0.355,0.217,0.616c0.023,0.164,0.029,0.331,0.01,0.497c-0.045,0.259-0.137,0.458-0.277,0.594
				C222.475,53.469,222.271,53.551,222.006,53.585z"/>
		</g>
		<g>
			
				<path fill-rule="evenodd" clip-rule="evenodd" fill="#FFFFFF" stroke="#4B2510" stroke-width="2" stroke-linecap="round" stroke-linejoin="round" d="
				M224.307,51.536l-0.135,0.017l0.229,1.72l-0.746,0.096l-0.527-3.99l1.408-0.185c0.328-0.047,0.605-0.016,0.834,0.101
				c0.23,0.114,0.371,0.351,0.426,0.713c0.021,0.146,0.025,0.291,0.012,0.433c-0.016,0.142-0.062,0.267-0.139,0.376
				c-0.074,0.108-0.195,0.185-0.357,0.232l0.002,0.011c0.221,0.003,0.387,0.064,0.484,0.183c0.104,0.115,0.166,0.273,0.188,0.468
				c0.008,0.045,0.016,0.129,0.031,0.249c0.018,0.122,0.037,0.254,0.068,0.397c0.027,0.144,0.059,0.271,0.1,0.383
				c0.035,0.112,0.08,0.182,0.131,0.211l0.008,0.073l-0.82,0.106c-0.039-0.084-0.074-0.187-0.102-0.309
				c-0.025-0.122-0.047-0.244-0.066-0.369c-0.018-0.124-0.033-0.23-0.047-0.323c-0.01-0.083-0.025-0.17-0.047-0.26
				c-0.018-0.09-0.051-0.17-0.096-0.237c-0.045-0.065-0.111-0.108-0.197-0.125c-0.105-0.013-0.211-0.017-0.32-0.007
				C224.52,51.508,224.412,51.521,224.307,51.536z M223.949,49.865l0.145,1.103l0.586-0.076c0.123-0.022,0.221-0.084,0.293-0.184
				c0.066-0.103,0.09-0.25,0.066-0.447c-0.029-0.216-0.092-0.355-0.186-0.412c-0.092-0.059-0.211-0.076-0.352-0.055L223.949,49.865z
				"/>
		</g>
		<g>
			
				<path fill-rule="evenodd" clip-rule="evenodd" fill="#FFFFFF" stroke="#4B2510" stroke-width="2" stroke-linecap="round" stroke-linejoin="round" d="
				M227.408,52.892l-0.797,0.103l0.42-4.116l1.006-0.129l1.434,3.873l-0.795,0.104l-0.332-0.984l-0.873,0.112L227.408,52.892z
				 M227.58,50.092l-0.07,1.161l0.637-0.082l-0.352-1.107c-0.057-0.181-0.107-0.362-0.15-0.543c-0.018-0.091-0.039-0.18-0.059-0.264
				l-0.012,0.002c0,0.087,0.002,0.176,0.008,0.271C227.59,49.714,227.59,49.902,227.58,50.092z"/>
		</g>
		<g>
			
				<path fill-rule="evenodd" clip-rule="evenodd" fill="#FFFFFF" stroke="#4B2510" stroke-width="2" stroke-linecap="round" stroke-linejoin="round" d="
				M231.232,49.135l-0.105-0.787l0.744-0.096l0.533,3.991l-0.777,0.1L230.857,51c-0.129-0.221-0.25-0.454-0.371-0.698
				c-0.119-0.245-0.242-0.516-0.371-0.815l-0.012,0.002c0.037,0.163,0.074,0.342,0.113,0.534c0.043,0.192,0.08,0.389,0.119,0.593
				c0.037,0.198,0.072,0.394,0.105,0.584c0.031,0.189,0.059,0.366,0.08,0.525l0.1,0.751l-0.748,0.095l-0.529-3.991l0.773-0.1
				l0.771,1.381c0.125,0.217,0.246,0.444,0.367,0.688c0.123,0.242,0.244,0.519,0.377,0.827l0.01-0.002
				c-0.074-0.362-0.15-0.735-0.225-1.122C231.342,49.867,231.281,49.495,231.232,49.135z"/>
		</g>
		<g>
			
				<path fill-rule="evenodd" clip-rule="evenodd" fill="#FFFFFF" stroke="#4B2510" stroke-width="2" stroke-linecap="round" stroke-linejoin="round" d="
				M233.814,51.458l0.324-0.042c0.217-0.025,0.373-0.091,0.461-0.196c0.09-0.104,0.133-0.271,0.131-0.493
				c-0.002-0.226-0.031-0.528-0.086-0.909c-0.055-0.468-0.135-0.8-0.236-0.997c-0.104-0.197-0.264-0.28-0.48-0.247l-0.49,0.062
				L233.814,51.458z M234.523,51.96l-1.377,0.181l-0.529-3.993l1.553-0.203c0.096-0.015,0.223-0.002,0.377,0.041
				c0.158,0.043,0.311,0.147,0.455,0.313c0.1,0.127,0.182,0.301,0.244,0.521c0.062,0.224,0.113,0.5,0.156,0.828
				c0.041,0.268,0.068,0.535,0.084,0.808c0.018,0.271-0.002,0.521-0.061,0.754c-0.057,0.232-0.178,0.423-0.363,0.573
				c-0.074,0.057-0.16,0.098-0.256,0.123C234.715,51.932,234.619,51.95,234.523,51.96z"/>
		</g>
	</g>
</g>
<g>
	<g>
		<g>
			<path fill-rule="evenodd" clip-rule="evenodd" fill="#FFFFFF" d="M221.359,53.074l0.16-0.023
				c0.078-0.008,0.156-0.016,0.232-0.028c0.076-0.01,0.146-0.033,0.211-0.071c0.09-0.062,0.143-0.149,0.156-0.259
				c0.016-0.109,0.014-0.217-0.002-0.323c-0.021-0.216-0.076-0.366-0.162-0.454c-0.088-0.09-0.244-0.118-0.469-0.087l-0.287,0.036
				L221.359,53.074z M221.123,51.28l0.139-0.018c0.094-0.011,0.191-0.027,0.289-0.053c0.096-0.025,0.17-0.076,0.223-0.156
				c0.025-0.056,0.041-0.117,0.043-0.19c0-0.071-0.008-0.155-0.021-0.252c-0.014-0.147-0.053-0.258-0.117-0.327
				c-0.064-0.067-0.182-0.093-0.348-0.078l-0.346,0.045L221.123,51.28z M222.006,53.585l-1.311,0.17l-0.533-3.992l1.201-0.156
				c0.164-0.025,0.318-0.029,0.471-0.014c0.148,0.014,0.291,0.081,0.414,0.197c0.1,0.099,0.168,0.203,0.209,0.318
				s0.068,0.239,0.084,0.374c0.029,0.178,0.021,0.344-0.021,0.504c-0.045,0.159-0.158,0.29-0.344,0.395v0.012
				c0.215,0.004,0.373,0.083,0.488,0.234c0.111,0.149,0.182,0.355,0.217,0.616c0.023,0.164,0.029,0.331,0.01,0.497
				c-0.045,0.259-0.137,0.458-0.277,0.594C222.475,53.469,222.271,53.551,222.006,53.585z"/>
		</g>
		<g>
			<path fill-rule="evenodd" clip-rule="evenodd" fill="#FFFFFF" d="M224.307,51.536l-0.135,0.017l0.229,1.72l-0.746,0.096
				l-0.527-3.99l1.408-0.185c0.328-0.047,0.605-0.016,0.834,0.101c0.23,0.114,0.371,0.351,0.426,0.713
				c0.021,0.146,0.025,0.291,0.012,0.433c-0.016,0.142-0.062,0.267-0.139,0.376c-0.074,0.108-0.195,0.185-0.357,0.232l0.002,0.011
				c0.221,0.003,0.387,0.064,0.484,0.183c0.104,0.115,0.166,0.273,0.188,0.468c0.008,0.045,0.016,0.129,0.031,0.249
				c0.018,0.122,0.037,0.254,0.068,0.397c0.027,0.144,0.059,0.271,0.1,0.383c0.035,0.112,0.08,0.182,0.131,0.211l0.008,0.073
				l-0.82,0.106c-0.039-0.084-0.074-0.187-0.102-0.309c-0.025-0.122-0.047-0.244-0.066-0.369c-0.018-0.124-0.033-0.23-0.047-0.323
				c-0.01-0.083-0.025-0.17-0.047-0.26c-0.018-0.09-0.051-0.17-0.096-0.237c-0.045-0.065-0.111-0.108-0.197-0.125
				c-0.105-0.013-0.211-0.017-0.32-0.007C224.52,51.508,224.412,51.521,224.307,51.536z M223.949,49.865l0.145,1.103l0.586-0.076
				c0.123-0.022,0.221-0.084,0.293-0.184c0.066-0.103,0.09-0.25,0.066-0.447c-0.029-0.216-0.092-0.355-0.186-0.412
				c-0.092-0.059-0.211-0.076-0.352-0.055L223.949,49.865z"/>
		</g>
		<g>
			<path fill-rule="evenodd" clip-rule="evenodd" fill="#FFFFFF" d="M227.408,52.892l-0.797,0.103l0.42-4.116l1.006-0.129
				l1.434,3.873l-0.795,0.104l-0.332-0.984l-0.873,0.112L227.408,52.892z M227.58,50.092l-0.07,1.161l0.637-0.082l-0.352-1.107
				c-0.057-0.181-0.107-0.362-0.15-0.543c-0.018-0.091-0.039-0.18-0.059-0.264l-0.012,0.002c0,0.087,0.002,0.176,0.008,0.271
				C227.59,49.714,227.59,49.902,227.58,50.092z"/>
		</g>
		<g>
			<path fill-rule="evenodd" clip-rule="evenodd" fill="#FFFFFF" d="M231.232,49.135l-0.105-0.787l0.744-0.096l0.533,3.991
				l-0.777,0.1L230.857,51c-0.129-0.221-0.25-0.454-0.371-0.698c-0.119-0.245-0.242-0.516-0.371-0.815l-0.012,0.002
				c0.037,0.163,0.074,0.342,0.113,0.534c0.043,0.192,0.08,0.389,0.119,0.593c0.037,0.198,0.072,0.394,0.105,0.584
				c0.031,0.189,0.059,0.366,0.08,0.525l0.1,0.751l-0.748,0.095l-0.529-3.991l0.773-0.1l0.771,1.381
				c0.125,0.217,0.246,0.444,0.367,0.688c0.123,0.242,0.244,0.519,0.377,0.827l0.01-0.002c-0.074-0.362-0.15-0.735-0.225-1.122
				C231.342,49.867,231.281,49.495,231.232,49.135z"/>
		</g>
		<g>
			<path fill-rule="evenodd" clip-rule="evenodd" fill="#FFFFFF" d="M233.814,51.458l0.324-0.042
				c0.217-0.025,0.373-0.091,0.461-0.196c0.09-0.104,0.133-0.271,0.131-0.493c-0.002-0.226-0.031-0.528-0.086-0.909
				c-0.055-0.468-0.135-0.8-0.236-0.997c-0.104-0.197-0.264-0.28-0.48-0.247l-0.49,0.062L233.814,51.458z M234.523,51.96
				l-1.377,0.181l-0.529-3.993l1.553-0.203c0.096-0.015,0.223-0.002,0.377,0.041c0.158,0.043,0.311,0.147,0.455,0.313
				c0.1,0.127,0.182,0.301,0.244,0.521c0.062,0.224,0.113,0.5,0.156,0.828c0.041,0.268,0.068,0.535,0.084,0.808
				c0.018,0.271-0.002,0.521-0.061,0.754c-0.057,0.232-0.178,0.423-0.363,0.573c-0.074,0.057-0.16,0.098-0.256,0.123
				C234.715,51.932,234.619,51.95,234.523,51.96z"/>
		</g>
	</g>
</g>
</svg>
