<?xml version="1.0" encoding="utf-8"?>
<!-- Generator: Adobe Illustrator 16.0.0, SVG Export Plug-In . SVG Version: 6.00 Build 0)  -->
<!DOCTYPE svg PUBLIC "-//W3C//DTD SVG 1.1//EN" "http://www.w3.org/Graphics/SVG/1.1/DTD/svg11.dtd">
<svg version="1.1" id="Layer_1" xmlns="http://www.w3.org/2000/svg" xmlns:xlink="http://www.w3.org/1999/xlink" x="0px" y="0px"
	 width="198.642px" height="203.573px" viewBox="0 0 198.642 203.573" enable-background="new 0 0 198.642 203.573"
	 xml:space="preserve">
<g>
	<polygon fill-rule="evenodd" clip-rule="evenodd" stroke="#1D1D1B" stroke-width="0.216" stroke-miterlimit="2.6131" points="
		0.108,0.108 198.533,0.108 198.533,203.465 0.108,203.465 0.108,0.108 	"/>
	
		<text transform="matrix(1.3101 0 0 1 40.7837 185.4238)" fill="#DB0000" font-family="'AdventureSubtitlesNormal-Medium'" font-size="12.1338" letter-spacing="8.397">ENER</text>
	
		<text transform="matrix(1.3101 0 0 1 128.3145 185.4238)" fill="#DB0000" font-family="'AdventureSubtitlesNormal-Medium'" font-size="12.1338" letter-spacing="7.633">GY</text>
	<path fill-rule="evenodd" clip-rule="evenodd" fill="#00FF00" d="M102.283,128.27c0,0.771,0.303,4.4-0.705,5.141
		c-0.27,1.814-1.547,2.654-2.185,4.301c-0.034,0.201-0.067,0.402-0.101,0.639c-0.067,0.033-0.135,0.066-0.202,0.135
		c-0.134-0.033-0.269-0.068-0.37-0.068c-0.067-0.402-0.134-0.771-0.201-1.143c0.101-1.578,0.706-2.922,0.907-4.469
		c0-0.438,0-0.873,0-1.277c0.101-0.033,0.235-0.066,0.37-0.066c0-0.033,0-0.033,0-0.033c0-1.143,0.033-2.285,0.067-3.395
		c0-0.135,0-0.268,0-0.369c-0.135-0.033-0.27-0.068-0.37-0.102c-0.302-1.107-0.706-2.25-0.706-3.395
		c-0.134-0.066-0.235-0.133-0.336-0.201c-0.067-0.906-0.772-1.377-1.377-1.982c-0.202-0.639-0.403-1.277-0.605-1.881
		c0.403-0.605,0.84-1.211,1.277-1.814c0.302-1.512-0.504-3.461-0.605-5.176c-0.134-0.504-0.269-0.975-0.403-1.445
		c0.303-0.672,0.739-1.311,0.739-2.049c-0.101-0.033-0.167-0.068-0.235-0.068c-0.638-1.646,0.941-3.863-0.604-5.074
		c-0.403-2.049-0.538-4.401-0.269-6.484c0-0.504,0-0.504,0.168-0.739c0.504-2.386-2.251-3.562-2.117-6.015
		c0.504-1.075,1.042-2.15,1.579-3.226c0.067-1.512,0.135-1.748,1.21-2.722c0.101-0.941,0.235-1.882,0.37-2.823
		c0-0.168,0-0.336,0-0.504c0.101,0,0.202,0,0.302,0c0.034-1.008-0.034-2.285,0.403-3.192c0.471-0.975,1.915-3.696,0.84-4.771
		c-0.404-1.579-0.874-2.89-1.008-4.537c-1.344-1.008-1.008-1.411-0.773-3.159c-0.302-2.621,0.672-5.275,0.84-7.896
		c-0.471-0.739-1.479-1.344-1.781-2.05c0-0.639,0-1.277,0.034-1.916c0.235-1.546,0.101-3.058,0.336-4.502
		c-0.134-0.504-0.403-1.445-0.706-1.916c0-0.806,0-1.613,0.034-2.386c0.336-1.613,1.176-2.587,0.37-4.2
		c-1.882-1.176-2.117-1.411-2.285-3.596c0.235,0,0.504,0,0.773,0c0.504-1.042,0.134-4.066,0.134-4.973
		c-0.37-0.168-0.638-0.37-0.706-0.739c0.235-0.067,0.471-0.101,0.706-0.134c0-0.202,0.034-0.403,0.067-0.571
		c-1.445-1.311-2.319-3.663-4.503-3.663c-0.034,0.135-0.067,0.303-0.101,0.471c-0.303-0.101-0.605-0.202-0.907-0.302
		c-0.202-0.034-0.403-0.067-0.605-0.101c-0.975-0.235-1.882-0.605-2.89-0.504c-0.134,0.134-0.134,0.134-0.37,0.134
		c-0.336,0.067-0.672,0.134-0.974,0.235c-0.504,0.168-0.84,0.235-1.143,0.672c0.067,0.773,0.067,0.773,0.235,1.143
		c0.302,0.739,0.302,0.739,0.437,1.445c-0.269,0.202-0.538,0.403-0.806,0.605c-0.303,1.209,0.168,2.184,0.302,3.327
		c-1.646,0.941-2.722,0.941-3.764,2.655c-0.571,2.117-0.336,4.301-0.504,6.485c0.437,0,0.907,0.034,1.378,0.067
		c0.403,0.403,0.403,0.638,0.437,1.209c-0.269,0.538-0.269,0.538-0.47,1.714c-0.37,0.571-0.739,1.176-1.109,1.781
		c-0.135,0.168-0.269,0.336-0.37,0.538c-0.672,0.874-0.571,2.42-0.739,3.495c0.067,0.134,0.134,0.269,0.202,0.437
		c1.814,0.807,0.168,3.73,0.638,5.175c0.672,0.975,0.672,0.975,0.941,1.58c0.235,1.848,1.008,3.528,1.748,5.276
		c0.504,0.772,1.747,1.982,1.546,3.024c-0.101,0.168-0.168,0.336-0.235,0.538c-0.202,0.303-0.403,0.639-0.605,0.975
		c-0.168,0.403-0.168,0.403-0.471,0.706c-0.437,0.807-0.437,0.807-0.806,2.05c-0.403,0.706-0.874,1.344-1.008,2.15
		c1.412,1.143,1.176,1.714,0.807,3.394c-0.168,1.58-0.672,2.42,0.538,3.495c0.303,0.134,0.605,0.302,0.706,0.605
		c0.034,0,0.067,0,0.134,0c0.101,0.638-0.033,2.318-0.37,2.654c-0.101,0.202-0.167,0.403-0.235,0.605
		c-0.168,0.504-0.303,1.008-0.437,1.512c-0.403,1.58-0.975,3.293-1.277,4.839c-0.336,1.243-0.336,1.243-0.605,1.68
		c-0.235,1.882-0.84,3.965,0.134,5.746c0.202,1.411,0.672,2.721,0.773,4.1c-0.235,0.639-0.47,1.277-0.706,1.949
		c0.034,0.873,0.067,1.781,0.101,2.688c-0.672,1.814-0.807,1.781-0.101,3.596c0,1.982-0.269,3.932-0.538,5.881
		c0.202,2.418,0.202,2.418,0.605,5.275c0,1.143,0.437,1.949,0.941,2.99c-0.067,0.873-0.303,1.547-0.672,2.318
		c0,0.471,0.269,0.74,0.135,1.143c-1.479-0.471-0.605-2.754-0.672-3.764c-0.269-0.57-0.84-1.242-0.941-1.512
		c-0.201-0.27-0.403-0.537-0.604-0.807c-0.101-0.201-0.202-0.369-0.269-0.537c-0.907-4.939-1.646-9.98-2.722-14.92
		c-1.412-2.051-1.512-2.924-0.37-4.771c-0.034-0.27-0.034-0.504-0.034-0.74c-0.303,0-1.344-2.016-1.344-2.049
		c0.135-1.176,0.739-2.89,0.235-3.999c-1.143-0.907-1.748-1.277-2.251-2.621c1.075-1.479,1.916-3.562,2.923-5.242
		c0.101-0.437,0.202-0.84,0.336-1.243c-0.135-2.554-0.336-5.108-0.37-7.662c-0.538-0.336-1.042-0.672-1.546-1.008
		c0.538-2.587,0.605-5.007,0.672-7.662c0-0.067,0-0.101,0-0.135c-0.84-3.293-1.982-6.653-2.755-9.946
		c-0.605,0-1.814-3.495-2.386-4.066c0.37-1.579,0.37-1.579,0.773-2.554c0.336-2.957,1.143-5.579,2.016-8.334
		c0-0.201,0-0.403,0-0.604c-0.773-1.58,0.706-3.764-0.538-5.007c-0.067-0.571-0.134-1.143-0.168-1.68
		c-0.235-0.235-0.471-0.471-0.672-0.672c-0.874-0.47-1.848-0.907-2.016-1.949c0.303-0.538,0.874-1.176,0.874-1.815
		c-0.437,0-1.176-1.68-1.176-2.218c-0.706-0.369-0.706-0.369-1.176-0.773c-2.419-0.941-5.376-1.445-7.93-1.949
		c-0.84,0-3.091-0.37-3.764,0.303c-0.336,0.033-0.638,0.067-0.94,0.134c0-0.605,1.243-1.176,1.68-1.479
		c0.302-0.134,0.604-0.269,0.907-0.404c0-0.067,0-0.101,0.034-0.134c1.445-0.101,2.487-0.235,3.764-0.907
		c0.504-0.134,1.008-0.269,1.512-0.37c0.672-1.68,3.696-0.907,5.175-0.874c1.344-0.101,2.285-0.773,3.528-1.277
		c0-0.302,0.269-0.302,0.504-0.37c0.067-0.067,0.134-0.101,0.235-0.135c0.437-0.37,0.907-0.47,1.445-0.537
		c0.504-0.74,0.706-1.378,1.613-1.546c0.639,1.142,0.84,1.613,1.882,2.386c0.907,0.302,0.907,0.302,1.042,0.437
		c4.133,0.269,4.133,0.269,4.637,0.403c0.672,0.806,1.176,1.545,2.117,0.806c0.067-0.067,0.134-0.101,0.202-0.134
		c0.101-0.101,0.202-0.168,0.336-0.235c0.269-0.168,0.538-0.336,0.807-0.471c0.538-0.134,0.974-0.336,1.613-0.369
		c0.034-0.168,0.067-0.336,0.134-0.504c0.135,0,0.303,0,0.471,0c0-0.134,0-0.235,0-0.336c0.269-0.134,0.538-0.269,0.806-0.37
		c0.37-0.975,2.353-0.235,3.024-0.235c0.336-0.034,0.706-0.067,1.076-0.067c0.134-0.034,0.269-0.067,0.437-0.067
		c0.37-0.538,0.538-0.941,1.143-1.075c0.37-0.773,3.36-1.008,4.334-1.109c0.235-0.135,0.471-0.235,0.739-0.336
		c0.134-0.135,0.134-0.135,0.37-0.135c0.067-0.067,0.135-0.101,0.235-0.134s0.235-0.067,0.37-0.101
		c0.403-0.168,0.805-0.303,1.209-0.437c0.168-0.739,0.672-0.941,1.311-1.143c0.201,0,0.438,0.034,0.672,0.067
		c0.066,0.168,0.135,0.336,0.234,0.538c0.707,1.445,2.32,1.545,3.697,2.218c0.975,0.874,1.713,1.479,2.891,2.016
		c0.975,0.37,1.074,0.84,0.537,1.814c0,0.235,0,0.471,0,0.706c1.143,0.604,2.352,0.47,3.461,1.142c0,0.168,0.033,0.37,0.066,0.571
		c-0.672,0.403-1.143,0.572-1.881,0.706c-1.076,0.437-1.445,1.512-2.486,1.949c-0.068,0.639-0.135,1.311-0.168,1.983
		c-0.639,0.638-1.277,1.277-1.883,1.949c-0.066,1.075-0.135,1.377-1.041,2.05c0.033,0.773,0.102,1.344,0.336,1.982
		c0.303,1.411,0.369,1.781-0.234,3.125c0,1.176,0.873,2.083,1.578,2.958c0,1.411-0.773,2.722-0.773,4.133
		c0.303,0.975,0.605,1.949,0.941,2.923c0.033,0.639,0.168,0.773,0.168,1.378c0.033,0.101,0.068,0.202,0.135,0.303
		c0,0.101,0,0.235,0,0.37c0.27,2.184,0.135,2.016-1.412,3.562c-0.201,0.336-0.369,0.672-0.537,1.042
		c0.27,0.302,0.438,0.806,0.369,1.243c0,0.269,0,0.538,0,0.807c-0.402,1.646-0.402,1.646-0.84,2.755
		c-0.066,0.202-0.1,0.437-0.135,0.672c0.168,1.042,0.168,1.042,0.539,1.983c0.201,3.327,2.453,6.048,1.881,9.509
		c-0.135,0.336-0.234,0.672-0.336,1.042c-0.102,0.034-0.201,0.067-0.27,0.101c-0.672,0.907-0.672,0.907-1.41,1.646
		c-0.336,0.639-0.639,1.277-0.941,1.916c-0.066,1.445-0.201,1.58-0.303,2.419c-1.041,1.512-1.41,3.293-2.352,4.906
		c-0.033,0.336-0.066,0.706-0.066,1.075c-0.135,0.84-0.605,2.117,0.369,2.588c0.033,0.101,0.066,0.201,0.1,0.336
		c0.035,0.369,0.035,0.369-0.234,1.143c-0.201,0.403-0.201,0.403-0.234,1.142c0,0.605-0.068,0.672,0.234,1.21
		c0.033,0.033,0.066,0.101,0.135,0.168c0,0.37,0,0.739,0,1.109c-0.572,1.545-0.203,3.528,0,5.175c0,1.075-0.135,1.278-0.975,2.049
		c-0.102,0.639-0.102,0.639,0,1.277c0.168,0.471,0.168,0.471,0.234,2.049c-0.066,0.605-0.1,1.211-0.133,1.816
		c-0.035,0.975-0.17,1.779-0.338,2.688c-0.1,0.369-0.201,0.773-0.301,1.176c0,0.438,0.268,0.537,0.604,0.74
		c0,0.1,0,0.201,0.035,0.301c0.033,0.404,0.066,0.807,0.133,1.211c1.479,2.318,2.789,3.125,1.043,5.51
		c-0.102,0.303-0.102,0.303-0.068,1.211c0,1.143,0.033,1.949-0.369,3.023c-0.404,0.404-0.168,2.689-0.168,3.328
		c-0.102,0.033-0.201,0.066-0.27,0.1c-0.066,0.033-0.135,0.068-0.201,0.102C102.418,127.529,102.35,127.898,102.283,128.27
		L102.283,128.27z M122.512,24.3c0.033-0.134,0.066-0.269,0.102-0.403c1.107-0.269,1.107-0.269,1.779-0.302
		c0.639-0.47,1.277-0.907,1.949-1.344c0.27-0.269,0.27-0.269,0.539-0.302c0.301-0.941,0.604,0.302,0.672,0.571
		c0.135,0.168,0.268,0.336,0.402,0.538c0.471,0.168,0.471,0.168,3.797,0.706c0.504,0.672,1.008,1.344,1.514,2.05
		c2.115,0.672,0.973,1.479,0.805,3.226c0.539,0.134,1.076,0.269,1.613,0.403c0.336,0.941,0.438,1.681,0.504,2.688
		c-0.738,1.176-0.738,1.176-0.771,1.479c1.275,1.008,1.881,1.311,0.84,2.856c-0.201,0.303-0.404,0.605-0.572,0.908
		c-0.402,0.84-0.402,0.84-0.639,1.042c0,0.235,0,0.471,0,0.706c0,0.067,0,0.134,0,0.235c-0.033,0.403-0.033,0.84-0.033,1.277
		c-0.873,0.605-1.58,1.042-1.781,2.117c0,0.235,0,0.471,0,0.739c-0.135,0.101-0.268,0.202-0.369,0.336
		c-0.066,0.168-0.135,0.336-0.168,0.504c-0.066,0.235-0.135,0.504-0.201,0.773c-0.303,0.471-0.369,0.639-0.471,1.143
		c0.066,0.303,0.135,0.605,0.234,0.907c-0.469,1.243-1.443,2.285-2.016,3.495c0.068,1.344,0.201,1.479,0.438,3.159
		c-0.102,0-0.201,0-0.303,0c0.066,1.008,0.438,2.285-0.066,3.159c-0.135,0.235-0.236,0.471-0.338,0.706c0,0.101,0,0.235,0,0.37
		c0.236,0.134,0.506,0.302,0.773,0.47c0.873,0.471,1.613,0.975,0.908,2.016c-0.336,2.083-0.336,2.083-0.605,2.823
		c-0.201,0.538-0.404,1.075-0.605,1.646c-0.066,0.605-0.1,1.244-0.133,1.882c0.133,0.471,0.268,0.605,0.268,0.84
		c0.605,1.579,1.715,2.856,2.52,4.334c0.371,1.008,0.539,1.512,0.605,2.554c-0.135,0.235-0.27,0.471-0.369,0.739
		c-0.168,0.336-0.168,0.471-0.102,0.874c0.168,0.202,0.168,0.202,0.371,0.975c-1.211,3.091-1.211,3.091-2.555,5.981
		c-0.168,0.571-0.773,1.613-0.438,2.117c0.236,0.168,0.236,0.168,0.572,0.672c-0.605,0.605-0.102,1.344,0.234,1.882
		c0.336,0.336,0.438,0.538,0.605,0.975c0.066,0.571,0.135,1.176,0.201,1.78c-0.336,1.008-1.074,2.017-1.344,2.991
		c-0.066,0-0.135,0-0.201,0c-0.168,0.369-0.336,0.739-0.471,1.142c0,0.034,0,0.067,0,0.101c0,0.504,0.27,1.377,0.135,1.781
		c1.107,1.109,0.906,2.688,0.906,4.234c-0.268,0.47-0.537,0.94-0.807,1.444c0,0,0,0,0,0.033c0.035,0.068,0.068,0.135,0.135,0.203
		c-0.1,0.168-0.168,0.336-0.234,0.504c0.201,0.201,0.201,0.201,0.234,0.471c-0.066,0.033-0.135,0.066-0.201,0.1
		c0.201,0.404,0.268,0.74,0.303,1.211c-0.102,0-0.168,0-0.236,0c0,0.066,0,0.133,0,0.201c0.035,0.873,0.068,1.746,0.135,2.654
		c0.102,0.504,0.201,1.041,0.336,1.58c0.102,0.436-0.033,0.807-0.234,1.242c-0.404,0.572-0.807,1.143-1.211,1.748
		c-0.639,1.68-1.443,3.225-2.184,4.738c-0.27,0.537-0.537,1.074-0.807,1.646c0.068,1.512,0.068,1.512,0.369,3.092
		c-0.336,0.504-0.637,1.008-0.939,1.545c-0.135,0-0.27,0.033-0.404,0.066c-0.504-4.199-0.504-4.199-0.672-4.67
		c0-0.033,0-0.066,0-0.102c-0.066-0.033-0.1-0.066-0.135-0.066c0.102-1.613,0.201-3.227,0.303-4.84
		c0.471-0.469,0.369-1.914,0.369-2.486c-0.873-1.814-1.275-3.225-1.578-5.242c1.848-0.672,1.746-2.318,1.881-3.998
		c0.875-1.748-0.84-2.923-0.672-4.671c0.504-0.874,1.043-1.748,1.58-2.587c0.033-1.244,0.066-2.487,0.1-3.73
		c0.27-0.269,0.135-1.311,0.135-1.714c0.068-0.067,0.135-0.101,0.201-0.134c-0.369-2.017-0.604-5.41,0.539-7.124
		c0-0.47-0.336-0.773-0.605-1.143c-0.066-1.109-0.102-2.184-0.135-3.259c-0.738-1.479-1.848-3.226-1.377-4.973
		c-0.168-1.848,0.639-3.898,0.906-5.747c-0.939-0.672-1.275-1.916-1.746-2.923c-0.941-1.176-0.941-1.176-0.975-1.411
		c-0.033-1.311-0.84-2.251-0.539-3.461c0.102-0.101,0.236-0.202,0.371-0.269c0-0.807,0-1.613,0.033-2.386
		c0.336-1.075,0.639-1.613,0.135-2.654c-0.236,0-0.773-0.907-0.908-1.075c-0.234-0.168-0.939-1.076-0.369-1.21
		c0.402-0.437,3.596-3.36,2.486-4.1c-0.807-0.604-0.807-1.176-0.438-2.05c0.404-1.209,0.572-1.848,0.17-3.125
		c0-0.504,0.436-2.789,0.201-3.159c0-0.773-0.102-1.075,0.234-1.781c0.303-0.471,0.303-0.471,0.336-0.807
		c-0.1-0.067-0.201-0.101-0.268-0.135c-0.471-0.269-0.674-0.403-0.773-0.874c-0.066-0.167-0.102-0.302-0.135-0.437
		c-0.168-0.033-0.303-0.067-0.438-0.101c-0.033-0.168-0.066-0.336-0.066-0.504c-1.277-0.37-2.352-0.874-3.596-1.311
		c-0.1,0.034-0.201,0.067-0.27,0.134c-1.209,0.807-3.359,0.471-4.268-0.672c-0.672-0.806-1.578-0.47-2.418-0.47
		c-0.74,0-1.514,0.067-2.252-0.135c0.102-0.269,1.076-1.075,2.621-2.755c1.041-0.336,1.814-0.403,2.924-0.403
		c0.84-0.168,1.713-0.974,2.486-1.378C121.033,27.392,121.906,26.552,122.512,24.3L122.512,24.3z"/>
	<path fill-rule="evenodd" clip-rule="evenodd" fill="#6B8F4A" d="M84.72,177.059c3.259-0.068,6.519-0.102,9.812-0.135
		c0,0.033,0,0.066,0,0.135C91.239,177.059,87.979,177.059,84.72,177.059L84.72,177.059z"/>
	<path fill-rule="evenodd" clip-rule="evenodd" fill="#52694A" d="M105.52,177.059c0-0.033,0-0.068,0-0.068c2.891,0,5.781,0,8.703,0
		C111.301,176.99,108.41,177.025,105.52,177.059L105.52,177.059z"/>
	<path fill-rule="evenodd" clip-rule="evenodd" fill="#737373" d="M54.981,170.941c-1.747-0.975-1.848-1.814-2.117-3.863
		c0.302,0,0.437,0.135,1.109,0.27c0.034-0.539,0.101-1.076,0.168-1.58c-1.143-0.135-1.68-0.471-2.386-1.377
		c-5.612-2.789-7.326-7.695-7.762-13.576c-1.58-1.58-1.58-1.58-1.68-1.848c2.386,0,4.032-2.387,6.452-2.387
		c0.403,0.234,0.84,0.471,1.277,0.738c1.311-0.066,2.654-0.133,3.999-0.166c0.504-1.781-0.403-3.092-0.538-4.773
		c0.067-0.133,0.135-0.234,0.235-0.336c1.445-0.066,3.831-1.041,4.738,0.605c0.101,0.84,0.101,0.84-0.101,4.67
		c1.176,0.068,2.386,0.135,3.595,0.203c2.655-0.639,4.301,0.268,6.15,2.285c0,0.301,0.033,0.639,0.067,0.975
		c-1.479,2.99-0.807,6.553-2.117,9.609c-0.538,0.471-1.076,0.941-1.613,1.412c-2.823,1.41-3.058,1.41-5.544,2.553
		c-0.773,0.74-0.773,0.74-1.042,0.84c0,1.715,1.075,4.033-0.437,5.311C56.527,170.74,55.519,170.773,54.981,170.941L54.981,170.941z
		 M57.771,161.299c-0.134-3.596,0.034-7.359,0.202-10.955c1.579,0.135,1.579,0.135,3.73,0.605c0.672,2.52,0.538,5.477-0.336,7.963
		C60.291,159.887,59.047,160.66,57.771,161.299L57.771,161.299z M53.537,159.719c-1.646-2.016-4.637-6.082-3.73-8.871
		c1.714,0.504,2.487-0.605,4.033-0.807C53.705,153.268,53.469,156.492,53.537,159.719L53.537,159.719z"/>
	<path fill-rule="evenodd" clip-rule="evenodd" fill="#737373" d="M34.013,168.658c0-5.479,0-10.955,0-16.434
		c-0.067-0.268-0.134-0.537-0.167-0.807c-1.983,2.387-4.201,4.738-5.612,7.494c0.571,0.639,1.176,1.211,1.881,1.715
		c-1.243,0.604-3.696,1.914-5.174,1.914c-2.856-1.881-4.469-5.477-6.754-8.031c-0.034,1.715-0.067,3.428-0.067,5.143
		c-0.101,0-0.101,3.863,0,3.863c0,1.848-0.572,2.555-2.353,2.184c-1.949-2.15-3.125-2.822-1.714-5.477
		c0.235-1.578,0.235-1.578,0.403-4.637c-0.033-1.311-0.067-2.588-0.067-3.865c-0.134-0.537-0.235-1.074-0.336-1.578
		c-1.646-1.58-1.646-1.58-1.848-1.916c1.647-0.773,3.562-1.916,5.31-2.252c0.772,0.539,0.772,0.539,1.646,1.379
		c2.285,2.889,4.57,5.812,6.889,8.736c2.285-2.99,4.435-5.914,7.224-8.469c0.672-1.512,1.176-1.781,2.856-1.646
		c1.445,0.908,6.754,2.822,3.394,4.738c-0.034,3.158-0.067,6.318-0.067,9.477c0.067,1.479,0.135,2.957,0.235,4.469
		c0.437,1.143,0.639,1.781-0.067,2.857c-0.739,0.402-1.445,0.84-2.15,1.275C36.332,169.801,34.585,170.74,34.013,168.658
		L34.013,168.658z"/>
	<path fill-rule="evenodd" clip-rule="evenodd" fill="#FFFFFF" d="M54.981,169.732c-0.37-0.369-0.538-0.537-0.638-1.041
		c0.168-0.033,0.336-0.068,0.538-0.102c0.47-1.242,0.336-2.588,0.37-3.932c-1.378-0.066-1.748,0.102-2.453-0.906
		c-5.242-3.16-7.359-6.721-7.561-12.904c-0.168-0.504-0.168-0.504-0.672-1.209c0.974-0.807,2.654-1.781,3.897-1.949
		c0.403,0.234,0.807,0.471,1.21,0.705c1.781-0.033,3.562-0.066,5.376-0.102c0.168-1.176,0.302-2.318,0.336-3.494
		c-0.672-1.512-0.672-1.512-0.706-1.881c0.504,0,1.008,0,1.512,0c0.235-0.236,0.772-0.068,1.109-0.035
		c0.336,1.445-0.134,3.832-0.235,5.344c1.781,0.102,3.596,0.234,5.41,0.369c1.042-1.041,4.301,0.605,4.57,2.018
		c-1.344,2.486-1.143,5.879-1.68,8.703c-1.344,2.721-6.317,2.451-7.695,4.771c-0.336,0.133-0.672,0.268-1.008,0.402
		c0,1.344,0.773,4.033,0.168,5.041C56.427,169.666,56.427,169.666,54.981,169.732L54.981,169.732z M56.628,162.609
		c-0.201-4.436,0.034-9.074,0.269-13.475c1.781,0.066,3.595,0.436,5.343,0.771c2.016,1.512,0.773,7.561,0.202,9.51
		C60.761,161.098,58.879,162.139,56.628,162.609L56.628,162.609z M54.747,162.004c-3.865-2.723-5.914-6.418-6.183-11.156
		c0.504-1.68,1.075-1.076,2.453-0.84c0.47-0.168,0.47-0.168,1.814-1.008c0.706-0.033,1.411-0.033,2.15-0.033
		c-0.033,4.367-0.302,8.668-0.033,13.037C54.881,162.004,54.813,162.004,54.747,162.004L54.747,162.004z"/>
	<path fill-rule="evenodd" clip-rule="evenodd" fill="#737373" d="M107.805,155.484c-1.41,0-2.822,0-4.234,0
		c-1.377,0.168-1.947,1.412-3.594,0.908c-0.202-0.168-0.403-0.303-0.572-0.438c-3.629-5.309-3.629-5.309-3.763-5.713
		c0.067-0.369,0.134-0.705,0.202-1.041c1.512-0.873,2.587-2.049,4.401-1.412c1.916-0.369,3.965-1.041,5.881-1.242
		c2.252-1.646,4.436,0,6.418,1.143c1.781,0.471,3.059,1.68,1.076,3.092c-0.773-0.102-1.514-0.168-2.252-0.236
		c-3.092,0.471-5.713,0.201-8.805,0.27c0.539,0.873,0.539,0.873,1.008,1.344c0,0.033,0,0.066,0,0.135c1.916,0,3.865,0,5.814,0
		c0-0.068,0-0.102,0-0.135c2.184-0.873,2.924-0.639,4.604,0.975c1.176,0.639,1.881,1.041,1.881,2.453
		c-0.57,0.906-0.57,0.906-2.553,4.973c-2.689,4.234-6.451,10.25-12.467,8.771c-0.27-0.203-0.537-0.371-0.807-0.539
		c-0.975-2.217-4.268-2.586-4.469-5.006c1.109-3.395,5.309,0.201,6.854,1.176c3.193,0.135,4.605-5.848,5.311-7.998
		c0.234-1.209,0.234-1.209,0.168-1.445C107.873,155.484,107.838,155.484,107.805,155.484L107.805,155.484z"/>
	<path fill-rule="evenodd" clip-rule="evenodd" fill="#FFFFFF" d="M17.044,151.688c-0.067,0.873-0.101,1.748-0.134,2.654
		c0,1.814,0,3.629,0,5.443c0,1.178,0.034,2.354,0.067,3.562c-0.034,0.438-0.067,0.873-0.101,1.344c-0.202,0-0.403,0-0.571,0.035
		c-0.874-1.781-2.655-1.814-1.243-3.932c0.336-1.814,0.403-3.664,0.538-5.512c0.101,0,0.101-2.654,0-2.654
		c-0.101-1.646-0.269-2.822-1.377-4.066c3.427-1.512,2.52-1.982,4.973,0.605c2.251,2.889,4.502,5.779,6.788,8.67
		c0.067,0,0.134,0,0.235,0c2.554-3.529,5.074-7.092,8.435-9.914c0.101-0.303,0.101-0.303-0.034-0.504
		c0.403-0.402,0.538-0.336,1.143-0.402c1.714,1.143,1.714,1.143,3.663,2.15c0,0.133,0,0.268,0,0.402
		c-0.336,0.135-0.672,0.27-1.008,0.404c-0.034,0.168-0.067,0.336-0.101,0.504c-0.067,0-0.101,0-0.134,0c0,3.092,0,6.182,0,9.307
		c0.034,0,0.067,0,0.134,0c0.101,3.932,0.101,3.932,0.235,5.041c0.47,1.211,0.47,1.211,0.47,1.613
		c-0.269,0.404-3.326,2.723-3.831,2.219c0-6.42,0-12.838,0-19.256c-0.067-0.135-0.134-0.268-0.168-0.369
		C34.887,149,34.786,149,34.686,149c-1.916,1.646-3.562,3.932-5.208,5.914c-2.151,3.125-2.151,3.125-2.554,3.932
		c0.134,0.639,0.772,1.041,1.042,1.646c-0.672,0.201-2.453,1.109-3.024,0.807c-7.393-9.477-7.393-9.477-7.662-9.645
		C17.178,151.654,17.111,151.654,17.044,151.688L17.044,151.688z"/>
	<path fill-rule="evenodd" clip-rule="evenodd" fill="#737373" d="M163.484,155.115c-0.033-1.412-0.066-2.822-0.066-4.234
		c-1.68-0.402-1.547-1.949-0.369-2.789c1.746-0.369,5.41-3.797,6.553-0.939c0.268,0,1.344-0.27,1.512-0.438
		c1.713,0.033,3.461,0.066,5.209,0.1c0.873-0.268,1.512-0.436,2.418-0.436c0.908,0.639,1.814,1.646,2.689,2.352
		c0,1.311-0.975,2.318-1.479,3.461c-0.135,0.504-0.236,1.041-0.336,1.58c-0.875,0.234-2.152,0.402-2.789,1.041
		c0.234,0.135,0.234,0.135,0.705,0.941c0.807,2.654,3.428,5.51,5.477,7.258c0.572,1.143,2.689,1.344,3.428,2.486
		c-0.033,0.404-0.033,0.807-0.033,1.211c-0.336,0-0.438,0.336-0.74,0.504c-1.512,0.303-2.688,1.41-4.133,1.545
		c-1.613-0.504-2.588-1.914-3.562-3.125c-4.469-7.258-4.469-7.258-4.535-7.594c-0.471,0-1.277-1.479-1.547-1.848
		c-0.975-0.674-2.619-0.605-3.191,0.57c-0.033,2.688-0.066,5.377-0.102,8.098c-1.578,2.789-3.359-0.336-5.006-1.275
		c-1.244-1.244-0.975-2.018-0.303-3.529C163.35,158.408,163.418,156.762,163.484,155.115L163.484,155.115z M168.324,153.232
		c0-1.377,1.074-2.922,2.385-3.359c1.277,0.537,2.051,0,3.26-0.234c0.504-0.035,1.008-0.035,1.512-0.035
		c0,0.773-0.336,1.109-0.705,1.781C172.691,151.957,170.373,152.729,168.324,153.232L168.324,153.232z"/>
	<path fill-rule="evenodd" clip-rule="evenodd" fill="#FFFFFF" d="M106.125,154.377c-0.908,0-1.781,0-2.654,0
		c-0.975,0.1-1.613,0.504-2.42,1.107c-0.268-0.1-0.537-0.168-0.807-0.234c-0.47-0.74-3.528-4.705-3.326-5.377
		c0.672-0.438,1.344-0.84,2.016-1.242c1.008,0,1.546,0.469,2.519,0c2.018-0.135,4.605-0.975,6.486-1.748
		c1.479,0.135,2.688,1.008,3.998,1.748c1.479,0.537,1.479,0.537,1.58,0.67c-0.033,0.068-0.066,0.17-0.102,0.27
		c-1.646-0.066-3.09,0.068-4.736,0.303c-2.387,0.066-5.545-0.672-7.662,0.102c0.234,1.344,1.244,2.318,2.084,3.326
		c2.082,0,4.166,0,6.283,0c1.781-0.27,1.881-1.209,3.428,0.336c0.604,0.402,1.209,0.807,1.848,1.209c0,0.135,0.033,0.27,0.066,0.404
		c-2.184,3.629-6.988,15.625-13.709,12.938c-0.537-1.949-3.865-2.488-4.301-4.234c1.042-1.58,3.864,1.209,4.805,1.848
		c3.395,1.109,4.637-2.016,5.881-4.57c0.672-1.881,1.479-3.73,1.713-5.713C108.645,154.074,107.436,154.377,106.125,154.377
		L106.125,154.377z"/>
	<path fill-rule="evenodd" clip-rule="evenodd" fill="#FFFFFF" d="M167.518,157.971c-0.102,0-0.102,4.336,0,4.336
		c-0.033,0.807-0.068,1.613-0.102,2.42c-0.168,0.1-0.303,0.201-0.436,0.301c-0.605-0.57-1.178-1.107-1.748-1.646
		c-1.883-1.176-1.377-1.41-0.807-3.293c0.102-1.545,0.102-1.545,0.168-9.643c-0.369-0.506-0.57-0.506-1.176-0.707
		c-0.068-0.168-0.102-0.303-0.135-0.438c0.066-0.1,0.168-0.166,0.27-0.234c1.68-0.201,3.393-2.52,4.939-1.748
		c0,0.102,0,0.236,0,0.371c-0.975,0.471-0.908,1.176-0.975,2.117c1.277-0.875,2.252-1.514,3.797-1.984
		c3.73,0.068,3.73,0.068,5.443-0.033c1.748-0.604,2.184,0.102,3.461,1.346c0,0.873-0.84,1.746-1.311,2.451
		c-0.1,0.371-0.201,0.773-0.268,1.178c-1.547,1.176-4.066,1.344-5.916,1.275c0.338,0.674,2.689,1.412,3.496,1.682
		c2.42,3.932,4.738,7.93,9.039,10.08c0,0.102,0,0.201,0,0.336c-1.076,0.336-2.252,0.605-3.059,1.412
		c-1.949,0-3.26-2.588-4.234-4.033c-1.746-2.957-3.461-6.316-6.047-8.67c-1.514-0.604-3.898,0.102-4.369,1.748
		C167.518,157.031,167.518,157.5,167.518,157.971L167.518,157.971z M167.113,154.746c0-3.227,0.707-4.066,3.227-6.082
		c1.277,0,1.109,0.738,2.588,0c2.285-0.068,4.367-0.74,3.494,2.352c-0.57,0.908-0.57,0.908-0.873,1.209
		C172.961,153.232,169.836,154.039,167.113,154.746L167.113,154.746z"/>
	<path fill-rule="evenodd" clip-rule="evenodd" fill="#737373" d="M75.614,153.301c0,0.84,0.033,1.713,0.067,2.588
		c-0.034,2.99-0.034,5.98-0.034,9.006c-0.974,1.545-2.318,1.209-3.058-0.303c-1.848-1.646-1.545-2.318-0.773-4.504
		c0-2.754,0.571-7.561-0.37-10.416c-2.15-1.211-2.15-1.211-2.15-1.344c1.748-0.572,3.932-1.109,5.242-2.42
		c0.101-0.033,0.202-0.033,0.336-0.033c4.032,3.057,8.098,6.115,12.164,9.207c0.034-0.27,0.067-0.504,0.101-0.74
		c0-1.781,0-3.561,0-5.342c0-1.613,0-3.193,0-4.771c-0.806-1.445-0.907-2.318,0.807-2.857c1.546,0.369,5.88,2.588,3.192,4.301
		c0,3.166,0,6.33,0,9.494c0,2.092-0.145,3.729,0,5.83c0.84,2.52,0,2.721-1.646,4.771c-2.89,0.906-2.184-2.352-2.184-4.166
		c-1.076-0.908-2.151-1.816-3.192-2.689c-8.199-6.184-8.199-6.184-8.468-6.283C75.614,152.83,75.614,153.064,75.614,153.301
		L75.614,153.301z"/>
	<path fill-rule="evenodd" clip-rule="evenodd" fill="#737373" d="M143.121,153.367c-0.066-0.873-0.1-1.713-0.135-2.553
		c-2.385-1.344-0.771-3.193,1.58-3.193c1.646-1.008,3.529-2.553,4.906-0.469c0.369,0,0.74,0,1.143,0c0.873,0,1.748,0,2.654,0
		c2.486,0.133,3.865-0.707,5.779,1.209c0.539,1.209,0.807,2.453,0.941,3.73c-0.908,1.041-1.713,1.41-2.99,0.604
		c-1.176-1.949-1.781-2.385-3.932-2.621c-1.176,0-3.494-0.201-4.504,0.539c-0.066,0.939-0.133,1.881-0.168,2.855
		c1.346,0.033,2.723,0.066,4.1,0.102c1.311-1.01,2.084-1.211,3.328,0.168c0,1.713-1.143,5.51-3.328,3.326
		c-0.066-0.27-0.133-0.504-0.201-0.74c-1.277,0.102-2.52,0.203-3.764,0.303c-0.268,1.646-0.201,3.629,0.168,5.275
		c0.773,0.371,1.748,0.371,2.621,0.471c0.908,0,1.848,0,2.789,0c1.176-0.135,2.354-0.303,3.428-0.738
		c1.344-1.076,1.244-3.193,3.494-1.949c0.539,1.109,0.27,2.318,0.168,3.527c-0.705,1.244-2.25,3.059-3.83,1.883
		c-1.613,0.066-3.227,0.135-4.838,0.234c-0.908,0-1.781,0-2.656,0c-0.504,0-1.008,0-1.512,0.033
		c-1.242,1.379-2.318-0.066-3.562-0.705c-1.479-0.504-2.957-0.84-2.754-2.688C143.693,159.518,143.088,156.258,143.121,153.367
		L143.121,153.367z"/>
	<path fill-rule="evenodd" clip-rule="evenodd" fill="#737373" d="M127.766,147.084c2.285-0.033,4.57-0.066,6.889-0.066
		c1.982-0.438,2.889-0.875,4.4,0.84c0.338,1.545,1.311,3.596-0.705,4.268c-1.41,0-1.713-0.404-2.453-1.646
		c-1.613-0.908-3.797-0.707-5.578-0.504c-0.234,2.385-0.234,2.385-0.336,5.746c-0.033,1.143-0.033,2.285-0.033,3.461
		c-0.033,1.848-0.033,3.695-0.033,5.578c-0.537,1.445-2.252,1.242-3.092,0.234c-2.42-1.143-3.83-1.445-2.756-4.133
		c0.438-3.596,0.539-7.258,0.539-10.887c-2.992-0.168-4.436-0.504-6.049,2.049c-1.646,0.807-3.227,0.605-3.025-1.512
		c0.908-2.555,1.514-3.898,4.436-3.697C122.119,147.521,125.447,147.084,127.766,147.084L127.766,147.084z"/>
	<path fill-rule="evenodd" clip-rule="evenodd" fill="#FFFFFF" d="M73.06,159.215c0-1.244,0-2.486,0-3.73
		c-0.067-2.049,0.403-5.275-1.042-6.854c0.739-0.303,2.184-1.412,2.991-1.277c10.619,8.131,10.619,8.131,12.735,9.643
		c0.168,0.035,0.336,0.102,0.538,0.168c0-2.822,0.033-5.611,0.067-8.4c0-1.242,0.034-2.486,0.067-3.695
		c-0.101-1.076-0.605-1.514-0.773-2.354c0.941-0.639,2.419,1.01,3.259,1.514c-0.034,0.133-0.067,0.268-0.101,0.402
		c-0.571,0.102-0.538,0.236-0.874,0.639c0,2.42,0,4.838,0,7.258c0.034,2.957,0.067,5.914,0.101,8.871
		c0.47,1.547,0.47,2.15-1.143,3.361c-0.168,0-0.302,0-0.437,0.033c0.034-1.748,0.437-3.125-0.706-4.436
		c-4.133-3.227-8.4-6.486-12.668-9.543c-0.202-0.033-0.403-0.068-0.571-0.102c-0.067,0-0.134,0-0.168,0c0,1.277,0,2.555,0,3.865
		c0.034,0,0.067,0,0.134,0c0,3.326,0.034,6.686,0.067,10.047c-0.134,0.168-0.134,0.168-0.437,0.234
		C71.379,162.811,72.925,161.701,73.06,159.215L73.06,159.215z"/>
	<path fill-rule="evenodd" clip-rule="evenodd" fill="#FFFFFF" d="M144.264,156.561c0-1.109,0-2.184,0-3.26
		c-0.033-1.041-0.066-2.084-0.1-3.125c-0.135-0.438-0.707-0.438-1.076-0.504c-0.033-0.201-0.066-0.404-0.102-0.572
		c1.85-0.234,3.395-1.914,5.008-1.914c0.672,0.436,0,0.672-0.168,1.176c0.941-0.068,1.916-0.102,2.891-0.135
		c0.873,0,1.779,0,2.688,0c0.57,0.033,1.143,0.066,1.746,0.135c1.748-0.404,2.387-0.369,3.26,1.209
		c0.102,0.74,0.438,1.646,0.303,2.387c-0.268,0-0.504,0.033-0.738,0.066c-0.807-1.109-1.547-1.949-2.654-2.723
		c-2.219-0.234-5.545-0.873-7.561,0.338c-0.539,1.443-0.639,3.158-0.303,4.67c1.545,0.605,4.031,0.27,5.678,0.234
		c0.371-0.234,0.371-0.234,0.875-0.771c0.436,0.1,0.436,0.1,0.705,0.303c0,0.771-0.438,1.781-0.705,2.52
		c-0.203-0.033-0.371-0.066-0.539-0.102c-0.066-0.57-0.135-0.738-0.471-1.176c-1.611,0-3.932-0.168-5.375,0.539
		c-0.807,1.645-0.74,5.812,0.57,7.123c1.244,0.268,1.244,0.268,3.025,0.471c0.84,0,1.68,0,2.52,0
		c2.688-0.236,4.805-0.303,5.947-2.99c0.27-0.135,0.27-0.135,0.504-0.035c-0.033,1.748,0.068,3.461-1.848,4
		c-0.908-0.908-4.166-0.236-5.443-0.168c-1.043,0-2.084,0-3.125,0c-1.344-0.068-1.479-0.203-2.117-0.135
		c-0.033,0.438-0.033,0.438-0.201,0.672c-0.168,0-0.303,0-0.438,0.033c-0.84-1.143-2.621-1.277-3.83-2.049
		c0-0.807,0.504-1.076,0.807-1.715C144.062,159.551,144.164,158.039,144.264,156.561L144.264,156.561z"/>
	<path fill-rule="evenodd" clip-rule="evenodd" fill="#FFFFFF" d="M125.783,153.906c0-1.178,0-2.354,0-3.496
		c-0.068-0.604-0.035-1.109-0.605-1.443c-3.494-0.102-5.377-0.674-7.459,2.352c-0.908,0.1-0.908,0.1-1.109,0
		c0.672-2.521,1.143-4.234,4.031-3.193c1.613-0.033,3.227-0.033,4.84-0.033c3.057,0,6.115,0,9.174,0
		c1.545-0.168,2.25-0.939,3.393,0.201c0.135,0.842,0.27,1.715,0.404,2.588c-0.168,0.135-0.168,0.135-0.74,0.168
		c-0.301-0.268-0.301-0.268-0.906-1.209c-1.58-1.076-6.15-1.848-7.561-0.438c-0.303,2.924-0.336,5.881-0.404,8.805
		c-0.1,0-0.1,3.998,0,3.998c-0.033,0.807-0.066,1.613-0.066,2.453c-0.504,0.404-1.209-0.438-1.512-0.705
		c-1.916-0.807-3.025-0.941-1.982-3.025C125.547,158.475,125.547,158.475,125.783,153.906L125.783,153.906z"/>
	<path fill-rule="evenodd" clip-rule="evenodd" fill="#BABABA" d="M167.518,157.971c0,1.445,0,2.891,0,4.336
		C167.416,162.307,167.416,157.971,167.518,157.971L167.518,157.971z"/>
	<path fill-rule="evenodd" clip-rule="evenodd" fill="#DEE0E0" d="M74.505,150.713c-0.034,1.277-0.034,2.555-0.034,3.865
		c-0.067,0-0.101,0-0.134,0c0-1.311,0-2.588,0-3.865C74.371,150.713,74.438,150.713,74.505,150.713L74.505,150.713z"/>
</g>
</svg>
