<?xml version="1.0" encoding="utf-8"?>
<!-- Generator: Adobe Illustrator 16.0.0, SVG Export Plug-In . SVG Version: 6.00 Build 0)  -->
<!DOCTYPE svg PUBLIC "-//W3C//DTD SVG 1.1//EN" "http://www.w3.org/Graphics/SVG/1.1/DTD/svg11.dtd">
<svg version="1.1" id="Layer_1" xmlns="http://www.w3.org/2000/svg" xmlns:xlink="http://www.w3.org/1999/xlink" x="0px" y="0px"
	 width="176.697px" height="74.776px" viewBox="0 0 176.697 74.776" enable-background="new 0 0 176.697 74.776"
	 xml:space="preserve">
<g>
	
		<path fill-rule="evenodd" clip-rule="evenodd" fill="#432A80" stroke="#432A80" stroke-width="5.9171" stroke-linecap="round" stroke-linejoin="round" stroke-miterlimit="2.6131" d="
		M71.378,53.827c4.221-1.227,8.237-2.249,12.458-3.407l-0.136,0.067c1.702-0.408,3.131-1.431,4.084-2.998
		c0.544-0.886,0.817-1.84,0.817-2.998c0-0.272,0-0.545-0.068-0.886c0.681,0.681,1.362,1.294,2.043,1.907
		c0,0-0.068-0.136-0.137-0.204c1.566,1.636,3.949,2.317,6.195,1.84c4.562-1.09,8.715-2.112,13.275-3.202
		c0.068,0,0.137-0.068,0.205-0.068c0.883-0.295,1.626-0.769,2.207-1.37l2.286,0.007c9.122-1.976,17.292-3.611,25.802-5.179
		c1.294-0.273,2.179-0.818,2.859-1.977c0.252-0.504,0.423-1.056,0.494-1.633c4.679,2.05,10.115,2.604,15.641,1.838
		c6.127-1.159,9.735-3.543,11.233-7.36c0.817-2.181,1.157-5.383-1.157-10.426c-1.634-3.135-3.608-5.52-6.332-7.632
		c-4.493-3.066-10.007-4.77-16.475-4.361c-5.558,0.428-9.729,2.074-12.321,4.937c-0.067-0.146-0.136-0.292-0.205-0.439l-0.068-0.068
		c-1.294-2.385-3.677-3.135-5.515-2.999c-8.237,0.886-16.135,1.908-24.985,3.203h-0.068c-1.498,0.272-2.655,1.022-3.403,2.112
		c-0.111,0.174-0.205,0.347-0.284,0.518c-3.459-1.375-7.883-1.419-15.306-0.041l-21.922,4.565h-0.068
		c-1.771,0.478-3.064,1.431-4.085,2.726c-0.757,1.306-0.916,2.456-0.895,3.272c-6.596-3.012-15.228-3.016-25.724-0.069
		c-5.447,1.567-10.008,3.612-14.229,6.338c-4.561,2.93-7.761,5.997-10.28,9.812c-3.063,4.906-4.357,9.745-3.812,15.333
		c0.681,5.451,2.928,9.473,7.216,12.334c6.604,4.021,16.339,4.157,29.138-0.067c5.991-2.113,14.024-5.656,20.56-11.857
		c1.637-1.662,2.993-3.309,4.076-4.979C65.369,52.723,67.682,54.516,71.378,53.827L71.378,53.827z"/>
	<path fill-rule="evenodd" clip-rule="evenodd" fill="#004F9E" d="M176.13,20.023c-1.704-14.761-16.772-20.481-28.521-19.429
		c-4.992,0.447-9.415,1.941-12.386,4.093c-1.869-2.215-4.493-2.946-6.408-2.842c-8.235,0.496-16.622,1.185-25.657,2.108
		c-0.014,0.001-0.027,0.007-0.043,0.008c-0.033,0.004-0.064,0.003-0.098,0.008c-1.713,0.254-3.175,0.993-4.213,2.11
		c-3.706-1.224-8.406-1.305-15.182-0.347c0.047-0.007,0.094-0.012,0.143-0.016c-0.146,0.01-19.232,2.985-22.471,3.558
		c-0.12,0.012-0.267,0.027-0.291,0.033c-2.215,0.5-3.992,1.622-5.279,3.333c-0.03,0.04-0.056,0.083-0.085,0.122
		c-0.03,0.04-0.059,0.081-0.085,0.123c-0.33,0.516-0.578,1.027-0.763,1.522c-6.765-2.666-16.326-3.393-29.096-0.021
		C9.62,18.634-3.455,30.92,1.56,49.915c6.502,24.634,48.592,18.046,62.968-1.113c1.584,1.719,3.775,2.45,6.735,2.142
		c0.696-0.072,6.801-1.556,10.426-2.306l1.893-0.393c0.034-0.008,0.066-0.022,0.099-0.03c2.18-0.462,4.013-1.755,5.186-3.687
		c0.192-0.317,0.37-0.637,0.517-0.974c2.031,1.675,4.762,2.456,7.263,2.005c0.012-0.003,8.239-1.61,8.239-1.61
		s5.197-1.025,5.284-1.044c0.125-0.02,0.256-0.057,0.392-0.104c0.03-0.008,0.06-0.017,0.062-0.018
		c0.844-0.251,1.606-0.638,2.271-1.131c0.547,0.056,1.12,0.058,1.721-0.006c-0.022,0-0.043,0-0.064-0.001
		c0.021,0.001,0.042,0.001,0.064,0.001c0.012-0.001,0.023-0.001,0.035-0.002c0.138-0.001,0.271-0.022,0.4-0.049
		c-0.013,0.002-0.025,0.009-0.04,0.012c9.917-1.766,18.275-3.172,26.305-4.426c1.918-0.329,3.35-1.285,4.282-2.852
		c0.013-0.023,0.026-0.048,0.04-0.072c3.413,1.278,7.196,1.884,11.079,1.884C170.442,36.142,177.11,28.515,176.13,20.023
		L176.13,20.023z"/>
	<g>
		<defs>
			<path id="SVGID_1_" d="M176.13,20.023c-1.704-14.761-16.772-20.481-28.521-19.429c-4.992,0.447-9.415,1.941-12.386,4.093
				c-1.869-2.215-4.493-2.946-6.408-2.842c-8.235,0.496-16.622,1.185-25.657,2.108c-0.014,0.001-0.027,0.007-0.043,0.008
				c-0.033,0.004-0.064,0.003-0.098,0.008c-1.713,0.254-3.175,0.993-4.213,2.11c-3.706-1.224-8.406-1.305-15.182-0.347
				c0.047-0.007,0.094-0.012,0.143-0.016c-0.146,0.01-19.232,2.985-22.471,3.558c-0.12,0.012-0.267,0.027-0.291,0.033
				c-2.215,0.5-3.992,1.622-5.279,3.333c-0.03,0.04-0.056,0.083-0.085,0.122c-0.03,0.04-0.059,0.081-0.085,0.123
				c-0.33,0.516-0.578,1.027-0.763,1.522c-6.765-2.666-16.326-3.393-29.096-0.021C9.62,18.634-3.455,30.92,1.56,49.915
				c6.502,24.634,48.592,18.046,62.968-1.113c1.584,1.719,3.775,2.45,6.735,2.142c0.696-0.072,6.801-1.556,10.426-2.306l1.893-0.393
				c0.034-0.008,0.066-0.022,0.099-0.03c2.18-0.462,4.013-1.755,5.186-3.687c0.192-0.317,0.37-0.637,0.517-0.974
				c2.031,1.675,4.762,2.456,7.263,2.005c0.012-0.003,8.239-1.61,8.239-1.61s5.197-1.025,5.284-1.044
				c0.125-0.02,0.256-0.057,0.392-0.104c0.03-0.008,0.06-0.017,0.062-0.018c0.844-0.251,1.606-0.638,2.271-1.131
				c0.547,0.056,1.12,0.058,1.721-0.006c-0.022,0-0.043,0-0.064-0.001c0.021,0.001,0.042,0.001,0.064,0.001
				c0.012-0.001,0.023-0.001,0.035-0.002c0.138-0.001,0.271-0.022,0.4-0.049c-0.013,0.002-0.025,0.009-0.04,0.012
				c9.917-1.766,18.275-3.172,26.305-4.426c1.918-0.329,3.35-1.285,4.282-2.852c0.013-0.023,0.026-0.048,0.04-0.072
				c3.413,1.278,7.196,1.884,11.079,1.884C170.442,36.142,177.11,28.515,176.13,20.023L176.13,20.023z"/>
		</defs>
		<clipPath id="SVGID_2_">
			<use xlink:href="#SVGID_1_"  overflow="visible"/>
		</clipPath>
		<g clip-path="url(#SVGID_2_)">
			<defs>
				<rect id="SVGID_3_" x="-3.455" y="-0.458" width="180.565" height="75.006"/>
			</defs>
			<clipPath id="SVGID_4_">
				<use xlink:href="#SVGID_3_"  overflow="visible"/>
			</clipPath>
			<g transform="matrix(1 0 0 1 -4.768372e-07 7.629395e-06)" clip-path="url(#SVGID_4_)">
				
					<image overflow="visible" width="380" height="161" xlink:href="2F372897BFC7E03D.png"  transform="matrix(0.48 0 0 -0.48 -4.3027 75.9058)">
				</image>
			</g>
		</g>
		<g clip-path="url(#SVGID_2_)">
			<defs>
				<rect id="SVGID_5_" x="-3.455" y="-0.458" width="180.565" height="75.006"/>
			</defs>
			<clipPath id="SVGID_6_">
				<use xlink:href="#SVGID_5_"  overflow="visible"/>
			</clipPath>
			<g transform="matrix(1 0 0 1 -4.768372e-07 7.629395e-06)" clip-path="url(#SVGID_6_)">
				
					<image overflow="visible" width="380" height="161" xlink:href="2F372897BFC7E03F.png"  transform="matrix(0.48 0 0 -0.48 -4.3027 75.9058)">
				</image>
			</g>
		</g>
	</g>
	<path fill-rule="evenodd" clip-rule="evenodd" fill="#00B0EA" d="M176.13,20.023c-1.704-14.761-16.772-20.481-28.521-19.429
		c-4.992,0.447-9.415,1.941-12.386,4.093c-1.869-2.215-4.493-2.946-6.408-2.842c-8.235,0.496-16.622,1.185-25.657,2.108
		c-0.014,0.001-0.027,0.007-0.043,0.008c-0.033,0.004-0.064,0.003-0.098,0.008c-1.713,0.254-3.174,0.993-4.213,2.11
		c-3.706-1.224-8.406-1.305-15.182-0.347c0.047-0.007,0.094-0.012,0.143-0.016c-0.147,0.01-19.232,2.985-22.472,3.558
		c-0.12,0.012-0.267,0.027-0.291,0.033c-2.215,0.5-3.992,1.622-5.279,3.333c-0.03,0.04-0.056,0.083-0.085,0.122
		c-0.03,0.04-0.059,0.081-0.084,0.123c-0.331,0.516-0.579,1.027-0.764,1.522c-6.765-2.666-16.327-3.393-29.096-0.021
		C9.62,18.634-3.455,30.92,1.56,49.915c6.502,24.634,48.592,18.046,62.968-1.113c1.584,1.719,3.775,2.45,6.735,2.142
		c0.697-0.072,6.801-1.556,10.426-2.306l1.893-0.393c0.034-0.008,0.066-0.021,0.099-0.03c2.18-0.462,4.014-1.755,5.186-3.687
		c0.192-0.317,0.37-0.637,0.517-0.974c2.031,1.675,4.763,2.456,7.263,2.005c0.012-0.003,8.239-1.61,8.239-1.61
		s5.197-1.025,5.284-1.044c0.125-0.02,0.256-0.057,0.392-0.103c0.03-0.009,0.06-0.018,0.062-0.019
		c0.844-0.251,1.606-0.638,2.271-1.131c0.547,0.056,1.12,0.058,1.721-0.006c-0.022,0-0.044,0-0.066-0.001
		c0.022,0.001,0.044,0.001,0.066,0.001c0.012-0.001,0.023-0.001,0.035-0.002c0.138-0.001,0.271-0.022,0.4-0.049
		c-0.013,0.002-0.025,0.009-0.04,0.012c9.917-1.766,18.275-3.172,26.305-4.426c1.918-0.329,3.35-1.285,4.282-2.851
		c0.013-0.023,0.026-0.048,0.04-0.073c3.413,1.278,7.196,1.884,11.079,1.884C170.442,36.142,177.11,28.515,176.13,20.023
		L176.13,20.023z M158.057,33.499c-3.833,0-7.44-0.548-10.924-1.812c-1.458-0.484-2.732,0.024-3.493,1.309
		c0.003,0.001-0.005,0.017-0.011,0.017c0.004-0.006,0.006-0.011,0.011-0.017v-0.001c-0.674,0.914-0.982,1.332-2.191,1.566
		c-8.298,1.294-15.831,2.568-26.296,4.407c-0.222,0.037-0.594,0.018-0.742,0.042c-0.224,0-0.396,0.018-0.623-0.032
		c-0.673-0.075-1.358,0.108-1.96,0.538c-0.447,0.304-0.854,0.542-1.38,0.697c-0.012,0-0.023,0.01-0.037,0.01
		c0.061,0-0.106,0.032-0.165,0.052c0.008,0-0.022-0.005-0.022,0.005c-1.793,0.342-3.412,0.67-5.291,1.026
		c-2.8,0.532-5.271,1.009-8.199,1.569c-1.681,0.26-3.519-0.244-4.963-1.486c-0.793-0.567-1.602-0.795-2.427-0.597
		c-0.896,0.193-1.534,0.776-1.908,1.617c-0.11,0.228-0.166,0.423-0.314,0.602c0.022,0-0.03,0.031-0.03,0.054
		c-0.777,1.327-1.846,2.046-3.344,2.409c-0.018-0.003-0.128-0.008-0.128,0.03c0.02-0.001-0.057-0.003-0.057,0.017
		c-0.672,0.078-1.11,0.225-1.784,0.361c-3.583,0.721-5.534,1.246-9.138,2.036c-0.076,0.005-1.452,0.167-2.35,0.068
		c-1.8-0.271-2.534-0.94-3.065-1.549c-0.569-0.605-1.184-1.382-2.474-1.237c-1.319,0.146-2.125,1.319-2.647,1.954
		C48.332,63.902,11.18,70.127,4.573,49.246c-6.981-22.062,15.96-31.912,26.322-33.877c9.601-1.821,16.743-1.457,23.41,0.959
		c0.678,0.264,1.485,0.317,2.238,0.016c0.699-0.281,1.083-0.859,1.454-1.598c0.108-0.342,0.246-0.669,0.467-0.975
		c0.889-1.216,1.827-1.845,3.484-2.26c0.012,0,0.049-0.005,0.036-0.005c0.073,0,0.134-0.029,0.208-0.029
		c3.361-0.584,21.412-3.553,22.116-3.673c0.011,0,0.044-0.008,0.033-0.008c6.535-0.947,10.317-0.831,13.719,0.199
		c1.131,0.34,2.007,0.054,2.911-0.785c0.562-0.721,1.353-1.075,2.484-1.281c0.005,0,0.018-0.001,0.014-0.001
		c0.012,0,0.049-0.001,0.036-0.001c0.007,0,0.021,0.001,0.021-0.007c0.014,0,0.055-0.008,0.04-0.007
		c9.343-0.988,16.898-1.71,25.579-2.299c1.234-0.034,2.793,0.348,4.246,1.899c1.025,1.173,2.585,1.342,3.873,0.46
		c2.587-1.93,6.95-3.327,11.71-3.648c10.382-0.702,22.586,4.313,24.823,16.74C174.974,25.59,169.749,33.499,158.057,33.499
		L158.057,33.499z"/>
	<g>
		<defs>
			<path id="SVGID_7_" d="M176.13,20.023c-1.704-14.761-16.772-20.481-28.521-19.429c-4.992,0.447-9.415,1.941-12.386,4.093
				c-1.869-2.215-4.493-2.946-6.408-2.842c-8.235,0.496-16.622,1.185-25.657,2.108c-0.014,0.001-0.027,0.007-0.043,0.008
				c-0.033,0.004-0.064,0.003-0.098,0.008c-1.713,0.254-3.174,0.993-4.213,2.11c-3.706-1.224-8.406-1.305-15.182-0.347
				c0.047-0.007,0.094-0.012,0.143-0.016c-0.147,0.01-19.232,2.985-22.472,3.558c-0.12,0.012-0.267,0.027-0.291,0.033
				c-2.215,0.5-3.992,1.622-5.279,3.333c-0.03,0.04-0.056,0.083-0.085,0.122c-0.03,0.04-0.059,0.081-0.084,0.123
				c-0.331,0.516-0.579,1.027-0.764,1.522c-6.765-2.666-16.327-3.393-29.096-0.021C9.62,18.634-3.455,30.92,1.56,49.915
				c6.502,24.634,48.592,18.046,62.968-1.113c1.584,1.719,3.775,2.45,6.735,2.142c0.697-0.072,6.801-1.556,10.426-2.306l1.893-0.393
				c0.034-0.008,0.066-0.021,0.099-0.03c2.18-0.462,4.014-1.755,5.186-3.687c0.192-0.317,0.37-0.637,0.517-0.974
				c2.031,1.675,4.763,2.456,7.263,2.005c0.012-0.003,8.239-1.61,8.239-1.61s5.197-1.025,5.284-1.044
				c0.125-0.02,0.256-0.057,0.392-0.103c0.03-0.009,0.06-0.018,0.062-0.019c0.844-0.251,1.606-0.638,2.271-1.131
				c0.547,0.056,1.12,0.058,1.721-0.006c-0.022,0-0.044,0-0.066-0.001c0.022,0.001,0.044,0.001,0.066,0.001
				c0.012-0.001,0.023-0.001,0.035-0.002c0.138-0.001,0.271-0.022,0.4-0.049c-0.013,0.002-0.025,0.009-0.04,0.012
				c9.917-1.766,18.275-3.172,26.305-4.426c1.918-0.329,3.35-1.285,4.282-2.851c0.013-0.023,0.026-0.048,0.04-0.073
				c3.413,1.278,7.196,1.884,11.079,1.884C170.442,36.142,177.11,28.515,176.13,20.023L176.13,20.023z M158.057,33.499
				c-3.833,0-7.44-0.548-10.924-1.812c-1.458-0.484-2.732,0.024-3.493,1.309c0.003,0.001-0.005,0.017-0.011,0.017
				c0.004-0.006,0.006-0.011,0.011-0.017v-0.001c-0.674,0.914-0.982,1.332-2.191,1.566c-8.298,1.294-15.831,2.568-26.296,4.407
				c-0.222,0.037-0.594,0.018-0.742,0.042c-0.224,0-0.396,0.018-0.623-0.032c-0.673-0.075-1.358,0.108-1.96,0.538
				c-0.447,0.304-0.854,0.542-1.38,0.697c-0.012,0-0.023,0.01-0.037,0.01c0.061,0-0.106,0.032-0.165,0.052
				c0.008,0-0.022-0.005-0.022,0.005c-1.793,0.342-3.412,0.67-5.291,1.026c-2.8,0.532-5.271,1.009-8.199,1.569
				c-1.681,0.26-3.519-0.244-4.963-1.486c-0.793-0.567-1.602-0.795-2.427-0.597c-0.896,0.193-1.534,0.776-1.908,1.617
				c-0.11,0.228-0.166,0.423-0.314,0.602c0.022,0-0.03,0.031-0.03,0.054c-0.777,1.327-1.846,2.046-3.344,2.409
				c-0.018-0.003-0.128-0.008-0.128,0.03c0.02-0.001-0.057-0.003-0.057,0.017c-0.672,0.078-1.11,0.225-1.784,0.361
				c-3.583,0.721-5.534,1.246-9.138,2.036c-0.076,0.005-1.452,0.167-2.35,0.068c-1.8-0.271-2.534-0.94-3.065-1.549
				c-0.569-0.605-1.184-1.382-2.474-1.237c-1.319,0.146-2.125,1.319-2.647,1.954C48.332,63.902,11.18,70.127,4.573,49.246
				c-6.981-22.062,15.96-31.912,26.322-33.877c9.601-1.821,16.743-1.457,23.41,0.959c0.678,0.264,1.485,0.317,2.238,0.016
				c0.699-0.281,1.083-0.859,1.454-1.598c0.108-0.342,0.246-0.669,0.467-0.975c0.889-1.216,1.827-1.845,3.484-2.26
				c0.012,0,0.049-0.005,0.036-0.005c0.073,0,0.134-0.029,0.208-0.029c3.361-0.584,21.412-3.553,22.116-3.673
				c0.011,0,0.044-0.008,0.033-0.008c6.535-0.947,10.317-0.831,13.719,0.199c1.131,0.34,2.007,0.054,2.911-0.785
				c0.562-0.721,1.353-1.075,2.484-1.281c0.005,0,0.018-0.001,0.014-0.001c0.012,0,0.049-0.001,0.036-0.001
				c0.007,0,0.021,0.001,0.021-0.007c0.014,0,0.055-0.008,0.04-0.007c9.343-0.988,16.898-1.71,25.579-2.299
				c1.234-0.034,2.793,0.348,4.246,1.899c1.025,1.173,2.585,1.342,3.873,0.46c2.587-1.93,6.95-3.327,11.71-3.648
				c10.382-0.702,22.586,4.313,24.823,16.74C174.974,25.59,169.749,33.499,158.057,33.499L158.057,33.499z"/>
		</defs>
		<clipPath id="SVGID_8_">
			<use xlink:href="#SVGID_7_"  overflow="visible"/>
		</clipPath>
		<g clip-path="url(#SVGID_8_)">
			<defs>
				<rect id="SVGID_9_" x="-3.455" y="-0.458" width="180.565" height="75.006"/>
			</defs>
			<clipPath id="SVGID_10_">
				<use xlink:href="#SVGID_9_"  overflow="visible"/>
			</clipPath>
			<g transform="matrix(1 0 0 1 -4.768372e-07 7.629395e-06)" clip-path="url(#SVGID_10_)">
				
					<image overflow="visible" width="380" height="161" xlink:href="2F372897BFC7E03A.png"  transform="matrix(0.48 0 0 -0.48 -4.3027 75.9058)">
				</image>
			</g>
		</g>
		<g clip-path="url(#SVGID_8_)">
			<defs>
				<rect id="SVGID_11_" x="-3.455" y="-0.458" width="180.565" height="75.006"/>
			</defs>
			<clipPath id="SVGID_12_">
				<use xlink:href="#SVGID_11_"  overflow="visible"/>
			</clipPath>
			<g transform="matrix(1 0 0 1 -4.768372e-07 7.629395e-06)" clip-path="url(#SVGID_12_)">
				
					<image overflow="visible" width="380" height="161" xlink:href="2F372897BFC7E03B.png"  transform="matrix(0.48 0 0 -0.48 -4.3027 75.9058)">
				</image>
			</g>
		</g>
	</g>
	<path fill="none" stroke="#FFFFFF" stroke-width="0.9461" stroke-miterlimit="2.6131" d="M176.13,20.023
		c-1.704-14.761-16.772-20.481-28.521-19.429c-4.992,0.447-9.415,1.941-12.386,4.093c-1.869-2.215-4.493-2.946-6.408-2.842
		c-8.235,0.496-16.622,1.185-25.657,2.108c-0.014,0.001-0.027,0.007-0.043,0.008c-0.033,0.004-0.064,0.003-0.098,0.008
		c-1.713,0.254-3.174,0.993-4.213,2.11c-3.706-1.224-8.406-1.305-15.182-0.347c0.047-0.007,0.094-0.012,0.143-0.016
		c-0.147,0.01-19.232,2.985-22.472,3.558c-0.12,0.012-0.267,0.027-0.291,0.033c-2.215,0.5-3.992,1.622-5.279,3.333
		c-0.03,0.04-0.056,0.083-0.085,0.122c-0.03,0.04-0.059,0.081-0.084,0.123c-0.331,0.516-0.579,1.027-0.764,1.522
		c-6.765-2.666-16.327-3.393-29.096-0.021C9.62,18.634-3.455,30.92,1.56,49.915c6.502,24.634,48.592,18.046,62.968-1.113
		c1.584,1.719,3.775,2.45,6.735,2.142c0.697-0.072,6.801-1.556,10.426-2.306l1.893-0.393c0.034-0.008,0.066-0.021,0.099-0.03
		c2.18-0.462,4.014-1.755,5.186-3.687c0.192-0.317,0.37-0.637,0.517-0.974c2.031,1.675,4.763,2.456,7.263,2.005
		c0.012-0.003,8.239-1.61,8.239-1.61s5.197-1.025,5.284-1.044c0.125-0.02,0.256-0.057,0.392-0.103
		c0.03-0.009,0.06-0.018,0.062-0.019c0.844-0.251,1.606-0.638,2.271-1.131c0.28,0.028,1.677-0.006,1.654-0.007
		c0.022,0.001,0.044,0.001,0.066,0.001c0.012-0.001,0.023-0.001,0.035-0.002c0.138-0.001,0.271-0.022,0.4-0.049
		c-0.013,0.002-0.025,0.009-0.04,0.012c9.917-1.766,18.275-3.172,26.305-4.426c1.918-0.329,3.35-1.285,4.282-2.851
		c0.013-0.023,0.026-0.048,0.04-0.073c3.413,1.278,7.196,1.884,11.079,1.884C170.442,36.142,177.11,28.515,176.13,20.023
		L176.13,20.023z"/>
	<path fill-rule="evenodd" clip-rule="evenodd" fill="#3A2A71" d="M103.574,9.763l0.522-0.108
		c8.803-0.946,17.072-1.598,25.407-2.146c0,0,0.915-0.091,1.455,0.948c0.521,1.065,0.946,2.2,1.482,3.281
		c0.315,1.095-0.535,1.125-0.535,1.125c-4.29,0.367-8.542,0.761-13.016,1.195c0,0-1.102-0.01-0.709,1.224
		c0.161,0.483,0.366,0.943,0.561,1.382c0,0,0.409,1.046,1.596,0.984c3.548-0.403,6.98-0.806,10.405-1.094
		c0,0,0.812-0.092,1.492,0.984c0.515,1.149,0.976,2.343,1.501,3.521c0.165,0.475,0.226,1.108-0.53,1.234
		c-3.485,0.432-6.887,0.812-10.517,1.309c0,0-0.998,0.03-0.673,1.339c0.209,0.455,0.392,0.959,0.56,1.433
		c0,0.001,0.429,1.178,1.626,1.035c4.503-0.575,8.782-1.245,13.173-1.782c0,0,0.793-0.16,1.483,0.974
		c0.544,1.257,0.99,2.448,1.529,3.7c0.302,0.708-0.11,1.371-0.499,1.329c-8.527,1.325-17.049,2.675-26.262,4.29
		c-1.327,0.173-1.74-1.059-1.74-1.059l0,0c-2.923-8.449-5.844-16.182-8.792-23.939C103.095,10.922,102.735,10.085,103.574,9.763
		L103.574,9.763z"/>
	<path fill="none" stroke="#1D1D1B" stroke-width="0.4199" stroke-miterlimit="2.6131" d="M111.887,34.861
		c-2.923-8.449-5.844-16.182-8.792-23.939c0,0-0.445-1.04,0.815-1.248c8.872-0.957,17.2-1.615,25.594-2.166
		c0,0,0.915-0.091,1.455,0.948c0.521,1.065,0.946,2.2,1.482,3.281c0.315,1.095-0.535,1.125-0.535,1.125
		c-4.29,0.367-8.542,0.761-13.016,1.195c0,0-1.102-0.01-0.709,1.224c0.161,0.483,0.366,0.943,0.561,1.382
		c0,0,0.409,1.046,1.596,0.984c3.548-0.403,6.98-0.806,10.405-1.094c0,0,0.812-0.092,1.492,0.984
		c0.515,1.149,0.976,2.343,1.501,3.521c0.165,0.475,0.226,1.108-0.53,1.234c-3.485,0.432-6.887,0.812-10.517,1.309
		c0,0-0.998,0.03-0.673,1.339c0.209,0.455,0.392,0.959,0.56,1.433c0,0.001,0.429,1.178,1.626,1.035
		c4.503-0.575,8.782-1.245,13.173-1.782c0,0,0.793-0.16,1.483,0.974c0.544,1.257,0.99,2.448,1.529,3.7
		c0.302,0.708-0.11,1.371-0.499,1.329c-8.527,1.325-17.049,2.675-26.262,4.29C112.3,36.093,111.887,34.861,111.887,34.861"/>
	<path fill-rule="evenodd" clip-rule="evenodd" fill="#3A2A71" d="M61.378,15.854l0.664-0.138
		c7.346-1.233,14.544-2.393,22.001-3.461c7.218-0.993,11.201-0.715,13.876,0.864c1.589,0.943,3.044,2.519,3.727,4.777
		c0.829,2.863-0.419,5.633-4.207,7.691c-0.028,0.04-0.121,0.061-0.16,0.09c-0.058,0.044-0.175,0.088-0.238,0.137
		c-0.039,0.03-0.122,0.061-0.161,0.091c3.739,3.19,7.397,6.182,11.194,9.429c0,0,0.484,0.357,0.402,0.933
		c0,0,0.051,0.514-0.518,0.66c-4.447,0.824-8.736,1.658-13.262,2.568c-0.487,0.079-1.302-0.24-1.711-0.683
		c-4.362-4.475-8.485-8.442-12.771-12.666l0,0c0,0-0.4-0.409,0.123-0.582c0.014,0.001,0.229-0.033,1.208-0.212
		c3.65-0.667,5.668-1.344,6.592-2.829c0.276-0.628,0.281-1.416,0.054-1.92c-1.128-2.633-3.491-2.334-5.887-1.937
		c-1.394,0.239-2.641,0.444-4.032,0.646c-1.031,0.205-1.62,1.11-1.329,2.131c1.875,6.139,3.701,12.259,5.679,18.929
		c0.273,0.815-0.285,1.605-0.995,1.791c-4.157,0.784-8.137,1.752-12.322,2.642c-1.749,0.17-1.969-1.221-1.968-1.222
		c-2.462-9.211-4.721-17.781-6.94-26.258C60.398,17.327,60.083,16.296,61.378,15.854L61.378,15.854z"/>
	<path fill="none" stroke="#1D1D1B" stroke-width="0.4199" stroke-miterlimit="2.6131" d="M80.215,26.147c0,0-0.4-0.409,0.123-0.582
		c0.014,0.001,0.229-0.033,1.208-0.212c3.65-0.667,5.668-1.344,6.592-2.829c0.276-0.628,0.281-1.416,0.054-1.92
		c-1.128-2.633-3.491-2.334-5.887-1.937c-1.394,0.239-2.641,0.444-4.032,0.646c-1.031,0.205-1.62,1.11-1.329,2.131
		c1.875,6.139,3.701,12.259,5.679,18.929c0.273,0.815-0.285,1.605-0.995,1.791c-4.157,0.784-8.137,1.752-12.322,2.642
		c-1.749,0.17-1.969-1.221-1.968-1.222c-2.462-9.211-4.721-17.781-6.94-26.258c0,0-0.348-1.131,1.176-1.532
		c7.508-1.263,14.853-2.449,22.468-3.539c7.218-0.993,11.201-0.715,13.876,0.864c1.589,0.943,3.044,2.519,3.727,4.777
		c0.829,2.863-0.419,5.633-4.207,7.691c-0.028,0.04-0.121,0.061-0.16,0.09c-0.058,0.044-0.175,0.088-0.238,0.137
		c-0.039,0.03-0.122,0.061-0.161,0.091c3.739,3.19,7.397,6.182,11.194,9.429c0,0,0.484,0.357,0.402,0.933
		c0,0,0.051,0.514-0.518,0.66c-4.447,0.824-8.736,1.658-13.262,2.568c-0.487,0.079-1.302-0.24-1.711-0.683
		C88.623,34.338,84.5,30.371,80.215,26.147"/>
	<path fill-rule="evenodd" clip-rule="evenodd" fill="#3A2A71" d="M28.259,20.591l2.706-0.562
		c9.518-1.753,17.706-0.565,23.175,3.136c3.277,2.288,5.37,5.395,6.401,9.576c1.573,6.741-0.674,12.003-5.188,16.273
		c-4.721,4.189-11.31,7.127-18.338,8.757c-11.004,2.556-20.206,1.493-25.898-2.682c-3.243-2.542-5.178-6.011-5.676-10.557
		c-0.47-4.505,0.501-8.367,2.955-12.039c1.963-2.974,4.922-5.502,8.757-7.659C20.369,22.974,24.044,21.573,28.259,20.591
		L28.259,20.591z M22.023,40.508c0.301,2.202,1.477,4.101,3.34,5.481c2.638,1.922,6.131,2.523,9.737,1.73
		c3.548-0.818,6.569-2.852,8.265-5.65c1.182-2.036,1.61-4.101,1.145-6.337c-0.402-2.118-1.644-3.947-3.486-5.261
		c-2.572-1.835-5.886-2.328-9.315-1.713c-2.853,0.637-5.44,2.078-7.292,4.15C22.422,35.146,21.626,37.796,22.023,40.508
		L22.023,40.508L22.023,40.508z"/>
	<path fill="none" stroke="#1D1D1B" stroke-width="0.4199" stroke-miterlimit="2.6131" d="M60.542,32.741
		c1.573,6.741-0.674,12.003-5.188,16.273c-4.721,4.189-11.31,7.127-18.338,8.757c-11.004,2.556-20.206,1.493-25.898-2.682
		c-3.243-2.542-5.178-6.011-5.676-10.557c-0.47-4.505,0.501-8.367,2.955-12.039c1.963-2.974,4.922-5.502,8.757-7.659
		c3.722-2.153,8.055-3.691,13.129-4.677c9.809-1.938,18.259-0.783,23.859,3.007C57.417,25.453,59.51,28.561,60.542,32.741
		 M22.023,40.508c0.301,2.202,1.477,4.101,3.34,5.481c2.638,1.922,6.131,2.523,9.737,1.73c3.548-0.818,6.569-2.852,8.265-5.65
		c1.182-2.036,1.61-4.101,1.145-6.337c-0.402-2.118-1.644-3.947-3.486-5.261c-2.572-1.835-5.886-2.328-9.315-1.713
		c-2.853,0.637-5.44,2.078-7.292,4.15C22.422,35.146,21.626,37.796,22.023,40.508"/>
	<path fill-rule="evenodd" clip-rule="evenodd" fill="#3A2A71" d="M143.244,6.357L144.963,6c1.047-0.17,2.165-0.272,3.347-0.303
		c5.815-0.126,10.771,1.488,14.627,4.339c2.274,1.738,3.97,3.793,5.245,6.416c2.487,6.323-1.188,12.273-8.652,13.326
		c-5.971,0.823-11.985-0.455-16.586-3.624c-2.709-1.935-4.706-4.349-6.004-7.332c-1.304-3.032-1.444-5.468-0.5-7.581
		C137.541,8.86,139.935,7.209,143.244,6.357L143.244,6.357z M146.824,17.649c0.653,1.489,1.726,2.696,3.156,3.757
		c1.938,1.356,4.188,2.058,6.2,1.879c1.907-0.164,3.309-1.229,3.767-2.796c0.351-1.146,0.106-2.361-0.5-3.784
		c-0.704-1.327-1.639-2.606-3.01-3.569c-1.847-1.344-3.979-2.043-5.913-1.983c-1.66,0.107-2.933,0.779-3.704,1.901
		C146.104,14.253,146.021,15.871,146.824,17.649L146.824,17.649L146.824,17.649z"/>
	<path fill="none" stroke="#1D1D1B" stroke-width="0.4199" stroke-miterlimit="2.6131" d="M168.182,16.453
		c2.487,6.323-1.188,12.273-8.652,13.326c-5.971,0.823-11.985-0.455-16.586-3.624c-2.709-1.935-4.706-4.349-6.004-7.332
		c-1.304-3.032-1.444-5.468-0.5-7.581c1.604-3.468,5.947-5.389,11.87-5.544c5.815-0.126,10.771,1.488,14.627,4.339
		C165.211,11.775,166.906,13.83,168.182,16.453 M146.824,17.649c0.653,1.489,1.726,2.696,3.156,3.757
		c1.938,1.356,4.188,2.058,6.2,1.879c1.907-0.164,3.309-1.229,3.767-2.796c0.351-1.146,0.106-2.361-0.5-3.784
		c-0.704-1.327-1.639-2.606-3.01-3.569c-1.847-1.344-3.979-2.043-5.913-1.983c-1.66,0.107-2.933,0.779-3.704,1.901
		C146.104,14.253,146.021,15.871,146.824,17.649"/>
	<path fill-rule="evenodd" clip-rule="evenodd" fill="#FFFFFF" d="M113.102,32.989c-2.922-8.448-5.845-16.181-8.792-23.939
		c0,0-0.446-1.038,0.815-1.248c8.872-0.957,17.202-1.615,25.596-2.166c0,0,0.916-0.091,1.455,0.949
		c0.522,1.065,0.947,2.199,1.482,3.281c0.315,1.095-0.535,1.123-0.535,1.123c-4.29,0.37-8.541,0.764-13.017,1.197
		c0,0-1.103-0.01-0.708,1.224c0.161,0.483,0.365,0.941,0.561,1.381c0,0,0.409,1.044,1.596,0.984
		c3.547-0.403,6.98-0.806,10.405-1.094c0,0,0.812-0.091,1.493,0.985c0.514,1.149,0.975,2.342,1.5,3.521
		c0.166,0.475,0.227,1.107-0.529,1.234c-3.485,0.432-6.888,0.812-10.518,1.31c0,0-0.998,0.027-0.673,1.339
		c0.209,0.453,0.392,0.958,0.561,1.433c-0.001,0,0.428,1.177,1.626,1.033c4.502-0.575,8.781-1.245,13.171-1.782
		c0,0,0.794-0.159,1.483,0.975c0.545,1.256,0.991,2.448,1.53,3.699c0.302,0.709-0.11,1.371-0.497,1.33
		c-8.529,1.325-17.051,2.674-26.266,4.288C113.515,34.22,113.102,32.989,113.102,32.989L113.102,32.989z"/>
	<path fill-rule="evenodd" clip-rule="evenodd" fill="#FFFFFF" d="M82.177,23.714c0,0-0.4-0.409,0.123-0.581
		c0.015,0,0.229-0.033,1.208-0.212c3.651-0.666,5.668-1.343,6.594-2.83c0.275-0.628,0.28-1.416,0.053-1.919
		c-1.128-2.633-3.491-2.335-5.886-1.937c-1.395,0.239-2.642,0.446-4.032,0.647c-1.032,0.205-1.62,1.11-1.329,2.131
		c1.874,6.139,3.701,12.259,5.68,18.925c0.272,0.814-0.286,1.605-0.997,1.791c-4.157,0.784-8.135,1.752-12.321,2.641
		c-1.748,0.17-1.968-1.221-1.968-1.221c-2.462-9.207-4.721-17.779-6.94-26.255c0,0-0.347-1.13,1.177-1.531
		c7.507-1.264,14.853-2.45,22.467-3.54c7.218-0.993,11.201-0.715,13.876,0.864c1.59,0.943,3.044,2.52,3.727,4.777
		c0.829,2.862-0.418,5.633-4.207,7.691c-0.028,0.04-0.121,0.06-0.159,0.091c-0.06,0.043-0.175,0.086-0.239,0.136
		c-0.039,0.03-0.121,0.061-0.161,0.091c3.739,3.19,7.399,6.181,11.195,9.428c0,0,0.483,0.359,0.402,0.933c0,0,0.05,0.515-0.518,0.66
		c-4.447,0.825-8.737,1.657-13.263,2.566c-0.487,0.08-1.302-0.242-1.711-0.682C90.586,31.906,86.464,27.938,82.177,23.714
		L82.177,23.714z"/>
	<path fill-rule="evenodd" clip-rule="evenodd" fill="#FFFFFF" d="M62.463,30.212c1.573,6.719-0.674,12.01-5.188,16.342
		c-4.722,4.257-11.31,7.284-18.338,9.012c-11.004,2.71-20.206,1.776-25.898-2.319C9.795,50.75,7.86,47.308,7.361,42.77
		c-0.47-4.499,0.501-8.372,2.955-12.077c1.963-3,4.921-5.57,8.757-7.781c3.722-2.206,8.055-3.804,13.128-4.86
		c9.81-2.074,18.26-1.038,23.859,2.675C59.338,22.969,61.431,26.046,62.463,30.212L62.463,30.212z M23.945,38.513
		c0.301,2.198,1.477,4.08,3.34,5.435c2.639,1.886,6.132,2.438,9.737,1.595c3.548-0.867,6.568-2.942,8.265-5.766
		c1.182-2.05,1.609-4.119,1.145-6.35c-0.402-2.112-1.645-3.923-3.485-5.212c-2.574-1.8-5.887-2.247-9.316-1.583
		c-2.853,0.676-5.439,2.153-7.291,4.252C24.344,33.148,23.547,35.81,23.945,38.513L23.945,38.513z"/>
	<path fill-rule="evenodd" clip-rule="evenodd" fill="#FFFFFF" d="M169.587,15.237c2.487,6.322-1.188,12.271-8.653,13.324
		c-5.972,0.823-11.985-0.455-16.586-3.623c-2.708-1.935-4.705-4.349-6.004-7.333c-1.304-3.032-1.444-5.466-0.501-7.579
		c1.604-3.468,5.948-5.391,11.871-5.544c5.815-0.127,10.771,1.488,14.626,4.338C166.615,10.559,168.312,12.613,169.587,15.237
		L169.587,15.237z M148.228,16.432c0.653,1.489,1.727,2.697,3.157,3.758c1.938,1.356,4.188,2.056,6.2,1.878
		c1.907-0.165,3.309-1.229,3.767-2.796c0.35-1.147,0.106-2.362-0.502-3.785c-0.702-1.327-1.637-2.606-3.008-3.568
		c-1.847-1.344-3.98-2.044-5.913-1.984c-1.659,0.107-2.934,0.78-3.706,1.901C147.508,13.038,147.424,14.652,148.228,16.432
		L148.228,16.432z"/>
	<path fill-rule="evenodd" clip-rule="evenodd" fill="#BEB2D2" d="M140.074,24.731c-0.689-1.133-1.483-0.975-1.483-0.975
		c-4.39,0.538-8.669,1.208-13.171,1.782c-1.198,0.144-1.627-1.033-1.626-1.033c-0.169-0.476-0.352-0.98-0.561-1.433
		c-0.325-1.312,0.673-1.339,0.673-1.339c3.63-0.498,7.032-0.878,10.518-1.31c0.756-0.127,0.695-0.76,0.529-1.234
		c-0.525-1.178-0.986-2.372-1.5-3.521c-0.681-1.076-1.493-0.985-1.493-0.985c-3.425,0.289-6.858,0.691-10.405,1.094
		c-1.187,0.06-1.596-0.984-1.596-0.984c-0.195-0.44-0.399-0.898-0.561-1.381c-0.395-1.234,0.708-1.224,0.708-1.224
		c4.476-0.433,8.727-0.828,13.017-1.197c0,0,0.851-0.027,0.535-1.123c-0.535-1.083-0.96-2.216-1.482-3.281
		c-0.539-1.04-1.455-0.949-1.455-0.949c-8.394,0.551-16.724,1.208-25.596,2.166c-1.261,0.209-0.815,1.248-0.815,1.248
		c2.948,7.758,5.87,15.491,8.792,23.939c0.001,0,0.413,1.231,1.741,1.059c9.214-1.614,17.735-2.963,26.265-4.288
		c0.387,0.042,0.799-0.621,0.497-1.33C141.065,27.179,140.619,25.987,140.074,24.731L140.074,24.731z"/>
	<path fill-rule="evenodd" clip-rule="evenodd" fill="#BEB2D2" d="M110.037,32.901c-3.796-3.247-7.456-6.238-11.195-9.428
		c0.04-0.031,0.122-0.061,0.161-0.091c0.064-0.05,0.18-0.093,0.239-0.136c0.038-0.031,0.131-0.051,0.159-0.091
		c3.789-2.058,5.036-4.829,4.207-7.691c-0.683-2.257-2.137-3.834-3.727-4.777c-2.675-1.58-6.658-1.857-13.876-0.864
		c-7.614,1.09-14.96,2.276-22.467,3.54c-1.524,0.401-1.177,1.531-1.177,1.531c2.219,8.477,4.479,17.049,6.94,26.255
		c0,0,0.22,1.391,1.968,1.221c4.186-0.889,8.165-1.856,12.321-2.641c0.711-0.186,1.269-0.977,0.997-1.791
		c-1.979-6.667-3.806-12.787-5.68-18.925c-0.291-1.021,0.297-1.927,1.329-2.131c1.39-0.202,2.638-0.408,4.032-0.647
		c2.395-0.398,4.758-0.696,5.886,1.937c0.228,0.504,0.223,1.292-0.053,1.919c-0.926,1.487-2.943,2.164-6.594,2.83
		c-0.979,0.179-1.193,0.212-1.208,0.212c-0.523,0.172-0.123,0.581-0.123,0.581c4.287,4.224,8.409,8.192,12.771,12.665
		c0.409,0.44,1.224,0.761,1.711,0.682c4.525-0.91,8.815-1.742,13.263-2.566c0.567-0.145,0.518-0.66,0.518-0.66
		C110.521,33.26,110.037,32.901,110.037,32.901L110.037,32.901z"/>
	<path fill-rule="evenodd" clip-rule="evenodd" fill="#BEB2D2" d="M56.061,20.727c-5.599-3.713-14.049-4.75-23.859-2.675
		c-5.073,1.056-9.406,2.655-13.128,4.86c-3.835,2.21-6.794,4.781-8.757,7.781c-2.454,3.706-3.425,7.578-2.955,12.077
		c0.499,4.538,2.434,7.98,5.676,10.477c5.692,4.096,14.895,5.029,25.898,2.319c7.028-1.728,13.616-4.755,18.338-9.012
		c4.514-4.332,6.761-9.623,5.188-16.342C61.431,26.046,59.338,22.969,56.061,20.727L56.061,20.727z M45.288,39.777
		c-1.697,2.823-4.717,4.898-8.265,5.766c-3.605,0.844-7.098,0.291-9.737-1.595c-1.863-1.354-3.04-3.236-3.34-5.435
		c-0.397-2.704,0.399-5.365,2.395-7.629c1.852-2.1,4.438-3.577,7.291-4.252c3.429-0.663,6.743-0.217,9.316,1.583
		c1.841,1.289,3.083,3.1,3.485,5.212C46.897,35.658,46.47,37.727,45.288,39.777L45.288,39.777z"/>
	<path fill-rule="evenodd" clip-rule="evenodd" fill="#BEB2D2" d="M169.587,15.237c2.487,6.322-1.188,12.271-8.653,13.324
		c-5.972,0.823-11.985-0.455-16.586-3.623c-2.708-1.935-4.705-4.349-6.004-7.333c-1.304-3.032-1.444-5.466-0.501-7.579
		c1.604-3.468,5.948-5.391,11.871-5.544c5.815-0.127,10.771,1.488,14.626,4.338C166.615,10.559,168.312,12.613,169.587,15.237
		L169.587,15.237z M148.228,16.432c0.653,1.489,1.727,2.697,3.157,3.758c1.938,1.356,4.188,2.056,6.2,1.878
		c1.907-0.165,3.309-1.229,3.767-2.796c0.35-1.147,0.106-2.362-0.502-3.785c-0.702-1.327-1.637-2.606-3.008-3.568
		c-1.847-1.344-3.98-2.044-5.913-1.984c-1.659,0.107-2.934,0.78-3.706,1.901C147.508,13.038,147.424,14.652,148.228,16.432
		L148.228,16.432z"/>
	<path fill-rule="evenodd" clip-rule="evenodd" fill="#FFFFFF" d="M114.066,31.667c-2.9-8.461-5.802-16.206-8.73-23.977
		c0,0-0.442-1.041,0.817-1.245c8.86-0.919,17.181-1.542,25.563-2.058c0,0,0.915-0.087,1.452,0.954
		c0.519,1.067,0.94,2.204,1.472,3.288c0.313,1.096-0.535,1.123-0.535,1.123c-4.285,0.35-8.531,0.727-13.002,1.142
		c0,0-1.101-0.015-0.71,1.22c0.161,0.483,0.364,0.944,0.558,1.385c0,0,0.408,1.047,1.591,0.99c3.544-0.389,6.973-0.776,10.394-1.051
		c0,0,0.811-0.087,1.489,0.991c0.512,1.152,0.969,2.349,1.491,3.529c0.163,0.475,0.223,1.107-0.532,1.231
		c-3.48,0.417-6.879,0.784-10.505,1.267c0,0-0.996,0.024-0.674,1.336c0.207,0.455,0.388,0.96,0.556,1.436
		c0,0,0.426,1.178,1.621,1.042c4.498-0.556,8.771-1.209,13.157-1.729c0,0,0.794-0.156,1.479,0.981
		c0.541,1.259,0.985,2.452,1.521,3.707c0.299,0.709-0.112,1.371-0.501,1.327c-8.519,1.289-17.029,2.604-26.235,4.179
		C114.477,32.901,114.067,31.667,114.066,31.667L114.066,31.667z"/>
	<path fill-rule="evenodd" clip-rule="evenodd" fill="#FFFFFF" d="M83.204,22.262c0,0-0.398-0.41,0.125-0.58
		c0.014,0.001,0.229-0.031,1.207-0.208c3.646-0.65,5.665-1.319,6.588-2.802c0.278-0.626,0.285-1.414,0.059-1.918
		c-1.121-2.639-3.481-2.35-5.875-1.962c-1.393,0.234-2.639,0.434-4.027,0.63c-1.031,0.2-1.62,1.104-1.332,2.125
		c1.859,6.147,3.671,12.275,5.632,18.949c0.271,0.816-0.288,1.605-0.999,1.788c-4.153,0.766-8.127,1.719-12.31,2.589
		c-1.745,0.164-1.962-1.228-1.962-1.229c-2.44-9.218-4.678-17.798-6.876-26.286c0,0-0.345-1.131,1.178-1.526
		c7.5-1.232,14.836-2.389,22.443-3.447c7.21-0.962,11.187-0.669,13.854,0.922c1.585,0.949,3.035,2.532,3.713,4.793
		c0.82,2.866-0.431,5.631-4.217,7.674c-0.029,0.039-0.121,0.059-0.16,0.089c-0.059,0.044-0.174,0.086-0.239,0.136
		c-0.04,0.03-0.121,0.061-0.161,0.09c3.729,3.205,7.376,6.212,11.16,9.476c0,0,0.481,0.359,0.399,0.934c0,0,0.05,0.515-0.519,0.658
		c-4.441,0.806-8.727,1.621-13.248,2.512c-0.487,0.077-1.3-0.246-1.708-0.689C91.586,30.49,87.477,26.505,83.204,22.262
		L83.204,22.262z"/>
	<path fill-rule="evenodd" clip-rule="evenodd" fill="#FFFFFF" d="M63.505,28.867c1.557,6.726-0.698,12.007-5.215,16.322
		c-4.723,4.236-11.309,7.237-18.331,8.936c-10.993,2.666-20.181,1.693-25.855-2.428c-3.234-2.508-5.158-5.959-5.647-10.5
		c-0.46-4.5,0.517-8.369,2.976-12.064c1.966-2.993,4.926-5.55,8.761-7.744c3.721-2.191,8.05-3.771,13.12-4.807
		c9.799-2.035,18.234-0.962,23.819,2.773C60.4,21.611,62.483,24.697,63.505,28.867L63.505,28.867z M25.025,37.01
		c0.295,2.2,1.466,4.084,3.325,5.449c2.63,1.896,6.117,2.464,9.719,1.635c3.545-0.854,6.565-2.915,8.266-5.732
		c1.184-2.045,1.616-4.112,1.156-6.345c-0.397-2.113-1.633-3.93-3.47-5.226c-2.565-1.811-5.874-2.271-9.299-1.623
		c-2.85,0.665-5.436,2.131-7.291,4.223C25.434,31.646,24.634,34.304,25.025,37.01L25.025,37.01z"/>
	<path fill-rule="evenodd" clip-rule="evenodd" fill="#FFFFFF" d="M170.522,14.3c2.487,6.324-1.188,12.272-8.652,13.325
		c-5.972,0.824-11.984-0.454-16.587-3.623c-2.707-1.936-4.705-4.348-6.003-7.332c-1.303-3.033-1.444-5.466-0.5-7.582
		c1.604-3.467,5.947-5.389,11.87-5.543c5.815-0.127,10.771,1.487,14.626,4.34C167.551,9.623,169.247,11.677,170.522,14.3
		L170.522,14.3z M149.165,15.498c0.653,1.489,1.725,2.695,3.156,3.756c1.937,1.356,4.188,2.058,6.2,1.88
		c1.907-0.166,3.309-1.231,3.767-2.797c0.351-1.146,0.105-2.361-0.502-3.784c-0.702-1.327-1.638-2.606-3.008-3.57
		c-1.848-1.343-3.979-2.044-5.913-1.983c-1.66,0.108-2.933,0.78-3.704,1.901C148.443,12.102,148.36,13.717,149.165,15.498
		L149.165,15.498z"/>
	<path fill-rule="evenodd" clip-rule="evenodd" fill="#432A80" d="M53.133,70.931c-0.272,0-0.544,0.068-0.817,0.204
		c-0.953,0.546-1.361,1.295-1.293,2.249c0.272,0.817,0.885,0.954,1.77,0.545c0.272-0.136,0.613-0.409,0.817-0.613
		c0.068,0.137,0.068,0.272,0.136,0.409c-0.34,0.341-0.613,0.477-0.817,0.613c-1.361,0.75-2.179,0.545-2.451-0.682
		c-0.205-1.158,0.409-2.181,1.702-2.93c0.272-0.137,0.613-0.273,0.885-0.273C53.133,70.59,53.133,70.727,53.133,70.931
		L53.133,70.931z"/>
	<path fill-rule="evenodd" clip-rule="evenodd" fill="#432A80" d="M53.609,69.772c0.205-0.136,0.409-0.204,0.545-0.271
		c0.136,0.545,0.204,1.021,0.34,1.566l0,0c0.136-0.408,0.34-0.613,0.817-0.886c0.749-0.341,1.089-0.136,1.293,0.546
		c0.136,0.477,0.204,0.886,0.272,1.362c-0.136,0.137-0.272,0.204-0.477,0.272c-0.068-0.408-0.204-0.749-0.272-1.227
		c-0.136-0.545-0.272-0.749-0.749-0.545c-0.681,0.341-0.749,0.75-0.681,1.431c0.068,0.409,0.136,0.75,0.205,1.159
		c-0.205,0.067-0.341,0.204-0.477,0.272C54.154,72.226,53.882,71.135,53.609,69.772L53.609,69.772z"/>
	<path fill-rule="evenodd" clip-rule="evenodd" fill="#432A80" d="M57.694,70.454c-0.068-0.545,0.136-1.021,0.681-1.362
		c0.613-0.272,0.885,0,1.089,0.477c0.068,0.478-0.068,0.886-0.749,1.295C58.103,71.135,57.831,70.863,57.694,70.454L57.694,70.454z
		 M57.149,70.727c0.137,0.681,0.749,0.886,1.634,0.477c0.953-0.545,1.293-1.158,1.225-1.908c-0.272-0.682-0.817-0.954-1.702-0.545
		C57.422,69.16,57.014,69.909,57.149,70.727L57.149,70.727z"/>
	<path fill-rule="evenodd" clip-rule="evenodd" fill="#432A80" d="M62.12,67.456c-0.205,0-0.34,0.068-0.545,0.136
		c-0.544,0.273-0.749,0.818-0.681,1.295c0.136,0.409,0.34,0.682,1.089,0.409c0.136-0.068,0.34-0.204,0.477-0.409
		c0.068,0.137,0.068,0.205,0.136,0.341c-0.205,0.205-0.409,0.273-0.613,0.409c-0.953,0.409-1.43,0.204-1.634-0.477
		c-0.136-0.75,0.204-1.432,1.157-1.908c0.204-0.137,0.408-0.205,0.613-0.205C62.12,67.183,62.12,67.319,62.12,67.456L62.12,67.456z"
		/>
	<path fill-rule="evenodd" clip-rule="evenodd" fill="#432A80" d="M63.277,67.728c-0.068-0.409,0.136-0.886,0.681-1.227
		c0.545-0.204,0.885,0,1.089,0.478c0.068,0.408-0.068,0.886-0.681,1.158C63.686,68.41,63.413,68.206,63.277,67.728L63.277,67.728z
		 M62.8,68c0.136,0.682,0.681,0.818,1.634,0.478c0.817-0.409,1.226-1.022,1.089-1.772c-0.136-0.681-0.749-0.953-1.634-0.613
		C63.005,66.57,62.664,67.251,62.8,68L62.8,68z"/>
	<path fill-rule="evenodd" clip-rule="evenodd" fill="#432A80" d="M65.591,64.117c0.137-0.068,0.272-0.137,0.477-0.204
		c0.272,1.226,0.477,2.248,0.749,3.406c-0.204,0.068-0.34,0.137-0.544,0.205C66.068,66.501,65.864,65.547,65.591,64.117
		L65.591,64.117z"/>
	<path fill-rule="evenodd" clip-rule="evenodd" fill="#432A80" d="M68.996,65.479c0.068,0.341-0.068,0.613-0.613,0.818
		c-0.272,0.136-0.477,0.136-0.544-0.068c-0.068-0.409,0.544-0.682,0.817-0.817c0.068-0.068,0.204-0.068,0.34-0.137
		C68.928,65.343,68.996,65.412,68.996,65.479L68.996,65.479z M67.362,65.207c0.272-0.204,0.477-0.408,0.749-0.545
		c0.544-0.204,0.68-0.068,0.817,0.341c-0.205,0-0.409,0.136-0.545,0.204c-0.544,0.272-1.157,0.682-1.089,1.227
		c0.136,0.478,0.476,0.478,1.089,0.205c0.477-0.205,0.681-0.478,0.749-0.682l0,0c0.068,0.068,0.068,0.204,0.068,0.272
		c0.205-0.068,0.34-0.137,0.477-0.204c0-0.068-0.068-0.137-0.068-0.409c-0.136-0.272-0.136-0.545-0.204-0.817
		c-0.136-0.682-0.477-0.818-1.293-0.546c-0.409,0.205-0.613,0.341-0.817,0.613C67.294,65.002,67.362,65.138,67.362,65.207
		L67.362,65.207z"/>
	<path fill-rule="evenodd" clip-rule="evenodd" fill="#432A80" d="M71.311,63.367c-0.205,0.068-0.477,0.205-0.681,0.272
		c0.068,0.409,0.136,0.75,0.204,1.227c0.136,0.205,0.272,0.272,0.477,0.137c0.204-0.068,0.272-0.137,0.34-0.204
		c0,0.136,0.068,0.204,0.068,0.34c-0.136,0.068-0.272,0.137-0.408,0.205c-0.545,0.204-0.817,0.204-0.954-0.205
		c-0.068-0.477-0.136-0.817-0.272-1.294c-0.204,0.068-0.34,0.204-0.545,0.272c-0.068-0.137-0.068-0.204-0.068-0.341
		c0.205-0.068,0.34-0.204,0.544-0.272c0-0.205-0.068-0.341-0.068-0.546c0.068-0.136,0.272-0.272,0.408-0.408
		c0.068,0.272,0.137,0.477,0.137,0.749c0.272-0.067,0.476-0.204,0.749-0.272C71.242,63.163,71.242,63.231,71.311,63.367
		L71.311,63.367z"/>
	<path fill-rule="evenodd" clip-rule="evenodd" fill="#432A80" d="M72.332,63.503c0.068-0.272,0.136-0.682,0.613-0.886
		c0.408-0.137,0.612,0,0.749,0.34C73.216,63.163,72.876,63.298,72.332,63.503L72.332,63.503z M74.17,63.572
		c-0.068,0.136-0.341,0.408-0.749,0.545c-0.477,0.204-0.817,0.136-1.021-0.272c0.681-0.341,1.226-0.546,1.906-0.818
		c-0.204-0.682-0.477-1.09-1.429-0.749c-0.749,0.341-1.021,0.886-1.021,1.636c0.204,0.749,0.613,0.886,1.634,0.477
		c0.409-0.205,0.613-0.341,0.749-0.477C74.238,63.844,74.238,63.708,74.17,63.572L74.17,63.572z"/>
	<path fill-rule="evenodd" clip-rule="evenodd" fill="#432A80" d="M77.642,59.959c-0.272,0-0.409,0-0.681,0.137
		c-0.272,0.136-0.545,0.272-0.545,0.681c0.341,0.546,1.43-0.136,1.838,0.75c0.068,0.682-0.34,1.022-1.157,1.363
		c-0.204,0.067-0.477,0.136-0.681,0.136c-0.068-0.068-0.068-0.204-0.068-0.341c0.205,0,0.477-0.067,0.749-0.136
		c0.34-0.137,0.613-0.409,0.613-0.75c-0.272-0.613-1.43,0.204-1.771-0.817c-0.136-0.613,0.272-1.022,0.885-1.295
		c0.205-0.137,0.477-0.205,0.817-0.205C77.574,59.619,77.642,59.755,77.642,59.959L77.642,59.959z"/>
	<path fill-rule="evenodd" clip-rule="evenodd" fill="#432A80" d="M80.297,60.709c0.068,0.341-0.136,0.613-0.613,0.817
		c-0.272,0.068-0.477,0.068-0.544-0.136c-0.068-0.341,0.476-0.614,0.817-0.75c0.068,0,0.136-0.068,0.272-0.068
		C80.229,60.641,80.297,60.641,80.297,60.709L80.297,60.709z M78.731,60.504c0.136-0.204,0.409-0.408,0.681-0.545
		c0.477-0.204,0.681-0.068,0.749,0.341c-0.136,0-0.34,0.068-0.477,0.136c-0.544,0.205-1.089,0.614-1.021,1.159
		c0.136,0.408,0.408,0.408,1.021,0.204c0.409-0.204,0.613-0.408,0.749-0.613l0,0c0,0.137,0,0.205,0.068,0.272
		c0.136-0.067,0.272-0.136,0.409-0.204c0-0.068-0.068-0.137-0.068-0.341c-0.068-0.272-0.136-0.545-0.204-0.817
		c-0.205-0.614-0.409-0.818-1.226-0.478c-0.34,0.137-0.544,0.272-0.749,0.545C78.663,60.232,78.663,60.369,78.731,60.504
		L78.731,60.504z"/>
	<path fill-rule="evenodd" clip-rule="evenodd" fill="#432A80" d="M80.978,59.074c0.136-0.068,0.272-0.137,0.409-0.204
		c0,0.136,0.068,0.272,0.068,0.341l0,0c0.136-0.273,0.34-0.546,0.749-0.682c0.681-0.273,1.021-0.068,1.157,0.545
		c0.068,0.408,0.136,0.749,0.204,1.09c-0.136,0.068-0.272,0.137-0.408,0.205c-0.068-0.341-0.204-0.613-0.272-0.954
		c-0.136-0.478-0.204-0.682-0.681-0.545c-0.545,0.272-0.681,0.612-0.545,1.158c0.068,0.272,0.136,0.545,0.205,0.886
		c-0.136,0.068-0.34,0.068-0.477,0.137C81.25,60.369,81.114,59.755,80.978,59.074L80.978,59.074z"/>
	<path fill-rule="evenodd" clip-rule="evenodd" fill="#432A80" d="M84.313,58.87c-0.136-0.341-0.068-0.75,0.477-1.022
		c0.545-0.137,0.817,0.137,0.885,0.545c0.068,0.341-0.068,0.682-0.545,0.954C84.586,59.55,84.381,59.21,84.313,58.87L84.313,58.87z
		 M85.879,59.278c0.136-0.067,0.34-0.067,0.477-0.136c-0.204-1.091-0.409-1.977-0.681-3.067c-0.136,0.068-0.272,0.137-0.409,0.137
		c0.068,0.478,0.204,0.954,0.272,1.432l0,0c-0.204-0.205-0.409-0.205-0.885-0.068c-0.817,0.341-0.953,0.886-0.885,1.499
		c0.136,0.545,0.477,0.817,1.293,0.613c0.477-0.205,0.681-0.477,0.749-0.682h0.068C85.879,59.142,85.879,59.21,85.879,59.278
		L85.879,59.278z"/>
	<path fill-rule="evenodd" clip-rule="evenodd" fill="#432A80" d="M89.828,57.779c-0.136,0.068-0.272,0.137-0.477,0.205
		c-0.341-0.409-0.613-0.818-1.021-1.363l0,0c-0.068,0.682-0.136,1.227-0.272,1.84c-0.136,0.068-0.34,0.136-0.477,0.204
		c-0.476-0.545-0.749-1.021-1.225-1.703c0.204-0.068,0.34-0.068,0.477-0.137c0.34,0.545,0.613,0.954,0.953,1.431l0,0
		c0.136-0.612,0.136-1.158,0.272-1.907c0.137-0.068,0.341-0.137,0.545-0.205c0.341,0.613,0.545,0.954,0.885,1.432
		c0.068,0,0.068,0,0.068,0c0.068-0.613,0.137-1.091,0.204-1.84c0.137-0.068,0.272-0.068,0.477-0.137
		C90.101,56.416,89.964,57.03,89.828,57.779L89.828,57.779z"/>
	<path fill-rule="evenodd" clip-rule="evenodd" fill="#432A80" d="M90.713,55.394c0.136-0.068,0.272-0.068,0.408-0.137
		c0.137,0.682,0.272,1.227,0.409,1.908c-0.137,0.068-0.272,0.068-0.409,0.137C90.917,56.689,90.849,56.075,90.713,55.394
		L90.713,55.394z M91.054,54.781c-0.137,0.067-0.341,0.067-0.477,0.136c-0.068-0.136-0.068-0.272-0.137-0.408
		c0.204-0.068,0.341-0.137,0.545-0.205C90.985,54.44,91.054,54.576,91.054,54.781L91.054,54.781z"/>
	<path fill-rule="evenodd" clip-rule="evenodd" fill="#432A80" d="M93.437,54.781c-0.205,0.067-0.341,0.067-0.477,0.136
		c-0.545,0.205-0.681,0.546-0.613,0.954c0.068,0.409,0.272,0.613,0.885,0.409c0.205-0.068,0.341-0.137,0.478-0.272
		c0,0.136,0,0.204,0.067,0.272c-0.204,0.136-0.34,0.204-0.477,0.272c-0.816,0.272-1.293,0.068-1.43-0.478
		c-0.136-0.612,0.205-1.158,0.953-1.499c0.204,0,0.408-0.067,0.545-0.067C93.368,54.576,93.437,54.712,93.437,54.781L93.437,54.781z
		"/>
	<path fill-rule="evenodd" clip-rule="evenodd" fill="#432A80" d="M93.709,53.282c0.136-0.068,0.271-0.068,0.408-0.137
		c0.136,0.477,0.204,0.817,0.272,1.295l0,0c0.136-0.272,0.34-0.478,0.681-0.613c0.681-0.205,0.953,0,1.089,0.545
		c0.068,0.341,0.137,0.682,0.204,1.022c-0.136,0.068-0.271,0.136-0.408,0.136c-0.068-0.272-0.136-0.545-0.204-0.886
		c-0.137-0.477-0.204-0.613-0.681-0.477c-0.477,0.204-0.613,0.477-0.477,1.021c0.068,0.273,0.068,0.546,0.136,0.818
		c-0.136,0.067-0.272,0.067-0.408,0.136C94.117,55.189,93.913,54.303,93.709,53.282L93.709,53.282z"/>
	<path fill-rule="evenodd" clip-rule="evenodd" fill="#432A80" d="M100.108,51.918c-0.205,0-0.409,0-0.681,0.068
		c-0.682,0.272-1.021,0.749-0.954,1.431c0.137,0.613,0.613,0.75,1.362,0.545c0.272-0.136,0.544-0.272,0.681-0.341
		c0.068,0.068,0.068,0.205,0.068,0.272c-0.205,0.137-0.477,0.273-0.682,0.341c-1.089,0.341-1.634,0.137-1.906-0.682
		c-0.136-0.886,0.341-1.498,1.362-1.907c0.204-0.068,0.477-0.137,0.681-0.137C100.108,51.646,100.108,51.782,100.108,51.918
		L100.108,51.918z"/>
	<path fill-rule="evenodd" clip-rule="evenodd" fill="#432A80" d="M101.197,52.873c-0.068-0.409,0.068-0.75,0.545-0.954
		c0.544-0.137,0.749,0.068,0.885,0.477c0,0.341-0.068,0.613-0.545,0.887C101.538,53.417,101.334,53.213,101.197,52.873
		L101.197,52.873z M100.789,53.008c0.136,0.478,0.545,0.682,1.293,0.478c0.681-0.272,1.021-0.682,0.953-1.227
		c-0.136-0.545-0.544-0.75-1.361-0.613C100.925,51.918,100.652,52.395,100.789,53.008L100.789,53.008z"/>
	<path fill-rule="evenodd" clip-rule="evenodd" fill="#432A80" d="M103.921,51.987c-0.068-0.341,0.067-0.682,0.544-0.886
		c0.477-0.137,0.749,0.067,0.817,0.408s-0.068,0.682-0.545,0.886C104.193,52.532,103.988,52.328,103.921,51.987L103.921,51.987z
		 M103.444,52.123c0.204,0.478,0.612,0.682,1.361,0.478c0.681-0.205,1.021-0.682,0.953-1.227c-0.204-0.478-0.613-0.75-1.362-0.546
		C103.648,51.101,103.444,51.509,103.444,52.123L103.444,52.123z"/>
	<path fill-rule="evenodd" clip-rule="evenodd" fill="#432A80" d="M105.895,49.534c0.137,0,0.272-0.068,0.409-0.137
		c0.067,0.545,0.204,1.022,0.34,1.567c0.272-0.341,0.477-0.613,0.749-0.954c0.204-0.068,0.341-0.136,0.545-0.204
		c-0.272,0.408-0.545,0.681-0.886,1.09c0.477,0.205,0.886,0.341,1.362,0.545c-0.204,0.068-0.341,0.137-0.545,0.205
		c-0.477-0.205-0.749-0.341-1.226-0.545c0.136,0.272,0.136,0.545,0.204,0.817c-0.136,0.068-0.271,0.068-0.408,0.137
		C106.304,51.168,106.1,50.419,105.895,49.534L105.895,49.534z"/>
	<path fill-rule="evenodd" clip-rule="evenodd" fill="#432A80" d="M108.55,49.669c0.137-0.068,0.272-0.068,0.408-0.136
		c0.137,0.545,0.204,1.09,0.341,1.635c-0.137,0.068-0.272,0.068-0.408,0.137C108.754,50.76,108.687,50.214,108.55,49.669
		L108.55,49.669z M108.891,49.193c-0.137,0-0.341,0.067-0.477,0.067c-0.068-0.067-0.068-0.204-0.068-0.34
		c0.136,0,0.272-0.068,0.477-0.137C108.822,48.92,108.822,49.056,108.891,49.193L108.891,49.193z"/>
	<path fill-rule="evenodd" clip-rule="evenodd" fill="#432A80" d="M110.116,49.942c0-0.272,0.067-0.477,0.477-0.682
		c0.408-0.067,0.544,0.068,0.612,0.341C110.864,49.738,110.524,49.806,110.116,49.942L110.116,49.942z M111.613,50.079
		c-0.068,0.136-0.34,0.272-0.612,0.408c-0.408,0.068-0.749,0-0.885-0.34c0.612-0.137,1.021-0.272,1.565-0.478
		c-0.137-0.545-0.341-0.817-1.157-0.613c-0.613,0.204-0.886,0.545-0.817,1.091c0.137,0.545,0.477,0.749,1.294,0.545
		c0.408-0.137,0.544-0.205,0.681-0.272C111.613,50.283,111.613,50.214,111.613,50.079L111.613,50.079z"/>
	<path fill-rule="evenodd" clip-rule="evenodd" fill="#432A80" d="M112.158,50.01c0.204,0,0.408,0,0.477-0.068
		c0.272-0.067,0.408-0.136,0.408-0.341c-0.136-0.272-0.885,0-1.089-0.408c-0.137-0.341,0.136-0.546,0.612-0.682
		c0.204-0.068,0.341-0.068,0.545-0.068c0,0.068-0.068,0.137,0,0.204c-0.136,0-0.341,0.068-0.408,0.068
		c-0.272,0.068-0.409,0.137-0.341,0.272c0.137,0.341,0.885,0,1.089,0.478c0.068,0.341-0.271,0.545-0.681,0.682
		c-0.204,0.067-0.408,0.136-0.612,0.136C112.158,50.147,112.158,50.079,112.158,50.01L112.158,50.01z"/>
	<path fill-rule="evenodd" clip-rule="evenodd" fill="#3A2A71" d="M170.094,4.489V4.148h0.204c0.068,0,0.204,0.068,0.204,0.205
		c0,0.136-0.067,0.136-0.204,0.136H170.094L170.094,4.489z M170.094,4.693h0.137l0.271,0.613h0.341l-0.341-0.613
		c0.137,0,0.272-0.068,0.272-0.34c0-0.273-0.136-0.409-0.477-0.409h-0.477v1.363h0.272V4.693L170.094,4.693z M171.456,4.625
		c0-0.817-0.545-1.226-1.158-1.226c-0.681,0-1.225,0.409-1.225,1.226c0,0.75,0.544,1.227,1.225,1.227
		C170.911,5.852,171.456,5.375,171.456,4.625L171.456,4.625z M171.115,4.625c0,0.545-0.408,0.955-0.817,0.955l0,0
		c-0.477,0-0.885-0.409-0.885-0.955c0-0.545,0.408-0.954,0.885-0.954C170.707,3.671,171.115,4.08,171.115,4.625L171.115,4.625z"/>
</g>
</svg>
