<?xml version="1.0" encoding="utf-8"?>
<!-- Generator: Adobe Illustrator 16.0.0, SVG Export Plug-In . SVG Version: 6.00 Build 0)  -->
<!DOCTYPE svg PUBLIC "-//W3C//DTD SVG 1.1//EN" "http://www.w3.org/Graphics/SVG/1.1/DTD/svg11.dtd">
<svg version="1.1" id="Layer_1" xmlns="http://www.w3.org/2000/svg" xmlns:xlink="http://www.w3.org/1999/xlink" x="0px" y="0px"
	 width="213.905px" height="218.698px" viewBox="0 0 213.905 218.698" enable-background="new 0 0 213.905 218.698"
	 xml:space="preserve">
<g>
	<path fill="#EA5D0B" d="M133.418,2.566c0.646,0,2.045-0.923,2.977,0.009c0.933,0.932,6.623,7.831,6.623,7.831l4.911,16.287
		l48.219,19.974c0,0,7.241,4.493,7.241,7.057c0,4.078-10.496,5.287-16.904,5.781c-7.451,0.578-77.019,4.618-77.019,4.618
		l-7.925-1.928l-14.994,4.499L9.221,85.328l0.857-4.07L41.437,59.38c0,0,21.139-12.354,22.669-13.885s5.121-8.756,7.038-13.105
		c1.917-4.35,4.863-10.641,4.863-10.641l34.684-9.974L133.418,2.566z"/>
	<path fill="#1D1D1B" d="M42.814,93.468c0,0,23.229-0.155,23.229,20.596c-5.575,26.325-33.295,24.932-35.153,24.932
		c-1.154,0.066-0.657-1.051-0.657-1.051c1.028-2.057,4.008-2.411,4.008-2.411s16.894-3.582,20.249-18.362
		c0.429-11.852-17.564-11.495-17.564-11.495s0.464,5.354-2.963,13.602c-4.819,15.637-15.529,43.91-18.85,50.015
		c-2.784,7.391-6.039,7.497-6.533,7.497c-3.544-0.371-2.677-9.104-2.677-9.104c1.606-8.354,7.889-39.662,24.739-60.653
		c0.558-1.521-1.073-0.661-1.073-0.661c-6.885,2.718-7.881-0.181-7.881-0.181c-0.499-1.676-0.317-5.209,4.394-8.018
		C33.441,93.622,40.024,93.468,42.814,93.468z"/>
	<path fill="#1D1D1B" d="M84.862,94.863c0,0-14.254,15.902-14.254,27.247c0.679,9.405,5.624,8.92,5.624,8.92
		c2.521,0,2.23-3.103,2.23-4.557c3.781-6.303,7.757-13.963,9.405-19.005s2.134-12.896,0.873-14.157
		C87.48,92.051,84.862,92.051,84.862,94.863z"/>
	<path fill="#1D1D1B" d="M115.987,97.966c0,0-23.077,18.326-28.798,27.343c-2.424,6.108,2.133,6.885,3.49,6.885
		c3.927-1.794,10.569-3.2,16.678-3.2c12.557-0.727,28.604,0.485,28.604,0.485c6.108,0,14.593-1.891,18.229-5.527
		c1.939-1.939,0.292-2.715-1.066-2.715c-2.182,0.824-8.63,2.133-11.829,2.133c-5.721-0.484-19.684-4.266-35.586-2.424
		c0,0,15.227-13.732,22.399-24.919c1.26-5.139-2.23-5.333-2.23-5.333c-6.497-0.485-22.98,1.648-28.701,0.775
		c-5.527,2.133-0.388,7.272,2.909,7.272C103.672,98.742,117.73,96.561,115.987,97.966z"/>
	<path fill="none" stroke="#E21F22" d="M97.176,91.469"/>
	<path fill="none" stroke="#E21F22" d="M125.877,90.694"/>
	<path fill="#1D1D1B" d="M136.506,83.899c0,0,11.934-1.631,17.686-2.49c12.062-1.331,11.762,3.863,11.762,3.863
		c1.199,3.238-20.219,22.961-19.146,22.064c-0.923,1.151,3.606,1.288,3.606,1.288c2.195,0.277,5.976,0.819,15.625,0.687
		c5.236-0.772,2.146,2.233,2.146,2.233c-1.503,1.842-5.322,4.808-14.423,5.494c-9.357,0.601-16.719-2.124-23.437,0.858
		c-4.465,0-1.975-5.409-1.975-5.409c2.403-5.58,13.479-13.306,13.479-13.306c4.636-3.263,10.646-8.328,10.646-8.328
		c1.029-1.374-1.374-0.945-1.374-0.945c-3.091,0.687-10.989,1.288-14.767,1.288c-4.636,0-4.894-4.894-4.894-4.894
		C131.441,82.525,135.133,82.525,136.506,83.899z"/>
	<path fill="#1D1D1B" d="M212.886,99.611c-0.914-0.378-2.808-0.613-5.915-1.126c0,0-4.085-1.268-1.69-6.949
		c1.596-4.882,2.348-7.042,1.878-8.92s-2.441-3.286-4.602-1.127c0,0-4.883-0.938-7.794-0.188
		c-14.179,3.287-26.01,14.272-25.165,23.193c1.033,7.888,8.451,6.291,8.451,6.291c8.028-0.329,16.996-7.136,16.996-7.793
		c1.219-1.692,2.348,0.751,2.348,0.751s1.973,2.254,6.01,1.878c3.2,0,8.312-1.713,9.935-3.336
		C214.405,100.926,213.801,99.99,212.886,99.611z M194.573,95.83c-3.655,1.477-3.69,1.845-8.119,4.47c0,0-5.045,0.329-5.331,0.329
		c2.132-10.499,15.993-12.549,15.993-12.549S195.028,91.975,194.573,95.83z"/>
	<path fill="#1D1D1B" d="M72.978,136.516c0,0-6.61,5.076-17.589,30.102c-4.485,0-10.801,0.886-12.04,2.125
		c-2.951,2.007-1.771,4.604,1.062,6.139c2.833,1.534,7.082,1.652,7.082,1.652c-1.534,7.791-3.659,11.332-3.659,20.422
		c1.299,4.722,4.84,4.722,4.84,4.722s4.132,0.235,6.257-5.194c3.068-9.797,6.138-21.365,6.138-21.365s15.11-4.958,17.234-5.902
		c-1.062,8.026-3.659,17.471,1.89,18.415c5.901,0,8.387-9.916,10.27-19.242c1.062-6.256,1.534-6.846,1.534-6.846
		c1.948-0.827,6.493-3.542,7.438-4.486c0.943-0.944,0-2.125-1.771-1.652c-3.424,1.298-4.368,1.534-4.368,1.534
		s3.306-16.88,3.306-19.713c0-3.66-3.896-2.952-5.312-0.354c-1.416,2.597-6.492,9.208-9.562,23.373
		c-5.43,1.652-15.818,3.423-15.818,3.423s-1.18,0.118-0.472-1.771c2.243-4.958,6.138-17.112,6.138-24.317
		C75.422,134.762,72.978,136.516,72.978,136.516z"/>
	<path fill="#1D1D1B" d="M104.018,150.349c0,0,3.538,1.428,3.538,3.974s-3.911,7.761-3.911,15.335c0,7.575,6.52,6.644,6.52,6.644
		c1.924,0,9.312,0,19.495-14.031c0.542-0.747-0.776,10.026,8.258,12.853c2.825,0.217,1.77-2.825,1.49-3.104
		c-0.28-0.28-0.311-17.882,1.18-21.67c1.335-6.488-1.366-6.953-1.366-6.953s-3.073-0.59-6.644,7.016
		c-1.677,5.774-16.081,14.652-17.137,14.9c-0.993,0.436-0.745-1.055-0.745-1.055s1.553-4.284,1.553-8.071
		c0-3.788-1.801-8.693-7.823-9.065C103.52,146.748,103.025,150.349,104.018,150.349z"/>
	<path fill="#1D1D1B" d="M166.529,125.429c0,0-5.649,7.335-8.685,13.828c-5.48,0.843-8.095,1.433-8.854,0.674
		c-1.854-0.59-5.228,0.001-5.228,3.036s4.469,3.794,10.033,3.794c-2.529,6.661-5.986,12.9-4.637,30.606
		c0,1.603,1.602,1.519,1.602,1.519s1.603,0.59,2.361-2.445s9.612-29.933,11.045-31.366c15.346-5.312,27.403-10.792,27.403-10.792
		s0.678-0.441,0.445-1.075c-0.421-0.823-2.11-0.507-2.11-0.507c-1.583,0.296-22.07,4.034-22.07,4.034
		c1.339-3.48,3.374-6.747,3.855-9.532c-0.268-3.319-1.928-3.052-2.892-3.052S166.529,125.429,166.529,125.429z"/>
	<path fill="#FFD653" d="M68.444,207.647c0,0-7.189,2.202-4.793,8.161c3.108,5.83,14.573,1.036,14.573,1.036
		c11.076-4.728,55.232-24.418,73.368-30.844s42.554-13.852,45.981-14.994c1.671-0.532,1.416-1.412,1.416-1.412
		c-0.37-0.973-1.76-0.88-1.76-0.88c-1.482,0-28.645-2.135-93.333,24.141C70.339,206.992,68.444,207.647,68.444,207.647z"/>
	<path fill="#73B964" d="M101.035,66.819c0,0-17.004,4.456-17.393,15.662c0,0-0.174,4.154,3.678,4.154
		c2.941,0,4.932-2.683,4.932-2.683c8.913-11.682,9.346-13.551,9.951-14.84C103.415,66.473,101.035,66.819,101.035,66.819z"/>
	<path fill="#A62D2D" d="M130.309,2.36c0,0-45.128,12.434-52.611,14.736c-2.648,0.545-5.181,6.562-5.181,6.562l-8.979,16.923
		c0,0-0.302,1.051,0.406,1.244c0.708,0.193,0.987-0.58,1.566-1.159c1.072-1.694,10.434-15.154,11.88-17.617
		c0.856-1.5,3.642-1.821,3.642-1.821s49.21-13.115,51.836-14.458c2.303-1.178,1.285-3.213,1.285-3.213S133.403,1.254,130.309,2.36z"
		/>
	<path fill="#A62D2D" d="M62.115,45.926c0,0-21.728,9.307-40.256,22.48C4.723,81.579,3.652,82.329,3.652,82.329
		c-2.623,2.624-4.979,4.445-2.784,6.64c2.678,3.642,9.746,0,9.746,0C26.25,84.685,71.982,72.904,86.333,71.19
		c5.23-3.321,7.497-5.141,14.994-7.176c3.106,0,4.392,1.713,4.392,3.855c8.175-2.105,76.433-8.246,79.717-8.246
		c3.285,0,5.141-3.284,5.141-5.569c0-2.285-1.182-6.311-7.996-5.569C136.947,53.454,69.693,62.711,14.362,80.758
		c-0.491,0.16,17.422-14.28,47.98-32.272c1.869-1.102,1.375-1.678,1.375-1.678S63.077,45.45,62.115,45.926z"/>
	<path fill="#A62D2D" d="M151.778,25.31c0,0,31.269,7.693,57.013,20.319c2.667,1.354,1.832,4.073,1.832,4.073
		c-0.704,1.872-3.41,0.93-3.41,0.93c-3.793-1.908-56.513-18.854-56.513-18.854c-5.067-2.052-4.481-4.983-4.481-4.983
		c-1.127-5.547-5.231-26.109-4.689-26.29C142.07,0.325,145.136,5.33,151.778,25.31z"/>
	<path fill="none" stroke="#E21F22" d="M141.529,0.505c0.541-0.18,3.607,4.825,10.249,24.805"/>
</g>
</svg>
