<?xml version="1.0" encoding="utf-8"?>
<!-- Generator: Adobe Illustrator 16.0.0, SVG Export Plug-In . SVG Version: 6.00 Build 0)  -->
<!DOCTYPE svg PUBLIC "-//W3C//DTD SVG 1.1//EN" "http://www.w3.org/Graphics/SVG/1.1/DTD/svg11.dtd">
<svg version="1.1" id="Layer_1" xmlns="http://www.w3.org/2000/svg" xmlns:xlink="http://www.w3.org/1999/xlink" x="0px" y="0px"
	 width="168.83px" height="167.909px" viewBox="0 0 168.83 167.909" enable-background="new 0 0 168.83 167.909"
	 xml:space="preserve">
<g>
	<path fill-rule="evenodd" clip-rule="evenodd" fill="#1D1D1B" d="M123.809,20.914l-2.251-5.627l-4.277-3.376l-3.826-3.602
		l-2.927-0.675L106.25,3.13C93.419-0.472,80.139-0.921,67.307,1.554c-12.38,2.477-23.861,7.654-33.991,15.308
		c-10.13,7.654-18.234,17.333-24.086,28.589C3.152,57.381,0,70.437,0,84.394c0,12.38,2.476,24.087,7.428,34.892
		c4.502,9.904,11.031,18.684,19.359,26.337c7.879,6.979,16.883,12.606,27.013,16.434c10.13,3.826,20.485,5.853,30.839,5.853
		c11.706-0.226,22.961-2.476,33.767-7.429c9.904-4.728,18.685-11.03,26.562-19.359c7.429-7.879,13.506-16.883,17.559-26.787
		c4.052-9.905,6.303-19.81,6.303-29.715c0-7.653-1.35-15.082-4.052-21.834c-3.151-7.879-7.879-13.957-13.957-18.234l-2.477-1.801
		c-6.527-3.602-13.956-5.403-22.51-4.952c-11.256,0.45-23.862,4.727-38.044,12.156c0.451,1.801,1.126,3.376,2.026,4.952
		c3.377,2.926,4.952,5.627,4.952,7.879l3.377,3.601c4.727-3.601,10.354-6.528,16.658-8.104c6.753-1.575,12.605-1.801,18.233-0.45
		c6.078,1.576,10.805,4.953,13.731,10.13c3.377,5.853,4.502,13.731,3.377,23.636c-0.226,5.853-1.802,11.931-4.952,18.684
		c-2.928,6.979-7.204,13.507-12.606,19.134c-5.853,6.529-12.606,11.706-20.26,15.308c-8.555,4.052-17.783,6.078-27.688,6.078
		c-11.255,0-21.609-2.476-30.839-6.753c-8.104-4.052-15.082-9.68-20.935-17.108c-5.178-6.303-9.004-13.507-11.931-21.61
		c-2.476-7.203-3.827-14.182-3.827-20.935c0-9.454,2.026-18.458,6.303-27.688c4.727-9.905,11.256-18.009,19.584-24.762
		c9.455-7.653,20.71-12.38,33.316-14.406C90.718,15.061,106.476,16.187,123.809,20.914L123.809,20.914z M121.783,142.697
		c0.9-0.9,2.25-1.576,3.826-1.576c1.352,0,2.701,0.676,3.602,1.576c1.126,1.126,1.576,2.251,1.576,3.826
		c0,1.352-0.45,2.702-1.576,3.827c-0.9,0.901-2.25,1.351-3.602,1.576c-1.576-0.226-2.926-0.675-3.826-1.576
		c-1.126-1.125-1.576-2.476-1.576-3.827C120.207,144.948,120.657,143.823,121.783,142.697L121.783,142.697z"/>
	<path fill-rule="evenodd" clip-rule="evenodd" fill="#FFFFFF" d="M125.609,141.121c-1.576,0-2.926,0.676-3.826,1.576
		c-1.126,1.126-1.576,2.251-1.576,3.826c0,1.352,0.45,2.702,1.576,3.827c0.9,0.901,2.25,1.351,3.826,1.576
		c1.352-0.226,2.701-0.675,3.602-1.576c1.126-1.125,1.576-2.476,1.576-3.827c0-1.575-0.45-2.7-1.576-3.826
		C128.311,141.796,126.961,141.121,125.609,141.121L125.609,141.121z M125.609,142.021c1.126,0,2.252,0.45,3.152,1.351
		c0.675,0.901,1.125,1.802,1.35,3.151c-0.225,1.126-0.675,2.251-1.35,3.152c-0.9,0.9-2.026,1.351-3.152,1.351
		c-1.351,0-2.477-0.45-3.377-1.351c-0.675-0.901-1.125-2.026-1.125-3.152c0-1.35,0.45-2.25,1.125-3.151
		C123.133,142.471,124.259,142.021,125.609,142.021L125.609,142.021z"/>
	<path fill-rule="evenodd" clip-rule="evenodd" fill="#1D1D1B" d="M128.762,143.372c-0.9-0.9-2.026-1.351-3.152-1.351
		c-1.351,0-2.477,0.45-3.377,1.351c-0.675,0.901-1.125,1.802-1.125,3.151c0,1.126,0.45,2.251,1.125,3.152
		c0.9,0.9,2.026,1.351,3.377,1.351c1.126,0,2.252-0.45,3.152-1.351c0.675-0.901,1.125-2.026,1.35-3.152
		C129.887,145.173,129.437,144.273,128.762,143.372L128.762,143.372z M127.636,143.823c0.449,0.225,0.675,0.675,0.675,1.351
		c0,0.9-0.675,1.575-2.025,1.575l2.025,2.701h-0.9l-1.801-2.701h-1.351v2.701h-0.675v-5.853h2.701L127.636,143.823L127.636,143.823z
		"/>
	<path fill-rule="evenodd" clip-rule="evenodd" fill="#FFFFFF" d="M128.311,145.173c0-0.676-0.226-1.126-0.675-1.351l-1.351-0.226
		h-2.701v5.853h0.675v-2.701h1.351l1.801,2.701h0.9l-2.025-2.701C127.636,146.749,128.311,146.074,128.311,145.173L128.311,145.173z
		 M124.259,146.074v-2.026h1.801c0.901,0,1.351,0.45,1.351,1.126c0,0.449-0.226,0.675-0.675,0.9H124.259L124.259,146.074z"/>
	<path fill-rule="evenodd" clip-rule="evenodd" fill="#1D1D1B" d="M124.259,144.047v2.026h2.477c0.449-0.226,0.675-0.451,0.675-0.9
		c0-0.676-0.449-1.126-1.351-1.126H124.259L124.259,144.047z"/>
	<path fill-rule="evenodd" clip-rule="evenodd" fill="#FFFFFF" d="M123.809,20.914c-17.333-4.727-33.091-5.853-47.498-3.376
		c-12.605,2.026-23.861,6.753-33.316,14.406c-8.328,6.753-14.857,14.857-19.584,24.762c-4.277,9.229-6.303,18.234-6.303,27.688
		c0,6.753,1.351,13.731,3.827,20.935c2.926,8.104,6.753,15.308,11.931,21.61c5.853,7.429,12.831,13.057,20.935,17.108
		c9.229,4.277,19.584,6.753,30.839,6.753c9.905,0,19.134-2.026,27.688-6.078c7.653-3.602,14.407-8.778,20.26-15.308
		c5.402-5.627,9.679-12.155,12.606-19.134c3.15-6.753,4.727-12.831,4.952-18.684c1.125-9.904,0-17.783-3.377-23.636
		c-2.927-5.177-7.653-8.554-13.731-10.13c-5.628-1.351-11.48-1.125-18.233,0.45c-6.304,1.576-11.932,4.503-16.658,8.104
		l-3.377-3.601c0-2.251-1.575-4.953-4.952-7.879c-0.9-1.576-1.575-3.151-2.026-4.952c14.182-7.429,26.788-11.706,38.044-12.156
		c8.554-0.451,15.982,1.35,22.51,4.952l-2.701-4.277c-23.411-5.178-47.497-2.026-72.259,9.004l0.451-2.026
		c-1.801-0.225-2.701-1.801-2.927-4.502c-1.8-3.827-3.151-5.177-4.052-4.052l-2.026-5.628c19.134-8.554,39.168-11.705,60.554-9.679
		L123.809,20.914L123.809,20.914z M111.428,73.814c1.801,1.801,2.701,3.827,2.701,6.304c0,2.701-0.9,4.726-2.701,6.526
		c-1.801,1.802-3.827,2.702-6.304,2.702c-2.476,0-4.501-0.9-6.303-2.702c-1.801-1.801-2.701-3.826-2.701-6.526
		c0-2.477,0.9-4.502,2.701-6.304c1.802-1.801,3.827-2.701,6.303-2.701C107.601,71.113,109.627,72.013,111.428,73.814L111.428,73.814
		z M131.237,74.94c3.602,0,6.528,1.125,9.004,3.827c2.701,2.477,3.827,5.627,3.827,9.229s-1.126,6.528-3.827,9.229
		c-2.476,2.476-5.402,3.602-9.004,3.602s-6.753-1.126-9.229-3.602c-2.476-2.701-3.827-5.628-3.827-9.229s1.352-6.752,3.827-9.229
		C124.484,76.065,127.636,74.94,131.237,74.94L131.237,74.94z M137.99,102.627c-2.477,8.104-6.303,14.857-11.48,20.484
		c-4.727,5.403-10.354,9.68-16.883,12.606c-6.303,2.926-13.056,4.728-20.26,5.178c-6.978,0.449-13.731-0.226-20.484-2.026
		c-6.978-1.801-13.281-4.727-18.909-8.778c-5.853-4.053-10.805-9.229-14.407-15.083c-3.827-6.527-6.303-13.507-7.429-21.386
		c-1.125-8.328-0.45-17.332,1.801-26.787C56.502,95.649,92.519,107.58,137.99,102.627L137.99,102.627z M89.817,95.649
		c-0.675-0.225-1.351-0.9-1.575-1.576c-2.702-4.727-6.303-5.853-11.48-3.602c-0.675,0.225-1.351,0.225-2.026,0
		c-0.675-0.225-1.351-0.899-1.575-1.575c-0.451-0.676-0.451-1.352-0.225-2.252c0.225-0.675,0.675-1.124,1.576-1.575
		c8.329-3.826,14.632-1.8,18.908,6.304c0.45,0.9,0.45,1.35,0.225,2.25c-0.225,0.901-0.675,1.352-1.575,1.802L89.817,95.649
		L89.817,95.649z M33.541,60.983c0-3.377,1.126-6.529,3.827-9.004c2.476-2.702,5.627-4.052,9.23-4.052
		c3.601,0,6.527,1.351,9.229,4.052c2.476,2.476,3.601,5.627,3.601,9.004c0,3.601-1.125,6.753-3.601,9.229
		c-2.702,2.477-5.628,3.827-9.229,3.827c-3.603,0-6.754-1.35-9.23-3.827C34.667,67.736,33.541,64.584,33.541,60.983L33.541,60.983z
		 M65.281,76.065c-2.026-1.8-2.926-3.826-2.701-6.303c-0.225-2.476,0.675-4.727,2.701-6.303c1.576-2.026,3.828-2.701,6.304-2.701
		s4.502,0.675,6.303,2.701c1.8,1.576,2.701,3.827,2.701,6.303c0,2.477-0.9,4.503-2.701,6.303c-1.801,1.801-3.827,2.702-6.303,2.702
		S66.857,77.866,65.281,76.065L65.281,76.065z"/>
	<path fill-rule="evenodd" clip-rule="evenodd" fill="#1D1D1B" d="M114.129,80.118c0-2.477-0.9-4.502-2.701-6.304
		c-1.801-1.801-3.827-2.701-6.304-2.701c-2.476,0-4.501,0.9-6.303,2.701c-1.801,1.801-2.701,3.827-2.701,6.304
		c0,2.701,0.9,4.726,2.701,6.526c1.802,1.802,3.827,2.702,6.303,2.702c2.477,0,4.503-0.9,6.304-2.702
		C113.229,84.843,114.129,82.818,114.129,80.118L114.129,80.118z"/>
	<path fill-rule="evenodd" clip-rule="evenodd" fill="#E63137" d="M140.241,78.767c-2.476-2.702-5.402-3.827-9.004-3.827
		s-6.753,1.125-9.229,3.827c-2.476,2.477-3.827,5.627-3.827,9.229s1.352,6.528,3.827,9.229c2.477,2.476,5.628,3.602,9.229,3.602
		s6.528-1.126,9.004-3.602c2.701-2.701,3.827-5.628,3.827-9.229S142.942,81.243,140.241,78.767L140.241,78.767z"/>
	<path fill-rule="evenodd" clip-rule="evenodd" fill="#1D1D1B" d="M126.51,123.112c5.178-5.627,9.004-12.381,11.48-20.484
		c-45.472,4.952-81.488-6.979-108.051-35.792c-2.251,9.455-2.926,18.458-1.801,26.787c1.126,7.879,3.602,14.858,7.429,21.386
		c3.602,5.854,8.554,11.03,14.407,15.083c5.628,4.052,11.931,6.978,18.909,8.778c6.753,1.801,13.506,2.476,20.484,2.026
		c7.204-0.45,13.957-2.252,20.26-5.178C116.155,132.792,121.783,128.515,126.51,123.112L126.51,123.112z M128.311,109.831
		c-8.104,11.931-18.009,19.584-30.164,22.961c-11.03,3.152-21.835,2.477-32.866-1.8c-5.177-2.026-9.904-4.729-14.182-8.104
		c-4.501-3.602-8.104-7.654-10.805-12.156c-6.528-9.68-8.779-20.26-6.753-31.739C56.502,100.827,88.017,110.957,128.311,109.831
		L128.311,109.831z"/>
	<path fill-rule="evenodd" clip-rule="evenodd" fill="#FFFFFF" d="M98.146,132.792c12.155-3.377,22.061-11.03,30.164-22.961
		c-40.294,1.126-71.809-9.004-94.77-30.839c-2.026,11.479,0.225,22.06,6.753,31.739c2.701,4.502,6.303,8.555,10.805,12.156
		c4.277,3.376,9.004,6.078,14.182,8.104C76.311,135.268,87.116,135.944,98.146,132.792L98.146,132.792z"/>
	<path fill-rule="evenodd" clip-rule="evenodd" fill="#1D1D1B" d="M88.242,94.073c0.225,0.676,0.9,1.352,1.575,1.576l2.251-0.225
		c0.9-0.45,1.351-0.9,1.575-1.802c0.226-0.9,0.226-1.35-0.225-2.25c-4.276-8.104-10.58-10.129-18.908-6.304
		c-0.9,0.451-1.351,0.9-1.576,1.575c-0.226,0.9-0.226,1.576,0.225,2.252c0.225,0.676,0.9,1.351,1.575,1.575
		c0.675,0.225,1.351,0.225,2.026,0C81.939,88.22,85.54,89.346,88.242,94.073L88.242,94.073z"/>
	<path fill-rule="evenodd" clip-rule="evenodd" fill="#E63137" d="M37.368,51.979c-2.701,2.476-3.827,5.627-3.827,9.004
		c0,3.601,1.126,6.753,3.827,9.229c2.476,2.477,5.627,3.827,9.23,3.827c3.601,0,6.527-1.35,9.229-3.827
		c2.476-2.476,3.601-5.628,3.601-9.229c0-3.377-1.125-6.529-3.601-9.004c-2.702-2.702-5.628-4.052-9.229-4.052
		C42.995,47.927,39.844,49.277,37.368,51.979L37.368,51.979z"/>
	<path fill-rule="evenodd" clip-rule="evenodd" fill="#1D1D1B" d="M62.58,69.762c-0.225,2.477,0.675,4.503,2.701,6.303
		c1.576,1.801,3.828,2.702,6.304,2.702s4.502-0.9,6.303-2.702c1.8-1.8,2.701-3.826,2.701-6.303c0-2.476-0.9-4.727-2.701-6.303
		c-1.801-2.026-3.827-2.701-6.303-2.701s-4.728,0.675-6.304,2.701C63.255,65.035,62.354,67.286,62.58,69.762L62.58,69.762z"/>
	<path fill-rule="evenodd" clip-rule="evenodd" fill="#1D1D1B" d="M139.116,23.84l-13.731-2.25
		c-21.386-2.026-41.419,1.125-60.554,9.679l2.026,5.628c0.9-1.125,2.251,0.225,4.052,4.052c0.226,2.702,1.126,4.277,2.927,4.502
		l-0.451,2.026c24.762-11.03,48.848-14.182,72.259-9.004l9.681,2.476c-1.576-2.026-2.702-3.602-3.151-4.952
		c-1.352-3.827-3.152-5.178-5.628-4.502c0.675-2.927-0.901-4.502-4.728-4.728L139.116,23.84L139.116,23.84z"/>
</g>
</svg>
