<?xml version="1.0" encoding="utf-8"?>
<!-- Generator: Adobe Illustrator 16.0.0, SVG Export Plug-In . SVG Version: 6.00 Build 0)  -->
<!DOCTYPE svg PUBLIC "-//W3C//DTD SVG 1.1//EN" "http://www.w3.org/Graphics/SVG/1.1/DTD/svg11.dtd">
<svg version="1.1" id="Layer_1" xmlns="http://www.w3.org/2000/svg" xmlns:xlink="http://www.w3.org/1999/xlink" x="0px" y="0px"
	 width="335.502px" height="81.317px" viewBox="0 0 335.502 81.317" enable-background="new 0 0 335.502 81.317"
	 xml:space="preserve">
<g>
	<g>
		<path fill="#FFFFFF" d="M331.527,12.312v-0.881h0.549c0.297,0,0.702,0.026,0.702,0.404c0,0.405-0.208,0.477-0.558,0.477H331.527z
			 M331.527,12.931h0.369l0.845,1.539h0.927l-0.936-1.601c0.486-0.036,0.881-0.278,0.881-0.953c0-0.836-0.558-1.106-1.501-1.106
			h-1.366v3.66h0.781V12.931z M335.502,12.644c0-2.149-1.609-3.398-3.407-3.398c-1.808,0-3.417,1.249-3.417,3.398
			s1.609,3.399,3.417,3.399C333.893,16.043,335.502,14.793,335.502,12.644z M334.521,12.644c0,1.564-1.114,2.617-2.427,2.617v-0.009
			c-1.349,0.009-2.437-1.043-2.437-2.607s1.088-2.607,2.437-2.607C333.407,10.037,334.521,11.08,334.521,12.644z"/>
	</g>
	<path fill="#1D1D1B" d="M281.668,81.317H0l3.158-8.381c3.125-8.291,19.881-52.701,21.467-56.306
		c1.869-4.473,4.936-9.021,8.756-11.788c5.192-3.606,10.918-4.894,16.806-4.838L50.947,0h280.57l-3.203,8.404
		c-5.875,15.408-20.2,52.973-21.697,56.698c-2.282,5.805-5.638,9.243-9.384,11.824C293.896,79.163,289.007,81.317,281.668,81.317
		L281.668,81.317z"/>
	<path fill="#E2051B" d="M327.051,3.077l-1.612,4.23c-5.868,15.394-20.184,52.935-21.681,56.656
		c-2.022,5.145-4.926,8.124-8.254,10.418c-2.884,1.932-7.166,3.859-13.836,3.859H4.447l1.591-4.22
		c3.115-8.268,19.821-52.557,21.403-56.151c1.728-4.154,4.485-8.175,7.719-10.517c4.557-3.164,9.602-4.323,15.006-4.272l0.788-0.003
		H327.051L327.051,3.077z"/>
	<path fill="#FFFFFF" d="M312.255,6.891c-5.7,15.874-18.703,52.077-20.086,55.725c-1.613,4.371-3.826,6.762-6.438,8.674
		c-2.147,1.525-5.4,3.138-10.801,3.138H19.224C22.8,64.354,37.567,22.794,39.006,19.323c1.477-3.791,3.718-7.139,6.039-8.924
		c3.487-2.571,7.354-3.549,11.807-3.505l0.784-0.003H312.255L312.255,6.891z"/>
	<path fill="#164193" d="M271.967,61.417c-0.389,0.802-1.815,2.35-3.565,1.803c-0.966-0.305-1.795-1.555-1.457-2.506
		c0.63-2.097,5.104-14.543,5.104-14.543l-14.307-0.006l-8.119,23.441c5.217,2.059,13.793,1.957,17.167,1.958
		c3.377,0.002,8.254-0.148,11.547-1.593c3.244-1.355,7.472-3.951,10.131-11.449c2.721-7.447,4.062-10.498,3.791-13.15
		c-0.325-2.496-2.06-4.197-3.753-5.498c-1.576-1.352-7.106-6.301-7.106-6.301s-1.636-1.203-1.963-3.55
		c-0.176-2.449,2.399-7.949,2.964-9.5c0.628-1.699,2.442-1.898,3.408-1.498c2.011,1.05,1.505,2.25,0.711,4.599
		c-0.906,2.449-3.504,9.198-3.504,9.198l14.097,0.005l7.648-21.697c-3.351-1.152-9.99-1.603-14.697-1.604
		c-4.557-0.003-9.967-0.051-13.105,1.499c-3.245,1.495-6.996,4.245-9.97,11.444c-3.084,7.044-3.715,9.345-3.434,11.346
		c0.531,2.851,4.003,6.301,6.326,8.154c2.95,2.35,6.554,4.5,6.355,6.648C275.585,54.52,271.967,61.417,271.967,61.417
		L271.967,61.417z"/>
	<polygon fill="#164193" points="73.275,67.96 64.497,67.958 84.889,13.541 100.325,13.545 95.787,46.178 107.419,13.547 
		116.195,13.55 95.853,67.921 80.704,67.915 84.843,35.912 73.275,67.96 	"/>
	<polygon fill="#164193" points="100.081,67.92 113.64,67.926 134.132,13.507 120.043,13.547 100.081,67.92 	"/>
	<path fill="#164193" d="M147.562,35.387l12.493,0.003l7.625-20.434c-2.952-1.889-7.629-1.98-12.934-2.072
		c-5.398-0.095-9.451-0.138-13.202,1.798c-4.144,2.249-5.687,4.767-6.349,6.525c-0.707,1.755-12.509,33.261-13.066,34.746
		c-0.608,1.617-2.739,6.882-0.858,9.589c1.267,1.755,7.517,2.838,9.346,2.969c3.424,0.183,7.955,0.229,11.445-0.625
		c2.181-0.541,7.73-3.103,9.819-8.864c1.073-3.014,5.5-14.945,5.5-14.945h-12.977c0,0-4.888,13.273-5.595,14.986
		c-0.358,1.037-1.678,1.891-2.832,1.531c-1.484-0.447-1.987-1.754-1.586-2.793c0.562-1.345,12.21-32.857,12.824-34.526
		c0.408-1.124,1.257-2.559,3.271-1.975c1.771,0.629,1.548,2.254,1.192,3.239C151.275,25.665,147.562,35.387,147.562,35.387
		L147.562,35.387z"/>
	<polygon fill="#164193" points="230.877,13.577 227.879,21.501 216.592,21.41 211.285,36.396 220.212,36.396 217.016,44.409 
		208.333,44.45 202.924,59.845 214.021,59.799 211.014,67.948 186.367,67.943 206.183,13.571 230.877,13.577 	"/>
	<path fill-rule="evenodd" clip-rule="evenodd" fill="#164193" d="M261.493,15.2c-0.806-0.95-1.415-1.716-6.679-1.762
		c-3.43-0.003-19.849-0.006-19.849-0.006l-19.788,54.482h13.328c0,0,6.696-19.194,8.332-23.74c0,0,0.728-0.367,1.352-0.189
		c1.062,0.273,1.576,1.041,1.551,2.482c-0.076,1.441-0.382,2.119-1.093,4.104c-0.822,2.067-3.374,9.685-3.889,11.215
		c-0.509,1.445-1.257,2.75-1.295,4.646c0.008,1.801,0.743,1.528,0.743,1.528l13.381-0.04c0,0-0.417-0.993-0.391-2.702
		c0.039-1.849,1.715-6.222,2.636-8.747c1.018-2.607,2.551-7.16,2.832-9.145c0.327-1.803,0.439-2.75,0.021-3.559
		c-0.461-1.084-1.205-2.568-2.975-3.336c0,0,2.137-0.72,3.16-1.399c0.931-0.495,3.493-3.016,4.044-4.187
		c1.307-2.615,2.366-4.999,3.022-6.622c0.968-2.254,2.56-7.214,2.729-8.563C262.788,18.26,262.394,16.144,261.493,15.2L261.493,15.2
		z M246.931,29.027c-0.357,1.269-1.327,3.696-1.827,4.6c-0.5,1.035-1.202,2.251-3.228,2.296c-1.6-0.004-2.319-0.045-2.319-0.045
		l5.506-14.874c0,0,1.205-0.046,1.398,0c1.353-0.048,2.055,0.949,2.177,2.301c0.072,1.035-0.737,3.2-1.202,4.686
		C247.188,28.397,247.033,28.76,246.931,29.027L246.931,29.027z"/>
	<path fill="#164193" d="M48.763,61.36c-0.394,0.803-1.814,2.352-3.572,1.805c-0.961-0.308-1.79-1.557-1.454-2.507
		c0.63-2.099,5.103-14.544,5.103-14.544L34.536,46.11L26.42,69.555c5.213,2.049,13.789,1.951,17.16,1.953
		c3.379-0.002,8.259-0.146,11.552-1.598c3.239-1.352,7.473-3.946,10.131-11.443c2.719-7.449,4.062-10.5,3.792-13.15
		c-0.326-2.5-2.064-4.202-3.754-5.499c-1.581-1.354-7.107-6.301-7.107-6.301s-1.642-1.204-1.969-3.548
		c-0.175-2.451,2.402-7.951,2.967-9.499c0.625-1.704,2.448-1.903,3.402-1.5c2.02,1.05,1.516,2.248,0.715,4.598
		c-0.903,2.449-3.498,9.199-3.498,9.199l14.093,0.002l7.649-21.695C78.2,9.925,71.568,9.473,66.854,9.468
		c-4.555,0.001-9.966-0.049-13.103,1.499c-3.245,1.5-6.994,4.25-9.972,11.447c-3.083,7.048-3.716,9.346-3.434,11.347
		c0.536,2.853,4.003,6.298,6.325,8.151c2.954,2.354,6.556,4.503,6.354,6.651C52.378,54.462,48.763,61.36,48.763,61.36L48.763,61.36z
		"/>
	<path fill="#164193" d="M175.173,36.145l8.435-22.402l-13.488-0.031l-18.888,54.189l13.441,0.028l8.105-24.157l1.376,24.176
		l12.213-0.005c0,0,0.405-26.549-4.855-27.023l23.871-27.213l-11.81-0.005L175.173,36.145L175.173,36.145z"/>
	<g>
		<path fill="#FFFFFF" d="M308.02,67.713h2.537c1.278,0,1.369,1.084,1.21,1.813c-0.222,1.015-0.705,1.302-0.955,1.45
			c0.568,0.324,0.585,1.014,0.433,1.714c-0.122,0.562-0.412,1.095-0.769,1.459c-0.384,0.396-0.722,0.642-1.789,0.642h-2.21
			L308.02,67.713z M307.79,73.569h1.338c0.529,0,0.903-0.316,1.061-1.035c0.136-0.621-0.206-0.857-0.598-0.857h-1.389L307.79,73.569
			z M308.462,70.483h1.279c0.43,0,0.82-0.227,0.942-0.789c0.127-0.581-0.14-0.758-0.634-0.758h-1.25L308.462,70.483z"/>
		<path fill="#FFFFFF" d="M313.314,67.713h2.638c1.388,0,1.339,1.39,1.206,2.001c-0.169,0.778-0.606,1.449-1.174,1.686
			c0.373,0.257,0.559,0.474,0.271,1.794c-0.226,1.035-0.281,1.292-0.074,1.41l-0.041,0.188h-1.207c0.001-0.336,0.036-0.7,0.195-1.43
			c0.211-0.966,0.249-1.34-0.559-1.34h-1.126l-0.604,2.77h-1.068L313.314,67.713z M314.983,70.829c0.566,0,0.899-0.268,1.053-0.967
			c0.082-0.375,0.079-0.926-0.561-0.926h-1.36l-0.412,1.893H314.983z"/>
		<path fill="#FFFFFF" d="M317.807,74.792h-1.147l3.403-7.078h1.257l0.297,7.078h-1.185l-0.017-1.459h-1.926L317.807,74.792z
			 M319.046,72.11h1.33l-0.036-2.8h-0.016L319.046,72.11z"/>
		<path fill="#FFFFFF" d="M327.087,67.713h1.017l-1.542,7.078h-1.091l-1.029-5.048h-0.015l-1.1,5.048h-1.018l1.543-7.078H325
			l0.997,4.929h0.016L327.087,67.713z"/>
		<path fill="#FFFFFF" d="M329.197,67.713h2.305c1.759,0,1.68,2.03,1.387,3.371c-0.33,1.518-1.251,3.707-2.973,3.707h-2.261
			L329.197,67.713z M328.99,73.569h1.061c0.887,0,1.448-1.213,1.702-2.377c0.456-2.089-0.241-2.256-0.707-2.256H330L328.99,73.569z"
			/>
	</g>
</g>
</svg>
