<?xml version="1.0" encoding="utf-8"?>
<!-- Generator: Adobe Illustrator 16.0.0, SVG Export Plug-In . SVG Version: 6.00 Build 0)  -->
<!DOCTYPE svg PUBLIC "-//W3C//DTD SVG 1.1//EN" "http://www.w3.org/Graphics/SVG/1.1/DTD/svg11.dtd">
<svg version="1.1" id="Layer_1" xmlns="http://www.w3.org/2000/svg" xmlns:xlink="http://www.w3.org/1999/xlink" x="0px" y="0px"
	 width="187.087px" height="106.378px" viewBox="0 0 187.087 106.378" enable-background="new 0 0 187.087 106.378"
	 xml:space="preserve">
<g>
	<path fill-rule="evenodd" clip-rule="evenodd" fill="#0070B1" d="M170.067,53.526c0.919,0,1.686-0.767,1.686-1.686
		c0-1.072-0.767-1.685-1.686-1.685s-1.686,0.613-1.686,1.685C168.381,52.759,169.148,53.526,170.067,53.526L170.067,53.526z
		 M170.067,50.308c0.767,0,1.379,0.613,1.379,1.532c0,0.766-0.612,1.379-1.379,1.379c-0.766,0-1.379-0.613-1.379-1.379
		C168.688,50.921,169.301,50.308,170.067,50.308L170.067,50.308z M170.374,51.84c0.153,0,0.46-0.153,0.46-0.46
		c0-0.459-0.307-0.459-0.613-0.459h-0.766v1.838h0.153V51.84h0.459l0.46,0.919h0.307L170.374,51.84L170.374,51.84z M170.067,51.075
		c0.307,0,0.46,0,0.46,0.306c0,0.307-0.307,0.153-0.613,0.153h-0.306v-0.459H170.067L170.067,51.075z"/>
	<path fill-rule="evenodd" clip-rule="evenodd" fill="#0070B1" d="M145.096,104.081c0-0.154-0.307-0.307-0.46-0.307
		c-0.46,0-0.766,0.307-0.766,0.613c0,0.305,0.306,0.459,0.459,0.611h0.153c0.307,0.154,0.46,0.307,0.46,0.461
		c0,0.305-0.153,0.459-0.46,0.459c-0.153,0-0.459-0.154-0.459-0.459l-0.307,0.152c0.153,0.307,0.459,0.613,0.766,0.613
		c0.46,0,0.766-0.307,0.766-0.766c0-0.307-0.306-0.613-0.612-0.613l-0.153-0.154c-0.153,0-0.307-0.152-0.307-0.305
		c0-0.154,0.153-0.307,0.46-0.307c0.153,0,0.153,0,0.307,0.152L145.096,104.081L145.096,104.081z"/>
	<polygon fill-rule="evenodd" clip-rule="evenodd" fill="#0070B1" points="146.627,106.226 147.394,104.692 147.394,104.692 
		147.547,106.071 147.853,106.071 147.394,103.774 146.627,105.612 145.862,103.774 145.403,106.071 145.708,106.071 
		146.015,104.692 146.015,104.692 146.627,106.226 	"/>
	<path fill-rule="evenodd" clip-rule="evenodd" fill="#0070B1" d="M169.148,86.462c0-0.152-0.307-0.305-0.46-0.305
		c-0.459,0-0.766,0.305-0.766,0.611s0.307,0.461,0.459,0.613h0.153c0.307,0.152,0.46,0.152,0.46,0.459s-0.153,0.461-0.46,0.461
		c-0.153,0-0.459-0.154-0.459-0.461l-0.307,0.154c0.153,0.307,0.46,0.613,0.766,0.613c0.46,0,0.767-0.307,0.767-0.768
		c0-0.307-0.307-0.611-0.613-0.611l-0.153-0.154c-0.153,0-0.306-0.152-0.306-0.307c0-0.152,0.152-0.307,0.459-0.307
		c0.153,0,0.153,0,0.307,0.154L169.148,86.462L169.148,86.462z"/>
	<polygon fill-rule="evenodd" clip-rule="evenodd" fill="#0070B1" points="170.68,88.608 171.446,86.923 171.446,86.923 
		171.599,88.454 171.906,88.454 171.446,86.157 170.68,87.995 169.914,86.157 169.455,88.454 169.76,88.454 170.067,86.923 
		170.067,86.923 170.68,88.608 	"/>
	<path fill-rule="evenodd" clip-rule="evenodd" fill="#FFE200" d="M173.897,21.201l7.967-10.417
		c3.063-3.677,3.829-5.056,3.523-6.128c-0.154-0.459-0.613-0.919-1.686-1.379c-1.226-0.306-4.442-0.153-7.967,0.307
		c-3.063,0.459-11.029,1.838-13.021,2.298L19.168,34.069c-4.596,0.919-6.894,3.371-6.894,7.66c0,5.822,4.903,7.967,8.886,8.886
		c8.579,1.685,140.175,29.107,141.554,29.414l0,0l0,0c8.12,1.838,9.958,0.613,11.184-0.766c0.919-1.072,1.226-3.217,0.153-5.209
		l-11.49-28.188c-2.757-5.209,0-9.498,3.523-13.481L173.897,21.201L173.897,21.201z"/>
	<path fill-rule="evenodd" clip-rule="evenodd" fill="#FFE200" d="M183.855,0.366c-2.298-0.613-6.741-0.306-8.579-0.153
		c-3.218,0.459-11.184,1.838-13.175,2.298L89.026,16.758C56.548,10.477,26.062,4.502,24.683,4.196
		c-1.991-0.46-9.958-1.839-13.021-2.298C8.904,1.438,4.921,1.132,3.083,1.592S0.019,3.124,0.019,4.809
		c-0.153,1.839,0.612,3.371,3.983,7.047c0,0,10.877,12.103,16.545,18.384l-2.145,0.459c-5.975,1.072-9.498,5.209-9.498,11.03
		c-0.153,3.064,0.919,5.668,2.911,7.813c1.532,1.838,3.983,3.217,6.894,3.984c-2.298,2.604-4.443,4.902-4.902,5.361
		c-1.685,1.99-3.217,3.676-3.677,5.82l0,0c0,0.307,0,0.613-0.153,0.92c-0.306,4.137,3.217,6.281,11.184,3.523
		c3.677-1.225,17.005-5.975,26.962-9.346c41.057,8.426,112.6,23.287,113.826,23.594l0,0l0,0l0,0
		c7.047,1.684,11.337,1.072,13.481-1.227c1.685-1.838,2.145-4.137,1.226-6.74c-0.153-0.152-0.307-0.613-0.613-1.225
		c0.919,2.451,0.307,4.902-0.766,6.279c-1.991,2.146-4.749,3.064-13.021,1.227c0,0-132.669-27.576-141.401-29.414
		c-7.2-1.532-10.264-5.515-10.264-10.571c0-4.902,2.757-8.272,8.12-9.345c0,0,140.635-27.576,143.698-28.188
		c1.992-0.46,9.958-1.839,13.176-2.298c2.604-0.459,6.587-0.766,8.578-0.306c1.686,0.459,2.911,1.532,2.911,3.217
		C187.072,2.511,186.153,1.132,183.855,0.366L183.855,0.366z M20.547,67.466c-3.83,1.379-6.741,1.533-8.12,0.461
		c-0.613-0.461-0.766-1.379-0.613-2.605c0.307-1.686,1.379-3.217,3.371-5.209c0,0,2.604-2.91,5.515-6.127
		c2.298,0.459,11.49,2.451,24.205,5.055L20.547,67.466L20.547,67.466z M5.38,10.784C2.01,6.954,1.55,5.728,1.857,4.656
		c0-0.459,0.459-0.919,1.685-1.379c1.226-0.306,4.29-0.153,7.813,0.307c3.064,0.459,11.03,1.838,13.021,2.298l60.207,11.796
		L22.539,29.78L5.38,10.784L5.38,10.784z"/>
	<path fill-rule="evenodd" clip-rule="evenodd" fill="#0070B1" d="M173.59,21.814l8.273-11.03c3.217-3.983,3.829-5.056,3.523-6.128
		c-0.154-0.459-0.613-0.919-1.686-1.379c-1.226-0.306-4.442-0.153-7.967,0.307c-3.063,0.459-11.029,1.838-13.021,2.298
		L19.168,34.069c-4.596,0.919-6.894,3.371-6.894,7.66c0,5.822,4.903,7.967,8.886,8.886c8.579,1.685,140.175,29.107,141.554,29.414
		l0,0l0,0c8.12,1.838,9.958,0.613,11.184-0.766c0.919-1.072,1.226-3.217,0.153-5.209l-11.49-28.341
		c-2.91-5.208,0.46-9.958,3.83-13.788L173.59,21.814L173.59,21.814z M172.671,26.103l-5.209,7.354
		c-3.829,4.136-5.515,7.353-3.37,11.336l11.49,28.343v0.152c0.152,0.307,0.306,0.613,0.459,0.92
		c0.919,2.451,0.307,4.902-0.766,6.279c-1.991,2.146-4.749,3.064-13.021,1.227c0,0-132.669-27.576-141.401-29.414
		c-7.2-1.532-10.264-5.515-10.264-10.571c0-4.902,2.757-8.272,8.12-9.345c0,0,140.635-27.576,143.698-28.188
		c1.992-0.46,9.958-1.839,13.176-2.298c2.604-0.459,6.587-0.766,8.578-0.306c1.686,0.459,2.911,1.532,2.911,3.217
		c0.153,1.839-0.766,3.217-3.983,7.047L172.671,26.103L172.671,26.103z"/>
	<path fill-rule="evenodd" clip-rule="evenodd" fill="#A0D9F7" d="M93.622,15.839L25.143,2.511
		c-2.145-0.46-10.111-1.839-13.329-2.298C9.976,0.06,5.687-0.247,3.235,0.366C0.938,1.132,0.019,2.511,0.019,4.809
		c0-1.685,1.226-2.757,3.064-3.217s5.821-0.153,8.579,0.306c3.063,0.459,11.03,1.838,13.021,2.298
		c1.379,0.306,31.865,6.281,64.343,12.562L93.622,15.839L93.622,15.839z"/>
	<path fill-rule="evenodd" clip-rule="evenodd" fill="#A0D9F7" d="M48.122,59.806c-9.958,3.371-23.286,8.121-26.962,9.346
		c-7.966,2.758-11.49,0.613-11.184-3.523c-0.153,2.145-0.153,3.982,1.073,5.055c1.532,1.533,4.136,2.453,10.724,0.154
		c0,0,18.23-6.434,29.72-10.418C50.42,60.267,49.194,59.96,48.122,59.806L48.122,59.806z"/>
	<path fill-rule="evenodd" clip-rule="evenodd" fill="#A0D9F7" d="M20.547,67.466c-3.83,1.379-6.741,1.533-8.12,0.461
		c-0.613-0.461-0.766-1.379-0.613-2.605c0.307-1.686,1.379-3.217,3.371-5.209c0,0,2.604-2.91,5.515-6.127
		c2.298,0.459,11.49,2.451,24.205,5.055L20.547,67.466L20.547,67.466z"/>
	<path fill-rule="evenodd" clip-rule="evenodd" fill="#A0D9F7" d="M5.38,10.784C2.01,6.954,1.55,5.728,1.857,4.656
		c0-0.459,0.459-0.919,1.685-1.379c1.226-0.306,4.29-0.153,7.813,0.307c3.064,0.459,11.03,1.838,13.021,2.298l60.207,11.796
		L22.539,29.78L5.38,10.784L5.38,10.784z"/>
	<polygon fill-rule="evenodd" clip-rule="evenodd" fill="#0070B1" points="132.534,58.888 123.801,58.888 129.01,26.256 
		137.743,26.256 132.534,58.888 	"/>
	<polygon fill-rule="evenodd" clip-rule="evenodd" fill="#0070B1" points="90.098,26.103 98.524,26.103 110.32,46.172 
		110.473,46.172 113.538,26.103 122.117,26.103 116.908,58.733 108.482,58.733 96.992,38.818 96.686,38.818 93.469,58.733 
		84.89,58.733 90.098,26.103 	"/>
	<path fill-rule="evenodd" clip-rule="evenodd" fill="#0070B1" d="M38.165,33.457c-1.073-0.613-2.911-1.686-5.515-1.686
		c-1.838,0-3.37,0.919-3.677,2.451c-0.459,2.298,1.838,3.217,3.523,3.983c1.685,0.613,2.604,1.226,3.677,1.839
		c3.677,2.145,5.975,6.281,4.443,11.643c-1.226,3.984-4.902,8.273-13.941,8.273c-5.822,0-10.111-2.451-12.256-4.137l4.749-6.74
		c1.838,1.838,4.902,3.676,7.966,3.676c2.145,0,4.442-0.612,4.902-2.757c0.613-2.604-2.451-3.523-4.749-4.442
		c-5.362-2.298-8.272-6.128-7.047-11.643c0.919-5.056,5.822-8.732,12.715-8.732c4.136-0.153,7.354,1.226,9.039,1.991
		C41.995,27.175,38.318,33.763,38.165,33.457L38.165,33.457z"/>
	<path fill-rule="evenodd" clip-rule="evenodd" fill="#0070B1" d="M82.132,42.496C80.447,53.372,71.715,59.96,61.144,59.96
		c-11.184,0-16.545-8.426-15.473-17.464c1.226-9.499,9.805-17.312,20.988-17.312C78.302,25.184,83.358,34.223,82.132,42.496
		L82.132,42.496z M54.709,42.496c-1.072,5.668,2.452,9.498,7.66,9.498c5.055,0,9.651-3.523,10.724-9.498
		c0.919-4.903-1.685-9.499-7.813-9.499C59.612,32.997,55.629,37.593,54.709,42.496L54.709,42.496z"/>
	<path fill-rule="evenodd" clip-rule="evenodd" fill="#0070B1" d="M167.157,36.368c-1.379-1.379-3.523-2.911-7.048-2.911
		c-4.902,0-9.498,4.136-10.264,9.191c-0.919,5.056,1.686,8.885,7.506,8.885c3.524,0,6.128-1.378,7.813-2.757l-1.531,9.805
		c-1.686,0.459-4.29,1.379-7.813,1.379c-12.409,0-16.545-9.345-15.319-17.464c1.379-9.805,9.345-17.312,20.068-17.465
		c3.523,0,6.435,1.072,8.119,1.532L167.157,36.368L167.157,36.368z"/>
	<polygon fill-rule="evenodd" clip-rule="evenodd" fill="#E20613" points="134.525,57.202 125.793,57.202 130.848,24.571 
		139.581,24.571 134.525,57.202 	"/>
	<polygon fill-rule="evenodd" clip-rule="evenodd" fill="#E20613" points="91.937,24.418 100.515,24.418 112.159,44.487 
		112.465,44.487 115.529,24.418 123.955,24.418 118.746,57.05 110.32,57.05 98.831,37.133 98.677,37.133 95.307,57.05 86.881,57.05 
		91.937,24.418 	"/>
	<path fill-rule="evenodd" clip-rule="evenodd" fill="#E20613" d="M40.616,32.384c-0.613-0.613-2.604-2.298-6.128-2.298
		c-1.838,0-3.371,0.919-3.677,2.451c-0.459,2.298,1.838,3.217,3.523,3.983c1.685,0.613,2.757,1.226,3.83,1.838
		c3.677,2.145,5.821,6.281,4.29,11.643c-1.072,4.136-4.75,8.272-13.788,8.272c-5.975,0-10.111-2.451-11.643-3.523l4.749-6.741
		c1.072,1.226,4.136,3.064,7.2,3.064c2.298,0,4.596-0.613,5.055-2.758c0.613-2.604-2.451-3.524-4.749-4.443
		c-5.362-2.298-8.273-6.128-7.201-11.643c1.073-5.056,5.822-8.732,12.716-8.732c5.208,0,8.885,1.838,9.958,2.604L40.616,32.384
		L40.616,32.384z"/>
	<path fill-rule="evenodd" clip-rule="evenodd" fill="#E20613" d="M83.97,40.81c-1.685,10.877-10.417,17.464-20.988,17.464
		c-11.03,0-16.545-8.426-15.32-17.464c1.072-9.498,9.805-17.311,20.835-17.311C80.293,23.499,85.349,32.538,83.97,40.81L83.97,40.81
		z M56.395,40.81c-1.073,5.668,2.451,9.498,7.66,9.498c5.056,0,9.651-3.523,10.724-9.498c0.919-4.902-1.686-9.498-7.813-9.498
		C61.297,31.312,57.314,35.908,56.395,40.81L56.395,40.81z"/>
	<path fill-rule="evenodd" clip-rule="evenodd" fill="#E20613" d="M168.995,34.682c-1.226-1.378-3.523-2.911-7.047-2.911
		c-4.902,0-9.498,4.137-10.265,9.192c-0.766,5.056,1.839,9.039,7.507,8.885c3.523,0,6.281-1.378,7.813-2.757l-1.532,9.804
		c-1.686,0.459-4.289,1.379-7.813,1.379c-12.255,0-16.392-9.345-15.166-17.311c1.379-9.958,9.345-17.464,19.915-17.464
		c3.677,0,6.588,0.919,8.12,1.379L168.995,34.682L168.995,34.682z"/>
	<path fill-rule="evenodd" clip-rule="evenodd" fill="#0070B1" d="M89.792,101.63c0,0-0.459-0.154-1.072-0.154
		c-1.072,0-1.685,0.613-1.838,1.533l-0.46,3.217h-3.983l1.378-8.119h3.524l-0.153,1.072h0.153c0.306-0.613,1.378-1.379,3.064-1.227
		L89.792,101.63L89.792,101.63z"/>
	<path fill-rule="evenodd" clip-rule="evenodd" fill="#0070B1" d="M71.255,94.735h4.289c3.523,0,6.281,1.838,5.822,5.822
		c-0.459,3.676-3.217,5.668-6.741,5.668h-5.208L71.255,94.735L71.255,94.735z M74.166,102.702h0.613
		c1.225,0,2.297-0.613,2.451-2.145c0.307-1.533-0.459-2.299-1.685-2.299h-0.766L74.166,102.702L74.166,102.702z"/>
	<polygon fill-rule="evenodd" clip-rule="evenodd" fill="#0070B1" points="101.128,98.106 101.894,102.702 102.047,102.702 
		103.886,98.106 107.869,98.106 103.58,106.226 99.443,106.226 97.298,98.106 101.128,98.106 	"/>
	<polygon fill-rule="evenodd" clip-rule="evenodd" fill="#0070B1" points="127.478,94.735 131.615,94.735 129.929,106.226 
		125.64,106.226 127.478,94.735 	"/>
	<path fill-rule="evenodd" clip-rule="evenodd" fill="#0070B1" d="M137.589,99.179L137.589,99.179
		c0.612-0.461,1.379-1.227,2.911-1.227c1.838,0,2.604,1.227,2.298,2.91l-0.767,5.363h-3.83l0.613-4.289
		c0.153-0.461-0.153-0.92-0.613-0.92c-0.459,0-0.766,0.307-0.766,0.92l-0.766,4.289h-3.83l1.226-8.119h3.523V99.179L137.589,99.179z
		"/>
	<path fill-rule="evenodd" clip-rule="evenodd" fill="#0070B1" d="M92.243,98.106h3.83l-1.226,8.119h-3.983L92.243,98.106
		L92.243,98.106z M94.694,96.573c1.226,0,2.146-0.766,2.146-1.838s-0.92-1.992-2.146-1.992c-1.225,0-2.145,0.92-2.145,1.992
		S93.469,96.573,94.694,96.573L94.694,96.573z"/>
	<path fill-rule="evenodd" clip-rule="evenodd" fill="#0070B1" d="M121.81,103.468c1.226,0,2.145-0.92,2.145-1.838
		c0-1.072-0.919-1.992-2.145-1.992c-1.072,0-2.145,0.92-2.145,1.992C119.666,102.548,120.738,103.468,121.81,103.468L121.81,103.468
		z"/>
	<path fill-rule="evenodd" clip-rule="evenodd" fill="#0070B1" d="M35.254,88.454h-4.596l5.822-11.49h5.208l1.991,11.49H39.39
		l-0.153-1.531h-3.37L35.254,88.454L35.254,88.454z M38.931,84.317l-0.153-3.676h-0.307l-1.532,3.676H38.931L38.931,84.317z"/>
	<path fill-rule="evenodd" clip-rule="evenodd" fill="#0070B1" d="M100.975,87.534L100.975,87.534
		c-0.307,0.307-0.919,1.074-2.451,1.074c-2.145,0-3.217-1.992-2.911-4.137c0.307-2.451,1.992-4.289,4.29-4.289
		c1.379,0,1.991,0.611,2.145,0.918h0.153l0.153-0.766h3.523l-1.226,8.119h-3.677V87.534L100.975,87.534z M100.209,85.851
		c0.919,0,1.379-0.768,1.531-1.533c0.153-0.766-0.306-1.225-1.072-1.225c-0.766,0-1.378,0.613-1.531,1.379
		S99.291,85.851,100.209,85.851L100.209,85.851z"/>
	<path fill-rule="evenodd" clip-rule="evenodd" fill="#0070B1" d="M53.637,88.454l0.766-4.443c0-0.459,0.306-0.611,0.766-0.611
		c0.306,0,0.613,0.307,0.459,0.766l-0.613,4.289h3.677l0.919-5.361c0.153-1.533-0.46-2.91-2.298-2.91
		c-1.379,0-2.298,0.766-2.757,1.531h-0.153c-0.153-0.766-0.613-1.531-1.992-1.531c-1.226,0-2.298,0.611-2.757,1.531h-0.153
		l0.153-1.379h-3.371l-1.226,8.119h3.677l0.613-4.443c0.153-0.459,0.459-0.611,0.766-0.611c0.459,0,0.766,0.307,0.613,0.766
		l-0.613,4.289H53.637L53.637,88.454z"/>
	<path fill-rule="evenodd" clip-rule="evenodd" fill="#0070B1" d="M106.796,80.642v-0.307c0.613-0.152,1.226-0.613,1.226-1.072
		c0.153-0.459,0-0.766-0.459-0.92c-0.613-0.307-0.767-0.918-0.613-1.379c0.153-0.459,0.613-0.918,1.379-0.918
		c1.072,0,1.686,1.072,1.532,1.99C109.708,79.569,108.482,80.794,106.796,80.642L106.796,80.642z"/>
	<path fill-rule="evenodd" clip-rule="evenodd" fill="#0070B1" d="M93.775,83.552c-0.153-0.152-0.613-0.459-1.226-0.459
		c-0.766,0-1.379,0.459-1.532,1.379c-0.153,0.611,0.306,1.225,1.225,1.225c0.613,0,1.073-0.152,1.226-0.307l-0.459,2.912
		c-0.307,0.152-1.073,0.307-2.145,0.307c-2.911,0-3.983-2.146-3.677-4.291c0.307-2.451,2.298-4.135,4.902-4.135
		c0.919,0,1.685,0.152,2.298,0.459L93.775,83.552L93.775,83.552z"/>
	<path fill-rule="evenodd" clip-rule="evenodd" fill="#0070B1" d="M109.401,85.696c0.307,0.307,1.226,0.613,1.992,0.613
		c0.459,0,0.919-0.152,0.919-0.459c0.153-0.307-0.307-0.461-0.613-0.613c-1.685-0.459-2.298-1.531-1.991-2.758
		c0.459-1.686,1.991-2.297,3.983-2.297c1.531,0,2.451,0.305,3.063,0.611l-1.072,1.992c-0.307-0.152-0.919-0.613-1.839-0.613
		c-0.306,0-0.612,0.154-0.766,0.461c0,0.459,0.613,0.611,1.379,0.918c1.532,0.459,1.838,1.531,1.686,2.605
		c-0.307,1.531-2.146,2.604-4.443,2.604c-1.685,0-2.91-0.459-3.677-0.613L109.401,85.696L109.401,85.696z"/>
	<path fill-rule="evenodd" clip-rule="evenodd" fill="#0070B1" d="M64.514,84.931c-0.153,1.072,0.153,1.686,1.073,1.686
		c0.766,0,1.226-0.307,1.378-0.766l3.371,0.152c-0.613,1.227-2.298,2.605-4.902,2.605c-3.064,0-4.596-1.992-4.29-4.291
		c0.459-2.604,2.451-4.135,5.208-4.135c2.911,0,4.596,1.531,4.29,4.748H64.514L64.514,84.931z M67.425,83.399
		c0-0.613-0.153-1.379-1.072-1.379c-0.919,0-1.532,0.766-1.532,1.379H67.425L67.425,83.399z"/>
	<path fill-rule="evenodd" clip-rule="evenodd" fill="#0070B1" d="M111.24,102.702c0,0.918,0.306,1.686,1.226,1.686
		c0.612,0,1.072-0.461,1.378-0.92l3.371,0.152c-0.767,1.379-2.298,2.758-5.056,2.758c-2.911,0-4.596-1.99-4.137-4.289
		c0.46-2.604,2.298-4.137,5.209-4.137s4.596,1.533,4.29,4.75H111.24L111.24,102.702z M114.15,101.169
		c0.153-0.611-0.153-1.379-1.072-1.379s-1.379,0.613-1.532,1.379H114.15L114.15,101.169z"/>
	<path fill-rule="evenodd" clip-rule="evenodd" fill="#0070B1" d="M79.375,83.858c-0.153,0-0.459-0.152-1.072-0.152
		c-1.073,0-1.686,0.611-1.838,1.684l-0.613,3.064h-3.83l1.226-8.119h3.677l-0.153,1.072h0.153c0.306-0.613,1.379-1.379,3.064-1.225
		L79.375,83.858L79.375,83.858z"/>
	<path fill-rule="evenodd" clip-rule="evenodd" fill="#0070B1" d="M81.826,80.335h3.983l-1.226,8.119H80.6L81.826,80.335
		L81.826,80.335z M84.124,78.804c1.226,0,2.145-0.768,2.145-1.84s-0.919-1.99-2.145-1.99s-2.145,0.918-2.145,1.99
		S82.898,78.804,84.124,78.804L84.124,78.804z"/>
</g>
</svg>
