<?xml version="1.0" encoding="utf-8"?>
<!-- Generator: Adobe Illustrator 16.0.0, SVG Export Plug-In . SVG Version: 6.00 Build 0)  -->
<!DOCTYPE svg PUBLIC "-//W3C//DTD SVG 1.1//EN" "http://www.w3.org/Graphics/SVG/1.1/DTD/svg11.dtd">
<svg version="1.1" id="Layer_1" xmlns="http://www.w3.org/2000/svg" xmlns:xlink="http://www.w3.org/1999/xlink" x="0px" y="0px"
	 width="186.279px" height="187.087px" viewBox="0 0 186.279 187.087" enable-background="new 0 0 186.279 187.087"
	 xml:space="preserve">
<g>
	<g>
		<defs>
			<polygon id="SVGID_1_" points="186.279,187.087 186.279,0 0,0 0,187.087 186.279,187.087 			"/>
		</defs>
		<clipPath id="SVGID_2_">
			<use xlink:href="#SVGID_1_"  overflow="visible"/>
		</clipPath>
		<g clip-path="url(#SVGID_2_)">
			<defs>
				<rect id="SVGID_3_" width="186.279" height="187.087"/>
			</defs>
			<clipPath id="SVGID_4_">
				<use xlink:href="#SVGID_3_"  overflow="visible"/>
			</clipPath>
			<g transform="matrix(1 0 0 1 -1.192093e-07 1.525879e-05)" clip-path="url(#SVGID_4_)">
				
					<image overflow="visible" width="396" height="393" xlink:href="459EB754DD747D53.png"  transform="matrix(0.48 0 0 -0.48 -1.2471 188.0776)">
				</image>
			</g>
		</g>
		<g clip-path="url(#SVGID_2_)">
			<defs>
				<rect id="SVGID_5_" width="186.279" height="187.087"/>
			</defs>
			<clipPath id="SVGID_6_">
				<use xlink:href="#SVGID_5_"  overflow="visible"/>
			</clipPath>
			<g transform="matrix(1 0 0 1 -1.192093e-07 1.525879e-05)" clip-path="url(#SVGID_6_)">
				
					<image overflow="visible" width="396" height="393" xlink:href="459EB754DD747D51.png"  transform="matrix(0.48 0 0 -0.48 -1.2471 188.0776)">
				</image>
			</g>
		</g>
		<g clip-path="url(#SVGID_2_)">
			<defs>
				<rect id="SVGID_7_" width="186.279" height="187.087"/>
			</defs>
			<clipPath id="SVGID_8_">
				<use xlink:href="#SVGID_7_"  overflow="visible"/>
			</clipPath>
			<g transform="matrix(1 0 0 1 -1.192093e-07 1.525879e-05)" clip-path="url(#SVGID_8_)">
				
					<image overflow="visible" width="396" height="393" xlink:href="459EB754DD747D57.png"  transform="matrix(0.48 0 0 -0.48 -1.2471 188.0776)">
				</image>
			</g>
		</g>
		<g clip-path="url(#SVGID_2_)">
			<defs>
				<rect id="SVGID_9_" width="186.279" height="187.087"/>
			</defs>
			<clipPath id="SVGID_10_">
				<use xlink:href="#SVGID_9_"  overflow="visible"/>
			</clipPath>
			<g transform="matrix(1 0 0 1 -1.192093e-07 1.525879e-05)" clip-path="url(#SVGID_10_)">
				
					<image overflow="visible" width="396" height="393" xlink:href="459EB754DD747D50.png"  transform="matrix(0.48 0 0 -0.48 -1.2471 188.0776)">
				</image>
			</g>
		</g>
	</g>
	<path fill-rule="evenodd" clip-rule="evenodd" fill="#0058A5" d="M133.3,81.501l-11.623,10.234l-9.446-26.425l-2.557,2.202
		l-1.585-4.461c0,0,7.934-5.966,3.775-17.98l3.352-2.867l3.691,11.129l3.858-3.418l1.52,4.738l-3.733,3.274l7.148,19.492
		C128.812,80.026,129.911,81.923,133.3,81.501L133.3,81.501z"/>
	<path fill-rule="evenodd" clip-rule="evenodd" fill="#0058A5" d="M96.875,72.953l9.026-8.068l6.715,19.385
		c1.659,4.327,2.659,9.253,7.08,9.304L107.839,104L96.875,72.953L96.875,72.953z"/>
	<path fill-rule="evenodd" clip-rule="evenodd" fill="#0058A5" d="M81.683,94.064c-1.918-4.189-3.633-3.57-4.756-3.292l9.122-8.04
		l2.098,5.943c-2.233-8.881,6.123-14.562,6.123-14.562l3.973,10.731c-1.569-1.481-6.658,3.102-5.211,8.108l2.647,7.74
		c1.657,4.352,2.991,8.662,7.701,7.447l-12.766,11.277L81.683,94.064L81.683,94.064z"/>
	<path fill-rule="evenodd" clip-rule="evenodd" fill="#0058A5" d="M151.438,64.157c-2.451,3.624-7.933,8.457-12.404,7.879
		c-3.843-0.352-7.491-3.021-9.432-7.775l-3.377-8.773c-1.695-5.512-0.4-10.935,5.873-16.527c3.486-3.315,8.617-6.339,12.433-4.259
		c3.013,1.806,4.82,8.454,4.82,8.454l0.749,2.227l-12.314,10.823c1.288,3.997,3.652,5.785,6.445,5.285
		c3.544-1.162,6.737-4.871,7.997-11.01l2.288,6.007c-0.424,3.318-1.639,5.304-2.951,7.493L151.438,64.157L151.438,64.157z
		 M136.067,43.275c-2.913,2.67-1.099,5.174,0.056,8.873l4.623-4.077c0.438-0.847-0.011-1.34-0.144-1.916
		C140.602,46.156,139.042,40.834,136.067,43.275L136.067,43.275z"/>
	<path fill-rule="evenodd" clip-rule="evenodd" fill="#0058A5" d="M85.141,113.027c3.682,10.855-5.808,17.766-7.424,17.758
		c-1.676,0.27-2.235,0.176-3.31-0.113c0,0,3.907,9.994,3.95,10.082c1.4,2.889,4.8,3.225,5.302,2.779l-12.471,10.854
		c-4.877-14.018-8.231-24.133-13.543-37.998c-1.349-2.938-3.983-3.773-5.532-3.568l15.396-13.627
		c4.241-3.604,10.297-3.766,13.366,2.326L85.141,113.027L85.141,113.027z M66.527,108.492l5.988,16.098
		c1.688,2.523,5.386-0.326,3.705-4.008l-4.304-11.412C69.934,103.601,66.118,107.132,66.527,108.492L66.527,108.492z"/>
	<path fill-rule="evenodd" clip-rule="evenodd" fill="#0058A5" d="M33.557,136.171c0,0,4.952,3.078,10.546,6.025
		c8.085,4.256,8.46,10.764,3.544,14.535c-5.346,4.107-11.222,3.357-15.272-3.688l0.915,13.141
		c10.446,7.275,27.254-4.141,30.053-17.373c0.974-4.766,0.736-13.025-6.173-17.607c-6.3-4.182-13.613-7.539-14.144-7.771
		c-2.485-1.08-4.664-2.309-6.574-3.402c-4.583-2.629-3.653-7.273-2.435-9.012c3.747-5.354,10.088-5.168,15.119,0.725L46.052,99.56
		c-11.143-4.965-27.281,9.973-25.597,21.719c0.203,2.932,1.964,8.977,12.725,14.533L33.557,136.171L33.557,136.171z"/>
	<path fill-rule="evenodd" clip-rule="evenodd" fill="#FFFFFF" d="M135.426,75.701l-11.623,10.232l-9.446-26.423l-2.559,2.202
		l-1.583-4.461c0,0,7.934-5.967,3.776-17.98l3.352-2.868l3.69,11.128l3.858-3.417l1.52,4.738l-3.734,3.274l7.149,19.492
		C130.937,74.225,132.037,76.122,135.426,75.701L135.426,75.701z"/>
	<path fill-rule="evenodd" clip-rule="evenodd" fill="#FFFFFF" d="M99,67.152l9.025-8.067l6.717,19.385
		c1.659,4.327,2.659,9.252,7.081,9.303l-11.857,10.426L99,67.152L99,67.152z"/>
	<path fill-rule="evenodd" clip-rule="evenodd" fill="#FFFFFF" d="M83.808,88.264c-1.919-4.189-3.632-3.571-4.755-3.292l9.122-8.041
		l2.098,5.943c-2.233-8.881,6.121-14.562,6.121-14.562l3.973,10.731c-1.568-1.482-6.658,3.102-5.211,8.108l2.647,7.74
		c1.658,4.35,2.992,8.662,7.702,7.447L92.74,113.617L83.808,88.264L83.808,88.264z"/>
	<path fill-rule="evenodd" clip-rule="evenodd" fill="#FFFFFF" d="M153.624,59.462c-2.451,3.623-7.934,8.457-12.404,7.878
		c-3.844-0.352-7.492-3.021-9.433-7.774l-3.377-8.774c-1.695-5.512-0.4-10.933,5.873-16.527c3.487-3.314,8.618-6.338,12.435-4.257
		c3.011,1.804,4.82,8.454,4.82,8.454l0.747,2.226L139.97,51.51c1.289,3.997,3.653,5.786,6.446,5.286
		c3.544-1.163,6.737-4.873,7.997-11.01l2.289,6.007c-0.425,3.318-1.64,5.303-2.953,7.492L153.624,59.462L153.624,59.462z
		 M138.252,38.58c-2.914,2.67-1.099,5.173,0.055,8.872l4.623-4.075c0.439-0.848-0.011-1.34-0.144-1.917
		C142.787,41.459,141.226,36.137,138.252,38.58L138.252,38.58z"/>
	<path fill-rule="evenodd" clip-rule="evenodd" fill="#FFFFFF" d="M87.268,107.226c3.681,10.855-5.809,17.766-7.425,17.758
		c-1.676,0.268-2.234,0.176-3.311-0.113c0,0,3.909,9.994,3.952,10.082c1.4,2.889,4.799,3.225,5.302,2.777l-12.472,10.855
		c-4.876-14.018-8.23-24.133-13.542-38c-1.351-2.936-3.984-3.771-5.532-3.566L69.635,93.39c4.24-3.601,10.296-3.764,13.366,2.326
		L87.268,107.226L87.268,107.226z M68.653,102.691l5.988,16.096c1.688,2.525,5.386-0.326,3.704-4.006l-4.304-11.412
		C72.059,97.8,68.244,101.33,68.653,102.691L68.653,102.691z"/>
	<path fill-rule="evenodd" clip-rule="evenodd" fill="#FFFFFF" d="M35.627,130.505c0,0,4.952,3.078,10.546,6.023
		c8.085,4.256,8.46,10.764,3.544,14.537c-5.347,4.105-11.222,3.355-15.273-3.689l0.916,13.141
		c10.446,7.275,27.254-4.139,30.053-17.373c0.974-4.766,0.734-13.023-6.174-17.607c-6.299-4.182-13.613-7.539-14.143-7.77
		c-2.487-1.082-4.665-2.309-6.575-3.404c-4.582-2.629-3.652-7.273-2.435-9.012c3.746-5.352,10.087-5.168,15.12,0.725l-3.084-12.184
		c-11.143-4.964-27.282,9.971-25.599,21.719c0.204,2.932,1.965,8.977,12.726,14.535L35.627,130.505L35.627,130.505z"/>
	<path fill-rule="evenodd" clip-rule="evenodd" fill="#FFFFFF" d="M86.75,54.851c-0.054,1.474-0.02,2.501-0.015,2.597
		c-0.097,3.427,1.418,3.572,1.591,3.577l-0.099-0.014c0.781,0.215,1.575-0.476,1.663-0.555c1.707-1.541,3.681-0.956,3.765-0.931
		l0.039,0.012c0.001,0,0.041,0.006,0.041,0.006c0.947,0.099,3.64,0.317,3.754,0.327c4.84,0.145,7.662-2.351,7.779-2.457
		c5.867-4.319,5.273-14.139,5.246-14.555l0.001,0.042c0.101-2.963-0.869-3.548-1.064-3.636l0.052,0.028
		c-0.922-0.579-2.274,0.284-2.421,0.383c0.052-1.224-0.032-2.044-0.04-2.157l0.001,0.042c0.103-2.964-0.869-3.549-1.064-3.637
		l0.052,0.028c-0.922-0.579-2.24,0.28-2.387,0.379l-0.035,0.024l-0.03,0.029c-0.835,0.854-3.532,0.87-4.501,0.805
		c-1.963-0.274-6.062-0.052-6.236-0.042c-6.358,0.624-8.373,6.781-8.393,6.842c-1.451,4.48-1.198,9.892-1.186,10.121
		c-0.098,3.426,1.418,3.572,1.591,3.578l-0.097-0.016c0.779,0.216,1.574-0.475,1.662-0.554
		C86.533,55.013,86.634,54.936,86.75,54.851L86.75,54.851z"/>
	<path fill-rule="evenodd" clip-rule="evenodd" fill="#008B3C" d="M107.185,40.632C107.439,40.504,107.185,40.632,107.185,40.632
		c0.322-0.217,1.51-0.865,1.874-0.635l0.025,0.015l0.026,0.013c-0.018-0.009,0.653,0.44,0.57,2.846l-0.001,0.021l0.001,0.021v-0.001
		c0.007,0.099,0.589,9.782-4.939,13.854c-0.058,0.049-2.736,2.403-7.207,2.27c-0.007-0.001-2.772-0.226-3.711-0.325l0.081,0.018
		c-0.101-0.032-2.503-0.761-4.574,1.106c-0.17,0.153-0.61,0.444-0.88,0.372l-0.048-0.013l-0.051-0.003
		c-0.223-0.033-0.843-0.598-0.784-2.751c-0.001-0.042-0.044-1.308,0.051-3.097c1.312-0.53,2.502-0.177,2.565-0.159l0.039,0.014
		l0.041,0.004c0.949,0.1,3.638,0.318,3.752,0.327c4.841,0.146,7.663-2.351,7.78-2.457C105.612,49.262,106.901,43.994,107.185,40.632
		L107.185,40.632z"/>
	<path fill-rule="evenodd" clip-rule="evenodd" fill="#FFEC00" d="M106.095,41.044c-0.329,3.216-1.413,7.869-4.826,10.382
		c-0.057,0.049-2.736,2.403-7.207,2.27c-0.007-0.001-2.773-0.227-3.71-0.325l0.083,0.017c-0.103-0.032-2.505-0.761-4.574,1.108
		c-0.172,0.152-0.612,0.443-0.882,0.37l-0.048-0.014l-0.05-0.001c-0.222-0.035-0.842-0.6-0.784-2.753
		c-0.003-0.086-0.255-5.524,1.149-9.857c0.075-0.234,1.877-5.697,7.661-6.266c0.024-0.001,4.174-0.225,6.087,0.04
		c0.425,0.029,3.929,0.232,5.184-1.049l-0.065,0.053c0.324-0.217,1.111-0.592,1.476-0.363l0.025,0.016l0.026,0.012
		c-0.017-0.007,0.653,0.441,0.571,2.846l-0.001,0.021l0.001,0.021C106.211,37.61,106.298,39.051,106.095,41.044L106.095,41.044z"/>
	<path fill-rule="evenodd" clip-rule="evenodd" fill="#FFFFFF" d="M19.412,157.587c-0.722-0.074-1.249-0.721-1.175-1.443
		c0.074-0.721,0.72-1.248,1.442-1.174c0.724,0.072,1.249,0.719,1.176,1.441C20.781,157.134,20.134,157.662,19.412,157.587
		L19.412,157.587z"/>
	<path fill-rule="evenodd" clip-rule="evenodd" fill="#0058A5" d="M20.962,156.431l-1.388,0.549l-1.438-0.699l0.097,0.506
		c0.193,0.447,0.669,0.828,1.173,0.883c0.564,0.059,1.113-0.289,1.36-0.711L20.962,156.431L20.962,156.431z"/>
	<path fill-rule="evenodd" clip-rule="evenodd" fill="#008B3C" d="M20.882,156.5c-0.853,0.914-1.979,0.781-2.681-0.146
		c0,0-0.024-0.064-0.02-0.168c0.005-0.104,0.053-0.52,0.053-0.52c0.664,0.93,1.755,1.084,2.645,0.213
		C20.879,155.878,21.035,156.335,20.882,156.5L20.882,156.5z"/>
	<path fill-rule="evenodd" clip-rule="evenodd" fill="#FFFFFF" d="M22.825,168.552c-0.673-0.07-1.163-0.672-1.095-1.346
		c0.069-0.674,0.672-1.164,1.345-1.096c0.673,0.07,1.164,0.672,1.095,1.344C24.101,168.13,23.499,168.619,22.825,168.552
		L22.825,168.552z"/>
	<path fill-rule="evenodd" clip-rule="evenodd" fill="#0058A5" d="M24.269,167.474l-1.292,0.512l-1.341-0.652l0.092,0.471
		c0.179,0.418,0.623,0.773,1.093,0.822c0.524,0.057,1.037-0.268,1.268-0.662L24.269,167.474L24.269,167.474z"/>
	<path fill-rule="evenodd" clip-rule="evenodd" fill="#008B3C" d="M24.195,167.539c-0.796,0.852-1.844,0.727-2.499-0.139
		c0,0-0.023-0.061-0.018-0.156s0.049-0.484,0.049-0.484c0.62,0.867,1.636,1.012,2.466,0.199
		C24.193,166.958,24.337,167.384,24.195,167.539L24.195,167.539z"/>
	<path fill-rule="evenodd" clip-rule="evenodd" fill="#FFFFFF" d="M22.969,163.041c-0.498-0.051-0.86-0.494-0.809-0.992
		s0.496-0.859,0.993-0.809c0.498,0.051,0.859,0.494,0.81,0.992C23.912,162.73,23.467,163.093,22.969,163.041L22.969,163.041z"/>
	<path fill-rule="evenodd" clip-rule="evenodd" fill="#0058A5" d="M24.035,162.246l-0.954,0.379l-0.99-0.482l0.067,0.348
		c0.133,0.309,0.46,0.57,0.807,0.609c0.388,0.039,0.766-0.201,0.937-0.49L24.035,162.246L24.035,162.246z"/>
	<path fill-rule="evenodd" clip-rule="evenodd" fill="#008B3C" d="M23.98,162.292c-0.586,0.631-1.362,0.537-1.845-0.1
		c0,0-0.018-0.047-0.013-0.117c0.002-0.072,0.036-0.357,0.036-0.357c0.457,0.641,1.208,0.746,1.821,0.145
		C23.979,161.863,24.086,162.179,23.98,162.292L23.98,162.292z"/>
	<path fill-rule="evenodd" clip-rule="evenodd" fill="#FFFFFF" d="M19.509,171.38c-0.498-0.051-0.861-0.496-0.81-0.992
		c0.051-0.498,0.495-0.861,0.993-0.809c0.498,0.051,0.859,0.494,0.809,0.992C20.451,171.07,20.006,171.431,19.509,171.38
		L19.509,171.38z"/>
	<path fill-rule="evenodd" clip-rule="evenodd" fill="#0058A5" d="M20.575,170.583l-0.954,0.379l-0.991-0.48l0.068,0.348
		c0.133,0.307,0.46,0.57,0.807,0.607c0.388,0.041,0.765-0.199,0.936-0.49L20.575,170.583L20.575,170.583z"/>
	<path fill-rule="evenodd" clip-rule="evenodd" fill="#008B3C" d="M20.52,170.63c-0.588,0.631-1.362,0.539-1.846-0.1
		c0,0-0.017-0.045-0.013-0.117c0.002-0.07,0.036-0.357,0.036-0.357c0.458,0.641,1.208,0.748,1.822,0.146
		C20.519,170.203,20.625,170.519,20.52,170.63L20.52,170.63z"/>
	<path fill-rule="evenodd" clip-rule="evenodd" fill="#FFFFFF" d="M19.365,176.798c-0.415-0.041-0.717-0.412-0.674-0.828
		c0.042-0.414,0.412-0.715,0.827-0.674c0.416,0.043,0.717,0.414,0.675,0.828C20.15,176.541,19.779,176.841,19.365,176.798
		L19.365,176.798z"/>
	<path fill-rule="evenodd" clip-rule="evenodd" fill="#0058A5" d="M20.254,176.136l-0.795,0.314l-0.826-0.402l0.056,0.291
		c0.11,0.258,0.383,0.477,0.673,0.506c0.324,0.035,0.639-0.166,0.781-0.406L20.254,176.136L20.254,176.136z"/>
	<path fill-rule="evenodd" clip-rule="evenodd" fill="#008B3C" d="M20.208,176.175c-0.488,0.523-1.135,0.447-1.538-0.086
		c0,0-0.014-0.037-0.012-0.096c0.002-0.061,0.031-0.299,0.031-0.299c0.382,0.535,1.008,0.623,1.52,0.123
		C20.208,175.818,20.296,176.082,20.208,176.175L20.208,176.175z"/>
	<path fill-rule="evenodd" clip-rule="evenodd" fill="#FFFFFF" d="M26.146,29.74c-0.722-0.074-1.25-0.72-1.174-1.443
		c0.074-0.722,0.719-1.249,1.442-1.175c0.724,0.075,1.25,0.72,1.176,1.443C27.516,29.288,26.869,29.813,26.146,29.74L26.146,29.74z"
		/>
	<path fill-rule="evenodd" clip-rule="evenodd" fill="#0058A5" d="M27.697,28.584l-1.388,0.549l-1.438-0.7l0.097,0.506
		c0.193,0.448,0.669,0.829,1.174,0.882c0.564,0.06,1.112-0.289,1.359-0.709L27.697,28.584L27.697,28.584z"/>
	<path fill-rule="evenodd" clip-rule="evenodd" fill="#008B3C" d="M27.617,28.652c-0.853,0.914-1.98,0.781-2.681-0.146
		c0,0-0.023-0.065-0.019-0.169c0.004-0.103,0.052-0.519,0.052-0.519c0.665,0.93,1.755,1.085,2.646,0.212
		C27.614,28.03,27.77,28.488,27.617,28.652L27.617,28.652z"/>
	<path fill-rule="evenodd" clip-rule="evenodd" fill="#FFFFFF" d="M29.559,40.704c-0.673-0.068-1.163-0.671-1.095-1.344
		c0.069-0.675,0.672-1.164,1.345-1.095c0.674,0.068,1.165,0.671,1.095,1.344C30.835,40.283,30.234,40.773,29.559,40.704
		L29.559,40.704z"/>
	<path fill-rule="evenodd" clip-rule="evenodd" fill="#0058A5" d="M31.004,39.626l-1.292,0.512l-1.342-0.651l0.092,0.472
		c0.18,0.417,0.623,0.771,1.093,0.822c0.524,0.056,1.037-0.27,1.268-0.663L31.004,39.626L31.004,39.626z"/>
	<path fill-rule="evenodd" clip-rule="evenodd" fill="#008B3C" d="M30.93,39.691c-0.795,0.851-1.844,0.726-2.499-0.137
		c0,0-0.022-0.062-0.018-0.157c0.005-0.097,0.049-0.484,0.049-0.484c0.62,0.866,1.636,1.011,2.466,0.197
		C30.928,39.11,31.072,39.538,30.93,39.691L30.93,39.691z"/>
	<path fill-rule="evenodd" clip-rule="evenodd" fill="#FFFFFF" d="M29.704,35.194c-0.497-0.051-0.861-0.495-0.809-0.993
		c0.05-0.498,0.495-0.86,0.992-0.809c0.498,0.05,0.859,0.495,0.809,0.993S30.202,35.245,29.704,35.194L29.704,35.194z"/>
	<path fill-rule="evenodd" clip-rule="evenodd" fill="#0058A5" d="M30.77,34.398l-0.954,0.377l-0.99-0.481l0.066,0.349
		c0.134,0.309,0.461,0.57,0.809,0.606c0.387,0.041,0.765-0.198,0.937-0.488L30.77,34.398L30.77,34.398z"/>
	<path fill-rule="evenodd" clip-rule="evenodd" fill="#008B3C" d="M30.715,34.446c-0.586,0.629-1.362,0.537-1.845-0.101
		c0,0-0.017-0.045-0.013-0.117c0.002-0.07,0.035-0.357,0.035-0.357c0.458,0.64,1.208,0.748,1.822,0.146
		C30.714,34.017,30.82,34.332,30.715,34.446L30.715,34.446z"/>
	<path fill-rule="evenodd" clip-rule="evenodd" fill="#FFFFFF" d="M26.244,43.534c-0.497-0.051-0.861-0.496-0.809-0.993
		c0.05-0.499,0.495-0.861,0.992-0.81s0.859,0.496,0.809,0.994C27.186,43.222,26.741,43.584,26.244,43.534L26.244,43.534z"/>
	<path fill-rule="evenodd" clip-rule="evenodd" fill="#0058A5" d="M27.31,42.738l-0.954,0.378l-0.991-0.482l0.068,0.349
		c0.133,0.307,0.46,0.57,0.808,0.607c0.387,0.042,0.765-0.198,0.936-0.488L27.31,42.738L27.31,42.738z"/>
	<path fill-rule="evenodd" clip-rule="evenodd" fill="#008B3C" d="M27.255,42.785c-0.588,0.629-1.362,0.538-1.846-0.101
		c0,0-0.017-0.045-0.013-0.116c0.003-0.072,0.036-0.358,0.036-0.358c0.458,0.64,1.208,0.747,1.821,0.147
		C27.253,42.356,27.36,42.671,27.255,42.785L27.255,42.785z"/>
	<path fill-rule="evenodd" clip-rule="evenodd" fill="#FFFFFF" d="M26.1,48.951c-0.415-0.041-0.717-0.413-0.674-0.827
		c0.042-0.416,0.412-0.718,0.828-0.675c0.415,0.042,0.717,0.414,0.674,0.829C26.885,48.693,26.514,48.994,26.1,48.951L26.1,48.951z"
		/>
	<path fill-rule="evenodd" clip-rule="evenodd" fill="#0058A5" d="M26.989,48.289l-0.796,0.315l-0.826-0.402l0.056,0.29
		c0.11,0.257,0.383,0.475,0.673,0.507c0.323,0.035,0.638-0.166,0.781-0.407L26.989,48.289L26.989,48.289z"/>
	<path fill-rule="evenodd" clip-rule="evenodd" fill="#008B3C" d="M26.942,48.327c-0.488,0.525-1.135,0.448-1.538-0.084
		c0,0-0.013-0.037-0.011-0.097c0.002-0.059,0.03-0.298,0.03-0.298c0.382,0.534,1.008,0.623,1.519,0.122
		C26.942,47.97,27.031,48.234,26.942,48.327L26.942,48.327z"/>
	<path fill-rule="evenodd" clip-rule="evenodd" fill="#FFFFFF" d="M168.328,16.566c-0.984-0.1-1.7-0.979-1.599-1.962
		c0.1-0.983,0.979-1.699,1.962-1.599c0.983,0.101,1.699,0.98,1.6,1.964C170.189,15.951,169.31,16.667,168.328,16.566L168.328,16.566
		z"/>
	<path fill-rule="evenodd" clip-rule="evenodd" fill="#0058A5" d="M170.435,14.994l-1.887,0.748l-1.957-0.953l0.132,0.689
		c0.263,0.609,0.91,1.127,1.596,1.2c0.768,0.081,1.514-0.393,1.853-0.966L170.435,14.994L170.435,14.994z"/>
	<path fill-rule="evenodd" clip-rule="evenodd" fill="#008B3C" d="M170.326,15.086c-1.159,1.244-2.692,1.063-3.646-0.2
		c0,0-0.033-0.088-0.026-0.229c0.007-0.141,0.072-0.707,0.072-0.707c0.904,1.264,2.388,1.476,3.599,0.287
		C170.324,14.239,170.536,14.864,170.326,15.086L170.326,15.086z"/>
	<path fill-rule="evenodd" clip-rule="evenodd" fill="#FFFFFF" d="M164.597,20.738c-0.688-0.07-1.189-0.685-1.119-1.374
		c0.071-0.689,0.686-1.189,1.375-1.119c0.688,0.071,1.189,0.685,1.119,1.375C165.901,20.308,165.285,20.809,164.597,20.738
		L164.597,20.738z"/>
	<path fill-rule="evenodd" clip-rule="evenodd" fill="#0058A5" d="M166.073,19.637l-1.32,0.523l-1.37-0.666l0.093,0.482
		c0.185,0.425,0.637,0.788,1.117,0.839c0.536,0.057,1.059-0.274,1.295-0.676L166.073,19.637L166.073,19.637z"/>
	<path fill-rule="evenodd" clip-rule="evenodd" fill="#008B3C" d="M165.998,19.702c-0.813,0.87-1.886,0.744-2.554-0.14
		c0,0-0.022-0.062-0.019-0.161c0.004-0.097,0.051-0.495,0.051-0.495c0.633,0.886,1.671,1.034,2.519,0.202
		C165.995,19.108,166.143,19.546,165.998,19.702L165.998,19.702z"/>
	<path fill-rule="evenodd" clip-rule="evenodd" fill="#FFFFFF" d="M167.847,31.18c-0.641-0.065-1.108-0.639-1.043-1.281
		c0.065-0.642,0.639-1.108,1.281-1.043c0.642,0.066,1.108,0.639,1.044,1.281C169.064,30.778,168.491,31.245,167.847,31.18
		L167.847,31.18z"/>
	<path fill-rule="evenodd" clip-rule="evenodd" fill="#0058A5" d="M169.223,30.154l-1.23,0.487l-1.277-0.621l0.086,0.449
		c0.172,0.398,0.594,0.736,1.041,0.783c0.5,0.053,0.987-0.256,1.208-0.629L169.223,30.154L169.223,30.154z"/>
	<path fill-rule="evenodd" clip-rule="evenodd" fill="#008B3C" d="M169.153,30.214c-0.757,0.812-1.758,0.693-2.38-0.129
		c0,0-0.021-0.059-0.018-0.15s0.046-0.461,0.046-0.461c0.591,0.825,1.56,0.963,2.349,0.188
		C169.15,29.662,169.289,30.069,169.153,30.214L169.153,30.214z"/>
	<path fill-rule="evenodd" clip-rule="evenodd" fill="#FFFFFF" d="M167.985,25.933c-0.475-0.049-0.818-0.473-0.771-0.946
		c0.049-0.474,0.473-0.819,0.946-0.771c0.474,0.048,0.819,0.471,0.771,0.946C168.882,25.636,168.458,25.98,167.985,25.933
		L167.985,25.933z"/>
	<path fill-rule="evenodd" clip-rule="evenodd" fill="#0058A5" d="M169.001,25.174l-0.91,0.36l-0.943-0.458l0.064,0.331
		c0.127,0.294,0.438,0.544,0.769,0.579c0.369,0.04,0.73-0.189,0.893-0.466L169.001,25.174L169.001,25.174z"/>
	<path fill-rule="evenodd" clip-rule="evenodd" fill="#008B3C" d="M168.948,25.22c-0.559,0.599-1.297,0.512-1.758-0.096
		c0,0-0.015-0.044-0.012-0.111c0.003-0.068,0.034-0.341,0.034-0.341c0.436,0.61,1.151,0.71,1.734,0.139
		C168.947,24.811,169.049,25.112,168.948,25.22L168.948,25.22z"/>
	<path fill-rule="evenodd" clip-rule="evenodd" fill="#FFFFFF" d="M164.689,33.875c-0.474-0.048-0.818-0.472-0.771-0.946
		c0.048-0.474,0.473-0.818,0.946-0.771s0.818,0.472,0.771,0.946C165.586,33.578,165.163,33.922,164.689,33.875L164.689,33.875z"/>
	<path fill-rule="evenodd" clip-rule="evenodd" fill="#0058A5" d="M165.706,33.116l-0.91,0.36l-0.943-0.459l0.064,0.333
		c0.126,0.292,0.438,0.543,0.769,0.577c0.37,0.041,0.729-0.189,0.893-0.465L165.706,33.116L165.706,33.116z"/>
	<path fill-rule="evenodd" clip-rule="evenodd" fill="#008B3C" d="M165.652,33.161c-0.559,0.6-1.297,0.512-1.757-0.096
		c0,0-0.016-0.043-0.012-0.11c0.002-0.068,0.033-0.341,0.033-0.341c0.436,0.609,1.15,0.71,1.734,0.139
		C165.651,32.753,165.753,33.054,165.652,33.161L165.652,33.161z"/>
	<path fill-rule="evenodd" clip-rule="evenodd" fill="#FFFFFF" d="M164.552,39.035c-0.396-0.041-0.683-0.394-0.643-0.789
		c0.041-0.395,0.394-0.683,0.789-0.643c0.395,0.041,0.683,0.394,0.643,0.789C165.299,38.788,164.948,39.075,164.552,39.035
		L164.552,39.035z"/>
	<path fill-rule="evenodd" clip-rule="evenodd" fill="#0058A5" d="M165.399,38.403l-0.758,0.299l-0.786-0.382l0.053,0.277
		c0.105,0.245,0.365,0.452,0.642,0.481c0.308,0.033,0.606-0.157,0.743-0.388L165.399,38.403L165.399,38.403z"/>
	<path fill-rule="evenodd" clip-rule="evenodd" fill="#008B3C" d="M165.356,38.44c-0.468,0.501-1.082,0.428-1.467-0.079
		c0,0-0.012-0.036-0.01-0.093c0.002-0.056,0.028-0.284,0.028-0.284c0.363,0.508,0.96,0.592,1.446,0.116
		C165.354,38.1,165.439,38.35,165.356,38.44L165.356,38.44z"/>
	<path fill-rule="evenodd" clip-rule="evenodd" fill="#FFFFFF" d="M166.483,44.467c-0.277-0.028-0.479-0.275-0.45-0.552
		c0.028-0.276,0.275-0.478,0.553-0.449c0.276,0.029,0.477,0.275,0.449,0.552C167.006,44.294,166.759,44.497,166.483,44.467
		L166.483,44.467z"/>
	<path fill-rule="evenodd" clip-rule="evenodd" fill="#0058A5" d="M167.076,44.026l-0.53,0.21l-0.551-0.269l0.037,0.194
		c0.074,0.172,0.255,0.316,0.448,0.338c0.216,0.022,0.426-0.11,0.521-0.273L167.076,44.026L167.076,44.026z"/>
	<path fill-rule="evenodd" clip-rule="evenodd" fill="#008B3C" d="M167.045,44.052c-0.327,0.349-0.757,0.298-1.026-0.057
		c0,0-0.009-0.025-0.007-0.064c0.002-0.04,0.02-0.198,0.02-0.198c0.254,0.355,0.672,0.414,1.012,0.08
		C167.043,43.812,167.104,43.989,167.045,44.052L167.045,44.052z"/>
	<path fill-rule="evenodd" clip-rule="evenodd" fill="#FFFFFF" d="M161.678,132.38c-0.984-0.1-1.7-0.979-1.599-1.961
		c0.1-0.984,0.979-1.699,1.962-1.6c0.983,0.102,1.699,0.979,1.6,1.963C163.54,131.767,162.662,132.482,161.678,132.38
		L161.678,132.38z"/>
	<path fill-rule="evenodd" clip-rule="evenodd" fill="#0058A5" d="M163.786,130.808l-1.887,0.748l-1.957-0.953l0.132,0.689
		c0.262,0.609,0.91,1.127,1.597,1.201c0.767,0.08,1.513-0.393,1.851-0.969L163.786,130.808L163.786,130.808z"/>
	<path fill-rule="evenodd" clip-rule="evenodd" fill="#008B3C" d="M163.676,130.902c-1.159,1.244-2.692,1.062-3.646-0.199
		c0,0-0.033-0.09-0.027-0.23c0.007-0.141,0.072-0.707,0.072-0.707c0.904,1.266,2.389,1.477,3.6,0.289
		C163.674,130.054,163.885,130.677,163.676,130.902L163.676,130.902z"/>
	<path fill-rule="evenodd" clip-rule="evenodd" fill="#FFFFFF" d="M157.948,136.552c-0.688-0.068-1.189-0.686-1.119-1.373
		c0.07-0.689,0.685-1.189,1.374-1.119c0.688,0.07,1.189,0.686,1.119,1.373C159.251,136.123,158.636,136.623,157.948,136.552
		L157.948,136.552z"/>
	<path fill-rule="evenodd" clip-rule="evenodd" fill="#0058A5" d="M159.423,135.453l-1.321,0.521l-1.371-0.666l0.095,0.482
		c0.183,0.426,0.636,0.789,1.116,0.84c0.538,0.059,1.06-0.275,1.296-0.676L159.423,135.453L159.423,135.453z"/>
	<path fill-rule="evenodd" clip-rule="evenodd" fill="#008B3C" d="M159.347,135.517c-0.812,0.869-1.886,0.744-2.553-0.141
		c0,0-0.022-0.061-0.02-0.16c0.006-0.098,0.051-0.494,0.051-0.494c0.634,0.885,1.672,1.033,2.521,0.201
		C159.346,134.923,159.494,135.361,159.347,135.517L159.347,135.517z"/>
	<path fill-rule="evenodd" clip-rule="evenodd" fill="#FFFFFF" d="M161.198,146.996c-0.641-0.066-1.107-0.641-1.043-1.281
		c0.066-0.643,0.64-1.109,1.281-1.043c0.642,0.064,1.108,0.639,1.043,1.281C162.415,146.593,161.84,147.06,161.198,146.996
		L161.198,146.996z"/>
	<path fill-rule="evenodd" clip-rule="evenodd" fill="#0058A5" d="M162.574,145.968l-1.23,0.488l-1.277-0.621l0.086,0.449
		c0.172,0.396,0.594,0.734,1.042,0.783c0.5,0.053,0.987-0.258,1.207-0.631L162.574,145.968L162.574,145.968z"/>
	<path fill-rule="evenodd" clip-rule="evenodd" fill="#008B3C" d="M162.503,146.029c-0.757,0.812-1.758,0.693-2.38-0.129
		c0,0-0.021-0.059-0.018-0.15s0.046-0.461,0.046-0.461c0.591,0.824,1.558,0.963,2.349,0.189
		C162.5,145.478,162.638,145.884,162.503,146.029L162.503,146.029z"/>
	<path fill-rule="evenodd" clip-rule="evenodd" fill="#FFFFFF" d="M161.334,141.746c-0.473-0.047-0.817-0.471-0.77-0.943
		c0.049-0.475,0.472-0.82,0.945-0.771s0.82,0.471,0.771,0.947C162.233,141.451,161.81,141.796,161.334,141.746L161.334,141.746z"/>
	<path fill-rule="evenodd" clip-rule="evenodd" fill="#0058A5" d="M162.351,140.99l-0.909,0.359l-0.942-0.459l0.063,0.332
		c0.127,0.295,0.438,0.543,0.769,0.578c0.369,0.039,0.73-0.189,0.893-0.465L162.351,140.99L162.351,140.99z"/>
	<path fill-rule="evenodd" clip-rule="evenodd" fill="#008B3C" d="M162.299,141.035c-0.56,0.598-1.299,0.51-1.759-0.098
		c0,0-0.015-0.043-0.012-0.109c0.003-0.068,0.034-0.342,0.034-0.342c0.436,0.609,1.151,0.713,1.734,0.141
		C162.297,140.626,162.4,140.927,162.299,141.035L162.299,141.035z"/>
	<path fill-rule="evenodd" clip-rule="evenodd" fill="#FFFFFF" d="M158.039,149.689c-0.473-0.049-0.817-0.473-0.77-0.945
		c0.048-0.475,0.472-0.818,0.946-0.771c0.473,0.049,0.817,0.473,0.771,0.947C158.938,149.392,158.513,149.738,158.039,149.689
		L158.039,149.689z"/>
	<path fill-rule="evenodd" clip-rule="evenodd" fill="#0058A5" d="M159.056,148.931l-0.91,0.361l-0.943-0.459l0.063,0.33
		c0.127,0.295,0.439,0.545,0.77,0.58c0.369,0.037,0.729-0.189,0.893-0.467L159.056,148.931L159.056,148.931z"/>
	<path fill-rule="evenodd" clip-rule="evenodd" fill="#008B3C" d="M159.002,148.976c-0.559,0.6-1.297,0.512-1.758-0.096
		c0,0-0.016-0.043-0.012-0.111c0.003-0.066,0.035-0.342,0.035-0.342c0.435,0.611,1.149,0.713,1.733,0.141
		C159.001,148.568,159.104,148.869,159.002,148.976L159.002,148.976z"/>
	<path fill-rule="evenodd" clip-rule="evenodd" fill="#FFFFFF" d="M157.902,154.849c-0.395-0.039-0.683-0.393-0.643-0.787
		c0.042-0.396,0.394-0.684,0.789-0.643c0.396,0.039,0.683,0.393,0.643,0.789C158.65,154.603,158.297,154.89,157.902,154.849
		L157.902,154.849z"/>
	<path fill-rule="evenodd" clip-rule="evenodd" fill="#0058A5" d="M158.75,154.216l-0.758,0.301l-0.786-0.381l0.053,0.277
		c0.105,0.244,0.365,0.451,0.642,0.48c0.308,0.033,0.607-0.158,0.743-0.389L158.75,154.216L158.75,154.216z"/>
	<path fill-rule="evenodd" clip-rule="evenodd" fill="#008B3C" d="M158.706,154.255c-0.465,0.5-1.081,0.428-1.466-0.08
		c0,0-0.012-0.035-0.011-0.092c0.004-0.057,0.029-0.283,0.029-0.283c0.363,0.508,0.96,0.592,1.446,0.115
		C158.705,153.916,158.79,154.166,158.706,154.255L158.706,154.255z"/>
	<path fill-rule="evenodd" clip-rule="evenodd" fill="#FFFFFF" d="M159.833,160.283c-0.276-0.027-0.478-0.275-0.449-0.553
		c0.027-0.275,0.275-0.477,0.552-0.449c0.277,0.027,0.478,0.275,0.45,0.553C160.357,160.109,160.11,160.31,159.833,160.283
		L159.833,160.283z"/>
	<path fill-rule="evenodd" clip-rule="evenodd" fill="#0058A5" d="M160.426,159.841l-0.53,0.209l-0.552-0.268l0.037,0.193
		c0.075,0.172,0.256,0.316,0.449,0.338c0.216,0.023,0.425-0.111,0.521-0.271L160.426,159.841L160.426,159.841z"/>
	<path fill-rule="evenodd" clip-rule="evenodd" fill="#008B3C" d="M160.396,159.867c-0.327,0.35-0.758,0.299-1.026-0.057
		c0,0-0.009-0.025-0.008-0.064c0.003-0.039,0.02-0.199,0.02-0.199c0.256,0.357,0.673,0.416,1.013,0.082
		C160.394,159.628,160.455,159.804,160.396,159.867L160.396,159.867z"/>
	<path fill-rule="evenodd" clip-rule="evenodd" fill="#B1B1B1" d="M74.019,43.641c-0.517,0.61-0.252,1.66-1.393,1.697
		c0.305,0.99-1.312,1.102-1.021,2.105c-0.373,1.828-2.988,0.959-2.755,3.082c-0.7,0.409-1.92,0.864-1.92,1.736
		c-1.021,0.333-1.73,1.509-2.707,1.857c-0.428-0.626,0.083-0.778,0.216-1.377c-1.433-0.589,1.229-0.943,0.417-2.122
		c1.197-0.294,1.511-1.563,2.274-2.337c-1.014-0.997-1.083,1.232-2.01,1.48c-0.001,0.902-1.115,0.137-1.564,0.543
		c-0.757,0.655-1.527,1.297-1.33,2.385c-1.283,1.693-2.797,2.725-4.21,4.087c-0.14,0.437,0.382,0.64,0.573,0.945
		c-0.347,0.145-0.692,0.231-0.945,0.573c-0.117,0.274,0.111,0.434,0.278,0.62c-0.112,0.187-0.302,0.131-0.478,0.124
		c0.109,0.463-0.444,0.598-0.652,0.898c-0.186-0.113-0.131-0.303-0.138-0.465c-0.729-0.214-0.285,0.65-0.665,0.882
		c-1.361-0.851-0.974,1.163-1.765,1.597c-0.488,0.299-1.257,0.132-1.679,0.599c-0.353,0.853-0.544,1.7-0.588,2.585
		c-0.437-0.14-0.624,0.367-0.958,0.558c0.427,1.779-2.077,1.344-1.982,2.973c-0.273,0.133-0.401,0.615-0.774,0.419
		c0.053,0.712-0.748,0.479-1.128,0.711c-0.094-0.196-0.287-0.161-0.45-0.185c-0.542,1.11-1.651,0.697-2.688,1.044l-0.109-0.774
		c-1.445-0.073-2.112,1.895-2.942,2.814c-0.186-0.113-0.131-0.302-0.138-0.466c-0.684,0.364-0.72,0.737-1.378,1.222
		c0.06,1.747-2.32,1.916-3.328,2.855c-2.389,0.5-2.898,3.266-4.52,4.397c-1.085,0.137-0.821,2.667-1.844,2.75
		c-0.009,0.176-0.062,0.366,0.109,0.463c-0.778,0.197-1.272,0.616-1.75,1.301c-0.592-0.843-1.252,0.231-1.982,0.048
		c-0.527,0.196-0.273,1.035-0.974,0.881c-0.147,0.259-0.262,0.527-0.354,0.797h-3.747c0.721-0.335,0.908-1.256,1.423-1.793
		c-1.114,0.386-0.533-0.87-0.868-1.271c0.068-0.764-0.083-1.895,0.868-1.965c0.168,0.187,0.396,0.345,0.292,0.635
		c1.573-0.409,3.594-0.352,4.397-2.232l0.758,0.187c0.226-0.207,0.441-0.42,0.66-0.627c0.109-0.237,0.15-0.493,0.374-0.644
		c0.285-0.139,0.631-0.268,0.804-0.493c0.16-0.163,0.258-0.338,0.344-0.451c0.617-0.528,1.11-1.08,1.552-1.706
		c0.332-0.389,0.929-0.469,1.261-0.858c0.543-0.477,0.448-1.335,0.753-1.921c0.27-0.4,0.817-0.555,1.211-0.931
		c0.395-0.378,0.94-0.533,1.335-0.909c0.406-0.439,0.587-1.05,0.943-1.563c0.184-0.288,0.993-0.381,1.2-0.793
		c0.076-0.08,0.166-0.146,0.242-0.225l0.215-1.067c-0.177-0.01-0.366-0.062-0.465,0.138l-0.292-0.324
		c1.034-0.007,1.213-0.929,1.764-1.596l-0.309-0.031c0.841-1.745,2.058-3.323,2.566-5.219c1.074-0.211,1.295-1.368,1.936-2.06
		c0.986,0.375-0.07,1.104,0.233,1.535c-0.197,0.093-0.163,0.287-0.17,0.464c0.663-0.854,1.466,0.221,2.167-0.498
		c0.762-1.336,1.739-2.838,3.25-3.53c0.009-0.177-0.025-0.372,0.186-0.448l0.295,0.014l2.6-2.943
		c-2.789,0.526-4.732,3.353-7.275,4.554c1.077-2.915,4.846-3.818,7.198-5.946c1.352-1.026,2.806-1.75,4.118-2.851
		c-1.126,1.213-2.901,2.143-3.391,3.656c1.259-0.99,2.493-2.013,3.703-3.069c0.072-0.374,0.696-0.59,0.768-0.963
		c0.11-0.076,0.205-0.057,0.391-0.022c0.036-0.187,0.353-0.32,0.445-0.302c0.912-0.213,1.741-1.508,2.684-2.394
		c0.017-0.093,0.165-0.357,0.182-0.45c0.333-0.226,0.632-0.267,1.082-0.084c0.093,0.018,0.057,0.205,0.057,0.205
		c0.245,0.239,0.427-0.21,0.446-0.303c0.144-0.213,0.896-1.119,1.832-2.209H74.019L74.019,43.641z"/>
	<path fill-rule="evenodd" clip-rule="evenodd" fill="#B1B1B1" d="M64.787,43.641c1.695-1.978,3.99-4.567,4.336-4.75
		c0.744-0.342,1.148-0.943,1.292-1.691c0.262,0.148,0.315-0.132,0.427-0.209c0.348-0.805,1.538-1.804,1.743-1.862
		c0.445-0.302,1.745-1.7,2.172-1.91c0.111-0.075,0.356,0.165,0.467,0.089c0.446-0.302,0.458-0.881,1.09-1.148
		c0.205-0.058,0.201-0.543,0.441-0.786c0.516-0.678,1.692-1.26,2.115-1.955c0.277-0.431,0.477-0.974,0.771-1.5
		c0.148-0.262,0.499-0.583,0.738-0.828c0.147-0.262,0.125-0.653,0.347-0.805c0.205-0.058,0.543,0.2,0.748,0.143
		c0.316-0.135,0.671,0.031,0.877-0.027c0.112-0.076,0.165-0.356,0.201-0.543c0.494-1.068,0.036-2.22,0.605-3.177
		c0.258-0.339,0.797-0.624,1.072-1.055c0.387-0.507,0.513-1.162,1.033-1.353c0.521-0.19,1.19-0.847,1.278-1.313
		c0.303-0.424,0.542-0.716,0.684-0.822c1.132,0.411,0.229-1.901,1.447-2.357c0.687-0.423,0.6-0.801,0.375-1.168
		c0.171,0.408-1.395-0.149-0.644-0.376c-0.055-1.273,2.032-0.831,2.515-1.324c0.656-0.426,1.299-0.585,1.608-1.456
		c0.488,0.01,1.075-0.523,1.115-1.009c0.653-0.957,2.174-0.86,3.272-1.264c0.233-2.292,2.765-2.667,3.762-4.582l1.859-3.58
		c0.596,0.502,1.019-0.555,1.702-0.358c0.391-0.719,2.032-0.74,2.632-0.325l11.95,0.214c-0.32,0.326-0.742,0.504-1.264,0.533
		c-0.149,0.102-0.32,0.327-0.345,0.451c-0.718,0.381-1.312,0.784-1.905,1.187c-0.147,0.101-0.07,0.374-0.118,0.623
		c-0.345,0.452-0.866,0.48-1.211,0.933c-0.517,0.676-1.561,0.734-1.976,1.559c-0.243,0.599-0.137,1.394-0.504,1.971
		c-0.22,0.473-0.921,0.083-1.467,0.237c-0.272,0.077-0.367,0.575-0.516,0.676c-0.398,0.053-0.741,0.114-1.039,0.316
		c-0.792,0.385-1.53,0.789-2.042,1.3c-0.437,0.438,0.148,1.272-0.274,1.725c-0.193,0.206-1.529,0.399-1.72,0.607
		c-0.271,0.297-0.357,0.936-0.623,1.237c-0.551,0.458-1.125,0.963-1.697,1.439c-0.521,0.029-1.322,0.495-1.619,0.697
		c-0.272,0.078-0.569,0.278-0.819,0.232c-0.065,1.02-0.83,1.648-1.571,2.152c-0.023,0.125-0.048,0.25-0.072,0.374
		c-0.248-0.046-0.272,0.077-0.422,0.178c-0.865,0.48-0.408,1.472-0.8,2.171c-0.368,0.576-0.965,1.334-1.286,1.661
		c-0.765,0.628-1.711-0.165-2.453,0.339c-0.024,0.125-0.047,0.249-0.071,0.374c-0.966,0.333-1.833,0.813-2.225,1.513
		c-0.439,0.95-0.973,2.397-2.268,2.408c-0.521,0.029-0.966,0.333-1.435,0.76c-0.024,0.125-0.048,0.249-0.072,0.374
		c-0.569,0.279-0.576,1.503-1.146,1.783c-0.421,0.178-1.389-0.168-1.584,0.182c-0.594,0.403-0.972,0.687-0.863,1.482
		c0.124,0.023,0.433,0.599,0.606,0.374c-0.096,0.498-0.821,0.855-0.916,1.354c-0.45,0.537-0.54,0.504-0.836,0.878l0.061,0.012
		c-0.431,0.954-1.572,1.233-2.859,1.272l-0.744-0.2c-0.077,0.942-1.683,1.776-0.356,2.404c-0.025,0.5-0.748,1.07-0.062,1.518
		c-0.899,0.841-2.667-0.119-3.003,1.534c-0.321,0.205-0.508,0.713-0.944,0.572c0.139,0.495,0.352,0.949,0.218,1.547
		c-0.255,0.075-0.43,0.198-0.557,0.348H64.787L64.787,43.641z"/>
	<path fill-rule="evenodd" clip-rule="evenodd" fill="#B1B1B1" d="M0,109.515c0.336,0.055,0.854-0.09,1.211,0.201
		c-0.024-0.4,0.283-0.65,0.186-1.07l-0.294-0.014c0.117-0.275-0.126-0.449-0.279-0.619c0.071-0.854,1.955-1.262,0.882-2.262
		c-0.177-0.008-0.367-0.062-0.466,0.141c-1.123-1.182,0.279-1.746,0.759-2.74c0.306,0.369,0.762,0.688,0.543,1.254
		c0.726-0.307,1.632-0.564,2.353-1.029l0.321-1.721c0.487,0.01,1.806-0.365,1.861-0.865l0.03-0.309l0.59,0.029
		c0.522-1.008,1.394-2.752,2.924-2.926c0.208-0.299,0.76-0.434,0.665-0.883c-0.37-0.283-0.97-0.107-1.207-0.682
		c0.222-0.486,0.578-0.467,0.931-0.381c0.139,0.027,0.28,0.068,0.413,0.102c0.352,0.07,0.638,0.016,0.7-0.695
		c0.846-0.682,0.408-1.383,0.881-2.261c-0.374-0.476,0.092-1.236,0.68-1.176c0.176,0.04,0.407-0.025,0.58,0.033
		c0.112,0.013,0.21,0.053,0.271,0.173l-0.026,0.269c0.54-0.099,0.604-0.879,1.188-1.143c0.032,0.009,0.06,0.013,0.092,0.021
		c0.093,0.027,0.178,0.045,0.263,0.062c1.652,0.272,2.002-1.373,3.562-1.571c-0.118-0.876,1.094-0.314,0.99-1.176
		c0.261,0.103,0.434-0.112,0.621-0.279l0.013-0.261c-0.063,0.007-0.115,0.004-0.153-0.013c-0.343-0.006-0.207-0.502-0.434-0.67
		c0.139-0.021,0.261-0.059,0.372-0.11h3.747c-0.062,0.187-0.113,0.375-0.156,0.563l0.087,0.016c-0.205,0.896-0.213,1.803-0.29,2.579
		l-0.31-0.001v-0.02h-0.093l0.017-0.325c-0.109-0.049-0.211-0.069-0.312-0.085c-0.869-0.064-1.451,0.997-1.824,1.53
		c-0.386,1.192-2.114,1.18-1.968,2.678c-0.985,1.088-1.912,0.252-2.798,1.139c-0.163,0.287-0.366,0.529-0.34,0.9
		c-0.271,0.074-0.768,0.58-0.836,1.035c-0.971,0.496-1.949,1.416-2.887,1.521c0.06,0.014,0.14,0.031,0.239,0.053
		c-0.975,0.195-2.081,0.594-2.515,1.707c-0.479,0.434-1.712,0.225-1.44,1.301c0.248,0.367,0.512,0.553,0.788,0.629
		c0.62,0.117,1.303-0.258,2.016-0.34l0.497-0.447c0.017,0.025,0.014,0.057,0.017,0.086l0.073-0.066
		c0.219,0.336-0.868,0.814-0.076,1.223c-0.298,0.354-0.15,0.92-0.217,1.375c0.678,0.152,1.166-0.229,1.627-0.701
		c0.103-0.289-0.125-0.447-0.264-0.633c0.169-0.154,0.329-0.381,0.619-0.279c0.032-0.338-0.037-0.725,0.34-0.898
		c0.434-0.082,1.004,0.303,1.253-0.232c0.025,0.02,0.05,0.029,0.075,0.045c0.005-0.01,0.012-0.016,0.017-0.023
		c0.092,0.066,0.185,0.109,0.28,0.137c0.363,0.072,0.718-0.053,0.935,0.027c0.234,0.029,0.362,0.193,0.272,0.826
		c-0.472,0.848-0.938,0.145-1.579,0.527c-0.408,1.07-1.682,2.307-0.633,3.498c-0.184,0.404-0.414,0.393-0.646,0.322
		c-0.112-0.023-0.222-0.064-0.333-0.098c-0.09-0.018-0.18-0.02-0.261,0.023c-0.008-0.014-0.012-0.027-0.018-0.039
		c-0.024,0.006-0.049,0.006-0.073,0.018c-0.236-0.379-0.026-0.906-0.482-1.209c-0.195,0.182-0.35,0.217-0.487,0.182
		c-0.312-0.002-0.518-0.416-0.856-0.561c-0.042-0.014-0.081-0.029-0.127-0.031c-0.031-0.006-0.059-0.02-0.092-0.02l0.001-0.295
		c-1.77-0.252-2.378,1.389-3.531,2.127c-0.01-0.023-1.147-0.254-1.158-0.275c-0.02,0.012-0.037,0.029-0.055,0.041
		c-0.097-0.254-0.27-0.395-0.473-0.463c-0.328-0.074-0.708,0.008-0.969,0.098c-1.194,1.137-1.753,2.57-2.646,3.855
		c0.588,0.059,0.893,0.77,1.317,1.145c-0.127,1.354-1.639,2.326-2.445,3.084c-0.891,0.102-0.964-1.969-1.517-0.373
		c-0.345,0.959,1.069,1.34,1.594,2.074c0.73,0.467-1.443,1.352-0.37,1.449c0.855-0.857,1.545,1.305,1.999-0.062l0.929-0.248
		c-0.437,1.012-1.074,2.236-2.29,2.633c-0.141,0.215-0.295,0.436-0.453,0.645c-0.249-0.049-0.627,0.146-0.777,0.248
		c-0.296,0.201-0.268,0.725-0.415,0.824c-0.292,0.199-0.484,0.539-0.749,0.625V109.515L0,109.515z"/>
	<path fill-rule="evenodd" clip-rule="evenodd" fill="#B1B1B1" d="M0.147,150.964c0.258-0.336,0.026-1.156,0.284-1.492
		c1.708-0.838,1.759-2.5,2.115-4.367c0.036-0.188,0.33-0.713,0.588-1.051c-0.526-0.295-0.632,0.268-1.042,0.383
		c-0.195-1.006,1.106-0.963,1.513-1.844c0.082-0.176,0.456-0.105,0.688-0.152l0.398-2.004c0.499,0.547,1.035-0.039,1.559-0.127
		c0.404-0.756,0.655-0.92,0.955-1.771c-0.894-0.352-1.115,1.117-2.027,0.773l-0.113,0.289c-1.529-0.848-1.029,1.107-1.918,1.646
		l-0.565-0.252c-0.516,0.285-1.454,0.369-1.54,0.82c-0.045,0.232,0.004,0.484-0.162,0.598c-0.287,0.236-0.543-0.201-0.648-0.412
		c-0.076-0.113,0.059-0.252,0.085-0.391c-0.151-0.457-0.335-0.77,0.076-1.217l0.834,0.375c0.058-1.139,1.416-1.031,0.725-2.377
		L0.147,150.964L0.147,150.964z"/>
	<path fill-rule="evenodd" clip-rule="evenodd" fill="#B1B1B1" d="M185.888,73.194c-1.022,0.333-1.731,1.509-2.709,1.859
		c-0.427-0.628,0.083-0.78,0.217-1.379c-1.434-0.588,1.229-0.941,0.417-2.121c1.196-0.294,1.512-1.564,2.274-2.339
		c-1.014-0.995-1.082,1.233-2.011,1.482c-0.001,0.9-1.115,0.135-1.563,0.542c-0.757,0.657-1.528,1.297-1.331,2.386
		c-1.281,1.693-2.797,2.726-4.21,4.087c-0.14,0.436,0.382,0.64,0.573,0.944c-0.347,0.146-0.69,0.232-0.944,0.573
		c-0.117,0.276,0.11,0.434,0.279,0.621c-0.113,0.186-0.302,0.133-0.479,0.124c0.109,0.463-0.443,0.599-0.65,0.898
		c-0.187-0.113-0.133-0.302-0.14-0.465c-0.728-0.214-0.283,0.651-0.665,0.883c-1.361-0.852-0.974,1.163-1.765,1.595
		c-0.488,0.301-1.256,0.133-1.679,0.599c-0.353,0.854-0.543,1.702-0.588,2.585c-0.436-0.139-0.624,0.369-0.958,0.558
		c0.427,1.78-2.077,1.344-1.98,2.974c-0.273,0.134-0.401,0.616-0.776,0.419c0.054,0.711-0.748,0.48-1.128,0.711
		c-0.093-0.197-0.288-0.163-0.449-0.185c-0.544,1.11-1.651,0.696-2.688,1.043l-0.109-0.774c-1.443-0.072-2.111,1.896-2.941,2.813
		c-0.187-0.111-0.132-0.301-0.139-0.463c-0.682,0.364-0.718,0.737-1.378,1.221c0.06,1.746-2.32,1.914-3.327,2.854
		c-2.389,0.502-2.896,3.268-4.52,4.396c-1.086,0.139-0.821,2.67-1.845,2.752c-0.008,0.176-0.062,0.365,0.11,0.461
		c-0.778,0.199-1.271,0.617-1.75,1.303c-0.593-0.842-1.253,0.232-1.982,0.047c-0.526,0.197-0.273,1.035-0.975,0.883
		c-0.147,0.26-0.262,0.525-0.353,0.797h-3.746c0.719-0.336,0.908-1.256,1.422-1.795c-1.112,0.389-0.532-0.869-0.867-1.27
		c0.068-0.764-0.081-1.895,0.867-1.965c0.168,0.186,0.396,0.344,0.293,0.635c1.572-0.408,3.593-0.352,4.397-2.232l0.758,0.186
		c0.225-0.205,0.44-0.418,0.66-0.625c0.11-0.236,0.151-0.494,0.373-0.645c0.285-0.139,0.633-0.266,0.804-0.492
		c0.161-0.164,0.259-0.338,0.345-0.451c0.617-0.527,1.11-1.08,1.552-1.705c0.333-0.391,0.929-0.469,1.262-0.857
		c0.542-0.479,0.447-1.336,0.754-1.924c0.271-0.398,0.815-0.555,1.209-0.93c0.396-0.377,0.941-0.531,1.336-0.908
		c0.407-0.439,0.588-1.05,0.943-1.563c0.186-0.287,0.994-0.382,1.201-0.794c0.075-0.079,0.165-0.145,0.241-0.223l0.215-1.069
		c-0.176-0.008-0.365-0.062-0.464,0.14l-0.294-0.326c1.034-0.007,1.214-0.929,1.765-1.595l-0.309-0.029
		c0.841-1.746,2.058-3.325,2.566-5.219c1.075-0.213,1.296-1.368,1.936-2.06c0.985,0.374-0.07,1.104,0.233,1.532
		c-0.197,0.093-0.163,0.288-0.171,0.465c0.662-0.853,1.467,0.222,2.168-0.497c0.761-1.336,1.737-2.838,3.249-3.531
		c0.009-0.176-0.025-0.37,0.186-0.448l0.294,0.015l2.602-2.942c-2.79,0.524-4.734,3.352-7.276,4.555
		c1.077-2.915,4.846-3.82,7.197-5.947c1.353-1.024,2.807-1.75,4.118-2.852c-1.125,1.215-2.9,2.145-3.39,3.656
		c1.26-0.99,2.494-2.012,3.702-3.069c0.072-0.375,0.697-0.588,0.768-0.962c0.111-0.076,0.205-0.059,0.393-0.022
		c0.035-0.187,0.352-0.321,0.444-0.302c0.913-0.215,1.74-1.509,2.684-2.394c0.018-0.094,0.165-0.356,0.183-0.45
		c0.334-0.227,0.632-0.267,1.082-0.084c0.093,0.019,0.058,0.205,0.058,0.205c0.244,0.241,0.428-0.209,0.445-0.302L185.888,73.194
		L185.888,73.194z"/>
	<path fill-rule="evenodd" clip-rule="evenodd" fill="#B1B1B1" d="M97.96,147.707c0.883-1.049,2.367-1.631,3.077-2.994l3.328-2.137
		c0.596,0.502,1.018-0.555,1.702-0.357c0.39-0.719,0.103-1.754,0.881-2.262c0.208,0.572,0.815,0.248,1.209,0.371l0.17-0.154
		c0.358,0.492-0.228,1.305,0.371,1.719l2.54-1.734l0.199-0.744c-0.569,0.18-1.154,0.652-1.688,0.064
		c-0.216-0.707-0.729-2.24-0.016-2.912c1.035,0.555,0.997-0.732,1.904-1.129c1.703-0.389,1.997-2.988,3.808-2.572
		c1.637-0.523,2.103-2.436,3.22-3.221c-0.29,1.359,0.862,0.486,1.501,1.004c-0.024-0.398,0.283-0.65,0.187-1.068l-0.294-0.016
		c0.117-0.273-0.125-0.447-0.28-0.619c0.072-0.854,1.955-1.26,0.883-2.26c-0.178-0.01-0.366-0.062-0.466,0.139
		c-1.122-1.178,0.28-1.744,0.758-2.74c0.308,0.371,0.764,0.689,0.543,1.254c0.727-0.305,1.633-0.562,2.354-1.027l0.32-1.721
		c0.487,0.01,1.808-0.365,1.862-0.865l0.03-0.309l0.589,0.029c0.524-1.01,1.395-2.752,2.925-2.926
		c0.208-0.301,0.762-0.436,0.666-0.883c-0.371-0.283-0.971-0.109-1.207-0.682c0.222-0.488,0.577-0.467,0.931-0.381
		c0.141,0.027,0.279,0.07,0.414,0.102c0.351,0.07,0.638,0.014,0.699-0.697c0.846-0.68,0.408-1.383,0.882-2.26
		c-0.375-0.477,0.091-1.236,0.68-1.178c0.174,0.041,0.405-0.023,0.578,0.033c0.112,0.014,0.21,0.055,0.271,0.174l-0.026,0.27
		c0.539-0.098,0.604-0.879,1.189-1.143c0.032,0.01,0.061,0.014,0.09,0.021l0.002-0.002c0.092,0.029,0.177,0.045,0.263,0.062
		c1.652,0.273,2.002-1.371,3.562-1.568c-0.119-0.879,1.095-0.314,0.989-1.178c0.262,0.102,0.435-0.111,0.62-0.279l0.014-0.262
		c-0.062,0.008-0.113,0.004-0.153-0.012c-0.341-0.006-0.206-0.502-0.434-0.672c0.139-0.02,0.263-0.057,0.373-0.109h3.746
		c-0.062,0.188-0.114,0.375-0.157,0.562l0.088,0.018c-0.205,0.895-0.213,1.801-0.29,2.578h-0.31v-0.021h-0.092l0.016-0.326
		c-0.109-0.049-0.211-0.066-0.312-0.084c-0.869-0.064-1.449,0.996-1.824,1.531c-0.384,1.191-2.113,1.18-1.966,2.678
		c-0.986,1.088-1.913,0.252-2.8,1.139c-0.162,0.287-0.366,0.529-0.341,0.9c-0.269,0.074-0.768,0.58-0.836,1.037
		c-0.971,0.494-1.948,1.414-2.886,1.518c0.059,0.016,0.139,0.033,0.238,0.053c-0.975,0.197-2.08,0.596-2.516,1.709
		c-0.479,0.434-1.71,0.225-1.438,1.303c0.248,0.367,0.512,0.549,0.788,0.625c0.62,0.121,1.301-0.256,2.015-0.338l0.495-0.449
		c0.018,0.027,0.017,0.059,0.018,0.088l0.075-0.066c0.218,0.336-0.869,0.812-0.077,1.223c-0.298,0.352-0.15,0.92-0.217,1.375
		c0.678,0.152,1.165-0.23,1.627-0.701c0.104-0.289-0.125-0.449-0.264-0.633c0.171-0.154,0.33-0.383,0.62-0.279
		c0.03-0.338-0.037-0.727,0.341-0.898c0.432-0.082,1.003,0.301,1.252-0.232c0.025,0.018,0.05,0.029,0.075,0.045
		c0.005-0.01,0.011-0.014,0.017-0.025c0.092,0.068,0.187,0.111,0.28,0.141c0.362,0.072,0.718-0.055,0.935,0.025
		c0.233,0.029,0.361,0.191,0.271,0.826c-0.472,0.848-0.938,0.145-1.577,0.525c-0.408,1.074-1.683,2.309-0.635,3.498
		c-0.184,0.406-0.414,0.395-0.646,0.324c-0.11-0.023-0.222-0.064-0.332-0.098c-0.091-0.018-0.179-0.021-0.261,0.023
		c-0.008-0.014-0.011-0.027-0.018-0.041c-0.025,0.008-0.051,0.008-0.074,0.02c-0.234-0.379-0.025-0.908-0.482-1.209
		c-0.195,0.182-0.35,0.217-0.486,0.18c-0.312,0-0.52-0.414-0.856-0.561c-0.042-0.012-0.081-0.027-0.128-0.029
		c-0.03-0.006-0.059-0.02-0.092-0.02l0.001-0.295c-1.768-0.252-2.377,1.389-3.531,2.127c-0.009-0.025-1.146-0.256-1.156-0.277
		c-0.02,0.014-0.037,0.031-0.057,0.045c-0.097-0.258-0.271-0.398-0.473-0.465c-0.327-0.074-0.708,0.008-0.969,0.096
		c-1.193,1.139-1.753,2.572-2.645,3.857c0.588,0.059,0.892,0.768,1.315,1.145c-0.127,1.354-1.638,2.326-2.445,3.082
		c-0.89,0.104-0.965-1.969-1.517-0.371c-0.345,0.959,1.07,1.338,1.594,2.076c0.73,0.465-1.441,1.348-0.37,1.445
		c0.857-0.857,1.545,1.305,1.999-0.061l0.929-0.248c-0.436,1.012-1.073,2.234-2.29,2.633c-0.141,0.215-0.295,0.436-0.452,0.643
		c-0.249-0.049-0.628,0.148-0.776,0.25c-0.298,0.201-0.267,0.723-0.416,0.824c-0.297,0.201-0.492,0.551-0.765,0.629
		c-0.249-0.047-0.523,0.029-0.796,0.107c-0.022,0.123-0.071,0.373-0.071,0.373c-0.546,0.154-0.641,0.652-0.86,1.127
		c0,0-0.125-0.023-0.249-0.047c-0.048,0.248-0.32,0.326-0.345,0.451c-0.047,0.248,0.03,0.521-0.142,0.748
		c-0.618,0.527-0.885,1.252-1.228,1.703c-0.102,0.102-0.205,0.203-0.309,0.301H97.96L97.96,147.707z"/>
	<path fill-rule="evenodd" clip-rule="evenodd" fill="#B1B1B1" d="M114.942,147.707c-0.555,0.521-1.141,0.982-1.706,1.482
		c-0.664,0.469-1.288,1.07-1.834,1.674c-0.889,0.592-1.962,1.178-2.508,1.885c-0.377,0.49-0.481,0.418-0.904,0.869
		c-0.194,0.207-1.529,0.398-1.72,0.607c-0.271,0.297-0.357,0.938-0.623,1.236c-3.303,2.082-4.921,4.168-6.548,6.24l-0.101,0.012
		c-0.134,0.121-0.37,0.309-0.6,0.541c-0.396,0.055-1.124,0.189-1.297,0.416c-0.463,1.074-1.857,0.938-2.373,1.613
		c-0.321,0.326-0.314,0.973-0.409,1.473c-0.023,0.123,0.101,0.146,0.226,0.172c-0.065,1.02-0.458,1.719-1.425,2.053l-0.047,0.248
		c-0.148,0.102-0.35-0.195-0.523,0.031c-1.281,1.305-2.438,2.633-4.022,3.494c-0.297,0.201-0.772-0.018-1.27-0.113
		c-0.25-0.049-0.422,0.178-0.57,0.279c-0.048,0.248,0.029,0.521-0.142,0.748c-0.89,0.604-1.532,1.256-2.321,2.01
		c-0.32,0.326-0.144,0.748-0.315,0.973c-0.273,0.076-0.545,0.154-0.795,0.107c-0.119,0.623-0.782,0.924-1.327,1.078
		c-0.655,0.473-1.297,0.994-1.989,1.471c-1.08-0.561,0.005-0.162-1.3,0.412c-0.76,0.545-1.377,1.982-2.27,1.652
		c-0.108-0.539,0.186-1.355-0.609-1.072c-0.146,1.674-1.844,1.805-2.41,2.441c-0.732,0.547-0.215,3.357-0.666,4.496
		c-0.376-0.018-0.859,0.379-1.119,0.852H57.462c-3.078-0.271-5.564-0.465-5.979-0.285l-0.28-0.586
		c1.141-1.15,2.253-2.322,3.213-3.598c0.545-0.461,1.087-0.945,1.623-1.447c1.202-1.125,1.111-0.328,2.262-1.605
		c0.509-0.566,0.048-1.672,0.547-2.258c0.227-0.266,3.553-2.252,3.778-2.521c0.321-0.387,2.187-2.58,2.503-2.971
		c4.16-2.688,5.129,2.297,7.915-3.854c0.118-0.262,0.24-0.541-0.362-0.4c0,0-1.613-1.957,1.162-2.385
		c3.707-0.574,8.867-6.742,10.042-8.221c0.515-0.416,2.186,0.021,3.406-0.436c0.685-0.424,1.125-1.523,2.043-1.285
		c0.171,0.408-0.781,0.314-0.031,0.086c-0.054-1.273,1.607-1.396,2.09-1.891c0.656-0.424,1.3-0.584,1.608-1.455
		c0.488,0.01,1.077-0.521,1.115-1.006c0.654-0.959,2.059-1.271,3.158-1.674c0.066-0.662,0.325-1.164,0.684-1.59H114.942
		L114.942,147.707z"/>
	<path fill-rule="evenodd" clip-rule="evenodd" fill="#B1B1B1" d="M100.718,186.673c0.632-0.266,2.291,0.561,2.771,0.07
		c0.738-0.828,1.727-2.965,2.137-3.08c1.078-0.57,1.853-1.584,2.929-2.154c1.041-0.383,3.471-3.986,4.326-4.404
		c0.854-0.42,1.646,0.508,2.466,0.275c0.443-0.301,1.085-3.666,1.566-4.156c0.48-0.49,1.485-0.686,2.189-1.324
		c0.258-0.34,0.026-1.158,0.285-1.496c1.709-0.838,1.76-2.498,2.115-4.367c0.036-0.188,0.329-0.711,0.588-1.049
		c-0.525-0.295-0.632,0.266-1.042,0.381c-0.195-1.006,1.106-0.961,1.514-1.842c0.083-0.178,0.455-0.107,0.689-0.154l0.396-2.004
		c0.499,0.547,1.036-0.037,1.56-0.125c0.404-0.758,0.654-0.92,0.955-1.771c-0.893-0.352-1.115,1.117-2.027,0.773l-0.113,0.289
		c-1.529-0.846-1.029,1.105-1.918,1.646l-0.565-0.254c-0.517,0.285-1.453,0.369-1.54,0.82c-0.044,0.234,0.004,0.486-0.162,0.6
		c-0.287,0.234-0.543-0.201-0.648-0.414c-0.074-0.111,0.059-0.25,0.086-0.391c-0.152-0.455-0.334-0.768,0.075-1.215l0.836,0.373
		c0.057-1.137,1.416-1.029,0.724-2.375c-1.491-0.281-1.969,2.627-3.077,0.48c-0.197,0.01-0.235,0.203-0.308,0.363l-2.428-2.088
		c-0.852,1.217-1.521,2.531-2.942,3.139c-0.632,0.268-1.286,0.658-1.544,0.996c-0.481,0.49-0.437,1.273-1.068,1.541
		c0.186,0.035,0.56,0.107,0.56,0.107c0.116,0.41-2.332,1.438-2.555,1.588c-1.334,0.908-2.351,1.156-3.197,2.545
		c-0.034,0.188-1.04,0.383-1.45,0.498c-1.334,0.906-0.347,2.84-0.97,4.076c-0.552,0.863-2.341,1.104-3.268,1.895
		c-0.926,0.793-1.36,2.066-2.137,3.08c-0.516,0.676-1.593,1.246-2.482,1.852c-0.258,0.338-0.214,1.121-0.695,1.611l-0.374-0.072
		c-0.294,0.525,0.125,1.379-0.507,1.646c-1.042,0.383-2.431-0.463-3.169,0.365c-0.89,0.605,2.119,2.727,1.719,3.812L100.718,186.673
		L100.718,186.673z"/>
	<path fill-rule="evenodd" clip-rule="evenodd" fill="#FFFFFF" d="M161.655,60.389c-1.652-1.882-1.339-4.599,0.461-6.178
		c1.775-1.564,4.514-1.508,6.16,0.359c1.659,1.9,1.347,4.612-0.427,6.178C166.053,62.321,163.309,62.28,161.655,60.389
		L161.655,60.389z M167.373,60.207c1.477-1.301,1.625-3.483,0.245-5.057c-1.354-1.543-3.545-1.685-5.029-0.397
		c-1.495,1.314-1.644,3.51-0.275,5.053C163.691,61.381,165.87,61.521,167.373,60.207L167.373,60.207z M165.942,59.97l-0.571,0.507
		l-3.304-3.776l1.439-1.252c0.888-0.779,1.615-0.843,2.269-0.101c0.588,0.673,0.419,1.347-0.066,1.892l2.529,0.727l-0.646,0.564
		l-2.422-0.767l-0.659,0.575L165.942,59.97L165.942,59.97z M164.766,57.253c0.484-0.423,0.886-0.835,0.381-1.414
		c-0.421-0.467-0.907-0.18-1.312,0.17l-0.775,0.679l1.021,1.166L164.766,57.253L164.766,57.253z"/>
</g>
</svg>
