<?xml version="1.0" encoding="utf-8"?>
<!-- Generator: Adobe Illustrator 16.0.0, SVG Export Plug-In . SVG Version: 6.00 Build 0)  -->
<!DOCTYPE svg PUBLIC "-//W3C//DTD SVG 1.1//EN" "http://www.w3.org/Graphics/SVG/1.1/DTD/svg11.dtd">
<svg version="1.1" id="Layer_1" xmlns="http://www.w3.org/2000/svg" xmlns:xlink="http://www.w3.org/1999/xlink" x="0px" y="0px"
	 width="195.999px" height="197.005px" viewBox="0 0 195.999 197.005" enable-background="new 0 0 195.999 197.005"
	 xml:space="preserve">
<g id="g4387">
	<path id="path3040" fill="#FFFFFF" d="M195.999,98.502c0,54.401-43.876,98.503-98,98.503s-98-44.1-98-98.503
		C0,44.101,43.876,0,98,0S195.999,44.101,195.999,98.502z"/>
	<g id="g4381">
		<path id="inner_artwork" inkscape:connector-curvature="0" fill="#007042" d="M97.181,35.02c3.45,1.988,7.11,4.548,9.895,7.259
			l-1.094,1.101c-5.497-0.585-11.287,0.145-16.498,0.226c-0.581-0.587-1.752-1.469-0.662-2.205L97.181,35.02L97.181,35.02z
			 M194.38,103.304c0.073,2.48,0.307,4.611-0.661,7.15c-10.043,2.857-16.639-7.775-26.384-6.172l1.102,5.512
			c9.015,0.296,14.646,8.94,23.96,8.568c-1.324,2.644,0.59,9.605-5.272,6.822c-6.085-1.463-10.484-6.822-17.151-6.822
			c-0.805,1.478-0.296,3.522-0.438,5.27c7.035,1.104,12.094,7.049,19.126,8.146c-0.661,2.418-1.317,5.123-3.298,6.598
			c-5.721-1.393-10.189-6.531-16.279-6.383l-1.086,5.061c5.789,0.148,9.528,5.27,14.73,6.807c0.143,2.135-1.766,4.043-2.864,5.947
			c-4.618-1.387-8.14-5.354-13.416-5.062c-0.073-1.987,1.106-4.245,0.661-6.37c-5.926,1.762-9.899-3.744-14.291-7.047
			c-0.127-10.809-11.506-17.9-12.107-28.025c-0.115-2.02,0.193-4.174,1.113-6.489c3.74-8.648,2.564-19.875-1.536-27.937
			c-1.246-2.121-3.454-3.797-5.512-5.044c3.011,6.38,6.679,13.918,4.848,21.76c-0.212,6.056-3.784,11.872-3.825,17.71
			c-0.014,2.08,0.43,4.163,1.627,6.264c4.768,8.588,13.345,16.715,10.119,27.484c-0.887,3.308-3.527,5.865-4.186,9.23
			c5.577,4.62,10.852,9.826,18.251,10.118c2.637-1.683,1.173-9.153,6.597-5.708l7.921,3.963c-0.577,2.119-2.353,4.021-3.96,5.479
			c-3.006-1.462-5.937-3.216-9.684-3.073c-1.105,1.173-2.056,2.489-1.972,4.171c2.637,0.435,5.056,1.547,7.259,3.089
			c-1.023,2.203-3.016,3.582-4.849,5.27l-6.144-2.197c-1.025,1.469-3.157,3.011-2.408,4.621c1.385,0.596,2.924,1.396,3.943,2.426
			c-2.712,2.931-6.148,4.817-9.456,6.807c-2.85-9.312-12.236-15.842-11.431-26.609l-0.437-0.436
			c-2.206,2.48-1.469,6.447-1.327,9.668c2.641,6.744,8.94,11.955,9.896,19.35c-1.104,1.904-3.59,2.283-5.498,3.09
			c0.221-13.336-20.006-23.45-7.035-36.939c4.326-6.605,11.575-12.908,9.006-22.004c-2.637-8.779-11.963-14.219-11.881-24.062
			l0.016-0.768c2.123-10.265,8.576-21.188,3.298-32.106c-1.472-4.393-4.759-9.383-9.229-11.22c6.666,7.63,9.309,20.079,5.495,30.346
			c-1.922,4.084-4.567,8.949-4.833,13.75h-0.017c-0.142,2.507,0.37,5,1.988,7.363c5.062,8.213,13.852,17.234,8.795,27.936
			c-5.716,8.572-15.685,17.293-10.117,28.582c4.03,6.744,10.267,13.473,8.584,21.762l-6.597,2.196
			c4.398-15.46-17.154-24.546-8.132-40.013c5.57-8.281,15.532-16.053,9.894-27.045c-3.372-6.811-10.338-10.842-10.118-19.354
			l0.239-1.429c2.271-12.071,11.446-23.497,5.031-36.397c-1.688-3.808-5.057-7.691-8.797-9.893l-0.225,0.226
			c7.479,7.257,9.755,19.195,5.723,28.792c-1.882,5.632-6.012,11.24-6.852,17.274c-0.399,2.845-0.062,5.794,1.582,8.899
			c4.764,7.544,13.117,15.545,7.904,25.299c-5.49,8.055-14.654,15.893-10.994,26.368c4.032,9.165,12.452,17.897,7.906,29.261
			l-6.808,1.537c5.423-11.075-2.708-22.064-7.47-31.669c-5.794-13.781,12.447-20.38,12.74-32.979
			c-0.07-8.131-8.715-12.748-10.542-20.225c-3.741-3.156-7.62,1.256-12.093,0.438c-3.303,0.662-8.375-4.547-10.346,1.1
			c-2.348,8.278-13.042,14.364-8.342,24.184c4.473,8.725,15.236,15.105,11.641,26.397c-3.219,10.548-13.854,20.59-7.259,32.755
			c-2.709-0.878-7.769,0.803-7.696-3.525c-4.176-14.731,13.633-23.314,8.132-38.038c-2.56-9.019-14.222-14.001-11.654-24.849
			c1.898-8.93,11.917-15.172,10.512-24.953c-0.114-0.818-0.316-1.657-0.604-2.531c-3.74-10.553-11.37-21.11-6.822-33.429
			c1.249-3.519,3.743-6.523,5.934-9.668c-7.256,3.884-10.917,12.095-10.767,20.448c-0.316,9.085,6.395,16.867,7.349,25.18
			c0.376,3.355-0.173,6.791-2.516,10.436c-4.76,6.459-10.986,13.271-8.132,21.775c2.714,8.58,13.415,13.777,12.755,23.75
			c-0.073,11.795-13.779,19.139-9.895,32.331l-6.822-2.212c-2.709-11.724,9.749-17.722,9.892-28.567
			c1.763-12.474-14.146-17.102-13.19-29.261c-0.069-9.238,8.063-15.09,11.654-22.859c0.617-1.892,0.821-3.678,0.739-5.392
			c-0.44-8.592-8.182-15.309-6.897-24.969c0.432-7.109,2.851-13.341,7.47-18.688c-6.373,2.561-9.006,9.897-10.767,16.055
			c-3.056,9.874,4.238,18.755,4.969,27.603c0.324,3.906-0.63,7.791-4.306,11.762c-5.281,6.223-10.636,14.073-6.823,22.438
			c4.037,9.227,16.72,16.41,11.219,27.918c-3.001,7.258-10.188,12.752-9.893,21.325c-1.904-0.807-3.88-1.611-5.498-3.073
			c0-10.919,15.533-17.738,8.132-29.246c-0.656,2.271-0.796,5.357-1.31,7.922c-2.568,6.672-8.063,12.014-10.12,18.913
			c-3.438-1.327-7.034-4.116-9.894-7.048l3.962-2.424c-0.44-1.47-1.611-2.714-2.635-3.959c-2.573-0.362-4.262,1.326-6.383,1.987
			c-1.833-1.616-3.601-3.082-5.062-5.062c1.315-3.746,11.591-0.648,6.386-6.806c-3.515-2.198-7.042,0.94-10.12,2.406l-4.172-5.27
			c3.592-2.196,7.174-5.282,11.641-4.397c1.101,1.982,1.177,4.898,3.298,5.933c7.551-0.147,12.901-5.857,18.689-10.33
			c-4.034-6.003-7.318-14.291-3.734-21.55c2.872-7.275,10.353-13.402,10.693-21.444c0.076-1.831-0.209-3.756-1.01-5.828
			c-3.956-10.189-5.352-23.962,2.199-32.98c-4.106,1.103-6.526,6.22-7.921,10.105c-4.539,9.949,1.202,19.167,1.4,28.702
			c0.027,1.716-0.112,3.435-0.527,5.166c-3.886,7.842-10.183,14.723-11.205,23.746c-4.473,2.854-8.145,7.843-14.517,6.16
			c-0.224,1.683,0.29,4.25,0.874,6.157c-5.053-0.212-8.499,3.513-12.754,5.272c-2.267-0.729-2.857-3.658-3.734-5.709
			c4.98-1.682,8.573-6.675,14.292-6.596c0.663-1.841-0.372-3.529-0.664-5.285c-7.113-3.158-18.389,15.606-19.336-0.662
			c7.107-0.439,11.65-7.038,18.689-7.695l0.21-5.27c-7.989-0.809-13.128,7.406-21.114,6.596l-1.761-7.032
			c9.237,0.576,14.741-7.702,23.539-8.147c1.169-1.537,1.31-3.809,1.535-5.933c-9.603-1.251-16.192,9.391-26.384,6.159
			c0,0-0.351-4.43-0.542-6.927h0.014c-0.069-0.976-0.135-1.657-0.135-1.657c9.088,3.526,17.073-3.001,24.848-6.37
			c1.978-0.592,5.061,0.434,5.948-1.763c-0.078-1.687,2.998-3.657,0.438-4.834c-11.366-1.543-18.917,12.167-30.572,5.933
			L0.869,92.85c2.425-33.126,21.107-65.151,52.107-80.911C65.532,4.764,81.13,1.106,96.861,0.977
			c18.984-0.158,38.167,4.822,52.438,14.923c13.857,8.501,27.111,22.509,34.306,36.729c6.88,12.46,10.047,26.44,10.993,41.324
			c-12.023,9.085-20.09-8.559-32.334-4.609c0.66,1.909,1.025,3.885,2.424,5.496c10.852-0.076,18.324,11.286,29.684,6.808
			L194.38,103.304L194.38,103.304z M56.271,62.507c-7.624-4.985-17.29-0.29-24.395,2.424c-0.66-6.673-3.37-12.752-9.021-17.149
			c-0.548-0.272-1.306-0.847-1.988-0.889c-0.408-0.026-0.797,0.139-1.099,0.661c2.561,15.756-7.682,26.75-14.94,38.702
			c2.417,1.976,6.3,1.68,9.231,1.1c7.694-3.077,15.024-8.433,24.186-6.597c2.709-4.617,7.261-9.09,10.994-12.755
			C51.52,66.03,54.652,64.777,56.271,62.507L56.271,62.507z M79.583,72.402c-0.146,0.948,0.073,2.641,1.536,1.986
			c2.275-3.151,6.305-0.658,8.795-0.436v-0.887c-1.367-2.146-4.178-3.225-7.033-3.117c-0.659,0.023-1.329,0.12-1.973,0.269
			C79.954,70.431,79.289,71.305,79.583,72.402L79.583,72.402z M115.424,62.96c-2.047-4.546-6.737-6.385-10.995-7.484
			c-2.087-0.257-4.252-0.431-6.4-0.451c-0.402-0.004-0.804-0.01-1.205,0c-6.008,0.12-11.749,1.663-15.256,6.609
			c-0.504,1.396-2.717,3.357-0.662,4.608c4.618-0.296,9.888-0.875,12.966,3.088c0,3.522,2.274,8.208-1.536,9.894
			c-3.157-2.923-6.895,1.244-10.33-1.102c-1.615-0.954-2.637,0.159-3.298,1.552c-0.955,9.086,3.803,19.114,12.304,24.171
			c3.445,1.242,8.076,2.424,11.672,0.66c8.648-4.027,12.23-13.256,13.842-21.76c-0.217-1.618-0.14-4.771-2.41-4.849
			c-2.563,1.622-6.303,0.664-9.02,0c-1.607,0.52-1.68,2.869-3.509,3.314l-1.114-0.889c-0.954-4.024-1.543-9.744,2.199-12.528
			c4.182-1.687,9.092-2.424,13.416-1.101C116.896,65.303,115.648,64.206,115.424,62.96L115.424,62.96z M111.012,70.188
			c-0.291,0.007-0.574,0.021-0.859,0.03c-1.536,1.024-6.012,0.288-4.396,3.735c2.787-2.205,6.672-0.66,9.457,0.436
			c1.03-0.512,0.807-1.537,0.875-2.423C115.193,70.303,113.057,70.146,111.012,70.188z M142.924,39.197
			c-5.426-0.287-9.969,2.792-14.953,4.186c-0.435-4.243,2.788-8.723,3.523-12.98c-8.061,0.519-14.444,5.37-21.112,9.245
			c-1.543-3.729-3.091-7.476-4.623-11.218l8.795-8.358l0.226-1.101l-11.88-0.662c-2.047-3.586-2.853-7.904-5.272-11.203
			c-1.979,3.738-3.309,7.694-5.286,11.429l-11.867,0.663v0.874l9.006,8.132c-1.101,4.18-2.124,8.722-4.833,11.881
			c-5.277-3.16-10.479-6.601-16.265-8.795c-1.392-0.449-3.377-1.181-4.623-0.226c1.83,4.032,4.392,8.37,3.961,12.771
			c-2.42-0.445-4.322-1.998-6.596-2.65c-2.719-0.741-5.945-2.191-8.584-1.31c4.399,6.153,7.989,12.594,9.231,19.999
			c14.592-7.043,31.61-10.916,49.274-7.907c8.28,1.318,15.895,4.69,23.298,7.47C134.635,51.671,139.545,45.432,142.924,39.197
			L142.924,39.197z M167.982,81.421c7.471,1.978,14.964,10.117,22.875,4.836c-6.89-11.433-17.145-21.99-14.292-36.94
			c0.298-1.021-0.361-2.054-1.31-2.197c-4.469,1.825-7.932,6.229-9.699,10.558c-0.727,2.56-1.158,5.281-2.183,7.693
			c-5.354-2.787-11.067-5.485-17.591-4.834c-2.352,0.293-5.725,0.447-6.158,2.863c7.402,3.955,13.49,10.558,18.026,17.587
			C160.811,80.472,164.684,80.912,167.982,81.421L167.982,81.421z M89.703,91.753l0.211,1.325c2.864,1.908,3.745,5.142,7.71,4.848
			c3.516,0.209,6.155-3.086,7.907-5.723C100.771,91.547,94.982,92.563,89.703,91.753L89.703,91.753z M93.663,85.819
			c0.143,0.588-0.363,1.467,0.437,1.764c2.346-0.51,6.594,1.247,7.905-1.537c-0.914-1.024-2.408-1.49-3.975-1.49
			S94.838,85.012,93.663,85.819z"/>
		<g id="g4377">
			<path id="rect3815" opacity="0.99" fill="#FFFFFF" enable-background="new    " d="M89.708,83.276h16.071v6.603H89.708V83.276z"
				/>
			<path id="path3032-6" sodipodi:nodetypes="cccsccc" inkscape:connector-curvature="0" fill="#007042" d="M92.677,86.807
				c2.077,0.491,2.591,1.229,4.233,1.434c1.744-0.031,1.493-0.386,4.536-1.436c0.199-0.07,0.475-0.511,0.135-0.85
				c-1.891-1.876-3.196-0.535-4.381-0.5c-1.571,0.018-3.045-1.345-4.581,0.426C92.357,86.241,92.221,86.594,92.677,86.807
				L92.677,86.807z"/>
		</g>
	</g>
	<g id="text4354">
		<path id="path4430" fill="#007042" d="M168.604,195.142v-9.404h-3.358v-1.915h8.995v1.915h-3.352v9.404H168.604z"/>
		<path id="path4432" fill="#007042" d="M175.691,195.142v-11.319h3.422l2.053,7.722l2.031-7.722h3.428v11.319h-2.123v-8.91
			l-2.248,8.91h-2.199l-2.239-8.91v8.91H175.691z"/>
	</g>
</g>
</svg>
