<?xml version="1.0" encoding="utf-8"?>
<!-- Generator: Adobe Illustrator 16.0.0, SVG Export Plug-In . SVG Version: 6.00 Build 0)  -->
<!DOCTYPE svg PUBLIC "-//W3C//DTD SVG 1.1//EN" "http://www.w3.org/Graphics/SVG/1.1/DTD/svg11.dtd">
<svg version="1.1" id="Layer_1" xmlns="http://www.w3.org/2000/svg" xmlns:xlink="http://www.w3.org/1999/xlink" x="0px" y="0px"
	 width="175.748px" height="104.062px" viewBox="0 0 175.748 104.062" enable-background="new 0 0 175.748 104.062"
	 xml:space="preserve">
<g>
	<path fill-rule="evenodd" clip-rule="evenodd" fill="#0A0C06" d="M90.281,39.164l2.608,6.929c0,0,1.838-1.009,3.378-1.892
		c1.54-0.887,0.654-2.074,0.654-2.074s-2.018-5.926-2.492-6.992c-0.471-1.069,0.594-0.536,0.594-0.536s2.846,3.203,3.322,3.617
		c0.47,0.414,1.185,0.179,1.185,0.179l0.293,0.65c0,0-0.771,0.533-1.182,0.768c-0.419,0.241-0.179,0.593-0.179,0.593l2.015,3.377
		l0.59-2.195l1.662,1.131l0.116-2.138l2.136,0.654c0,0-1.423-2.312-1.777-3.02c-0.358-0.711-0.827-0.179-0.827-0.179l-0.833,0.293
		l-0.591-0.886c0.708-0.358,0.236-1.301,0.236-1.301s-0.829-2.252-1.781-4.15c-0.82-1.646,0.952-0.83,0.952-0.83l9.128,8.532
		c0,0,0-30.573,0-33.295c0-2.725-2.609-2.845-2.609-2.845s-1.78,0-4.859,0c-3.083,0-2.729,1.657-4.033,5.331
		c0,0-1.54,3.082-3.557,0.593c-2.012-2.487-2.012-2.487-2.012-2.487c-1.068-1.304-0.239-2.844,0.472-3.438
		c0.715-0.595,2.728,0.476,2.728,0.476s-0.24-1.542-0.713-2.847C94.43-0.12,92.89,0.003,92.89,0.003s-9.723,0-8.653,0
		c1.068,0,0.354,1.894,0.354,1.894c-0.471,1.422-2.487,6.873-2.487,6.873s-2.135,3.792-3.439,0.117
		c-1.305-3.674-0.951-5.331-4.031-5.331c-3.082,0-4.861,0-4.861,0s-2.607,0.121-2.607,2.845c0,2.723,0,33.295,0,33.295l9.129-8.532
		c0,0,1.769-0.816,0.946,0.83c-0.946,1.898-1.779,4.15-1.779,4.15s-0.471,0.943,0.239,1.301l-0.593,0.886l-0.828-0.293
		c0,0-0.477-0.532-0.83,0.179c-0.354,0.708-1.776,3.02-1.776,3.02l2.129-0.654l0.123,2.138l1.658-1.131l0.593,2.195l2.015-3.377
		c0,0,0.236-0.353-0.178-0.593c-0.415-0.234-1.186-0.768-1.186-0.768l0.292-0.65c0,0,0.716,0.235,1.187-0.179
		c0.479-0.414,3.321-3.617,3.321-3.617s1.069-0.533,0.593,0.536c-0.476,1.065-2.486,6.992-2.486,6.992s-0.893,1.187,0.649,2.074
		c1.539,0.883,3.377,1.892,3.377,1.892l2.608-6.929l-0.711,7.052l2.845,1.121l2.43-1.006L90.281,39.164L90.281,39.164L90.281,39.164
		z"/>
	<polygon fill-rule="evenodd" clip-rule="evenodd" fill="#FFFFFF" points="96.327,13.033 81.627,13.033 78.785,19.788 
		83.345,19.788 84.119,18.253 86.012,18.253 86.012,34.485 90.873,34.485 90.873,18.253 94.312,18.253 96.327,13.033 96.327,13.033 
			"/>
	<path fill-rule="evenodd" clip-rule="evenodd" fill="#FFFFFF" d="M109.578,49.513l3.082,13.286l3.08-7.228h60.008l-5.93,16.321
		h4.032l-6.316,15.602h8.034l-5.75,16.568h-25.614V72.826h-3.556v31.236h-35.104l-1.421-5.594h-3.325l-0.945,5.594H62.853v-4.428
		l-1.657,4.428H37.238v-32.17h-4.982v32.17H15.181V77.951H0l8.543-22.38h86.802L109.578,49.513L109.578,49.513z M63.683,75.041
		l-4.626,12.471h4.626V75.041L63.683,75.041z M63.683,67.229l-2.253,4.549h2.253V67.229L63.683,67.229z M80.878,87.512h5.931
		l6.402-28.209l-6.402,13.057h-5.931V87.512L80.878,87.512z M116.216,78.424l6.329,21.037l0.072-21.037H116.216L116.216,78.424z"/>
	<polygon fill-rule="evenodd" clip-rule="evenodd" fill="#E20613" points="37.951,59.303 10.672,59.303 5.454,73.525 13.994,73.525 
		15.774,68.396 19.095,68.396 19.095,100.104 28.699,100.104 28.699,68.514 34.751,68.514 37.951,59.303 37.951,59.303 	"/>
	<path fill-rule="evenodd" clip-rule="evenodd" fill="#E20613" d="M62.734,59.303H44.708c0,0-3.202-0.936-3.202,4.318
		c0,5.242,0,36.482,0,36.482h18.026l2.963-8.861H50.879v-7.338h6.048l3.553-9.1h-9.601v-6.408h8.772L62.734,59.303L62.734,59.303
		L62.734,59.303z"/>
	<path fill-rule="evenodd" clip-rule="evenodd" fill="#E20613" d="M76.908,68.396h8.771l3.084-9.094H70.738
		c0,0-3.203-0.936-3.203,4.318c0,5.242,0,36.482,0,36.482h17.551l2.138-8.861H76.908V68.396L76.908,68.396L76.908,68.396z"/>
	<polygon fill-rule="evenodd" clip-rule="evenodd" fill="#E20613" points="106.253,54.638 97.247,59.303 87.402,100.104 
		96.653,100.104 97.836,94.506 106.969,94.506 108.271,100.104 118.113,100.104 106.253,54.638 106.253,54.638 	"/>
	<polygon fill-rule="evenodd" clip-rule="evenodd" fill="#E20613" points="145.744,59.303 118.472,59.303 113.252,73.525 
		121.787,73.525 123.568,68.396 126.889,68.396 126.889,100.104 136.494,100.104 136.494,68.514 142.541,68.514 145.744,59.303 
		145.744,59.303 	"/>
	<path fill-rule="evenodd" clip-rule="evenodd" fill="#E20613" d="M169.404,59.303h-18.027c0,0-3.202-0.936-3.202,4.318
		c0,5.242,0,36.482,0,36.482h18.024l2.965-8.861h-11.62v-7.338h6.051l3.554-9.1h-9.604v-6.408h8.774L169.404,59.303L169.404,59.303
		L169.404,59.303z"/>
	<polygon fill-rule="evenodd" clip-rule="evenodd" fill="#FFFFFF" points="100.555,83.857 105.303,83.857 102.93,73.947 
		100.555,83.857 100.555,83.857 	"/>
</g>
</svg>
