<?xml version="1.0" encoding="utf-8"?>
<!-- Generator: Adobe Illustrator 16.0.0, SVG Export Plug-In . SVG Version: 6.00 Build 0)  -->
<!DOCTYPE svg PUBLIC "-//W3C//DTD SVG 1.1//EN" "http://www.w3.org/Graphics/SVG/1.1/DTD/svg11.dtd">
<svg version="1.1" id="Layer_1" xmlns="http://www.w3.org/2000/svg" xmlns:xlink="http://www.w3.org/1999/xlink" x="0px" y="0px"
	 width="300.247px" height="250.011px" viewBox="0 0 300.247 250.011" enable-background="new 0 0 300.247 250.011"
	 xml:space="preserve">
<g id="layer1" transform="translate(66.667256,88.430784)" inkscape:label="Layer 1" inkscape:groupmode="layer">
	<g id="g5644" transform="matrix(6.4588709,0,0,-6.4588709,-29.911876,5194.408)">
		<g id="g5984" transform="matrix(2.3896732,0,0,2.3896732,-72.538582,-1012.5229)">
			<g id="g3293">
				<g>
					<g id="g3295">
						<g id="g3301" transform="translate(68.7272,726.257)">
							<path id="path3303" inkscape:connector-curvature="0" fill="#DD1438" d="M-28.515,27.794
								c-0.104-0.216-0.222-0.409-0.352-0.572c-0.129-0.163-0.262-0.293-0.396-0.387c-0.117-0.083-0.214-0.146-0.294-0.132
								c-0.052,0.013-0.045,0.104-0.038,0.163c0.018,0.168,0.072,0.337,0.16,0.504c0.089,0.171,0.199,0.33,0.327,0.473
								c0.13,0.143,0.271,0.262,0.42,0.354c0.117,0.073,0.233,0.123,0.347,0.151C-28.374,28.155-28.432,27.969-28.515,27.794
								 M-27.117,31.59c-0.335,0.053-0.577-0.202-0.683-0.453c-0.038-0.088-0.048-0.133-0.084-0.247
								c-0.036-0.112-0.05-0.196-0.078-0.312c-0.02-0.083-0.05-0.212-0.063-0.269c-0.023-0.104-0.026-0.121-0.055-0.279
								c-0.029-0.157-0.048-0.261-0.069-0.4c-0.016-0.105-0.032-0.193-0.048-0.299c-0.24-0.057-0.487-0.153-0.731-0.286
								c-0.264-0.143-0.51-0.331-0.732-0.559c-0.222-0.227-0.414-0.495-0.571-0.796c-0.158-0.305-0.258-0.645-0.298-1.012
								c-0.005-0.045-0.008-0.093-0.01-0.144c-0.031,0.027-0.062,0.056-0.086,0.093c-0.047,0.07-0.081,0.151-0.104,0.249
								c-0.023,0.096-0.036,0.217-0.035,0.312c0.001,0.104,0.005,0.171,0.012,0.24c0.009,0.079,0.019,0.153,0.033,0.22
								c0.008,0.044,0.013,0.084,0.019,0.124c0.004,0.026,0.007,0.052,0.011,0.077c0.048,0.294,0.069,0.49,0.04,0.691
								c-0.019,0.133-0.126,0.388-0.395,0.396c-0.021,0.001-0.043,0-0.066-0.002c-0.181-0.017-0.393-0.116-0.522-0.206
								c-0.173-0.12-0.334-0.27-0.481-0.445c-0.062-0.074-0.111-0.141-0.152-0.204c0.026,0.079,0.06,0.158,0.093,0.235
								c0.021,0.047,0.041,0.094,0.06,0.142c0.002,0.005,0.004,0.011,0.007,0.017c0.044,0.112,0.09,0.226,0.1,0.319
								c0.009,0.083-0.004,0.151-0.039,0.201c-0.029,0.041-0.065,0.072-0.108,0.093c-0.042,0.019-0.084,0.028-0.126,0.028
								c-0.029,0.001-0.055,0-0.073-0.001c-0.104-0.009-0.197-0.041-0.275-0.094c-0.069-0.045-0.128-0.093-0.182-0.149
								c-0.053-0.062-0.1-0.126-0.137-0.189c-0.057-0.092-0.111-0.218-0.163-0.384c-0.049-0.155-0.095-0.327-0.139-0.512
								c-0.043-0.179-0.082-0.364-0.117-0.55c-0.034-0.183-0.059-0.344-0.074-0.478c-0.017-0.164-0.03-0.324-0.038-0.475
								c-0.008-0.157-0.005-0.299,0.008-0.423c0.015-0.132,0.047-0.239,0.095-0.32c0.061-0.1,0.16-0.146,0.288-0.133
								c0.002,0,0.004,0.001,0.006,0.001c0.024,0.003,0.108,0.015,0.185,0.042c0.072,0.025,0.181,0.103,0.274,0.249
								c0.053,0.083,0.108,0.302,0.173,0.58c0.015,0.064,0.029,0.122,0.041,0.169c0.256,1.001,0.629,1.211,0.813,1.249
								c-0.013-0.113-0.026-0.226-0.038-0.339c-0.009-0.148-0.02-0.278-0.023-0.433c0.004-0.294,0.033-0.461,0.069-0.607
								c0.041-0.166,0.116-0.367,0.207-0.472c0.108-0.123,0.211-0.204,0.399-0.193c0.001,0,0.002,0,0.003,0c0.001,0,0.001,0,0.002,0
								c0.081,0.011,0.123,0.018,0.21,0.055c0.089,0.042,0.13,0.073,0.208,0.148c0.055,0.053,0.089,0.105,0.112,0.156
								c0.034-0.062,0.077-0.117,0.13-0.165c0.082-0.074,0.201-0.108,0.351-0.103c0.003,0,0.007,0,0.011,0.001
								c0.017,0.001,0.053,0.005,0.169,0.021c0.106,0.014,0.235,0.056,0.385,0.124c0.146,0.066,0.312,0.169,0.495,0.307
								c0.128,0.096,0.26,0.222,0.393,0.374c-0.013-0.213-0.023-0.416,0.07-0.695c0.038-0.115,0.088-0.209,0.166-0.315
								c0.087-0.117,0.218-0.176,0.393-0.178h0.001c0.007,0.001,0.014,0.001,0.02,0.002c0.083,0.014,0.152,0.035,0.21,0.066
								c0.06,0.031,0.116,0.077,0.167,0.136c0.062,0.071,0.098,0.161,0.11,0.271c0.003,0.033,0.002,0.071-0.006,0.116
								c-0.007,0.044-0.029,0.078-0.053,0.113c-0.01,0.014-0.02,0.029-0.029,0.046c-0.058,0.101-0.095,0.185-0.111,0.256
								c-0.044,0.185-0.055,0.341-0.047,0.641c0.004,0.143,0.015,0.3,0.027,0.449c0.011,0.146,0.028,0.296,0.045,0.455
								c0.011,0.103,0.023,0.206,0.034,0.309c0.004,0.037,0.007,0.069,0.011,0.097c0.007,0,0.014,0,0.021,0
								c0.077-0.001,0.157,0.026,0.238,0.081c0.094,0.066,0.152,0.185,0.17,0.356c0.016,0.145-0.02,0.263-0.107,0.351
								c-0.053,0.053-0.113,0.098-0.176,0.135c0.009,0.055,0.019,0.107,0.026,0.154c0.009,0.061,0.019,0.114,0.029,0.158
								c0.007,0.031,0.013,0.061,0.019,0.092c0.005,0.026,0.01,0.053,0.015,0.078c0.002,0.006,0.107,0.497,0.317,1.228
								c0.034,0.119,0.05,0.21,0.058,0.286C-26.879,31.369-26.906,31.557-27.117,31.59 M-24.1,29.014
								c0.017-0.068,0.02-0.152,0.01-0.256c-0.009-0.097-0.028-0.205-0.055-0.322c-0.001-0.005-0.151-0.594-0.211-0.876
								c-0.047-0.224-0.076-0.4-0.11-0.603c-0.001-0.004-0.001-0.009-0.002-0.013c-0.032-0.198-0.083-0.639-0.113-0.95
								c-0.058-0.601-0.071-0.744-0.236-1.207c-0.169-0.473-0.554-0.787-0.734-0.888c-0.326-0.182-0.693-0.277-1.092-0.285
								c-0.001,0-0.002,0-0.003,0c-0.001,0-0.002,0-0.003,0.001c-0.019,0.002-0.04,0.004-0.063,0.005
								c-0.043,0.003-0.092,0.006-0.139,0.015c-0.419,0.075-0.661,0.341-0.616,0.686c0.024,0.18,0.164,0.29,0.345,0.263
								c0.17-0.028,0.327-0.042,0.468-0.041c0.435,0.005,0.733,0.149,0.912,0.448c0.186,0.312,0.209,0.517,0.24,0.8
								c0.004,0.037,0.008,0.075,0.013,0.114c0.017,0.146,0.031,0.282,0.045,0.424c-0.07-0.093-0.139-0.172-0.205-0.235
								c-0.134-0.128-0.258-0.225-0.367-0.291c-0.131-0.077-0.26-0.122-0.381-0.134c-0.001,0-0.003,0-0.004,0
								c-0.001,0-0.003,0-0.004,0c-0.2,0.004-0.354,0.081-0.459,0.229c-0.092,0.128-0.163,0.29-0.21,0.48
								c-0.046,0.186-0.07,0.385-0.071,0.592c-0.002,0.202,0.005,0.391,0.022,0.562c0.051,0.532,0.161,0.956,0.326,1.258
								c0.183,0.337,0.415,0.507,0.691,0.501c0.015,0,0.036-0.002,0.075-0.007c0.05-0.007,0.093-0.023,0.131-0.049
								c0.042-0.027,0.076-0.067,0.104-0.122c0.029-0.057,0.038-0.129,0.03-0.217c-0.009-0.09-0.042-0.188-0.103-0.3
								c-0.055-0.104-0.106-0.222-0.153-0.35c-0.04-0.109-0.08-0.241-0.12-0.39c-0.04-0.146-0.068-0.303-0.084-0.467
								c-0.003-0.026-0.007-0.083-0.012-0.175c-0.005-0.074-0.004-0.151,0.002-0.236c0.006-0.073,0.02-0.136,0.042-0.186
								c0.012-0.029,0.05-0.05,0.063-0.052c0.016-0.004,0.034-0.007,0.056-0.007c0.038,0,0.078,0.013,0.117,0.037
								c0.03,0.019,0.103,0.082,0.19,0.198c0.06,0.082,0.176,0.253,0.272,0.48c0.045,0.106,0.102,0.279,0.163,0.463
								c0.068,0.207,0.188,0.612,0.257,0.782c0.044,0.109,0.093,0.204,0.149,0.291c0.051,0.079,0.134,0.161,0.199,0.203
								c0.097,0.064,0.204,0.097,0.324,0.091c0.027-0.002,0.056-0.008,0.095-0.018c0.051-0.013,0.096-0.041,0.133-0.081
								C-24.145,29.142-24.118,29.088-24.1,29.014 M-23.889,29.101c-0.012,0.048-0.021,0.109,0.003,0.189
								c0.011,0.036,0.044,0.12,0.064,0.199c0.023,0.104,0.033,0.208,0.008,0.305c-0.022,0.085-0.028,0.209-0.004,0.28
								c0.036,0.108,0.136,0.165,0.207,0.177c0.107,0.018,0.214,0.011,0.305-0.033c0.099-0.049,0.183-0.166,0.204-0.252
								c0.045-0.18,0.025-0.324,0.004-0.439c-0.025-0.137-0.082-0.262-0.143-0.365c-0.044-0.073-0.117-0.136-0.179-0.181
								c-0.077-0.055-0.203-0.076-0.336-0.028C-23.818,28.977-23.878,29.057-23.889,29.101 M-21.682,26.557
								c-0.032-0.23-0.126-0.422-0.278-0.57c-0.142-0.138-0.308-0.248-0.491-0.327c-0.181-0.077-0.368-0.127-0.554-0.151
								c-0.169-0.02-0.316-0.025-0.437-0.013c-0.011,0.001-0.023,0.002-0.033,0.004c-0.293,0.038-0.493,0.131-0.61,0.288
								c-0.116,0.157-0.163,0.319-0.14,0.483c0.027,0.195,0.129,0.289,0.21,0.334c0.098,0.055,0.183,0.078,0.26,0.072
								c0.003,0,0.006-0.001,0.009-0.002c0.077-0.009,0.165-0.048,0.27-0.12c0.071-0.049,0.165-0.081,0.281-0.097
								c0.156-0.02,0.274-0.012,0.351,0.026c0.055,0.026,0.087,0.055,0.09,0.082c0.002,0.012,0.005,0.037-0.037,0.077
								c-0.051,0.049-0.122,0.097-0.209,0.141c-0.092,0.047-0.194,0.095-0.31,0.148c-0.12,0.053-0.231,0.117-0.33,0.187
								c-0.108,0.076-0.195,0.165-0.259,0.265c-0.074,0.116-0.1,0.252-0.078,0.407c0.024,0.176,0.103,0.358,0.231,0.54
								c0.122,0.173,0.273,0.33,0.451,0.465c0.176,0.134,0.373,0.241,0.585,0.316c0.219,0.077,0.436,0.101,0.645,0.07
								c0.201-0.03,0.357-0.121,0.461-0.271c0.104-0.151,0.138-0.36,0.102-0.619c-0.018-0.125-0.063-0.24-0.135-0.341
								c-0.061-0.084-0.177-0.181-0.391-0.147c-0.145,0.022-0.203,0.1-0.227,0.163c-0.02,0.051-0.037,0.107-0.049,0.165
								c-0.008,0.038-0.011,0.088-0.035,0.114c-0.015,0.013-0.044,0.023-0.081,0.021c0,0-0.033,0.002-0.105-0.019
								c-0.063-0.019-0.127-0.047-0.188-0.082c-0.063-0.036-0.12-0.082-0.17-0.135c-0.039-0.042-0.063-0.087-0.071-0.132
								c-0.004-0.022-0.006-0.059,0.041-0.104c0.058-0.055,0.132-0.11,0.222-0.164c0.09-0.055,0.194-0.11,0.317-0.169
								c0.13-0.062,0.246-0.132,0.347-0.209c0.107-0.081,0.196-0.176,0.263-0.281C-21.688,26.852-21.66,26.712-21.682,26.557
								 M-34.322,27.521c-0.1-0.155-0.2-0.275-0.306-0.368c-0.118-0.104-0.207-0.16-0.32-0.222c-0.049-0.027-0.09-0.042-0.124-0.052
								c0.017,0.093,0.048,0.217,0.091,0.32c0.064,0.153,0.146,0.304,0.243,0.448c0.115,0.17,0.209,0.282,0.304,0.362
								c0.066,0.056,0.124,0.089,0.168,0.096c0.097,0.017,0.102-0.109,0.102-0.134C-34.164,27.822-34.249,27.635-34.322,27.521
								 M-33.679,28.79c-0.078,0.054-0.166,0.084-0.261,0.092c-0.081,0.005-0.181,0.001-0.254-0.011c-0.002,0-0.004,0-0.005-0.001
								c-0.158-0.027-0.323-0.082-0.44-0.147c-0.12-0.065-0.237-0.149-0.348-0.25c-0.093-0.085-0.201-0.189-0.293-0.312
								c-0.06-0.08-0.174-0.24-0.267-0.42c-0.125-0.241-0.234-0.521-0.332-0.856c-0.062,0-0.196,0.027-0.258,0.039
								c-0.044,0.009-0.059,0.011-0.068,0.012c-0.01,0-0.018,0-0.026,0.001c0.285,1.187,0.484,1.859,0.63,2.324
								c0.079,0.227,0.158,0.454,0.237,0.682c0.062,0.129,0.099,0.305,0.093,0.386c-0.016,0.238-0.18,0.478-0.472,0.414
								c-0.31-0.068-0.492-0.463-0.739-1.333c-0.208-0.732-0.325-1.198-0.494-1.989c-0.073-0.36-0.146-0.721-0.218-1.081
								c-0.011-0.054-0.022-0.109-0.032-0.162c-0.025-0.112-0.038-0.145-0.077-0.153c-0.02-0.005-0.045,0.009-0.056,0.055
								c-0.026,0.101-0.047,0.309-0.063,0.577c-0.02,0.616-0.071,1.254-0.049,2.062c0.013,0.462,0.012,0.536-0.018,0.654
								c-0.058,0.229-0.342,0.365-0.65,0.286c-0.309-0.078-0.4-0.425-0.578-0.898c-0.12-0.32-0.303-0.89-0.484-1.443
								c-0.17-0.572-0.37-1.273-0.37-1.273c-0.013-0.049-0.025-0.097-0.037-0.146c-0.012-0.048-0.025-0.097-0.037-0.145
								c-0.044-0.118-0.059-0.142-0.089-0.15c-0.03-0.008-0.047,0.016-0.056,0.052c-0.019,0.072-0.016,0.531-0.01,0.773
								c0.011,0.494,0.06,1.029,0.105,1.509c0.027,0.346,0.115,0.951,0.142,1.297c0.009,0.104,0.019,0.214,0.021,0.288
								c0.006,0.22-0.009,0.327-0.105,0.436c-0.151,0.133-0.334,0.122-0.546,0.074c-0.341-0.078-0.597-0.289-0.566-0.405
								c0.005-0.017,0.023-0.034,0.04-0.06c0.052-0.075,0.079-0.117,0.099-0.193c0.025-0.089,0.036-0.213,0.036-0.412
								c-0.008-0.178-0.015-0.357-0.023-0.536c-0.043-0.539-0.108-1.511-0.125-2.175c-0.015-0.574,0.004-0.972,0.049-1.539
								c0.023-0.285,0.083-0.518,0.116-0.643c0.058-0.224,0.172-0.473,0.369-0.523c0.146-0.037,0.259-0.028,0.452,0.022
								c0.177,0.046,0.445,0.215,0.504,0.482c0.075,0.297,0.151,0.594,0.226,0.891c0.067,0.317,0.22,0.879,0.35,1.366
								c0.075,0.29,0.172,0.615,0.225,0.783c0.031,0.085,0.047,0.108,0.066,0.113c0.02,0.005,0.032-0.001,0.037-0.02
								c0.002-0.009,0.005-0.023,0.006-0.054c0.001-0.02,0.002-0.04,0.002-0.06c0.002-0.061,0.003-0.122,0.004-0.183
								c0.015-0.596,0.129-1.622,0.236-2.042c0.07-0.274,0.09-0.613,0.513-0.676c0.195-0.029,0.358,0.026,0.358,0.026
								c0.312,0.095,0.393,0.275,0.463,0.582c0.046,0.194,0.187,0.729,0.264,1.074c0.023,0.105,0.046,0.205,0.069,0.304
								c0.057-0.018,0.317-0.059,0.426-0.068c0.001-0.033,0.003-0.05,0.006-0.071c0.003-0.02,0.005-0.038,0.008-0.055
								c0.004-0.026,0.007-0.05,0.013-0.077c0.007-0.035,0.015-0.069,0.023-0.104c0.045-0.18,0.115-0.334,0.208-0.457
								c0.09-0.12,0.183-0.201,0.312-0.272c0.122-0.067,0.332-0.096,0.53-0.075c0.028,0.001,0.054,0.003,0.081,0.008
								c0.005,0.001,0.011,0.002,0.016,0.003c0.014,0.002,0.027,0.005,0.041,0.008c0,0,0,0.001,0,0.002
								c0.029,0.007,0.066,0.015,0.093,0.023c0.312,0.09,0.713,0.367,0.858,0.773c0.056,0.16,0.025,0.26-0.011,0.316
								c-0.04,0.061-0.105,0.098-0.172,0.096c-0.023-0.001-0.044-0.003-0.066-0.006c-0.136-0.022-0.239-0.099-0.329-0.167
								c-0.082-0.061-0.159-0.119-0.255-0.138c-0.11-0.021-0.185-0.018-0.248,0.013c-0.071,0.035-0.095,0.061-0.123,0.133
								c-0.017,0.043-0.026,0.092-0.035,0.156c0.177,0.045,0.382,0.136,0.547,0.243c0.188,0.122,0.36,0.272,0.511,0.445
								c0.149,0.172,0.274,0.363,0.372,0.568c0.093,0.196,0.161,0.456,0.176,0.678c0.013,0.171-0.006,0.312-0.054,0.42
								C-33.537,28.657-33.601,28.738-33.679,28.79"/>
						</g>
					</g>
				</g>
			</g>
			<g id="g3093">
				<g>
					<g id="g3095">
						<g id="g3101" transform="translate(45.2045,744.5733)">
							<path id="path3103" inkscape:connector-curvature="0" fill="#FFFFFF" d="M-12.062,14.983c0.08-0.042,0.171-0.055,0.146-0.07
								c-0.044-0.028-0.201,0-0.275,0.047c-0.032,0.02-0.044-0.026-0.015-0.064c0,0,0,0,0,0c0.011-0.017,0.025-0.033,0.051-0.058
								c0.285-0.249,0.652-0.323,0.983-0.266c0.169-0.263,0.37-0.511,0.604-0.738c0.781-0.757,1.809-1.173,2.896-1.173
								c1.135,0,2.195,0.448,2.985,1.263c0.196,0.203,0.37,0.421,0.519,0.653c0.336-0.063,0.711,0.01,1.001,0.263
								c0.027,0.025,0.04,0.04,0.051,0.058v0c0.029,0.038,0.017,0.084-0.015,0.064c-0.074-0.046-0.23-0.074-0.274-0.047
								c-0.025,0.016,0.066,0.029,0.146,0.07c0.432,0.218,0.354,0.905,0.226,0.762c-0.093-0.116-0.214-0.238-0.445-0.231
								c0.21,0.244,0.231,0.588,0.158,0.527c-0.068-0.07-0.159-0.217-0.343-0.341c0.105,0.379,0.157,0.776,0.151,1.181
								c-0.017,1.111-0.465,2.149-1.263,2.922c-0.269,0.261-0.567,0.481-0.887,0.658c-0.175,0.318-0.394,0.549-0.789,0.638
								c-0.185,0.026-0.278,0.023-0.429-0.043c-0.017,0.062-0.043,0.104-0.07,0.131c-0.166,0.164-0.467,0.184-0.615,0.209
								c-0.174,0.017-0.477,0.022-0.766-0.052c-0.631-0.16-1.061-0.466-1.373-0.896c-0.346-0.195-0.666-0.441-0.952-0.735
								c-1.061-1.094-1.399-2.626-1.023-3.999c-0.169,0.12-0.255,0.258-0.32,0.326c-0.073,0.061-0.052-0.283,0.158-0.527
								c-0.232-0.008-0.353,0.114-0.446,0.231C-12.416,15.888-12.494,15.201-12.062,14.983"/>
						</g>
					</g>
				</g>
			</g>
			<g id="g3125" transform="translate(91.8998,718.8691)">
				<path id="path3127" inkscape:connector-curvature="0" d="M-44.723,32.962h0.023c0.027,0,0.049,0.009,0.049,0.031
					c0,0.019-0.014,0.033-0.045,0.033c-0.013,0-0.023-0.001-0.027-0.003V32.962z M-44.724,32.843h-0.049v0.213
					c0.019,0.002,0.047,0.007,0.081,0.007c0.04,0,0.058-0.007,0.072-0.017c0.013-0.009,0.022-0.024,0.022-0.045
					c0-0.026-0.019-0.043-0.044-0.05v-0.003c0.021-0.006,0.031-0.023,0.038-0.052c0.006-0.032,0.011-0.044,0.016-0.052h-0.052
					c-0.006,0.008-0.01,0.026-0.017,0.052c-0.004,0.022-0.017,0.032-0.044,0.032h-0.023V32.843z M-44.692,33.123
					c-0.092,0-0.163-0.076-0.163-0.17c0-0.094,0.072-0.17,0.166-0.17c0.092-0.001,0.162,0.075,0.162,0.168
					c0,0.094-0.07,0.171-0.163,0.171H-44.692z M-44.69,33.165c0.12,0,0.216-0.093,0.216-0.212c0-0.119-0.096-0.214-0.217-0.214
					c-0.122,0-0.219,0.094-0.219,0.214C-44.909,33.072-44.813,33.165-44.69,33.165L-44.69,33.165z"/>
			</g>
			<g id="g3133" transform="translate(59.8112,763.4241)">
				<path id="path3135" inkscape:connector-curvature="0" fill="#2F1E18" d="M-22.279,1.798c-1.045,0-2.022-0.413-2.749-1.163
					c-1.47-1.516-1.433-3.945,0.083-5.416c0.719-0.697,1.666-1.081,2.667-1.081c1.045,0,2.021,0.413,2.748,1.163
					c0.712,0.734,1.096,1.702,1.08,2.725c-0.015,1.023-0.428,1.979-1.163,2.691C-20.331,1.414-21.278,1.798-22.279,1.798
					 M-22.278-6.191c-1.087,0-2.116,0.417-2.896,1.174c-1.646,1.597-1.686,4.235-0.09,5.881c0.79,0.814,1.85,1.263,2.985,1.263
					c1.087,0,2.115-0.417,2.895-1.174c0.797-0.773,1.246-1.811,1.263-2.922c0.017-1.111-0.399-2.162-1.173-2.96
					C-20.083-5.743-21.143-6.191-22.278-6.191"/>
			</g>
			<g id="g3137" transform="translate(74.9172,744.4981)">
				<path id="path3139" inkscape:connector-curvature="0" fill="#DD1438" d="M-32.845,15.036c-0.074-0.046-0.23-0.074-0.274-0.047
					c-0.025,0.016,0.065,0.029,0.146,0.07c0.432,0.218,0.354,0.905,0.226,0.762c-0.093-0.116-0.214-0.238-0.446-0.231
					c0.21,0.245,0.231,0.588,0.158,0.527c-0.151-0.157-0.414-0.692-1.567-0.507c0.032,0.041,0.066,0.08,0.104,0.117
					c-0.059,0.035-0.118,0.091-0.179,0.18c-0.176,0.278-0.326,0.325-0.417,0.35c0.147,0.142,0.246,0.291,0.335,0.46
					c0.298,0.638,0.264,1.331,0.231,1.514c-0.035,0.283-0.107,0.723-0.329,1.135c-0.251,0.469-0.497,1.324-1.342,1.612
					c-0.172,0.009-0.262,0-0.413-0.066c-0.015,0.03-0.157,0.147-0.173,0.174c-0.09,0.081-0.353,0.153-0.471,0.192
					c-0.243,0.004-0.456,0.065-0.724-0.008c-1.133-0.306-1.639-0.872-1.974-1.914c-0.028-0.086-0.067-0.368-0.071-0.453
					c0.01,0.029-0.368-1.12-0.117-1.75c0.046-0.053,0.05-0.154,0.098-0.206c0.119-0.279,0.31-0.45,0.424-0.705
					c-0.372-0.015-0.502-0.583-0.513-0.631c-1.166-0.193-1.432,0.347-1.583,0.504c-0.072,0.061-0.052-0.283,0.158-0.527
					c-0.232-0.008-0.353,0.115-0.445,0.231c-0.128,0.144-0.206-0.544,0.226-0.762c0.081-0.041,0.171-0.055,0.146-0.07
					c-0.044-0.028-0.201,0-0.274,0.046c-0.035,0.022-0.047-0.033-0.009-0.072c1.113-0.739,1.625,0.074,1.795,0.097
					c0.614-0.176,1.702,0.257,1.219,0.631c-0.131,0.205-0.329,0.558-0.337,0.964c-0.027,0.228-0.001,0.299-0.251,0.278
					c0.089,0.277,0.18,0.52,0.088,0.941c-0.017-0.006-0.034-0.021-0.046-0.033c0.494,0.483,1.47,0.54,2.003,1.068
					c0.069,0.12,0.342,0.16,0.408,0.285c-0.061-0.434-0.254-0.815-0.656-1.199c0,0,0.283-0.001,0.507,0.159
					c0.383,0.273,0.562,0.605,0.827,0.892c0.002,0.014,0.074,0.079,0.071,0.097c0.044-0.022,0.128-0.092,0.156-0.135
					c0.312-0.483,0.059-0.365,0.404-0.803c0.02-0.023,0.057-0.123,0.077-0.148c0.075-0.141,0.111-0.229,0.207-0.359
					c0.124-0.085,0.1-0.23,0.172-0.476c-0.022-0.306-0.084-0.544-0.288-0.68c-0.011-0.266-0.236-0.884-0.236-0.884
					c0.02-0.061-0.236-0.47,0.369-0.593c0.159-0.032,0.398,0,0.602,0.036c0.017,0.131,0.061,0.256,0.127,0.371
					c-0.005-0.037-0.008-0.075-0.008-0.113c0-0.105,0.02-0.206,0.055-0.301c0.006,0.002,0.012,0.003,0.018,0.005
					c0.17-0.023,0.682-0.836,1.795-0.097C-32.798,15.003-32.81,15.057-32.845,15.036"/>
			</g>
			<g id="g3141" transform="translate(64.3698,741.5831)">
				<path id="path3143" inkscape:connector-curvature="0" fill="#24ACE9" d="M-25.467,17.075c-0.046,0.107-0.077,0.179-0.075,0.273
					c-0.006,0.015-0.023,0.029-0.045,0.039l0.002-0.11l-0.194,0.08c-0.019-0.026-0.029-0.064-0.023-0.118
					c0.063-0.374,0.239-0.567,0.284-0.614c0.047-0.049,0.084-0.053,0.124-0.057c0.051-0.004,0.086,0.011,0.117,0.046
					C-25.207,16.718-25.382,16.879-25.467,17.075"/>
			</g>
			<g id="g3145" transform="translate(57.6847,741.1719)">
				<path id="path3147" inkscape:connector-curvature="0" fill="#24ACE9" d="M-20.791,17.362l-0.105,0.122
					c-0.073-0.45-0.239-0.569-0.187-0.683c0.017-0.036,0.055-0.066,0.055-0.066c0.026-0.016,0.05-0.024,0.074-0.025
					c0.037,0,0.075,0.009,0.104,0.042c0.124,0.151,0.209,0.405,0.237,0.568c0.006,0.035,0.006,0.07,0.002,0.104L-20.791,17.362z"/>
			</g>
			<g id="g3149" transform="translate(56.4821,741.8857)">
				<path id="path3151" inkscape:connector-curvature="0" fill="#24ACE9" d="M-19.95,16.863l-0.172,0.041l-0.021,0.105
					c-0.013-0.015-0.025-0.032-0.035-0.051c-0.018-0.068-0.032-0.132-0.1-0.281c-0.075-0.166-0.295-0.341-0.071-0.407
					c0.072-0.018,0.115,0.011,0.145,0.037c0.135,0.121,0.258,0.398,0.312,0.565c0.01,0.031,0.016,0.062,0.021,0.094L-19.95,16.863z"
					/>
			</g>
			<g id="g3153" transform="translate(62.3141,741.1508)">
				<path id="path3155" inkscape:connector-curvature="0" fill="#24ACE9" d="M-24.029,17.377l-0.204,0.108
					c0.061-0.357,0.191-0.609,0.263-0.701c0.029-0.033,0.067-0.054,0.111-0.062c0.029-0.001,0.049,0.002,0.074,0.015
					c0,0,0.054,0.025,0.068,0.062c0.041,0.116-0.152,0.307-0.201,0.742L-24.029,17.377z"/>
			</g>
			<g id="g3157" transform="translate(59.6079,738.833)">
				<path id="path3159" inkscape:connector-curvature="0" fill="#24ACE9" d="M-22.136,18.998c0.214-0.054,0.405,0.111,0.409,0.167
					c0.003,0.044-0.108,0.222-0.149,0.261c-0.025,0.024-0.114,0.086-0.232,0.046c-0.065-0.022-0.192-0.152-0.19-0.273
					C-22.298,19.101-22.136,18.998-22.136,18.998"/>
			</g>
			<g id="g3161" transform="translate(54.7429,756.676)">
				<path id="path3163" inkscape:connector-curvature="0" fill="#9C0B2B" d="M-18.734,6.518c0.607,0.182,0.86,0.662,1.43,1.058
					c-0.095-0.013-0.211-0.066-0.291-0.111c-0.481-0.276-0.633-0.396-0.857-0.55c-0.226-0.156-0.517-0.341-0.727-0.414
					C-19.179,6.5-19.028,6.418-18.734,6.518 M-15.99,8.997c-0.185,0.026-0.278,0.023-0.429-0.043
					c-0.017,0.062-0.043,0.104-0.07,0.131c-0.167,0.165-0.467,0.184-0.615,0.209c-0.174,0.017-0.477,0.022-0.767-0.052
					c-1.1-0.279-1.591-1.001-1.904-2.053c-0.063-0.213-0.125-0.519-0.162-0.807c-0.136-0.313-0.395-1.123,0.136-1.908
					c0.095-0.141,0.41-0.533,0.492-0.748c0.114-0.518-0.54-0.209-0.998-0.674c0,0-0.377-0.49-1.109-0.39
					c-0.125,0.021-0.237,0.058-0.327,0.131c0.011-0.017,0.025-0.033,0.051-0.058c0.464-0.406,1.148-0.348,1.537-0.012
					c0.085,0.073,0.088,0.12,0.379,0.12c0.507,0.001,0.963,0.037,1.228,0.424c-0.206,0.269-0.299,0.363-0.379,0.529
					c0,0.084-0.026,0.193-0.092,0.333c-0.042,0.524-0.097,0.592-0.088,0.854c-0.021,0.335-0.005,0.722,0.342,0.865
					c0.35,0.144,0.443,0.099,1.038,0.408c1.099,0.57,1.126,1.269,1.012,1.356c0,0-0.256-0.448-0.581-0.731
					c-0.487-0.422-1.105-0.58-1.759-0.827c-0.657-0.248-0.736-0.5-0.736-0.5c-0.166,0.942,0.394,1.488,0.394,1.488
					c-0.056,0.019-0.338-0.318-0.463-0.512c0.14,0.613,0.295,0.986,0.451,1.292c0.041,0.075,0.134,0.217,0.217,0.323
					c0.175,0.197,0.251,0.279,0.513,0.454c0.164,0.11,0.346,0.213,0.57,0.272c0.489,0.13,1.222,0.119,1.514-0.127
					c0.079-0.067,0.115-0.174,0.115-0.174s0.141,0.082,0.24,0.112c0.142,0.043,0.309,0.001,0.414-0.042
					c0.577-0.256,0.712-0.906,1.148-1.453C-15.111,8.07-15.199,8.817-15.99,8.997 M-15.184,6.955
					c0.249-0.326,0.857-0.897,0.797-1.795c0,0,0.078,0.228,0.068,0.524c-0.039,1.325-0.784,1.376-1.35,2.467
					C-15.669,8.152-15.754,7.704-15.184,6.955 M-12.655,2.794c-0.011-0.017-0.025-0.033-0.051-0.058
					c-0.464-0.406-1.148-0.348-1.537-0.012c-0.065,0.056-0.082,0.096-0.215,0.112c-0.046,0.107-0.072,0.223-0.072,0.343
					c0,0.039,0.003,0.077,0.009,0.114c-0.053-0.093-0.092-0.192-0.114-0.296c-0.016-0.001-0.032-0.026-0.049-0.03
					c-0.555-0.215-0.89-0.071-1.11,0.365c0.02,0.028,0.136,0.179,0.151,0.208c0.044,0.097,0.18,0.39,0.217,0.786
					c0.063,0.528,0.06,0.649,0.08,0.778c0.029,0.252,0.028,0.316-0.025,0.496c-0.047,0.148-0.086,0.199-0.175,0.367
					c-0.22,0.318-0.303,0.454-0.407,0.657c-0.075,0.145-0.097,0.215-0.12,0.298c0,0-0.201-0.49-0.615-0.797
					c-0.354-0.263-0.627-0.348-0.827-0.311c0.306,0.173,0.622,0.363,0.855,0.744c0.326,0.533,0.387,1.071,0.387,1.071
					s0.021,0.001,0.087-0.035c0.05-0.028,0.141-0.122,0.187-0.289c0.017-0.063,0.087-0.294,0.171-0.484
					c0.152-0.343,0.296-0.507,0.604-0.792c0.3-0.277,0.592-0.67,0.482-1.247c-0.064-0.336-0.215-0.545-0.381-0.828
					c-0.054-0.109-0.072-0.19-0.059-0.307c0.046-0.309,0.352-0.141,0.738-0.236c-0.027-0.036-0.051-0.073-0.073-0.111
					c0.143-0.044,0.292-0.113,0.426-0.249c0,0,0.378-0.49,1.11-0.39C-12.857,2.684-12.744,2.721-12.655,2.794"/>
			</g>
			<g id="g3165" transform="translate(66.4837,753.3589)">
				<path id="path3167" inkscape:connector-curvature="0" fill="#FCD3D7" d="M-26.946,8.838c-0.068,0.016-0.096-0.019-0.127-0.085
					c-0.007,0.05-0.019,0.1-0.039,0.166c-0.047,0.148-0.086,0.199-0.174,0.367c-0.22,0.318-0.303,0.454-0.408,0.657
					c-0.075,0.145-0.097,0.216-0.12,0.298c0,0-0.201-0.49-0.616-0.797c-0.354-0.263-0.626-0.348-0.827-0.311
					c0.381,0.364,0.574,0.726,0.645,1.132c-0.157-0.22-0.423-0.466-0.858-0.691c-0.595-0.309-0.688-0.264-1.038-0.408
					c-0.248-0.102-0.326-0.328-0.344-0.57c-0.003,0.038-0.007,0.073-0.011,0.102c-0.007,0.138-0.044,0.136-0.044,0.136
					s-0.22-0.003-0.234-0.329c-0.004-0.201,0.031-0.258,0.061-0.326c0.033-0.077,0.071-0.174,0.12-0.198
					c0.084-0.04,0.121-0.013,0.134,0.004c0.001-0.009,0.003-0.019,0.005-0.028c0.001-0.009,0.003-0.019,0.004-0.029
					c0.002-0.014,0.004-0.029,0.007-0.044c0.069-0.44,0.134-0.704,0.246-0.872c0.009-0.022,0.018-0.044,0.029-0.067
					c0.024-0.042,0.048-0.08,0.07-0.115c0.073-0.057,0.11-0.115,0.118-0.172c0.004-0.006,0.009-0.012,0.014-0.018
					c0.014-0.018,0.028-0.036,0.043-0.055c-0.001-0.002-0.003-0.004-0.004-0.005c0.011-0.01,0.022-0.021,0.034-0.03
					c0.045-0.05,0.091-0.091,0.134-0.126l-0.026-0.853l0.028-0.14l0.172-0.041l0.083,0.108l0.279-0.323l0.242,0.085
					c0,0,0.059-0.024,0.108-0.067c0.049-0.043,0.354-0.179,0.354-0.179l0.141,0.055l0.179,0.134l0.072,0.122l0.295-0.157
					l0.281,0.423l0.219-0.09l-0.015,0.965c0.028,0.029,0.054,0.059,0.079,0.088c0.084,0.097,0.182,0.199,0.255,0.309
					c0.002,0.006,0.006,0.013,0.009,0.02c0.001,0.002,0.002,0.004,0.002,0.005c0.003,0.006,0.006,0.012,0.009,0.019
					c0.002,0.004,0.003,0.008,0.005,0.011c0.002,0.006,0.005,0.011,0.008,0.017c0.002,0.005,0.005,0.011,0.007,0.017
					c0.002,0.005,0.004,0.011,0.007,0.016c0.003,0.007,0.006,0.014,0.008,0.021c0.002,0.005,0.004,0.011,0.007,0.016
					c0.003,0.008,0.006,0.017,0.009,0.025c0.002,0.005,0.004,0.011,0.006,0.016c0.003,0.009,0.007,0.019,0.01,0.029
					c0.002,0.005,0.004,0.011,0.006,0.016c0.004,0.01,0.007,0.021,0.011,0.032c0.002,0.006,0.004,0.011,0.006,0.017
					c0.004,0.011,0.007,0.023,0.011,0.034c0.002,0.006,0.004,0.012,0.006,0.018c0.004,0.012,0.007,0.024,0.011,0.037
					c0.002,0.006,0.004,0.012,0.005,0.019c0.003,0.012,0.007,0.026,0.01,0.038c0.002,0.007,0.003,0.013,0.005,0.02
					c0.003,0.013,0.006,0.026,0.009,0.04c0.002,0.007,0.003,0.014,0.005,0.022c0.003,0.014,0.006,0.028,0.008,0.041
					c0.001,0.008,0.003,0.015,0.005,0.023c0.003,0.014,0.005,0.029,0.008,0.044c0.002,0.008,0.003,0.016,0.004,0.024
					c0.002,0.016,0.005,0.033,0.007,0.049c0.001,0.007,0.002,0.014,0.003,0.021c0.003,0.024,0.005,0.048,0.008,0.072
					c0.016,0.14,0.028,0.251,0.038,0.341c0.023-0.016,0.078-0.036,0.151,0.039c0.09,0.074,0.166,0.291,0.163,0.467
					C-26.817,8.647-26.855,8.817-26.946,8.838"/>
			</g>
			<g id="g3169" transform="translate(51.2257,746.9515)">
				<path id="path3171" inkscape:connector-curvature="0" fill="#24ACE9" d="M-16.273,13.32c0,0.045-0.005,0.109-0.026,0.185
					c-0.023,0.113-0.045,0.189-0.091,0.387c-0.055,0.236-0.206,0.244-0.262,0.24c-0.044-0.003-0.268-0.062-0.419-0.188
					c-0.158-0.12-0.16-0.207-0.14-0.27c0.016-0.049,0.092-0.187,0.15-0.262c0.167-0.205,0.418-0.257,0.314-0.33
					c-0.03-0.033-0.022-0.09,0.014-0.217c0.029-0.079,0.057-0.149,0.085-0.194c0.027-0.038,0.052-0.112,0.159-0.122
					c0.027-0.003,0.059-0.001,0.052-0.018c-0.014-0.031-0.022-0.072-0.02-0.106c0.002-0.044,0.062-0.181,0.089-0.248
					c0.031-0.078,0.104-0.428,0.267-0.425c0.074,0.001,0.148,0.02,0.212,0.04c0.151,0.045,0.341,0.17,0.365,0.27
					c0.034,0.142-0.057,0.2-0.103,0.266c-0.089,0.093-0.287,0.286-0.344,0.347c-0.013,0.014-0.03,0.028-0.05,0.047
					c-0.055,0.055-0.027,0.071-0.002,0.107c0.03,0.062-0.058,0.237-0.08,0.271c-0.037,0.056-0.098,0.121-0.152,0.122
					C-16.374,13.243-16.274,13.252-16.273,13.32"/>
			</g>
			<g id="g3173" transform="translate(50.966,744.6999)">
				<path id="path3175" inkscape:connector-curvature="0" fill="#2F1E18" d="M-16.092,14.895c0.152,0.062,0.148,0.064,0.203,0.109
					c0.017,0.014,0.062-0.009,0.021-0.078c-0.017-0.028-0.044-0.015-0.039-0.077c0.008-0.08,0.177-0.201,0.063-0.225
					c-0.104-0.021-0.163,0.171-0.171,0.199c-0.009,0.027-0.054-0.002-0.077,0C-16.141,14.828-16.181,14.858-16.092,14.895"/>
			</g>
			<g id="g3177" transform="translate(49.8763,747.3212)">
				<path id="path3179" inkscape:connector-curvature="0" fill="#2F1E18" d="M-15.33,13.061c0.014-0.109,0.1-0.232,0.17-0.164
					c0.045,0.043-0.041,0.055-0.101,0.306C-15.299,13.367-15.341,13.145-15.33,13.061"/>
			</g>
			<g id="g3181" transform="translate(50.6946,746.4978)">
				<path id="path3183" inkscape:connector-curvature="0" fill="#FFFFFF" d="M-15.902,13.637c-0.069-0.007-0.153-0.013-0.189-0.059
					c-0.036-0.046-0.041-0.058-0.016-0.103c0.025-0.045,0.038-0.008,0.078,0.029c0.04,0.036,0.089,0.057,0.122,0.062
					c0.037,0.005,0.081,0.025,0.094,0.065C-15.803,13.66-15.837,13.644-15.902,13.637"/>
			</g>
			<g id="g3185" transform="translate(69.1681,744.6941)">
				<path id="path3187" inkscape:connector-curvature="0" fill="#24ACE9" d="M-28.823,14.899c0.058,0,0.14,0.085,0.176,0.14
					c0.023,0.035,0.124,0.21,0.065,0.266c-0.032,0.032-0.04,0.042,0.009,0.088c0.02,0.019,0.037,0.033,0.051,0.047
					c0.059,0.06,0.312,0.335,0.372,0.4c0.032,0.044,0.136,0.125,0.091,0.242c-0.035,0.079-0.283,0.211-0.414,0.261
					c-0.073,0.031-0.155,0.057-0.212,0.061c-0.129,0.015-0.233-0.362-0.262-0.439c-0.026-0.066-0.061-0.221-0.06-0.264
					c0-0.032,0.011-0.072,0.027-0.103c0.01-0.017-0.026-0.015-0.055-0.018c-0.116-0.011-0.173-0.087-0.195-0.115
					c-0.028-0.026-0.065-0.099-0.092-0.177c-0.032-0.125-0.022-0.177,0.012-0.209c0.118-0.071-0.133-0.101-0.311-0.338
					c-0.064-0.073-0.154-0.204-0.168-0.253c-0.019-0.061-0.034-0.13,0.157-0.26c0.144-0.113,0.418-0.177,0.466-0.18
					c0.061-0.004,0.189-0.037,0.236,0.194c0.039,0.194,0.053,0.252,0.071,0.339c0.018,0.105,0.029,0.187,0.019,0.218
					C-28.846,14.856-28.941,14.892-28.823,14.899"/>
			</g>
			<g id="g3189" transform="translate(68.6357,744.7839)">
				<path id="path3191" inkscape:connector-curvature="0" fill="#2F1E18" d="M-28.451,14.836c-0.172,0.011-0.167,0.027-0.224,0.066
					c-0.019,0.012-0.093-0.025-0.04-0.073c0.018-0.016,0.059-0.063,0.043-0.121c-0.02-0.075-0.13-0.217-0.023-0.203
					c0.122,0.015,0.15,0.188,0.164,0.213c0.014,0.026,0.035,0.036,0.061,0.04C-28.418,14.764-28.363,14.83-28.451,14.836"/>
			</g>
			<g id="g3193" transform="translate(69.8018,747.1804)">
				<path id="path3195" inkscape:connector-curvature="0" fill="#2F1E18" d="M-29.267,13.16c-0.034-0.075-0.06-0.175-0.159-0.122
					c-0.125,0.066,0.031,0.166,0.127,0.268C-29.209,13.399-29.24,13.218-29.267,13.16"/>
			</g>
			<g id="g3197" transform="translate(69.3462,746.4271)">
				<path id="path3199" inkscape:connector-curvature="0" fill="#FFFFFF" d="M-28.948,13.686c-0.059,0.05-0.118,0.104-0.179,0.102
					c-0.061-0.002-0.084-0.011-0.096-0.061c-0.012-0.05,0.024-0.035,0.08-0.043c0.057-0.008,0.118-0.048,0.147-0.071
					c0.032-0.026,0.093-0.045,0.109-0.017C-28.871,13.623-28.893,13.639-28.948,13.686"/>
			</g>
			<g id="g3201" transform="translate(58.0908,746.6218)">
				<path id="path3203" inkscape:connector-curvature="0" fill="#FFFFFF" d="M-21.075,13.55c0,0-0.085,0.209-0.172,0.203
					c0.153,0.001,0.354-0.031,0.506-0.019c0.024,0.001,0.072,0.021,0.096,0.023c0.237,0.024,0.515-0.043,0.733,0.022
					c-0.074-0.071-0.12-0.241-0.227-0.294c-0.115-0.058-0.381-0.074-0.548-0.065C-20.854,13.429-20.958,13.488-21.075,13.55"/>
			</g>
			<g id="g3205" transform="translate(54.8265,750.348)">
				<path id="path3207" inkscape:connector-curvature="0" fill="#DD1438" d="M-18.792,10.944c0,0.026,0.017,0.045,0.047,0.045
					c0.025-0.001,0.059-0.019,0.058-0.045c0.001-0.033-0.034-0.054-0.059-0.053C-18.776,10.89-18.793,10.911-18.792,10.944"/>
			</g>
			<g id="g3209" transform="translate(55.6077,749.8232)">
				<path id="path3211" inkscape:connector-curvature="0" fill="#DD1438" d="M-19.338,11.311c0,0.027,0.026,0.055,0.054,0.054
					c0.029,0.002,0.059-0.027,0.059-0.054c0-0.023-0.031-0.044-0.06-0.044C-19.312,11.264-19.339,11.288-19.338,11.311"/>
			</g>
			<g id="g3213" transform="translate(56.2681,750.7958)">
				<path id="path3215" inkscape:connector-curvature="0" fill="#DD1438" d="M-19.8,10.631c0,0.021,0.032,0.048,0.063,0.047
					c0.02-0.001,0.051-0.026,0.051-0.049c-0.011-0.038-0.03-0.054-0.051-0.054C-19.777,10.576-19.801,10.592-19.8,10.631"/>
			</g>
			<g id="g3217" transform="translate(57.0678,750.1158)">
				<path id="path3219" inkscape:connector-curvature="0" fill="#DD1438" d="M-20.36,11.106c0.001,0.028,0.014,0.052,0.047,0.052
					c0.027,0,0.048-0.024,0.048-0.05c0-0.029-0.022-0.057-0.049-0.053C-20.347,11.054-20.36,11.08-20.36,11.106"/>
			</g>
			<g id="g3221" transform="translate(57.8469,750.9487)">
				<path id="path3223" inkscape:connector-curvature="0" fill="#DD1438" d="M-20.905,10.524c0,0.027,0.018,0.049,0.05,0.049
					c0.032-0.001,0.051-0.022,0.05-0.048c0-0.027-0.019-0.05-0.052-0.049C-20.888,10.475-20.905,10.499-20.905,10.524"/>
			</g>
			<g id="g3225" transform="translate(61.5337,750.9036)">
				<path id="path3227" inkscape:connector-curvature="0" fill="#DD1438" d="M-23.483,10.555c0.005,0.029,0.02,0.045,0.051,0.04
					c0.027-0.006,0.044-0.028,0.042-0.059c-0.005-0.026-0.031-0.036-0.06-0.03C-23.479,10.511-23.487,10.535-23.483,10.555"/>
			</g>
			<g id="g3229" transform="translate(62.5866,750.7098)">
				<path id="path3231" inkscape:connector-curvature="0" fill="#DD1438" d="M-24.22,10.691c0.005,0.023,0.024,0.043,0.046,0.039
					c0.028-0.005,0.044-0.031,0.038-0.056c-0.005-0.027-0.028-0.046-0.055-0.04C-24.214,10.639-24.225,10.664-24.22,10.691"/>
			</g>
			<g id="g3233" transform="translate(63.986,750.8392)">
				<path id="path3235" inkscape:connector-curvature="0" fill="#DD1438" d="M-25.199,10.6c0.006,0.028,0.028,0.042,0.066,0.035
					c0.03-0.005,0.042-0.026,0.036-0.055c-0.006-0.031-0.025-0.055-0.055-0.049C-25.19,10.539-25.204,10.57-25.199,10.6"/>
			</g>
			<g id="g3237" transform="translate(63.1734,750.0775)">
				<path id="path3239" inkscape:connector-curvature="0" fill="#DD1438" d="M-24.63,11.133c0.006,0.032,0.033,0.047,0.069,0.042
					c0.028-0.006,0.045-0.033,0.039-0.062c-0.005-0.026-0.032-0.047-0.057-0.042C-24.617,11.078-24.635,11.107-24.63,11.133"/>
			</g>
			<g id="g3241" transform="translate(64.2705,750.0002)">
				<path id="path3243" inkscape:connector-curvature="0" fill="#DD1438" d="M-25.398,11.187c0.006,0.032,0.032,0.045,0.064,0.038
					c0.029-0.004,0.051-0.028,0.044-0.058c-0.005-0.028-0.035-0.047-0.062-0.042C-25.384,11.131-25.404,11.158-25.398,11.187"/>
			</g>
			<g id="g3245" transform="translate(56.5828,753.0482)">
				<path id="path3247" inkscape:connector-curvature="0" fill="#FFFFFF" d="M-20.021,9.055c-0.156-0.044-0.272-0.164-0.319-0.283
					c0-0.035,0.086-0.071,0.089-0.084c0.042-0.012,0.185,0.013,0.235,0.012c0.17-0.002,0.363,0.077,0.314,0.174
					C-19.701,8.874-19.864,9.099-20.021,9.055"/>
			</g>
			<g id="g3249" transform="translate(63.9137,752.0758)">
				<path id="path3251" inkscape:connector-curvature="0" fill="#FFFFFF" d="M-25.148,9.735c0.043,0.069-0.148,0.325-0.27,0.313
					c-0.122-0.012-0.213-0.058-0.309-0.207c-0.005-0.009,0.002-0.048-0.003-0.058c0.046-0.076,0.176-0.132,0.329-0.131
					c0.049,0,0.096,0.006,0.139,0.017C-25.26,9.717-25.19,9.666-25.148,9.735"/>
			</g>
			<g id="g3253" transform="translate(59.7563,738.9479)">
				<path id="path3255" inkscape:connector-curvature="0" fill="#2F1E18" d="M-22.24,18.918c0.13-0.033,0.251,0.038,0.271,0.13
					c0.014,0.067-0.006,0.127-0.029,0.169c-0.022,0.041-0.045,0.063-0.092,0.093c-0.047,0.033-0.12,0.027-0.143,0.019l-0.02-0.009
					C-22.381,19.27-22.458,18.973-22.24,18.918 M-23.373,20.69c-0.004-0.186-0.005-0.371-0.009-0.624
					c0.02-0.033,0.046-0.072,0.082-0.122c0.062-0.086,0.15,0.204,0.258,0.143c0.115-0.065,0.109-0.268,0.232-0.364
					c0.073-0.057,0.209,0.267,0.28,0.09c0.077-0.192,0.216-0.236,0.365-0.313c0.067,0.059,0.165,0.067,0.247,0.164
					c0.077,0.091,0.123,0.183,0.18,0.201c0.088,0.027,0.139-0.189,0.234-0.155c0.154,0.057,0.127,0.342,0.271,0.38
					c0.073,0.02,0.084-0.106,0.17-0.118c0.086-0.013,0.167,0.287,0.212,0.412c0.022,0.062,0.054,0.079,0.102,0.061
					c0.068-0.026,0.072-0.117,0.078-0.273c0.01-0.22,0.111-0.432,0.234-0.579c0.123-0.147-0.19-0.066-0.312,0.253
					c-0.076,0.198-0.055,0.2-0.112,0.098c0,0-0.105-0.182-0.173-0.2c-0.087-0.023-0.17,0.104-0.17,0.104s-0.102-0.354-0.276-0.355
					c-0.164-0.001-0.219,0.174-0.257,0.106c-0.029-0.05-0.065-0.125-0.212-0.179c0.079-0.06,0.147-0.122,0.176-0.231v0
					c0.056-0.259-0.136-0.422-0.362-0.439c-0.163-0.011-0.361,0.058-0.413,0.211c-0.057,0.195,0.063,0.373,0.181,0.457
					c-0.109,0.029-0.195,0.102-0.258,0.195c0,0-0.092-0.127-0.228-0.103c-0.087,0.015-0.203,0.186-0.244,0.331
					c-0.002,0.007-0.096-0.128-0.206-0.11c-0.148,0.024-0.146,0.133-0.217,0.239c-0.016,0.023-0.069,0.1-0.079,0.034
					c-0.008-0.053-0.026-0.127-0.067-0.209c-0.075-0.151-0.292-0.318-0.388-0.255c0.085,0.034,0.227,0.203,0.271,0.353
					c0.049,0.168,0.061,0.326,0.043,0.49c-0.014,0.131,0.115,0.059,0.201-0.031l0.004,0.085c0.005,0.094,0.006,0.2,0.007,0.3
					c0,0.044-0.02,0.128-0.072,0.188c-0.054,0.064-0.136,0.197-0.183,0.265c0,0-0.055,0.087-0.09,0.152
					c-0.032,0.06-0.062,0.129-0.105,0.25c-0.035,0.101-0.073,0.251-0.094,0.439c-0.022,0.193-0.019,0.238-0.024,0.361
					c0.026-0.117,0.063-0.31,0.077-0.372c0.064-0.28,0.116-0.409,0.215-0.578c0.098-0.176,0.223-0.316,0.341-0.441
					c0.069-0.073,0.213-0.191,0.304-0.264c0.122-0.098,0.176-0.142,0.314-0.228c0.122-0.077,0.346-0.232,0.653-0.229
					c0.289,0.003,0.446,0.117,0.54,0.171c0.202,0.117,0.307,0.209,0.447,0.34c0.161,0.151,0.244,0.226,0.342,0.341
					c0.127,0.148,0.244,0.307,0.35,0.681c0.058,0.204,0.095,0.443,0.119,0.577c0.003-0.048,0.011-0.101-0.004-0.286
					c-0.014-0.134-0.028-0.256-0.057-0.378c-0.042-0.178-0.081-0.298-0.152-0.428c-0.073-0.134-0.093-0.145-0.215-0.329
					c-0.086-0.121-0.089-0.126-0.093-0.218c-0.003-0.386-0.089-0.916-0.155-0.079c-0.425-0.361-0.79-0.588-1.136-0.592
					C-22.549,20.079-22.904,20.304-23.373,20.69 M-21.315,23.272c-0.071-0.023-0.182-0.124-0.221-0.183
					c-0.048-0.073-0.079-0.203-0.141-0.206c-0.024,0.008-0.001,0.062-0.037,0.059c-0.047-0.011-0.075-0.051-0.063-0.1
					c0.009-0.024,0.03-0.043,0.063-0.047c0.111-0.014,0.128,0.088,0.17,0.147c0.036,0.049,0.109,0.124,0.149,0.147
					c0.036,0.021,0.09,0.037,0.135,0.001c0.027-0.023,0-0.073-0.02-0.083c-0.051-0.004-0.099,0.014-0.123,0.009
					c-0.024-0.005-0.06-0.071-0.066-0.152c0.053-0.022,0.066,0.019,0.119,0.02c0.085,0.001,0.168-0.054,0.211-0.012
					c0.044,0.043,0.042,0.122,0.042,0.156c0.072-0.003,0.105-0.105,0.075-0.157c-0.024-0.028-0.082-0.022-0.082-0.074
					c0.246-0.05,0.269,0.053,0.288,0.109c0.014,0.045,0.008,0.081-0.012,0.143C-20.899,23.232-21.118,23.336-21.315,23.272
					 M-23.593,22.805c0.044-0.023,0.136-0.068,0.209-0.046c0.009,0.028-0.015,0.042-0.031,0.042
					c-0.046,0.002-0.079,0.043-0.078,0.062c0.005,0.063,0.07,0.164,0.147,0.205c0.07,0.05,0.124,0.023,0.144-0.016
					c-0.002-0.03-0.012-0.053-0.038-0.059c-0.04-0.009-0.069,0.026-0.099,0.013c-0.056-0.059-0.034-0.13-0.014-0.154
					c0.02-0.024,0.044-0.034,0.052-0.026c0.038,0.048,0.128,0.047,0.219,0.039c0.039,0.027,0.041,0.093,0.052,0.15
					c0.065,0.074,0.097-0.075,0.14-0.133c0.028-0.039,0.059-0.084,0.097-0.088c0.066-0.007,0.151,0.046,0.119,0.143
					c-0.019,0.025-0.071-0.025-0.092-0.009c-0.079,0.075-0.008,0.227-0.171,0.309c-0.175,0.088-0.446,0.057-0.555-0.079
					c-0.042-0.053-0.088-0.112-0.122-0.201C-23.629,22.897-23.645,22.836-23.593,22.805 M-21.923,22.141
					c-0.107,0.032-0.132-0.083-0.241-0.082c-0.153,0-0.185,0.098-0.266,0.09c-0.067-0.007-0.101-0.109-0.147-0.116
					c-0.036,0.007-0.029-0.054,0.017-0.066c0.092-0.023,0.072,0.054,0.133,0.032c0.036-0.014,0.043-0.075,0.146-0.122
					c0.102-0.047,0.205,0.009,0.297,0.092c0.058,0.056,0.169,0.053,0.14,0.087C-21.868,22.069-21.886,22.131-21.923,22.141
					 M-21.699,23.54c0.007-0.03,0.112,0,0.162,0.019c0.038,0.015,0.07,0.031,0.118,0.041c0.033,0.007,0.081,0.012,0.113,0.012
					c0.075,0,0.123-0.001,0.187-0.011c0.102-0.017,0.293-0.117,0.309-0.073c0.017,0.082-0.055,0.148-0.109,0.178
					c-0.136,0.073-0.342,0.111-0.527,0.036c-0.062-0.029-0.083-0.054-0.141-0.094C-21.63,23.62-21.704,23.576-21.699,23.54
					 M-22.431,21.385c0.024,0.001,0.117,0.01,0.141,0.012c0.236,0.022,0.453-0.039,0.671,0.023c-0.075-0.07-0.136-0.179-0.244-0.231
					c-0.115-0.057-0.326-0.057-0.492-0.045c-0.168,0.011-0.305,0.103-0.422,0.166c-0.032-0.095,0.019-0.131,0.092-0.196
					c0.082-0.074,0.211-0.174,0.404-0.179c0.28-0.007,0.501,0.02,0.642,0.252c0.043,0.076,0.159,0.232,0.28,0.29
					c0.068,0.032,0.222,0.105,0.197,0.145c-0.046,0.059-0.137,0.048-0.203,0.034c-0.05-0.01-0.065-0.102-0.148-0.108
					c-0.197-0.026-0.389,0.044-0.632,0.036c-0.175-0.005-0.313-0.046-0.5-0.06c-0.18-0.014-0.243,0.081-0.412,0.102
					c-0.077,0.01-0.091-0.035-0.033-0.108c0.055-0.056,0.15-0.11,0.225-0.108C-22.712,21.406-22.583,21.374-22.431,21.385
					 M-22.918,23.575c-0.042,0.011-0.067,0.027-0.12,0.034c-0.033,0.004-0.081,0.007-0.114,0.005
					c-0.074-0.004-0.111-0.004-0.186-0.023c-0.1-0.026-0.285-0.135-0.304-0.092c-0.016,0.058,0.014,0.11,0.052,0.147
					c0.133,0.043,0.242,0.068,0.411,0.135c0.054-0.002,0.108-0.01,0.16-0.029c0.055-0.023,0.097-0.054,0.147-0.085
					c0.041-0.026,0.122-0.066,0.117-0.101C-22.766,23.537-22.867,23.562-22.918,23.575"/>
			</g>
		</g>
	</g>
</g>
</svg>
