<?xml version="1.0" encoding="utf-8"?>
<!-- Generator: Adobe Illustrator 16.0.0, SVG Export Plug-In . SVG Version: 6.00 Build 0)  -->
<!DOCTYPE svg PUBLIC "-//W3C//DTD SVG 1.1//EN" "http://www.w3.org/Graphics/SVG/1.1/DTD/svg11.dtd">
<svg version="1.1" id="Layer_1" xmlns="http://www.w3.org/2000/svg" xmlns:xlink="http://www.w3.org/1999/xlink" x="0px" y="0px"
	 width="209.104px" height="143.004px" viewBox="166.698 130.373 209.104 143.004"
	 enable-background="new 166.698 130.373 209.104 143.004" xml:space="preserve">
<g>
	<path fill="#00674B" d="M261.244,144.897c0.936,0,1.531-0.945,2.124-2.406c0.766-1.807,4.338-5.157,9.263-5.157
		c3.739,0,7.394,2.323,10.367,4.729c2.805,2.32,5.099,2.405,5.099,3.439c0,0.341-0.594,0.6-1.272,0.6
		c-2.805,0-7.73-4.21-13.001-4.21c-5.95,0-10.795,5.155-10.795,8.077c0,0.86,0.341,1.549,1.444,1.549
		c1.278,0,2.724-3.098,6.036-3.098c3.057,0,5.608,2.924,9.856,2.323c0.511-0.086,0.679,0.686,0.335,0.861
		c-8.496,4.81-17.5,9.368-17.5,24.581c0,11.688,6.543,22.952,20.986,22.952c15.045,0,22.266-9.8,22.266-22.952
		c0-11.346-6.877-21.829-16.144-21.829c-0.34,0-0.678,0-1.021,0.084c-0.596,0.169-1.106,0.684-1.106,1.46
		c0,0.943,0.258,1.205,0.853,1.63c5.951,4.216,7.994,8.342,7.994,19.775c0,8.076-3.318,17.05-11.651,17.05
		c-9.006,0-12.831-9.66-12.831-18.339c0-10.059,2.552-14.789,8.843-19.512c6.793-5.161,14.873-7.568,14.873-12.296
		c0-2.317-2.467-2.749-4.083-2.834c-1.444-0.087-3.486-0.605-4.506-2.064c-4.162-4.385-9.008-8.938-14.784-8.938
		c-8.243,0-13.09,8.767-13.09,12.033C259.797,143.698,260.052,144.897,261.244,144.897z"/>
	<path fill="#00674B" d="M343.522,157.802h1.305c0.389,0,0.907,0.394,1.038,0.985c0.194,0.528,0.259,0.856,0.259,2.57v29.421
		c0,1.771-0.063,2.106-0.259,2.628c-0.131,0.462-0.584,0.856-1.038,0.856h-1.305c-0.907,0-1.625,0.79-1.625,1.779
		c0,1.445,0.718,1.909,2.93,1.909h25.507l1.241-0.07c1.032-0.064,1.362-0.324,1.813-1.445l1.89-4.407
		c0.391-0.922,0.524-1.516,0.524-1.845c0-0.923-0.652-1.577-1.694-1.577c-0.848,0-1.171,0.26-1.949,1.443
		c-1.303,1.914-2.539,2.897-4.041,3.156c-1.104,0.2-2.799,0.269-6.047,0.269c-3.452,0-4.747-0.135-5.601-0.463
		c-1.04-0.393-1.233-1.115-1.233-4.604v-10.402c0-1.448,0.193-2.106,0.585-2.37c0.329-0.194,0.781-0.259,2.665-0.259h5.081
		c1.693,0,2.53-0.79,2.53-2.308c0-1.579-0.648-2.168-2.53-2.168h-8.331v-8.43c0-3.485,0.395-3.943,3.969-3.943h4.362
		c4.098,0,5.332,0.458,6.64,2.365c0.454,0.596,0.711,0.989,0.777,1.123c0.26,0.26,0.591,0.523,0.911,0.654
		c0.192,0.132,0.454,0.202,0.711,0.202c0.982,0,1.764-0.729,1.764-1.516c0-0.196-0.133-0.595-0.328-1.119l-1.884-4.869
		c-0.391-0.994-0.914-1.318-2.276-1.318h-25.056c-2.212,0-2.995,0.462-2.995,1.907C341.83,156.943,342.615,157.802,343.522,157.802z
		"/>
	<path fill="#00674B" d="M308.707,157.802h1.241c0.451,0,0.975,0.33,1.102,0.856c0.193,0.524,0.269,0.789,0.269,2.562v29.754
		c0,1.644-0.075,1.973-0.269,2.432c-0.127,0.462-0.65,0.856-1.102,0.856h-1.241c-0.91,0-1.623,0.79-1.623,1.779
		c0,1.445,0.713,1.909,2.864,1.909h25.054c2.014,0,2.536-0.328,3.186-1.976l2.017-5.001l0.262-0.725
		c0.131-0.268,0.196-0.527,0.196-0.79c0-0.79-0.784-1.447-1.759-1.447c-0.778,0-1.174,0.264-1.952,1.381
		c-1.562,2.24-2.407,3.093-3.513,3.554c-1.107,0.458-1.823,0.458-5.727,0.458c-4.488,0-5.727-0.065-6.376-0.521
		c-0.779-0.46-0.908-1.123-0.908-4.019V161.22c0-1.71,0-2.104,0.192-2.562c0.192-0.526,0.78-0.856,1.365-0.856h1.434
		c0.905,0,1.689-0.792,1.689-1.844c0-1.445-0.784-1.907-3.123-1.907h-12.037c-2.212,0-2.992,0.462-2.992,1.907
		C306.955,157.01,307.737,157.802,308.707,157.802z"/>
	<path fill="#00674B" d="M298.163,240.263c-0.065,1.51-0.195,1.64-2.212,1.974c-1.107,0.131-1.753,0.788-1.753,1.774
		c0,0.526,0.325,1.122,0.777,1.446c2.282,1.783,10.021,3.295,16.787,3.295c7.228,0,12.235-1.452,16.078-4.544
		c4.813-3.88,7.479-10.463,7.479-18.426c0-7.111-2.078-13.102-5.919-16.981c-3.969-4.083-9.312-5.86-17.113-5.86
		c-7.355,0-14.969,1.385-17.246,3.162c-0.518,0.393-0.843,0.985-0.843,1.574c0,0.991,0.715,1.648,1.95,1.71
		c1.757,0.136,1.949,0.397,2.015,2.113l0.066,1.445v25.868L298.163,240.263z M307.341,213.802c0-3.752,0.129-4.541,0.974-5.197
		c0.979-0.793,2.865-1.321,4.883-1.321c7.741,0,12.36,6.848,12.36,18.43c0,11.589-4.619,18.298-12.622,18.298
		c-2.471,0-4.43-0.656-5.139-1.644c-0.39-0.658-0.456-1.19-0.456-3.816V213.802L307.341,213.802z"/>
	<path fill="#00674B" d="M340.53,220.45c2.017,2.37,2.599,2.764,8.78,7.105c3.71,2.635,5.471,4.082,6.898,5.666
		c1.368,1.575,2.081,3.156,2.081,4.935c0,3.482-2.86,5.855-7.09,5.855c-3.707,0-7.355-1.978-9.627-5.198l-0.914-1.318
		c-0.395-0.524-0.979-0.856-1.628-0.856c-1.167,0-2.079,0.856-2.079,2.043c0,0.325,0.058,0.92,0.191,1.314l1.626,6.583
		c0.388,1.582,0.911,2.173,2.016,2.173c0.585,0,0.912-0.133,1.497-0.591c0.59-0.527,0.847-0.66,1.368-0.66
		c0.392,0,0.52,0.067,1.43,0.327c1.89,0.595,4.428,0.925,6.835,0.925c8.591,0,14.184-5.006,14.184-12.639
		c0-3.354-1.298-6.647-3.513-8.951c-2.079-2.178-3.772-3.485-8.912-7.11c-1.365-0.986-2.413-1.708-3.194-2.304
		c-1.296-0.986-2.343-2.04-2.985-3.026c-0.523-0.728-0.721-1.713-0.721-2.697c0-2.699,1.956-4.409,4.947-4.409
		c2.146,0,4.355,0.719,6.119,2.104c1.366,1.053,1.624,1.318,3.124,3.554c0.584,0.856,0.975,1.117,1.69,1.117
		c1.104,0,1.887-0.724,1.887-1.58c0-0.194,0-0.587-0.131-0.918l-1.562-7.107c-0.262-1.188-0.845-1.846-1.823-1.846
		c-0.518,0-0.716,0.064-1.367,0.527c-0.58,0.393-1.038,0.588-1.493,0.588c-0.262,0-0.586-0.06-0.913-0.126
		c-0.908-0.198-1.429-0.332-1.627-0.395c-1.887-0.394-3.774-0.595-5.597-0.595c-7.155,0-11.97,4.214-11.97,10.597
		C338.057,216.173,338.9,218.539,340.53,220.45z"/>
	<path fill="#00674B" d="M196.282,208.335c6.771,0,7.553,0.271,9.376,3.032c0.65,0.984,1.104,1.38,1.819,1.38
		c0.978,0,1.688-0.722,1.688-1.579c0-0.264-0.06-0.526-0.255-1.053l-1.69-4.475c-0.326-0.793-0.652-1.314-1.041-1.51
		c-0.328-0.201-0.521-0.271-1.566-0.271h-23.878c-2.147,0-2.862,0.466-2.862,1.908c0,0.991,0.647,1.848,1.56,1.848h1.303
		c0.454,0,0.909,0.329,1.104,0.852c0.131,0.466,0.196,0.858,0.196,2.571v29.55c0,1.779-0.065,2.107-0.196,2.566
		c-0.195,0.532-0.65,0.856-1.104,0.856h-1.303c-0.912,0-1.688,0.854-1.688,1.843c0,1.445,0.777,1.909,2.991,1.909h11.971
		c2.409,0,3.19-0.464,3.19-1.909c0-0.988-0.717-1.843-1.692-1.843h-1.498c-0.519,0-1.103-0.324-1.365-0.856
		c-0.197-0.459-0.197-0.787-0.197-2.566v-13.098c0-1.379,0.065-1.777,0.521-1.971c0.262-0.132,0.586-0.201,0.912-0.201h6.639
		c1.822,0,2.796-0.788,2.796-2.239c0-1.513-0.908-2.234-2.796-2.234h-8.072v-9.807C191.144,208.468,191.536,208.335,196.282,208.335
		z"/>
	<path fill="#00674B" d="M362.982,253.057H181.666c-5.549,0-10.045,4.547-10.045,10.16c0,5.607,4.496,10.159,10.045,10.159h181.315
		c5.549,0,10.046-4.552,10.046-10.159C373.028,257.604,368.531,253.057,362.982,253.057z M206.31,266.9
		c0.019,0.187,0.251,0.304,0.45,0.304h0.415c0.348,0,0.646,0.354,0.646,0.74c0,0.499-0.266,0.701-1.062,0.701h-4.683
		c-0.831,0-1.146-0.202-1.146-0.701c0-0.387,0.314-0.74,0.698-0.74h0.447c0.198,0,0.384-0.117,0.465-0.304
		c0.081-0.199,0.081-0.318,0.081-1.008v-5.27l-4.199,4.144c-0.251,0.269-0.546,0.419-0.845,0.419c-0.316,0-0.45-0.1-0.765-0.419
		l-3.952-4.263v5.388c0,0.653,0,0.809,0.068,1.008c0.064,0.202,0.246,0.304,0.449,0.304h0.497c0.4,0,0.694,0.354,0.694,0.74
		c0,0.5-0.267,0.701-1.191,0.701h-3.355c-0.812,0-1.145-0.201-1.145-0.701c0-0.387,0.332-0.74,0.697-0.74h0.447
		c0.201,0,0.366-0.117,0.449-0.304c0.084-0.169,0.099-0.403,0.099-1.008v-5.894c0-0.685-0.015-0.856-0.099-1.041
		c-0.083-0.199-0.248-0.352-0.449-0.352h-0.447c-0.366,0-0.697-0.303-0.697-0.704c0-0.523,0.332-0.723,1.145-0.723h3.803
		c0.4,0,0.63,0.102,1.179,0.707l3.588,3.98l4.179-4.151c0.434-0.42,0.698-0.536,1.064-0.536h2.923c0.796,0,1.062,0.199,1.062,0.723
		c0,0.401-0.299,0.704-0.646,0.704h-0.536c-0.198,0-0.294,0.118-0.381,0.3c-0.082,0.169-0.082,0.408-0.082,1.093v5.894
		C206.177,266.545,206.177,266.701,206.31,266.9z M237.537,268.645h-5.261c-0.5,0-0.766-0.284-0.766-0.701
		c0-0.508,0.281-0.643,0.945-0.755c0.564-0.103,0.612-0.406,0.4-0.942l-0.068-0.169c-0.131-0.337-0.316-0.368-0.894-0.368h-3.818
		c-0.385,0-0.583,0.03-0.685,0.081c-0.114,0.053-0.196,0.101-0.25,0.201l-0.045,0.12c-0.167,0.384,0.016,0.974,0.695,1.056
		c0.646,0.087,0.912,0.268,0.912,0.737c0,0.469-0.346,0.739-0.862,0.739h-4.15c-0.614,0-0.896-0.202-0.896-0.654
		c0-0.434,0.214-0.619,0.697-0.735c0.349-0.087,0.466-0.17,0.614-0.355c0.115-0.149,0.348-0.605,0.584-1.056l3.898-7.811
		c0.45-0.889,1.295-1.092,2.075-1.092c0.712,0,1.613,0.254,2.025,1.092l3.769,7.51c0.58,1.157,0.761,1.404,1.146,1.543l0.35,0.117
		c0.248,0.081,0.449,0.301,0.449,0.653C238.402,268.361,238.101,268.645,237.537,268.645z M268.25,268.645h-3.104
		c-0.697,0-1.033-0.216-1.516-0.739l-3.502-3.976c-0.345-0.391-0.478-0.624-0.478-0.792c0-0.334,0.282-0.484,0.978-0.553
		c1.762-0.151,2.637-0.789,2.637-2.136c0-1.508-1.212-2.197-2.721-2.197c-0.583,0-1.161,0.116-1.462,0.333
		c-0.261,0.202-0.363,0.54-0.417,1.264l-0.046,0.821v5.173c0,0.653,0,0.841,0.066,0.989c0.083,0.217,0.299,0.356,0.482,0.356h0.515
		c0.349,0,0.631,0.314,0.631,0.716c0,0.538-0.283,0.739-1.146,0.739h-4.664c-0.814,0-1.149-0.201-1.149-0.739
		c0-0.401,0.335-0.716,0.698-0.716h0.451c0.245,0,0.397-0.14,0.481-0.356c0.062-0.185,0.062-0.336,0.062-0.989v-5.761
		c0-0.688-0.114-0.804-0.763-0.844c-0.497-0.026-0.776-0.262-0.776-0.701c0-0.219,0.133-0.472,0.279-0.623
		c0.815-0.651,3.965-0.973,6.472-0.973c4.285,0,6.645,1.109,6.645,3.223c0,1.459-0.648,2.67-2.955,3.074l2.226,2.453
		c0.827,0.922,1.425,1.241,2.122,1.357c0.497,0.14,0.565,0.153,0.713,0.235c0.148,0.087,0.304,0.302,0.304,0.571
		C269.314,268.361,268.945,268.645,268.25,268.645z M290.578,268.645h-4.668c-0.813,0-1.141-0.202-1.141-0.739
		c0-0.401,0.327-0.717,0.693-0.717h0.446c0.249,0,0.399-0.14,0.48-0.355c0.068-0.186,0.068-0.337,0.068-0.989v-5.847
		c0-0.656-0.014-0.889-0.068-1.005c-0.081-0.186-0.231-0.352-0.48-0.352h-0.446c-0.366,0-0.693-0.307-0.693-0.739
		c0-0.523,0.327-0.723,1.141-0.723h4.668c0.858,0,1.146,0.199,1.146,0.723c0,0.433-0.287,0.739-0.648,0.739h-0.497
		c-0.203,0-0.352,0.13-0.433,0.352c-0.086,0.22-0.117,0.32-0.117,1.005v5.847c0,0.436,0.018,0.856,0.145,1.056
		c0.123,0.187,0.238,0.289,0.405,0.289h0.496c0.314,0,0.649,0.315,0.649,0.717C291.724,268.443,291.39,268.645,290.578,268.645z
		 M300.516,268.645h-3.15c-0.683,0-0.896-0.233-1.393-0.739l-4.57-4.567c-0.213-0.217-0.299-0.334-0.299-0.473
		c0-0.131,0.134-0.299,0.299-0.432l3.309-2.82c0.479-0.419,0.197-0.93-0.069-0.93c-0.3,0-0.476-0.278-0.476-0.782
		c0-0.454,0.228-0.723,0.794-0.723h5.293c0.549,0,0.848,0.217,0.848,0.706c0,0.418-0.214,0.641-0.848,0.721
		c-0.579,0.078-0.808,0.078-1.213,0.183c-0.377,0.102-0.86,0.388-1.178,0.655l-3.02,2.621l3.734,3.71
		c0.983,0.976,1.546,1.274,2.04,1.414c0.562,0.146,0.833,0.247,0.833,0.717C301.45,268.361,301.12,268.645,300.516,268.645z
		 M330.103,266.078l-0.862,2.183c-0.136,0.285-0.23,0.353-0.663,0.353l-0.502,0.031h-10.208c-0.861,0-1.145-0.201-1.145-0.739
		c0-0.401,0.283-0.702,0.629-0.702h0.516c0.149,0,0.346-0.153,0.382-0.356c0.1-0.162,0.119-0.351,0.119-1.003v-5.794
		c0-0.655-0.02-0.837-0.119-1.009c-0.036-0.234-0.232-0.4-0.382-0.4h-0.516c-0.346,0-0.676-0.338-0.676-0.739
		c0-0.523,0.33-0.723,1.191-0.723h10.109c0.532,0,0.714,0.084,0.814,0.337l0.763,1.979c0.032,0.1,0.116,0.232,0.101,0.285
		c-0.048,0.205-0.464,0.384-0.829,0.384c-0.135,0-0.229,0-0.3-0.051c-0.132-0.031-0.231-0.1-0.316-0.147
		c-0.048-0.066-0.095-0.151-0.248-0.317c-0.412-0.489-1.14-1.008-2.777-1.008h-1.687c-1.411,0-1.564,0.13-1.564,1.039v1.898h3.251
		c0.783,0,1.003,0.417,1.003,0.855c0,0.469-0.301,0.894-1.003,0.894h-1.984c-0.518,0-0.914-0.037-1.048,0.062
		c-0.134,0.103-0.219,0.285-0.219,0.671v1.799c0,0.903,0.07,1.089,0.504,1.19c0.277,0.069,0.842,0.141,2.187,0.141
		c1.262,0,1.927-0.039,2.339-0.088c0.566-0.065,1.401-1.024,1.813-1.543c0.248-0.322,0.348-0.373,0.698-0.373
		c0.433,0,0.664,0.171,0.716,0.389C330.217,265.692,330.201,265.806,330.103,266.078z M358.54,260.385
		c-0.266,0-0.48-0.101-0.693-0.388c-0.123-0.148-0.149-0.183-0.202-0.23c-0.244-0.307-0.667-0.895-0.964-0.997
		c-0.278-0.102-0.65-0.13-1.593-0.13c-1.194,0-1.344,0.083-1.344,0.82v6.383c0,0.653,0,0.805,0.064,0.989
		c0.085,0.217,0.282,0.356,0.501,0.356h0.692c0.388,0,0.68,0.314,0.68,0.716c0,0.538-0.292,0.739-1.223,0.739h-5.034
		c-0.896,0-1.208-0.201-1.208-0.739c0-0.401,0.312-0.716,0.646-0.716h0.748c0.168,0,0.363-0.14,0.445-0.356
		c0.068-0.185,0.116-0.336,0.116-0.989v-6.383c0-0.716-0.116-0.82-1.606-0.82c-1.282,0-1.909,0.519-2.36,1.156l-0.134,0.188
		c-0.226,0.332-0.429,0.4-0.766,0.4c-0.361,0-0.861-0.188-0.891-0.4c0-0.051,0.029-0.239,0.081-0.371l0.768-1.999
		c0.146-0.42,0.265-0.437,0.859-0.437h11.653c0.382,0,0.4,0.017,0.567,0.084c0.081,0.032,0.142,0.152,0.228,0.352l0.83,2.098
		c0.034,0.102,0.082,0.222,0.069,0.273C359.438,260.184,358.936,260.385,358.54,260.385z"/>
	<path fill="#00674B" d="M230.347,260.791c-0.199-0.439-0.282-0.793-0.329-1.062h-0.101c-0.066,0.258-0.235,0.639-0.42,1.062
		l-1.258,2.823l-0.249,0.395l0.433-0.043h3.071l0.35,0.043l-0.217-0.395L230.347,260.791z"/>
	<path fill="#00674B" d="M184.656,195.634c0.91,2.501,1.822,3.283,3.71,3.283c0.848,0,1.691-0.322,2.211-0.72
		c0.519-0.525,0.716-0.988,1.302-2.563l6.377-18.035l5.986,18.035c0.779,2.431,1.756,3.283,3.707,3.283
		c1.952,0,2.8-0.915,3.774-4.142l10.344-33.76c0.725-2.312,1.178-2.935,2.534-3.224h0.355c0.459,0,0.912,0.328,1.109,0.854
		c0.193,0.458,0.193,0.788,0.193,2.568v29.549c0,1.771,0,2.099-0.193,2.627c-0.134,0.461-0.65,0.792-1.109,0.792h-1.301
		c-0.909,0-1.69,0.857-1.69,1.842c0,1.449,0.781,1.909,2.991,1.909h11.844c2.083,0,2.799-0.46,2.799-1.843
		c0-1.051-0.65-1.908-1.56-1.908h-1.239c-0.522,0-1.042-0.331-1.235-0.792c-0.133-0.528-0.197-0.916-0.197-2.627v-12.045
		c0-3.026,0.263-3.291,2.672-3.291h8.846c1.298,0,1.952,0.198,2.274,0.597c0.329,0.393,0.329,0.657,0.329,3.092v11.649
		c0,1.71,0,2.099-0.195,2.627c-0.194,0.46-0.72,0.791-1.172,0.791h-1.236c-0.914,0-1.692,0.857-1.692,1.842
		c0,1.449,0.718,1.909,2.929,1.909h11.84c2.282,0,2.993-0.46,2.993-1.909c0-0.984-0.711-1.842-1.688-1.842h-1.306
		c-0.456,0-0.973-0.331-1.108-0.791c-0.192-0.528-0.252-0.917-0.252-2.627v-29.549c0-1.646,0.061-2.11,0.252-2.569
		c0.136-0.462,0.652-0.854,1.108-0.854h1.306c0.908,0,1.688-0.79,1.688-1.842c0-1.449-0.78-1.911-2.993-1.911h-11.84
		c-2.211,0-2.996,0.461-2.996,1.911c0,1.052,0.785,1.842,1.761,1.842h1.235c0.453,0,0.978,0.328,1.172,0.854
		c0.196,0.459,0.196,0.856,0.196,2.569v9.735h-14.122v-9.735c0-1.646,0.064-2.11,0.198-2.569c0.192-0.462,0.712-0.854,1.234-0.854
		h1.239c0.909,0,1.621-0.79,1.621-1.842c0-1.449-0.712-1.911-2.86-1.911h-21.498c-1.756,0-2.473,0.527-2.473,1.843
		c0,1.053,0.65,1.713,2.08,1.841c1.562,0.194,2.278,0.725,2.278,1.711c0,0.396-0.066,0.919-0.26,1.582l-7.678,25.206l-7.741-24.09
		c-0.523-1.577-0.651-2.169-0.651-2.763c0-1.186,0.454-1.577,2.21-1.774c1.433-0.198,2.085-0.728,2.085-1.78
		c0-1.182-0.717-1.775-2.212-1.775h-12.753c-1.497,0-2.281,0.72-2.281,1.97c0,0.993,0.521,1.453,1.888,1.783
		c1.498,0.392,2.02,0.722,2.408,1.71c0.131,0.262,0.264,0.785,0.521,1.515l2.992,8.817l-6.049,17.044l-8.783-24.746l-0.521-1.512
		c-0.194-0.529-0.262-0.991-0.262-1.445c0-1.056,0.587-1.519,2.019-1.648c1.691-0.131,2.344-0.592,2.344-1.713
		c0-1.182-0.652-1.775-2.147-1.775h-13.407c-1.496,0-2.21,0.594-2.21,1.711c0,1.054,0.456,1.514,1.824,1.777
		c2.078,0.464,2.404,0.792,3.382,3.489L184.656,195.634z"/>
	<path fill="#00674B" d="M229.256,248.753c11.006,0,18.648-6.273,20.899-16.509c2.191,10.151,9.811,16.509,20.615,16.509
		c13.212,0,21.601-9.021,21.601-23.104c0-13.824-8.389-22.708-21.474-22.708c-10.888,0-18.463,6.218-20.703,16.427
		c-2.19-10.17-9.843-16.427-20.806-16.427c-13.08,0-21.411,8.952-21.411,23.036C207.978,239.732,216.373,248.753,229.256,248.753z
		 M270.835,207.616c7.224,0,11.777,7.038,11.777,18.361c0,11.057-4.491,18.034-11.644,18.034c-7.354,0-11.718-6.71-11.718-17.971
		C259.251,214.593,263.615,207.616,270.835,207.616z M229.32,207.616c7.224,0,11.777,7.038,11.777,18.361
		c0,11.057-4.489,18.034-11.646,18.034c-7.354,0-11.714-6.71-11.714-17.971C217.738,214.593,222.098,207.616,229.32,207.616z"/>
</g>
</svg>
